<?xml version="1.0" encoding="UTF-8" standalone="no"?>
<!-- Created with Inkscape (http://www.inkscape.org/) -->

<svg
   xmlns:dc="http://purl.org/dc/elements/1.1/"
   xmlns:cc="http://creativecommons.org/ns#"
   xmlns:rdf="http://www.w3.org/1999/02/22-rdf-syntax-ns#"
   xmlns:svg="http://www.w3.org/2000/svg"
   xmlns="http://www.w3.org/2000/svg"
   xmlns:sodipodi="http://sodipodi.sourceforge.net/DTD/sodipodi-0.dtd"
   xmlns:inkscape="http://www.inkscape.org/namespaces/inkscape"
   width="181.25"
   height="192.22359"
   id="svg5696"
   version="1.1"
   inkscape:version="0.48.4 r9939"
   sodipodi:docname="zoe10.svg">
  <defs
     id="defs5698">
    <clipPath
       id="SVGID_2_">
      <rect
         height="88.862999"
         width="111.498"
         y="518.96198"
         x="382.04999"
         id="use1087" />
    </clipPath>
    <clipPath
       id="SVGID_4_">
      <rect
         height="41.314999"
         width="49.584999"
         y="525.19397"
         x="389.84698"
         id="use1111" />
    </clipPath>
  </defs>
  <sodipodi:namedview
     id="base"
     pagecolor="#ffffff"
     bordercolor="#666666"
     borderopacity="1.0"
     inkscape:pageopacity="0.0"
     inkscape:pageshadow="2"
     inkscape:zoom="0.77472527"
     inkscape:cx="128.95768"
     inkscape:cy="141.65957"
     inkscape:current-layer="layer1"
     inkscape:document-units="px"
     showgrid="false"
     inkscape:window-width="763"
     inkscape:window-height="591"
     inkscape:window-x="592"
     inkscape:window-y="97"
     inkscape:window-maximized="0"
     fit-margin-top="0"
     fit-margin-left="0"
     fit-margin-right="0"
     fit-margin-bottom="0" />
  <metadata
     id="metadata5701">
    <rdf:RDF>
      <cc:Work
         rdf:about="">
        <dc:format>image/svg+xml</dc:format>
        <dc:type
           rdf:resource="http://purl.org/dc/dcmitype/StillImage" />
        <dc:title></dc:title>
      </cc:Work>
    </rdf:RDF>
  </metadata>
  <g
     id="layer1"
     inkscape:label="Layer 1"
     inkscape:groupmode="layer"
     transform="translate(-188.98562,-34.542355)">
    <g
       transform="translate(-414.85813,-503.41229)"
       id="g727">
      <path
         inkscape:connector-curvature="0"
         style="fill:#df5d91"
         d="m 678.656,706.367 c -0.631,-3.533 -0.434,-7.347 0.59,-11.441 2.555,3.234 6.074,3.798 10.543,1.691 0.762,-1.662 1.086,-3.241 0.961,-4.736 -3.617,0.861 -7.139,0.787 -10.545,-0.201 0.846,-2.492 1.973,-5.072 3.383,-7.759 2.539,-4.679 5.652,-7.026 9.346,-7.028 2.949,0.127 4.912,1.66 5.883,4.585 0.801,2.551 0.887,5.87 0.271,9.931 -0.604,4.061 -1.283,7.326 -2.033,9.771 -0.76,2.433 -1.484,4.289 -2.197,5.553 -1.023,2.076 -2.395,3.684 -4.102,4.786 -1.762,1.147 -3.586,1.554 -5.449,1.239 -3.629,-0.862 -5.846,-2.987 -6.651,-6.391 l 0,0 z"
         id="path729" />
      <path
         inkscape:connector-curvature="0"
         style="fill:#eda1c1"
         d="m 679.246,694.926 c 0.264,-1.068 0.572,-2.152 0.959,-3.246 3.406,0.988 6.928,1.062 10.545,0.201 0.125,1.495 -0.199,3.074 -0.961,4.736 -4.469,2.107 -7.988,1.543 -10.543,-1.691 l 0,0 z"
         id="path731" />
      <path
         inkscape:connector-curvature="0"
         style="fill:none;stroke:#970f45;stroke-width:2.56649995;stroke-linecap:round;stroke-miterlimit:10"
         d="m 679.246,694.926 c -1.023,4.095 -1.221,7.908 -0.59,11.441 0.805,3.403 3.021,5.529 6.65,6.39 1.863,0.314 3.689,-0.092 5.449,-1.239 1.707,-1.103 3.078,-2.71 4.102,-4.786 0.713,-1.264 1.438,-3.12 2.197,-5.553 0.75,-2.444 1.43,-5.71 2.033,-9.771 0.615,-4.061 0.529,-7.38 -0.271,-9.931 -0.971,-2.925 -2.934,-4.458 -5.883,-4.585 -3.693,0.002 -6.807,2.35 -9.346,7.028 -1.41,2.687 -2.537,5.267 -3.383,7.759 m 0.001,10e-4 c -0.387,1.094 -0.695,2.178 -0.959,3.246 m 0.959,-3.246 c 3.406,0.988 6.928,1.062 10.545,0.201 0.125,1.495 -0.199,3.074 -0.961,4.736 -4.469,2.106 -7.988,1.543 -10.543,-1.691"
         id="path733" />
      <path
         inkscape:connector-curvature="0"
         style="fill:#eda1c1"
         d="m 691.799,667.05 c 0.02,0.157 0.035,0.312 0.068,0.472 -3.436,3.611 -5.213,6.641 -5.34,9.083 0.012,2.13 1.186,3.28 3.537,3.481 1.996,0.397 3.018,1.648 3.062,3.754 -0.389,2.766 -1.889,4.598 -4.498,5.499 -1.17,0.394 -2.416,0.44 -3.734,0.145 -1.346,-0.301 -2.627,-0.935 -3.83,-1.91 -3.557,-2.797 -5.111,-6.135 -4.668,-10.003 0.455,-4.049 3.055,-8.122 7.801,-12.218 2.532,0.559 5.059,1.135 7.602,1.697 l 0,0 z"
         id="path735" />
      <path
         inkscape:connector-curvature="0"
         style="fill:none;stroke:#df5d91;stroke-width:2.56660008;stroke-linecap:round;stroke-miterlimit:10"
         d="m 691.867,667.521 c -3.436,3.611 -5.213,6.641 -5.34,9.083 0.012,2.13 1.186,3.28 3.537,3.481 1.996,0.397 3.018,1.648 3.062,3.754 -0.389,2.766 -1.889,4.598 -4.498,5.499 -1.17,0.394 -2.416,0.44 -3.734,0.145 -1.346,-0.301 -2.627,-0.935 -3.83,-1.91 -3.557,-2.797 -5.111,-6.135 -4.668,-10.003 0.455,-4.049 3.055,-8.122 7.801,-12.218 2.531,0.56 5.059,1.136 7.602,1.697 0.019,0.158 0.035,0.313 0.068,0.472 l 0,0 z"
         id="path737" />
      <path
         inkscape:connector-curvature="0"
         style="fill:#df5d91"
         d="m 712.707,722.61 c 0.721,-3.517 0.619,-7.335 -0.301,-11.455 -2.77,3.188 -7.607,3.695 -14.498,1.519 -0.465,-1.629 -0.658,-3.487 -0.588,-5.608 5.453,2.865 10.098,2.913 13.926,0.141 -0.59,-2.051 -1.559,-4.438 -2.896,-7.162 -2.422,-4.743 -5.471,-7.167 -9.166,-7.265 -2.951,0.052 -4.951,1.533 -5.996,4.432 -0.865,2.532 -1.039,5.85 -0.523,9.925 0.5,4.077 1.094,7.354 1.781,9.82 0.697,2.449 1.375,4.324 2.057,5.606 0.971,2.104 2.297,3.744 3.979,4.892 1.73,1.188 3.545,1.643 5.418,1.374 3.645,-0.766 5.916,-2.836 6.807,-6.219 l 0,0 z"
         id="path739" />
      <path
         inkscape:connector-curvature="0"
         style="fill:#eda1c1"
         d="m 712.406,711.155 c -0.234,-1.073 -0.613,-2.397 -1.16,-3.949 -3.828,2.772 -8.473,2.725 -13.926,-0.141 -0.07,2.121 0.123,3.979 0.588,5.608 6.891,2.178 11.729,1.671 14.498,-1.518 l 0,0 z"
         id="path741" />
      <path
         inkscape:connector-curvature="0"
         style="fill:none;stroke:#970f45;stroke-width:2.56660008;stroke-linecap:round;stroke-miterlimit:10"
         d="m 712.406,711.155 c 0.92,4.12 1.021,7.938 0.301,11.455 -0.891,3.383 -3.162,5.453 -6.809,6.218 -1.873,0.269 -3.688,-0.187 -5.418,-1.374 -1.682,-1.147 -3.008,-2.787 -3.979,-4.892 -0.682,-1.282 -1.359,-3.157 -2.057,-5.606 -0.688,-2.466 -1.281,-5.743 -1.781,-9.82 -0.516,-4.075 -0.342,-7.393 0.523,-9.925 1.045,-2.898 3.045,-4.38 5.996,-4.432 3.695,0.098 6.744,2.521 9.166,7.265 1.338,2.725 2.307,5.111 2.896,7.162 m 1.162,3.949 c -0.234,-1.073 -0.613,-2.397 -1.16,-3.949 m 0,0 c -3.828,2.772 -8.473,2.725 -13.926,-0.141 -0.07,2.121 0.123,3.979 0.588,5.608 6.891,2.177 11.729,1.67 14.498,-1.519"
         id="path743" />
      <path
         inkscape:connector-curvature="0"
         style="fill:#eda1c1"
         d="m 707.549,671.533 -8.201,-0.672 -4.387,28.196 c 4.303,3.229 7.924,3.312 10.873,0.218 l 1.715,-27.742 0,0 z"
         id="path745" />
      <path
         inkscape:connector-curvature="0"
         style="fill:none;stroke:#df5d91;stroke-width:2.56669998;stroke-linecap:round;stroke-miterlimit:10"
         d="m 699.348,670.861 -4.387,28.196 c 4.303,3.229 7.924,3.312 10.873,0.218 l 1.715,-27.742 -8.201,-0.672 0,0 z"
         id="path747" />
      <path
         inkscape:connector-curvature="0"
         style="fill:#f18900"
         d="m 706.189,620.771 c -8.455,-1.89 -16.723,-1.46 -24.83,1.287 l 0.639,12.319 5.58,4.519 14.377,-0.746 4.875,-5.047 -0.641,-12.332 0,0 z"
         id="path749" />
      <path
         inkscape:connector-curvature="0"
         style="fill:none;stroke:#d04215;stroke-width:2.56669998;stroke-linecap:square;stroke-miterlimit:10"
         d="m 681.998,634.377 -0.639,-12.319 c 8.107,-2.747 16.375,-3.177 24.83,-1.287 l 0.641,12.332"
         id="path751" />
      <path
         inkscape:connector-curvature="0"
         style="fill:#eda1c1"
         d="m 713.256,650.682 c -1.879,-6.226 -2.949,-12.155 -3.205,-17.819 -3.543,1.833 -7.523,3.062 -11.967,3.675 -4.455,0.618 -10.686,-0.429 -18.699,-3.157 -0.26,5.207 -1.371,10.84 -3.359,16.902 -0.842,2.813 -1.525,5.314 -2.051,7.467 -1.781,6.23 -1.068,11.673 2.15,16.343 11.896,5.196 24.121,5.326 36.656,0.39 3.293,-4.602 4.09,-10.025 2.408,-16.293 -0.492,-2.165 -1.136,-4.68 -1.933,-7.508 l 0,0 z"
         id="path753" />
      <path
         inkscape:connector-curvature="0"
         style="fill:none;stroke:#df5d91;stroke-width:2.81750011;stroke-linecap:square;stroke-miterlimit:10"
         d="m 710.051,632.862 c -3.543,1.833 -7.523,3.062 -11.967,3.675 -4.455,0.618 -10.686,-0.429 -18.695,-3.157 -0.264,5.207 -1.375,10.84 -3.363,16.902 -0.842,2.813 -1.525,5.314 -2.051,7.467 -1.781,6.23 -1.068,11.673 2.152,16.343 11.895,5.196 24.119,5.326 36.654,0.39 3.293,-4.602 4.09,-10.025 2.408,-16.293 -0.492,-2.163 -1.137,-4.679 -1.934,-7.507 -1.878,-6.226 -2.948,-12.156 -3.204,-17.82 l 0,0 z"
         id="path755" />
      <path
         inkscape:connector-curvature="0"
         style="fill:#f18900"
         d="m 708.42,628.793 -7.113,6.94 c 11.734,7.707 23.188,15.313 34.354,22.838 4.385,-1.168 6.094,-3.822 5.109,-7.941 -10.124,-6.557 -20.897,-13.833 -32.35,-21.837 l 0,0 z"
         id="path757" />
      <path
         inkscape:connector-curvature="0"
         style="fill:none;stroke:#d04215;stroke-width:2.56660008;stroke-linecap:square;stroke-miterlimit:10"
         d="m 701.307,635.733 c 11.734,7.707 23.188,15.313 34.354,22.838 4.385,-1.168 6.094,-3.822 5.109,-7.941 -10.123,-6.557 -20.896,-13.833 -32.35,-21.837 l -7.113,6.94 0,0 z"
         id="path759" />
      <path
         inkscape:connector-curvature="0"
         style="fill:#eda1c1"
         d="m 720.262,648.256 c 2.639,-2.062 4.51,-4.561 5.621,-7.485 l -17.463,-11.978 -7.113,6.94 18.955,12.523 0,0 z"
         id="path761" />
      <path
         inkscape:connector-curvature="0"
         style="fill:none;stroke:#df5d91;stroke-width:2.56660008;stroke-linecap:square;stroke-miterlimit:10"
         d="m 720.262,648.256 -18.955,-12.522 7.113,-6.94 17.463,11.978 c -1.112,2.923 -2.983,5.422 -5.621,7.484 l 0,0 z"
         id="path763" />
      <polygon
         style="fill:#eda1c1"
         points="706.309,628.562 700.521,634.004 700.521,634.004 703.221,635.686 708.771,630.347 "
         id="polygon765" />
      <path
         inkscape:connector-curvature="0"
         style="fill:#f18900"
         d="m 752.861,655.584 c -0.865,-1.977 -2.572,-3.754 -5.137,-5.324 -2.578,-1.571 -5.875,-1.981 -9.889,-1.225 -0.039,0.01 -0.354,0.054 -0.941,0.139 -2.332,0.091 -3.41,1.05 -3.234,2.867 l -2.402,4.16 c -3.23,6.532 -3.793,10.57 -1.699,12.106 0.838,0.499 1.568,0.516 2.195,0.047 0.906,-0.885 1.678,-2.585 2.334,-5.117 l 0.631,-2.134 1.838,1.515 c 0.945,0.996 1.885,2.483 2.834,4.46 l 0.018,0.035 0.021,0.027 c 0.908,2.065 1.818,3.547 2.727,4.424 l 0.002,0.012 c 0.635,0.607 1.33,0.814 2.076,0.615 2.154,-0.603 3.076,-2.389 2.781,-5.343 -0.498,-2.855 -1.701,-5.357 -3.613,-7.474 3.273,0.796 5.24,3.57 5.881,8.362 0.043,0.524 0.037,1.016 -0.004,1.459 1.439,-0.682 2.188,-2.207 2.24,-4.583 0.057,-2.362 -1.109,-5.275 -3.506,-8.756 2.078,0.181 3.912,2.018 5.482,5.513 0.09,-0.257 0.156,-0.492 0.201,-0.71 l 0.002,-0.056 c 0.248,-1.433 -0.043,-3.113 -0.838,-5.019 l 0,0 z"
         id="path767" />
      <path
         inkscape:connector-curvature="0"
         style="fill:#d04215"
         d="m 747.725,650.26 c 2.564,1.57 4.271,3.348 5.137,5.324 0.795,1.906 1.086,3.586 0.838,5.021 l -0.002,0.056 c -0.045,0.218 -0.111,0.453 -0.201,0.71 -1.57,-3.495 -3.404,-5.332 -5.482,-5.513 2.396,3.48 3.562,6.394 3.506,8.756 -0.053,2.376 -0.801,3.901 -2.24,4.583 0.041,-0.443 0.047,-0.935 0.004,-1.459 -0.641,-4.792 -2.607,-7.566 -5.881,-8.362 1.912,2.116 3.115,4.618 3.613,7.474 0.295,2.954 -0.627,4.74 -2.781,5.343 -0.746,0.199 -1.441,-0.008 -2.076,-0.615 l -0.002,-0.012 c -0.908,-0.877 -1.818,-2.358 -2.727,-4.424 l -0.021,-0.027 -0.018,-0.035 c -0.949,-1.977 -1.889,-3.464 -2.834,-4.46 l -1.838,-1.515 -0.631,2.134 c -0.656,2.532 -1.428,4.232 -2.334,5.117 -0.627,0.469 -1.357,0.452 -2.195,-0.047 -2.094,-1.536 -1.531,-5.574 1.699,-12.106 l -1.758,-1.218 c -2.324,4.203 -3.566,7.56 -3.752,10.044 -0.166,2.451 0.68,4.181 2.539,5.215 1.107,0.591 2.127,0.872 3.041,0.824 0.928,-0.05 1.785,-0.408 2.594,-1.079 0.447,-0.377 0.801,-0.866 1.092,-1.479 0.287,-0.63 0.561,-1.55 0.848,-2.764 l 1.822,4.44 -0.902,-1.871 c 1.111,2.546 2.248,4.33 3.385,5.376 l 0.002,0.013 c 1.65,1.55 3.426,1.914 5.332,1.106 1.262,-0.506 2.203,-1.299 2.85,-2.387 3.26,-1.191 5.182,-3.613 5.76,-7.291 2.576,-4.142 2.562,-8.196 -0.051,-12.181 -4.252,-6.039 -9.783,-7.901 -16.582,-5.594 l -0.582,1.817 c 0.588,-0.085 0.902,-0.129 0.941,-0.139 4.012,-0.757 7.308,-0.347 9.887,1.225 l 0,0 z"
         id="path769" />
      <path
         inkscape:connector-curvature="0"
         style="fill:#f18900"
         d="m 681.049,630.001 7.121,6.935 c -11.729,7.72 -23.176,15.331 -34.332,22.869 -4.387,-1.163 -6.098,-3.814 -5.119,-7.936 10.119,-6.565 20.883,-13.856 32.33,-21.868 l 0,0 z"
         id="path771" />
      <path
         inkscape:connector-curvature="0"
         style="fill:none;stroke:#d04215;stroke-width:2.56669998;stroke-linecap:square;stroke-miterlimit:10"
         d="m 688.17,636.936 c -11.729,7.72 -23.176,15.331 -34.332,22.869 -4.387,-1.163 -6.098,-3.814 -5.119,-7.936 10.119,-6.565 20.883,-13.856 32.33,-21.868 l 7.121,6.935 0,0 z"
         id="path773" />
      <path
         inkscape:connector-curvature="0"
         style="fill:#eda1c1"
         d="m 669.223,649.474 c -2.639,-2.059 -4.512,-4.558 -5.625,-7.477 l 17.451,-11.996 7.121,6.935 -18.947,12.538 0,0 z"
         id="path775" />
      <path
         inkscape:connector-curvature="0"
         style="fill:none;stroke:#df5d91;stroke-width:2.56669998;stroke-linecap:square;stroke-miterlimit:10"
         d="m 669.223,649.474 18.947,-12.538 -7.121,-6.935 -17.451,11.996 c 1.113,2.919 2.986,5.418 5.625,7.477 l 0,0 z"
         id="path777" />
      <polygon
         style="fill:#eda1c1"
         points="683.16,629.765 688.953,635.203 688.953,635.203 686.258,636.888 680.701,631.553 "
         id="polygon779" />
      <path
         inkscape:connector-curvature="0"
         style="fill:#f18900"
         d="m 634.225,657.88 c 0.883,-1.973 2.607,-3.731 5.184,-5.281 2.592,-1.544 5.893,-1.927 9.9,-1.132 0.039,0.009 0.352,0.057 0.938,0.144 2.332,0.116 3.402,1.083 3.209,2.896 l 2.367,4.187 c 3.168,6.558 3.697,10.604 1.588,12.116 -0.842,0.495 -1.572,0.504 -2.193,0.029 -0.902,-0.893 -1.656,-2.601 -2.287,-5.136 l -0.613,-2.141 -1.855,1.494 c -0.953,0.988 -1.902,2.468 -2.869,4.434 l -0.021,0.039 -0.018,0.025 c -0.93,2.06 -1.852,3.528 -2.77,4.4 l -0.002,0.013 c -0.639,0.604 -1.336,0.797 -2.08,0.597 -2.148,-0.624 -3.053,-2.416 -2.736,-5.368 0.525,-2.854 1.75,-5.344 3.684,-7.44 -3.281,0.763 -5.271,3.522 -5.957,8.309 -0.047,0.52 -0.047,1.011 -0.008,1.454 -1.434,-0.692 -2.166,-2.224 -2.197,-4.602 -0.037,-2.36 1.158,-5.265 3.582,-8.723 -2.078,0.164 -3.926,1.982 -5.529,5.464 -0.09,-0.255 -0.154,-0.493 -0.195,-0.713 l -0.002,-0.054 c -0.238,-1.436 0.067,-3.114 0.88,-5.011 l 0,0 z"
         id="path781" />
      <path
         inkscape:connector-curvature="0"
         style="fill:#d04215"
         d="m 639.41,652.599 c -2.578,1.55 -4.303,3.309 -5.186,5.281 -0.812,1.897 -1.117,3.575 -0.883,5.012 l 0.002,0.054 c 0.041,0.22 0.105,0.458 0.195,0.713 1.604,-3.481 3.451,-5.3 5.529,-5.464 -2.424,3.458 -3.619,6.362 -3.582,8.723 0.031,2.378 0.766,3.909 2.197,4.602 -0.039,-0.443 -0.039,-0.935 0.008,-1.454 0.686,-4.786 2.676,-7.546 5.957,-8.309 -1.934,2.097 -3.158,4.587 -3.684,7.44 -0.316,2.952 0.588,4.744 2.736,5.368 0.744,0.2 1.441,0.008 2.08,-0.597 l 0.002,-0.013 c 0.918,-0.872 1.84,-2.341 2.77,-4.4 l 0.018,-0.025 0.021,-0.039 c 0.967,-1.966 1.916,-3.445 2.871,-4.434 l 1.854,-1.494 0.613,2.141 c 0.631,2.535 1.385,4.243 2.287,5.136 0.621,0.475 1.352,0.466 2.193,-0.029 2.109,-1.515 1.58,-5.559 -1.588,-12.116 l 1.766,-1.207 c 2.289,4.227 3.498,7.593 3.662,10.081 0.143,2.451 -0.717,4.173 -2.586,5.19 -1.111,0.578 -2.133,0.852 -3.047,0.795 -0.93,-0.056 -1.781,-0.423 -2.584,-1.102 -0.443,-0.384 -0.793,-0.875 -1.08,-1.488 -0.281,-0.632 -0.547,-1.554 -0.822,-2.771 l -1.861,4.423 0.918,-1.864 c -1.133,2.54 -2.287,4.312 -3.432,5.35 l -0.002,0.012 c -1.666,1.533 -3.443,1.882 -5.342,1.057 -1.258,-0.518 -2.191,-1.319 -2.83,-2.413 -3.246,-1.221 -5.146,-3.659 -5.689,-7.341 -2.539,-4.166 -2.49,-8.221 0.162,-12.178 4.303,-6.003 9.852,-7.815 16.627,-5.447 l 0.564,1.821 c -0.586,-0.087 -0.898,-0.135 -0.938,-0.144 -4.005,-0.797 -7.306,-0.414 -9.896,1.13 l 0,0 z"
         id="path783" />
      <path
         inkscape:connector-curvature="0"
         style="fill:#eda1c1"
         d="m 712.303,651.463 -0.012,-0.017 c -1.627,-5.743 -2.594,-11.204 -2.906,-16.428 -3.301,1.424 -6.93,2.385 -10.912,2.849 -4.322,0.519 -10.25,-0.525 -17.783,-3.128 -0.463,4.862 -1.664,10.081 -3.576,15.652 l 0.016,-0.028 c -0.885,2.768 -1.592,5.206 -2.121,7.332 l -0.029,0.062 c -1.705,5.611 -1.18,10.594 1.574,14.924 11.395,5.15 23.156,5.514 35.307,1.071 2.947,-4.152 3.686,-9.081 2.238,-14.789 l -0.012,-0.06 c -0.444,-2.159 -1.04,-4.636 -1.784,-7.44 l 0,0 z"
         id="path785" />
      <path
         inkscape:connector-curvature="0"
         style="fill:#df5d91"
         d="m 689.721,683.027 c 0.271,0.278 0.568,0.537 0.893,0.767 2.99,2.311 5.883,2.085 8.701,-0.665 0.936,-1.003 1.496,-1.585 1.691,-1.761 0.854,-0.733 1.65,-1.104 2.367,-1.094 1.549,0.015 2.922,0.693 4.139,2.047 0.631,0.717 1.107,1.191 1.457,1.419 0.623,0.414 1.365,0.634 2.211,0.645 0.764,0.008 1.484,-0.214 2.15,-0.657 0.395,-0.283 0.934,-0.793 1.627,-1.524 0.67,-0.731 1.209,-1.241 1.613,-1.525 0.654,-0.458 1.359,-0.677 2.113,-0.669 1.107,0.013 2.338,0.763 3.707,2.24 0.695,0.778 1.213,1.282 1.537,1.512 0.594,0.473 1.191,0.705 1.779,0.711 1.627,0.017 2.814,-0.528 3.59,-1.624 0.291,-0.402 0.699,-1.272 1.244,-2.611 l -11.838,-12.983 c -16.656,0.688 -32.574,0.327 -47.756,-1.097 l -12.416,13.308 c 0.521,1.378 0.918,2.259 1.203,2.671 0.758,1.104 1.939,1.678 3.568,1.694 0.582,0.007 1.186,-0.215 1.787,-0.675 0.326,-0.224 0.852,-0.717 1.561,-1.478 1.391,-1.45 2.635,-2.178 3.74,-2.167 0.74,0.01 1.443,0.242 2.104,0.717 0.389,0.292 0.918,0.808 1.588,1.554 0.684,0.748 1.217,1.266 1.604,1.558 0.66,0.458 1.373,0.696 2.141,0.701 0.846,0.01 1.59,-0.193 2.219,-0.595 0.342,-0.224 0.828,-0.688 1.469,-1.389 1.246,-1.33 2.635,-1.98 4.182,-1.964 0.717,0.008 1.508,0.392 2.346,1.14 0.194,0.181 0.763,0.778 1.679,1.794 l 0,0 z"
         id="path787" />
      <path
         inkscape:connector-curvature="0"
         style="fill:none;stroke:#970f45;stroke-width:2.81750011;stroke-linecap:round;stroke-miterlimit:10"
         d="m 718.701,667.253 11.84,12.983 c -0.545,1.339 -0.953,2.209 -1.244,2.611 -0.777,1.096 -1.963,1.641 -3.594,1.624 -0.584,-0.006 -1.182,-0.238 -1.775,-0.711 -0.324,-0.229 -0.842,-0.733 -1.537,-1.512 -1.371,-1.474 -2.6,-2.228 -3.707,-2.24 -0.754,-0.008 -1.459,0.211 -2.113,0.672 -0.404,0.281 -0.943,0.791 -1.613,1.522 -0.697,0.731 -1.232,1.241 -1.627,1.524 -0.666,0.443 -1.387,0.665 -2.152,0.657 -0.848,-0.011 -1.586,-0.23 -2.209,-0.643 -0.35,-0.229 -0.826,-0.704 -1.457,-1.421 -1.217,-1.354 -2.59,-2.032 -4.139,-2.047 -0.717,-0.007 -1.514,0.36 -2.367,1.094 -0.195,0.176 -0.76,0.76 -1.691,1.761 -2.82,2.75 -5.713,2.976 -8.701,0.665 -0.324,-0.229 -0.621,-0.488 -0.893,-0.767 -0.916,-1.017 -1.484,-1.611 -1.68,-1.796 -0.838,-0.748 -1.629,-1.132 -2.346,-1.14 -1.551,-0.017 -2.936,0.634 -4.182,1.964 -0.645,0.7 -1.127,1.165 -1.469,1.389 -0.629,0.401 -1.373,0.604 -2.219,0.595 -0.768,-0.005 -1.48,-0.243 -2.141,-0.701 -0.391,-0.292 -0.92,-0.81 -1.604,-1.558 -0.67,-0.746 -1.201,-1.262 -1.588,-1.554 -0.66,-0.475 -1.363,-0.707 -2.104,-0.717 -1.105,-0.011 -2.35,0.717 -3.74,2.167 -0.709,0.761 -1.234,1.254 -1.561,1.478 -0.604,0.46 -1.205,0.682 -1.789,0.675 -1.627,-0.017 -2.809,-0.59 -3.568,-1.694 -0.283,-0.412 -0.68,-1.291 -1.201,-2.671 l 12.416,-13.308"
         id="path789" />
      <path
         inkscape:connector-curvature="0"
         style="fill:#df5d91"
         d="m 699.521,670.015 c 0.834,-0.7 1.605,-1.057 2.322,-1.049 1.51,0.015 2.873,0.68 4.072,1.975 0.621,0.686 1.1,1.127 1.434,1.359 0.611,0.397 1.338,0.601 2.172,0.609 0.742,0.008 1.447,-0.212 2.1,-0.643 0.395,-0.268 0.93,-0.761 1.602,-1.461 0.668,-0.704 1.205,-1.197 1.584,-1.448 0.654,-0.447 1.348,-0.667 2.088,-0.661 1.082,0.013 2.301,0.736 3.643,2.151 0.686,0.75 1.189,1.236 1.514,1.467 0.58,0.443 1.15,0.675 1.738,0.684 0.037,0 0.076,0 0.117,0 0.846,-0.007 1.576,-0.149 2.164,-0.462 0.508,-0.251 0.93,-0.622 1.258,-1.088 0.289,-0.39 0.699,-1.243 1.217,-2.555 L 715.65,658.118 c -14.738,5.313 -28.783,5.121 -42.121,-0.572 l -12.828,10.649 c 0.498,1.317 0.895,2.184 1.166,2.577 0.336,0.473 0.748,0.854 1.24,1.117 0.586,0.307 1.299,0.479 2.119,0.503 0.053,0 0.105,0 0.168,0 0.586,0.009 1.162,-0.211 1.75,-0.645 0.328,-0.224 0.84,-0.702 1.533,-1.434 1.365,-1.388 2.594,-2.086 3.676,-2.076 0.74,0.009 1.43,0.243 2.064,0.701 0.387,0.259 0.918,0.764 1.576,1.479 0.658,0.717 1.188,1.221 1.578,1.496 0.646,0.445 1.348,0.68 2.088,0.688 0.834,0.008 1.564,-0.181 2.182,-0.568 0.338,-0.222 0.824,-0.654 1.455,-1.328 1.219,-1.271 2.59,-1.906 4.1,-1.89 0.717,0.009 1.48,0.38 2.311,1.097 0.219,0.196 0.904,0.913 2.051,2.148 1.643,1.755 3.543,1.773 5.678,0.06 1.166,-1.211 1.861,-1.913 2.085,-2.105 l 0,0 z"
         id="path791" />
      <path
         inkscape:connector-curvature="0"
         style="fill:none;stroke:#970f45;stroke-width:2.81750011;stroke-linecap:round;stroke-miterlimit:10"
         d="m 699.521,670.015 c -0.225,0.192 -0.92,0.895 -2.088,2.106 -2.135,1.714 -4.035,1.695 -5.678,-0.06 -1.148,-1.235 -1.832,-1.952 -2.051,-2.148 -0.83,-0.717 -1.596,-1.09 -2.311,-1.097 -1.51,-0.017 -2.881,0.618 -4.1,1.89 -0.633,0.674 -1.117,1.106 -1.459,1.326 -0.613,0.39 -1.344,0.578 -2.178,0.57 -0.74,-0.011 -1.441,-0.243 -2.088,-0.688 -0.391,-0.275 -0.92,-0.779 -1.58,-1.496 -0.656,-0.715 -1.188,-1.22 -1.574,-1.479 -0.635,-0.458 -1.324,-0.692 -2.066,-0.701 -1.08,-0.01 -2.309,0.688 -3.674,2.076 -0.693,0.731 -1.209,1.21 -1.533,1.434 -0.59,0.434 -1.164,0.651 -1.75,0.645 -0.064,0 -0.115,0 -0.168,0 -0.82,-0.024 -1.533,-0.196 -2.119,-0.503 -0.492,-0.264 -0.906,-0.645 -1.24,-1.117 -0.271,-0.394 -0.668,-1.26 -1.166,-2.577 l 12.828,-10.649 c 13.338,5.693 27.383,5.886 42.121,0.572 l 12.896,10.775 c -0.518,1.312 -0.928,2.165 -1.217,2.555 -0.328,0.466 -0.75,0.837 -1.258,1.088 -0.588,0.312 -1.32,0.455 -2.166,0.462 -0.039,0 -0.078,0 -0.115,0 -0.588,-0.009 -1.158,-0.24 -1.74,-0.684 -0.322,-0.23 -0.828,-0.717 -1.512,-1.467 -1.342,-1.415 -2.561,-2.139 -3.643,-2.151 -0.74,-0.006 -1.434,0.214 -2.088,0.661 -0.379,0.253 -0.916,0.742 -1.584,1.448 -0.672,0.7 -1.209,1.193 -1.602,1.461 -0.652,0.431 -1.359,0.65 -2.1,0.643 -0.834,-0.009 -1.561,-0.212 -2.172,-0.609 -0.334,-0.232 -0.812,-0.674 -1.434,-1.359 -1.201,-1.295 -2.562,-1.96 -4.072,-1.975 -0.713,-0.009 -1.485,0.347 -2.319,1.048 l 0,0 z"
         id="path793" />
      <path
         inkscape:connector-curvature="0"
         style="fill:#f18900"
         d="m 714.041,559.753 c -4.971,-1.616 -10.049,-2.598 -15.221,-2.95 -5.131,-0.365 -10.248,-0.083 -15.373,0.859 -5.193,0.97 -10.191,2.418 -14.988,4.352 -1.754,0.708 -4.473,1.735 -8.154,3.113 -1.889,-4.602 -5.213,-6.994 -9.957,-7.181 -8.102,-0.34 -13.338,-2.383 -15.701,-6.1 -1.078,5.575 0.908,10.519 5.971,14.828 -5.562,-1.846 -9.66,-1.171 -12.301,2.043 -3.734,4.511 -8.422,4.958 -14.035,1.351 0.191,6.257 4.811,9.137 13.842,8.677 -3.803,5.394 -10.557,7.826 -20.281,7.287 6.359,4.993 13.982,6.421 22.898,4.31 -2.109,2.016 -3.627,3.824 -4.555,5.422 -2.432,4.232 -6.619,6.408 -12.572,6.558 6.92,4.288 14.182,4.342 21.799,0.159 -2.166,5.275 -5.922,8.178 -11.27,8.723 4.568,4.313 10.898,5.306 18.963,2.975 0.688,0.674 1.42,1.33 2.193,1.975 6.318,5.269 14.816,8.451 25.48,9.563 15.34,1.685 30.672,1.71 45.986,0.066 9.225,-0.932 16.793,-3.285 22.676,-7.053 2.443,-1.545 4.568,-3.235 6.361,-5.055 7.973,2.335 14.24,1.317 18.775,-3.033 -5.354,-0.502 -9.133,-3.371 -11.34,-8.632 7.648,4.123 14.91,4.012 21.795,-0.335 -5.955,-0.102 -10.156,-2.24 -12.621,-6.454 -0.941,-1.593 -2.477,-3.388 -4.602,-5.387 8.879,2.041 16.613,0.443 23.18,-4.784 -9.924,0.814 -16.809,-1.471 -20.654,-6.833 9.037,0.39 13.633,-2.529 13.77,-8.788 -5.582,3.654 -10.271,3.246 -14.043,-1.235 -2.666,-3.192 -6.77,-3.839 -12.316,-1.945 5.029,-4.351 6.977,-9.311 5.854,-14.876 -2.336,3.735 -7.443,5.832 -15.322,6.292 -5.719,0.448 -9.559,3.021 -11.533,7.718 -4.288,-2.403 -8.516,-4.285 -12.704,-5.63 l 0,0 z"
         id="path795" />
      <path
         inkscape:connector-curvature="0"
         style="fill:none;stroke:#d04215;stroke-width:2.56680012;stroke-linecap:square;stroke-miterlimit:10"
         d="m 714.041,559.753 c 4.188,1.345 8.416,3.228 12.703,5.629 1.975,-4.696 5.814,-7.27 11.533,-7.718 7.879,-0.46 12.986,-2.557 15.322,-6.292 1.123,5.565 -0.824,10.525 -5.854,14.876 5.547,-1.894 9.65,-1.247 12.316,1.945 3.771,4.481 8.461,4.89 14.043,1.235 -0.137,6.259 -4.732,9.178 -13.77,8.791 3.846,5.359 10.73,7.645 20.654,6.835 -6.566,5.223 -14.301,6.82 -23.18,4.779 2.125,2.001 3.66,3.794 4.602,5.387 2.465,4.214 6.666,6.353 12.621,6.454 -6.885,4.347 -14.146,4.458 -21.795,0.335 2.207,5.261 5.986,8.13 11.34,8.632 -4.535,4.351 -10.803,5.368 -18.775,3.033 -1.793,1.819 -3.918,3.51 -6.361,5.055 -5.883,3.768 -13.451,6.121 -22.676,7.053 -15.314,1.644 -30.646,1.618 -45.986,-0.066 -10.664,-1.112 -19.162,-4.295 -25.48,-9.563 -0.773,-0.645 -1.506,-1.301 -2.193,-1.975 -8.064,2.331 -14.395,1.339 -18.963,-2.975 5.348,-0.545 9.104,-3.447 11.27,-8.723 -7.617,4.183 -14.879,4.129 -21.799,-0.159 5.953,-0.149 10.141,-2.325 12.572,-6.558 0.928,-1.598 2.445,-3.406 4.555,-5.422 -8.916,2.111 -16.539,0.684 -22.898,-4.31 9.725,0.539 16.479,-1.894 20.281,-7.287 -9.031,0.465 -13.65,-2.42 -13.842,-8.677 5.613,3.607 10.301,3.16 14.035,-1.349 2.643,-3.216 6.738,-3.891 12.301,-2.045 -5.062,-4.31 -7.049,-9.253 -5.971,-14.828 2.363,3.717 7.6,5.76 15.701,6.1 4.744,0.187 8.068,2.579 9.957,7.181 3.682,-1.378 6.4,-2.405 8.154,-3.113 4.797,-1.934 9.795,-3.382 14.988,-4.352 5.125,-0.942 10.242,-1.225 15.373,-0.859 5.173,0.353 10.251,1.337 15.222,2.951 l 0,0 z"
         id="path797" />
      <path
         inkscape:connector-curvature="0"
         style="fill:#ab61a3"
         d="m 643.076,567.69 -1.16,2.424 c -0.232,0.482 -0.369,0.968 -0.395,1.432 l 0.314,-0.247 c 0.469,-0.358 0.881,-0.309 1.252,0.146 l 1.08,1.386 c 0.346,0.45 0.291,0.85 -0.133,1.223 0.291,-0.015 0.578,-0.056 0.881,-0.124 l 2.596,-0.562 c 1.307,-0.297 1.605,-0.957 0.914,-1.985 -0.457,-0.698 -1.078,-1.342 -1.865,-1.918 l -1.342,-1.975 c -0.816,-1.209 -1.529,-1.136 -2.142,0.2 l 0,0 z"
         id="path799" />
      <path
         inkscape:connector-curvature="0"
         style="fill:#ab61a3"
         d="m 644.168,572.83 -1.08,-1.386 c -0.371,-0.454 -0.783,-0.504 -1.252,-0.146 l -0.314,0.247 -1.082,0.846 -0.207,0.15 c -0.451,0.373 -0.506,0.785 -0.131,1.237 l 1.092,1.384 c 0.289,0.4 0.646,0.495 1.047,0.273 0.055,-0.043 0.109,-0.083 0.178,-0.124 l 1.592,-1.245 c 0.012,-0.015 0.012,-0.015 0.025,-0.015 0.423,-0.371 0.478,-0.771 0.132,-1.221 l 0,0 z"
         id="path801" />
      <path
         inkscape:connector-curvature="0"
         style="fill:#ab61a3"
         d="m 640.232,572.542 0.207,-0.15 c -0.469,-0.081 -0.963,-0.066 -1.5,0.032 l -2.639,0.531 c -1.455,0.298 -1.688,0.998 -0.691,2.082 l 1.59,1.74 c 0.264,0.893 0.691,1.661 1.287,2.318 0.855,0.974 1.611,0.818 2.252,-0.464 l 1.201,-2.385 c 0.137,-0.275 0.232,-0.547 0.301,-0.811 -0.4,0.222 -0.758,0.127 -1.047,-0.273 l -1.092,-1.384 c -0.374,-0.451 -0.32,-0.863 0.131,-1.236 l 0,0 z"
         id="path803" />
      <path
         inkscape:connector-curvature="0"
         style="fill:none;stroke:#633791;stroke-width:1.92509997;stroke-linecap:round;stroke-linejoin:round;stroke-miterlimit:10"
         d="m 641.521,571.546 c 0.025,-0.464 0.162,-0.949 0.395,-1.432 l 1.16,-2.424 c 0.613,-1.337 1.326,-1.409 2.143,-0.201 l 1.342,1.975 c 0.787,0.576 1.408,1.22 1.865,1.918 0.691,1.028 0.393,1.688 -0.914,1.985 l -2.596,0.562 c -0.303,0.068 -0.59,0.109 -0.881,0.124 m 0,0 c 0.424,-0.373 0.479,-0.772 0.133,-1.223 l -1.08,-1.386 c -0.371,-0.454 -0.783,-0.504 -1.252,-0.146 l -0.314,0.247 m -1.083,0.847 1.082,-0.846 m -1.082,0.846 -0.207,0.15 c -0.451,0.373 -0.506,0.785 -0.131,1.237 l 1.092,1.384 c 0.289,0.4 0.646,0.495 1.047,0.273 m 0,10e-4 c -0.068,0.264 -0.164,0.535 -0.301,0.811 l -1.201,2.385 c -0.639,1.282 -1.396,1.438 -2.252,0.464 -0.596,-0.657 -1.023,-1.426 -1.287,-2.318 l -1.59,-1.74 c -0.996,-1.084 -0.764,-1.784 0.691,-2.082 l 2.639,-0.531 c 0.537,-0.099 1.031,-0.113 1.5,-0.032 m 3.596,1.659 c -0.014,0 -0.014,0 -0.025,0.015 l -1.592,1.245 c -0.068,0.041 -0.123,0.081 -0.178,0.124"
         id="path805" />
      <path
         inkscape:connector-curvature="0"
         style="fill:#9dc517"
         d="m 744.33,567.232 1.178,2.416 c 0.236,0.48 0.375,0.961 0.406,1.429 l -0.318,-0.248 c -0.469,-0.354 -0.881,-0.297 -1.25,0.157 l -1.068,1.393 c -0.342,0.456 -0.285,0.855 0.143,1.225 -0.289,-0.013 -0.578,-0.052 -0.881,-0.12 l -2.604,-0.539 c -1.305,-0.284 -1.611,-0.942 -0.926,-1.977 0.451,-0.702 1.066,-1.353 1.848,-1.933 l 1.326,-1.987 c 0.808,-1.212 1.521,-1.146 2.146,0.184 l 0,0 z"
         id="path807" />
      <path
         inkscape:connector-curvature="0"
         style="fill:#9dc517"
         d="m 743.277,572.379 1.068,-1.393 c 0.369,-0.454 0.781,-0.512 1.25,-0.157 l 0.318,0.248 1.088,0.835 0.209,0.149 c 0.453,0.371 0.512,0.783 0.139,1.239 l -1.078,1.393 c -0.289,0.399 -0.645,0.497 -1.045,0.277 -0.055,-0.042 -0.109,-0.083 -0.18,-0.12 l -1.6,-1.233 c -0.016,-0.014 -0.016,-0.014 -0.027,-0.014 -0.427,-0.369 -0.483,-0.768 -0.142,-1.224 l 0,0 z"
         id="path809" />
      <path
         inkscape:connector-curvature="0"
         style="fill:#9dc517"
         d="m 747.211,572.062 -0.209,-0.149 c 0.467,-0.085 0.963,-0.072 1.498,0.021 l 2.643,0.512 c 1.461,0.283 1.695,0.983 0.711,2.073 l -1.574,1.753 c -0.258,0.894 -0.684,1.668 -1.27,2.331 -0.848,0.978 -1.605,0.829 -2.258,-0.445 l -1.219,-2.377 c -0.139,-0.273 -0.236,-0.547 -0.307,-0.81 0.4,0.22 0.756,0.122 1.045,-0.277 l 1.078,-1.393 c 0.374,-0.456 0.315,-0.868 -0.138,-1.239 l 0,0 z"
         id="path811" />
      <path
         inkscape:connector-curvature="0"
         style="fill:none;stroke:#388e36;stroke-width:1.92509997;stroke-linecap:round;stroke-linejoin:round;stroke-miterlimit:10"
         d="m 745.914,571.077 c -0.031,-0.468 -0.17,-0.948 -0.406,-1.429 l -1.178,-2.416 c -0.625,-1.33 -1.338,-1.396 -2.146,-0.185 l -1.326,1.987 c -0.781,0.58 -1.396,1.23 -1.848,1.931 -0.686,1.036 -0.379,1.694 0.926,1.979 l 2.604,0.539 c 0.303,0.068 0.592,0.107 0.881,0.12 m -0.001,0.001 c -0.428,-0.369 -0.484,-0.769 -0.143,-1.225 l 1.068,-1.393 c 0.369,-0.454 0.781,-0.512 1.25,-0.157 l 0.318,0.248 m 1.089,0.835 -1.088,-0.835 m 1.088,0.835 0.209,0.149 c 0.453,0.371 0.512,0.783 0.139,1.239 l -1.078,1.393 c -0.289,0.399 -0.645,0.497 -1.045,0.277 m 0,10e-4 c 0.07,0.263 0.168,0.536 0.307,0.81 l 1.219,2.377 c 0.652,1.274 1.41,1.423 2.258,0.445 0.586,-0.663 1.012,-1.438 1.27,-2.331 l 1.574,-1.753 c 0.984,-1.09 0.75,-1.79 -0.711,-2.073 l -2.643,-0.512 c -0.535,-0.094 -1.031,-0.106 -1.498,-0.021 m -3.583,1.691 c 0.012,0 0.012,0 0.027,0.014 l 1.6,1.233 c 0.07,0.037 0.125,0.078 0.18,0.12"
         id="path813" />
      <path
         inkscape:connector-curvature="0"
         style="fill:#82110c"
         d="m 666.404,596.396 -5.162,-1.851 c 3.312,7.099 10.035,11.843 20.168,14.224 5.074,1.204 9.826,1.692 14.254,1.456 9.783,-0.48 17.975,-3.277 24.557,-8.403 3.311,-2.559 5.641,-5.071 6.979,-7.537 -15.271,5.575 -30.844,7.302 -46.736,5.163 -4.974,-0.68 -9.659,-1.693 -14.06,-3.052 l 0,0 z"
         id="path815" />
      <path
         inkscape:connector-curvature="0"
         style="fill:#d50d18"
         d="m 704.5,599.708 c -6.666,0.771 -13.387,0.84 -20.162,0.193 0.598,1.742 1.311,3.048 2.107,3.938 1.691,1.864 4.338,2.784 7.941,2.76 3.689,-0.027 6.348,-0.974 7.986,-2.824 0.827,-0.911 1.526,-2.262 2.128,-4.067 l 0,0 z"
         id="path817" />
      <path
         inkscape:connector-curvature="0"
         style="fill:#ffffff"
         d="m 661.885,545.836 v 0.015 c -4.066,3.964 -6.098,8.741 -6.076,14.342 0.021,5.596 2.092,10.359 6.191,14.276 l 0.014,-0.002 c 4.086,3.96 9.018,5.92 14.807,5.896 5.762,-0.022 10.676,-2.023 14.744,-6.012 1.045,-1.01 1.945,-2.072 2.713,-3.175 L 694.19,548.91 c -0.777,-1.11 -1.689,-2.18 -2.738,-3.181 v -0.013 c -4.098,-3.93 -9.033,-5.877 -14.793,-5.853 -5.79,0.023 -10.706,2.01 -14.774,5.973 l 0,0 z"
         id="path819" />
      <path
         inkscape:connector-curvature="0"
         style="fill:#ffffff"
         d="m 696.816,545.697 v 0.015 c -1.029,1.007 -1.934,2.084 -2.711,3.199 l 0.088,22.266 c 0.789,1.099 1.699,2.153 2.736,3.151 4.1,3.96 9.045,5.919 14.809,5.896 5.773,-0.022 10.689,-2.021 14.758,-6.015 h 0.014 c 4.068,-3.946 6.088,-8.729 6.064,-14.326 -0.023,-5.597 -2.078,-10.361 -6.178,-14.292 v -0.015 c -4.1,-3.928 -9.047,-5.876 -14.822,-5.853 -5.762,0.024 -10.691,2.011 -14.758,5.974 l 0,0 z"
         id="path821" />
      <path
         inkscape:connector-curvature="0"
         d="m 700.781,550.249 c 1.301,-1.668 2.988,-2.625 5.064,-2.865 2.09,-0.257 3.961,0.257 5.617,1.546 1.67,1.299 2.623,2.971 2.865,5.047 0.258,2.078 -0.258,3.949 -1.543,5.604 -1.301,1.668 -2.975,2.625 -5.049,2.867 -2.076,0.255 -3.951,-0.261 -5.605,-1.546 -1.668,-1.271 -2.623,-2.96 -2.867,-5.049 -0.267,-2.076 0.233,-3.949 1.518,-5.604 l 0,0 z"
         id="path823" />
      <path
         inkscape:connector-curvature="0"
         d="m 687.619,550.319 c -1.312,-1.659 -3.008,-2.602 -5.086,-2.827 -2.09,-0.238 -3.957,0.29 -5.604,1.589 -1.658,1.315 -2.6,2.998 -2.826,5.073 -0.238,2.076 0.291,3.945 1.592,5.59 1.312,1.66 2.994,2.603 5.072,2.828 2.076,0.238 3.945,-0.292 5.588,-1.591 1.66,-1.284 2.604,-2.979 2.828,-5.072 0.253,-2.075 -0.263,-3.946 -1.564,-5.59 l 0,0 z"
         id="path825" />
      <path
         inkscape:connector-curvature="0"
         style="fill:#5fc2cf"
         d="m 694.285,552.4 v -0.096 c 7.846,-8.516 16.818,-10.465 26.889,-5.841 9.26,4.225 12.725,10.908 10.41,20.062 0.721,-2.063 1.082,-4.266 1.074,-6.617 -0.023,-5.598 -2.094,-10.361 -6.189,-14.292 v -0.014 c -4.102,-3.931 -9.033,-5.878 -14.822,-5.854 -5.764,0.021 -10.678,2.008 -14.746,5.972 v 0.012 c -1.027,0.997 -1.918,2.045 -2.67,3.133 -0.775,-1.083 -1.674,-2.123 -2.707,-3.109 v -0.013 c -4.1,-3.933 -9.033,-5.878 -14.791,-5.855 -5.793,0.023 -10.707,2.01 -14.775,5.974 v 0.013 c -4.07,3.963 -6.1,8.743 -6.076,14.341 0.01,2.35 0.387,4.55 1.125,6.609 -2.387,-9.135 1.023,-15.848 10.248,-20.146 10.033,-4.701 19.023,-2.828 26.938,5.627 v 0.098 c 0.012,-0.015 0.039,-0.044 0.053,-0.057 0.012,0.011 0.027,0.041 0.039,0.053 l 0,0 z"
         id="path827" />
      <path
         inkscape:connector-curvature="0"
         style="fill:#ab6514"
         d="m 714.051,538.912 c -0.736,-1.191 -1.604,-1.272 -2.572,-0.236 l -4.592,4.764 -2.928,-3.881 c -0.844,-1.11 -1.643,-1.038 -2.42,0.203 l -1.559,2.509 c -1.248,0.802 -2.428,1.755 -3.564,2.847 -0.74,0.705 -1.48,1.465 -2.232,2.265 -0.014,-0.015 -0.027,-0.027 -0.041,-0.041 v 0.083 c -0.676,-0.811 -1.383,-1.577 -2.141,-2.29 -1.146,-1.081 -2.332,-2.026 -3.588,-2.817 l -1.576,-2.497 c -0.789,-1.234 -1.588,-1.299 -2.422,-0.182 l -2.898,3.901 -4.627,-4.725 c -0.982,-1.027 -1.844,-0.942 -2.572,0.26 l -2.717,4.506 -5.141,-2.662 c -1.297,-0.667 -2.104,-0.349 -2.416,0.946 l -1.312,5.52 -7.279,-0.646 c -1.25,-0.145 -1.51,0.377 -0.803,1.544 l 2.754,4.585 -6.992,2.088 c -1.195,0.349 -1.273,1.065 -0.225,2.133 l 4.211,4.273 -5.025,5.771 c -0.914,1.034 -0.637,1.583 0.861,1.645 l 7.73,0.354 c -0.572,-1.923 -0.867,-3.984 -0.879,-6.185 -0.016,-4.744 1.852,-8.795 5.59,-12.166 3.77,-3.385 8.355,-5.092 13.76,-5.115 3.467,-0.015 6.621,0.69 9.443,2.095 1.584,0.709 3.02,1.679 4.303,2.911 0.482,0.452 0.953,0.905 1.406,1.384 h 0.014 c 1.051,1.123 1.908,2.331 2.572,3.607 0.809,-1.339 1.709,-2.551 2.695,-3.63 h 0.014 c 0.451,-0.482 0.918,-0.937 1.4,-1.393 1.271,-1.243 2.699,-2.225 4.277,-2.948 2.812,-1.425 5.959,-2.154 9.428,-2.167 5.402,-0.021 10,1.651 13.797,5.004 3.768,3.342 5.668,7.378 5.688,12.122 0.008,2.2 -0.273,4.264 -0.828,6.192 l 7.725,-0.416 c 1.5,-0.077 1.773,-0.626 0.848,-1.655 l -5.07,-5.729 4.178,-4.306 c 1.041,-1.075 0.955,-1.792 -0.242,-2.132 l -7.008,-2.035 2.719,-4.604 c 0.695,-1.172 0.434,-1.694 -0.818,-1.537 l -7.271,0.705 -1.355,-5.512 c -0.322,-1.291 -1.133,-1.605 -2.424,-0.924 l -5.119,2.701 -2.757,-4.487 0,0 z"
         id="path829" />
      <path
         inkscape:connector-curvature="0"
         style="fill:#e7467d"
         d="m 703.449,577.437 c -0.006,-1.718 -0.922,-3.187 -2.74,-4.418 -1.779,-1.229 -3.939,-1.84 -6.484,-1.831 -2.559,0.013 -4.729,0.638 -6.525,1.883 -1.781,1.243 -2.67,2.719 -2.664,4.44 0.008,1.744 0.906,3.228 2.699,4.444 1.805,1.245 3.98,1.854 6.539,1.844 2.543,-0.011 4.701,-0.636 6.473,-1.896 1.808,-1.231 2.71,-2.718 2.702,-4.466 l 0,0 z"
         id="path831" />
      <path
         inkscape:connector-curvature="0"
         style="fill:#f18900"
         d="m 705.135,621.681 c -7.695,-1.585 -15.236,-1.193 -22.633,1.158 l 0.646,12.47 4.43,3.587 14.377,-0.746 3.83,-3.957 -0.65,-12.512 0,0 z"
         id="path833" />
      <path
         inkscape:connector-curvature="0"
         style="fill:#fbe000"
         d="m 676.621,628.08 c -0.076,-0.1 -0.16,-0.166 -0.223,-0.205 -0.254,-0.145 -0.441,-0.013 -0.547,0.396 l -0.629,2.145 -2.4,0.962 c -0.473,0.2 -0.545,0.437 -0.232,0.698 0.041,0.022 0.08,0.056 0.121,0.091 l 0.225,0.149 c 0.014,0.019 0.037,0.035 0.068,0.06 0.088,0.056 0.193,0.116 0.285,0.19 0.299,0.199 0.592,0.41 0.896,0.632 0.039,0.031 0.092,0.064 0.139,0.085 l 0.436,0.309 0.197,2.268 c -0.012,0.222 0.016,0.379 0.08,0.47 0.111,0.094 0.303,0.068 0.566,-0.093 l 2.176,-1.699 0.033,0.004 c 0.445,0.085 0.881,0.172 1.326,0.264 l 1.209,0.213 0.158,0.027 c 0.496,0.031 0.639,-0.187 0.408,-0.645 l -0.939,-2.145 1.168,-2.2 c 0.139,-0.24 0.174,-0.412 0.094,-0.512 -0.086,-0.091 -0.26,-0.124 -0.506,-0.107 l -2.572,0.263 -0.041,-0.035 -1.496,-1.585 0,0 z"
         id="path835" />
      <path
         inkscape:connector-curvature="0"
         style="fill:#fbe000"
         d="m 680.473,635.044 c 0.012,0.006 0.021,0.002 0.033,0 l -0.158,-0.027 0.125,0.027 0,0 z"
         id="path837" />
      <path
         inkscape:connector-curvature="0"
         style="fill:none;stroke:#6b7d27;stroke-width:1.48029995;stroke-linecap:round;stroke-linejoin:round;stroke-miterlimit:10"
         d="m 676.621,628.08 1.496,1.583 0.041,0.035 2.572,-0.263 c 0.246,-0.017 0.42,0.017 0.506,0.107 0.08,0.1 0.045,0.271 -0.092,0.512 l -1.17,2.2 0.939,2.145 c 0.23,0.458 0.088,0.676 -0.408,0.645 l -0.158,-0.027 -1.209,-0.213 c -0.445,-0.087 -0.881,-0.179 -1.326,-0.264 l -0.033,-0.004 -2.176,1.699 c -0.264,0.161 -0.455,0.187 -0.566,0.093 -0.064,-0.091 -0.092,-0.248 -0.08,-0.47 l -0.197,-2.268 -0.436,-0.309 c -0.047,-0.021 -0.1,-0.054 -0.139,-0.085 -0.305,-0.222 -0.598,-0.431 -0.896,-0.632 -0.092,-0.074 -0.197,-0.135 -0.285,-0.188 -0.031,-0.026 -0.055,-0.043 -0.068,-0.06 l -0.225,-0.151 c -0.041,-0.035 -0.08,-0.068 -0.121,-0.091 -0.312,-0.262 -0.24,-0.498 0.232,-0.698 l 2.4,-0.962 0.629,-2.145 c 0.105,-0.408 0.293,-0.54 0.547,-0.396 0.063,0.041 0.147,0.107 0.223,0.207 l 0,0 z"
         id="path839" />
      <path
         inkscape:connector-curvature="0"
         style="fill:#fbe000"
         d="m 710.279,626.889 c 0.07,-0.105 0.148,-0.176 0.213,-0.222 0.238,-0.161 0.434,-0.041 0.57,0.358 l 0.773,2.099 2.459,0.79 c 0.486,0.17 0.574,0.401 0.279,0.682 -0.035,0.026 -0.074,0.062 -0.113,0.097 l -0.213,0.168 c -0.014,0.021 -0.037,0.037 -0.062,0.066 -0.088,0.059 -0.184,0.129 -0.273,0.209 -0.283,0.22 -0.561,0.45 -0.848,0.692 -0.039,0.033 -0.09,0.07 -0.137,0.091 l -0.414,0.338 -0.037,2.279 c 0.025,0.218 0.012,0.377 -0.051,0.475 -0.104,0.1 -0.295,0.087 -0.57,-0.059 l -2.289,-1.543 -0.029,0.006 c -0.441,0.118 -0.867,0.236 -1.307,0.353 l -1.189,0.3 -0.156,0.036 c -0.496,0.065 -0.652,-0.144 -0.453,-0.613 l 0.789,-2.205 -1.318,-2.115 c -0.15,-0.229 -0.197,-0.397 -0.125,-0.506 0.082,-0.093 0.25,-0.139 0.496,-0.139 l 2.582,0.081 0.039,-0.035 1.384,-1.683 0,0 z"
         id="path841" />
      <path
         inkscape:connector-curvature="0"
         style="fill:#fbe000"
         d="m 706.918,634.099 c -0.014,0.009 -0.023,0.009 -0.033,0.005 l 0.156,-0.036 -0.123,0.031 0,0 z"
         id="path843" />
      <path
         inkscape:connector-curvature="0"
         style="fill:none;stroke:#6b7d27;stroke-width:1.48010004;stroke-linecap:round;stroke-linejoin:round;stroke-miterlimit:10"
         d="m 710.279,626.889 -1.385,1.683 -0.039,0.035 -2.582,-0.081 c -0.246,0 -0.414,0.046 -0.496,0.139 -0.072,0.108 -0.025,0.276 0.125,0.506 l 1.318,2.115 -0.789,2.205 c -0.199,0.47 -0.043,0.679 0.453,0.613 l 0.156,-0.036 1.189,-0.3 c 0.439,-0.116 0.865,-0.234 1.307,-0.353 l 0.029,-0.006 2.289,1.543 c 0.275,0.146 0.467,0.158 0.57,0.059 0.062,-0.098 0.076,-0.257 0.051,-0.475 l 0.037,-2.279 0.414,-0.338 c 0.047,-0.021 0.098,-0.058 0.137,-0.091 0.287,-0.242 0.564,-0.473 0.848,-0.692 0.09,-0.08 0.186,-0.15 0.273,-0.209 0.025,-0.029 0.049,-0.045 0.062,-0.066 l 0.213,-0.168 c 0.039,-0.033 0.078,-0.07 0.113,-0.097 0.295,-0.28 0.207,-0.512 -0.279,-0.682 l -2.459,-0.79 -0.773,-2.099 c -0.137,-0.399 -0.332,-0.518 -0.57,-0.358 -0.063,0.046 -0.141,0.116 -0.212,0.222 l 0,0 z"
         id="path845" />
      <path
         inkscape:connector-curvature="0"
         style="fill:#ce2120"
         d="m 683.791,634.457 c -0.023,-0.758 -0.305,-1.394 -0.846,-1.912 -0.555,-0.503 -1.223,-0.744 -1.979,-0.715 -0.756,0.023 -1.383,0.309 -1.887,0.848 -0.529,0.553 -0.783,1.212 -0.756,1.966 0.027,0.783 0.322,1.434 0.891,1.925 0.541,0.532 1.184,0.783 1.938,0.759 0.758,-0.027 1.41,-0.323 1.926,-0.894 0.504,-0.524 0.742,-1.196 0.713,-1.977 l 0,0 z"
         id="path847" />
      <path
         inkscape:connector-curvature="0"
         style="fill:none;stroke:#921113;stroke-width:1.92509997;stroke-linecap:round;stroke-linejoin:round;stroke-miterlimit:10"
         d="m 683.791,634.457 c 0.029,0.781 -0.209,1.453 -0.713,1.977 -0.518,0.57 -1.168,0.866 -1.926,0.894 -0.754,0.024 -1.396,-0.227 -1.938,-0.759 -0.568,-0.491 -0.863,-1.142 -0.891,-1.925 -0.027,-0.754 0.227,-1.413 0.756,-1.966 0.504,-0.539 1.131,-0.824 1.887,-0.848 0.756,-0.029 1.424,0.212 1.979,0.715 0.541,0.518 0.823,1.154 0.846,1.912 l 0,0 z"
         id="path849" />
      <path
         inkscape:connector-curvature="0"
         style="fill:#ce2120"
         d="m 708.889,633.641 c -0.025,-0.758 -0.311,-1.396 -0.852,-1.912 -0.555,-0.503 -1.221,-0.743 -1.977,-0.715 -0.756,0.025 -1.379,0.307 -1.883,0.848 -0.533,0.556 -0.785,1.212 -0.758,1.966 0.023,0.785 0.324,1.434 0.893,1.923 0.541,0.532 1.18,0.785 1.938,0.759 0.756,-0.025 1.406,-0.323 1.922,-0.892 0.504,-0.526 0.744,-1.194 0.717,-1.977 l 0,0 z"
         id="path851" />
      <path
         inkscape:connector-curvature="0"
         style="fill:none;stroke:#921113;stroke-width:1.92509997;stroke-linecap:round;stroke-linejoin:round;stroke-miterlimit:10"
         d="m 708.889,633.641 c 0.027,0.783 -0.213,1.451 -0.717,1.977 -0.516,0.568 -1.166,0.866 -1.922,0.892 -0.758,0.026 -1.396,-0.227 -1.938,-0.759 -0.568,-0.489 -0.869,-1.138 -0.893,-1.923 -0.027,-0.754 0.225,-1.41 0.758,-1.966 0.504,-0.541 1.127,-0.822 1.883,-0.848 0.756,-0.028 1.422,0.212 1.977,0.715 0.541,0.515 0.824,1.154 0.852,1.912 l 0,0 z"
         id="path853" />
      <path
         inkscape:connector-curvature="0"
         style="fill:#6f53a0"
         d="m 688.697,636.734 c -0.027,-0.759 -0.312,-1.396 -0.852,-1.914 -0.555,-0.504 -1.223,-0.742 -1.977,-0.713 -0.758,0.022 -1.379,0.305 -1.885,0.845 -0.531,0.556 -0.785,1.213 -0.76,1.967 0.029,0.785 0.328,1.436 0.895,1.925 0.539,0.532 1.18,0.785 1.938,0.758 0.756,-0.024 1.406,-0.321 1.924,-0.893 0.504,-0.524 0.745,-1.193 0.717,-1.975 l 0,0 z"
         id="path855" />
      <path
         inkscape:connector-curvature="0"
         style="fill:none;stroke:#352082;stroke-width:1.92509997;stroke-linecap:round;stroke-linejoin:round;stroke-miterlimit:10"
         d="m 688.697,636.734 c 0.027,0.781 -0.213,1.45 -0.717,1.975 -0.518,0.571 -1.168,0.868 -1.924,0.893 -0.758,0.027 -1.398,-0.226 -1.939,-0.758 -0.564,-0.489 -0.863,-1.14 -0.893,-1.925 -0.025,-0.754 0.229,-1.411 0.76,-1.967 0.506,-0.54 1.127,-0.822 1.885,-0.845 0.754,-0.029 1.422,0.209 1.977,0.713 0.539,0.518 0.824,1.156 0.851,1.914 l 0,0 z"
         id="path857" />
      <path
         inkscape:connector-curvature="0"
         style="fill:#9dc517"
         d="m 703.311,634.237 c -0.553,-0.505 -1.223,-0.739 -1.979,-0.715 -0.756,0.025 -1.379,0.305 -1.883,0.848 -0.531,0.556 -0.783,1.212 -0.758,1.964 0.027,0.786 0.324,1.437 0.893,1.928 0.541,0.53 1.18,0.782 1.938,0.756 0.756,-0.025 1.406,-0.321 1.922,-0.891 0.508,-0.524 0.746,-1.193 0.717,-1.977 -0.024,-0.758 -0.306,-1.396 -0.85,-1.913 l 0,0 z"
         id="path859" />
      <path
         inkscape:connector-curvature="0"
         style="fill:none;stroke:#388e36;stroke-width:1.92509997;stroke-linecap:round;stroke-linejoin:round;stroke-miterlimit:10"
         d="m 703.311,634.237 c 0.541,0.517 0.826,1.154 0.85,1.913 0.029,0.783 -0.209,1.452 -0.717,1.977 -0.516,0.569 -1.166,0.865 -1.922,0.891 -0.758,0.026 -1.396,-0.226 -1.938,-0.756 -0.568,-0.491 -0.865,-1.142 -0.893,-1.928 -0.025,-0.752 0.227,-1.408 0.758,-1.964 0.504,-0.543 1.127,-0.822 1.883,-0.848 0.756,-0.024 1.426,0.21 1.979,0.715 l 0,0 z"
         id="path861" />
      <path
         inkscape:connector-curvature="0"
         style="fill:#fbe000"
         d="m 694.107,634.302 c -0.072,-0.151 -0.158,-0.259 -0.23,-0.325 -0.283,-0.251 -0.555,-0.133 -0.799,0.358 l -1.371,2.567 -3.311,0.582 c -0.656,0.131 -0.811,0.412 -0.48,0.826 0.045,0.042 0.086,0.094 0.131,0.149 l 0.242,0.253 c 0.014,0.024 0.043,0.05 0.072,0.093 0.098,0.092 0.211,0.197 0.312,0.319 0.33,0.334 0.643,0.68 0.971,1.04 0.043,0.052 0.102,0.108 0.158,0.146 l 0.469,0.508 -0.35,2.939 c -0.072,0.279 -0.08,0.487 -0.021,0.622 0.113,0.148 0.363,0.167 0.742,0.03 l 3.223,-1.583 0.043,0.011 c 0.541,0.228 1.074,0.458 1.617,0.69 l 1.479,0.592 0.199,0.077 c 0.621,0.172 0.863,-0.072 0.688,-0.713 l -0.623,-2.976 2.074,-2.496 c 0.238,-0.268 0.328,-0.477 0.254,-0.626 -0.088,-0.135 -0.297,-0.224 -0.615,-0.27 l -3.342,-0.35 -0.043,-0.056 -1.489,-2.407 0,0 z"
         id="path863" />
      <path
         inkscape:connector-curvature="0"
         style="fill:#fbe000"
         d="m 697.16,644.187 c 0.014,0.013 0.025,0.013 0.043,0.011 l -0.199,-0.077 0.156,0.066 0,0 z"
         id="path865" />
      <path
         inkscape:connector-curvature="0"
         style="fill:none;stroke:#6b7d27;stroke-width:1.92509997;stroke-linecap:round;stroke-linejoin:round;stroke-miterlimit:10"
         d="m 694.107,634.302 1.488,2.41 0.043,0.056 3.342,0.35 c 0.318,0.046 0.527,0.135 0.615,0.27 0.074,0.149 -0.016,0.358 -0.254,0.626 l -2.074,2.496 0.623,2.976 c 0.176,0.641 -0.066,0.885 -0.688,0.713 l -0.199,-0.077 -1.479,-0.592 c -0.543,-0.232 -1.076,-0.463 -1.617,-0.69 l -0.043,-0.011 -3.223,1.583 c -0.379,0.137 -0.627,0.118 -0.742,-0.03 -0.059,-0.135 -0.051,-0.343 0.021,-0.622 l 0.352,-2.939 -0.471,-0.508 c -0.057,-0.037 -0.115,-0.094 -0.158,-0.146 -0.328,-0.36 -0.641,-0.706 -0.971,-1.04 -0.102,-0.122 -0.215,-0.228 -0.312,-0.319 -0.029,-0.043 -0.059,-0.063 -0.072,-0.093 l -0.242,-0.253 c -0.045,-0.056 -0.086,-0.107 -0.131,-0.149 -0.33,-0.414 -0.176,-0.695 0.48,-0.826 l 3.311,-0.582 1.371,-2.567 c 0.244,-0.491 0.516,-0.609 0.799,-0.358 0.073,0.063 0.159,0.17 0.231,0.322 l 0,0 z"
         id="path867" />
    </g>
  </g>
</svg>
