<?xml version="1.0" encoding="UTF-8" standalone="no"?>
<!-- Created with Inkscape (http://www.inkscape.org/) -->

<svg
   xmlns:dc="http://purl.org/dc/elements/1.1/"
   xmlns:cc="http://creativecommons.org/ns#"
   xmlns:rdf="http://www.w3.org/1999/02/22-rdf-syntax-ns#"
   xmlns:svg="http://www.w3.org/2000/svg"
   xmlns="http://www.w3.org/2000/svg"
   xmlns:sodipodi="http://sodipodi.sourceforge.net/DTD/sodipodi-0.dtd"
   xmlns:inkscape="http://www.inkscape.org/namespaces/inkscape"
   width="177.34375"
   height="188.63322"
   id="svg5696"
   version="1.1"
   inkscape:version="0.48.4 r9939"
   sodipodi:docname="zoe9.svg">
  <defs
     id="defs5698">
    <clipPath
       id="SVGID_2_">
      <rect
         height="88.862999"
         width="111.498"
         y="518.96198"
         x="382.04999"
         id="use1087" />
    </clipPath>
    <clipPath
       id="SVGID_4_">
      <rect
         height="41.314999"
         width="49.584999"
         y="525.19397"
         x="389.84698"
         id="use1111" />
    </clipPath>
  </defs>
  <sodipodi:namedview
     id="base"
     pagecolor="#ffffff"
     bordercolor="#666666"
     borderopacity="1.0"
     inkscape:pageopacity="0.0"
     inkscape:pageshadow="2"
     inkscape:zoom="0.77472527"
     inkscape:cx="82.27296"
     inkscape:cy="173.33896"
     inkscape:current-layer="layer1"
     inkscape:document-units="px"
     showgrid="false"
     inkscape:window-width="763"
     inkscape:window-height="591"
     inkscape:window-x="592"
     inkscape:window-y="97"
     inkscape:window-maximized="0"
     fit-margin-top="0"
     fit-margin-left="0"
     fit-margin-right="0"
     fit-margin-bottom="0" />
  <metadata
     id="metadata5701">
    <rdf:RDF>
      <cc:Work
         rdf:about="">
        <dc:format>image/svg+xml</dc:format>
        <dc:type
           rdf:resource="http://purl.org/dc/dcmitype/StillImage" />
        <dc:title></dc:title>
      </cc:Work>
    </rdf:RDF>
  </metadata>
  <g
     id="layer1"
     inkscape:label="Layer 1"
     inkscape:groupmode="layer"
     transform="translate(-235.67034,-69.8121)">
    <g
       transform="translate(-162.20466,-470.6879)"
       id="g583">
      <path
         inkscape:connector-curvature="0"
         style="fill:#df5d91"
         d="m 514.445,723.364 c 1.164,-3.27 1.531,-7.038 1.094,-11.3 -3.227,2.449 -8.24,1.768 -15.025,-2.049 -0.277,-1.71 -0.248,-3.58 0.082,-5.64 5.232,4.136 9.979,5.314 14.238,3.53 -0.354,-2.152 -1.053,-4.73 -2.094,-7.724 -1.896,-5.244 -4.721,-8.362 -8.49,-9.36 -3.029,-0.668 -5.254,0.3 -6.68,2.886 -1.193,2.271 -1.775,5.479 -1.75,9.597 0.014,4.119 0.223,7.479 0.623,10.062 0.418,2.571 0.883,4.577 1.42,5.998 0.736,2.302 1.896,4.229 3.475,5.762 1.627,1.592 3.426,2.48 5.379,2.671 3.826,0.141 6.404,-1.333 7.728,-4.433 l 0,0 z"
         id="path585" />
      <path
         inkscape:connector-curvature="0"
         style="fill:#eda1c1"
         d="m 515.539,712.064 c -0.111,-1.112 -0.338,-2.503 -0.705,-4.158 -4.26,1.784 -9.006,0.605 -14.238,-3.53 -0.33,2.06 -0.359,3.93 -0.082,5.64 6.785,3.816 11.798,4.498 15.025,2.048 l 0,0 z"
         id="path587" />
      <path
         inkscape:connector-curvature="0"
         style="fill:none;stroke:#970f45;stroke-width:2.62969995;stroke-linecap:round;stroke-miterlimit:10"
         d="m 515.539,712.064 c 0.438,4.262 0.07,8.03 -1.094,11.3 -1.326,3.1 -3.902,4.574 -7.729,4.438 -1.953,-0.194 -3.752,-1.081 -5.379,-2.675 -1.578,-1.53 -2.738,-3.46 -3.475,-5.762 -0.537,-1.421 -1.002,-3.427 -1.42,-5.998 -0.402,-2.583 -0.609,-5.943 -0.623,-10.059 -0.025,-4.121 0.557,-7.328 1.75,-9.601 1.426,-2.586 3.65,-3.554 6.68,-2.884 3.77,0.996 6.594,4.114 8.49,9.358 1.041,2.993 1.74,5.571 2.092,7.724 m 0.708,4.159 c -0.111,-1.112 -0.338,-2.503 -0.707,-4.158 m 0,0 c -4.258,1.784 -9.004,0.605 -14.236,-3.53 -0.332,2.06 -0.359,3.933 -0.082,5.64 6.783,3.818 11.799,4.498 15.025,2.049"
         id="path589" />
      <path
         inkscape:connector-curvature="0"
         style="fill:#eda1c1"
         d="m 512.902,670.665 -8.338,-0.684 c 0.305,9.352 -0.762,17.446 -3.236,24.266 -0.02,2.627 0.979,4.319 3,5.069 0.871,0.317 1.82,0.392 2.852,0.209 1.033,-0.182 2.002,-0.599 2.904,-1.234 3.342,-8.613 4.283,-17.816 2.818,-27.626 l 0,0 z"
         id="path591" />
      <path
         inkscape:connector-curvature="0"
         style="fill:none;stroke:#df5d91;stroke-width:2.60890007;stroke-linecap:round;stroke-miterlimit:10"
         d="m 504.564,669.981 c 0.305,9.352 -0.762,17.446 -3.236,24.266 -0.021,2.627 0.979,4.319 3,5.069 0.871,0.317 1.82,0.392 2.852,0.209 1.033,-0.182 2,-0.599 2.904,-1.234 3.342,-8.613 4.283,-17.816 2.818,-27.626 l -8.338,-0.684 0,0 z"
         id="path593" />
      <path
         inkscape:connector-curvature="0"
         style="fill:#df5d91"
         d="m 485.346,711.222 c -1.221,-3.672 -1.673,-7.647 -1.355,-11.935 3.072,3.33 6.646,3.852 10.709,1.581 0.469,-1.749 0.523,-3.399 0.148,-4.954 -3.432,0.96 -6.924,0.943 -10.461,-0.024 0.416,-2.612 1.092,-5.318 2.029,-8.145 1.717,-4.923 4.395,-7.424 8.049,-7.492 2.939,0.083 5.137,1.647 6.592,4.677 1.225,2.646 1.873,6.102 1.953,10.345 0.094,4.243 -0.025,7.653 -0.354,10.216 -0.34,2.547 -0.742,4.496 -1.23,5.824 -0.662,2.184 -1.744,3.883 -3.244,5.06 -1.549,1.229 -3.283,1.683 -5.18,1.388 -3.731,-0.831 -6.283,-3.007 -7.656,-6.541 l 0,0 z"
         id="path595" />
      <path
         inkscape:connector-curvature="0"
         style="fill:#eda1c1"
         d="m 483.99,699.287 c 0.078,-1.116 0.203,-2.252 0.396,-3.397 3.537,0.968 7.029,0.984 10.461,0.024 0.375,1.555 0.32,3.205 -0.148,4.954 -4.062,2.271 -7.637,1.749 -10.709,-1.581 l 0,0 z"
         id="path597" />
      <path
         inkscape:connector-curvature="0"
         style="fill:none;stroke:#970f45;stroke-width:2.64120007;stroke-linecap:round;stroke-miterlimit:10"
         d="m 483.99,699.287 c -0.317,4.287 0.135,8.263 1.355,11.935 1.373,3.534 3.926,5.71 7.656,6.54 1.896,0.295 3.631,-0.159 5.18,-1.388 1.5,-1.177 2.582,-2.876 3.244,-5.06 0.488,-1.328 0.891,-3.277 1.23,-5.824 0.328,-2.562 0.447,-5.973 0.354,-10.216 -0.08,-4.243 -0.73,-7.699 -1.953,-10.345 -1.455,-3.029 -3.652,-4.596 -6.592,-4.677 -3.654,0.068 -6.332,2.569 -8.051,7.492 -0.936,2.826 -1.611,5.529 -2.027,8.145 m 10e-4,10e-4 c -0.193,1.146 -0.318,2.281 -0.396,3.397 m 0.396,-3.397 c 3.537,0.968 7.029,0.984 10.461,0.024 0.375,1.555 0.32,3.205 -0.15,4.952 -4.061,2.271 -7.635,1.751 -10.707,-1.579"
         id="path599" />
      <path
         inkscape:connector-curvature="0"
         style="fill:#eda1c1"
         d="m 486.674,669.383 c 0.111,-0.085 0.223,-0.17 0.336,-0.257 2.484,0.52 4.98,1.054 7.492,1.574 0.018,0.133 -0.008,0.358 -0.088,0.665 -3.338,3.619 -5.121,6.643 -5.336,9.056 -0.021,0.412 0.01,0.804 0.086,1.162 0.525,1.215 1.781,1.987 3.742,2.307 1.615,0.547 2.367,1.823 2.268,3.808 l -0.002,0.015 c -0.541,2.845 -2.119,4.687 -4.734,5.544 -1.166,0.39 -2.4,0.441 -3.699,0.153 -0.656,-0.145 -1.312,-0.377 -1.943,-0.677 -0.623,-0.325 -1.238,-0.711 -1.811,-1.175 -3.496,-2.75 -4.914,-6.1 -4.246,-10.047 0.634,-3.937 3.279,-7.981 7.935,-12.128 l 0,0 z"
         id="path601" />
      <path
         inkscape:connector-curvature="0"
         style="fill:none;stroke:#df5d91;stroke-width:2.66420007;stroke-linecap:round;stroke-miterlimit:10"
         d="m 487.01,669.126 c 2.484,0.52 4.98,1.054 7.492,1.574 0.018,0.133 -0.008,0.358 -0.088,0.665 -3.338,3.619 -5.121,6.643 -5.336,9.056 -0.021,0.412 0.01,0.804 0.086,1.162 0.525,1.215 1.781,1.987 3.742,2.307 1.615,0.547 2.367,1.823 2.268,3.808 l -0.002,0.015 c -0.541,2.845 -2.119,4.687 -4.734,5.544 -1.166,0.39 -2.4,0.441 -3.699,0.153 -0.656,-0.145 -1.312,-0.377 -1.943,-0.677 -0.623,-0.325 -1.238,-0.711 -1.811,-1.175 -3.496,-2.75 -4.914,-6.1 -4.246,-10.047 0.635,-3.937 3.279,-7.98 7.936,-12.128 0.11,-0.085 0.221,-0.17 0.335,-0.257 l 0,0 z"
         id="path603" />
      <path
         inkscape:connector-curvature="0"
         style="fill:#f18900"
         d="m 512.139,626.373 c -8.584,-1.966 -16.988,-1.574 -25.244,1.171 l 0.584,12.524 5.643,4.62 14.619,-0.68 4.982,-5.099 -0.584,-12.536 0,0 z"
         id="path605" />
      <path
         inkscape:connector-curvature="0"
         style="fill:none;stroke:#d04215;stroke-width:2.60890007;stroke-linecap:square;stroke-miterlimit:10"
         d="m 487.479,640.068 -0.584,-12.524 c 8.256,-2.745 16.66,-3.137 25.244,-1.171 l 0.584,12.537"
         id="path607" />
      <path
         inkscape:connector-curvature="0"
         style="fill:#eda1c1"
         d="m 521.02,653.918 c -2.332,-5.64 -3.789,-11.058 -4.352,-16.28 -3.703,1.906 -7.906,3.277 -12.641,4.112 -4.746,0.837 -11.477,0.24 -20.203,-1.805 -0.016,4.83 -0.915,10.104 -2.734,15.825 -0.758,2.654 -1.361,5.006 -1.815,7.025 -1.587,5.867 -0.543,10.854 3.146,14.979 13.021,4.096 26.131,3.489 39.316,-1.823 3.293,-4.45 3.869,-9.512 1.742,-15.207 -0.637,-1.97 -1.458,-4.257 -2.459,-6.826 l 0,0 z"
         id="path609" />
      <path
         inkscape:connector-curvature="0"
         style="fill:none;stroke:#df5d91;stroke-width:2.60890007;stroke-linecap:square;stroke-miterlimit:10"
         d="m 516.668,637.638 c -3.703,1.906 -7.906,3.277 -12.641,4.112 -4.746,0.837 -11.477,0.24 -20.203,-1.805 -0.016,4.83 -0.915,10.104 -2.734,15.825 -0.758,2.654 -1.361,5.006 -1.815,7.025 -1.587,5.867 -0.543,10.854 3.146,14.979 13.021,4.096 26.131,3.489 39.316,-1.823 3.293,-4.45 3.869,-9.512 1.742,-15.207 -0.637,-1.971 -1.457,-4.258 -2.459,-6.827 -2.332,-5.639 -3.79,-11.057 -4.352,-16.279 l 0,0 z"
         id="path611" />
      <path
         inkscape:connector-curvature="0"
         style="fill:#f18900"
         d="m 488.297,636.32 6.061,8.086 c -14.779,2.331 -24.048,8.861 -27.792,19.598 -4.296,-1.04 -7.166,-3.236 -8.596,-6.595 4.404,-11.063 14.51,-18.097 30.327,-21.089 l 0,0 z"
         id="path613" />
      <path
         inkscape:connector-curvature="0"
         style="fill:none;stroke:#d04215;stroke-width:2.6085999;stroke-linecap:square;stroke-miterlimit:10"
         d="m 494.357,644.406 c -14.779,2.331 -24.048,8.861 -27.792,19.598 -4.296,-1.04 -7.166,-3.236 -8.596,-6.595 4.404,-11.063 14.511,-18.098 30.327,-21.089 l 6.061,8.086 0,0 z"
         id="path615" />
      <path
         inkscape:connector-curvature="0"
         style="fill:#eda1c1"
         d="m 474.834,652.097 c -2.602,-1.635 -4.702,-4.358 -6.287,-8.171 5.279,-3.645 11.858,-6.17 19.75,-7.605 l 6.061,8.086 c -8.43,1.678 -14.943,4.239 -19.524,7.69 l 0,0 z"
         id="path617" />
      <path
         inkscape:connector-curvature="0"
         style="fill:none;stroke:#df5d91;stroke-width:2.6085999;stroke-linecap:square;stroke-miterlimit:10"
         d="m 468.547,643.926 c 5.279,-3.645 11.858,-6.17 19.75,-7.605 l 6.061,8.086 c -8.43,1.679 -14.942,4.239 -19.523,7.69 -2.603,-1.635 -4.703,-4.359 -6.288,-8.171 l 0,0 z"
         id="path619" />
      <polygon
         style="fill:#eda1c1"
         points="491.936,636.629 496.008,642.894 496.008,642.894 492.322,643.66 487.781,637.553 "
         id="polygon621" />
      <path
         inkscape:connector-curvature="0"
         style="fill:#eda1c1"
         d="m 519.949,654.374 -0.012,-0.013 c -2.133,-5.178 -3.539,-10.147 -4.223,-14.944 -3.439,1.573 -7.26,2.745 -11.494,3.485 -4.592,0.816 -11.012,0.316 -19.252,-1.5 -0.166,4.526 -1.102,9.441 -2.77,14.739 l 0.011,-0.029 c -0.761,2.623 -1.351,4.931 -1.775,6.937 l -0.024,0.056 c -1.447,5.316 -0.547,9.877 2.691,13.662 12.549,3.864 25.17,3.277 37.877,-1.771 2.875,-4.067 3.334,-8.679 1.402,-13.836 l -0.02,-0.054 c -0.62,-1.96 -1.424,-4.203 -2.411,-6.732 l 0,0 z"
         id="path623" />
      <path
         inkscape:connector-curvature="0"
         style="fill:#df5d91"
         d="m 496.207,684.747 c 0.285,0.264 0.6,0.51 0.941,0.729 3.16,2.215 6.268,2.078 9.355,-0.396 1.023,-0.901 1.641,-1.43 1.855,-1.587 0.932,-0.655 1.793,-0.977 2.562,-0.951 1.664,0.052 3.125,0.717 4.395,2.001 0.666,0.68 1.168,1.129 1.541,1.349 0.656,0.402 1.445,0.622 2.354,0.653 0.824,0.024 1.602,-0.158 2.324,-0.556 0.43,-0.251 1.018,-0.706 1.779,-1.367 0.736,-0.663 1.322,-1.117 1.766,-1.37 0.711,-0.41 1.475,-0.594 2.283,-0.567 1.188,0.035 2.492,0.763 3.93,2.169 0.73,0.738 1.273,1.215 1.619,1.438 0.627,0.453 1.262,0.684 1.891,0.704 1.748,0.056 3.033,-0.418 3.893,-1.411 0.318,-0.37 0.779,-1.164 1.393,-2.389 l -12.426,-12.321 c -17.893,0.216 -34.971,-0.521 -51.238,-2.227 l -13.618,12.002 c 0.531,1.291 0.938,2.115 1.233,2.503 0.791,1.044 2.046,1.604 3.792,1.661 0.627,0.021 1.278,-0.17 1.935,-0.58 0.355,-0.199 0.931,-0.643 1.706,-1.33 1.525,-1.306 2.874,-1.947 4.063,-1.908 0.796,0.025 1.543,0.261 2.241,0.717 0.41,0.28 0.968,0.771 1.672,1.479 0.72,0.709 1.276,1.204 1.687,1.479 0.698,0.445 1.461,0.68 2.283,0.706 0.908,0.031 1.711,-0.139 2.395,-0.497 0.371,-0.194 0.902,-0.613 1.605,-1.245 1.369,-1.202 2.871,-1.768 4.533,-1.714 0.768,0.027 1.609,0.402 2.494,1.117 0.203,0.176 0.803,0.741 1.762,1.709 l 0,0 z"
         id="path625" />
      <path
         inkscape:connector-curvature="0"
         style="fill:none;stroke:#970f45;stroke-width:2.60899997;stroke-linecap:round;stroke-miterlimit:10"
         d="m 496.207,684.747 c -0.959,-0.968 -1.559,-1.533 -1.762,-1.707 -0.885,-0.715 -1.727,-1.09 -2.494,-1.117 -1.662,-0.054 -3.164,0.512 -4.533,1.714 -0.703,0.632 -1.234,1.051 -1.605,1.245 -0.684,0.358 -1.486,0.528 -2.395,0.497 -0.822,-0.026 -1.585,-0.261 -2.283,-0.706 -0.41,-0.275 -0.967,-0.771 -1.687,-1.479 -0.704,-0.709 -1.262,-1.199 -1.672,-1.479 -0.698,-0.456 -1.445,-0.691 -2.241,-0.717 -1.189,-0.039 -2.538,0.603 -4.063,1.908 -0.775,0.688 -1.351,1.131 -1.706,1.33 -0.656,0.41 -1.308,0.601 -1.935,0.58 -1.746,-0.058 -3.001,-0.613 -3.792,-1.661 -0.295,-0.388 -0.702,-1.212 -1.233,-2.503 l 13.618,-12.002 c 16.268,1.705 33.346,2.442 51.238,2.227 l 12.426,12.321 c -0.613,1.225 -1.074,2.019 -1.393,2.389 -0.859,0.993 -2.145,1.467 -3.893,1.411 -0.629,-0.021 -1.264,-0.251 -1.891,-0.704 -0.346,-0.224 -0.889,-0.7 -1.619,-1.438 -1.438,-1.406 -2.742,-2.134 -3.93,-2.169 -0.809,-0.026 -1.572,0.157 -2.283,0.567 -0.443,0.253 -1.029,0.707 -1.766,1.37 -0.764,0.661 -1.35,1.116 -1.779,1.367 -0.723,0.397 -1.5,0.58 -2.324,0.556 -0.91,-0.031 -1.697,-0.251 -2.354,-0.653 -0.373,-0.22 -0.875,-0.669 -1.541,-1.349 -1.27,-1.284 -2.73,-1.949 -4.395,-2.001 -0.77,-0.025 -1.631,0.296 -2.562,0.951 -0.215,0.157 -0.832,0.686 -1.855,1.587 -3.088,2.474 -6.195,2.61 -9.355,0.396 -0.341,-0.221 -0.656,-0.467 -0.941,-0.731 l 0,0 z"
         id="path627" />
      <path
         inkscape:connector-curvature="0"
         style="fill:#df5d91"
         d="m 507.01,672.944 c 0.916,-0.626 1.752,-0.935 2.52,-0.908 1.621,0.05 3.066,0.698 4.328,1.93 0.65,0.65 1.154,1.07 1.51,1.294 0.646,0.384 1.422,0.591 2.314,0.618 0.799,0.028 1.559,-0.158 2.27,-0.539 0.428,-0.238 1.018,-0.68 1.75,-1.313 0.734,-0.632 1.322,-1.075 1.734,-1.301 0.713,-0.394 1.459,-0.578 2.256,-0.556 1.16,0.037 2.451,0.737 3.863,2.087 0.717,0.706 1.248,1.172 1.59,1.392 0.615,0.427 1.225,0.657 1.852,0.676 0.043,0 0.086,0.004 0.125,0.004 0.91,0.017 1.697,-0.098 2.336,-0.371 0.551,-0.222 1.01,-0.555 1.373,-0.978 0.318,-0.351 0.777,-1.136 1.361,-2.333 l -13.607,-10.301 c -15.938,4.543 -31.008,4.009 -45.204,-1.598 l -14,9.53 c 0.507,1.229 0.912,2.041 1.194,2.416 0.35,0.445 0.786,0.808 1.31,1.062 0.617,0.301 1.382,0.479 2.261,0.519 0.056,0.002 0.11,0.004 0.182,0.008 0.63,0.021 1.249,-0.168 1.894,-0.555 0.355,-0.197 0.915,-0.628 1.677,-1.285 1.494,-1.253 2.83,-1.866 3.988,-1.829 0.797,0.024 1.53,0.259 2.201,0.7 0.412,0.253 0.971,0.731 1.66,1.411 0.691,0.677 1.249,1.16 1.66,1.423 0.686,0.429 1.434,0.663 2.23,0.688 0.891,0.03 1.68,-0.127 2.348,-0.469 0.371,-0.196 0.902,-0.586 1.594,-1.191 1.336,-1.146 2.824,-1.698 4.443,-1.645 0.77,0.021 1.584,0.385 2.455,1.068 0.232,0.193 0.951,0.873 2.158,2.043 1.723,1.666 3.762,1.732 6.09,0.201 1.28,-1.09 2.042,-1.724 2.284,-1.898 l 0,0 z"
         id="path629" />
      <path
         inkscape:connector-curvature="0"
         style="fill:none;stroke:#970f45;stroke-width:2.60899997;stroke-linecap:round;stroke-miterlimit:10"
         d="m 507.01,672.944 c -0.242,0.174 -1.004,0.808 -2.285,1.899 -2.328,1.531 -4.367,1.465 -6.09,-0.201 -1.207,-1.17 -1.926,-1.85 -2.158,-2.04 -0.871,-0.687 -1.686,-1.051 -2.455,-1.071 -1.619,-0.054 -3.107,0.499 -4.443,1.645 -0.691,0.605 -1.223,0.995 -1.594,1.191 -0.668,0.342 -1.457,0.499 -2.348,0.469 -0.797,-0.025 -1.545,-0.26 -2.23,-0.688 -0.411,-0.263 -0.969,-0.746 -1.66,-1.423 -0.689,-0.68 -1.248,-1.158 -1.66,-1.411 -0.671,-0.441 -1.404,-0.676 -2.201,-0.7 -1.158,-0.037 -2.494,0.576 -3.988,1.829 -0.764,0.659 -1.321,1.088 -1.677,1.285 -0.645,0.387 -1.264,0.575 -1.894,0.555 -0.071,-0.004 -0.126,-0.006 -0.182,-0.006 -0.879,-0.042 -1.644,-0.22 -2.261,-0.521 -0.523,-0.255 -0.96,-0.617 -1.31,-1.062 -0.282,-0.375 -0.688,-1.184 -1.194,-2.416 l 14,-9.53 c 14.196,5.606 29.267,6.141 45.204,1.598 l 13.607,10.303 c -0.584,1.195 -1.043,1.98 -1.361,2.331 -0.363,0.423 -0.822,0.756 -1.373,0.978 -0.639,0.273 -1.426,0.388 -2.336,0.371 -0.039,0 -0.082,-0.004 -0.125,-0.004 -0.627,-0.019 -1.236,-0.249 -1.852,-0.676 -0.342,-0.22 -0.873,-0.686 -1.59,-1.392 -1.412,-1.35 -2.703,-2.05 -3.863,-2.087 -0.797,-0.022 -1.543,0.162 -2.256,0.558 -0.412,0.224 -1,0.667 -1.734,1.299 -0.732,0.634 -1.322,1.075 -1.75,1.313 -0.711,0.381 -1.471,0.567 -2.27,0.543 -0.893,-0.031 -1.67,-0.238 -2.314,-0.622 -0.355,-0.224 -0.859,-0.644 -1.51,-1.294 -1.262,-1.231 -2.707,-1.88 -4.328,-1.93 -0.768,-0.026 -1.604,0.282 -2.52,0.912 v -0.005 z"
         id="path631" />
      <path
         inkscape:connector-curvature="0"
         style="fill:#f18900"
         d="m 452.293,674.568 c -0.866,-2.016 -1.001,-4.515 -0.386,-7.511 0.624,-3.002 2.606,-5.736 5.955,-8.189 0.035,-0.023 0.285,-0.227 0.754,-0.602 1.689,-1.67 3.149,-1.805 4.376,-0.414 l 4.759,1.106 c 7.087,2.138 10.478,4.521 10.164,7.144 -0.209,0.964 -0.704,1.519 -1.487,1.66 -1.289,0.058 -3.085,-0.55 -5.419,-1.821 l -2.021,-1.01 -0.156,2.414 c 0.085,1.395 0.537,3.122 1.345,5.196 l 0.015,0.048 0.004,0.026 c 0.906,2.111 1.371,3.812 1.393,5.1 l 0.009,0.008 c 0.01,0.891 -0.319,1.548 -0.984,1.969 -1.941,1.179 -3.907,0.623 -5.896,-1.644 -1.775,-2.355 -2.797,-4.98 -3.042,-7.869 -1.681,2.978 -0.985,6.369 2.127,10.167 0.357,0.396 0.727,0.733 1.084,1.009 -1.503,0.599 -3.154,0.091 -4.957,-1.517 -1.792,-1.598 -3.146,-4.485 -4.065,-8.679 -1.309,1.666 -1.216,4.301 0.287,7.894 -0.253,-0.109 -0.476,-0.224 -0.668,-0.344 l -0.044,-0.035 c -1.236,-0.812 -2.282,-2.192 -3.147,-4.106 l 0,0 z"
         id="path633" />
      <path
         inkscape:connector-curvature="0"
         style="fill:#d04215"
         d="m 451.905,667.058 c -0.613,2.996 -0.479,5.495 0.388,7.511 0.865,1.914 1.911,3.294 3.145,4.106 l 0.044,0.035 c 0.192,0.12 0.415,0.234 0.668,0.344 -1.503,-3.593 -1.596,-6.228 -0.287,-7.894 0.92,4.193 2.273,7.081 4.065,8.679 1.803,1.607 3.454,2.115 4.957,1.517 -0.357,-0.275 -0.727,-0.613 -1.084,-1.009 -3.112,-3.798 -3.808,-7.189 -2.127,-10.167 0.245,2.889 1.267,5.514 3.042,7.869 1.989,2.267 3.955,2.822 5.896,1.644 0.665,-0.421 0.994,-1.078 0.984,-1.969 l -0.009,-0.008 c -0.021,-1.287 -0.486,-2.988 -1.393,-5.1 l -0.004,-0.026 -0.015,-0.048 c -0.808,-2.074 -1.26,-3.802 -1.345,-5.196 l 0.156,-2.414 2.021,1.01 c 2.334,1.271 4.13,1.879 5.419,1.821 0.783,-0.142 1.278,-0.696 1.487,-1.66 0.313,-2.623 -3.077,-5.006 -10.164,-7.144 l 0.312,-2.15 c 4.735,1.191 8.087,2.6 10.063,4.185 1.935,1.579 2.633,3.408 2.106,5.507 -0.329,1.229 -0.827,2.183 -1.497,2.828 -0.682,0.653 -1.543,1.043 -2.602,1.177 -0.592,0.071 -1.199,-0.004 -1.857,-0.217 -0.666,-0.224 -1.539,-0.659 -2.641,-1.289 l 2.033,4.434 -0.766,-1.968 c 1.117,2.594 1.658,4.678 1.645,6.246 l 0.008,0.013 c 0.006,2.298 -0.959,3.87 -2.881,4.724 -1.252,0.587 -2.493,0.731 -3.751,0.458 -3.146,1.594 -6.277,1.341 -9.41,-0.785 -4.86,-0.961 -7.864,-3.785 -9.004,-8.494 -1.533,-7.348 0.922,-12.746 7.354,-16.189 l 1.751,0.83 c -0.469,0.375 -0.719,0.578 -0.754,0.602 -3.344,2.45 -5.327,5.185 -5.953,8.187 l 0,0 z"
         id="path635" />
      <path
         inkscape:connector-curvature="0"
         style="fill:#f18900"
         d="m 518.529,646.399 -7.211,-7.073 c 13.58,-5.559 22.779,-13.239 27.58,-23.01 4.426,0.174 7.273,2.355 8.527,6.541 -5.743,9.692 -15.37,17.539 -28.896,23.542 l 0,0 z"
         id="path637" />
      <path
         inkscape:connector-curvature="0"
         style="fill:none;stroke:#d04215;stroke-width:2.60870004;stroke-linecap:square;stroke-miterlimit:10"
         d="m 511.318,639.326 c 13.58,-5.559 22.779,-13.239 27.58,-23.014 4.426,0.178 7.273,2.359 8.527,6.545 -5.744,9.691 -15.371,17.538 -28.896,23.542 l -7.211,-7.073 0,0 z"
         id="path639" />
      <path
         inkscape:connector-curvature="0"
         style="fill:#eda1c1"
         d="m 530.041,627.956 c 2.518,1.448 4.756,3.897 6.691,7.367 -5.035,4.272 -11.092,7.962 -18.203,11.076 l -7.211,-7.073 c 7.809,-3.543 14.045,-7.334 18.723,-11.37 l 0,0 z"
         id="path641" />
      <path
         inkscape:connector-curvature="0"
         style="fill:none;stroke:#df5d91;stroke-width:2.60870004;stroke-linecap:square;stroke-miterlimit:10"
         d="m 530.041,627.956 c -4.678,4.036 -10.914,7.827 -18.723,11.37 l 7.211,7.073 c 7.111,-3.114 13.168,-6.804 18.203,-11.076 -1.935,-3.469 -4.173,-5.919 -6.691,-7.367 l 0,0 z"
         id="path643" />
      <polygon
         style="fill:#eda1c1"
         points="514.645,646.934 509.711,641.303 509.711,641.303 513.311,639.646 518.812,645.063 "
         id="polygon645" />
      <path
         inkscape:connector-curvature="0"
         style="fill:#eda1c1"
         d="m 520.396,655.528 c -0.143,-0.371 -0.303,-0.757 -0.447,-1.154 l -0.012,-0.013 c -2.133,-5.178 -3.539,-10.147 -4.223,-14.944 -3.439,1.573 -7.26,2.745 -11.494,3.485 -4.592,0.816 -11.012,0.316 -19.252,-1.5 -0.166,4.526 -1.102,9.441 -2.77,14.739 l 0.011,-0.029 c -0.119,0.408 -0.228,0.806 -0.335,1.204 l 38.522,-1.788 0,0 z"
         id="path647" />
      <path
         inkscape:connector-curvature="0"
         style="fill:#f18900"
         d="m 499.211,562.869 c -5.307,-0.245 -10.549,0.155 -15.715,1.203 -5.125,1.021 -10.062,2.675 -14.834,4.977 -4.829,2.35 -9.34,5.113 -13.517,8.296 -1.533,1.167 -3.921,2.907 -7.158,5.246 -3.089,-4.001 -6.99,-5.451 -11.691,-4.359 -8.031,1.849 -13.711,1.254 -17.03,-1.753 0.443,5.754 3.719,10.063 9.844,12.925 -5.951,-0.313 -9.783,1.45 -11.505,5.314 -2.449,5.426 -6.924,7.122 -13.395,5.097 1.87,6.078 7.171,7.663 15.902,4.777 -2.275,6.311 -8.243,10.513 -17.919,12.601 7.578,3.183 15.434,2.532 23.606,-1.937 -1.525,2.542 -2.528,4.724 -3.008,6.54 -1.244,4.801 -4.76,8.06 -10.558,9.805 7.938,2.343 15.07,0.443 21.408,-5.706 -0.702,5.753 -3.603,9.609 -8.697,11.579 5.639,3 12.111,2.271 19.388,-2.182 0.856,0.471 1.75,0.92 2.681,1.341 7.613,3.464 16.798,4.301 27.548,2.521 15.49,-2.476 30.527,-6.578 45.094,-12.307 8.789,-3.394 15.57,-7.738 20.326,-13.012 1.979,-2.175 3.607,-4.398 4.875,-6.667 8.441,0.141 14.311,-2.538 17.584,-8.02 -5.381,0.948 -9.857,-0.852 -13.436,-5.412 8.607,1.982 15.691,-0.079 21.271,-6.19 -5.863,1.504 -10.559,0.534 -14.109,-2.932 -1.35,-1.304 -3.336,-2.652 -5.957,-4.038 9.25,-0.39 16.404,-4.038 21.432,-10.925 -9.51,3.466 -16.873,3.081 -22.084,-1.142 8.963,-2.047 12.682,-6.147 11.135,-12.317 -4.488,5.082 -9.195,5.946 -14.1,2.567 -3.475,-2.414 -7.666,-1.939 -12.596,1.404 3.76,-5.616 4.332,-10.999 1.734,-16.152 -1.283,4.289 -5.725,7.72 -13.322,10.289 -5.486,1.977 -8.559,5.534 -9.23,10.666 -4.85,-1.2 -9.502,-1.904 -13.967,-2.097 l 0,0 z"
         id="path649" />
      <path
         inkscape:connector-curvature="0"
         style="fill:none;stroke:#d04215;stroke-width:2.60890007;stroke-linecap:square;stroke-miterlimit:10"
         d="m 499.211,562.869 c 4.465,0.192 9.117,0.896 13.965,2.099 0.672,-5.132 3.744,-8.689 9.23,-10.666 7.598,-2.569 12.039,-6 13.322,-10.289 2.598,5.153 2.025,10.536 -1.734,16.152 4.93,-3.344 9.121,-3.818 12.596,-1.406 4.904,3.381 9.611,2.515 14.1,-2.565 1.547,6.17 -2.172,10.271 -11.135,12.317 5.211,4.223 12.574,4.607 22.084,1.142 -5.027,6.887 -12.182,10.535 -21.432,10.925 2.621,1.386 4.607,2.734 5.959,4.038 3.549,3.466 8.244,4.436 14.107,2.932 -5.58,6.111 -12.664,8.173 -21.271,6.19 3.578,4.561 8.055,6.36 13.436,5.412 -3.273,5.481 -9.143,8.16 -17.584,8.02 -1.268,2.269 -2.896,4.492 -4.875,6.667 -4.756,5.273 -11.537,9.618 -20.326,13.012 -14.566,5.729 -29.604,9.831 -45.094,12.307 -10.749,1.779 -19.935,0.942 -27.548,-2.521 -0.931,-0.421 -1.824,-0.87 -2.681,-1.341 -7.277,4.453 -13.749,5.182 -19.388,2.182 5.095,-1.97 7.995,-5.826 8.697,-11.579 -6.338,6.149 -13.469,8.049 -21.408,5.706 5.798,-1.745 9.314,-5.004 10.558,-9.805 0.479,-1.816 1.482,-3.998 3.008,-6.54 -8.172,4.469 -16.028,5.119 -23.606,1.937 9.676,-2.088 15.645,-6.29 17.92,-12.601 -8.731,2.886 -14.033,1.301 -15.902,-4.777 6.471,2.025 10.946,0.329 13.395,-5.097 1.722,-3.864 5.554,-5.628 11.505,-5.314 -6.125,-2.861 -9.4,-7.171 -9.844,-12.925 3.318,3.007 8.999,3.602 17.03,1.753 4.701,-1.092 8.603,0.358 11.691,4.359 3.238,-2.339 5.625,-4.079 7.158,-5.246 4.177,-3.183 8.688,-5.946 13.517,-8.296 4.771,-2.302 9.709,-3.955 14.834,-4.977 5.167,-1.05 10.409,-1.45 15.716,-1.205 l 0,0 z"
         id="path651" />
      <path
         inkscape:connector-curvature="0"
         style="fill:#ab61a3"
         d="m 431.846,589.675 -0.485,2.687 c -0.099,0.537 -0.103,1.045 0,1.513 l 0.24,-0.331 c 0.36,-0.477 0.781,-0.535 1.268,-0.193 l 1.43,1.067 c 0.46,0.35 0.516,0.754 0.199,1.236 0.28,-0.095 0.55,-0.211 0.827,-0.362 l 2.396,-1.247 c 1.201,-0.641 1.317,-1.369 0.362,-2.189 -0.636,-0.564 -1.418,-1.03 -2.343,-1.378 l -1.846,-1.575 c -1.126,-0.965 -1.808,-0.702 -2.048,0.772 l 0,0 z"
         id="path653" />
      <path
         inkscape:connector-curvature="0"
         style="fill:#ab61a3"
         d="m 434.299,594.417 -1.43,-1.067 c -0.487,-0.342 -0.908,-0.283 -1.268,0.193 l -0.24,0.331 -0.836,1.117 -0.16,0.203 c -0.343,0.488 -0.285,0.902 0.202,1.249 l 1.444,1.062 c 0.392,0.313 0.768,0.309 1.097,-0.015 0.042,-0.056 0.086,-0.111 0.142,-0.17 l 1.224,-1.646 c 0.009,-0.017 0.009,-0.017 0.023,-0.021 0.317,-0.482 0.262,-0.886 -0.198,-1.236 l 0,0 z"
         id="path655" />
      <path
         inkscape:connector-curvature="0"
         style="fill:#ab61a3"
         d="m 430.365,595.194 0.16,-0.203 c -0.479,0.043 -0.961,0.194 -1.46,0.435 l -2.442,1.232 c -1.349,0.68 -1.384,1.43 -0.12,2.224 l 2.024,1.28 c 0.5,0.802 1.128,1.442 1.886,1.925 1.102,0.725 1.802,0.369 2.085,-1.061 l 0.535,-2.658 c 0.06,-0.307 0.079,-0.604 0.074,-0.877 -0.33,0.323 -0.706,0.328 -1.097,0.015 l -1.444,-1.062 c -0.485,-0.347 -0.544,-0.761 -0.201,-1.25 l 0,0 z"
         id="path657" />
      <path
         inkscape:connector-curvature="0"
         style="fill:none;stroke:#633791;stroke-width:1.95669997;stroke-linecap:round;stroke-linejoin:round;stroke-miterlimit:10"
         d="m 431.361,593.874 c -0.103,-0.468 -0.099,-0.976 0,-1.513 l 0.485,-2.687 c 0.24,-1.474 0.922,-1.736 2.047,-0.775 l 1.846,1.577 c 0.925,0.348 1.707,0.813 2.343,1.378 0.955,0.82 0.839,1.549 -0.362,2.189 l -2.396,1.247 c -0.276,0.151 -0.547,0.268 -0.827,0.362 m 10e-4,10e-4 c 0.317,-0.482 0.261,-0.887 -0.199,-1.236 l -1.43,-1.067 c -0.487,-0.342 -0.908,-0.283 -1.268,0.193 l -0.24,0.331 m -0.836,1.117 0.836,-1.117 m -0.836,1.117 -0.16,0.203 c -0.343,0.488 -0.285,0.902 0.202,1.249 l 1.444,1.062 c 0.392,0.313 0.768,0.309 1.097,-0.015 m 0,10e-4 c 0.005,0.273 -0.014,0.57 -0.074,0.877 l -0.535,2.658 c -0.283,1.43 -0.983,1.785 -2.085,1.061 -0.758,-0.482 -1.386,-1.123 -1.886,-1.925 l -2.024,-1.28 c -1.265,-0.794 -1.229,-1.544 0.12,-2.224 l 2.442,-1.232 c 0.499,-0.24 0.98,-0.392 1.46,-0.435 m 3.972,0.662 c -0.014,0.005 -0.014,0.005 -0.025,0.021 l -1.222,1.646 c -0.056,0.059 -0.1,0.114 -0.142,0.17"
         id="path659" />
      <path
         inkscape:connector-curvature="0"
         style="fill:#9dc517"
         d="m 530.941,562.032 1.805,2.049 c 0.359,0.41 0.625,0.841 0.781,1.291 l -0.377,-0.153 c -0.557,-0.224 -0.945,-0.057 -1.186,0.488 l -0.67,1.651 c -0.213,0.539 -0.051,0.914 0.469,1.162 -0.287,0.064 -0.582,0.104 -0.895,0.118 l -2.697,0.172 c -1.357,0.073 -1.834,-0.488 -1.441,-1.688 0.254,-0.812 0.684,-1.609 1.293,-2.391 l 0.764,-2.302 c 0.463,-1.408 1.182,-1.534 2.154,-0.397 l 0,0 z"
         id="path661" />
      <path
         inkscape:connector-curvature="0"
         style="fill:#9dc517"
         d="m 531.295,567.358 0.67,-1.651 c 0.24,-0.545 0.629,-0.712 1.186,-0.488 l 0.377,0.153 1.291,0.526 0.244,0.091 c 0.545,0.242 0.711,0.628 0.471,1.175 l -0.684,1.655 c -0.172,0.473 -0.498,0.661 -0.947,0.556 -0.062,-0.025 -0.131,-0.053 -0.207,-0.073 l -1.9,-0.776 c -0.018,-0.009 -0.018,-0.009 -0.031,-0.005 -0.521,-0.249 -0.683,-0.624 -0.47,-1.163 l 0,0 z"
         id="path663" />
      <path
         inkscape:connector-curvature="0"
         style="fill:#9dc517"
         d="m 535.062,565.989 -0.244,-0.091 c 0.436,-0.208 0.926,-0.332 1.477,-0.382 l 2.727,-0.209 c 1.506,-0.116 1.926,0.51 1.254,1.842 l -1.072,2.143 c -0.01,0.942 -0.219,1.814 -0.619,2.623 -0.566,1.188 -1.348,1.247 -2.33,0.172 l -1.836,-2.002 c -0.209,-0.231 -0.379,-0.473 -0.516,-0.71 0.449,0.105 0.775,-0.083 0.947,-0.556 l 0.684,-1.655 c 0.239,-0.547 0.073,-0.933 -0.472,-1.175 l 0,0 z"
         id="path665" />
      <path
         inkscape:connector-curvature="0"
         style="fill:none;stroke:#388e36;stroke-width:1.95650005;stroke-linecap:round;stroke-linejoin:round;stroke-miterlimit:10"
         d="m 533.527,565.372 c -0.156,-0.45 -0.422,-0.881 -0.781,-1.291 l -1.805,-2.049 c -0.973,-1.138 -1.691,-1.012 -2.154,0.397 l -0.764,2.302 c -0.609,0.781 -1.039,1.579 -1.293,2.391 -0.393,1.196 0.084,1.762 1.441,1.688 l 2.697,-0.172 c 0.312,-0.014 0.607,-0.054 0.895,-0.118 m 10e-4,10e-4 c -0.52,-0.248 -0.682,-0.623 -0.469,-1.162 l 0.67,-1.651 c 0.24,-0.545 0.629,-0.712 1.186,-0.488 l 0.377,0.153 m 1.29,0.525 -1.291,-0.526 m 1.291,0.526 0.244,0.091 c 0.545,0.242 0.711,0.628 0.471,1.175 l -0.684,1.655 c -0.172,0.473 -0.498,0.661 -0.947,0.556 m 0,0 c 0.137,0.237 0.307,0.479 0.516,0.71 l 1.836,2.002 c 0.982,1.075 1.764,1.015 2.33,-0.172 0.4,-0.809 0.609,-1.681 0.619,-2.623 l 1.072,-2.143 c 0.672,-1.332 0.252,-1.958 -1.254,-1.842 l -2.727,0.209 c -0.551,0.05 -1.041,0.174 -1.477,0.382 m -3.053,2.623 c 0.014,-0.004 0.014,-0.004 0.031,0.005 l 1.9,0.776 c 0.076,0.023 0.145,0.048 0.207,0.073"
         id="path667" />
      <path
         inkscape:connector-curvature="0"
         style="fill:#82110c"
         d="m 523.359,593.203 c -4.32,4.41 -10.408,8.457 -18.27,12.116 -4.467,2.086 -8.994,3.769 -13.582,5.049 -4.604,1.282 -9.348,2.184 -14.25,2.71 -8.62,0.937 -15.925,0.623 -21.905,-0.916 12.666,4.608 25.016,5.097 37.04,1.498 12.184,-3.149 22.499,-9.957 30.967,-20.457 l 0,0 z"
         id="path669" />
      <path
         inkscape:connector-curvature="0"
         style="fill:#ffffff"
         d="m 444.376,563.2 0.005,0.013 c -2.923,4.98 -3.625,10.212 -2.097,15.69 1.527,5.479 4.836,9.59 9.908,12.325 l 0.015,-0.002 c 5.071,2.78 10.432,3.377 16.101,1.794 5.641,-1.57 9.917,-4.853 12.834,-9.857 0.75,-1.269 1.348,-2.555 1.803,-3.842 l -6.08,-21.796 c -1.059,-0.88 -2.238,-1.682 -3.537,-2.38 l -0.004,-0.015 c -5.075,-2.75 -10.431,-3.33 -16.073,-1.755 -5.671,1.577 -9.953,4.847 -12.875,9.825 l 0,0 z"
         id="path671" />
      <path
         inkscape:connector-curvature="0"
         style="fill:#ffffff"
         d="m 478.574,553.668 0.004,0.013 c -0.734,1.266 -1.332,2.562 -1.795,3.865 l 6.078,21.799 c 1.068,0.861 2.248,1.653 3.529,2.354 5.084,2.775 10.461,3.368 16.102,1.792 5.652,-1.575 9.934,-4.858 12.848,-9.864 l 0.014,-0.004 c 2.924,-4.962 3.613,-10.189 2.086,-15.67 -1.527,-5.479 -4.824,-9.595 -9.9,-12.346 l -0.002,-0.013 c -5.076,-2.749 -10.449,-3.327 -16.104,-1.753 -5.641,1.575 -9.938,4.848 -12.86,9.827 l 0,0 z"
         id="path673" />
      <path
         inkscape:connector-curvature="0"
         d="m 496.857,569.401 c 0.822,-1.984 2.223,-3.375 4.191,-4.171 1.979,-0.812 3.953,-0.812 5.924,0.003 1.982,0.826 3.369,2.21 4.166,4.177 0.809,1.966 0.809,3.938 -0.006,5.906 -0.826,1.987 -2.209,3.373 -4.178,4.169 -1.967,0.81 -3.939,0.81 -5.908,-0.007 -1.979,-0.797 -3.371,-2.193 -4.17,-4.177 -0.821,-1.963 -0.833,-3.931 -0.019,-5.9 l 0,0 z"
         id="path675" />
      <path
         inkscape:connector-curvature="0"
         d="m 477.81,574.492 c -1.731,-1.271 -3.647,-1.738 -5.743,-1.4 -2.115,0.327 -3.803,1.351 -5.065,3.066 -1.272,1.731 -1.744,3.634 -1.407,5.73 0.325,2.101 1.35,3.787 3.064,5.053 1.732,1.272 3.634,1.743 5.73,1.403 2.102,-0.323 3.791,-1.347 5.055,-3.061 1.279,-1.709 1.744,-3.621 1.406,-5.73 -0.313,-2.103 -1.323,-3.799 -3.04,-5.061 l 0,0 z"
         id="path677" />
      <path
         inkscape:connector-curvature="0"
         style="fill:#5fc2cf"
         d="m 478.584,553.683 0.006,0.012 c -0.741,1.254 -1.33,2.52 -1.775,3.79 -1.05,-0.854 -2.208,-1.633 -3.49,-2.32 l -0.004,-0.015 c -5.074,-2.747 -10.432,-3.332 -16.072,-1.757 -5.67,1.578 -9.952,4.85 -12.875,9.824 l 0.004,0.017 c -2.922,4.979 -3.625,10.208 -2.095,15.688 0.01,0.039 0.021,0.083 0.033,0.122 0.008,0.026 0.015,0.052 0.025,0.095 0.013,0.038 0.023,0.081 0.035,0.118 0.407,1.409 0.945,2.713 1.605,3.935 1.819,3.398 4.551,6.075 8.212,8.06 l 0.013,-0.006 c 5.07,2.78 10.432,3.375 16.1,1.796 5.642,-1.572 9.918,-4.856 12.833,-9.859 0.74,-1.252 1.332,-2.507 1.795,-3.767 1.033,0.845 2.189,1.609 3.471,2.297 5.084,2.776 10.445,3.371 16.088,1.797 5.668,-1.577 9.947,-4.86 12.846,-9.864 h 0.014 c 2.105,-3.591 3.059,-7.297 2.857,-11.145 -0.066,-1.388 -0.281,-2.778 -0.664,-4.195 -0.01,-0.044 -0.02,-0.083 -0.031,-0.12 -0.012,-0.041 -0.02,-0.066 -0.029,-0.096 -0.008,-0.041 -0.02,-0.083 -0.031,-0.12 -1.527,-5.481 -4.838,-9.595 -9.914,-12.342 l -0.002,-0.017 c -5.078,-2.747 -10.436,-3.329 -16.102,-1.748 -5.646,1.572 -9.93,4.841 -12.853,9.82 l 0,0 z"
         id="path679" />
      <path
         inkscape:connector-curvature="0"
         style="fill:#ab6514"
         d="m 525.617,561.031 c 1.355,-1.438 1.182,-2.014 -0.533,-1.709 l -7.078,1.363 c 0.264,1.827 0.17,3.783 -0.256,5.847 -0.441,2.067 -1.902,4.112 -4.393,6.155 -2.479,2.041 -6.25,3.922 -11.326,5.642 -3.936,1.343 -7.045,2.107 -9.334,2.281 -2.584,0.257 -5.105,-0.042 -7.594,-0.899 -0.879,-0.292 -1.7,-0.63 -2.461,-1.025 -0.355,0.704 -0.83,1.402 -1.43,2.109 -1.684,2.021 -3.689,3.582 -6.033,4.698 -2.047,1.036 -5.104,1.989 -9.166,2.876 -5.236,1.154 -9.404,1.504 -12.537,1.04 -3.131,-0.462 -5.389,-1.369 -6.771,-2.741 -1.384,-1.369 -2.56,-3.087 -3.524,-5.14 l -6.731,2.5 c -1.625,0.63 -1.475,1.21 0.427,1.738 l 4.36,1.223 -2.561,3.617 c -0.836,1.16 -0.666,1.664 0.509,1.511 l 6.289,-0.765 0.296,3.456 c 0.107,1.175 0.686,1.524 1.722,1.029 l 4.739,-2.363 2.818,3.233 c 0.787,0.897 1.662,0.914 2.652,0.044 l 4.352,-3.912 4.417,2.466 c 0.908,0.501 1.654,0.369 2.254,-0.396 l 3.471,-4.361 3.941,2.063 c 0.803,0.429 1.407,0.305 1.805,-0.399 l 2.057,-5.321 c 0.752,-0.586 1.477,-1.21 2.166,-1.862 0.611,-0.563 1.184,-1.221 1.734,-1.951 0.918,0.327 1.773,0.58 2.588,0.743 0.926,0.207 1.869,0.365 2.816,0.479 l 4.512,3.487 c 0.707,0.396 1.287,0.192 1.752,-0.591 l 2.303,-3.806 5.229,1.939 c 0.912,0.342 1.617,0.07 2.137,-0.829 l 2.502,-4.396 5.748,1.096 c 1.297,0.232 2.037,-0.231 2.246,-1.408 l 0.738,-4.225 5.281,-0.429 c 1.143,-0.116 1.455,-0.711 0.939,-1.771 l -1.533,-3.112 5.775,-2.596 c 1.084,-0.477 0.969,-0.999 -0.348,-1.559 l -4.062,-1.769 3.096,-3.3 0,0 z"
         id="path681" />
      <polygon
         style="fill:#ab6514"
         points="482.73,578.689 482.711,578.679 482.715,578.693 482.73,578.689 "
         id="polygon683" />
      <path
         inkscape:connector-curvature="0"
         style="fill:#e7467d"
         d="m 493.551,583.106 c -0.467,-1.685 -1.758,-2.875 -3.873,-3.593 -2.076,-0.727 -4.359,-0.741 -6.852,-0.049 -2.502,0.698 -4.461,1.897 -5.887,3.601 -1.413,1.699 -1.886,3.383 -1.418,5.067 0.479,1.707 1.758,2.917 3.842,3.628 2.107,0.733 4.402,0.748 6.908,0.05 2.49,-0.694 4.436,-1.888 5.832,-3.601 1.44,-1.688 1.924,-3.393 1.448,-5.103 l 0,0 z"
         id="path685" />
      <path
         inkscape:connector-curvature="0"
         style="fill:#f18900"
         d="m 511.062,627.291 c -7.814,-1.653 -15.479,-1.299 -23.01,1.05 l 0.59,12.68 4.479,3.668 14.619,-0.68 3.914,-4.003 -0.592,-12.715 0,0 z"
         id="path687" />
      <path
         inkscape:connector-curvature="0"
         style="fill:#fbe000"
         d="m 483.08,633.504 c -0.082,-0.104 -0.168,-0.172 -0.232,-0.207 -0.26,-0.146 -0.445,-0.006 -0.551,0.406 l -0.611,2.19 -2.427,1.002 c -0.478,0.212 -0.548,0.454 -0.228,0.713 0.04,0.025 0.082,0.059 0.123,0.092 l 0.23,0.15 c 0.014,0.021 0.041,0.033 0.068,0.059 0.092,0.056 0.198,0.118 0.295,0.192 0.307,0.199 0.605,0.41 0.916,0.628 0.039,0.035 0.096,0.066 0.144,0.089 l 0.447,0.305 0.228,2.306 c -0.01,0.225 0.021,0.384 0.09,0.477 0.113,0.092 0.305,0.064 0.574,-0.104 l 2.188,-1.75 0.035,0.002 c 0.453,0.08 0.896,0.165 1.352,0.248 l 1.229,0.203 0.162,0.029 c 0.504,0.024 0.646,-0.203 0.408,-0.663 l -0.98,-2.165 1.16,-2.252 c 0.139,-0.247 0.17,-0.423 0.088,-0.522 -0.09,-0.089 -0.266,-0.12 -0.514,-0.104 l -2.609,0.296 -0.043,-0.032 -1.542,-1.588 0,0 z"
         id="path689" />
      <path
         inkscape:connector-curvature="0"
         style="fill:#fbe000"
         d="m 487.078,640.53 c 0.014,0.006 0.023,0.004 0.033,0.004 l -0.162,-0.029 0.129,0.025 0,0 z"
         id="path691" />
      <path
         inkscape:connector-curvature="0"
         style="fill:none;stroke:#6b7d27;stroke-width:1.50450003;stroke-linecap:round;stroke-linejoin:round;stroke-miterlimit:10"
         d="m 483.08,633.504 1.541,1.588 0.043,0.032 2.609,-0.296 c 0.25,-0.017 0.424,0.015 0.514,0.104 0.082,0.1 0.051,0.275 -0.088,0.522 l -1.16,2.252 0.98,2.165 c 0.238,0.46 0.096,0.688 -0.408,0.663 l -0.162,-0.029 -1.229,-0.203 c -0.455,-0.083 -0.898,-0.168 -1.352,-0.248 l -0.035,-0.002 -2.188,1.75 c -0.27,0.168 -0.461,0.195 -0.574,0.104 -0.068,-0.093 -0.1,-0.252 -0.09,-0.477 l -0.228,-2.306 -0.447,-0.305 c -0.048,-0.022 -0.104,-0.054 -0.144,-0.089 -0.311,-0.218 -0.609,-0.429 -0.916,-0.628 -0.097,-0.074 -0.203,-0.137 -0.295,-0.192 -0.027,-0.025 -0.055,-0.037 -0.068,-0.059 l -0.23,-0.15 c -0.041,-0.033 -0.083,-0.066 -0.123,-0.092 -0.32,-0.259 -0.25,-0.501 0.228,-0.713 l 2.427,-1.002 0.611,-2.19 c 0.105,-0.412 0.291,-0.553 0.551,-0.406 0.065,0.035 0.151,0.103 0.233,0.207 l 0,0 z"
         id="path693" />
      <path
         inkscape:connector-curvature="0"
         style="fill:#fbe000"
         d="m 517.291,631.928 c 0.072,-0.105 0.148,-0.181 0.211,-0.228 0.244,-0.168 0.443,-0.048 0.584,0.358 l 0.814,2.119 2.51,0.774 c 0.496,0.166 0.588,0.4 0.291,0.688 -0.035,0.028 -0.076,0.063 -0.115,0.102 l -0.211,0.174 c -0.016,0.019 -0.039,0.037 -0.066,0.066 -0.086,0.062 -0.184,0.135 -0.273,0.218 -0.287,0.224 -0.564,0.464 -0.855,0.71 -0.037,0.04 -0.088,0.073 -0.135,0.098 l -0.416,0.346 -0.012,2.318 c 0.029,0.222 0.012,0.384 -0.045,0.483 -0.104,0.102 -0.299,0.091 -0.58,-0.052 l -2.344,-1.542 -0.033,0.009 c -0.445,0.124 -0.877,0.25 -1.322,0.375 l -1.207,0.316 -0.156,0.04 c -0.504,0.072 -0.664,-0.14 -0.469,-0.618 l 0.777,-2.25 -1.365,-2.134 c -0.16,-0.234 -0.207,-0.406 -0.137,-0.514 0.08,-0.096 0.254,-0.146 0.502,-0.149 l 2.627,0.054 0.039,-0.037 1.386,-1.724 0,0 z"
         id="path695" />
      <path
         inkscape:connector-curvature="0"
         style="fill:#fbe000"
         d="m 513.963,639.297 c -0.012,0.007 -0.023,0.007 -0.033,0.005 l 0.156,-0.04 -0.123,0.035 0,0 z"
         id="path697" />
      <path
         inkscape:connector-curvature="0"
         style="fill:none;stroke:#6b7d27;stroke-width:1.50440001;stroke-linecap:round;stroke-linejoin:round;stroke-miterlimit:10"
         d="m 517.291,631.928 -1.387,1.726 -0.039,0.037 -2.627,-0.054 c -0.248,0.004 -0.422,0.054 -0.502,0.149 -0.07,0.107 -0.023,0.281 0.137,0.514 l 1.365,2.134 -0.777,2.25 c -0.195,0.479 -0.035,0.69 0.469,0.618 l 0.156,-0.04 1.207,-0.316 c 0.443,-0.125 0.877,-0.251 1.322,-0.375 l 0.033,-0.007 2.344,1.542 c 0.281,0.141 0.477,0.151 0.58,0.05 0.057,-0.1 0.074,-0.262 0.045,-0.483 l 0.012,-2.316 0.416,-0.348 c 0.047,-0.024 0.098,-0.058 0.135,-0.098 0.289,-0.246 0.568,-0.486 0.855,-0.71 0.09,-0.083 0.188,-0.156 0.273,-0.218 0.027,-0.029 0.051,-0.048 0.066,-0.066 l 0.211,-0.174 c 0.039,-0.038 0.08,-0.073 0.113,-0.1 0.299,-0.29 0.207,-0.524 -0.289,-0.69 l -2.51,-0.774 -0.814,-2.119 c -0.141,-0.406 -0.34,-0.526 -0.584,-0.356 -0.062,0.043 -0.138,0.118 -0.21,0.224 l 0,0 z"
         id="path699" />
      <path
         inkscape:connector-curvature="0"
         style="fill:#ce2120"
         d="m 490.473,639.943 c -0.037,-0.769 -0.332,-1.413 -0.889,-1.931 -0.568,-0.506 -1.252,-0.739 -2.018,-0.704 -0.768,0.035 -1.398,0.329 -1.904,0.884 -0.533,0.57 -0.783,1.241 -0.746,2.008 0.037,0.794 0.348,1.453 0.93,1.943 0.557,0.535 1.211,0.785 1.979,0.75 0.77,-0.037 1.428,-0.348 1.943,-0.93 0.507,-0.54 0.742,-1.224 0.705,-2.02 l 0,0 z"
         id="path701" />
      <path
         inkscape:connector-curvature="0"
         style="fill:none;stroke:#921113;stroke-width:1.95669997;stroke-linecap:round;stroke-linejoin:round;stroke-miterlimit:10"
         d="m 490.473,639.943 c 0.037,0.796 -0.197,1.479 -0.705,2.021 -0.516,0.582 -1.174,0.893 -1.943,0.93 -0.768,0.035 -1.422,-0.215 -1.979,-0.75 -0.582,-0.49 -0.893,-1.149 -0.93,-1.943 -0.037,-0.767 0.213,-1.438 0.746,-2.008 0.506,-0.555 1.137,-0.849 1.904,-0.884 0.766,-0.035 1.449,0.198 2.018,0.704 0.557,0.517 0.852,1.162 0.889,1.93 l 0,0 z"
         id="path703" />
      <path
         inkscape:connector-curvature="0"
         style="fill:#ce2120"
         d="m 515.982,638.757 c -0.037,-0.767 -0.332,-1.413 -0.891,-1.932 -0.57,-0.505 -1.25,-0.739 -2.018,-0.704 -0.768,0.037 -1.398,0.331 -1.904,0.885 -0.533,0.571 -0.783,1.241 -0.746,2.008 0.037,0.797 0.346,1.454 0.932,1.943 0.555,0.536 1.209,0.785 1.979,0.748 0.768,-0.036 1.422,-0.345 1.943,-0.929 0.506,-0.541 0.741,-1.224 0.705,-2.019 l 0,0 z"
         id="path705" />
      <path
         inkscape:connector-curvature="0"
         style="fill:none;stroke:#921113;stroke-width:1.95669997;stroke-linecap:round;stroke-linejoin:round;stroke-miterlimit:10"
         d="m 515.982,638.757 c 0.035,0.795 -0.197,1.479 -0.705,2.02 -0.521,0.584 -1.176,0.893 -1.943,0.929 -0.77,0.037 -1.424,-0.212 -1.979,-0.748 -0.586,-0.489 -0.895,-1.146 -0.932,-1.943 -0.037,-0.767 0.213,-1.437 0.746,-2.008 0.506,-0.554 1.137,-0.848 1.904,-0.885 0.768,-0.035 1.447,0.199 2.018,0.704 0.559,0.518 0.854,1.164 0.891,1.931 l 0,0 z"
         id="path707" />
      <path
         inkscape:connector-curvature="0"
         style="fill:#6f53a0"
         d="m 495.514,642.138 c -0.033,-0.767 -0.33,-1.411 -0.887,-1.929 -0.568,-0.508 -1.252,-0.742 -2.02,-0.705 -0.768,0.033 -1.398,0.33 -1.902,0.883 -0.535,0.57 -0.783,1.241 -0.748,2.008 0.039,0.796 0.348,1.454 0.93,1.943 0.555,0.534 1.213,0.785 1.98,0.75 0.767,-0.035 1.426,-0.344 1.945,-0.931 0.504,-0.538 0.739,-1.223 0.702,-2.019 l 0,0 z"
         id="path709" />
      <path
         inkscape:connector-curvature="0"
         style="fill:none;stroke:#352082;stroke-width:1.95669997;stroke-linecap:round;stroke-linejoin:round;stroke-miterlimit:10"
         d="m 495.514,642.138 c 0.037,0.796 -0.197,1.481 -0.701,2.02 -0.52,0.587 -1.178,0.896 -1.945,0.931 -0.767,0.035 -1.426,-0.216 -1.98,-0.75 -0.582,-0.489 -0.891,-1.147 -0.93,-1.943 -0.035,-0.767 0.213,-1.438 0.748,-2.008 0.504,-0.553 1.135,-0.85 1.902,-0.883 0.768,-0.037 1.451,0.197 2.02,0.705 0.556,0.517 0.852,1.161 0.886,1.928 l 0,0 z"
         id="path711" />
      <path
         inkscape:connector-curvature="0"
         style="fill:#9dc517"
         d="m 510.348,639.494 c -0.57,-0.506 -1.252,-0.74 -2.021,-0.702 -0.768,0.035 -1.398,0.329 -1.904,0.885 -0.533,0.569 -0.781,1.24 -0.744,2.005 0.037,0.798 0.346,1.457 0.93,1.945 0.559,0.535 1.213,0.783 1.98,0.75 0.768,-0.037 1.426,-0.348 1.943,-0.93 0.506,-0.545 0.74,-1.225 0.703,-2.021 -0.036,-0.77 -0.335,-1.412 -0.887,-1.932 l 0,0 z"
         id="path713" />
      <path
         inkscape:connector-curvature="0"
         style="fill:none;stroke:#388e36;stroke-width:1.95669997;stroke-linecap:round;stroke-linejoin:round;stroke-miterlimit:10"
         d="m 510.348,639.494 c 0.553,0.52 0.852,1.162 0.887,1.933 0.037,0.796 -0.197,1.476 -0.703,2.021 -0.518,0.582 -1.176,0.893 -1.943,0.93 -0.768,0.033 -1.422,-0.215 -1.98,-0.75 -0.584,-0.488 -0.893,-1.147 -0.93,-1.945 -0.037,-0.765 0.211,-1.436 0.744,-2.005 0.506,-0.556 1.137,-0.85 1.904,-0.885 0.769,-0.039 1.45,0.195 2.021,0.701 l 0,0 z"
         id="path715" />
      <path
         inkscape:connector-curvature="0"
         style="fill:#fbe000"
         d="m 500.957,639.637 c -0.076,-0.149 -0.164,-0.259 -0.238,-0.325 -0.291,-0.251 -0.566,-0.124 -0.809,0.375 l -1.361,2.621 -3.354,0.632 c -0.668,0.143 -0.822,0.431 -0.482,0.85 0.045,0.039 0.09,0.093 0.135,0.146 l 0.25,0.253 c 0.016,0.031 0.045,0.057 0.074,0.098 0.102,0.091 0.219,0.199 0.324,0.319 0.336,0.333 0.66,0.684 0.998,1.044 0.045,0.054 0.104,0.107 0.16,0.147 l 0.488,0.51 -0.324,2.993 c -0.07,0.284 -0.074,0.497 -0.014,0.632 0.119,0.149 0.373,0.164 0.758,0.023 l 3.254,-1.649 0.041,0.01 c 0.557,0.227 1.1,0.452 1.654,0.68 l 1.514,0.587 0.197,0.074 c 0.639,0.166 0.877,-0.081 0.693,-0.731 l -0.672,-3.021 2.076,-2.559 c 0.24,-0.275 0.328,-0.489 0.252,-0.641 -0.09,-0.135 -0.305,-0.224 -0.629,-0.263 l -3.4,-0.319 -0.045,-0.054 -1.54,-2.432 0,0 z"
         id="path717" />
      <path
         inkscape:connector-curvature="0"
         style="fill:#fbe000"
         d="m 504.18,649.646 c 0.018,0.012 0.029,0.012 0.043,0.01 l -0.197,-0.074 0.154,0.064 0,0 z"
         id="path719" />
      <path
         inkscape:connector-curvature="0"
         style="fill:none;stroke:#6b7d27;stroke-width:1.95669997;stroke-linecap:round;stroke-linejoin:round;stroke-miterlimit:10"
         d="m 500.957,639.637 1.541,2.433 0.045,0.054 3.4,0.319 c 0.324,0.039 0.539,0.128 0.629,0.263 0.076,0.151 -0.012,0.365 -0.252,0.641 l -2.076,2.559 0.672,3.021 c 0.184,0.65 -0.055,0.897 -0.693,0.731 l -0.197,-0.074 -1.514,-0.587 c -0.555,-0.228 -1.098,-0.453 -1.654,-0.68 l -0.041,-0.01 -3.254,1.649 c -0.385,0.141 -0.639,0.126 -0.758,-0.023 -0.061,-0.135 -0.057,-0.348 0.014,-0.632 l 0.324,-2.993 -0.488,-0.51 c -0.057,-0.04 -0.115,-0.094 -0.16,-0.147 -0.338,-0.36 -0.662,-0.711 -0.998,-1.044 -0.105,-0.12 -0.223,-0.229 -0.324,-0.319 -0.029,-0.041 -0.059,-0.066 -0.074,-0.098 l -0.25,-0.253 c -0.045,-0.054 -0.09,-0.107 -0.135,-0.146 -0.34,-0.419 -0.186,-0.707 0.482,-0.85 l 3.355,-0.632 1.359,-2.621 c 0.242,-0.499 0.518,-0.626 0.809,-0.375 0.074,0.066 0.162,0.176 0.24,0.325 h -0.002 z"
         id="path721" />
      <path
         inkscape:connector-curvature="0"
         style="fill:#d04215"
         d="m 529.447,616.256 c -1.287,-0.619 -2.166,-1.593 -2.641,-2.913 -0.281,-1.524 0.314,-2.637 1.777,-3.304 1.531,-0.68 3.297,-0.713 5.316,-0.079 -0.201,0.56 -0.301,1.156 -0.336,1.788 l 1.088,-0.096 c 0.834,-1.245 2.043,-2.422 3.613,-3.543 1.281,-3.296 1.668,-6.176 1.168,-8.612 -0.41,-1.616 -0.02,-2.819 1.182,-3.643 0.938,-0.53 1.93,-0.403 2.969,0.417 -0.441,0.847 -0.689,1.938 -0.748,3.288 0.131,3.484 -0.053,6.253 -0.592,8.289 l 0.822,0.759 c 1.195,-2.401 1.779,-5.397 1.777,-8.968 -0.039,-2.337 0.883,-3.431 2.748,-3.273 1.156,0.054 1.98,0.752 2.482,2.085 -1.137,0.082 -2.02,0.392 -2.67,0.92 -0.662,0.538 -1.086,1.386 -1.287,2.562 -0.201,1.181 -0.078,2.277 0.365,3.263 0.533,1.341 0.639,2.46 0.322,3.319 -3.232,2.387 -4.215,4.991 -2.924,7.83 l 0.438,1.183 0.977,0.085 c -0.375,-0.972 -0.432,-2.056 -0.17,-3.255 0.084,-1.142 1.227,-2.488 3.438,-4.049 l 0.311,-0.219 0.125,-0.297 c 0.939,-1.96 0.691,-3.789 -0.711,-5.478 -0.65,-0.957 -0.643,-1.934 0.051,-2.926 1.084,-1.021 2.389,-1.055 3.867,-0.095 1.523,1.646 2.09,4.174 1.703,7.597 -0.012,0.011 -0.002,0.021 -0.002,0.04 -0.939,6.25 -3.215,10.829 -6.814,13.72 0.182,0.656 0.311,1.131 0.383,1.469 5.533,-3.839 8.4,-9.369 8.572,-16.583 -0.125,-4.339 -1.285,-7.343 -3.479,-8.985 -0.701,-2.323 -1.953,-3.709 -3.777,-4.145 -0.885,-0.213 -2.021,-0.07 -3.395,0.415 -1.662,-1.478 -3.539,-1.782 -5.646,-0.899 -1.734,0.872 -2.568,2.479 -2.5,4.829 0.424,3.243 0.254,5.762 -0.502,7.571 -0.584,0.422 -1.086,0.884 -1.51,1.386 -1.488,-0.464 -2.787,-0.688 -3.91,-0.674 -1.125,0.017 -2.203,0.222 -3.266,0.604 -2.561,1.177 -3.664,3.048 -3.322,5.598 0.412,2.427 1.742,4.256 3.994,5.501 l 3.285,-0.466 c 0.617,0.104 1.355,0.65 2.201,1.653 0.693,0.822 1.531,1.72 2.516,2.687 0.363,-0.327 0.816,-0.743 1.369,-1.232 -0.928,-0.909 -1.84,-2.043 -2.738,-3.384 -0.889,-1.367 -1.65,-2.104 -2.281,-2.195 -0.658,-0.083 -0.955,-0.11 -0.875,-0.087 l -2.763,0.542 0,0 z"
         id="path723" />
      <path
         inkscape:connector-curvature="0"
         style="fill:#f18900"
         d="m 526.807,613.343 c 0.475,1.32 1.354,2.294 2.641,2.913 l 2.764,-0.542 c -0.08,-0.023 0.217,0.004 0.875,0.087 0.631,0.091 1.393,0.828 2.281,2.195 0.898,1.341 1.811,2.475 2.738,3.384 0.947,0.889 2.084,1.707 3.408,2.466 1.893,0.041 3.754,-0.354 5.578,-1.193 3.6,-2.891 5.875,-7.47 6.814,-13.72 0,-0.019 -0.01,-0.029 0.002,-0.04 0.387,-3.423 -0.18,-5.95 -1.703,-7.597 -1.479,-0.96 -2.783,-0.927 -3.867,0.095 -0.693,0.992 -0.701,1.969 -0.051,2.926 1.402,1.688 1.65,3.518 0.711,5.478 l -0.125,0.297 -0.311,0.219 c -2.211,1.561 -3.354,2.907 -3.438,4.049 -0.262,1.199 -0.205,2.283 0.168,3.255 l -0.975,-0.085 -0.438,-1.183 c -1.291,-2.839 -0.309,-5.443 2.924,-7.83 0.316,-0.859 0.211,-1.979 -0.322,-3.319 -0.443,-0.985 -0.566,-2.082 -0.365,-3.263 0.201,-1.177 0.625,-2.024 1.287,-2.562 0.65,-0.528 1.533,-0.838 2.67,-0.92 -0.502,-1.333 -1.326,-2.031 -2.482,-2.085 -1.865,-0.157 -2.789,0.937 -2.748,3.273 0.002,3.57 -0.582,6.566 -1.777,8.968 l -0.822,-0.759 c 0.539,-2.036 0.723,-4.805 0.592,-8.289 0.059,-1.35 0.305,-2.441 0.748,-3.288 -1.039,-0.82 -2.031,-0.947 -2.969,-0.417 -1.201,0.823 -1.592,2.026 -1.182,3.643 0.5,2.437 0.113,5.316 -1.168,8.612 -1.57,1.121 -2.779,2.298 -3.613,3.543 l -1.088,0.096 c 0.035,-0.632 0.135,-1.229 0.336,-1.788 -2.02,-0.634 -3.785,-0.601 -5.316,0.079 -1.463,0.665 -2.059,1.777 -1.777,3.302 l 0,0 z"
         id="path725" />
    </g>
  </g>
</svg>
