<?xml version="1.0" encoding="UTF-8" standalone="no"?>
<!-- Created with Inkscape (http://www.inkscape.org/) -->

<svg
   xmlns:dc="http://purl.org/dc/elements/1.1/"
   xmlns:cc="http://creativecommons.org/ns#"
   xmlns:rdf="http://www.w3.org/1999/02/22-rdf-syntax-ns#"
   xmlns:svg="http://www.w3.org/2000/svg"
   xmlns="http://www.w3.org/2000/svg"
   xmlns:sodipodi="http://sodipodi.sourceforge.net/DTD/sodipodi-0.dtd"
   xmlns:inkscape="http://www.inkscape.org/namespaces/inkscape"
   width="191.08427"
   height="174.13911"
   id="svg5696"
   version="1.1"
   inkscape:version="0.48.4 r9939"
   sodipodi:docname="zoe3.svg">
  <defs
     id="defs5698">
    <clipPath
       id="SVGID_2_">
      <rect
         height="88.862999"
         width="111.498"
         y="518.96198"
         x="382.04999"
         id="use1087" />
    </clipPath>
    <clipPath
       id="SVGID_4_">
      <rect
         height="41.314999"
         width="49.584999"
         y="525.19397"
         x="389.84698"
         id="use1111" />
    </clipPath>
  </defs>
  <sodipodi:namedview
     id="base"
     pagecolor="#ffffff"
     bordercolor="#666666"
     borderopacity="1.0"
     inkscape:pageopacity="0.0"
     inkscape:pageshadow="2"
     inkscape:zoom="0.77472527"
     inkscape:cx="7.6455074"
     inkscape:cy="144.16276"
     inkscape:current-layer="layer1"
     inkscape:document-units="px"
     showgrid="false"
     inkscape:window-width="763"
     inkscape:window-height="591"
     inkscape:window-x="592"
     inkscape:window-y="97"
     inkscape:window-maximized="0"
     fit-margin-top="0"
     fit-margin-left="0"
     fit-margin-right="0"
     fit-margin-bottom="0" />
  <metadata
     id="metadata5701">
    <rdf:RDF>
      <cc:Work
         rdf:about="">
        <dc:format>image/svg+xml</dc:format>
        <dc:type
           rdf:resource="http://purl.org/dc/dcmitype/StillImage" />
        <dc:title></dc:title>
      </cc:Work>
    </rdf:RDF>
  </metadata>
  <g
     id="layer1"
     inkscape:label="Layer 1"
     inkscape:groupmode="layer"
     transform="translate(-310.29779,-55.13001)">
    <g
       transform="translate(-464.95221,4.2878465)"
       id="g439">
      <path
         inkscape:connector-curvature="0"
         style="fill:#eda1c1"
         d="m 893.223,185.769 c -0.014,0.061 -0.049,0.347 -0.113,0.874 -1.936,4.87 -2.045,8.915 -0.352,12.153 0.59,1.147 1.404,2.167 2.451,3.062 1.383,1.226 3.311,2.204 5.787,2.949 0.26,3.738 -0.91,6.104 -3.496,7.091 -1.082,0.43 -2.424,0.586 -4.008,0.475 -0.045,-0.003 -0.074,-0.012 -0.121,-0.014 -1.285,-0.473 -2.506,-1.047 -3.664,-1.726 -3.947,-2.329 -6.4,-5.333 -7.342,-9.012 -1.059,-4.151 -0.18,-8.988 2.633,-14.516 2.736,-0.454 5.471,-0.893 8.225,-1.336 l 0,0 z"
         id="path441" />
      <path
         inkscape:connector-curvature="0"
         style="fill:none;stroke:#df5d91;stroke-width:2.55150008;stroke-linecap:round;stroke-miterlimit:10"
         d="m 893.109,186.642 c -1.936,4.87 -2.045,8.915 -0.352,12.153 0.59,1.147 1.404,2.167 2.451,3.062 1.383,1.226 3.311,2.204 5.787,2.949 0.26,3.738 -0.91,6.104 -3.496,7.091 -1.082,0.43 -2.424,0.586 -4.008,0.475 -0.045,-0.003 -0.074,-0.012 -0.121,-0.014 -1.285,-0.473 -2.506,-1.047 -3.664,-1.726 -3.947,-2.329 -6.4,-5.333 -7.342,-9.012 -1.059,-4.151 -0.18,-8.988 2.633,-14.516 2.736,-0.454 5.471,-0.892 8.225,-1.336 -0.013,0.062 -0.048,0.347 -0.113,0.874 l 0,0 z"
         id="path443" />
      <path
         inkscape:connector-curvature="0"
         style="fill:#eda1c1"
         d="m 885.037,213 c -1.084,-2.733 -2.846,-5.023 -5.322,-6.853 2.334,-0.101 4.18,0.027 5.531,0.4 1.941,1.63 3.355,3.392 4.227,5.292 l -4.436,1.161 0,0 z"
         id="path445" />
      <path
         inkscape:connector-curvature="0"
         style="fill:#df5d91"
         d="m 879.715,206.147 c 2.477,1.83 4.238,4.12 5.322,6.853 l 4.436,-1.161 c -0.871,-1.901 -2.285,-3.662 -4.227,-5.292 l 0.059,0.042 5.293,-2.105 c 2.234,2.078 4.168,3.264 5.803,3.565 l 5.797,-2.933 c 2.65,2.203 3.564,4.951 2.736,8.229 -6.324,4.908 -12.215,8.286 -17.654,10.13 -6.162,0.457 -10.99,0.215 -14.508,-0.715 -1.824,-0.486 -3.209,-1.288 -4.127,-2.389 -1.004,-1.201 -1.441,-2.72 -1.324,-4.55 0.115,-1.847 0.736,-3.508 1.859,-4.982 1.068,-1.4 2.498,-2.532 4.299,-3.407 1.806,-0.785 3.876,-1.214 6.236,-1.285 l 0,0 z"
         id="path447" />
      <path
         inkscape:connector-curvature="0"
         style="fill:none;stroke:#970f45;stroke-width:2.54399991;stroke-linecap:round;stroke-miterlimit:10"
         d="m 879.715,206.147 c 2.477,1.83 4.238,4.12 5.322,6.853 l 4.436,-1.161 c -0.871,-1.901 -2.285,-3.662 -4.227,-5.292 -1.351,-0.372 -3.197,-0.5 -5.531,-0.4 l 0,0 z m 5.59,0.443 5.293,-2.105 c 2.234,2.078 4.168,3.264 5.803,3.565 l 5.797,-2.933 c 2.65,2.203 3.564,4.951 2.736,8.229 -6.324,4.908 -12.215,8.286 -17.654,10.13 -6.162,0.457 -10.99,0.215 -14.508,-0.715 -1.824,-0.486 -3.209,-1.288 -4.127,-2.389 -1.004,-1.201 -1.441,-2.72 -1.324,-4.55 0.115,-1.847 0.736,-3.508 1.859,-4.982 1.068,-1.4 2.498,-2.532 4.299,-3.407 1.807,-0.784 3.877,-1.214 6.236,-1.284"
         id="path449" />
      <path
         inkscape:connector-curvature="0"
         style="fill:#eda1c1"
         d="m 912.35,171.941 -3.029,8.067 25.621,15.498 c 4.338,-3.104 5.467,-6.745 3.375,-10.956 l -25.967,-12.609 0,0 z"
         id="path451" />
      <path
         inkscape:connector-curvature="0"
         style="fill:none;stroke:#df5d91;stroke-width:2.58319998;stroke-linecap:round;stroke-miterlimit:10"
         d="m 909.32,180.008 25.621,15.5 c 4.338,-3.106 5.467,-6.747 3.375,-10.958 l -25.967,-12.609 -3.029,8.067 0,0 z"
         id="path453" />
      <path
         inkscape:connector-curvature="0"
         style="fill:#df5d91"
         d="m 957.15,179.178 c -1.594,-0.112 -3.332,-0.016 -5.24,0.325 -1.326,2.582 -2.297,5.269 -2.889,8.035 L 944.074,189 c 0.4,-1.892 0.988,-3.736 1.754,-5.556 0.252,-0.613 0.654,-1.505 1.225,-2.688 -2.891,0.915 -5.771,2.045 -8.639,3.401 -0.928,2.227 -1.664,4.605 -2.227,7.17 l -6.814,2.013 c 0.32,2.631 0.652,5.426 1.008,8.376 15.359,-2.046 25.09,-4.294 29.18,-6.738 4.1,-2.478 5.91,-5.634 5.416,-9.499 -0.493,-3.862 -3.106,-5.967 -7.827,-6.301 l 0,0 z"
         id="path455" />
      <path
         inkscape:connector-curvature="0"
         style="fill:#eda1c1"
         d="m 951.91,179.503 c -1.654,0.339 -3.266,0.754 -4.857,1.254 -0.57,1.183 -0.973,2.075 -1.225,2.688 -0.766,1.82 -1.354,3.664 -1.754,5.553 l 4.947,-1.46 c 0.592,-2.766 1.563,-5.453 2.889,-8.035 l 0,0 z"
         id="path457" />
      <path
         inkscape:connector-curvature="0"
         style="fill:none;stroke:#970f45;stroke-width:2.59570003;stroke-linecap:round;stroke-miterlimit:10"
         d="m 947.053,180.758 c -2.891,0.915 -5.771,2.045 -8.639,3.401 -0.928,2.227 -1.664,4.605 -2.227,7.17 l -6.814,2.013 c 0.32,2.631 0.652,5.426 1.008,8.376 15.359,-2.046 25.09,-4.294 29.18,-6.738 4.1,-2.478 5.91,-5.634 5.416,-9.499 -0.492,-3.864 -3.105,-5.969 -7.826,-6.303 -1.594,-0.112 -3.332,-0.016 -5.24,0.325 m -4.858,1.255 c 1.592,-0.5 3.203,-0.916 4.857,-1.254 m 0,-0.001 c -1.326,2.582 -2.297,5.269 -2.889,8.035 L 944.074,189 c 0.4,-1.892 0.988,-3.736 1.754,-5.556 0.252,-0.61 0.654,-1.505 1.225,-2.688"
         id="path459" />
      <path
         inkscape:connector-curvature="0"
         style="fill:#f18900"
         d="m 885.32,133.832 c -8.969,0.975 -16.977,4.172 -24.051,9.595 l 4.74,11.917 7.006,2.574 13.928,-5.557 3.125,-6.604 -4.748,-11.925 0,0 z"
         id="path461" />
      <path
         inkscape:connector-curvature="0"
         style="fill:none;stroke:#d04215;stroke-width:2.56080008;stroke-linecap:square;stroke-miterlimit:10"
         d="m 866.01,155.344 -4.74,-11.917 c 7.074,-5.423 15.082,-8.62 24.051,-9.595 l 4.748,11.926"
         id="path463" />
      <path
         inkscape:connector-curvature="0"
         style="fill:#eda1c1"
         d="m 903.412,155.973 c -4.418,-4.415 -7.916,-8.961 -10.492,-13.673 -2.758,3.258 -6.199,6.207 -10.35,8.855 -4.168,2.656 -10.768,4.737 -19.83,6.239 1.881,4.565 3.09,9.907 3.609,16.029 0.318,2.804 0.668,5.263 1.031,7.351 0.797,6.167 3.736,10.472 8.842,12.916 13.926,-1.249 26.096,-6.978 36.492,-17.18 1.375,-5.5 -0.062,-10.51 -4.305,-15.056 -1.372,-1.61 -3.046,-3.447 -4.997,-5.481 l 0,0 z"
         id="path465" />
      <path
         inkscape:connector-curvature="0"
         style="fill:none;stroke:#df5d91;stroke-width:2.5611999;stroke-linecap:square;stroke-miterlimit:10"
         d="m 892.92,142.3 c -2.758,3.258 -6.199,6.207 -10.35,8.855 -4.168,2.656 -10.768,4.737 -19.83,6.239 1.881,4.565 3.09,9.907 3.609,16.029 0.318,2.804 0.668,5.263 1.031,7.351 0.797,6.167 3.736,10.472 8.842,12.916 13.926,-1.249 26.096,-6.978 36.492,-17.18 1.375,-5.5 -0.062,-10.51 -4.305,-15.056 -1.373,-1.611 -3.047,-3.448 -4.998,-5.482 -4.417,-4.414 -7.915,-8.961 -10.491,-13.672 l 0,0 z"
         id="path467" />
      <path
         inkscape:connector-curvature="0"
         style="fill:#f18900"
         d="m 867.961,149.679 8.385,6.042 c -10.912,9.74 -21.545,19.33 -31.898,28.796 -4.691,-0.522 -6.855,-2.991 -6.471,-7.379 9.425,-8.309 19.41,-17.461 29.984,-27.459 l 0,0 z"
         id="path469" />
      <path
         inkscape:connector-curvature="0"
         style="fill:none;stroke:#d04215;stroke-width:2.56450009;stroke-linecap:square;stroke-miterlimit:10"
         d="m 876.346,155.722 c -10.912,9.74 -21.545,19.33 -31.898,28.796 -4.691,-0.522 -6.855,-2.991 -6.471,-7.379 9.426,-8.309 19.41,-17.461 29.984,-27.459 l 8.383,6.042 h 0.002 z"
         id="path471" />
      <path
         inkscape:connector-curvature="0"
         style="fill:#eda1c1"
         d="m 858.73,171.528 c -3.031,-1.714 -5.336,-3.997 -6.926,-6.831 l 16.156,-15.018 8.385,6.042 -17.615,15.807 0,0 z"
         id="path473" />
      <path
         inkscape:connector-curvature="0"
         style="fill:none;stroke:#df5d91;stroke-width:2.56450009;stroke-linecap:square;stroke-miterlimit:10"
         d="m 858.73,171.528 17.615,-15.807 -8.385,-6.042 -16.156,15.018 c 1.591,2.835 3.895,5.117 6.926,6.831 l 0,0 z"
         id="path475" />
      <polygon
         style="fill:#eda1c1"
         points="870.1,149.114 876.889,153.818 876.887,153.818 874.365,155.966 867.836,151.328 "
         id="polygon477" />
      <path
         inkscape:connector-curvature="0"
         style="fill:#f18900"
         d="m 887.621,144.877 -0.672,10.313 c 14.457,-2.217 28.621,-4.318 42.508,-6.279 2.584,-3.954 2.057,-7.193 -1.572,-9.689 -12.406,1.985 -25.821,3.863 -40.264,5.655 l 0,0 z"
         id="path479" />
      <path
         inkscape:connector-curvature="0"
         style="fill:none;stroke:#d04215;stroke-width:2.56439996;stroke-linecap:square;stroke-miterlimit:10"
         d="m 886.949,155.19 c 14.457,-2.217 28.621,-4.318 42.508,-6.279 2.584,-3.954 2.057,-7.193 -1.572,-9.689 -12.406,1.985 -25.82,3.864 -40.264,5.655 l -0.672,10.313 0,0 z"
         id="path481" />
      <path
         inkscape:connector-curvature="0"
         style="fill:#eda1c1"
         d="m 910.348,151.663 c 0.607,-3.43 0.316,-6.66 -0.859,-9.691 l -21.867,2.905 -0.672,10.313 23.398,-3.527 0,0 z"
         id="path483" />
      <path
         inkscape:connector-curvature="0"
         style="fill:none;stroke:#df5d91;stroke-width:2.56439996;stroke-linecap:square;stroke-miterlimit:10"
         d="m 910.348,151.663 -23.398,3.527 0.672,-10.313 21.867,-2.905 c 1.175,3.031 1.466,6.261 0.859,9.691 l 0,0 z"
         id="path485" />
      <polygon
         style="fill:#eda1c1"
         points="885.826,146.168 885.137,154.399 885.137,154.399 888.396,153.82 888.977,145.834 "
         id="polygon487" />
      <path
         inkscape:connector-curvature="0"
         style="fill:#d04215"
         d="m 927.951,129.671 c -2.064,0.427 -3.568,1.551 -4.504,3.37 -1.096,2.62 -0.334,5.397 2.301,8.354 l 1.748,1.025 c -0.184,-0.984 -0.627,-2.053 -1.316,-3.208 -0.213,-0.378 -0.391,-0.724 -0.545,-1.056 -0.727,-1.368 -0.818,-2.692 -0.285,-3.959 0.58,-1.327 1.588,-2.135 3.055,-2.414 0.787,-0.009 1.492,0.183 2.127,0.577 0.166,0.115 0.324,0.243 0.473,0.364 0.385,0.351 0.643,0.736 0.752,1.125 0.111,0.392 0.238,0.936 0.393,1.649 0.162,0.706 0.49,1.332 0.986,1.914 0.492,0.583 1.197,0.995 2.113,1.241 -0.654,-0.835 -0.951,-1.621 -0.877,-2.352 0.107,-0.729 0.15,-1.172 0.133,-1.293 2.643,-2.105 5.701,-3.591 9.16,-4.442 0.012,0.007 0.012,0.007 0.029,0 1.672,-0.368 2.971,-0.313 3.898,0.163 0.766,0.491 1.24,1.367 1.441,2.602 0.01,1.363 -0.953,2.242 -2.912,2.61 -0.121,0.022 -0.223,0.034 -0.348,0.053 -3.029,0.283 -5.051,1.261 -6.053,2.952 1.102,-0.379 2.592,-0.229 4.469,0.464 3.691,1.291 5.967,3.332 6.85,6.154 0.143,0.709 0.029,1.483 -0.334,2.31 -0.504,1.108 -1.379,1.713 -2.605,1.836 -1.545,-0.047 -2.812,-0.87 -3.797,-2.494 -0.713,-1.104 -1.891,-1.946 -3.518,-2.532 l 0.488,0.947 c 1.357,2.382 1.156,4.969 -0.607,7.751 -0.201,0.332 -0.527,0.731 -0.973,1.21 -0.631,0.726 -1.469,1.061 -2.535,0.992 -0.752,-0.1 -1.43,-0.375 -2.033,-0.802 -0.635,-0.62 -0.969,-1.232 -1.002,-1.84 0.055,-1.011 0.355,-1.742 0.91,-2.217 l 0.02,-0.006 c 1.451,-0.7 2.285,-1.643 2.496,-2.801 -3.238,2.4 -6.529,2.3 -9.869,-0.337 0.354,2.4 1.844,3.746 4.455,4.054 -0.043,0.411 -0.062,0.671 -0.074,0.792 -0.008,0.014 -0.012,0.026 -0.008,0.045 -0.029,0.226 -0.055,0.467 -0.086,0.693 -0.023,0.242 -0.023,0.498 0.014,0.773 0.047,0.775 0.312,1.465 0.801,2.092 0.166,0.242 0.363,0.454 0.588,0.612 1.008,0.836 2.172,1.319 3.512,1.491 0.02,-0.008 0.029,0 0.039,0.019 1.926,0.206 3.6,-0.591 5.025,-2.362 1.459,-1.782 2.133,-3.812 2.012,-6.108 1.381,1.851 2.918,2.554 4.594,2.107 2.834,-0.845 4.371,-2.749 4.607,-5.701 0.012,-3.237 -1.818,-5.857 -5.463,-7.877 2.881,-0.819 4.189,-2.518 3.916,-5.084 -0.004,-0.018 -0.004,-0.051 -0.014,-0.07 -0.305,-2.246 -1.23,-3.759 -2.742,-4.543 -1.354,-0.846 -3.273,-1.004 -5.734,-0.453 l -0.045,0.024 c -3.104,0.745 -6.389,2.213 -9.852,4.389 -1.33,-2.248 -3.086,-3.185 -5.274,-2.803 l 0,0 z"
         id="path489" />
      <path
         inkscape:connector-curvature="0"
         style="fill:#f18900"
         d="m 930.531,132.359 c -0.637,-0.394 -1.34,-0.586 -2.127,-0.577 -1.467,0.279 -2.477,1.087 -3.055,2.414 -0.533,1.268 -0.441,2.592 0.285,3.959 0.154,0.332 0.332,0.678 0.545,1.056 0.689,1.155 1.133,2.224 1.316,3.208 l 0.184,5.157 c 3.34,2.635 6.631,2.737 9.869,0.337 -0.211,1.158 -1.045,2.101 -2.496,2.801 l -0.02,0.006 c -0.555,0.475 -0.855,1.207 -0.91,2.217 0.033,0.608 0.367,1.22 1.002,1.84 0.604,0.427 1.281,0.702 2.031,0.802 1.068,0.069 1.906,-0.266 2.537,-0.992 0.445,-0.479 0.771,-0.878 0.973,-1.21 1.764,-2.782 1.965,-5.369 0.605,-7.751 l -0.486,-0.947 c 1.627,0.586 2.805,1.429 3.518,2.532 0.982,1.624 2.252,2.447 3.797,2.494 1.227,-0.123 2.102,-0.728 2.605,-1.836 0.363,-0.827 0.477,-1.601 0.334,-2.31 -0.883,-2.822 -3.158,-4.863 -6.85,-6.154 -1.879,-0.693 -3.367,-0.843 -4.469,-0.464 1.002,-1.691 3.023,-2.669 6.053,-2.952 0.125,-0.019 0.227,-0.03 0.348,-0.053 1.957,-0.368 2.922,-1.247 2.912,-2.61 -0.201,-1.235 -0.676,-2.111 -1.441,-2.602 -0.928,-0.477 -2.227,-0.531 -3.898,-0.163 -0.018,0.007 -0.018,0.007 -0.031,0 -3.457,0.852 -6.516,2.337 -9.158,4.442 0.018,0.121 -0.025,0.564 -0.133,1.293 -0.074,0.729 0.223,1.517 0.877,2.352 -0.916,-0.246 -1.621,-0.659 -2.113,-1.241 -0.496,-0.582 -0.824,-1.208 -0.986,-1.914 -0.154,-0.713 -0.283,-1.257 -0.393,-1.649 -0.109,-0.389 -0.367,-0.774 -0.754,-1.125 -0.147,-0.117 -0.305,-0.245 -0.471,-0.36 l 0,0 z"
         id="path491" />
      <path
         inkscape:connector-curvature="0"
         style="fill:#d04215"
         d="m 953.713,145.611 c -0.006,-0.02 -0.006,-0.02 0,-0.032 -0.02,0.005 -0.02,0.005 -0.023,0.019 l 0.023,0.013 0,0 z"
         id="path493" />
      <path
         inkscape:connector-curvature="0"
         style="fill:#eda1c1"
         d="m 902.578,156.822 -0.02,-0.007 c -4.041,-4.054 -7.318,-8.198 -9.844,-12.46 -2.639,2.838 -5.797,5.447 -9.512,7.813 -4.029,2.575 -10.299,4.627 -18.809,6.154 1.615,4.344 2.656,9.352 3.148,15.015 v -0.033 c 0.309,2.778 0.652,5.193 1.037,7.255 l -0.002,0.064 c 0.711,5.59 3.346,9.546 7.893,11.845 13.389,-1.278 25.104,-6.794 35.152,-16.566 1.129,-4.972 -0.242,-9.51 -4.092,-13.622 l -0.037,-0.046 c -1.353,-1.605 -2.992,-3.409 -4.914,-5.412 l 0,0 z"
         id="path495" />
      <path
         inkscape:connector-curvature="0"
         style="fill:#df5d91"
         d="m 893.33,194.823 c 0.379,0.109 0.777,0.197 1.193,0.245 3.902,0.608 6.699,-0.921 8.428,-4.588 0.535,-1.291 0.865,-2.053 0.994,-2.297 0.559,-1.023 1.209,-1.709 1.928,-2.032 1.553,-0.7 3.195,-0.752 4.941,-0.145 0.918,0.322 1.584,0.51 2.025,0.546 0.783,0.069 1.609,-0.083 2.459,-0.466 0.768,-0.349 1.398,-0.868 1.889,-1.559 0.279,-0.424 0.617,-1.11 1.02,-2.06 0.381,-0.94 0.715,-1.626 1.01,-2.055 0.471,-0.701 1.088,-1.213 1.846,-1.555 1.109,-0.5 2.637,-0.422 4.588,0.218 1.004,0.347 1.721,0.541 2.137,0.591 0.781,0.133 1.469,0.058 2.057,-0.208 1.633,-0.736 2.604,-1.754 2.947,-3.055 0.127,-0.479 0.191,-1.419 0.205,-2.822 l -16.967,-5.708 c -16.365,8.279 -32.41,15.316 -48.137,21.096 l -7.131,17.179 c 1.07,0.942 1.814,1.518 2.26,1.738 1.197,0.605 2.604,0.55 4.234,-0.185 0.588,-0.266 1.102,-0.73 1.518,-1.407 0.24,-0.342 0.568,-1.008 0.973,-1.991 0.816,-1.89 1.77,-3.087 2.879,-3.588 0.744,-0.335 1.539,-0.458 2.383,-0.354 0.506,0.072 1.242,0.272 2.207,0.604 0.979,0.326 1.713,0.527 2.217,0.598 0.842,0.093 1.646,-0.038 2.418,-0.384 0.848,-0.382 1.508,-0.902 1.98,-1.537 0.25,-0.348 0.553,-0.97 0.914,-1.871 0.721,-1.721 1.846,-2.92 3.4,-3.62 0.715,-0.325 1.658,-0.358 2.795,-0.102 0.263,0.069 1.07,0.318 2.39,0.774 l 0,0 z"
         id="path497" />
      <path
         inkscape:connector-curvature="0"
         style="fill:none;stroke:#970f45;stroke-width:2.56069994;stroke-linecap:round;stroke-miterlimit:10"
         d="m 893.33,194.823 c -1.32,-0.456 -2.127,-0.705 -2.391,-0.773 -1.137,-0.256 -2.08,-0.223 -2.795,0.102 -1.555,0.7 -2.68,1.899 -3.4,3.62 -0.361,0.901 -0.664,1.523 -0.914,1.871 -0.473,0.634 -1.133,1.155 -1.98,1.537 -0.771,0.346 -1.576,0.474 -2.418,0.384 -0.504,-0.071 -1.236,-0.272 -2.217,-0.598 -0.965,-0.332 -1.701,-0.536 -2.207,-0.604 -0.844,-0.105 -1.639,0.017 -2.383,0.354 -1.109,0.501 -2.062,1.699 -2.879,3.588 -0.404,0.983 -0.732,1.649 -0.973,1.991 -0.416,0.677 -0.93,1.142 -1.518,1.407 -1.631,0.735 -3.037,0.79 -4.234,0.185 -0.445,-0.22 -1.189,-0.796 -2.26,-1.738 l 7.131,-17.179 c 15.727,-5.78 31.771,-12.817 48.137,-21.096 l 16.967,5.708 c -0.014,1.402 -0.078,2.34 -0.205,2.822 -0.344,1.301 -1.314,2.319 -2.947,3.055 -0.588,0.266 -1.275,0.341 -2.057,0.208 -0.416,-0.05 -1.133,-0.244 -2.137,-0.591 -1.951,-0.641 -3.479,-0.719 -4.588,-0.218 -0.76,0.342 -1.375,0.854 -1.846,1.555 -0.295,0.429 -0.629,1.115 -1.01,2.055 -0.402,0.95 -0.74,1.636 -1.02,2.06 -0.49,0.691 -1.121,1.21 -1.889,1.559 -0.85,0.382 -1.676,0.535 -2.463,0.466 -0.438,-0.036 -1.104,-0.224 -2.021,-0.546 -1.746,-0.608 -3.389,-0.559 -4.941,0.145 -0.719,0.323 -1.369,1.009 -1.928,2.032 -0.129,0.245 -0.459,1.006 -0.994,2.297 -1.729,3.667 -4.525,5.196 -8.428,4.588 -0.415,-0.049 -0.813,-0.137 -1.192,-0.246 l 0,0 z"
         id="path499" />
      <path
         inkscape:connector-curvature="0"
         style="fill:#df5d91"
         d="m 897.961,179.102 c 0.561,-0.99 1.188,-1.65 1.906,-1.975 1.516,-0.684 3.137,-0.741 4.85,-0.18 0.891,0.304 1.545,0.462 1.971,0.505 0.766,0.064 1.574,-0.097 2.41,-0.475 0.744,-0.335 1.361,-0.85 1.846,-1.521 0.283,-0.413 0.627,-1.084 1.014,-1.998 0.393,-0.912 0.734,-1.584 1.014,-1.977 0.475,-0.687 1.082,-1.195 1.824,-1.529 1.084,-0.489 2.586,-0.43 4.49,0.168 0.98,0.327 1.676,0.515 2.092,0.562 0.756,0.114 1.418,0.049 2.006,-0.214 0.041,-0.019 0.078,-0.036 0.115,-0.055 0.844,-0.396 1.518,-0.856 1.982,-1.395 0.41,-0.452 0.682,-0.967 0.824,-1.517 0.135,-0.469 0.205,-1.396 0.205,-2.759 l -17.15,-3.32 c -12.617,11.372 -26.721,17.689 -42.301,18.947 l -8.594,15.078 c 1.018,0.904 1.758,1.464 2.184,1.68 0.521,0.251 1.086,0.389 1.682,0.387 0.705,-0.005 1.488,-0.186 2.316,-0.544 0.051,-0.023 0.104,-0.047 0.17,-0.077 0.586,-0.265 1.074,-0.72 1.49,-1.364 0.24,-0.341 0.561,-0.989 0.967,-1.938 0.811,-1.828 1.762,-2.993 2.846,-3.482 0.744,-0.337 1.525,-0.454 2.34,-0.351 0.492,0.045 1.221,0.235 2.162,0.548 0.941,0.312 1.668,0.501 2.166,0.558 0.822,0.083 1.615,-0.037 2.361,-0.375 0.834,-0.377 1.49,-0.875 1.951,-1.493 0.252,-0.346 0.566,-0.944 0.93,-1.813 0.715,-1.657 1.834,-2.836 3.346,-3.52 0.719,-0.323 1.629,-0.358 2.742,-0.121 0.297,0.068 1.266,0.367 2.898,0.902 2.334,0.749 4.242,-0.11 5.697,-2.571 0.683,-1.578 1.099,-2.501 1.248,-2.771 l 0,0 z"
         id="path501" />
      <path
         inkscape:connector-curvature="0"
         style="fill:none;stroke:#970f45;stroke-width:2.56069994;stroke-linecap:round;stroke-miterlimit:10"
         d="m 897.961,179.102 c -0.146,0.27 -0.564,1.193 -1.248,2.774 -1.455,2.461 -3.363,3.32 -5.697,2.571 -1.633,-0.535 -2.602,-0.833 -2.898,-0.902 -1.113,-0.237 -2.023,-0.202 -2.742,0.121 -1.512,0.684 -2.631,1.863 -3.346,3.52 -0.363,0.869 -0.678,1.467 -0.93,1.813 -0.461,0.618 -1.117,1.116 -1.951,1.493 -0.746,0.338 -1.539,0.458 -2.361,0.375 -0.498,-0.056 -1.225,-0.246 -2.166,-0.558 -0.941,-0.313 -1.67,-0.503 -2.162,-0.548 -0.814,-0.103 -1.596,0.014 -2.34,0.351 -1.084,0.489 -2.035,1.654 -2.846,3.482 -0.406,0.95 -0.727,1.597 -0.967,1.938 -0.416,0.645 -0.904,1.099 -1.49,1.364 -0.066,0.029 -0.119,0.053 -0.17,0.077 -0.828,0.358 -1.611,0.539 -2.316,0.544 -0.596,0.002 -1.16,-0.136 -1.682,-0.387 -0.426,-0.216 -1.166,-0.776 -2.184,-1.68 l 8.594,-15.078 c 15.58,-1.258 29.684,-7.575 42.301,-18.947 l 17.15,3.32 c 0,1.363 -0.07,2.29 -0.205,2.759 -0.143,0.55 -0.414,1.065 -0.824,1.517 -0.465,0.538 -1.139,0.999 -1.982,1.395 -0.037,0.019 -0.074,0.036 -0.115,0.055 -0.588,0.263 -1.25,0.328 -2.006,0.214 -0.416,-0.047 -1.111,-0.235 -2.092,-0.562 -1.904,-0.599 -3.406,-0.657 -4.49,-0.168 -0.742,0.334 -1.35,0.842 -1.824,1.529 -0.279,0.393 -0.621,1.064 -1.012,1.977 -0.389,0.914 -0.732,1.585 -1.016,1.998 -0.484,0.672 -1.102,1.187 -1.846,1.521 -0.836,0.377 -1.645,0.539 -2.41,0.475 -0.426,-0.043 -1.08,-0.201 -1.971,-0.505 -1.713,-0.561 -3.334,-0.504 -4.848,0.18 -0.721,0.322 -1.348,0.982 -1.908,1.972 l 0,0 z"
         id="path503" />
      <path
         inkscape:connector-curvature="0"
         style="fill:#d04215"
         d="m 831.357,170.776 c 1.607,-1.368 3.418,-1.863 5.432,-1.486 2.74,0.744 4.461,3.045 5.174,6.94 l -0.264,2.004 c -0.666,-0.749 -1.234,-1.753 -1.725,-3.006 -0.168,-0.395 -0.328,-0.749 -0.498,-1.077 -0.631,-1.413 -1.619,-2.297 -2.949,-2.654 -1.404,-0.355 -2.66,-0.054 -3.783,0.932 -0.49,0.614 -0.773,1.288 -0.85,2.031 -0.012,0.202 -0.01,0.405 -0.006,0.595 0.039,0.52 0.184,0.96 0.424,1.284 0.238,0.325 0.588,0.76 1.059,1.322 0.455,0.559 0.75,1.204 0.904,1.948 0.154,0.746 0.047,1.557 -0.32,2.431 -0.26,-1.031 -0.695,-1.745 -1.318,-2.134 -0.643,-0.363 -1.018,-0.601 -1.102,-0.689 -3.289,0.795 -6.342,2.296 -9.143,4.5 -0.002,0.014 -0.002,0.014 -0.02,0.025 -1.32,1.092 -2.074,2.152 -2.268,3.176 -0.084,0.902 0.314,1.815 1.162,2.733 1.072,0.842 2.357,0.621 3.854,-0.699 0.092,-0.083 0.166,-0.156 0.254,-0.239 2.092,-2.219 4.104,-3.213 6.055,-2.967 -0.977,0.636 -1.775,1.904 -2.385,3.811 -1.252,3.702 -1.039,6.751 0.643,9.177 0.473,0.548 1.154,0.934 2.029,1.153 1.184,0.283 2.197,-0.037 3.051,-0.93 0.912,-1.247 1.045,-2.751 0.369,-4.523 -0.434,-1.239 -0.373,-2.687 0.166,-4.329 l 0.445,0.965 c 1.049,2.533 3.213,3.961 6.494,4.273 0.383,0.05 0.898,0.035 1.553,-0.021 0.961,-0.055 1.74,-0.51 2.346,-1.396 0.379,-0.653 0.58,-1.356 0.615,-2.093 -0.1,-0.881 -0.377,-1.521 -0.836,-1.921 -0.832,-0.573 -1.592,-0.787 -2.309,-0.64 l -0.016,0.012 c -1.447,0.715 -2.705,0.797 -3.75,0.251 3.889,-1.084 5.834,-3.741 5.811,-7.993 1.674,1.753 1.82,3.755 0.455,6.001 0.35,0.217 0.57,0.364 0.672,0.428 0.014,0.004 0.027,0.007 0.039,0.023 0.195,0.112 0.404,0.242 0.602,0.354 0.207,0.13 0.406,0.287 0.6,0.487 0.582,0.512 0.967,1.144 1.158,1.913 0.09,0.28 0.135,0.567 0.121,0.84 0.041,1.308 -0.293,2.525 -0.984,3.685 -0.016,0.011 -0.02,0.025 -0.006,0.042 -1.023,1.647 -2.686,2.478 -4.957,2.516 -2.305,0.06 -4.322,-0.653 -6.061,-2.158 0.611,2.228 0.219,3.869 -1.164,4.919 -2.408,1.715 -4.857,1.761 -7.334,0.138 -2.561,-1.976 -3.502,-5.027 -2.852,-9.143 -2.424,1.773 -4.566,1.764 -6.424,-0.025 -0.01,-0.018 -0.035,-0.037 -0.047,-0.052 -1.584,-1.619 -2.209,-3.278 -1.9,-4.952 0.166,-1.588 1.225,-3.197 3.172,-4.804 l 0.049,-0.019 c 2.498,-1.991 5.676,-3.686 9.525,-5.082 -0.95,-2.426 -0.61,-4.386 1.038,-5.877 l 0,0 z"
         id="path505" />
      <path
         inkscape:connector-curvature="0"
         style="fill:#f18900"
         d="m 831.895,174.459 c 0.076,-0.743 0.359,-1.417 0.85,-2.031 1.123,-0.986 2.379,-1.287 3.783,-0.932 1.332,0.357 2.318,1.244 2.949,2.654 0.17,0.328 0.33,0.682 0.498,1.077 0.49,1.253 1.059,2.257 1.725,3.006 l 3.957,3.308 c 0.023,4.252 -1.922,6.909 -5.811,7.993 1.045,0.546 2.303,0.463 3.75,-0.251 l 0.016,-0.012 c 0.717,-0.147 1.477,0.067 2.309,0.64 0.459,0.401 0.736,1.041 0.836,1.921 -0.035,0.737 -0.236,1.439 -0.615,2.093 -0.605,0.886 -1.385,1.341 -2.346,1.396 -0.654,0.057 -1.17,0.071 -1.553,0.021 -3.281,-0.312 -5.445,-1.74 -6.494,-4.273 l -0.445,-0.965 c -0.539,1.642 -0.6,3.089 -0.166,4.329 0.676,1.772 0.543,3.277 -0.369,4.523 -0.854,0.893 -1.867,1.212 -3.051,0.93 -0.875,-0.22 -1.557,-0.605 -2.029,-1.153 -1.682,-2.426 -1.895,-5.475 -0.643,-9.177 0.609,-1.906 1.408,-3.174 2.385,-3.811 -1.951,-0.246 -3.963,0.748 -6.055,2.967 -0.088,0.083 -0.162,0.156 -0.254,0.239 -1.496,1.32 -2.781,1.541 -3.854,0.699 -0.848,-0.917 -1.246,-1.831 -1.162,-2.733 0.193,-1.024 0.947,-2.083 2.268,-3.176 0.018,-0.011 0.018,-0.011 0.02,-0.025 2.801,-2.205 5.854,-3.705 9.143,-4.5 0.084,0.088 0.459,0.326 1.102,0.689 0.621,0.389 1.059,1.103 1.318,2.134 0.367,-0.874 0.475,-1.685 0.32,-2.431 -0.154,-0.744 -0.449,-1.389 -0.904,-1.948 -0.471,-0.56 -0.82,-0.997 -1.059,-1.322 -0.24,-0.328 -0.385,-0.764 -0.424,-1.284 -0.005,-0.19 -0.007,-0.392 0.005,-0.595 l 0,0 z"
         id="path507" />
      <path
         inkscape:connector-curvature="0"
         style="fill:#d04215"
         d="m 828.082,200.875 c -0.012,-0.016 -0.012,-0.016 -0.025,-0.019 0.016,-0.011 0.016,-0.011 0.031,-0.007 l -0.006,0.026 0,0 z"
         id="path509" />
      <path
         inkscape:connector-curvature="0"
         style="fill:#f18900"
         d="m 881.727,72.802 c -5.416,-0.539 -10.799,-0.41 -16.141,0.382 -5.301,0.769 -10.445,2.191 -15.453,4.284 -5.072,2.138 -9.838,4.723 -14.289,7.749 -1.631,1.108 -4.168,2.759 -7.611,4.973 -2.936,-4.252 -6.846,-5.948 -11.715,-5.084 -8.318,1.455 -14.096,0.542 -17.322,-2.71 0.131,5.903 3.244,10.482 9.346,13.739 -6.068,-0.641 -10.084,0.954 -12.064,4.807 -2.809,5.413 -7.48,6.906 -13.984,4.487 1.574,6.313 6.908,8.217 15.998,5.742 -2.68,6.323 -9.018,10.295 -19.031,11.907 7.572,3.662 15.645,3.42 24.252,-0.707 -1.701,2.518 -2.848,4.692 -3.441,6.523 -1.541,4.839 -5.32,7.979 -11.344,9.45 7.986,2.823 15.385,1.265 22.215,-4.676 -1.041,5.839 -4.223,9.624 -9.545,11.364 5.6,3.368 12.26,2.969 19.949,-1.187 0.852,0.528 1.742,1.035 2.67,1.516 7.592,3.95 16.941,5.298 28.035,4.062 15.982,-1.693 31.588,-5.077 46.809,-10.143 9.18,-2.996 16.361,-7.066 21.52,-12.198 2.145,-2.116 3.934,-4.303 5.355,-6.553 8.629,0.604 14.779,-1.819 18.436,-7.245 -5.557,0.679 -10.033,-1.403 -13.441,-6.254 8.693,2.49 16.057,0.764 22.104,-5.179 -6.078,1.22 -10.828,-0.024 -14.266,-3.755 -1.311,-1.407 -3.266,-2.891 -5.869,-4.45 9.484,0.102 17.002,-3.24 22.533,-10.006 -9.922,3.026 -17.432,2.235 -22.527,-2.357 9.283,-1.611 13.316,-5.599 12.078,-11.985 -4.875,4.951 -9.738,5.578 -14.564,1.86 -3.42,-2.651 -7.734,-2.395 -12.961,0.759 4.158,-5.539 5.045,-11.007 2.674,-16.414 -1.551,4.315 -6.285,7.581 -14.201,9.795 -5.723,1.725 -9.061,5.192 -10.035,10.402 -4.897,-1.488 -9.616,-2.461 -14.17,-2.898 l 0,0 z"
         id="path511" />
      <path
         inkscape:connector-curvature="0"
         style="fill:none;stroke:#d04215;stroke-width:2.56080008;stroke-linecap:square;stroke-miterlimit:10"
         d="m 881.727,72.802 c 4.555,0.438 9.273,1.411 14.166,2.898 0.975,-5.21 4.312,-8.678 10.035,-10.402 7.916,-2.215 12.65,-5.48 14.201,-9.795 2.371,5.407 1.484,10.875 -2.674,16.414 5.227,-3.154 9.541,-3.41 12.961,-0.759 4.826,3.718 9.689,3.091 14.564,-1.86 1.238,6.389 -2.795,10.374 -12.078,11.985 5.096,4.592 12.605,5.383 22.527,2.357 -5.531,6.766 -13.049,10.108 -22.533,10.006 2.604,1.559 4.559,3.043 5.869,4.45 3.438,3.731 8.188,4.975 14.266,3.755 -6.047,5.943 -13.41,7.668 -22.104,5.179 3.408,4.852 7.885,6.933 13.441,6.254 -3.656,5.426 -9.807,7.849 -18.436,7.245 -1.422,2.25 -3.211,4.437 -5.355,6.553 -5.158,5.132 -12.34,9.202 -21.52,12.198 -15.221,5.066 -30.826,8.45 -46.809,10.143 -11.094,1.237 -20.443,-0.112 -28.035,-4.062 -0.928,-0.481 -1.818,-0.987 -2.67,-1.516 -7.689,4.156 -14.35,4.555 -19.949,1.187 5.322,-1.741 8.504,-5.523 9.545,-11.364 -6.83,5.941 -14.229,7.499 -22.215,4.676 6.023,-1.471 9.803,-4.611 11.344,-9.45 0.594,-1.831 1.74,-4.005 3.441,-6.523 -8.607,4.127 -16.68,4.369 -24.252,0.707 10.014,-1.611 16.352,-5.584 19.031,-11.907 -9.09,2.475 -14.424,0.571 -15.998,-5.742 6.504,2.419 11.176,0.926 13.984,-4.485 1.98,-3.855 5.996,-5.45 12.064,-4.809 -6.102,-3.256 -9.215,-7.836 -9.346,-13.739 3.227,3.251 9.004,4.165 17.322,2.71 4.869,-0.864 8.779,0.832 11.715,5.084 3.443,-2.214 5.98,-3.865 7.611,-4.973 4.451,-3.026 9.219,-5.61 14.289,-7.749 5.01,-2.093 10.152,-3.515 15.453,-4.284 5.346,-0.792 10.729,-0.921 16.145,-0.382 l 0,0 z"
         id="path513" />
      <path
         inkscape:connector-curvature="0"
         style="fill:#ab61a3"
         d="m 811.293,96.585 -0.645,2.723 c -0.129,0.541 -0.162,1.061 -0.084,1.543 l 0.268,-0.323 c 0.395,-0.47 0.824,-0.508 1.305,-0.13 l 1.402,1.168 c 0.449,0.382 0.486,0.798 0.135,1.271 0.291,-0.078 0.574,-0.185 0.865,-0.323 l 2.521,-1.146 c 1.264,-0.589 1.422,-1.327 0.492,-2.219 -0.621,-0.61 -1.393,-1.124 -2.32,-1.535 l -1.799,-1.706 c -1.097,-1.047 -1.808,-0.815 -2.14,0.677 l 0,0 z"
         id="path515" />
      <path
         inkscape:connector-curvature="0"
         style="fill:#ab61a3"
         d="m 813.539,101.566 -1.402,-1.168 c -0.48,-0.377 -0.91,-0.34 -1.305,0.128 l -0.268,0.323 -0.916,1.099 -0.176,0.198 c -0.379,0.479 -0.342,0.912 0.139,1.289 l 1.416,1.164 c 0.383,0.339 0.768,0.355 1.125,0.042 0.045,-0.055 0.094,-0.109 0.152,-0.166 l 1.346,-1.617 c 0.01,-0.016 0.01,-0.016 0.023,-0.021 0.352,-0.473 0.315,-0.889 -0.134,-1.271 l 0,0 z"
         id="path517" />
      <path
         inkscape:connector-curvature="0"
         style="fill:#ab61a3"
         d="m 809.473,102.146 0.176,-0.198 c -0.494,0.021 -0.994,0.146 -1.52,0.364 l -2.564,1.128 c -1.418,0.625 -1.496,1.389 -0.246,2.267 l 1.998,1.416 c 0.469,0.847 1.072,1.533 1.82,2.07 1.09,0.798 1.824,0.472 2.193,-0.971 l 0.697,-2.689 c 0.074,-0.311 0.113,-0.611 0.125,-0.892 -0.357,0.313 -0.742,0.297 -1.125,-0.042 l -1.416,-1.164 c -0.48,-0.376 -0.517,-0.809 -0.138,-1.289 l 0,0 z"
         id="path519" />
      <path
         inkscape:connector-curvature="0"
         style="fill:none;stroke:#633791;stroke-width:1.92060006;stroke-linecap:round;stroke-linejoin:round;stroke-miterlimit:10"
         d="m 810.564,100.849 c -0.078,-0.48 -0.045,-1 0.084,-1.541 l 0.645,-2.723 c 0.332,-1.492 1.043,-1.724 2.141,-0.678 l 1.799,1.706 c 0.928,0.411 1.699,0.925 2.32,1.535 0.93,0.893 0.771,1.63 -0.492,2.219 l -2.521,1.146 c -0.291,0.138 -0.574,0.245 -0.865,0.323 m -10e-4,0.001 c 0.352,-0.473 0.314,-0.889 -0.135,-1.271 l -1.402,-1.168 c -0.48,-0.377 -0.91,-0.34 -1.305,0.128 l -0.268,0.323 m -0.916,1.099 0.916,-1.099 m -0.916,1.099 -0.176,0.198 c -0.379,0.479 -0.342,0.912 0.139,1.289 l 1.416,1.164 c 0.383,0.339 0.768,0.355 1.125,0.042 m 0,0 c -0.012,0.281 -0.051,0.582 -0.125,0.892 l -0.697,2.689 c -0.369,1.443 -1.104,1.77 -2.193,0.971 -0.748,-0.537 -1.352,-1.223 -1.82,-2.07 l -1.998,-1.416 c -1.25,-0.878 -1.172,-1.643 0.246,-2.267 l 2.564,-1.128 c 0.525,-0.218 1.025,-0.344 1.52,-0.364 m 4.025,0.889 c -0.014,0.005 -0.014,0.005 -0.023,0.021 l -1.346,1.617 c -0.059,0.057 -0.107,0.111 -0.152,0.166"
         id="path521" />
      <path
         inkscape:connector-curvature="0"
         style="fill:#9dc517"
         d="m 914.234,73.685 1.732,2.191 c 0.348,0.437 0.594,0.895 0.727,1.363 l -0.377,-0.18 c -0.555,-0.257 -0.963,-0.108 -1.238,0.436 l -0.779,1.651 c -0.246,0.54 -0.102,0.933 0.416,1.214 -0.299,0.049 -0.6,0.072 -0.924,0.072 l -2.768,0.029 c -1.391,0.003 -1.848,-0.6 -1.379,-1.801 0.303,-0.814 0.787,-1.611 1.455,-2.374 l 0.91,-2.311 c 0.555,-1.412 1.298,-1.505 2.225,-0.29 l 0,0 z"
         id="path523" />
      <path
         inkscape:connector-curvature="0"
         style="fill:#9dc517"
         d="m 914.299,79.146 0.779,-1.651 c 0.275,-0.544 0.684,-0.693 1.238,-0.436 l 0.377,0.18 1.293,0.604 0.244,0.108 c 0.545,0.274 0.695,0.681 0.42,1.227 l -0.795,1.654 c -0.203,0.469 -0.547,0.65 -1,0.514 -0.064,-0.027 -0.131,-0.058 -0.209,-0.082 l -1.9,-0.898 c -0.018,-0.009 -0.018,-0.009 -0.031,-0.006 -0.518,-0.281 -0.662,-0.674 -0.416,-1.214 l 0,0 z"
         id="path525" />
      <path
         inkscape:connector-curvature="0"
         style="fill:#9dc517"
         d="m 918.23,77.951 -0.244,-0.108 c 0.457,-0.188 0.963,-0.288 1.531,-0.311 l 2.801,-0.066 c 1.547,-0.036 1.941,0.624 1.18,1.952 l -1.215,2.128 c -0.066,0.966 -0.326,1.844 -0.779,2.648 -0.648,1.185 -1.449,1.201 -2.395,0.049 l -1.766,-2.14 c -0.201,-0.249 -0.361,-0.506 -0.488,-0.757 0.453,0.136 0.797,-0.045 1,-0.514 l 0.795,-1.654 c 0.276,-0.546 0.125,-0.952 -0.42,-1.227 l 0,0 z"
         id="path527" />
      <path
         inkscape:connector-curvature="0"
         style="fill:none;stroke:#388e36;stroke-width:1.92270005;stroke-linecap:round;stroke-linejoin:round;stroke-miterlimit:10"
         d="m 916.693,77.239 c -0.133,-0.468 -0.379,-0.926 -0.727,-1.363 l -1.732,-2.191 c -0.928,-1.215 -1.67,-1.122 -2.225,0.29 l -0.91,2.311 c -0.668,0.763 -1.152,1.559 -1.455,2.374 -0.469,1.201 -0.012,1.804 1.379,1.801 l 2.768,-0.029 c 0.324,0 0.625,-0.023 0.924,-0.072 m 0,0 c -0.518,-0.281 -0.662,-0.674 -0.416,-1.214 l 0.779,-1.651 c 0.275,-0.544 0.684,-0.693 1.238,-0.436 l 0.377,0.18 m 1.293,0.604 -1.293,-0.604 m 1.293,0.604 0.244,0.108 c 0.545,0.274 0.695,0.681 0.42,1.227 l -0.795,1.654 c -0.203,0.469 -0.547,0.65 -1,0.514 m 0,0 c 0.127,0.251 0.285,0.509 0.488,0.757 l 1.766,2.14 c 0.945,1.152 1.746,1.135 2.395,-0.049 0.453,-0.805 0.713,-1.683 0.779,-2.648 l 1.215,-2.128 c 0.762,-1.328 0.367,-1.987 -1.18,-1.952 l -2.801,0.066 c -0.568,0.023 -1.074,0.122 -1.531,0.311 m -3.271,2.517 c 0.014,-0.005 0.014,-0.005 0.031,0.006 l 1.9,0.895 c 0.078,0.027 0.145,0.058 0.209,0.085"
         id="path529" />
      <path
         inkscape:connector-curvature="0"
         style="fill:#82110c"
         d="m 878.465,122.155 c -0.318,-1.453 -1.26,-2.546 -2.848,-3.292 -1.6,-0.729 -3.352,-0.881 -5.258,-0.458 -1.922,0.427 -3.43,1.305 -4.555,2.638 -1.123,1.349 -1.533,2.745 -1.213,4.195 0.326,1.466 1.287,2.556 2.867,3.289 1.584,0.731 3.32,0.887 5.242,0.46 1.904,-0.425 3.43,-1.305 4.57,-2.644 1.126,-1.333 1.521,-2.724 1.195,-4.188 l 0,0 z"
         id="path531" />
      <path
         inkscape:connector-curvature="0"
         style="fill:#ffffff"
         d="m 825.59,70.196 0.004,0.014 c -3.268,4.93 -4.277,10.237 -3.018,15.918 1.254,5.682 4.408,10.061 9.445,13.13 l 0.014,-0.002 c 5.033,3.113 10.48,4.011 16.367,2.702 5.855,-1.302 10.42,-4.425 13.68,-9.384 0.836,-1.256 1.521,-2.535 2.055,-3.826 l -4.998,-22.599 c -1.033,-0.957 -2.199,-1.843 -3.484,-2.624 l -0.004,-0.014 c -5.039,-3.083 -10.486,-3.966 -16.344,-2.665 -5.885,1.312 -10.452,4.421 -13.717,9.35 l 0,0 z"
         id="path533" />
      <path
         inkscape:connector-curvature="0"
         style="fill:#ffffff"
         d="m 861.104,62.3 0.004,0.014 c -0.826,1.251 -1.506,2.545 -2.055,3.855 l 5,22.599 c 1.045,0.94 2.207,1.809 3.479,2.594 5.045,3.111 10.512,4.006 16.369,2.703 5.871,-1.306 10.432,-4.429 13.691,-9.387 l 0.016,-0.005 c 3.27,-4.915 4.264,-10.218 3.01,-15.899 -1.26,-5.682 -4.398,-10.066 -9.438,-13.149 l -0.004,-0.014 c -5.039,-3.084 -10.498,-3.963 -16.371,-2.658 -5.86,1.303 -10.434,4.417 -13.701,9.347 l 0,0 z"
         id="path535" />
      <path
         inkscape:connector-curvature="0"
         d="m 870.059,81.773 c 0.953,-1.984 2.461,-3.33 4.52,-4.037 2.068,-0.724 4.086,-0.615 6.057,0.323 1.982,0.949 3.324,2.44 4.031,4.493 0.715,2.052 0.605,4.07 -0.34,6.038 -0.953,1.983 -2.447,3.325 -4.504,4.032 -2.057,0.722 -4.072,0.613 -6.043,-0.325 -1.977,-0.922 -3.324,-2.425 -4.033,-4.492 -0.731,-2.051 -0.634,-4.064 0.312,-6.032 l 0,0 z"
         id="path537" />
      <path
         inkscape:connector-curvature="0"
         d="m 845.381,87.02 c -1.701,-1.394 -3.631,-1.976 -5.797,-1.743 -2.18,0.221 -3.963,1.176 -5.352,2.86 -1.396,1.703 -1.986,3.62 -1.758,5.779 0.215,2.165 1.166,3.945 2.852,5.328 1.701,1.393 3.619,1.977 5.783,1.745 2.166,-0.218 3.951,-1.17 5.338,-2.855 1.406,-1.676 1.988,-3.607 1.76,-5.782 -0.201,-2.167 -1.139,-3.949 -2.826,-5.332 l 0,0 z"
         id="path539" />
      <path
         inkscape:connector-curvature="0"
         style="fill:#5fc2cf"
         d="m 859.994,69.644 -0.021,-0.098 c 6.104,-10.392 14.807,-14.363 26.07,-11.905 10.354,2.239 15.355,8.259 15.018,18.074 0.277,-2.26 0.16,-4.576 -0.367,-6.963 -1.26,-5.681 -4.414,-10.062 -9.453,-13.145 l -0.004,-0.014 c -5.037,-3.083 -10.482,-3.966 -16.369,-2.658 -5.857,1.303 -10.422,4.413 -13.688,9.341 l 0.004,0.015 c -0.828,1.238 -1.502,2.5 -2.025,3.776 -1.027,-0.931 -2.172,-1.787 -3.441,-2.562 l -0.006,-0.012 c -5.037,-3.083 -10.484,-3.968 -16.342,-2.666 -5.887,1.311 -10.449,4.419 -13.717,9.349 l 0.004,0.015 c -3.264,4.929 -4.277,10.236 -3.021,15.918 0.527,2.385 1.4,4.536 2.605,6.465 -4.445,-8.751 -2.453,-16.327 5.984,-22.745 9.174,-7.003 18.73,-7.093 28.648,-0.263 l 0.021,0.1 c 0.012,-0.019 0.031,-0.053 0.045,-0.069 0.014,0.01 0.038,0.037 0.055,0.047 l 0,0 z"
         id="path541" />
      <path
         inkscape:connector-curvature="0"
         style="fill:#ab6514"
         d="m 877.131,51.554 c -1.014,-1.049 -1.914,-0.938 -2.672,0.329 l -3.619,5.858 -3.838,-3.29 c -1.104,-0.942 -1.9,-0.692 -2.418,0.741 l -1.031,2.895 c -1.094,1.094 -2.082,2.324 -3,3.684 -0.598,0.881 -1.18,1.816 -1.771,2.796 -0.02,-0.009 -0.033,-0.021 -0.051,-0.031 l 0.02,0.083 c -0.869,-0.672 -1.754,-1.293 -2.686,-1.849 -1.402,-0.844 -2.818,-1.541 -4.27,-2.067 l -2.158,-2.186 c -1.072,-1.08 -1.9,-0.969 -2.502,0.35 l -2.088,4.61 -5.752,-3.773 c -1.225,-0.826 -2.088,-0.547 -2.559,0.833 l -1.771,5.183 -5.818,-1.563 c -1.465,-0.392 -2.219,0.113 -2.252,1.498 l -0.115,5.898 -7.547,0.96 c -1.309,0.131 -1.455,0.719 -0.479,1.747 l 3.814,4.045 -6.654,3.676 c -1.141,0.621 -1.062,1.365 0.24,2.218 l 5.229,3.405 -3.84,6.976 c -0.705,1.255 -0.303,1.751 1.236,1.483 l 7.943,-1.355 c -1.006,-1.828 -1.762,-3.856 -2.256,-6.09 -1.066,-4.815 -0.059,-9.346 3.006,-13.6 3.088,-4.277 7.377,-7.033 12.869,-8.251 3.527,-0.784 6.887,-0.772 10.072,0.03 1.768,0.369 3.441,1.035 5.02,2.002 0.592,0.353 1.168,0.708 1.738,1.093 l 0.014,-0.002 c 1.318,0.909 2.453,1.943 3.414,3.093 0.523,-1.538 1.176,-2.972 1.941,-4.284 l 0.014,-0.003 c 0.354,-0.59 0.729,-1.157 1.113,-1.728 1.025,-1.544 2.258,-2.859 3.705,-3.941 2.547,-2.077 5.59,-3.513 9.113,-4.299 5.492,-1.219 10.545,-0.541 15.146,2.023 4.568,2.559 7.393,6.234 8.457,11.053 0.496,2.233 0.664,4.391 0.525,6.472 l 7.768,-2.137 c 1.51,-0.411 1.666,-1.03 0.498,-1.867 l -6.424,-4.694 3.303,-5.306 c 0.82,-1.324 0.576,-2.03 -0.717,-2.109 l -7.58,-0.513 1.75,-5.281 c 0.451,-1.343 0.066,-1.815 -1.168,-1.378 l -7.248,2.328 -2.594,-5.295 c -0.613,-1.241 -1.508,-1.378 -2.67,-0.403 l -4.611,3.879 -3.789,-3.946 0,0 z"
         id="path543" />
      <path
         inkscape:connector-curvature="0"
         style="fill:#e7467d"
         d="m 874.83,93.151 c -0.385,-1.744 -1.641,-3.033 -3.76,-3.878 -2.082,-0.857 -4.418,-0.997 -7.004,-0.42 -2.6,0.577 -4.668,1.697 -6.223,3.361 -1.541,1.661 -2.117,3.355 -1.734,5.101 0.395,1.773 1.635,3.078 3.73,3.916 2.109,0.864 4.459,1.001 7.061,0.423 2.584,-0.575 4.643,-1.693 6.162,-3.365 1.573,-1.651 2.161,-3.364 1.768,-5.138 l 0,0 z"
         id="path545" />
      <path
         inkscape:connector-curvature="0"
         style="fill:#f18900"
         d="m 884.584,135.08 c -8.115,1.021 -15.42,3.935 -21.93,8.735 l 4.801,12.061 5.561,2.043 13.928,-5.557 2.453,-5.182 -4.813,-12.1 0,0 z"
         id="path547" />
      <path
         inkscape:connector-curvature="0"
         style="fill:#fbe000"
         d="m 859.598,150.479 c -0.113,-0.068 -0.217,-0.107 -0.293,-0.122 -0.299,-0.053 -0.436,0.143 -0.395,0.58 l 0.137,2.321 -2.016,1.782 c -0.393,0.366 -0.381,0.622 0.02,0.767 0.045,0.009 0.096,0.027 0.148,0.045 l 0.271,0.07 c 0.021,0.013 0.051,0.02 0.086,0.034 0.109,0.024 0.232,0.047 0.352,0.088 0.361,0.087 0.721,0.192 1.096,0.301 0.051,0.017 0.115,0.029 0.168,0.033 l 0.533,0.148 0.99,2.152 c 0.066,0.219 0.146,0.363 0.244,0.431 0.141,0.052 0.318,-0.039 0.521,-0.293 l 1.533,-2.428 0.035,-0.01 c 0.469,-0.071 0.926,-0.138 1.393,-0.21 l 1.258,-0.214 0.166,-0.032 c 0.498,-0.145 0.559,-0.41 0.174,-0.773 l -1.672,-1.765 0.375,-2.568 c 0.047,-0.285 0.021,-0.463 -0.09,-0.533 -0.115,-0.056 -0.295,-0.03 -0.531,0.075 l -2.428,1.161 -0.053,-0.019 -2.022,-1.021 0,0 z"
         id="path549" />
      <path
         inkscape:connector-curvature="0"
         style="fill:#fbe000"
         d="m 865.814,155.933 c 0.012,0.005 0.021,-0.003 0.031,-0.01 l -0.166,0.032 0.135,-0.022 0,0 z"
         id="path551" />
      <path
         inkscape:connector-curvature="0"
         style="fill:none;stroke:#6b7d27;stroke-width:1.47730005;stroke-linecap:round;stroke-linejoin:round;stroke-miterlimit:10"
         d="m 859.598,150.479 2.023,1.021 0.053,0.019 2.428,-1.161 c 0.236,-0.105 0.416,-0.131 0.531,-0.075 0.111,0.07 0.137,0.248 0.09,0.533 l -0.375,2.568 1.672,1.765 c 0.385,0.364 0.324,0.629 -0.174,0.773 l -0.166,0.032 -1.258,0.214 c -0.467,0.073 -0.926,0.14 -1.393,0.21 l -0.035,0.01 -1.533,2.428 c -0.203,0.254 -0.381,0.345 -0.521,0.293 -0.098,-0.067 -0.178,-0.212 -0.244,-0.431 l -0.99,-2.152 -0.533,-0.148 c -0.053,-0.004 -0.117,-0.017 -0.168,-0.036 -0.375,-0.106 -0.734,-0.211 -1.096,-0.298 -0.119,-0.041 -0.242,-0.067 -0.352,-0.088 -0.035,-0.015 -0.064,-0.021 -0.086,-0.034 l -0.271,-0.07 c -0.053,-0.018 -0.104,-0.036 -0.148,-0.045 -0.4,-0.146 -0.412,-0.401 -0.02,-0.767 l 2.016,-1.782 -0.137,-2.324 c -0.041,-0.434 0.096,-0.629 0.395,-0.577 0.075,0.015 0.178,0.054 0.292,0.122 l 0,0 z"
         id="path553" />
      <path
         inkscape:connector-curvature="0"
         style="fill:#fbe000"
         d="m 892.207,137.52 c 0.033,-0.128 0.082,-0.226 0.129,-0.29 0.18,-0.245 0.412,-0.195 0.686,0.147 l 1.492,1.779 2.688,-0.092 c 0.537,-0.004 0.705,0.189 0.516,0.569 -0.027,0.038 -0.055,0.087 -0.078,0.136 l -0.15,0.238 c -0.006,0.025 -0.021,0.048 -0.037,0.086 -0.066,0.089 -0.137,0.189 -0.197,0.302 -0.199,0.313 -0.391,0.639 -0.588,0.973 -0.027,0.049 -0.061,0.102 -0.1,0.14 l -0.287,0.475 0.762,2.245 c 0.102,0.207 0.141,0.365 0.117,0.482 -0.066,0.135 -0.258,0.189 -0.58,0.147 l -2.781,-0.708 -0.031,0.017 c -0.389,0.271 -0.766,0.539 -1.154,0.807 l -1.061,0.712 -0.141,0.09 c -0.463,0.238 -0.688,0.088 -0.658,-0.44 V 142.9 l -2.033,-1.607 c -0.232,-0.171 -0.336,-0.321 -0.303,-0.449 0.047,-0.121 0.195,-0.225 0.436,-0.311 l 2.562,-0.832 0.025,-0.05 0.766,-2.131 0,0 z"
         id="path555" />
      <path
         inkscape:connector-curvature="0"
         style="fill:#fbe000"
         d="m 891.441,145.76 c -0.01,0.014 -0.021,0.017 -0.031,0.017 l 0.141,-0.09 -0.11,0.073 0,0 z"
         id="path557" />
      <path
         inkscape:connector-curvature="0"
         style="fill:none;stroke:#6b7d27;stroke-width:1.47880006;stroke-linecap:round;stroke-linejoin:round;stroke-miterlimit:10"
         d="m 892.207,137.52 -0.768,2.133 -0.025,0.05 -2.562,0.832 c -0.24,0.085 -0.389,0.189 -0.436,0.311 -0.033,0.127 0.07,0.278 0.303,0.449 l 2.033,1.607 v 2.436 c -0.029,0.529 0.195,0.678 0.658,0.44 l 0.141,-0.09 1.061,-0.712 c 0.389,-0.268 0.766,-0.536 1.154,-0.804 l 0.031,-0.016 2.783,0.705 c 0.32,0.042 0.512,-0.012 0.578,-0.147 0.023,-0.117 -0.016,-0.275 -0.117,-0.482 l -0.762,-2.245 0.287,-0.472 c 0.039,-0.041 0.072,-0.093 0.1,-0.141 0.197,-0.336 0.389,-0.662 0.588,-0.975 0.061,-0.112 0.131,-0.213 0.197,-0.302 0.016,-0.038 0.031,-0.061 0.037,-0.086 l 0.15,-0.238 c 0.023,-0.049 0.051,-0.098 0.078,-0.136 0.189,-0.38 0.021,-0.574 -0.516,-0.569 l -2.688,0.092 -1.492,-1.779 c -0.273,-0.343 -0.506,-0.393 -0.686,-0.147 -0.045,0.06 -0.094,0.158 -0.127,0.286 l 0,0 z"
         id="path559" />
      <path
         inkscape:connector-curvature="0"
         style="fill:#ce2120"
         d="m 868.91,154.242 c -0.291,-0.729 -0.791,-1.253 -1.502,-1.567 -0.719,-0.3 -1.461,-0.298 -2.191,-0.005 -0.732,0.292 -1.242,0.79 -1.549,1.495 -0.322,0.731 -0.344,1.462 -0.051,2.193 0.301,0.757 0.82,1.288 1.549,1.565 0.717,0.331 1.434,0.353 2.168,0.061 0.73,-0.292 1.262,-0.812 1.568,-1.55 0.311,-0.694 0.309,-1.434 0.008,-2.192 l 0,0 z"
         id="path561" />
      <path
         inkscape:connector-curvature="0"
         style="fill:none;stroke:#921113;stroke-width:1.92060006;stroke-linecap:round;stroke-linejoin:round;stroke-miterlimit:10"
         d="m 868.91,154.242 c 0.301,0.757 0.303,1.498 -0.008,2.191 -0.307,0.738 -0.838,1.257 -1.568,1.55 -0.734,0.292 -1.451,0.271 -2.168,-0.061 -0.729,-0.278 -1.25,-0.808 -1.549,-1.565 -0.293,-0.731 -0.271,-1.462 0.051,-2.193 0.307,-0.705 0.816,-1.203 1.549,-1.495 0.73,-0.293 1.473,-0.295 2.191,0.005 0.711,0.315 1.211,0.84 1.502,1.568 l 0,0 z"
         id="path563" />
      <path
         inkscape:connector-curvature="0"
         style="fill:#ce2120"
         d="m 893.203,144.526 c -0.289,-0.73 -0.791,-1.253 -1.5,-1.571 -0.723,-0.297 -1.463,-0.294 -2.193,-0.002 -0.73,0.292 -1.242,0.788 -1.547,1.495 -0.324,0.73 -0.342,1.459 -0.053,2.19 0.301,0.757 0.82,1.29 1.549,1.568 0.717,0.331 1.436,0.352 2.168,0.06 0.73,-0.292 1.264,-0.814 1.568,-1.552 0.313,-0.692 0.313,-1.431 0.008,-2.188 l 0,0 z"
         id="path565" />
      <path
         inkscape:connector-curvature="0"
         style="fill:none;stroke:#921113;stroke-width:1.92060006;stroke-linecap:round;stroke-linejoin:round;stroke-miterlimit:10"
         d="m 893.203,144.526 c 0.305,0.757 0.305,1.496 -0.008,2.188 -0.305,0.738 -0.838,1.26 -1.568,1.552 -0.732,0.292 -1.451,0.271 -2.168,-0.06 -0.729,-0.279 -1.248,-0.811 -1.549,-1.568 -0.289,-0.731 -0.271,-1.46 0.053,-2.19 0.305,-0.708 0.816,-1.203 1.547,-1.495 0.731,-0.292 1.471,-0.295 2.193,0.002 0.709,0.318 1.211,0.841 1.5,1.571 l 0,0 z"
         id="path567" />
      <path
         inkscape:connector-curvature="0"
         style="fill:#6f53a0"
         d="m 874.498,154.671 c -0.291,-0.731 -0.791,-1.257 -1.504,-1.572 -0.719,-0.299 -1.459,-0.297 -2.191,-0.004 -0.729,0.291 -1.242,0.789 -1.545,1.495 -0.326,0.731 -0.346,1.461 -0.055,2.193 0.303,0.757 0.822,1.29 1.549,1.567 0.719,0.329 1.436,0.351 2.168,0.058 0.729,-0.291 1.264,-0.812 1.57,-1.549 0.311,-0.693 0.311,-1.432 0.01,-2.188 h -0.002 z"
         id="path569" />
      <path
         inkscape:connector-curvature="0"
         style="fill:none;stroke:#352082;stroke-width:1.92060006;stroke-linecap:round;stroke-linejoin:round;stroke-miterlimit:10"
         d="m 874.498,154.671 c 0.303,0.756 0.303,1.494 -0.008,2.188 -0.307,0.737 -0.842,1.258 -1.57,1.549 -0.732,0.292 -1.449,0.271 -2.168,-0.058 -0.727,-0.278 -1.246,-0.811 -1.549,-1.567 -0.293,-0.731 -0.271,-1.461 0.055,-2.193 0.303,-0.706 0.816,-1.204 1.545,-1.495 0.732,-0.293 1.473,-0.295 2.191,0.004 0.713,0.315 1.213,0.84 1.504,1.572 l 0,0 z"
         id="path571" />
      <path
         inkscape:connector-curvature="0"
         style="fill:#9dc517"
         d="m 887.936,147.147 c -0.721,-0.297 -1.459,-0.295 -2.191,-0.002 -0.73,0.292 -1.242,0.787 -1.547,1.495 -0.326,0.729 -0.344,1.459 -0.053,2.191 0.303,0.757 0.82,1.288 1.547,1.566 0.719,0.33 1.436,0.351 2.168,0.06 0.73,-0.293 1.264,-0.812 1.57,-1.55 0.312,-0.693 0.312,-1.431 0.01,-2.189 -0.292,-0.732 -0.794,-1.257 -1.504,-1.571 l 0,0 z"
         id="path573" />
      <path
         inkscape:connector-curvature="0"
         style="fill:none;stroke:#388e36;stroke-width:1.92060006;stroke-linecap:round;stroke-linejoin:round;stroke-miterlimit:10"
         d="m 887.936,147.147 c 0.711,0.314 1.213,0.839 1.504,1.57 0.301,0.758 0.303,1.496 -0.01,2.189 -0.307,0.739 -0.84,1.257 -1.57,1.55 -0.732,0.292 -1.449,0.271 -2.168,-0.06 -0.727,-0.278 -1.244,-0.809 -1.547,-1.566 -0.291,-0.731 -0.273,-1.462 0.053,-2.191 0.305,-0.708 0.816,-1.203 1.547,-1.495 0.732,-0.292 1.47,-0.294 2.191,0.003 l 0,0 z"
         id="path575" />
      <path
         inkscape:connector-curvature="0"
         style="fill:#fbe000"
         d="m 878.926,150.405 c -0.125,-0.121 -0.246,-0.195 -0.34,-0.235 -0.367,-0.145 -0.59,0.066 -0.658,0.633 l -0.443,2.994 -3.039,1.735 c -0.596,0.361 -0.65,0.69 -0.182,0.98 0.059,0.024 0.117,0.062 0.178,0.1 l 0.33,0.162 c 0.021,0.021 0.059,0.037 0.102,0.066 0.129,0.057 0.279,0.118 0.418,0.201 0.439,0.212 0.869,0.439 1.318,0.676 0.062,0.036 0.137,0.069 0.203,0.088 l 0.643,0.327 0.686,3.005 c 0.025,0.299 0.092,0.503 0.197,0.615 0.166,0.104 0.414,0.033 0.74,-0.235 l 2.602,-2.684 0.045,-0.002 c 0.611,0.033 1.213,0.071 1.826,0.103 l 1.66,0.061 0.218,0.005 c 0.67,-0.052 0.82,-0.373 0.426,-0.94 l -1.658,-2.694 1.16,-3.171 c 0.137,-0.35 0.15,-0.584 0.027,-0.706 -0.135,-0.099 -0.369,-0.113 -0.697,-0.044 l -3.396,0.834 -0.064,-0.039 -2.302,-1.835 0,0 z"
         id="path577" />
      <path
         inkscape:connector-curvature="0"
         style="fill:#fbe000"
         d="m 885.385,159.001 c 0.016,0.009 0.029,0.004 0.045,-0.002 l -0.219,-0.005 0.174,0.007 0,0 z"
         id="path579" />
      <path
         inkscape:connector-curvature="0"
         style="fill:none;stroke:#6b7d27;stroke-width:1.92060006;stroke-linecap:round;stroke-linejoin:round;stroke-miterlimit:10"
         d="m 878.926,150.405 2.301,1.834 0.064,0.039 3.396,-0.834 c 0.328,-0.069 0.562,-0.054 0.697,0.044 0.123,0.122 0.109,0.356 -0.027,0.706 l -1.16,3.171 1.658,2.694 c 0.395,0.567 0.244,0.888 -0.426,0.94 l -0.219,-0.005 -1.66,-0.061 c -0.613,-0.032 -1.215,-0.069 -1.826,-0.103 l -0.045,0.002 -2.602,2.687 c -0.326,0.269 -0.574,0.337 -0.74,0.233 -0.105,-0.112 -0.172,-0.316 -0.197,-0.615 l -0.686,-3.005 -0.643,-0.327 c -0.066,-0.02 -0.141,-0.053 -0.203,-0.088 -0.449,-0.237 -0.879,-0.464 -1.318,-0.676 -0.139,-0.083 -0.289,-0.145 -0.418,-0.201 -0.043,-0.03 -0.08,-0.045 -0.102,-0.066 l -0.33,-0.162 c -0.061,-0.038 -0.119,-0.075 -0.178,-0.1 -0.469,-0.29 -0.414,-0.617 0.182,-0.98 l 3.039,-1.735 0.443,-2.994 c 0.068,-0.567 0.291,-0.778 0.658,-0.633 0.096,0.04 0.217,0.114 0.342,0.235 l 0,0 z"
         id="path581" />
    </g>
  </g>
</svg>
