<?xml version="1.0" encoding="UTF-8" standalone="no"?>
<!-- Created with Inkscape (http://www.inkscape.org/) -->

<svg
   xmlns:dc="http://purl.org/dc/elements/1.1/"
   xmlns:cc="http://creativecommons.org/ns#"
   xmlns:rdf="http://www.w3.org/1999/02/22-rdf-syntax-ns#"
   xmlns:svg="http://www.w3.org/2000/svg"
   xmlns="http://www.w3.org/2000/svg"
   xmlns:sodipodi="http://sodipodi.sourceforge.net/DTD/sodipodi-0.dtd"
   xmlns:inkscape="http://www.inkscape.org/namespaces/inkscape"
   width="168.9375"
   height="170.86911"
   id="svg5696"
   version="1.1"
   inkscape:version="0.48.4 r9939"
   sodipodi:docname="zoe5.svg">
  <defs
     id="defs5698">
    <clipPath
       id="SVGID_2_">
      <rect
         height="88.862999"
         width="111.498"
         y="518.96198"
         x="382.04999"
         id="use1087" />
    </clipPath>
    <clipPath
       id="SVGID_4_">
      <rect
         height="41.314999"
         width="49.584999"
         y="525.19397"
         x="389.84698"
         id="use1111" />
    </clipPath>
  </defs>
  <sodipodi:namedview
     id="base"
     pagecolor="#ffffff"
     bordercolor="#666666"
     borderopacity="1.0"
     inkscape:pageopacity="0.0"
     inkscape:pageshadow="2"
     inkscape:zoom="0.77472527"
     inkscape:cx="128.53737"
     inkscape:cy="105.97436"
     inkscape:current-layer="layer1"
     inkscape:document-units="px"
     showgrid="false"
     inkscape:window-width="763"
     inkscape:window-height="591"
     inkscape:window-x="592"
     inkscape:window-y="97"
     inkscape:window-maximized="0"
     fit-margin-top="0"
     fit-margin-left="0"
     fit-margin-right="0"
     fit-margin-bottom="0" />
  <metadata
     id="metadata5701">
    <rdf:RDF>
      <cc:Work
         rdf:about="">
        <dc:format>image/svg+xml</dc:format>
        <dc:type
           rdf:resource="http://purl.org/dc/dcmitype/StillImage" />
        <dc:title></dc:title>
      </cc:Work>
    </rdf:RDF>
  </metadata>
  <g
     id="layer1"
     inkscape:label="Layer 1"
     inkscape:groupmode="layer"
     transform="translate(-189.40593,-20.21162)">
    <g
       transform="translate(-155.28157,-282.23761)"
       id="g1721">
      <path
         inkscape:connector-curvature="0"
         style="fill:#eda1c1"
         d="m 422.531,430.553 7.187,3.976 -15.085,27.483 c -5.681,0.47 -8.71,-1.474 -9.082,-5.867 l 16.98,-25.592 0,0 z"
         id="path1723" />
      <path
         inkscape:connector-curvature="0"
         style="fill:none;stroke:#df5d91;stroke-width:2.40079999;stroke-linecap:round;stroke-miterlimit:10"
         d="m 429.718,434.528 -15.085,27.483 c -5.681,0.47 -8.71,-1.474 -9.082,-5.867 l 16.98,-25.592 7.187,3.976 0,0 z"
         id="path1725" />
      <path
         inkscape:connector-curvature="0"
         style="fill:#df5d91"
         d="m 392.216,453.946 c 1.406,2.119 2.443,4.439 3.082,6.948 h 5.19 c -0.431,-1.715 -1.059,-3.331 -1.874,-4.873 -0.271,-0.518 -0.698,-1.27 -1.304,-2.247 3.035,0.058 6.061,0.331 9.074,0.818 0.986,1.892 1.776,3.979 2.381,6.302 h 7.152 c -0.314,2.638 -0.647,5.437 -0.999,8.394 -16.101,2.407 -26.311,3.01 -30.609,1.816 -4.311,-1.227 -6.229,-3.764 -5.738,-7.643 0.486,-3.879 3.211,-6.661 8.155,-8.335 1.665,-0.559 3.487,-0.965 5.49,-1.18 l 0,0 z"
         id="path1727" />
      <path
         inkscape:connector-curvature="0"
         style="fill:#eda1c1"
         d="m 395.297,460.895 c -0.639,-2.509 -1.675,-4.829 -3.082,-6.948 1.733,-0.146 3.425,-0.201 5.095,-0.172 0.605,0.978 1.033,1.729 1.304,2.247 0.815,1.542 1.443,3.158 1.874,4.873 h -5.191 l 0,0 z"
         id="path1729" />
      <path
         inkscape:connector-curvature="0"
         style="fill:none;stroke:#970f45;stroke-width:2.44770002;stroke-linecap:round;stroke-miterlimit:10"
         d="m 397.311,453.774 c 0.605,0.978 1.033,1.729 1.304,2.247 0.815,1.542 1.443,3.158 1.874,4.873 h -5.19 c -0.639,-2.509 -1.675,-4.829 -3.082,-6.948 m 5.094,-0.172 c 3.035,0.056 6.061,0.331 9.074,0.818 0.986,1.892 1.776,3.979 2.381,6.302 h 7.152 c -0.314,2.638 -0.647,5.437 -0.999,8.394 -16.101,2.405 -26.311,3.01 -30.609,1.814 -4.311,-1.225 -6.229,-3.762 -5.738,-7.641 0.486,-3.879 3.211,-6.661 8.155,-8.335 1.665,-0.56 3.487,-0.966 5.489,-1.181 m 0,0.001 c 1.733,-0.146 3.425,-0.201 5.095,-0.172"
         id="path1731" />
      <path
         inkscape:connector-curvature="0"
         style="fill:#eda1c1"
         d="m 451.491,431.321 -8.665,0.384 -4.226,29.904 c 4.587,2.797 8.408,2.401 11.476,-1.205 l 1.415,-29.083 0,0 z"
         id="path1733" />
      <path
         inkscape:connector-curvature="0"
         style="fill:none;stroke:#df5d91;stroke-width:2.18099999;stroke-linecap:round;stroke-miterlimit:10"
         d="m 442.826,431.705 -4.226,29.904 c 4.587,2.797 8.408,2.401 11.476,-1.205 l 1.415,-29.083 -8.665,0.384 0,0 z"
         id="path1735" />
      <path
         inkscape:connector-curvature="0"
         style="fill:#df5d91"
         d="m 464.309,454.381 c -2.017,2.117 -3.72,4.438 -5.08,6.947 h -5.189 c 0.924,-1.716 2.017,-3.33 3.272,-4.873 0.42,-0.516 1.065,-1.269 1.951,-2.248 -3.052,0.056 -6.155,0.331 -9.309,0.82 -1.531,1.89 -2.922,3.98 -4.191,6.301 h -7.151 c -0.447,2.64 -0.919,5.437 -1.418,8.393 15.412,2.407 25.447,3.013 30.089,1.817 4.661,-1.225 7.31,-3.763 7.936,-7.644 0.626,-3.876 -1.298,-6.66 -5.76,-8.333 -1.507,-0.563 -3.212,-0.966 -5.15,-1.18 l 0,0 z"
         id="path1737" />
      <path
         inkscape:connector-curvature="0"
         style="fill:#eda1c1"
         d="m 459.229,461.328 c 1.36,-2.509 3.063,-4.83 5.08,-6.947 -1.689,-0.145 -3.368,-0.203 -5.046,-0.174 -0.886,0.979 -1.531,1.732 -1.951,2.248 -1.256,1.543 -2.349,3.157 -3.272,4.873 h 5.189 l 0,0 z"
         id="path1739" />
      <path
         inkscape:connector-curvature="0"
         style="fill:none;stroke:#970f45;stroke-width:2.33960009;stroke-linecap:round;stroke-miterlimit:10"
         d="m 459.263,454.207 c -0.886,0.979 -1.531,1.732 -1.951,2.248 -1.256,1.543 -2.349,3.157 -3.272,4.873 h 5.189 c 1.36,-2.509 3.063,-4.83 5.08,-6.947 m -5.046,-0.174 c -3.052,0.056 -6.155,0.329 -9.309,0.82 -1.531,1.89 -2.922,3.98 -4.191,6.301 h -7.151 c -0.447,2.64 -0.919,5.437 -1.418,8.393 15.412,2.407 25.447,3.013 30.089,1.817 4.661,-1.225 7.31,-3.763 7.936,-7.644 0.626,-3.876 -1.298,-6.66 -5.76,-8.333 -1.506,-0.563 -3.211,-0.967 -5.149,-1.181 m -10e-4,10e-4 c -1.689,-0.145 -3.368,-0.203 -5.046,-0.174"
         id="path1741" />
      <path
         inkscape:connector-curvature="0"
         style="fill:#f18900"
         d="m 438.791,403.909 4.356,-5.928 -2.394,-12.724 c -9.05,-0.774 -17.581,0.83 -25.618,4.819 l 2.391,12.711 6.43,3.909 14.835,-2.787 0,0 z"
         id="path1743" />
      <path
         inkscape:connector-curvature="0"
         style="fill:none;stroke:#d04215;stroke-width:2.30679989;stroke-linecap:square;stroke-miterlimit:10"
         d="m 417.525,402.788 -2.391,-12.711 c 8.038,-3.989 16.568,-5.594 25.618,-4.819 l 2.394,12.724"
         id="path1745" />
      <path
         inkscape:connector-curvature="0"
         style="fill:#eda1c1"
         d="m 454.342,410.665 c -3.514,-5.225 -6.098,-10.402 -7.738,-15.564 -3.354,2.687 -7.322,4.938 -11.935,6.751 -4.627,1.817 -11.552,2.596 -20.796,2.322 0.979,4.884 1.147,10.403 0.483,16.559 -0.223,2.836 -0.353,5.337 -0.394,7.475 -0.403,6.26 1.678,11.085 6.252,14.499 14.005,1.469 27.133,-1.838 39.375,-9.914 2.414,-5.173 1.956,-10.41 -1.358,-15.729 -1.052,-1.864 -2.35,-4.006 -3.889,-6.399 l 0,0 z"
         id="path1747" />
      <path
         inkscape:connector-curvature="0"
         style="fill:none;stroke:#df5d91;stroke-width:2.30690002;stroke-linecap:square;stroke-miterlimit:10"
         d="m 446.604,395.101 c -3.354,2.687 -7.322,4.938 -11.935,6.751 -4.627,1.817 -11.552,2.596 -20.796,2.322 0.979,4.884 1.147,10.403 0.483,16.559 -0.223,2.836 -0.353,5.337 -0.394,7.475 -0.403,6.26 1.678,11.085 6.252,14.499 14.005,1.469 27.133,-1.838 39.375,-9.914 2.414,-5.173 1.956,-10.41 -1.358,-15.729 -1.051,-1.863 -2.349,-4.006 -3.888,-6.398 -3.515,-5.226 -6.099,-10.403 -7.739,-15.565 l 0,0 z"
         id="path1749" />
      <path
         inkscape:connector-curvature="0"
         style="fill:#f18900"
         d="m 441.921,406.532 -3.912,-9.659 c 15.133,0.328 26.995,-3.152 35.559,-10.422 4.111,1.988 5.906,5.223 5.371,9.697 -9.415,6.806 -21.751,10.27 -37.018,10.384 l 0,0 z"
         id="path1751" />
      <path
         inkscape:connector-curvature="0"
         style="fill:none;stroke:#d04215;stroke-width:2.30679989;stroke-linecap:square;stroke-miterlimit:10"
         d="m 438.009,396.873 c 15.133,0.328 26.995,-3.152 35.559,-10.422 4.111,1.988 5.906,5.223 5.371,9.697 -9.415,6.806 -21.751,10.27 -37.019,10.384 l -3.911,-9.659 0,0 z"
         id="path1753" />
      <path
         inkscape:connector-curvature="0"
         style="fill:#eda1c1"
         d="m 460.4,393.818 c 1.783,2.406 2.894,5.647 3.296,9.722 -6.518,1.971 -13.768,2.969 -21.775,2.992 l -3.912,-9.659 c 8.846,-0.139 16.305,-1.156 22.391,-3.055 l 0,0 z"
         id="path1755" />
      <path
         inkscape:connector-curvature="0"
         style="fill:none;stroke:#df5d91;stroke-width:2.30679989;stroke-linecap:square;stroke-miterlimit:10"
         d="m 460.4,393.818 c -6.086,1.898 -13.545,2.916 -22.391,3.055 l 3.912,9.659 c 8.008,-0.023 15.258,-1.021 21.775,-2.992 -0.402,-4.074 -1.512,-7.315 -3.296,-9.722 l 0,0 z"
         id="path1757" />
      <polygon
         style="fill:#eda1c1"
         points="438.027,405.44 435.676,398.083 435.676,398.083 439.765,397.997 442.738,405.384 "
         id="polygon1759" />
      <path
         inkscape:connector-curvature="0"
         style="fill:#f18900"
         d="m 421.841,408.836 -3.086,-9.952 c -12.795,7.281 -25.354,14.347 -37.707,21.184 -1.003,4.649 0.663,7.51 4.977,8.557 10.949,-6.324 22.883,-12.911 35.816,-19.789 l 0,0 z"
         id="path1761" />
      <path
         inkscape:connector-curvature="0"
         style="fill:none;stroke:#d04215;stroke-width:2.30679989;stroke-linecap:square;stroke-miterlimit:10"
         d="m 418.755,398.884 c -12.795,7.281 -25.354,14.347 -37.707,21.184 -1.003,4.649 0.663,7.51 4.977,8.557 10.95,-6.323 22.884,-12.91 35.816,-19.788 l -3.086,-9.953 0,0 z"
         id="path1763" />
      <path
         inkscape:connector-curvature="0"
         style="fill:#eda1c1"
         d="m 400.148,409.416 c 2.266,2.55 3.655,5.523 4.164,8.898 l 17.529,-9.479 -3.086,-9.952 -18.607,10.533 0,0 z"
         id="path1765" />
      <path
         inkscape:connector-curvature="0"
         style="fill:none;stroke:#df5d91;stroke-width:2.30679989;stroke-linecap:square;stroke-miterlimit:10"
         d="m 400.148,409.416 18.606,-10.532 3.086,9.952 -17.529,9.479 c -0.507,-3.376 -1.897,-6.349 -4.163,-8.899 l 0,0 z"
         id="path1767" />
      <polygon
         style="fill:#eda1c1"
         points="423.066,406.976 420.744,398.978 420.744,398.978 417.889,400.695 420.228,408.424 "
         id="polygon1769" />
      <path
         inkscape:connector-curvature="0"
         style="fill:#eda1c1"
         d="m 453.354,411.345 -0.017,-0.011 c -3.215,-4.794 -5.657,-9.532 -7.333,-14.24 -3.155,2.298 -6.776,4.265 -10.903,5.885 -4.476,1.766 -11.067,2.577 -19.771,2.433 0.758,4.611 0.823,9.771 0.222,15.466 l 0.006,-0.028 c -0.228,2.807 -0.355,5.262 -0.373,7.377 l -0.012,0.064 c -0.373,5.669 1.47,10.097 5.522,13.254 13.479,1.334 26.118,-1.848 37.927,-9.565 2.074,-4.699 1.59,-9.454 -1.421,-14.271 l -0.027,-0.052 c -1.031,-1.853 -2.305,-3.955 -3.82,-6.312 l 0,0 z"
         id="path1771" />
      <path
         inkscape:connector-curvature="0"
         style="fill:#df5d91"
         d="m 464.736,428.255 c -18.242,2.822 -35.791,4.559 -52.649,5.186 l -12.163,14.242 c 0.73,1.239 1.267,2.022 1.622,2.372 0.961,0.955 2.324,1.343 4.116,1.146 0.646,-0.071 1.282,-0.356 1.893,-0.875 0.334,-0.253 0.855,-0.789 1.55,-1.605 1.367,-1.556 2.651,-2.407 3.868,-2.542 0.818,-0.089 1.616,0.041 2.395,0.406 0.461,0.224 1.102,0.648 1.923,1.268 0.836,0.619 1.478,1.044 1.938,1.266 0.778,0.354 1.591,0.481 2.435,0.39 0.931,-0.104 1.728,-0.394 2.372,-0.855 0.349,-0.257 0.831,-0.758 1.46,-1.508 1.221,-1.426 2.671,-2.224 4.378,-2.41 0.788,-0.087 1.701,0.176 2.71,0.775 0.233,0.15 0.925,0.64 2.047,1.487 0.332,0.228 0.687,0.435 1.068,0.611 3.548,1.8 6.703,1.208 9.498,-1.768 0.909,-1.071 1.468,-1.697 1.663,-1.892 0.854,-0.806 1.688,-1.262 2.479,-1.347 1.705,-0.188 3.294,0.275 4.78,1.407 0.776,0.597 1.356,0.981 1.766,1.153 0.73,0.312 1.569,0.425 2.501,0.321 0.846,-0.093 1.61,-0.394 2.295,-0.905 0.399,-0.317 0.934,-0.87 1.615,-1.655 0.655,-0.781 1.189,-1.334 1.604,-1.653 0.666,-0.524 1.417,-0.822 2.249,-0.914 1.218,-0.135 2.657,0.419 4.328,1.642 0.854,0.646 1.479,1.059 1.861,1.232 0.708,0.373 1.39,0.514 2.036,0.445 1.791,-0.197 3.037,-0.87 3.77,-2.01 0.273,-0.421 0.623,-1.301 1.074,-2.64 l -14.482,-10.77 0,0 z"
         id="path1773" />
      <path
         inkscape:connector-curvature="0"
         style="fill:none;stroke:#970f45;stroke-width:2.30699992;stroke-linecap:round;stroke-miterlimit:10"
         d="m 464.736,428.255 14.482,10.771 c -0.451,1.339 -0.801,2.219 -1.074,2.64 -0.732,1.14 -1.979,1.812 -3.77,2.01 -0.646,0.068 -1.328,-0.072 -2.036,-0.445 -0.383,-0.174 -1.008,-0.587 -1.861,-1.232 -1.671,-1.223 -3.11,-1.776 -4.328,-1.642 -0.832,0.092 -1.583,0.39 -2.249,0.914 -0.415,0.319 -0.949,0.872 -1.604,1.653 -0.682,0.785 -1.216,1.338 -1.615,1.655 -0.685,0.512 -1.449,0.812 -2.295,0.905 -0.932,0.104 -1.771,-0.01 -2.501,-0.321 -0.409,-0.172 -0.989,-0.557 -1.766,-1.153 -1.486,-1.132 -3.075,-1.596 -4.78,-1.407 -0.79,0.085 -1.624,0.541 -2.479,1.347 -0.195,0.194 -0.751,0.82 -1.663,1.892 -2.795,2.976 -5.95,3.567 -9.498,1.768 -0.381,-0.177 -0.736,-0.384 -1.068,-0.611 -1.122,-0.848 -1.814,-1.339 -2.047,-1.487 -1.009,-0.6 -1.922,-0.862 -2.71,-0.775 -1.708,0.187 -3.157,0.984 -4.377,2.41 -0.631,0.75 -1.112,1.251 -1.461,1.508 -0.644,0.462 -1.44,0.752 -2.372,0.854 -0.844,0.094 -1.657,-0.033 -2.435,-0.388 -0.46,-0.222 -1.102,-0.646 -1.938,-1.266 -0.822,-0.619 -1.462,-1.044 -1.923,-1.268 -0.779,-0.365 -1.577,-0.495 -2.395,-0.406 -1.217,0.135 -2.501,0.986 -3.868,2.542 -0.694,0.816 -1.216,1.353 -1.55,1.605 -0.61,0.519 -1.247,0.804 -1.893,0.875 -1.792,0.196 -3.154,-0.191 -4.116,-1.146 -0.355,-0.35 -0.892,-1.133 -1.622,-2.372 l 12.163,-14.242 c 16.859,-0.63 34.407,-2.366 52.649,-5.188 l 0,0 z"
         id="path1775" />
      <path
         inkscape:connector-curvature="0"
         style="fill:#df5d91"
         d="m 443.946,433.375 c 0.845,-0.777 1.652,-1.215 2.44,-1.3 1.661,-0.182 3.235,0.271 4.701,1.343 0.759,0.57 1.336,0.926 1.731,1.103 0.714,0.298 1.537,0.396 2.455,0.294 0.814,-0.087 1.568,-0.388 2.237,-0.883 0.402,-0.302 0.937,-0.843 1.595,-1.597 0.657,-0.75 1.194,-1.289 1.582,-1.579 0.669,-0.508 1.407,-0.806 2.223,-0.896 1.189,-0.13 2.612,0.396 4.247,1.564 0.837,0.622 1.446,1.016 1.827,1.193 0.692,0.344 1.345,0.491 1.99,0.419 0.045,-0.004 0.087,-0.009 0.129,-0.013 0.931,-0.116 1.719,-0.346 2.329,-0.719 0.533,-0.307 0.952,-0.713 1.261,-1.2 0.276,-0.405 0.63,-1.271 1.054,-2.577 l -15.398,-8.54 c -15.612,6.96 -31.084,8.61 -46.395,4.952 l -12.913,11.768 c 0.697,1.188 1.232,1.956 1.573,2.294 0.42,0.408 0.918,0.713 1.491,0.896 0.675,0.216 1.482,0.286 2.385,0.203 0.06,-0.006 0.114,-0.012 0.187,-0.021 0.646,-0.07 1.253,-0.354 1.852,-0.843 0.334,-0.253 0.843,-0.775 1.526,-1.559 1.346,-1.498 2.619,-2.316 3.808,-2.446 0.818,-0.09 1.601,0.041 2.351,0.396 0.456,0.196 1.095,0.604 1.9,1.197 0.803,0.595 1.444,1.003 1.903,1.212 0.761,0.34 1.559,0.469 2.377,0.382 0.917,-0.104 1.699,-0.378 2.332,-0.825 0.348,-0.255 0.835,-0.727 1.451,-1.448 1.199,-1.363 2.638,-2.145 4.301,-2.328 0.788,-0.085 1.671,0.165 2.66,0.739 0.266,0.159 1.098,0.75 2.503,1.771 1.999,1.45 4.092,1.218 6.248,-0.686 1.149,-1.299 1.837,-2.055 2.057,-2.266 l 0,0 z"
         id="path1777" />
      <path
         inkscape:connector-curvature="0"
         style="fill:none;stroke:#970f45;stroke-width:2.30699992;stroke-linecap:round;stroke-miterlimit:10"
         d="m 443.946,433.375 c -0.221,0.211 -0.908,0.969 -2.058,2.271 -2.156,1.901 -4.249,2.134 -6.248,0.684 -1.405,-1.021 -2.237,-1.612 -2.503,-1.77 -0.989,-0.576 -1.873,-0.826 -2.663,-0.741 -1.66,0.184 -3.099,0.965 -4.298,2.328 -0.616,0.722 -1.104,1.193 -1.451,1.448 -0.633,0.447 -1.416,0.722 -2.332,0.825 -0.818,0.087 -1.616,-0.042 -2.377,-0.382 -0.459,-0.209 -1.1,-0.617 -1.903,-1.212 -0.805,-0.593 -1.444,-1.001 -1.9,-1.197 -0.75,-0.354 -1.532,-0.485 -2.351,-0.396 -1.189,0.13 -2.462,0.948 -3.808,2.446 -0.684,0.785 -1.192,1.306 -1.526,1.559 -0.599,0.488 -1.206,0.772 -1.852,0.843 -0.072,0.009 -0.127,0.015 -0.187,0.021 -0.903,0.085 -1.71,0.013 -2.385,-0.203 -0.573,-0.184 -1.071,-0.488 -1.491,-0.896 -0.341,-0.338 -0.876,-1.106 -1.573,-2.294 l 12.913,-11.768 c 15.31,3.658 30.782,2.008 46.395,-4.952 l 15.398,8.54 c -0.424,1.306 -0.777,2.172 -1.054,2.577 -0.309,0.487 -0.728,0.894 -1.261,1.2 -0.61,0.373 -1.398,0.603 -2.329,0.719 -0.042,0.004 -0.084,0.009 -0.129,0.015 -0.646,0.07 -1.298,-0.077 -1.99,-0.421 -0.381,-0.178 -0.99,-0.571 -1.827,-1.193 -1.635,-1.168 -3.058,-1.694 -4.247,-1.564 -0.815,0.09 -1.554,0.388 -2.223,0.896 -0.388,0.29 -0.925,0.829 -1.582,1.579 -0.658,0.754 -1.192,1.295 -1.595,1.597 -0.669,0.495 -1.423,0.796 -2.237,0.883 -0.918,0.102 -1.741,0.004 -2.455,-0.294 -0.396,-0.174 -0.973,-0.532 -1.731,-1.103 -1.466,-1.071 -3.04,-1.521 -4.701,-1.341 -0.786,0.081 -1.594,0.519 -2.439,1.296 l 0,0 z"
         id="path1779" />
      <path
         inkscape:connector-curvature="0"
         style="fill:#d04215"
         d="m 468.599,376.051 c -0.159,0.973 -0.061,1.993 0.277,3.04 0.329,1.061 0.973,2.28 1.924,3.661 -0.162,1.308 -0.221,2.425 -0.148,3.356 0.067,1.023 0.267,1.727 0.593,2.139 l 1.434,0.071 c -0.321,-1.21 -0.068,-3.27 0.762,-6.144 -1.654,-2.718 -2.415,-4.779 -2.312,-6.185 0.203,-1.217 1.118,-2.156 2.73,-2.82 1.46,-0.337 2.669,-0.029 3.601,0.945 1.085,1.308 1.77,3.328 2.056,6.091 l -0.813,1.16 c 0.575,0.442 1.427,0.297 2.551,-0.413 3.377,-2.901 6.576,-5.163 9.598,-6.769 2.791,-1.028 4.752,-0.305 5.883,2.172 0.266,1.066 0.035,2.242 -0.736,3.539 -4.945,1.109 -8.391,2.576 -10.312,4.417 0.057,0.927 0.158,1.317 0.307,1.204 3.316,-1.62 6.402,-2.524 9.24,-2.707 1.375,-0.03 2.574,0.259 3.584,0.861 0.988,0.612 1.566,1.502 1.709,2.646 0.143,1.158 -0.07,1.986 -0.643,2.5 -0.785,0.537 -1.881,0.93 -3.281,1.184 -3.316,-0.719 -6.227,-0.533 -8.73,0.543 l 0.449,1.409 c 3.762,-0.487 6.193,-0.419 7.309,0.222 1.373,0.77 2.119,1.753 2.232,2.946 0.113,1.195 -0.248,2.137 -1.072,2.817 -1.781,0.954 -4.891,0.931 -9.311,-0.043 -4.925,1.349 -8.625,0.799 -11.102,-1.651 l -1.31,1.176 c 1.415,1.536 3.044,2.489 4.886,2.879 2.068,0.427 4.738,0.273 8,-0.443 1.986,0.534 3.842,0.878 5.57,1.027 1.781,0.164 3.236,-0.112 4.367,-0.848 L 497.965,400 c 0.039,-0.063 0.062,-0.085 0.109,-0.085 l 0.01,-0.072 c 0.855,-0.653 1.449,-1.342 1.783,-2.078 0.355,-0.758 0.467,-1.688 0.365,-2.784 -0.123,-1.122 -0.471,-2.096 -1.062,-2.911 0.877,-0.246 1.576,-0.604 2.09,-1.043 1.332,-0.983 1.885,-2.561 1.635,-4.758 -0.256,-2.217 -1.244,-3.781 -2.951,-4.704 -0.561,-0.314 -1.092,-0.54 -1.59,-0.646 0.039,-0.062 0.117,-0.188 0.242,-0.359 0.834,-1.259 0.949,-2.904 0.367,-4.952 l -0.086,-0.138 c -0.826,-2.057 -1.988,-3.361 -3.482,-3.898 -1.465,-0.525 -3.355,-0.362 -5.66,0.478 l -0.135,0.073 c -1.504,0.782 -2.848,1.637 -4.02,2.559 -1.234,0.975 -2.643,2.283 -4.203,3.934 -0.146,-1.513 -0.338,-2.707 -0.584,-3.581 -0.286,-1.012 -0.678,-1.786 -1.188,-2.314 -1.567,-1.791 -3.665,-2.396 -6.33,-1.798 l -0.333,0.108 c -2.692,1.097 -4.144,2.775 -4.343,5.02 l 0,0 z"
         id="path1781" />
      <path
         inkscape:connector-curvature="0"
         style="fill:#f18900"
         d="m 473.858,373.168 c -1.612,0.665 -2.527,1.603 -2.73,2.82 -0.104,1.406 0.657,3.466 2.312,6.185 -0.83,2.875 -1.083,4.934 -0.762,6.144 0.596,1.923 1.1,3.388 1.522,4.372 0.62,1.441 1.347,2.632 2.175,3.554 2.477,2.45 6.177,3 11.102,1.651 4.42,0.974 7.529,0.997 9.311,0.043 0.824,-0.681 1.186,-1.622 1.072,-2.817 -0.113,-1.193 -0.859,-2.177 -2.232,-2.946 -1.115,-0.641 -3.547,-0.709 -7.311,-0.222 l -0.447,-1.409 c 2.504,-1.076 5.414,-1.262 8.73,-0.543 1.4,-0.254 2.496,-0.646 3.281,-1.184 0.572,-0.514 0.785,-1.342 0.643,-2.5 -0.143,-1.145 -0.721,-2.034 -1.709,-2.646 -1.01,-0.602 -2.209,-0.891 -3.588,-0.861 -2.834,0.183 -5.92,1.087 -9.236,2.707 -0.148,0.113 -0.25,-0.277 -0.307,-1.204 1.922,-1.841 5.367,-3.307 10.312,-4.417 0.771,-1.297 1.002,-2.473 0.736,-3.539 -1.131,-2.477 -3.092,-3.2 -5.883,-2.172 -3.021,1.606 -6.221,3.867 -9.598,6.769 -1.124,0.71 -1.976,0.855 -2.551,0.413 l 0.813,-1.16 c -0.286,-2.763 -0.971,-4.783 -2.056,-6.091 -0.93,-0.975 -2.139,-1.283 -3.599,-0.947 l 0,0 z"
         id="path1783" />
      <path
         inkscape:connector-curvature="0"
         style="fill:#f18900"
         d="m 388.718,330.781 c 1.385,-0.556 2.756,-1.082 4.131,-1.566 19.314,-6.839 38.278,-7.945 56.881,-3.302 2.28,-3.341 6.533,-5.367 12.735,-6.101 8.122,-0.962 13.722,-3.582 16.837,-7.837 1.74,5.795 0.24,11.138 -4.508,16.029 6.084,-2.404 10.59,-2.034 13.484,1.113 4.109,4.4 8.852,4.503 14.201,0.326 0.291,6.444 -4.002,9.804 -12.895,10.08 4.25,5.315 11.086,7.202 20.516,5.633 -6.143,5.852 -13.562,8.056 -22.273,6.607 2.285,1.942 3.961,3.705 5.014,5.305 2.773,4.229 7.156,6.172 13.152,5.861 -6.623,4.999 -13.922,5.611 -21.885,1.826 2.584,5.314 6.588,8.06 12,8.219 -4.236,4.804 -10.234,6.071 -17.975,3.799 -7.685,7.247 -17.88,12.56 -30.624,15.924 -1.74,0.489 -3.715,0.892 -5.929,1.247 -9.822,1.518 -19.906,2.245 -30.256,2.216 -4.098,-0.015 -7.919,-0.357 -11.44,-1.032 -5.08,-0.986 -9.553,-2.646 -13.422,-4.982 -1.313,-0.812 -3.513,-2.425 -6.604,-4.832 -2.42,1.125 -4.211,1.82 -5.377,2.065 -3.821,0.787 -7.686,-0.175 -11.587,-2.9 4.174,-1.746 6.887,-3.98 8.137,-6.708 -2.936,0.678 -5.548,0.922 -7.851,0.747 -2.811,-0.198 -5.662,-1.178 -8.577,-2.905 4.957,-0.899 8.528,-3.56 10.702,-7.963 0.751,-1.498 1.517,-2.984 2.301,-4.458 -2.348,0.482 -4.659,0.687 -6.911,0.609 -4.47,-0.141 -8.745,-1.849 -12.823,-5.093 9.314,-0.256 15.106,-3.169 17.35,-8.766 -3.705,0.167 -6.514,-0.323 -8.438,-1.472 -1.1,-0.641 -1.943,-1.506 -2.514,-2.586 -0.052,-0.081 -0.088,-0.165 -0.138,-0.233 -0.585,-1.208 -0.886,-2.658 -0.891,-4.351 0.185,0.115 0.37,0.228 0.539,0.343 0.867,0.517 1.699,0.878 2.499,1.112 3.504,1.009 6.525,-0.518 9.046,-4.604 0.937,-1.53 2.735,-3.135 5.381,-4.801 -2.492,-3.326 -3.54,-7.171 -3.128,-11.535 3.309,3.731 6.84,5.535 10.593,5.421 3.769,-0.128 7.274,1.054 10.547,3.545 l 0,0 z"
         id="path1785" />
      <path
         inkscape:connector-curvature="0"
         style="fill:none;stroke:#d04215;stroke-width:2.30679989;stroke-linecap:square;stroke-miterlimit:10"
         d="m 392.85,329.214 c 19.314,-6.839 38.278,-7.945 56.881,-3.302 2.28,-3.341 6.533,-5.367 12.735,-6.101 8.122,-0.962 13.722,-3.583 16.837,-7.837 1.74,5.795 0.24,11.138 -4.508,16.029 6.084,-2.404 10.59,-2.034 13.484,1.113 4.109,4.4 8.852,4.503 14.201,0.326 0.291,6.444 -4.002,9.804 -12.895,10.08 4.25,5.315 11.086,7.202 20.516,5.633 -6.143,5.852 -13.562,8.056 -22.273,6.607 2.285,1.942 3.961,3.705 5.014,5.305 2.773,4.229 7.156,6.172 13.152,5.861 -6.623,4.999 -13.922,5.611 -21.885,1.826 2.584,5.314 6.588,8.06 12,8.219 -4.236,4.804 -10.234,6.071 -17.975,3.799 -7.685,7.247 -17.88,12.558 -30.624,15.924 -1.74,0.489 -3.715,0.892 -5.929,1.247 -9.822,1.518 -19.906,2.245 -30.256,2.216 -4.098,-0.015 -7.919,-0.357 -11.44,-1.032 -5.08,-0.986 -9.553,-2.646 -13.422,-4.982 -1.313,-0.812 -3.513,-2.425 -6.604,-4.832 -2.42,1.125 -4.211,1.82 -5.377,2.065 -3.821,0.787 -7.686,-0.175 -11.587,-2.9 4.174,-1.746 6.887,-3.98 8.137,-6.708 -2.936,0.678 -5.548,0.922 -7.851,0.747 -2.811,-0.198 -5.662,-1.178 -8.577,-2.905 4.957,-0.899 8.528,-3.56 10.702,-7.963 0.751,-1.498 1.517,-2.984 2.301,-4.458 -2.348,0.482 -4.659,0.687 -6.911,0.609 -4.47,-0.141 -8.745,-1.849 -12.823,-5.094 9.314,-0.255 15.106,-3.168 17.35,-8.765 -3.705,0.167 -6.514,-0.323 -8.438,-1.472 -1.1,-0.641 -1.943,-1.506 -2.514,-2.586 -0.052,-0.081 -0.088,-0.165 -0.138,-0.234 -0.585,-1.207 -0.886,-2.658 -0.891,-4.35 0.185,0.115 0.37,0.227 0.539,0.343 0.867,0.517 1.699,0.878 2.499,1.112 3.504,1.009 6.525,-0.518 9.046,-4.604 0.937,-1.53 2.735,-3.135 5.381,-4.801 -2.492,-3.326 -3.54,-7.171 -3.128,-11.535 3.309,3.731 6.84,5.535 10.593,5.421 3.767,-0.128 7.272,1.053 10.545,3.544 1.386,-0.554 2.758,-1.08 4.133,-1.565 l 0,0 z"
         id="path1787" />
      <path
         inkscape:connector-curvature="0"
         style="fill:#ab61a3"
         d="m 374.38,342.424 1.017,1.372 c 0.324,0.449 0.316,0.869 -10e-4,1.289 0.236,-0.036 0.472,-0.1 0.715,-0.194 l 2.1,-0.763 c 1.053,-0.398 1.241,-1.108 0.579,-2.136 -0.439,-0.699 -1.011,-1.329 -1.711,-1.875 l -1.286,-1.971 c -0.783,-1.205 -1.367,-1.081 -1.754,0.358 l -0.746,2.613 c -0.149,0.519 -0.219,1.031 -0.199,1.522 l 0.241,-0.282 c 0.352,-0.407 0.699,-0.38 1.045,0.067 l 0,0 z"
         id="path1789" />
      <path
         inkscape:connector-curvature="0"
         style="fill:#ab61a3"
         d="m 375.397,343.796 -1.017,-1.373 c -0.347,-0.447 -0.694,-0.474 -1.046,-0.067 l -0.241,0.282 -0.819,0.956 -0.157,0.172 c -0.342,0.422 -0.35,0.856 0,1.303 l 1.026,1.371 c 0.275,0.396 0.579,0.471 0.891,0.211 0.04,-0.045 0.08,-0.094 0.135,-0.142 l 1.204,-1.408 c 0.012,-0.016 0.012,-0.016 0.023,-0.017 0.317,-0.419 0.325,-0.839 10e-4,-1.288 l 0,0 z"
         id="path1791" />
      <path
         inkscape:connector-curvature="0"
         style="fill:#ab61a3"
         d="m 373.855,347.521 c 0.089,-0.297 0.144,-0.591 0.178,-0.871 -0.312,0.26 -0.615,0.185 -0.891,-0.211 l -1.026,-1.371 c -0.35,-0.446 -0.342,-0.881 0,-1.303 l 0.157,-0.172 c -0.395,-0.052 -0.803,-0.002 -1.237,0.137 l -2.136,0.738 c -1.18,0.409 -1.307,1.159 -0.388,2.221 l 1.468,1.708 c 0.299,0.915 0.723,1.688 1.272,2.334 0.793,0.957 1.404,0.744 1.824,-0.639 l 0.779,-2.571 0,0 z"
         id="path1793" />
      <path
         inkscape:connector-curvature="0"
         style="fill:none;stroke:#633791;stroke-width:1.73010004;stroke-linecap:round;stroke-linejoin:round;stroke-miterlimit:10"
         d="m 375.396,345.085 c 0.317,-0.42 0.325,-0.84 10e-4,-1.289 l -1.017,-1.373 c -0.347,-0.447 -0.694,-0.474 -1.048,-0.067 l -0.239,0.282 m 0,0 c -0.02,-0.491 0.05,-1.003 0.199,-1.522 l 0.744,-2.613 c 0.389,-1.438 0.973,-1.562 1.756,-0.358 l 1.286,1.971 c 0.701,0.547 1.272,1.177 1.711,1.875 0.662,1.028 0.474,1.738 -0.579,2.136 l -2.1,0.763 c -0.243,0.095 -0.479,0.158 -0.715,0.194 m -1.361,1.566 c -0.034,0.28 -0.089,0.574 -0.178,0.871 l -0.779,2.572 c -0.419,1.383 -1.03,1.596 -1.824,0.639 -0.549,-0.647 -0.973,-1.419 -1.274,-2.334 l -1.466,-1.708 c -0.919,-1.062 -0.792,-1.812 0.388,-2.221 l 2.136,-0.738 c 0.434,-0.14 0.842,-0.189 1.237,-0.137 m 3.122,1.491 c -0.011,0 -0.011,0 -0.023,0.016 l -1.204,1.408 c -0.056,0.048 -0.095,0.096 -0.135,0.142 m 0,-0.001 c -0.31,0.26 -0.615,0.185 -0.891,-0.211 l -1.026,-1.371 c -0.35,-0.446 -0.342,-0.881 0,-1.303 l 0.157,-0.172 m 0,0 0.819,-0.956"
         id="path1795" />
      <path
         inkscape:connector-curvature="0"
         style="fill:#9dc517"
         d="m 465.926,334.055 -0.993,1.549 c -0.319,0.505 -0.225,0.917 0.256,1.266 -0.303,0.012 -0.607,-0.004 -0.931,-0.049 l -2.766,-0.334 c -1.391,-0.182 -1.768,-0.843 -1.145,-1.983 0.411,-0.774 0.997,-1.507 1.762,-2.183 l 1.212,-2.19 c 0.735,-1.339 1.489,-1.333 2.259,0.004 l 1.441,2.419 c 0.289,0.482 0.478,0.971 0.549,1.458 l -0.354,-0.229 c -0.52,-0.33 -0.946,-0.236 -1.29,0.272 l 0,0 z"
         id="path1797" />
      <path
         inkscape:connector-curvature="0"
         style="fill:#9dc517"
         d="m 464.933,335.604 0.993,-1.549 c 0.344,-0.508 0.771,-0.603 1.291,-0.271 l 0.354,0.228 1.212,0.776 0.229,0.139 c 0.51,0.346 0.604,0.772 0.259,1.279 l -1.009,1.551 c -0.265,0.444 -0.628,0.577 -1.065,0.383 -0.061,-0.038 -0.122,-0.075 -0.196,-0.113 l -1.782,-1.146 c -0.015,-0.014 -0.015,-0.014 -0.028,-0.012 -0.483,-0.347 -0.578,-0.759 -0.258,-1.265 l 0,0 z"
         id="path1799" />
      <path
         inkscape:connector-curvature="0"
         style="fill:#9dc517"
         d="m 467.588,338.96 c -0.168,-0.274 -0.297,-0.553 -0.393,-0.819 0.438,0.193 0.801,0.061 1.065,-0.383 l 1.009,-1.551 c 0.346,-0.507 0.251,-0.933 -0.259,-1.279 l -0.229,-0.139 c 0.481,-0.129 0.999,-0.161 1.569,-0.109 l 2.805,0.303 c 1.549,0.167 1.855,0.878 0.922,2.104 l -1.488,1.969 c -0.191,0.958 -0.565,1.801 -1.122,2.544 -0.802,1.098 -1.604,1.011 -2.399,-0.266 l -1.48,-2.374 0,0 z"
         id="path1801" />
      <path
         inkscape:connector-curvature="0"
         style="fill:none;stroke:#388e36;stroke-width:1.73010004;stroke-linecap:round;stroke-linejoin:round;stroke-miterlimit:10"
         d="m 465.188,336.87 c -0.48,-0.348 -0.575,-0.76 -0.256,-1.266 l 0.993,-1.549 c 0.344,-0.508 0.771,-0.603 1.291,-0.271 l 0.354,0.228 m 0,0 c -0.071,-0.486 -0.26,-0.976 -0.549,-1.457 l -1.441,-2.42 c -0.77,-1.336 -1.523,-1.343 -2.259,-0.004 l -1.212,2.191 c -0.765,0.675 -1.351,1.407 -1.762,2.182 -0.623,1.14 -0.246,1.801 1.145,1.983 l 2.766,0.334 c 0.323,0.045 0.628,0.061 0.931,0.049 m 2.006,1.271 c 0.096,0.267 0.225,0.545 0.39,0.819 l 1.483,2.374 c 0.795,1.276 1.598,1.364 2.399,0.266 0.557,-0.743 0.931,-1.586 1.122,-2.544 l 1.488,-1.969 c 0.934,-1.226 0.627,-1.937 -0.922,-2.104 l -2.805,-0.303 c -0.57,-0.051 -1.088,-0.021 -1.569,0.109 m -3.593,2.081 c 0.014,-10e-4 0.014,-10e-4 0.028,0.012 l 1.782,1.146 c 0.074,0.038 0.136,0.075 0.196,0.113 m 10e-4,0 c 0.438,0.193 0.801,0.061 1.065,-0.383 l 1.009,-1.551 c 0.346,-0.507 0.251,-0.933 -0.259,-1.279 l -0.229,-0.139 m 10e-4,-10e-4 -1.212,-0.776"
         id="path1803" />
      <path
         inkscape:connector-curvature="0"
         style="fill:#82110c"
         d="m 382.094,367.134 c 5.446,2.718 12.367,4.453 20.761,5.176 4.771,0.418 9.458,0.425 14.06,0.021 4.618,-0.407 9.23,-1.234 13.854,-2.48 8.138,-2.179 14.65,-5.099 19.536,-8.728 -9.881,8.99 -20.904,13.886 -33.048,14.708 -12.138,1.316 -23.847,-1.577 -35.163,-8.697 l 0,0 z"
         id="path1805" />
      <path
         inkscape:connector-curvature="0"
         style="fill:#ffffff"
         d="m 412.426,312.267 c 3.587,-4.469 8.188,-6.945 13.804,-7.44 5.601,-0.493 10.565,1.14 14.877,4.913 4.33,3.773 6.75,8.583 7.262,14.398 0.511,5.818 -1.033,10.961 -4.638,15.403 -3.584,4.485 -8.186,6.974 -13.787,7.467 -5.613,0.495 -10.579,-1.151 -14.893,-4.939 -4.325,-3.744 -6.744,-8.54 -7.256,-14.355 -0.512,-5.818 1.032,-10.976 4.631,-15.447 l 0,0 z"
         id="path1807" />
      <path
         inkscape:connector-curvature="0"
         style="fill:#ffffff"
         d="m 396.498,307.881 c 5.398,-0.474 10.184,1.13 14.347,4.83 4.162,3.7 6.501,8.416 7.005,14.117 0.504,5.716 -0.979,10.74 -4.433,15.083 -3.448,4.399 -7.879,6.83 -13.281,7.306 -5.398,0.476 -10.187,-1.143 -14.367,-4.871 -4.158,-3.671 -6.496,-8.359 -6.999,-14.073 -0.501,-5.702 0.978,-10.753 4.426,-15.125 3.467,-4.374 7.899,-6.791 13.302,-7.267 l 0,0 z"
         id="path1809" />
      <path
         inkscape:connector-curvature="0"
         style="fill:#101010"
         d="m 382.195,327.475 c 1.07,-1.759 2.563,-2.84 4.478,-3.242 1.922,-0.416 3.709,-0.052 5.359,1.096 1.665,1.16 2.694,2.747 3.092,4.788 0.414,2.04 0.09,3.938 -0.97,5.681 -1.07,1.759 -2.548,2.838 -4.461,3.24 -1.91,0.416 -3.698,0.051 -5.349,-1.097 -1.66,-1.133 -2.692,-2.733 -3.093,-4.788 -0.427,-2.038 -0.115,-3.936 0.944,-5.678 l 0,0 z"
         id="path1811" />
      <path
         inkscape:connector-curvature="0"
         style="fill:#101010"
         d="m 414.27,325.75 c 1.157,-1.854 2.767,-2.995 4.827,-3.421 2.074,-0.444 3.997,-0.063 5.77,1.14 1.789,1.217 2.894,2.887 3.322,5.034 0.438,2.147 0.085,4.147 -1.059,5.985 -1.156,1.853 -2.75,2.992 -4.814,3.419 -2.058,0.442 -3.982,0.062 -5.755,-1.143 -1.787,-1.189 -2.892,-2.871 -3.319,-5.033 -0.455,-2.146 -0.116,-4.144 1.028,-5.981 l 0,0 z"
         id="path1813" />
      <path
         inkscape:connector-curvature="0"
         style="fill:#5fc2cf"
         d="m 390.316,309.533 c 1.919,-0.877 4.012,-1.424 6.268,-1.623 5.398,-0.476 10.188,1.129 14.347,4.83 0.252,0.224 0.49,0.449 0.729,0.688 0.27,-0.385 0.555,-0.758 0.854,-1.132 3.586,-4.47 8.188,-6.945 13.805,-7.44 5.599,-0.494 10.564,1.139 14.875,4.914 4.33,3.773 6.75,8.582 7.262,14.399 0.194,2.196 0.089,4.291 -0.3,6.278 0.661,-7.281 -1.957,-13.316 -7.847,-18.095 -10.425,-5.32 -20.324,-4.448 -29.702,2.616 -7.333,-3.899 -14.013,-4.801 -20.055,-2.719 -1.922,0.66 -3.776,1.635 -5.561,2.906 l -0.155,-1.738 c 1.636,-1.663 3.46,-2.967 5.48,-3.884 l 0,0 z"
         id="path1815" />
      <path
         inkscape:connector-curvature="0"
         style="fill:#5fc2cf"
         d="m 381.629,317.565 0.963,-0.085 c -1.168,1.376 -2.102,2.776 -2.831,4.201 0.469,-1.431 1.086,-2.803 1.868,-4.116 l 0,0 z"
         id="path1817" />
      <path
         inkscape:connector-curvature="0"
         style="fill:#5fc2cf"
         d="m 382.592,317.48 -0.963,0.085 c 0.491,-0.811 1.042,-1.613 1.657,-2.39 0.494,-0.623 1.009,-1.204 1.55,-1.758 l 0.155,1.738 c -0.273,0.183 -0.543,0.381 -0.814,0.592 -0.573,0.573 -1.103,1.154 -1.585,1.733 l 0,0 z"
         id="path1819" />
      <path
         inkscape:connector-curvature="0"
         style="fill:#ab6514"
         d="m 393.247,306.02 c 0.519,-0.509 1.103,-0.488 1.717,0.08 l 4.747,4.286 2.837,-4.432 c 0.04,-0.048 0.095,-0.083 0.149,-0.114 0.562,-0.37 1.206,-0.122 1.959,0.737 l 5.695,5.636 6.278,-6.285 c 1.158,-1.158 1.935,-1.689 2.361,-1.611 0.425,0.063 0.745,0.238 0.958,0.523 l 3.008,3.267 5.626,-4.809 c 0.394,-0.324 0.692,-0.54 0.913,-0.66 0.485,-0.246 0.847,-0.249 1.084,-0.024 0.063,0.066 0.161,0.204 0.28,0.395 l 2.694,4.467 6.722,-2.895 c 0.528,-0.263 0.889,-0.41 1.09,-0.442 0.916,-0.123 1.336,0.374 1.273,1.493 l -0.278,4.874 7.929,-1.175 c 0.688,-0.089 1.013,0.143 0.987,0.695 -0.004,0.116 -0.034,0.264 -0.075,0.427 l -2.231,5.914 7.382,1.983 c 0.658,0.218 0.665,0.636 0.011,1.257 l -6.066,5.239 6.266,4.919 c 1.333,1.156 1.43,1.93 0.294,2.333 -0.153,0.058 -0.338,0.103 -0.567,0.136 l -8.897,1.205 c 0.227,-1.236 0.321,-2.591 0.295,-4.05 -0.04,-2.268 -0.489,-4.414 -1.35,-6.437 -0.89,-2.049 -2.082,-3.926 -3.605,-5.616 -1.492,-1.649 -3.168,-3.093 -5.041,-4.304 -0.015,-0.014 -0.029,-0.011 -0.047,-0.025 -1.887,-1.237 -3.936,-2.128 -6.138,-2.671 -0.104,-0.021 -0.194,-0.042 -0.267,-0.064 -2.097,-0.481 -4.237,-0.597 -6.397,-0.335 -2.047,0.253 -4.063,0.721 -6.013,1.428 -0.181,0.06 -0.349,0.132 -0.516,0.191 -2.118,0.793 -3.967,1.81 -5.563,3.065 -0.326,0.247 -0.626,0.476 -0.882,0.687 -0.5,0.405 -0.919,0.731 -1.246,0.978 -0.266,-0.209 -0.663,-0.463 -1.182,-0.764 -0.26,-0.166 -0.566,-0.341 -0.916,-0.528 -1.705,-0.964 -3.605,-1.651 -5.71,-2.074 -0.162,-0.028 -0.339,-0.07 -0.515,-0.098 -1.942,-0.364 -3.892,-0.483 -5.838,-0.384 -2.018,0.105 -3.945,0.565 -5.77,1.363 -0.125,0.054 -0.252,0.109 -0.375,0.163 -1.962,0.911 -3.72,2.137 -5.28,3.679 -1.559,1.526 -2.885,3.235 -3.991,5.127 -0.843,1.436 -1.373,2.972 -1.593,4.599 -0.542,4.173 0.18,8.119 2.157,11.823 l -6.499,0.008 c -0.157,0 -0.29,-0.018 -0.424,-0.049 -0.872,-0.228 -1.02,-0.938 -0.45,-2.146 l 4.161,-5.679 -5.528,-4.593 c -0.28,-0.395 -0.293,-0.698 -0.023,-0.923 l 5.971,-3.19 c -0.605,-1.119 -1.406,-2.655 -2.386,-4.596 -0.16,-0.318 -0.333,-0.65 -0.507,-0.997 -0.017,-0.027 -0.021,-0.055 -0.038,-0.098 -0.073,-0.152 -0.127,-0.292 -0.152,-0.405 -0.187,-0.649 0.135,-0.938 0.936,-0.879 l 6.456,0.185 -0.479,-5.429 c -0.073,-0.848 0.27,-1.225 1.045,-1.134 0.175,0.013 0.366,0.054 0.574,0.108 l 6.149,1.79 2.43,-4.629 c 0.109,-0.202 0.254,-0.373 0.401,-0.516 l 0,0 z"
         id="path1821" />
      <path
         inkscape:connector-curvature="0"
         style="fill:#e7467d"
         d="m 403.474,341.594 c 1.602,-1.386 3.615,-2.185 6.042,-2.4 2.458,-0.215 4.593,0.218 6.428,1.303 1.817,1.098 2.808,2.501 2.961,4.211 0.152,1.737 -0.578,3.307 -2.178,4.692 -1.614,1.403 -3.642,2.203 -6.097,2.42 -2.427,0.213 -4.551,-0.222 -6.37,-1.321 -1.846,-1.081 -2.841,-2.5 -2.994,-4.237 -0.149,-1.71 0.581,-3.265 2.208,-4.668 l 0,0 z"
         id="path1823" />
      <path
         inkscape:connector-curvature="0"
         style="fill:#f18900"
         d="m 418.853,403.594 5.103,3.104 14.835,-2.788 3.423,-4.651 -2.429,-12.908 c -8.22,-0.562 -15.999,0.896 -23.354,4.378 l 2.422,12.865 0,0 z"
         id="path1825" />
      <path
         inkscape:connector-curvature="0"
         style="fill:#fbe000"
         d="m 412.161,396.724 c -0.099,-0.091 -0.193,-0.149 -0.268,-0.179 -0.284,-0.109 -0.453,0.058 -0.5,0.498 l -0.313,2.323 -2.334,1.371 c -0.459,0.287 -0.496,0.545 -0.13,0.764 0.045,0.017 0.092,0.046 0.138,0.073 l 0.255,0.124 c 0.021,0.017 0.049,0.027 0.082,0.05 0.1,0.041 0.219,0.091 0.326,0.153 0.341,0.157 0.677,0.331 1.028,0.51 0.047,0.031 0.105,0.054 0.158,0.068 l 0.501,0.248 0.563,2.325 c 0.023,0.228 0.077,0.388 0.158,0.47 0.13,0.079 0.323,0.025 0.572,-0.187 l 1.986,-2.104 h 0.037 c 0.474,0.017 0.94,0.039 1.414,0.06 l 1.286,0.033 0.171,0.003 c 0.517,-0.046 0.633,-0.299 0.318,-0.734 l -1.311,-2.071 0.862,-2.471 c 0.106,-0.269 0.115,-0.452 0.015,-0.543 -0.103,-0.08 -0.285,-0.086 -0.539,-0.03 l -2.623,0.678 -0.047,-0.03 -1.805,-1.402 0,0 z"
         id="path1827" />
      <path
         inkscape:connector-curvature="0"
         style="fill:#fbe000"
         d="m 417.252,403.329 c 0.015,0.006 0.025,0 0.038,-0.002 l -0.171,-0.003 0.133,0.005 0,0 z"
         id="path1829" />
      <path
         inkscape:connector-curvature="0"
         style="fill:none;stroke:#6b7d27;stroke-width:1.33050001;stroke-linecap:round;stroke-linejoin:round;stroke-miterlimit:10"
         d="m 412.161,396.724 1.805,1.401 0.047,0.03 2.623,-0.678 c 0.254,-0.056 0.437,-0.05 0.539,0.03 0.101,0.091 0.092,0.274 -0.015,0.543 l -0.862,2.471 1.311,2.071 c 0.314,0.436 0.199,0.688 -0.318,0.734 l -0.171,-0.003 -1.286,-0.033 c -0.474,-0.021 -0.94,-0.043 -1.414,-0.06 h -0.037 l -1.986,2.104 c -0.249,0.212 -0.441,0.266 -0.572,0.187 -0.081,-0.082 -0.134,-0.242 -0.158,-0.47 l -0.563,-2.325 -0.501,-0.25 c -0.052,-0.013 -0.111,-0.035 -0.158,-0.066 -0.351,-0.179 -0.687,-0.353 -1.028,-0.51 -0.107,-0.062 -0.227,-0.112 -0.326,-0.153 -0.033,-0.022 -0.062,-0.033 -0.082,-0.05 l -0.255,-0.124 c -0.046,-0.027 -0.093,-0.057 -0.138,-0.073 -0.366,-0.219 -0.329,-0.477 0.13,-0.764 l 2.334,-1.371 0.313,-2.323 c 0.047,-0.44 0.216,-0.607 0.5,-0.498 0.074,0.03 0.169,0.089 0.268,0.18 l 0,0 z"
         id="path1831" />
      <path
         inkscape:connector-curvature="0"
         style="fill:#fbe000"
         d="m 446.91,390.194 c 0.059,-0.122 0.125,-0.208 0.183,-0.263 0.228,-0.203 0.447,-0.111 0.648,0.28 l 1.135,2.052 2.673,0.43 c 0.533,0.1 0.659,0.322 0.398,0.662 -0.033,0.033 -0.066,0.076 -0.101,0.119 l -0.194,0.207 c -0.012,0.023 -0.033,0.043 -0.056,0.077 -0.081,0.075 -0.17,0.163 -0.251,0.263 -0.26,0.271 -0.511,0.555 -0.771,0.848 -0.034,0.044 -0.078,0.088 -0.122,0.117 l -0.375,0.418 0.317,2.364 c 0.063,0.227 0.07,0.392 0.022,0.502 -0.09,0.12 -0.29,0.139 -0.599,0.033 l -2.615,-1.239 -0.03,0.012 c -0.436,0.191 -0.863,0.38 -1.3,0.571 l -1.186,0.497 -0.154,0.063 c -0.502,0.146 -0.698,-0.045 -0.566,-0.565 l 0.467,-2.41 -1.699,-1.98 c -0.195,-0.217 -0.27,-0.384 -0.213,-0.504 0.07,-0.111 0.238,-0.185 0.495,-0.227 l 2.688,-0.322 0.038,-0.043 1.168,-1.962 0,0 z"
         id="path1833" />
      <path
         inkscape:connector-curvature="0"
         style="fill:#fbe000"
         d="m 444.564,398.198 c -0.01,0.01 -0.021,0.01 -0.03,0.01 l 0.154,-0.063 -0.124,0.053 0,0 z"
         id="path1835" />
      <path
         inkscape:connector-curvature="0"
         style="fill:none;stroke:#6b7d27;stroke-width:1.33029997;stroke-linecap:round;stroke-linejoin:round;stroke-miterlimit:10"
         d="m 446.91,390.194 -1.168,1.962 -0.038,0.043 -2.688,0.322 c -0.256,0.042 -0.424,0.115 -0.495,0.227 -0.056,0.12 0.019,0.287 0.213,0.504 l 1.699,1.98 -0.467,2.41 c -0.132,0.521 0.064,0.711 0.566,0.565 l 0.154,-0.063 1.186,-0.497 c 0.437,-0.191 0.864,-0.38 1.3,-0.571 l 0.03,-0.012 2.615,1.239 c 0.309,0.105 0.509,0.087 0.599,-0.033 0.048,-0.11 0.041,-0.275 -0.022,-0.502 l -0.317,-2.364 0.375,-0.418 c 0.044,-0.029 0.088,-0.073 0.122,-0.117 0.26,-0.293 0.511,-0.576 0.771,-0.848 0.081,-0.1 0.17,-0.188 0.251,-0.263 0.022,-0.034 0.044,-0.054 0.056,-0.077 l 0.194,-0.207 c 0.034,-0.043 0.067,-0.086 0.101,-0.119 0.261,-0.34 0.135,-0.562 -0.398,-0.662 l -2.673,-0.43 -1.135,-2.052 c -0.201,-0.392 -0.421,-0.483 -0.648,-0.28 -0.058,0.055 -0.124,0.141 -0.183,0.263 l 0,0 z"
         id="path1837" />
      <path
         inkscape:connector-curvature="0"
         style="fill:#ce2120"
         d="m 420.491,402.306 c -0.146,-0.777 -0.541,-1.393 -1.183,-1.845 -0.653,-0.435 -1.383,-0.575 -2.163,-0.431 -0.779,0.147 -1.38,0.541 -1.818,1.181 -0.464,0.659 -0.621,1.376 -0.475,2.155 0.153,0.808 0.564,1.436 1.229,1.852 0.646,0.467 1.35,0.628 2.129,0.483 0.78,-0.147 1.406,-0.562 1.851,-1.23 0.442,-0.624 0.584,-1.358 0.43,-2.165 l 0,0 z"
         id="path1839" />
      <path
         inkscape:connector-curvature="0"
         style="fill:none;stroke:#921113;stroke-width:1.73010004;stroke-linecap:round;stroke-linejoin:round;stroke-miterlimit:10"
         d="m 420.491,402.306 c 0.153,0.808 0.012,1.541 -0.43,2.165 -0.445,0.669 -1.071,1.083 -1.851,1.23 -0.779,0.145 -1.483,-0.017 -2.129,-0.483 -0.665,-0.416 -1.076,-1.044 -1.229,-1.852 -0.146,-0.779 0.011,-1.496 0.475,-2.155 0.436,-0.64 1.039,-1.033 1.818,-1.181 0.78,-0.145 1.51,-0.004 2.163,0.431 0.643,0.452 1.038,1.067 1.183,1.845 l 0,0 z"
         id="path1841" />
      <path
         inkscape:connector-curvature="0"
         style="fill:#ce2120"
         d="m 446.404,397.426 c -0.146,-0.779 -0.54,-1.393 -1.184,-1.845 -0.653,-0.435 -1.385,-0.573 -2.163,-0.429 -0.78,0.145 -1.383,0.537 -1.818,1.177 -0.464,0.661 -0.621,1.379 -0.474,2.159 0.151,0.807 0.563,1.435 1.229,1.851 0.644,0.467 1.349,0.628 2.13,0.483 0.777,-0.149 1.405,-0.56 1.852,-1.231 0.439,-0.625 0.58,-1.358 0.428,-2.165 l 0,0 z"
         id="path1843" />
      <path
         inkscape:connector-curvature="0"
         style="fill:none;stroke:#921113;stroke-width:1.73010004;stroke-linecap:round;stroke-linejoin:round;stroke-miterlimit:10"
         d="m 446.404,397.426 c 0.151,0.808 0.011,1.54 -0.429,2.165 -0.446,0.672 -1.074,1.082 -1.852,1.231 -0.781,0.145 -1.486,-0.017 -2.13,-0.483 -0.665,-0.416 -1.078,-1.044 -1.229,-1.851 -0.146,-0.78 0.01,-1.498 0.474,-2.159 0.435,-0.64 1.038,-1.032 1.818,-1.177 0.778,-0.145 1.51,-0.006 2.163,0.429 0.645,0.452 1.039,1.065 1.185,1.845 l 0,0 z"
         id="path1845" />
      <path
         inkscape:connector-curvature="0"
         style="fill:#6f53a0"
         d="m 426.023,403.824 c -0.148,-0.779 -0.542,-1.395 -1.187,-1.847 -0.653,-0.435 -1.383,-0.573 -2.163,-0.429 -0.779,0.147 -1.379,0.539 -1.817,1.179 -0.464,0.659 -0.622,1.378 -0.474,2.159 0.152,0.806 0.563,1.432 1.228,1.851 0.645,0.466 1.35,0.627 2.128,0.479 0.78,-0.147 1.406,-0.556 1.854,-1.229 0.44,-0.624 0.582,-1.355 0.431,-2.163 l 0,0 z"
         id="path1847" />
      <path
         inkscape:connector-curvature="0"
         style="fill:none;stroke:#352082;stroke-width:1.73010004;stroke-linecap:round;stroke-linejoin:round;stroke-miterlimit:10"
         d="m 426.023,403.824 c 0.151,0.808 0.009,1.539 -0.43,2.163 -0.448,0.673 -1.074,1.081 -1.854,1.229 -0.779,0.148 -1.483,-0.013 -2.128,-0.479 -0.665,-0.419 -1.076,-1.045 -1.228,-1.851 -0.147,-0.781 0.01,-1.5 0.474,-2.159 0.438,-0.64 1.038,-1.031 1.817,-1.179 0.78,-0.145 1.51,-0.006 2.163,0.429 0.644,0.453 1.038,1.068 1.186,1.847 l 0,0 z"
         id="path1849" />
      <path
         inkscape:connector-curvature="0"
         style="fill:#9dc517"
         d="m 440.775,398.94 c -0.655,-0.433 -1.385,-0.572 -2.163,-0.428 -0.779,0.147 -1.381,0.539 -1.817,1.178 -0.464,0.661 -0.624,1.38 -0.475,2.159 0.15,0.806 0.562,1.436 1.229,1.853 0.645,0.466 1.349,0.627 2.128,0.479 0.78,-0.147 1.407,-0.556 1.852,-1.229 0.44,-0.624 0.58,-1.355 0.431,-2.163 -0.147,-0.779 -0.543,-1.396 -1.185,-1.849 l 0,0 z"
         id="path1851" />
      <path
         inkscape:connector-curvature="0"
         style="fill:none;stroke:#388e36;stroke-width:1.73010004;stroke-linecap:round;stroke-linejoin:round;stroke-miterlimit:10"
         d="m 440.775,398.94 c 0.642,0.452 1.035,1.069 1.185,1.849 0.149,0.808 0.009,1.539 -0.431,2.163 -0.445,0.673 -1.072,1.081 -1.852,1.229 -0.779,0.148 -1.483,-0.013 -2.128,-0.479 -0.666,-0.417 -1.078,-1.047 -1.229,-1.853 -0.149,-0.779 0.01,-1.498 0.472,-2.159 0.438,-0.639 1.041,-1.03 1.818,-1.178 0.78,-0.144 1.511,-0.004 2.165,0.428 l 0,0 z"
         id="path1853" />
      <path
         inkscape:connector-curvature="0"
         style="fill:#fbe000"
         d="m 431.299,400.401 c -0.102,-0.141 -0.209,-0.24 -0.292,-0.297 -0.335,-0.215 -0.598,-0.052 -0.772,0.498 l -1.013,2.873 -3.339,1.127 c -0.661,0.243 -0.775,0.558 -0.369,0.937 0.051,0.033 0.105,0.081 0.157,0.133 l 0.292,0.222 c 0.021,0.025 0.054,0.05 0.089,0.087 0.119,0.081 0.255,0.172 0.377,0.28 0.393,0.296 0.773,0.604 1.17,0.924 0.055,0.048 0.122,0.095 0.186,0.126 l 0.569,0.452 0.101,3.104 c -0.031,0.303 -0.006,0.518 0.078,0.648 0.144,0.133 0.404,0.116 0.778,-0.087 l 3.085,-2.153 0.046,0.007 c 0.601,0.153 1.187,0.307 1.787,0.458 l 1.627,0.381 0.216,0.048 c 0.673,0.081 0.883,-0.209 0.601,-0.846 l -1.117,-2.987 1.755,-2.913 c 0.205,-0.317 0.263,-0.549 0.164,-0.689 -0.114,-0.125 -0.344,-0.185 -0.68,-0.183 l -3.52,0.164 -0.054,-0.048 -1.922,-2.266 0,0 z"
         id="path1855" />
      <path
         inkscape:connector-curvature="0"
         style="fill:#fbe000"
         d="m 436.024,410.162 c 0.017,0.014 0.031,0.01 0.046,0.006 l -0.216,-0.048 0.17,0.042 0,0 z"
         id="path1857" />
      <path
         inkscape:connector-curvature="0"
         style="fill:none;stroke:#6b7d27;stroke-width:1.73010004;stroke-linecap:round;stroke-linejoin:round;stroke-miterlimit:10"
         d="m 431.299,400.401 1.92,2.265 0.054,0.048 3.52,-0.164 c 0.336,-0.002 0.566,0.058 0.68,0.183 0.1,0.141 0.042,0.372 -0.164,0.689 l -1.755,2.913 1.117,2.987 c 0.283,0.637 0.073,0.927 -0.601,0.846 l -0.216,-0.048 -1.627,-0.381 c -0.6,-0.151 -1.186,-0.305 -1.787,-0.458 l -0.046,-0.007 -3.085,2.153 c -0.374,0.203 -0.634,0.22 -0.778,0.087 -0.084,-0.131 -0.109,-0.346 -0.078,-0.648 l -0.101,-3.104 -0.569,-0.452 c -0.063,-0.031 -0.13,-0.078 -0.186,-0.126 -0.396,-0.319 -0.777,-0.628 -1.17,-0.924 -0.122,-0.108 -0.258,-0.199 -0.377,-0.28 -0.035,-0.037 -0.069,-0.062 -0.089,-0.087 l -0.292,-0.222 c -0.051,-0.052 -0.105,-0.1 -0.157,-0.133 -0.406,-0.379 -0.292,-0.693 0.369,-0.937 l 3.338,-1.127 1.014,-2.873 c 0.175,-0.55 0.437,-0.713 0.772,-0.498 0.084,0.058 0.192,0.158 0.294,0.298 l 0,0 z"
         id="path1859" />
      <path
         inkscape:connector-curvature="0"
         style="fill:#d04215"
         d="m 377.55,408.372 c 0.911,0.37 1.729,0.988 2.447,1.82 0.73,0.835 1.438,2.021 2.12,3.55 1.203,0.542 2.184,1.075 2.944,1.622 0.839,0.59 1.334,1.129 1.518,1.622 l -0.692,1.26 c -0.864,-0.905 -2.751,-1.759 -5.639,-2.553 -1.455,-2.828 -2.819,-4.552 -4.073,-5.196 -1.145,-0.46 -2.421,-0.168 -3.828,0.862 -1.051,1.073 -1.417,2.263 -1.072,3.565 0.55,1.607 1.919,3.242 4.129,4.929 l 1.413,-0.089 c 0.078,0.721 -0.492,1.371 -1.678,1.96 -4.239,1.372 -7.839,2.926 -10.78,4.666 -2.333,1.846 -2.739,3.899 -1.214,6.153 0.772,0.783 1.896,1.197 3.407,1.214 3.525,-3.643 6.567,-5.817 9.143,-6.499 0.763,0.532 1.042,0.82 0.866,0.889 -3.11,1.991 -5.489,4.152 -7.124,6.475 -0.742,1.16 -1.121,2.333 -1.132,3.508 0.005,1.162 0.465,2.121 1.364,2.84 0.916,0.726 1.733,0.974 2.468,0.752 0.871,-0.387 1.777,-1.12 2.722,-2.184 1.118,-3.203 2.793,-5.59 5.014,-7.166 l 0.969,1.116 c -2.372,2.957 -3.584,5.07 -3.618,6.354 -0.06,1.577 0.39,2.723 1.352,3.439 0.96,0.721 1.952,0.901 2.961,0.558 1.745,-1.023 3.343,-3.692 4.816,-7.973 3.719,-3.499 5.176,-6.943 4.375,-10.335 l 1.687,-0.505 c 0.574,2.01 0.54,3.899 -0.089,5.671 -0.714,1.986 -2.235,4.187 -4.549,6.597 -0.58,1.972 -1.25,3.735 -2.025,5.287 -0.789,1.607 -1.784,2.706 -3,3.288 l -0.067,0.048 c -0.072,0 -0.106,0.008 -0.127,0.045 l -0.069,-0.026 c -1.004,0.392 -1.897,0.536 -2.703,0.438 -0.835,-0.093 -1.682,-0.479 -2.567,-1.142 -0.892,-0.686 -1.542,-1.493 -1.932,-2.422 -0.665,0.618 -1.335,1.032 -1.979,1.241 -1.534,0.626 -3.169,0.273 -4.915,-1.086 -1.757,-1.373 -2.576,-3.033 -2.475,-4.97 0.024,-0.641 0.108,-1.212 0.275,-1.693 -0.072,0 -0.221,0 -0.428,0.02 -1.511,0.056 -2.978,-0.707 -4.418,-2.265 l -0.073,-0.147 c -1.326,-1.775 -1.834,-3.449 -1.512,-5.004 0.313,-1.524 1.436,-3.052 3.355,-4.582 l 0.134,-0.079 c 1.452,-0.872 2.883,-1.577 4.277,-2.095 1.474,-0.547 3.325,-1.062 5.55,-1.537 -1.216,-0.916 -2.135,-1.697 -2.754,-2.364 -0.713,-0.772 -1.17,-1.51 -1.356,-2.223 -0.711,-2.269 -0.136,-4.376 1.765,-6.336 l 0.265,-0.228 c 2.341,-1.727 4.529,-2.089 6.552,-1.09 l 0,0 z"
         id="path1861" />
      <path
         inkscape:connector-curvature="0"
         style="fill:#f18900"
         d="m 372.348,411.359 c 1.407,-1.03 2.683,-1.322 3.828,-0.862 1.254,0.645 2.619,2.368 4.073,5.196 2.887,0.794 4.774,1.647 5.639,2.553 1.335,1.513 2.317,2.706 2.941,3.578 0.909,1.28 1.547,2.521 1.898,3.708 0.803,3.392 -0.654,6.836 -4.373,10.335 -1.474,4.28 -3.071,6.949 -4.816,7.973 -1.009,0.344 -2.001,0.163 -2.961,-0.558 -0.961,-0.717 -1.411,-1.862 -1.352,-3.439 0.034,-1.284 1.244,-3.397 3.618,-6.354 l -0.969,-1.116 c -2.221,1.576 -3.896,3.963 -5.014,7.17 -0.945,1.06 -1.851,1.793 -2.722,2.18 -0.735,0.222 -1.552,-0.026 -2.468,-0.752 -0.899,-0.719 -1.359,-1.678 -1.364,-2.84 0.011,-1.175 0.39,-2.348 1.132,-3.508 1.635,-2.322 4.014,-4.483 7.124,-6.475 0.176,-0.068 -0.104,-0.356 -0.866,-0.889 -2.576,0.682 -5.62,2.856 -9.143,6.499 -1.51,-0.017 -2.634,-0.431 -3.407,-1.214 -1.525,-2.254 -1.119,-4.308 1.212,-6.153 2.943,-1.74 6.543,-3.294 10.78,-4.666 1.188,-0.586 1.758,-1.239 1.681,-1.96 l -1.413,0.089 c -2.209,-1.687 -3.579,-3.321 -4.129,-4.929 -0.347,-1.303 0.019,-2.492 1.071,-3.566 l 0,0 z"
         id="path1863" />
    </g>
  </g>
</svg>
