<?xml version="1.0" encoding="UTF-8" standalone="no"?>
<!-- Created with Inkscape (http://www.inkscape.org/) -->

<svg
   xmlns:dc="http://purl.org/dc/elements/1.1/"
   xmlns:cc="http://creativecommons.org/ns#"
   xmlns:rdf="http://www.w3.org/1999/02/22-rdf-syntax-ns#"
   xmlns:svg="http://www.w3.org/2000/svg"
   xmlns="http://www.w3.org/2000/svg"
   xmlns:sodipodi="http://sodipodi.sourceforge.net/DTD/sodipodi-0.dtd"
   xmlns:inkscape="http://www.inkscape.org/namespaces/inkscape"
   width="184.93768"
   height="183.45866"
   id="svg5696"
   version="1.1"
   inkscape:version="0.48.4 r9939"
   sodipodi:docname="zoe7.svg">
  <defs
     id="defs5698">
    <clipPath
       id="SVGID_2_">
      <rect
         height="88.862999"
         width="111.498"
         y="518.96198"
         x="382.04999"
         id="use1087" />
    </clipPath>
    <clipPath
       id="SVGID_4_">
      <rect
         height="41.314999"
         width="49.584999"
         y="525.19397"
         x="389.84698"
         id="use1111" />
    </clipPath>
  </defs>
  <sodipodi:namedview
     id="base"
     pagecolor="#ffffff"
     bordercolor="#666666"
     borderopacity="1.0"
     inkscape:pageopacity="0.0"
     inkscape:pageshadow="2"
     inkscape:zoom="0.77472527"
     inkscape:cx="132.83732"
     inkscape:cy="104.56423"
     inkscape:current-layer="layer1"
     inkscape:document-units="px"
     showgrid="false"
     inkscape:window-width="763"
     inkscape:window-height="591"
     inkscape:window-x="592"
     inkscape:window-y="97"
     inkscape:window-maximized="0"
     fit-margin-top="0"
     fit-margin-left="0"
     fit-margin-right="0"
     fit-margin-bottom="0" />
  <metadata
     id="metadata5701">
    <rdf:RDF>
      <cc:Work
         rdf:about="">
        <dc:format>image/svg+xml</dc:format>
        <dc:type
           rdf:resource="http://purl.org/dc/dcmitype/StillImage" />
        <dc:title></dc:title>
      </cc:Work>
    </rdf:RDF>
  </metadata>
  <g
     id="layer1"
     inkscape:label="Layer 1"
     inkscape:groupmode="layer"
     transform="translate(-185.10598,-6.2119432)">
    <g
       transform="translate(-593.73777,-280.35939)"
       id="g869">
      <path
         inkscape:connector-curvature="0"
         style="fill:#eda1c1"
         d="m 900.699,427.405 -4.715,6.968 22.904,18.062 c 5.041,-2.209 6.928,-5.391 5.654,-9.572 l -23.843,-15.458 0,0 z"
         id="path871" />
      <path
         inkscape:connector-curvature="0"
         style="fill:none;stroke:#df5d91;stroke-width:1.94649994;stroke-linecap:round;stroke-miterlimit:10"
         d="m 895.984,434.373 22.904,18.062 c 5.041,-2.209 6.928,-5.391 5.654,-9.572 l -23.844,-15.458 -4.714,6.968 0,0 z"
         id="path873" />
      <path
         inkscape:connector-curvature="0"
         style="fill:#df5d91"
         d="m 931.25,424.577 c -1.303,0.925 -2.594,2.095 -3.859,3.548 0.609,2.716 1.557,5.285 2.854,7.674 l -2.914,4.189 c -0.889,-1.629 -1.602,-3.342 -2.162,-5.148 -0.193,-0.605 -0.443,-1.513 -0.752,-2.731 -1.666,2.49 -3.18,5.137 -4.547,7.934 0.689,2.206 1.625,4.404 2.818,6.623 l -4.012,5.771 c 1.914,1.718 3.945,3.537 6.09,5.461 10.625,-11.198 16.752,-18.983 18.373,-23.345 1.609,-4.393 1.014,-7.836 -1.816,-10.335 -2.833,-2.501 -6.196,-2.379 -10.073,0.359 l 0,0 z"
         id="path875" />
      <path
         inkscape:connector-curvature="0"
         style="fill:#eda1c1"
         d="m 927.391,428.125 c -1.066,1.29 -2.061,2.614 -2.975,3.983 0.309,1.219 0.559,2.126 0.752,2.731 0.561,1.807 1.273,3.52 2.162,5.148 l 2.914,-4.189 c -1.297,-2.388 -2.244,-4.957 -2.853,-7.673 l 0,0 z"
         id="path877" />
      <path
         inkscape:connector-curvature="0"
         style="fill:none;stroke:#970f45;stroke-width:1.83050001;stroke-linecap:round;stroke-miterlimit:10"
         d="m 924.416,432.108 c -1.666,2.49 -3.18,5.137 -4.547,7.934 0.689,2.206 1.625,4.404 2.818,6.623 l -4.012,5.771 c 1.914,1.718 3.945,3.537 6.09,5.461 10.625,-11.198 16.752,-18.983 18.373,-23.345 1.609,-4.393 1.014,-7.836 -1.816,-10.335 -2.832,-2.5 -6.195,-2.378 -10.072,0.36 -1.303,0.925 -2.594,2.095 -3.859,3.548 m -2.975,3.983 c 0.914,-1.369 1.908,-2.693 2.975,-3.983 m 0,0 c 0.609,2.716 1.557,5.285 2.854,7.674 l -2.914,4.189 c -0.889,-1.629 -1.602,-3.342 -2.162,-5.148 -0.193,-0.605 -0.443,-1.513 -0.752,-2.731"
         id="path879" />
      <path
         inkscape:connector-curvature="0"
         style="fill:#eda1c1"
         d="m 882.768,430.915 -8.641,-0.845 c -2.039,10.02 -5.506,19.56 -10.383,28.653 2.957,4.009 6.529,4.583 10.75,1.724 4.574,-9.334 7.33,-19.182 8.274,-29.532 l 0,0 z"
         id="path881" />
      <path
         inkscape:connector-curvature="0"
         style="fill:none;stroke:#df5d91;stroke-width:2.14829993;stroke-linecap:round;stroke-miterlimit:10"
         d="m 874.127,430.07 c -2.039,10.02 -5.506,19.56 -10.383,28.651 2.957,4.011 6.529,4.585 10.75,1.726 4.574,-9.334 7.33,-19.183 8.273,-29.532 l -8.64,-0.845 0,0 z"
         id="path883" />
      <path
         inkscape:connector-curvature="0"
         style="fill:#f18900"
         d="m 899.752,397.715 -6.285,-8.736 c 15.291,-4.452 26.363,-11.803 33.201,-22.026 4.615,0.752 7.209,3.523 7.762,8.317 -7.809,10.009 -19.364,17.492 -34.678,22.445 l 0,0 z"
         id="path885" />
      <path
         inkscape:connector-curvature="0"
         style="fill:none;stroke:#d04215;stroke-width:2.16160011;stroke-linecap:square;stroke-miterlimit:10"
         d="m 893.467,388.979 c 15.291,-4.452 26.363,-11.803 33.201,-22.026 4.615,0.752 7.209,3.523 7.762,8.317 -7.809,10.01 -19.363,17.492 -34.678,22.445 l -6.285,-8.736 0,0 z"
         id="path887" />
      <path
         inkscape:connector-curvature="0"
         style="fill:#eda1c1"
         d="m 915.227,378.734 c 2.379,1.92 4.287,4.917 5.682,8.999 -6.074,4.098 -13.115,7.422 -21.156,9.982 l -6.285,-8.736 c 8.856,-2.944 16.104,-6.358 21.759,-10.245 l 0,0 z"
         id="path889" />
      <path
         inkscape:connector-curvature="0"
         style="fill:none;stroke:#df5d91;stroke-width:2.16160011;stroke-linecap:square;stroke-miterlimit:10"
         d="m 915.227,378.734 c -5.654,3.887 -12.902,7.301 -21.76,10.245 l 6.285,8.736 c 8.041,-2.561 15.082,-5.885 21.156,-9.982 -1.394,-4.083 -3.303,-7.079 -5.681,-8.999 l 0,0 z"
         id="path891" />
      <polygon
         style="fill:#eda1c1"
         points="895.572,397.819 891.42,390.967 891.42,390.967 895.504,389.583 900.295,396.27 "
         id="polygon893" />
      <path
         inkscape:connector-curvature="0"
         style="fill:#eda1c1"
         d="m 902.373,407.238 c -3.102,-6.004 -6.432,-11.59 -9.955,-16.739 -1.662,1.522 -4.924,3.044 -9.797,4.566 -4.887,1.522 -11.01,0.763 -18.389,-2.296 -2.346,8.618 -3.824,17.543 -4.455,26.817 -0.754,6.895 1.145,12.24 5.662,16.044 13.812,2.592 27.311,0.207 40.486,-7.162 0.743,-8.153 -0.452,-15.226 -3.552,-21.23 l 0,0 z"
         id="path895" />
      <path
         inkscape:connector-curvature="0"
         style="fill:none;stroke:#df5d91;stroke-width:2.05100012;stroke-linecap:square;stroke-miterlimit:10"
         d="m 902.373,407.238 c 3.1,6.004 4.295,13.077 3.553,21.23 -13.176,7.369 -26.674,9.754 -40.486,7.162 -4.518,-3.804 -6.416,-9.149 -5.662,-16.044 0.631,-9.274 2.109,-18.199 4.455,-26.817 7.379,3.059 13.502,3.818 18.389,2.296 4.873,-1.522 8.135,-3.044 9.797,-4.566 3.522,5.149 6.852,10.735 9.954,16.739 l 0,0 z"
         id="path897" />
      <path
         inkscape:connector-curvature="0"
         style="fill:#fbe000"
         d="m 896.293,384.185 c 0.072,-0.118 0.152,-0.2 0.217,-0.251 0.254,-0.187 0.465,-0.068 0.633,0.355 l 0.943,2.216 2.688,0.719 c 0.533,0.159 0.641,0.401 0.338,0.72 -0.039,0.031 -0.078,0.071 -0.117,0.112 l -0.221,0.191 c -0.014,0.021 -0.037,0.041 -0.066,0.072 -0.088,0.068 -0.189,0.146 -0.279,0.24 -0.297,0.248 -0.584,0.514 -0.877,0.787 -0.039,0.041 -0.092,0.081 -0.141,0.107 l -0.426,0.386 0.076,2.453 c 0.041,0.235 0.031,0.406 -0.025,0.515 -0.107,0.112 -0.316,0.109 -0.621,-0.031 l -2.543,-1.54 -0.033,0.007 c -0.465,0.148 -0.922,0.298 -1.385,0.447 l -1.266,0.385 -0.166,0.048 c -0.527,0.097 -0.705,-0.12 -0.518,-0.638 l 0.732,-2.41 -1.533,-2.208 c -0.176,-0.241 -0.234,-0.42 -0.16,-0.536 0.084,-0.106 0.26,-0.164 0.527,-0.177 l 2.781,-0.048 0.041,-0.041 1.401,-1.88 0,0 z"
         id="path899" />
      <path
         inkscape:connector-curvature="0"
         style="fill:#fbe000"
         d="m 893.057,392.118 c -0.014,0.009 -0.023,0.009 -0.035,0.006 l 0.166,-0.048 -0.131,0.042 0,0 z"
         id="path901" />
      <path
         inkscape:connector-curvature="0"
         style="fill:none;stroke:#6b7d27;stroke-width:1.18289995;stroke-linecap:round;stroke-linejoin:round;stroke-miterlimit:10"
         d="m 896.293,384.185 -1.4,1.881 -0.041,0.041 -2.781,0.048 c -0.268,0.013 -0.443,0.07 -0.527,0.177 -0.074,0.116 -0.016,0.295 0.16,0.536 l 1.533,2.208 -0.732,2.41 c -0.188,0.518 -0.01,0.734 0.518,0.638 l 0.166,-0.048 1.266,-0.383 c 0.463,-0.149 0.92,-0.301 1.385,-0.449 l 0.033,-0.007 2.543,1.54 c 0.305,0.141 0.514,0.144 0.621,0.031 0.057,-0.108 0.066,-0.279 0.025,-0.515 l -0.076,-2.453 0.426,-0.384 c 0.049,-0.028 0.102,-0.068 0.141,-0.109 0.293,-0.271 0.58,-0.539 0.877,-0.787 0.09,-0.094 0.191,-0.172 0.279,-0.24 0.029,-0.031 0.053,-0.052 0.066,-0.072 l 0.221,-0.191 c 0.039,-0.041 0.078,-0.081 0.117,-0.112 0.303,-0.318 0.195,-0.561 -0.338,-0.72 l -2.688,-0.719 -0.943,-2.216 c -0.168,-0.424 -0.379,-0.542 -0.633,-0.353 -0.066,0.048 -0.146,0.13 -0.218,0.248 l 0,0 z"
         id="path903" />
      <path
         inkscape:connector-curvature="0"
         style="fill:#f18900"
         d="m 892.727,378.922 c -9.17,-1.745 -18.059,-1 -26.691,2.232 l 0.824,9.863 c 6.43,3.461 13.723,5.497 21.844,6.11 l 5.08,-5.597 -1.057,-12.608 0,0 z"
         id="path905" />
      <path
         inkscape:connector-curvature="0"
         style="fill:none;stroke:#d04215;stroke-width:2.05119991;stroke-linecap:square;stroke-miterlimit:10"
         d="m 866.859,391.018 -0.824,-9.863 c 8.633,-3.233 17.521,-3.977 26.691,-2.232 l 1.057,12.609"
         id="path907" />
      <path
         inkscape:connector-curvature="0"
         style="fill:#eda1c1"
         d="m 892.15,392.225 c -1.922,1.329 -4.977,2.65 -9.176,3.977 -4.828,1.544 -10.801,0.937 -17.928,-1.836 -2.133,8.143 -3.502,16.573 -4.082,25.296 l -0.008,0.046 c -0.684,6.329 0.99,11.265 5.016,14.826 13.236,2.411 26.18,0.134 38.83,-6.796 0.59,-7.644 -0.561,-14.292 -3.48,-19.954 -2.875,-5.561 -5.937,-10.75 -9.172,-15.559 l 0,0 z"
         id="path909" />
      <path
         inkscape:connector-curvature="0"
         style="fill:#df5d91"
         d="m 865.398,430.486 c 0.469,0.174 1.139,0.554 1.994,1.108 0.848,0.558 1.518,0.935 1.992,1.123 0.793,0.299 1.592,0.386 2.41,0.242 0.924,-0.157 1.68,-0.484 2.285,-0.978 0.326,-0.284 0.795,-0.8 1.367,-1.572 1.111,-1.465 2.492,-2.348 4.15,-2.634 0.775,-0.135 1.688,0.066 2.727,0.591 0.283,0.145 1.152,0.698 2.635,1.657 2.125,1.355 4.205,0.994 6.234,-1.079 1.066,-1.398 1.689,-2.211 1.906,-2.441 0.801,-0.845 1.59,-1.34 2.363,-1.475 1.654,-0.286 3.26,0.081 4.811,1.088 0.801,0.534 1.416,0.861 1.82,1.017 0.74,0.262 1.566,0.313 2.49,0.153 0.816,-0.143 1.541,-0.493 2.184,-1.037 0.379,-0.334 0.877,-0.916 1.488,-1.727 0.453,-0.603 0.838,-1.059 1.158,-1.398 0.1,-0.105 0.219,-0.203 0.34,-0.283 0.309,-0.218 0.648,-0.427 0.998,-0.591 0.354,-0.137 0.713,-0.23 1.078,-0.292 0.25,-0.044 0.506,-0.044 0.76,0.019 0.287,0.024 0.572,0.081 0.844,0.183 0.262,0.091 0.521,0.209 0.783,0.329 0.334,0.168 0.615,0.327 0.875,0.51 0.355,0.222 0.73,0.456 1.105,0.706 0.355,0.222 0.758,0.439 1.201,0.646 0.16,0.062 0.32,0.107 0.467,0.16 0.332,0.091 0.658,0.139 0.977,0.159 0.135,-0.011 0.285,-0.004 0.438,-0.002 2.465,-0.141 3.941,-1.43 4.434,-3.852 l -18.52,-8.482 c -6.246,6.19 -21.557,8.867 -45.912,8.035 l -11.814,12.037 c 1.406,1.448 3.09,2.61 5.064,3.451 0.631,0.087 1.23,0.133 1.785,0.112 2.523,-0.558 4.445,-1.728 5.762,-3.499 0.986,-1.324 1.955,-2.076 2.939,-2.246 0.802,-0.137 1.601,-0.05 2.382,0.262 l 0,0 z"
         id="path911" />
      <path
         inkscape:connector-curvature="0"
         style="fill:#df5d91"
         d="m 867.393,431.595 c -0.855,-0.555 -1.525,-0.935 -1.994,-1.108 -0.781,-0.312 -1.58,-0.399 -2.381,-0.261 -0.984,0.17 -1.953,0.922 -2.939,2.246 -1.316,1.771 -3.238,2.939 -5.762,3.499 -0.555,0.021 -1.154,-0.025 -1.785,-0.112 l -6.09,8.052 c 1.281,1.441 2.148,2.324 2.611,2.647 1.186,0.889 2.844,1.156 4.969,0.789 0.773,-0.134 1.525,-0.488 2.223,-1.075 0.305,-0.231 0.76,-0.654 1.33,-1.262 0.121,-0.157 0.26,-0.331 0.391,-0.518 1.262,-1.672 2.51,-2.621 3.723,-2.832 0.82,-0.142 1.635,-0.057 2.449,0.267 0.471,0.203 1.143,0.595 2.018,1.18 0.871,0.582 1.557,0.974 2.045,1.172 0.811,0.309 1.641,0.392 2.477,0.247 0.936,-0.162 1.721,-0.508 2.338,-1.018 0.324,-0.281 0.787,-0.826 1.354,-1.628 1.133,-1.531 2.559,-2.435 4.256,-2.731 0.789,-0.134 1.717,0.077 2.779,0.63 0.254,0.135 0.982,0.593 2.176,1.391 0.359,0.207 0.723,0.399 1.113,0.555 3.695,1.625 6.844,0.825 9.443,-2.38 0.4,-0.537 0.791,-1.067 1.197,-1.602 0.303,-0.397 0.637,-0.74 0.979,-1.023 0.689,-0.63 1.506,-0.964 2.432,-1.005 0.863,-0.075 1.693,0.021 2.498,0.3 0.758,0.276 1.455,0.649 2.096,1.106 0.297,0.234 0.637,0.443 1.002,0.637 0.254,0.151 0.529,0.267 0.834,0.35 0.957,0.224 1.904,0.195 2.867,-0.076 0.758,-0.236 1.408,-0.646 1.938,-1.235 0.592,-0.654 1.137,-1.334 1.641,-2.051 0.314,-0.458 0.668,-0.85 1.074,-1.189 0.457,-0.408 0.988,-0.725 1.598,-0.951 0.363,-0.062 0.719,-0.095 1.086,-0.083 0.959,-0.03 1.869,0.173 2.719,0.624 0.852,0.466 1.666,0.955 2.449,1.465 0.252,0.166 0.514,0.284 0.789,0.371 0.354,0.133 0.715,0.222 1.09,0.277 0.957,0.118 1.877,-0.026 2.773,-0.438 0.877,-0.42 1.504,-1.052 1.908,-1.918 0.053,-0.129 0.088,-0.255 0.109,-0.394 0.08,-0.582 0.084,-1.15 0,-1.707 l -8.371,-6.131 c -0.318,-0.021 -0.645,-0.068 -0.977,-0.159 -0.146,-0.053 -0.307,-0.098 -0.467,-0.16 -0.443,-0.207 -0.846,-0.425 -1.201,-0.646 -0.375,-0.25 -0.75,-0.484 -1.105,-0.706 -0.26,-0.183 -0.541,-0.342 -0.875,-0.51 -0.262,-0.12 -0.521,-0.238 -0.783,-0.329 -0.271,-0.102 -0.557,-0.158 -0.844,-0.183 -0.254,-0.062 -0.51,-0.062 -0.76,-0.019 -0.365,0.062 -0.725,0.155 -1.078,0.292 -0.35,0.164 -0.689,0.373 -0.998,0.591 -0.121,0.08 -0.24,0.178 -0.34,0.283 -0.32,0.34 -0.705,0.796 -1.158,1.398 -0.611,0.811 -1.109,1.393 -1.488,1.727 -0.643,0.544 -1.367,0.895 -2.184,1.037 -0.924,0.16 -1.75,0.108 -2.49,-0.153 -0.404,-0.155 -1.02,-0.482 -1.82,-1.017 -1.551,-1.007 -3.156,-1.374 -4.811,-1.088 -0.773,0.137 -1.562,0.63 -2.363,1.475 -0.217,0.23 -0.84,1.043 -1.906,2.441 -2.029,2.073 -4.109,2.435 -6.234,1.079 -1.482,-0.959 -2.352,-1.513 -2.635,-1.657 -1.039,-0.524 -1.951,-0.726 -2.727,-0.591 -1.658,0.286 -3.039,1.169 -4.15,2.634 -0.572,0.772 -1.041,1.288 -1.367,1.572 -0.605,0.493 -1.361,0.82 -2.285,0.978 -0.818,0.144 -1.617,0.057 -2.41,-0.242 -0.479,-0.19 -1.149,-0.567 -1.996,-1.124 l 0,0 z"
         id="path913" />
      <path
         inkscape:connector-curvature="0"
         style="fill:none;stroke:#970f45;stroke-width:2.05439997;stroke-linecap:round;stroke-miterlimit:10"
         d="m 918.842,424.671 c -0.318,-0.021 -0.645,-0.068 -0.977,-0.159 -0.146,-0.053 -0.307,-0.098 -0.467,-0.16 -0.443,-0.207 -0.846,-0.425 -1.201,-0.646 -0.375,-0.25 -0.75,-0.484 -1.105,-0.706 -0.26,-0.183 -0.541,-0.342 -0.875,-0.51 -0.262,-0.12 -0.521,-0.238 -0.783,-0.329 -0.271,-0.102 -0.557,-0.158 -0.844,-0.183 -0.254,-0.062 -0.51,-0.062 -0.76,-0.019 -0.365,0.062 -0.725,0.155 -1.078,0.292 -0.35,0.164 -0.689,0.373 -0.998,0.591 -0.121,0.08 -0.24,0.178 -0.34,0.285 -0.32,0.338 -0.705,0.794 -1.158,1.396 -0.611,0.811 -1.109,1.393 -1.488,1.727 -0.643,0.544 -1.367,0.895 -2.184,1.037 -0.924,0.16 -1.75,0.108 -2.49,-0.153 -0.404,-0.155 -1.02,-0.482 -1.82,-1.017 -1.551,-1.007 -3.156,-1.374 -4.811,-1.088 -0.773,0.137 -1.562,0.63 -2.363,1.475 -0.217,0.23 -0.84,1.043 -1.906,2.441 -2.029,2.073 -4.109,2.435 -6.234,1.079 -1.482,-0.959 -2.352,-1.513 -2.635,-1.657 -1.039,-0.522 -1.951,-0.726 -2.727,-0.591 -1.658,0.286 -3.039,1.169 -4.15,2.636 -0.572,0.771 -1.041,1.286 -1.367,1.57 -0.605,0.493 -1.361,0.82 -2.285,0.978 -0.818,0.144 -1.617,0.057 -2.41,-0.242 -0.475,-0.188 -1.145,-0.565 -1.992,-1.123 -0.855,-0.555 -1.525,-0.935 -1.994,-1.108 -0.781,-0.312 -1.58,-0.399 -2.381,-0.261 -0.984,0.17 -1.953,0.922 -2.939,2.246 -1.316,1.771 -3.238,2.941 -5.762,3.499 -0.555,0.021 -1.154,-0.025 -1.785,-0.112 m -0.002,-10e-4 c -1.975,-0.841 -3.658,-2.003 -5.064,-3.451 l 11.814,-12.037 c 24.355,0.832 39.666,-1.845 45.912,-8.035 l 18.52,8.482 c -0.492,2.422 -1.969,3.711 -4.434,3.852 -0.152,-0.002 -0.303,-0.009 -0.438,0.002 m -66.31,11.187 -6.09,8.052 c 1.281,1.441 2.148,2.324 2.611,2.647 1.186,0.889 2.844,1.156 4.969,0.789 0.773,-0.134 1.525,-0.488 2.223,-1.075 0.305,-0.231 0.76,-0.654 1.33,-1.262 0.121,-0.157 0.26,-0.331 0.391,-0.518 1.262,-1.672 2.51,-2.621 3.723,-2.832 0.82,-0.142 1.635,-0.057 2.449,0.267 0.471,0.203 1.143,0.595 2.018,1.18 0.871,0.582 1.557,0.974 2.045,1.172 0.811,0.309 1.641,0.392 2.477,0.247 0.936,-0.162 1.721,-0.508 2.338,-1.018 0.324,-0.281 0.787,-0.826 1.354,-1.628 1.133,-1.531 2.559,-2.435 4.256,-2.731 0.789,-0.134 1.717,0.077 2.779,0.63 0.254,0.135 0.982,0.593 2.176,1.391 0.359,0.207 0.723,0.399 1.113,0.555 3.695,1.625 6.844,0.825 9.443,-2.38 0.4,-0.537 0.791,-1.067 1.197,-1.602 0.303,-0.397 0.637,-0.74 0.979,-1.023 0.689,-0.63 1.506,-0.964 2.432,-1.005 0.863,-0.075 1.693,0.021 2.498,0.3 0.758,0.276 1.455,0.649 2.096,1.106 0.297,0.234 0.637,0.443 1.002,0.637 0.254,0.151 0.529,0.267 0.834,0.35 0.957,0.224 1.904,0.195 2.867,-0.076 0.758,-0.236 1.408,-0.646 1.938,-1.235 0.592,-0.654 1.137,-1.334 1.641,-2.051 0.314,-0.458 0.668,-0.85 1.074,-1.189 0.457,-0.408 0.988,-0.725 1.598,-0.951 0.363,-0.062 0.719,-0.095 1.086,-0.083 0.959,-0.03 1.869,0.173 2.719,0.624 0.852,0.466 1.666,0.955 2.449,1.465 0.252,0.166 0.514,0.284 0.789,0.371 0.354,0.133 0.715,0.222 1.09,0.277 0.957,0.118 1.877,-0.026 2.773,-0.438 0.877,-0.42 1.504,-1.052 1.908,-1.918 0.053,-0.129 0.088,-0.255 0.109,-0.394 0.08,-0.582 0.084,-1.15 0,-1.707 l -8.371,-6.131"
         id="path915" />
      <path
         inkscape:connector-curvature="0"
         style="fill:#df5d91"
         d="m 896.678,451.547 c -1.459,-0.524 -3.154,-0.879 -5.123,-1.034 -2.443,2.25 -4.602,4.699 -6.438,7.326 l -5.365,0.183 c 1.248,-1.797 2.656,-3.495 4.219,-5.126 0.521,-0.549 1.316,-1.343 2.4,-2.383 -3.162,0.168 -6.418,0.56 -9.76,1.175 -1.205,2.503 -3.02,4.718 -5.416,6.626 h -7.76 c -1.723,2.256 -2.572,5.233 -2.527,8.932 15.516,1.931 25.783,2.198 30.783,0.804 5.029,-1.425 8.203,-4.125 9.512,-8.134 1.313,-4.015 -0.201,-6.805 -4.525,-8.369 l 0,0 z"
         id="path917" />
      <path
         inkscape:connector-curvature="0"
         style="fill:#eda1c1"
         d="m 891.555,450.513 c -1.721,-0.087 -3.443,-0.087 -5.184,0 -1.084,1.04 -1.879,1.834 -2.4,2.383 -1.562,1.631 -2.971,3.329 -4.219,5.126 l 5.365,-0.183 c 1.836,-2.627 3.994,-5.076 6.438,-7.326 l 0,0 z"
         id="path919" />
      <path
         inkscape:connector-curvature="0"
         style="fill:none;stroke:#970f45;stroke-width:2.17670012;stroke-linecap:round;stroke-miterlimit:10"
         d="m 886.371,450.513 c -3.162,0.168 -6.418,0.56 -9.76,1.175 -1.205,2.503 -3.02,4.718 -5.416,6.626 h -7.76 c -1.727,2.256 -2.572,5.233 -2.527,8.93 15.516,1.933 25.783,2.2 30.783,0.806 5.029,-1.425 8.203,-4.125 9.512,-8.134 1.312,-4.014 -0.201,-6.806 -4.525,-8.368 -1.459,-0.524 -3.154,-0.879 -5.123,-1.034 m -5.184,-0.001 c 1.74,-0.087 3.463,-0.087 5.184,0 m 0,0 c -2.443,2.25 -4.602,4.699 -6.438,7.326 l -5.365,0.183 c 1.248,-1.797 2.656,-3.495 4.219,-5.128 0.521,-0.547 1.316,-1.341 2.4,-2.381"
         id="path921" />
      <path
         inkscape:connector-curvature="0"
         style="fill:#f18900"
         d="m 889.715,309.098 c -1.529,0.067 -3.035,0.154 -4.527,0.286 -20.953,1.784 -39.152,8.779 -54.576,20.998 -3.549,-2.159 -8.383,-2.251 -14.492,-0.312 -7.998,2.54 -14.348,2.461 -19.059,-0.199 0.826,6.156 4.49,10.517 11.002,13.078 -6.707,0.33 -10.762,2.583 -12.139,6.752 -1.977,5.853 -6.365,7.957 -13.137,6.317 2.457,6.149 7.891,7.473 16.322,3.968 -1.721,6.766 -7.312,11.424 -16.795,13.95 8.223,2.873 16.09,1.79 23.623,-3.251 -1.314,2.781 -2.133,5.138 -2.443,7.082 -0.801,5.128 -4.076,8.801 -9.814,11.049 8.311,1.866 15.393,-0.648 21.234,-7.559 -0.166,6.063 -2.746,10.326 -7.738,12.765 5.994,2.697 12.139,1.342 18.414,-4.059 10.254,3.521 22.041,4.171 35.381,1.922 1.828,-0.281 3.846,-0.739 6.064,-1.346 9.83,-2.74 19.562,-6.329 29.229,-10.738 3.822,-1.749 7.254,-3.69 10.254,-5.811 4.334,-3.071 7.812,-6.519 10.441,-10.341 0.889,-1.315 2.26,-3.756 4.129,-7.314 2.738,0.026 4.709,-0.085 5.902,-0.346 3.906,-0.884 7.109,-3.419 9.605,-7.619 -4.643,0.138 -8.125,-0.804 -10.445,-2.827 3.031,-0.609 5.576,-1.488 7.656,-2.625 2.541,-1.377 4.793,-3.5 6.787,-6.348 -5.016,1.257 -9.479,0.286 -13.381,-2.912 -1.336,-1.083 -2.682,-2.147 -4.035,-3.195 2.398,-0.542 4.645,-1.33 6.717,-2.356 4.121,-2.024 7.393,-5.431 9.83,-10.191 -8.814,3.704 -15.463,3.433 -19.93,-0.849 3.533,-1.413 5.951,-3.061 7.268,-4.949 0.756,-1.066 1.174,-2.231 1.254,-3.482 0.012,-0.1 0.012,-0.192 0.031,-0.277 0.033,-1.376 -0.299,-2.859 -1.014,-4.445 -0.123,0.185 -0.244,0.369 -0.354,0.549 -0.596,0.852 -1.219,1.54 -1.869,2.098 -2.85,2.427 -6.32,2.28 -10.406,-0.473 -1.521,-1.034 -3.885,-1.775 -7.062,-2.21 0.922,-4.165 0.271,-8.204 -1.961,-12.11 -1.514,4.89 -4.053,8.07 -7.605,9.555 -3.58,1.471 -6.355,4.06 -8.361,7.775 l 0,0 z"
         id="path923" />
      <path
         inkscape:connector-curvature="0"
         style="fill:none;stroke:#d04215;stroke-width:2.04900002;stroke-linecap:square;stroke-miterlimit:10"
         d="m 885.188,309.384 c -20.953,1.784 -39.152,8.779 -54.576,20.998 -3.549,-2.159 -8.383,-2.251 -14.492,-0.312 -7.998,2.54 -14.348,2.461 -19.059,-0.199 0.826,6.156 4.49,10.517 11.002,13.078 -6.707,0.33 -10.762,2.583 -12.139,6.752 -1.977,5.853 -6.365,7.957 -13.137,6.317 2.457,6.149 7.891,7.473 16.322,3.968 -1.721,6.766 -7.312,11.424 -16.795,13.95 8.223,2.873 16.09,1.79 23.623,-3.251 -1.314,2.781 -2.133,5.138 -2.443,7.082 -0.801,5.128 -4.076,8.801 -9.814,11.049 8.311,1.866 15.393,-0.648 21.234,-7.559 -0.166,6.063 -2.746,10.326 -7.738,12.765 5.994,2.697 12.139,1.342 18.414,-4.059 10.254,3.521 22.041,4.171 35.381,1.922 1.828,-0.281 3.846,-0.739 6.064,-1.346 9.83,-2.74 19.562,-6.329 29.229,-10.738 3.822,-1.749 7.254,-3.69 10.254,-5.811 4.334,-3.071 7.812,-6.519 10.441,-10.341 0.889,-1.315 2.26,-3.756 4.129,-7.314 2.738,0.026 4.709,-0.085 5.902,-0.346 3.906,-0.884 7.109,-3.419 9.605,-7.619 -4.643,0.138 -8.125,-0.804 -10.445,-2.827 3.031,-0.609 5.576,-1.488 7.656,-2.625 2.541,-1.377 4.793,-3.5 6.787,-6.348 -5.016,1.257 -9.479,0.286 -13.381,-2.912 -1.336,-1.083 -2.682,-2.147 -4.035,-3.195 2.398,-0.542 4.645,-1.33 6.717,-2.356 4.121,-2.024 7.393,-5.431 9.83,-10.191 -8.814,3.704 -15.463,3.433 -19.93,-0.849 3.533,-1.413 5.951,-3.061 7.268,-4.949 0.756,-1.066 1.174,-2.231 1.254,-3.482 0.012,-0.1 0.012,-0.192 0.031,-0.277 0.033,-1.376 -0.299,-2.859 -1.014,-4.445 -0.123,0.185 -0.244,0.369 -0.354,0.549 -0.596,0.852 -1.219,1.54 -1.869,2.098 -2.85,2.427 -6.32,2.28 -10.406,-0.473 -1.521,-1.034 -3.885,-1.775 -7.062,-2.21 0.922,-4.165 0.271,-8.204 -1.961,-12.11 -1.514,4.89 -4.053,8.07 -7.605,9.555 -3.58,1.473 -6.355,4.062 -8.361,7.777 -1.529,0.066 -3.035,0.152 -4.527,0.284 l 0,0 z"
         id="path925" />
      <path
         inkscape:connector-curvature="0"
         style="fill:#9dc517"
         d="m 906.666,310.202 1.803,2.127 c 0.359,0.422 0.637,0.873 0.828,1.341 l -0.342,-0.164 c -0.504,-0.232 -0.816,-0.058 -0.955,0.508 l -0.367,1.711 c -0.111,0.559 0.072,0.947 0.547,1.204 -0.236,0.069 -0.482,0.109 -0.75,0.125 l -2.285,0.173 c -1.156,0.076 -1.633,-0.509 -1.449,-1.75 0.117,-0.841 0.385,-1.672 0.809,-2.479 l 0.367,-2.386 c 0.22,-1.459 0.817,-1.591 1.794,-0.41 l 0,0 z"
         id="path927" />
      <path
         inkscape:connector-curvature="0"
         style="fill:#9dc517"
         d="M 907.633,315.725 908,314.014 c 0.139,-0.565 0.451,-0.74 0.955,-0.508 l 0.342,0.164 1.172,0.543 0.223,0.097 c 0.494,0.248 0.686,0.651 0.549,1.218 l -0.381,1.715 c -0.088,0.486 -0.34,0.686 -0.74,0.574 -0.059,-0.025 -0.117,-0.053 -0.189,-0.076 l -1.723,-0.807 c -0.014,-0.008 -0.014,-0.008 -0.027,-0.006 -0.476,-0.256 -0.66,-0.644 -0.548,-1.203 l 0,0 z"
         id="path929" />
      <path
         inkscape:connector-curvature="0"
         style="fill:#9dc517"
         d="m 910.691,314.31 -0.223,-0.097 c 0.346,-0.215 0.752,-0.341 1.215,-0.395 l 2.311,-0.213 c 1.273,-0.118 1.711,0.527 1.301,1.91 l -0.646,2.219 c 0.105,0.982 0.037,1.884 -0.203,2.721 -0.336,1.231 -0.996,1.292 -1.977,0.175 l -1.82,-2.074 c -0.205,-0.24 -0.383,-0.494 -0.529,-0.74 0.4,0.112 0.652,-0.088 0.74,-0.574 l 0.381,-1.715 c 0.136,-0.566 -0.055,-0.969 -0.55,-1.217 l 0,0 z"
         id="path931" />
      <path
         inkscape:connector-curvature="0"
         style="fill:none;stroke:#388e36;stroke-width:1.53680003;stroke-linecap:round;stroke-linejoin:round;stroke-miterlimit:10"
         d="m 909.297,313.67 c -0.191,-0.468 -0.469,-0.919 -0.828,-1.341 l -1.803,-2.127 c -0.977,-1.18 -1.572,-1.048 -1.795,0.41 l -0.367,2.386 c -0.424,0.807 -0.691,1.638 -0.809,2.479 -0.184,1.241 0.293,1.825 1.449,1.75 l 2.285,-0.173 c 0.268,-0.016 0.514,-0.055 0.75,-0.125 m 10e-4,0 c -0.475,-0.257 -0.658,-0.645 -0.547,-1.204 L 908,314.014 c 0.139,-0.565 0.451,-0.74 0.955,-0.508 l 0.342,0.164 m 1.174,0.543 -1.174,-0.543 m 1.174,0.543 0.221,0.097 c 0.494,0.248 0.686,0.651 0.549,1.218 l -0.381,1.715 c -0.088,0.486 -0.34,0.686 -0.74,0.574 m -10e-4,0 c 0.146,0.246 0.324,0.5 0.529,0.74 l 1.82,2.074 c 0.98,1.117 1.641,1.057 1.977,-0.175 0.24,-0.837 0.309,-1.739 0.203,-2.721 l 0.646,-2.219 c 0.41,-1.383 -0.027,-2.028 -1.301,-1.91 l -2.311,0.213 c -0.463,0.054 -0.869,0.18 -1.213,0.395 m -2.289,2.715 c 0.014,-0.002 0.014,-0.002 0.027,0.006 l 1.723,0.807 c 0.072,0.023 0.131,0.051 0.189,0.076"
         id="path933" />
      <path
         inkscape:connector-curvature="0"
         style="fill:#ab61a3"
         d="m 817.693,341.067 -0.324,2.873 c -0.066,0.574 -0.033,1.11 0.104,1.595 l 0.234,-0.365 c 0.348,-0.53 0.783,-0.621 1.324,-0.292 l 1.582,1.03 c 0.514,0.337 0.6,0.762 0.301,1.291 0.283,-0.116 0.564,-0.263 0.846,-0.439 l 2.443,-1.483 c 1.225,-0.761 1.295,-1.538 0.232,-2.34 -0.713,-0.551 -1.572,-0.987 -2.572,-1.294 l -2.061,-1.535 c -1.253,-0.941 -1.956,-0.617 -2.109,0.959 l 0,0 z"
         id="path935" />
      <path
         inkscape:connector-curvature="0"
         style="fill:#ab61a3"
         d="m 820.613,345.908 -1.582,-1.03 c -0.541,-0.329 -0.977,-0.238 -1.324,0.292 l -0.234,0.365 -0.805,1.238 -0.154,0.227 c -0.328,0.539 -0.236,0.978 0.301,1.306 l 1.598,1.022 c 0.438,0.304 0.832,0.273 1.162,-0.093 0.039,-0.06 0.08,-0.122 0.135,-0.188 l 1.178,-1.824 c 0.01,-0.019 0.01,-0.019 0.027,-0.024 0.298,-0.529 0.212,-0.954 -0.302,-1.291 l 0,0 z"
         id="path937" />
      <path
         inkscape:connector-curvature="0"
         style="fill:#ab61a3"
         d="m 816.514,347 0.154,-0.227 c -0.502,0.084 -1,0.272 -1.512,0.562 l -2.494,1.471 c -1.375,0.811 -1.361,1.608 0.027,2.358 l 2.229,1.21 c 0.584,0.815 1.289,1.445 2.125,1.904 1.213,0.689 1.928,0.265 2.129,-1.262 l 0.383,-2.849 c 0.039,-0.328 0.039,-0.64 0.02,-0.933 -0.33,0.367 -0.725,0.397 -1.162,0.093 l -1.598,-1.022 c -0.538,-0.327 -0.629,-0.767 -0.301,-1.305 l 0,0 z"
         id="path939" />
      <path
         inkscape:connector-curvature="0"
         style="fill:none;stroke:#633791;stroke-width:1.53680003;stroke-linecap:round;stroke-linejoin:round;stroke-miterlimit:10"
         d="m 817.473,345.535 c -0.137,-0.485 -0.17,-1.021 -0.104,-1.595 l 0.324,-2.873 c 0.152,-1.576 0.855,-1.9 2.109,-0.96 l 2.061,1.535 c 1,0.307 1.859,0.743 2.572,1.294 1.062,0.803 0.992,1.58 -0.232,2.34 l -2.443,1.483 c -0.281,0.176 -0.562,0.323 -0.846,0.439 m 0,0 c 0.299,-0.528 0.213,-0.953 -0.301,-1.291 l -1.582,-1.03 c -0.541,-0.329 -0.977,-0.238 -1.324,0.292 l -0.234,0.365 m -0.805,1.238 0.805,-1.238 m -0.805,1.238 -0.154,0.228 c -0.328,0.539 -0.236,0.978 0.301,1.306 l 1.598,1.022 c 0.438,0.304 0.832,0.273 1.162,-0.093 m -0.001,0 c 0.02,0.292 0.02,0.605 -0.02,0.933 l -0.383,2.849 c -0.201,1.527 -0.916,1.951 -2.129,1.262 -0.836,-0.459 -1.541,-1.089 -2.125,-1.904 l -2.229,-1.21 c -1.389,-0.75 -1.402,-1.546 -0.027,-2.358 l 2.494,-1.471 c 0.512,-0.288 1.01,-0.479 1.512,-0.562 m 4.247,0.424 c -0.018,0.005 -0.018,0.005 -0.027,0.024 l -1.178,1.824 c -0.055,0.066 -0.096,0.128 -0.135,0.188"
         id="path941" />
      <path
         inkscape:connector-curvature="0"
         style="fill:#82110c"
         d="m 877.877,361.981 c -0.941,0.141 -1.875,0.539 -2.809,1.179 -0.934,0.653 -1.547,1.36 -1.855,2.122 -0.326,0.781 -0.266,1.405 0.191,1.865 0.439,0.452 1.137,0.622 2.117,0.5 0.938,-0.14 1.873,-0.54 2.801,-1.207 0.904,-0.632 1.535,-1.342 1.859,-2.124 0.328,-0.781 0.262,-1.388 -0.189,-1.835 -0.435,-0.451 -1.137,-0.62 -2.115,-0.5 l 0,0 z"
         id="path943" />
      <path
         inkscape:connector-curvature="0"
         style="fill:#d04215"
         d="m 886.633,361.237 c -1.168,-1.4 -2.904,-2.193 -5.234,-2.359 0.684,0.339 1.279,0.801 1.793,1.4 1.131,1.378 1.404,2.968 0.795,4.795 -0.611,1.84 -1.9,3.373 -3.883,4.6 -1.977,1.241 -4.062,1.827 -6.258,1.751 -2.193,-0.088 -3.865,-0.819 -4.994,-2.196 l -0.326,-0.399 c 0.055,1.123 0.455,2.113 1.182,2.97 1.266,1.53 3.172,2.33 5.719,2.39 2.551,0.059 4.998,-0.651 7.342,-2.105 2.338,-1.471 3.875,-3.268 4.627,-5.399 0.752,-2.112 0.5,-3.919 -0.763,-5.448 l 0,0 z"
         id="path945" />
      <path
         inkscape:connector-curvature="0"
         style="fill:#ffffff"
         d="m 859.645,301.839 c -5.246,-2.658 -10.596,-3.025 -16.053,-1.108 -5.449,1.91 -9.398,5.538 -11.832,10.892 -2.447,5.36 -2.674,10.881 -0.691,16.537 1.984,5.655 5.607,9.811 10.857,12.438 5.248,2.675 10.605,3.054 16.051,1.144 5.459,-1.917 9.404,-5.559 11.834,-10.927 2.455,-5.331 2.688,-10.839 0.705,-16.494 -1.985,-5.656 -5.612,-9.824 -10.871,-12.482 l 0,0 z"
         id="path947" />
      <path
         inkscape:connector-curvature="0"
         style="fill:#ffffff"
         d="m 872.684,290.995 c -5.25,1.842 -9.047,5.369 -11.371,10.591 -2.324,5.221 -2.518,10.62 -0.57,16.163 1.953,5.558 5.463,9.627 10.529,12.224 5.088,2.654 10.258,3.05 15.51,1.208 5.25,-1.842 9.045,-5.384 11.369,-10.638 2.334,-5.193 2.535,-10.565 0.59,-16.123 -1.947,-5.541 -5.471,-9.639 -10.549,-12.263 -5.09,-2.622 -10.26,-3.004 -15.508,-1.162 l 0,0 z"
         id="path949" />
      <path
         inkscape:connector-curvature="0"
         d="m 887.246,315.162 c -1.746,-1.189 -3.6,-1.568 -5.557,-1.134 -1.977,0.426 -3.49,1.522 -4.549,3.293 -1.064,1.79 -1.354,3.709 -0.865,5.788 0.48,2.081 1.584,3.718 3.314,4.9 1.746,1.19 3.586,1.574 5.543,1.141 1.963,-0.423 3.48,-1.52 4.535,-3.291 1.076,-1.762 1.359,-3.695 0.867,-5.786 -0.466,-2.088 -1.559,-3.73 -3.288,-4.911 l 0,0 z"
         id="path951" />
      <path
         inkscape:connector-curvature="0"
         d="m 865.848,322.334 c -1.869,-1.243 -3.854,-1.628 -5.963,-1.155 -2.125,0.463 -3.766,1.633 -4.914,3.51 -1.154,1.896 -1.486,3.925 -0.969,6.112 0.496,2.194 1.67,3.915 3.518,5.147 1.869,1.243 3.842,1.633 5.949,1.16 2.115,-0.46 3.75,-1.628 4.9,-3.506 1.162,-1.867 1.488,-3.91 0.973,-6.112 -0.488,-2.197 -1.649,-3.923 -3.494,-5.156 l 0,0 z"
         id="path953" />
      <path
         inkscape:connector-curvature="0"
         style="fill:#5fc2cf"
         d="m 879.266,289.835 c -2.166,-0.009 -4.355,0.366 -6.547,1.137 -5.252,1.841 -9.049,5.369 -11.373,10.591 -0.139,0.315 -0.268,0.625 -0.385,0.95 -0.418,-0.245 -0.84,-0.472 -1.283,-0.696 -5.244,-2.658 -10.592,-3.025 -16.055,-1.11 -5.441,1.912 -9.396,5.538 -11.826,10.893 -2.449,5.36 -2.678,10.881 -0.693,16.537 0.75,2.135 1.734,4.048 2.939,5.741 -3.701,-6.525 -3.811,-13.277 -0.326,-20.24 7.5,-9.388 17.117,-12.764 28.879,-10.129 5.207,-6.751 11.068,-10.423 17.594,-11.036 2.082,-0.196 4.227,-0.071 6.436,0.363 l -0.592,-1.689 c -2.235,-0.863 -4.493,-1.31 -6.768,-1.312 l 0,0 z"
         id="path955" />
      <path
         inkscape:connector-curvature="0"
         style="fill:#5fc2cf"
         d="m 894.275,296.723 c -1.041,-1.14 -2.203,-2.161 -3.49,-3.058 l -0.934,0.328 c 1.676,0.794 3.137,1.707 4.424,2.73 l 0,0 z"
         id="path957" />
      <path
         inkscape:connector-curvature="0"
         style="fill:#5fc2cf"
         d="m 889.852,293.993 0.934,-0.328 c -0.803,-0.55 -1.658,-1.064 -2.559,-1.534 -0.725,-0.371 -1.453,-0.697 -2.193,-0.984 l 0.592,1.689 c 0.33,0.055 0.67,0.125 1.012,0.208 0.776,0.294 1.514,0.613 2.214,0.949 l 0,0 z"
         id="path959" />
      <path
         inkscape:connector-curvature="0"
         style="fill:#ab6514"
         d="m 875.631,288.1 c -0.188,-0.139 -0.4,-0.238 -0.596,-0.309 -0.701,-0.256 -1.234,0.008 -1.568,0.8 l -2.625,6.017 -4.531,-2.942 c -0.055,-0.028 -0.121,-0.037 -0.188,-0.044 -0.678,-0.107 -1.176,0.397 -1.518,1.521 l -2.938,7.681 -8.533,-3.218 c -1.568,-0.593 -2.521,-0.761 -2.889,-0.506 -0.369,0.239 -0.596,0.537 -0.676,0.895 l -1.428,4.328 -7.295,-2.113 c -0.502,-0.138 -0.875,-0.211 -1.133,-0.231 -0.557,-0.025 -0.896,0.126 -1.023,0.439 -0.031,0.087 -0.066,0.257 -0.094,0.486 l -0.629,5.317 -7.51,0.142 c -0.605,-0.024 -1.006,-0.007 -1.205,0.046 -0.91,0.271 -1.094,0.916 -0.562,1.938 l 2.326,4.436 -7.908,2.259 c -0.684,0.208 -0.889,0.562 -0.633,1.068 0.057,0.107 0.145,0.232 0.254,0.367 l 4.588,4.584 -6.062,4.979 c -0.518,0.482 -0.35,0.876 0.523,1.182 l 7.891,2.328 -3.773,7.253 c -0.758,1.645 -0.521,2.408 0.713,2.304 0.168,-0.013 0.359,-0.048 0.588,-0.112 l 8.826,-2.642 c -0.729,-1.061 -1.396,-2.285 -1.988,-3.661 -0.924,-2.138 -1.412,-4.335 -1.467,-6.592 -0.035,-2.292 0.287,-4.553 0.994,-6.777 0.695,-2.172 1.652,-4.234 2.891,-6.158 0.012,-0.019 0.021,-0.025 0.029,-0.042 1.244,-1.958 2.779,-3.657 4.609,-5.098 0.088,-0.062 0.166,-0.121 0.225,-0.173 1.758,-1.337 3.707,-2.352 5.842,-3.021 2.021,-0.632 4.1,-1.047 6.223,-1.212 0.195,-0.021 0.383,-0.025 0.564,-0.042 2.314,-0.153 4.475,0.015 6.502,0.512 0.408,0.091 0.783,0.18 1.113,0.268 0.641,0.167 1.17,0.296 1.578,0.387 0.156,-0.306 0.424,-0.713 0.783,-1.214 0.174,-0.265 0.383,-0.56 0.627,-0.881 1.189,-1.623 2.672,-3.07 4.465,-4.357 0.141,-0.096 0.283,-0.211 0.439,-0.311 1.664,-1.164 3.434,-2.099 5.295,-2.83 1.93,-0.757 3.926,-1.144 5.975,-1.171 0.141,-0.001 0.277,-0.004 0.418,-0.006 2.221,0.022 4.385,0.424 6.49,1.205 2.107,0.767 4.07,1.804 5.906,3.104 1.395,0.984 2.541,2.197 3.436,3.624 2.275,3.672 3.27,7.667 2.988,11.967 l 6.078,-2.742 c 0.15,-0.068 0.27,-0.141 0.379,-0.227 0.719,-0.582 0.557,-1.311 -0.492,-2.197 l -6.291,-3.547 3.227,-6.636 c 0.092,-0.487 -0.027,-0.776 -0.371,-0.874 l -6.932,-0.451 c 0.09,-1.303 0.188,-3.079 0.283,-5.309 0.014,-0.365 0.033,-0.749 0.053,-1.147 0.002,-0.032 -0.006,-0.061 -0.006,-0.106 0.002,-0.173 -0.006,-0.329 -0.029,-0.445 -0.104,-0.687 -0.525,-0.82 -1.25,-0.424 l -5.957,2.906 -1.852,-5.279 c -0.289,-0.823 -0.768,-1.032 -1.455,-0.618 -0.158,0.086 -0.32,0.205 -0.494,0.344 l -4.99,4.277 -4.23,-3.3 v 0.001 z"
         id="path961" />
      <path
         inkscape:connector-curvature="0"
         style="fill:#e7467d"
         d="m 880.527,325.487 c -2.082,-0.618 -4.305,-0.514 -6.664,0.314 -2.389,0.838 -4.203,2.148 -5.457,3.938 -1.234,1.797 -1.568,3.53 -0.984,5.191 0.594,1.69 1.939,2.848 4.023,3.466 2.1,0.627 4.334,0.518 6.725,-0.321 2.359,-0.828 4.16,-2.133 5.395,-3.932 1.27,-1.794 1.598,-3.539 1.004,-5.229 -0.583,-1.661 -1.924,-2.805 -4.042,-3.427 l 0,0 z"
         id="path963" />
      <path
         inkscape:connector-curvature="0"
         style="fill:#f18900"
         d="m 888.703,397.128 3.988,-4.393 -1.07,-12.798 c -8.34,-1.442 -16.445,-0.766 -24.328,2.02 l 0.812,9.712 c 6.127,3.071 12.985,4.892 20.598,5.459 l 0,0 z"
         id="path965" />
      <path
         inkscape:connector-curvature="0"
         style="fill:#fbe000"
         d="m 863.93,386.896 c -0.088,-0.105 -0.186,-0.174 -0.254,-0.211 -0.279,-0.143 -0.471,0.008 -0.566,0.453 l -0.559,2.342 -2.535,1.158 c -0.496,0.244 -0.562,0.502 -0.213,0.765 0.043,0.021 0.09,0.058 0.135,0.091 l 0.25,0.151 c 0.014,0.019 0.045,0.033 0.078,0.06 0.1,0.056 0.213,0.117 0.316,0.193 0.334,0.197 0.656,0.408 0.996,0.63 0.047,0.033 0.102,0.063 0.156,0.083 l 0.482,0.309 0.334,2.432 c 0,0.238 0.035,0.404 0.111,0.5 0.125,0.096 0.326,0.059 0.602,-0.131 l 2.25,-1.942 0.039,0.003 c 0.482,0.068 0.957,0.143 1.441,0.211 l 1.311,0.168 0.172,0.021 c 0.537,0.007 0.678,-0.237 0.404,-0.714 l -1.121,-2.258 1.141,-2.431 c 0.131,-0.267 0.16,-0.452 0.068,-0.558 -0.096,-0.089 -0.281,-0.115 -0.545,-0.085 l -2.752,0.415 -0.047,-0.033 -1.694,-1.622 0,0 z"
         id="path967" />
      <path
         inkscape:connector-curvature="0"
         style="fill:#fbe000"
         d="m 868.439,394.181 c 0.018,0.006 0.025,0.003 0.037,0 l -0.172,-0.021 0.135,0.021 0,0 z"
         id="path969" />
      <path
         inkscape:connector-curvature="0"
         style="fill:none;stroke:#6b7d27;stroke-width:1.18289995;stroke-linecap:round;stroke-linejoin:round;stroke-miterlimit:10"
         d="m 863.93,386.896 1.695,1.619 0.047,0.035 2.752,-0.415 c 0.264,-0.03 0.449,-0.004 0.545,0.085 0.092,0.105 0.062,0.291 -0.068,0.558 l -1.141,2.431 1.121,2.258 c 0.273,0.477 0.133,0.72 -0.404,0.714 l -0.172,-0.021 -1.311,-0.168 c -0.484,-0.068 -0.959,-0.143 -1.441,-0.211 l -0.039,-0.003 -2.25,1.942 c -0.275,0.189 -0.477,0.227 -0.602,0.131 -0.076,-0.096 -0.111,-0.262 -0.111,-0.5 l -0.334,-2.432 -0.482,-0.309 c -0.055,-0.02 -0.109,-0.05 -0.156,-0.083 -0.34,-0.222 -0.662,-0.433 -0.996,-0.63 -0.104,-0.076 -0.217,-0.138 -0.316,-0.193 -0.033,-0.026 -0.064,-0.041 -0.078,-0.06 l -0.25,-0.151 c -0.045,-0.033 -0.092,-0.069 -0.135,-0.091 -0.35,-0.263 -0.283,-0.521 0.213,-0.765 l 2.535,-1.158 0.559,-2.342 c 0.096,-0.445 0.287,-0.596 0.566,-0.453 0.067,0.039 0.165,0.107 0.253,0.212 l 0,0 z"
         id="path971" />
      <path
         inkscape:connector-curvature="0"
         style="fill:#ce2120"
         d="m 874.033,393.142 c -0.07,-0.812 -0.408,-1.483 -1.018,-2.012 -0.619,-0.513 -1.354,-0.733 -2.166,-0.666 -0.811,0.067 -1.467,0.405 -1.982,1.014 -0.543,0.624 -0.781,1.342 -0.709,2.156 0.068,0.841 0.422,1.523 1.059,2.021 0.611,0.545 1.316,0.782 2.125,0.715 0.812,-0.068 1.498,-0.422 2.025,-1.062 0.512,-0.592 0.737,-1.326 0.666,-2.166 l 0,0 z"
         id="path973" />
      <path
         inkscape:connector-curvature="0"
         style="fill:none;stroke:#921113;stroke-width:1.53840005;stroke-linecap:round;stroke-linejoin:round;stroke-miterlimit:10"
         d="m 874.033,393.142 c 0.07,0.841 -0.154,1.574 -0.666,2.166 -0.527,0.64 -1.213,0.993 -2.025,1.062 -0.809,0.067 -1.514,-0.17 -2.125,-0.715 -0.637,-0.497 -0.99,-1.18 -1.059,-2.021 -0.072,-0.814 0.166,-1.532 0.709,-2.156 0.516,-0.608 1.172,-0.946 1.982,-1.014 0.812,-0.067 1.547,0.153 2.166,0.666 0.61,0.528 0.948,1.199 1.018,2.012 l 0,0 z"
         id="path975" />
      <path
         inkscape:connector-curvature="0"
         style="fill:#6f53a0"
         d="m 880.652,395.244 c -0.068,-0.811 -0.404,-1.482 -1.016,-2.01 -0.621,-0.514 -1.355,-0.734 -2.168,-0.667 -0.811,0.068 -1.467,0.404 -1.977,1.013 -0.545,0.624 -0.779,1.344 -0.713,2.156 0.068,0.84 0.424,1.525 1.059,2.021 0.611,0.543 1.316,0.783 2.127,0.715 0.811,-0.068 1.494,-0.423 2.021,-1.062 0.517,-0.592 0.74,-1.324 0.667,-2.166 l 0,0 z"
         id="path977" />
      <path
         inkscape:connector-curvature="0"
         style="fill:none;stroke:#352082;stroke-width:1.53840005;stroke-linecap:round;stroke-linejoin:round;stroke-miterlimit:10"
         d="m 880.652,395.244 c 0.072,0.842 -0.15,1.574 -0.666,2.166 -0.527,0.64 -1.211,0.994 -2.021,1.062 -0.81,0.068 -1.516,-0.172 -2.127,-0.715 -0.635,-0.496 -0.99,-1.182 -1.059,-2.021 -0.066,-0.812 0.168,-1.532 0.713,-2.156 0.51,-0.608 1.166,-0.944 1.977,-1.013 0.812,-0.067 1.547,0.153 2.168,0.667 0.611,0.528 0.947,1.2 1.015,2.01 l 0,0 z"
         id="path979" />
      <path
         inkscape:connector-curvature="0"
         style="fill:#ce2120"
         d="m 898.414,391.115 c -0.066,-0.812 -0.404,-1.481 -1.012,-2.011 -0.627,-0.513 -1.355,-0.734 -2.168,-0.666 -0.812,0.067 -1.469,0.405 -1.984,1.013 -0.541,0.626 -0.777,1.345 -0.711,2.155 0.072,0.842 0.428,1.524 1.064,2.024 0.605,0.543 1.312,0.781 2.123,0.713 0.812,-0.068 1.5,-0.424 2.023,-1.062 0.517,-0.592 0.737,-1.324 0.665,-2.166 l 0,0 z"
         id="path981" />
      <path
         inkscape:connector-curvature="0"
         style="fill:none;stroke:#921113;stroke-width:1.53840005;stroke-linecap:round;stroke-linejoin:round;stroke-miterlimit:10"
         d="m 898.414,391.115 c 0.072,0.842 -0.148,1.574 -0.664,2.167 -0.523,0.638 -1.211,0.993 -2.023,1.062 -0.811,0.068 -1.518,-0.17 -2.123,-0.713 -0.637,-0.5 -0.992,-1.183 -1.064,-2.024 -0.066,-0.811 0.17,-1.529 0.711,-2.155 0.516,-0.607 1.172,-0.945 1.984,-1.013 0.812,-0.068 1.541,0.153 2.168,0.666 0.607,0.529 0.945,1.198 1.011,2.01 l 0,0 z"
         id="path983" />
      <path
         inkscape:connector-curvature="0"
         style="fill:#9dc517"
         d="m 895.062,391.91 c -0.625,-0.514 -1.355,-0.734 -2.168,-0.666 -0.809,0.066 -1.467,0.403 -1.982,1.013 -0.539,0.624 -0.777,1.343 -0.709,2.155 0.072,0.84 0.426,1.524 1.059,2.021 0.615,0.543 1.316,0.783 2.133,0.715 0.807,-0.068 1.49,-0.423 2.02,-1.062 0.514,-0.592 0.736,-1.324 0.664,-2.166 -0.069,-0.812 -0.407,-1.482 -1.017,-2.01 l 0,0 z"
         id="path985" />
      <path
         inkscape:connector-curvature="0"
         style="fill:none;stroke:#388e36;stroke-width:1.53840005;stroke-linecap:round;stroke-linejoin:round;stroke-miterlimit:10"
         d="m 895.062,391.91 c 0.609,0.527 0.947,1.198 1.016,2.01 0.072,0.842 -0.15,1.574 -0.664,2.166 -0.529,0.64 -1.213,0.994 -2.02,1.062 -0.816,0.068 -1.518,-0.172 -2.133,-0.715 -0.633,-0.497 -0.986,-1.182 -1.059,-2.021 -0.068,-0.812 0.17,-1.531 0.709,-2.155 0.516,-0.609 1.174,-0.946 1.982,-1.013 0.814,-0.068 1.545,0.152 2.169,0.666 l 0,0 z"
         id="path987" />
      <path
         inkscape:connector-curvature="0"
         style="fill:#fbe000"
         d="m 886.602,392.329 c -0.088,-0.156 -0.184,-0.267 -0.266,-0.335 -0.318,-0.256 -0.605,-0.111 -0.842,0.426 l -1.34,2.834 -3.525,0.801 c -0.703,0.178 -0.855,0.488 -0.477,0.918 0.049,0.039 0.096,0.094 0.146,0.149 l 0.275,0.26 c 0.016,0.028 0.045,0.057 0.078,0.097 0.113,0.095 0.244,0.203 0.359,0.328 0.367,0.341 0.725,0.696 1.098,1.066 0.049,0.058 0.111,0.111 0.176,0.149 l 0.535,0.521 -0.225,3.184 c -0.062,0.305 -0.059,0.526 0.01,0.67 0.135,0.15 0.402,0.159 0.805,-0.009 l 3.379,-1.873 0.049,0.013 c 0.596,0.216 1.182,0.436 1.777,0.652 l 1.621,0.563 0.215,0.07 c 0.682,0.151 0.928,-0.122 0.707,-0.802 l -0.828,-3.171 2.096,-2.793 c 0.246,-0.303 0.332,-0.533 0.242,-0.69 -0.102,-0.139 -0.332,-0.224 -0.678,-0.255 l -3.611,-0.203 -0.049,-0.055 -1.727,-2.515 0,0 z"
         id="path989" />
      <path
         inkscape:connector-curvature="0"
         style="fill:#fbe000"
         d="m 890.406,402.805 c 0.018,0.015 0.029,0.013 0.045,0.01 l -0.215,-0.07 0.17,0.059 v 0.001 z"
         id="path991" />
      <path
         inkscape:connector-curvature="0"
         style="fill:none;stroke:#6b7d27;stroke-width:1.53840005;stroke-linecap:round;stroke-linejoin:round;stroke-miterlimit:10"
         d="m 886.602,392.329 1.729,2.517 0.049,0.055 3.611,0.203 c 0.346,0.031 0.576,0.116 0.678,0.255 0.09,0.157 0.004,0.388 -0.242,0.69 l -2.096,2.793 0.828,3.171 c 0.221,0.68 -0.025,0.953 -0.707,0.802 l -0.215,-0.07 -1.621,-0.563 c -0.596,-0.217 -1.182,-0.437 -1.777,-0.652 l -0.049,-0.013 -3.379,1.873 c -0.402,0.168 -0.67,0.159 -0.805,0.009 -0.068,-0.144 -0.072,-0.365 -0.01,-0.67 l 0.225,-3.184 -0.535,-0.521 c -0.064,-0.038 -0.127,-0.092 -0.176,-0.149 -0.373,-0.37 -0.73,-0.726 -1.098,-1.066 -0.115,-0.125 -0.246,-0.233 -0.359,-0.328 -0.033,-0.04 -0.062,-0.068 -0.078,-0.097 l -0.275,-0.26 c -0.051,-0.056 -0.098,-0.11 -0.146,-0.149 -0.379,-0.43 -0.227,-0.74 0.477,-0.918 l 3.525,-0.801 1.34,-2.834 c 0.236,-0.537 0.523,-0.682 0.842,-0.426 0.08,0.066 0.176,0.177 0.264,0.333 l 0,0 z"
         id="path993" />
      <path
         inkscape:connector-curvature="0"
         style="fill:#f18900"
         d="m 880.811,406.88 -5.555,-9.203 c 16.418,0.744 25.65,-5.708 27.719,-19.316 4.34,1.807 7.707,3.97 10.092,6.512 -2.549,14.651 -13.297,21.986 -32.256,22.007 l 0,0 z"
         id="path995" />
      <path
         inkscape:connector-curvature="0"
         style="fill:none;stroke:#d04215;stroke-width:2.05150008;stroke-linecap:square;stroke-miterlimit:10"
         d="m 875.256,397.677 c 16.418,0.744 25.65,-5.708 27.719,-19.316 4.34,1.807 7.707,3.97 10.092,6.512 -2.549,14.652 -13.297,21.985 -32.256,22.007 l -5.555,-9.203 0,0 z"
         id="path997" />
      <path
         inkscape:connector-curvature="0"
         style="fill:#eda1c1"
         d="m 895.707,392.574 c 3.043,1.844 5.32,4.923 6.834,9.271 -5.533,3.536 -12.781,5.204 -21.73,5.034 l -5.555,-9.203 c 9.254,0.03 16.064,-1.662 20.451,-5.102 l 0,0 z"
         id="path999" />
      <path
         inkscape:connector-curvature="0"
         style="fill:none;stroke:#df5d91;stroke-width:2.05150008;stroke-linecap:square;stroke-miterlimit:10"
         d="m 902.541,401.846 c -5.533,3.536 -12.781,5.204 -21.73,5.034 l -5.555,-9.203 c 9.254,0.029 16.064,-1.663 20.451,-5.103 3.043,1.844 5.32,4.923 6.834,9.272 l 0,0 z"
         id="path1001" />
      <polygon
         style="fill:#eda1c1"
         points="877.396,405.848 873.689,398.852 873.689,398.852 877.43,398.85 881.521,405.692 "
         id="polygon1003" />
      <path
         inkscape:connector-curvature="0"
         style="fill:#3197cf"
         d="m 954.561,353.776 c 1.727,-0.429 3.375,-0.136 4.924,0.885 1.539,1.036 2.547,2.511 3.018,4.396 l 0.008,0.027 c 0.158,0.634 0.234,1.255 0.246,1.849 l -97.871,24.312 c -0.031,-0.558 -0.123,-1.115 -0.27,-1.706 -0.418,-1.682 -1.146,-3.014 -2.172,-4.011 -1.043,-0.991 -2.078,-1.36 -3.115,-1.103 -0.459,0.115 -0.863,0.336 -1.209,0.666 0.842,-1.109 1.955,-1.844 3.334,-2.187 l 93.107,-23.128 0,0 z"
         id="path1005" />
      <path
         inkscape:connector-curvature="0"
         style="fill:#43a6de"
         d="m 859.328,378.426 c 1.037,-0.257 2.072,0.11 3.115,1.103 1.025,0.998 1.754,2.329 2.172,4.011 0.146,0.59 0.238,1.148 0.27,1.706 0.084,1.017 -0.025,1.977 -0.312,2.854 -0.451,1.38 -1.197,2.192 -2.23,2.449 -0.131,0.032 -0.25,0.046 -0.381,0.063 -0.688,-0.18 -1.361,-0.501 -2.004,-0.938 -0.914,-0.598 -1.633,-1.336 -2.172,-2.224 -0.305,-0.611 -0.547,-1.284 -0.734,-2.031 -0.34,-1.368 -0.395,-2.634 -0.162,-3.792 0.148,-0.573 0.377,-1.118 0.658,-1.646 0.18,-0.319 0.369,-0.611 0.572,-0.891 0.345,-0.327 0.749,-0.549 1.208,-0.664 l 0,0 z"
         id="path1007" />
      <path
         inkscape:connector-curvature="0"
         style="fill:#43a6de"
         d="m 862.342,390.55 c 1.033,-0.257 1.779,-1.069 2.23,-2.449 0.287,-0.878 0.396,-1.838 0.312,-2.854 l 97.871,-24.312 c 0.008,1.205 -0.275,2.342 -0.863,3.419 -0.889,1.641 -2.201,2.685 -3.926,3.114 l -93.107,23.128 c -0.867,0.215 -1.713,0.242 -2.529,0.095 l 0.012,-0.144 v 0.003 z"
         id="path1009" />
      <polygon
         style="fill:#3197cf"
         points="862.33,390.69 862.316,390.693 862.342,390.55 862.33,390.69 "
         id="polygon1011" />
      <path
         inkscape:connector-curvature="0"
         style="fill:none;stroke:#242424;stroke-width:1.02600002;stroke-linecap:round;stroke-linejoin:round;stroke-miterlimit:10"
         d="m 859.328,378.426 c -0.459,0.115 -0.863,0.336 -1.209,0.666 -0.432,0.414 -0.771,1.003 -1.025,1.766 -0.076,0.248 -0.15,0.497 -0.205,0.771 -0.232,1.157 -0.178,2.424 0.162,3.792 0.188,0.747 0.43,1.42 0.734,2.031 0.391,0.774 0.859,1.434 1.438,1.979 0.904,0.873 1.826,1.271 2.738,1.182 0.131,-0.018 0.25,-0.031 0.381,-0.063 1.033,-0.257 1.779,-1.069 2.23,-2.449 0.287,-0.878 0.396,-1.838 0.312,-2.854 -0.031,-0.558 -0.123,-1.115 -0.27,-1.706 -0.418,-1.682 -1.146,-3.014 -2.172,-4.011 -1.042,-0.992 -2.077,-1.361 -3.114,-1.104 l 0,0 z"
         id="path1013" />
      <path
         inkscape:connector-curvature="0"
         style="fill:none;stroke:#242424;stroke-width:2.05200005;stroke-linecap:round;stroke-linejoin:round;stroke-miterlimit:10"
         d="m 959.484,354.661 c 1.539,1.036 2.547,2.511 3.018,4.396 l 0.008,0.027 c 0.158,0.634 0.234,1.255 0.246,1.849 0.008,1.205 -0.275,2.342 -0.863,3.419 -0.889,1.641 -2.201,2.685 -3.926,3.114 l -93.107,23.13 c -0.867,0.213 -1.713,0.24 -2.529,0.093 l -0.014,0.003 c -0.113,-0.019 -0.242,-0.047 -0.355,-0.08 -0.688,-0.18 -1.361,-0.501 -2.004,-0.938 -0.914,-0.598 -1.633,-1.336 -2.172,-2.224 -0.391,-0.638 -0.668,-1.345 -0.867,-2.136 l -0.006,-0.029 c -0.318,-1.28 -0.332,-2.499 -0.023,-3.658 0.148,-0.573 0.377,-1.118 0.658,-1.646 0.18,-0.319 0.369,-0.611 0.572,-0.891 0.842,-1.109 1.955,-1.844 3.334,-2.187 l 93.107,-23.129 c 1.727,-0.429 3.375,-0.136 4.924,0.883 v 0.004 z"
         id="path1015" />
      <path
         inkscape:connector-curvature="0"
         style="fill:#3197cf"
         d="m 888.965,368.346 c 1.621,0.132 2.834,0.396 3.656,0.816 0.688,0.367 1.086,0.814 1.229,1.375 0.311,1.251 -0.793,2.656 -3.289,4.223 -2.5,1.552 -5.684,2.815 -9.521,3.77 -3.842,0.954 -7.246,1.327 -10.182,1.126 -2.941,-0.217 -4.557,-0.947 -4.869,-2.198 -0.137,-0.559 0.008,-1.146 0.443,-1.79 0.529,-0.756 1.475,-1.557 2.832,-2.427 2.502,-1.553 5.684,-2.816 9.523,-3.77 3.84,-0.955 7.246,-1.328 10.178,-1.125 l 0,0 z"
         id="path1017" />
      <path
         inkscape:connector-curvature="0"
         style="fill:none;stroke:#242424;stroke-width:2.05200005;stroke-linecap:round;stroke-linejoin:round;stroke-miterlimit:10"
         d="m 892.621,369.162 c 0.688,0.367 1.086,0.814 1.229,1.375 0.311,1.251 -0.793,2.656 -3.289,4.223 -2.5,1.552 -5.684,2.815 -9.521,3.77 -3.842,0.954 -7.246,1.327 -10.182,1.126 -2.941,-0.217 -4.557,-0.947 -4.869,-2.198 -0.137,-0.559 0.008,-1.146 0.443,-1.79 0.529,-0.756 1.475,-1.557 2.832,-2.427 2.502,-1.553 5.684,-2.816 9.523,-3.77 3.84,-0.955 7.246,-1.328 10.178,-1.125 1.621,0.132 2.834,0.396 3.656,0.816 l 0,0 z"
         id="path1019" />
      <path
         inkscape:connector-curvature="0"
         style="fill:#5cb5e6"
         d="m 931.105,369.803 c -0.158,0.038 -0.316,0.017 -0.461,-0.068 -0.133,-0.104 -0.223,-0.235 -0.271,-0.422 -0.043,-0.172 -0.021,-0.33 0.051,-0.47 0.086,-0.158 0.211,-0.25 0.369,-0.291 l 23.299,-5.788 c 0.158,-0.04 0.318,-0.018 0.449,0.087 0.145,0.085 0.234,0.216 0.281,0.389 0.047,0.188 0.025,0.345 -0.061,0.504 -0.068,0.139 -0.201,0.232 -0.357,0.27 l -23.299,5.789 0,0 z"
         id="path1021" />
      <path
         inkscape:connector-curvature="0"
         style="fill:#0d729f"
         d="m 887.076,371.747 c 0.117,0.46 -0.463,1.031 -1.725,1.711 -1.26,0.647 -2.846,1.21 -4.742,1.681 -1.9,0.473 -3.564,0.717 -4.996,0.738 -1.422,-0.013 -2.197,-0.249 -2.312,-0.708 -0.111,-0.446 0.465,-1.017 1.723,-1.678 1.268,-0.667 2.854,-1.229 4.75,-1.701 1.9,-0.472 3.562,-0.717 4.984,-0.718 1.433,-0.007 2.209,0.228 2.318,0.675 l 0,0 z"
         id="path1023" />
      <path
         inkscape:connector-curvature="0"
         style="fill:none;stroke:#242424;stroke-width:1.02600002;stroke-linecap:round;stroke-linejoin:round;stroke-miterlimit:10"
         d="m 885.352,373.458 c -1.26,0.647 -2.846,1.211 -4.742,1.681 -1.9,0.473 -3.564,0.717 -4.996,0.738 -1.422,-0.013 -2.197,-0.249 -2.312,-0.708 -0.111,-0.446 0.465,-1.017 1.723,-1.678 1.268,-0.667 2.854,-1.229 4.75,-1.701 1.9,-0.472 3.562,-0.717 4.984,-0.718 1.434,-0.006 2.209,0.229 2.318,0.675 0.116,0.46 -0.464,1.03 -1.725,1.711 l 0,0 z"
         id="path1025" />
      <path
         inkscape:connector-curvature="0"
         style="fill:#0d729f"
         d="m 948.639,358.515 c 0.541,-0.531 1.242,-0.903 2.121,-1.121 0.875,-0.219 1.67,-0.218 2.381,0.002 0.723,0.203 1.15,0.57 1.279,1.102 0.133,0.518 -0.074,1.042 -0.613,1.575 -0.529,0.512 -1.23,0.885 -2.109,1.102 -0.879,0.219 -1.672,0.217 -2.393,0.015 -0.727,-0.216 -1.154,-0.583 -1.283,-1.102 -0.129,-0.531 0.074,-1.057 0.617,-1.573 l 0,0 z"
         id="path1027" />
      <path
         inkscape:connector-curvature="0"
         style="fill:none;stroke:#242424;stroke-width:1.02600002;stroke-linecap:round;stroke-linejoin:round;stroke-miterlimit:10"
         d="m 950.76,357.394 c 0.875,-0.219 1.67,-0.218 2.381,0.002 0.723,0.203 1.15,0.57 1.279,1.102 0.133,0.518 -0.074,1.042 -0.613,1.575 -0.529,0.512 -1.23,0.885 -2.109,1.102 -0.879,0.219 -1.672,0.217 -2.393,0.015 -0.727,-0.216 -1.154,-0.583 -1.283,-1.102 -0.129,-0.531 0.074,-1.057 0.617,-1.573 0.541,-0.532 1.242,-0.904 2.121,-1.121 l 0,0 z"
         id="path1029" />
      <path
         inkscape:connector-curvature="0"
         style="fill:#0d729f"
         d="m 938.596,360.308 c 0.879,-0.218 1.672,-0.218 2.398,0 0.721,0.202 1.146,0.568 1.281,1.101 0.127,0.518 -0.076,1.042 -0.619,1.574 -0.541,0.517 -1.244,0.889 -2.121,1.107 -0.877,0.218 -1.674,0.217 -2.379,0.012 -0.727,-0.219 -1.152,-0.584 -1.281,-1.103 -0.133,-0.531 0.074,-1.057 0.617,-1.573 0.526,-0.528 1.227,-0.901 2.104,-1.118 l 0,0 z"
         id="path1031" />
      <path
         inkscape:connector-curvature="0"
         style="fill:none;stroke:#242424;stroke-width:1.02600002;stroke-linecap:round;stroke-linejoin:round;stroke-miterlimit:10"
         d="m 940.994,360.308 c 0.721,0.202 1.146,0.568 1.281,1.101 0.127,0.518 -0.076,1.042 -0.619,1.574 -0.541,0.517 -1.244,0.889 -2.121,1.107 -0.877,0.218 -1.674,0.217 -2.379,0.012 -0.727,-0.219 -1.152,-0.584 -1.281,-1.103 -0.133,-0.531 0.074,-1.057 0.617,-1.573 0.525,-0.527 1.227,-0.9 2.104,-1.118 0.879,-0.218 1.672,-0.218 2.398,0 l 0,0 z"
         id="path1033" />
      <path
         inkscape:connector-curvature="0"
         style="fill:#0d729f"
         d="m 926.451,363.355 c 0.875,-0.217 1.67,-0.217 2.395,0 0.727,0.202 1.15,0.569 1.281,1.102 0.131,0.518 -0.076,1.042 -0.613,1.572 -0.547,0.518 -1.246,0.891 -2.123,1.108 -0.879,0.218 -1.674,0.217 -2.379,0.01 -0.725,-0.215 -1.156,-0.584 -1.283,-1.102 -0.133,-0.53 0.072,-1.056 0.617,-1.572 0.525,-0.528 1.228,-0.901 2.105,-1.118 l 0,0 z"
         id="path1035" />
      <path
         inkscape:connector-curvature="0"
         style="fill:none;stroke:#242424;stroke-width:1.02600002;stroke-linecap:round;stroke-linejoin:round;stroke-miterlimit:10"
         d="m 928.846,363.355 c 0.727,0.202 1.15,0.569 1.281,1.102 0.131,0.518 -0.076,1.042 -0.613,1.572 -0.547,0.518 -1.246,0.891 -2.123,1.108 -0.879,0.218 -1.674,0.217 -2.379,0.01 -0.725,-0.215 -1.156,-0.584 -1.283,-1.102 -0.133,-0.53 0.072,-1.056 0.617,-1.572 0.525,-0.528 1.229,-0.901 2.105,-1.118 0.875,-0.217 1.67,-0.217 2.395,0 l 0,0 z"
         id="path1037" />
      <path
         inkscape:connector-curvature="0"
         style="fill:#0d729f"
         d="m 914.361,366.206 c 0.879,-0.218 1.67,-0.218 2.398,0 0.721,0.201 1.148,0.57 1.281,1.101 0.131,0.518 -0.076,1.043 -0.617,1.574 -0.543,0.517 -1.246,0.89 -2.123,1.107 -0.877,0.218 -1.672,0.216 -2.379,0.011 -0.725,-0.217 -1.152,-0.583 -1.281,-1.102 -0.133,-0.533 0.074,-1.056 0.617,-1.574 0.526,-0.526 1.227,-0.901 2.104,-1.117 l 0,0 z"
         id="path1039" />
      <path
         inkscape:connector-curvature="0"
         style="fill:none;stroke:#242424;stroke-width:1.02600002;stroke-linecap:round;stroke-linejoin:round;stroke-miterlimit:10"
         d="m 916.76,366.206 c 0.721,0.201 1.148,0.57 1.281,1.101 0.131,0.518 -0.076,1.043 -0.617,1.574 -0.543,0.517 -1.246,0.89 -2.123,1.107 -0.877,0.216 -1.672,0.216 -2.379,0.01 -0.725,-0.216 -1.152,-0.582 -1.281,-1.101 -0.133,-0.533 0.074,-1.056 0.617,-1.574 0.525,-0.528 1.227,-0.901 2.104,-1.118 0.878,-0.217 1.669,-0.217 2.398,0.001 l 0,0 z"
         id="path1041" />
      <path
         inkscape:connector-curvature="0"
         style="fill:#0d729f"
         d="m 902.354,369.189 c 0.877,-0.219 1.672,-0.218 2.396,0 0.723,0.202 1.15,0.569 1.281,1.1 0.127,0.519 -0.076,1.044 -0.617,1.574 -0.543,0.518 -1.244,0.89 -2.123,1.108 -0.877,0.217 -1.67,0.215 -2.377,0.01 -0.727,-0.217 -1.154,-0.583 -1.281,-1.1 -0.135,-0.534 0.072,-1.058 0.615,-1.575 0.525,-0.527 1.229,-0.9 2.106,-1.117 l 0,0 z"
         id="path1043" />
      <path
         inkscape:connector-curvature="0"
         style="fill:none;stroke:#242424;stroke-width:1.02600002;stroke-linecap:round;stroke-linejoin:round;stroke-miterlimit:10"
         d="m 904.75,369.189 c 0.723,0.202 1.15,0.569 1.281,1.1 0.127,0.519 -0.076,1.044 -0.617,1.574 -0.543,0.518 -1.244,0.89 -2.123,1.108 -0.877,0.217 -1.67,0.215 -2.377,0.01 -0.727,-0.217 -1.154,-0.583 -1.281,-1.1 -0.135,-0.534 0.072,-1.058 0.615,-1.575 0.525,-0.527 1.229,-0.9 2.105,-1.118 0.877,-0.218 1.672,-0.217 2.397,0.001 l 0,0 z"
         id="path1045" />
      <path
         inkscape:connector-curvature="0"
         style="fill:#f18900"
         d="m 943.34,369.133 c 0.963,0.596 1.518,1.457 1.648,2.568 0.135,1.112 -0.182,2.048 -0.951,2.806 -1.139,1.014 -2.312,1.705 -3.529,2.074 -1.119,0.348 -2.348,0.433 -3.666,0.257 -0.998,-0.248 -1.738,-0.614 -2.236,-1.126 -0.643,-0.634 -0.971,-1.525 -0.949,-2.663 -0.016,-0.858 0.297,-1.666 0.926,-2.427 0.58,-0.73 1.371,-1.312 2.355,-1.749 2.253,-0.996 4.388,-0.898 6.402,0.26 l 0,0 z"
         id="path1047" />
      <path
         inkscape:connector-curvature="0"
         style="fill:none;stroke:#d04215;stroke-width:2.05189991;stroke-linecap:round;stroke-linejoin:round;stroke-miterlimit:10"
         d="m 944.988,371.701 c 0.135,1.112 -0.182,2.048 -0.951,2.806 -1.139,1.014 -2.312,1.705 -3.529,2.074 -1.119,0.348 -2.348,0.433 -3.666,0.257 -0.998,-0.248 -1.738,-0.613 -2.236,-1.126 -0.643,-0.634 -0.971,-1.525 -0.949,-2.663 -0.016,-0.858 0.297,-1.666 0.926,-2.427 0.58,-0.73 1.371,-1.312 2.355,-1.749 2.254,-0.996 4.389,-0.898 6.402,0.26 0.963,0.596 1.517,1.456 1.648,2.568 l 0,0 z"
         id="path1049" />
      <path
         inkscape:connector-curvature="0"
         style="fill:#f18900"
         d="m 952.965,354.421 c -0.469,1.373 -1.299,2.235 -2.467,2.561 -1.184,0.332 -2.482,0.077 -3.885,-0.792 -1.514,-0.696 -2.783,-0.797 -3.818,-0.277 -1.932,-1.794 -2.361,-3.628 -1.283,-5.541 1.086,-1.901 3.369,-2.62 6.852,-2.156 1.877,0.389 3.203,1.096 4.01,2.115 0.827,1.059 1.028,2.425 0.591,4.09 l 0,0 z"
         id="path1051" />
      <path
         inkscape:connector-curvature="0"
         style="fill:none;stroke:#d04215;stroke-width:2.05189991;stroke-linecap:round;stroke-linejoin:round;stroke-miterlimit:10"
         d="m 950.498,356.981 c -1.184,0.332 -2.482,0.077 -3.885,-0.792 -1.514,-0.696 -2.783,-0.797 -3.818,-0.277 -1.932,-1.794 -2.361,-3.628 -1.283,-5.541 1.086,-1.901 3.369,-2.62 6.852,-2.156 1.877,0.389 3.203,1.096 4.01,2.115 0.828,1.059 1.029,2.425 0.592,4.09 -0.47,1.373 -1.3,2.236 -2.468,2.561 l 0,0 z"
         id="path1053" />
      <path
         inkscape:connector-curvature="0"
         style="fill:#f18900"
         d="m 940.621,359.144 c -0.826,0.258 -1.658,0.291 -2.461,0.101 -1.611,-0.431 -3.234,-1.599 -4.85,-3.479 -1.58,-1.849 -2.32,-3.328 -2.17,-4.436 0.062,-1.614 0.711,-2.834 1.93,-3.689 1.072,-0.769 2.379,-1.072 3.873,-0.917 3.17,0.354 5.488,2.504 6.955,6.43 0.633,1.765 0.244,3.333 -1.143,4.705 -0.612,0.592 -1.323,1.02 -2.134,1.285 l 0,0 z"
         id="path1055" />
      <path
         inkscape:connector-curvature="0"
         style="fill:none;stroke:#d04215;stroke-width:2.05189991;stroke-linecap:round;stroke-linejoin:round;stroke-miterlimit:10"
         d="m 940.621,359.144 c 0.811,-0.264 1.521,-0.693 2.135,-1.285 1.387,-1.373 1.775,-2.94 1.143,-4.705 -1.467,-3.925 -3.785,-6.076 -6.955,-6.43 -1.494,-0.156 -2.801,0.148 -3.873,0.917 -1.219,0.854 -1.867,2.075 -1.93,3.689 -0.15,1.108 0.59,2.587 2.17,4.436 1.615,1.88 3.238,3.047 4.85,3.479 0.802,0.19 1.634,0.156 2.46,-0.101 l 0,0 z"
         id="path1057" />
      <path
         inkscape:connector-curvature="0"
         style="fill:#f18900"
         d="m 925.791,364.88 c -1.965,-3.121 -2.518,-6.214 -1.658,-9.274 0.807,-2.445 2.193,-3.763 4.146,-3.938 0.838,-0.071 1.668,0.122 2.48,0.584 0.812,0.459 1.482,1.144 2.006,2.041 1.971,3.434 2.279,6.846 0.945,10.263 -0.883,1.519 -2.07,2.336 -3.541,2.479 -1.558,0.142 -3.023,-0.566 -4.378,-2.155 l 0,0 z"
         id="path1059" />
      <path
         inkscape:connector-curvature="0"
         style="fill:none;stroke:#d04215;stroke-width:2.05189991;stroke-linecap:round;stroke-linejoin:round;stroke-miterlimit:10"
         d="m 925.791,364.88 c 1.355,1.588 2.82,2.297 4.379,2.154 1.471,-0.143 2.658,-0.96 3.541,-2.479 1.334,-3.417 1.025,-6.829 -0.945,-10.263 -0.523,-0.897 -1.193,-1.582 -2.006,-2.041 -0.812,-0.462 -1.643,-0.655 -2.48,-0.584 -1.953,0.176 -3.34,1.494 -4.146,3.938 -0.861,3.061 -0.308,6.154 1.657,9.275 l 0,0 z"
         id="path1061" />
      <path
         inkscape:connector-curvature="0"
         style="fill:#d04215"
         d="m 914.678,384.653 c 0.121,-0.058 0.227,-0.112 0.344,-0.173 4.715,-2.601 7.338,-6.556 7.861,-11.879 0.268,-2.803 0.035,-5.242 -0.68,-7.291 -0.713,-2.045 -1.822,-3.196 -3.34,-3.443 -1.293,-0.23 -2.225,0.057 -2.826,0.874 1.539,3.523 1.834,6.16 0.912,7.917 -0.648,-2.412 -1.195,-3.993 -1.656,-4.774 -0.83,-1.821 -2.021,-3.031 -3.549,-3.657 -0.516,-0.203 -0.984,-0.317 -1.441,-0.335 1.062,4.657 0.938,7.937 -0.379,9.843 -0.027,-0.253 -0.055,-0.503 -0.072,-0.744 -0.279,-2.562 -0.537,-4.557 -0.771,-5.981 -0.143,-0.855 -0.271,-1.504 -0.393,-1.941 -0.053,-0.205 -0.119,-0.405 -0.174,-0.61 -0.254,-0.867 -0.555,-1.628 -0.908,-2.296 -0.047,-0.061 -0.084,-0.139 -0.123,-0.218 -0.514,-0.855 -1.131,-1.556 -1.873,-2.078 -0.758,-0.516 -1.734,-0.671 -2.91,-0.478 -2.711,0.716 -3.557,2.566 -2.51,5.539 1.789,3.396 2.586,8.437 2.393,15.118 l 0,0 c -0.512,2.877 -1.971,4.988 -4.371,6.346 1.125,1.542 2.594,1.763 4.381,0.665 l -1.238,2.515 c -3.148,0.969 -5.377,-0.067 -6.703,-3.099 3.775,-2.493 5.705,-4.792 5.77,-6.866 -0.104,-5.52 -0.646,-9.444 -1.627,-11.754 -0.981,-2.31 -1.441,-3.985 -1.377,-5.013 0.193,-3.281 1.863,-5.167 5.012,-5.671 3.277,-0.305 5.594,0.936 6.945,3.723 l 0.248,0.59 c 1.582,-0.216 3.221,0.237 4.908,1.381 0.953,-1.328 2.42,-1.881 4.383,-1.673 2.537,0.134 4.475,1.979 5.828,5.56 1.355,3.584 1.08,8.051 -0.838,13.443 -0.559,1.162 -1.34,2.415 -2.352,3.735 -2.053,2.71 -5.012,4.844 -8.859,6.396 l -0.588,-2.558 c 1.329,-0.52 2.19,-0.886 2.573,-1.113 l 0,0 z"
         id="path1063" />
      <path
         inkscape:connector-curvature="0"
         style="fill:#f18900"
         d="m 915.021,384.48 c -0.117,0.061 -0.223,0.115 -0.344,0.173 -0.383,0.227 -1.244,0.593 -2.574,1.112 -1.418,0.414 -2.881,0.57 -4.406,0.475 l -2.242,-3.203 -2.863,2.02 c -1.787,1.099 -3.256,0.877 -4.381,-0.665 2.4,-1.358 3.859,-3.469 4.371,-6.346 l 0,0 c 0.193,-6.682 -0.604,-11.722 -2.393,-15.118 -1.047,-2.973 -0.201,-4.823 2.51,-5.539 1.176,-0.194 2.152,-0.038 2.91,0.478 0.742,0.522 1.359,1.223 1.873,2.078 0.039,0.079 0.076,0.157 0.123,0.218 0.354,0.668 0.654,1.429 0.908,2.296 0.055,0.205 0.121,0.405 0.174,0.61 0.121,0.437 0.25,1.085 0.393,1.941 0.234,1.425 0.492,3.419 0.771,5.981 0.018,0.241 0.045,0.491 0.072,0.744 1.316,-1.906 1.441,-5.186 0.379,-9.843 0.457,0.019 0.926,0.132 1.441,0.335 1.527,0.625 2.719,1.835 3.549,3.657 0.461,0.781 1.008,2.363 1.656,4.774 0.922,-1.758 0.627,-4.394 -0.912,-7.917 0.602,-0.817 1.533,-1.104 2.826,-0.874 1.518,0.248 2.627,1.398 3.34,3.443 0.715,2.049 0.947,4.487 0.68,7.291 -0.523,5.323 -3.146,9.278 -7.861,11.879 l 0,0 z"
         id="path1065" />
    </g>
  </g>
</svg>
