<?xml version="1.0" encoding="UTF-8" standalone="no"?>
<!-- Created with Inkscape (http://www.inkscape.org/) -->

<svg
   xmlns:dc="http://purl.org/dc/elements/1.1/"
   xmlns:cc="http://creativecommons.org/ns#"
   xmlns:rdf="http://www.w3.org/1999/02/22-rdf-syntax-ns#"
   xmlns:svg="http://www.w3.org/2000/svg"
   xmlns="http://www.w3.org/2000/svg"
   xmlns:sodipodi="http://sodipodi.sourceforge.net/DTD/sodipodi-0.dtd"
   xmlns:inkscape="http://www.inkscape.org/namespaces/inkscape"
   width="169.44241"
   height="239.53697"
   id="svg5696"
   version="1.1"
   inkscape:version="0.48.4 r9939"
   sodipodi:docname="grover13.svg">
  <defs
     id="defs5698">
    <clipPath
       id="SVGID_2_">
      <rect
         height="88.862999"
         width="111.498"
         y="518.96198"
         x="382.04999"
         id="use1087" />
    </clipPath>
    <clipPath
       id="SVGID_4_">
      <rect
         height="41.314999"
         width="49.584999"
         y="525.19397"
         x="389.84698"
         id="use1111" />
    </clipPath>
  </defs>
  <sodipodi:namedview
     id="base"
     pagecolor="#ffffff"
     bordercolor="#666666"
     borderopacity="1.0"
     inkscape:pageopacity="0.0"
     inkscape:pageshadow="2"
     inkscape:zoom="0.77472527"
     inkscape:cx="30.997564"
     inkscape:cy="194.63661"
     inkscape:current-layer="layer1"
     inkscape:document-units="px"
     showgrid="false"
     inkscape:window-width="763"
     inkscape:window-height="591"
     inkscape:window-x="592"
     inkscape:window-y="97"
     inkscape:window-maximized="0"
     fit-margin-top="0"
     fit-margin-left="0"
     fit-margin-right="0"
     fit-margin-bottom="0" />
  <metadata
     id="metadata5701">
    <rdf:RDF>
      <cc:Work
         rdf:about="">
        <dc:format>image/svg+xml</dc:format>
        <dc:type
           rdf:resource="http://purl.org/dc/dcmitype/StillImage" />
        <dc:title></dc:title>
      </cc:Work>
    </rdf:RDF>
  </metadata>
  <g
     id="layer1"
     inkscape:label="Layer 1"
     inkscape:groupmode="layer"
     transform="translate(-286.94573,-40.206009)">
    <g
       transform="translate(-536.10529,-449.88202)"
       id="g911">
      <path
         inkscape:connector-curvature="0"
         style="fill:#7998a2"
         d="m 869.647,716.676 v -6.899 c 0,-0.858 -0.4,-1.287 -1.203,-1.287 h -4.534 c -0.804,0 -1.203,0.429 -1.203,1.287 v 6.899 c 0,0.86 0.399,1.288 1.203,1.288 h 4.534 c 0.803,0 1.203,-0.428 1.203,-1.288"
         id="path913" />
      <path
         inkscape:connector-curvature="0"
         style="fill:none;stroke:#3b4e54;stroke-width:2.14369988;stroke-linecap:round;stroke-linejoin:round;stroke-miterlimit:10"
         d="m 869.647,716.676 c 0,0.86 -0.4,1.288 -1.203,1.288 h -4.534 c -0.804,0 -1.203,-0.428 -1.203,-1.288 v -6.899 c 0,-0.858 0.399,-1.287 1.203,-1.287 h 4.534 c 0.803,0 1.203,0.429 1.203,1.287 v 6.899 z m 3.782,-4.961 h -14.435 c -0.328,0 -0.619,-0.128 -0.85,-0.375 -0.232,-0.244 -0.354,-0.559 -0.354,-0.911 v -1.048 c 0,-0.357 0.121,-0.665 0.354,-0.911 0.23,-0.249 0.521,-0.378 0.85,-0.378 h 14.435 c 0.333,0 0.622,0.129 0.854,0.378 0.229,0.246 0.351,0.554 0.351,0.911 v 1.048 c 0,0.353 -0.122,0.667 -0.351,0.911 -0.232,0.247 -0.521,0.375 -0.854,0.375 z"
         id="path915" />
      <path
         inkscape:connector-curvature="0"
         style="fill:#7998a2"
         d="m 942.175,709.776 v 6.899 c 0,0.86 0.402,1.288 1.205,1.288 h 4.534 c 0.802,0 1.203,-0.428 1.203,-1.288 v -6.899 c 0,-0.858 -0.401,-1.287 -1.203,-1.287 h -4.534 c -0.803,0 -1.205,0.429 -1.205,1.287"
         id="path917" />
      <path
         inkscape:connector-curvature="0"
         style="fill:none;stroke:#3b4e54;stroke-width:2.14369988;stroke-linecap:round;stroke-linejoin:round;stroke-miterlimit:10"
         d="m 942.175,709.776 c 0,-0.858 0.402,-1.287 1.205,-1.287 h 4.534 c 0.802,0 1.203,0.429 1.203,1.287 v 6.899 c 0,0.86 -0.401,1.288 -1.203,1.288 h -4.534 c -0.803,0 -1.205,-0.428 -1.205,-1.288 v -6.899 z m 10.724,1.939 h -14.433 c -0.333,0 -0.624,-0.128 -0.856,-0.375 -0.23,-0.244 -0.349,-0.559 -0.349,-0.911 v -1.048 c 0,-0.357 0.118,-0.665 0.349,-0.911 0.232,-0.249 0.523,-0.378 0.856,-0.378 h 14.433 c 0.328,0 0.622,0.129 0.852,0.378 0.23,0.246 0.354,0.554 0.354,0.911 v 1.048 c 0,0.353 -0.123,0.667 -0.354,0.911 -0.23,0.247 -0.523,0.375 -0.852,0.375 z"
         id="path919" />
      <path
         inkscape:connector-curvature="0"
         style="fill:#e45b9c"
         d="m 974.914,699.144 c -0.701,-0.032 -1.323,0.147 -1.855,0.565 -1.633,1.288 -3.513,2.456 -5.606,3.519 -3.64,1.811 -6.95,2.744 -9.911,2.772 h -0.601 -103.18 -0.512 c -2.899,-0.028 -6.399,-0.984 -10.502,-2.848 -1.845,-0.838 -3.58,-1.737 -5.194,-2.701 -0.551,-0.345 -1.165,-0.451 -1.827,-0.333 -0.652,0.118 -1.173,0.429 -1.543,0.932 -0.392,0.504 -0.515,1.062 -0.371,1.662 0.12,0.6 0.46,1.074 1.031,1.415 1.777,1.082 3.68,2.081 5.698,2.988 4.944,2.243 9.187,3.346 12.708,3.313 h 0.512 103.18 0.601 c 3.76,0.032 7.926,-1.083 12.5,-3.366 2.429,-1.211 4.594,-2.571 6.498,-4.084 0.512,-0.418 0.793,-0.921 0.821,-1.531 0.033,-0.611 -0.188,-1.137 -0.671,-1.586 -0.481,-0.461 -1.073,-0.697 -1.776,-0.717"
         id="path921" />
      <path
         inkscape:connector-curvature="0"
         style="fill:none;stroke:#c40164;stroke-width:2.14369988;stroke-linecap:round;stroke-linejoin:round;stroke-miterlimit:10"
         d="m 957.541,706 c 2.961,-0.028 6.271,-0.962 9.911,-2.772 2.094,-1.062 3.974,-2.23 5.606,-3.519 0.532,-0.418 1.154,-0.598 1.855,-0.565 0.703,0.021 1.295,0.257 1.775,0.718 0.483,0.449 0.704,0.975 0.673,1.589 -0.03,0.607 -0.312,1.11 -0.823,1.528 -1.904,1.513 -4.069,2.873 -6.498,4.084 -4.574,2.285 -8.738,3.398 -12.5,3.366 m -104.291,0 c -3.521,0.032 -7.764,-1.07 -12.708,-3.313 -2.019,-0.907 -3.921,-1.906 -5.698,-2.988 -0.571,-0.341 -0.911,-0.815 -1.031,-1.415 -0.144,-0.6 -0.021,-1.158 0.371,-1.662 0.37,-0.503 0.891,-0.813 1.543,-0.932 0.662,-0.118 1.276,-0.012 1.827,0.333 1.614,0.964 3.35,1.863 5.194,2.701 4.103,1.863 7.603,2.819 10.502,2.848 m 103.691,4.428 H 853.76 M 853.761,706 h 103.18"
         id="path923" />
      <path
         inkscape:connector-curvature="0"
         style="fill:#6eb92c"
         d="m 866.189,714.459 c -1.917,0 -3.542,0.686 -4.897,2.058 -1.352,1.382 -2.034,3.044 -2.034,4.995 0,1.938 0.683,3.601 2.034,4.973 1.355,1.384 2.98,2.079 4.897,2.079 1.914,0 3.549,-0.695 4.913,-2.079 1.354,-1.372 2.026,-3.034 2.026,-4.973 0,-1.951 -0.673,-3.613 -2.026,-4.995 -1.364,-1.372 -2.998,-2.058 -4.913,-2.058 m -3.872,7.042 c 0,-1.082 0.38,-2.016 1.142,-2.776 0.763,-0.783 1.676,-1.168 2.738,-1.168 1.074,0 1.998,0.385 2.748,1.168 0.753,0.761 1.136,1.694 1.136,2.776 0,1.091 -0.383,2.024 -1.136,2.785 -0.75,0.783 -1.674,1.168 -2.748,1.168 -1.062,0 -1.976,-0.385 -2.738,-1.168 -0.762,-0.761 -1.142,-1.694 -1.142,-2.785"
         id="path925" />
      <path
         inkscape:connector-curvature="0"
         style="fill:#34ad37"
         d="m 863.459,718.725 c -0.762,0.761 -1.142,1.694 -1.142,2.776 0,1.091 0.38,2.024 1.142,2.785 0.763,0.783 1.676,1.168 2.738,1.168 1.074,0 1.998,-0.385 2.748,-1.168 0.753,-0.761 1.136,-1.694 1.136,-2.785 0,-1.082 -0.383,-2.016 -1.136,-2.776 -0.75,-0.783 -1.674,-1.168 -2.748,-1.168 -1.062,0 -1.975,0.384 -2.738,1.168"
         id="path927" />
      <path
         inkscape:connector-curvature="0"
         style="fill:none;stroke:#007b37;stroke-width:1.50049996;stroke-linecap:round;stroke-linejoin:round;stroke-miterlimit:10"
         d="m 862.317,721.501 c 0,1.091 0.38,2.024 1.142,2.785 0.763,0.783 1.676,1.168 2.738,1.168 1.074,0 1.998,-0.385 2.748,-1.168 0.753,-0.761 1.136,-1.694 1.136,-2.785 0,-1.082 -0.383,-2.016 -1.136,-2.776 -0.75,-0.783 -1.674,-1.168 -2.748,-1.168 -1.062,0 -1.976,0.385 -2.738,1.168 -0.762,0.76 -1.142,1.694 -1.142,2.776 z"
         id="path929" />
      <path
         inkscape:connector-curvature="0"
         style="fill:none;stroke:#007b37;stroke-width:2.14369988;stroke-linecap:round;stroke-linejoin:round;stroke-miterlimit:10"
         d="m 861.292,716.517 c -1.354,1.382 -2.034,3.044 -2.034,4.995 0,1.938 0.681,3.601 2.034,4.973 1.355,1.384 2.98,2.079 4.896,2.079 1.916,0 3.551,-0.695 4.915,-2.079 1.354,-1.372 2.026,-3.034 2.026,-4.973 0,-1.951 -0.673,-3.613 -2.026,-4.995 -1.364,-1.372 -2.999,-2.058 -4.915,-2.058 -1.916,0 -3.541,0.686 -4.896,2.058 z"
         id="path931" />
      <polygon
         style="fill:#7998a2"
         points="867.682,723.107 868.053,720.513 865.869,719.336 864.143,721.201 865.266,723.516 "
         id="polygon933" />
      <polygon
         style="fill:none;stroke:#29353b;stroke-width:1.07149994;stroke-linecap:round;stroke-linejoin:round;stroke-miterlimit:10"
         points="868.053,720.513 865.869,719.336 864.143,721.201 865.266,723.516 867.682,723.107 "
         id="polygon935" />
      <path
         inkscape:connector-curvature="0"
         style="fill:#6eb92c"
         d="m 945.637,714.459 c -1.916,0 -3.541,0.686 -4.895,2.058 -1.356,1.382 -2.035,3.044 -2.035,4.995 0,1.938 0.679,3.601 2.035,4.973 1.354,1.384 2.979,2.079 4.895,2.079 1.915,0 3.55,-0.695 4.914,-2.079 1.355,-1.372 2.026,-3.034 2.026,-4.973 0,-1.951 -0.671,-3.613 -2.026,-4.995 -1.364,-1.372 -2.999,-2.058 -4.914,-2.058 m -3.871,7.042 c 0,-1.082 0.379,-2.016 1.144,-2.776 0.763,-0.783 1.674,-1.168 2.738,-1.168 1.072,0 1.993,0.385 2.748,1.168 0.752,0.761 1.132,1.694 1.132,2.776 0,1.091 -0.38,2.024 -1.132,2.785 -0.755,0.783 -1.676,1.168 -2.748,1.168 -1.064,0 -1.976,-0.385 -2.738,-1.168 -0.765,-0.761 -1.144,-1.694 -1.144,-2.785"
         id="path937" />
      <path
         inkscape:connector-curvature="0"
         style="fill:#34ad37"
         d="m 942.909,718.725 c -0.765,0.761 -1.144,1.694 -1.144,2.776 0,1.091 0.379,2.024 1.144,2.785 0.763,0.783 1.674,1.168 2.738,1.168 1.072,0 1.993,-0.385 2.748,-1.168 0.752,-0.761 1.132,-1.694 1.132,-2.785 0,-1.082 -0.38,-2.016 -1.132,-2.776 -0.755,-0.783 -1.676,-1.168 -2.748,-1.168 -1.064,0 -1.975,0.384 -2.738,1.168"
         id="path939" />
      <path
         inkscape:connector-curvature="0"
         style="fill:none;stroke:#007b37;stroke-width:1.50049996;stroke-linecap:round;stroke-linejoin:round;stroke-miterlimit:10"
         d="m 941.766,721.501 c 0,1.091 0.379,2.024 1.144,2.785 0.763,0.783 1.674,1.168 2.738,1.168 1.072,0 1.993,-0.385 2.748,-1.168 0.752,-0.761 1.132,-1.694 1.132,-2.785 0,-1.082 -0.38,-2.016 -1.132,-2.776 -0.755,-0.783 -1.676,-1.168 -2.748,-1.168 -1.064,0 -1.976,0.385 -2.738,1.168 -0.765,0.76 -1.144,1.694 -1.144,2.776 z"
         id="path941" />
      <path
         inkscape:connector-curvature="0"
         style="fill:none;stroke:#007b37;stroke-width:2.14369988;stroke-linecap:round;stroke-linejoin:round;stroke-miterlimit:10"
         d="m 940.742,716.517 c -1.356,1.382 -2.035,3.044 -2.035,4.995 0,1.938 0.679,3.601 2.035,4.973 1.354,1.384 2.979,2.079 4.895,2.079 1.915,0 3.55,-0.695 4.914,-2.079 1.355,-1.372 2.026,-3.034 2.026,-4.973 0,-1.951 -0.671,-3.613 -2.026,-4.995 -1.364,-1.372 -2.999,-2.058 -4.914,-2.058 -1.916,0 -3.541,0.686 -4.895,2.058 z"
         id="path943" />
      <polygon
         style="fill:#7998a2"
         points="947.132,723.107 947.503,720.513 945.314,719.336 943.588,721.201 944.716,723.516 "
         id="polygon945" />
      <polygon
         style="fill:none;stroke:#29353b;stroke-width:1.07149994;stroke-linecap:round;stroke-linejoin:round;stroke-miterlimit:10"
         points="947.503,720.513 945.314,719.336 943.588,721.201 944.716,723.516 947.132,723.107 "
         id="polygon947" />
      <path
         inkscape:connector-curvature="0"
         style="fill:#115dab"
         d="m 942.817,522.222 c -2.564,-4.437 -5.814,-8.176 -9.778,-11.22 -4.108,-3.136 -8.669,-5.271 -13.676,-6.433 -5.008,-1.16 -10.043,-1.252 -15.109,-0.242 -4.901,0.99 -9.465,2.915 -13.718,5.771 -4.251,2.854 -7.867,6.408 -10.83,10.722 -3.074,4.453 -5.231,9.342 -6.473,14.692 -1.246,5.374 -1.46,10.709 -0.654,16.065 0.76,5.174 2.44,9.957 5.005,14.392 2.562,4.435 5.812,8.172 9.776,11.218 4.108,3.136 8.669,5.271 13.676,6.433 5.006,1.159 10.041,1.249 15.111,0.242 4.897,-0.993 9.463,-2.918 13.718,-5.771 8.995,-6.037 14.771,-14.507 17.305,-25.438 1.242,-5.35 1.456,-10.686 0.652,-16.039 -0.761,-5.177 -2.442,-9.959 -5.005,-14.392"
         id="path949" />
      <path
         inkscape:connector-curvature="0"
         style="fill:none;stroke:#043889;stroke-width:4.19820023;stroke-miterlimit:10"
         d="m 933.039,511.002 c -4.108,-3.136 -8.669,-5.271 -13.676,-6.433 -5.008,-1.16 -10.043,-1.25 -15.109,-0.242 -4.901,0.99 -9.465,2.915 -13.718,5.771 -4.251,2.854 -7.867,6.408 -10.83,10.722 -3.074,4.453 -5.231,9.342 -6.473,14.692 -1.246,5.374 -1.46,10.709 -0.654,16.065 0.76,5.174 2.44,9.957 5.005,14.392 2.562,4.435 5.812,8.172 9.776,11.218 4.108,3.136 8.669,5.271 13.676,6.433 5.006,1.159 10.041,1.249 15.111,0.24 4.897,-0.991 9.463,-2.916 13.716,-5.77 8.997,-6.037 14.772,-14.507 17.307,-25.438 1.242,-5.35 1.456,-10.686 0.652,-16.039 -0.762,-5.177 -2.442,-9.958 -5.005,-14.392 -2.564,-4.436 -5.812,-8.175 -9.778,-11.219 z"
         id="path951" />
      <path
         inkscape:connector-curvature="0"
         style="fill:#115dab"
         d="m 908.978,685.086 c 0.092,-0.503 0.877,-3.058 2.383,-7.651 1.434,-4.394 2.359,-8.27 2.773,-11.599 1.327,-10.853 -2.131,-19.529 -10.378,-26.027 l -5.794,3.188 c 8.795,7.703 11.121,18.05 6.924,31.029 -1.109,3.47 -2.926,7.608 -5.446,12.412 -1.853,3.578 -2.656,5.49 -2.358,5.753 7.22,6.397 14.7,10.123 22.468,11.177 3.187,0.437 6.131,0.371 8.81,-0.225 2.503,-0.55 4.487,-1.474 5.914,-2.744 1.426,-1.271 2.108,-2.662 1.998,-4.206 -0.09,-1.651 -1.054,-3.2 -2.901,-4.65 -4.454,-3.547 -12.575,-5.706 -24.393,-6.457"
         id="path953" />
      <path
         inkscape:connector-curvature="0"
         style="fill:none;stroke:#043889;stroke-width:4.19820023;stroke-miterlimit:10"
         d="m 897.962,642.997 c 8.795,7.703 11.119,18.05 6.924,31.029 -1.109,3.47 -2.926,7.608 -5.446,12.412 -1.853,3.578 -2.656,5.49 -2.358,5.753 7.22,6.397 14.7,10.123 22.468,11.177 3.187,0.437 6.131,0.371 8.81,-0.225 2.503,-0.55 4.487,-1.474 5.914,-2.744 1.426,-1.271 2.108,-2.662 1.998,-4.206 -0.09,-1.651 -1.054,-3.2 -2.901,-4.65 -4.452,-3.547 -12.573,-5.706 -24.392,-6.457 0.092,-0.503 0.877,-3.058 2.383,-7.651 1.434,-4.394 2.359,-8.27 2.773,-11.599 1.327,-10.853 -2.131,-19.529 -10.378,-26.027"
         id="path955" />
      <path
         inkscape:connector-curvature="0"
         style="fill:#115dab"
         d="m 896.802,566.971 c -3.25,5.079 -5.953,9.34 -8.137,12.812 -9.278,14.757 -15.171,26.348 -17.677,34.774 -2.846,9.535 -2.086,17.807 2.259,24.81 1.868,3.032 4.284,5.471 7.236,7.285 2.87,1.8 5.916,2.836 9.173,3.095 3.335,0.277 6.51,-0.314 9.521,-1.743 3.231,-1.546 5.996,-3.941 8.304,-7.222 5.399,-7.67 7.611,-18.761 6.598,-33.336 -0.928,-13.283 -1.708,-23.022 -2.375,-29.2 -0.885,-8.216 -1.762,-12.897 -2.662,-14.017 -1.501,-1.867 -4.137,-2.645 -7.893,-2.3 -1.044,0.09 -2.021,0.251 -2.879,0.493 -0.293,0.069 -0.414,0.127 -0.363,0.137 0.06,-0.014 0.294,-0.071 0.676,-0.173 0.8,-0.231 0.225,1.295 -1.781,4.585"
         id="path957" />
      <path
         inkscape:connector-curvature="0"
         style="fill:none;stroke:#043889;stroke-width:4.19820023;stroke-miterlimit:10"
         d="m 896.802,566.971 c 2.006,-3.29 2.581,-4.815 1.78,-4.585 -0.382,0.102 -0.616,0.159 -0.676,0.173 -0.051,-0.01 0.07,-0.067 0.363,-0.137 0.858,-0.242 1.835,-0.403 2.879,-0.493 3.756,-0.345 6.392,0.433 7.893,2.3 0.9,1.119 1.777,5.801 2.662,14.017 0.667,6.178 1.447,15.917 2.375,29.202 1.014,14.573 -1.198,25.664 -6.598,33.334 -2.308,3.28 -5.072,5.676 -8.304,7.222 -3.011,1.429 -6.186,2.021 -9.521,1.743 -3.257,-0.259 -6.303,-1.295 -9.173,-3.095 -2.952,-1.814 -5.368,-4.253 -7.236,-7.285 -4.345,-7.003 -5.104,-15.274 -2.259,-24.81 2.506,-8.427 8.398,-20.018 17.677,-34.774 2.185,-3.472 4.888,-7.733 8.138,-12.812 z"
         id="path959" />
      <path
         inkscape:connector-curvature="0"
         style="fill:#115dab"
         d="m 972.217,585.23 c -1.072,1.659 -1.653,2.96 -1.706,3.914 -0.435,-0.157 -1.525,-1.044 -3.252,-2.66 -1.835,-1.254 -3.538,-1.179 -5.049,0.21 -2.244,2.051 -2.72,3.737 -1.396,5.064 0.292,0.289 0.981,0.78 2.005,1.488 0.885,0.591 1.461,1.084 1.696,1.498 -14.777,10.472 -28.064,10.816 -39.814,1.074 -3.633,-3.027 -7.07,-7.027 -10.294,-11.949 -1.612,-2.471 -3.035,-4.789 -4.269,-6.98 l -3.152,8.604 c 1.042,1.818 2.404,3.929 4.067,6.279 3.379,4.732 7.102,8.577 11.181,11.487 13.191,9.468 28.521,8.658 45.976,-2.408 4.597,3.413 8.105,4.004 10.493,1.825 0.802,-0.727 1.391,-1.724 1.788,-2.957 0.285,-0.872 0.379,-1.517 0.308,-1.918 0.135,0.251 0.565,0.546 1.319,0.858 0.982,0.422 2.002,0.658 3.089,0.744 3.04,0.236 4.728,-0.977 5.087,-3.601 0.523,-3.803 -1.018,-6.204 -4.607,-7.175 -2.676,-0.729 -5.118,-0.689 -7.315,0.102 0.275,-0.823 2.11,-2.191 5.533,-4.081 2.712,-2.049 2.874,-4.304 0.475,-6.71 -1.771,-1.766 -4.523,-0.858 -8.281,2.722 -1.489,1.394 -2.78,2.919 -3.882,4.57"
         id="path961" />
      <path
         inkscape:connector-curvature="0"
         style="fill:none;stroke:#043889;stroke-width:4.19820023;stroke-miterlimit:10"
         d="m 980.798,597.802 c 0.135,0.251 0.565,0.546 1.319,0.858 0.982,0.422 2.002,0.658 3.089,0.744 3.04,0.236 4.728,-0.977 5.087,-3.601 0.523,-3.803 -1.018,-6.204 -4.607,-7.175 -2.676,-0.729 -5.118,-0.689 -7.315,0.102 0.275,-0.823 2.11,-2.191 5.533,-4.079 2.712,-2.051 2.872,-4.306 0.475,-6.712 -1.771,-1.766 -4.523,-0.858 -8.281,2.722 -1.484,1.393 -2.777,2.918 -3.88,4.569 -1.072,1.659 -1.653,2.96 -1.706,3.914 -0.435,-0.157 -1.525,-1.044 -3.252,-2.658 -1.835,-1.256 -3.538,-1.181 -5.049,0.208 -2.244,2.051 -2.72,3.737 -1.396,5.064 0.292,0.289 0.981,0.78 2.005,1.488 0.885,0.591 1.461,1.084 1.696,1.498 -14.777,10.472 -28.064,10.816 -39.814,1.074 -3.633,-3.027 -7.07,-7.027 -10.294,-11.949 -1.612,-2.471 -3.035,-4.789 -4.269,-6.98 m -3.154,8.604 c 1.042,1.818 2.404,3.929 4.067,6.279 3.379,4.732 7.102,8.577 11.181,11.487 13.191,9.468 28.521,8.658 45.976,-2.408 4.597,3.413 8.105,4.004 10.493,1.825 0.802,-0.727 1.391,-1.724 1.788,-2.955 0.285,-0.874 0.379,-1.519 0.308,-1.92 m -0.041,-0.177 c 0.015,0.062 0.027,0.118 0.041,0.178"
         id="path963" />
      <path
         inkscape:connector-curvature="0"
         style="fill:#115dab"
         d="m 897.281,579.683 c -0.217,-2.289 -0.602,-3.374 -1.179,-3.258 -14.32,2.536 -26.79,8.65 -37.408,18.347 -3.286,2.969 -6.234,6.151 -8.819,9.561 -1.271,1.667 -2.253,3.04 -2.914,4.102 -3.054,-1.482 -5.949,-1.737 -8.642,-0.731 -2.237,0.834 -4.211,2.422 -5.917,4.789 -1.425,1.965 -2.438,4.077 -3.014,6.32 -0.544,2.11 -0.51,3.389 0.092,3.888 1.544,1.213 2.838,0.987 3.9,-0.726 0.658,-1.533 1.168,-2.659 1.593,-3.417 -0.17,0.375 -0.331,0.834 -0.498,1.433 -0.407,1.397 -0.691,2.853 -0.84,4.337 -0.42,4.073 0.283,6.528 2.145,7.319 0.937,0.604 1.917,-0.521 2.903,-3.36 0.538,-1.476 1.091,-3.393 1.698,-5.768 -0.789,4.239 -1.155,7.36 -1.101,9.389 0.122,3.289 1.254,4.961 3.376,4.983 0.937,0.022 1.919,-1.601 2.967,-4.81 0.939,-2.989 1.35,-4.995 1.235,-6.043 0.512,1.721 1.091,3.155 1.796,4.285 1.109,1.778 2.188,2.247 3.229,1.439 1.505,-1.115 1.947,-4.108 1.35,-8.916 -0.48,-4.006 -1.054,-6.542 -1.68,-7.653 2.787,-3.914 4.926,-6.815 6.397,-8.769 2.575,-3.354 5.165,-6.178 7.827,-8.49 7.095,-6.173 17.302,-10.993 30.606,-14.508 0.829,-0.224 1.112,-1.458 0.898,-3.743"
         id="path965" />
      <path
         inkscape:connector-curvature="0"
         style="fill:none;stroke:#043889;stroke-width:4.19820023;stroke-miterlimit:10"
         d="m 834.974,618.557 c -0.17,0.375 -0.331,0.834 -0.498,1.433 -0.407,1.397 -0.691,2.853 -0.84,4.337 -0.42,4.073 0.283,6.528 2.145,7.319 0.937,0.604 1.917,-0.521 2.903,-3.36 0.538,-1.476 1.091,-3.393 1.698,-5.768 -0.789,4.239 -1.155,7.36 -1.101,9.389 0.122,3.289 1.254,4.961 3.376,4.983 0.937,0.022 1.919,-1.601 2.967,-4.81 0.939,-2.989 1.352,-4.995 1.235,-6.043 0.512,1.721 1.091,3.155 1.796,4.285 1.109,1.778 2.188,2.247 3.229,1.439 1.505,-1.115 1.947,-4.108 1.35,-8.916 -0.48,-4.006 -1.054,-6.542 -1.68,-7.653 2.787,-3.914 4.926,-6.815 6.397,-8.769 2.575,-3.354 5.165,-6.178 7.827,-8.49 7.095,-6.173 17.302,-10.993 30.606,-14.508 0.826,-0.224 1.109,-1.458 0.896,-3.743 -0.217,-2.289 -0.602,-3.374 -1.179,-3.258 -14.32,2.536 -26.79,8.65 -37.408,18.347 -3.286,2.969 -6.234,6.151 -8.819,9.561 -1.272,1.667 -2.253,3.04 -2.914,4.102 -3.054,-1.482 -5.949,-1.737 -8.642,-0.731 -2.237,0.834 -4.211,2.422 -5.917,4.789 -1.425,1.965 -2.438,4.077 -3.014,6.318 -0.544,2.112 -0.51,3.391 0.092,3.89 1.544,1.213 2.838,0.987 3.9,-0.726 0.66,-1.534 1.17,-2.66 1.595,-3.417 z m 0,0 c 0.181,-0.427 0.326,-0.695 0.467,-0.83"
         id="path967" />
      <path
         inkscape:connector-curvature="0"
         style="fill:#0e5cab"
         d="m 972.217,585.23 c -1.072,1.659 -1.653,2.96 -1.706,3.914 -0.435,-0.157 -1.525,-1.044 -3.252,-2.66 -1.835,-1.254 -3.538,-1.179 -5.049,0.21 -2.244,2.051 -2.72,3.737 -1.396,5.064 0.292,0.289 0.981,0.78 2.005,1.488 0.885,0.591 1.461,1.084 1.696,1.498 -14.777,10.472 -28.064,10.816 -39.814,1.074 -3.633,-3.027 -7.07,-7.027 -10.294,-11.949 -1.612,-2.471 -3.035,-4.789 -4.269,-6.98 l -3.152,8.604 c 1.042,1.818 2.404,3.929 4.067,6.279 3.379,4.732 7.102,8.577 11.181,11.487 13.191,9.468 28.521,8.658 45.976,-2.408 4.597,3.413 8.105,4.004 10.493,1.825 0.802,-0.727 1.391,-1.724 1.788,-2.957 0.285,-0.872 0.379,-1.517 0.308,-1.918 0.135,0.251 0.565,0.546 1.319,0.858 0.982,0.422 2.002,0.658 3.089,0.744 3.04,0.236 4.728,-0.977 5.087,-3.601 0.523,-3.803 -1.018,-6.204 -4.607,-7.175 -2.676,-0.729 -5.118,-0.689 -7.315,0.102 0.275,-0.823 2.11,-2.191 5.533,-4.081 2.712,-2.049 2.874,-4.304 0.475,-6.71 -1.771,-1.766 -4.523,-0.858 -8.281,2.722 -1.489,1.394 -2.78,2.919 -3.882,4.57"
         id="path969" />
      <path
         inkscape:connector-curvature="0"
         style="fill:#0e5cab"
         d="m 897.281,579.683 c -0.217,-2.289 -0.602,-3.374 -1.179,-3.258 -14.32,2.536 -26.79,8.65 -37.408,18.347 -3.286,2.969 -6.234,6.151 -8.819,9.561 -1.271,1.667 -2.253,3.04 -2.914,4.102 -3.054,-1.482 -5.949,-1.737 -8.642,-0.731 -2.237,0.834 -4.211,2.422 -5.917,4.789 -1.425,1.965 -2.438,4.077 -3.014,6.32 -0.544,2.11 -0.51,3.389 0.092,3.888 1.544,1.213 2.838,0.987 3.9,-0.726 0.658,-1.533 1.168,-2.659 1.593,-3.417 -0.17,0.375 -0.331,0.834 -0.498,1.433 -0.407,1.397 -0.691,2.853 -0.84,4.337 -0.42,4.073 0.283,6.528 2.145,7.319 0.937,0.604 1.917,-0.521 2.903,-3.36 0.538,-1.476 1.091,-3.393 1.698,-5.768 -0.789,4.239 -1.155,7.36 -1.101,9.389 0.122,3.289 1.254,4.961 3.376,4.983 0.937,0.022 1.919,-1.601 2.967,-4.81 0.939,-2.989 1.35,-4.995 1.235,-6.043 0.512,1.721 1.091,3.155 1.796,4.285 1.109,1.778 2.188,2.247 3.229,1.439 1.505,-1.115 1.947,-4.108 1.35,-8.916 -0.48,-4.006 -1.054,-6.542 -1.68,-7.653 2.787,-3.914 4.926,-6.815 6.397,-8.769 2.575,-3.354 5.165,-6.178 7.827,-8.49 7.095,-6.173 17.302,-10.993 30.606,-14.508 0.829,-0.224 1.112,-1.458 0.898,-3.743"
         id="path971" />
      <path
         inkscape:connector-curvature="0"
         style="fill:#0e5cab"
         d="m 898.582,562.386 c 0.801,-0.23 0.226,1.295 -1.78,4.585 -3.25,5.079 -5.953,9.34 -8.137,12.812 -9.278,14.757 -15.171,26.348 -17.677,34.774 -2.846,9.535 -2.086,17.807 2.259,24.81 1.868,3.032 4.284,5.471 7.236,7.285 2.87,1.8 5.919,2.836 9.173,3.095 3.335,0.277 6.51,-0.314 9.521,-1.743 3.231,-1.546 5.996,-3.941 8.304,-7.22 5.399,-7.672 7.611,-18.763 6.598,-33.338 -0.928,-13.283 -1.708,-23.022 -2.375,-29.2 -0.885,-8.216 -1.762,-12.897 -2.662,-14.017 -1.501,-1.867 -4.137,-2.645 -7.893,-2.298 -1.044,0.088 -2.021,0.249 -2.879,0.491 -0.293,0.069 -0.414,0.127 -0.363,0.137 0.059,-0.014 0.293,-0.072 0.675,-0.173"
         id="path973" />
      <path
         inkscape:connector-curvature="0"
         style="fill:#0e5cab"
         d="m 908.978,685.086 c 0.092,-0.503 0.877,-3.058 2.383,-7.651 1.434,-4.394 2.359,-8.27 2.773,-11.599 1.327,-10.853 -2.131,-19.529 -10.378,-26.027 l -5.794,3.188 c 8.795,7.703 11.121,18.05 6.924,31.029 -1.109,3.47 -2.926,7.608 -5.446,12.412 -1.853,3.578 -2.656,5.49 -2.358,5.753 7.22,6.397 14.7,10.123 22.468,11.177 3.187,0.437 6.131,0.371 8.81,-0.225 2.503,-0.55 4.487,-1.474 5.914,-2.744 1.426,-1.271 2.108,-2.662 1.998,-4.206 -0.09,-1.651 -1.054,-3.2 -2.901,-4.65 -4.454,-3.547 -12.575,-5.706 -24.393,-6.457"
         id="path975" />
      <path
         inkscape:connector-curvature="0"
         style="fill:#0e5cab"
         d="m 942.817,522.222 c -2.564,-4.437 -5.814,-8.176 -9.778,-11.22 -4.108,-3.136 -8.669,-5.271 -13.676,-6.433 -5.008,-1.16 -10.043,-1.252 -15.109,-0.242 -4.901,0.99 -9.465,2.915 -13.718,5.771 -4.251,2.854 -7.867,6.408 -10.83,10.722 -3.074,4.453 -5.231,9.342 -6.473,14.692 -1.246,5.374 -1.46,10.709 -0.654,16.065 0.76,5.174 2.44,9.957 5.005,14.392 2.562,4.435 5.812,8.172 9.776,11.218 4.108,3.136 8.669,5.271 13.676,6.433 5.006,1.159 10.041,1.249 15.111,0.242 4.897,-0.993 9.463,-2.918 13.718,-5.771 8.995,-6.037 14.771,-14.507 17.305,-25.438 1.242,-5.35 1.456,-10.686 0.652,-16.039 -0.761,-5.177 -2.442,-9.959 -5.005,-14.392"
         id="path977" />
      <path
         inkscape:connector-curvature="0"
         style="fill:#e84341"
         d="m 938.069,560.932 c 0.304,-2.03 -0.116,-3.676 -1.228,-4.954 -0.94,-1.076 -2.549,-1.998 -4.813,-2.83 -0.946,-0.33 -3.383,-1.029 -7.276,-2.1 -3.484,-0.948 -6.337,-1.857 -8.563,-2.759 -10.379,-4.204 -18.969,-6.002 -25.78,-5.344 -6.414,0.614 -9.934,3.169 -10.537,7.668 -0.409,3.083 0.196,6.429 1.857,10.103 1.595,3.488 3.964,6.858 7.061,10.062 3.14,3.271 6.659,5.964 10.565,8.058 4.146,2.263 8.275,3.631 12.403,4.062 7.107,0.794 13.324,-1.58 18.603,-7.066 2.084,-2.195 3.855,-4.716 5.264,-7.567 1.277,-2.55 2.1,-5.013 2.444,-7.333"
         id="path979" />
      <path
         inkscape:connector-curvature="0"
         style="fill:#1f1e1d"
         d="m 928.488,554.952 c -1.62,-0.516 -3.832,-0.999 -6.619,-1.48 -1.617,-0.291 -4.147,-0.711 -7.559,-1.254 -7.809,-1.341 -12.986,-2.128 -15.537,-2.33 -7.812,-0.626 -11.921,0.412 -12.318,3.083 -0.241,1.629 0.18,3.633 1.271,6.069 1.154,2.53 2.789,5.012 4.94,7.417 5.31,5.927 11.578,9.396 18.824,10.44 6.065,0.883 11.438,-0.718 16.112,-4.801 1.874,-1.638 3.409,-3.493 4.645,-5.611 1.136,-1.916 1.831,-3.719 2.082,-5.4 0.39,-2.755 -1.543,-4.777 -5.841,-6.133"
         id="path981" />
      <path
         inkscape:connector-curvature="0"
         style="fill:#0e5cab"
         d="m 907.499,560.75 c 13.128,3.788 24.151,4.384 33.108,1.735 l 4.176,-29.917 -54.86,-1.228 c -0.626,0.542 -4.559,5.962 -11.807,16.241 8.879,5.679 18.661,10.074 29.383,13.169"
         id="path983" />
      <path
         inkscape:connector-curvature="0"
         style="fill:#ffffff"
         d="m 917.532,530.475 c -2.277,-1.992 -5.074,-2.916 -8.367,-2.767 -3.321,0.141 -6.165,1.333 -8.563,3.567 -2.391,2.208 -3.627,4.796 -3.712,7.786 -0.084,2.991 1.021,5.484 3.297,7.477 2.272,1.992 5.074,2.891 8.369,2.742 3.319,-0.141 6.167,-1.333 8.562,-3.57 2.392,-2.203 3.627,-4.793 3.711,-7.784 0.085,-2.992 -1.025,-5.46 -3.297,-7.451"
         id="path985" />
      <path
         inkscape:connector-curvature="0"
         style="fill:#ffffff"
         d="m 940.214,534.876 c -2.384,-1.406 -4.795,-1.721 -7.271,-0.938 -2.452,0.812 -4.227,2.499 -5.34,5.033 -1.084,2.539 -1.183,5.224 -0.255,8.007 0.924,2.813 2.567,4.905 4.948,6.314 2.382,1.408 4.796,1.721 7.269,0.939 2.448,-0.787 4.221,-2.475 5.336,-5.007 1.084,-2.541 1.183,-5.224 0.259,-8.035 -0.899,-2.804 -2.539,-4.898 -4.946,-6.313"
         id="path987" />
      <path
         inkscape:connector-curvature="0"
         style="fill:#1f1e1d"
         d="m 915.671,535.873 c -0.712,-1.574 -1.841,-2.665 -3.419,-3.252 -1.582,-0.561 -3.148,-0.481 -4.678,0.271 -1.532,0.774 -2.583,1.967 -3.162,3.631 -0.574,1.662 -0.544,3.301 0.144,4.869 0.711,1.573 1.841,2.664 3.425,3.223 1.576,0.587 3.115,0.502 4.643,-0.248 1.526,-0.753 2.609,-1.966 3.188,-3.628 0.579,-1.659 0.538,-3.271 -0.141,-4.866"
         id="path989" />
      <path
         inkscape:connector-curvature="0"
         style="fill:#1f1e1d"
         d="m 937.483,545.103 c 0.604,-1.768 0.612,-3.48 0.024,-5.104 -0.585,-1.656 -1.575,-2.742 -2.988,-3.319 -1.415,-0.577 -2.834,-0.41 -4.249,0.45 -1.415,0.862 -2.438,2.174 -3.04,3.939 -0.604,1.766 -0.613,3.476 -0.024,5.104 0.583,1.653 1.574,2.742 2.993,3.291 1.417,0.575 2.83,0.435 4.245,-0.426 1.44,-0.852 2.439,-2.17 3.039,-3.935"
         id="path991" />
      <path
         inkscape:connector-curvature="0"
         style="fill:#eb6f9a"
         d="m 926.188,545.082 c -2.911,-0.677 -5.622,-0.173 -8.173,1.529 -2.551,1.7 -4.186,4.112 -4.897,7.181 -0.712,3.066 -0.304,5.951 1.237,8.602 1.539,2.65 3.756,4.298 6.667,4.973 2.885,0.669 5.599,0.165 8.174,-1.531 2.551,-1.702 4.186,-4.11 4.897,-7.181 0.709,-3.066 0.304,-5.953 -1.24,-8.604 -1.565,-2.656 -3.781,-4.3 -6.665,-4.969"
         id="path993" />
      <path
         inkscape:connector-curvature="0"
         style="fill:#0e5cab"
         d="m 832.192,655.191 c -0.347,0.483 -0.675,1.001 -1.001,1.521 -1.021,1.616 -1.945,3.384 -2.772,5.292 -0.789,1.79 -1.499,3.694 -2.137,5.754 -1.923,6.139 -2.635,11.68 -2.114,16.605 0.46,4.908 2.271,8.164 5.427,9.72 3.136,1.558 6.194,1.365 9.158,-0.577 2.965,-1.943 4.753,-6.178 5.35,-12.682 0.598,-6.524 0.577,-11.566 -0.057,-15.145 13.142,-0.75 24.959,-7.603 35.446,-20.592 l -5.657,-5.908 c -12.084,14.82 -25.958,20.151 -41.643,16.012"
         id="path995" />
      <path
         inkscape:connector-curvature="0"
         style="fill:none;stroke:#043889;stroke-width:1.92460001;stroke-linecap:round;stroke-linejoin:round;stroke-miterlimit:10"
         d="m 874.083,638.854 c -0.094,0.096 -0.171,0.21 -0.248,0.326 -12.084,14.818 -25.958,20.149 -41.643,16.011 -0.347,0.483 -0.675,1.001 -1.001,1.521 -1.021,1.616 -1.945,3.384 -2.772,5.292 -0.789,1.79 -1.499,3.694 -2.137,5.754 -1.923,6.139 -2.635,11.683 -2.114,16.605 0.46,4.908 2.271,8.164 5.427,9.72 3.136,1.558 6.194,1.365 9.158,-0.577 2.965,-1.943 4.753,-6.178 5.35,-12.682 0.598,-6.524 0.577,-11.566 -0.057,-15.145 13.142,-0.75 24.959,-7.603 35.446,-20.592 0.153,-0.21 0.308,-0.403 0.461,-0.597"
         id="path997" />
      <path
         inkscape:connector-curvature="0"
         style="fill:#0e5cab"
         d="m 876.435,643.568 c 1.79,1.809 3.867,3.117 6.214,3.908 2.289,0.787 4.579,1.02 6.889,0.673 2.367,-0.347 4.483,-1.271 6.352,-2.752 2,-1.599 3.539,-3.715 4.617,-6.369 0.867,-2.137 1.405,-4.504 1.617,-7.083 h -31.135 c 0.556,4.677 2.383,8.545 5.446,11.623"
         id="path999" />
      <path
         inkscape:connector-curvature="0"
         style="fill:#142b8c"
         d="m 853.051,598.25 c 0.83,0.058 1.54,-0.191 2.155,-0.75 l 11.008,-9.854 c 0.597,-0.559 0.926,-1.231 0.941,-2.039 0.06,-0.828 -0.191,-1.539 -0.729,-2.135 -0.557,-0.617 -1.231,-0.943 -2.058,-0.964 -0.791,-0.058 -1.504,0.191 -2.1,0.752 l -11.025,9.831 c -0.598,0.559 -0.944,1.233 -1.001,2.06 -0.019,0.81 0.23,1.521 0.769,2.118 0.54,0.614 1.215,0.942 2.04,0.981"
         id="path1001" />
      <path
         inkscape:connector-curvature="0"
         style="fill:none;stroke:#010f43;stroke-width:1.92460001;stroke-linecap:round;stroke-linejoin:round;stroke-miterlimit:10"
         d="m 853.051,598.25 c -0.825,-0.039 -1.5,-0.367 -2.04,-0.98 -0.538,-0.598 -0.787,-1.309 -0.767,-2.118 0.055,-0.826 0.401,-1.501 0.999,-2.06 l 11.025,-9.831 c 0.596,-0.561 1.309,-0.81 2.1,-0.752 0.826,0.021 1.501,0.347 2.058,0.964 0.538,0.596 0.789,1.307 0.729,2.135 -0.016,0.808 -0.345,1.48 -0.941,2.039 l -11.008,9.854 c -0.615,0.558 -1.325,0.807 -2.155,0.749 z"
         id="path1003" />
      <path
         inkscape:connector-curvature="0"
         style="fill:#e6e6f3"
         d="m 850.299,589.108 c -0.019,1.445 0.289,2.772 0.944,3.983 l 11.025,-9.831 c 0.019,-0.021 0.041,-0.059 0.06,-0.077 -1.175,-0.772 -2.481,-1.213 -3.927,-1.348 -2.194,-0.212 -4.078,0.383 -5.658,1.809 -1.578,1.403 -2.385,3.234 -2.444,5.464"
         id="path1005" />
      <path
         inkscape:connector-curvature="0"
         style="fill:none;stroke:#009a9c;stroke-width:1.92460001;stroke-linecap:round;stroke-linejoin:round;stroke-miterlimit:10"
         d="m 851.243,593.092 11.025,-9.831 c 0.019,-0.021 0.041,-0.059 0.06,-0.077 -1.175,-0.772 -2.481,-1.213 -3.927,-1.348 -2.194,-0.212 -4.078,0.383 -5.656,1.809 -1.58,1.404 -2.387,3.233 -2.446,5.464 -0.019,1.445 0.289,2.772 0.944,3.983 z"
         id="path1007" />
      <path
         inkscape:connector-curvature="0"
         style="fill:#53b332"
         d="m 953.272,513.039 c -0.21,-1.098 -0.652,-2.211 -1.327,-3.349 -3.561,-5.965 -8.468,-9.468 -14.702,-10.506 l -40.682,-6.619 c -6.253,-1.002 -12.009,0.75 -17.3,5.271 -5.37,4.676 -8.679,10.796 -9.931,18.378 l -0.365,2.386 c 0.075,0.23 0.096,0.481 0.058,0.771 l -1.229,7.525 c -0.019,0.094 -0.041,0.191 -0.06,0.285 -1.211,7.102 -1.598,11.297 -1.136,12.588 0.463,1.058 0.963,1.826 1.482,2.347 h 0.039 c 0.634,0.403 1.346,0.654 2.137,0.789 1.751,0.269 3.462,-0.174 5.115,-1.346 1.213,-0.867 5.507,-6.716 12.877,-17.532 l 61.425,10.7 c 1.231,-0.5 2.615,-1.848 4.137,-4.06 1.521,-2.194 1.33,-8.063 -0.538,-17.628"
         id="path1009" />
      <path
         inkscape:connector-curvature="0"
         style="fill:#007936"
         d="m 951.888,508.17 c -0.021,-0.037 -0.038,-0.077 -0.038,-0.094 -3.889,-6.446 -9.199,-10.219 -15.936,-11.297 l -39.103,-6.371 c -6.774,-1.136 -13.027,0.752 -18.781,5.678 -5.639,4.869 -9.121,11.295 -10.412,19.244 l -1.115,6.851 c -0.191,1.211 -0.328,2.444 -0.424,3.676 v 0.039 c -1.288,7.563 -1.597,12.063 -0.924,13.509 0,0.019 0,0.019 0.019,0.019 0.675,1.578 1.443,2.675 2.328,3.309 0.021,0.021 0.021,0.021 0.039,0.039 0.021,0.021 0.059,0.057 0.077,0.079 0.864,0.596 1.87,0.979 3.042,1.173 h 0.019 c 2.349,0.383 4.638,-0.212 6.871,-1.77 1.635,-1.136 3.174,-3.024 4.617,-5.658 0,-0.021 0.019,-0.057 0.039,-0.079 0.365,-0.71 1.134,-2.135 2.289,-4.29 l 3.351,-6.139 c 0.038,-0.077 0.096,-0.133 0.171,-0.176 0.06,-0.036 0.135,-0.036 0.212,-0.016 l 58.789,9.582 v -0.021 c 0.096,0.021 0.193,0.039 0.253,0.06 0.055,0 0.132,0 0.21,0.021 v 0.016 c 4.617,0.753 7.292,-0.999 8.043,-5.233 h -0.019 l 0.096,-0.634 h 0.019 c 1.289,-7.949 0.056,-15.127 -3.732,-21.517 m -16.339,-9.158 h 0.019 c 6.101,1.001 10.894,4.424 14.376,10.275 3.522,5.964 4.675,12.643 3.464,20.031 l -0.078,0.559 v 0.021 c -0.559,2.789 -2.385,3.945 -5.484,3.443 -0.057,-0.019 -0.114,-0.019 -0.171,-0.019 -0.06,0 -0.098,0 -0.137,-0.018 -0.057,-0.022 -0.098,-0.041 -0.153,-0.041 l -59.847,-9.756 c -0.232,-0.039 -0.463,0 -0.675,0.096 -0.214,0.098 -0.383,0.251 -0.501,0.442 -0.017,0 -0.017,0 -0.017,0.019 l -3.773,6.987 c -0.019,0.038 -0.019,0.077 -0.039,0.116 -1.175,2.173 -1.943,3.616 -2.308,4.31 -0.021,0.019 -0.039,0.06 -0.06,0.075 -1.231,2.253 -2.538,3.891 -3.906,4.871 -1.674,1.172 -3.425,1.637 -5.217,1.366 -0.785,-0.135 -1.497,-0.406 -2.133,-0.769 -0.06,-0.021 -0.116,-0.06 -0.174,-0.097 -0.52,-0.523 -1.021,-1.329 -1.5,-2.389 l -0.021,-0.017 c -0.461,-1.271 -0.098,-5.37 1.097,-12.298 v -0.037 c 0.021,-0.079 0.021,-0.154 0.037,-0.23 h 0.021 l 1.176,-7.235 h -0.021 c 0.021,-0.214 0.021,-0.388 -0.036,-0.54 -0.022,-0.058 -0.022,-0.135 0,-0.194 l 0.362,-2.289 c 1.214,-7.391 4.427,-13.354 9.66,-17.896 5.179,-4.427 10.815,-6.139 16.935,-5.158 l 39.104,6.372 z"
         id="path1011" />
      <path
         inkscape:connector-curvature="0"
         style="fill:none;stroke:#abcf52;stroke-width:4.61870003;stroke-linecap:round;stroke-linejoin:round;stroke-miterlimit:10"
         d="m 902.314,497.568 c -12.219,-3.464 -21.012,0.731 -26.382,12.604"
         id="path1013" />
      <path
         inkscape:connector-curvature="0"
         style="fill:#142b8c"
         d="m 920.018,665.467 c 1.02,0 1.541,-0.518 1.541,-1.539 v -2.559 c 0,-1.021 -0.521,-1.539 -1.541,-1.539 h -15.297 c -1.02,0 -1.54,0.518 -1.54,1.539 v 2.559 c 0,1.021 0.521,1.539 1.54,1.539 h 15.297 z"
         id="path1015" />
      <path
         inkscape:connector-curvature="0"
         style="fill:none;stroke:#010f43;stroke-width:1.92460001;stroke-linecap:round;stroke-linejoin:round;stroke-miterlimit:10"
         d="m 920.018,665.467 h -15.297 c -1.02,0 -1.54,-0.518 -1.54,-1.539 v -2.559 c 0,-1.021 0.521,-1.539 1.54,-1.539 h 15.297 c 1.02,0 1.541,0.518 1.541,1.539 v 2.559 c 0,1.021 -0.522,1.539 -1.541,1.539 z"
         id="path1017" />
      <path
         inkscape:connector-curvature="0"
         style="fill:#142b8c"
         d="m 921.808,654.788 c -1.056,-1.059 -2.326,-1.578 -3.809,-1.578 h -4.962 c -1.484,0 -2.755,0.52 -3.811,1.578 -1.061,1.06 -1.58,2.328 -1.58,3.811 v 7.929 c 0,1.482 0.52,2.75 1.58,3.811 1.056,1.058 2.326,1.576 3.811,1.576 h 4.962 c 1.482,0 2.753,-0.519 3.809,-1.576 1.061,-1.061 1.578,-2.328 1.578,-3.811 v -7.929 c 0,-1.483 -0.518,-2.751 -1.578,-3.811"
         id="path1019" />
      <path
         inkscape:connector-curvature="0"
         style="fill:none;stroke:#010f43;stroke-width:1.92460001;stroke-linecap:round;stroke-linejoin:round;stroke-miterlimit:10"
         d="m 921.808,654.788 c 1.061,1.06 1.578,2.328 1.578,3.811 v 7.929 c 0,1.482 -0.518,2.75 -1.578,3.811 -1.056,1.058 -2.326,1.576 -3.809,1.576 h -4.962 c -1.484,0 -2.755,-0.519 -3.811,-1.576 -1.061,-1.061 -1.58,-2.328 -1.58,-3.811 v -7.929 c 0,-1.482 0.52,-2.751 1.58,-3.811 1.056,-1.059 2.326,-1.578 3.811,-1.578 h 4.962 c 1.482,0 2.753,0.519 3.809,1.578 z"
         id="path1021" />
      <path
         inkscape:connector-curvature="0"
         style="fill:#e6e6f3"
         d="m 919.404,655.538 c -1.811,0 -3.349,0.675 -4.62,2.002 -1.289,1.329 -1.923,2.944 -1.923,4.83 0,1.886 0.634,3.503 1.923,4.83 1.271,1.329 2.81,2.002 4.62,2.002 1.789,0 3.327,-0.673 4.617,-2.002 1.271,-1.327 1.906,-2.944 1.906,-4.83 0,-1.886 -0.636,-3.501 -1.906,-4.83 -1.29,-1.327 -2.828,-2.002 -4.617,-2.002"
         id="path1023" />
      <path
         inkscape:connector-curvature="0"
         style="fill:none;stroke:#009a9c;stroke-width:1.92460001;stroke-linecap:round;stroke-linejoin:round;stroke-miterlimit:10"
         d="m 914.784,657.54 c -1.289,1.329 -1.923,2.944 -1.923,4.83 0,1.886 0.634,3.503 1.923,4.83 1.27,1.329 2.812,2.002 4.62,2.002 1.792,0 3.327,-0.673 4.617,-2.002 1.271,-1.327 1.906,-2.944 1.906,-4.83 0,-1.886 -0.636,-3.501 -1.906,-4.83 -1.29,-1.327 -2.825,-2.002 -4.617,-2.002 -1.808,0 -3.35,0.675 -4.62,2.002 z"
         id="path1025" />
      <path
         inkscape:connector-curvature="0"
         style="fill:none;stroke:#00b3b6;stroke-width:1.73179996;stroke-linecap:round;stroke-linejoin:round;stroke-miterlimit:10"
         d="m 922.309,659.367 h -4.907 m 4.907,5.852 h -4.907 m 4.907,-2.926 h -4.907"
         id="path1027" />
      <path
         inkscape:connector-curvature="0"
         style="fill:#142b8c"
         d="m 864.791,664.295 c 0.615,0.825 1.346,0.941 2.173,0.326 l 2.077,-1.578 c 0.83,-0.634 0.946,-1.366 0.329,-2.193 l -9.353,-12.47 c -0.634,-0.828 -1.366,-0.941 -2.193,-0.306 l -2.078,1.576 c -0.827,0.615 -0.943,1.346 -0.31,2.175 l 9.355,12.47 z"
         id="path1029" />
      <path
         inkscape:connector-curvature="0"
         style="fill:none;stroke:#010f43;stroke-width:1.92460001;stroke-linecap:round;stroke-linejoin:round;stroke-miterlimit:10"
         d="m 864.791,664.295 -9.354,-12.47 c -0.634,-0.829 -0.518,-1.56 0.31,-2.175 l 2.078,-1.576 c 0.827,-0.636 1.56,-0.522 2.193,0.306 l 9.353,12.47 c 0.617,0.827 0.501,1.56 -0.329,2.193 l -2.077,1.578 c -0.828,0.615 -1.559,0.499 -2.174,-0.326 z"
         id="path1031" />
      <path
         inkscape:connector-curvature="0"
         style="fill:#142b8c"
         d="m 873.527,657.808 c 0.252,-1.421 -0.041,-2.693 -0.886,-3.809 l -2.789,-3.713 c -0.829,-1.115 -1.963,-1.751 -3.406,-1.888 -1.443,-0.153 -2.789,0.232 -4.005,1.136 l -6.446,4.848 c -1.213,0.907 -1.963,2.078 -2.212,3.523 -0.27,1.425 0.019,2.695 0.846,3.811 l 2.791,3.713 c 0.847,1.117 2,1.753 3.444,1.888 1.445,0.155 2.772,-0.232 3.983,-1.136 l 6.444,-4.851 c 1.215,-0.905 1.967,-2.079 2.236,-3.522"
         id="path1033" />
      <path
         inkscape:connector-curvature="0"
         style="fill:none;stroke:#010f43;stroke-width:1.92460001;stroke-linecap:round;stroke-linejoin:round;stroke-miterlimit:10"
         d="m 873.527,657.808 c -0.27,1.443 -1.021,2.617 -2.235,3.522 l -6.444,4.851 c -1.211,0.903 -2.538,1.291 -3.983,1.136 -1.444,-0.135 -2.598,-0.771 -3.444,-1.888 l -2.791,-3.713 c -0.827,-1.115 -1.115,-2.386 -0.846,-3.811 0.249,-1.445 0.999,-2.616 2.212,-3.523 l 6.446,-4.848 c 1.216,-0.903 2.562,-1.289 4.005,-1.136 1.443,0.137 2.577,0.772 3.406,1.888 l 2.789,3.713 c 0.844,1.115 1.137,2.388 0.885,3.809 z"
         id="path1035" />
      <path
         inkscape:connector-curvature="0"
         style="fill:#e6e6f3"
         d="m 871.563,656.5 c -1.02,-1.365 -2.444,-2.118 -4.232,-2.248 -1.809,-0.137 -3.482,0.36 -5.003,1.519 -1.542,1.154 -2.504,2.616 -2.871,4.386 -0.383,1.773 -0.055,3.331 0.965,4.695 1.001,1.329 2.405,2.079 4.214,2.214 1.811,0.135 3.484,-0.367 5.023,-1.519 1.521,-1.156 2.483,-2.618 2.847,-4.39 0.366,-1.769 0.058,-3.329 -0.943,-4.657"
         id="path1037" />
      <path
         inkscape:connector-curvature="0"
         style="fill:none;stroke:#009a9c;stroke-width:1.92460001;stroke-linecap:round;stroke-linejoin:round;stroke-miterlimit:10"
         d="m 867.331,654.252 c -1.809,-0.137 -3.482,0.36 -5.003,1.519 -1.542,1.154 -2.504,2.616 -2.871,4.386 -0.383,1.771 -0.055,3.331 0.965,4.695 1.001,1.329 2.405,2.079 4.214,2.214 1.811,0.135 3.482,-0.367 5.023,-1.519 1.521,-1.156 2.483,-2.618 2.847,-4.39 0.366,-1.77 0.059,-3.329 -0.942,-4.657 -1.02,-1.365 -2.445,-2.118 -4.233,-2.248 z"
         id="path1039" />
      <path
         inkscape:connector-curvature="0"
         style="fill:none;stroke:#00b3b6;stroke-width:1.73179996;stroke-linecap:round;stroke-linejoin:round;stroke-miterlimit:10"
         d="m 870.428,661.524 -2.577,-3.446 m -2.196,7.025 -2.616,-3.503 m 5.004,1.712 -2.598,-3.464"
         id="path1041" />
      <path
         inkscape:connector-curvature="0"
         style="fill:#142b8c"
         d="m 942.997,602.291 c 0.173,-1.02 -0.253,-1.597 -1.252,-1.771 l -4.002,-0.652 c -0.999,-0.174 -1.578,0.25 -1.752,1.27 l -1.425,8.659 c -0.174,1.02 0.251,1.599 1.254,1.77 l 4.002,0.656 c 0.999,0.172 1.576,-0.251 1.749,-1.27 l 1.426,-8.662 z"
         id="path1043" />
      <path
         inkscape:connector-curvature="0"
         style="fill:none;stroke:#010f43;stroke-width:1.92460001;stroke-linecap:round;stroke-linejoin:round;stroke-miterlimit:10"
         d="m 942.997,602.291 -1.426,8.661 c -0.173,1.019 -0.75,1.441 -1.749,1.27 l -4.002,-0.656 c -1.003,-0.171 -1.428,-0.75 -1.254,-1.77 l 1.425,-8.659 c 0.174,-1.02 0.753,-1.443 1.752,-1.27 l 4.002,0.652 c 0.999,0.175 1.425,0.752 1.252,1.772 z"
         id="path1045" />
      <path
         inkscape:connector-curvature="0"
         style="fill:#142b8c"
         d="m 947.824,609.759 c -0.479,-0.673 -1.115,-1.08 -1.94,-1.213 l -14.608,-2.405 c -0.807,-0.135 -1.539,0.059 -2.193,0.54 -0.673,0.48 -1.076,1.113 -1.211,1.923 -0.133,0.807 0.057,1.539 0.538,2.212 0.463,0.656 1.095,1.039 1.906,1.174 l 14.604,2.406 c 0.83,0.135 1.56,-0.039 2.235,-0.5 0.654,-0.48 1.039,-1.136 1.172,-1.944 0.134,-0.808 -0.021,-1.539 -0.503,-2.193"
         id="path1047" />
      <path
         inkscape:connector-curvature="0"
         style="fill:none;stroke:#010f43;stroke-width:1.92460001;stroke-linecap:round;stroke-linejoin:round;stroke-miterlimit:10"
         d="m 947.824,609.759 c 0.481,0.654 0.637,1.385 0.502,2.192 -0.133,0.809 -0.518,1.464 -1.172,1.944 -0.676,0.461 -1.405,0.635 -2.235,0.5 l -14.604,-2.406 c -0.812,-0.135 -1.443,-0.518 -1.906,-1.174 -0.481,-0.673 -0.671,-1.405 -0.538,-2.212 0.135,-0.81 0.538,-1.442 1.211,-1.923 0.654,-0.481 1.387,-0.675 2.193,-0.54 l 14.608,2.405 c 0.826,0.134 1.463,0.541 1.941,1.214 z"
         id="path1049" />
      <path
         inkscape:connector-curvature="0"
         style="fill:#e6e6f3"
         d="m 942.399,617.649 c 1.136,-0.887 1.981,-1.964 2.52,-3.254 l -14.604,-2.406 h -0.077 c 0.134,1.385 0.595,2.695 1.402,3.908 1.213,1.846 2.868,2.942 4.967,3.269 2.098,0.347 4.041,-0.153 5.792,-1.517"
         id="path1051" />
      <path
         inkscape:connector-curvature="0"
         style="fill:none;stroke:#009a9c;stroke-width:1.92460001;stroke-linecap:round;stroke-linejoin:round;stroke-miterlimit:10"
         d="m 944.919,614.396 -14.604,-2.406 h -0.077 c 0.134,1.385 0.595,2.695 1.402,3.908 1.213,1.846 2.868,2.942 4.967,3.269 2.098,0.347 4.041,-0.153 5.794,-1.517 1.134,-0.887 1.98,-1.964 2.518,-3.254 z"
         id="path1053" />
      <path
         inkscape:connector-curvature="0"
         style="fill:#142b8c"
         d="m 857.997,592.362 c -0.752,0.673 -0.789,1.384 -0.114,2.135 l 5.85,6.544 c 0.693,0.769 1.402,0.808 2.153,0.133 l 3.023,-2.693 c 0.75,-0.673 0.769,-1.402 0.096,-2.155 l -5.831,-6.542 c -0.673,-0.753 -1.404,-0.81 -2.176,-0.135 l -3.001,2.713 z"
         id="path1055" />
      <path
         inkscape:connector-curvature="0"
         style="fill:none;stroke:#010f43;stroke-width:1.92460001;stroke-linecap:round;stroke-linejoin:round;stroke-miterlimit:10"
         d="m 857.997,592.362 3.001,-2.714 c 0.771,-0.675 1.503,-0.618 2.176,0.135 l 5.831,6.542 c 0.673,0.753 0.654,1.482 -0.096,2.155 l -3.023,2.693 c -0.751,0.675 -1.46,0.636 -2.153,-0.133 l -5.85,-6.544 c -0.675,-0.75 -0.638,-1.461 0.114,-2.134 z"
         id="path1057" />
    </g>
  </g>
</svg>
