<?xml version="1.0" encoding="UTF-8" standalone="no"?>
<!-- Created with Inkscape (http://www.inkscape.org/) -->

<svg
   xmlns:dc="http://purl.org/dc/elements/1.1/"
   xmlns:cc="http://creativecommons.org/ns#"
   xmlns:rdf="http://www.w3.org/1999/02/22-rdf-syntax-ns#"
   xmlns:svg="http://www.w3.org/2000/svg"
   xmlns="http://www.w3.org/2000/svg"
   xmlns:sodipodi="http://sodipodi.sourceforge.net/DTD/sodipodi-0.dtd"
   xmlns:inkscape="http://www.inkscape.org/namespaces/inkscape"
   width="191.92751"
   height="225.55142"
   id="svg5696"
   version="1.1"
   inkscape:version="0.48.4 r9939"
   sodipodi:docname="grover12.svg">
  <defs
     id="defs5698">
    <clipPath
       id="SVGID_2_">
      <rect
         height="88.862999"
         width="111.498"
         y="518.96198"
         x="382.04999"
         id="use1087" />
    </clipPath>
    <clipPath
       id="SVGID_4_">
      <rect
         height="41.314999"
         width="49.584999"
         y="525.19397"
         x="389.84698"
         id="use1111" />
    </clipPath>
  </defs>
  <sodipodi:namedview
     id="base"
     pagecolor="#ffffff"
     bordercolor="#666666"
     borderopacity="1.0"
     inkscape:pageopacity="0.0"
     inkscape:pageshadow="2"
     inkscape:zoom="0.77472527"
     inkscape:cx="-30.483324"
     inkscape:cy="179.42675"
     inkscape:current-layer="layer1"
     inkscape:document-units="px"
     showgrid="false"
     inkscape:window-width="763"
     inkscape:window-height="591"
     inkscape:window-x="592"
     inkscape:window-y="97"
     inkscape:window-maximized="0"
     fit-margin-top="0"
     fit-margin-left="0"
     fit-margin-right="0"
     fit-margin-bottom="0" />
  <metadata
     id="metadata5701">
    <rdf:RDF>
      <cc:Work
         rdf:about="">
        <dc:format>image/svg+xml</dc:format>
        <dc:type
           rdf:resource="http://purl.org/dc/dcmitype/StillImage" />
        <dc:title></dc:title>
      </cc:Work>
    </rdf:RDF>
  </metadata>
  <g
     id="layer1"
     inkscape:label="Layer 1"
     inkscape:groupmode="layer"
     transform="translate(-348.42662,-38.981694)">
    <g
       transform="translate(-235.06534,-484.10362)"
       id="g657">
      <path
         inkscape:connector-curvature="0"
         style="fill:none;stroke:#043889;stroke-width:2.76480007;stroke-miterlimit:10"
         d="m 592.163,628.656 c -0.23,0.284 -0.373,1.081 -0.46,2.392 0.158,-0.691 0.299,-1.488 0.46,-2.392 z"
         id="path659" />
      <g
         id="g661">
        <path
           inkscape:connector-curvature="0"
           style="fill:#115dab"
           d="m 662.408,664.683 -4.129,5.367 c 11.432,3.652 17.829,12.425 19.212,26.336 0.3,2.995 0.353,6.591 0.159,10.757 h 7.741 v -5.673 h 0.055 c -0.124,-1.223 -0.283,-2.728 -0.461,-4.534 -0.442,-4.733 -1.151,-8.738 -2.145,-12.051 -3.206,-10.739 -10.028,-17.473 -20.432,-20.202"
           id="path663" />
        <path
           inkscape:connector-curvature="0"
           style="fill:none;stroke:#043889;stroke-width:5.671;stroke-linecap:round;stroke-linejoin:round;stroke-miterlimit:10"
           d="m 685.891,705.105 c -0.126,-0.516 -0.428,-3.246 -0.905,-8.17 -0.442,-4.733 -1.151,-8.738 -2.145,-12.051 -3.207,-10.738 -10.031,-17.473 -20.433,-20.202 m -4.129,5.371 c 11.432,3.649 17.829,12.422 19.212,26.333 0.371,3.739 0.371,8.363 -0.037,13.895 -0.071,0.938 -0.122,1.787 -0.141,2.531"
           id="path665" />
        <path
           inkscape:connector-curvature="0"
           style="fill:#115dab"
           d="m 641.708,667.767 c -0.438,0.051 -1.007,0.191 -1.698,0.424 -0.373,0.142 -0.903,0.355 -1.631,0.62 l -2.836,0.938 c 0.373,0.304 0.958,2.004 1.755,5.104 0.869,3.313 1.187,5.564 0.957,6.789 -0.159,0.761 -0.459,1.452 -0.901,2.054 -0.518,0.675 -1.1,1.117 -1.756,1.312 -3.492,1.046 -7.938,1.807 -13.327,2.304 -2.056,0.194 -5.191,0.369 -9.391,0.549 -0.196,0.019 -0.958,0.034 -2.288,0.071 -1.258,0.122 -1.896,0.407 -1.896,0.813 0.214,10.6 1.79,19.228 4.731,25.874 2.498,5.707 5.334,8.789 8.506,9.25 1.398,0.229 2.624,-0.214 3.634,-1.311 1.08,-1.115 1.79,-2.817 2.163,-5.104 0.938,-5.352 -0.127,-12.388 -3.191,-21.107 l 1.01,-0.034 c 1.419,-0.125 3.845,-0.62 7.301,-1.525 3.829,-0.975 6.257,-1.807 7.282,-2.497 4.592,-3.012 6.273,-7.939 5.053,-14.779 -0.639,-3.439 -1.789,-6.681 -3.477,-9.745"
           id="path667" />
        <path
           inkscape:connector-curvature="0"
           style="fill:none;stroke:#043889;stroke-width:5.671;stroke-linecap:round;stroke-linejoin:round;stroke-miterlimit:10"
           d="m 640.01,668.19 c -0.373,0.142 -0.903,0.355 -1.631,0.62 l -2.836,0.938 c 0.373,0.304 0.958,2.004 1.755,5.104 0.869,3.313 1.187,5.564 0.957,6.789 -0.159,0.761 -0.459,1.452 -0.901,2.054 -0.518,0.675 -1.1,1.117 -1.756,1.312 -3.492,1.046 -7.938,1.807 -13.327,2.304 -2.056,0.194 -5.191,0.369 -9.391,0.549 -0.196,0.019 -0.958,0.034 -2.288,0.071 -1.258,0.122 -1.896,0.407 -1.896,0.813 0.214,10.6 1.79,19.228 4.731,25.874 2.498,5.707 5.334,8.789 8.506,9.25 1.398,0.229 2.622,-0.214 3.634,-1.311 1.08,-1.115 1.79,-2.817 2.163,-5.104 0.938,-5.352 -0.127,-12.388 -3.191,-21.107 l 1.01,-0.034 c 1.419,-0.125 3.845,-0.62 7.301,-1.525 3.829,-0.975 6.257,-1.807 7.282,-2.497 4.592,-3.012 6.273,-7.939 5.053,-14.779 -0.639,-3.439 -1.788,-6.682 -3.477,-9.746 -0.438,0.052 -1.007,0.196 -1.698,0.425 z"
           id="path669" />
        <path
           inkscape:connector-curvature="0"
           style="fill:#115dab"
           d="m 729.715,626.864 c -1.721,1.383 -2.799,2.534 -3.264,3.458 -0.335,-0.285 -0.973,-1.474 -1.895,-3.563 -1.188,-1.772 -2.781,-2.18 -4.804,-1.205 -2.96,1.417 -4.11,2.979 -3.453,4.679 0.141,0.373 0.548,1.064 1.239,2.056 0.585,0.831 0.885,1.488 0.939,1.967 -18.27,6.343 -30.8,3.012 -37.605,-10.013 -2.107,-4.057 -3.614,-9.003 -4.518,-14.832 -0.442,-2.907 -0.763,-5.635 -0.991,-8.169 l -6.611,7.743 c 0.195,2.11 0.55,4.589 1.099,7.407 1.134,5.689 2.979,10.546 5.546,14.604 8.275,13.148 22.914,16.622 43.913,10.402 2.853,4.695 5.848,6.271 9.02,4.75 1.044,-0.516 2.021,-1.348 2.926,-2.465 0.62,-0.797 0.989,-1.419 1.1,-1.843 0.014,0.3 0.299,0.707 0.866,1.239 0.728,0.693 1.578,1.224 2.553,1.597 2.746,1.08 4.854,0.336 6.291,-2.198 2.108,-3.668 1.701,-6.485 -1.241,-8.453 -2.18,-1.47 -4.465,-2.107 -6.875,-1.933 0.6,-0.742 2.905,-1.594 6.909,-2.532 3.422,-1.329 4.521,-3.527 3.315,-6.611 -0.887,-2.249 -3.845,-2.108 -8.896,0.426 -1.966,1.011 -3.828,2.162 -5.563,3.489"
           id="path671" />
        <path
           inkscape:connector-curvature="0"
           style="fill:none;stroke:#043889;stroke-width:2.76480007;stroke-miterlimit:10"
           d="m 732.39,641.662 c -0.021,0.055 -0.034,0.124 -0.034,0.178"
           id="path673" />
        <path
           inkscape:connector-curvature="0"
           style="fill:none;stroke:#043889;stroke-width:5.671;stroke-linecap:round;stroke-linejoin:round;stroke-miterlimit:10"
           d="m 668.753,608.984 c 0.195,2.11 0.55,4.589 1.099,7.407 1.134,5.689 2.979,10.546 5.546,14.604 8.275,13.148 22.914,16.622 43.913,10.402 2.853,4.695 5.848,6.271 9.02,4.75 1.044,-0.516 2.021,-1.348 2.926,-2.465 0.62,-0.797 0.989,-1.419 1.1,-1.843 0.016,0.3 0.299,0.707 0.866,1.239 0.728,0.693 1.578,1.224 2.553,1.597 2.746,1.08 4.854,0.336 6.291,-2.198 2.108,-3.668 1.701,-6.485 -1.241,-8.453 -2.18,-1.47 -4.465,-2.107 -6.875,-1.933 0.6,-0.742 2.905,-1.594 6.909,-2.532 3.422,-1.329 4.521,-3.527 3.315,-6.611 -0.887,-2.249 -3.845,-2.108 -8.897,0.426 -1.965,1.012 -3.826,2.163 -5.562,3.49 -1.721,1.383 -2.799,2.534 -3.264,3.458 -0.337,-0.285 -0.973,-1.474 -1.895,-3.563 -1.188,-1.772 -2.781,-2.18 -4.804,-1.205 -2.96,1.417 -4.11,2.979 -3.453,4.679 0.141,0.373 0.546,1.064 1.239,2.056 0.585,0.831 0.885,1.488 0.939,1.967 -18.271,6.343 -30.8,3.012 -37.605,-10.013 -2.107,-4.057 -3.614,-9.003 -4.518,-14.832 -0.442,-2.907 -0.763,-5.635 -0.991,-8.169"
           id="path675" />
        <path
           inkscape:connector-curvature="0"
           style="fill:#115dab"
           d="m 608.237,638.206 c -0.977,-0.975 -1.896,-2.267 -2.783,-3.845 0.371,0.993 0.408,3.085 0.141,6.292 -0.302,3.453 -0.921,5.28 -1.878,5.494 -2.126,0.442 -3.616,-0.96 -4.482,-4.219 -0.551,-2.004 -0.903,-5.211 -1.064,-9.623 -0.051,2.5 -0.178,4.537 -0.371,6.149 -0.339,3.066 -1.064,4.396 -2.145,4.006 -2.037,-0.373 -3.313,-2.642 -3.827,-6.842 -0.178,-1.486 -0.23,-2.975 -0.143,-4.483 0.019,-0.034 0.019,-0.071 0.019,-0.088 -0.196,0.94 -0.408,1.719 -0.62,2.302 -0.691,1.933 -1.949,2.483 -3.776,1.615 -0.709,-0.339 -1.027,-1.631 -0.975,-3.863 0.072,-2.394 0.586,-4.732 1.561,-7.018 2.711,-6.363 7.264,-8.808 13.625,-7.338 0.055,-0.017 0.568,-2.056 1.578,-6.112 1.543,-4.626 3.635,-8.312 6.257,-11.057 8.453,-8.862 21.016,-6.806 37.693,6.165 0.477,0.373 0.246,1.364 -0.71,3.012 -0.958,1.666 -1.809,2.27 -2.553,1.809 -13.945,-8.755 -23.426,-11.181 -28.442,-7.267 -1.929,1.507 -3.527,4.2 -4.783,8.045 -1.24,4.856 -2.198,8.562 -2.871,11.114 4.661,8.699 6.041,14.173 4.112,16.442 -0.871,1.066 -2.058,0.835 -3.563,-0.69"
           id="path677" />
        <path
           inkscape:connector-curvature="0"
           style="fill:none;stroke:#043889;stroke-width:5.671;stroke-linecap:round;stroke-linejoin:round;stroke-miterlimit:10"
           d="m 591.685,631.136 c -0.088,1.509 -0.035,2.997 0.143,4.483 0.514,4.2 1.79,6.469 3.827,6.842 1.08,0.39 1.806,-0.939 2.145,-4.006 0.193,-1.612 0.32,-3.649 0.371,-6.149 0.161,4.412 0.514,7.619 1.064,9.623 0.866,3.259 2.356,4.661 4.482,4.219 0.957,-0.214 1.576,-2.041 1.88,-5.494 0.266,-3.207 0.229,-5.299 -0.143,-6.292 0.887,1.578 1.807,2.87 2.783,3.847 1.507,1.523 2.693,1.754 3.562,0.689 1.929,-2.27 0.549,-7.743 -4.112,-16.442 0.673,-2.553 1.631,-6.258 2.871,-11.114 1.258,-3.845 2.854,-6.538 4.783,-8.045 5.017,-3.914 14.497,-1.488 28.442,7.267 0.742,0.461 1.595,-0.143 2.553,-1.809 0.956,-1.647 1.187,-2.639 0.71,-3.012 -16.678,-12.971 -29.24,-15.027 -37.693,-6.165 -2.622,2.744 -4.714,6.431 -6.257,11.057 -1.01,4.057 -1.523,6.096 -1.578,6.112 -6.361,-1.47 -10.914,0.975 -13.625,7.338 -0.977,2.287 -1.488,4.624 -1.561,7.018 -0.053,2.232 0.266,3.524 0.975,3.863 1.827,0.868 3.085,0.317 3.776,-1.615 0.193,-0.566 0.405,-1.312 0.602,-2.215 z m 0.018,-0.088 c 0,0.017 0,0.054 -0.019,0.088 m 8.985,-14.568 4.573,-11.411"
           id="path679" />
        <path
           inkscape:connector-curvature="0"
           style="fill:#115dab"
           d="m 656.153,590.855 c -3.348,5.175 -6.166,9.535 -8.419,13.097 -9.603,15.098 -15.719,26.972 -18.341,35.602 -2.958,9.764 -2.216,18.27 2.2,25.483 1.912,3.119 4.375,5.616 7.387,7.513 2.926,1.861 6.045,2.942 9.393,3.226 3.421,0.302 6.684,-0.283 9.801,-1.737 3.312,-1.56 6.169,-4.022 8.559,-7.372 5.582,-7.833 7.904,-19.226 6.948,-34.183 -0.868,-13.644 -1.633,-23.64 -2.288,-29.984 -0.866,-8.435 -1.755,-13.238 -2.656,-14.408 -1.525,-1.929 -4.218,-2.726 -8.1,-2.392 -1.079,0.088 -2.056,0.249 -2.94,0.479 -0.302,0.087 -0.442,0.124 -0.392,0.141 0.054,0 0.283,-0.054 0.691,-0.176 0.834,-0.233 0.231,1.327 -1.843,4.711"
           id="path681" />
        <path
           inkscape:connector-curvature="0"
           style="fill:none;stroke:#043889;stroke-width:5.671;stroke-linecap:round;stroke-linejoin:round;stroke-miterlimit:10"
           d="m 668.736,588.091 c 0.901,1.17 1.79,5.974 2.656,14.408 0.655,6.345 1.42,16.341 2.288,29.984 0.956,14.957 -1.366,26.35 -6.948,34.183 -2.39,3.35 -5.246,5.812 -8.559,7.372 -3.117,1.454 -6.38,2.039 -9.801,1.737 -3.348,-0.283 -6.467,-1.364 -9.393,-3.226 -3.012,-1.896 -5.475,-4.394 -7.387,-7.513 -4.416,-7.214 -5.158,-15.72 -2.2,-25.483 2.622,-8.63 8.738,-20.504 18.341,-35.602 2.253,-3.562 5.071,-7.922 8.419,-13.097 2.073,-3.385 2.677,-4.944 1.843,-4.712 -0.408,0.122 -0.638,0.176 -0.691,0.176 -0.051,-0.017 0.09,-0.054 0.392,-0.141 0.885,-0.23 1.861,-0.392 2.94,-0.479 3.883,-0.333 6.575,0.464 8.1,2.393 z"
           id="path683" />
        <path
           inkscape:connector-curvature="0"
           style="fill:#0e5cab"
           d="m 668.736,588.091 c -1.525,-1.929 -4.218,-2.726 -8.1,-2.392 -1.079,0.088 -2.056,0.249 -2.94,0.479 -0.302,0.087 -0.442,0.124 -0.392,0.141 0.054,0 0.283,-0.054 0.691,-0.176 0.834,-0.232 0.23,1.327 -1.843,4.712 -3.348,5.175 -6.166,9.535 -8.419,13.097 -9.603,15.098 -15.719,26.972 -18.341,35.602 -2.958,9.764 -2.216,18.27 2.2,25.483 1.912,3.119 4.375,5.616 7.387,7.513 2.926,1.861 6.045,2.942 9.393,3.226 3.421,0.302 6.684,-0.283 9.801,-1.737 3.312,-1.56 6.169,-4.022 8.559,-7.372 5.582,-7.833 7.904,-19.226 6.948,-34.183 -0.868,-13.644 -1.633,-23.64 -2.288,-29.984 -0.866,-8.436 -1.754,-13.239 -2.656,-14.409"
           id="path685" />
        <path
           inkscape:connector-curvature="0"
           style="fill:#0e5cab"
           d="m 744.174,622.948 c -0.887,-2.249 -3.845,-2.108 -8.896,0.426 -1.967,1.012 -3.828,2.163 -5.563,3.49 -1.721,1.383 -2.799,2.534 -3.264,3.458 -0.335,-0.285 -0.973,-1.474 -1.895,-3.563 -1.188,-1.772 -2.781,-2.18 -4.804,-1.205 -2.96,1.417 -4.11,2.979 -3.453,4.679 0.141,0.373 0.546,1.064 1.239,2.056 0.585,0.831 0.885,1.488 0.939,1.967 -18.27,6.343 -30.8,3.012 -37.605,-10.013 -2.107,-4.057 -3.614,-9.003 -4.518,-14.832 -0.442,-2.907 -0.763,-5.635 -0.991,-8.169 l -6.611,7.743 c 0.195,2.11 0.55,4.589 1.099,7.407 1.134,5.689 2.979,10.546 5.546,14.604 8.275,13.148 22.914,16.622 43.913,10.402 2.853,4.695 5.848,6.271 9.02,4.75 1.044,-0.516 2.021,-1.348 2.926,-2.465 0.618,-0.797 0.989,-1.419 1.1,-1.843 0.014,0.3 0.299,0.707 0.866,1.239 0.728,0.693 1.578,1.224 2.553,1.597 2.746,1.08 4.854,0.336 6.291,-2.198 2.108,-3.668 1.701,-6.485 -1.241,-8.453 -2.18,-1.47 -4.465,-2.107 -6.875,-1.933 0.6,-0.742 2.905,-1.594 6.909,-2.532 3.421,-1.33 4.52,-3.528 3.315,-6.612"
           id="path687" />
        <path
           inkscape:connector-curvature="0"
           style="fill:#0e5cab"
           d="m 609.353,599.577 c -2.622,2.744 -4.714,6.431 -6.257,11.057 -1.01,4.057 -1.523,6.096 -1.578,6.112 -6.361,-1.47 -10.914,0.975 -13.625,7.338 -0.977,2.285 -1.488,4.624 -1.561,7.018 -0.053,2.232 0.266,3.524 0.975,3.863 1.827,0.868 3.083,0.317 3.776,-1.615 0.193,-0.564 0.405,-1.311 0.602,-2.214 -0.088,1.509 -0.035,2.997 0.143,4.483 0.514,4.2 1.79,6.469 3.827,6.842 1.08,0.39 1.806,-0.939 2.145,-4.006 0.193,-1.612 0.32,-3.649 0.371,-6.149 0.161,4.412 0.514,7.619 1.064,9.623 0.866,3.259 2.356,4.661 4.482,4.219 0.957,-0.214 1.576,-2.041 1.878,-5.494 0.268,-3.207 0.23,-5.299 -0.141,-6.292 0.887,1.578 1.807,2.87 2.783,3.845 1.505,1.525 2.693,1.756 3.562,0.691 1.929,-2.27 0.549,-7.743 -4.112,-16.442 0.673,-2.553 1.631,-6.258 2.871,-11.114 1.258,-3.845 2.854,-6.538 4.783,-8.045 5.017,-3.914 14.497,-1.488 28.442,7.267 0.742,0.461 1.595,-0.143 2.553,-1.811 0.956,-1.646 1.187,-2.637 0.71,-3.01 -16.678,-12.972 -29.24,-15.028 -37.693,-6.166"
           id="path689" />
        <path
           inkscape:connector-curvature="0"
           style="fill:#f8ec00"
           d="m 612.207,609.959 -7.868,-4.534 c -1.151,-0.656 -2.358,-0.712 -3.651,-0.125 -1.188,0.514 -2.108,1.436 -2.801,2.729 -0.054,0.09 -0.125,0.195 -0.176,0.317 -0.055,0.106 -0.09,0.215 -0.124,0.337 -0.569,1.348 -0.71,2.729 -0.427,4.131 0.32,1.488 1.046,2.568 2.198,3.223 l 7.865,4.539 c 1.154,0.656 2.359,0.707 3.654,0.141 1.187,-0.551 2.124,-1.452 2.817,-2.729 0.051,-0.105 0.088,-0.212 0.141,-0.317 0.051,-0.127 0.105,-0.23 0.161,-0.339 0.564,-1.364 0.707,-2.746 0.405,-4.129 -0.316,-1.507 -1.045,-2.588 -2.194,-3.244"
           id="path691" />
        <path
           inkscape:connector-curvature="0"
           style="fill:none;stroke:#f49d00;stroke-width:2.48070002;stroke-linecap:round;stroke-linejoin:round;stroke-miterlimit:10"
           d="m 612.207,609.959 c 1.149,0.656 1.878,1.737 2.195,3.243 0.302,1.383 0.159,2.765 -0.405,4.129 -0.056,0.108 -0.11,0.212 -0.161,0.339 -0.053,0.105 -0.09,0.212 -0.141,0.317 -0.693,1.276 -1.631,2.178 -2.817,2.729 -1.295,0.566 -2.5,0.516 -3.654,-0.141 l -7.865,-4.539 c -1.152,-0.654 -1.878,-1.734 -2.198,-3.223 -0.283,-1.401 -0.143,-2.783 0.427,-4.131 0.034,-0.122 0.069,-0.23 0.124,-0.337 0.051,-0.122 0.122,-0.228 0.176,-0.317 0.692,-1.293 1.612,-2.215 2.801,-2.729 1.293,-0.587 2.5,-0.531 3.651,0.125 l 7.867,4.535 z"
           id="path693" />
        <path
           inkscape:connector-curvature="0"
           style="fill:#f8ec00"
           d="m 706.854,631.597 c -0.107,0.036 -0.212,0.071 -0.336,0.09 -1.4,0.442 -2.5,1.168 -3.315,2.197 -0.885,1.115 -1.17,2.249 -0.85,3.419 l 2.143,8.011 c 0.304,1.168 1.117,2.021 2.446,2.534 1.224,0.478 2.534,0.567 3.972,0.23 0.122,-0.019 0.247,-0.036 0.354,-0.071 0.12,-0.037 0.229,-0.071 0.335,-0.108 1.4,-0.424 2.497,-1.149 3.331,-2.195 0.868,-1.099 1.152,-2.232 0.85,-3.403 l -2.143,-8.008 c -0.319,-1.173 -1.136,-2.021 -2.446,-2.553 -1.224,-0.479 -2.551,-0.551 -3.985,-0.23 -0.128,0.015 -0.233,0.052 -0.356,0.087"
           id="path695" />
        <path
           inkscape:connector-curvature="0"
           style="fill:none;stroke:#f49d00;stroke-width:2.48070002;stroke-linecap:round;stroke-linejoin:round;stroke-miterlimit:10"
           d="m 706.854,631.597 c 0.123,-0.035 0.229,-0.071 0.355,-0.088 1.435,-0.32 2.762,-0.249 3.985,0.23 1.311,0.532 2.127,1.38 2.446,2.553 l 2.143,8.008 c 0.303,1.171 0.019,2.305 -0.85,3.403 -0.834,1.046 -1.931,1.771 -3.331,2.195 -0.106,0.037 -0.215,0.071 -0.335,0.108 -0.107,0.035 -0.232,0.053 -0.354,0.071 -1.438,0.337 -2.748,0.247 -3.972,-0.23 -1.329,-0.514 -2.143,-1.366 -2.446,-2.534 l -2.143,-8.011 c -0.32,-1.17 -0.035,-2.304 0.85,-3.419 0.815,-1.029 1.915,-1.755 3.315,-2.197 0.125,-0.018 0.229,-0.053 0.337,-0.089 z"
           id="path697" />
        <path
           inkscape:connector-curvature="0"
           style="fill:#0e5cab"
           d="m 625.567,722.56 c -1.01,1.097 -2.235,1.539 -3.634,1.311 -3.172,-0.461 -6.008,-3.543 -8.506,-9.25 -2.941,-6.646 -4.518,-15.274 -4.731,-25.874 0,-0.406 0.638,-0.691 1.896,-0.813 1.33,-0.037 2.092,-0.055 2.288,-0.071 4.199,-0.18 7.335,-0.354 9.391,-0.549 5.389,-0.497 9.835,-1.258 13.327,-2.304 0.656,-0.195 1.238,-0.638 1.756,-1.312 0.442,-0.602 0.742,-1.293 0.901,-2.054 0.229,-1.225 -0.088,-3.476 -0.957,-6.789 -0.797,-3.101 -1.382,-4.801 -1.755,-5.104 l 2.836,-0.938 c 0.728,-0.265 1.258,-0.479 1.631,-0.62 0.691,-0.229 1.26,-0.373 1.698,-0.424 1.688,3.064 2.838,6.307 3.477,9.746 1.221,6.84 -0.461,11.768 -5.053,14.779 -1.025,0.69 -3.453,1.522 -7.282,2.497 -3.456,0.905 -5.882,1.4 -7.301,1.525 l -1.01,0.034 c 3.064,8.72 4.129,15.756 3.191,21.107 -0.373,2.285 -1.083,3.985 -2.163,5.103"
           id="path699" />
        <path
           inkscape:connector-curvature="0"
           style="fill:#0e5cab"
           d="m 685.891,705.105 c -0.126,-0.516 -0.428,-3.246 -0.905,-8.17 -0.442,-4.733 -1.151,-8.738 -2.145,-12.051 -3.207,-10.738 -10.028,-17.473 -20.433,-20.202 l -4.129,5.367 c 11.432,3.652 17.829,12.425 19.212,26.336 0.371,3.739 0.371,8.363 -0.037,13.895 -0.283,4.126 -0.232,6.271 0.141,6.396 9.411,3.066 17.97,3.49 25.714,1.292 3.19,-0.885 5.918,-2.159 8.188,-3.826 2.145,-1.542 3.615,-3.207 4.446,-4.997 0.834,-1.79 0.888,-3.366 0.161,-4.767 -0.762,-1.507 -2.322,-2.569 -4.645,-3.191 -5.635,-1.523 -14.157,-0.212 -25.568,3.918"
           id="path701" />
        <path
           inkscape:connector-curvature="0"
           style="fill:none;stroke:#403c3b;stroke-width:2.8355;stroke-linecap:round;stroke-linejoin:round;stroke-miterlimit:10"
           d="m 635.243,690.645 c -1.985,-1.473 -3.119,-3.846 -3.387,-7.089"
           id="path703" />
        <path
           inkscape:connector-curvature="0"
           style="fill:#31ad37"
           d="m 638.557,690.838 c -0.567,-1.15 -0.903,-1.968 -1.028,-2.444 -0.124,-0.479 -2.002,-0.427 -5.601,0.124 -3.596,0.549 -6.93,1.613 -9.994,3.188 -3.066,1.595 -4.324,2.979 -3.755,4.147 0.566,1.17 2.78,1.79 6.66,1.843 3.882,0.088 8.029,-0.444 12.459,-1.56 4.431,-1.117 5.885,-2.002 4.378,-2.622 -1.507,-0.637 -2.553,-1.522 -3.119,-2.676"
           id="path705" />
        <path
           inkscape:connector-curvature="0"
           style="fill:none;stroke:#00853a;stroke-width:2.30360007;stroke-linecap:round;stroke-linejoin:round;stroke-miterlimit:10"
           d="m 637.528,688.394 c -0.124,-0.479 -2.002,-0.427 -5.601,0.124 -3.596,0.549 -6.93,1.613 -9.994,3.188 -3.066,1.595 -4.324,2.979 -3.755,4.147 0.564,1.17 2.78,1.79 6.66,1.843 3.882,0.088 8.029,-0.444 12.459,-1.56 4.431,-1.117 5.885,-2.002 4.378,-2.622 -1.507,-0.638 -2.553,-1.522 -3.119,-2.677 -0.567,-1.149 -0.903,-1.967 -1.028,-2.443 z"
           id="path707" />
        <path
           inkscape:connector-curvature="0"
           style="fill:none;stroke:#403c3b;stroke-width:5.31619978;stroke-linecap:round;stroke-linejoin:round;stroke-miterlimit:10"
           d="m 608.929,690.414 -3.866,0.389 m 5.195,10.775 -3.848,0.549 m 6.682,10.277 -3.615,1.419 m 8.771,7.94 -3.03,2.409"
           id="path709" />
        <path
           inkscape:connector-curvature="0"
           style="fill:#595757"
           d="m 608.839,685.346 c -1.472,0.158 -2.198,0.46 -2.198,0.939 0.249,12.262 2.074,22.239 5.477,29.946 2.907,6.609 6.184,10.173 9.854,10.703 1.612,0.268 3.011,-0.246 4.197,-1.507 1.242,-1.29 2.074,-3.278 2.5,-5.918 0.993,-5.652 0.497,-12.243 -1.47,-19.81 -5.76,-1.809 -7.497,-6.823 -5.211,-15.027 -2.392,0.193 -5.882,0.389 -10.509,0.583 -0.214,0.019 -1.099,0.035 -2.64,0.091"
           id="path711" />
        <path
           inkscape:connector-curvature="0"
           style="fill:none;stroke:#403c3b;stroke-width:2.8355;stroke-linecap:round;stroke-linejoin:round;stroke-miterlimit:10"
           d="m 606.641,686.285 c 0.249,12.262 2.074,22.239 5.477,29.946 2.907,6.609 6.184,10.173 9.854,10.703 1.61,0.268 3.011,-0.246 4.197,-1.507 1.242,-1.29 2.074,-3.278 2.5,-5.918 0.993,-5.652 0.497,-12.243 -1.47,-19.81 -5.76,-1.809 -7.497,-6.823 -5.211,-15.027 -2.392,0.193 -5.882,0.389 -10.509,0.583 -0.214,0.019 -1.099,0.034 -2.64,0.09 -1.472,0.159 -2.198,0.461 -2.198,0.94 z"
           id="path713" />
        <path
           inkscape:connector-curvature="0"
           style="fill:#ffffff"
           d="m 613.872,698.157 c -0.516,-0.124 -0.974,-0.088 -1.419,0.141 -0.407,0.302 -0.69,0.675 -0.85,1.134 -0.09,0.532 0,1.029 0.248,1.509 0.266,0.424 0.62,0.709 1.1,0.831 l 6.006,1.613 c 0.496,0.124 0.956,0.053 1.4,-0.212 0.461,-0.266 0.742,-0.639 0.834,-1.152 0.123,-0.495 0.033,-0.958 -0.25,-1.382 -0.247,-0.461 -0.62,-0.744 -1.117,-0.869 l -5.952,-1.613 z"
           id="path715" />
        <path
           inkscape:connector-curvature="0"
           style="fill:#ffffff"
           d="m 614.366,704.907 c -0.479,-0.122 -0.938,-0.069 -1.364,0.18 -0.442,0.265 -0.707,0.654 -0.832,1.152 -0.141,0.514 -0.071,0.99 0.196,1.451 0.283,0.444 0.654,0.744 1.115,0.868 l 6.006,1.613 c 0.516,0.124 0.977,0.036 1.385,-0.266 0.442,-0.214 0.726,-0.585 0.833,-1.133 0.141,-0.481 0.067,-0.94 -0.214,-1.385 -0.246,-0.459 -0.619,-0.744 -1.117,-0.866 l -6.008,-1.614 z"
           id="path717" />
        <path
           inkscape:connector-curvature="0"
           style="fill:none;stroke:#403c3b;stroke-width:2.8355;stroke-linecap:round;stroke-linejoin:round;stroke-miterlimit:10"
           d="m 681.602,689.172 c -1.507,1.968 -3.9,3.048 -7.16,3.263"
           id="path719" />
        <path
           inkscape:connector-curvature="0"
           style="fill:none;stroke:#403c3b;stroke-width:5.31619978;stroke-linecap:round;stroke-linejoin:round;stroke-miterlimit:10"
           d="m 679.44,718.005 0.159,3.882 m 11.163,-4.823 0.32,3.864 m 10.738,-6.273 1.205,3.686 m 8.524,-8.418 2.251,3.121"
           id="path721" />
        <path
           inkscape:connector-curvature="0"
           style="fill:#31ad37"
           d="m 687.502,704.732 c 0.46,-3.776 0.302,-8.331 -0.461,-13.664 -0.763,-5.334 -1.558,-7.513 -2.392,-6.541 -0.834,0.977 -1.896,1.278 -3.188,0.905 -1.315,-0.405 -2.219,-0.744 -2.73,-1.009 -0.516,-0.268 -0.656,1.61 -0.426,5.67 0.267,4.041 1.08,8.223 2.444,12.547 1.419,4.377 2.783,6.769 4.094,7.177 1.329,0.408 2.217,-1.293 2.659,-5.085"
           id="path723" />
        <path
           inkscape:connector-curvature="0"
           style="fill:none;stroke:#00853a;stroke-width:2.30360007;stroke-linecap:round;stroke-linejoin:round;stroke-miterlimit:10"
           d="m 687.041,691.068 c -0.763,-5.334 -1.558,-7.513 -2.392,-6.541 -0.834,0.977 -1.896,1.278 -3.188,0.905 -1.315,-0.405 -2.219,-0.744 -2.73,-1.009 -0.516,-0.268 -0.656,1.61 -0.426,5.67 0.267,4.041 1.08,8.223 2.444,12.547 1.419,4.377 2.783,6.769 4.094,7.177 1.329,0.407 2.217,-1.293 2.659,-5.085 0.46,-3.776 0.302,-8.331 -0.461,-13.664 z"
           id="path725" />
        <path
           inkscape:connector-curvature="0"
           style="fill:#595757"
           d="m 709.953,699.415 c -5.617,-1.224 -12.299,-1.009 -20.023,0.656 -2.182,5.688 -7.336,7.229 -15.436,4.59 0.055,2.392 0.036,5.898 -0.053,10.526 -0.019,0.212 -0.035,1.099 -0.088,2.658 0.069,1.472 0.336,2.216 0.813,2.232 12.353,0.266 22.506,-1.151 30.464,-4.253 6.821,-2.64 10.613,-5.777 11.376,-9.411 0.353,-1.61 -0.071,-3.027 -1.256,-4.253 -1.225,-1.291 -3.155,-2.213 -5.797,-2.745"
           id="path727" />
        <path
           inkscape:connector-curvature="0"
           style="fill:none;stroke:#403c3b;stroke-width:2.8355;stroke-linecap:round;stroke-linejoin:round;stroke-miterlimit:10"
           d="m 689.93,700.071 c -2.18,5.688 -7.336,7.229 -15.436,4.59 0.055,2.392 0.036,5.898 -0.053,10.526 -0.019,0.212 -0.035,1.099 -0.088,2.656 0.069,1.474 0.336,2.218 0.815,2.234 12.351,0.266 22.504,-1.151 30.462,-4.253 6.821,-2.64 10.613,-5.775 11.376,-9.411 0.353,-1.61 -0.071,-3.029 -1.256,-4.253 -1.226,-1.292 -3.156,-2.214 -5.798,-2.746 -5.616,-1.223 -12.298,-1.008 -20.022,0.657 z"
           id="path729" />
        <path
           inkscape:connector-curvature="0"
           style="fill:#ffffff"
           d="m 697.318,706.097 c -0.478,0.228 -0.797,0.585 -0.956,1.08 l -1.968,5.937 c -0.177,0.478 -0.141,0.922 0.09,1.364 0.231,0.442 0.602,0.744 1.08,0.887 0.515,0.161 1.012,0.106 1.473,-0.143 0.477,-0.249 0.795,-0.602 0.954,-1.08 l 1.985,-5.938 c 0.159,-0.514 0.106,-0.975 -0.158,-1.4 -0.196,-0.44 -0.569,-0.744 -1.083,-0.885 -0.477,-0.159 -0.956,-0.09 -1.417,0.178"
           id="path731" />
        <path
           inkscape:connector-curvature="0"
           style="fill:#ffffff"
           d="m 690.479,706.363 c -0.478,0.229 -0.777,0.583 -0.938,1.08 l -2.002,5.883 c -0.159,0.516 -0.124,0.977 0.069,1.419 0.268,0.442 0.639,0.742 1.117,0.902 0.516,0.106 1.012,0.052 1.488,-0.177 0.442,-0.23 0.763,-0.602 0.922,-1.079 l 1.985,-5.94 c 0.159,-0.493 0.123,-0.954 -0.107,-1.398 -0.229,-0.478 -0.602,-0.761 -1.115,-0.869 -0.48,-0.16 -0.959,-0.087 -1.419,0.179"
           id="path733" />
        <path
           inkscape:connector-curvature="0"
           style="fill:#31ad37"
           d="m 661.735,579.587 c -1.17,0.088 -2.232,0.247 -3.207,0.514 -0.337,0.088 -0.479,0.141 -0.426,0.159 0.055,0 0.302,-0.071 0.746,-0.195 0.919,-0.266 0.246,1.453 -2.007,5.14 -3.665,5.651 -6.731,10.437 -9.194,14.318 -0.355,0.548 -0.708,1.115 -1.044,1.663 5.421,3.034 6.626,7.321 3.631,12.833 -0.336,0.583 -0.691,1.187 -1.08,1.808 -0.178,0.318 -0.355,0.639 -0.532,0.954 -4.341,7.69 -7.531,14.337 -9.568,19.938 -2.306,4.341 -4.609,10.669 -6.894,18.961 l 4.232,0.32 5.336,0.424 31.969,2.481 2.658,0.195 -0.143,-20.114 v -1.293 c 0,-2.251 -0.069,-4.573 -0.229,-6.999 -0.021,-0.408 -0.055,-0.813 -0.071,-1.224 -0.32,-4.891 -0.62,-9.337 -0.905,-13.325 -0.283,-3.845 -0.549,-7.301 -0.795,-10.331 -0.27,-3.029 -0.498,-5.672 -0.729,-7.886 -0.938,-9.215 -1.896,-14.461 -2.907,-15.737 -1.646,-2.109 -4.606,-2.977 -8.841,-2.604"
           id="path735" />
        <path
           inkscape:connector-curvature="0"
           style="fill:#f49d00"
           d="m 635.011,594.685 -2.375,4.572 c 5.867,2.479 9.713,4.449 11.503,5.9 0.246,0.194 0.461,0.39 0.638,0.567 1.647,1.755 1.47,4.679 -0.53,8.806 -2.004,4.13 -4.201,8.666 -6.559,13.646 -2.375,4.962 -4.553,9.8 -6.52,14.532 -1.721,4.094 -3.191,8.257 -4.412,12.526 l 0.177,0.039 4.127,0.317 1.101,0.088 c 2.286,-8.292 4.588,-14.62 6.894,-18.961 2.037,-5.599 5.228,-12.247 9.568,-19.936 0.177,-0.317 0.354,-0.638 0.532,-0.956 0.389,-0.621 0.744,-1.225 1.08,-1.808 2.995,-5.512 1.79,-9.799 -3.631,-12.833 l -11.593,-6.499 z"
           id="path737" />
        <path
           inkscape:connector-curvature="0"
           style="fill:#ffffff"
           d="m 644.776,605.725 c -0.177,-0.178 -0.392,-0.371 -0.638,-0.567 -1.79,-1.451 -5.636,-3.421 -11.503,-5.9 l -4.27,8.239 11.554,4.731 c -5.138,8.88 -8.982,16.464 -11.519,22.719 -2.144,4.518 -4.41,11.164 -6.804,19.9 l 4.412,0.355 h 0.018 l 0.44,0.032 0.268,0.021 c 0,-0.021 0,-0.021 0.021,-0.021 1.221,-4.27 2.691,-8.433 4.412,-12.526 1.967,-4.732 4.145,-9.57 6.52,-14.532 2.357,-4.979 4.555,-9.516 6.559,-13.646 2,-4.127 2.178,-7.051 0.53,-8.805"
           id="path739" />
        <path
           inkscape:connector-curvature="0"
           style="fill:#f49d00"
           d="m 675.008,616.145 5.725,10.474 4.785,-2.854 -11.307,-17.95 c 0.248,3.029 0.514,6.485 0.797,10.33"
           id="path741" />
        <path
           inkscape:connector-curvature="0"
           style="fill:#ffffff"
           d="m 680.732,626.618 -5.725,-10.474 c 0.285,3.988 0.585,8.435 0.905,13.325 l 4.82,-2.851 z"
           id="path743" />
        <path
           inkscape:connector-curvature="0"
           style="fill:#f49d00"
           d="m 672.28,662.591 c 0.85,-1.188 1.329,-2.427 1.417,-3.687 l -31.969,-2.481 0.636,24.368 11.201,1.417 -0.46,-8.046 -0.178,-3.172 c 3.49,-0.337 5.99,-1.452 7.479,-3.385 -1.488,1.933 -3.988,3.048 -7.479,3.385 l 0.178,3.172 6.13,7.975 21.726,-12.441 -8.681,-7.105 z"
           id="path745" />
        <polygon
           style="fill:#ffffff"
           points="637.033,680.116 636.393,655.999 632.16,655.679 631.06,655.591 631.697,679.427 "
           id="polygon747" />
        <polygon
           style="fill:#31ad37"
           points="641.729,656.423 636.393,655.999 637.033,680.116 642.364,680.791 "
           id="polygon749" />
        <path
           inkscape:connector-curvature="0"
           style="fill:#f49d00"
           d="m 631.697,679.427 -0.638,-23.836 -4.127,-0.317 -0.177,-0.039 c -0.019,0 -0.019,0 -0.019,0.021 l -0.267,-0.021 -0.443,-0.032 -0.018,0.053 c -0.069,5.972 0.354,10.455 1.26,13.484 0.901,3.014 0.656,6.363 -0.744,10.029 l 5.173,0.658 z"
           id="path751" />
        <path
           inkscape:connector-curvature="0"
           style="fill:none;stroke:#e7320e;stroke-width:2.65840006;stroke-linecap:round;stroke-linejoin:round;stroke-miterlimit:10"
           d="m 660.408,667.605 c -1.49,1.933 -3.99,3.048 -7.48,3.385 l 0.178,3.172 m 20.591,-15.258 c -0.088,1.26 -0.567,2.499 -1.417,3.687 l 8.681,7.104 -21.726,12.441 -6.13,-7.975 m 0,0.001 0.46,8.048 -11.201,-1.419 -5.331,-0.675 -5.336,-0.689 -5.172,-0.658 c 1.4,-3.666 1.646,-7.016 0.744,-10.029 -0.905,-3.029 -1.329,-7.513 -1.26,-13.484"
           id="path753" />
        <path
           inkscape:connector-curvature="0"
           style="fill:none;stroke:#00853a;stroke-width:2.8355;stroke-linecap:round;stroke-linejoin:round;stroke-miterlimit:10"
           d="m 674.211,605.813 c 0.248,3.028 0.514,6.486 0.797,10.331 0.285,3.988 0.585,8.435 0.905,13.325 m -49.903,25.786 v -0.053 m 0,0 -4.412,-0.355 c 2.394,-8.736 4.66,-15.383 6.806,-19.9 2.534,-6.255 6.379,-13.839 11.517,-22.719 l -11.554,-4.731 4.27,-8.239 2.375,-4.572 11.593,6.501 c 0.336,-0.548 0.688,-1.115 1.044,-1.663 2.463,-3.882 5.529,-8.667 9.194,-14.318 2.253,-3.687 2.926,-5.405 2.007,-5.14 -0.444,0.124 -0.691,0.195 -0.746,0.195 -0.054,-0.019 0.089,-0.071 0.424,-0.159 0.977,-0.267 2.039,-0.426 3.209,-0.514 4.234,-0.373 7.194,0.495 8.842,2.604 1.012,1.276 1.97,6.522 2.907,15.737 0.23,2.214 0.461,4.856 0.727,7.886 m -47.742,49.419 -0.443,-0.032 h -0.018 m 48.201,-49.389 11.307,17.95 -4.785,2.854 -4.819,2.852 m -10e-4,10e-4 c 0.017,0.41 0.051,0.815 0.071,1.224 0.159,2.426 0.229,4.748 0.229,6.999 v 1.293 l 0.143,20.114 -2.658,-0.195 -31.969,-2.481 -5.336,-0.424 -4.232,-0.32 -1.101,-0.088 -4.127,-0.317 -0.177,-0.039"
           id="path755" />
        <path
           inkscape:connector-curvature="0"
           style="fill:#f8ec00"
           d="m 655.393,615.594 c -1.08,-0.122 -2.021,0.143 -2.836,0.815 -0.799,0.673 -1.224,1.561 -1.293,2.641 l -0.587,10.545 c -0.053,0.868 0.159,1.665 0.604,2.407 0.461,0.746 1.099,1.295 1.896,1.668 0.778,0.373 1.577,0.479 2.409,0.302 1.436,-0.302 3.014,-0.353 4.714,-0.195 0.938,0.087 1.685,0.516 2.251,1.241 l 0.019,0.019 c 0.673,0.936 0.993,2.055 0.938,3.385 -0.017,0.707 -0.23,1.221 -0.638,1.522 -1.258,0.551 -2.588,0.799 -3.951,0.761 -0.975,-0.159 -1.934,-0.742 -2.871,-1.77 -0.763,-0.834 -1.684,-1.295 -2.763,-1.348 -1.084,-0.071 -2.021,0.248 -2.785,0.975 -0.76,0.726 -1.133,1.631 -1.151,2.728 -0.017,1.083 0.373,2.039 1.151,2.854 2.749,2.979 5.601,4.467 8.596,4.481 2.571,0.107 4.997,-0.354 7.301,-1.399 l 0.017,-0.018 c 3.121,-1.293 4.769,-3.951 4.928,-7.99 0.122,-3.456 -0.778,-6.397 -2.729,-8.845 -2.037,-2.658 -4.712,-4.163 -8.027,-4.499 -0.619,-0.054 -1.241,-0.09 -1.824,-0.108 l 0.105,-1.822 9.711,1.149 c 1.081,0.126 2.021,-0.141 2.836,-0.832 0.795,-0.673 1.24,-1.56 1.293,-2.64 0.071,-1.081 -0.266,-2.058 -0.991,-2.924 -0.728,-0.871 -1.614,-1.366 -2.693,-1.49 l -13.63,-1.613 z"
           id="path757" />
        <path
           inkscape:connector-curvature="0"
           style="fill:none;stroke:#e7320e;stroke-width:1.77180004;stroke-linecap:round;stroke-linejoin:round;stroke-miterlimit:10"
           d="m 655.393,615.594 13.627,1.613 c 1.079,0.124 1.966,0.619 2.693,1.49 0.726,0.866 1.062,1.843 0.991,2.924 -0.053,1.08 -0.498,1.967 -1.293,2.64 -0.815,0.691 -1.755,0.958 -2.836,0.832 l -9.711,-1.149 -0.105,1.822 c 0.583,0.019 1.205,0.055 1.824,0.108 3.315,0.336 5.99,1.841 8.027,4.499 1.951,2.447 2.852,5.389 2.729,8.845 -0.159,4.039 -1.807,6.697 -4.928,7.99 l -0.017,0.018 c -2.304,1.046 -4.729,1.507 -7.301,1.399 -2.995,-0.015 -5.847,-1.503 -8.596,-4.481 -0.778,-0.815 -1.168,-1.771 -1.151,-2.854 0.019,-1.097 0.392,-2.002 1.151,-2.728 0.765,-0.727 1.701,-1.046 2.785,-0.975 1.079,0.053 2,0.514 2.763,1.348 0.938,1.027 1.896,1.61 2.871,1.77 1.363,0.038 2.693,-0.21 3.951,-0.761 0.407,-0.302 0.619,-0.815 0.638,-1.522 0.056,-1.33 -0.265,-2.449 -0.938,-3.385 l -0.019,-0.019 c -0.566,-0.726 -1.312,-1.154 -2.251,-1.241 -1.7,-0.157 -3.278,-0.106 -4.714,0.195 -0.832,0.178 -1.631,0.071 -2.409,-0.302 -0.798,-0.373 -1.436,-0.922 -1.896,-1.668 -0.444,-0.742 -0.656,-1.539 -0.604,-2.407 l 0.587,-10.545 c 0.069,-1.08 0.494,-1.968 1.293,-2.641 0.818,-0.673 1.758,-0.937 2.839,-0.815 z"
           id="path759" />
        <path
           inkscape:connector-curvature="0"
           style="fill:none;stroke:#403c3b;stroke-width:2.79979992;stroke-linecap:round;stroke-linejoin:round;stroke-miterlimit:10"
           d="m 646.604,601.186 c 3.88,2.182 5.617,4.999 5.172,8.455"
           id="path761" />
        <path
           inkscape:connector-curvature="0"
           style="fill:#115dab"
           d="m 711.886,559.97 c -0.779,-5.334 -2.463,-10.262 -5.07,-14.814 -2.604,-4.574 -5.915,-8.418 -9.975,-11.556 -4.201,-3.223 -8.86,-5.458 -14.019,-6.679 -5.121,-1.224 -10.294,-1.329 -15.486,-0.32 -5.016,0.975 -9.729,2.924 -14.125,5.829 -4.375,2.891 -8.098,6.557 -11.162,10.971 -3.173,4.536 -5.426,9.55 -6.718,15.028 -1.312,5.511 -1.56,11.003 -0.763,16.497 0.763,5.297 2.446,10.223 5.052,14.779 2.604,4.588 5.938,8.453 9.996,11.589 4.182,3.226 8.841,5.441 13.979,6.663 5.158,1.223 10.333,1.348 15.525,0.336 5.016,-0.99 9.729,-2.941 14.106,-5.865 9.269,-6.149 15.24,-14.814 17.898,-26.013 1.292,-5.477 1.559,-10.972 0.762,-16.445"
           id="path763" />
        <path
           inkscape:connector-curvature="0"
           style="fill:none;stroke:#043889;stroke-width:5.671;stroke-miterlimit:10"
           d="m 706.815,545.155 c -2.602,-4.574 -5.915,-8.418 -9.975,-11.556 -4.201,-3.223 -8.86,-5.458 -14.019,-6.679 -5.121,-1.224 -10.294,-1.329 -15.486,-0.32 -5.016,0.975 -9.729,2.924 -14.125,5.829 -4.375,2.891 -8.098,6.557 -11.162,10.971 -3.173,4.536 -5.426,9.55 -6.718,15.028 -1.312,5.511 -1.56,11.003 -0.763,16.497 0.763,5.297 2.446,10.225 5.052,14.779 2.604,4.588 5.938,8.453 9.994,11.589 4.184,3.226 8.843,5.441 13.98,6.663 5.158,1.223 10.333,1.348 15.525,0.336 5.016,-0.99 9.729,-2.941 14.106,-5.863 9.269,-6.151 15.24,-14.816 17.898,-26.015 1.291,-5.477 1.558,-10.972 0.763,-16.445 -0.779,-5.333 -2.462,-10.261 -5.07,-14.814 z"
           id="path765" />
        <path
           inkscape:connector-curvature="0"
           style="fill:#0e5cab"
           d="m 711.886,559.97 c -0.779,-5.334 -2.463,-10.262 -5.07,-14.814 -2.604,-4.574 -5.915,-8.418 -9.975,-11.556 -4.201,-3.223 -8.86,-5.458 -14.019,-6.679 -5.121,-1.224 -10.294,-1.329 -15.486,-0.32 -5.016,0.975 -9.729,2.924 -14.125,5.829 -4.375,2.891 -8.098,6.557 -11.162,10.971 -3.173,4.536 -5.426,9.55 -6.718,15.028 -1.312,5.511 -1.56,11.003 -0.763,16.497 0.763,5.297 2.446,10.223 5.052,14.779 2.604,4.588 5.938,8.453 9.996,11.589 4.182,3.226 8.841,5.441 13.979,6.663 5.158,1.223 10.333,1.348 15.525,0.336 5.016,-0.99 9.729,-2.941 14.106,-5.865 9.269,-6.149 15.24,-14.814 17.898,-26.013 1.292,-5.477 1.559,-10.972 0.762,-16.445"
           id="path767" />
        <path
           inkscape:connector-curvature="0"
           style="fill:#e84341"
           d="m 701.751,584.865 c 0.317,-2.073 -0.108,-3.773 -1.261,-5.103 -0.938,-1.081 -2.585,-2.056 -4.909,-2.924 -0.973,-0.337 -3.472,-1.062 -7.458,-2.18 -3.563,-0.975 -6.487,-1.949 -8.772,-2.889 -10.614,-4.376 -19.44,-6.256 -26.439,-5.615 -6.593,0.583 -10.208,3.188 -10.862,7.814 -0.444,3.154 0.175,6.61 1.859,10.382 1.631,3.599 4.021,7.055 7.194,10.369 3.21,3.368 6.804,6.149 10.792,8.326 4.255,2.341 8.489,3.758 12.724,4.237 7.285,0.834 13.664,-1.56 19.122,-7.16 2.161,-2.249 3.988,-4.839 5.458,-7.726 1.31,-2.639 2.16,-5.137 2.552,-7.531"
           id="path769" />
        <path
           inkscape:connector-curvature="0"
           style="fill:#1f1e1d"
           d="m 691.934,578.665 c -1.649,-0.516 -3.918,-1.029 -6.789,-1.541 -1.666,-0.304 -4.253,-0.746 -7.762,-1.329 -7.992,-1.419 -13.307,-2.234 -15.912,-2.465 -8.029,-0.691 -12.264,0.354 -12.672,3.103 -0.265,1.647 0.159,3.739 1.276,6.237 1.15,2.587 2.836,5.121 5.014,7.618 5.441,6.115 11.857,9.731 19.28,10.828 6.219,0.94 11.731,-0.673 16.552,-4.838 1.933,-1.665 3.545,-3.58 4.821,-5.741 1.188,-1.967 1.896,-3.811 2.145,-5.529 0.44,-2.818 -1.541,-4.944 -5.953,-6.343"
           id="path771" />
        <path
           inkscape:connector-curvature="0"
           style="fill:#0e5cab"
           d="m 670.365,584.513 c 13.45,3.97 24.773,4.626 33.971,1.968 l 4.433,-30.694 -56.283,-1.539 c -0.656,0.564 -4.732,6.094 -12.229,16.604 9.074,5.88 19.105,10.435 30.108,13.661"
           id="path773" />
        <path
           inkscape:connector-curvature="0"
           style="fill:#ffffff"
           d="m 680.802,553.501 c -2.319,-2.074 -5.172,-3.03 -8.559,-2.888 -3.4,0.125 -6.343,1.33 -8.808,3.597 -2.461,2.268 -3.756,4.926 -3.861,7.99 -0.09,3.066 1.027,5.619 3.366,7.692 2.32,2.055 5.177,3.014 8.561,2.87 3.4,-0.141 6.343,-1.346 8.822,-3.631 2.465,-2.253 3.741,-4.909 3.828,-7.976 0.107,-3.065 -1.008,-5.618 -3.349,-7.654"
           id="path775" />
        <path
           inkscape:connector-curvature="0"
           style="fill:#ffffff"
           d="m 704.089,558.143 c -2.446,-1.47 -4.928,-1.809 -7.462,-1.009 -2.534,0.832 -4.358,2.534 -5.509,5.14 -1.136,2.604 -1.243,5.35 -0.302,8.204 0.92,2.887 2.604,5.068 5.051,6.522 2.426,1.47 4.907,1.806 7.441,1.009 2.516,-0.797 4.36,-2.518 5.511,-5.121 1.117,-2.605 1.224,-5.353 0.302,-8.241 -0.903,-2.887 -2.588,-5.05 -5.032,-6.504"
           id="path777" />
        <path
           inkscape:connector-curvature="0"
           style="fill:#1f1e1d"
           d="m 681.265,561.601 c -0.709,-1.631 -1.861,-2.748 -3.474,-3.352 -1.631,-0.602 -3.242,-0.512 -4.82,0.251 -1.56,0.795 -2.64,2.036 -3.26,3.719 -0.62,1.702 -0.568,3.368 0.124,4.98 0.708,1.629 1.878,2.746 3.491,3.331 1.612,0.622 3.205,0.53 4.782,-0.23 1.578,-0.76 2.661,-1.985 3.263,-3.702 0.619,-1.684 0.585,-3.35 -0.106,-4.997"
           id="path779" />
        <path
           inkscape:connector-curvature="0"
           style="fill:#1f1e1d"
           d="m 705.983,572.479 c 0.622,-1.824 0.64,-3.562 0.055,-5.246 -0.585,-1.682 -1.612,-2.817 -3.048,-3.419 -1.453,-0.585 -2.907,-0.444 -4.377,0.442 -1.454,0.869 -2.5,2.217 -3.138,4.039 -0.62,1.827 -0.639,3.564 -0.054,5.229 0.584,1.683 1.615,2.817 3.049,3.401 1.472,0.585 2.923,0.462 4.377,-0.406 1.472,-0.867 2.516,-2.214 3.136,-4.04"
           id="path781" />
        <path
           inkscape:connector-curvature="0"
           style="fill:#eb6f9a"
           d="m 689.628,568.545 c -2.977,-0.708 -5.775,-0.193 -8.397,1.527 -2.624,1.734 -4.307,4.179 -5.07,7.335 -0.744,3.152 -0.335,6.097 1.223,8.845 1.578,2.709 3.848,4.426 6.824,5.136 2.958,0.691 5.758,0.179 8.397,-1.542 2.624,-1.734 4.308,-4.184 5.05,-7.335 0.763,-3.154 0.355,-6.096 -1.204,-8.843 -1.596,-2.711 -3.865,-4.43 -6.823,-5.123"
           id="path783" />
        <path
           inkscape:connector-curvature="0"
           style="fill:#f8ec00"
           d="m 714.986,551.588 c -0.797,-2.394 -1.967,-4.006 -3.509,-4.821 h -0.019 c -19.031,-10.243 -40.545,-15.01 -64.52,-14.301 -1.436,-0.124 -2.748,0.549 -3.953,2.021 -0.673,0.815 -1.346,1.719 -2.002,2.693 -0.39,0.551 -0.781,1.134 -1.152,1.737 -0.726,2.534 0.106,3.739 2.498,3.612 25.605,-1.256 48.839,4.202 69.661,16.342 2.431,1.294 3.705,0.85 3.864,-1.33 -0.017,-0.868 -0.088,-1.736 -0.213,-2.621 -0.141,-1.1 -0.353,-2.217 -0.655,-3.332"
           id="path785" />
        <path
           inkscape:connector-curvature="0"
           style="fill:none;stroke:#f49d00;stroke-width:2.8355;stroke-linecap:round;stroke-linejoin:round;stroke-miterlimit:10"
           d="m 711.459,546.767 h 0.019 c 1.542,0.815 2.712,2.428 3.509,4.821 0.302,1.115 0.514,2.232 0.656,3.332 0.125,0.885 0.196,1.753 0.213,2.621 -0.159,2.18 -1.436,2.624 -3.864,1.33 -20.822,-12.14 -44.056,-17.598 -69.661,-16.342 -2.392,0.127 -3.224,-1.078 -2.498,-3.612 0.371,-0.604 0.763,-1.187 1.152,-1.737 0.656,-0.975 1.329,-1.878 2.002,-2.693 1.205,-1.472 2.516,-2.145 3.953,-2.021 23.974,-0.709 45.488,4.057 64.519,14.301 z"
           id="path787" />
        <line
           style="fill:none;stroke:#00853a;stroke-width:2.8355;stroke-linecap:round;stroke-linejoin:round;stroke-miterlimit:10"
           x1="635.01099"
           y1="594.685"
           x2="646.604"
           y2="601.18597"
           id="line789" />
        <path
           inkscape:connector-curvature="0"
           style="fill:none;stroke:#00853a;stroke-width:2.79979992;stroke-linecap:round;stroke-linejoin:round;stroke-miterlimit:10"
           d="m 646.604,601.186 c 3.88,2.182 5.617,4.999 5.172,8.455"
           id="path791" />
        <path
           inkscape:connector-curvature="0"
           style="fill:#f8fcfd"
           d="m 754.594,680.754 c -8.595,-4.377 -17.472,-5.087 -26.671,-2.124 -9.197,2.958 -15.982,8.752 -20.378,17.348 -4.396,8.594 -5.105,17.473 -2.127,26.672 2.978,9.194 8.753,16 17.349,20.378 8.594,4.394 17.489,5.103 26.669,2.126 9.199,-2.958 15.984,-8.736 20.38,-17.332 4.396,-8.593 5.104,-17.49 2.127,-26.688 -2.961,-9.197 -8.755,-15.983 -17.349,-20.38"
           id="path793" />
        <path
           inkscape:connector-curvature="0"
           style="fill:none;stroke:#839ba0;stroke-width:1.77180004;stroke-linecap:round;stroke-linejoin:round;stroke-miterlimit:10"
           d="m 745.094,699.327 5.192,-10.155 m 0.178,-0.336 0.159,-0.318 m 0,0 -0.337,0.654 m 0,0 0.178,-0.336 m 0,0 0.159,-0.318 m 12.316,-1.914 -12.316,1.914 m 14.622,27.521 h 0.034 l 8.47,-4.503 m -22.115,3.723 -0.39,-0.763 m 0,0 0.39,0.744 v 0.019 m 0,0 13.611,0.78 m -10.28,26.863 -12.705,-2.568 m -2.037,-13.699 -0.019,-0.019 m 0,0 0.019,0.019 m 0,0 0,0 m 2.037,13.699 -11.04,5.812 m 11.04,-5.812 -2.037,-13.699 m 0,0 11.411,-11.376 m 16.074,16.551 -2.463,-15.771 m -21.212,-15.154 0.247,-0.016 0.813,-1.542 m 0.001,0 -0.777,1.523 m -0.284,0.035 0.283,-0.034 m 0,0 0.141,0.246 m 0,0 -0.105,-0.212 0.742,-1.558 m -16.091,3.951 -0.617,0.071 v 0.017 m 0,0 0.617,-0.088 m 0,0 15.03,-2.394 m -24.262,-8.078 -0.019,-0.035 -1.312,-9.499 m -12.899,16.765 14.23,-7.231 m 6.062,26.475 0,0 m 0,0 h 0.017 m 0,0 h -0.017 m -10.563,18.712 -1.716,-12.351 m 0,10e-4 12.279,-6.361 m -12.279,6.361 -9.536,-8.79 m 24.368,-13.487 -8.614,-10.561 m 6.061,26.476 2.553,-15.915 m 11.818,23.25 -14.354,-7.335 m 25.394,-4.785 -6.787,-13.399 m 0.514,-23.691 5.652,11.111"
           id="path795" />
        <path
           inkscape:connector-curvature="0"
           style="fill:#0e0b0c"
           d="m 754.594,680.754 c -3.174,-1.61 -6.379,-2.728 -9.623,-3.348 l 5.652,11.111 12.316,-1.914 c -2.391,-2.267 -5.174,-4.216 -8.345,-5.849"
           id="path797" />
        <path
           inkscape:connector-curvature="0"
           style="fill:#0e0b0c"
           d="m 767.652,731.545 c 0.763,-1.188 1.49,-2.431 2.163,-3.724 2.71,-5.316 4.022,-10.738 3.934,-16.285 l -8.47,4.503 h -0.034 l 2.407,15.506 z"
           id="path799" />
        <path
           inkscape:connector-curvature="0"
           style="fill:#0e0b0c"
           d="m 749.436,745.153 c 1.949,-0.62 3.795,-1.382 5.529,-2.251 l -12.705,-2.568 -11.042,5.812 c 5.938,1.364 12.016,1.026 18.218,-0.993"
           id="path801" />
        <polygon
           style="fill:#0e0b0c"
           points="728.386,703.366 725.833,719.281 740.223,726.635 751.634,715.259 744.316,700.851 "
           id="polygon803" />
        <path
           inkscape:connector-curvature="0"
           style="fill:#0e0b0c"
           d="m 719.753,692.771 -1.312,-9.499 c -4.551,3.154 -8.186,7.389 -10.896,12.706 -0.675,1.293 -1.258,2.605 -1.737,3.933 l 13.964,-7.104 -0.019,-0.036 z"
           id="path805" />
        <path
           inkscape:connector-curvature="0"
           style="fill:#0e0b0c"
           d="m 705.418,722.649 c 2.003,6.218 5.279,11.321 9.852,15.344 l -1.716,-12.351 -9.536,-8.79 c 0.301,1.931 0.781,3.865 1.4,5.797"
           id="path807" />
        <path
           inkscape:connector-curvature="0"
           style="fill:none;stroke:#839ba0;stroke-width:3.36730003;stroke-linecap:round;stroke-linejoin:round;stroke-miterlimit:10"
           d="m 771.961,701.152 c -2.979,-9.197 -8.755,-15.986 -17.351,-20.38 -8.596,-4.38 -17.488,-5.105 -26.688,-2.143 -9.197,2.975 -15.982,8.771 -20.378,17.364 -4.379,8.596 -5.087,17.493 -2.108,26.671 2.959,9.197 8.753,15.984 17.347,20.362 8.596,4.394 17.473,5.119 26.669,2.161 9.199,-2.978 15.986,-8.771 20.363,-17.367 4.397,-8.591 5.104,-17.489 2.146,-26.668 z"
           id="path809" />
      </g>
    </g>
  </g>
</svg>
