<?xml version="1.0" encoding="UTF-8" standalone="no"?>
<!-- Created with Inkscape (http://www.inkscape.org/) -->

<svg
   xmlns:dc="http://purl.org/dc/elements/1.1/"
   xmlns:cc="http://creativecommons.org/ns#"
   xmlns:rdf="http://www.w3.org/1999/02/22-rdf-syntax-ns#"
   xmlns:svg="http://www.w3.org/2000/svg"
   xmlns="http://www.w3.org/2000/svg"
   xmlns:sodipodi="http://sodipodi.sourceforge.net/DTD/sodipodi-0.dtd"
   xmlns:inkscape="http://www.inkscape.org/namespaces/inkscape"
   width="160.62605"
   height="176.91058"
   id="svg5696"
   version="1.1"
   inkscape:version="0.48.4 r9939"
   sodipodi:docname="grover4.svg">
  <defs
     id="defs5698">
    <clipPath
       id="SVGID_2_">
      <rect
         height="88.862999"
         width="111.498"
         y="518.96198"
         x="382.04999"
         id="use1087" />
    </clipPath>
    <clipPath
       id="SVGID_4_">
      <rect
         height="41.314999"
         width="49.584999"
         y="525.19397"
         x="389.84698"
         id="use1111" />
    </clipPath>
  </defs>
  <sodipodi:namedview
     id="base"
     pagecolor="#ffffff"
     bordercolor="#666666"
     borderopacity="1.0"
     inkscape:pageopacity="0.0"
     inkscape:pageshadow="2"
     inkscape:zoom="0.77472527"
     inkscape:cx="54.070289"
     inkscape:cy="44.648854"
     inkscape:current-layer="layer1"
     inkscape:document-units="px"
     showgrid="false"
     inkscape:window-width="763"
     inkscape:window-height="591"
     inkscape:window-x="592"
     inkscape:window-y="97"
     inkscape:window-maximized="0"
     fit-margin-top="0"
     fit-margin-left="0"
     fit-margin-right="0"
     fit-margin-bottom="0" />
  <metadata
     id="metadata5701">
    <rdf:RDF>
      <cc:Work
         rdf:about="">
        <dc:format>image/svg+xml</dc:format>
        <dc:type
           rdf:resource="http://purl.org/dc/dcmitype/StillImage" />
        <dc:title></dc:title>
      </cc:Work>
    </rdf:RDF>
  </metadata>
  <g
     id="layer1"
     inkscape:label="Layer 1"
     inkscape:groupmode="layer"
     transform="translate(-263.87301,47.15534)">
    <g
       transform="translate(-568.53192,-86.113293)"
       id="g1103">
      <path
         inkscape:connector-curvature="0"
         style="fill:#043889"
         d="m 943.321,135.884 c -4.716,-7.67 -10.77,-14.003 -18.16,-19.141 -7.88,-5.418 -16.324,-9.5 -25.33,-12.174 l -16.116,16.538 c 2.182,1.618 4.153,3.237 5.981,4.996 7.531,6.686 11.542,15.059 12.245,25.052 0.071,0.844 0.071,1.689 0.212,2.604 0.704,4.714 2.532,9.148 5.417,13.159 0.773,1.196 1.688,2.323 2.675,3.447 1.548,1.549 3.167,2.886 5.136,4.082 3.098,1.831 6.545,2.957 10.135,3.308 3.591,0.352 6.896,-0.141 10.062,-1.478 3.098,-1.267 5.771,-3.167 7.883,-5.841 0.141,-0.071 0.141,-0.141 0.283,-0.211 2.322,-3.025 3.727,-6.544 4.291,-10.767 0.144,-0.914 0.279,-1.9 0.351,-2.956 0,-0.704 0.072,-1.477 0,-2.322 0.072,-2.604 -0.207,-5.348 -0.774,-7.952 -0.845,-3.729 -2.253,-7.177 -4.291,-10.344"
         id="path1105" />
      <path
         inkscape:connector-curvature="0"
         style="fill:none;stroke:#043889;stroke-width:2.18160009;stroke-linecap:round;stroke-linejoin:round"
         d="m 925.161,116.743 c -7.88,-5.417 -16.324,-9.5 -25.33,-12.173 l -16.116,16.537 c 2.182,1.618 4.153,3.238 5.981,4.997 7.531,6.685 11.542,15.059 12.245,25.051 0.071,0.846 0.071,1.689 0.212,2.605 0.704,4.714 2.532,9.147 5.417,13.158 0.773,1.196 1.688,2.322 2.675,3.447 1.548,1.549 3.169,2.886 5.136,4.082 3.098,1.83 6.545,2.956 10.135,3.307 3.591,0.352 6.896,-0.14 10.062,-1.477 3.098,-1.267 5.771,-3.167 7.883,-5.841 0.141,-0.071 0.141,-0.14 0.283,-0.211 2.322,-3.025 3.727,-6.544 4.291,-10.767 0.144,-0.914 0.279,-1.899 0.351,-2.955 0,-0.704 0.072,-1.478 0,-2.322 0.072,-2.604 -0.207,-5.348 -0.774,-7.952 -0.844,-3.729 -2.251,-7.178 -4.289,-10.345 -4.718,-7.67 -10.771,-14.003 -18.162,-19.141"
         id="path1107" />
      <path
         inkscape:connector-curvature="0"
         style="fill:#0e5cab"
         d="m 908.205,110.199 c -1.126,-0.281 -2.182,-0.633 -3.448,-0.985 -0.422,0.07 -0.844,0.141 -1.196,0.141 -0.635,0.563 -1.057,1.055 -1.407,1.547 -1.759,2.535 -0.564,4.645 3.729,6.193 0.071,-0.07 1.054,0.14 2.954,0.633 2.253,0.704 3.59,1.055 4.153,1.266 5.629,1.197 10.907,1.549 15.904,0.986 0.279,0 0.632,-0.071 0.913,-0.141 0.703,-0.07 1.409,-0.211 2.182,-0.352 0.774,-0.212 1.69,-0.423 2.463,-0.774 0.353,-0.211 0.774,-0.352 1.125,-0.563 0.704,-0.352 1.409,-0.844 2.112,-1.195 0.704,-0.494 1.479,-0.916 2.253,-1.408 0.141,-0.141 0.351,-0.282 0.562,-0.422 0.282,-0.21 0.633,-0.422 0.916,-0.633 0.703,-0.563 1.404,-1.126 2.11,-1.76 0.703,-0.563 1.408,-1.267 1.969,-1.97 0.565,-0.845 1.197,-1.76 1.69,-2.604 0.489,-0.845 0.987,-1.759 1.338,-2.534 0.42,-0.985 0.842,-1.9 1.264,-2.885 0.283,-0.633 0.493,-1.267 0.776,-1.97 0.069,-0.212 0.139,-0.493 0.211,-0.705 0.212,-0.773 0.493,-1.478 0.703,-2.322 0.281,-0.843 0.422,-1.619 0.564,-2.463 0,-0.844 0.139,-1.759 0.139,-2.464 v -2.392 c -0.069,-0.844 -0.139,-1.689 -0.139,-2.393 -0.143,-2.533 -0.424,-5.066 -0.986,-7.669 4.926,-2.886 6.825,-5.842 5.77,-8.938 -0.422,-0.985 -1.057,-1.9 -2.041,-2.674 -0.701,-0.633 -1.338,-0.985 -1.688,-1.056 0.351,0 0.773,-0.282 1.338,-0.915 0.774,-0.705 1.407,-1.548 1.898,-2.534 1.339,-2.533 0.917,-4.574 -1.407,-5.981 -3.235,-1.9 -5.981,-1.478 -8.304,1.478 -1.617,2.111 -2.532,4.434 -2.673,6.756 -0.353,-0.352 -0.703,-1.266 -0.985,-2.674 -0.353,-2.322 -0.562,-3.589 -0.634,-4.012 -0.844,-3.237 -2.885,-4.292 -5.981,-2.956 -2.251,0.986 -2.534,3.801 -0.632,8.586 0.701,1.899 1.547,3.659 2.673,5.207 1.125,1.688 2.111,2.675 2.954,3.096 -1.477,0.704 -2.673,1.338 -3.728,1.971 -1.759,1.267 -2.394,2.815 -1.759,4.646 1.056,2.814 2.463,3.94 4.15,3.236 0.422,-0.21 1.126,-0.633 2.112,-1.267 0.913,-0.563 1.548,-0.915 1.97,-0.985 0.984,4.362 1.478,8.444 1.337,12.174 v 0.351 c 0,0.213 -0.071,0.354 -0.071,0.565 0,0.352 -0.069,0.704 -0.212,1.055 0,0.141 -0.069,0.282 -0.069,0.353 -1.125,4.222 -3.025,7.952 -5.7,11.047 0,0 -0.069,0 -0.069,0.07 -0.281,0.353 -0.634,0.634 -0.984,0.915 -0.213,0.141 -0.284,0.282 -0.354,0.352 -2.394,1.829 -4.994,3.167 -7.953,4.152 -0.069,0 -0.139,0 -0.21,0.07 -1.266,0.211 -2.673,0.352 -4.081,0.422 -3.87,0.142 -9.711,-0.704 -17.521,-2.603 h 0.353 c -0.072,0.002 -0.214,0.002 -0.353,-0.069"
         id="path1109" />
      <path
         inkscape:connector-curvature="0"
         style="fill:#043889"
         d="m 908.558,110.27 h -0.353 c 7.811,1.899 13.651,2.744 17.521,2.603 1.408,-0.07 2.815,-0.21 4.081,-0.422 0.071,-0.07 0.141,-0.07 0.21,-0.07 2.959,-0.985 5.56,-2.323 7.953,-4.151 0.069,-0.07 0.141,-0.211 0.354,-0.353 0.351,-0.282 0.703,-0.562 0.984,-0.915 0,-0.071 0.069,-0.071 0.069,-0.071 2.675,-3.096 4.575,-6.826 5.7,-11.047 0,-0.071 0.069,-0.212 0.069,-0.353 0.143,-0.351 0.212,-0.704 0.212,-1.055 0,-0.213 0.071,-0.352 0.071,-0.565 V 93.52 c 0.141,-3.73 -0.353,-7.812 -1.337,-12.174 -0.422,0.07 -1.057,0.422 -1.972,0.985 -0.984,0.633 -1.688,1.056 -2.11,1.267 -1.688,0.704 -3.095,-0.422 -4.15,-3.236 -0.635,-1.83 0,-3.378 1.759,-4.645 1.055,-0.633 2.251,-1.267 3.728,-1.971 -0.843,-0.421 -1.829,-1.408 -2.954,-3.096 -1.126,-1.548 -1.972,-3.308 -2.673,-5.207 -1.902,-4.785 -1.619,-7.6 0.632,-8.586 3.097,-1.337 5.138,-0.282 5.981,2.956 0.071,0.423 0.281,1.689 0.634,4.012 0.282,1.408 0.633,2.322 0.985,2.674 0.141,-2.321 1.056,-4.645 2.673,-6.756 2.322,-2.955 5.068,-3.378 8.304,-1.478 2.324,1.407 2.746,3.448 1.407,5.981 -0.491,0.986 -1.124,1.829 -1.9,2.534 -0.562,0.632 -0.985,0.915 -1.336,0.915 0.351,0.07 0.987,0.423 1.688,1.056 0.984,0.773 1.619,1.688 2.041,2.674 1.056,3.096 -0.846,6.051 -5.77,8.938 0.562,2.603 0.844,5.137 0.986,7.67 0,0.704 0.069,1.548 0.139,2.393 v 2.391 c 0,0.705 -0.139,1.62 -0.139,2.463 -0.143,0.845 -0.283,1.62 -0.564,2.463 -0.21,0.845 -0.491,1.549 -0.703,2.322 -0.072,0.211 -0.142,0.493 -0.211,0.704 -0.283,0.704 -0.493,1.336 -0.776,1.97 -0.422,0.984 -0.844,1.899 -1.264,2.885 -0.351,0.775 -0.849,1.689 -1.338,2.534 -0.493,0.844 -1.125,1.759 -1.69,2.603 -0.561,0.704 -1.266,1.407 -1.969,1.971 -0.706,0.632 -1.409,1.196 -2.11,1.759 -0.283,0.211 -0.636,0.422 -0.916,0.633 -0.212,0.141 -0.422,0.282 -0.562,0.422 -0.774,0.492 -1.549,0.915 -2.253,1.408 -0.703,0.352 -1.408,0.843 -2.112,1.195 -0.351,0.211 -0.772,0.353 -1.125,0.563 -0.774,0.352 -1.688,0.562 -2.463,0.774 -0.772,0.14 -1.479,0.282 -2.182,0.352 -0.281,0.07 -0.634,0.141 -0.913,0.141 -4.997,0.563 -10.275,0.21 -15.904,-0.986 -0.563,-0.211 -1.9,-0.563 -4.153,-1.267 -0.139,1.125 -0.21,1.829 -0.279,2.111 l 1.335,0.562 2.675,0.563 c 5.84,1.338 11.399,1.689 16.539,1.056 0.139,0 0.351,0 0.561,-0.07 0.844,-0.069 1.619,-0.211 2.394,-0.422 0.916,-0.21 1.758,-0.422 2.744,-0.702 0.985,-0.353 1.898,-0.845 2.815,-1.409 0.773,-0.422 1.688,-0.914 2.463,-1.406 0.702,-0.493 1.477,-0.986 2.251,-1.549 0.491,-0.281 0.916,-0.562 1.267,-0.985 0.283,-0.141 0.422,-0.352 0.703,-0.493 0.283,-0.353 0.562,-0.563 0.844,-0.844 0.706,-0.775 1.407,-1.408 2.043,-2.252 0.632,-0.774 1.194,-1.549 1.688,-2.463 0.491,-0.774 0.984,-1.688 1.337,-2.534 0.422,-0.844 0.775,-1.689 1.126,-2.463 0.422,-0.915 0.774,-1.83 1.127,-2.744 0.562,-1.338 0.982,-2.746 1.336,-4.223 0.069,-0.774 0.283,-1.618 0.353,-2.534 0,-0.773 0.069,-1.547 0.141,-2.392 -0.071,-0.07 0,-0.07 -0.071,-0.141 0.071,-3.449 -0.21,-7.107 -0.775,-10.978 5.139,-3.448 6.897,-6.966 5.279,-10.696 -0.351,-1.126 -1.126,-2.182 -2.112,-3.238 0.562,-0.702 1.127,-1.407 1.549,-2.25 1.97,-3.941 1.267,-6.827 -2.183,-8.796 -4.29,-2.464 -7.95,-1.831 -10.976,2.04 -0.212,0.281 -0.422,0.563 -0.705,0.915 v -0.07 c -0.561,-2.392 -1.619,-3.87 -3.166,-4.644 -1.407,-0.705 -3.236,-0.705 -5.561,0.21 -3.657,1.126 -4.222,4.926 -1.828,11.329 0.774,2.041 1.759,3.941 2.885,5.629 0.422,0.493 0.774,0.986 1.127,1.408 -0.493,0.211 -0.844,0.422 -1.196,0.704 -2.815,1.83 -3.66,4.292 -2.605,7.108 0.634,1.899 1.479,3.167 2.463,3.871 1.268,1.055 2.746,1.267 4.363,0.562 0.353,-0.14 1.058,-0.423 1.971,-0.986 0.565,3.59 0.775,6.756 0.565,9.852 -1.128,4.785 -3.31,8.868 -6.404,12.035 v -0.072 c -2.253,1.759 -4.789,3.097 -7.672,4.081 -1.126,0.212 -2.394,0.353 -3.659,0.423 -3.591,0.141 -9.36,-0.704 -17.452,-2.322 l 0.071,1.688 c 0.136,0.075 0.278,0.075 0.35,0.075"
         id="path1111" />
      <path
         inkscape:connector-curvature="0"
         style="fill:#043889"
         d="m 938.04,156.784 v -0.07 c 5.844,-10.063 10.839,-16.608 14.991,-19.774 2.251,-1.759 4.361,-2.463 6.192,-2.252 0.913,0.072 1.688,0.423 2.463,0.845 1.266,0.986 2.32,2.041 3.307,3.308 0.985,1.266 1.9,2.604 2.815,4.012 0.842,1.477 1.688,3.167 2.463,4.714 0.141,0.422 0.351,0.774 0.422,1.056 0.069,-0.071 0.141,-0.142 0.21,-0.212 v -0.069 c 0.777,-1.267 1.55,-2.604 2.394,-3.801 1.619,-2.463 3.729,-4.784 6.545,-7.037 0.984,-0.844 1.97,-1.408 3.025,-1.899 h 0.069 c 0.353,-0.141 0.706,-0.211 0.987,-0.352 3.307,-1.056 5.841,-0.211 7.668,2.603 l 0.071,0.071 c 0.071,0.07 0.071,0.141 0.143,0.211 v 0.07 c 0,0 0.069,0 0,0.071 1.406,2.534 1.616,5.701 0.561,9.57 -1.054,3.8 -2.392,7.248 -4.011,10.415 -1.547,3.097 -3.376,6.123 -5.348,9.008 h -0.071 c -1.897,2.463 -4.081,4.926 -6.473,7.248 -0.143,0.07 -0.281,0.142 -0.491,0.282 -0.141,0 -0.354,0 -0.565,-0.07 -0.562,-0.141 -1.266,-0.282 -1.97,-0.563 -2.956,-1.196 -5.35,-3.096 -7.388,-5.489 -1.972,-2.323 -3.379,-4.996 -4.363,-7.812 -0.21,-0.562 -0.422,-1.125 -0.562,-1.688 -0.423,-1.268 -0.775,-2.604 -1.197,-4.012 -0.493,-2.322 -1.196,-3.87 -1.97,-4.856 -0.634,-0.562 -1.266,-0.704 -2.04,-0.351 -2.182,1.056 -4.926,4.715 -8.307,10.978 -0.351,0.492 -0.561,0.914 -0.844,1.336 -0.351,0.352 -0.493,0.704 -0.701,1.126 l -8.59,-5.771 0.565,-0.846 z m 2.394,0.211 4.997,3.377 c 3.801,-7.178 6.967,-11.259 9.568,-12.385 1.762,-0.773 3.237,-0.492 4.506,0.845 1.056,1.126 1.972,3.026 2.532,5.771 0.562,1.971 0.984,3.73 1.55,5.348 0.562,2.252 1.547,4.363 3.025,6.122 1.618,1.971 3.447,3.589 5.488,4.926 0.915,0.494 1.76,0.985 2.675,1.336 0.21,0.071 0.424,0.142 0.562,0.142 2.182,-2.112 4.151,-4.223 5.842,-6.475 1.969,-2.814 3.8,-5.699 5.348,-8.725 1.476,-3.097 2.813,-6.334 3.8,-9.923 0.775,-3.377 0.706,-6.122 -0.424,-8.233 -0.069,-0.071 -0.139,-0.14 -0.139,-0.14 -1.199,-1.831 -2.885,-2.393 -5.14,-1.69 l -0.069,0.071 c -0.21,0.07 -0.562,0.21 -0.844,0.21 -0.916,0.422 -1.758,0.985 -2.532,1.618 -2.534,2.042 -4.575,4.223 -6.125,6.545 -0.772,1.196 -1.545,2.393 -2.251,3.588 v 0.141 c -0.281,0.493 -0.632,0.986 -0.844,1.478 -0.071,0.071 -0.071,0.141 -0.141,0.211 -0.491,1.267 -0.916,2.604 -1.126,3.94 v 0.071 l -0.353,2.112 c -0.281,-0.563 -0.351,-1.056 -0.562,-1.62 -0.281,-1.478 -0.422,-3.026 -0.281,-4.644 l -0.984,-2.111 c -0.563,-0.984 -0.985,-1.971 -1.55,-2.885 -0.772,-1.479 -1.548,-2.886 -2.532,-4.293 -0.772,-1.408 -1.831,-2.604 -2.954,-3.519 -0.634,-0.562 -1.269,-0.915 -1.972,-1.266 -0.141,-0.07 -0.351,-0.07 -0.491,-0.07 -1.338,-0.141 -2.887,0.422 -4.716,1.83 -3.871,2.886 -8.516,9.008 -13.863,18.297"
         id="path1113" />
      <path
         inkscape:connector-curvature="0"
         style="fill:#0e5cab"
         d="m 945.431,160.373 -4.997,-3.377 c 5.348,-9.29 9.992,-15.411 13.864,-18.296 1.829,-1.408 3.378,-1.971 4.716,-1.83 0.141,0 0.351,0 0.491,0.07 0.703,0.352 1.338,0.704 1.972,1.266 1.123,0.916 2.182,2.111 2.954,3.519 0.984,1.407 1.76,2.814 2.532,4.293 0.564,0.915 0.986,1.901 1.55,2.885 l 0.984,2.111 c -0.141,1.618 0,3.166 0.281,4.644 0.212,0.563 0.281,1.056 0.562,1.62 l 0.353,-2.112 v -0.071 c 0.21,-1.336 0.635,-2.674 1.126,-3.94 0.069,-0.07 0.069,-0.14 0.141,-0.21 0.212,-0.493 0.562,-0.985 0.844,-1.479 v -0.141 c 0.706,-1.195 1.479,-2.392 2.251,-3.588 1.55,-2.322 3.591,-4.504 6.125,-6.545 0.774,-0.633 1.616,-1.196 2.532,-1.618 0.281,0 0.634,-0.141 0.844,-0.21 l 0.069,-0.071 c 2.253,-0.703 3.94,-0.141 5.14,1.69 0,0 0.069,0.069 0.139,0.14 1.13,2.111 1.199,4.856 0.424,8.233 -0.986,3.589 -2.324,6.826 -3.8,9.923 -1.548,3.025 -3.379,5.91 -5.348,8.725 -1.69,2.253 -3.66,4.363 -5.842,6.475 -0.139,0 -0.353,-0.071 -0.562,-0.142 -0.915,-0.351 -1.76,-0.842 -2.675,-1.336 -2.041,-1.337 -3.87,-2.956 -5.488,-4.926 -1.479,-1.759 -2.463,-3.87 -3.025,-6.122 -0.565,-1.618 -0.987,-3.377 -1.55,-5.348 -0.561,-2.745 -1.477,-4.644 -2.532,-5.771 -1.269,-1.337 -2.744,-1.618 -4.506,-0.845 -2.603,1.125 -5.769,5.206 -9.569,12.384"
         id="path1115" />
      <path
         inkscape:connector-curvature="0"
         style="fill:#009944"
         d="m 991.592,137.854 c 0,0 0,0.071 0.071,0.071 l -0.071,-0.071 z"
         id="path1117" />
      <path
         inkscape:connector-curvature="0"
         style="fill:#043889"
         d="m 931.005,160.443 0.562,-0.282 c 0.353,0.633 0.634,1.126 0.844,1.759 0,0.141 0.141,0.353 0.281,0.563 0.284,1.619 0.422,2.675 0.422,3.096 0.775,3.378 0.354,7.671 -1.054,12.877 -1.547,5.35 -5.138,9.501 -10.907,12.597 -5.772,3.095 -12.104,3.729 -18.931,2.04 h -0.069 l -4.224,-0.984 c -0.492,3.025 -1.407,5.91 -2.676,8.726 -2.25,4.996 -5.348,9.288 -9.427,12.947 v 0.071 c -0.071,0 -0.071,0.071 -0.071,0.071 l -0.069,0.069 c -0.353,0.212 -0.773,0.423 -1.128,0.634 v 0.071 c -0.353,0.07 -0.703,0.281 -0.984,0.351 0,0.072 0,0.072 -0.069,0.072 -3.169,1.408 -5.911,0.843 -7.88,-1.831 -0.145,-0.069 -0.214,-0.141 -0.214,-0.281 -1.688,-2.323 -2.18,-5.559 -1.548,-9.571 0.634,-3.8 1.548,-7.389 2.815,-10.626 1.194,-3.377 2.742,-6.544 4.433,-9.57 1.69,-2.744 3.519,-5.349 5.771,-7.952 0.141,0 0.141,-0.07 0.281,-0.141 1.197,-0.844 2.673,-0.844 4.571,0 4.435,1.9 8.869,3.379 13.443,4.646 h -0.071 c 6.333,1.477 11.049,1.195 14.215,-0.705 3.097,-2.041 4.646,-5.701 4.716,-11.118 v 0.07 c 0,-0.634 0,-1.267 -0.069,-1.97 0,0 0,-0.071 0.069,-0.071 0,-0.563 0,-1.056 -0.069,-1.618 -0.141,-0.493 -0.283,-0.985 -0.354,-1.478 l 7.25,-2.393 0.141,-0.069 z m 0,5.419 v -0.212 c 0,-0.211 -0.141,-1.196 -0.491,-2.744 l -4.573,1.478 c 0.137,1.267 0.277,2.463 0.351,3.589 v 0.07 c -0.214,6.263 -2.112,10.555 -5.844,12.877 -3.517,2.322 -8.795,2.604 -15.831,0.986 -4.716,-1.267 -9.288,-2.815 -13.723,-4.786 -1.057,-0.422 -1.831,-0.492 -2.463,-0.211 -2.11,2.463 -3.939,4.855 -5.419,7.459 v -0.071 c -1.688,2.956 -3.167,6.053 -4.294,9.29 -1.195,3.096 -2.11,6.544 -2.742,10.203 -0.495,3.377 -0.071,6.052 1.266,8.093 0.071,0 0.141,0.142 0.141,0.142 1.336,1.688 3.096,2.04 5.276,1.125 0.354,-0.14 0.565,-0.28 0.847,-0.422 0.351,-0.211 0.562,-0.353 0.913,-0.563 3.801,-3.449 6.757,-7.53 8.798,-12.245 1.406,-2.956 2.322,-6.051 2.815,-9.289 l 0.139,-1.196 6.544,1.619 c 6.335,1.549 12.104,0.915 17.383,-1.9 5.209,-2.745 8.445,-6.544 9.852,-11.33 1.407,-4.714 1.758,-8.795 1.055,-11.962"
         id="path1119" />
      <path
         inkscape:connector-curvature="0"
         style="fill:#0e5cab"
         d="m 931.005,165.65 v 0.212 c 0.703,3.166 0.353,7.248 -1.057,11.962 -1.406,4.786 -4.643,8.585 -9.852,11.33 -5.278,2.814 -11.048,3.449 -17.383,1.899 l -6.544,-1.618 -0.139,1.196 c -0.493,3.237 -1.409,6.333 -2.815,9.289 -2.041,4.714 -4.997,8.797 -8.798,12.245 -0.351,0.21 -0.562,0.352 -0.913,0.563 -0.281,0.141 -0.493,0.282 -0.847,0.421 -2.181,0.915 -3.94,0.563 -5.276,-1.126 0,0 -0.069,-0.14 -0.141,-0.14 -1.337,-2.041 -1.761,-4.715 -1.266,-8.092 0.632,-3.659 1.547,-7.107 2.742,-10.203 1.127,-3.238 2.605,-6.334 4.294,-9.29 v 0.071 c 1.479,-2.604 3.309,-4.997 5.419,-7.46 0.632,-0.281 1.406,-0.211 2.463,0.211 4.435,1.971 9.007,3.519 13.723,4.786 7.036,1.619 12.314,1.336 15.831,-0.985 3.731,-2.323 5.63,-6.615 5.844,-12.878 v -0.071 c -0.073,-1.125 -0.214,-2.322 -0.351,-3.589 l 4.573,-1.478 c 0.352,1.55 0.493,2.534 0.493,2.745"
         id="path1121" />
      <path
         inkscape:connector-curvature="0"
         style="fill:#009944"
         d="m 931.005,160.443 -0.141,0.07 c 0,-0.07 0.072,-0.07 0.141,-0.07"
         id="path1123" />
      <path
         inkscape:connector-curvature="0"
         style="fill:#009944"
         d="M 875.625,213.291"
         id="path1125" />
      <path
         inkscape:connector-curvature="0"
         style="fill:#043889"
         d="m 901.872,46.865 c -4.294,-3.237 -9.079,-5.488 -14.146,-6.825 h -0.068 c -5.351,-1.267 -10.629,-1.408 -16.117,-0.493 -5.348,1.055 -10.273,3.096 -14.777,6.192 -4.363,3.096 -7.953,6.826 -10.907,11.4 -2.956,4.574 -4.928,9.5 -5.981,14.917 -1.057,5.63 -1.197,11.259 -0.142,16.959 1.057,5.63 3.167,10.908 6.123,15.763 2.954,4.645 6.544,8.656 10.907,11.822 4.435,3.238 9.148,5.489 14.284,6.756 5.278,1.337 10.628,1.478 15.976,0.422 5.488,-0.985 10.345,-2.955 14.918,-6.122 4.294,-3.026 7.951,-6.756 10.836,-11.331 2.957,-4.574 4.926,-9.569 5.982,-14.918 1.056,-5.628 1.196,-11.259 0.143,-16.889 -1.057,-5.77 -3.168,-11.047 -6.125,-15.833 -2.885,-4.712 -6.543,-8.653 -10.906,-11.82 m -14.708,-4.714 c 4.854,1.196 9.358,3.377 13.44,6.403 4.152,3.097 7.672,6.827 10.345,11.189 2.954,4.644 4.854,9.711 5.841,15.129 1.056,5.418 0.984,10.767 -0.071,16.044 -0.984,5.207 -2.954,9.992 -5.698,14.285 -2.744,4.292 -6.194,7.882 -10.273,10.697 -4.294,2.955 -8.938,4.926 -14.076,5.91 -5.066,0.916 -10.063,0.775 -15.13,-0.492 -4.926,-1.195 -9.36,-3.307 -13.513,-6.334 -4.08,-3.095 -7.599,-6.825 -10.412,-11.329 -2.816,-4.644 -4.785,-9.569 -5.771,-15.059 -0.986,-5.418 -0.917,-10.766 0.141,-16.114 0.914,-5.138 2.883,-9.852 5.63,-14.146 2.813,-4.362 6.193,-8.021 10.343,-10.906 4.293,-2.956 8.939,-4.855 14.004,-5.77 5.065,-0.915 10.134,-0.774 15.2,0.493"
         id="path1127" />
      <path
         inkscape:connector-curvature="0"
         style="fill:#0e5cab"
         d="m 900.604,48.554 c -4.082,-3.025 -8.586,-5.207 -13.44,-6.403 -5.066,-1.267 -10.135,-1.407 -15.201,-0.493 -5.064,0.915 -9.711,2.814 -14.004,5.77 -4.149,2.886 -7.529,6.545 -10.343,10.908 -2.747,4.292 -4.716,9.008 -5.63,14.146 -1.058,5.347 -1.127,10.696 -0.141,16.114 0.985,5.489 2.954,10.416 5.771,15.06 2.813,4.505 6.332,8.234 10.414,11.329 4.15,3.026 8.585,5.138 13.511,6.334 5.066,1.266 10.063,1.407 15.13,0.492 5.138,-0.984 9.782,-2.956 14.076,-5.911 4.079,-2.814 7.529,-6.403 10.273,-10.696 2.744,-4.293 4.714,-9.078 5.698,-14.285 1.056,-5.278 1.127,-10.626 0.071,-16.044 -0.986,-5.419 -2.887,-10.486 -5.841,-15.131 -2.672,-4.363 -6.191,-8.094 -10.344,-11.19"
         id="path1129" />
      <path
         inkscape:connector-curvature="0"
         style="fill:#ffffff"
         d="m 902.294,55.873 c -2.744,-0.282 -5.066,0.421 -7.109,2.111 -1.897,1.688 -2.883,4.011 -2.883,6.755 0,2.744 1.055,5.278 3.026,7.53 1.899,2.181 4.222,3.518 7.035,3.799 2.744,0.352 5.066,-0.282 7.038,-2.04 1.898,-1.76 2.954,-4.012 2.954,-6.757 0,-2.744 -1.056,-5.277 -2.954,-7.53 -1.971,-2.18 -4.365,-3.447 -7.107,-3.868"
         id="path1131" />
      <path
         inkscape:connector-curvature="0"
         style="fill:#ffffff"
         d="m 885.334,75.154 c 1.337,-3.026 1.408,-5.911 0.281,-8.727 -1.057,-2.743 -3.098,-4.573 -5.98,-5.488 -2.887,-0.914 -5.771,-0.632 -8.795,0.775 -2.958,1.478 -5.209,3.659 -6.478,6.755 -1.266,2.956 -1.406,5.84 -0.281,8.585 1.128,2.814 3.097,4.715 5.981,5.559 2.888,0.986 5.842,0.704 8.869,-0.773 2.953,-1.478 5.136,-3.66 6.403,-6.686"
         id="path1133" />
      <path
         inkscape:connector-curvature="0"
         d="m 898.494,84.795 c -4.013,1.337 -7.953,2.463 -11.964,3.378 -4.084,0.844 -8.232,1.478 -12.455,1.829 -4.153,0.353 -8.654,0 -13.58,-1.056 4.573,10.697 11.398,16.537 20.266,17.593 2.954,0.353 5.981,0.212 9.076,-0.633 h 0.141 c 3.098,-0.562 5.982,-1.618 8.586,-3.097 8.022,-4.714 12.174,-13.088 12.526,-25.052 l -0.494,0.493 c -4.22,3.027 -8.233,5.208 -12.102,6.545"
         id="path1135" />
      <path
         inkscape:connector-curvature="0"
         style="fill:#e83434"
         d="m 915.381,74.169 -4.291,3.589 c -0.353,11.963 -4.504,20.337 -12.526,25.052 -2.604,1.479 -5.488,2.534 -8.586,3.096 h -0.141 c -3.095,0.845 -6.122,0.985 -9.076,0.633 -8.867,-1.056 -15.692,-6.896 -20.266,-17.593 h -0.212 l -5.913,-1.759 c 5.56,16.889 14.217,26.178 26.04,27.867 3.445,0.493 7.033,0.282 10.695,-0.633 3.798,-0.632 7.107,-1.899 10.133,-3.8 10.274,-6.403 15.059,-18.577 14.143,-36.452"
         id="path1137" />
      <path
         inkscape:connector-curvature="0"
         d="m 905.883,60.659 c -1.267,-1.196 -2.534,-1.759 -4.151,-1.619 -1.55,0 -2.744,0.704 -3.802,1.97 -0.985,1.267 -1.407,2.815 -1.267,4.575 0.071,1.759 0.774,3.167 1.97,4.362 1.198,1.267 2.534,1.76 4.081,1.76 1.55,-0.071 2.818,-0.705 3.801,-2.112 0.986,-1.195 1.406,-2.744 1.268,-4.503 -0.141,-1.76 -0.775,-3.238 -1.9,-4.433"
         id="path1139" />
      <path
         inkscape:connector-curvature="0"
         d="m 883.855,64.81 c -1.338,-1.197 -2.813,-1.688 -4.435,-1.618 -1.686,0.07 -3.095,0.773 -4.22,2.11 -1.126,1.338 -1.619,2.885 -1.548,4.645 0.139,1.76 0.844,3.308 2.11,4.504 1.337,1.126 2.815,1.689 4.504,1.618 1.689,-0.14 3.097,-0.844 4.15,-2.111 1.128,-1.337 1.619,-2.886 1.55,-4.715 -0.139,-1.759 -0.843,-3.167 -2.111,-4.433"
         id="path1141" />
      <path
         inkscape:connector-curvature="0"
         style="fill:#eb6896"
         d="m 886.53,75.647 c -1.688,2.604 -2.253,5.419 -1.688,8.586 0.563,3.095 2.11,5.629 4.573,7.388 2.463,1.829 5.207,2.464 8.163,1.9 2.885,-0.492 5.136,-2.111 6.896,-4.575 1.55,-2.603 2.112,-5.558 1.55,-8.655 -0.491,-3.096 -2.11,-5.559 -4.504,-7.318 -2.532,-1.901 -5.207,-2.534 -8.163,-1.971 -2.885,0.565 -5.208,2.112 -6.827,4.645"
         id="path1143" />
      <path
         inkscape:connector-curvature="0"
         style="fill:#043889"
         d="m 895.819,125.821 c -0.212,0 -0.423,0.07 -0.565,0.282 -12.03,10.062 -22.375,21.462 -31.102,33.988 0.634,0.352 1.269,0.773 1.831,1.125 8.585,-12.385 18.787,-23.574 30.61,-33.496 0.281,-0.211 0.422,-0.423 0.422,-0.774 0,-0.211 -0.071,-0.493 -0.281,-0.704 -0.212,-0.281 -0.422,-0.422 -0.703,-0.422 h -0.212 z"
         id="path1145" />
      <path
         inkscape:connector-curvature="0"
         style="fill:#0e5cab"
         d="m 895.254,126.103 c 0.143,-0.212 0.354,-0.282 0.565,-0.282 0,-0.211 -0.141,-0.353 -0.141,-0.493 -0.351,-1.196 -0.916,-2.392 -1.548,-3.519 -0.422,-0.984 -1.056,-1.76 -1.69,-2.604 0,0.07 -0.069,0.07 -0.139,0.211 -12.598,11.189 -23.927,23.786 -33.919,37.789 1.9,0.844 3.869,1.83 5.77,2.886 8.727,-12.526 19.072,-23.925 31.102,-33.988"
         id="path1147" />
      <path
         inkscape:connector-curvature="0"
         style="fill:#043889"
         d="m 892.302,119.417 c 0.069,-0.141 0.139,-0.141 0.139,-0.211 0.143,-0.141 0.212,-0.352 0.212,-0.562 0,-0.282 -0.069,-0.492 -0.281,-0.774 -0.212,-0.211 -0.422,-0.352 -0.774,-0.422 -0.212,0 -0.491,0.141 -0.703,0.351 -12.879,11.4 -24.419,24.278 -34.621,38.635 0.141,0 0.21,0.069 0.351,0.14 0.562,0.142 1.128,0.422 1.76,0.634 9.99,-14.006 21.319,-26.602 33.917,-37.791"
         id="path1149" />
      <path
         inkscape:connector-curvature="0"
         style="fill:#043889"
         d="m 857.678,158.191 c 0.141,-0.281 0.424,-0.633 0.705,-0.984 -0.632,-0.212 -1.197,-0.493 -1.76,-0.634 -0.141,-0.071 -0.21,-0.14 -0.351,-0.14 -0.212,0.281 -0.353,0.562 -0.634,0.843 -0.071,0.071 -0.071,0.142 -0.071,0.281 -3.799,-0.985 -7.387,-1.056 -11.049,-0.351 -0.21,0.069 -0.422,0.069 -0.703,0.14 -0.422,0.21 -0.984,0.21 -1.479,0.141 -0.141,-0.07 -0.281,-0.07 -0.422,-0.07 h -0.986 c -0.913,0.07 -1.898,0.14 -2.954,0.352 -0.351,0.07 -0.562,0.14 -0.916,0.211 -0.632,0.281 -1.266,0.632 -1.899,1.056 -1.126,0.704 -1.898,1.548 -2.392,2.744 -0.494,1.197 -0.494,2.463 0.071,3.659 0.139,0.141 0.212,0.282 0.351,0.352 0,0.211 0.141,0.353 0.353,0.563 0.562,0.775 1.338,1.267 2.322,1.619 0.913,0.352 1.9,0.633 2.885,0.704 0.069,0.07 0.212,0.14 0.351,0.14 0.071,0 0.212,0.071 0.354,0.071 0.351,-0.071 0.773,-0.071 1.124,-0.071 1.056,0.564 2.253,1.056 3.59,1.268 0.069,0.069 0.069,0.069 0.141,0.14 2.112,1.548 4.573,2.323 7.177,2.534 2.463,0.281 4.928,0.352 7.319,0.281 h 0.141 c 0.844,4.294 2.954,7.601 6.404,10.134 0.915,0.492 1.828,0.633 2.956,0.633 0.632,-0.071 1.266,-0.142 1.829,-0.352 2.04,-1.548 2.954,-3.801 2.672,-6.756 -0.351,-5.911 -2.813,-10.908 -7.176,-14.919 0.141,-0.211 0.212,-0.352 0.353,-0.562 -0.562,-0.351 -1.197,-0.774 -1.831,-1.125 -0.071,0.14 -0.141,0.28 -0.212,0.421 -0.422,0.634 -0.772,1.267 -1.123,1.971 0.279,0.14 0.632,0.352 0.844,0.493 0.141,0.07 0.351,0.211 0.491,0.352 3.941,3.659 6.192,8.164 6.543,13.582 0.145,1.268 -0.069,2.323 -0.561,3.308 l -1.057,1.266 c -1.056,0.423 -1.9,0.352 -2.604,-0.211 l -1.338,-1.055 c -2.531,-2.322 -3.938,-5.348 -4.291,-9.148 v -0.141 C 860.564,171 860.283,171 860.142,171 c -2.606,0.071 -5.139,0.071 -7.742,-0.351 -2.815,-0.283 -5.35,-1.126 -7.812,-2.533 -0.703,-0.563 -1.056,-1.267 -1.266,-2.251 -0.071,-0.142 -0.071,-0.282 -0.071,-0.423 v -0.421 c 0,-0.563 0.071,-1.127 0.495,-1.69 0.491,-0.632 1.195,-1.125 2.11,-1.76 1.194,-0.492 2.463,-1.055 3.729,-1.336 h 0.141 c 0.282,-0.071 0.565,-0.14 0.916,-0.211 -1.267,-0.21 -2.604,-0.21 -3.87,-0.14 -1.618,0.211 -3.097,0.843 -4.435,1.829 -0.069,0.14 -0.141,0.14 -0.281,0.211 -0.069,0 -0.069,0.07 -0.069,0.141 -1.127,1.408 -1.268,2.957 -0.493,4.785 -0.069,-0.07 -0.212,-0.141 -0.353,-0.281 0,-0.071 -0.139,-0.071 -0.139,-0.071 -0.212,-0.21 -0.424,-0.351 -0.705,-0.493 h 0.069 c -1.055,-0.914 -1.617,-1.97 -1.688,-3.236 0.071,-0.986 0.844,-1.689 2.394,-2.322 0.21,-0.071 0.422,-0.141 0.632,-0.211 0.353,-0.282 0.703,-0.422 1.057,-0.634 -0.635,0.07 -1.267,0.141 -1.9,0.212 -1.338,0.21 -2.394,0.914 -3.095,1.969 -0.565,0.844 -0.918,1.76 -0.987,2.675 0.214,0.633 0.493,1.266 0.987,1.97 -0.353,-0.141 -0.706,-0.281 -1.057,-0.423 h -0.069 c -0.424,-0.211 -0.774,-0.352 -1.125,-0.633 -0.354,-0.211 -0.634,-0.562 -0.777,-1.126 -0.069,0 -0.069,0 -0.069,-0.07 -0.212,-0.493 -0.069,-0.985 0.142,-1.549 0.141,-0.562 0.562,-1.056 1.056,-1.407 1.406,-1.548 3.307,-2.392 5.488,-2.533 1.126,0 2.251,0.071 3.447,0.28 0.071,-0.07 0.213,-0.07 0.284,-0.14 1.478,-0.212 3.097,-0.352 4.642,-0.352 2.322,0.071 4.645,0.282 6.897,0.915 0.141,-0.211 0.281,-0.282 0.351,-0.493 v -0.07 h 0.143 c 0.136,-0.214 0.348,-0.426 0.559,-0.636"
         id="path1151" />
      <path
         inkscape:connector-curvature="0"
         style="fill:#0e5cab"
         d="m 858.383,157.207 c -0.281,0.352 -0.564,0.703 -0.705,0.984 -0.211,0.212 -0.423,0.423 -0.562,0.635 h -0.143 v 0.07 c -0.069,0.211 -0.21,0.282 -0.351,0.493 -2.253,-0.633 -4.575,-0.845 -6.897,-0.915 -1.545,0 -3.164,0.14 -4.642,0.353 -0.071,0.07 -0.215,0.07 -0.284,0.14 -1.196,-0.21 -2.321,-0.281 -3.447,-0.281 -2.182,0.142 -4.082,0.985 -5.488,2.534 -0.493,0.351 -0.915,0.843 -1.056,1.407 -0.211,0.563 -0.354,1.056 -0.142,1.548 0,0.07 0,0.07 0.069,0.07 0.144,0.564 0.423,0.916 0.777,1.127 0.351,0.281 0.701,0.421 1.125,0.632 h 0.069 c 0.351,0.142 0.704,0.282 1.057,0.423 -0.494,-0.704 -0.773,-1.337 -0.987,-1.971 0.069,-0.914 0.422,-1.83 0.987,-2.674 0.703,-1.056 1.757,-1.759 3.095,-1.97 0.634,-0.07 1.266,-0.141 1.9,-0.21 -0.354,0.21 -0.704,0.351 -1.057,0.633 -0.21,0.07 -0.422,0.14 -0.632,0.211 -1.55,0.633 -2.322,1.336 -2.394,2.322 0.071,1.267 0.634,2.323 1.688,3.236 h -0.069 c 0.283,0.142 0.493,0.282 0.705,0.493 0,0 0.139,0 0.139,0.071 0.141,0.141 0.283,0.21 0.353,0.281 -0.774,-1.83 -0.634,-3.378 0.493,-4.786 0,-0.07 0,-0.141 0.069,-0.141 0.141,-0.07 0.212,-0.07 0.281,-0.21 1.338,-0.986 2.816,-1.618 4.435,-1.829 1.267,-0.071 2.604,-0.071 3.87,0.14 -0.351,0.071 -0.634,0.141 -0.916,0.211 h -0.141 c -1.266,0.28 -2.534,0.845 -3.729,1.336 -0.915,0.634 -1.619,1.126 -2.11,1.759 -0.424,0.563 -0.495,1.126 -0.495,1.689 v 0.422 c 0,0.141 0,0.282 0.071,0.423 0.21,0.985 0.562,1.688 1.266,2.251 2.463,1.407 4.997,2.252 7.812,2.534 2.606,0.422 5.136,0.422 7.742,0.352 0.141,0 0.422,0 0.703,-0.071 v 0.142 c 0.353,3.801 1.76,6.826 4.291,9.148 l 1.338,1.055 c 0.703,0.563 1.548,0.634 2.604,0.211 l 1.057,-1.266 c 0.491,-0.985 0.705,-2.041 0.561,-3.308 -0.351,-5.417 -2.602,-9.922 -6.543,-13.582 -0.141,-0.141 -0.351,-0.281 -0.491,-0.352 -0.212,-0.141 -0.562,-0.352 -0.844,-0.492 0.351,-0.705 0.701,-1.336 1.123,-1.972 0.071,-0.14 0.141,-0.28 0.212,-0.421 -1.898,-1.056 -3.867,-2.041 -5.767,-2.885"
         id="path1153" />
      <path
         inkscape:connector-curvature="0"
         style="fill:#0e5cab"
         d="m 918.902,113.788 c -0.916,-0.493 -1.902,-0.916 -2.887,-1.196 -1.197,-0.423 -2.392,-0.774 -3.589,-1.267 -0.071,0 -0.281,-0.07 -0.422,-0.07 -0.212,-0.141 -0.422,-0.211 -0.634,-0.281 -0.634,-0.141 -1.126,-0.211 -1.829,-0.493 -1.056,-0.352 -2.184,-0.562 -3.307,-0.562 0,0 0,0.07 -0.071,0.139 v 0.072 c -0.21,0.141 -0.422,0.21 -0.562,0.281 -1.97,1.478 -4.082,2.604 -6.264,3.659 -3.307,1.548 -6.826,2.604 -10.485,3.096 -2.182,0.422 -4.151,0.845 -5.981,1.548 0,0.141 0.068,0.281 0.068,0.352 0.074,0.14 0.213,0.353 0.354,0.493 v 0.141 c -0.069,0 -0.069,0 -0.069,0.07 0.982,0.844 2.04,1.618 3.097,2.463 0.351,0.211 0.703,0.492 0.913,0.773 v -0.07 c 1.409,1.196 2.815,2.322 4.013,3.519 7.105,6.544 10.907,14.637 11.468,24.207 0,0.774 0.144,1.619 0.212,2.463 0.635,4.574 2.395,8.796 5.066,12.666 0.845,1.126 1.688,2.323 2.604,3.378 1.409,1.477 3.028,2.814 4.785,3.941 3.026,1.829 6.335,2.885 9.854,3.237 3.377,0.352 6.614,-0.07 9.642,-1.267 3.095,-1.196 5.558,-3.096 7.599,-5.56 0.071,-0.14 0.141,-0.211 0.281,-0.281 2.253,-2.815 3.66,-6.263 4.294,-10.204 0.069,-0.985 0.21,-1.899 0.21,-2.885 0.141,-0.704 0.141,-1.407 0.141,-2.181 0.071,-2.604 -0.21,-5.137 -0.701,-7.671 -0.846,-3.588 -2.184,-6.897 -4.084,-10.063 -4.432,-7.318 -10.204,-13.511 -17.24,-18.437 -0.915,-0.704 -1.899,-1.267 -2.815,-1.829 l -3.517,-2.252 c -0.074,0.071 -0.074,0.071 -0.144,0.071"
         id="path1155" />
    </g>
  </g>
</svg>
