<?xml version="1.0" encoding="UTF-8" standalone="no"?>
<!-- Created with Inkscape (http://www.inkscape.org/) -->

<svg
   xmlns:dc="http://purl.org/dc/elements/1.1/"
   xmlns:cc="http://creativecommons.org/ns#"
   xmlns:rdf="http://www.w3.org/1999/02/22-rdf-syntax-ns#"
   xmlns:svg="http://www.w3.org/2000/svg"
   xmlns="http://www.w3.org/2000/svg"
   xmlns:sodipodi="http://sodipodi.sourceforge.net/DTD/sodipodi-0.dtd"
   xmlns:inkscape="http://www.inkscape.org/namespaces/inkscape"
   width="151.9231"
   height="202.57649"
   id="svg5696"
   version="1.1"
   inkscape:version="0.48.4 r9939"
   sodipodi:docname="grover8.svg">
  <defs
     id="defs5698">
    <clipPath
       id="SVGID_2_">
      <rect
         height="88.862999"
         width="111.498"
         y="518.96198"
         x="382.04999"
         id="use1087" />
    </clipPath>
    <clipPath
       id="SVGID_4_">
      <rect
         height="41.314999"
         width="49.584999"
         y="525.19397"
         x="389.84698"
         id="use1111" />
    </clipPath>
  </defs>
  <sodipodi:namedview
     id="base"
     pagecolor="#ffffff"
     bordercolor="#666666"
     borderopacity="1.0"
     inkscape:pageopacity="0.0"
     inkscape:pageshadow="2"
     inkscape:zoom="0.77472527"
     inkscape:cx="86.135785"
     inkscape:cy="59.92108"
     inkscape:current-layer="layer1"
     inkscape:document-units="px"
     showgrid="false"
     inkscape:window-width="763"
     inkscape:window-height="591"
     inkscape:window-x="592"
     inkscape:window-y="97"
     inkscape:window-maximized="0"
     fit-margin-top="0"
     fit-margin-left="0"
     fit-margin-right="0"
     fit-margin-bottom="0" />
  <metadata
     id="metadata5701">
    <rdf:RDF>
      <cc:Work
         rdf:about="">
        <dc:format>image/svg+xml</dc:format>
        <dc:type
           rdf:resource="http://purl.org/dc/dcmitype/StillImage" />
        <dc:title></dc:title>
      </cc:Work>
    </rdf:RDF>
  </metadata>
  <g
     id="layer1"
     inkscape:label="Layer 1"
     inkscape:groupmode="layer"
     transform="translate(-231.80751,57.549025)">
    <g
       transform="translate(-388.77031,-329.83201)"
       id="g77">
      <path
         inkscape:connector-curvature="0"
         style="fill:#0e5cab"
         d="m 720.432,364.786 c -0.507,2.15 -0.811,3.489 -0.936,4.027 -0.872,5.475 -0.979,10.556 -0.36,15.218 2.022,15.003 11.513,24.396 28.504,28.172 0.067,0.006 0.104,0.024 0.172,0.034 0.145,5.1 1.522,7.634 4.137,7.601 0.885,-0.012 1.835,-0.308 2.805,-0.909 0.722,-0.448 1.193,-0.83 1.43,-1.136 -0.135,0.247 -0.094,0.701 0.09,1.407 0.218,0.866 0.587,1.674 1.072,2.397 1.4,1.97 3.042,2.189 4.917,0.632 2.697,-2.236 3.444,-4.779 2.225,-7.603 -0.87,-2.112 -2.141,-3.58 -3.796,-4.384 0.385,-0.226 1.162,-0.21 2.293,0.024 1.784,0.357 2.854,0.532 3.173,0.557 2.689,0.268 4.214,-1.129 4.542,-4.214 0.245,-2.234 -1.753,-3.285 -5.965,-3.16 -1.67,0.049 -3.303,0.293 -4.883,0.738 -1.625,0.45 -2.759,0.994 -3.397,1.603 0.086,-1.513 0.108,-2.771 0.062,-3.778 -0.146,-1.953 -1.06,-2.938 -2.707,-2.934 -2.468,0.026 -3.769,0.883 -3.954,2.57 -0.03,0.361 -0.014,1.117 0.067,2.23 0.003,0.088 0.015,0.153 0.015,0.239 -0.09,0.903 -0.296,1.37 -0.596,1.439 -0.257,0.034 -0.66,-0.011 -1.207,-0.104 -14.385,-2.83 -22.073,-11.166 -23.064,-25.003 -0.249,-3.684 0.298,-9.306 1.664,-16.908 l -0.017,0.336 c 0.028,-0.1 0.041,-0.208 0.086,-0.33 0.203,-1.072 0.432,-2.19 0.705,-3.343 -0.069,-0.442 -0.114,-0.839 -0.163,-1.184 -0.461,-0.508 -0.896,-0.888 -1.313,-1.171 -2.238,-1.524 -3.942,-0.194 -5.113,3.995 0.016,0.097 -0.139,1.082 -0.488,2.942"
         id="path79" />
      <path
         inkscape:connector-curvature="0"
         style="fill:#023989"
         d="m 719.496,368.812 c 0.125,-0.538 0.429,-1.876 0.936,-4.027 -0.98,-0.037 -1.579,-0.071 -1.787,-0.126 l -0.437,1.323 -0.459,2.581 c -0.926,5.705 -1.044,10.981 -0.363,15.879 2.017,15.492 11.589,25.303 28.717,29.439 0.019,0.01 0.019,0.01 0.037,0.021 0.383,5.49 2.251,8.084 5.58,7.831 0.986,-0.015 2.049,-0.306 3.174,-0.883 0.241,0.735 0.604,1.423 1.055,2.039 2.026,2.915 4.435,3.174 7.187,0.793 3.568,-2.952 4.547,-6.318 2.944,-10.101 -0.123,-0.298 -0.257,-0.573 -0.41,-0.856 0.028,-0.01 0.045,-0.004 0.065,0.009 1.965,0.193 3.476,-0.264 4.561,-1.379 1.175,-1.011 1.874,-2.596 2.106,-4.809 0.642,-3.491 -1.842,-5.178 -7.428,-5.02 -1.818,0.059 -3.562,0.328 -5.28,0.814 -0.514,0.157 -0.98,0.311 -1.425,0.474 0,-0.435 -0.015,-0.847 -0.041,-1.235 l -0.006,-0.031 c -0.21,-2.971 -1.611,-4.418 -4.151,-4.347 -1.615,-0.006 -2.856,0.304 -3.756,0.944 -1.264,0.791 -1.987,1.988 -2.173,3.588 l 0.006,0.033 c -0.019,0.6 -0.01,1.064 0.022,1.398 -13.299,-3.166 -20.427,-10.824 -21.368,-22.965 -0.221,-3.435 0.267,-9.036 1.459,-16.846 l -1.459,0.193 c -0.045,0.122 -0.058,0.229 -0.086,0.33 l 0.017,-0.337 c -1.366,7.603 -1.913,13.225 -1.664,16.909 0.991,13.837 8.68,22.173 23.064,25.003 0.547,0.094 0.95,0.139 1.207,0.104 0.3,-0.069 0.506,-0.536 0.596,-1.438 0,-0.088 -0.012,-0.153 -0.015,-0.241 -0.081,-1.113 -0.098,-1.871 -0.067,-2.229 0.186,-1.689 1.486,-2.546 3.954,-2.572 1.647,-0.004 2.561,0.98 2.707,2.934 0.047,1.008 0.024,2.266 -0.062,3.778 0.639,-0.608 1.772,-1.152 3.397,-1.603 1.58,-0.445 3.213,-0.689 4.883,-0.738 4.212,-0.125 6.21,0.926 5.965,3.16 -0.328,3.085 -1.853,4.481 -4.542,4.214 -0.318,-0.024 -1.389,-0.199 -3.173,-0.557 -1.131,-0.234 -1.908,-0.25 -2.293,-0.024 1.655,0.804 2.926,2.271 3.796,4.384 1.22,2.823 0.473,5.366 -2.225,7.603 -1.875,1.558 -3.517,1.338 -4.917,-0.632 -0.485,-0.724 -0.854,-1.531 -1.072,-2.397 -0.184,-0.706 -0.225,-1.16 -0.09,-1.407 -0.236,0.306 -0.708,0.688 -1.43,1.136 -0.97,0.602 -1.918,0.897 -2.805,0.909 -2.614,0.033 -3.992,-2.501 -4.137,-7.601 -0.067,-0.01 -0.103,-0.026 -0.172,-0.034 -16.991,-3.776 -26.481,-13.169 -28.504,-28.172 -0.616,-4.66 -0.51,-9.742 0.362,-15.216"
         id="path81" />
      <path
         inkscape:connector-curvature="0"
         style="fill:#0e5cab"
         d="m 726.592,351.373 -25.609,0.58 c -1.366,9.396 -3.699,16.888 -6.967,22.476 -3.287,5.588 -5.177,8.83 -5.685,9.74 -0.016,0.043 -0.043,0.071 -0.057,0.098 -2.386,4.263 -4.249,8.732 -5.615,13.438 -0.317,1.078 -0.581,2.155 -0.785,3.229 -0.815,3.863 -0.803,7.935 0.067,12.227 0.027,0.083 0.056,0.165 0.082,0.249 0.069,0.232 0.139,0.469 0.222,0.703 2.429,7.05 7.479,11.105 15.165,12.182 8.648,0.98 15.878,-1.945 21.701,-8.804 5.811,-6.856 9.494,-15.535 11.023,-26.05 1.519,-10.513 0.333,-23.871 -3.542,-40.068"
         id="path83" />
      <path
         inkscape:connector-curvature="0"
         style="fill:none;stroke:#043689;stroke-width:2.20729995;stroke-linecap:round;stroke-linejoin:round;stroke-miterlimit:10"
         d="m 700.982,351.953 c -1.366,9.395 -3.699,16.888 -6.967,22.476 -3.287,5.588 -5.177,8.83 -5.685,9.74 -0.016,0.043 -0.043,0.072 -0.057,0.098 -2.386,4.263 -4.249,8.732 -5.615,13.438 -0.317,1.078 -0.579,2.155 -0.785,3.229 -0.815,3.863 -0.803,7.935 0.067,12.227 0.027,0.083 0.056,0.165 0.082,0.249 0.069,0.232 0.139,0.469 0.222,0.703 2.429,7.05 7.479,11.105 15.165,12.182 8.648,0.98 15.878,-1.945 21.701,-8.804 5.811,-6.856 9.494,-15.535 11.023,-26.05 1.519,-10.513 0.332,-23.87 -3.543,-40.068 l -25.608,0.58 z"
         id="path85" />
      <path
         inkscape:connector-curvature="0"
         style="fill:#0e5cab"
         d="m 709.955,419.58 8.135,-6.21 c 4.012,14.371 11.181,26.449 21.511,36.239 0.89,-1.138 1.919,-2.353 3.098,-3.649 3.653,-4.083 7.433,-7.005 11.327,-8.757 3.892,-1.751 6.765,-1.828 8.616,-0.216 1.841,1.601 2.186,4.281 1.029,8.063 -1.14,3.756 -3.372,7.497 -6.681,11.214 -3.319,3.725 -8.657,7.992 -15.993,12.797 -0.791,-0.23 -1.633,-1.015 -2.538,-2.369 -12.017,-13.216 -21.521,-28.92 -28.504,-47.112"
         id="path87" />
      <path
         inkscape:connector-curvature="0"
         style="fill:none;stroke:#043689;stroke-width:2.09380007;stroke-linecap:round;stroke-miterlimit:10"
         d="m 709.955,419.58 c 6.982,18.192 16.487,33.896 28.504,47.112 0.905,1.354 1.747,2.139 2.538,2.369 7.336,-4.805 12.674,-9.072 15.993,-12.797 3.309,-3.717 5.541,-7.458 6.681,-11.214 1.156,-3.782 0.812,-6.463 -1.029,-8.063 -1.852,-1.612 -4.725,-1.535 -8.616,0.216 -3.895,1.752 -7.674,4.674 -11.327,8.757 -1.179,1.297 -2.208,2.512 -3.098,3.649 -10.33,-9.79 -17.499,-21.868 -21.511,-36.239 l -8.135,6.21 z"
         id="path89" />
      <path
         inkscape:connector-curvature="0"
         style="fill:#043689"
         d="m 698.676,411.76 -0.216,0.758 c -2.463,9.351 -6.767,18.496 -12.918,27.426 l -0.026,0.052 -0.028,0.028 c -3.344,3.965 -8.479,8.182 -15.422,12.656 0.661,1.778 1.658,3.477 2.995,5.096 3.248,-0.198 6.234,0.695 8.979,2.699 l -0.021,-0.019 c 1.331,0.915 2.302,1.892 2.913,2.915 0.675,1.075 0.991,2.194 0.954,3.385 l -0.01,0.013 c -0.022,2.552 -1.629,4.688 -4.853,6.396 l -0.056,0.041 -0.077,0.022 c -1.684,0.638 -3.439,1.074 -5.264,1.296 l -0.011,0.011 c -0.269,0.028 -0.553,0.067 -0.842,0.1 l 0.008,-0.01 c -5.27,0.591 -9.219,0.064 -11.852,-1.572 l -0.092,-0.065 -0.089,-0.083 c -1.001,-0.948 -2.019,-2.178 -3.051,-3.699 -2.846,-4.203 -5.706,-10.435 -8.593,-18.661 l 0.008,0.011 c -0.151,-0.424 -0.294,-0.838 -0.414,-1.252 l 0.008,0.008 c -0.087,-0.289 -0.077,-0.542 -0.008,-0.76 l 0.062,-0.186 0.083,-0.112 c 0.451,-0.71 1.287,-1.362 2.512,-1.974 l 0.009,-0.011 c 0.277,-0.136 0.557,-0.252 0.825,-0.36 0.73,-0.283 1.452,-0.512 2.165,-0.714 7.287,-3.592 13.716,-8.227 19.277,-13.89 0.008,-0.011 0.026,-0.031 0.036,-0.041 5.809,-6.618 10.228,-14.734 13.283,-24.36 l 0.457,-1.382 9.269,6.238 z m -2.538,0.95 -5.539,-3.733 c -3.136,9.348 -7.58,17.269 -13.313,23.786 l -0.039,0.041 c -5.768,5.886 -12.442,10.684 -20.015,14.404 l -0.077,0.041 -0.096,0.024 c -0.695,0.201 -1.387,0.442 -2.101,0.701 -0.21,0.083 -0.422,0.171 -0.611,0.273 l -0.021,0.002 c -0.583,0.285 -1.031,0.585 -1.359,0.898 0.075,0.221 0.141,0.435 0.218,0.655 v 0.02 c 2.812,8.005 5.586,14.044 8.341,18.144 0.896,1.321 1.773,2.399 2.645,3.246 2.33,1.337 5.786,1.745 10.367,1.226 0.271,-0.029 0.544,-0.06 0.805,-0.099 l 0.011,0.009 c 1.631,-0.196 3.196,-0.583 4.695,-1.146 2.304,-1.245 3.515,-2.752 3.635,-4.501 l -0.012,-0.009 c 0.022,-0.752 -0.17,-1.476 -0.605,-2.161 l -0.009,-0.01 c -0.497,-0.781 -1.258,-1.541 -2.287,-2.255 l -0.028,-0.011 c -2.435,-1.77 -5.057,-2.57 -7.857,-2.371 -2.119,0.157 -4.039,0.688 -5.788,1.578 0.741,-1.547 1.89,-2.642 3.464,-3.305 -1.006,-1.366 -1.884,-2.95 -2.62,-4.728 -1.091,0.322 -1.943,0.169 -2.553,-0.489 0.401,-0.21 1.299,-0.751 2.728,-1.623 7.105,-4.512 12.329,-8.759 15.683,-12.714 5.785,-8.437 9.914,-17.07 12.338,-25.893"
         id="path91" />
      <path
         inkscape:connector-curvature="0"
         style="fill:#0e5cab"
         d="m 690.599,408.977 5.539,3.733 c -2.424,8.823 -6.553,17.456 -12.341,25.895 -3.355,3.955 -8.577,8.202 -15.683,12.714 -1.429,0.872 -2.326,1.413 -2.728,1.623 0.609,0.658 1.462,0.812 2.553,0.489 0.736,1.777 1.616,3.361 2.62,4.728 -1.574,0.663 -2.723,1.758 -3.464,3.305 1.749,-0.891 3.669,-1.421 5.788,-1.578 2.801,-0.199 5.423,0.602 7.857,2.371 l 0.028,0.011 c 1.029,0.714 1.79,1.474 2.287,2.255 l 0.009,0.01 c 0.436,0.686 0.628,1.409 0.605,2.161 l 0.012,0.009 c -0.12,1.749 -1.331,3.256 -3.635,4.501 -1.499,0.563 -3.064,0.95 -4.695,1.146 l -0.011,-0.009 c -0.261,0.039 -0.534,0.069 -0.805,0.099 -4.581,0.52 -8.037,0.109 -10.367,-1.226 -0.871,-0.847 -1.748,-1.925 -2.645,-3.246 -2.755,-4.1 -5.529,-10.139 -8.341,-18.144 v -0.02 c -0.077,-0.221 -0.143,-0.435 -0.218,-0.655 0.328,-0.313 0.776,-0.613 1.359,-0.898 l 0.021,-0.002 c 0.189,-0.103 0.401,-0.19 0.611,-0.273 0.714,-0.259 1.405,-0.5 2.101,-0.701 l 0.096,-0.024 0.077,-0.041 c 7.572,-3.721 14.247,-8.519 20.015,-14.404 l 0.039,-0.041 c 5.736,-6.52 10.18,-14.441 13.316,-23.788"
         id="path93" />
      <path
         inkscape:connector-curvature="0"
         style="fill:#0e5cab"
         d="m 726.819,278.27 c -10.148,-5.403 -20.565,-6.341 -31.229,-2.817 -10.521,3.476 -18.25,10.275 -23.182,20.4 -0.718,1.6 -1.376,3.208 -1.979,4.843 -0.877,2.392 -1.501,4.845 -1.9,7.369 -0.392,2.551 -0.562,5.101 -0.491,7.642 0.067,2.617 0.359,5.216 0.885,7.813 0.361,1.706 0.826,3.424 1.396,5.148 3.692,11.174 10.616,19.456 20.77,24.872 10.149,5.403 20.551,6.345 31.229,2.818 10.667,-3.524 18.473,-10.479 23.405,-20.866 4.93,-10.399 5.56,-21.175 1.869,-32.351 -3.694,-11.175 -10.619,-19.454 -20.773,-24.871"
         id="path95" />
      <path
         inkscape:connector-curvature="0"
         style="fill:none;stroke:#043689;stroke-width:2.20230007;stroke-linecap:round;stroke-linejoin:round;stroke-miterlimit:10"
         d="m 695.59,275.452 c -10.521,3.476 -18.25,10.276 -23.182,20.4 -0.718,1.599 -1.376,3.208 -1.979,4.843 -0.877,2.392 -1.501,4.845 -1.9,7.37 -0.392,2.549 -0.562,5.1 -0.491,7.642 0.067,2.617 0.359,5.215 0.885,7.812 0.361,1.708 0.826,3.424 1.396,5.148 3.692,11.175 10.616,19.456 20.77,24.873 10.149,5.403 20.551,6.344 31.229,2.817 10.667,-3.524 18.473,-10.479 23.405,-20.866 4.93,-10.399 5.56,-21.175 1.869,-32.35 -3.692,-11.176 -10.618,-19.455 -20.771,-24.873 -10.15,-5.401 -20.567,-6.339 -31.231,-2.816 z"
         id="path97" />
      <path
         inkscape:connector-curvature="0"
         style="fill:#282525"
         d="m 704.838,330.368 c 4.132,-0.798 8.232,-1.792 12.277,-2.977 4.045,-1.198 8.057,-2.62 12.051,-4.284 3.941,-1.634 7.87,-3.964 11.776,-6.975 0.598,10.068 -2.917,17.55 -10.538,22.429 -2.508,1.615 -5.336,2.847 -8.504,3.702 -0.021,0.005 -0.039,0.012 -0.06,0.018 -3.101,1.023 -6.169,1.558 -9.197,1.6 -9.286,0.158 -16.734,-4.162 -22.326,-12.956 l 0.664,0.089 c 5.106,0.354 9.72,0.14 13.857,-0.646"
         id="path99" />
      <path
         inkscape:connector-curvature="0"
         style="fill:#d8272a"
         d="m 684.794,330.176 5.523,0.749 c 5.592,8.794 13.04,13.115 22.326,12.956 3.028,-0.041 6.097,-0.576 9.197,-1.6 0.021,-0.006 0.039,-0.013 0.06,-0.017 3.168,-0.855 5.996,-2.087 8.504,-3.703 7.621,-4.878 11.136,-12.36 10.538,-22.429 0.062,-0.045 0.12,-0.091 0.182,-0.138 l 4.568,-4.061 c 2.478,15.179 -1.247,26.117 -11.2,32.792 -2.908,1.969 -6.225,3.444 -9.928,4.43 -0.03,0.009 -0.051,0.015 -0.069,0.021 -3.629,1.211 -7.237,1.81 -10.804,1.781 -12.17,-0.049 -21.802,-6.984 -28.897,-20.781"
         id="path101" />
      <path
         inkscape:connector-curvature="0"
         style="fill:#ffffff"
         d="m 721.696,290.581 c -1.719,2.002 -2.392,4.399 -1.996,7.212 0.405,2.809 1.756,5.188 4.045,7.159 2.275,1.973 4.842,2.937 7.681,2.883 2.834,-0.022 5.117,-1.052 6.842,-3.071 1.717,-2.003 2.39,-4.4 1.996,-7.212 -0.406,-2.81 -1.754,-5.176 -4.039,-7.134 -2.273,-1.973 -4.84,-2.938 -7.687,-2.912 -2.836,0.025 -5.119,1.054 -6.842,3.075"
         id="path103" />
      <path
         inkscape:connector-curvature="0"
         style="fill:#ffffff"
         d="m 713.06,299.986 c -1.451,-2.464 -3.686,-3.915 -6.714,-4.35 -3.003,-0.443 -5.931,0.262 -8.763,2.084 -2.829,1.833 -4.735,4.274 -5.696,7.332 -0.971,3.031 -0.729,5.778 0.722,8.243 1.452,2.463 3.688,3.928 6.723,4.375 3.027,0.435 5.953,-0.271 8.78,-2.119 2.818,-1.83 4.708,-4.265 5.67,-7.323 0.97,-3.031 0.73,-5.78 -0.722,-8.242"
         id="path105" />
      <path
         inkscape:connector-curvature="0"
         style="fill:#282525"
         d="m 727.751,293.53 c -1.341,-1.137 -2.733,-1.577 -4.188,-1.328 -1.453,0.249 -2.562,1.107 -3.299,2.583 -0.729,1.489 -0.878,3.147 -0.448,4.991 0.426,1.831 1.299,3.325 2.632,4.466 1.34,1.137 2.73,1.576 4.186,1.327 1.444,-0.245 2.543,-1.101 3.276,-2.576 0.736,-1.477 0.885,-3.134 0.451,-4.99 -0.416,-1.836 -1.28,-3.331 -2.61,-4.473"
         id="path107" />
      <path
         inkscape:connector-curvature="0"
         style="fill:#282525"
         d="m 691.864,305.081 c 0.581,-1.772 1.672,-3.031 3.278,-3.794 1.607,-0.763 3.271,-0.82 4.973,-0.15 1.705,0.684 2.942,1.885 3.729,3.61 0.782,1.713 0.896,3.458 0.328,5.226 -0.581,1.772 -1.672,3.032 -3.28,3.794 -1.593,0.759 -3.244,0.812 -4.944,0.142 -1.7,-0.671 -2.94,-1.872 -3.729,-3.611 -0.797,-1.708 -0.923,-3.449 -0.355,-5.217"
         id="path109" />
      <path
         inkscape:connector-curvature="0"
         style="fill:#db5284"
         d="m 728.808,303.068 c -2.738,-1.489 -5.554,-1.761 -8.431,-0.81 -2.872,0.947 -4.986,2.849 -6.324,5.684 -1.305,2.853 -1.462,5.803 -0.457,8.848 1.016,3.071 2.897,5.349 5.646,6.863 2.751,1.482 5.58,1.751 8.47,0.797 2.889,-0.954 4.988,-2.852 6.287,-5.673 1.317,-2.855 1.473,-5.807 0.459,-8.878 -1.017,-3.071 -2.9,-5.349 -5.65,-6.831"
         id="path111" />
      <path
         inkscape:connector-curvature="0"
         style="fill:#0e5cab"
         d="m 725.723,352.504 -23.788,0.538 c -1.407,9.134 -3.726,16.447 -6.967,21.951 -3.272,5.562 -5.162,8.804 -5.672,9.714 -0.015,0.041 -0.043,0.068 -0.056,0.096 -2.347,4.182 -4.179,8.596 -5.519,13.218 -0.304,1.038 -0.551,2.086 -0.759,3.133 v 0.016 c -0.787,3.698 -0.772,7.601 0.056,11.7 0.014,0.067 0.04,0.125 0.055,0.192 0.015,0.014 0.015,0.04 0.026,0.055 0.058,0.208 0.125,0.414 0.193,0.622 v 0.012 c 2.277,6.637 7.036,10.447 14.268,11.452 h -0.028 c 8.266,0.926 15.177,-1.876 20.736,-8.431 5.687,-6.703 9.272,-15.203 10.777,-25.483 1.463,-10.224 0.36,-23.153 -3.322,-38.785"
         id="path113" />
      <path
         inkscape:connector-curvature="0"
         style="fill:#0e5cab"
         d="m 703.922,367.289 -0.051,-9.936 c -22.273,5.396 -39.641,2.522 -52.116,-8.618 l -5.052,9.15 c 10.461,7.856 22.953,11.748 37.493,11.67 1.02,-0.004 2.056,-0.023 3.089,-0.07 5.277,-0.233 10.826,-0.965 16.637,-2.196"
         id="path115" />
      <path
         inkscape:connector-curvature="0"
         style="fill:none;stroke:#043689;stroke-width:2.20510006;stroke-linecap:square;stroke-linejoin:round;stroke-miterlimit:10"
         d="m 703.922,367.289 c -5.811,1.231 -11.36,1.963 -16.637,2.197 -1.033,0.046 -2.069,0.066 -3.089,0.07 -14.54,0.078 -27.032,-3.813 -37.493,-11.67 l 5.052,-9.15 c 12.476,11.14 29.843,14.014 52.116,8.618"
         id="path117" />
      <path
         inkscape:connector-curvature="0"
         style="fill:#043689"
         d="m 655.205,329.354 c 0.538,-0.182 1.089,-0.227 1.627,-0.133 h -0.015 c 0.371,0.067 0.73,0.162 1.077,0.312 h 0.014 c 0.345,0.15 0.663,0.34 0.952,0.601 l 0.015,0.014 c 0.154,0.151 0.293,0.329 0.392,0.521 l -0.017,-0.026 c 0.084,0.177 0.126,0.356 0.116,0.549 -0.069,0.525 -0.314,0.995 -0.724,1.422 v 0.016 c -0.564,0.567 -1.128,1.177 -1.66,1.8 v 0.013 c -0.507,0.568 -0.932,1.204 -1.286,1.91 -0.448,0.869 -0.665,1.78 -0.673,2.704 v 0.096 l 0.118,1.599 c 0.015,0.041 0.015,0.097 0.028,0.152 0.084,0.398 0.153,0.784 0.229,1.157 l 2.243,-0.014 c -0.084,-0.481 -0.184,-0.989 -0.296,-1.5 l -0.118,-1.542 c 0.01,-0.564 0.159,-1.118 0.433,-1.657 0.272,-0.539 0.601,-1.036 0.984,-1.466 h 0.014 c 0.506,-0.609 1.026,-1.19 1.561,-1.731 h 0.016 c 0.767,-0.816 1.203,-1.716 1.323,-2.708 v -0.015 c 0.063,-0.606 -0.034,-1.198 -0.328,-1.762 l -0.012,-0.014 c -0.21,-0.412 -0.487,-0.782 -0.834,-1.111 l -0.015,-0.013 c -0.485,-0.438 -1.023,-0.781 -1.631,-1.041 v 0.014 c -0.483,-0.204 -1.01,-0.353 -1.546,-0.447 l -0.014,-0.013 c -0.897,-0.146 -1.778,-0.074 -2.645,0.208 l 0.026,-0.002 c -0.566,0.156 -1.087,0.365 -1.594,0.617 h 0.028 c -0.579,0.264 -1.104,0.583 -1.584,0.958 l 0.016,-0.027 c -0.548,0.401 -1.044,0.845 -1.481,1.33 -0.015,0 -0.015,0 -0.015,0.014 -0.493,0.511 -0.932,1.053 -1.315,1.619 -0.014,0.015 -0.014,0.015 -0.026,0.028 -0.206,0.291 -0.397,0.594 -0.561,0.913 -0.098,0.123 -0.163,0.248 -0.23,0.4 -0.028,0.042 -0.057,0.097 -0.069,0.151 -2.173,-4.44 -5.111,-7.512 -8.828,-9.202 -1.727,-0.804 -3.438,-0.988 -5.158,-0.58 -1.706,0.409 -2.915,1.145 -3.625,2.197 -0.493,0.76 -0.709,1.575 -0.664,2.471 0.016,0.249 0.03,0.496 0.059,0.758 0.155,0.867 0.506,1.722 1.02,2.557 0.015,0.028 0.043,0.056 0.069,0.085 0.459,0.589 1.014,1.152 1.662,1.658 0.791,0.615 1.717,1.163 2.808,1.639 l 0.014,-0.001 c 0.442,0.233 0.815,0.506 1.107,0.794 0.208,0.221 0.414,0.453 0.595,0.687 -1.81,-0.832 -3.507,-1.333 -5.093,-1.531 h 0.015 c -2.33,-0.332 -4.577,-0.073 -6.763,0.779 h 0.012 c -2.405,0.921 -3.845,2.64 -4.328,5.163 -0.014,0.015 -0.014,0.042 -0.014,0.056 -0.013,0.097 -0.027,0.18 -0.027,0.276 -0.024,0.413 -0.008,0.812 0.035,1.184 l 2.261,-0.012 c -0.069,-0.316 -0.1,-0.674 -0.09,-1.047 v -0.068 -0.014 c 0.337,-1.697 1.323,-2.861 2.961,-3.489 1.816,-0.713 3.688,-0.929 5.633,-0.649 l 0.015,0.013 c 1.971,0.266 4.152,1.067 6.559,2.405 0.405,1.265 0.893,2.187 1.462,2.762 l 0.758,-0.003 -0.01,-1.67 c 0.039,-0.619 0.008,-1.253 -0.092,-1.899 l -0.015,-0.042 c 0,-0.041 0,-0.069 -0.014,-0.083 v -0.026 c -0.27,-1.612 -1.036,-3.055 -2.283,-4.331 l -0.013,-0.014 c -0.459,-0.465 -1.025,-0.875 -1.73,-1.23 -0.027,-0.014 -0.041,-0.014 -0.054,-0.027 -0.913,-0.395 -1.702,-0.86 -2.351,-1.367 -0.473,-0.369 -0.872,-0.752 -1.221,-1.179 -0.347,-0.563 -0.583,-1.126 -0.695,-1.706 -0.073,-0.591 0.047,-1.129 0.375,-1.641 0.096,-0.152 0.177,-0.235 0.22,-0.264 0.506,-0.512 1.166,-0.861 1.951,-1.043 h 0.015 c 1.226,-0.283 2.465,-0.137 3.708,0.435 3.801,1.786 6.698,5.188 8.682,10.237 l -0.013,-0.028 c 0.504,1.857 1.287,3.411 2.327,4.687 l -0.019,-3.57 c 0.012,-0.124 0.012,-0.248 0.024,-0.371 0.014,-0.057 0.014,-0.112 0.026,-0.167 0.015,-0.041 0.015,-0.069 0.015,-0.097 0.012,-0.096 0.012,-0.193 0.026,-0.289 0.038,-0.344 0.104,-0.691 0.199,-1.007 l -0.012,0.068 c 0.012,-0.054 0.04,-0.109 0.053,-0.178 0.041,-0.168 0.096,-0.333 0.163,-0.513 0.094,-0.248 0.204,-0.496 0.326,-0.745 0.028,-0.068 0.058,-0.125 0.098,-0.165 0.013,-0.042 0.039,-0.069 0.067,-0.11 0.137,-0.263 0.288,-0.512 0.465,-0.748 0,-0.013 0,-0.028 0.013,-0.028 0.33,-0.482 0.697,-0.955 1.123,-1.382 l 0.013,-0.016 c 0.344,-0.386 0.742,-0.734 1.18,-1.053 0.015,-0.015 0.015,-0.015 0.029,-0.015 0.356,-0.276 0.742,-0.513 1.168,-0.709 0,-0.013 0,-0.013 0.015,-0.013 0.397,-0.195 0.811,-0.363 1.249,-0.489 h 0.014 z"
         id="path119" />
      <path
         inkscape:connector-curvature="0"
         style="fill:#043689"
         d="m 636.148,345.788 -0.015,-0.015 c -1.453,-1.204 -2.836,-1.831 -4.145,-1.893 -1.256,-0.09 -2.356,0.026 -3.293,0.32 -0.716,0.21 -1.596,0.271 -2.656,0.193 -0.39,-0.038 -0.774,-0.12 -1.162,-0.228 l 0.041,0.013 c -1.117,-0.352 -1.794,-0.996 -2.035,-1.946 l -2.261,0.011 c 0.23,1.998 1.439,3.341 3.633,4.034 0.015,0 0.015,0 0.026,0.013 0.512,0.15 1.036,0.243 1.546,0.296 0.012,-0.014 0.012,-0.014 0.026,0 1.395,0.101 2.551,0.014 3.486,-0.28 0.716,-0.21 1.543,-0.284 2.495,-0.221 h 0.013 c 0.399,0.04 0.995,0.189 1.78,0.46 -1.829,0.616 -3.342,1.34 -4.537,2.16 h 0.015 c -2.088,1.403 -3.499,3.297 -4.214,5.672 v 0.014 c -0.517,1.685 -0.481,3.062 0.102,4.122 0.53,1.113 1.61,1.907 3.252,2.354 h -0.015 c 1.835,0.514 3.366,0.106 4.557,-1.211 0.714,-0.79 1.495,-1.246 2.349,-1.403 h 0.015 c 0.936,-0.102 2.524,0.276 4.774,1.132 3.493,1.32 6.926,1.189 10.266,-0.383 l -1.949,-1.438 c -2.338,0.922 -4.709,0.908 -7.099,-0.059 -3.012,-1.21 -5.124,-1.683 -6.349,-1.428 -1.334,0.186 -2.545,0.882 -3.627,2.087 -0.616,0.651 -1.401,0.834 -2.341,0.578 -0.924,-0.257 -1.546,-0.667 -1.867,-1.23 -0.292,-0.646 -0.268,-1.475 0.042,-2.482 0.569,-1.877 1.679,-3.371 3.34,-4.496 1.389,-0.959 3.244,-1.836 5.554,-2.635 0.431,0.466 1.177,0.698 2.253,0.705 l -1.099,-1.758 c -0.237,-0.316 -0.485,-0.617 -0.749,-0.892 -0.042,-0.055 -0.098,-0.109 -0.138,-0.15 l -0.014,-0.016 z"
         id="path121" />
      <path
         inkscape:connector-curvature="0"
         style="fill:#043689"
         d="m 657.923,345.564 c 0.022,-1.035 -0.067,-2.207 -0.281,-3.515 l -2.245,0.013 c 0.24,1.293 0.343,2.451 0.322,3.457 v 0.014 c -0.032,1.846 -0.877,3.809 -2.561,5.899 l 1.743,1.244 0.778,-1.038 c 1.455,-1.633 2.201,-3.663 2.244,-6.074"
         id="path123" />
      <path
         inkscape:connector-curvature="0"
         style="fill:#0e5cab"
         d="m 632.079,326.926 c -0.328,0.512 -0.448,1.05 -0.375,1.641 0.112,0.579 0.349,1.142 0.695,1.706 0.349,0.426 0.748,0.81 1.221,1.179 0.648,0.507 1.438,0.972 2.351,1.367 0.013,0.013 0.026,0.013 0.054,0.027 0.705,0.355 1.271,0.766 1.73,1.231 l 0.013,0.014 c 1.247,1.275 2.014,2.719 2.283,4.331 v 0.027 c 0.014,0.013 0.014,0.042 0.014,0.083 l 0.015,0.041 c 0.1,0.647 0.131,1.28 0.092,1.901 l 0.013,2.219 c -0.883,-0.381 -1.619,-1.48 -2.223,-3.31 -2.406,-1.338 -4.588,-2.14 -6.559,-2.405 l -0.015,-0.013 c -1.945,-0.281 -3.816,-0.063 -5.633,0.65 -1.638,0.628 -2.624,1.791 -2.961,3.488 v 0.013 0.069 c -0.087,1.53 0.622,2.52 2.125,2.993 l -0.041,-0.014 c 0.388,0.109 0.772,0.19 1.16,0.229 1.062,0.078 1.942,0.017 2.658,-0.193 0.937,-0.294 2.037,-0.41 3.293,-0.32 1.309,0.062 2.691,0.689 4.145,1.893 l 0.015,0.015 0.015,0.013 c 0.04,0.042 0.094,0.097 0.138,0.151 0.264,0.274 0.512,0.576 0.749,0.891 l 1.099,1.759 c -1.076,-0.007 -1.822,-0.238 -2.253,-0.705 -2.31,0.798 -4.165,1.676 -5.554,2.634 -1.661,1.125 -2.769,2.619 -3.34,4.497 -0.31,1.007 -0.336,1.835 -0.042,2.482 0.321,0.563 0.943,0.973 1.867,1.229 0.939,0.258 1.725,0.074 2.341,-0.577 1.082,-1.205 2.293,-1.901 3.627,-2.087 1.225,-0.254 3.337,0.218 6.349,1.428 2.39,0.966 4.761,0.981 7.099,0.059 l 6.659,-4.887 -1.743,-1.244 c 1.684,-2.091 2.528,-4.053 2.561,-5.899 v -0.014 c 0.032,-1.296 -0.155,-2.839 -0.551,-4.614 -0.012,-0.056 -0.012,-0.111 -0.026,-0.152 l -0.118,-1.599 v -0.096 c 0.008,-0.924 0.225,-1.834 0.673,-2.704 0.354,-0.706 0.779,-1.342 1.286,-1.91 v -0.012 c 0.532,-0.623 1.096,-1.234 1.66,-1.801 v -0.014 c 0.409,-0.429 0.654,-0.899 0.724,-1.423 0.01,-0.193 -0.032,-0.373 -0.116,-0.55 l 0.015,0.026 c -0.097,-0.192 -0.235,-0.37 -0.39,-0.521 l -0.015,-0.014 c -0.289,-0.261 -0.607,-0.452 -0.952,-0.602 h -0.014 c -0.347,-0.15 -0.706,-0.244 -1.077,-0.312 h 0.013 c -0.536,-0.094 -1.087,-0.049 -1.625,0.133 h -0.015 c -0.438,0.126 -0.852,0.294 -1.249,0.489 -0.017,0 -0.017,0 -0.017,0.014 -0.424,0.196 -0.81,0.432 -1.166,0.709 -0.015,0 -0.015,0 -0.029,0.014 -0.438,0.319 -0.836,0.667 -1.18,1.053 l -0.013,0.015 c -0.426,0.428 -0.793,0.899 -1.123,1.383 -0.013,0 -0.013,0.015 -0.013,0.028 -0.177,0.235 -0.328,0.484 -0.465,0.748 -0.028,0.04 -0.055,0.068 -0.069,0.109 -0.041,0.042 -0.067,0.098 -0.096,0.166 -0.122,0.249 -0.232,0.499 -0.326,0.745 -0.069,0.18 -0.122,0.346 -0.163,0.513 -0.013,0.069 -0.041,0.125 -0.053,0.178 l 0.012,-0.068 c -0.096,0.316 -0.161,0.663 -0.199,1.007 -0.015,0.095 -0.015,0.192 -0.026,0.289 0,0.027 0,0.055 -0.015,0.097 -0.013,0.054 -0.013,0.108 -0.026,0.166 -0.013,0.122 -0.013,0.248 -0.024,0.372 l 0.019,3.569 c -1.04,-1.277 -1.823,-2.83 -2.327,-4.688 l 0.013,0.028 c -1.983,-5.048 -4.881,-8.451 -8.682,-10.237 -1.243,-0.572 -2.482,-0.717 -3.708,-0.435 h -0.015 c -0.785,0.183 -1.445,0.531 -1.951,1.044 -0.043,0.029 -0.127,0.113 -0.223,0.265"
         id="path125" />
    </g>
  </g>
</svg>
