<?xml version="1.0" encoding="UTF-8" standalone="no"?>
<!-- Created with Inkscape (http://www.inkscape.org/) -->

<svg
   xmlns:dc="http://purl.org/dc/elements/1.1/"
   xmlns:cc="http://creativecommons.org/ns#"
   xmlns:rdf="http://www.w3.org/1999/02/22-rdf-syntax-ns#"
   xmlns:svg="http://www.w3.org/2000/svg"
   xmlns="http://www.w3.org/2000/svg"
   xmlns:sodipodi="http://sodipodi.sourceforge.net/DTD/sodipodi-0.dtd"
   xmlns:inkscape="http://www.inkscape.org/namespaces/inkscape"
   width="160.7303"
   height="204.60562"
   id="svg5696"
   version="1.1"
   inkscape:version="0.48.4 r9939"
   sodipodi:docname="grover6.svg">
  <defs
     id="defs5698">
    <clipPath
       id="SVGID_2_">
      <rect
         height="88.862999"
         width="111.498"
         y="518.96198"
         x="382.04999"
         id="use1087" />
    </clipPath>
    <clipPath
       id="SVGID_4_">
      <rect
         height="41.314999"
         width="49.584999"
         y="525.19397"
         x="389.84698"
         id="use1111" />
    </clipPath>
  </defs>
  <sodipodi:namedview
     id="base"
     pagecolor="#ffffff"
     bordercolor="#666666"
     borderopacity="1.0"
     inkscape:pageopacity="0.0"
     inkscape:pageshadow="2"
     inkscape:zoom="0.77472527"
     inkscape:cx="195.6156"
     inkscape:cy="83.118863"
     inkscape:current-layer="layer1"
     inkscape:document-units="px"
     showgrid="false"
     inkscape:window-width="763"
     inkscape:window-height="591"
     inkscape:window-x="592"
     inkscape:window-y="97"
     inkscape:window-maximized="0"
     fit-margin-top="0"
     fit-margin-left="0"
     fit-margin-right="0"
     fit-margin-bottom="0" />
  <metadata
     id="metadata5701">
    <rdf:RDF>
      <cc:Work
         rdf:about="">
        <dc:format>image/svg+xml</dc:format>
        <dc:type
           rdf:resource="http://purl.org/dc/dcmitype/StillImage" />
        <dc:title></dc:title>
      </cc:Work>
    </rdf:RDF>
  </metadata>
  <g
     id="layer1"
     inkscape:label="Layer 1"
     inkscape:groupmode="layer"
     transform="translate(-122.3277,36.38037)">
    <g
       transform="translate(-149.00689,-307.56787)"
       id="g5">
      <path
         inkscape:connector-curvature="0"
         style="fill:#3793d1"
         d="m 330.799,335.916 c -0.083,-0.056 -0.165,-0.056 -0.304,0.027 -0.662,0.36 -0.551,0.36 0.304,-0.027"
         id="path7" />
      <path
         inkscape:connector-curvature="0"
         style="fill:#3793d1"
         d="m 341.402,335.364 c -1.961,-1.52 -4.75,-1.685 -8.422,-0.498 -0.966,0.469 -1.711,0.8 -2.181,1.05 0.359,0.193 0,1.849 -1.022,5.024 -0.801,2.375 -2.512,7.262 -5.163,14.69 -5.854,16.898 -9.057,29.848 -9.609,38.848 -0.635,10.189 2.045,18.253 8.008,24.243 2.596,2.598 5.578,4.476 8.919,5.634 3.286,1.133 6.599,1.464 9.885,0.966 3.396,-0.495 6.462,-1.822 9.141,-3.947 2.87,-2.291 5.08,-5.357 6.626,-9.14 3.616,-8.92 3.229,-20.515 -1.159,-34.846 -3.949,-12.896 -6.987,-22.449 -9.113,-28.635 -2.79,-8.005 -4.75,-12.479 -5.91,-13.389"
         id="path9" />
      <path
         inkscape:connector-curvature="0"
         style="fill:none;stroke:#043689;stroke-width:4.30749989;stroke-miterlimit:10"
         d="m 330.799,335.916 c -0.083,-0.056 -0.165,-0.056 -0.304,0.027 -0.662,0.36 -0.551,0.36 0.304,-0.027 z m 0,0 c 0.359,0.193 0,1.849 -1.022,5.024 -0.801,2.375 -2.512,7.262 -5.163,14.69 -5.854,16.898 -9.057,29.848 -9.609,38.848 -0.634,10.189 2.043,18.253 8.007,24.243 2.596,2.598 5.577,4.476 8.918,5.634 3.286,1.133 6.6,1.464 9.886,0.966 3.395,-0.495 6.461,-1.822 9.139,-3.947 2.87,-2.291 5.081,-5.357 6.626,-9.14 3.617,-8.92 3.229,-20.515 -1.159,-34.846 -3.95,-12.896 -6.988,-22.449 -9.114,-28.634 -2.789,-8.006 -4.748,-12.48 -5.908,-13.39 -1.961,-1.52 -4.75,-1.685 -8.422,-0.498 -0.963,0.469 -1.709,0.8 -2.179,1.05 z"
         id="path11" />
      <path
         inkscape:connector-curvature="0"
         style="fill:#3793d1"
         d="m 409.383,341.714 c -0.69,1.905 -0.967,3.313 -0.802,4.281 -0.249,-0.029 -0.8,-0.277 -1.602,-0.746 -0.993,-0.58 -1.767,-0.968 -2.291,-1.16 -2.127,-0.8 -3.784,-0.359 -4.972,1.381 -1.766,2.566 -1.848,4.362 -0.22,5.384 0.358,0.249 1.132,0.58 2.347,1.049 1.021,0.386 1.712,0.745 2.043,1.105 -12.342,13.888 -25.542,17.312 -39.54,10.271 -4.335,-2.181 -8.697,-5.356 -13.059,-9.553 -3.563,-3.784 -5.524,-5.771 -5.884,-5.966 l -1.131,9.333 c 0.166,0.028 1.988,1.795 5.496,5.33 4.472,3.949 9.084,6.931 13.833,8.892 15.38,6.378 30.511,2.015 45.366,-13.089 5.385,2.347 9.03,2.154 10.907,-0.58 0.635,-0.911 1.022,-2.043 1.104,-3.368 0.083,-0.939 0.028,-1.603 -0.137,-1.99 0.192,0.222 0.689,0.415 1.519,0.553 1.076,0.193 2.152,0.193 3.258,0.027 3.093,-0.469 4.5,-2.07 4.251,-4.776 -0.358,-3.921 -2.457,-5.964 -6.267,-6.103 -2.817,-0.11 -5.247,0.498 -7.29,1.796 0.027,-0.524 0.579,-1.298 1.657,-2.375 1.685,-1.685 2.678,-2.678 2.927,-2.983 2.235,-2.677 1.877,-4.97 -1.077,-6.82 -2.183,-1.352 -4.721,0.194 -7.648,4.639 -1.159,1.74 -2.098,3.563 -2.788,5.468"
         id="path13" />
      <path
         inkscape:connector-curvature="0"
         style="fill:none;stroke:#043689;stroke-width:4.30749989;stroke-miterlimit:10"
         d="m 420.842,352.289 c 0.193,0.221 0.689,0.415 1.519,0.553 1.077,0.193 2.153,0.193 3.258,0.028 3.094,-0.469 4.501,-2.071 4.252,-4.776 -0.358,-3.921 -2.457,-5.965 -6.267,-6.104 -2.817,-0.11 -5.247,0.498 -7.29,1.796 0.028,-0.525 0.579,-1.298 1.657,-2.375 1.685,-1.685 2.677,-2.678 2.927,-2.982 2.236,-2.678 1.878,-4.97 -1.077,-6.821 -2.183,-1.352 -4.722,0.194 -7.648,4.639 -1.161,1.74 -2.1,3.563 -2.788,5.468 -0.691,1.904 -0.967,3.312 -0.803,4.28 -0.248,-0.028 -0.799,-0.276 -1.601,-0.747 -0.994,-0.579 -1.768,-0.966 -2.292,-1.16 -2.127,-0.799 -3.783,-0.358 -4.971,1.381 -1.766,2.567 -1.848,4.363 -0.221,5.386 0.359,0.248 1.133,0.579 2.347,1.048 1.022,0.386 1.712,0.745 2.044,1.104 -12.342,13.889 -25.542,17.312 -39.541,10.271 -4.335,-2.181 -8.697,-5.356 -13.06,-9.554 -3.562,-3.783 -5.523,-5.771 -5.883,-5.964 m 75.356,4.364 c 0.026,0.056 0.056,0.11 0.082,0.165 m -76.568,4.804 c 0.166,0.028 1.988,1.794 5.495,5.329 4.473,3.95 9.084,6.931 13.833,8.892 15.38,6.378 30.51,2.015 45.366,-13.088 5.385,2.346 9.029,2.154 10.906,-0.58 0.636,-0.912 1.022,-2.045 1.105,-3.369 0.082,-0.938 0.027,-1.602 -0.139,-1.989"
         id="path15" />
      <path
         inkscape:connector-curvature="0"
         style="fill:#3793d1"
         d="m 325.277,419.937 c -2.457,5.827 -3.921,12.896 -4.363,21.206 -0.386,7.181 -0.027,12.51 1.105,16.015 -9.25,-0.165 -16.264,1.023 -21.096,3.562 -2.044,1.079 -3.423,2.322 -4.169,3.703 -0.717,1.296 -0.746,2.595 -0.109,3.865 1.435,2.842 5.245,4.583 11.458,5.162 7.235,0.689 15.932,-0.497 26.066,-3.617 0.442,-0.139 0.331,-1.38 -0.331,-3.727 -1.326,-4.832 -2.181,-8.092 -2.541,-9.774 -2.568,-11.653 -2.899,-23.415 -0.994,-35.315 l -5.026,-1.08 z"
         id="path17" />
      <path
         inkscape:connector-curvature="0"
         style="fill:none;stroke:#043689;stroke-width:4.30749989;stroke-miterlimit:10"
         d="m 330.302,421.016 c -1.904,11.9 -1.574,23.662 0.994,35.315 0.36,1.683 1.215,4.942 2.542,9.774 0.662,2.347 0.772,3.588 0.331,3.727 -10.134,3.12 -18.832,4.307 -26.067,3.617 -6.212,-0.579 -10.021,-2.32 -11.458,-5.162 -0.636,-1.271 -0.607,-2.569 0.11,-3.865 0.746,-1.381 2.126,-2.624 4.17,-3.703 4.832,-2.538 11.845,-3.729 21.096,-3.562 -1.132,-3.505 -1.492,-8.834 -1.105,-16.015 0.441,-8.311 1.905,-15.379 4.362,-21.206"
         id="path19" />
      <path
         inkscape:connector-curvature="0"
         style="fill:#3793d1"
         d="m 354.021,441.143 c -0.471,-8.311 -1.905,-15.379 -4.363,-21.206 l -5.025,1.079 c 1.905,11.9 1.574,23.662 -0.994,35.315 -0.359,1.656 -1.216,4.914 -2.569,9.774 -0.662,2.347 -0.773,3.588 -0.331,3.727 10.134,3.12 18.832,4.307 26.065,3.617 6.184,-0.579 9.997,-2.32 11.458,-5.164 0.636,-1.271 0.608,-2.567 -0.109,-3.863 -0.747,-1.381 -2.127,-2.624 -4.17,-3.703 -4.806,-2.538 -11.817,-3.727 -21.068,-3.562 1.134,-3.476 1.493,-8.807 1.106,-16.014"
         id="path21" />
      <path
         inkscape:connector-curvature="0"
         style="fill:none;stroke:#043689;stroke-width:4.30749989;stroke-miterlimit:10"
         d="m 344.633,421.016 c 1.905,11.9 1.574,23.662 -0.995,35.315 -0.358,1.656 -1.214,4.914 -2.567,9.774 -0.662,2.347 -0.773,3.588 -0.332,3.727 10.134,3.12 18.832,4.307 26.066,3.617 6.186,-0.579 9.996,-2.32 11.458,-5.162 0.636,-1.271 0.607,-2.569 -0.109,-3.865 -0.747,-1.381 -2.127,-2.624 -4.17,-3.703 -4.805,-2.538 -11.817,-3.729 -21.068,-3.562 1.132,-3.477 1.49,-8.808 1.105,-16.015 -0.471,-8.311 -1.906,-15.379 -4.363,-21.206"
         id="path23" />
      <path
         inkscape:connector-curvature="0"
         style="fill:#3793d1"
         d="m 333.175,357.452 c 0.772,-0.414 0.772,-1.712 0.027,-3.92 -0.745,-2.237 -1.381,-3.231 -1.932,-2.982 -13.724,5.853 -24.768,14.855 -33.135,27.004 -2.595,3.728 -4.803,7.593 -6.599,11.596 -0.883,1.961 -1.546,3.562 -1.96,4.778 -3.811,-0.857 -7.069,-0.498 -9.747,1.021 -2.237,1.296 -3.948,3.284 -5.082,5.991 -0.966,2.347 -1.38,4.693 -1.214,7.04 0.166,2.294 0.801,3.7 1.878,4.225 l 20.35,-12.592 c 1.85,-4.555 3.312,-7.95 4.334,-10.243 1.795,-3.948 3.728,-7.372 5.854,-10.299 5.66,-7.813 14.745,-15.019 27.226,-21.619"
         id="path25" />
      <path
         inkscape:connector-curvature="0"
         style="fill:#3793d1"
         d="m 285.903,415.687 c 0.166,-3.452 0.276,-5.523 0.359,-6.157 0.192,4.416 0.552,7.618 1.077,9.635 0.911,3.258 2.401,4.667 4.528,4.198 0.939,-0.193 1.546,-2.043 1.85,-5.521 0.276,-3.176 0.222,-5.274 -0.165,-6.296 0.911,1.572 1.823,2.871 2.789,3.837 1.519,1.52 2.706,1.739 3.589,0.718 1.215,-1.464 0.967,-4.555 -0.718,-9.223 -1.408,-3.838 -2.567,-6.266 -3.45,-7.263 l -15.988,9.915 c -0.026,1.103 0.028,2.208 0.166,3.341 0.524,4.196 1.794,6.461 3.837,6.818 1.076,0.386 1.795,-0.939 2.126,-4.002"
         id="path27" />
      <path
         inkscape:connector-curvature="0"
         style="fill:#3793d1"
         d="m 279.772,409.529 c 0,-0.388 0,-0.773 0.028,-1.16 0.027,-0.691 0.083,-1.242 0.166,-1.658 -0.194,0.691 -0.415,1.742 -0.664,3.093 l 0.47,-0.275 z"
         id="path29" />
      <path
         inkscape:connector-curvature="0"
         style="fill:#3793d1"
         d="m 279.303,409.804 -3.893,2.402 c 1.823,0.856 3.064,0.332 3.755,-1.601 0.056,-0.277 0.111,-0.552 0.138,-0.801"
         id="path31" />
      <path
         inkscape:connector-curvature="0"
         style="fill:none;stroke:#043689;stroke-width:4.30749989;stroke-miterlimit:10"
         d="m 295.761,399.614 c 1.85,-4.555 3.312,-7.95 4.334,-10.243 1.795,-3.948 3.728,-7.372 5.854,-10.299 5.661,-7.814 14.746,-15.021 27.227,-21.62 0.772,-0.413 0.772,-1.712 0.027,-3.92 -0.745,-2.237 -1.381,-3.231 -1.932,-2.982 -13.724,5.854 -24.768,14.855 -33.135,27.004 -2.595,3.728 -4.803,7.593 -6.599,11.596 -0.883,1.961 -1.546,3.562 -1.96,4.778 -3.811,-0.857 -7.069,-0.498 -9.747,1.021 -2.237,1.296 -3.948,3.284 -5.082,5.991 -0.966,2.347 -1.38,4.693 -1.214,7.04 0.166,2.294 0.801,3.7 1.878,4.225 m 4.554,-5.494 c -0.082,0.416 -0.138,0.967 -0.167,1.658 -0.083,1.519 -0.054,3.009 0.138,4.501 0.525,4.196 1.794,6.461 3.838,6.818 1.077,0.387 1.795,-0.938 2.126,-4.002 0.167,-3.452 0.276,-5.523 0.36,-6.157 0.192,4.418 0.552,7.618 1.076,9.635 0.911,3.258 2.401,4.667 4.529,4.198 0.939,-0.193 1.546,-2.043 1.85,-5.521 0.276,-3.176 0.221,-5.274 -0.166,-6.296 0.911,1.572 1.823,2.871 2.789,3.837 1.519,1.52 2.706,1.739 3.589,0.718 1.214,-1.464 0.967,-4.555 -0.718,-9.223 -1.408,-3.838 -2.566,-6.266 -3.45,-7.263 m -15.517,6.27 c -0.111,0.139 -0.194,0.413 -0.277,0.827 m -4.555,5.495 c 1.822,0.856 3.065,0.332 3.754,-1.601 0.306,-1.741 0.553,-3.038 0.802,-3.895"
         id="path33" />
      <path
         inkscape:connector-curvature="0"
         style="fill:#3793d1"
         d="m 364.182,284.944 c -7.454,-7.731 -17.119,-11.597 -29.02,-11.597 -11.983,0 -21.813,4.004 -29.517,12.039 -3.617,3.782 -6.351,8.173 -8.173,13.116 -1.85,5.107 -2.65,10.492 -2.348,16.153 0.636,12.01 4.446,21.896 11.432,29.656 7.372,8.199 16.925,12.286 28.605,12.286 11.763,0 21.427,-4.252 29.02,-12.785 7.262,-8.171 10.906,-18.168 10.906,-30.014 0.001,-11.679 -3.643,-21.289 -10.905,-28.854"
         id="path35" />
      <path
         inkscape:connector-curvature="0"
         style="fill:none;stroke:#043689;stroke-width:4.30749989;stroke-miterlimit:10"
         d="m 335.162,273.347 c -11.983,0 -21.813,4.004 -29.518,12.04 -3.617,3.782 -6.35,8.172 -8.172,13.115 -1.851,5.108 -2.65,10.493 -2.348,16.153 0.636,12.011 4.446,21.896 11.432,29.656 7.372,8.2 16.925,12.287 28.605,12.287 11.763,0 21.428,-4.252 29.02,-12.785 7.262,-8.173 10.907,-18.168 10.907,-30.014 0,-11.679 -3.645,-21.289 -10.907,-28.854 -7.453,-7.732 -17.118,-11.598 -29.019,-11.598 z"
         id="path37" />
      <path
         inkscape:connector-curvature="0"
         style="fill:#0e5cab"
         d="m 330.799,335.916 c -0.083,-0.056 -0.165,-0.056 -0.304,0.027 -0.662,0.36 -0.551,0.36 0.304,-0.027"
         id="path39" />
      <path
         inkscape:connector-curvature="0"
         style="fill:#0e5cab"
         d="m 341.402,335.364 c -1.961,-1.52 -4.75,-1.685 -8.422,-0.498 -0.966,0.469 -1.711,0.8 -2.181,1.05 0.359,0.193 0,1.849 -1.022,5.024 -0.801,2.375 -2.512,7.262 -5.163,14.69 -5.854,16.898 -9.057,29.848 -9.609,38.848 -0.635,10.189 2.045,18.253 8.008,24.243 2.596,2.598 5.578,4.476 8.919,5.634 3.286,1.133 6.599,1.464 9.885,0.966 3.396,-0.495 6.462,-1.822 9.141,-3.947 2.87,-2.291 5.08,-5.357 6.626,-9.14 3.616,-8.92 3.229,-20.515 -1.159,-34.846 -3.949,-12.896 -6.987,-22.449 -9.113,-28.635 -2.79,-8.005 -4.75,-12.479 -5.91,-13.389"
         id="path41" />
      <path
         inkscape:connector-curvature="0"
         style="fill:#0e5cab"
         d="m 409.383,341.714 c -0.69,1.905 -0.967,3.313 -0.802,4.281 -0.249,-0.029 -0.8,-0.277 -1.602,-0.746 -0.993,-0.58 -1.767,-0.968 -2.291,-1.16 -2.127,-0.8 -3.784,-0.359 -4.972,1.381 -1.766,2.566 -1.848,4.362 -0.22,5.384 0.358,0.249 1.132,0.58 2.347,1.049 1.021,0.386 1.712,0.745 2.043,1.105 -12.342,13.888 -25.542,17.312 -39.54,10.271 -4.335,-2.181 -8.697,-5.356 -13.059,-9.553 -3.563,-3.784 -5.524,-5.771 -5.884,-5.966 l -1.131,9.333 c 0.166,0.028 1.988,1.795 5.496,5.33 4.472,3.949 9.084,6.931 13.833,8.892 15.38,6.378 30.511,2.015 45.366,-13.089 5.385,2.347 9.03,2.154 10.907,-0.58 0.635,-0.911 1.022,-2.043 1.104,-3.368 0.083,-0.939 0.028,-1.603 -0.137,-1.99 0.192,0.222 0.689,0.415 1.519,0.553 1.076,0.193 2.152,0.193 3.258,0.027 3.093,-0.469 4.5,-2.07 4.251,-4.776 -0.358,-3.921 -2.457,-5.964 -6.267,-6.103 -2.817,-0.11 -5.247,0.498 -7.29,1.796 0.027,-0.524 0.579,-1.298 1.657,-2.375 1.685,-1.685 2.678,-2.678 2.927,-2.983 2.235,-2.677 1.877,-4.97 -1.077,-6.82 -2.183,-1.352 -4.721,0.194 -7.648,4.639 -1.159,1.74 -2.098,3.563 -2.788,5.468"
         id="path43" />
      <path
         inkscape:connector-curvature="0"
         style="fill:#0e5cab"
         d="m 325.277,419.937 c -2.457,5.827 -3.921,12.896 -4.363,21.206 -0.386,7.181 -0.027,12.51 1.105,16.015 -9.25,-0.165 -16.264,1.023 -21.096,3.562 -2.044,1.079 -3.423,2.322 -4.169,3.703 -0.717,1.296 -0.746,2.595 -0.109,3.865 1.435,2.842 5.245,4.583 11.458,5.162 7.235,0.689 15.932,-0.497 26.066,-3.617 0.442,-0.139 0.331,-1.38 -0.331,-3.727 -1.326,-4.832 -2.181,-8.092 -2.541,-9.774 -2.568,-11.653 -2.899,-23.415 -0.994,-35.315 l -5.026,-1.08 z"
         id="path45" />
      <path
         inkscape:connector-curvature="0"
         style="fill:#0e5cab"
         d="m 354.021,441.143 c -0.471,-8.311 -1.905,-15.379 -4.363,-21.206 l -5.025,1.079 c 1.905,11.9 1.574,23.662 -0.994,35.315 -0.359,1.656 -1.216,4.914 -2.569,9.774 -0.662,2.347 -0.773,3.588 -0.331,3.727 10.134,3.12 18.832,4.307 26.065,3.617 6.184,-0.579 9.997,-2.32 11.458,-5.164 0.636,-1.271 0.608,-2.567 -0.109,-3.863 -0.747,-1.381 -2.127,-2.624 -4.17,-3.703 -4.806,-2.538 -11.817,-3.727 -21.068,-3.562 1.134,-3.476 1.493,-8.807 1.106,-16.014"
         id="path47" />
      <path
         inkscape:connector-curvature="0"
         style="fill:#0e5cab"
         d="m 333.175,357.452 c 0.772,-0.414 0.772,-1.712 0.027,-3.92 -0.745,-2.237 -1.381,-3.231 -1.932,-2.982 -13.724,5.853 -24.768,14.855 -33.135,27.004 -2.595,3.728 -4.803,7.593 -6.599,11.596 -0.883,1.961 -1.546,3.562 -1.96,4.778 -3.811,-0.857 -7.069,-0.498 -9.747,1.021 -2.237,1.296 -3.948,3.284 -5.082,5.991 -0.966,2.347 -1.38,4.693 -1.214,7.04 0.166,2.294 0.801,3.7 1.878,4.225 l 20.35,-12.592 c 1.85,-4.555 3.312,-7.95 4.334,-10.243 1.795,-3.948 3.728,-7.372 5.854,-10.299 5.66,-7.813 14.745,-15.019 27.226,-21.619"
         id="path49" />
      <path
         inkscape:connector-curvature="0"
         style="fill:#0e5cab"
         d="m 285.903,415.687 c 0.166,-3.452 0.276,-5.523 0.359,-6.157 0.192,4.416 0.552,7.618 1.077,9.635 0.911,3.258 2.401,4.667 4.528,4.198 0.939,-0.193 1.546,-2.043 1.85,-5.521 0.276,-3.176 0.222,-5.274 -0.165,-6.296 0.911,1.572 1.823,2.871 2.789,3.837 1.519,1.52 2.706,1.739 3.589,0.718 1.215,-1.464 0.967,-4.555 -0.718,-9.223 -1.408,-3.838 -2.567,-6.266 -3.45,-7.263 l -15.988,9.915 c -0.026,1.103 0.028,2.208 0.166,3.341 0.524,4.196 1.794,6.461 3.837,6.818 1.076,0.386 1.795,-0.939 2.126,-4.002"
         id="path51" />
      <path
         inkscape:connector-curvature="0"
         style="fill:#0e5cab"
         d="m 279.772,409.529 c 0,-0.388 0,-0.773 0.028,-1.16 0.027,-0.691 0.083,-1.242 0.166,-1.658 -0.194,0.691 -0.415,1.742 -0.664,3.093 l 0.47,-0.275 z"
         id="path53" />
      <path
         inkscape:connector-curvature="0"
         style="fill:#0e5cab"
         d="m 279.303,409.804 -3.893,2.402 c 1.823,0.856 3.064,0.332 3.755,-1.601 0.056,-0.277 0.111,-0.552 0.138,-0.801"
         id="path55" />
      <path
         inkscape:connector-curvature="0"
         style="fill:#0e5cab"
         d="m 364.182,284.778 c -7.454,-7.732 -17.119,-11.597 -29.02,-11.597 -11.956,0 -21.786,4.003 -29.49,12.039 -7.593,7.924 -10.659,17.241 -10.659,29.142 0,10.996 4.712,22.253 12.813,31.08 3.528,3.844 8.172,6.268 13.003,8.172 4.724,1.879 9.5,2.818 14.332,2.818 11.763,0 21.427,-4.252 29.02,-12.784 7.262,-8.201 10.906,-18.197 10.906,-30.043 0.001,-11.651 -3.643,-21.261 -10.905,-28.827"
         id="path57" />
      <path
         inkscape:connector-curvature="0"
         style="fill:#d8272a"
         d="m 348.306,303.886 c -5.633,-0.194 -10.3,-0.525 -13.971,-1.049 -16.043,-2.238 -26.73,-1.105 -32.058,3.423 -3.755,3.176 -4.999,8.506 -3.755,15.988 0.524,3.23 1.711,6.517 3.561,9.802 2.071,3.729 4.667,6.986 7.841,9.775 7.981,6.93 17.92,9.774 29.877,8.531 11.073,-1.159 19.66,-6.213 25.734,-15.186 2.43,-3.59 4.225,-7.483 5.357,-11.708 1.02,-3.811 1.407,-7.318 1.131,-10.52 -0.249,-2.817 -1.437,-4.888 -3.59,-6.242 -1.793,-1.131 -4.583,-1.904 -8.337,-2.291 -1.63,-0.137 -5.551,-0.329 -11.79,-0.523"
         id="path59" />
      <path
         inkscape:connector-curvature="0"
         style="fill:#1c1616"
         d="m 346.042,305.018 c -5.523,0.358 -9.691,0.608 -12.536,0.745 -8.56,0.443 -14.772,1.077 -18.61,1.905 -7.98,1.74 -11.763,4.723 -11.404,8.892 0.249,2.734 0.994,5.576 2.292,8.532 1.519,3.451 3.535,6.488 6.076,9.139 6.543,6.82 15.324,9.941 26.341,9.388 9.968,-0.497 17.947,-4.666 23.938,-12.508 2.375,-3.121 4.171,-6.489 5.357,-10.133 1.077,-3.314 1.519,-6.267 1.298,-8.891 -0.36,-4.252 -4.225,-6.627 -11.598,-7.151 -2.733,-0.194 -6.461,-0.167 -11.154,0.082"
         id="path61" />
      <path
         inkscape:connector-curvature="0"
         style="fill:#0e5cab"
         d="m 303.299,294.746 c -1.934,2.458 -3.562,4.778 -4.889,6.931 -4.224,6.93 -4.61,11.045 -1.159,12.37 3.892,4.335 9.084,7.649 15.571,9.94 6.159,2.154 13.007,3.203 20.49,3.148 7.427,-0.083 14.717,-1.243 21.896,-3.48 7.482,-2.319 14.109,-5.605 19.879,-9.858 l -14.826,-27.997 -54.45,5.909 -2.512,3.037 z"
         id="path63" />
      <path
         inkscape:connector-curvature="0"
         style="fill:#ffffff"
         d="m 329.419,309.077 c 2.07,-2.568 2.789,-5.273 2.098,-8.063 -0.663,-2.789 -2.513,-4.888 -5.522,-6.24 -3.01,-1.38 -6.323,-1.629 -9.94,-0.774 -3.589,0.857 -6.405,2.597 -8.477,5.191 -2.071,2.568 -2.788,5.275 -2.125,8.063 0.689,2.789 2.541,4.887 5.55,6.24 3.01,1.38 6.323,1.628 9.912,0.772 3.616,-0.853 6.433,-2.593 8.504,-5.189"
         id="path65" />
      <path
         inkscape:connector-curvature="0"
         style="fill:#ffffff"
         d="m 345.71,294.774 c -3.01,1.353 -4.86,3.451 -5.55,6.24 -0.664,2.789 0.054,5.495 2.126,8.063 2.071,2.594 4.886,4.335 8.476,5.189 3.618,0.856 6.931,0.608 9.941,-0.771 3.009,-1.354 4.86,-3.452 5.522,-6.242 0.689,-2.788 -0.028,-5.495 -2.099,-8.063 -2.071,-2.594 -4.886,-4.334 -8.504,-5.19 -3.588,-0.855 -6.901,-0.607 -9.912,0.774"
         id="path67" />
      <path
         inkscape:connector-curvature="0"
         style="fill:#1c1616"
         d="m 328.867,304.907 c 0.248,-1.905 -0.222,-3.589 -1.408,-5.108 -1.188,-1.518 -2.733,-2.375 -4.64,-2.596 -1.905,-0.248 -3.589,0.221 -5.108,1.409 -1.519,1.187 -2.375,2.732 -2.623,4.639 -0.221,1.905 0.248,3.617 1.435,5.108 1.188,1.519 2.735,2.375 4.639,2.624 1.905,0.247 3.589,-0.249 5.108,-1.436 1.52,-1.188 2.375,-2.735 2.597,-4.64"
         id="path69" />
      <path
         inkscape:connector-curvature="0"
         style="fill:#1c1616"
         d="m 345.488,298.308 c -1.518,1.188 -2.375,2.734 -2.622,4.639 -0.221,1.905 0.248,3.618 1.435,5.108 1.187,1.52 2.734,2.375 4.639,2.624 1.906,0.221 3.617,-0.249 5.108,-1.437 1.519,-1.187 2.375,-2.733 2.623,-4.638 0.222,-1.905 -0.248,-3.618 -1.436,-5.108 -1.187,-1.52 -2.733,-2.375 -4.639,-2.597 -1.904,-0.248 -3.589,0.222 -5.108,1.409"
         id="path71" />
      <path
         inkscape:connector-curvature="0"
         style="fill:#db5284"
         d="m 343.859,308.856 c -2.235,-2.292 -4.97,-3.424 -8.146,-3.424 -3.174,0 -5.881,1.132 -8.116,3.424 -2.237,2.292 -3.37,5.081 -3.37,8.311 0,3.231 1.133,6.021 3.37,8.312 2.235,2.292 4.942,3.425 8.116,3.425 3.176,0 5.911,-1.133 8.146,-3.425 2.237,-2.291 3.37,-5.081 3.37,-8.312 0,-3.23 -1.133,-6.019 -3.37,-8.311"
         id="path73" />
    </g>
  </g>
</svg>
