<?xml version="1.0" encoding="UTF-8" standalone="no"?>
<!-- Created with Inkscape (http://www.inkscape.org/) -->

<svg
   xmlns:dc="http://purl.org/dc/elements/1.1/"
   xmlns:cc="http://creativecommons.org/ns#"
   xmlns:rdf="http://www.w3.org/1999/02/22-rdf-syntax-ns#"
   xmlns:svg="http://www.w3.org/2000/svg"
   xmlns="http://www.w3.org/2000/svg"
   xmlns:sodipodi="http://sodipodi.sourceforge.net/DTD/sodipodi-0.dtd"
   xmlns:inkscape="http://www.inkscape.org/namespaces/inkscape"
   width="114.99689"
   height="203.01907"
   id="svg5696"
   version="1.1"
   inkscape:version="0.48.4 r9939"
   sodipodi:docname="ernie15.svg">
  <defs
     id="defs5698">
    <clipPath
       id="SVGID_2_">
      <rect
         height="88.862999"
         width="111.498"
         y="518.96198"
         x="382.04999"
         id="use1087" />
    </clipPath>
    <clipPath
       id="SVGID_4_">
      <rect
         height="41.314999"
         width="49.584999"
         y="525.19397"
         x="389.84698"
         id="use1111" />
    </clipPath>
  </defs>
  <sodipodi:namedview
     id="base"
     pagecolor="#ffffff"
     bordercolor="#666666"
     borderopacity="1.0"
     inkscape:pageopacity="0.0"
     inkscape:pageshadow="2"
     inkscape:zoom="0.77472527"
     inkscape:cx="-91.484856"
     inkscape:cy="191.09144"
     inkscape:current-layer="layer1"
     inkscape:document-units="px"
     showgrid="false"
     inkscape:window-width="763"
     inkscape:window-height="591"
     inkscape:window-x="592"
     inkscape:window-y="97"
     inkscape:window-maximized="0"
     fit-margin-top="0"
     fit-margin-left="0"
     fit-margin-right="0"
     fit-margin-bottom="0" />
  <metadata
     id="metadata5701">
    <rdf:RDF>
      <cc:Work
         rdf:about="">
        <dc:format>image/svg+xml</dc:format>
        <dc:type
           rdf:resource="http://purl.org/dc/dcmitype/StillImage" />
        <dc:title></dc:title>
      </cc:Work>
    </rdf:RDF>
  </metadata>
  <g
     id="layer1"
     inkscape:label="Layer 1"
     inkscape:groupmode="layer"
     transform="translate(-409.42815,-73.178758)">
    <g
       transform="translate(303.53614,35.889292)"
       id="g273">
      <path
         inkscape:connector-curvature="0"
         style="fill:#0e5cab"
         d="m 150.621,126.281 c -1.025,0.767 -2.036,1.545 -3.044,2.336 -1.243,0.979 -2.435,2.036 -3.561,3.151 -1.055,1.035 -2.032,2.128 -2.946,3.268 -0.857,1.062 -1.635,2.167 -2.342,3.301 -0.814,1.333 -1.521,2.748 -2.107,4.213 -0.535,1.347 -0.917,2.782 -1.146,4.305 -0.134,0.869 -0.159,1.722 -0.084,2.586 0.044,0.48 0.187,0.96 0.436,1.423 0.768,1.401 1.804,2.553 3.108,3.456 1.322,0.929 2.74,1.661 4.259,2.226 1.311,0.486 3.131,0.935 5.453,1.379 5.918,-0.988 7.887,-3.621 5.919,-7.917 -3.85,-0.437 -6.86,-1.306 -9.031,-2.607 l -0.357,1.056 -1.198,-0.751 c -1.201,-0.864 -1.727,-2.51 -1.564,-4.942 l 0.594,0.899 c 0.506,0.772 1.196,1.476 2.058,2.111 2.7,-5.818 7.393,-10.518 14.066,-14.067 l -3.972,-8.545 c -0.392,0.254 -0.786,0.509 -1.177,0.776 -1.139,0.755 -2.261,1.537 -3.364,2.343"
         id="path275" />
      <path
         inkscape:connector-curvature="0"
         style="fill:#043689"
         d="m 143.008,143.663 -0.594,-0.898 c -0.163,2.432 0.363,4.078 1.564,4.941 l 1.198,0.751 0.357,-1.056 0.607,-0.856 -0.888,-0.632 c -0.077,-0.043 -0.14,-0.089 -0.188,-0.139 -0.86,-0.635 -1.55,-1.338 -2.056,-2.111"
         id="path277" />
      <path
         inkscape:connector-curvature="0"
         style="fill:none;stroke:#043689;stroke-width:2.20160007;stroke-linecap:round;stroke-linejoin:round;stroke-miterlimit:10"
         d="m 145.065,145.774 c 2.701,-5.818 7.393,-10.518 14.066,-14.067 l -3.972,-8.543 c -0.392,0.253 -0.786,0.507 -1.177,0.774 -1.138,0.756 -2.26,1.537 -3.363,2.343 -1.025,0.767 -2.036,1.545 -3.044,2.337 -1.243,0.979 -2.435,2.035 -3.561,3.151 -1.055,1.035 -2.032,2.128 -2.946,3.267 -0.857,1.062 -1.635,2.167 -2.342,3.302 -0.814,1.333 -1.521,2.748 -2.107,4.213 -0.535,1.348 -0.917,2.782 -1.147,4.306 -0.134,0.869 -0.158,1.722 -0.084,2.586 0.044,0.48 0.186,0.96 0.436,1.423 0.768,1.401 1.803,2.553 3.108,3.457 1.323,0.928 2.74,1.662 4.259,2.227 1.311,0.484 3.132,0.933 5.453,1.377 m 5.921,-7.918 c -3.85,-0.437 -6.86,-1.306 -9.031,-2.607"
         id="path279" />
      <path
         inkscape:connector-curvature="0"
         style="fill:#043689"
         d="m 161.79,153.496 0.002,0.014 c -1.586,-2.099 -3.935,-3.63 -7.046,-4.594 l -1.154,-0.191 -0.638,2.068 0.353,0.108 0.764,0.221 c 2.589,0.809 4.563,2.074 5.887,3.789 0.454,0.59 0.797,1.312 1.044,2.181 l 0.002,0.015 c 0.592,2.102 0.973,4.236 1.138,6.402 l 0.014,-0.002 c 0.14,2.098 -0.137,4.141 -0.819,6.114 l -0.014,0.002 c -0.446,1.308 -1.176,2.383 -2.19,3.222 l -0.001,-0.015 c -0.105,0.074 -0.212,0.148 -0.319,0.208 l -0.318,0.121 c -0.263,0.083 -0.536,0.125 -0.844,0.112 0.04,-0.021 0.093,-0.058 0.129,-0.107 0.7,-0.88 1.063,-1.869 1.099,-2.985 0.033,-1.042 -0.435,-2.214 -1.378,-3.533 0.023,1.034 -0.043,1.949 -0.229,2.751 -0.197,0.921 -0.583,1.753 -1.154,2.525 -0.377,0.51 -0.833,0.872 -1.381,1.115 -0.814,0.517 -1.829,0.567 -3.047,0.137 0.061,-0.083 0.121,-0.166 0.181,-0.248 0.612,-0.691 1.048,-1.677 1.327,-2.931 0.184,-1.211 -0.073,-2.429 -0.802,-3.679 -0.308,2.808 -1.189,4.621 -2.629,5.437 -0.262,0.2 -0.529,0.372 -0.8,0.514 -0.055,0.023 -0.11,0.047 -0.15,0.067 -0.668,0.319 -1.402,0.488 -2.174,0.503 -0.017,-0.013 -0.031,-0.01 -0.045,-0.008 -0.428,-0.022 -0.823,-0.124 -1.173,-0.321 -2.472,-1.38 -3.456,-3.454 -2.979,-6.199 0.023,-0.047 0.045,-0.094 0.068,-0.142 l 0.002,0.015 c 0.419,-0.998 1.182,-1.463 2.288,-1.396 0.019,0.128 0.104,0.496 0.266,1.085 -0.983,0.557 -1.453,1.606 -1.383,3.145 0.854,-1.312 1.541,-1.795 2.079,-1.423 0.81,0.916 2.061,1.268 3.764,1.025 l -0.798,-0.829 c -0.614,-0.492 -0.984,-1.005 -1.136,-1.538 -0.151,-0.518 -0.239,-0.812 -0.26,-0.853 -0.025,-0.069 -0.036,-0.14 -0.06,-0.209 l -0.003,-0.016 c -0.705,-2.552 -0.447,-5.017 0.761,-7.375 l 0.533,-1.029 -0.88,-0.115 -1.429,-0.181 c -1.141,2.028 -1.703,4.027 -1.686,5.981 -1.978,-0.038 -3.359,0.885 -4.161,2.744 -0.097,0.132 -0.161,0.287 -0.195,0.454 -0.792,3.961 0.575,6.926 4.083,8.882 l 0.014,-0.002 c 0.685,0.379 1.431,0.574 2.254,0.61 0.014,-0.002 0.028,-0.004 0.042,-0.007 0.962,-0.013 1.872,-0.179 2.742,-0.514 2.569,1.439 4.673,1.635 6.326,0.583 1.981,0.739 3.618,0.551 4.923,-0.581 l 0.015,-0.002 c 1.336,-1.121 2.292,-2.536 2.897,-4.248 l 0.002,0.014 c 0.784,-2.266 1.102,-4.623 0.942,-7.038 l -10e-4,-0.014 c -0.161,-2.328 -0.578,-4.618 -1.223,-6.873 -0.342,-1.188 -0.825,-2.167 -1.442,-2.966"
         id="path281" />
      <path
         inkscape:connector-curvature="0"
         style="fill:#0e5cab"
         d="m 153.306,150.9 c -0.096,0.043 -0.206,0.089 -0.328,0.151 -0.467,0.392 -0.849,0.668 -1.16,0.832 -0.324,0.18 -0.819,0.679 -1.469,1.507 -0.667,0.904 -1.094,1.464 -1.252,1.678 -0.207,0.279 -0.553,0.696 -1.057,1.226 -0.126,0.136 -0.239,0.256 -0.356,0.36 l 0.88,0.117 -0.533,1.029 c -1.208,2.358 -1.465,4.822 -0.76,7.375 l 0.003,0.015 c 0.024,0.069 0.035,0.141 0.061,0.209 0.021,0.041 0.108,0.335 0.259,0.853 0.152,0.532 0.522,1.047 1.137,1.539 l 0.797,0.829 c -1.703,0.242 -2.954,-0.11 -3.763,-1.026 -0.538,-0.372 -1.225,0.112 -2.08,1.423 -0.071,-1.538 0.399,-2.588 1.383,-3.145 -0.162,-0.589 -0.247,-0.957 -0.266,-1.085 -1.106,-0.067 -1.869,0.398 -2.288,1.396 l -0.002,-0.015 c -0.023,0.048 -0.045,0.095 -0.067,0.142 -0.478,2.746 0.506,4.818 2.978,6.199 0.352,0.196 0.745,0.298 1.173,0.321 0.016,-0.002 0.029,-0.005 0.045,0.007 0.772,-0.014 1.506,-0.182 2.174,-0.502 0.041,-0.02 0.095,-0.044 0.15,-0.066 0.271,-0.143 0.537,-0.314 0.799,-0.515 1.441,-0.815 2.322,-2.628 2.631,-5.436 0.729,1.249 0.984,2.467 0.8,3.678 -0.278,1.254 -0.714,2.24 -1.326,2.931 -0.061,0.083 -0.122,0.165 -0.182,0.248 1.218,0.43 2.234,0.379 3.047,-0.138 0.548,-0.243 1.005,-0.604 1.381,-1.113 0.571,-0.773 0.957,-1.605 1.155,-2.526 0.185,-0.801 0.252,-1.718 0.229,-2.751 0.943,1.319 1.412,2.49 1.378,3.532 -0.037,1.116 -0.399,2.105 -1.099,2.984 -0.036,0.05 -0.089,0.087 -0.13,0.107 0.309,0.012 0.58,-0.029 0.844,-0.112 l 0.318,-0.121 c 0.109,-0.062 0.214,-0.135 0.32,-0.209 l 0.001,0.015 c 1.013,-0.839 1.743,-1.914 2.189,-3.222 l 0.014,-0.002 c 0.684,-1.973 0.959,-4.016 0.819,-6.112 l -0.014,0.002 c -0.166,-2.168 -0.544,-4.302 -1.138,-6.404 l -0.002,-0.015 c -0.247,-0.868 -0.59,-1.591 -1.044,-2.18 -1.324,-1.716 -3.297,-2.981 -5.887,-3.79 l -0.762,-0.22 z"
         id="path283" />
      <path
         inkscape:connector-curvature="0"
         style="fill:#0e5cab"
         d="m 154.368,150.444 c 1.872,-4.75 2.794,-9.61 2.78,-14.566 -0.069,-4.419 -1.403,-9.637 -3.979,-15.625 l 21.394,-9.582 c 2.644,3.153 4.64,5.59 5.989,7.282 3.58,4.475 6.828,9.156 9.732,14.056 2.878,4.874 5.067,10.051 6.554,15.516 1.334,4.914 1.913,9.911 1.719,14.978 -0.124,5.769 -1.403,11.248 -3.84,16.424 -2.574,5.466 -6.499,9.417 -11.784,11.854 -1.928,0.812 -3.924,1.321 -5.976,1.556 -1.28,0.124 -2.547,0.151 -3.8,0.097 -1.238,-0.042 -2.216,-0.097 -2.933,-0.166 -6.099,-0.811 -10.999,-3.303 -14.675,-7.489 -0.812,-1.004 -1.556,-2.12 -2.244,-3.332 -1.116,-1.982 -1.97,-4.075 -2.56,-6.264 -0.138,-0.51 -0.263,-1.02 -0.358,-1.528 -0.386,-2.093 -0.482,-4.185 -0.303,-6.292 0.083,-0.991 0.193,-1.982 0.33,-2.96 0.719,-4.337 2.04,-8.989 3.954,-13.959"
         id="path285" />
      <path
         inkscape:connector-curvature="0"
         style="fill:none;stroke:#043689;stroke-width:2.20300007;stroke-linecap:round;stroke-linejoin:round;stroke-miterlimit:10"
         d="m 154.368,150.444 c -1.914,4.97 -3.235,9.623 -3.952,13.958 -0.136,0.979 -0.247,1.97 -0.33,2.96 -0.179,2.107 -0.083,4.199 0.303,6.292 0.096,0.508 0.22,1.018 0.358,1.528 0.59,2.189 1.444,4.281 2.56,6.264 0.688,1.212 1.432,2.327 2.244,3.332 3.676,4.186 8.576,6.678 14.675,7.489 0.717,0.069 1.694,0.125 2.933,0.166 1.253,0.055 2.52,0.027 3.8,-0.097 2.051,-0.234 4.048,-0.744 5.976,-1.556 5.285,-2.437 9.209,-6.388 11.784,-11.854 2.437,-5.176 3.717,-10.655 3.84,-16.424 0.194,-5.066 -0.385,-10.063 -1.719,-14.978 -1.487,-5.465 -3.676,-10.643 -6.554,-15.516 -2.904,-4.9 -6.153,-9.582 -9.732,-14.056 -1.349,-1.692 -3.345,-4.129 -5.989,-7.282 l -21.394,9.582 c 2.576,5.988 3.91,11.206 3.979,15.625 0.013,4.957 -0.91,9.816 -2.782,14.567 z"
         id="path287" />
      <path
         inkscape:connector-curvature="0"
         style="fill:#0e5cab"
         d="m 167.244,183.753 h -8.724 c -3.126,11.392 -3.19,23.123 -0.183,35.181 -1.464,-0.039 -3.099,-0.013 -4.891,0.052 -5.48,0.223 -10.148,1.269 -13.981,3.152 -3.832,1.871 -5.728,4.042 -5.663,6.487 0.066,2.446 1.911,4.421 5.546,5.938 3.623,1.518 7.938,2.184 12.921,2.015 4.982,-0.184 11.665,-1.569 20.048,-4.159 0.328,-0.746 0.263,-1.909 -0.196,-3.465 -6.368,-16.795 -8.003,-31.86 -4.877,-45.201"
         id="path289" />
      <path
         inkscape:connector-curvature="0"
         style="fill:none;stroke:#043689;stroke-width:2.09229994;stroke-linecap:round;stroke-miterlimit:10"
         d="m 167.244,183.753 c -3.126,13.341 -1.491,28.406 4.878,45.2 0.459,1.556 0.523,2.719 0.196,3.465 -8.383,2.59 -15.066,3.976 -20.048,4.159 -4.983,0.169 -9.299,-0.497 -12.921,-2.015 -3.636,-1.517 -5.48,-3.491 -5.546,-5.938 -0.065,-2.445 1.832,-4.616 5.663,-6.487 3.833,-1.883 8.501,-2.929 13.981,-3.152 1.792,-0.065 3.427,-0.091 4.891,-0.052 -3.007,-12.058 -2.943,-23.79 0.183,-35.181 h 8.723 z"
         id="path291" />
      <path
         inkscape:connector-curvature="0"
         style="fill:#0e5cab"
         d="m 186.81,179.464 h -9.129 c -3.868,12.761 -3.744,26.473 0.399,41.122 -1.073,0 -2.216,0.027 -3.427,0.069 -5.768,0.232 -10.683,1.335 -14.718,3.317 -4.033,1.968 -6.029,4.253 -5.961,6.829 0.069,2.575 2.01,4.653 5.837,6.25 3.813,1.597 8.357,2.299 13.602,2.121 5.246,-0.194 12.28,-1.652 21.104,-4.378 0.345,-0.785 0.331,-1.955 -0.054,-3.497 -0.812,-2.712 -1.804,-5.273 -2.974,-7.682 -5.822,-13.726 -7.377,-28.443 -4.679,-44.151"
         id="path293" />
      <path
         inkscape:connector-curvature="0"
         style="fill:none;stroke:#043689;stroke-width:2.20300007;stroke-linecap:round;stroke-miterlimit:10"
         d="m 186.81,179.464 c -2.698,15.708 -1.143,30.424 4.681,44.15 1.169,2.409 2.161,4.97 2.974,7.682 0.385,1.542 0.399,2.712 0.054,3.497 -8.825,2.726 -15.859,4.185 -21.104,4.378 -5.245,0.178 -9.789,-0.524 -13.602,-2.121 -3.828,-1.597 -5.769,-3.675 -5.837,-6.25 -0.068,-2.575 1.928,-4.86 5.961,-6.829 4.035,-1.982 8.95,-3.085 14.718,-3.317 1.211,-0.042 2.354,-0.069 3.427,-0.069 -4.144,-14.649 -4.267,-28.361 -0.399,-41.122 h 9.127 z"
         id="path295" />
      <path
         inkscape:connector-curvature="0"
         style="fill:#0e5cab"
         d="m 112.334,59.252 c 5.526,-10.073 13.718,-16.559 24.563,-19.454 10.697,-2.854 20.881,-1.4 30.547,4.361 1.477,0.945 2.907,1.93 4.308,2.966 2.042,1.519 3.908,3.228 5.623,5.12 1.722,1.917 3.263,3.955 4.594,6.119 1.377,2.224 2.554,4.557 3.538,7.015 0.632,1.624 1.183,3.314 1.652,5.068 3.032,11.363 1.777,22.077 -3.746,32.163 -5.526,10.074 -13.705,16.556 -24.562,19.454 -10.844,2.894 -21.179,1.352 -30.99,-4.628 -9.814,-5.994 -16.24,-14.657 -19.272,-26.02 -3.032,-11.363 -1.777,-22.077 3.745,-32.164"
         id="path297" />
      <path
         inkscape:connector-curvature="0"
         style="fill:none;stroke:#043689;stroke-width:2.20090008;stroke-linecap:round;stroke-linejoin:round;stroke-miterlimit:10"
         d="m 136.896,39.799 c 10.698,-2.855 20.881,-1.4 30.547,4.361 1.476,0.945 2.908,1.93 4.309,2.966 2.042,1.519 3.908,3.228 5.623,5.12 1.722,1.917 3.262,3.955 4.595,6.119 1.376,2.224 2.554,4.557 3.538,7.015 0.632,1.624 1.183,3.314 1.652,5.068 3.032,11.363 1.776,22.077 -3.746,32.163 -5.526,10.074 -13.706,16.556 -24.563,19.454 -10.844,2.894 -21.179,1.352 -30.989,-4.628 -9.814,-5.994 -16.241,-14.657 -19.273,-26.02 -3.032,-11.363 -1.777,-22.077 3.745,-32.164 5.525,-10.074 13.718,-16.559 24.562,-19.454 z"
         id="path299" />
      <path
         inkscape:connector-curvature="0"
         style="fill:#282525"
         d="m 159.245,90.769 c -3.892,1.595 -7.864,3.008 -11.896,4.233 -4.035,1.213 -8.167,2.221 -12.419,3.019 -4.19,0.792 -8.748,0.994 -13.662,0.616 5.014,8.744 12.048,13.073 21.09,12.979 2.981,-0.021 6.02,-0.541 9.136,-1.562 0.02,-0.006 0.039,-0.012 0.059,-0.018 3.153,-0.84 6.011,-2.074 8.566,-3.697 7.849,-4.952 11.709,-12.642 11.569,-23.053 l -0.505,0.438 c -4.075,3.089 -8.051,5.437 -11.938,7.045"
         id="path301" />
      <path
         inkscape:connector-curvature="0"
         style="fill:#d8272a"
         d="m 175.895,79.635 -4.208,3.65 c 0.14,10.412 -3.719,18.102 -11.57,23.053 -2.554,1.623 -5.413,2.857 -8.565,3.697 -0.02,0.006 -0.038,0.012 -0.058,0.018 -3.116,1.021 -6.155,1.541 -9.136,1.562 -9.041,0.094 -16.076,-4.236 -21.09,-12.978 -0.075,-0.005 -0.15,-0.01 -0.226,-0.015 l -6.044,-0.893 c 6.239,14.044 15.344,21.147 27.316,21.279 3.509,0.055 7.089,-0.528 10.726,-1.732 0.03,-0.009 0.05,-0.014 0.069,-0.02 3.698,-0.975 7.041,-2.449 10.007,-4.427 10.147,-6.707 14.401,-17.779 12.779,-33.194"
         id="path303" />
      <path
         inkscape:connector-curvature="0"
         style="fill:#ffffff"
         d="m 123.366,66.727 c 2.53,0.734 4.404,2.369 5.617,4.937 1.199,2.57 1.372,5.3 0.537,8.198 -0.822,2.897 -2.439,5.108 -4.841,6.617 -2.381,1.532 -4.853,1.921 -7.401,1.178 -2.531,-0.734 -4.405,-2.369 -5.617,-4.937 -1.198,-2.569 -1.368,-5.287 -0.529,-8.172 0.822,-2.896 2.438,-5.107 4.833,-6.644 2.38,-1.532 4.853,-1.921 7.401,-1.177"
         id="path305" />
      <path
         inkscape:connector-curvature="0"
         style="fill:#ffffff"
         d="m 135.734,69.862 c -0.136,-2.855 0.937,-5.29 3.23,-7.312 2.268,-2.014 5.101,-3.026 8.467,-3.057 3.369,-0.016 6.297,0.982 8.776,3.011 2.47,2.004 3.773,4.432 3.909,7.285 0.135,2.854 -0.934,5.305 -3.223,7.338 -2.293,2.021 -5.127,3.034 -8.501,3.038 -3.356,0.013 -6.271,-0.989 -8.749,-3.018 -2.472,-2.003 -3.775,-4.432 -3.909,-7.285"
         id="path307" />
      <path
         inkscape:connector-curvature="0"
         style="fill:#282525"
         d="m 118.921,74.483 c 0.499,-1.685 1.42,-2.813 2.772,-3.402 1.352,-0.589 2.749,-0.478 4.172,0.354 1.426,0.844 2.458,2.148 3.108,3.926 0.646,1.763 0.733,3.491 0.245,5.173 -0.498,1.685 -1.419,2.813 -2.772,3.402 -1.342,0.586 -2.728,0.471 -4.15,-0.359 -1.423,-0.831 -2.454,-2.135 -3.108,-3.925 -0.657,-1.761 -0.754,-3.487 -0.267,-5.169"
         id="path309" />
      <path
         inkscape:connector-curvature="0"
         style="fill:#282525"
         d="m 152.336,65.488 c -1.456,-1.163 -3.057,-1.618 -4.818,-1.376 -1.76,0.242 -3.183,1.106 -4.237,2.597 -1.05,1.505 -1.429,3.186 -1.142,5.06 0.284,1.86 1.143,3.382 2.586,4.548 1.457,1.164 3.058,1.619 4.819,1.377 1.749,-0.239 3.158,-1.1 4.213,-2.591 1.053,-1.492 1.432,-3.172 1.141,-5.06 -0.271,-1.863 -1.117,-3.388 -2.562,-4.555"
         id="path311" />
      <path
         inkscape:connector-curvature="0"
         style="fill:#db5284"
         d="m 124.247,81.075 c 1.475,-2.743 3.679,-4.513 6.603,-5.293 2.924,-0.781 5.729,-0.348 8.401,1.288 2.652,1.67 4.399,4.051 5.224,7.147 0.834,3.124 0.506,6.058 -0.96,8.827 -1.488,2.746 -3.707,4.52 -6.643,5.303 -2.938,0.784 -5.731,0.348 -8.362,-1.299 -2.666,-1.666 -4.412,-4.047 -5.245,-7.17 -0.834,-3.122 -0.506,-6.057 0.982,-8.803"
         id="path313" />
      <path
         inkscape:connector-curvature="0"
         style="fill:#0e5cab"
         d="m 158.25,135.878 v -0.013 c -0.069,-4.296 -1.279,-9.307 -3.648,-15.048 l 19.645,-8.796 c 2.381,2.836 4.185,5.038 5.438,6.622 3.552,4.432 6.774,9.072 9.65,13.932 2.836,4.777 4.983,9.857 6.444,15.241 1.307,4.804 1.872,9.691 1.679,14.647 v 0.028 c -0.124,5.602 -1.362,10.931 -3.745,15.969 -2.451,5.218 -6.195,8.99 -11.248,11.331 l 0.042,-0.028 c -1.832,0.771 -3.717,1.266 -5.671,1.486 h 0.013 c -1.226,0.11 -2.437,0.139 -3.649,0.083 h -0.013 c -1.198,-0.042 -2.147,-0.083 -2.851,-0.151 h 0.028 c -5.795,-0.771 -10.449,-3.139 -13.96,-7.09 -0.014,-0.014 -0.014,-0.028 -0.027,-0.042 -0.758,-0.95 -1.474,-1.996 -2.12,-3.139 h 0.014 c -1.061,-1.899 -1.885,-3.91 -2.464,-6.016 -0.125,-0.481 -0.249,-0.963 -0.344,-1.446 v 0.014 c -0.372,-1.996 -0.468,-4.006 -0.29,-6.002 0.082,-0.978 0.193,-1.941 0.33,-2.906 v 0.028 c 0.703,-4.268 1.997,-8.852 3.883,-13.739 v 0.014 c 1.928,-4.888 2.879,-9.885 2.864,-14.979"
         id="path315" />
      <path
         inkscape:connector-curvature="0"
         style="fill:#0e5cab"
         d="m 203.257,131.145 c -2.681,3.097 -5.485,5.736 -8.422,7.93 -0.689,0.513 -1.62,1.282 -2.805,2.306 l -0.261,4.622 7.282,2.676 c 11.16,-6.737 17.904,-13.933 20.204,-21.583 1.706,-5.516 -0.663,-9.709 -7.132,-12.578 -11.747,-4.374 -24.184,-4.449 -37.295,-0.228 l 7.611,8.739 c 9.074,-2.46 16.918,-2.468 23.517,-0.039 1.517,1.6 0.611,4.313 -2.699,8.155"
         id="path317" />
      <path
         inkscape:connector-curvature="0"
         style="fill:none;stroke:#043689;stroke-width:2.20230007;stroke-linecap:square;stroke-linejoin:round;stroke-miterlimit:10"
         d="m 192.031,141.381 c 1.185,-1.025 2.115,-1.793 2.804,-2.307 2.938,-2.193 5.741,-4.833 8.422,-7.93 3.31,-3.841 4.215,-6.554 2.7,-8.153 -6.598,-2.43 -14.442,-2.422 -23.516,0.039 m -7.612,-8.74 c 13.111,-4.221 25.548,-4.146 37.296,0.228 6.469,2.868 8.837,7.062 7.13,12.578 -2.298,7.651 -9.043,14.845 -20.203,21.583"
         id="path319" />
      <path
         inkscape:connector-curvature="0"
         style="fill:#043689"
         d="m 204.832,146.568 c -0.097,-0.006 -0.207,0.004 -0.301,0.024 -0.584,0.119 -1.094,0.3 -1.501,0.542 -1.155,-0.58 -2.405,-0.517 -3.756,0.177 -0.447,-0.557 -0.911,-0.974 -1.388,-1.237 -0.493,-0.277 -0.796,-0.43 -0.912,-0.49 0.078,0.104 0.142,0.209 0.207,0.314 1.032,1.612 1.741,3.651 2.125,6.091 0.619,2.421 -0.215,4.507 -2.514,6.247 l -2.058,1.305 c 1.545,0.491 3.268,0.099 5.149,-1.177 -0.507,0.871 -0.319,1.781 0.547,2.743 0.012,-0.029 0.01,-0.056 0.022,-0.071 -0.101,-1.69 0.391,-2.92 1.488,-3.66 0.56,1.251 1.326,1.656 2.285,1.23 -1.213,-1.293 -1.761,-2.559 -1.63,-3.798 0.117,-1.24 0.333,-1.962 0.632,-2.167 0.066,-0.047 0.132,-0.08 0.199,-0.113 0.346,-0.153 0.658,-0.22 0.937,-0.189 0.702,0.135 1.236,0.407 1.601,0.819 0.402,0.504 0.7,1.086 0.895,1.776 0.203,0.77 0.338,1.394 0.395,1.9 0.047,0.396 0.085,0.683 0.087,0.877 -0.021,0.084 -0.026,0.181 -0.032,0.278 -0.307,1.767 -1.42,3.158 -3.337,4.175 -2.593,1.365 -5.309,1.745 -8.149,1.141 -2.758,-0.598 -4.756,-2.185 -5.993,-4.746 -1.3,-2.68 -1.705,-5.672 -1.194,-8.974 0.491,-3.204 2.065,-5.849 4.724,-7.909 l 0.983,-0.787 -1.352,-1.792 c -3.639,2.557 -5.782,5.83 -6.426,9.834 -0.647,3.991 -0.224,7.532 1.289,10.596 1.556,3.226 4.069,5.197 7.515,5.93 3.347,0.713 6.554,0.265 9.624,-1.346 2.67,-1.412 4.178,-3.375 4.505,-5.89 0.01,-0.042 0.007,-0.083 0.018,-0.124 -0.001,-0.015 -0.001,-0.015 -0.003,-0.028 1.066,-3.252 1.037,-5.915 -0.089,-7.975 -1.201,-2.291 -2.736,-3.461 -4.592,-3.526 m -3.797,3.633 c -0.14,-0.348 -0.293,-0.694 -0.474,-1.038 0.308,-0.108 0.595,-0.161 0.871,-0.142 -0.185,0.596 -0.209,1.288 -0.073,2.091 -0.095,-0.31 -0.203,-0.618 -0.326,-0.925 l 0.002,0.014 z m 6.444,0.91 c 0.118,0.252 0.223,0.519 0.316,0.802 -0.046,-0.051 -0.078,-0.104 -0.109,-0.143 l -0.014,10e-4 c -0.635,-0.817 -1.604,-1.343 -2.884,-1.609 -0.013,0 -0.013,0 -0.027,0.002 -0.38,-0.093 -0.794,-0.085 -1.241,0.021 0.023,-0.375 0.136,-0.688 0.324,-0.925 l 0.011,-0.015 c 0.246,-0.2 0.564,-0.352 0.97,-0.455 1.037,0.177 1.917,0.946 2.654,2.321"
         id="path321" />
      <path
         inkscape:connector-curvature="0"
         style="fill:#0e5cab"
         d="m 200.562,149.163 c 0.181,0.344 0.333,0.69 0.474,1.038 l -0.001,-0.014 c 0.122,0.307 0.231,0.615 0.326,0.925 -0.136,-0.803 -0.112,-1.496 0.073,-2.092 -0.278,-0.018 -0.564,0.035 -0.872,0.143"
         id="path323" />
      <path
         inkscape:connector-curvature="0"
         style="fill:#0e5cab"
         d="m 207.795,151.913 c -0.093,-0.283 -0.198,-0.55 -0.316,-0.802 -0.738,-1.375 -1.617,-2.143 -2.654,-2.32 -0.406,0.104 -0.724,0.255 -0.97,0.456 l -0.012,0.014 c -0.187,0.238 -0.3,0.551 -0.323,0.926 0.448,-0.106 0.86,-0.114 1.241,-0.021 0.014,-0.002 0.014,-0.002 0.027,-0.002 1.28,0.266 2.249,0.792 2.884,1.609 l 0.014,-0.002 c 0.031,0.038 0.063,0.09 0.109,0.142"
         id="path325" />
      <path
         inkscape:connector-curvature="0"
         style="fill:#0e5cab"
         d="m 196.974,145.583 -3.614,-3.909 c -2.658,2.06 -4.233,4.706 -4.724,7.909 -0.511,3.302 -0.106,6.293 1.195,8.973 1.237,2.562 3.233,4.148 5.992,4.747 2.84,0.603 5.556,0.224 8.149,-1.14 1.917,-1.018 3.029,-2.408 3.337,-4.175 0.006,-0.097 0.012,-0.193 0.032,-0.278 -0.002,-0.194 -0.041,-0.481 -0.087,-0.877 -0.057,-0.506 -0.192,-1.13 -0.395,-1.899 -0.195,-0.689 -0.493,-1.272 -0.895,-1.776 -0.365,-0.412 -0.9,-0.684 -1.601,-0.819 -0.279,-0.031 -0.591,0.036 -0.938,0.189 -0.066,0.033 -0.132,0.066 -0.197,0.113 -0.301,0.204 -0.516,0.927 -0.633,2.166 -0.131,1.24 0.417,2.506 1.631,3.799 -0.959,0.425 -1.725,0.02 -2.286,-1.23 -1.098,0.741 -1.589,1.969 -1.488,3.659 -0.013,0.016 -0.011,0.042 -0.022,0.071 -0.868,-0.963 -1.055,-1.872 -0.548,-2.744 -1.882,1.277 -3.603,1.67 -5.149,1.178 l 2.059,-1.304 c 2.299,-1.74 3.132,-3.827 2.515,-6.247 -0.385,-2.44 -1.095,-4.479 -2.127,-6.092 -0.064,-0.105 -0.129,-0.209 -0.206,-0.314"
         id="path327" />
    </g>
  </g>
</svg>
