<?xml version="1.0" encoding="UTF-8" standalone="no"?>
<!-- Created with Inkscape (http://www.inkscape.org/) -->

<svg
   xmlns:dc="http://purl.org/dc/elements/1.1/"
   xmlns:cc="http://creativecommons.org/ns#"
   xmlns:rdf="http://www.w3.org/1999/02/22-rdf-syntax-ns#"
   xmlns:svg="http://www.w3.org/2000/svg"
   xmlns="http://www.w3.org/2000/svg"
   xmlns:sodipodi="http://sodipodi.sourceforge.net/DTD/sodipodi-0.dtd"
   xmlns:inkscape="http://www.inkscape.org/namespaces/inkscape"
   width="131.03125"
   height="201.07799"
   id="svg5696"
   version="1.1"
   inkscape:version="0.48.4 r9939"
   sodipodi:docname="grover3.svg">
  <defs
     id="defs5698">
    <clipPath
       id="SVGID_2_">
      <rect
         height="88.862999"
         width="111.498"
         y="518.96198"
         x="382.04999"
         id="use1087" />
    </clipPath>
    <clipPath
       id="SVGID_4_">
      <rect
         height="41.314999"
         width="49.584999"
         y="525.19397"
         x="389.84698"
         id="use1111" />
    </clipPath>
  </defs>
  <sodipodi:namedview
     id="base"
     pagecolor="#ffffff"
     bordercolor="#666666"
     borderopacity="1.0"
     inkscape:pageopacity="0.0"
     inkscape:pageshadow="2"
     inkscape:zoom="0.77472527"
     inkscape:cx="6.0267677"
     inkscape:cy="138.19357"
     inkscape:current-layer="layer1"
     inkscape:document-units="px"
     showgrid="false"
     inkscape:window-width="763"
     inkscape:window-height="591"
     inkscape:window-x="592"
     inkscape:window-y="97"
     inkscape:window-maximized="0"
     fit-margin-top="0"
     fit-margin-left="0"
     fit-margin-right="0"
     fit-margin-bottom="0" />
  <metadata
     id="metadata5701">
    <rdf:RDF>
      <cc:Work
         rdf:about="">
        <dc:format>image/svg+xml</dc:format>
        <dc:type
           rdf:resource="http://purl.org/dc/dcmitype/StillImage" />
        <dc:title></dc:title>
      </cc:Work>
    </rdf:RDF>
  </metadata>
  <g
     id="layer1"
     inkscape:label="Layer 1"
     inkscape:groupmode="layer"
     transform="translate(-311.91653,-22.221962)">
    <g
       transform="translate(-348.67722,-15.371788)"
       id="g127">
      <path
         inkscape:connector-curvature="0"
         style="fill:#3692d1"
         d="m 737.002,64.925 c -1.911,-4.875 -4.622,-9.183 -8.131,-12.902 -3.509,-3.761 -7.523,-6.661 -12.062,-8.72 -4.706,-2.123 -9.646,-3.194 -14.794,-3.194 -5.146,0 -10.063,1.071 -14.771,3.194 -4.538,2.06 -8.57,4.959 -12.079,8.72 -3.509,3.72 -6.221,8.027 -8.133,12.902 -1.996,5.022 -3.005,10.275 -3.005,15.801 0,5.484 1.009,10.758 3.005,15.78 1.912,4.854 4.624,9.162 8.133,12.923 3.509,3.72 7.541,6.619 12.079,8.699 4.708,2.123 9.626,3.173 14.771,3.173 5.148,0 10.088,-1.051 14.794,-3.173 4.538,-2.08 8.553,-4.979 12.062,-8.699 3.509,-3.761 6.22,-8.068 8.131,-12.923 1.997,-5.022 2.986,-10.275 2.986,-15.78 0,-5.526 -0.989,-10.779 -2.986,-15.801"
         id="path129" />
      <path
         inkscape:connector-curvature="0"
         style="fill:none;stroke:#063589;stroke-width:5.04279995;stroke-miterlimit:10"
         d="m 728.871,52.022 c -3.509,-3.761 -7.523,-6.661 -12.062,-8.719 -4.706,-2.123 -9.646,-3.194 -14.794,-3.194 -5.146,0 -10.063,1.071 -14.771,3.194 -4.538,2.058 -8.57,4.958 -12.079,8.719 -3.509,3.72 -6.221,8.028 -8.133,12.902 -1.996,5.021 -3.005,10.275 -3.005,15.801 0,5.484 1.009,10.758 3.005,15.78 1.912,4.854 4.624,9.161 8.133,12.923 3.509,3.719 7.541,6.619 12.079,8.698 4.708,2.123 9.626,3.173 14.771,3.173 5.148,0 10.088,-1.05 14.794,-3.173 4.538,-2.08 8.553,-4.979 12.062,-8.698 3.509,-3.762 6.22,-8.069 8.131,-12.923 1.997,-5.022 2.986,-10.275 2.986,-15.78 0,-5.526 -0.989,-10.779 -2.986,-15.801 -1.911,-4.874 -4.622,-9.182 -8.131,-12.902 z"
         id="path131" />
      <path
         inkscape:connector-curvature="0"
         style="fill:#3692d1"
         d="m 696.891,100.75 c -0.063,-0.063 -0.168,-0.042 -0.294,0.042 -0.673,0.357 -0.567,0.357 0.294,-0.042"
         id="path133" />
      <path
         inkscape:connector-curvature="0"
         style="fill:#3692d1"
         d="m 698.992,99.764 c -0.946,0.441 -1.642,0.776 -2.102,0.987 0.336,0.231 0,1.892 -1.01,4.938 -0.776,2.29 -2.438,7.081 -5.021,14.331 -5.715,16.474 -8.847,29.081 -9.372,37.843 -0.609,9.939 1.976,17.818 7.796,23.682 2.522,2.521 5.422,4.349 8.7,5.483 3.192,1.093 6.407,1.408 9.646,0.946 3.296,-0.504 6.261,-1.786 8.887,-3.846 2.795,-2.249 4.958,-5.232 6.451,-8.909 3.551,-8.699 3.172,-20.025 -1.093,-33.998 -3.887,-12.754 -6.871,-22.063 -8.908,-27.925 -2.711,-7.796 -4.645,-12.146 -5.779,-13.049 -1.871,-1.493 -4.602,-1.64 -8.195,-0.483"
         id="path135" />
      <path
         inkscape:connector-curvature="0"
         style="fill:none;stroke:#063589;stroke-width:5.04279995;stroke-miterlimit:10"
         d="m 696.891,100.75 c -0.063,-0.063 -0.168,-0.042 -0.294,0.042 -0.673,0.357 -0.567,0.357 0.294,-0.042 z m 0,0 c 0.336,0.231 0,1.892 -1.01,4.938 -0.776,2.29 -2.438,7.081 -5.021,14.331 -5.715,16.474 -8.847,29.081 -9.37,37.843 -0.611,9.939 1.974,17.818 7.794,23.682 2.522,2.521 5.422,4.35 8.7,5.483 3.192,1.094 6.407,1.408 9.646,0.946 3.296,-0.505 6.261,-1.787 8.887,-3.846 2.795,-2.249 4.958,-5.232 6.451,-8.909 3.551,-8.699 3.172,-20.025 -1.093,-33.998 -3.887,-12.754 -6.871,-22.063 -8.908,-27.926 -2.711,-7.796 -4.645,-12.146 -5.779,-13.049 -1.87,-1.492 -4.6,-1.639 -8.194,-0.482 -0.948,0.441 -1.643,0.778 -2.103,0.987 z"
         id="path137" />
      <path
         inkscape:connector-curvature="0"
         style="fill:#3692d1"
         d="m 731.539,233.801 c 6.031,-0.568 9.728,-2.249 11.139,-5.042 0.63,-1.241 0.607,-2.481 -0.063,-3.763 -0.736,-1.344 -2.102,-2.542 -4.077,-3.614 -4.708,-2.479 -11.557,-3.634 -20.572,-3.466 1.093,-3.383 1.452,-8.594 1.072,-15.613 -0.441,-8.089 -1.871,-14.981 -4.244,-20.697 l -4.897,1.051 c 1.872,11.599 1.535,23.072 -0.986,34.439 -0.357,1.619 -1.177,4.812 -2.502,9.54 -0.65,2.291 -0.757,3.509 -0.313,3.635 9.893,3.047 18.363,4.224 25.443,3.53"
         id="path139" />
      <path
         inkscape:connector-curvature="0"
         style="fill:none;stroke:#063589;stroke-width:5.04279995;stroke-miterlimit:10"
         d="m 709.896,182.657 c 1.872,11.599 1.535,23.071 -0.986,34.439 -0.357,1.619 -1.177,4.812 -2.502,9.54 -0.65,2.291 -0.757,3.509 -0.313,3.635 9.896,3.047 18.365,4.224 25.445,3.53 6.031,-0.568 9.728,-2.249 11.139,-5.042 0.63,-1.241 0.607,-2.481 -0.063,-3.763 -0.736,-1.344 -2.102,-2.542 -4.077,-3.613 -4.708,-2.48 -11.557,-3.635 -20.572,-3.467 1.093,-3.383 1.452,-8.594 1.072,-15.612 -0.441,-8.09 -1.871,-14.982 -4.244,-20.698"
         id="path141" />
      <path
         inkscape:connector-curvature="0"
         style="fill:#0f5caa"
         d="m 742.678,228.759 c 0.63,-1.24 0.607,-2.481 -0.063,-3.762 -0.736,-1.345 -2.102,-2.542 -4.077,-3.614 -4.708,-2.48 -11.557,-3.635 -20.572,-3.466 1.093,-3.383 1.452,-8.595 1.072,-15.613 -0.441,-8.09 -1.871,-14.981 -4.244,-20.697 l -4.897,1.051 c 1.872,11.598 1.535,23.072 -0.986,34.44 -0.357,1.617 -1.177,4.812 -2.502,9.539 -0.65,2.291 -0.757,3.509 -0.313,3.635 9.896,3.047 18.365,4.224 25.445,3.53 6.029,-0.569 9.726,-2.249 11.137,-5.043"
         id="path143" />
      <path
         inkscape:connector-curvature="0"
         style="fill:#3692d1"
         d="m 714.203,119.452 c -2.353,-3.677 -3.719,-5.589 -4.077,-5.778 l -1.091,9.12 c 0.146,0.021 1.387,1.722 3.678,5.126 2.983,3.845 6.241,6.724 9.75,8.594 11.366,6.136 24.311,1.828 38.829,-12.902 5.254,2.291 8.806,2.102 10.632,-0.567 0.611,-0.903 0.969,-1.997 1.052,-3.279 0.063,-0.902 0.022,-1.554 -0.126,-1.932 0.169,0.21 0.65,0.378 1.472,0.525 1.07,0.189 2.121,0.189 3.173,0.042 3.025,-0.483 4.412,-2.039 4.159,-4.686 -0.357,-3.803 -2.396,-5.778 -6.114,-5.924 -2.753,-0.106 -5.126,0.461 -7.124,1.743 0.043,-0.504 0.589,-1.282 1.619,-2.311 1.659,-1.639 2.605,-2.606 2.858,-2.921 2.163,-2.627 1.828,-4.833 -1.052,-6.64 -2.101,-1.345 -4.579,0.167 -7.458,4.519 -1.115,1.701 -2.017,3.487 -2.71,5.337 -0.695,1.849 -0.946,3.235 -0.778,4.181 -1.346,-0.756 -2.522,-1.344 -3.529,-1.765 -1.032,3.466 -1.85,5.989 -2.459,7.543 -0.022,0.063 -0.043,0.105 -0.043,0.168 0.693,0.294 1.179,0.588 1.449,0.883 -12.039,13.51 -23.07,16.893 -33.113,10.148 -3.092,-2.059 -6.096,-5.127 -8.997,-9.224"
         id="path145" />
      <path
         inkscape:connector-curvature="0"
         style="fill:none;stroke:#063589;stroke-width:5.04279995;stroke-miterlimit:10"
         d="m 709.035,122.793 c 0.146,0.021 1.387,1.723 3.678,5.127 2.983,3.845 6.241,6.724 9.75,8.595 11.366,6.135 24.311,1.827 38.829,-12.903 5.254,2.291 8.806,2.102 10.632,-0.567 0.611,-0.903 0.969,-1.997 1.052,-3.279 0.063,-0.901 0.022,-1.554 -0.126,-1.932 m -19.186,-0.652 c 0.19,0.063 0.421,0.147 0.655,0.251 1.007,0.358 1.678,0.736 1.993,1.094 -12.039,13.51 -23.07,16.893 -33.115,10.148 -3.089,-2.059 -6.095,-5.126 -8.994,-9.224 -2.353,-3.677 -3.719,-5.589 -4.077,-5.778 m 62.724,4.16 c 0.169,0.21 0.65,0.378 1.472,0.525 1.07,0.19 2.121,0.19 3.173,0.042 3.025,-0.483 4.412,-2.04 4.159,-4.687 -0.357,-3.803 -2.396,-5.778 -6.114,-5.924 -2.753,-0.106 -5.126,0.461 -7.124,1.743 0.043,-0.503 0.587,-1.282 1.619,-2.311 1.659,-1.639 2.605,-2.606 2.858,-2.921 2.163,-2.627 1.828,-4.833 -1.052,-6.64 -2.101,-1.345 -4.579,0.167 -7.458,4.519 -1.115,1.701 -2.017,3.487 -2.71,5.337 -0.695,1.849 -0.946,3.235 -0.778,4.181 -1.45,-0.819 -2.71,-1.428 -3.782,-1.87 -0.736,-0.273 -1.409,-0.399 -2.019,-0.378 m 17.672,8.217 c 0.021,0.062 0.041,0.104 0.084,0.167"
         id="path147" />
      <path
         inkscape:connector-curvature="0"
         style="fill:#0f5caa"
         d="m 709.035,122.793 c 0.146,0.021 1.387,1.723 3.678,5.127 2.983,3.845 6.241,6.724 9.75,8.595 11.366,6.135 24.311,1.827 38.829,-12.903 5.256,2.291 8.806,2.102 10.632,-0.567 0.611,-0.903 0.969,-1.997 1.052,-3.278 0.063,-0.902 0.022,-1.554 -0.126,-1.932 0.169,0.209 0.65,0.378 1.472,0.525 1.07,0.19 2.121,0.19 3.173,0.042 3.025,-0.483 4.412,-2.039 4.161,-4.686 -0.359,-3.804 -2.397,-5.779 -6.116,-5.927 -2.753,-0.104 -5.126,0.463 -7.124,1.745 0.043,-0.503 0.589,-1.282 1.619,-2.312 1.659,-1.638 2.605,-2.606 2.858,-2.92 2.163,-2.627 1.828,-4.833 -1.052,-6.641 -2.101,-1.344 -4.579,0.168 -7.458,4.519 -1.115,1.701 -2.017,3.487 -2.71,5.337 -0.695,1.848 -0.946,3.235 -0.778,4.181 -0.989,-0.567 -1.913,-1.029 -2.732,-1.408 0,0.064 0.022,0.147 0.041,0.232 0.358,0.357 0.525,0.966 0.525,1.786 0,0.357 -0.754,1.239 -2.246,2.647 -0.862,0.798 -1.576,1.387 -2.143,1.743 -0.255,0.19 -0.485,0.358 -0.695,0.463 0.189,0.084 0.42,0.168 0.675,0.272 1.007,0.358 1.678,0.736 1.993,1.093 -12.039,13.512 -23.07,16.895 -33.113,10.149 -3.091,-2.059 -6.097,-5.126 -8.996,-9.224 -2.353,-3.677 -3.719,-5.589 -4.077,-5.778 l -1.092,9.12 z"
         id="path149" />
      <path
         inkscape:connector-curvature="0"
         style="fill:#0f5caa"
         d="m 788.589,127.5 c 1.03,-0.735 1.554,-1.68 1.554,-2.837 0,-1.891 -1.134,-3.194 -3.383,-3.909 -1.305,-0.336 -2.271,-0.588 -2.9,-0.735 -0.757,-0.21 -1.385,-0.42 -1.891,-0.652 l -5.757,6.094 0.167,0.147 c 0.905,-0.147 2.291,0.272 4.161,1.261 2.019,1.05 3.721,1.576 5.087,1.576 1.07,0 2.057,-0.315 2.962,-0.945"
         id="path151" />
      <path
         inkscape:connector-curvature="0"
         style="fill:none;stroke:#063589;stroke-width:2.94180012;stroke-linecap:round;stroke-linejoin:round;stroke-miterlimit:10"
         d="m 776.379,125.608 c 0.905,-0.148 2.291,0.272 4.161,1.261 2.019,1.05 3.721,1.576 5.087,1.576 1.07,0 2.057,-0.315 2.962,-0.946 1.03,-0.735 1.554,-1.681 1.554,-2.837 0,-1.891 -1.134,-3.193 -3.383,-3.908 -1.305,-0.336 -2.271,-0.588 -2.898,-0.735 -0.759,-0.21 -1.387,-0.42 -1.891,-0.652"
         id="path153" />
      <path
         inkscape:connector-curvature="0"
         style="fill:#97d4e3"
         d="m 778.895,90.022 c 2.806,-0.724 4.208,-1.602 4.208,-2.624 0,-1.023 -1.402,-1.901 -4.208,-2.625 -2.806,-0.723 -6.188,-1.085 -10.153,-1.085 -3.972,0 -7.354,0.362 -10.159,1.085 -2.795,0.724 -4.2,1.602 -4.2,2.625 0,1.022 1.405,1.899 4.2,2.624 2.806,0.724 6.188,1.085 10.159,1.085 3.965,0.001 7.347,-0.361 10.153,-1.085"
         id="path155" />
      <path
         inkscape:connector-curvature="0"
         style="fill:#97d4e3"
         d="m 783.138,88.575 c -0.751,0.461 -1.917,0.877 -3.482,1.249 -3.014,0.724 -6.652,1.086 -10.914,1.086 -4.271,0 -7.914,-0.362 -10.93,-1.086 -1.503,-0.362 -2.632,-0.76 -3.383,-1.194 l 2.706,37.495 c 0.047,0.569 0.189,1.005 0.452,1.285 0.234,0.136 0.498,0.263 0.777,0.389 0.397,0.181 0.852,0.354 1.35,0.516 2.497,0.824 5.5,1.24 9.02,1.24 3.519,0 6.534,-0.417 9.021,-1.24 0.514,-0.171 0.987,-0.343 1.402,-0.533 0.217,-0.046 0.406,-0.145 0.559,-0.281 0.318,-0.282 0.498,-0.733 0.553,-1.375 l 2.869,-37.551 z"
         id="path157" />
      <path
         inkscape:connector-curvature="0"
         style="fill:none;stroke:#4cb6e9;stroke-width:2.1716001;stroke-linecap:round;stroke-linejoin:round;stroke-miterlimit:10"
         d="m 754.34,87.361 2.795,38.763 c 0.045,0.57 0.189,1.005 0.452,1.285 0.234,0.136 0.498,0.262 0.777,0.389 0.397,0.181 0.852,0.354 1.35,0.516 2.497,0.824 5.5,1.24 9.02,1.24 3.519,0 6.534,-0.416 9.021,-1.24 0.514,-0.172 0.987,-0.344 1.402,-0.533 0.217,-0.046 0.406,-0.145 0.559,-0.281 0.318,-0.281 0.498,-0.733 0.553,-1.376 l 2.961,-38.763"
         id="path159" />
      <path
         inkscape:connector-curvature="0"
         style="fill:#eef8fd"
         d="m 762.355,106.879 c -0.31,0.244 -0.516,0.389 -0.625,0.434 -0.326,0.146 -0.914,0.381 -1.764,0.707 -0.826,0.317 -1.43,0.569 -1.829,0.778 0.155,0.073 0.318,0.146 0.481,0.217 0.189,0.072 0.369,0.145 0.559,0.217 0.173,0.063 0.344,0.127 0.516,0.19 0.173,0.055 0.347,0.118 0.525,0.198 0.056,0.027 0.108,0.055 0.155,0.091 0.18,0.136 0.353,0.272 0.524,0.426 0.045,0.044 0.1,0.081 0.163,0.108 0.171,0.099 0.353,0.153 0.542,0.145 0.245,-0.009 0.479,0.018 0.705,0.072 0.174,0.046 0.363,0.082 0.553,0.127 0.227,0.036 0.453,0.072 0.679,0.117 0.208,-0.045 0.406,-0.099 0.598,-0.162 0.189,-0.082 0.397,-0.172 0.605,-0.263 0.2,-0.1 0.371,-0.235 0.526,-0.407 0.143,-0.172 0.279,-0.353 0.416,-0.561 0.045,-0.064 0.09,-0.118 0.135,-0.164 0.165,-0.163 0.344,-0.308 0.552,-0.425 0.208,-0.118 0.425,-0.226 0.632,-0.344 0.211,-0.1 0.418,-0.181 0.635,-0.263 0.208,-0.081 0.407,-0.163 0.615,-0.227 -0.208,0.064 -0.407,0.146 -0.615,0.227 -0.217,0.082 -0.424,0.163 -0.635,0.263 -0.207,0.118 -0.424,0.227 -0.632,0.344 -0.208,0.117 -0.387,0.262 -0.552,0.425 -0.045,0.045 -0.09,0.1 -0.135,0.164 -0.137,0.208 -0.273,0.389 -0.416,0.561 -0.155,0.172 -0.326,0.307 -0.526,0.407 -0.208,0.091 -0.416,0.181 -0.605,0.263 -0.191,0.063 -0.39,0.117 -0.598,0.162 -0.136,0.253 -0.226,0.769 -0.281,1.539 0.019,0.261 0.056,0.524 0.118,0.769 0.082,0.298 0.163,0.58 0.264,0.851 0.081,0.253 0.135,0.516 0.145,0.778 0.008,0.126 0,0.253 -0.028,0.372 -0.045,0.271 -0.045,0.542 -0.009,0.823 0.027,0.172 0.108,0.272 0.253,0.299 0.182,-0.027 0.361,-0.054 0.553,-0.081 0.598,-0.055 1.158,-0.236 1.692,-0.535 0.442,-0.263 0.905,-0.479 1.402,-0.633 0.469,-0.136 0.903,-0.362 1.312,-0.66 0.118,-0.091 0.226,-0.19 0.326,-0.299 0.263,-0.29 0.362,-0.634 0.315,-1.031 -0.019,-0.154 -0.019,-0.308 0.009,-0.453 0.091,-0.588 0.073,-1.176 -0.062,-1.746 -0.118,-0.498 -0.253,-0.987 -0.418,-1.457 -0.171,-0.516 -0.433,-0.996 -0.767,-1.439 -0.21,-0.263 -0.499,-0.434 -0.87,-0.498 -0.663,-0.117 -1.111,-0.217 -1.366,-0.316 -0.498,-0.19 -1.077,-0.435 -1.745,-0.714 -0.029,-0.009 -0.049,-0.009 -0.063,-0.019 -0.092,0.01 -0.182,0.028 -0.263,0.037 -0.137,0.018 -0.253,0.036 -0.354,0.054 -0.344,0.055 -0.561,0.101 -0.642,0.127 -0.188,0.062 -0.425,0.196 -0.705,0.405"
         id="path161" />
      <path
         inkscape:connector-curvature="0"
         style="fill:#eef8fd"
         d="m 758.138,108.797 c -0.026,0.109 -0.045,0.218 -0.062,0.326 -0.012,0.081 -0.018,0.172 -0.028,0.253 -0.008,0.081 -0.008,0.153 -0.019,0.235 -0.008,0.1 -0.026,0.198 -0.034,0.299 -0.011,0.081 0,0.181 0.034,0.28 0.035,0.09 0.071,0.181 0.118,0.271 0.045,0.082 0.082,0.164 0.116,0.245 0.037,0.063 0.074,0.136 0.101,0.217 0.036,0.081 0.073,0.163 0.1,0.244 0.026,0.082 0.055,0.163 0.081,0.245 0.027,0.109 0.056,0.216 0.082,0.335 0.008,0.063 0.017,0.126 0.026,0.189 0.011,0.064 0.011,0.137 0.019,0.208 0.01,0.064 0.019,0.136 0.028,0.199 0.009,0.1 0.026,0.209 0.053,0.317 0.027,0.099 0.056,0.19 0.099,0.28 0.057,0.1 0.109,0.208 0.165,0.316 0.053,0.091 0.098,0.19 0.145,0.29 0.026,0.072 0.045,0.153 0.063,0.244 0.026,0.091 0.045,0.19 0.055,0.289 0.008,0.083 0.024,0.154 0.045,0.236 0.026,0.127 0.026,0.244 0.017,0.362 0.228,0.263 0.463,0.426 0.707,0.471 0.579,0.118 0.896,0.18 0.95,0.199 0.171,0.046 0.524,0.217 1.059,0.507 0.389,0.208 0.842,0.308 1.374,0.308 0.028,0 0.218,-0.009 0.57,-0.027 -0.145,-0.027 -0.226,-0.127 -0.253,-0.3 -0.036,-0.28 -0.036,-0.552 0.009,-0.823 0.028,-0.118 0.036,-0.244 0.028,-0.372 -0.01,-0.262 -0.063,-0.524 -0.145,-0.778 -0.101,-0.271 -0.182,-0.551 -0.264,-0.851 -0.062,-0.245 -0.1,-0.506 -0.118,-0.769 0.056,-0.769 0.146,-1.285 0.281,-1.538 -0.226,-0.046 -0.452,-0.081 -0.679,-0.118 -0.189,-0.045 -0.379,-0.082 -0.553,-0.127 -0.226,-0.054 -0.46,-0.081 -0.705,-0.073 -0.189,0.01 -0.371,-0.045 -0.542,-0.145 -0.063,-0.026 -0.118,-0.064 -0.163,-0.109 -0.172,-0.153 -0.345,-0.289 -0.524,-0.424 -0.047,-0.037 -0.1,-0.064 -0.155,-0.092 -0.179,-0.081 -0.353,-0.144 -0.523,-0.198 -0.174,-0.063 -0.345,-0.126 -0.518,-0.19 -0.189,-0.073 -0.369,-0.145 -0.559,-0.217 -0.163,-0.069 -0.326,-0.14 -0.481,-0.214"
         id="path163" />
      <path
         inkscape:connector-curvature="0"
         style="fill:none;stroke:#a3b1da;stroke-width:1.44770002;stroke-linecap:round;stroke-linejoin:round;stroke-miterlimit:10"
         d="m 758.138,108.797 c 0.399,-0.208 1.003,-0.46 1.829,-0.778 0.85,-0.326 1.438,-0.561 1.764,-0.706 0.109,-0.045 0.315,-0.191 0.625,-0.434 0.279,-0.208 0.517,-0.344 0.706,-0.408 0.081,-0.027 0.298,-0.072 0.642,-0.126 0.101,-0.018 0.217,-0.037 0.354,-0.055 0.081,-0.008 0.171,-0.027 0.263,-0.035 0.017,0.008 0.034,0.008 0.063,0.018 0.668,0.28 1.247,0.524 1.745,0.714 0.255,0.1 0.705,0.2 1.366,0.317 0.371,0.063 0.66,0.235 0.87,0.498 0.334,0.443 0.596,0.923 0.769,1.438 0.163,0.471 0.298,0.96 0.416,1.457 0.135,0.571 0.152,1.158 0.062,1.747 -0.027,0.144 -0.027,0.298 -0.009,0.453 0.047,0.397 -0.053,0.741 -0.315,1.031 -0.101,0.109 -0.208,0.208 -0.326,0.299 -0.408,0.298 -0.841,0.524 -1.312,0.66 -0.497,0.154 -0.96,0.371 -1.402,0.634 -0.534,0.298 -1.095,0.479 -1.692,0.534 -0.191,0.027 -0.371,0.054 -0.553,0.081 m 4.251,-8.244 c -0.208,0.063 -0.407,0.145 -0.615,0.227 -0.217,0.081 -0.424,0.163 -0.635,0.263 -0.207,0.116 -0.424,0.226 -0.632,0.343 -0.208,0.117 -0.387,0.262 -0.552,0.425 -0.045,0.045 -0.09,0.099 -0.135,0.163 -0.137,0.208 -0.271,0.389 -0.416,0.561 -0.155,0.172 -0.326,0.308 -0.526,0.407 -0.208,0.091 -0.416,0.181 -0.605,0.263 -0.189,0.062 -0.39,0.117 -0.598,0.163 m -5.402,-1.91 c -0.026,0.109 -0.045,0.217 -0.062,0.326 -0.01,0.081 -0.018,0.172 -0.028,0.253 -0.008,0.082 -0.008,0.154 -0.019,0.235 -0.008,0.1 -0.026,0.2 -0.034,0.299 -0.011,0.081 0,0.181 0.034,0.281 0.037,0.09 0.071,0.181 0.118,0.271 0.045,0.082 0.082,0.163 0.116,0.245 0.039,0.063 0.074,0.135 0.101,0.216 0.036,0.082 0.073,0.163 0.1,0.245 0.027,0.082 0.055,0.163 0.081,0.245 0.027,0.109 0.056,0.216 0.082,0.335 0.008,0.062 0.017,0.126 0.026,0.19 0.011,0.062 0.011,0.136 0.019,0.207 0.01,0.064 0.019,0.136 0.028,0.199 0.009,0.1 0.026,0.209 0.053,0.317 0.027,0.099 0.056,0.19 0.099,0.281 0.057,0.1 0.109,0.208 0.167,0.316 0.051,0.091 0.096,0.189 0.143,0.29 0.026,0.072 0.045,0.153 0.063,0.244 0.026,0.091 0.045,0.189 0.055,0.29 0.008,0.081 0.024,0.153 0.045,0.235 0.026,0.127 0.026,0.244 0.017,0.362 0.228,0.263 0.463,0.426 0.707,0.471 0.579,0.117 0.896,0.181 0.95,0.198 0.171,0.046 0.524,0.218 1.059,0.507 0.389,0.208 0.842,0.308 1.374,0.308 0.028,0 0.218,-0.01 0.57,-0.027 m -0.462,-5.429 c -0.226,-0.046 -0.452,-0.082 -0.679,-0.118 -0.189,-0.045 -0.379,-0.082 -0.553,-0.127 -0.226,-0.054 -0.46,-0.081 -0.705,-0.072 -0.189,0.008 -0.371,-0.046 -0.542,-0.145 -0.063,-0.027 -0.118,-0.063 -0.163,-0.108 -0.172,-0.155 -0.345,-0.291 -0.524,-0.426 -0.047,-0.036 -0.1,-0.063 -0.155,-0.09 -0.179,-0.082 -0.353,-0.145 -0.523,-0.199 -0.171,-0.064 -0.345,-0.126 -0.518,-0.19 -0.189,-0.072 -0.369,-0.145 -0.559,-0.217 -0.163,-0.073 -0.326,-0.144 -0.481,-0.217 m 5.863,7.337 c -0.145,-0.027 -0.226,-0.127 -0.253,-0.298 -0.036,-0.281 -0.036,-0.552 0.009,-0.824 0.028,-0.117 0.036,-0.245 0.028,-0.371 -0.01,-0.263 -0.063,-0.526 -0.145,-0.779 -0.101,-0.271 -0.182,-0.551 -0.264,-0.851 -0.062,-0.243 -0.1,-0.506 -0.118,-0.769 0.056,-0.769 0.146,-1.285 0.281,-1.538"
         id="path165" />
      <path
         inkscape:connector-curvature="0"
         style="fill:none;stroke:#ffffff;stroke-width:0.54250002;stroke-linecap:round;stroke-linejoin:round;stroke-miterlimit:10"
         d="m 759.74,112.263 c 0.053,0.235 0.118,0.452 0.189,0.643 m 4.986,-5.53 c 0.37,0.281 0.815,0.416 1.339,0.425 m -1.755,4.253 c -0.056,0.481 -0.019,0.95 0.107,1.431 m -5.218,-3.131 c 0.01,0.389 0.062,0.742 0.173,1.05 m 6.295,-0.571 c -0.334,0.135 -0.671,0.325 -0.986,0.57 m -3.177,-2.09 c 0.302,0.135 0.761,0.245 1.368,0.308 m 1.409,-0.417 c -0.205,0.146 -0.396,0.262 -0.585,0.344"
         id="path167" />
      <path
         inkscape:connector-curvature="0"
         style="fill:#eef8fd"
         d="m 771.71,100.798 c -0.334,-0.298 -0.851,-0.706 -1.565,-1.221 -0.732,-0.534 -1.24,-0.914 -1.52,-1.141 -0.09,-0.081 -0.253,-0.271 -0.499,-0.587 -0.206,-0.271 -0.397,-0.461 -0.569,-0.571 -0.071,-0.054 -0.271,-0.153 -0.589,-0.288 -0.098,-0.046 -0.206,-0.091 -0.324,-0.137 -0.084,-0.037 -0.163,-0.072 -0.245,-0.108 h -0.062 c -0.722,0.1 -1.348,0.181 -1.874,0.235 -0.271,0.027 -0.74,0.01 -1.4,-0.046 -0.382,-0.035 -0.706,0.046 -0.971,0.254 -0.442,0.335 -0.812,0.733 -1.111,1.194 -0.281,0.408 -0.542,0.841 -0.778,1.303 -0.279,0.517 -0.453,1.077 -0.516,1.665 -0.009,0.155 -0.045,0.298 -0.108,0.444 -0.153,0.372 -0.137,0.732 0.045,1.076 0.063,0.127 0.135,0.253 0.227,0.371 0.317,0.398 0.679,0.725 1.095,0.978 0.444,0.28 0.842,0.605 1.192,0.977 0.437,0.426 0.932,0.742 1.505,0.95 0.171,0.072 0.342,0.144 0.506,0.227 0.145,0.008 0.254,-0.064 0.323,-0.227 0.11,-0.262 0.184,-0.524 0.21,-0.796 0.009,-0.126 0.027,-0.253 0.063,-0.371 0.082,-0.243 0.2,-0.479 0.335,-0.706 0.173,-0.235 0.326,-0.488 0.48,-0.76 0.116,-0.217 0.225,-0.452 0.316,-0.715 0.145,-0.751 0.189,-1.275 0.126,-1.556 -0.189,-0.09 -0.371,-0.19 -0.544,-0.308 -0.163,-0.135 -0.332,-0.271 -0.514,-0.406 -0.163,-0.154 -0.298,-0.325 -0.397,-0.534 -0.103,-0.2 -0.184,-0.417 -0.255,-0.652 -0.026,-0.063 -0.063,-0.126 -0.092,-0.19 -0.116,-0.198 -0.262,-0.389 -0.424,-0.561 -0.172,-0.163 -0.354,-0.325 -0.524,-0.488 -0.173,-0.154 -0.353,-0.29 -0.542,-0.417 -0.174,-0.136 -0.354,-0.262 -0.536,-0.371 0.183,0.109 0.362,0.235 0.536,0.371 0.189,0.127 0.369,0.262 0.542,0.417 0.171,0.164 0.353,0.326 0.524,0.488 0.162,0.172 0.308,0.362 0.424,0.561 0.028,0.064 0.065,0.127 0.092,0.19 0.071,0.235 0.152,0.452 0.255,0.652 0.1,0.208 0.234,0.379 0.397,0.534 0.182,0.135 0.351,0.271 0.514,0.406 0.173,0.118 0.354,0.218 0.544,0.308 0.234,0.019 0.463,0.036 0.677,0.064 0.198,0.009 0.39,0.018 0.573,0.027 0.234,0 0.469,0.036 0.705,0.108 0.188,0.055 0.371,0.055 0.559,0 0.065,-0.01 0.119,-0.036 0.184,-0.063 0.206,-0.1 0.406,-0.19 0.614,-0.271 0.062,-0.027 0.118,-0.044 0.171,-0.055 0.189,-0.027 0.382,-0.044 0.561,-0.054 0.182,-0.018 0.363,-0.036 0.553,-0.045 0.189,-0.027 0.39,-0.046 0.589,-0.072 0.171,-0.028 0.351,-0.055 0.522,-0.083"
         id="path169" />
      <path
         inkscape:connector-curvature="0"
         style="fill:#eef8fd"
         d="m 769.483,101.052 c -0.053,0.01 -0.105,0.028 -0.171,0.054 -0.208,0.081 -0.408,0.172 -0.614,0.272 -0.064,0.027 -0.118,0.053 -0.181,0.062 -0.19,0.055 -0.373,0.055 -0.562,0 -0.236,-0.072 -0.471,-0.108 -0.705,-0.108 -0.184,-0.009 -0.373,-0.018 -0.573,-0.028 -0.214,-0.027 -0.442,-0.044 -0.677,-0.062 0.063,0.281 0.019,0.805 -0.126,1.555 -0.092,0.263 -0.2,0.499 -0.316,0.717 -0.154,0.271 -0.308,0.524 -0.48,0.759 -0.135,0.226 -0.253,0.462 -0.335,0.706 -0.034,0.118 -0.055,0.244 -0.063,0.371 -0.026,0.271 -0.1,0.534 -0.207,0.795 -0.072,0.163 -0.182,0.235 -0.326,0.227 0.334,0.099 0.525,0.154 0.552,0.163 0.516,0.135 0.977,0.163 1.393,0.072 0.598,-0.145 0.987,-0.218 1.16,-0.218 0.062,-0.009 0.388,0.01 0.975,0.046 0.247,0.027 0.508,-0.063 0.797,-0.271 0.019,-0.109 0.056,-0.227 0.108,-0.344 0.045,-0.063 0.084,-0.136 0.11,-0.217 0.045,-0.09 0.081,-0.18 0.126,-0.262 0.045,-0.082 0.08,-0.154 0.116,-0.218 0.071,-0.09 0.146,-0.172 0.229,-0.244 0.081,-0.091 0.153,-0.181 0.234,-0.262 0.063,-0.082 0.126,-0.163 0.171,-0.245 0.054,-0.099 0.101,-0.198 0.137,-0.289 0.026,-0.063 0.056,-0.127 0.08,-0.181 0.028,-0.072 0.047,-0.144 0.073,-0.208 0.01,-0.064 0.036,-0.118 0.063,-0.173 0.055,-0.099 0.107,-0.208 0.173,-0.308 0.045,-0.071 0.09,-0.144 0.143,-0.208 0.045,-0.072 0.103,-0.145 0.155,-0.217 0.045,-0.063 0.1,-0.118 0.152,-0.181 0.056,-0.072 0.119,-0.136 0.182,-0.198 0.063,-0.082 0.118,-0.164 0.182,-0.235 0.063,-0.082 0.098,-0.172 0.108,-0.263 0.008,-0.1 0.026,-0.199 0.036,-0.299 0.009,-0.072 0.029,-0.154 0.047,-0.235 0.009,-0.082 0.024,-0.164 0.035,-0.244 0.01,-0.109 0.019,-0.217 0.026,-0.335 -0.171,0.027 -0.351,0.055 -0.524,0.082 -0.199,0.026 -0.399,0.045 -0.589,0.072 -0.189,0.01 -0.371,0.027 -0.553,0.046 -0.179,0.009 -0.371,0.027 -0.561,0.054"
         id="path171" />
      <path
         inkscape:connector-curvature="0"
         style="fill:none;stroke:#a3b1da;stroke-width:1.44770002;stroke-linecap:round;stroke-linejoin:round;stroke-miterlimit:10"
         d="m 764.146,106.373 c -0.164,-0.082 -0.335,-0.155 -0.506,-0.227 -0.573,-0.208 -1.068,-0.525 -1.505,-0.95 -0.351,-0.371 -0.748,-0.698 -1.192,-0.978 -0.416,-0.254 -0.777,-0.58 -1.095,-0.978 -0.09,-0.117 -0.163,-0.244 -0.227,-0.37 -0.182,-0.344 -0.198,-0.706 -0.045,-1.076 0.063,-0.146 0.1,-0.289 0.108,-0.444 0.062,-0.588 0.236,-1.149 0.516,-1.665 0.236,-0.461 0.497,-0.896 0.778,-1.303 0.3,-0.461 0.669,-0.86 1.111,-1.195 0.265,-0.208 0.589,-0.289 0.971,-0.253 0.66,0.055 1.129,0.073 1.4,0.045 0.526,-0.053 1.152,-0.135 1.874,-0.235 h 0.062 c 0.082,0.037 0.161,0.072 0.245,0.108 0.118,0.046 0.227,0.091 0.326,0.137 0.316,0.135 0.516,0.235 0.587,0.289 0.172,0.11 0.363,0.298 0.569,0.57 0.246,0.317 0.409,0.507 0.499,0.588 0.279,0.227 0.787,0.606 1.52,1.14 0.715,0.516 1.231,0.922 1.565,1.221 m -5.706,0.445 c 0.234,0.019 0.463,0.036 0.677,0.063 0.2,0.01 0.39,0.019 0.573,0.028 0.234,0 0.469,0.036 0.705,0.108 0.188,0.055 0.371,0.055 0.559,0 0.065,-0.009 0.119,-0.036 0.184,-0.063 0.206,-0.1 0.406,-0.19 0.614,-0.271 0.065,-0.027 0.118,-0.044 0.171,-0.054 0.189,-0.027 0.382,-0.045 0.561,-0.054 0.184,-0.019 0.363,-0.037 0.553,-0.045 0.189,-0.027 0.39,-0.046 0.589,-0.072 0.174,-0.027 0.354,-0.055 0.524,-0.082 m -10e-4,-0.002 c -0.008,0.118 -0.017,0.227 -0.026,0.335 -0.011,0.081 -0.026,0.162 -0.035,0.244 -0.018,0.082 -0.038,0.163 -0.047,0.235 -0.01,0.1 -0.028,0.199 -0.036,0.298 -0.011,0.091 -0.045,0.181 -0.108,0.264 -0.063,0.072 -0.118,0.153 -0.182,0.235 -0.062,0.062 -0.124,0.126 -0.182,0.198 -0.053,0.063 -0.107,0.118 -0.15,0.181 -0.055,0.073 -0.112,0.146 -0.157,0.218 -0.053,0.063 -0.098,0.137 -0.143,0.208 -0.065,0.099 -0.118,0.208 -0.173,0.307 -0.027,0.055 -0.054,0.109 -0.063,0.173 -0.026,0.062 -0.045,0.135 -0.073,0.208 -0.024,0.054 -0.054,0.118 -0.08,0.181 -0.036,0.09 -0.083,0.19 -0.137,0.289 -0.045,0.081 -0.107,0.163 -0.171,0.245 -0.081,0.081 -0.153,0.171 -0.234,0.262 -0.082,0.072 -0.157,0.154 -0.229,0.244 -0.036,0.064 -0.071,0.136 -0.116,0.218 -0.045,0.081 -0.081,0.171 -0.126,0.262 -0.026,0.082 -0.065,0.154 -0.11,0.217 -0.053,0.118 -0.09,0.235 -0.108,0.344 -0.289,0.208 -0.55,0.298 -0.797,0.271 -0.587,-0.036 -0.913,-0.055 -0.975,-0.046 -0.173,0 -0.562,0.072 -1.16,0.218 -0.414,0.091 -0.877,0.063 -1.393,-0.072 -0.026,-0.009 -0.218,-0.063 -0.552,-0.163 m -1.974,-9.058 c 0.183,0.108 0.362,0.236 0.536,0.372 0.189,0.126 0.369,0.262 0.542,0.417 0.171,0.163 0.353,0.325 0.524,0.488 0.162,0.171 0.308,0.362 0.426,0.561 0.026,0.064 0.063,0.126 0.09,0.19 0.071,0.235 0.152,0.452 0.255,0.651 0.1,0.208 0.234,0.38 0.397,0.534 0.182,0.135 0.351,0.271 0.514,0.407 0.173,0.118 0.354,0.217 0.544,0.308 m -1.855,5.131 c 0.145,0.008 0.254,-0.064 0.323,-0.227 0.11,-0.263 0.184,-0.525 0.21,-0.796 0.009,-0.127 0.029,-0.253 0.063,-0.371 0.082,-0.244 0.2,-0.48 0.335,-0.706 0.173,-0.235 0.326,-0.488 0.48,-0.759 0.118,-0.219 0.225,-0.454 0.316,-0.716 0.145,-0.751 0.189,-1.275 0.126,-1.556"
         id="path173" />
      <path
         inkscape:connector-curvature="0"
         style="fill:none;stroke:#ffffff;stroke-width:0.54250002;stroke-linecap:round;stroke-linejoin:round;stroke-miterlimit:10"
         d="m 768.145,100.373 c -0.324,0.054 -0.796,0.036 -1.401,-0.054 m -1.259,-0.76 c 0.163,0.189 0.326,0.354 0.479,0.479 m -2.234,0.733 c 0.289,0.217 0.561,0.479 0.805,0.796 m 0.995,-3.89 c -0.424,0.172 -0.896,0.19 -1.402,0.063 m 0.597,4.56 c -0.071,0.471 -0.234,0.923 -0.479,1.357 m 5.854,-1.682 c -0.108,0.38 -0.253,0.705 -0.435,0.967 m -0.397,0.788 c -0.118,0.216 -0.236,0.407 -0.353,0.579"
         id="path175" />
      <path
         inkscape:connector-curvature="0"
         style="fill:#eef8fd"
         d="m 759.069,119.058 c -0.017,0.082 -0.017,0.181 0.011,0.298 0.028,0.1 0.053,0.208 0.089,0.308 0.037,0.091 0.073,0.182 0.101,0.282 0.026,0.072 0.045,0.153 0.071,0.243 0.028,0.09 0.057,0.181 0.073,0.281 0.026,0.082 0.045,0.173 0.053,0.271 0.021,0.117 0.039,0.235 0.047,0.371 0.008,0.063 0.008,0.126 0.008,0.199 -0.008,0.072 -0.008,0.154 -0.008,0.234 -0.008,0.074 -0.008,0.146 0,0.209 -0.008,0.117 0,0.236 0.008,0.353 0.019,0.1 0.047,0.208 0.074,0.308 0.045,0.117 0.09,0.235 0.134,0.371 0.045,0.099 0.082,0.208 0.119,0.325 0.01,0.082 0.028,0.172 0.036,0.272 0.011,0.1 0.019,0.198 0.019,0.316 0.008,0.082 0.008,0.172 0.019,0.254 0.008,0.134 -0.011,0.27 -0.037,0.388 0.216,0.317 0.453,0.516 0.705,0.606 0.608,0.2 0.933,0.308 0.987,0.335 0.171,0.072 0.532,0.299 1.066,0.678 0.39,0.281 0.862,0.453 1.431,0.517 0.037,0.009 0.245,0.018 0.614,0.045 -0.153,-0.045 -0.227,-0.163 -0.234,-0.354 0.008,-0.298 0.045,-0.597 0.126,-0.886 0.037,-0.118 0.065,-0.245 0.073,-0.38 0.026,-0.298 0.009,-0.579 -0.055,-0.86 -0.063,-0.307 -0.118,-0.624 -0.163,-0.941 -0.035,-0.281 -0.045,-0.561 -0.028,-0.841 0.165,-0.824 0.336,-1.366 0.508,-1.619 -0.235,-0.073 -0.472,-0.146 -0.706,-0.217 -0.208,-0.064 -0.397,-0.137 -0.579,-0.208 -0.234,-0.081 -0.487,-0.136 -0.75,-0.164 -0.208,-0.027 -0.39,-0.1 -0.553,-0.227 -0.061,-0.045 -0.126,-0.099 -0.171,-0.144 -0.161,-0.181 -0.335,-0.353 -0.508,-0.516 -0.045,-0.045 -0.09,-0.09 -0.143,-0.126 -0.191,-0.109 -0.363,-0.199 -0.536,-0.28 -0.18,-0.101 -0.361,-0.191 -0.532,-0.272 -0.191,-0.1 -0.381,-0.208 -0.571,-0.308 -0.171,-0.1 -0.326,-0.199 -0.479,-0.298 -0.047,0.117 -0.092,0.226 -0.118,0.344 -0.027,0.09 -0.045,0.18 -0.063,0.262 -0.011,0.082 -0.028,0.171 -0.045,0.254 -0.029,0.1 -0.054,0.208 -0.093,0.317"
         id="path177" />
      <path
         inkscape:connector-curvature="0"
         style="fill:#eef8fd"
         d="m 759.866,118.18 c 0.19,0.1 0.38,0.208 0.571,0.308 0.171,0.081 0.353,0.172 0.532,0.272 0.173,0.08 0.345,0.171 0.536,0.28 0.053,0.036 0.098,0.082 0.143,0.126 0.173,0.162 0.345,0.335 0.508,0.516 0.045,0.045 0.11,0.101 0.171,0.146 0.163,0.126 0.345,0.198 0.553,0.226 0.263,0.028 0.516,0.081 0.75,0.163 0.182,0.072 0.371,0.145 0.579,0.208 0.234,0.072 0.471,0.144 0.706,0.216 0.228,-0.008 0.452,-0.045 0.66,-0.09 0.216,-0.064 0.444,-0.136 0.689,-0.199 0.226,-0.081 0.424,-0.199 0.613,-0.371 0.182,-0.154 0.353,-0.334 0.516,-0.543 0.065,-0.064 0.118,-0.11 0.174,-0.154 0.189,-0.154 0.407,-0.28 0.65,-0.38 0.234,-0.099 0.48,-0.199 0.724,-0.29 0.227,-0.081 0.471,-0.145 0.716,-0.198 0.224,-0.063 0.46,-0.117 0.687,-0.163 -0.227,0.045 -0.463,0.1 -0.687,0.163 -0.245,0.054 -0.489,0.118 -0.716,0.198 -0.243,0.091 -0.489,0.191 -0.724,0.29 -0.243,0.1 -0.461,0.226 -0.65,0.38 -0.056,0.044 -0.108,0.09 -0.174,0.154 -0.163,0.208 -0.334,0.389 -0.516,0.543 -0.189,0.171 -0.388,0.29 -0.613,0.371 -0.245,0.063 -0.474,0.135 -0.689,0.199 -0.208,0.045 -0.433,0.082 -0.66,0.09 -0.172,0.253 -0.343,0.796 -0.508,1.62 -0.017,0.28 -0.007,0.561 0.028,0.842 0.045,0.316 0.1,0.633 0.163,0.94 0.063,0.281 0.081,0.562 0.055,0.86 -0.008,0.136 -0.036,0.262 -0.073,0.38 -0.081,0.289 -0.118,0.587 -0.126,0.885 0.008,0.191 0.081,0.31 0.234,0.354 0.199,-0.01 0.397,-0.01 0.597,-0.01 0.653,0.019 1.285,-0.099 1.891,-0.353 0.508,-0.226 1.033,-0.397 1.586,-0.498 0.514,-0.081 1.012,-0.253 1.492,-0.524 0.145,-0.082 0.279,-0.181 0.397,-0.281 0.316,-0.281 0.47,-0.633 0.47,-1.058 0,-0.172 0.018,-0.336 0.064,-0.489 0.174,-0.625 0.234,-1.249 0.174,-1.883 -0.065,-0.551 -0.146,-1.085 -0.255,-1.61 -0.118,-0.579 -0.335,-1.132 -0.645,-1.647 -0.18,-0.316 -0.461,-0.524 -0.85,-0.642 -0.695,-0.208 -1.167,-0.389 -1.43,-0.524 -0.497,-0.271 -1.095,-0.607 -1.773,-1.004 -0.024,-0.009 -0.043,-0.018 -0.071,-0.028 -0.101,0 -0.189,0 -0.279,0.01 -0.147,0.009 -0.273,0.009 -0.382,0.009 -0.371,0.018 -0.605,0.036 -0.705,0.054 -0.218,0.045 -0.489,0.154 -0.813,0.345 -0.363,0.216 -0.607,0.343 -0.726,0.379 -0.369,0.109 -1.04,0.28 -1.99,0.524 -0.924,0.227 -1.61,0.426 -2.053,0.588 0.153,0.101 0.308,0.201 0.479,0.3"
         id="path179" />
      <path
         inkscape:connector-curvature="0"
         style="fill:none;stroke:#a3b1da;stroke-width:1.44770002;stroke-linecap:round;stroke-linejoin:round;stroke-miterlimit:10"
         d="m 764.688,126.522 c -0.369,-0.027 -0.577,-0.036 -0.614,-0.045 -0.568,-0.064 -1.041,-0.235 -1.431,-0.516 -0.534,-0.38 -0.896,-0.607 -1.066,-0.679 -0.055,-0.028 -0.379,-0.136 -0.987,-0.335 -0.252,-0.091 -0.489,-0.29 -0.705,-0.606 0.026,-0.118 0.045,-0.253 0.037,-0.389 -0.011,-0.083 -0.011,-0.173 -0.019,-0.253 0,-0.118 -0.008,-0.217 -0.019,-0.317 -0.008,-0.099 -0.026,-0.191 -0.036,-0.272 -0.037,-0.117 -0.074,-0.226 -0.119,-0.325 -0.044,-0.136 -0.089,-0.254 -0.134,-0.371 -0.027,-0.1 -0.056,-0.208 -0.074,-0.307 -0.008,-0.118 -0.016,-0.236 -0.008,-0.353 -0.008,-0.063 -0.008,-0.135 0,-0.208 0,-0.082 0,-0.163 0.008,-0.235 0,-0.073 0,-0.136 -0.008,-0.199 -0.008,-0.136 -0.026,-0.254 -0.047,-0.371 -0.008,-0.099 -0.026,-0.189 -0.053,-0.272 -0.017,-0.099 -0.045,-0.19 -0.073,-0.279 -0.026,-0.091 -0.045,-0.172 -0.071,-0.245 -0.027,-0.1 -0.063,-0.191 -0.101,-0.282 -0.036,-0.099 -0.061,-0.207 -0.089,-0.308 -0.027,-0.117 -0.027,-0.217 -0.011,-0.298 0.039,-0.108 0.063,-0.216 0.092,-0.316 0.017,-0.081 0.034,-0.172 0.045,-0.253 0.019,-0.082 0.036,-0.172 0.063,-0.263 0.026,-0.117 0.071,-0.227 0.118,-0.344 m 0.002,0 c 0.152,0.1 0.308,0.2 0.479,0.299 0.19,0.099 0.38,0.208 0.571,0.308 0.171,0.082 0.353,0.172 0.532,0.272 0.173,0.081 0.345,0.171 0.536,0.28 0.053,0.037 0.098,0.082 0.143,0.126 0.173,0.163 0.347,0.334 0.508,0.516 0.045,0.046 0.11,0.1 0.171,0.145 0.163,0.127 0.345,0.2 0.553,0.227 0.263,0.027 0.516,0.082 0.75,0.163 0.182,0.072 0.371,0.144 0.579,0.208 0.234,0.071 0.471,0.144 0.706,0.217 m -0.228,5.88 c 0.199,-0.009 0.397,-0.009 0.6,-0.009 0.65,0.018 1.282,-0.1 1.888,-0.353 0.508,-0.226 1.033,-0.398 1.586,-0.497 0.514,-0.082 1.012,-0.253 1.492,-0.525 0.145,-0.081 0.279,-0.181 0.397,-0.28 0.316,-0.28 0.47,-0.633 0.47,-1.059 0,-0.171 0.018,-0.335 0.064,-0.488 0.174,-0.625 0.234,-1.249 0.174,-1.882 -0.065,-0.552 -0.146,-1.085 -0.255,-1.61 -0.118,-0.579 -0.335,-1.132 -0.645,-1.647 -0.18,-0.317 -0.461,-0.524 -0.85,-0.642 -0.695,-0.208 -1.167,-0.389 -1.43,-0.525 -0.497,-0.271 -1.095,-0.606 -1.773,-1.004 -0.024,-0.01 -0.043,-0.019 -0.071,-0.028 -0.101,0 -0.189,0 -0.279,0.009 -0.147,0.008 -0.273,0.008 -0.382,0.008 -0.371,0.019 -0.605,0.037 -0.705,0.055 -0.218,0.045 -0.489,0.153 -0.813,0.344 -0.363,0.217 -0.607,0.344 -0.726,0.38 -0.369,0.108 -1.04,0.279 -1.99,0.525 -0.924,0.225 -1.61,0.425 -2.053,0.587 m 5.528,2.761 c 0.228,-0.009 0.452,-0.045 0.66,-0.09 0.216,-0.064 0.444,-0.136 0.689,-0.199 0.226,-0.082 0.424,-0.2 0.613,-0.371 0.182,-0.155 0.353,-0.336 0.516,-0.543 0.065,-0.064 0.118,-0.109 0.174,-0.154 0.189,-0.154 0.407,-0.28 0.65,-0.38 0.234,-0.099 0.48,-0.199 0.724,-0.29 0.227,-0.082 0.471,-0.145 0.716,-0.199 0.224,-0.063 0.46,-0.118 0.687,-0.164 m -5.429,2.39 c -0.172,0.252 -0.343,0.795 -0.508,1.62 -0.017,0.28 -0.007,0.561 0.028,0.841 0.045,0.317 0.1,0.633 0.163,0.941 0.063,0.281 0.081,0.562 0.055,0.86 -0.008,0.136 -0.036,0.262 -0.073,0.38 -0.081,0.289 -0.118,0.588 -0.126,0.886 0.008,0.191 0.081,0.309 0.234,0.354"
         id="path181" />
      <path
         inkscape:connector-curvature="0"
         style="fill:none;stroke:#ffffff;stroke-width:0.54250002;stroke-linecap:round;stroke-linejoin:round;stroke-miterlimit:10"
         d="m 766.117,119.166 c -0.242,0.118 -0.469,0.217 -0.677,0.281 m -4.805,2.361 c 0.029,0.254 0.074,0.489 0.127,0.715 m 6.624,-1.439 c -0.382,0.099 -0.761,0.262 -1.132,0.488 m -5.745,-1.854 c -0.045,0.417 -0.026,0.796 0.055,1.149 m 6.269,-3.61 c 0.361,0.344 0.824,0.553 1.376,0.634 m -2.444,4.324 c -0.116,0.506 -0.145,1.022 -0.071,1.548 m -2.569,-4.859 c 0.297,0.19 0.776,0.362 1.429,0.516"
         id="path183" />
      <path
         inkscape:connector-curvature="0"
         style="fill:#eef8fd"
         d="m 767.133,117.113 c 0.053,0.117 0.153,0.208 0.289,0.271 1.185,0.588 2.443,0.959 3.764,1.132 h 0.498 c 0.107,-0.028 0.163,-0.118 0.163,-0.254 0.008,-0.227 -0.026,-0.444 -0.09,-0.652 -0.028,-0.099 -0.047,-0.198 -0.055,-0.298 -0.009,-0.208 0,-0.416 0.044,-0.624 0.045,-0.226 0.082,-0.46 0.127,-0.697 0.026,-0.207 0.026,-0.416 0.008,-0.633 -0.116,-0.606 -0.232,-1.004 -0.36,-1.194 -0.65,-0.01 -1.211,-0.226 -1.674,-0.651 -0.652,-0.606 -1.439,-0.968 -2.353,-1.104 0.913,0.136 1.7,0.498 2.353,1.104 0.463,0.425 1.023,0.641 1.674,0.651 0.932,-0.137 1.755,-0.489 2.452,-1.041 0.262,-0.208 0.551,-0.398 0.849,-0.561 0.265,-0.144 0.525,-0.289 0.789,-0.434 -0.716,-0.227 -1.43,-0.416 -2.146,-0.579 -0.605,-0.118 -1.194,-0.325 -1.755,-0.625 -0.171,-0.081 -0.361,-0.145 -0.561,-0.172 -0.225,-0.009 -0.463,-0.027 -0.697,-0.036 -0.469,0.263 -0.95,0.516 -1.43,0.76 -0.244,0.118 -0.497,0.217 -0.76,0.316 -0.83,0.317 -1.301,0.959 -1.411,1.91 -0.063,0.553 -0.1,1.113 -0.1,1.683 0.009,0.605 0.135,1.176 0.382,1.728"
         id="path185" />
      <path
         inkscape:connector-curvature="0"
         style="fill:#eef8fd"
         d="m 775.61,112.127 c -0.264,0.145 -0.524,0.29 -0.787,0.434 -0.3,0.163 -0.589,0.354 -0.851,0.562 -0.697,0.551 -1.521,0.904 -2.452,1.04 0.128,0.19 0.244,0.588 0.36,1.194 0.019,0.217 0.019,0.425 -0.008,0.633 -0.045,0.236 -0.082,0.47 -0.127,0.697 -0.044,0.208 -0.053,0.416 -0.044,0.624 0.008,0.099 0.026,0.2 0.055,0.299 0.063,0.208 0.098,0.425 0.09,0.651 0,0.136 -0.056,0.227 -0.163,0.253 0.281,-0.009 0.426,-0.018 0.452,-0.027 0.425,-0.045 0.777,-0.172 1.066,-0.38 0.392,-0.28 0.652,-0.443 0.779,-0.506 0.047,-0.018 0.289,-0.1 0.742,-0.244 0.181,-0.063 0.354,-0.217 0.505,-0.443 -0.008,-0.101 -0.008,-0.191 -0.016,-0.291 -0.019,-0.299 0.026,-0.597 0.145,-0.878 0.116,-0.279 0.171,-0.587 0.152,-0.913 -0.018,-0.354 0.029,-0.688 0.127,-1.005 0.045,-0.126 0.079,-0.253 0.118,-0.39 0.026,-0.107 0.045,-0.216 0.037,-0.325 -0.027,-0.334 -0.088,-0.659 -0.18,-0.985"
         id="path187" />
      <path
         inkscape:connector-curvature="0"
         style="fill:none;stroke:#a3b1da;stroke-width:1.44770002;stroke-linecap:round;stroke-linejoin:round;stroke-miterlimit:10"
         d="m 771.684,118.516 h -0.498 c -1.32,-0.173 -2.579,-0.543 -3.764,-1.131 -0.136,-0.064 -0.236,-0.155 -0.289,-0.272 -0.247,-0.552 -0.371,-1.122 -0.381,-1.729 0,-0.57 0.036,-1.13 0.1,-1.683 0.11,-0.95 0.581,-1.592 1.411,-1.909 0.263,-0.1 0.516,-0.199 0.76,-0.317 0.479,-0.243 0.961,-0.497 1.43,-0.76 0.236,0.009 0.473,0.027 0.697,0.037 0.199,0.027 0.39,0.09 0.561,0.171 0.561,0.299 1.149,0.507 1.755,0.625 0.716,0.163 1.43,0.353 2.146,0.579 m -0.002,0 c -0.264,0.145 -0.524,0.291 -0.787,0.434 -0.298,0.163 -0.589,0.353 -0.851,0.561 -0.697,0.552 -1.521,0.905 -2.452,1.041 m 0.164,4.353 c 0.281,-0.01 0.426,-0.019 0.452,-0.028 0.425,-0.045 0.777,-0.172 1.066,-0.38 0.392,-0.28 0.652,-0.442 0.779,-0.506 0.047,-0.018 0.291,-0.1 0.742,-0.244 0.181,-0.063 0.354,-0.217 0.505,-0.443 -0.008,-0.101 -0.008,-0.191 -0.016,-0.291 -0.019,-0.299 0.026,-0.597 0.145,-0.878 0.116,-0.279 0.171,-0.587 0.152,-0.913 -0.018,-0.354 0.029,-0.688 0.127,-1.004 0.045,-0.127 0.079,-0.253 0.118,-0.39 0.026,-0.108 0.045,-0.216 0.037,-0.324 -0.029,-0.335 -0.09,-0.661 -0.182,-0.987 m -8.115,0.28 c 0.913,0.135 1.7,0.497 2.353,1.104 0.463,0.425 1.023,0.642 1.674,0.651 m 0,0 c 0.128,0.19 0.244,0.588 0.36,1.194 0.019,0.217 0.019,0.425 -0.008,0.633 -0.045,0.236 -0.082,0.47 -0.127,0.697 -0.044,0.208 -0.053,0.416 -0.044,0.624 0.008,0.099 0.026,0.199 0.055,0.299 0.063,0.208 0.098,0.425 0.09,0.651 0,0.136 -0.056,0.227 -0.163,0.254"
         id="path189" />
      <path
         inkscape:connector-curvature="0"
         style="fill:none;stroke:#ffffff;stroke-width:0.54250002;stroke-linecap:round;stroke-linejoin:round;stroke-miterlimit:10"
         d="m 772.699,113.086 -0.537,0.155 m -4.487,0.85 c -0.118,0.587 -0.145,1.076 -0.09,1.465 m 4.867,-3.483 c -0.39,-0.109 -0.759,-0.245 -1.121,-0.399 m -2.515,2.055 c -0.246,-0.126 -0.48,-0.227 -0.724,-0.29 m 4.634,1.258 c -0.065,0.307 -0.074,0.588 -0.026,0.851 m -1.351,-2.199 c -0.379,-0.01 -0.705,-0.136 -0.986,-0.39 m 2.318,3.294 c 0.019,0.189 0.034,0.371 0.053,0.534"
         id="path191" />
      <path
         inkscape:connector-curvature="0"
         style="fill:#eef8fd"
         d="m 778.269,104.173 c -0.1,-0.081 -0.197,-0.154 -0.279,-0.217 -0.273,-0.216 -0.452,-0.344 -0.534,-0.38 -0.171,-0.1 -0.424,-0.181 -0.778,-0.244 -0.38,-0.063 -0.622,-0.118 -0.732,-0.163 -0.326,-0.145 -0.895,-0.417 -1.719,-0.814 -0.787,-0.39 -1.384,-0.661 -1.811,-0.815 0.056,0.164 0.108,0.335 0.176,0.506 0.069,0.191 0.143,0.371 0.214,0.562 0.073,0.163 0.145,0.326 0.216,0.497 0.073,0.163 0.139,0.335 0.2,0.525 0.028,0.054 0.037,0.109 0.047,0.172 0.026,0.226 0.037,0.451 0.045,0.679 0.008,0.063 0.017,0.126 0.026,0.19 0.045,0.19 0.126,0.352 0.263,0.498 0.172,0.172 0.307,0.353 0.427,0.561 0.087,0.154 0.179,0.318 0.279,0.489 0.134,0.19 0.261,0.389 0.379,0.579 0.171,0.118 0.345,0.227 0.526,0.325 0.189,0.082 0.397,0.172 0.604,0.272 0.212,0.082 0.428,0.108 0.652,0.099 0.218,-0.008 0.444,-0.027 0.688,-0.071 0.082,-0.01 0.153,-0.02 0.219,-0.01 0.224,0.01 0.461,0.046 0.687,0.109 0.227,0.081 0.451,0.154 0.68,0.235 0.205,0.082 0.415,0.18 0.623,0.28 0.198,0.099 0.39,0.199 0.577,0.299 -0.188,-0.1 -0.379,-0.2 -0.577,-0.299 -0.208,-0.1 -0.418,-0.199 -0.623,-0.28 -0.229,-0.081 -0.453,-0.154 -0.68,-0.235 -0.226,-0.063 -0.463,-0.099 -0.687,-0.109 -0.065,-0.01 -0.137,0 -0.219,0.01 -0.244,0.044 -0.471,0.063 -0.688,0.071 -0.225,0.01 -0.44,-0.017 -0.652,-0.099 -0.206,-0.1 -0.414,-0.19 -0.604,-0.272 -0.182,-0.098 -0.355,-0.208 -0.526,-0.325 -0.279,0.072 -0.716,0.352 -1.321,0.842 -0.18,0.19 -0.345,0.398 -0.479,0.606 -0.163,0.262 -0.309,0.516 -0.445,0.77 -0.134,0.234 -0.289,0.443 -0.469,0.633 -0.092,0.091 -0.191,0.172 -0.289,0.236 -0.227,0.153 -0.433,0.335 -0.607,0.552 -0.116,0.136 -0.135,0.262 -0.054,0.389 0.146,0.117 0.29,0.226 0.435,0.343 0.453,0.407 0.967,0.697 1.539,0.878 0.496,0.145 0.969,0.344 1.419,0.597 0.425,0.254 0.879,0.425 1.377,0.515 0.152,0.019 0.297,0.028 0.442,0.028 0.389,0 0.705,-0.154 0.958,-0.462 0.11,-0.117 0.227,-0.217 0.345,-0.298 0.497,-0.335 0.905,-0.751 1.231,-1.24 0.289,-0.416 0.552,-0.841 0.784,-1.285 0.264,-0.479 0.437,-0.995 0.537,-1.537 0.055,-0.336 -0.019,-0.662 -0.229,-0.987 -0.361,-0.561 -0.596,-0.959 -0.695,-1.203 -0.189,-0.498 -0.414,-1.086 -0.661,-1.774 -0.01,-0.018 -0.018,-0.036 -0.026,-0.054 -0.075,-0.065 -0.146,-0.119 -0.211,-0.174"
         id="path193" />
      <path
         inkscape:connector-curvature="0"
         style="fill:#eef8fd"
         d="m 773.021,103.105 c -0.071,-0.171 -0.143,-0.334 -0.216,-0.497 -0.071,-0.19 -0.145,-0.371 -0.214,-0.562 -0.067,-0.172 -0.12,-0.343 -0.176,-0.506 -0.1,0.063 -0.189,0.118 -0.279,0.181 -0.073,0.045 -0.146,0.1 -0.208,0.153 -0.055,0.046 -0.118,0.1 -0.182,0.145 -0.081,0.055 -0.162,0.118 -0.244,0.181 -0.063,0.044 -0.126,0.118 -0.18,0.217 -0.047,0.082 -0.083,0.172 -0.118,0.262 -0.028,0.082 -0.065,0.172 -0.092,0.262 -0.026,0.064 -0.053,0.137 -0.1,0.218 -0.026,0.081 -0.063,0.154 -0.108,0.235 -0.034,0.073 -0.073,0.144 -0.118,0.226 -0.063,0.1 -0.135,0.191 -0.197,0.29 -0.037,0.045 -0.073,0.091 -0.118,0.145 -0.045,0.045 -0.101,0.1 -0.146,0.164 -0.045,0.045 -0.081,0.09 -0.126,0.145 -0.063,0.081 -0.127,0.163 -0.189,0.252 -0.056,0.082 -0.1,0.173 -0.135,0.263 -0.047,0.118 -0.082,0.227 -0.129,0.335 -0.028,0.1 -0.062,0.208 -0.107,0.308 -0.045,0.064 -0.09,0.136 -0.137,0.208 -0.055,0.082 -0.108,0.163 -0.171,0.245 -0.056,0.063 -0.101,0.118 -0.146,0.181 -0.081,0.108 -0.163,0.2 -0.261,0.271 -0.039,0.344 0.008,0.624 0.135,0.833 0.308,0.498 0.479,0.778 0.506,0.832 0.083,0.154 0.191,0.525 0.345,1.113 0.107,0.426 0.344,0.833 0.705,1.221 0.028,0.018 0.163,0.155 0.407,0.399 -0.081,-0.127 -0.062,-0.253 0.054,-0.389 0.175,-0.217 0.381,-0.398 0.607,-0.552 0.098,-0.063 0.197,-0.145 0.289,-0.236 0.18,-0.19 0.335,-0.398 0.469,-0.633 0.137,-0.253 0.282,-0.507 0.447,-0.769 0.132,-0.208 0.297,-0.416 0.477,-0.606 0.607,-0.488 1.042,-0.77 1.323,-0.842 -0.12,-0.189 -0.247,-0.389 -0.381,-0.579 -0.101,-0.17 -0.192,-0.334 -0.279,-0.488 -0.12,-0.208 -0.255,-0.389 -0.427,-0.561 -0.137,-0.146 -0.218,-0.308 -0.263,-0.498 -0.01,-0.063 -0.019,-0.126 -0.026,-0.189 -0.008,-0.228 -0.019,-0.453 -0.045,-0.679 -0.01,-0.063 -0.019,-0.118 -0.047,-0.172 -0.061,-0.192 -0.123,-0.362 -0.199,-0.527"
         id="path195" />
      <path
         inkscape:connector-curvature="0"
         style="fill:none;stroke:#a3b1da;stroke-width:1.44770002;stroke-linecap:round;stroke-linejoin:round;stroke-miterlimit:10"
         d="m 771.022,110.824 c 0.146,0.117 0.29,0.226 0.435,0.343 0.453,0.407 0.969,0.697 1.539,0.878 0.496,0.145 0.969,0.344 1.419,0.597 0.425,0.254 0.879,0.426 1.377,0.517 0.154,0.018 0.297,0.027 0.442,0.027 0.389,0 0.705,-0.154 0.958,-0.462 0.11,-0.117 0.227,-0.217 0.345,-0.298 0.497,-0.335 0.905,-0.751 1.231,-1.241 0.289,-0.416 0.552,-0.841 0.784,-1.284 0.264,-0.479 0.438,-0.995 0.537,-1.538 0.055,-0.335 -0.019,-0.661 -0.227,-0.987 -0.363,-0.562 -0.598,-0.959 -0.697,-1.204 -0.189,-0.497 -0.414,-1.085 -0.661,-1.773 -0.01,-0.018 -0.018,-0.036 -0.026,-0.055 -0.073,-0.062 -0.145,-0.117 -0.21,-0.171 -0.1,-0.082 -0.197,-0.154 -0.279,-0.217 -0.273,-0.216 -0.452,-0.344 -0.534,-0.38 -0.171,-0.1 -0.424,-0.181 -0.778,-0.244 -0.38,-0.062 -0.622,-0.118 -0.73,-0.163 -0.328,-0.145 -0.896,-0.417 -1.721,-0.814 -0.787,-0.39 -1.384,-0.661 -1.811,-0.815 m 2.273,5.257 c 0.169,0.118 0.343,0.227 0.524,0.326 0.189,0.082 0.397,0.172 0.605,0.272 0.21,0.082 0.426,0.109 0.652,0.099 0.216,-0.008 0.442,-0.027 0.687,-0.072 0.082,-0.009 0.153,-0.019 0.219,-0.009 0.224,0.009 0.461,0.046 0.687,0.109 0.227,0.081 0.451,0.154 0.68,0.235 0.207,0.081 0.415,0.181 0.623,0.28 0.198,0.099 0.39,0.199 0.577,0.299 m -7.527,-6.795 c 0.056,0.164 0.108,0.334 0.176,0.506 0.069,0.191 0.143,0.371 0.214,0.562 0.073,0.163 0.145,0.326 0.216,0.497 0.073,0.164 0.139,0.335 0.2,0.525 0.028,0.054 0.037,0.109 0.047,0.172 0.026,0.226 0.037,0.451 0.045,0.679 0.008,0.063 0.017,0.126 0.026,0.189 0.047,0.19 0.126,0.353 0.263,0.498 0.172,0.172 0.307,0.353 0.427,0.56 0.087,0.155 0.179,0.318 0.279,0.489 0.134,0.19 0.261,0.39 0.381,0.579 m -2.274,-5.256 c -0.098,0.063 -0.188,0.118 -0.279,0.181 -0.073,0.045 -0.146,0.1 -0.208,0.153 -0.055,0.046 -0.118,0.1 -0.182,0.145 -0.081,0.055 -0.162,0.118 -0.244,0.181 -0.063,0.044 -0.126,0.118 -0.18,0.217 -0.047,0.082 -0.083,0.172 -0.118,0.262 -0.028,0.082 -0.065,0.172 -0.092,0.262 -0.026,0.064 -0.053,0.137 -0.1,0.218 -0.026,0.081 -0.063,0.154 -0.108,0.235 -0.034,0.073 -0.073,0.145 -0.118,0.226 -0.063,0.1 -0.135,0.19 -0.197,0.29 -0.037,0.045 -0.073,0.091 -0.118,0.145 -0.045,0.045 -0.101,0.1 -0.146,0.164 -0.045,0.045 -0.081,0.09 -0.126,0.145 -0.063,0.081 -0.127,0.163 -0.189,0.252 -0.056,0.082 -0.1,0.173 -0.135,0.263 -0.047,0.118 -0.082,0.227 -0.129,0.335 -0.028,0.1 -0.062,0.208 -0.107,0.308 -0.045,0.064 -0.09,0.136 -0.137,0.208 -0.055,0.082 -0.108,0.164 -0.171,0.245 -0.056,0.063 -0.101,0.118 -0.146,0.181 -0.081,0.108 -0.163,0.2 -0.261,0.271 -0.039,0.344 0.008,0.624 0.135,0.833 0.308,0.498 0.479,0.778 0.506,0.832 0.083,0.154 0.191,0.525 0.345,1.113 0.107,0.426 0.344,0.833 0.705,1.221 0.028,0.018 0.163,0.155 0.407,0.399 m 0,-0.002 c -0.081,-0.127 -0.062,-0.253 0.054,-0.389 0.175,-0.217 0.381,-0.398 0.607,-0.552 0.098,-0.064 0.197,-0.145 0.289,-0.236 0.18,-0.19 0.335,-0.398 0.469,-0.633 0.137,-0.253 0.282,-0.507 0.445,-0.769 0.134,-0.208 0.299,-0.416 0.479,-0.606 0.607,-0.488 1.042,-0.77 1.323,-0.842"
         id="path197" />
      <path
         inkscape:connector-curvature="0"
         style="fill:none;stroke:#ffffff;stroke-width:0.54250002;stroke-linecap:round;stroke-linejoin:round;stroke-miterlimit:10"
         d="m 776.16,108.581 c -0.324,-0.155 -0.687,-0.272 -1.082,-0.335 m -2.95,-4.732 c -0.281,0.271 -0.497,0.552 -0.652,0.841 m -0.508,0.714 c -0.137,0.208 -0.253,0.397 -0.345,0.578 m 7.439,-0.098 c 0.045,0.453 0.245,0.878 0.596,1.267 m -4.305,1.601 c -0.388,0.281 -0.706,0.624 -0.969,1.049 m 1.068,-4.967 c 0.108,0.317 0.345,0.725 0.695,1.212 m 1.268,0.751 c -0.244,-0.054 -0.462,-0.117 -0.652,-0.199"
         id="path199" />
      <path
         inkscape:connector-curvature="0"
         style="fill:#eef8fd"
         d="m 771.91,118.379 c -0.271,-0.027 -0.543,-0.064 -0.816,-0.109 -0.876,-0.136 -1.61,0.181 -2.179,0.95 -0.335,0.443 -0.643,0.905 -0.924,1.403 -0.3,0.524 -0.479,1.085 -0.542,1.684 -0.009,0.136 0.028,0.262 0.118,0.38 0.742,1.104 1.637,2.053 2.695,2.858 0.145,0.081 0.289,0.172 0.436,0.254 0.099,0.027 0.19,-0.018 0.262,-0.136 0.116,-0.19 0.199,-0.398 0.253,-0.606 0.018,-0.1 0.055,-0.199 0.1,-0.289 0.1,-0.19 0.218,-0.363 0.353,-0.525 0.155,-0.172 0.3,-0.344 0.452,-0.533 0.127,-0.172 0.235,-0.354 0.324,-0.544 0.202,-0.578 0.292,-0.986 0.282,-1.212 -0.553,-0.333 -0.933,-0.805 -1.122,-1.411 -0.263,-0.841 -0.752,-1.556 -1.484,-2.126 0.732,0.57 1.222,1.285 1.484,2.126 0.189,0.606 0.569,1.078 1.122,1.411 0.887,0.344 1.773,0.453 2.652,0.317 0.334,-0.045 0.668,-0.064 1.013,-0.054 0.298,0.009 0.605,0.009 0.905,0.018 -0.518,-0.552 -1.042,-1.076 -1.578,-1.574 -0.458,-0.407 -0.866,-0.886 -1.209,-1.42 -0.109,-0.155 -0.234,-0.298 -0.392,-0.434 -0.188,-0.119 -0.387,-0.245 -0.585,-0.371 -0.534,-0.012 -1.078,-0.03 -1.62,-0.057"
         id="path201" />
      <path
         inkscape:connector-curvature="0"
         style="fill:#eef8fd"
         d="m 776.46,123.717 c 0.099,-0.082 0.2,-0.172 0.3,-0.271 0.082,-0.082 0.145,-0.172 0.189,-0.271 0.146,-0.299 0.264,-0.616 0.345,-0.941 -0.3,-0.008 -0.607,-0.008 -0.905,-0.018 -0.345,-0.01 -0.679,0.009 -1.013,0.054 -0.879,0.135 -1.766,0.027 -2.652,-0.317 0.01,0.227 -0.08,0.634 -0.282,1.212 -0.089,0.19 -0.197,0.372 -0.324,0.543 -0.152,0.19 -0.297,0.362 -0.452,0.534 -0.135,0.163 -0.253,0.335 -0.353,0.525 -0.045,0.09 -0.082,0.19 -0.1,0.289 -0.054,0.209 -0.137,0.417 -0.253,0.607 -0.071,0.118 -0.163,0.163 -0.262,0.136 0.245,0.135 0.378,0.199 0.396,0.208 0.39,0.171 0.761,0.235 1.113,0.198 0.481,-0.045 0.796,-0.054 0.932,-0.045 0.047,0 0.309,0.055 0.77,0.163 0.189,0.027 0.407,-0.018 0.652,-0.136 0.045,-0.09 0.092,-0.18 0.136,-0.262 0.133,-0.271 0.318,-0.497 0.562,-0.688 0.244,-0.181 0.444,-0.416 0.587,-0.714 0.162,-0.308 0.37,-0.579 0.614,-0.806"
         id="path203" />
      <path
         inkscape:connector-curvature="0"
         style="fill:none;stroke:#a3b1da;stroke-width:1.44770002;stroke-linecap:round;stroke-linejoin:round;stroke-miterlimit:10"
         d="m 770.698,125.799 c -0.146,-0.082 -0.291,-0.171 -0.436,-0.254 -1.059,-0.805 -1.953,-1.755 -2.695,-2.859 -0.09,-0.118 -0.127,-0.243 -0.118,-0.379 0.062,-0.598 0.242,-1.159 0.542,-1.684 0.281,-0.498 0.589,-0.958 0.924,-1.403 0.568,-0.769 1.303,-1.085 2.179,-0.949 0.273,0.045 0.545,0.082 0.816,0.108 0.542,0.027 1.086,0.045 1.618,0.055 0.2,0.127 0.399,0.252 0.59,0.371 0.152,0.135 0.279,0.281 0.389,0.434 0.343,0.534 0.751,1.013 1.209,1.42 0.536,0.498 1.061,1.022 1.578,1.574 m -6.596,3.566 c 0.243,0.136 0.378,0.199 0.396,0.208 0.39,0.172 0.761,0.235 1.113,0.199 0.481,-0.045 0.796,-0.055 0.932,-0.045 0.047,0 0.309,0.054 0.77,0.164 0.189,0.026 0.407,-0.019 0.652,-0.137 0.045,-0.09 0.092,-0.181 0.136,-0.262 0.135,-0.271 0.318,-0.498 0.562,-0.688 0.244,-0.181 0.444,-0.416 0.587,-0.714 0.163,-0.307 0.371,-0.579 0.615,-0.806 0.099,-0.082 0.2,-0.171 0.3,-0.271 0.082,-0.081 0.145,-0.171 0.188,-0.271 0.147,-0.299 0.266,-0.616 0.347,-0.942 m -0.002,-10e-4 c -0.3,-0.009 -0.607,-0.009 -0.905,-0.018 -0.345,-0.009 -0.679,0.009 -1.013,0.055 -0.879,0.135 -1.766,0.027 -2.652,-0.317 m 0,0 c 0.01,0.226 -0.08,0.633 -0.282,1.212 -0.089,0.189 -0.197,0.371 -0.324,0.544 -0.152,0.189 -0.297,0.361 -0.452,0.533 -0.135,0.163 -0.253,0.334 -0.353,0.525 -0.045,0.09 -0.082,0.19 -0.1,0.29 -0.054,0.208 -0.137,0.416 -0.253,0.606 -0.071,0.118 -0.163,0.163 -0.262,0.136 m -0.581,-7.383 c 0.732,0.57 1.222,1.284 1.484,2.126 0.189,0.605 0.569,1.077 1.122,1.411"
         id="path205" />
      <path
         inkscape:connector-curvature="0"
         style="fill:none;stroke:#ffffff;stroke-width:0.54250002;stroke-linecap:round;stroke-linejoin:round;stroke-miterlimit:10"
         d="m 773.502,123.012 c -0.208,0.235 -0.353,0.479 -0.442,0.724 m -2.463,-3.52 c -0.137,-0.227 -0.298,-0.435 -0.479,-0.606 m 2.868,1.547 c -0.326,-0.19 -0.545,-0.471 -0.661,-0.824 m -2.894,-0.371 c -0.39,0.453 -0.652,0.86 -0.806,1.222 m 5.664,0.425 -0.542,-0.145 m 0.831,-0.859 c -0.279,-0.29 -0.534,-0.588 -0.769,-0.904 m -1.121,4.641 c -0.084,0.172 -0.155,0.335 -0.229,0.488"
         id="path207" />
      <path
         inkscape:connector-curvature="0"
         style="fill:none;stroke:#4cb6e9;stroke-width:2.1716001;stroke-linecap:round;stroke-linejoin:round;stroke-miterlimit:10"
         d="m 783.103,87.398 c 0,-1.023 -1.402,-1.901 -4.208,-2.624 -2.806,-0.724 -6.188,-1.086 -10.153,-1.086 -3.972,0 -7.354,0.362 -10.159,1.086 -2.795,0.723 -4.2,1.601 -4.2,2.624 0,1.022 1.405,1.9 4.2,2.623 2.806,0.725 6.188,1.087 10.159,1.087 3.966,0 7.348,-0.362 10.153,-1.087 2.805,-0.723 4.208,-1.6 4.208,-2.623 z"
         id="path209" />
      <path
         inkscape:connector-curvature="0"
         style="fill:none;stroke:#c9e7ea;stroke-width:1.62829995;stroke-linecap:round;stroke-linejoin:round;stroke-miterlimit:10"
         d="m 757.216,100.246 -0.66,-8.994 c 1.219,0.499 2.39,0.824 3.519,0.969"
         id="path211" />
      <path
         inkscape:connector-curvature="0"
         style="fill:#0f5caa"
         d="m 774.279,103.734 c -1.473,1.113 -2.206,2.438 -2.206,3.992 0,0.715 0.356,1.471 1.05,2.29 0.461,0.526 1.009,0.946 1.639,1.24 0.547,0.105 1.113,0.147 1.723,0.147 0.652,0 1.261,-0.021 1.829,-0.064 1.554,-0.147 2.793,-0.462 3.739,-0.987 0.296,-0.147 0.568,-0.336 0.799,-0.525 1.008,-0.862 1.513,-2.038 1.513,-3.573 0,-1.449 -0.46,-2.521 -1.365,-3.256 -0.777,-0.63 -1.85,-0.945 -3.193,-0.945 -2.187,0.001 -4.036,0.568 -5.528,1.681"
         id="path213" />
      <path
         inkscape:connector-curvature="0"
         style="fill:#0f5caa"
         d="m 784.574,111.824 c -0.336,-0.84 -0.84,-1.409 -1.513,-1.681 l -1.009,0.21 c -0.946,0.525 -2.186,0.841 -3.739,0.987 -0.609,0.273 -1.115,0.504 -1.533,0.735 -0.84,0.4 -1.368,0.694 -1.556,0.862 -1.47,1.24 -2.206,2.605 -2.206,4.056 0,1.155 0.463,2.08 1.364,2.73 0.862,0.631 1.976,0.946 3.321,0.946 1.554,0 2.982,-0.441 4.267,-1.303 0.208,-0.147 0.418,-0.315 0.605,-0.462 1.619,-1.303 2.419,-2.9 2.419,-4.812 10e-4,-0.818 -0.146,-1.575 -0.42,-2.268"
         id="path215" />
      <path
         inkscape:connector-curvature="0"
         style="fill:none;stroke:#063589;stroke-width:2.94180012;stroke-linecap:round;stroke-linejoin:round;stroke-miterlimit:10"
         d="m 778.313,111.341 c -0.568,0.042 -1.177,0.063 -1.829,0.063 -0.609,0 -1.176,-0.042 -1.723,-0.147 -0.63,-0.294 -1.178,-0.715 -1.639,-1.24 -0.693,-0.819 -1.05,-1.576 -1.05,-2.291 0,-1.555 0.733,-2.877 2.206,-3.992 1.492,-1.113 3.341,-1.681 5.526,-1.681 1.344,0 2.416,0.315 3.193,0.945 0.905,0.736 1.365,1.808 1.365,3.258 0,1.534 -0.503,2.71 -1.513,3.572 -0.232,0.189 -0.503,0.378 -0.799,0.525 -0.944,0.525 -2.183,0.84 -3.737,0.988 z m 0,0 c -0.609,0.273 -1.115,0.505 -1.533,0.735 -0.84,0.4 -1.368,0.693 -1.556,0.862 -1.47,1.24 -2.206,2.606 -2.206,4.056 0,1.155 0.463,2.081 1.364,2.731 0.862,0.63 1.976,0.945 3.321,0.945 1.554,0 2.982,-0.441 4.267,-1.302 0.208,-0.147 0.418,-0.315 0.605,-0.462 1.619,-1.303 2.419,-2.9 2.419,-4.812 0,-0.82 -0.147,-1.576 -0.421,-2.27 -0.336,-0.84 -0.84,-1.407 -1.513,-1.68"
         id="path217" />
      <path
         inkscape:connector-curvature="0"
         style="fill:#0f5caa"
         d="m 758.248,107.937 c -1.893,0 -3.448,0.483 -4.688,1.471 -1.323,1.071 -1.996,2.542 -1.996,4.413 0,1.008 0.189,2.101 0.587,3.298 0.19,0.567 0.442,1.282 0.777,2.165 -0.354,2.395 0.528,2.479 2.607,0.251 -0.273,-2.017 -0.399,-3.047 -0.399,-3.068 0,-0.357 0.167,-0.63 0.525,-0.798 0.42,-0.189 0.82,0.021 1.22,0.673 0.021,0.042 0.021,0.084 0.041,0.146 0.21,0.209 0.313,0.546 0.313,1.03 0.129,-0.147 0.253,-0.315 0.399,-0.483 0.339,0.273 0.693,0.505 1.053,0.715 1.029,0.609 1.976,0.925 2.836,0.925 1.009,0 2.019,-0.379 3.005,-1.156 1.113,-0.862 1.659,-1.891 1.659,-3.067 0,-1.619 -0.86,-3.132 -2.604,-4.519 -1.7,-1.325 -3.468,-1.996 -5.335,-1.996"
         id="path219" />
      <path
         inkscape:connector-curvature="0"
         style="fill:none;stroke:#063589;stroke-width:2.94180012;stroke-linecap:round;stroke-linejoin:round;stroke-miterlimit:10"
         d="m 755.662,115.081 c 0.44,0.524 0.883,1.009 1.366,1.45 0.188,0.167 0.397,0.336 0.607,0.503 0.339,0.274 0.693,0.505 1.053,0.715 1.029,0.609 1.976,0.925 2.836,0.925 1.009,0 2.019,-0.379 3.005,-1.156 1.113,-0.861 1.659,-1.891 1.659,-3.067 0,-1.618 -0.86,-3.132 -2.604,-4.519 -1.702,-1.323 -3.47,-1.996 -5.337,-1.996 -1.893,0 -3.448,0.483 -4.688,1.471 -1.323,1.071 -1.996,2.542 -1.996,4.413 0,1.008 0.189,2.101 0.587,3.298 0.19,0.567 0.442,1.282 0.777,2.165 0.065,0.168 0.148,0.356 0.21,0.545"
         id="path221" />
      <path
         inkscape:connector-curvature="0"
         style="fill:#3692d1"
         d="m 694.874,183.77 -4.959,-0.756 c 1.868,11.578 1.552,23.366 -0.945,35.365 -0.314,1.575 -1.156,4.958 -2.481,10.148 -0.65,2.479 -0.757,3.783 -0.314,3.908 9.896,3.027 18.364,4.203 25.444,3.51 6.033,-0.568 9.729,-2.249 11.139,-5.022 0.63,-1.24 0.609,-2.5 -0.086,-3.783 -0.734,-1.344 -2.08,-2.542 -4.054,-3.572 -4.705,-2.5 -11.558,-3.655 -20.571,-3.466 1.093,-3.426 1.45,-8.636 1.07,-15.655 -0.441,-8.069 -1.87,-14.961 -4.243,-20.677"
         id="path223" />
      <path
         inkscape:connector-curvature="0"
         style="fill:none;stroke:#063589;stroke-width:5.04279995;stroke-linecap:round;stroke-miterlimit:10"
         d="m 689.915,183.014 c 1.868,11.578 1.554,23.366 -0.945,35.365 -0.314,1.576 -1.156,4.958 -2.481,10.147 -0.65,2.48 -0.757,3.783 -0.314,3.909 9.896,3.026 18.364,4.203 25.444,3.51 6.033,-0.567 9.729,-2.249 11.139,-5.022 0.63,-1.24 0.609,-2.501 -0.086,-3.782 -0.734,-1.345 -2.08,-2.543 -4.054,-3.573 -4.705,-2.5 -11.558,-3.656 -20.571,-3.467 1.093,-3.425 1.45,-8.637 1.07,-15.654 -0.442,-8.07 -1.869,-14.961 -4.242,-20.677"
         id="path225" />
      <path
         inkscape:connector-curvature="0"
         style="fill:#0f5caa"
         d="m 696.891,100.75 c -0.063,-0.063 -0.168,-0.042 -0.294,0.042 -0.673,0.357 -0.567,0.357 0.294,-0.042"
         id="path227" />
      <path
         inkscape:connector-curvature="0"
         style="fill:#0f5caa"
         d="m 698.992,99.764 c -0.946,0.441 -1.642,0.776 -2.102,0.987 0.336,0.231 0,1.892 -1.01,4.938 -0.776,2.29 -2.438,7.081 -5.021,14.331 -5.715,16.474 -8.847,29.081 -9.372,37.843 -0.609,9.939 1.976,17.818 7.796,23.682 2.522,2.521 5.422,4.349 8.7,5.483 3.192,1.093 6.407,1.408 9.646,0.946 3.296,-0.504 6.261,-1.786 8.887,-3.846 2.795,-2.249 4.958,-5.232 6.451,-8.909 3.551,-8.699 3.172,-20.025 -1.093,-33.998 -3.887,-12.754 -6.871,-22.063 -8.908,-27.925 -2.711,-7.796 -4.645,-12.146 -5.779,-13.049 -1.871,-1.493 -4.602,-1.64 -8.195,-0.483"
         id="path229" />
      <path
         inkscape:connector-curvature="0"
         style="fill:#eff1e8"
         d="m 701.492,170.449 c 0,-0.525 0,-1.092 -0.022,-1.659 -0.062,-1.787 -0.23,-3.846 -0.504,-6.157 -0.253,-2.165 -0.42,-4.161 -0.483,-5.969 l -22.671,-2.226 c -0.127,1.303 -0.253,2.605 -0.357,3.929 -0.148,1.786 -0.295,3.572 -0.399,5.359 -0.041,0.566 -0.084,1.113 -0.104,1.681 -0.127,2.206 -0.673,4.286 -1.621,6.24 1.704,0.23 3.427,0.463 5.147,0.693 2.565,0.356 5.087,0.924 7.544,1.681 2.481,0.715 4.877,1.555 7.207,2.521 1.829,0.735 3.657,1.513 5.484,2.333 0.526,-2.5 0.779,-5.316 0.779,-8.426"
         id="path231" />
      <path
         inkscape:connector-curvature="0"
         style="fill:none;stroke:#e8e8df;stroke-width:2.94180012;stroke-linecap:round;stroke-linejoin:round;stroke-miterlimit:10"
         d="m 677.812,154.437 c -0.127,1.303 -0.253,2.605 -0.357,3.929 -0.148,1.786 -0.295,3.572 -0.399,5.359 -0.041,0.566 -0.084,1.113 -0.104,1.68 -0.127,2.207 -0.673,4.287 -1.619,6.241 1.702,0.231 3.425,0.462 5.146,0.693 2.565,0.356 5.087,0.924 7.544,1.681 2.481,0.716 4.877,1.555 7.207,2.521 1.829,0.735 3.657,1.513 5.484,2.333 0.526,-2.5 0.779,-5.316 0.779,-8.426 0,-0.525 0,-1.092 -0.022,-1.66 -0.062,-1.786 -0.23,-3.846 -0.502,-6.157 -0.255,-2.165 -0.422,-4.161 -0.485,-5.968 -0.022,-0.189 -0.022,-0.356 -0.022,-0.524"
         id="path233" />
      <path
         inkscape:connector-curvature="0"
         style="fill:#0f5caa"
         d="m 737.002,64.925 c -1.911,-4.875 -4.622,-9.183 -8.131,-12.902 -3.509,-3.761 -7.523,-6.661 -12.062,-8.72 -4.706,-2.123 -9.646,-3.194 -14.794,-3.194 -5.146,0 -10.063,1.071 -14.771,3.194 -4.538,2.06 -8.57,4.959 -12.079,8.72 -3.509,3.72 -6.221,8.027 -8.133,12.902 -1.996,5.022 -3.005,10.275 -3.005,15.801 0,5.484 1.009,10.758 3.005,15.78 1.912,4.854 4.624,9.162 8.133,12.923 3.509,3.72 7.541,6.619 12.079,8.699 4.708,2.123 9.626,3.173 14.771,3.173 5.148,0 10.088,-1.051 14.794,-3.173 4.538,-2.08 8.553,-4.979 12.062,-8.699 3.509,-3.761 6.22,-8.068 8.131,-12.923 1.997,-5.022 2.986,-10.275 2.986,-15.78 0,-5.526 -0.989,-10.779 -2.986,-15.801"
         id="path235" />
      <path
         inkscape:connector-curvature="0"
         style="fill:#d82629"
         d="m 735.782,71.733 c -1.533,-1.115 -3.863,-1.849 -6.995,-2.206 -1.323,-0.169 -4.624,-0.357 -9.855,-0.547 -4.708,-0.19 -8.594,-0.525 -11.683,-1.029 -13.447,-2.165 -22.378,-1.051 -26.812,3.341 -3.132,3.088 -4.182,8.299 -3.152,15.633 0.442,3.152 1.43,6.346 2.962,9.561 1.746,3.614 3.932,6.787 6.6,9.497 6.661,6.766 14.981,9.54 24.983,8.322 9.267,-1.135 16.453,-6.074 21.538,-14.814 2.037,-3.51 3.531,-7.312 4.476,-11.411 0.862,-3.718 1.176,-7.143 0.943,-10.253 -0.21,-2.733 -1.217,-4.771 -3.005,-6.094"
         id="path237" />
      <path
         inkscape:connector-curvature="0"
         style="fill:#1a1515"
         d="m 730.51,95.539 c 1.974,-3.046 3.468,-6.346 4.476,-9.897 0.905,-3.215 1.26,-6.114 1.072,-8.657 -0.316,-4.14 -3.529,-6.45 -9.687,-6.955 -2.291,-0.189 -5.4,-0.168 -9.329,0.063 -4.604,0.356 -8.09,0.609 -10.466,0.757 -7.207,0.419 -12.397,1.029 -15.59,1.849 -6.661,1.681 -9.836,4.581 -9.54,8.679 0.481,6.387 2.793,12.124 6.975,17.208 5.486,6.64 12.841,9.688 22.063,9.14 8.341,-0.482 15.025,-4.538 20.026,-12.187"
         id="path239" />
      <path
         inkscape:connector-curvature="0"
         style="fill:#0f5caa"
         d="m 724.289,52.191 c -0.126,-0.063 -0.25,-0.127 -0.377,-0.189 l -40.513,5.106 c -2.353,3.109 -4.412,6.345 -6.198,9.729 -3.551,6.745 -3.886,10.758 -0.988,12.062 3.258,4.244 7.523,7.48 12.777,9.707 5.021,2.144 10.568,3.215 16.62,3.194 5.987,-0.041 11.935,-1.155 17.796,-3.32 6.074,-2.248 11.518,-5.442 16.37,-9.581 l -9.33,-23.724 c -2.647,-1.24 -4.705,-2.228 -6.157,-2.984"
         id="path241" />
      <path
         inkscape:connector-curvature="0"
         style="fill:#ffffff"
         d="m 697.29,59.587 c -3.195,0.904 -5.717,2.711 -7.544,5.421 -1.828,2.689 -2.459,5.506 -1.849,8.426 0.589,2.921 2.226,5.107 4.895,6.535 2.669,1.409 5.613,1.682 8.804,0.778 3.175,-0.903 5.674,-2.689 7.503,-5.401 1.826,-2.71 2.459,-5.504 1.869,-8.425 -0.587,-2.921 -2.226,-5.106 -4.895,-6.535 -2.669,-1.408 -5.591,-1.681 -8.783,-0.799"
         id="path243" />
      <path
         inkscape:connector-curvature="0"
         style="fill:#ffffff"
         d="m 735.405,64.63 c -1.49,-2.542 -3.572,-4.224 -6.241,-5.063 -2.626,-0.862 -5.064,-0.61 -7.29,0.755 -2.206,1.324 -3.572,3.341 -4.076,6.073 -0.485,2.731 0.043,5.358 1.576,7.901 1.49,2.522 3.572,4.203 6.241,5.022 2.625,0.84 5.062,0.588 7.29,-0.757 2.206,-1.324 3.572,-3.341 4.078,-6.073 0.481,-2.73 -0.043,-5.357 -1.578,-7.858"
         id="path245" />
      <path
         inkscape:connector-curvature="0"
         style="fill:#1a1515"
         d="m 698.844,65.324 c -1.323,1.071 -2.101,2.5 -2.29,4.244 -0.189,1.745 0.212,3.32 1.239,4.685 1.051,1.388 2.416,2.187 4.078,2.396 1.659,0.23 3.152,-0.21 4.455,-1.303 1.322,-1.071 2.1,-2.501 2.289,-4.267 0.189,-1.743 -0.21,-3.298 -1.239,-4.685 -1.032,-1.387 -2.396,-2.185 -4.056,-2.395 -1.661,-0.208 -3.151,0.232 -4.476,1.325"
         id="path247" />
      <path
         inkscape:connector-curvature="0"
         style="fill:#1a1515"
         d="m 730.72,70.431 c 0.189,-1.871 -0.189,-3.531 -1.113,-4.981 -0.945,-1.471 -2.163,-2.311 -3.678,-2.521 -1.49,-0.232 -2.836,0.209 -4.032,1.364 -1.179,1.156 -1.872,2.669 -2.082,4.54 -0.169,1.828 0.232,3.487 1.177,4.979 0.925,1.47 2.143,2.312 3.635,2.542 1.492,0.232 2.836,-0.23 4.035,-1.386 1.197,-1.156 1.889,-2.668 2.058,-4.537"
         id="path249" />
      <path
         inkscape:connector-curvature="0"
         style="fill:#db5284"
         d="m 728.577,84.15 c 0,-3.172 -1.05,-5.862 -3.152,-8.111 -2.102,-2.226 -4.644,-3.341 -7.627,-3.341 -2.962,0 -5.505,1.115 -7.606,3.341 -2.103,2.249 -3.152,4.938 -3.152,8.111 0,3.152 1.05,5.842 3.152,8.07 2.102,2.227 4.645,3.34 7.606,3.34 2.983,0 5.525,-1.113 7.627,-3.34 2.102,-2.228 3.152,-4.917 3.152,-8.07"
         id="path251" />
      <path
         inkscape:connector-curvature="0"
         style="fill:#0f5caa"
         d="m 699.116,204.447 c -0.44,-8.07 -1.869,-14.961 -4.242,-20.677 l -5.233,-1.828 c 1.871,11.557 1.598,23.513 -0.798,35.889 -0.272,1.387 -1.093,4.896 -2.418,10.507 -0.607,2.606 -0.693,3.971 -0.251,4.098 9.896,3.025 18.364,4.202 25.444,3.509 6.033,-0.567 9.729,-2.249 11.139,-5.022 0.63,-1.24 0.609,-2.501 -0.086,-3.782 -0.734,-1.345 -2.08,-2.543 -4.054,-3.573 -4.705,-2.501 -11.558,-3.656 -20.571,-3.467 1.093,-3.425 1.45,-8.635 1.07,-15.654"
         id="path253" />
      <path
         inkscape:connector-curvature="0"
         style="fill:#0f5caa"
         d="m 684.556,121.112 c -4.225,1.008 -6.534,1.639 -6.935,1.891 -1.239,0.777 -2.921,1.955 -5.041,3.551 -1.703,1.282 -3.111,2.353 -4.184,3.258 -1.491,1.238 -2.837,3.404 -4.074,6.513 -1.136,2.857 -1.702,5.19 -1.702,6.997 0,4.644 1.745,8.363 5.252,11.116 1.616,1.282 3.595,2.353 5.947,3.215 0.442,-2.647 1.029,-4.833 1.723,-6.557 0.273,-0.609 0.546,-1.197 0.86,-1.764 -1.554,-0.589 -2.815,-1.346 -3.76,-2.25 -1.451,-1.324 -2.165,-3.13 -2.165,-5.421 0,-2.625 0.969,-4.812 2.922,-6.598 2.585,-2.396 6.765,-3.887 12.564,-4.454 l 0.127,0.083 c 0.104,0.043 0.145,0.19 0.145,0.462 1.325,-0.146 2.669,-0.651 4.015,-1.534 2.208,-1.449 3.299,-3.319 3.299,-5.631 0,-2.102 -1.113,-3.677 -3.34,-4.749 -0.442,0.443 -2.332,1.073 -5.653,1.872"
         id="path255" />
      <path
         inkscape:connector-curvature="0"
         style="fill:#063589"
         d="m 690.943,150.886 c -0.063,0.042 -0.127,0.085 -0.23,0.105 0.021,0.022 0.061,0.064 0.104,0.085 0.485,-0.021 0.946,-0.021 1.389,-0.021 -0.443,-0.064 -0.863,-0.127 -1.263,-0.169"
         id="path257" />
      <path
         inkscape:connector-curvature="0"
         style="fill:#0f5caa"
         d="m 701.176,150.193 c -1.027,1.219 -1.637,2.165 -1.85,2.815 -0.566,1.786 -0.902,3.046 -1.007,3.783 -0.063,0.357 -0.084,1.366 -0.084,3.067 1.514,-0.294 2.437,-0.441 2.751,-0.441 0.442,0 1.198,0.084 2.23,0.273 -0.399,0.231 -0.802,0.463 -1.201,0.652 0.802,1.219 1.957,2.626 3.47,4.245 1.134,1.197 1.701,2.5 1.701,3.887 0,0.904 -0.232,1.765 -0.673,2.564 -0.44,0.777 -0.673,1.406 -0.673,1.868 0,0.695 0.295,1.346 0.905,1.955 0.756,0.735 1.806,1.113 3.129,1.113 l 0.084,-0.146 c -0.043,-0.021 -0.063,-0.042 -0.084,-0.062 l -0.126,-0.19 c 2.019,-1.092 3.445,-2.123 4.267,-3.068 0.82,-0.945 1.24,-2.039 1.24,-3.257 0,-0.588 -0.189,-1.786 -0.59,-3.572 -0.399,-1.786 -0.609,-2.858 -0.609,-3.214 l 0.483,-0.169 c 0.609,0.42 1.179,1.597 1.682,3.531 0.44,1.639 0.65,2.921 0.65,3.866 0,0.693 -0.44,1.807 -1.343,3.319 -0.063,0.127 -0.147,0.274 -0.253,0.421 1.365,-0.358 2.605,-1.219 3.719,-2.585 1.093,-1.366 1.639,-2.647 1.639,-3.825 0,-1.45 -0.23,-2.836 -0.671,-4.16 -0.609,-1.828 -1.578,-3.13 -2.881,-3.929 1.85,0.167 3.238,1.239 4.182,3.236 0.273,0.631 0.506,1.303 0.695,1.996 l 0.041,-0.021 c 0,-4.013 -1.113,-7.103 -3.321,-9.287 -3.339,-3.3 -9.159,-4.856 -17.502,-4.665"
         id="path259" />
      <path
         inkscape:connector-curvature="0"
         style="fill:#0f5caa"
         d="m 681.656,131.891 c 1.197,-0.42 2.396,-0.715 3.635,-0.882 v -0.042 l 1.913,-11.536 c -6.031,0.904 -11.473,3.319 -16.286,7.25 -5.902,4.811 -8.867,10.38 -8.867,16.683 0,7.355 3.636,12.356 10.927,15.025 4.602,1.681 11.599,2.521 21.012,2.521 2.208,0 4.54,-0.231 6.977,-0.672 0.232,1.892 1.262,3.425 3.111,4.602 0.523,0.336 1.26,0.778 2.163,1.303 0.654,0.462 0.988,0.924 0.988,1.386 0,0.169 -0.315,0.967 -0.945,2.396 -0.633,1.449 -0.946,2.354 -0.946,2.752 0,0.904 0.21,1.681 0.632,2.312 0.564,0.84 1.428,1.261 2.626,1.261 1.786,0 3.278,-0.693 4.517,-2.101 0.232,-0.273 0.462,-0.546 0.652,-0.861 0.821,-1.281 1.239,-2.815 1.239,-4.602 0,-0.946 -0.167,-1.933 -0.483,-2.962 -0.397,-1.241 -0.946,-2.145 -1.619,-2.711 0.673,0.567 1.222,1.471 1.619,2.711 0.316,1.029 0.483,2.017 0.483,2.962 0,1.786 -0.418,3.32 -1.239,4.602 0.439,0.147 0.923,0.23 1.449,0.23 1.745,0 3.152,-0.629 4.204,-1.891 0.817,-0.966 1.28,-2.164 1.427,-3.571 0.021,-0.315 0.043,-0.631 0.043,-0.945 0,-1.115 -0.296,-2.458 -0.883,-4.035 -0.568,-1.492 -1.179,-2.647 -1.849,-3.425 0.67,0.778 1.28,1.933 1.849,3.425 0.587,1.577 0.883,2.92 0.883,4.035 0,0.314 -0.022,0.63 -0.043,0.945 2.039,-0.798 3.046,-2.626 3.025,-5.505 -0.02,-2.879 -1.07,-5.463 -3.11,-7.733 -2.056,-2.291 -4.243,-3.844 -6.535,-4.686 -2.583,-0.903 -5.252,-1.302 -8.024,-1.177 -2.271,0.083 -4.52,0.21 -6.767,0.399 -2.459,0.231 -4.918,0.399 -7.396,0.504 -2.669,0.252 -5.358,0.21 -8.067,-0.126 -2.565,-0.252 -5.002,-0.988 -7.334,-2.207 -0.399,-0.189 -0.757,-0.42 -1.091,-0.694 -2.334,-1.786 -3.154,-4.097 -2.461,-6.954 0.359,-1.492 1.072,-2.753 2.103,-3.824 1.826,-1.871 3.966,-3.259 6.468,-4.162"
         id="path261" />
      <path
         inkscape:connector-curvature="0"
         style="fill:none;stroke:#063589;stroke-width:2.94180012;stroke-linecap:round;stroke-linejoin:round;stroke-miterlimit:10"
         d="m 720.844,168.054 c 2.039,-0.799 3.046,-2.626 3.025,-5.505 -0.02,-2.879 -1.07,-5.464 -3.11,-7.733 -2.058,-2.291 -4.243,-3.844 -6.535,-4.686 -2.583,-0.903 -5.252,-1.303 -8.024,-1.176 -2.271,0.083 -4.52,0.21 -6.767,0.399 -2.459,0.231 -4.918,0.399 -7.396,0.504 -2.669,0.252 -5.358,0.211 -8.067,-0.125 -2.565,-0.252 -5.002,-0.987 -7.334,-2.207 -0.399,-0.189 -0.757,-0.42 -1.093,-0.694 -2.332,-1.786 -3.152,-4.097 -2.459,-6.955 0.359,-1.492 1.072,-2.752 2.103,-3.824 1.828,-1.87 3.969,-3.257 6.471,-4.16 1.197,-0.42 2.396,-0.715 3.635,-0.882 v -0.042 m 1.909,-11.537 c -6.029,0.904 -11.471,3.319 -16.284,7.249 -5.902,4.812 -8.867,10.381 -8.867,16.683 0,7.355 3.636,12.356 10.927,15.025 4.602,1.681 11.599,2.522 21.012,2.522 2.21,0 4.54,-0.232 6.977,-0.673 0.232,1.892 1.262,3.425 3.111,4.602 0.523,0.336 1.26,0.778 2.163,1.303 0.652,0.461 0.988,0.924 0.988,1.386 0,0.169 -0.315,0.967 -0.945,2.396 -0.633,1.449 -0.946,2.354 -0.946,2.752 0,0.904 0.21,1.681 0.632,2.311 0.564,0.841 1.428,1.261 2.626,1.261 1.786,0 3.278,-0.693 4.517,-2.101 0.232,-0.274 0.462,-0.546 0.652,-0.861 m 7.079,-5.232 c 0.021,-0.315 0.043,-0.631 0.043,-0.946 0,-1.114 -0.296,-2.458 -0.883,-4.035 -0.568,-1.492 -1.179,-2.647 -1.849,-3.425 m -4.391,13.638 c 0.821,-1.281 1.239,-2.815 1.239,-4.602 0,-0.945 -0.167,-1.934 -0.483,-2.962 -0.397,-1.24 -0.946,-2.144 -1.619,-2.711 m 0.863,10.275 c 0.439,0.147 0.923,0.23 1.449,0.23 1.745,0 3.152,-0.63 4.204,-1.891 0.817,-0.966 1.28,-2.163 1.427,-3.571"
         id="path263" />
      <path
         inkscape:connector-curvature="0"
         style="fill:#0f5caa"
         d="m 679.008,110.983 c -0.86,-0.735 -1.743,-1.471 -2.626,-2.248 h -0.146 c 2.459,3.11 5.505,6.01 9.14,8.678 1.115,0.819 2.27,1.597 3.425,2.312 -0.778,0.23 -1.639,0.525 -2.583,0.862 -2.019,0.713 -3.826,1.47 -5.4,2.268 -1.619,0.82 -2.438,1.366 -2.438,1.682 0,0.209 0.043,0.315 0.104,0.336 h 0.379 c 1.408,-0.547 4.561,-1.555 9.498,-3.005 1.03,-0.315 1.913,-0.589 2.667,-0.819 l 0.339,0.21 c -0.106,-0.443 -0.316,-1.114 -0.609,-2.061 -0.084,0.021 -0.17,0.042 -0.273,0.064 -1.22,-0.778 -2.292,-1.472 -3.238,-2.101 -1.556,-1.155 -4.31,-3.215 -8.239,-6.178"
         id="path265" />
      <path
         inkscape:connector-curvature="0"
         style="fill:#fefef9"
         d="m 681.067,144.015 c -2.268,0.652 -4.033,2.019 -5.272,4.098 -1.346,2.248 -2.143,4.644 -2.375,7.228 -0.189,1.955 -0.357,3.931 -0.526,5.884 -0.146,1.786 -0.294,3.572 -0.399,5.359 -0.041,0.567 -0.084,1.113 -0.104,1.68 -0.126,2.207 -0.673,4.287 -1.618,6.241 1.704,0.232 3.425,0.462 5.149,0.694 2.562,0.356 5.083,0.924 7.542,1.68 2.481,0.715 4.875,1.555 7.209,2.522 1.827,0.735 3.655,1.513 5.484,2.332 0.526,-2.5 0.774,-5.315 0.774,-8.426 0,-0.524 0,-1.092 -0.019,-1.659 -0.064,-1.786 -0.229,-3.845 -0.505,-6.156 -0.357,-3.068 -0.526,-5.779 -0.526,-8.133 0,-2.352 0.463,-4.476 1.389,-6.386 0.924,-1.914 1.91,-3.258 2.962,-4.036 -1.702,-1.534 -3.614,-2.521 -5.757,-2.941 -2.039,-0.441 -4.121,-0.652 -6.241,-0.652 -2.417,-0.191 -4.792,0.019 -7.167,0.671"
         id="path267" />
      <path
         inkscape:connector-curvature="0"
         style="fill:none;stroke:#ea5f92;stroke-width:2.94180012;stroke-linecap:round;stroke-linejoin:round;stroke-miterlimit:10"
         d="m 695.86,171.646 c -2.564,-0.925 -5.987,-1.871 -10.275,-2.837 -5.042,-1.134 -9.036,-1.87 -11.976,-2.227"
         id="path269" />
      <path
         inkscape:connector-curvature="0"
         style="fill:none;stroke:#e8e8df;stroke-width:2.94180012;stroke-linecap:round;stroke-linejoin:round;stroke-miterlimit:10"
         d="m 675.795,148.113 c -1.346,2.247 -2.143,4.643 -2.375,7.228 -0.188,1.955 -0.357,3.93 -0.524,5.884 -0.15,1.786 -0.296,3.572 -0.401,5.359 -0.041,0.567 -0.084,1.114 -0.104,1.681 -0.126,2.206 -0.673,4.286 -1.618,6.24 1.704,0.231 3.425,0.462 5.149,0.694 2.562,0.356 5.083,0.924 7.542,1.68 2.481,0.715 4.875,1.555 7.209,2.522 1.827,0.734 3.655,1.512 5.484,2.332 0.526,-2.5 0.774,-5.315 0.774,-8.426 0,-0.524 0,-1.093 -0.019,-1.66 -0.064,-1.786 -0.229,-3.845 -0.505,-6.157 -0.357,-3.067 -0.526,-5.778 -0.526,-8.131 0,-2.353 0.463,-4.476 1.389,-6.388 0.924,-1.912 1.91,-3.257 2.962,-4.034 -1.702,-1.534 -3.614,-2.522 -5.757,-2.942 -2.037,-0.442 -4.119,-0.652 -6.241,-0.652 -2.416,-0.189 -4.791,0.021 -7.166,0.672 -2.268,0.652 -4.034,2.017 -5.273,4.098 z"
         id="path271" />
    </g>
  </g>
</svg>
