<?xml version="1.0" encoding="UTF-8" standalone="no"?>
<!-- Created with Inkscape (http://www.inkscape.org/) -->

<svg
   xmlns:dc="http://purl.org/dc/elements/1.1/"
   xmlns:cc="http://creativecommons.org/ns#"
   xmlns:rdf="http://www.w3.org/1999/02/22-rdf-syntax-ns#"
   xmlns:svg="http://www.w3.org/2000/svg"
   xmlns="http://www.w3.org/2000/svg"
   version="1.1"
   width="510"
   height="450"
   id="svg2"
   xml:space="preserve"><metadata
     id="metadata8"><rdf:RDF><cc:Work
         rdf:about=""><dc:format>image/svg+xml</dc:format><dc:type
           rdf:resource="http://purl.org/dc/dcmitype/StillImage" /><dc:title></dc:title></cc:Work></rdf:RDF></metadata><defs
     id="defs6"><clipPath
       id="clipPath16"><path
         d="M 0,500 500,500 500,0 0,0 0,500 z"
         id="path18" /></clipPath></defs><g
     transform="matrix(1.25,0,0,-1.25,0,450)"
     id="g10"><g
       transform="translate(-46.38801,-69.985979)"
       id="g12"><g
         clip-path="url(#clipPath16)"
         id="g14"><g
           transform="translate(265.9141,359.6992)"
           id="g20"><path
             d="m 0,0 c 23.038,-11.069 35.776,-52.36 27.102,-95.31 -7.69,-42.949 -36.791,-87.558 -74.653,-105.262 -10.565,-5.059 -32.845,5.695 -41.969,5.695 -10.061,0 -31.296,-10.126 -43.084,-4.041 -37.918,19.068 -66.65,63.609 -73.975,105.978 -8.264,42.368 4.878,82.564 29.007,92.94 38.89,16.253 37.609,-4.257 87.996,-4.257 C -39.073,-4.257 -38.73,18.124 0,0"
             id="path22"
             style="fill:#c1272d;fill-opacity:1;fill-rule:nonzero;stroke:none" /></g><g
           transform="translate(265.9141,359.6992)"
           id="g24"><path
             d="m 0,0 c 23.038,-11.069 35.776,-52.36 27.102,-95.31 -7.69,-42.949 -36.791,-87.558 -74.653,-105.262 -10.565,-5.059 -32.845,5.695 -41.969,5.695 -10.061,0 -31.296,-10.126 -43.084,-4.041 -37.918,19.068 -66.65,63.609 -73.975,105.978 -8.264,42.368 4.878,82.564 29.007,92.94 38.89,16.253 37.609,-4.257 87.996,-4.257 C -39.073,-4.257 -38.73,18.124 0,0 z"
             id="path26"
             style="fill:none;stroke:#000000;stroke-width:4;stroke-linecap:butt;stroke-linejoin:miter;stroke-miterlimit:10;stroke-opacity:1;stroke-dasharray:none" /></g><g
           transform="translate(176.3379,355.4424)"
           id="g28"><path
             d="M 0,0 C 0,35.576 25.109,64.365 56.137,64.365"
             id="path30"
             style="fill:none;stroke:#000000;stroke-width:4;stroke-linecap:butt;stroke-linejoin:miter;stroke-miterlimit:10;stroke-opacity:1;stroke-dasharray:none" /></g><g
           transform="translate(414.0781,282.0894)"
           id="g32"><path
             d="m 0,0 c 23.037,-11.068 35.775,-52.359 27.1,-95.308 -7.689,-42.95 -36.791,-87.559 -74.653,-105.264 -10.562,-5.058 -32.843,5.696 -41.967,5.696 -10.062,0 -31.296,-10.125 -43.085,-4.041 -37.918,19.068 -66.649,63.609 -73.974,105.978 -8.264,42.368 4.878,82.564 29.007,92.939 38.889,16.253 37.608,-4.256 87.995,-4.256 50.504,0 50.846,22.381 89.577,4.256"
             id="path34"
             style="fill:#c1272d;fill-opacity:1;fill-rule:nonzero;stroke:none" /></g><g
           transform="translate(414.0781,282.0894)"
           id="g36"><path
             d="m 0,0 c 23.037,-11.068 35.775,-52.359 27.1,-95.308 -7.689,-42.95 -36.791,-87.559 -74.653,-105.264 -10.562,-5.058 -32.843,5.696 -41.967,5.696 -10.062,0 -31.296,-10.125 -43.085,-4.041 -37.918,19.068 -66.649,63.609 -73.974,105.978 -8.264,42.368 4.878,82.564 29.007,92.939 38.889,16.253 37.608,-4.256 87.995,-4.256 50.504,0 50.846,22.381 89.577,4.256 z"
             id="path38"
             style="fill:none;stroke:#000000;stroke-width:4;stroke-linecap:butt;stroke-linejoin:miter;stroke-miterlimit:10;stroke-opacity:1;stroke-dasharray:none" /></g><g
           transform="translate(324.501,277.833)"
           id="g40"><path
             d="M 0,0 C 0,35.576 25.108,64.365 56.137,64.365"
             id="path42"
             style="fill:none;stroke:#000000;stroke-width:4;stroke-linecap:butt;stroke-linejoin:miter;stroke-miterlimit:10;stroke-opacity:1;stroke-dasharray:none" /></g></g></g></g></svg>