<?xml version="1.0" encoding="UTF-8" standalone="no"?>
<!-- Created with Inkscape (http://www.inkscape.org/) -->

<svg
   xmlns:dc="http://purl.org/dc/elements/1.1/"
   xmlns:cc="http://creativecommons.org/ns#"
   xmlns:rdf="http://www.w3.org/1999/02/22-rdf-syntax-ns#"
   xmlns:svg="http://www.w3.org/2000/svg"
   xmlns="http://www.w3.org/2000/svg"
   version="1.1"
   width="625"
   height="625"
   id="svg2"
   xml:space="preserve"><metadata
     id="metadata8"><rdf:RDF><cc:Work
         rdf:about=""><dc:format>image/svg+xml</dc:format><dc:type
           rdf:resource="http://purl.org/dc/dcmitype/StillImage" /><dc:title></dc:title></cc:Work></rdf:RDF></metadata><defs
     id="defs6"><clipPath
       id="clipPath16"><path
         d="M 0,500 500,500 500,0 0,0 0,500 z"
         id="path18" /></clipPath><clipPath
       id="clipPath78"><path
         d="M 0,500 500,500 500,0 0,0 0,500 z"
         id="path80" /></clipPath></defs><g
     transform="matrix(1.25,0,0,-1.25,0,625)"
     id="g10"><g
       id="g12"><g
         clip-path="url(#clipPath16)"
         id="g14"><g
           transform="translate(328.4629,377.6191)"
           id="g20"><path
             d="M 0,0 C 3.225,0 3.225,5 0,5 -3.225,5 -3.225,0 0,0"
             id="path22"
             style="fill:#000000;fill-opacity:1;fill-rule:nonzero;stroke:none" /></g><g
           transform="translate(306.6553,340)"
           id="g24"><path
             d="m 0,0 -171.155,0 30.37,94 L 30.572,94 0,0 z"
             id="path26"
             style="fill:#29abe2;fill-opacity:1;fill-rule:nonzero;stroke:none" /></g><g
           transform="translate(306.6553,343)"
           id="g28"><path
             d="m 0,0 -149.632,0 -21.523,0 c 0.803,-1.055 1.607,-2.11 2.41,-3.165 10.124,31.334 20.247,62.667 30.37,94 -0.803,-0.611 -1.606,-1.223 -2.41,-1.835 l 149.27,0 22.087,0 c -0.803,1.055 -1.607,2.11 -2.411,3.165 -10.19,-31.334 -20.381,-62.667 -30.572,-94 -1,-3.076 3.829,-4.382 4.822,-1.33 10.191,31.334 20.381,62.667 30.572,94 C 33.49,92.394 32.142,94 30.572,94 l -149.271,0 -22.086,0 c -1.15,0 -2.067,-0.77 -2.411,-1.835 -10.123,-31.334 -20.246,-62.667 -30.37,-94 -0.504,-1.56 0.839,-3.165 2.411,-3.165 L -21.523,-5 0,-5 c 3.225,0 3.225,5 0,5"
             id="path30"
             style="fill:#000000;fill-opacity:1;fill-rule:nonzero;stroke:none" /></g><g
           transform="translate(308.4053,342.5376)"
           id="g32"><path
             d="M 0,0 32.063,92.462 64.03,35.307 0,0 z"
             id="path34"
             style="fill:#ffffff;fill-opacity:1;fill-rule:nonzero;stroke:none" /></g><g
           transform="translate(310.8164,341.873)"
           id="g36"><path
             d="M 0,0 32.063,92.462 C 30.539,92.263 29.016,92.064 27.492,91.865 38.148,72.813 48.805,53.761 59.461,34.709 l 0.896,3.421 C 39.014,26.361 17.671,14.592 -3.673,2.823 c -2.823,-1.557 -0.302,-5.875 2.524,-4.317 21.343,11.769 42.686,23.537 64.03,35.307 1.209,0.666 1.549,2.254 0.896,3.42 -10.655,19.052 -21.311,38.104 -31.966,57.156 -1.118,1.996 -3.89,1.364 -4.571,-0.597 L -4.822,1.329 C -5.881,-1.726 -1.05,-3.027 0,0"
             id="path38"
             style="fill:#000000;fill-opacity:1;fill-rule:nonzero;stroke:none" /></g><path
           d="m 306,41 -172,0 0,299 172,0 0,-299 z"
           id="path40"
           style="fill:#ffffff;fill-opacity:1;fill-rule:nonzero;stroke:none" /><g
           transform="translate(306.5,44)"
           id="g42"><path
             d="M 0,0 -149.831,0 -172,0 c 0.833,-0.833 1.667,-1.667 2.5,-2.5 l 0,125.124 0,163.97 0,9.906 -2.5,-2.5 149.831,0 L 0,294 c -0.833,0.833 -1.667,1.667 -2.5,2.5 l 0,-125.124 0,-163.971 0,-9.905 c 0,-3.225 5,-3.225 5,0 l 0,125.124 0,163.97 0,9.906 c 0,1.363 -1.137,2.5 -2.5,2.5 l -149.831,0 -22.169,0 c -1.363,0 -2.5,-1.137 -2.5,-2.5 l 0,-125.124 0,-163.971 0,-9.905 c 0,-1.363 1.137,-2.5 2.5,-2.5 L -22.169,-5 0,-5 c 3.225,0 3.225,5 0,5"
             id="path44"
             style="fill:#000000;fill-opacity:1;fill-rule:nonzero;stroke:none" /></g><g
           transform="translate(372,75.5039)"
           id="g46"><path
             d="m 0,0 -66,-34.004 0,299 L 0,302.34 0,0 z"
             id="path48"
             style="fill:#ffffff;fill-opacity:1;fill-rule:nonzero;stroke:none" /></g><g
           transform="translate(371.2383,77.6621)"
           id="g50"><path
             d="m 0,0 c -22,-11.334 -44,-22.669 -66,-34.004 1.254,-0.719 2.508,-1.438 3.762,-2.158 l 0,125.124 0,163.97 0,9.906 c -0.413,-0.72 -0.825,-1.439 -1.239,-2.159 22,12.448 44,24.896 66,37.344 -1.253,0.72 -2.507,1.439 -3.761,2.159 l 0,-124.327 0,-166.199 0,-11.814 c 0,-3.225 5,-3.225 5,0 l 0,124.326 0,166.2 0,11.814 c 0,1.915 -2.118,3.089 -3.762,2.159 -22,-12.448 -44,-24.896 -66,-37.344 -0.764,-0.433 -1.238,-1.288 -1.238,-2.159 l 0,-125.124 0,-163.971 0,-9.905 c 0,-1.972 2.102,-3.014 3.761,-2.158 22,11.334 44,22.669 66,34.004 C 5.391,-2.84 2.861,1.475 0,0"
             id="path52"
             style="fill:#000000;fill-opacity:1;fill-rule:nonzero;stroke:none" /></g><path
           d="m 303.5,272.5 -166,0 0,31 166,0 0,-31 z"
           id="path54"
           style="fill:#29abe2;fill-opacity:1;fill-rule:nonzero;stroke:#29abe2;stroke-width:1;stroke-linecap:butt;stroke-linejoin:miter;stroke-miterlimit:10;stroke-opacity:1;stroke-dasharray:none" /><path
           d="m 303.5,44.5 -166,0 0,79 166,0 0,-79 z"
           id="path56"
           style="fill:#29abe2;fill-opacity:1;fill-rule:nonzero;stroke:#29abe2;stroke-width:1;stroke-linecap:butt;stroke-linejoin:miter;stroke-miterlimit:10;stroke-opacity:1;stroke-dasharray:none" /><g
           transform="translate(369,301.7329)"
           id="g58"><path
             d="m 0,0 -59,-29.233 0,31 L 0,29.233 0,0 z"
             id="path60"
             style="fill:#29abe2;fill-opacity:1;fill-rule:nonzero;stroke:none" /></g><g
           transform="translate(369,301.7329)"
           id="g62"><path
             d="m 0,0 -59,-29.233 0,31 L 0,29.233 0,0 z"
             id="path64"
             style="fill:none;stroke:#29abe2;stroke-width:2;stroke-linecap:butt;stroke-linejoin:miter;stroke-miterlimit:10;stroke-opacity:1;stroke-dasharray:none" /></g><g
           transform="translate(370,76.8652)"
           id="g66"><path
             d="M 0,0 -61,-31.105 -61.595,47.635 0.25,76.101 0,0 z"
             id="path68"
             style="fill:#29abe2;fill-opacity:1;fill-rule:nonzero;stroke:none" /></g></g></g><text
       transform="matrix(1,0,0,-1,150.4687,186.4229)"
       id="text70"><tspan
         x="0 49.344002 65.856003 98.783997"
         y="0"
         id="tspan72"
         style="font-size:48px;font-variant:normal;font-weight:bold;font-stretch:normal;writing-mode:lr-tb;fill:#ff0a35;fill-opacity:1;fill-rule:nonzero;stroke:none;font-family:Hiragino Kaku Gothic StdN W8;-inkscape-font-specification:HiraKakuStdN-W8">MILK</tspan></text>
<g
       id="g74"><g
         clip-path="url(#clipPath78)"
         id="g76"><g
           transform="translate(179.2686,184.9351)"
           id="g82"><path
             d="M 0,0 C 0.24,1.536 0.864,3.648 2.064,7.056 L 6.72,20.208 c 0.624,1.728 1.104,3.456 2.16,7.2 -0.048,-0.72 -0.048,-0.72 -0.192,-3.264 -0.096,-1.488 -0.24,-5.088 -0.24,-6.24 l 0,-10.464 C 8.448,4.032 8.352,2.208 8.064,0 l 9.456,0 c -0.288,1.92 -0.384,3.792 -0.384,7.44 l 0,25.008 c 0,3.216 0.096,5.184 0.384,7.488 l -12.72,0 C 4.512,37.92 4.128,36.384 3.024,33.168 l -7.152,-20.688 -7.2,20.688 c -1.104,3.168 -1.488,4.704 -1.824,6.768 l -12.672,0 c 0.24,-2.064 0.384,-4.608 0.384,-7.488 l 0,-25.008 c 0,-3.264 -0.096,-5.28 -0.384,-7.44 l 9.456,0 c -0.288,2.016 -0.384,4.128 -0.384,7.44 l 0,10.416 c 0,2.544 -0.192,6.48 -0.48,9.504 0.24,-0.672 0.24,-0.672 0.768,-2.4 0.144,-0.384 1.584,-4.848 1.632,-5.088 L -10.416,7.104 C -9.12,3.456 -8.592,1.68 -8.352,0 L 0,0 z"
             id="path84"
             style="fill:none;stroke:#0a0a0a;stroke-width:1;stroke-linecap:butt;stroke-linejoin:miter;stroke-miterlimit:10;stroke-opacity:1;stroke-dasharray:none" /></g><g
           transform="translate(202.7891,224.8711)"
           id="g86"><path
             d="m 0,0 c 0.288,-2.112 0.384,-3.504 0.384,-7.104 l 0,-25.728 c 0,-3.216 -0.096,-5.232 -0.384,-7.104 l 10.56,0 c -0.288,2.016 -0.384,3.792 -0.384,7.104 l 0,25.728 c 0,3.504 0.096,5.136 0.384,7.104 L 0,0 z"
             id="path88"
             style="fill:none;stroke:#0a0a0a;stroke-width:1;stroke-linecap:butt;stroke-linejoin:miter;stroke-miterlimit:10;stroke-opacity:1;stroke-dasharray:none" /></g><g
           transform="translate(240.9966,184.9351)"
           id="g90"><path
             d="m 0,0 c 3.84,0 6.192,-0.096 7.968,-0.336 l 0,9.216 C 5.712,8.592 4.08,8.544 0,8.544 l -11.616,0 0,23.808 c 0,3.744 0.048,5.088 0.384,7.584 l -10.464,0 c 0.288,-2.304 0.384,-4.368 0.384,-7.728 l 0,-25.344 c 0,-3.216 -0.096,-5.328 -0.384,-7.008 1.824,0.096 3.792,0.144 7.104,0.144 L 0,0 z"
             id="path92"
             style="fill:none;stroke:#0a0a0a;stroke-width:1;stroke-linecap:butt;stroke-linejoin:miter;stroke-miterlimit:10;stroke-opacity:1;stroke-dasharray:none" /></g><g
           transform="translate(273.4443,209.0786)"
           id="g94"><path
             d="m 0,0 10.032,10.512 c 0.864,0.864 0.864,0.864 3.36,3.36 0.672,0.672 1.008,1.056 1.872,1.92 l -12.96,0 C 1.248,14.016 0,12.384 -1.872,10.416 l -9.552,-10.224 0,8.496 c 0,3.024 0.096,4.608 0.384,7.104 l -10.176,0 c 0.288,-2.304 0.384,-4.176 0.384,-7.104 l 0,-25.728 c 0,-2.88 -0.096,-4.656 -0.384,-7.104 l 10.176,0 c -0.288,2.544 -0.384,4.128 -0.384,7.104 l 0,6.048 4.848,4.848 7.44,-11.904 c 1.248,-2.016 2.64,-4.56 3.312,-6.096 l 12.48,0 c -1.632,2.016 -2.256,2.88 -5.088,7.104 L 0,0 z"
             id="path96"
             style="fill:none;stroke:#0a0a0a;stroke-width:1;stroke-linecap:butt;stroke-linejoin:miter;stroke-miterlimit:10;stroke-opacity:1;stroke-dasharray:none" /></g><path
           d="m 339,436 -173,0 0,24 173,0 0,-24 z"
           id="path98"
           style="fill:#ffffff;fill-opacity:1;fill-rule:nonzero;stroke:none" /><g
           transform="translate(339.2275,439)"
           id="g100"><path
             d="m 0,0 -149.377,0 -23.351,0 2.5,-2.5 0,23.877 -2.5,-2.5 149.378,0 23.35,0 c -0.833,0.834 -1.667,1.667 -2.5,2.5 l 0,-23.877 c 0,-3.224 5,-3.224 5,0 l 0,23.877 c 0,1.363 -1.138,2.5 -2.5,2.5 l -149.377,0 -23.351,0 c -1.362,0 -2.5,-1.137 -2.5,-2.5 l 0,-23.877 c 0,-1.363 1.138,-2.5 2.5,-2.5 L -23.35,-5 0,-5 c 3.225,0 3.225,5 0,5"
             id="path102"
             style="fill:#000000;fill-opacity:1;fill-rule:nonzero;stroke:none" /></g></g></g></g></svg>