<?xml version="1.0" encoding="UTF-8" standalone="no"?>
<!-- Created with Inkscape (http://www.inkscape.org/) -->

<svg
   xmlns:dc="http://purl.org/dc/elements/1.1/"
   xmlns:cc="http://creativecommons.org/ns#"
   xmlns:rdf="http://www.w3.org/1999/02/22-rdf-syntax-ns#"
   xmlns:svg="http://www.w3.org/2000/svg"
   xmlns="http://www.w3.org/2000/svg"
   xmlns:sodipodi="http://sodipodi.sourceforge.net/DTD/sodipodi-0.dtd"
   xmlns:inkscape="http://www.inkscape.org/namespaces/inkscape"
   width="181.53824"
   height="182.09831"
   id="svg5696"
   version="1.1"
   inkscape:version="0.48.4 r9939"
   sodipodi:docname="ernie2.svg">
  <defs
     id="defs5698">
    <clipPath
       id="SVGID_2_">
      <rect
         height="88.862999"
         width="111.498"
         y="518.96198"
         x="382.04999"
         id="use1087" />
    </clipPath>
    <clipPath
       id="SVGID_4_">
      <rect
         height="41.314999"
         width="49.584999"
         y="525.19397"
         x="389.84698"
         id="use1111" />
    </clipPath>
  </defs>
  <sodipodi:namedview
     id="base"
     pagecolor="#ffffff"
     bordercolor="#666666"
     borderopacity="1.0"
     inkscape:pageopacity="0.0"
     inkscape:pageshadow="2"
     inkscape:zoom="0.77472527"
     inkscape:cx="18.256836"
     inkscape:cy="123.0141"
     inkscape:current-layer="layer1"
     inkscape:document-units="px"
     showgrid="false"
     inkscape:window-width="763"
     inkscape:window-height="591"
     inkscape:window-x="592"
     inkscape:window-y="97"
     inkscape:window-maximized="0"
     fit-margin-top="0"
     fit-margin-left="0"
     fit-margin-right="0"
     fit-margin-bottom="0" />
  <metadata
     id="metadata5701">
    <rdf:RDF>
      <cc:Work
         rdf:about="">
        <dc:format>image/svg+xml</dc:format>
        <dc:type
           rdf:resource="http://purl.org/dc/dcmitype/StillImage" />
        <dc:title></dc:title>
      </cc:Work>
    </rdf:RDF>
  </metadata>
  <g
     id="layer1"
     inkscape:label="Layer 1"
     inkscape:groupmode="layer"
     transform="translate(-299.68646,-26.022138)">
    <g
       transform="translate(-111.33033,-45.489172)"
       id="g5">
      <path
         inkscape:connector-curvature="0"
         style="fill:#e83827"
         d="m 500.385,171.87 c 23.66,6.955 49.699,-0.439 58.18,-7.315 2.875,-2.331 -5.729,-14.298 -1.083,-16.367 1.822,-0.81 7.123,4.188 7.555,5.83 0.577,-0.632 5.563,-8.671 7.81,-9.099 7.065,-1.347 2.593,9.431 1.836,11.237 1.578,-1.371 8.729,-4.291 10.194,-3.753 6.517,2.394 -4.052,10.054 -5.526,11.297 1.446,-1.638 10.252,-1.23 11.044,2.368 2.445,11.105 -22.686,4.566 -22.686,4.566 0,0 -36.761,21.22 -69.196,9.917"
         id="path7" />
      <path
         inkscape:connector-curvature="0"
         style="fill:none;stroke:#e83434;stroke-width:3.99399996;stroke-linecap:round;stroke-linejoin:round"
         d="m 500.385,171.87 c 23.66,6.955 49.699,-0.439 58.18,-7.315 2.875,-2.331 -5.729,-14.298 -1.083,-16.367 1.822,-0.81 7.123,4.188 7.555,5.83 0.577,-0.632 5.563,-8.671 7.81,-9.099 7.065,-1.347 2.593,9.431 1.836,11.237 1.578,-1.371 8.729,-4.291 10.194,-3.753 6.517,2.394 -4.052,10.054 -5.526,11.297 1.446,-1.638 10.252,-1.23 11.044,2.368 2.445,11.105 -22.686,4.566 -22.686,4.566 0,0 -36.761,21.22 -69.196,9.917"
         id="path9" />
      <path
         inkscape:connector-curvature="0"
         style="fill:#e83827"
         d="m 500.385,171.87 c 23.66,6.955 49.699,-0.439 58.18,-7.315 2.875,-2.331 -5.729,-14.298 -1.083,-16.367 1.822,-0.81 7.123,4.188 7.555,5.83 0.577,-0.632 5.563,-8.671 7.81,-9.099 7.065,-1.347 2.593,9.431 1.836,11.237 1.578,-1.371 8.729,-4.291 10.194,-3.753 6.517,2.394 -4.052,10.054 -5.526,11.297 1.446,-1.638 10.252,-1.23 11.044,2.368 2.445,11.105 -22.686,4.566 -22.686,4.566 0,0 -36.761,21.22 -69.196,9.917"
         id="path11" />
      <path
         inkscape:connector-curvature="0"
         style="fill:none;stroke:#e83434;stroke-width:3.99399996;stroke-linecap:round;stroke-linejoin:round"
         d="m 500.385,171.87 c 23.66,6.955 49.699,-0.439 58.18,-7.315 2.875,-2.331 -5.729,-14.298 -1.083,-16.367 1.822,-0.81 7.123,4.188 7.555,5.83 0.577,-0.632 5.563,-8.671 7.81,-9.099 7.065,-1.347 2.593,9.431 1.836,11.237 1.578,-1.371 8.729,-4.291 10.194,-3.753 6.517,2.394 -4.052,10.054 -5.526,11.297 1.446,-1.638 10.252,-1.23 11.044,2.368 2.445,11.105 -22.686,4.566 -22.686,4.566 0,0 -36.761,21.22 -69.196,9.917"
         id="path13" />
      <path
         inkscape:connector-curvature="0"
         style="fill:#e83827"
         d="m 500.385,171.87 c 23.66,6.955 49.699,-0.439 58.18,-7.315 2.875,-2.331 -5.729,-14.298 -1.083,-16.367 1.822,-0.81 7.123,4.188 7.555,5.83 0.577,-0.632 5.563,-8.671 7.81,-9.099 7.065,-1.347 2.593,9.431 1.836,11.237 1.578,-1.371 8.729,-4.291 10.194,-3.753 6.517,2.394 -4.052,10.054 -5.526,11.297 1.446,-1.638 10.252,-1.23 11.044,2.368 2.445,11.105 -22.686,4.566 -22.686,4.566 0,0 -36.761,21.22 -69.196,9.917"
         id="path15" />
      <path
         inkscape:connector-curvature="0"
         style="fill:none;stroke:#e83434;stroke-width:3.99399996;stroke-linecap:round;stroke-linejoin:round"
         d="m 500.385,171.87 c 23.66,6.955 49.699,-0.439 58.18,-7.315 2.875,-2.331 -5.729,-14.298 -1.083,-16.367 1.822,-0.81 7.123,4.188 7.555,5.83 0.577,-0.632 5.563,-8.671 7.81,-9.099 7.065,-1.347 2.593,9.431 1.836,11.237 1.578,-1.371 8.729,-4.291 10.194,-3.753 6.517,2.394 -4.052,10.054 -5.526,11.297 1.446,-1.638 10.252,-1.23 11.044,2.368 2.445,11.105 -22.686,4.566 -22.686,4.566 0,0 -36.761,21.22 -69.196,9.917"
         id="path17" />
      <path
         inkscape:connector-curvature="0"
         style="fill:#e83827"
         d="m 500.385,171.87 c 23.66,6.955 49.699,-0.439 58.18,-7.315 2.875,-2.331 -5.729,-14.298 -1.083,-16.367 1.822,-0.81 7.123,4.188 7.555,5.83 0.577,-0.632 5.563,-8.671 7.81,-9.099 7.065,-1.347 2.593,9.431 1.836,11.237 1.578,-1.371 8.729,-4.291 10.194,-3.753 6.517,2.394 -4.052,10.054 -5.526,11.297 1.446,-1.638 10.252,-1.23 11.044,2.368 2.445,11.105 -22.686,4.566 -22.686,4.566 0,0 -36.761,21.22 -69.196,9.917"
         id="path19" />
      <path
         inkscape:connector-curvature="0"
         style="fill:none;stroke:#e83434;stroke-width:3.99399996;stroke-linecap:round;stroke-linejoin:round"
         d="m 500.385,171.87 c 23.66,6.955 49.699,-0.439 58.18,-7.315 2.875,-2.331 -5.729,-14.298 -1.083,-16.367 1.822,-0.81 7.123,4.188 7.555,5.83 0.577,-0.632 5.563,-8.671 7.81,-9.099 7.065,-1.347 2.593,9.431 1.836,11.237 1.578,-1.371 8.729,-4.291 10.194,-3.753 6.517,2.394 -4.052,10.054 -5.526,11.297 1.446,-1.638 10.252,-1.23 11.044,2.368 2.445,11.105 -22.686,4.566 -22.686,4.566 0,0 -36.761,21.22 -69.196,9.917"
         id="path21" />
      <path
         inkscape:connector-curvature="0"
         style="fill:#e83827"
         d="m 500.385,171.87 c 23.66,6.955 49.699,-0.439 58.18,-7.315 2.875,-2.331 -5.729,-14.298 -1.083,-16.367 1.822,-0.81 7.123,4.188 7.555,5.83 0.577,-0.632 5.563,-8.671 7.81,-9.099 7.065,-1.347 2.593,9.431 1.836,11.237 1.578,-1.371 8.729,-4.291 10.194,-3.753 6.517,2.394 -4.052,10.054 -5.526,11.297 1.446,-1.638 10.252,-1.23 11.044,2.368 2.445,11.105 -22.686,4.566 -22.686,4.566 0,0 -36.761,21.22 -69.196,9.917"
         id="path23" />
      <path
         inkscape:connector-curvature="0"
         style="fill:none;stroke:#e83434;stroke-width:3.99399996;stroke-linecap:round;stroke-linejoin:round"
         d="m 500.385,171.87 c 23.66,6.955 49.699,-0.439 58.18,-7.315 2.875,-2.331 -5.729,-14.298 -1.083,-16.367 1.822,-0.81 7.123,4.188 7.555,5.83 0.577,-0.632 5.563,-8.671 7.81,-9.099 7.065,-1.347 2.593,9.431 1.836,11.237 1.578,-1.371 8.729,-4.291 10.194,-3.753 6.517,2.394 -4.052,10.054 -5.526,11.297 1.446,-1.638 10.252,-1.23 11.044,2.368 2.445,11.105 -22.686,4.566 -22.686,4.566 0,0 -36.761,21.22 -69.196,9.917"
         id="path25" />
      <path
         inkscape:connector-curvature="0"
         style="fill:#e83827"
         d="m 500.385,171.87 c 23.66,6.955 49.699,-0.439 58.18,-7.315 2.875,-2.331 -5.729,-14.298 -1.083,-16.367 1.822,-0.81 7.123,4.188 7.555,5.83 0.577,-0.632 5.563,-8.671 7.81,-9.099 7.065,-1.347 2.593,9.431 1.836,11.237 1.578,-1.371 8.729,-4.291 10.194,-3.753 6.517,2.394 -4.052,10.054 -5.526,11.297 1.446,-1.638 10.252,-1.23 11.044,2.368 2.445,11.105 -22.686,4.566 -22.686,4.566 0,0 -36.761,21.22 -69.196,9.917"
         id="path27" />
      <path
         inkscape:connector-curvature="0"
         style="fill:none;stroke:#e83434;stroke-width:3.99399996;stroke-linecap:round;stroke-linejoin:round"
         d="m 500.385,171.87 c 23.66,6.955 49.699,-0.439 58.18,-7.315 2.875,-2.331 -5.729,-14.298 -1.083,-16.367 1.822,-0.81 7.123,4.188 7.555,5.83 0.577,-0.632 5.563,-8.671 7.81,-9.099 7.065,-1.347 2.593,9.431 1.836,11.237 1.578,-1.371 8.729,-4.291 10.194,-3.753 6.517,2.394 -4.052,10.054 -5.526,11.297 1.446,-1.638 10.252,-1.23 11.044,2.368 2.445,11.105 -22.686,4.566 -22.686,4.566 0,0 -36.761,21.22 -69.196,9.917"
         id="path29" />
      <path
         inkscape:connector-curvature="0"
         style="fill:#e83827"
         d="m 500.385,171.87 c 23.66,6.955 49.699,-0.439 58.18,-7.315 2.875,-2.331 -5.729,-14.298 -1.083,-16.367 1.822,-0.81 7.123,4.188 7.555,5.83 0.577,-0.632 5.563,-8.671 7.81,-9.099 7.065,-1.347 2.593,9.431 1.836,11.237 1.578,-1.371 8.729,-4.291 10.194,-3.753 6.517,2.394 -4.052,10.054 -5.526,11.297 1.446,-1.638 10.252,-1.23 11.044,2.368 2.445,11.105 -22.686,4.566 -22.686,4.566 0,0 -36.761,21.22 -69.196,9.917"
         id="path31" />
      <path
         inkscape:connector-curvature="0"
         style="fill:none;stroke:#e83434;stroke-width:3.99399996;stroke-linecap:round;stroke-linejoin:round"
         d="m 500.385,171.87 c 23.66,6.955 49.699,-0.439 58.18,-7.315 2.875,-2.331 -5.729,-14.298 -1.083,-16.367 1.822,-0.81 7.123,4.188 7.555,5.83 0.577,-0.632 5.563,-8.671 7.81,-9.099 7.065,-1.347 2.593,9.431 1.836,11.237 1.578,-1.371 8.729,-4.291 10.194,-3.753 6.517,2.394 -4.052,10.054 -5.526,11.297 1.446,-1.638 10.252,-1.23 11.044,2.368 2.445,11.105 -22.686,4.566 -22.686,4.566 0,0 -36.761,21.22 -69.196,9.917"
         id="path33" />
      <path
         inkscape:connector-curvature="0"
         style="fill:#f49c00"
         d="m 500.385,171.87 c 23.66,6.955 49.699,-0.439 58.18,-7.315 2.875,-2.331 -5.729,-14.298 -1.083,-16.367 1.822,-0.81 7.123,4.188 7.555,5.83 0.577,-0.632 5.563,-8.671 7.81,-9.099 7.065,-1.347 2.593,9.431 1.836,11.237 1.578,-1.371 8.729,-4.291 10.194,-3.753 6.517,2.394 -4.052,10.054 -5.526,11.297 1.446,-1.638 10.252,-1.23 11.044,2.368 2.445,11.105 -22.686,4.566 -22.686,4.566 0,0 -36.761,21.22 -69.196,9.917"
         id="path35" />
      <path
         inkscape:connector-curvature="0"
         style="fill:#0052a4"
         d="m 566.047,176.793 c 0,0 -9.904,-11.652 -10.568,-14.302 0,0 -5.742,5.1 -25.336,7.959 l -8.672,12.964 c 0,0 25.582,6.6 44.576,-6.621"
         id="path37" />
      <path
         inkscape:connector-curvature="0"
         style="fill:none;stroke:#0052a4;stroke-width:4.09600019;stroke-linecap:round;stroke-linejoin:round"
         d="m 566.047,176.793 c 0,0 -9.904,-11.652 -10.568,-14.302 0,0 -5.742,5.1 -25.336,7.959 l -8.672,12.964 c 0,0 25.582,6.6 44.576,-6.621 z"
         id="path39" />
      <path
         inkscape:connector-curvature="0"
         style="fill:#e83827"
         d="m 566.047,176.793 c 0,0 -9.904,-11.652 -10.568,-14.302 0,0 -1.544,1.367 -5.742,3.08 l 7.877,15.744 c 2.882,-1.154 5.724,-2.634 8.433,-4.522"
         id="path41" />
      <path
         inkscape:connector-curvature="0"
         style="fill:#ffe100"
         d="m 557.613,181.315 -7.877,-15.744 c -1.975,0.807 -4.538,1.689 -7.811,2.544 l 4.434,16.224 c 3.683,-0.568 7.503,-1.52 11.254,-3.024"
         id="path43" />
      <path
         inkscape:connector-curvature="0"
         style="fill:#ffffff"
         d="m 521.471,183.414 c 0,0 5.207,1.343 12.664,1.603 l -0.81,-15.072 c -1.021,0.175 -2.074,0.344 -3.183,0.506 l -8.671,12.963 z"
         id="path45" />
      <path
         inkscape:connector-curvature="0"
         style="fill:#0076bf"
         d="m 546.359,184.339 -4.434,-16.224 c -2.452,0.643 -5.302,1.267 -8.601,1.83 l 0.81,15.073 c 3.652,0.126 7.842,-0.004 12.225,-0.679"
         id="path47" />
      <path
         inkscape:connector-curvature="0"
         style="fill:#e83827"
         d="m 503.186,172.382 c -23.66,6.954 -49.697,-0.44 -58.18,-7.316 -2.875,-2.33 5.731,-14.297 1.081,-16.366 -1.819,-0.81 -7.121,4.188 -7.553,5.831 -0.576,-0.633 -5.562,-8.672 -7.811,-9.1 -7.064,-1.347 -2.589,9.431 -1.835,11.237 -1.577,-1.372 -8.728,-4.292 -10.194,-3.753 -6.517,2.393 4.052,10.054 5.526,11.297 -1.446,-1.638 -10.249,-1.231 -11.043,2.369 -2.445,11.104 22.685,4.564 22.685,4.564 0,0 36.761,21.22 69.196,9.918"
         id="path49" />
      <path
         inkscape:connector-curvature="0"
         style="fill:none;stroke:#e83434;stroke-width:3.99399996;stroke-linecap:round;stroke-linejoin:round"
         d="m 503.186,172.382 c -23.66,6.954 -49.697,-0.44 -58.18,-7.316 -2.875,-2.33 5.731,-14.297 1.081,-16.366 -1.819,-0.81 -7.121,4.188 -7.553,5.831 -0.576,-0.633 -5.562,-8.672 -7.811,-9.1 -7.064,-1.347 -2.589,9.431 -1.835,11.237 -1.577,-1.372 -8.728,-4.292 -10.194,-3.753 -6.517,2.393 4.052,10.054 5.526,11.297 -1.446,-1.638 -10.249,-1.231 -11.043,2.369 -2.445,11.104 22.685,4.564 22.685,4.564 0,0 36.761,21.22 69.196,9.918"
         id="path51" />
      <path
         inkscape:connector-curvature="0"
         style="fill:#e83827"
         d="m 503.186,172.382 c -23.66,6.954 -49.697,-0.44 -58.18,-7.316 -2.875,-2.33 5.731,-14.297 1.081,-16.366 -1.819,-0.81 -7.121,4.188 -7.553,5.831 -0.576,-0.633 -5.562,-8.672 -7.811,-9.1 -7.064,-1.347 -2.589,9.431 -1.835,11.237 -1.577,-1.372 -8.728,-4.292 -10.194,-3.753 -6.517,2.393 4.052,10.054 5.526,11.297 -1.446,-1.638 -10.249,-1.231 -11.043,2.369 -2.445,11.104 22.685,4.564 22.685,4.564 0,0 36.761,21.22 69.196,9.918"
         id="path53" />
      <path
         inkscape:connector-curvature="0"
         style="fill:none;stroke:#e83434;stroke-width:3.99399996;stroke-linecap:round;stroke-linejoin:round"
         d="m 503.186,172.382 c -23.66,6.954 -49.697,-0.44 -58.18,-7.316 -2.875,-2.33 5.731,-14.297 1.081,-16.366 -1.819,-0.81 -7.121,4.188 -7.553,5.831 -0.576,-0.633 -5.562,-8.672 -7.811,-9.1 -7.064,-1.347 -2.589,9.431 -1.835,11.237 -1.577,-1.372 -8.728,-4.292 -10.194,-3.753 -6.517,2.393 4.052,10.054 5.526,11.297 -1.446,-1.638 -10.249,-1.231 -11.043,2.369 -2.445,11.104 22.685,4.564 22.685,4.564 0,0 36.761,21.22 69.196,9.918"
         id="path55" />
      <path
         inkscape:connector-curvature="0"
         style="fill:#e83827"
         d="m 503.186,172.382 c -23.66,6.954 -49.697,-0.44 -58.18,-7.316 -2.875,-2.33 5.731,-14.297 1.081,-16.366 -1.819,-0.81 -7.121,4.188 -7.553,5.831 -0.576,-0.633 -5.562,-8.672 -7.811,-9.1 -7.064,-1.347 -2.589,9.431 -1.835,11.237 -1.577,-1.372 -8.728,-4.292 -10.194,-3.753 -6.517,2.393 4.052,10.054 5.526,11.297 -1.446,-1.638 -10.249,-1.231 -11.043,2.369 -2.445,11.104 22.685,4.564 22.685,4.564 0,0 36.761,21.22 69.196,9.918"
         id="path57" />
      <path
         inkscape:connector-curvature="0"
         style="fill:none;stroke:#e83434;stroke-width:3.99399996;stroke-linecap:round;stroke-linejoin:round"
         d="m 503.186,172.382 c -23.66,6.954 -49.697,-0.44 -58.18,-7.316 -2.875,-2.33 5.731,-14.297 1.081,-16.366 -1.819,-0.81 -7.121,4.188 -7.553,5.831 -0.576,-0.633 -5.562,-8.672 -7.811,-9.1 -7.064,-1.347 -2.589,9.431 -1.835,11.237 -1.577,-1.372 -8.728,-4.292 -10.194,-3.753 -6.517,2.393 4.052,10.054 5.526,11.297 -1.446,-1.638 -10.249,-1.231 -11.043,2.369 -2.445,11.104 22.685,4.564 22.685,4.564 0,0 36.761,21.22 69.196,9.918"
         id="path59" />
      <path
         inkscape:connector-curvature="0"
         style="fill:#e83827"
         d="m 503.186,172.382 c -23.66,6.954 -49.697,-0.44 -58.18,-7.316 -2.875,-2.33 5.731,-14.297 1.081,-16.366 -1.819,-0.81 -7.121,4.188 -7.553,5.831 -0.576,-0.633 -5.562,-8.672 -7.811,-9.1 -7.064,-1.347 -2.589,9.431 -1.835,11.237 -1.577,-1.372 -8.728,-4.292 -10.194,-3.753 -6.517,2.393 4.052,10.054 5.526,11.297 -1.446,-1.638 -10.249,-1.231 -11.043,2.369 -2.445,11.104 22.685,4.564 22.685,4.564 0,0 36.761,21.22 69.196,9.918"
         id="path61" />
      <path
         inkscape:connector-curvature="0"
         style="fill:none;stroke:#e83434;stroke-width:3.99399996;stroke-linecap:round;stroke-linejoin:round"
         d="m 503.186,172.382 c -23.66,6.954 -49.697,-0.44 -58.18,-7.316 -2.875,-2.33 5.731,-14.297 1.081,-16.366 -1.819,-0.81 -7.121,4.188 -7.553,5.831 -0.576,-0.633 -5.562,-8.672 -7.811,-9.1 -7.064,-1.347 -2.589,9.431 -1.835,11.237 -1.577,-1.372 -8.728,-4.292 -10.194,-3.753 -6.517,2.393 4.052,10.054 5.526,11.297 -1.446,-1.638 -10.249,-1.231 -11.043,2.369 -2.445,11.104 22.685,4.564 22.685,4.564 0,0 36.761,21.22 69.196,9.918"
         id="path63" />
      <path
         inkscape:connector-curvature="0"
         style="fill:#e83827"
         d="m 503.186,172.382 c -23.66,6.954 -49.697,-0.44 -58.18,-7.316 -2.875,-2.33 5.731,-14.297 1.081,-16.366 -1.819,-0.81 -7.121,4.188 -7.553,5.831 -0.576,-0.633 -5.562,-8.672 -7.811,-9.1 -7.064,-1.347 -2.589,9.431 -1.835,11.237 -1.577,-1.372 -8.728,-4.292 -10.194,-3.753 -6.517,2.393 4.052,10.054 5.526,11.297 -1.446,-1.638 -10.249,-1.231 -11.043,2.369 -2.445,11.104 22.685,4.564 22.685,4.564 0,0 36.761,21.22 69.196,9.918"
         id="path65" />
      <path
         inkscape:connector-curvature="0"
         style="fill:none;stroke:#e83434;stroke-width:3.99399996;stroke-linecap:round;stroke-linejoin:round"
         d="m 503.186,172.382 c -23.66,6.954 -49.697,-0.44 -58.18,-7.316 -2.875,-2.33 5.731,-14.297 1.081,-16.366 -1.819,-0.81 -7.121,4.188 -7.553,5.831 -0.576,-0.633 -5.562,-8.672 -7.811,-9.1 -7.064,-1.347 -2.589,9.431 -1.835,11.237 -1.577,-1.372 -8.728,-4.292 -10.194,-3.753 -6.517,2.393 4.052,10.054 5.526,11.297 -1.446,-1.638 -10.249,-1.231 -11.043,2.369 -2.445,11.104 22.685,4.564 22.685,4.564 0,0 36.761,21.22 69.196,9.918"
         id="path67" />
      <path
         inkscape:connector-curvature="0"
         style="fill:#e83827"
         d="m 503.186,172.382 c -23.66,6.954 -49.697,-0.44 -58.18,-7.316 -2.875,-2.33 5.731,-14.297 1.081,-16.366 -1.819,-0.81 -7.121,4.188 -7.553,5.831 -0.576,-0.633 -5.562,-8.672 -7.811,-9.1 -7.064,-1.347 -2.589,9.431 -1.835,11.237 -1.577,-1.372 -8.728,-4.292 -10.194,-3.753 -6.517,2.393 4.052,10.054 5.526,11.297 -1.446,-1.638 -10.249,-1.231 -11.043,2.369 -2.445,11.104 22.685,4.564 22.685,4.564 0,0 36.761,21.22 69.196,9.918"
         id="path69" />
      <path
         inkscape:connector-curvature="0"
         style="fill:none;stroke:#e83434;stroke-width:3.99399996;stroke-linecap:round;stroke-linejoin:round"
         d="m 503.186,172.382 c -23.66,6.954 -49.697,-0.44 -58.18,-7.316 -2.875,-2.33 5.731,-14.297 1.081,-16.366 -1.819,-0.81 -7.121,4.188 -7.553,5.831 -0.576,-0.633 -5.562,-8.672 -7.811,-9.1 -7.064,-1.347 -2.589,9.431 -1.835,11.237 -1.577,-1.372 -8.728,-4.292 -10.194,-3.753 -6.517,2.393 4.052,10.054 5.526,11.297 -1.446,-1.638 -10.249,-1.231 -11.043,2.369 -2.445,11.104 22.685,4.564 22.685,4.564 0,0 36.761,21.22 69.196,9.918"
         id="path71" />
      <path
         inkscape:connector-curvature="0"
         style="fill:#e83827"
         d="m 503.186,172.382 c -23.66,6.954 -49.697,-0.44 -58.18,-7.316 -2.875,-2.33 5.731,-14.297 1.081,-16.366 -1.819,-0.81 -7.121,4.188 -7.553,5.831 -0.576,-0.633 -5.562,-8.672 -7.811,-9.1 -7.064,-1.347 -2.589,9.431 -1.835,11.237 -1.577,-1.372 -8.728,-4.292 -10.194,-3.753 -6.517,2.393 4.052,10.054 5.526,11.297 -1.446,-1.638 -10.249,-1.231 -11.043,2.369 -2.445,11.104 22.685,4.564 22.685,4.564 0,0 36.761,21.22 69.196,9.918"
         id="path73" />
      <path
         inkscape:connector-curvature="0"
         style="fill:none;stroke:#e83434;stroke-width:3.99399996;stroke-linecap:round;stroke-linejoin:round"
         d="m 503.186,172.382 c -23.66,6.954 -49.697,-0.44 -58.18,-7.316 -2.875,-2.33 5.731,-14.297 1.081,-16.366 -1.819,-0.81 -7.121,4.188 -7.553,5.831 -0.576,-0.633 -5.562,-8.672 -7.811,-9.1 -7.064,-1.347 -2.589,9.431 -1.835,11.237 -1.577,-1.372 -8.728,-4.292 -10.194,-3.753 -6.517,2.393 4.052,10.054 5.526,11.297 -1.446,-1.638 -10.249,-1.231 -11.043,2.369 -2.445,11.104 22.685,4.564 22.685,4.564 0,0 36.761,21.22 69.196,9.918"
         id="path75" />
      <path
         inkscape:connector-curvature="0"
         style="fill:#f49c00"
         d="m 503.186,172.382 c -23.66,6.954 -49.697,-0.44 -58.18,-7.316 -2.875,-2.33 5.731,-14.297 1.081,-16.366 -1.819,-0.81 -7.121,4.188 -7.553,5.831 -0.576,-0.633 -5.562,-8.672 -7.811,-9.1 -7.064,-1.347 -2.589,9.431 -1.835,11.237 -1.577,-1.372 -8.728,-4.292 -10.194,-3.753 -6.517,2.393 4.052,10.054 5.526,11.297 -1.446,-1.638 -10.249,-1.231 -11.043,2.369 -2.445,11.104 22.685,4.564 22.685,4.564 0,0 36.761,21.22 69.196,9.918"
         id="path77" />
      <path
         inkscape:connector-curvature="0"
         style="fill:#0052a4"
         d="m 437.524,176.793 c 0,0 9.903,-11.652 10.568,-14.302 0,0 5.74,5.1 25.333,7.959 l 8.674,12.964 c 0.001,0 -25.582,6.6 -44.575,-6.621"
         id="path79" />
      <path
         inkscape:connector-curvature="0"
         style="fill:none;stroke:#0052a4;stroke-width:4.09600019;stroke-linecap:round;stroke-linejoin:round"
         d="m 437.524,176.793 c 0,0 9.903,-11.652 10.568,-14.302 0,0 5.74,5.1 25.333,7.959 l 8.674,12.964 c 0.001,0 -25.582,6.6 -44.575,-6.621 z"
         id="path81" />
      <path
         inkscape:connector-curvature="0"
         style="fill:#e83827"
         d="m 437.524,176.793 c 0,0 9.903,-11.652 10.568,-14.302 0,0 1.544,1.367 5.74,3.08 l -7.877,15.744 c -2.881,-1.154 -5.722,-2.634 -8.431,-4.522"
         id="path83" />
      <path
         inkscape:connector-curvature="0"
         style="fill:#ffe100"
         d="m 445.957,181.315 7.876,-15.744 c 1.976,0.807 4.542,1.689 7.812,2.544 l -4.434,16.224 c -3.682,-0.568 -7.504,-1.52 -11.254,-3.024"
         id="path85" />
      <path
         inkscape:connector-curvature="0"
         style="fill:#ffffff"
         d="m 482.1,183.414 c 0,0 -5.207,1.343 -12.664,1.603 l 0.808,-15.072 c 1.021,0.175 2.077,0.344 3.183,0.506 l 8.673,12.963 z"
         id="path87" />
      <path
         inkscape:connector-curvature="0"
         style="fill:#0076bf"
         d="m 457.212,184.339 4.432,-16.224 c 2.454,0.643 5.305,1.267 8.6,1.83 l -0.809,15.073 c -3.65,0.126 -7.839,-0.004 -12.223,-0.679"
         id="path89" />
      <path
         inkscape:connector-curvature="0"
         style="fill:#0052a4"
         d="m 532.006,206.404 c 2.084,-16.887 -0.875,-33.469 -6.09,-48.781 l -0.227,-5.094 -47.679,1.056 -0.495,4.697 c -5.037,15.01 -7.875,31.218 -5.916,47.726 6.478,1.73 28.883,6.524 60.407,0.396"
         id="path91" />
      <path
         inkscape:connector-curvature="0"
         style="fill:none;stroke:#0052a4;stroke-width:4.09600019;stroke-linecap:round;stroke-linejoin:round"
         d="m 532.006,206.404 c 2.084,-16.887 -0.875,-33.469 -6.09,-48.781 l -0.227,-5.094 -47.679,1.056 -0.495,4.697 c -5.037,15.01 -7.875,31.218 -5.916,47.726 6.478,1.73 28.883,6.524 60.407,0.396 z"
         id="path93" />
      <path
         inkscape:connector-curvature="0"
         style="fill:#e83827"
         d="m 498.993,244.576 0,0 c -0.207,-1.741 -0.866,-4.82 -1.75,-10.135 -2.607,0.118 -5.666,-0.143 -8.069,-0.099 -4.159,-0.323 -7.789,-0.219 -10.908,0.196 0.021,0.013 0.043,0.03 0.064,0.043 -23.086,3.041 -19.673,27.281 20.276,12.02 0.453,-0.171 0.549,-0.725 0.387,-2.025"
         id="path95" />
      <path
         inkscape:connector-curvature="0"
         style="fill:none;stroke:#e83434;stroke-width:3.99399996;stroke-linecap:round;stroke-linejoin:round"
         d="m 498.993,244.576 0,0 c -0.207,-1.741 -0.866,-4.82 -1.75,-10.135 -2.607,0.118 -5.666,-0.143 -8.069,-0.099 -4.159,-0.323 -7.789,-0.219 -10.908,0.196 0.021,0.013 0.043,0.03 0.064,0.043 -23.086,3.041 -19.673,27.281 20.276,12.02 0.453,-0.171 0.549,-0.725 0.387,-2.025 z"
         id="path97" />
      <path
         inkscape:connector-curvature="0"
         style="fill:#ffffff"
         d="m 484.664,247.738 c -1.319,-0.541 -0.52,-9.968 -6.288,-13.138 -23.136,3.013 -19.747,27.296 20.23,12.027 0.454,-0.174 0.548,-0.726 0.387,-2.027 -2.994,1.502 -11.524,4.29 -14.329,3.138"
         id="path99" />
      <path
         inkscape:connector-curvature="0"
         style="fill:#e83434"
         d="m 480.863,248.559 c 2.709,1.151 15.242,-2.457 18.13,-3.958 -0.207,-1.739 -0.866,-4.82 -1.75,-10.133 -2.607,0.115 -5.666,-0.144 -8.068,-0.1 -4.16,-0.322 -10.119,-0.289 -14.7,0.911 4.908,2.563 5.116,12.738 6.388,13.28"
         id="path101" />
      <path
         inkscape:connector-curvature="0"
         style="fill:#ffffff"
         d="m 496.684,241.6 c 0,1.73 -1.302,3.132 -2.91,3.132 -1.609,0 -2.914,-1.402 -2.914,-3.132 0,-1.733 1.305,-3.137 2.914,-3.137 1.608,0 2.91,1.404 2.91,3.137"
         id="path103" />
      <path
         inkscape:connector-curvature="0"
         style="fill:#ffffff"
         d="m 476.01,233.941 c 2.03,0.888 3.554,2.826 6.008,6.744 0.976,-0.212 1.736,-0.323 2.465,-0.576 -0.01,-1.369 -3.256,-5.523 -5.16,-6.407 -0.791,-0.366 -2.498,-0.054 -3.272,0.296"
         id="path105" />
      <path
         inkscape:connector-curvature="0"
         style="fill:#e83827"
         d="m 504.598,246.601 c 39.949,15.261 43.36,-8.979 20.276,-12.02 0.021,-0.013 0.043,-0.03 0.063,-0.044 -3.118,-0.414 -6.75,-0.517 -10.909,-0.195 -2.401,-0.043 -5.461,0.217 -8.069,0.099 -0.882,5.315 -1.541,8.394 -1.751,10.134 l 0.002,0.001 c -0.162,1.3 -0.065,1.854 0.388,2.025"
         id="path107" />
      <path
         inkscape:connector-curvature="0"
         style="fill:none;stroke:#e83434;stroke-width:3.99399996;stroke-linecap:round;stroke-linejoin:round"
         d="m 504.598,246.601 c 39.949,15.261 43.36,-8.979 20.276,-12.02 0.021,-0.013 0.043,-0.03 0.063,-0.044 -3.118,-0.414 -6.75,-0.517 -10.909,-0.195 -2.401,-0.043 -5.461,0.217 -8.069,0.099 -0.882,5.315 -1.541,8.394 -1.751,10.134 l 0.002,0.001 c -0.162,1.3 -0.065,1.854 0.388,2.025 z"
         id="path109" />
      <path
         inkscape:connector-curvature="0"
         style="fill:#ffffff"
         d="m 518.538,247.738 c 1.319,-0.541 0.521,-9.968 6.289,-13.138 23.135,3.013 19.748,27.296 -20.229,12.027 -0.453,-0.174 -0.55,-0.726 -0.388,-2.027 2.994,1.502 11.524,4.29 14.328,3.138"
         id="path111" />
      <path
         inkscape:connector-curvature="0"
         style="fill:#e83434"
         d="m 522.34,248.559 c -2.709,1.151 -15.242,-2.457 -18.132,-3.958 0.21,-1.739 0.869,-4.82 1.751,-10.133 2.608,0.115 5.668,-0.144 8.069,-0.1 4.159,-0.322 10.12,-0.289 14.701,0.911 -4.91,2.563 -5.116,12.738 -6.389,13.28"
         id="path113" />
      <path
         inkscape:connector-curvature="0"
         style="fill:#ffffff"
         d="m 506.52,241.6 c 0,1.73 1.305,3.132 2.912,3.132 1.607,0 2.912,-1.402 2.912,-3.132 0,-1.733 -1.305,-3.137 -2.912,-3.137 -1.607,0 -2.912,1.404 -2.912,3.137"
         id="path115" />
      <path
         inkscape:connector-curvature="0"
         style="fill:#ffffff"
         d="m 527.195,233.941 c -2.034,0.888 -3.557,2.826 -6.008,6.744 -0.977,-0.212 -1.739,-0.323 -2.466,-0.576 0.007,-1.369 3.257,-5.523 5.159,-6.407 0.791,-0.366 2.499,-0.054 3.271,0.296"
         id="path117" />
      <path
         inkscape:connector-curvature="0"
         style="fill:#0052a4"
         d="m 498.121,223.28 c 0.391,-0.049 2.012,-0.074 3.678,-0.075 h -0.029 v -13.804 h 0.029 c -15.377,-0.02 -26.031,-2.326 -30.206,-3.416 0.03,0.26 0.054,0.518 0.087,0.778 0.815,6.239 2.506,14.336 3.649,19.496 4.644,0.506 13.175,1.291 22.715,1.48 -0.005,-2.074 0.017,-3.28 0.077,-4.459"
         id="path119" />
      <path
         inkscape:connector-curvature="0"
         style="fill:none;stroke:#0052a4;stroke-width:4.09600019;stroke-linecap:round;stroke-linejoin:round"
         d="m 498.121,223.28 c 0.391,-0.049 2.012,-0.074 3.678,-0.075 h -0.029 v -13.804 h 0.029 c -15.377,-0.02 -26.031,-2.326 -30.206,-3.416 0.03,0.26 0.054,0.518 0.087,0.778 0.815,6.239 2.506,14.336 3.649,19.496 4.644,0.506 13.175,1.291 22.715,1.48 -0.005,-2.074 0.017,-3.28 0.077,-4.459 z"
         id="path121" />
      <path
         inkscape:connector-curvature="0"
         style="fill:#0052a4"
         d="m 476.493,231.338 c 0,0 13.701,2.128 21.58,0.891 -0.017,-1.878 -0.027,-3.321 -0.029,-4.49 -9.54,-0.189 -18.071,-0.975 -22.715,-1.48 0.677,3.054 1.164,5.079 1.164,5.079"
         id="path123" />
      <path
         inkscape:connector-curvature="0"
         style="fill:none;stroke:#0052a4;stroke-width:4.09600019;stroke-linecap:round;stroke-linejoin:round"
         d="m 476.493,231.338 c 0,0 13.701,2.128 21.58,0.891 -0.017,-1.878 -0.027,-3.321 -0.029,-4.49 -9.54,-0.189 -18.071,-0.975 -22.715,-1.48 0.677,3.054 1.164,5.079 1.164,5.079 z"
         id="path125" />
      <path
         inkscape:connector-curvature="0"
         style="fill:#0052a4"
         d="m 532.004,205.985 c -4.177,1.09 -14.828,3.396 -30.205,3.416 h 0.028 v 13.804 h -0.028 c 1.666,10e-4 3.286,0.026 3.679,0.075 0.059,1.177 0.081,2.379 0.075,4.447 9.754,-0.223 18.371,-1.055 22.733,-1.543 1.143,-5.162 2.819,-13.213 3.632,-19.421 0.032,-0.26 0.055,-0.518 0.086,-0.778"
         id="path127" />
      <path
         inkscape:connector-curvature="0"
         style="fill:none;stroke:#0052a4;stroke-width:4.09600019;stroke-linecap:round;stroke-linejoin:round"
         d="m 532.004,205.985 c -4.177,1.09 -14.828,3.396 -30.205,3.416 h 0.028 v 13.804 h -0.028 c 1.666,10e-4 3.286,0.026 3.679,0.075 0.059,1.177 0.081,2.379 0.075,4.447 9.754,-0.223 18.371,-1.055 22.733,-1.543 1.143,-5.162 2.819,-13.213 3.632,-19.421 0.032,-0.26 0.055,-0.518 0.086,-0.778 z"
         id="path129" />
      <path
         inkscape:connector-curvature="0"
         style="fill:#0052a4"
         d="m 505.523,232.229 c 7.879,1.237 21.582,-0.89 21.582,-0.89 0,0 0.493,-2.059 1.181,-5.154 -4.362,0.488 -12.979,1.319 -22.733,1.541 -0.002,1.172 -0.014,2.618 -0.03,4.503"
         id="path131" />
      <path
         inkscape:connector-curvature="0"
         style="fill:none;stroke:#0052a4;stroke-width:4.09600019;stroke-linecap:round;stroke-linejoin:round"
         d="m 505.523,232.229 c 7.879,1.237 21.582,-0.89 21.582,-0.89 0,0 0.493,-2.059 1.181,-5.154 -4.362,0.488 -12.979,1.319 -22.733,1.541 -0.002,1.172 -0.014,2.618 -0.03,4.503 z"
         id="path133" />
      <polygon
         style="fill:#0052a4"
         points="501.827,223.205 501.827,209.401 501.799,209.401 501.77,209.401 501.77,223.205 501.799,223.205 "
         id="polygon135" />
      <polygon
         style="fill:none;stroke:#0052a4;stroke-width:4.09600019;stroke-linecap:round;stroke-linejoin:round"
         points="501.827,223.205 501.827,209.401 501.799,209.401 501.77,209.401 501.77,223.205 501.799,223.205 "
         id="polygon137" />
      <path
         inkscape:connector-curvature="0"
         style="fill:#e83434"
         d="m 461.472,140.817 c -4.215,4.371 -10.522,2.997 -14.089,-3.066 -3.563,-6.063 -3.038,-14.521 1.176,-18.89 4.216,-4.37 10.523,-2.997 14.087,3.067 3.567,6.064 3.04,14.521 -1.174,18.889"
         id="path139" />
      <path
         inkscape:connector-curvature="0"
         style="fill:none;stroke:#e83434;stroke-width:3.99399996"
         d="m 461.472,140.817 c -4.215,4.371 -10.522,2.997 -14.089,-3.066 -3.563,-6.063 -3.038,-14.521 1.176,-18.89 4.216,-4.37 10.523,-2.997 14.087,3.067 3.567,6.064 3.04,14.521 -1.174,18.889 z"
         id="path141" />
      <path
         inkscape:connector-curvature="0"
         style="fill:#e83434"
         d="m 461.472,140.817 c -4.215,4.371 -10.522,2.997 -14.089,-3.066 -3.563,-6.063 -3.038,-14.521 1.176,-18.89 4.216,-4.37 10.523,-2.997 14.087,3.067 3.567,6.064 3.04,14.521 -1.174,18.889"
         id="path143" />
      <path
         inkscape:connector-curvature="0"
         style="fill:none;stroke:#e83434;stroke-width:3.99399996"
         d="m 461.472,140.817 c -4.215,4.371 -10.522,2.997 -14.089,-3.066 -3.563,-6.063 -3.038,-14.521 1.176,-18.89 4.216,-4.37 10.523,-2.997 14.087,3.067 3.567,6.064 3.04,14.521 -1.174,18.889 z"
         id="path145" />
      <path
         inkscape:connector-curvature="0"
         style="fill:#e83827"
         d="m 461.472,140.817 c -4.215,4.371 -10.522,2.997 -14.089,-3.066 -3.563,-6.063 -3.038,-14.521 1.176,-18.89 4.216,-4.37 10.523,-2.997 14.087,3.067 3.567,6.064 3.04,14.521 -1.174,18.889"
         id="path147" />
      <path
         inkscape:connector-curvature="0"
         style="fill:none;stroke:#e83434;stroke-width:3.99399996;stroke-linecap:round;stroke-linejoin:round"
         d="m 461.472,140.817 c -4.215,4.371 -10.522,2.997 -14.089,-3.066 -3.563,-6.063 -3.038,-14.521 1.176,-18.89 4.216,-4.37 10.523,-2.997 14.087,3.067 3.567,6.064 3.04,14.521 -1.174,18.889 z"
         id="path149" />
      <path
         inkscape:connector-curvature="0"
         style="fill:#f49c00"
         d="m 461.472,140.817 c -4.215,4.371 -10.522,2.997 -14.089,-3.066 -3.563,-6.063 -3.038,-14.521 1.176,-18.89 4.216,-4.37 10.523,-2.997 14.087,3.067 3.567,6.064 3.04,14.521 -1.174,18.889"
         id="path151" />
      <path
         inkscape:connector-curvature="0"
         style="fill:none;stroke:#e83434;stroke-width:3.99399996"
         d="m 461.472,140.817 c -4.215,4.371 -10.522,2.997 -14.089,-3.066 -3.563,-6.063 -3.038,-14.521 1.176,-18.89 4.216,-4.37 10.523,-2.997 14.087,3.067 3.567,6.064 3.04,14.521 -1.174,18.889 z"
         id="path153" />
      <path
         inkscape:connector-curvature="0"
         style="fill:#e83434"
         d="m 461.472,140.817 c -4.215,4.371 -10.522,2.997 -14.089,-3.066 -3.563,-6.063 -3.038,-14.521 1.176,-18.89 4.216,-4.37 10.523,-2.997 14.087,3.067 3.567,6.064 3.04,14.521 -1.174,18.889"
         id="path155" />
      <path
         inkscape:connector-curvature="0"
         style="fill:none;stroke:#e83434;stroke-width:3.99399996"
         d="m 461.472,140.817 c -4.215,4.371 -10.522,2.997 -14.089,-3.066 -3.563,-6.063 -3.038,-14.521 1.176,-18.89 4.216,-4.37 10.523,-2.997 14.087,3.067 3.567,6.064 3.04,14.521 -1.174,18.889 z"
         id="path157" />
      <path
         inkscape:connector-curvature="0"
         style="fill:#e83434"
         d="m 461.472,140.817 c -4.215,4.371 -10.522,2.997 -14.089,-3.066 -3.563,-6.063 -3.038,-14.521 1.176,-18.89 4.216,-4.37 10.523,-2.997 14.087,3.067 3.567,6.064 3.04,14.521 -1.174,18.889"
         id="path159" />
      <path
         inkscape:connector-curvature="0"
         style="fill:none;stroke:#e83434;stroke-width:3.99399996"
         d="m 461.472,140.817 c -4.215,4.371 -10.522,2.997 -14.089,-3.066 -3.563,-6.063 -3.038,-14.521 1.176,-18.89 4.216,-4.37 10.523,-2.997 14.087,3.067 3.567,6.064 3.04,14.521 -1.174,18.889 z"
         id="path161" />
      <path
         inkscape:connector-curvature="0"
         style="fill:#e83827"
         d="m 461.472,140.817 c -4.215,4.371 -10.522,2.997 -14.089,-3.066 -3.563,-6.063 -3.038,-14.521 1.176,-18.89 4.216,-4.37 10.523,-2.997 14.087,3.067 3.567,6.064 3.04,14.521 -1.174,18.889"
         id="path163" />
      <path
         inkscape:connector-curvature="0"
         style="fill:none;stroke:#e83434;stroke-width:3.99399996;stroke-linecap:round;stroke-linejoin:round"
         d="m 461.472,140.817 c -4.215,4.371 -10.522,2.997 -14.089,-3.066 -3.563,-6.063 -3.038,-14.521 1.176,-18.89 4.216,-4.37 10.523,-2.997 14.087,3.067 3.567,6.064 3.04,14.521 -1.174,18.889 z"
         id="path165" />
      <path
         inkscape:connector-curvature="0"
         style="fill:#f49c00"
         d="m 461.472,140.817 c -4.215,4.371 -10.522,2.997 -14.089,-3.066 -3.563,-6.063 -3.038,-14.521 1.176,-18.89 4.216,-4.37 10.523,-2.997 14.087,3.067 3.567,6.064 3.04,14.521 -1.174,18.889"
         id="path167" />
      <path
         inkscape:connector-curvature="0"
         style="fill:#e83434"
         d="m 552.89,118.861 c -4.215,-4.37 -10.524,-2.997 -14.089,3.067 -3.565,6.061 -3.038,14.521 1.176,18.889 4.215,4.371 10.523,2.998 14.088,-3.065 3.566,-6.065 3.039,-14.522 -1.175,-18.891"
         id="path169" />
      <path
         inkscape:connector-curvature="0"
         style="fill:none;stroke:#e83434;stroke-width:3.99399996"
         d="m 552.89,118.861 c -4.215,-4.37 -10.524,-2.997 -14.089,3.067 -3.565,6.061 -3.038,14.521 1.176,18.889 4.215,4.371 10.523,2.998 14.088,-3.065 3.566,-6.065 3.039,-14.522 -1.175,-18.891 z"
         id="path171" />
      <path
         inkscape:connector-curvature="0"
         style="fill:#e83434"
         d="m 552.89,118.861 c -4.215,-4.37 -10.524,-2.997 -14.089,3.067 -3.565,6.061 -3.038,14.521 1.176,18.889 4.215,4.371 10.523,2.998 14.088,-3.065 3.566,-6.065 3.039,-14.522 -1.175,-18.891"
         id="path173" />
      <path
         inkscape:connector-curvature="0"
         style="fill:none;stroke:#e83434;stroke-width:3.99399996"
         d="m 552.89,118.861 c -4.215,-4.37 -10.524,-2.997 -14.089,3.067 -3.565,6.061 -3.038,14.521 1.176,18.889 4.215,4.371 10.523,2.998 14.088,-3.065 3.566,-6.065 3.039,-14.522 -1.175,-18.891 z"
         id="path175" />
      <path
         inkscape:connector-curvature="0"
         style="fill:#e83827"
         d="m 552.89,118.861 c -4.215,-4.37 -10.524,-2.997 -14.089,3.067 -3.565,6.061 -3.038,14.521 1.176,18.889 4.215,4.371 10.523,2.998 14.088,-3.065 3.566,-6.065 3.039,-14.522 -1.175,-18.891"
         id="path177" />
      <path
         inkscape:connector-curvature="0"
         style="fill:none;stroke:#e83434;stroke-width:3.99399996;stroke-linecap:round;stroke-linejoin:round"
         d="m 552.89,118.861 c -4.215,-4.37 -10.524,-2.997 -14.089,3.067 -3.565,6.061 -3.038,14.521 1.176,18.889 4.215,4.371 10.523,2.998 14.088,-3.065 3.566,-6.065 3.039,-14.522 -1.175,-18.891 z"
         id="path179" />
      <path
         inkscape:connector-curvature="0"
         style="fill:#f49c00"
         d="m 552.89,118.861 c -4.215,-4.37 -10.524,-2.997 -14.089,3.067 -3.565,6.061 -3.038,14.521 1.176,18.889 4.215,4.371 10.523,2.998 14.088,-3.065 3.566,-6.065 3.039,-14.522 -1.175,-18.891"
         id="path181" />
      <path
         inkscape:connector-curvature="0"
         style="fill:none;stroke:#e83434;stroke-width:3.99399996"
         d="m 552.89,118.861 c -4.215,-4.37 -10.524,-2.997 -14.089,3.067 -3.565,6.061 -3.038,14.521 1.176,18.889 4.215,4.371 10.523,2.998 14.088,-3.065 3.566,-6.065 3.039,-14.522 -1.175,-18.891 z"
         id="path183" />
      <path
         inkscape:connector-curvature="0"
         style="fill:#e83434"
         d="m 552.89,118.861 c -4.215,-4.37 -10.524,-2.997 -14.089,3.067 -3.565,6.061 -3.038,14.521 1.176,18.889 4.215,4.371 10.523,2.998 14.088,-3.065 3.566,-6.065 3.039,-14.522 -1.175,-18.891"
         id="path185" />
      <path
         inkscape:connector-curvature="0"
         style="fill:none;stroke:#e83434;stroke-width:3.99399996"
         d="m 552.89,118.861 c -4.215,-4.37 -10.524,-2.997 -14.089,3.067 -3.565,6.061 -3.038,14.521 1.176,18.889 4.215,4.371 10.523,2.998 14.088,-3.065 3.566,-6.065 3.039,-14.522 -1.175,-18.891 z"
         id="path187" />
      <path
         inkscape:connector-curvature="0"
         style="fill:#e83434"
         d="m 552.89,118.861 c -4.215,-4.37 -10.524,-2.997 -14.089,3.067 -3.565,6.061 -3.038,14.521 1.176,18.889 4.215,4.371 10.523,2.998 14.088,-3.065 3.566,-6.065 3.039,-14.522 -1.175,-18.891"
         id="path189" />
      <path
         inkscape:connector-curvature="0"
         style="fill:none;stroke:#e83434;stroke-width:3.99399996"
         d="m 552.89,118.861 c -4.215,-4.37 -10.524,-2.997 -14.089,3.067 -3.565,6.061 -3.038,14.521 1.176,18.889 4.215,4.371 10.523,2.998 14.088,-3.065 3.566,-6.065 3.039,-14.522 -1.175,-18.891 z"
         id="path191" />
      <path
         inkscape:connector-curvature="0"
         style="fill:#e83827"
         d="m 552.89,118.861 c -4.215,-4.37 -10.524,-2.997 -14.089,3.067 -3.565,6.061 -3.038,14.521 1.176,18.889 4.215,4.371 10.523,2.998 14.088,-3.065 3.566,-6.065 3.039,-14.522 -1.175,-18.891"
         id="path193" />
      <path
         inkscape:connector-curvature="0"
         style="fill:none;stroke:#e83434;stroke-width:3.99399996;stroke-linecap:round;stroke-linejoin:round"
         d="m 552.89,118.861 c -4.215,-4.37 -10.524,-2.997 -14.089,3.067 -3.565,6.061 -3.038,14.521 1.176,18.889 4.215,4.371 10.523,2.998 14.088,-3.065 3.566,-6.065 3.039,-14.522 -1.175,-18.891 z"
         id="path195" />
      <path
         inkscape:connector-curvature="0"
         style="fill:#f49c00"
         d="m 552.89,118.861 c -4.215,-4.37 -10.524,-2.997 -14.089,3.067 -3.565,6.061 -3.038,14.521 1.176,18.889 4.215,4.371 10.523,2.998 14.088,-3.065 3.566,-6.065 3.039,-14.522 -1.175,-18.891"
         id="path197" />
      <path
         inkscape:connector-curvature="0"
         style="fill:#e83827"
         d="m 498.652,140.595 -2.962,9.411 c 0.585,0.16 7.843,14.269 21.999,20.98 0.119,-2.992 0.607,-6.027 1.1,-8.425 -12.176,-7.269 -18.993,-21.094 -20.137,-21.966"
         id="path199" />
      <path
         inkscape:connector-curvature="0"
         style="fill:#ffe100"
         d="m 471.062,199.227 c 0.095,2.254 0.266,4.515 0.534,6.781 6.477,1.73 28.883,6.524 60.406,0.396 0.393,-3.191 0.607,-6.371 0.659,-9.533 -32.257,4.752 -52.782,3.435 -61.599,2.356"
         id="path201" />
      <path
         inkscape:connector-curvature="0"
         style="fill:#ffe100"
         d="m 528.613,166.456 c -0.769,-2.84 -1.628,-5.643 -2.561,-8.408 -23.824,2.82 -40.119,2.181 -48.895,1.324 -0.956,2.919 -1.824,5.883 -2.589,8.885 9.093,0.944 27.112,1.738 54.045,-1.801"
         id="path203" />
      <path
         inkscape:connector-curvature="0"
         style="fill:#e83827"
         d="m 526.053,158.049 c -0.049,-0.141 -0.092,-0.285 -0.14,-0.426 l -0.228,-5.093 -47.68,1.054 -0.494,4.697 c -0.121,0.363 -0.234,0.728 -0.354,1.092 8.776,0.856 25.072,1.495 48.896,-1.324"
         id="path205" />
      <path
         inkscape:connector-curvature="0"
         style="fill:#ffffff"
         d="m 472.396,178.508 c -0.594,3.591 -1.008,7.223 -1.23,10.886 9.034,1.066 29.414,2.272 61.143,-2.401 -0.293,-3.484 -0.77,-6.934 -1.393,-10.35 -30.611,4.228 -50.119,2.911 -58.52,1.865"
         id="path207" />
      <path
         inkscape:connector-curvature="0"
         style="fill:#0076bf"
         d="m 474.568,168.257 c -0.862,3.373 -1.6,6.792 -2.172,10.251 8.401,1.046 27.908,2.363 58.519,-1.865 -0.625,-3.437 -1.396,-6.839 -2.302,-10.187 -26.933,3.539 -44.952,2.745 -54.045,1.801"
         id="path209" />
      <path
         inkscape:connector-curvature="0"
         style="fill:#e83827"
         d="m 471.166,189.394 c -0.199,3.256 -0.244,6.536 -0.104,9.832 8.815,1.08 29.342,2.398 61.599,-2.355 0.055,-3.315 -0.073,-6.609 -0.353,-9.878 -31.728,4.673 -52.108,3.467 -61.142,2.401"
         id="path211" />
      <path
         inkscape:connector-curvature="0"
         style="fill:#e83827"
         d="m 474.596,161.651 c -0.95,0.576 -1.237,5.027 -1.082,6.276 0.18,1.436 4.491,11.316 31.079,10.476 4.032,-0.126 19.791,-4.725 22.729,-7.417 2.622,-2.405 2.834,-5.956 0.733,-8.829 -1.909,-2.613 -17.778,4.994 -22.27,5.65 -4.183,0.611 -11.255,0.403 -15.268,-0.778 -4.083,-1.203 -14.502,-6.154 -16.048,-5.33"
         id="path213" />
      <path
         inkscape:connector-curvature="0"
         style="fill:none;stroke:#e83434;stroke-width:3.99399996;stroke-linecap:round;stroke-linejoin:round"
         d="m 474.596,161.651 c -0.95,0.576 -1.237,5.027 -1.082,6.276 0.18,1.436 4.491,11.316 31.079,10.476 4.032,-0.126 19.791,-4.725 22.729,-7.417 2.622,-2.405 2.834,-5.956 0.733,-8.829 -1.909,-2.613 -17.778,4.994 -22.27,5.65 -4.183,0.611 -11.255,0.403 -15.268,-0.778 -4.083,-1.203 -14.502,-6.154 -16.048,-5.33"
         id="path215" />
      <path
         inkscape:connector-curvature="0"
         style="fill:#ffd700"
         d="m 474.596,161.651 c -0.95,0.576 -1.237,5.027 -1.082,6.276 0.18,1.436 4.491,11.316 31.079,10.476 4.032,-0.126 19.791,-4.725 22.729,-7.417 2.622,-2.405 2.834,-5.956 0.733,-8.829 -1.909,-2.613 -17.778,4.994 -22.27,5.65 -4.183,0.611 -11.255,0.403 -15.268,-0.778 -4.083,-1.203 -14.502,-6.154 -16.048,-5.33"
         id="path217" />
      <path
         inkscape:connector-curvature="0"
         style="fill:#e83827"
         d="m 478.665,163.085 c -0.472,0.329 -0.645,1.59 -0.835,2.116 -0.348,0.965 -0.602,1.995 -0.777,3.002 -0.214,1.212 -0.462,2.904 0.68,3.733 0.727,-1.02 1.006,-2.05 1.176,-3.267 0.158,-1.132 0.588,-2.188 0.899,-3.282 0.186,-0.657 0.578,-1.959 0.112,-2.589 -0.506,-0.685 -1.277,-0.231 -1.656,0.344"
         id="path219" />
      <path
         inkscape:connector-curvature="0"
         style="fill:#e83827"
         d="m 487.937,167.092 c -0.473,0.328 -0.645,1.59 -0.835,2.115 -0.35,0.965 -0.602,1.996 -0.777,3.002 -0.215,1.213 -0.465,2.905 0.68,3.736 0.727,-1.021 1.004,-2.051 1.176,-3.27 0.156,-1.133 0.586,-2.188 0.897,-3.284 0.188,-0.655 0.581,-1.956 0.112,-2.588 -0.504,-0.685 -1.278,-0.23 -1.653,0.344"
         id="path221" />
      <path
         inkscape:connector-curvature="0"
         style="fill:#e83827"
         d="m 512.76,166.459 c 0.475,0.329 0.645,1.59 0.836,2.116 0.348,0.965 0.602,1.994 0.777,3.002 0.214,1.213 0.463,2.904 -0.679,3.733 -0.728,-1.019 -1.006,-2.05 -1.177,-3.267 -0.158,-1.131 -0.586,-2.188 -0.899,-3.282 -0.187,-0.656 -0.579,-1.959 -0.111,-2.59 0.505,-0.683 1.279,-0.23 1.654,0.345"
         id="path223" />
      <path
         inkscape:connector-curvature="0"
         style="fill:#e83827"
         d="m 522.6,162.776 c 0.475,0.329 0.644,1.59 0.836,2.116 0.348,0.966 0.601,1.994 0.777,3.002 0.213,1.213 0.461,2.904 -0.68,3.733 -0.727,-1.02 -1.007,-2.05 -1.177,-3.267 -0.157,-1.132 -0.587,-2.188 -0.897,-3.282 -0.188,-0.656 -0.579,-1.958 -0.113,-2.589 0.506,-0.684 1.279,-0.231 1.655,0.344"
         id="path225" />
      <path
         inkscape:connector-curvature="0"
         style="fill:#e83827"
         d="m 502.156,168.237 c 0.391,0.427 0.276,1.693 0.344,2.248 0.125,1.021 0.143,2.079 0.091,3.101 -0.063,1.229 -0.196,2.934 -1.494,3.49 -0.481,-1.158 -0.524,-2.224 -0.419,-3.449 0.1,-1.139 -0.085,-2.264 -0.145,-3.4 -0.037,-0.681 -0.129,-2.038 0.467,-2.549 0.645,-0.555 1.298,0.06 1.536,0.705"
         id="path227" />
      <path
         inkscape:connector-curvature="0"
         style="fill:#f49c00"
         d="m 547.57,131.286 c 0,19.675 -20.921,35.627 -46.726,35.627 -25.807,0 -46.728,-15.952 -46.728,-35.627 0,-19.677 20.921,-35.629 46.728,-35.629 25.805,0 46.726,15.952 46.726,35.629"
         id="path229" />
      <ellipse
         d="m 547.571,131.286 c 0,19.67624 -20.9204,35.62699 -46.72701,35.62699 -25.80661,0 -46.727,-15.95075 -46.727,-35.62699 0,-19.67625 20.92039,-35.627003 46.727,-35.627003 25.80661,0 46.72701,15.950753 46.72701,35.627003 z"
         sodipodi:ry="35.626999"
         sodipodi:rx="46.727001"
         sodipodi:cy="131.286"
         sodipodi:cx="500.84399"
         style="fill:none;stroke:#e83434;stroke-width:3.99399996;stroke-linecap:round;stroke-linejoin:round"
         cx="500.84399"
         cy="131.286"
         rx="46.727001"
         ry="35.626999"
         id="ellipse231" />
      <path
         inkscape:connector-curvature="0"
         style="fill:#f49c00"
         d="m 547.57,131.286 c 0,19.675 -20.921,35.627 -46.726,35.627 -25.807,0 -46.728,-15.952 -46.728,-35.627 0,-19.677 20.921,-35.629 46.728,-35.629 25.805,0 46.726,15.952 46.726,35.629"
         id="path233" />
      <path
         inkscape:connector-curvature="0"
         style="fill:#e83434"
         d="m 492.696,123.684 c -1.652,2.422 -4.958,3.045 -7.38,1.391 -2.424,-1.655 -3.046,-4.959 -1.394,-7.383 1.654,-2.421 4.96,-3.046 7.384,-1.392 2.423,1.655 3.046,4.959 1.39,7.384"
         id="path235" />
      <circle
         d="m 493.622,120.688 c 0,2.93374 -2.37827,5.312 -5.312,5.312 -2.93374,0 -5.312,-2.37826 -5.312,-5.312 0,-2.93373 2.37826,-5.312 5.312,-5.312 2.93373,0 5.312,2.37827 5.312,5.312 z"
         sodipodi:ry="5.3119998"
         sodipodi:rx="5.3119998"
         sodipodi:cy="120.688"
         sodipodi:cx="488.31"
         style="fill:none;stroke:#e83434;stroke-width:0.55299997"
         cx="488.31"
         cy="120.688"
         r="5.3119998"
         id="circle237" />
      <path
         inkscape:connector-curvature="0"
         style="fill:#e83434"
         d="m 507.297,117.092 c -1.653,2.423 -1.031,5.731 1.393,7.383 2.422,1.651 5.729,1.028 7.383,-1.394 1.652,-2.42 1.029,-5.727 -1.392,-7.383 -2.424,-1.654 -5.729,-1.03 -7.384,1.394"
         id="path239" />
      <path
         inkscape:connector-curvature="0"
         style="fill:none;stroke:#e83434;stroke-width:0.55299997"
         d="m 507.297,117.092 c -1.653,2.423 -1.031,5.731 1.393,7.383 2.422,1.651 5.729,1.028 7.383,-1.394 1.652,-2.42 1.029,-5.727 -1.392,-7.383 -2.424,-1.654 -5.729,-1.03 -7.384,1.394 z"
         id="path241" />
      <path
         inkscape:connector-curvature="0"
         style="fill:#ffffff"
         d="m 527.426,126.913 c -2.402,5.379 -9.957,7.237 -16.876,4.148 -6.918,-3.087 -10.581,-9.955 -8.179,-15.334 2.402,-5.379 9.956,-7.239 16.875,-4.15 6.92,3.087 10.581,9.954 8.18,15.336"
         id="path243" />
      <path
         inkscape:connector-curvature="0"
         style="fill:#ffffff"
         d="m 472.877,126.913 c 2.402,5.379 9.959,7.237 16.877,4.148 6.917,-3.087 10.58,-9.955 8.178,-15.334 -2.402,-5.379 -9.959,-7.239 -16.876,-4.15 -6.919,3.087 -10.579,9.954 -8.179,15.336"
         id="path245" />
      <path
         inkscape:connector-curvature="0"
         d="m 492.696,123.684 c -1.652,2.422 -4.958,3.045 -7.38,1.391 -2.424,-1.655 -3.046,-4.959 -1.394,-7.383 1.654,-2.421 4.96,-3.046 7.384,-1.392 2.423,1.655 3.046,4.959 1.39,7.384"
         id="path247" />
      <path
         inkscape:connector-curvature="0"
         d="m 507.297,117.092 c -1.653,2.423 -1.031,5.731 1.393,7.383 2.422,1.651 5.729,1.028 7.383,-1.394 1.652,-2.42 1.029,-5.727 -1.392,-7.383 -2.424,-1.654 -5.729,-1.03 -7.384,1.394"
         id="path249" />
      <path
         inkscape:connector-curvature="0"
         style="fill:#e83434"
         d="m 471.861,144.131 c 0,0 25.662,15.334 57.934,0 0,0 -7.141,17.066 -27.774,18.302 0,0 -23.283,1.483 -30.16,-18.302"
         id="path251" />
      <path
         inkscape:connector-curvature="0"
         d="m 538.243,106.819 c -1.028,0.188 -1.963,0.237 -2.875,0.205 1.632,-0.439 8.918,-3.258 9.988,-4.815 0.018,-0.031 -6.86,0.106 -10.197,-1.589 -0.952,-0.483 -1.979,-0.824 -3.043,-1.034 0.863,-0.172 1.73,-0.347 2.592,-0.551 2.771,-0.654 6.372,-4.216 6.372,-4.25 0.523,-0.433 0.973,-0.945 1.318,-1.54 0.177,-0.303 -8.969,1.016 -12.289,0.244 -0.423,-0.099 -0.849,-0.193 -1.276,-0.286 0.288,-0.057 0.575,-0.121 0.861,-0.189 3.448,-0.849 7.098,-6.785 7.155,-7.536 0.019,-0.248 -8.932,3.672 -14.719,1.875 2.563,-0.15 5.251,-2.572 7.803,-3.016 0.103,-0.017 0.104,-0.006 0,0 -3.152,0.206 -5.11,-0.666 -11.633,1.352 2.479,-1.748 5.578,-2.796 9.029,-3.502 0.234,-0.047 -7.992,-1.334 -11.472,-0.368 -1.697,0.469 -3.732,1.366 -5.181,2.636 0.187,-1.305 0.662,-2.513 1.644,-3.859 1.347,-1.839 6.44,-5.131 6.905,-5.138 0.234,-0.002 -9.815,-1.61 -14.635,6.63 0.094,-6.564 -6.693,-8.378 -6.395,-8.103 1.571,3.142 0.039,6.34 -2.182,8.984 -2.586,-2.782 -0.291,-11.096 0.258,-11.457 0.083,-0.055 -7.857,3.173 -7.824,10.662 -1.47,-2.006 -3.559,-3.221 -6.392,-3.881 -0.271,-0.065 4.925,4.887 5.845,8.26 -1.179,-1.624 -2.671,-3.068 -4.347,-4.262 -3.55,-2.521 -7.247,-2.2 -11.255,-1.085 -0.232,0.063 2.194,0.217 3.258,0.353 3.98,0.938 4.361,3.989 5.207,6.824 -0.51,-0.59 -1.063,-1.114 -1.582,-1.529 -2.236,-1.803 -4.66,-2.397 -7.568,-2.21 -0.168,0.012 5.546,3.339 6.237,5.243 -2.421,-0.726 -3.897,-0.684 -6.042,-0.628 -4.689,0.122 -9.833,0.736 -13.496,4.674 -0.258,0.276 3.229,-0.881 4.784,-1.332 2.896,-0.209 5.857,-0.673 8.551,0.256 2.172,0.748 3.616,1.538 3.344,1.571 -4.123,-1.715 -15.562,3.976 -15.312,3.922 3.243,-0.714 6.657,-0.484 9.997,-0.187 -4.189,3.993 -12.897,2.238 -12.803,2.334 3.555,3.539 6.665,6.123 12.214,6.062 3.666,-0.039 6.85,-1.314 9.811,-2.994 -0.328,0.288 -0.654,0.578 -0.975,0.862 -2.527,2.256 -5.229,4.022 -8.402,5.448 -0.242,0.11 -0.088,0.415 0.156,0.384 4.9,-0.632 8.606,-3.601 12.27,-6.365 2.408,-1.813 4.859,-3.586 7.9,-4.414 3.498,-0.956 7.353,0.736 10.073,2.635 0.292,0.205 0.604,0.117 0.8,-0.083 0.104,0.029 0.223,0.029 0.344,-0.021 3.849,-1.533 7.822,-3.619 12.095,-2.173 3.026,1.026 5.387,3.487 7.893,5.245 2.931,2.052 6.12,2.814 9.357,2.712 1.652,1.811 10.665,-1.493 7.834,-0.976"
         id="path253" />
      <path
         inkscape:connector-curvature="0"
         style="fill:#e83827"
         d="m 512.178,135.051 c 0,6.481 -5.276,11.755 -11.757,11.755 -6.483,0 -11.757,-5.274 -11.757,-11.755 0,-6.483 5.273,-11.758 11.757,-11.758 6.48,0 11.757,5.275 11.757,11.758"
         id="path255" />
      <path
         inkscape:connector-curvature="0"
         style="fill:#5390cd"
         d="m 498.121,223.28 c 0.391,-0.049 2.012,-0.074 3.678,-0.075 h -0.029 v -13.804 h 0.029 c -15.377,-0.02 -26.031,-2.326 -30.206,-3.416 0.03,0.26 0.054,0.518 0.087,0.778 0.815,6.239 2.506,14.336 3.649,19.496 4.644,0.506 13.175,1.291 22.715,1.48 -0.005,-2.074 0.017,-3.28 0.077,-4.459"
         id="path257" />
      <path
         inkscape:connector-curvature="0"
         style="fill:#a4c6e9"
         d="m 476.493,231.338 c 0,0 13.701,2.128 21.58,0.891 -0.017,-1.878 -0.027,-3.321 -0.029,-4.49 -9.54,-0.189 -18.071,-0.975 -22.715,-1.48 0.677,3.054 1.164,5.079 1.164,5.079"
         id="path259" />
      <path
         inkscape:connector-curvature="0"
         style="fill:#5390cd"
         d="m 532.004,205.985 c -4.177,1.09 -14.828,3.396 -30.205,3.416 h 0.028 v 13.804 h -0.028 c 1.666,10e-4 3.286,0.026 3.679,0.075 0.059,1.177 0.081,2.379 0.075,4.447 9.754,-0.223 18.371,-1.055 22.733,-1.543 1.143,-5.162 2.819,-13.213 3.632,-19.421 0.032,-0.26 0.055,-0.518 0.086,-0.778"
         id="path261" />
      <path
         inkscape:connector-curvature="0"
         style="fill:#a4c6e9"
         d="m 505.523,232.229 c 7.879,1.237 21.582,-0.89 21.582,-0.89 0,0 0.493,-2.059 1.181,-5.154 -4.362,0.488 -12.979,1.319 -22.733,1.541 -0.002,1.172 -0.014,2.618 -0.03,4.503"
         id="path263" />
      <polygon
         style="fill:#5390cd"
         points="501.827,223.205 501.827,209.401 501.799,209.401 501.77,209.401 501.77,223.205 501.799,223.205 "
         id="polygon265" />
      <path
         inkscape:connector-curvature="0"
         style="fill:#f092b1"
         d="m 493.196,150.475 c 0.625,2.268 1.649,6.246 7.526,6.081 8.186,-0.228 7.762,-4.728 7.701,-6.083 -6.592,0.377 -9.232,0.477 -15.227,0.002"
         id="path267" />
    </g>
  </g>
</svg>
