<?xml version="1.0" encoding="UTF-8" standalone="no"?>
<!-- Created with Inkscape (http://www.inkscape.org/) -->

<svg
   xmlns:dc="http://purl.org/dc/elements/1.1/"
   xmlns:cc="http://creativecommons.org/ns#"
   xmlns:rdf="http://www.w3.org/1999/02/22-rdf-syntax-ns#"
   xmlns:svg="http://www.w3.org/2000/svg"
   xmlns="http://www.w3.org/2000/svg"
   xmlns:sodipodi="http://sodipodi.sourceforge.net/DTD/sodipodi-0.dtd"
   xmlns:inkscape="http://www.inkscape.org/namespaces/inkscape"
   width="138.43759"
   height="192.44264"
   id="svg5696"
   version="1.1"
   inkscape:version="0.48.4 r9939"
   sodipodi:docname="ernie9.svg">
  <defs
     id="defs5698">
    <clipPath
       id="SVGID_2_">
      <rect
         height="88.862999"
         width="111.498"
         y="518.96198"
         x="382.04999"
         id="use1087" />
    </clipPath>
    <clipPath
       id="SVGID_4_">
      <rect
         height="41.314999"
         width="49.584999"
         y="525.19397"
         x="389.84698"
         id="use1111" />
    </clipPath>
  </defs>
  <sodipodi:namedview
     id="base"
     pagecolor="#ffffff"
     bordercolor="#666666"
     borderopacity="1.0"
     inkscape:pageopacity="0.0"
     inkscape:pageshadow="2"
     inkscape:zoom="0.77472527"
     inkscape:cx="-91.036493"
     inkscape:cy="159.81733"
     inkscape:current-layer="layer1"
     inkscape:document-units="px"
     showgrid="false"
     inkscape:window-width="763"
     inkscape:window-height="591"
     inkscape:window-x="592"
     inkscape:window-y="97"
     inkscape:window-maximized="0"
     fit-margin-top="0"
     fit-margin-left="0"
     fit-margin-right="0"
     fit-margin-bottom="0" />
  <metadata
     id="metadata5701">
    <rdf:RDF>
      <cc:Work
         rdf:about="">
        <dc:format>image/svg+xml</dc:format>
        <dc:type
           rdf:resource="http://purl.org/dc/dcmitype/StillImage" />
        <dc:title></dc:title>
      </cc:Work>
    </rdf:RDF>
  </metadata>
  <g
     id="layer1"
     inkscape:label="Layer 1"
     inkscape:groupmode="layer"
     transform="translate(-408.97978,-52.48106)">
    <g
       transform="translate(-396.41436,-253.51994)"
       id="g1775">
      <path
         inkscape:connector-curvature="0"
         style="fill:#e83434"
         d="m 938.029,425.38 c -0.021,-0.092 -0.045,-0.182 -0.078,-0.258 -1.174,-2.861 -4.488,-5.284 -9.969,-7.237 1.857,-1.02 2.989,-2.406 3.4,-4.129 0.008,-0.054 0.016,-0.105 0.022,-0.16 0.292,-2.373 -0.878,-3.87 -3.493,-4.471 -2.155,-0.498 -4.484,-0.345 -6.957,0.472 -2.194,0.711 -4.754,2 -7.679,3.855 l -4.824,-3.343 c -3.665,1.864 -6.247,5.036 -7.747,9.491 l 4.268,3.741 c 0.696,4.182 2.154,7.081 4.39,8.672 2.062,7.222 4.802,10.641 8.206,10.247 0.158,-0.003 0.312,-0.044 0.45,-0.124 2.177,-1.145 3.254,-3.067 3.263,-5.771 0.438,0.525 1.263,1.118 2.495,1.776 1.636,1.133 3.452,1.8 5.443,1.985 1.752,0.18 2.95,-0.549 3.594,-2.189 l 0.011,-0.015 c 0.841,-2.057 0.602,-4.058 -0.733,-6.004 -0.514,-0.757 -1.063,-1.482 -1.625,-2.208 1.114,0.3 2.127,0.476 3.037,0.558 1.76,0.142 2.995,-0.222 3.717,-1.089 0.807,-0.782 1.077,-2.053 0.809,-3.799 m -2.071,0.458 c 0.125,0.862 0.029,1.494 -0.286,1.908 -0.389,0.345 -0.967,0.535 -1.731,0.559 -3.327,0.108 -6.399,-0.418 -9.219,-1.604 0.161,0.686 0.846,1.305 2.027,1.862 0.181,0.208 0.312,0.353 0.389,0.45 l 0.014,0.013 c 1.151,1.302 2.215,2.664 3.204,4.088 0.899,1.301 1.075,2.647 0.511,4.027 v 0.013 c -0.169,0.415 -0.42,0.679 -0.765,0.807 -0.168,0.056 -0.351,0.088 -0.564,0.068 -1.154,0.104 -2.277,-0.142 -3.384,-0.733 -2.429,-1.119 -4.813,-2.854 -7.129,-5.204 -0.017,0.757 0.06,1.372 0.227,1.857 0.013,1.31 -0.158,2.638 -0.486,3.994 -0.29,0.944 -0.812,1.671 -1.568,2.21 -2.307,-0.18 -4.265,-3.199 -5.9,-9.075 -0.065,-0.259 -0.216,-0.454 -0.444,-0.604 -2.032,-1.387 -3.307,-4.053 -3.845,-7.983 l -4.046,-3.224 c 1.206,-3.166 3.109,-5.436 5.728,-6.811 l 4.637,3.468 c 0.761,-0.474 1.221,-0.771 1.395,-0.881 2.386,-1.576 4.68,-2.721 6.885,-3.444 2.09,-0.687 4.036,-0.829 5.84,-0.413 1.302,0.306 1.927,1.011 1.869,2.129 -0.148,0.52 -0.405,0.996 -0.76,1.414 -0.154,0.188 -0.322,0.364 -0.504,0.528 -0.301,0.294 -0.646,0.554 -1.008,0.775 -0.722,0.456 -1.478,0.837 -2.281,1.155 -0.841,0.336 -1.66,0.735 -2.447,1.2 -0.661,0.423 -1.322,0.953 -1.986,1.589 l -0.719,0.747 c 0.566,0.394 1.679,0.11 3.317,-0.849 0.58,-0.283 1.192,-0.518 1.85,-0.703 0.064,-0.019 0.114,-0.049 0.165,-0.068 6.018,1.82 9.686,4.061 11.014,6.735"
         id="path1777" />
      <path
         inkscape:connector-curvature="0"
         style="fill:#f49c00"
         d="m 935.672,427.746 c 0.315,-0.414 0.411,-1.046 0.286,-1.908 -1.328,-2.674 -4.996,-4.915 -11.018,-6.734 -0.051,0.02 -0.101,0.05 -0.165,0.068 -0.657,0.186 -1.27,0.42 -1.85,0.703 -1.639,0.959 -2.751,1.242 -3.317,0.849 l 0.719,-0.747 c 0.664,-0.636 1.325,-1.166 1.986,-1.589 0.787,-0.465 1.606,-0.864 2.447,-1.2 0.804,-0.318 1.56,-0.699 2.281,-1.155 0.361,-0.222 0.707,-0.481 1.008,-0.775 0.182,-0.164 0.35,-0.34 0.504,-0.528 0.354,-0.418 0.611,-0.895 0.76,-1.414 0.058,-1.118 -0.567,-1.823 -1.869,-2.129 -1.804,-0.416 -3.75,-0.273 -5.84,0.413 -2.205,0.724 -4.499,1.868 -6.885,3.444 -0.174,0.11 -0.634,0.407 -1.395,0.881 l -4.637,-3.468 c -2.618,1.375 -4.521,3.645 -5.728,6.811 l 4.046,3.224 c 0.538,3.931 1.812,6.597 3.845,7.983 0.229,0.149 0.379,0.345 0.444,0.604 1.636,5.876 3.594,8.896 5.9,9.075 0.756,-0.539 1.278,-1.266 1.568,-2.21 0.328,-1.356 0.499,-2.685 0.486,-3.994 -0.167,-0.485 -0.243,-1.101 -0.227,-1.857 2.315,2.351 4.7,4.085 7.129,5.204 1.106,0.592 2.229,0.837 3.384,0.733 0.214,0.02 0.396,-0.013 0.564,-0.068 0.345,-0.128 0.596,-0.392 0.765,-0.807 v -0.013 c 0.564,-1.38 0.389,-2.727 -0.511,-4.027 -0.989,-1.424 -2.053,-2.786 -3.204,-4.088 l -0.014,-0.013 c -0.076,-0.098 -0.208,-0.242 -0.389,-0.45 -1.182,-0.558 -1.866,-1.177 -2.027,-1.862 2.819,1.187 5.892,1.713 9.219,1.604 0.768,-0.025 1.346,-0.215 1.735,-0.56"
         id="path1779" />
      <path
         inkscape:connector-curvature="0"
         style="fill:#30479b"
         d="m 929.192,440.129 c 0.013,0 0.013,0 0.027,-0.001 l -0.027,0.001 z"
         id="path1781" />
      <path
         inkscape:connector-curvature="0"
         style="fill:#0076bf"
         d="m 882.893,398.83 c 0.227,-0.145 1.294,-0.502 3.216,-1.075 l 13.006,7.347 -7.477,14.729 -13.716,-8.169 0.305,-1.072 c -0.134,0.031 -0.277,0.059 -0.426,0.059 -0.103,-0.91 -0.162,-1.479 -0.188,-1.693 -0.018,-0.158 -0.037,-0.312 -0.061,-0.444 l 0.098,0.357 c 0.561,-3.122 1.191,-5.217 1.906,-6.297 0.701,-1.083 1.171,-1.818 1.396,-2.223 0.237,-0.403 0.889,-0.908 1.941,-1.519"
         id="path1783" />
      <path
         inkscape:connector-curvature="0"
         style="fill:#003c90"
         d="m 886.108,397.755 c 0.078,-0.02 0.162,-0.05 0.241,-0.069 0.97,-0.318 1.716,-0.632 2.248,-0.936 l 29.064,16.416 c 0.163,0.088 0.275,0.215 0.362,0.393 0.087,0.176 0.134,0.354 0.115,0.556 -0.009,0.204 -0.06,0.383 -0.17,0.558 l -10.043,16.18 c -0.148,0.22 -0.342,0.373 -0.587,0.454 -0.243,0.07 -0.471,0.046 -0.693,-0.087 l -27.9,-16.607 c -0.108,-0.266 -0.235,-0.563 -0.385,-0.868 -0.115,-0.24 -0.224,-0.477 -0.322,-0.698 -0.028,-0.38 -0.065,-0.859 -0.125,-1.44 -0.036,-0.355 -0.082,-0.672 -0.113,-0.956 0.148,0 0.292,-0.027 0.426,-0.059 l -0.305,1.072 13.716,8.169 7.992,4.758 7.239,4.31 8.921,-14.36 -8.391,-4.746 -8.285,-4.69 -13.005,-7.35 z"
         id="path1785" />
      <polygon
         style="fill:#fedb00"
         points="899.63,424.587 891.638,419.831 899.114,405.102 907.399,409.792 "
         id="polygon1787" />
      <polygon
         style="fill:#e83827"
         points="915.79,414.538 906.869,428.898 899.63,424.587 907.399,409.792 "
         id="polygon1789" />
      <path
         inkscape:connector-curvature="0"
         style="fill:#ffffff"
         d="m 891.002,473.164 c 1.175,0.243 2.297,0.5 3.337,0.77 -2.391,1.715 -4.416,4.187 -6.077,7.4 l -2.484,-0.756 c -0.148,-0.257 -0.148,-0.554 0.013,-0.905 0.742,-1.688 2.484,-3.848 5.211,-6.509"
         id="path1791" />
      <path
         inkscape:connector-curvature="0"
         style="fill:#e83434"
         d="m 894.339,473.934 c 0.89,0.23 1.728,0.461 2.525,0.716 0.094,0.027 0.188,0.054 0.281,0.096 -2.97,1.796 -5.09,5.293 -6.346,10.479 l -0.08,0.377 c -0.23,1.499 -0.485,2.499 -0.783,2.998 -0.298,0.5 -0.473,0.757 -0.541,0.757 l -0.392,0.095 c -1.12,0.229 -2.296,0.257 -3.497,0.081 -1.296,-0.149 -2.592,-0.378 -3.89,-0.688 -1.067,-0.23 -2.106,-0.487 -3.146,-0.743 -1.067,-0.271 -2.105,-0.566 -3.147,-0.892 -1.269,-0.418 -2.523,-0.891 -3.78,-1.418 -0.566,-0.256 -1.298,-0.566 -2.188,-0.944 l 1.486,-11.533 18.121,-0.539 c 0.702,0.121 1.377,0.257 2.038,0.391 -2.727,2.661 -4.469,4.821 -5.212,6.509 -0.161,0.352 -0.161,0.648 -0.013,0.905 l 2.484,0.756 c 1.664,-3.217 3.689,-5.689 6.08,-7.403 m -20.741,5.943 c -0.622,0.621 -0.932,1.362 -0.932,2.24 0,0.878 0.31,1.62 0.932,2.228 0.607,0.622 1.35,0.933 2.228,0.933 0.876,0 1.62,-0.311 2.241,-0.933 0.622,-0.607 0.933,-1.35 0.933,-2.228 0,-0.878 -0.311,-1.619 -0.933,-2.24 -0.621,-0.622 -1.365,-0.934 -2.241,-0.934 -0.879,0 -1.621,0.312 -2.228,0.934"
         id="path1793" />
      <path
         inkscape:connector-curvature="0"
         style="fill:#ffffff"
         d="m 872.666,482.117 c 0,-0.878 0.31,-1.619 0.932,-2.24 0.607,-0.622 1.35,-0.934 2.228,-0.934 0.876,0 1.62,0.312 2.241,0.934 0.622,0.621 0.933,1.362 0.933,2.24 0,0.878 -0.311,1.62 -0.933,2.228 -0.621,0.622 -1.365,0.933 -2.241,0.933 -0.878,0 -1.62,-0.311 -2.228,-0.933 -0.622,-0.608 -0.932,-1.35 -0.932,-2.228"
         id="path1795" />
      <path
         inkscape:connector-curvature="0"
         style="fill:#ffffff"
         d="m 897.146,474.745 c 2.932,0.932 5.213,2.024 6.848,3.254 2.956,2.215 4.429,4.646 4.429,7.305 0,0.122 0,0.257 -0.014,0.379 -0.135,2.498 -1.606,4.537 -4.415,6.116 -2.931,1.648 -6.711,2.296 -11.344,1.932 -6.495,-0.229 -13.854,-1.958 -22.092,-5.197 -1.053,-0.542 -1.484,-1.528 -1.296,-2.96 l 0.095,-0.728 c 0.89,0.378 1.621,0.688 2.188,0.944 1.257,0.527 2.512,1 3.78,1.418 1.042,0.325 2.08,0.621 3.147,0.892 1.039,0.256 2.078,0.513 3.146,0.743 1.298,0.311 2.594,0.539 3.89,0.688 1.201,0.176 2.377,0.148 3.497,-0.081 l 0.392,-0.095 c 0.068,0 0.243,-0.257 0.541,-0.757 0.298,-0.499 0.553,-1.499 0.783,-2.998 l 0.08,-0.377 c 1.255,-5.185 3.375,-8.682 6.345,-10.478"
         id="path1797" />
      <path
         inkscape:connector-curvature="0"
         style="fill:none;stroke:#e83927;stroke-width:2.16100001;stroke-linecap:round;stroke-linejoin:round;stroke-miterlimit:10"
         d="m 894.339,473.934 c 0.89,0.23 1.728,0.461 2.525,0.716 0.094,0.027 0.188,0.054 0.281,0.096 2.932,0.932 5.213,2.024 6.848,3.254 2.956,2.215 4.429,4.646 4.429,7.305 0,0.122 0,0.257 -0.014,0.379 -0.135,2.498 -1.606,4.537 -4.415,6.116 -2.931,1.648 -6.711,2.296 -11.344,1.932 -6.495,-0.229 -13.854,-1.958 -22.092,-5.197 -1.053,-0.542 -1.484,-1.528 -1.296,-2.96 l 0.095,-0.728 1.486,-11.533 18.121,-0.539 c 0.702,0.121 1.377,0.257 2.038,0.391 1.176,0.241 2.298,0.498 3.338,0.768 z"
         id="path1799" />
      <path
         inkscape:connector-curvature="0"
         style="fill:#a4c6e9"
         d="m 896.713,464.564 c -0.319,2.156 -0.708,4.291 -1.163,6.42 -9.841,3.052 -17.933,4.176 -24.306,3.358 l -0.66,-5.85 c 9.167,-0.495 17.877,-1.802 26.129,-3.928"
         id="path1801" />
      <path
         inkscape:connector-curvature="0"
         style="fill:#5390cd"
         d="m 896.713,464.564 c -8.252,2.126 -16.962,3.433 -26.129,3.929 l -2.739,-24.052 30.075,-3.419 c 0.372,8.003 -0.032,15.851 -1.207,23.542"
         id="path1803" />
      <path
         inkscape:connector-curvature="0"
         style="fill:none;stroke:#003c90;stroke-width:2.15499997;stroke-linecap:square;stroke-miterlimit:10"
         d="m 895.55,470.984 c -9.841,3.052 -17.933,4.176 -24.306,3.358 l -0.66,-5.85 -2.741,-24.052 30.077,-3.419 c 0.372,8.003 -0.032,15.851 -1.207,23.542 -0.319,2.158 -0.708,4.292 -1.163,6.421 z"
         id="path1805" />
      <path
         inkscape:connector-curvature="0"
         style="fill:#ffffff"
         d="m 862.207,476.696 c 1.174,0.242 2.296,0.5 3.335,0.769 -2.39,1.716 -4.415,4.188 -6.076,7.399 l -2.484,-0.754 c -0.148,-0.257 -0.148,-0.554 0.013,-0.905 0.742,-1.688 2.484,-3.849 5.212,-6.509"
         id="path1807" />
      <path
         inkscape:connector-curvature="0"
         style="fill:#e83434"
         d="m 865.542,477.465 c 0.891,0.229 1.729,0.46 2.525,0.717 0.095,0.025 0.189,0.053 0.282,0.096 -2.97,1.794 -5.089,5.291 -6.346,10.478 l -0.079,0.377 c -0.23,1.499 -0.486,2.498 -0.784,2.999 -0.298,0.498 -0.473,0.756 -0.541,0.756 l -0.391,0.095 c -1.12,0.229 -2.297,0.256 -3.497,0.079 -1.297,-0.147 -2.593,-0.377 -3.889,-0.688 -1.069,-0.23 -2.107,-0.485 -3.148,-0.743 -1.065,-0.27 -2.104,-0.566 -3.146,-0.89 -1.27,-0.419 -2.524,-0.893 -3.781,-1.419 -0.567,-0.256 -1.297,-0.566 -2.187,-0.944 l 1.485,-11.532 18.121,-0.541 c 0.703,0.122 1.378,0.257 2.039,0.393 -2.728,2.66 -4.47,4.82 -5.213,6.509 -0.161,0.352 -0.161,0.648 -0.013,0.905 l 2.484,0.754 c 1.664,-3.214 3.689,-5.685 6.079,-7.401 m -20.74,5.942 c -0.622,0.621 -0.931,1.363 -0.931,2.241 0,0.878 0.309,1.621 0.931,2.228 0.607,0.623 1.351,0.932 2.229,0.932 0.876,0 1.62,-0.309 2.241,-0.932 0.62,-0.606 0.932,-1.35 0.932,-2.228 0,-0.878 -0.312,-1.62 -0.932,-2.241 -0.621,-0.621 -1.365,-0.932 -2.241,-0.932 -0.879,10e-4 -1.622,0.311 -2.229,0.932"
         id="path1809" />
      <path
         inkscape:connector-curvature="0"
         style="fill:#ffffff"
         d="m 843.871,485.648 c 0,-0.878 0.309,-1.62 0.931,-2.241 0.607,-0.621 1.351,-0.932 2.229,-0.932 0.876,0 1.62,0.311 2.241,0.932 0.62,0.621 0.932,1.363 0.932,2.241 0,0.878 -0.312,1.621 -0.932,2.228 -0.621,0.623 -1.365,0.932 -2.241,0.932 -0.878,0 -1.621,-0.309 -2.229,-0.932 -0.622,-0.606 -0.931,-1.35 -0.931,-2.228"
         id="path1811" />
      <path
         inkscape:connector-curvature="0"
         style="fill:#ffffff"
         d="m 868.35,478.277 c 2.932,0.93 5.213,2.024 6.848,3.253 2.957,2.214 4.429,4.645 4.429,7.306 0,0.121 0,0.257 -0.013,0.378 -0.136,2.497 -1.607,4.536 -4.416,6.117 -2.93,1.647 -6.711,2.295 -11.344,1.93 -6.495,-0.229 -13.854,-1.958 -22.091,-5.198 -1.054,-0.54 -1.485,-1.526 -1.296,-2.957 l 0.095,-0.729 c 0.89,0.378 1.619,0.688 2.187,0.944 1.257,0.526 2.512,1 3.781,1.419 1.041,0.323 2.08,0.62 3.146,0.89 1.041,0.258 2.079,0.513 3.148,0.743 1.296,0.311 2.592,0.54 3.889,0.688 1.2,0.177 2.377,0.149 3.497,-0.079 l 0.391,-0.095 c 0.068,0 0.243,-0.258 0.541,-0.756 0.298,-0.501 0.554,-1.5 0.784,-2.999 l 0.079,-0.377 c 1.256,-5.187 3.375,-8.684 6.345,-10.478"
         id="path1813" />
      <path
         inkscape:connector-curvature="0"
         style="fill:none;stroke:#e83927;stroke-width:2.16100001;stroke-linecap:round;stroke-linejoin:round;stroke-miterlimit:10"
         d="m 865.542,477.465 c 0.891,0.229 1.729,0.46 2.525,0.717 0.095,0.025 0.189,0.053 0.282,0.096 2.932,0.93 5.213,2.024 6.848,3.253 2.957,2.214 4.429,4.645 4.429,7.306 0,0.121 0,0.257 -0.013,0.378 -0.136,2.497 -1.607,4.536 -4.416,6.117 -2.93,1.647 -6.711,2.295 -11.344,1.93 -6.495,-0.229 -13.854,-1.958 -22.091,-5.198 -1.054,-0.54 -1.485,-1.526 -1.296,-2.957 l 0.095,-0.729 1.485,-11.532 18.121,-0.541 c 0.703,0.122 1.378,0.257 2.039,0.393 1.175,0.24 2.297,0.498 3.336,0.767 z"
         id="path1815" />
      <path
         inkscape:connector-curvature="0"
         style="fill:#a4c6e9"
         d="m 839.147,468.552 c 0.629,2.093 1.325,4.153 2.088,6.197 10.203,1.596 18.391,1.531 24.592,-0.204 l -0.196,-5.898 c -9.162,0.841 -17.991,0.814 -26.484,-0.095"
         id="path1817" />
      <path
         inkscape:connector-curvature="0"
         style="fill:#5390cd"
         d="m 839.147,468.552 c 8.492,0.909 17.321,0.937 26.483,0.095 l -0.783,-24.252 -30.325,0.985 c 0.799,7.991 2.34,15.715 4.625,23.172"
         id="path1819" />
      <path
         inkscape:connector-curvature="0"
         style="fill:none;stroke:#003c90;stroke-width:2.16000009;stroke-linecap:square;stroke-miterlimit:10"
         d="m 841.235,474.749 c 10.203,1.596 18.391,1.531 24.592,-0.204 l -0.196,-5.898 -0.783,-24.252 -30.325,0.985 c 0.799,7.991 2.34,15.715 4.625,23.172 0.628,2.093 1.325,4.153 2.087,6.197 z"
         id="path1821" />
      <path
         inkscape:connector-curvature="0"
         style="fill:#5390cd"
         d="m 864.623,461.698 c 2.241,0.258 4.511,0.203 6.819,-0.161 l 1.579,0.135 c 0.608,-0.229 1.499,-0.499 2.702,-0.796 l -0.015,-12.991 h -15.016 l 0.096,13.288 c 1.216,0.296 2.499,0.473 3.835,0.525"
         id="path1823" />
      <path
         inkscape:connector-curvature="0"
         style="fill:#003c90"
         d="m 871.442,461.537 c -2.309,0.364 -4.578,0.419 -6.819,0.161 l 0.176,2.133 c 3.389,-0.013 5.604,-0.769 6.643,-2.294"
         id="path1825" />
      <path
         inkscape:connector-curvature="0"
         style="fill:#ffffff"
         d="m 898.302,414.284 c -0.015,-0.053 -0.015,-0.107 -0.027,-0.146 -0.122,0.025 -0.256,0.053 -0.378,0.094 0,0.013 0,0.04 0.014,0.066 0.013,0.026 0.013,0.054 0.027,0.095 0.688,3.464 1.189,6.965 1.475,10.483 0.201,-0.041 0.404,-0.096 0.605,-0.136 -0.367,-3.517 -0.947,-6.993 -1.716,-10.456"
         id="path1827" />
      <path
         inkscape:connector-curvature="0"
         style="fill:#0076bf"
         d="m 897.938,414.393 c -0.015,-0.041 -0.015,-0.068 -0.027,-0.095 -0.014,-0.026 -0.014,-0.054 -0.014,-0.066 -0.959,-4.717 -2.281,-9.391 -3.981,-14.012 -9.365,-2.164 -18.38,-3.306 -27.044,-3.437 -0.026,10e-4 -0.054,10e-4 -0.082,10e-4 -8.661,0.14 -17.676,1.29 -27.052,3.463 -1.67,4.407 -3.002,8.868 -3.995,13.354 13.568,2.635 25.804,3.922 36.718,3.863 h 0.08 c 1.658,0.012 3.275,-0.016 4.852,-0.058 7.786,-0.258 14.63,-1.272 20.545,-3.013"
         id="path1829" />
      <path
         inkscape:connector-curvature="0"
         style="fill:#0076bf"
         d="m 897.896,414.231 c 0.122,-0.041 0.256,-0.068 0.378,-0.094 -1.067,-4.729 -2.513,-9.433 -4.331,-14.079 -9.381,-2.164 -18.408,-3.306 -27.072,-3.437 h -0.082 c -8.661,0.14 -17.676,1.289 -27.065,3.463 -1.736,4.461 -3.136,8.949 -4.171,13.478 -0.054,0.2 -0.106,0.416 -0.148,0.632 0.067,0.014 0.136,0.027 0.202,0.04 0.042,-0.215 0.094,-0.432 0.136,-0.633 0.993,-4.486 2.325,-8.947 3.995,-13.354 9.376,-2.173 18.391,-3.323 27.052,-3.463 0.028,-10e-4 0.056,-10e-4 0.082,-10e-4 8.664,0.131 17.679,1.272 27.044,3.437 1.699,4.621 3.022,9.295 3.98,14.011"
         id="path1831" />
      <path
         inkscape:connector-curvature="0"
         style="fill:#ffffff"
         d="m 872.54,417.465 h -0.08 c -10.914,0.059 -23.149,-1.229 -36.718,-3.863 -0.042,0.201 -0.094,0.418 -0.136,0.633 -0.013,0.041 -0.013,0.083 -0.026,0.123 -0.713,3.328 -1.224,6.669 -1.543,10.05 11.856,2.395 22.729,3.764 32.608,4.122 1.979,0.066 3.921,0.105 5.819,0.09 h 0.081 c 10.522,0.063 19.481,-1.127 26.88,-3.543 0,-0.054 0,-0.107 -0.014,-0.176 v -0.024 c -0.285,-3.519 -0.787,-7.02 -1.475,-10.483 -5.914,1.741 -12.759,2.756 -20.546,3.015 -1.575,0.04 -3.192,0.068 -4.85,0.056"
         id="path1833" />
      <path
         inkscape:connector-curvature="0"
         style="fill:#e83827"
         d="m 872.546,428.619 h -0.081 c -1.9,0.016 -3.84,-0.023 -5.819,-0.09 -9.879,-0.358 -20.752,-1.728 -32.608,-4.122 -0.016,0.149 -0.028,0.312 -0.041,0.459 -0.014,0.028 -0.014,0.056 -0.014,0.082 -0.309,3.273 -0.442,6.576 -0.386,9.891 11.452,2.324 21.978,3.707 31.584,4.146 2.493,0.106 4.919,0.159 7.289,0.146 h 0.081 c 10.645,0.062 19.686,-1.143 27.122,-3.611 l -0.013,-0.067 h 0.013 v -0.027 c 0.12,-3.463 0.035,-6.912 -0.247,-10.349 -7.399,2.415 -16.358,3.606 -26.88,3.542"
         id="path1835" />
      <path
         inkscape:connector-curvature="0"
         style="fill:#fedb00"
         d="m 872.551,439.131 h -0.081 c -2.37,0.014 -4.796,-0.039 -7.289,-0.146 -9.606,-0.439 -20.132,-1.822 -31.584,-4.146 0,0.187 0,0.376 0.013,0.565 v 0.066 c 0.084,3.383 0.343,6.806 0.788,10.253 0.175,0.04 0.335,0.095 0.511,0.148 10.93,2.379 20.981,3.788 30.131,4.256 h 1.778 0.081 c 10.832,0.062 21.463,-1.373 31.877,-4.288 0.496,-4.003 0.79,-7.438 0.897,-10.32 -7.437,2.469 -16.478,3.673 -27.122,3.612"
         id="path1837" />
      <path
         inkscape:connector-curvature="0"
         style="fill:#e83827"
         d="m 900.031,424.874 c 0,-0.039 0,-0.094 -0.014,-0.134 -0.201,0.04 -0.404,0.095 -0.605,0.136 v 0.024 c 0.014,0.068 0.014,0.122 0.014,0.176 0.282,3.437 0.367,6.886 0.247,10.349 v 0.027 c 0.175,-0.041 0.364,-0.082 0.537,-0.121 0.095,-0.015 0.204,-0.042 0.312,-0.068 v -0.041 -0.039 c 0.026,-3.464 -0.14,-6.9 -0.491,-10.309"
         id="path1839" />
      <path
         inkscape:connector-curvature="0"
         style="fill:#e83827"
         d="m 899.412,424.9 v -0.024 0.024 z"
         id="path1841" />
      <path
         inkscape:connector-curvature="0"
         style="fill:#fedb00"
         d="m 899.673,435.52 c -0.107,2.883 -0.401,6.317 -0.897,10.32 0.362,-0.094 0.726,-0.202 1.091,-0.311 0.403,-3.437 0.616,-6.857 0.655,-10.267 -0.107,0.026 -0.217,0.054 -0.312,0.068 -0.173,0.039 -0.362,0.08 -0.537,0.121 v 0.069 z"
         id="path1843" />
      <polygon
         style="fill:#fedb00"
         points="899.66,435.452 899.673,435.52 899.673,435.452 "
         id="polygon1845" />
      <path
         inkscape:connector-curvature="0"
         style="fill:#ffffff"
         d="m 835.58,414.357 c 0.014,-0.04 0.014,-0.082 0.026,-0.123 -0.066,-0.013 -0.135,-0.026 -0.202,-0.04 -0.752,3.355 -1.317,6.752 -1.679,10.16 -0.014,0.148 -0.04,0.282 -0.054,0.432 0.108,0.027 0.215,0.054 0.324,0.08 0.013,-0.147 0.025,-0.31 0.041,-0.459 0.32,-3.381 0.831,-6.721 1.544,-10.05"
         id="path1847" />
      <path
         inkscape:connector-curvature="0"
         style="fill:#e83827"
         d="m 833.996,424.866 c -0.109,-0.026 -0.216,-0.053 -0.324,-0.08 -0.348,3.303 -0.507,6.63 -0.494,9.957 v 0.565 c 0.149,0.041 0.284,0.067 0.432,0.096 -0.013,-0.189 -0.013,-0.379 -0.013,-0.565 -0.057,-3.314 0.077,-6.617 0.386,-9.891 -10e-4,-0.026 -10e-4,-0.053 0.013,-0.082"
         id="path1849" />
      <path
         inkscape:connector-curvature="0"
         style="fill:#fedb00"
         d="m 833.609,435.404 c -0.147,-0.028 -0.282,-0.055 -0.432,-0.096 0.043,3.396 0.26,6.818 0.666,10.255 0.177,0.054 0.364,0.107 0.554,0.16 -0.445,-3.447 -0.704,-6.87 -0.788,-10.253 v -0.066 z"
         id="path1851" />
      <path
         inkscape:connector-curvature="0"
         style="fill:#fedb00"
         d="m 834.908,445.872 c 9.851,2.744 19.904,4.167 30.131,4.256 -9.149,-0.468 -19.201,-1.877 -30.131,-4.256"
         id="path1853" />
      <path
         inkscape:connector-curvature="0"
         style="fill:none;stroke:#003c90;stroke-width:2.1559999;stroke-linecap:square;stroke-miterlimit:10"
         d="m 897.91,414.298 c -0.014,-0.026 -0.014,-0.054 -0.014,-0.066 -0.959,-4.717 -2.281,-9.391 -3.981,-14.012 -9.365,-2.164 -18.38,-3.306 -27.044,-3.437 -0.026,0 -0.054,10e-4 -0.082,10e-4 -8.661,0.14 -17.676,1.29 -27.052,3.463 -1.67,4.407 -3.002,8.868 -3.995,13.354 -0.042,0.201 -0.094,0.418 -0.136,0.633 -0.013,0.041 -0.013,0.083 -0.026,0.123 -0.713,3.328 -1.224,6.669 -1.543,10.05 -0.016,0.149 -0.028,0.312 -0.041,0.459 -0.014,0.028 -0.014,0.056 -0.014,0.082 -0.309,3.273 -0.442,6.576 -0.386,9.891 0,0.187 0,0.376 0.013,0.565 v 0.066 c 0.084,3.383 0.343,6.806 0.788,10.253 v 0.027 c 0.175,0.04 0.335,0.081 0.511,0.121 10.93,2.379 20.981,3.788 30.131,4.256 2.425,0.12 4.797,0.173 7.102,0.159 h 0.08 c 10.469,0.062 19.307,-1.264 26.487,-3.949 0.014,-0.175 0.038,-0.337 0.067,-0.498 0.496,-4.003 0.79,-7.438 0.897,-10.32 v -0.067 -0.027 c 0.12,-3.463 0.035,-6.912 -0.247,-10.349 0,-0.054 0,-0.107 -0.014,-0.176 v -0.024 c -0.285,-3.519 -0.787,-7.02 -1.475,-10.483 -0.011,-0.041 -0.011,-0.069 -0.026,-0.095 z"
         id="path1855" />
      <path
         inkscape:connector-curvature="0"
         style="fill:#e83434"
         d="m 901.496,439.637 c -0.043,-0.081 -0.084,-0.164 -0.138,-0.23 -1.812,-2.501 -5.6,-4.069 -11.374,-4.674 1.562,-1.428 2.334,-3.038 2.325,-4.807 -0.005,-0.054 -0.01,-0.106 -0.015,-0.161 -0.276,-2.37 -1.765,-3.55 -4.443,-3.514 -2.208,0.022 -4.432,0.721 -6.639,2.098 -1.962,1.205 -3.896,2.806 -5.825,4.808 l -4.905,-1.775 c -0.175,-0.062 -0.346,-0.073 -0.534,-0.049 -0.182,0.036 -0.352,0.108 -0.49,0.229 -3.355,2.755 -5.204,6.613 -5.564,11.578 -0.011,0.213 0.034,0.419 0.146,0.618 0.106,0.185 0.268,0.324 0.465,0.406 l 4.275,2.013 c 1.771,3.406 3.921,5.635 6.466,6.649 3.7,6.521 7.166,9.194 10.375,8.012 0.152,-0.041 0.293,-0.118 0.409,-0.228 1.841,-1.624 2.434,-3.743 1.805,-6.366 0.547,0.406 1.49,0.786 2.839,1.136 1.854,0.715 3.774,0.932 5.748,0.642 1.745,-0.236 2.735,-1.226 2.971,-2.97 l 0.009,-0.016 c 0.331,-2.194 -0.375,-4.079 -2.126,-5.652 -0.677,-0.613 -1.38,-1.189 -2.097,-1.76 1.151,0.027 2.176,-0.039 3.076,-0.175 1.741,-0.278 2.855,-0.92 3.352,-1.931 0.598,-0.951 0.56,-2.248 -0.111,-3.881 m -1.902,0.933 c 0.325,0.808 0.381,1.442 0.172,1.92 -0.295,0.425 -0.811,0.747 -1.548,0.949 -3.201,0.889 -6.306,1.103 -9.322,0.615 0.317,0.626 1.13,1.066 2.406,1.329 0.223,0.158 0.387,0.268 0.483,0.345 l 0.018,0.009 c 1.423,0.991 2.777,2.062 4.072,3.211 1.178,1.051 1.662,2.316 1.441,3.788 l 0.006,0.012 c -0.07,0.442 -0.251,0.759 -0.556,0.963 -0.147,0.094 -0.317,0.167 -0.529,0.199 -1.096,0.372 -2.244,0.398 -3.456,0.086 -2.619,-0.516 -5.344,-1.635 -8.144,-3.369 0.163,0.736 0.379,1.316 0.657,1.748 0.321,1.268 0.467,2.597 0.469,3.991 -0.059,0.982 -0.395,1.812 -1,2.513 -2.28,0.369 -4.893,-2.101 -7.862,-7.415 -0.123,-0.235 -0.319,-0.39 -0.574,-0.481 -2.298,-0.865 -4.236,-2.889 -5.831,-6.08 -0.108,-0.226 -0.273,-0.378 -0.491,-0.483 l -3.938,-1.835 c 0.393,-3.765 1.821,-6.763 4.279,-9.008 l 4.969,1.795 c 0.206,0.068 0.406,0.081 0.612,0.036 0.203,-0.058 0.377,-0.16 0.52,-0.309 1.941,-2.091 3.9,-3.741 5.868,-4.964 1.866,-1.156 3.722,-1.753 5.566,-1.774 1.336,-0.011 2.109,0.526 2.316,1.626 -0.021,0.537 -0.159,1.059 -0.404,1.55 -0.104,0.218 -0.226,0.429 -0.365,0.63 -0.222,0.357 -0.495,0.689 -0.793,0.99 -0.594,0.614 -1.238,1.161 -1.942,1.658 -0.539,0.371 -1.048,0.787 -1.548,1.229 1.413,0.41 2.142,0.614 2.174,0.589 6.271,0.346 10.359,1.656 12.275,3.937"
         id="path1857" />
      <path
         inkscape:connector-curvature="0"
         style="fill:#f49c00"
         d="m 899.766,442.49 c 0.209,-0.478 0.153,-1.112 -0.172,-1.92 -1.916,-2.281 -6.004,-3.592 -12.274,-3.938 -0.032,0.025 -0.761,-0.179 -2.174,-0.589 0.5,-0.441 1.009,-0.857 1.548,-1.229 0.704,-0.497 1.349,-1.044 1.942,-1.658 0.298,-0.301 0.571,-0.633 0.793,-0.99 0.14,-0.201 0.261,-0.412 0.365,-0.63 0.245,-0.491 0.383,-1.013 0.404,-1.55 -0.207,-1.1 -0.98,-1.637 -2.316,-1.626 -1.845,0.021 -3.7,0.618 -5.566,1.774 -1.968,1.223 -3.927,2.873 -5.868,4.964 -0.143,0.148 -0.316,0.251 -0.52,0.309 -0.206,0.045 -0.406,0.032 -0.612,-0.036 l -4.969,-1.795 c -2.458,2.245 -3.887,5.243 -4.279,9.008 l 3.938,1.835 c 0.218,0.105 0.383,0.258 0.491,0.483 1.595,3.191 3.533,5.215 5.831,6.08 0.256,0.092 0.451,0.246 0.574,0.481 2.97,5.314 5.582,7.784 7.862,7.415 0.605,-0.701 0.941,-1.53 1,-2.513 -0.002,-1.395 -0.147,-2.724 -0.469,-3.991 -0.278,-0.432 -0.494,-1.012 -0.657,-1.748 2.8,1.734 5.524,2.854 8.144,3.369 1.212,0.312 2.36,0.286 3.456,-0.086 0.212,-0.032 0.382,-0.105 0.529,-0.199 0.305,-0.204 0.487,-0.521 0.556,-0.963 l -0.006,-0.012 c 0.221,-1.472 -0.264,-2.737 -1.441,-3.788 -1.295,-1.148 -2.649,-2.22 -4.072,-3.211 l -0.018,-0.009 c -0.097,-0.077 -0.261,-0.187 -0.483,-0.345 -1.276,-0.263 -2.089,-0.704 -2.406,-1.329 3.017,0.487 6.121,0.273 9.322,-0.615 0.736,-0.201 1.252,-0.523 1.547,-0.948"
         id="path1859" />
      <path
         inkscape:connector-curvature="0"
         style="fill:#30479b"
         d="m 896.397,456.029 c 0.013,-0.005 0.013,-0.005 0.024,-0.009 l -0.024,0.009 z"
         id="path1861" />
      <path
         inkscape:connector-curvature="0"
         style="fill:#fedb00"
         d="m 858.606,420.895 -0.21,0.012 -18.625,9.327 c 2.19,4.888 5.667,8.789 10.451,11.736 l 14.472,-13.087 0.521,-0.794 c -3.562,-1.743 -5.758,-4.14 -6.609,-7.194"
         id="path1863" />
      <path
         inkscape:connector-curvature="0"
         style="fill:#0076bf"
         d="m 858.396,420.906 0.21,-0.012 c -0.821,-2.938 -0.381,-6.477 1.3,-10.611 -9.664,-5.353 -17.294,-4.158 -22.88,3.598 -0.229,6.3 0.679,11.757 2.745,16.353 l 18.625,-9.328 z"
         id="path1865" />
      <path
         inkscape:connector-curvature="0"
         style="fill:#e83827"
         d="m 865.215,428.089 -0.521,0.794 -14.472,13.087 c 5.466,3.37 12.616,5.479 21.453,6.312 l -0.68,-18.188 c -2.219,-0.53 -4.15,-1.198 -5.78,-2.005"
         id="path1867" />
      <path
         inkscape:connector-curvature="0"
         style="fill:none;stroke:#fcdf00;stroke-width:0.32499999;stroke-linecap:square;stroke-linejoin:round;stroke-miterlimit:10"
         d="m 839.771,430.233 18.625,-9.327 m -8.316,21.185 0.143,-0.121 14.472,-13.087"
         id="path1869" />
      <path
         inkscape:connector-curvature="0"
         style="fill:none;stroke:#003c90;stroke-width:2.59699988;stroke-linecap:square;stroke-linejoin:round;stroke-miterlimit:10"
         d="m 859.906,410.283 c -1.681,4.135 -2.121,7.674 -1.3,10.611 0.851,3.055 3.047,5.451 6.608,7.194 1.63,0.808 3.562,1.476 5.781,2.004 l 0.68,18.188 c -8.837,-0.833 -15.987,-2.941 -21.453,-6.312 -4.784,-2.947 -8.261,-6.849 -10.451,-11.736 -2.066,-4.596 -2.974,-10.053 -2.745,-16.353"
         id="path1871" />
      <path
         inkscape:connector-curvature="0"
         style="fill:#f9d300"
         d="m 840.46,395.375 c -1.509,0.716 -2.599,1.834 -3.286,3.355 -0.578,1.322 -0.887,2.725 -0.899,4.192 -0.013,1.494 0.297,2.896 0.958,4.23 l 0.229,0.431 c 0.257,0.405 0.555,0.781 0.918,1.146 0.039,0.04 0.095,0.094 0.163,0.134 1.09,0.902 2.263,1.67 3.516,2.315 1.482,0.768 3.005,1.454 4.582,2.06 1.656,0.618 3.343,1.13 5.04,1.52 1.199,0.296 2.385,0.553 3.584,0.767 1.253,0.229 2.507,0.402 3.762,0.525 1.333,0.187 2.654,0.334 3.975,0.454 1.064,0.054 2.113,0.094 3.152,0.107 h 0.983 0.457 l 0.918,-0.002 c 0.242,-0.014 0.482,-0.014 0.74,-0.014 h 0.027 c 0.229,0 0.443,0 0.674,0.014 0.471,0 0.956,-10e-4 1.428,-10e-4 h 0.014 c 0.553,-10e-4 1.118,-10e-4 1.685,-0.015 0.796,-0.014 1.591,-0.055 2.399,-0.096 1.251,-0.122 2.478,-0.271 3.703,-0.46 1.174,-0.121 2.318,-0.297 3.436,-0.527 1.063,-0.216 2.115,-0.473 3.126,-0.77 1.47,-0.391 2.843,-0.903 4.121,-1.524 1.213,-0.606 2.332,-1.295 3.369,-2.062 0.862,-0.647 1.576,-1.416 2.142,-2.319 0.321,-0.445 0.605,-0.877 0.848,-1.293 l 0.216,-0.418 c 0.658,-1.335 0.968,-2.736 0.953,-4.232 -0.014,-1.469 -0.323,-2.869 -0.905,-4.189 -0.687,-1.522 -1.778,-2.642 -3.288,-3.354 -17.951,-1.837 -35.534,-1.828 -52.74,0.026"
         id="path1873" />
      <path
         inkscape:connector-curvature="0"
         style="fill:#f9d300"
         d="m 868.511,416.609 h 0.458 0.983 c -0.23,-0.014 -0.445,-0.014 -0.674,-0.014 h -0.027 c -0.258,10e-4 -0.498,10e-4 -0.74,0.014"
         id="path1875" />
      <path
         inkscape:connector-curvature="0"
         style="fill:none;stroke:#e83927;stroke-width:2.1559999;stroke-linecap:round;stroke-linejoin:round;stroke-miterlimit:10"
         d="m 837.174,398.73 c -0.578,1.322 -0.887,2.725 -0.899,4.192 -0.013,1.495 0.297,2.896 0.958,4.23 l 0.229,0.431 c 0.257,0.405 0.555,0.781 0.918,1.146 0.039,0.04 0.095,0.094 0.163,0.134 1.09,0.902 2.263,1.67 3.516,2.315 1.482,0.768 3.005,1.454 4.582,2.06 1.656,0.618 3.343,1.13 5.04,1.52 1.199,0.296 2.385,0.553 3.584,0.767 1.253,0.229 2.507,0.402 3.762,0.525 1.333,0.187 2.654,0.334 3.975,0.454 1.064,0.054 2.113,0.094 3.152,0.107 h 0.983 0.457 l 0.918,-0.002 c 0.242,-0.014 0.482,-0.014 0.74,-0.014 h 0.027 c 0.229,0 0.443,0 0.674,0.014 0.471,0 0.956,-10e-4 1.428,-10e-4 h 0.014 c 0.553,-10e-4 1.118,-10e-4 1.685,-0.015 0.796,-0.014 1.591,-0.055 2.399,-0.096 1.251,-0.122 2.478,-0.271 3.703,-0.46 1.174,-0.121 2.318,-0.297 3.436,-0.527 1.063,-0.216 2.115,-0.473 3.126,-0.77 1.47,-0.391 2.843,-0.903 4.121,-1.524 1.213,-0.606 2.332,-1.295 3.369,-2.062 0.862,-0.647 1.576,-1.416 2.142,-2.319 0.321,-0.445 0.605,-0.877 0.848,-1.293 l 0.216,-0.418 c 0.658,-1.335 0.968,-2.736 0.953,-4.232 -0.014,-1.469 -0.323,-2.869 -0.905,-4.189 -0.687,-1.522 -1.778,-2.642 -3.288,-3.354 -17.948,-1.837 -35.531,-1.828 -52.737,0.026 -1.512,0.716 -2.602,1.834 -3.289,3.355 z"
         id="path1877" />
      <path
         inkscape:connector-curvature="0"
         style="fill:#e83434"
         d="m 869.621,399.523 -2.131,-0.47 c -0.323,1.037 -0.578,2.156 -0.779,3.368 -0.188,1.2 -0.295,2.439 -0.307,3.72 -0.014,1.267 0.162,2.424 0.551,3.489 0.393,1.051 0.771,1.604 1.162,1.656 0.148,-0.162 0.268,-1.469 0.335,-3.921 0.067,-2.465 0.455,-5.079 1.169,-7.842"
         id="path1879" />
      <path
         inkscape:connector-curvature="0"
         style="fill:#e83434"
         d="m 879.778,398.63 c 0.5,2.628 0.783,4.836 0.866,6.616 0.082,1.792 0.123,2.923 0.123,3.421 -0.013,0.498 0,1.133 0.042,1.9 0.041,0.768 0.148,1.455 0.351,2.088 0.19,0.62 0.391,1.011 0.62,1.173 0.283,-0.229 0.483,-0.514 0.606,-0.823 0.403,-0.931 0.591,-1.994 0.551,-3.194 0.078,-4.23 -0.287,-7.963 -1.084,-11.182 l -2.075,10e-4 z"
         id="path1881" />
      <path
         inkscape:connector-curvature="0"
         style="fill:#e83434"
         d="m 891.478,403.246 c -0.123,-1.012 -0.313,-2.008 -0.582,-2.977 -0.256,-0.959 -0.579,-1.861 -0.971,-2.696 l -1.859,0.378 c 0.861,2.21 1.431,4.298 1.687,6.278 0.271,1.954 0.474,3.005 0.621,3.139 0.353,-0.04 0.647,-0.484 0.901,-1.32 0.27,-0.85 0.336,-1.792 0.203,-2.802"
         id="path1883" />
      <path
         inkscape:connector-curvature="0"
         style="fill:#e83434"
         d="m 843.371,399.672 c -0.295,0.93 -0.51,1.887 -0.644,2.869 -0.147,0.971 -0.067,1.86 0.23,2.669 0.135,0.363 0.282,0.661 0.431,0.862 0.176,0.255 0.377,0.391 0.58,0.404 0.055,-0.027 0.121,-0.163 0.188,-0.405 0.135,-0.472 0.295,-1.347 0.497,-2.6 0.295,-1.887 0.928,-3.895 1.883,-6.024 l -2.074,-0.363 c -0.43,0.795 -0.794,1.657 -1.091,2.588"
         id="path1885" />
      <path
         inkscape:connector-curvature="0"
         style="fill:#e83434"
         d="m 855.269,397.227 -0.404,1.228 c -1.034,3.112 -1.545,6.118 -1.518,8.987 0.015,2.869 0.487,4.539 1.418,5.024 0.229,-0.311 0.363,-1.199 0.416,-2.695 0.174,-4.136 0.859,-7.923 2.082,-11.358 l -1.994,-1.186 z"
         id="path1887" />
      <path
         inkscape:connector-curvature="0"
         style="fill:#f49c00"
         d="m 903.765,373.499 c 3.062,-0.598 5.495,-2.604 7.286,-5.996 1.779,-3.393 2.399,-7.197 1.852,-11.39 -0.533,-4.192 -2.096,-7.571 -4.652,-10.114 -2.56,-2.543 -5.385,-3.519 -8.446,-2.919 -3.075,0.601 -5.508,2.606 -7.287,5.997 -1.778,3.391 -2.398,7.197 -1.865,11.391 0.549,4.191 2.109,7.57 4.667,10.113 2.557,2.543 5.369,3.522 8.445,2.918"
         id="path1889" />
      <path
         inkscape:connector-curvature="0"
         style="fill:none;stroke:#e83927;stroke-width:2.14299989;stroke-linecap:round;stroke-linejoin:round;stroke-miterlimit:10"
         d="m 903.765,373.499 c -3.075,0.604 -5.888,-0.375 -8.446,-2.918 -2.558,-2.543 -4.118,-5.922 -4.667,-10.113 -0.533,-4.194 0.087,-8 1.865,-11.391 1.779,-3.391 4.212,-5.396 7.287,-5.997 3.062,-0.6 5.887,0.376 8.446,2.919 2.557,2.543 4.119,5.922 4.652,10.114 0.548,4.193 -0.072,7.998 -1.852,11.39 -1.79,3.392 -4.223,5.398 -7.285,5.996 z"
         id="path1891" />
      <path
         inkscape:connector-curvature="0"
         style="fill:#f49c00"
         d="m 889.896,334.497 c -10.54,-5.539 -22.258,-7.053 -35.152,-4.529 -12.88,2.52 -23.163,8.34 -30.866,17.447 -7.672,9.117 -10.5,18.867 -8.468,29.25 2.029,10.369 8.324,18.336 18.867,23.887 10.569,5.547 22.287,7.061 35.167,4.541 12.893,-2.522 23.178,-8.343 30.851,-17.459 7.686,-9.117 10.513,-18.869 8.484,-29.239 -2.033,-10.383 -8.328,-18.349 -18.883,-23.898"
         id="path1893" />
      <path
         inkscape:connector-curvature="0"
         style="fill:none;stroke:#e83927;stroke-width:2.14299989;stroke-linecap:round;stroke-linejoin:round;stroke-miterlimit:10"
         d="m 854.743,329.968 c -12.88,2.52 -23.163,8.34 -30.866,17.447 -7.672,9.117 -10.5,18.867 -8.468,29.25 2.029,10.369 8.324,18.336 18.867,23.887 10.569,5.547 22.287,7.061 35.167,4.541 12.893,-2.522 23.178,-8.343 30.851,-17.459 7.686,-9.117 10.513,-18.869 8.484,-29.239 -2.032,-10.383 -8.327,-18.349 -18.883,-23.898 -10.54,-5.539 -22.257,-7.053 -35.152,-4.529 z"
         id="path1895" />
      <path
         inkscape:connector-curvature="0"
         style="fill:#f49c00"
         d="m 823.988,363.157 c -0.186,-0.182 -0.386,-0.361 -0.594,-0.525 -2.925,-2.471 -5.936,-3.41 -9.011,-2.809 -3.062,0.6 -5.311,2.569 -6.722,5.887 -1.411,3.319 -1.584,7.037 -0.498,11.124 1.072,4.089 3.082,7.38 6.007,9.852 2.939,2.466 5.95,3.406 9.012,2.808 2.588,-0.508 4.58,-1.974 5.987,-4.406 l -0.073,-0.94 -4.108,-20.991 z"
         id="path1897" />
      <path
         inkscape:connector-curvature="0"
         style="fill:none;stroke:#e83927;stroke-width:2.14299989;stroke-linecap:square;stroke-linejoin:round;stroke-miterlimit:10"
         d="m 828.17,385.087 c -1.407,2.433 -3.399,3.898 -5.987,4.406 -3.062,0.599 -6.072,-0.342 -9.012,-2.808 -2.925,-2.472 -4.935,-5.763 -6.007,-9.852 -1.086,-4.087 -0.913,-7.805 0.498,-11.124 1.411,-3.318 3.66,-5.287 6.722,-5.887 3.075,-0.601 6.086,0.338 9.011,2.809 0.208,0.164 0.408,0.343 0.594,0.525"
         id="path1899" />
      <path
         inkscape:connector-curvature="0"
         d="m 867.077,312.517 c 0.4,-0.952 1.365,-2.301 2.87,-4.029 1.406,-1.598 2.251,-2.432 2.527,-2.487 -1.497,0.008 -3.169,0.402 -5.018,1.201 -3.665,1.632 -6.091,4.371 -7.282,8.248 -0.497,-2.809 -1.95,-4.872 -4.377,-6.184 -0.764,-0.411 -1.544,-0.708 -2.329,-0.882 -0.756,-0.166 -1.047,-0.191 -0.874,-0.074 1.786,2.501 1.704,5.71 -0.219,9.621 -1.277,-1.019 -2.052,-3.229 -2.305,-6.618 -0.222,-3.013 -0.151,-4.746 0.237,-5.204 -1.079,0.757 -2.124,1.849 -3.109,3.283 -1.564,2.257 -2.318,4.617 -2.249,7.072 -0.817,-0.208 -1.635,-0.403 -2.473,-0.58 -3.946,-0.852 -7.58,-0.796 -10.924,0.172 0.312,0.267 1.241,0.972 2.789,2.129 0.18,0.142 0.801,0.88 1.862,2.189 -2.118,-1.266 -4.673,-2.049 -7.665,-2.35 -2.994,-0.314 -5.598,-0.16 -7.809,0.477 1.054,0.709 2.743,1.605 5.09,2.717 2.046,1.113 3.541,2.404 4.483,3.871 -1.777,-0.785 -3.475,-1.244 -5.1,-1.377 -3.027,-0.267 -6.253,0.691 -9.69,2.852 0.584,-0.018 1.326,0.081 2.244,0.312 0.903,0.219 1.968,0.57 3.19,1.026 2.573,0.957 4.105,1.804 4.615,2.535 -1.993,0.268 -4.154,0.664 -6.463,1.21 -2.311,0.536 -4.261,1.312 -5.838,2.317 -1.576,1.005 -2.963,2.354 -4.147,4.046 2.88,-1.396 5.926,-2.142 9.142,-2.24 3.215,-0.096 5.193,0.322 5.965,1.262 -4.126,0.671 -7.268,1.641 -9.418,2.921 -2.152,1.28 -3.482,2.291 -3.975,3.057 1.225,-0.445 2.589,-0.793 4.082,-1.044 1.492,-0.252 3.696,-0.287 6.625,-0.11 -3.818,3.573 -8.228,5.172 -13.259,4.779 0.704,0.517 1.395,0.981 2.091,1.405 0.745,0.455 1.538,0.887 2.392,1.279 0.888,0.413 1.813,0.682 2.782,0.821 0.854,0.119 1.732,0.206 2.601,0.254 0.897,0.057 1.783,0.047 2.665,-0.057 9.076,-0.82 16.29,-3.365 21.609,-7.627 -1.485,2.803 -3.232,5.164 -5.26,7.075 -0.081,0.084 -0.086,0.194 -0.022,0.305 0.064,0.124 0.137,0.15 0.223,0.093 2.205,-1.073 4.04,-2.579 5.517,-4.505 1.273,-1.656 2.378,-3.412 3.296,-5.271 1.33,-1.994 3.017,-3.416 5.063,-4.252 1.121,-0.479 2.368,-0.873 3.762,-1.214 1.418,-0.346 2.846,-0.653 4.268,-0.918 0.172,-0.032 0.357,-0.055 0.558,-0.081 2.121,-0.32 3.997,-0.359 5.631,-0.091 1.617,0.242 2.97,0.591 4.052,1.035 0.102,0.034 0.192,0.085 0.273,0.137 0.048,-0.378 0.521,-1.098 1.405,-2.157 0.847,-1.041 1.979,-1.603 3.379,-1.699 3.655,-0.225 7.017,0.564 10.099,2.363 0.401,0.248 0.815,0.483 1.237,0.686 0.7,0.367 1.408,0.708 2.143,1.041 0.738,0.361 1.518,0.644 2.313,0.871 0.566,0.176 1.161,0.291 1.775,0.361 1.068,0.16 2.084,-0.025 3.027,-0.564 0.812,-0.459 1.531,-1.036 2.146,-1.731 0.212,-0.245 0.428,-0.533 0.663,-0.865 0.438,-0.619 0.816,-1.266 1.135,-1.942 0.365,-0.712 0.653,-1.465 0.838,-2.265 -0.653,0.141 -1.368,0.254 -2.144,0.337 -0.271,0.011 -0.552,0.04 -0.835,0.054 -1.827,0.152 -3.315,0.076 -4.455,-0.234 -0.259,-0.071 -0.507,-0.159 -0.731,-0.253 -0.773,-0.326 -1.604,-0.518 -2.474,-0.58 -0.029,-0.008 -0.056,-0.002 -0.084,-0.011 4.479,-1.872 6.84,-4.586 7.108,-8.159 -3.778,1.953 -7.566,2.682 -11.363,2.169 l 0.766,-0.341 c 1.308,-0.638 2.562,-2.234 3.76,-4.775 0.646,-1.369 1.062,-2.445 1.269,-3.209 0.116,-0.446 0.157,-0.795 0.122,-1.047 -0.789,0.508 -1.67,1.022 -2.646,1.541 -0.579,0.318 -1.214,0.633 -1.874,0.953 -0.985,0.479 -1.927,0.895 -2.83,1.223 -2.296,0.818 -4.286,1.111 -5.97,0.881 0.845,-0.22 1.961,-0.93 3.364,-2.131 1.501,-1.318 2.604,-2.106 3.284,-2.391 -1.781,0.309 -3.188,0.584 -4.231,0.828 -1.881,0.438 -3.982,1.338 -6.325,2.686 1.75,-1.994 4.328,-3.755 7.706,-5.248 0.388,-0.186 -0.992,-0.119 -4.149,0.212 -3.115,0.323 -5.311,0.82 -6.595,1.509 -1.855,0.976 -3.282,2.197 -4.294,3.65 -0.092,-1.387 0.163,-2.801 0.762,-4.269"
         id="path1901" />
      <path
         inkscape:connector-curvature="0"
         style="fill:#e83434"
         d="m 899.893,375.416 c -3.161,3.687 -6.972,6.604 -11.42,8.735 -4.453,2.119 -8.345,3.572 -11.653,4.34 -3.318,0.77 -7.414,1.171 -12.273,1.212 -4.861,0.029 -9.431,-0.944 -13.699,-2.908 9.014,5.383 17.864,6.942 26.537,4.698 8.784,-1.805 16.28,-7.158 22.508,-16.077"
         id="path1903" />
      <path
         inkscape:connector-curvature="0"
         style="fill:#ffffff"
         d="m 880.335,343.548 c -1.866,2.043 -2.505,4.502 -1.925,7.39 0.565,2.891 2.193,5.356 4.873,7.399 2.693,2.052 5.652,3.082 8.855,3.07 3.224,0.01 5.765,-1.019 7.627,-3.076 1.88,-2.045 2.519,-4.504 1.939,-7.393 -0.581,-2.889 -2.222,-5.352 -4.9,-7.393 -2.678,-2.042 -5.621,-3.062 -8.843,-3.073 -3.205,0.013 -5.749,1.029 -7.626,3.076"
         id="path1905" />
      <path
         inkscape:connector-curvature="0"
         style="fill:#ffffff"
         d="m 874.07,348.703 c -1.761,-2.507 -4.426,-3.855 -7.969,-4.035 -3.54,-0.167 -6.935,0.892 -10.189,3.167 -3.222,2.282 -5.368,5.131 -6.411,8.515 -1.041,3.383 -0.683,6.342 1.083,8.876 1.79,2.529 4.453,3.864 7.994,4.031 3.541,0.18 6.938,-0.88 10.161,-3.162 3.253,-2.274 5.399,-5.11 6.443,-8.494 1.038,-3.41 0.679,-6.369 -1.112,-8.898"
         id="path1907" />
      <path
         inkscape:connector-curvature="0"
         d="m 887.307,345.622 c 0.637,-1.297 1.593,-2.131 2.888,-2.506 1.295,-0.375 2.531,-0.197 3.73,0.529 1.205,0.751 2.001,1.835 2.391,3.276 0.394,1.442 0.28,2.795 -0.334,4.088 -0.635,1.31 -1.585,2.156 -2.881,2.532 -1.294,0.376 -2.531,0.197 -3.736,-0.555 -1.217,-0.749 -2.023,-1.83 -2.416,-3.271 -0.392,-1.441 -0.279,-2.795 0.358,-4.093"
         id="path1909" />
      <path
         inkscape:connector-curvature="0"
         d="m 872.222,348.608 c -1.195,-0.963 -2.537,-1.359 -4.054,-1.187 -1.515,0.173 -2.741,0.842 -3.709,2.012 -0.963,1.195 -1.36,2.537 -1.188,4.052 0.174,1.515 0.841,2.743 2.012,3.709 1.196,0.977 2.54,1.389 4.058,1.216 1.514,-0.173 2.743,-0.842 3.705,-2.038 0.976,-1.199 1.387,-2.542 1.215,-4.058 -0.174,-1.514 -0.842,-2.743 -2.039,-3.706"
         id="path1911" />
      <path
         inkscape:connector-curvature="0"
         style="fill:#e83827"
         d="m 888.246,357.604 c -2.587,-1.949 -5.385,-2.63 -8.388,-2.043 -3.003,0.588 -5.336,2.274 -6.999,5.054 -1.676,2.771 -2.187,5.82 -1.537,9.144 0.65,3.325 2.273,5.955 4.87,7.891 2.589,1.95 5.384,2.629 8.388,2.043 3.004,-0.588 5.336,-2.273 6.998,-5.054 1.677,-2.771 2.189,-5.82 1.539,-9.145 -0.652,-3.325 -2.273,-5.956 -4.871,-7.89"
         id="path1913" />
      <path
         inkscape:connector-curvature="0"
         style="fill:#ffffff"
         d="m 938.263,451.368 c 0.186,-2.203 -0.623,-4.227 -2.381,-6.09 -0.271,-0.267 -0.541,-0.534 -0.811,-0.778 -2.35,-2.079 -4.953,-3.674 -7.79,-4.823 -1.14,-0.47 -2.24,-0.938 -3.316,-1.383 -21.674,6.852 -31.032,11.842 -28.031,14.974 4.306,1.374 6.513,2.074 6.575,2.099 1.338,0.41 2.974,0.875 4.907,1.373 l 0.022,10e-4 -0.048,0.128 c -1.186,2.617 -1.08,5.131 0.355,7.562 2.024,0.394 3.86,0.63 5.512,0.688 0.192,0.007 0.407,-0.007 0.688,-0.062 0.692,-0.148 1.671,-0.5 2.912,-1.057 0.917,-0.418 2.269,-1.036 4.057,-1.873 0.066,-0.041 0.154,-0.081 0.241,-0.12 0.867,-0.291 1.737,-0.604 2.583,-0.896 0.588,-0.216 1.196,-0.453 1.782,-0.668 0.045,-0.02 0.111,-0.06 0.175,-0.079 0.913,-0.333 1.826,-0.688 2.742,-1.062 1.675,-0.691 3.331,-1.405 5.01,-2.161 0.195,-0.101 0.414,-0.179 0.61,-0.278 2.622,-1.325 4.016,-3.162 4.206,-5.495"
         id="path1915" />
      <path
         inkscape:connector-curvature="0"
         style="fill:#0076bf"
         d="m 923.965,438.294 c -1.629,-0.681 -3.172,-1.356 -4.672,-2.011 -2.536,-1.075 -5.073,-2.131 -7.61,-3.185 -1.206,-0.493 -2.413,-0.943 -3.665,-1.331 -0.149,-0.047 -0.318,-0.097 -0.466,-0.146 -1.21,-0.386 -2.42,-0.728 -3.634,-1.007 -0.109,0.018 -0.216,0.036 -0.324,0.053 4.51,4.085 4.286,8.046 -0.653,11.884 -2.052,1.601 -4.401,2.526 -7.05,2.755 -5.794,0.676 -10.141,-1.409 -13.017,-6.228 -0.282,-0.505 -0.544,-1.007 -0.762,-1.508 -0.564,0.193 -1.174,0.409 -1.804,0.645 -0.78,0.271 -1.372,0.614 -1.775,1.052 -0.109,0.104 -0.179,0.209 -0.246,0.313 -0.271,0.397 -0.462,0.906 -0.57,1.567 -0.03,0.256 -0.039,0.513 -0.049,0.793 -0.042,1.199 0.198,2.323 0.697,3.369 0.1,0.197 0.199,0.373 0.302,0.526 0.464,0.811 1.048,1.347 1.767,1.608 0.993,0.42 2.582,1.035 4.721,1.839 2.01,0.778 3.619,1.413 4.78,1.906 1.057,0.445 2.836,1.064 5.361,1.86 0.213,0.072 0.427,0.145 0.638,0.217 -3.001,-3.129 6.357,-8.119 28.031,-14.971"
         id="path1917" />
      <path
         inkscape:connector-curvature="0"
         style="fill:#fedb00"
         d="m 903.594,430.668 c -0.626,0.129 -1.232,0.257 -1.814,0.387 -0.434,0.092 -0.843,0.163 -1.231,0.256 -0.478,0.112 -0.932,0.226 -1.388,0.36 -0.626,0.149 -1.233,0.321 -1.798,0.493 1.05,0.659 1.67,1.347 1.882,2.02 l 2.832,-0.651 -2.832,0.651 c 0.211,0.672 -0.005,1.372 -0.632,2.059 l 3.134,2.984 -3.134,-2.984 c -0.333,0.353 -0.751,0.681 -1.258,1.028 -0.548,0.367 -1.115,0.626 -1.724,0.798 l 0.695,4.015 -0.695,-4.015 c -1.365,0.38 -2.905,0.283 -4.603,-0.312 l -1.771,3.434 1.771,-3.434 c -1.206,-0.429 -2.512,-1.097 -3.875,-2.004 -0.499,0.177 -1.366,0.488 -2.564,0.918 -0.716,0.255 -1.542,0.568 -2.477,0.901 0.218,0.501 0.479,1.003 0.762,1.508 2.876,4.818 7.223,6.903 13.017,6.228 2.648,-0.229 4.998,-1.154 7.05,-2.755 4.939,-3.839 5.163,-7.8 0.653,-11.885"
         id="path1919" />
      <path
         inkscape:connector-curvature="0"
         style="fill:#fedb00"
         d="m 899.244,434.184 c -0.212,-0.673 -0.832,-1.36 -1.882,-2.02 -0.542,0.153 -1.039,0.308 -1.521,0.483 -3.583,1.288 -6.341,2.266 -8.253,2.929 -0.087,0.039 -0.24,0.098 -0.436,0.176 1.363,0.907 2.669,1.575 3.875,2.004 1.697,0.596 3.237,0.692 4.603,0.312 0.608,-0.172 1.176,-0.431 1.724,-0.798 0.507,-0.348 0.925,-0.676 1.258,-1.028 0.627,-0.686 0.843,-1.387 0.632,-2.058"
         id="path1921" />
      <path
         inkscape:connector-curvature="0"
         style="fill:#fedb00"
         d="m 880.434,447.445 c -0.719,-0.262 -1.303,-0.798 -1.765,-1.608 -0.734,0.125 -1.267,0.62 -1.598,1.446 -0.26,0.697 -0.397,1.573 -0.438,2.666 -0.044,1.265 0.094,2.256 0.393,2.932 0.334,0.805 0.997,1.516 1.982,2.149 1.513,0.935 5.77,2.5 12.77,4.72 0.913,0.29 1.783,0.557 2.611,0.821 -1.487,-4.107 -0.973,-6.534 1.544,-7.304 -0.211,-0.072 -0.425,-0.145 -0.638,-0.217 -2.523,-0.796 -4.305,-1.415 -5.361,-1.86 -1.161,-0.493 -2.771,-1.128 -4.78,-1.906 -2.138,-0.804 -3.727,-1.419 -4.72,-1.839"
         id="path1923" />
      <path
         inkscape:connector-curvature="0"
         style="fill:#e83827"
         d="m 907.391,456.868 0.025,-0.129 c -1.934,-0.498 -3.569,-0.963 -4.907,-1.373 -0.062,-0.024 -2.27,-0.725 -6.575,-2.099 -2.517,0.77 -3.031,3.196 -1.544,7.304 5.346,1.689 8.592,2.684 9.739,3.003 1.254,0.346 2.467,0.623 3.617,0.856 -1.435,-2.431 -1.541,-4.945 -0.355,-7.562"
         id="path1925" />
      <path
         inkscape:connector-curvature="0"
         style="fill:none;stroke:#e83927;stroke-width:1.71500003;stroke-linecap:round;stroke-linejoin:round;stroke-miterlimit:10"
         d="m 895.631,438.068 c -1.365,0.38 -2.905,0.283 -4.603,-0.312 m 4.603,0.312 c 0.608,-0.172 1.176,-0.431 1.724,-0.798 0.507,-0.348 0.925,-0.676 1.258,-1.028 0.627,-0.687 0.843,-1.387 0.632,-2.059 m -17.133,3.388 c 0.218,0.501 0.479,1.003 0.762,1.508 2.876,4.818 7.223,6.903 13.017,6.228 2.648,-0.229 4.998,-1.154 7.05,-2.755 4.939,-3.838 5.163,-7.799 0.653,-11.884 m -4.35,3.516 2.832,-0.651 m -5.75,8.55 -0.695,-4.015 m 2.981,-1.826 3.134,2.984 m -12.489,1.963 1.771,-3.434 c -1.206,-0.429 -2.512,-1.097 -3.875,-2.004 m 12.091,-1.567 c -0.212,-0.673 -0.832,-1.36 -1.882,-2.02"
         id="path1927" />
      <path
         inkscape:connector-curvature="0"
         style="fill:none;stroke:#003c90;stroke-width:1.71500003;stroke-linecap:round;stroke-linejoin:round;stroke-miterlimit:10"
         d="m 878.669,445.837 c -0.734,0.125 -1.267,0.62 -1.598,1.446 -0.26,0.697 -0.397,1.573 -0.438,2.666 -0.044,1.265 0.094,2.256 0.393,2.932 0.334,0.805 0.997,1.516 1.982,2.149 1.513,0.935 5.77,2.5 12.77,4.72 0.913,0.29 1.783,0.557 2.611,0.821 5.346,1.689 8.592,2.684 9.739,3.003 1.254,0.346 2.467,0.623 3.617,0.856 2.024,0.394 3.86,0.63 5.512,0.688 0.192,0.007 0.407,-0.007 0.688,-0.062 0.692,-0.148 1.671,-0.5 2.912,-1.057 0.917,-0.418 2.269,-1.036 4.057,-1.873 0.066,-0.041 0.154,-0.081 0.241,-0.12 0.867,-0.291 1.735,-0.604 2.583,-0.896 0.588,-0.216 1.196,-0.453 1.782,-0.668 0.045,-0.02 0.111,-0.06 0.175,-0.079 0.913,-0.333 1.826,-0.688 2.742,-1.062 1.675,-0.691 3.331,-1.405 5.01,-2.161 0.195,-0.101 0.414,-0.179 0.61,-0.278 2.621,-1.325 4.016,-3.162 4.205,-5.495 0.186,-2.203 -0.623,-4.227 -2.381,-6.09 -0.271,-0.267 -0.541,-0.534 -0.811,-0.778 -2.35,-2.079 -4.953,-3.674 -7.79,-4.823 -1.14,-0.47 -2.24,-0.938 -3.316,-1.383 -1.629,-0.681 -3.172,-1.356 -4.672,-2.011 -2.536,-1.075 -5.073,-2.131 -7.61,-3.185 -1.206,-0.493 -2.413,-0.943 -3.665,-1.331 -0.149,-0.047 -0.318,-0.097 -0.466,-0.146 -1.21,-0.386 -2.42,-0.728 -3.634,-1.007 -0.109,0.018 -0.216,0.036 -0.324,0.053 -0.626,0.129 -1.232,0.257 -1.814,0.387 -0.434,0.092 -0.843,0.163 -1.231,0.256 -0.478,0.112 -0.932,0.226 -1.388,0.36 -0.626,0.149 -1.233,0.321 -1.798,0.493 -0.542,0.153 -1.039,0.308 -1.521,0.483 -3.583,1.288 -6.341,2.266 -8.253,2.929 -0.087,0.039 -0.24,0.098 -0.436,0.176 -0.499,0.177 -1.366,0.488 -2.564,0.918 -0.716,0.255 -1.542,0.568 -2.477,0.901 -0.564,0.193 -1.174,0.409 -1.804,0.645 -0.78,0.271 -1.372,0.614 -1.775,1.052 -0.109,0.104 -0.179,0.209 -0.246,0.313 -0.271,0.397 -0.462,0.906 -0.57,1.567 -0.03,0.256 -0.039,0.513 -0.049,0.793 -0.042,1.199 0.198,2.323 0.697,3.369 0.101,0.2 0.201,0.376 0.305,0.529 z m 0,0 c 0.462,0.811 1.046,1.347 1.765,1.608 0.993,0.42 2.582,1.035 4.721,1.839 2.01,0.778 3.619,1.413 4.78,1.906 1.057,0.445 2.838,1.064 5.361,1.86 0.213,0.072 0.427,0.145 0.638,0.217 4.306,1.374 6.513,2.074 6.575,2.099 1.338,0.41 2.974,0.875 4.907,1.373 l 0.022,0.001 c 0.191,0.05 0.361,0.1 0.554,0.147 1.463,0.459 2.192,1.064 2.166,1.815 -0.005,0.128 -0.028,0.213 -0.096,0.273 -0.11,0.125 -0.485,0.413 -1.125,0.885"
         id="path1929" />
      <path
         inkscape:connector-curvature="0"
         style="fill:#ffffff"
         d="m 937.938,439.299 c 0.316,-2.188 -0.37,-4.256 -2.013,-6.223 -0.253,-0.282 -0.506,-0.566 -0.763,-0.826 -2.222,-2.215 -4.725,-3.963 -7.487,-5.281 -1.111,-0.536 -2.181,-1.07 -3.23,-1.578 -22.049,5.545 -31.69,9.968 -28.881,13.273 4.216,1.63 6.379,2.46 6.439,2.487 1.31,0.493 2.915,1.054 4.817,1.665 l 0.021,0.002 -0.055,0.124 c -1.342,2.545 -1.387,5.061 -0.099,7.574 1.998,0.514 3.818,0.859 5.463,1.016 0.189,0.019 0.406,0.017 0.689,-0.02 0.699,-0.106 1.696,-0.398 2.971,-0.881 0.939,-0.362 2.326,-0.898 4.162,-1.627 0.067,-0.037 0.158,-0.072 0.246,-0.107 0.887,-0.238 1.771,-0.498 2.635,-0.739 0.601,-0.179 1.222,-0.379 1.819,-0.559 0.047,-0.019 0.113,-0.054 0.179,-0.068 0.932,-0.277 1.864,-0.577 2.8,-0.897 1.714,-0.591 3.412,-1.204 5.132,-1.859 0.203,-0.089 0.424,-0.152 0.628,-0.242 2.696,-1.164 4.197,-2.918 4.527,-5.234"
         id="path1931" />
      <path
         inkscape:connector-curvature="0"
         style="fill:#0076bf"
         d="m 924.444,425.391 c -1.586,-0.776 -3.085,-1.545 -4.543,-2.285 -2.468,-1.227 -4.938,-2.431 -7.408,-3.637 -1.176,-0.563 -2.353,-1.085 -3.581,-1.548 -0.143,-0.057 -0.312,-0.116 -0.457,-0.173 -1.183,-0.457 -2.371,-0.872 -3.565,-1.222 -0.109,0.01 -0.219,0.021 -0.327,0.031 4.26,4.349 3.799,8.29 -1.364,11.827 -2.144,1.475 -4.544,2.258 -7.2,2.329 -5.828,0.327 -10.04,-2.014 -12.625,-6.998 -0.252,-0.52 -0.483,-1.037 -0.67,-1.551 -0.575,0.161 -1.196,0.338 -1.84,0.535 -0.797,0.226 -1.408,0.534 -1.834,0.945 -0.117,0.098 -0.191,0.198 -0.266,0.298 -0.295,0.382 -0.514,0.878 -0.664,1.53 -0.046,0.255 -0.068,0.512 -0.096,0.789 -0.114,1.194 0.059,2.331 0.495,3.407 0.087,0.202 0.179,0.383 0.27,0.542 0.415,0.837 0.965,1.406 1.669,1.71 0.966,0.48 2.513,1.188 4.602,2.12 1.961,0.897 3.528,1.627 4.659,2.188 1.027,0.509 2.769,1.232 5.241,2.18 0.208,0.084 0.416,0.169 0.624,0.254 -2.81,-3.304 6.832,-7.726 28.88,-13.271"
         id="path1933" />
      <path
         inkscape:connector-curvature="0"
         style="fill:#fedb00"
         d="m 904.562,416.558 c -0.634,0.092 -1.245,0.184 -1.836,0.277 -0.437,0.066 -0.852,0.114 -1.245,0.185 -0.482,0.082 -0.94,0.168 -1.404,0.275 -0.637,0.11 -1.252,0.246 -1.826,0.385 1.009,0.722 1.587,1.444 1.759,2.129 l 2.867,-0.481 -2.867,0.481 c 0.172,0.684 -0.088,1.369 -0.753,2.017 l 2.95,3.169 -2.95,-3.169 c -0.354,0.332 -0.794,0.636 -1.319,0.952 -0.57,0.333 -1.15,0.559 -1.767,0.693 l 0.454,4.049 -0.454,-4.049 c -1.386,0.299 -2.918,0.108 -4.576,-0.587 l -1.974,3.323 1.974,-3.323 c -1.179,-0.501 -2.444,-1.246 -3.75,-2.232 -0.509,0.146 -1.396,0.406 -2.615,0.764 -0.731,0.21 -1.573,0.474 -2.526,0.75 0.187,0.514 0.418,1.031 0.67,1.551 2.585,4.984 6.797,7.325 12.625,6.998 2.656,-0.071 5.057,-0.854 7.2,-2.329 5.162,-3.538 5.623,-7.48 1.363,-11.828"
         id="path1935" />
      <path
         inkscape:connector-curvature="0"
         style="fill:#fedb00"
         d="m 900.01,419.809 c -0.172,-0.685 -0.75,-1.407 -1.759,-2.129 -0.548,0.12 -1.056,0.243 -1.544,0.393 -3.656,1.073 -6.468,1.881 -8.418,2.429 -0.089,0.035 -0.245,0.084 -0.444,0.15 1.306,0.986 2.571,1.731 3.75,2.232 1.658,0.695 3.19,0.886 4.576,0.587 0.616,-0.135 1.196,-0.36 1.767,-0.693 0.525,-0.316 0.965,-0.62 1.319,-0.952 0.665,-0.648 0.925,-1.334 0.753,-2.017"
         id="path1937" />
      <path
         inkscape:connector-curvature="0"
         style="fill:#fedb00"
         d="m 880.438,431.922 c -0.704,-0.304 -1.254,-0.873 -1.669,-1.71 -0.739,0.081 -1.301,0.544 -1.68,1.349 -0.302,0.683 -0.492,1.548 -0.596,2.636 -0.119,1.259 -0.044,2.258 0.215,2.949 0.288,0.824 0.906,1.573 1.851,2.266 1.455,1.021 5.611,2.84 12.469,5.477 0.893,0.344 1.745,0.662 2.556,0.977 -1.236,-4.19 -0.578,-6.583 1.98,-7.2 -0.208,-0.085 -0.416,-0.17 -0.624,-0.254 -2.473,-0.947 -4.214,-1.671 -5.241,-2.18 -1.131,-0.562 -2.698,-1.291 -4.659,-2.188 -2.09,-0.934 -3.637,-1.642 -4.602,-2.122"
         id="path1939" />
      <path
         inkscape:connector-curvature="0"
         style="fill:#e83827"
         d="m 906.787,442.942 0.033,-0.126 c -1.902,-0.611 -3.508,-1.172 -4.817,-1.665 -0.061,-0.027 -2.224,-0.857 -6.439,-2.487 -2.559,0.617 -3.217,3.01 -1.98,7.2 5.237,2.007 8.42,3.192 9.545,3.58 1.232,0.42 2.428,0.771 3.561,1.072 -1.29,-2.513 -1.245,-5.029 0.097,-7.574"
         id="path1941" />
      <path
         inkscape:connector-curvature="0"
         style="fill:none;stroke:#e83927;stroke-width:1.71599996;stroke-linecap:round;stroke-linejoin:round;stroke-miterlimit:10"
         d="m 896.171,423.471 c -1.386,0.299 -2.918,0.108 -4.576,-0.587 m 4.576,0.587 c 0.616,-0.135 1.196,-0.36 1.767,-0.693 0.525,-0.316 0.965,-0.62 1.319,-0.952 0.665,-0.647 0.925,-1.333 0.753,-2.017 m -17.307,2.356 c 0.187,0.514 0.418,1.031 0.67,1.551 2.585,4.984 6.797,7.325 12.625,6.998 2.656,-0.071 5.057,-0.854 7.2,-2.329 5.163,-3.537 5.624,-7.479 1.364,-11.827 m -4.552,3.251 2.867,-0.481 m -6.252,8.192 -0.454,-4.049 m 3.086,-1.646 2.95,3.169 m -12.586,1.213 1.974,-3.323 c -1.179,-0.501 -2.444,-1.246 -3.75,-2.232 m 12.165,-0.843 c -0.172,-0.685 -0.75,-1.407 -1.759,-2.129"
         id="path1943" />
      <path
         inkscape:connector-curvature="0"
         style="fill:none;stroke:#003c90;stroke-width:1.71599996;stroke-linecap:round;stroke-linejoin:round;stroke-miterlimit:10"
         d="m 878.769,430.212 c -0.739,0.081 -1.301,0.544 -1.68,1.349 -0.302,0.683 -0.492,1.548 -0.596,2.636 -0.119,1.259 -0.044,2.258 0.215,2.949 0.288,0.824 0.906,1.573 1.851,2.266 1.455,1.021 5.611,2.84 12.469,5.477 0.893,0.344 1.745,0.662 2.556,0.977 5.237,2.007 8.42,3.192 9.545,3.58 1.232,0.42 2.428,0.771 3.561,1.072 1.998,0.514 3.818,0.859 5.463,1.016 0.189,0.019 0.406,0.019 0.689,-0.02 0.699,-0.106 1.696,-0.398 2.971,-0.881 0.939,-0.362 2.326,-0.898 4.162,-1.627 0.067,-0.037 0.158,-0.072 0.246,-0.107 0.887,-0.238 1.771,-0.498 2.635,-0.739 0.601,-0.179 1.222,-0.379 1.819,-0.559 0.047,-0.019 0.113,-0.054 0.179,-0.068 0.932,-0.277 1.864,-0.577 2.8,-0.897 1.714,-0.591 3.412,-1.204 5.132,-1.859 0.203,-0.089 0.424,-0.152 0.628,-0.242 2.695,-1.163 4.196,-2.917 4.525,-5.231 0.316,-2.19 -0.37,-4.258 -2.013,-6.225 -0.253,-0.282 -0.506,-0.566 -0.763,-0.826 -2.222,-2.215 -4.725,-3.963 -7.487,-5.281 -1.111,-0.536 -2.181,-1.07 -3.23,-1.578 -1.586,-0.776 -3.085,-1.545 -4.543,-2.285 -2.468,-1.227 -4.938,-2.431 -7.408,-3.637 -1.176,-0.563 -2.353,-1.085 -3.581,-1.548 -0.143,-0.057 -0.312,-0.116 -0.457,-0.173 -1.183,-0.457 -2.371,-0.872 -3.565,-1.222 -0.109,0.01 -0.219,0.021 -0.327,0.031 -0.634,0.092 -1.245,0.184 -1.836,0.277 -0.437,0.066 -0.852,0.114 -1.245,0.185 -0.482,0.082 -0.94,0.168 -1.404,0.275 -0.637,0.11 -1.252,0.246 -1.826,0.385 -0.548,0.12 -1.056,0.243 -1.544,0.393 -3.656,1.073 -6.468,1.881 -8.418,2.429 -0.089,0.035 -0.245,0.084 -0.444,0.15 -0.509,0.146 -1.396,0.406 -2.615,0.764 -0.731,0.21 -1.573,0.474 -2.526,0.75 -0.575,0.161 -1.196,0.338 -1.84,0.535 -0.797,0.226 -1.408,0.534 -1.834,0.945 -0.117,0.098 -0.191,0.198 -0.266,0.298 -0.295,0.382 -0.514,0.878 -0.664,1.53 -0.046,0.255 -0.068,0.512 -0.097,0.789 -0.113,1.194 0.06,2.331 0.496,3.407 0.084,0.2 0.176,0.381 0.267,0.54 z m 0,0 c 0.415,0.837 0.965,1.406 1.669,1.71 0.966,0.48 2.513,1.188 4.602,2.12 1.961,0.897 3.528,1.627 4.659,2.188 1.027,0.509 2.769,1.232 5.241,2.18 0.208,0.084 0.416,0.169 0.624,0.254 4.216,1.63 6.379,2.46 6.439,2.487 1.31,0.493 2.915,1.054 4.817,1.665 l 0.021,0.002 c 0.187,0.062 0.354,0.121 0.542,0.182 1.436,0.547 2.128,1.194 2.056,1.94 -0.011,0.128 -0.042,0.211 -0.112,0.27 -0.118,0.118 -0.51,0.382 -1.176,0.814"
         id="path1945" />
      <path
         inkscape:connector-curvature="0"
         style="fill:#ffffff"
         d="m 939.742,426.14 c 0.317,-2.187 -0.369,-4.255 -2.013,-6.222 -0.252,-0.282 -0.505,-0.566 -0.762,-0.828 -2.222,-2.214 -4.726,-3.961 -7.487,-5.279 -1.113,-0.536 -2.183,-1.069 -3.232,-1.578 -22.047,5.545 -31.688,9.968 -28.879,13.271 4.218,1.632 6.38,2.461 6.439,2.489 1.311,0.49 2.916,1.052 4.818,1.665 l 0.022,0.002 -0.057,0.124 c -1.34,2.544 -1.388,5.06 -0.097,7.573 1.998,0.515 3.815,0.859 5.459,1.015 0.193,0.02 0.409,0.019 0.693,-0.021 0.697,-0.104 1.696,-0.396 2.97,-0.879 0.939,-0.362 2.326,-0.897 4.161,-1.628 0.069,-0.037 0.157,-0.07 0.248,-0.106 0.885,-0.239 1.771,-0.499 2.633,-0.739 0.598,-0.18 1.221,-0.378 1.821,-0.558 0.044,-0.019 0.11,-0.055 0.177,-0.07 0.931,-0.277 1.864,-0.576 2.801,-0.896 1.716,-0.59 3.41,-1.203 5.131,-1.858 0.201,-0.088 0.423,-0.152 0.627,-0.24 2.697,-1.167 4.199,-2.92 4.527,-5.237"
         id="path1947" />
      <path
         inkscape:connector-curvature="0"
         style="fill:#0076bf"
         d="m 926.248,412.232 c -1.583,-0.776 -3.083,-1.543 -4.543,-2.286 -2.465,-1.226 -4.937,-2.43 -7.405,-3.636 -1.175,-0.564 -2.354,-1.086 -3.58,-1.548 -0.146,-0.057 -0.312,-0.115 -0.458,-0.172 -1.182,-0.458 -2.372,-0.873 -3.566,-1.224 -0.108,0.012 -0.217,0.022 -0.324,0.034 4.259,4.347 3.796,8.288 -1.366,11.825 -2.145,1.475 -4.546,2.259 -7.2,2.328 -5.826,0.328 -10.041,-2.013 -12.625,-6.998 -0.252,-0.52 -0.48,-1.037 -0.669,-1.55 -0.576,0.16 -1.197,0.338 -1.838,0.536 -0.797,0.225 -1.409,0.533 -1.836,0.944 -0.116,0.098 -0.192,0.196 -0.267,0.298 -0.293,0.381 -0.514,0.878 -0.662,1.532 -0.046,0.253 -0.07,0.508 -0.097,0.787 -0.115,1.195 0.058,2.331 0.492,3.406 0.09,0.203 0.181,0.384 0.273,0.543 0.416,0.837 0.965,1.406 1.667,1.71 0.966,0.48 2.515,1.188 4.602,2.118 1.962,0.899 3.529,1.629 4.659,2.189 1.028,0.508 2.77,1.233 5.241,2.181 0.209,0.084 0.416,0.169 0.623,0.252 -2.808,-3.301 6.832,-7.724 28.879,-13.269"
         id="path1949" />
      <path
         inkscape:connector-curvature="0"
         style="fill:#fedb00"
         d="m 906.371,403.401 c -0.636,0.09 -1.246,0.183 -1.836,0.276 -0.438,0.067 -0.853,0.113 -1.246,0.184 -0.481,0.083 -0.944,0.168 -1.405,0.275 -0.636,0.111 -1.252,0.247 -1.825,0.386 1.01,0.722 1.585,1.442 1.758,2.128 l 2.866,-0.479 -2.866,0.479 c 0.171,0.684 -0.088,1.371 -0.752,2.018 l 2.95,3.168 -2.95,-3.168 c -0.355,0.333 -0.794,0.635 -1.32,0.951 -0.569,0.333 -1.15,0.559 -1.768,0.691 l 0.456,4.051 -0.456,-4.051 c -1.385,0.301 -2.917,0.111 -4.574,-0.585 l -1.975,3.323 1.975,-3.323 c -1.18,-0.5 -2.445,-1.246 -3.751,-2.232 -0.509,0.146 -1.396,0.406 -2.614,0.763 -0.731,0.213 -1.574,0.476 -2.526,0.751 0.187,0.513 0.417,1.03 0.669,1.55 2.584,4.985 6.799,7.326 12.625,6.998 2.654,-0.069 5.056,-0.854 7.2,-2.328 5.161,-3.538 5.624,-7.479 1.365,-11.826"
         id="path1951" />
      <path
         inkscape:connector-curvature="0"
         style="fill:#fedb00"
         d="m 901.816,406.65 c -0.173,-0.686 -0.748,-1.406 -1.758,-2.128 -0.551,0.12 -1.057,0.244 -1.544,0.392 -3.657,1.073 -6.47,1.882 -8.418,2.429 -0.089,0.035 -0.244,0.085 -0.445,0.15 1.306,0.986 2.571,1.732 3.751,2.232 1.657,0.696 3.189,0.886 4.574,0.585 0.617,-0.133 1.198,-0.358 1.768,-0.691 0.526,-0.316 0.965,-0.618 1.32,-0.951 0.665,-0.647 0.923,-1.334 0.752,-2.018"
         id="path1953" />
      <path
         inkscape:connector-curvature="0"
         style="fill:#fedb00"
         d="m 882.244,418.764 c -0.702,-0.304 -1.251,-0.873 -1.667,-1.71 -0.741,0.081 -1.303,0.544 -1.68,1.349 -0.303,0.68 -0.491,1.546 -0.598,2.636 -0.119,1.259 -0.043,2.257 0.215,2.949 0.289,0.823 0.906,1.573 1.852,2.266 1.454,1.021 5.61,2.84 12.468,5.474 0.894,0.347 1.746,0.663 2.556,0.979 -1.237,-4.188 -0.577,-6.583 1.979,-7.201 -0.207,-0.083 -0.414,-0.168 -0.623,-0.252 -2.472,-0.947 -4.213,-1.673 -5.241,-2.181 -1.13,-0.561 -2.698,-1.29 -4.659,-2.189 -2.087,-0.933 -3.636,-1.64 -4.602,-2.12"
         id="path1955" />
      <path
         inkscape:connector-curvature="0"
         style="fill:#e83827"
         d="m 908.593,429.784 0.034,-0.126 c -1.902,-0.613 -3.508,-1.175 -4.818,-1.665 -0.06,-0.028 -2.222,-0.857 -6.439,-2.489 -2.557,0.618 -3.217,3.013 -1.979,7.201 5.236,2.007 8.419,3.192 9.546,3.579 1.23,0.421 2.425,0.77 3.561,1.073 -1.293,-2.513 -1.245,-5.029 0.095,-7.573"
         id="path1957" />
      <path
         inkscape:connector-curvature="0"
         style="fill:none;stroke:#e83927;stroke-width:1.71500003;stroke-linecap:round;stroke-linejoin:round;stroke-miterlimit:10"
         d="m 897.977,410.311 c -1.385,0.301 -2.917,0.111 -4.574,-0.585 m 4.574,0.585 c 0.617,-0.133 1.198,-0.358 1.768,-0.691 0.526,-0.316 0.965,-0.618 1.32,-0.951 0.664,-0.646 0.923,-1.334 0.752,-2.018 m -17.306,2.356 c 0.187,0.513 0.417,1.03 0.669,1.55 2.584,4.985 6.799,7.326 12.625,6.998 2.654,-0.069 5.056,-0.854 7.2,-2.328 5.162,-3.537 5.625,-7.479 1.366,-11.825 m -4.555,3.248 2.866,-0.479 m -6.249,8.19 -0.456,-4.051 m 3.087,-1.642 2.95,3.168 m -12.586,1.213 1.975,-3.323 c -1.18,-0.5 -2.445,-1.246 -3.751,-2.232 m 12.164,-0.844 c -0.173,-0.686 -0.748,-1.406 -1.758,-2.128"
         id="path1959" />
      <path
         inkscape:connector-curvature="0"
         style="fill:none;stroke:#003c90;stroke-width:1.71500003;stroke-linecap:round;stroke-linejoin:round;stroke-miterlimit:10"
         d="m 880.577,417.054 c -0.741,0.081 -1.303,0.544 -1.68,1.349 -0.303,0.68 -0.491,1.546 -0.598,2.636 -0.119,1.259 -0.043,2.257 0.215,2.949 0.289,0.823 0.906,1.573 1.852,2.266 1.454,1.021 5.61,2.84 12.468,5.474 0.894,0.347 1.746,0.663 2.556,0.979 5.236,2.007 8.419,3.192 9.546,3.579 1.23,0.421 2.425,0.77 3.561,1.073 1.998,0.515 3.815,0.859 5.459,1.015 0.193,0.02 0.409,0.019 0.693,-0.021 0.697,-0.104 1.695,-0.396 2.97,-0.879 0.939,-0.362 2.326,-0.897 4.161,-1.628 0.069,-0.037 0.157,-0.07 0.248,-0.106 0.885,-0.239 1.771,-0.499 2.633,-0.739 0.598,-0.18 1.221,-0.378 1.821,-0.558 0.044,-0.019 0.11,-0.055 0.177,-0.07 0.931,-0.277 1.864,-0.576 2.801,-0.896 1.716,-0.59 3.41,-1.203 5.131,-1.858 0.201,-0.088 0.423,-0.152 0.625,-0.24 2.697,-1.166 4.199,-2.919 4.527,-5.236 0.317,-2.187 -0.369,-4.255 -2.013,-6.222 -0.252,-0.282 -0.505,-0.566 -0.762,-0.828 -2.222,-2.214 -4.726,-3.961 -7.487,-5.279 -1.113,-0.536 -2.183,-1.069 -3.232,-1.578 -1.586,-0.776 -3.083,-1.543 -4.543,-2.286 -2.465,-1.226 -4.937,-2.43 -7.407,-3.636 -1.173,-0.564 -2.352,-1.086 -3.578,-1.548 -0.146,-0.057 -0.312,-0.115 -0.458,-0.172 -1.182,-0.458 -2.372,-0.873 -3.566,-1.224 -0.108,0.012 -0.217,0.022 -0.324,0.034 -0.636,0.09 -1.246,0.183 -1.836,0.276 -0.438,0.067 -0.853,0.113 -1.246,0.184 -0.481,0.083 -0.944,0.168 -1.405,0.275 -0.636,0.111 -1.252,0.247 -1.825,0.386 -0.551,0.12 -1.057,0.244 -1.544,0.392 -3.657,1.073 -6.47,1.882 -8.418,2.429 -0.09,0.035 -0.244,0.085 -0.445,0.15 -0.509,0.146 -1.396,0.406 -2.614,0.763 -0.731,0.213 -1.574,0.476 -2.526,0.751 -0.576,0.16 -1.197,0.338 -1.838,0.536 -0.797,0.225 -1.409,0.533 -1.836,0.944 -0.116,0.098 -0.192,0.196 -0.267,0.298 -0.293,0.381 -0.514,0.878 -0.662,1.532 -0.046,0.253 -0.07,0.508 -0.097,0.787 -0.115,1.195 0.058,2.331 0.492,3.406 0.088,0.201 0.178,0.382 0.271,0.541 z m 0,0 c 0.416,0.837 0.965,1.406 1.667,1.71 0.966,0.48 2.515,1.188 4.602,2.118 1.961,0.899 3.529,1.629 4.659,2.189 1.028,0.508 2.77,1.233 5.241,2.181 0.209,0.084 0.416,0.169 0.623,0.252 4.218,1.632 6.38,2.461 6.439,2.489 1.311,0.49 2.916,1.052 4.818,1.665 l 0.022,0.002 c 0.186,0.062 0.354,0.12 0.541,0.181 1.435,0.546 2.126,1.194 2.056,1.941 -0.012,0.128 -0.041,0.211 -0.112,0.27 -0.118,0.118 -0.511,0.382 -1.176,0.813"
         id="path1961" />
      <path
         inkscape:connector-curvature="0"
         style="fill:#ffffff"
         d="m 942.912,410.943 c 0.313,-2.193 -0.372,-4.267 -2.02,-6.238 -0.253,-0.282 -0.508,-0.565 -0.763,-0.826 -2.229,-2.222 -4.739,-3.972 -7.505,-5.293 -1.114,-0.539 -2.187,-1.072 -3.24,-1.584 -22.096,5.559 -31.76,9.992 -28.945,13.304 4.228,1.633 6.395,2.466 6.455,2.494 1.313,0.492 2.922,1.055 4.828,1.669 l 0.021,0.001 -0.056,0.125 c -1.344,2.55 -1.389,5.071 -0.097,7.591 2.001,0.515 3.824,0.86 5.472,1.018 0.193,0.019 0.41,0.018 0.694,-0.02 0.701,-0.106 1.7,-0.399 2.977,-0.883 0.941,-0.362 2.331,-0.9 4.17,-1.631 0.07,-0.036 0.161,-0.072 0.249,-0.106 0.887,-0.239 1.776,-0.5 2.641,-0.741 0.6,-0.18 1.223,-0.38 1.822,-0.561 0.046,-0.017 0.114,-0.054 0.179,-0.069 0.936,-0.278 1.87,-0.577 2.807,-0.898 1.721,-0.591 3.419,-1.206 5.145,-1.862 0.203,-0.089 0.425,-0.155 0.625,-0.243 2.704,-1.169 4.209,-2.923 4.541,-5.247"
         id="path1963" />
      <path
         inkscape:connector-curvature="0"
         style="fill:#0076bf"
         d="m 929.385,397.002 c -1.587,-0.777 -3.09,-1.546 -4.552,-2.29 -2.475,-1.229 -4.949,-2.436 -7.426,-3.645 -1.175,-0.564 -2.357,-1.088 -3.587,-1.551 -0.145,-0.057 -0.312,-0.116 -0.457,-0.173 -1.188,-0.459 -2.379,-0.874 -3.576,-1.226 -0.108,0.011 -0.218,0.021 -0.328,0.033 4.271,4.357 3.807,8.309 -1.366,11.852 -2.148,1.479 -4.554,2.267 -7.218,2.334 -5.838,0.329 -10.062,-2.016 -12.651,-7.014 -0.253,-0.52 -0.483,-1.039 -0.673,-1.553 -0.577,0.16 -1.198,0.338 -1.844,0.537 -0.798,0.225 -1.411,0.534 -1.838,0.947 -0.116,0.096 -0.193,0.196 -0.266,0.298 -0.297,0.383 -0.516,0.879 -0.664,1.533 -0.047,0.256 -0.07,0.513 -0.096,0.791 -0.116,1.197 0.056,2.337 0.493,3.415 0.088,0.203 0.179,0.384 0.271,0.544 0.416,0.838 0.968,1.408 1.672,1.714 0.97,0.48 2.52,1.19 4.613,2.122 1.964,0.9 3.535,1.633 4.669,2.194 1.031,0.509 2.775,1.238 5.256,2.186 0.206,0.085 0.415,0.17 0.621,0.254 -2.813,-3.31 6.851,-7.743 28.947,-13.302"
         id="path1965" />
      <path
         inkscape:connector-curvature="0"
         style="fill:#fedb00"
         d="m 909.459,388.151 c -0.633,0.09 -1.246,0.184 -1.838,0.277 -0.438,0.067 -0.853,0.113 -1.25,0.185 -0.482,0.082 -0.942,0.168 -1.406,0.274 -0.638,0.113 -1.254,0.248 -1.83,0.388 1.012,0.723 1.589,1.446 1.762,2.132 l 2.875,-0.48 -2.875,0.48 c 0.172,0.686 -0.087,1.374 -0.754,2.023 l 2.956,3.174 -2.956,-3.174 c -0.355,0.332 -0.795,0.636 -1.321,0.953 -0.572,0.334 -1.153,0.56 -1.772,0.695 l 0.456,4.059 -0.456,-4.059 c -1.387,0.299 -2.924,0.108 -4.585,-0.588 l -1.979,3.329 1.979,-3.329 c -1.183,-0.503 -2.451,-1.25 -3.759,-2.237 -0.51,0.146 -1.399,0.407 -2.621,0.766 -0.733,0.21 -1.579,0.474 -2.533,0.751 0.189,0.514 0.42,1.033 0.673,1.553 2.59,4.998 6.813,7.343 12.651,7.014 2.664,-0.067 5.069,-0.855 7.218,-2.334 5.172,-3.543 5.635,-7.494 1.365,-11.852"
         id="path1967" />
      <path
         inkscape:connector-curvature="0"
         style="fill:#fedb00"
         d="m 904.896,391.407 c -0.173,-0.686 -0.75,-1.409 -1.762,-2.132 -0.55,0.121 -1.06,0.245 -1.548,0.392 -3.665,1.076 -6.484,1.886 -8.436,2.435 -0.09,0.034 -0.246,0.084 -0.446,0.152 1.308,0.987 2.576,1.734 3.759,2.237 1.661,0.696 3.198,0.887 4.585,0.588 0.619,-0.136 1.2,-0.361 1.772,-0.695 0.526,-0.317 0.966,-0.621 1.321,-0.953 0.669,-0.65 0.927,-1.338 0.755,-2.024"
         id="path1969" />
      <path
         inkscape:connector-curvature="0"
         style="fill:#fedb00"
         d="m 885.28,403.55 c -0.704,-0.306 -1.256,-0.876 -1.672,-1.714 -0.741,0.081 -1.303,0.545 -1.682,1.352 -0.303,0.684 -0.496,1.55 -0.599,2.642 -0.12,1.261 -0.044,2.262 0.216,2.956 0.286,0.826 0.906,1.576 1.855,2.271 1.457,1.023 5.622,2.846 12.494,5.487 0.896,0.344 1.75,0.664 2.563,0.979 -1.24,-4.199 -0.58,-6.598 1.982,-7.217 -0.206,-0.084 -0.415,-0.169 -0.621,-0.254 -2.48,-0.947 -4.225,-1.677 -5.256,-2.186 -1.134,-0.562 -2.705,-1.294 -4.671,-2.194 -2.089,-0.932 -3.639,-1.642 -4.609,-2.122"
         id="path1971" />
      <path
         inkscape:connector-curvature="0"
         style="fill:#e83827"
         d="m 911.688,414.595 0.034,-0.126 c -1.906,-0.614 -3.515,-1.177 -4.828,-1.669 -0.061,-0.028 -2.228,-0.861 -6.455,-2.494 -2.562,0.619 -3.223,3.018 -1.982,7.217 5.248,2.011 8.439,3.201 9.567,3.589 1.234,0.419 2.431,0.771 3.567,1.074 -1.291,-2.52 -1.246,-5.041 0.097,-7.591"
         id="path1973" />
      <path
         inkscape:connector-curvature="0"
         style="fill:none;stroke:#e83927;stroke-width:1.71899998;stroke-linecap:round;stroke-linejoin:round;stroke-miterlimit:10"
         d="m 901.049,395.079 c -1.387,0.299 -2.924,0.108 -4.585,-0.588 m 4.585,0.588 c 0.619,-0.136 1.2,-0.361 1.772,-0.695 0.526,-0.317 0.966,-0.621 1.321,-0.953 0.667,-0.649 0.926,-1.338 0.754,-2.023 m -17.345,2.363 c 0.189,0.514 0.42,1.032 0.673,1.553 2.59,4.997 6.813,7.343 12.651,7.014 2.664,-0.067 5.069,-0.855 7.218,-2.334 5.173,-3.543 5.637,-7.494 1.366,-11.852 m -4.563,3.255 2.875,-0.48 m -6.266,8.211 -0.456,-4.059 m 3.094,-1.648 2.956,3.174 m -12.614,1.215 1.979,-3.329 c -1.183,-0.503 -2.451,-1.25 -3.759,-2.237 m 12.191,-0.847 c -0.173,-0.686 -0.75,-1.409 -1.762,-2.132"
         id="path1975" />
      <path
         inkscape:connector-curvature="0"
         style="fill:none;stroke:#003c90;stroke-width:1.71899998;stroke-linecap:round;stroke-linejoin:round;stroke-miterlimit:10"
         d="m 883.608,401.836 c -0.741,0.081 -1.303,0.545 -1.682,1.352 -0.303,0.684 -0.496,1.55 -0.599,2.642 -0.12,1.261 -0.044,2.262 0.216,2.956 0.286,0.826 0.906,1.576 1.855,2.271 1.457,1.023 5.622,2.846 12.494,5.487 0.896,0.344 1.75,0.664 2.563,0.979 5.248,2.011 8.439,3.201 9.567,3.589 1.234,0.419 2.431,0.771 3.567,1.074 2.001,0.515 3.824,0.86 5.472,1.018 0.193,0.019 0.41,0.018 0.694,-0.02 0.701,-0.106 1.7,-0.399 2.977,-0.883 0.941,-0.362 2.331,-0.9 4.17,-1.631 0.07,-0.036 0.161,-0.072 0.249,-0.106 0.887,-0.239 1.774,-0.5 2.641,-0.741 0.6,-0.18 1.223,-0.38 1.822,-0.561 0.046,-0.017 0.114,-0.054 0.179,-0.069 0.936,-0.278 1.87,-0.577 2.807,-0.898 1.721,-0.591 3.419,-1.206 5.145,-1.862 0.203,-0.089 0.425,-0.155 0.625,-0.243 2.704,-1.167 4.209,-2.922 4.541,-5.245 0.313,-2.193 -0.372,-4.267 -2.02,-6.238 -0.253,-0.282 -0.508,-0.565 -0.763,-0.826 -2.229,-2.222 -4.739,-3.972 -7.505,-5.293 -1.114,-0.539 -2.187,-1.072 -3.24,-1.584 -1.587,-0.777 -3.09,-1.546 -4.552,-2.29 -2.475,-1.229 -4.949,-2.436 -7.426,-3.645 -1.175,-0.564 -2.357,-1.088 -3.587,-1.551 -0.145,-0.057 -0.312,-0.116 -0.457,-0.173 -1.188,-0.459 -2.379,-0.874 -3.576,-1.226 -0.108,0.011 -0.218,0.021 -0.328,0.033 -0.633,0.09 -1.246,0.184 -1.838,0.277 -0.438,0.067 -0.853,0.113 -1.25,0.185 -0.482,0.082 -0.942,0.168 -1.406,0.274 -0.638,0.113 -1.254,0.248 -1.83,0.388 -0.55,0.119 -1.06,0.245 -1.548,0.392 -3.665,1.076 -6.484,1.886 -8.436,2.435 -0.09,0.034 -0.246,0.084 -0.446,0.152 -0.51,0.146 -1.399,0.407 -2.621,0.766 -0.733,0.21 -1.579,0.474 -2.533,0.751 -0.577,0.16 -1.198,0.338 -1.844,0.537 -0.798,0.225 -1.411,0.534 -1.838,0.947 -0.116,0.096 -0.193,0.196 -0.266,0.298 -0.297,0.383 -0.516,0.879 -0.664,1.533 -0.047,0.256 -0.07,0.513 -0.096,0.791 -0.116,1.197 0.056,2.337 0.493,3.414 0.091,0.203 0.182,0.384 0.274,0.544 z m 0,0 c 0.416,0.838 0.968,1.408 1.672,1.714 0.97,0.48 2.52,1.19 4.611,2.122 1.966,0.9 3.537,1.633 4.671,2.194 1.031,0.509 2.775,1.238 5.256,2.186 0.206,0.085 0.415,0.17 0.621,0.254 4.228,1.633 6.395,2.466 6.455,2.494 1.313,0.492 2.922,1.055 4.828,1.669 l 0.021,0.001 c 0.188,0.063 0.356,0.122 0.545,0.183 1.437,0.547 2.13,1.196 2.06,1.945 -0.014,0.128 -0.042,0.211 -0.112,0.271 -0.119,0.118 -0.513,0.382 -1.179,0.814"
         id="path1977" />
      <path
         inkscape:connector-curvature="0"
         style="fill:#e83434"
         d="m 875.657,433.558 1.065,0.406 c 2.039,-2.107 4.104,-3.768 6.184,-4.982 2.055,-1.23 4.105,-1.837 6.158,-1.824 2.012,0.028 3.12,0.919 3.32,2.673 -0.066,1.864 -1.134,3.484 -3.2,4.877 -0.2,0.147 -0.432,0.282 -0.659,0.432 -0.123,0.04 -0.23,0.107 -0.325,0.176 -0.055,0.04 -0.107,0.066 -0.148,0.081 6.954,0.499 11.424,2.079 13.382,4.752 0.958,2.526 0.121,3.957 -2.54,4.308 -1.687,0.23 -3.834,0.163 -6.438,-0.202 0.351,0.256 0.606,0.445 0.769,0.554 1.417,1.066 2.781,2.188 4.091,3.376 1.444,1.337 1.998,2.93 1.688,4.753 -0.215,1.228 -0.931,1.916 -2.146,2.04 -1.796,0.229 -3.536,0 -5.213,-0.703 -1.296,-0.526 -2.74,-1.432 -4.347,-2.702 -0.364,-0.202 -0.729,-0.418 -1.122,-0.635 1.797,3.944 1.661,6.834 -0.403,8.683 -2.81,0.824 -5.849,-1.862 -9.129,-8.086 -1.918,-0.718 -3.592,-2.202 -5.011,-4.431 -0.135,0.433 -0.27,0.864 -0.392,1.311 1.338,1.903 2.892,3.24 4.66,3.983 3.551,6.589 6.94,9.331 10.181,8.223 0.161,-0.04 0.298,-0.12 0.42,-0.216 1.862,-1.592 2.509,-3.7 1.943,-6.332 0.526,0.417 1.445,0.824 2.782,1.187 1.85,0.77 3.767,1.026 5.726,0.798 1.754,-0.204 2.781,-1.175 3.064,-2.917 l 0.014,-0.027 c 0.364,-2.175 -0.297,-4.077 -2.013,-5.685 -0.675,-0.621 -1.351,-1.216 -2.039,-1.798 1.148,0.043 2.159,0 3.038,-0.12 1.757,-0.256 2.891,-0.863 3.403,-1.835 0.635,-0.946 0.621,-2.243 -0.027,-3.903 -0.026,-0.095 -0.067,-0.161 -0.122,-0.229 -1.768,-2.538 -5.521,-4.173 -11.273,-4.915 1.58,-1.391 2.389,-2.971 2.43,-4.74 0.015,-0.055 0.015,-0.107 0,-0.161 -0.229,-2.39 -1.688,-3.593 -4.361,-3.62 -2.2,-0.026 -4.431,0.621 -6.685,1.957 -1.985,1.149 -3.956,2.715 -5.929,4.688 l -0.891,-0.337 c 0.014,0.122 0.027,0.242 0.041,0.377 0.027,0.252 0.04,0.51 0.054,0.765"
         id="path1979" />
      <path
         inkscape:connector-curvature="0"
         style="fill:#e83434"
         d="m 876.723,433.964 -1.065,-0.406 c 0.011,0.366 0,0.742 -0.027,1.107 l 0.7,0.283 c 0.218,0.081 0.42,0.095 0.622,0.041 0.202,-0.041 0.378,-0.135 0.526,-0.282 1.972,-2.04 3.955,-3.646 5.969,-4.822 1.892,-1.12 3.754,-1.674 5.59,-1.66 1.324,0.013 2.093,0.566 2.296,1.674 -0.055,0.527 -0.203,1.04 -0.445,1.539 -0.121,0.203 -0.244,0.406 -0.379,0.608 -0.229,0.364 -0.513,0.688 -0.837,0.999 -0.581,0.581 -1.229,1.12 -1.958,1.594 -0.526,0.364 -1.055,0.769 -1.552,1.188 0.297,0.109 0.565,0.202 0.823,0.283 0.337,-0.256 0.702,-0.485 1.066,-0.714 0.041,-0.015 0.094,-0.041 0.148,-0.081 0.095,-0.068 0.202,-0.136 0.325,-0.176 0.228,-0.149 0.459,-0.284 0.659,-0.432 2.066,-1.393 3.134,-3.013 3.202,-4.877 -0.202,-1.754 -1.311,-2.645 -3.322,-2.673 -2.053,-0.013 -4.104,0.594 -6.158,1.824 -2.08,1.215 -4.144,2.875 -6.183,4.983"
         id="path1981" />
      <path
         inkscape:connector-curvature="0"
         style="fill:#f49c00"
         d="m 876.33,434.948 -0.7,-0.283 c -0.177,2.12 -0.947,4.429 -2.298,6.9 -0.432,1.418 -0.864,2.821 -1.281,4.212 1.391,2.418 3.051,4.012 4.955,4.783 0.256,0.093 0.433,0.254 0.554,0.484 2.849,5.388 5.414,7.913 7.711,7.602 0.605,-0.701 0.957,-1.539 1.054,-2.51 0.025,-1.392 -0.108,-2.715 -0.394,-3.983 -0.256,-0.434 -0.471,-1.015 -0.62,-1.757 0.284,0.202 0.58,0.379 0.863,0.539 -0.067,-0.148 -0.135,-0.295 -0.202,-0.444 0.444,0.392 0.893,0.757 1.324,1.079 2.065,1.148 4.104,1.933 6.089,2.351 1.201,0.337 2.364,0.337 3.457,0 0.218,-0.014 0.392,-0.081 0.527,-0.19 0.312,-0.188 0.513,-0.498 0.581,-0.943 v -0.013 c 0.242,-1.473 -0.216,-2.757 -1.377,-3.822 -1.271,-1.175 -2.596,-2.27 -3.984,-3.295 h -0.028 c -0.094,-0.068 -0.256,-0.189 -0.498,-0.352 -1.256,-0.283 -2.039,-0.743 -2.351,-1.391 0.865,0.162 1.743,0.258 2.635,0.296 -0.582,-0.094 -1.176,-0.175 -1.756,-0.27 0.58,0.095 1.174,0.176 1.756,0.27 2.186,0.109 4.414,-0.12 6.696,-0.702 0.744,-0.201 1.271,-0.513 1.566,-0.931 0.229,-0.458 0.176,-1.095 -0.148,-1.891 -1.863,-2.336 -5.914,-3.74 -12.153,-4.213 -0.041,0.014 -0.473,-0.108 -1.322,-0.365 -0.258,-0.081 -0.526,-0.174 -0.823,-0.283 0.497,-0.419 1.025,-0.823 1.552,-1.188 0.729,-0.474 1.377,-1.013 1.958,-1.594 0.324,-0.312 0.607,-0.635 0.837,-0.999 0.135,-0.202 0.258,-0.405 0.379,-0.608 0.242,-0.499 0.391,-1.012 0.445,-1.539 -0.203,-1.107 -0.973,-1.661 -2.296,-1.674 -1.836,-0.014 -3.698,0.54 -5.59,1.66 -2.014,1.176 -3.997,2.782 -5.969,4.822 -0.148,0.147 -0.324,0.241 -0.526,0.282 -0.203,0.055 -0.407,0.041 -0.623,-0.04"
         id="path1983" />
      <path
         inkscape:connector-curvature="0"
         style="fill:#e83434"
         d="m 886.985,436.109 c 0.85,0.257 1.281,0.379 1.322,0.365 6.239,0.473 10.29,1.877 12.153,4.213 0.324,0.796 0.378,1.433 0.148,1.891 -0.296,0.418 -0.822,0.729 -1.566,0.931 -2.282,0.582 -4.511,0.812 -6.696,0.702 0.038,0.016 0.067,0.029 0.108,0.042 2.604,0.365 4.752,0.433 6.44,0.202 2.659,-0.351 3.496,-1.781 2.538,-4.308 -1.958,-2.673 -6.428,-4.253 -13.382,-4.752 -0.362,0.229 -0.728,0.459 -1.065,0.714"
         id="path1985" />
      <path
         inkscape:connector-curvature="0"
         style="fill:#e83434"
         d="m 897.95,452.774 v 0.013 c -0.068,0.445 -0.27,0.756 -0.581,0.943 -0.136,0.109 -0.31,0.177 -0.527,0.19 -1.093,0.337 -2.256,0.337 -3.457,0 -1.985,-0.418 -4.023,-1.202 -6.089,-2.351 1.606,1.271 3.051,2.176 4.347,2.702 1.677,0.703 3.417,0.932 5.213,0.703 1.216,-0.124 1.932,-0.812 2.146,-2.04 0.311,-1.823 -0.243,-3.416 -1.688,-4.753 -1.31,-1.188 -2.674,-2.31 -4.091,-3.376 -0.162,-0.108 -0.418,-0.298 -0.769,-0.554 -0.041,-0.013 -0.07,-0.026 -0.108,-0.042 -0.892,-0.038 -1.77,-0.134 -2.635,-0.296 0.312,0.647 1.095,1.107 2.351,1.391 0.242,0.162 0.404,0.283 0.498,0.352 h 0.028 c 1.389,1.025 2.714,2.12 3.984,3.295 1.162,1.067 1.62,2.351 1.378,3.823"
         id="path1987" />
      <path
         inkscape:connector-curvature="0"
         style="fill:#e83434"
         d="m 886.174,450.936 c -0.283,-0.16 -0.579,-0.337 -0.863,-0.539 0.149,0.742 0.364,1.323 0.62,1.757 0.285,1.269 0.419,2.592 0.394,3.983 -0.097,0.971 -0.448,1.809 -1.054,2.51 -2.297,0.312 -4.862,-2.214 -7.711,-7.602 -0.121,-0.23 -0.298,-0.392 -0.554,-0.484 -1.904,-0.771 -3.564,-2.365 -4.955,-4.783 -0.149,0.433 -0.283,0.879 -0.42,1.324 1.419,2.229 3.093,3.713 5.011,4.431 3.28,6.224 6.319,8.91 9.129,8.086 2.064,-1.849 2.2,-4.739 0.403,-8.683"
         id="path1989" />
      <path
         inkscape:connector-curvature="0"
         style="fill:#f49c00"
         d="m 887.296,451.57 c -0.432,-0.322 -0.88,-0.688 -1.324,-1.079 0.067,0.149 0.135,0.296 0.202,0.444 0.393,0.217 0.758,0.433 1.122,0.635"
         id="path1991" />
      <path
         inkscape:connector-curvature="0"
         style="fill:none;stroke:#e83927;stroke-width:2.16100001;stroke-linecap:round;stroke-linejoin:round;stroke-miterlimit:10"
         d="m 888.052,435.396 c 0.041,-0.015 0.094,-0.041 0.148,-0.081 0.095,-0.068 0.202,-0.136 0.325,-0.176 0.228,-0.149 0.459,-0.284 0.659,-0.432 2.066,-1.393 3.134,-3.013 3.2,-4.877 -0.2,-1.754 -1.309,-2.645 -3.32,-2.673 -2.053,-0.013 -4.104,0.594 -6.158,1.824 -2.08,1.215 -4.145,2.875 -6.184,4.982 l -1.065,-0.406 m -4.026,13.545 c 1.419,2.229 3.093,3.713 5.011,4.431 3.28,6.224 6.319,8.91 9.129,8.086 2.064,-1.849 2.2,-4.738 0.403,-8.683 -0.067,-0.148 -0.135,-0.295 -0.202,-0.444 0.444,0.391 0.893,0.757 1.324,1.079 1.606,1.271 3.051,2.176 4.347,2.702 1.677,0.703 3.417,0.932 5.213,0.703 1.216,-0.124 1.932,-0.812 2.146,-2.04 0.311,-1.823 -0.243,-3.416 -1.688,-4.753 -1.31,-1.188 -2.674,-2.31 -4.091,-3.376 -0.162,-0.108 -0.418,-0.298 -0.769,-0.554 2.604,0.365 4.752,0.433 6.438,0.202 2.661,-0.351 3.498,-1.781 2.54,-4.308 -1.958,-2.673 -6.428,-4.253 -13.382,-4.752 -0.364,0.229 -0.729,0.458 -1.066,0.714 m 3.607,7.832 c 0.58,0.095 1.174,0.176 1.756,0.27 0.038,0.016 0.067,0.029 0.108,0.042"
         id="path1993" />
    </g>
  </g>
</svg>
