<?xml version="1.0" encoding="UTF-8" standalone="no"?>
<!-- Created with Inkscape (http://www.inkscape.org/) -->

<svg
   xmlns:dc="http://purl.org/dc/elements/1.1/"
   xmlns:cc="http://creativecommons.org/ns#"
   xmlns:rdf="http://www.w3.org/1999/02/22-rdf-syntax-ns#"
   xmlns:svg="http://www.w3.org/2000/svg"
   xmlns="http://www.w3.org/2000/svg"
   xmlns:sodipodi="http://sodipodi.sourceforge.net/DTD/sodipodi-0.dtd"
   xmlns:inkscape="http://www.inkscape.org/namespaces/inkscape"
   width="109.93266"
   height="187.78468"
   id="svg5696"
   version="1.1"
   inkscape:version="0.48.4 r9939"
   sodipodi:docname="ernie7.svg">
  <defs
     id="defs5698">
    <clipPath
       id="SVGID_2_">
      <rect
         height="88.862999"
         width="111.498"
         y="518.96198"
         x="382.04999"
         id="use1087" />
    </clipPath>
    <clipPath
       id="SVGID_4_">
      <rect
         height="41.314999"
         width="49.584999"
         y="525.19397"
         x="389.84698"
         id="use1111" />
    </clipPath>
  </defs>
  <sodipodi:namedview
     id="base"
     pagecolor="#ffffff"
     bordercolor="#666666"
     borderopacity="1.0"
     inkscape:pageopacity="0.0"
     inkscape:pageshadow="2"
     inkscape:zoom="0.77472527"
     inkscape:cx="-42.863842"
     inkscape:cy="136.51922"
     inkscape:current-layer="layer1"
     inkscape:document-units="px"
     showgrid="false"
     inkscape:window-width="763"
     inkscape:window-height="591"
     inkscape:window-x="592"
     inkscape:window-y="97"
     inkscape:window-maximized="0"
     fit-margin-top="0"
     fit-margin-left="0"
     fit-margin-right="0"
     fit-margin-bottom="0" />
  <metadata
     id="metadata5701">
    <rdf:RDF>
      <cc:Work
         rdf:about="">
        <dc:format>image/svg+xml</dc:format>
        <dc:type
           rdf:resource="http://purl.org/dc/dcmitype/StillImage" />
        <dc:title></dc:title>
      </cc:Work>
    </rdf:RDF>
  </metadata>
  <g
     id="layer1"
     inkscape:label="Layer 1"
     inkscape:groupmode="layer"
     transform="translate(-360.80713,-33.8409)">
    <g
       transform="translate(-104.72946,-272.4361)"
       id="g649">
      <path
         inkscape:connector-curvature="0"
         style="fill:#f18900"
         d="m 514.038,423.476 -0.632,0.392 c 0.25,-0.141 0.47,-0.266 0.668,-0.374 l -0.036,-0.018 z"
         id="path651" />
      <path
         inkscape:connector-curvature="0"
         style="fill:#f49c00"
         d="m 510.593,439.282 13.952,-6.214 -9.868,-9.193 c -1.979,1.498 -5.332,1.743 -10.061,0.715 l -0.128,6.369 c 0.138,4.708 2.177,7.487 6.105,8.323"
         id="path653" />
      <path
         inkscape:connector-curvature="0"
         style="fill:#e83434"
         d="m 504.616,424.59 -1.898,-0.479 c -0.359,1.645 -0.575,3.775 -0.646,6.406 0.192,5.717 2.584,9.386 7.166,11.004 l 1.354,-2.239 c -3.928,-0.836 -5.967,-3.615 -6.104,-8.323 l 0.128,-6.369 z"
         id="path655" />
      <path
         inkscape:connector-curvature="0"
         style="fill:#e83434"
         d="m 526.887,431.492 c 0.009,-0.023 -0.005,-0.032 -0.038,-0.028 -0.077,-0.135 -0.425,-0.547 -1.051,-1.23 -0.597,-0.703 -1.395,-1.307 -2.392,-1.82 -1.298,-0.401 -2.743,-0.223 -4.315,0.541 l -0.007,0.035 c -0.999,0.507 -1.727,1.15 -2.161,1.933 -0.312,-0.032 -0.629,-0.039 -0.959,-0.044 l -0.005,-0.021 c -2.387,-0.111 -3.892,1.008 -4.538,3.354 -1.486,-0.292 -2.724,-0.08 -3.724,0.641 -0.435,0.33 -0.834,0.754 -1.194,1.287 -1.094,1.96 -0.602,4.185 1.471,6.666 l 0.012,0.01 0.031,0.052 c 1.905,2.121 4.08,2.329 6.526,0.626 0.038,0.026 0.075,0.044 0.136,0.069 l -0.018,0.035 c 1.394,0.874 2.875,1.134 4.441,0.789 1.42,-0.436 2.439,-1.091 3.067,-1.949 l 0.014,0.011 c 1.631,0.724 3.235,0.464 4.825,-0.768 l 0.037,0.028 c 3.042,-2.128 2.991,-5.532 -0.158,-10.217 m -7.861,1.53 c 0.033,-0.229 0.08,-0.441 0.151,-0.634 0.19,-0.46 0.554,-0.823 1.081,-1.074 1.559,-0.718 2.875,-0.399 3.957,0.941 0.047,0.082 0.113,0.152 0.178,0.2 0.08,0.146 0.172,0.303 0.296,0.453 0.013,0.009 0.015,0.02 0.017,0.031 2.092,3.045 2.334,5.274 0.748,6.677 l -0.012,0.002 -0.014,-0.021 c -0.739,0.579 -1.463,0.725 -2.165,0.449 -0.136,-0.071 -0.272,-0.139 -0.407,-0.221 -0.85,-0.573 -1.7,-1.529 -2.554,-2.872 l -0.01,0.002 -0.014,-0.01 c -0.857,-1.59 -1.275,-2.897 -1.252,-3.923 m -9.439,4.147 c 0.393,-0.311 0.887,-0.421 1.482,-0.319 -0.043,1.854 0.428,3.438 1.398,4.739 -0.92,0.425 -1.761,0.26 -2.503,-0.499 -1.123,-1.334 -1.345,-2.536 -0.643,-3.586 0.052,-0.099 0.137,-0.202 0.245,-0.311 l 0.021,-0.024 z m 6.352,-3.657 c 0.155,-0.012 0.31,0.021 0.442,0.079 0.082,1.338 0.639,2.884 1.658,4.644 0.002,0.011 0.006,0.042 0.023,0.076 0.648,1.044 1.326,1.903 2.006,2.569 -0.312,0.399 -0.721,0.689 -1.227,0.857 -0.975,0.298 -1.89,0.18 -2.729,-0.35 -0.263,-0.151 -0.505,-0.318 -0.702,-0.502 l -0.058,-0.071 -0.036,-0.019 c -1.221,-1.081 -1.756,-2.562 -1.607,-4.457 l -0.028,-0.041 c 0.005,-0.034 0.005,-0.045 -0.017,-0.031 l 0.018,-0.037 c 0.018,-0.036 0.034,-0.073 0.052,-0.109 l 0.004,-0.058 c 0.205,-1.663 0.926,-2.513 2.155,-2.543 l 0.046,-0.007 z"
         id="path657" />
      <path
         inkscape:connector-curvature="0"
         style="fill:#f49c00"
         d="m 519.178,432.389 c -0.071,0.192 -0.118,0.404 -0.151,0.634 -0.023,1.025 0.395,2.333 1.253,3.924 l 0.009,-0.011 c 10e-4,0.01 10e-4,0.01 0.015,0.019 0.854,1.343 1.704,2.299 2.554,2.872 0.135,0.082 0.271,0.149 0.407,0.221 0.702,0.275 1.426,0.13 2.165,-0.449 l 0.025,0.02 c 1.586,-1.402 1.344,-3.632 -0.748,-6.677 -0.002,-0.012 -0.004,-0.022 -0.017,-0.031 -0.124,-0.15 -0.216,-0.308 -0.296,-0.453 -0.064,-0.048 -0.131,-0.118 -0.178,-0.2 -1.082,-1.341 -2.398,-1.659 -3.957,-0.941 -0.528,0.248 -0.891,0.612 -1.081,1.072"
         id="path659" />
      <path
         inkscape:connector-curvature="0"
         style="fill:#0076bf"
         d="m 520.288,436.936 -0.009,0.011 0.009,-0.011 z"
         id="path661" />
      <path
         inkscape:connector-curvature="0"
         style="fill:#e06a06"
         d="m 520.303,436.954 c -0.014,-0.009 -0.014,-0.009 -0.015,-0.019 l 0.005,0.021 0.01,-0.002 z"
         id="path663" />
      <polygon
         style="fill:#f18900"
         points="520.293,436.956 520.288,436.936 520.279,436.946 "
         id="polygon665" />
      <polygon
         style="fill:#0076bf"
         points="525.442,439.619 525.454,439.617 525.429,439.598 "
         id="polygon667" />
      <path
         inkscape:connector-curvature="0"
         style="fill:#f49c00"
         d="m 511.069,436.85 c -0.596,-0.102 -1.09,0.009 -1.482,0.319 l -0.02,0.024 c -0.108,0.108 -0.193,0.212 -0.245,0.311 -0.702,1.05 -0.48,2.252 0.643,3.586 0.742,0.759 1.583,0.924 2.503,0.499 -0.971,-1.301 -1.442,-2.885 -1.399,-4.739"
         id="path669" />
      <path
         inkscape:connector-curvature="0"
         style="fill:#f49c00"
         d="m 516.382,433.591 c -0.133,-0.059 -0.287,-0.091 -0.442,-0.079 l -0.046,0.008 c -1.229,0.03 -1.95,0.88 -2.155,2.543 l 0.013,0.021 -0.017,0.036 c -0.018,0.036 -0.034,0.073 -0.052,0.109 l -0.016,0.037 c 0.02,-0.014 0.02,-0.003 0.016,0.031 l 0.027,0.041 c -0.148,1.896 0.387,3.376 1.607,4.457 l 0.036,0.019 0.058,0.071 c 0.197,0.184 0.439,0.351 0.702,0.502 0.84,0.529 1.755,0.647 2.729,0.35 0.506,-0.168 0.914,-0.458 1.227,-0.857 -0.68,-0.666 -1.357,-1.525 -2.006,-2.569 -0.018,-0.034 -0.021,-0.065 -0.023,-0.076 -1.019,-1.76 -1.576,-3.306 -1.658,-4.644"
         id="path671" />
      <polygon
         style="fill:#d04215"
         points="513.751,436.084 513.738,436.062 513.734,436.12 "
         id="polygon673" />
      <path
         inkscape:connector-curvature="0"
         style="fill:#d04215"
         d="m 515.972,430.854 c -0.014,-0.01 -0.014,-0.01 -0.013,0.002 l 0.005,0.021 0.008,-0.023 z"
         id="path675" />
      <path
         inkscape:connector-curvature="0"
         style="fill:#d04215"
         d="m 514.661,443.596 0.018,-0.035 -0.057,0.009 c 0.014,0.007 0.027,0.019 0.039,0.026"
         id="path677" />
      <polygon
         style="fill:#d04215"
         points="527.009,441.679 527.023,441.71 527.046,441.707 "
         id="polygon679" />
      <path
         inkscape:connector-curvature="0"
         style="fill:#e83434"
         d="m 509.908,423.466 1.599,1.386 c 4.012,-3.16 7.332,-3.546 9.955,-1.174 l 0.012,0.01 -0.032,0.006 c 1.864,1.865 2.069,3.853 0.628,5.968 l -0.035,0.074 c -0.246,0.391 -0.559,0.788 -0.939,1.188 -1.676,1.269 -3.088,1.148 -4.262,-0.362 -0.408,-1.104 0.339,-2.5 2.263,-4.214 l -0.265,-1.422 c -1.88,0.901 -3.209,1.845 -3.996,2.826 -0.857,1.063 -1.071,2.175 -0.643,3.332 0.505,1.068 1.252,1.938 2.232,2.637 1.131,0.79 2.236,1.05 3.295,0.785 2.117,-0.61 3.857,-2.128 5.209,-4.525 1.475,-2.867 0.93,-5.585 -1.641,-8.136 l 0.018,-0.036 c -3.657,-3.623 -8.118,-3.069 -13.398,1.657"
         id="path681" />
      <path
         inkscape:connector-curvature="0"
         style="fill:#0076bf"
         d="m 521.462,423.678 -0.021,0.016 0.021,-0.016 z"
         id="path683" />
      <path
         inkscape:connector-curvature="0"
         style="fill:#f49c00"
         d="m 521.441,423.693 0.021,-0.016 c -2.623,-2.372 -5.943,-1.986 -9.955,1.174 l -4.59,3.613 5.492,-0.929 2.426,0.215 c 0.787,-0.981 2.116,-1.925 3.996,-2.826 l 0.265,1.422 c -1.924,1.714 -2.671,3.109 -2.263,4.214 1.174,1.511 2.586,1.631 4.262,0.362 0.381,-0.399 0.693,-0.797 0.939,-1.188 l 0.035,-0.074 c 1.442,-2.114 1.237,-4.101 -0.628,-5.967"
         id="path685" />
      <polygon
         style="fill:#f18900"
         points="521.474,423.688 521.462,423.678 521.441,423.693 "
         id="polygon687" />
      <path
         inkscape:connector-curvature="0"
         style="fill:#fedb00"
         d="m 504.999,398.549 -0.132,-0.24 -0.44,-0.725 c -5.992,3.819 -9.281,8.552 -9.865,14.176 l 18.451,2.688 1.086,0.054 c -0.045,-2.476 1.072,-4.316 3.349,-5.539 l -12.449,-10.414 z"
         id="path689" />
      <path
         inkscape:connector-curvature="0"
         style="fill:#0076bf"
         d="m 504.867,398.309 0.132,0.24 12.448,10.414 c 2.683,-1.443 6.979,-2.007 12.863,-1.707 1.046,-9.035 -3.072,-14.22 -12.359,-15.544 -5.458,1.639 -9.963,3.589 -13.511,5.857 l 0.427,0.74 z"
         id="path691" />
      <path
         inkscape:connector-curvature="0"
         style="fill:#e83827"
         d="m 515.572,420.032 c -0.962,-2.094 -1.459,-3.946 -1.474,-5.53 l -1.086,-0.054 -18.451,-2.688 c -0.617,5.879 1.709,12.74 6.999,20.596 l 14.012,-12.324 z"
         id="path693" />
      <path
         inkscape:connector-curvature="0"
         style="fill:none;stroke:#fcdf00;stroke-width:0.26499999;stroke-linecap:square;stroke-linejoin:round;stroke-miterlimit:10"
         d="M 517.802,409.256 517.448,408.963 505,398.549 m 8.013,15.899 -18.451,-2.688"
         id="path695" />
      <path
         inkscape:connector-curvature="0"
         style="fill:none;stroke:#003c90;stroke-width:2.11999989;stroke-linecap:square;stroke-miterlimit:10"
         d="m 530.311,407.256 c -5.885,-0.3 -10.181,0.264 -12.863,1.707 -2.276,1.223 -3.394,3.063 -3.349,5.539 0.015,1.584 0.512,3.437 1.474,5.53 l -14.012,12.323 c -5.29,-7.855 -7.616,-14.717 -6.999,-20.596 0.584,-5.624 3.873,-10.356 9.865,-14.176 -0.001,-0.013 -0.001,-0.013 0.014,-0.015 3.548,-2.269 8.053,-4.219 13.511,-5.857"
         id="path697" />
      <path
         inkscape:connector-curvature="0"
         style="fill:#e83434"
         d="m 543.29,472.612 c 0.866,0.116 1.681,0.239 2.459,0.393 0.092,0.015 0.184,0.029 0.278,0.056 -2.597,2.023 -4.205,5.556 -4.81,10.58 l -0.032,0.363 c -0.05,1.438 -0.181,2.408 -0.404,2.911 -0.224,0.504 -0.36,0.766 -0.425,0.773 l -0.358,0.133 c -1.03,0.341 -2.133,0.497 -3.283,0.467 -1.238,0.004 -2.487,-0.066 -3.741,-0.215 -1.031,-0.095 -2.037,-0.222 -3.047,-0.349 -1.034,-0.136 -2.047,-0.3 -3.063,-0.488 -1.241,-0.252 -2.478,-0.557 -3.718,-0.913 -0.564,-0.178 -1.285,-0.388 -2.167,-0.647 l 0.112,-11.027 17.009,-2.53 c 0.675,0.036 1.325,0.088 1.964,0.142 -2.272,2.81 -3.672,5.039 -4.184,6.712 -0.113,0.35 -0.08,0.628 0.088,0.854 l 2.424,0.435 c 1.209,-3.214 2.839,-5.769 4.898,-7.65 m -18.872,7.911 c -0.517,0.653 -0.726,1.389 -0.628,2.215 0.1,0.827 0.474,1.491 1.127,1.995 0.643,0.517 1.376,0.728 2.203,0.629 0.827,-0.1 1.493,-0.474 2.006,-1.129 0.518,-0.641 0.727,-1.375 0.629,-2.202 -0.099,-0.826 -0.474,-1.491 -1.127,-2.007 -0.655,-0.518 -1.39,-0.725 -2.216,-0.627 -0.827,0.098 -1.491,0.473 -1.994,1.126"
         id="path699" />
      <path
         inkscape:connector-curvature="0"
         style="fill:#ffffff"
         d="m 523.79,482.738 c -0.098,-0.826 0.111,-1.562 0.628,-2.215 0.503,-0.653 1.167,-1.028 1.994,-1.126 0.826,-0.098 1.561,0.109 2.216,0.627 0.653,0.516 1.028,1.181 1.127,2.007 0.098,0.827 -0.111,1.562 -0.629,2.202 -0.513,0.655 -1.179,1.029 -2.006,1.129 -0.827,0.099 -1.561,-0.112 -2.203,-0.629 -0.653,-0.504 -1.027,-1.168 -1.127,-1.995"
         id="path701" />
      <path
         inkscape:connector-curvature="0"
         style="fill:#ffffff"
         d="m 540.063,472.26 c 1.134,0.097 2.218,0.214 3.227,0.353 -2.059,1.881 -3.689,4.436 -4.898,7.647 l -2.424,-0.435 c -0.168,-0.226 -0.201,-0.504 -0.088,-0.854 0.512,-1.672 1.911,-3.902 4.183,-6.711"
         id="path703" />
      <path
         inkscape:connector-curvature="0"
         style="fill:#ffffff"
         d="m 546.027,473.061 c 2.862,0.552 5.135,1.327 6.812,2.303 3.031,1.756 4.689,3.88 4.985,6.385 0.013,0.114 0.028,0.244 0.03,0.357 0.152,2.369 -1.008,4.455 -3.478,6.257 -2.575,1.877 -6.064,2.91 -10.467,3.083 -6.144,0.51 -13.268,-0.299 -21.39,-2.431 -1.052,-0.391 -1.569,-1.272 -1.55,-2.64 l 0.007,-0.699 c 0.882,0.26 1.603,0.47 2.167,0.647 1.24,0.356 2.477,0.661 3.718,0.913 1.017,0.188 2.029,0.353 3.063,0.488 1.01,0.127 2.016,0.251 3.047,0.349 1.254,0.148 2.503,0.219 3.741,0.215 1.15,0.03 2.253,-0.126 3.283,-0.467 l 0.358,-0.133 c 0.064,-0.008 0.201,-0.27 0.425,-0.773 0.224,-0.503 0.354,-1.474 0.404,-2.911 l 0.032,-0.363 c 0.608,-5.025 2.217,-8.557 4.813,-10.58"
         id="path705" />
      <path
         inkscape:connector-curvature="0"
         style="fill:none;stroke:#e83927;stroke-width:2.04900002;stroke-linecap:round;stroke-linejoin:round;stroke-miterlimit:10"
         d="m 545.749,473.005 c 0.092,0.015 0.184,0.029 0.278,0.056 2.862,0.552 5.135,1.327 6.812,2.303 3.031,1.756 4.689,3.88 4.985,6.385 0.013,0.114 0.028,0.244 0.03,0.357 0.152,2.369 -1.008,4.455 -3.478,6.257 -2.575,1.877 -6.064,2.91 -10.467,3.083 -6.144,0.51 -13.268,-0.299 -21.39,-2.431 -1.052,-0.391 -1.569,-1.272 -1.55,-2.64 l 0.007,-0.699 0.112,-11.027 17.009,-2.53 c 0.675,0.036 1.325,0.088 1.964,0.142 1.134,0.097 2.218,0.214 3.227,0.353 0.868,0.115 1.684,0.238 2.461,0.391 z"
         id="path707" />
      <path
         inkscape:connector-curvature="0"
         style="fill:#003c90"
         d="m 516.441,443.574 -0.296,-1.313 32.607,0.027 -0.066,1.152 c -0.551,7.96 -1.047,14.394 -1.502,19.286 -0.43,4.77 -1.368,8.428 -2.828,10.975 -0.831,0.12 -1.85,0.481 -3.056,1.071 -0.872,0.43 -1.688,0.899 -2.479,1.422 -7.129,2.102 -13.361,2.625 -18.696,1.595 l -0.83,-0.202 0.04,-0.886 c 0.631,-11.081 -0.334,-22.124 -2.894,-33.127 m 27.648,24.874 c 0.442,-1.717 0.763,-3.687 0.964,-5.926 0.43,-4.648 0.898,-10.681 1.408,-18.092 l -27.634,-0.026 c 1.971,8.912 2.922,17.852 2.829,26.817 -0.015,0 -0.015,0 -0.028,0.013 -0.015,0 -0.015,0 -0.015,0.015 0.015,0.014 0.015,0.014 0.015,0.026 0.014,0.013 0.014,0.013 0.028,0.013 -0.015,1.54 -0.054,3.096 -0.136,4.637 5.603,1.22 12.558,0.161 20.879,-3.162 0.537,-0.926 0.994,-2.022 1.382,-3.27 h 0.013 c 0.013,-0.015 0.013,-0.015 0.026,-0.015 0.014,-0.013 0.014,-0.013 0,-0.027 0,-0.013 0,-0.013 -0.014,-0.026 0.094,-0.321 0.187,-0.642 0.283,-0.977"
         id="path709" />
      <path
         inkscape:connector-curvature="0"
         style="fill:#5390cd"
         d="m 545.053,462.522 c -0.201,2.239 -0.521,4.209 -0.964,5.926 -8.082,2.732 -15.467,3.671 -22.153,2.801 -0.054,-0.015 -0.107,-0.015 -0.173,-0.015 -0.041,-0.013 -0.068,-0.013 -0.106,-0.013 0.093,-8.966 -0.858,-17.905 -2.829,-26.817 l 27.634,0.026 c -0.511,7.412 -0.98,13.444 -1.409,18.092"
         id="path711" />
      <path
         inkscape:connector-curvature="0"
         style="fill:#a4c6e9"
         d="m 544.089,468.448 c -0.096,0.335 -0.188,0.655 -0.282,0.977 0.014,0.014 0.014,0.014 0.014,0.026 0.014,0.015 0.014,0.015 0,0.027 -0.014,0 -0.014,0 -0.026,0.015 h -0.013 c -0.388,1.247 -0.845,2.344 -1.382,3.27 -8.321,3.323 -15.276,4.382 -20.879,3.162 0.082,-1.541 0.121,-3.097 0.136,-4.637 -0.015,0 -0.015,0 -0.028,-0.013 0,-0.013 0,-0.013 -0.015,-0.026 0,-0.015 0,-0.015 0.015,-0.015 0.014,-0.013 0.014,-0.013 0.028,-0.013 0.038,0 0.065,0 0.106,0.013 0.065,0 0.119,0 0.173,0.015 6.686,0.87 14.071,-0.068 22.153,-2.801"
         id="path713" />
      <path
         inkscape:connector-curvature="0"
         style="fill:none;stroke:#9bb5df;stroke-width:0.067;stroke-linecap:round;stroke-linejoin:round;stroke-miterlimit:10"
         d="m 521.936,471.249 c -0.054,-0.015 -0.107,-0.015 -0.173,-0.015"
         id="path715" />
      <path
         inkscape:connector-curvature="0"
         style="fill:#e83434"
         d="m 509.367,474.832 c 0.2,0.884 0.374,1.722 0.507,2.538 0.021,0.093 0.037,0.19 0.045,0.291 -2.912,-1.803 -6.936,-2.091 -12.053,-0.862 l -0.367,0.098 c -1.42,0.474 -2.414,0.696 -2.986,0.66 -0.572,-0.036 -0.876,-0.074 -0.906,-0.134 l -0.258,-0.301 c -0.705,-0.881 -1.258,-1.9 -1.643,-3.035 -0.454,-1.205 -0.834,-2.445 -1.145,-3.724 -0.28,-1.041 -0.52,-2.067 -0.762,-3.097 -0.242,-1.059 -0.449,-2.104 -0.631,-3.162 -0.204,-1.303 -0.354,-2.62 -0.455,-3.958 -0.031,-0.612 -0.085,-1.394 -0.154,-2.345 l 10.793,-3.88 8.619,15.669 c 0.21,0.671 0.395,1.325 0.574,1.966 -3.562,-1.2 -6.243,-1.758 -8.058,-1.651 -0.382,0.016 -0.643,0.149 -0.802,0.395 l 0.453,2.522 c 3.57,0.014 6.65,0.68 9.229,2.01 m -14.538,-15.541 c -0.824,-0.267 -1.616,-0.205 -2.387,0.189 -0.771,0.396 -1.284,1.001 -1.538,1.819 -0.272,0.813 -0.212,1.604 0.183,2.375 0.395,0.771 1.002,1.282 1.826,1.55 0.812,0.271 1.605,0.209 2.377,-0.184 0.77,-0.396 1.282,-1.002 1.548,-1.826 0.267,-0.825 0.206,-1.616 -0.188,-2.387 -0.397,-0.769 -1.003,-1.283 -1.821,-1.536"
         id="path717" />
      <path
         inkscape:connector-curvature="0"
         style="fill:#ffffff"
         d="m 492.442,459.48 c 0.771,-0.395 1.562,-0.456 2.387,-0.189 0.818,0.253 1.424,0.767 1.82,1.537 0.395,0.771 0.455,1.562 0.188,2.387 -0.266,0.824 -0.778,1.431 -1.548,1.826 -0.771,0.393 -1.564,0.455 -2.377,0.184 -0.824,-0.268 -1.432,-0.779 -1.826,-1.55 -0.394,-0.771 -0.455,-1.562 -0.183,-2.375 0.255,-0.819 0.769,-1.424 1.539,-1.82"
         id="path719" />
      <path
         inkscape:connector-curvature="0"
         style="fill:#ffffff"
         d="m 508.546,471.557 c 0.314,1.141 0.592,2.239 0.821,3.275 -2.579,-1.33 -5.659,-1.996 -9.228,-2.01 l -0.453,-2.522 c 0.159,-0.245 0.42,-0.379 0.802,-0.395 1.815,-0.106 4.495,0.451 8.058,1.652"
         id="path721" />
      <path
         inkscape:connector-curvature="0"
         style="fill:#ffffff"
         d="m 509.919,477.661 c 0.5,2.991 0.564,5.487 0.219,7.473 -0.613,3.592 -2.086,5.978 -4.423,7.175 -0.106,0.053 -0.225,0.114 -0.337,0.157 -2.254,1.004 -4.705,0.627 -7.355,-1.128 -2.764,-1.832 -5.034,-4.861 -6.794,-9.092 -2.718,-5.805 -4.509,-13.043 -5.365,-21.732 0,-1.169 0.673,-1.991 2.015,-2.468 l 0.682,-0.244 c 0.069,0.951 0.123,1.732 0.154,2.345 0.102,1.338 0.251,2.655 0.455,3.958 0.182,1.058 0.389,2.104 0.631,3.162 0.242,1.029 0.481,2.056 0.762,3.097 0.311,1.278 0.69,2.519 1.145,3.724 0.385,1.135 0.938,2.154 1.643,3.035 l 0.258,0.301 c 0.03,0.06 0.334,0.098 0.906,0.135 0.572,0.035 1.566,-0.188 2.986,-0.661 l 0.367,-0.098 c 5.115,-1.23 9.139,-0.942 12.051,0.861"
         id="path723" />
      <path
         inkscape:connector-curvature="0"
         style="fill:none;stroke:#e83927;stroke-width:2.13100004;stroke-linecap:round;stroke-linejoin:round;stroke-miterlimit:10"
         d="m 509.874,477.37 c 0.021,0.093 0.037,0.19 0.045,0.291 0.5,2.991 0.564,5.487 0.219,7.473 -0.613,3.592 -2.086,5.978 -4.423,7.175 -0.106,0.053 -0.225,0.114 -0.337,0.157 -2.254,1.004 -4.705,0.627 -7.355,-1.128 -2.764,-1.832 -5.034,-4.861 -6.794,-9.092 -2.718,-5.805 -4.509,-13.043 -5.365,-21.732 0,-1.169 0.673,-1.991 2.015,-2.468 l 0.682,-0.244 10.793,-3.88 8.619,15.669 c 0.21,0.671 0.395,1.325 0.574,1.966 0.314,1.141 0.592,2.239 0.821,3.275 0.199,0.884 0.373,1.722 0.506,2.538 z"
         id="path725" />
      <path
         inkscape:connector-curvature="0"
         style="fill:#003c90"
         d="m 523.322,443.804 -0.079,-0.95 -34.939,-0.523 0.067,1.151 c 0.214,3.954 1.126,8.229 2.733,12.799 -0.094,0.053 -0.2,0.122 -0.294,0.187 -0.577,0.35 -1.233,1.047 -1.956,2.078 -1.032,2.156 -0.041,5.053 2.988,8.671 h 0.012 c 1.516,1.595 3.552,2.521 6.14,2.774 2.572,0.24 4.717,0.483 6.419,0.712 1.702,0.227 2.84,0.334 3.443,0.307 l 7.975,-3.793 0.119,-0.148 c 5.858,-6.673 8.322,-14.434 7.372,-23.265 m -29.671,13.16 c -0.012,-0.013 -0.012,-0.041 -0.026,-0.054 -1.678,-4.437 -2.682,-8.563 -3.028,-12.396 l 30.675,0.456 c 0.616,7.76 -1.647,14.606 -6.795,20.543 l -5.054,2.602 -2.021,1.032 c -6.406,0.496 -11.098,-0.672 -14.059,-3.472 -2.425,-3.229 -3.336,-5.187 -2.732,-5.896 0.079,-0.122 0.158,-0.242 0.253,-0.35 0.389,-0.521 0.738,-0.896 1.046,-1.124 0.201,0.36 0.457,0.697 0.764,1.006 0.952,0.95 2.426,1.714 4.45,2.315 l 1.018,0.31 c -2.118,-1.247 -3.62,-2.895 -4.491,-4.972"
         id="path727" />
      <path
         inkscape:connector-curvature="0"
         style="fill:#5390cd"
         d="m 493.625,456.91 c 0.015,0.013 0.015,0.041 0.026,0.054 0.871,2.077 2.373,3.726 4.489,4.972 l -1.018,-0.31 c -2.024,-0.602 -3.498,-1.365 -4.45,-2.315 -0.307,-0.309 -0.562,-0.646 -0.764,-1.006 -0.308,0.228 -0.657,0.603 -1.046,1.124 l 0.134,0.147 c 0.175,0.229 0.361,0.471 0.551,0.697 3.592,4.316 8.912,6.876 15.947,7.666 0.107,0.013 0.215,0.028 0.322,0.04 0.521,0.054 1.058,0.094 1.605,0.135 l 5.054,-2.602 c 5.147,-5.937 7.411,-12.783 6.795,-20.543 l -30.675,-0.456 c 0.348,3.834 1.352,7.961 3.03,12.397"
         id="path729" />
      <path
         inkscape:connector-curvature="0"
         style="fill:#a4c6e9"
         d="m 490.997,459.576 -0.134,-0.146 c -0.095,0.105 -0.174,0.226 -0.253,0.348 -0.604,0.71 0.308,2.667 2.732,5.896 2.961,2.8 7.652,3.968 14.059,3.472 l 2.021,-1.032 c -0.548,-0.041 -1.084,-0.081 -1.605,-0.135 -0.107,-0.012 -0.215,-0.027 -0.322,-0.04 -7.035,-0.79 -12.355,-3.35 -15.947,-7.666 -0.19,-0.226 -0.376,-0.468 -0.551,-0.697"
         id="path731" />
      <path
         inkscape:connector-curvature="0"
         style="fill:#5390cd"
         d="m 519.381,449.57 c 0.562,-0.685 1.234,-1.058 2.011,-1.139 0.818,-0.081 1.487,0.187 2.021,0.803 0.618,0.697 0.926,1.729 0.926,3.083 0,0.014 0.014,0.214 0.027,0.589 0.469,0.149 0.898,0.431 1.272,0.845 0.617,0.685 0.927,1.555 0.927,2.64 v 0.616 c -0.028,0.442 -0.108,0.831 -0.256,1.179 -0.417,1.06 -1.232,1.608 -2.479,1.677 -0.872,0.239 -1.983,0.361 -3.337,0.361 -3.057,0 -5.159,-0.255 -6.312,-0.75 -1.06,-0.47 -1.595,-1.288 -1.595,-2.454 0,-1.165 0.71,-2.049 2.13,-2.625 0.685,-0.282 1.462,-0.456 2.333,-0.549 0.119,-0.215 0.254,-0.403 0.429,-0.562 0.147,-0.483 0.415,-0.899 0.817,-1.262 0.067,-0.054 0.12,-0.105 0.174,-0.147 0.08,-0.898 0.389,-1.662 0.912,-2.305"
         id="path733" />
      <path
         inkscape:connector-curvature="0"
         style="fill:#ffffff"
         d="m 549.849,414.502 c -0.12,0.027 -0.255,0.054 -0.375,0.093 0,0.015 0,0.043 0.015,0.068 0.012,0.027 0.012,0.054 0.025,0.093 0.684,3.445 1.179,6.93 1.461,10.428 0.201,-0.039 0.402,-0.094 0.603,-0.136 -0.363,-3.498 -0.938,-6.955 -1.702,-10.398 -0.013,-0.055 -0.013,-0.109 -0.027,-0.148"
         id="path735" />
      <path
         inkscape:connector-curvature="0"
         style="fill:#0076bf"
         d="m 549.474,414.595 c 0.12,-0.039 0.255,-0.065 0.375,-0.093 -1.059,-4.702 -2.492,-9.382 -4.302,-14.004 -9.327,-2.158 -18.309,-3.298 -26.924,-3.43 h -0.081 c -8.615,0.132 -17.582,1.271 -26.922,3.43 -1.73,4.435 -3.123,8.898 -4.155,13.402 -0.054,0.199 -0.106,0.415 -0.147,0.629 0.067,0.012 0.133,0.026 0.201,0.04 0.041,-0.215 0.095,-0.429 0.135,-0.631 0.991,-4.463 2.316,-8.898 3.98,-13.278 9.326,-2.16 18.293,-3.299 26.908,-3.434 h 0.081 c 8.615,0.135 17.583,1.273 26.897,3.434 1.688,4.595 3.001,9.245 3.954,13.935"
         id="path737" />
      <path
         inkscape:connector-curvature="0"
         style="fill:#0076bf"
         d="m 549.514,414.756 c -0.014,-0.039 -0.014,-0.065 -0.025,-0.093 -0.015,-0.025 -0.015,-0.054 -0.015,-0.068 -0.952,-4.689 -2.266,-9.34 -3.953,-13.935 -9.314,-2.16 -18.282,-3.299 -26.897,-3.434 h -0.081 c -8.615,0.135 -17.582,1.273 -26.908,3.434 -1.664,4.38 -2.989,8.815 -3.98,13.278 13.494,2.627 25.663,3.913 36.519,3.86 h 0.08 c 1.649,0.014 3.257,-0.014 4.825,-0.054 7.743,-0.253 14.552,-1.258 20.435,-2.988"
         id="path739" />
      <path
         inkscape:connector-curvature="0"
         style="fill:#ffffff"
         d="m 529.077,417.745 c -1.568,0.04 -3.176,0.067 -4.825,0.054 h -0.08 c -10.855,0.053 -23.024,-1.233 -36.519,-3.86 -0.04,0.202 -0.094,0.416 -0.135,0.631 -0.014,0.04 -0.014,0.08 -0.026,0.121 -0.711,3.31 -1.221,6.633 -1.54,9.997 11.793,2.385 22.607,3.752 32.43,4.114 1.971,0.066 3.899,0.107 5.79,0.093 h 0.08 c 10.468,0.068 19.379,-1.111 26.736,-3.511 0,-0.054 0,-0.107 -0.014,-0.174 v -0.026 c -0.282,-3.498 -0.777,-6.982 -1.461,-10.428 -5.882,1.73 -12.691,2.735 -20.436,2.989"
         id="path741" />
      <path
         inkscape:connector-curvature="0"
         style="fill:#e83827"
         d="m 524.252,428.895 h -0.08 c -1.891,0.015 -3.819,-0.026 -5.79,-0.093 -9.822,-0.362 -20.637,-1.729 -32.43,-4.114 -0.014,0.148 -0.028,0.309 -0.042,0.457 -0.013,0.025 -0.013,0.051 -0.013,0.079 -0.309,3.256 -0.442,6.54 -0.389,9.837 11.39,2.318 21.856,3.697 31.414,4.14 2.479,0.107 4.891,0.161 7.249,0.147 h 0.08 c 10.587,0.067 19.579,-1.124 26.976,-3.578 l -0.014,-0.067 h 0.014 v -0.026 c 0.121,-3.443 0.042,-6.874 -0.239,-10.292 -7.357,2.398 -16.268,3.578 -26.736,3.51"
         id="path743" />
      <path
         inkscape:connector-curvature="0"
         style="fill:#fedb00"
         d="m 524.252,439.348 h -0.08 c -2.358,0.014 -4.771,-0.04 -7.249,-0.147 -9.558,-0.442 -20.024,-1.821 -31.414,-4.14 0,0.186 0,0.375 0.014,0.562 v 0.067 c 0.08,3.364 0.334,6.769 0.777,10.198 0.175,0.041 0.334,0.094 0.51,0.147 10.867,2.374 20.865,3.78 29.964,4.248 h 1.769 0.081 c 10.774,0.067 21.349,-1.354 31.708,-4.248 0.496,-3.98 0.792,-7.396 0.896,-10.266 -7.397,2.455 -16.389,3.646 -26.976,3.579"
         id="path745" />
      <path
         inkscape:connector-curvature="0"
         style="fill:#e83827"
         d="m 551.591,425.184 c 0,-0.039 0,-0.094 -0.014,-0.136 -0.2,0.042 -0.401,0.097 -0.603,0.136 v 0.026 c 0.014,0.066 0.014,0.12 0.014,0.174 0.281,3.418 0.36,6.849 0.239,10.292 v 0.026 c 0.177,-0.038 0.363,-0.08 0.538,-0.119 0.093,-0.013 0.2,-0.041 0.307,-0.068 v -0.04 -0.039 c 0.028,-3.444 -0.133,-6.863 -0.481,-10.252"
         id="path747" />
      <path
         inkscape:connector-curvature="0"
         style="fill:#e83827"
         d="m 550.975,425.21 v -0.026 0.026 z"
         id="path749" />
      <path
         inkscape:connector-curvature="0"
         style="fill:#fedb00"
         d="m 551.766,435.583 c -0.175,0.039 -0.361,0.081 -0.538,0.119 v 0.067 c -0.104,2.87 -0.4,6.285 -0.896,10.266 0.361,-0.094 0.724,-0.199 1.086,-0.31 0.402,-3.415 0.617,-6.818 0.655,-10.211 -0.107,0.028 -0.215,0.056 -0.307,0.069"
         id="path751" />
      <polygon
         style="fill:#fedb00"
         points="551.214,435.702 551.228,435.77 551.228,435.702 "
         id="polygon753" />
      <path
         inkscape:connector-curvature="0"
         style="fill:#ffffff"
         d="m 487.492,414.69 c 0.013,-0.041 0.013,-0.081 0.026,-0.121 -0.068,-0.014 -0.134,-0.028 -0.201,-0.04 -0.75,3.337 -1.312,6.713 -1.676,10.104 -0.012,0.147 -0.039,0.281 -0.053,0.427 0.108,0.029 0.214,0.055 0.321,0.084 0.014,-0.148 0.028,-0.309 0.042,-0.457 0.32,-3.364 0.83,-6.687 1.541,-9.997"
         id="path755" />
      <path
         inkscape:connector-curvature="0"
         style="fill:#e83827"
         d="m 485.91,425.145 c -0.107,-0.029 -0.213,-0.055 -0.321,-0.084 -0.348,3.285 -0.51,6.595 -0.496,9.906 v 0.562 c 0.148,0.042 0.281,0.068 0.43,0.094 -0.014,-0.187 -0.014,-0.376 -0.014,-0.562 -0.054,-3.297 0.08,-6.581 0.389,-9.837 -0.001,-0.029 -0.001,-0.054 0.012,-0.079"
         id="path757" />
      <path
         inkscape:connector-curvature="0"
         style="fill:#fedb00"
         d="m 485.522,435.622 c -0.148,-0.025 -0.281,-0.052 -0.43,-0.094 0.041,3.379 0.254,6.782 0.656,10.197 0.175,0.056 0.364,0.11 0.551,0.162 -0.443,-3.43 -0.697,-6.834 -0.777,-10.198 v -0.067 z"
         id="path759" />
      <path
         inkscape:connector-curvature="0"
         style="fill:#fedb00"
         d="m 516.773,450.283 c -9.099,-0.468 -19.097,-1.874 -29.964,-4.248 9.795,2.735 19.794,4.154 29.964,4.248"
         id="path761" />
      <path
         inkscape:connector-curvature="0"
         style="fill:none;stroke:#003c90;stroke-width:2.14400005;stroke-linecap:square;stroke-miterlimit:10"
         d="m 549.488,414.663 c -0.015,-0.025 -0.015,-0.054 -0.015,-0.068 -0.952,-4.689 -2.266,-9.34 -3.953,-13.935 -9.314,-2.16 -18.282,-3.299 -26.897,-3.434 h -0.081 c -8.615,0.135 -17.582,1.273 -26.908,3.434 -1.664,4.38 -2.989,8.815 -3.98,13.278 -0.04,0.202 -0.094,0.416 -0.135,0.631 -0.014,0.04 -0.014,0.08 -0.026,0.121 -0.711,3.31 -1.221,6.633 -1.54,9.997 -0.014,0.148 -0.028,0.309 -0.042,0.457 -0.013,0.025 -0.013,0.051 -0.013,0.079 -0.309,3.256 -0.442,6.54 -0.389,9.837 0,0.186 0,0.375 0.014,0.562 v 0.067 c 0.08,3.364 0.334,6.769 0.777,10.198 v 0.028 c 0.175,0.039 0.334,0.08 0.51,0.119 10.867,2.374 20.865,3.78 29.964,4.248 2.413,0.121 4.772,0.174 7.062,0.16 h 0.082 c 10.414,0.067 19.203,-1.245 26.347,-3.911 0.014,-0.174 0.04,-0.337 0.067,-0.497 0.496,-3.98 0.792,-7.396 0.896,-10.266 v -0.067 -0.026 c 0.121,-3.443 0.042,-6.874 -0.239,-10.292 0,-0.054 0,-0.107 -0.014,-0.174 v -0.026 c -0.282,-3.498 -0.777,-6.982 -1.461,-10.428 -0.014,-0.038 -0.014,-0.065 -0.026,-0.092 z"
         id="path763" />
      <path
         inkscape:connector-curvature="0"
         style="fill:#f49c00"
         d="m 513.544,439.6 -0.329,-2.667 1.946,-1.024 1.318,-3.098 1.312,-2.885 c 0.889,-2.205 2.482,-3.479 4.771,-3.819 1.192,-0.269 2.393,-0.087 3.608,0.541 -1.01,0.279 -1.974,0.687 -2.887,1.196 l 0.182,0.869 c 6.49,-0.869 10.318,-0.512 11.487,1.076 0.624,1.005 0.913,1.801 0.869,2.377 -0.084,0.826 -0.597,1.688 -1.534,2.565 l -0.652,0.611 0.393,1.023 c 0.896,1.985 -0.206,3.932 -3.288,5.812 l -0.401,0.182 -0.129,0.367 c -1.101,2.348 -3.009,3.772 -5.704,4.273 -1.468,0.268 -3.003,0.115 -4.613,-0.477 -1.796,-0.648 -3.299,-1.74 -4.523,-3.248 -0.991,-1.06 -1.6,-2.285 -1.826,-3.674"
         id="path765" />
      <path
         inkscape:connector-curvature="0"
         style="fill:#e83434"
         d="m 511.712,440.179 1.832,-0.579 c 0.226,1.39 0.835,2.614 1.825,3.676 1.225,1.508 2.728,2.6 4.523,3.248 1.61,0.592 3.146,0.744 4.613,0.477 2.695,-0.501 4.604,-1.926 5.704,-4.273 l 0.129,-0.367 0.401,-0.182 c 3.082,-1.88 4.185,-3.826 3.288,-5.812 l -0.393,-1.023 0.65,-0.611 c 0.939,-0.877 1.452,-1.739 1.536,-2.565 0.044,-0.576 -0.245,-1.372 -0.869,-2.377 -1.169,-1.588 -4.997,-1.945 -11.487,-1.076 l -0.182,-0.869 c 0.913,-0.51 1.877,-0.917 2.887,-1.196 -1.216,-0.628 -2.416,-0.81 -3.608,-0.541 -2.288,0.34 -3.882,1.614 -4.771,3.819 l -1.312,2.882 -2.293,-0.338 c 0.619,-2.221 1.32,-3.982 2.113,-5.261 0.753,-1.288 1.654,-2.199 2.701,-2.742 1.271,-0.677 2.746,-0.921 4.42,-0.745 2.326,0.387 4.055,1.214 5.207,2.459 1.944,-0.201 4.057,-0.041 6.308,0.479 2.734,1.133 3.951,3.119 3.646,5.95 -0.054,1.175 -0.605,2.323 -1.651,3.463 1.153,2.899 -0.32,5.636 -4.416,8.214 -1.526,3.087 -3.733,4.842 -6.624,5.265 -1.702,0.25 -3.829,0.01 -6.382,-0.718 -2.381,-0.678 -4.4,-2.038 -6.043,-4.085 -1.129,-1.684 -1.713,-3.203 -1.752,-4.572"
         id="path767" />
      <path
         inkscape:connector-curvature="0"
         style="fill:#fedb00"
         d="m 492.607,424.776 -0.271,-0.05 -0.842,-0.126 c -0.664,7.12 1.049,12.729 5.129,16.801 l 13.451,-12.616 0.706,-0.81 c -1.978,-1.559 -2.747,-3.613 -2.313,-6.173 l -15.86,2.974 z"
         id="path769" />
      <path
         inkscape:connector-curvature="0"
         style="fill:#0076bf"
         d="m 492.337,424.727 0.271,0.05 15.86,-2.974 c 0.508,-3.015 2.699,-6.72 6.547,-11.102 -6.485,-6.632 -13.104,-6.771 -19.852,-0.399 -2.057,5.3 -3.285,10.059 -3.672,14.281 l 0.846,0.144 z"
         id="path771" />
      <path
         inkscape:connector-curvature="0"
         style="fill:#e83827"
         d="m 516.052,430.392 c -2.243,-0.6 -4.01,-1.405 -5.271,-2.416 l -0.706,0.81 -13.451,12.616 c 4.261,4.27 11.105,6.88 20.551,7.825 l -1.123,-18.835 z"
         id="path773" />
      <path
         inkscape:connector-curvature="0"
         style="fill:none;stroke:#fcdf00;stroke-width:0.26300001;stroke-linecap:square;stroke-linejoin:round;stroke-miterlimit:10"
         d="m 508.917,421.719 -0.449,0.084 -15.86,2.974 m 17.467,4.008 -13.451,12.616"
         id="path775" />
      <path
         inkscape:connector-curvature="0"
         style="fill:none;stroke:#003c90;stroke-width:2.10700011;stroke-linecap:square;stroke-miterlimit:10"
         d="m 515.015,410.701 c -3.848,4.382 -6.039,8.087 -6.547,11.102 -0.434,2.56 0.336,4.614 2.313,6.173 1.261,1.011 3.027,1.816 5.271,2.416 l 1.123,18.835 c -9.445,-0.945 -16.29,-3.556 -20.551,-7.825 -4.08,-4.072 -5.793,-9.681 -5.129,-16.801 -0.012,-0.008 -0.012,-0.008 -0.004,-0.018 0.387,-4.223 1.615,-8.981 3.672,-14.281"
         id="path777" />
      <path
         inkscape:connector-curvature="0"
         style="fill:#f9d300"
         d="m 492.116,395.304 c -1.501,0.709 -2.587,1.822 -3.27,3.336 -0.577,1.315 -0.885,2.707 -0.897,4.168 -0.015,1.488 0.295,2.882 0.95,4.207 l 0.229,0.43 c 0.254,0.403 0.549,0.777 0.911,1.141 0.04,0.04 0.095,0.093 0.161,0.134 1.086,0.897 2.252,1.662 3.497,2.304 1.474,0.765 2.989,1.447 4.558,2.051 1.648,0.617 3.322,1.126 5.012,1.515 1.193,0.294 2.373,0.549 3.564,0.763 1.246,0.229 2.493,0.403 3.738,0.524 1.326,0.186 2.641,0.334 3.954,0.455 1.058,0.054 2.104,0.094 3.137,0.105 h 0.978 0.455 0.912 c 0.241,-0.012 0.483,-0.012 0.736,-0.012 h 0.027 c 0.228,0 0.442,0 0.67,0.012 h 1.422 0.014 c 0.547,0 1.11,0 1.674,-0.012 0.791,-0.014 1.582,-0.055 2.386,-0.094 1.245,-0.121 2.466,-0.27 3.686,-0.455 1.165,-0.121 2.305,-0.296 3.416,-0.524 1.06,-0.214 2.104,-0.469 3.109,-0.763 1.461,-0.389 2.828,-0.897 4.103,-1.515 1.206,-0.604 2.317,-1.286 3.349,-2.051 0.858,-0.642 1.567,-1.406 2.132,-2.304 0.323,-0.443 0.603,-0.871 0.845,-1.286 l 0.214,-0.418 c 0.656,-1.325 0.963,-2.719 0.952,-4.207 -0.014,-1.461 -0.322,-2.853 -0.898,-4.168 -0.684,-1.514 -1.77,-2.627 -3.271,-3.336 -17.853,-1.836 -35.342,-1.836 -52.455,0"
         id="path779" />
      <path
         inkscape:connector-curvature="0"
         style="fill:#f9d300"
         d="m 520.741,416.424 c -0.253,0 -0.495,0 -0.736,0.012 h 0.456 0.978 c -0.228,-0.012 -0.442,-0.012 -0.67,-0.012 h -0.028 z"
         id="path781" />
      <path
         inkscape:connector-curvature="0"
         style="fill:none;stroke:#e83927;stroke-width:2.14400005;stroke-linecap:round;stroke-linejoin:round;stroke-miterlimit:10"
         d="m 488.847,398.64 c -0.577,1.315 -0.885,2.707 -0.897,4.168 -0.015,1.488 0.295,2.882 0.95,4.207 l 0.229,0.43 c 0.254,0.403 0.549,0.777 0.911,1.141 0.04,0.04 0.095,0.093 0.161,0.134 1.086,0.897 2.252,1.662 3.497,2.304 1.474,0.765 2.989,1.447 4.558,2.051 1.648,0.617 3.322,1.126 5.012,1.515 1.193,0.294 2.373,0.549 3.564,0.763 1.246,0.229 2.493,0.403 3.738,0.524 1.326,0.186 2.641,0.334 3.954,0.455 1.058,0.054 2.104,0.094 3.137,0.105 h 0.978 0.455 0.912 c 0.241,-0.012 0.483,-0.012 0.736,-0.012 h 0.027 c 0.228,0 0.442,0 0.67,0.012 h 1.422 0.014 c 0.547,0 1.11,0 1.674,-0.012 0.791,-0.014 1.582,-0.055 2.386,-0.094 1.245,-0.121 2.466,-0.27 3.686,-0.455 1.165,-0.121 2.305,-0.296 3.416,-0.524 1.06,-0.214 2.104,-0.469 3.109,-0.763 1.461,-0.389 2.828,-0.897 4.103,-1.515 1.206,-0.604 2.317,-1.286 3.349,-2.051 0.858,-0.642 1.567,-1.406 2.132,-2.304 0.323,-0.443 0.603,-0.871 0.845,-1.286 l 0.214,-0.418 c 0.656,-1.325 0.963,-2.719 0.952,-4.207 -0.014,-1.461 -0.322,-2.853 -0.898,-4.168 -0.684,-1.514 -1.77,-2.627 -3.271,-3.336 -17.852,-1.836 -35.34,-1.836 -52.453,0 -1.504,0.709 -2.588,1.822 -3.272,3.336 z"
         id="path783" />
      <path
         inkscape:connector-curvature="0"
         style="fill:#e83434"
         d="m 521.118,399.445 -2.117,-0.47 c -0.323,1.031 -0.578,2.144 -0.778,3.35 -0.188,1.192 -0.296,2.427 -0.309,3.699 -0.014,1.259 0.161,2.413 0.549,3.47 0.39,1.047 0.764,1.596 1.153,1.65 0.147,-0.161 0.268,-1.462 0.336,-3.9 0.067,-2.453 0.454,-5.052 1.166,-7.799"
         id="path785" />
      <path
         inkscape:connector-curvature="0"
         style="fill:#e83434"
         d="m 531.221,398.559 c 0.495,2.614 0.778,4.812 0.858,6.58 0.082,1.783 0.121,2.909 0.121,3.405 -0.014,0.495 0,1.125 0.038,1.889 0.04,0.764 0.149,1.449 0.351,2.078 0.187,0.616 0.387,1.006 0.615,1.166 0.282,-0.227 0.482,-0.51 0.604,-0.819 0.402,-0.922 0.59,-1.98 0.551,-3.175 0.08,-4.207 -0.282,-7.921 -1.072,-11.124 h -2.066 z"
         id="path787" />
      <path
         inkscape:connector-curvature="0"
         style="fill:#e83434"
         d="m 542.853,403.156 c -0.118,-1.005 -0.307,-1.996 -0.575,-2.96 -0.254,-0.953 -0.576,-1.852 -0.965,-2.682 l -1.85,0.375 c 0.859,2.197 1.421,4.275 1.676,6.246 0.268,1.942 0.47,2.988 0.617,3.122 0.349,-0.041 0.643,-0.483 0.896,-1.314 0.269,-0.844 0.336,-1.782 0.201,-2.787"
         id="path789" />
      <path
         inkscape:connector-curvature="0"
         style="fill:#e83434"
         d="m 495.011,399.579 c -0.295,0.924 -0.509,1.876 -0.645,2.853 -0.146,0.966 -0.066,1.85 0.229,2.655 0.134,0.361 0.282,0.656 0.43,0.856 0.175,0.256 0.375,0.39 0.576,0.403 0.054,-0.027 0.121,-0.161 0.189,-0.403 0.133,-0.468 0.294,-1.339 0.494,-2.586 0.295,-1.876 0.925,-3.874 1.877,-5.989 l -2.064,-0.363 c -0.428,0.79 -0.791,1.649 -1.086,2.574"
         id="path791" />
      <path
         inkscape:connector-curvature="0"
         style="fill:#e83434"
         d="m 506.845,397.153 -0.402,1.219 c -1.032,3.098 -1.541,6.083 -1.515,8.938 0.015,2.855 0.482,4.516 1.407,5 0.228,-0.309 0.362,-1.193 0.416,-2.681 0.174,-4.114 0.857,-7.88 2.076,-11.297 l -1.982,-1.179 z"
         id="path793" />
      <path
         inkscape:connector-curvature="0"
         style="fill:#f49c00"
         d="m 563.171,379.789 c 3.116,-0.218 5.776,-1.908 7.976,-5.058 2.186,-3.148 3.27,-6.851 3.242,-11.082 -0.013,-4.23 -1.146,-7.779 -3.374,-10.618 -2.229,-2.841 -4.913,-4.157 -8.026,-3.94 -3.13,0.22 -5.791,1.91 -7.977,5.059 -2.185,3.148 -3.271,6.851 -3.256,11.081 0.027,4.231 1.162,7.779 3.39,10.62 2.225,2.838 4.897,4.157 8.025,3.938"
         id="path795" />
      <path
         inkscape:connector-curvature="0"
         style="fill:none;stroke:#e83927;stroke-width:2.14400005;stroke-linecap:round;stroke-linejoin:round;stroke-miterlimit:10"
         d="m 563.171,379.789 c -3.128,0.219 -5.8,-1.1 -8.025,-3.938 -2.228,-2.841 -3.362,-6.389 -3.39,-10.62 -0.015,-4.23 1.071,-7.933 3.256,-11.081 2.186,-3.149 4.847,-4.839 7.977,-5.059 3.113,-0.217 5.798,1.099 8.026,3.94 2.228,2.839 3.361,6.388 3.374,10.618 0.027,4.231 -1.057,7.934 -3.242,11.082 -2.2,3.15 -4.86,4.84 -7.976,5.058 z"
         id="path797" />
      <path
         inkscape:connector-curvature="0"
         style="fill:#f49c00"
         d="m 554.205,339.349 c -9.784,-6.8 -21.235,-9.747 -34.351,-8.83 -13.102,0.916 -24.029,5.427 -32.8,13.524 -8.743,8.106 -12.751,17.442 -12.013,28.003 0.736,10.549 6.005,19.234 15.791,26.047 9.812,6.811 21.264,9.757 34.364,8.843 13.115,-0.92 24.044,-5.432 32.787,-13.538 8.757,-8.108 12.765,-17.443 12.027,-27.991 -0.738,-10.562 -6.005,-19.248 -15.805,-26.058"
         id="path799" />
      <path
         inkscape:connector-curvature="0"
         style="fill:none;stroke:#e83927;stroke-width:2.14400005;stroke-linecap:round;stroke-linejoin:round;stroke-miterlimit:10"
         d="m 519.854,330.519 c -13.102,0.916 -24.029,5.427 -32.8,13.524 -8.743,8.106 -12.751,17.442 -12.013,28.003 0.736,10.549 6.005,19.234 15.791,26.047 9.812,6.811 21.264,9.757 34.364,8.843 13.115,-0.92 24.044,-5.432 32.787,-13.538 8.757,-8.108 12.765,-17.443 12.027,-27.991 -0.739,-10.561 -6.007,-19.247 -15.807,-26.057 -9.782,-6.801 -21.233,-9.748 -34.349,-8.831 z"
         id="path801" />
      <path
         inkscape:connector-curvature="0"
         style="fill:#f49c00"
         d="m 485.212,359.663 c -0.162,-0.204 -0.338,-0.407 -0.527,-0.595 -2.6,-2.814 -5.472,-4.118 -8.602,-3.899 -3.115,0.218 -5.59,1.894 -7.4,5.018 -1.809,3.123 -2.439,6.793 -1.865,10.985 0.562,4.192 2.151,7.708 4.752,10.522 2.615,2.814 5.488,4.117 8.604,3.9 2.633,-0.185 4.792,-1.397 6.489,-3.639 l 0.042,-0.942 -1.493,-21.35 z"
         id="path803" />
      <path
         inkscape:connector-curvature="0"
         style="fill:none;stroke:#e83927;stroke-width:2.14400005;stroke-linecap:square;stroke-linejoin:round;stroke-miterlimit:10"
         d="m 486.662,381.955 c -1.697,2.241 -3.856,3.454 -6.489,3.639 -3.115,0.217 -5.988,-1.086 -8.604,-3.9 -2.601,-2.814 -4.189,-6.33 -4.752,-10.522 -0.574,-4.192 0.057,-7.862 1.865,-10.986 1.811,-3.123 4.285,-4.799 7.4,-5.017 3.13,-0.219 6.002,1.085 8.602,3.899 0.189,0.188 0.365,0.391 0.527,0.595"
         id="path805" />
      <path
         inkscape:connector-curvature="0"
         d="m 534.231,314.706 c 0.516,-0.896 1.64,-2.117 3.345,-3.646 1.596,-1.415 2.537,-2.139 2.818,-2.159 -1.488,-0.176 -3.197,0.009 -5.131,0.574 -3.841,1.169 -6.589,3.59 -8.25,7.294 -0.146,-2.852 -1.335,-5.079 -3.585,-6.681 -0.707,-0.501 -1.445,-0.894 -2.203,-1.162 -0.729,-0.259 -1.016,-0.32 -0.859,-0.182 1.467,2.704 0.99,5.882 -1.403,9.528 -1.141,-1.168 -1.638,-3.46 -1.472,-6.855 0.152,-3.02 0.436,-4.732 0.877,-5.14 -1.166,0.619 -2.337,1.574 -3.494,2.878 -1.832,2.049 -2.869,4.297 -3.102,6.744 -0.788,-0.307 -1.573,-0.601 -2.385,-0.88 -3.815,-1.333 -7.43,-1.724 -10.87,-1.174 0.276,0.302 1.112,1.117 2.511,2.457 0.158,0.164 0.685,0.973 1.577,2.402 -1.946,-1.516 -4.388,-2.607 -7.324,-3.276 -2.933,-0.683 -5.538,-0.849 -7.812,-0.49 0.959,0.834 2.527,1.934 4.721,3.326 1.894,1.358 3.219,2.825 3.975,4.397 -1.669,-0.999 -3.302,-1.664 -4.896,-1.996 -2.973,-0.638 -6.293,-0.084 -9.973,1.639 0.58,0.052 1.307,0.244 2.192,0.584 0.866,0.329 1.88,0.81 3.038,1.414 2.439,1.267 3.855,2.296 4.273,3.086 -2.014,0.021 -4.209,0.147 -6.568,0.406 -2.361,0.246 -4.392,0.777 -6.082,1.58 -1.691,0.803 -3.233,1.973 -4.618,3.507 3.031,-1.03 6.149,-1.398 9.354,-1.097 3.205,0.299 5.117,0.959 5.767,1.988 -4.179,0.158 -7.418,0.733 -9.711,1.741 -2.294,1.006 -3.738,1.845 -4.322,2.545 1.27,-0.29 2.668,-0.469 4.182,-0.535 1.513,-0.064 3.705,0.171 6.592,0.708 -4.232,3.078 -8.807,4.122 -13.754,3.112 0.633,0.6 1.262,1.146 1.902,1.653 0.682,0.544 1.418,1.069 2.219,1.565 0.828,0.52 1.716,0.901 2.659,1.157 0.835,0.224 1.695,0.419 2.552,0.574 0.886,0.166 1.766,0.266 2.652,0.271 9.116,0.304 16.592,-1.335 22.402,-4.911 -1.821,2.599 -3.849,4.73 -6.098,6.378 -0.09,0.072 -0.108,0.182 -0.061,0.299 0.05,0.131 0.12,0.166 0.212,0.119 2.321,-0.793 4.328,-2.061 6.035,-3.793 1.466,-1.486 2.778,-3.095 3.921,-4.829 1.565,-1.815 3.415,-3.018 5.551,-3.599 1.171,-0.337 2.459,-0.574 3.885,-0.741 1.453,-0.169 2.908,-0.298 4.353,-0.385 0.173,-0.012 0.362,-0.012 0.563,-0.012 2.146,-0.057 4.014,0.136 5.603,0.601 1.577,0.442 2.875,0.955 3.896,1.529 0.098,0.046 0.182,0.108 0.255,0.171 0.095,-0.37 0.653,-1.028 1.661,-1.971 0.97,-0.927 2.164,-1.347 3.566,-1.27 3.656,0.228 6.896,1.426 9.736,3.591 0.37,0.296 0.752,0.579 1.146,0.833 0.647,0.451 1.309,0.877 1.998,1.299 0.688,0.447 1.427,0.826 2.188,1.149 0.541,0.246 1.117,0.432 1.721,0.579 1.041,0.29 2.07,0.231 3.076,-0.189 0.86,-0.356 1.646,-0.84 2.343,-1.453 0.24,-0.219 0.49,-0.478 0.766,-0.779 0.512,-0.56 0.966,-1.157 1.365,-1.789 0.45,-0.663 0.83,-1.373 1.113,-2.147 -0.668,0.061 -1.393,0.084 -2.171,0.072 -0.27,-0.021 -0.554,-0.029 -0.837,-0.048 -1.831,-0.074 -3.301,-0.334 -4.394,-0.782 -0.249,-0.103 -0.487,-0.22 -0.696,-0.341 -0.727,-0.419 -1.524,-0.712 -2.386,-0.881 -0.027,-0.012 -0.053,-0.009 -0.083,-0.02 4.68,-1.308 7.358,-3.713 8.067,-7.228 -3.994,1.475 -7.846,1.73 -11.555,0.754 l 0.803,-0.245 c 1.377,-0.472 2.822,-1.903 4.321,-4.277 0.812,-1.279 1.358,-2.299 1.654,-3.031 0.173,-0.429 0.256,-0.772 0.252,-1.026 -0.844,0.409 -1.783,0.811 -2.816,1.205 -0.614,0.245 -1.284,0.479 -1.979,0.715 -1.036,0.356 -2.022,0.653 -2.962,0.867 -2.379,0.528 -4.393,0.575 -6.035,0.139 0.864,-0.114 2.062,-0.681 3.602,-1.703 1.655,-1.123 2.846,-1.77 3.558,-1.967 -1.808,0.084 -3.238,0.186 -4.305,0.301 -1.921,0.2 -4.119,0.838 -6.611,1.886 1.985,-1.765 4.76,-3.195 8.298,-4.263 0.409,-0.135 -0.972,-0.24 -4.144,-0.3 -3.137,-0.063 -5.375,0.16 -6.738,0.685 -1.961,0.742 -3.529,1.779 -4.713,3.097 0.077,-1.388 0.505,-2.761 1.282,-4.146"
         id="path807" />
      <path
         inkscape:connector-curvature="0"
         style="fill:#e83434"
         d="m 559.125,381.193 c -3.587,3.353 -8.371,6.038 -14.348,8.024 -3.397,1.138 -6.789,1.884 -10.166,2.237 -3.394,0.356 -6.837,0.327 -10.341,-0.086 -6.169,-0.713 -11.252,-2.361 -15.256,-4.917 8.305,6.683 16.908,9.43 25.8,8.269 8.947,-0.709 17.044,-5.209 24.311,-13.527"
         id="path809" />
      <path
         inkscape:connector-curvature="0"
         style="fill:#ffffff"
         d="m 543.629,347.153 c -2.105,1.801 -3.041,4.162 -2.823,7.104 0.207,2.94 1.52,5.589 3.928,7.946 2.423,2.369 5.233,3.759 8.419,4.14 3.199,0.408 5.848,-0.301 7.951,-2.114 2.118,-1.8 3.053,-4.164 2.837,-7.103 -0.22,-2.941 -1.547,-5.589 -3.956,-7.945 -2.408,-2.358 -5.203,-3.734 -8.403,-4.143 -3.185,-0.381 -5.836,0.315 -7.953,2.115"
         id="path811" />
      <path
         inkscape:connector-curvature="0"
         style="fill:#ffffff"
         d="m 536.771,351.503 c -1.438,-2.709 -3.919,-4.375 -7.416,-4.99 -3.492,-0.604 -6.995,0.033 -10.507,1.888 -3.482,1.871 -5.964,4.435 -7.417,7.666 -1.454,3.233 -1.459,6.215 -0.019,8.95 1.466,2.731 3.946,4.384 7.44,4.988 3.497,0.614 6.999,-0.02 10.481,-1.889 3.512,-1.857 5.993,-4.409 7.446,-7.64 1.453,-3.26 1.459,-6.241 -0.008,-8.973"
         id="path813" />
      <path
         inkscape:connector-curvature="0"
         d="m 545.335,353.784 c 0.793,-1.21 1.844,-1.92 3.176,-2.133 1.335,-0.213 2.539,0.118 3.642,0.986 1.104,0.894 1.759,2.069 1.971,3.548 0.212,1.48 -0.067,2.81 -0.836,4.017 -0.791,1.224 -1.84,1.947 -3.174,2.16 -1.332,0.213 -2.539,-0.117 -3.643,-1.011 -1.116,-0.895 -1.785,-2.066 -1.996,-3.545 -0.211,-1.482 0.068,-2.811 0.86,-4.022"
         id="path815" />
      <path
         inkscape:connector-curvature="0"
         d="m 526.544,354.61 c -1.069,-1.103 -2.354,-1.664 -3.879,-1.678 -1.526,-0.015 -2.829,0.497 -3.932,1.538 -1.104,1.07 -1.664,2.353 -1.68,3.88 -0.016,1.526 0.497,2.828 1.539,3.931 1.07,1.118 2.354,1.692 3.881,1.706 1.525,0.016 2.828,-0.496 3.933,-1.565 1.116,-1.071 1.688,-2.356 1.707,-3.882 0.013,-1.525 -0.5,-2.827 -1.569,-3.93"
         id="path817" />
      <path
         inkscape:connector-curvature="0"
         style="fill:#e83827"
         d="m 549.719,362.11 c -2.327,-2.255 -5.021,-3.277 -8.077,-3.062 -3.055,0.214 -5.579,1.599 -7.572,4.156 -2.006,2.545 -2.892,5.508 -2.656,8.892 0.237,3.381 1.525,6.194 3.868,8.434 2.33,2.256 5.021,3.275 8.076,3.062 3.056,-0.214 5.581,-1.6 7.574,-4.158 2.006,-2.544 2.891,-5.506 2.653,-8.89 -0.236,-3.381 -1.525,-6.192 -3.866,-8.434"
         id="path819" />
    </g>
  </g>
</svg>
