<?xml version="1.0" encoding="UTF-8" standalone="no"?>
<!-- Created with Inkscape (http://www.inkscape.org/) -->

<svg
   xmlns:dc="http://purl.org/dc/elements/1.1/"
   xmlns:cc="http://creativecommons.org/ns#"
   xmlns:rdf="http://www.w3.org/1999/02/22-rdf-syntax-ns#"
   xmlns:svg="http://www.w3.org/2000/svg"
   xmlns="http://www.w3.org/2000/svg"
   xmlns:sodipodi="http://sodipodi.sourceforge.net/DTD/sodipodi-0.dtd"
   xmlns:inkscape="http://www.inkscape.org/namespaces/inkscape"
   width="114.54166"
   height="186.78816"
   id="svg5696"
   version="1.1"
   inkscape:version="0.48.4 r9939"
   sodipodi:docname="ernie12.svg">
  <defs
     id="defs5698">
    <clipPath
       id="SVGID_2_">
      <rect
         height="88.862999"
         width="111.498"
         y="518.96198"
         x="382.04999"
         id="use1087" />
    </clipPath>
    <clipPath
       id="SVGID_4_">
      <rect
         height="41.314999"
         width="49.584999"
         y="525.19397"
         x="389.84698"
         id="use1111" />
    </clipPath>
  </defs>
  <sodipodi:namedview
     id="base"
     pagecolor="#ffffff"
     bordercolor="#666666"
     borderopacity="1.0"
     inkscape:pageopacity="0.0"
     inkscape:pageshadow="2"
     inkscape:zoom="0.77472527"
     inkscape:cx="26.500533"
     inkscape:cy="95.213651"
     inkscape:current-layer="layer1"
     inkscape:document-units="px"
     showgrid="false"
     inkscape:window-width="763"
     inkscape:window-height="591"
     inkscape:window-x="592"
     inkscape:window-y="97"
     inkscape:window-maximized="0"
     fit-margin-top="0"
     fit-margin-left="0"
     fit-margin-right="0"
     fit-margin-bottom="0" />
  <metadata
     id="metadata5701">
    <rdf:RDF>
      <cc:Work
         rdf:about="">
        <dc:format>image/svg+xml</dc:format>
        <dc:type
           rdf:resource="http://purl.org/dc/dcmitype/StillImage" />
        <dc:title></dc:title>
      </cc:Work>
    </rdf:RDF>
  </metadata>
  <g
     id="layer1"
     inkscape:label="Layer 1"
     inkscape:groupmode="layer"
     transform="translate(-291.44275,6.46813)">
    <g
       transform="translate(-205.4922,-545.92013)"
       id="g1233">
      <path
         inkscape:connector-curvature="0"
         style="fill:#003c90"
         d="m 602.268,625.132 c 0.287,0.045 0.516,0.19 0.685,0.426 6.396,9.083 8.659,17.026 6.788,23.804 -0.016,0.052 -0.032,0.104 -0.049,0.154 -2.099,4.722 -5.15,8.024 -9.154,9.898 -5.121,2.438 -10.241,3.568 -15.357,3.396 -0.025,-0.002 -0.052,-0.004 -0.093,-0.005 l -13.025,-1.651 c -0.237,-0.029 -0.439,-0.133 -0.614,-0.304 -0.161,-0.167 -0.265,-0.37 -0.306,-0.599 l -2.75,-19.825 c -0.024,-0.211 0.013,-0.406 0.103,-0.598 0.091,-0.192 0.234,-0.355 0.426,-0.462 0.189,-0.107 0.39,-0.146 0.602,-0.134 l 17.964,1.312 -1.711,-2.821 c -0.132,-0.232 -0.182,-0.485 -0.124,-0.76 0.055,-0.272 0.187,-0.489 0.409,-0.646 l 15.42,-11.012 c 0.246,-0.167 0.513,-0.231 0.786,-0.173 m 5.965,19.627 c -0.009,-0.093 -0.002,-0.17 -0.011,-0.265 -0.031,-5.023 -2.159,-10.639 -6.39,-16.847 l -13.75,9.824 2.247,3.713 c 0.023,0.041 0.049,0.067 0.061,0.107 l 0.258,0.504 0.141,0.3 c 1.519,2.505 2.699,4.938 3.556,7.272 -1.544,-2.126 -3.397,-4.338 -5.585,-6.62 l -1.446,-0.104 -0.194,-0.236 0.104,0.23 -16.559,-1.213 2.456,17.738 12.19,1.546 c 3.274,0.099 6.559,-0.37 9.826,-1.42 0.097,-0.034 0.175,-0.056 0.256,-0.075 1.412,-0.467 2.834,-1.039 4.245,-1.702 3.532,-1.678 6.23,-4.595 8.084,-8.765 0.329,-1.281 0.493,-2.615 0.511,-3.987 m -17.731,-2.946 -0.008,-0.039 c -0.002,0.012 -0.002,0.012 -0.002,0.026 l 0.01,0.013 z"
         id="path1235" />
      <path
         inkscape:connector-curvature="0"
         style="fill:#fedb00"
         d="m 608.223,644.494 c 0.009,0.095 0.002,0.172 0.011,0.265 -0.019,1.372 -0.183,2.706 -0.511,3.989 -1.854,4.17 -4.552,7.087 -8.084,8.765 -1.411,0.663 -2.833,1.235 -4.245,1.702 -0.081,0.02 -0.159,0.041 -0.256,0.075 l -7.914,-16.651 -0.104,-0.23 0.194,0.236 1.446,0.104 c 2.188,2.282 4.041,4.494 5.585,6.62 -0.856,-2.334 -2.037,-4.768 -3.556,-7.272 l -0.141,-0.3 17.575,2.697 z"
         id="path1237" />
      <path
         inkscape:connector-curvature="0"
         style="fill:#e83827"
         d="m 601.833,627.647 c 4.23,6.208 6.358,11.823 6.39,16.847 l -17.574,-2.698 -0.258,-0.504 c -0.012,-0.04 -0.037,-0.066 -0.061,-0.107 l -2.247,-3.713 13.75,-9.825 z"
         id="path1239" />
      <path
         inkscape:connector-curvature="0"
         style="fill:#0076bf"
         d="m 570.665,641.426 16.559,1.213 7.914,16.651 c -3.268,1.05 -6.552,1.519 -9.826,1.42 l -12.19,-1.546 -2.457,-17.738 z"
         id="path1241" />
      <path
         inkscape:connector-curvature="0"
         style="fill:#fedb00"
         d="m 590.494,641.774 0.008,0.039 -0.01,-0.013 c 0,-0.014 0,-0.014 0.002,-0.026"
         id="path1243" />
      <path
         inkscape:connector-curvature="0"
         style="fill:#e83434"
         d="m 570.96,709.212 c 0.739,0.357 1.518,0.661 2.323,0.912 1.544,-2.943 3.539,-5.255 5.98,-6.932 0.831,0.158 1.649,0.33 2.455,0.526 0.08,0.04 0.171,0.055 0.291,0.066 -3.156,1.558 -5.439,5.017 -6.88,10.379 -0.024,0.118 -0.052,0.236 -0.09,0.382 -0.213,1.479 -0.437,2.442 -0.675,2.891 -0.238,0.49 -0.382,0.727 -0.436,0.715 -0.105,0.012 -0.211,0.052 -0.304,0.091 -1.057,0.237 -2.14,0.105 -3.261,-0.408 -1.109,-0.517 -2.178,-1.121 -3.223,-1.849 -1.027,-0.727 -1.979,-1.439 -2.853,-2.124 -0.855,-0.688 -1.754,-1.507 -2.69,-2.469 -0.938,-0.966 -1.782,-1.892 -2.537,-2.788 -0.75,-0.898 -1.477,-1.319 -2.165,-1.252 0.939,-3.606 2.007,-6.233 3.209,-7.884 4.29,1.939 9.175,2.958 14.653,3.062 0.478,0.079 1.006,0.144 1.574,0.184 -2.708,2.604 -4.478,4.489 -5.308,5.679 -0.171,0.292 -0.183,0.569 -0.063,0.819 m -5.891,-0.7 c 0.106,-0.831 -0.053,-1.608 -0.474,-2.335 -0.396,-0.727 -0.938,-1.269 -1.612,-1.613 -0.672,-0.329 -1.279,-0.408 -1.847,-0.21 -0.557,0.198 -0.912,0.674 -1.069,1.438 -0.145,0.767 -0.039,1.652 0.317,2.668 0.407,0.886 0.976,1.531 1.675,1.941 0.702,0.41 1.334,0.433 1.901,0.077 0.622,-0.487 0.991,-1.132 1.109,-1.966"
         id="path1245" />
      <path
         inkscape:connector-curvature="0"
         style="fill:#ffffff"
         d="m 564.596,706.177 c 0.421,0.727 0.58,1.504 0.474,2.335 -0.118,0.834 -0.487,1.479 -1.108,1.967 -0.567,0.355 -1.199,0.333 -1.901,-0.077 -0.699,-0.41 -1.268,-1.056 -1.675,-1.941 -0.356,-1.016 -0.462,-1.901 -0.317,-2.668 0.157,-0.765 0.513,-1.24 1.069,-1.438 0.567,-0.198 1.175,-0.119 1.847,0.21 0.673,0.343 1.214,0.885 1.611,1.612"
         id="path1247" />
      <path
         inkscape:connector-curvature="0"
         style="fill:#ffffff"
         d="m 573.283,710.124 c -0.806,-0.251 -1.584,-0.555 -2.323,-0.912 -0.12,-0.25 -0.108,-0.527 0.066,-0.818 0.83,-1.189 2.6,-3.075 5.308,-5.679 0.974,0.148 1.953,0.306 2.93,0.478 -2.442,1.676 -4.437,3.988 -5.981,6.931"
         id="path1249" />
      <path
         inkscape:connector-curvature="0"
         style="fill:#ffffff"
         d="m 559.062,708.604 c 0.755,0.896 1.599,1.822 2.537,2.788 0.937,0.962 1.835,1.78 2.69,2.469 0.873,0.685 1.825,1.397 2.853,2.124 1.045,0.728 2.113,1.332 3.223,1.849 1.121,0.514 2.204,0.646 3.261,0.408 0.093,-0.039 0.198,-0.079 0.304,-0.091 0.054,0.012 0.197,-0.225 0.436,-0.715 0.238,-0.448 0.462,-1.411 0.675,-2.891 0.038,-0.146 0.065,-0.264 0.09,-0.382 1.44,-5.362 3.724,-8.821 6.88,-10.379 2.997,0.739 5.4,1.69 7.235,2.852 3.168,2.153 4.739,4.53 4.7,7.144 -0.015,0.12 -0.025,0.253 -0.015,0.37 -0.104,2.401 -1.69,4.396 -4.753,5.993 -3.444,1.65 -7.551,2.364 -12.302,2.112 -6.062,-0.039 -12.427,-3.908 -19.12,-11.604 -0.858,-0.728 -1.188,-1.61 -1.016,-2.682 0.053,-0.197 0.107,-0.396 0.157,-0.618 0.689,-0.066 1.415,0.355 2.165,1.253"
         id="path1251" />
      <path
         inkscape:connector-curvature="0"
         style="fill:none;stroke:#e83927;stroke-width:2.11199999;stroke-linecap:round;stroke-linejoin:round;stroke-miterlimit:10"
         d="m 556.74,707.971 c -0.172,1.071 0.157,1.954 1.016,2.682 6.693,7.695 13.058,11.564 19.12,11.604 4.751,0.252 8.857,-0.462 12.302,-2.112 3.062,-1.598 4.648,-3.592 4.753,-5.993 -0.011,-0.117 0,-0.25 0.015,-0.37 0.039,-2.613 -1.532,-4.99 -4.7,-7.144 -1.835,-1.161 -4.238,-2.112 -7.235,-2.852 -0.12,-0.012 -0.211,-0.026 -0.291,-0.066 -0.806,-0.196 -1.624,-0.368 -2.455,-0.526 -0.977,-0.172 -1.956,-0.329 -2.93,-0.478 -0.568,-0.04 -1.097,-0.104 -1.574,-0.184 -5.479,-0.104 -10.363,-1.123 -14.653,-3.062 -1.202,1.65 -2.27,4.277 -3.209,7.884 -0.051,0.221 -0.106,0.419 -0.159,0.617 z"
         id="path1253" />
      <path
         inkscape:connector-curvature="0"
         style="fill:#003c90"
         d="m 586.292,672.23 c 0.008,0.397 0.037,0.779 0.065,1.134 0.438,7.457 0.294,13.197 -0.414,17.209 -1.09,4.068 -2.77,8.313 -5.057,12.73 -0.064,0.128 -0.128,0.282 -0.202,0.438 -0.144,0.03 -0.298,0.087 -0.435,0.142 -8.888,3.035 -16.289,2.19 -22.205,-2.512 -0.157,-0.105 -0.311,-0.166 -0.487,-0.199 -0.856,-7.499 -1.821,-15.957 -2.896,-25.373 10.535,-1.161 21.077,-2.352 31.631,-3.569 m -5.146,25.796 c -10e-4,-0.023 0.009,-0.054 0.044,-0.084 1.218,-2.595 2.11,-5.141 2.663,-7.635 0.654,-3.687 0.8,-8.925 0.452,-15.714 -9.174,1.115 -18.262,2.14 -27.278,3.075 0.768,6.608 1.47,12.877 2.131,18.792 0.137,1.207 0.261,2.399 0.368,3.57 5.192,3.938 11.749,4.609 19.704,2.016 0.68,-1.379 1.31,-2.713 1.916,-4.02"
         id="path1255" />
      <path
         inkscape:connector-curvature="0"
         style="fill:#a4c6e9"
         d="m 581.19,697.942 c -0.035,0.03 -0.045,0.061 -0.044,0.084 -0.606,1.307 -1.236,2.641 -1.916,4.021 -7.955,2.594 -14.512,1.922 -19.704,-2.016 -0.107,-1.171 -0.231,-2.363 -0.368,-3.57 5.248,3.506 12.585,3.996 22.032,1.481"
         id="path1257" />
      <path
         inkscape:connector-curvature="0"
         style="fill:#5390cd"
         d="m 583.854,690.308 c -0.553,2.494 -1.445,5.04 -2.663,7.635 -9.447,2.515 -16.784,2.024 -22.032,-1.481 -0.661,-5.915 -1.363,-12.184 -2.131,-18.792 9.017,-0.936 18.104,-1.96 27.278,-3.075 0.347,6.788 0.202,12.026 -0.452,15.713"
         id="path1259" />
      <path
         inkscape:connector-curvature="0"
         style="fill:#e83434"
         d="m 554.805,705.802 c 0.886,0.205 1.719,0.412 2.515,0.646 0.094,0.023 0.188,0.05 0.283,0.085 -2.78,1.813 -4.612,5.271 -5.487,10.354 l -0.053,0.37 c -0.125,1.467 -0.307,2.448 -0.563,2.938 -0.257,0.495 -0.411,0.75 -0.477,0.75 l -0.376,0.101 c -1.076,0.247 -2.223,0.298 -3.408,0.152 -1.275,-0.118 -2.557,-0.315 -3.846,-0.59 -1.054,-0.201 -2.089,-0.429 -3.119,-0.658 -1.06,-0.24 -2.095,-0.507 -3.132,-0.801 -1.267,-0.385 -2.526,-0.818 -3.788,-1.303 -0.57,-0.239 -1.305,-0.529 -2.199,-0.878 l 0.673,-11.276 17.654,-0.91 c 0.693,0.104 1.362,0.223 2.016,0.338 -2.482,2.655 -4.038,4.797 -4.648,6.458 -0.134,0.347 -0.114,0.637 0.046,0.886 l 2.478,0.683 c 1.404,-3.168 3.214,-5.622 5.431,-7.345 m -19.847,6.232 c -0.564,0.617 -0.817,1.351 -0.759,2.205 0.062,0.854 0.416,1.572 1.062,2.153 0.637,0.593 1.382,0.881 2.237,0.861 0.858,-0.019 1.562,-0.338 2.125,-0.955 0.567,-0.607 0.817,-1.338 0.76,-2.193 -0.059,-0.854 -0.411,-1.574 -1.061,-2.167 -0.649,-0.592 -1.395,-0.881 -2.252,-0.861 -0.857,0.017 -1.559,0.336 -2.112,0.957"
         id="path1261" />
      <path
         inkscape:connector-curvature="0"
         style="fill:#ffffff"
         d="m 534.199,714.239 c -0.059,-0.854 0.194,-1.588 0.759,-2.205 0.553,-0.621 1.255,-0.94 2.112,-0.957 0.857,-0.02 1.603,0.27 2.252,0.861 0.649,0.593 1.002,1.312 1.061,2.167 0.058,0.855 -0.192,1.586 -0.76,2.193 -0.562,0.617 -1.267,0.937 -2.125,0.955 -0.855,0.02 -1.601,-0.269 -2.237,-0.861 -0.646,-0.58 -1,-1.298 -1.062,-2.153"
         id="path1263" />
      <path
         inkscape:connector-curvature="0"
         style="fill:#ffffff"
         d="m 551.497,705.12 c 1.163,0.213 2.276,0.442 3.308,0.682 -2.217,1.724 -4.026,4.177 -5.433,7.345 l -2.478,-0.683 c -0.16,-0.249 -0.18,-0.539 -0.046,-0.886 0.611,-1.661 2.167,-3.803 4.649,-6.458"
         id="path1265" />
      <path
         inkscape:connector-curvature="0"
         style="fill:#ffffff"
         d="m 557.603,706.533 c 2.925,0.848 5.225,1.866 6.902,3.03 3.038,2.099 4.639,4.437 4.819,7.032 0.007,0.119 0.017,0.25 0.01,0.369 0.037,2.438 -1.26,4.458 -3.896,6.058 -2.748,1.669 -6.396,2.379 -10.942,2.121 -6.355,-0.086 -13.657,-1.618 -21.918,-4.605 -1.066,-0.506 -1.552,-1.455 -1.465,-2.856 l 0.042,-0.713 c 0.895,0.349 1.629,0.639 2.199,0.878 1.262,0.484 2.521,0.918 3.788,1.303 1.037,0.294 2.072,0.561 3.132,0.801 1.03,0.229 2.065,0.457 3.119,0.658 1.289,0.274 2.57,0.472 3.846,0.59 1.186,0.146 2.332,0.095 3.408,-0.152 l 0.376,-0.101 c 0.065,0 0.22,-0.255 0.477,-0.75 0.257,-0.49 0.438,-1.472 0.563,-2.938 l 0.053,-0.37 c 0.874,-5.084 2.706,-8.541 5.487,-10.355"
         id="path1267" />
      <path
         inkscape:connector-curvature="0"
         style="fill:none;stroke:#e83927;stroke-width:2.11199999;stroke-linecap:round;stroke-linejoin:round;stroke-miterlimit:10"
         d="m 557.319,706.448 c 0.094,0.023 0.188,0.05 0.283,0.085 2.925,0.848 5.225,1.866 6.902,3.03 3.038,2.099 4.639,4.437 4.819,7.032 0.007,0.119 0.017,0.25 0.01,0.369 0.037,2.438 -1.26,4.458 -3.896,6.058 -2.748,1.669 -6.396,2.379 -10.942,2.121 -6.355,-0.086 -13.657,-1.618 -21.918,-4.605 -1.066,-0.506 -1.552,-1.455 -1.465,-2.856 l 0.042,-0.713 0.673,-11.276 17.654,-0.91 c 0.693,0.104 1.362,0.223 2.016,0.338 1.163,0.213 2.276,0.442 3.308,0.682 0.885,0.204 1.718,0.411 2.514,0.645 z"
         id="path1269" />
      <path
         inkscape:connector-curvature="0"
         style="fill:#5390cd"
         d="m 557.48,677.829 -32.322,-0.487 c 0.437,7.842 1.666,15.46 3.712,22.853 8.989,1.294 18.39,1.742 28.187,1.361 l 0.423,-23.727 z"
         id="path1271" />
      <path
         inkscape:connector-curvature="0"
         style="fill:#a4c6e9"
         d="m 557.057,706.797 v -5.241 c -9.797,0.381 -19.197,-0.067 -28.187,-1.361 0.568,2.073 1.202,4.12 1.899,6.151 9.389,2.273 18.156,2.418 26.288,0.451"
         id="path1273" />
      <path
         inkscape:connector-curvature="0"
         style="fill:none;stroke:#003c90;stroke-width:2.11199999;stroke-linecap:square;stroke-miterlimit:10"
         d="m 525.158,677.342 c 0.437,7.842 1.666,15.46 3.712,22.853 0.568,2.073 1.202,4.12 1.899,6.151 9.389,2.273 18.155,2.418 26.287,0.451 v -5.241 l 0.424,-23.727 -32.322,-0.487 z"
         id="path1275" />
      <path
         inkscape:connector-curvature="0"
         style="fill:#5390cd"
         d="m 568.161,680.102 h -14.71 l 0.08,13.018 c 1.188,0.289 2.443,0.461 3.765,0.515 2.191,0.253 4.422,0.195 6.677,-0.158 l 1.546,0.129 c 0.597,-0.223 1.467,-0.485 2.643,-0.777 v -12.727 z"
         id="path1277" />
      <path
         inkscape:connector-curvature="0"
         style="fill:#003c90"
         d="m 557.296,693.634 0.17,2.098 c 3.313,-0.013 5.492,-0.766 6.507,-2.256 -2.255,0.353 -4.486,0.411 -6.677,0.158"
         id="path1279" />
      <path
         inkscape:connector-curvature="0"
         style="fill:#ffffff"
         d="m 585.733,647.187 c -0.016,-0.054 -0.016,-0.104 -0.028,-0.146 -0.118,0.028 -0.249,0.053 -0.367,0.092 0,0.014 0,0.04 0.01,0.066 0.015,0.026 0.015,0.053 0.029,0.094 0.674,3.393 1.162,6.823 1.438,10.271 0.198,-0.041 0.396,-0.094 0.595,-0.132 -0.356,-3.447 -0.926,-6.852 -1.677,-10.245"
         id="path1281" />
      <path
         inkscape:connector-curvature="0"
         style="fill:#0076bf"
         d="m 585.377,647.293 c -0.015,-0.041 -0.015,-0.067 -0.029,-0.094 -0.01,-0.026 -0.01,-0.053 -0.01,-0.066 -0.938,-4.62 -2.233,-9.201 -3.896,-13.73 -9.175,-2.125 -18.007,-3.249 -26.497,-3.379 h -0.082 c -8.486,0.13 -17.318,1.254 -26.508,3.379 -1.639,4.318 -2.943,8.688 -3.92,13.085 13.293,2.588 25.281,3.854 35.974,3.803 h 0.082 c 1.621,0.012 3.207,-0.014 4.75,-0.053 7.633,-0.253 14.339,-1.242 20.136,-2.945"
         id="path1283" />
      <path
         inkscape:connector-curvature="0"
         style="fill:#0076bf"
         d="m 585.338,647.133 c 0.118,-0.039 0.249,-0.063 0.367,-0.092 -1.045,-4.633 -2.454,-9.241 -4.237,-13.797 -9.188,-2.126 -18.033,-3.248 -26.523,-3.38 h -0.082 c -8.486,0.132 -17.318,1.254 -26.522,3.38 -1.701,4.369 -3.073,8.768 -4.091,13.203 -0.055,0.197 -0.106,0.409 -0.146,0.622 0.065,0.013 0.132,0.024 0.198,0.039 0.039,-0.213 0.093,-0.423 0.133,-0.621 0.977,-4.397 2.281,-8.767 3.92,-13.085 9.189,-2.125 18.021,-3.249 26.508,-3.379 h 0.082 c 8.49,0.13 17.322,1.254 26.497,3.379 1.662,4.53 2.957,9.111 3.896,13.731"
         id="path1285" />
      <path
         inkscape:connector-curvature="0"
         style="fill:#ffffff"
         d="m 565.24,650.237 c -1.543,0.039 -3.129,0.064 -4.75,0.053 h -0.082 c -10.692,0.052 -22.681,-1.215 -35.974,-3.803 -0.04,0.198 -0.094,0.408 -0.133,0.621 -0.014,0.038 -0.014,0.078 -0.026,0.117 -0.701,3.261 -1.201,6.533 -1.519,9.852 11.619,2.347 22.271,3.694 31.95,4.05 1.939,0.067 3.842,0.106 5.701,0.095 h 0.082 c 10.311,0.065 19.09,-1.097 26.338,-3.462 0,-0.052 0,-0.104 -0.013,-0.17 v -0.025 c -0.276,-3.448 -0.765,-6.879 -1.438,-10.271 -5.796,1.702 -12.502,2.691 -20.136,2.943"
         id="path1287" />
      <path
         inkscape:connector-curvature="0"
         style="fill:#e83827"
         d="m 560.49,661.222 h -0.082 c -1.859,0.012 -3.762,-0.027 -5.701,-0.095 -9.679,-0.355 -20.331,-1.703 -31.95,-4.05 -0.014,0.142 -0.025,0.303 -0.04,0.446 -0.015,0.027 -0.015,0.052 -0.015,0.081 -0.303,3.207 -0.436,6.44 -0.381,9.689 11.221,2.284 21.533,3.645 30.945,4.08 2.443,0.104 4.82,0.158 7.142,0.145 h 0.082 c 10.43,0.065 19.289,-1.107 26.576,-3.525 l -0.013,-0.066 h 0.013 v -0.025 c 0.117,-3.394 0.038,-6.774 -0.238,-10.142 -7.248,2.365 -16.027,3.527 -26.338,3.462"
         id="path1289" />
      <path
         inkscape:connector-curvature="0"
         style="fill:#fedb00"
         d="m 560.49,671.519 h -0.082 c -2.321,0.014 -4.698,-0.04 -7.142,-0.145 -9.412,-0.436 -19.725,-1.796 -30.945,-4.08 0,0.186 0,0.369 0.012,0.554 v 0.067 c 0.08,3.312 0.33,6.668 0.769,10.047 0.171,0.04 0.328,0.092 0.5,0.146 10.708,2.337 20.555,3.722 29.521,4.186 h 1.739 0.082 c 10.614,0.064 21.031,-1.334 31.237,-4.186 0.487,-3.922 0.779,-7.289 0.885,-10.114 -7.287,2.417 -16.146,3.59 -26.576,3.525"
         id="path1291" />
      <path
         inkscape:connector-curvature="0"
         style="fill:#e83827"
         d="m 587.422,657.564 c 0,-0.041 0,-0.094 -0.012,-0.132 -0.198,0.038 -0.396,0.091 -0.595,0.132 v 0.025 c 0.013,0.065 0.013,0.118 0.013,0.17 0.276,3.367 0.355,6.748 0.238,10.142 v 0.025 c 0.171,-0.038 0.355,-0.079 0.53,-0.118 0.09,-0.015 0.195,-0.039 0.3,-0.065 v -0.04 -0.04 c 0.029,-3.392 -0.129,-6.76 -0.474,-10.099"
         id="path1293" />
      <path
         inkscape:connector-curvature="0"
         style="fill:#e83827"
         d="m 586.815,657.59 v -0.025 0.025 z"
         id="path1295" />
      <path
         inkscape:connector-curvature="0"
         style="fill:#fedb00"
         d="m 587.597,667.809 c -0.175,0.039 -0.359,0.08 -0.53,0.118 v 0.066 c -0.105,2.825 -0.397,6.192 -0.885,10.114 0.357,-0.093 0.713,-0.199 1.069,-0.304 0.396,-3.368 0.607,-6.722 0.646,-10.061 -0.105,0.028 -0.21,0.052 -0.3,0.067"
         id="path1297" />
      <polygon
         style="fill:#fedb00"
         points="587.054,667.927 587.066,667.993 587.066,667.927 "
         id="polygon1299" />
      <path
         inkscape:connector-curvature="0"
         style="fill:#ffffff"
         d="m 524.275,647.226 c 0.013,-0.039 0.013,-0.079 0.026,-0.117 -0.066,-0.015 -0.133,-0.026 -0.198,-0.039 -0.738,3.286 -1.295,6.612 -1.649,9.952 -0.016,0.145 -0.041,0.279 -0.055,0.423 0.105,0.026 0.211,0.054 0.317,0.079 0.015,-0.144 0.026,-0.305 0.04,-0.446 0.318,-3.319 0.818,-6.592 1.519,-9.852"
         id="path1301" />
      <path
         inkscape:connector-curvature="0"
         style="fill:#e83827"
         d="m 522.717,657.523 c -0.106,-0.025 -0.212,-0.053 -0.317,-0.079 -0.342,3.234 -0.502,6.496 -0.487,9.757 v 0.554 c 0.146,0.039 0.276,0.066 0.421,0.093 -0.012,-0.185 -0.012,-0.368 -0.012,-0.554 -0.055,-3.249 0.078,-6.482 0.381,-9.689 -10e-4,-0.03 -10e-4,-0.054 0.014,-0.082"
         id="path1303" />
      <path
         inkscape:connector-curvature="0"
         style="fill:#fedb00"
         d="m 522.333,667.848 c -0.145,-0.026 -0.275,-0.054 -0.421,-0.093 0.04,3.327 0.25,6.681 0.646,10.049 0.174,0.054 0.357,0.104 0.544,0.158 -0.438,-3.379 -0.688,-6.734 -0.769,-10.047 v -0.067 z"
         id="path1305" />
      <path
         inkscape:connector-curvature="0"
         style="fill:#fedb00"
         d="m 553.123,682.293 c -8.967,-0.464 -18.813,-1.849 -29.521,-4.186 9.651,2.694 19.5,4.094 29.521,4.186"
         id="path1307" />
      <path
         inkscape:connector-curvature="0"
         style="fill:none;stroke:#003c90;stroke-width:2.11199999;stroke-linecap:square;stroke-miterlimit:10"
         d="m 585.348,647.199 c -0.01,-0.026 -0.01,-0.053 -0.01,-0.066 -0.938,-4.62 -2.233,-9.201 -3.896,-13.73 -9.175,-2.125 -18.007,-3.249 -26.497,-3.379 h -0.082 c -8.486,0.13 -17.318,1.254 -26.508,3.379 -1.639,4.318 -2.943,8.688 -3.92,13.085 -0.04,0.198 -0.094,0.408 -0.133,0.621 -0.014,0.038 -0.014,0.078 -0.026,0.117 -0.701,3.261 -1.201,6.533 -1.519,9.852 -0.014,0.142 -0.025,0.303 -0.04,0.446 -0.015,0.027 -0.015,0.052 -0.015,0.081 -0.303,3.207 -0.436,6.44 -0.381,9.689 0,0.186 0,0.369 0.012,0.554 v 0.067 c 0.08,3.312 0.33,6.668 0.769,10.047 v 0.026 c 0.171,0.039 0.328,0.08 0.5,0.119 10.708,2.337 20.555,3.722 29.521,4.186 2.377,0.117 4.701,0.172 6.956,0.157 h 0.079 c 10.259,0.066 18.92,-1.228 25.96,-3.854 0.011,-0.172 0.036,-0.33 0.063,-0.488 0.487,-3.922 0.779,-7.289 0.885,-10.114 v -0.066 -0.025 c 0.117,-3.394 0.038,-6.774 -0.238,-10.142 0,-0.052 0,-0.104 -0.013,-0.17 v -0.025 c -0.276,-3.448 -0.765,-6.879 -1.438,-10.271 -0.015,-0.043 -0.015,-0.069 -0.029,-0.096 z"
         id="path1309" />
      <path
         inkscape:connector-curvature="0"
         style="fill:#e83434"
         d="m 517.79,701.864 c 0.085,-0.039 0.169,-0.08 0.237,-0.129 2.554,-1.727 4.245,-5.453 5.038,-11.197 1.374,1.604 2.955,2.429 4.718,2.479 0.058,-0.005 0.111,-0.005 0.166,-0.01 2.373,-0.196 3.6,-1.643 3.651,-4.317 0.051,-2.205 -0.571,-4.445 -1.872,-6.696 -1.139,-1.996 -2.671,-3.977 -4.607,-5.97 l 1.935,-4.837 c 0.071,-0.175 0.086,-0.345 0.067,-0.531 -0.028,-0.184 -0.099,-0.355 -0.212,-0.497 -2.638,-3.44 -6.427,-5.414 -11.371,-5.938 -0.209,-0.016 -0.42,0.021 -0.62,0.126 -0.19,0.102 -0.332,0.258 -0.423,0.451 l -2.148,4.201 c -3.459,1.652 -5.755,3.725 -6.852,6.234 -6.63,3.476 -9.413,6.845 -8.337,10.085 0.036,0.156 0.108,0.299 0.214,0.415 1.558,1.893 3.655,2.554 6.293,2.014 -0.424,0.533 -0.836,1.46 -1.227,2.796 -0.775,1.829 -1.056,3.734 -0.831,5.714 0.177,1.749 1.131,2.771 2.864,3.065 l 0.017,0.009 c 2.179,0.404 4.084,-0.24 5.712,-1.936 0.633,-0.653 1.231,-1.339 1.824,-2.034 -0.064,1.15 -0.031,2.173 0.072,3.076 0.221,1.749 0.824,2.88 1.816,3.406 0.929,0.633 2.226,0.637 3.876,0.021 m -0.867,-1.928 c -0.815,0.296 -1.451,0.331 -1.922,0.108 -0.416,-0.309 -0.718,-0.835 -0.896,-1.577 -0.781,-3.226 -0.89,-6.329 -0.306,-9.326 -0.637,0.3 -1.101,1.093 -1.404,2.359 -0.166,0.218 -0.28,0.377 -0.36,0.472 l -0.009,0.018 c -1.038,1.384 -2.153,2.699 -3.342,3.954 -1.086,1.143 -2.366,1.586 -3.826,1.316 l -0.014,0.004 c -0.437,-0.083 -0.748,-0.274 -0.941,-0.585 -0.09,-0.148 -0.157,-0.322 -0.182,-0.535 -0.335,-1.107 -0.323,-2.252 0.027,-3.452 0.602,-2.599 1.81,-5.278 3.633,-8.015 -0.742,0.138 -1.325,0.335 -1.767,0.6 -1.276,0.275 -2.606,0.378 -3.998,0.333 -0.979,-0.091 -1.796,-0.453 -2.476,-1.08 -0.293,-2.288 2.26,-4.814 7.66,-7.603 0.239,-0.116 0.397,-0.305 0.501,-0.556 0.938,-2.264 3.021,-4.133 6.258,-5.62 0.232,-0.1 0.387,-0.259 0.499,-0.472 l 1.964,-3.87 c 3.743,0.517 6.687,2.041 8.848,4.569 l -1.958,4.897 c -0.072,0.204 -0.091,0.401 -0.054,0.61 0.051,0.206 0.147,0.381 0.289,0.529 2.023,2.007 3.604,4.016 4.76,6.02 1.093,1.901 1.627,3.771 1.588,5.615 -0.034,1.334 -0.595,2.089 -1.698,2.257 -0.536,-0.038 -1.053,-0.192 -1.534,-0.453 -0.215,-0.112 -0.421,-0.241 -0.617,-0.385 -0.351,-0.235 -0.673,-0.52 -0.962,-0.826 -0.594,-0.613 -1.117,-1.274 -1.592,-1.992 -0.353,-0.55 -0.753,-1.071 -1.174,-1.586 -0.455,1.396 -0.685,2.114 -0.66,2.148 -0.554,6.249 -1.997,10.285 -4.335,12.124"
         id="path1311" />
      <path
         inkscape:connector-curvature="0"
         style="fill:#f49c00"
         d="m 515.001,700.044 c 0.471,0.223 1.106,0.188 1.922,-0.108 2.338,-1.839 3.781,-5.875 4.336,-12.122 -0.024,-0.034 0.205,-0.753 0.66,-2.148 0.421,0.515 0.821,1.036 1.174,1.586 0.475,0.718 1.002,1.379 1.592,1.992 0.289,0.307 0.611,0.591 0.962,0.826 0.196,0.144 0.402,0.272 0.617,0.385 0.481,0.261 0.998,0.415 1.534,0.453 1.104,-0.168 1.664,-0.923 1.698,-2.257 0.039,-1.844 -0.495,-3.714 -1.588,-5.615 -1.155,-2.004 -2.736,-4.013 -4.76,-6.02 -0.142,-0.148 -0.238,-0.323 -0.289,-0.529 -0.037,-0.209 -0.019,-0.406 0.054,-0.61 l 1.958,-4.897 c -2.161,-2.528 -5.104,-4.053 -8.848,-4.569 l -1.964,3.87 c -0.112,0.213 -0.267,0.372 -0.499,0.472 -3.236,1.487 -5.32,3.356 -6.258,5.62 -0.104,0.251 -0.262,0.439 -0.501,0.556 -5.4,2.788 -7.953,5.314 -7.66,7.603 0.68,0.627 1.497,0.989 2.476,1.08 1.392,0.045 2.722,-0.058 3.998,-0.333 0.441,-0.265 1.024,-0.462 1.767,-0.6 -1.823,2.736 -3.031,5.416 -3.633,8.015 -0.351,1.2 -0.362,2.345 -0.027,3.452 0.024,0.213 0.092,0.387 0.182,0.535 0.193,0.311 0.505,0.502 0.941,0.585 l 0.014,-0.004 c 1.46,0.27 2.74,-0.174 3.826,-1.316 1.188,-1.255 2.304,-2.57 3.342,-3.954 l 0.009,-0.018 c 0.08,-0.095 0.194,-0.254 0.36,-0.472 0.304,-1.267 0.768,-2.06 1.404,-2.359 -0.584,2.997 -0.476,6.101 0.306,9.326 0.177,0.74 0.479,1.266 0.895,1.575"
         id="path1313" />
      <path
         inkscape:connector-curvature="0"
         style="fill:#30479b"
         d="m 501.602,696.232 c 0.003,0.014 0.003,0.014 0.008,0.024 l -0.008,-0.024 z"
         id="path1315" />
      <path
         inkscape:connector-curvature="0"
         style="fill:#e83827"
         d="m 507.185,670.149 c -0.344,1.041 -0.672,2.096 -0.998,3.188 6.83,1.992 13.61,3.196 20.355,3.604 0.467,-2.375 1.174,-4.648 2.116,-6.805 l -18.313,-7.899 c -1.171,2.481 -2.23,5.117 -3.16,7.912"
         id="path1317" />
      <path
         inkscape:connector-curvature="0"
         style="fill:#0076bf"
         d="m 519.435,648.413 c -1.039,1.118 -2.031,2.311 -2.975,3.562 l 16.492,11.009 c 1.478,-1.881 3.175,-3.671 5.114,-5.355 0.081,-0.078 0.179,-0.156 0.274,-0.235 1.811,-9.588 -2.13,-14.668 -11.834,-15.228 -2.546,1.805 -4.915,3.88 -7.071,6.247"
         id="path1319" />
      <path
         inkscape:connector-curvature="0"
         style="fill:#fedb00"
         d="m 510.49,661.912 c -0.034,0.071 -0.085,0.184 -0.146,0.325 l 18.313,7.899 c 1.099,-2.522 2.535,-4.916 4.294,-7.152 l -16.492,-11.009 c -2.249,2.978 -4.245,6.296 -5.969,9.937"
         id="path1321" />
      <path
         inkscape:connector-curvature="0"
         style="fill:none;stroke:#003c90;stroke-width:2.11100006;stroke-linecap:square;stroke-miterlimit:10"
         d="m 538.341,657.394 c -0.096,0.079 -0.193,0.157 -0.274,0.235 -1.939,1.685 -3.637,3.475 -5.114,5.355 -1.759,2.236 -3.195,4.63 -4.294,7.152 -0.942,2.156 -1.649,4.43 -2.116,6.805 -6.745,-0.407 -13.525,-1.611 -20.355,-3.604 0.326,-1.093 0.654,-2.147 0.998,-3.188 0.931,-2.795 1.989,-5.432 3.16,-7.912 0.061,-0.142 0.111,-0.254 0.146,-0.325 1.724,-3.641 3.72,-6.959 5.97,-9.937 0.943,-1.252 1.936,-2.444 2.975,-3.562 2.156,-2.367 4.525,-4.442 7.072,-6.247"
         id="path1323" />
      <path
         inkscape:connector-curvature="0"
         style="fill:#f9d300"
         d="m 529.015,628.649 c -1.477,0.699 -2.549,1.796 -3.223,3.288 -0.567,1.294 -0.87,2.668 -0.884,4.106 -0.014,1.466 0.291,2.838 0.937,4.146 l 0.226,0.424 c 0.251,0.395 0.542,0.763 0.897,1.121 0.041,0.039 0.092,0.091 0.16,0.132 1.068,0.885 2.219,1.637 3.446,2.271 1.45,0.75 2.944,1.425 4.487,2.019 1.621,0.607 3.273,1.108 4.938,1.493 1.175,0.29 2.336,0.541 3.512,0.751 1.226,0.226 2.455,0.396 3.682,0.517 1.309,0.184 2.604,0.329 3.896,0.446 1.042,0.055 2.072,0.096 3.089,0.105 h 0.963 0.448 0.898 c 0.237,-0.01 0.478,-0.01 0.727,-0.01 h 0.025 c 0.226,0 0.436,0 0.66,0.01 h 1.401 0.012 c 0.541,0 1.095,0 1.651,-0.01 0.777,-0.017 1.559,-0.056 2.348,-0.096 1.229,-0.117 2.431,-0.263 3.634,-0.447 1.147,-0.119 2.271,-0.29 3.365,-0.516 1.043,-0.21 2.071,-0.461 3.063,-0.751 1.439,-0.385 2.786,-0.886 4.042,-1.493 1.187,-0.594 2.282,-1.269 3.3,-2.019 0.845,-0.635 1.544,-1.387 2.099,-2.271 0.318,-0.437 0.593,-0.858 0.83,-1.268 l 0.214,-0.409 c 0.645,-1.308 0.948,-2.68 0.937,-4.146 -0.013,-1.438 -0.319,-2.812 -0.886,-4.106 -0.672,-1.492 -1.743,-2.589 -3.222,-3.288 -17.583,-1.807 -34.814,-1.807 -51.672,10e-4"
         id="path1325" />
      <path
         inkscape:connector-curvature="0"
         style="fill:#f9d300"
         d="m 557.215,649.459 c -0.249,0 -0.489,0 -0.727,0.01 h 0.45 0.962 c -0.225,-0.01 -0.435,-0.01 -0.66,-0.01 h -0.025 z"
         id="path1327" />
      <path
         inkscape:connector-curvature="0"
         style="fill:none;stroke:#e83927;stroke-width:2.11199999;stroke-linecap:round;stroke-linejoin:round;stroke-miterlimit:10"
         d="m 525.792,631.938 c -0.567,1.294 -0.87,2.668 -0.884,4.106 -0.014,1.466 0.291,2.838 0.937,4.146 l 0.226,0.424 c 0.251,0.395 0.542,0.763 0.897,1.121 0.041,0.039 0.092,0.091 0.16,0.132 1.068,0.885 2.219,1.637 3.446,2.271 1.45,0.75 2.944,1.425 4.487,2.019 1.621,0.607 3.273,1.108 4.938,1.493 1.175,0.29 2.336,0.541 3.512,0.751 1.226,0.226 2.455,0.396 3.682,0.517 1.309,0.184 2.604,0.329 3.896,0.446 1.042,0.055 2.072,0.096 3.089,0.105 h 0.963 0.448 0.898 c 0.237,-0.01 0.478,-0.01 0.727,-0.01 h 0.025 c 0.226,0 0.436,0 0.66,0.01 h 1.401 0.012 c 0.541,0 1.095,0 1.651,-0.01 0.777,-0.017 1.559,-0.056 2.348,-0.096 1.229,-0.117 2.431,-0.263 3.634,-0.447 1.147,-0.119 2.271,-0.29 3.365,-0.516 1.043,-0.21 2.071,-0.461 3.063,-0.751 1.439,-0.385 2.786,-0.886 4.042,-1.493 1.187,-0.594 2.282,-1.269 3.3,-2.019 0.845,-0.635 1.544,-1.387 2.099,-2.271 0.318,-0.437 0.593,-0.858 0.83,-1.268 l 0.214,-0.409 c 0.645,-1.308 0.948,-2.68 0.937,-4.146 -0.013,-1.438 -0.319,-2.812 -0.886,-4.106 -0.672,-1.492 -1.743,-2.589 -3.222,-3.288 -17.585,-1.809 -34.815,-1.809 -51.674,0 -1.475,0.7 -2.547,1.796 -3.221,3.289 z"
         id="path1329" />
      <path
         inkscape:connector-curvature="0"
         style="fill:#e83434"
         d="m 557.586,632.729 -2.086,-0.46 c -0.319,1.016 -0.569,2.11 -0.769,3.298 -0.184,1.176 -0.289,2.39 -0.304,3.646 -0.01,1.24 0.161,2.376 0.542,3.418 0.385,1.032 0.753,1.572 1.137,1.624 0.145,-0.158 0.264,-1.438 0.33,-3.84 0.066,-2.417 0.45,-4.979 1.15,-7.686"
         id="path1331" />
      <path
         inkscape:connector-curvature="0"
         style="fill:#e83434"
         d="m 567.54,631.858 c 0.486,2.575 0.765,4.74 0.845,6.482 0.08,1.756 0.118,2.864 0.118,3.354 -0.013,0.488 0,1.107 0.04,1.862 0.041,0.752 0.144,1.425 0.345,2.045 0.183,0.608 0.383,0.99 0.607,1.149 0.274,-0.225 0.474,-0.501 0.592,-0.806 0.398,-0.911 0.581,-1.953 0.543,-3.129 0.079,-4.144 -0.277,-7.804 -1.056,-10.958 h -2.034 z"
         id="path1333" />
      <path
         inkscape:connector-curvature="0"
         style="fill:#e83434"
         d="m 579,636.388 c -0.118,-0.99 -0.304,-1.969 -0.567,-2.92 -0.252,-0.936 -0.567,-1.82 -0.951,-2.641 l -1.823,0.371 c 0.849,2.164 1.399,4.21 1.649,6.152 0.267,1.914 0.465,2.942 0.609,3.075 0.342,-0.038 0.633,-0.476 0.884,-1.294 0.263,-0.83 0.33,-1.753 0.199,-2.743"
         id="path1335" />
      <path
         inkscape:connector-curvature="0"
         style="fill:#e83434"
         d="m 531.865,632.861 c -0.288,0.912 -0.502,1.849 -0.633,2.812 -0.144,0.951 -0.065,1.824 0.225,2.615 0.131,0.356 0.276,0.647 0.42,0.844 0.174,0.25 0.372,0.384 0.569,0.397 0.054,-0.025 0.12,-0.159 0.186,-0.397 0.131,-0.459 0.29,-1.318 0.488,-2.548 0.288,-1.848 0.913,-3.815 1.849,-5.9 l -2.034,-0.358 c -0.422,0.779 -0.777,1.623 -1.07,2.535"
         id="path1337" />
      <path
         inkscape:connector-curvature="0"
         style="fill:#e83434"
         d="m 543.523,630.472 -0.395,1.201 c -1.017,3.05 -1.52,5.994 -1.494,8.806 0.015,2.813 0.478,4.448 1.387,4.927 0.227,-0.304 0.356,-1.178 0.408,-2.643 0.175,-4.051 0.849,-7.762 2.046,-11.129 l -1.952,-1.162 z"
         id="path1339" />
      <path
         inkscape:connector-curvature="0"
         style="fill:#f49c00"
         d="m 595.465,620.028 c 3.03,0.499 5.964,-0.515 8.782,-3.032 2.808,-2.516 4.688,-5.814 5.622,-9.871 0.949,-4.051 0.669,-7.708 -0.82,-10.933 -1.483,-3.226 -3.756,-5.096 -6.786,-5.596 -3.046,-0.5 -5.979,0.512 -8.784,3.03 -2.807,2.519 -4.688,5.818 -5.635,9.87 -0.938,4.057 -0.659,7.711 0.83,10.936 1.486,3.225 3.745,5.095 6.791,5.596"
         id="path1341" />
      <path
         inkscape:connector-curvature="0"
         style="fill:none;stroke:#e83927;stroke-width:2.1099999;stroke-linecap:round;stroke-linejoin:round;stroke-miterlimit:10"
         d="m 595.465,620.028 c -3.046,-0.501 -5.305,-2.371 -6.791,-5.596 -1.489,-3.225 -1.768,-6.879 -0.83,-10.936 0.947,-4.052 2.828,-7.352 5.635,-9.87 2.805,-2.519 5.738,-3.53 8.784,-3.03 3.03,0.5 5.303,2.37 6.786,5.596 1.489,3.225 1.77,6.882 0.82,10.933 -0.934,4.057 -2.814,7.355 -5.622,9.871 -2.818,2.518 -5.752,3.531 -8.782,3.032 z"
         id="path1343" />
      <path
         inkscape:connector-curvature="0"
         style="fill:#f49c00"
         d="m 596.067,579.274 c -7.821,-8.732 -18.113,-14.158 -30.877,-16.26 -12.753,-2.101 -24.239,-0.262 -34.477,5.494 -10.212,5.775 -16.172,13.801 -17.864,24.08 -1.691,10.267 1.38,19.778 9.199,28.524 7.848,8.748 18.14,14.174 30.892,16.273 12.763,2.104 24.252,0.267 34.465,-5.51 10.224,-5.773 16.183,-13.797 17.874,-24.064 1.694,-10.275 -1.376,-19.79 -9.212,-28.537"
         id="path1345" />
      <path
         inkscape:connector-curvature="0"
         style="fill:none;stroke:#e83927;stroke-width:2.1099999;stroke-linecap:round;stroke-linejoin:round;stroke-miterlimit:10"
         d="m 565.19,563.015 c -12.753,-2.101 -24.239,-0.262 -34.477,5.494 -10.212,5.775 -16.172,13.801 -17.864,24.08 -1.691,10.267 1.38,19.778 9.199,28.524 7.848,8.748 18.14,14.174 30.892,16.273 12.763,2.104 24.252,0.267 34.465,-5.51 10.224,-5.773 16.183,-13.797 17.874,-24.064 1.693,-10.276 -1.376,-19.791 -9.212,-28.538 -7.821,-8.732 -18.113,-14.158 -30.877,-16.259 z"
         id="path1347" />
      <path
         inkscape:connector-curvature="0"
         style="fill:#f49c00"
         d="m 525.411,583.043 c -0.107,-0.232 -0.229,-0.465 -0.367,-0.689 -1.851,-3.285 -4.304,-5.187 -7.348,-5.687 -3.032,-0.5 -5.785,0.543 -8.227,3.122 -2.443,2.577 -3.877,5.95 -4.281,10.093 -0.413,4.142 0.309,7.868 2.16,11.154 1.864,3.286 4.317,5.188 7.348,5.688 2.562,0.422 4.906,-0.248 7.041,-2.009 l 0.253,-0.893 3.421,-20.779 z"
         id="path1349" />
      <path
         inkscape:connector-curvature="0"
         style="fill:none;stroke:#e83927;stroke-width:2.1099999;stroke-linecap:square;stroke-linejoin:round;stroke-miterlimit:10"
         d="m 521.737,604.715 c -2.135,1.761 -4.479,2.431 -7.041,2.009 -3.03,-0.5 -5.483,-2.401 -7.348,-5.688 -1.852,-3.286 -2.573,-7.013 -2.16,-11.154 0.404,-4.143 1.838,-7.516 4.281,-10.093 2.441,-2.579 5.194,-3.622 8.227,-3.122 3.044,0.5 5.497,2.401 7.348,5.687 0.139,0.225 0.26,0.457 0.367,0.689"
         id="path1351" />
      <path
         inkscape:connector-curvature="0"
         d="m 582.574,551.125 c 0.695,-0.74 2.051,-1.652 4.03,-2.729 1.847,-0.992 2.917,-1.472 3.19,-1.427 -1.387,-0.509 -3.063,-0.718 -5.045,-0.616 -3.943,0.246 -7.123,1.941 -9.554,5.109 0.508,-2.764 -0.125,-5.167 -1.913,-7.211 -0.562,-0.642 -1.183,-1.185 -1.846,-1.614 -0.641,-0.414 -0.901,-0.537 -0.781,-0.37 0.787,2.923 -0.39,5.856 -3.509,8.804 -0.83,-1.38 -0.782,-3.683 0.146,-6.898 0.831,-2.856 1.491,-4.431 2.008,-4.721 -1.257,0.326 -2.591,0.976 -3.998,1.961 -2.218,1.546 -3.725,3.463 -4.503,5.753 -0.683,-0.473 -1.369,-0.934 -2.085,-1.385 -3.348,-2.142 -6.719,-3.339 -10.137,-3.596 0.196,0.354 0.812,1.323 1.844,2.925 0.115,0.192 0.437,1.087 0.966,2.658 -1.519,-1.895 -3.608,-3.494 -6.267,-4.801 -2.655,-1.322 -5.111,-2.07 -7.369,-2.245 0.729,1.017 1.98,2.426 3.765,4.255 1.504,1.732 2.44,3.438 2.807,5.115 -1.371,-1.337 -2.782,-2.343 -4.233,-3.023 -2.701,-1.287 -6.006,-1.51 -9.922,-0.698 0.545,0.184 1.194,0.531 1.963,1.059 0.759,0.511 1.621,1.202 2.592,2.044 2.046,1.768 3.166,3.075 3.388,3.926 -1.933,-0.439 -4.062,-0.817 -6.38,-1.105 -2.316,-0.302 -4.379,-0.253 -6.182,0.132 -1.801,0.385 -3.543,1.153 -5.22,2.308 3.138,-0.297 6.208,0.061 9.207,1.075 3.001,1.017 4.682,2.081 5.069,3.214 -4.037,-0.799 -7.27,-0.983 -9.694,-0.541 -2.422,0.442 -3.999,0.917 -4.716,1.456 1.283,0.01 2.66,0.157 4.123,0.438 1.464,0.28 3.51,1.005 6.15,2.175 -4.748,1.983 -9.367,1.945 -13.873,-0.146 0.468,0.718 0.945,1.384 1.443,2.015 0.532,0.676 1.114,1.346 1.77,2.001 0.677,0.688 1.438,1.253 2.285,1.714 0.75,0.404 1.525,0.787 2.311,1.13 0.811,0.36 1.631,0.655 2.479,0.862 8.658,2.361 16.187,2.493 22.562,0.39 -2.335,2.072 -4.759,3.651 -7.288,4.72 -0.1,0.05 -0.143,0.149 -0.125,0.272 0.02,0.137 0.076,0.186 0.176,0.162 2.403,-0.232 4.612,-0.99 6.641,-2.26 1.74,-1.092 3.363,-2.333 4.85,-3.732 1.911,-1.383 3.957,-2.113 6.134,-2.184 1.197,-0.058 2.483,0.009 3.887,0.172 1.429,0.17 2.85,0.378 4.253,0.621 0.171,0.027 0.352,0.07 0.544,0.116 2.065,0.433 3.811,1.042 5.228,1.851 1.408,0.78 2.535,1.567 3.38,2.347 0.084,0.067 0.152,0.146 0.206,0.22 0.177,-0.331 0.857,-0.832 2.04,-1.507 1.14,-0.667 2.377,-0.797 3.701,-0.405 3.448,1.048 6.278,2.931 8.506,5.65 0.288,0.368 0.589,0.724 0.908,1.059 0.518,0.578 1.053,1.134 1.617,1.695 0.559,0.586 1.179,1.115 1.835,1.6 0.463,0.355 0.971,0.666 1.516,0.943 0.929,0.516 1.929,0.693 2.986,0.52 0.906,-0.145 1.769,-0.431 2.575,-0.859 0.277,-0.155 0.577,-0.345 0.908,-0.57 0.618,-0.421 1.189,-0.889 1.715,-1.403 0.582,-0.532 1.108,-1.128 1.555,-1.802 -0.652,-0.095 -1.353,-0.237 -2.097,-0.427 -0.253,-0.079 -0.521,-0.151 -0.788,-0.236 -1.74,-0.486 -3.087,-1.068 -4.029,-1.746 -0.216,-0.155 -0.415,-0.322 -0.589,-0.483 -0.603,-0.566 -1.302,-1.03 -2.085,-1.386 -0.023,-0.018 -0.048,-0.022 -0.076,-0.04 4.778,-0.188 7.892,-1.881 9.367,-5.086 -4.16,0.504 -7.905,-0.126 -11.233,-1.903 l 0.824,-0.052 c 1.427,-0.138 3.132,-1.182 5.109,-3.114 1.067,-1.039 1.821,-1.891 2.274,-2.525 0.262,-0.37 0.419,-0.68 0.472,-0.924 -0.899,0.198 -1.89,0.369 -2.971,0.514 -0.643,0.094 -1.338,0.167 -2.056,0.234 -1.072,0.104 -2.087,0.166 -3.032,0.154 -2.401,-0.032 -4.337,-0.445 -5.81,-1.237 0.853,0.089 2.129,-0.183 3.834,-0.81 1.839,-0.7 3.126,-1.05 3.854,-1.076 -1.751,-0.327 -3.143,-0.557 -4.191,-0.688 -1.884,-0.245 -4.132,-0.136 -6.758,0.302 2.301,-1.238 5.284,-1.977 8.914,-2.194 0.423,-0.036 -0.874,-0.451 -3.898,-1.229 -2.987,-0.773 -5.184,-1.068 -6.606,-0.873 -2.049,0.262 -3.783,0.898 -5.216,1.892 0.39,-1.319 1.11,-2.535 2.168,-3.686"
         id="path1353" />
      <path
         inkscape:connector-curvature="0"
         style="fill:#e83434"
         d="m 546.066,615.924 -3.551,-2.305 c 1.321,7.193 5.565,12.44 12.754,15.759 3.599,1.672 7.064,2.625 10.404,2.833 7.39,0.517 13.949,-1.358 19.691,-5.646 2.884,-2.136 5.027,-4.329 6.431,-6.577 -12.306,3.866 -24.214,3.96 -35.729,0.293 -3.602,-1.142 -6.925,-2.593 -10,-4.357"
         id="path1355" />
      <path
         inkscape:connector-curvature="0"
         style="fill:#f092b1"
         d="m 564.834,628.517 c 2.55,0.317 4.535,-0.342 5.969,-1.976 0.7,-0.8 1.407,-2.049 2.119,-3.722 -4.723,0.119 -9.369,-0.442 -13.941,-1.696 0.132,1.729 0.411,3.066 0.816,3.995 0.866,1.957 2.545,3.089 5.037,3.399"
         id="path1357" />
      <path
         inkscape:connector-curvature="0"
         style="fill:#ffffff"
         d="m 584.153,584.322 c -2.423,1.243 -3.855,3.294 -4.314,6.159 -0.47,2.861 0.185,5.695 1.955,8.499 1.778,2.818 4.155,4.79 7.116,5.879 2.972,1.116 5.668,1.04 8.096,-0.219 2.434,-1.242 3.869,-3.292 4.328,-6.157 0.457,-2.864 -0.211,-5.7 -1.979,-8.505 -1.771,-2.803 -4.135,-4.756 -7.106,-5.874 -2.962,-1.088 -5.657,-1.024 -8.096,0.218"
         id="path1359" />
      <path
         inkscape:connector-curvature="0"
         style="fill:#ffffff"
         d="m 576.603,586.926 c -0.763,-2.918 -2.76,-5.076 -5.965,-6.461 -3.21,-1.371 -6.705,-1.56 -10.489,-0.578 -3.76,0.997 -6.718,2.89 -8.842,5.653 -2.127,2.764 -2.81,5.617 -2.052,8.563 0.784,2.948 2.782,5.096 5.988,6.466 3.208,1.385 6.706,1.571 10.465,0.573 3.782,-0.98 6.739,-2.859 8.864,-5.622 2.13,-2.79 2.814,-5.643 2.031,-8.594"
         id="path1361" />
      <path
         inkscape:connector-curvature="0"
         d="m 594.21,594.579 c -1.207,-0.83 -2.418,-1.322 -3.638,-1.474 -1.389,-0.15 -2.73,0.159 -4.021,0.942 -0.293,0.18 -0.596,0.24 -0.932,0.187 -0.323,-0.077 -0.581,-0.25 -0.777,-0.513 -0.184,-0.25 -0.247,-0.534 -0.192,-0.845 0.052,-0.306 0.226,-0.549 0.516,-0.714 1.822,-1.119 3.703,-1.538 5.661,-1.281 1.674,0.197 3.358,0.875 5.035,2.027 0.498,0.354 0.974,0.738 1.417,1.161 0.351,0.333 0.532,0.507 0.546,0.509 0.209,0.252 0.298,0.528 0.26,0.825 -0.028,0.312 -0.164,0.571 -0.421,0.766 -0.244,0.21 -0.562,0.296 -0.928,0.263 -0.352,-0.058 -0.626,-0.191 -0.815,-0.406 l 0.003,-0.023 c -0.742,-0.685 -1.317,-1.159 -1.714,-1.424"
         id="path1363" />
      <path
         inkscape:connector-curvature="0"
         d="m 564.26,589.775 c 1.583,-0.383 3.056,-0.44 4.418,-0.164 1.54,0.334 2.875,1.095 3.994,2.297 0.25,0.269 0.555,0.436 0.938,0.499 0.374,0.035 0.707,-0.039 1.01,-0.226 0.283,-0.178 0.452,-0.43 0.501,-0.745 0.049,-0.316 -0.055,-0.609 -0.308,-0.868 -1.572,-1.707 -3.45,-2.76 -5.644,-3.188 -1.866,-0.387 -3.91,-0.316 -6.108,0.218 -0.66,0.166 -1.303,0.375 -1.921,0.629 -0.496,0.198 -0.748,0.305 -0.764,0.302 -0.313,0.17 -0.506,0.403 -0.566,0.706 -0.074,0.309 -0.02,0.606 0.189,0.882 0.189,0.286 0.5,0.478 0.907,0.573 0.396,0.065 0.74,0.031 1.016,-0.108 l 0.004,-0.025 c 1.032,-0.406 1.814,-0.663 2.334,-0.782"
         id="path1365" />
      <path
         inkscape:connector-curvature="0"
         style="fill:#e83827"
         d="m 586.615,600.046 c -1.715,-2.688 -4.062,-4.277 -7.035,-4.768 -2.973,-0.491 -5.703,0.262 -8.193,2.259 -2.499,1.98 -4.021,4.617 -4.562,7.907 -0.543,3.293 0.051,6.277 1.784,8.954 1.718,2.688 4.063,4.278 7.038,4.768 2.973,0.488 5.703,-0.265 8.191,-2.259 2.502,-1.979 4.021,-4.615 4.565,-7.909 0.539,-3.291 -0.052,-6.275 -1.788,-8.952"
         id="path1367" />
      <path
         inkscape:connector-curvature="0"
         style="fill:#e83434"
         d="m 597.765,626.234 c 0.039,-0.282 -0.053,-1.089 -0.276,-2.417 -0.25,-1.46 -0.565,-2.568 -0.955,-3.35 -0.403,-0.806 -1.179,-1.935 -2.302,-3.399 -1.166,-1.504 -2.388,-2.9 -3.64,-4.199 l -0.006,-0.014 c -1.203,-1.179 -2.992,-2.071 -5.367,-2.685 -1.885,-0.478 -3.048,-0.224 -3.499,0.764 -0.357,1.077 -0.308,1.956 0.177,2.615 0.989,0.352 2.167,0.923 3.543,1.707 l 0.89,0.52 -0.048,0.09 c -0.178,-0.025 -0.416,-0.053 -0.733,-0.104 -1.042,-0.177 -2.445,-0.445 -4.198,-0.806 -1.763,-0.357 -2.73,-0.55 -2.897,-0.58 -1.368,-0.282 -3.003,-0.354 -4.896,-0.208 -2.232,0.047 -4.148,0.414 -5.747,1.113 -1.297,0.576 -2.048,1.21 -2.269,1.905 -0.104,0.535 -0.107,1.111 -0.023,1.753 0.793,-0.565 2.008,-1.037 3.668,-1.409 1.659,-0.375 3.063,-0.417 4.234,-0.14 0.861,0.039 2.59,0.551 5.199,1.531 l 0.938,0.361 c -5.272,-0.575 -8.686,-0.661 -10.226,-0.268 -1.547,0.411 -2.726,1.136 -3.52,2.178 -0.794,1.047 -1.156,2.081 -1.094,3.083 0.342,1.21 1.665,1.861 3.962,1.942 0.173,-0.196 0.338,-0.377 0.509,-0.546 1.252,-1.262 2.385,-1.827 3.396,-1.692 0.204,0.015 0.401,0.018 0.594,0.037 1.477,0.135 2.74,0.404 3.814,0.792 l 0.977,0.358 c -1.352,-0.076 -2.496,-0.085 -3.424,-0.013 -2.705,0.297 -4.168,1.323 -4.385,3.085 -0.205,1.758 0.244,2.784 1.353,3.043 1.901,0.836 3.757,1.032 5.576,0.561 1.359,-0.079 2.539,-0.326 3.565,-0.734 l 0.01,-0.004 c 0.527,-0.189 0.842,-0.316 0.917,-0.376 0.067,-0.071 0.328,-0.022 0.759,0.138 0.438,0.172 1.011,0.301 1.738,0.396 0.254,0.037 0.454,0.148 0.634,0.342 0.361,0.402 0.906,0.769 1.623,1.106 0.96,0.449 2.042,0.762 3.26,0.951 l -2.333,1.607 c -0.641,-0.188 -1.241,-0.418 -1.812,-0.676 -0.856,-0.407 -1.532,-0.846 -2.025,-1.331 -0.586,-0.084 -1.232,-0.155 -1.979,-0.229 -1.504,0.621 -3.317,0.93 -5.438,0.932 -2.126,0.002 -3.928,-0.311 -5.434,-0.93 l -0.005,-0.012 c -1.933,-0.794 -2.845,-1.813 -2.737,-3.023 -0.016,-0.486 0.067,-1.069 0.235,-1.756 -3.541,-0.5 -5.316,-1.569 -5.31,-3.19 -0.003,-1.615 0.328,-3.102 0.972,-4.478 -0.622,-1.377 -0.704,-2.636 -0.235,-3.786 0.18,-1.339 1.342,-2.479 3.477,-3.415 1.818,-0.805 3.993,-1.235 6.546,-1.287 l 0.012,-0.004 c 2.549,-0.024 4.329,0.13 5.329,0.479 l 0.014,-0.006 c 0.164,0.059 0.328,0.117 0.507,0.171 -0.062,-0.733 0.05,-1.553 0.365,-2.457 0.651,-2.251 2.639,-2.956 5.983,-2.11 2.824,0.709 4.945,1.792 6.342,3.24 l 0.018,0.007 c 1.305,1.363 2.565,2.814 3.786,4.38 l 0.004,0.012 c 1.242,1.614 2.089,2.854 2.521,3.731 0.464,0.921 0.847,2.226 1.139,3.933 0.268,1.565 0.362,2.623 0.284,3.148 l -1.916,1.322 c -0.3,-0.479 -0.349,-1.049 -0.141,-1.699"
         id="path1369" />
      <path
         inkscape:connector-curvature="0"
         style="fill:#f49c00"
         d="m 597.488,623.817 c 0.224,1.328 0.315,2.135 0.276,2.417 -0.208,0.649 -0.158,1.22 0.139,1.7 l -8.308,5.728 c -1.218,-0.189 -2.3,-0.502 -3.26,-0.951 -0.717,-0.338 -1.262,-0.704 -1.623,-1.106 -0.18,-0.193 -0.38,-0.305 -0.634,-0.342 -0.728,-0.095 -1.301,-0.224 -1.738,-0.396 -0.431,-0.16 -0.691,-0.209 -0.759,-0.138 -0.075,0.06 -0.39,0.187 -0.917,0.376 l -0.01,0.004 c -1.026,0.408 -2.206,0.655 -3.565,0.734 -1.819,0.472 -3.675,0.275 -5.576,-0.561 -1.108,-0.259 -1.558,-1.285 -1.353,-3.043 0.217,-1.762 1.68,-2.788 4.385,-3.085 0.928,-0.072 2.072,-0.063 3.424,0.013 l -0.977,-0.358 c -1.074,-0.388 -2.338,-0.657 -3.814,-0.792 -0.192,-0.02 -0.39,-0.022 -0.594,-0.037 -1.011,-0.135 -2.144,0.431 -3.396,1.692 -0.171,0.169 -0.336,0.35 -0.509,0.546 -2.297,-0.081 -3.62,-0.732 -3.962,-1.942 -0.062,-1.002 0.3,-2.036 1.094,-3.083 0.794,-1.042 1.973,-1.767 3.52,-2.178 1.54,-0.394 4.953,-0.308 10.226,0.268 l -0.938,-0.361 c -2.609,-0.98 -4.338,-1.492 -5.199,-1.531 -1.171,-0.277 -2.575,-0.235 -4.234,0.14 -1.66,0.372 -2.875,0.844 -3.668,1.409 -0.084,-0.642 -0.08,-1.218 0.023,-1.753 0.221,-0.695 0.972,-1.329 2.269,-1.905 1.599,-0.699 3.515,-1.066 5.747,-1.113 1.893,-0.146 3.527,-0.074 4.896,0.208 0.167,0.03 1.135,0.223 2.897,0.58 1.753,0.36 3.156,0.629 4.198,0.806 0.317,0.052 0.556,0.079 0.733,0.104 l 0.048,-0.09 -0.89,-0.52 c -1.376,-0.784 -2.554,-1.355 -3.543,-1.707 -0.484,-0.659 -0.534,-1.538 -0.177,-2.615 0.451,-0.987 1.614,-1.241 3.499,-0.764 2.375,0.613 4.164,1.506 5.367,2.685 l 0.006,0.014 c 1.252,1.299 2.474,2.695 3.64,4.199 1.123,1.465 1.898,2.594 2.302,3.399 0.39,0.781 0.705,1.889 0.955,3.349"
         id="path1371" />
    </g>
  </g>
</svg>
