<?xml version="1.0" encoding="UTF-8" standalone="no"?>
<!-- Created with Inkscape (http://www.inkscape.org/) -->

<svg
   xmlns:dc="http://purl.org/dc/elements/1.1/"
   xmlns:cc="http://creativecommons.org/ns#"
   xmlns:rdf="http://www.w3.org/1999/02/22-rdf-syntax-ns#"
   xmlns:svg="http://www.w3.org/2000/svg"
   xmlns="http://www.w3.org/2000/svg"
   xmlns:sodipodi="http://sodipodi.sourceforge.net/DTD/sodipodi-0.dtd"
   xmlns:inkscape="http://www.inkscape.org/namespaces/inkscape"
   width="126.61261"
   height="176.86246"
   id="svg5696"
   version="1.1"
   inkscape:version="0.48.4 r9939"
   sodipodi:docname="ernie8.svg">
  <defs
     id="defs5698">
    <clipPath
       id="SVGID_2_">
      <rect
         height="88.862999"
         width="111.498"
         y="518.96198"
         x="382.04999"
         id="use1087" />
    </clipPath>
    <clipPath
       id="SVGID_4_">
      <rect
         height="41.314999"
         width="49.584999"
         y="525.19397"
         x="389.84698"
         id="use1111" />
    </clipPath>
  </defs>
  <sodipodi:namedview
     id="base"
     pagecolor="#ffffff"
     bordercolor="#666666"
     borderopacity="1.0"
     inkscape:pageopacity="0.0"
     inkscape:pageshadow="2"
     inkscape:zoom="0.77472527"
     inkscape:cx="-41.506824"
     inkscape:cy="117.80757"
     inkscape:current-layer="layer1"
     inkscape:document-units="px"
     showgrid="false"
     inkscape:window-width="763"
     inkscape:window-height="591"
     inkscape:window-x="592"
     inkscape:window-y="97"
     inkscape:window-maximized="0"
     fit-margin-top="0"
     fit-margin-left="0"
     fit-margin-right="0"
     fit-margin-bottom="0" />
  <metadata
     id="metadata5701">
    <rdf:RDF>
      <cc:Work
         rdf:about="">
        <dc:format>image/svg+xml</dc:format>
        <dc:type
           rdf:resource="http://purl.org/dc/dcmitype/StillImage" />
        <dc:title></dc:title>
      </cc:Work>
    </rdf:RDF>
  </metadata>
  <g
     id="layer1"
     inkscape:label="Layer 1"
     inkscape:groupmode="layer"
     transform="translate(-359.45011,-26.05148)">
    <g
       transform="translate(-266.32906,-286.84552)"
       id="g821">
      <path
         inkscape:connector-curvature="0"
         style="fill:#f18900"
         d="m 673.734,429.521 -0.649,0.405 c 0.258,-0.146 0.484,-0.275 0.687,-0.389 l -0.038,-0.016 z"
         id="path823" />
      <path
         inkscape:connector-curvature="0"
         style="fill:#f49c00"
         d="m 670.208,445.806 14.364,-6.42 -10.177,-9.454 c -2.037,1.543 -5.491,1.799 -10.363,0.751 l -0.122,6.559 c 0.147,4.847 2.253,7.709 6.298,8.564"
         id="path825" />
      <path
         inkscape:connector-curvature="0"
         style="fill:#e83434"
         d="m 664.032,430.683 -1.956,-0.493 c -0.368,1.695 -0.587,3.889 -0.655,6.6 0.204,5.891 2.674,9.664 7.395,11.323 l 1.393,-2.307 c -4.045,-0.854 -6.151,-3.717 -6.298,-8.564 l 0.121,-6.559 z"
         id="path827" />
      <path
         inkscape:connector-curvature="0"
         style="fill:#e83434"
         d="m 686.979,437.761 c 0.01,-0.024 -0.004,-0.034 -0.037,-0.029 -0.081,-0.141 -0.438,-0.562 -1.087,-1.268 -0.615,-0.722 -1.437,-1.341 -2.464,-1.872 -1.337,-0.41 -2.827,-0.224 -4.445,0.564 l -0.005,0.036 c -1.029,0.524 -1.778,1.188 -2.226,1.993 -0.32,-0.031 -0.649,-0.038 -0.986,-0.044 l -0.005,-0.023 c -2.459,-0.107 -4.008,1.045 -4.671,3.462 -1.53,-0.3 -2.806,-0.078 -3.833,0.667 -0.449,0.339 -0.861,0.777 -1.231,1.325 -1.121,2.021 -0.612,4.312 1.524,6.865 l 0.015,0.01 0.03,0.053 c 1.965,2.184 4.207,2.395 6.725,0.635 0.037,0.028 0.076,0.046 0.14,0.072 l -0.019,0.038 c 1.437,0.896 2.961,1.163 4.578,0.806 1.458,-0.449 2.511,-1.127 3.156,-2.01 l 0.013,0.009 c 1.682,0.742 3.332,0.474 4.969,-0.797 l 0.039,0.028 c 3.129,-2.192 3.072,-5.699 -0.18,-10.52 m -8.09,1.587 c 0.031,-0.238 0.079,-0.456 0.152,-0.654 0.196,-0.476 0.57,-0.849 1.115,-1.109 1.601,-0.739 2.96,-0.413 4.073,0.966 0.049,0.088 0.118,0.158 0.185,0.206 0.082,0.151 0.178,0.312 0.307,0.466 0.013,0.01 0.015,0.021 0.016,0.033 2.159,3.132 2.412,5.431 0.78,6.878 h -0.012 l -0.016,-0.021 c -0.76,0.599 -1.507,0.749 -2.229,0.465 -0.14,-0.073 -0.28,-0.145 -0.421,-0.226 -0.873,-0.591 -1.752,-1.575 -2.635,-2.956 l -0.01,0.002 -0.014,-0.009 c -0.884,-1.64 -1.316,-2.987 -1.291,-4.041 m -9.72,4.283 c 0.406,-0.32 0.914,-0.436 1.525,-0.331 -0.042,1.91 0.446,3.54 1.449,4.879 -0.946,0.439 -1.816,0.271 -2.579,-0.509 -1.159,-1.373 -1.389,-2.609 -0.67,-3.691 0.054,-0.104 0.144,-0.212 0.256,-0.322 l 0.019,-0.026 z m 6.537,-3.775 c 0.162,-0.015 0.319,0.019 0.458,0.079 0.086,1.378 0.661,2.971 1.715,4.78 10e-4,0.011 0.006,0.046 0.022,0.078 0.67,1.075 1.367,1.96 2.071,2.644 -0.323,0.414 -0.743,0.712 -1.265,0.886 -1.003,0.309 -1.944,0.188 -2.812,-0.355 -0.27,-0.157 -0.519,-0.328 -0.722,-0.519 l -0.06,-0.073 -0.037,-0.017 c -1.26,-1.112 -1.813,-2.639 -1.661,-4.589 l -0.029,-0.042 c 0.005,-0.036 0.004,-0.048 -0.018,-0.033 l 0.02,-0.037 c 0.015,-0.037 0.032,-0.074 0.05,-0.114 l 0.004,-0.058 c 0.211,-1.715 0.951,-2.59 2.219,-2.624 l 0.045,-0.006 z"
         id="path829" />
      <path
         inkscape:connector-curvature="0"
         style="fill:#f49c00"
         d="m 679.041,438.693 c -0.073,0.198 -0.121,0.416 -0.152,0.654 -0.024,1.055 0.407,2.401 1.293,4.04 l 0.011,-0.014 c 10e-4,0.012 10e-4,0.012 0.013,0.021 0.883,1.381 1.762,2.365 2.635,2.956 0.141,0.081 0.281,0.152 0.421,0.226 0.722,0.284 1.469,0.134 2.229,-0.465 l 0.027,0.021 c 1.632,-1.447 1.379,-3.746 -0.78,-6.878 -0.001,-0.013 -0.003,-0.023 -0.016,-0.033 -0.129,-0.154 -0.225,-0.314 -0.307,-0.466 -0.066,-0.048 -0.135,-0.118 -0.185,-0.206 -1.113,-1.379 -2.473,-1.705 -4.073,-0.966 -0.546,0.262 -0.92,0.635 -1.116,1.11"
         id="path831" />
      <path
         inkscape:connector-curvature="0"
         style="fill:#0076bf"
         d="m 680.192,443.374 -0.011,0.014 0.011,-0.014 z"
         id="path833" />
      <path
         inkscape:connector-curvature="0"
         style="fill:#e06a06"
         d="m 680.205,443.395 c -0.012,-0.009 -0.012,-0.009 -0.013,-0.021 l 0.003,0.022 0.01,-0.001 z"
         id="path835" />
      <polygon
         style="fill:#f18900"
         points="680.192,443.374 680.182,443.388 680.195,443.396 "
         id="polygon837" />
      <polygon
         style="fill:#0076bf"
         points="685.505,446.133 685.517,446.133 685.489,446.111 "
         id="polygon839" />
      <path
         inkscape:connector-curvature="0"
         style="fill:#f49c00"
         d="m 670.694,443.3 c -0.611,-0.104 -1.119,0.011 -1.525,0.331 l -0.019,0.025 c -0.112,0.11 -0.202,0.219 -0.256,0.322 -0.719,1.082 -0.489,2.318 0.67,3.691 0.763,0.779 1.633,0.948 2.579,0.509 -1.002,-1.338 -1.491,-2.968 -1.449,-4.878"
         id="path841" />
      <path
         inkscape:connector-curvature="0"
         style="fill:#f49c00"
         d="m 676.164,439.936 c -0.139,-0.061 -0.296,-0.094 -0.458,-0.079 l -0.045,0.006 c -1.268,0.034 -2.008,0.909 -2.219,2.624 l 0.015,0.021 -0.019,0.036 c -0.018,0.039 -0.035,0.077 -0.05,0.114 l -0.02,0.037 c 0.021,-0.015 0.022,-0.003 0.018,0.033 l 0.029,0.042 c -0.152,1.95 0.401,3.477 1.661,4.589 l 0.037,0.017 0.06,0.073 c 0.203,0.19 0.452,0.361 0.722,0.519 0.868,0.543 1.81,0.664 2.812,0.355 0.521,-0.174 0.941,-0.472 1.265,-0.886 -0.704,-0.684 -1.401,-1.568 -2.071,-2.644 -0.017,-0.032 -0.021,-0.067 -0.022,-0.078 -1.054,-1.809 -1.629,-3.402 -1.715,-4.779"
         id="path843" />
      <polygon
         style="fill:#d04215"
         points="673.457,442.508 673.442,442.486 673.438,442.544 "
         id="polygon845" />
      <path
         inkscape:connector-curvature="0"
         style="fill:#d04215"
         d="m 675.736,437.117 c -0.014,-0.01 -0.014,-0.01 -0.012,10e-4 l 0.005,0.023 0.007,-0.024 z"
         id="path847" />
      <path
         inkscape:connector-curvature="0"
         style="fill:#d04215"
         d="m 674.404,450.245 0.019,-0.038 -0.058,0.01 c 0.012,0.008 0.027,0.017 0.039,0.028"
         id="path849" />
      <polygon
         style="fill:#d04215"
         points="687.12,448.253 687.135,448.284 687.159,448.281 "
         id="polygon851" />
      <path
         inkscape:connector-curvature="0"
         style="fill:#e83434"
         d="m 669.481,429.516 1.647,1.426 c 4.13,-3.26 7.55,-3.663 10.253,-1.224 l 0.015,0.012 -0.034,0.005 c 1.922,1.918 2.136,3.965 0.653,6.149 l -0.035,0.074 c -0.252,0.402 -0.573,0.813 -0.967,1.225 -1.722,1.307 -3.18,1.186 -4.39,-0.367 -0.423,-1.137 0.345,-2.577 2.324,-4.346 l -0.273,-1.465 c -1.936,0.933 -3.301,1.906 -4.114,2.919 -0.881,1.096 -1.1,2.239 -0.656,3.432 0.522,1.098 1.293,1.993 2.304,2.715 1.166,0.81 2.306,1.076 3.396,0.801 2.179,-0.631 3.97,-2.195 5.36,-4.665 1.513,-2.959 0.948,-5.755 -1.703,-8.381 l 0.017,-0.038 c -3.769,-3.724 -8.364,-3.148 -13.797,1.728"
         id="path853" />
      <path
         inkscape:connector-curvature="0"
         style="fill:#0076bf"
         d="m 681.362,429.734 0.02,-0.017 -0.02,0.017 z"
         id="path855" />
      <polygon
         style="fill:#f18900"
         points="681.396,429.729 681.382,429.718 681.362,429.734 "
         id="polygon857" />
      <path
         inkscape:connector-curvature="0"
         style="fill:#f49c00"
         d="m 681.362,429.734 0.02,-0.017 c -2.703,-2.439 -6.123,-2.036 -10.253,1.224 l -4.723,3.728 5.654,-0.964 2.5,0.219 c 0.813,-1.013 2.179,-1.986 4.114,-2.919 l 0.273,1.465 c -1.979,1.769 -2.747,3.209 -2.324,4.346 1.21,1.553 2.668,1.674 4.39,0.367 0.394,-0.411 0.715,-0.822 0.967,-1.225 l 0.035,-0.074 c 1.483,-2.185 1.269,-4.232 -0.653,-6.15"
         id="path859" />
      <path
         inkscape:connector-curvature="0"
         style="fill:#0076bf"
         d="m 663.854,402.902 0.442,0.761 0.136,0.245 12.834,10.71 c 2.759,-1.485 7.183,-2.076 13.244,-1.773 1.067,-9.305 -3.178,-14.64 -12.746,-15.993 -5.62,1.696 -10.257,3.707 -13.91,6.05"
         id="path861" />
      <path
         inkscape:connector-curvature="0"
         style="fill:#fedb00"
         d="m 664.296,403.663 -0.455,-0.747 c -6.165,3.939 -9.548,8.82 -10.141,14.61 l 19.005,2.747 1.117,0.055 c -0.05,-2.548 1.099,-4.446 3.443,-5.71 l -12.834,-10.71 -0.135,-0.245 z"
         id="path863" />
      <path
         inkscape:connector-curvature="0"
         style="fill:#e83827"
         d="m 675.348,426.021 c -0.993,-2.153 -1.51,-4.061 -1.525,-5.692 l -1.117,-0.055 -19.005,-2.747 c -0.633,6.058 1.772,13.12 7.229,21.205 l 14.418,-12.711 z"
         id="path865" />
      <path
         inkscape:connector-curvature="0"
         style="fill:none;stroke:#fcdf00;stroke-width:0.273;stroke-linecap:square;stroke-linejoin:round;stroke-miterlimit:10"
         d="m 677.63,414.921 -0.364,-0.303 -12.834,-10.71 m 8.273,16.365 -19.005,-2.747"
         id="path867" />
      <path
         inkscape:connector-curvature="0"
         style="fill:none;stroke:#003c90;stroke-width:2.18300009;stroke-linecap:square;stroke-miterlimit:10"
         d="m 690.51,412.845 c -6.062,-0.303 -10.485,0.288 -13.244,1.773 -2.345,1.264 -3.493,3.162 -3.443,5.71 0.016,1.632 0.532,3.539 1.525,5.692 l -14.419,12.711 c -5.456,-8.085 -7.861,-15.147 -7.229,-21.205 0.593,-5.79 3.976,-10.671 10.141,-14.61 -10e-4,-0.014 -10e-4,-0.014 0.013,-0.014 3.653,-2.344 8.29,-4.354 13.91,-6.051"
         id="path869" />
      <path
         inkscape:connector-curvature="0"
         style="fill:#e83434"
         d="m 709.526,482.113 c -0.116,-0.303 -0.167,-0.55 -0.149,-0.757 0.895,-4.361 1.527,-9.454 1.912,-15.252 0.015,-0.097 0.029,-0.193 0.045,-0.313 0.161,-0.562 0.28,-1.163 0.359,-1.806 10e-4,-0.029 10e-4,-0.057 0.016,-0.084 0.237,-1.051 0.473,-2.091 0.723,-3.115 0.016,-0.068 0.044,-0.123 0.059,-0.19 0.244,-0.753 0.45,-1.477 0.626,-2.172 0.028,-0.068 0.057,-0.163 0.099,-0.26 0.016,-0.014 0.016,-0.026 0.03,-0.04 0.907,-2.647 1.901,-4.593 3.004,-5.85 1.604,-2.361 4.352,-3.414 8.258,-3.173 0.027,0.015 0.068,0.015 0.136,0.032 0.016,-0.027 0.07,-0.027 0.181,-0.012 0.068,0.014 0.122,0.028 0.19,0.017 1.106,0.335 2.02,0.678 2.769,1.047 0.067,0.029 0.395,0.199 1.007,0.511 0.612,0.298 1.353,1.121 2.223,2.451 0.87,1.347 1.141,2.476 0.809,3.402 -0.152,0.039 -0.371,0.009 -0.672,-0.121 l -0.396,-0.007 c -0.152,0.108 -0.21,0.217 -0.171,0.341 l -0.577,-1.6 c -0.255,-0.349 -0.597,-0.448 -0.996,-0.334 -0.386,0.118 -0.913,0.44 -1.581,0.949 -5.777,5.063 -6.45,15.123 -2.007,30.178 0.325,0.295 0.405,0.46 0.24,0.499 -0.28,0.353 -1.409,0.553 -3.399,0.589 -3.063,0.183 -7.128,-1.228 -12.195,-4.25 -0.232,-0.207 -0.422,-0.43 -0.543,-0.68 m 4.385,-12.879 c 0.121,0.126 0.204,0.058 0.237,-0.215 0.071,-0.946 0.166,-1.782 0.273,-2.508 -0.515,-1.12 -0.946,-2.442 -1.291,-3.999 -0.164,0.765 -0.326,1.57 -0.492,2.406 -0.018,0.26 -0.063,0.494 -0.121,0.697 0.556,2 1.031,3.2 1.394,3.619 m 2.21,9.051 c -0.039,-0.015 -0.079,-0.015 -0.148,-0.03 -0.454,-0.021 -0.801,0.207 -1.068,0.681 -0.269,0.464 -0.348,1.052 -0.235,1.768 0.113,0.702 0.403,1.337 0.888,1.922 0.527,0.543 1.111,0.842 1.729,0.865 0.068,0.001 0.137,0.002 0.178,0.003 0.028,-0.013 0.055,-0.013 0.097,-0.012 0.014,0 0.041,0 0.067,0.015 0.536,-0.005 0.885,-0.26 1.055,-0.778 0.104,-0.342 0.138,-0.711 0.074,-1.138 l -0.048,-0.303 c -0.026,-0.124 -0.065,-0.261 -0.118,-0.387 0.015,-0.013 0,-0.026 -0.013,-0.041 -0.015,-0.014 -0.015,-0.014 -0.012,-0.027 -0.041,-0.137 -0.08,-0.262 -0.146,-0.374 l -0.094,-0.206 c -0.212,-0.47 -0.479,-0.874 -0.802,-1.22 -0.445,-0.516 -0.866,-0.771 -1.279,-0.75 -0.041,-0.014 -0.082,-0.001 -0.125,0.012 m 7.272,6.733 -0.013,-0.014 c -2.299,-8.693 -3.145,-14.87 -2.535,-18.522 0.61,-3.654 1.587,-6.505 2.926,-8.527 0.888,-1.329 1.645,-2.333 2.3,-3.009 0.907,-0.958 1.823,-1.548 2.746,-1.765 l 0.044,-0.149 v -0.055 c 10e-4,-0.043 -0.038,-0.084 -0.107,-0.154 -0.359,-0.556 -1.107,-1.005 -2.256,-1.342 -0.585,-0.187 -1.283,-0.336 -2.09,-0.458 -0.233,-0.003 -0.425,-0.022 -0.55,-0.05 -2.988,-0.16 -5.28,0.777 -6.863,2.795 0,0.015 -0.016,0.041 -0.057,0.055 -1.061,1.176 -2.024,2.972 -2.887,5.37 -0.045,0.207 -0.089,0.368 -0.158,0.478 -0.016,0.083 -0.043,0.151 -0.06,0.206 0.336,2.874 1.439,5.03 3.297,6.476 l -0.002,0.014 c 0.75,0.384 1.359,0.709 1.836,0.949 -0.316,6.854 0.421,12.836 2.243,17.929 0.891,0.11 1.55,0.094 1.978,-0.05 0.097,-0.055 0.167,-0.109 0.208,-0.177"
         id="path871" />
      <path
         inkscape:connector-curvature="0"
         style="fill:#ffffff"
         d="m 714.148,469.02 c -0.033,0.272 -0.116,0.341 -0.237,0.215 -0.363,-0.417 -0.838,-1.619 -1.394,-3.618 0.058,-0.203 0.104,-0.438 0.121,-0.697 0.166,-0.836 0.328,-1.642 0.492,-2.406 0.346,1.557 0.776,2.879 1.291,3.999 -0.107,0.724 -0.201,1.56 -0.273,2.507"
         id="path873" />
      <path
         inkscape:connector-curvature="0"
         style="fill:#ffffff"
         d="m 715.973,478.255 c 0.069,0.016 0.109,0.016 0.148,0.03 0.426,0.047 0.86,0.289 1.321,0.734 0.362,0.349 0.658,0.753 0.884,1.223 l 0.094,0.206 c 0.065,0.112 0.104,0.237 0.146,0.374 -0.003,0.014 -0.003,0.014 0.012,0.027 0.013,0.015 0.027,0.028 0.013,0.041 0.053,0.126 0.092,0.263 0.118,0.387 l 0.048,0.304 c 0.049,0.424 -0.011,0.795 -0.168,1.135 -0.213,0.435 -0.546,0.691 -1.028,0.766 -0.042,-0.001 -0.068,-0.001 -0.097,0.012 -0.041,-0.001 -0.109,-0.002 -0.178,-0.003 -0.617,-0.023 -1.201,-0.322 -1.729,-0.865 -0.484,-0.585 -0.774,-1.22 -0.888,-1.92 -0.112,-0.718 -0.033,-1.306 0.235,-1.77 0.268,-0.474 0.615,-0.702 1.069,-0.681"
         id="path875" />
      <path
         inkscape:connector-curvature="0"
         style="fill:#ffffff"
         d="m 723.38,485.004 0.013,0.014 c -0.041,0.067 -0.11,0.122 -0.208,0.176 -0.428,0.144 -1.087,0.16 -1.978,0.05 -1.822,-5.093 -2.56,-11.074 -2.243,-17.929 -0.477,-0.24 -1.086,-0.565 -1.836,-0.949 l 0.002,-0.015 c -1.857,-1.444 -2.961,-3.601 -3.297,-6.475 0.017,-0.055 0.044,-0.123 0.06,-0.206 0.069,-0.109 0.113,-0.271 0.158,-0.478 0.862,-2.4 1.826,-4.194 2.887,-5.37 0.041,-0.014 0.057,-0.04 0.057,-0.055 1.583,-2.02 3.875,-2.955 6.863,-2.795 0.125,0.027 0.316,0.047 0.55,0.05 0.807,0.122 1.505,0.271 2.09,0.458 1.148,0.337 1.896,0.786 2.256,1.342 0.069,0.07 0.108,0.111 0.107,0.154 v 0.055 l -0.044,0.148 c -0.923,0.218 -1.839,0.808 -2.746,1.766 -0.655,0.676 -1.412,1.68 -2.3,3.009 -1.339,2.022 -2.315,4.873 -2.926,8.526 -0.61,3.654 0.236,9.831 2.535,18.524"
         id="path877" />
      <path
         inkscape:connector-curvature="0"
         style="fill:#b6b7b8"
         d="m 729.391,479.136 c -1.537,4.146 -2.851,6.414 -3.97,6.82 -4.443,-15.055 -3.771,-25.114 2.007,-30.178 0.668,-0.509 1.195,-0.831 1.581,-0.949 0.399,-0.114 0.741,-0.015 0.996,0.334 l 0.577,1.6 c -0.039,-0.124 0.019,-0.232 0.171,-0.341 l 0.396,0.007 c 0.178,1.871 0.3,4.355 0.372,7.457 0.107,6.01 -0.595,11.09 -2.13,15.25"
         id="path879" />
      <path
         inkscape:connector-curvature="0"
         style="fill:none;stroke:#e83927;stroke-width:1.64600003;stroke-linecap:round;stroke-linejoin:round;stroke-miterlimit:10"
         d="m 725.421,485.956 c 1.119,-0.406 2.433,-2.675 3.97,-6.82 1.535,-4.16 2.237,-9.239 2.13,-15.25 -0.072,-3.102 -0.194,-5.586 -0.372,-7.457"
         id="path881" />
      <path
         inkscape:connector-curvature="0"
         style="fill:#003c90"
         d="m 695.876,435.913 0.701,1.18 17.038,21.089 c -3.227,6.622 -2.253,15.644 2.919,27.084 l 1.26,2.446 -2.559,-0.855 c -2.431,-1.256 -4.787,-2.487 -7.097,-3.688 -16.596,-8.698 -29.941,-16.397 -40.025,-23.107 l 27.763,-24.149 z m -0.478,3.47 -23.573,20.598 35.958,20.335 5.548,3.124 c -2.654,-5.943 -3.155,-13.862 -1.493,-23.778 l -0.587,-0.712 -15.853,-19.567 z"
         id="path883" />
      <path
         inkscape:connector-curvature="0"
         style="fill:#5390cd"
         d="m 671.825,459.98 23.573,-20.598 15.853,19.566 c -2.828,7.828 -3.981,14.941 -3.468,21.366 L 671.825,459.98 z"
         id="path885" />
      <path
         inkscape:connector-curvature="0"
         style="fill:#a4c6e9"
         d="m 713.331,483.439 -5.548,-3.124 c -0.514,-6.425 0.64,-13.538 3.468,-21.366 l 0.587,0.712 c -1.662,9.916 -1.161,17.835 1.493,23.778"
         id="path887" />
      <path
         inkscape:connector-curvature="0"
         style="fill:#2e6d2d"
         d="m 713.932,458.396 -0.316,-0.215 0.316,0.215 z"
         id="path889" />
      <path
         inkscape:connector-curvature="0"
         style="fill:#ffffff"
         d="m 645.226,480.896 c -0.027,-0.113 -0.051,-0.236 -0.079,-0.35 0.58,-0.794 1.177,-1.651 1.771,-2.565 -0.585,1.031 -1.143,2.006 -1.692,2.915"
         id="path891" />
      <path
         inkscape:connector-curvature="0"
         style="fill:#e83434"
         d="m 643.667,482.469 c -0.051,0.074 -0.113,0.143 -0.187,0.205 -0.478,-3.336 -2.663,-6.637 -6.562,-9.89 l -0.292,-0.229 c -1.169,-0.821 -1.92,-1.464 -2.235,-1.932 -0.317,-0.468 -0.47,-0.724 -0.442,-0.781 l 0.05,-0.384 c 0.21,-1.065 0.585,-2.103 1.141,-3.079 0.575,-1.066 1.215,-2.098 1.914,-3.102 0.566,-0.829 1.123,-1.636 1.704,-2.432 0.591,-0.817 1.204,-1.596 1.827,-2.369 0.788,-0.931 1.615,-1.828 2.489,-2.704 0.402,-0.39 0.91,-0.896 1.542,-1.513 l 9.115,6.092 -5.782,16.016 c -0.351,0.559 -0.688,1.094 -1.03,1.613 -0.938,-2.327 -1.877,-3.809 -2.807,-4.428 -0.199,-0.141 -0.423,-0.14 -0.649,0.002 l -1.225,2.006 c 1.5,1.425 2.478,3.081 2.915,4.975 l -0.006,0.011 c -0.008,0.013 -0.008,0.013 -0.024,0.018 -0.494,0.682 -0.978,1.313 -1.456,1.905 m 3.873,-20.006 c 0.364,-0.733 0.414,-1.482 0.147,-2.25 -0.261,-0.777 -0.75,-1.346 -1.484,-1.711 -0.733,-0.364 -1.482,-0.414 -2.248,-0.15 -0.773,0.252 -1.342,0.742 -1.706,1.475 -0.367,0.734 -0.414,1.484 -0.156,2.262 0.251,0.771 0.74,1.339 1.474,1.705 0.734,0.364 1.483,0.413 2.261,0.154 0.777,-0.262 1.345,-0.752 1.712,-1.485"
         id="path893" />
      <path
         inkscape:connector-curvature="0"
         style="fill:#ffffff"
         d="m 647.688,460.213 c 0.267,0.768 0.217,1.517 -0.147,2.25 -0.367,0.733 -0.935,1.223 -1.713,1.484 -0.776,0.259 -1.526,0.21 -2.261,-0.154 -0.732,-0.366 -1.223,-0.934 -1.474,-1.707 -0.258,-0.775 -0.211,-1.525 0.156,-2.26 0.364,-0.732 0.933,-1.223 1.706,-1.475 0.766,-0.264 1.515,-0.214 2.248,0.15 0.735,0.366 1.224,0.935 1.485,1.712"
         id="path895" />
      <path
         inkscape:connector-curvature="0"
         style="fill:#ffffff"
         d="m 645.146,480.546 0.006,-0.011 c -0.438,-1.894 -1.415,-3.55 -2.915,-4.975 l 1.225,-2.006 c 0.227,-0.142 0.45,-0.143 0.649,-0.002 0.93,0.619 1.868,2.101 2.807,4.428 -0.595,0.915 -1.191,1.772 -1.772,2.566"
         id="path897" />
      <path
         inkscape:connector-curvature="0"
         style="fill:#ffffff"
         d="m 643.48,482.674 c -1.795,2.16 -3.478,3.702 -5.071,4.611 -2.865,1.654 -5.407,1.922 -7.631,0.815 -0.101,-0.05 -0.212,-0.108 -0.311,-0.167 -2.029,-1.155 -3.232,-3.288 -3.586,-6.396 -0.371,-3.238 0.401,-6.797 2.296,-10.681 2.42,-5.567 6.397,-11.259 11.947,-17.082 0.811,-0.696 1.78,-0.661 2.907,0.097 l 0.583,0.388 c -0.632,0.616 -1.14,1.123 -1.542,1.513 -0.874,0.876 -1.701,1.773 -2.489,2.704 -0.623,0.773 -1.236,1.552 -1.827,2.369 -0.581,0.796 -1.138,1.603 -1.704,2.432 -0.699,1.004 -1.339,2.035 -1.914,3.102 -0.556,0.977 -0.931,2.014 -1.141,3.079 l -0.05,0.384 c -0.027,0.058 0.125,0.313 0.442,0.781 0.315,0.47 1.066,1.11 2.235,1.932 l 0.292,0.229 c 3.901,3.253 6.087,6.554 6.564,9.89"
         id="path899" />
      <path
         inkscape:connector-curvature="0"
         style="fill:none;stroke:#e83927;stroke-width:2.01600003;stroke-linecap:round;stroke-linejoin:round;stroke-miterlimit:10"
         d="m 643.48,482.674 c -1.795,2.16 -3.478,3.702 -5.071,4.611 -2.865,1.654 -5.407,1.922 -7.631,0.815 -0.101,-0.05 -0.212,-0.108 -0.311,-0.167 -2.029,-1.155 -3.232,-3.288 -3.586,-6.396 -0.371,-3.238 0.401,-6.797 2.296,-10.681 2.42,-5.567 6.397,-11.259 11.947,-17.082 0.811,-0.696 1.78,-0.661 2.907,0.097 l 0.583,0.388 9.115,6.092 -5.782,16.016 c -0.351,0.559 -0.688,1.094 -1.03,1.613 -0.595,0.914 -1.191,1.771 -1.771,2.565 -0.008,0.013 -0.008,0.013 -0.024,0.018 -0.493,0.683 -0.978,1.313 -1.455,1.905 -0.051,0.075 -0.113,0.143 -0.187,0.206 z"
         id="path901" />
      <path
         inkscape:connector-curvature="0"
         style="fill:#003c90"
         d="m 678.639,460.75 -2.27,-0.021 c -1.994,9.889 -5.377,16.467 -10.151,19.717 -4.639,2.754 -10.973,2.617 -18.997,-0.379 -0.521,-0.201 -1.06,-0.405 -1.613,-0.637 l -0.099,-0.035 -0.266,-0.066 c -1.842,-1.588 -3.002,-3.422 -3.485,-5.516 -0.43,-3.772 0.868,-8.513 3.895,-14.236 l 0.889,0.124 0.206,0.021 c 0.06,1.036 0.479,1.873 1.281,2.495 0.373,-8.936 5.615,-15.584 15.74,-19.918 l -1.475,-1.773 -0.848,0.347 c -9.783,4.642 -14.68,10.204 -14.671,16.674 l -1.592,-0.36 -2.445,3.859 c -2.632,4.16 -3.688,8.499 -3.165,13.018 l 0.007,0.012 c 0.342,1.859 1.633,4.126 3.874,6.784 2.103,1.002 4.132,1.804 6.103,2.402 5.735,1.756 10.888,1.815 15.438,0.17 6.725,-3.442 11.264,-10.996 13.644,-22.682"
         id="path903" />
      <path
         inkscape:connector-curvature="0"
         style="fill:#5390cd"
         d="m 676.369,460.729 2.27,0.021 -10.91,-19.744 c -2.436,0.769 -3.756,1.205 -3.96,1.293 -10.125,4.334 -15.367,10.982 -15.74,19.918 -0.803,-0.622 -1.222,-1.459 -1.281,-2.495 l -0.206,-0.021 c -3.439,7.282 -3.221,14.076 0.68,20.366 8.024,2.996 14.358,3.133 18.997,0.379 4.773,-3.251 8.156,-9.829 10.15,-19.717"
         id="path905" />
      <path
         inkscape:connector-curvature="0"
         style="fill:#a4c6e9"
         d="m 641.758,473.812 c 0.483,2.094 1.644,3.928 3.485,5.516 l 0.266,0.066 0.099,0.035 c 0.554,0.231 1.093,0.436 1.613,0.637 -3.9,-6.29 -4.119,-13.084 -0.68,-20.366 l -0.889,-0.124 c -3.026,5.724 -4.324,10.464 -3.894,14.236"
         id="path907" />
      <path
         inkscape:connector-curvature="0"
         style="fill:#5390cd"
         d="m 662.511,449.516 18.874,-3.685 3.312,17.039 -2.967,0.152 c -1.655,0.538 -3.146,0.951 -4.456,1.255 h -0.016 v 0.015 l -3.668,0.746 c -0.954,-2.222 -1.629,-3.879 -2.056,-4.996 -0.387,0.07 -0.994,0.138 -1.836,0.234 l -7.187,-10.76 z"
         id="path909" />
      <path
         inkscape:connector-curvature="0"
         style="fill:#003c90"
         d="m 677.259,464.277 h 0.016 c 1.31,-0.304 2.801,-0.717 4.456,-1.255 -0.222,1.007 -1.076,1.932 -2.566,2.8 -0.456,0.207 -0.938,0.375 -1.421,0.525 -0.166,-0.287 -0.414,-0.664 -0.732,-1.146 -0.191,-0.262 -0.096,-0.58 0.277,-0.925 l -0.029,0.015 v -0.014 z"
         id="path911" />
      <path
         inkscape:connector-curvature="0"
         style="fill:#0076bf"
         d="m 714.213,421.933 c 0.149,-3.721 -0.174,-7.133 -0.971,-10.22 -16.371,-8.438 -34.944,-10.523 -55.729,-6.285 -3.204,3.167 -5.821,6.88 -7.854,11.14 23.785,11.551 45.301,13.333 64.554,5.365"
         id="path913" />
      <path
         inkscape:connector-curvature="0"
         style="fill:#ffffff"
         d="m 712.049,435.358 c 0.072,-0.357 0.161,-0.714 0.249,-1.059 1.125,-4.45 1.763,-8.579 1.915,-12.367 -19.253,7.969 -40.769,6.187 -64.554,-5.365 -1.834,3.849 -3.192,8.146 -4.046,12.891 24.774,10.075 46.918,12.033 66.436,5.9"
         id="path915" />
      <path
         inkscape:connector-curvature="0"
         style="fill:#fedb00"
         d="m 711.395,453.096 c -0.29,-2.857 -0.417,-5.576 -0.381,-8.142 -20.092,5.933 -42.265,4.897 -66.541,-3.117 -0.068,3.749 0.109,7.724 0.505,11.908 28.324,7.589 50.458,7.384 66.417,-0.649"
         id="path917" />
      <path
         inkscape:connector-curvature="0"
         style="fill:#e83827"
         d="m 711.014,444.954 c 0.051,-3.475 0.4,-6.668 1.035,-9.596 -19.518,6.133 -41.662,4.175 -66.436,-5.9 -0.702,3.837 -1.078,7.955 -1.141,12.379 24.277,8.015 46.45,9.05 66.542,3.117"
         id="path919" />
      <path
         inkscape:connector-curvature="0"
         style="fill:none;stroke:#003c90;stroke-width:2.20600009;stroke-linecap:square;stroke-miterlimit:10"
         d="m 714.213,421.933 c -0.152,3.788 -0.79,7.917 -1.915,12.367 -0.088,0.345 -0.177,0.701 -0.249,1.059 -0.635,2.929 -0.984,6.121 -1.035,9.596 -0.036,2.565 0.091,5.284 0.381,8.142 -15.959,8.033 -38.093,8.238 -66.417,0.649 -0.396,-4.185 -0.573,-8.159 -0.505,-11.908 0.062,-4.424 0.438,-8.542 1.141,-12.379 0.854,-4.745 2.212,-9.042 4.046,-12.891 2.033,-4.26 4.65,-7.973 7.854,-11.14 20.784,-4.238 39.357,-2.153 55.729,6.285 0.796,3.087 1.119,6.499 0.97,10.22 z"
         id="path921" />
      <path
         inkscape:connector-curvature="0"
         style="fill:#e83434"
         d="m 675.039,445.33 1.823,-0.784 c 0.343,1.412 1.062,2.614 2.16,3.609 1.368,1.432 2.991,2.407 4.876,2.892 1.69,0.447 3.27,0.449 4.746,0.025 2.71,-0.787 4.545,-2.454 5.478,-4.985 l 0.104,-0.39 0.393,-0.229 c 2.993,-2.254 3.963,-4.368 2.889,-6.327 l -0.484,-1.017 0.615,-0.697 c 0.887,-0.996 1.341,-1.938 1.358,-2.802 0,-0.596 -0.358,-1.389 -1.076,-2.363 -1.321,-1.518 -5.257,-1.501 -11.81,0.053 l -0.256,-0.879 c 0.892,-0.618 1.841,-1.136 2.849,-1.525 -1.292,-0.524 -2.53,-0.59 -3.725,-0.192 -2.309,0.582 -3.831,2.059 -4.562,4.422 l -1.108,3.107 -2.366,-0.116 c 0.454,-2.355 1.027,-4.242 1.733,-5.642 0.665,-1.407 1.512,-2.437 2.534,-3.102 1.244,-0.827 2.729,-1.229 4.452,-1.218 2.404,0.165 4.235,0.842 5.511,2.01 1.971,-0.403 4.137,-0.45 6.478,-0.144 2.882,0.892 4.285,2.815 4.201,5.768 0.04,1.217 -0.432,2.459 -1.407,3.738 1.409,2.878 0.127,5.848 -3.846,8.922 -1.309,3.337 -3.421,5.371 -6.336,6.099 -1.717,0.429 -3.906,0.398 -6.572,-0.094 -2.483,-0.458 -4.652,-1.658 -6.496,-3.602 -1.287,-1.619 -2.007,-3.129 -2.156,-4.537"
         id="path923" />
      <path
         inkscape:connector-curvature="0"
         style="fill:#f49c00"
         d="m 676.862,444.546 -0.552,-2.717 1.904,-1.251 1.095,-3.331 1.108,-3.107 c 0.73,-2.363 2.253,-3.84 4.562,-4.422 1.194,-0.397 2.433,-0.331 3.725,0.192 -1.008,0.39 -1.957,0.907 -2.849,1.525 l 0.256,0.879 c 6.553,-1.554 10.488,-1.57 11.81,-0.053 0.718,0.975 1.076,1.768 1.076,2.363 -0.018,0.863 -0.472,1.806 -1.358,2.802 l -0.615,0.697 0.484,1.017 c 1.074,1.959 0.104,4.075 -2.889,6.327 l -0.393,0.229 -0.104,0.39 c -0.933,2.531 -2.768,4.198 -5.478,4.985 -1.477,0.424 -3.056,0.422 -4.746,-0.025 -1.885,-0.484 -3.508,-1.46 -4.876,-2.892 -1.098,-0.994 -1.817,-2.196 -2.16,-3.608"
         id="path925" />
      <path
         inkscape:connector-curvature="0"
         style="fill:#0076bf"
         d="m 652.21,431.299 0.884,0.046 0.283,0.021 16.061,-4.927 c 0.264,-3.139 2.196,-7.187 5.776,-12.123 -7.248,-6.007 -14.069,-5.36 -20.461,1.954 -1.658,5.663 -2.51,10.668 -2.543,15.029"
         id="path927" />
      <path
         inkscape:connector-curvature="0"
         style="fill:#fedb00"
         d="m 653.094,431.345 -0.876,-0.026 c -0.068,7.354 2.183,12.882 6.734,16.56 l 12.743,-14.495 0.659,-0.911 c -2.173,-1.355 -3.14,-3.364 -2.917,-6.033 l -16.061,4.927 -0.282,-0.022 z"
         id="path929" />
      <path
         inkscape:connector-curvature="0"
         style="fill:#e83827"
         d="m 677.987,434.313 c -2.361,-0.346 -4.248,-0.962 -5.633,-1.842 l -0.659,0.911 -12.743,14.495 c 4.751,3.855 12.021,5.707 21.82,5.55 l -2.785,-19.114 z"
         id="path931" />
      <path
         inkscape:connector-curvature="0"
         style="fill:none;stroke:#fcdf00;stroke-width:0.27399999;stroke-linecap:square;stroke-linejoin:round;stroke-miterlimit:10"
         d="m 669.894,426.3 -0.456,0.139 -16.061,4.927 m 18.318,2.017 -12.743,14.495"
         id="path933" />
      <path
         inkscape:connector-curvature="0"
         style="fill:none;stroke:#003c90;stroke-width:2.19400001;stroke-linecap:square;stroke-miterlimit:10"
         d="m 675.214,414.315 c -3.58,4.937 -5.513,8.984 -5.776,12.123 -0.223,2.669 0.744,4.678 2.917,6.033 1.385,0.88 3.271,1.496 5.633,1.842 l 2.785,19.114 c -9.8,0.157 -17.069,-1.694 -21.82,-5.55 -4.552,-3.678 -6.803,-9.205 -6.734,-16.56 -0.013,-0.006 -0.013,-0.006 -0.008,-0.02 0.033,-4.36 0.885,-9.366 2.543,-15.029"
         id="path935" />
      <path
         inkscape:connector-curvature="0"
         style="fill:#f9d300"
         d="m 660.635,398.638 c -1.637,0.484 -2.915,1.444 -3.851,2.877 -0.793,1.244 -1.326,2.612 -1.57,4.096 -0.248,1.511 -0.154,2.978 0.303,4.428 l 0.165,0.473 c 0.196,0.448 0.437,0.877 0.747,1.302 0.035,0.047 0.081,0.111 0.144,0.163 0.961,1.085 2.025,2.044 3.191,2.896 1.381,1.008 2.812,1.943 4.312,2.803 1.577,0.887 3.199,1.668 4.856,2.33 1.166,0.488 2.325,0.934 3.505,1.34 1.231,0.428 2.472,0.804 3.718,1.122 1.318,0.399 2.632,0.756 3.95,1.085 1.066,0.223 2.123,0.429 3.172,0.604 0.34,0.054 0.667,0.104 0.994,0.155 0.148,0.022 0.313,0.048 0.463,0.071 l 0.927,0.145 c 0.246,0.024 0.491,0.061 0.752,0.101 0.013,0.004 0.013,0.004 0.026,0.005 0.231,0.035 0.45,0.07 0.68,0.12 0.477,0.074 0.968,0.149 1.445,0.225 l 0.013,0.002 c 0.559,0.085 1.132,0.176 1.706,0.251 0.807,0.11 1.616,0.194 2.44,0.28 1.287,0.072 2.548,0.116 3.818,0.117 1.204,0.062 2.391,0.064 3.557,0.009 1.11,-0.052 2.215,-0.145 3.282,-0.286 1.548,-0.164 3.019,-0.468 4.408,-0.896 1.323,-0.421 2.56,-0.94 3.73,-1.556 0.975,-0.518 1.816,-1.182 2.531,-2.004 0.396,-0.402 0.75,-0.794 1.061,-1.177 l 0.283,-0.389 c 0.879,-1.245 1.411,-2.613 1.632,-4.129 0.217,-1.488 0.123,-2.954 -0.257,-4.381 -0.454,-1.648 -1.383,-2.949 -2.798,-3.908 -17.86,-4.683 -35.642,-7.442 -53.335,-8.274"
         id="path937" />
      <path
         inkscape:connector-curvature="0"
         style="fill:#f9d300"
         d="m 685.66,424.526 c 0.15,0.024 0.312,0.048 0.463,0.071 0.327,0.051 0.654,0.102 0.995,0.154 -0.229,-0.05 -0.448,-0.085 -0.68,-0.12 -0.014,-10e-4 -0.014,-10e-4 -0.026,-0.005 -0.261,-0.039 -0.506,-0.075 -0.752,-0.1"
         id="path939" />
      <path
         inkscape:connector-curvature="0"
         style="fill:none;stroke:#e83927;stroke-width:2.20600009;stroke-linecap:round;stroke-linejoin:round;stroke-miterlimit:10"
         d="m 656.784,401.515 c -0.793,1.244 -1.326,2.612 -1.57,4.096 -0.248,1.511 -0.154,2.978 0.303,4.428 l 0.165,0.473 c 0.196,0.448 0.437,0.877 0.747,1.302 0.035,0.047 0.081,0.111 0.144,0.163 0.961,1.085 2.025,2.044 3.191,2.896 1.381,1.008 2.812,1.943 4.312,2.803 1.577,0.887 3.199,1.668 4.856,2.33 1.166,0.488 2.325,0.934 3.505,1.34 1.231,0.428 2.472,0.804 3.718,1.122 1.318,0.399 2.632,0.756 3.95,1.085 1.066,0.223 2.123,0.429 3.172,0.604 0.34,0.054 0.667,0.104 0.994,0.155 0.148,0.022 0.313,0.048 0.463,0.071 l 0.927,0.145 c 0.246,0.024 0.491,0.061 0.752,0.101 0.013,0.004 0.013,0.004 0.026,0.005 0.231,0.035 0.45,0.07 0.68,0.12 0.477,0.074 0.968,0.149 1.445,0.225 l 0.013,0.002 c 0.559,0.085 1.132,0.176 1.706,0.251 0.807,0.11 1.616,0.194 2.44,0.28 1.287,0.072 2.548,0.116 3.818,0.117 1.204,0.062 2.391,0.064 3.557,0.009 1.11,-0.052 2.215,-0.145 3.282,-0.286 1.548,-0.164 3.019,-0.468 4.408,-0.896 1.323,-0.421 2.56,-0.94 3.73,-1.556 0.975,-0.518 1.816,-1.182 2.531,-2.004 0.396,-0.402 0.75,-0.794 1.061,-1.177 l 0.283,-0.389 c 0.879,-1.245 1.411,-2.613 1.632,-4.129 0.217,-1.488 0.123,-2.954 -0.257,-4.381 -0.454,-1.648 -1.383,-2.949 -2.798,-3.908 -17.86,-4.682 -35.643,-7.441 -53.336,-8.273 -1.636,0.483 -2.914,1.443 -3.85,2.876 z"
         id="path941" />
      <path
         inkscape:connector-curvature="0"
         style="fill:#e83434"
         d="m 689.47,407.422 -2.078,-0.811 c -0.488,0.998 -0.923,2.09 -1.318,3.284 -0.377,1.182 -0.681,2.42 -0.896,3.713 -0.212,1.279 -0.218,2.478 0.009,3.615 0.231,1.125 0.526,1.742 0.911,1.858 0.177,-0.14 0.505,-1.443 0.959,-3.913 0.454,-2.482 1.258,-5.064 2.413,-7.746"
         id="path943" />
      <path
         inkscape:connector-curvature="0"
         style="fill:#e83434"
         d="m 699.886,408.117 c 0.092,2.734 0.03,5.016 -0.166,6.826 -0.199,1.824 -0.336,2.976 -0.413,3.48 -0.093,0.502 -0.179,1.145 -0.259,1.927 -0.08,0.783 -0.079,1.496 0.026,2.167 0.095,0.657 0.236,1.084 0.442,1.283 0.324,-0.188 0.571,-0.441 0.742,-0.735 0.557,-0.877 0.913,-1.924 1.061,-3.145 0.746,-4.267 0.963,-8.099 0.664,-11.479 l -2.097,-0.324 z"
         id="path945" />
      <path
         inkscape:connector-curvature="0"
         style="fill:#e83434"
         d="m 710.988,414.626 c 0.035,-1.041 0.002,-2.08 -0.119,-3.102 -0.108,-1.01 -0.293,-1.972 -0.558,-2.879 l -1.94,0.091 c 0.526,2.371 0.771,4.572 0.718,6.613 -0.034,2.019 0.006,3.112 0.136,3.274 0.36,0.013 0.729,-0.39 1.118,-1.195 0.406,-0.816 0.623,-1.76 0.645,-2.802"
         id="path947" />
      <path
         inkscape:connector-curvature="0"
         style="fill:#e83434"
         d="m 662.905,403.44 c -0.445,0.895 -0.813,1.826 -1.104,2.802 -0.302,0.956 -0.358,1.87 -0.188,2.734 0.081,0.39 0.183,0.712 0.302,0.938 0.137,0.286 0.319,0.456 0.522,0.5 0.059,-0.018 0.147,-0.144 0.254,-0.379 0.21,-0.455 0.512,-1.316 0.913,-2.554 0.595,-1.858 1.552,-3.79 2.853,-5.793 l -2.042,-0.694 c -0.561,0.737 -1.063,1.553 -1.51,2.446"
         id="path949" />
      <path
         inkscape:connector-curvature="0"
         style="fill:#e83434"
         d="m 675.321,402.841 -0.603,1.177 c -1.537,2.984 -2.527,5.944 -2.949,8.85 -0.438,2.905 -0.223,4.668 0.643,5.306 0.279,-0.277 0.556,-1.156 0.845,-2.661 0.826,-4.154 2.115,-7.876 3.895,-11.158 l -1.831,-1.514 z"
         id="path951" />
      <path
         inkscape:connector-curvature="0"
         style="fill:#f49c00"
         d="m 736.938,395.045 c 3.2,0.296 6.187,-0.979 8.943,-3.812 2.742,-2.834 4.46,-6.415 5.135,-10.714 0.69,-4.301 0.128,-8.092 -1.66,-11.348 -1.79,-3.255 -4.3,-5.039 -7.499,-5.336 -3.212,-0.299 -6.199,0.976 -8.942,3.81 -2.74,2.835 -4.459,6.415 -5.149,10.715 -0.675,4.3 -0.112,8.093 1.675,11.348 1.79,3.256 4.286,5.038 7.497,5.337"
         id="path953" />
      <path
         inkscape:connector-curvature="0"
         style="fill:none;stroke:#e83927;stroke-width:2.20700002;stroke-linecap:round;stroke-linejoin:round;stroke-miterlimit:10"
         d="m 736.938,395.045 c -3.212,-0.299 -5.707,-2.081 -7.498,-5.337 -1.787,-3.255 -2.35,-7.048 -1.675,-11.348 0.69,-4.3 2.409,-7.88 5.149,-10.715 2.743,-2.834 5.73,-4.109 8.942,-3.81 3.199,0.297 5.709,2.082 7.499,5.336 1.788,3.256 2.351,7.047 1.66,11.348 -0.675,4.299 -2.393,7.88 -5.135,10.714 -2.755,2.833 -5.741,4.108 -8.942,3.812 z"
         id="path955" />
      <path
         inkscape:connector-curvature="0"
         style="fill:#f49c00"
         d="m 734.559,352.477 c -8.806,-8.532 -19.945,-13.431 -33.42,-14.681 -13.457,-1.249 -25.309,1.515 -35.563,8.279 -10.229,6.78 -15.853,15.594 -16.859,26.444 -1.005,10.835 2.899,20.535 11.707,29.081 8.832,8.552 19.973,13.449 33.43,14.697 13.475,1.251 25.324,-1.516 35.555,-8.295 10.241,-6.778 15.866,-15.591 16.872,-26.428 1.004,-10.849 -2.901,-20.548 -11.722,-29.097"
         id="path957" />
      <path
         inkscape:connector-curvature="0"
         style="fill:none;stroke:#e83927;stroke-width:2.20700002;stroke-linecap:round;stroke-linejoin:round;stroke-miterlimit:10"
         d="m 701.139,337.796 c -13.457,-1.249 -25.309,1.515 -35.563,8.279 -10.229,6.78 -15.853,15.594 -16.859,26.444 -1.005,10.835 2.899,20.535 11.707,29.081 8.832,8.552 19.973,13.449 33.43,14.697 13.475,1.251 25.324,-1.516 35.555,-8.295 10.241,-6.778 15.866,-15.591 16.872,-26.428 1.006,-10.849 -2.899,-20.548 -11.721,-29.097 -8.807,-8.532 -19.947,-13.431 -33.421,-14.681 z"
         id="path959" />
      <path
         inkscape:connector-curvature="0"
         style="fill:#f49c00"
         d="m 661.103,361.644 c -0.13,-0.234 -0.274,-0.469 -0.434,-0.692 -2.175,-3.29 -4.876,-5.092 -8.089,-5.391 -3.199,-0.296 -5.992,0.996 -8.352,3.866 -2.356,2.871 -3.608,6.494 -3.723,10.847 -0.125,4.352 0.903,8.188 3.077,11.477 2.188,3.293 4.89,5.096 8.088,5.392 2.706,0.252 5.102,-0.62 7.197,-2.614 l 0.199,-0.951 2.037,-21.934 z"
         id="path961" />
      <path
         inkscape:connector-curvature="0"
         style="fill:none;stroke:#e83927;stroke-width:2.20700002;stroke-linecap:square;stroke-linejoin:round;stroke-miterlimit:10"
         d="m 658.868,384.528 c -2.096,1.994 -4.491,2.866 -7.197,2.614 -3.198,-0.296 -5.9,-2.099 -8.088,-5.392 -2.174,-3.289 -3.202,-7.125 -3.077,-11.477 0.114,-4.353 1.366,-7.976 3.723,-10.847 2.359,-2.87 5.152,-4.162 8.352,-3.866 3.213,0.299 5.914,2.101 8.089,5.391 0.159,0.223 0.304,0.458 0.434,0.692"
         id="path963" />
      <path
         inkscape:connector-curvature="0"
         d="m 718.375,324.098 c 0.671,-0.825 2.014,-1.877 4.004,-3.148 1.854,-1.172 2.934,-1.75 3.221,-1.723 -1.485,-0.428 -3.249,-0.523 -5.307,-0.271 -4.096,0.549 -7.288,2.551 -9.593,6.035 0.326,-2.92 -0.512,-5.379 -2.528,-7.383 -0.635,-0.626 -1.32,-1.146 -2.044,-1.546 -0.699,-0.383 -0.98,-0.493 -0.843,-0.328 1.038,2.993 0.026,6.14 -3.011,9.446 -0.968,-1.378 -1.09,-3.786 -0.355,-7.209 0.655,-3.041 1.229,-4.734 1.744,-5.074 -1.287,0.436 -2.633,1.209 -4.024,2.342 -2.202,1.777 -3.632,3.887 -4.274,6.334 -0.748,-0.442 -1.497,-0.873 -2.276,-1.291 -3.653,-1.986 -7.258,-2.986 -10.845,-3.001 0.231,0.353 0.945,1.32 2.141,2.914 0.136,0.192 0.535,1.103 1.203,2.701 -1.725,-1.864 -4.021,-3.378 -6.892,-4.545 -2.868,-1.181 -5.486,-1.784 -7.854,-1.796 0.835,1.006 2.244,2.383 4.241,4.163 1.698,1.693 2.801,3.403 3.306,5.126 -1.528,-1.292 -3.078,-2.239 -4.642,-2.841 -2.911,-1.144 -6.377,-1.132 -10.401,0.004 0.58,0.15 1.285,0.466 2.127,0.959 0.827,0.479 1.778,1.135 2.854,1.941 2.265,1.694 3.531,2.974 3.824,3.846 -2.047,-0.315 -4.299,-0.551 -6.737,-0.682 -2.439,-0.142 -4.59,0.06 -6.439,0.594 -1.853,0.535 -3.614,1.467 -5.274,2.793 3.248,-0.542 6.478,-0.395 9.683,0.441 3.205,0.839 5.038,1.827 5.527,2.981 -4.271,-0.535 -7.657,-0.489 -10.153,0.151 -2.499,0.64 -4.107,1.254 -4.814,1.866 1.338,-0.084 2.788,-0.032 4.336,0.154 1.547,0.185 3.735,0.79 6.576,1.815 -4.809,2.422 -9.629,2.722 -14.486,0.871 0.543,0.716 1.09,1.377 1.657,1.996 0.603,0.666 1.262,1.324 1.993,1.958 0.755,0.666 1.592,1.203 2.509,1.619 0.812,0.367 1.654,0.708 2.497,1.007 0.871,0.317 1.748,0.565 2.648,0.717 9.208,1.825 17.073,1.404 23.567,-1.262 -2.28,2.337 -4.694,4.164 -7.251,5.464 -0.103,0.06 -0.142,0.167 -0.11,0.294 0.026,0.142 0.092,0.19 0.192,0.156 2.49,-0.419 4.74,-1.374 6.762,-2.848 1.736,-1.266 3.338,-2.683 4.783,-4.251 1.894,-1.585 3.974,-2.5 6.239,-2.733 1.246,-0.148 2.593,-0.175 4.068,-0.107 1.502,0.07 3.003,0.182 4.485,0.334 0.178,0.016 0.369,0.047 0.573,0.08 2.189,0.301 4.055,0.807 5.592,1.545 1.527,0.709 2.761,1.447 3.702,2.199 0.092,0.064 0.167,0.141 0.229,0.215 0.159,-0.359 0.836,-0.934 2.019,-1.725 1.138,-0.78 2.42,-1.007 3.83,-0.696 3.678,0.839 6.77,2.595 9.292,5.268 0.325,0.362 0.666,0.712 1.025,1.036 0.586,0.567 1.186,1.107 1.812,1.65 0.627,0.572 1.314,1.078 2.034,1.533 0.509,0.338 1.064,0.625 1.65,0.874 1.009,0.466 2.065,0.579 3.155,0.32 0.936,-0.218 1.813,-0.58 2.622,-1.086 0.28,-0.183 0.577,-0.403 0.908,-0.664 0.611,-0.483 1.174,-1.013 1.685,-1.59 0.567,-0.597 1.073,-1.258 1.487,-1.994 -0.689,-0.05 -1.428,-0.147 -2.217,-0.289 -0.271,-0.067 -0.558,-0.121 -0.843,-0.19 -1.849,-0.379 -3.298,-0.887 -4.333,-1.523 -0.235,-0.148 -0.456,-0.306 -0.649,-0.463 -0.669,-0.547 -1.433,-0.977 -2.276,-1.291 -0.025,-0.016 -0.055,-0.019 -0.079,-0.035 4.97,-0.55 8.09,-2.546 9.394,-5.999 -4.303,0.834 -8.258,0.453 -11.859,-1.155 l 0.854,-0.116 c 1.479,-0.25 3.182,-1.463 5.102,-3.627 1.035,-1.164 1.76,-2.107 2.187,-2.802 0.245,-0.407 0.387,-0.741 0.425,-0.998 -0.928,0.273 -1.947,0.524 -3.062,0.753 -0.665,0.146 -1.384,0.274 -2.129,0.399 -1.112,0.187 -2.162,0.325 -3.152,0.385 -2.507,0.141 -4.558,-0.145 -6.154,-0.862 0.898,0.029 2.208,-0.349 3.943,-1.13 1.866,-0.866 3.183,-1.325 3.939,-1.407 -1.851,-0.214 -3.319,-0.349 -4.422,-0.41 -1.984,-0.115 -4.324,0.166 -7.03,0.815 2.311,-1.461 5.368,-2.452 9.14,-2.948 0.435,-0.07 -0.946,-0.406 -4.16,-0.995 -3.174,-0.585 -5.487,-0.73 -6.956,-0.424 -2.118,0.427 -3.881,1.22 -5.303,2.362 0.309,-1.399 0.971,-2.722 1.991,-3.998"
         id="path965" />
      <path
         inkscape:connector-curvature="0"
         style="fill:#e83434"
         d="m 735.043,395.173 1.711,-3.299 c -14.375,8.212 -28.419,10.341 -42.109,6.398 -4.271,-1.228 -8.259,-2.991 -11.949,-5.305 -1.853,-1.142 -3.262,-2.162 -4.248,-3.062 2.056,9.025 7.223,15.469 15.525,19.319 2.599,1.197 5.353,2.063 8.26,2.603 l 3.577,0.456 c 9.272,0.317 17.206,-2.992 23.809,-9.915 2.061,-2.158 3.861,-4.565 5.424,-7.195"
         id="path967" />
      <path
         inkscape:connector-curvature="0"
         style="fill:#f092b1"
         d="m 713.728,399.861 c -4.993,0.58 -9.93,0.405 -14.818,-0.556 0.272,1.84 0.662,3.229 1.176,4.185 1.054,1.938 2.891,2.984 5.513,3.121 2.686,0.142 4.709,-0.68 6.08,-2.45 0.713,-0.927 1.4,-2.363 2.049,-4.3"
         id="path969" />
      <path
         inkscape:connector-curvature="0"
         style="fill:#ffffff"
         d="m 722.521,358.62 c -2.436,1.478 -3.781,3.722 -4.047,6.745 -0.282,3.021 0.612,5.93 2.667,8.725 2.066,2.809 4.69,4.687 7.86,5.605 3.18,0.947 5.99,0.667 8.43,-0.825 2.448,-1.476 3.793,-3.72 4.061,-6.742 0.267,-3.024 -0.642,-5.934 -2.694,-8.729 -2.055,-2.794 -4.666,-4.656 -7.848,-5.603 -3.17,-0.918 -5.977,-0.652 -8.429,0.824"
         id="path971" />
      <path
         inkscape:connector-curvature="0"
         style="fill:#ffffff"
         d="m 714.834,361.895 c -1.011,-2.988 -3.252,-5.093 -6.7,-6.3 -3.45,-1.193 -7.113,-1.131 -10.987,0.172 -3.849,1.318 -6.796,3.511 -8.809,6.551 -2.014,3.04 -2.516,6.069 -1.508,9.085 1.035,3.02 3.28,5.112 6.729,6.305 3.447,1.206 7.11,1.144 10.96,-0.174 3.874,-1.303 6.819,-3.482 8.833,-6.521 2.014,-3.069 2.519,-6.097 1.482,-9.118"
         id="path973" />
      <path
         inkscape:connector-curvature="0"
         d="m 731.321,365.116 c 1.006,-1.097 2.192,-1.643 3.581,-1.638 1.39,0.005 2.559,0.541 3.532,1.605 0.974,1.093 1.445,2.394 1.413,3.934 -0.032,1.537 -0.538,2.841 -1.519,3.939 -1.006,1.111 -2.192,1.672 -3.582,1.666 -1.39,-0.005 -2.559,-0.54 -3.531,-1.633 -0.984,-1.094 -1.469,-2.395 -1.437,-3.933 0.033,-1.539 0.537,-2.842 1.543,-3.94"
         id="path975" />
      <path
         inkscape:connector-curvature="0"
         d="m 713.333,363.136 c -0.903,-1.299 -2.112,-2.082 -3.662,-2.352 -1.546,-0.269 -2.953,0.035 -4.249,0.909 -1.299,0.903 -2.082,2.115 -2.352,3.661 -0.269,1.547 0.037,2.956 0.909,4.25 0.902,1.313 2.111,2.11 3.659,2.379 1.547,0.27 2.954,-0.035 4.253,-0.937 1.312,-0.901 2.109,-2.11 2.378,-3.658 0.271,-1.547 -0.034,-2.955 -0.936,-4.252"
         id="path977" />
      <path
         inkscape:connector-curvature="0"
         style="fill:#e83827"
         d="m 726.229,374.86 c -1.99,-2.677 -4.557,-4.162 -7.695,-4.453 -3.138,-0.293 -5.934,0.695 -8.382,2.961 -2.461,2.252 -3.854,5.115 -4.177,8.59 -0.321,3.474 0.519,6.545 2.524,9.209 1.991,2.679 4.556,4.164 7.694,4.454 3.139,0.292 5.933,-0.695 8.383,-2.962 2.462,-2.25 3.855,-5.113 4.176,-8.588 0.323,-3.474 -0.52,-6.545 -2.523,-9.211"
         id="path979" />
    </g>
  </g>
</svg>
