<?xml version="1.0" encoding="UTF-8" standalone="no"?>
<!-- Created with Inkscape (http://www.inkscape.org/) -->

<svg
   xmlns:dc="http://purl.org/dc/elements/1.1/"
   xmlns:cc="http://creativecommons.org/ns#"
   xmlns:rdf="http://www.w3.org/1999/02/22-rdf-syntax-ns#"
   xmlns:svg="http://www.w3.org/2000/svg"
   xmlns="http://www.w3.org/2000/svg"
   xmlns:sodipodi="http://sodipodi.sourceforge.net/DTD/sodipodi-0.dtd"
   xmlns:inkscape="http://www.inkscape.org/namespaces/inkscape"
   width="116.2431"
   height="183.47217"
   id="svg5696"
   version="1.1"
   inkscape:version="0.48.4 r9939"
   sodipodi:docname="ernie13.svg">
  <defs
     id="defs5698">
    <clipPath
       id="SVGID_2_">
      <rect
         height="88.862999"
         width="111.498"
         y="518.96198"
         x="382.04999"
         id="use1087" />
    </clipPath>
    <clipPath
       id="SVGID_4_">
      <rect
         height="41.314999"
         width="49.584999"
         y="525.19397"
         x="389.84698"
         id="use1111" />
    </clipPath>
  </defs>
  <sodipodi:namedview
     id="base"
     pagecolor="#ffffff"
     bordercolor="#666666"
     borderopacity="1.0"
     inkscape:pageopacity="0.0"
     inkscape:pageshadow="2"
     inkscape:zoom="0.77472527"
     inkscape:cx="63.969598"
     inkscape:cy="65.619395"
     inkscape:current-layer="layer1"
     inkscape:document-units="px"
     showgrid="false"
     inkscape:window-width="763"
     inkscape:window-height="591"
     inkscape:window-x="592"
     inkscape:window-y="97"
     inkscape:window-maximized="0"
     fit-margin-top="0"
     fit-margin-left="0"
     fit-margin-right="0"
     fit-margin-bottom="0" />
  <metadata
     id="metadata5701">
    <rdf:RDF>
      <cc:Work
         rdf:about="">
        <dc:format>image/svg+xml</dc:format>
        <dc:type
           rdf:resource="http://purl.org/dc/dcmitype/StillImage" />
        <dc:title></dc:title>
      </cc:Work>
    </rdf:RDF>
  </metadata>
  <g
     id="layer1"
     inkscape:label="Layer 1"
     inkscape:groupmode="layer"
     transform="translate(-253.97369,32.74639)">
    <g
       transform="translate(-410.02806,-573.78439)"
       id="g1095">
      <path
         inkscape:connector-curvature="0"
         style="fill:#e83434"
         d="m 741.18,701.381 c 0.829,0.19 1.609,0.383 2.354,0.599 0.088,0.022 0.177,0.045 0.266,0.08 -2.703,1.736 -4.576,5.022 -5.608,9.851 l -0.065,0.352 c -0.176,1.391 -0.387,2.321 -0.649,2.79 -0.264,0.47 -0.419,0.713 -0.481,0.715 l -0.36,0.096 c -1.031,0.241 -2.115,0.296 -3.231,0.162 -1.201,-0.104 -2.407,-0.285 -3.614,-0.539 -0.991,-0.186 -1.96,-0.397 -2.928,-0.609 -0.993,-0.224 -1.962,-0.472 -2.933,-0.746 -1.184,-0.354 -2.356,-0.761 -3.532,-1.216 -0.529,-0.224 -1.212,-0.492 -2.045,-0.82 l 1.085,-10.7 16.746,-0.952 c 0.651,0.094 1.279,0.203 1.894,0.311 -2.455,2.529 -4.012,4.57 -4.656,6.149 -0.142,0.329 -0.135,0.604 0.009,0.838 l 2.316,0.637 c 1.453,-3.016 3.266,-5.352 5.432,-6.998 m -19.033,6.013 c -0.56,0.59 -0.827,1.283 -0.806,2.097 0.021,0.812 0.327,1.49 0.917,2.036 0.577,0.561 1.273,0.828 2.083,0.807 0.812,-0.022 1.492,-0.328 2.051,-0.918 0.56,-0.577 0.827,-1.272 0.806,-2.083 -0.022,-0.812 -0.327,-1.49 -0.918,-2.051 -0.591,-0.56 -1.284,-0.827 -2.096,-0.806 -0.811,0.023 -1.492,0.329 -2.037,0.918"
         id="path1097" />
      <path
         inkscape:connector-curvature="0"
         style="fill:#ffffff"
         d="m 721.342,709.49 c -0.021,-0.813 0.246,-1.507 0.806,-2.097 0.545,-0.589 1.226,-0.895 2.037,-0.918 0.812,-0.021 1.505,0.246 2.096,0.806 0.591,0.561 0.896,1.238 0.918,2.051 0.021,0.811 -0.246,1.506 -0.806,2.083 -0.559,0.59 -1.239,0.896 -2.051,0.918 -0.81,0.021 -1.506,-0.246 -2.083,-0.807 -0.59,-0.546 -0.896,-1.224 -0.917,-2.036"
         id="path1099" />
      <path
         inkscape:connector-curvature="0"
         style="fill:#ffffff"
         d="m 738.075,700.752 c 1.094,0.196 2.137,0.405 3.104,0.629 -2.166,1.646 -3.979,3.982 -5.436,6.995 l -2.316,-0.637 c -0.143,-0.234 -0.15,-0.509 -0.009,-0.838 0.645,-1.579 2.202,-3.62 4.657,-6.149"
         id="path1101" />
      <path
         inkscape:connector-curvature="0"
         style="fill:#ffffff"
         d="m 743.799,702.06 c 2.732,0.788 4.87,1.742 6.411,2.84 2.791,1.974 4.212,4.185 4.278,6.646 0.003,0.112 0.006,0.237 -0.003,0.349 -0.062,2.315 -1.373,4.235 -3.931,5.769 -2.668,1.597 -6.148,2.288 -10.441,2.068 -6.012,-0.05 -12.861,-1.465 -20.559,-4.257 -0.988,-0.474 -1.413,-1.373 -1.273,-2.702 l 0.069,-0.678 c 0.833,0.328 1.516,0.597 2.045,0.82 1.176,0.455 2.349,0.861 3.532,1.216 0.971,0.274 1.939,0.522 2.933,0.746 0.968,0.212 1.937,0.424 2.928,0.609 1.207,0.254 2.413,0.435 3.614,0.539 1.116,0.134 2.2,0.079 3.231,-0.162 l 0.36,-0.096 c 0.062,-0.002 0.218,-0.245 0.481,-0.715 0.263,-0.469 0.474,-1.399 0.649,-2.79 l 0.065,-0.352 c 1.035,-4.828 2.908,-8.114 5.611,-9.85"
         id="path1103" />
      <path
         inkscape:connector-curvature="0"
         style="fill:none;stroke:#e83927;stroke-width:1.99899995;stroke-linecap:round;stroke-linejoin:round;stroke-miterlimit:10"
         d="m 743.533,701.979 c 0.088,0.022 0.177,0.045 0.266,0.08 2.732,0.788 4.87,1.742 6.411,2.84 2.791,1.974 4.212,4.185 4.278,6.646 0.003,0.112 0.006,0.237 -0.003,0.349 -0.062,2.315 -1.373,4.235 -3.931,5.769 -2.668,1.597 -6.148,2.288 -10.441,2.068 -6.012,-0.05 -12.861,-1.465 -20.559,-4.257 -0.988,-0.474 -1.413,-1.373 -1.273,-2.702 l 0.069,-0.678 1.085,-10.7 16.746,-0.952 c 0.651,0.094 1.279,0.203 1.894,0.311 1.094,0.196 2.137,0.405 3.104,0.629 0.83,0.189 1.61,0.382 2.354,0.597 z"
         id="path1105" />
      <path
         inkscape:connector-curvature="0"
         style="fill:#e83434"
         d="m 776.276,688.941 c 0.039,-0.072 0.079,-0.147 0.102,-0.218 0.935,-2.604 0.184,-6.2 -2.286,-10.78 1.847,0.435 3.429,0.193 4.732,-0.706 0.036,-0.032 0.074,-0.062 0.113,-0.095 1.615,-1.399 1.735,-3.098 0.356,-5.063 -1.133,-1.622 -2.773,-2.915 -4.905,-3.855 -1.883,-0.843 -4.354,-1.52 -7.411,-2.039 l -1.201,-5.112 c -3.554,-0.958 -7.169,-0.397 -10.835,1.661 l 0.592,5.045 c -2.041,3.197 -2.811,5.995 -2.277,8.393 -2.958,6.034 -3.188,9.947 -0.69,11.726 0.106,0.093 0.235,0.158 0.376,0.188 2.131,0.543 3.999,-0.088 5.624,-1.879 -0.024,0.612 0.169,1.5 0.592,2.675 0.408,1.735 1.215,3.265 2.428,4.58 1.057,1.172 2.288,1.405 3.7,0.701 l 0.016,-0.003 c 1.791,-0.864 2.83,-2.337 3.111,-4.429 0.111,-0.81 0.181,-1.621 0.241,-2.441 0.563,0.866 1.129,1.591 1.684,2.189 1.086,1.148 2.125,1.648 3.123,1.506 1.006,-0.039 1.946,-0.721 2.815,-2.044 m -1.652,-0.935 c -0.432,0.647 -0.875,1.01 -1.334,1.096 -0.464,-0.005 -0.962,-0.223 -1.485,-0.666 -2.273,-1.922 -3.998,-4.113 -5.162,-6.592 -0.304,0.553 -0.219,1.374 0.231,2.452 -0.005,0.245 -0.003,0.423 -0.011,0.534 l 10e-4,0.017 c -0.015,1.553 -0.126,3.097 -0.319,4.636 -0.184,1.401 -0.874,2.401 -2.076,2.981 l -0.006,0.008 c -0.363,0.175 -0.688,0.199 -0.993,0.078 -0.145,-0.063 -0.284,-0.152 -0.416,-0.294 -0.828,-0.622 -1.428,-1.458 -1.808,-2.514 -0.943,-2.201 -1.489,-4.78 -1.618,-7.729 -0.464,0.492 -0.783,0.943 -0.963,1.37 -0.776,0.876 -1.686,1.655 -2.718,2.362 -0.758,0.452 -1.54,0.623 -2.364,0.528 -1.426,-1.502 -0.916,-4.684 1.517,-9.565 0.11,-0.211 0.128,-0.433 0.067,-0.669 -0.52,-2.139 0.23,-4.672 2.229,-7.606 l -0.757,-4.566 c 2.701,-1.381 5.325,-1.748 7.887,-1.095 l 1.005,5.086 c 0.788,0.141 1.272,0.218 1.453,0.25 2.53,0.38 4.739,0.995 6.64,1.837 1.8,0.794 3.177,1.868 4.127,3.223 0.68,0.985 0.674,1.829 -0.036,2.536 -0.407,0.256 -0.863,0.419 -1.351,0.485 -0.214,0.03 -0.432,0.047 -0.65,0.046 -0.377,0.017 -0.762,-0.018 -1.136,-0.088 -0.753,-0.129 -1.484,-0.329 -2.208,-0.598 -0.759,-0.28 -1.543,-0.506 -2.346,-0.671 -0.692,-0.114 -1.448,-0.159 -2.271,-0.134 l -0.927,0.065 c 0.144,0.602 1.05,1.078 2.714,1.423 0.555,0.16 1.102,0.372 1.648,0.644 0.054,0.024 0.107,0.033 0.152,0.053 2.912,4.817 4.005,8.503 3.284,11.077"
         id="path1107" />
      <path
         inkscape:connector-curvature="0"
         style="fill:#f49c00"
         d="m 773.29,689.102 c 0.459,-0.086 0.902,-0.448 1.334,-1.096 0.721,-2.574 -0.372,-6.26 -3.283,-11.077 -0.045,-0.018 -0.099,-0.028 -0.152,-0.053 -0.547,-0.271 -1.094,-0.483 -1.648,-0.644 -1.664,-0.345 -2.57,-0.821 -2.714,-1.423 l 0.927,-0.065 c 0.822,-0.025 1.578,0.02 2.271,0.134 0.803,0.165 1.587,0.391 2.346,0.671 0.724,0.269 1.455,0.469 2.208,0.598 0.374,0.07 0.759,0.104 1.136,0.088 0.219,10e-4 0.437,-0.016 0.65,-0.046 0.487,-0.066 0.943,-0.229 1.351,-0.485 0.71,-0.707 0.716,-1.551 0.036,-2.536 -0.95,-1.354 -2.327,-2.429 -4.127,-3.223 -1.9,-0.842 -4.109,-1.457 -6.64,-1.837 -0.181,-0.032 -0.665,-0.109 -1.453,-0.25 l -1.005,-5.086 c -2.562,-0.653 -5.186,-0.286 -7.887,1.095 l 0.757,4.566 c -1.998,2.935 -2.748,5.468 -2.229,7.606 0.061,0.236 0.043,0.458 -0.067,0.669 -2.433,4.882 -2.942,8.063 -1.517,9.565 0.824,0.095 1.606,-0.076 2.364,-0.528 1.032,-0.707 1.941,-1.486 2.718,-2.362 0.18,-0.425 0.499,-0.878 0.963,-1.37 0.129,2.949 0.675,5.528 1.618,7.729 0.38,1.056 0.979,1.892 1.809,2.514 0.131,0.142 0.271,0.23 0.415,0.294 0.306,0.121 0.63,0.097 0.993,-0.078 l 0.006,-0.008 c 1.202,-0.58 1.893,-1.58 2.076,-2.981 0.193,-1.539 0.305,-3.083 0.319,-4.636 l -10e-4,-0.017 c 0.008,-0.111 0.006,-0.289 0.011,-0.534 -0.45,-1.078 -0.535,-1.899 -0.231,-2.452 1.164,2.479 2.889,4.67 5.162,6.592 0.522,0.443 1.02,0.661 1.484,0.666"
         id="path1109" />
      <path
         inkscape:connector-curvature="0"
         style="fill:#30479b"
         d="m 761.585,693.46 -0.019,-0.014 c 0.009,0.007 0.009,0.007 0.019,0.014"
         id="path1111" />
      <path
         inkscape:connector-curvature="0"
         style="fill:#e83827"
         d="m 770.975,664.337 c 0.485,0.968 0.957,1.946 1.432,2.965 -6.372,2.926 -12.811,5.069 -19.325,6.436 -0.796,-2.247 -1.811,-4.363 -3.041,-6.33 l 16.72,-10.329 c 1.496,2.249 2.905,4.669 4.214,7.258"
         id="path1113" />
      <path
         inkscape:connector-curvature="0"
         style="fill:#0076bf"
         d="m 738.425,640.604 3.464,-3.353 c 5.128,1.663 9.804,4.206 14.027,7.654 1.174,0.941 2.312,1.962 3.41,3.047 v 0.013 l -14.499,13.084 c -1.799,-1.723 -3.843,-3.284 -6.119,-4.714 l -0.283,-15.731 z"
         id="path1115" />
      <path
         inkscape:connector-curvature="0"
         style="fill:#fedb00"
         d="m 759.326,647.966 v -0.013 c 2.607,2.567 5.028,5.501 7.246,8.829 0.066,0.091 0.121,0.193 0.188,0.296 l -16.72,10.329 c -1.434,-2.304 -3.176,-4.429 -5.213,-6.357 l 14.499,-13.084 z"
         id="path1117" />
      <path
         inkscape:connector-curvature="0"
         style="fill:#fedb00"
         d="m 766.76,657.078 c -0.066,-0.103 -0.121,-0.205 -0.188,-0.296 0.066,0.091 0.135,0.193 0.2,0.282 l -0.012,0.014 z"
         id="path1119" />
      <path
         inkscape:connector-curvature="0"
         style="fill:none;stroke:#003c90;stroke-width:2.07999992;stroke-linecap:square;stroke-miterlimit:10"
         d="m 738.708,656.336 c 2.276,1.43 4.32,2.991 6.119,4.714 2.037,1.929 3.779,4.054 5.213,6.357 1.23,1.967 2.245,4.083 3.041,6.33 6.515,-1.366 12.953,-3.51 19.325,-6.436 -0.475,-1.019 -0.946,-1.997 -1.432,-2.965 -1.309,-2.589 -2.718,-5.009 -4.215,-7.259 -0.066,-0.103 -0.121,-0.205 -0.188,-0.296 -2.218,-3.328 -4.639,-6.262 -7.246,-8.829 -1.099,-1.085 -2.236,-2.105 -3.41,-3.047 -4.224,-3.448 -8.899,-5.991 -14.027,-7.654 -0.092,-0.038 -0.196,-0.062 -0.288,-0.098"
         id="path1121" />
      <path
         inkscape:connector-curvature="0"
         style="fill:#e83434"
         d="m 721.912,704.305 c 0.864,0.2 1.678,0.399 2.451,0.626 0.092,0.023 0.185,0.048 0.275,0.084 -2.814,1.807 -4.766,5.23 -5.841,10.259 l -0.068,0.367 c -0.182,1.448 -0.403,2.418 -0.677,2.907 -0.272,0.489 -0.436,0.74 -0.501,0.743 l -0.374,0.102 c -1.075,0.249 -2.205,0.306 -3.367,0.168 -1.252,-0.109 -2.508,-0.297 -3.763,-0.562 -1.034,-0.194 -2.043,-0.414 -3.052,-0.633 -1.034,-0.233 -2.044,-0.493 -3.055,-0.778 -1.233,-0.37 -2.455,-0.792 -3.68,-1.267 -0.552,-0.232 -1.263,-0.513 -2.13,-0.854 l 1.13,-11.148 17.443,-0.991 c 0.68,0.099 1.333,0.211 1.975,0.324 -2.56,2.634 -4.181,4.761 -4.853,6.404 -0.147,0.343 -0.139,0.629 0.011,0.873 l 2.413,0.663 c 1.519,-3.139 3.406,-5.571 5.663,-7.287 m -19.826,6.265 c -0.581,0.613 -0.863,1.338 -0.839,2.183 0.023,0.845 0.342,1.553 0.955,2.121 0.604,0.584 1.325,0.862 2.171,0.841 0.846,-0.022 1.554,-0.341 2.135,-0.955 0.584,-0.603 0.862,-1.326 0.84,-2.17 -0.022,-0.847 -0.341,-1.555 -0.955,-2.138 -0.616,-0.581 -1.339,-0.861 -2.185,-0.837 -0.845,0.022 -1.553,0.341 -2.122,0.955"
         id="path1123" />
      <path
         inkscape:connector-curvature="0"
         style="fill:#ffffff"
         d="m 701.247,712.753 c -0.024,-0.845 0.258,-1.569 0.839,-2.183 0.569,-0.614 1.277,-0.934 2.122,-0.955 0.846,-0.024 1.568,0.256 2.185,0.837 0.614,0.583 0.933,1.291 0.955,2.138 0.022,0.844 -0.256,1.567 -0.84,2.17 -0.581,0.614 -1.289,0.933 -2.135,0.955 -0.846,0.021 -1.566,-0.257 -2.171,-0.841 -0.613,-0.568 -0.931,-1.276 -0.955,-2.121"
         id="path1125" />
      <path
         inkscape:connector-curvature="0"
         style="fill:#ffffff"
         d="m 718.68,703.652 c 1.138,0.202 2.225,0.421 3.232,0.652 -2.257,1.716 -4.145,4.148 -5.661,7.288 l -2.413,-0.663 c -0.149,-0.244 -0.158,-0.53 -0.011,-0.873 0.672,-1.643 2.293,-3.77 4.853,-6.404"
         id="path1127" />
      <path
         inkscape:connector-curvature="0"
         style="fill:#ffffff"
         d="m 724.639,705.015 c 2.849,0.822 5.074,1.814 6.679,2.956 2.908,2.057 4.39,4.359 4.457,6.922 0.005,0.117 0.008,0.248 -0.002,0.365 -0.065,2.41 -1.431,4.412 -4.095,6.009 -2.78,1.66 -6.404,2.386 -10.877,2.154 -6.263,-0.052 -13.397,-1.525 -21.416,-4.434 -1.028,-0.494 -1.47,-1.432 -1.326,-2.816 l 0.073,-0.703 c 0.867,0.341 1.578,0.621 2.13,0.854 1.225,0.475 2.446,0.896 3.68,1.267 1.011,0.285 2.021,0.545 3.055,0.778 1.009,0.219 2.018,0.438 3.052,0.633 1.255,0.265 2.511,0.452 3.763,0.562 1.162,0.138 2.292,0.081 3.367,-0.168 l 0.374,-0.102 c 0.065,-0.003 0.229,-0.254 0.501,-0.743 0.273,-0.489 0.495,-1.459 0.677,-2.907 l 0.068,-0.367 c 1.074,-5.03 3.025,-8.454 5.84,-10.26"
         id="path1129" />
      <path
         inkscape:connector-curvature="0"
         style="fill:none;stroke:#e83927;stroke-width:2.08200002;stroke-linecap:round;stroke-linejoin:round;stroke-miterlimit:10"
         d="m 724.363,704.931 c 0.092,0.023 0.185,0.048 0.275,0.084 2.849,0.822 5.074,1.814 6.679,2.956 2.908,2.057 4.39,4.359 4.457,6.922 0.005,0.117 0.008,0.248 -0.002,0.365 -0.065,2.41 -1.431,4.412 -4.095,6.009 -2.78,1.66 -6.404,2.386 -10.877,2.154 -6.263,-0.052 -13.397,-1.525 -21.416,-4.434 -1.028,-0.494 -1.47,-1.432 -1.326,-2.816 l 0.073,-0.703 1.13,-11.148 17.443,-0.991 c 0.68,0.099 1.333,0.211 1.975,0.324 1.138,0.202 2.225,0.421 3.232,0.652 0.865,0.2 1.679,0.399 2.452,0.626 z"
         id="path1131" />
      <path
         inkscape:connector-curvature="0"
         style="fill:#a4c6e9"
         d="m 745.071,694.988 c -0.488,2.049 -1.042,4.07 -1.66,6.08 -9.727,2.11 -17.609,2.512 -23.673,1.19 l -0.146,-5.686 c 8.865,0.293 17.359,-0.23 25.479,-1.584"
         id="path1133" />
      <path
         inkscape:connector-curvature="0"
         style="fill:#5390cd"
         d="m 745.071,694.988 c -8.12,1.354 -16.614,1.877 -25.479,1.585 l -0.613,-23.379 29.233,-0.762 c -0.316,7.734 -1.364,15.253 -3.141,22.556"
         id="path1135" />
      <path
         inkscape:connector-curvature="0"
         style="fill:none;stroke:#003c90;stroke-width:2.08200002;stroke-linecap:square;stroke-miterlimit:10"
         d="m 743.411,701.068 c -9.727,2.11 -17.609,2.512 -23.673,1.19 l -0.146,-5.686 -0.613,-23.379 29.233,-0.762 c -0.317,7.733 -1.365,15.252 -3.142,22.556 -0.487,2.05 -1.041,4.072 -1.659,6.081 z"
         id="path1137" />
      <path
         inkscape:connector-curvature="0"
         style="fill:#003c90"
         d="m 689.999,674.507 0.097,1.118 c 0.788,8.945 1.934,15.254 3.452,18.925 1.507,3.669 2.297,7.449 2.376,11.34 l 0.085,0.699 0.669,0.178 c 6.399,1.767 12.58,2.147 18.54,1.114 1.076,-0.642 2.337,-1.196 3.783,-1.651 1.678,-0.54 3.077,-0.772 4.198,-0.699 0.052,-0.002 0.104,-0.003 0.143,0.008 0.142,-0.056 0.284,-0.111 0.427,-0.167 l 0.656,-0.265 -0.179,-6.595 c 0.262,-8.118 -0.701,-16.396 -2.896,-24.852 l -31.351,0.847 z m 6.941,25.158 c -0.013,-0.026 -0.015,-0.052 -0.015,-0.064 -0.34,-1.526 -1.146,-4.316 -2.388,-8.385 -1.242,-4.067 -1.998,-8.94 -2.269,-14.647 l 27.199,-0.734 c 1.866,7.434 2.764,15.104 2.703,23.006 l 0.131,4.879 c -7.714,3.059 -15.853,3.462 -24.412,1.219 -0.275,-1.999 -0.594,-3.76 -0.949,-5.274"
         id="path1139" />
      <path
         inkscape:connector-curvature="0"
         style="fill:#a4c6e9"
         d="m 696.926,699.601 c 0,0.013 0.002,0.038 0.015,0.064 0.354,1.514 0.674,3.275 0.95,5.272 8.56,2.243 16.698,1.84 24.412,-1.219 l -0.131,-4.879 c -8.365,2.012 -16.781,2.265 -25.246,0.762"
         id="path1141" />
      <path
         inkscape:connector-curvature="0"
         style="fill:#5390cd"
         d="m 694.538,691.216 c 1.242,4.068 2.048,6.858 2.388,8.385 8.465,1.503 16.881,1.25 25.246,-0.761 0.061,-7.902 -0.837,-15.572 -2.703,-23.006 l -27.199,0.734 c 0.27,5.707 1.026,10.58 2.268,14.648"
         id="path1143" />
      <path
         inkscape:connector-curvature="0"
         style="fill:#003c90"
         d="m 723.019,692.666 0.223,2.068 c 3.265,-0.09 5.373,-0.898 6.35,-2.406 -2.213,0.416 -4.4,0.533 -6.573,0.338"
         id="path1145" />
      <path
         inkscape:connector-curvature="0"
         style="fill:#5390cd"
         d="m 719.297,692.264 c 1.185,0.246 2.421,0.39 3.722,0.402 2.174,0.195 4.36,0.078 6.572,-0.338 l 1.522,0.092 c 0.573,-0.25 1.432,-0.521 2.59,-0.834 l -0.337,-12.532 -14.487,0.39 0.418,12.82 z"
         id="path1147" />
      <path
         inkscape:connector-curvature="0"
         style="fill:#ffffff"
         d="m 749.218,644.903 c -0.015,-0.053 -0.017,-0.105 -0.029,-0.144 -0.117,0.03 -0.247,0.059 -0.363,0.101 0,0.015 10e-4,0.039 0.016,0.064 0.013,0.027 0.014,0.053 0.028,0.09 0.753,3.327 1.326,6.696 1.69,10.084 0.193,-0.044 0.389,-0.103 0.581,-0.146 -0.441,-3.385 -1.092,-6.727 -1.923,-10.049"
         id="path1149" />
      <path
         inkscape:connector-curvature="0"
         style="fill:#0076bf"
         d="m 748.869,645.015 c -0.015,-0.037 -0.016,-0.062 -0.028,-0.09 -0.015,-0.025 -0.016,-0.05 -0.016,-0.064 -1.046,-4.528 -2.442,-9.007 -4.202,-13.424 -9.097,-1.853 -17.83,-2.721 -26.198,-2.626 -0.025,10e-4 -0.052,10e-4 -0.077,10e-4 -8.361,0.356 -17.034,1.697 -26.031,4.036 -1.498,4.298 -2.671,8.64 -3.516,12.996 13.169,2.196 25.014,3.125 35.55,2.788 h 0.078 c 1.599,-0.032 3.159,-0.1 4.68,-0.18 7.512,-0.449 14.094,-1.604 19.76,-3.437"
         id="path1151" />
      <path
         inkscape:connector-curvature="0"
         style="fill:#0076bf"
         d="m 748.825,644.86 c 0.116,-0.042 0.246,-0.07 0.363,-0.101 -1.153,-4.538 -2.667,-9.041 -4.545,-13.48 -9.108,-1.85 -17.854,-2.722 -26.222,-2.624 -0.027,10e-4 -0.053,0.002 -0.079,0.002 -8.36,0.355 -17.032,1.695 -26.043,4.036 -1.562,4.35 -2.798,8.719 -3.682,13.117 -0.047,0.195 -0.094,0.405 -0.127,0.614 0.065,0.012 0.131,0.022 0.197,0.033 0.034,-0.209 0.079,-0.418 0.112,-0.614 0.845,-4.356 2.018,-8.698 3.516,-12.996 8.997,-2.339 17.67,-3.68 26.031,-4.036 0.025,0 0.052,0 0.077,-0.001 8.368,-0.095 17.102,0.773 26.198,2.626 1.762,4.418 3.158,8.896 4.204,13.424"
         id="path1153" />
      <path
         inkscape:connector-curvature="0"
         style="fill:#ffffff"
         d="m 729.108,648.452 c -1.521,0.08 -3.081,0.147 -4.68,0.18 h -0.078 c -10.536,0.337 -22.381,-0.592 -35.55,-2.788 -0.033,0.196 -0.078,0.405 -0.112,0.614 -0.013,0.04 -0.012,0.078 -0.024,0.119 -0.602,3.231 -1.01,6.472 -1.232,9.743 11.509,2.007 22.044,3.051 31.587,3.146 1.915,0.011 3.788,0.002 5.62,-0.062 0.027,-0.002 0.055,-0.003 0.081,-0.003 10.16,-0.209 18.78,-1.588 25.858,-4.109 -0.003,-0.052 -0.003,-0.104 -0.018,-0.168 l -10e-4,-0.025 c -0.364,-3.388 -0.938,-6.757 -1.69,-10.084 -5.666,1.833 -12.248,2.988 -19.761,3.437"
         id="path1155" />
      <path
         inkscape:connector-curvature="0"
         style="fill:#e83827"
         d="m 724.72,659.401 c -0.026,0 -0.054,0.001 -0.081,0.003 -1.832,0.063 -3.705,0.072 -5.62,0.062 -9.543,-0.095 -20.078,-1.139 -31.587,-3.146 -0.01,0.144 -0.019,0.3 -0.027,0.444 -0.013,0.024 -0.013,0.053 -0.011,0.077 -0.214,3.17 -0.26,6.359 -0.119,9.56 11.117,1.952 21.312,3.018 30.6,3.196 2.409,0.039 4.751,0.027 7.041,-0.047 0.025,-0.002 0.052,-0.002 0.078,-0.004 10.277,-0.212 18.975,-1.604 26.092,-4.18 l -0.017,-0.063 h 0.015 v -0.027 c 0.025,-3.345 -0.143,-6.674 -0.505,-9.984 -7.079,2.521 -15.699,3.9 -25.859,4.109"
         id="path1157" />
      <path
         inkscape:connector-curvature="0"
         style="fill:#fedb00"
         d="m 724.993,669.547 c -0.026,0.002 -0.053,0.002 -0.078,0.004 -2.29,0.074 -4.632,0.086 -7.041,0.047 -9.287,-0.179 -19.482,-1.244 -30.6,-3.196 0.004,0.181 0.01,0.364 0.026,0.546 0.003,0.026 0.003,0.052 0.003,0.064 0.166,3.264 0.503,6.562 1.021,9.879 0.17,0.034 0.328,0.082 0.498,0.13 10.612,2.019 20.354,3.121 29.197,3.338 0.573,-0.016 1.146,-0.031 1.718,-0.046 0.026,-10e-4 0.053,-10e-4 0.08,-10e-4 10.459,-0.219 20.686,-1.873 30.665,-4.956 0.377,-3.877 0.574,-7.201 0.603,-9.988 -7.117,2.574 -15.814,3.967 -26.092,4.179"
         id="path1159" />
      <path
         inkscape:connector-curvature="0"
         style="fill:#e83827"
         d="m 751.157,655.082 c 0,-0.038 -0.002,-0.092 -0.017,-0.13 -0.192,0.044 -0.388,0.103 -0.581,0.146 10e-4,0.013 10e-4,0.013 10e-4,0.025 0.015,0.064 0.015,0.116 0.018,0.168 0.362,3.311 0.53,6.64 0.505,9.984 v 0.027 c 0.168,-0.045 0.349,-0.089 0.517,-0.132 0.091,-0.017 0.194,-0.044 0.299,-0.073 -10e-4,-0.013 -0.003,-0.026 -0.003,-0.04 0,-0.013 -10e-4,-0.025 -10e-4,-0.037 -0.064,-3.343 -0.311,-6.657 -0.738,-9.938"
         id="path1161" />
      <path
         inkscape:connector-curvature="0"
         style="fill:#e83827"
         d="m 750.561,655.124 c 0,-0.013 0,-0.013 -0.001,-0.025 l 0.001,0.025 z"
         id="path1163" />
      <path
         inkscape:connector-curvature="0"
         style="fill:#fedb00"
         d="m 751.6,665.172 c -0.168,0.043 -0.349,0.087 -0.517,0.132 0,0.013 0.002,0.037 0.002,0.063 -0.028,2.787 -0.226,6.111 -0.603,9.988 0.349,-0.101 0.696,-0.213 1.046,-0.327 0.301,-3.329 0.419,-6.637 0.37,-9.93 -0.104,0.03 -0.208,0.057 -0.298,0.074"
         id="path1165" />
      <path
         inkscape:connector-curvature="0"
         style="fill:#fedb00"
         d="m 751.085,665.367 c 0,-0.026 -0.002,-0.051 -0.002,-0.063 h -0.015 l 0.017,0.063 z"
         id="path1167" />
      <path
         inkscape:connector-curvature="0"
         style="fill:#ffffff"
         d="m 688.664,646.577 c 0.013,-0.041 0.012,-0.079 0.024,-0.119 -0.066,-0.011 -0.132,-0.021 -0.197,-0.033 -0.642,3.259 -1.1,6.552 -1.359,9.852 -0.011,0.146 -0.034,0.274 -0.043,0.419 0.105,0.022 0.21,0.047 0.315,0.069 0.009,-0.145 0.018,-0.301 0.027,-0.444 0.223,-3.272 0.631,-6.512 1.233,-9.744"
         id="path1169" />
      <path
         inkscape:connector-curvature="0"
         style="fill:#e83827"
         d="m 687.404,656.765 c -0.105,-0.022 -0.21,-0.047 -0.315,-0.069 -0.251,3.195 -0.32,6.414 -0.221,9.625 0.004,0.183 0.01,0.364 0.014,0.547 0.146,0.036 0.275,0.058 0.419,0.08 -0.017,-0.182 -0.022,-0.365 -0.026,-0.546 -0.141,-3.2 -0.095,-6.39 0.119,-9.56 -0.002,-0.025 -0.002,-0.053 0.01,-0.077"
         id="path1171" />
      <path
         inkscape:connector-curvature="0"
         style="fill:#fedb00"
         d="m 687.301,666.947 c -0.144,-0.022 -0.273,-0.044 -0.419,-0.08 0.128,3.276 0.425,6.576 0.905,9.883 0.171,0.047 0.354,0.094 0.537,0.141 -0.518,-3.317 -0.854,-6.615 -1.021,-9.879 10e-4,-0.013 10e-4,-0.038 -0.002,-0.065"
         id="path1173" />
      <path
         inkscape:connector-curvature="0"
         style="fill:#fedb00"
         d="m 718.02,680.358 c -8.844,-0.217 -18.585,-1.319 -29.197,-3.338 9.58,2.398 19.322,3.515 29.197,3.338"
         id="path1175" />
      <path
         inkscape:connector-curvature="0"
         style="fill:none;stroke:#003c90;stroke-width:2.08200002;stroke-linecap:square;stroke-miterlimit:10"
         d="m 748.841,644.925 c -0.015,-0.025 -0.016,-0.05 -0.016,-0.064 -1.046,-4.528 -2.442,-9.007 -4.202,-13.424 -9.097,-1.853 -17.83,-2.721 -26.198,-2.626 -0.025,10e-4 -0.052,10e-4 -0.077,10e-4 -8.361,0.356 -17.034,1.697 -26.031,4.036 -1.498,4.298 -2.671,8.64 -3.516,12.996 -0.033,0.196 -0.078,0.405 -0.112,0.614 -0.013,0.04 -0.012,0.078 -0.024,0.119 -0.602,3.231 -1.01,6.472 -1.232,9.743 -0.01,0.144 -0.019,0.3 -0.027,0.444 -0.013,0.024 -0.013,0.053 -0.011,0.077 -0.214,3.17 -0.26,6.359 -0.119,9.56 0.004,0.181 0.01,0.364 0.026,0.546 0.003,0.026 0.003,0.052 0.003,0.064 0.166,3.264 0.503,6.562 1.021,9.879 10e-4,0.014 10e-4,0.014 0.002,0.026 0.17,0.034 0.326,0.068 0.496,0.104 10.612,2.019 20.354,3.121 29.197,3.338 2.346,0.054 4.638,0.043 6.86,-0.029 0.026,0 0.052,0 0.078,-0.002 10.11,-0.207 18.608,-1.712 25.472,-4.488 0.009,-0.169 0.029,-0.327 0.053,-0.483 0.377,-3.877 0.574,-7.201 0.603,-9.988 0,-0.026 -0.002,-0.051 -0.002,-0.063 v -0.027 c 0.025,-3.345 -0.143,-6.674 -0.505,-9.984 -0.003,-0.052 -0.003,-0.104 -0.018,-0.168 0,-0.013 0,-0.013 -10e-4,-0.025 -0.364,-3.388 -0.938,-6.757 -1.69,-10.084 -0.017,-0.039 -0.017,-0.065 -0.03,-0.092 z"
         id="path1177" />
      <path
         inkscape:connector-curvature="0"
         style="fill:#e83434"
         d="m 693.834,667.722 0.014,-0.003 c -0.199,-0.689 -1.084,-1.483 -2.662,-2.389 -1.445,-0.836 -3.136,-1.189 -5.068,-1.068 -1.985,0.135 -3.636,0.849 -4.951,2.152 l -0.013,0.002 c -1.081,1.069 -1.993,2.323 -2.737,3.766 -2.01,0.188 -3.654,0.992 -4.937,2.4 l 0.002,0.012 c -1.284,1.383 -2.434,2.822 -3.425,4.303 v -0.013 l -2.95,4.351 c -0.825,1.196 -1.773,3.366 -2.82,6.492 -1.059,3.129 0.83,4.796 5.678,5.021 0.145,3.847 1.126,6.028 2.942,6.544 1.316,0.634 2.812,0.815 4.503,0.543 l 0.013,-0.001 c 1.147,-0.201 1.971,-0.577 2.46,-1.115 0.123,0.097 0.259,0.193 0.395,0.275 l 0.013,0.013 c 1.562,1.024 3.187,1.367 4.85,1.03 l 0.008,-0.014 c 1.817,-0.347 2.94,-1.562 3.372,-3.647 0.29,-1.464 0.44,-3.232 0.482,-5.306 0.069,0.047 0.138,0.095 0.204,0.13 l 0.012,-0.001 c 1.194,0.748 2.528,1.057 4.021,0.926 1.618,-0.138 2.819,-0.942 3.604,-2.398 h 0.014 c 0.929,-1.829 1.035,-3.726 0.315,-5.675 -0.721,-1.962 -1.636,-3.508 -2.748,-4.639 -0.57,-0.578 -1.484,-1.447 -2.727,-2.582 0.923,-2.155 1.555,-3.966 1.922,-5.407 0.443,-1.866 0.513,-3.11 0.214,-3.702 m -1.936,0.744 v 0.013 c 0.091,0.397 -0.002,1.212 -0.303,2.456 l -10e-4,-0.014 c -0.377,1.508 -1.081,3.428 -2.111,5.744 -0.091,0.204 -0.116,0.426 -0.063,0.646 0.053,0.217 0.154,0.394 0.321,0.552 1.49,1.355 2.554,2.347 3.18,2.998 0.462,0.506 1.156,1.831 2.084,4.002 0.715,1.663 0.715,2.952 0.005,3.884 -0.422,0.793 -1.073,1.225 -1.953,1.304 -1.023,0.103 -1.936,-0.103 -2.734,-0.612 -1.161,-0.45 -1.844,-1.151 -2.046,-2.116 -0.217,-0.963 -0.356,-1.541 -0.418,-1.707 -0.076,-0.164 -0.209,-0.247 -0.418,-0.236 0.075,0.166 0.039,0.663 -0.093,1.48 -0.132,0.814 -0.246,2.151 -0.339,4.02 -0.094,1.855 -0.256,3.456 -0.5,4.787 -0.258,1.319 -0.849,2.097 -1.772,2.323 l -0.014,10e-4 0.014,-10e-4 c -1.134,0.213 -2.243,-0.03 -3.316,-0.733 -0.569,-0.396 -0.986,-1.008 -1.247,-1.839 -0.056,-0.283 -0.111,-0.567 -0.194,-0.862 l -0.016,-0.011 c -0.288,-1.09 -0.377,-3.599 -0.24,-7.557 -0.963,1.741 -1.528,3.156 -1.694,4.248 -0.169,1.078 -0.194,2.37 -0.062,3.874 0.067,0.244 0.12,0.476 0.16,0.706 l 0.015,0.026 c 0.002,0.038 0.005,0.065 0.02,0.103 0.076,0.361 0.188,0.705 0.351,1.047 -0.197,0.39 -0.676,0.654 -1.437,0.791 -1.227,0.193 -2.327,0.079 -3.28,-0.371 -0.846,-0.43 -1.405,-1.229 -1.698,-2.41 -0.866,-3.504 -0.744,-6.613 0.366,-9.3 -0.771,1.233 -1.378,2.572 -1.836,4.034 -0.166,0.492 -0.273,0.865 -0.323,1.115 -2.974,0.169 -4.328,-0.686 -4.042,-2.592 0.273,-1.905 0.987,-3.671 2.137,-5.292 1.488,-2.709 2.488,-4.27 2.983,-4.679 0.79,-1.573 1.992,-2.988 3.596,-4.246 0.013,-0.016 0.013,-0.028 0.024,-0.042 h 0.013 c 1.052,-1.134 2.422,-1.727 4.099,-1.789 0.196,10e-4 0.373,-0.063 0.538,-0.164 0.162,-0.115 0.283,-0.251 0.363,-0.427 0.681,-1.437 1.556,-2.674 2.612,-3.718 v -0.013 c 0.972,-0.959 2.176,-1.476 3.616,-1.552 1.495,-0.092 2.789,0.181 3.907,0.803 0.957,0.554 1.546,0.999 1.746,1.326"
         id="path1179" />
      <path
         inkscape:connector-curvature="0"
         style="fill:#e68c00"
         d="m 691.898,668.479 v -0.013 c -0.2,-0.327 -0.789,-0.771 -1.749,-1.326 -1.118,-0.622 -2.412,-0.895 -3.907,-0.803 -1.44,0.076 -2.645,0.593 -3.616,1.552 v 0.013 c -1.057,1.044 -1.932,2.281 -2.612,3.718 -0.08,0.176 -0.201,0.312 -0.364,0.427 -0.164,0.101 -0.341,0.165 -0.537,0.164 -1.678,0.062 -3.047,0.655 -4.099,1.789 h -0.013 c -0.014,0.014 -0.012,0.026 -0.024,0.042 -1.604,1.258 -2.807,2.673 -3.596,4.246 -0.495,0.409 -1.495,1.97 -2.983,4.679 -1.149,1.621 -1.863,3.387 -2.137,5.292 -0.286,1.906 1.068,2.761 4.042,2.592 0.05,-0.25 0.157,-0.623 0.323,-1.115 0.458,-1.462 1.065,-2.801 1.836,-4.034 -1.11,2.687 -1.232,5.796 -0.366,9.3 0.293,1.182 0.853,1.98 1.698,2.41 0.953,0.45 2.054,0.564 3.28,0.371 0.761,-0.137 1.239,-0.401 1.437,-0.791 -0.163,-0.342 -0.275,-0.686 -0.351,-1.047 -0.015,-0.037 -0.018,-0.064 -0.02,-0.103 l -0.015,-0.026 c -0.04,-0.23 -0.093,-0.462 -0.16,-0.706 -0.132,-1.504 -0.106,-2.796 0.062,-3.874 0.166,-1.092 0.731,-2.507 1.694,-4.248 -0.137,3.958 -0.048,6.467 0.24,7.557 l 0.016,0.011 c 0.083,0.295 0.139,0.579 0.194,0.862 0.261,0.831 0.678,1.443 1.247,1.839 1.073,0.703 2.183,0.946 3.316,0.733 0.924,-0.227 1.515,-1.004 1.772,-2.323 0.244,-1.331 0.406,-2.932 0.5,-4.787 0.093,-1.868 0.207,-3.205 0.339,-4.02 0.132,-0.817 0.168,-1.314 0.093,-1.48 0.209,-0.011 0.342,0.072 0.418,0.236 0.062,0.166 0.201,0.744 0.418,1.707 0.202,0.965 0.885,1.666 2.046,2.116 0.799,0.51 1.711,0.715 2.734,0.612 0.88,-0.079 1.531,-0.511 1.953,-1.304 0.71,-0.932 0.71,-2.221 -0.005,-3.884 -0.928,-2.171 -1.622,-3.496 -2.084,-4.002 -0.626,-0.651 -1.689,-1.643 -3.18,-2.998 -0.167,-0.158 -0.269,-0.335 -0.321,-0.552 -0.053,-0.22 -0.027,-0.441 0.063,-0.646 1.03,-2.316 1.734,-4.236 2.111,-5.744 l 10e-4,0.014 c 0.304,-1.245 0.397,-2.059 0.306,-2.456"
         id="path1181" />
      <path
         inkscape:connector-curvature="0"
         style="fill:#e83827"
         d="m 673.148,671.329 c -0.285,1.044 -0.555,2.097 -0.819,3.19 6.827,1.608 13.562,2.441 20.222,2.494 0.338,-2.363 0.911,-4.636 1.732,-6.809 l -18.436,-6.826 c -1.023,2.504 -1.926,5.152 -2.699,7.951"
         id="path1183" />
      <path
         inkscape:connector-curvature="0"
         style="fill:#0076bf"
         d="m 684.079,649.302 c -0.966,1.155 -1.88,2.379 -2.742,3.661 l 16.802,9.98 c 1.355,-1.927 2.935,-3.774 4.755,-5.535 0.077,-0.081 0.168,-0.163 0.259,-0.246 1.288,-9.53 -2.855,-14.325 -12.437,-14.375 -2.414,1.909 -4.637,4.074 -6.637,6.515"
         id="path1185" />
      <path
         inkscape:connector-curvature="0"
         style="fill:#fedb00"
         d="m 675.973,663.052 c -0.025,0.071 -0.071,0.186 -0.125,0.327 l 18.436,6.826 c 0.95,-2.54 2.239,-4.97 3.855,-7.262 l -16.802,-9.98 c -2.062,3.047 -3.854,6.416 -5.364,10.089"
         id="path1187" />
      <path
         inkscape:connector-curvature="0"
         style="fill:none;stroke:#003c90;stroke-width:2.08100009;stroke-linecap:square;stroke-miterlimit:10"
         d="m 703.152,657.162 c -0.091,0.083 -0.182,0.165 -0.259,0.246 -1.82,1.761 -3.399,3.608 -4.755,5.535 -1.616,2.292 -2.905,4.722 -3.855,7.262 -0.821,2.173 -1.395,4.445 -1.732,6.809 -6.659,-0.053 -13.395,-0.886 -20.222,-2.494 0.265,-1.094 0.534,-2.146 0.819,-3.19 0.772,-2.799 1.676,-5.447 2.699,-7.95 0.054,-0.142 0.1,-0.256 0.125,-0.327 1.511,-3.673 3.303,-7.042 5.364,-10.089 0.862,-1.282 1.776,-2.506 2.742,-3.661 2,-2.44 4.223,-4.605 6.637,-6.515"
         id="path1189" />
      <path
         inkscape:connector-curvature="0"
         style="fill:#f9d300"
         d="m 692.843,628.148 c -1.438,0.729 -2.463,1.837 -3.087,3.325 -0.525,1.29 -0.787,2.651 -0.763,4.07 0.025,1.443 0.362,2.789 1.034,4.058 l 0.233,0.411 c 0.256,0.384 0.553,0.74 0.913,1.083 0.04,0.038 0.095,0.088 0.16,0.125 1.078,0.843 2.229,1.554 3.455,2.146 1.449,0.702 2.938,1.327 4.477,1.87 1.616,0.556 3.255,1.006 4.905,1.339 1.165,0.254 2.316,0.472 3.479,0.648 1.217,0.188 2.432,0.325 3.643,0.411 1.294,0.146 2.573,0.253 3.851,0.336 1.028,0.025 2.043,0.035 3.046,0.022 0.326,-0.009 0.638,-0.017 0.949,-0.025 0.144,-0.004 0.3,-0.009 0.444,-0.014 l 0.884,-0.022 c 0.233,-0.021 0.468,-0.024 0.715,-0.031 0.012,-0.002 0.012,-0.002 0.026,-0.002 0.221,-0.005 0.429,-0.011 0.651,-0.004 0.454,-0.014 0.922,-0.024 1.378,-0.036 l 0.013,-0.002 c 0.533,-0.015 1.081,-0.029 1.625,-0.058 0.768,-0.033 1.534,-0.092 2.313,-0.152 1.207,-0.15 2.386,-0.325 3.565,-0.539 1.129,-0.147 2.229,-0.346 3.303,-0.596 1.023,-0.237 2.03,-0.512 3,-0.823 1.406,-0.416 2.721,-0.947 3.939,-1.578 1.155,-0.618 2.216,-1.311 3.199,-2.079 0.814,-0.645 1.486,-1.406 2.007,-2.292 0.301,-0.438 0.562,-0.861 0.786,-1.271 l 0.198,-0.408 c 0.603,-1.306 0.864,-2.666 0.812,-4.11 -0.052,-1.417 -0.386,-2.763 -0.979,-4.021 -0.704,-1.453 -1.787,-2.504 -3.263,-3.154 -17.372,-1.316 -34.349,-0.858 -50.911,1.373"
         id="path1191" />
      <path
         inkscape:connector-curvature="0"
         style="fill:#f9d300"
         d="m 721.182,647.9 c -0.247,0.007 -0.481,0.011 -0.715,0.031 0.143,-0.003 0.299,-0.007 0.442,-0.013 0.312,-0.008 0.624,-0.017 0.95,-0.024 -0.223,-0.007 -0.431,-10e-4 -0.651,0.004 -0.015,0 -0.015,0 -0.026,0.002"
         id="path1193" />
      <path
         inkscape:connector-curvature="0"
         style="fill:none;stroke:#e83927;stroke-width:2.08200002;stroke-linecap:round;stroke-linejoin:round;stroke-miterlimit:10"
         d="m 689.756,631.474 c -0.525,1.29 -0.787,2.651 -0.763,4.07 0.025,1.443 0.362,2.789 1.034,4.058 l 0.233,0.411 c 0.256,0.384 0.553,0.74 0.913,1.083 0.04,0.038 0.095,0.088 0.16,0.125 1.078,0.843 2.229,1.554 3.455,2.146 1.449,0.702 2.938,1.327 4.477,1.87 1.616,0.556 3.255,1.006 4.905,1.339 1.165,0.254 2.316,0.472 3.479,0.648 1.217,0.188 2.432,0.325 3.643,0.411 1.294,0.146 2.573,0.253 3.851,0.336 1.028,0.025 2.043,0.035 3.046,0.022 0.326,-0.009 0.638,-0.017 0.949,-0.025 0.144,-0.004 0.3,-0.009 0.444,-0.014 l 0.884,-0.022 c 0.233,-0.021 0.468,-0.024 0.715,-0.031 0.012,-0.002 0.012,-0.002 0.026,-0.002 0.221,-0.005 0.429,-0.011 0.651,-0.004 0.454,-0.014 0.922,-0.024 1.378,-0.036 l 0.013,-0.002 c 0.533,-0.015 1.081,-0.029 1.625,-0.058 0.768,-0.033 1.534,-0.092 2.313,-0.152 1.207,-0.15 2.386,-0.325 3.565,-0.539 1.129,-0.147 2.229,-0.346 3.303,-0.596 1.023,-0.237 2.03,-0.512 3,-0.823 1.406,-0.416 2.721,-0.947 3.939,-1.578 1.155,-0.618 2.216,-1.311 3.199,-2.079 0.814,-0.645 1.486,-1.406 2.007,-2.292 0.301,-0.438 0.562,-0.861 0.786,-1.271 l 0.198,-0.408 c 0.603,-1.306 0.864,-2.666 0.812,-4.11 -0.052,-1.417 -0.386,-2.763 -0.979,-4.021 -0.704,-1.453 -1.787,-2.504 -3.263,-3.154 -17.374,-1.315 -34.351,-0.857 -50.913,1.374 -1.437,0.728 -2.461,1.835 -3.085,3.324 z"
         id="path1195" />
      <path
         inkscape:connector-curvature="0"
         style="fill:#e83434"
         d="m 721.101,631.408 -2.067,-0.399 c -0.285,1.01 -0.503,2.097 -0.667,3.271 -0.15,1.163 -0.224,2.362 -0.202,3.6 0.021,1.224 0.22,2.337 0.624,3.354 0.405,1.003 0.783,1.527 1.162,1.569 0.139,-0.159 0.222,-1.425 0.225,-3.795 -0.001,-2.381 0.306,-4.914 0.925,-7.6"
         id="path1197" />
      <path
         inkscape:connector-curvature="0"
         style="fill:#e83434"
         d="m 730.885,630.285 c 0.55,2.523 0.881,4.649 1.006,6.364 0.123,1.729 0.193,2.819 0.207,3.301 0,0.481 0.028,1.093 0.088,1.833 0.06,0.74 0.182,1.402 0.393,2.009 0.198,0.593 0.403,0.963 0.629,1.114 0.269,-0.229 0.455,-0.507 0.565,-0.81 0.364,-0.908 0.518,-1.94 0.448,-3.097 -0.031,-4.088 -0.48,-7.68 -1.332,-10.769 l -2.004,0.055 z"
         id="path1199" />
      <path
         inkscape:connector-curvature="0"
         style="fill:#e83434"
         d="m 742.297,634.44 c -0.143,-0.972 -0.352,-1.929 -0.638,-2.857 -0.271,-0.917 -0.607,-1.781 -1.006,-2.578 l -1.784,0.412 c 0.889,2.112 1.489,4.115 1.788,6.02 0.312,1.879 0.534,2.888 0.681,3.015 0.337,-0.05 0.612,-0.486 0.838,-1.299 0.238,-0.826 0.277,-1.739 0.121,-2.713"
         id="path1201" />
      <path
         inkscape:connector-curvature="0"
         style="fill:#e83434"
         d="m 695.764,632.224 c -0.262,0.905 -0.443,1.833 -0.549,2.786 -0.117,0.941 -0.018,1.797 0.29,2.57 0.14,0.347 0.29,0.63 0.44,0.82 0.174,0.243 0.374,0.37 0.568,0.375 0.052,-0.025 0.113,-0.159 0.172,-0.395 0.117,-0.458 0.25,-1.309 0.412,-2.523 0.238,-1.829 0.799,-3.784 1.666,-5.863 l -2.013,-0.296 c -0.396,0.778 -0.725,1.619 -0.986,2.526"
         id="path1203" />
      <path
         inkscape:connector-curvature="0"
         style="fill:#e83434"
         d="m 707.188,629.559 -0.358,1.194 c -0.92,3.031 -1.338,5.945 -1.235,8.716 0.086,2.769 0.586,4.371 1.496,4.815 0.214,-0.307 0.319,-1.169 0.333,-2.612 0.062,-3.999 0.626,-7.672 1.721,-11.021 l -1.957,-1.092 z"
         id="path1205" />
      <path
         inkscape:connector-curvature="0"
         style="fill:#f49c00"
         d="m 760.581,618.195 c 3.021,0.252 5.825,-0.975 8.4,-3.671 2.562,-2.696 4.15,-6.09 4.751,-10.15 0.613,-4.06 0.051,-7.631 -1.666,-10.685 -1.716,-3.056 -4.097,-4.716 -7.115,-4.968 -3.033,-0.255 -5.84,0.974 -8.401,3.669 -2.561,2.697 -4.15,6.09 -4.764,10.15 -0.601,4.061 -0.038,7.632 1.679,10.687 1.717,3.056 4.083,4.715 7.116,4.968"
         id="path1207" />
      <path
         inkscape:connector-curvature="0"
         style="fill:none;stroke:#e83927;stroke-width:2.08100009;stroke-linecap:round;stroke-linejoin:round;stroke-miterlimit:10"
         d="m 760.581,618.195 c -3.033,-0.253 -5.399,-1.912 -7.116,-4.968 -1.717,-3.055 -2.279,-6.626 -1.679,-10.687 0.613,-4.061 2.203,-7.453 4.764,-10.15 2.562,-2.695 5.368,-3.924 8.401,-3.669 3.019,0.252 5.399,1.912 7.115,4.968 1.717,3.054 2.279,6.625 1.666,10.685 -0.601,4.061 -2.188,7.454 -4.751,10.15 -2.575,2.697 -5.378,3.923 -8.4,3.671 z"
         id="path1209" />
      <path
         inkscape:connector-curvature="0"
         style="fill:#f49c00"
         d="m 757.969,578.073 c -8.379,-7.97 -18.928,-12.494 -31.645,-13.556 -12.702,-1.062 -23.854,1.647 -33.468,8.115 -9.585,6.482 -14.815,14.844 -15.671,25.083 -0.854,10.228 2.914,19.34 11.292,27.325 8.405,7.986 18.951,12.509 31.655,13.57 12.717,1.062 23.868,-1.647 33.455,-8.129 9.603,-6.482 14.829,-14.843 15.686,-25.069 0.856,-10.242 -2.912,-19.353 -11.304,-27.339"
         id="path1211" />
      <path
         inkscape:connector-curvature="0"
         style="fill:none;stroke:#e83927;stroke-width:2.08100009;stroke-linecap:round;stroke-linejoin:round;stroke-miterlimit:10"
         d="m 726.324,564.518 c -12.702,-1.062 -23.854,1.647 -33.468,8.115 -9.585,6.482 -14.815,14.844 -15.671,25.083 -0.854,10.228 2.914,19.34 11.292,27.325 8.405,7.986 18.951,12.509 31.655,13.57 12.717,1.062 23.868,-1.647 33.455,-8.129 9.603,-6.482 14.829,-14.843 15.686,-25.069 0.855,-10.243 -2.912,-19.354 -11.305,-27.34 -8.378,-7.969 -18.927,-12.494 -31.644,-13.555 z"
         id="path1213" />
      <path
         inkscape:connector-curvature="0"
         style="fill:#f49c00"
         d="m 688.777,587.335 c -0.125,-0.219 -0.264,-0.439 -0.415,-0.648 -2.079,-3.083 -4.64,-4.761 -7.675,-5.013 -3.021,-0.252 -5.642,0.989 -7.842,3.718 -2.198,2.726 -3.347,6.154 -3.416,10.26 -0.082,4.105 0.923,7.714 3.002,10.799 2.092,3.086 4.651,4.762 7.673,5.014 2.554,0.213 4.804,-0.63 6.764,-2.528 l 0.179,-0.899 1.73,-20.703 z"
         id="path1215" />
      <path
         inkscape:connector-curvature="0"
         style="fill:none;stroke:#e83927;stroke-width:2.08100009;stroke-linecap:square;stroke-linejoin:round;stroke-miterlimit:10"
         d="m 686.868,608.936 c -1.96,1.898 -4.21,2.741 -6.764,2.528 -3.021,-0.252 -5.581,-1.928 -7.673,-5.014 -2.08,-3.085 -3.084,-6.693 -3.002,-10.799 0.069,-4.105 1.218,-7.534 3.416,-10.26 2.2,-2.729 4.821,-3.97 7.842,-3.718 3.035,0.252 5.596,1.93 7.675,5.013 0.151,0.209 0.29,0.43 0.415,0.648"
         id="path1217" />
      <path
         inkscape:connector-curvature="0"
         d="m 742.484,551.471 c 0.628,-0.782 1.887,-1.785 3.752,-3 1.738,-1.122 2.749,-1.677 3.021,-1.652 -1.403,-0.393 -3.066,-0.465 -5.008,-0.212 -3.856,0.554 -6.85,2.471 -8.994,5.775 0.283,-2.756 -0.528,-5.07 -2.446,-6.939 -0.605,-0.587 -1.257,-1.071 -1.942,-1.442 -0.663,-0.355 -0.93,-0.455 -0.798,-0.3 1.006,2.81 0.077,5.788 -2.757,8.932 -0.924,-1.292 -1.06,-3.561 -0.397,-6.795 0.593,-2.874 1.117,-4.474 1.602,-4.8 -1.21,0.422 -2.474,1.163 -3.777,2.242 -2.061,1.695 -3.39,3.698 -3.976,6.013 -0.707,-0.413 -1.419,-0.812 -2.156,-1.199 -3.462,-1.843 -6.871,-2.754 -10.255,-2.736 0.221,0.332 0.903,1.237 2.044,2.729 0.129,0.18 0.515,1.036 1.16,2.539 -1.645,-1.744 -3.823,-3.153 -6.54,-4.228 -2.715,-1.09 -5.189,-1.636 -7.421,-1.628 0.793,0.941 2.136,2.229 4.033,3.888 1.616,1.586 2.671,3.187 3.162,4.809 -1.452,-1.206 -2.919,-2.086 -4.4,-2.641 -2.758,-1.05 -6.024,-1.012 -9.811,0.094 0.55,0.139 1.217,0.429 2.015,0.888 0.786,0.444 1.688,1.055 2.708,1.805 2.152,1.577 3.357,2.775 3.642,3.594 -1.936,-0.278 -4.059,-0.482 -6.361,-0.582 -2.3,-0.116 -4.326,0.094 -6.067,0.614 -1.74,0.52 -3.395,1.414 -4.95,2.682 3.061,-0.542 6.105,-0.43 9.135,0.332 3.03,0.762 4.769,1.678 5.238,2.761 -4.031,-0.468 -7.224,-0.396 -9.573,0.231 -2.35,0.626 -3.861,1.217 -4.521,1.802 1.259,-0.091 2.629,-0.054 4.088,0.105 1.462,0.162 3.531,0.713 6.22,1.657 -4.516,2.324 -9.058,2.648 -13.655,0.945 0.518,0.671 1.04,1.289 1.579,1.868 0.576,0.624 1.203,1.237 1.897,1.83 0.718,0.622 1.513,1.118 2.381,1.504 0.768,0.338 1.563,0.653 2.363,0.93 0.824,0.29 1.652,0.517 2.504,0.652 8.699,1.642 16.113,1.177 22.214,-1.394 -2.13,2.224 -4.39,3.966 -6.791,5.215 -0.097,0.058 -0.13,0.159 -0.103,0.278 0.028,0.133 0.089,0.178 0.184,0.146 2.346,-0.418 4.457,-1.338 6.353,-2.746 1.627,-1.209 3.124,-2.559 4.475,-4.051 1.772,-1.509 3.726,-2.391 5.86,-2.631 1.173,-0.149 2.442,-0.186 3.835,-0.135 1.419,0.051 2.834,0.145 4.233,0.273 0.169,0.015 0.349,0.043 0.542,0.073 2.065,0.264 3.829,0.725 5.286,1.406 1.446,0.657 2.616,1.342 3.512,2.044 0.085,0.059 0.158,0.13 0.217,0.2 0.146,-0.341 0.778,-0.888 1.886,-1.644 1.068,-0.747 2.274,-0.971 3.609,-0.69 3.473,0.761 6.405,2.39 8.808,4.887 0.31,0.34 0.633,0.667 0.975,0.969 0.557,0.53 1.128,1.034 1.725,1.541 0.597,0.533 1.247,1.005 1.931,1.428 0.483,0.314 1.009,0.581 1.564,0.811 0.955,0.431 1.953,0.527 2.979,0.274 0.879,-0.215 1.704,-0.562 2.463,-1.048 0.263,-0.174 0.541,-0.386 0.85,-0.634 0.573,-0.46 1.099,-0.967 1.575,-1.513 0.53,-0.569 1,-1.195 1.385,-1.895 -0.647,-0.041 -1.347,-0.126 -2.093,-0.254 -0.257,-0.061 -0.526,-0.108 -0.795,-0.17 -1.747,-0.342 -3.118,-0.809 -4.101,-1.399 -0.223,-0.137 -0.433,-0.285 -0.614,-0.433 -0.638,-0.509 -1.36,-0.908 -2.16,-1.196 -0.023,-0.015 -0.051,-0.018 -0.075,-0.033 4.681,-0.562 7.608,-2.471 8.808,-5.737 -4.051,0.822 -7.783,0.497 -11.195,-0.989 l 0.807,-0.115 c 1.39,-0.25 2.988,-1.408 4.778,-3.465 0.967,-1.105 1.643,-2.002 2.038,-2.661 0.228,-0.385 0.358,-0.701 0.392,-0.946 -0.871,0.266 -1.83,0.513 -2.881,0.739 -0.626,0.143 -1.301,0.269 -2.004,0.394 -1.047,0.186 -2.037,0.326 -2.97,0.39 -2.362,0.155 -4.299,-0.097 -5.81,-0.759 0.846,0.019 2.077,-0.35 3.706,-1.1 1.755,-0.832 2.991,-1.277 3.704,-1.361 -1.748,-0.186 -3.133,-0.302 -4.174,-0.349 -1.872,-0.093 -4.076,0.194 -6.622,0.83 2.166,-1.398 5.04,-2.359 8.593,-2.859 0.41,-0.07 -0.896,-0.375 -3.932,-0.902 -2.998,-0.523 -5.181,-0.643 -6.564,-0.34 -1.992,0.42 -3.649,1.184 -4.979,2.274 0.274,-1.322 0.889,-2.576 1.837,-3.79"
         id="path1219" />
      <path
         inkscape:connector-curvature="0"
         style="fill:#e83434"
         d="m 756.493,618.957 c -3.933,2.606 -8.266,4.322 -12.99,5.134 -4.721,0.799 -8.742,1.124 -12.036,0.961 -3.306,-0.16 -7.24,-0.873 -11.791,-2.121 -4.548,-1.264 -8.562,-3.385 -12.028,-6.351 6.994,7.42 14.849,11.226 23.55,11.427 8.684,0.644 17.111,-2.368 25.295,-9.05"
         id="path1221" />
      <path
         inkscape:connector-curvature="0"
         style="fill:#ffffff"
         d="m 746.673,583.978 c -2.286,1.414 -3.534,3.541 -3.761,6.394 -0.237,2.854 0.631,5.587 2.593,8.206 1.973,2.632 4.463,4.381 7.46,5.218 3.008,0.865 5.657,0.577 7.942,-0.851 2.299,-1.414 3.546,-3.54 3.771,-6.395 0.226,-2.852 -0.656,-5.588 -2.616,-8.207 -1.962,-2.618 -4.439,-4.352 -7.449,-5.218 -2.996,-0.836 -5.643,-0.563 -7.94,0.853"
         id="path1223" />
      <path
         inkscape:connector-curvature="0"
         style="fill:#ffffff"
         d="m 739.45,587.132 c -0.978,-2.81 -3.113,-4.776 -6.373,-5.884 -3.265,-1.096 -6.716,-1.003 -10.359,0.257 -3.62,1.276 -6.378,3.37 -8.252,6.257 -1.871,2.884 -2.318,5.743 -1.343,8.579 1.003,2.838 3.138,4.793 6.401,5.887 3.261,1.107 6.714,1.019 10.333,-0.259 3.643,-1.263 6.401,-3.343 8.273,-6.227 1.876,-2.911 2.323,-5.771 1.32,-8.61"
         id="path1225" />
      <path
         inkscape:connector-curvature="0"
         d="m 745.415,586.005 c 0.939,-1.044 2.052,-1.57 3.362,-1.578 1.312,-0.005 2.418,0.488 3.346,1.484 0.927,1.022 1.383,2.245 1.365,3.696 -0.016,1.45 -0.482,2.686 -1.397,3.73 -0.939,1.055 -2.053,1.595 -3.363,1.601 -1.312,0.007 -2.418,-0.487 -3.345,-1.509 -0.938,-1.024 -1.405,-2.247 -1.389,-3.698 0.016,-1.451 0.481,-2.684 1.421,-3.726"
         id="path1227" />
      <path
         inkscape:connector-curvature="0"
         d="m 729.078,584.657 c -0.863,-1.219 -2.012,-1.945 -3.473,-2.186 -1.462,-0.241 -2.786,0.058 -4.001,0.895 -1.216,0.861 -1.943,2.01 -2.184,3.474 -0.241,1.46 0.059,2.784 0.895,3.998 0.859,1.23 2.007,1.972 3.469,2.211 1.462,0.241 2.785,-0.057 4.002,-0.919 1.23,-0.861 1.972,-2.009 2.212,-3.471 0.242,-1.461 -0.06,-2.786 -0.92,-4.002"
         id="path1229" />
      <path
         inkscape:connector-curvature="0"
         style="fill:#e83827"
         d="m 750.315,599.249 c -1.902,-2.509 -4.332,-3.887 -7.296,-4.134 -2.963,-0.246 -5.588,0.707 -7.879,2.865 -2.302,2.145 -3.59,4.856 -3.864,8.138 -0.273,3.278 0.545,6.166 2.459,8.662 1.9,2.51 4.333,3.888 7.295,4.134 2.963,0.249 5.59,-0.706 7.88,-2.866 2.302,-2.144 3.59,-4.855 3.864,-8.135 0.274,-3.279 -0.545,-6.168 -2.459,-8.664"
         id="path1231" />
    </g>
  </g>
</svg>
