<?xml version="1.0" encoding="UTF-8" standalone="no"?>
<!-- Created with Inkscape (http://www.inkscape.org/) -->

<svg
   xmlns:dc="http://purl.org/dc/elements/1.1/"
   xmlns:cc="http://creativecommons.org/ns#"
   xmlns:rdf="http://www.w3.org/1999/02/22-rdf-syntax-ns#"
   xmlns:svg="http://www.w3.org/2000/svg"
   xmlns="http://www.w3.org/2000/svg"
   version="1.1"
   width="195"
   height="235"
   id="svg4502">
  <defs
     id="defs4504" />
  <metadata
     id="metadata4507">
    <rdf:RDF>
      <cc:Work
         rdf:about="">
        <dc:format>image/svg+xml</dc:format>
        <dc:type
           rdf:resource="http://purl.org/dc/dcmitype/StillImage" />
        <dc:title></dc:title>
      </cc:Work>
    </rdf:RDF>
  </metadata>
  <g
     transform="translate(0,-245)"
     id="layer1">
    <g
       transform="translate(-102.98594,-17.18708)"
       id="g523">
      <path
         d="m 244.698,358.731 c -0.225,1.973 -0.274,3.939 -0.133,5.899 0.112,1.814 0.33,2.881 0.637,3.203 l 5.079,10.36 c 1.798,1.602 3.624,2.957 5.458,4.051 1.292,-0.024 2.625,0.124 4.033,0.445 0.862,0.183 1.702,0.225 2.554,0.128 4.237,-0.496 8.041,0.159 11.41,1.98 0.061,-0.011 0.112,-0.029 0.164,-0.05 2.789,-0.989 4.969,-2.431 6.524,-4.324 1.462,-1.795 1.802,-3.168 1.02,-4.121 -2.017,-2.415 -4.094,-3.143 -6.246,-2.165 -0.61,0.291 -1.405,0.814 -2.394,1.597 -0.255,0.201 -0.493,0.383 -0.725,0.539 0.272,-0.235 0.551,-0.534 0.863,-0.884 1.055,-1.126 1.923,-2.393 2.592,-3.813 1.891,-3.93 1.512,-6.993 -1.118,-9.187 -1.283,-1.321 -3.102,-0.878 -5.468,1.339 -2.376,2.697 -3.828,4.263 -4.336,4.717 2.513,-3.82 3.999,-6.794 4.472,-8.905 0.794,-3.502 -0.423,-6.048 -3.672,-7.637 -1.429,-0.697 -3.434,0.233 -6.005,2.797 -2.361,2.373 -3.605,4.152 -3.715,5.334 -0.252,-2.114 -0.742,-4.028 -1.488,-5.742 -1.167,-2.635 -2.676,-3.932 -4.545,-3.888 -2.669,0.07 -4.326,2.847 -4.961,8.327"
         id="path525"
         style="fill:#00a0e9" />
      <path
         d="m 262.326,382.817 c -0.852,0.097 -1.692,0.055 -2.554,-0.127 -1.408,-0.322 -2.741,-0.47 -4.033,-0.446 2.511,1.491 5.06,2.527 7.638,3.081 3.607,0.791 7.068,0.618 10.359,-0.528 -3.369,-1.82 -7.174,-2.476 -11.41,-1.98"
         id="path527"
         style="fill:#00a0e9" />
      <path
         d="m 252.623,383.368 0.389,0.432 c 0.847,-0.254 1.514,-0.459 2.008,-0.606 0.188,-0.111 0.412,-0.188 0.671,-0.266 0.036,0.016 0.072,0.015 0.105,-0.003 0.656,-0.249 1.196,-0.572 1.604,-0.952 l -1.033,-1.12 c -0.19,0.042 -0.312,0.063 -0.364,0.082 -0.002,-0.052 0.006,-0.096 0.039,-0.15 0.076,-0.063 0.144,-0.135 0.202,-0.216 -0.394,-0.083 -0.775,-0.185 -1.154,-0.285 -0.285,-0.726 -0.219,-1.391 0.198,-1.999 0.023,-0.402 -0.223,-0.988 -0.764,-1.749 1.019,-1.159 1.774,-2.109 2.249,-2.85 0.016,-0.035 -0.025,-0.191 -0.129,-0.475 -0.14,0.022 -0.217,0.033 -0.227,0.024 l -0.236,0.269 c -0.41,0.512 -1.145,1.296 -2.194,2.343 -0.237,-0.307 -0.527,-0.63 -0.835,-0.969 -0.589,-0.653 -1.879,-1.948 -3.863,-3.858 0.157,-0.257 0.419,-0.808 0.811,-1.641 l -0.514,-0.482 c 0.061,-0.316 0.094,-0.623 0.11,-0.929 l -0.1,0.16 -0.731,-0.465 -0.805,1.021 -0.018,-0.016 c 0.016,-0.053 0.039,-0.15 0.069,-0.274 l -1.2,-0.939 c -0.101,0.126 -0.6,0.605 -1.482,1.437 -0.076,0.081 -0.152,0.162 -0.22,0.234 -0.083,0.108 -0.2,0.286 -0.358,0.527 -0.252,0.305 -0.429,0.529 -0.537,0.681 l -0.125,-0.1 c -0.076,0.116 -0.142,0.223 -0.191,0.329 -0.025,0.027 -0.014,0.105 0.035,0.252 0.068,0.217 0.07,0.539 -0.004,0.961 l -0.226,0.296 1.2,0.939 0.789,-0.968 0.03,0.095 c -0.016,0.306 -0.104,0.596 -0.25,0.88 0,0.018 -0.009,0.027 -0.008,0.044 -0.375,0.563 -0.65,0.983 -0.824,1.259 -0.396,0.188 -0.819,0.349 -1.261,0.46 -0.123,-0.066 -0.257,-0.14 -0.373,-0.215 -0.008,0.027 -0.025,0.044 -0.034,0.053 -0.19,0.312 -0.417,1.132 -0.679,2.477 l 1.133,1.028 c 0.254,-0.27 0.633,-0.675 1.131,-1.207 0.431,-0.459 0.785,-0.872 1.052,-1.247 l 0.014,0.165 -0.176,0.242 1.2,1.14 c -0.121,0.597 -0.219,1.081 -0.312,1.452 -0.135,0.667 -0.207,1.176 -0.221,1.535 l 1.135,1.063 c -0.132,0.267 -0.213,0.444 -0.236,0.54 -0.086,0.309 -0.023,0.604 0.161,0.895 l 1.148,0.976 c 0.141,-0.004 0.366,-0.081 0.693,-0.231 0.345,-0.152 0.595,-0.239 0.742,-0.269 l 1.776,1.445 -0.252,0.322 0.288,0.271 c 0.127,-0.66 0.438,-1.281 0.954,-1.848 m -2.765,-9.562 0.061,0.042 c 0.238,0.306 0.504,0.673 0.779,1.083 0.303,0.454 0.496,0.736 0.57,0.855 l -0.253,0.289 c -0.249,-0.15 -0.49,-0.527 -0.728,-1.122 -0.132,-0.31 -0.266,-0.69 -0.429,-1.147"
         id="path529"
         style="fill:#00a0e9" />
      <path
         d="m 243.278,369.364 c -0.051,0.071 -0.077,0.099 -0.085,0.107 l 0.995,0.763 0.125,0.1 c 0.108,-0.152 0.285,-0.376 0.537,-0.68 0.158,-0.242 0.275,-0.42 0.358,-0.528 -0.001,-0.017 0.008,-0.026 0.017,-0.035 0.074,-0.151 0.052,-0.307 -0.059,-0.479 -0.082,-0.128 -0.113,-0.24 -0.106,-0.319 l 0.015,-0.036 c 0,-0.017 0.009,-0.026 0.009,-0.044 0.047,-0.106 0.045,-0.211 -0.029,-0.313 l -0.064,-0.112 c -0.054,-0.286 -0.156,-1.025 -0.3,-2.226 -0.152,-1.192 -0.202,-2.492 -0.143,-3.908 0.059,-1.417 0.121,-2.441 0.17,-3.089 0.05,-0.613 0.145,-1.184 0.277,-1.704 0.288,-1.048 0.619,-1.958 1.012,-2.723 0.09,-0.203 0.188,-0.398 0.287,-0.594 l -1.46,-1.367 c -0.414,0.711 -0.761,1.553 -1.062,2.541 -0.191,0.583 -0.345,1.216 -0.48,1.884 l -0.06,0.047 -0.158,0.528 c 10e-4,0.035 0.003,0.07 0.003,0.087 l -0.016,10e-4 -0.009,0.026 c -0.015,0.071 -0.022,0.115 -0.011,0.159 v 0.016 c -0.389,4.205 -0.425,7.386 -0.111,9.524 0.011,0.079 0.013,0.148 0.016,0.235 0.01,0.027 0.01,0.044 0.011,0.061 0.013,0.131 0.043,0.261 0.075,0.409 -0.017,0.018 -0.035,0.035 -0.052,0.053 0.018,0.017 0.045,0.025 0.072,0.034 l -0.125,0.169 c -0.023,0.149 0.018,0.34 0.13,0.563 0.103,0.199 0.142,0.337 0.101,0.417 -0.057,0.115 -0.099,0.177 -0.125,0.187 -0.026,-0.008 -0.044,-0.007 -0.06,0.011 l 0.305,0.235 z m 0.984,-11.413 c -0.01,-0.008 -0.028,-0.025 -0.028,-0.043 0,0.018 0.018,0.035 0.028,0.043"
         id="path531"
         style="fill:#00499d" />
      <path
         d="m 255.69,382.927 c -0.258,0.079 -0.483,0.156 -0.671,0.266 -0.326,0.186 -0.546,0.42 -0.667,0.73 l 0.843,0.942 c 0.663,-0.004 1.161,-0.03 1.509,-0.057 0.123,-0.005 0.235,-0.018 0.34,-0.038 0.453,0.238 0.826,0.419 1.099,0.541 0.178,0.082 0.347,0.138 0.488,0.185 0.027,0.026 0.044,0.043 0.054,0.069 0.417,0.188 0.85,0.357 1.318,0.523 0.213,0.082 0.434,0.17 0.673,0.258 1.113,0.385 2.312,0.747 3.597,1.055 3.233,0.812 6.629,0.511 10.173,-0.89 0.473,-0.181 0.949,-0.379 1.395,-0.585 0.433,-0.188 0.835,-0.386 1.239,-0.6 0.008,-0.008 0.017,-0.018 0.034,-0.036 0.222,-0.181 0.426,-0.31 0.599,-0.386 -0.001,-0.017 -0.011,-0.043 -0.011,-0.061 0.384,-0.266 0.751,-0.53 1.11,-0.821 l -1.443,-1.352 c -0.237,0.2 -0.475,0.383 -0.715,0.548 -0.14,0.022 -0.276,0.096 -0.421,0.197 -0.128,0.1 -0.23,0.173 -0.316,0.246 l -0.008,-0.009 -0.308,0.237 c -0.059,0.029 -0.129,0.066 -0.197,0.085 -0.414,0.172 -0.811,0.307 -1.193,0.44 -1.206,0.477 -2.4,0.812 -3.572,1.034 -1.181,0.229 -2.672,0.305 -4.474,0.241 -1.007,-0.1 -1.999,-0.268 -2.995,-0.524 -0.687,-0.17 -1.365,-0.366 -2.038,-0.606 -0.874,-0.313 -1.751,-0.694 -2.63,-1.147 -0.062,-0.023 -0.124,-0.047 -0.186,-0.089 -0.329,-0.156 -0.648,-0.337 -0.961,-0.545 -0.009,-0.009 -0.027,-0.027 -0.037,-0.034 l -0.026,0.009 c -0.053,-0.033 -0.115,-0.075 -0.169,-0.108 0.011,0.043 0.03,0.077 0.048,0.112 -0.296,0.045 -0.757,0.103 -1.376,0.167 -0.033,0.018 -0.069,0.019 -0.105,0.003"
         id="path533"
         style="fill:#00499d" />
      <path
         d="m 275.359,371.547 c -0.009,0.009 -0.018,0.018 -0.025,0.027 -0.758,1.44 -1.658,2.762 -2.736,3.966 -0.33,0.369 -0.642,0.703 -0.939,1 0.071,-0.019 0.471,-0.321 1.238,-0.904 0.767,-0.584 1.512,-1.054 2.252,-1.41 0.499,-0.225 0.887,-0.369 1.174,-0.405 0.131,-0.03 0.373,-0.055 0.732,-0.058 0.019,-10e-4 0.052,-10e-4 0.07,-0.003 l 0.009,0.009 c 0.149,0.022 0.307,0.034 0.465,0.046 l 0.281,0.079 c 0.01,0.007 0.01,0.007 0.019,0.016 0.026,0.008 0.053,0.016 0.078,0.006 l 0.009,0.009 0.008,0.008 c 0.01,0.009 0.01,0.009 0.019,0.017 0.01,0.009 0.01,0.009 0.018,0.017 0.823,0.314 1.464,0.695 1.932,1.134 0.117,0.11 0.182,0.17 0.199,0.203 0.083,0.146 0.411,0.555 1.001,1.243 l 10e-4,0.018 0.008,0.008 c 0.247,0.315 0.373,0.686 0.369,1.105 10e-4,0.018 -0.008,0.028 -0.008,0.045 -0.139,0.581 -0.433,1.184 -0.884,1.81 -0.185,0.234 -0.38,0.441 -0.575,0.63 -0.928,0.973 -1.836,1.815 -2.705,2.507 l 1.443,1.352 c 1.285,-1.012 2.377,-2.104 3.29,-3.295 0.594,-0.779 1.016,-1.535 1.262,-2.285 -0.05,-0.471 -0.067,-0.995 -0.067,-1.554 -0.124,-0.301 -0.257,-0.646 -0.41,-1.043 -0.037,-0.086 -0.067,-0.182 -0.096,-0.259 -0.293,-0.462 -0.685,-0.93 -1.169,-1.368 -1.595,-1.46 -2.989,-2.157 -4.201,-2.109 l -0.009,-0.008 c -0.044,0.009 -0.287,0.035 -0.74,0.084 -0.095,0.012 -0.191,0.024 -0.27,0.035 0.009,-0.008 0.018,-0.018 0.026,-0.027 0.025,-0.044 0.134,-0.161 0.321,-0.342 0.084,-0.091 0.151,-0.162 0.202,-0.216 0.009,-0.009 0.026,-0.027 0.034,-0.054 0.033,-0.053 0.091,-0.116 0.16,-0.205 0.015,-0.036 0.039,-0.08 0.066,-0.108 0.033,-0.053 0.074,-0.116 0.142,-0.187 1.64,-4.368 1.094,-7.757 -1.667,-10.158 -1.48,-1.505 -3.138,-1.722 -4.955,-0.668 0.147,-0.555 0.279,-1.109 0.366,-1.655 l -10e-4,-0.016 c 0.552,-3.73 -0.738,-6.344 -3.852,-7.841 -3.15,-1.531 -5.966,-0.802 -8.455,2.159 -1.009,1.205 -1.865,2.298 -2.55,3.263 -0.215,-1.014 -0.565,-2.07 -1.037,-3.171 -1.094,-2.533 -3.108,-3.743 -6.011,-3.623 -1.827,0.016 -3.282,0.954 -4.356,2.805 l 1.459,1.368 c 0.718,-1.325 1.646,-2.045 2.813,-2.153 l 0.008,0.009 c 0.096,0.005 0.209,-0.007 0.314,-0.028 0.01,0.008 0.01,0.008 0.017,-0.001 0.74,-0.067 1.418,0.077 2.049,0.432 0.843,0.418 1.487,1.14 1.939,2.156 0.029,0.077 0.057,0.154 0.094,0.207 0.158,0.3 0.319,0.635 0.461,1.024 0.747,1.749 1.204,3.733 1.391,5.973 0.134,-1.262 1.423,-3.234 3.869,-5.934 0.195,-0.19 0.381,-0.389 0.558,-0.577 0.135,-0.161 0.26,-0.332 0.394,-0.494 0.716,-0.834 1.448,-1.418 2.214,-1.766 1.181,-0.754 2.171,-0.943 2.968,-0.585 1.506,0.651 2.576,1.568 3.205,2.735 0.61,0.994 0.808,2.227 0.601,3.728 -0.045,0.429 -0.118,0.886 -0.216,1.369 -0.114,0.519 -0.289,1.084 -0.513,1.685 0.018,-0.001 0.044,0.007 0.06,0.007 -0.84,2.07 -2.302,4.677 -4.384,7.819 0.525,-0.506 2.076,-2.233 4.654,-5.181 0.652,-0.625 1.264,-1.132 1.829,-1.518 h 0.017 c 1.521,-1.046 2.751,-1.094 3.681,-0.155 2.413,1.975 2.882,4.868 1.39,8.698 h -0.017 c 0,0.018 10e-4,0.035 -0.007,0.045 -0.017,0 -0.035,0.018 -0.052,0.019 -0.024,0.061 -0.047,0.124 -0.089,0.185 -0.117,0.197 -0.175,0.296 -0.183,0.304"
         id="path535"
         style="fill:#00499d" />
      <path
         d="m 198.063,366.113 -0.82,0.874 c -3.193,3.317 -6.455,7.772 -9.778,13.357 2.54,1.28 4.705,2.345 6.499,3.231 4.056,1.991 6.964,3.311 8.714,3.971 1.317,0.473 2.607,0.902 3.858,1.281 4.015,1.225 8.088,2.131 12.203,2.724 7.615,1.062 14.76,0.788 21.424,-0.833 4.16,-0.992 7.513,-2.096 10.042,-3.313 1.238,-0.599 2.379,-1.239 3.431,-1.927 l -0.12,-0.162 0.232,-0.175 0.136,0.162 c 0.999,-0.669 1.91,-1.39 2.742,-2.15 1.766,-1.612 2.613,-2.39 2.563,-2.336 -0.061,0.064 0.053,0.051 0.339,-0.037 0.714,-0.635 1.34,-1.214 1.899,-1.757 l 0.102,-0.089 -0.354,0.141 2.569,-2.415 -14.973,-14.642 -4.355,3.346 c 0.001,0.018 -0.13,0.03 -0.408,0.04 -0.288,0.018 -0.436,0.031 -0.445,0.041 -0.03,0.157 -0.043,0.315 -0.072,0.473 -0.043,0.316 -0.14,0.529 -0.266,0.647 -1.954,1.722 -3.774,2.978 -5.469,3.775 -1.291,0.601 -3.175,1.203 -5.653,1.807 -3.381,0.809 -6.97,1.117 -10.783,0.909 -3.257,-0.192 -6.646,-0.745 -10.178,-1.671 -2.343,-0.622 -4.674,-1.385 -6.992,-2.324 l -6.087,-2.948 z"
         id="path537"
         style="fill:#00a0e9" />
      <path
         d="m 253.885,385.303 c -0.077,0.063 -0.163,0.119 -0.248,0.174 l 0.045,0.06 0.239,-0.183 -0.036,-0.051 z"
         id="path539"
         style="fill:#00398c" />
      <path
         d="m 253.637,385.477 c 0.085,-0.055 0.171,-0.109 0.248,-0.174 l -0.137,-0.162 -0.231,0.174 0.12,0.162 z"
         id="path541"
         style="fill:#00398c" />
      <path
         d="m 187.466,380.344 c 2.539,1.281 4.705,2.346 6.498,3.231 4.057,1.992 6.964,3.311 8.715,3.971 1.316,0.473 2.606,0.902 3.858,1.281 4.015,1.224 8.088,2.131 12.203,2.723 7.615,1.063 14.759,0.789 21.423,-0.833 4.16,-0.991 7.514,-2.095 10.042,-3.313 1.239,-0.598 2.38,-1.238 3.432,-1.927 0.085,-0.054 0.171,-0.109 0.248,-0.175 0.998,-0.669 1.91,-1.388 2.741,-2.15 m -13.063,-17.708 c -0.029,0.158 -0.042,0.315 -0.071,0.474 -0.043,0.316 -0.141,0.528 -0.267,0.646 -1.954,1.723 -3.773,2.979 -5.469,3.776 -1.29,0.601 -3.174,1.203 -5.653,1.807 -3.38,0.808 -6.97,1.117 -10.783,0.908 -3.256,-0.191 -6.646,-0.745 -10.177,-1.67 -2.344,-0.623 -4.674,-1.385 -6.993,-2.324"
         id="path543"
         style="fill:none;stroke:#00499d;stroke-width:1.97500002;stroke-linecap:square;stroke-miterlimit:10" />
      <line
         style="fill:none;stroke:#00499d;stroke-width:1.97500002;stroke-linecap:round;stroke-miterlimit:10"
         x1="204.14999"
         y1="369.061"
         x2="198.063"
         y2="366.11301"
         id="line545" />
      <path
         d="m 198.45,339.976 c -19.639,-0.634 -30.12,-0.932 -31.45,-0.919 -6.5,0.112 -11.211,1.155 -14.146,3.132 -1.502,1.007 -3.07,2.511 -4.698,4.499 -1.093,1.331 -2.858,3.73 -5.295,7.211 -6.613,9.36 -12.953,17.613 -19.019,24.761 -5.482,6.463 -9.112,13.437 -10.864,20.908 -1.64,6.961 -1.517,13.662 0.372,20.086 1.84,6.303 5.122,11.5 9.846,15.588 4.934,4.266 10.815,6.727 17.627,7.41 34.804,3.492 59.877,0.709 75.229,-8.377 0.77,-0.461 1.515,-0.922 2.237,-1.406 5.78,-4.312 9.894,-9.223 12.343,-14.705 2.126,-5.184 2.896,-11.1 2.325,-17.775 -0.857,-10.131 -4.549,-20.92 -11.05,-32.345 -1.144,-2.014 -2.375,-4.039 -3.693,-6.09 -1.23,-1.915 -2.486,-3.754 -3.766,-5.507 -2.324,-3.22 -4.724,-6.166 -7.173,-8.838 -3.568,-3.916 -6.501,-6.451 -8.825,-7.633"
         id="path547"
         style="fill:#00a0e9" />
      <path
         d="m 152.867,341.195 c -1.515,1.006 -3.12,2.523 -4.822,4.562 -1.232,1.479 -3.034,3.915 -5.434,7.321 -6.774,9.322 -13.139,17.39 -19.092,24.215 -5.93,6.799 -9.772,13.958 -11.524,21.455 -1.739,7.494 -1.64,14.506 0.31,21.031 1.879,6.391 5.248,11.66 10.108,15.812 5.058,4.312 11.099,6.824 18.099,7.52 13.784,1.367 26.053,1.791 36.781,1.268 10.478,-0.51 19.416,-1.914 26.837,-4.213 2.423,-0.76 4.388,-1.416 5.88,-2.002 1.988,-0.783 3.679,-1.592 5.084,-2.447 1.591,-0.971 3.057,-1.953 4.4,-2.934 5.83,-4.301 9.87,-9.137 12.107,-14.52 2.176,-4.922 2.661,-11.684 1.48,-20.273 -1.181,-8.579 -3.12,-15.675 -5.842,-21.295 -2.724,-5.618 -4.773,-9.583 -6.166,-11.908 -1.442,-2.399 -3.394,-5.345 -5.868,-8.825 -2.548,-3.58 -5.345,-6.775 -8.365,-9.596 -3.022,-2.798 -5.594,-5.271 -7.733,-7.421 -19.775,-0.634 -30.342,-0.946 -31.709,-0.934 -6.663,0.114 -11.51,1.182 -14.531,3.184 z"
         id="path549"
         style="fill:none;stroke:#00499d;stroke-width:1.98899996;stroke-linecap:round;stroke-miterlimit:10" />
      <path
         d="m 202.834,431.078 0.025,0.002 c 0.157,0.154 1.357,4.539 3.576,13.168 2.265,8.803 3.424,13.273 3.482,13.4 l 3.103,0.703 c 7.53,0.111 13.713,1.109 18.538,3.002 2.338,0.912 4.564,2.229 6.69,3.941 0.977,0.791 1.803,2.023 2.502,3.699 0.687,1.676 0.913,3.021 0.69,4.045 -0.367,1.639 -1.814,2.928 -4.353,3.871 -7.053,2.609 -18.49,2.102 -34.302,-1.514 -7.906,-1.801 -15.107,-3.875 -21.59,-6.209 l -0.627,-1.252 c -0.057,-0.162 -0.1,-0.338 -0.144,-0.525 -0.115,-0.937 -0.204,-1.596 -0.253,-2.006 -0.109,-0.787 0.311,-6.059 1.232,-15.832 0.924,-9.785 1.343,-15.07 1.271,-15.842 v -0.014 l 20.148,-2.65 0.012,0.013 z"
         id="path551"
         style="fill:#00a0e9" />
      <path
         d="m 202.834,431.078 -0.012,-0.012 -20.148,2.65 v 0.014 c 0.072,0.771 -0.347,6.057 -1.271,15.842 -0.921,9.773 -1.341,15.045 -1.232,15.832 0.049,0.41 0.138,1.069 0.253,2.006 0.044,0.188 0.087,0.363 0.144,0.525 l 0.627,1.252 c 6.483,2.334 13.684,4.408 21.59,6.209 15.812,3.615 27.249,4.123 34.302,1.514 2.539,-0.943 3.986,-2.232 4.353,-3.871 0.223,-1.023 -0.003,-2.369 -0.69,-4.045 -0.699,-1.676 -1.525,-2.908 -2.502,-3.699 -2.126,-1.713 -4.352,-3.029 -6.69,-3.941 -4.825,-1.893 -11.008,-2.891 -18.538,-3.002 l -3.103,-0.703 c -0.058,-0.127 -1.217,-4.598 -3.482,-13.4 -2.219,-8.629 -3.419,-13.014 -3.576,-13.168 l -0.025,-0.003 z"
         id="path553"
         style="fill:none;stroke:#00499d;stroke-width:1.98500001;stroke-linecap:round;stroke-miterlimit:10" />
      <path
         d="m 224.138,311.057 c -0.833,-3.58 -2.076,-6.6 -3.729,-9.049 -2.199,-3.232 -5.219,-5.606 -9.072,-7.11 -0.087,-0.037 -0.187,-0.074 -0.286,-0.112 -0.361,-0.136 -0.734,-0.273 -1.12,-0.397 -0.323,-0.1 -0.645,-0.2 -0.981,-0.287 0.099,-0.186 0.198,-0.373 0.286,-0.559 0.037,-0.062 0.062,-0.136 0.098,-0.199 0.013,-0.037 0.025,-0.075 0.052,-0.112 0.657,-1.478 0.968,-3.082 0.931,-4.785 v -0.037 -0.025 c -0.012,-0.037 -0.012,-0.087 -0.012,-0.124 0,-0.087 0,-0.162 -0.014,-0.249 -0.161,-3.306 -1.566,-6.066 -4.212,-8.291 -2.635,-2.225 -5.731,-3.232 -9.298,-3.045 -3.555,0.211 -6.526,1.553 -8.9,4.027 -0.907,0.932 -1.628,1.939 -2.162,2.996 -0.635,-0.92 -1.418,-1.778 -2.351,-2.561 -2.634,-2.225 -5.73,-3.231 -9.297,-3.045 -2.274,0.136 -4.312,0.733 -6.116,1.802 -1.006,0.597 -1.927,1.343 -2.785,2.225 -2.125,2.2 -3.243,4.735 -3.343,7.607 -0.012,0.038 -0.012,0.062 -0.012,0.1 -0.012,0.323 0,0.659 0.012,0.994 0.076,1.38 0.361,2.66 0.859,3.854 0.012,0.012 0.012,0.037 0.024,0.061 0.012,0.037 0.037,0.062 0.05,0.1 0.013,0.037 0.013,0.062 0.025,0.099 0.038,0.186 -0.063,0.386 -0.323,0.572 -0.013,0.012 -0.037,0.025 -0.05,0.037 -0.038,0.025 -0.075,0.05 -0.112,0.075 -0.2,0.062 -0.41,0.125 -0.647,0.186 -0.185,0.038 -0.384,0.087 -0.596,0.137 -0.236,0.05 -0.498,0.1 -0.77,0.161 -0.037,0 -0.063,0 -0.1,0.013 -5.631,1.044 -10.18,2.536 -13.635,4.475 -0.087,0.037 -0.175,0.087 -0.261,0.137 -4.066,2.324 -7.024,5.568 -8.851,9.732 l -1.428,4.488 -0.661,6.96 0.051,2.15 c 0.037,0.858 0.087,1.741 0.174,2.636 0.099,1.056 0.273,2.088 0.521,3.094 0.448,1.902 1.145,3.73 2.089,5.507 0.583,1.107 1.255,2.176 2.038,3.233 2.598,3.529 6.091,6.55 10.478,9.061 1.281,0.733 2.612,1.404 3.967,2.013 l 12.927,3.853 c 4.884,0.771 10.067,0.908 15.561,0.423 l 24.326,-7.384 c 2.324,-1.342 4.499,-2.871 6.551,-4.599 0.086,-0.062 0.162,-0.136 0.235,-0.198 3.779,-3.195 6.613,-6.713 8.491,-10.578 1.305,-2.648 2.087,-5.32 2.373,-8.029 l 0.149,-2.648 c -0.012,-0.585 -0.037,-1.182 -0.086,-1.778 -0.186,-2.772 -0.535,-5.309 -1.058,-7.607"
         id="path555"
         style="fill:#00a0e9" />
      <path
         d="m 226.203,320.689 c 0.025,-1.728 -0.161,-3.679 -0.56,-5.842 -0.285,-1.554 -0.546,-2.822 -0.77,-3.791 -0.087,-0.386 -0.174,-0.721 -0.248,-1.006 l -1.22,-4.116 -1.702,-3.43 c -0.187,-0.298 -0.497,-0.734 -0.944,-1.317 -0.56,-0.709 -1.057,-1.294 -1.493,-1.753 -1.304,-1.342 -2.535,-2.399 -3.666,-3.17 -1.827,-1.255 -3.817,-2.05 -5.991,-2.411 0.733,-0.385 1.23,-1.429 1.467,-3.108 0.236,-1.678 0.261,-3.157 0.098,-4.425 -0.161,-1.268 -0.583,-2.473 -1.267,-3.617 -0.683,-1.155 -1.653,-2.262 -2.896,-3.343 -1.243,-1.082 -2.685,-1.952 -4.327,-2.611 -0.931,-0.361 -1.887,-0.646 -2.883,-0.845 -1.802,-0.336 -3.591,-0.298 -5.381,0.099 -1.394,0.286 -2.686,0.759 -3.891,1.405 -1.206,0.634 -2.499,1.778 -3.878,3.418 l -0.958,1.976 m 0,10e-4 c -0.558,-1.131 -1.168,-1.951 -1.802,-2.473 -0.635,-0.534 -1.28,-1.007 -1.927,-1.417 -0.646,-0.41 -1.578,-0.808 -2.796,-1.169 -1.218,-0.36 -2.66,-0.559 -4.338,-0.571 -1.679,-0.013 -3.083,0.173 -4.214,0.559 -1.131,0.386 -2.051,0.746 -2.735,1.107 -0.684,0.348 -1.404,0.832 -2.15,1.466 -0.758,0.622 -1.616,1.566 -2.586,2.822 -0.957,1.255 -1.602,2.66 -1.939,4.226 -0.336,1.554 -0.446,2.946 -0.323,4.152 0.125,1.205 0.535,2.275 1.231,3.207 -0.298,0.061 -1.181,0.248 -2.635,0.534 -1.467,0.286 -2.66,0.559 -3.593,0.82 -0.932,0.261 -2.112,0.597 -3.542,1.032 -1.442,0.423 -3.021,1.057 -4.723,1.889 -1.716,0.833 -3.282,1.89 -4.686,3.17 -1.405,1.268 -2.673,2.698 -3.805,4.276 -1.131,1.592 -2.014,3.281 -2.635,5.083 -0.36,1.019 -0.645,2.064 -0.883,3.145 -0.397,1.841 -0.669,3.692 -0.806,5.569 -0.125,1.703 -0.137,3.394 -0.037,5.071 0.111,1.877 0.422,3.717 0.932,5.544 0.533,1.877 1.242,3.68 2.125,5.42 0.832,1.628 1.839,3.132 3.008,4.487 1.069,1.231 2.2,2.374 3.393,3.43 1.456,1.306 3.008,2.475 4.674,3.506 1.566,0.969 3.206,1.815 4.91,2.524 1.193,0.497 3.008,1.118 5.458,1.876 l 8.96,2.25 c 1.578,0.361 3.17,0.535 4.774,0.522 l 8.527,-0.087 c 0.857,0 2.125,-0.187 3.79,-0.572 l 10.553,-3.231 c 1.28,-0.398 2.561,-0.771 3.854,-1.131 1.877,-0.535 3.728,-1.156 5.581,-1.841 1.828,-0.695 3.568,-1.541 5.232,-2.523 1.418,-0.833 2.773,-1.765 4.066,-2.797 0.411,-0.31 0.882,-0.746 1.429,-1.28 0.547,-0.534 1.318,-1.317 2.313,-2.324 0.98,-1.006 1.913,-2.15 2.77,-3.418 0.858,-1.28 1.715,-2.698 2.549,-4.252 0.832,-1.553 1.454,-3.244 1.889,-5.083 0.434,-1.852 0.647,-3.729 0.647,-5.631"
         id="path557"
         style="fill:none;stroke:#00499d;stroke-width:1.98899996;stroke-linecap:round;stroke-miterlimit:10" />
      <path
         d="m 210.291,288.011 c -0.161,-3.306 -1.565,-6.066 -4.211,-8.291 -2.636,-2.225 -5.732,-3.231 -9.299,-3.045 -3.555,0.211 -6.526,1.554 -8.9,4.027 -0.907,0.933 -1.628,1.939 -2.162,2.996 -0.635,-0.919 -1.418,-1.778 -2.35,-2.561 -2.635,-2.224 -5.73,-3.231 -9.298,-3.045 -3.555,0.212 -6.526,1.554 -8.901,4.028 -2.397,2.473 -3.504,5.382 -3.343,8.7 0.187,3.332 1.592,6.104 4.239,8.316 2.648,2.212 5.756,3.219 9.311,3.033 3.541,-0.186 6.513,-1.529 8.887,-4.015 0.907,-0.933 1.628,-1.939 2.163,-2.996 0.633,0.92 1.417,1.778 2.349,2.561 2.648,2.212 5.755,3.22 9.309,3.032 3.543,-0.185 6.514,-1.528 8.888,-4.014 2.4,-2.486 3.506,-5.395 3.318,-8.726"
         id="path559"
         style="fill:#ffffff" />
      <path
         d="m 182.061,290.792 c -0.859,-1.094 -1.962,-1.72 -3.333,-1.878 -1.373,-0.158 -2.593,0.181 -3.686,1.013 -1.094,0.858 -1.72,1.962 -1.878,3.333 -0.157,1.372 0.181,2.592 1.013,3.684 0.858,1.107 1.96,1.745 3.332,1.903 1.373,0.158 2.592,-0.18 3.686,-1.037 1.107,-0.858 1.746,-1.96 1.904,-3.332 0.157,-1.372 -0.181,-2.591 -1.038,-3.686"
         id="path561" />
      <path
         d="m 198.475,282.997 c -0.856,-1.094 -1.959,-1.719 -3.332,-1.878 -1.372,-0.158 -2.591,0.18 -3.684,1.013 -1.094,0.859 -1.719,1.961 -1.878,3.333 -0.158,1.372 0.18,2.593 1.014,3.685 0.857,1.106 1.959,1.744 3.331,1.902 1.372,0.158 2.592,-0.18 3.686,-1.037 1.106,-0.857 1.744,-1.96 1.902,-3.332 0.159,-1.372 -0.18,-2.592 -1.039,-3.686 l 0,0 z"
         id="path563" />
      <path
         d="m 215.716,321.797 c 1.817,1.38 3.189,2.598 4.119,3.63 -9.426,-7.06 -22.688,-10.118 -39.8,-9.186 -5.347,0.299 -10.766,0.982 -16.258,2.039 l -6.616,1.517 c 16.835,-8.08 32.328,-9.572 46.489,-4.476 4.428,1.604 8.442,3.754 12.066,6.476"
         id="path565" />
      <path
         d="m 172.407,436.945 h 0.025 c 0.163,0.148 1.521,4.498 4.052,13.061 2.581,8.734 3.903,13.172 3.964,13.297 l 3.133,0.592 c 7.546,-0.156 13.774,0.621 18.673,2.346 2.374,0.83 4.651,2.07 6.839,3.711 1.007,0.756 1.879,1.961 2.638,3.613 0.748,1.654 1.022,2.996 0.837,4.027 -0.309,1.654 -1.712,2.996 -4.222,4.031 -6.971,2.865 -18.444,2.764 -34.407,-0.291 -7.981,-1.523 -15.267,-3.342 -21.844,-5.451 l -0.672,-1.23 c -0.062,-0.16 -0.112,-0.334 -0.163,-0.521 -0.149,-0.93 -0.262,-1.59 -0.324,-2 -0.138,-0.783 0.094,-6.078 0.669,-15.898 0.576,-9.832 0.805,-15.141 0.706,-15.91 v -0.014 l 20.083,-3.375 0.013,0.012 z"
         id="path567"
         style="fill:#00a0e9" />
      <path
         d="m 172.407,436.945 -0.013,-0.014 -20.083,3.375 v 0.014 c 0.099,0.77 -0.13,6.078 -0.706,15.91 -0.575,9.82 -0.807,15.115 -0.669,15.898 0.062,0.41 0.175,1.07 0.324,2 0.051,0.188 0.101,0.361 0.163,0.521 l 0.672,1.23 c 6.577,2.109 13.863,3.928 21.844,5.451 15.963,3.055 27.436,3.156 34.407,0.291 2.51,-1.035 3.913,-2.377 4.222,-4.031 0.185,-1.031 -0.089,-2.373 -0.837,-4.027 -0.759,-1.652 -1.631,-2.857 -2.638,-3.613 -2.188,-1.641 -4.465,-2.881 -6.839,-3.711 -4.899,-1.725 -11.127,-2.502 -18.673,-2.346 l -3.133,-0.592 c -0.061,-0.125 -1.383,-4.562 -3.964,-13.297 -2.531,-8.562 -3.889,-12.912 -4.052,-13.061 h -0.025 z"
         id="path569"
         style="fill:none;stroke:#00499d;stroke-width:1.98899996;stroke-linecap:round;stroke-miterlimit:10" />
      <path
         d="m 198.45,339.976 c -19.639,-0.634 -30.12,-0.932 -31.45,-0.919 -6.5,0.112 -11.211,1.155 -14.146,3.132 -1.502,1.007 -3.07,2.511 -4.698,4.499 -1.093,1.331 -2.858,3.73 -5.295,7.211 -6.613,9.36 -12.953,17.613 -19.019,24.761 -5.482,6.463 -9.112,13.437 -10.864,20.908 -1.64,6.961 -1.517,13.662 0.372,20.086 1.84,6.303 5.122,11.5 9.846,15.588 4.934,4.266 10.815,6.727 17.627,7.41 34.804,3.492 59.877,0.709 75.229,-8.377 12.566,-7.447 18.197,-18.734 16.905,-33.887 -1.008,-11.922 -5.929,-24.725 -14.743,-38.435 -3.493,-5.42 -7.147,-10.206 -10.939,-14.345 -3.568,-3.915 -6.501,-6.45 -8.825,-7.632"
         id="path571"
         style="fill:#00a0e9" />
      <path
         d="m 254.204,408.309 -5.958,-0.246 c -3.107,-0.178 -5.957,-0.471 -8.573,-0.893 l 0.049,-0.27 c -4.622,-0.973 -6.931,-2.133 -6.931,-3.494 0,-1.35 2.309,-2.498 6.931,-3.447 3.482,-0.717 7.493,-1.162 12.008,-1.361 l 0.013,-0.012 c 0.913,-0.574 1.371,-1.221 1.371,-1.947 0,-2.193 -2.709,-3.295 -8.116,-3.295 -1.887,0 -3.729,0.104 -5.523,0.305 -1.466,-2.381 -2.58,-5.254 -3.343,-8.619 -0.739,-3.225 -1.102,-8.339 -1.102,-15.34 0,-7.002 1.653,-11.751 4.961,-14.261 3.332,-2.498 6.871,-4.104 10.636,-4.796 -0.762,-0.317 -1.36,-0.621 -1.805,-0.926 -4.868,0.539 -9.078,1.653 -12.642,3.353 -0.598,0.293 -1.184,0.611 -1.747,0.927 -0.038,0.012 -0.083,0.035 -0.129,0.07 -1.35,0.763 -2.582,1.63 -3.718,2.604 -5.173,4.398 -7.764,10.273 -7.764,17.649 0,5.138 1.032,11.599 3.084,19.386 0.293,1.161 0.61,2.286 0.939,3.391 0.703,-0.305 1.407,-0.588 2.11,-0.857 0.551,-0.258 1.126,-0.505 1.748,-0.751 0.762,-0.27 1.571,-0.551 2.428,-0.82 l 0.035,0.164 c -0.809,0.224 -1.619,0.48 -2.404,0.75 -0.599,0.2 -1.208,0.41 -1.807,0.657 -0.398,0.176 -0.668,0.68 -0.82,1.537 0.222,-0.164 0.457,-0.328 0.703,-0.492 0.563,-0.365 1.196,-0.705 1.887,-1.045 0.506,-0.258 1.056,-0.505 1.632,-0.751 0.691,-0.27 1.441,-0.551 2.24,-0.82 0.399,-0.142 0.796,-0.27 1.208,-0.399 -0.412,0.13 -0.809,0.258 -1.208,0.399 -0.799,0.27 -1.549,0.551 -2.24,0.82 -0.576,0.246 -1.126,0.493 -1.632,0.751 -0.691,0.34 -1.324,0.68 -1.887,1.045 -0.246,0.164 -0.481,0.328 -0.703,0.492 -0.129,0.762 -0.177,1.807 -0.119,3.131 -0.303,-1.008 -0.549,-1.816 -0.738,-2.428 -0.657,0.633 -1.136,1.279 -1.442,1.945 -0.234,0.553 -0.351,1.129 -0.351,1.701 0,2.617 2.45,4.881 7.341,6.803 0.563,0.223 2.615,0.682 6.168,1.35 3.541,0.691 7.294,1.148 11.269,1.371 0.248,0.023 0.482,0.035 0.705,0.047 l 2.17,0.082 c 1.101,0.035 2.215,0.047 3.331,0.047 l 4.631,-0.094 c 0.528,-0.023 1.044,-0.047 1.572,-0.082 3.904,-0.188 7.422,-0.551 10.553,-1.102 0.084,-0.014 0.177,-0.035 0.259,-0.059 -2.357,-0.129 -4.667,-0.541 -6.908,-1.232 -1.043,-0.328 -1.969,-0.691 -2.802,-1.09 -0.857,0.047 -1.736,0.07 -2.639,0.082 l -4.386,0.094 h -0.269 c -0.763,-0.001 -1.525,-0.013 -2.276,-0.024"
         id="path573"
         style="fill:#ffe100" />
      <path
         d="m 254.204,408.309 -5.958,-0.246 c -3.107,-0.178 -5.957,-0.471 -8.573,-0.893 l 0.049,-0.27 c -4.622,-0.973 -6.931,-2.133 -6.931,-3.494 0,-1.35 2.309,-2.498 6.931,-3.447 3.482,-0.717 7.493,-1.162 12.008,-1.361 l 0.013,-0.012 c 0.913,-0.574 1.371,-1.221 1.371,-1.947 0,-2.193 -2.709,-3.295 -8.116,-3.295 -1.887,0 -3.729,0.104 -5.523,0.305 -1.466,-2.381 -2.58,-5.254 -3.343,-8.619 -0.739,-3.225 -1.102,-8.339 -1.102,-15.34 0,-7.002 1.653,-11.751 4.961,-14.261 3.332,-2.498 6.871,-4.104 10.636,-4.796 -0.762,-0.317 -1.36,-0.621 -1.805,-0.926 -4.868,0.539 -9.078,1.653 -12.642,3.353 -0.598,0.293 -1.184,0.611 -1.747,0.927 -0.038,0.012 -0.083,0.035 -0.129,0.07 -1.35,0.763 -2.582,1.63 -3.718,2.604 -5.173,4.398 -7.764,10.273 -7.764,17.649 0,5.138 1.032,11.599 3.084,19.386 0.293,1.161 0.61,2.286 0.939,3.391 0.703,-0.305 1.407,-0.588 2.11,-0.857 0.551,-0.258 1.126,-0.505 1.748,-0.751 0.762,-0.27 1.571,-0.551 2.428,-0.82 l 0.035,0.164 c -0.809,0.224 -1.619,0.48 -2.404,0.75 -0.599,0.2 -1.208,0.41 -1.807,0.657 -0.398,0.176 -0.668,0.68 -0.82,1.537 0.222,-0.164 0.457,-0.328 0.703,-0.492 0.563,-0.365 1.196,-0.705 1.887,-1.045 0.506,-0.258 1.056,-0.505 1.632,-0.751 0.691,-0.27 1.441,-0.551 2.24,-0.82 0.399,-0.142 0.796,-0.27 1.208,-0.399 -0.412,0.13 -0.809,0.258 -1.208,0.399 -0.799,0.27 -1.549,0.551 -2.24,0.82 -0.576,0.246 -1.126,0.493 -1.632,0.751 -0.691,0.34 -1.324,0.68 -1.887,1.045 -0.246,0.164 -0.481,0.328 -0.703,0.492 -0.129,0.762 -0.177,1.807 -0.119,3.131 -0.303,-1.008 -0.549,-1.816 -0.738,-2.428 -0.657,0.633 -1.136,1.279 -1.442,1.945 -0.234,0.553 -0.351,1.129 -0.351,1.701 0,2.617 2.45,4.881 7.341,6.803 0.563,0.223 2.615,0.682 6.168,1.35 3.541,0.691 7.294,1.148 11.269,1.371 0.248,0.023 0.482,0.035 0.705,0.047 l 2.17,0.082 c 1.101,0.035 2.215,0.047 3.331,0.047 l 4.631,-0.094 c 0.528,-0.023 1.044,-0.047 1.572,-0.082 3.904,-0.188 7.422,-0.551 10.553,-1.102 0.084,-0.014 0.177,-0.035 0.259,-0.059 -2.357,-0.129 -4.667,-0.541 -6.908,-1.232 -1.043,-0.328 -1.969,-0.691 -2.802,-1.09 -0.857,0.047 -1.736,0.07 -2.639,0.082 l -4.386,0.094 h -0.269 c -0.763,-0.001 -1.525,-0.013 -2.276,-0.024 z"
         id="path575"
         style="fill:none;stroke:#ffe100;stroke-width:0.486" />
      <path
         d="m 248.246,408.062 5.958,0.246 c 0.751,0.012 1.513,0.023 2.276,0.023 h 0.269 l 4.386,-0.094 c 0.552,-0.023 1.102,-0.047 1.643,-0.082 1.266,-0.059 2.486,-0.154 3.67,-0.281 2.452,-0.223 4.691,-0.553 6.743,-0.975 4.632,-0.973 6.942,-2.133 6.942,-3.494 0,-1.35 -2.31,-2.498 -6.942,-3.447 -2.85,-0.6 -6.051,-1.033 -9.616,-1.279 l -6.826,-0.176 h -0.269 c -0.786,0 -1.572,0.012 -2.345,0.023 l -1.619,0.035 c -0.176,0.012 -0.353,0.012 -0.528,0.023 -0.082,0 -0.164,0 -0.245,0.012 h -0.013 c -4.515,0.199 -8.526,0.645 -12.008,1.359 -4.622,0.951 -6.931,2.1 -6.931,3.449 0,1.361 2.309,2.521 6.931,3.494 2.556,0.53 5.393,0.916 8.524,1.164"
         id="path577"
         style="fill:#d7be00" />
      <path
         d="m 239.476,393.648 c 1.794,-0.2 3.635,-0.305 5.523,-0.305 5.406,0 8.116,1.102 8.116,3.295 0,0.727 -0.458,1.373 -1.372,1.947 l -0.013,0.012 h 0.013 c 0.081,-0.012 0.164,-0.012 0.246,-0.012 0.175,-0.012 0.352,-0.012 0.527,-0.023 l 1.619,-0.035 c 0.773,-0.012 1.559,-0.023 2.345,-0.023 h 0.27 l 6.826,0.176 c 3.564,0.246 6.765,0.68 9.616,1.279 4.632,0.949 6.942,2.098 6.942,3.447 0,1.361 -2.31,2.521 -6.942,3.494 -2.053,0.422 -4.292,0.752 -6.743,0.975 l 0.128,1.371 c 2.24,0.693 4.55,1.104 6.908,1.232 0.211,-0.035 0.422,-0.072 0.644,-0.107 3.355,-0.645 5.184,-1.02 5.49,-1.148 5.429,-1.982 8.138,-4.352 8.138,-7.107 0,-1.395 -0.692,-2.684 -2.065,-3.893 -0.045,-0.035 -0.105,-0.082 -0.163,-0.141 -0.481,-0.398 -1.043,-0.785 -1.689,-1.174 -1.372,-0.785 -3.108,-1.536 -5.207,-2.251 -0.527,-0.188 -1.079,-0.364 -1.631,-0.517 0.552,0.152 1.104,0.329 1.631,0.517 2.099,0.715 3.835,1.466 5.207,2.251 0.646,0.389 1.208,0.775 1.689,1.174 l 0.387,-0.504 c 0.633,-1.842 1.055,-3.133 1.255,-3.883 2.063,-7.787 3.096,-14.248 3.096,-19.385 0,-7.377 -2.592,-13.252 -7.764,-17.65 -1.09,-0.926 -2.286,-1.76 -3.565,-2.497 l -1.583,-0.869 c -5.219,-2.615 -11.845,-3.917 -19.903,-3.917 -0.303,-0.011 -0.608,-0.011 -0.925,-0.011 h -0.458 c -0.152,0.011 -0.304,0.011 -0.468,0.011 -0.527,0 -1.045,0 -1.561,0.012 -1.817,0.059 -3.564,0.164 -5.217,0.317 0.445,0.305 1.042,0.609 1.805,0.926 -3.765,0.692 -7.305,2.298 -10.636,4.796 -3.308,2.51 -4.961,7.26 -4.961,14.262 0,7.001 0.363,12.114 1.102,15.338 0.762,3.367 1.877,6.24 3.343,8.62"
         id="path579"
         style="fill:#ffe100" />
      <path
         d="m 227.278,398.469 c 0.259,-0.234 0.54,-0.469 0.857,-0.703 0.152,-0.858 0.422,-1.361 0.82,-1.537 -0.703,0.27 -1.406,0.552 -2.11,0.857 0.012,0.035 0.164,0.492 0.433,1.383"
         id="path581"
         style="fill:#ffe200" />
      <path
         d="m 228.135,397.766 c -0.317,0.234 -0.598,0.469 -0.857,0.703 0.189,0.611 0.435,1.42 0.739,2.428 -0.059,-1.325 -0.011,-2.37 0.118,-3.131"
         id="path583"
         style="fill:#ffe200" />
      <path
         d="m 233.167,394.821 -0.035,-0.164 c -0.857,0.27 -1.666,0.551 -2.428,0.82 -0.622,0.246 -1.197,0.493 -1.748,0.751 0.598,-0.247 1.208,-0.457 1.806,-0.657 0.785,-0.269 1.594,-0.526 2.405,-0.75"
         id="path585"
         style="fill:#ffe200" />
      <path
         d="m 273.484,410.479 c -0.082,0.023 -0.175,0.045 -0.259,0.059 -3.131,0.551 -6.649,0.914 -10.553,1.102 -0.528,0.035 -1.044,0.059 -1.572,0.082 0.774,-0.012 1.548,-0.035 2.334,-0.082 4.209,-0.188 8.01,-0.551 11.375,-1.102 -0.446,-0.015 -0.891,-0.024 -1.325,-0.059"
         id="path587"
         style="fill:#ffed00" />
      <path
         d="m 278.903,354.139 0.094,-0.223 c 0.069,-0.363 0.104,-0.715 0.104,-1.079 0,-2.92 -2.193,-5.3 -6.567,-7.129 -4.386,-1.83 -9.687,-2.745 -15.902,-2.745 -3.084,0 -5.958,0.223 -8.621,0.68 -0.668,0.927 -0.997,1.83 -0.997,2.697 0,1.326 0.482,2.369 1.444,3.144 0.106,0.082 0.222,0.153 0.364,0.223 1.653,-0.153 3.4,-0.258 5.218,-0.317 0.515,-0.012 1.033,-0.012 1.561,-0.012 0.163,0 0.315,0 0.468,-0.011 h 0.458 c 0.316,0 0.622,0 0.924,0.011 8.058,0 14.684,1.302 19.903,3.917 0.528,0.269 1.043,0.551 1.549,0.844"
         id="path589"
         style="fill:#ffe100" />
      <path
         d="m 248.822,349.707 c -0.142,-0.07 -0.258,-0.141 -0.364,-0.223 -0.962,-0.775 -1.444,-1.818 -1.444,-3.144 0,-0.867 0.329,-1.77 0.997,-2.696 -2.638,0.457 -5.065,1.149 -7.269,2.064 -4.387,1.829 -6.58,4.209 -6.58,7.129 0,0.388 0.035,0.775 0.117,1.162 l 0.153,-0.012 v -0.329 0.329 c 0.564,-0.316 1.15,-0.634 1.747,-0.926 3.565,-1.702 7.775,-2.815 12.643,-3.354"
         id="path591"
         style="fill:#ffe100" />
      <path
         d="m 248.822,349.707 c -0.142,-0.07 -0.258,-0.141 -0.364,-0.223 -0.962,-0.775 -1.444,-1.818 -1.444,-3.144 0,-0.867 0.329,-1.77 0.997,-2.696 -2.638,0.457 -5.065,1.149 -7.269,2.064 -4.387,1.829 -6.58,4.209 -6.58,7.129 0,0.388 0.035,0.775 0.117,1.162 l 0.153,-0.012 v -0.329 0.329 c 0.564,-0.316 1.15,-0.634 1.747,-0.926 3.565,-1.702 7.775,-2.815 12.643,-3.354 z"
         id="path593"
         style="fill:none;stroke:#ffe100;stroke-width:0.486" />
      <path
         d="m 234.304,354.056 c 0.047,-0.035 0.092,-0.057 0.129,-0.069 m -7.156,44.482 c -0.656,0.633 -1.135,1.279 -1.442,1.945 -0.233,0.553 -0.351,1.129 -0.351,1.701 0,2.617 2.451,4.881 7.341,6.803 0.563,0.223 2.616,0.682 6.169,1.35 3.541,0.691 7.294,1.148 11.269,1.371 0.247,0.023 0.481,0.035 0.705,0.047 l 2.169,0.082 c 1.102,0.035 2.216,0.047 3.331,0.047 l 4.632,-0.094 c 0.528,-0.023 1.044,-0.047 1.572,-0.082 3.904,-0.188 7.422,-0.551 10.553,-1.102 0.084,-0.014 0.177,-0.035 0.259,-0.06 0.211,-0.034 0.422,-0.071 0.644,-0.106 3.355,-0.645 5.184,-1.02 5.49,-1.148 5.429,-1.982 8.138,-4.352 8.138,-7.107 0,-1.395 -0.692,-2.684 -2.065,-3.893 m -51.387,-44.167 c -1.349,0.763 -2.581,1.631 -3.718,2.605 -5.172,4.398 -7.763,10.272 -7.763,17.649 0,5.137 1.031,11.599 3.083,19.385 0.294,1.161 0.611,2.286 0.94,3.391 0.011,0.035 0.164,0.492 0.432,1.383 m 8.527,-4.211 c -0.411,0.13 -0.808,0.258 -1.208,0.399 -0.798,0.27 -1.548,0.551 -2.24,0.82 -0.576,0.246 -1.126,0.493 -1.631,0.75 -0.691,0.341 -1.324,0.681 -1.888,1.046 -0.246,0.164 -0.481,0.328 -0.703,0.492 -0.317,0.234 -0.597,0.469 -0.857,0.703 m 49.723,-4.327 c 0.552,0.152 1.104,0.329 1.631,0.517 2.099,0.715 3.835,1.466 5.207,2.251 0.646,0.389 1.208,0.775 1.689,1.174 0.058,0.059 0.118,0.105 0.163,0.141 m 0,-10e-4 c 0.083,-0.211 0.153,-0.422 0.225,-0.645 0.632,-1.842 1.054,-3.133 1.254,-3.883 2.063,-7.786 3.096,-14.249 3.096,-19.385 0,-7.377 -2.592,-13.251 -7.764,-17.649 -1.09,-0.927 -2.286,-1.76 -3.565,-2.498 m 0.061,-0.247 -0.094,0.223 m -44.471,-0.152 c 0.564,-0.317 1.15,-0.634 1.747,-0.927 3.565,-1.7 7.775,-2.815 12.643,-3.353 1.653,-0.154 3.4,-0.259 5.218,-0.317 0.515,-0.012 1.033,-0.012 1.561,-0.012 0.163,0 0.315,0 0.467,-0.012 h 0.458 c 0.317,0 0.622,0 0.925,0.012 8.058,0 14.684,1.301 19.903,3.916 0.527,0.27 1.043,0.551 1.549,0.845 m -10e-4,0 c 0.011,0.012 0.022,0.012 0.034,0.024 m 10e-4,0 c 0.035,-0.083 0.047,-0.164 0.06,-0.247 m 0,0 c 0.069,-0.363 0.104,-0.715 0.104,-1.079 0,-2.92 -2.193,-5.3 -6.567,-7.13 -4.387,-1.83 -9.687,-2.745 -15.902,-2.745 -3.085,0 -5.958,0.224 -8.621,0.681 -2.638,0.458 -5.065,1.149 -7.269,2.064 -4.387,1.83 -6.58,4.21 -6.58,7.13 0,0.387 0.035,0.774 0.117,1.162 0.012,0.022 0.024,0.046 0.024,0.057 m 0.129,-0.399 v 0.33 m 22.317,54.345 4.386,-0.094 c 0.552,-0.023 1.102,-0.047 1.642,-0.082 1.267,-0.059 2.486,-0.154 3.671,-0.281 2.451,-0.223 4.69,-0.553 6.743,-0.975 4.632,-0.973 6.942,-2.133 6.942,-3.494 0,-1.35 -2.31,-2.498 -6.942,-3.447 -2.851,-0.6 -6.052,-1.033 -9.616,-1.279 l -6.826,-0.176 h -0.27 c -0.786,0 -1.572,0.012 -2.345,0.023 l -1.619,0.035 c -0.175,0.012 -0.352,0.012 -0.527,0.023 -0.082,0 -0.165,0 -0.246,0.012 h -0.013 c -4.515,0.199 -8.525,0.645 -12.008,1.359 -4.622,0.951 -6.93,2.1 -6.93,3.449 0,1.361 2.308,2.521 6.93,3.494 2.557,0.527 5.393,0.914 8.525,1.162 l 5.958,0.246 c 0.751,0.012 1.513,0.023 2.275,0.023"
         id="path595"
         style="fill:none;stroke:#000000;stroke-width:1.87600005;stroke-linecap:round;stroke-linejoin:round;stroke-miterlimit:10" />
      <path
         d="m 239.838,381.979 c 0.27,0.27 0.586,0.387 0.974,0.376 h 0.012 c 0.645,-0.023 1.735,-0.2 3.249,-0.528 1.489,-0.305 2.24,-0.457 2.25,-0.457 0.024,0 0.048,0 0.059,-0.012 1.255,-0.399 1.854,-0.974 1.819,-1.735 0,-0.224 -0.036,-0.435 -0.107,-0.61 0.071,-0.013 0.152,-0.048 0.235,-0.083 l 3.6,-1.067 c 0.681,-0.176 1.021,-0.644 1.021,-1.407 0,-0.422 -0.118,-0.774 -0.352,-1.067 h -0.011 c -0.247,-0.306 -0.563,-0.458 -0.939,-0.458 -0.141,0 -0.258,0.012 -0.351,0.024 v -0.586 h -2.663 v 1.395 l -0.868,0.199 c 0.2,-0.246 0.304,-0.586 0.304,-1.02 0,-0.211 -0.022,-0.399 -0.081,-0.574 h -5.277 c -0.833,0.257 -1.406,0.492 -1.724,0.714 H 241 c -0.434,0.294 -0.656,0.704 -0.656,1.244 0,0.399 0.116,0.75 0.362,1.067 0.246,0.317 0.564,0.469 0.95,0.469 0.223,0 0.447,-0.071 0.645,-0.199 h 0.036 c 0.246,-0.176 0.986,-0.423 2.193,-0.739 v 1.805 c -1.842,0.435 -3.109,0.669 -3.8,0.705 -0.386,0.023 -0.681,0.14 -0.892,0.34 -0.011,-1.795 -1.184,-3.213 -3.518,-4.269 -0.809,-0.364 -1.36,-0.751 -1.677,-1.137 h -2.813 c 0.281,1.617 1.441,2.896 3.482,3.834 1.195,0.551 1.805,1.102 1.841,1.63 -0.011,0.235 -0.176,0.422 -0.482,0.563 -0.268,0.129 -0.585,0.2 -0.949,0.2 -0.738,0 -1.453,-0.234 -2.134,-0.693 l -0.012,-0.01 c -0.223,-0.13 -0.445,-0.201 -0.669,-0.201 -0.362,0 -0.668,0.153 -0.939,0.458 -0.256,0.317 -0.385,0.668 -0.385,1.079 -0.012,0.528 0.222,0.951 0.68,1.243 h -0.012 c 1.126,0.762 2.263,1.138 3.412,1.138 1.056,0 1.982,-0.317 2.768,-0.95 0.482,-0.376 0.845,-0.81 1.079,-1.29 0.058,0.245 0.176,0.445 0.328,0.609"
         id="path597"
         style="fill:#ce0e19" />
      <path
         d="m 251.108,381.992 c 0.294,0.305 0.622,0.457 0.962,0.457 0.375,0 0.705,-0.176 0.974,-0.528 1.113,-1.43 2.016,-2.451 2.71,-3.049 -0.014,0.996 0.022,1.982 0.104,2.968 0.059,0.902 0.48,1.36 1.278,1.36 0.423,0 0.751,-0.153 0.998,-0.47 0.269,-0.293 0.374,-0.679 0.328,-1.161 -0.059,-0.937 -0.083,-1.935 -0.047,-2.991 0.07,0.341 0.152,0.646 0.258,0.939 0.527,1.489 1.442,2.228 2.72,2.216 1.643,0.012 2.896,-1.02 3.765,-3.107 0.246,-0.599 0.434,-1.208 0.575,-1.842 0.457,0.411 0.997,0.61 1.642,0.61 1.536,0.012 2.709,-0.926 3.529,-2.815 0.294,0.283 0.621,0.422 0.997,0.422 0.434,0.012 0.774,-0.198 1.044,-0.632 h -5.09 c -0.129,0.07 -0.269,0.105 -0.422,0.105 -0.081,0 -0.152,-0.011 -0.223,-0.035 l -0.012,-0.012 c -0.034,-0.012 -0.082,-0.023 -0.117,-0.058 h -3.659 c 0,0.867 -0.152,1.747 -0.446,2.627 -0.363,1.114 -0.868,1.676 -1.512,1.688 -0.094,0 -0.175,-0.012 -0.258,-0.035 h -0.012 c -0.339,-0.116 -0.516,-0.75 -0.516,-1.911 0,-0.856 0.071,-1.642 0.199,-2.369 h -4.76 c -0.012,0.035 -0.012,0.058 -0.012,0.081 l -0.094,-0.081 h -3.987 l 2.133,2.122 c -0.808,0.692 -1.841,1.854 -3.108,3.46 -0.246,0.317 -0.375,0.645 -0.363,0.974 0,0.398 0.141,0.75 0.422,1.067"
         id="path599"
         style="fill:#ce0e19" />
      <path
         d="m 251.108,381.992 c 0.294,0.305 0.622,0.457 0.962,0.457 0.375,0 0.705,-0.176 0.974,-0.528 1.113,-1.43 2.016,-2.451 2.71,-3.049 -0.014,0.996 0.022,1.982 0.104,2.968 0.059,0.902 0.48,1.36 1.278,1.36 0.423,0 0.751,-0.153 0.998,-0.47 0.269,-0.293 0.374,-0.679 0.328,-1.161 -0.059,-0.937 -0.083,-1.935 -0.047,-2.991 0.07,0.341 0.152,0.646 0.258,0.939 0.527,1.489 1.442,2.228 2.72,2.216 1.643,0.012 2.896,-1.02 3.765,-3.107 0.246,-0.599 0.434,-1.208 0.575,-1.842 0.457,0.411 0.997,0.61 1.642,0.61 1.536,0.012 2.709,-0.926 3.529,-2.815 0.294,0.283 0.621,0.422 0.997,0.422 0.434,0.012 0.774,-0.198 1.044,-0.632 h -5.09 c -0.129,0.07 -0.269,0.105 -0.422,0.105 -0.081,0 -0.152,-0.011 -0.223,-0.035 l -0.012,-0.012 c -0.034,-0.012 -0.082,-0.023 -0.117,-0.058 h -3.659 c 0,0.867 -0.152,1.747 -0.446,2.627 -0.363,1.114 -0.868,1.676 -1.512,1.688 -0.094,0 -0.175,-0.012 -0.258,-0.035 h -0.012 c -0.339,-0.116 -0.516,-0.75 -0.516,-1.911 0,-0.856 0.071,-1.642 0.199,-2.369 h -4.76 c -0.012,0.035 -0.012,0.058 -0.012,0.081 l -0.094,-0.081 h -3.987 l 2.133,2.122 c -0.808,0.692 -1.841,1.854 -3.108,3.46 -0.246,0.317 -0.375,0.645 -0.363,0.974 0,0.398 0.141,0.75 0.422,1.067 z"
         id="path601"
         style="fill:none;stroke:#ce0e19;stroke-width:0.34999999" />
      <path
         d="m 273.156,381.148 c -0.083,-0.129 -0.165,-0.293 -0.259,-0.505 -0.258,-0.574 -0.655,-0.868 -1.207,-0.868 -0.351,0 -0.68,0.141 -0.985,0.435 -0.293,0.304 -0.446,0.667 -0.446,1.102 0,0.246 0.058,0.492 0.175,0.739 0.68,1.56 1.561,2.321 2.628,2.31 1.136,0.011 2.357,-0.598 3.647,-1.83 1.688,-1.594 2.521,-3.811 2.498,-6.661 v -0.012 c -0.012,-0.516 -0.047,-1.008 -0.116,-1.489 h -2.745 c 0.081,0.423 0.117,0.867 0.117,1.325 0,1.361 -0.282,2.545 -0.834,3.541 -0.608,1.045 -1.431,1.69 -2.473,1.913"
         id="path603"
         style="fill:#ce0e19" />
      <path
         d="m 273.156,381.148 c -0.083,-0.129 -0.165,-0.293 -0.259,-0.505 -0.258,-0.574 -0.655,-0.868 -1.207,-0.868 -0.351,0 -0.68,0.141 -0.985,0.435 -0.293,0.304 -0.446,0.667 -0.446,1.102 0,0.246 0.058,0.492 0.175,0.739 0.68,1.56 1.561,2.321 2.628,2.31 1.136,0.011 2.357,-0.598 3.647,-1.83 1.688,-1.594 2.521,-3.811 2.498,-6.661 v -0.012 c -0.012,-0.516 -0.047,-1.008 -0.116,-1.489 h -2.745 c 0.081,0.423 0.117,0.867 0.117,1.325 0,1.361 -0.282,2.545 -0.834,3.541 -0.608,1.045 -1.431,1.69 -2.473,1.913 z"
         id="path605"
         style="fill:none;stroke:#ce0e19;stroke-width:0.34999999" />
      <path
         d="m 256.117,374.369 h 4.76 c 0.106,-0.61 0.271,-1.184 0.47,-1.725 0.34,-0.844 0.727,-1.278 1.161,-1.313 0.058,0 0.105,0 0.165,0.012 0.504,0.176 0.749,1.172 0.749,2.991 v 0.035 h 3.659 c -0.246,-0.2 -0.362,-0.775 -0.362,-1.725 0,-1.465 0.21,-2.755 0.633,-3.869 0.316,-0.786 0.68,-1.185 1.09,-1.22 0.047,0 0.093,0 0.152,0.011 0.469,0.164 0.704,1.103 0.704,2.804 0,0.832 -0.141,1.676 -0.422,2.521 -0.27,0.786 -0.61,1.278 -1.021,1.478 h 5.091 c 0.023,-0.048 0.046,-0.094 0.082,-0.141 0.609,-1.091 1.289,-1.677 2.039,-1.771 0.458,-0.011 0.81,0.364 1.068,1.126 0.082,0.258 0.154,0.516 0.211,0.786 h 2.745 c -0.142,-1.044 -0.424,-1.97 -0.846,-2.792 -0.786,-1.535 -1.887,-2.298 -3.282,-2.286 -1.185,-0.012 -2.264,0.562 -3.226,1.712 0.024,-0.294 0.035,-0.587 0.035,-0.891 0,-1.162 -0.211,-2.218 -0.645,-3.179 -0.621,-1.43 -1.583,-2.146 -2.884,-2.134 -1.255,-0.023 -2.252,0.845 -2.992,2.604 -0.281,0.668 -0.492,1.372 -0.643,2.099 -0.611,-0.692 -1.385,-1.044 -2.323,-1.044 -1.161,-0.023 -2.111,0.692 -2.861,2.146 0.035,-0.105 0.045,-0.188 0.045,-0.258 0,-0.434 -0.139,-0.785 -0.409,-1.055 -0.258,-0.27 -0.574,-0.411 -0.938,-0.411 -0.692,-0.011 -1.126,0.387 -1.278,1.184 v 0.024 c -0.305,1.607 -0.551,3.038 -0.727,4.281"
         id="path607"
         style="fill:#ce0e19" />
      <path
         d="m 256.117,374.369 h 4.76 c 0.106,-0.61 0.271,-1.184 0.47,-1.725 0.34,-0.844 0.727,-1.278 1.161,-1.313 0.058,0 0.105,0 0.165,0.012 0.504,0.176 0.749,1.172 0.749,2.991 v 0.035 h 3.659 c -0.246,-0.2 -0.362,-0.775 -0.362,-1.725 0,-1.465 0.21,-2.755 0.633,-3.869 0.316,-0.786 0.68,-1.185 1.09,-1.22 0.047,0 0.093,0 0.152,0.011 0.469,0.164 0.704,1.103 0.704,2.804 0,0.832 -0.141,1.676 -0.422,2.521 -0.27,0.786 -0.61,1.278 -1.021,1.478 h 5.091 c 0.023,-0.048 0.046,-0.094 0.082,-0.141 0.609,-1.091 1.289,-1.677 2.039,-1.771 0.458,-0.011 0.81,0.364 1.068,1.126 0.082,0.258 0.154,0.516 0.211,0.786 h 2.745 c -0.142,-1.044 -0.424,-1.97 -0.846,-2.792 -0.786,-1.535 -1.887,-2.298 -3.282,-2.286 -1.185,-0.012 -2.264,0.562 -3.226,1.712 0.024,-0.294 0.035,-0.587 0.035,-0.891 0,-1.162 -0.211,-2.218 -0.645,-3.179 -0.621,-1.43 -1.583,-2.146 -2.884,-2.134 -1.255,-0.023 -2.252,0.845 -2.992,2.604 -0.281,0.668 -0.492,1.372 -0.643,2.099 -0.611,-0.692 -1.385,-1.044 -2.323,-1.044 -1.161,-0.023 -2.111,0.692 -2.861,2.146 0.035,-0.105 0.045,-0.188 0.045,-0.258 0,-0.434 -0.139,-0.785 -0.409,-1.055 -0.258,-0.27 -0.574,-0.411 -0.938,-0.411 -0.692,-0.011 -1.126,0.387 -1.278,1.184 v 0.024 c -0.305,1.607 -0.551,3.038 -0.727,4.281 z"
         id="path609"
         style="fill:none;stroke:#ce0e19;stroke-width:0.34999999" />
      <path
         d="m 231.758,373.524 c 0,0.293 0.022,0.575 0.071,0.845 h 2.813 c -0.174,-0.223 -0.257,-0.457 -0.268,-0.692 0.011,-0.269 0.139,-0.481 0.41,-0.634 0.011,0 0.011,-0.011 0.011,-0.023 0.27,-0.128 0.562,-0.199 0.892,-0.199 0.974,0.012 1.864,0.504 2.674,1.466 0.011,0.034 0.035,0.058 0.059,0.082 h 2.076 c 0.175,-0.199 0.269,-0.481 0.257,-0.845 0,-0.246 -0.07,-0.504 -0.2,-0.786 0.082,0.013 0.176,0.024 0.258,0.024 0.318,0 0.598,-0.141 0.868,-0.411 v -0.011 c 0.61,-0.575 1.362,-0.856 2.265,-0.856 0.198,0 0.397,0.011 0.585,0.036 v 2.344 c -0.703,0.177 -1.314,0.341 -1.817,0.505 h 5.277 c -0.117,-0.434 -0.399,-0.716 -0.845,-0.845 v -2.72 c 0.036,-0.129 0.059,-0.27 0.059,-0.411 0,-0.633 -0.281,-1.079 -0.845,-1.348 -0.761,-0.329 -1.571,-0.494 -2.438,-0.494 -1.56,0 -2.873,0.529 -3.964,1.596 h -0.012 c -0.316,0.316 -0.469,0.68 -0.458,1.079 v 0.106 c -0.176,-0.141 -0.363,-0.282 -0.574,-0.422 -0.645,-0.447 -1.314,-0.775 -2.006,-0.998 h -0.011 c -0.458,-0.105 -0.903,-0.163 -1.349,-0.163 -1.043,0 -1.912,0.316 -2.603,0.961 -0.786,0.715 -1.185,1.653 -1.185,2.814"
         id="path611"
         style="fill:#ce0e19" />
      <path
         d="m 240.496,374.369 h -2.076 c 0.222,0.246 0.562,0.364 0.996,0.364 0.504,0 0.856,-0.118 1.08,-0.364"
         id="path613"
         style="fill:#ce0e19" />
      <path
         d="m 251.297,374.369 v -0.75 l 0.727,0.75 h 3.987 l -4.035,-4.152 c -0.212,-0.188 -0.433,-0.305 -0.679,-0.34 v -2.44 h 0.467 c 0.389,0 0.705,-0.151 0.951,-0.445 h 0.011 c 0.27,-0.27 0.412,-0.634 0.412,-1.079 0,-0.445 -0.142,-0.821 -0.412,-1.114 v 0.012 c -0.257,-0.293 -0.573,-0.434 -0.962,-0.434 -0.76,0 -1.593,0.117 -2.509,0.352 -2.005,0.504 -2.99,1.266 -2.954,2.31 0,0.411 0.14,0.763 0.422,1.079 0.292,0.317 0.61,0.469 0.962,0.469 0.351,0.012 0.667,-0.152 0.949,-0.493 v 6.275 h 2.663 z"
         id="path615"
         style="fill:#ce0e19" />
      <path
         d="m 227.604,369.938 c -0.848,1.805 -1.529,3.66 -2.024,5.572 -0.476,1.761 -0.613,2.847 -0.424,3.252 l 1.499,11.494 c 1.197,2.103 2.499,3.98 3.892,5.611 1.238,0.394 2.457,0.962 3.695,1.722 0.761,0.451 1.548,0.762 2.391,0.943 4.192,0.893 7.599,2.738 10.221,5.555 0.063,0.01 0.117,0.008 0.172,0.006 2.973,-0.045 5.513,-0.715 7.601,-2.016 1.969,-1.238 2.733,-2.436 2.296,-3.594 -1.143,-2.948 -2.885,-4.31 -5.248,-4.07 -0.674,0.079 -1.599,0.322 -2.792,0.75 -0.306,0.108 -0.592,0.205 -0.862,0.279 0.333,-0.137 0.695,-0.331 1.104,-0.563 1.367,-0.732 2.602,-1.66 3.695,-2.795 3.064,-3.133 3.688,-6.169 1.891,-9.104 -0.795,-1.67 -2.67,-1.834 -5.634,-0.485 -3.129,1.802 -5.015,2.826 -5.646,3.093 3.622,-2.825 5.992,-5.178 7.122,-7.035 1.884,-3.077 1.543,-5.893 -1.037,-8.45 -1.137,-1.123 -3.343,-0.883 -6.617,0.729 -3.008,1.5 -4.764,2.793 -5.251,3.883 0.441,-2.093 0.591,-4.073 0.433,-5.945 -0.265,-2.882 -1.283,-4.602 -3.075,-5.163 -2.565,-0.791 -5.034,1.321 -7.402,6.331"
         id="path617"
         style="fill:#00a0e9" />
      <path
         d="m 236.632,398.533 c -0.843,-0.182 -1.629,-0.492 -2.391,-0.943 -1.237,-0.76 -2.457,-1.328 -3.694,-1.722 1.911,2.228 4.003,4.032 6.278,5.39 3.178,1.914 6.528,2.863 10.028,2.83 -2.621,-2.817 -6.029,-4.662 -10.221,-5.555"
         id="path619"
         style="fill:#00a0e9" />
      <path
         d="m 227.219,395.935 0.232,0.538 c 0.889,0.029 1.59,0.049 2.106,0.068 0.214,-0.045 0.454,-0.047 0.726,-0.037 0.028,0.025 0.062,0.037 0.101,0.029 0.702,-0.025 1.32,-0.158 1.831,-0.391 l -0.623,-1.396 c -0.195,-0.023 -0.317,-0.041 -0.372,-0.039 0.016,-0.051 0.036,-0.09 0.086,-0.131 0.092,-0.035 0.18,-0.083 0.261,-0.14 -0.35,-0.208 -0.676,-0.425 -1.005,-0.645 -0.039,-0.78 0.237,-1.393 0.83,-1.837 0.151,-0.376 0.105,-1.014 -0.163,-1.91 1.341,-0.775 2.366,-1.437 3.056,-1.989 0.026,-0.028 0.038,-0.189 0.029,-0.495 -0.138,-0.023 -0.217,-0.038 -0.223,-0.048 l -0.311,0.181 c -0.555,0.354 -1.507,0.863 -2.843,1.521 -0.126,-0.367 -0.298,-0.768 -0.483,-1.19 -0.35,-0.812 -1.161,-2.458 -2.435,-4.914 0.234,-0.195 0.66,-0.634 1.301,-1.302 l -0.333,-0.623 c 0.157,-0.282 0.288,-0.562 0.403,-0.849 l -0.147,0.121 -0.547,-0.679 -1.094,0.713 -0.012,-0.022 c 0.033,-0.044 0.085,-0.129 0.154,-0.236 l -0.841,-1.281 c -0.136,0.087 -0.765,0.382 -1.872,0.89 -0.098,0.053 -0.196,0.105 -0.284,0.153 -0.115,0.075 -0.283,0.208 -0.512,0.387 -0.338,0.209 -0.577,0.365 -0.729,0.475 l -0.088,-0.137 c -0.108,0.087 -0.206,0.166 -0.287,0.253 -0.033,0.017 -0.047,0.095 -0.047,0.251 -0.005,0.227 -0.108,0.535 -0.314,0.912 l -0.31,0.209 0.84,1.28 1.064,-0.667 -0.002,0.099 c -0.115,0.287 -0.291,0.535 -0.524,0.759 -0.004,0.016 -0.015,0.023 -0.021,0.039 -0.537,0.415 -0.934,0.726 -1.189,0.933 -0.436,0.052 -0.89,0.069 -1.346,0.032 -0.098,-0.103 -0.201,-0.217 -0.287,-0.325 -0.017,0.022 -0.038,0.035 -0.049,0.04 -0.282,0.235 -0.762,0.943 -1.445,2.138 l 0.749,1.344 c 0.328,-0.176 0.821,-0.439 1.465,-0.785 0.558,-0.299 1.027,-0.578 1.403,-0.849 l -0.039,0.161 -0.246,0.174 0.773,1.471 c -0.306,0.53 -0.556,0.959 -0.764,1.281 -0.343,0.592 -0.574,1.054 -0.704,1.39 l 0.739,1.379 c -0.211,0.211 -0.345,0.354 -0.399,0.438 -0.181,0.266 -0.216,0.567 -0.136,0.902 l 0.782,1.299 c 0.134,0.041 0.372,0.04 0.732,0.002 0.376,-0.032 0.642,-0.034 0.793,-0.017 l 1.226,1.947 -0.344,0.225 0.188,0.352 c 0.333,-0.586 0.828,-1.078 1.5,-1.452 m 0.447,-9.99 0.046,0.059 c 0.127,0.369 0.262,0.804 0.392,1.282 0.142,0.529 0.234,0.859 0.267,0.997 l -0.333,0.192 c -0.19,-0.222 -0.297,-0.657 -0.331,-1.3 -0.026,-0.337 -0.034,-0.742 -0.041,-1.23"
         id="path621"
         style="fill:#00a0e9" />
      <path
         d="m 222.831,379.6 c -0.07,0.052 -0.102,0.069 -0.113,0.075 l 0.7,1.047 0.088,0.136 c 0.151,-0.11 0.391,-0.266 0.729,-0.475 0.228,-0.179 0.396,-0.311 0.511,-0.387 0.006,-0.017 0.016,-0.023 0.027,-0.028 0.119,-0.121 0.147,-0.277 0.098,-0.475 -0.036,-0.149 -0.03,-0.266 0.002,-0.339 l 0.026,-0.028 c 0.006,-0.016 0.016,-0.023 0.021,-0.04 0.082,-0.086 0.111,-0.186 0.076,-0.307 l -0.027,-0.126 c 0.042,-0.29 0.182,-1.027 0.431,-2.216 0.239,-1.183 0.609,-2.436 1.121,-3.766 0.513,-1.329 0.901,-2.283 1.156,-2.884 0.245,-0.568 0.519,-1.081 0.812,-1.533 0.613,-0.905 1.218,-1.666 1.84,-2.265 0.15,-0.165 0.306,-0.32 0.464,-0.474 l -0.95,-1.772 c -0.622,0.546 -1.225,1.234 -1.828,2.078 -0.37,0.493 -0.719,1.047 -1.064,1.639 l -0.071,0.024 -0.319,0.453 c -0.012,0.033 -0.021,0.067 -0.026,0.084 l -0.017,-0.005 -0.016,0.022 c -0.037,0.062 -0.058,0.102 -0.063,0.146 l -0.006,0.017 c -1.721,3.878 -2.78,6.893 -3.168,9.029 -0.014,0.078 -0.035,0.144 -0.061,0.229 0,0.028 -0.004,0.044 -0.009,0.061 -0.029,0.129 -0.043,0.262 -0.06,0.412 -0.023,0.012 -0.045,0.023 -0.066,0.036 0.012,0.022 0.035,0.037 0.057,0.053 l -0.175,0.122 c -0.068,0.135 -0.091,0.33 -0.055,0.578 0.034,0.221 0.026,0.366 -0.039,0.429 -0.091,0.092 -0.151,0.137 -0.178,0.138 -0.024,-0.016 -0.039,-0.021 -0.061,-0.009 l 0.213,0.321 z m 4.609,-10.545 c -0.006,-0.01 -0.017,-0.032 -0.012,-0.049 -0.005,0.016 0.006,0.039 0.012,0.049"
         id="path623"
         style="fill:#00499d" />
      <path
         d="m 230.282,396.504 c -0.271,-0.01 -0.511,-0.008 -0.726,0.037 -0.37,0.07 -0.655,0.223 -0.868,0.479 l 0.498,1.168 c 0.633,0.211 1.115,0.346 1.454,0.432 0.119,0.035 0.231,0.059 0.335,0.074 0.355,0.371 0.652,0.664 0.874,0.867 0.142,0.135 0.285,0.242 0.404,0.334 0.018,0.033 0.029,0.055 0.03,0.08 0.337,0.312 0.694,0.613 1.086,0.924 0.175,0.146 0.357,0.303 0.557,0.463 0.935,0.723 1.96,1.455 3.085,2.16 2.814,1.812 6.144,2.619 9.966,2.428 0.511,-0.02 1.026,-0.057 1.518,-0.109 0.47,-0.041 0.919,-0.098 1.371,-0.172 0.012,-0.006 0.023,-0.01 0.044,-0.023 0.269,-0.102 0.506,-0.158 0.695,-0.174 0.004,-0.018 0.004,-0.045 0.008,-0.062 0.452,-0.129 0.886,-0.264 1.32,-0.426 l -0.937,-1.748 c -0.291,0.113 -0.576,0.209 -0.857,0.291 -0.14,-0.025 -0.295,0.002 -0.465,0.051 -0.153,0.055 -0.275,0.09 -0.379,0.133 l -0.006,-0.01 -0.367,0.125 c -0.067,0.008 -0.144,0.021 -0.217,0.018 -0.448,0.029 -0.87,0.029 -1.275,0.037 -1.301,0.062 -2.547,-0.002 -3.733,-0.168 -1.198,-0.16 -2.641,-0.568 -4.335,-1.209 -0.927,-0.418 -1.817,-0.898 -2.683,-1.463 -0.599,-0.381 -1.181,-0.787 -1.743,-1.232 -0.732,-0.578 -1.444,-1.225 -2.135,-1.938 -0.051,-0.043 -0.102,-0.086 -0.148,-0.145 -0.264,-0.254 -0.51,-0.529 -0.74,-0.828 -0.005,-0.012 -0.018,-0.033 -0.024,-0.045 l -0.027,0.002 c -0.04,-0.049 -0.087,-0.109 -0.127,-0.158 -0.003,0.045 0.003,0.084 0.009,0.123 -0.295,-0.053 -0.752,-0.146 -1.361,-0.285 -0.039,0.006 -0.073,-0.006 -0.101,-0.031"
         id="path625"
         style="fill:#00499d" />
      <path
         d="m 252.662,392 c -0.012,0.006 -0.022,0.012 -0.034,0.018 -1.182,1.126 -2.465,2.094 -3.879,2.895 -0.432,0.245 -0.837,0.462 -1.214,0.65 0.072,0.003 0.549,-0.154 1.468,-0.463 0.917,-0.31 1.777,-0.516 2.596,-0.617 0.548,-0.054 0.963,-0.065 1.249,-0.007 0.133,0.013 0.374,0.067 0.715,0.18 0.017,0.005 0.05,0.015 0.068,0.02 l 0.006,0.011 c 0.133,0.068 0.281,0.132 0.426,0.194 l 0.243,0.165 c 0.007,0.01 0.007,0.01 0.012,0.021 0.023,0.017 0.045,0.032 0.073,0.031 l 0.005,0.011 0.007,0.012 0.011,0.021 c 0.007,0.011 0.007,0.011 0.012,0.021 0.682,0.563 1.17,1.132 1.474,1.7 0.076,0.145 0.118,0.221 0.125,0.258 0.031,0.166 0.212,0.662 0.552,1.506 l -0.006,0.016 0.007,0.012 c 0.133,0.379 0.133,0.773 -0.007,1.17 -0.004,0.018 -0.014,0.023 -0.02,0.041 -0.319,0.508 -0.793,0.988 -1.425,1.438 -0.25,0.164 -0.502,0.297 -0.748,0.416 -1.197,0.627 -2.332,1.137 -3.382,1.516 l 0.937,1.748 c 1.551,-0.549 2.94,-1.236 4.193,-2.076 0.817,-0.551 1.46,-1.135 1.936,-1.77 0.103,-0.463 0.256,-0.967 0.436,-1.498 -0.021,-0.328 -0.036,-0.699 -0.054,-1.125 -0.009,-0.094 -0.007,-0.195 -0.009,-0.277 -0.13,-0.533 -0.353,-1.105 -0.674,-1.68 -1.046,-1.901 -2.148,-3.014 -3.317,-3.358 l -0.007,-0.011 c -0.046,-0.005 -0.284,-0.058 -0.731,-0.157 -0.096,-0.02 -0.19,-0.039 -0.269,-0.053 0.012,-0.007 0.023,-0.012 0.034,-0.018 0.037,-0.035 0.18,-0.11 0.416,-0.223 0.109,-0.059 0.196,-0.105 0.262,-0.142 0.011,-0.005 0.033,-0.018 0.049,-0.039 0.049,-0.04 0.124,-0.081 0.218,-0.146 0.027,-0.028 0.064,-0.062 0.098,-0.08 0.048,-0.041 0.108,-0.086 0.196,-0.134 2.966,-3.629 3.536,-7.03 1.682,-10.2 -0.925,-1.912 -2.432,-2.652 -4.501,-2.232 0.318,-0.481 0.622,-0.967 0.879,-1.457 l 0.006,-0.017 c 1.725,-3.372 1.338,-6.275 -1.144,-8.701 -2.506,-2.471 -5.419,-2.684 -8.742,-0.664 -1.347,0.82 -2.514,1.585 -3.476,2.284 0.121,-1.036 0.129,-2.151 0.034,-3.353 -0.228,-2.763 -1.755,-4.562 -4.557,-5.382 -1.742,-0.572 -3.428,-0.148 -5.048,1.268 l 0.949,1.772 c 1.109,-1.03 2.225,-1.417 3.369,-1.144 l 0.007,0.011 c 0.089,0.036 0.201,0.061 0.307,0.075 0.005,0.011 0.005,0.011 0.016,0.005 0.727,0.174 1.324,0.529 1.812,1.07 0.667,0.669 1.048,1.563 1.151,2.675 0.003,0.084 0.005,0.166 0.024,0.227 0.054,0.337 0.097,0.708 0.108,1.124 0.148,1.904 -0.054,3.941 -0.598,6.131 0.533,-1.158 2.396,-2.62 5.591,-4.402 0.246,-0.118 0.488,-0.247 0.717,-0.37 0.181,-0.111 0.354,-0.232 0.533,-0.342 0.951,-0.565 1.835,-0.884 2.676,-0.97 1.367,-0.337 2.369,-0.198 3.013,0.399 1.224,1.103 1.947,2.32 2.172,3.634 0.26,1.142 0.051,2.379 -0.627,3.741 -0.184,0.394 -0.399,0.806 -0.649,1.234 -0.275,0.457 -0.621,0.938 -1.03,1.438 0.017,0.006 0.04,0.022 0.057,0.026 -1.467,1.701 -3.697,3.712 -6.689,6.031 0.663,-0.313 2.695,-1.458 6.097,-3.435 0.821,-0.383 1.567,-0.671 2.228,-0.855 l 0.016,0.005 c 1.784,-0.506 2.97,-0.156 3.552,1.037 1.663,2.655 1.179,5.56 -1.473,8.725 l -0.018,-0.005 c -0.005,0.017 -0.008,0.034 -0.019,0.039 -0.018,-0.005 -0.04,0.007 -0.057,0.002 -0.043,0.051 -0.085,0.103 -0.146,0.149 -0.173,0.15 -0.259,0.224 -0.27,0.23"
         id="path627"
         style="fill:#00499d" />
      <path
         d="m 180.838,361.962 -1.061,0.568 c -4.107,2.13 -8.646,5.321 -13.603,9.567 2.005,2.035 3.723,3.746 5.144,5.165 3.22,3.2 5.563,5.393 7.017,6.584 1.1,0.873 2.189,1.697 3.259,2.46 3.427,2.455 7.012,4.631 10.737,6.518 6.908,3.463 13.794,5.5 20.659,6.1 4.279,0.396 7.824,0.424 10.622,0.08 1.372,-0.174 2.664,-0.414 3.886,-0.732 l -0.06,-0.191 0.275,-0.092 0.077,0.197 c 1.167,-0.314 2.266,-0.707 3.302,-1.164 2.198,-0.967 3.257,-1.434 3.19,-1.398 -0.076,0.04 0.035,0.064 0.335,0.073 0.884,-0.374 1.667,-0.724 2.374,-1.061 l 0.125,-0.053 -0.382,0.021 3.221,-1.472 -9.538,-18.753 -5.222,1.784 c -0.005,0.016 -0.133,-0.013 -0.401,-0.095 -0.28,-0.074 -0.425,-0.11 -0.436,-0.104 -0.079,0.141 -0.142,0.287 -0.222,0.429 -0.142,0.286 -0.302,0.457 -0.462,0.528 -2.413,1.011 -4.548,1.621 -6.418,1.835 -1.422,0.156 -3.41,0.123 -5.963,-0.099 -3.476,-0.319 -6.99,-1.179 -10.555,-2.605 -3.037,-1.23 -6.084,-2.848 -9.147,-4.865 -2.031,-1.347 -4.003,-2.823 -5.909,-4.462 l -4.844,-4.763 z"
         id="path629"
         style="fill:#00a0e9" />
      <path
         d="m 227.79,398.186 c -0.093,0.035 -0.192,0.061 -0.292,0.086 l 0.024,0.072 0.287,-0.098 -0.019,-0.06 z"
         id="path631"
         style="fill:#00398c" />
      <path
         d="m 227.498,398.271 c 0.1,-0.025 0.199,-0.051 0.292,-0.086 l -0.077,-0.197 -0.275,0.092 0.06,0.191 z"
         id="path633"
         style="fill:#00398c" />
      <path
         d="m 166.173,372.097 c 2.006,2.035 3.723,3.746 5.145,5.165 3.219,3.2 5.563,5.393 7.016,6.584 1.1,0.873 2.19,1.697 3.26,2.46 3.426,2.455 7.012,4.631 10.737,6.518 6.907,3.463 13.794,5.5 20.658,6.1 4.279,0.396 7.824,0.424 10.623,0.08 1.371,-0.174 2.663,-0.414 3.886,-0.732 0.099,-0.025 0.199,-0.051 0.292,-0.086 1.167,-0.314 2.266,-0.707 3.302,-1.164 m -6.735,-21.058 c -0.079,0.141 -0.141,0.287 -0.221,0.429 -0.142,0.286 -0.303,0.457 -0.463,0.529 -2.413,1.01 -4.548,1.62 -6.418,1.834 -1.421,0.156 -3.409,0.124 -5.962,-0.099 -3.477,-0.319 -6.991,-1.179 -10.556,-2.605 -3.036,-1.23 -6.084,-2.848 -9.147,-4.865 -2.03,-1.347 -4.003,-2.823 -5.909,-4.462"
         id="path635"
         style="fill:none;stroke:#00499d;stroke-width:1.98399997;stroke-linecap:square;stroke-miterlimit:10" />
      <line
         style="fill:none;stroke:#00499d;stroke-width:1.98399997;stroke-linecap:round;stroke-miterlimit:10"
         x1="185.68201"
         y1="366.72601"
         x2="180.83701"
         y2="361.96201"
         id="line637" />
    </g>
  </g>
</svg>
