<?xml version="1.0" encoding="UTF-8" standalone="no"?>
<!-- Created with Inkscape (http://www.inkscape.org/) -->

<svg
   xmlns:dc="http://purl.org/dc/elements/1.1/"
   xmlns:cc="http://creativecommons.org/ns#"
   xmlns:rdf="http://www.w3.org/1999/02/22-rdf-syntax-ns#"
   xmlns:svg="http://www.w3.org/2000/svg"
   xmlns="http://www.w3.org/2000/svg"
   version="1.1"
   width="260"
   height="225"
   id="svg4502">
  <defs
     id="defs4504" />
  <metadata
     id="metadata4507">
    <rdf:RDF>
      <cc:Work
         rdf:about="">
        <dc:format>image/svg+xml</dc:format>
        <dc:type
           rdf:resource="http://purl.org/dc/dcmitype/StillImage" />
        <dc:title></dc:title>
      </cc:Work>
    </rdf:RDF>
  </metadata>
  <g
     transform="translate(0,-255)"
     id="layer1">
    <g
       transform="translate(-338.4029,227.10629)"
       id="g117">
      <path
         d="m 419.361,119.955 c 6.946,-5.343 14.422,-11.706 22.417,-19.082 0.399,-0.362 3.337,-2.664 8.793,-6.889 11.47,13.175 25.69,15.328 42.658,6.442 4.366,11.977 7.262,21.005 8.685,27.092 3.571,15.382 4.165,28.952 1.776,40.679 -3.072,14.91 -10.806,24.372 -23.211,28.377 -15.15,4.896 -36.645,1.297 -64.473,-10.794 -5.454,-2.36 -9.636,-6.196 -12.556,-11.525 -2.801,-5.125 -4.112,-10.947 -3.918,-17.486 0.177,-6.664 1.899,-13.136 5.145,-19.435 3.502,-6.73 8.398,-12.522 14.684,-17.379"
         id="path119"
         style="fill:#00a0e9" />
      <path
         d="m 441.52,99.92 c -8.139,7.519 -15.737,13.994 -22.816,19.444 -6.399,4.945 -11.376,10.851 -14.941,17.713 -3.313,6.407 -5.06,13.014 -5.253,19.79 -0.199,6.655 1.135,12.591 3.978,17.811 2.973,5.428 7.224,9.329 12.765,11.736 28.313,12.301 50.172,15.946 65.594,10.957 12.619,-4.083 20.5,-13.724 23.627,-28.917 2.432,-11.947 1.842,-25.764 -1.781,-41.43 -1.449,-6.189 -4.396,-15.394 -8.827,-27.58 -17.265,9.049 -31.727,6.871 -43.392,-6.55 -5.571,4.314 -8.549,6.653 -8.954,7.026 z"
         id="path121"
         style="fill:none;stroke:#00489c;stroke-width:1.96599996;stroke-linecap:round;stroke-miterlimit:10" />
      <path
         d="m 410.505,156.071 -1.526,-2.246 -35.391,3.651 c -0.061,0.002 -0.136,-0.007 -0.222,-0.015 -0.088,-0.034 -0.187,-0.066 -0.288,-0.111 -0.042,-0.12 -0.072,-0.242 -0.115,-0.363 -0.221,-1.935 -0.516,-3.866 -0.909,-5.806 -0.017,-0.097 -0.046,-0.206 -0.077,-0.341 -0.016,-0.085 -0.061,-0.28 -0.138,-0.609 -0.866,-3.715 -2.152,-7.447 -3.844,-11.212 -1.617,-3.423 -3.772,-6.502 -6.441,-9.25 -1.378,-1.354 -3.182,-2.37 -5.415,-3.033 l -0.036,10e-4 c -2.22,-0.665 -3.773,0.659 -4.66,3.984 -0.011,0.026 -0.01,0.05 -0.021,0.075 -0.011,0.013 -0.011,0.037 -0.022,0.051 -0.163,0.499 -0.325,1.011 -0.486,1.547 -0.011,0.013 -0.01,0.037 -0.021,0.05 -0.013,0.013 -0.022,0.063 -0.044,0.137 -0.011,0.038 -0.032,0.088 -0.044,0.126 -1.294,4.388 -1.735,8.863 -1.336,13.423 0.003,0.074 0.007,0.148 0.01,0.209 0.001,0.037 0.003,0.073 0.004,0.11 0.003,0.061 0.005,0.111 0.008,0.172 0.003,0.061 0.006,0.135 0.009,0.196 0.615,12.205 3.613,25.411 8.994,39.608 0.082,0.18 0.175,0.348 0.269,0.528 0.095,0.193 0.201,0.373 0.32,0.54 0.012,0.012 0.038,0.036 0.063,0.046 0.065,0.059 0.129,0.117 0.192,0.164 0.115,0.094 0.242,0.175 0.369,0.255 0.063,0.034 0.113,0.069 0.176,0.102 0.189,0.103 0.414,0.191 0.652,0.267 0.212,0.064 0.436,0.128 0.672,0.179 0.385,0.069 0.794,0.137 1.202,0.192 0.211,0.04 0.434,0.068 0.693,0.093 0.755,0.077 1.666,0.099 2.736,0.063 0.233,-0.011 0.478,-0.021 0.735,-0.044 0.197,-0.01 0.406,-0.031 0.638,-0.066 0.27,-0.024 0.527,-0.048 0.784,-0.084 0.158,-0.031 0.317,-0.063 0.476,-0.083 0.28,-0.049 0.562,-0.099 0.843,-0.16 0.231,-0.059 0.462,-0.118 0.705,-0.179 0.242,-0.072 0.486,-0.156 0.728,-0.229 l 41.955,-13.233 0.368,-0.299 1.283,-1.608 -3.669,-16.4 -0.179,-0.398 z"
         id="path123"
         style="fill:#00a0e9" />
      <path
         d="m 408.979,153.825 -35.391,3.651 c -0.061,0.002 -0.135,-0.006 -0.221,-0.015 -0.088,-0.033 -0.187,-0.066 -0.288,-0.111 -0.042,-0.12 -0.072,-0.242 -0.115,-0.363 -0.221,-1.935 -0.516,-3.866 -0.91,-5.806 -0.017,-0.097 -0.046,-0.206 -0.076,-0.341 -0.017,-0.085 -0.062,-0.28 -0.139,-0.609 -0.866,-3.715 -2.152,-7.447 -3.844,-11.212 -1.617,-3.423 -3.771,-6.502 -6.441,-9.25 -1.377,-1.355 -3.182,-2.37 -5.414,-3.033 l -0.037,10e-4 c -2.22,-0.664 -3.773,0.659 -4.659,3.984 -0.011,0.026 -0.01,0.05 -0.021,0.075 -0.012,0.013 -0.011,0.037 -0.023,0.051 -0.162,0.499 -0.324,1.011 -0.485,1.547 -0.012,0.013 -0.01,0.037 -0.022,0.05 -0.012,0.013 -0.021,0.063 -0.044,0.137 -0.01,0.038 -0.032,0.088 -0.044,0.126 -1.294,4.389 -1.735,8.863 -1.335,13.423 0.002,0.074 0.007,0.148 0.009,0.209 0.001,0.037 0.003,0.073 0.004,0.111 0.003,0.061 0.005,0.11 0.008,0.171 0.004,0.061 0.007,0.135 0.009,0.196 0.616,12.205 3.614,25.411 8.995,39.608 0.081,0.18 0.174,0.348 0.269,0.528 0.094,0.193 0.2,0.373 0.319,0.54 0.013,0.012 0.039,0.036 0.063,0.046 0.065,0.059 0.129,0.117 0.192,0.164 0.116,0.094 0.242,0.175 0.369,0.255 0.063,0.034 0.113,0.069 0.176,0.102 0.189,0.103 0.415,0.191 0.652,0.267 0.212,0.064 0.437,0.128 0.673,0.179 0.384,0.069 0.793,0.137 1.202,0.193 0.21,0.04 0.434,0.067 0.693,0.092 0.754,0.077 1.666,0.099 2.735,0.063 0.233,-0.01 0.478,-0.021 0.736,-0.044 0.197,-0.009 0.405,-0.031 0.637,-0.066 0.27,-0.024 0.527,-0.048 0.785,-0.084 0.158,-0.031 0.316,-0.063 0.476,-0.083 0.279,-0.049 0.562,-0.099 0.842,-0.16 0.231,-0.059 0.462,-0.118 0.705,-0.178 0.243,-0.073 0.486,-0.157 0.728,-0.23 l 41.956,-13.233 0.368,-0.299 1.282,-1.608 -3.669,-16.399 -0.179,-0.399 -1.526,-2.246 z"
         id="path125"
         style="fill:none;stroke:#00489c;stroke-width:1.96700001;stroke-linecap:round;stroke-miterlimit:10" />
      <path
         d="m 478.251,189.412 c 1.315,1.894 2.617,3.977 3.904,6.251 2.68,3.841 3.858,7.95 3.553,12.346 -0.203,2.878 -1.238,5.509 -3.121,7.886 -0.605,0.913 -1.256,1.786 -1.963,2.619 l -0.246,0.294 c 0.004,0.025 0.009,0.049 0.014,0.073 0.904,-0.106 1.717,-0.182 2.445,-0.231 0.644,-0.032 1.49,-0.065 2.524,-0.082 0.224,-0.004 0.448,-0.009 0.673,-0.013 3.829,0.012 7.758,0.418 11.795,1.204 3.724,0.794 7.238,2.203 10.539,4.202 1.643,1.032 3.038,2.548 4.191,4.572 l 0.016,0.022 c 1.139,2.014 0.235,3.808 -2.732,5.4 -0.057,0.035 -0.112,0.07 -0.17,0.094 -0.461,0.286 -0.922,0.559 -1.385,0.833 -0.066,0.038 -0.136,0.075 -0.203,0.113 -4.01,2.312 -8.312,3.789 -12.881,4.44 -0.182,0.034 -0.363,0.067 -0.547,0.089 -12.109,2.206 -25.765,2.288 -40.944,0.227 -0.481,-0.16 -0.932,-0.364 -1.355,-0.623 -0.014,-0.009 -0.03,-0.031 -0.045,-0.041 -0.354,-0.36 -0.682,-0.774 -0.956,-1.236 -0.785,-1.529 -1.3,-3.147 -1.527,-4.843 -0.082,-0.572 -0.129,-1.164 -0.126,-1.753 -0.019,-0.434 -0.007,-0.837 0.036,-1.208 0.067,-0.512 0.156,-1.041 0.292,-1.593 1.166,-4.682 3.598,-9.551 7.32,-14.609 1.934,-2.85 3.824,-5.516 5.664,-7.997 l -4.812,-14.814 0.147,-0.152 19.9,-1.47 z"
         id="path127"
         style="fill:#00a0e9" />
      <path
         d="m 482.155,195.663 c 2.68,3.841 3.857,7.949 3.552,12.346 -0.202,2.877 -1.238,5.509 -3.12,7.886 -0.605,0.913 -1.256,1.785 -1.964,2.618 l -0.245,0.295 c 0.004,0.024 0.009,0.049 0.014,0.072 0.905,-0.105 1.717,-0.181 2.446,-0.23 0.644,-0.032 1.487,-0.065 2.524,-0.082 0.223,-0.005 0.447,-0.009 0.672,-0.013 3.83,0.011 7.758,0.417 11.795,1.203 3.724,0.795 7.238,2.203 10.537,4.202 1.644,1.033 3.039,2.548 4.193,4.573 l 0.016,0.022 c 1.139,2.013 0.235,3.808 -2.732,5.4 -0.057,0.035 -0.111,0.07 -0.17,0.093 -0.46,0.286 -0.922,0.56 -1.385,0.834 -0.067,0.037 -0.135,0.075 -0.203,0.113 -4.01,2.311 -8.312,3.788 -12.881,4.439 -0.182,0.034 -0.362,0.068 -0.547,0.089 -12.108,2.207 -25.765,2.288 -40.944,0.227 -0.48,-0.16 -0.932,-0.363 -1.354,-0.623 -0.015,-0.009 -0.031,-0.031 -0.045,-0.041 -0.355,-0.359 -0.683,-0.773 -0.956,-1.235 -0.785,-1.53 -1.301,-3.147 -1.528,-4.843 -0.082,-0.573 -0.13,-1.165 -0.126,-1.754 -0.02,-0.434 -0.006,-0.836 0.036,-1.207 0.067,-0.513 0.157,-1.042 0.292,-1.593 1.167,-4.682 3.598,-9.551 7.319,-14.61 1.934,-2.849 3.825,-5.515 5.665,-7.997 l -4.812,-14.813 0.146,-0.153 19.901,-1.469 c 1.316,1.893 2.617,3.977 3.904,6.251 z"
         id="path129"
         style="fill:none;stroke:#00489c;stroke-width:1.96700001;stroke-linecap:round;stroke-miterlimit:10" />
      <path
         d="m 428.674,118.08 c -0.226,0.196 -0.49,0.272 -0.767,0.257 -0.302,-0.016 -0.539,-0.15 -0.721,-0.377 L 386.024,69.633 c -0.196,-0.226 -0.272,-0.477 -0.243,-0.767 0.016,-0.29 0.137,-0.526 0.363,-0.722 0.225,-0.182 0.477,-0.259 0.766,-0.243 0.118,0.014 0.237,0.041 0.342,0.082 0.145,0.067 0.262,0.161 0.38,0.281 l 40.692,47.784 c 0.263,0.041 0.486,0.161 0.668,0.362 0.169,0.198 0.247,0.41 0.259,0.661 -10e-4,0.039 -10e-4,0.066 -10e-4,0.105 -0.016,0.289 -0.138,0.526 -0.363,0.722 l -0.213,0.182 z"
         id="path131"
         style="fill:#003d91" />
      <path
         d="m 429.25,117.071 c -0.011,-0.251 -0.089,-0.462 -0.258,-0.662 -0.183,-0.199 -0.406,-0.32 -0.669,-0.361 L 387.631,68.264 c -0.117,-0.12 -0.235,-0.214 -0.38,-0.28 1.384,-2.848 3.729,-5.633 7.036,-8.344 2.737,-2.255 5.278,-3.497 7.639,-3.725 0.012,0.171 0.077,0.343 0.18,0.489 0.157,0.251 0.379,0.399 0.655,0.454 l 39.192,44.753 c 0.195,0.225 0.431,0.345 0.721,0.361 h 0.027 c -0.236,4.045 -1.665,7.524 -4.289,10.438 -2.582,2.876 -5.641,4.43 -9.162,4.661"
         id="path133"
         style="fill:#00a0e9" />
      <path
         d="m 443.429,101.703 c -0.213,0.195 -0.45,0.285 -0.728,0.27 h -0.025 c -0.29,-0.017 -0.526,-0.137 -0.723,-0.362 L 402.761,56.858 c -0.276,-0.055 -0.498,-0.202 -0.654,-0.454 -0.104,-0.146 -0.168,-0.318 -0.18,-0.489 -0.013,-0.092 10e-4,-0.198 0.029,-0.303 0.055,-0.276 0.202,-0.499 0.455,-0.668 0.238,-0.156 0.502,-0.206 0.791,-0.151 0.039,0.014 0.093,0.014 0.133,0.028 0.012,0.013 0.012,0.013 0.025,0.013 0.132,0.015 0.263,0.042 0.395,0.096 0.131,0.067 0.25,0.147 0.353,0.254 l 39.426,45.031 c 0.196,0.225 0.272,0.489 0.257,0.766 -0.016,0.29 -0.137,0.526 -0.362,0.722"
         id="path135"
         style="fill:#003d91" />
      <path
         d="m 405.272,59.285 c -0.113,-0.136 -0.3,-0.344 -0.557,-0.642 -0.175,-0.215 -0.302,-0.373 -0.385,-0.483 -0.014,-0.021 -0.027,-0.043 -0.033,-0.053 -0.085,-0.139 -0.076,-0.292 0.01,-0.462 0.067,-0.13 0.092,-0.234 0.085,-0.317 l -0.023,-0.015 c 0.003,-0.016 -0.004,-0.028 10e-4,-0.044 -0.066,-0.107 -0.07,-0.208 -0.006,-0.321 l 0.062,-0.111 c 0.032,-0.284 0.06,-0.596 0.086,-0.935 0.113,-2.039 0.049,-4.101 -0.184,-6.177 -0.091,-0.841 -0.204,-1.623 -0.33,-2.354 l 1.471,-0.904 c 0.733,4.178 1.027,7.333 0.884,9.464 10e-4,0.073 -0.003,0.163 -0.002,0.236 -0.004,0.016 -0.009,0.034 -0.013,0.051 -0.004,0.135 -0.009,0.271 -0.025,0.413 0.018,0.005 0.023,0.014 0.03,0.025 -0.004,0.018 0.003,0.028 0.01,0.038 -0.022,0.014 -0.033,0.02 -0.043,0.027 l 0.049,0.058 c -0.004,0.017 -10e-4,0.045 0.001,0.072 l 0.008,0.012 c 0.002,0.027 0.004,0.055 0,0.072 -10e-4,0.045 0.003,0.101 0.002,0.145 -10e-4,0.119 0.002,0.22 0.003,0.293 -0.004,0.017 -0.019,0.041 -0.023,0.058 -0.084,0.198 -0.099,0.341 -0.054,0.415 0.066,0.106 0.116,0.165 0.133,0.168 0.011,-0.006 0.028,-0.002 0.041,0.019 l -0.281,0.261 c 0.044,0.047 0.074,0.072 0.081,0.082 l -0.988,0.903 -0.01,0.006 z"
         id="path137"
         style="fill:#003d91" />
      <path
         d="m 393.767,75.149 c -0.654,-0.083 -1.144,-0.163 -1.464,-0.23 -0.115,-0.018 -0.218,-0.042 -0.317,-0.085 -0.469,0.171 -0.855,0.306 -1.134,0.403 -0.168,0.06 -0.333,0.103 -0.477,0.132 -0.014,0.024 -0.036,0.038 -0.04,0.055 -0.432,0.134 -0.871,0.256 -1.334,0.365 -0.213,0.058 -0.444,0.112 -0.683,0.155 -1.096,0.248 -2.292,0.455 -3.565,0.607 -3.2,0.411 -6.441,-0.271 -9.739,-2.048 -2.784,-1.492 -5.02,-3.217 -6.71,-5.175 l 1.631,-1.004 c 1.532,1.63 3.002,2.826 4.413,3.59 1.57,0.858 2.962,1.544 4.17,2.05 1.214,0.517 2.741,0.753 4.563,0.705 0.986,0.026 1.964,-0.032 2.948,-0.153 0.674,-0.076 1.349,-0.197 2.014,-0.357 0.887,-0.207 1.779,-0.477 2.66,-0.812 0.06,-0.022 0.12,-0.044 0.18,-0.067 0.338,-0.12 0.669,-0.25 0.997,-0.408 0.011,-0.006 0.033,-0.02 0.043,-0.026 l 0.017,0.005 c 0.06,-0.023 0.103,-0.049 0.163,-0.072 -0.009,0.035 -0.017,0.07 -0.043,0.1 0.283,0.076 0.72,0.189 1.299,0.318 0.034,0.009 0.069,0.016 0.104,0.025 0.243,0.086 0.443,0.197 0.623,0.322 0.294,0.215 0.486,0.479 0.576,0.792 l -0.895,0.813 0,0 z"
         id="path139"
         style="fill:#003d91" />
      <path
         d="m 381.349,50.9 c 0.828,1.826 2.044,4.017 3.646,6.574 -0.499,-0.502 -1.984,-2.247 -4.443,-5.218 -0.623,-0.63 -1.203,-1.141 -1.755,-1.537 l -0.01,0.007 c -1.471,-1.078 -2.66,-1.17 -3.564,-0.277 -1.898,1.478 -2.583,3.589 -2.062,6.324 0.139,0.752 0.364,1.452 0.676,2.127 0.346,0.729 0.729,1.447 1.173,2.145 0.209,0.341 0.419,0.682 0.639,1.016 0.341,0.482 0.696,0.94 1.079,1.394 0.126,0.158 0.253,0.315 0.383,0.456 l -0.075,0.046 c -0.043,-0.047 -0.104,-0.099 -0.158,-0.138 -0.996,-0.901 -1.796,-1.511 -2.399,-1.846 -0.106,-0.052 -0.201,-0.111 -0.301,-0.153 -0.725,-0.391 -1.477,-0.516 -2.251,-0.363 -0.48,0.103 -0.939,0.313 -1.343,0.635 -0.613,0.509 -1.215,1.012 -1.794,1.529 -0.47,0.451 -0.699,0.988 -0.705,1.624 -0.002,0.163 0.023,0.324 0.087,0.476 0.221,0.525 0.466,1.02 0.766,1.483 0.146,0.19 0.303,0.372 0.47,0.549 0.18,0.198 0.355,0.384 0.528,0.571 l -1.631,1.004 c -0.307,-0.354 -0.586,-0.713 -0.86,-1.088 -0.289,-0.395 -0.548,-0.794 -0.746,-1.187 -0.325,-0.696 -0.424,-1.429 -0.329,-2.207 0.096,-0.824 0.401,-1.57 0.909,-2.25 0.203,-0.242 0.441,-0.477 0.707,-0.714 1.45,-1.274 2.731,-1.915 3.842,-1.923 0.364,0.041 0.723,0.099 1.072,0.165 -0.028,0.002 -0.062,-0.007 -0.103,-0.026 -0.532,-0.745 -0.903,-1.634 -1.099,-2.644 -0.033,-0.128 -0.057,-0.26 -0.09,-0.386 -0.761,-3.412 -10e-4,-6.069 2.297,-7.997 1.458,-1.427 3.073,-1.597 4.815,-0.508 -0.142,-0.543 -0.251,-1.079 -0.34,-1.628 l 0.005,-0.017 c -0.474,-3.662 0.798,-6.178 3.836,-7.548 3.069,-1.388 5.792,-0.594 8.161,2.372 0.966,1.213 1.777,2.316 2.44,3.276 0.216,-0.987 0.57,-2.012 1.043,-3.082 1.107,-2.43 3.066,-3.546 5.876,-3.349 2.903,0.109 4.788,2.624 5.663,7.508 0.016,0.122 0.039,0.256 0.066,0.371 l -1.471,0.904 c -0.306,-1.618 -0.705,-2.96 -1.226,-4.021 -0.699,-1.687 -1.696,-2.616 -2.976,-2.783 l -0.01,0.005 c -0.102,0.003 -0.198,-0.011 -0.313,-0.028 -0.01,0.006 -0.01,0.006 -0.016,-0.004 -0.71,-0.078 -1.374,0.035 -1.986,0.355 -0.827,0.375 -1.463,1.061 -1.909,2.056 -0.028,0.075 -0.051,0.134 -0.091,0.187 -0.16,0.289 -0.311,0.618 -0.463,0.991 -0.74,1.689 -1.21,3.624 -1.422,5.812 -0.097,-1.042 -0.965,-2.595 -2.626,-4.675 -0.511,-0.641 -1.033,-1.274 -1.543,-1.886 -0.452,-0.545 -0.941,-1.053 -1.47,-1.507 -0.559,-0.479 -1.179,-0.891 -1.866,-1.218 -0.686,-0.327 -1.4,-0.388 -2.127,-0.161 -0.124,0.061 -0.265,0.119 -0.395,0.17 -1.224,0.591 -2.121,1.378 -2.679,2.383 -0.607,0.946 -0.825,2.168 -0.646,3.631 0.027,0.306 0.071,0.617 0.121,0.938 0.215,0.706 0.398,1.387 0.568,2.046 0.11,0.419 0.247,0.833 0.425,1.239"
         id="path141"
         style="fill:#003d91" />
      <path
         d="m 377.036,63.958 0.074,-0.046 c 0.163,0.193 0.33,0.37 0.498,0.546 -0.188,-0.164 -0.377,-0.328 -0.572,-0.5"
         id="path143"
         style="fill:#003d91" />
      <path
         d="m 402.773,43.349 c 0.742,1.541 1.255,3.665 1.556,6.376 0.233,2.075 0.297,4.138 0.184,6.176 -0.026,0.34 -0.054,0.651 -0.086,0.935 l -0.063,0.112 c -0.064,0.112 -0.061,0.214 0.006,0.321 -0.005,0.016 0.002,0.027 -10e-4,0.044 l 0.023,0.015 c 0.007,0.083 -0.018,0.187 -0.085,0.316 -0.086,0.171 -0.095,0.324 -0.01,0.462 0.006,0.011 0.019,0.032 0.033,0.054 l -12.227,14.619 c -0.06,0.023 -0.103,0.049 -0.163,0.071 l -0.017,-0.004 c -0.01,0.005 -0.032,0.019 -0.043,0.025 -0.328,0.159 -0.66,0.289 -0.997,0.409 -0.06,0.022 -0.12,0.044 -0.18,0.066 -0.881,0.336 -1.773,0.606 -2.66,0.813 -0.665,0.16 -1.341,0.281 -2.014,0.357 -0.984,0.121 -1.962,0.179 -2.947,0.153 -1.823,0.048 -3.35,-0.188 -4.564,-0.705 -1.207,-0.506 -2.6,-1.192 -4.17,-2.05 -1.564,-0.845 -3.215,-2.239 -4.941,-4.161 -0.167,-0.176 -0.323,-0.359 -0.469,-0.549 -0.3,-0.462 -0.545,-0.958 -0.766,-1.482 -0.064,-0.152 -0.089,-0.313 -0.087,-0.477 0.006,-0.635 0.234,-1.172 0.705,-1.624 0.579,-0.517 1.181,-1.02 1.794,-1.529 0.403,-0.322 0.863,-0.531 1.343,-0.635 0.773,-0.153 1.525,-0.028 2.251,0.363 0.1,0.043 0.195,0.101 0.301,0.154 0.603,0.334 1.402,0.944 2.398,1.846 0.25,0.214 0.499,0.427 0.731,0.637 -0.284,-0.295 -0.578,-0.629 -0.88,-1.002 -0.384,-0.454 -0.739,-0.912 -1.079,-1.394 -0.22,-0.334 -0.43,-0.675 -0.64,-1.016 -0.443,-0.697 -0.826,-1.416 -1.172,-2.144 -0.313,-0.676 -0.537,-1.375 -0.676,-2.128 -0.522,-2.735 0.163,-4.846 2.062,-6.323 0.904,-0.894 2.092,-0.802 3.564,0.276 l 0.01,-0.006 c 0.552,0.395 1.132,0.906 1.754,1.537 2.459,2.97 3.945,4.716 4.444,5.217 -1.602,-2.557 -2.818,-4.748 -3.646,-6.574 -0.178,-0.406 -0.315,-0.821 -0.425,-1.238 -0.17,-0.66 -0.353,-1.34 -0.568,-2.046 -0.051,-0.322 -0.095,-0.632 -0.122,-0.939 -0.179,-1.463 0.039,-2.685 0.646,-3.631 0.559,-1.005 1.456,-1.792 2.68,-2.383 0.13,-0.051 0.271,-0.108 0.395,-0.169 0.727,-0.228 1.441,-0.167 2.127,0.161 0.687,0.326 1.307,0.738 1.866,1.217 0.529,0.454 1.017,0.962 1.47,1.507 0.509,0.613 1.031,1.245 1.543,1.887 1.661,2.079 2.529,3.632 2.626,4.674 0.212,-2.188 0.682,-4.123 1.422,-5.812 0.152,-0.373 0.303,-0.701 0.463,-0.99 0.04,-0.054 0.063,-0.112 0.091,-0.188 0.445,-0.995 1.082,-1.68 1.908,-2.056 0.613,-0.318 1.277,-0.433 1.987,-0.355 0.005,0.01 0.005,0.01 0.016,0.004 0.115,0.018 0.211,0.032 0.312,0.028 l 0.011,-0.005 c 1.279,0.167 2.277,1.096 2.976,2.783"
         id="path145"
         style="fill:#00a0e9" />
      <path
         d="m 502.919,156.029 c 0.039,0.283 0.182,0.506 0.392,0.669 0.229,0.18 0.483,0.232 0.758,0.184 l 60.235,-8.945 c 0.283,-0.041 0.497,-0.173 0.659,-0.401 0.171,-0.219 0.232,-0.466 0.193,-0.75 -0.047,-0.274 -0.182,-0.488 -0.4,-0.659 -0.095,-0.065 -0.198,-0.119 -0.3,-0.156 -0.146,-0.043 -0.289,-0.05 -0.451,-0.037 l -59.551,8.847 c -0.217,-0.135 -0.453,-0.189 -0.711,-0.16 -0.248,0.036 -0.438,0.141 -0.604,0.315 -0.025,0.029 -0.041,0.048 -0.066,0.077 -0.172,0.22 -0.232,0.466 -0.193,0.75 l 0.039,0.266 z"
         id="path147"
         style="fill:#003d91" />
      <path
         d="m 503.14,154.936 c 0.166,-0.173 0.354,-0.278 0.604,-0.315 0.258,-0.029 0.494,0.024 0.711,0.161 l 59.551,-8.848 c 0.161,-0.013 0.305,-0.006 0.452,0.037 0.797,-2.931 0.86,-6.423 0.181,-10.469 -0.554,-3.355 -1.607,-5.856 -3.169,-7.511 -0.115,0.116 -0.271,0.2 -0.438,0.24 -0.272,0.084 -0.524,0.049 -0.76,-0.085 l -56.553,7.604 c -0.285,0.04 -0.532,-0.022 -0.751,-0.193 -0.011,-0.008 -0.011,-0.008 -0.019,-0.017 -2.382,3.071 -3.546,6.486 -3.49,10.248 0.053,3.708 1.282,6.759 3.681,9.148"
         id="path149"
         style="fill:#00a0e9" />
      <path
         d="m 502.593,134.886 c 0.03,0.275 0.146,0.491 0.355,0.654 0.009,0.009 0.009,0.009 0.019,0.017 0.219,0.171 0.466,0.233 0.751,0.193 l 56.553,-7.604 c 0.235,0.134 0.487,0.169 0.761,0.085 0.167,-0.04 0.322,-0.124 0.438,-0.241 0.067,-0.058 0.123,-0.143 0.17,-0.236 0.135,-0.235 0.169,-0.489 0.094,-0.77 -0.074,-0.263 -0.233,-0.467 -0.478,-0.609 -0.037,-0.015 -0.076,-0.048 -0.112,-0.062 -0.017,10e-4 -0.017,10e-4 -0.027,-0.007 -0.104,-0.073 -0.216,-0.136 -0.346,-0.18 -0.138,-0.034 -0.273,-0.051 -0.415,-0.04 l -56.9,7.658 c -0.282,0.04 -0.506,0.182 -0.67,0.392 -0.172,0.219 -0.233,0.466 -0.193,0.75"
         id="path151"
         style="fill:#003d91" />
      <path
         d="m 557.366,127.333 c -0.017,-0.021 -0.031,-0.03 -0.054,-0.025 l 0.116,0.357 c -0.08,0.03 -0.114,0.038 -0.128,0.04 l 0.429,1.312 c 0.172,-0.062 0.437,-0.147 0.808,-0.253 0.26,-0.108 0.452,-0.188 0.577,-0.228 0.01,-0.015 0.021,-0.017 0.033,-0.019 0.143,-0.082 0.211,-0.221 0.216,-0.419 0.004,-0.149 0.042,-0.256 0.091,-0.317 l 0.032,-0.019 c 0.009,-0.014 0.021,-0.017 0.029,-0.032 0.098,-0.058 0.154,-0.145 0.15,-0.268 l 0.009,-0.125 c 0.116,-0.259 0.439,-0.912 0.982,-1.959 0.534,-1.044 1.207,-2.12 2.034,-3.231 0.694,-0.931 1.237,-1.645 1.633,-2.14 0.069,-0.077 0.137,-0.167 0.203,-0.255 0.183,-0.227 0.383,-0.443 0.582,-0.661 0.19,-0.191 0.385,-0.369 0.592,-0.551 0.194,-0.18 0.391,-0.347 0.603,-0.505 0.177,-0.15 0.367,-0.292 0.573,-0.424 0.182,-0.127 0.373,-0.256 0.567,-0.385 0.185,-0.116 0.37,-0.23 0.557,-0.334 0.187,-0.103 0.369,-0.218 0.553,-0.333 l -0.421,-1.893 c -0.612,0.297 -1.23,0.681 -1.874,1.17 -0.243,0.19 -0.48,0.391 -0.723,0.58 -0.617,0.496 -1.178,1.028 -1.709,1.579 -0.49,0.516 -0.95,1.051 -1.391,1.618 -1.896,2.41 -3.231,4.397 -3.984,5.948 -0.033,0.069 -0.069,0.126 -0.115,0.198 -0.008,0.027 -0.016,0.041 -0.024,0.055 -0.063,0.113 -0.109,0.234 -0.165,0.37 -0.024,0.004 -0.047,0.011 -0.07,0.016 0.005,0.024 0.021,0.045 0.039,0.065 l -0.194,0.068 c -0.1,0.108 -0.172,0.285 -0.204,0.527 -0.026,0.215 -0.071,0.349 -0.148,0.391 -0.11,0.061 -0.176,0.089 -0.204,0.082"
         id="path153"
         style="fill:#003d91" />
      <path
         d="m 559.979,145.426 c -0.253,-0.079 -0.477,-0.141 -0.689,-0.155 -0.365,-0.03 -0.672,0.038 -0.938,0.221 l 0.161,1.224 c 0.537,0.36 0.951,0.615 1.248,0.782 0.101,0.063 0.199,0.116 0.295,0.157 0.233,0.441 0.435,0.792 0.589,1.042 0.1,0.162 0.203,0.299 0.292,0.416 0.007,0.035 0.012,0.059 0.005,0.085 0.233,0.38 0.49,0.754 0.774,1.148 0.127,0.181 0.257,0.374 0.401,0.577 0.687,0.92 1.454,1.873 2.321,2.828 2.157,2.432 5.05,4.058 8.674,4.868 0.703,0.164 1.413,0.303 2.125,0.402 0.715,0.101 1.436,0.125 2.174,0.059 0.208,-0.008 0.402,-0.027 0.604,-0.06 l -0.417,-1.869 c -0.832,0.086 -1.655,0.047 -2.495,-0.124 -0.812,-0.151 -1.599,-0.359 -2.379,-0.593 -0.729,-0.219 -1.425,-0.471 -2.082,-0.758 -1.078,-0.463 -2.322,-1.223 -3.738,-2.265 -0.759,-0.633 -1.466,-1.315 -2.127,-2.068 -0.461,-0.515 -0.9,-1.047 -1.309,-1.609 -0.533,-0.733 -1.03,-1.524 -1.491,-2.371 -0.036,-0.054 -0.073,-0.107 -0.101,-0.176 -0.179,-0.305 -0.338,-0.628 -0.475,-0.967 -10e-4,-0.013 -0.008,-0.035 -0.011,-0.047 l -0.026,-0.007 c -0.025,-0.056 -0.052,-0.124 -0.077,-0.18 -0.016,0.041 -0.02,0.078 -0.024,0.116 -0.264,-0.127 -0.665,-0.333 -1.199,-0.622 -0.038,-0.003 -0.068,-0.021 -0.085,-0.054"
         id="path155"
         style="fill:#003d91" />
      <path
         d="m 579.205,136.772 c -0.198,0.106 -0.4,0.201 -0.589,0.292 -0.211,0.109 -0.424,0.205 -0.634,0.314 -1.083,0.513 -2.298,1.043 -3.622,1.584 0.701,-0.119 2.902,-0.658 6.602,-1.617 0.869,-0.146 1.642,-0.219 2.308,-0.219 l 0.016,0.009 c 1.8,-0.006 2.818,0.632 3.051,1.9 0.768,2.606 -0.118,4.951 -2.678,7.039 -1.081,0.797 -2.251,1.415 -3.494,1.876 -0.804,0.327 -1.644,0.603 -2.496,0.816 -0.469,0.116 -0.903,0.213 -1.307,0.291 0.067,0.023 0.557,-10e-4 1.495,-0.049 0.94,-0.049 1.8,-0.018 2.591,0.101 0.525,0.093 0.919,0.191 1.169,0.321 0.122,0.046 0.332,0.16 0.622,0.354 0.017,0.01 0.045,0.028 0.059,0.037 l 0.002,0.012 c 0.11,0.099 0.229,0.195 0.35,0.292 l 0.134,0.156 c 0.196,0.326 0.38,0.656 0.553,0.987 0.458,0.787 0.697,1.635 0.702,2.546 -0.004,0.421 -0.116,0.804 -0.336,1.149 -0.532,0.822 -1.29,1.349 -2.275,1.594 -0.092,0.02 -0.188,0.041 -0.271,0.047 -0.836,0.186 -1.618,0.324 -2.375,0.418 -0.349,0.041 -0.687,0.079 -1.036,0.12 -0.048,-0.001 -0.097,0.009 -0.146,0.008 l 0.417,1.87 c 0.495,-0.049 0.979,-0.095 1.471,-0.155 1.041,-0.146 2.039,-0.38 2.992,-0.692 0.599,-0.195 1.138,-0.439 1.608,-0.704 0.105,-0.085 0.21,-0.17 0.313,-0.254 0.62,-0.546 1.04,-1.208 1.273,-1.987 0.213,-0.764 0.241,-1.522 0.062,-2.273 -0.021,-0.094 -0.043,-0.188 -0.066,-0.295 -0.242,-1.031 -0.545,-1.889 -0.927,-2.556 -0.094,-0.141 -0.19,-0.291 -0.294,-0.429 -0.163,-0.236 -0.347,-0.454 -0.542,-0.657 -0.082,-0.093 -0.173,-0.171 -0.273,-0.235 -0.249,-0.179 -0.508,-0.344 -0.8,-0.489 l 0.508,-0.211 c 0.303,-0.142 0.62,-0.323 0.938,-0.556 0.534,-0.377 1.044,-0.799 1.533,-1.266 2.324,-2.258 3.119,-4.78 2.384,-7.579 -0.364,-2.029 -1.582,-3.116 -3.628,-3.264 0.425,-0.367 0.834,-0.742 1.204,-1.133 l 0.009,-0.014 c 2.496,-2.704 2.895,-5.52 1.207,-8.439 -1.698,-2.967 -4.369,-3.927 -8.004,-2.907 -1.476,0.415 -2.766,0.826 -3.849,1.227 0.384,-0.937 0.682,-1.978 0.907,-3.127 0.51,-2.644 -0.449,-4.726 -2.856,-6.226 -1.479,-0.991 -3.168,-1.034 -5.053,-0.133 l 0.422,1.893 c 0.012,-0.003 0.012,-0.003 0.024,-0.005 0.262,-0.157 0.53,-0.279 0.821,-0.356 0.174,-0.051 0.339,-0.088 0.517,-0.115 0.25,-0.044 0.493,-0.061 0.753,-0.057 0.149,0.004 0.299,0.007 0.453,0.035 0.322,0.064 0.614,0.159 0.895,0.306 0.265,0.139 0.499,0.297 0.721,0.469 0.223,0.161 0.41,0.341 0.563,0.53 0.155,0.199 0.292,0.427 0.405,0.662 0.452,0.8 0.572,1.735 0.378,2.803 -0.019,0.079 -0.038,0.157 -0.037,0.219 -0.038,0.328 -0.094,0.687 -0.191,1.079 -0.358,1.821 -1.082,3.672 -2.163,5.58 0.714,-0.839 2.454,-1.621 5.226,-2.361 0.759,-0.195 1.494,-0.383 2.215,-0.581 0.689,-0.178 1.381,-0.283 2.101,-0.32 0.771,-0.036 1.497,0.123 2.157,0.483 0.66,0.359 1.181,0.81 1.582,1.338 0.403,0.539 0.657,1.013 0.774,1.432 0.121,0.43 0.209,0.767 0.253,1.017 0.018,0.305 0.013,0.614 -0.019,0.918 -0.056,1.135 -0.575,2.239 -1.564,3.335 -0.227,0.26 -0.464,0.523 -0.726,0.791 -0.071,0.065 -0.133,0.128 -0.207,0.181 -0.205,0.183 -0.411,0.365 -0.62,0.535 -0.042,0.033 -0.084,0.067 -0.115,0.087 -0.201,0.156 -0.402,0.312 -0.601,0.467 -0.138,0.104 -0.265,0.194 -0.406,0.287 -0.136,0.105 -0.287,0.201 -0.438,0.296 -0.273,0.16 -0.559,0.322 -0.835,0.47 -0.142,0.08 -0.284,0.162 -0.427,0.243 -0.276,0.149 -0.553,0.296 -0.84,0.445"
         id="path157"
         style="fill:#003d91" />
      <path
         d="m 564.527,119.753 c -0.066,0.088 -0.134,0.177 -0.203,0.254 -0.396,0.496 -0.938,1.209 -1.633,2.142 -0.827,1.109 -1.5,2.186 -2.034,3.229 -0.543,1.047 -0.866,1.7 -0.982,1.959 l -0.009,0.126 c 0.004,0.123 -0.053,0.209 -0.15,0.268 -0.01,0.014 -0.021,0.018 -0.029,0.032 l -0.032,0.019 c -0.049,0.06 -0.087,0.167 -0.091,0.317 -0.005,0.197 -0.073,0.337 -0.216,0.418 -0.012,0.003 -0.023,0.005 -0.033,0.02 -0.125,0.041 -0.317,0.121 -0.577,0.228 l 1.441,16.662 c 0.018,0.033 0.048,0.051 0.085,0.054 0.534,0.289 0.937,0.495 1.199,0.622 0.005,-0.038 0.009,-0.075 0.024,-0.116 0.025,0.056 0.052,0.123 0.077,0.18 l 0.026,0.006 c 0.003,0.013 0.01,0.035 0.011,0.048 0.137,0.339 0.296,0.661 0.475,0.967 0.027,0.068 0.064,0.122 0.101,0.176 0.461,0.847 0.958,1.638 1.491,2.371 0.408,0.561 0.848,1.094 1.309,1.609 0.661,0.753 1.368,1.434 2.127,2.068 1.416,1.042 2.66,1.802 3.738,2.265 0.656,0.287 1.354,0.538 2.082,0.758 0.78,0.234 1.566,0.442 2.379,0.594 0.89,0.172 1.763,0.211 2.642,0.115 0.349,-0.041 0.687,-0.079 1.035,-0.12 0.757,-0.095 1.539,-0.232 2.375,-0.418 0.084,-0.007 0.18,-0.028 0.272,-0.048 0.984,-0.244 1.742,-0.771 2.274,-1.593 0.22,-0.345 0.332,-0.728 0.336,-1.149 -0.005,-0.912 -0.244,-1.76 -0.702,-2.546 -0.173,-0.332 -0.356,-0.661 -0.553,-0.988 l -0.134,-0.156 c -0.121,-0.096 -0.239,-0.193 -0.351,-0.291 l -10e-4,-0.013 c -0.014,-0.008 -0.042,-0.026 -0.059,-0.037 -0.289,-0.194 -0.5,-0.308 -0.622,-0.354 -0.25,-0.13 -0.644,-0.227 -1.169,-0.32 -0.791,-0.119 -1.65,-0.15 -2.59,-0.102 -0.939,0.049 -1.429,0.072 -1.496,0.049 0.403,-0.077 0.838,-0.174 1.307,-0.291 0.853,-0.214 1.692,-0.487 2.496,-0.815 1.243,-0.462 2.413,-1.08 3.494,-1.877 2.56,-2.087 3.445,-4.432 2.678,-7.038 -0.232,-1.27 -1.251,-1.907 -3.051,-1.9 l -0.016,-0.009 c -0.666,0 -1.438,0.074 -2.308,0.218 -3.699,0.959 -5.9,1.498 -6.602,1.618 1.324,-0.542 2.539,-1.071 3.622,-1.584 0.21,-0.109 0.423,-0.206 0.634,-0.314 0.188,-0.091 0.39,-0.185 0.589,-0.292 0.287,-0.15 0.563,-0.298 0.838,-0.446 0.143,-0.081 0.285,-0.162 0.427,-0.243 0.276,-0.148 0.562,-0.31 0.835,-0.469 0.151,-0.096 0.303,-0.192 0.438,-0.297 0.142,-0.092 0.269,-0.183 0.406,-0.287 0.198,-0.155 0.398,-0.311 0.601,-0.466 0.032,-0.02 0.073,-0.054 0.115,-0.088 0.209,-0.17 0.415,-0.352 0.62,-0.534 0.074,-0.053 0.136,-0.115 0.207,-0.181 0.262,-0.268 0.499,-0.531 0.726,-0.791 0.989,-1.097 1.509,-2.2 1.564,-3.335 0.031,-0.304 0.036,-0.614 0.019,-0.918 -0.044,-0.25 -0.132,-0.588 -0.253,-1.018 -0.117,-0.418 -0.371,-0.892 -0.774,-1.432 -0.401,-0.528 -0.922,-0.979 -1.582,-1.338 -0.66,-0.359 -1.387,-0.517 -2.157,-0.482 -0.72,0.037 -1.411,0.141 -2.101,0.32 -0.721,0.198 -1.456,0.386 -2.215,0.58 -2.771,0.741 -4.512,1.523 -5.226,2.362 1.081,-1.908 1.805,-3.759 2.163,-5.58 0.098,-0.392 0.153,-0.751 0.191,-1.08 -10e-4,-0.061 0.019,-0.14 0.037,-0.218 0.194,-1.067 0.074,-2.003 -0.378,-2.804 -0.113,-0.234 -0.25,-0.462 -0.405,-0.662 -0.153,-0.188 -0.341,-0.368 -0.563,-0.529 -0.223,-0.172 -0.456,-0.331 -0.72,-0.469 -0.281,-0.147 -0.573,-0.242 -0.896,-0.306 -0.154,-0.028 -0.304,-0.032 -0.453,-0.036 -0.26,-0.003 -0.503,0.014 -0.753,0.058 -0.178,0.027 -0.343,0.063 -0.517,0.114 -0.291,0.077 -0.561,0.199 -0.821,0.356 -0.197,0.118 -0.392,0.236 -0.578,0.339 -0.186,0.103 -0.372,0.218 -0.557,0.333 -0.194,0.13 -0.386,0.259 -0.567,0.386 -0.206,0.132 -0.396,0.273 -0.573,0.424 -0.213,0.157 -0.408,0.325 -0.603,0.505 -0.207,0.181 -0.401,0.36 -0.592,0.551 -0.196,0.216 -0.396,0.434 -0.579,0.66"
         id="path159"
         style="fill:#00a0e9" />
      <path
         d="m 446.056,69.986 c 3.208,-6.226 6.858,-10.628 10.961,-13.192 3.704,-2.294 7.943,-3.194 12.74,-2.688 2.495,0.259 5.305,0.938 8.432,2.031 -0.102,-1.902 0.3,-3.762 1.203,-5.578 1.44,-2.937 3.795,-4.89 7.066,-5.873 3.262,-0.987 6.465,-0.688 9.626,0.877 3.142,1.582 5.312,3.963 6.497,7.135 0.628,1.675 0.891,3.3 0.801,4.906 1.191,-0.997 2.612,-1.749 4.272,-2.249 3.261,-0.987 6.463,-0.69 9.626,0.876 1.936,0.968 3.498,2.245 4.682,3.811 0.748,0.992 1.355,2.096 1.815,3.325 1.208,3.182 1.073,6.253 -0.372,9.201 -1.15,2.325 -2.88,4.041 -5.155,5.131 3.541,2.611 6.288,5.201 8.247,7.759 2.498,3.23 3.93,6.762 4.288,10.582 0.504,5.219 -0.979,10.984 -4.463,17.292 -2.026,3.673 -5.013,6.625 -8.937,8.876 -3.808,2.156 -8.236,3.496 -13.285,4.006 -10.692,1.071 -21.59,-1.382 -32.67,-7.353 -11.102,-5.98 -19.118,-13.745 -24.052,-23.295 -2.351,-4.505 -3.657,-8.947 -3.92,-13.3 -0.264,-4.5 0.595,-8.597 2.598,-12.28"
         id="path161"
         style="fill:#00a0e9" />
      <path
         d="m 455.32,57.159 c 3.657,-2.527 7.7,-3.806 12.144,-3.842 4.441,-0.036 7.734,0.701 9.898,2.225 -0.006,-1.969 0.623,-4.078 1.903,-6.335 1.281,-2.256 3.161,-3.824 5.636,-4.723 2.485,-0.894 4.559,-1.298 6.219,-1.209 1.66,0.088 3.324,0.51 4.962,1.271 1.655,0.753 3.061,1.708 4.219,2.836 1.159,1.129 1.966,2.266 2.433,3.416 0.471,1.14 0.795,2.216 0.974,3.229 0.227,1.302 0.351,2.037 0.399,2.205 0.924,-0.47 1.652,-0.825 2.2,-1.07 0.959,-0.455 1.941,-0.78 2.947,-1.002 1.124,-0.251 2.257,-0.337 3.411,-0.281 1.428,0.068 2.922,0.512 4.468,1.299 2.056,1.062 3.757,2.357 5.104,3.915 0.483,0.556 0.992,1.296 1.513,2.23 0.512,0.889 0.881,1.677 1.11,2.352 0.471,1.299 0.657,2.757 0.545,4.381 -0.101,1.627 -0.643,3.414 -1.596,5.343 -0.953,1.929 -2.514,3.502 -4.684,4.72 3.502,2.112 6.382,4.798 8.629,8.055 2.256,3.26 3.497,7.112 3.72,11.555 0.224,4.443 -0.997,9.132 -3.676,14.074 -2.677,4.931 -5.96,8.543 -9.842,10.814 -3.882,2.271 -9.824,3.799 -17.81,4.58 -7.982,0.77 -17.595,-1.906 -28.815,-8.044 -11.22,-6.138 -18.768,-12.79 -22.628,-19.966 -3.847,-7.169 -5.856,-12.93 -6.02,-17.294 -0.163,-4.364 0.996,-8.945 3.454,-13.743 2.471,-4.793 5.537,-8.46 9.183,-10.991 z"
         id="path163"
         style="fill:none;stroke:#00489c;stroke-width:1.96500003;stroke-linecap:round;stroke-miterlimit:10" />
      <path
         d="m 479.392,50.559 c 1.441,-2.937 3.794,-4.89 7.066,-5.873 3.262,-0.986 6.463,-0.688 9.627,0.877 3.141,1.582 5.311,3.963 6.496,7.136 0.627,1.674 0.891,3.299 0.801,4.905 1.191,-0.997 2.613,-1.749 4.273,-2.249 3.26,-0.987 6.463,-0.69 9.625,0.876 3.141,1.583 5.312,3.963 6.496,7.136 1.209,3.182 1.073,6.254 -0.371,9.201 -1.473,2.949 -3.832,4.914 -7.099,5.885 -3.269,0.971 -6.479,0.668 -9.632,-0.892 -3.141,-1.556 -5.311,-3.936 -6.491,-7.12 -0.628,-1.675 -0.892,-3.299 -0.789,-4.901 -1.19,0.998 -2.625,1.744 -4.284,2.244 -3.267,0.972 -6.479,0.669 -9.632,-0.891 -3.142,-1.556 -5.312,-3.937 -6.491,-7.121 -1.203,-3.193 -1.068,-6.265 0.405,-9.213"
         id="path165"
         style="fill:#f3f3f3" />
      <path
         d="m 498.564,59.742 c -0.917,-1.054 -1.916,-1.77 -2.996,-2.149 -1.233,-0.406 -2.528,-0.345 -3.881,0.196 -0.306,0.123 -0.597,0.13 -0.892,0.013 -0.276,-0.138 -0.476,-0.357 -0.596,-0.657 -0.113,-0.282 -0.109,-0.58 0.008,-0.877 0.117,-0.298 0.328,-0.508 0.631,-0.619 1.91,-0.779 3.723,-0.848 5.453,-0.226 1.485,0.506 2.877,1.497 4.15,2.96 0.381,0.445 0.727,0.919 1.039,1.421 0.248,0.398 0.375,0.605 0.387,0.609 0.135,0.292 0.157,0.583 0.055,0.873 -0.094,0.306 -0.276,0.54 -0.553,0.686 -0.269,0.163 -0.58,0.19 -0.906,0.089 -0.307,-0.121 -0.528,-0.308 -0.655,-0.555 l 0.009,-0.024 c -0.525,-0.82 -0.945,-1.403 -1.253,-1.74"
         id="path167" />
      <path
         d="m 508.257,69.92 c -0.881,-1.084 -1.854,-1.835 -2.92,-2.252 -1.219,-0.448 -2.517,-0.434 -3.887,0.061 -0.309,0.112 -0.6,0.108 -0.893,-0.019 -0.271,-0.148 -0.463,-0.373 -0.571,-0.677 -0.103,-0.287 -0.088,-0.583 0.039,-0.877 0.127,-0.293 0.346,-0.496 0.651,-0.596 1.936,-0.712 3.75,-0.718 5.459,-0.036 1.467,0.559 2.82,1.596 4.043,3.103 0.365,0.458 0.695,0.944 0.99,1.457 0.232,0.406 0.353,0.618 0.363,0.622 0.126,0.296 0.137,0.589 0.025,0.875 -0.105,0.302 -0.295,0.529 -0.576,0.667 -0.275,0.152 -0.585,0.169 -0.909,0.056 -0.302,-0.132 -0.519,-0.326 -0.636,-0.578 l 0.01,-0.024 c -0.494,-0.838 -0.895,-1.432 -1.188,-1.782"
         id="path169" />
      <path
         d="m 462.57,68.556 1.825,-3.095 c 6.389,7.885 17.17,15.004 32.354,21.336 4.737,2.003 9.637,3.786 14.709,5.366 l 6.142,1.801 c -3.232,11.081 -11.828,15.081 -25.808,11.988 -6.988,-1.537 -13.646,-4.2 -19.983,-7.994 -8.771,-5.921 -12.642,-13.105 -11.607,-21.553 0.316,-2.631 1.108,-5.253 2.368,-7.849"
         id="path171" />
      <path
         d="m 419.311,120.083 c 6.945,-5.343 14.422,-11.707 22.416,-19.083 0.399,-0.361 3.338,-2.664 8.794,-6.889 0.057,0.06 0.111,0.121 0.156,0.178 0.553,0.933 1.039,1.695 1.458,2.288 0.882,1.242 1.932,2.457 3.184,3.628 1.511,1.323 2.666,2.327 3.461,3.036 1.905,1.67 4.888,3.749 8.951,6.238 4.329,2.656 8.731,5.051 13.209,7.21 l 4.183,1.589 c 3.698,1.234 6.465,2.048 8.323,2.451 1.589,0.248 2.775,0.449 3.563,0.589 1.443,0.247 2.543,0.402 3.287,0.447 0.637,2.201 1.156,4.159 1.566,5.88 3.572,15.383 4.166,28.952 1.777,40.678 -3.072,14.911 -10.807,24.372 -23.211,28.379 -15.15,4.895 -36.644,1.296 -64.472,-10.795 -5.455,-2.36 -9.637,-6.196 -12.557,-11.525 -2.799,-5.125 -4.112,-10.947 -3.917,-17.486 0.177,-6.664 1.898,-13.135 5.144,-19.435 3.502,-6.73 8.396,-12.523 14.685,-17.378"
         id="path173"
         style="fill:#00a0e9" />
    </g>
  </g>
</svg>
