<?xml version="1.0" encoding="UTF-8" standalone="no"?>
<!-- Created with Inkscape (http://www.inkscape.org/) -->

<svg
   xmlns:dc="http://purl.org/dc/elements/1.1/"
   xmlns:cc="http://creativecommons.org/ns#"
   xmlns:rdf="http://www.w3.org/1999/02/22-rdf-syntax-ns#"
   xmlns:svg="http://www.w3.org/2000/svg"
   xmlns="http://www.w3.org/2000/svg"
   version="1.1"
   width="195"
   height="235"
   id="svg4502">
  <defs
     id="defs4504" />
  <metadata
     id="metadata4507">
    <rdf:RDF>
      <cc:Work
         rdf:about="">
        <dc:format>image/svg+xml</dc:format>
        <dc:type
           rdf:resource="http://purl.org/dc/dcmitype/StillImage" />
        <dc:title></dc:title>
      </cc:Work>
    </rdf:RDF>
  </metadata>
  <g
     transform="translate(0,-245)"
     id="layer1">
    <g
       transform="translate(-579.03965,-266.27496)"
       id="g909">
      <path
         d="m 644.848,561.469 c -4.025,17.158 13.227,35.844 38.526,41.738 25.304,5.891 48.956,-3.273 53.102,-20.398 6.714,-27.754 -13.497,-33.324 -38.8,-39.215 -25.303,-5.891 -46.588,-11.688 -52.828,17.875"
         id="path911"
         style="fill:#00a0e9" />
      <path
         d="m 644.848,561.469 c -4.025,17.158 13.227,35.844 38.526,41.738 25.304,5.891 48.956,-3.273 53.102,-20.398 6.714,-27.754 -13.497,-33.324 -38.8,-39.215 -25.303,-5.891 -46.588,-11.688 -52.828,17.875"
         id="path913"
         style="fill:none;stroke:#00499d;stroke-width:3.95099998" />
      <path
         d="m 697.424,586.908 c 14.853,11.141 70.49,130.758 -61.545,99.232 -24.382,-5.822 -31.313,-42.381 -8.421,-67.447 37.396,-40.939 17.699,-40.027 69.966,-31.785"
         id="path915"
         style="fill:#00a0e9" />
      <path
         d="m 697.424,586.908 c 14.853,11.141 70.49,130.758 -61.545,99.232 -24.382,-5.822 -31.313,-42.381 -8.421,-67.447 37.396,-40.939 17.699,-40.027 69.966,-31.785"
         id="path917"
         style="fill:none;stroke:#00499d;stroke-width:3.95099998" />
      <path
         d="m 735.326,662.027 c -1.539,0.305 -11.054,14.916 -6.294,19.506 3.362,3.238 8.616,-2.625 10.155,-4.648 -0.859,1.785 -0.367,13.793 3.054,14.643 7.832,1.945 8.439,-8.555 8.674,-16.062 0.456,2.37 0.118,13.498 4.311,12.735 7.621,-0.362 6.684,-14.916 5.358,-16.33 1.452,2.596 0.858,10.318 7.96,8.387 4.347,-1.184 0.333,-26.271 -23.382,-24.281"
         id="path919"
         style="fill:#00a0e9" />
      <path
         d="m 735.326,662.027 c -1.539,0.305 -11.054,14.916 -6.294,19.506 3.362,3.238 8.616,-2.625 10.155,-4.648 -0.859,1.785 -0.367,13.793 3.054,14.643 7.832,1.945 8.439,-8.555 8.674,-16.062 0.456,2.37 0.118,13.498 4.311,12.735 7.621,-0.362 6.684,-14.916 5.358,-16.33 1.452,2.596 0.858,10.318 7.96,8.387 4.347,-1.184 0.333,-26.271 -23.382,-24.281"
         id="path921"
         style="fill:none;stroke:#00499d;stroke-width:3.95099998" />
      <path
         d="m 754.556,663.311 c -1.408,-10.748 -5.157,-19.756 -9.983,-26.904 -4.825,-7.162 -10.648,-12.479 -16.187,-16.369 -11.105,-7.766 -21.064,-10.057 -21.846,-10.258 h -0.002 l -4.51,19.596 -0.045,0.178 c 0.068,0.016 0.207,0.051 0.404,0.107 0.396,0.111 1.036,0.305 1.863,0.592 1.656,0.568 4.061,1.516 6.771,2.928 5.442,2.83 11.972,7.485 16.718,14.559 3.176,4.736 5.675,10.562 6.702,18.234 l 20.115,-2.663 z"
         id="path923"
         style="fill:#00a0e9" />
      <path
         d="m 754.556,663.311 c -1.408,-10.748 -5.157,-19.756 -9.983,-26.904 -4.825,-7.162 -10.648,-12.479 -16.187,-16.369 -11.105,-7.766 -21.064,-10.057 -21.846,-10.258 h -0.002 l -4.51,19.596 -0.045,0.178 c 0.068,0.016 0.207,0.051 0.404,0.107 0.396,0.111 1.036,0.305 1.863,0.592 1.656,0.568 4.061,1.516 6.771,2.928 5.442,2.83 11.972,7.485 16.718,14.559 3.176,4.736 5.675,10.562 6.702,18.234 l 20.115,-2.663 z"
         id="path925"
         style="fill:none;stroke:#00499d;stroke-width:3.95099998" />
      <path
         d="m 619.02,567.072 c 1.505,-0.453 9.575,-15.906 4.396,-20.02 -3.657,-2.902 -8.325,3.439 -9.663,5.602 0.684,-1.861 -0.958,-13.766 -4.443,-14.283 -7.982,-1.184 -7.58,9.324 -7.095,16.822 -0.681,-2.318 -1.411,-13.424 -5.511,-12.266 -7.553,1.092 -5.224,15.488 -3.77,16.77 -1.693,-2.445 -1.843,-10.189 -8.725,-7.586 -4.215,1.596 2.188,26.184 25.603,21.926"
         id="path927"
         style="fill:#00a0e9" />
      <path
         d="m 619.02,567.072 c 1.505,-0.453 9.575,-15.906 4.396,-20.02 -3.657,-2.902 -8.325,3.439 -9.663,5.602 0.684,-1.861 -0.958,-13.766 -4.443,-14.283 -7.982,-1.184 -7.58,9.324 -7.095,16.822 -0.681,-2.318 -1.411,-13.424 -5.511,-12.266 -7.553,1.092 -5.224,15.488 -3.77,16.77 -1.693,-2.445 -1.843,-10.189 -8.725,-7.586 -4.215,1.596 2.188,26.184 25.603,21.926"
         id="path929"
         style="fill:none;stroke:#00499d;stroke-width:3.95099998" />
      <path
         d="m 627.605,580.15 c 3.466,4.334 7.552,7.561 11.592,9.955 7.777,4.645 15.394,5.997 16.122,6.094 l -2.631,20.119 c -0.604,-0.084 -6.444,-0.877 -14.314,-4.051 -7.842,-3.18 -17.846,-8.797 -26.099,-18.807 -5.49,-6.652 -10.083,-15.26 -12.519,-25.82 l 19.767,-4.58 c 1.704,7.303 4.618,12.743 8.082,17.09 m 27.759,16.057 c 0.004,-0.002 0.006,-0.002 0.006,-0.002 v 0.002 l -0.486,3.328 0.436,-3.336 c 0.026,0.004 0.037,0.006 0.044,0.008"
         id="path931"
         style="fill:#00a0e9" />
      <path
         d="m 627.605,580.15 c 3.466,4.334 7.552,7.561 11.592,9.955 7.777,4.645 15.394,5.997 16.122,6.094 l -2.631,20.119 c -0.604,-0.084 -6.444,-0.877 -14.314,-4.051 -7.842,-3.18 -17.846,-8.797 -26.099,-18.807 -5.49,-6.652 -10.083,-15.26 -12.519,-25.82 l 19.767,-4.58 c 1.704,7.303 4.618,12.743 8.082,17.09 z m 27.714,16.049 m 0.045,0.008 c 0.004,-0.002 0.006,-0.002 0.006,-0.002 v 0.002 l -0.486,3.328 0.436,-3.336 c 0.026,0.004 0.037,0.006 0.044,0.008 z"
         id="path933"
         style="fill:none;stroke:#00499d;stroke-width:3.95099998" />
      <path
         d="m 644.771,685.016 c -0.771,0.764 -6.713,25.783 -7.462,27.854 -19.574,-0.105 -32.562,14.535 -28.816,17.484 13.274,10.447 53.758,-2.562 55.174,-4.225 0.812,-0.949 0.908,-2.705 1.085,-3.949 0.337,-2.402 -1.606,-31.213 -1.325,-33.619"
         id="path935"
         style="fill:#00a0e9" />
      <path
         d="m 644.771,685.016 c -0.771,0.764 -6.713,25.783 -7.462,27.854 -19.574,-0.105 -32.562,14.535 -28.816,17.484 13.274,10.447 53.758,-2.562 55.174,-4.225 0.812,-0.949 0.908,-2.705 1.085,-3.949 0.337,-2.402 -1.606,-31.213 -1.325,-33.619"
         id="path937"
         style="fill:none;stroke:#00499d;stroke-width:3.95099998" />
      <path
         d="m 689.363,683.215 c 0.767,0.766 6.61,25.812 7.352,27.881 19.576,-0.025 32.505,14.666 28.747,17.6 -13.314,10.396 -53.746,-2.777 -55.158,-4.443 -0.808,-0.953 -0.897,-2.709 -1.067,-3.955 -0.328,-2.402 1.729,-31.203 1.459,-33.615"
         id="path939"
         style="fill:#00a0e9" />
      <path
         d="m 689.363,683.215 c 0.767,0.766 6.61,25.812 7.352,27.881 19.576,-0.025 32.505,14.666 28.747,17.6 -13.314,10.396 -53.746,-2.777 -55.158,-4.443 -0.808,-0.953 -0.897,-2.709 -1.067,-3.955 -0.328,-2.402 1.729,-31.203 1.459,-33.615"
         id="path941"
         style="fill:none;stroke:#00499d;stroke-width:3.95099998" />
      <path
         d="m 697.424,586.908 c 14.853,11.141 70.49,130.758 -61.545,99.232 -24.382,-5.822 -31.313,-42.381 -8.421,-67.447 37.396,-40.939 17.699,-40.027 69.966,-31.785"
         id="path943"
         style="fill:#00a0e9" />
      <path
         d="m 697.948,538.205 c -1.543,6.604 2.93,13.293 9.993,14.943 7.067,1.65 14.043,-2.365 15.584,-8.967 1.545,-6.605 -2.93,-13.295 -9.995,-14.945 -7.062,-1.65 -14.039,2.364 -15.582,8.969"
         id="path945"
         style="fill:#00a0e9" />
      <path
         d="m 697.948,538.205 c -1.543,6.604 2.93,13.293 9.993,14.943 7.067,1.65 14.043,-2.365 15.584,-8.967 1.545,-6.605 -2.93,-13.295 -9.995,-14.945 -7.062,-1.65 -14.039,2.364 -15.582,8.969"
         id="path947"
         style="fill:none;stroke:#00499d;stroke-width:3.95099998" />
      <path
         d="m 674.157,532.514 c -1.544,6.602 2.933,13.293 9.995,14.941 7.063,1.65 14.041,-2.363 15.582,-8.967 1.545,-6.602 -2.931,-13.295 -9.993,-14.945 -7.062,-1.648 -14.041,2.367 -15.584,8.971"
         id="path949"
         style="fill:#00a0e9" />
      <path
         d="m 674.157,532.514 c -1.544,6.602 2.933,13.293 9.995,14.941 7.063,1.65 14.041,-2.363 15.582,-8.967 1.545,-6.602 -2.931,-13.295 -9.993,-14.945 -7.062,-1.648 -14.041,2.367 -15.584,8.971"
         id="path951"
         style="fill:none;stroke:#00499d;stroke-width:3.95099998" />
      <path
         d="m 644.848,561.469 c -4.025,17.158 13.227,35.844 38.526,41.738 25.304,5.891 48.956,-3.273 53.102,-20.398 6.714,-27.754 -13.497,-33.324 -38.8,-39.215 -25.303,-5.891 -46.588,-11.688 -52.828,17.875"
         id="path953"
         style="fill:#00a0e9" />
      <path
         d="m 730.56,567.365 c 0,0 -49.823,1.146 -73.087,-21.137 0,0 -9.218,22.741 20.243,35.553 0,0 38.785,17.594 52.844,-14.416"
         id="path955" />
      <path
         d="m 697.948,538.205 c -1.543,6.604 2.93,13.293 9.993,14.943 7.067,1.65 14.043,-2.365 15.584,-8.967 1.545,-6.605 -2.93,-13.295 -9.995,-14.945 -7.062,-1.65 -14.039,2.364 -15.582,8.969"
         id="path957"
         style="fill:#ffffff" />
      <path
         d="m 674.157,532.514 c -1.544,6.602 2.933,13.293 9.995,14.941 7.063,1.65 14.041,-2.363 15.582,-8.967 1.545,-6.602 -2.931,-13.295 -9.993,-14.945 -7.062,-1.648 -14.041,2.367 -15.584,8.971"
         id="path959"
         style="fill:#ffffff" />
      <path
         d="m 701.557,537.072 c -0.249,2.805 1.819,5.283 4.622,5.533 2.803,0.252 5.281,-1.816 5.533,-4.623 0.25,-2.803 -1.819,-5.279 -4.622,-5.531 -2.806,-0.25 -5.282,1.819 -5.533,4.621"
         id="path961" />
      <path
         d="m 685.834,539.131 c -0.25,2.805 1.819,5.281 4.624,5.535 2.804,0.248 5.28,-1.818 5.53,-4.625 0.253,-2.805 -1.817,-5.281 -4.622,-5.533 -2.803,-0.25 -5.28,1.82 -5.532,4.623"
         id="path963" />
      <path
         d="m 735.326,662.027 c -1.539,0.305 -11.054,14.916 -6.294,19.506 3.362,3.238 8.616,-2.625 10.155,-4.648 -0.859,1.785 -0.367,13.793 3.054,14.643 7.832,1.945 8.439,-8.555 8.674,-16.062 0.456,2.37 0.118,13.498 4.311,12.735 7.621,-0.362 6.684,-14.916 5.358,-16.33 1.452,2.596 0.858,10.318 7.96,8.387 4.347,-1.184 0.333,-26.271 -23.382,-24.281"
         id="path965"
         style="fill:#00a0e9" />
      <path
         d="m 754.556,663.311 c -1.408,-10.748 -5.157,-19.756 -9.983,-26.904 -4.825,-7.162 -10.648,-12.479 -16.187,-16.369 -11.105,-7.766 -21.064,-10.057 -21.846,-10.258 h -0.002 l -4.51,19.596 -0.045,0.178 c 0.068,0.016 0.207,0.051 0.404,0.107 0.396,0.111 1.036,0.305 1.863,0.592 1.656,0.568 4.061,1.516 6.771,2.928 5.442,2.83 11.972,7.485 16.718,14.559 3.176,4.736 5.675,10.562 6.702,18.234 l 20.115,-2.663 z"
         id="path967"
         style="fill:#00a0e9" />
      <path
         d="m 619.02,567.072 c 1.505,-0.453 9.575,-15.906 4.396,-20.02 -3.657,-2.902 -8.325,3.439 -9.663,5.602 0.684,-1.861 -0.958,-13.766 -4.443,-14.283 -7.982,-1.184 -7.58,9.324 -7.095,16.822 -0.681,-2.318 -1.411,-13.424 -5.511,-12.266 -7.553,1.092 -5.224,15.488 -3.77,16.77 -1.693,-2.445 -1.843,-10.189 -8.725,-7.586 -4.215,1.596 2.188,26.184 25.603,21.926"
         id="path969"
         style="fill:#00a0e9" />
      <path
         d="m 627.605,580.15 c 3.466,4.334 7.552,7.561 11.592,9.955 7.777,4.645 15.394,5.997 16.122,6.094 l -2.631,20.119 c -0.604,-0.084 -6.444,-0.877 -14.314,-4.051 -7.842,-3.18 -17.846,-8.797 -26.099,-18.807 -5.49,-6.652 -10.083,-15.26 -12.519,-25.82 l 19.767,-4.58 c 1.704,7.303 4.618,12.743 8.082,17.09 m 27.759,16.057 c 0.004,-0.002 0.006,-0.002 0.006,-0.002 v 0.002 l -0.486,3.328 0.436,-3.336 c 0.026,0.004 0.037,0.006 0.044,0.008"
         id="path971"
         style="fill:#00a0e9" />
      <path
         d="m 644.771,685.016 c -0.771,0.764 -6.713,25.783 -7.462,27.854 -19.574,-0.105 -32.562,14.535 -28.816,17.484 13.274,10.447 53.758,-2.562 55.174,-4.225 0.812,-0.949 0.908,-2.705 1.085,-3.949 0.337,-2.402 -1.606,-31.213 -1.325,-33.619"
         id="path973"
         style="fill:#00a0e9" />
      <path
         d="m 689.363,683.215 c 0.767,0.766 6.61,25.812 7.352,27.881 19.576,-0.025 32.505,14.666 28.747,17.6 -13.314,10.396 -53.746,-2.777 -55.158,-4.443 -0.808,-0.953 -0.897,-2.709 -1.067,-3.955 -0.328,-2.402 1.729,-31.203 1.459,-33.615"
         id="path975"
         style="fill:#00a0e9" />
    </g>
  </g>
</svg>
