<?xml version="1.0" encoding="UTF-8" standalone="no"?>
<!-- Created with Inkscape (http://www.inkscape.org/) -->

<svg
   xmlns:dc="http://purl.org/dc/elements/1.1/"
   xmlns:cc="http://creativecommons.org/ns#"
   xmlns:rdf="http://www.w3.org/1999/02/22-rdf-syntax-ns#"
   xmlns:svg="http://www.w3.org/2000/svg"
   xmlns="http://www.w3.org/2000/svg"
   version="1.1"
   width="195"
   height="235"
   id="svg4502">
  <defs
     id="defs4504" />
  <metadata
     id="metadata4507">
    <rdf:RDF>
      <cc:Work
         rdf:about="">
        <dc:format>image/svg+xml</dc:format>
        <dc:type
           rdf:resource="http://purl.org/dc/dcmitype/StillImage" />
        <dc:title></dc:title>
      </cc:Work>
    </rdf:RDF>
  </metadata>
  <g
     transform="translate(0,-245)"
     id="layer1">
    <g
       transform="translate(-587.20773,-19.365743)"
       id="g701">
      <polygon
         points="736.617,419.482 736.733,419.875 737.129,419.875 737.01,419.482 "
         id="polygon703"
         style="fill:#d3d4d4" />
      <path
         d="m 708.017,386.891 0.004,0.01 c 1.023,0.47 2.059,0.935 3.085,1.377 2.796,1.236 5.688,2.195 8.646,2.88 3.922,1.097 8.006,1.602 12.225,1.534 0.862,-0.012 1.738,-0.03 2.591,-0.066 4.329,-0.165 8.289,-1.448 11.91,-3.847 0.012,-0.005 0.038,-0.016 0.059,-0.038 0.977,-0.746 1.88,-1.591 2.705,-2.547 2.479,-2.858 3.325,-5.977 2.537,-9.359 l 0.004,0.012 c -0.368,-1.683 -0.895,-3.31 -1.549,-4.882 -0.746,-1.785 -1.75,-3.419 -3.024,-4.909 -0.019,-0.007 -0.019,-0.007 -0.022,-0.017 -3.086,-3.847 -8.154,-8.476 -15.195,-13.88 -0.021,-0.017 -0.044,-0.033 -0.068,-0.05 l -9.427,-6.04 c -0.232,-0.15 -0.509,-0.19 -0.808,-0.142 -0.294,0.061 -0.537,0.204 -0.729,0.43 -0.192,0.227 -0.28,0.487 -0.246,0.748 0.022,0.266 0.158,0.472 0.39,0.622 l 0.019,0.007 9.37,6.011 c 6.901,5.292 11.864,9.821 14.902,13.583 0.004,0.012 0.004,0.012 0.009,0.023 1.171,1.352 2.081,2.843 2.764,4.481 0.619,1.485 1.104,3.013 1.458,4.595 l 0.007,0.01 c 0.644,2.761 -0.035,5.31 -2.069,7.647 -0.71,0.829 -1.481,1.554 -2.323,2.188 l 0.073,-0.044 c -3.221,2.121 -6.754,3.263 -10.601,3.418 -0.853,0.036 -1.697,0.055 -2.547,0.062 -4.006,0.068 -7.853,-0.419 -11.565,-1.449 -0.019,-0.006 -0.029,0 -0.05,-0.006 -2.852,-0.66 -5.62,-1.581 -8.308,-2.773 l -0.018,-0.004 c -1.013,-0.449 -2.026,-0.896 -3.05,-1.365 l 0.018,0.005 -6.688,-3.149 c -0.019,-0.007 -0.034,-0.013 -0.052,-0.018 -0.239,-0.096 -0.502,-0.102 -0.774,-0.026 -0.296,0.089 -0.531,0.255 -0.688,0.491 -0.163,0.255 -0.208,0.511 -0.147,0.759 0.066,0.261 0.238,0.451 0.485,0.568 l 6.688,3.151 h -10e-4 z"
         id="path705"
         style="fill:#003d91" />
      <path
         d="m 702.452,381.947 c 0.018,0.005 0.033,0.012 0.053,0.018 l 6.688,3.148 -0.02,-0.004 c 1.025,0.468 2.038,0.916 3.052,1.363 l 0.018,0.007 c 2.686,1.191 5.455,2.112 8.309,2.771 0.019,0.007 0.03,10e-4 0.048,0.007 3.714,1.03 7.56,1.518 11.565,1.449 0.852,-0.008 1.695,-0.026 2.546,-0.062 3.848,-0.155 7.38,-1.296 10.602,-3.418 l -0.072,0.044 c 0.84,-0.634 1.612,-1.358 2.323,-2.187 2.034,-2.34 2.712,-4.888 2.067,-7.648 l -0.005,-0.01 c -0.356,-1.582 -0.84,-3.109 -1.458,-4.595 -0.684,-1.639 -1.594,-3.129 -2.765,-4.481 -0.006,-0.012 -0.006,-0.012 -0.01,-0.023 -3.037,-3.762 -8,-8.291 -14.9,-13.583 l -9.373,-6.012 -11.274,13.612 c 0.027,0.028 0.062,0.04 0.087,0.056 l 22.459,18.096 c 0.215,0.184 0.311,0.407 0.319,0.678 -0.002,0.277 -0.116,0.51 -0.332,0.721 -0.216,0.21 -0.467,0.33 -0.771,0.367 -0.308,0.028 -0.555,-0.051 -0.765,-0.226 l -19.368,-15.591 -9.023,15.503 z"
         id="path707"
         style="fill:#00a0e9" />
      <path
         d="m 732.71,381.174 c -0.009,-0.271 -0.104,-0.494 -0.32,-0.678 L 709.931,362.4 c -0.024,-0.016 -0.059,-0.028 -0.087,-0.056 -0.19,-0.128 -0.424,-0.174 -0.688,-0.152 -0.303,0.038 -0.562,0.148 -0.776,0.357 -0.215,0.21 -0.326,0.455 -0.327,0.73 0.008,0.273 0.116,0.491 0.327,0.663 l 3.094,2.503 19.369,15.591 c 0.21,0.175 0.455,0.252 0.765,0.226 0.304,-0.037 0.556,-0.157 0.771,-0.367 0.215,-0.211 0.329,-0.444 0.331,-0.721"
         id="path709"
         style="fill:#003d91" />
      <path
         d="m 712.781,344.125 c -19.937,-2.092 -30.576,-3.167 -31.931,-3.252 -6.622,-0.366 -11.494,0.349 -14.624,2.145 -1.604,0.913 -3.309,2.328 -5.112,4.232 -1.212,1.272 -3.184,3.583 -5.919,6.945 -7.42,9.038 -14.478,16.97 -21.177,23.795 -6.054,6.173 -10.261,13.002 -12.596,20.476 -2.182,6.961 -2.549,13.787 -1.1,20.465 1.407,6.549 4.364,12.078 8.869,16.588 4.706,4.701 10.509,7.639 17.39,8.838 35.156,6.115 60.873,5.131 77.164,-2.984 0.817,-0.412 1.61,-0.824 2.38,-1.264 6.198,-3.963 10.748,-8.656 13.643,-14.055 2.545,-5.117 3.765,-11.082 3.676,-17.914 -0.126,-10.373 -3.089,-21.623 -8.862,-33.726 -1.015,-2.135 -2.119,-4.286 -3.308,-6.471 -1.111,-2.037 -2.253,-4.002 -3.427,-5.879 -2.126,-3.447 -4.353,-6.621 -6.646,-9.522 -3.341,-4.25 -6.139,-7.044 -8.42,-8.417"
         id="path711"
         style="fill:#00a0e9" />
      <path
         d="m 666.312,342.005 c -1.617,0.913 -3.36,2.338 -5.244,4.287 -1.36,1.415 -3.373,3.76 -6.066,7.05 -7.58,8.987 -14.65,16.727 -21.212,23.232 -6.533,6.48 -10.97,13.484 -13.306,20.982 -2.323,7.498 -2.737,14.641 -1.233,21.424 1.439,6.639 4.479,12.25 9.118,16.832 4.83,4.764 10.792,7.762 17.862,8.985 13.926,2.407 26.378,3.741 37.332,4.001 10.7,0.254 19.897,-0.518 27.617,-2.311 2.522,-0.594 4.572,-1.117 6.131,-1.602 2.081,-0.65 3.861,-1.35 5.355,-2.119 1.688,-0.869 3.255,-1.76 4.692,-2.66 6.248,-3.947 10.714,-8.57 13.389,-13.883 2.576,-4.848 3.568,-11.691 2.999,-20.52 -0.568,-8.813 -2.019,-16.18 -4.377,-22.096 -2.354,-5.919 -4.15,-10.104 -5.396,-12.572 -1.29,-2.548 -3.058,-5.69 -5.32,-9.412 -2.328,-3.83 -4.939,-7.287 -7.805,-10.382 -2.869,-3.068 -5.303,-5.775 -7.32,-8.12 -20.077,-2.102 -30.805,-3.197 -32.197,-3.285 -6.786,-0.375 -11.797,0.356 -15.019,2.169 l 0,0 z"
         id="path713"
         style="fill:none;stroke:#00489c;stroke-width:2.02900004;stroke-linecap:round;stroke-miterlimit:10" />
      <path
         d="m 679.66,470.736 0.037,0.076 c 6.595,2.088 13.862,3.887 21.826,5.418 16.045,3.07 27.565,3.188 34.575,0.348 2.158,-0.891 3.388,-2.01 3.705,-3.355 0.139,-0.902 -0.129,-2.07 -0.779,-3.518 -0.687,-1.512 -1.475,-2.604 -2.378,-3.301 -2.148,-1.611 -4.396,-2.816 -6.722,-3.639 -4.918,-1.725 -11.153,-2.506 -18.723,-2.346 h -0.102 l -3.306,-0.619 c -0.266,-0.064 -0.48,-0.203 -0.647,-0.432 -0.166,-0.242 -0.215,-0.494 -0.166,-0.762 0.037,-0.217 0.14,-0.383 0.278,-0.521 0.053,-0.051 0.102,-0.088 0.154,-0.127 0.24,-0.164 0.494,-0.217 0.761,-0.152 l 3.087,0.58 c 7.812,-0.146 14.265,0.674 19.335,2.459 2.527,0.875 4.941,2.193 7.269,3.932 1.156,0.85 2.161,2.209 3.014,4.088 0.878,1.941 1.186,3.516 0.918,4.723 -0.304,2.02 -1.939,3.635 -4.923,4.869 -7.239,3.018 -19.151,2.939 -35.73,-0.234 -8.192,-1.58 -15.675,-3.439 -22.447,-5.605 l -0.382,-0.113 -0.419,-0.775 c -0.141,-0.24 -0.167,-0.494 -0.09,-0.762 0.051,-0.191 0.14,-0.357 0.278,-0.471 0.064,-0.062 0.128,-0.102 0.204,-0.139 0.239,-0.141 0.495,-0.178 0.762,-0.102 0.267,0.074 0.471,0.238 0.611,0.48"
         id="path715"
         style="fill:#003d91" />
      <path
         d="m 679.697,470.812 -0.037,-0.076 c -0.14,-0.242 -0.343,-0.406 -0.608,-0.48 -0.269,-0.076 -0.521,-0.039 -0.764,0.102 -0.076,0.037 -0.14,0.076 -0.204,0.139 v -0.457 c -10e-4,-1.156 0.327,-2.336 1.001,-3.531 0.824,-1.475 2.067,-2.783 3.73,-3.93 4.379,-3 11.085,-4.506 20.114,-4.512 0.609,-0.002 1.372,0.074 2.3,0.213 0.24,0.037 0.456,0.074 0.66,0.127 0.472,-0.104 0.927,-0.205 1.372,-0.32 -0.141,0.141 -0.243,0.305 -0.28,0.521 -0.049,0.268 0,0.52 0.166,0.762 0.167,0.23 0.382,0.367 0.649,0.432 l 3.304,0.619 h 0.102 c 7.569,-0.16 13.805,0.621 18.725,2.346 2.323,0.822 4.571,2.027 6.72,3.639 0.903,0.697 1.691,1.789 2.378,3.301 0.65,1.447 0.918,2.615 0.779,3.518 -0.316,1.346 -1.545,2.465 -3.705,3.355 -7.009,2.84 -18.53,2.723 -34.574,-0.348 -7.965,-1.531 -15.232,-3.328 -21.826,-5.416 l -0.002,-0.004 z"
         id="path717"
         style="fill:#00a0e9" />
      <path
         d="m 678.459,434.654 c 0.164,-0.191 0.367,-0.305 0.609,-0.346 l 20.561,-3.447 c 0.241,-0.037 0.483,0 0.698,0.139 0.216,0.141 0.369,0.33 0.432,0.57 l 7.924,26.107 c 0.012,0.039 0.025,0.09 0.04,0.129 0.024,0.139 0.012,0.277 -0.026,0.418 -0.039,0.178 -0.126,0.33 -0.266,0.469 -0.141,0.143 -0.292,0.23 -0.484,0.268 l -0.442,0.104 c -0.103,0.023 -0.203,0.037 -0.304,0.025 h -0.091 c -0.114,-0.279 -0.268,-0.584 -0.433,-0.914 -0.063,-0.166 -0.154,-0.381 -0.268,-0.623 v -0.012 c 0.027,-0.041 0.051,-0.078 0.077,-0.115 l -7.401,-24.406 -18.847,3.156 -0.414,32.973 0.09,0.559 c -0.014,0.039 -0.014,0.062 -0.026,0.09 0.026,0.127 0.063,0.277 0.114,0.445 0.039,0.127 0.051,0.291 0.053,0.48 0,0.051 0,0.104 -0.013,0.152 h 0.024 c 0.013,-0.012 0.024,-0.023 0.038,-0.037 v 0.051 c 0.128,0.012 0.242,0.037 0.344,0.074 0.202,0.053 0.367,0.129 0.481,0.23 0.152,0.139 0.229,0.303 0.229,0.508 0,0.215 -0.024,0.342 -0.075,0.379 l -0.063,0.078 -0.457,0.076 c -0.166,-0.051 -0.318,-0.127 -0.457,-0.229 -0.09,-0.014 -0.179,-0.025 -0.243,-0.051 -0.037,-0.014 -0.076,-0.025 -0.114,-0.037 l -0.088,0.176 c 0,0.143 0.001,0.217 -0.013,0.256 -0.025,0.062 -0.088,0.115 -0.203,0.152 l -0.115,0.23 -0.431,-0.244 c -0.114,-0.012 -0.268,-0.037 -0.445,-0.049 -0.481,-0.115 -0.725,-0.316 -0.726,-0.609 v -0.012 l -0.215,-0.115 0.703,-36.402 c 10e-4,-0.241 0.078,-0.456 0.243,-0.646"
         id="path719"
         style="fill:#003d91" />
      <path
         d="m 680.002,470.242 c -0.051,-0.168 -0.088,-0.318 -0.114,-0.445 0.013,-0.027 0.013,-0.051 0.026,-0.088 l -0.09,-0.561 0.414,-32.973 18.847,-3.156 7.401,24.406 c -0.026,0.037 -0.05,0.076 -0.077,0.115 v 0.012 c 0.114,0.242 0.204,0.459 0.268,0.623 0.166,0.33 0.318,0.635 0.433,0.914 h 0.091 c 0,0.037 0,0.062 -0.012,0.102 0,0.014 0,0.025 -0.016,0.037 0.116,0.242 0.204,0.445 0.268,0.637 0.015,0.023 0.027,0.051 0.039,0.088 0.113,0.293 0.165,0.521 0.165,0.66 10e-4,0.215 -0.023,0.318 -0.089,0.291 l -0.076,-0.113 c -0.214,0.064 -0.468,-0.012 -0.735,-0.229 -0.142,0.268 -0.293,0.535 -0.484,0.801 -0.188,0.266 -0.38,0.535 -0.583,0.787 -1.027,1.348 -2.169,2.543 -3.412,3.6 -0.025,0.012 -0.051,0.039 -0.075,0.051 -3.033,2.531 -6.705,4.158 -10.984,4.887 -1.13,0.191 -2.258,0.346 -3.389,0.447 -2.072,0.193 -4.154,0.221 -6.225,0.107 l -0.661,-0.051 c -0.115,-0.1 -0.279,-0.176 -0.482,-0.229 -0.102,-0.037 -0.216,-0.062 -0.342,-0.074 v -0.053 c -0.013,0.016 -0.026,0.027 -0.04,0.039 h -0.024 c 0.013,-0.049 0.013,-0.102 0.013,-0.152 -0.002,-0.189 -0.015,-0.353 -0.055,-0.48"
         id="path721"
         style="fill:#00a0e9" />
      <path
         d="m 736.001,320.633 c -0.152,-3.741 -0.821,-7 -2.01,-9.763 -1.586,-3.653 -4.158,-6.604 -7.727,-8.841 -0.081,-0.054 -0.173,-0.111 -0.267,-0.167 -0.334,-0.206 -0.683,-0.413 -1.042,-0.611 -0.305,-0.161 -0.609,-0.322 -0.929,-0.472 0.134,-0.168 0.27,-0.336 0.391,-0.506 0.05,-0.055 0.09,-0.125 0.14,-0.181 0.02,-0.034 0.037,-0.069 0.069,-0.102 0.941,-1.355 1.559,-2.9 1.844,-4.61 l 0.009,-0.038 c 0.002,-0.013 0.002,-0.013 0.005,-0.025 -0.007,-0.039 0.004,-0.089 0.011,-0.127 0.016,-0.087 0.03,-0.161 0.035,-0.251 0.467,-3.34 -0.414,-6.369 -2.64,-9.098 -2.213,-2.728 -5.118,-4.324 -8.725,-4.816 -3.597,-0.465 -6.824,0.313 -9.671,2.337 -1.085,0.759 -1.998,1.63 -2.734,2.585 -0.459,-1.04 -1.08,-2.048 -1.862,-3.009 -2.216,-2.728 -5.12,-4.324 -8.725,-4.817 -2.302,-0.295 -4.456,-0.087 -6.462,0.64 -1.122,0.406 -2.184,0.977 -3.211,1.697 -2.545,1.798 -4.147,4.122 -4.794,6.976 -0.019,0.035 -0.023,0.06 -0.03,0.097 -0.074,0.321 -0.126,0.66 -0.179,0.997 -0.185,1.395 -0.144,2.73 0.126,4.02 0.011,0.014 0.006,0.039 0.015,0.066 0.005,0.04 0.024,0.07 0.031,0.109 0.005,0.04 0,0.064 0.005,0.104 0.002,0.194 -0.137,0.374 -0.432,0.512 -0.016,0.009 -0.043,0.017 -0.058,0.027 -0.042,0.017 -0.084,0.036 -0.126,0.053 -0.211,0.024 -0.435,0.047 -0.682,0.064 -0.193,0.002 -0.403,0.013 -0.624,0.023 -0.246,0.005 -0.518,0.005 -0.801,0.015 -0.038,-0.007 -0.063,-0.012 -0.103,-0.006 -5.833,-0.027 -10.669,0.6 -14.494,1.883 -0.097,0.021 -0.192,0.054 -0.289,0.087 -4.508,1.552 -8.088,4.236 -10.706,8.054 l -2.286,4.219 -1.982,6.839 -0.36,2.162 c -0.126,0.866 -0.244,1.758 -0.327,2.669 -0.102,1.078 -0.124,2.143 -0.067,3.197 0.087,1.988 0.435,3.95 1.043,5.908 0.373,1.218 0.841,2.416 1.425,3.621 1.929,4.027 4.848,7.714 8.761,11.061 1.141,0.978 2.346,1.903 3.585,2.77 l 12.202,6.315 c 4.742,1.7 9.903,2.824 15.492,3.384 l 25.745,-2.76 c 2.581,-0.9 5.049,-2.016 7.429,-3.355 0.1,-0.045 0.188,-0.106 0.276,-0.154 4.389,-2.477 7.895,-5.459 10.508,-8.97 1.808,-2.4 3.102,-4.926 3.902,-7.583 l 0.653,-2.621 c 0.099,-0.587 0.188,-1.189 0.25,-1.795 0.344,-2.809 0.478,-5.413 0.393,-7.813 z"
         id="path723"
         style="fill:#00a0e9" />
      <path
         d="m 736.232,330.666 c 0.354,-1.724 0.536,-3.712 0.552,-5.952 0.01,-1.61 -0.011,-2.928 -0.051,-3.941 -0.012,-0.402 -0.037,-0.754 -0.056,-1.055 l -0.438,-4.348 -1.051,-3.757 c -0.13,-0.335 -0.356,-0.828 -0.695,-1.498 -0.425,-0.816 -0.811,-1.494 -1.158,-2.038 -1.05,-1.592 -2.08,-2.883 -3.065,-3.869 -1.591,-1.604 -3.428,-2.778 -5.537,-3.553 0.806,-0.247 1.504,-1.196 2.06,-2.831 0.555,-1.634 0.861,-3.109 0.939,-4.408 0.08,-1.3 -0.112,-2.588 -0.578,-3.861 -0.466,-1.287 -1.226,-2.578 -2.263,-3.897 -1.037,-1.319 -2.314,-2.464 -3.831,-3.435 -0.864,-0.539 -1.768,-1.006 -2.727,-1.394 -1.738,-0.679 -3.536,-0.982 -5.402,-0.925 -1.448,0.021 -2.832,0.248 -4.162,0.665 -1.328,0.405 -2.836,1.304 -4.53,2.683 l -1.335,1.795 m 0.002,-0.001 c -0.345,-1.238 -0.798,-2.175 -1.333,-2.818 -0.533,-0.655 -1.091,-1.25 -1.659,-1.784 -0.568,-0.533 -1.425,-1.109 -2.574,-1.702 -1.15,-0.592 -2.556,-1.065 -4.233,-1.397 -1.677,-0.332 -3.117,-0.412 -4.32,-0.242 -1.207,0.171 -2.196,0.356 -2.949,0.587 -0.751,0.218 -1.563,0.565 -2.43,1.058 -0.878,0.478 -1.915,1.26 -3.126,2.331 -1.195,1.074 -2.109,2.357 -2.744,3.86 -0.631,1.49 -1.008,2.863 -1.113,4.093 -0.104,1.231 0.103,2.378 0.621,3.443 -0.311,0.006 -1.229,0.024 -2.737,0.034 -1.523,0.007 -2.769,0.053 -3.751,0.138 -0.983,0.083 -2.229,0.194 -3.742,0.357 -1.522,0.148 -3.224,0.483 -5.085,0.992 -1.874,0.507 -3.644,1.267 -5.292,2.281 -1.647,1 -3.189,2.189 -4.619,3.555 -1.436,1.376 -2.641,2.9 -3.605,4.585 -0.556,0.951 -1.039,1.942 -1.481,2.979 -0.747,1.765 -1.373,3.566 -1.866,5.418 -0.45,1.681 -0.784,3.37 -1.004,5.068 -0.245,1.899 -0.285,3.799 -0.122,5.725 0.177,1.98 0.545,3.918 1.096,5.827 0.523,1.787 1.245,3.484 2.157,5.062 0.835,1.434 1.75,2.795 2.742,4.079 1.205,1.583 2.54,3.047 4.01,4.397 1.383,1.267 2.863,2.427 4.434,3.459 1.099,0.724 2.795,1.692 5.101,2.916 l 8.54,3.955 c 1.513,0.662 3.071,1.139 4.679,1.432 l 8.549,1.535 c 0.857,0.163 2.162,0.219 3.902,0.15 l 11.174,-1.226 c 1.356,-0.155 2.709,-0.284 4.07,-0.399 1.98,-0.177 3.951,-0.447 5.935,-0.779 1.961,-0.349 3.865,-0.864 5.719,-1.529 1.573,-0.565 3.108,-1.239 4.598,-2.025 0.471,-0.233 1.024,-0.579 1.674,-1.009 0.649,-0.431 1.57,-1.069 2.756,-1.886 1.173,-0.821 2.324,-1.788 3.424,-2.893 1.102,-1.118 2.23,-2.373 3.358,-3.769 1.13,-1.397 2.073,-2.97 2.858,-4.728 0.788,-1.77 1.356,-3.609 1.719,-5.512"
         id="path725"
         style="fill:none;stroke:#00489c;stroke-width:2.02600002;stroke-linecap:round;stroke-miterlimit:10" />
      <path
         d="m 726.53,294.939 c 0.467,-3.34 -0.414,-6.369 -2.64,-9.098 -2.214,-2.728 -5.119,-4.324 -8.725,-4.817 -3.597,-0.464 -6.823,0.313 -9.671,2.337 -1.085,0.76 -1.998,1.631 -2.734,2.586 -0.459,-1.041 -1.08,-2.049 -1.862,-3.009 -2.216,-2.728 -5.12,-4.324 -8.725,-4.817 -3.599,-0.464 -6.826,0.313 -9.673,2.337 -2.871,2.019 -4.53,4.718 -5.003,8.07 -0.445,3.369 0.433,6.411 2.662,9.127 2.227,2.719 5.145,4.317 8.737,4.807 3.581,0.487 6.81,-0.291 9.659,-2.327 1.084,-0.76 1.997,-1.63 2.732,-2.585 0.459,1.04 1.081,2.048 1.864,3.008 2.228,2.718 5.146,4.317 8.737,4.807 3.581,0.487 6.81,-0.291 9.657,-2.326 2.878,-2.032 4.536,-4.732 4.985,-8.1"
         id="path727"
         style="fill:#f3f3f3" />
      <path
         d="m 700.677,290.597 c -0.651,-1.257 -1.633,-2.093 -2.978,-2.513 -1.343,-0.42 -2.626,-0.313 -3.878,0.313 -1.259,0.65 -2.094,1.636 -2.514,2.977 -0.42,1.343 -0.313,2.628 0.312,3.88 0.649,1.27 1.629,2.118 2.973,2.537 1.343,0.42 2.627,0.313 3.886,-0.337 1.27,-0.647 2.118,-1.629 2.537,-2.97 0.42,-1.344 0.312,-2.629 -0.338,-3.887"
         id="path729" />
      <path
         d="m 723.736,294.103 c -0.652,-1.259 -1.635,-2.094 -2.978,-2.514 -1.342,-0.419 -2.628,-0.313 -3.878,0.314 -1.259,0.65 -2.096,1.634 -2.514,2.977 -0.42,1.343 -0.313,2.627 0.313,3.879 0.646,1.271 1.626,2.118 2.969,2.538 1.345,0.419 2.628,0.312 3.886,-0.337 1.272,-0.649 2.12,-1.629 2.54,-2.972 0.419,-1.343 0.313,-2.628 -0.338,-3.885"
         id="path731" />
      <path
         d="m 727.568,319.103 c 2.039,-0.816 3.609,-1.582 4.703,-2.274 -10.561,4.156 -24.323,4.208 -41.299,0.167 -5.3,-1.269 -10.613,-2.875 -15.938,-4.811 l -6.377,-2.536 c 15.55,10.01 30.814,14.215 45.799,12.615 4.689,-0.508 9.052,-1.556 13.112,-3.161 l 0,0 z"
         id="path733" />
      <path
         d="m 649.918,477.801 0.039,0.078 c 6.594,2.09 13.859,3.887 21.826,5.416 16.045,3.072 27.565,3.188 34.573,0.348 2.157,-0.891 3.389,-2.008 3.708,-3.354 0.138,-0.902 -0.131,-2.072 -0.781,-3.52 -0.687,-1.51 -1.474,-2.602 -2.377,-3.301 -2.149,-1.609 -4.397,-2.814 -6.723,-3.637 -4.917,-1.725 -11.155,-2.506 -18.724,-2.348 h -0.102 l -3.303,-0.619 c -0.268,-0.062 -0.483,-0.201 -0.649,-0.43 -0.164,-0.242 -0.217,-0.494 -0.166,-0.762 0.039,-0.217 0.141,-0.383 0.28,-0.523 0.05,-0.049 0.101,-0.088 0.151,-0.125 0.242,-0.166 0.496,-0.219 0.763,-0.152 l 3.088,0.58 c 7.811,-0.146 14.264,0.674 19.334,2.459 2.527,0.875 4.94,2.193 7.267,3.932 1.157,0.85 2.163,2.207 3.015,4.086 0.878,1.941 1.184,3.518 0.918,4.725 -0.303,2.02 -1.94,3.635 -4.924,4.869 -7.234,3.016 -19.149,2.939 -35.728,-0.236 -8.196,-1.58 -15.678,-3.439 -22.449,-5.605 l -0.383,-0.113 -0.419,-0.773 c -0.139,-0.242 -0.166,-0.496 -0.089,-0.764 0.05,-0.189 0.139,-0.355 0.279,-0.469 0.062,-0.064 0.126,-0.104 0.204,-0.141 0.24,-0.139 0.493,-0.178 0.76,-0.102 0.269,0.076 0.473,0.241 0.612,0.481"
         id="path735"
         style="fill:#003d91" />
      <path
         d="m 649.957,477.879 -0.039,-0.078 c -0.139,-0.24 -0.343,-0.404 -0.61,-0.48 -0.266,-0.076 -0.52,-0.037 -0.76,0.102 -0.077,0.037 -0.142,0.076 -0.204,0.141 v -0.457 c -0.001,-1.156 0.327,-2.338 0.998,-3.531 0.826,-1.475 2.069,-2.783 3.732,-3.93 4.378,-3.002 11.085,-4.506 20.115,-4.514 0.61,0 1.371,0.074 2.299,0.213 0.242,0.037 0.458,0.074 0.661,0.127 0.468,-0.104 0.926,-0.205 1.37,-0.321 -0.139,0.142 -0.24,0.308 -0.278,0.524 -0.052,0.267 10e-4,0.52 0.166,0.762 0.165,0.229 0.381,0.367 0.648,0.43 l 3.303,0.619 h 0.102 c 7.569,-0.158 13.808,0.623 18.724,2.348 2.325,0.822 4.575,2.027 6.723,3.637 0.903,0.699 1.69,1.791 2.377,3.301 0.65,1.447 0.919,2.617 0.78,3.52 -0.318,1.346 -1.55,2.463 -3.707,3.355 -7.008,2.838 -18.528,2.723 -34.572,-0.35 -7.968,-1.531 -15.234,-3.328 -21.828,-5.418"
         id="path737"
         style="fill:#00a0e9" />
      <path
         d="m 648.718,441.719 c 0.165,-0.191 0.369,-0.305 0.609,-0.344 l 20.56,-3.447 c 0.241,-0.039 0.483,-0.002 0.699,0.139 0.217,0.139 0.369,0.33 0.433,0.568 l 7.924,26.109 c 0.013,0.038 0.025,0.088 0.038,0.127 0.025,0.141 0.015,0.277 -0.025,0.42 -0.037,0.176 -0.127,0.33 -0.266,0.469 -0.14,0.141 -0.292,0.23 -0.483,0.268 l -0.443,0.102 c -0.102,0.025 -0.202,0.039 -0.305,0.025 h -0.09 c -0.113,-0.277 -0.267,-0.581 -0.433,-0.914 -0.062,-0.166 -0.151,-0.381 -0.268,-0.621 v -0.012 c 0.025,-0.039 0.053,-0.078 0.076,-0.115 l -7.4,-24.406 -18.846,3.156 -0.416,32.973 0.09,0.559 c -0.012,0.037 -0.012,0.061 -0.026,0.09 0.026,0.125 0.064,0.277 0.115,0.443 0.039,0.127 0.051,0.293 0.051,0.482 0,0.049 0,0.102 -0.012,0.152 h 0.026 c 0.012,-0.012 0.025,-0.025 0.038,-0.037 v 0.049 c 0.126,0.014 0.24,0.037 0.343,0.076 0.202,0.051 0.368,0.128 0.482,0.229 0.151,0.139 0.229,0.305 0.229,0.508 10e-4,0.217 -0.023,0.342 -0.075,0.381 l -0.062,0.076 -0.457,0.076 c -0.167,-0.049 -0.318,-0.125 -0.459,-0.229 -0.088,-0.012 -0.178,-0.023 -0.241,-0.049 -0.037,-0.014 -0.076,-0.025 -0.114,-0.037 l -0.089,0.176 c 0,0.141 0,0.215 -0.012,0.256 -0.025,0.062 -0.09,0.113 -0.203,0.15 l -0.114,0.23 -0.434,-0.24 c -0.113,-0.016 -0.266,-0.039 -0.444,-0.053 -0.481,-0.113 -0.724,-0.316 -0.724,-0.607 v -0.014 l -0.217,-0.115 0.704,-36.402 c -10e-4,-0.241 0.076,-0.458 0.241,-0.647"
         id="path739"
         style="fill:#003d91" />
      <path
         d="m 650.261,477.307 c -0.05,-0.166 -0.089,-0.318 -0.115,-0.443 0.015,-0.029 0.015,-0.053 0.026,-0.09 l -0.09,-0.559 0.416,-32.972 18.846,-3.157 7.402,24.407 c -0.025,0.036 -0.053,0.075 -0.076,0.114 v 0.012 c 0.114,0.242 0.203,0.458 0.267,0.621 0.165,0.332 0.318,0.637 0.432,0.914 h 0.09 c 0,0.039 0,0.064 -0.011,0.104 0,0.012 0,0.025 -0.015,0.037 0.114,0.242 0.204,0.445 0.268,0.635 0.013,0.025 0.025,0.051 0.037,0.088 0.115,0.293 0.168,0.521 0.168,0.662 0,0.215 -0.026,0.318 -0.09,0.291 l -0.075,-0.113 c -0.217,0.062 -0.472,-0.014 -0.739,-0.229 -0.139,0.266 -0.29,0.533 -0.479,0.801 -0.191,0.266 -0.382,0.533 -0.585,0.787 -1.027,1.348 -2.168,2.543 -3.413,3.598 -0.026,0.013 -0.051,0.041 -0.076,0.054 -3.033,2.528 -6.702,4.157 -10.982,4.886 -1.13,0.191 -2.261,0.346 -3.391,0.448 -2.07,0.192 -4.153,0.218 -6.223,0.106 l -0.662,-0.051 c -0.114,-0.102 -0.28,-0.178 -0.482,-0.229 -0.103,-0.039 -0.217,-0.062 -0.342,-0.076 v -0.049 c -0.014,0.012 -0.027,0.025 -0.039,0.037 h -0.025 c 0.013,-0.051 0.013,-0.104 0.013,-0.152 -0.004,-0.189 -0.016,-0.355 -0.055,-0.482 l 0,0 z"
         id="path741"
         style="fill:#00a0e9" />
      <path
         d="m 712.781,344.125 c -19.937,-2.092 -30.576,-3.167 -31.931,-3.252 -6.622,-0.366 -11.494,0.349 -14.624,2.145 -1.604,0.913 -3.309,2.328 -5.112,4.232 -1.212,1.272 -3.184,3.583 -5.919,6.945 -7.42,9.038 -14.478,16.97 -21.177,23.795 -6.054,6.173 -10.261,13.002 -12.596,20.476 -2.182,6.961 -2.549,13.787 -1.1,20.465 1.407,6.549 4.364,12.078 8.869,16.588 4.706,4.701 10.509,7.639 17.39,8.838 35.156,6.115 60.873,5.131 77.164,-2.984 13.335,-6.65 19.896,-17.719 19.698,-33.232 -0.146,-12.206 -4.214,-25.596 -12.17,-40.197 -3.155,-5.771 -6.52,-10.91 -10.073,-15.401 -3.34,-4.251 -6.138,-7.045 -8.419,-8.418"
         id="path743"
         style="fill:#00a0e9" />
      <path
         d="m 671.852,360.755 c -0.412,0.561 -0.816,1.133 -1.201,1.702 -0.017,0.018 -0.033,0.037 -0.04,0.047 -0.954,1.56 -1.667,3.231 -2.124,5.036 -0.604,2.322 -0.835,4.672 -0.691,7.052 l -0.009,0.009 c 0.124,2.443 0.838,4.699 2.165,6.781 1.348,2.151 3.175,3.716 5.458,4.707 2.282,0.989 4.642,1.114 7.078,0.376 1.791,-0.546 3.408,-1.416 4.854,-2.611 2.608,1.475 4.961,1.1 7.049,-1.117 l 0.008,-0.011 c 2.028,-2.108 2.759,-4.595 2.183,-7.47 -0.222,-1.115 -0.684,-2.101 -1.396,-2.942 0.017,-0.02 0.031,-0.038 0.06,-0.048 1.749,-1.273 2.611,-2.895 2.568,-4.867 0.048,-0.169 0.058,-0.353 0.018,-0.531 l -0.023,-0.066 c -0.262,-2.848 -1.672,-4.828 -4.243,-5.952 -0.576,-0.247 -1.164,-0.44 -1.748,-0.601 0.647,-0.009 1.358,0.079 2.129,0.267 2.058,0.48 3.939,0.28 5.633,-0.604 1.824,-0.904 2.8,-2.527 2.902,-4.858 0.2,-2.392 -1.491,-4.193 -5.076,-5.423 -0.054,-0.013 -0.106,-0.026 -0.143,-0.041 -4.946,-0.908 -8.795,-0.825 -11.566,0.236 -2.843,1.068 -5.45,2.539 -7.834,4.426 -0.506,0.389 -0.977,0.791 -1.442,1.211 -0.008,0.009 -0.008,0.009 -0.017,0.019 -1.692,1.596 -3.212,3.35 -4.552,5.273 m 1.586,1.134 0.008,-0.01 c 1.262,-1.811 2.686,-3.471 4.295,-4.973 l -0.01,0.009 c 0.428,-0.391 0.873,-0.766 1.339,-1.125 l 0.008,-0.008 c 2.212,-1.761 4.656,-3.133 7.303,-4.123 2.5,-0.909 5.989,-0.962 10.457,-0.153 2.428,0.84 3.658,1.994 3.684,3.458 -0.074,1.523 -0.694,2.597 -1.84,3.211 -1.29,0.653 -2.726,0.796 -4.299,0.442 -2.057,-0.481 -3.788,-0.442 -5.18,0.124 -0.454,0.176 -1.225,0.595 -2.313,1.292 -1.265,0.19 -2.535,1.292 -3.792,3.284 l 0.896,-0.393 c 1.085,-0.506 2.211,-0.833 3.377,-0.981 l 0.018,-10e-4 0.018,-0.002 c 1.855,-0.283 3.654,-0.042 5.379,0.699 1.887,0.815 2.91,2.291 3.076,4.401 0.001,0.017 0.001,0.017 0.002,0.035 -0.011,0.069 -0.024,0.139 -0.009,0.215 0.038,1.394 -0.554,2.527 -1.789,3.417 -0.024,0.011 -0.033,0.02 -0.04,0.028 -0.114,0.081 -0.236,0.185 -0.365,0.318 -1.942,-1.089 -3.562,-1.388 -4.857,-0.881 -2.089,0.821 -3.259,1.654 -3.529,2.483 l 0.936,-0.217 c 0.425,-0.104 0.858,-0.2 1.3,-0.305 l 0.018,-0.002 c 2.037,-0.533 3.908,-0.228 5.639,0.904 0.795,0.706 1.29,1.575 1.497,2.597 l 0.002,0.017 c 0.44,2.2 -0.118,4.11 -1.676,5.721 l -0.017,0.018 c -1.219,1.29 -2.576,1.645 -4.058,1.047 0.905,-0.82 1.557,-2.365 1.961,-4.6 l -0.687,0.699 c -1.104,1.097 -2.246,2.178 -3.442,3.23 -0.009,0.008 -0.016,0.02 -0.023,0.025 -1.391,1.322 -2.996,2.25 -4.812,2.81 -1.971,0.604 -3.876,0.511 -5.719,-0.3 -1.925,-0.848 -3.455,-2.16 -4.584,-3.964 -1.144,-1.785 -1.764,-3.737 -1.858,-5.836 l -0.011,-0.007 c -0.126,-2.173 0.094,-4.322 0.646,-6.467 0.405,-1.609 1.035,-3.111 1.892,-4.498 0.374,-0.543 0.761,-1.095 1.159,-1.638"
         id="path745"
         style="fill:#003d91" />
      <path
         d="m 673.445,361.879 -0.008,0.01 c -0.398,0.544 -0.786,1.096 -1.166,1.637 -0.856,1.389 -1.486,2.89 -1.891,4.5 -0.551,2.144 -0.771,4.292 -0.645,6.466 l 0.009,0.008 c 0.096,2.098 0.716,4.049 1.86,5.835 1.128,1.806 2.659,3.116 4.584,3.963 1.843,0.812 3.748,0.905 5.719,0.301 1.816,-0.559 3.42,-1.487 4.812,-2.807 0.009,-0.011 0.014,-0.021 0.023,-0.028 1.195,-1.053 2.336,-2.135 3.441,-3.23 l 0.688,-0.699 c -0.404,2.234 -1.058,3.779 -1.961,4.6 1.481,0.596 2.839,0.242 4.057,-1.046 l 0.017,-0.018 c 1.557,-1.611 2.117,-3.521 1.677,-5.72 l -0.002,-0.02 c -0.207,-1.022 -0.703,-1.891 -1.497,-2.596 -1.731,-1.132 -3.603,-1.437 -5.639,-0.904 l -0.018,0.002 c -0.441,0.106 -0.877,0.201 -1.3,0.306 l -0.936,0.216 c 0.269,-0.829 1.44,-1.662 3.528,-2.484 1.295,-0.506 2.913,-0.208 4.858,0.881 0.129,-0.132 0.25,-0.236 0.364,-0.316 0.008,-0.009 0.015,-0.019 0.041,-0.029 1.234,-0.89 1.825,-2.023 1.789,-3.415 -0.016,-0.078 -0.004,-0.147 0.008,-0.217 -10e-4,-0.018 -10e-4,-0.018 -10e-4,-0.035 -0.166,-2.11 -1.19,-3.586 -3.078,-4.401 -1.727,-0.741 -3.523,-0.983 -5.379,-0.699 l -0.02,0.002 h -0.015 c -1.167,0.15 -2.292,0.476 -3.377,0.981 l -0.895,0.394 c 1.257,-1.991 2.525,-3.094 3.792,-3.285 1.087,-0.696 1.859,-1.115 2.312,-1.292 1.393,-0.565 3.122,-0.604 5.182,-0.123 1.573,0.356 3.008,0.211 4.297,-0.443 1.146,-0.613 1.766,-1.688 1.841,-3.21 -0.025,-1.464 -1.257,-2.618 -3.683,-3.459 -4.469,-0.808 -7.957,-0.755 -10.457,0.154 -2.648,0.99 -5.093,2.362 -7.304,4.122 l -0.008,0.009 c -0.465,0.36 -0.911,0.734 -1.338,1.125 l 0.008,-0.01 c -1.607,1.503 -3.033,3.163 -4.295,4.974 h 0.006 z"
         id="path747"
         style="fill:#00a0e9" />
      <path
         d="m 652.043,350.488 -0.014,-0.002 c -0.983,0.555 -1.968,1.123 -2.931,1.697 -2.647,1.546 -5.125,3.331 -7.416,5.332 -3.197,2.545 -6.005,5.566 -8.429,9.034 -0.495,0.708 -0.993,1.429 -1.466,2.144 -2.409,3.614 -3.691,7.586 -3.871,11.936 -0.002,0.014 -0.009,0.041 -0.003,0.07 0.032,1.231 0.188,2.463 0.481,3.693 0.866,3.694 2.904,6.214 6.115,7.56 l -0.014,-0.003 c 1.584,0.689 3.215,1.217 4.877,1.607 1.889,0.441 3.806,0.588 5.767,0.427 0.017,-0.01 0.017,-0.01 0.027,-0.009 4.938,-0.248 11.677,-1.646 20.202,-4.195 0.025,-0.007 0.053,-0.016 0.079,-0.024 l 10.444,-4.113 c 0.259,-0.099 0.453,-0.3 0.59,-0.569 0.125,-0.275 0.151,-0.559 0.081,-0.848 -0.072,-0.29 -0.232,-0.513 -0.465,-0.639 -0.23,-0.139 -0.476,-0.15 -0.734,-0.049 l -0.017,0.01 -10.388,4.083 c -8.354,2.5 -14.948,3.872 -19.788,4.13 -0.011,-0.003 -0.011,-0.003 -0.024,-0.005 -1.787,0.157 -3.531,0.021 -5.267,-0.386 -1.567,-0.37 -3.093,-0.874 -4.588,-1.515 l -0.013,-0.002 c -2.621,-1.097 -4.294,-3.145 -5,-6.171 -0.254,-1.064 -0.39,-2.117 -0.412,-3.173 l -0.007,0.085 c 0.167,-3.863 1.317,-7.404 3.448,-10.622 0.472,-0.713 0.953,-1.41 1.444,-2.105 2.299,-3.295 4.955,-6.134 7.972,-8.546 0.015,-0.012 0.018,-0.024 0.033,-0.037 2.212,-1.93 4.587,-3.64 7.134,-5.122 l 0.015,-0.01 c 0.958,-0.56 1.917,-1.122 2.9,-1.676 l -0.016,0.011 6.488,-3.585 c 0.015,-0.011 0.028,-0.021 0.044,-0.033 0.218,-0.138 0.377,-0.347 0.475,-0.612 0.103,-0.293 0.105,-0.581 0.006,-0.849 -0.111,-0.284 -0.293,-0.469 -0.531,-0.566 -0.25,-0.1 -0.505,-0.071 -0.745,0.062 l -6.488,3.584 h 0.005 z"
         id="path749"
         style="fill:#003d91" />
      <path
         d="m 659.326,348.869 c -0.014,0.012 -0.029,0.022 -0.045,0.033 l -6.487,3.585 0.015,-0.011 c -0.982,0.555 -1.941,1.116 -2.9,1.676 l -0.013,0.01 c -2.548,1.482 -4.922,3.192 -7.136,5.123 -0.015,0.012 -0.019,0.024 -0.033,0.037 -3.017,2.411 -5.673,5.251 -7.969,8.545 -0.494,0.695 -0.975,1.392 -1.446,2.106 -2.131,3.217 -3.28,6.758 -3.447,10.621 l 0.007,-0.085 c 0.021,1.056 0.156,2.108 0.411,3.173 0.707,3.025 2.38,5.074 5,6.171 l 0.012,0.002 c 1.495,0.641 3.02,1.145 4.589,1.515 1.734,0.406 3.48,0.543 5.268,0.386 0.012,0.002 0.012,0.002 0.022,0.006 4.841,-0.259 11.435,-1.631 19.789,-4.131 l 10.388,-4.083 -4.438,-17.156 c -0.038,0.006 -0.067,0.028 -0.096,0.036 l -27.896,7.622 c -0.274,0.067 -0.512,0.013 -0.737,-0.138 -0.224,-0.167 -0.345,-0.396 -0.39,-0.693 -0.043,-0.298 0.006,-0.576 0.154,-0.845 0.158,-0.265 0.368,-0.421 0.633,-0.489 l 24.044,-6.577 -7.296,-16.438 h -0.003 z"
         id="path751"
         style="fill:#00a0e9" />
      <path
         d="m 642.183,373.91 c 0.226,0.151 0.463,0.205 0.737,0.138 l 27.896,-7.621 c 0.026,-0.009 0.058,-0.031 0.095,-0.036 0.217,-0.082 0.391,-0.243 0.528,-0.471 0.148,-0.269 0.211,-0.544 0.166,-0.841 -0.044,-0.297 -0.18,-0.53 -0.402,-0.695 -0.226,-0.152 -0.465,-0.192 -0.729,-0.122 l -3.851,1.043 -24.045,6.578 c -0.265,0.069 -0.473,0.224 -0.631,0.49 -0.149,0.269 -0.198,0.546 -0.154,0.844 0.044,0.298 0.166,0.527 0.39,0.693"
         id="path753"
         style="fill:#003d91" />
      <path
         d="m 729,350.707 -0.01,-0.005 c -1.799,-1.266 -3.696,-2.334 -5.715,-3.191 l 0.01,0.006 c -0.532,-0.22 -1.077,-0.418 -1.634,-0.597 l -0.01,-0.006 c -2.672,-0.893 -5.425,-1.343 -8.242,-1.367 -2.647,10e-4 -5.929,1.14 -9.838,3.42 -1.983,1.613 -2.739,3.114 -2.268,4.491 0.589,1.4 1.536,2.192 2.818,2.377 1.429,0.172 2.822,-0.183 4.171,-1.052 1.764,-1.15 3.396,-1.703 4.89,-1.648 0.487,0.01 1.351,0.139 2.604,0.421 1.251,-0.253 2.814,0.345 4.67,1.781 l -0.972,-0.064 c -1.188,-0.104 -2.353,-0.025 -3.493,0.234 l -0.019,0.004 -0.016,0.005 c -1.834,0.367 -3.435,1.207 -4.796,2.489 -1.487,1.405 -1.943,3.135 -1.379,5.165 l 0.01,0.033 c 0.034,0.062 0.069,0.125 0.081,0.202 0.439,1.314 1.378,2.173 2.839,2.585 0.028,10e-4 0.037,0.008 0.048,0.014 0.136,0.034 0.283,0.091 0.449,0.171 1.449,-1.679 2.861,-2.512 4.243,-2.48 2.236,0.058 3.617,0.437 4.151,1.121 l -0.949,0.117 c -0.433,0.047 -0.873,0.106 -1.321,0.156 l -0.017,0.006 c -2.088,0.195 -3.735,1.117 -4.97,2.766 -0.503,0.932 -0.671,1.914 -0.518,2.943 l 0.007,0.017 c 0.336,2.208 1.514,3.803 3.521,4.779 l 0.02,0.012 c 1.58,0.791 2.972,0.66 4.153,-0.403 -1.125,-0.458 -2.263,-1.682 -3.401,-3.635 l 0.881,0.419 c 1.406,0.649 2.845,1.273 4.322,1.849 0.011,0.007 0.022,0.013 0.03,0.02 1.752,0.761 3.66,1.121 5.718,1.076 2.057,-0.046 4.108,-0.57 6.147,-1.591 0.667,-0.333 1.225,-0.674 1.691,-1.024 -0.443,0.601 -0.938,1.174 -1.506,1.704 -1.801,1.705 -3.965,2.626 -6.495,2.764 -1.862,0.101 -3.675,-0.162 -5.434,-0.788 -1.938,2.27 -4.268,2.721 -6.978,1.357 l -0.012,-0.008 c -2.614,-1.283 -4.146,-3.36 -4.586,-6.246 -0.175,-1.122 -0.075,-2.2 0.303,-3.231 -0.021,-0.012 -0.044,-0.025 -0.07,-0.027 -2.07,-0.592 -3.431,-1.816 -4.064,-3.676 -0.1,-0.142 -0.173,-0.309 -0.196,-0.491 l -0.002,-0.07 c -0.726,-2.754 -0.081,-5.088 1.942,-7.015 0.455,-0.427 0.94,-0.809 1.432,-1.159 -0.61,0.211 -1.243,0.537 -1.9,0.975 -1.762,1.151 -3.591,1.607 -5.479,1.356 -2.013,-0.225 -3.48,-1.413 -4.37,-3.559 -1.002,-2.169 -0.034,-4.432 2.901,-6.804 0.046,-0.031 0.091,-0.06 0.121,-0.087 4.316,-2.535 7.949,-3.769 10.905,-3.722 3.022,0.03 5.965,0.519 8.838,1.473 0.605,0.19 1.183,0.408 1.762,0.641 0.013,0.006 0.013,0.006 0.022,0.012 2.123,0.918 4.146,2.043 6.053,3.384 0.58,0.385 1.151,0.782 1.707,1.183 0.021,0.012 0.041,0.024 0.052,0.03 1.425,1.137 2.661,2.457 3.705,3.991 1.357,1.965 2.376,4.086 3.049,6.363 l 0.012,0.007 c 0.501,1.6 0.695,3.224 0.59,4.859 -0.999,-3.652 -2.358,-6.597 -4.082,-8.829 -1.708,-2.234 -3.206,-3.859 -4.478,-4.865 -0.539,-0.379 -1.09,-0.763 -1.648,-1.138"
         id="path755"
         style="fill:#003d91" />
      <path
         d="m 728.99,350.702 0.01,0.005 c 0.558,0.375 1.109,0.759 1.649,1.138 1.272,1.006 2.77,2.631 4.478,4.865 1.725,2.232 3.084,5.178 4.083,8.829 -0.04,0.734 -0.144,1.474 -0.302,2.223 -0.002,0.027 -0.005,0.054 -0.022,0.086 -0.037,0.188 -0.08,0.36 -0.127,0.543 -0.059,0.345 -0.141,0.86 -0.233,1.535 -0.105,0.849 -0.646,1.648 -1.616,2.396 -0.467,0.351 -1.024,0.691 -1.691,1.024 -2.04,1.021 -4.091,1.546 -6.147,1.591 -2.059,0.046 -3.965,-0.315 -5.718,-1.076 -0.009,-0.006 -0.02,-0.013 -0.03,-0.019 -1.479,-0.577 -2.916,-1.201 -4.322,-1.849 l -0.881,-0.419 c 1.139,1.953 2.275,3.176 3.4,3.633 -1.181,1.064 -2.572,1.195 -4.152,0.406 l -0.021,-0.014 c -2.006,-0.975 -3.184,-2.57 -3.52,-4.779 l -0.007,-0.017 c -0.155,-1.029 0.015,-2.011 0.518,-2.942 1.234,-1.648 2.881,-2.571 4.97,-2.767 l 0.017,-0.004 c 0.448,-0.052 0.889,-0.11 1.322,-0.158 l 0.947,-0.116 c -0.533,-0.682 -1.915,-1.063 -4.15,-1.122 -1.382,-0.032 -2.794,0.801 -4.243,2.481 -0.166,-0.079 -0.314,-0.138 -0.449,-0.172 -0.011,-0.006 -0.02,-0.011 -0.048,-0.013 -1.461,-0.413 -2.4,-1.27 -2.839,-2.586 -0.012,-0.077 -0.047,-0.14 -0.081,-0.202 l -0.01,-0.033 c -0.564,-2.03 -0.108,-3.76 1.379,-5.165 1.36,-1.282 2.962,-2.12 4.796,-2.489 l 0.016,-0.004 0.019,-0.004 c 1.141,-0.26 2.306,-0.337 3.493,-0.234 l 0.972,0.063 c -1.855,-1.436 -3.419,-2.034 -4.67,-1.781 -1.254,-0.281 -2.117,-0.411 -2.604,-0.42 -1.495,-0.055 -3.126,0.498 -4.89,1.649 -1.349,0.868 -2.742,1.223 -4.171,1.051 -1.281,-0.185 -2.229,-0.978 -2.818,-2.377 -0.472,-1.377 0.284,-2.878 2.269,-4.491 3.907,-2.281 7.189,-3.419 9.837,-3.421 2.817,0.024 5.569,0.475 8.242,1.368 l 0.01,0.006 c 0.557,0.178 1.102,0.377 1.634,0.596 l -0.01,-0.006 c 2.015,0.859 3.912,1.927 5.711,3.192 l 0,0 z"
         id="path757"
         style="fill:#00a0e9" />
    </g>
  </g>
</svg>
