<?xml version="1.0" encoding="UTF-8" standalone="no"?>
<!-- Created with Inkscape (http://www.inkscape.org/) -->

<svg
   xmlns:dc="http://purl.org/dc/elements/1.1/"
   xmlns:cc="http://creativecommons.org/ns#"
   xmlns:rdf="http://www.w3.org/1999/02/22-rdf-syntax-ns#"
   xmlns:svg="http://www.w3.org/2000/svg"
   xmlns="http://www.w3.org/2000/svg"
   version="1.1"
   width="195"
   height="235"
   id="svg4502">
  <defs
     id="defs4504" />
  <metadata
     id="metadata4507">
    <rdf:RDF>
      <cc:Work
         rdf:about="">
        <dc:format>image/svg+xml</dc:format>
        <dc:type
           rdf:resource="http://purl.org/dc/dcmitype/StillImage" />
        <dc:title></dc:title>
      </cc:Work>
    </rdf:RDF>
  </metadata>
  <g
     transform="translate(0,-245)"
     id="layer1">
    <g
       transform="translate(-358.61185,-21.788231)"
       id="g639">
      <path
         d="m 489.97,370.853 c 0.013,0.004 0.017,-0.009 0.035,-0.02 5.139,-1.939 10.079,-4.267 14.85,-6.975 l 0.014,0.006 c 0.646,-0.364 1.279,-0.733 1.895,-1.137 6.955,-4.324 12.307,-10.061 16.061,-17.226 0.236,-0.454 0.457,-0.912 0.677,-1.369 l -0.004,0.013 c 3.7,-7.58 5.109,-15.399 4.251,-23.481 v 0.043 c -0.005,-0.075 -0.009,-0.15 -0.029,-0.228 -0.026,-0.143 -0.067,-0.288 -0.145,-0.416 -0.055,-0.061 -0.104,-0.136 -0.148,-0.224 -0.041,-0.057 -0.076,-0.127 -0.106,-0.212 -0.136,-0.263 -0.354,-0.451 -0.647,-0.546 -0.293,-0.095 -0.58,-0.071 -0.857,0.061 -0.27,0.148 -0.456,0.367 -0.551,0.66 -0.004,0.013 -0.01,0.027 -0.014,0.039 -0.076,0.284 -0.057,0.541 0.079,0.805 0.062,0.124 0.116,0.229 0.183,0.339 0.01,0.017 0.01,0.017 0.023,0.022 0.786,7.618 -0.557,15.004 -4.042,22.153 l -0.017,0.008 c -0.198,0.436 -0.412,0.867 -0.639,1.294 -3.568,6.813 -8.654,12.269 -15.253,16.369 l -0.019,0.009 c -0.575,0.373 -1.176,0.723 -1.799,1.066 l -0.004,0.013 c -4.691,2.644 -9.545,4.927 -14.586,6.84 -0.019,0.009 -0.037,0.018 -0.05,0.014 -0.141,0.072 -0.29,0.125 -0.44,0.18 -0.282,0.101 -0.506,0.293 -0.635,0.56 -0.043,0.089 -0.088,0.178 -0.104,0.276 -0.033,0.194 -0.022,0.388 0.044,0.587 0.102,0.283 0.294,0.506 0.561,0.635 0.278,0.135 0.566,0.155 0.861,0.06 0.184,-0.073 0.369,-0.146 0.555,-0.218"
         id="path641"
         style="fill:#003d91" />
      <path
         d="m 487.534,369.066 c 0.098,0.193 0.2,0.374 0.301,0.568 0.035,0.07 0.077,0.128 0.112,0.154 0.017,-0.097 0.062,-0.186 0.104,-0.276 0.129,-0.266 0.353,-0.459 0.635,-0.559 0.15,-0.055 0.3,-0.109 0.44,-0.18 0.013,0.004 0.031,-0.006 0.05,-0.015 5.041,-1.912 9.896,-4.195 14.586,-6.839 l 0.004,-0.014 c 0.623,-0.342 1.224,-0.693 1.799,-1.066 l 0.019,-0.007 c 6.599,-4.101 11.685,-9.558 15.253,-16.37 0.227,-0.428 0.44,-0.858 0.639,-1.294 l 0.017,-0.009 c 3.485,-7.149 4.828,-14.534 4.042,-22.153 -0.014,-0.004 -0.014,-0.004 -0.023,-0.022 -0.066,-0.109 -0.121,-0.215 -0.183,-0.338 -0.136,-0.265 -0.155,-0.521 -0.079,-0.805 -0.162,-0.038 -0.322,-0.089 -0.484,-0.142 -1.244,-0.328 -2.5,-0.631 -3.781,-0.898 -2.633,-0.542 -5.35,-0.949 -8.133,-1.216 -1.254,-0.112 -2.522,-0.197 -3.81,-0.26 -0.336,-0.006 -0.668,-0.026 -1.004,-0.031 l 0.009,0.018 c 0.002,0.043 -0.008,0.07 -0.007,0.115 -0.009,0.071 -0.013,0.128 -0.03,0.181 0.002,0.044 -0.008,0.071 -0.008,0.115 -0.043,0.633 -0.094,1.248 -0.158,1.859 l 0.004,-0.013 c -0.604,7.007 -3.478,13.31 -8.617,18.895 l -0.006,0.014 c -0.254,0.285 -0.517,0.553 -0.797,0.83 l 0.004,-0.013 c -2.445,2.517 -5.25,4.551 -8.379,6.097 -2.82,1.41 -5.697,2.715 -8.646,3.924 l -0.018,0.01 c -0.26,0.12 -0.531,0.239 -0.815,0.339 -0.017,0.009 -0.024,0.034 -0.043,0.044 -0.144,0.129 -0.308,0.223 -0.483,0.27 0.289,1.064 0.58,2.113 0.895,3.141 1.355,4.451 3.027,8.738 5.021,12.85 0.498,1.046 1.029,2.084 1.57,3.096"
         id="path643"
         style="fill:#00a0e9" />
      <path
         d="m 490.052,345.393 c 3.129,-1.546 5.934,-3.58 8.379,-6.097 l -0.004,0.013 c 0.28,-0.277 0.543,-0.544 0.797,-0.83 l 0.006,-0.013 c 5.14,-5.586 8.013,-11.889 8.617,-18.896 l -0.004,0.013 c 0.063,-0.611 0.115,-1.227 0.158,-1.859 0,-0.044 0.01,-0.071 0.008,-0.115 0.018,-0.053 0.021,-0.111 0.03,-0.181 -10e-4,-0.045 0.009,-0.072 0.007,-0.116 l -0.009,-0.017 c 0.004,-0.058 -0.006,-0.12 -0.024,-0.199 -0.032,-0.305 -0.189,-0.547 -0.439,-0.73 -0.249,-0.184 -0.523,-0.243 -0.829,-0.209 -0.296,0.051 -0.547,0.191 -0.731,0.44 -0.131,0.178 -0.194,0.378 -0.219,0.59 -0.004,0.013 -0.004,0.013 -0.01,0.027 0.006,0.075 0.012,0.15 0.016,0.225 l -0.014,-0.092 c 0.002,0.044 -0.008,0.07 -0.004,0.101 0,0.045 -0.012,0.084 -0.012,0.129 -0.034,0.606 -0.09,1.19 -0.16,1.771 0.009,0.017 0.009,0.017 0.005,0.03 -0.56,6.508 -3.247,12.37 -8.028,17.573 -0.246,0.258 -0.496,0.53 -0.755,0.785 -2.28,2.334 -4.875,4.216 -7.776,5.646 l -0.004,0.013 c -2.77,1.384 -5.61,2.67 -8.509,3.866 -0.325,0.145 -0.661,0.271 -0.983,0.403 -0.119,0.049 -0.211,0.107 -0.309,0.179 -0.084,0.075 -0.166,0.153 -0.25,0.228 -0.227,0.206 -0.345,0.476 -0.355,0.782 -0.01,0.304 0.095,0.574 0.301,0.802 0.205,0.227 0.475,0.345 0.781,0.355 0.102,0.003 0.207,-0.006 0.318,-0.029 0.176,-0.047 0.34,-0.141 0.483,-0.27 0.019,-0.009 0.026,-0.035 0.043,-0.045 0.284,-0.1 0.556,-0.218 0.815,-0.338 l 0.018,-0.011 c 2.948,-1.21 5.825,-2.514 8.646,-3.924"
         id="path645"
         style="fill:#003d91" />
      <path
         d="m 508.459,321.547 c 0.214,0.11 0.429,0.221 0.644,0.318 0.08,0.026 0.173,0.066 0.274,0.109 0.08,0.038 0.147,0.073 0.228,0.101 0.191,0.093 0.373,0.185 0.563,0.279 3.097,1.435 6.242,1.657 9.449,0.651 0.106,-0.043 0.213,-0.099 0.319,-0.154 0.213,-0.098 0.427,-0.209 0.643,-0.318 0.439,-0.207 0.832,-0.434 1.182,-0.679 1.609,0.606 2.939,0.772 3.989,0.499 0.116,-0.029 0.234,-0.07 0.351,-0.111 1.457,-1.011 2.422,-2.352 2.863,-4.001 0.156,-0.341 0.307,-0.719 0.465,-1.133 0.174,-0.104 0.287,-0.257 0.34,-0.431 0.781,-0.553 1.48,-1.13 2.086,-1.737 l -2.413,-0.413 c -0.3,0.243 -0.622,0.482 -0.955,0.718 l -0.015,0.01 c -0.043,0.03 -0.082,0.047 -0.111,0.079 -0.055,0.027 -0.105,0.042 -0.146,0.06 -0.002,0.013 -0.013,0.01 -0.027,0.02 -0.014,0.01 -0.014,0.01 -0.027,0.02 -0.038,0.006 -0.066,0.025 -0.105,0.042 -0.012,-10e-4 -0.023,-0.003 -0.037,0.007 -1.176,0.57 -2.166,0.779 -2.959,0.62 -0.664,-0.199 -1.172,-0.728 -1.508,-1.556 -0.076,-0.197 -0.211,-0.342 -0.386,-0.458 0.261,-0.163 0.521,-0.327 0.759,-0.506 l -11.261,-1.928 c -0.244,0.068 -0.487,0.136 -0.733,0.205 -1.086,0.267 -1.944,0.781 -2.584,1.516 1.301,-0.597 2.676,-0.913 4.119,-0.972 0.221,10e-4 0.43,0 0.62,0.021 1.624,0.167 3.237,0.468 4.849,0.928 0.646,0.293 1.226,0.699 1.759,1.231 0.01,0.014 0.032,0.03 0.042,0.044 0.012,0.002 0.012,0.002 0.01,0.013 l 0.01,0.014 c 0.24,0.237 0.477,0.499 0.687,0.779 0.059,0.084 0.12,0.156 0.196,0.217 0.088,0.199 0.166,0.384 0.234,0.554 0.223,1.128 0.219,2.082 -0.025,2.861 -0.121,0.358 -0.287,0.684 -0.492,0.955 -0.746,0.852 -2.014,1.32 -3.779,1.409 l -0.014,0.011 c -0.582,0.047 -1.174,0.068 -1.748,0.055 -2.266,-0.058 -4.422,-0.622 -6.48,-1.684 l -0.023,-0.004 c -0.229,-0.1 -0.438,-0.223 -0.648,-0.357 0.002,-0.011 0.002,-0.011 -0.011,-0.013 -0.32,-0.202 -0.604,-0.397 -0.863,-0.601 l -0.049,-0.143 c -0.011,-0.014 -0.021,-0.029 -0.029,-0.041 -0.245,-0.068 -0.459,-0.178 -0.663,-0.348 -0.162,-0.136 -0.271,-0.278 -0.332,-0.423 -0.503,-0.563 -0.875,-1.178 -1.119,-1.832 -0.281,-0.856 -0.328,-1.733 -0.16,-2.635 0.248,-0.948 0.511,-1.907 0.76,-2.867 l -1.913,-0.328 c -0.245,0.925 -0.498,1.836 -0.744,2.761 -0.003,0.025 -0.006,0.048 -0.009,0.06 -0.238,1.245 -0.152,2.458 0.246,3.639 0.41,1.185 1.168,2.257 2.264,3.216 l 0.002,0.208 c 0.418,0.267 0.934,0.614 1.561,1.038 0.164,0.115 0.318,0.215 0.473,0.314 l -0.016,-0.125 c 0.125,0.058 0.259,0.13 0.394,0.202 l 0.003,0.014 z m 15.242,-0.597 c -0.226,-0.039 -0.351,-0.097 -0.372,-0.186 0.004,-0.024 -0.003,-0.049 -0.013,-0.064 -0.026,0.008 -0.05,0.004 -0.074,0 l -0.009,-0.014 c 0.013,-0.01 0.015,-0.021 0.018,-0.034 0.027,-0.019 0.043,-0.04 0.049,-0.077 0.018,-0.022 0.021,-0.045 0.015,-0.071 0.057,-0.124 0.125,-0.235 0.208,-0.356 0.017,-0.033 0.035,-0.079 0.055,-0.113 0.025,-0.081 0.064,-0.161 0.091,-0.242 0.021,-0.045 0.028,-0.093 0.033,-0.129 0.185,-0.568 0.267,-1.19 0.261,-1.876 0.206,0.084 0.416,0.144 0.615,0.19 0.678,0.19 1.452,0.176 2.318,-0.03 0.182,-0.128 0.316,-0.204 0.414,-0.199 0.313,0.384 0.304,0.799 -0.006,1.247 -0.229,0.34 -0.494,0.675 -0.802,0.976 -0.454,0.498 -1.012,0.832 -1.69,0.997 -0.342,0.075 -0.708,0.063 -1.111,-0.019"
         id="path647"
         style="fill:#003d91" />
      <path
         d="m 529.44,314.527 2.414,0.414 c 3.133,-3.075 4.037,-6.788 2.729,-11.149 l -2.153,-0.369 c 1.647,4.468 0.659,8.167 -2.99,11.104"
         id="path649"
         style="fill:#003d91" />
      <path
         d="m 528.472,303.027 c -0.021,-0.089 -0.053,-0.192 -0.072,-0.293 l -2.057,-0.353 c 0.082,0.308 0.162,0.627 0.236,0.971 0.264,4.329 -1.401,7.471 -5.006,9.437 -1.277,-1.113 -2.789,-1.714 -4.533,-1.829 -0.168,-0.151 -0.416,-0.353 -0.752,-0.618 -0.383,-0.335 -0.68,-0.668 -0.894,-0.998 l 0.015,-0.009 c -0.182,-0.656 -0.228,-1.178 -0.151,-1.544 0.231,-1.356 0.724,-2.226 1.474,-2.6 0.184,-0.079 0.333,-0.101 0.465,-0.067 0.012,-0.011 0.012,-0.011 0.026,-0.02 0.013,0.002 0.034,0.019 0.043,0.032 0.009,0.014 0.009,0.014 0.019,0.028 0.059,0.022 0.113,0.068 0.162,0.137 0.064,0.122 0.121,0.29 0.148,0.491 0.005,0.037 0.023,0.078 0.049,0.143 0.245,0.715 0.396,1.403 0.447,2.035 0.109,0.006 0.229,0.026 0.381,0.065 0.002,-0.012 0.031,-0.044 0.089,-0.095 0.048,-0.054 0.093,-0.18 0.13,-0.394 0.016,-0.021 0.02,-0.046 0.023,-0.07 0.029,-0.239 0.068,-0.465 0.092,-0.681 0.41,-1.827 0.085,-3.498 -0.97,-4.989 -0.084,-0.076 -0.183,-0.141 -0.285,-0.195 l -0.067,-0.036 c -0.039,0.017 -0.082,0.133 -0.121,0.359 -0.02,0.106 0.01,0.515 0.075,1.199 -0.014,0.011 -0.026,0.009 -0.038,0.018 -0.099,0.069 -0.21,0.148 -0.337,0.236 -0.671,0.13 -1.293,0.624 -1.892,1.475 -0.688,0.948 -1.118,1.89 -1.277,2.818 -0.043,0.249 -0.056,0.541 -0.025,0.864 -0.131,0.7 -0.166,1.465 -0.071,2.276 l 0.164,0.469 c -0.427,0.136 -0.864,0.257 -1.3,0.366 l 11.263,1.928 c 3.353,-2.364 4.866,-5.838 4.562,-10.419 -0.008,-0.05 -0.009,-0.099 -0.015,-0.137"
         id="path651"
         style="fill:#003d91" />
      <path
         d="m 504.279,310.22 1.913,0.328 c 0.204,-0.762 0.411,-1.534 0.615,-2.307 l 1.856,-6.903 c 0.032,-0.118 0.052,-0.237 0.048,-0.359 l -0.158,-1.643 -1.962,-0.336 0.186,1.99 -1.84,6.747 c -0.217,0.833 -0.43,1.652 -0.658,2.483"
         id="path653"
         style="fill:#003d91" />
      <path
         d="m 506.591,299 1.962,0.336 -1.565,-16.523 c 0.903,-2.917 2.526,-4.316 4.875,-4.171 l 0.012,0.002 c 1.38,0.163 2.38,1.19 3.01,3.085 0.225,0.835 0.422,1.688 0.602,2.563 0.732,5.23 1.219,10.466 1.461,15.709 -0.006,0.11 0.024,0.213 0.064,0.33 0.053,-0.016 0.104,-0.031 0.146,-0.061 0.063,-0.025 0.131,-0.051 0.186,-0.091 0.059,-0.051 0.116,-0.101 0.172,-0.141 0.046,-0.054 0.08,-0.109 0.125,-0.162 0.049,-0.066 0.085,-0.133 0.119,-0.188 0.023,-0.069 0.035,-0.141 0.047,-0.2 0.074,-0.221 0.1,-0.448 0.072,-0.71 0.025,-0.216 0.035,-0.423 0.056,-0.615 l 3.493,-0.883 c 2.357,0.171 4,1.872 4.916,5.101 l 2.057,0.352 c -0.33,-1.427 -0.758,-2.651 -1.269,-3.669 2.237,0.506 3.967,1.854 5.181,4.057 0.043,0.106 0.074,0.209 0.119,0.302 l 2.153,0.369 c -0.13,-0.463 -0.294,-0.931 -0.493,-1.418 -0.029,-0.042 -0.049,-0.07 -0.055,-0.107 -1.797,-3.307 -4.549,-5.089 -8.241,-5.341 -0.073,0 -0.147,0 -0.222,0.011 -1.129,-1.062 -2.543,-1.597 -4.232,-1.593 -0.071,0 -0.161,0.009 -0.26,0.017 l -3.008,0.769 c 0.358,-5.593 -0.088,-10.565 -1.338,-14.916 -0.01,-0.014 -0.01,-0.014 -0.02,-0.027 -0.918,-2.863 -2.475,-4.354 -4.686,-4.45 -3.416,-0.353 -5.737,1.551 -6.951,5.713 -0.031,0.117 -0.041,0.237 -0.025,0.362 L 506.591,299 z"
         id="path655"
         style="fill:#003d91" />
      <path
         d="m 507.735,318.693 0.049,0.144 c 0.261,0.203 0.545,0.398 0.863,0.6 0.014,0.002 0.014,0.002 0.012,0.014 0.211,0.134 0.42,0.256 0.648,0.357 l 0.024,0.003 c 2.058,1.063 4.213,1.627 6.479,1.684 0.573,0.013 1.166,-0.008 1.747,-0.055 l 0.015,-0.01 c 1.766,-0.09 3.033,-0.558 3.778,-1.409 0.205,-0.27 0.372,-0.598 0.493,-0.956 0.245,-0.779 0.248,-1.733 0.025,-2.86 -0.069,-0.171 -0.147,-0.356 -0.235,-0.554 -0.075,-0.062 -0.137,-0.134 -0.194,-0.217 -0.209,-0.281 -0.447,-0.542 -0.688,-0.78 l -0.01,-0.013 c 0.002,-0.012 0.002,-0.012 -0.01,-0.014 -0.011,-0.014 -0.031,-0.03 -0.041,-0.043 -0.535,-0.533 -1.115,-0.938 -1.76,-1.232 -1.611,-0.459 -3.224,-0.761 -4.849,-0.928 -0.19,-0.021 -0.397,-0.02 -0.62,-0.021 -1.441,0.06 -2.818,0.375 -4.12,0.972 0.642,-0.735 1.499,-1.249 2.585,-1.515 0.68,-0.178 1.35,-0.37 2.032,-0.571 l -0.164,-0.469 c -0.095,-0.811 -0.062,-1.577 0.071,-2.276 -0.03,-0.324 -0.018,-0.615 0.025,-0.865 0.158,-0.928 0.59,-1.87 1.277,-2.817 0.6,-0.851 1.221,-1.344 1.893,-1.475 0.127,-0.089 0.237,-0.167 0.336,-0.236 0.012,-0.01 0.024,-0.008 0.039,-0.018 -0.066,-0.684 -0.096,-1.093 -0.076,-1.2 0.039,-0.226 0.082,-0.341 0.121,-0.359 l 0.067,0.036 c 0.103,0.054 0.201,0.12 0.285,0.196 1.055,1.49 1.38,3.162 0.97,4.989 -0.025,0.216 -0.064,0.441 -0.093,0.681 -0.003,0.024 -0.007,0.048 -0.022,0.07 -0.037,0.214 -0.082,0.34 -0.129,0.394 -0.059,0.051 -0.088,0.083 -0.09,0.094 -0.152,-0.038 -0.273,-0.059 -0.381,-0.065 -0.051,-0.632 -0.203,-1.319 -0.447,-2.035 -0.025,-0.065 -0.044,-0.105 -0.049,-0.142 -0.027,-0.201 -0.084,-0.37 -0.148,-0.491 -0.049,-0.07 -0.104,-0.115 -0.162,-0.138 -0.01,-0.013 -0.01,-0.013 -0.019,-0.028 -0.009,-0.013 -0.03,-0.029 -0.043,-0.032 -0.014,0.01 -0.014,0.01 -0.026,0.021 -0.131,-0.035 -0.281,-0.013 -0.465,0.066 -0.75,0.374 -1.242,1.245 -1.475,2.6 -0.075,0.367 -0.029,0.888 0.152,1.545 l -0.014,0.008 c 0.213,0.331 0.51,0.664 0.893,0.998 0.336,0.266 0.584,0.468 0.753,0.619 1.741,0.114 3.255,0.716 4.532,1.828 3.604,-1.966 5.27,-5.107 5.006,-9.437 -0.842,-3.865 -2.565,-5.886 -5.152,-6.072 l -3.493,0.884 c -0.021,0.192 -0.03,0.398 -0.056,0.615 0.027,0.261 10e-4,0.489 -0.072,0.709 -0.012,0.06 -0.023,0.131 -0.047,0.201 -0.034,0.054 -0.07,0.122 -0.119,0.188 -0.045,0.052 -0.078,0.109 -0.125,0.161 -0.056,0.04 -0.113,0.091 -0.172,0.142 -0.055,0.04 -0.122,0.066 -0.186,0.091 -0.043,0.029 -0.094,0.045 -0.146,0.06 -0.04,-0.116 -0.07,-0.22 -0.064,-0.329 -0.242,-5.243 -0.729,-10.479 -1.461,-15.709 -0.18,-0.875 -0.377,-1.728 -0.602,-2.562 -0.63,-1.895 -1.63,-2.924 -3.01,-3.086 l -0.012,-0.002 c -2.349,-0.146 -3.972,1.254 -4.875,4.171 l 1.726,18.166 c 0.003,0.122 -0.017,0.241 -0.049,0.358 l -1.855,6.904 c -0.454,1.721 -0.923,3.453 -1.376,5.174 -0.167,0.902 -0.121,1.778 0.16,2.634 0.245,0.655 0.616,1.269 1.119,1.832 0.061,0.145 0.17,0.287 0.333,0.424 0.203,0.17 0.417,0.28 0.662,0.347 0.012,0.014 0.024,0.027 0.032,0.041"
         id="path657"
         style="fill:#00a0e9" />
      <path
         d="m 523.242,320.7 c 0.024,0.004 0.048,0.008 0.074,0 0.01,0.015 0.017,0.04 0.013,0.064 0.021,0.089 0.146,0.147 0.372,0.186 0.403,0.082 0.769,0.094 1.11,0.019 0.679,-0.165 1.236,-0.499 1.69,-0.997 0.308,-0.301 0.573,-0.636 0.802,-0.976 0.31,-0.448 0.319,-0.863 0.006,-1.247 -0.098,-0.005 -0.232,0.071 -0.414,0.199 -0.866,0.206 -1.641,0.22 -2.318,0.03 -0.199,-0.046 -0.409,-0.106 -0.616,-0.19 0.007,0.686 -0.075,1.308 -0.26,1.876 -0.005,0.036 -0.013,0.084 -0.033,0.129 -0.026,0.081 -0.065,0.161 -0.091,0.242 -0.02,0.034 -0.038,0.08 -0.055,0.113 -0.084,0.121 -0.151,0.232 -0.209,0.356 0.008,0.026 0.004,0.049 -0.014,0.071 -0.006,0.036 -0.021,0.058 -0.049,0.077 -0.003,0.013 -0.005,0.024 -0.018,0.034 l 0.01,0.014 z"
         id="path659"
         style="fill:#00a0e9" />
      <path
         d="m 523.164,314.088 c 0.175,0.116 0.31,0.261 0.386,0.458 0.336,0.829 0.844,1.357 1.51,1.556 0.791,0.16 1.781,-0.05 2.957,-0.619 0.014,-0.011 0.025,-0.009 0.037,-0.007 0.039,-0.017 0.068,-0.037 0.106,-0.042 0.013,-0.011 0.013,-0.011 0.026,-0.02 0.015,-0.011 0.025,-0.008 0.027,-0.02 0.04,-0.018 0.092,-0.034 0.146,-0.06 0.029,-0.033 0.068,-0.05 0.111,-0.079 l 0.015,-0.01 c 4.51,-3.109 5.788,-7.149 3.825,-12.124 -1.213,-2.203 -2.942,-3.551 -5.181,-4.057 0.55,1.086 0.995,2.411 1.341,3.962 0.006,0.039 0.008,0.088 0.015,0.138 0.332,4.917 -1.442,8.566 -5.321,10.924"
         id="path661"
         style="fill:#00a0e9" />
      <path
         d="m 431.255,345.768 c -6.327,1.986 -10.652,4.373 -12.972,7.135 -1.163,1.388 -2.266,3.286 -3.317,5.714 -0.757,1.759 -1.791,4.592 -3.12,8.519 -3.838,10.809 -7.638,20.302 -11.397,28.495 -3.741,8.16 -5.388,16.078 -4.949,23.727 0.453,7.643 2.525,14.309 6.228,19.984 3.592,5.572 8.293,9.652 14.102,12.244 6.046,2.691 12.52,3.383 19.395,2.074 13.543,-2.579 25.372,-5.639 35.463,-9.158 9.858,-3.443 17.992,-7.305 24.428,-11.592 2.099,-1.406 3.787,-2.588 5.048,-3.566 1.676,-1.311 3.062,-2.557 4.162,-3.771 1.243,-1.375 2.368,-2.725 3.372,-4.039 4.352,-5.75 6.844,-11.506 7.462,-17.271 0.688,-5.312 -0.755,-11.902 -4.306,-19.768 -3.543,-7.853 -7.396,-14.081 -11.578,-18.677 -4.184,-4.594 -7.258,-7.8 -9.244,-9.628 -2.051,-1.882 -4.744,-4.143 -8.086,-6.769 -3.441,-2.698 -7.01,-4.957 -10.691,-6.799 -3.67,-1.819 -6.822,-3.454 -9.472,-4.903 -19.054,4.969 -29.226,7.653 -30.528,8.049"
         id="path663"
         style="fill:#00a0e9" />
      <path
         d="m 418.283,352.902 c -1.164,1.389 -2.266,3.287 -3.317,5.714 -0.758,1.759 -1.791,4.593 -3.121,8.519 -3.837,10.809 -7.638,20.302 -11.396,28.496 -3.741,8.16 -5.389,16.078 -4.949,23.727 0.452,7.643 2.525,14.309 6.227,19.984 3.593,5.572 8.294,9.652 14.102,12.244 6.046,2.691 12.521,3.383 19.396,2.074 13.543,-2.58 25.372,-5.639 35.463,-9.158 9.859,-3.443 17.992,-7.305 24.428,-11.592 2.1,-1.406 3.788,-2.588 5.048,-3.566 1.677,-1.311 3.062,-2.557 4.161,-3.771 1.245,-1.375 2.369,-2.725 3.373,-4.039 4.352,-5.75 6.844,-11.506 7.461,-17.271 0.689,-5.312 -0.754,-11.902 -4.305,-19.769 -3.543,-7.853 -7.396,-14.081 -11.578,-18.676 -4.184,-4.595 -7.258,-7.801 -9.243,-9.628 -2.052,-1.883 -4.745,-4.144 -8.087,-6.769 -3.441,-2.699 -7.012,-4.958 -10.691,-6.8 -3.671,-1.819 -6.824,-3.453 -9.472,-4.903 -19.055,4.971 -29.227,7.653 -30.528,8.05 -6.327,1.985 -10.653,4.372 -12.972,7.134 z"
         id="path665"
         style="fill:none;stroke:#00489c;stroke-width:1.97899997;stroke-linecap:round;stroke-miterlimit:10" />
      <path
         d="m 470.269,417.615 20.273,1.014 -5.008,37.051 c 2.295,-0.152 4.619,-0.186 6.957,-0.094 4.022,0.229 7.994,0.846 11.895,1.873 3.786,1.016 7.273,2.629 10.451,4.84 1.609,1.129 2.936,2.754 3.988,4.873 1.051,2.119 0.016,3.879 -3.127,5.309 -0.535,0.293 -1.084,0.572 -1.634,0.854 -4.272,2.143 -8.78,3.396 -13.549,3.762 -12.543,1.568 -26.577,0.801 -42.086,-2.309 -0.458,-0.279 -0.843,-0.666 -1.167,-1.16 -1.042,-2.057 -1.593,-4.241 -1.646,-6.547 -0.03,-0.93 0.074,-1.877 0.29,-2.838 l 14.363,-46.628 z"
         id="path667"
         style="fill:#00a0e9" />
      <path
         d="m 490.542,418.629 -5.008,37.051 c 2.295,-0.152 4.618,-0.186 6.957,-0.094 4.022,0.229 7.994,0.846 11.895,1.873 3.785,1.016 7.273,2.629 10.451,4.84 1.609,1.129 2.936,2.754 3.988,4.873 1.051,2.119 0.016,3.879 -3.127,5.309 -0.535,0.293 -1.085,0.572 -1.634,0.854 -4.272,2.143 -8.78,3.396 -13.549,3.762 -12.543,1.568 -26.577,0.801 -42.086,-2.309 -0.458,-0.279 -0.843,-0.666 -1.167,-1.16 -1.042,-2.057 -1.593,-4.24 -1.646,-6.547 -0.03,-0.93 0.074,-1.877 0.289,-2.838 l 14.362,-46.627"
         id="path669"
         style="fill:none;stroke:#00489c;stroke-width:1.97500002;stroke-linecap:round;stroke-miterlimit:10" />
      <path
         d="m 434.386,284.765 c -0.84,1.47 -1.386,2.99 -1.635,4.532 -0.804,-0.668 -1.535,-1.19 -2.216,-1.547 -3.127,-1.625 -6.463,-1.952 -9.981,-0.963 -3.518,0.988 -6.202,2.984 -8.062,5.993 -1.844,3.016 -2.32,6.174 -1.427,9.459 0.369,1.337 0.924,2.537 1.648,3.593 -0.114,0.047 -0.221,0.109 -0.32,0.152 -0.576,0.259 -1.117,0.507 -1.609,0.752 -1.022,0.489 -1.985,0.999 -2.912,1.51 -4.027,2.186 -7.214,4.47 -9.564,6.841 -6.96,6.97 -8.124,16.501 -3.51,28.577 1.557,4.075 4.168,7.56 7.828,10.444 3.542,2.791 7.805,4.822 12.804,6.093 10.617,2.707 21.907,1.808 33.849,-2.693 7.534,-2.845 13.619,-6.118 18.264,-9.793 4.154,-3.313 7.582,-7.242 10.296,-11.802 0.271,-0.461 0.538,-0.935 0.807,-1.408 0.117,-0.231 0.244,-0.477 0.371,-0.712 1.949,-3.737 3.152,-7.707 3.606,-11.934 0.173,-1.946 0.091,-3.892 -0.231,-5.852 -0.282,-1.74 -0.766,-3.48 -1.437,-5.215 -1.442,-3.709 -3.028,-6.79 -4.774,-9.25 -0.362,-0.507 -0.731,-1.001 -1.117,-1.464 -3.575,-4.349 -8.164,-6.889 -13.779,-7.629 l -1.92,-0.162 c 0.213,-0.728 0.244,-1.476 0.113,-2.252 -0.037,-0.403 -0.069,-0.743 -0.119,-1.026 -0.084,-0.466 -0.176,-0.879 -0.271,-1.224 -0.982,-3.569 -3.093,-6.265 -6.33,-8.088 -3.227,-1.826 -6.627,-2.237 -10.223,-1.251 -3.595,0.986 -6.307,3.094 -8.149,6.319"
         id="path671"
         style="fill:#00a0e9" />
      <path
         d="m 432.751,289.297 c -0.804,-0.668 -1.536,-1.19 -2.216,-1.547 -3.127,-1.625 -6.464,-1.952 -9.981,-0.963 -3.518,0.988 -6.202,2.984 -8.062,5.992 -1.845,3.017 -2.32,6.175 -1.428,9.46 0.37,1.336 0.924,2.537 1.648,3.593 -0.113,0.047 -0.22,0.109 -0.319,0.152 -0.577,0.259 -1.118,0.506 -1.609,0.751 -1.022,0.49 -1.986,1 -2.912,1.511 -4.027,2.185 -7.214,4.469 -9.564,6.841 -6.96,6.97 -8.124,16.501 -3.511,28.577 1.558,4.075 4.168,7.56 7.829,10.444 3.542,2.791 7.805,4.822 12.804,6.092 10.617,2.708 21.906,1.809 33.849,-2.692 7.534,-2.845 13.619,-6.118 18.265,-9.793 4.152,-3.313 7.582,-7.242 10.293,-11.802 0.271,-0.461 0.541,-0.935 0.81,-1.408 0.117,-0.231 0.243,-0.478 0.37,-0.712 1.947,-3.737 3.152,-7.707 3.607,-11.934 0.17,-1.946 0.09,-3.892 -0.232,-5.852 -0.282,-1.74 -0.766,-3.481 -1.436,-5.215 -1.443,-3.709 -3.028,-6.79 -4.775,-9.25 -0.363,-0.508 -0.73,-1.001 -1.117,-1.464 -3.576,-4.349 -8.164,-6.889 -13.776,-7.629 l -1.924,-0.162 c 0.215,-0.728 0.244,-1.476 0.114,-2.253 -0.038,-0.402 -0.068,-0.742 -0.12,-1.025 -0.083,-0.466 -0.175,-0.879 -0.27,-1.225 -0.982,-3.569 -3.092,-6.264 -6.33,-8.087 -3.227,-1.826 -6.628,-2.237 -10.222,-1.251 -3.597,0.986 -6.308,3.094 -8.149,6.319 -0.842,1.469 -1.387,2.99 -1.636,4.532 z"
         id="path673"
         style="fill:none;stroke:#00489c;stroke-width:1.954;stroke-linecap:round;stroke-miterlimit:10" />
      <path
         d="m 434.686,286.124 c -0.741,1.542 -1.165,3.089 -1.25,4.632 -1.079,-1.14 -2.402,-2.06 -3.985,-2.756 -3.125,-1.339 -6.308,-1.417 -9.542,-0.207 -3.238,1.237 -5.594,3.39 -7.045,6.453 -1.475,3.068 -1.624,6.176 -0.474,9.315 1.172,3.132 3.318,5.376 6.434,6.732 3.102,1.346 6.281,1.412 9.535,0.183 3.234,-1.209 5.578,-3.36 7.042,-6.425 0.73,-1.539 1.13,-3.076 1.214,-4.621 1.078,1.14 2.425,2.051 4.017,2.733 3.15,1.344 6.365,1.398 9.645,0.175 3.269,-1.222 5.647,-3.382 7.129,-6.466 1.499,-3.077 1.659,-6.187 0.487,-9.319 -1.155,-3.113 -3.312,-5.354 -6.466,-6.71 -3.137,-1.336 -6.339,-1.394 -9.608,-0.173 -3.263,1.231 -5.646,3.38 -7.133,6.454"
         id="path675"
         style="fill:#f3f3f3" />
      <path
         d="m 433.656,292.73 c -1.113,-0.822 -2.336,-1.13 -3.694,-0.918 -1.357,0.211 -2.44,0.859 -3.267,1.948 -0.823,1.112 -1.13,2.336 -0.917,3.694 0.211,1.358 0.858,2.439 1.946,3.266 1.115,0.835 2.342,1.156 3.7,0.943 1.357,-0.211 2.438,-0.859 3.261,-1.972 0.835,-1.115 1.155,-2.341 0.943,-3.699 -0.212,-1.358 -0.86,-2.438 -1.972,-3.262"
         id="path677" />
      <path
         d="m 447.351,280.92 c -1.113,-0.823 -2.337,-1.131 -3.696,-0.919 -1.359,0.212 -2.437,0.859 -3.265,1.948 -0.822,1.114 -1.13,2.336 -0.918,3.694 0.21,1.359 0.858,2.44 1.946,3.267 1.116,0.834 2.343,1.155 3.699,0.943 1.359,-0.211 2.44,-0.86 3.263,-1.972 0.834,-1.116 1.155,-2.341 0.943,-3.699 -0.213,-1.36 -0.862,-2.439 -1.972,-3.262"
         id="path679" />
      <path
         d="m 468.279,305.024 c 1.379,-1.805 2.373,-3.336 2.99,-4.572 -7.171,9.269 -19.086,15.713 -35.749,19.351 -5.209,1.129 -10.588,1.908 -16.137,2.349 l -6.748,0.296 c 18.291,3.294 33.548,0.623 45.785,-8.016 3.823,-2.711 7.106,-5.837 9.859,-9.408"
         id="path681" />
      <path
         d="m 428.298,430.621 20.271,1.016 -5.008,37.051 c 2.296,-0.152 4.617,-0.186 6.956,-0.094 4.022,0.227 7.994,0.846 11.894,1.871 3.787,1.016 7.275,2.629 10.453,4.84 1.611,1.129 2.936,2.754 3.986,4.875 1.051,2.117 0.016,3.879 -3.125,5.309 -0.537,0.289 -1.086,0.572 -1.636,0.852 -4.271,2.145 -8.778,3.398 -13.547,3.762 -12.545,1.57 -26.576,0.801 -42.086,-2.307 -0.458,-0.277 -0.843,-0.664 -1.166,-1.158 -1.044,-2.061 -1.593,-4.242 -1.647,-6.549 -0.031,-0.93 0.074,-1.877 0.288,-2.838 l 14.367,-46.63 z"
         id="path683"
         style="fill:#00a0e9" />
      <path
         d="m 448.568,431.637 -5.008,37.051 c 2.297,-0.152 4.619,-0.186 6.956,-0.094 4.023,0.227 7.996,0.846 11.895,1.871 3.786,1.016 7.276,2.629 10.452,4.84 1.612,1.129 2.937,2.754 3.988,4.875 1.05,2.117 0.015,3.879 -3.127,5.309 -0.535,0.289 -1.084,0.572 -1.634,0.852 -4.271,2.145 -8.78,3.398 -13.548,3.762 -12.544,1.57 -26.577,0.801 -42.086,-2.307 -0.457,-0.277 -0.842,-0.664 -1.165,-1.158 -1.045,-2.061 -1.593,-4.242 -1.648,-6.549 -0.03,-0.931 0.074,-1.877 0.288,-2.838 l 14.366,-46.629"
         id="path685"
         style="fill:none;stroke:#00489c;stroke-width:1.97500002;stroke-linecap:round;stroke-miterlimit:10" />
      <path
         d="m 472.021,343.683 c -1.162,-0.701 -2.25,-1.334 -3.277,-1.882 -1.305,1.043 -2.635,1.953 -3.992,2.727 -2.545,1.565 -4.147,2.554 -4.836,2.977 -0.982,0.6 -3.227,1.65 -6.73,3.15 l -3.644,1.076 -0.259,-0.002 -2.58,0.738 -0.252,0.021 -2.653,0.758 -0.252,0.023 -2.212,0.629 c -0.143,0.003 -0.241,0.019 -0.299,0.036 l -2.396,0.669 c -4.237,0.942 -7.41,1.596 -9.522,1.96 -3.67,0.635 -6.494,0.811 -8.479,0.508 -1.418,-0.215 -2.538,-0.425 -3.341,-0.652 -0.139,-0.037 -0.279,-0.074 -0.411,-0.125 -0.533,0.946 -1.059,2.004 -1.55,3.18 -0.668,1.578 -1.677,4.365 -3.021,8.374 -1.839,5.433 -3.688,10.57 -5.539,15.439 l -2.773,6.816 c -0.892,2.045 -1.778,4.022 -2.643,5.941 -3.674,8.002 -5.293,15.752 -4.869,23.254 0.438,7.465 2.46,13.963 6.07,19.502 l 0.005,0.012 c 0.472,0.725 0.962,1.432 1.483,2.102 l 1.475,1.848 2.331,2.434 c 2.523,2.428 5.396,4.379 8.626,5.838 5.913,2.676 12.218,3.369 18.911,2.1 34.206,-6.48 57.351,-16.205 69.441,-29.207 9.896,-10.65 12.087,-23.008 6.581,-37.107 -4.323,-11.094 -12.629,-21.927 -24.907,-32.527 -4.861,-4.191 -9.699,-7.728 -14.486,-10.61"
         id="path687"
         style="fill:#00a0e9" />
      <path
         d="m 405.07,366.736 -0.012,-0.004 c -1.068,0.324 -2.142,0.66 -3.192,1.004 -2.885,0.92 -5.62,2.088 -8.185,3.485 -3.552,1.727 -6.756,3.957 -9.61,6.666 -0.583,0.554 -1.17,1.119 -1.73,1.68 -2.854,2.846 -4.585,6.222 -5.218,10.146 -0.003,0.012 -0.012,0.035 -0.011,0.063 -0.094,1.126 -0.059,2.272 0.114,3.448 0.509,3.52 2.347,6.186 5.511,8.002 l -0.012,-0.008 c 1.559,0.92 3.184,1.701 4.855,2.363 1.896,0.746 3.855,1.234 5.891,1.447 0.016,-0.008 0.016,-0.008 0.028,-0.002 5.109,0.68 12.188,0.648 21.227,-0.1 0.029,-0.002 0.057,-0.006 0.086,-0.008 l 11.177,-1.82 c 0.276,-0.043 0.497,-0.191 0.664,-0.412 0.156,-0.227 0.213,-0.479 0.17,-0.754 -0.043,-0.277 -0.185,-0.512 -0.411,-0.668 -0.223,-0.168 -0.473,-0.223 -0.751,-0.18 l -0.015,0.006 -11.117,1.805 c -8.856,0.735 -15.787,0.771 -20.796,0.115 -0.011,-0.005 -0.011,-0.005 -0.024,-0.008 -1.856,-0.188 -3.637,-0.631 -5.381,-1.322 -1.575,-0.623 -3.094,-1.363 -4.567,-2.219 l -0.01,-0.006 c -2.584,-1.48 -4.095,-3.649 -4.509,-6.531 -0.153,-1.016 -0.183,-1.999 -0.097,-2.963 l -0.014,0.076 c 0.569,-3.483 2.118,-6.491 4.644,-9.026 0.561,-0.564 1.128,-1.109 1.707,-1.651 2.706,-2.573 5.733,-4.668 9.088,-6.306 0.017,-0.007 0.021,-0.019 0.039,-0.027 2.476,-1.349 5.097,-2.466 7.87,-3.346 l 0.016,-0.008 c 1.046,-0.334 2.091,-0.667 3.16,-0.991 l -0.017,0.008 7.049,-2.066 c 0.017,-0.007 0.033,-0.015 0.049,-0.022 0.239,-0.086 0.422,-0.246 0.551,-0.47 0.136,-0.248 0.17,-0.508 0.094,-0.771 -0.084,-0.278 -0.251,-0.48 -0.488,-0.612 -0.247,-0.137 -0.513,-0.158 -0.775,-0.081 l -7.048,2.068 z"
         id="path689"
         style="fill:#003d91" />
      <path
         d="m 412.735,366.603 c -0.016,0.008 -0.031,0.016 -0.049,0.023 l -7.049,2.066 0.018,-0.007 c -1.07,0.323 -2.115,0.657 -3.16,0.991 l -0.016,0.007 c -2.774,0.88 -5.395,1.997 -7.871,3.346 -0.018,0.008 -0.021,0.02 -0.039,0.028 -3.355,1.638 -6.382,3.733 -9.088,6.306 -0.579,0.541 -1.146,1.087 -1.707,1.65 -2.525,2.535 -4.075,5.542 -4.644,9.026 l 0.015,-0.076 c -0.086,0.964 -0.057,1.947 0.096,2.963 0.415,2.882 1.926,5.051 4.509,6.531 l 0.011,0.006 c 1.473,0.855 2.991,1.596 4.566,2.219 1.744,0.691 3.526,1.135 5.381,1.322 0.013,0.004 0.013,0.004 0.024,0.008 5.01,0.656 11.94,0.621 20.797,-0.115 l 11.116,-1.805 -2.795,-16.421 c -0.041,-0.002 -0.074,0.014 -0.103,0.016 l -29.501,1.799 c -0.29,0.012 -0.528,-0.08 -0.746,-0.26 -0.212,-0.193 -0.315,-0.425 -0.329,-0.703 -0.015,-0.278 0.065,-0.521 0.245,-0.738 0.192,-0.212 0.423,-0.315 0.702,-0.329 l 25.43,-1.56 -5.813,-16.293 z"
         id="path691"
         style="fill:#00a0e9" />
      <path
         d="m 392.5,386.227 c 0.218,0.18 0.456,0.271 0.746,0.26 l 29.501,-1.8 c 0.028,-0.002 0.062,-0.017 0.103,-0.015 0.23,-0.033 0.426,-0.149 0.591,-0.33 0.181,-0.218 0.272,-0.455 0.258,-0.734 -0.014,-0.28 -0.129,-0.515 -0.341,-0.708 -0.217,-0.179 -0.461,-0.259 -0.74,-0.245 l -4.071,0.241 -25.429,1.56 c -0.279,0.015 -0.51,0.117 -0.702,0.329 -0.18,0.217 -0.26,0.459 -0.245,0.739 0.015,0.279 0.118,0.509 0.329,0.703"
         id="path693"
         style="fill:#003d91" />
      <path
         d="m 429.063,382.351 c 3.138,-1.073 5.379,-1.427 6.699,-1.069 1.512,0.41 2.522,0.866 3.029,1.382 0.347,0.353 0.457,0.761 0.347,1.211 0.016,0.043 0.034,0.074 0.05,0.104 -0.357,-0.071 -0.797,-0.073 -1.322,-0.007 -0.537,0.061 -1.032,0.11 -1.482,0.142 3.373,1.839 6.234,3.563 8.585,5.15 0.77,0.509 1.531,1.064 2.267,1.654 0.642,0.512 1.219,1.071 1.726,1.69 0.359,0.448 0.681,0.938 0.965,1.47 0.784,1.423 1.027,2.879 0.719,4.393 -0.122,0.215 -0.313,0.396 -0.549,0.541 -1.04,0.486 -2.274,0.334 -3.702,-0.484 -1.886,-2.293 -3.714,-3.699 -5.484,-4.218 -1.783,-0.522 -2.814,-0.789 -3.114,-0.792 l 7.198,6.436 c 2.268,2.709 3.122,4.785 2.56,6.232 -0.824,1.648 -2.174,2.166 -4.028,1.572 -3.288,-3.115 -5.505,-5.146 -6.654,-6.082 l -0.008,-0.016 c -1.262,-1.004 -2.205,-1.65 -2.838,-1.951 -0.219,-0.1 -0.447,-0.121 -0.671,-0.066 -0.094,0.016 -0.167,0.045 -0.242,0.078 0.321,0.205 1.248,1.533 2.795,4.02 1.537,2.484 2.306,4.578 2.316,6.27 0.006,1.703 -0.208,2.635 -0.643,2.801 -0.23,0.42 -0.663,0.627 -1.276,0.629 -1.849,-0.033 -3.526,-1.23 -5.006,-3.58 -1.755,-2.775 -2.983,-4.578 -3.684,-5.391 -0.107,-0.135 -0.249,-0.238 -0.414,-0.297 -0.167,-0.057 -0.334,-0.062 -0.495,-0.043 -0.72,0.117 -1.398,0.168 -2.018,0.154 -1.697,-0.213 -3.212,-0.57 -4.549,-1.051 -0.223,-0.086 -0.431,-0.184 -0.652,-0.281 -0.138,-0.064 -0.277,-0.127 -0.4,-0.199 -0.415,-0.01 -1.045,0.016 -1.901,0.057 -0.859,0.051 -1.687,0.088 -2.485,0.105 -0.798,0.018 -1.415,0.045 -1.83,0.088 0.106,0.041 0.209,0.668 0.328,1.857 l 4.974,-0.275 c 0.19,-0.078 0.603,0.033 1.208,0.34 0.787,0.357 1.661,0.686 2.623,1.01 l 1.201,0.273 c 0.962,0.146 2.029,0.137 3.228,-0.02 0.691,0.9 1.743,2.488 3.17,4.746 1.957,3.09 4.188,4.592 6.716,4.512 1.55,-0.008 2.586,-0.611 3.085,-1.789 0.476,-0.936 0.495,-2.348 0.08,-4.215 -0.316,-1.373 -0.792,-2.736 -1.432,-4.066 1.121,1.045 2.542,2.365 4.247,3.986 0.102,0.105 0.225,0.178 0.354,0.225 3.127,1.123 5.36,0.271 6.702,-2.521 0.863,-1.6 0.434,-3.51 -1.312,-5.75 1.083,0.176 2.09,0.006 3.006,-0.537 0.346,-0.18 0.655,-0.408 0.906,-0.664 0.487,-0.504 0.752,-1.135 0.792,-1.865 0.145,-1.441 -0.102,-2.834 -0.717,-4.157 -1.214,-2.617 -2.96,-4.715 -5.232,-6.294 -1.983,-1.604 -4.024,-2.703 -6.125,-3.298 0.072,-0.41 0.022,-0.801 -0.118,-1.189 0.014,-0.009 0.022,-0.034 0.036,-0.042 -0.09,-0.427 -0.315,-0.8 -0.686,-1.11 -0.539,-0.744 -1.968,-1.417 -4.289,-2.008 -3.159,-0.48 -6.904,0.298 -11.239,2.332 -1.474,0.692 -2.702,1.191 -3.693,1.494 -0.267,0.694 -0.311,1.151 -0.119,1.344 0.131,0.142 0.211,0.228 0.218,0.255 l 1.427,-0.184 0.391,-0.193 c 0.076,-0.045 0.166,-0.086 0.255,-0.125 2.108,-1.03 4.174,-1.937 6.206,-2.724"
         id="path695"
         style="fill:#003d91" />
      <path
         d="m 435.763,381.281 c -1.32,-0.358 -3.561,-0.003 -6.699,1.069 -2.032,0.787 -4.098,1.695 -6.208,2.721 -0.09,0.04 -0.179,0.082 -0.256,0.126 l -0.391,0.193 -1.426,0.184 -0.029,0.006 -0.012,-0.004 0.238,-0.012 c -0.304,0.163 -0.514,0.314 -0.635,0.424 -0.652,0.2 -1.343,0.494 -2.059,0.884 -2.526,1.407 -4.066,3.108 -4.613,5.118 -0.021,0.086 -0.045,0.363 -0.059,0.841 -0.901,2.368 -1.181,5.646 -0.828,9.81 -0.021,0.033 -0.032,0.068 -0.053,0.102 l 0.097,0.262 c 0.016,-0.01 0.029,-0.006 0.04,-0.002 0.416,-0.043 1.033,-0.07 1.831,-0.088 0.797,-0.018 1.626,-0.055 2.485,-0.105 0.856,-0.041 1.486,-0.066 1.901,-0.057 0.122,0.072 0.262,0.135 0.4,0.199 0.22,0.098 0.428,0.195 0.652,0.281 1.337,0.48 2.852,0.838 4.548,1.053 0.621,0.012 1.299,-0.039 2.018,-0.156 0.162,-0.02 0.329,-0.014 0.496,0.043 0.165,0.059 0.307,0.162 0.414,0.297 0.701,0.812 1.929,2.615 3.684,5.391 1.48,2.35 3.157,3.547 5.006,3.58 0.612,-0.002 1.045,-0.209 1.275,-0.629 0.436,-0.166 0.65,-1.098 0.644,-2.801 -0.01,-1.691 -0.779,-3.785 -2.316,-6.27 -1.547,-2.486 -2.474,-3.814 -2.795,-4.02 0.075,-0.033 0.148,-0.062 0.242,-0.078 0.224,-0.055 0.452,-0.033 0.671,0.066 0.633,0.301 1.575,0.947 2.838,1.951 l 0.008,0.016 c 1.149,0.936 3.366,2.967 6.655,6.081 1.854,0.595 3.203,0.077 4.027,-1.571 0.562,-1.447 -0.292,-3.523 -2.56,-6.232 l -7.197,-6.436 c 0.3,0.003 1.331,0.27 3.114,0.792 1.77,0.519 3.598,1.925 5.483,4.218 1.43,0.818 2.663,0.971 3.703,0.484 0.234,-0.145 0.428,-0.326 0.549,-0.541 0.308,-1.514 0.065,-2.97 -0.719,-4.393 -0.284,-0.531 -0.605,-1.021 -0.965,-1.47 -0.508,-0.619 -1.084,-1.179 -1.725,-1.69 -0.737,-0.59 -1.497,-1.146 -2.268,-1.654 -2.351,-1.587 -5.212,-3.312 -8.585,-5.15 0.45,-0.032 0.944,-0.081 1.482,-0.142 0.525,-0.066 0.964,-0.064 1.322,0.008 -0.016,-0.031 -0.034,-0.061 -0.05,-0.104 0.11,-0.451 0,-0.859 -0.348,-1.212 -0.505,-0.517 -1.515,-0.972 -3.027,-1.383 m -0.022,3.191 c 0.026,0.008 0.048,0.014 0.078,0.008 -0.156,-0.002 -0.308,-0.017 -0.451,-0.017 0.121,-0.019 0.236,-0.015 0.373,0.009 m -15.788,3.008 -0.088,-0.154 c 0.082,0.036 0.15,0.068 0.224,0.087 -0.047,0.027 -0.09,0.041 -0.136,0.067 m 1.272,-0.902 c -0.003,0.012 -0.057,0.062 -0.144,0.144 -0.102,0.088 -0.181,0.146 -0.258,0.189 -0.058,-0.029 -0.045,-0.077 0.054,-0.154 0.083,-0.067 0.188,-0.118 0.317,-0.16 l 0.031,-0.019 z m 1.04,-0.822 c 0.021,-0.02 0.051,-0.037 0.068,-0.047 l 0.009,0.055 c -0.024,-0.006 -0.048,-0.014 -0.077,-0.008 m 0.604,0.605 c 0.015,-0.008 0.046,-0.025 0.062,-0.034 -0.003,0.011 -0.003,0.011 0.007,0.015 -0.014,0.008 -0.025,0.006 -0.029,0.018 -0.017,0.009 -0.028,0.005 -0.04,10e-4"
         id="path697"
         style="fill:#00a0e9" />
      <path
         d="m 435.819,384.48 c -0.03,0.006 -0.052,0 -0.078,-0.008 -0.136,-0.023 -0.252,-0.028 -0.374,-0.009 0.143,0 0.296,0.015 0.452,0.017"
         id="path699"
         style="fill:#003d91" />
    </g>
  </g>
</svg>
