<?xml version="1.0" encoding="UTF-8" standalone="no"?>
<!-- Created with Inkscape (http://www.inkscape.org/) -->

<svg
   xmlns:dc="http://purl.org/dc/elements/1.1/"
   xmlns:cc="http://creativecommons.org/ns#"
   xmlns:rdf="http://www.w3.org/1999/02/22-rdf-syntax-ns#"
   xmlns:svg="http://www.w3.org/2000/svg"
   xmlns="http://www.w3.org/2000/svg"
   version="1.1"
   width="195"
   height="235"
   id="svg4502">
  <defs
     id="defs4504" />
  <metadata
     id="metadata4507">
    <rdf:RDF>
      <cc:Work
         rdf:about="">
        <dc:format>image/svg+xml</dc:format>
        <dc:type
           rdf:resource="http://purl.org/dc/dcmitype/StillImage" />
        <dc:title></dc:title>
      </cc:Work>
    </rdf:RDF>
  </metadata>
  <g
     transform="translate(0,-245)"
     id="layer1">
    <g
       transform="translate(-340.17403,-263.39808)"
       id="g841">
      <path
         d="m 471.569,565.744 c 1.6,17.836 -18.421,34.178 -44.715,36.496 -26.296,2.316 -48.785,-10.273 -50.511,-28.096 -2.795,-28.88 18.329,-31.6 44.625,-33.916 26.296,-2.32 48.539,-5.115 50.601,25.516"
         id="path843"
         style="fill:#00a0e9" />
      <path
         d="m 471.569,565.744 c 1.6,17.836 -18.421,34.178 -44.715,36.496 -26.296,2.316 -48.785,-10.273 -50.511,-28.096 -2.795,-28.88 18.329,-31.6 44.625,-33.916 26.296,-2.32 48.539,-5.115 50.601,25.516"
         id="path845"
         style="fill:none;stroke:#00499d;stroke-width:4.01499987" />
      <path
         d="m 408.467,586.76 c -15.424,10.863 -75.578,130.658 59.483,102.66 24.942,-5.17 33.098,-42.09 10.609,-68.242 -36.736,-42.723 -16.757,-41.198 -70.092,-34.418"
         id="path847"
         style="fill:#00a0e9" />
      <path
         d="m 408.467,586.76 c -15.424,10.863 -75.578,130.658 59.483,102.66 24.942,-5.17 33.098,-42.09 10.609,-68.242 -36.736,-42.723 -16.757,-41.198 -70.092,-34.418"
         id="path849"
         style="fill:none;stroke:#00499d;stroke-width:4.01499987" />
      <path
         d="m 366.352,659.291 c 1.549,0.379 10.525,15.652 5.479,20.09 -3.562,3.131 -8.622,-3.064 -10.09,-5.189 0.787,1.85 -0.272,14.018 -3.782,14.719 -8.043,1.609 -8.167,-9.078 -8.057,-16.709 -0.574,2.385 -0.747,13.695 -4.968,12.727 -7.72,-0.723 -6.09,-15.451 -4.681,-16.826 -1.592,2.568 -1.351,10.436 -8.468,8.146 -4.357,-1.406 0.888,-26.684 24.865,-23.559"
         id="path851"
         style="fill:#00a0e9" />
      <path
         d="m 366.352,659.291 c 1.549,0.379 10.525,15.652 5.479,20.09 -3.562,3.131 -8.622,-3.064 -10.09,-5.189 0.787,1.85 -0.272,14.018 -3.782,14.719 -8.043,1.609 -8.167,-9.078 -8.057,-16.709 -0.574,2.385 -0.747,13.695 -4.968,12.727 -7.72,-0.723 -6.09,-15.451 -4.681,-16.826 -1.592,2.568 -1.351,10.436 -8.468,8.146 -4.357,-1.406 0.888,-26.684 24.865,-23.559"
         id="path853"
         style="fill:none;stroke:#00499d;stroke-width:4.01499987" />
      <path
         d="m 346.772,659.697 c 1.932,-10.846 6.157,-19.814 11.387,-26.844 5.232,-7.047 11.392,-12.172 17.195,-15.863 11.634,-7.363 21.849,-9.225 22.652,-9.395 h 0.002 l 3.664,20.102 0.038,0.182 c -0.072,0.016 -0.213,0.045 -0.416,0.094 -0.408,0.094 -1.067,0.258 -1.919,0.51 -1.708,0.502 -4.192,1.35 -7.007,2.66 -5.659,2.619 -12.503,7.037 -17.649,13.996 -3.445,4.663 -6.252,10.457 -7.653,18.199 l -20.294,-3.641 z"
         id="path855"
         style="fill:#00a0e9" />
      <path
         d="m 346.772,659.697 c 1.932,-10.846 6.157,-19.814 11.387,-26.844 5.232,-7.047 11.392,-12.172 17.195,-15.863 11.634,-7.363 21.849,-9.225 22.652,-9.395 h 0.002 l 3.664,20.102 0.038,0.182 c -0.072,0.016 -0.213,0.045 -0.416,0.094 -0.408,0.094 -1.067,0.258 -1.919,0.51 -1.708,0.502 -4.192,1.35 -7.007,2.66 -5.659,2.619 -12.503,7.037 -17.649,13.996 -3.445,4.663 -6.252,10.457 -7.653,18.199 l -20.294,-3.641 z"
         id="path857"
         style="fill:none;stroke:#00499d;stroke-width:4.01499987" />
      <path
         d="m 506.005,635.285 c -1.276,0.953 -3.586,18.516 2.791,20.635 4.502,1.496 6.746,-6.186 7.267,-8.717 -0.004,2.014 5.717,12.805 9.223,12.08 8.032,-1.654 3.981,-11.541 0.901,-18.525 1.46,1.971 6.033,12.316 9.539,9.783 6.826,-3.68 -0.418,-16.605 -2.254,-17.318 2.472,1.74 5.316,9.076 10.975,4.193 3.463,-2.994 -11.224,-24.223 -32.083,-11.994"
         id="path859"
         style="fill:#00a0e9" />
      <path
         d="m 506.005,635.285 c -1.276,0.953 -3.586,18.516 2.791,20.635 4.502,1.496 6.746,-6.186 7.267,-8.717 -0.004,2.014 5.717,12.805 9.223,12.08 8.032,-1.654 3.981,-11.541 0.901,-18.525 1.46,1.971 6.033,12.316 9.539,9.783 6.826,-3.68 -0.418,-16.605 -2.254,-17.318 2.472,1.74 5.316,9.076 10.975,4.193 3.463,-2.994 -11.224,-24.223 -32.083,-11.994"
         id="path861"
         style="fill:none;stroke:#00499d;stroke-width:4.01499987" />
      <path
         d="m 493.249,625.795 c -4.821,-2.924 -9.842,-4.58 -14.533,-5.455 -9.045,-1.721 -16.785,-0.352 -17.515,-0.191 l -4.507,-20.117 c 0.606,-0.131 6.457,-1.412 15.074,-1.127 8.592,0.297 20.098,2.168 31.469,8.842 7.56,4.434 14.945,11.043 20.955,20.273 l -17.266,11.268 c -4.174,-6.376 -8.853,-10.552 -13.677,-13.493 m -32.092,-5.637 c -0.004,0 -0.006,0.002 -0.006,0.002 l -0.698,-3.348 0.748,3.336 c -0.025,0.006 -0.038,0.008 -0.044,0.01"
         id="path863"
         style="fill:#00a0e9" />
      <path
         d="m 493.249,625.795 c -4.821,-2.924 -9.842,-4.58 -14.533,-5.455 -9.045,-1.721 -16.785,-0.352 -17.515,-0.191 l -4.507,-20.117 c 0.606,-0.131 6.457,-1.412 15.074,-1.127 8.592,0.297 20.098,2.168 31.469,8.842 7.56,4.434 14.945,11.043 20.955,20.273 l -17.266,11.268 c -4.174,-6.376 -8.853,-10.552 -13.677,-13.493 z m -32.048,-5.647 m -0.044,0.01 c -0.004,0 -0.006,0.002 -0.006,0.002 l -0.698,-3.348 0.748,3.336 c -0.025,0.006 -0.038,0.008 -0.044,0.01 z"
         id="path865"
         style="fill:none;stroke:#00499d;stroke-width:4.01499987" />
      <path
         d="m 413.376,680.508 c -0.784,0.773 -6.821,26.197 -7.583,28.303 -19.892,-0.107 -33.087,14.768 -29.281,17.764 13.486,10.617 54.624,-2.604 56.064,-4.291 0.824,-0.965 0.924,-2.748 1.101,-4.014 0.344,-2.441 -1.631,-31.715 -1.346,-34.16"
         id="path867"
         style="fill:#00a0e9" />
      <path
         d="m 413.376,680.508 c -0.784,0.773 -6.821,26.197 -7.583,28.303 -19.892,-0.107 -33.087,14.768 -29.281,17.764 13.486,10.617 54.624,-2.604 56.064,-4.291 0.824,-0.965 0.924,-2.748 1.101,-4.014 0.344,-2.441 -1.631,-31.715 -1.346,-34.16"
         id="path869"
         style="fill:none;stroke:#00499d;stroke-width:4.01499987" />
      <path
         d="m 458.992,680.508 c 0.782,0.773 6.821,26.197 7.583,28.303 19.891,-0.107 33.088,14.768 29.283,17.764 -13.49,10.617 -54.625,-2.604 -56.066,-4.291 -0.823,-0.965 -0.925,-2.748 -1.1,-4.014 -0.344,-2.441 1.631,-31.715 1.346,-34.16"
         id="path871"
         style="fill:#00a0e9" />
      <path
         d="m 458.992,680.508 c 0.782,0.773 6.821,26.197 7.583,28.303 19.891,-0.107 33.088,14.768 29.283,17.764 -13.49,10.617 -54.625,-2.604 -56.066,-4.291 -0.823,-0.965 -0.925,-2.748 -1.1,-4.014 -0.344,-2.441 1.631,-31.715 1.346,-34.16"
         id="path873"
         style="fill:none;stroke:#00499d;stroke-width:4.01499987" />
      <path
         d="m 408.467,586.76 c -15.424,10.863 -75.578,130.658 59.483,102.66 24.942,-5.17 33.098,-42.09 10.609,-68.242 -36.736,-42.723 -16.757,-41.198 -70.092,-34.418"
         id="path875"
         style="fill:#00a0e9" />
      <path
         d="m 421.463,534.766 c 0.611,6.865 -4.842,12.955 -12.185,13.609 -7.343,0.65 -13.788,-4.383 -14.399,-11.244 -0.612,-6.865 4.847,-12.957 12.189,-13.609 7.34,-0.653 13.786,4.38 14.395,11.244"
         id="path877"
         style="fill:#00a0e9" />
      <path
         d="m 421.463,534.766 c 0.611,6.865 -4.842,12.955 -12.185,13.609 -7.343,0.65 -13.788,-4.383 -14.399,-11.244 -0.612,-6.865 4.847,-12.957 12.189,-13.609 7.34,-0.653 13.786,4.38 14.395,11.244"
         id="path879"
         style="fill:none;stroke:#00499d;stroke-width:4.01499987" />
      <path
         d="m 446.212,532.434 c 0.61,6.863 -4.849,12.955 -12.188,13.607 -7.339,0.652 -13.789,-4.381 -14.398,-11.244 -0.611,-6.863 4.847,-12.955 12.188,-13.607 7.34,-0.653 13.787,4.38 14.398,11.244"
         id="path881"
         style="fill:#00a0e9" />
      <path
         d="m 446.212,532.434 c 0.61,6.863 -4.849,12.955 -12.188,13.607 -7.339,0.652 -13.789,-4.381 -14.398,-11.244 -0.611,-6.863 4.847,-12.955 12.188,-13.607 7.34,-0.653 13.787,4.38 14.398,11.244"
         id="path883"
         style="fill:none;stroke:#00499d;stroke-width:4.01499987" />
      <path
         d="m 471.569,565.744 c 1.6,17.836 -18.421,34.178 -44.715,36.496 -26.296,2.316 -48.785,-10.273 -50.511,-28.096 -2.795,-28.88 18.329,-31.6 44.625,-33.916 26.296,-2.32 48.539,-5.115 50.601,25.516"
         id="path885"
         style="fill:#00a0e9" />
      <path
         d="m 384.496,559.451 c 0,0 49.96,8.26 76.543,-10.842 0,0 6.029,24.197 -25.438,32.881 0,0 -41.528,12.17 -51.105,-22.039"
         id="path887" />
      <path
         d="m 421.463,534.766 c 0.611,6.865 -4.842,12.955 -12.185,13.609 -7.343,0.65 -13.788,-4.383 -14.399,-11.244 -0.612,-6.865 4.847,-12.957 12.189,-13.609 7.34,-0.653 13.786,4.38 14.395,11.244"
         id="path889"
         style="fill:#ffffff" />
      <path
         d="m 446.212,532.434 c 0.61,6.863 -4.849,12.955 -12.188,13.607 -7.339,0.652 -13.789,-4.381 -14.398,-11.244 -0.611,-6.863 4.847,-12.955 12.188,-13.607 7.34,-0.653 13.787,4.38 14.398,11.244"
         id="path891"
         style="fill:#ffffff" />
      <path
         d="m 417.2,538.719 c -0.149,2.854 -2.582,5.057 -5.439,4.908 -2.855,-0.148 -5.056,-2.582 -4.908,-5.443 0.149,-2.854 2.583,-5.051 5.439,-4.904 2.858,0.148 5.056,2.583 4.908,5.439"
         id="path893" />
      <path
         d="m 434.53,530.291 c -0.146,2.857 -2.583,5.055 -5.44,4.906 -2.856,-0.146 -5.053,-2.58 -4.905,-5.438 0.145,-2.857 2.582,-5.055 5.438,-4.908 2.858,0.147 5.054,2.585 4.907,5.44"
         id="path895" />
      <path
         d="m 366.352,659.291 c 1.549,0.379 10.525,15.652 5.479,20.09 -3.562,3.131 -8.622,-3.064 -10.09,-5.189 0.787,1.85 -0.272,14.018 -3.782,14.719 -8.043,1.609 -8.167,-9.078 -8.057,-16.709 -0.574,2.385 -0.747,13.695 -4.968,12.727 -7.72,-0.723 -6.09,-15.451 -4.681,-16.826 -1.592,2.568 -1.351,10.436 -8.468,8.146 -4.357,-1.406 0.888,-26.684 24.865,-23.559"
         id="path897"
         style="fill:#00a0e9" />
      <path
         d="m 346.772,659.697 c 1.932,-10.846 6.157,-19.814 11.387,-26.844 5.232,-7.047 11.392,-12.172 17.195,-15.863 11.634,-7.363 21.849,-9.225 22.652,-9.395 h 0.002 l 3.664,20.102 0.038,0.182 c -0.072,0.016 -0.213,0.045 -0.416,0.094 -0.408,0.094 -1.067,0.258 -1.919,0.51 -1.708,0.502 -4.192,1.35 -7.007,2.66 -5.659,2.619 -12.503,7.037 -17.649,13.996 -3.445,4.663 -6.252,10.457 -7.653,18.199 l -20.294,-3.641 z"
         id="path899"
         style="fill:#00a0e9" />
      <path
         d="m 506.005,635.285 c -1.276,0.953 -3.586,18.516 2.791,20.635 4.502,1.496 6.746,-6.186 7.267,-8.717 -0.004,2.014 5.717,12.805 9.223,12.08 8.032,-1.654 3.981,-11.541 0.901,-18.525 1.46,1.971 6.033,12.316 9.539,9.783 6.826,-3.68 -0.418,-16.605 -2.254,-17.318 2.472,1.74 5.316,9.076 10.975,4.193 3.463,-2.994 -11.224,-24.223 -32.083,-11.994"
         id="path901"
         style="fill:#00a0e9" />
      <path
         d="m 493.249,625.795 c -4.821,-2.924 -9.842,-4.58 -14.533,-5.455 -9.045,-1.721 -16.785,-0.352 -17.515,-0.191 l -4.507,-20.117 c 0.606,-0.131 6.457,-1.412 15.074,-1.127 8.592,0.297 20.098,2.168 31.469,8.842 7.56,4.434 14.945,11.043 20.955,20.273 l -17.266,11.268 c -4.174,-6.376 -8.853,-10.552 -13.677,-13.493 m -32.092,-5.637 c -0.004,0 -0.006,0.002 -0.006,0.002 l -0.698,-3.348 0.748,3.336 c -0.025,0.006 -0.038,0.008 -0.044,0.01"
         id="path903"
         style="fill:#00a0e9" />
      <path
         d="m 413.376,680.508 c -0.784,0.773 -6.821,26.197 -7.583,28.303 -19.892,-0.107 -33.087,14.768 -29.281,17.764 13.486,10.617 54.624,-2.604 56.064,-4.291 0.824,-0.965 0.924,-2.748 1.101,-4.014 0.344,-2.441 -1.631,-31.715 -1.346,-34.16"
         id="path905"
         style="fill:#00a0e9" />
      <path
         d="m 458.992,680.508 c 0.782,0.773 6.821,26.197 7.583,28.303 19.891,-0.107 33.088,14.768 29.283,17.764 -13.49,10.617 -54.625,-2.604 -56.066,-4.291 -0.823,-0.965 -0.925,-2.748 -1.1,-4.014 -0.344,-2.441 1.631,-31.715 1.346,-34.16"
         id="path907"
         style="fill:#00a0e9" />
    </g>
  </g>
</svg>
