<?xml version="1.0" encoding="UTF-8" standalone="no"?>
<!-- Created with Inkscape (http://www.inkscape.org/) -->

<svg
   xmlns:dc="http://purl.org/dc/elements/1.1/"
   xmlns:cc="http://creativecommons.org/ns#"
   xmlns:rdf="http://www.w3.org/1999/02/22-rdf-syntax-ns#"
   xmlns:svg="http://www.w3.org/2000/svg"
   xmlns="http://www.w3.org/2000/svg"
   version="1.1"
   width="195"
   height="235"
   id="svg4502">
  <defs
     id="defs4504" />
  <metadata
     id="metadata4507">
    <rdf:RDF>
      <cc:Work
         rdf:about="">
        <dc:format>image/svg+xml</dc:format>
        <dc:type
           rdf:resource="http://purl.org/dc/dcmitype/StillImage" />
        <dc:title></dc:title>
      </cc:Work>
    </rdf:RDF>
  </metadata>
  <g
     transform="translate(0,-245)"
     id="layer1">
    <g
       transform="translate(-829.36124,-269.51988)"
       id="g977">
      <path
         d="m 1011.857,666.119 c -1.969,-3.557 -4.719,-6.334 -8.25,-8.326 -4.288,-2.447 -9.41,-3.531 -15.338,-3.305 l -10.897,5.576 c -0.455,0.074 -1.312,0.857 -2.598,2.396 -1.388,1.664 -2.624,3.48 -3.709,5.424 -3.027,5.373 -3.457,9.08 -1.312,11.123 1.514,1.439 3.607,1.389 6.257,-0.125 1.715,-0.984 3.354,-2.348 4.918,-4.062 -0.681,1.137 -0.808,3.658 -0.402,7.545 0.429,4.211 1.464,6.531 3.103,6.961 3.709,0.959 6.357,-0.43 7.973,-4.137 0.982,-2.297 1.663,-6.055 2.092,-11.328 0.127,0.785 0.303,3.281 0.48,7.441 0.529,3.734 1.741,5.477 3.633,5.248 3.582,-0.023 5.878,-2.496 6.861,-7.416 0.354,-1.768 0.479,-3.559 0.354,-5.348 -0.027,-0.455 -0.076,-0.857 -0.102,-1.211 0.051,0.229 0.102,0.504 0.178,0.781 0.326,1.463 0.656,2.523 0.959,3.203 1.134,2.475 3.304,3.381 6.507,2.701 1.262,-0.277 1.866,-1.742 1.815,-4.441 -0.051,-2.848 -0.883,-5.749 -2.522,-8.7"
         id="path979"
         style="fill:#00a0e9" />
      <path
         d="m 1004.919,672.576 c 0.025,0.354 0.074,0.756 0.102,1.211 0.125,1.789 0,3.58 -0.354,5.348 -0.983,4.921 -3.279,7.393 -6.861,7.416 -1.892,0.229 -3.104,-1.514 -3.633,-5.248 -0.178,-4.16 -0.354,-6.656 -0.48,-7.441 -0.429,5.273 -1.109,9.031 -2.092,11.328 -1.615,3.707 -4.264,5.096 -7.973,4.137 -1.639,-0.43 -2.674,-2.75 -3.103,-6.961 -0.405,-3.887 -0.278,-6.408 0.402,-7.545 -1.563,1.715 -3.203,3.078 -4.918,4.062 -2.649,1.514 -4.743,1.564 -6.257,0.125 -2.145,-2.043 -1.715,-5.75 1.312,-11.123 1.085,-1.943 2.321,-3.76 3.709,-5.424 1.286,-1.539 2.143,-2.322 2.598,-2.396 m 10.899,-5.577 c 5.928,-0.227 11.05,0.858 15.337,3.305 3.532,1.992 6.282,4.77 8.25,8.326 1.64,2.951 2.472,5.853 2.522,8.701 0.05,2.699 -0.555,4.164 -1.816,4.441 -3.203,0.68 -5.372,-0.227 -6.507,-2.701 -0.303,-0.682 -0.633,-1.74 -0.959,-3.203 -0.076,-0.277 -0.127,-0.552 -0.178,-0.781 m 0,0 c -0.126,-0.959 -0.354,-1.59 -0.631,-1.867"
         id="path981"
         style="fill:none;stroke:#00489c;stroke-width:3.93499994;stroke-miterlimit:10" />
      <polygon
         points="940.112,618.086 939.331,620.459 939.381,620.484 "
         id="polygon983"
         style="fill:#00a0e9" />
      <path
         d="m 959.915,607.062 c -3.354,-1.74 -6.735,-3.203 -10.142,-4.414 -1.337,-0.479 -2.875,-0.957 -4.641,-1.438 l -5.021,16.875 -0.731,2.398 c 1.286,0.301 3.179,0.982 5.626,2.018 3.96,1.689 7.567,3.709 10.797,6.053 4.566,3.307 8.224,7.041 10.974,11.227 3.43,5.172 5.5,11.1 6.205,17.734 l 21.872,-1.867 c -1.01,-9.938 -4.239,-18.869 -9.688,-26.814 -6.078,-8.906 -14.479,-16.172 -25.251,-21.772"
         id="path985"
         style="fill:#00a0e9" />
      <path
         d="m 940.112,618.086 -0.781,2.373 0.05,0.025 m 0,0 c 1.286,0.301 3.179,0.982 5.626,2.018 3.96,1.689 7.567,3.709 10.797,6.053 4.566,3.307 8.223,7.041 10.973,11.227 3.431,5.172 5.5,11.1 6.206,17.734 l 21.872,-1.867 c -1.01,-9.938 -4.239,-18.869 -9.688,-26.814 -6.078,-8.906 -14.479,-16.172 -25.251,-21.771 -3.354,-1.74 -6.735,-3.203 -10.142,-4.414 -1.336,-0.479 -2.875,-0.957 -4.641,-1.438 l -5.021,16.875 m -0.731,2.397 0.731,-2.398"
         id="path987"
         style="fill:none;stroke:#00489c;stroke-width:3.93499994;stroke-miterlimit:10" />
      <path
         d="m 1011.857,666.119 c -1.969,-3.557 -4.719,-6.334 -8.25,-8.326 -4.288,-2.447 -9.41,-3.531 -15.338,-3.305 l -10.897,5.576 c -0.455,0.074 -1.312,0.857 -2.598,2.396 -1.388,1.664 -2.624,3.48 -3.709,5.424 -3.027,5.373 -3.457,9.08 -1.312,11.123 1.514,1.439 3.607,1.389 6.257,-0.125 1.715,-0.984 3.354,-2.348 4.918,-4.062 -0.681,1.137 -0.808,3.658 -0.402,7.545 0.429,4.211 1.464,6.531 3.103,6.961 3.709,0.959 6.357,-0.43 7.973,-4.137 0.982,-2.297 1.663,-6.055 2.092,-11.328 0.127,0.785 0.303,3.281 0.48,7.441 0.529,3.734 1.741,5.477 3.633,5.248 3.582,-0.023 5.878,-2.496 6.861,-7.416 0.354,-1.768 0.479,-3.559 0.354,-5.348 -0.027,-0.455 -0.076,-0.857 -0.102,-1.211 0.051,0.229 0.102,0.504 0.178,0.781 0.326,1.463 0.656,2.523 0.959,3.203 1.134,2.475 3.304,3.381 6.507,2.701 1.262,-0.277 1.866,-1.742 1.815,-4.441 -0.051,-2.848 -0.883,-5.749 -2.522,-8.7"
         id="path989"
         style="fill:#00a0e9" />
      <path
         d="m 939.331,620.459 0.05,0.025 c 1.286,0.301 3.179,0.982 5.626,2.018 3.96,1.689 7.567,3.709 10.797,6.053 4.566,3.307 8.224,7.041 10.974,11.227 3.43,5.172 5.5,11.1 6.205,17.734 l 21.872,-1.867 c -1.01,-9.938 -4.239,-18.869 -9.688,-26.814 -6.078,-8.906 -14.479,-16.172 -25.251,-21.771 -3.355,-1.741 -6.735,-3.204 -10.142,-4.415 -1.336,-0.479 -2.875,-0.957 -4.641,-1.438 l -5.802,19.248 z"
         id="path991"
         style="fill:#00a0e9" />
      <path
         d="m 950.379,696.49 c -2.219,-8.551 -3.479,-12.99 -3.808,-13.268 l -20.258,3.152 c 0.075,0.758 -0.277,6.256 -1.06,16.523 -0.783,10.189 -1.134,15.689 -1.01,16.523 0.076,0.43 0.153,1.109 0.278,2.068 0.177,0.832 0.43,1.438 0.808,1.842 30.07,10.09 49.974,11.779 59.686,5.096 1.033,-0.732 1.01,-2.043 -0.102,-3.936 -1.16,-1.943 -3.103,-3.885 -5.853,-5.879 -7.089,-5.146 -15.412,-7.77 -24.923,-7.869 -0.15,-0.428 -1.411,-5.17 -3.758,-14.252"
         id="path993"
         style="fill:#00a0e9" />
      <path
         d="m 926.312,686.375 c 0.076,0.758 -0.276,6.256 -1.06,16.523 -0.782,10.189 -1.133,15.689 -1.009,16.523 0.076,0.43 0.152,1.109 0.278,2.068 0.177,0.832 0.43,1.438 0.808,1.842 30.07,10.09 49.974,11.779 59.686,5.096 1.034,-0.732 1.009,-2.043 -0.102,-3.936 -1.161,-1.943 -3.103,-3.885 -5.853,-5.879 -7.089,-5.146 -15.413,-7.77 -24.923,-7.869 -0.151,-0.43 -1.413,-5.172 -3.761,-14.254 -2.218,-8.551 -3.479,-12.99 -3.807,-13.268"
         id="path995"
         style="fill:none;stroke:#00489c;stroke-width:3.93499994;stroke-miterlimit:10" />
      <path
         d="m 975.631,570.434 c -0.529,-7.088 -2.168,-12.662 -4.969,-16.725 -2.523,-3.633 -6.079,-6.205 -10.696,-7.693 -3.86,-1.236 -8.88,-1.816 -15.01,-1.74 -3.203,0.023 -9.157,0.402 -17.86,1.109 -7.794,0.631 -13.672,1.312 -17.633,2.018 -5.853,1.061 -10.546,2.574 -14.077,4.541 -8.426,4.717 -11.981,13.369 -10.695,25.957 0.428,4.24 2.042,8.201 4.793,11.883 2.674,3.557 6.256,6.584 10.722,9.133 9.46,5.373 20.433,7.543 32.971,6.508 12.563,-1.035 22.981,-4.971 31.281,-11.807 3.909,-3.229 6.835,-6.811 8.778,-10.721 1.993,-4.063 2.799,-8.223 2.395,-12.463"
         id="path997"
         style="fill:#00a0e9" />
      <path
         d="m 970.662,553.709 c -2.522,-3.633 -6.079,-6.205 -10.696,-7.693 -3.86,-1.236 -8.88,-1.816 -15.01,-1.74 -3.203,0.023 -9.157,0.402 -17.859,1.109 -7.795,0.631 -13.673,1.312 -17.634,2.018 -5.853,1.061 -10.546,2.574 -14.077,4.541 -8.426,4.717 -11.981,13.37 -10.695,25.957 0.428,4.24 2.042,8.201 4.793,11.883 2.674,3.557 6.256,6.584 10.722,9.133 9.46,5.373 20.433,7.543 32.971,6.508 12.563,-1.035 22.981,-4.971 31.281,-11.807 3.909,-3.229 6.835,-6.811 8.778,-10.72 1.993,-4.063 2.8,-8.224 2.396,-12.464 -0.53,-7.088 -2.169,-12.662 -4.97,-16.725 z"
         id="path999"
         style="fill:none;stroke:#00489c;stroke-width:3.93499994;stroke-miterlimit:10" />
      <path
         d="m 957.493,599.799 c -3.607,-3.963 -6.609,-6.561 -8.955,-7.746 -19.929,-0.631 -30.574,-0.957 -31.911,-0.934 -6.584,0.127 -11.377,1.186 -14.354,3.178 -1.539,1.035 -3.129,2.549 -4.768,4.568 -1.111,1.338 -2.901,3.783 -5.374,7.314 -6.71,9.51 -13.143,17.887 -19.298,25.125 -5.575,6.561 -9.232,13.623 -11.023,21.215 -1.665,7.066 -1.539,13.85 0.378,20.384 1.867,6.382 5.197,11.655 9.989,15.817 5.02,4.312 10.974,6.838 17.886,7.518 35.317,3.557 60.771,0.706 76.335,-8.502 12.739,-7.543 18.465,-19.02 17.154,-34.383 -1.035,-12.084 -6.004,-25.1 -14.96,-39 -3.556,-5.499 -7.238,-10.341 -11.099,-14.554"
         id="path1001"
         style="fill:#00a0e9" />
      <path
         d="m 948.538,592.053 c -19.929,-0.631 -30.574,-0.957 -31.911,-0.934 -6.584,0.127 -11.377,1.186 -14.354,3.178 -1.539,1.035 -3.13,2.549 -4.768,4.568 -1.112,1.338 -2.901,3.783 -5.374,7.314 -6.71,9.51 -13.143,17.887 -19.298,25.125 -5.575,6.561 -9.233,13.623 -11.024,21.215 -1.664,7.066 -1.539,13.85 0.379,20.385 1.866,6.381 5.197,11.654 9.989,15.816 5.02,4.312 10.974,6.838 17.886,7.518 35.317,3.557 60.771,0.707 76.335,-8.502 12.739,-7.543 18.465,-19.02 17.154,-34.383 -1.036,-12.084 -6.004,-25.1 -14.96,-39 -3.557,-5.5 -7.24,-10.342 -11.1,-14.555 -3.606,-3.962 -6.608,-6.56 -8.954,-7.745 z"
         id="path1003"
         style="fill:none;stroke:#00489c;stroke-width:3.93499994;stroke-miterlimit:10" />
      <path
         d="m 950.379,696.49 c -2.219,-8.551 -3.479,-12.99 -3.808,-13.268 l -20.258,3.152 c 0.075,0.758 -0.277,6.256 -1.06,16.523 -0.783,10.189 -1.134,15.689 -1.01,16.523 0.076,0.43 0.153,1.109 0.278,2.068 0.177,0.832 0.43,1.438 0.808,1.842 30.07,10.09 49.974,11.779 59.686,5.096 1.033,-0.732 1.01,-2.043 -0.102,-3.936 -1.16,-1.943 -3.103,-3.885 -5.853,-5.879 -7.089,-5.146 -15.412,-7.77 -24.923,-7.869 -0.15,-0.428 -1.411,-5.17 -3.758,-14.252"
         id="path1005"
         style="fill:#00a0e9" />
      <path
         d="m 918.47,699.846 c -2.195,-8.553 -3.458,-12.992 -3.785,-13.27 l -20.281,3.154 c 0.076,0.781 -0.254,6.305 -1.035,16.521 -0.782,10.219 -1.136,15.717 -1.033,16.523 0.176,1.338 0.276,2.02 0.303,2.07 0.176,0.832 0.429,1.438 0.807,1.84 30.069,10.092 49.947,11.783 59.66,5.096 1.034,-0.73 1.008,-2.043 -0.102,-3.936 -1.135,-1.939 -3.077,-3.883 -5.827,-5.877 -7.114,-5.146 -15.438,-7.77 -24.949,-7.869 -0.152,-0.377 -1.414,-5.147 -3.758,-14.252"
         id="path1007"
         style="fill:#00a0e9" />
      <path
         d="m 894.403,689.73 c 0.076,0.781 -0.254,6.305 -1.035,16.521 -0.782,10.219 -1.136,15.717 -1.033,16.523 0.176,1.338 0.276,2.02 0.303,2.07 0.176,0.832 0.429,1.438 0.807,1.84 30.069,10.092 49.947,11.783 59.66,5.096 1.034,-0.73 1.008,-2.043 -0.102,-3.936 -1.135,-1.939 -3.077,-3.883 -5.827,-5.877 -7.114,-5.146 -15.438,-7.77 -24.949,-7.869 -0.15,-0.379 -1.412,-5.148 -3.757,-14.254 -2.195,-8.552 -3.458,-12.992 -3.785,-13.27"
         id="path1009"
         style="fill:none;stroke:#00489c;stroke-width:3.93499994;stroke-miterlimit:10" />
      <path
         d="m 918.47,699.846 c -2.195,-8.553 -3.458,-12.992 -3.785,-13.27 l -20.281,3.154 c 0.076,0.781 -0.254,6.305 -1.035,16.521 -0.782,10.219 -1.136,15.717 -1.033,16.523 0.176,1.338 0.276,2.02 0.303,2.07 0.176,0.832 0.429,1.438 0.807,1.84 30.069,10.092 49.947,11.783 59.66,5.096 1.034,-0.73 1.008,-2.043 -0.102,-3.936 -1.135,-1.939 -3.077,-3.883 -5.827,-5.877 -7.114,-5.146 -15.438,-7.77 -24.949,-7.869 -0.152,-0.377 -1.414,-5.147 -3.758,-14.252"
         id="path1011"
         style="fill:#00a0e9" />
      <path
         d="m 957.493,599.799 c -3.607,-3.963 -6.609,-6.561 -8.955,-7.746 -19.929,-0.631 -30.574,-0.957 -31.911,-0.934 -6.584,0.127 -11.377,1.186 -14.354,3.178 -1.539,1.035 -3.129,2.549 -4.768,4.568 -1.111,1.338 -2.901,3.783 -5.374,7.314 -6.71,9.51 -13.143,17.887 -19.298,25.125 -5.575,6.561 -9.232,13.623 -11.023,21.215 -1.665,7.066 -1.539,13.85 0.378,20.384 1.867,6.382 5.197,11.655 9.989,15.817 5.02,4.312 10.974,6.838 17.886,7.518 35.317,3.557 60.771,0.706 76.335,-8.502 12.739,-7.543 18.465,-19.02 17.154,-34.383 -1.035,-12.084 -6.004,-25.1 -14.96,-39 -3.556,-5.499 -7.238,-10.341 -11.099,-14.554"
         id="path1013"
         style="fill:#00a0e9" />
      <path
         d="m 937.01,541.375 c -0.328,-3.307 -1.816,-6.057 -4.489,-8.199 -2.701,-2.145 -5.778,-3.053 -9.284,-2.775 -3.481,0.277 -6.331,1.715 -8.577,4.264 -2.245,2.549 -3.229,5.498 -2.901,8.803 0.329,3.305 1.817,6.055 4.517,8.199 2.698,2.145 5.775,3.051 9.258,2.775 3.507,-0.277 6.355,-1.717 8.601,-4.264 2.244,-2.547 3.203,-5.5 2.875,-8.803"
         id="path1015"
         style="fill:#00a0e9" />
      <path
         d="m 932.521,533.176 c -2.701,-2.145 -5.778,-3.053 -9.284,-2.775 -3.481,0.277 -6.332,1.715 -8.577,4.264 -2.244,2.549 -3.229,5.498 -2.901,8.803 0.329,3.305 1.817,6.055 4.517,8.199 2.698,2.145 5.775,3.051 9.258,2.775 3.508,-0.277 6.355,-1.717 8.601,-4.264 2.246,-2.547 3.205,-5.5 2.877,-8.803 -0.33,-3.307 -1.819,-6.057 -4.491,-8.199 z"
         id="path1017"
         style="fill:none;stroke:#00489c;stroke-width:3.93499994;stroke-miterlimit:10" />
      <path
         d="m 956.005,531.08 c -2.699,-2.143 -5.776,-3.051 -9.257,-2.773 -3.483,0.277 -6.332,1.715 -8.578,4.262 -2.245,2.549 -3.229,5.5 -2.901,8.83 0.328,3.305 1.817,6.055 4.516,8.197 2.699,2.146 5.776,3.053 9.259,2.777 3.48,-0.279 6.331,-1.715 8.577,-4.266 2.245,-2.547 3.229,-5.498 2.9,-8.803 -0.329,-3.327 -1.816,-6.079 -4.516,-8.224"
         id="path1019"
         style="fill:#00a0e9" />
      <path
         d="m 946.748,528.307 c -3.483,0.277 -6.332,1.715 -8.578,4.262 -2.245,2.549 -3.229,5.5 -2.901,8.83 0.328,3.304 1.817,6.054 4.516,8.197 2.699,2.146 5.775,3.053 9.259,2.777 3.48,-0.279 6.331,-1.715 8.577,-4.266 2.245,-2.547 3.229,-5.498 2.9,-8.803 -0.327,-3.328 -1.815,-6.08 -4.516,-8.225 -2.699,-2.141 -5.777,-3.05 -9.257,-2.772 z"
         id="path1021"
         style="fill:none;stroke:#00489c;stroke-width:3.93499994;stroke-miterlimit:10" />
      <path
         d="m 975.631,570.434 c -0.529,-7.088 -2.168,-12.662 -4.969,-16.725 -2.523,-3.633 -6.079,-6.205 -10.696,-7.693 -3.86,-1.236 -8.88,-1.816 -15.01,-1.74 -3.203,0.023 -9.157,0.402 -17.86,1.109 -7.794,0.631 -13.672,1.312 -17.633,2.018 -5.853,1.061 -10.546,2.574 -14.077,4.541 -8.426,4.717 -11.981,13.369 -10.695,25.957 0.428,4.24 2.042,8.201 4.793,11.883 2.674,3.557 6.256,6.584 10.722,9.133 9.46,5.373 20.433,7.543 32.971,6.508 12.563,-1.035 22.981,-4.971 31.281,-11.807 3.909,-3.229 6.835,-6.811 8.778,-10.721 1.993,-4.063 2.799,-8.223 2.395,-12.463"
         id="path1023"
         style="fill:#00a0e9" />
      <path
         d="m 937.01,541.375 c -0.328,-3.307 -1.816,-6.057 -4.489,-8.199 -2.701,-2.145 -5.778,-3.053 -9.284,-2.775 -3.481,0.277 -6.331,1.715 -8.577,4.264 -2.245,2.549 -3.229,5.498 -2.901,8.803 0.329,3.305 1.817,6.055 4.517,8.199 2.698,2.145 5.775,3.051 9.258,2.775 3.507,-0.277 6.355,-1.717 8.601,-4.264 2.244,-2.547 3.203,-5.5 2.875,-8.803"
         id="path1025"
         style="fill:#ffffff" />
      <path
         d="m 956.005,531.08 c -2.699,-2.143 -5.776,-3.051 -9.257,-2.773 -3.483,0.277 -6.332,1.715 -8.578,4.262 -2.245,2.549 -3.229,5.5 -2.901,8.83 0.328,3.305 1.817,6.055 4.516,8.197 2.699,2.146 5.776,3.053 9.259,2.777 3.48,-0.279 6.331,-1.715 8.577,-4.266 2.245,-2.547 3.229,-5.498 2.9,-8.803 -0.329,-3.327 -1.816,-6.079 -4.516,-8.224"
         id="path1027"
         style="fill:#ffffff" />
      <path
         d="m 932.999,545.158 c 0.075,-1.389 -0.354,-2.574 -1.287,-3.607 -0.934,-1.035 -2.068,-1.615 -3.431,-1.691 -1.336,-0.076 -2.521,0.354 -3.531,1.262 -0.984,0.934 -1.514,2.068 -1.59,3.457 -0.074,1.387 0.354,2.598 1.287,3.631 0.934,1.035 2.068,1.59 3.405,1.666 1.362,0.076 2.547,-0.328 3.558,-1.262 0.984,-0.934 1.514,-2.069 1.589,-3.456"
         id="path1029" />
      <path
         d="m 949.396,537.137 c 0.075,-1.389 -0.354,-2.574 -1.286,-3.607 -0.935,-1.037 -2.069,-1.615 -3.406,-1.691 -1.363,-0.076 -2.549,0.354 -3.558,1.262 -0.982,0.932 -1.513,2.068 -1.589,3.457 -0.05,1.385 0.378,2.572 1.312,3.605 0.906,1.035 2.043,1.615 3.404,1.691 1.362,0.074 2.548,-0.328 3.532,-1.262 1.01,-0.932 1.54,-2.069 1.591,-3.455"
         id="path1031" />
      <path
         d="m 883.935,674.141 c 1.688,-2.195 0.504,-5.35 -3.533,-9.436 -1.438,-1.463 -3.001,-2.775 -4.691,-3.936 -1.539,-1.084 -2.549,-1.59 -3.002,-1.564 l -11.705,-2.623 c -5.827,0.984 -10.597,2.977 -14.278,5.98 -3.052,2.445 -5.172,5.422 -6.383,8.902 -1.009,2.902 -1.261,5.602 -0.731,8.1 0.505,2.346 1.387,3.506 2.675,3.48 3.253,-0.076 5.196,-1.287 5.801,-3.634 0.178,-0.655 0.253,-1.638 0.279,-2.976 0.023,-0.354 0.023,-0.68 0.05,-0.957 0.025,0.377 0.05,0.807 0.126,1.285 0.252,1.59 0.731,3.127 1.412,4.59 1.943,4.062 4.667,5.752 8.174,5.047 1.892,-0.178 2.725,-1.918 2.472,-5.273 -0.63,-3.682 -0.983,-5.877 -1.009,-6.584 1.463,4.516 2.901,7.645 4.313,9.41 2.321,2.926 5.172,3.582 8.578,1.994 1.488,-0.707 2.042,-2.928 1.641,-6.686 -0.38,-3.457 -1.036,-5.625 -1.919,-6.484 1.892,1.186 3.759,2.02 5.626,2.523 2.899,0.783 4.916,0.381 6.104,-1.158"
         id="path1033"
         style="fill:#00a0e9" />
      <path
         d="m 848.415,675.478 c 0.025,0.378 0.05,0.808 0.126,1.286 0.252,1.589 0.731,3.127 1.412,4.589 1.943,4.063 4.667,5.753 8.174,5.048 1.892,-0.178 2.725,-1.918 2.472,-5.273 -0.63,-3.682 -0.983,-5.877 -1.009,-6.584 1.463,4.516 2.901,7.644 4.313,9.41 2.321,2.926 5.172,3.582 8.578,1.994 1.488,-0.707 2.043,-2.928 1.64,-6.686 -0.379,-3.457 -1.035,-5.625 -1.918,-6.484 1.892,1.186 3.759,2.02 5.626,2.523 2.902,0.781 4.919,0.379 6.105,-1.16 1.688,-2.195 0.504,-5.35 -3.533,-9.436 -1.438,-1.463 -3.002,-2.775 -4.691,-3.936 -1.539,-1.084 -2.549,-1.59 -3.002,-1.564 m -24.066,14.732 c -0.177,0.28 -0.253,0.808 -0.227,1.541 m 12.588,-18.896 c -5.827,0.984 -10.597,2.977 -14.278,5.979 -3.052,2.446 -5.172,5.423 -6.383,8.903 -1.009,2.902 -1.261,5.602 -0.731,8.1 0.505,2.346 1.388,3.506 2.675,3.48 3.253,-0.076 5.196,-1.287 5.801,-3.633 0.178,-0.656 0.253,-1.639 0.279,-2.977 0.023,-0.354 0.023,-0.68 0.05,-0.958"
         id="path1035"
         style="fill:none;stroke:#00489c;stroke-width:3.93499994;stroke-miterlimit:10" />
      <path
         d="m 890.416,607.693 c -2.194,1.035 -4.465,2.271 -6.837,3.709 -4.943,3.051 -9.458,6.559 -13.571,10.494 -5.776,5.549 -10.114,11.527 -13.041,17.961 -3.708,8.049 -5.07,16.498 -4.062,25.303 l 21.67,-2.826 c -0.655,-6.105 0.252,-11.829 2.699,-17.154 2.774,-6.078 7.442,-11.578 14.025,-16.548 2.119,-1.589 4.239,-3 6.384,-4.188 l 1.815,-0.982 0.404,-0.178 -9.486,-15.591 z"
         id="path1037"
         style="fill:#00a0e9" />
      <path
         d="m 883.579,611.402 c -4.943,3.051 -9.458,6.559 -13.571,10.494 -5.776,5.549 -10.115,11.526 -13.041,17.961 -3.708,8.049 -5.07,16.498 -4.062,25.303 l 21.67,-2.826 c -0.655,-6.105 0.252,-11.83 2.699,-17.154 2.774,-6.078 7.442,-11.578 14.025,-16.549 2.119,-1.588 4.239,-3 6.385,-4.188 l 1.814,-0.982 0.404,-0.178 -9.486,-15.59 c -2.194,1.036 -4.465,2.271 -6.837,3.709 z"
         id="path1039"
         style="fill:none;stroke:#00489c;stroke-width:3.93499994;stroke-miterlimit:10" />
      <path
         d="m 883.935,674.141 c 1.688,-2.195 0.504,-5.35 -3.533,-9.436 -1.438,-1.463 -3.001,-2.775 -4.691,-3.936 -1.539,-1.084 -2.549,-1.59 -3.002,-1.564 l -11.705,-2.623 c -5.827,0.984 -10.597,2.977 -14.278,5.98 -3.052,2.445 -5.172,5.422 -6.383,8.902 -1.009,2.902 -1.261,5.602 -0.731,8.1 0.505,2.346 1.387,3.506 2.675,3.48 3.253,-0.076 5.196,-1.287 5.801,-3.634 0.178,-0.655 0.253,-1.638 0.279,-2.976 0.023,-0.354 0.023,-0.68 0.05,-0.957 0.025,0.377 0.05,0.807 0.126,1.285 0.252,1.59 0.731,3.127 1.412,4.59 1.943,4.062 4.667,5.752 8.174,5.047 1.892,-0.178 2.725,-1.918 2.472,-5.273 -0.63,-3.682 -0.983,-5.877 -1.009,-6.584 1.463,4.516 2.901,7.645 4.313,9.41 2.321,2.926 5.172,3.582 8.578,1.994 1.488,-0.707 2.042,-2.928 1.641,-6.686 -0.38,-3.457 -1.036,-5.625 -1.919,-6.484 1.892,1.186 3.759,2.02 5.626,2.523 2.899,0.783 4.916,0.381 6.104,-1.158"
         id="path1041"
         style="fill:#00a0e9" />
      <path
         d="m 890.416,607.693 c -2.194,1.035 -4.465,2.271 -6.837,3.709 -4.943,3.051 -9.458,6.559 -13.571,10.494 -5.776,5.549 -10.114,11.527 -13.041,17.961 -3.708,8.049 -5.07,16.498 -4.062,25.303 l 21.67,-2.826 c -0.655,-6.105 0.252,-11.829 2.699,-17.154 2.774,-6.078 7.442,-11.578 14.025,-16.548 2.119,-1.589 4.239,-3 6.384,-4.188 l 1.815,-0.982 0.404,-0.178 -9.486,-15.591 z"
         id="path1043"
         style="fill:#00a0e9" />
      <path
         d="m 898.287,604.289 c -3.633,1.186 -7.845,3.178 -12.664,5.953 -2.421,1.387 -4.466,2.674 -6.154,3.832 l 9.209,16.574 c 4.767,-3.908 9.762,-6.936 14.958,-9.029 2.598,-1.035 4.691,-1.691 6.331,-1.969 l -11.68,-15.361 z"
         id="path1045"
         style="fill:#00a0e9" />
      <path
         d="m 970.03,573.059 c 0.656,-4.012 0.783,-8.275 0.354,-12.74 l -0.832,-5.498 c -10.293,7.668 -25.253,11.68 -44.878,12.059 -9.812,0.174 -18.591,-0.404 -26.336,-1.768 -0.353,9.863 2.043,17.609 7.188,23.232 4.113,4.518 9.889,7.545 17.332,9.135 5.322,1.135 11.175,1.488 17.607,1.059 3.229,-0.227 5.928,-0.557 8.072,-0.984 12.185,-3.456 19.351,-11.63 21.493,-24.495"
         id="path1047" />
    </g>
  </g>
</svg>
