<?xml version="1.0" encoding="UTF-8" standalone="no"?>
<!-- Created with Inkscape (http://www.inkscape.org/) -->

<svg
   xmlns:dc="http://purl.org/dc/elements/1.1/"
   xmlns:cc="http://creativecommons.org/ns#"
   xmlns:rdf="http://www.w3.org/1999/02/22-rdf-syntax-ns#"
   xmlns:svg="http://www.w3.org/2000/svg"
   xmlns="http://www.w3.org/2000/svg"
   version="1.1"
   width="225"
   height="240"
   id="svg4070">
  <defs
     id="defs4072" />
  <metadata
     id="metadata4075">
    <rdf:RDF>
      <cc:Work
         rdf:about="">
        <dc:format>image/svg+xml</dc:format>
        <dc:type
           rdf:resource="http://purl.org/dc/dcmitype/StillImage" />
        <dc:title></dc:title>
      </cc:Work>
    </rdf:RDF>
  </metadata>
  <g
     transform="translate(0,-240)"
     id="layer1">
    <g
       transform="translate(-812.91075,-22.233053)"
       id="g759">
      <path
         d="M 833.299,319.923"
         id="path761"
         style="fill:#009944" />
      <path
         d="m 855.249,421.531 c -3.659,-11.504 -1.416,-23.896 6.786,-37.351 8.143,-13.453 17.938,-25.314 29.268,-35.58 8.082,-7.376 16.934,-13.631 26.375,-18.647 0.589,-0.294 1.121,-0.589 1.534,-0.884 7.316,-4.721 15.165,-6.196 23.425,-4.427 2.125,0.591 4.014,1.3 5.842,2.302 7.554,4.013 11.094,10.503 10.624,19.471 0,1.122 0,2.242 0.176,3.306 0.412,4.721 0.471,8.616 0.176,11.801 -0.647,6.196 2.302,14.752 8.911,25.667 6.667,10.918 9.676,21.773 9.204,32.633 -0.472,10.857 -6.313,19.885 -17.407,27.199 -6.255,3.955 -13.158,5.842 -20.652,5.668 -1.061,0.059 -2.064,0.115 -3.009,0.174 -25.55,0.77 -45.08,-1.535 -58.652,-7.02 -11.392,-4.781 -18.943,-12.864 -22.601,-24.312"
         id="path763"
         style="fill:none;stroke:#00489c;stroke-width:2.00600004;stroke-linecap:round;stroke-linejoin:round" />
      <path
         d="m 862.035,384.18 c 8.143,-13.453 17.938,-25.313 29.268,-35.58 8.082,-7.376 16.934,-13.63 26.375,-18.647 0.589,-0.294 1.121,-0.589 1.534,-0.884 7.316,-4.721 15.165,-6.196 23.425,-4.427 2.125,0.591 4.014,1.3 5.842,2.302 7.554,4.013 11.094,10.503 10.623,19.471 0,1.122 0,2.243 0.177,3.306 0.412,4.721 0.471,8.616 0.176,11.801 -0.648,6.196 2.302,14.752 8.911,25.667 6.667,10.918 9.676,21.773 9.204,32.633 -0.471,10.858 -6.313,19.885 -17.407,27.199 -6.255,3.955 -13.158,5.842 -20.652,5.668 -1.061,0.059 -2.064,0.116 -3.009,0.174 -25.55,0.77 -45.08,-1.535 -58.652,-7.02 -11.391,-4.781 -18.941,-12.865 -22.6,-24.312 -3.66,-11.504 -1.417,-23.896 6.785,-37.351"
         id="path765"
         style="fill:#00489c" />
      <path
         d="m 862.035,384.18 c 8.143,-13.453 17.938,-25.313 29.268,-35.58 8.082,-7.376 16.934,-13.63 26.375,-18.647 0.589,-0.294 1.121,-0.589 1.534,-0.884 7.316,-4.721 15.165,-6.196 23.425,-4.427 2.125,0.591 4.014,1.3 5.842,2.302 7.554,4.013 11.094,10.503 10.623,19.471 0,1.122 0,2.243 0.177,3.306 0.412,4.721 0.471,8.616 0.176,11.801 -0.648,6.196 2.302,14.752 8.911,25.667 6.667,10.918 9.676,21.773 9.204,32.633 -0.471,10.858 -6.313,19.885 -17.407,27.199 -6.255,3.955 -13.158,5.842 -20.652,5.668 -1.061,0.059 -2.064,0.116 -3.009,0.174 -25.55,0.77 -45.08,-1.535 -58.652,-7.02 -11.391,-4.781 -18.941,-12.865 -22.6,-24.312 -3.66,-11.504 -1.417,-23.896 6.785,-37.351 z"
         id="path767"
         style="fill:none;stroke:#00489c;stroke-width:0.58999997" />
      <path
         d="m 899.562,366.361 -1.003,0.177 c -5.9,0.826 -11.801,0.886 -17.702,0.237 -5.546,-0.592 -10.975,-2.008 -16.108,-4.132 -5.135,-2.124 -9.677,-4.956 -13.866,-8.555 -3.424,-3.01 -6.195,-6.491 -8.202,-10.444 -0.591,-1.181 -1.122,-2.361 -1.654,-3.541 -0.943,-2.243 -1.886,-4.543 -2.712,-6.904 l -0.356,0.178 c -2.594,1.179 -5.014,1.887 -7.375,2.005 -3.362,0.236 -5.487,-0.59 -6.313,-2.478 -1.002,-1.77 -0.471,-4.012 1.594,-6.727 0.825,-1.12 1.831,-2.123 3.009,-3.186 1.358,-1.062 2.893,-2.124 4.604,-3.068 h -0.177 c -1.417,-0.177 -2.598,-0.532 -3.658,-1.062 -1.476,-0.649 -2.774,-1.594 -3.718,-2.833 -1.771,-2.183 -2.597,-4.484 -2.42,-6.727 0.058,-2.537 1.593,-4.366 4.484,-5.606 2.714,-1.062 5.546,-1.297 8.557,-0.589 1.771,0.354 3.48,1.003 5.31,1.947 0.296,-2.242 0.473,-3.658 0.592,-4.189 0.294,-1.889 0.885,-3.541 1.711,-5.075 v -0.059 c 0.177,-0.295 0.354,-0.649 0.531,-0.944 v -0.059 c 1.534,-2.36 3.362,-3.599 5.487,-3.659 2.36,-0.235 4.483,1.122 6.194,3.954 1.594,2.596 2.361,5.783 2.479,9.559 0,0.177 -0.059,0.59 -0.117,1.239 l -0.119,1.003 c -0.06,0.236 -0.119,0.473 -0.176,0.708 -0.06,0.118 -0.06,0.295 -0.06,0.413 -0.06,1.063 0.235,1.948 0.886,2.774 0.118,0.118 0.235,0.236 0.295,0.354 0.058,0 0.119,0 0.176,-0.059 0.119,-0.059 0.296,-0.118 0.414,-0.177 v 0.059 l 3.245,-0.709 c 2.892,-0.531 5.076,-0.766 6.786,-0.59 l 0.058,-0.059 c 2.893,0.178 4.958,1.771 6.018,4.603 1.184,2.95 -0.47,5.783 -4.896,8.438 -0.943,0.531 -1.769,1.003 -2.595,1.476 -0.825,0.471 -1.595,0.885 -2.359,1.298 -0.297,0.117 -0.531,0.236 -0.828,0.353 -0.706,0.414 -1.474,0.768 -2.183,1.122 -0.059,0.059 -0.117,0.117 -0.234,0.177 0.176,0.413 0.352,0.943 0.589,1.416 0.057,0.059 0.176,0.236 0.235,0.354 h -0.06 c 0.296,0.648 0.59,1.298 0.946,1.888 2.654,5.075 7.314,8.556 13.864,10.386 6.787,1.888 13.455,2.949 20.064,3.127 h 0.058 l 0.944,0.059 -0.06,1.946 h -0.942 c -6.789,-0.177 -13.69,-1.239 -20.654,-3.185 -6.255,-1.77 -10.915,-4.957 -13.984,-9.5 -1.001,-1.77 -1.948,-3.423 -3.01,-5.193 -0.295,-0.59 -0.531,-1.18 -0.707,-1.829 0,-0.059 -0.06,-0.177 0,-0.237 l 0.119,-0.059 c 0,-0.058 0.117,-0.058 0.175,-0.058 0.531,-0.295 1.121,-0.591 1.652,-0.885 h 0.119 c 1.356,-0.767 2.655,-1.476 3.896,-2.243 0.471,-0.236 1.001,-0.471 1.415,-0.708 0.825,-0.472 1.593,-0.944 2.536,-1.476 3.244,-1.946 4.546,-3.894 3.955,-5.9 -0.768,-2.066 -2.185,-3.127 -4.367,-3.363 -1.534,-0.059 -3.6,0.118 -6.255,0.589 l -3.54,0.827 c -0.414,0.177 -0.885,0.295 -1.357,0.354 -0.059,0 -0.118,0.06 -0.118,0.06 -0.119,-0.119 -0.179,-0.178 -0.235,-0.237 -0.06,-0.059 -0.119,-0.177 -0.238,-0.236 -1.414,-1.239 -2.004,-3.009 -1.77,-5.075 0.06,-0.53 0.179,-1.062 0.179,-1.592 0.059,-0.591 0.177,-1.181 0.235,-1.712 -0.059,-0.059 -0.059,-0.059 0,-0.118 v -0.59 c 0,0 -0.059,0 -0.059,-0.059 -0.177,-3.009 -0.945,-5.546 -2.183,-7.612 -1.24,-2.065 -2.715,-3.069 -4.426,-3.069 -1.417,0.179 -2.716,1.063 -3.777,2.715 0,0.059 0,0.059 0,0 -0.116,0.296 -0.295,0.53 -0.412,0.826 -0.295,0.591 -0.591,1.18 -0.886,1.888 -0.296,0.591 -0.59,1.299 -0.767,1.948 -0.177,0.826 -0.414,1.593 -0.532,2.36 -0.119,0.531 -0.177,1.003 -0.234,1.593 -0.061,0.177 -0.119,0.413 -0.178,0.59 v 0.885 c 0,0.59 -0.059,1.18 -0.059,1.711 -1.062,-0.531 -2.126,-1.062 -3.247,-1.475 -1.474,-0.531 -2.949,-0.885 -4.424,-1.121 l -0.355,-0.118 h -0.117 -0.117 c -2.243,-0.295 -4.368,-0.059 -6.316,0.708 -2.005,0.826 -3.066,2.065 -3.184,3.717 -0.118,1.888 0.528,3.659 1.946,5.43 0.767,1.003 1.77,1.77 3.009,2.3 0.767,0.355 1.652,0.591 2.655,0.767 1.415,0.354 2.893,0.532 4.366,0.591 0.709,0.059 1.299,0.059 1.947,0.059 -1.356,0.649 -2.714,1.357 -4.012,2.184 -1.062,0.707 -2.065,1.415 -3.01,2.182 -0.826,0.531 -1.594,1.121 -2.303,1.711 -1.06,0.944 -1.946,1.889 -2.713,2.832 -1.415,1.83 -1.828,3.423 -1.358,4.602 0.474,0.768 1.358,1.24 2.774,1.359 0.413,0.059 0.886,0 1.416,0 2.42,-0.119 4.781,-0.591 7.141,-1.299 0.353,-0.118 0.768,-0.235 1.181,-0.354 0.295,-0.118 0.531,-0.236 0.825,-0.354 0.059,0.236 0.118,0.414 0.236,0.648 0.709,1.594 1.355,3.129 2.006,4.781 0.413,1.003 0.944,2.005 1.416,2.891 1.948,5.075 4.957,9.382 9.088,12.981 4.013,3.423 8.38,6.137 13.275,8.144 5.076,2.065 10.268,3.421 15.638,4.011 5.782,0.71 11.506,0.592 17.172,-0.177 l 0.354,-0.117 0.707,-0.059 0.234,1.947 z"
         id="path769"
         style="fill:#00499d" />
      <path
         d="m 898.619,364.473 -0.354,0.117 c -5.666,0.769 -11.388,0.887 -17.171,0.177 -5.37,-0.59 -10.562,-1.945 -15.638,-4.011 -4.896,-2.007 -9.263,-4.721 -13.275,-8.143 -4.131,-3.599 -7.14,-7.907 -9.088,-12.982 -0.472,-0.886 -1.003,-1.888 -1.416,-2.891 -0.65,-1.652 -1.297,-3.186 -2.006,-4.781 -0.118,-0.234 -0.178,-0.412 -0.236,-0.648 -0.295,0.119 -0.53,0.236 -0.825,0.354 -0.413,0.119 -0.828,0.236 -1.181,0.354 -2.359,0.708 -4.72,1.18 -7.141,1.299 -0.53,0 -1.003,0.059 -1.416,0 -1.416,-0.119 -2.301,-0.591 -2.773,-1.359 -0.471,-1.179 -0.058,-2.772 1.357,-4.602 0.768,-0.943 1.653,-1.888 2.714,-2.832 0.709,-0.59 1.476,-1.179 2.302,-1.711 0.945,-0.767 1.948,-1.475 3.01,-2.182 1.298,-0.827 2.655,-1.535 4.012,-2.184 -0.648,0 -1.238,0 -1.947,-0.059 -1.474,-0.059 -2.951,-0.237 -4.366,-0.591 -1.003,-0.176 -1.888,-0.412 -2.655,-0.767 -1.239,-0.53 -2.242,-1.297 -3.01,-2.3 -1.416,-1.771 -2.063,-3.542 -1.945,-5.429 0.117,-1.653 1.179,-2.892 3.184,-3.718 1.948,-0.767 4.073,-1.003 6.316,-0.708 h 0.117 0.117 l 0.355,0.118 c 1.475,0.236 2.95,0.59 4.425,1.122 1.12,0.413 2.184,0.943 3.246,1.475 0,-0.532 0.06,-1.121 0.06,-1.712 v -0.885 c 0.058,-0.177 0.116,-0.413 0.177,-0.59 0.058,-0.59 0.114,-1.061 0.234,-1.593 0.119,-0.767 0.355,-1.534 0.532,-2.36 0.177,-0.649 0.471,-1.357 0.766,-1.948 0.296,-0.708 0.592,-1.297 0.887,-1.887 0.117,-0.296 0.296,-0.531 0.412,-0.827 0,0.059 0,0.059 0,0 1.062,-1.651 2.36,-2.536 3.777,-2.714 1.711,0 3.186,1.003 4.426,3.068 1.237,2.066 2.006,4.603 2.183,7.612 0,0.059 0.059,0.059 0.059,0.059 v 0.59 c -0.059,0.059 -0.059,0.059 0,0.118 -0.059,0.532 -0.177,1.121 -0.235,1.712 0,0.531 -0.119,1.062 -0.179,1.593 -0.234,2.065 0.355,3.835 1.77,5.074 0.119,0.059 0.18,0.177 0.238,0.236 0.057,0.06 0.116,0.118 0.235,0.237 0,0 0.06,-0.06 0.118,-0.06 0.473,-0.059 0.943,-0.177 1.357,-0.354 l 3.54,-0.826 c 2.655,-0.472 4.721,-0.649 6.255,-0.59 2.184,0.236 3.6,1.298 4.367,3.364 0.591,2.005 -0.71,3.953 -3.955,5.899 -0.943,0.532 -1.711,1.004 -2.536,1.477 -0.414,0.236 -0.944,0.471 -1.415,0.708 -1.24,0.767 -2.539,1.475 -3.896,2.242 h -0.119 c -0.531,0.295 -1.121,0.59 -1.652,0.885 -0.058,0 -0.175,0 -0.175,0.059 l -0.119,0.059 c -0.06,0.059 0,0.177 0,0.236 0.176,0.649 0.412,1.239 0.707,1.829 1.062,1.771 2.009,3.423 3.01,5.193 3.069,4.543 7.729,7.73 13.984,9.5 6.964,1.946 13.865,3.008 20.654,3.186 l -0.179,18.292 z"
         id="path771"
         style="fill:#00a0e9" />
      <path
         d="m 908.826,445.432 -22.541,-0.414 -6.489,20.477 -0.769,0.057 c -2.301,0.119 -4.6,0.412 -6.962,0.885 h 0.06 c -4.014,0.709 -7.907,1.83 -11.684,3.424 -3.658,1.533 -6.903,3.602 -9.796,6.135 -1.415,1.299 -2.478,2.951 -3.186,5.074 v 0.062 c -0.296,0.705 -0.235,1.355 0.118,1.945 0.59,0.648 1.593,1.238 2.948,1.711 h 0.06 0.06 c 0.531,0.176 1.122,0.357 1.71,0.59 4.486,1.535 9.03,2.125 13.81,1.947 h 0.057 c 12.748,-0.18 26.733,-2.893 42.015,-8.082 0.235,-0.178 0.413,-0.473 0.59,-0.768 0.709,-2.064 1.005,-4.248 0.826,-6.434 -0.059,-0.885 -0.117,-1.77 -0.117,-2.715 l -0.71,-23.894 z"
         id="path773"
         style="fill:#00a0e9" />
      <path
         d="m 909.831,443.777 c -0.296,0 -0.473,0.117 -0.71,0.295 -0.177,0.236 -0.295,0.473 -0.235,0.768 l 0.649,24.486 c 0,0.945 0.059,1.83 0.117,2.715 0.179,2.186 -0.117,4.369 -0.826,6.434 -0.177,0.295 -0.354,0.59 -0.59,0.768 -15.281,5.189 -29.267,7.902 -42.014,8.082 h -0.058 c -4.779,0.178 -9.323,-0.412 -13.81,-1.947 -0.587,-0.232 -1.179,-0.414 -1.71,-0.59 h -0.06 -0.06 c -1.355,-0.473 -2.358,-1.062 -2.948,-1.711 -0.354,-0.59 -0.414,-1.24 -0.118,-1.945 v -0.062 c 0.708,-2.123 1.771,-3.775 3.186,-5.074 2.893,-2.533 6.138,-4.602 9.796,-6.135 3.776,-1.594 7.67,-2.715 11.684,-3.424 h -0.06 c 2.362,-0.473 4.662,-0.766 6.962,-0.885 l 0.769,-0.057 6.549,-20.596 c 0.059,-0.234 0,-0.531 -0.117,-0.766 -0.118,-0.295 -0.354,-0.414 -0.59,-0.471 -0.295,-0.119 -0.531,-0.061 -0.769,0.057 -0.236,0.119 -0.412,0.354 -0.531,0.59 l -6.076,19.234 c -2.185,0.236 -4.309,0.473 -6.493,0.83 h -0.056 c -4.133,0.826 -8.085,2.062 -11.98,3.598 -3.895,1.652 -7.314,3.777 -10.442,6.551 -1.595,1.473 -2.893,3.422 -3.718,5.9 -0.592,1.475 -0.473,2.832 0.413,3.893 0.708,1.002 2.064,1.713 3.895,2.361 0.59,0.176 1.18,0.414 1.77,0.648 4.66,1.59 9.617,2.24 14.573,1.947 13.041,-0.119 27.264,-2.83 42.78,-8.141 l 0.118,-0.062 0.179,-0.117 c 0.531,-0.412 1.001,-1 1.355,-1.709 v -0.119 c 0.886,-2.361 1.181,-4.779 1.004,-7.258 -0.059,-0.885 -0.118,-1.77 -0.118,-2.654 l -0.649,-24.488 c 0,-0.295 -0.118,-0.473 -0.296,-0.65 -0.235,-0.235 -0.471,-0.296 -0.765,-0.296"
         id="path775"
         style="fill:#00499d" />
      <path
         d="m 940.809,448.025 h -22.542 l -6.431,20.535 -0.65,0.061 c -2.359,0.234 -4.66,0.529 -6.96,1.002 -3.956,0.826 -7.849,2.066 -11.626,3.656 -3.599,1.535 -6.785,3.662 -9.678,6.256 -1.356,1.359 -2.418,3.068 -3.185,5.135 v 0.057 c -0.297,0.77 -0.236,1.418 0.176,1.949 0.591,0.705 1.534,1.236 2.951,1.594 l 0.058,0.059 c 0.592,0.176 1.181,0.354 1.771,0.586 4.426,1.42 9.027,2.012 13.808,1.656 12.744,-0.355 26.73,-3.246 41.834,-8.734 0.237,-0.234 0.414,-0.531 0.591,-0.824 0.769,-2.127 1.005,-4.189 0.826,-6.373 -0.117,-0.887 -0.117,-1.887 -0.176,-2.773 l -0.767,-23.842 z"
         id="path777"
         style="fill:#00a0e9" />
      <path
         d="m 941.812,446.375 c -0.296,0.057 -0.531,0.119 -0.766,0.354 -0.18,0.234 -0.297,0.473 -0.297,0.766 l 0.827,24.371 c 0.059,0.887 0.059,1.887 0.176,2.773 0.179,2.184 -0.058,4.246 -0.826,6.373 -0.177,0.293 -0.354,0.59 -0.591,0.824 -15.104,5.488 -29.088,8.379 -41.834,8.734 -4.78,0.355 -9.382,-0.236 -13.808,-1.656 -0.591,-0.232 -1.18,-0.41 -1.771,-0.586 l -0.058,-0.059 c -1.417,-0.357 -2.36,-0.889 -2.951,-1.594 -0.412,-0.531 -0.473,-1.18 -0.176,-1.949 v -0.057 c 0.767,-2.066 1.828,-3.775 3.185,-5.135 2.893,-2.594 6.079,-4.721 9.678,-6.256 3.777,-1.59 7.67,-2.83 11.626,-3.656 2.3,-0.473 4.601,-0.768 6.96,-1.002 l 0.65,-0.061 6.431,-20.65 c 0.061,-0.299 0.061,-0.533 -0.058,-0.709 -0.119,-0.295 -0.294,-0.473 -0.59,-0.531 -0.235,-0.059 -0.53,0 -0.768,0.119 -0.236,0.117 -0.413,0.293 -0.474,0.588 l -6.017,19.355 c -2.125,0.178 -4.307,0.471 -6.491,0.883 -4.131,0.887 -8.086,2.127 -12.037,3.836 -3.776,1.594 -7.2,3.893 -10.208,6.668 -1.712,1.535 -2.893,3.482 -3.776,5.963 -0.531,1.531 -0.355,2.77 0.473,3.891 0.706,0.941 2.005,1.711 3.952,2.242 0.591,0.18 1.181,0.412 1.77,0.592 4.663,1.594 9.5,2.184 14.517,1.713 12.981,-0.355 27.143,-3.307 42.604,-8.914 h 0.178 l 0.117,-0.115 c 0.53,-0.473 1.003,-1.062 1.298,-1.713 l 0.059,-0.059 c 0.827,-2.418 1.122,-4.838 0.945,-7.316 -0.118,-0.887 -0.118,-1.77 -0.118,-2.654 l -0.886,-24.43 c 0,-0.297 -0.06,-0.529 -0.295,-0.707 -0.179,-0.179 -0.415,-0.236 -0.65,-0.236"
         id="path779"
         style="fill:#00499d" />
      <path
         d="m 936.62,279.503 c 0.885,1.476 1.475,3.009 1.771,4.543 0.823,-0.708 1.531,-1.179 2.238,-1.592 3.13,-1.712 6.553,-2.125 10.092,-1.181 3.659,0.885 6.432,2.892 8.38,5.9 1.946,3.07 2.536,6.256 1.651,9.619 -0.296,1.358 -0.885,2.596 -1.594,3.659 0.119,0.117 0.236,0.117 0.354,0.177 0.53,0.295 1.122,0.53 1.652,0.708 1.062,0.53 2.065,1.002 3.01,1.534 4.131,2.124 7.434,4.366 9.854,6.726 7.258,6.964 8.675,16.64 4.249,29.032 -1.534,4.189 -4.071,7.848 -7.79,10.798 -3.54,2.951 -7.847,5.133 -12.92,6.551 -10.742,3.008 -22.248,2.299 -34.521,-2.008 -7.73,-2.773 -13.985,-5.958 -18.884,-9.559 -4.896,-3.835 -8.909,-8.438 -11.919,-13.984 -2.064,-3.717 -3.422,-7.73 -4.013,-12.037 -0.175,-2.007 -0.118,-4.013 0.178,-6.019 0.236,-1.771 0.649,-3.54 1.299,-5.311 1.415,-3.835 2.95,-6.963 4.661,-9.558 0.413,-0.473 0.768,-1.063 1.18,-1.476 3.541,-4.543 8.085,-7.258 13.868,-8.084 l 1.947,-0.237 c -0.237,-0.707 -0.297,-1.533 -0.18,-2.3 0,-0.413 0,-0.767 0.061,-1.063 0.06,-0.413 0.177,-0.885 0.295,-1.238 0.885,-3.659 2.949,-6.433 6.256,-8.38 3.305,-1.947 6.667,-2.418 10.384,-1.474 3.66,0.943 6.492,3.009 8.441,6.254"
         id="path781"
         style="fill:#00a0e9" />
      <path
         d="m 938.391,284.046 c 0.824,-0.708 1.532,-1.18 2.239,-1.593 3.13,-1.711 6.552,-2.125 10.092,-1.18 3.659,0.885 6.432,2.891 8.38,5.9 1.946,3.069 2.536,6.256 1.651,9.619 -0.296,1.358 -0.884,2.596 -1.594,3.658 0.119,0.118 0.236,0.118 0.353,0.178 0.531,0.294 1.123,0.53 1.653,0.707 1.062,0.531 2.065,1.003 3.01,1.534 4.13,2.124 7.434,4.367 9.854,6.727 7.258,6.963 8.675,16.64 4.249,29.031 -1.533,4.19 -4.071,7.849 -7.79,10.799 -3.54,2.95 -7.847,5.133 -12.92,6.55 -10.741,3.008 -22.248,2.3 -34.521,-2.008 -7.73,-2.773 -13.985,-5.957 -18.884,-9.559 -4.896,-3.835 -8.909,-8.437 -11.919,-13.983 -2.065,-3.717 -3.422,-7.731 -4.013,-12.038 -0.176,-2.006 -0.118,-4.013 0.179,-6.018 0.235,-1.771 0.648,-3.541 1.298,-5.311 1.415,-3.836 2.95,-6.963 4.661,-9.559 0.414,-0.473 0.767,-1.062 1.18,-1.475 3.541,-4.543 8.085,-7.259 13.868,-8.084 l 1.947,-0.237 c -0.237,-0.708 -0.297,-1.533 -0.18,-2.301 0,-0.413 0,-0.767 0.061,-1.062 0.059,-0.413 0.177,-0.885 0.295,-1.239 0.885,-3.659 2.949,-6.432 6.256,-8.379 3.305,-1.947 6.667,-2.419 10.383,-1.475 3.659,0.944 6.491,3.01 8.44,6.255 0.886,1.476 1.476,3.009 1.772,4.543"
         id="path783"
         style="fill:none;stroke:#00489c;stroke-width:1.977;stroke-linecap:round;stroke-linejoin:round" />
      <path
         d="m 936.324,280.86 c 0.826,1.594 1.298,3.187 1.416,4.722 1.062,-1.181 2.36,-2.126 4.012,-2.893 3.129,-1.416 6.373,-1.592 9.68,-0.412 3.361,1.179 5.781,3.305 7.375,6.373 1.532,3.185 1.769,6.314 0.647,9.559 -1.12,3.186 -3.304,5.546 -6.373,6.962 -3.185,1.475 -6.431,1.593 -9.734,0.413 -3.305,-1.18 -5.725,-3.304 -7.317,-6.431 -0.768,-1.535 -1.24,-3.128 -1.298,-4.663 -1.122,1.181 -2.479,2.125 -4.071,2.892 -3.245,1.416 -6.491,1.535 -9.856,0.354 -3.361,-1.121 -5.781,-3.304 -7.375,-6.431 -1.651,-3.069 -1.888,-6.256 -0.708,-9.442 1.122,-3.245 3.247,-5.545 6.433,-6.962 3.185,-1.476 6.431,-1.593 9.736,-0.413 3.421,1.18 5.898,3.245 7.433,6.372"
         id="path785"
         style="fill:#ffffff" />
      <path
         d="m 950.309,288.059 c -0.296,-1.357 -1.062,-2.478 -2.241,-3.127 -1.241,-0.708 -2.538,-0.945 -3.896,-0.591 -1.357,0.296 -2.36,1.063 -3.126,2.301 -0.711,1.24 -0.885,2.48 -0.592,3.836 0.354,1.416 1.122,2.42 2.302,3.186 1.239,0.709 2.536,0.886 3.835,0.532 1.415,-0.354 2.479,-1.122 3.186,-2.302 0.708,-1.18 0.945,-2.537 0.532,-3.835"
         id="path787" />
      <path
         d="m 931.839,288.472 c -0.295,-1.357 -1.062,-2.42 -2.243,-3.128 -1.237,-0.707 -2.477,-0.944 -3.894,-0.53 -1.298,0.294 -2.36,1.061 -3.067,2.301 -0.768,1.18 -0.886,2.42 -0.591,3.777 0.355,1.416 1.062,2.477 2.303,3.186 1.237,0.707 2.479,0.885 3.833,0.53 1.358,-0.353 2.48,-1.121 3.129,-2.3 0.766,-1.181 0.943,-2.479 0.53,-3.836"
         id="path789" />
      <path
         d="m 897.381,310.777 c -0.354,-2.833 -0.236,-5.783 0.352,-8.792 l 1.003,-3.6 c 7.731,8.674 20.004,14.456 36.939,17.23 5.311,0.886 10.681,1.475 16.287,1.652 h 6.845 c -5.489,12.805 -14.635,19.178 -27.321,18.883 -4.013,0 -8.084,-0.768 -12.332,-2.184 -2.064,-0.648 -3.836,-1.297 -5.075,-1.947 -10.032,-4.897 -15.578,-11.978 -16.698,-21.242"
         id="path791" />
      <path
         d="m 954.381,375.803 1.002,0.059 c 5.842,0.53 11.742,0.236 17.525,-0.709 5.428,-0.945 10.739,-2.596 15.696,-5.074 4.956,-2.361 9.322,-5.429 13.276,-9.206 3.244,-3.186 5.664,-6.727 7.434,-10.798 0.531,-1.24 1.005,-2.359 1.477,-3.599 0.825,-2.301 1.593,-4.603 2.3,-6.964 l 0.355,0.178 c 2.655,1.003 5.133,1.475 7.375,1.475 3.364,0.117 5.43,-0.885 6.137,-2.715 0.886,-1.888 0.236,-4.071 -2.006,-6.608 -0.886,-1.003 -1.947,-2.006 -3.127,-2.951 -1.358,-1.003 -2.95,-1.947 -4.72,-2.773 0.058,0 0.117,-0.059 0.176,-0.059 h 0.057 c 1.301,-0.235 2.422,-0.708 3.483,-1.18 1.416,-0.767 2.596,-1.77 3.541,-3.068 1.593,-2.242 2.3,-4.544 2.006,-6.786 -0.236,-2.478 -1.829,-4.248 -4.84,-5.252 -2.653,-0.944 -5.487,-1.003 -8.438,-0.177 -1.71,0.531 -3.362,1.239 -5.134,2.301 -0.412,-2.242 -0.648,-3.598 -0.766,-4.13 -0.474,-1.829 -1.12,-3.482 -2.007,-4.957 h -0.06 c -0.118,-0.294 -0.294,-0.649 -0.531,-0.944 h -0.059 c -1.594,-2.301 -3.54,-3.363 -5.604,-3.363 -2.359,0 -4.308,1.358 -5.843,4.307 -1.417,2.656 -2.064,5.783 -1.946,9.56 0,0.177 0.059,0.59 0.176,1.239 l 0.236,1.003 c 0.06,0.236 0.06,0.413 0.178,0.589 0,0.237 0.06,0.295 0.117,0.473 0.059,1.003 -0.178,1.947 -0.768,2.774 -0.115,0.117 -0.177,0.294 -0.234,0.412 -0.118,0 -0.118,0 -0.178,-0.059 -0.178,-0.059 -0.295,-0.118 -0.473,-0.177 0,0 0,0.059 -0.058,0.059 l -3.129,-0.531 c -2.89,-0.295 -5.133,-0.413 -6.785,-0.176 v -0.06 c -2.95,0.354 -4.839,2.007 -5.723,4.957 -1.003,2.951 0.768,5.606 5.312,7.966 0.883,0.53 1.77,0.944 2.654,1.357 0.825,0.413 1.591,0.767 2.419,1.062 0.237,0.177 0.532,0.295 0.769,0.354 0.766,0.354 1.532,0.708 2.241,1.063 0.117,0 0.177,0.058 0.294,0.117 -0.177,0.471 -0.354,0.945 -0.531,1.416 -0.06,0.118 -0.06,0.237 -0.174,0.354 -0.18,0.649 -0.476,1.357 -0.771,1.947 -2.359,5.251 -6.785,8.852 -13.098,11.036 -6.669,2.242 -13.16,3.716 -19.71,4.247 v 0.059 l -1.002,0.059 0.176,1.948 0.886,-0.119 h 0.119 c 6.667,-0.531 13.392,-1.947 20.121,-4.248 6.137,-2.183 10.621,-5.546 13.278,-10.209 1,-1.77 1.826,-3.54 2.711,-5.31 0.237,-0.59 0.532,-1.18 0.65,-1.888 v -0.177 l -0.118,-0.118 h -0.178 c -0.59,-0.295 -1.182,-0.472 -1.77,-0.767 0,0 0,-0.059 -0.118,-0.118 -1.298,-0.531 -2.656,-1.18 -3.954,-1.888 -0.471,-0.177 -0.944,-0.413 -1.416,-0.65 -0.825,-0.353 -1.71,-0.767 -2.597,-1.297 -3.303,-1.712 -4.72,-3.6 -4.189,-5.606 l -0.059,0.058 c 0.649,-2.123 2.006,-3.303 4.071,-3.598 1.593,-0.178 3.601,-0.119 6.257,0.235 l 3.598,0.59 c 0.412,0.118 0.886,0.178 1.297,0.237 v 0.058 h 0.061 c 0,-0.058 0.117,-0.058 0.176,0 0,-0.117 0.119,-0.117 0.119,-0.236 0.118,-0.059 0.118,-0.176 0.177,-0.235 1.417,-1.357 1.888,-3.01 1.476,-5.134 -0.059,-0.531 -0.178,-1.003 -0.296,-1.534 -0.059,-0.59 -0.177,-1.122 -0.177,-1.712 0,-0.059 -0.059,-0.059 -0.059,-0.059 -0.06,-0.236 -0.06,-0.472 -0.06,-0.648 h 0.06 c 0,-2.952 0.531,-5.547 1.711,-7.672 1.121,-2.183 2.478,-3.245 4.131,-3.245 h 0.058 c 1.418,0 2.716,0.827 3.895,2.419 v 0.059 c 0.177,0.177 0.294,0.473 0.475,0.708 v 0.059 c 0.353,0.532 0.646,1.122 0.884,1.771 0.412,0.59 0.707,1.18 0.944,1.947 0.236,0.709 0.471,1.475 0.649,2.242 0.178,0.531 0.293,1.004 0.412,1.534 0,0.178 0.06,0.413 0.06,0.649 0.059,0.295 0.117,0.591 0.117,0.885 0.118,0.532 0.178,1.063 0.178,1.594 1.002,-0.59 2.066,-1.121 3.186,-1.594 1.358,-0.59 2.773,-1.061 4.19,-1.356 l 0.414,-0.119 h 0.119 c 0,0 0.057,-0.059 0.175,-0.059 2.183,-0.472 4.247,-0.354 6.196,0.354 2.064,0.709 3.186,1.889 3.422,3.54 0.177,1.77 -0.354,3.541 -1.651,5.43 -0.709,1.003 -1.653,1.829 -2.833,2.478 -0.826,0.354 -1.594,0.649 -2.597,0.885 -1.358,0.413 -2.831,0.648 -4.308,0.826 -0.649,0.059 -1.298,0.118 -1.889,0.177 1.416,0.531 2.715,1.18 4.072,1.889 1.062,0.59 2.124,1.298 3.009,2.005 0.886,0.473 1.712,1.062 2.479,1.593 1.062,0.826 2.066,1.712 2.832,2.655 1.476,1.771 2.064,3.187 1.595,4.367 -0.413,0.886 -1.3,1.417 -2.656,1.593 -0.413,0.06 -0.887,0.06 -1.357,0.06 -2.419,0 -4.838,-0.295 -7.14,-0.885 -0.413,-0.059 -0.767,-0.177 -1.239,-0.296 -0.236,-0.059 -0.531,-0.177 -0.766,-0.236 -0.118,0.177 -0.18,0.355 -0.297,0.591 -0.531,1.592 -1.121,3.245 -1.653,4.837 -0.353,1.064 -0.767,2.007 -1.297,3.01 -1.592,5.075 -4.306,9.559 -8.201,13.276 -3.72,3.66 -7.967,6.61 -12.687,8.852 -4.898,2.361 -9.913,3.953 -15.223,4.84 -5.607,0.941 -11.331,1.238 -16.996,0.766 h -0.353 l -0.649,-0.06 -0.174,1.949 z"
         id="path793"
         style="fill:#00499d" />
      <path
         d="m 955.207,373.914 h 0.354 c 5.665,0.472 11.388,0.175 16.995,-0.766 5.31,-0.887 10.324,-2.479 15.223,-4.839 4.72,-2.243 8.967,-5.193 12.687,-8.853 3.895,-3.717 6.609,-8.201 8.201,-13.276 0.53,-1.003 0.944,-1.946 1.297,-3.01 0.532,-1.591 1.122,-3.245 1.653,-4.837 0.117,-0.236 0.179,-0.414 0.297,-0.59 0.234,0.058 0.529,0.176 0.766,0.235 0.472,0.119 0.826,0.237 1.239,0.296 2.302,0.59 4.721,0.886 7.14,0.886 0.471,0 0.944,0 1.357,-0.06 1.356,-0.177 2.243,-0.708 2.656,-1.594 0.47,-1.179 -0.119,-2.596 -1.594,-4.366 -0.767,-0.944 -1.771,-1.83 -2.832,-2.656 -0.768,-0.53 -1.594,-1.12 -2.479,-1.592 -0.885,-0.708 -1.946,-1.416 -3.009,-2.006 -1.357,-0.709 -2.656,-1.358 -4.072,-1.889 0.591,-0.059 1.239,-0.118 1.889,-0.177 1.477,-0.177 2.949,-0.413 4.308,-0.826 1.003,-0.236 1.771,-0.531 2.597,-0.885 1.18,-0.649 2.124,-1.475 2.833,-2.478 1.297,-1.889 1.828,-3.659 1.651,-5.429 -0.236,-1.652 -1.357,-2.832 -3.422,-3.54 -1.949,-0.708 -4.014,-0.827 -6.196,-0.354 -0.118,0 -0.176,0.058 -0.176,0.058 h -0.118 l -0.414,0.119 c -1.417,0.295 -2.832,0.766 -4.19,1.356 -1.118,0.473 -2.184,1.004 -3.186,1.594 0,-0.531 -0.06,-1.062 -0.178,-1.594 0,-0.294 -0.059,-0.59 -0.117,-0.885 0,-0.235 -0.06,-0.471 -0.06,-0.648 -0.119,-0.531 -0.234,-1.004 -0.411,-1.535 -0.18,-0.767 -0.414,-1.533 -0.65,-2.242 -0.237,-0.767 -0.532,-1.357 -0.944,-1.947 -0.237,-0.649 -0.53,-1.239 -0.884,-1.771 v -0.059 c -0.18,-0.235 -0.298,-0.53 -0.475,-0.708 v -0.059 c -1.179,-1.592 -2.477,-2.419 -3.895,-2.419 h -0.058 c -1.653,0 -3.01,1.062 -4.131,3.245 -1.18,2.125 -1.711,4.721 -1.711,7.672 h -0.06 c 0,0.177 0,0.412 0.06,0.648 0,0 0.059,0 0.059,0.059 0,0.591 0.118,1.122 0.177,1.712 0.118,0.531 0.237,1.003 0.296,1.534 0.412,2.124 -0.059,3.777 -1.476,5.134 -0.058,0.059 -0.058,0.176 -0.178,0.235 0,0.119 -0.118,0.119 -0.118,0.236 -0.059,-0.058 -0.176,-0.058 -0.176,0 h -0.061 v -0.058 c -0.411,-0.059 -0.885,-0.118 -1.297,-0.237 l -3.599,-0.589 c -2.655,-0.354 -4.663,-0.413 -6.255,-0.236 -2.066,0.295 -3.423,1.475 -4.072,3.598 l 0.059,-0.058 c -0.529,2.006 0.888,3.894 4.189,5.606 0.887,0.531 1.771,0.944 2.597,1.298 0.472,0.236 0.945,0.472 1.416,0.649 1.298,0.709 2.656,1.357 3.954,1.888 0.118,0.059 0.118,0.118 0.118,0.118 0.588,0.295 1.18,0.473 1.77,0.767 h 0.178 l 0.118,0.118 v 0.177 c -0.118,0.708 -0.412,1.298 -0.65,1.889 -0.885,1.77 -1.71,3.539 -2.712,5.31 -2.656,4.662 -7.141,8.026 -13.277,10.208 -6.729,2.301 -13.454,3.717 -20.121,4.248 h -0.119 l 1.239,18.175 z"
         id="path795"
         style="fill:#00a0e9" />
      <path
         d="m 1017.338,326.059 h -0.057 0.057 z"
         id="path797"
         style="fill:#009944" />
      <path
         d="m 901.214,341.815 2.894,-2.125 c 4.306,2.951 8.968,5.016 14.041,6.137 6.434,1.357 12.982,2.241 19.532,2.478 7.081,0.236 13.927,-0.473 20.711,-2.125 l 0.415,9.797 c 0.059,2.36 0,4.484 -0.179,6.254 -0.708,6.137 2.244,14.575 8.734,25.195 6.49,10.681 9.5,21.303 9.025,31.984 -0.527,10.678 -6.195,19.531 -17.109,26.609 -6.137,3.953 -12.923,5.783 -20.299,5.607 -0.943,0.057 -1.89,0.115 -2.95,0.115 -24.962,0.77 -44.139,-1.535 -57.473,-6.902 -11.094,-4.662 -18.41,-12.568 -22.069,-23.84 -3.601,-11.209 -1.356,-23.365 6.67,-36.583 8.023,-13.159 17.582,-24.842 28.676,-34.872 3.068,-2.714 6.136,-5.31 9.381,-7.729"
         id="path799"
         style="fill:#00a0e9" />
      <path
         d="m 921.277,347.301 c 4.425,-1.593 7.553,-1.651 9.322,-0.236 1.476,1.18 2.951,2.832 4.425,5.016 0.946,1.475 2.598,4.072 4.781,7.789 2.302,3.953 4.486,7.671 6.727,11.212 -0.296,0.411 -0.591,0.766 -1.003,1.062 -7.08,-0.473 -12.628,-4.191 -16.581,-11.094 -2.537,-4.544 -5.133,-9.146 -7.671,-13.749"
         id="path801"
         style="fill:#00a0e9" />
    </g>
  </g>
</svg>
