<?xml version="1.0" encoding="UTF-8" standalone="no"?>
<!-- Created with Inkscape (http://www.inkscape.org/) -->

<svg
   xmlns:dc="http://purl.org/dc/elements/1.1/"
   xmlns:cc="http://creativecommons.org/ns#"
   xmlns:rdf="http://www.w3.org/1999/02/22-rdf-syntax-ns#"
   xmlns:svg="http://www.w3.org/2000/svg"
   xmlns="http://www.w3.org/2000/svg"
   version="1.1"
   width="175"
   height="235"
   id="svg4502">
  <defs
     id="defs4504" />
  <metadata
     id="metadata4507">
    <rdf:RDF>
      <cc:Work
         rdf:about="">
        <dc:format>image/svg+xml</dc:format>
        <dc:type
           rdf:resource="http://purl.org/dc/dcmitype/StillImage" />
        <dc:title></dc:title>
      </cc:Work>
    </rdf:RDF>
  </metadata>
  <g
     transform="translate(0,-245)"
     id="layer1">
    <g
       transform="translate(-859.79708,227.44313)"
       id="g443">
      <path
         d="m 950.728,113.872 -0.227,-1.179 c -0.932,-4.517 -1.312,-10.037 -1.139,-16.542 2.835,0.272 5.238,0.529 7.231,0.737 4.5,0.483 7.67,0.92 9.507,1.297 1.367,0.303 2.689,0.628 3.951,0.977 4.057,1.11 7.993,2.52 11.794,4.219 l 0.016,0.009 c 2.343,1.05 4.556,2.21 6.649,3.47 0.171,0.106 0.34,0.199 0.5,0.307 2.142,1.577 4.206,3.272 6.193,5.094 3.586,3.264 6.716,6.832 9.377,10.717 0.54,0.916 1.017,1.819 1.428,2.709 -0.411,-0.89 -0.888,-1.793 -1.428,-2.709 2.058,2.978 3.839,6.139 5.337,9.489 l 0.456,1.638 c -0.019,-0.085 0.071,-0.014 0.266,0.212 0.266,0.921 0.487,1.747 0.671,2.504 l 0.038,0.131 -0.225,-0.31 0.886,3.42 0.659,-0.164 c 2.281,7.986 2.293,16.044 0.042,24.183 -0.641,2.303 -1.421,4.533 -2.343,6.687 l -17.598,1.028 c 1.325,-9.158 0.933,-18.278 -1.153,-27.36 -0.216,-0.853 -0.441,-1.703 -0.668,-2.555 -0.788,-2.857 -1.865,-5.635 -3.223,-8.309 l -0.291,-0.598 c -0.264,-0.517 -0.534,-1.007 -0.822,-1.456 -0.704,-1.11 -1.854,-2.5 -3.443,-4.16 -0.466,-0.528 -0.903,-0.961 -1.28,-1.278 -0.2,-0.202 -0.414,-0.387 -0.614,-0.575 -2.09,-1.903 -4.467,-3.587 -7.134,-5.076 -2.859,-1.58 -6.028,-2.923 -9.515,-4.028 -2.317,-0.725 -4.7,-1.324 -7.167,-1.769 l -6.731,-0.76 z"
         id="path445"
         style="fill:#00a0e9" />
      <path
         d="m 989.011,107.167 c 0.599,0.363 1.188,0.741 1.753,1.124 2.418,1.764 4.624,3.683 6.634,5.751 2.995,3.064 5.244,5.793 6.735,8.177 0.162,0.245 0.31,0.494 0.448,0.759 -2.661,-3.886 -5.79,-7.453 -9.377,-10.717 -1.987,-1.823 -4.052,-3.516 -6.193,-5.094"
         id="path447"
         style="fill:#00a0e9" />
      <path
         d="m 982.792,126.965 c -0.299,-0.308 -0.597,-0.603 -0.902,-0.885 0.377,0.317 0.814,0.75 1.28,1.278 -0.127,-0.127 -0.251,-0.254 -0.378,-0.393"
         id="path449"
         style="fill:#00a0e9" />
      <path
         d="m 1008.077,127.531 0.201,-0.062 c 0.489,1.103 0.876,2.197 1.174,3.286 0.192,0.67 0.339,1.245 0.466,1.712 -1.498,-3.35 -3.278,-6.51 -5.337,-9.489 -0.139,-0.264 -0.286,-0.513 -0.448,-0.758 -1.491,-2.384 -3.74,-5.113 -6.735,-8.177 -2.01,-2.069 -4.217,-3.988 -6.633,-5.752 3.26,2.158 6.19,4.564 8.786,7.253 2.993,3.065 5.243,5.793 6.735,8.176 0.729,1.169 1.351,2.322 1.875,3.468 l -0.188,0.074 0.104,0.269 z"
         id="path451"
         style="fill:#00a0e9" />
      <polygon
         points="1008.077,127.531 1007.974,127.262 1008.161,127.188 1008.232,127.163 1008.336,127.445 1008.278,127.466 1008.278,127.469 "
         id="polygon453"
         style="fill:#00398c" />
      <path
         d="m 989.27,139.044 c -0.234,-0.17 -0.352,-0.26 -0.354,-0.272 0.061,-0.149 0.133,-0.29 0.193,-0.439 0.133,-0.291 0.163,-0.523 0.118,-0.692 -0.444,-1.526 -0.943,-2.879 -1.5,-4.069 1.357,2.674 2.435,5.452 3.223,8.309 0.227,0.852 0.452,1.703 0.668,2.556 l -0.121,0.022 -0.391,-1.044 -1.511,-4.12 c 0.01,-0.013 -0.093,-0.094 -0.325,-0.251"
         id="path455"
         style="fill:#00a0e9" />
      <path
         d="m 987.436,132.974 c -0.405,-0.601 -0.891,-1.292 -1.455,-2.063 -1.076,-1.468 -2.011,-2.661 -2.811,-3.553 -0.466,-0.528 -0.903,-0.961 -1.28,-1.278 -0.2,-0.201 -0.414,-0.387 -0.614,-0.575 m 7.235,-18.645 c 0.171,0.106 0.34,0.2 0.5,0.308 2.142,1.576 4.206,3.271 6.193,5.093 3.587,3.265 6.716,6.832 9.377,10.717 2.058,2.979 3.839,6.139 5.337,9.489 0.546,1.193 1.044,2.406 1.507,3.64 0.48,1.255 0.89,2.524 1.244,3.792 2.281,7.985 2.293,16.043 0.042,24.183 -0.641,2.302 -1.422,4.532 -2.343,6.686 -2.773,6.466 -6.813,12.178 -12.119,17.14"
         id="path457"
         style="fill:none;stroke:#00499d;stroke-width:1.97899997;stroke-linecap:round;stroke-linejoin:round;stroke-miterlimit:10" />
      <path
         d="m 987.727,133.572 -0.291,-0.598 c -0.265,-0.517 -0.534,-1.007 -0.822,-1.455 -0.704,-1.111 -1.854,-2.501 -3.443,-4.161 -0.127,-0.127 -0.251,-0.254 -0.378,-0.393 -0.299,-0.308 -0.597,-0.603 -0.902,-0.885 M 947.208,94.651 c 2.836,0.272 5.241,0.529 7.232,0.737 4.503,0.483 7.672,0.918 9.506,1.295 1.368,0.305 2.69,0.63 3.953,0.979 4.056,1.109 7.991,2.519 11.795,4.219 0.8,0.361 1.575,0.728 2.345,1.123 0.011,-0.002 0.011,-0.002 0.013,0.01 3.147,1.56 6.056,3.319 8.712,5.277 2.418,1.764 4.624,3.683 6.634,5.752 2.995,3.064 5.244,5.793 6.734,8.177 0.163,0.245 0.311,0.494 0.449,0.758 0.54,0.916 1.017,1.819 1.428,2.709 m -24.734,-0.182 c -2.09,-1.903 -4.467,-3.586 -7.134,-5.076 -2.859,-1.58 -6.028,-2.923 -9.515,-4.028 -2.317,-0.725 -4.7,-1.324 -7.167,-1.769"
         id="path459"
         style="fill:none;stroke:#00499d;stroke-width:1.97899997;stroke-linecap:square;stroke-miterlimit:10" />
      <path
         d="m 992.771,171.796 c 1.325,-9.158 0.933,-18.277 -1.155,-27.359 -0.214,-0.853 -0.439,-1.704 -0.666,-2.556 -0.788,-2.857 -1.865,-5.635 -3.223,-8.309"
         id="path461"
         style="fill:none;stroke:#00499d;stroke-width:1.97899997;stroke-linecap:round;stroke-linejoin:round;stroke-miterlimit:10" />
      <line
         style="fill:none;stroke:#00499d;stroke-width:1.97899997;stroke-linecap:round;stroke-miterlimit:10"
         x1="957.46002"
         y1="114.632"
         x2="950.72803"
         y2="113.872"
         id="line463" />
      <path
         d="m 922.811,99.841 c -0.175,0.036 -0.308,0.063 -0.396,0.081 -5.598,1.27 -9.709,2.957 -12.324,5.068 -0.375,0.293 -0.72,0.608 -1.025,0.925 -0.964,0.979 -1.905,2.244 -2.818,3.771 -0.304,0.51 -0.605,1.042 -0.909,1.614 -0.304,0.572 -0.662,1.31 -1.089,2.212 l -0.011,0.017 c -0.668,1.411 -1.483,3.221 -2.443,5.445 l 0.003,0.013 c -0.083,0.156 -0.153,0.311 -0.221,0.479 l -0.412,-0.755 c -4.793,10.542 -9.438,19.77 -13.931,27.693 l -0.393,0.755 -0.027,-0.007 c -4.203,7.646 -6.397,15.204 -6.582,22.673 -0.01,0.204 -0.018,0.41 -0.012,0.624 -0.099,7.463 1.444,14.101 4.625,19.937 l 0.942,-0.463 c 0.022,0.046 0.043,0.093 0.064,0.127 l 0.002,0.011 c 3.05,5.689 7.267,10.035 12.637,13.075 0.101,0.056 0.19,0.112 0.292,0.168 l 0.015,0.009 c 5.681,3.116 11.914,4.334 18.686,3.644 0.089,-0.005 0.162,-0.021 0.253,-0.026 4.391,-0.472 8.618,-1 12.675,-1.604 1.257,-0.187 2.513,-0.384 3.743,-0.578 7.396,-1.2 14.192,-2.633 20.39,-4.296 1.032,-0.277 2.053,-0.554 3.057,-0.84 8.798,-2.55 16.299,-5.579 22.53,-9.104 3.43,-1.952 6.481,-4.052 9.131,-6.296 -0.003,-0.012 -0.003,-0.012 0.012,-0.002 0.39,-0.35 0.781,-0.688 1.158,-1.032 0.668,-0.609 1.312,-1.215 1.926,-1.84 0.215,-0.262 0.445,-0.513 0.673,-0.776 4.445,-5.191 7.285,-10.58 8.526,-16.195 1.041,-5.523 0.591,-11.484 -1.342,-17.914 -0.37,-1.22 -0.779,-2.445 -1.227,-3.662 -0.012,0.002 -0.012,0.002 -10e-4,-0.012 -2.52,-6.713 -6.417,-13.457 -11.69,-20.219 l -0.015,-0.009 c -1.438,-1.849 -2.979,-3.691 -4.622,-5.536 -1.543,-1.739 -3.175,-3.472 -4.897,-5.212 -0.909,-0.904 -1.811,-1.785 -2.711,-2.653 -0.012,0.003 -0.012,0.003 -0.014,-0.009 -0.302,-0.281 -0.606,-0.574 -0.911,-0.854 -0.411,-0.372 -0.819,-0.744 -1.218,-1.106 -2.959,-2.678 -5.935,-5.072 -8.904,-7.188 -0.335,-0.248 -0.663,-0.472 -0.992,-0.695 l -0.002,-0.013 c -1.245,-0.86 -2.415,-1.608 -3.488,-2.26 -2.287,-1.369 -4.222,-2.276 -5.81,-2.694 -18.246,3.21 -28.553,5.044 -30.903,5.509"
         id="path465"
         style="fill:#00a0e9" />
      <path
         d="m 909.51,104.36 c -0.229,0.188 -0.436,0.371 -0.636,0.578 -1.094,1.094 -2.163,2.55 -3.229,4.389 -0.199,0.346 -0.403,0.708 -0.608,1.082 -0.399,0.732 -0.855,1.679 -1.398,2.823 l -0.011,0.015 c -0.703,1.484 -1.52,3.295 -2.464,5.463 -4.792,10.542 -9.437,19.77 -13.93,27.692 -0.14,0.246 -0.277,0.503 -0.42,0.749 -4.203,7.646 -6.397,15.204 -6.582,22.673 -0.01,0.204 -0.018,0.41 -0.012,0.624 -0.098,7.463 1.443,14.101 4.625,19.937 l 0.043,0.08 c 0.02,0.035 0.023,0.059 0.042,0.082 0.016,0.009 0.018,0.022 0.021,0.033 3.144,5.781 7.527,10.184 13.128,13.226 0.104,0.067 0.218,0.121 0.334,0.184 0.013,-0.002 0.013,-0.002 0.028,0.008 l 0.014,0.009 c 5.794,3.041 12.151,4.181 19.066,3.436 0.09,-0.006 0.187,-0.026 0.275,-0.031 4.394,-0.471 8.617,-1.01 12.674,-1.615 0.013,-0.002 0.013,-0.002 0.025,-0.004 1.258,-0.188 2.511,-0.385 3.743,-0.578 7.209,-1.175 13.851,-2.548 19.925,-4.122 0.17,-0.048 0.341,-0.086 0.512,-0.134 l 0.012,-0.002 c 1.031,-0.277 2.054,-0.554 3.062,-0.828 8.687,-2.463 16.045,-5.373 22.1,-8.711 0.207,-0.107 0.413,-0.226 0.61,-0.33 -0.002,-0.014 -0.002,-0.014 0.009,-0.016 1.965,-1.096 3.551,-2.038 4.786,-2.832 1.808,-1.178 3.312,-2.319 4.526,-3.451 1.084,-1.016 2.106,-2.016 3.045,-3.001 -0.004,-0.013 0.01,-0.015 0.017,-0.03 0.231,-0.252 0.461,-0.503 0.691,-0.754 L 993.545,181 c 4.791,-5.327 7.768,-10.793 8.929,-16.417 l 0.01,-0.028 c 0,-0.052 0.015,-0.104 0.032,-0.147 l 0.021,-0.143 c 1.029,-4.783 0.397,-10.758 -1.906,-17.922 -0.247,-0.751 -0.505,-1.5 -0.782,-2.268 -0.163,-0.473 -0.339,-0.947 -0.511,-1.406 -0.002,-0.014 -0.002,-0.014 -0.005,-0.024 -2.801,-7.508 -6.008,-13.593 -9.623,-18.246 -0.631,-0.81 -1.227,-1.577 -1.803,-2.309 -0.016,-0.008 -0.016,-0.008 -0.018,-0.021 -1.766,-2.239 -3.284,-4.11 -4.548,-5.616 l -0.016,-0.01 c -0.833,-0.983 -1.544,-1.801 -2.153,-2.45 -1.472,-1.577 -3.304,-3.407 -5.496,-5.482 l -0.011,0.002 c -0.302,-0.279 -0.595,-0.575 -0.897,-0.854 -0.015,-0.011 -0.015,-0.011 -0.029,-0.02 -0.382,-0.353 -0.777,-0.716 -1.178,-1.091 -0.015,-0.008 -0.031,-0.03 -0.047,-0.04 -3.252,-2.973 -6.645,-5.521 -10.193,-7.644 -1.262,-0.754 -2.464,-1.483 -3.597,-2.175 -1.985,-1.214 -3.774,-2.342 -5.363,-3.371 -0.073,-0.049 -0.134,-0.087 -0.207,-0.136 -0.211,0.033 -0.42,0.076 -0.629,0.121 -19.284,3.387 -29.591,5.222 -30.928,5.514 -0.135,0.028 -0.258,0.053 -0.391,0.093 -0.013,0.004 -0.025,0.007 -0.036,0.01 -5.813,1.352 -10.017,3.159 -12.617,5.394 -0.012,0.015 -0.032,0.031 -0.042,0.046 z"
         id="path467"
         style="fill:none;stroke:#00499d;stroke-width:2.00099993;stroke-linecap:round;stroke-miterlimit:10" />
      <path
         d="m 969.476,188.11 h 0.026 c 0.155,0.154 1.36,4.551 3.585,13.202 2.27,8.826 3.434,13.308 3.491,13.435 l 3.111,0.706 c 7.549,0.111 13.749,1.111 18.585,3.009 2.345,0.914 4.575,2.235 6.706,3.952 0.98,0.792 1.808,2.028 2.508,3.708 0.689,1.68 0.916,3.03 0.694,4.055 -0.367,1.642 -1.818,2.936 -4.364,3.882 -7.072,2.615 -18.54,2.105 -34.391,-1.518 -7.925,-1.805 -15.145,-3.885 -21.646,-6.226 l -0.629,-1.254 c -0.056,-0.164 -0.099,-0.339 -0.143,-0.526 -0.118,-0.937 -0.206,-1.6 -0.253,-2.013 -0.11,-0.788 0.31,-6.073 1.233,-15.871 0.925,-9.812 1.346,-15.11 1.272,-15.885 l 10e-4,-0.011 20.2,-2.658 0.014,0.013 z"
         id="path469"
         style="fill:#00a0e9" />
      <path
         d="m 969.476,188.11 -0.012,-0.013 -20.2,2.658 -10e-4,0.011 c 0.073,0.775 -0.348,6.073 -1.272,15.885 -0.924,9.798 -1.344,15.083 -1.233,15.871 0.047,0.413 0.135,1.074 0.253,2.013 0.044,0.188 0.087,0.362 0.143,0.526 l 0.629,1.254 c 6.502,2.341 13.722,4.421 21.646,6.226 15.851,3.623 27.318,4.133 34.391,1.518 2.546,-0.946 3.997,-2.24 4.364,-3.882 0.222,-1.025 0,-2.375 -0.694,-4.055 -0.7,-1.68 -1.527,-2.916 -2.508,-3.708 -2.131,-1.717 -4.361,-3.038 -6.706,-3.952 -4.836,-1.898 -11.036,-2.898 -18.585,-3.009 l -3.111,-0.706 c -0.058,-0.127 -1.222,-4.609 -3.491,-13.435 -2.225,-8.651 -3.43,-13.048 -3.585,-13.202 h -0.028 z"
         id="path471"
         style="fill:none;stroke:#00499d;stroke-width:1.99000001;stroke-linecap:round;stroke-miterlimit:10" />
      <path
         d="m 967.129,53.669 c -1.885,-3.163 -3.989,-5.668 -6.312,-7.501 -3.082,-2.415 -6.685,-3.763 -10.82,-4.025 -0.094,-0.009 -0.2,-0.015 -0.309,-0.019 -0.385,-0.022 -0.781,-0.039 -1.188,-0.04 -0.338,0.003 -0.677,0.007 -1.023,0.025 0.038,-0.207 0.076,-0.416 0.103,-0.621 0.018,-0.069 0.019,-0.15 0.034,-0.22 0.002,-0.039 0.002,-0.078 0.014,-0.121 0.179,-1.611 -0.012,-3.236 -0.564,-4.851 l -0.012,-0.035 c -0.004,-0.01 -0.004,-0.01 -0.009,-0.023 -0.023,-0.032 -0.038,-0.08 -0.05,-0.116 -0.026,-0.081 -0.049,-0.153 -0.087,-0.232 -1.16,-3.108 -3.339,-5.312 -6.543,-6.631 -3.19,-1.321 -6.452,-1.34 -9.797,-0.078 -3.33,1.284 -5.756,3.467 -7.269,6.551 -0.584,1.165 -0.965,2.345 -1.154,3.516 -0.883,-0.686 -1.893,-1.265 -3.02,-1.73 -3.19,-1.321 -6.451,-1.34 -9.798,-0.077 -2.13,0.822 -3.893,2.011 -5.289,3.58 -0.778,0.875 -1.431,1.865 -1.979,2.97 -1.359,2.745 -1.655,5.506 -0.879,8.275 0,0.04 0.009,0.064 0.021,0.098 0.086,0.314 0.2,0.629 0.313,0.947 0.491,1.293 1.152,2.428 1.99,3.416 0.017,0.007 0.023,0.03 0.043,0.051 0.022,0.032 0.054,0.049 0.077,0.08 0.023,0.032 0.03,0.056 0.055,0.087 0.092,0.167 0.058,0.387 -0.135,0.645 -0.009,0.014 -0.028,0.035 -0.036,0.05 -0.028,0.035 -0.056,0.07 -0.084,0.104 -0.172,0.121 -0.354,0.244 -0.561,0.375 -0.166,0.094 -0.341,0.201 -0.526,0.312 -0.211,0.118 -0.444,0.246 -0.687,0.387 -0.037,0.013 -0.06,0.02 -0.092,0.042 -5.055,2.712 -8.944,5.517 -11.651,8.419 -0.07,0.061 -0.14,0.136 -0.207,0.21 -3.171,3.453 -5.007,7.449 -5.485,11.978 v 4.718 l 1.489,6.841 0.701,2.038 c 0.298,0.808 0.612,1.633 0.969,2.46 0.416,0.98 0.896,1.911 1.439,2.796 1.005,1.679 2.225,3.211 3.668,4.619 0.894,0.879 1.859,1.694 2.928,2.465 3.551,2.577 7.804,4.398 12.755,5.46 1.445,0.309 2.917,0.546 4.396,0.715 l 13.508,-0.254 c 4.896,-0.751 9.884,-2.198 14.978,-4.33 l 20.969,-14.446 c 1.809,-1.987 3.421,-4.107 4.851,-6.381 0.065,-0.086 0.113,-0.178 0.166,-0.261 2.633,-4.197 4.268,-8.416 4.884,-12.676 0.44,-2.923 0.375,-5.711 -0.177,-8.384 l -0.662,-2.571 c -0.191,-0.555 -0.396,-1.117 -0.624,-1.67 -1.022,-2.588 -2.126,-4.902 -3.322,-6.937"
         id="path473"
         style="fill:#00a0e9" />
      <path
         d="m 972.027,62.234 c -0.502,-1.658 -1.273,-3.462 -2.311,-5.406 -0.744,-1.396 -1.381,-2.526 -1.888,-3.383 -0.2,-0.341 -0.386,-0.634 -0.545,-0.885 l -2.412,-3.556 -2.668,-2.756 c -0.269,-0.227 -0.698,-0.548 -1.303,-0.969 -0.75,-0.506 -1.402,-0.912 -1.958,-1.218 -1.652,-0.885 -3.149,-1.519 -4.461,-1.91 -2.127,-0.643 -4.267,-0.796 -6.452,-0.479 0.582,-0.59 0.738,-1.739 0.456,-3.412 -0.287,-1.673 -0.713,-3.091 -1.253,-4.253 -0.539,-1.161 -1.308,-2.182 -2.311,-3.065 -1.004,-0.895 -2.266,-1.657 -3.778,-2.31 -1.515,-0.655 -3.155,-1.046 -4.922,-1.176 -1,-0.06 -2,-0.042 -3.01,0.071 -1.823,0.228 -3.52,0.808 -5.105,1.732 -1.241,0.696 -2.332,1.541 -3.285,2.523 -0.958,0.972 -1.844,2.456 -2.659,4.442 l -0.313,2.177 m 10e-4,0 c -0.878,-0.91 -1.709,-1.507 -2.473,-1.812 -0.768,-0.316 -1.528,-0.571 -2.27,-0.767 -0.742,-0.194 -1.752,-0.291 -3.024,-0.263 -1.271,0.026 -2.708,0.274 -4.313,0.773 -1.605,0.498 -2.889,1.104 -3.851,1.815 -0.963,0.711 -1.731,1.337 -2.273,1.888 -0.546,0.539 -1.087,1.221 -1.605,2.054 -0.535,0.823 -1.065,1.984 -1.609,3.479 -0.531,1.487 -0.721,3.024 -0.564,4.622 0.153,1.585 0.467,2.947 0.954,4.06 0.485,1.112 1.201,2.008 2.149,2.686 -0.266,0.15 -1.051,0.596 -2.352,1.312 -1.313,0.719 -2.369,1.341 -3.178,1.875 -0.812,0.533 -1.835,1.211 -3.067,2.062 -1.248,0.841 -2.561,1.926 -3.933,3.239 -1.383,1.316 -2.559,2.802 -3.508,4.45 -0.955,1.637 -1.729,3.386 -2.329,5.236 -0.596,1.863 -0.923,3.745 -0.969,5.654 -0.034,1.082 0.012,2.166 0.114,3.269 0.181,1.876 0.482,3.727 0.924,5.56 0.398,1.662 0.901,3.279 1.507,4.85 0.677,1.757 1.533,3.418 2.575,5.007 1.081,1.628 2.306,3.134 3.675,4.525 1.291,1.301 2.709,2.429 4.236,3.367 1.396,0.849 2.821,1.596 4.281,2.241 1.785,0.804 3.623,1.445 5.527,1.924 1.789,0.448 3.611,0.757 5.452,0.915 1.289,0.111 3.21,0.151 5.778,0.132 l 9.236,-0.58 c 1.614,-0.136 3.186,-0.454 4.713,-0.953 l 8.111,-2.677 c 0.817,-0.261 1.97,-0.824 3.443,-1.698 l 9.087,-6.294 c 1.101,-0.77 2.209,-1.515 3.332,-2.253 1.63,-1.081 3.208,-2.236 4.768,-3.452 1.531,-1.22 2.935,-2.555 4.226,-4 1.099,-1.225 2.108,-2.527 3.027,-3.905 0.296,-0.422 0.615,-0.979 0.976,-1.655 0.359,-0.677 0.855,-1.659 1.499,-2.922 0.63,-1.26 1.173,-2.635 1.605,-4.105 0.431,-1.483 0.817,-3.096 1.14,-4.832 0.32,-1.735 0.4,-3.537 0.255,-5.425 -0.147,-1.901 -0.517,-3.756 -1.096,-5.569"
         id="path475"
         style="fill:none;stroke:#00499d;stroke-width:1.99199998;stroke-linecap:round;stroke-miterlimit:10" />
      <path
         d="m 946.906,35.89 c -1.16,-3.107 -3.339,-5.313 -6.543,-6.63 -3.19,-1.322 -6.452,-1.341 -9.797,-0.078 -3.33,1.284 -5.756,3.467 -7.269,6.55 -0.584,1.165 -0.965,2.346 -1.154,3.516 -0.883,-0.686 -1.893,-1.265 -3.02,-1.73 -3.19,-1.321 -6.451,-1.34 -9.798,-0.076 -3.328,1.282 -5.755,3.468 -7.268,6.549 -1.538,3.089 -1.709,6.201 -0.545,9.32 1.191,3.121 3.374,5.339 6.574,6.647 3.199,1.305 6.471,1.319 9.807,0.061 3.323,-1.254 5.751,-3.441 7.26,-6.535 0.582,-1.165 0.963,-2.344 1.153,-3.515 0.884,0.684 1.892,1.264 3.02,1.729 3.2,1.305 6.471,1.322 9.807,0.062 3.323,-1.256 5.749,-3.44 7.26,-6.535 1.534,-3.101 1.705,-6.213 0.513,-9.335"
         id="path477"
         style="fill:#ffffff" />
      <path
         d="m 915.368,53.936 c 1.041,-0.96 2.122,-1.579 3.254,-1.847 1.277,-0.289 2.582,-0.092 3.893,0.575 0.286,0.156 0.58,0.18 0.881,0.098 0.293,-0.105 0.521,-0.296 0.674,-0.594 0.137,-0.266 0.16,-0.561 0.074,-0.872 -0.091,-0.325 -0.285,-0.563 -0.574,-0.693 -1.842,-0.981 -3.665,-1.25 -5.478,-0.79 -1.557,0.366 -3.048,1.221 -4.483,2.58 -0.418,0.407 -0.813,0.847 -1.185,1.318 -0.282,0.392 -0.427,0.594 -0.439,0.598 -0.175,0.265 -0.228,0.555 -0.153,0.872 0.064,0.319 0.234,0.565 0.499,0.743 0.254,0.179 0.548,0.243 0.895,0.183 0.325,-0.088 0.571,-0.259 0.715,-0.502 l -0.007,-0.022 c 0.612,-0.785 1.087,-1.341 1.434,-1.647"
         id="path479"
         style="fill:#282525" />
      <path
         d="m 928.654,41.508 c 1.041,-0.959 2.123,-1.578 3.254,-1.848 1.279,-0.289 2.583,-0.09 3.893,0.577 0.286,0.157 0.58,0.18 0.882,0.098 0.291,-0.106 0.518,-0.297 0.674,-0.595 0.137,-0.265 0.16,-0.561 0.072,-0.872 -0.089,-0.324 -0.283,-0.562 -0.573,-0.693 -1.842,-0.981 -3.664,-1.25 -5.477,-0.789 -1.558,0.366 -3.049,1.22 -4.484,2.579 -0.418,0.407 -0.814,0.848 -1.187,1.32 -0.281,0.389 -0.425,0.593 -0.438,0.596 -0.176,0.264 -0.226,0.555 -0.152,0.872 0.062,0.32 0.233,0.566 0.499,0.744 0.253,0.179 0.547,0.242 0.894,0.183 0.325,-0.09 0.571,-0.259 0.717,-0.502 l -0.008,-0.024 c 0.612,-0.783 1.088,-1.339 1.434,-1.646"
         id="path481"
         style="fill:#282525" />
      <path
         d="m 958.484,54.219 c 1.314,-1.868 2.253,-3.449 2.825,-4.716 -6.844,9.604 -18.571,16.556 -35.185,20.873 -5.191,1.342 -10.571,2.338 -16.133,2.999 l -6.774,0.565 c 18.522,2.589 33.76,-0.7 45.724,-9.87 3.737,-2.878 6.914,-6.15 9.543,-9.851"
         id="path483" />
      <path
         d="m 937.511,195.815 h 0.025 c 0.162,0.15 1.524,4.51 4.062,13.094 2.587,8.759 3.913,13.206 3.975,13.33 l 3.143,0.597 c 7.563,-0.156 13.806,0.623 18.72,2.351 2.379,0.832 4.661,2.076 6.854,3.72 1.013,0.757 1.885,1.967 2.646,3.622 0.749,1.658 1.025,3.003 0.839,4.038 -0.31,1.658 -1.717,3.006 -4.233,4.041 -6.989,2.873 -18.489,2.771 -34.494,-0.292 -8.004,-1.525 -15.309,-3.351 -21.901,-5.463 l -0.674,-1.235 c -0.062,-0.159 -0.112,-0.334 -0.161,-0.52 -0.151,-0.934 -0.264,-1.596 -0.326,-2.009 -0.14,-0.782 0.094,-6.092 0.672,-15.937 0.575,-9.857 0.808,-15.18 0.707,-15.953 v -0.011 l 20.134,-3.384 0.012,0.011 z"
         id="path485"
         style="fill:#00a0e9" />
      <path
         d="m 937.511,195.815 -0.013,-0.011 -20.134,3.384 v 0.011 c 0.101,0.773 -0.132,6.096 -0.707,15.953 -0.578,9.845 -0.812,15.155 -0.672,15.937 0.062,0.414 0.175,1.075 0.326,2.009 0.049,0.186 0.099,0.361 0.161,0.52 l 0.674,1.235 c 6.593,2.112 13.897,3.938 21.901,5.463 16.005,3.063 27.505,3.165 34.494,0.292 2.517,-1.035 3.924,-2.383 4.233,-4.041 0.187,-1.035 -0.09,-2.38 -0.839,-4.038 -0.762,-1.655 -1.634,-2.865 -2.646,-3.622 -2.193,-1.644 -4.476,-2.888 -6.854,-3.72 -4.914,-1.728 -11.156,-2.507 -18.72,-2.351 l -3.143,-0.597 c -0.062,-0.124 -1.388,-4.571 -3.975,-13.33 -2.538,-8.584 -3.9,-12.944 -4.062,-13.094 h -0.024 z"
         id="path487"
         style="fill:none;stroke:#00499d;stroke-width:1.99399996;stroke-linecap:round;stroke-miterlimit:10" />
      <path
         d="m 953.749,98.038 c -19.386,3.422 -29.723,5.286 -31.023,5.57 -6.354,1.438 -10.77,3.389 -13.256,5.857 -1.276,1.262 -2.516,3.003 -3.721,5.217 -0.809,1.481 -2.067,4.11 -3.77,7.898 -4.64,10.203 -9.228,19.303 -13.767,27.303 -4.1,7.233 -6.283,14.568 -6.528,21.989 -0.235,6.917 1.208,13.224 4.329,18.911 3.048,5.581 7.292,9.821 12.733,12.719 5.681,3.019 11.931,4.144 18.747,3.395 34.825,-3.826 58.865,-11.59 72.127,-23.327 10.856,-9.61 14.151,-21.432 9.894,-35.492 -3.34,-11.062 -10.695,-22.157 -22.044,-33.312 -4.495,-4.409 -9.024,-8.184 -13.56,-11.32 -4.269,-2.972 -7.647,-4.768 -10.161,-5.408"
         id="path489"
         style="fill:#00a0e9" />
      <path
         d="m 901.996,115.654 c -1.123,2.25 -2.083,4.598 -2.887,7.067 -3.229,9.887 -3.153,19.788 0.22,29.679 3.413,9.894 9.548,17.579 18.418,23.063 6.685,4.124 13.873,6.378 21.554,6.766 l -0.291,-2.73 0.004,-0.054 -0.051,-0.414 c 1.354,0.438 2.16,0.636 2.416,0.587 0.27,-0.05 0.402,-0.113 0.427,-0.197 0.006,-0.041 10e-4,-0.067 -0.02,-0.102 -0.052,-0.428 -0.062,-0.691 -0.025,-0.792 0.061,-0.169 0.107,-0.349 0.11,-0.55 -0.013,0.002 -0.089,-0.049 -0.238,-0.141 -0.12,-0.073 -0.308,-0.09 -0.564,-0.043 -0.591,0.11 -1.337,0.087 -2.236,-0.052 l -1.535,-14.667 c 0.71,-0.821 1.384,-1.542 2.026,-2.164 -0.012,0.228 -0.112,0.538 -0.303,0.943 -0.243,0.484 -0.428,0.848 -0.553,1.11 l 0.141,0.041 c 0.379,-0.177 0.81,-0.639 1.297,-1.379 0.406,-0.604 0.711,-1.178 0.916,-1.721 -0.254,-0.15 -0.584,-0.143 -0.964,0.019 -0.349,0.197 -0.555,0.303 -0.594,0.308 0.004,-0.12 -0.008,-0.331 -0.019,-0.606 -0.02,-0.247 -0.036,-0.418 -0.053,-0.505 -0.661,0.227 -1.207,0.79 -1.64,1.68 -0.134,0.275 -0.259,0.604 -0.389,0.985 l -0.192,-1.768 -0.207,0.027 c -16.246,-11.548 -19.592,-25.685 -10.041,-42.409 l -24.727,-1.981 z"
         id="path491"
         style="fill:#00a0e9" />
      <path
         d="m 939.159,179.378 c -0.061,0.023 -0.109,0.046 -0.146,0.066 l -0.003,0.054 c 0.063,-0.013 0.153,-0.029 0.242,-0.044 -0.041,-0.017 -0.071,-0.04 -0.093,-0.076"
         id="path493"
         style="fill:#00a0e9" />
      <path
         d="m 948.159,178.875 c -0.395,0.083 -0.722,0.253 -0.953,0.505 -0.951,1.024 -1.872,1.71 -2.759,2.073 l 0.289,1.498 3.423,-4.076 z"
         id="path495"
         style="fill:#00a0e9" />
      <path
         d="m 939.301,182.228 c -7.681,-0.388 -14.869,-2.642 -21.554,-6.766 -8.87,-5.484 -15.005,-13.169 -18.418,-23.063 -3.373,-9.89 -3.448,-19.791 -0.221,-29.678 0.805,-2.469 1.765,-4.817 2.888,-7.067 0.261,-0.524 0.536,-1.053 0.825,-1.57 m 24.408,2.687 c -0.173,0.284 -0.332,0.579 -0.505,0.864 -9.551,16.723 -6.204,30.86 10.041,42.408 m 2.198,18.988 0.051,0.414 -0.004,0.053 0.291,2.73 m 4.537,0.025 c -1.539,0.059 -3.052,0.059 -4.537,-0.025 m -2.329,-22.211 0.192,1.767 m 0.133,1.29 1.535,14.667"
         id="path497"
         style="fill:none;stroke:#00499d;stroke-width:2.08599997;stroke-linecap:round;stroke-linejoin:round;stroke-miterlimit:10" />
      <path
         d="m 943.844,151.683 c -1.426,1.533 -2.701,3.174 -3.81,4.93 -1.042,1.609 -1.526,2.654 -1.467,3.118 l -2.179,11.987 c 0.525,2.49 1.226,4.785 2.101,6.865 1.112,0.79 2.149,1.751 3.146,2.907 0.619,0.693 1.306,1.257 2.09,1.708 3.913,2.235 6.733,5.175 8.455,8.834 0.058,0.029 0.115,0.047 0.17,0.064 2.99,0.906 5.748,1.047 8.255,0.414 2.366,-0.61 3.517,-1.563 3.448,-2.864 -0.198,-3.317 -1.506,-5.235 -3.948,-5.754 -0.7,-0.135 -1.704,-0.189 -3.036,-0.143 -0.342,0.01 -0.659,0.013 -0.954,0.004 0.38,-0.03 0.804,-0.11 1.287,-0.212 1.604,-0.294 3.135,-0.829 4.595,-1.615 4.069,-2.154 5.669,-4.993 4.809,-8.507 -0.262,-1.927 -2.086,-2.69 -5.485,-2.29 -3.71,0.801 -5.925,1.224 -6.642,1.29 4.529,-1.669 7.655,-3.267 9.38,-4.764 2.872,-2.477 3.432,-5.405 1.669,-8.789 -0.778,-1.489 -3.063,-1.955 -6.857,-1.389 -3.492,0.537 -5.663,1.268 -6.498,2.205 1.111,-1.954 1.894,-3.888 2.335,-5.814 0.658,-2.97 0.188,-5.018 -1.424,-6.151 -2.314,-1.615 -5.466,-0.294 -9.44,3.966"
         id="path499"
         style="fill:#00a0e9" />
      <path
         d="m 943.725,183.197 c -0.784,-0.45 -1.471,-1.015 -2.09,-1.708 -0.996,-1.156 -2.033,-2.117 -3.146,-2.907 1.199,2.842 2.716,5.319 4.559,7.405 2.568,2.932 5.619,4.958 9.133,6.044 -1.723,-3.659 -4.543,-6.599 -8.456,-8.834"
         id="path501"
         style="fill:#00a0e9" />
      <path
         d="m 936.048,160.593 c -0.18,0.101 -0.329,0.154 -0.443,0.177 -0.104,0.017 -0.178,0.043 -0.234,0.095 -0.058,0.765 -0.339,1.904 -0.851,3.444 -0.961,2.907 -1.566,4.954 -1.825,6.141 -0.434,2.028 -0.591,3.914 -0.473,5.629 0.852,0.16 1.719,0.333 2.597,0.5 0.354,0.48 0.802,0.967 1.331,1.466 0.04,0.073 0.08,0.145 0.119,0.216 0.222,0.413 0.407,0.775 0.57,1.076 -0.192,0.035 -0.398,0.073 -0.616,0.114 -0.423,0.078 -0.495,0.117 -0.227,0.135 l 0.019,0.326 c 0.094,-0.002 0.541,0.127 1.344,0.377 0.025,0.074 0.062,0.133 0.101,0.193 0.096,0.154 0.203,0.307 0.294,0.436 0.229,0.025 0.486,0.056 0.763,0.11 0.7,0.137 1.204,0.349 1.536,0.646 0.067,0.002 0.144,-0.013 0.233,-0.03 0.17,0.338 0.347,0.665 0.527,0.989 0.254,0.446 0.532,0.884 0.808,1.297 0.419,0.625 0.874,1.217 1.352,1.791 0.685,0.84 1.423,1.608 2.217,2.321 1.49,1.184 2.805,2.056 3.952,2.6 1.135,0.547 2.359,1.01 3.684,1.362 0.324,0.099 0.66,0.198 1.01,0.292 l -7.843,-42.562 c -0.245,0.178 -0.478,0.355 -0.722,0.544 -0.438,0.359 -0.876,0.786 -1.303,1.273 -0.447,0.52 -1.143,1.351 -2.082,2.52 -0.937,1.166 -1.709,2.301 -2.327,3.41 -0.619,1.095 -0.995,1.786 -1.144,2.067 l 0.003,0.013 -0.015,0.134 c -0.003,0.134 -0.066,0.223 -0.174,0.284 -0.01,0.015 -0.022,0.017 -0.035,0.033 l -0.035,0.021 c -0.054,0.063 -0.099,0.176 -0.11,0.337 -0.013,0.215 -0.091,0.362 -0.247,0.444 -0.013,0.001 -0.027,0.003 -0.038,0.018 -0.138,0.039 -0.349,0.119 -0.634,0.223 -0.038,0.008 -0.064,0.013 -0.091,0.017 -0.27,-0.161 -0.578,-0.264 -0.941,-0.288 l -0.05,-0.191 z m 2.688,9.699 -0.395,0.086 c -0.118,-0.284 -0.085,-0.753 0.085,-1.409 0.082,-0.346 0.207,-0.755 0.354,-1.243 l 0.026,0.072 c 0.009,0.413 0.004,0.89 -0.018,1.409 -0.024,0.576 -0.038,0.936 -0.052,1.085 m 1.291,9.809 c -0.104,-0.14 -0.222,-0.264 -0.347,-0.374 -0.164,-0.67 -0.499,-1.484 -1.003,-2.414 0.329,0.06 0.675,0.13 1.03,0.197 1.677,0.312 2.473,1.041 2.406,2.194 -0.037,0.443 -0.212,0.859 -0.529,1.224 -0.328,0.379 -0.709,0.608 -1.147,0.689 -0.013,0.002 -0.024,0.004 -0.038,0.008 0.204,-0.052 0.289,-0.16 0.249,-0.313 -0.029,-0.087 -0.07,-0.159 -0.15,-0.237 -0.093,-0.077 -0.244,-0.247 -0.463,-0.498 0.011,-0.015 0.009,-0.028 0.006,-0.041 10e-4,-0.065 10e-4,-0.212 -0.014,-0.435"
         id="path503"
         style="fill:#00a0e9" />
      <path
         d="m 955.593,183.716 c 0.438,-0.067 0.912,-0.156 1.422,-0.263 1.672,-0.347 3.268,-0.906 4.812,-1.655 0.013,-0.002 0.026,-0.004 0.038,-0.008 0.013,-0.002 0.125,-0.048 0.345,-0.141 0.076,-0.028 0.135,-0.065 0.193,-0.102 0.016,0.009 0.04,0.005 0.057,0.017 0.014,-0.004 0.022,-0.019 0.033,-0.034 l 0.017,0.01 c 3.669,-2.32 5.082,-5.072 4.27,-8.261 -0.202,-1.381 -1.277,-2.111 -3.226,-2.178 l -0.014,-0.011 c -0.721,-0.026 -1.561,0.024 -2.506,0.145 -4.037,0.89 -6.438,1.386 -7.201,1.484 3.737,-1.363 6.614,-2.661 8.627,-3.895 -0.017,-0.009 -0.033,-0.033 -0.049,-0.044 0.568,-0.368 1.069,-0.742 1.492,-1.109 0.387,-0.35 0.733,-0.692 1.044,-1.028 1.114,-1.146 1.722,-2.32 1.824,-3.543 0.196,-1.387 -0.138,-2.839 -1.01,-4.335 -0.453,-0.805 -1.411,-1.264 -2.889,-1.364 -0.869,-0.184 -1.854,-0.147 -2.988,0.115 -0.214,0.05 -0.428,0.117 -0.645,0.171 -0.269,0.05 -0.55,0.102 -0.834,0.139 -3.771,0.762 -6.103,1.628 -7.008,2.617 1.246,-2.018 2.101,-3.992 2.562,-5.945 0.122,-0.42 0.196,-0.806 0.252,-1.159 0.002,-0.067 0.024,-0.153 0.05,-0.235 0.252,-1.147 0.157,-2.163 -0.298,-3.048 -0.312,-0.696 -0.798,-1.244 -1.47,-1.652 -0.013,0.004 -0.013,0.004 -0.016,-0.009 -0.102,-0.048 -0.205,-0.108 -0.284,-0.173 l -0.002,-0.012 c -1.205,-0.72 -2.655,-0.598 -4.354,0.39 -0.596,0.295 -1.202,0.673 -1.846,1.135 l 7.843,42.563 c 0.095,0.022 0.182,0.059 0.277,0.08 0.073,0.027 0.153,0.039 0.224,0.053 l 0.409,-0.008 0.004,0.012 c 0.116,-0.01 0.248,-0.008 0.421,-0.012 0.186,0.004 0.35,0.029 0.481,0.098 1.421,0.017 3.036,-0.138 4.82,-0.452 0.284,-0.039 0.58,-0.093 0.882,-0.177 0.778,-0.247 1.405,-0.575 1.887,-0.983 0.011,-0.014 0.024,-0.016 0.034,-0.031 0.266,-0.355 0.393,-0.749 0.382,-1.171 l -0.003,-0.013 0.01,-0.015 c -0.07,-0.955 -0.091,-1.509 -0.071,-1.685 0.005,-0.041 -0.01,-0.129 -0.041,-0.298 -0.121,-0.665 -0.429,-1.39 -0.931,-2.172 -0.002,-0.013 -0.002,-0.013 -0.005,-0.026 -0.002,-0.013 -0.002,-0.013 -0.006,-0.026 l -10e-4,-0.013 -0.003,-0.013 c -0.028,-0.01 -0.047,-0.032 -0.062,-0.054 -0.002,-0.015 -0.002,-0.015 -0.006,-0.026 l -0.189,-0.243 c -0.128,-0.11 -0.253,-0.218 -0.367,-0.331 l -10e-4,-0.013 c -0.016,-0.01 -0.046,-0.032 -0.062,-0.041 -0.307,-0.223 -0.529,-0.354 -0.66,-0.409 -0.265,-0.151 -0.686,-0.271 -1.25,-0.392 -0.852,-0.162 -1.779,-0.229 -2.796,-0.214 -1.02,0.015 -1.548,0.02 -1.618,-0.007"
         id="path505"
         style="fill:#00a0e9" />
      <path
         d="m 936.733,158.267 c 0.005,0.026 0.022,0.049 0.039,0.072 l -0.212,0.068 c -0.112,0.111 -0.197,0.3 -0.241,0.559 -0.037,0.232 -0.09,0.375 -0.176,0.418 -0.121,0.061 -0.195,0.089 -0.224,0.08 -0.017,-0.023 -0.033,-0.031 -0.058,-0.03 l 0.11,0.392 c -0.086,0.03 -0.125,0.037 -0.138,0.039 l 0.214,0.729 0.048,0.191 c 0.363,0.024 0.672,0.127 0.941,0.288 0.026,-0.004 0.053,-0.009 0.091,-0.016 0.285,-0.105 0.496,-0.184 0.634,-0.223 0.011,-0.016 0.025,-0.018 0.038,-0.019 0.156,-0.082 0.234,-0.229 0.248,-0.444 0.011,-0.16 0.056,-0.273 0.109,-0.336 l 0.034,-0.021 c 0.014,-0.017 0.026,-0.018 0.036,-0.034 0.107,-0.059 0.171,-0.15 0.173,-0.284 l 0.016,-0.134 -0.003,-0.013 c 0.148,-0.28 0.524,-0.971 1.144,-2.066 0.618,-1.11 1.391,-2.245 2.327,-3.41 0.939,-1.169 1.635,-2 2.082,-2.52 0.427,-0.487 0.864,-0.914 1.303,-1.273 0.903,-0.71 1.752,-1.278 2.567,-1.68 0.167,-0.095 0.336,-0.194 0.505,-0.278 l -0.383,-2.078 c -0.771,0.341 -1.556,0.832 -2.384,1.447 -0.527,0.376 -1.055,0.82 -1.59,1.303 h -0.078 l -0.468,0.351 c -0.021,0.03 -0.041,0.061 -0.051,0.076 l -0.015,-0.011 -0.025,0.019 c -0.056,0.048 -0.089,0.082 -0.108,0.124 l -0.012,0.015 c -2.964,3.332 -4.989,6.01 -6.062,8.022 -0.04,0.075 -0.081,0.136 -0.133,0.21 -0.009,0.029 -0.021,0.045 -0.03,0.06 -0.072,0.119 -0.125,0.249 -0.193,0.392 -0.024,0.006 -0.048,0.009 -0.075,0.015 m 7.23,-7.521 c -0.002,-0.013 -0.007,-0.039 0.004,-0.054 -0.011,0.015 -0.006,0.04 -0.004,0.054"
         id="path507"
         style="fill:#00499d" />
      <path
         d="m 947.959,146.243 0.383,2.079 c 1.484,-0.725 2.763,-0.762 3.849,-0.113 l 0.003,0.013 c 0.078,0.064 0.183,0.125 0.284,0.173 0.002,0.013 0.002,0.013 0.016,0.009 0.672,0.408 1.156,0.955 1.47,1.652 0.455,0.885 0.55,1.901 0.298,3.048 -0.025,0.082 -0.048,0.167 -0.05,0.234 -0.055,0.353 -0.13,0.739 -0.252,1.159 -0.461,1.954 -1.315,3.928 -2.562,5.946 0.906,-0.989 3.238,-1.855 7.008,-2.617 0.284,-0.037 0.566,-0.089 0.836,-0.14 0.216,-0.053 0.43,-0.12 0.644,-0.171 1.134,-0.261 2.119,-0.298 2.988,-0.115 1.478,0.101 2.436,0.56 2.889,1.364 0.872,1.497 1.206,2.948 1.011,4.336 -0.104,1.223 -0.711,2.396 -1.825,3.542 -0.311,0.337 -0.657,0.679 -1.044,1.028 -0.423,0.368 -0.924,0.741 -1.492,1.11 0.016,0.01 0.032,0.035 0.049,0.044 -2.014,1.234 -4.89,2.531 -8.627,3.895 0.764,-0.099 3.164,-0.595 7.201,-1.485 0.945,-0.12 1.785,-0.171 2.506,-0.144 l 0.014,0.01 c 1.948,0.067 3.023,0.796 3.226,2.179 0.812,3.189 -0.601,5.941 -4.27,8.26 l -0.017,-0.009 c -0.012,0.015 -0.02,0.029 -0.033,0.033 -0.017,-0.011 -0.041,-0.007 -0.057,-0.016 -0.059,0.037 -0.117,0.074 -0.193,0.102 -0.221,0.093 -0.332,0.139 -0.346,0.141 -0.011,0.004 -0.024,0.006 -0.037,0.008 -1.544,0.749 -3.14,1.308 -4.812,1.655 -0.51,0.106 -0.985,0.195 -1.422,0.263 0.07,0.027 0.598,0.022 1.618,0.006 1.018,-0.014 1.944,0.053 2.796,0.214 0.565,0.121 0.985,0.242 1.25,0.392 0.131,0.056 0.354,0.186 0.66,0.41 0.016,0.009 0.046,0.031 0.062,0.041 l 10e-4,0.012 c 0.114,0.114 0.239,0.222 0.367,0.331 l 0.189,0.244 c 0.004,0.01 0.004,0.01 0.006,0.026 0.016,0.022 0.034,0.044 0.062,0.054 l 0.002,0.012 0.002,0.014 c 0.004,0.013 0.004,0.013 0.005,0.025 0.004,0.014 0.004,0.014 0.006,0.027 0.502,0.782 0.81,1.507 0.931,2.172 0.031,0.169 0.046,0.256 0.041,0.297 -0.02,0.177 0.001,0.73 0.071,1.686 l -0.01,0.015 0.004,0.013 c 0.01,0.422 -0.117,0.816 -0.384,1.17 -0.009,0.015 -0.022,0.017 -0.032,0.032 -0.482,0.407 -1.109,0.736 -1.888,0.983 -0.302,0.084 -0.598,0.138 -0.882,0.177 -1.45,0.253 -2.774,0.405 -3.989,0.444 l 0.38,2.05 c 1.769,-0.049 3.433,-0.288 4.979,-0.746 0.994,-0.289 1.826,-0.666 2.508,-1.15 0.249,-0.431 0.564,-0.886 0.914,-1.362 0.084,-0.334 0.187,-0.71 0.307,-1.143 0.021,-0.097 0.056,-0.195 0.079,-0.28 0.04,-0.576 0.002,-1.22 -0.136,-1.898 -0.438,-2.238 -1.188,-3.704 -2.248,-4.423 l -0.002,-0.013 c -0.044,-0.018 -0.266,-0.149 -0.682,-0.392 -0.089,-0.05 -0.178,-0.099 -0.251,-0.138 0.014,-0.002 0.025,-0.005 0.038,-0.007 0.049,-0.022 0.216,-0.054 0.487,-0.091 0.129,-0.023 0.232,-0.043 0.309,-0.058 0.012,-0.002 0.038,-0.005 0.062,-0.022 0.062,-0.024 0.151,-0.041 0.264,-0.076 0.036,-0.019 0.086,-0.041 0.124,-0.048 0.062,-0.027 0.136,-0.053 0.239,-0.071 4.13,-2.684 5.791,-5.906 4.951,-9.675 -0.313,-2.207 -1.588,-3.431 -3.793,-3.674 0.475,-0.381 0.933,-0.769 1.35,-1.177 l 0.009,-0.016 c 2.808,-2.823 3.349,-5.852 1.643,-9.076 -1.718,-3.277 -4.566,-4.421 -8.539,-3.464 -1.611,0.388 -3.024,0.782 -4.211,1.172 0.452,-0.998 0.817,-2.111 1.106,-3.345 0.654,-2.838 -0.295,-5.127 -2.84,-6.846 -1.592,-1.153 -3.456,-1.259 -5.571,-0.301"
         id="path509"
         style="fill:#00499d" />
      <path
         d="m 936.519,181.344 c -0.229,0.056 -0.251,0.074 -0.066,0.08 l 0.181,0.76 c 0.121,0.004 0.596,0.13 1.422,0.375 0.195,0.056 0.376,0.103 0.553,0.123 l 0.002,0.013 c 0.101,0.18 0.207,0.335 0.297,0.463 0.009,0.039 0.014,0.064 0.004,0.093 0.237,0.42 0.5,0.834 0.792,1.271 0.129,0.2 0.262,0.416 0.409,0.639 0.705,1.024 1.498,2.085 2.396,3.152 2.237,2.715 5.312,4.588 9.2,5.621 0.518,0.143 1.045,0.272 1.555,0.378 0.484,0.108 0.952,0.195 1.428,0.267 0.014,-0.003 0.024,-0.005 0.052,-0.011 0.302,-0.015 0.557,0.004 0.75,0.048 0.01,-0.014 0.02,-0.042 0.031,-0.059 0.45,0.011 0.903,0.02 1.338,0.006 l -0.379,-2.05 c -0.276,0.011 -0.555,0.009 -0.832,0.007 -0.132,-0.069 -0.296,-0.093 -0.481,-0.098 -0.172,0.005 -0.306,0.003 -0.422,0.013 l -0.003,-0.013 -0.409,0.009 c -0.07,-0.015 -0.15,-0.026 -0.224,-0.054 -0.457,-0.113 -0.88,-0.249 -1.287,-0.372 -1.324,-0.352 -2.549,-0.815 -3.684,-1.362 -1.147,-0.544 -2.462,-1.416 -3.952,-2.6 -0.794,-0.713 -1.532,-1.481 -2.217,-2.321 -0.478,-0.574 -0.932,-1.167 -1.352,-1.791 -0.275,-0.413 -0.554,-0.851 -0.808,-1.297 -0.18,-0.324 -0.356,-0.651 -0.527,-0.989 -0.09,0.017 -0.166,0.032 -0.233,0.03 -0.332,-0.298 -0.836,-0.51 -1.536,-0.645 -0.276,-0.056 -0.534,-0.087 -0.763,-0.112 -0.378,-0.037 -0.696,-0.031 -0.951,0.017 -0.269,0.05 -0.406,0.1 -0.422,0.156 l 0.064,0.069 0.074,0.184 z"
         id="path511"
         style="fill:#00499d" />
      <path
         d="m 1009.819,169.983 c 0.048,0.008 0.095,0.017 0.146,0.024 -0.269,0.459 -0.518,0.881 -0.762,1.279 -0.044,0.106 -0.086,0.199 -0.138,0.292 -0.378,0.805 -0.775,1.577 -1.167,2.316 -0.373,0.704 -0.717,1.312 -1.045,1.834 -0.614,1.003 -1.139,1.719 -1.587,2.131 -0.175,0.285 -0.354,0.58 -0.544,0.889 -0.095,0.196 -0.182,0.396 -0.276,0.594 -0.018,0.022 -0.024,0.045 -0.037,0.056 -0.02,0.046 -0.041,0.095 -0.061,0.141 -0.134,0.266 -0.282,0.541 -0.43,0.807 -0.236,0.424 -0.497,0.847 -0.754,1.241 -0.393,0.601 -0.817,1.169 -1.266,1.721 -0.644,0.808 -1.334,1.547 -2.082,2.234 -1.404,1.145 -2.646,1.986 -3.73,2.518 -1.072,0.533 -2.234,0.988 -3.489,1.338 -0.388,0.123 -0.788,0.255 -1.223,0.368 -0.067,0.026 -0.145,0.039 -0.211,0.052 l -0.388,-0.004 -0.002,0.014 c -0.113,-0.008 -0.24,-0.004 -0.402,-0.008 -0.177,0.008 -0.332,0.032 -0.457,0.099 -1.352,0.031 -2.892,-0.095 -4.593,-0.374 -0.271,-0.036 -0.552,-0.083 -0.841,-0.158 -0.741,-0.229 -1.343,-0.534 -1.806,-0.915 -0.011,-0.014 -0.022,-0.016 -0.032,-0.031 -0.258,-0.333 -0.382,-0.708 -0.377,-1.109 l 0.002,-0.012 -0.008,-0.014 c 0.054,-0.909 0.069,-1.435 0.047,-1.604 -0.005,-0.039 0.009,-0.124 0.038,-0.284 0.107,-0.635 0.391,-1.329 0.86,-2.08 0.002,-0.012 0.002,-0.012 0.004,-0.023 0.003,-0.014 0.003,-0.014 0.005,-0.024 v -0.014 l 0.003,-0.011 c 0.026,-0.007 0.044,-0.03 0.06,-0.052 0.002,-0.013 0.002,-0.013 0.004,-0.024 l 0.179,-0.234 c 0.118,-0.106 0.238,-0.21 0.345,-0.32 l 0.002,-0.013 c 0.015,-0.009 0.042,-0.028 0.058,-0.037 0.287,-0.217 0.498,-0.344 0.622,-0.399 0.252,-0.145 0.649,-0.265 1.186,-0.387 0.809,-0.162 1.69,-0.238 2.66,-0.234 0.967,0.001 1.47,0.001 1.538,-0.026 -0.418,-0.06 -0.87,-0.136 -1.356,-0.232 -1.595,-0.315 -3.118,-0.826 -4.596,-1.521 -0.014,-0.002 -0.026,-0.004 -0.037,-0.006 -0.013,-0.001 -0.118,-0.046 -0.33,-0.133 -0.07,-0.024 -0.129,-0.059 -0.186,-0.093 -0.014,0.01 -0.038,0.006 -0.053,0.013 -0.012,-0.002 -0.021,-0.015 -0.032,-0.028 l -0.015,0.01 c -3.518,-2.166 -4.894,-4.769 -4.156,-7.815 0.176,-1.315 1.19,-2.022 3.043,-2.104 l 0.014,-0.013 c 0.686,-0.032 1.486,0.006 2.386,0.11 3.853,0.799 6.141,1.245 6.87,1.33 -3.572,-1.254 -6.324,-2.458 -8.253,-3.607 0.014,-0.011 0.031,-0.033 0.046,-0.043 -0.546,-0.347 -1.027,-0.693 -1.434,-1.038 -0.371,-0.329 -0.705,-0.651 -1.004,-0.967 -1.073,-1.077 -1.662,-2.187 -1.776,-3.35 -0.201,-1.32 0.099,-2.702 0.912,-4.135 0.423,-0.771 1.329,-1.219 2.733,-1.329 0.825,-0.188 1.765,-0.164 2.844,0.072 0.206,0.049 0.408,0.108 0.616,0.156 0.256,0.043 0.524,0.09 0.796,0.125 3.595,0.68 5.824,1.479 6.696,2.411 -1.208,-1.907 -2.045,-3.775 -2.507,-5.629 -0.12,-0.398 -0.194,-0.764 -0.25,-1.1 -0.002,-0.064 -0.027,-0.144 -0.051,-0.224 -0.254,-1.089 -0.176,-2.055 0.248,-2.903 0.291,-0.667 0.747,-1.192 1.379,-1.587 0.013,0.002 0.013,0.002 0.015,-0.009 0.097,-0.047 0.194,-0.104 0.269,-0.167 l 0.002,-0.013 c 1.14,-0.697 2.519,-0.599 4.148,0.323 0.779,0.374 1.594,0.903 2.462,1.568 0.421,0.338 0.842,0.738 1.253,1.197 0.432,0.491 1.103,1.272 2.008,2.372 0.821,1.009 1.511,1.984 2.091,2.926 0.057,0.097 0.117,0.198 0.164,0.292 0.602,1.036 0.966,1.689 1.11,1.954 l -10e-4,0.013 0.014,0.128 c 0,0.126 0.066,0.214 0.17,0.267 0.01,0.015 0.021,0.017 0.03,0.032 l 0.036,0.019 c 0.053,0.059 0.097,0.167 0.108,0.321 0.015,0.203 0.093,0.342 0.242,0.418 0.013,0.002 0.024,0.004 0.034,0.019 0.133,0.035 0.334,0.108 0.606,0.204 0.035,0.008 0.062,0.011 0.086,0.015 0.042,-0.018 0.082,-0.035 0.125,-0.067 0.223,-0.124 0.474,-0.195 0.768,-0.219 l 0.043,-0.182 c 0.174,0.093 0.315,0.141 0.426,0.161 0.099,0.017 0.17,0.042 0.224,0.09 0.064,0.728 0.344,1.808 0.848,3.266 0.017,0.053 0.033,0.107 0.051,0.147 0.191,-0.155 0.374,-0.263 0.571,-0.317 0.068,-0.026 0.119,-0.041 0.166,-0.022 0.107,0.044 0.145,0.189 0.1,0.445 -0.023,0.134 -0.182,0.473 -0.476,1.013 0.022,0.017 0.043,0.045 0.063,0.074 0.253,0.283 0.365,0.504 0.338,0.662 0,0.013 -0.01,0.038 -0.023,0.06 0.079,-0.024 0.163,-0.062 0.245,-0.097 0.944,-0.379 0.821,0.933 -0.387,3.923 -0.171,0.425 -0.345,0.849 -0.527,1.257"
         id="path513"
         style="fill:#00a0e9" />
      <path
         d="m 1008.266,158.59 c 0.083,0.028 0.12,0.033 0.132,0.037 l -0.195,0.695 -0.043,0.182 c -0.294,0.024 -0.545,0.095 -0.768,0.219 -0.043,0.032 -0.083,0.051 -0.125,0.067 -0.024,-0.004 -0.05,-0.007 -0.086,-0.014 -0.272,-0.097 -0.474,-0.17 -0.606,-0.205 -0.01,-0.015 -0.021,-0.017 -0.034,-0.018 -0.149,-0.077 -0.228,-0.216 -0.243,-0.418 -0.011,-0.155 -0.055,-0.263 -0.107,-0.322 l -0.036,-0.02 c -0.01,-0.015 -0.021,-0.016 -0.03,-0.032 -0.104,-0.053 -0.166,-0.141 -0.171,-0.267 l -0.013,-0.128 10e-4,-0.013 c -0.145,-0.264 -0.509,-0.918 -1.11,-1.953 -0.047,-0.095 -0.107,-0.194 -0.164,-0.292 -0.58,-0.943 -1.27,-1.918 -2.091,-2.927 -0.905,-1.1 -1.576,-1.881 -2.008,-2.37 -0.411,-0.461 -0.832,-0.861 -1.253,-1.198 -0.868,-0.665 -1.682,-1.195 -2.462,-1.569 -0.426,-0.236 -0.821,-0.419 -1.215,-0.548 l 0.338,-1.969 c 0.941,0.314 1.956,0.854 3.018,1.626 0.507,0.352 1.014,0.767 1.529,1.22 h 0.074 l 0.447,0.329 c 0.021,0.029 0.04,0.057 0.049,0.072 l 0.015,-0.009 0.023,0.015 c 0.054,0.046 0.087,0.079 0.104,0.119 l 0.011,0.015 c 2.859,3.134 4.816,5.659 5.859,7.564 0.039,0.068 0.079,0.126 0.131,0.197 0.01,0.027 0.018,0.043 0.027,0.055 0.068,0.114 0.124,0.237 0.188,0.372 0.023,0.004 0.05,0.011 0.073,0.013 0,0.024 -0.02,0.046 -0.037,0.069 l 0.203,0.061 c 0.108,0.106 0.191,0.284 0.236,0.53 0.037,0.223 0.091,0.357 0.172,0.396 0.115,0.059 0.187,0.082 0.213,0.076 0.015,-0.025 0.029,-0.033 0.055,-0.03 l -0.101,0.373 z m -7.709,-8.599 c 0.011,0.013 0,0.039 0,0.05 10e-4,-0.011 0.01,-0.037 0,-0.05"
         id="path515"
         style="fill:#00499d" />
      <path
         d="m 995.976,145.528 -0.338,1.969 c -1.107,-0.366 -2.089,-0.297 -2.934,0.225 l -0.002,0.013 c -0.074,0.063 -0.172,0.12 -0.269,0.167 -0.002,0.011 -0.002,0.011 -0.015,0.009 -0.632,0.395 -1.089,0.92 -1.379,1.587 -0.424,0.848 -0.503,1.814 -0.248,2.903 0.025,0.08 0.05,0.16 0.051,0.224 0.056,0.336 0.13,0.702 0.25,1.1 0.462,1.854 1.299,3.722 2.507,5.629 -0.872,-0.93 -3.103,-1.731 -6.696,-2.411 -0.272,-0.035 -0.54,-0.082 -0.796,-0.124 -0.208,-0.049 -0.41,-0.108 -0.616,-0.157 -1.079,-0.236 -2.019,-0.259 -2.844,-0.072 -1.404,0.11 -2.311,0.558 -2.734,1.329 -0.812,1.433 -1.112,2.816 -0.911,4.135 0.114,1.163 0.702,2.273 1.776,3.35 0.299,0.316 0.633,0.638 1.004,0.967 0.406,0.345 0.888,0.691 1.434,1.038 -0.015,0.01 -0.032,0.033 -0.046,0.043 1.931,1.149 4.681,2.353 8.252,3.607 -0.729,-0.085 -3.017,-0.531 -6.869,-1.33 -0.899,-0.104 -1.7,-0.141 -2.386,-0.11 l -0.014,0.013 c -1.853,0.082 -2.867,0.789 -3.043,2.104 -0.738,3.046 0.639,5.649 4.156,7.815 l 0.015,-0.01 c 0.011,0.013 0.021,0.027 0.032,0.029 0.015,-0.008 0.039,-0.004 0.053,-0.014 0.058,0.034 0.115,0.069 0.186,0.093 0.212,0.087 0.317,0.132 0.329,0.133 0.012,0.002 0.024,0.004 0.038,0.006 1.478,0.696 3.001,1.208 4.596,1.521 0.449,0.091 0.877,0.161 1.271,0.217 l -0.004,0.026 c -0.191,0.017 -0.67,0.022 -1.448,0.015 -0.97,-0.004 -1.852,0.072 -2.659,0.234 -0.537,0.123 -0.935,0.244 -1.187,0.387 -0.124,0.055 -0.335,0.182 -0.622,0.399 -0.016,0.009 -0.043,0.028 -0.058,0.037 l -0.002,0.013 c -0.106,0.11 -0.227,0.214 -0.345,0.32 l -0.179,0.234 c -0.002,0.011 -0.002,0.011 -0.004,0.025 -0.016,0.021 -0.033,0.044 -0.06,0.051 l -0.002,0.011 -10e-4,0.014 c -0.002,0.01 -0.002,0.01 -0.005,0.024 -0.003,0.013 -0.003,0.013 -0.005,0.024 -0.469,0.751 -0.752,1.444 -0.859,2.079 -0.029,0.16 -0.043,0.245 -0.038,0.284 0.021,0.168 0.007,0.694 -0.047,1.603 l 0.008,0.014 -0.002,0.012 c -0.005,0.401 0.119,0.777 0.377,1.109 0.01,0.015 0.021,0.017 0.032,0.031 0.463,0.381 1.064,0.686 1.806,0.915 0.289,0.075 0.57,0.124 0.841,0.158 1.076,0.184 2.089,0.296 3.023,0.344 l -0.335,1.955 c -1.398,-0.064 -2.725,-0.266 -3.972,-0.621 -0.948,-0.262 -1.743,-0.613 -2.396,-1.065 -0.245,-0.406 -0.549,-0.836 -0.887,-1.288 -0.084,-0.314 -0.188,-0.673 -0.305,-1.083 -0.023,-0.091 -0.057,-0.186 -0.081,-0.266 -0.043,-0.546 -0.015,-1.16 0.109,-1.804 0.393,-2.136 1.088,-3.541 2.089,-4.236 l 0.002,-0.013 c 0.041,-0.018 0.251,-0.145 0.644,-0.379 0.084,-0.048 0.168,-0.099 0.236,-0.134 -0.012,-0.003 -0.023,-0.005 -0.035,-0.007 -0.048,-0.02 -0.205,-0.048 -0.465,-0.08 -0.123,-0.022 -0.221,-0.039 -0.294,-0.052 -0.011,-0.002 -0.037,-0.005 -0.059,-0.022 -0.062,-0.022 -0.146,-0.037 -0.252,-0.069 -0.036,-0.017 -0.083,-0.037 -0.118,-0.045 -0.059,-0.022 -0.131,-0.046 -0.229,-0.065 -3.961,-2.504 -5.577,-5.551 -4.819,-9.147 0.272,-2.104 1.471,-3.283 3.564,-3.538 -0.454,-0.357 -0.895,-0.721 -1.294,-1.104 l -0.011,-0.015 c -2.702,-2.655 -3.251,-5.533 -1.665,-8.617 1.598,-3.137 4.295,-4.259 8.085,-3.392 1.538,0.351 2.886,0.708 4.02,1.067 -0.441,-0.944 -0.802,-2.002 -1.091,-3.168 -0.656,-2.695 0.223,-4.883 2.623,-6.548 1.318,-0.982 2.837,-1.186 4.566,-0.625"
         id="path517"
         style="fill:#00499d" />
      <path
         d="m 1006.854,175.728 c 0.141,-0.164 0.298,-0.338 0.439,-0.517 -0.277,1.476 -0.504,2.645 -0.66,3.487 -0.12,0.623 -0.197,1.074 -0.245,1.354 -0.018,0.086 -0.027,0.16 -0.043,0.244 -0.119,0.032 -0.223,0.05 -0.326,0.071 l 0,0.012 c -0.093,0.171 -0.193,0.32 -0.278,0.443 -0.01,0.037 -0.012,0.061 0,0.089 -0.221,0.401 -0.466,0.799 -0.739,1.217 -0.123,0.195 -0.245,0.4 -0.382,0.615 -0.597,0.905 -1.283,1.818 -2.035,2.76 -0.066,0.089 -0.132,0.178 -0.21,0.266 -2.098,2.609 -5.001,4.425 -8.688,5.451 -0.492,0.143 -0.992,0.271 -1.476,0.377 -0.459,0.11 -0.902,0.196 -1.354,0.27 -0.013,-0.002 -0.026,-0.004 -0.05,-0.008 -0.288,-0.011 -0.53,0.008 -0.714,0.052 -0.011,-0.013 -0.018,-0.039 -0.028,-0.054 -0.697,0.03 -1.377,0.026 -2.049,-0.013 l 0.335,-1.955 c 0.55,0.032 1.074,0.047 1.569,0.03 0.125,-0.067 0.28,-0.091 0.457,-0.099 0.162,0.004 0.289,0 0.402,0.008 l 0.002,-0.014 0.388,0.004 c 0.066,-0.012 0.144,-0.026 0.21,-0.051 0.436,-0.114 0.835,-0.246 1.224,-0.369 1.255,-0.349 2.417,-0.804 3.488,-1.337 1.086,-0.532 2.327,-1.374 3.731,-2.517 0.748,-0.689 1.439,-1.427 2.082,-2.235 0.448,-0.552 0.873,-1.121 1.266,-1.722 0.257,-0.393 0.518,-0.817 0.753,-1.241 0.148,-0.265 0.296,-0.541 0.431,-0.806 0.02,-0.046 0.041,-0.095 0.061,-0.142 0.014,-0.011 0.02,-0.033 0.037,-0.056 0.094,-0.198 0.181,-0.397 0.276,-0.594 0.19,-0.309 0.369,-0.604 0.544,-0.888 0.447,-0.413 0.972,-1.129 1.586,-2.132"
         id="path519"
         style="fill:#00499d" />
      <path
         d="m 989.781,181.552 0.004,-0.026 c 0.038,0.007 0.062,0.011 0.086,0.015 -0.014,0.011 -0.039,0.007 -0.09,0.011"
         id="path521"
         style="fill:#00499d" />
    </g>
  </g>
</svg>
