<?xml version="1.0" encoding="UTF-8" standalone="no"?>
<!-- Created with Inkscape (http://www.inkscape.org/) -->

<svg
   xmlns:dc="http://purl.org/dc/elements/1.1/"
   xmlns:cc="http://creativecommons.org/ns#"
   xmlns:rdf="http://www.w3.org/1999/02/22-rdf-syntax-ns#"
   xmlns:svg="http://www.w3.org/2000/svg"
   xmlns="http://www.w3.org/2000/svg"
   xmlns:sodipodi="http://sodipodi.sourceforge.net/DTD/sodipodi-0.dtd"
   xmlns:inkscape="http://www.inkscape.org/namespaces/inkscape"
   width="161.39442"
   height="226.75462"
   id="svg5696"
   version="1.1"
   inkscape:version="0.48.4 r9939"
   sodipodi:docname="big_bird7.svg">
  <defs
     id="defs5698" />
  <sodipodi:namedview
     id="base"
     pagecolor="#ffffff"
     bordercolor="#666666"
     borderopacity="1.0"
     inkscape:pageopacity="0.0"
     inkscape:pageshadow="2"
     inkscape:zoom="0.77472527"
     inkscape:cx="1.1873263"
     inkscape:cy="43.665759"
     inkscape:current-layer="layer1"
     inkscape:document-units="px"
     showgrid="false"
     inkscape:window-width="942"
     inkscape:window-height="591"
     inkscape:window-x="413"
     inkscape:window-y="97"
     inkscape:window-maximized="0"
     fit-margin-top="0"
     fit-margin-left="0"
     fit-margin-right="0"
     fit-margin-bottom="0" />
  <metadata
     id="metadata5701">
    <rdf:RDF>
      <cc:Work
         rdf:about="">
        <dc:format>image/svg+xml</dc:format>
        <dc:type
           rdf:resource="http://purl.org/dc/dcmitype/StillImage" />
        <dc:title></dc:title>
      </cc:Work>
    </rdf:RDF>
  </metadata>
  <g
     id="layer1"
     inkscape:label="Layer 1"
     inkscape:groupmode="layer"
     transform="translate(-230.44245,97.98252)">
    <g
       transform="translate(-626.77591,-369.24052)"
       id="g475">
      <path
         inkscape:connector-curvature="0"
         style="fill:#eddc00"
         d="m 925.199,433.127 c -0.659,-1.609 -0.635,-3.615 0.06,-6.015 0.729,-2.526 2.06,-4.812 3.98,-6.839 2.212,-2.317 4.877,-3.909 7.995,-4.77 3.645,-1.005 7.674,-0.938 12.086,0.184 0.896,-1.475 2.932,-3.191 6.107,-5.168 3.385,-2.104 6.938,-3.754 10.664,-4.954 4.323,-1.401 8.08,-1.881 11.271,-1.438 3.776,0.517 6.451,2.298 8.024,5.345 2.2,4.262 0.738,8.626 -4.389,13.092 -1.869,1.626 -3.983,3.032 -6.332,4.231 -2.105,1.061 -3.7,1.631 -4.797,1.699 2.131,3.235 2.227,6.505 0.281,9.79 -1.684,2.866 -4.573,5.292 -8.666,7.268 -3.913,1.906 -7.711,2.856 -11.408,2.847 -3.983,0.004 -6.654,-1.168 -8.008,-3.516 0.238,2.108 -0.74,3.923 -2.938,5.443 -2.056,1.429 -4.577,2.231 -7.566,2.392 -3.146,0.179 -5.838,-0.434 -8.079,-1.846 -2.586,-1.61 -4.073,-4.034 -4.475,-7.271 -0.144,-1.149 0.885,-2.97 3.077,-5.474 2.216,-2.503 3.259,-4.274 3.129,-5.313 l -0.016,0.313 z"
         id="path477" />
      <path
         inkscape:connector-curvature="0"
         style="fill:none;stroke:#f2b800;stroke-width:2.9460001;stroke-miterlimit:10"
         d="m 925.199,433.127 0.017,-0.312 c 0.13,1.041 -0.913,2.811 -3.129,5.313 -2.192,2.504 -3.221,4.324 -3.077,5.474 0.401,3.237 1.889,5.661 4.475,7.271 2.241,1.412 4.933,2.024 8.079,1.846 2.989,-0.16 5.511,-0.963 7.566,-2.392 2.198,-1.521 3.177,-3.335 2.938,-5.443 1.354,2.348 4.024,3.52 8.008,3.516 3.697,0.01 7.495,-0.94 11.408,-2.847 4.093,-1.976 6.982,-4.401 8.666,-7.268 1.945,-3.285 1.85,-6.555 -0.281,-9.79 1.097,-0.067 2.691,-0.639 4.797,-1.699 2.349,-1.199 4.463,-2.605 6.332,-4.231 5.127,-4.466 6.589,-8.83 4.389,-13.092 -1.573,-3.047 -4.248,-4.828 -8.024,-5.345 -3.19,-0.443 -6.947,0.037 -11.271,1.438 -3.726,1.2 -7.279,2.851 -10.661,4.954 -3.179,1.977 -5.214,3.693 -6.11,5.168 -4.412,-1.121 -8.441,-1.188 -12.086,-0.182 -3.118,0.858 -5.783,2.45 -7.995,4.768 -1.921,2.026 -3.251,4.312 -3.98,6.839 -0.696,2.399 -0.72,4.405 -0.061,6.014 z"
         id="path479" />
      <path
         inkscape:connector-curvature="0"
         style="fill:#fcdf00"
         d="m 925.199,433.127 c -0.659,-1.609 -0.635,-3.615 0.06,-6.015 0.729,-2.526 2.06,-4.812 3.98,-6.839 2.212,-2.317 4.877,-3.909 7.995,-4.77 3.645,-1.005 7.674,-0.938 12.086,0.184 0.896,-1.475 2.932,-3.191 6.107,-5.168 3.385,-2.104 6.938,-3.754 10.664,-4.954 4.323,-1.401 8.08,-1.881 11.271,-1.438 3.776,0.517 6.451,2.298 8.024,5.345 2.2,4.262 0.738,8.626 -4.389,13.092 -1.869,1.626 -3.983,3.032 -6.332,4.231 -2.105,1.061 -3.7,1.631 -4.797,1.699 2.131,3.235 2.227,6.505 0.281,9.79 -1.684,2.866 -4.573,5.292 -8.666,7.268 -3.913,1.906 -7.711,2.856 -11.408,2.847 -3.983,0.004 -6.654,-1.168 -8.008,-3.516 0.238,2.108 -0.74,3.923 -2.938,5.443 -2.056,1.429 -4.577,2.231 -7.566,2.392 -3.146,0.179 -5.838,-0.434 -8.079,-1.846 -2.586,-1.61 -4.073,-4.034 -4.475,-7.271 -0.144,-1.149 0.885,-2.97 3.077,-5.474 2.216,-2.503 3.259,-4.274 3.129,-5.313 l -0.016,0.313 z"
         id="path481" />
      <path
         inkscape:connector-curvature="0"
         style="fill:#e42126"
         d="m 928.226,439.051 c -0.099,-0.271 -0.196,-0.538 -0.308,-0.788 3.613,-0.639 7.226,-1.259 10.855,-1.878 0.111,0.25 0.22,0.499 0.329,0.76 1.551,3.435 2.933,7.18 4.148,11.234 0.05,-0.018 0.099,-0.026 0.147,-0.024 0.802,-0.112 1.581,0.14 2.358,0.766 h 0.007 v 0.011 c 0.661,0.543 1.111,1.256 1.339,2.119 0.158,0.872 0.044,1.655 -0.363,2.35 -0.459,0.793 -1.093,1.233 -1.912,1.314 h -0.012 c -0.077,-0.003 -0.147,0.005 -0.198,0.022 0.012,0.052 0.009,0.09 0.018,0.139 0.069,0.199 0.133,0.408 0.187,0.636 0.085,0.387 0.16,0.782 0.227,1.169 0,0.009 0,0.009 -0.012,0.019 0.034,0.17 0.069,0.328 0.093,0.496 0.024,0.188 0.026,0.385 0.011,0.57 -0.015,0.148 0,0.275 0.055,0.405 0.031,-0.019 0.062,-0.036 0.092,-0.065 -0.002,0.03 -0.002,0.049 -0.002,0.079 0.707,0.031 1.315,0.357 1.827,0.984 h 0.01 v 0.011 c 0.5,0.615 0.732,1.372 0.683,2.265 -0.053,0.658 -0.248,1.251 -0.589,1.781 l -1.918,-0.062 c 0.043,-0.049 0.081,-0.087 0.112,-0.124 0.091,-0.067 0.17,-0.144 0.254,-0.239 v -0.009 c 0.337,-0.363 0.528,-0.79 0.556,-1.291 0.017,-0.206 0.002,-0.394 -0.029,-0.582 -0.151,-0.486 -0.416,-0.898 -0.788,-1.225 -0.488,-0.43 -1.051,-0.666 -1.689,-0.706 -0.009,-10e-4 -0.029,-10e-4 -0.049,-10e-4 -0.009,-0.049 -0.007,-0.079 -0.007,-0.109 -0.036,-0.079 -0.074,-0.159 -0.098,-0.247 0.188,-0.398 0.243,-0.879 0.174,-1.424 -0.09,-0.632 -0.224,-1.246 -0.414,-1.852 -0.079,-0.239 -0.18,-0.449 -0.322,-0.621 -0.023,-0.188 -0.047,-0.366 -0.071,-0.554 0.012,0 0.041,10e-4 0.069,0.002 0.643,-0.048 1.221,-0.304 1.719,-0.769 0.456,-0.43 0.729,-0.962 0.837,-1.586 -10e-4,-0.188 -0.016,-0.376 -0.029,-0.563 -0.067,-0.298 -0.18,-0.546 -0.319,-0.758 -0.163,-0.174 -0.334,-0.346 -0.504,-0.5 -0.249,-0.233 -0.541,-0.41 -0.859,-0.528 -0.662,-0.238 -1.308,-0.349 -1.938,-0.32 -0.009,-0.02 -0.009,-0.029 -0.021,-0.029 -1.115,-4.022 -2.432,-7.724 -3.954,-11.13 -2.641,0.463 -5.264,0.919 -7.865,1.375 1.379,3.499 2.52,7.137 3.43,10.905 v 0.02 c -0.464,0.311 -0.822,0.741 -1.087,1.294 -0.115,0.281 -0.176,0.593 -0.177,0.929 0.037,0.66 0.273,1.258 0.699,1.794 0.349,0.414 0.792,0.734 1.307,0.947 0.021,0 0.037,10e-4 0.059,0.012 0.018,-0.009 0.038,-0.018 0.061,-0.026 0.009,0.009 0.016,0.02 0.026,0.031 0.088,0.081 0.151,0.171 0.219,0.271 0.139,0.212 0.249,0.452 0.31,0.729 0.13,0.545 0.2,1.099 0.233,1.671 0.014,0.364 -0.018,0.708 -0.087,1.05 0.01,0.01 0.01,0.01 0.01,0.021 -0.003,0.078 -0.005,0.158 -0.007,0.235 l -0.003,0.03 h -0.008 c -0.049,0.008 -0.119,0.006 -0.186,0.013 -0.655,0.126 -1.188,0.482 -1.603,1.07 -0.329,0.45 -0.504,0.947 -0.521,1.509 0.018,0.067 0.024,0.166 0.01,0.285 0.015,0.207 0.046,0.405 0.091,0.593 l -1.652,-0.056 c -0.021,-0.246 -0.033,-0.512 -0.016,-0.788 0.082,-0.893 0.399,-1.668 0.953,-2.329 0.379,-0.449 0.812,-0.761 1.281,-0.932 v -0.02 c 0.029,-0.01 0.05,-0.027 0.072,-0.047 0.007,-0.01 0.007,-0.021 0.02,-0.029 0.012,-0.077 0.015,-0.157 0.016,-0.225 0.023,-0.109 0.028,-0.227 0.023,-0.354 -0.027,-0.354 -0.076,-0.702 -0.153,-1.027 -0.095,-0.408 -0.271,-0.729 -0.53,-0.973 0.003,-0.009 0.003,-0.02 0.003,-0.03 -0.321,-0.138 -0.621,-0.335 -0.917,-0.601 -0.62,-0.562 -1.029,-1.283 -1.208,-2.165 -0.179,-0.86 -0.073,-1.645 0.294,-2.342 0.22,-0.386 0.484,-0.682 0.787,-0.889 -0.972,-3.821 -2.159,-7.522 -3.586,-11.099"
         id="path483" />
      <path
         inkscape:connector-curvature="0"
         style="fill:#e42126"
         d="m 968.104,471.146 c 3.134,1.117 5.516,2.622 7.136,4.506 1.649,1.894 2.331,3.854 2.058,5.881 v 0.011 c -0.231,2.077 -1.444,3.879 -3.631,5.409 h -0.008 c -2.225,1.561 -5.242,2.612 -9.067,3.157 h -0.011 c -9.044,1.276 -20.756,-0.465 -35.112,-5.226 -0.617,-0.06 -0.823,-1.573 -0.628,-4.538 l 0.002,-0.009 c 0.19,-2.571 0.582,-4.91 1.193,-7.017 0,0 -0.008,0 -0.021,-0.01 0.046,-0.107 0.076,-0.205 0.09,-0.293 -0.202,-0.163 -0.38,-0.356 -0.542,-0.578 0.011,-0.01 0,-0.021 -0.009,-0.011 -0.393,-0.633 -0.516,-1.384 -0.368,-2.265 0.193,-0.87 0.603,-1.624 1.235,-2.263 0.363,-0.331 0.727,-0.576 1.086,-0.751 0.249,-0.031 0.44,-0.182 0.595,-0.464 0.167,-0.308 0.308,-0.628 0.425,-0.95 0.057,-0.145 0.069,-0.291 0.057,-0.42 0.01,-0.06 0.021,-0.117 0.032,-0.185 -0.308,-0.159 -0.587,-0.394 -0.83,-0.717 0.01,-0.011 0,-0.021 -0.012,-0.011 -0.318,-0.434 -0.519,-0.942 -0.589,-1.506 l 1.652,0.056 c 0.114,0.386 0.31,0.728 0.585,1.031 0.027,0.031 0.065,0.071 0.106,0.103 l 0.779,0.488 c 0.023,1.072 -0.234,2.049 -0.784,2.945 -0.032,0.049 -0.062,0.087 -0.113,0.135 l -0.46,0.211 c -0.249,0.12 -0.533,0.287 -0.834,0.504 -0.313,0.216 -0.554,0.425 -0.708,0.616 -0.317,0.325 -0.525,0.712 -0.609,1.171 v 0.021 c 0.008,0 0,0.007 -0.013,0.028 0.01,0.019 0,0.049 -0.021,0.098 -0.011,0.03 -0.014,0.078 -0.024,0.128 -0.026,0.559 0.093,1.074 0.364,1.547 0.176,0.281 0.404,0.514 0.694,0.69 -0.011,0.02 -0.011,0.039 -0.011,0.049 -0.08,0.322 -0.179,0.644 -0.279,0.985 l -0.002,0.009 h -0.008 c -0.68,2.133 -1.086,4.284 -1.207,6.465 -0.12,2.18 -0.231,3.249 -0.334,3.216 14.066,4.664 25.543,6.387 34.41,5.153 0.622,-0.086 1.215,-0.195 1.79,-0.307 0.151,-0.103 0.302,-0.205 0.435,-0.327 1.013,-0.863 1.6,-1.995 1.766,-3.407 0.16,-1.361 -0.123,-2.65 -0.837,-3.884 -0.757,-1.294 -1.867,-2.226 -3.335,-2.786 2.164,0.377 3.787,1.294 4.851,2.758 0.97,1.3 1.307,2.749 1.017,4.342 -0.181,1.027 -0.583,1.891 -1.195,2.608 1.51,-0.493 2.809,-1.119 3.906,-1.879 1.763,-1.23 2.755,-2.664 2.978,-4.321 0.188,-1.596 -0.369,-3.15 -1.687,-4.66 -1.48,-1.691 -3.642,-3.041 -6.479,-4.061 -6.35,-2.264 -14.215,-2.473 -23.596,-0.605 -0.212,0.159 -0.423,0.33 -0.635,0.501 -0.11,0.017 -0.198,0.032 -0.277,0.05 -0.01,-0.011 -0.031,-0.011 -0.039,-0.001 0.19,-0.092 0.362,-0.245 0.537,-0.466 0.02,-0.018 0.039,-0.037 0.05,-0.058 0.217,-0.297 0.387,-0.646 0.516,-1.044 0.088,-0.284 0.137,-0.566 0.157,-0.843 0.016,-0.226 0.006,-0.452 -0.027,-0.669 -0.089,-0.563 -0.373,-0.987 -0.845,-1.268 -0.184,-0.114 -0.368,-0.219 -0.561,-0.295 l -0.906,-0.256 c 0.011,-0.067 0.033,-0.125 0.063,-0.174 0.534,-1.006 0.894,-2.058 1.059,-3.164 l 0.601,-0.049 c 0.398,-0.076 0.797,-0.269 1.212,-0.561 0.151,-0.114 0.292,-0.236 0.413,-0.36 l 1.918,0.062 c -0.114,0.184 -0.26,0.366 -0.413,0.538 -0.009,-0.01 -0.019,-0.002 -0.009,0.009 -0.664,0.735 -1.415,1.096 -2.249,1.099 -0.023,0.126 -0.067,0.253 -0.141,0.387 -0.011,0.04 -0.024,0.08 -0.034,0.119 -0.089,0.302 -0.187,0.594 -0.296,0.886 -0.063,0.163 -0.136,0.31 -0.222,0.445 0.689,0.062 1.23,0.403 1.631,1.017 l 0.01,0.002 -0.01,0.01 c 0.403,0.603 0.527,1.315 0.393,2.136 8.752,-1.47 16.158,-1.12 22.226,1.077"
         id="path485" />
      <path
         inkscape:connector-curvature="0"
         style="fill:#e27c9f"
         d="m 943.838,449.678 c 0.318,0.118 0.61,0.295 0.859,0.528 0.17,0.154 0.341,0.325 0.504,0.5 0.14,0.212 0.252,0.46 0.319,0.758 0.014,0.188 0.028,0.375 0.029,0.563 -0.107,0.624 -0.381,1.156 -0.837,1.585 -0.498,0.466 -1.076,0.722 -1.719,0.77 -0.028,-0.001 -0.058,-0.002 -0.069,-0.002 -0.028,-0.011 -0.049,-0.011 -0.057,-0.003 -2.848,0.37 -5.673,0.729 -8.49,1.102 -0.011,-0.012 -0.018,-0.022 -0.026,-0.031 -0.021,0.009 -0.043,0.018 -0.06,0.026 -0.022,-0.011 -0.039,-0.012 -0.059,-0.012 -0.516,-0.213 -0.958,-0.533 -1.308,-0.947 -0.426,-0.536 -0.662,-1.134 -0.699,-1.794 10e-4,-0.336 0.062,-0.647 0.177,-0.931 0.265,-0.551 0.623,-0.981 1.087,-1.292 v -0.02 c 2.786,-0.372 5.593,-0.741 8.41,-1.121 0.631,-0.028 1.277,0.082 1.939,0.321"
         id="path487" />
      <path
         inkscape:connector-curvature="0"
         style="fill:#e86601"
         d="m 942.868,454.377 c 0.008,-0.008 0.028,-0.008 0.057,0.003 0.024,0.188 0.048,0.365 0.071,0.554 0.143,0.173 0.243,0.382 0.322,0.621 0.19,0.605 0.324,1.22 0.414,1.852 0.069,0.545 0.016,1.025 -0.174,1.424 0.024,0.088 0.062,0.168 0.098,0.247 0,0.03 -0.002,0.061 0.008,0.11 -0.039,-0.014 -0.06,-0.003 -0.069,0.007 -0.021,0.009 -0.04,0.007 -0.06,0.017 -2.836,0.074 -5.662,0.159 -8.48,0.243 0.003,-0.077 0.005,-0.157 0.008,-0.235 0,-0.011 0,-0.011 -0.01,-0.021 0.07,-0.342 0.101,-0.686 0.086,-1.05 -0.032,-0.572 -0.103,-1.125 -0.232,-1.67 -0.061,-0.277 -0.171,-0.518 -0.309,-0.729 -0.068,-0.1 -0.132,-0.189 -0.22,-0.271 2.817,-0.373 5.643,-0.732 8.49,-1.102"
         id="path489" />
      <path
         inkscape:connector-curvature="0"
         style="fill:#e86601"
         d="m 941.88,449.328 c 0.012,0 0.012,0.01 0.021,0.029 -2.817,0.38 -5.625,0.749 -8.41,1.121 -0.909,-3.77 -2.051,-7.406 -3.43,-10.905 2.602,-0.456 5.225,-0.912 7.865,-1.375 1.522,3.406 2.839,7.108 3.954,11.13"
         id="path491" />
      <path
         inkscape:connector-curvature="0"
         style="fill:#e27c9f"
         d="m 935.053,459.484 0.003,-0.03 c 2.817,-0.084 5.644,-0.169 8.479,-0.243 0.02,-0.01 0.039,-0.008 0.06,-0.017 0.01,-0.01 0.03,-0.021 0.069,-0.008 0.019,0 0.039,0 0.048,0.001 0.639,0.04 1.202,0.276 1.689,0.706 0.372,0.326 0.637,0.738 0.788,1.225 0.031,0.188 0.046,0.376 0.029,0.582 -0.027,0.501 -0.219,0.929 -0.556,1.291 V 463 c -0.083,0.096 -0.163,0.173 -0.254,0.238 -0.152,0.184 -0.324,0.344 -0.525,0.484 -0.415,0.292 -0.813,0.484 -1.212,0.561 l -0.601,0.05 -1.961,0.055 c -2.106,0.048 -4.215,0.106 -6.312,0.176 l -0.492,0.013 -0.779,-0.487 c -0.041,-0.032 -0.078,-0.072 -0.106,-0.104 -0.408,-0.446 -0.64,-0.985 -0.676,-1.624 0.015,-0.119 0.008,-0.218 -0.01,-0.285 0.018,-0.562 0.192,-1.059 0.521,-1.509 0.415,-0.588 0.947,-0.944 1.603,-1.07 0.066,-0.007 0.137,-0.005 0.186,-0.013 h 0.009 z"
         id="path493" />
      <path
         inkscape:connector-curvature="0"
         style="fill:#e27c9f"
         d="m 942.855,467.926 c 0.192,0.076 0.377,0.181 0.561,0.295 0.472,0.28 0.756,0.703 0.845,1.269 0.032,0.216 0.043,0.442 0.027,0.668 -0.021,0.276 -0.069,0.559 -0.157,0.842 -0.13,0.399 -0.3,0.748 -0.516,1.045 -0.011,0.021 -0.031,0.039 -0.05,0.058 -0.175,0.221 -0.347,0.374 -0.537,0.466 0.008,-0.01 0.029,-0.01 0.039,10e-4 -0.05,0.008 -0.091,0.016 -0.141,0.045 -0.069,0.016 -0.147,0.034 -0.229,0.051 -0.017,-0.009 -0.038,-10e-4 -0.06,0.008 -0.087,0.008 -0.176,0.004 -0.266,0.011 -0.127,0.005 -0.263,10e-4 -0.403,0.007 -3.413,-0.004 -6.797,-0.018 -10.172,-0.02 -0.29,-0.177 -0.519,-0.409 -0.694,-0.691 -0.272,-0.472 -0.391,-0.987 -0.364,-1.546 0.011,-0.05 0.013,-0.1 0.024,-0.128 0.021,-0.049 0.031,-0.079 0.021,-0.098 0.013,-0.021 0.021,-0.028 0.013,-0.028 v -0.021 c 0.084,-0.458 0.292,-0.845 0.609,-1.169 0.154,-0.193 0.395,-0.401 0.708,-0.617 0.302,-0.216 0.585,-0.383 0.834,-0.505 l 0.46,-0.211 1.12,-0.001 c 2.027,-0.003 4.055,0.005 6.091,0.012 l 1.329,0.004 0.908,0.253 z"
         id="path495" />
      <path
         inkscape:connector-curvature="0"
         style="fill:#e86601"
         d="m 942.927,472.612 c 0.05,-0.028 0.091,-0.036 0.141,-0.044 0.079,-0.018 0.167,-0.033 0.277,-0.051 0.212,-0.17 0.423,-0.341 0.635,-0.5 9.381,-1.867 17.246,-1.658 23.596,0.605 2.838,1.02 4.999,2.369 6.479,4.061 1.317,1.51 1.874,3.062 1.687,4.66 -0.223,1.657 -1.215,3.091 -2.978,4.32 -1.098,0.762 -2.396,1.387 -3.906,1.879 0.612,-0.717 1.015,-1.58 1.195,-2.607 0.29,-1.593 -0.047,-3.042 -1.017,-4.342 -1.063,-1.464 -2.687,-2.381 -4.851,-2.758 1.468,0.561 2.578,1.492 3.335,2.786 0.714,1.233 0.997,2.521 0.837,3.884 -0.166,1.412 -0.753,2.545 -1.766,3.406 -0.133,0.123 -0.283,0.226 -0.436,0.328 -0.573,0.111 -1.166,0.221 -1.789,0.307 -8.867,1.233 -20.344,-0.489 -34.409,-5.153 0.102,0.033 0.213,-1.036 0.334,-3.216 0.12,-2.181 0.526,-4.332 1.206,-6.465 h 0.008 l 0.002,-0.009 c 0.101,-0.342 0.198,-0.665 0.279,-0.985 0,-0.01 0,-0.029 0.011,-0.049 3.375,0.002 6.759,0.016 10.172,0.02 0.141,-0.006 0.276,-0.002 0.403,-0.007 0.09,-0.007 0.179,-0.003 0.266,-0.011 0.021,-0.009 0.043,-0.018 0.059,-0.008 0.082,-0.016 0.16,-0.034 0.23,-0.051"
         id="path497" />
      <path
         inkscape:connector-curvature="0"
         style="fill:#e86601"
         d="m 941.949,467.67 -1.329,-0.004 c -2.036,-0.007 -4.063,-0.016 -6.091,-0.013 l -1.12,0.002 c 0.052,-0.048 0.081,-0.085 0.113,-0.134 0.55,-0.897 0.808,-1.873 0.784,-2.945 l 0.492,-0.013 c 2.097,-0.069 4.205,-0.128 6.312,-0.176 l 1.961,-0.055 c -0.165,1.105 -0.524,2.156 -1.06,3.163 -0.029,0.05 -0.051,0.106 -0.062,0.175"
         id="path499" />
      <path
         inkscape:connector-curvature="0"
         style="fill:#e42126"
         d="m 923.848,446.705 c 0.129,-0.254 0.26,-0.508 0.398,-0.739 -3.488,-1.073 -6.975,-2.127 -10.484,-3.182 -0.137,0.233 -0.276,0.464 -0.417,0.707 -1.95,3.202 -3.772,6.729 -5.468,10.581 -0.047,-0.022 -0.095,-0.038 -0.144,-0.042 -0.779,-0.208 -1.576,-0.054 -2.42,0.469 l -0.009,-0.001 -0.002,0.01 c -0.719,0.454 -1.249,1.104 -1.58,1.928 -0.26,0.841 -0.245,1.628 0.072,2.364 0.355,0.837 0.927,1.351 1.726,1.53 l 0.01,0.001 c 0.078,0.007 0.145,0.024 0.193,0.048 -0.016,0.047 -0.02,0.087 -0.032,0.134 -0.097,0.188 -0.185,0.387 -0.264,0.604 -0.13,0.371 -0.253,0.754 -0.367,1.126 0,0.009 0,0.009 0.012,0.021 -0.056,0.163 -0.109,0.313 -0.153,0.477 -0.044,0.184 -0.074,0.378 -0.079,0.563 -0.006,0.146 -0.035,0.271 -0.106,0.394 -0.028,-0.023 -0.054,-0.046 -0.08,-0.078 -0.004,0.03 -0.004,0.05 -0.01,0.079 -0.699,-0.054 -1.342,0.192 -1.924,0.748 h -0.009 v 0.009 c -0.572,0.547 -0.889,1.266 -0.953,2.152 -0.041,0.881 0.191,1.687 0.706,2.412 0.009,-0.01 0.018,0.002 0.009,0.009 0.564,0.809 1.259,1.255 2.087,1.361 -0.002,0.115 0.024,0.247 0.081,0.379 l 1.548,0.141 c -0.056,-0.349 -0.081,-0.704 -0.09,-1.067 l -0.588,-0.124 c -0.38,-0.123 -0.752,-0.362 -1.123,-0.699 -0.184,-0.165 -0.331,-0.346 -0.463,-0.542 -0.079,-0.078 -0.15,-0.164 -0.22,-0.269 V 468.2 c -0.288,-0.399 -0.423,-0.844 -0.388,-1.341 0.009,-0.207 0.045,-0.39 0.1,-0.571 0.21,-0.462 0.52,-0.837 0.927,-1.113 0.534,-0.364 1.12,-0.528 1.753,-0.488 0.011,0 0.029,0.002 0.049,0.004 0.015,-0.046 0.017,-0.078 0.02,-0.107 0.047,-0.074 0.093,-0.147 0.13,-0.232 -0.138,-0.416 -0.135,-0.896 0.002,-1.424 0.163,-0.614 0.374,-1.205 0.634,-1.779 0.108,-0.227 0.233,-0.422 0.396,-0.573 0.043,-0.183 0.091,-0.355 0.136,-0.538 -0.011,0 -0.037,-0.003 -0.067,-0.006 -0.627,-0.126 -1.167,-0.449 -1.602,-0.97 -0.399,-0.478 -0.604,-1.037 -0.636,-1.67 0.028,-0.183 0.065,-0.367 0.103,-0.55 0.103,-0.284 0.242,-0.518 0.406,-0.709 0.18,-0.151 0.371,-0.299 0.559,-0.431 0.273,-0.201 0.582,-0.34 0.913,-0.416 0.681,-0.155 1.333,-0.185 1.953,-0.08 0.011,-0.018 0.011,-0.029 0.021,-0.027 1.595,-3.832 3.346,-7.325 5.266,-10.501 2.551,0.782 5.081,1.552 7.595,2.32 -1.789,3.283 -3.358,6.735 -4.719,10.344 -10e-4,0.012 -10e-4,0.012 -10e-4,0.02 0.418,0.363 0.718,0.832 0.914,1.41 0.078,0.29 0.1,0.607 0.062,0.938 -0.121,0.647 -0.426,1.208 -0.909,1.685 -0.399,0.365 -0.872,0.628 -1.408,0.775 -0.019,-0.001 -0.039,-0.004 -0.058,0.005 -0.021,-0.012 -0.039,-0.023 -0.057,-0.035 -0.011,0.009 -0.021,0.018 -0.033,0.026 -0.094,0.071 -0.169,0.152 -0.246,0.243 -0.166,0.192 -0.304,0.415 -0.396,0.681 -0.196,0.522 -0.333,1.059 -0.435,1.621 -0.061,0.356 -0.072,0.7 -0.045,1.045 -0.01,0.011 -0.01,0.011 -0.012,0.02 -0.008,0.078 -0.013,0.155 -0.021,0.234 l -0.003,0.029 0.011,0.001 c 0.048,0.015 0.115,0.021 0.181,0.035 0.631,0.205 1.115,0.623 1.451,1.252 0.268,0.485 0.379,0.997 0.329,1.553 -0.027,0.065 -0.046,0.162 -0.046,0.28 -0.115,0.627 -0.406,1.132 -0.865,1.521 -0.032,0.026 -0.073,0.062 -0.114,0.089 l -0.83,0.386 c -0.025,0.174 -0.043,0.349 -0.049,0.524 l 1.811,0.166 c 0.257,-0.123 0.51,-0.298 0.746,-0.542 -0.007,-0.01 0.002,-0.02 0.011,-0.008 0.534,-0.57 0.828,-1.3 0.878,-2.189 0.031,-0.892 -0.191,-1.697 -0.654,-2.417 -0.32,-0.488 -0.709,-0.85 -1.15,-1.076 0,-0.009 0,-0.009 0.003,-0.02 -0.03,-0.013 -0.046,-0.033 -0.064,-0.056 -0.009,-0.01 -0.006,-0.019 -0.017,-0.03 -0.003,-0.078 0.005,-0.155 0.011,-0.225 -0.011,-0.108 0.002,-0.226 0.021,-0.351 0.072,-0.348 0.161,-0.684 0.277,-0.997 0.143,-0.39 0.355,-0.685 0.642,-0.896 0,-0.008 10e-4,-0.018 10e-4,-0.027 0.335,-0.098 0.652,-0.257 0.978,-0.481 0.681,-0.479 1.174,-1.142 1.456,-1.99 0.281,-0.826 0.276,-1.612 -0.003,-2.347 -0.17,-0.407 -0.395,-0.732 -0.666,-0.974 1.419,-3.651 3.042,-7.158 4.891,-10.515"
         id="path501" />
      <path
         inkscape:connector-curvature="0"
         style="fill:#e42126"
         d="m 880.339,477.538 c -2.912,1.256 -5.104,2.903 -6.578,4.94 -1.492,2.055 -2.075,4.162 -1.75,6.322 l -0.002,0.011 c 0.28,2.214 1.481,4.122 3.596,5.707 l 0.009,0.002 c 2.143,1.618 5.022,2.675 8.652,3.171 l 0.007,0.002 c 8.564,1.18 19.546,-0.906 32.931,-6.279 0.167,-0.026 0.309,-0.189 0.409,-0.494 0.015,0.03 0.031,0.061 0.06,0.095 0.242,-0.716 0.41,-1.928 0.516,-3.627 v -0.011 c 0.037,-0.732 0.053,-1.438 0.057,-2.135 -0.01,-1.749 -0.135,-3.39 -0.377,-4.935 0,0 0.01,10e-4 0.021,-0.009 -0.028,-0.11 -0.049,-0.21 -0.052,-0.298 0.055,-0.036 0.104,-0.069 0.155,-0.105 0.159,-0.112 0.309,-0.245 0.45,-0.399 -0.008,-0.011 0,-0.02 0.011,-0.009 0.466,-0.576 0.679,-1.305 0.643,-2.192 -0.089,-0.881 -0.399,-1.675 -0.944,-2.382 -0.318,-0.373 -0.647,-0.659 -0.979,-0.875 -0.241,-0.062 -0.41,-0.234 -0.532,-0.53 -0.127,-0.326 -0.226,-0.659 -0.303,-0.989 -0.034,-0.15 -0.031,-0.298 0,-0.423 -0.006,-0.06 -0.012,-0.119 -0.016,-0.188 0.054,-0.024 0.113,-0.038 0.164,-0.062 l -1.811,-0.166 c -0.048,0.86 0.104,1.689 0.462,2.479 0.024,0.051 0.052,0.092 0.095,0.145 l 0.428,0.267 c 0.231,0.146 0.489,0.348 0.762,0.599 0.281,0.251 0.495,0.487 0.624,0.695 0.271,0.358 0.431,0.766 0.457,1.229 0,0.009 0,0.009 -0.002,0.019 -0.009,0 0,0.009 0.007,0.031 -0.011,0.018 -0.005,0.048 0.013,0.1 0.006,0.028 0.003,0.078 0.006,0.128 -0.04,0.556 -0.224,1.049 -0.546,1.481 -0.21,0.256 -0.464,0.46 -0.772,0.598 0.01,0.021 0.007,0.04 0.005,0.051 0.008,0.049 0.02,0.109 0.025,0.158 0.035,0.269 0.078,0.557 0.132,0.847 l -0.002,0.01 0.008,10e-4 c 0.235,1.228 0.376,2.449 0.434,3.673 0.042,0.956 0.024,1.906 -0.034,2.854 -0.06,0.888 -0.096,1.602 -0.113,2.121 -0.045,-0.055 -0.09,-0.106 -0.131,-0.159 0.016,0.139 0.023,0.257 0.046,0.358 0.037,0.326 0.081,0.479 0.123,0.463 -13.117,5.271 -23.88,7.337 -32.286,6.211 -0.58,-0.083 -1.14,-0.184 -1.688,-0.302 -0.149,-0.102 -0.284,-0.223 -0.423,-0.343 -0.978,-0.894 -1.564,-2.098 -1.763,-3.597 -0.204,-1.443 0.021,-2.837 0.661,-4.164 0.669,-1.401 1.691,-2.409 3.056,-3.041 -2.035,0.442 -3.531,1.457 -4.491,3.049 -0.863,1.404 -1.14,2.959 -0.812,4.649 0.205,1.089 0.602,1.999 1.214,2.752 -1.451,-0.494 -2.698,-1.129 -3.754,-1.922 -1.7,-1.274 -2.684,-2.787 -2.946,-4.55 -0.229,-1.699 0.246,-3.375 1.447,-5.005 1.345,-1.832 3.336,-3.319 5.974,-4.466 4.555,-1.952 9.997,-2.625 16.324,-2.002 l 8.224,1.071 0.07,-0.043 c -0.312,-0.126 -0.561,-0.318 -0.753,-0.58 -0.062,-0.074 -0.112,-0.157 -0.163,-0.231 -0.077,-0.134 -0.142,-0.288 -0.196,-0.45 l -0.009,-0.009 c -0.051,-0.183 -0.104,-0.374 -0.146,-0.563 -0.052,-0.29 -0.064,-0.575 -0.051,-0.851 0.007,-0.147 0.027,-0.291 0.061,-0.437 0.016,-0.076 0.034,-0.154 0.05,-0.221 0.157,-0.546 0.487,-0.927 0.986,-1.148 0.196,-0.09 0.389,-0.171 0.591,-0.222 l 0.926,-0.141 c -0.002,-0.069 -0.016,-0.129 -0.041,-0.18 -0.278,-0.724 -0.47,-1.448 -0.57,-2.184 l -1.548,-0.142 c 0.012,0.012 0.012,0.012 0.009,0.021 0.006,0.04 0.013,0.079 0.018,0.119 0.049,0.308 0.112,0.609 0.184,0.911 0.044,0.17 0.098,0.323 0.164,0.466 -0.686,-0.022 -1.262,0.25 -1.734,0.804 h -0.01 l 0.01,0.011 c -0.209,0.246 -0.372,0.525 -0.479,0.841 -0.062,0.161 -0.107,0.323 -0.132,0.499 -0.034,0.467 -0.009,0.933 0.1,1.383 0.027,0.121 0.055,0.242 0.095,0.373 -0.261,-0.073 -0.598,-0.134 -1.036,-0.184 -0.436,-0.068 -0.852,-0.126 -1.239,-0.189 -0.386,-0.065 -0.686,-0.112 -0.899,-0.141 l -0.003,0.007 c -7.62,-1.071 -14.071,-0.458 -19.356,1.851"
         id="path503" />
      <path
         inkscape:connector-curvature="0"
         style="fill:#e27c9f"
         d="m 907.138,455.284 c -0.331,0.076 -0.64,0.215 -0.913,0.416 -0.188,0.132 -0.379,0.279 -0.559,0.431 -0.164,0.191 -0.304,0.425 -0.406,0.709 -0.037,0.183 -0.074,0.367 -0.102,0.55 0.031,0.633 0.235,1.192 0.635,1.67 0.435,0.521 0.975,0.845 1.602,0.97 0.03,0.003 0.057,0.006 0.067,0.006 0.031,-0.007 0.049,-0.005 0.059,0.006 2.764,0.712 5.509,1.413 8.242,2.123 0.013,-0.009 0.021,-0.018 0.033,-0.025 0.018,0.011 0.036,0.022 0.057,0.034 0.019,-0.009 0.039,-0.006 0.059,-0.005 0.536,-0.147 1.008,-0.41 1.407,-0.776 0.483,-0.476 0.788,-1.036 0.909,-1.684 0.038,-0.331 0.017,-0.648 -0.062,-0.938 -0.193,-0.578 -0.496,-1.047 -0.914,-1.41 0,-0.008 0,-0.008 0.001,-0.02 -2.706,-0.707 -5.431,-1.416 -8.162,-2.136 -0.62,-0.105 -1.273,-0.076 -1.953,0.079"
         id="path505" />
      <path
         inkscape:connector-curvature="0"
         style="fill:#e86601"
         d="m 907.521,460.041 c -0.01,-0.011 -0.027,-0.013 -0.059,-0.006 -0.046,0.183 -0.092,0.355 -0.137,0.538 -0.161,0.151 -0.286,0.347 -0.395,0.573 -0.26,0.574 -0.471,1.165 -0.634,1.779 -0.138,0.527 -0.14,1.007 -0.002,1.423 -0.037,0.086 -0.083,0.159 -0.129,0.233 -0.004,0.029 -0.006,0.061 -0.021,0.107 0.04,-0.006 0.061,0.004 0.068,0.015 0.019,0.011 0.038,0.015 0.056,0.026 2.792,0.42 5.572,0.849 8.34,1.277 0.008,-0.079 0.013,-0.156 0.021,-0.234 0.002,-0.009 0.002,-0.009 0.012,-0.02 -0.027,-0.345 -0.017,-0.688 0.045,-1.045 0.102,-0.562 0.238,-1.099 0.435,-1.621 0.092,-0.266 0.229,-0.489 0.396,-0.681 0.077,-0.091 0.152,-0.172 0.246,-0.243 -2.734,-0.708 -5.479,-1.409 -8.242,-2.121"
         id="path507" />
      <path
         inkscape:connector-curvature="0"
         style="fill:#e86601"
         d="m 909.111,455.177 c -0.01,-0.002 -0.01,0.01 -0.021,0.027 2.732,0.72 5.457,1.429 8.163,2.136 1.36,-3.608 2.93,-7.061 4.719,-10.344 -2.514,-0.769 -5.044,-1.538 -7.595,-2.32 -1.92,3.175 -3.671,6.669 -5.266,10.501"
         id="path509" />
      <path
         inkscape:connector-curvature="0"
         style="fill:#e27c9f"
         d="m 914.606,466.037 0.003,-0.029 c -2.768,-0.429 -5.548,-0.857 -8.34,-1.277 -0.018,-0.012 -0.037,-0.016 -0.056,-0.026 -0.008,-0.011 -0.028,-0.021 -0.068,-0.015 -0.019,-0.002 -0.038,-0.004 -0.049,-0.004 -0.633,-0.04 -1.22,0.123 -1.753,0.488 -0.407,0.276 -0.717,0.651 -0.927,1.113 -0.055,0.182 -0.091,0.364 -0.1,0.571 -0.035,0.497 0.1,0.941 0.388,1.341 v 0.009 c 0.069,0.104 0.141,0.19 0.22,0.267 0.132,0.198 0.279,0.379 0.463,0.543 0.371,0.338 0.743,0.577 1.123,0.7 l 0.588,0.124 1.929,0.292 c 2.075,0.306 4.147,0.622 6.209,0.947 l 0.486,0.073 0.83,-0.387 c 0.041,-0.025 0.082,-0.062 0.114,-0.088 0.46,-0.39 0.75,-0.895 0.865,-1.521 0,-0.118 0.021,-0.215 0.046,-0.28 0.049,-0.556 -0.062,-1.067 -0.329,-1.553 -0.336,-0.629 -0.82,-1.047 -1.451,-1.252 -0.065,-0.015 -0.133,-0.021 -0.181,-0.035 l -0.01,-0.001 z"
         id="path511" />
      <path
         inkscape:connector-curvature="0"
         style="fill:#e27c9f"
         d="m 905.874,473.413 c -0.202,0.051 -0.396,0.132 -0.591,0.222 -0.499,0.222 -0.829,0.603 -0.986,1.148 -0.016,0.068 -0.034,0.145 -0.05,0.221 -0.033,0.146 -0.055,0.289 -0.062,0.437 -0.013,0.275 0,0.561 0.052,0.851 0.042,0.189 0.095,0.381 0.146,0.563 l 0.009,0.009 c 0.055,0.162 0.119,0.316 0.196,0.45 0.051,0.074 0.102,0.157 0.163,0.231 0.192,0.262 0.44,0.454 0.753,0.58 l 1.069,0.146 c 0.854,0.105 1.709,0.203 2.563,0.31 2.371,0.285 4.729,0.578 7.069,0.869 0.309,-0.138 0.563,-0.342 0.772,-0.598 0.322,-0.433 0.506,-0.926 0.546,-1.481 -0.003,-0.05 0,-0.1 -0.005,-0.128 -0.019,-0.052 -0.024,-0.082 -0.014,-0.1 -0.007,-0.022 -0.016,-0.031 -0.007,-0.031 0.002,-0.01 0.002,-0.01 0.002,-0.019 -0.026,-0.464 -0.187,-0.871 -0.458,-1.23 -0.128,-0.207 -0.342,-0.443 -0.623,-0.694 -0.272,-0.251 -0.53,-0.452 -0.762,-0.599 l -0.428,-0.267 -1.105,-0.141 c -2.002,-0.25 -4.001,-0.491 -6.014,-0.731 l -1.312,-0.158 -0.923,0.14 z"
         id="path513" />
      <path
         inkscape:connector-curvature="0"
         style="fill:#e86601"
         d="m 905.504,478.125 -0.07,0.043 -8.224,-1.071 c -6.327,-0.623 -11.769,0.05 -16.324,2.002 -2.638,1.146 -4.629,2.634 -5.974,4.466 -1.201,1.63 -1.676,3.306 -1.447,5.005 0.263,1.763 1.246,3.275 2.946,4.55 1.056,0.793 2.303,1.428 3.754,1.922 -0.612,-0.753 -1.009,-1.663 -1.214,-2.752 -0.327,-1.69 -0.05,-3.245 0.812,-4.649 0.96,-1.592 2.456,-2.606 4.491,-3.049 -1.364,0.632 -2.387,1.64 -3.056,3.041 -0.64,1.327 -0.865,2.721 -0.661,4.164 0.198,1.499 0.785,2.703 1.763,3.597 0.139,0.12 0.273,0.241 0.423,0.342 0.55,0.119 1.108,0.22 1.688,0.303 8.406,1.126 19.169,-0.942 32.286,-6.211 -0.042,0.017 -0.086,-0.137 -0.123,-0.463 -0.022,-0.102 -0.03,-0.22 -0.046,-0.358 0.041,0.053 0.086,0.104 0.131,0.159 0.018,-0.52 0.054,-1.233 0.114,-2.121 0.058,-0.948 0.075,-1.898 0.033,-2.855 -0.058,-1.223 -0.199,-2.444 -0.434,-3.672 l -0.008,-10e-4 0.002,-0.01 c -0.054,-0.29 -0.097,-0.578 -0.132,-0.847 -0.006,-0.049 -0.018,-0.109 -0.025,-0.158 0.002,-0.011 0.005,-0.03 -0.005,-0.051 -2.34,-0.291 -4.698,-0.584 -7.069,-0.869 -0.854,-0.106 -1.71,-0.204 -2.563,-0.309 l -1.068,-0.148 z"
         id="path515" />
      <path
         inkscape:connector-curvature="0"
         style="fill:#e86601"
         d="m 906.8,473.272 1.312,0.158 c 2.012,0.24 4.011,0.481 6.013,0.731 l 1.105,0.141 c -0.043,-0.053 -0.07,-0.094 -0.095,-0.145 -0.434,-0.953 -0.565,-1.948 -0.413,-3.004 l -0.485,-0.073 c -2.062,-0.325 -4.135,-0.642 -6.209,-0.947 l -1.93,-0.292 c 0.027,1.111 0.255,2.192 0.66,3.251 0.026,0.052 0.04,0.111 0.042,0.18"
         id="path517" />
      <polygon
         style="fill:#e42126"
         points="901.217,475.485 901.217,475.495 901.227,475.495 "
         id="polygon519" />
      <path
         inkscape:connector-curvature="0"
         style="fill:#f2b800"
         d="m 921.475,381.393 c -0.047,0.059 -0.098,0.107 -0.149,0.156 -2.394,2.574 -5.014,4.896 -7.867,6.939 l 0.009,-0.004 c -0.803,0.584 -1.694,1.007 -2.683,1.269 -1.778,0.478 -3.689,0.526 -5.737,0.128 l -0.014,-0.004 c -0.196,-0.038 -0.398,-0.084 -0.596,-0.124 -0.014,-0.003 -0.025,0.002 -0.038,-0.003 -0.312,-0.074 -0.621,-0.152 -0.919,-0.228 l -0.01,-0.004 c -1.979,-0.534 -3.838,-1.343 -5.583,-2.433 l 0.01,-0.005 c -0.813,-0.507 -1.681,-0.927 -2.592,-1.269 -1.778,-0.675 -3.614,-1.052 -5.508,-1.114 -1.247,-0.039 -2.488,0.017 -3.706,0.157 -0.011,0.007 -0.019,0.011 -0.03,0.008 -5.35,0.44 -9.09,3.124 -11.223,8.049 -0.1,0.229 -0.198,0.46 -0.298,0.688 -0.025,0.071 -0.051,0.149 -0.079,0.222 -0.005,0.013 -0.005,0.013 -0.015,0.017 -1.035,2.755 -0.924,5.837 0.309,9.236 1.171,3.201 3.133,6.254 5.889,9.172 0.279,0.293 0.566,0.581 0.85,0.86 l 0.013,0.006 c 1.153,1.184 2.424,2.219 3.814,3.102 l 0.015,0.004 c 4.272,2.734 8.875,3.667 13.818,2.805 l -0.012,-0.004 c 5.48,-1.041 10.304,-3.565 14.472,-7.576 4.313,-4.153 7.696,-8.938 10.152,-14.375 0.006,-0.004 0.006,-0.004 10e-4,-0.014 1.177,-2.477 2.006,-4.646 2.487,-6.517 l 0.186,-0.729 0.009,-0.025 1.511,0.384 -0.193,0.757 c -0.491,1.955 -1.359,4.222 -2.587,6.804 l 10e-4,-0.014 c -2.535,5.617 -6.034,10.571 -10.486,14.857 l 0.006,-0.006 c -4.38,4.235 -9.473,6.894 -15.268,7.989 l -0.009,0.005 c -5.35,0.938 -10.323,-0.073 -14.935,-3.026 -1.493,-0.949 -2.855,-2.054 -4.091,-3.308 -0.005,-0.01 -0.005,-0.01 -0.01,-0.017 -0.295,-0.285 -0.586,-0.584 -0.874,-0.894 -2.918,-3.075 -4.99,-6.311 -6.224,-9.711 -1.384,-3.807 -1.479,-7.25 -0.303,-10.322 0.047,-0.102 0.087,-0.191 0.115,-0.282 l 0.005,-0.014 c 0.098,-0.231 0.196,-0.461 0.296,-0.689 2.372,-5.506 6.553,-8.505 12.531,-8.991 l -0.03,0.004 c 1.3,-0.154 2.62,-0.206 3.94,-0.172 l 0.006,0.008 c 2.074,0.074 4.08,0.472 6.013,1.209 1.001,0.381 1.946,0.849 2.854,1.404 1.61,1.007 3.328,1.759 5.153,2.253 0.003,0.009 0.003,0.009 0.011,0.006 0.283,0.068 0.562,0.141 0.84,0.202 0.014,0.005 0.024,0.008 0.039,0.013 0.197,0.038 0.395,0.075 0.593,0.113 l -0.011,0.006 c 1.796,0.356 3.48,0.318 5.033,-0.104 0.806,-0.21 1.529,-0.552 2.177,-1.019 l -0.005,-0.011 c 2.827,-2.033 5.427,-4.328 7.786,-6.885 l 0.523,-0.568 1.152,1.054 -0.534,0.575 z"
         id="path521" />
      <path
         inkscape:connector-curvature="0"
         style="fill:#fcdf00"
         d="m 926.44,389.808 -0.186,0.729 c -0.481,1.872 -1.311,4.041 -2.487,6.518 0.005,0.01 0.005,0.01 -0.001,0.014 -2.456,5.438 -5.839,10.22 -10.152,14.375 -4.168,4.011 -8.991,6.535 -14.472,7.576 l 0.012,0.004 c -4.943,0.862 -9.546,-0.07 -13.818,-2.805 l -0.015,-0.004 c -1.391,-0.884 -2.661,-1.918 -3.814,-3.102 l -0.013,-0.006 c -0.283,-0.279 -0.57,-0.569 -0.85,-0.861 -2.756,-2.917 -4.718,-5.97 -5.889,-9.171 -1.232,-3.399 -1.344,-6.481 -0.309,-9.236 0.01,-0.004 0.01,-0.004 0.014,-0.017 0.029,-0.072 0.055,-0.15 0.08,-0.222 0.1,-0.229 0.198,-0.459 0.298,-0.688 2.133,-4.924 5.872,-7.607 11.223,-8.049 0.012,0.004 0.02,0 0.03,-0.007 1.218,-0.141 2.459,-0.196 3.706,-0.157 1.894,0.062 3.729,0.439 5.508,1.114 0.911,0.342 1.778,0.762 2.592,1.268 l -0.01,0.006 c 1.745,1.09 3.604,1.898 5.583,2.433 l 0.01,0.004 c 0.298,0.075 0.605,0.153 0.919,0.228 0.014,0.005 0.024,0 0.038,0.003 0.197,0.038 0.398,0.086 0.596,0.124 l 0.014,0.004 c 2.048,0.398 3.959,0.35 5.737,-0.128 0.988,-0.262 1.88,-0.685 2.683,-1.269 l -0.009,0.004 c 2.854,-2.044 5.474,-4.365 7.867,-6.939 l 5.115,8.257 z"
         id="path523" />
      <path
         inkscape:connector-curvature="0"
         style="fill:#f2b800"
         d="m 953.042,378.879 c 0.05,0.055 0.103,0.102 0.157,0.147 2.525,2.408 5.257,4.548 8.207,6.407 l -0.009,-0.005 c 0.831,0.533 1.74,0.896 2.734,1.097 1.789,0.368 3.687,0.301 5.689,-0.214 l 0.015,-0.005 c 0.191,-0.05 0.391,-0.108 0.582,-0.156 0.015,-0.005 0.023,-0.002 0.033,-0.007 0.312,-0.093 0.611,-0.189 0.9,-0.279 l 0.011,-0.007 c 1.928,-0.646 3.72,-1.559 5.385,-2.741 l -0.01,-0.005 c 0.773,-0.549 1.61,-1.018 2.494,-1.41 1.718,-0.774 3.518,-1.258 5.387,-1.431 1.236,-0.114 2.469,-0.133 3.683,-0.063 0.01,0.004 0.019,0.008 0.033,0.004 5.324,0.116 9.188,2.556 11.594,7.306 0.112,0.222 0.224,0.443 0.334,0.664 0.033,0.067 0.06,0.146 0.093,0.213 0,0.014 0,0.014 0.014,0.019 1.192,2.668 1.265,5.727 0.247,9.168 -0.97,3.241 -2.732,6.38 -5.29,9.436 -0.258,0.307 -0.525,0.61 -0.788,0.904 l -0.014,0.004 c -1.071,1.242 -2.27,2.344 -3.596,3.3 l -0.013,0.004 c -4.07,2.966 -8.574,4.164 -13.522,3.602 l 0.012,-0.004 c -5.492,-0.706 -10.417,-2.919 -14.789,-6.645 -4.52,-3.858 -8.153,-8.396 -10.911,-13.638 -0.007,-0.004 -0.007,-0.004 -0.004,-0.013 -1.311,-2.383 -2.263,-4.482 -2.852,-6.308 l -0.224,-0.712 -0.01,-0.025 -1.477,0.473 0.237,0.736 c 0.604,1.907 1.598,4.103 2.968,6.585 l -0.005,-0.012 c 2.85,5.411 6.609,10.114 11.276,14.094 l -0.009,-0.004 c 4.594,3.935 9.797,6.266 15.602,7.007 l 0.009,0.004 c 5.354,0.608 10.224,-0.688 14.615,-3.889 1.421,-1.027 2.708,-2.204 3.856,-3.52 0.003,-0.009 0.003,-0.009 0.009,-0.017 0.274,-0.3 0.546,-0.611 0.812,-0.937 2.707,-3.218 4.568,-6.55 5.586,-9.99 1.145,-3.852 1.033,-7.271 -0.313,-10.244 -0.052,-0.1 -0.099,-0.185 -0.132,-0.272 l 0,-0.013 c -0.11,-0.223 -0.223,-0.443 -0.333,-0.665 -2.68,-5.314 -6.998,-8.036 -12.948,-8.162 l 0.03,0.002 c -1.298,-0.075 -2.611,-0.049 -3.919,0.062 l -0.003,0.008 c -2.052,0.197 -4.015,0.711 -5.882,1.556 -0.971,0.439 -1.879,0.957 -2.745,1.562 -1.533,1.094 -3.193,1.938 -4.97,2.539 -0.004,0.008 -0.004,0.008 -0.013,0.004 -0.275,0.088 -0.549,0.173 -0.82,0.252 -0.01,0.005 -0.024,0.01 -0.036,0.014 -0.194,0.052 -0.389,0.1 -0.58,0.148 l 0.008,0.005 c -1.756,0.461 -3.428,0.522 -4.99,0.196 -0.812,-0.159 -1.549,-0.457 -2.217,-0.88 l 0.003,-0.01 c -2.921,-1.844 -5.632,-3.965 -8.121,-6.357 l -0.555,-0.531 -1.076,1.112 0.565,0.537 z"
         id="path525" />
      <path
         inkscape:connector-curvature="0"
         style="fill:#fcdf00"
         d="m 948.625,387.511 0.224,0.712 c 0.589,1.825 1.541,3.925 2.852,6.308 -0.003,0.009 -0.003,0.009 0.004,0.013 2.758,5.242 6.392,9.779 10.911,13.638 4.372,3.726 9.297,5.938 14.789,6.644 l -0.012,0.005 c 4.948,0.562 9.452,-0.636 13.522,-3.602 l 0.013,-0.004 c 1.326,-0.956 2.524,-2.058 3.596,-3.3 l 0.014,-0.004 c 0.263,-0.294 0.53,-0.598 0.788,-0.904 2.558,-3.056 4.32,-6.194 5.29,-9.436 1.018,-3.441 0.945,-6.5 -0.247,-9.168 -0.01,-0.006 -0.01,-0.006 -0.014,-0.019 -0.033,-0.069 -0.06,-0.146 -0.093,-0.213 -0.11,-0.221 -0.222,-0.442 -0.334,-0.664 -2.406,-4.75 -6.27,-7.189 -11.594,-7.306 -0.015,0.004 -0.023,0 -0.033,-0.004 -1.214,-0.069 -2.446,-0.051 -3.683,0.063 -1.867,0.173 -3.669,0.656 -5.387,1.431 -0.884,0.393 -1.721,0.861 -2.494,1.41 l 0.01,0.004 c -1.665,1.184 -3.457,2.096 -5.385,2.743 l -0.011,0.006 c -0.289,0.09 -0.588,0.187 -0.9,0.279 -0.01,0.005 -0.019,0.002 -0.033,0.006 -0.191,0.048 -0.391,0.107 -0.582,0.157 l -0.015,0.005 c -2.003,0.515 -3.9,0.582 -5.689,0.214 -0.994,-0.201 -1.903,-0.563 -2.734,-1.097 l 0.009,0.005 c -2.95,-1.86 -5.682,-3.999 -8.207,-6.407 l -4.575,8.485 z"
         id="path527" />
      <path
         inkscape:connector-curvature="0"
         style="fill:#fcdf00"
         d="m 869.495,392.088 c 3.001,2.152 5.337,2.871 6.991,2.174 2.738,-1.15 4.265,-3.766 4.586,-7.837 0.089,-1.108 0.147,-2.799 0.164,-5.069 0.072,-1.96 0.29,-3.466 0.659,-4.514 0.763,-2.188 1.159,-3.412 1.188,-3.658 0.146,-1.457 -0.654,-2.121 -2.415,-1.98 -1.083,0.087 -2.216,0.866 -3.389,2.346 -0.627,0.795 -1.404,2.036 -2.341,3.705 -0.531,-0.888 -1.295,-2.273 -2.271,-4.153 -0.981,-1.541 -2.194,-2.522 -3.643,-2.947 -1.757,-0.259 -2.789,0.984 -3.102,3.754 -0.27,2.413 -0.007,4.753 0.781,7.01 -0.418,-0.827 -1.534,-1.621 -3.324,-2.39 -1.839,-0.812 -3.175,-1.022 -4.024,-0.634 -1.851,0.841 -1.822,2.539 0.09,5.097 1.331,1.759 3.073,3.446 5.234,5.048 1.674,1.57 3.28,2.917 4.816,4.048"
         id="path529" />
      <path
         inkscape:connector-curvature="0"
         style="fill:none;stroke:#f2b800;stroke-width:1.53600001;stroke-miterlimit:10"
         d="m 869.495,392.088 c -1.536,-1.131 -3.143,-2.478 -4.813,-4.05 -2.161,-1.603 -3.903,-3.289 -5.234,-5.048 -1.912,-2.558 -1.94,-4.258 -0.09,-5.097 0.85,-0.389 2.186,-0.179 4.024,0.634 1.79,0.769 2.906,1.562 3.324,2.39 -0.788,-2.257 -1.051,-4.597 -0.781,-7.01 0.312,-2.77 1.345,-4.013 3.102,-3.754 1.448,0.425 2.661,1.406 3.643,2.947 0.976,1.88 1.739,3.266 2.271,4.153 0.937,-1.669 1.714,-2.911 2.341,-3.705 1.173,-1.479 2.306,-2.259 3.389,-2.346 1.761,-0.141 2.561,0.523 2.415,1.98 -0.029,0.246 -0.426,1.47 -1.188,3.658 -0.369,1.048 -0.587,2.554 -0.659,4.514 -0.017,2.271 -0.075,3.961 -0.164,5.069 -0.321,4.071 -1.848,6.687 -4.586,7.837 -1.657,0.699 -3.993,-0.021 -6.994,-2.172 z"
         id="path531" />
      <path
         inkscape:connector-curvature="0"
         style="fill:#f2b800"
         d="m 952.228,371.912 c -0.396,-1.795 -2.098,-3.037 -5.123,-3.721 -2.929,-0.668 -6.837,-0.756 -11.714,-0.253 -1.393,0.149 -2.963,1.094 -4.706,2.858 -1.584,1.593 -3.569,4.124 -5.971,7.609 -3.042,4.435 -9.366,14.149 -18.959,29.135 -4.122,6.232 -6.458,12.167 -6.993,17.792 -0.495,5.105 0.482,9.776 2.945,14.004 2.252,3.874 5.579,7.145 9.979,9.795 4.158,2.515 8.837,4.254 14.054,5.207 5.184,0.938 10.246,0.986 15.182,0.155 5.19,-0.859 9.653,-2.61 13.386,-5.248 4.076,-2.856 6.952,-6.551 8.645,-11.078 1.864,-4.998 2.176,-10.772 0.944,-17.323 -2.724,-14.475 -5.28,-26.046 -7.681,-34.727 -2.046,-6.622 -3.371,-11.353 -3.988,-14.205"
         id="path533" />
      <path
         inkscape:connector-curvature="0"
         style="fill:none;stroke:#f2b800;stroke-width:2.95000005;stroke-miterlimit:10"
         d="m 947.104,368.191 c -2.929,-0.668 -6.837,-0.756 -11.714,-0.253 -1.393,0.149 -2.963,1.094 -4.706,2.856 -1.584,1.594 -3.569,4.125 -5.971,7.61 -3.042,4.435 -9.366,14.149 -18.959,29.135 -4.122,6.232 -6.458,12.167 -6.993,17.794 -0.495,5.104 0.482,9.774 2.945,14.004 2.252,3.872 5.579,7.143 9.979,9.793 4.158,2.515 8.837,4.254 14.054,5.207 5.184,0.938 10.246,0.986 15.182,0.155 5.19,-0.859 9.653,-2.61 13.386,-5.248 4.076,-2.856 6.952,-6.551 8.645,-11.078 1.864,-4.998 2.176,-10.772 0.944,-17.323 -2.724,-14.475 -5.28,-26.046 -7.681,-34.727 -2.045,-6.622 -3.37,-11.354 -3.987,-14.205 -0.396,-1.794 -2.098,-3.036 -5.124,-3.72 z"
         id="path535" />
      <path
         inkscape:connector-curvature="0"
         style="fill:#fcdf00"
         d="m 963.896,420.844 c -2.724,-14.475 -5.28,-26.046 -7.681,-34.727 -0.784,-2.551 -1.469,-4.825 -2.043,-6.811 -9.638,-6.072 -15.131,-12.043 -16.492,-17.899 l -7.532,9.946 c -1.483,1.599 -3.299,3.949 -5.434,7.052 -3.042,4.435 -9.366,14.149 -18.959,29.135 -4.122,6.232 -6.458,12.167 -6.993,17.792 -0.495,5.105 0.482,9.776 2.944,14.004 2.253,3.874 5.58,7.145 9.979,9.795 4.158,2.515 8.837,4.254 14.054,5.207 5.184,0.938 10.246,0.985 15.182,0.154 5.19,-0.858 9.653,-2.609 13.386,-5.247 4.076,-2.856 6.952,-6.551 8.645,-11.078 1.863,-4.998 2.175,-10.772 0.944,-17.323"
         id="path537" />
      <path
         inkscape:connector-curvature="0"
         style="fill:#f2b800"
         d="m 982.953,310.882 c -2.894,-5.476 -6.832,-10.25 -11.816,-14.343 -4.963,-4.074 -10.57,-7.123 -16.83,-9.165 -6.474,-2.11 -13.177,-2.991 -20.12,-2.632 -6.942,0.359 -13.511,1.925 -19.708,4.691 -6.019,2.678 -11.293,6.289 -15.811,10.853 -4.534,4.584 -7.958,9.74 -10.263,15.485 -2.413,5.977 -3.457,12.157 -3.126,18.552 0.825,15.974 6.521,27.747 17.086,35.321 9.234,6.739 21.457,9.722 36.673,8.936 7.1,-0.368 13.648,-1.688 19.65,-3.953 h 0.011 c 6.191,-2.354 11.493,-5.593 15.906,-9.71 9.677,-8.993 14.134,-20.968 13.362,-35.902 -0.33,-6.396 -1.999,-12.437 -5.014,-18.133 M 970.14,297.759 c 4.811,3.943 8.624,8.568 11.418,13.863 2.907,5.496 4.525,11.314 4.842,17.473 0.747,14.426 -3.534,25.977 -12.856,34.679 -4.283,3.983 -9.411,7.104 -15.411,9.388 -5.855,2.208 -12.251,3.491 -19.175,3.849 -14.795,0.766 -26.689,-2.115 -35.677,-8.632 -10.156,-7.329 -15.638,-18.712 -16.435,-34.136 -0.317,-6.16 0.689,-12.113 3.012,-17.88 2.236,-5.554 5.553,-10.547 9.94,-14.967 4.375,-4.429 9.476,-7.943 15.313,-10.532 6.026,-2.688 12.41,-4.206 19.156,-4.556 6.747,-0.349 13.263,0.503 19.554,2.554 6.063,1.974 11.51,4.942 16.319,8.897"
         id="path539" />
      <path
         inkscape:connector-curvature="0"
         style="fill:#fcdf00"
         d="m 981.558,311.622 c -2.794,-5.295 -6.607,-9.92 -11.418,-13.863 -4.809,-3.955 -10.256,-6.923 -16.318,-8.898 -6.291,-2.051 -12.807,-2.902 -19.554,-2.553 -6.746,0.35 -13.13,1.867 -19.156,4.556 -5.838,2.589 -10.938,6.103 -15.313,10.531 -4.386,4.42 -7.704,9.414 -9.94,14.968 -2.322,5.767 -3.329,11.719 -3.012,17.88 0.797,15.423 6.278,26.807 16.435,34.136 8.987,6.517 20.882,9.397 35.677,8.632 6.924,-0.357 13.319,-1.641 19.175,-3.849 6,-2.284 11.128,-5.405 15.411,-9.389 9.322,-8.701 13.604,-20.253 12.856,-34.678 -0.318,-6.16 -1.936,-11.977 -4.843,-17.473"
         id="path541" />
      <path
         inkscape:connector-curvature="0"
         style="fill:#e27c9f"
         d="m 912.88,323.256 c 2.581,-2.323 5.42,-3.982 8.54,-4.998 3.021,-0.99 5.961,-1.28 8.812,-0.848 -1.366,-0.764 -2.79,-1.339 -4.291,-1.702 -2.158,-0.528 -4.322,-0.621 -6.493,-0.273 -2.173,0.337 -4.197,1.08 -6.091,2.238 -3.007,1.845 -5.211,4.384 -6.618,7.628 -1.366,3.174 -1.737,6.454 -1.099,9.837 0.517,-2.157 1.379,-4.244 2.582,-6.259 1.238,-2.077 2.789,-3.955 4.658,-5.623"
         id="path543" />
      <path
         inkscape:connector-curvature="0"
         style="fill:#0077bf"
         d="m 921.42,318.258 c -3.12,1.016 -5.959,2.675 -8.54,4.998 -1.869,1.669 -3.42,3.546 -4.657,5.623 -1.203,2.015 -2.065,4.102 -2.582,6.259 0.408,2.032 1.113,3.891 2.131,5.565 l 0.854,1.272 c -0.048,-2.629 0.536,-5.241 1.735,-7.847 1.234,-2.704 3.005,-5.103 5.322,-7.188 3.104,-2.801 6.568,-4.561 10.391,-5.269 3.733,-0.704 7.067,-0.257 10.006,1.328 -1.508,-2.387 -3.461,-4.25 -5.847,-5.589 -2.852,-0.431 -5.792,-0.141 -8.813,0.848"
         id="path545" />
      <path
         inkscape:connector-curvature="0"
         style="fill:#ffffff"
         d="m 936.079,323 c -2.938,-1.585 -6.271,-2.032 -10.006,-1.329 -3.822,0.708 -7.286,2.469 -10.39,5.27 -2.318,2.084 -4.089,4.483 -5.323,7.188 -1.199,2.605 -1.783,5.218 -1.735,7.847 1.171,1.579 2.555,2.902 4.173,3.987 1.628,1.085 3.396,1.857 5.305,2.319 2.158,0.526 4.322,0.62 6.474,0.272 2.175,-0.337 4.206,-1.091 6.108,-2.259 3.921,-2.402 6.425,-5.85 7.517,-10.345 1.094,-4.506 0.442,-8.733 -1.952,-12.683 L 936.079,323 z"
         id="path547" />
      <path
         inkscape:connector-curvature="0"
         style="fill:#e27c9f"
         d="m 959.369,320.833 c -2.808,-2.046 -5.803,-3.403 -9.009,-4.091 -3.108,-0.675 -6.063,-0.659 -8.855,0.065 1.28,-0.901 2.64,-1.618 4.093,-2.136 2.093,-0.747 4.236,-1.063 6.434,-0.941 2.194,0.112 4.284,0.643 6.289,1.599 3.179,1.525 5.636,3.823 7.368,6.905 1.686,3.015 2.392,6.239 2.107,9.671 -0.737,-2.093 -1.811,-4.08 -3.212,-5.96 -1.446,-1.941 -3.185,-3.647 -5.215,-5.112"
         id="path549" />
      <path
         inkscape:connector-curvature="0"
         style="fill:#0077bf"
         d="m 950.36,316.742 c 3.206,0.688 6.201,2.045 9.009,4.091 2.03,1.466 3.769,3.172 5.215,5.112 1.401,1.88 2.475,3.867 3.212,5.96 -0.196,2.062 -0.706,3.983 -1.546,5.756 l -0.717,1.352 c -0.226,-2.621 -1.073,-5.159 -2.535,-7.627 -1.507,-2.562 -3.517,-4.766 -6.036,-6.599 -3.377,-2.468 -7.003,-3.861 -10.88,-4.171 -3.787,-0.315 -7.055,0.473 -9.814,2.353 1.253,-2.529 3.002,-4.584 5.238,-6.163 2.791,-0.723 5.746,-0.739 8.854,-0.064"
         id="path551" />
      <path
         inkscape:connector-curvature="0"
         style="fill:#ffffff"
         d="m 936.268,322.969 c 2.76,-1.88 6.027,-2.668 9.814,-2.354 3.877,0.311 7.503,1.704 10.88,4.172 2.52,1.833 4.529,4.036 6.035,6.599 1.463,2.468 2.311,5.006 2.536,7.626 -1.002,1.692 -2.242,3.152 -3.739,4.396 -1.509,1.247 -3.187,2.199 -5.038,2.853 -2.093,0.747 -4.236,1.064 -6.412,0.941 -2.195,-0.112 -4.296,-0.653 -6.309,-1.618 -4.147,-1.986 -6.992,-5.157 -8.544,-9.515 -1.552,-4.368 -1.34,-8.641 0.634,-12.818 l 0.143,-0.282 z"
         id="path553" />
      <path
         inkscape:connector-curvature="0"
         style="fill:#1c1616"
         d="m 923.745,330.885 c -1.04,1.153 -1.521,2.504 -1.441,4.042 0.081,1.557 0.697,2.84 1.851,3.871 1.154,1.04 2.503,1.521 4.043,1.441 1.556,-0.081 2.839,-0.698 3.869,-1.85 1.04,-1.144 1.523,-2.484 1.442,-4.042 -0.08,-1.537 -0.699,-2.83 -1.852,-3.87 -1.142,-1.041 -2.483,-1.522 -4.042,-1.442 -1.535,0.08 -2.831,0.698 -3.87,1.85"
         id="path555" />
      <path
         inkscape:connector-curvature="0"
         style="fill:#1c1616"
         d="m 949.398,329.537 c 1.151,1.04 1.769,2.333 1.849,3.871 0.082,1.557 -0.401,2.898 -1.44,4.042 -1.04,1.153 -2.334,1.769 -3.87,1.849 -1.56,0.081 -2.9,-0.4 -4.043,-1.44 -1.152,-1.031 -1.771,-2.314 -1.851,-3.872 -0.077,-1.537 0.402,-2.888 1.442,-4.041 1.031,-1.153 2.313,-1.769 3.87,-1.85 1.539,-0.08 2.888,0.4 4.043,1.441"
         id="path557" />
      <path
         inkscape:connector-curvature="0"
         style="fill:#fcdf00"
         d="m 954.231,364.664 c 0.9,-1.366 1.478,-2.839 1.735,-4.406 0.582,-3.621 -0.334,-5.896 -2.745,-6.836 -0.804,-0.316 -1.842,-0.487 -3.099,-0.535 -0.693,-0.037 -1.558,-0.043 -2.606,-0.03 -1.911,-0.096 -4.956,0.226 -9.148,0.944 -0.163,0.029 -0.317,0.055 -0.472,0.084 -0.155,-0.011 -0.312,-0.025 -0.479,-0.036 -4.242,-0.283 -7.304,-0.288 -9.195,0.004 -1.044,0.095 -1.905,0.191 -2.59,0.297 -1.244,0.177 -2.261,0.455 -3.027,0.852 -2.303,1.183 -2.978,3.541 -2.025,7.082 0.418,1.533 1.145,2.937 2.181,4.205 0.592,0.735 1.509,1.731 2.742,3.008 1.334,1.568 3.532,4.597 6.573,9.094 2.802,3.631 5.233,5.265 7.273,4.882 0.018,0 0.037,-0.001 0.065,-0.013 0.03,0.009 0.05,0.008 0.069,0.008 2.068,0.169 4.315,-1.707 6.729,-5.606 2.562,-4.786 4.437,-8.024 5.602,-9.721 1.094,-1.399 1.905,-2.483 2.417,-3.277"
         id="path559" />
      <path
         inkscape:connector-curvature="0"
         style="fill:none;stroke:#f2b800;stroke-width:1.59500003;stroke-miterlimit:10"
         d="m 937.896,353.885 c 0.154,-0.028 0.309,-0.055 0.472,-0.084 4.192,-0.718 7.237,-1.04 9.148,-0.943 1.049,-0.014 1.913,-0.008 2.606,0.029 1.256,0.048 2.295,0.22 3.099,0.535 2.411,0.941 3.327,3.215 2.745,6.836 -0.258,1.567 -0.835,3.04 -1.735,4.406 -0.513,0.794 -1.323,1.878 -2.417,3.277 -1.165,1.696 -3.039,4.934 -5.602,9.72 -2.414,3.899 -4.661,5.775 -6.729,5.605 -0.02,0 -0.039,0.002 -0.069,-0.007 -0.028,0.012 -0.048,0.013 -0.065,0.015 -2.04,0.382 -4.473,-1.253 -7.273,-4.884 -3.041,-4.497 -5.239,-7.524 -6.574,-9.094 -1.232,-1.276 -2.149,-2.272 -2.741,-3.008 -1.036,-1.267 -1.763,-2.672 -2.181,-4.205 -0.953,-3.541 -0.277,-5.897 2.025,-7.082 0.767,-0.396 1.783,-0.675 3.027,-0.851 0.685,-0.107 1.546,-0.203 2.59,-0.297 1.892,-0.292 4.953,-0.287 9.195,-0.004 0.165,0.012 0.324,0.025 0.479,0.036 z"
         id="path561" />
      <path
         inkscape:connector-curvature="0"
         style="fill:#d8272a"
         d="m 938.964,378.616 c 1.853,-0.096 3.426,-1.272 4.727,-3.528 1.303,-2.257 3.423,-7.123 6.362,-14.59 l -11.805,0.498 -11.772,0.719 c 3.69,7.124 6.34,11.764 7.96,13.921 1.493,1.98 3.002,2.977 4.528,2.98"
         id="path563" />
      <path
         inkscape:connector-curvature="0"
         style="fill:#e27c9f"
         d="m 940.554,366.537 c 0.55,-2.698 0.755,-4.561 0.624,-5.577 l -6.398,0.332 c 0.052,0.988 0.562,2.783 1.545,5.382 1.021,2.659 1.683,4.036 2,4.132 0.866,0.232 1.607,-1.199 2.229,-4.269"
         id="path565" />
      <path
         inkscape:connector-curvature="0"
         style="fill:#fcdf00"
         d="m 956.343,359.294 c 1.652,-0.921 2.348,-2.635 2.09,-5.136 -0.274,-2.499 -1.354,-4.161 -3.24,-4.977 -0.956,-0.411 -2.918,-1.155 -5.892,-2.249 -2.738,-1.104 -4.696,-2.162 -5.859,-3.192 -1.832,-1.623 -3.908,-2.449 -6.234,-2.456 -0.067,0.003 -0.128,0.006 -0.187,0.01 -0.027,0.001 -0.048,0.002 -0.069,0.003 l 0.002,0.01 c -2.315,0.237 -4.295,1.263 -5.948,3.076 -1.051,1.144 -2.892,2.398 -5.499,3.78 -2.844,1.394 -4.723,2.336 -5.627,2.844 -1.794,1.006 -2.693,2.771 -2.713,5.285 0.003,2.513 0.872,4.148 2.611,4.893 0.912,0.383 2.267,0.56 4.071,0.536 1.07,-0.017 2.925,-0.063 5.553,-0.129 0.939,0.147 2.396,0.601 4.37,1.363 1.464,0.564 2.979,0.788 4.553,0.689 1.443,-0.045 2.875,-0.435 4.28,-1.145 1.885,-0.962 3.288,-1.564 4.208,-1.809 2.62,-0.204 4.467,-0.348 5.534,-0.442 1.798,-0.163 3.127,-0.476 3.996,-0.954"
         id="path567" />
      <path
         inkscape:connector-curvature="0"
         style="fill:none;stroke:#f2b800;stroke-width:1.56900001;stroke-miterlimit:10"
         d="m 958.433,354.158 c -0.274,-2.5 -1.354,-4.162 -3.24,-4.977 -0.956,-0.412 -2.918,-1.155 -5.892,-2.249 -2.738,-1.105 -4.696,-2.163 -5.859,-3.192 -1.832,-1.624 -3.908,-2.449 -6.234,-2.457 -0.067,0.004 -0.129,0.007 -0.187,0.01 -0.027,0.002 -0.048,0.003 -0.069,0.004 l 0.002,0.009 c -2.315,0.238 -4.294,1.264 -5.948,3.077 -1.052,1.144 -2.891,2.398 -5.499,3.78 -2.844,1.394 -4.723,2.336 -5.627,2.844 -1.794,1.005 -2.693,2.771 -2.713,5.285 0.003,2.512 0.871,4.147 2.611,4.892 0.912,0.384 2.267,0.561 4.071,0.537 1.07,-0.017 2.925,-0.063 5.553,-0.129 0.939,0.147 2.396,0.601 4.37,1.363 1.464,0.563 2.979,0.788 4.553,0.688 1.443,-0.045 2.875,-0.434 4.28,-1.145 1.886,-0.961 3.288,-1.564 4.208,-1.808 2.62,-0.204 4.467,-0.348 5.534,-0.442 1.798,-0.163 3.127,-0.477 3.996,-0.954 1.651,-0.921 2.347,-2.635 2.09,-5.136 z"
         id="path569" />
      <path
         inkscape:connector-curvature="0"
         style="fill:#f2b800"
         d="m 941.694,277.841 c 1.205,-0.279 2.507,-0.169 3.896,0.318 -1.931,0.453 -3.591,2.514 -4.981,6.18 -0.286,0.761 -0.663,1.428 -1.125,1.993 0.126,-0.008 0.255,-0.015 0.382,-0.012 0.864,-0.004 1.604,0.055 2.228,0.17 0.188,-0.353 0.366,-0.725 0.521,-1.115 0.036,-0.081 0.072,-0.163 0.098,-0.242 1.534,-3.752 3.526,-6.044 5.986,-6.869 -3.103,-2.108 -5.685,-2.887 -7.759,-2.338 -2.084,0.52 -3.767,1.981 -5.058,4.376 l 0.003,0.029 c -0.187,0.412 -0.35,0.803 -0.51,1.155 -0.129,-0.395 -0.294,-0.78 -0.483,-1.173 -1.684,-3.683 -1.986,-6.701 -0.9,-9.055 -3.641,0.807 -5.976,2.155 -7.008,4.024 -0.972,1.749 -1.12,3.8 -0.448,6.151 -0.678,-0.192 -1.401,-0.31 -2.169,-0.35 -4.031,-0.292 -6.812,-1.484 -8.345,-3.565 -1.042,3.57 -1.001,6.258 0.142,8.074 0.258,0.409 0.553,0.776 0.874,1.114 0.892,0.906 2.056,1.582 3.492,2.018 0.875,-0.172 2.513,-0.394 4.904,-0.655 v -0.02 l 2.38,-0.124 c -0.464,-0.221 -1.014,-0.418 -1.65,-0.582 -0.647,-0.152 -2,-0.328 -4.062,-0.526 -2.024,-0.219 -3.473,-1.068 -4.345,-2.544 -0.632,-1.047 -0.923,-2.309 -0.884,-3.784 1.021,1.685 3.479,2.639 7.375,2.839 2.028,0.101 3.632,0.903 4.818,2.393 0.599,0.764 0.94,1.513 1.028,2.244 0.119,0.044 0.222,0.087 0.302,0.141 0.253,-0.808 0.208,-1.875 -0.127,-3.203 -0.18,-0.639 -0.678,-1.91 -1.504,-3.821 -0.784,-1.875 -0.742,-3.555 0.134,-5.034 0.624,-1.053 1.579,-1.918 2.89,-2.605 -0.983,1.71 -0.631,4.324 1.073,7.85 0.889,1.828 0.962,3.622 0.228,5.379 -0.111,0.27 -0.246,0.532 -0.38,0.766 0.207,-0.002 0.382,-10e-4 0.547,0.009 1.005,-0.168 1.982,-1.004 2.926,-2.518 0.353,-0.577 0.946,-1.815 1.763,-3.713 0.821,-1.879 2.07,-3.003 3.748,-3.375 l 0,0 z"
         id="path571" />
      <path
         inkscape:connector-curvature="0"
         style="fill:#fcdf00"
         d="m 945.589,278.159 c -1.388,-0.488 -2.689,-0.598 -3.896,-0.318 -1.678,0.371 -2.927,1.496 -3.75,3.374 -0.816,1.899 -1.41,3.136 -1.763,3.716 -0.943,1.511 -1.921,2.347 -2.926,2.516 -0.019,0.002 -0.036,0.003 -0.057,0.004 -0.166,0.018 -0.324,0.026 -0.489,0.025 -0.012,-0.009 -0.012,-0.009 -0.021,-0.009 0.009,-0.01 0.009,-0.02 0.02,-0.03 0.134,-0.233 0.269,-0.495 0.38,-0.766 0.734,-1.757 0.661,-3.55 -0.229,-5.379 -1.703,-3.525 -2.056,-6.139 -1.072,-7.849 -1.311,0.686 -2.266,1.551 -2.89,2.604 -0.876,1.479 -0.918,3.16 -0.134,5.034 0.825,1.912 1.324,3.182 1.504,3.822 0.335,1.327 0.38,2.395 0.127,3.203 -0.076,0.241 -0.183,0.462 -0.311,0.655 0.009,-0.03 0.006,-0.06 0.015,-0.089 l 0.007,-0.639 c -0.011,-0.029 -0.013,-0.048 -0.013,-0.068 -0.088,-0.732 -0.43,-1.48 -1.028,-2.244 -1.187,-1.491 -2.79,-2.291 -4.818,-2.393 -3.896,-0.201 -6.354,-1.154 -7.375,-2.839 -0.039,1.475 0.252,2.736 0.884,3.784 0.872,1.476 2.32,2.324 4.345,2.544 2.062,0.197 3.415,0.373 4.062,0.526 0.637,0.164 1.187,0.361 1.65,0.582 0.664,0.33 1.155,0.716 1.474,1.171 0.149,0.219 0.261,0.458 0.333,0.72 0.013,0.048 0.023,0.096 0.037,0.145 l -0.011,0.049 c 0.039,-0.06 0.076,-0.121 0.11,-0.191 0.088,-0.192 0.167,-0.382 0.226,-0.573 l 1.066,-0.27 c 0.049,-0.022 0.096,-0.045 0.144,-0.067 0.574,-0.294 1.061,-0.751 1.461,-1.39 1.066,1.093 2.463,1.315 4.188,0.676 0.213,-0.08 0.425,-0.169 0.625,-0.267 0.151,-0.077 0.306,-0.164 0.457,-0.25 0.03,-0.011 0.057,-0.033 0.087,-0.044 l 0.54,-0.382 c 0.066,-0.052 0.123,-0.104 0.188,-0.156 0.008,-0.011 0.02,-0.012 0.027,-0.022 0.197,-0.176 0.374,-0.353 0.552,-0.548 0.019,-0.021 0.036,-0.041 0.056,-0.072 0.009,-0.01 0.018,-0.011 0.028,-0.022 0.01,-0.01 0.008,-0.019 0.019,-0.029 0.011,-0.011 0.018,-0.022 0.027,-0.032 0.01,-0.009 0.028,-0.031 0.038,-0.04 0.461,-0.564 0.838,-1.231 1.125,-1.992 1.391,-3.666 3.051,-5.727 4.981,-6.18 l 0,0 z"
         id="path573" />
      <path
         inkscape:connector-curvature="0"
         style="fill:#fcdf00"
         d="m 953.856,373.132 c 0.129,-0.737 0.206,-1.485 0.245,-2.233 -0.1,-0.147 -0.215,-0.275 -0.345,-0.374 -0.401,-0.295 -0.825,-0.562 -1.27,-0.807 -0.235,0.089 -0.55,0.245 -0.944,0.452 -0.64,0.345 -1.112,0.827 -1.404,1.458 v 0.441 0.443 0.432 c -0.247,0.296 -0.482,0.591 -0.721,0.897 -0.106,0.136 -0.207,0.284 -0.304,0.432 -0.049,0.147 -0.091,0.295 -0.117,0.443 -0.021,0.146 -0.043,0.284 -0.069,0.432 -0.03,0.148 -0.059,0.296 -0.11,0.443 -0.146,0.147 -0.293,0.295 -0.44,0.442 -0.148,0.148 -0.296,0.297 -0.443,0.442 -0.05,0.148 -0.098,0.286 -0.148,0.434 -0.048,0.148 -0.1,0.295 -0.147,0.443 -0.285,0.295 -0.599,0.571 -0.925,0.817 -0.483,0.363 -0.711,0.826 -0.69,1.388 0,0.146 0.021,0.285 0.07,0.412 0.107,0.306 0.228,0.61 0.353,0.916 0.07,0.147 0.119,0.285 0.168,0.433 v 0.443 c 0,0.295 0.03,0.579 0.091,0.855 0.037,0.167 0.106,0.314 0.207,0.461 0.146,0.148 0.304,0.268 0.481,0.365 0.864,0.463 1.729,0.493 2.599,0.079 0.046,-0.05 0.086,-0.1 0.136,-0.147 0.147,0.147 0.285,0.305 0.433,0.462 0.257,0.275 0.503,0.562 0.748,0.855 v 0.444 1.762 c 0.011,0.441 0.011,0.875 0,1.317 0.197,0.443 0.422,0.865 0.678,1.26 0.316,0.483 0.433,0.945 0.355,1.387 -0.147,0.297 -0.274,0.602 -0.372,0.906 -0.051,0.129 -0.07,0.265 -0.07,0.412 v 0.443 c 0.246,0.295 0.503,0.57 0.777,0.837 0.424,0.423 0.797,0.876 1.131,1.366 -0.344,0.297 -0.648,0.621 -0.916,0.967 -0.166,0.234 -0.305,0.501 -0.403,0.796 0.052,0.295 0.129,0.571 0.237,0.836 0.129,0.325 0.295,0.63 0.493,0.926 -0.052,0.146 -0.08,0.296 -0.11,0.442 -0.03,0.148 -0.039,0.285 -0.039,0.434 v 0.441 c 0.305,0.601 0.699,1.142 1.17,1.623 1.054,1.055 2.027,2.127 2.943,3.229 0.245,0.147 0.474,0.305 0.698,0.482 2.216,1.752 4.578,2.864 7.087,3.335 0.146,-0.098 0.294,-0.187 0.453,-0.265 0.236,-0.118 0.471,-0.227 0.719,-0.335 0.098,-0.05 0.194,-0.089 0.293,-0.138 0.097,-0.098 0.188,-0.207 0.257,-0.325 0.069,-0.126 0.146,-0.255 0.216,-0.394 0.077,-0.157 0.167,-0.304 0.266,-0.452 0,-0.294 -0.021,-0.59 -0.05,-0.876 -0.019,-0.148 -0.029,-0.305 -0.029,-0.452 0,-0.148 0.029,-0.286 0.079,-0.434 0.284,-0.442 0.561,-0.895 0.806,-1.368 0.149,-0.265 0.267,-0.549 0.365,-0.837 0.009,-0.462 -0.12,-0.885 -0.365,-1.277 -0.283,-0.473 -0.608,-0.924 -0.951,-1.367 0.047,-0.296 0.066,-0.591 0.066,-0.876 0,-0.148 -0.02,-0.295 -0.066,-0.444 -0.052,-0.146 -0.101,-0.294 -0.147,-0.442 0.096,-0.147 0.175,-0.295 0.225,-0.463 0.048,-0.127 0.068,-0.266 0.068,-0.412 v -0.443 c -0.138,-0.709 -0.493,-1.279 -1.072,-1.704 -1.142,-0.844 -2.009,-1.896 -2.599,-3.147 0.048,-0.148 0.069,-0.285 0.069,-0.433 0,-0.146 -0.021,-0.294 -0.069,-0.442 -0.049,-0.148 -0.098,-0.295 -0.147,-0.443 -0.343,-0.295 -0.647,-0.62 -0.915,-0.964 -0.414,-0.551 -0.945,-0.965 -1.584,-1.239 -0.49,-1.151 -1.101,-2.187 -1.841,-3.109 -1.739,-2.214 -3.681,-4.114 -5.805,-5.68 0.068,-0.166 0.127,-0.334 0.188,-0.5 0.597,-1.771 1.033,-3.522 1.295,-5.246 -0.096,-0.146 -0.214,-0.265 -0.352,-0.363 -0.158,-0.117 -0.319,-0.226 -0.486,-0.334"
         id="path575" />
      <path
         inkscape:connector-curvature="0"
         style="fill:#fcdf00"
         d="m 924.889,372.66 c 0,0.049 -0.013,0.068 -0.029,0.079 -0.376,0.138 -0.74,0.294 -1.093,0.472 -0.513,0.246 -0.729,0.649 -0.65,1.21 -0.107,0.659 0,1.271 0.306,1.841 0.296,0.551 0.59,1.111 0.874,1.683 v 0.442 0.878 0.44 c 0.484,0.659 0.691,1.388 0.64,2.204 -0.028,0.581 -0.047,1.17 -0.047,1.761 0.146,0.286 0.264,0.592 0.373,0.896 0.187,0.521 0.502,0.965 0.944,1.309 0.344,0.088 0.678,0.139 1.024,0.139 0.344,0 0.688,-0.051 1.032,-0.139 0.099,-0.099 0.188,-0.206 0.256,-0.324 0.167,-0.276 0.296,-0.572 0.372,-0.876 0.071,-0.285 0.101,-0.571 0.101,-0.857 0.246,-0.245 0.491,-0.491 0.738,-0.738 0.247,-0.245 0.491,-0.491 0.737,-0.737 0.051,-0.148 0.089,-0.295 0.128,-0.442 0.177,-0.709 0.226,-1.438 0.146,-2.194 -0.06,-0.561 -0.06,-1.15 0.009,-1.761 -0.137,-0.709 -0.451,-1.319 -0.943,-1.84 -0.641,-0.66 -1.208,-1.368 -1.69,-2.127 -0.495,-0.245 -0.993,-0.452 -1.507,-0.619 -0.562,-0.189 -1.141,-0.415 -1.721,-0.7"
         id="path577" />
      <path
         inkscape:connector-curvature="0"
         style="fill:#fcdf00"
         d="m 1003.601,374.387 c -0.204,0.165 -0.399,0.328 -0.585,0.487 -0.975,0.851 -1.932,1.812 -2.884,2.897 -1.71,1.556 -3.19,3.062 -4.449,4.521 -2.394,2.846 -3.305,5.135 -2.731,6.865 0.951,2.845 3.447,4.582 7.516,5.217 1.109,0.188 2.801,0.371 5.082,0.566 0.102,0.014 0.187,0.021 0.272,0.027 0.658,0.08 1.265,0.18 1.811,0.293 0.971,0.183 1.776,0.421 2.403,0.701 2.14,0.931 3.328,1.422 3.581,1.477 1.464,0.267 2.193,-0.489 2.187,-2.271 0,-1.105 -0.704,-2.305 -2.1,-3.59 -0.749,-0.689 -1.919,-1.574 -3.533,-2.647 0.93,-0.467 2.381,-1.116 4.351,-1.953 1.623,-0.863 2.707,-2.011 3.251,-3.432 0.39,-1.745 -0.78,-2.891 -3.534,-3.42 -2.408,-0.457 -4.775,-0.377 -7.103,0.248 0.866,-0.36 1.745,-1.415 2.659,-3.162 0.96,-1.786 1.278,-3.116 0.954,-3.998 -0.701,-1.92 -2.414,-2.021 -5.127,-0.31 -0.679,0.439 -1.355,0.933 -2.021,1.484"
         id="path579" />
      <path
         inkscape:connector-curvature="0"
         style="fill:none;stroke:#f2b800;stroke-width:1.54900002;stroke-miterlimit:10"
         d="m 1003.601,374.387 c 0.666,-0.551 1.343,-1.045 2.021,-1.483 2.713,-1.712 4.426,-1.609 5.127,0.311 0.324,0.881 0.01,2.211 -0.954,3.997 -0.914,1.747 -1.793,2.802 -2.659,3.162 2.327,-0.625 4.694,-0.705 7.103,-0.248 2.754,0.529 3.924,1.675 3.534,3.42 -0.544,1.421 -1.628,2.568 -3.251,3.432 -1.97,0.837 -3.421,1.486 -4.351,1.953 1.614,1.073 2.784,1.958 3.533,2.647 1.396,1.285 2.1,2.484 2.1,3.59 0.01,1.782 -0.723,2.538 -2.187,2.271 -0.253,-0.055 -1.441,-0.546 -3.581,-1.477 -0.627,-0.28 -1.433,-0.519 -2.403,-0.701 -0.546,-0.113 -1.152,-0.213 -1.811,-0.293 -0.086,-0.006 -0.171,-0.014 -0.272,-0.027 -2.281,-0.195 -3.973,-0.378 -5.082,-0.566 -4.068,-0.635 -6.564,-2.372 -7.516,-5.217 -0.573,-1.73 0.338,-4.02 2.731,-6.865 1.259,-1.458 2.739,-2.965 4.449,-4.521 0.952,-1.085 1.909,-2.046 2.884,-2.897 0.185,-0.16 0.38,-0.323 0.585,-0.488 z"
         id="path581" />
    </g>
  </g>
</svg>
