<?xml version="1.0" encoding="UTF-8" standalone="no"?>
<!-- Created with Inkscape (http://www.inkscape.org/) -->

<svg
   xmlns:dc="http://purl.org/dc/elements/1.1/"
   xmlns:cc="http://creativecommons.org/ns#"
   xmlns:rdf="http://www.w3.org/1999/02/22-rdf-syntax-ns#"
   xmlns:svg="http://www.w3.org/2000/svg"
   xmlns="http://www.w3.org/2000/svg"
   xmlns:sodipodi="http://sodipodi.sourceforge.net/DTD/sodipodi-0.dtd"
   xmlns:inkscape="http://www.inkscape.org/namespaces/inkscape"
   width="165.21875"
   height="242.00285"
   id="svg5696"
   version="1.1"
   inkscape:version="0.48.4 r9939"
   sodipodi:docname="big_bird3.svg">
  <defs
     id="defs5698" />
  <sodipodi:namedview
     id="base"
     pagecolor="#ffffff"
     bordercolor="#666666"
     borderopacity="1.0"
     inkscape:pageopacity="0.0"
     inkscape:pageshadow="2"
     inkscape:zoom="0.77472527"
     inkscape:cx="-48.254301"
     inkscape:cy="84.1978"
     inkscape:current-layer="layer1"
     inkscape:document-units="px"
     showgrid="false"
     inkscape:window-width="942"
     inkscape:window-height="591"
     inkscape:window-x="413"
     inkscape:window-y="97"
     inkscape:window-maximized="0"
     fit-margin-top="0"
     fit-margin-left="0"
     fit-margin-right="0"
     fit-margin-bottom="0" />
  <metadata
     id="metadata5701">
    <rdf:RDF>
      <cc:Work
         rdf:about="">
        <dc:format>image/svg+xml</dc:format>
        <dc:type
           rdf:resource="http://purl.org/dc/dcmitype/StillImage" />
        <dc:title></dc:title>
      </cc:Work>
    </rdf:RDF>
  </metadata>
  <g
     id="layer1"
     inkscape:label="Layer 1"
     inkscape:groupmode="layer"
     transform="translate(-279.88408,72.698697)">
    <g
       transform="translate(-552.02217,-93.789595)"
       id="g1155">
      <path
         inkscape:connector-curvature="0"
         style="fill:#eddc00"
         d="m 932.875,160.538 c -1.001,-1.051 -1.598,-2.614 -1.793,-4.69 -0.206,-2.183 0.125,-4.365 0.998,-6.527 1.009,-2.476 2.592,-4.527 4.75,-6.149 2.521,-1.896 5.669,-3.077 9.437,-3.557 0.249,-1.419 1.303,-3.375 3.163,-5.881 1.986,-2.667 4.238,-5.037 6.767,-7.107 2.931,-2.412 5.697,-3.932 8.31,-4.565 3.093,-0.756 5.713,-0.191 7.864,1.694 3.018,2.637 3.215,6.474 0.599,11.508 -0.955,1.835 -2.165,3.575 -3.622,5.221 -1.309,1.47 -2.375,2.4 -3.202,2.788 2.646,1.861 3.717,4.372 3.213,7.517 -0.43,2.741 -1.933,5.509 -4.506,8.294 -2.454,2.678 -5.114,4.576 -7.986,5.702 -3.092,1.221 -5.524,1.129 -7.293,-0.278 0.83,1.562 0.627,3.271 -0.616,5.125 -1.159,1.738 -2.872,3.136 -5.146,4.171 -2.386,1.103 -4.663,1.451 -6.836,1.038 -2.499,-0.458 -4.397,-1.886 -5.699,-4.276 -0.463,-0.848 -0.224,-2.577 0.716,-5.194 0.953,-2.619 1.221,-4.312 0.803,-5.082 l 0.079,0.248 z"
         id="path1157" />
      <path
         inkscape:connector-curvature="0"
         style="fill:none;stroke:#f2b800;stroke-width:2.45819998;stroke-miterlimit:10"
         d="m 932.875,160.538 -0.082,-0.25 c 0.418,0.77 0.15,2.463 -0.803,5.082 -0.939,2.617 -1.179,4.346 -0.716,5.194 1.302,2.39 3.2,3.818 5.699,4.276 2.173,0.413 4.45,0.065 6.836,-1.038 2.274,-1.036 3.987,-2.434 5.146,-4.171 1.243,-1.854 1.446,-3.562 0.616,-5.125 1.769,1.408 4.201,1.5 7.293,0.278 2.872,-1.125 5.532,-3.023 7.986,-5.702 2.573,-2.785 4.076,-5.553 4.506,-8.294 0.504,-3.145 -0.567,-5.656 -3.213,-7.517 0.827,-0.388 1.894,-1.318 3.202,-2.788 1.457,-1.646 2.667,-3.386 3.622,-5.221 2.616,-5.035 2.419,-8.872 -0.599,-11.508 -2.151,-1.885 -4.771,-2.45 -7.864,-1.694 -2.612,0.633 -5.379,2.153 -8.31,4.565 -2.528,2.071 -4.78,4.44 -6.767,7.107 -1.86,2.506 -2.914,4.462 -3.163,5.881 -3.768,0.48 -6.916,1.661 -9.437,3.557 -2.158,1.622 -3.741,3.673 -4.75,6.149 -0.873,2.162 -1.204,4.344 -0.998,6.527 0.198,2.078 0.795,3.641 1.796,4.692 z"
         id="path1159" />
      <path
         inkscape:connector-curvature="0"
         style="fill:#fcdf00"
         d="m 932.875,160.538 c -1.001,-1.051 -1.598,-2.614 -1.793,-4.69 -0.206,-2.183 0.125,-4.365 0.998,-6.527 1.009,-2.476 2.592,-4.527 4.75,-6.149 2.521,-1.896 5.669,-3.077 9.437,-3.557 0.249,-1.419 1.303,-3.375 3.163,-5.881 1.986,-2.667 4.238,-5.037 6.767,-7.107 2.931,-2.412 5.697,-3.932 8.31,-4.565 3.093,-0.756 5.713,-0.191 7.864,1.694 3.018,2.637 3.215,6.474 0.599,11.508 -0.955,1.835 -2.165,3.575 -3.622,5.221 -1.309,1.47 -2.375,2.4 -3.202,2.788 2.646,1.861 3.717,4.372 3.213,7.517 -0.43,2.741 -1.933,5.509 -4.506,8.294 -2.454,2.678 -5.114,4.576 -7.986,5.702 -3.092,1.221 -5.524,1.129 -7.293,-0.278 0.83,1.562 0.627,3.271 -0.616,5.125 -1.159,1.738 -2.872,3.136 -5.146,4.171 -2.386,1.103 -4.663,1.451 -6.836,1.038 -2.499,-0.458 -4.397,-1.886 -5.699,-4.276 -0.463,-0.848 -0.224,-2.577 0.716,-5.194 0.953,-2.619 1.221,-4.312 0.803,-5.082 l 0.079,0.248 z"
         id="path1161" />
      <path
         inkscape:connector-curvature="0"
         style="fill:#e52025"
         d="m 944.021,193.81 c -0.207,0 -0.389,0.008 -0.53,0.033 l -0.038,0.032 0.007,0.048 c 0.468,0.578 1.12,1.369 1.96,2.364 0.699,0.88 1.332,1.787 1.887,2.709 0.32,0.543 0.585,1.12 0.773,1.723 0.1,0.312 0.197,0.643 0.306,0.997 -11.129,5.326 -20.42,7.948 -27.875,7.858 -2.971,-0.042 -5.384,-0.544 -7.237,-1.5 -1.573,-0.833 -2.545,-1.913 -2.9,-3.253 -0.33,-1.301 -0.033,-2.645 0.897,-4.029 1.045,-1.547 2.693,-2.891 4.927,-4.027 5.114,-2.595 11.777,-3.574 19.973,-2.933 l 1.046,0.074 h 0.049 c 0.009,0.009 0.025,0.017 0.043,0.026 h 0.016 c 0.058,0.007 0.123,0.007 0.19,0.016 h 0.051 c 0.037,0 0.22,-0.025 0.55,-0.074 -0.107,-0.14 -0.315,-0.328 -0.633,-0.568 -0.39,-0.296 -0.733,-0.479 -1.021,-0.552 -0.529,-0.141 -0.983,-0.238 -1.353,-0.305 -7.948,-0.485 -14.455,0.569 -19.505,3.155 -2.471,1.25 -4.274,2.735 -5.42,4.456 -1.161,1.738 -1.521,3.427 -1.078,5.076 v 0.007 c 0.402,1.688 1.596,3.056 3.565,4.093 h 0.01 c 2.001,1.055 4.604,1.607 7.815,1.657 l 0.009,-0.01 c 7.198,0.105 16.079,-2.272 26.638,-7.14 l 2.627,-1.287 c 0.1,-0.362 0.084,-0.855 -0.052,-1.482 -0.138,-0.668 -0.386,-1.3 -0.739,-1.895 -0.668,-1.161 -1.351,-2.216 -2.051,-3.181 -0.833,-1.135 -1.425,-1.768 -1.795,-1.9 -0.331,-0.123 -0.702,-0.181 -1.112,-0.188"
         id="path1163" />
      <path
         inkscape:connector-curvature="0"
         style="fill:#e86501"
         d="m 948.386,201.717 c -0.108,-0.355 -0.206,-0.685 -0.306,-0.997 -0.188,-0.604 -0.453,-1.181 -0.773,-1.723 -0.555,-0.923 -1.187,-1.83 -1.887,-2.71 -0.84,-0.995 -1.492,-1.786 -1.961,-2.363 l -0.006,-0.049 -4.663,-0.108 c -0.272,0.043 -0.496,0.083 -0.676,0.108 -0.329,0.049 -0.512,0.074 -0.55,0.074 h -0.051 c -0.067,-0.007 -0.133,-0.007 -0.19,-0.017 h -0.016 c -0.034,-0.008 -0.066,-0.017 -0.092,-0.025 l -1.046,-0.074 c -8.195,-0.641 -14.858,0.339 -19.973,2.934 -2.233,1.135 -3.882,2.48 -4.927,4.026 -0.931,1.384 -1.228,2.728 -0.897,4.029 0.355,1.34 1.327,2.42 2.9,3.253 1.854,0.955 4.267,1.458 7.237,1.5 7.457,0.09 16.748,-2.532 27.877,-7.858"
         id="path1165" />
      <path
         inkscape:connector-curvature="0"
         style="fill:#e52025"
         d="m 915.806,203.497 c -0.668,1.173 -0.791,2.404 -0.388,3.691 0.408,1.293 1.211,2.219 2.421,2.778 1.36,0.634 2.926,0.632 4.707,0.009 l -0.104,-0.034 c -1.52,0.244 -2.805,0.028 -3.851,-0.659 -0.928,-0.606 -1.532,-1.479 -1.814,-2.626 -0.276,-1.111 -0.18,-2.202 0.282,-3.295 0.488,-1.147 1.306,-2.034 2.462,-2.649 -1.747,0.535 -2.99,1.465 -3.715,2.785"
         id="path1167" />
      <path
         inkscape:connector-curvature="0"
         style="fill:#e86501"
         d="m 930.452,177.837 c -0.411,-1.154 -1.499,-2.271 -3.261,-3.352 -1.318,-0.809 -2.576,-1.367 -3.779,-1.681 -0.183,0.026 -0.363,0.043 -0.534,0.066 -2.811,0.347 -4.968,0.717 -6.467,1.12 -3.222,0.875 -6.591,2.365 -10.099,4.48 -1.145,0.693 -2.225,1.44 -3.253,2.25 l 7.79,0.889 c 0.471,0.208 0.817,0.527 1.055,0.973 0.223,0.411 0.305,0.857 0.247,1.326 -0.024,0.257 -0.081,0.485 -0.175,0.71 2.16,-1.31 5.116,-2.571 8.867,-3.773 2.172,-0.668 3.787,-1.161 4.85,-1.499 1.622,-0.512 2.997,-0.989 4.117,-1.434 0.163,-0.064 0.323,-0.131 0.478,-0.197 -0.154,0.066 -0.314,0.133 -0.478,0.197 0.142,0.141 0.225,0.216 0.23,0.216 0.173,0 0.282,-0.034 0.329,-0.097 0.027,-0.085 0.058,-0.152 0.083,-0.194"
         id="path1169" />
      <path
         inkscape:connector-curvature="0"
         style="fill:#e27c9f"
         d="m 937.018,191.222 c 0.011,-0.19 0,-0.386 -0.041,-0.584 -0.089,-0.469 -0.304,-0.872 -0.625,-1.203 -0.356,-0.354 -0.783,-0.561 -1.283,-0.618 l -5.102,0.923 -3.418,0.619 c -0.716,0.14 -1.275,0.468 -1.68,0.972 -0.369,0.468 -0.534,0.979 -0.477,1.54 0.031,0.322 0.132,0.601 0.296,0.839 0.122,0.191 0.296,0.364 0.501,0.503 0.528,0.372 1.235,0.503 2.126,0.403 l 0.354,-0.066 8.171,-1.482 c 0.469,-0.246 0.798,-0.609 0.989,-1.08 0.106,-0.247 0.173,-0.504 0.189,-0.766"
         id="path1171" />
      <path
         inkscape:connector-curvature="0"
         style="fill:#e86501"
         d="m 937.143,191.254 c -0.042,-0.007 -0.083,-0.023 -0.125,-0.032 -0.016,0.263 -0.083,0.519 -0.188,0.765 -0.191,0.471 -0.521,0.833 -0.989,1.08 l -8.171,1.482 c 1.095,0.569 1.919,0.947 2.455,1.154 1.521,0.584 3.112,0.874 4.777,0.874 2.691,0 4.975,-0.373 6.844,-1.105 0.691,-0.271 1.254,-0.559 1.673,-0.873 0.36,-0.271 0.544,-0.494 0.544,-0.658 0,-0.092 -0.01,-0.157 -0.019,-0.206 -0.074,-0.043 -0.147,-0.084 -0.221,-0.125 h -0.587 l 0.144,-0.231 c -1.493,-0.733 -3.536,-1.441 -6.137,-2.125"
         id="path1173" />
      <path
         inkscape:connector-curvature="0"
         style="fill:#e86501"
         d="m 926.549,190.358 3.418,-0.619 c -1.359,-0.23 -2.775,-0.445 -4.249,-0.633 -3.436,-0.446 -6.654,-0.726 -9.652,-0.833 0.105,0.428 0.073,0.856 -0.099,1.284 l -4.846,6.006 c 2.133,-0.223 5.044,-0.619 8.741,-1.17 1.804,-0.272 3.409,-0.493 4.826,-0.684 -0.164,-0.239 -0.264,-0.518 -0.295,-0.839 -0.059,-0.56 0.107,-1.071 0.476,-1.54 0.404,-0.503 0.964,-0.832 1.68,-0.972"
         id="path1175" />
      <path
         inkscape:connector-curvature="0"
         style="fill:#e86501"
         d="m 943.724,193.611 c 0.073,0.041 0.146,0.082 0.221,0.125 -0.006,-0.043 -0.022,-0.075 -0.039,-0.084 l -0.067,-0.041 h -0.115 z"
         id="path1177" />
      <path
         inkscape:connector-curvature="0"
         style="fill:#e86501"
         d="m 923.412,172.805 c -0.164,-0.041 -0.33,-0.082 -0.494,-0.116 l -0.04,0.182 c 0.171,-0.022 0.351,-0.04 0.534,-0.066"
         id="path1179" />
      <path
         inkscape:connector-curvature="0"
         style="fill:#e27c9f"
         d="m 916.065,188.274 c -0.01,-0.057 -0.024,-0.115 -0.052,-0.173 -0.131,-0.446 -0.396,-0.824 -0.781,-1.13 -0.371,-0.295 -0.792,-0.46 -1.261,-0.492 -0.503,-0.042 -0.956,0.073 -1.376,0.362 l -1.135,1.407 -4.308,5.346 c -0.454,0.569 -0.669,1.18 -0.645,1.83 0.009,0.156 0.032,0.312 0.067,0.454 0.091,0.403 0.288,0.74 0.583,1.021 0.414,0.395 0.907,0.559 1.476,0.502 0.651,-0.065 1.277,-0.429 1.887,-1.087 l 0.6,-0.749 4.846,-6.004 c 0.173,-0.432 0.205,-0.858 0.099,-1.287"
         id="path1181" />
      <path
         inkscape:connector-curvature="0"
         style="fill:#e27c9f"
         d="m 900.357,181.059 c -0.486,0.338 -0.792,0.792 -0.906,1.343 -0.092,0.485 -0.009,0.932 0.254,1.333 0.042,0.06 0.083,0.117 0.124,0.173 0.397,0.512 1.038,0.849 1.919,1.014 l 8.31,0.956 0.306,0.031 c 0.521,-0.099 0.939,-0.344 1.263,-0.74 0.146,-0.173 0.261,-0.354 0.35,-0.551 0.095,-0.225 0.151,-0.453 0.176,-0.71 0.058,-0.469 -0.024,-0.914 -0.247,-1.326 -0.237,-0.445 -0.584,-0.764 -1.055,-0.973 l -7.79,-0.889 -0.816,-0.099 c -0.718,-0.074 -1.352,0.075 -1.888,0.438"
         id="path1183" />
      <path
         inkscape:connector-curvature="0"
         style="fill:#e86501"
         d="m 899.829,183.908 c -0.041,-0.056 -0.082,-0.114 -0.124,-0.173 -0.807,0.833 -1.563,1.714 -2.279,2.637 -1.047,1.35 -1.787,2.56 -2.226,3.631 -0.436,1.08 -0.493,1.845 -0.171,2.298 1.184,1.623 3.129,2.693 5.838,3.211 1.573,0.298 3.478,0.421 5.709,0.363 -0.035,-0.141 -0.058,-0.296 -0.067,-0.453 -0.024,-0.65 0.19,-1.259 0.645,-1.829 l 4.308,-5.346 c -2.424,0.084 -4.276,0.332 -5.561,0.742 1.441,-1.161 2.824,-2.199 4.157,-3.112 l -8.31,-0.956 c -0.881,-0.164 -1.521,-0.502 -1.919,-1.013"
         id="path1185" />
      <path
         inkscape:connector-curvature="0"
         style="fill:none;stroke:#e52025;stroke-width:1.31780005;stroke-linecap:round;stroke-linejoin:round;stroke-miterlimit:10"
         d="m 930.289,177.714 c -0.155,0.065 -0.315,0.132 -0.479,0.197 -1.12,0.445 -2.495,0.922 -4.117,1.435 -1.062,0.336 -2.678,0.831 -4.85,1.498 -3.751,1.204 -6.707,2.464 -8.868,3.774 -0.089,0.197 -0.203,0.377 -0.35,0.551 -0.323,0.396 -0.741,0.642 -1.263,0.74 l -0.306,-0.031 c -1.333,0.913 -2.716,1.952 -4.158,3.113 1.285,-0.41 3.138,-0.658 5.562,-0.742 l 1.135,-1.409 c 0.42,-0.288 0.873,-0.403 1.376,-0.361 0.468,0.033 0.89,0.196 1.261,0.493 0.386,0.306 0.65,0.683 0.781,1.13 0.027,0.058 0.042,0.115 0.052,0.173 2.997,0.106 6.217,0.387 9.652,0.832 1.474,0.19 2.89,0.403 4.249,0.633 l 5.102,-0.923 c 0.5,0.057 0.927,0.265 1.283,0.619 0.321,0.33 0.536,0.733 0.625,1.203 0.041,0.197 0.052,0.393 0.041,0.583 0.042,0.01 0.083,0.026 0.125,0.033 2.602,0.683 4.645,1.391 6.138,2.125 0.152,0.075 0.303,0.156 0.443,0.231 0.073,0.04 0.146,0.081 0.221,0.124 0.315,0.181 0.594,0.363 0.851,0.542 M 923.7,172.772 c -0.1,0.007 -0.199,0.024 -0.288,0.033 -0.183,0.025 -0.363,0.042 -0.534,0.065 -2.811,0.348 -4.968,0.718 -6.467,1.12 -3.222,0.874 -6.591,2.366 -10.099,4.48 -1.145,0.694 -2.225,1.441 -3.253,2.25 l -0.816,-0.1 c -0.716,-0.075 -1.351,0.075 -1.886,0.437 -0.486,0.338 -0.792,0.792 -0.906,1.343 -0.092,0.484 -0.009,0.932 0.254,1.333 -0.807,0.833 -1.563,1.713 -2.279,2.636 -1.047,1.351 -1.787,2.562 -2.226,3.633 -0.436,1.078 -0.493,1.844 -0.171,2.298 1.184,1.621 3.129,2.692 5.838,3.21 1.573,0.297 3.478,0.421 5.708,0.364 0.092,0.403 0.29,0.74 0.584,1.021 0.414,0.396 0.907,0.559 1.476,0.503 0.651,-0.065 1.277,-0.43 1.887,-1.087 l 0.6,-0.748 c 2.133,-0.225 5.043,-0.621 8.74,-1.172 1.805,-0.272 3.41,-0.492 4.827,-0.684"
         id="path1187" />
      <path
         inkscape:connector-curvature="0"
         style="fill:#fcdf00"
         d="m 926.654,117.399 c -0.124,-0.024 -0.237,-0.053 -0.358,-0.092 -0.046,-0.056 -0.104,-0.112 -0.151,-0.166 -0.054,-0.061 -0.108,-0.122 -0.153,-0.177 -1.641,-0.732 -3.353,-1.35 -5.14,-1.843 -0.66,-0.184 -1.325,-0.372 -1.985,-0.577 -0.047,-0.056 -0.101,-0.117 -0.158,-0.162 -0.054,-0.05 -0.106,-0.089 -0.155,-0.127 -0.514,-0.104 -0.979,-0.331 -1.39,-0.658 -0.144,-0.116 -0.312,-0.196 -0.498,-0.224 -0.027,0.158 -0.055,0.316 -0.088,0.479 -0.645,3.173 -1.954,5.994 -3.922,8.455 -5.07,6.36 -11.831,10.174 -20.292,11.434 -6.33,0.946 -9.352,4.433 -9.047,10.471 0.079,1.545 0.542,2.963 1.417,4.254 3.793,5.658 9.358,7.511 16.692,5.576 8,-2.107 14.013,-6.769 18.03,-13.99 3.71,-6.671 6.194,-13.857 7.45,-21.562 l -0.111,-0.035 c 0.043,-0.032 0.084,-0.052 0.128,-0.063 0.01,-0.043 0.011,-0.082 0.018,-0.125 -0.007,0.043 -0.008,0.082 -0.018,0.125 0.127,-0.064 0.263,-0.102 0.408,-0.104 0.095,-0.004 0.14,-0.085 0.14,-0.25 -0.049,-0.077 -0.099,-0.144 -0.146,-0.223 -0.044,-0.059 -0.099,-0.12 -0.145,-0.175 -0.155,-0.117 -0.335,-0.195 -0.526,-0.241"
         id="path1189" />
      <path
         inkscape:connector-curvature="0"
         style="fill:#fcdf00"
         d="m 916.645,113.36 c -0.127,0.168 -0.148,0.332 -0.067,0.491 0.033,-0.163 0.061,-0.322 0.088,-0.479 -0.006,-0.007 -0.012,-0.011 -0.021,-0.012"
         id="path1191" />
      <path
         inkscape:connector-curvature="0"
         style="fill:none;stroke:#f2b800;stroke-width:1.2421;stroke-linecap:round;stroke-linejoin:round;stroke-miterlimit:10"
         d="m 926.94,118.267 c -0.007,0.043 -0.008,0.082 -0.018,0.125 -0.006,0.028 -0.015,0.06 -0.017,0.098 -1.256,7.704 -3.74,14.89 -7.449,21.562 -4.019,7.221 -10.031,11.882 -18.031,13.99 -7.334,1.936 -12.899,0.082 -16.691,-5.576 -0.876,-1.291 -1.34,-2.709 -1.418,-4.254 -0.305,-6.038 2.717,-9.525 9.047,-10.471 8.461,-1.26 15.222,-5.074 20.292,-11.434 1.968,-2.462 3.277,-5.282 3.922,-8.455 0.033,-0.163 0.061,-0.321 0.089,-0.479 0.057,-0.329 0.108,-0.651 0.15,-0.969"
         id="path1193" />
      <path
         inkscape:connector-curvature="0"
         style="fill:#fcdf00"
         d="m 899.039,143.452 c 0.268,0.716 0.38,1.274 0.334,1.685 -0.307,2.437 -2.049,4.24 -5.222,5.405 -0.864,0.318 -2.199,0.742 -4.001,1.264 -1.547,0.493 -2.7,1.004 -3.451,1.534 -1.574,1.097 -2.458,1.686 -2.65,1.765 -1.129,0.441 -1.838,-0.048 -2.117,-1.481 -0.174,-0.883 0.193,-1.96 1.111,-3.225 0.494,-0.676 1.309,-1.572 2.431,-2.694 -0.18,-0.052 -0.576,0.097 -1.168,0.439 -0.145,0.082 -0.747,0.457 -1.816,1.126 -1.672,1.048 -2.658,1.421 -2.945,1.121 -1.183,-1.222 -0.951,-2.861 0.691,-4.918 0.615,-0.771 1.247,-1.388 1.882,-1.837 0.862,-0.608 1.904,-1.055 3.117,-1.345 -0.3,0.046 -0.845,0.185 -1.621,0.417 -0.81,0.229 -1.396,0.378 -1.759,0.443 -1.302,0.236 -1.862,-0.128 -1.674,-1.085 0.097,-0.479 0.373,-1.021 0.845,-1.62 0.561,-0.712 1.258,-1.332 2.106,-1.853 2.274,-1.398 5.053,-1.798 8.326,-1.209 2.568,0.46 4.644,1.698 6.222,3.718 0.59,0.755 1.047,1.533 1.359,2.35"
         id="path1195" />
      <path
         inkscape:connector-curvature="0"
         style="fill:none;stroke:#f2b800;stroke-width:1.27079999;stroke-linecap:round;stroke-linejoin:round;stroke-miterlimit:10"
         d="m 899.039,143.452 c -0.312,-0.817 -0.77,-1.594 -1.359,-2.352 -1.578,-2.02 -3.653,-3.257 -6.222,-3.718 -3.273,-0.588 -6.052,-0.188 -8.326,1.209 -0.849,0.521 -1.546,1.14 -2.106,1.853 -0.472,0.599 -0.748,1.141 -0.845,1.62 -0.188,0.957 0.372,1.321 1.674,1.085 0.363,-0.065 0.949,-0.215 1.759,-0.443 0.776,-0.231 1.321,-0.37 1.621,-0.417 -1.213,0.29 -2.255,0.737 -3.117,1.345 -0.635,0.449 -1.267,1.066 -1.882,1.837 -1.643,2.058 -1.874,3.696 -0.691,4.918 0.287,0.301 1.273,-0.072 2.945,-1.121 1.069,-0.669 1.672,-1.044 1.816,-1.126 0.592,-0.342 0.988,-0.492 1.168,-0.439 -1.122,1.122 -1.937,2.018 -2.431,2.694 -0.918,1.265 -1.285,2.342 -1.111,3.225 0.279,1.434 0.988,1.922 2.117,1.481 0.192,-0.079 1.076,-0.668 2.65,-1.765 0.751,-0.529 1.904,-1.041 3.451,-1.534 1.802,-0.522 3.137,-0.945 4.001,-1.264 3.173,-1.166 4.915,-2.968 5.222,-5.405 0.046,-0.409 -0.066,-0.968 -0.334,-1.683 z"
         id="path1197" />
      <path
         inkscape:connector-curvature="0"
         style="fill:#120d0d"
         d="m 832.678,232.239 c 0,-8.304 2.942,-15.395 8.826,-21.278 5.877,-5.875 12.958,-8.809 21.266,-8.809 8.295,0 15.39,2.934 21.274,8.809 5.876,5.884 8.807,12.975 8.807,21.27 0,8.301 -2.931,15.386 -8.807,21.259 -5.885,5.884 -12.979,8.825 -21.274,8.825 -8.308,0 -15.389,-2.941 -21.266,-8.825 -5.884,-5.874 -8.826,-12.959 -8.826,-21.251 m 15.786,-15.61 c -4.124,4.125 -6.184,9.088 -6.184,14.905 0,5.814 2.06,10.779 6.184,14.891 4.113,4.124 9.09,6.186 14.903,6.186 5.819,0 10.785,-2.062 14.898,-6.186 4.111,-4.112 6.175,-9.077 6.175,-14.891 0,-5.817 -2.063,-10.781 -6.175,-14.905 -4.113,-4.112 -9.079,-6.173 -14.898,-6.173 -5.813,0 -10.79,2.061 -14.903,6.173"
         id="path1199" />
      <path
         inkscape:connector-curvature="0"
         style="fill:#92a79b"
         d="m 842.28,231.534 c 0,-5.817 2.06,-10.78 6.184,-14.905 4.114,-4.112 9.091,-6.173 14.903,-6.173 5.819,0 10.786,2.061 14.898,6.173 4.111,4.125 6.175,9.088 6.175,14.905 0,5.814 -2.063,10.779 -6.175,14.891 -4.112,4.124 -9.079,6.186 -14.898,6.186 -5.812,0 -10.789,-2.062 -14.903,-6.186 -4.124,-4.112 -6.184,-9.077 -6.184,-14.891 m 18.176,-12.853 c -0.261,-1.324 -0.542,-2.147 -0.853,-2.45 -0.445,-0.416 -1.333,-0.503 -2.682,-0.28 -1.674,0.28 -3.288,0.958 -4.839,2.041 -0.695,0.497 -1.315,1.018 -1.847,1.57 -0.098,0.095 -0.184,0.204 -0.263,0.309 -0.88,1.016 -1.49,2.188 -1.828,3.514 -0.312,1.123 -0.376,2.108 -0.215,2.96 0.166,0.823 0.505,1.403 1.017,1.723 0.049,0.03 0.106,0.058 0.166,0.088 0.134,0.047 0.27,0.087 0.396,0.125 2.448,0.669 4.896,0.755 7.356,0.271 1.268,-0.224 2.082,-0.474 2.438,-0.747 0.515,-0.396 0.951,-1.286 1.307,-2.669 0.263,-0.988 0.35,-2.111 0.282,-3.359 -0.047,-0.89 -0.193,-1.925 -0.435,-3.096 m -0.339,19.334 c -0.223,-1.267 -0.476,-2.08 -0.744,-2.439 -0.397,-0.511 -1.289,-0.948 -2.674,-1.306 -0.983,-0.26 -2.108,-0.349 -3.357,-0.279 -0.892,0.048 -1.926,0.193 -3.099,0.435 -1.326,0.262 -2.146,0.542 -2.447,0.851 -0.415,0.445 -0.505,1.336 -0.278,2.68 0.278,1.674 0.957,3.292 2.04,4.84 0.495,0.698 1.017,1.316 1.567,1.847 0.099,0.099 0.203,0.185 0.31,0.263 1.016,0.88 2.188,1.49 3.516,1.828 1.122,0.31 2.108,0.378 2.959,0.213 0.823,-0.165 1.404,-0.503 1.722,-1.015 0.03,-0.05 0.06,-0.109 0.089,-0.166 0.048,-0.137 0.086,-0.27 0.126,-0.396 0.666,-2.45 0.753,-4.896 0.27,-7.356 m 15.206,-19.343 c -0.098,-0.097 -0.202,-0.183 -0.311,-0.262 -1.015,-0.88 -2.188,-1.491 -3.513,-1.83 -1.123,-0.31 -2.11,-0.376 -2.96,-0.213 -0.824,0.167 -1.407,0.504 -1.726,1.017 -0.028,0.048 -0.058,0.107 -0.087,0.167 -0.051,0.134 -0.087,0.269 -0.125,0.396 -0.667,2.447 -0.755,4.896 -0.271,7.355 0.222,1.267 0.475,2.078 0.745,2.438 0.397,0.511 1.289,0.947 2.671,1.306 0.985,0.26 2.108,0.347 3.359,0.281 0.892,-0.049 1.927,-0.194 3.098,-0.437 1.324,-0.261 2.147,-0.541 2.449,-0.853 0.414,-0.444 0.501,-1.335 0.277,-2.679 -0.277,-1.675 -0.956,-3.292 -2.041,-4.84 -0.492,-0.696 -1.013,-1.315 -1.565,-1.846 m 2.981,21.26 c 0.31,-1.124 0.378,-2.11 0.215,-2.962 -0.167,-0.821 -0.505,-1.402 -1.018,-1.723 -0.049,-0.028 -0.105,-0.056 -0.166,-0.085 -0.132,-0.05 -0.269,-0.087 -0.396,-0.127 -2.449,-0.667 -4.897,-0.756 -7.356,-0.271 -1.268,0.223 -2.081,0.474 -2.439,0.745 -0.511,0.395 -0.948,1.288 -1.305,2.671 -0.264,0.987 -0.35,2.109 -0.28,3.359 0.044,0.889 0.189,1.925 0.433,3.094 0.262,1.326 0.543,2.148 0.853,2.447 0.445,0.417 1.338,0.504 2.683,0.283 1.673,-0.283 3.29,-0.958 4.837,-2.042 0.697,-0.494 1.318,-1.017 1.849,-1.569 0.097,-0.095 0.185,-0.201 0.262,-0.307 0.881,-1.015 1.491,-2.186 1.828,-3.513"
         id="path1201" />
      <path
         inkscape:connector-curvature="0"
         style="fill:none;stroke:#4a4646;stroke-width:1.54830003;stroke-linecap:round;stroke-linejoin:round;stroke-miterlimit:10"
         d="m 859.604,216.232 c -0.445,-0.416 -1.333,-0.503 -2.682,-0.281 -1.674,0.281 -3.288,0.959 -4.839,2.042 -0.695,0.496 -1.315,1.018 -1.847,1.57 -0.098,0.096 -0.184,0.205 -0.263,0.308 -0.88,1.018 -1.49,2.188 -1.828,3.515 -0.312,1.122 -0.377,2.109 -0.215,2.96 0.166,0.822 0.505,1.403 1.017,1.723 0.049,0.028 0.106,0.058 0.166,0.088 0.134,0.046 0.27,0.086 0.396,0.125 2.448,0.668 4.896,0.754 7.357,0.27 1.267,-0.224 2.081,-0.474 2.437,-0.747 0.515,-0.396 0.951,-1.286 1.307,-2.669 0.263,-0.987 0.35,-2.111 0.282,-3.358 -0.048,-0.891 -0.193,-1.927 -0.436,-3.097 -0.261,-1.324 -0.542,-2.148 -0.852,-2.449 z m -0.231,19.344 c -0.397,-0.511 -1.289,-0.948 -2.674,-1.306 -0.983,-0.26 -2.108,-0.349 -3.357,-0.279 -0.892,0.047 -1.926,0.192 -3.099,0.435 -1.326,0.261 -2.146,0.541 -2.447,0.851 -0.415,0.444 -0.505,1.335 -0.278,2.68 0.278,1.674 0.957,3.291 2.04,4.839 0.495,0.698 1.017,1.318 1.567,1.848 0.099,0.099 0.203,0.185 0.31,0.263 1.016,0.88 2.188,1.489 3.516,1.828 1.122,0.31 2.108,0.378 2.959,0.213 0.823,-0.166 1.404,-0.503 1.722,-1.015 0.03,-0.05 0.06,-0.109 0.089,-0.167 0.048,-0.135 0.086,-0.27 0.126,-0.396 0.667,-2.451 0.754,-4.896 0.271,-7.355 -0.223,-1.266 -0.476,-2.079 -0.745,-2.439 z m -17.869,-24.615 c 5.877,-5.877 12.959,-8.809 21.267,-8.809 8.294,0 15.389,2.932 21.273,8.809 5.876,5.883 8.807,12.975 8.807,21.269 0,8.302 -2.931,15.386 -8.807,21.26 -5.885,5.883 -12.979,8.825 -21.273,8.825 -8.308,0 -15.39,-2.941 -21.267,-8.825 -5.884,-5.874 -8.826,-12.958 -8.826,-21.251 0,-8.303 2.942,-15.395 8.826,-21.278 z m 33.509,7.449 c -1.015,-0.88 -2.188,-1.491 -3.513,-1.83 -1.123,-0.31 -2.11,-0.376 -2.96,-0.214 -0.824,0.166 -1.407,0.504 -1.726,1.017 -0.028,0.049 -0.057,0.106 -0.087,0.167 -0.051,0.135 -0.087,0.269 -0.125,0.396 -0.667,2.447 -0.755,4.896 -0.271,7.355 0.222,1.268 0.475,2.079 0.745,2.439 0.397,0.511 1.289,0.947 2.671,1.306 0.985,0.258 2.108,0.347 3.359,0.28 0.892,-0.048 1.927,-0.193 3.098,-0.437 1.324,-0.26 2.147,-0.541 2.449,-0.852 0.414,-0.443 0.502,-1.335 0.277,-2.679 -0.277,-1.675 -0.956,-3.291 -2.041,-4.84 -0.493,-0.696 -1.015,-1.316 -1.566,-1.848 -0.097,-0.095 -0.202,-0.182 -0.31,-0.26 z m 3.506,18.561 c -0.167,-0.821 -0.505,-1.402 -1.018,-1.723 -0.049,-0.028 -0.105,-0.056 -0.166,-0.086 -0.132,-0.049 -0.269,-0.086 -0.396,-0.126 -2.449,-0.667 -4.897,-0.756 -7.356,-0.271 -1.268,0.223 -2.081,0.474 -2.439,0.745 -0.511,0.395 -0.948,1.288 -1.305,2.672 -0.264,0.986 -0.351,2.107 -0.28,3.358 0.044,0.889 0.189,1.925 0.433,3.095 0.261,1.326 0.543,2.148 0.853,2.448 0.445,0.418 1.338,0.503 2.683,0.283 1.673,-0.283 3.29,-0.958 4.837,-2.042 0.696,-0.494 1.318,-1.017 1.849,-1.569 0.097,-0.095 0.185,-0.201 0.263,-0.308 0.883,-1.017 1.492,-2.187 1.829,-3.513 0.307,-1.125 0.377,-2.112 0.213,-2.963 z"
         id="path1203" />
      <path
         inkscape:connector-curvature="0"
         style="fill:none;stroke:#4e6155;stroke-width:1.54830003;stroke-linecap:round;stroke-linejoin:round;stroke-miterlimit:10"
         d="m 848.464,216.629 c 4.113,-4.112 9.09,-6.173 14.903,-6.173 5.819,0 10.785,2.061 14.898,6.173 4.111,4.125 6.175,9.088 6.175,14.905 0,5.814 -2.063,10.779 -6.175,14.891 -4.113,4.124 -9.079,6.186 -14.898,6.186 -5.813,0 -10.79,-2.062 -14.903,-6.186 -4.124,-4.112 -6.184,-9.077 -6.184,-14.891 0,-5.817 2.06,-10.781 6.184,-14.905 z"
         id="path1205" />
      <path
         inkscape:connector-curvature="0"
         style="fill:#120d0d"
         d="m 936.186,232.239 c 0,-8.304 2.944,-15.395 8.829,-21.278 5.876,-5.875 12.957,-8.809 21.264,-8.809 8.294,0 15.388,2.934 21.275,8.809 5.874,5.884 8.805,12.975 8.805,21.27 0,8.301 -2.931,15.386 -8.805,21.259 -5.888,5.884 -12.981,8.825 -21.275,8.825 -8.307,0 -15.388,-2.941 -21.264,-8.825 -5.885,-5.874 -8.829,-12.959 -8.829,-21.251 m 15.787,-15.61 c -4.123,4.125 -6.186,9.088 -6.186,14.905 0,5.814 2.062,10.779 6.186,14.891 4.113,4.124 9.087,6.186 14.906,6.186 5.816,0 10.781,-2.062 14.895,-6.186 4.114,-4.112 6.175,-9.077 6.175,-14.891 0,-5.817 -2.061,-10.781 -6.175,-14.905 -4.113,-4.112 -9.078,-6.173 -14.895,-6.173 -5.819,0 -10.793,2.061 -14.906,6.173"
         id="path1207" />
      <path
         inkscape:connector-curvature="0"
         style="fill:#92a79b"
         d="m 945.787,231.533 c 0,-5.817 2.062,-10.78 6.186,-14.903 4.113,-4.113 9.087,-6.174 14.906,-6.174 5.816,0 10.781,2.061 14.895,6.174 4.114,4.124 6.176,9.086 6.176,14.903 0,5.815 -2.062,10.78 -6.176,14.892 -4.113,4.124 -9.078,6.186 -14.895,6.186 -5.819,0 -10.793,-2.062 -14.906,-6.186 -4.123,-4.112 -6.186,-9.077 -6.186,-14.892 m 18.176,-12.851 c -0.259,-1.324 -0.539,-2.149 -0.85,-2.45 -0.447,-0.416 -1.334,-0.503 -2.682,-0.281 -1.673,0.281 -3.289,0.959 -4.839,2.042 -0.696,0.496 -1.315,1.018 -1.851,1.57 -0.096,0.096 -0.183,0.205 -0.261,0.308 -0.879,1.017 -1.488,2.188 -1.826,3.515 -0.311,1.122 -0.38,2.108 -0.214,2.96 0.163,0.822 0.5,1.403 1.016,1.723 0.05,0.029 0.107,0.057 0.163,0.088 0.137,0.046 0.272,0.087 0.397,0.125 2.448,0.669 4.898,0.754 7.355,0.271 1.271,-0.225 2.081,-0.475 2.441,-0.747 0.51,-0.396 0.947,-1.286 1.306,-2.669 0.26,-0.987 0.348,-2.111 0.28,-3.358 -0.044,-0.891 -0.191,-1.928 -0.435,-3.097 m -0.338,19.334 c -0.221,-1.267 -0.473,-2.08 -0.744,-2.439 -0.396,-0.511 -1.286,-0.948 -2.671,-1.307 -0.986,-0.259 -2.11,-0.348 -3.358,-0.278 -0.891,0.048 -1.928,0.192 -3.096,0.435 -1.327,0.261 -2.151,0.542 -2.45,0.851 -0.415,0.444 -0.505,1.335 -0.282,2.68 0.282,1.674 0.96,3.291 2.04,4.841 0.496,0.696 1.021,1.316 1.57,1.847 0.098,0.098 0.204,0.185 0.31,0.262 1.018,0.881 2.188,1.49 3.513,1.829 1.123,0.31 2.111,0.378 2.963,0.213 0.824,-0.166 1.402,-0.503 1.722,-1.015 0.028,-0.05 0.06,-0.109 0.091,-0.167 0.046,-0.136 0.084,-0.269 0.124,-0.396 0.665,-2.452 0.75,-4.898 0.268,-7.356 m 15.205,-19.345 c -0.096,-0.096 -0.203,-0.183 -0.308,-0.261 -1.018,-0.88 -2.188,-1.491 -3.516,-1.83 -1.121,-0.31 -2.109,-0.376 -2.96,-0.214 -0.824,0.166 -1.402,0.504 -1.722,1.017 -0.031,0.049 -0.059,0.106 -0.089,0.167 -0.048,0.135 -0.088,0.269 -0.127,0.396 -0.667,2.447 -0.753,4.896 -0.271,7.355 0.223,1.268 0.475,2.079 0.747,2.439 0.397,0.511 1.286,0.947 2.67,1.306 0.987,0.258 2.11,0.347 3.358,0.28 0.891,-0.047 1.927,-0.192 3.096,-0.437 1.329,-0.26 2.15,-0.541 2.451,-0.852 0.416,-0.443 0.505,-1.335 0.281,-2.679 -0.281,-1.675 -0.959,-3.291 -2.042,-4.84 -0.492,-0.695 -1.015,-1.314 -1.568,-1.847 m 2.179,16.577 c -0.049,-0.028 -0.105,-0.056 -0.163,-0.086 -0.136,-0.048 -0.271,-0.086 -0.398,-0.126 -2.45,-0.666 -4.897,-0.756 -7.356,-0.27 -1.267,0.222 -2.08,0.474 -2.438,0.745 -0.512,0.394 -0.947,1.288 -1.306,2.671 -0.263,0.986 -0.347,2.107 -0.28,3.358 0.047,0.889 0.192,1.925 0.435,3.095 0.263,1.326 0.544,2.148 0.851,2.447 0.445,0.419 1.337,0.504 2.682,0.284 1.676,-0.284 3.292,-0.958 4.84,-2.042 0.697,-0.494 1.317,-1.017 1.85,-1.569 0.094,-0.097 0.184,-0.201 0.261,-0.309 0.881,-1.017 1.49,-2.187 1.832,-3.513 0.308,-1.124 0.373,-2.111 0.211,-2.962 -0.17,-0.822 -0.509,-1.403 -1.021,-1.723"
         id="path1209" />
      <path
         inkscape:connector-curvature="0"
         style="fill:none;stroke:#4a4646;stroke-width:1.54830003;stroke-linecap:round;stroke-linejoin:round;stroke-miterlimit:10"
         d="m 963.113,216.232 c -0.447,-0.417 -1.335,-0.502 -2.682,-0.281 -1.673,0.281 -3.289,0.959 -4.839,2.041 -0.696,0.497 -1.315,1.019 -1.851,1.57 -0.096,0.096 -0.183,0.204 -0.261,0.309 -0.879,1.017 -1.488,2.188 -1.826,3.514 -0.311,1.123 -0.38,2.108 -0.214,2.961 0.163,0.822 0.5,1.403 1.016,1.723 0.05,0.029 0.107,0.058 0.163,0.088 0.137,0.046 0.272,0.086 0.397,0.125 2.448,0.669 4.898,0.755 7.355,0.271 1.271,-0.224 2.081,-0.474 2.441,-0.746 0.51,-0.396 0.947,-1.286 1.306,-2.669 0.26,-0.988 0.348,-2.111 0.28,-3.358 -0.047,-0.891 -0.193,-1.927 -0.438,-3.097 -0.256,-1.327 -0.536,-2.15 -0.847,-2.451 z m -0.232,19.345 c -0.396,-0.51 -1.286,-0.948 -2.671,-1.307 -0.986,-0.26 -2.11,-0.348 -3.359,-0.279 -0.89,0.048 -1.927,0.193 -3.095,0.436 -1.328,0.261 -2.151,0.541 -2.451,0.85 -0.415,0.445 -0.504,1.336 -0.281,2.68 0.281,1.675 0.96,3.292 2.04,4.839 0.496,0.699 1.021,1.319 1.57,1.849 0.097,0.097 0.204,0.185 0.31,0.262 1.018,0.881 2.188,1.49 3.513,1.829 1.123,0.31 2.11,0.378 2.963,0.212 0.824,-0.165 1.402,-0.503 1.722,-1.015 0.028,-0.049 0.06,-0.108 0.09,-0.166 0.047,-0.136 0.085,-0.271 0.125,-0.396 0.667,-2.451 0.752,-4.896 0.27,-7.355 -0.223,-1.268 -0.475,-2.081 -0.746,-2.439 z M 945.015,210.96 c 5.875,-5.876 12.957,-8.808 21.264,-8.808 8.294,0 15.388,2.932 21.275,8.808 5.874,5.884 8.805,12.976 8.805,21.271 0,8.301 -2.931,15.386 -8.805,21.259 -5.888,5.884 -12.981,8.825 -21.275,8.825 -8.307,0 -15.389,-2.941 -21.264,-8.825 -5.885,-5.873 -8.829,-12.958 -8.829,-21.25 0,-8.304 2.944,-15.396 8.829,-21.28 z m 33.507,7.45 c -1.018,-0.88 -2.188,-1.49 -3.516,-1.829 -1.122,-0.31 -2.109,-0.376 -2.96,-0.213 -0.825,0.166 -1.402,0.504 -1.722,1.017 -0.031,0.048 -0.059,0.106 -0.089,0.166 -0.048,0.136 -0.088,0.27 -0.127,0.396 -0.667,2.447 -0.754,4.896 -0.271,7.355 0.223,1.268 0.475,2.079 0.747,2.438 0.397,0.513 1.286,0.947 2.67,1.307 0.987,0.259 2.11,0.347 3.358,0.28 0.891,-0.049 1.927,-0.193 3.096,-0.437 1.329,-0.261 2.149,-0.541 2.451,-0.852 0.416,-0.444 0.505,-1.336 0.281,-2.68 -0.281,-1.675 -0.959,-3.291 -2.042,-4.839 -0.494,-0.696 -1.018,-1.317 -1.57,-1.848 -0.094,-0.095 -0.201,-0.182 -0.306,-0.261 z m 2.323,16.752 c -0.135,-0.049 -0.271,-0.087 -0.397,-0.127 -2.45,-0.667 -4.897,-0.756 -7.356,-0.271 -1.267,0.223 -2.08,0.474 -2.438,0.746 -0.512,0.395 -0.947,1.287 -1.306,2.671 -0.264,0.986 -0.347,2.109 -0.28,3.359 0.047,0.889 0.192,1.925 0.434,3.094 0.264,1.327 0.545,2.149 0.852,2.448 0.445,0.419 1.337,0.504 2.683,0.282 1.675,-0.282 3.291,-0.958 4.838,-2.041 0.698,-0.494 1.318,-1.017 1.851,-1.57 0.094,-0.096 0.184,-0.201 0.261,-0.307 0.88,-1.017 1.49,-2.187 1.832,-3.514 0.308,-1.123 0.373,-2.11 0.211,-2.96 -0.167,-0.822 -0.506,-1.403 -1.019,-1.723 -0.051,-0.03 -0.108,-0.058 -0.166,-0.087 z"
         id="path1211" />
      <path
         inkscape:connector-curvature="0"
         style="fill:none;stroke:#4e6155;stroke-width:1.54830003;stroke-linecap:round;stroke-linejoin:round;stroke-miterlimit:10"
         d="m 951.973,216.629 c 4.113,-4.112 9.087,-6.173 14.906,-6.173 5.816,0 10.781,2.061 14.895,6.173 4.114,4.125 6.175,9.088 6.175,14.905 0,5.814 -2.061,10.779 -6.175,14.891 -4.113,4.124 -9.078,6.186 -14.895,6.186 -5.819,0 -10.793,-2.062 -14.906,-6.186 -4.123,-4.112 -6.186,-9.077 -6.186,-14.891 0,-5.817 2.063,-10.781 6.186,-14.905 z"
         id="path1213" />
      <path
         inkscape:connector-curvature="0"
         style="fill:#9eafa6"
         d="m 922.182,225.762 c -0.069,-0.611 0.076,-1.171 0.434,-1.694 l 10.378,-15.028 3.609,2.826 -10.222,14.807 c -0.358,0.522 -0.857,0.842 -1.489,0.956 -0.569,0.109 -1.113,-0.027 -1.644,-0.397 l -0.062,-0.037 c -0.522,-0.36 -0.859,-0.841 -1.004,-1.433"
         id="path1215" />
      <path
         inkscape:connector-curvature="0"
         style="fill:none;stroke:#4a4646;stroke-width:1.54830003;stroke-linecap:round;stroke-linejoin:round;stroke-miterlimit:10"
         d="m 932.993,209.04 -10.378,15.028 c -0.357,0.522 -0.503,1.082 -0.434,1.694 0.146,0.591 0.482,1.073 1.005,1.433 l 0.062,0.037 c 0.53,0.369 1.074,0.505 1.645,0.397 0.631,-0.114 1.13,-0.434 1.488,-0.956 l 10.222,-14.808"
         id="path1217" />
      <path
         inkscape:connector-curvature="0"
         style="fill:#3c3837"
         d="m 929.014,211.923 c -1.189,0.184 -1.849,-0.185 -1.983,-1.084 l -0.473,-3.029 c -0.138,-0.898 0.395,-1.43 1.588,-1.615 l 15.233,-2.341 c 1.198,-0.183 1.866,0.172 2.003,1.064 l 0.463,3.028 c 0.137,0.9 -0.385,1.441 -1.576,1.626 l -15.255,2.351 z"
         id="path1219" />
      <path
         inkscape:connector-curvature="0"
         style="fill:none;stroke:#574a4d;stroke-width:1.54830003;stroke-linecap:round;stroke-linejoin:round;stroke-miterlimit:10"
         d="m 929.014,211.923 15.255,-2.351 c 1.191,-0.185 1.713,-0.726 1.576,-1.626 l -0.463,-3.028 c -0.137,-0.893 -0.805,-1.247 -2.003,-1.064 l -15.233,2.341 c -1.193,0.185 -1.726,0.717 -1.588,1.615 l 0.473,3.029 c 0.134,0.899 0.793,1.267 1.983,1.084 z"
         id="path1221" />
      <path
         inkscape:connector-curvature="0"
         style="fill:none;stroke:#4e6155;stroke-width:1.54830003;stroke-linecap:round;stroke-linejoin:round;stroke-miterlimit:10"
         d="m 926.576,238.637 h 1.16 m 1.164,0 h 1.165 m 1.16,0 h 1.162 m 1.162,0 h 1.161 m 1.161,0 h 1.16 m 1.163,0 h 1.16 m 1.162,0 h 1.16 m 1.161,0 h 1.162 m 1.162,0 h 1.161 m 1.163,-0.011 h 1.16 m 1.162,-0.02 h 1.162 m 1.162,-0.019 h 1.162 m 1.162,-0.019 h 1.161 m 1.16,-0.018 h 1.161 m 1.163,-0.021 h 1.161 m 1.16,-0.02 h 1.162 m 1.161,-0.017 h 1.162 m 1.162,-0.021 h 0.892 m -38.957,-24.909 1.121,0.32 m 1.121,0.329 1.124,0.329 m 1.121,0.329 1.126,0.308 m 1.123,0.33 1.121,0.31 m 1.124,0.329 1.121,0.31 m 1.124,0.33 1.121,0.309 m 1.125,0.329 1.121,0.328 m 1.123,0.31 1.124,0.329 m 1.123,0.31 1.123,0.329 m 1.123,0.33 1.123,0.308 m 1.12,0.329 1.124,0.31 m 1.122,0.329 1.123,0.329 m 1.122,0.31 1.123,0.33 m 1.121,0.308 1.124,0.329 m 1.123,0.31 1.126,0.329 m 1.122,0.33 1.122,0.311 m 1.122,0.329 1.121,0.307 m 1.125,0.328 1.122,0.33 m 1.123,0.309 0.726,0.213"
         id="path1223" />
      <path
         inkscape:connector-curvature="0"
         style="fill:#9eafa6"
         d="m 966.841,224.777 c 0.184,0 0.359,0.01 0.534,0.021 1.771,0.116 3.292,0.812 4.577,2.09 1.404,1.401 2.111,3.105 2.111,5.099 0,2.003 -0.707,3.706 -2.111,5.11 -1.412,1.402 -3.117,2.108 -5.111,2.108 h -0.085 c -1.966,-0.019 -3.637,-0.727 -5.025,-2.108 -1.401,-1.404 -2.109,-3.107 -2.109,-5.101 0,-2.003 0.708,-3.707 2.109,-5.108 1.404,-1.403 3.11,-2.111 5.11,-2.111"
         id="path1225" />
      <path
         inkscape:connector-curvature="0"
         style="fill:none;stroke:#4a4646;stroke-width:1.54830003;stroke-linecap:round;stroke-linejoin:round;stroke-miterlimit:10"
         d="m 967.375,224.798 c 1.771,0.116 3.292,0.812 4.577,2.09 1.404,1.401 2.11,3.105 2.11,5.099 0,2.003 -0.706,3.706 -2.11,5.11 -1.412,1.402 -3.117,2.108 -5.111,2.108 h -0.085 c -1.966,-0.019 -3.638,-0.727 -5.025,-2.108 -1.401,-1.404 -2.109,-3.107 -2.109,-5.101 0,-2.003 0.708,-3.707 2.109,-5.108 1.404,-1.404 3.11,-2.111 5.11,-2.111 0.183,0 0.359,0.01 0.534,0.021 z"
         id="path1227" />
      <path
         inkscape:connector-curvature="0"
         style="fill:#678b90"
         d="m 872.805,149.906 c 1.324,-3.262 2.631,-4.896 3.92,-4.896 0.222,0 2.7,0.484 7.412,1.451 l -1.432,4.491 c -1.238,-0.417 -2.487,-0.794 -3.746,-1.142 -0.398,-0.107 -0.727,-0.012 -0.986,0.3 -0.67,0.803 -1.153,1.693 -1.473,2.671 -0.262,0.803 -0.367,1.626 -0.319,2.468 0.013,0.135 0.05,0.261 0.127,0.376 0.551,0.842 1.285,1.508 2.187,1.993 1.549,0.833 2.952,1.858 4.2,3.078 0.494,0.464 0.698,1.025 0.628,1.684 -0.182,1.712 -0.493,3.398 -0.929,5.062 -0.075,0.29 -0.146,0.57 -0.192,0.852 l -4.723,-1.278 c 0.065,-0.292 0.135,-0.591 0.201,-0.9 0.205,-0.901 0.302,-1.579 0.302,-2.024 0,-0.648 -0.359,-1.305 -1.073,-1.975 -0.389,-0.367 -1.181,-0.958 -2.373,-1.759 -1.112,-0.766 -1.906,-1.396 -2.361,-1.869 -0.716,-0.745 -1.074,-1.49 -1.074,-2.253 0,-0.514 0.156,-1.375 0.465,-2.565 0.336,-1.297 0.743,-2.556 1.239,-3.765"
         id="path1229" />
      <path
         inkscape:connector-curvature="0"
         style="fill:#678b90"
         d="m 874.912,167.74 c 0.242,-0.88 0.784,-1.21 1.628,-0.986 l 0.938,0.263 4.723,1.277 1.888,0.502 c 0.834,0.222 1.133,0.783 0.892,1.664 l -2.838,10.481 -0.25,0.946 c -0.243,0.883 -0.775,1.211 -1.607,0.988 l -1.113,-0.299 -5.702,-1.539 -0.735,-0.202 c -0.84,-0.225 -1.15,-0.786 -0.909,-1.666 l 3.085,-11.429 z"
         id="path1231" />
      <path
         inkscape:connector-curvature="0"
         style="fill:#e61811"
         d="m 879.171,182.575 1.114,0.301 c 0.832,0.222 1.364,-0.106 1.607,-0.989 l 0.25,-0.946 41.444,9.193 2.305,-7.665 0.202,0.059 c 1.685,0.9 3.311,1.491 4.87,1.771 l -2.266,7.548 c 1.89,0.958 3.582,2.273 5.101,3.948 l 31.319,34.199 c 3.282,3.57 2.974,5.052 -0.948,4.459 l -43.92,-6.801 c -0.167,-0.01 -0.341,-0.029 -0.516,-0.039 -0.522,-0.087 -1.071,-0.233 -1.663,-0.426 -1.442,-0.473 -3.078,-1.249 -4.918,-2.322 -3.193,-1.866 -6.996,-4.654 -11.408,-8.342 l -26.271,-20.138 3.698,-13.81 z m 6.457,7.007 c -4.161,-0.918 -4.259,0.232 -0.28,3.454 l 21.061,16.858 8.274,6.775 c 0.25,0.202 0.504,0.396 0.756,0.579 l 0.067,-0.23 5.748,-19.087 -35.626,-8.349 z m 47.156,13.616 c -1.802,-1.886 -3.862,-3.338 -6.195,-4.345 l -6.309,20.999 c 0.936,0.347 1.914,0.62 2.911,0.823 l 28.105,5.479 c 2.952,0.561 3.535,-0.07 1.754,-1.896 l -20.266,-21.06 z"
         id="path1233" />
      <path
         inkscape:connector-curvature="0"
         style="fill:#e61811"
         d="m 879.171,182.576 -3.697,13.809 -9.416,35.149 c -0.214,0.793 -0.657,1.382 -1.327,1.772 -0.725,0.414 -1.487,0.521 -2.284,0.309 -0.804,-0.213 -1.384,-0.678 -1.761,-1.394 -0.436,-0.687 -0.543,-1.423 -0.328,-2.217 l 13.112,-48.967 5.701,1.539 z"
         id="path1235" />
      <path
         inkscape:connector-curvature="0"
         style="fill:#120d0d"
         d="m 932.337,169.415 c 3.359,0.087 5.236,0.136 5.643,0.154 1.635,0.095 2.857,0.289 3.66,0.571 0.918,0.33 1.578,0.871 1.974,1.616 0.396,0.756 0.591,1.859 0.591,3.309 0,2.67 -1.085,4.917 -3.243,6.737 -2.149,1.788 -4.78,2.69 -7.887,2.69 -0.688,0 -1.393,-0.069 -2.11,-0.194 -1.56,-0.28 -3.186,-0.871 -4.87,-1.771 -0.066,-0.029 -0.127,-0.069 -0.184,-0.098 -1.974,-1.092 -4.258,-2.729 -6.852,-4.926 -0.755,-0.637 -1.811,-1.248 -3.156,-1.829 -0.765,-0.318 -1.896,-0.773 -3.417,-1.364 -1.248,-0.532 -2.156,-1.083 -2.74,-1.644 -0.744,-0.727 -1.122,-1.598 -1.122,-2.634 0,-1.42 0.903,-2.534 2.692,-3.336 h 2.894 c 4.896,0.966 8.188,1.586 9.863,1.867 3.153,0.513 5.911,0.805 8.264,0.852"
         id="path1237" />
      <path
         inkscape:connector-curvature="0"
         style="fill:none;stroke:#900911;stroke-width:2.14499998;stroke-linecap:round;stroke-linejoin:round;stroke-miterlimit:10"
         d="m 875.474,196.385 -9.416,35.149 c -0.214,0.793 -0.657,1.383 -1.327,1.771 -0.725,0.415 -1.487,0.521 -2.284,0.309 -0.804,-0.213 -1.384,-0.679 -1.761,-1.394 -0.436,-0.687 -0.543,-1.424 -0.328,-2.217 l 13.112,-48.967"
         id="path1239" />
      <path
         inkscape:connector-curvature="0"
         style="fill:none;stroke:#3c3837;stroke-width:2.14499998;stroke-linecap:round;stroke-linejoin:round;stroke-miterlimit:10"
         d="m 882.705,150.952 c -1.238,-0.417 -2.487,-0.794 -3.746,-1.142 -0.398,-0.107 -0.727,-0.012 -0.986,0.3 -0.67,0.803 -1.153,1.693 -1.473,2.671 -0.262,0.803 -0.367,1.626 -0.317,2.467 0.01,0.136 0.047,0.262 0.125,0.378 0.551,0.842 1.285,1.507 2.187,1.993 1.549,0.833 2.952,1.857 4.2,3.078 0.493,0.462 0.698,1.025 0.628,1.684 -0.182,1.711 -0.493,3.397 -0.929,5.062 -0.076,0.29 -0.146,0.57 -0.192,0.852"
         id="path1241" />
      <path
         inkscape:connector-curvature="0"
         style="fill:none;stroke:#3c3837;stroke-width:2.14499998;stroke-linecap:round;stroke-linejoin:round;stroke-miterlimit:10"
         d="m 873.47,181.037 -0.735,-0.202 c -0.841,-0.224 -1.15,-0.785 -0.909,-1.665 l 3.087,-11.431 c 0.243,-0.879 0.784,-1.21 1.628,-0.986 l 0.938,0.263"
         id="path1243" />
      <line
         style="fill:none;stroke:#3c3837;stroke-width:2.14499998;stroke-linecap:round;stroke-linejoin:round;stroke-miterlimit:10"
         x1="882.20099"
         y1="168.293"
         x2="877.479"
         y2="167.01601"
         id="line1245" />
      <path
         inkscape:connector-curvature="0"
         style="fill:none;stroke:#3c3837;stroke-width:2.14499998;stroke-linecap:round;stroke-linejoin:round;stroke-miterlimit:10"
         d="m 882.201,168.293 1.888,0.503 c 0.834,0.222 1.133,0.783 0.892,1.663 l -2.838,10.481"
         id="path1247" />
      <path
         inkscape:connector-curvature="0"
         style="fill:none;stroke:#3c3837;stroke-width:2.14499998;stroke-linecap:round;stroke-linejoin:round;stroke-miterlimit:10"
         d="m 879.171,182.576 1.114,0.299 c 0.832,0.223 1.364,-0.105 1.607,-0.988 l 0.25,-0.946"
         id="path1249" />
      <path
         inkscape:connector-curvature="0"
         style="fill:none;stroke:#900911;stroke-width:2.14499998;stroke-linecap:round;stroke-linejoin:round;stroke-miterlimit:10"
         d="m 885.348,193.037 21.061,16.857 9.098,7.125 5.748,-19.087 -35.626,-8.349 c -4.162,-0.92 -4.26,0.231 -0.281,3.454 z"
         id="path1251" />
      <line
         style="fill:none;stroke:#900911;stroke-width:2.14499998;stroke-linecap:round;stroke-linejoin:round;stroke-miterlimit:10"
         x1="875.474"
         y1="196.38499"
         x2="879.17102"
         y2="182.576"
         id="line1253" />
      <line
         style="fill:none;stroke:#3c3837;stroke-width:2.14499998;stroke-linecap:round;stroke-linejoin:round;stroke-miterlimit:10"
         x1="873.46997"
         y1="181.037"
         x2="879.17102"
         y2="182.576"
         id="line1255" />
      <path
         inkscape:connector-curvature="0"
         style="fill:none;stroke:#900911;stroke-width:2.14499998;stroke-linecap:round;stroke-linejoin:round;stroke-miterlimit:10"
         d="m 930.964,184.299 -2.265,7.547 c 1.889,0.959 3.581,2.275 5.1,3.948 l 31.319,34.2 c 3.282,3.571 2.975,5.052 -0.948,4.46 l -43.92,-6.802 c -0.166,-0.009 -0.341,-0.028 -0.516,-0.04 -0.522,-0.087 -1.071,-0.233 -1.663,-0.425 -1.441,-0.473 -3.078,-1.248 -4.918,-2.324 -3.192,-1.865 -6.996,-4.652 -11.408,-8.341 l -26.271,-20.138"
         id="path1257" />
      <path
         inkscape:connector-curvature="0"
         style="fill:none;stroke:#3c3837;stroke-width:2.14499998;stroke-linecap:round;stroke-linejoin:round;stroke-miterlimit:10"
         d="m 925.91,182.43 c -1.974,-1.092 -4.259,-2.729 -6.852,-4.926 -0.755,-0.637 -1.811,-1.249 -3.156,-1.83 -0.765,-0.318 -1.896,-0.773 -3.417,-1.364 -1.248,-0.532 -2.156,-1.083 -2.74,-1.644 -0.744,-0.726 -1.122,-1.598 -1.122,-2.633 0,-1.421 0.903,-2.535 2.692,-3.337 h 2.894 c 4.896,0.966 8.188,1.585 9.863,1.867 3.153,0.512 5.912,0.804 8.265,0.851 3.359,0.087 5.235,0.135 5.643,0.154 1.635,0.095 2.856,0.289 3.66,0.571 0.918,0.33 1.577,0.872 1.974,1.616 0.396,0.756 0.591,1.859 0.591,3.309 0,2.671 -1.086,4.918 -3.243,6.737 -2.149,1.788 -4.78,2.69 -7.887,2.69 -0.688,0 -1.393,-0.069 -2.11,-0.194"
         id="path1259" />
      <path
         inkscape:connector-curvature="0"
         style="fill:none;stroke:#900911;stroke-width:2.14499998;stroke-linecap:round;stroke-linejoin:round;stroke-miterlimit:10"
         d="m 925.91,182.43 c 0.057,0.029 0.117,0.069 0.184,0.098"
         id="path1261" />
      <path
         inkscape:connector-curvature="0"
         style="fill:none;stroke:#900911;stroke-width:2.14499998;stroke-linecap:round;stroke-linejoin:round;stroke-miterlimit:10"
         d="m 930.964,184.299 c -1.56,-0.28 -3.186,-0.871 -4.87,-1.771"
         id="path1263" />
      <line
         style="fill:none;stroke:#900911;stroke-width:2.14499998;stroke-linecap:round;stroke-linejoin:round;stroke-miterlimit:10"
         x1="926.09399"
         y1="182.528"
         x2="925.89203"
         y2="182.47"
         id="line1265" />
      <line
         style="fill:none;stroke:#900911;stroke-width:2.14499998;stroke-linecap:round;stroke-linejoin:round;stroke-miterlimit:10"
         x1="925.89203"
         y1="182.46899"
         x2="925.90997"
         y2="182.42999"
         id="line1267" />
      <path
         inkscape:connector-curvature="0"
         style="fill:none;stroke:#900911;stroke-width:2.14499998;stroke-linecap:round;stroke-linejoin:round;stroke-miterlimit:10"
         d="m 926.589,198.853 -6.309,20.999 c 0.936,0.347 1.914,0.62 2.911,0.823 l 28.105,5.477 c 2.952,0.562 3.535,-0.069 1.754,-1.895 l -20.267,-21.059 c -1.801,-1.887 -3.861,-3.34 -6.194,-4.345 z"
         id="path1269" />
      <polyline
         style="fill:none;stroke:#900911;stroke-width:2.14499998;stroke-linecap:round;stroke-linejoin:round;stroke-miterlimit:10"
         points="   882.143,180.94 923.588,190.135 925.892,182.469  "
         id="polyline1271" />
      <path
         inkscape:connector-curvature="0"
         style="fill:none;stroke:#3c3837;stroke-width:2.14499998;stroke-linecap:round;stroke-linejoin:round;stroke-miterlimit:10"
         d="m 877.479,167.016 c 0.065,-0.292 0.135,-0.591 0.201,-0.9 0.205,-0.901 0.302,-1.579 0.302,-2.024 0,-0.649 -0.359,-1.305 -1.073,-1.975 -0.389,-0.367 -1.181,-0.958 -2.373,-1.76 -1.112,-0.767 -1.906,-1.395 -2.361,-1.868 -0.716,-0.746 -1.074,-1.491 -1.074,-2.255 0,-0.513 0.156,-1.374 0.465,-2.564 0.338,-1.296 0.744,-2.556 1.24,-3.764 1.324,-3.263 2.631,-4.897 3.92,-4.897 0.222,0 2.7,0.484 7.412,1.451"
         id="path1273" />
      <path
         inkscape:connector-curvature="0"
         style="fill:#e61811"
         d="m 886.992,142.619 0.735,0.241 c 0.396,0.125 0.688,0.378 0.882,0.764 0.201,0.396 0.242,0.793 0.117,1.18 l -0.494,1.55 13.849,4.432 c 0.986,0.309 1.325,0.959 1.006,1.946 l -1.268,3.967 c -0.316,0.985 -0.966,1.325 -1.956,1.014 l -13.85,-4.431 -0.263,0.812 c -0.123,0.397 -0.386,0.688 -0.771,0.882 -0.389,0.203 -0.776,0.241 -1.173,0.117 l -0.735,-0.242 c -0.396,-0.126 -0.688,-0.378 -0.891,-0.776 -0.203,-0.377 -0.232,-0.764 -0.105,-1.159 l 2.969,-9.292 c 0.127,-0.386 0.378,-0.686 0.766,-0.899 0.397,-0.192 0.788,-0.232 1.182,-0.106"
         id="path1275" />
      <path
         inkscape:connector-curvature="0"
         style="fill:none;stroke:#900911;stroke-width:2.14499998;stroke-linecap:round;stroke-linejoin:round;stroke-miterlimit:10"
         d="m 886.992,142.619 c -0.395,-0.126 -0.785,-0.086 -1.182,0.106 -0.388,0.213 -0.639,0.513 -0.766,0.899 l -2.969,9.292 c -0.127,0.396 -0.098,0.782 0.105,1.159 0.203,0.398 0.494,0.65 0.891,0.776 l 0.735,0.242 c 0.396,0.124 0.784,0.085 1.173,-0.117 0.385,-0.194 0.647,-0.484 0.771,-0.882 l 0.263,-0.812 13.85,4.431 c 0.99,0.311 1.64,-0.029 1.956,-1.014 l 1.268,-3.967 c 0.319,-0.987 -0.02,-1.637 -1.006,-1.946 l -13.849,-4.432 0.494,-1.55 c 0.125,-0.387 0.084,-0.784 -0.117,-1.18 -0.194,-0.386 -0.485,-0.639 -0.882,-0.764 l -0.735,-0.241 z"
         id="path1277" />
      <path
         inkscape:connector-curvature="0"
         style="fill:#9eafa6"
         d="m 927.15,213.35 c 0.291,0.056 0.57,0.127 0.852,0.213 2.012,0.58 3.812,1.664 5.409,3.251 2.508,2.517 3.766,5.554 3.766,9.116 0,3.569 -1.258,6.607 -3.766,9.116 -1.966,1.964 -4.24,3.154 -6.834,3.591 -0.734,0.123 -1.498,0.183 -2.281,0.183 -3.574,0 -6.611,-1.257 -9.119,-3.773 -2.517,-2.509 -3.775,-5.547 -3.775,-9.107 0,-3.57 1.259,-6.608 3.775,-9.125 2.508,-2.508 5.545,-3.764 9.119,-3.764 0.995,-10e-4 1.943,0.096 2.854,0.299"
         id="path1279" />
      <path
         inkscape:connector-curvature="0"
         style="fill:none;stroke:#4a4646;stroke-width:1.54830003;stroke-linecap:round;stroke-linejoin:round;stroke-miterlimit:10"
         d="m 928.003,213.562 c 2.012,0.58 3.812,1.664 5.408,3.251 2.508,2.517 3.766,5.554 3.766,9.116 0,3.569 -1.258,6.607 -3.766,9.116 -1.965,1.964 -4.24,3.154 -6.834,3.591 -0.734,0.123 -1.498,0.183 -2.281,0.183 -3.574,0 -6.611,-1.257 -9.119,-3.773 -2.517,-2.509 -3.775,-5.547 -3.775,-9.107 0,-3.57 1.259,-6.608 3.775,-9.125 2.508,-2.508 5.545,-3.764 9.119,-3.764 0.995,0 1.943,0.096 2.855,0.299 0.29,0.057 0.57,0.127 0.852,0.213 z"
         id="path1281" />
      <path
         inkscape:connector-curvature="0"
         style="fill:none;stroke:#c9dfd6;stroke-width:2.32249999;stroke-linecap:round;stroke-linejoin:round;stroke-miterlimit:10"
         d="m 914.703,223.096 c 0.474,-1.616 1.324,-3.03 2.575,-4.26 1.888,-1.848 4.218,-2.808 7.018,-2.865"
         id="path1283" />
      <path
         inkscape:connector-curvature="0"
         style="fill:#9eafa6"
         d="m 925.588,226.614 c 0.066,0.61 -0.078,1.172 -0.438,1.694 l -10.375,15.027 -3.609,-2.826 10.222,-14.805 c 0.359,-0.523 0.858,-0.842 1.492,-0.959 0.569,-0.107 1.111,0.029 1.645,0.397 l 0.057,0.039 c 0.523,0.36 0.861,0.843 1.006,1.433"
         id="path1285" />
      <path
         inkscape:connector-curvature="0"
         style="fill:none;stroke:#4a4646;stroke-width:1.54830003;stroke-linecap:round;stroke-linejoin:round;stroke-miterlimit:10"
         d="m 914.775,243.335 10.375,-15.027 c 0.359,-0.522 0.504,-1.084 0.438,-1.694 -0.145,-0.59 -0.482,-1.073 -1.008,-1.434 l -0.056,-0.038 c -0.533,-0.368 -1.075,-0.504 -1.645,-0.398 -0.634,0.119 -1.133,0.436 -1.492,0.959 l -10.222,14.806"
         id="path1287" />
      <path
         inkscape:connector-curvature="0"
         style="fill:#3c3837"
         d="m 903.115,239.823 1.896,-2.421 c 0.56,-0.715 1.316,-0.696 2.264,0.049 l 12.188,9.551 c 0.947,0.747 1.139,1.482 0.579,2.197 l -1.897,2.419 c -0.57,0.716 -1.327,0.696 -2.274,-0.047 l -12.186,-9.551 c -0.946,-0.746 -1.142,-1.482 -0.57,-2.197"
         id="path1289" />
      <path
         inkscape:connector-curvature="0"
         style="fill:none;stroke:#574a4d;stroke-width:1.54830003;stroke-linecap:round;stroke-linejoin:round;stroke-miterlimit:10"
         d="m 903.115,239.823 c -0.572,0.714 -0.376,1.451 0.569,2.197 l 12.186,9.551 c 0.947,0.744 1.704,0.764 2.274,0.047 l 1.897,-2.419 c 0.56,-0.715 0.368,-1.451 -0.579,-2.197 l -12.188,-9.551 c -0.947,-0.745 -1.704,-0.764 -2.264,-0.049 l -1.895,2.421 z"
         id="path1291" />
      <path
         inkscape:connector-curvature="0"
         style="fill:#e2aa00"
         d="m 848.53,176 c -0.077,-0.447 -0.126,-0.861 -0.146,-1.258 h 7.415 l 0.551,6.648 h -6.843 L 848.53,176 z"
         id="path1293" />
      <path
         inkscape:connector-curvature="0"
         style="fill:#e2aa00"
         d="m 846.429,169.601 c 0,-0.918 0.455,-1.374 1.374,-1.374 h 28.38 c 0.918,0 1.373,0.456 1.373,1.374 v 3.775 c 0,0.91 -0.455,1.365 -1.373,1.365 h -0.069 -7.857 -12.458 -7.414 -0.581 c -0.919,0 -1.374,-0.456 -1.374,-1.365 v -3.775 z"
         id="path1295" />
      <path
         inkscape:connector-curvature="0"
         style="fill:#e2aa00"
         d="m 849.507,181.39 h 6.843 l 0.582,7.072 h -5.836 5.836 l 0.523,6.474 h -1.906 c -2.373,-0.008 -3.75,-0.995 -4.126,-2.961 l -1.916,-10.585 z"
         id="path1297" />
      <polygon
         style="fill:#e2aa00"
         points="856.35,181.39 855.799,174.741 868.256,174.741 867.542,181.39 "
         id="polygon1299" />
      <path
         inkscape:connector-curvature="0"
         style="fill:#e2aa00"
         d="m 876.113,174.741 c -0.019,0.397 -0.076,0.812 -0.164,1.258 l -2.4,12.463 h -6.773 l 0.767,-7.072 h 7.207 -7.207 l 0.714,-6.648 h 7.856 z"
         id="path1301" />
      <path
         inkscape:connector-curvature="0"
         style="fill:#e2aa00"
         d="m 866.775,188.462 -0.668,6.222 0.668,-6.222 h 6.773 l -0.666,3.513 c -0.37,1.965 -1.754,2.953 -4.145,2.961 h -11.283 l -0.523,-6.474 h 9.844 z"
         id="path1303" />
      <polygon
         style="fill:#e2aa00"
         points="856.932,188.462 856.35,181.39 867.542,181.39 866.775,188.462 "
         id="polygon1305" />
      <path
         inkscape:connector-curvature="0"
         style="fill:none;stroke:#8c5412;stroke-width:2.14499998;stroke-linecap:round;stroke-linejoin:round;stroke-miterlimit:10"
         d="m 855.798,174.741 h 12.458 m 7.857,0 h 0.069 c 0.918,0 1.373,-0.456 1.373,-1.365 v -3.775 c 0,-0.917 -0.455,-1.373 -1.373,-1.373 h -28.38 c -0.919,0 -1.374,0.456 -1.374,1.373 v 3.775 c 0,0.91 0.455,1.365 1.374,1.365 h 0.581 m 1.124,6.649 h 6.843 m 0,0 -0.552,-6.648 m -7.414,-10e-4 h 7.414 m 17.751,13.721 2.401,-12.463 c 0.087,-0.446 0.145,-0.86 0.163,-1.258 m -8.572,6.649 0.715,-6.648 m 6.493,6.648 h -7.208 m 0.715,-6.649 h 7.857 m -10.006,19.944 0.668,-6.223 m -9.32,6.474 h 11.283 c 2.391,-0.008 3.774,-0.994 4.144,-2.961 l 0.667,-3.513 m -6.774,0 h 6.773 m -24.041,-7.072 1.916,10.585 c 0.376,1.967 1.753,2.953 4.126,2.961 h 1.906 m -0.523,-6.474 0.523,6.474 m -0.523,-6.474 h -5.836 m 5.254,-7.072 0.582,7.072 m 9.843,0 h -9.844 m -0.581,-7.072 h 11.191 m 0,0 -0.766,7.072 m -18.391,-13.721 c 0.021,0.397 0.069,0.812 0.146,1.258 l 0.977,5.391"
         id="path1307" />
      <path
         inkscape:connector-curvature="0"
         style="fill:#fcdf00"
         d="m 927.307,106.346 c -1.73,-0.082 -2.772,-0.118 -3.135,-0.1 -1.316,0.055 -2.497,0.323 -3.526,0.794 -1.367,0.63 -2.421,1.356 -3.163,2.181 -0.71,0.783 -1.207,1.744 -1.489,2.875 -0.248,0.993 -0.366,2.282 -0.35,3.872 0.006,0.925 0.085,2.649 0.247,5.164 0.273,4.263 -0.118,8.462 -1.18,12.598 -0.83,3.227 -2.136,6.635 -3.93,10.228 -0.625,1.241 -1.405,2.704 -2.343,4.389 -1.022,1.809 -1.763,3.14 -2.227,3.986 -1.618,2.952 -2.64,5.3 -3.063,7.049 -0.549,2.24 -0.457,4.528 0.269,6.854 0.714,2.267 1.97,4.367 3.761,6.286 1.826,1.959 4.038,3.548 6.646,4.765 2.753,1.292 5.731,2.064 8.922,2.31 3.289,0.248 5.218,0.372 5.775,0.368 1.943,-0.001 4.063,-0.298 6.365,-0.873 4.006,-1.002 7.479,-2.994 10.425,-5.977 2.979,-2.999 4.849,-6.516 5.593,-10.545 v -0.017 c 0.291,-2.363 0.445,-4.732 0.477,-7.111 0.047,-3.836 -0.284,-7.86 -1.001,-12.071 -0.58,-3.416 -1.504,-7.43 -2.76,-12.056 -0.221,-0.803 -0.643,-2.375 -1.277,-4.717 -0.651,-2.277 -1.317,-4.315 -2.004,-6.123 -1.994,-5.23 -4.332,-9.056 -7.008,-11.479 -0.897,-0.807 -2.491,-1.465 -4.787,-1.96 -1.708,-0.378 -3.457,-0.608 -5.237,-0.69"
         id="path1309" />
      <path
         inkscape:connector-curvature="0"
         style="fill:none;stroke:#f2b800;stroke-width:1.31169999;stroke-miterlimit:10"
         d="m 924.172,106.246 c -1.316,0.055 -2.497,0.323 -3.526,0.795 -1.368,0.63 -2.421,1.356 -3.163,2.18 -0.71,0.783 -1.207,1.744 -1.489,2.877 -0.248,0.992 -0.366,2.281 -0.35,3.871 0.006,0.927 0.085,2.65 0.247,5.165 0.273,4.263 -0.118,8.461 -1.181,12.599 -0.829,3.226 -2.135,6.634 -3.929,10.227 -0.625,1.242 -1.405,2.704 -2.343,4.389 -1.022,1.809 -1.763,3.141 -2.226,3.986 -1.619,2.952 -2.641,5.3 -3.065,7.049 -0.548,2.24 -0.456,4.528 0.27,6.854 0.714,2.267 1.97,4.367 3.761,6.286 1.826,1.959 4.038,3.548 6.646,4.765 2.752,1.293 5.73,2.064 8.921,2.312 3.289,0.247 5.218,0.37 5.774,0.367 1.944,-10e-4 4.064,-0.297 6.366,-0.873 4.006,-1.002 7.478,-2.993 10.425,-5.977 2.98,-3 4.849,-6.517 5.593,-10.545 v -0.017 c 0.291,-2.362 0.445,-4.732 0.477,-7.111 0.047,-3.837 -0.284,-7.861 -1.001,-12.071 -0.58,-3.416 -1.504,-7.43 -2.761,-12.057 -0.22,-0.803 -0.642,-2.375 -1.276,-4.717 -0.651,-2.276 -1.317,-4.314 -2.004,-6.123 -1.994,-5.229 -4.332,-9.055 -7.008,-11.478 -0.897,-0.808 -2.491,-1.465 -4.788,-1.961 -1.706,-0.377 -3.455,-0.608 -5.235,-0.69 -1.731,-0.084 -2.773,-0.12 -3.135,-0.102 z"
         id="path1311" />
      <path
         inkscape:connector-curvature="0"
         style="fill:#e52025"
         d="m 927.496,241.458 c -0.139,-0.157 -0.263,-0.289 -0.369,-0.379 l -0.06,-0.016 -0.033,0.04 c -0.129,0.734 -0.304,1.748 -0.512,3.041 -0.203,1.113 -0.482,2.192 -0.822,3.22 -0.188,0.602 -0.452,1.177 -0.791,1.713 -0.173,0.28 -0.353,0.577 -0.559,0.889 -11.358,-4.967 -19.447,-10.304 -24.282,-16.029 -1.917,-2.289 -3.122,-4.458 -3.606,-6.49 -0.405,-1.746 -0.215,-3.193 0.567,-4.348 0.772,-1.097 1.993,-1.755 3.657,-1.962 1.854,-0.221 3.952,0.148 6.293,1.104 5.329,2.183 10.444,6.605 15.346,13.261 l 0.634,0.849 0.024,0.032 c 0.009,0.008 0.009,0.025 0.014,0.041 0,0.008 0,0.016 0.011,0.026 0.031,0.04 0.066,0.09 0.108,0.147 0.006,0.009 0.013,0.018 0.031,0.041 0.034,0.033 0.172,0.157 0.411,0.371 0.041,-0.172 0.052,-0.459 0.025,-0.864 -0.031,-0.485 -0.115,-0.867 -0.254,-1.135 -0.24,-0.487 -0.452,-0.899 -0.652,-1.229 -4.852,-6.368 -9.925,-10.617 -15.204,-12.75 -2.57,-1.063 -4.885,-1.459 -6.952,-1.194 -2.083,0.255 -3.606,1.087 -4.571,2.512 h -0.008 c -1.012,1.424 -1.27,3.222 -0.768,5.401 h 0.01 c 0.511,2.219 1.805,4.558 3.87,7.035 h 0.01 c 4.651,5.544 12.296,10.733 22.93,15.568 l 2.705,1.152 c 0.344,-0.164 0.706,-0.501 1.091,-1.012 0.412,-0.553 0.732,-1.153 0.958,-1.795 l 0.008,-0.01 c 0.436,-1.276 0.791,-2.497 1.061,-3.656 0.323,-1.375 0.415,-2.249 0.274,-2.61 -0.125,-0.323 -0.323,-0.643 -0.595,-0.964"
         id="path1313" />
      <path
         inkscape:connector-curvature="0"
         style="fill:#e86501"
         d="m 924.351,249.965 c 0.206,-0.312 0.386,-0.609 0.559,-0.889 0.339,-0.537 0.604,-1.111 0.791,-1.714 0.34,-1.028 0.619,-2.107 0.822,-3.219 0.208,-1.293 0.384,-2.307 0.512,-3.04 l 0.033,-0.041 -2.981,-3.607 c -0.204,-0.175 -0.386,-0.322 -0.527,-0.446 -0.239,-0.214 -0.377,-0.337 -0.411,-0.371 -0.018,-0.022 -0.025,-0.03 -0.031,-0.041 -0.042,-0.057 -0.077,-0.107 -0.108,-0.147 -0.011,-0.009 -0.011,-0.018 -0.011,-0.025 -0.014,-0.026 -0.029,-0.051 -0.038,-0.073 l -0.634,-0.85 c -4.901,-6.656 -10.017,-11.078 -15.346,-13.262 -2.341,-0.955 -4.438,-1.325 -6.293,-1.104 -1.664,0.208 -2.885,0.867 -3.657,1.962 -0.782,1.154 -0.972,2.602 -0.567,4.347 0.484,2.033 1.689,4.201 3.606,6.49 4.833,5.726 12.922,11.065 24.281,16.03"
         id="path1315" />
      <path
         inkscape:connector-curvature="0"
         style="fill:#e52025"
         d="m 901.611,226.377 c -1.33,0.266 -2.349,0.98 -3.061,2.131 -0.719,1.159 -0.893,2.375 -0.523,3.665 0.411,1.451 1.441,2.641 3.086,3.583 l -0.043,-0.1 c -1.182,-0.996 -1.864,-2.116 -2.031,-3.362 -0.146,-1.102 0.121,-2.135 0.81,-3.103 0.659,-0.938 1.554,-1.582 2.689,-1.949 1.193,-0.383 2.403,-0.341 3.63,0.131 -1.556,-0.975 -3.079,-1.311 -4.557,-0.996"
         id="path1317" />
      <path
         inkscape:connector-curvature="0"
         style="fill:#e86501"
         d="m 930.125,177.622 c 0.066,-0.006 0.104,-0.022 0.113,-0.046 l -0.031,-0.068 c 0,-0.008 0.016,-0.025 0.058,-0.049 0.017,-0.008 0.023,-0.099 0.023,-0.264 -1.045,-1.094 -2.083,-2.083 -3.129,-2.957 -1.803,-1.5 -2.834,-1.958 -3.073,-1.39 l -0.047,-0.043 c -3.158,5.032 -5.495,12.774 -7.004,23.211 -0.041,0.32 -0.089,0.641 -0.131,0.964 l 7.67,0.525 c 0.303,-2.43 0.684,-4.759 1.135,-6.984 1.105,-5.402 2.563,-9.678 4.374,-12.816 l -0.121,-0.072 c 0.063,10e-4 0.121,10e-4 0.163,-0.011"
         id="path1319" />
      <path
         inkscape:connector-curvature="0"
         style="fill:#e27c9f"
         d="m 926.228,199.772 c 0.025,-0.479 -0.074,-0.915 -0.312,-1.316 -0.256,-0.446 -0.616,-0.76 -1.096,-0.933 l -0.245,-0.017 -7.67,-0.525 -0.775,-0.057 c -0.73,-0.042 -1.351,0.139 -1.868,0.533 -0.486,0.354 -0.767,0.817 -0.856,1.376 -0.09,0.57 0.057,1.072 0.445,1.508 0.429,0.485 1.087,0.79 1.984,0.913 l 0.545,0.042 7.743,0.544 0.392,0.024 c 0.521,-0.125 0.932,-0.386 1.235,-0.799 0.29,-0.37 0.452,-0.798 0.478,-1.293"
         id="path1321" />
      <path
         inkscape:connector-curvature="0"
         style="fill:#e27c9f"
         d="m 926.221,232.405 c 0.296,-0.377 0.461,-0.797 0.495,-1.259 0.04,-0.503 -0.077,-0.963 -0.364,-1.385 l -1.756,-1.406 -5.024,-4.053 c -0.583,-0.453 -1.192,-0.658 -1.836,-0.634 -0.533,0.024 -0.987,0.198 -1.356,0.536 -0.043,0.041 -0.083,0.073 -0.126,0.116 -0.396,0.404 -0.559,0.896 -0.494,1.474 0.067,0.634 0.421,1.26 1.063,1.862 0.008,0.008 0.017,0.018 0.024,0.024 l 6.778,5.46 c 0.503,0.198 0.99,0.214 1.476,0.042 0.063,-0.015 0.131,-0.042 0.198,-0.066 0.354,-0.141 0.667,-0.373 0.922,-0.711"
         id="path1323" />
      <path
         inkscape:connector-curvature="0"
         style="fill:#e86501"
         d="m 926.805,240.166 c 0.058,0.229 0.125,0.459 0.191,0.683 0.038,-0.014 0.063,-0.032 0.089,-0.058 0.024,-0.041 0.049,-0.175 0.074,-0.396 -0.125,-0.074 -0.239,-0.156 -0.354,-0.229"
         id="path1325" />
      <path
         inkscape:connector-curvature="0"
         style="fill:#e86501"
         d="m 926.996,240.849 c -0.066,-0.223 -0.134,-0.454 -0.191,-0.683 -0.585,-2.2 -1.087,-4.548 -1.506,-7.052 -0.067,0.024 -0.135,0.051 -0.198,0.066 -0.485,0.172 -0.973,0.156 -1.476,-0.042 l -6.778,-5.46 c -0.008,-0.006 -0.018,-0.016 -0.024,-0.024 0.106,0.651 0.229,1.269 0.362,1.837 0.032,0.139 0.065,0.28 0.107,0.419 -0.24,-0.139 -0.463,-0.24 -0.675,-0.306 v 0.372 c 1.308,1.745 3.293,4.036 5.937,6.869 2.521,2.694 3.89,4.043 4.111,4.043 0.14,0 0.255,-0.015 0.331,-0.039"
         id="path1327" />
      <path
         inkscape:connector-curvature="0"
         style="fill:#e86501"
         d="m 924.122,201.84 -7.743,-0.544 c -0.215,2.051 -0.381,4.101 -0.496,6.154 -0.049,0.906 -0.089,1.745 -0.115,2.52 l 7.907,1.3 c 0.016,-1.179 0.052,-2.365 0.092,-3.55 0.073,-2.017 0.196,-3.976 0.355,-5.88"
         id="path1329" />
      <path
         inkscape:connector-curvature="0"
         style="fill:#e27c9f"
         d="m 925.356,212.391 c -0.214,-0.453 -0.552,-0.79 -1.006,-1.015 l -0.676,-0.104 -7.905,-1.301 h -0.011 c -0.724,-0.109 -1.365,0.008 -1.919,0.354 -0.504,0.319 -0.831,0.757 -0.974,1.292 -0.136,0.553 -0.032,1.062 0.309,1.532 0.379,0.536 1.005,0.898 1.884,1.104 l 0.711,0.116 7.881,1.293 c 0.018,0 0.033,0 0.05,-0.008 0.503,-0.074 0.922,-0.305 1.251,-0.674 0.322,-0.34 0.52,-0.751 0.593,-1.238 0.073,-0.479 0.01,-0.931 -0.188,-1.351"
         id="path1331" />
      <path
         inkscape:connector-curvature="0"
         style="fill:#e86501"
         d="m 915.769,214.368 c 0.007,0.115 0.007,0.23 0.015,0.338 0.124,1.705 0.272,4.232 0.437,7.582 0.042,0.67 0.101,1.303 0.159,1.914 0.369,-0.338 0.823,-0.512 1.356,-0.537 0.644,-0.022 1.253,0.181 1.837,0.635 l 5.023,4.053 c -0.09,-0.742 -0.179,-1.492 -0.255,-2.258 -0.353,-3.442 -0.569,-6.926 -0.641,-10.443 -0.017,0.009 -0.032,0.009 -0.05,0.009 l -7.881,-1.293 z"
         id="path1333" />
      <path
         inkscape:connector-curvature="0"
         style="fill:none;stroke:#e52025;stroke-width:1.31780005;stroke-linecap:round;stroke-linejoin:round;stroke-miterlimit:10"
         d="m 930.125,177.622 c -0.017,0.026 -0.033,0.058 -0.041,0.083 -1.812,3.139 -3.27,7.414 -4.375,12.816 -0.451,2.225 -0.832,4.554 -1.134,6.984 l 0.244,0.018 c 0.48,0.173 0.84,0.487 1.096,0.933 0.238,0.402 0.338,0.837 0.312,1.315 -0.025,0.496 -0.188,0.923 -0.479,1.294 -0.304,0.412 -0.714,0.674 -1.235,0.799 l -0.392,-0.025 c -0.159,1.904 -0.282,3.863 -0.355,5.88 -0.04,1.186 -0.076,2.373 -0.092,3.552 l 0.676,0.104 c 0.454,0.225 0.792,0.562 1.006,1.015 0.197,0.42 0.261,0.873 0.188,1.35 -0.073,0.487 -0.271,0.898 -0.593,1.238 -0.329,0.37 -0.748,0.599 -1.251,0.674 m 3.787,26.9 c -0.172,-0.551 -0.337,-1.12 -0.491,-1.704 -0.065,-0.223 -0.134,-0.454 -0.191,-0.683 -0.584,-2.2 -1.087,-4.548 -1.505,-7.052 0.354,-0.139 0.666,-0.371 0.921,-0.709 0.296,-0.377 0.461,-0.797 0.495,-1.259 0.04,-0.503 -0.076,-0.963 -0.364,-1.385 l -1.756,-1.407 c -0.09,-0.742 -0.179,-1.492 -0.255,-2.257 -0.353,-3.442 -0.569,-6.927 -0.641,-10.444 m 0.339,-42.847 c -3.158,5.032 -5.495,12.774 -7.003,23.211 -0.042,0.32 -0.09,0.641 -0.132,0.964 l -0.774,-0.058 c -0.731,-0.042 -1.352,0.14 -1.869,0.533 -0.486,0.355 -0.767,0.817 -0.856,1.377 -0.09,0.569 0.057,1.071 0.445,1.508 0.43,0.486 1.087,0.79 1.984,0.913 l 0.545,0.042 c -0.214,2.052 -0.381,4.102 -0.496,6.154 -0.049,0.905 -0.089,1.745 -0.114,2.521 h -0.01 c -0.724,-0.109 -1.364,0.008 -1.919,0.354 -0.503,0.319 -0.831,0.756 -0.973,1.292 -0.137,0.552 -0.032,1.062 0.308,1.531 0.379,0.537 1.005,0.899 1.884,1.104 l 0.71,0.116 c 0.007,0.115 0.007,0.23 0.015,0.338 0.124,1.705 0.273,4.233 0.437,7.583 0.042,0.669 0.101,1.302 0.159,1.913 -0.043,0.041 -0.083,0.073 -0.126,0.116 -0.396,0.404 -0.559,0.896 -0.494,1.474 0.067,0.634 0.421,1.26 1.063,1.862 0.008,0.008 0.017,0.018 0.024,0.024 m 6.803,-12.016 c 0.019,0 0.033,0 0.05,-0.009"
         id="path1335" />
      <path
         inkscape:connector-curvature="0"
         style="fill:#f0e9ce"
         d="m 893.592,75.375 c 0.011,-4.508 0.391,-8.848 1.121,-13.018 1.063,-2.533 3.152,-5.337 6.262,-8.406 2.402,-2.372 5.384,-4.337 8.927,-5.883 1.022,-0.454 2.107,-0.869 3.259,-1.239 0.561,-0.191 1.112,-0.365 1.659,-0.523 0.725,-0.204 1.452,-0.382 2.186,-0.545 3.61,-0.657 7.393,-0.581 11.335,0.244 0.314,0.063 0.644,0.144 0.991,0.242 3.558,0.888 6.987,2.471 10.282,4.743 3.587,2.463 6.72,5.526 9.372,9.178 1.877,2.59 3.388,5.211 4.533,7.866 0.994,2.511 0.607,4.419 -1.148,5.729 -0.422,0.275 -0.873,0.539 -1.34,0.776 -1.162,0.55 -2.449,0.919 -3.873,1.113 -2.97,0.425 -5.932,0.447 -8.882,0.069 -0.463,-0.057 -0.933,-0.139 -1.409,-0.238 -0.396,-0.052 -0.802,-0.129 -1.194,-0.231 -3.233,-0.675 -6.489,-1.238 -9.769,-1.689 -3.791,-0.521 -7.818,-0.58 -12.084,-0.181 -4.266,0.423 -7.993,1.302 -11.175,2.635 -3.169,1.344 -6.186,3.002 -9.061,4.966 0.005,-1.559 0.013,-3.428 0.008,-5.608"
         id="path1337" />
      <path
         inkscape:connector-curvature="0"
         style="fill:#ce0e19"
         d="m 909.243,47.169 -0.016,-0.035 c -0.153,-0.494 -0.127,-0.983 0.079,-1.468 0.256,-0.483 0.63,-0.809 1.108,-0.964 l 4.135,-1.465 c 0.512,-0.169 0.992,-0.144 1.461,0.094 0.481,0.247 0.807,0.623 0.977,1.125 l -0.003,0.042 c 0.175,0.447 0.179,0.864 0.021,1.262 -0.733,0.164 -1.461,0.342 -2.186,0.545 -0.547,0.158 -1.099,0.333 -1.659,0.523 -1.151,0.37 -2.236,0.786 -3.259,1.239 -0.304,-0.209 -0.53,-0.505 -0.658,-0.898"
         id="path1339" />
      <path
         inkscape:connector-curvature="0"
         style="fill:#ce0e19"
         d="m 925.902,73.561 c 3.28,0.451 6.536,1.014 9.769,1.69 0.394,0.102 0.799,0.178 1.195,0.23 l 1.299,0.534 0.018,-0.007 c -0.244,0.679 -0.528,1.357 -0.863,2.014 -0.455,0.894 -0.991,1.758 -1.613,2.6 -1.428,1.965 -3.226,3.692 -5.405,5.188 -1.852,1.28 -3.757,2.261 -5.721,2.935 -3.117,1.069 -6.504,1.595 -10.168,1.567 -2.209,-0.03 -4.993,-0.307 -8.338,-0.837 -0.39,-0.067 -0.772,-0.135 -1.144,-0.218 -4.495,-0.74 -7.409,-1.165 -8.735,-1.282 -3.073,-0.239 -5.664,0.005 -7.79,0.726 l -0.917,-0.835 6.004,-6.604 0.088,-0.198 c 0.009,-0.023 0.012,-0.057 0.004,-0.081 2.875,-1.964 5.892,-3.622 9.061,-4.966 3.182,-1.333 6.909,-2.213 11.175,-2.636 4.264,-0.4 8.291,-0.34 12.081,0.18"
         id="path1341" />
      <path
         inkscape:connector-curvature="0"
         style="fill:#804396"
         d="m 887.488,87.864 0.917,0.834 c -0.613,0.22 -1.189,0.474 -1.739,0.764 l -0.197,-0.457 1.019,-1.141 z"
         id="path1343" />
      <path
         inkscape:connector-curvature="0"
         style="fill:none;stroke:#ce0e19;stroke-width:0.6541;stroke-linecap:round;stroke-linejoin:round;stroke-miterlimit:10"
         d="m 936.05,74.842 c -0.972,-4.608 -2.089,-8.668 -3.351,-12.184 -1.021,-2.874 -2.085,-5.235 -3.194,-7.083 -1.222,-2.077 -2.638,-3.75 -4.238,-5.016 -2.342,-1.893 -5.508,-3.18 -9.495,-3.854"
         id="path1345" />
      <path
         inkscape:connector-curvature="0"
         style="fill:none;stroke:#4a4646;stroke-width:1.3082;stroke-linecap:round;stroke-linejoin:round;stroke-miterlimit:10"
         d="m 938.302,75.722 c 2.94,0.378 5.9,0.355 8.88,-0.068 1.414,-0.188 2.694,-0.565 3.849,-1.124 0.467,-0.239 0.918,-0.493 1.355,-0.774 1.758,-1.311 2.153,-3.218 1.174,-5.737 -1.119,-2.652 -2.727,-5.519 -4.816,-8.599 -2.087,-3.088 -4.413,-5.717 -6.963,-7.895 -2.546,-2.187 -5.199,-3.724 -7.949,-4.597 -2.749,-0.873 -5.3,-1.469 -7.654,-1.78 -2.346,-0.321 -5.318,-0.143 -8.929,0.531 m 21.053,30.043 c -0.022,0.079 -0.055,0.176 -0.086,0.28 -0.252,0.688 -0.547,1.365 -0.89,2.028 -0.446,0.886 -0.988,1.75 -1.63,2.59 -1.424,1.974 -3.226,3.709 -5.413,5.203 -1.849,1.272 -3.755,2.246 -5.713,2.936 -3.116,1.071 -6.503,1.596 -10.149,1.562 -2.218,-0.032 -4.995,-0.307 -8.342,-0.845 -0.38,-0.075 -0.758,-0.151 -1.138,-0.218 -4.475,-0.748 -7.377,-1.18 -8.705,-1.298 -3.057,-0.238 -5.646,-10e-4 -7.77,0.72 -0.614,0.219 -1.198,0.473 -1.743,0.771 -0.561,0.303 -1.088,0.662 -1.566,1.07 m -1.128,1.002 c 0.188,-0.256 0.389,-0.513 0.612,-0.768 0.564,-0.616 1.198,-1.204 1.885,-1.762 m -1.369,1.528 c -0.396,0.293 -0.774,0.627 -1.128,1.003 m 0,-0.001 c -0.531,0.692 -0.932,1.378 -1.184,2.057 m 2.312,-3.059 1.369,-1.527 m 0,0 7.058,-7.767 m 23.664,-35.548 c 0.167,-0.405 0.172,-0.833 0.016,-1.277 -0.177,-0.528 -0.503,-0.913 -0.985,-1.152 -0.46,-0.252 -0.94,-0.286 -1.435,-0.115 L 910.7,44.59 c -0.493,0.162 -0.869,0.488 -1.124,0.979 -0.207,0.485 -0.233,0.983 -0.065,1.496 0.14,0.394 0.355,0.696 0.643,0.913 m 7.094,-2.299 c -0.726,0.156 -1.45,0.333 -2.169,0.538 -0.551,0.149 -1.115,0.324 -1.675,0.521 -1.143,0.38 -2.229,0.796 -3.251,1.241 m 0,-10e-4 c -3.542,1.556 -6.524,3.519 -8.937,5.892 -3.127,3.085 -5.221,5.888 -6.283,8.421 -0.776,4.183 -1.173,8.531 -1.2,13.047 -0.019,2.186 -0.038,4.052 -0.057,5.607 2.883,-1.97 5.909,-3.617 9.076,-4.962 3.185,-1.335 6.898,-2.206 11.147,-2.622 4.269,-0.414 8.299,-0.354 12.088,0.173 3.271,0.449 6.509,1.029 9.715,1.72 0.403,0.102 0.801,0.179 1.188,0.238 0.476,0.083 0.948,0.157 1.41,0.23"
         id="path1347" />
      <path
         inkscape:connector-curvature="0"
         style="fill:#ce0e19"
         d="m 897.937,65.146 0.895,-2.354 5.696,-1.045 0.999,3.078 -0.652,0.119 1.716,5.275 0.649,-0.119 1.025,3.146 -5.604,1.026 -2.354,-1.836 -1.068,-3.279 0.219,-0.632 -0.581,-0.491 -0.94,-2.888 z m 5.803,-1.061 0.639,-0.12 -0.351,-1.073 -4.35,0.802 -0.78,1.789 0.694,2.14 1.04,0.786 -0.439,1.051 0.769,2.364 1.798,1.363 4.35,-0.802 -0.362,-1.131 -0.64,0.118 -2.368,-7.287 z"
         id="path1349" />
      <path
         inkscape:connector-curvature="0"
         style="fill:#e60412"
         d="m 904.378,63.966 -0.638,0.12 2.367,7.287 0.64,-0.119 0.362,1.133 -4.35,0.802 -1.798,-1.363 -0.769,-2.364 0.439,-1.051 -1.04,-0.786 -0.694,-2.14 0.78,-1.79 4.35,-0.802 0.351,1.073 z m -1.782,0.327 -2.169,0.413 -0.344,0.689 0.609,1.862 0.727,0.5 2.173,-0.396 -0.996,-3.068 z m -0.555,7.123 0.746,0.569 2.173,-0.405 -1.063,-3.278 -2.163,0.438 -0.314,0.773 0.621,1.903 z"
         id="path1351" />
      <path
         inkscape:connector-curvature="0"
         style="fill:#ce0e19"
         d="m 900.427,64.706 2.169,-0.413 0.996,3.068 -2.173,0.397 -0.727,-0.501 -0.608,-1.862 0.343,-0.689 z m 2.03,1.806 -0.353,-1.065 -1.087,0.202 0.351,1.066 1.089,-0.203 z"
         id="path1353" />
      <path
         inkscape:connector-curvature="0"
         style="fill:#ce0e19"
         d="m 902.786,71.985 -0.745,-0.57 -0.622,-1.903 0.315,-0.772 2.162,-0.439 1.064,3.279 -2.174,0.405 z m 1.033,-1.263 -0.413,-1.268 -1.087,0.203 0.41,1.267 1.09,-0.202 z"
         id="path1355" />
      <path
         inkscape:connector-curvature="0"
         style="fill:#ce0e19"
         d="m 910.697,58.794 -0.647,0.134 1.762,5.426 0.662,-0.118 1.051,3.246 -5.774,1.038 -2.419,-1.882 -1.099,-3.379 0.235,-0.648 -0.621,-0.502 -0.955,-2.976 0.923,-2.42 5.868,-1.073 1.014,3.154 z m -1.83,-0.759 0.666,-0.119 -0.375,-1.099 -4.459,0.819 -0.832,1.843 0.729,2.206 1.073,0.831 -0.443,1.075 0.772,2.414 1.868,1.427 4.477,-0.827 -0.378,-1.182 -0.657,0.135 -2.441,-7.523 z"
         id="path1357" />
      <path
         inkscape:connector-curvature="0"
         style="fill:#e60412"
         d="m 909.533,57.917 -0.666,0.118 2.441,7.522 0.659,-0.136 0.376,1.183 -4.477,0.827 -1.868,-1.427 -0.772,-2.414 0.443,-1.074 -1.073,-0.831 -0.729,-2.207 0.832,-1.843 4.459,-0.818 0.375,1.1 z m -4.078,0.772 -0.362,0.704 0.635,1.929 0.745,0.502 2.241,-0.399 -1.034,-3.155 -2.225,0.419 z m 1.347,4.159 -0.317,0.783 0.619,1.959 0.785,0.605 2.225,-0.427 -1.075,-3.377 -2.237,0.457 z"
         id="path1359" />
      <path
         inkscape:connector-curvature="0"
         style="fill:#ce0e19"
         d="m 905.093,59.394 0.362,-0.704 2.225,-0.418 1.034,3.154 -2.241,0.399 -0.745,-0.501 -0.635,-1.93 z m 0.965,0.272 0.351,1.09 1.137,-0.207 -0.373,-1.1 -1.115,0.217 z"
         id="path1361" />
      <path
         inkscape:connector-curvature="0"
         style="fill:#ce0e19"
         d="m 906.484,63.631 0.316,-0.783 2.237,-0.458 1.075,3.378 -2.225,0.427 -0.785,-0.604 -0.618,-1.96 z m 1.35,1.453 1.114,-0.2 -0.427,-1.309 -1.122,0.217 0.435,1.292 z"
         id="path1363" />
      <path
         inkscape:connector-curvature="0"
         style="fill:#f2b800"
         d="m 886.828,60.268 c 2.496,-4.523 5.852,-8.442 10.068,-11.779 4.199,-3.319 8.921,-5.777 14.17,-7.385 5.43,-1.661 11.029,-2.294 16.813,-1.89 5.781,0.403 11.23,1.809 16.359,4.208 4.975,2.324 9.316,5.413 13.012,9.287 3.711,3.891 6.489,8.239 8.323,13.065 1.919,5.018 2.698,10.187 2.324,15.513 -0.93,13.303 -5.852,23.032 -14.772,29.186 -7.804,5.479 -18.036,7.779 -30.71,6.893 -5.913,-0.413 -11.354,-1.613 -16.324,-3.592 l -0.005,-0.001 c -5.127,-2.055 -9.498,-4.834 -13.113,-8.333 -7.933,-7.643 -11.469,-17.693 -10.599,-30.13 0.374,-5.329 1.855,-10.339 4.454,-15.042 m 10.883,-10.747 c -4.068,3.215 -7.319,7.013 -9.731,11.384 -2.506,4.538 -3.937,9.363 -4.297,14.493 -0.84,12.015 2.553,21.71 10.19,29.104 3.509,3.384 7.741,6.065 12.708,8.06 4.848,1.928 10.161,3.093 15.926,3.498 12.324,0.861 22.282,-1.36 29.872,-6.657 8.579,-5.957 13.315,-15.362 14.217,-28.208 0.357,-5.131 -0.392,-10.108 -2.241,-14.951 -1.781,-4.665 -4.469,-8.876 -8.061,-12.627 -3.582,-3.758 -7.779,-6.765 -12.606,-9.011 -4.982,-2.333 -10.281,-3.694 -15.9,-4.086 -5.619,-0.395 -11.064,0.217 -16.338,1.832 -5.089,1.553 -9.669,3.945 -13.739,7.169"
         id="path1365" />
      <path
         inkscape:connector-curvature="0"
         style="fill:#fcdf00"
         d="m 887.98,60.906 c 2.411,-4.373 5.662,-8.169 9.731,-11.384 4.069,-3.224 8.649,-5.616 13.737,-7.17 5.273,-1.614 10.719,-2.226 16.338,-1.833 5.619,0.393 10.918,1.754 15.901,4.087 4.826,2.246 9.024,5.252 12.605,9.011 3.592,3.75 6.279,7.963 8.061,12.627 1.85,4.842 2.6,9.819 2.241,14.951 -0.901,12.846 -5.639,22.251 -14.219,28.207 -7.588,5.297 -17.546,7.519 -29.87,6.658 -5.765,-0.405 -11.077,-1.569 -15.926,-3.499 -4.967,-1.995 -9.199,-4.675 -12.708,-8.059 -7.638,-7.394 -11.03,-17.089 -10.19,-29.104 0.362,-5.128 1.793,-9.955 4.299,-14.492"
         id="path1367" />
      <path
         inkscape:connector-curvature="0"
         style="fill:#e27c9f"
         d="m 924.644,69.601 c -1.846,-1.952 -3.897,-3.353 -6.166,-4.223 -2.197,-0.847 -4.347,-1.113 -6.448,-0.777 1.018,-0.623 2.073,-1.088 3.182,-1.378 1.599,-0.421 3.186,-0.481 4.771,-0.175 1.588,0.3 3.058,0.934 4.425,1.912 2.168,1.557 3.735,3.685 4.701,6.391 0.938,2.648 1.143,5.375 0.609,8.182 -0.337,-1.795 -0.929,-3.537 -1.768,-5.222 -0.868,-1.738 -1.97,-3.31 -3.306,-4.71"
         id="path1369" />
      <path
         inkscape:connector-curvature="0"
         style="fill:#0076be"
         d="m 918.478,65.378 c 2.269,0.87 4.32,2.271 6.166,4.223 1.337,1.4 2.438,2.972 3.306,4.709 0.84,1.685 1.431,3.426 1.768,5.222 -0.343,1.684 -0.896,3.222 -1.678,4.605 l -0.649,1.05 c 0.089,-2.183 -0.288,-4.359 -1.115,-6.533 -0.852,-2.257 -2.104,-4.266 -3.759,-6.016 -2.225,-2.353 -4.729,-3.844 -7.52,-4.464 -2.724,-0.616 -5.179,-0.271 -7.366,1.021 1.153,-1.97 2.622,-3.5 4.399,-4.595 2.101,-0.335 4.25,-0.069 6.448,0.778"
         id="path1371" />
      <path
         inkscape:connector-curvature="0"
         style="fill:#ffffff"
         d="m 907.63,69.196 c 2.188,-1.292 4.643,-1.637 7.366,-1.021 2.79,0.621 5.295,2.111 7.52,4.464 1.655,1.75 2.907,3.759 3.76,6.016 0.826,2.174 1.203,4.35 1.114,6.533 -0.889,1.302 -1.933,2.389 -3.142,3.277 -1.216,0.887 -2.528,1.515 -3.938,1.881 -1.595,0.42 -3.186,0.481 -4.757,0.176 -1.585,-0.301 -3.062,-0.944 -4.436,-1.93 -2.827,-2.028 -4.595,-4.914 -5.307,-8.656 -0.711,-3.752 -0.146,-7.259 1.687,-10.522 l 0.133,-0.218 z"
         id="path1373" />
      <path
         inkscape:connector-curvature="0"
         style="fill:#e27c9f"
         d="m 891.936,67.375 c 1.909,-1.635 3.932,-2.716 6.078,-3.255 2.081,-0.529 4.045,-0.502 5.885,0.095 -0.832,-0.733 -1.719,-1.318 -2.673,-1.743 -1.374,-0.611 -2.794,-0.876 -4.257,-0.789 -1.462,0.08 -2.862,0.498 -4.214,1.26 -2.152,1.213 -3.833,3.055 -5.051,5.532 -1.188,2.424 -1.729,5.019 -1.617,7.789 0.536,-1.685 1.296,-3.282 2.27,-4.793 1.002,-1.554 2.197,-2.922 3.579,-4.096"
         id="path1375" />
      <path
         inkscape:connector-curvature="0"
         style="fill:#0076be"
         d="m 898.014,64.12 c -2.146,0.54 -4.169,1.62 -6.078,3.256 -1.382,1.172 -2.576,2.541 -3.579,4.096 -0.974,1.511 -1.733,3.108 -2.27,4.792 0.088,1.664 0.387,3.215 0.905,4.648 l 0.445,1.094 c 0.205,-2.11 0.826,-4.154 1.852,-6.137 1.058,-2.059 2.443,-3.827 4.157,-5.293 2.302,-1.974 4.741,-3.08 7.323,-3.311 2.527,-0.237 4.682,0.413 6.477,1.943 -0.779,-2.046 -1.896,-3.71 -3.35,-4.993 -1.837,-0.598 -3.801,-0.624 -5.882,-0.095"
         id="path1377" />
      <path
         inkscape:connector-curvature="0"
         style="fill:#ffffff"
         d="m 907.246,69.208 c -1.794,-1.529 -3.949,-2.18 -6.477,-1.943 -2.582,0.231 -5.022,1.338 -7.323,3.312 -1.714,1.465 -3.099,3.233 -4.157,5.292 -1.025,1.983 -1.646,4.027 -1.851,6.137 0.63,1.369 1.421,2.551 2.387,3.562 0.978,1.013 2.072,1.787 3.289,2.324 1.372,0.612 2.791,0.878 4.241,0.788 1.461,-0.08 2.868,-0.504 4.229,-1.274 2.8,-1.582 4.762,-4.126 5.889,-7.632 1.128,-3.515 1.081,-6.959 -0.14,-10.338 l -0.087,-0.228 z"
         id="path1379" />
      <path
         inkscape:connector-curvature="0"
         style="fill:#1a1515"
         d="m 912.912,76.197 c 0.747,0.964 1.078,2.086 0.988,3.359 -0.09,1.289 -0.572,2.347 -1.449,3.19 -0.875,0.851 -1.888,1.236 -3.028,1.156 -1.155,-0.081 -2.097,-0.602 -2.84,-1.565 -0.752,-0.958 -1.082,-2.073 -0.994,-3.362 0.091,-1.271 0.574,-2.337 1.452,-3.188 0.869,-0.851 1.875,-1.237 3.028,-1.155 1.143,0.077 2.092,0.601 2.843,1.565"
         id="path1381" />
      <path
         inkscape:connector-curvature="0"
         style="fill:#1a1515"
         d="m 892.649,74.929 c -0.782,0.829 -1.219,1.861 -1.304,3.092 -0.088,1.246 0.201,2.323 0.864,3.244 0.661,0.928 1.504,1.429 2.516,1.5 1.028,0.072 1.922,-0.307 2.702,-1.135 0.785,-0.819 1.221,-1.845 1.307,-3.092 0.086,-1.23 -0.203,-2.314 -0.863,-3.243 -0.657,-0.927 -1.492,-1.428 -2.518,-1.5 -1.013,-0.071 -1.918,0.306 -2.704,1.134"
         id="path1383" />
      <path
         inkscape:connector-curvature="0"
         style="fill:#fcdf00"
         d="m 883.086,98.837 c -0.897,-2.538 0.872,-3.324 5.305,-2.367 3.334,-1.634 5.074,-2.48 5.226,-2.527 0.587,0.164 4.578,1.452 11.973,3.878 5.521,1.803 8.947,2.763 10.258,2.872 -0.38,4.178 -3.97,6.28 -10.783,6.302 -3.492,0.018 -7.614,-0.705 -12.364,-2.167 -3.327,-1.339 -6.531,-3.332 -9.615,-5.991"
         id="path1385" />
      <path
         inkscape:connector-curvature="0"
         style="fill:none;stroke:#f2b800;stroke-width:1.3082;stroke-miterlimit:10"
         d="m 888.391,96.47 c 3.334,-1.634 5.074,-2.481 5.226,-2.528 0.587,0.165 4.578,1.452 11.972,3.878 5.522,1.804 8.948,2.764 10.259,2.873 -0.381,4.178 -3.97,6.28 -10.783,6.303 -3.492,0.018 -7.614,-0.705 -12.364,-2.167 -3.325,-1.34 -6.529,-3.333 -9.613,-5.991 -0.9,-2.539 0.87,-3.326 5.303,-2.368 z"
         id="path1387" />
      <path
         inkscape:connector-curvature="0"
         style="fill:#fcdf00"
         d="m 894.067,84.049 c 2.31,-1.24 4.365,-2.013 6.181,-2.338 2.985,-0.512 5.17,0.238 6.546,2.244 0.328,0.483 0.724,1.025 1.197,1.641 0.488,0.648 0.893,1.202 1.211,1.658 0.328,0.482 1.234,1.226 2.713,2.222 1.535,1.034 2.497,1.807 2.89,2.3 1.17,1.09 2.01,2.895 2.523,5.423 0.536,2.619 0.187,4.003 -1.048,4.172 -4.567,0.623 -9.781,0.774 -15.651,0.462 -5.717,-0.292 -10.967,-0.954 -15.743,-2.002 -5.039,-1.098 -8.611,-2.414 -10.711,-3.944 -2.344,-1.714 -2.546,-3.515 -0.589,-5.386 0.711,-0.679 3.695,-1.634 8.938,-2.866 5.764,-1.342 9.612,-2.54 11.543,-3.586"
         id="path1389" />
      <path
         inkscape:connector-curvature="0"
         style="fill:none;stroke:#f2b800;stroke-width:1.3082;stroke-miterlimit:10"
         d="m 900.248,81.71 c 2.985,-0.512 5.17,0.239 6.546,2.245 0.328,0.482 0.723,1.025 1.197,1.64 0.488,0.649 0.893,1.203 1.211,1.659 0.328,0.481 1.234,1.225 2.713,2.221 1.535,1.035 2.497,1.806 2.89,2.3 1.17,1.09 2.01,2.895 2.523,5.422 0.536,2.619 0.187,4.004 -1.048,4.173 -4.567,0.623 -9.781,0.774 -15.651,0.462 -5.717,-0.293 -10.967,-0.955 -15.743,-2.003 -5.039,-1.097 -8.612,-2.413 -10.711,-3.944 -2.344,-1.713 -2.546,-3.515 -0.589,-5.386 0.71,-0.679 3.695,-1.633 8.938,-2.866 5.764,-1.342 9.611,-2.541 11.543,-3.586 2.31,-1.238 4.365,-2.012 6.181,-2.337 z"
         id="path1391" />
      <path
         inkscape:connector-curvature="0"
         style="fill:#f2b800"
         d="m 912.225,34.956 c -1.025,-0.018 -2.033,0.301 -3.018,0.942 1.653,0.033 3.497,1.425 5.536,4.175 0.423,0.573 0.893,1.051 1.402,1.432 -0.101,0.017 -0.206,0.033 -0.306,0.059 -0.69,0.146 -1.262,0.325 -1.731,0.528 -0.239,-0.256 -0.473,-0.529 -0.698,-0.821 -0.048,-0.06 -0.096,-0.119 -0.137,-0.179 -2.174,-2.797 -4.347,-4.321 -6.514,-4.563 1.937,-2.265 3.792,-3.355 5.58,-3.27 1.791,0.06 3.503,0.959 5.139,2.689 l 0.005,0.023 c 0.252,0.305 0.484,0.595 0.7,0.855 0.004,-0.346 0.037,-0.688 0.085,-1.042 0.401,-3.305 -0.124,-5.824 -1.587,-7.557 3.104,0.022 5.305,0.714 6.603,2.062 1.216,1.259 1.858,2.907 1.92,4.945 0.489,-0.275 1.035,-0.499 1.636,-0.665 3.134,-0.945 5.044,-2.405 5.735,-4.375 1.736,2.734 2.389,4.938 1.939,6.622 -0.101,0.378 -0.24,0.73 -0.411,1.062 -0.479,0.897 -1.232,1.653 -2.266,2.261 -0.741,0.012 -2.1,0.118 -4.07,0.324 l -0.004,-0.017 -1.925,0.317 c 0.312,-0.262 0.7,-0.521 1.165,-0.765 0.476,-0.238 1.508,-0.619 3.101,-1.142 1.554,-0.533 2.491,-1.479 2.808,-2.84 0.238,-0.966 0.15,-2.047 -0.261,-3.246 -0.384,1.555 -2.091,2.765 -5.145,3.611 -1.587,0.438 -2.661,1.374 -3.226,2.799 -0.279,0.729 -0.363,1.4 -0.246,2.013 -0.085,0.057 -0.153,0.11 -0.204,0.168 -0.407,-0.616 -0.643,-1.496 -0.716,-2.639 -0.02,-0.554 0.054,-1.679 0.223,-3.385 0.149,-1.669 -0.31,-3.035 -1.384,-4.091 -0.764,-0.75 -1.746,-1.291 -2.964,-1.621 1.218,1.225 1.605,3.422 1.145,6.6 -0.242,1.651 0.156,3.13 1.186,4.436 0.16,0.201 0.332,0.393 0.499,0.56 -0.163,0.035 -0.305,0.065 -0.434,0.104 -0.843,0.036 -1.834,-0.475 -2.968,-1.546 -0.427,-0.41 -1.216,-1.317 -2.346,-2.726 -1.134,-1.388 -2.415,-2.088 -3.846,-2.097"
         id="path1393" />
      <path
         inkscape:connector-curvature="0"
         style="fill:#fcdf00"
         d="m 909.207,35.897 c 0.984,-0.641 1.992,-0.959 3.018,-0.942 1.432,0.01 2.712,0.709 3.848,2.1 1.13,1.409 1.919,2.316 2.346,2.726 1.135,1.071 2.125,1.582 2.968,1.546 0.017,-0.004 0.032,-0.005 0.046,-0.009 0.138,-0.014 0.264,-0.035 0.396,-0.064 0.008,-0.01 0.008,-0.01 0.016,-0.011 -0.012,-0.006 -0.016,-0.015 -0.024,-0.02 -0.167,-0.167 -0.339,-0.359 -0.499,-0.56 -1.029,-1.306 -1.428,-2.785 -1.186,-4.436 0.461,-3.177 0.073,-5.375 -1.145,-6.6 1.218,0.33 2.2,0.87 2.964,1.621 1.074,1.056 1.533,2.422 1.384,4.091 -0.169,1.706 -0.242,2.831 -0.222,3.385 0.073,1.144 0.308,2.023 0.716,2.639 0.122,0.184 0.261,0.345 0.413,0.48 -0.016,-0.022 -0.021,-0.047 -0.036,-0.07 l -0.168,-0.52 c 0.002,-0.026 -0.002,-0.042 -0.006,-0.059 -0.117,-0.613 -0.033,-1.285 0.246,-2.013 0.564,-1.425 1.639,-2.361 3.226,-2.799 3.054,-0.846 4.761,-2.056 5.145,-3.611 0.411,1.198 0.499,2.28 0.261,3.246 -0.316,1.36 -1.253,2.307 -2.808,2.84 -1.593,0.523 -2.625,0.904 -3.101,1.142 -0.465,0.245 -0.853,0.503 -1.165,0.765 -0.444,0.385 -0.738,0.787 -0.874,1.215 -0.065,0.205 -0.093,0.42 -0.081,0.646 0,0.042 0.006,0.083 0.008,0.125 l 0.018,0.038 c -0.045,-0.042 -0.09,-0.085 -0.136,-0.137 -0.119,-0.141 -0.229,-0.283 -0.324,-0.428 l -0.918,-0.034 c -0.044,-0.01 -0.087,-0.019 -0.13,-0.03 -0.532,-0.14 -1.036,-0.428 -1.518,-0.88 -0.572,1.081 -1.625,1.506 -3.158,1.287 -0.191,-0.028 -0.381,-0.065 -0.567,-0.109 -0.141,-0.037 -0.284,-0.081 -0.428,-0.125 -0.024,-0.004 -0.053,-0.017 -0.078,-0.021 l -0.529,-0.216 c -0.064,-0.032 -0.121,-0.063 -0.187,-0.096 -0.014,-0.007 -0.021,-0.005 -0.028,-0.012 -0.204,-0.109 -0.39,-0.223 -0.579,-0.352 -0.021,-0.013 -0.04,-0.026 -0.063,-0.049 -0.01,-0.007 -0.017,-0.004 -0.028,-0.013 -0.01,-0.006 -0.011,-0.014 -0.021,-0.021 -0.01,-0.006 -0.019,-0.014 -0.03,-0.021 -0.008,-0.006 -0.03,-0.019 -0.039,-0.026 -0.511,-0.381 -0.98,-0.859 -1.402,-1.432 -2.043,-2.751 -3.888,-4.142 -5.541,-4.176"
         id="path1395" />
      <path
         inkscape:connector-curvature="0"
         style="fill:#9c4596"
         d="m 982.161,59.599 c -0.005,0.401 -0.023,0.792 -0.05,1.192 -0.259,3.694 -0.654,6.421 -1.193,8.162 -0.076,0.233 -0.147,0.473 -0.238,0.705 -2.165,5.644 -4.916,9.123 -8.253,10.44 -2.642,0.823 -5.057,0.645 -7.232,-0.541 -0.681,-0.366 -1.335,-0.838 -1.976,-1.408 -0.079,-0.07 -0.154,-0.149 -0.222,-0.228 -0.201,-0.187 -0.416,-0.39 -0.648,-0.603 -0.184,-0.169 -0.557,-0.466 -1.108,-0.89 -0.273,-0.298 -0.648,-0.569 -1.132,-0.816 -1.051,-0.542 -2.421,-0.875 -4.111,-0.993 -1.044,-0.072 -2.758,0.094 -5.137,0.492 -1.063,0.181 -2.056,0.301 -2.971,0.375 -1.156,0.092 -2.197,0.109 -3.126,0.045 -1.126,-0.08 -2.265,-0.323 -3.416,-0.731 -1.415,-0.5 -2.862,-1.257 -4.323,-2.27 -1.008,-0.7 -1.988,-1.466 -2.933,-2.286 -0.939,-0.821 -2.518,-2.209 -4.731,-4.174 -2.206,-1.967 -4.835,-3.65 -7.884,-5.036 -3.052,-1.392 -6.116,-2.197 -9.207,-2.413 -3.094,-0.217 -5.909,-0.249 -8.459,-0.109 -2.553,0.142 -5.197,0.727 -7.949,1.773 -0.518,0.193 -1.014,0.388 -1.508,0.583 -1.528,0.599 -3.041,1.171 -4.531,1.731 -1.775,0.639 -3.596,0.797 -5.467,0.464 -0.582,-0.117 -1.12,-0.301 -1.609,-0.557 -1.33,-0.905 -2.43,-2.054 -3.289,-3.458 -0.485,-0.796 -0.956,-1.599 -1.406,-2.426 -0.926,-1.646 -1.467,-3.085 -1.614,-4.324 l 0.07,-1.012 -0.155,-0.013 c -0.059,-1.61 0.168,-3.355 0.701,-5.236 0.646,-2.291 3.232,-5.413 7.753,-9.367 4.521,-3.954 9.464,-7.107 14.833,-9.461 5.37,-2.354 11.007,-3.977 16.911,-4.85 5.912,-0.875 12.843,-0.816 20.798,0.183 7.951,0.99 14.181,2.655 18.672,4.993 4.501,2.338 7.748,4.271 9.751,5.805 1.997,1.525 4.486,3.666 7.459,6.413 2.981,2.75 5.267,6.016 6.864,9.808 1.299,3.066 1.979,6.104 2.059,9.109 l 0.007,0.929 z M 899.699,35.942 c -0.773,-0.054 -1.385,0.199 -1.839,0.757 l -6.049,7.519 c -0.442,0.55 -0.28,0.857 0.493,0.912 l 3.523,0.246 c 0.775,0.055 1.383,-0.198 1.82,-0.75 l 6.053,-7.52 c 0.455,-0.558 0.297,-0.863 -0.479,-0.917 l -3.522,-0.247 z"
         id="path1397" />
      <path
         inkscape:connector-curvature="0"
         style="fill:#84268a"
         d="m 897.86,36.699 c 0.454,-0.559 1.065,-0.811 1.839,-0.757 l 3.523,0.247 c 0.775,0.055 0.934,0.36 0.479,0.917 l -6.053,7.52 c -0.438,0.552 -1.045,0.805 -1.82,0.75 l -3.523,-0.246 c -0.773,-0.055 -0.936,-0.361 -0.493,-0.912 l 6.048,-7.519 z"
         id="path1399" />
      <path
         inkscape:connector-curvature="0"
         style="fill:#041717"
         d="m 961.24,76.429 c 0.552,0.423 0.925,0.72 1.108,0.89 0.232,0.212 0.447,0.416 0.647,0.602 0.068,0.079 0.144,0.158 0.223,0.229 0.641,0.568 1.295,1.041 1.976,1.407 l -12.325,11.112 c -11.567,21.952 -26.604,30.039 -45.112,24.279 -0.713,-0.22 -1.443,-0.47 -2.17,-0.734 0.743,0.053 1.486,0.097 2.213,0.123 17.763,0.669 30.835,-7.417 39.216,-24.248 L 941.348,74.8 c 1.151,0.408 2.29,0.651 3.416,0.73 0.929,0.064 1.97,0.047 3.126,-0.044 l 3.263,10.638 10.087,-9.695 z"
         id="path1401" />
      <path
         inkscape:connector-curvature="0"
         style="fill:none;stroke:#4a4646;stroke-width:1.3082;stroke-linecap:round;stroke-linejoin:round;stroke-miterlimit:10"
         d="m 897.86,36.699 -6.049,7.519 c -0.442,0.55 -0.28,0.856 0.493,0.912 l 3.523,0.246 c 0.775,0.055 1.383,-0.198 1.82,-0.75 l 6.053,-7.52 c 0.455,-0.558 0.297,-0.863 -0.479,-0.917 l -3.523,-0.247 c -0.772,-0.054 -1.384,0.198 -1.838,0.757 z"
         id="path1403" />
      <line
         style="fill:none;stroke:#461c86;stroke-width:3.59770012;stroke-linecap:round;stroke-linejoin:round;stroke-miterlimit:10"
         x1="981.021"
         y1="59.519001"
         x2="877.80402"
         y2="52.303001"
         id="line1405" />
      <path
         inkscape:connector-curvature="0"
         style="fill:none;stroke:#4a4646;stroke-width:1.3082;stroke-linecap:round;stroke-linejoin:round;stroke-miterlimit:10"
         d="m 965.194,79.557 c 2.176,1.186 4.591,1.363 7.232,0.54 3.337,-1.316 6.088,-4.796 8.253,-10.44 0.091,-0.231 0.162,-0.471 0.238,-0.705 0.539,-1.74 0.935,-4.466 1.193,-8.161 0.026,-0.4 0.045,-0.791 0.05,-1.193 0.004,-0.311 0.002,-0.623 -0.009,-0.927 -0.08,-3.005 -0.76,-6.043 -2.06,-9.11 -1.597,-3.792 -3.882,-7.057 -6.863,-9.807 -2.973,-2.749 -5.462,-4.888 -7.459,-6.414 -2.003,-1.533 -5.25,-3.465 -9.751,-5.804 -4.491,-2.338 -10.722,-4.004 -18.672,-4.994 -7.955,-0.999 -14.886,-1.057 -20.798,-0.183 -5.904,0.875 -11.542,2.497 -16.911,4.851 -5.37,2.353 -10.312,5.508 -14.833,9.46 -4.521,3.954 -7.107,7.077 -7.753,9.368 -0.533,1.881 -0.761,3.625 -0.701,5.236 0.018,0.321 0.038,0.626 0.075,0.931 0.005,0.033 0.003,0.067 0.009,0.093 0.148,1.24 0.689,2.679 1.615,4.325 0.45,0.827 0.921,1.629 1.405,2.426 0.86,1.403 1.96,2.554 3.29,3.458 0.489,0.255 1.027,0.44 1.609,0.556 1.871,0.333 3.692,0.174 5.467,-0.463 1.49,-0.56 3.003,-1.133 4.531,-1.733 0.494,-0.193 0.99,-0.389 1.508,-0.583 2.752,-1.045 5.396,-1.631 7.949,-1.772 2.55,-0.141 5.365,-0.108 8.459,0.108 3.091,0.216 6.155,1.021 9.207,2.413 3.049,1.386 5.678,3.07 7.884,5.036 2.215,1.966 3.792,3.354 4.731,4.174 0.944,0.82 1.925,1.586 2.933,2.287 1.46,1.012 2.908,1.77 4.323,2.269 m 19.895,1.63 c 0.551,0.423 0.924,0.72 1.108,0.889 0.232,0.212 0.447,0.416 0.647,0.602 0.068,0.079 0.144,0.158 0.223,0.229 0.641,0.568 1.295,1.042 1.976,1.408 m -17.304,-4.07 c 0.915,-0.074 1.907,-0.195 2.971,-0.375 2.379,-0.398 4.093,-0.564 5.137,-0.492 1.69,0.118 3.061,0.451 4.111,0.994 0.483,0.246 0.858,0.518 1.132,0.816 M 941.348,74.8 c 1.151,0.409 2.29,0.652 3.416,0.732 0.929,0.064 1.97,0.046 3.126,-0.045 m 17.304,4.07 -12.325,11.113 c -11.567,21.951 -26.604,30.038 -45.112,24.278 -0.713,-0.221 -1.443,-0.471 -2.17,-0.734 0.743,0.053 1.486,0.096 2.213,0.123 17.763,0.668 30.835,-7.418 39.216,-24.248 L 941.348,74.8 m 6.542,0.687 3.263,10.638 10.088,-9.695"
         id="path1407" />
      <path
         inkscape:connector-curvature="0"
         style="fill:#eddc00"
         d="m 933.74,121.335 c -1.154,-1.642 -2.366,-2.369 -3.632,-2.183 -0.511,0.073 -1.322,0.475 -2.438,1.197 -0.855,0.538 -1.599,1.067 -2.218,1.589 -2.205,1.797 -4.436,3.058 -6.69,3.782 -2.277,0.747 -4.731,0.998 -7.356,0.739 -2.145,-0.191 -4.598,0.445 -7.376,1.906 -2.871,1.515 -4.944,3.353 -6.219,5.508 -0.494,0.818 -0.839,1.961 -1.029,3.424 -0.192,1.325 -0.222,2.595 -0.079,3.827 0.262,2.592 1.559,4.969 3.872,7.145 2.121,1.983 4.783,3.548 8.004,4.689 3.163,1.112 6.232,1.595 9.211,1.461 3.175,-0.148 5.667,-0.978 7.485,-2.501 2.139,-1.786 3.914,-3.889 5.317,-6.31 0.926,-1.592 2.079,-4.124 3.469,-7.598 0.487,-1.224 0.925,-3.101 1.293,-5.637 0.39,-2.6 0.514,-4.522 0.377,-5.759 -0.229,-1.985 -0.889,-3.746 -1.991,-5.279"
         id="path1409" />
      <path
         inkscape:connector-curvature="0"
         style="fill:none;stroke:#f2b800;stroke-width:2.43120003;stroke-miterlimit:10"
         d="m 933.74,121.335 c 1.102,1.533 1.762,3.294 1.99,5.278 0.137,1.237 0.013,3.159 -0.377,5.759 -0.368,2.536 -0.806,4.414 -1.293,5.637 -1.39,3.474 -2.543,6.006 -3.469,7.598 -1.403,2.42 -3.179,4.523 -5.317,6.31 -1.818,1.523 -4.311,2.353 -7.485,2.501 -2.98,0.134 -6.048,-0.349 -9.211,-1.461 -3.221,-1.141 -5.883,-2.706 -8.004,-4.689 -2.313,-2.175 -3.61,-4.553 -3.872,-7.145 -0.143,-1.232 -0.113,-2.502 0.079,-3.827 0.19,-1.462 0.535,-2.605 1.029,-3.424 1.274,-2.155 3.348,-3.993 6.219,-5.508 2.778,-1.461 5.231,-2.097 7.376,-1.906 2.625,0.259 5.079,0.008 7.356,-0.739 2.255,-0.725 4.485,-1.985 6.69,-3.782 0.619,-0.521 1.362,-1.051 2.218,-1.589 1.116,-0.722 1.928,-1.124 2.438,-1.197 1.267,-0.185 2.479,0.542 3.633,2.184 z"
         id="path1411" />
      <path
         inkscape:connector-curvature="0"
         style="fill:#fcdf00"
         d="m 935.143,118.742 -1.956,-1.188 c -2.024,0.125 -4.389,0.259 -7.084,0.394 -0.215,0.008 -0.419,0.019 -0.627,0.032 -0.461,1.155 -0.944,2.253 -1.456,3.281 -2.512,5.057 -5.139,7.672 -7.888,7.842 l 11.511,3.767 8.078,-4.69 c 0.053,-0.902 0.068,-1.977 0.036,-3.217 -0.043,-2.476 -0.243,-4.546 -0.614,-6.221"
         id="path1413" />
      <path
         inkscape:connector-curvature="0"
         style="fill:#fcdf00"
         d="m 926.874,113.95 c 0.11,-0.016 0.225,-0.029 0.345,-0.03 l -0.279,-0.177 -0.066,0.207 z"
         id="path1415" />
      <path
         inkscape:connector-curvature="0"
         style="fill:#fcdf00"
         d="m 933.74,121.335 c -1.154,-1.642 -2.366,-2.369 -3.632,-2.183 -0.511,0.073 -1.322,0.475 -2.438,1.197 -0.855,0.538 -1.599,1.067 -2.218,1.589 -2.205,1.797 -4.436,3.058 -6.69,3.782 -2.277,0.747 -4.731,0.998 -7.356,0.739 -2.145,-0.191 -4.598,0.445 -7.376,1.906 -2.871,1.515 -4.944,3.353 -6.219,5.508 -0.494,0.818 -0.839,1.961 -1.029,3.424 -0.192,1.325 -0.222,2.595 -0.079,3.827 0.262,2.592 1.559,4.969 3.872,7.145 2.121,1.983 4.783,3.548 8.004,4.689 3.163,1.112 6.232,1.595 9.211,1.461 3.175,-0.148 5.667,-0.978 7.485,-2.501 2.139,-1.786 3.914,-3.889 5.317,-6.31 0.926,-1.592 2.079,-4.124 3.469,-7.598 0.487,-1.224 0.925,-3.101 1.293,-5.637 0.39,-2.6 0.514,-4.522 0.377,-5.759 -0.229,-1.985 -0.889,-3.746 -1.991,-5.279"
         id="path1417" />
      <path
         inkscape:connector-curvature="0"
         style="fill:#fcdf00"
         d="m 900.905,140.151 c 2.991,0.535 4.759,1.499 5.298,2.875 0.893,2.273 0.228,4.676 -1.988,7.204 -0.601,0.688 -1.567,1.694 -2.895,3.007 -1.116,1.167 -1.878,2.16 -2.284,2.979 -0.851,1.708 -1.347,2.643 -1.472,2.803 -0.776,0.92 -1.63,0.831 -2.558,-0.285 -0.572,-0.69 -0.762,-1.807 -0.562,-3.347 0.109,-0.826 0.395,-1.997 0.84,-3.508 -0.828,0.196 -2.082,0.541 -3.751,1.047 -1.472,0.306 -2.75,0.152 -3.832,-0.456 -1.159,-0.887 -1.021,-2.21 0.433,-3.985 1.268,-1.546 2.799,-2.732 4.582,-3.565 -0.729,0.227 -1.835,0.027 -3.319,-0.587 -1.534,-0.619 -2.425,-1.287 -2.684,-2.009 -0.566,-1.574 0.449,-2.533 3.056,-2.872 1.803,-0.227 3.799,-0.167 5.984,0.187 1.888,0.082 3.604,0.257 5.152,0.512"
         id="path1419" />
      <path
         inkscape:connector-curvature="0"
         style="fill:none;stroke:#f2b800;stroke-width:1.26390004;stroke-miterlimit:10"
         d="m 900.905,140.151 c -1.548,-0.256 -3.265,-0.43 -5.151,-0.512 -2.186,-0.354 -4.182,-0.413 -5.984,-0.187 -2.606,0.339 -3.622,1.298 -3.056,2.872 0.259,0.723 1.149,1.391 2.684,2.009 1.484,0.614 2.591,0.814 3.319,0.587 -1.783,0.833 -3.314,2.019 -4.582,3.565 -1.453,1.774 -1.592,3.098 -0.433,3.985 1.082,0.608 2.36,0.761 3.832,0.456 1.669,-0.506 2.923,-0.852 3.751,-1.047 -0.445,1.511 -0.73,2.683 -0.84,3.508 -0.2,1.54 -0.011,2.656 0.562,3.347 0.928,1.116 1.781,1.205 2.558,0.285 0.125,-0.16 0.621,-1.095 1.472,-2.803 0.406,-0.819 1.168,-1.812 2.284,-2.979 1.327,-1.312 2.294,-2.319 2.895,-3.007 2.216,-2.528 2.881,-4.931 1.988,-7.204 -0.54,-1.376 -2.308,-2.339 -5.299,-2.875 z"
         id="path1421" />
    </g>
  </g>
</svg>
