<?xml version="1.0" encoding="UTF-8" standalone="no"?>
<!-- Created with Inkscape (http://www.inkscape.org/) -->

<svg
   xmlns:dc="http://purl.org/dc/elements/1.1/"
   xmlns:cc="http://creativecommons.org/ns#"
   xmlns:rdf="http://www.w3.org/1999/02/22-rdf-syntax-ns#"
   xmlns:svg="http://www.w3.org/2000/svg"
   xmlns="http://www.w3.org/2000/svg"
   xmlns:sodipodi="http://sodipodi.sourceforge.net/DTD/sodipodi-0.dtd"
   xmlns:inkscape="http://www.inkscape.org/namespaces/inkscape"
   width="177.01596"
   height="169.05814"
   id="svg5696"
   version="1.1"
   inkscape:version="0.48.4 r9939"
   sodipodi:docname="abby3.svg">
  <defs
     id="defs5698" />
  <sodipodi:namedview
     id="base"
     pagecolor="#ffffff"
     bordercolor="#666666"
     borderopacity="1.0"
     inkscape:pageopacity="0.0"
     inkscape:pageshadow="2"
     inkscape:zoom="0.77472527"
     inkscape:cx="-46.640963"
     inkscape:cy="232.02907"
     inkscape:current-layer="layer1"
     inkscape:document-units="px"
     showgrid="false"
     inkscape:window-width="942"
     inkscape:window-height="591"
     inkscape:window-x="414"
     inkscape:window-y="49"
     inkscape:window-maximized="0"
     fit-margin-top="0"
     fit-margin-left="0"
     fit-margin-right="0"
     fit-margin-bottom="0" />
  <metadata
     id="metadata5701">
    <rdf:RDF>
      <cc:Work
         rdf:about="">
        <dc:format>image/svg+xml</dc:format>
        <dc:type
           rdf:resource="http://purl.org/dc/dcmitype/StillImage" />
        <dc:title></dc:title>
      </cc:Work>
    </rdf:RDF>
  </metadata>
  <g
     id="layer1"
     inkscape:label="Layer 1"
     inkscape:groupmode="layer"
     transform="translate(-37.492024,-302.97093)">
    <g
       transform="translate(-802.47917,236.60631)"
       id="g2453">
      <path
         inkscape:connector-curvature="0"
         style="fill:#e27c9f"
         d="m 946.089,149.983 0.028,-0.005 0.026,-0.006 c 8.154,-2.354 14.143,-1.367 17.967,2.978 l 0.013,0.01 0.015,0.012 c 4.091,4.91 3.641,10.573 -1.35,17.004 l -0.026,0.051 -0.055,0.055 c -4.712,5.05 -9.548,8.015 -14.537,8.89 3.443,2.754 5.004,6.081 4.7,9.959 -0.249,3.722 -1.197,6.315 -2.851,7.785 -1.604,1.606 -3.888,2.023 -6.839,1.233 l 0.012,-0.003 c -6.942,-1.827 -12.039,-5.648 -15.314,-11.472 l -0.013,-0.012 -0.015,-0.027 c -3.139,-6.266 -3.113,-13.302 0.103,-21.116 l 0.041,-0.081 c 3.483,-7.131 9.504,-12.209 18.095,-15.255 m 0.217,2.3 0.067,-0.028 c -7.792,2.766 -13.284,7.34 -16.492,13.751 -2.875,6.992 -2.908,13.31 -0.106,18.934 3.064,5.412 7.81,8.979 14.27,10.668 2.062,0.541 3.657,0.337 4.769,-0.609 1.073,-1.116 1.705,-3.042 1.896,-5.793 0.577,-4.407 -2.668,-8.424 -9.737,-12.083 8.489,0.453 15.284,-2.407 20.355,-8.576 3.998,-5.184 4.373,-9.771 1.113,-13.758 -3.451,-3.784 -8.834,-4.614 -16.135,-2.506"
         id="path2455" />
      <path
         inkscape:connector-curvature="0"
         style="fill:#f8e6f0"
         d="m 946.373,152.255 -0.067,0.028 c 7.302,-2.108 12.685,-1.278 16.134,2.506 3.26,3.987 2.884,8.574 -1.114,13.758 -5.07,6.169 -11.865,9.029 -20.354,8.576 7.069,3.658 10.314,7.676 9.737,12.083 -0.189,2.751 -0.822,4.677 -1.896,5.793 -1.112,0.946 -2.706,1.15 -4.769,0.608 -6.46,-1.688 -11.205,-5.255 -14.27,-10.667 -2.802,-5.624 -2.769,-11.942 0.106,-18.934 3.209,-6.412 8.701,-10.985 16.493,-13.751"
         id="path2457" />
      <path
         inkscape:connector-curvature="0"
         style="fill:#e27c9f"
         d="m 895.953,154.159 h -0.029 -0.029 c -8.776,-0.567 -15.255,1.735 -19.431,6.923 l -0.017,0.015 -0.014,0.016 c -4.473,5.811 -4.053,11.383 1.262,16.729 l 0.029,0.043 0.057,0.043 c 5.032,4.023 10.22,5.932 15.594,5.713 -3.746,3.514 -5.471,7.186 -5.186,11.004 0.227,3.67 1.219,6.06 2.988,7.169 1.712,1.256 4.174,1.172 7.371,-0.266 h -0.016 c 7.52,-3.352 13.064,-8.296 16.667,-14.848 l 0.016,-0.015 0.013,-0.03 c 3.462,-6.96 3.515,-14.001 0.132,-21.12 l -0.043,-0.072 c -3.677,-6.376 -10.123,-10.14 -19.364,-11.304 m -0.26,2.35 -0.072,-0.014 c 8.381,1.062 14.261,4.436 17.651,10.151 3.022,6.372 2.987,12.688 -0.104,18.936 -3.368,6.09 -8.533,10.703 -15.525,13.811 -2.234,0.994 -3.952,1.14 -5.143,0.436 -1.146,-0.882 -1.807,-2.672 -1.98,-5.383 -0.573,-4.286 2.977,-9.021 10.652,-14.236 -9.175,2.317 -16.477,0.944 -21.882,-4.12 -4.254,-4.315 -4.609,-8.826 -1.045,-13.531 3.767,-4.548 9.588,-6.558 17.448,-6.05"
         id="path2459" />
      <path
         inkscape:connector-curvature="0"
         style="fill:#f8e6f0"
         d="m 895.621,156.496 0.072,0.014 c -7.86,-0.509 -13.682,1.502 -17.448,6.05 -3.564,4.705 -3.209,9.216 1.045,13.531 5.405,5.063 12.707,6.437 21.881,4.12 -7.675,5.214 -11.225,9.95 -10.65,14.235 0.173,2.712 0.833,4.502 1.979,5.384 1.19,0.704 2.908,0.558 5.143,-0.436 6.992,-3.108 12.157,-7.721 15.525,-13.811 3.092,-6.248 3.127,-12.565 0.104,-18.936 -3.39,-5.715 -9.27,-9.089 -17.651,-10.151"
         id="path2461" />
      <path
         inkscape:connector-curvature="0"
         style="fill:#e27c9f"
         d="m 929.227,189.416 7.477,-0.59 c 1.111,6.248 0.811,13.913 -0.875,22.995 1.462,1.064 2.877,2.336 4.258,3.818 1.382,1.483 2.477,3.047 3.299,4.706 0.835,1.646 1.306,3.082 1.424,4.295 0.132,1.213 0.034,2.464 -0.264,3.737 -0.297,1.275 -0.87,2.146 -1.723,2.631 -0.853,0.47 -2.099,0.699 -3.736,0.688 -1.854,-0.168 -3.441,-0.631 -4.754,-1.385 -1.311,-0.755 -2.559,-1.72 -3.764,-2.879 -1.188,-1.16 -2.217,-2.494 -3.085,-4.004 -0.854,-1.465 -1.477,-3.058 -1.868,-4.779 0.482,-1.282 1.28,-4.608 2.373,-9.98 1.123,-5.387 1.527,-11.81 1.238,-19.253"
         id="path2463" />
      <path
         inkscape:connector-curvature="0"
         style="fill:none;stroke:#c4084a;stroke-width:2.33400011;stroke-linecap:round;stroke-linejoin:round;stroke-miterlimit:10"
         d="m 936.702,188.826 -7.476,0.59 c 0.289,7.444 -0.114,13.866 -1.238,19.252 -1.093,5.372 -1.89,8.698 -2.373,9.98 0.392,1.721 1.015,3.313 1.868,4.779 0.868,1.509 1.897,2.844 3.085,4.003 1.205,1.16 2.453,2.125 3.764,2.879 1.312,0.755 2.9,1.218 4.754,1.386 1.638,0.011 2.885,-0.218 3.736,-0.688"
         id="path2465" />
      <path
         inkscape:connector-curvature="0"
         style="fill:none;stroke:#c4084a;stroke-width:2.33400011;stroke-linecap:round;stroke-miterlimit:10"
         d="m 942.822,231.008 c 0.854,-0.485 1.426,-1.356 1.723,-2.631 0.299,-1.274 0.396,-2.524 0.264,-3.738 -0.118,-1.213 -0.589,-2.649 -1.423,-4.295 -0.823,-1.659 -1.917,-3.222 -3.3,-4.706 -1.382,-1.482 -2.797,-2.754 -4.259,-3.817 1.687,-9.083 1.987,-16.748 0.875,-22.995"
         id="path2467" />
      <path
         inkscape:connector-curvature="0"
         style="fill:#e27c9f"
         d="m 919.404,190.894 7.479,0.624 c 0.128,6.325 -1.364,13.816 -4.446,22.479 1.28,1.28 2.481,2.76 3.617,4.441 1.134,1.681 1.973,3.396 2.526,5.161 0.571,1.753 0.812,3.242 0.739,4.453 -0.062,1.215 -0.35,2.43 -0.842,3.635 -0.494,1.205 -1.197,1.97 -2.114,2.31 -0.914,0.324 -2.182,0.348 -3.802,0.074 -1.804,-0.465 -3.302,-1.177 -4.48,-2.131 -1.18,-0.953 -2.266,-2.103 -3.272,-3.438 -0.995,-1.331 -1.804,-2.809 -2.426,-4.435 -0.615,-1.579 -0.985,-3.246 -1.104,-5.003 0.677,-1.183 1.982,-4.327 3.902,-9.434 1.949,-5.115 3.348,-11.368 4.223,-18.736"
         id="path2469" />
      <path
         inkscape:connector-curvature="0"
         style="fill:none;stroke:#c4084a;stroke-width:2.32599998;stroke-linecap:round;stroke-linejoin:round;stroke-miterlimit:10"
         d="m 926.884,191.518 -7.479,-0.624 c -0.875,7.368 -2.274,13.621 -4.224,18.736 -1.92,5.107 -3.226,8.252 -3.901,9.435 0.118,1.756 0.488,3.423 1.103,5.002 0.623,1.626 1.432,3.104 2.427,4.435 1.007,1.335 2.093,2.485 3.272,3.438 1.179,0.954 2.676,1.666 4.48,2.131 1.62,0.274 2.888,0.25 3.802,-0.074"
         id="path2471" />
      <path
         inkscape:connector-curvature="0"
         style="fill:none;stroke:#c4084a;stroke-width:2.32599998;stroke-linecap:round;stroke-miterlimit:10"
         d="m 926.363,233.996 c 0.917,-0.339 1.62,-1.104 2.114,-2.309 0.492,-1.206 0.782,-2.42 0.842,-3.635 0.072,-1.212 -0.168,-2.701 -0.739,-4.454 -0.554,-1.765 -1.393,-3.48 -2.526,-5.16 -1.136,-1.682 -2.337,-3.162 -3.615,-4.442 3.08,-8.662 4.571,-16.153 4.446,-22.479"
         id="path2473" />
      <path
         inkscape:connector-curvature="0"
         style="fill:#e27c9f"
         d="m 934.91,169.162 c 1.354,-0.467 3.633,-2.257 6.813,-5.372 l 11.747,13.209 c 2.748,2.502 4.429,5.089 5.055,7.752 0.607,2.579 0.253,4.92 -1.072,7.031 -1.198,1.912 -2.887,2.779 -5.057,2.59 -1.995,-0.186 -4.147,-1.402 -6.455,-3.693 -2.311,-2.292 -5.978,-9.456 -11.031,-21.517"
         id="path2475" />
      <path
         inkscape:connector-curvature="0"
         style="fill:none;stroke:#c4084a;stroke-width:2.43899989;stroke-linecap:round;stroke-miterlimit:10"
         d="m 934.909,169.162 c 5.054,12.061 8.721,19.225 11.032,21.517 2.308,2.291 4.46,3.507 6.455,3.693 2.17,0.189 3.858,-0.678 5.057,-2.59 1.325,-2.111 1.68,-4.452 1.072,-7.031 -0.626,-2.663 -2.307,-5.25 -5.056,-7.752 L 941.722,163.79"
         id="path2477" />
      <path
         inkscape:connector-curvature="0"
         style="fill:#3793d1"
         d="m 936.992,163.664 -1.206,-5.038 -21.907,2.782 -1.295,5.662 -1.596,2.654 -0.059,0.059 c -1.562,2.83 -2.934,5.699 -4.125,8.596 -3.905,9.543 -5.153,17.745 -3.745,24.607 l 0.307,1.749 1.778,-0.086 c 1.18,-0.017 2.418,-0.371 3.712,-1.048 0.099,0.568 0.239,1.122 0.392,1.66 l 0.473,1.805 1.845,-0.321 c 0.948,-0.116 1.908,-0.452 2.878,-1.006 0.445,1.117 0.965,2.162 1.545,3.103 l 0.998,1.769 1.828,-1.109 c 1.31,-0.736 2.547,-1.924 3.691,-3.563 0.428,0.622 0.887,1.185 1.361,1.704 l 1.369,1.558 1.624,-1.486 c 0.289,-0.252 0.565,-0.52 0.842,-0.801 0.632,0.735 1.31,1.397 2.014,1.986 l 1.517,1.38 1.468,-1.688 c 1.172,-1.318 2.158,-3.115 2.944,-5.363 0.146,0.114 0.295,0.215 0.457,0.314 l 1.608,1.174 1.332,-1.773 c 0.28,-0.355 0.55,-0.739 0.804,-1.152 1.164,0.874 2.383,1.542 3.651,1.991 l 1.797,0.733 0.95,-1.885 c 1.477,-2.769 2.153,-6.549 2.034,-11.341 -0.242,-8.984 -4.007,-18.192 -11.286,-27.626 m -2.876,-2.56 0.947,4.02 0.089,-0.119 c 7.047,9.072 10.693,17.902 10.952,26.492 0.116,4.28 -0.474,7.664 -1.757,10.139 -1.84,-0.688 -3.559,-1.891 -5.155,-3.605 -0.497,1.41 -1.108,2.604 -1.833,3.565 -1.007,-0.701 -1.937,-1.565 -2.791,-2.589 -0.769,3.636 -1.909,6.326 -3.434,8.088 -1.268,-1.076 -2.383,-2.434 -3.36,-4.071 -0.681,1.239 -1.449,2.23 -2.276,2.987 -1.105,-1.255 -2.074,-2.76 -2.894,-4.516 -1.431,2.988 -3.024,4.999 -4.778,6.034 -0.939,-1.564 -1.688,-3.35 -2.242,-5.373 -1.464,1.323 -2.888,2.103 -4.247,2.343 -0.411,-1.514 -0.684,-3.103 -0.825,-4.781 -1.897,1.679 -3.674,2.568 -5.343,2.652 -1.289,-6.454 -0.075,-14.188 3.624,-23.202 1.146,-2.809 2.484,-5.576 4.001,-8.332 l 1.777,-2.978 1.014,-4.399 18.531,-2.355 z"
         id="path2479" />
      <path
         inkscape:connector-curvature="0"
         style="fill:#86c1ea"
         d="m 935.063,165.125 -0.947,-4.02 -18.532,2.353 -1.013,4.4 -1.778,2.978 c -1.516,2.756 -2.854,5.523 -4,8.331 -3.699,9.015 -4.913,16.749 -3.625,23.202 1.67,-0.083 3.446,-0.972 5.343,-2.651 0.579,-0.521 1.162,-1.098 1.748,-1.75 0.761,-0.845 1.485,-1.777 2.185,-2.78 0.169,2.569 0.56,4.886 1.141,6.968 0.555,2.023 1.303,3.809 2.242,5.373 1.754,-1.035 3.348,-3.046 4.778,-6.034 0.246,-0.486 0.479,-1.016 0.715,-1.59 0.546,-1.279 1.024,-2.631 1.44,-4.083 0.81,2.807 1.82,5.219 3.015,7.202 0.978,1.637 2.093,2.995 3.36,4.071 1.524,-1.762 2.665,-4.452 3.434,-8.088 0.075,-0.41 0.151,-0.836 0.227,-1.261 0.303,-1.7 0.469,-3.47 0.5,-5.297 1.213,2.247 2.512,4.098 3.897,5.582 1.597,1.715 3.315,2.917 5.155,3.606 1.283,-2.475 1.872,-5.859 1.757,-10.139 -0.26,-8.59 -3.905,-17.42 -10.952,-26.492 l -0.09,0.119 z"
         id="path2481" />
      <path
         inkscape:connector-curvature="0"
         style="fill:#bc9fca"
         d="m 910.511,199.718 c 0.143,1.678 0.415,3.267 0.826,4.781 1.359,-0.24 2.783,-1.021 4.247,-2.343 -0.581,-2.082 -0.972,-4.399 -1.141,-6.969 -0.699,1.004 -1.424,1.936 -2.185,2.781 -0.585,0.651 -1.168,1.229 -1.747,1.75"
         id="path2483" />
      <path
         inkscape:connector-curvature="0"
         style="fill:#bc9fca"
         d="m 923.319,199.906 c -0.235,0.572 -0.469,1.103 -0.715,1.588 0.818,1.756 1.788,3.262 2.894,4.516 0.827,-0.756 1.596,-1.748 2.276,-2.986 -1.194,-1.983 -2.205,-4.395 -3.015,-7.202 -0.415,1.452 -0.894,2.803 -1.44,4.084"
         id="path2485" />
      <path
         inkscape:connector-curvature="0"
         style="fill:#bc9fca"
         d="m 935.295,192.448 c -0.031,1.827 -0.197,3.598 -0.5,5.297 -0.075,0.426 -0.151,0.851 -0.227,1.261 0.854,1.025 1.784,1.888 2.791,2.589 0.725,-0.961 1.336,-2.154 1.832,-3.564 -1.384,-1.485 -2.683,-3.336 -3.896,-5.583"
         id="path2487" />
      <path
         inkscape:connector-curvature="0"
         style="fill:#e27c9f"
         d="m 926.578,182.149 c 3.72,-0.085 6.574,0.409 8.546,1.474 -2.454,4.415 -4.493,7.656 -6.116,9.756 -1.794,2.334 -3.597,3.938 -5.391,4.821 -2.969,1.296 -5.531,1.471 -7.666,0.537 -2.138,-0.937 -3.918,-2.654 -5.369,-5.141 -1.437,-2.494 -2.406,-5.476 -2.91,-8.926 -0.493,-3.457 -0.55,-6.703 -0.182,-9.728 0.378,-1.631 0.941,-2.787 1.702,-3.475 0.708,-0.626 1.534,-0.992 2.475,-1.066 1.504,-0.206 2.65,0.131 3.425,1.006 0.785,0.867 1.248,3.028 1.374,6.455 0.127,3.426 1.006,6.1 2.605,8.024 1.618,1.931 4.113,0.682 7.507,-3.737"
         id="path2489" />
      <path
         inkscape:connector-curvature="0"
         style="fill:none;stroke:#c4084a;stroke-width:2.31599998;stroke-linecap:round;stroke-linejoin:round;stroke-miterlimit:10"
         d="m 935.124,183.623 c -2.454,4.415 -4.493,7.656 -6.116,9.757 -1.794,2.334 -3.597,3.938 -5.391,4.82 -2.969,1.296 -5.531,1.472 -7.666,0.538 -2.138,-0.938 -3.918,-2.655 -5.369,-5.142 -1.438,-2.494 -2.406,-5.475 -2.91,-8.926 -0.493,-3.458 -0.55,-6.702 -0.182,-9.728 0.378,-1.631 0.941,-2.787 1.702,-3.475 0.708,-0.625 1.534,-0.991 2.475,-1.065 1.504,-0.206 2.65,0.131 3.425,1.005 0.785,0.868 1.248,3.028 1.374,6.455 0.127,3.427 1.006,6.101 2.605,8.025 1.618,1.93 4.112,0.682 7.507,-3.738"
         id="path2491" />
      <path
         inkscape:connector-curvature="0"
         style="fill:#84539c"
         d="m 911.486,81.79 c -1.503,-2.799 -3.621,-5.068 -6.339,-6.808 -6.568,-4.197 -15.11,-4.589 -25.591,-1.176 l -4.283,1.33 c -1.627,0.487 -2.859,0.828 -3.683,1.02 -0.922,0.253 -1.979,0.474 -3.196,0.668 -0.952,0.164 -1.921,0.268 -2.873,0.285 -0.867,0.046 -1.732,0.004 -2.599,-0.097 -0.866,-0.115 -1.704,-0.289 -2.524,-0.522 -0.794,-0.248 -1.63,-0.569 -2.512,-0.964 -0.779,-0.349 -1.659,-0.817 -2.645,-1.416 -0.896,-0.542 -1.852,-1.171 -2.895,-1.887 -1.102,-0.776 -2.189,-1.58 -3.248,-2.413 l -1.337,-1.024 c -0.646,-0.557 -1.046,-0.85 -1.177,-0.893 -0.162,-0.058 -0.338,-0.058 -0.543,0.001 -0.072,0.015 -0.219,0.25 -0.439,0.69 -0.203,0.382 -0.364,0.706 -0.481,0.985 -0.232,0.543 -0.554,1.366 -0.948,2.438 -0.378,1.101 -0.714,2.158 -0.989,3.171 -0.291,1.013 -0.599,2.276 -0.915,3.773 -0.293,1.424 -0.522,2.833 -0.711,4.256 -0.188,1.439 -0.315,2.951 -0.372,4.55 -0.07,1.512 -0.052,3.097 0.07,4.724 0.105,1.6 0.314,3.169 0.641,4.725 0.312,1.554 0.77,3.094 1.345,4.618 0.635,1.539 1.357,2.961 2.195,4.294 0.944,1.436 2.004,2.725 3.194,3.852 1.294,1.274 2.72,2.37 4.277,3.292 1.556,0.95 3.392,1.782 5.493,2.496 0.866,0.322 1.908,0.627 3.111,0.918 1.542,0.378 2.366,0.787 2.483,1.227 0.192,0.631 -0.408,1.351 -1.815,2.132 -1.889,1.061 -2.96,1.709 -3.179,1.958 -1.596,1.692 -0.565,2.995 3.062,3.881 3.773,0.917 8.687,0.906 14.73,-0.032 2.069,-0.327 4.531,-1.096 7.36,-2.32 0.102,-0.162 0.235,-0.28 0.425,-0.338 0.541,-0.236 1.07,-0.487 1.613,-0.753 12.237,-5.808 20.963,-14.91 26.188,-27.291 0.176,-0.396 0.336,-0.808 0.496,-1.233 0.073,-0.118 0.146,-0.221 0.221,-0.323 0.333,-1.278 0.492,-2.466 0.49,-3.567 -0.005,-2.876 -0.698,-5.619 -2.1,-8.227"
         id="path2493" />
      <path
         inkscape:connector-curvature="0"
         style="fill:none;stroke:#652182;stroke-width:2.34800005;stroke-linecap:round;stroke-linejoin:round;stroke-miterlimit:10"
         d="m 905.147,74.981 c -6.568,-4.197 -15.11,-4.589 -25.592,-1.176 l -4.283,1.33 c -1.626,0.488 -2.858,0.828 -3.681,1.02 -0.923,0.253 -1.979,0.474 -3.197,0.668 -0.952,0.164 -1.921,0.268 -2.873,0.285 -0.867,0.046 -1.732,0.004 -2.599,-0.097 -0.866,-0.115 -1.703,-0.289 -2.524,-0.522 -0.794,-0.248 -1.63,-0.569 -2.512,-0.964 -0.779,-0.349 -1.659,-0.817 -2.645,-1.416 -0.896,-0.542 -1.852,-1.17 -2.895,-1.887 -1.104,-0.776 -2.189,-1.58 -3.248,-2.413 l -1.337,-1.024 c -0.647,-0.557 -1.045,-0.85 -1.177,-0.893 -0.161,-0.058 -0.338,-0.057 -0.542,0.001 -0.073,0.015 -0.22,0.251 -0.44,0.69 -0.203,0.382 -0.364,0.706 -0.481,0.985 -0.232,0.543 -0.554,1.366 -0.947,2.438 -0.38,1.101 -0.715,2.159 -0.99,3.171 -0.291,1.013 -0.599,2.276 -0.915,3.773 -0.293,1.424 -0.522,2.833 -0.711,4.257 -0.188,1.439 -0.315,2.95 -0.372,4.549 -0.07,1.512 -0.052,3.098 0.07,4.724 0.105,1.6 0.314,3.169 0.641,4.725 0.312,1.554 0.771,3.094 1.345,4.618 0.635,1.539 1.357,2.961 2.195,4.294 0.944,1.436 2.004,2.725 3.194,3.852 1.294,1.274 2.72,2.37 4.277,3.292 1.557,0.95 3.393,1.782 5.493,2.496 0.866,0.322 1.908,0.627 3.111,0.918 1.542,0.378 2.366,0.787 2.483,1.227 0.192,0.631 -0.408,1.351 -1.815,2.132 -1.888,1.061 -2.96,1.709 -3.179,1.958 -1.596,1.692 -0.565,2.995 3.062,3.882 3.773,0.916 8.688,0.905 14.73,-0.033 2.069,-0.327 4.531,-1.096 7.36,-2.32 0.103,-0.162 0.235,-0.28 0.425,-0.338 0.541,-0.236 1.069,-0.487 1.613,-0.753 12.237,-5.807 20.963,-14.909 26.188,-27.291 0.176,-0.396 0.337,-0.808 0.496,-1.233 0.073,-0.118 0.146,-0.221 0.221,-0.323 0.333,-1.278 0.493,-2.466 0.49,-3.567 -0.006,-2.876 -0.702,-5.618 -2.102,-8.227 -1.501,-2.799 -3.619,-5.068 -6.337,-6.808 z"
         id="path2495" />
      <path
         inkscape:connector-curvature="0"
         style="fill:#fcdf00"
         d="m 900.447,93.259 c -1.743,0.489 -3.269,1.358 -4.57,2.593 -1.332,1.25 -1.917,2.425 -1.783,3.525 -0.93,-2.125 -2.385,-3.238 -4.379,-3.306 -1.82,-0.099 -3.551,0.609 -5.19,2.095 -1.685,1.515 -2.619,3.278 -2.804,5.289 -0.188,2.304 0.727,4.385 2.77,6.244 -1.055,0.179 -2.154,0.9 -3.282,2.149 -1.185,1.308 -1.915,2.719 -2.189,4.231 -0.697,3.773 1.642,6.219 7.03,7.321 0,-0.015 0.016,-0.03 0.027,-0.03 0.192,0 0.427,-0.014 0.676,-0.06 0.251,-0.044 0.513,-0.089 0.763,-0.148 1.864,0.216 3.756,-0.243 5.69,-1.362 1.45,-0.84 2.812,-1.783 4.103,-2.828 1.712,-1.191 3.31,-2.618 4.771,-4.265 3.852,-4.293 5.878,-9.256 6.102,-14.892 0.042,-0.982 -0.106,-1.745 -0.446,-2.287 -0.354,-1.922 -1.164,-3.241 -2.443,-3.956 -1.296,-0.761 -2.91,-0.86 -4.846,-0.313"
         id="path2497" />
      <path
         inkscape:connector-curvature="0"
         style="fill:#7f519b"
         d="m 945.438,81.77 c 1.491,-2.807 3.599,-5.086 6.309,-6.837 6.551,-4.226 15.088,-4.655 25.588,-1.29 l 4.286,1.311 c 1.63,0.481 2.862,0.816 3.686,1.004 0.924,0.249 1.982,0.466 3.199,0.653 0.954,0.16 1.924,0.261 2.877,0.273 0.865,0.042 1.732,-0.004 2.598,-0.108 0.864,-0.12 1.7,-0.298 2.521,-0.534 0.794,-0.252 1.629,-0.576 2.509,-0.974 0.775,-0.354 1.657,-0.826 2.637,-1.429 0.894,-0.545 1.848,-1.178 2.888,-1.9 1.098,-0.78 2.183,-1.589 3.236,-2.428 l 1.332,-1.03 c 0.646,-0.559 1.041,-0.854 1.174,-0.898 0.161,-0.058 0.337,-0.058 0.541,-0.001 0.074,0.015 0.221,0.249 0.443,0.689 0.206,0.382 0.367,0.704 0.485,0.981 0.237,0.543 0.561,1.365 0.96,2.435 0.383,1.099 0.724,2.155 1.004,3.166 0.296,1.012 0.607,2.273 0.935,3.77 0.295,1.422 0.533,2.83 0.726,4.253 0.195,1.437 0.331,2.949 0.395,4.547 0.076,1.512 0.064,3.096 -0.05,4.725 -0.099,1.6 -0.302,3.17 -0.62,4.726 -0.305,1.556 -0.756,3.098 -1.325,4.625 -0.627,1.542 -1.343,2.967 -2.178,4.304 -0.934,1.44 -1.987,2.734 -3.175,3.866 -1.288,1.28 -2.709,2.383 -4.262,3.311 -1.552,0.957 -3.386,1.797 -5.482,2.521 -0.865,0.325 -1.906,0.635 -3.108,0.932 -1.539,0.384 -2.36,0.798 -2.477,1.238 -0.19,0.631 0.413,1.349 1.825,2.124 1.894,1.051 2.969,1.695 3.187,1.944 1.604,1.684 0.58,2.992 -3.043,3.895 -3.768,0.932 -8.684,0.944 -14.732,0.032 -2.068,-0.318 -4.535,-1.076 -7.369,-2.287 -0.104,-0.161 -0.237,-0.278 -0.426,-0.337 -0.543,-0.233 -1.072,-0.481 -1.618,-0.744 -12.262,-5.754 -21.028,-14.816 -26.308,-27.174 -0.178,-0.396 -0.341,-0.807 -0.502,-1.231 -0.073,-0.118 -0.148,-0.22 -0.222,-0.323 -0.34,-1.276 -0.504,-2.464 -0.506,-3.564 -0.011,-2.876 0.674,-5.621 2.062,-8.236"
         id="path2499" />
      <path
         inkscape:connector-curvature="0"
         style="fill:none;stroke:#652182;stroke-width:2.34800005;stroke-linecap:round;stroke-linejoin:round;stroke-miterlimit:10"
         d="m 951.746,74.933 c 6.551,-4.226 15.089,-4.655 25.587,-1.29 l 4.287,1.311 c 1.63,0.481 2.862,0.816 3.686,1.005 0.924,0.248 1.982,0.466 3.199,0.653 0.955,0.159 1.924,0.26 2.877,0.271 0.865,0.042 1.732,-0.003 2.598,-0.108 0.864,-0.12 1.7,-0.298 2.521,-0.534 0.793,-0.251 1.628,-0.576 2.508,-0.974 0.775,-0.354 1.656,-0.825 2.637,-1.428 0.894,-0.546 1.848,-1.178 2.888,-1.9 1.098,-0.78 2.183,-1.59 3.236,-2.428 l 1.332,-1.031 c 0.646,-0.558 1.041,-0.853 1.174,-0.897 0.161,-0.059 0.337,-0.059 0.541,-0.001 0.074,0.015 0.221,0.248 0.443,0.688 0.206,0.382 0.367,0.704 0.485,0.982 0.237,0.543 0.561,1.364 0.96,2.434 0.383,1.1 0.724,2.155 1.005,3.167 0.295,1.012 0.606,2.273 0.933,3.769 0.296,1.422 0.534,2.831 0.727,4.253 0.195,1.438 0.331,2.95 0.395,4.548 0.076,1.511 0.064,3.095 -0.05,4.724 -0.099,1.6 -0.302,3.17 -0.62,4.727 -0.305,1.556 -0.756,3.098 -1.326,4.624 -0.625,1.543 -1.342,2.968 -2.177,4.305 -0.934,1.439 -1.987,2.733 -3.174,3.865 -1.289,1.28 -2.71,2.384 -4.263,3.311 -1.552,0.958 -3.387,1.797 -5.482,2.522 -0.865,0.325 -1.906,0.635 -3.108,0.931 -1.539,0.385 -2.36,0.798 -2.477,1.238 -0.19,0.632 0.413,1.349 1.825,2.124 1.894,1.051 2.969,1.695 3.188,1.944 1.604,1.684 0.579,2.992 -3.044,3.896 -3.768,0.931 -8.684,0.943 -14.732,0.031 -2.068,-0.317 -4.535,-1.075 -7.369,-2.286 -0.104,-0.161 -0.237,-0.279 -0.426,-0.338 -0.543,-0.233 -1.072,-0.481 -1.618,-0.744 -12.262,-5.754 -21.028,-14.816 -26.308,-27.174 -0.178,-0.396 -0.341,-0.806 -0.503,-1.231 -0.072,-0.118 -0.147,-0.22 -0.221,-0.322 -0.34,-1.276 -0.504,-2.464 -0.506,-3.565 -0.008,-2.875 0.677,-5.621 2.064,-8.236 1.491,-2.806 3.598,-5.085 6.308,-6.836 z"
         id="path2501" />
      <path
         inkscape:connector-curvature="0"
         style="fill:#fcdf00"
         d="m 956.527,93.191 c 1.747,0.479 3.273,1.341 4.583,2.571 1.338,1.244 1.928,2.417 1.798,3.517 0.918,-2.129 2.37,-3.247 4.366,-3.326 1.817,-0.106 3.55,0.594 5.197,2.072 1.692,1.509 2.634,3.267 2.829,5.276 0.197,2.305 -0.709,4.39 -2.743,6.257 1.055,0.174 2.157,0.891 3.29,2.135 1.191,1.304 1.929,2.711 2.211,4.221 0.712,3.769 -1.615,6.225 -6.999,7.352 0,-0.014 -0.014,-0.029 -0.028,-0.029 -0.191,0.001 -0.426,-0.014 -0.675,-0.057 -0.249,-0.043 -0.515,-0.087 -0.763,-0.145 -1.863,0.224 -3.758,-0.226 -5.697,-1.338 -1.454,-0.833 -2.821,-1.768 -4.113,-2.808 -1.721,-1.184 -3.323,-2.604 -4.794,-4.244 -3.867,-4.276 -5.918,-9.23 -6.167,-14.865 -0.046,-0.982 0.101,-1.746 0.435,-2.29 0.35,-1.923 1.152,-3.245 2.43,-3.966 1.287,-0.767 2.902,-0.873 4.84,-0.333"
         id="path2503" />
      <path
         inkscape:connector-curvature="0"
         style="fill:#c4084a"
         d="m 971.473,122.775 c -0.414,-1.247 -0.886,-2.492 -1.417,-3.724 -2.243,-5.101 -5.406,-9.613 -9.479,-13.536 -3.31,-3.207 -6.939,-5.781 -10.876,-7.753 -6.404,-3.258 -13.628,-4.9 -21.668,-4.94 -7.586,-0.028 -14.377,1.425 -20.355,4.33 -4.267,2.064 -8.104,4.875 -11.544,8.447 -4.919,5.059 -8.297,10.833 -10.144,17.337 -0.744,2.539 -1.221,5.212 -1.45,8.015 l -0.229,3.111 -1.612,0.033 c -0.572,0.016 -1.145,0.061 -1.731,0.121 -5.382,0.466 -7.961,2.087 -7.736,4.859 -0.173,1.336 0.506,3.227 2.037,5.688 1.356,2.212 3.047,4.234 5.062,6.093 v 0.029 c 3.294,3.001 6.54,4.814 9.726,5.408 1.842,2.827 4.136,5.405 6.854,7.732 l 0.03,0.029 c 8.422,7.245 19.391,10.551 32.889,9.934 13.219,-0.601 23.716,-4.235 31.464,-10.929 2.459,-2.118 4.554,-4.441 6.292,-6.968 3.125,-0.609 6.32,-2.421 9.556,-5.422 v -0.029 c 2.007,-1.867 3.703,-3.896 5.062,-6.115 1.506,-2.468 2.163,-4.362 1.983,-5.697 0.214,-2.773 -2.371,-4.382 -7.729,-4.825 -1.071,-0.101 -2.084,-0.127 -3.022,-0.111 -0.142,-3.83 -0.795,-7.54 -1.963,-11.117 m -0.389,9.949 h 0.029 c 0.046,0.455 0.077,0.895 0.092,1.349 0.016,0.572 0.045,1.159 0.062,1.761 0,0.176 0.016,0.337 0.06,0.47 0.163,0 0.323,-0.016 0.5,-0.031 0.072,-0.015 0.161,-0.015 0.234,0.029 0.278,-0.015 0.542,-0.046 0.793,-0.09 0.073,0 0.16,-0.014 0.234,-0.03 v 0.03 c 0.982,-0.062 2.038,-0.05 3.168,0.051 3.685,0.301 5.565,1.206 5.641,2.688 0.061,0.997 -0.493,2.45 -1.664,4.376 -1.24,2.042 -2.792,3.923 -4.65,5.644 -3.208,2.958 -6.314,4.636 -9.352,5.01 -1.709,2.688 -3.862,5.129 -6.439,7.322 -7.426,6.355 -17.453,9.826 -30.085,10.395 -12.838,0.602 -23.263,-2.544 -31.304,-9.408 -2.838,-2.415 -5.161,-5.124 -6.975,-8.113 -3.109,-0.346 -6.297,-2.011 -9.547,-4.996 -1.869,-1.713 -3.427,-3.588 -4.679,-5.625 -1.178,-1.919 -1.739,-3.372 -1.685,-4.368 0.073,-1.483 1.948,-2.397 5.632,-2.714 0.396,-0.044 0.776,-0.06 1.174,-0.061 0.878,-0.075 1.76,-0.106 2.64,-0.064 0.688,-0.016 1.335,0.011 1.938,0.084 l -0.062,-1.116 c -0.046,-0.703 -0.076,-1.408 -0.123,-2.111 -0.046,-0.954 0.011,-1.923 0.17,-2.906 0.992,-8.938 4.629,-16.65 10.895,-23.119 7.862,-8.103 17.946,-12.116 30.228,-12.07 12.341,0.045 22.68,4.072 30.987,12.051 3.867,3.703 6.841,7.981 8.95,12.804 1.77,4.089 2.82,8.342 3.138,12.758"
         id="path2505" />
      <path
         inkscape:connector-curvature="0"
         style="fill:#e27c9f"
         d="m 971.113,132.724 h -0.029 c -0.318,-4.416 -1.367,-8.669 -3.139,-12.758 -2.109,-4.823 -5.083,-9.101 -8.95,-12.804 -8.308,-7.979 -18.647,-12.006 -30.987,-12.051 -12.281,-0.046 -22.365,3.967 -30.228,12.07 -6.266,6.469 -9.903,14.181 -10.896,23.119 -0.158,0.983 -0.215,1.952 -0.168,2.906 0.046,0.703 0.076,1.408 0.122,2.111 l 0.062,1.116 c -0.603,-0.072 -1.25,-0.1 -1.938,-0.084 -0.88,-0.042 -1.762,-0.011 -2.64,0.064 -0.397,10e-4 -0.777,0.017 -1.174,0.061 -3.683,0.317 -5.558,1.231 -5.632,2.714 -0.055,0.998 0.507,2.449 1.685,4.368 1.252,2.037 2.81,3.912 4.679,5.625 3.25,2.985 6.438,4.65 9.547,4.996 1.813,2.989 4.137,5.698 6.975,8.113 8.041,6.864 18.466,10.01 31.304,9.408 12.632,-0.569 22.658,-4.04 30.085,-10.395 2.577,-2.193 4.73,-4.633 6.439,-7.322 3.037,-0.374 6.144,-2.052 9.352,-5.01 1.858,-1.721 3.41,-3.602 4.65,-5.644 1.171,-1.926 1.725,-3.379 1.664,-4.376 -0.075,-1.482 -1.956,-2.387 -5.641,-2.688 -1.13,-0.101 -2.186,-0.113 -3.168,-0.051 v -0.03 c -0.074,0.016 -0.162,0.03 -0.234,0.03 -0.251,0.045 -0.515,0.075 -0.793,0.09 -0.073,-0.044 -0.162,-0.044 -0.234,-0.029 -0.177,0.015 -0.337,0.031 -0.5,0.031 -0.044,-0.133 -0.06,-0.294 -0.06,-0.47 -0.017,-0.602 -0.046,-1.189 -0.063,-1.761 -0.015,-0.454 -0.046,-0.894 -0.09,-1.349"
         id="path2507" />
      <path
         inkscape:connector-curvature="0"
         style="fill:#a682b9"
         d="m 965.951,147.027 c -0.176,0.191 -0.265,0.426 -0.263,0.675 0,0.279 0.089,0.499 0.265,0.675 0.192,0.175 0.427,0.263 0.677,0.262 0.279,-0.001 0.499,-0.089 0.675,-0.266 0.176,-0.177 0.262,-0.397 0.262,-0.675 0,-0.249 -0.089,-0.484 -0.266,-0.675 -0.176,-0.176 -0.396,-0.263 -0.676,-0.262 -0.248,0 -0.483,0.088 -0.674,0.266"
         id="path2509" />
      <path
         inkscape:connector-curvature="0"
         style="fill:#a682b9"
         d="m 965.154,144.739 c 0.188,-0.19 0.292,-0.426 0.292,-0.675 -0.002,-0.25 -0.104,-0.485 -0.294,-0.675 -0.178,-0.175 -0.397,-0.262 -0.646,-0.262 -0.28,10e-4 -0.5,0.089 -0.677,0.265 -0.19,0.192 -0.291,0.427 -0.291,0.676 10e-4,0.25 0.104,0.483 0.293,0.673 0.18,0.177 0.399,0.265 0.677,0.264 0.25,0 0.471,-0.09 0.646,-0.266"
         id="path2511" />
      <path
         inkscape:connector-curvature="0"
         style="fill:#a682b9"
         d="m 961.96,146.8 c -0.104,10e-4 -0.192,0.015 -0.294,0.059 -0.133,0.045 -0.265,0.118 -0.38,0.236 -0.176,0.177 -0.264,0.397 -0.264,0.676 0,0.161 0.046,0.307 0.118,0.44 0.045,0.073 0.09,0.146 0.147,0.205 0.19,0.19 0.427,0.292 0.676,0.291 0.249,0 0.47,-0.103 0.646,-0.294 0.19,-0.177 0.292,-0.397 0.291,-0.646 -0.002,-0.25 -0.104,-0.484 -0.294,-0.675 -0.176,-0.189 -0.397,-0.292 -0.646,-0.292"
         id="path2513" />
      <path
         inkscape:connector-curvature="0"
         style="fill:#a682b9"
         d="m 895.11,147.243 c -0.19,0.191 -0.292,0.426 -0.29,0.676 0,0.249 0.103,0.469 0.292,0.644 0.179,0.192 0.399,0.293 0.648,0.293 0.249,-0.001 0.483,-0.104 0.674,-0.296 0.19,-0.175 0.293,-0.396 0.291,-0.646 0,-0.25 -0.103,-0.483 -0.293,-0.674 -0.176,-0.19 -0.399,-0.292 -0.676,-0.291 -0.249,0 -0.469,0.103 -0.646,0.294"
         id="path2515" />
      <path
         inkscape:connector-curvature="0"
         style="fill:#a682b9"
         d="m 894.167,144.222 c -0.002,-0.249 -0.106,-0.484 -0.297,-0.674 -0.176,-0.175 -0.396,-0.263 -0.646,-0.262 -0.279,0.001 -0.5,0.089 -0.674,0.266 -0.19,0.19 -0.293,0.425 -0.293,0.675 0.001,0.25 0.104,0.484 0.295,0.674 0.176,0.175 0.396,0.263 0.676,0.262 0.25,0 0.47,-0.088 0.645,-0.265 0.189,-0.191 0.294,-0.426 0.294,-0.676"
         id="path2517" />
      <path
         inkscape:connector-curvature="0"
         style="fill:#a682b9"
         d="m 891.766,147.191 c -0.176,-0.176 -0.396,-0.264 -0.675,-0.262 -0.25,0 -0.485,0.089 -0.675,0.265 -0.176,0.191 -0.264,0.427 -0.263,0.676 0,0.279 0.091,0.498 0.265,0.674 0.192,0.175 0.427,0.263 0.677,0.262 0.278,-0.001 0.499,-0.089 0.674,-0.265 0.176,-0.176 0.263,-0.397 0.262,-0.675 -10e-4,-0.25 -0.089,-0.485 -0.265,-0.675"
         id="path2519" />
      <path
         inkscape:connector-curvature="0"
         style="fill:#da4d5d"
         d="m 933.607,144.839 c -1.221,-1.01 -2.688,-1.521 -4.405,-1.516 -1.702,0.004 -3.154,0.52 -4.369,1.535 -1.216,1.001 -1.814,2.22 -1.812,3.643 0.005,1.423 0.607,2.639 1.827,3.635 1.221,1.009 2.676,1.52 4.376,1.516 1.718,-0.003 3.184,-0.52 4.398,-1.536 1.216,-1 1.814,-2.22 1.811,-3.643 -0.002,-1.423 -0.606,-2.639 -1.826,-3.634"
         id="path2521" />
      <path
         inkscape:connector-curvature="0"
         style="fill:#5d1e80"
         d="m 947.076,96.178 c -4.994,-1.94 -10.043,-3.088 -15.135,-3.414 -5.123,-0.341 -10.095,0.022 -14.935,1.09 -5.354,1.171 -10.249,3.324 -14.718,6.459 -4.557,3.195 -8.288,7.062 -11.213,11.588 -2.939,4.54 -4.809,8.285 -5.58,11.252 -0.785,2.98 -1.221,5.841 -1.287,8.6 -0.068,2.598 0.672,4.944 2.245,7.023 l 0.565,-3.156 c 0.48,-1.982 1.15,-3.92 1.983,-5.829 4.335,-9.914 10.866,-15.885 19.62,-17.93 2.43,3.546 5.459,6.297 9.072,8.241 l 1.277,0.73 0.408,-1.438 c 0.219,-0.808 0.496,-1.556 0.817,-2.247 2.476,4.469 5.812,7.544 9.999,9.222 l 0.483,0.218 0.469,-0.25 c 5.761,-2.786 9.464,-7.181 11.077,-13.215 0.252,0.894 0.475,1.817 0.668,2.772 l 0.519,2.478 1.552,-1.985 c 0.847,-1.072 1.738,-2.439 2.661,-4.114 9.412,3.354 16.749,10.087 22.009,20.185 0.354,0.689 0.707,1.393 1.046,2.111 l 1.654,4.207 c 0.54,-1.249 0.919,-2.643 1.105,-4.214 0.272,-3.096 0.046,-6.089 -0.667,-9.007 -0.548,-2.244 -1.535,-4.883 -2.966,-7.917 -2.226,-4.705 -5.316,-8.953 -9.259,-12.773 -3.965,-3.851 -8.463,-6.746 -13.469,-8.687 l 0,0 z m -5.482,8.875 -0.529,0.075 -0.389,3.332 c -0.687,7.263 -4.052,12.451 -10.073,15.531 -4.011,-1.795 -7.101,-5.077 -9.298,-9.84 l -0.912,-1.891 -1.126,1.735 c -0.672,0.998 -1.229,2.116 -1.681,3.334 -2.952,-1.842 -5.438,-4.317 -7.454,-7.422 l -0.457,-0.689 -0.749,0.177 c -9.768,1.885 -17.045,8.402 -21.849,19.55 l -0.947,2.965 c 0.419,-3.39 0.912,-6.091 1.51,-8.103 0.83,-2.833 2.642,-6.388 5.403,-10.635 2.765,-4.275 6.308,-7.922 10.601,-10.94 4.204,-2.958 8.834,-4.979 13.866,-6.091 4.62,-1.007 9.389,-1.356 14.274,-1.029 4.872,0.312 9.687,1.402 14.445,3.254 4.714,1.838 8.946,4.574 12.68,8.188 3.722,3.617 6.65,7.645 8.773,12.086 1.343,2.858 2.286,5.351 2.806,7.477 h 0.015 c 0.325,1.364 0.533,2.757 0.64,4.181 -5.703,-10.42 -13.611,-17.284 -23.729,-20.578 l -0.924,-0.32 -0.484,0.896 c -0.481,0.925 -0.964,1.778 -1.431,2.527 -0.459,-1.687 -1.021,-3.255 -1.671,-4.721 l -1.31,-3.049 z"
         id="path2523" />
      <path
         inkscape:connector-curvature="0"
         style="fill:#7f519b"
         d="m 941.064,105.128 0.529,-0.075 1.311,3.049 c 0.65,1.466 1.212,3.035 1.671,4.721 0.468,-0.749 0.949,-1.602 1.431,-2.527 l 0.483,-0.896 0.925,0.321 c 10.116,3.294 18.025,10.157 23.729,20.577 -0.106,-1.423 -0.314,-2.817 -0.64,-4.181 h -0.016 c -0.519,-2.125 -1.462,-4.618 -2.805,-7.476 -2.123,-4.441 -5.052,-8.47 -8.773,-12.086 -3.733,-3.615 -7.966,-6.35 -12.68,-8.188 -4.759,-1.853 -9.573,-2.943 -14.445,-3.255 -4.886,-0.326 -9.654,0.022 -14.274,1.03 -5.03,1.111 -9.662,3.132 -13.866,6.09 -4.293,3.018 -7.836,6.665 -10.599,10.94 -2.763,4.248 -4.575,7.802 -5.405,10.636 -0.597,2.011 -1.091,4.712 -1.51,8.103 l 0.947,-2.966 c 4.804,-11.148 12.081,-17.665 21.849,-19.549 l 0.749,-0.178 0.457,0.688 c 2.016,3.105 4.502,5.58 7.454,7.423 0.452,-1.219 1.009,-2.336 1.681,-3.335 l 1.126,-1.735 0.912,1.891 c 2.197,4.764 5.287,8.045 9.298,9.84 6.022,-3.079 9.386,-8.267 10.073,-15.531 l 0.388,-3.331 z"
         id="path2525" />
      <path
         inkscape:connector-curvature="0"
         style="fill:#d8272a"
         d="m 912.721,157.47 c -1.918,0.5 -3.226,1.388 -3.948,2.654 -0.777,1.383 -0.662,2.821 0.352,4.334 1.014,1.524 2.623,2.669 4.844,3.432 2.221,0.751 4.395,0.908 6.515,0.456 2.117,-0.451 3.567,-1.373 4.347,-2.757 0.454,-0.778 0.608,-1.606 0.45,-2.482 l -0.199,0.36 c -0.694,1.245 -1.958,2.075 -3.777,2.493 -1.82,0.407 -3.669,0.288 -5.549,-0.356 -1.878,-0.632 -3.232,-1.611 -4.074,-2.936 -0.842,-1.314 -0.9,-2.586 -0.206,-3.831 0.323,-0.545 0.733,-0.998 1.245,-1.367"
         id="path2527" />
      <path
         inkscape:connector-curvature="0"
         style="fill:#d8272a"
         d="m 918.784,159.767 c -0.896,-0.345 -1.75,-0.503 -2.56,-0.463 -0.841,0.064 -1.395,0.305 -1.678,0.724 -0.298,0.418 -0.242,0.896 0.174,1.448 0.415,0.553 1.068,1.001 1.938,1.346 0.896,0.368 1.752,0.527 2.561,0.485 0.841,-0.064 1.394,-0.305 1.679,-0.723 0.298,-0.43 0.239,-0.92 -0.175,-1.471 -0.4,-0.54 -1.041,-0.989 -1.939,-1.346"
         id="path2529" />
      <path
         inkscape:connector-curvature="0"
         style="fill:#ffffff"
         d="m 943.373,123.347 c -4.046,1.813 -6.898,4.667 -8.578,8.559 -1.664,3.891 -1.671,7.691 -0.004,11.385 1.65,3.665 4.487,6.153 8.526,7.465 4.037,1.311 8.073,1.053 12.103,-0.791 4.046,-1.813 6.914,-4.665 8.596,-8.558 1.648,-3.892 1.653,-7.678 0.004,-11.357 -1.667,-3.678 -4.504,-6.182 -8.542,-7.493 -4.025,-1.312 -8.058,-1.053 -12.105,0.79 z"
         id="path2531" />
      <path
         inkscape:connector-curvature="0"
         style="fill:#ffffff"
         d="m 902.654,122.674 c -4.032,1.33 -6.856,3.845 -8.508,7.532 -1.636,3.686 -1.61,7.472 0.055,11.356 1.695,3.885 4.578,6.725 8.632,8.521 4.039,1.825 8.075,2.065 12.107,0.736 4.03,-1.33 6.856,-3.831 8.492,-7.502 1.65,-3.702 1.627,-7.501 -0.054,-11.387 -1.695,-3.884 -4.564,-6.724 -8.617,-8.52 -4.053,-1.825 -8.089,-2.065 -12.107,-0.736"
         id="path2533" />
      <path
         inkscape:connector-curvature="0"
         style="fill:#ffffff"
         d="m 964.074,130.03 c -1.666,-3.709 -4.533,-6.226 -8.585,-7.552 -4.053,-1.326 -8.117,-1.053 -12.178,0.79 -4.06,1.828 -6.944,4.696 -8.636,8.617 -1.681,3.922 -1.671,7.737 -0.004,11.445 1.665,3.694 4.531,6.197 8.584,7.523 4.053,1.326 8.117,1.053 12.179,-0.791 4.06,-1.828 6.942,-4.696 8.637,-8.617 1.677,-3.921 1.67,-7.722 0.003,-11.415"
         id="path2535" />
      <path
         inkscape:connector-curvature="0"
         style="fill:#0e5cab"
         d="m 949.657,134.826 c -1.516,-1.948 -3.485,-3.088 -5.937,-3.39 -2.422,-0.304 -4.606,0.288 -6.541,1.803 -1.932,1.516 -3.058,3.486 -3.36,5.907 -0.304,2.421 0.289,4.622 1.775,6.568 1.516,1.934 3.485,3.06 5.905,3.363 2.452,0.302 4.637,-0.29 6.569,-1.775 1.935,-1.517 3.06,-3.485 3.362,-5.936 0.304,-2.422 -0.287,-4.607 -1.773,-6.54 m -4.373,0.215 c 1.453,0.715 2.425,1.858 2.913,3.397 0.518,1.54 0.402,3.037 -0.342,4.491 -0.717,1.454 -1.858,2.425 -3.396,2.913 -1.541,0.517 -3.037,0.403 -4.492,-0.342 -1.426,-0.716 -2.396,-1.858 -2.912,-3.398 -0.488,-1.54 -0.375,-3.036 0.342,-4.49 0.716,-1.425 1.857,-2.397 3.397,-2.913 1.539,-0.488 3.037,-0.374 4.49,0.342"
         id="path2537" />
      <path
         inkscape:connector-curvature="0"
         style="fill:#080101"
         d="m 948.197,138.438 c -0.488,-1.539 -1.46,-2.681 -2.913,-3.396 -1.453,-0.716 -2.951,-0.831 -4.49,-0.343 -1.54,0.516 -2.682,1.488 -3.397,2.913 -0.717,1.454 -0.83,2.951 -0.342,4.49 0.516,1.54 1.486,2.682 2.913,3.399 1.454,0.744 2.95,0.858 4.491,0.341 1.538,-0.487 2.68,-1.459 3.396,-2.913 0.745,-1.454 0.86,-2.951 0.342,-4.491"
         id="path2539" />
      <path
         inkscape:connector-curvature="0"
         style="fill:#ffffff"
         d="m 946.729,137.943 c -0.163,-0.483 -0.472,-0.865 -0.941,-1.113 -0.472,-0.234 -0.954,-0.277 -1.468,-0.114 -0.514,0.163 -0.895,0.486 -1.143,0.971 -0.233,0.47 -0.263,0.954 -0.085,1.467 0.162,0.514 0.471,0.88 0.941,1.114 0.485,0.233 0.983,0.277 1.469,0.113 0.512,-0.162 0.893,-0.486 1.141,-0.97 0.235,-0.47 0.263,-0.954 0.086,-1.468"
         id="path2541" />
      <path
         inkscape:connector-curvature="0"
         style="fill:#ffffff"
         d="m 923.436,131.91 c -1.711,-3.914 -4.609,-6.769 -8.677,-8.579 -4.067,-1.825 -8.133,-2.081 -12.179,-0.736 -4.049,1.344 -6.903,3.875 -8.553,7.59 -1.649,3.701 -1.641,7.502 0.055,11.416 1.711,3.913 4.607,6.768 8.675,8.578 4.071,1.826 8.134,2.08 12.182,0.736 4.046,-1.343 6.903,-3.859 8.552,-7.56 1.65,-3.716 1.64,-7.531 -0.055,-11.445"
         id="path2543" />
      <path
         inkscape:connector-curvature="0"
         style="fill:#0e5cab"
         d="m 921.911,135.17 c -1.518,-1.948 -3.483,-3.089 -5.936,-3.392 -2.421,-0.302 -4.606,0.29 -6.54,1.805 -1.934,1.516 -3.059,3.485 -3.36,5.906 -0.304,2.422 0.288,4.622 1.775,6.57 1.514,1.933 3.483,3.058 5.905,3.361 2.451,0.303 4.637,-0.289 6.569,-1.775 1.934,-1.516 3.058,-3.485 3.36,-5.935 0.306,-2.422 -0.288,-4.607 -1.773,-6.54 m -4.371,0.215 c 1.453,0.716 2.425,1.857 2.911,3.397 0.518,1.54 0.404,3.036 -0.341,4.491 -0.717,1.454 -1.859,2.425 -3.397,2.913 -1.539,0.516 -3.036,0.402 -4.491,-0.343 -1.425,-0.715 -2.396,-1.858 -2.912,-3.397 -0.488,-1.54 -0.376,-3.036 0.343,-4.491 0.715,-1.425 1.856,-2.395 3.396,-2.913 1.539,-0.487 3.036,-0.373 4.491,0.343"
         id="path2545" />
      <path
         inkscape:connector-curvature="0"
         style="fill:#080101"
         d="m 920.451,138.783 c -0.486,-1.541 -1.458,-2.682 -2.911,-3.397 -1.455,-0.716 -2.952,-0.831 -4.491,-0.343 -1.54,0.517 -2.682,1.488 -3.396,2.913 -0.719,1.455 -0.831,2.95 -0.343,4.49 0.517,1.539 1.487,2.683 2.913,3.398 1.454,0.745 2.951,0.859 4.49,0.342 1.538,-0.487 2.682,-1.458 3.397,-2.913 0.745,-1.454 0.859,-2.951 0.341,-4.49"
         id="path2547" />
      <path
         inkscape:connector-curvature="0"
         style="fill:#ffffff"
         d="m 918.984,138.286 c -0.163,-0.483 -0.473,-0.864 -0.943,-1.111 -0.468,-0.235 -0.953,-0.278 -1.466,-0.115 -0.513,0.163 -0.894,0.486 -1.144,0.971 -0.234,0.469 -0.262,0.954 -0.083,1.467 0.162,0.514 0.471,0.88 0.941,1.113 0.484,0.234 0.983,0.277 1.466,0.114 0.515,-0.163 0.895,-0.486 1.144,-0.971 0.235,-0.47 0.262,-0.954 0.085,-1.468"
         id="path2549" />
      <path
         inkscape:connector-curvature="0"
         style="fill:#3793d1"
         d="m 943.344,123.172 c -0.278,0.132 -0.543,0.25 -0.805,0.383 8.658,0.187 14.604,2.506 17.841,6.959 1.639,3.797 2.116,8.535 1.442,14.215 l 1.229,-1.074 c 0.439,-0.69 0.818,-1.425 1.154,-2.203 1.679,-3.937 1.685,-7.766 0.003,-11.474 -1.679,-3.738 -4.562,-6.27 -8.629,-7.596 -4.066,-1.326 -8.145,-1.052 -12.235,0.79"
         id="path2551" />
      <path
         inkscape:connector-curvature="0"
         style="fill:#3793d1"
         d="m 892.75,135.448 c 0,0.148 0,0.294 0.002,0.44 0.02,1.879 0.448,3.785 1.288,5.721 0.341,0.792 0.737,1.539 1.194,2.257 -0.756,-3.006 -0.601,-5.897 0.436,-8.644 0.016,-0.058 0.044,-0.117 0.059,-0.161 0.786,-2.042 2.06,-3.996 3.817,-5.893 0.188,-0.205 0.38,-0.41 0.583,-0.601 0.104,-0.104 0.206,-0.193 0.309,-0.296 4.071,-3.838 9.569,-5.142 16.513,-3.925 -0.679,-0.409 -1.382,-0.774 -2.13,-1.11 -4.098,-1.825 -8.178,-2.08 -12.239,-0.735 -0.13,0.044 -0.248,0.088 -0.366,0.132 -0.176,0.059 -0.338,0.118 -0.499,0.192 -3.605,1.401 -6.184,3.843 -7.73,7.31 -0.775,1.748 -1.197,3.524 -1.237,5.313"
         id="path2553" />
      <path
         inkscape:connector-curvature="0"
         style="fill:#070101"
         d="m 939.299,125.603 c 4.004,-1.579 8.066,-1.573 12.165,0.032 4.111,1.59 7.065,4.371 8.865,8.314 0.931,2.08 1.39,4.281 1.38,6.585 -0.012,2.201 -0.489,4.33 -1.438,6.371 0.862,-0.735 1.74,-1.735 2.632,-3.013 0.73,-1.763 1.167,-3.466 1.296,-5.095 0.085,-1.027 0.039,-2.04 -0.139,-3.052 2.313,-2.059 3.41,-3.866 3.289,-5.406 -0.016,-0.323 -0.572,-0.307 -1.672,0.061 -1.422,0.43 -2.288,0.651 -2.567,0.652 1.168,-2.277 1.459,-4.024 0.854,-5.241 -0.176,-0.38 -0.822,-0.129 -1.936,0.753 -0.57,0.427 -1.185,0.913 -1.844,1.428 0.187,-1.291 0.245,-2.333 0.185,-3.126 -0.017,-0.454 -0.136,-0.88 -0.342,-1.275 -0.236,-0.543 -0.529,-0.63 -0.867,-0.278 -1.023,1.162 -1.931,1.781 -2.724,1.885 -0.132,0.014 -0.309,0.015 -0.5,-0.013 -0.617,-0.337 -1.263,-0.629 -1.952,-0.906 -4.009,-1.576 -7.811,-1.861 -11.374,-0.855 -1.363,0.634 -2.475,1.355 -3.311,2.179"
         id="path2555" />
      <path
         inkscape:connector-curvature="0"
         style="fill:#070101"
         d="m 904.156,124.389 c -0.617,0.251 -1.203,0.517 -1.761,0.826 l -0.146,0.117 -0.071,0.499 -0.425,0.5 -0.323,0.177 c -0.306,0.735 -0.759,1.469 -1.344,2.219 -0.248,0.338 -0.525,0.691 -0.819,1.087 -0.204,0.28 -0.482,0.529 -0.82,0.765 -0.248,0.573 -0.495,1.161 -0.714,1.762 -0.643,1.748 -1.711,2.909 -3.207,3.486 -0.132,0.058 -0.263,0.103 -0.396,0.132 -0.175,0.984 -0.216,1.981 -0.126,2.993 0.138,1.629 0.58,3.33 1.317,5.089 0.898,1.275 1.767,2.256 2.619,2.959 -0.929,-2.008 -1.418,-4.12 -1.438,-6.321 -0.02,-2.304 0.431,-4.506 1.35,-6.592 1.782,-3.951 4.725,-6.744 8.83,-8.354 4.09,-1.622 8.094,-1.691 12.016,-0.217 -0.748,-0.732 -1.763,-1.375 -3.039,-1.931 -3.657,-1.062 -7.501,-0.79 -11.503,0.804"
         id="path2557" />
      <path
         inkscape:connector-curvature="0"
         style="fill:#070101"
         d="m 892.489,130.563 c -1.102,-0.364 -1.658,-0.378 -1.674,-0.054 -0.097,1.54 0.977,3.313 3.241,5.333 0.03,0.015 0.059,0.043 0.073,0.058 v 0.059 c 0.133,-0.029 0.264,-0.074 0.396,-0.132 1.496,-0.576 2.564,-1.738 3.207,-3.485 0.219,-0.602 0.466,-1.19 0.714,-1.762 0.338,-0.237 0.616,-0.486 0.82,-0.766 0.294,-0.396 0.571,-0.749 0.819,-1.087 0.585,-0.749 1.038,-1.484 1.344,-2.219 l 0.323,-0.176 0.425,-0.5 0.071,-0.499 0.146,-0.118 c -0.072,0.029 -0.132,0.058 -0.19,0.088 -0.043,0.015 -0.102,0.015 -0.145,0.03 -0.133,0.015 -0.251,0.001 -0.354,-0.014 -0.793,-0.101 -1.703,-0.715 -2.733,-1.872 -0.104,-0.118 -0.206,-0.19 -0.309,-0.205 -0.102,-0.014 -0.205,0.016 -0.294,0.089 -0.102,0.074 -0.189,0.206 -0.264,0.397 -0.203,0.396 -0.319,0.822 -0.332,1.277 -0.058,0.793 0.002,1.835 0.196,3.125 -0.66,-0.512 -1.278,-0.995 -1.852,-1.42 -1.117,-0.877 -1.765,-1.125 -1.938,-0.743 -0.6,1.22 -0.302,2.964 0.877,5.236 -0.276,0.001 -1.143,-0.217 -2.567,-0.64"
         id="path2559" />
      <path
         inkscape:connector-curvature="0"
         style="fill:#d4074c"
         d="m 984.718,175.115 c 0.264,-0.535 0.294,-1.088 0.104,-1.662 l -0.119,-0.365 c -0.203,-0.571 -0.556,-0.999 -1.073,-1.281 -0.525,-0.264 -1.069,-0.305 -1.622,-0.141 l -62.311,20.254 c -0.549,0.175 -0.944,0.537 -1.195,1.069 -0.262,0.535 -0.294,1.088 -0.117,1.668 l 0.121,0.363 c 0.202,0.571 0.568,0.995 1.086,1.277 0.525,0.264 1.055,0.309 1.584,0.122 l 62.336,-20.23 c 0.542,-0.192 0.937,-0.553 1.206,-1.074"
         id="path2561" />
      <path
         inkscape:connector-curvature="0"
         style="fill:none;stroke:#d40247;stroke-width:4.36399984;stroke-miterlimit:10"
         d="m 984.822,173.453 -0.119,-0.365 c -0.203,-0.571 -0.556,-0.999 -1.073,-1.281 -0.525,-0.264 -1.069,-0.305 -1.622,-0.141 l -62.312,20.254 c -0.548,0.176 -0.943,0.537 -1.194,1.069 -0.262,0.535 -0.294,1.088 -0.117,1.668 l 0.121,0.363 c 0.202,0.571 0.568,0.995 1.087,1.277 0.524,0.264 1.054,0.309 1.584,0.122 l 62.335,-20.229 c 0.542,-0.192 0.938,-0.553 1.207,-1.074 0.262,-0.536 0.293,-1.089 0.103,-1.663 z"
         id="path2563" />
      <path
         inkscape:connector-curvature="0"
         style="fill:#d4074c"
         d="m 984.718,175.115 c 0.264,-0.535 0.294,-1.088 0.104,-1.662 l -0.119,-0.365 c -0.203,-0.571 -0.556,-0.999 -1.073,-1.281 -0.525,-0.264 -1.069,-0.305 -1.622,-0.141 l -62.311,20.254 c -0.549,0.175 -0.944,0.537 -1.195,1.069 -0.262,0.535 -0.294,1.088 -0.117,1.668 l 0.121,0.363 c 0.202,0.571 0.568,0.995 1.086,1.277 0.525,0.264 1.055,0.309 1.584,0.122 l 62.336,-20.23 c 0.542,-0.192 0.937,-0.553 1.206,-1.074"
         id="path2565" />
      <path
         inkscape:connector-curvature="0"
         style="fill:none;stroke:#d4074c;stroke-width:2.26900005;stroke-miterlimit:10"
         d="m 984.822,173.453 -0.119,-0.365 c -0.203,-0.571 -0.556,-0.999 -1.073,-1.281 -0.525,-0.264 -1.069,-0.305 -1.622,-0.141 l -62.312,20.254 c -0.548,0.176 -0.943,0.537 -1.194,1.069 -0.262,0.535 -0.294,1.088 -0.117,1.668 l 0.121,0.363 c 0.202,0.571 0.568,0.995 1.087,1.277 0.524,0.264 1.054,0.309 1.584,0.122 l 62.335,-20.229 c 0.542,-0.192 0.938,-0.553 1.207,-1.074 0.262,-0.536 0.293,-1.089 0.103,-1.663 z"
         id="path2567" />
      <polygon
         style="fill:#d4074c"
         points="941.543,184.829 945.993,188.365 948.811,187.45 944.375,183.91 "
         id="polygon2569" />
      <polygon
         style="fill:none;stroke:#d4074c;stroke-width:2.26900005;stroke-miterlimit:10"
         points="941.543,184.829 944.375,183.91 948.811,187.45 945.993,188.365 "
         id="polygon2571" />
      <polygon
         style="fill:#d4074c"
         points="970.583,175.389 967.444,176.393 965.055,182.163 968.216,181.138 "
         id="polygon2573" />
      <polygon
         style="fill:none;stroke:#d4074c;stroke-width:2.26900005;stroke-miterlimit:10"
         points="970.583,175.389 968.216,181.138 965.055,182.163 967.444,176.393 "
         id="polygon2575" />
      <polygon
         style="fill:#d4074c"
         points="957.046,179.782 961.482,183.323 964.298,182.44 959.86,178.853 "
         id="polygon2577" />
      <polygon
         style="fill:none;stroke:#d4074c;stroke-width:2.26900005;stroke-miterlimit:10"
         points="957.046,179.782 959.86,178.853 964.298,182.44 961.482,183.323 "
         id="polygon2579" />
      <polygon
         style="fill:#d4074c"
         points="950.004,187.063 953.128,186.064 955.494,180.271 952.392,181.292 "
         id="polygon2581" />
      <polygon
         style="fill:none;stroke:#d4074c;stroke-width:2.26900005;stroke-miterlimit:10"
         points="950.004,187.063 952.392,181.292 955.494,180.271 953.128,186.064 "
         id="polygon2583" />
      <polygon
         style="fill:#d4074c"
         points="940.009,185.327 936.885,186.326 934.476,192.086 937.603,191.089 "
         id="polygon2585" />
      <polygon
         style="fill:none;stroke:#d4074c;stroke-width:2.26900005;stroke-miterlimit:10"
         points="940.009,185.327 937.603,191.089 934.476,192.086 936.885,186.326 "
         id="polygon2587" />
      <polygon
         style="fill:#d4074c"
         points="929.704,193.65 932.54,192.746 928.096,189.176 925.269,190.111 "
         id="polygon2589" />
      <polygon
         style="fill:none;stroke:#d4074c;stroke-width:2.26900005;stroke-miterlimit:10"
         points="929.704,193.65 925.269,190.111 928.096,189.176 932.54,192.746 "
         id="polygon2591" />
      <path
         inkscape:connector-curvature="0"
         style="fill:#84539c"
         d="m 984.718,175.115 c 0.264,-0.535 0.294,-1.088 0.104,-1.662 l -0.119,-0.365 c -0.203,-0.571 -0.556,-0.999 -1.073,-1.281 -0.525,-0.264 -1.069,-0.305 -1.622,-0.141 l -62.311,20.254 c -0.549,0.175 -0.944,0.537 -1.195,1.069 -0.262,0.535 -0.294,1.088 -0.117,1.668 l 0.121,0.363 c 0.202,0.571 0.568,0.995 1.086,1.277 0.525,0.264 1.055,0.309 1.584,0.122 l 62.336,-20.23 c 0.542,-0.192 0.937,-0.553 1.206,-1.074"
         id="path2593" />
      <polygon
         style="fill:#e97ca0"
         points="941.543,184.829 945.993,188.365 948.811,187.45 944.375,183.91 "
         id="polygon2595" />
      <polygon
         style="fill:#6bc4ee"
         points="970.583,175.389 967.444,176.393 965.055,182.163 968.216,181.138 "
         id="polygon2597" />
      <polygon
         style="fill:#e97ca0"
         points="957.046,179.782 961.482,183.323 964.298,182.44 959.86,178.853 "
         id="polygon2599" />
      <polygon
         style="fill:#6bc4ee"
         points="950.004,187.063 953.128,186.064 955.494,180.271 952.392,181.292 "
         id="polygon2601" />
      <polygon
         style="fill:#6bc4ee"
         points="940.009,185.327 936.885,186.326 934.476,192.086 937.603,191.089 "
         id="polygon2603" />
      <polygon
         style="fill:#e97ca0"
         points="929.704,193.65 932.54,192.746 928.096,189.176 925.269,190.111 "
         id="polygon2605" />
      <path
         inkscape:connector-curvature="0"
         style="fill:#f0d5e6"
         d="m 995.46,164.521 c -0.946,-0.345 -1.849,-0.098 -2.711,0.741 -0.854,0.851 -1.93,2.193 -3.199,4.047 -1.446,1.726 -3.424,3.174 -5.944,4.349 l 0.104,-0.003 c 2.67,-0.588 4.961,-1.222 6.859,-1.9 3.544,-1.29 5.526,-2.91 5.964,-4.851 0.281,-1.257 -0.067,-2.043 -1.073,-2.383"
         id="path2607" />
      <path
         inkscape:connector-curvature="0"
         style="fill:#f0d5e6"
         d="m 974.732,182.014 c 1.348,-1.756 2.606,-3.266 3.769,-4.527 1.16,-1.261 2.919,-2.547 5.291,-3.858 -0.778,-0.198 -3.069,0.437 -6.846,1.895 -3.559,1.295 -5.559,2.906 -6.001,4.834 -0.269,1.25 0.085,2.05 1.077,2.396 0.956,0.324 1.859,0.078 2.71,-0.74"
         id="path2609" />
      <path
         inkscape:connector-curvature="0"
         style="fill:#f0d5e6"
         d="m 992.778,161.667 c -1.003,-0.061 -1.815,0.42 -2.435,1.442 -0.606,1.051 -1.312,2.644 -2.086,4.804 -0.951,2.03 -2.5,3.96 -4.668,5.796 l 0.119,-0.054 c 2.43,-1.269 4.454,-2.485 6.09,-3.636 3.099,-2.185 4.625,-4.278 4.558,-6.273 -0.031,-1.291 -0.563,-1.989 -1.578,-2.079"
         id="path2611" />
      <path
         inkscape:connector-curvature="0"
         style="fill:#6bc4ee"
         d="m 995.46,164.521 c -0.946,-0.345 -1.849,-0.098 -2.711,0.741 -0.854,0.851 -1.93,2.193 -3.199,4.047 -1.446,1.726 -3.424,3.174 -5.944,4.349 l 0.104,-0.003 c 2.579,-0.402 5.259,-1.147 8.026,-2.217 2.766,-1.083 4.359,-2.593 4.797,-4.534 0.281,-1.257 -0.067,-2.043 -1.073,-2.383"
         id="path2613" />
      <path
         inkscape:connector-curvature="0"
         style="fill:#eddd00"
         d="m 992.778,161.667 c -1.003,-0.061 -1.815,0.42 -2.435,1.442 -0.606,1.051 -1.312,2.644 -2.086,4.804 -0.951,2.03 -2.5,3.96 -4.668,5.796 l 0.119,-0.054 c 2.43,-1.269 4.454,-2.485 6.09,-3.636 3.099,-2.185 4.625,-4.278 4.558,-6.273 -0.031,-1.291 -0.563,-1.989 -1.578,-2.079"
         id="path2615" />
      <path
         inkscape:connector-curvature="0"
         style="fill:#eddd00"
         d="m 977.678,177.241 c -3.095,2.199 -4.617,4.291 -4.553,6.287 0.037,1.307 0.562,1.989 1.573,2.065 1.005,0.061 1.815,-0.419 2.434,-1.442 0.865,-2.065 1.569,-3.659 2.091,-4.789 0.959,-2.018 2.482,-3.924 4.569,-5.733 -0.662,0.199 -2.706,1.404 -6.114,3.612"
         id="path2617" />
      <path
         inkscape:connector-curvature="0"
         style="fill:#f0d5e6"
         d="m 989.517,159.624 c -0.969,0.19 -1.623,0.868 -1.967,2.035 -0.349,1.199 -0.622,2.947 -0.824,5.231 -0.432,2.188 -1.436,4.438 -3.017,6.765 2.037,-1.87 3.696,-3.589 4.99,-5.14 2.477,-2.929 3.431,-5.364 2.873,-7.293 -0.354,-1.265 -1.041,-1.788 -2.055,-1.598"
         id="path2619" />
      <path
         inkscape:connector-curvature="0"
         style="fill:#6bc4ee"
         d="m 979.928,185.603 c 0.326,-2.232 0.695,-4.197 1.104,-5.897 0.411,-1.701 1.354,-3.759 2.813,-6.187 l -0.076,0.087 c -0.535,0.312 -2.188,2.011 -4.973,5.103 -2.458,2.939 -3.428,5.378 -2.893,7.33 0.371,1.261 1.043,1.787 2.057,1.597 0.981,-0.194 1.638,-0.872 1.968,-2.033 l 0,0 z"
         id="path2621" />
      <path
         inkscape:connector-curvature="0"
         style="fill:#f0d5e6"
         d="m 988.243,159.48 c -0.645,-1.126 -1.434,-1.459 -2.36,-1.003 -0.891,0.427 -1.362,1.248 -1.396,2.484 -0.041,1.255 0.114,3.019 0.464,5.279 0.135,2.299 -0.296,4.812 -1.27,7.517 l 0.051,-0.077 c 1.481,-2.36 2.652,-4.461 3.52,-6.294 1.643,-3.528 1.973,-6.163 0.991,-7.906"
         id="path2623" />
      <path
         inkscape:connector-curvature="0"
         style="fill:#f0d5e6"
         d="m 989.517,159.624 c -0.969,0.19 -1.623,0.868 -1.967,2.035 -0.349,1.199 -0.622,2.947 -0.824,5.231 -0.432,2.188 -1.436,4.438 -3.017,6.765 2.037,-1.87 3.696,-3.589 4.99,-5.14 2.477,-2.929 3.431,-5.364 2.873,-7.293 -0.354,-1.265 -1.041,-1.788 -2.055,-1.598"
         id="path2625" />
      <path
         inkscape:connector-curvature="0"
         style="fill:#6bc4ee"
         d="m 988.243,159.48 c -0.645,-1.126 -1.434,-1.459 -2.36,-1.003 -0.891,0.427 -1.362,1.248 -1.396,2.484 -0.041,1.255 0.101,3.07 0.415,5.451 0.063,2.134 -0.338,4.593 -1.221,7.345 l 0.051,-0.077 c 1.481,-2.36 2.652,-4.461 3.52,-6.294 1.643,-3.528 1.973,-6.163 0.991,-7.906"
         id="path2627" />
      <path
         inkscape:connector-curvature="0"
         style="fill:#eddd00"
         d="m 983.822,173.495 -0.053,0.111 c -0.365,0.691 -1.555,2.784 -3.549,6.301 -1.656,3.485 -1.978,6.102 -0.991,7.86 0.662,1.135 1.444,1.487 2.371,1.031 0.89,-0.428 1.356,-1.262 1.393,-2.484 -0.235,-2.282 -0.38,-4.065 -0.449,-5.331 -0.148,-2.293 0.272,-4.788 1.278,-7.488"
         id="path2629" />
      <path
         inkscape:connector-curvature="0"
         style="fill:#f0d5e6"
         d="m 982.896,166.163 c 0.732,2.136 1.009,4.636 0.836,7.517 0.785,-2.722 1.336,-5.103 1.673,-7.122 0.591,-3.868 0.189,-6.515 -1.212,-7.921 -0.921,-0.911 -1.757,-1.013 -2.513,-0.317 -0.729,0.688 -0.95,1.626 -0.649,2.817 0.282,1.226 0.908,2.901 1.865,5.026"
         id="path2631" />
      <path
         inkscape:connector-curvature="0"
         style="fill:#f0d5e6"
         d="m 985.811,188.936 c 0.737,-0.657 0.959,-1.597 0.667,-2.807 -0.838,-2.132 -1.463,-3.807 -1.878,-5.021 -0.732,-2.135 -1.024,-4.632 -0.859,-7.493 -0.549,1.187 -1.103,3.553 -1.641,7.125 -0.604,3.873 -0.209,6.505 1.203,7.894 0.921,0.909 1.758,1.011 2.508,0.302"
         id="path2633" />
      <path
         inkscape:connector-curvature="0"
         style="fill:#f0d5e6"
         d="m 983.76,173.81 -0.004,-0.106 c 0.086,-2.868 0.027,-5.347 -0.165,-7.409 -0.354,-3.934 -1.382,-6.409 -3.073,-7.411 -1.107,-0.647 -1.947,-0.531 -2.501,0.362 -0.52,0.866 -0.503,1.838 0.065,2.925 0.6,1.125 1.594,2.587 3.025,4.402 1.257,1.933 2.142,4.346 2.653,7.237"
         id="path2635" />
      <path
         inkscape:connector-curvature="0"
         style="fill:#f0d5e6"
         d="m 982.896,166.163 c 0.732,2.136 1.009,4.636 0.836,7.517 0.785,-2.722 1.336,-5.103 1.673,-7.122 0.591,-3.868 0.189,-6.515 -1.212,-7.921 -0.921,-0.911 -1.757,-1.013 -2.513,-0.317 -0.729,0.688 -0.95,1.626 -0.649,2.817 0.282,1.226 0.908,2.901 1.865,5.026"
         id="path2637" />
      <path
         inkscape:connector-curvature="0"
         style="fill:#eddd00"
         d="m 983.76,173.81 -0.004,-0.106 c 0.086,-2.868 0.027,-5.347 -0.165,-7.409 -0.354,-3.934 -1.382,-6.409 -3.073,-7.411 -1.107,-0.647 -1.947,-0.531 -2.501,0.362 -0.52,0.866 -0.503,1.838 0.065,2.925 0.6,1.125 1.594,2.587 3.025,4.402 1.257,1.933 2.142,4.346 2.653,7.237"
         id="path2639" />
      <path
         inkscape:connector-curvature="0"
         style="fill:#eddd00"
         d="m 989.463,188.015 c 0.526,-0.837 0.509,-1.81 -0.051,-2.915 -1.322,-1.853 -2.321,-3.327 -3.024,-4.402 -1.257,-1.934 -2.141,-4.347 -2.651,-7.238 l 0.008,0.123 c -0.094,0.68 -0.053,3.15 0.147,7.397 0.354,3.933 1.376,6.395 3.078,7.379 1.111,0.663 1.938,0.55 2.493,-0.344"
         id="path2641" />
      <path
         inkscape:connector-curvature="0"
         style="fill:#f0d5e6"
         d="m 983.781,173.787 -0.017,-0.102 c -0.607,-2.814 -1.241,-5.197 -1.933,-7.161 -1.293,-3.754 -2.88,-5.906 -4.768,-6.442 -1.221,-0.348 -1.978,-0.026 -2.291,0.96 -0.298,0.982 -0.049,1.924 0.754,2.844 0.828,0.956 2.157,2.138 3.971,3.551 1.677,1.55 3.1,3.663 4.284,6.35"
         id="path2643" />
      <path
         inkscape:connector-curvature="0"
         style="fill:#6bc4ee"
         d="m 991.96,183.357 c -1.712,-1.476 -3.036,-2.645 -3.962,-3.523 -1.67,-1.536 -3.112,-3.66 -4.308,-6.373 l 0.028,0.129 c 0.002,0.698 0.653,3.093 1.949,7.171 1.275,3.742 2.857,5.882 4.729,6.409 1.223,0.361 1.995,0.035 2.297,-0.979 0.331,-0.977 0.097,-1.923 -0.733,-2.834"
         id="path2645" />
      <path
         inkscape:connector-curvature="0"
         style="fill:#f0d5e6"
         d="m 983.765,173.685 c -1.272,-2.582 -2.473,-4.751 -3.577,-6.502 -2.166,-3.316 -4.204,-4.997 -6.141,-5.035 -1.266,-0.025 -1.941,0.504 -2.002,1.564 -0.041,1.022 0.455,1.885 1.471,2.579 1.021,0.707 2.571,1.507 4.633,2.39 1.944,1.075 3.826,2.745 5.616,5.004"
         id="path2647" />
      <path
         inkscape:connector-curvature="0"
         style="fill:#f0d5e6"
         d="m 983.781,173.787 -0.017,-0.102 c -0.607,-2.814 -1.241,-5.197 -1.933,-7.161 -1.293,-3.754 -2.88,-5.906 -4.768,-6.442 -1.221,-0.348 -1.978,-0.026 -2.291,0.96 -0.298,0.982 -0.049,1.924 0.754,2.844 0.828,0.956 2.157,2.138 3.971,3.551 1.677,1.55 3.1,3.663 4.284,6.35"
         id="path2649" />
      <path
         inkscape:connector-curvature="0"
         style="fill:#6bc4ee"
         d="m 973.516,166.291 c 1.02,0.708 2.571,1.507 4.633,2.39 1.94,1.155 3.805,2.815 5.616,5.004 -1.273,-2.581 -2.473,-4.751 -3.577,-6.502 -2.166,-3.316 -4.204,-4.996 -6.141,-5.035 -1.266,-0.024 -1.941,0.504 -2.002,1.564 -0.041,1.021 0.455,1.885 1.471,2.579"
         id="path2651" />
      <path
         inkscape:connector-curvature="0"
         style="fill:#eddd00"
         d="m 993.985,180.994 c -2.013,-1.008 -3.55,-1.811 -4.639,-2.404 -1.978,-1.08 -3.874,-2.792 -5.679,-5.107 l 0.051,0.107 c 0.198,0.791 1.396,2.961 3.591,6.499 2.161,3.301 4.198,4.982 6.121,5.024 1.261,0.011 1.923,-0.514 1.982,-1.573 0.043,-1.022 -0.434,-1.875 -1.427,-2.546"
         id="path2653" />
      <path
         inkscape:connector-curvature="0"
         style="fill:#f0d5e6"
         d="m 983.861,173.746 -0.075,-0.084 c -1.874,-2.153 -3.592,-3.922 -5.135,-5.299 -2.918,-2.605 -5.311,-3.661 -7.158,-3.154 -1.213,0.317 -1.714,1.006 -1.491,2.052 0.217,1.03 0.905,1.737 2.039,2.099 1.147,0.403 2.852,0.75 5.094,1.03 2.163,0.493 4.408,1.61 6.726,3.356"
         id="path2655" />
      <path
         inkscape:connector-curvature="0"
         style="fill:#f0d5e6"
         d="m 995.451,177.896 c -2.19,-0.391 -3.89,-0.723 -5.088,-1.002 -2.146,-0.498 -4.36,-1.61 -6.645,-3.305 0.33,0.685 2.03,2.445 5.095,5.313 2.935,2.616 5.327,3.669 7.175,3.162 1.209,-0.33 1.71,-1.019 1.484,-2.079 -0.224,-0.997 -0.906,-1.691 -2.021,-2.089"
         id="path2657" />
      <path
         inkscape:connector-curvature="0"
         style="fill:#f0d5e6"
         d="m 983.865,173.713 -0.079,-0.052 c -2.334,-1.616 -4.401,-2.884 -6.214,-3.831 -3.437,-1.787 -5.98,-2.203 -7.646,-1.228 -1.075,0.644 -1.389,1.444 -0.92,2.409 0.442,0.926 1.262,1.436 2.455,1.514 1.224,0.085 2.932,-0.019 5.113,-0.34 2.215,-0.082 4.643,0.432 7.291,1.528"
         id="path2659" />
      <path
         inkscape:connector-curvature="0"
         style="fill:#eddd00"
         d="m 983.861,173.746 -0.075,-0.084 c -1.874,-2.153 -3.592,-3.922 -5.135,-5.299 -2.918,-2.605 -5.311,-3.661 -7.158,-3.154 -1.213,0.317 -1.714,1.006 -1.491,2.052 0.217,1.03 0.905,1.737 2.039,2.099 1.147,0.403 2.852,0.75 5.094,1.03 2.163,0.493 4.408,1.61 6.726,3.356"
         id="path2661" />
      <path
         inkscape:connector-curvature="0"
         style="fill:#f0d5e6"
         d="m 983.865,173.713 -0.079,-0.052 c -2.334,-1.616 -4.401,-2.884 -6.214,-3.831 -3.437,-1.787 -5.98,-2.203 -7.646,-1.228 -1.075,0.644 -1.389,1.444 -0.92,2.409 0.442,0.926 1.262,1.436 2.455,1.514 1.224,0.085 2.932,-0.019 5.113,-0.34 2.215,-0.082 4.643,0.432 7.291,1.528"
         id="path2663" />
      <path
         inkscape:connector-curvature="0"
         style="fill:#6bc4ee"
         d="m 996.017,174.735 c -2.188,0.167 -3.892,0.285 -5.101,0.336 -2.234,0.074 -4.66,-0.442 -7.309,-1.538 l 0.087,0.081 c 0.546,0.459 2.619,1.74 6.224,3.814 3.449,1.78 5.994,2.196 7.637,1.244 1.075,-0.644 1.383,-1.458 0.928,-2.427 -0.441,-0.927 -1.269,-1.418 -2.466,-1.51"
         id="path2665" />
      <path
         inkscape:connector-curvature="0"
         style="fill:#f0d5e6"
         d="m 976.518,174.082 c 2.058,-0.653 4.469,-0.783 7.247,-0.397 -2.615,-0.997 -4.897,-1.715 -6.876,-2.159 -3.752,-0.861 -6.287,-0.597 -7.634,0.786 -0.874,0.889 -0.981,1.762 -0.304,2.58 0.67,0.792 1.565,1.075 2.716,0.84 1.183,-0.229 2.802,-0.784 4.851,-1.65"
         id="path2667" />
      <path
         inkscape:connector-curvature="0"
         style="fill:#eddd00"
         d="m 990.594,175.75 c 3.748,0.847 6.282,0.583 7.634,-0.786 0.874,-0.889 0.981,-1.761 0.316,-2.585 -0.668,-0.791 -1.579,-1.07 -2.729,-0.836 -2.057,0.745 -3.677,1.302 -4.849,1.651 -2.104,0.652 -4.548,0.777 -7.358,0.387 l 0.088,0.033 c 0.662,0.312 2.971,1.02 6.898,2.136"
         id="path2669" />
      <path
         inkscape:connector-curvature="0"
         style="fill:#f0d5e6"
         d="m 983.91,173.621 -0.118,0.008 c -2.766,-0.251 -5.145,-0.348 -7.136,-0.276 -3.786,0.143 -6.167,1.056 -7.139,2.751 -0.646,1.125 -0.543,1.992 0.318,2.627 0.828,0.585 1.777,0.618 2.836,0.104 1.782,-1.261 3.208,-2.219 4.262,-2.887 1.855,-1.176 4.179,-1.946 6.977,-2.327"
         id="path2671" />
      <path
         inkscape:connector-curvature="0"
         style="fill:#6bc4ee"
         d="m 975.582,171.189 c -2.875,-0.633 -4.98,-0.261 -6.327,1.123 -0.874,0.888 -0.981,1.761 -0.304,2.579 0.669,0.792 1.565,1.075 2.716,0.84 1.183,-0.228 2.802,-0.784 4.851,-1.65 2.058,-0.653 4.469,-0.784 7.247,-0.397 -2.572,-1.042 -5.296,-1.865 -8.183,-2.495"
         id="path2673" />
      <path
         inkscape:connector-curvature="0"
         style="fill:#eddd00"
         d="m 983.91,173.621 -0.118,0.008 c -2.766,-0.251 -5.145,-0.348 -7.136,-0.276 -3.786,0.143 -6.167,1.056 -7.139,2.751 -0.646,1.125 -0.543,1.992 0.318,2.627 0.828,0.585 1.777,0.618 2.836,0.104 1.782,-1.261 3.208,-2.219 4.262,-2.887 1.855,-1.176 4.179,-1.946 6.977,-2.327"
         id="path2675" />
      <path
         inkscape:connector-curvature="0"
         style="fill:#f0d5e6"
         d="m 990.839,173.917 c 3.781,-0.158 6.176,-1.074 7.162,-2.774 0.604,-1.112 0.487,-1.974 -0.338,-2.59 -0.851,-0.608 -1.792,-0.66 -2.839,-0.118 -1.081,0.537 -2.494,1.492 -4.24,2.865 -1.868,1.18 -4.187,1.964 -6.977,2.325 l 0.078,0.006 c 0.732,0.153 3.127,0.244 7.154,0.286"
         id="path2677" />
      <path
         inkscape:connector-curvature="0"
         style="fill:#e27c9f"
         d="m 942.721,188.183 c 1.237,1.727 1.248,3.303 0.062,4.738 -1.425,1.566 -3.43,2.176 -6.036,1.827 -1.776,-0.315 -2.475,-1.689 -2.139,-4.118 1.669,-3.68 4.364,-4.492 8.113,-2.447"
         id="path2679" />
      <path
         inkscape:connector-curvature="0"
         style="fill:none;stroke:#c4084a;stroke-width:2.36199999;stroke-linecap:round;stroke-linejoin:round;stroke-miterlimit:10"
         d="m 942.721,188.183 c -3.749,-2.045 -6.443,-1.233 -8.112,2.447 -0.336,2.429 0.362,3.803 2.139,4.118 2.606,0.349 4.611,-0.261 6.036,-1.827 1.185,-1.436 1.174,-3.011 -0.063,-4.738 z"
         id="path2681" />
      <path
         inkscape:connector-curvature="0"
         style="fill:#c4084a"
         d="m 942.355,189.841 c -0.039,0.021 -0.081,0.023 -0.12,0.023 -1.102,0.171 -2.134,-0.015 -3.108,-0.545 -0.371,1.751 -1.335,2.795 -2.901,3.121 -2.778,0.731 -4.765,0.276 -5.937,-1.391 -0.852,-1.316 -1.497,-2.617 -1.938,-3.902 l 0.012,-0.011 -0.033,-0.051 c -0.801,-2.372 -0.891,-4.668 -0.261,-6.896 0.352,-1.228 1.08,-2.258 2.195,-3.076 0.07,-0.053 0.149,-0.097 0.241,-0.13 1.584,-0.63 2.967,-0.672 4.157,-0.115 1.216,-1.383 2.402,-2.234 3.536,-2.573 1.529,-0.504 2.979,-0.14 4.337,1.062 1.9,1.68 3.073,3.887 3.508,6.614 0.715,4.598 -0.524,7.225 -3.688,7.87 m -5.376,-2.762 -0.002,-0.041 c -0.034,-0.616 -0.123,-1.303 -0.265,-2.061 -0.079,-0.437 -0.18,-0.916 -0.312,-1.424 l -0.01,-0.01 c -0.501,-2.046 -1.213,-3.45 -2.133,-4.211 l -0.043,-0.021 c -0.085,-0.06 -0.157,-0.11 -0.241,-0.172 -0.691,-0.36 -1.501,-0.352 -2.44,-0.008 -0.707,0.527 -1.156,1.362 -1.348,2.483 -0.269,1.531 -0.066,3.291 0.606,5.281 0.322,0.889 0.703,1.695 1.108,2.406 0.086,0.082 0.162,0.175 0.207,0.279 l 0.021,0.041 c 0.707,0.777 1.872,0.949 3.484,0.527 l -0.009,0.01 c 0.972,-0.355 1.434,-1.379 1.377,-3.079 m 2.014,-2.509 c 0.13,0.708 0.229,1.364 0.261,1.957 0.766,0.756 1.62,1.092 2.552,0.998 1.75,-0.551 2.399,-2.277 1.956,-5.212 v -0.019 c -0.351,-2.123 -1.258,-3.836 -2.734,-5.17 -0.66,-0.592 -1.364,-0.784 -2.103,-0.569 -0.747,0.267 -1.546,0.848 -2.369,1.765 0.869,1.056 1.566,2.605 2.078,4.682 l 0.01,-0.01 c 0.146,0.56 0.257,1.09 0.339,1.589 l 0.01,-0.011 z"
         id="path2683" />
      <path
         inkscape:connector-curvature="0"
         style="fill:#e27c9f"
         d="m 936.978,187.038 0.002,0.042 c 0.057,1.7 -0.405,2.724 -1.375,3.079 l 0.009,-0.011 c -1.613,0.422 -2.777,0.25 -3.484,-0.527 l -0.021,-0.041 c -0.045,-0.104 -0.121,-0.197 -0.207,-0.278 -0.405,-0.712 -0.786,-1.517 -1.109,-2.407 -0.672,-1.989 -0.875,-3.75 -0.605,-5.281 0.191,-1.121 0.641,-1.955 1.348,-2.483 0.939,-0.343 1.749,-0.351 2.44,0.008 0.084,0.062 0.156,0.112 0.241,0.172 l 0.043,0.021 c 0.92,0.761 1.632,2.165 2.133,4.211 l 0.01,0.011 c 0.133,0.507 0.233,0.986 0.312,1.423 0.139,0.758 0.228,1.444 0.263,2.061"
         id="path2685" />
      <path
         inkscape:connector-curvature="0"
         style="fill:#e27c9f"
         d="m 939.254,186.527 c -0.033,-0.593 -0.131,-1.249 -0.261,-1.957 l -0.011,0.011 c -0.082,-0.499 -0.193,-1.029 -0.339,-1.589 l -0.01,0.01 c -0.512,-2.077 -1.209,-3.626 -2.079,-4.683 0.824,-0.916 1.622,-1.497 2.37,-1.764 0.738,-0.215 1.442,-0.023 2.103,0.568 1.477,1.335 2.384,3.048 2.733,5.171 l 10e-4,0.019 c 0.443,2.935 -0.207,4.661 -1.957,5.212 -0.93,0.094 -1.784,-0.242 -2.55,-0.998"
         id="path2687" />
      <path
         inkscape:connector-curvature="0"
         style="fill:#e27c9f"
         d="m 930.603,187.274 c 0.136,2.962 -0.815,4.539 -2.88,4.731 -2.525,0.171 -3.894,-1.26 -4.105,-4.293 0,-3.475 1.098,-5.254 3.279,-5.314 2.178,-0.06 3.412,1.563 3.706,4.876"
         id="path2689" />
      <path
         inkscape:connector-curvature="0"
         style="fill:none;stroke:#c4084a;stroke-width:2.36199999;stroke-linecap:round;stroke-linejoin:round;stroke-miterlimit:10"
         d="m 930.603,187.274 c -0.294,-3.313 -1.527,-4.936 -3.706,-4.876 -2.182,0.06 -3.279,1.839 -3.279,5.314 0.212,3.033 1.58,4.464 4.105,4.293 2.064,-0.192 3.015,-1.769 2.88,-4.731 z"
         id="path2691" />
      <path
         inkscape:connector-curvature="0"
         style="fill:#e27c9f"
         d="m 953.905,185.636 c 0.129,2.116 1.117,3.348 2.945,3.724 2.097,0.325 4.04,-0.456 5.846,-2.361 1.183,-1.356 0.858,-2.862 -0.937,-4.54 -3.622,-1.818 -6.23,-0.761 -7.854,3.177"
         id="path2693" />
      <path
         inkscape:connector-curvature="0"
         style="fill:none;stroke:#c4084a;stroke-width:2.36599994;stroke-linecap:round;stroke-linejoin:round;stroke-miterlimit:10"
         d="m 953.905,185.636 c 1.624,-3.938 4.231,-4.995 7.854,-3.177 1.795,1.678 2.119,3.184 0.937,4.54 -1.806,1.905 -3.749,2.686 -5.846,2.361 -1.828,-0.376 -2.816,-1.608 -2.945,-3.724 z"
         id="path2695" />
      <path
         inkscape:connector-curvature="0"
         style="fill:#e27c9f"
         d="m 960.911,177.216 c 1.055,2.67 2.537,3.694 4.432,3.067 2.284,-0.806 2.904,-2.588 1.889,-5.341 -1.388,-3.047 -3.048,-4.185 -5.001,-3.42 -1.933,0.785 -2.377,2.682 -1.32,5.694"
         id="path2697" />
      <path
         inkscape:connector-curvature="0"
         style="fill:none;stroke:#c4084a;stroke-width:2.36599994;stroke-linecap:round;stroke-linejoin:round;stroke-miterlimit:10"
         d="m 960.911,177.216 c -1.057,-3.012 -0.613,-4.909 1.319,-5.694 1.953,-0.765 3.613,0.373 5.001,3.42 1.016,2.753 0.396,4.535 -1.889,5.341 -1.894,0.627 -3.376,-0.397 -4.431,-3.067 z"
         id="path2699" />
      <path
         inkscape:connector-curvature="0"
         style="fill:#c4084a"
         d="m 955.237,186.696 c 0.045,-0.007 0.077,-0.032 0.109,-0.058 0.962,-0.555 1.648,-1.346 2.07,-2.369 1.396,1.129 2.804,1.337 4.229,0.611 2.622,-1.171 3.879,-2.77 3.737,-4.798 -0.358,-5.066 -2.102,-8.432 -5.229,-10.115 -1.102,-0.551 -2.287,-0.801 -3.555,-0.736 -0.088,0.002 -0.177,0.018 -0.269,0.049 -1.63,0.502 -2.73,1.335 -3.305,2.514 -1.82,-0.314 -3.28,-0.233 -4.377,0.213 -1.506,0.564 -2.404,1.755 -2.701,3.541 -0.416,2.497 0.066,4.947 1.449,7.339 2.352,4.022 4.976,5.287 7.842,3.809 m 0.346,-4.261 c -0.189,0.924 -0.644,1.63 -1.38,2.114 -1.709,0.67 -3.306,-0.266 -4.813,-2.825 l -0.013,-0.017 c -1.068,-1.868 -1.444,-3.768 -1.139,-5.73 0.139,-0.872 0.564,-1.463 1.275,-1.76 0.735,-0.262 1.412,-0.281 2.047,-0.083 1.122,0.271 2.117,1.326 3.012,3.183 0.866,1.84 1.195,3.539 1.011,5.118 m -0.611,-9.222 c 0.018,-0.027 0.021,-0.056 0.025,-0.085 0.309,-0.713 0.943,-1.213 1.892,-1.534 0.983,-0.018 1.877,0.218 2.705,0.728 l 0.016,0.002 c 1.429,1.551 2.37,3.044 2.791,4.474 0.279,1.143 0.493,2.126 0.626,2.934 -0.016,0.118 -0.016,0.235 0.016,0.344 l 0.008,0.046 c -0.06,1.048 -0.854,1.91 -2.376,2.592 l 0.016,0.002 c -0.766,0.258 -1.62,0.058 -2.572,-0.634 0.003,-3.762 -1.045,-6.728 -3.147,-8.869"
         id="path2701" />
      <path
         inkscape:connector-curvature="0"
         style="fill:#e27c9f"
         d="m 954.203,184.549 c 0.736,-0.484 1.19,-1.191 1.38,-2.114 0.183,-1.579 -0.145,-3.278 -1.011,-5.118 -0.895,-1.858 -1.891,-2.912 -3.012,-3.183 -0.635,-0.198 -1.312,-0.179 -2.047,0.083 -0.711,0.296 -1.137,0.887 -1.275,1.76 -0.307,1.962 0.07,3.862 1.139,5.73 l 0.014,0.017 c 1.506,2.558 3.103,3.494 4.812,2.825"
         id="path2703" />
      <path
         inkscape:connector-curvature="0"
         style="fill:#e27c9f"
         d="m 954.997,173.127 c -0.004,0.03 -0.008,0.059 -0.025,0.085 2.103,2.142 3.15,5.107 3.145,8.87 0.953,0.691 1.808,0.891 2.571,0.634 l -0.014,-0.002 c 1.521,-0.683 2.316,-1.545 2.376,-2.592 l -0.008,-0.046 c -0.031,-0.109 -0.031,-0.227 -0.016,-0.345 -0.134,-0.808 -0.347,-1.791 -0.626,-2.934 -0.421,-1.43 -1.362,-2.923 -2.791,-4.473 l -0.016,-0.002 c -0.829,-0.51 -1.722,-0.746 -2.705,-0.729 -0.948,0.322 -1.582,0.823 -1.891,1.534"
         id="path2705" />
    </g>
  </g>
</svg>
