<?xml version="1.0" encoding="UTF-8" standalone="no"?>
<!-- Created with Inkscape (http://www.inkscape.org/) -->

<svg
   xmlns:dc="http://purl.org/dc/elements/1.1/"
   xmlns:cc="http://creativecommons.org/ns#"
   xmlns:rdf="http://www.w3.org/1999/02/22-rdf-syntax-ns#"
   xmlns:svg="http://www.w3.org/2000/svg"
   xmlns="http://www.w3.org/2000/svg"
   xmlns:sodipodi="http://sodipodi.sourceforge.net/DTD/sodipodi-0.dtd"
   xmlns:inkscape="http://www.inkscape.org/namespaces/inkscape"
   width="160.24187"
   height="187.68178"
   id="svg5696"
   version="1.1"
   inkscape:version="0.48.4 r9939"
   sodipodi:docname="abby11.svg">
  <defs
     id="defs5698" />
  <sodipodi:namedview
     id="base"
     pagecolor="#ffffff"
     bordercolor="#666666"
     borderopacity="1.0"
     inkscape:pageopacity="0.0"
     inkscape:pageshadow="2"
     inkscape:zoom="0.77472527"
     inkscape:cx="-65.355164"
     inkscape:cy="70.498415"
     inkscape:current-layer="layer1"
     inkscape:document-units="px"
     showgrid="false"
     inkscape:window-width="942"
     inkscape:window-height="591"
     inkscape:window-x="414"
     inkscape:window-y="49"
     inkscape:window-maximized="0"
     fit-margin-top="0"
     fit-margin-left="0"
     fit-margin-right="0"
     fit-margin-bottom="0" />
  <metadata
     id="metadata5701">
    <rdf:RDF>
      <cc:Work
         rdf:about="">
        <dc:format>image/svg+xml</dc:format>
        <dc:type
           rdf:resource="http://purl.org/dc/dcmitype/StillImage" />
        <dc:title></dc:title>
      </cc:Work>
    </rdf:RDF>
  </metadata>
  <g
     id="layer1"
     inkscape:label="Layer 1"
     inkscape:groupmode="layer"
     transform="translate(-175.45661,-122.81663)">
    <g
       transform="translate(-645.50397,-413.99544)"
       id="g177">
      <path
         inkscape:connector-curvature="0"
         style="fill:#e27c9f"
         d="m 949.034,651.008 0.026,0.01 0.029,0.01 c 8.358,2.301 13.122,6.379 14.275,12.24 l 0.004,0.02 0.007,0.018 c 1.104,6.504 -2.169,11.238 -9.82,14.217 l -0.048,0.031 -0.073,0.018 c -6.707,1.912 -12.463,1.928 -17.29,0.023 1.625,4.264 1.308,8.023 -0.931,11.27 -2.105,3.137 -4.255,4.908 -6.457,5.312 -2.223,0.553 -4.442,-0.303 -6.638,-2.58 l 0.015,0.006 c -5.174,-5.326 -7.711,-11.414 -7.634,-18.285 l -0.007,-0.02 0.003,-0.031 c 0.427,-7.186 4.021,-13.355 10.812,-18.496 l 0.078,-0.053 c 6.683,-4.4 14.553,-5.636 23.649,-3.71 m -0.977,2.137 0.075,0.012 c -8.253,-1.742 -15.403,-0.668 -21.478,3.248 -6.077,4.604 -9.313,10.137 -9.707,16.58 -0.056,6.396 2.306,12.074 7.123,17.018 1.535,1.58 3.041,2.254 4.5,2.018 1.507,-0.404 3.04,-1.758 4.605,-4.072 2.745,-3.562 1.934,-8.832 -2.42,-15.834 7.232,4.945 14.653,6.07 22.24,3.369 6.147,-2.414 8.807,-6.242 7.968,-11.49 -1.109,-5.176 -5.418,-8.791 -12.906,-10.849"
         id="path179" />
      <path
         inkscape:connector-curvature="0"
         style="fill:#f8e6f0"
         d="m 948.132,653.156 -0.075,-0.012 c 7.488,2.059 11.797,5.674 12.907,10.848 0.839,5.248 -1.82,9.076 -7.968,11.49 -7.587,2.701 -15.008,1.576 -22.24,-3.369 4.354,7.002 5.165,12.273 2.42,15.834 -1.565,2.314 -3.098,3.668 -4.606,4.072 -1.459,0.236 -2.964,-0.438 -4.5,-2.018 -4.816,-4.943 -7.178,-10.621 -7.122,-17.018 0.394,-6.443 3.631,-11.977 9.706,-16.58 6.075,-3.915 13.225,-4.989 21.478,-3.247"
         id="path181" />
      <path
         inkscape:connector-curvature="0"
         style="fill:#e27c9f"
         d="m 902.85,627.877 -0.025,-0.018 -0.025,-0.012 c -7.429,-5.182 -14.291,-6.615 -20.601,-4.289 l -0.021,0.006 -0.021,0.004 c -6.881,2.721 -9.343,7.84 -7.382,15.373 l 0.003,0.053 0.029,0.068 c 2.381,6.219 5.974,10.662 10.809,13.338 -5.08,1.086 -8.459,3.395 -10.146,6.9 -1.665,3.346 -2.005,5.975 -1.008,7.893 0.865,2.016 3.07,3.256 6.612,3.697 l -0.015,-0.008 c 8.312,1.066 15.698,-0.318 22.194,-4.152 l 0.02,-0.002 0.027,-0.02 c 6.577,-4.271 10.197,-10.426 10.838,-18.486 v -0.086 c 0.004,-7.564 -3.755,-14.306 -11.288,-20.259 m -1.422,1.924 -0.054,-0.049 c 6.827,5.404 10.283,11.504 10.363,18.336 -0.575,7.207 -3.813,12.74 -9.705,16.576 -6.052,3.555 -12.937,4.852 -20.663,3.85 -2.467,-0.314 -4.052,-1.104 -4.741,-2.359 -0.561,-1.385 -0.232,-3.311 0.992,-5.785 1.672,-4.072 7.197,-6.338 16.592,-6.824 -9.241,-2.857 -14.965,-7.961 -17.145,-15.291 -1.553,-6.062 0.425,-10.215 5.95,-12.445 5.62,-1.986 11.76,-0.65 18.411,3.991"
         id="path183" />
      <path
         inkscape:connector-curvature="0"
         style="fill:#f8e6f0"
         d="m 901.374,629.752 0.054,0.049 c -6.65,-4.641 -12.791,-5.977 -18.41,-3.992 -5.524,2.23 -7.503,6.383 -5.95,12.445 2.18,7.33 7.903,12.434 17.145,15.291 -9.395,0.486 -14.92,2.752 -16.592,6.824 -1.226,2.475 -1.553,4.4 -0.992,5.785 0.689,1.256 2.274,2.045 4.741,2.359 7.727,1.002 14.611,-0.295 20.664,-3.85 5.891,-3.836 9.129,-9.369 9.704,-16.576 -0.08,-6.831 -3.536,-12.931 -10.364,-18.335"
         id="path185" />
      <path
         inkscape:connector-curvature="0"
         style="fill:#e27c9f"
         d="m 906.972,681.533 5.569,5.521 c -3.411,5.514 -8.748,10.945 -15.993,16.326 0.301,1.953 0.431,4.021 0.395,6.221 -0.034,2.199 -0.325,4.229 -0.866,6.111 -0.521,1.887 -1.157,3.324 -1.888,4.316 -0.72,1.004 -1.624,1.852 -2.683,2.557 -1.062,0.707 -2.04,0.893 -2.953,0.572 -0.906,-0.33 -1.923,-1.152 -3.052,-2.469 -1.167,-1.602 -1.957,-3.211 -2.358,-4.814 -0.406,-1.605 -0.625,-3.314 -0.683,-5.133 -0.046,-1.807 0.136,-3.611 0.545,-5.422 0.388,-1.768 1.023,-3.443 1.901,-5.029 1.195,-0.564 3.972,-2.391 8.326,-5.494 4.381,-3.091 8.958,-7.523 13.74,-13.263"
         id="path187" />
      <path
         inkscape:connector-curvature="0"
         style="fill:none;stroke:#c4084a;stroke-width:2.40499997;stroke-linecap:round;stroke-linejoin:round;stroke-miterlimit:10"
         d="m 912.541,687.055 -5.569,-5.52 c -4.781,5.738 -9.358,10.17 -13.739,13.262 -4.354,3.104 -7.131,4.93 -8.326,5.494 -0.878,1.586 -1.514,3.262 -1.901,5.029 -0.409,1.811 -0.591,3.615 -0.545,5.424 0.058,1.816 0.276,3.525 0.683,5.131 0.401,1.604 1.191,3.213 2.358,4.812 1.129,1.318 2.146,2.141 3.052,2.471"
         id="path189" />
      <path
         inkscape:connector-curvature="0"
         style="fill:none;stroke:#c4084a;stroke-width:2.40499997;stroke-linecap:round;stroke-miterlimit:10"
         d="m 888.553,723.158 c 0.913,0.32 1.892,0.135 2.953,-0.572 1.059,-0.705 1.963,-1.553 2.683,-2.557 0.73,-0.992 1.366,-2.43 1.888,-4.316 0.539,-1.883 0.831,-3.912 0.866,-6.111 0.036,-2.199 -0.094,-4.268 -0.395,-6.221 7.245,-5.381 12.582,-10.812 15.993,-16.326"
         id="path191" />
      <path
         inkscape:connector-curvature="0"
         style="fill:#e27c9f"
         d="m 898.202,681.256 4.345,6.578 c -4.759,4.174 -11.449,7.766 -20.069,10.797 -0.152,1.883 -0.515,3.826 -1.069,5.842 -0.555,2.021 -1.324,3.818 -2.318,5.41 -0.975,1.602 -1.958,2.756 -2.931,3.477 -0.968,0.734 -2.088,1.275 -3.325,1.646 -1.241,0.369 -2.283,0.279 -3.133,-0.26 -0.839,-0.547 -1.673,-1.578 -2.509,-3.092 -0.806,-1.787 -1.228,-3.482 -1.261,-5.07 -0.028,-1.586 0.153,-3.223 0.522,-4.914 0.378,-1.68 0.99,-3.297 1.831,-4.857 0.811,-1.525 1.852,-2.902 3.115,-4.131 1.341,-0.201 4.59,-1.15 9.739,-2.854 5.173,-1.682 10.861,-4.551 17.063,-8.572"
         id="path193" />
      <path
         inkscape:connector-curvature="0"
         style="fill:none;stroke:#c4084a;stroke-width:2.35899997;stroke-linecap:round;stroke-linejoin:round;stroke-miterlimit:10"
         d="m 902.547,687.834 -4.345,-6.578 c -6.202,4.021 -11.891,6.891 -17.063,8.572 -5.148,1.703 -8.397,2.652 -9.738,2.854 -1.265,1.229 -2.305,2.605 -3.115,4.131 -0.842,1.561 -1.453,3.178 -1.831,4.857 -0.369,1.691 -0.551,3.328 -0.522,4.914 0.033,1.588 0.454,3.283 1.262,5.07 0.835,1.514 1.669,2.545 2.508,3.092"
         id="path195" />
      <path
         inkscape:connector-curvature="0"
         style="fill:none;stroke:#c4084a;stroke-width:2.35899997;stroke-linecap:round;stroke-miterlimit:10"
         d="m 869.701,714.746 c 0.85,0.539 1.892,0.629 3.133,0.26 1.237,-0.371 2.357,-0.912 3.325,-1.646 0.973,-0.721 1.956,-1.875 2.931,-3.477 0.994,-1.592 1.764,-3.389 2.318,-5.41 0.555,-2.016 0.917,-3.959 1.068,-5.842 8.621,-3.031 15.312,-6.623 20.07,-10.797"
         id="path197" />
      <path
         inkscape:connector-curvature="0"
         style="fill:#e27c9f"
         d="m 926.181,659.773 7.769,-0.371 1.143,32.752 c -0.951,0.492 -3.624,0.625 -8.036,0.375 l -0.876,-32.756 z"
         id="path199" />
      <path
         inkscape:connector-curvature="0"
         style="fill:none;stroke:#c4084a;stroke-width:2.39400005;stroke-linecap:round;stroke-linejoin:round;stroke-miterlimit:10"
         d="m 933.949,659.402 1.143,32.752 m -8.036,0.375 -0.875,-32.756"
         id="path201" />
      <path
         inkscape:connector-curvature="0"
         style="fill:#c4084a"
         d="m 942.893,706.254 -0.09,0.145 c -1.5,1.521 -2.928,2.059 -4.266,1.576 -0.714,0.754 -1.623,1.23 -2.725,1.395 -1.686,0.314 -3.044,-0.305 -4.086,-1.85 -0.751,-1.047 -1.339,-2.697 -1.778,-4.943 -0.103,-0.504 -0.235,-0.949 -0.365,-1.348 -0.853,1.281 -1.708,2.123 -2.563,2.529 -1.555,0.938 -3.084,0.668 -4.569,-0.783 -2.694,-2.393 -1.534,-6.67 3.461,-12.832 0.116,-0.121 0.263,-0.287 0.44,-0.494 0.253,0.514 0.693,1.242 1.324,2.178 -3.786,4.682 -4.963,7.822 -3.558,9.441 0.603,0.561 1.18,0.699 1.76,0.41 0.901,-0.541 1.821,-1.768 2.798,-3.67 l 0.9,-1.635 1.228,1.572 c 0.563,0.971 1.044,2.328 1.46,4.072 l 0.037,0.064 c 0.372,1.84 0.838,3.199 1.392,4.064 l -0.013,0.004 c 0.415,0.613 0.938,0.914 1.566,0.891 1.854,-0.119 2.936,-1.389 3.209,-3.816 0.131,-2.389 -0.397,-4.617 -1.57,-6.689 2.507,1.234 3.604,3.844 3.256,7.809 -0.062,0.439 -0.157,0.84 -0.264,1.197 1.259,-0.301 2.132,-1.4 2.609,-3.312 0.487,-1.896 0.076,-4.457 -1.227,-7.678 1.633,0.504 2.787,2.312 3.431,5.422 0.108,-0.182 0.202,-0.361 0.279,-0.549 l -0.002,-0.047 c 0.468,-1.111 0.551,-2.496 0.243,-4.168 -0.344,-1.77 -1.408,-3.498 -3.185,-5.225 -1.802,-1.744 -4.383,-2.664 -7.759,-2.785 -0.02,-0.008 -0.048,-0.045 -0.088,-0.111 l 0.928,-2.25 c 3.71,0.25 6.563,1.391 8.604,3.434 l -0.03,0.01 c 2.235,2.145 3.518,4.305 3.856,6.492 0.426,2.25 0.303,4.096 -0.342,5.559 -0.501,1.283 -1.506,2.414 -3.024,3.4 -0.291,0.902 -0.718,1.742 -1.277,2.521"
         id="path203" />
      <path
         inkscape:connector-curvature="0"
         style="fill:#e27c9f"
         d="m 944.968,699.377 0.002,0.047 c -0.077,0.188 -0.171,0.367 -0.279,0.549 -0.644,-3.109 -1.798,-4.918 -3.431,-5.422 1.303,3.221 1.714,5.781 1.227,7.678 -0.478,1.912 -1.351,3.012 -2.609,3.312 0.106,-0.357 0.201,-0.758 0.264,-1.197 0.348,-3.965 -0.749,-6.574 -3.256,-7.809 1.173,2.072 1.701,4.301 1.57,6.689 -0.273,2.428 -1.355,3.697 -3.208,3.816 -0.629,0.025 -1.152,-0.277 -1.567,-0.891 l 0.013,-0.002 c -0.554,-0.867 -1.02,-2.227 -1.392,-4.066 l -0.037,-0.064 c -0.416,-1.744 -0.896,-3.102 -1.46,-4.072 l -1.228,-1.572 -0.9,1.635 c -0.977,1.902 -1.896,3.129 -2.798,3.67 -0.58,0.289 -1.157,0.15 -1.76,-0.41 -1.405,-1.619 -0.229,-4.76 3.558,-9.441 l 2.688,-2.928 c 0.191,-1.521 1.459,-2.111 3.816,-1.811 0.04,0.066 0.068,0.104 0.088,0.111 3.376,0.121 5.957,1.041 7.759,2.785 1.776,1.727 2.841,3.455 3.185,5.225 0.306,1.672 0.223,3.057 -0.245,4.168"
         id="path205" />
      <path
         inkscape:connector-curvature="0"
         style="fill:#3793d1"
         d="m 935.647,654.887 2.005,-5.643 -23.626,-7.01 -4.89,5.152 -3.281,1.973 -0.096,0.033 c -3.356,2.166 -6.55,4.455 -9.579,6.855 -9.964,7.914 -16.427,15.658 -19.386,23.24 l -0.807,1.908 1.829,0.713 c 1.189,0.51 2.648,0.707 4.368,0.604 -0.262,0.621 -0.473,1.242 -0.66,1.857 l -0.682,2.039 2.046,0.502 c 1.019,0.311 2.191,0.4 3.51,0.273 -0.265,1.33 -0.411,2.623 -0.434,3.836 l -0.127,2.238 2.528,-0.303 c 1.774,-0.156 3.764,-0.807 5.949,-1.953 0.03,0.82 0.129,1.598 0.273,2.338 l 0.374,2.189 2.567,-0.773 c 0.447,-0.129 0.895,-0.273 1.348,-0.436 0.162,1.029 0.416,2.002 0.745,2.916 l 0.638,2.078 2.534,-1.053 c 2.007,-0.809 4.135,-2.186 6.349,-4.109 0.074,0.182 0.158,0.348 0.255,0.523 l 0.859,1.91 2.457,-1.199 c 0.506,-0.232 1.015,-0.502 1.531,-0.805 0.608,1.408 1.396,2.631 2.377,3.652 l 1.326,1.551 2.146,-1.484 c 3.234,-2.141 6.313,-5.666 9.242,-10.574 5.476,-9.202 7.576,-20.218 6.312,-33.038 m -1.24,-3.879 -1.611,4.494 0.162,-0.078 c 1.261,12.348 -0.718,22.926 -5.92,31.74 -2.606,4.389 -5.346,7.549 -8.201,9.482 -1.397,-1.523 -2.347,-3.512 -2.848,-5.965 -1.396,1.205 -2.763,2.139 -4.099,2.785 -0.557,-1.16 -0.935,-2.453 -1.135,-3.871 -3.078,3.334 -5.928,5.551 -8.569,6.652 -0.578,-1.662 -0.827,-3.535 -0.762,-5.631 -1.468,0.947 -2.863,1.605 -4.17,2.002 -0.306,-1.766 -0.314,-3.725 -0.014,-5.871 -3.33,2.385 -6.198,3.705 -8.604,3.965 0.056,-2.004 0.447,-4.148 1.178,-6.447 -2.299,0.686 -4.216,0.836 -5.724,0.471 0.551,-1.719 1.291,-3.451 2.216,-5.215 -2.961,0.852 -5.298,0.953 -7.015,0.291 2.82,-7.117 8.947,-14.406 18.368,-21.873 2.932,-2.33 6.023,-4.533 9.29,-6.643 l 3.667,-2.219 3.809,-4.002 19.982,5.933 z"
         id="path207" />
      <path
         inkscape:connector-curvature="0"
         style="fill:#86c1ea"
         d="m 932.796,655.502 1.611,-4.494 -19.981,-5.932 -3.809,4.002 -3.667,2.219 c -3.267,2.109 -6.358,4.312 -9.29,6.643 -9.421,7.467 -15.548,14.756 -18.368,21.873 1.717,0.662 4.054,0.561 7.015,-0.289 0.908,-0.268 1.857,-0.594 2.856,-0.992 1.298,-0.512 2.609,-1.131 3.947,-1.834 -1.464,2.678 -2.551,5.201 -3.296,7.568 -0.73,2.299 -1.123,4.443 -1.179,6.447 2.407,-0.26 5.275,-1.58 8.605,-3.965 0.554,-0.383 1.123,-0.814 1.723,-1.289 1.358,-1.053 2.694,-2.207 4.032,-3.49 -0.977,3.207 -1.504,6.102 -1.571,8.648 -0.065,2.096 0.183,3.969 0.762,5.631 2.642,-1.102 5.491,-3.318 8.569,-6.652 0.336,-0.383 0.682,-0.779 1.027,-1.176 1.381,-1.586 2.675,-3.305 3.867,-5.143 -0.219,2.82 -0.102,5.277 0.339,7.404 0.501,2.453 1.45,4.441 2.848,5.965 2.854,-1.934 5.595,-5.094 8.201,-9.482 5.202,-8.814 7.182,-19.393 5.92,-31.74 l -0.161,0.078 z"
         id="path209" />
      <path
         inkscape:connector-curvature="0"
         style="fill:#bc9fca"
         d="m 886.307,679.521 c -0.925,1.764 -1.665,3.496 -2.216,5.215 1.508,0.365 3.425,0.215 5.724,-0.471 0.745,-2.367 1.832,-4.891 3.296,-7.568 -1.338,0.703 -2.649,1.322 -3.948,1.834 -0.999,0.399 -1.948,0.725 -2.856,0.99"
         id="path211" />
      <path
         inkscape:connector-curvature="0"
         style="fill:#bc9fca"
         d="m 898.964,685.459 c -0.6,0.475 -1.169,0.906 -1.723,1.289 -0.301,2.146 -0.292,4.105 0.014,5.871 1.307,-0.396 2.702,-1.055 4.17,-2.004 0.067,-2.545 0.593,-5.439 1.571,-8.646 -1.338,1.283 -2.674,2.437 -4.032,3.49"
         id="path213" />
      <path
         inkscape:connector-curvature="0"
         style="fill:#bc9fca"
         d="m 915.651,683.277 c -1.193,1.838 -2.487,3.557 -3.868,5.143 -0.346,0.396 -0.691,0.793 -1.027,1.176 0.2,1.418 0.578,2.711 1.135,3.871 1.336,-0.646 2.704,-1.58 4.099,-2.785 -0.441,-2.127 -0.558,-4.584 -0.339,-7.405"
         id="path215" />
      <path
         inkscape:connector-curvature="0"
         style="fill:#d4074c"
         d="m 837.312,704.734 c 0.104,0.602 0.408,1.07 0.906,1.426 l 0.317,0.219 c 0.507,0.344 1.053,0.473 1.645,0.381 0.592,-0.113 1.062,-0.418 1.417,-0.896 l 39.046,-55.396 c 0.342,-0.484 0.451,-1.027 0.34,-1.617 -0.104,-0.602 -0.41,-1.072 -0.899,-1.436 l -0.317,-0.225 c -0.508,-0.338 -1.062,-0.457 -1.653,-0.365 -0.589,0.113 -1.052,0.408 -1.374,0.889 l -39.078,55.393 c -0.334,0.493 -0.443,1.036 -0.35,1.627"
         id="path217" />
      <path
         inkscape:connector-curvature="0"
         style="fill:none;stroke:#d40247;stroke-width:4.46600008;stroke-miterlimit:10"
         d="m 838.219,706.16 0.317,0.221 c 0.507,0.342 1.053,0.471 1.645,0.379 0.592,-0.113 1.062,-0.418 1.417,-0.896 l 39.046,-55.396 c 0.343,-0.484 0.451,-1.027 0.34,-1.617 -0.104,-0.602 -0.41,-1.072 -0.899,-1.436 l -0.317,-0.225 c -0.508,-0.338 -1.062,-0.457 -1.652,-0.365 -0.59,0.113 -1.053,0.408 -1.374,0.889 l -39.079,55.393 c -0.333,0.494 -0.442,1.037 -0.349,1.629 0.101,0.6 0.407,1.071 0.905,1.424 z"
         id="path219" />
      <path
         inkscape:connector-curvature="0"
         style="fill:#d4074c"
         d="m 837.312,704.734 c 0.104,0.602 0.408,1.07 0.906,1.426 l 0.317,0.219 c 0.507,0.344 1.053,0.473 1.645,0.381 0.592,-0.113 1.062,-0.418 1.417,-0.896 l 39.046,-55.396 c 0.342,-0.484 0.451,-1.027 0.34,-1.617 -0.104,-0.602 -0.41,-1.072 -0.899,-1.436 l -0.317,-0.225 c -0.508,-0.338 -1.062,-0.457 -1.653,-0.365 -0.589,0.113 -1.052,0.408 -1.374,0.889 l -39.078,55.393 c -0.334,0.493 -0.443,1.036 -0.35,1.627"
         id="path221" />
      <path
         inkscape:connector-curvature="0"
         style="fill:none;stroke:#d4074c;stroke-width:2.32200003;stroke-miterlimit:10"
         d="m 838.219,706.16 0.317,0.221 c 0.507,0.342 1.053,0.471 1.645,0.379 0.592,-0.113 1.062,-0.418 1.417,-0.896 l 39.046,-55.396 c 0.343,-0.484 0.451,-1.027 0.34,-1.617 -0.104,-0.602 -0.41,-1.072 -0.899,-1.436 l -0.317,-0.225 c -0.508,-0.338 -1.062,-0.457 -1.652,-0.365 -0.59,0.113 -1.053,0.408 -1.374,0.889 l -39.079,55.393 c -0.333,0.494 -0.442,1.037 -0.349,1.629 0.101,0.6 0.407,1.071 0.905,1.424 z"
         id="path223" />
      <polygon
         style="fill:#d4074c"
         points="866.947,669.881 861.182,669.764 859.411,672.271 865.171,672.396 "
         id="polygon225" />
      <polygon
         style="fill:none;stroke:#d4074c;stroke-width:2.32200003;stroke-miterlimit:10"
         points="866.947,669.881 865.171,672.396 859.411,672.271 861.182,669.764 "
         id="polygon227" />
      <polygon
         style="fill:#d4074c"
         points="848.75,695.699 850.727,692.922 849.24,686.717 847.258,689.527 "
         id="polygon229" />
      <polygon
         style="fill:none;stroke:#d4074c;stroke-width:2.32200003;stroke-miterlimit:10"
         points="848.75,695.699 847.258,689.527 849.24,686.717 850.727,692.922 "
         id="polygon231" />
      <polygon
         style="fill:#d4074c"
         points="857.236,683.67 851.479,683.543 849.696,686.018 855.481,686.186 "
         id="polygon233" />
      <polygon
         style="fill:none;stroke:#d4074c;stroke-width:2.32200003;stroke-miterlimit:10"
         points="857.236,683.67 855.481,686.186 849.696,686.018 851.479,683.543 "
         id="polygon235" />
      <polygon
         style="fill:#d4074c"
         points="858.668,673.328 856.698,676.092 858.22,682.305 860.154,679.533 "
         id="polygon237" />
      <polygon
         style="fill:none;stroke:#d4074c;stroke-width:2.32200003;stroke-miterlimit:10"
         points="858.668,673.328 860.154,679.533 858.22,682.305 856.698,676.092 "
         id="polygon239" />
      <polygon
         style="fill:#d4074c"
         points="867.908,668.516 869.877,665.754 868.411,659.545 866.439,662.309 "
         id="polygon241" />
      <polygon
         style="fill:none;stroke:#d4074c;stroke-width:2.32200003;stroke-miterlimit:10"
         points="867.908,668.516 866.439,662.309 868.411,659.545 869.877,665.754 "
         id="polygon243" />
      <polygon
         style="fill:#d4074c"
         points="871.394,655.291 869.604,657.799 875.386,657.945 877.149,655.418 "
         id="polygon245" />
      <polygon
         style="fill:none;stroke:#d4074c;stroke-width:2.32200003;stroke-miterlimit:10"
         points="871.394,655.291 877.149,655.418 875.386,657.945 869.604,657.799 "
         id="polygon247" />
      <path
         inkscape:connector-curvature="0"
         style="fill:#84539c"
         d="m 837.312,704.734 c 0.104,0.602 0.408,1.07 0.906,1.426 l 0.317,0.219 c 0.507,0.344 1.053,0.473 1.645,0.381 0.592,-0.113 1.062,-0.418 1.417,-0.896 l 39.046,-55.396 c 0.342,-0.484 0.451,-1.027 0.34,-1.617 -0.104,-0.602 -0.41,-1.072 -0.899,-1.436 l -0.317,-0.225 c -0.508,-0.338 -1.062,-0.457 -1.653,-0.365 -0.589,0.113 -1.052,0.408 -1.374,0.889 l -39.078,55.393 c -0.334,0.493 -0.443,1.036 -0.35,1.627"
         id="path249" />
      <polygon
         style="fill:#e97ca0"
         points="866.947,669.881 861.182,669.764 859.411,672.271 865.171,672.396 "
         id="polygon251" />
      <polygon
         style="fill:#6bc4ee"
         points="848.75,695.699 850.727,692.922 849.24,686.717 847.258,689.527 "
         id="polygon253" />
      <polygon
         style="fill:#e97ca0"
         points="857.236,683.67 851.479,683.543 849.696,686.018 855.481,686.186 "
         id="polygon255" />
      <polygon
         style="fill:#6bc4ee"
         points="858.668,673.328 856.698,676.092 858.22,682.305 860.154,679.533 "
         id="polygon257" />
      <polygon
         style="fill:#6bc4ee"
         points="867.908,668.516 869.877,665.754 868.411,659.545 866.439,662.309 "
         id="polygon259" />
      <polygon
         style="fill:#e97ca0"
         points="871.394,655.291 869.604,657.799 875.386,657.945 877.149,655.418 "
         id="polygon261" />
      <path
         inkscape:connector-curvature="0"
         style="fill:#f0d5e6"
         d="m 834.87,720.109 c 0.979,-0.311 1.576,-1.076 1.78,-2.295 0.194,-1.232 0.273,-2.998 0.207,-5.303 0.158,-2.314 0.914,-4.729 2.283,-7.262 l -0.086,0.066 c -1.84,2.145 -3.342,4.092 -4.494,5.83 -2.139,3.262 -2.799,5.822 -1.995,7.682 0.516,1.206 1.275,1.628 2.305,1.282"
         id="path263" />
      <path
         inkscape:connector-curvature="0"
         style="fill:#f0d5e6"
         d="m 841.428,692.891 c -0.057,2.275 -0.188,4.295 -0.388,6.049 -0.198,1.756 -0.874,3.898 -2.037,6.451 0.757,-0.322 2.256,-2.271 4.487,-5.816 2.145,-3.275 2.826,-5.838 2.035,-7.689 -0.526,-1.191 -1.296,-1.625 -2.315,-1.289 -0.978,0.329 -1.574,1.094 -1.782,2.294"
         id="path265" />
      <path
         inkscape:connector-curvature="0"
         style="fill:#f0d5e6"
         d="m 838.774,720.768 c 0.86,-0.576 1.241,-1.473 1.137,-2.695 -0.127,-1.238 -0.504,-2.979 -1.159,-5.227 -0.431,-2.254 -0.314,-4.795 0.368,-7.646 l -0.065,0.117 c -1.235,2.553 -2.172,4.811 -2.825,6.768 -1.241,3.721 -1.241,6.379 0.008,7.969 0.8,1.036 1.651,1.272 2.536,0.714"
         id="path267" />
      <path
         inkscape:connector-curvature="0"
         style="fill:#6bc4ee"
         d="m 834.87,720.109 c 0.979,-0.311 1.576,-1.076 1.78,-2.295 0.194,-1.232 0.273,-2.998 0.207,-5.303 0.158,-2.314 0.914,-4.729 2.283,-7.262 l -0.086,0.066 c -1.876,1.938 -3.63,4.215 -5.264,6.818 -1.621,2.607 -2.029,4.834 -1.226,6.693 0.517,1.207 1.276,1.629 2.306,1.283"
         id="path269" />
      <path
         inkscape:connector-curvature="0"
         style="fill:#eddd00"
         d="m 838.774,720.768 c 0.86,-0.576 1.241,-1.473 1.137,-2.695 -0.127,-1.238 -0.504,-2.979 -1.159,-5.227 -0.431,-2.254 -0.314,-4.795 0.368,-7.646 l -0.065,0.117 c -1.235,2.553 -2.172,4.811 -2.825,6.768 -1.241,3.721 -1.241,6.379 0.008,7.969 0.8,1.036 1.651,1.272 2.536,0.714"
         id="path271" />
      <path
         inkscape:connector-curvature="0"
         style="fill:#eddd00"
         d="m 841.862,698.627 c 1.227,-3.727 1.227,-6.385 -0.021,-7.975 -0.811,-1.045 -1.651,-1.275 -2.526,-0.707 -0.861,0.576 -1.238,1.473 -1.137,2.697 0.524,2.225 0.899,3.965 1.148,5.215 0.419,2.246 0.306,4.754 -0.324,7.533 0.425,-0.574 1.381,-2.833 2.86,-6.763"
         id="path273" />
      <path
         inkscape:connector-curvature="0"
         style="fill:#f0d5e6"
         d="m 842.676,720.404 c 0.679,-0.758 0.812,-1.723 0.396,-2.889 -0.429,-1.197 -1.25,-2.795 -2.45,-4.789 -0.953,-2.057 -1.473,-4.518 -1.567,-7.41 -0.555,2.799 -0.891,5.238 -1.025,7.314 -0.279,3.934 0.392,6.521 2.003,7.748 1.046,0.815 1.922,0.813 2.643,0.026"
         id="path275" />
      <path
         inkscape:connector-curvature="0"
         style="fill:#6bc4ee"
         d="m 835.018,693.197 c 1.064,2.025 1.938,3.863 2.617,5.51 0.681,1.645 1.136,3.914 1.39,6.809 l 0.011,-0.121 c 0.254,-0.586 0.592,-3.008 1.032,-7.271 0.261,-3.93 -0.4,-6.529 -2.008,-7.791 -1.058,-0.799 -1.924,-0.811 -2.643,-0.023 -0.689,0.77 -0.822,1.731 -0.399,2.887"
         id="path277" />
      <path
         inkscape:connector-curvature="0"
         style="fill:#f0d5e6"
         d="m 843.807,719.729 c 1.201,0.52 2.049,0.299 2.536,-0.652 0.476,-0.902 0.373,-1.869 -0.339,-2.9 -0.718,-1.049 -1.897,-2.395 -3.537,-4.023 -1.483,-1.795 -2.633,-4.117 -3.451,-6.934 l 0.006,0.094 c 0.195,2.852 0.488,5.297 0.873,7.338 0.758,3.905 2.064,6.264 3.912,7.077"
         id="path279" />
      <path
         inkscape:connector-curvature="0"
         style="fill:#f0d5e6"
         d="m 842.676,720.404 c 0.679,-0.758 0.812,-1.723 0.396,-2.889 -0.429,-1.197 -1.25,-2.795 -2.45,-4.789 -0.953,-2.057 -1.473,-4.518 -1.567,-7.41 -0.555,2.799 -0.891,5.238 -1.025,7.314 -0.279,3.934 0.392,6.521 2.003,7.748 1.046,0.815 1.922,0.813 2.643,0.026"
         id="path281" />
      <path
         inkscape:connector-curvature="0"
         style="fill:#6bc4ee"
         d="m 843.807,719.729 c 1.201,0.52 2.049,0.299 2.536,-0.652 0.476,-0.902 0.373,-1.869 -0.339,-2.9 -0.718,-1.049 -1.918,-2.445 -3.598,-4.195 -1.331,-1.701 -2.469,-3.965 -3.391,-6.762 l 0.006,0.094 c 0.195,2.852 0.488,5.297 0.873,7.338 0.759,3.905 2.065,6.264 3.913,7.077"
         id="path283" />
      <path
         inkscape:connector-curvature="0"
         style="fill:#eddd00"
         d="m 839.057,705.52 -0.021,-0.125 c -0.115,-0.791 -0.388,-3.244 -0.854,-7.359 -0.724,-3.883 -2.023,-6.221 -3.886,-7.041 -1.223,-0.516 -2.073,-0.314 -2.562,0.635 -0.472,0.902 -0.357,1.877 0.34,2.896 1.558,1.721 2.744,3.086 3.558,4.078 1.492,1.781 2.636,4.084 3.425,6.916"
         id="path285" />
      <path
         inkscape:connector-curvature="0"
         style="fill:#f0d5e6"
         d="m 844.201,710.934 c -1.881,-1.289 -3.6,-3.16 -5.18,-5.621 0.981,2.713 1.951,5.002 2.885,6.861 1.827,3.529 3.736,5.441 5.729,5.719 1.302,0.17 2.045,-0.268 2.252,-1.309 0.189,-1.014 -0.194,-1.92 -1.15,-2.705 -0.966,-0.828 -2.48,-1.805 -4.536,-2.945"
         id="path287" />
      <path
         inkscape:connector-curvature="0"
         style="fill:#f0d5e6"
         d="m 828.193,694.141 c -0.211,0.996 0.171,1.904 1.133,2.709 1.963,1.221 3.475,2.199 4.542,2.932 1.88,1.291 3.609,3.148 5.185,5.592 -0.258,-1.314 -1.217,-3.596 -2.912,-6.85 -1.817,-3.541 -3.716,-5.445 -5.704,-5.699 -1.301,-0.171 -2.048,0.267 -2.244,1.316"
         id="path289" />
      <path
         inkscape:connector-curvature="0"
         style="fill:#f0d5e6"
         d="m 838.922,705.223 0.067,0.086 c 1.643,2.396 3.171,4.387 4.564,5.951 2.643,2.992 4.962,4.377 6.951,4.141 1.296,-0.162 1.917,-0.779 1.836,-1.855 -0.091,-1.031 -0.687,-1.814 -1.802,-2.348 -1.165,-0.547 -2.855,-1.119 -5.113,-1.715 -2.189,-0.797 -4.357,-2.217 -6.503,-4.26"
         id="path291" />
      <path
         inkscape:connector-curvature="0"
         style="fill:#f0d5e6"
         d="m 844.201,710.934 c -1.881,-1.289 -3.6,-3.16 -5.18,-5.621 0.981,2.713 1.951,5.002 2.885,6.861 1.827,3.529 3.736,5.441 5.729,5.719 1.302,0.17 2.045,-0.268 2.252,-1.309 0.189,-1.014 -0.194,-1.92 -1.15,-2.705 -0.966,-0.828 -2.48,-1.805 -4.536,-2.945"
         id="path293" />
      <path
         inkscape:connector-curvature="0"
         style="fill:#eddd00"
         d="m 838.922,705.223 0.067,0.086 c 1.643,2.396 3.171,4.387 4.564,5.951 2.643,2.992 4.962,4.377 6.951,4.141 1.296,-0.162 1.917,-0.779 1.836,-1.855 -0.091,-1.031 -0.687,-1.814 -1.802,-2.348 -1.165,-0.547 -2.855,-1.119 -5.113,-1.715 -2.189,-0.797 -4.357,-2.217 -6.503,-4.26"
         id="path295" />
      <path
         inkscape:connector-curvature="0"
         style="fill:#eddd00"
         d="m 825.749,697.168 c 0.068,1.014 0.663,1.799 1.784,2.355 2.191,0.686 3.893,1.27 5.114,1.709 2.187,0.797 4.354,2.221 6.503,4.262 l -0.082,-0.094 c -0.33,-0.615 -1.84,-2.609 -4.54,-5.955 -2.644,-2.992 -4.954,-4.367 -6.938,-4.111 -1.31,0.15 -1.92,0.758 -1.841,1.834"
         id="path297" />
      <path
         inkscape:connector-curvature="0"
         style="fill:#f0d5e6"
         d="m 838.916,705.256 0.075,0.072 c 2.181,1.92 4.125,3.475 5.865,4.648 3.309,2.258 5.896,3.031 7.766,2.291 1.212,-0.477 1.64,-1.213 1.307,-2.211 -0.341,-0.988 -1.108,-1.605 -2.315,-1.855 -1.253,-0.264 -3.051,-0.402 -5.383,-0.428 -2.306,-0.223 -4.735,-1.062 -7.314,-2.516 v -10e-4 z"
         id="path299" />
      <path
         inkscape:connector-curvature="0"
         style="fill:#6bc4ee"
         d="m 826.483,702.533 c 2.287,0.137 4.073,0.268 5.358,0.408 2.289,0.215 4.739,1.051 7.346,2.523 l -0.102,-0.088 c -0.418,-0.568 -2.384,-2.121 -5.884,-4.646 -3.286,-2.264 -5.864,-3.023 -7.714,-2.287 -1.223,0.465 -1.66,1.213 -1.302,2.23 0.313,1.005 1.074,1.632 2.298,1.86"
         id="path301" />
      <path
         inkscape:connector-curvature="0"
         style="fill:#f0d5e6"
         d="m 838.991,705.328 c 2.59,1.316 4.87,2.344 6.825,3.084 3.76,1.357 6.437,1.463 8.051,0.285 1.051,-0.768 1.289,-1.621 0.705,-2.523 -0.576,-0.861 -1.499,-1.258 -2.747,-1.191 -1.26,0.059 -3.014,0.367 -5.233,0.934 -2.237,0.335 -4.782,0.144 -7.601,-0.589"
         id="path303" />
      <path
         inkscape:connector-curvature="0"
         style="fill:#f0d5e6"
         d="m 838.916,705.256 0.075,0.072 c 2.181,1.92 4.125,3.475 5.865,4.648 3.309,2.258 5.896,3.031 7.766,2.291 1.212,-0.477 1.64,-1.213 1.307,-2.211 -0.341,-0.988 -1.108,-1.605 -2.315,-1.855 -1.253,-0.264 -3.051,-0.402 -5.383,-0.428 -2.306,-0.223 -4.735,-1.062 -7.314,-2.516 v -10e-4 z"
         id="path305" />
      <path
         inkscape:connector-curvature="0"
         style="fill:#6bc4ee"
         d="m 851.825,704.982 c -1.26,0.059 -3.014,0.369 -5.233,0.934 -2.281,0.27 -4.804,0.072 -7.601,-0.588 2.59,1.316 4.87,2.342 6.825,3.084 3.76,1.357 6.437,1.463 8.051,0.285 1.051,-0.768 1.289,-1.621 0.705,-2.523 -0.576,-0.862 -1.499,-1.258 -2.747,-1.192"
         id="path307" />
      <path
         inkscape:connector-curvature="0"
         style="fill:#eddd00"
         d="m 826.231,705.725 c 2.256,-0.432 4,-0.73 5.246,-0.926 2.269,-0.35 4.848,-0.131 7.714,0.633 l -0.106,-0.055 c -0.634,-0.521 -2.916,-1.549 -6.833,-3.072 -3.746,-1.35 -6.421,-1.455 -8.026,-0.291 -1.041,0.777 -1.269,1.619 -0.687,2.521 0.575,0.861 1.478,1.264 2.692,1.19"
         id="path309" />
      <path
         inkscape:connector-curvature="0"
         style="fill:#f0d5e6"
         d="m 838.878,705.338 0.11,0.025 c 2.824,0.588 5.294,0.965 7.383,1.127 3.953,0.311 6.545,-0.318 7.761,-1.885 0.808,-1.016 0.805,-1.893 -10e-4,-2.605 -0.795,-0.707 -1.784,-0.857 -2.93,-0.443 -1.184,0.383 -2.79,1.164 -4.801,2.332 -2.067,0.945 -4.579,1.431 -7.522,1.449"
         id="path311" />
      <path
         inkscape:connector-curvature="0"
         style="fill:#f0d5e6"
         d="m 826.88,709.172 c 2.031,-1.045 3.625,-1.834 4.776,-2.354 2.062,-0.93 4.543,-1.402 7.43,-1.441 -0.679,-0.354 -3.127,-0.732 -7.357,-1.166 -3.974,-0.309 -6.567,0.322 -7.78,1.889 -0.794,1.023 -0.792,1.9 0.024,2.623 0.779,0.677 1.753,0.818 2.907,0.449"
         id="path313" />
      <path
         inkscape:connector-curvature="0"
         style="fill:#f0d5e6"
         d="m 838.894,705.365 0.095,-0.002 c 2.884,-0.137 5.337,-0.391 7.391,-0.746 3.888,-0.68 6.225,-1.928 7.007,-3.76 0.5,-1.199 0.279,-2.047 -0.683,-2.541 -0.918,-0.484 -1.895,-0.389 -2.918,0.289 -1.057,0.695 -2.396,1.844 -3.996,3.467 -1.769,1.449 -4.069,2.541 -6.896,3.297 v -0.004 z"
         id="path315" />
      <path
         inkscape:connector-curvature="0"
         style="fill:#eddd00"
         d="m 838.878,705.338 0.11,0.025 c 2.824,0.588 5.294,0.965 7.383,1.127 3.953,0.311 6.545,-0.318 7.761,-1.885 0.808,-1.016 0.805,-1.893 -10e-4,-2.605 -0.795,-0.707 -1.784,-0.857 -2.93,-0.443 -1.184,0.383 -2.79,1.164 -4.801,2.332 -2.067,0.945 -4.579,1.431 -7.522,1.449"
         id="path317" />
      <path
         inkscape:connector-curvature="0"
         style="fill:#f0d5e6"
         d="m 838.894,705.365 0.095,-0.002 c 2.884,-0.137 5.337,-0.391 7.391,-0.746 3.888,-0.68 6.225,-1.928 7.007,-3.76 0.5,-1.199 0.279,-2.047 -0.683,-2.541 -0.918,-0.484 -1.895,-0.389 -2.918,0.289 -1.057,0.695 -2.396,1.844 -3.996,3.467 -1.769,1.449 -4.069,2.541 -6.896,3.297 v -0.004 z"
         id="path319" />
      <path
         inkscape:connector-curvature="0"
         style="fill:#6bc4ee"
         d="m 828.307,712.109 c 1.696,-1.502 3.021,-2.66 3.986,-3.457 1.789,-1.451 4.089,-2.543 6.919,-3.295 l -0.122,-0.014 c -0.721,-0.035 -3.188,0.209 -7.388,0.762 -3.896,0.695 -6.231,1.939 -7.01,3.742 -0.5,1.197 -0.266,2.057 0.688,2.562 0.917,0.484 1.891,0.368 2.927,-0.3"
         id="path321" />
      <path
         inkscape:connector-curvature="0"
         style="fill:#f0d5e6"
         d="m 844.703,700.486 c -1.299,1.816 -3.2,3.426 -5.712,4.842 2.744,-0.814 5.047,-1.65 6.937,-2.521 3.597,-1.637 5.516,-3.432 5.797,-5.402 0.186,-1.271 -0.248,-2.049 -1.296,-2.297 -1.021,-0.229 -1.926,0.098 -2.73,1.006 -0.834,0.923 -1.832,2.388 -2.996,4.372"
         id="path323" />
      <path
         inkscape:connector-curvature="0"
         style="fill:#eddd00"
         d="m 832.152,707.898 c -3.584,1.645 -5.507,3.439 -5.797,5.4 -0.187,1.273 0.246,2.051 1.283,2.311 1.024,0.23 1.938,-0.111 2.742,-1.02 1.243,-1.889 2.239,-3.354 2.994,-4.371 1.337,-1.846 3.266,-3.469 5.808,-4.902 l -0.093,0.027 c -0.728,0.159 -3.048,1.016 -6.937,2.555"
         id="path325" />
      <path
         inkscape:connector-curvature="0"
         style="fill:#f0d5e6"
         d="m 838.911,705.471 0.092,-0.08 c 2.419,-1.518 4.429,-2.924 6.021,-4.223 3.023,-2.477 4.435,-4.709 4.218,-6.699 -0.146,-1.32 -0.745,-1.965 -1.833,-1.949 -1.029,0.039 -1.829,0.605 -2.391,1.686 -0.707,2.141 -1.307,3.814 -1.771,5.016 -0.819,2.116 -2.266,4.192 -4.336,6.249"
         id="path327" />
      <path
         inkscape:connector-curvature="0"
         style="fill:#6bc4ee"
         d="m 847.201,702.266 c 2.738,-1.273 4.242,-2.891 4.521,-4.861 0.188,-1.27 -0.246,-2.049 -1.293,-2.297 -1.021,-0.229 -1.927,0.098 -2.731,1.006 -0.833,0.924 -1.831,2.389 -2.995,4.373 -1.299,1.816 -3.2,3.426 -5.712,4.842 2.734,-0.751 5.462,-1.778 8.21,-3.063"
         id="path329" />
      <path
         inkscape:connector-curvature="0"
         style="fill:#eddd00"
         d="m 838.911,705.471 0.092,-0.08 c 2.419,-1.518 4.429,-2.924 6.021,-4.223 3.023,-2.477 4.435,-4.709 4.218,-6.699 -0.146,-1.32 -0.745,-1.965 -1.833,-1.949 -1.029,0.039 -1.829,0.605 -2.391,1.686 -0.707,2.141 -1.307,3.814 -1.771,5.016 -0.819,2.116 -2.266,4.192 -4.336,6.249"
         id="path331" />
      <path
         inkscape:connector-curvature="0"
         style="fill:#f0d5e6"
         d="m 833.046,709.549 c -3.011,2.486 -4.427,4.727 -4.22,6.732 0.166,1.283 0.776,1.916 1.824,1.906 1.062,-0.035 1.864,-0.58 2.399,-1.676 0.567,-1.111 1.156,-2.775 1.769,-4.984 0.83,-2.129 2.263,-4.213 4.337,-6.248 l -0.067,0.045 c -0.69,0.332 -2.712,1.748 -6.042,4.225"
         id="path333" />
      <path
         inkscape:connector-curvature="0"
         style="fill:#e27c9f"
         d="m 906.049,650.355 c 3.38,1.947 4.168,4.723 2.383,8.318 l -37.371,10.482 c -0.389,-2.307 -0.286,-5.223 0.325,-8.779 l 34.663,-10.021 z"
         id="path335" />
      <path
         inkscape:connector-curvature="0"
         style="fill:none;stroke:#c4084a;stroke-width:2.39400005;stroke-linecap:round;stroke-linejoin:round;stroke-miterlimit:10"
         d="m 871.386,660.377 34.663,-10.021 c 3.38,1.947 4.168,4.723 2.383,8.318 l -37.371,10.482"
         id="path337" />
      <path
         inkscape:connector-curvature="0"
         style="fill:#c4084a"
         d="m 864.279,677.959 c -0.019,-0.004 -0.117,-0.047 -0.296,-0.127 l 1.576,-2.256 c 2.556,0.805 4.547,0.016 5.956,-2.332 -0.008,-0.012 -0.008,-0.012 0.006,-0.02 1.025,-1.625 1.664,-3.945 1.896,-6.967 l 1.224,1.918 c 0.746,1.945 0.428,4.074 -0.975,6.377 -0.004,0.02 -0.004,0.02 -0.017,0.027 -2.207,3.694 -5.332,4.823 -9.37,3.38"
         id="path339" />
      <path
         inkscape:connector-curvature="0"
         style="fill:#e27c9f"
         d="m 867.649,673.768 -0.555,-0.512 c -3.436,-2.771 -7.135,-3.434 -11.122,-2.008 -0.428,-0.973 -0.576,-1.717 -0.443,-2.252 0.178,-0.764 0.758,-1.486 1.736,-2.148 l 0.676,-0.496 -0.188,-0.971 c -0.536,-1.924 0.729,-3.543 3.805,-4.855 l 0.334,-0.146 0.226,-0.311 c 1.33,-2.008 2.97,-3.051 4.909,-3.127 2.516,-0.098 5.063,0.963 7.652,3.184 l 2.134,1.961 -3.396,4.172 c -0.232,3.021 -0.871,5.342 -1.896,6.967 -0.015,0.008 -0.015,0.008 -0.006,0.02 -1.409,2.348 -3.4,3.137 -5.956,2.332 l 0.915,-1.25 c 0.229,0.102 0.445,0.209 0.672,0.311 l 0.503,-0.871 z"
         id="path341" />
      <path
         inkscape:connector-curvature="0"
         style="fill:#c4084a"
         d="m 867.095,673.256 0.555,0.512 -0.503,0.869 c -0.228,-0.102 -0.443,-0.209 -0.672,-0.311 -5.6,-2.168 -9.249,-2.236 -10.949,-0.221 l -1.096,-1.035 c -1.213,-1.602 -1.683,-3.102 -1.406,-4.502 0.155,-1.178 0.844,-2.258 2.051,-3.252 -0.65,-2.812 1.059,-5.141 5.146,-6.955 1.826,-2.617 4.072,-3.938 6.767,-3.955 2.532,-0.074 5.898,1.525 10.118,4.803 -1.289,0.545 -2.098,0.844 -2.426,0.916 -2.589,-2.221 -5.137,-3.281 -7.652,-3.184 -1.939,0.076 -3.578,1.119 -4.909,3.127 l -0.226,0.311 -0.334,0.146 c -3.076,1.312 -4.341,2.932 -3.806,4.855 l 0.188,0.971 -0.676,0.496 c -0.979,0.662 -1.559,1.385 -1.736,2.148 -0.133,0.535 0.017,1.279 0.443,2.252 3.988,-1.425 7.687,-0.761 11.123,2.009"
         id="path343" />
      <path
         inkscape:connector-curvature="0"
         style="fill:#84539c"
         d="m 895.788,565.424 c -2.016,-2.58 -4.592,-4.531 -7.716,-5.852 -7.593,-3.174 -16.666,-2.199 -27.223,2.928 l -4.302,2.027 c -1.657,0.758 -2.907,1.297 -3.737,1.623 -0.922,0.4 -2.011,0.793 -3.269,1.184 -0.996,0.322 -1.985,0.58 -2.989,0.752 -0.912,0.184 -1.835,0.281 -2.781,0.32 -0.923,0.021 -1.822,-0.02 -2.731,-0.123 -0.883,-0.121 -1.819,-0.309 -2.799,-0.566 -0.867,-0.23 -1.872,-0.561 -3.003,-1.008 -1.032,-0.4 -2.15,-0.877 -3.37,-1.432 -1.275,-0.605 -2.539,-1.244 -3.78,-1.916 l -1.595,-0.814 c -0.752,-0.459 -1.212,-0.691 -1.366,-0.715 -0.172,-0.031 -0.364,-0.002 -0.562,0.088 -0.071,0.025 -0.198,0.289 -0.364,0.768 -0.15,0.418 -0.262,0.77 -0.354,1.07 -0.165,0.586 -0.377,1.469 -0.626,2.611 -0.229,1.172 -0.42,2.291 -0.557,3.357 -0.154,1.068 -0.282,2.391 -0.391,3.951 -0.104,1.486 -0.135,2.945 -0.106,4.41 0.017,1.48 0.119,3.025 0.307,4.646 0.147,1.539 0.409,3.133 0.796,4.758 0.352,1.594 0.818,3.141 1.386,4.658 0.582,1.516 1.311,2.996 2.153,4.441 0.892,1.451 1.88,2.768 2.976,3.977 1.216,1.299 2.526,2.428 3.944,3.375 1.575,1.074 3.254,1.951 5.042,2.629 1.79,0.709 3.843,1.256 6.16,1.641 0.98,0.184 2.139,0.322 3.442,0.422 1.672,0.137 2.607,0.416 2.809,0.842 0.306,0.604 -0.233,1.426 -1.606,2.441 -1.834,1.375 -2.858,2.199 -3.039,2.484 -1.423,1.963 -0.144,3.113 3.829,3.424 3.109,0.232 6.807,-0.158 11.103,-1.184 6.313,-1.582 12.238,-4.508 17.77,-8.785 9.812,-7.586 16.328,-17.287 19.547,-29.113 0.131,-0.43 0.244,-0.871 0.356,-1.326 0.041,-0.127 0.099,-0.242 0.156,-0.357 0.156,-1.342 0.151,-2.566 -0.023,-3.678 -0.449,-2.898 -1.615,-5.55 -3.487,-7.958"
         id="path345" />
      <path
         inkscape:connector-curvature="0"
         style="fill:none;stroke:#652182;stroke-width:2.39499998;stroke-linecap:round;stroke-linejoin:round;stroke-miterlimit:10"
         d="m 888.072,559.572 c -7.593,-3.174 -16.666,-2.199 -27.222,2.928 l -4.302,2.029 c -1.658,0.756 -2.908,1.295 -3.738,1.621 -0.922,0.4 -2.01,0.793 -3.269,1.184 -0.996,0.322 -1.985,0.58 -2.989,0.752 -0.912,0.184 -1.834,0.281 -2.781,0.32 -0.923,0.021 -1.822,-0.02 -2.731,-0.123 -0.883,-0.121 -1.819,-0.309 -2.799,-0.566 -0.867,-0.23 -1.872,-0.561 -3.003,-1.008 -1.032,-0.4 -2.15,-0.877 -3.37,-1.432 -1.274,-0.605 -2.539,-1.244 -3.78,-1.916 l -1.595,-0.814 c -0.752,-0.459 -1.212,-0.691 -1.366,-0.715 -0.172,-0.031 -0.364,-0.002 -0.562,0.088 -0.071,0.025 -0.198,0.289 -0.364,0.768 -0.149,0.418 -0.262,0.77 -0.354,1.07 -0.165,0.586 -0.377,1.469 -0.626,2.611 -0.229,1.172 -0.419,2.291 -0.557,3.357 -0.154,1.068 -0.281,2.391 -0.391,3.951 -0.104,1.486 -0.135,2.945 -0.106,4.41 0.016,1.48 0.119,3.025 0.307,4.646 0.147,1.539 0.409,3.133 0.796,4.758 0.352,1.594 0.818,3.141 1.386,4.658 0.582,1.516 1.312,2.996 2.153,4.441 0.892,1.451 1.88,2.768 2.976,3.977 1.216,1.299 2.526,2.428 3.944,3.375 1.575,1.074 3.254,1.951 5.042,2.629 1.79,0.709 3.843,1.256 6.16,1.641 0.98,0.184 2.139,0.322 3.442,0.424 1.672,0.135 2.607,0.416 2.809,0.84 0.306,0.604 -0.233,1.428 -1.606,2.441 -1.834,1.375 -2.857,2.199 -3.039,2.484 -1.423,1.963 -0.143,3.113 3.829,3.424 3.109,0.232 6.807,-0.158 11.104,-1.184 6.312,-1.582 12.237,-4.506 17.769,-8.785 9.812,-7.586 16.328,-17.285 19.547,-29.113 0.131,-0.43 0.244,-0.871 0.356,-1.326 0.041,-0.127 0.099,-0.242 0.156,-0.357 0.156,-1.342 0.151,-2.566 -0.023,-3.678 -0.447,-2.898 -1.613,-5.551 -3.485,-7.959 -2.018,-2.579 -4.594,-4.53 -7.718,-5.851 z"
         id="path347" />
      <path
         inkscape:connector-curvature="0"
         style="fill:#fcdf00"
         d="m 875.533,581.379 c -1.854,0.27 -3.449,1.305 -4.791,3.115 -1.364,1.848 -1.957,3.801 -1.75,5.848 0.259,2.35 1.597,4.25 3.989,5.715 -1.017,0.383 -1.967,1.301 -2.843,2.785 -0.928,1.549 -1.381,3.119 -1.367,4.68 0.028,1.947 0.74,3.428 2.151,4.422 1.408,0.98 3.632,1.455 6.68,1.393 l 0.018,-0.002 c 0.652,0.004 1.522,-0.145 2.637,-0.482 1.112,-0.34 2.343,-1.105 3.721,-2.301 1.371,-1.213 2.586,-2.459 3.657,-3.762 1.491,-1.531 2.813,-3.264 3.957,-5.197 2.989,-5.051 4.055,-10.426 3.162,-16.104 -0.151,-0.992 -0.445,-1.719 -0.9,-2.209 -0.724,-1.844 -1.812,-3.008 -3.234,-3.484 -1.439,-0.506 -3.072,-0.283 -4.914,0.65 -1.64,0.846 -2.99,2.008 -4.052,3.49 -1.08,1.512 -1.441,2.811 -1.078,3.891 -1.347,-1.958 -3.034,-2.772 -5.043,-2.448"
         id="path349" />
      <path
         inkscape:connector-curvature="0"
         style="fill:#84539c"
         d="m 942.259,548.609 4.079,0.703 c 1.549,0.246 2.713,0.414 3.48,0.492 0.866,0.109 1.861,0.182 3.001,0.203 0.897,0.029 1.771,-0.016 2.646,-0.137 0.79,-0.074 1.569,-0.225 2.354,-0.453 0.765,-0.238 1.49,-0.531 2.196,-0.883 0.688,-0.35 1.394,-0.777 2.131,-1.299 0.653,-0.465 1.381,-1.062 2.162,-1.787 0.731,-0.66 1.507,-1.414 2.344,-2.27 0.873,-0.922 1.728,-1.873 2.562,-2.85 l 1.058,-1.193 c 0.492,-0.639 0.801,-0.986 0.928,-1.053 0.139,-0.082 0.302,-0.105 0.487,-0.074 0.077,0.004 0.248,0.219 0.521,0.617 0.219,0.344 0.418,0.646 0.579,0.91 0.304,0.498 0.71,1.254 1.23,2.264 0.503,1.027 0.977,2.031 1.385,2.998 0.421,0.963 0.894,2.162 1.419,3.596 0.48,1.365 0.916,2.721 1.297,4.102 0.397,1.393 0.746,2.867 1.037,4.445 0.303,1.482 0.527,3.053 0.675,4.68 0.142,1.602 0.188,3.184 0.145,4.764 -0.045,1.584 -0.224,3.17 -0.511,4.746 -0.328,1.609 -0.773,3.133 -1.323,4.566 -0.627,1.551 -1.39,2.971 -2.297,4.26 -0.975,1.438 -2.093,2.732 -3.359,3.852 -1.259,1.162 -2.788,2.248 -4.586,3.252 -0.752,0.434 -1.65,0.891 -2.686,1.354 -1.333,0.584 -2.024,1.115 -2.061,1.561 -0.079,0.662 0.574,1.273 1.981,1.844 1.894,0.783 2.938,1.275 3.166,1.482 1.708,1.445 0.988,2.875 -2.173,4.271 -3.277,1.43 -7.716,2.115 -13.343,2.061 -1.928,-0.023 -4.264,-0.449 -7.025,-1.25 -0.099,-0.152 -0.247,-0.234 -0.418,-0.27 -0.525,-0.16 -1.053,-0.338 -1.579,-0.514 -11.994,-4.01 -21.291,-11.754 -27.928,-23.256 -0.226,-0.373 -0.45,-0.746 -0.662,-1.141 -0.076,-0.107 -0.152,-0.201 -0.241,-0.295 -0.504,-1.209 -0.836,-2.367 -1.001,-3.449 -0.44,-2.84 -0.221,-5.645 0.652,-8.432 0.919,-2.973 2.481,-5.518 4.67,-7.627 5.303,-5.073 12.978,-6.68 23.008,-4.79"
         id="path351" />
      <path
         inkscape:connector-curvature="0"
         style="fill:none;stroke:#652182;stroke-width:2.39499998;stroke-linecap:round;stroke-linejoin:round;stroke-miterlimit:10"
         d="m 946.338,549.312 c 1.549,0.246 2.713,0.414 3.48,0.492 0.866,0.109 1.861,0.182 3.001,0.203 0.897,0.029 1.771,-0.016 2.646,-0.137 0.79,-0.074 1.569,-0.225 2.354,-0.455 0.765,-0.236 1.49,-0.529 2.196,-0.881 0.688,-0.35 1.394,-0.777 2.131,-1.299 0.653,-0.465 1.381,-1.062 2.162,-1.787 0.731,-0.66 1.508,-1.414 2.344,-2.27 0.873,-0.922 1.728,-1.873 2.562,-2.85 l 1.058,-1.193 c 0.492,-0.639 0.801,-0.986 0.928,-1.053 0.139,-0.082 0.302,-0.105 0.487,-0.074 0.077,0.004 0.248,0.219 0.521,0.617 0.219,0.344 0.418,0.646 0.579,0.91 0.304,0.498 0.71,1.254 1.23,2.264 0.503,1.027 0.977,2.031 1.384,2.998 0.421,0.963 0.895,2.162 1.42,3.596 0.48,1.365 0.916,2.721 1.297,4.102 0.397,1.393 0.746,2.867 1.036,4.445 0.304,1.482 0.528,3.053 0.676,4.68 0.142,1.602 0.188,3.184 0.145,4.764 -0.045,1.584 -0.224,3.17 -0.511,4.744 -0.328,1.611 -0.773,3.135 -1.323,4.568 -0.627,1.551 -1.39,2.969 -2.297,4.26 -0.975,1.438 -2.093,2.732 -3.358,3.852 -1.26,1.162 -2.789,2.248 -4.587,3.252 -0.752,0.434 -1.65,0.891 -2.686,1.354 -1.333,0.584 -2.024,1.115 -2.062,1.561 -0.078,0.662 0.575,1.273 1.982,1.844 1.893,0.783 2.938,1.275 3.166,1.482 1.708,1.445 0.988,2.875 -2.173,4.271 -3.277,1.43 -7.716,2.115 -13.343,2.061 -1.928,-0.023 -4.264,-0.449 -7.025,-1.25 -0.099,-0.152 -0.247,-0.234 -0.418,-0.27 -0.525,-0.16 -1.053,-0.338 -1.579,-0.514 -11.994,-4.01 -21.291,-11.754 -27.928,-23.256 -0.226,-0.373 -0.45,-0.746 -0.662,-1.141 -0.076,-0.107 -0.152,-0.201 -0.241,-0.295 -0.504,-1.209 -0.836,-2.367 -1.001,-3.449 -0.439,-2.84 -0.221,-5.645 0.652,-8.432 0.919,-2.973 2.481,-5.518 4.67,-7.627 5.303,-5.074 12.979,-6.682 23.008,-4.791 l 4.079,0.704 z"
         id="path353" />
      <path
         inkscape:connector-curvature="0"
         style="fill:#fcdf00"
         d="m 941.138,568.047 c 1.78,-0.549 3.651,-0.291 5.649,0.779 2.029,1.08 3.4,2.594 4.092,4.533 0.769,2.23 0.381,4.518 -1.168,6.859 1.078,-0.09 2.342,0.35 3.776,1.311 1.503,0.996 2.581,2.207 3.229,3.637 1.624,3.551 -0.081,6.557 -5.124,9 -0.002,-0.014 -0.02,-0.027 -0.035,-0.025 -0.189,0.045 -0.428,0.082 -0.681,0.104 -0.255,0.025 -0.522,0.053 -0.796,0.047 -1.786,0.688 -3.77,0.703 -5.957,0.074 -1.646,-0.459 -3.235,-1.047 -4.768,-1.764 -1.996,-0.754 -3.924,-1.76 -5.8,-3.027 -4.87,-3.295 -8.123,-7.684 -9.747,-13.203 -0.284,-0.955 -0.314,-1.738 -0.121,-2.359 -0.14,-1.992 0.336,-3.506 1.419,-4.537 1.092,-1.076 2.666,-1.576 4.721,-1.516 1.839,0.049 3.55,0.527 5.156,1.416 1.641,0.914 2.523,1.928 2.649,3.045 0.383,-2.347 1.551,-3.8 3.506,-4.374"
         id="path355" />
      <path
         inkscape:connector-curvature="0"
         style="fill:#e27c9f"
         d="m 957.47,594.766 c -2.867,-4.736 -6.534,-8.775 -10.986,-12.104 -9.567,-7.141 -20.518,-9.797 -32.857,-8 -12.28,1.775 -21.712,7.5 -28.277,17.178 -3.764,5.549 -6.061,11.658 -6.929,18.32 -0.447,5.232 0.193,10.752 1.925,16.59 1.806,5.508 4.818,10.617 9.062,15.322 0.399,0.438 0.815,0.873 1.259,1.305 2.466,2.332 5.616,4.406 9.479,6.186 2.854,1.303 6.075,2.441 9.682,3.443 4.934,1.359 10.099,1.834 15.475,1.443 1.601,-0.123 3.235,-0.332 4.877,-0.6 6.271,-1.164 11.797,-3.336 16.578,-6.512 5.579,-3.691 10.144,-8.76 13.699,-15.166 0.958,-1.938 1.66,-3.576 2.086,-4.928 1.775,-6.471 1.94,-12.551 0.482,-18.279 -1.326,-5.536 -3.178,-10.276 -5.555,-14.198"
         id="path357" />
      <path
         inkscape:connector-curvature="0"
         style="fill:#e27c9f"
         d="m 969.835,615.229 c 0.208,-0.713 0.38,-1.377 0.485,-1.969 0.202,-1.137 0.244,-2.053 0.108,-2.729 -0.034,-0.115 -0.067,-0.23 -0.097,-0.332 -0.481,-1.242 -2.02,-1.809 -4.623,-1.695 -0.844,0.025 -1.746,0.18 -2.686,0.461 1.458,5.729 1.293,11.809 -0.482,18.279 0.071,-0.225 0.133,-0.43 0.177,-0.633 1.698,-1.246 3.193,-2.947 4.45,-5.111 1.152,-1.963 2.043,-4.055 2.668,-6.271"
         id="path359" />
      <path
         inkscape:connector-curvature="0"
         style="fill:none;stroke:#c4084a;stroke-width:2.39499998;stroke-linecap:round;stroke-linejoin:round;stroke-miterlimit:10"
         d="m 946.483,582.664 c -9.567,-7.143 -20.518,-9.799 -32.857,-8.002 -12.28,1.775 -21.713,7.5 -28.277,17.178 -3.764,5.549 -6.061,11.658 -6.929,18.32 -0.447,5.232 0.193,10.754 1.925,16.59 1.806,5.508 4.818,10.617 9.062,15.322 0.399,0.438 0.815,0.873 1.259,1.305 2.466,2.332 5.616,4.406 9.479,6.186 2.854,1.303 6.075,2.441 9.682,3.443 4.934,1.359 10.099,1.834 15.475,1.443 1.601,-0.123 3.235,-0.332 4.877,-0.6 6.271,-1.164 11.797,-3.334 16.578,-6.512 5.579,-3.691 10.144,-8.758 13.699,-15.166 0.958,-1.938 1.66,-3.576 2.086,-4.928 0.071,-0.225 0.131,-0.43 0.177,-0.633 1.698,-1.246 3.193,-2.947 4.45,-5.109 1.151,-1.965 2.042,-4.057 2.667,-6.273 0.208,-0.713 0.38,-1.377 0.485,-1.969 0.201,-1.137 0.244,-2.053 0.108,-2.729 -0.034,-0.115 -0.067,-0.23 -0.097,-0.332 -0.481,-1.242 -2.02,-1.809 -4.623,-1.695 -0.844,0.025 -1.746,0.18 -2.686,0.461 -1.325,-5.537 -3.179,-10.277 -5.554,-14.199 -2.865,-4.736 -6.533,-8.775 -10.986,-12.101 z m 16.058,44.58 c 1.775,-6.471 1.94,-12.551 0.482,-18.279"
         id="path361" />
      <path
         inkscape:connector-curvature="0"
         style="fill:#a682b9"
         d="m 958.711,618.807 c -0.146,-0.158 -0.322,-0.221 -0.516,-0.193 -0.223,0.035 -0.399,0.154 -0.507,0.354 -0.054,0.127 -0.092,0.271 -0.087,0.406 -0.028,0.109 -0.027,0.217 -0.007,0.352 0.019,0.115 0.048,0.217 0.109,0.314 0.032,0.117 0.11,0.225 0.201,0.332 0.161,0.156 0.366,0.215 0.589,0.182 0.193,-0.029 0.342,-0.141 0.434,-0.338 0.102,-0.215 0.138,-0.463 0.102,-0.715 -0.045,-0.28 -0.155,-0.521 -0.318,-0.694"
         id="path363" />
      <path
         inkscape:connector-curvature="0"
         style="fill:#a682b9"
         d="m 956.353,623.156 c -0.105,0.197 -0.146,0.432 -0.104,0.711 0.028,0.178 0.08,0.338 0.162,0.459 0.059,0.082 0.101,0.154 0.152,0.205 0.193,0.168 0.388,0.244 0.578,0.213 0.179,-0.025 0.325,-0.156 0.444,-0.369 0.101,-0.215 0.143,-0.447 0.097,-0.729 -0.038,-0.252 -0.147,-0.479 -0.312,-0.648 -0.182,-0.197 -0.361,-0.291 -0.54,-0.266 -0.072,0.012 -0.16,0.041 -0.227,0.094 -0.095,0.063 -0.166,0.18 -0.25,0.33"
         id="path365" />
      <path
         inkscape:connector-curvature="0"
         style="fill:#a682b9"
         d="m 960.349,622.07 c -0.046,-0.008 -0.093,-0.018 -0.166,-0.006 -0.015,0.004 -0.044,0.021 -0.084,0.043 -0.046,0.008 -0.087,0.029 -0.146,0.053 -0.065,0.055 -0.133,0.127 -0.179,0.209 -0.04,0.037 -0.063,0.07 -0.072,0.117 -0.108,0.199 -0.147,0.432 -0.103,0.713 0.027,0.176 0.082,0.334 0.162,0.459 0.057,0.066 0.096,0.137 0.15,0.189 0.052,0.039 0.087,0.076 0.14,0.115 0.066,0.051 0.147,0.082 0.23,0.117 l 0.032,0.023 -0.003,-0.027 c 0.059,0.004 0.121,0.008 0.183,0 0.043,-0.006 0.104,-0.018 0.161,-0.025 0.108,-0.076 0.197,-0.197 0.276,-0.359 0.105,-0.199 0.146,-0.434 0.104,-0.715 -0.04,-0.25 -0.151,-0.477 -0.313,-0.646 -0.125,-0.148 -0.248,-0.236 -0.372,-0.26"
         id="path367" />
      <path
         inkscape:connector-curvature="0"
         style="fill:#a682b9"
         d="m 901.039,630.115 c 0.164,-0.223 0.229,-0.475 0.188,-0.74 -0.044,-0.281 -0.183,-0.504 -0.404,-0.666 -0.193,-0.152 -0.412,-0.209 -0.667,-0.17 -0.278,0.043 -0.501,0.168 -0.649,0.373 -0.149,0.219 -0.2,0.471 -0.157,0.752 0.041,0.266 0.166,0.488 0.373,0.654 0.203,0.15 0.456,0.203 0.734,0.16 0.252,-0.04 0.447,-0.16 0.582,-0.363"
         id="path369" />
      <path
         inkscape:connector-curvature="0"
         style="fill:#a682b9"
         d="m 904.397,632.84 c -0.039,-0.254 -0.18,-0.473 -0.403,-0.652 -0.212,-0.193 -0.464,-0.262 -0.744,-0.217 -0.254,0.039 -0.445,0.174 -0.571,0.42 -0.163,0.238 -0.228,0.49 -0.19,0.742 0.043,0.281 0.182,0.486 0.4,0.635 0.196,0.182 0.419,0.252 0.67,0.217 0.267,-0.043 0.488,-0.184 0.646,-0.42 0.166,-0.21 0.234,-0.448 0.192,-0.725"
         id="path371" />
      <path
         inkscape:connector-curvature="0"
         style="fill:#a682b9"
         d="m 897.82,633.791 c 0.046,0.297 0.171,0.52 0.375,0.67 0.225,0.162 0.459,0.219 0.696,0.182 0.278,-0.043 0.487,-0.166 0.652,-0.389 0.15,-0.205 0.201,-0.455 0.155,-0.752 -0.039,-0.25 -0.166,-0.475 -0.376,-0.654 -0.219,-0.164 -0.459,-0.23 -0.737,-0.189 -0.237,0.039 -0.443,0.176 -0.607,0.398 -0.144,0.232 -0.199,0.484 -0.158,0.734"
         id="path373" />
      <path
         inkscape:connector-curvature="0"
         style="fill:#5d1e80"
         d="m 930.637,573.525 c -10e-4,-0.016 -10e-4,-0.016 -0.017,-0.014 -5.651,-1.238 -11.593,-1.377 -17.84,-0.414 -11.606,1.793 -21.093,6.85 -28.481,15.162 -0.615,0.68 -1.196,1.379 -1.774,2.098 -7.63,9.543 -10.544,20.088 -8.76,31.652 1.478,9.578 6.574,16.945 15.29,22.07 l 3.441,2.375 -2.021,-4.383 c -5.123,-9.49 -6.479,-16.316 -4.075,-20.467 0.787,-0.336 1.963,-0.072 3.502,0.791 l -0.019,-0.012 c 1.598,0.93 3.153,1.395 4.694,1.369 l 1.361,-0.209 -0.183,-1.164 c -1.447,-9.889 0.713,-17.596 6.498,-23.123 2.306,-2.207 5.173,-4.057 8.624,-5.582 l 0.021,0.041 0.021,0.029 0.015,-0.002 c 2.208,2.52 4.776,4.584 7.702,6.199 l 1.692,0.947 0.169,-3.254 c 2.531,2.408 5.767,4.357 9.712,5.842 l 0.783,0.309 0.546,-0.635 c 2.581,-2.799 4.113,-6.738 4.616,-11.816 0.278,0.521 0.75,1.383 1.402,2.551 l 1.217,2.123 0.953,-2.244 c 0.575,-1.326 0.937,-2.65 1.053,-3.971 3.075,0.994 5.87,2.244 8.381,3.74 0.017,0.014 0.03,0.012 0.048,0.023 2.833,1.705 5.135,3.629 6.914,5.756 1.791,2.186 3.283,4.51 4.443,6.977 1.088,2.787 1.733,5.088 1.97,6.932 1.348,-1.094 1.797,-3.043 1.363,-5.854 -0.908,-8.656 -4.103,-15.674 -9.594,-21.037 -1.244,-1.215 -2.596,-2.338 -4.056,-3.383 l -0.227,-0.178 c -0.89,-0.703 -1.818,-1.371 -2.775,-2.035 l -0.006,-0.029 -0.444,-0.299 c -5.081,-3.39 -10.469,-5.693 -16.159,-6.881 m -0.523,2.36 0.016,-0.002 c 5.232,1.104 10.188,3.184 14.885,6.254 l 0.002,0.014 0.442,0.301 c 0.938,0.619 1.832,1.262 2.685,1.924 l 0.005,0.045 0.434,0.318 c 1.51,1.066 2.896,2.215 4.144,3.457 3.452,3.447 5.932,7.607 7.399,12.475 -0.729,-1.064 -1.445,-2.041 -2.144,-2.896 -1.937,-2.332 -4.447,-4.438 -7.565,-6.297 -0.002,-0.016 -0.002,-0.016 -0.018,-0.014 -3.084,-1.848 -6.572,-3.328 -10.46,-4.443 l -1.62,-0.484 0.081,1.717 c 0.022,0.639 -0.014,1.287 -0.111,1.945 -0.045,-0.102 -0.089,-0.172 -0.112,-0.244 -0.243,-0.469 -0.896,-1.729 -1.978,-3.779 l -2.199,-4.143 -0.087,0.029 0.006,4.693 c 0.095,6.18 -1.119,10.896 -3.647,14.146 -4.256,-1.713 -7.536,-4.037 -9.869,-6.967 l -1.994,-2.414 -0.288,5.275 c -1.989,-1.299 -3.787,-2.842 -5.365,-4.648 l 0.02,0.027 -1.187,-1.438 -0.815,0.369 c -3.983,1.641 -7.295,3.682 -9.947,6.125 -6.254,5.752 -8.801,13.732 -7.655,23.943 -0.684,-0.172 -1.372,-0.463 -2.062,-0.875 l -0.018,-0.012 c -2.761,-1.549 -4.858,-1.744 -6.254,-0.582 l -0.207,0.154 -0.097,0.154 c -2.846,4.062 -2.26,10.443 1.757,19.123 -5.625,-4.332 -9.002,-10.158 -10.133,-17.494 -1.675,-10.863 1.077,-20.787 8.254,-29.771 0.914,-1.137 1.859,-2.232 2.852,-3.256 6.835,-7.143 15.476,-11.521 25.889,-13.127 5.928,-0.915 11.594,-0.78 16.961,0.398"
         id="path375" />
      <path
         inkscape:connector-curvature="0"
         style="fill:#7f519b"
         d="m 930.13,575.883 -0.016,0.002 c -5.367,-1.178 -11.033,-1.312 -16.964,-0.396 -10.414,1.605 -19.055,5.984 -25.89,13.127 -0.992,1.023 -1.938,2.119 -2.852,3.256 -7.177,8.984 -9.929,18.908 -8.254,29.771 1.131,7.336 4.508,13.162 10.131,17.494 -4.015,-8.68 -4.601,-15.061 -1.755,-19.123 l 0.097,-0.154 0.207,-0.154 c 1.396,-1.162 3.493,-0.967 6.254,0.582 l 0.018,0.012 c 0.69,0.412 1.378,0.703 2.062,0.875 -1.146,-10.211 1.401,-18.191 7.655,-23.943 2.652,-2.443 5.964,-4.484 9.947,-6.125 l 0.815,-0.369 1.187,1.438 -0.02,-0.027 c 1.578,1.807 3.376,3.35 5.365,4.648 l 0.288,-5.275 1.993,2.414 c 2.334,2.928 5.614,5.254 9.87,6.967 2.527,-3.25 3.742,-7.967 3.647,-14.146 l -0.006,-4.693 0.087,-0.029 2.199,4.143 c 1.08,2.051 1.734,3.311 1.977,3.779 0.024,0.072 0.068,0.143 0.113,0.242 0.098,-0.656 0.134,-1.305 0.112,-1.943 l -0.082,-1.717 1.62,0.484 c 3.888,1.115 7.376,2.596 10.46,4.443 0.016,-0.002 0.016,-0.002 0.018,0.014 3.118,1.859 5.629,3.965 7.565,6.297 0.698,0.855 1.415,1.832 2.144,2.896 -1.468,-4.867 -3.947,-9.027 -7.399,-12.475 -1.247,-1.242 -2.635,-2.391 -4.144,-3.459 l -0.434,-0.316 -0.005,-0.045 c -0.853,-0.662 -1.746,-1.305 -2.685,-1.924 l -0.442,-0.301 -0.002,-0.014 c -4.693,-3.073 -9.649,-5.153 -14.881,-6.256"
         id="path377" />
      <path
         inkscape:connector-curvature="0"
         style="fill:#e27c9f"
         d="m 874.473,623.234 c -1.657,0.754 -2.182,1.85 -1.552,3.297 3.302,7.564 9.371,11.459 18.226,11.715 L 888.884,623.1 c -5.304,-1.893 -10.099,-1.85 -14.411,0.134"
         id="path379" />
      <path
         inkscape:connector-curvature="0"
         style="fill:none;stroke:#c4084a;stroke-width:2.39499998;stroke-linecap:square;stroke-linejoin:round;stroke-miterlimit:10"
         d="m 891.146,638.246 c -8.854,-0.256 -14.924,-4.15 -18.226,-11.715 -0.63,-1.447 -0.105,-2.543 1.552,-3.297 4.312,-1.984 9.107,-2.027 14.411,-0.135"
         id="path381" />
      <path
         inkscape:connector-curvature="0"
         style="fill:#d8272a"
         d="m 914.821,643.592 c -1.659,-0.803 -3.132,-1.777 -4.429,-2.898 l -1.446,-1.404 c 12.413,2.668 23.822,1.543 34.243,-3.385 3.258,-1.543 6.209,-3.379 8.863,-5.488 l 3.033,-2.693 c -0.414,5.979 -4.194,10.699 -11.348,14.188 -3.571,1.738 -7.108,2.877 -10.593,3.426 -6.921,1.414 -13.03,0.842 -18.323,-1.746"
         id="path383" />
      <path
         inkscape:connector-curvature="0"
         style="fill:#da4d5d"
         d="m 929.628,641.199 c -0.295,-0.262 -0.613,-0.59 -0.935,-0.971 3.797,-0.52 7.479,-1.469 11.041,-2.84 -0.038,0.502 -0.109,0.953 -0.215,1.332 -0.531,1.885 -1.913,3.102 -4.157,3.65 -2.29,0.558 -4.195,0.169 -5.734,-1.171"
         id="path385" />
      <path
         inkscape:connector-curvature="0"
         style="fill:#ffffff"
         d="m 940.48,599.459 c -2.47,2.152 -3.975,5.174 -4.54,9.061 -0.534,3.9 0.014,7.541 1.666,10.906 1.652,3.334 3.945,5.434 6.849,6.287 2.901,0.842 5.588,0.184 8.021,-1.994 2.468,-2.152 3.976,-5.172 4.54,-9.061 0.563,-3.904 0.008,-7.514 -1.658,-10.846 -1.656,-3.379 -3.938,-5.496 -6.854,-6.334 -2.884,-0.841 -5.558,-0.187 -8.024,1.981"
         id="path387" />
      <path
         inkscape:connector-curvature="0"
         style="fill:#ffffff"
         d="m 930.228,622.729 c 0.929,-3.975 0.324,-7.803 -1.804,-11.49 -2.158,-3.68 -5.22,-6.145 -9.199,-7.393 -3.969,-1.281 -7.676,-0.969 -11.151,0.945 -3.463,1.898 -5.66,4.83 -6.599,8.775 -0.937,3.945 -0.332,7.758 1.798,11.443 2.157,3.682 5.204,6.15 9.167,7.4 3.984,1.279 7.708,0.963 11.172,-0.936 3.461,-1.895 5.663,-4.811 6.616,-8.744"
         id="path389" />
      <path
         inkscape:connector-curvature="0"
         style="fill:#0e5cab"
         d="m 955.17,611.559 c -0.565,-2.289 -1.609,-4.055 -3.133,-5.303 -1.523,-1.23 -3.078,-1.582 -4.673,-1.02 -1.595,0.551 -2.76,1.834 -3.49,3.873 -0.706,2 -0.785,4.146 -0.219,6.438 0.569,2.307 1.613,4.086 3.154,5.328 1.519,1.221 3.087,1.555 4.683,1.004 1.579,-0.559 2.729,-1.844 3.464,-3.852 0.718,-2.031 0.794,-4.179 0.214,-6.468 m -5.344,-3.522 c 1.111,0.328 2.01,1.145 2.707,2.428 0.703,1.318 1.014,2.736 0.903,4.27 -0.113,1.533 -0.598,2.713 -1.454,3.557 -0.864,0.861 -1.854,1.135 -2.963,0.805 -1.125,-0.309 -2.023,-1.125 -2.724,-2.426 -0.715,-1.312 -1.014,-2.736 -0.901,-4.268 0.099,-1.531 0.581,-2.711 1.453,-3.557 0.868,-0.848 1.855,-1.106 2.979,-0.809"
         id="path391" />
      <path
         inkscape:connector-curvature="0"
         style="fill:#080101"
         d="m 952.533,610.465 c -0.697,-1.283 -1.596,-2.1 -2.707,-2.428 -1.124,-0.297 -2.111,-0.039 -2.98,0.809 -0.87,0.848 -1.353,2.025 -1.451,3.557 -0.112,1.531 0.187,2.953 0.901,4.268 0.7,1.301 1.599,2.117 2.724,2.426 1.108,0.33 2.099,0.059 2.963,-0.805 0.856,-0.844 1.341,-2.023 1.454,-3.555 0.11,-1.536 -0.201,-2.954 -0.904,-4.272"
         id="path393" />
      <path
         inkscape:connector-curvature="0"
         style="fill:#ffffff"
         d="m 946.77,610.613 c -0.272,0.301 -0.423,0.688 -0.455,1.16 -0.046,0.51 0.041,0.967 0.274,1.398 0.232,0.434 0.548,0.703 0.915,0.812 0.348,0.098 0.666,0.002 0.972,-0.27 0.276,-0.271 0.429,-0.658 0.458,-1.162 0.043,-0.508 -0.046,-0.979 -0.277,-1.396 -0.236,-0.447 -0.55,-0.719 -0.914,-0.812 -0.363,-0.097 -0.696,0.003 -0.973,0.27"
         id="path395" />
      <path
         inkscape:connector-curvature="0"
         style="fill:#0e5cab"
         d="m 927.964,612.957 c -1.677,-1.756 -3.647,-2.635 -5.928,-2.602 -2.269,0.033 -4.174,0.932 -5.699,2.729 -1.526,1.795 -2.254,3.938 -2.158,6.422 0.094,2.482 0.971,4.621 2.62,6.381 1.677,1.74 3.656,2.602 5.91,2.572 2.28,-0.035 4.201,-0.938 5.73,-2.703 1.525,-1.795 2.257,-3.938 2.155,-6.451 -0.095,-2.485 -0.967,-4.608 -2.63,-6.348 m -3.946,0.818 c 1.428,0.523 2.493,1.539 3.177,3.025 0.698,1.482 0.828,3.008 0.371,4.578 -0.437,1.566 -1.321,2.701 -2.653,3.406 -1.324,0.736 -2.719,0.828 -4.152,0.277 -1.412,-0.523 -2.48,-1.539 -3.178,-3.023 -0.684,-1.484 -0.813,-3.012 -0.374,-4.578 0.447,-1.535 1.331,-2.672 2.657,-3.408 1.329,-0.702 2.723,-0.796 4.152,-0.277"
         id="path397" />
      <path
         inkscape:connector-curvature="0"
         style="fill:#080101"
         d="m 927.194,616.801 c -0.685,-1.486 -1.749,-2.502 -3.177,-3.025 -1.429,-0.521 -2.822,-0.426 -4.152,0.277 -1.327,0.736 -2.21,1.873 -2.657,3.408 -0.439,1.566 -0.31,3.094 0.374,4.578 0.697,1.484 1.766,2.5 3.178,3.023 1.434,0.551 2.828,0.459 4.152,-0.277 1.332,-0.705 2.217,-1.84 2.653,-3.406 0.457,-1.57 0.328,-3.096 -0.371,-4.578"
         id="path399" />
      <path
         inkscape:connector-curvature="0"
         style="fill:#ffffff"
         d="m 925.771,616.504 c -0.208,-0.467 -0.563,-0.805 -1.031,-0.992 -0.466,-0.17 -0.916,-0.146 -1.349,0.09 -0.436,0.232 -0.739,0.613 -0.899,1.137 -0.137,0.504 -0.09,0.998 0.153,1.492 0.213,0.496 0.564,0.822 1.03,0.99 0.481,0.168 0.933,0.145 1.351,-0.088 0.435,-0.234 0.74,-0.613 0.898,-1.137 0.151,-0.508 0.091,-1 -0.153,-1.492"
         id="path401" />
      <path
         inkscape:connector-curvature="0"
         style="fill:#3793d1"
         d="m 907.993,604.523 c -1.408,0.795 -2.596,1.736 -3.592,2.828 -0.43,0.461 -0.822,0.961 -1.163,1.496 -0.898,1.352 -1.569,2.893 -1.981,4.639 -0.873,3.662 -0.448,7.203 1.251,10.65 0.174,0.354 0.361,0.686 0.582,1.031 0.308,0.527 0.658,1.033 1.022,1.523 0.022,0.041 0.055,0.066 0.077,0.109 0.44,0.584 0.932,1.127 1.454,1.668 8.21,-9.414 16.552,-11.777 25.017,-7.1 0.502,-3.518 -0.188,-6.908 -2.087,-10.176 -0.598,-1.025 -1.31,-2.023 -2.14,-2.969 -1.044,-1.189 -2.137,-2.17 -3.3,-2.945 -0.783,-0.455 -1.589,-0.859 -2.428,-1.201 -0.436,-0.176 -0.885,-0.334 -1.33,-0.475 -1.548,-0.521 -3.046,-0.789 -4.502,-0.807 -0.017,-0.012 -0.03,-0.01 -0.045,-0.008 -2.384,-0.038 -4.659,0.54 -6.835,1.737"
         id="path403" />
      <path
         inkscape:connector-curvature="0"
         style="fill:#e27c9f"
         d="m 930.149,623.658 c 0.091,-0.301 0.165,-0.6 0.24,-0.9 0.096,-0.455 0.194,-0.895 0.263,-1.344 -0.002,-0.016 -0.006,-0.029 0.008,-0.045 -8.465,-4.678 -16.807,-2.316 -25.017,7.1 0.018,0.014 0.053,0.039 0.072,0.066 0.017,0.012 0.018,0.025 0.036,0.039 0.048,0.021 0.082,0.062 0.136,0.1 l 1.241,1.08 c 1.538,1.234 3.305,2.172 5.325,2.799 4.002,1.307 7.767,0.982 11.272,-0.951 3.229,-1.756 5.379,-4.405 6.424,-7.944"
         id="path405" />
      <path
         inkscape:connector-curvature="0"
         style="fill:none;stroke:#e27c9f;stroke-width:1.51499999"
         d="m 930.149,623.658 c 0.091,-0.301 0.165,-0.6 0.24,-0.9 0.096,-0.455 0.194,-0.895 0.263,-1.344 -0.002,-0.016 -0.006,-0.029 0.008,-0.045 -8.465,-4.678 -16.807,-2.316 -25.017,7.1 0.018,0.014 0.053,0.039 0.072,0.066 0.017,0.012 0.018,0.025 0.036,0.039 0.048,0.021 0.082,0.062 0.136,0.1 l 1.241,1.08 c 1.538,1.234 3.305,2.172 5.325,2.799 4.002,1.307 7.767,0.982 11.272,-0.951 3.229,-1.756 5.379,-4.405 6.424,-7.944 z"
         id="path407" />
      <path
         inkscape:connector-curvature="0"
         style="fill:#3793d1"
         d="m 948.563,597.326 c -2.937,-0.863 -5.647,-0.189 -8.13,1.996 -2.479,2.184 -4.007,5.238 -4.581,9.174 -0.39,2.682 -0.255,5.219 0.407,7.646 0.043,0.189 0.105,0.393 0.167,0.596 0.184,0.592 0.396,1.18 0.651,1.76 l 0.386,-0.451 c 1.947,-2.193 4.062,-3.414 6.339,-3.658 0.896,-0.094 1.813,-0.037 2.767,0.162 l 7.065,3.865 c 0.611,0.525 1.244,1.094 1.867,1.707 0.803,-1.576 1.357,-3.389 1.662,-5.436 0.557,-3.945 -0.009,-7.6 -1.679,-10.979 -1.676,-3.405 -3.988,-5.53 -6.921,-6.382"
         id="path409" />
      <path
         inkscape:connector-curvature="0"
         style="fill:#e27c9f"
         d="m 955.501,620.123 c -0.622,-0.613 -1.255,-1.182 -1.866,-1.707 l -7.065,-3.865 c -0.953,-0.199 -1.87,-0.256 -2.767,-0.162 -2.276,0.244 -4.392,1.465 -6.339,3.658 l -0.386,0.451 0.004,0.033 c 0.045,0.096 0.092,0.197 0.137,0.293 0.096,0.23 0.206,0.455 0.318,0.695 1.672,3.375 3.984,5.488 6.918,6.355 2.936,0.865 5.632,0.189 8.127,-2.012 1.186,-1.046 2.159,-2.288 2.919,-3.739"
         id="path411" />
      <path
         inkscape:connector-curvature="0"
         style="fill:none;stroke:#e27c9f;stroke-width:1.51499999"
         d="m 955.501,620.123 c -0.622,-0.613 -1.255,-1.182 -1.866,-1.707 l -7.065,-3.865 c -0.953,-0.199 -1.87,-0.256 -2.767,-0.162 -2.276,0.244 -4.392,1.465 -6.339,3.658 l -0.386,0.451 0.004,0.033 c 0.045,0.096 0.092,0.197 0.137,0.293 0.096,0.23 0.206,0.455 0.318,0.695 1.672,3.375 3.984,5.488 6.918,6.355 2.936,0.865 5.632,0.189 8.127,-2.012 1.186,-1.046 2.159,-2.288 2.919,-3.739 z"
         id="path413" />
      <path
         inkscape:connector-curvature="0"
         style="fill:#282525"
         d="m 949.31,608.828 c -0.122,0.307 -0.217,0.578 -0.315,0.82 -0.033,0.08 -0.083,0.15 -0.115,0.23 -0.261,0.568 -0.904,1.41 -1.952,2.559 -0.143,0.156 -0.302,0.318 -0.443,0.477 -3.755,-0.193 -6.962,1.498 -9.633,5.092 l 0.219,0.541 c 0.03,0.1 0.077,0.201 0.122,0.301 0.117,0.268 0.229,0.508 0.367,0.713 1.212,-2.064 3.057,-3.455 5.539,-4.156 0.218,-0.062 0.437,-0.113 0.659,-0.146 1.81,-0.34 3.585,-0.113 5.315,0.68 2.055,1.061 3.824,2.5 5.312,4.299 0.215,0.211 0.431,0.434 0.662,0.656 0.403,-0.531 0.651,-0.994 0.741,-1.373 -0.517,-0.902 -1.029,-1.566 -1.547,-1.986 0.812,-2.504 1.138,-4.309 0.965,-5.418 -0.057,-0.281 -0.403,-0.059 -1.034,0.658 -0.884,0.939 -1.398,1.441 -1.55,1.525 0.479,-2.482 0.479,-4.162 -0.017,-5.01 -0.161,-0.264 -0.546,0.188 -1.155,1.357 -0.244,0.48 -0.496,0.986 -0.763,1.527 -0.053,0.146 -0.123,0.293 -0.2,0.471 -0.007,-0.348 -0.024,-0.646 -0.049,-0.916 -0.049,-0.797 -0.107,-1.453 -0.18,-1.941 -0.005,-0.027 -0.009,-0.061 -0.01,-0.076 -0.088,-0.365 -0.199,-0.682 -0.344,-0.945 -0.014,0.004 -0.014,0.004 -0.018,-0.012 -0.214,-0.404 -0.409,-0.391 -0.568,0.041 0.002,0.015 0.002,0.015 -0.008,0.032"
         id="path415" />
      <path
         inkscape:connector-curvature="0"
         style="fill:#282525"
         d="m 930.396,622.605 c 0.351,-0.568 0.492,-1.227 0.42,-1.986 -1.421,-1.252 -3.663,-2.146 -6.734,-2.703 -0.637,-0.115 -1.21,-0.195 -1.717,-0.238 -2.072,-0.088 -4.223,0.305 -6.462,1.211 l -0.016,0.002 c -0.608,-0.133 -1.173,-0.332 -1.714,-0.615 -0.545,-0.293 -1.042,-0.67 -1.496,-1.16 -0.455,-0.488 -0.809,-0.904 -1.076,-1.273 -0.301,-0.377 -0.578,-0.32 -0.822,0.16 -0.175,0.342 -0.281,0.738 -0.348,1.186 -0.054,0.541 -0.043,1.205 0.018,1.998 0,0.287 0.034,0.6 0.074,0.959 -0.144,-0.146 -0.271,-0.277 -0.364,-0.396 -0.478,-0.443 -0.905,-0.863 -1.313,-1.254 -1.012,-0.965 -1.622,-1.279 -1.8,-0.965 -0.582,1.043 -0.35,2.736 0.69,5.074 -0.234,-0.041 -1.021,-0.355 -2.346,-0.971 -0.996,-0.484 -1.527,-0.582 -1.557,-0.291 -0.093,1.271 0.745,2.975 2.541,5.107 -0.447,0.324 -0.838,0.84 -1.181,1.559 0.345,0.568 0.806,0.996 1.38,1.287 2.553,-2.893 5.186,-5.162 7.885,-6.805 0.07,-0.041 0.125,-0.08 0.183,-0.104 l 0.015,-0.002 c 0.068,-0.043 0.124,-0.08 0.182,-0.104 2.221,-1.207 4.379,-1.844 6.445,-1.904 3.768,-0.113 6.805,0.629 9.113,2.228"
         id="path417" />
      <path
         inkscape:connector-curvature="0"
         style="fill:#da4d5d"
         d="m 941.191,629.715 c 1.005,-1.154 1.385,-2.426 1.17,-3.816 -0.217,-1.389 -0.955,-2.457 -2.261,-3.254 -1.249,-0.838 -2.719,-1.125 -4.347,-0.875 -1.566,0.242 -2.85,0.955 -3.849,2.139 -1.007,1.125 -1.392,2.367 -1.177,3.756 0.214,1.391 0.964,2.518 2.267,3.314 1.306,0.801 2.744,1.092 4.313,0.852 1.628,-0.255 2.941,-0.97 3.884,-2.116"
         id="path419" />
    </g>
  </g>
</svg>
