<?xml version="1.0" encoding="UTF-8" standalone="no"?>
<!-- Created with Inkscape (http://www.inkscape.org/) -->

<svg
   xmlns:dc="http://purl.org/dc/elements/1.1/"
   xmlns:cc="http://creativecommons.org/ns#"
   xmlns:rdf="http://www.w3.org/1999/02/22-rdf-syntax-ns#"
   xmlns:svg="http://www.w3.org/2000/svg"
   xmlns="http://www.w3.org/2000/svg"
   xmlns:sodipodi="http://sodipodi.sourceforge.net/DTD/sodipodi-0.dtd"
   xmlns:inkscape="http://www.inkscape.org/namespaces/inkscape"
   width="252"
   height="185"
   id="svg5696"
   version="1.1"
   inkscape:version="0.48.4 r9939"
   sodipodi:docname="abby2.svg">
  <defs
     id="defs5698" />
  <sodipodi:namedview
     id="base"
     pagecolor="#ffffff"
     bordercolor="#666666"
     borderopacity="1.0"
     inkscape:pageopacity="0.0"
     inkscape:pageshadow="2"
     inkscape:zoom="0.77472527"
     inkscape:cx="10.858154"
     inkscape:cy="240"
     inkscape:current-layer="layer1"
     inkscape:document-units="px"
     showgrid="false"
     inkscape:window-width="942"
     inkscape:window-height="591"
     inkscape:window-x="512"
     inkscape:window-y="33"
     inkscape:window-maximized="0" />
  <metadata
     id="metadata5701">
    <rdf:RDF>
      <cc:Work
         rdf:about="">
        <dc:format>image/svg+xml</dc:format>
        <dc:type
           rdf:resource="http://purl.org/dc/dcmitype/StillImage" />
        <dc:title></dc:title>
      </cc:Work>
    </rdf:RDF>
  </metadata>
  <g
     id="layer1"
     inkscape:label="Layer 1"
     inkscape:groupmode="layer"
     transform="translate(0,-295)">
    <g
       transform="translate(-573.07358,244.06106)"
       id="g2065">
      <path
         inkscape:connector-curvature="0"
         style="fill:#e27c9f"
         d="m 672.224,147.099 0.026,-0.011 c 7.67,-4.019 13.934,-4.218 18.797,-0.581 l 0.004,0.014 0.03,0.004 c 0.894,0.712 1.686,1.548 2.397,2.482 l 0.004,0.015 c 0.86,1.147 1.471,2.466 1.834,3.968 l 0.003,0.016 c 0.563,2.279 0.496,4.643 -0.217,7.086 -0.707,2.473 -1.784,4.711 -3.241,6.736 -1.146,1.601 -2.352,3 -3.619,4.183 -1.258,1.162 -2.843,2.282 -4.761,3.332 l -0.014,0.005 c -0.864,0.462 -1.77,0.874 -2.727,1.244 4.449,2.156 6.929,5.267 7.434,9.358 0.557,3.873 0.148,6.722 -1.191,8.551 -1.29,2.002 -3.518,2.891 -6.696,2.684 l 0.017,0.011 c -7.393,-0.464 -13.408,-3.308 -18.051,-8.547 l -0.007,-0.029 -0.017,-0.01 c -4.602,-5.71 -6.196,-12.831 -4.767,-21.353 l 0.02,-0.105 c 1.867,-7.911 6.769,-14.257 14.702,-19.036 l 0.04,-0.017 z m 0.784,2.235 c -7.206,4.344 -11.681,10.072 -13.418,17.213 -1.263,7.641 0.157,14.04 4.271,19.176 4.325,4.853 9.923,7.5 16.804,7.935 2.198,0.147 3.756,-0.378 4.671,-1.591 0.862,-1.385 1.095,-3.528 0.692,-6.443 -0.646,-4.143 -4.565,-7.56 -11.743,-10.24 3.968,-1.31 6.784,-2.413 8.461,-3.313 1.713,-0.931 3.138,-1.935 4.262,-2.976 l -0.013,0.005 c 1.136,-1.061 2.216,-2.31 3.253,-3.753 l 0.013,-0.006 -0.003,-0.014 c 1.244,-1.741 2.177,-3.659 2.788,-5.782 l -0.004,-0.015 c 0.556,-1.922 0.619,-3.783 0.174,-5.592 -0.293,-1.191 -0.771,-2.24 -1.447,-3.141 -0.597,-0.803 -1.271,-1.495 -2.025,-2.102 -0.018,-0.009 -0.02,-0.025 -0.037,-0.034 -4.326,-3.099 -9.892,-2.87 -16.699,0.673"
         id="path2067" />
      <path
         inkscape:connector-curvature="0"
         style="fill:#f8e6f0"
         d="m 659.59,166.547 c 1.737,-7.141 6.212,-12.869 13.418,-17.213 6.808,-3.543 12.373,-3.772 16.698,-0.673 0.018,0.01 0.02,0.025 0.037,0.034 0.755,0.607 1.429,1.299 2.025,2.102 0.677,0.901 1.154,1.95 1.447,3.142 0.445,1.808 0.382,3.67 -0.174,5.591 l 0.004,0.016 c -0.611,2.122 -1.544,4.04 -2.788,5.781 l 0.003,0.014 -0.013,0.006 c -1.037,1.443 -2.117,2.692 -3.253,3.753 l 0.013,-0.005 c -1.124,1.041 -2.549,2.045 -4.262,2.976 -1.677,0.9 -4.493,2.003 -8.461,3.313 7.178,2.681 11.098,6.097 11.744,10.24 0.401,2.915 0.169,5.058 -0.693,6.443 -0.915,1.213 -2.473,1.738 -4.671,1.591 -6.881,-0.435 -12.479,-3.082 -16.804,-7.935 -4.113,-5.136 -5.533,-11.535 -4.27,-19.176"
         id="path2069" />
      <path
         inkscape:connector-curvature="0"
         style="fill:#e27c9f"
         d="m 622.476,161.352 -0.03,0.007 c -8.965,1.225 -14.959,4.892 -17.979,11.013 l 0.004,0.015 -0.025,0.022 c -0.537,1.162 -0.924,2.369 -1.193,3.613 l 0.003,0.015 c -0.316,1.519 -0.324,3.032 -0.019,4.553 l 0.004,0.015 c 0.452,2.313 1.534,4.317 3.261,5.99 1.732,1.703 3.715,2.976 5.96,3.833 1.772,0.682 3.512,1.153 5.217,1.398 1.688,0.233 3.666,0.23 5.927,-0.038 l 0.015,-0.003 c 1.014,-0.132 2.046,-0.329 3.107,-0.596 -3.265,4.588 -4.264,8.797 -2.975,12.639 1.145,3.686 2.759,5.9 4.811,6.659 2.079,0.941 4.563,0.343 7.472,-1.783 l -0.012,0.019 c 6.772,-4.93 11.221,-11.072 13.339,-18.443 l -0.006,-0.03 0.012,-0.018 c 1.877,-7.753 0.312,-14.883 -4.711,-21.37 l -0.064,-0.079 c -5.172,-5.692 -12.529,-8.172 -22.072,-7.44 l -0.046,0.009 z m 0.222,2.411 c 8.67,-0.661 15.359,1.547 20.075,6.653 4.487,5.827 5.905,12.226 4.241,19.185 -1.986,6.843 -6.124,12.558 -12.426,17.15 -2.011,1.474 -3.706,1.975 -5.092,1.488 -1.41,-0.669 -2.553,-2.378 -3.432,-5.143 -1.177,-3.976 1.046,-9.329 6.661,-16.042 -4.308,1.299 -7.438,2.071 -9.408,2.321 -2.018,0.245 -3.793,0.249 -5.304,0.04 l 0.016,-0.004 c -1.529,-0.221 -3.087,-0.64 -4.686,-1.25 l -0.016,0.003 -0.003,-0.015 c -1.925,-0.741 -3.63,-1.826 -5.123,-3.287 l -0.002,-0.015 c -1.353,-1.32 -2.215,-2.889 -2.576,-4.726 -0.237,-1.209 -0.237,-2.407 0.013,-3.6 0.216,-1.061 0.554,-2.07 1.003,-3.058 0.012,-0.018 0.01,-0.033 0.019,-0.051 2.745,-5.328 8.093,-8.54 16.04,-9.649"
         id="path2071" />
      <path
         inkscape:connector-curvature="0"
         style="fill:#f8e6f0"
         d="m 642.773,170.417 c -4.716,-5.106 -11.405,-7.314 -20.075,-6.653 -7.946,1.109 -13.295,4.32 -16.039,9.649 -0.009,0.018 -0.007,0.033 -0.019,0.051 -0.449,0.988 -0.787,1.997 -1.003,3.058 -0.25,1.193 -0.25,2.391 -0.013,3.601 0.361,1.836 1.224,3.404 2.576,4.725 l 0.002,0.015 c 1.493,1.46 3.198,2.545 5.123,3.287 l 0.003,0.015 0.015,-0.003 c 1.6,0.61 3.158,1.028 4.687,1.25 l -0.016,0.004 c 1.511,0.209 3.286,0.205 5.304,-0.04 1.97,-0.251 5.102,-1.022 9.408,-2.321 -5.615,6.713 -7.838,12.066 -6.661,16.042 0.879,2.765 2.021,4.474 3.432,5.143 1.386,0.487 3.081,-0.014 5.092,-1.488 6.302,-4.592 10.439,-10.308 12.426,-17.15 1.664,-6.959 0.245,-13.358 -4.242,-19.185"
         id="path2073" />
      <path
         inkscape:connector-curvature="0"
         style="fill:#e27c9f"
         d="m 664.927,195.639 6.565,-4.675 c 6.146,5.436 11.772,11.809 16.868,19.127 1.837,-1.728 3.794,-3.118 5.87,-4.168 2.125,-1.064 4.166,-1.752 6.133,-2.032 1.926,-0.256 3.506,-0.079 4.75,0.543 1.313,0.684 2.082,1.748 2.277,3.207 0.396,3.114 -1.426,6.269 -5.474,9.455 -4.036,3.178 -8.521,5.541 -13.464,7.078 -1.072,-0.747 -3.639,-4.097 -7.701,-10.048 -4.007,-5.862 -9.273,-12.029 -15.824,-18.487"
         id="path2075" />
      <path
         inkscape:connector-curvature="0"
         style="fill:none;stroke:#c4084a;stroke-width:2.454;stroke-linecap:round;stroke-linejoin:round;stroke-miterlimit:10"
         d="m 671.492,190.964 -6.565,4.674 c 6.551,6.459 11.817,12.626 15.825,18.488 4.062,5.952 6.629,9.301 7.701,10.048 4.943,-1.537 9.428,-3.9 13.464,-7.078 4.048,-3.186 5.869,-6.341 5.474,-9.454"
         id="path2077" />
      <path
         inkscape:connector-curvature="0"
         style="fill:none;stroke:#c4084a;stroke-width:2.454;stroke-linecap:round;stroke-miterlimit:10"
         d="m 707.391,207.642 c -0.195,-1.459 -0.964,-2.523 -2.277,-3.208 -1.244,-0.622 -2.824,-0.799 -4.751,-0.542 -1.966,0.28 -4.007,0.967 -6.132,2.031 -2.076,1.051 -4.034,2.44 -5.87,4.168 -5.096,-7.318 -10.722,-13.691 -16.868,-19.127"
         id="path2079" />
      <path
         inkscape:connector-curvature="0"
         style="fill:none;stroke:#c4084a;stroke-width:2.43000007;stroke-linecap:round;stroke-miterlimit:10"
         d="m 696.001,208.441 c -0.742,-1.359 -1.813,-2.138 -3.199,-2.326 -1.308,-0.136 -2.752,0.281 -4.297,1.259 -1.587,1.023 -3.064,2.516 -4.437,4.455 -1.382,1.928 -2.405,4.146 -3.082,6.662"
         id="path2081" />
      <path
         inkscape:connector-curvature="0"
         style="fill:none;stroke:#c4084a;stroke-width:2.43000007;stroke-linecap:round;stroke-linejoin:round;stroke-miterlimit:10"
         d="m 685.873,232.05 c 3.764,-3.452 6.766,-7.502 9.018,-12.159 2.271,-4.699 2.639,-8.527 1.11,-11.449 m -33.892,-5.851 -5.114,6.251 c 7.302,5.34 13.43,10.195 18.405,14.564 4.975,4.369 8.459,7.244 10.483,8.634"
         id="path2083" />
      <path
         inkscape:connector-curvature="0"
         style="fill:none;stroke:#c4084a;stroke-width:2.43000007;stroke-linecap:round;stroke-miterlimit:10"
         d="m 682.507,217.428 c -6.911,-5.472 -13.711,-10.432 -20.397,-14.837"
         id="path2085" />
      <path
         inkscape:connector-curvature="0"
         style="fill:#e27c9f"
         d="m 656.995,208.842 5.114,-6.251 c 6.375,4.202 12.852,8.904 19.447,14.086 0.637,-1.774 1.484,-3.394 2.512,-4.848 1.372,-1.939 2.85,-3.432 4.437,-4.455 1.545,-0.978 2.989,-1.395 4.297,-1.259 1.387,0.188 2.457,0.967 3.199,2.326 1.528,2.923 1.161,6.75 -1.11,11.45 -2.252,4.657 -5.254,8.707 -9.007,12.148 -2.024,-1.389 -5.508,-4.264 -10.483,-8.634 -4.976,-4.368 -11.103,-9.223 -18.406,-14.563"
         id="path2087" />
      <path
         inkscape:connector-curvature="0"
         style="fill:none;stroke:#c4084a;stroke-width:2.43000007;stroke-linecap:round;stroke-linejoin:round;stroke-miterlimit:10"
         d="m 662.109,202.591 -5.114,6.251 c 7.302,5.34 13.43,10.195 18.405,14.564 4.975,4.369 8.459,7.244 10.483,8.634 3.753,-3.442 6.755,-7.492 9.007,-12.149 2.271,-4.699 2.639,-8.527 1.11,-11.449"
         id="path2089" />
      <path
         inkscape:connector-curvature="0"
         style="fill:none;stroke:#c4084a;stroke-width:2.43000007;stroke-linecap:round;stroke-miterlimit:10"
         d="m 696.001,208.441 c -0.742,-1.359 -1.813,-2.138 -3.199,-2.326 -1.308,-0.136 -2.752,0.281 -4.297,1.259 -1.587,1.023 -3.064,2.516 -4.437,4.455 -1.027,1.454 -1.875,3.074 -2.512,4.848 -6.596,-5.182 -13.072,-9.884 -19.447,-14.087"
         id="path2091" />
      <path
         inkscape:connector-curvature="0"
         style="fill:#c4084a"
         d="m 687.257,160.762 c -1.424,-0.695 -2.313,-1.912 -2.675,-3.683 -0.513,-2.475 0.177,-4.525 2.06,-6.183 0.058,-0.049 0.104,-0.088 0.161,-0.114 1.433,-0.89 2.98,-1.187 4.648,-0.89 l -0.022,-0.002 c 0.563,0.084 1.062,0.282 1.496,0.614 1.146,-2.902 2.905,-5.542 5.288,-7.929 0.002,-0.022 0.013,-0.031 0.013,-0.031 1.73,-1.651 3.34,-2.47 4.86,-2.468 1.618,-0.096 3.1,0.669 4.454,2.329 l 0.039,0.046 c 1.502,1.933 1.279,3.951 -0.655,6.046 3.589,-0.289 6.429,0.712 8.521,3.023 l -0.031,-0.014 c 1.341,1.335 1.894,2.693 1.655,4.094 -0.134,1.293 -1.011,2.592 -2.609,3.876 -0.059,0.049 -0.117,0.098 -0.186,0.135 -1.635,0.86 -3.211,0.864 -4.724,-0.013 1.232,1.799 1.684,3.773 1.373,5.924 -0.276,2.142 -1.243,3.594 -2.882,4.379 -0.022,-0.002 -0.032,0.008 -0.045,0.017 -1.171,0.516 -2.353,0.686 -3.577,0.517 -0.267,-0.036 -0.519,-0.103 -0.779,-0.203 -0.697,-0.271 -1.25,-0.699 -1.668,-1.3 l 0.019,0.023 c -0.161,-0.22 -0.304,-0.439 -0.402,-0.653 -0.101,-0.193 -0.19,-0.395 -0.29,-0.588 0.002,-0.022 -0.008,-0.033 -0.018,-0.045 -0.098,-0.214 -0.185,-0.438 -0.24,-0.649 -0.34,0.163 -0.687,0.292 -1.042,0.409 -0.354,0.097 -0.729,0.17 -1.11,0.209 -8.797,8.884 -17.742,13.018 -26.847,12.432 -0.15,-0.014 -0.309,-0.061 -0.454,-0.118 -2.48,-1.161 -3.844,-2.832 -4.069,-5.033 -0.248,-1.61 -0.086,-3.105 0.496,-4.474 l -0.059,-1.333 3.438,0.388 c 6.722,0.923 12.757,-1.531 18.128,-7.36 -0.087,-0.224 -0.842,-0.684 -2.265,-1.378 m -17.325,13.855 c 0.204,1.271 1.035,2.299 2.498,3.041 7.95,0.358 15.79,-3.156 23.509,-10.535 l 0.308,-0.295 c -0.429,-0.255 -0.724,-0.564 -0.874,-0.912 0.797,0.129 1.606,0.13 2.441,-0.029 0.032,-0.008 0.066,-0.016 0.087,-0.014 0.034,-0.007 0.075,-0.004 0.109,-0.011 0.045,-0.018 0.087,-0.014 0.142,-0.019 1.948,-0.291 3.328,-1.08 4.171,-2.349 0.693,-1.068 1.072,-1.776 1.129,-2.138 l 0.056,-0.027 c 0.403,1.225 0.185,2.391 -0.641,3.489 l -0.013,0.01 c -0.224,0.659 -0.099,1.404 0.361,2.247 0.323,0.461 0.896,0.795 1.721,0.98 0.696,0.055 1.375,-0.054 2.028,-0.337 0.886,-0.478 1.413,-1.151 1.574,-2.054 0.11,-0.605 0.178,-1.094 0.169,-1.463 0.065,-3.111 -1.044,-5.308 -3.322,-6.559 l -0.846,-0.522 c 1.605,-0.324 2.955,-0.218 4.091,0.32 1.657,0.857 3.124,0.865 4.432,0.038 0.924,-0.764 1.457,-1.502 1.59,-2.223 0.053,-0.675 -0.272,-1.353 -0.953,-2.032 -0.009,-0.012 -0.02,-0.023 -0.028,-0.035 -2.127,-2.164 -5.117,-2.844 -8.983,-2.009 -1.858,0.375 -3.145,0.988 -3.851,1.828 -0.021,-1.858 1.129,-3.638 3.45,-5.362 0.081,-0.068 0.175,-0.146 0.257,-0.213 1.402,-1.261 1.762,-2.446 1.066,-3.547 -0.767,-0.903 -1.587,-1.369 -2.448,-1.385 -0.99,0.091 -2.072,0.69 -3.256,1.809 l 0.023,-0.019 c -0.012,0.009 -0.012,0.009 -0.023,0.019 -2.382,2.388 -4.113,5.084 -5.217,8.088 0.078,0.094 0.26,0.456 0.534,1.096 0.296,0.643 0.919,1.133 1.856,1.481 -0.854,0.254 -1.633,0.267 -2.312,0.041 -0.681,-0.226 -1.251,-0.581 -1.733,-1.069 -0.471,-0.497 -0.857,-0.869 -1.134,-1.131 -0.278,-0.264 -0.67,-0.452 -1.158,-0.541 -0.182,-0.028 -0.375,-0.046 -0.567,-0.063 -0.702,0.01 -1.367,0.206 -1.996,0.59 -1.038,0.938 -1.47,2.084 -1.272,3.44 0.18,1.291 0.914,2.32 2.182,3.064 0.273,0.188 0.601,0.391 0.959,0.587 1.121,0.591 1.979,1.222 2.566,1.86 0.161,0.123 -0.132,0.602 -0.899,1.415 -6.19,6.863 -13.192,9.723 -21.025,8.576 -0.57,0.766 -0.824,1.725 -0.758,2.874"
         id="path2093" />
      <path
         inkscape:connector-curvature="0"
         style="fill:#e27c9f"
         d="m 672.43,177.658 c -1.463,-0.742 -2.294,-1.77 -2.498,-3.041 -0.064,-1.148 0.188,-2.107 0.756,-2.874 7.833,1.146 14.835,-1.714 21.025,-8.577 0.768,-0.813 1.061,-1.292 0.899,-1.415 -0.588,-0.638 -1.445,-1.269 -2.566,-1.859 -0.358,-0.196 -0.686,-0.4 -0.959,-0.587 -1.268,-0.745 -2.002,-1.774 -2.182,-3.064 -0.197,-1.356 0.234,-2.503 1.272,-3.441 0.629,-0.383 1.294,-0.58 1.996,-0.589 0.193,0.018 0.386,0.035 0.568,0.063 0.487,0.09 0.879,0.278 1.157,0.541 0.276,0.263 0.663,0.634 1.134,1.132 0.482,0.487 1.053,0.843 1.733,1.069 0.68,0.225 1.459,0.212 2.312,-0.042 -0.938,-0.347 -1.561,-0.837 -1.856,-1.48 -0.274,-0.641 -0.456,-1.003 -0.534,-1.096 1.104,-3.005 2.834,-5.701 5.217,-8.089 1.184,-1.118 2.266,-1.717 3.256,-1.809 0.861,0.017 1.682,0.482 2.448,1.386 0.695,1.1 0.336,2.286 -1.066,3.546 -0.082,0.068 -0.176,0.145 -0.258,0.213 -2.32,1.724 -3.47,3.504 -3.449,5.362 0.706,-0.84 1.992,-1.453 3.851,-1.828 3.866,-0.834 6.855,-0.155 8.983,2.009 0.009,0.012 0.02,0.023 0.028,0.035 0.681,0.679 1.006,1.357 0.953,2.032 -0.133,0.721 -0.666,1.459 -1.59,2.224 -1.308,0.827 -2.774,0.819 -4.432,-0.038 -1.138,-0.539 -2.485,-0.645 -4.091,-0.32 l 0.846,0.522 c 2.278,1.25 3.388,3.447 3.322,6.559 0.009,0.368 -0.059,0.858 -0.17,1.462 -0.16,0.902 -0.688,1.576 -1.573,2.055 -0.653,0.283 -1.332,0.391 -2.028,0.336 -0.825,-0.185 -1.397,-0.519 -1.721,-0.981 -0.46,-0.842 -0.585,-1.587 -0.361,-2.246 l 0.014,-0.01 c 0.824,-1.098 1.041,-2.264 0.64,-3.489 l -0.056,0.027 c -0.057,0.362 -0.436,1.07 -1.129,2.139 -0.843,1.268 -2.223,2.056 -4.171,2.349 -0.055,0.005 -0.097,0.001 -0.142,0.018 -0.034,0.007 -0.075,0.004 -0.11,0.011 -0.02,-0.002 -0.054,0.007 -0.086,0.014 -0.835,0.159 -1.645,0.158 -2.441,0.03 0.15,0.348 0.445,0.656 0.874,0.912 l -0.308,0.295 c -7.717,7.377 -15.557,10.893 -23.507,10.534"
         id="path2095" />
      <path
         inkscape:connector-curvature="0"
         style="fill:#3793d1"
         d="m 667.953,161.876 -2.978,-5.138 -22.8,7.873 0.479,6.363 -0.847,3.205 -0.044,0.076 c -0.752,3.385 -1.281,6.771 -1.608,10.145 -1.058,11.113 0.317,20.193 4.124,27.243 l 0.912,1.809 1.899,-0.489 c 1.271,-0.281 2.494,-0.938 3.671,-1.954 0.294,0.589 0.63,1.152 0.977,1.694 l 1.109,1.833 1.892,-0.755 c 0.989,-0.337 1.916,-0.911 2.781,-1.723 0.854,1.1 1.766,2.106 2.706,2.986 l 1.668,1.675 1.611,-1.597 c 1.174,-1.082 2.118,-2.633 2.814,-4.647 0.67,0.571 1.354,1.073 2.04,1.524 l 2,1.367 1.266,-1.957 c 0.229,-0.336 0.439,-0.684 0.645,-1.048 0.93,0.649 1.881,1.209 2.843,1.682 l 2.1,1.144 1.028,-2.139 c 0.83,-1.676 1.301,-3.825 1.406,-6.413 0.198,0.091 0.39,0.165 0.599,0.237 l 2.133,0.9 0.854,-2.2 c 0.186,-0.444 0.348,-0.915 0.486,-1.416 1.554,0.679 3.094,1.124 4.615,1.323 l 2.189,0.387 0.402,-2.236 c 0.678,-3.3 0.156,-7.509 -1.567,-12.625 -3.245,-9.587 -10.384,-18.629 -21.405,-27.129 m -3.963,-2.104 2.361,4.102 0.058,-0.147 c 10.646,8.164 17.53,16.827 20.666,25.986 1.548,4.568 2.035,8.332 1.468,11.273 -2.221,-0.328 -4.481,-1.235 -6.78,-2.72 -0.07,1.625 -0.335,3.042 -0.802,4.234 -1.324,-0.527 -2.617,-1.246 -3.882,-2.156 0.376,4.074 0.036,7.217 -1.03,9.448 -1.73,-0.874 -3.389,-2.081 -4.991,-3.62 -0.326,1.48 -0.829,2.715 -1.473,3.712 -1.614,-1.099 -3.164,-2.499 -4.634,-4.201 -0.558,3.526 -1.615,6.04 -3.171,7.542 -1.536,-1.47 -2.94,-3.22 -4.215,-5.266 -1.145,1.745 -2.428,2.901 -3.817,3.461 -0.951,-1.532 -1.772,-3.176 -2.486,-4.946 -1.494,2.225 -3.122,3.575 -4.901,4.037 -3.542,-6.638 -4.801,-15.209 -3.789,-25.707 0.307,-3.27 0.836,-6.538 1.564,-9.834 l 0.934,-3.593 -0.365,-4.947 19.285,-6.658 z"
         id="path2097" />
      <path
         inkscape:connector-curvature="0"
         style="fill:#86c1ea"
         d="m 666.352,163.874 -2.361,-4.102 -19.285,6.658 0.364,4.947 -0.935,3.593 c -0.728,3.296 -1.257,6.563 -1.563,9.834 -1.012,10.498 0.247,19.069 3.789,25.707 1.779,-0.462 3.407,-1.812 4.901,-4.036 0.456,-0.688 0.894,-1.44 1.311,-2.269 0.544,-1.076 1.02,-2.238 1.441,-3.471 1.04,2.719 2.232,5.12 3.552,7.223 1.274,2.047 2.679,3.797 4.215,5.267 1.556,-1.502 2.613,-4.016 3.171,-7.542 0.104,-0.576 0.181,-1.196 0.243,-1.864 0.167,-1.494 0.237,-3.052 0.204,-4.705 1.812,2.834 3.705,5.196 5.659,7.058 1.603,1.539 3.261,2.745 4.991,3.619 1.066,-2.23 1.407,-5.374 1.031,-9.447 -0.057,-0.457 -0.116,-0.929 -0.176,-1.402 -0.237,-1.891 -0.645,-3.829 -1.218,-5.797 2.058,2.142 4.08,3.838 6.075,5.121 2.3,1.485 4.561,2.392 6.781,2.72 0.567,-2.941 0.08,-6.705 -1.468,-11.273 -3.136,-9.159 -10.02,-17.822 -20.666,-25.986 l -0.056,0.147 z"
         id="path2099" />
      <path
         inkscape:connector-curvature="0"
         style="fill:#bc9fca"
         d="m 675.687,193.146 c 0.573,1.967 0.979,3.905 1.218,5.797 0.06,0.472 0.119,0.945 0.175,1.402 1.264,0.909 2.558,1.628 3.882,2.155 0.466,-1.192 0.731,-2.609 0.802,-4.233 -1.997,-1.285 -4.019,-2.98 -6.077,-5.121"
         id="path2101" />
      <path
         inkscape:connector-curvature="0"
         style="fill:#bc9fca"
         d="m 669.585,209.884 c 0.644,-0.997 1.146,-2.232 1.473,-3.712 -1.954,-1.862 -3.848,-4.225 -5.659,-7.058 0.033,1.652 -0.037,3.21 -0.204,4.705 -0.062,0.668 -0.14,1.288 -0.243,1.864 1.469,1.702 3.019,3.101 4.633,4.201"
         id="path2103" />
      <path
         inkscape:connector-curvature="0"
         style="fill:#bc9fca"
         d="m 651.262,206.475 c 0.714,1.769 1.535,3.414 2.486,4.945 1.39,-0.56 2.673,-1.716 3.817,-3.461 -1.32,-2.104 -2.512,-4.505 -3.552,-7.224 -0.422,1.233 -0.898,2.395 -1.441,3.471 -0.417,0.83 -0.854,1.581 -1.31,2.269"
         id="path2105" />
      <path
         inkscape:connector-curvature="0"
         style="fill:#84539c"
         d="m 651.617,78.257 c -1.248,-3.088 -3.213,-5.715 -5.897,-7.882 -6.524,-5.232 -15.659,-6.826 -27.405,-4.78 l -4.775,0.772 c -1.828,0.273 -3.201,0.45 -4.102,0.536 -1.013,0.131 -2.188,0.211 -3.526,0.24 -1.062,0.033 -2.102,0.008 -3.13,-0.107 -0.941,-0.075 -1.871,-0.238 -2.808,-0.466 -0.906,-0.238 -1.773,-0.532 -2.632,-0.887 -0.828,-0.366 -1.691,-0.814 -2.575,-1.34 -0.784,-0.468 -1.672,-1.072 -2.649,-1.825 -0.896,-0.681 -1.853,-1.463 -2.891,-2.346 -1.075,-0.95 -2.131,-1.928 -3.154,-2.933 l -1.328,-1.242 c -0.605,-0.66 -0.99,-1.015 -1.135,-1.08 -0.158,-0.081 -0.355,-0.107 -0.574,-0.073 -0.076,0.005 -0.273,0.226 -0.572,0.648 -0.262,0.365 -0.469,0.676 -0.643,0.945 -0.326,0.525 -0.782,1.326 -1.346,2.374 -0.551,1.08 -1.051,2.12 -1.484,3.123 -0.451,1.001 -0.947,2.256 -1.491,3.751 -0.519,1.421 -0.959,2.837 -1.343,4.276 -0.398,1.452 -0.732,2.989 -1.002,4.626 -0.289,1.543 -0.482,3.174 -0.559,4.866 -0.104,1.658 -0.084,3.301 0.043,4.943 0.145,1.644 0.439,3.292 0.859,4.94 0.462,1.669 1.061,3.233 1.79,4.721 0.823,1.608 1.785,3.079 2.905,4.403 1.236,1.491 2.631,2.818 4.184,3.984 1.551,1.194 3.402,2.303 5.557,3.33 0.908,0.452 2,0.914 3.243,1.379 1.595,0.601 2.432,1.138 2.509,1.607 0.129,0.676 -0.631,1.33 -2.256,1.936 -2.174,0.828 -3.406,1.345 -3.664,1.573 -1.941,1.516 -1.012,3 2.779,4.418 2.973,1.099 6.691,1.758 11.175,1.96 6.609,0.23 13.218,-0.968 19.823,-3.592 11.712,-4.657 20.797,-12.301 27.26,-22.948 0.248,-0.383 0.482,-0.781 0.72,-1.196 0.077,-0.113 0.165,-0.209 0.254,-0.305 0.528,-1.266 0.866,-2.466 1.011,-3.598 0.375,-2.957 -0.019,-5.875 -1.171,-8.751"
         id="path2107" />
      <path
         inkscape:connector-curvature="0"
         style="fill:none;stroke:#652182;stroke-width:2.43400002;stroke-linecap:round;stroke-linejoin:round;stroke-miterlimit:10"
         d="m 645.72,70.375 c -6.524,-5.231 -15.659,-6.826 -27.405,-4.779 l -4.775,0.772 c -1.828,0.273 -3.201,0.449 -4.102,0.535 -1.013,0.131 -2.188,0.212 -3.526,0.241 -1.062,0.033 -2.102,0.007 -3.13,-0.108 -0.941,-0.075 -1.871,-0.238 -2.808,-0.465 -0.906,-0.238 -1.774,-0.533 -2.632,-0.887 -0.828,-0.367 -1.691,-0.814 -2.575,-1.34 -0.784,-0.469 -1.672,-1.073 -2.649,-1.826 -0.896,-0.681 -1.853,-1.462 -2.891,-2.346 -1.074,-0.949 -2.131,-1.928 -3.154,-2.932 l -1.328,-1.243 c -0.605,-0.66 -0.99,-1.015 -1.135,-1.08 -0.158,-0.081 -0.355,-0.106 -0.574,-0.073 -0.076,0.006 -0.273,0.226 -0.572,0.648 -0.262,0.365 -0.469,0.676 -0.643,0.945 -0.326,0.525 -0.783,1.327 -1.345,2.375 -0.552,1.079 -1.052,2.12 -1.485,3.123 -0.451,1 -0.947,2.255 -1.49,3.75 -0.52,1.421 -0.961,2.837 -1.344,4.276 -0.399,1.452 -0.732,2.989 -1.002,4.626 -0.289,1.543 -0.481,3.174 -0.56,4.867 -0.104,1.657 -0.083,3.3 0.044,4.942 0.145,1.645 0.439,3.292 0.859,4.94 0.463,1.669 1.06,3.233 1.791,4.722 0.822,1.607 1.785,3.079 2.904,4.402 1.235,1.492 2.631,2.819 4.184,3.984 1.551,1.194 3.402,2.304 5.557,3.33 0.908,0.453 2,0.914 3.243,1.379 1.595,0.601 2.432,1.138 2.509,1.608 0.129,0.676 -0.63,1.33 -2.255,1.936 -2.175,0.827 -3.407,1.345 -3.665,1.572 -1.941,1.517 -1.012,3 2.779,4.418 2.973,1.1 6.691,1.758 11.175,1.96 6.609,0.23 13.218,-0.968 19.823,-3.592 11.712,-4.657 20.797,-12.301 27.26,-22.948 0.248,-0.382 0.482,-0.781 0.72,-1.196 0.077,-0.113 0.165,-0.208 0.254,-0.305 0.528,-1.266 0.866,-2.466 1.011,-3.597 0.376,-2.958 -0.019,-5.875 -1.17,-8.752 -1.249,-3.089 -3.214,-5.715 -5.898,-7.882 z"
         id="path2109" />
      <path
         inkscape:connector-curvature="0"
         style="fill:#fcdf00"
         d="m 627.355,88.153 c -1.885,-0.255 -3.736,0.306 -5.554,1.7 -1.852,1.421 -2.979,3.163 -3.349,5.217 -0.41,2.371 0.364,4.601 2.29,6.701 -1.101,0.09 -2.285,0.721 -3.558,1.924 -1.34,1.255 -2.225,2.661 -2.649,4.187 -0.52,1.911 -0.239,3.557 0.861,4.923 1.101,1.352 3.138,2.44 6.134,3.236 l 0.017,0.001 c 0.635,0.188 1.526,0.288 2.709,0.27 1.184,-0.018 2.6,-0.421 4.278,-1.204 1.682,-0.798 3.22,-1.676 4.633,-2.646 1.884,-1.078 3.661,-2.4 5.318,-3.968 4.341,-4.093 6.888,-9.043 7.61,-14.84 0.13,-1.011 0.047,-1.803 -0.26,-2.409 -0.188,-2.002 -0.925,-3.446 -2.18,-4.311 -1.266,-0.898 -2.922,-1.139 -4.981,-0.742 -1.842,0.363 -3.485,1.12 -4.936,2.269 -1.484,1.175 -2.199,2.342 -2.148,3.498 -0.764,-2.29 -2.182,-3.559 -4.235,-3.806"
         id="path2111" />
      <path
         inkscape:connector-curvature="0"
         style="fill:#84539c"
         d="m 701.752,74.799 3.784,1.832 c 1.447,0.676 2.535,1.166 3.264,1.459 0.814,0.349 1.767,0.7 2.873,1.04 0.87,0.28 1.733,0.482 2.621,0.61 0.794,0.148 1.598,0.219 2.427,0.217 0.814,-0.018 1.606,-0.102 2.393,-0.246 0.77,-0.148 1.58,-0.367 2.446,-0.67 0.771,-0.27 1.646,-0.649 2.614,-1.139 0.899,-0.438 1.87,-0.958 2.928,-1.56 1.111,-0.655 2.211,-1.343 3.299,-2.063 l 1.368,-0.868 c 0.661,-0.484 1.062,-0.739 1.202,-0.767 0.158,-0.041 0.325,-0.02 0.498,0.063 0.073,0.025 0.18,0.283 0.334,0.748 0.118,0.399 0.226,0.749 0.312,1.052 0.157,0.571 0.34,1.422 0.562,2.556 0.207,1.146 0.389,2.257 0.514,3.316 0.142,1.061 0.266,2.364 0.375,3.912 0.09,1.468 0.135,2.916 0.117,4.37 -0.003,1.471 -0.077,3.011 -0.235,4.632 -0.119,1.533 -0.34,3.131 -0.654,4.761 -0.312,1.601 -0.709,3.161 -1.196,4.694 -0.486,1.532 -1.107,3.032 -1.83,4.49 -0.771,1.481 -1.633,2.843 -2.574,4.087 -1.044,1.34 -2.191,2.512 -3.439,3.518 -1.354,1.132 -2.811,2.081 -4.36,2.819 -1.557,0.783 -3.354,1.413 -5.394,1.888 -0.854,0.214 -1.86,0.408 -3.001,0.569 -1.467,0.197 -2.289,0.521 -2.451,0.945 -0.264,0.626 0.204,1.406 1.417,2.358 1.629,1.296 2.512,2.069 2.678,2.335 1.262,1.894 0.158,3.086 -3.321,3.563 -3.604,0.477 -8.13,-0.1 -13.611,-1.734 -1.876,-0.561 -4.039,-1.634 -6.509,-3.191 -0.054,-0.176 -0.176,-0.299 -0.335,-0.38 -0.467,-0.305 -0.933,-0.624 -1.397,-0.945 -10.589,-7.283 -17.496,-17.456 -20.749,-30.552 -0.112,-0.428 -0.229,-0.856 -0.325,-1.299 -0.045,-0.128 -0.093,-0.241 -0.154,-0.357 -0.152,-1.323 -0.15,-2.549 -0.011,-3.65 0.369,-2.897 1.37,-5.577 3.004,-8.051 1.734,-2.648 3.973,-4.693 6.702,-6.139 6.602,-3.467 14.547,-2.884 23.814,1.777"
         id="path2113" />
      <path
         inkscape:connector-curvature="0"
         style="fill:none;stroke:#652182;stroke-width:2.43400002;stroke-linecap:round;stroke-linejoin:round;stroke-miterlimit:10"
         d="m 705.536,76.63 c 1.447,0.676 2.535,1.167 3.264,1.459 0.814,0.35 1.767,0.7 2.873,1.041 0.87,0.279 1.733,0.481 2.621,0.61 0.794,0.147 1.598,0.219 2.427,0.217 0.814,-0.018 1.606,-0.102 2.393,-0.247 0.77,-0.148 1.58,-0.367 2.446,-0.67 0.771,-0.269 1.646,-0.648 2.614,-1.139 0.899,-0.438 1.87,-0.958 2.928,-1.559 1.111,-0.656 2.211,-1.343 3.299,-2.064 l 1.368,-0.868 c 0.661,-0.484 1.062,-0.739 1.202,-0.767 0.158,-0.041 0.325,-0.02 0.498,0.063 0.073,0.026 0.179,0.284 0.334,0.748 0.118,0.399 0.226,0.75 0.312,1.052 0.156,0.572 0.34,1.423 0.562,2.557 0.207,1.145 0.388,2.256 0.514,3.316 0.142,1.06 0.266,2.364 0.375,3.911 0.09,1.468 0.135,2.916 0.117,4.37 -0.003,1.472 -0.076,3.011 -0.235,4.632 -0.119,1.533 -0.34,3.131 -0.654,4.762 -0.312,1.6 -0.709,3.16 -1.195,4.693 -0.487,1.533 -1.108,3.033 -1.831,4.49 -0.771,1.482 -1.633,2.843 -2.574,4.088 -1.045,1.339 -2.191,2.512 -3.439,3.518 -1.354,1.131 -2.811,2.08 -4.36,2.818 -1.557,0.783 -3.354,1.413 -5.394,1.889 -0.854,0.213 -1.859,0.407 -3.001,0.568 -1.467,0.197 -2.289,0.521 -2.451,0.946 -0.264,0.625 0.204,1.406 1.417,2.358 1.629,1.296 2.512,2.068 2.678,2.334 1.262,1.894 0.158,3.087 -3.321,3.563 -3.604,0.478 -8.13,-0.099 -13.611,-1.734 -1.876,-0.56 -4.039,-1.633 -6.509,-3.19 -0.054,-0.176 -0.176,-0.299 -0.335,-0.38 -0.467,-0.305 -0.933,-0.625 -1.397,-0.945 -10.589,-7.284 -17.495,-17.456 -20.749,-30.552 -0.113,-0.429 -0.229,-0.857 -0.325,-1.299 -0.045,-0.129 -0.093,-0.242 -0.154,-0.357 -0.152,-1.323 -0.15,-2.549 -0.011,-3.651 0.37,-2.896 1.37,-5.576 3.004,-8.051 1.734,-2.647 3.973,-4.693 6.702,-6.139 6.605,-3.466 14.551,-2.883 23.817,1.777 l 3.781,1.832 z"
         id="path2115" />
      <path
         inkscape:connector-curvature="0"
         style="fill:#fcdf00"
         d="m 695.202,93.469 c 1.891,-0.035 3.646,0.741 5.298,2.348 1.68,1.624 2.592,3.487 2.725,5.575 0.124,2.393 -0.898,4.517 -3.065,6.372 1.076,0.214 2.188,1 3.32,2.34 1.187,1.393 1.901,2.88 2.13,4.457 0.589,3.925 -1.917,6.381 -7.529,7.353 0.002,-0.015 -0.012,-0.032 -0.027,-0.034 -0.198,-0.01 -0.438,-0.04 -0.693,-0.089 -0.256,-0.047 -0.524,-0.097 -0.789,-0.177 -1.938,0.168 -3.88,-0.371 -5.839,-1.602 -1.479,-0.909 -2.866,-1.93 -4.165,-3.061 -1.735,-1.294 -3.336,-2.817 -4.812,-4.585 -3.832,-4.583 -5.776,-9.784 -5.814,-15.63 -0.008,-1.013 0.183,-1.787 0.545,-2.338 0.42,-1.986 1.312,-3.329 2.659,-4.032 1.368,-0.745 3.046,-0.792 5.035,-0.155 1.782,0.564 3.318,1.511 4.639,2.829 1.344,1.353 1.924,2.592 1.733,3.718 1.027,-2.185 2.577,-3.276 4.649,-3.289"
         id="path2117" />
      <path
         inkscape:connector-curvature="0"
         style="fill:#e27c9f"
         d="m 703.632,124.178 c -1.469,-5.432 -3.918,-10.406 -7.331,-14.904 -7.342,-9.66 -17.291,-15.329 -29.847,-17.036 -12.494,-1.715 -23.312,1.231 -32.439,8.839 -5.232,4.363 -9.192,9.685 -11.907,15.949 -1.907,4.985 -2.833,10.556 -2.777,16.743 0.217,5.885 1.727,11.722 4.547,17.509 0.269,0.54 0.553,1.083 0.866,1.629 1.753,2.968 4.249,5.876 7.523,8.701 2.42,2.072 5.246,4.089 8.487,6.081 4.439,2.713 9.347,4.626 14.71,5.754 1.598,0.326 3.253,0.583 4.929,0.78 6.453,0.624 12.461,0.056 18.021,-1.705 6.485,-2.041 12.366,-5.709 17.637,-10.97 1.479,-1.621 2.624,-3.025 3.422,-4.226 3.548,-5.82 5.417,-11.715 5.601,-17.719 0.259,-5.779 -0.22,-10.931 -1.442,-15.425"
         id="path2119" />
      <path
         inkscape:connector-curvature="0"
         style="fill:#e27c9f"
         d="m 709.967,147.634 c 0.404,-0.638 0.756,-1.238 1.025,-1.787 0.518,-1.052 0.814,-1.934 0.873,-2.633 0,-0.122 0,-0.245 -0.002,-0.353 -0.119,-1.349 -1.467,-2.333 -4.04,-2.953 -0.831,-0.213 -1.753,-0.316 -2.751,-0.305 -0.184,6.004 -2.053,11.899 -5.601,17.719 0.132,-0.198 0.248,-0.382 0.348,-0.569 2.012,-0.74 3.948,-1.981 5.783,-3.741 1.675,-1.595 3.13,-3.388 4.365,-5.378 l 0,0 z"
         id="path2121" />
      <path
         inkscape:connector-curvature="0"
         style="fill:none;stroke:#c4084a;stroke-width:2.43400002;stroke-linecap:round;stroke-linejoin:round;stroke-miterlimit:10"
         d="m 696.301,109.274 c -7.342,-9.66 -17.291,-15.329 -29.847,-17.036 -12.494,-1.715 -23.312,1.231 -32.439,8.839 -5.232,4.363 -9.192,9.686 -11.907,15.949 -1.907,4.986 -2.833,10.556 -2.777,16.743 0.217,5.885 1.727,11.722 4.547,17.509 0.269,0.54 0.553,1.083 0.866,1.629 1.753,2.968 4.249,5.877 7.523,8.701 2.42,2.073 5.246,4.089 8.487,6.081 4.438,2.713 9.347,4.626 14.71,5.754 1.598,0.327 3.253,0.583 4.929,0.781 6.453,0.623 12.461,0.055 18.021,-1.705 6.485,-2.042 12.366,-5.709 17.637,-10.971 1.479,-1.621 2.624,-3.025 3.422,-4.226 0.132,-0.198 0.248,-0.383 0.348,-0.57 2.012,-0.739 3.948,-1.981 5.783,-3.74 1.675,-1.596 3.13,-3.388 4.364,-5.378 0.404,-0.638 0.756,-1.238 1.025,-1.787 0.518,-1.053 0.814,-1.934 0.873,-2.633 0,-0.123 0,-0.245 -0.002,-0.354 -0.119,-1.349 -1.467,-2.334 -4.04,-2.953 -0.831,-0.213 -1.753,-0.316 -2.751,-0.305 0.261,-5.778 -0.219,-10.93 -1.44,-15.425 -1.47,-5.43 -3.919,-10.404 -7.332,-14.903 z m 8.771,30.329 c -0.184,6.004 -2.053,11.899 -5.601,17.719"
         id="path2123" />
      <path
         inkscape:connector-curvature="0"
         style="fill:#a682b9"
         d="m 698.097,148.007 c -0.098,-0.196 -0.252,-0.307 -0.447,-0.333 -0.227,-0.029 -0.434,0.038 -0.594,0.201 -0.09,0.111 -0.168,0.239 -0.2,0.373 -0.059,0.099 -0.088,0.204 -0.104,0.339 -0.016,0.121 -0.014,0.229 0.018,0.34 -10e-4,0.123 0.044,0.251 0.105,0.382 0.111,0.198 0.297,0.313 0.522,0.342 0.196,0.025 0.373,-0.044 0.518,-0.21 0.162,-0.179 0.268,-0.411 0.3,-0.667 0.036,-0.287 -0.008,-0.553 -0.118,-0.767"
         id="path2125" />
      <path
         inkscape:connector-curvature="0"
         style="fill:#a682b9"
         d="m 694.573,151.591 c -0.158,0.164 -0.262,0.38 -0.3,0.667 -0.021,0.181 -0.013,0.352 0.03,0.494 0.033,0.097 0.054,0.176 0.092,0.243 0.141,0.217 0.308,0.345 0.504,0.37 0.182,0.024 0.362,-0.061 0.536,-0.238 0.161,-0.179 0.266,-0.395 0.302,-0.682 0.033,-0.257 -0.012,-0.508 -0.122,-0.721 -0.122,-0.246 -0.273,-0.388 -0.454,-0.41 -0.075,-0.011 -0.168,-0.007 -0.249,0.029 -0.111,0.032 -0.216,0.125 -0.339,0.248"
         id="path2127" />
      <path
         inkscape:connector-curvature="0"
         style="fill:#a682b9"
         d="m 698.782,151.652 c -0.043,-0.021 -0.086,-0.041 -0.161,-0.051 -0.016,-0.002 -0.048,0.01 -0.095,0.019 -0.045,-0.007 -0.093,0.003 -0.154,0.011 -0.082,0.036 -0.165,0.086 -0.235,0.153 -0.049,0.025 -0.082,0.052 -0.104,0.095 -0.157,0.164 -0.263,0.38 -0.299,0.667 -0.023,0.181 -0.015,0.351 0.03,0.494 0.034,0.082 0.056,0.161 0.093,0.227 0.04,0.051 0.062,0.101 0.103,0.151 0.053,0.068 0.123,0.123 0.192,0.178 l 0.026,0.035 0.005,-0.031 c 0.058,0.023 0.116,0.046 0.176,0.053 0.046,0.006 0.106,0.014 0.167,0.021 0.129,-0.044 0.247,-0.137 0.372,-0.274 0.159,-0.164 0.264,-0.381 0.3,-0.667 0.032,-0.257 -0.012,-0.508 -0.123,-0.722 -0.086,-0.179 -0.177,-0.297 -0.293,-0.359"
         id="path2129" />
      <path
         inkscape:connector-curvature="0"
         style="fill:#a682b9"
         d="m 638.597,142.865 c 0.221,-0.172 0.357,-0.4 0.392,-0.671 0.037,-0.287 -0.037,-0.542 -0.209,-0.763 -0.144,-0.203 -0.343,-0.32 -0.6,-0.353 -0.286,-0.036 -0.54,0.024 -0.743,0.182 -0.207,0.173 -0.327,0.403 -0.363,0.69 -0.035,0.271 0.024,0.524 0.181,0.744 0.157,0.203 0.388,0.325 0.675,0.361 0.256,0.033 0.477,-0.031 0.667,-0.19"
         id="path2131" />
      <path
         inkscape:connector-curvature="0"
         style="fill:#a682b9"
         d="m 640.722,147.122 c 0.22,-0.156 0.354,-0.369 0.391,-0.655 0.032,-0.257 -0.042,-0.512 -0.211,-0.748 -0.153,-0.249 -0.381,-0.386 -0.668,-0.422 -0.255,-0.033 -0.479,0.046 -0.676,0.251 -0.222,0.186 -0.358,0.414 -0.392,0.671 -0.037,0.287 0.04,0.526 0.213,0.732 0.14,0.232 0.337,0.365 0.594,0.398 0.272,0.033 0.526,-0.04 0.749,-0.227"
         id="path2133" />
      <path
         inkscape:connector-curvature="0"
         style="fill:#a682b9"
         d="m 634.42,145.552 c -0.038,0.302 0.021,0.555 0.18,0.759 0.171,0.221 0.387,0.341 0.628,0.371 0.287,0.037 0.523,-0.025 0.746,-0.196 0.203,-0.159 0.325,-0.388 0.362,-0.689 0.033,-0.257 -0.026,-0.51 -0.181,-0.745 -0.173,-0.22 -0.384,-0.355 -0.67,-0.391 -0.242,-0.032 -0.481,0.046 -0.703,0.217 -0.208,0.188 -0.329,0.417 -0.362,0.674"
         id="path2135" />
      <path
         inkscape:connector-curvature="0"
         style="fill:#5d1e80"
         d="m 683.356,95.903 c 0.002,-0.015 0.002,-0.015 -0.014,-0.017 -5.173,-2.798 -10.937,-4.6 -17.307,-5.411 -11.842,-1.51 -22.524,0.769 -32.076,6.816 -0.791,0.488 -1.554,1.009 -2.319,1.547 -10.131,7.181 -15.938,16.662 -17.441,28.458 -1.244,9.77 1.668,18.395 8.74,25.848 l 2.694,3.286 -0.745,-4.849 c -2.337,-10.706 -1.748,-17.755 1.765,-21.134 0.865,-0.106 1.937,0.48 3.198,1.756 l -0.013,-0.018 c 1.297,1.358 2.688,2.248 4.198,2.658 l 1.388,0.176 0.151,-1.188 c 1.36,-10.064 5.634,-16.985 12.835,-20.76 2.873,-1.508 6.19,-2.51 9.989,-3.033 l 0.01,0.048 0.012,0.032 0.015,0.002 c 1.451,3.081 3.379,5.82 5.784,8.218 l 1.386,1.4 1.08,-3.131 c 1.793,3.063 4.408,5.875 7.846,8.434 l 0.677,0.52 0.711,-0.467 c 3.307,-2.011 5.91,-5.426 7.825,-10.247 0.126,0.589 0.344,1.561 0.655,2.887 l 0.591,2.414 1.562,-1.923 c 0.935,-1.135 1.66,-2.329 2.144,-3.583 2.726,1.834 5.103,3.84 7.134,6.004 0.015,0.018 0.028,0.019 0.043,0.037 2.288,2.459 3.995,4.984 5.139,7.562 1.135,2.638 1.938,5.327 2.379,8.062 0.28,3.025 0.266,5.455 -0.021,7.324 1.623,-0.692 2.609,-2.471 2.974,-5.337 1.543,-8.708 0.394,-16.46 -3.467,-23.239 -0.872,-1.536 -1.877,-3.012 -3.012,-4.442 l -0.171,-0.238 c -0.67,-0.938 -1.39,-1.851 -2.14,-2.767 l 0.003,-0.03 -0.349,-0.416 c -4.013,-4.74 -8.628,-8.503 -13.853,-11.259 m -1.173,2.158 0.017,0.002 c 4.801,2.548 9.058,5.971 12.782,10.286 l -0.002,0.015 0.349,0.417 c 0.742,0.869 1.436,1.747 2.081,2.634 l -0.006,0.046 0.333,0.429 c 1.175,1.467 2.207,2.977 3.076,4.544 2.406,4.333 3.658,9.092 3.728,14.258 -0.414,-1.244 -0.841,-2.4 -1.282,-3.431 -1.235,-2.821 -3.099,-5.583 -5.621,-8.274 0.002,-0.016 0.002,-0.016 -0.013,-0.017 -2.495,-2.672 -5.484,-5.097 -8.97,-7.277 l -1.446,-0.926 -0.401,1.698 c -0.159,0.63 -0.377,1.253 -0.657,1.868 -0.017,-0.11 -0.038,-0.191 -0.043,-0.269 -0.103,-0.524 -0.388,-1.939 -0.868,-4.246 l -0.986,-4.663 -0.093,0.004 -1.313,4.587 c -1.639,6.063 -4.149,10.328 -7.53,12.794 -3.676,-2.87 -6.229,-6.061 -7.686,-9.576 l -1.27,-2.919 -1.761,5.073 c -1.58,-1.827 -2.902,-3.839 -3.938,-6.046 l 0.012,0.032 -0.755,-1.738 -0.899,0.133 c -4.351,0.484 -8.158,1.547 -11.434,3.19 -7.725,3.863 -12.452,10.943 -14.197,21.236 -0.621,-0.357 -1.21,-0.835 -1.769,-1.432 l -0.015,-0.018 c -2.264,-2.287 -4.255,-3.067 -5.945,-2.322 l -0.244,0.093 -0.14,0.122 c -3.919,3.171 -5.137,9.567 -3.65,19.173 -4.278,-5.811 -5.941,-12.451 -4.987,-19.934 1.411,-11.079 6.885,-20 16.419,-26.761 1.21,-0.852 2.441,-1.656 3.696,-2.379 8.682,-5.058 18.35,-6.907 28.972,-5.554 6.049,0.771 11.544,2.493 16.456,5.148"
         id="path2137" />
      <path
         inkscape:connector-curvature="0"
         style="fill:#7f519b"
         d="m 682.199,98.063 -0.017,-0.002 c -4.912,-2.655 -10.406,-4.377 -16.458,-5.148 -10.622,-1.354 -20.29,0.496 -28.972,5.554 -1.254,0.723 -2.486,1.527 -3.696,2.379 -9.534,6.761 -15.007,15.682 -16.42,26.761 -0.953,7.483 0.709,14.123 4.988,19.935 -1.486,-9.607 -0.269,-16.003 3.65,-19.174 l 0.14,-0.122 0.244,-0.093 c 1.69,-0.745 3.682,0.035 5.945,2.322 l 0.015,0.018 c 0.559,0.597 1.147,1.075 1.768,1.432 1.746,-10.293 6.474,-17.373 14.198,-21.236 3.275,-1.643 7.083,-2.706 11.434,-3.189 l 0.899,-0.134 0.755,1.738 -0.011,-0.032 c 1.035,2.207 2.357,4.219 3.938,6.046 l 1.761,-5.073 1.271,2.919 c 1.456,3.516 4.009,6.706 7.685,9.576 3.381,-2.466 5.892,-6.731 7.529,-12.794 l 1.314,-4.587 0.093,-0.004 0.986,4.663 c 0.48,2.308 0.766,3.723 0.868,4.246 0.005,0.078 0.026,0.159 0.043,0.269 0.28,-0.615 0.498,-1.238 0.657,-1.868 l 0.401,-1.698 1.446,0.926 c 3.485,2.18 6.475,4.605 8.97,7.277 0.015,0.001 0.015,0.001 0.013,0.017 2.522,2.691 4.386,5.453 5.621,8.274 0.441,1.031 0.868,2.187 1.282,3.431 -0.069,-5.166 -1.321,-9.925 -3.728,-14.258 -0.869,-1.567 -1.9,-3.077 -3.076,-4.544 l -0.332,-0.429 0.005,-0.045 c -0.646,-0.888 -1.339,-1.766 -2.08,-2.635 l -0.35,-0.417 0.002,-0.015 c -3.723,-4.315 -7.98,-7.738 -12.781,-10.286"
         id="path2139" />
      <path
         inkscape:connector-curvature="0"
         style="fill:#e27c9f"
         d="m 614.581,128.687 c -1.829,0.272 -2.652,1.195 -2.441,2.786 1.104,8.314 5.936,13.821 14.514,16.555 l 2.042,-15.426 c -4.651,-3.338 -9.346,-4.642 -14.115,-3.915"
         id="path2141" />
      <path
         inkscape:connector-curvature="0"
         style="fill:none;stroke:#c4084a;stroke-width:2.43400002;stroke-linecap:square;stroke-linejoin:round;stroke-miterlimit:10"
         d="m 626.653,148.028 c -8.578,-2.733 -13.41,-8.241 -14.514,-16.555 -0.211,-1.591 0.612,-2.513 2.441,-2.786 4.769,-0.726 9.464,0.577 14.114,3.915"
         id="path2143" />
      <path
         inkscape:connector-curvature="0"
         style="fill:#d8272a"
         d="m 642.899,152.064 c 3.973,3.192 9.09,5.608 15.351,7.218 3.56,0.924 7.071,1.445 10.535,1.562 3.477,0.119 6.967,-0.163 10.482,-0.845 6.186,-1.186 11.183,-3.256 14.988,-6.183 -7.764,7.495 -16.22,10.954 -25.354,10.407 -9.147,-0.076 -17.806,-4.119 -26.002,-12.159"
         id="path2145" />
      <path
         inkscape:connector-curvature="0"
         style="fill:#ffffff"
         d="m 694.16,124.273 c -2.612,-1.651 -5.435,-1.766 -8.454,-0.326 -3.019,1.425 -5.366,3.963 -7.015,7.632 -1.649,3.669 -2.123,7.398 -1.439,11.18 0.672,3.75 2.32,6.46 4.947,8.113 2.61,1.651 5.435,1.751 8.454,0.311 3.017,-1.41 5.367,-3.963 7.015,-7.632 1.648,-3.671 2.122,-7.382 1.435,-11.135 -0.669,-3.78 -2.318,-6.49 -4.943,-8.143"
         id="path2147" />
      <path
         inkscape:connector-curvature="0"
         style="fill:#ffffff"
         d="m 669.235,143.93 c 2.041,-3.62 2.525,-7.544 1.471,-11.773 -1.072,-4.23 -3.383,-7.516 -6.933,-9.869 -3.546,-2.369 -7.284,-3.121 -11.231,-2.228 -3.946,0.891 -6.934,3.149 -8.974,6.768 -2.024,3.607 -2.506,7.517 -1.466,11.743 1.07,4.232 3.382,7.517 6.932,9.87 3.547,2.368 7.3,3.123 11.246,2.23 3.933,-0.894 6.917,-3.137 8.955,-6.741"
         id="path2149" />
      <path
         inkscape:connector-curvature="0"
         style="fill:#ffffff"
         d="m 699.138,132.374 c -0.669,-3.78 -2.316,-6.49 -4.941,-8.144 -2.613,-1.65 -5.435,-1.765 -8.454,-0.324 -3.02,1.425 -5.366,3.961 -7.016,7.632 -1.647,3.669 -2.123,7.395 -1.439,11.178 0.673,3.75 2.321,6.46 4.947,8.114 2.61,1.651 5.434,1.75 8.454,0.31 3.017,-1.409 5.366,-3.963 7.016,-7.632 1.648,-3.669 2.121,-7.382 1.433,-11.134"
         id="path2151" />
      <path
         inkscape:connector-curvature="0"
         style="fill:#0e5cab"
         d="m 696.773,141.961 c 0.09,-2.396 -0.436,-4.411 -1.575,-6.059 -1.142,-1.632 -2.56,-2.411 -4.275,-2.307 -1.714,0.088 -3.212,1.017 -4.497,2.8 -1.252,1.757 -1.929,3.833 -2.021,6.23 -0.093,2.411 0.432,4.44 1.586,6.09 1.144,1.617 2.579,2.383 4.292,2.294 1.7,-0.105 3.184,-1.035 4.464,-2.788 1.273,-1.786 1.95,-3.862 2.026,-6.26 m -4.232,-4.94 c 0.992,0.633 1.642,1.681 1.962,3.133 0.317,1.481 0.222,2.957 -0.317,4.422 -0.539,1.464 -1.344,2.481 -2.416,3.066 -1.087,0.597 -2.128,0.587 -3.121,-0.046 -1.011,-0.619 -1.658,-1.668 -1.978,-3.135 -0.332,-1.483 -0.221,-2.957 0.317,-4.421 0.525,-1.468 1.328,-2.484 2.416,-3.067 1.085,-0.582 2.125,-0.556 3.137,0.048"
         id="path2153" />
      <path
         inkscape:connector-curvature="0"
         style="fill:#080101"
         d="m 694.503,140.154 c -0.32,-1.452 -0.97,-2.5 -1.962,-3.133 -1.012,-0.604 -2.052,-0.63 -3.137,-0.048 -1.089,0.583 -1.891,1.599 -2.416,3.067 -0.538,1.464 -0.649,2.938 -0.317,4.422 0.319,1.466 0.967,2.515 1.978,3.134 0.993,0.633 2.034,0.643 3.122,0.046 1.071,-0.585 1.876,-1.602 2.415,-3.066 0.539,-1.464 0.634,-2.941 0.317,-4.422"
         id="path2155" />
      <path
         inkscape:connector-curvature="0"
         style="fill:#ffffff"
         d="m 688.833,138.68 c -0.35,0.216 -0.606,0.552 -0.771,1.006 -0.185,0.482 -0.229,0.952 -0.124,1.441 0.107,0.489 0.339,0.841 0.665,1.051 0.312,0.193 0.65,0.19 1.026,0.007 0.346,-0.185 0.603,-0.521 0.772,-1.005 0.184,-0.482 0.229,-0.967 0.122,-1.441 -0.104,-0.504 -0.336,-0.855 -0.664,-1.051 -0.328,-0.195 -0.68,-0.193 -1.026,-0.008"
         id="path2157" />
      <path
         inkscape:connector-curvature="0"
         style="fill:#ffffff"
         d="m 670.741,132.114 c -1.07,-4.231 -3.382,-7.515 -6.932,-9.87 -3.548,-2.367 -7.284,-3.12 -11.231,-2.228 -3.947,0.893 -6.934,3.15 -8.974,6.769 -2.024,3.607 -2.507,7.517 -1.466,11.744 1.07,4.231 3.382,7.515 6.932,9.869 3.547,2.368 7.298,3.122 11.245,2.231 3.934,-0.895 6.918,-3.137 8.957,-6.742 2.04,-3.619 2.525,-7.544 1.469,-11.773"
         id="path2159" />
      <path
         inkscape:connector-curvature="0"
         style="fill:#0e5cab"
         d="m 668.865,135.915 c -1.148,-2.186 -2.823,-3.596 -5.062,-4.203 -2.223,-0.605 -4.338,-0.261 -6.331,1.065 -1.993,1.325 -3.308,3.212 -3.911,5.665 -0.604,2.454 -0.349,4.787 0.769,6.968 1.149,2.171 2.843,3.567 5.051,4.171 2.238,0.607 4.366,0.265 6.357,-1.03 1.992,-1.326 3.306,-3.213 3.914,-5.697 0.605,-2.453 0.348,-4.771 -0.787,-6.939 m -4.086,-0.306 c 1.248,0.911 2.005,2.203 2.254,3.845 0.267,1.645 -0.035,3.17 -0.919,4.575 -0.869,1.407 -2.053,2.268 -3.55,2.584 -1.501,0.345 -2.89,0.046 -4.133,-0.895 -1.234,-0.908 -1.989,-2.201 -2.257,-3.845 -0.25,-1.641 0.052,-3.167 0.921,-4.575 0.866,-1.376 2.049,-2.238 3.55,-2.584 1.499,-0.315 2.886,-0.016 4.134,0.895"
         id="path2161" />
      <path
         inkscape:connector-curvature="0"
         style="fill:#080101"
         d="m 667.033,139.454 c -0.249,-1.643 -1.006,-2.934 -2.254,-3.845 -1.248,-0.911 -2.636,-1.211 -4.134,-0.895 -1.501,0.345 -2.684,1.207 -3.551,2.584 -0.868,1.407 -1.169,2.933 -0.919,4.575 0.267,1.644 1.021,2.936 2.256,3.845 1.243,0.941 2.632,1.24 4.133,0.895 1.497,-0.316 2.681,-1.177 3.55,-2.584 0.884,-1.406 1.186,-2.931 0.919,-4.575"
         id="path2163" />
      <path
         inkscape:connector-curvature="0"
         style="fill:#ffffff"
         d="m 665.727,138.766 c -0.072,-0.516 -0.324,-0.947 -0.729,-1.259 -0.407,-0.297 -0.854,-0.4 -1.344,-0.293 -0.489,0.106 -0.894,0.392 -1.197,0.859 -0.273,0.456 -0.367,0.95 -0.268,1.499 0.068,0.546 0.322,0.962 0.729,1.258 0.422,0.299 0.868,0.403 1.343,0.294 0.489,-0.106 0.894,-0.391 1.197,-0.859 0.288,-0.454 0.367,-0.95 0.269,-1.499"
         id="path2165" />
      <path
         inkscape:connector-curvature="0"
         style="fill:#3793d1"
         d="m 683.284,125.37 c 2.626,-0.018 5.247,0.47 7.863,1.478 2.593,2.4 4.53,5.361 5.844,8.886 0.411,3.641 -0.119,7.561 -1.588,11.743 0.896,-1.127 1.674,-2.423 2.34,-3.918 0.153,-0.364 0.309,-0.727 0.46,-1.091 1.271,-3.335 1.605,-6.697 0.982,-10.103 -0.683,-3.798 -2.345,-6.524 -4.97,-8.178 -2.624,-1.668 -5.464,-1.77 -8.498,-0.332 -0.865,0.412 -1.682,0.921 -2.433,1.515 l 0,0 z"
         id="path2167" />
      <path
         inkscape:connector-curvature="0"
         style="fill:#3793d1"
         d="m 666.012,123.859 c -0.672,-0.623 -1.397,-1.19 -2.175,-1.704 -3.578,-2.372 -7.359,-3.129 -11.338,-2.241 -3.977,0.888 -6.995,3.157 -9.055,6.804 -2.04,3.62 -2.543,7.558 -1.474,11.804 0.254,1.014 0.592,1.977 1.01,2.904 0.13,0.308 0.275,0.603 0.437,0.914 -0.086,-5.117 1.459,-10.256 4.645,-15.401 5.624,-4.298 11.596,-5.33 17.95,-3.08"
         id="path2169" />
      <path
         inkscape:connector-curvature="0"
         style="fill:#080101"
         d="m 681.378,127.104 c 0.081,-0.035 0.161,-0.071 0.243,-0.106 0.769,-0.853 1.597,-1.576 2.516,-2.18 -0.046,0.01 -0.076,0.007 -0.109,0.018 -0.017,0.013 -0.017,0.013 -0.031,0.011 -0.849,0.382 -1.725,1.131 -2.619,2.257"
         id="path2171" />
      <path
         inkscape:connector-curvature="0"
         style="fill:#080101"
         d="m 694.092,127.805 c -0.106,10e-4 -0.243,-0.016 -0.375,-0.063 -0.396,-0.373 -0.842,-0.736 -1.32,-1.073 -2.673,-1.889 -5.414,-2.514 -8.213,-1.86 -0.014,-10e-4 -0.03,-0.003 -0.047,0.01 -0.919,0.604 -1.747,1.326 -2.516,2.179 3.094,-1.415 6.007,-1.167 8.721,0.758 2.801,1.968 4.55,4.966 5.277,8.999 0.373,2.133 0.385,4.327 0.021,6.581 -0.228,1.428 -0.698,3.193 -1.382,5.299 0.475,-0.476 0.943,-1.015 1.384,-1.587 0.188,-0.267 0.375,-0.535 0.562,-0.803 0.736,-1.562 1.243,-3.015 1.555,-4.372 0.218,-0.999 0.33,-1.997 0.35,-2.991 0.312,-0.283 0.607,-0.552 0.888,-0.823 0.106,-0.108 0.212,-0.217 0.317,-0.327 1.264,-1.372 1.947,-2.65 2.069,-3.846 0.025,-0.318 -0.386,-0.34 -1.244,-0.097 -0.301,0.069 -0.556,0.144 -0.794,0.205 -0.111,0.033 -0.221,0.049 -0.33,0.066 -0.459,0.11 -0.754,0.149 -0.875,0.134 0.275,-0.486 0.519,-0.946 0.714,-1.397 0.085,-0.188 0.171,-0.377 0.24,-0.553 0.495,-1.239 0.656,-2.276 0.474,-3.112 -0.064,-0.347 -0.478,-0.23 -1.24,0.332 -0.085,0.066 -0.184,0.13 -0.27,0.195 -0.018,0.013 -0.031,0.011 -0.05,0.025 -0.491,0.366 -1.003,0.777 -1.567,1.227 0.328,-1.247 0.52,-2.266 0.604,-3.052 0.025,-0.089 0.036,-0.164 0.03,-0.242 0.01,-0.197 0.005,-0.397 -0.018,-0.584 -0.192,-0.286 -0.401,-0.573 -0.63,-0.832 -0.017,0.014 -0.017,0.014 -0.034,0.026 -0.054,0.071 -0.107,0.124 -0.163,0.194 -0.868,0.917 -1.584,1.377 -2.138,1.384"
         id="path2173" />
      <path
         inkscape:connector-curvature="0"
         style="fill:#080101"
         d="m 696.428,126.202 c 0.229,0.259 0.438,0.546 0.63,0.831 -0.012,-0.155 -0.036,-0.311 -0.065,-0.453 -0.085,-0.532 -0.269,-0.663 -0.565,-0.378"
         id="path2175" />
      <path
         inkscape:connector-curvature="0"
         style="fill:#080101"
         d="m 695.643,147.048 c -0.44,0.572 -0.909,1.111 -1.384,1.587 -0.017,0.013 -0.021,0.043 -0.022,0.059 0.605,-0.537 1.046,-0.987 1.292,-1.354 0.019,-0.029 0.021,-0.043 0.038,-0.057 0.242,-0.338 0.393,-0.548 0.449,-0.632 0.062,-0.131 0.126,-0.276 0.189,-0.406 -0.187,0.268 -0.375,0.535 -0.562,0.803"
         id="path2177" />
      <path
         inkscape:connector-curvature="0"
         style="fill:#070101"
         d="m 641.62,127.069 c -1.022,-0.514 -1.579,-0.599 -1.637,-0.27 -0.302,1.511 0.545,3.428 2.564,5.74 -0.29,0.96 -0.462,1.95 -0.52,3.001 -0.037,1.621 0.233,3.465 0.842,5.551 0.4,0.955 0.832,1.777 1.292,2.496 -0.086,-2.573 -0.03,-4.574 0.139,-6.025 0.275,-2.281 0.99,-4.397 2.172,-6.332 2.263,-3.683 5.509,-6.046 9.77,-7.113 4.245,-1.069 8.18,-0.414 11.797,1.994 -0.791,-1.359 -1.692,-2.347 -2.69,-2.95 -3.438,-1.526 -7.242,-1.765 -11.412,-0.687 -0.714,0.185 -1.386,0.407 -2.03,0.646 -0.199,0.005 -0.364,-0.015 -0.53,-0.052 -0.758,-0.188 -1.584,-0.923 -2.45,-2.183 -0.288,-0.389 -0.587,-0.336 -0.88,0.163 -0.245,0.353 -0.419,0.76 -0.491,1.211 -0.146,0.779 -0.217,1.813 -0.211,3.101 -0.585,-0.595 -1.129,-1.141 -1.633,-1.634 -0.991,-1 -1.593,-1.338 -1.807,-0.981 -0.771,1.113 -0.705,2.885 0.183,5.298 -0.273,-0.035 -1.089,-0.354 -2.468,-0.974"
         id="path2179" />
      <path
         inkscape:connector-curvature="0"
         style="fill:none;stroke:#080101;stroke-width:0.015;stroke-miterlimit:10"
         d="m 681.621,126.998 c 0.769,-0.853 1.597,-1.575 2.516,-2.178 m 12.921,2.212 c -0.192,-0.285 -0.401,-0.572 -0.63,-0.831 m -2.169,22.434 c 0.475,-0.476 0.943,-1.015 1.384,-1.587 0.188,-0.267 0.375,-0.535 0.562,-0.803"
         id="path2181" />
      <path
         inkscape:connector-curvature="0"
         style="fill:#da4d5d"
         d="m 677.926,153.82 c 1.303,-0.845 2.03,-1.98 2.212,-3.398 0.18,-1.418 -0.243,-2.669 -1.294,-3.814 -0.985,-1.169 -2.338,-1.863 -3.998,-2.074 -1.6,-0.203 -3.053,0.132 -4.36,1.009 -1.301,0.815 -2.024,1.92 -2.204,3.338 -0.182,1.418 0.234,2.729 1.285,3.874 1.05,1.146 2.372,1.836 3.973,2.04 1.658,0.211 3.142,-0.121 4.386,-0.975"
         id="path2183" />
      <path
         inkscape:connector-curvature="0"
         style="fill:#d4074c"
         d="m 736.601,177.221 c 0.269,-0.548 0.291,-1.115 0.082,-1.707 l -0.132,-0.375 c -0.223,-0.585 -0.601,-1.028 -1.149,-1.32 -0.558,-0.274 -1.13,-0.319 -1.707,-0.154 L 668.5,194.124 c -0.573,0.18 -0.983,0.55 -1.237,1.093 -0.269,0.548 -0.291,1.115 -0.097,1.711 l 0.132,0.375 c 0.223,0.587 0.615,1.023 1.163,1.316 0.558,0.273 1.115,0.323 1.668,0.134 l 65.221,-20.435 c 0.567,-0.194 0.976,-0.563 1.251,-1.097"
         id="path2185" />
      <path
         inkscape:connector-curvature="0"
         style="fill:none;stroke:#d40247;stroke-width:4.46400023;stroke-miterlimit:10"
         d="m 736.683,175.514 -0.132,-0.375 c -0.223,-0.585 -0.601,-1.028 -1.149,-1.32 -0.558,-0.274 -1.13,-0.319 -1.707,-0.154 L 668.5,194.124 c -0.573,0.181 -0.983,0.55 -1.237,1.093 -0.269,0.548 -0.291,1.115 -0.098,1.711 l 0.133,0.375 c 0.223,0.587 0.614,1.024 1.163,1.316 0.558,0.273 1.115,0.323 1.668,0.134 l 65.221,-20.435 c 0.568,-0.194 0.978,-0.563 1.252,-1.097 0.267,-0.548 0.29,-1.115 0.081,-1.707 z"
         id="path2187" />
      <path
         inkscape:connector-curvature="0"
         style="fill:#d4074c"
         d="m 736.601,177.221 c 0.269,-0.548 0.291,-1.115 0.082,-1.707 l -0.132,-0.375 c -0.223,-0.585 -0.601,-1.028 -1.149,-1.32 -0.558,-0.274 -1.13,-0.319 -1.707,-0.154 L 668.5,194.124 c -0.573,0.18 -0.983,0.55 -1.237,1.093 -0.269,0.548 -0.291,1.115 -0.097,1.711 l 0.132,0.375 c 0.223,0.587 0.615,1.023 1.163,1.316 0.558,0.273 1.115,0.323 1.668,0.134 l 65.221,-20.435 c 0.567,-0.194 0.976,-0.563 1.251,-1.097"
         id="path2189" />
      <path
         inkscape:connector-curvature="0"
         style="fill:none;stroke:#d4074c;stroke-width:2.3210001;stroke-miterlimit:10"
         d="m 736.683,175.514 -0.132,-0.375 c -0.223,-0.585 -0.601,-1.028 -1.149,-1.32 -0.558,-0.274 -1.13,-0.319 -1.707,-0.154 L 668.5,194.124 c -0.573,0.181 -0.983,0.55 -1.237,1.093 -0.269,0.548 -0.291,1.115 -0.098,1.711 l 0.133,0.375 c 0.223,0.587 0.614,1.024 1.163,1.316 0.558,0.273 1.115,0.323 1.668,0.134 l 65.221,-20.435 c 0.568,-0.194 0.978,-0.563 1.252,-1.097 0.267,-0.548 0.29,-1.115 0.081,-1.707 z"
         id="path2191" />
      <polygon
         style="fill:#d4074c"
         points="694.321,186.034 691.356,186.963 696.094,190.617 699.045,189.693 "
         id="polygon2193" />
      <polygon
         style="fill:none;stroke:#d4074c;stroke-width:2.3210001;stroke-miterlimit:10"
         points="696.094,190.617 691.356,186.963 694.321,186.034 699.045,189.693 "
         id="polygon2195" />
      <polygon
         style="fill:#d4074c"
         points="719.346,183.315 721.742,177.427 718.457,178.439 716.038,184.352 "
         id="polygon2197" />
      <polygon
         style="fill:none;stroke:#d4074c;stroke-width:2.3210001;stroke-miterlimit:10"
         points="718.457,178.439 721.742,177.427 719.346,183.315 716.038,184.352 "
         id="polygon2199" />
      <polygon
         style="fill:#d4074c"
         points="710.522,180.927 707.578,181.865 712.301,185.524 715.246,184.633 "
         id="polygon2201" />
      <polygon
         style="fill:none;stroke:#d4074c;stroke-width:2.3210001;stroke-miterlimit:10"
         points="712.301,185.524 707.578,181.865 710.522,180.927 715.246,184.633 "
         id="polygon2203" />
      <polygon
         style="fill:#d4074c"
         points="702.708,183.391 700.291,189.303 703.56,188.295 705.954,182.358 "
         id="polygon2205" />
      <polygon
         style="fill:none;stroke:#d4074c;stroke-width:2.3210001;stroke-miterlimit:10"
         points="703.56,188.295 700.291,189.303 702.708,183.391 705.954,182.358 "
         id="polygon2207" />
      <polygon
         style="fill:#d4074c"
         points="687.314,193.369 689.753,187.465 686.481,188.474 684.044,194.376 "
         id="polygon2209" />
      <polygon
         style="fill:none;stroke:#d4074c;stroke-width:2.3210001;stroke-miterlimit:10"
         points="686.481,188.474 689.753,187.465 687.314,193.369 684.044,194.376 "
         id="polygon2211" />
      <polygon
         style="fill:#d4074c"
         points="674.328,192.298 679.051,195.957 682.021,195.042 677.288,191.355 "
         id="polygon2213" />
      <polygon
         style="fill:none;stroke:#d4074c;stroke-width:2.3210001;stroke-miterlimit:10"
         points="682.021,195.042 679.051,195.957 674.328,192.298 677.288,191.355 "
         id="polygon2215" />
      <path
         inkscape:connector-curvature="0"
         style="fill:#84539c"
         d="m 736.601,177.221 c 0.269,-0.548 0.291,-1.115 0.082,-1.707 l -0.132,-0.375 c -0.223,-0.585 -0.601,-1.028 -1.149,-1.32 -0.558,-0.274 -1.13,-0.319 -1.707,-0.154 L 668.5,194.124 c -0.573,0.18 -0.983,0.55 -1.237,1.093 -0.269,0.548 -0.291,1.115 -0.097,1.711 l 0.132,0.375 c 0.223,0.587 0.615,1.023 1.163,1.316 0.558,0.273 1.115,0.323 1.668,0.134 l 65.221,-20.435 c 0.567,-0.194 0.976,-0.563 1.251,-1.097"
         id="path2217" />
      <polygon
         style="fill:#e97ca0"
         points="694.321,186.034 691.356,186.963 696.094,190.617 699.045,189.693 "
         id="polygon2219" />
      <polygon
         style="fill:#6bc4ee"
         points="719.346,183.315 721.742,177.427 718.457,178.439 716.038,184.352 "
         id="polygon2221" />
      <polygon
         style="fill:#e97ca0"
         points="710.522,180.927 707.578,181.865 712.301,185.524 715.246,184.633 "
         id="polygon2223" />
      <polygon
         style="fill:#6bc4ee"
         points="702.708,183.391 700.291,189.303 703.56,188.295 705.954,182.358 "
         id="polygon2225" />
      <polygon
         style="fill:#6bc4ee"
         points="687.314,193.369 689.753,187.465 686.481,188.474 684.044,194.376 "
         id="polygon2227" />
      <polygon
         style="fill:#e97ca0"
         points="674.328,192.298 679.051,195.957 682.021,195.042 677.288,191.355 "
         id="polygon2229" />
      <path
         inkscape:connector-curvature="0"
         style="fill:#f0d5e6"
         d="m 747.725,166.377 c -1.001,-0.359 -1.947,-0.11 -2.839,0.745 -0.886,0.871 -1.993,2.242 -3.297,4.139 -1.493,1.764 -3.55,3.241 -6.183,4.434 l 0.11,-0.002 c 2.799,-0.588 5.196,-1.229 7.182,-1.915 3.706,-1.304 5.764,-2.958 6.191,-4.948 0.279,-1.288 -0.102,-2.097 -1.164,-2.453"
         id="path2231" />
      <path
         inkscape:connector-curvature="0"
         style="fill:#f0d5e6"
         d="m 726.214,184.226 c 1.388,-1.795 2.688,-3.34 3.889,-4.627 1.199,-1.289 3.028,-2.599 5.499,-3.934 -0.819,-0.207 -3.218,0.433 -7.166,1.911 -3.721,1.309 -5.798,2.952 -6.23,4.929 -0.264,1.283 0.122,2.107 1.171,2.467 1.009,0.34 1.954,0.091 2.837,-0.746"
         id="path2233" />
      <path
         inkscape:connector-curvature="0"
         style="fill:#f0d5e6"
         d="m 744.859,163.433 c -1.059,-0.069 -1.903,0.42 -2.537,1.467 -0.623,1.075 -1.336,2.707 -2.114,4.921 -0.97,2.08 -2.564,4.052 -4.815,5.926 l 0.124,-0.054 c 2.535,-1.291 4.644,-2.528 6.346,-3.701 3.224,-2.227 4.791,-4.367 4.689,-6.416 -0.055,-1.329 -0.624,-2.046 -1.693,-2.143"
         id="path2235" />
      <path
         inkscape:connector-curvature="0"
         style="fill:#6bc4ee"
         d="m 747.725,166.377 c -1.001,-0.359 -1.947,-0.11 -2.839,0.745 -0.886,0.871 -1.993,2.242 -3.297,4.139 -1.493,1.764 -3.55,3.241 -6.183,4.434 l 0.11,-0.002 c 2.705,-0.399 5.51,-1.15 8.404,-2.233 2.89,-1.098 4.541,-2.64 4.969,-4.63 0.279,-1.288 -0.102,-2.097 -1.164,-2.453"
         id="path2237" />
      <path
         inkscape:connector-curvature="0"
         style="fill:#eddd00"
         d="m 744.859,163.433 c -1.059,-0.069 -1.903,0.42 -2.537,1.467 -0.623,1.075 -1.336,2.707 -2.114,4.921 -0.97,2.08 -2.564,4.052 -4.815,5.926 l 0.124,-0.054 c 2.535,-1.291 4.644,-2.528 6.346,-3.701 3.224,-2.227 4.791,-4.367 4.689,-6.416 -0.055,-1.329 -0.624,-2.046 -1.693,-2.143"
         id="path2239" />
      <path
         inkscape:connector-curvature="0"
         style="fill:#eddd00"
         d="m 729.233,179.342 c -3.219,2.241 -4.787,4.381 -4.686,6.431 0.06,1.342 0.625,2.045 1.688,2.128 1.058,0.069 1.902,-0.42 2.536,-1.467 0.876,-2.116 1.59,-3.748 2.121,-4.906 0.973,-2.066 2.545,-4.016 4.708,-5.863 -0.69,0.201 -2.819,1.429 -6.367,3.677"
         id="path2241" />
      <path
         inkscape:connector-curvature="0"
         style="fill:#f0d5e6"
         d="m 741.395,161.316 c -1.014,0.19 -1.692,0.883 -2.034,2.079 -0.347,1.229 -0.605,3.023 -0.78,5.368 -0.42,2.243 -1.438,4.547 -3.063,6.929 2.111,-1.909 3.829,-3.665 5.163,-5.251 2.555,-2.995 3.521,-5.49 2.903,-7.473 -0.396,-1.301 -1.126,-1.841 -2.189,-1.652"
         id="path2243" />
      <path
         inkscape:connector-curvature="0"
         style="fill:#6bc4ee"
         d="m 731.735,187.939 c 0.307,-2.289 0.662,-4.306 1.066,-6.049 0.404,-1.743 1.362,-3.852 2.856,-6.338 l -0.08,0.09 c -0.556,0.318 -2.267,2.054 -5.145,5.214 -2.536,3.003 -3.517,5.503 -2.921,7.509 0.408,1.298 1.124,1.842 2.188,1.653 1.03,-0.194 1.708,-0.888 2.036,-2.079"
         id="path2245" />
      <path
         inkscape:connector-curvature="0"
         style="fill:#f0d5e6"
         d="m 740.052,161.161 c -0.693,-1.159 -1.53,-1.505 -2.497,-1.042 -0.929,0.435 -1.411,1.275 -1.426,2.544 -0.023,1.288 0.169,3.101 0.572,5.423 0.18,2.361 -0.231,4.94 -1.213,7.712 l 0.053,-0.08 c 1.521,-2.413 2.718,-4.566 3.599,-6.443 1.671,-3.614 1.973,-6.318 0.912,-8.114"
         id="path2247" />
      <path
         inkscape:connector-curvature="0"
         style="fill:#f0d5e6"
         d="m 741.395,161.316 c -1.014,0.19 -1.692,0.883 -2.034,2.079 -0.347,1.229 -0.605,3.023 -0.78,5.368 -0.42,2.243 -1.438,4.547 -3.063,6.929 2.111,-1.909 3.829,-3.665 5.163,-5.251 2.555,-2.995 3.521,-5.49 2.903,-7.473 -0.396,-1.301 -1.126,-1.841 -2.189,-1.652"
         id="path2249" />
      <path
         inkscape:connector-curvature="0"
         style="fill:#6bc4ee"
         d="m 740.052,161.161 c -0.693,-1.159 -1.53,-1.505 -2.497,-1.042 -0.929,0.435 -1.411,1.275 -1.426,2.544 -0.023,1.288 0.155,3.153 0.523,5.599 0.104,2.192 -0.279,4.714 -1.164,7.536 l 0.053,-0.08 c 1.521,-2.413 2.718,-4.566 3.599,-6.443 1.671,-3.614 1.973,-6.318 0.912,-8.114"
         id="path2251" />
      <path
         inkscape:connector-curvature="0"
         style="fill:#eddd00"
         d="m 735.634,175.528 -0.056,0.114 c -0.371,0.708 -1.588,2.851 -3.628,6.45 -1.685,3.57 -1.979,6.256 -0.912,8.068 0.713,1.168 1.541,1.533 2.508,1.071 0.928,-0.435 1.407,-1.29 1.426,-2.545 -0.284,-2.343 -0.469,-4.175 -0.561,-5.474 -0.194,-2.357 0.209,-4.917 1.223,-7.684"
         id="path2253" />
      <path
         inkscape:connector-curvature="0"
         style="fill:#f0d5e6"
         d="m 734.539,167.995 c 0.806,2.197 1.139,4.767 1.002,7.723 0.782,-2.791 1.322,-5.233 1.643,-7.303 0.56,-3.968 0.095,-6.689 -1.403,-8.141 -0.982,-0.94 -1.864,-1.048 -2.648,-0.338 -0.755,0.7 -0.971,1.665 -0.636,2.888 0.315,1.261 1.002,2.983 2.042,5.171"
         id="path2255" />
      <path
         inkscape:connector-curvature="0"
         style="fill:#f0d5e6"
         d="m 737.976,191.395 c 0.766,-0.672 0.983,-1.637 0.657,-2.879 -0.917,-2.194 -1.603,-3.917 -2.058,-5.167 -0.805,-2.197 -1.152,-4.761 -1.026,-7.699 -0.558,1.215 -1.103,3.643 -1.608,7.308 -0.573,3.974 -0.113,6.679 1.395,8.112 0.981,0.94 1.861,1.049 2.64,0.325"
         id="path2257" />
      <path
         inkscape:connector-curvature="0"
         style="fill:#f0d5e6"
         d="m 735.572,175.851 -0.007,-0.11 c 0.045,-2.943 -0.056,-5.489 -0.293,-7.607 -0.437,-4.042 -1.557,-6.588 -3.354,-7.626 -1.175,-0.673 -2.056,-0.557 -2.624,0.358 -0.53,0.886 -0.497,1.885 0.118,3.004 0.646,1.158 1.718,2.663 3.252,4.536 1.355,1.993 2.323,4.475 2.908,7.445"
         id="path2259" />
      <path
         inkscape:connector-curvature="0"
         style="fill:#f0d5e6"
         d="m 734.539,167.995 c 0.806,2.197 1.139,4.767 1.002,7.723 0.782,-2.791 1.322,-5.233 1.643,-7.303 0.56,-3.968 0.095,-6.689 -1.403,-8.141 -0.982,-0.94 -1.864,-1.048 -2.648,-0.338 -0.755,0.7 -0.971,1.665 -0.636,2.888 0.315,1.261 1.002,2.983 2.042,5.171"
         id="path2261" />
      <path
         inkscape:connector-curvature="0"
         style="fill:#eddd00"
         d="m 735.572,175.851 -0.007,-0.11 c 0.045,-2.943 -0.056,-5.489 -0.293,-7.607 -0.437,-4.042 -1.557,-6.588 -3.354,-7.626 -1.175,-0.673 -2.056,-0.557 -2.624,0.358 -0.53,0.886 -0.497,1.885 0.118,3.004 0.646,1.158 1.718,2.663 3.252,4.536 1.355,1.993 2.323,4.475 2.908,7.445"
         id="path2263" />
      <path
         inkscape:connector-curvature="0"
         style="fill:#eddd00"
         d="m 741.801,190.469 c 0.54,-0.859 0.507,-1.856 -0.101,-2.994 -1.419,-1.909 -2.495,-3.429 -3.253,-4.537 -1.352,-1.993 -2.321,-4.475 -2.905,-7.445 l 0.012,0.124 c -0.087,0.701 -0.006,3.236 0.275,7.598 0.436,4.042 1.55,6.573 3.356,7.593 1.18,0.687 2.046,0.575 2.616,-0.339"
         id="path2265" />
      <path
         inkscape:connector-curvature="0"
         style="fill:#f0d5e6"
         d="m 735.597,175.828 -0.021,-0.105 c -0.686,-2.891 -1.39,-5.344 -2.148,-7.363 -1.423,-3.861 -3.126,-6.08 -5.12,-6.64 -1.289,-0.365 -2.081,-0.037 -2.393,0.974 -0.298,1.005 -0.02,1.975 0.838,2.923 0.889,0.986 2.304,2.208 4.233,3.668 1.788,1.6 3.319,3.777 4.611,6.543"
         id="path2267" />
      <path
         inkscape:connector-curvature="0"
         style="fill:#6bc4ee"
         d="m 744.352,185.699 c -1.825,-1.524 -3.237,-2.731 -4.224,-3.638 -1.783,-1.587 -3.332,-3.775 -4.635,-6.569 l 0.031,0.135 c 0.015,0.716 0.738,3.178 2.167,7.372 1.403,3.851 3.103,6.056 5.077,6.606 1.295,0.379 2.099,0.047 2.401,-0.993 0.332,-0.999 0.069,-1.975 -0.817,-2.913"
         id="path2269" />
      <path
         inkscape:connector-curvature="0"
         style="fill:#f0d5e6"
         d="m 735.575,175.722 c -1.381,-2.657 -2.678,-4.892 -3.869,-6.696 -2.331,-3.415 -4.5,-5.152 -6.538,-5.202 -1.331,-0.032 -2.031,0.508 -2.078,1.595 -0.028,1.05 0.508,1.938 1.588,2.656 1.084,0.733 2.729,1.563 4.911,2.48 2.062,1.114 4.068,2.839 5.986,5.167"
         id="path2271" />
      <path
         inkscape:connector-curvature="0"
         style="fill:#f0d5e6"
         d="m 735.597,175.828 -0.021,-0.105 c -0.686,-2.891 -1.39,-5.344 -2.148,-7.363 -1.423,-3.861 -3.126,-6.08 -5.12,-6.64 -1.289,-0.365 -2.081,-0.037 -2.393,0.974 -0.298,1.005 -0.02,1.975 0.838,2.923 0.889,0.986 2.304,2.208 4.233,3.668 1.788,1.6 3.319,3.777 4.611,6.543"
         id="path2273" />
      <path
         inkscape:connector-curvature="0"
         style="fill:#6bc4ee"
         d="m 724.678,168.075 c 1.084,0.733 2.729,1.563 4.911,2.479 2.059,1.196 4.046,2.911 5.986,5.168 -1.38,-2.657 -2.678,-4.892 -3.869,-6.696 -2.331,-3.415 -4.5,-5.152 -6.538,-5.202 -1.331,-0.032 -2.031,0.508 -2.078,1.595 -0.028,1.05 0.508,1.938 1.588,2.656"
         id="path2275" />
      <path
         inkscape:connector-curvature="0"
         style="fill:#eddd00"
         d="m 746.441,183.283 c -2.133,-1.045 -3.761,-1.879 -4.917,-2.494 -2.096,-1.119 -4.117,-2.888 -6.055,-5.274 l 0.055,0.111 c 0.223,0.811 1.521,3.047 3.883,6.692 2.326,3.401 4.496,5.137 6.521,5.192 1.326,0.018 2.011,-0.518 2.058,-1.605 0.028,-1.05 -0.488,-1.928 -1.545,-2.622"
         id="path2277" />
      <path
         inkscape:connector-curvature="0"
         style="fill:#f0d5e6"
         d="m 735.678,175.787 -0.079,-0.087 c -2.006,-2.221 -3.842,-4.048 -5.487,-5.469 -3.11,-2.691 -5.643,-3.786 -7.578,-3.277 -1.271,0.319 -1.786,1.024 -1.535,2.098 0.246,1.061 0.98,1.79 2.178,2.167 1.214,0.421 3.012,0.786 5.376,1.086 2.281,0.517 4.66,1.676 7.125,3.482"
         id="path2279" />
      <path
         inkscape:connector-curvature="0"
         style="fill:#f0d5e6"
         d="m 747.934,180.111 c -2.31,-0.413 -4.102,-0.764 -5.365,-1.057 -2.268,-0.522 -4.613,-1.675 -7.044,-3.427 0.36,0.703 2.176,2.519 5.444,5.481 3.131,2.701 5.662,3.797 7.598,3.287 1.267,-0.333 1.781,-1.039 1.524,-2.127 -0.249,-1.027 -0.979,-1.742 -2.157,-2.157"
         id="path2281" />
      <path
         inkscape:connector-curvature="0"
         style="fill:#f0d5e6"
         d="m 735.682,175.753 -0.083,-0.054 c -2.481,-1.672 -4.676,-2.986 -6.597,-3.968 -3.643,-1.852 -6.325,-2.292 -8.06,-1.3 -1.12,0.655 -1.437,1.474 -0.928,2.468 0.479,0.954 1.349,1.482 2.604,1.568 1.289,0.093 3.083,-0.006 5.371,-0.322 2.329,-0.073 4.89,0.47 7.693,1.608"
         id="path2283" />
      <path
         inkscape:connector-curvature="0"
         style="fill:#eddd00"
         d="m 735.678,175.787 -0.079,-0.087 c -2.006,-2.221 -3.842,-4.048 -5.487,-5.469 -3.11,-2.691 -5.643,-3.786 -7.578,-3.277 -1.271,0.319 -1.786,1.024 -1.535,2.098 0.246,1.061 0.98,1.79 2.178,2.167 1.214,0.421 3.012,0.786 5.376,1.086 2.281,0.517 4.66,1.676 7.125,3.482"
         id="path2285" />
      <path
         inkscape:connector-curvature="0"
         style="fill:#f0d5e6"
         d="m 735.682,175.753 -0.083,-0.054 c -2.481,-1.672 -4.676,-2.986 -6.597,-3.968 -3.643,-1.852 -6.325,-2.292 -8.06,-1.3 -1.12,0.655 -1.437,1.474 -0.928,2.468 0.479,0.954 1.349,1.482 2.604,1.568 1.289,0.093 3.083,-0.006 5.371,-0.322 2.329,-0.073 4.89,0.47 7.693,1.608"
         id="path2287" />
      <path
         inkscape:connector-curvature="0"
         style="fill:#6bc4ee"
         d="m 748.477,176.867 c -2.298,0.159 -4.086,0.272 -5.358,0.318 -2.348,0.063 -4.908,-0.48 -7.709,-1.618 l 0.093,0.082 c 0.58,0.474 2.78,1.802 6.605,3.949 3.656,1.848 6.34,2.288 8.05,1.32 1.121,-0.655 1.432,-1.488 0.938,-2.487 -0.481,-0.954 -1.36,-1.463 -2.619,-1.564"
         id="path2289" />
      <path
         inkscape:connector-curvature="0"
         style="fill:#f0d5e6"
         d="m 727.96,176.092 c 2.154,-0.659 4.688,-0.781 7.615,-0.37 -2.766,-1.037 -5.177,-1.787 -7.266,-2.253 -3.96,-0.904 -6.62,-0.647 -8.015,0.766 -0.905,0.908 -1.003,1.803 -0.276,2.648 0.717,0.816 1.664,1.112 2.869,0.878 1.241,-0.228 2.934,-0.791 5.073,-1.669"
         id="path2291" />
      <path
         inkscape:connector-curvature="0"
         style="fill:#eddd00"
         d="m 742.791,177.88 c 3.954,0.89 6.614,0.632 8.015,-0.766 0.904,-0.908 1.003,-1.803 0.29,-2.652 -0.717,-0.817 -1.678,-1.107 -2.884,-0.874 -2.151,0.754 -3.846,1.317 -5.073,1.669 -2.201,0.658 -4.768,0.774 -7.729,0.358 l 0.092,0.035 c 0.703,0.324 3.142,1.064 7.289,2.23"
         id="path2293" />
      <path
         inkscape:connector-curvature="0"
         style="fill:#f0d5e6"
         d="m 735.728,175.659 -0.126,0.007 c -2.909,-0.273 -5.413,-0.384 -7.506,-0.321 -3.979,0.126 -6.467,1.05 -7.463,2.786 -0.659,1.152 -0.538,2.043 0.378,2.699 0.881,0.605 1.88,0.643 2.985,0.122 1.852,-1.285 3.337,-2.263 4.433,-2.942 1.933,-1.198 4.361,-1.975 7.299,-2.351"
         id="path2295" />
      <path
         inkscape:connector-curvature="0"
         style="fill:#6bc4ee"
         d="m 726.929,173.117 c -3.033,-0.667 -5.24,-0.295 -6.634,1.118 -0.905,0.908 -1.003,1.803 -0.276,2.647 0.717,0.817 1.664,1.113 2.869,0.879 1.24,-0.228 2.934,-0.791 5.072,-1.669 2.154,-0.66 4.688,-0.781 7.614,-0.37 -2.719,-1.084 -5.596,-1.944 -8.645,-2.605"
         id="path2297" />
      <path
         inkscape:connector-curvature="0"
         style="fill:#eddd00"
         d="m 735.728,175.659 -0.126,0.007 c -2.909,-0.273 -5.413,-0.384 -7.506,-0.321 -3.979,0.126 -6.467,1.05 -7.463,2.786 -0.659,1.152 -0.538,2.043 0.378,2.699 0.881,0.605 1.88,0.643 2.985,0.122 1.852,-1.285 3.337,-2.263 4.433,-2.942 1.933,-1.198 4.361,-1.975 7.299,-2.351"
         id="path2299" />
      <path
         inkscape:connector-curvature="0"
         style="fill:#f0d5e6"
         d="m 743.02,176 c 3.973,-0.14 6.477,-1.069 7.485,-2.81 0.618,-1.138 0.48,-2.024 -0.396,-2.661 -0.905,-0.629 -1.896,-0.687 -2.989,-0.136 -1.128,0.545 -2.598,1.519 -4.41,2.919 -1.946,1.202 -4.371,1.993 -7.297,2.351 l 0.08,0.006 c 0.772,0.159 3.289,0.266 7.527,0.331"
         id="path2301" />
      <path
         inkscape:connector-curvature="0"
         style="fill:#e27c9f"
         d="m 646.773,182.65 c -2.062,-3.463 -1.398,-6.289 1.973,-8.476 l 38.571,10.479 c -0.788,2.206 -2.318,4.686 -4.619,7.455 l -35.925,-9.458 z"
         id="path2303" />
      <path
         inkscape:connector-curvature="0"
         style="fill:none;stroke:#c4084a;stroke-width:2.38800001;stroke-linecap:round;stroke-linejoin:round;stroke-miterlimit:10"
         d="m 682.698,192.108 -35.925,-9.458 c -2.062,-3.463 -1.398,-6.289 1.973,-8.475 l 38.571,10.478"
         id="path2305" />
      <path
         inkscape:connector-curvature="0"
         style="fill:#c4084a"
         d="m 698.284,182.135 c 0.017,0.014 0.086,0.118 0.177,0.297 l -2.652,0.85 c -1.658,-2.231 -3.768,-2.833 -6.329,-1.818 0,0.015 0,0.015 -0.015,0.016 -1.826,0.665 -3.724,2.155 -5.697,4.439 l 0.107,-2.302 c 0.527,-2.029 2.059,-3.534 4.575,-4.532 0.015,-0.015 0.015,-0.015 0.03,-0.015 4.029,-1.605 7.301,-0.579 9.804,3.065"
         id="path2307" />
      <path
         inkscape:connector-curvature="0"
         style="fill:#e27c9f"
         d="m 689.465,181.48 c 0.015,-10e-4 0.015,-10e-4 0.015,-0.016 2.562,-1.014 4.671,-0.413 6.329,1.818 l -1.494,0.425 c -0.124,-0.224 -0.249,-0.447 -0.371,-0.655 l -0.935,0.372 0.153,0.769 c 1.244,4.348 3.942,7.178 8.095,8.489 -0.224,1.044 -0.55,1.741 -0.966,2.077 -0.587,0.511 -1.485,0.728 -2.698,0.655 l -0.871,-0.011 -0.403,0.883 c -0.691,1.898 -2.711,2.419 -6.049,1.562 l -0.343,-0.093 -0.374,0.106 c -2.303,0.806 -4.287,0.641 -5.951,-0.51 -2.148,-1.482 -3.639,-3.903 -4.501,-7.276 l -0.627,-2.912 5.294,-1.244 c 1.973,-2.284 3.87,-3.774 5.697,-4.439"
         id="path2309" />
      <path
         inkscape:connector-curvature="0"
         style="fill:#c4084a"
         d="m 679.101,190.075 c 0.862,3.373 2.353,5.794 4.501,7.276 1.664,1.151 3.648,1.316 5.951,0.511 l 0.374,-0.107 0.343,0.093 c 3.338,0.857 5.357,0.336 6.048,-1.562 l 0.404,-0.883 0.871,0.011 c 1.213,0.074 2.112,-0.144 2.698,-0.654 0.416,-0.336 0.742,-1.034 0.966,-2.078 -4.152,-1.311 -6.851,-4.141 -8.095,-8.488 l -0.153,-0.77 0.934,-0.372 c 0.123,0.208 0.248,0.432 0.372,0.655 3.392,5.206 6.399,7.521 8.996,6.947 l 0.303,1.509 c 0.07,2.037 -0.423,3.531 -1.479,4.486 -0.833,0.855 -2.034,1.313 -3.634,1.36 -1.117,2.677 -3.911,3.472 -8.396,2.402 -3.052,0.987 -5.705,0.666 -7.959,-0.994 -2.15,-1.497 -4.021,-4.862 -5.597,-10.109 1.389,0.357 2.25,0.61 2.552,0.767"
         id="path2311" />
      <polygon
         style="fill:#f8ec00"
         points="745.854,186.395 745.685,186.192 745.689,186.457 745.443,186.556 745.697,186.633 745.715,186.897 745.867,186.681 746.125,186.746 745.964,186.534 746.104,186.31 "
         id="polygon2313" />
      <polygon
         style="fill:none;stroke:#ee7600;stroke-width:0.015;stroke-linecap:round;stroke-linejoin:round;stroke-miterlimit:10"
         points="745.685,186.191 745.689,186.458 745.443,186.555 745.697,186.633 745.715,186.897 745.867,186.68 746.124,186.746 745.964,186.534 746.104,186.311 745.854,186.396 "
         id="polygon2315" />
      <polygon
         style="fill:#7dc6a7"
         points="729.426,184.9 729.822,184.389 730.439,184.579 730.081,184.044 730.452,183.515 729.83,183.693 729.442,183.176 729.419,183.822 728.809,184.031 729.413,184.252 "
         id="polygon2317" />
      <polygon
         style="fill:none;stroke:#00946c;stroke-width:0.036;stroke-linecap:round;stroke-linejoin:round;stroke-miterlimit:10"
         points="729.822,184.389 730.439,184.579 730.081,184.044 730.452,183.515 729.83,183.693 729.442,183.176 729.419,183.822 728.808,184.031 729.413,184.252 729.426,184.9 "
         id="polygon2319" />
      <polygon
         style="fill:#f8ec00"
         points="743.352,175.586 743.518,174.688 743.982,175.485 744.932,175.357 744.276,176.025 744.699,176.842 743.832,176.458 743.141,177.093 743.26,176.188 742.413,175.761 "
         id="polygon2321" />
      <polygon
         style="fill:none;stroke:#ee7600;stroke-width:0.051;stroke-linecap:round;stroke-linejoin:round;stroke-miterlimit:10"
         points="743.518,174.688 743.982,175.485 744.932,175.357 744.276,176.025 744.699,176.842 743.832,176.459 743.141,177.093 743.26,176.188 742.414,175.761 743.352,175.586 "
         id="polygon2323" />
      <polygon
         style="fill:#f8ec00"
         points="743.988,159.362 743.937,159.073 743.795,159.33 743.503,159.289 743.705,159.504 743.575,159.768 743.841,159.644 744.053,159.85 744.017,159.557 744.276,159.419 "
         id="polygon2325" />
      <polygon
         style="fill:none;stroke:#ee7600;stroke-width:0.016;stroke-linecap:round;stroke-linejoin:round;stroke-miterlimit:10"
         points="743.937,159.072 743.795,159.331 743.503,159.289 743.705,159.504 743.575,159.768 743.842,159.644 744.053,159.849 744.017,159.557 744.276,159.419 743.988,159.362 "
         id="polygon2327" />
      <polygon
         style="fill:#7dc6a7"
         points="737.301,170.12 737.208,169.377 737.868,169.027 737.136,168.883 737.006,168.147 736.645,168.802 735.904,168.696 736.414,169.244 736.085,169.913 736.761,169.599 "
         id="polygon2329" />
      <polygon
         style="fill:none;stroke:#00946c;stroke-width:0.041;stroke-linecap:round;stroke-linejoin:round;stroke-miterlimit:10"
         points="737.208,169.377 737.868,169.027 737.136,168.883 737.006,168.147 736.645,168.802 735.904,168.696 736.414,169.244 736.085,169.913 736.761,169.599 737.301,170.12 "
         id="polygon2331" />
      <polygon
         style="fill:#f8ec00"
         points="724.561,166.54 723.951,166.82 724.602,166.985 724.681,167.652 725.039,167.083 725.696,167.216 725.269,166.7 725.597,166.112 724.972,166.363 724.517,165.87 "
         id="polygon2333" />
      <polygon
         style="fill:none;stroke:#ee7600;stroke-width:0.037;stroke-linecap:round;stroke-linejoin:round;stroke-miterlimit:10"
         points="725.696,167.216 725.269,166.7 725.597,166.112 724.972,166.363 724.517,165.87 724.561,166.54 724.561,166.539 723.951,166.82 724.602,166.985 724.681,167.652 725.04,167.083 "
         id="polygon2335" />
      <polygon
         style="fill:#f8ec00"
         points="730.479,195.91 730.546,195.814 730.432,195.847 730.362,195.752 730.357,195.87 730.246,195.908 730.356,195.949 730.358,196.067 730.431,195.973 730.544,196.008 "
         id="polygon2337" />
      <polygon
         style="fill:none;stroke:#ee7600;stroke-width:0.006;stroke-linecap:round;stroke-linejoin:round;stroke-miterlimit:10"
         points="730.546,195.813 730.432,195.848 730.362,195.752 730.357,195.871 730.246,195.909 730.356,195.95 730.358,196.067 730.431,195.974 730.544,196.009 730.478,195.911 "
         id="polygon2339" />
      <polygon
         style="fill:#f8ec00"
         points="745.553,186.907 745.604,186.618 745.746,186.875 746.037,186.834 745.836,187.048 745.966,187.312 745.701,187.189 745.488,187.394 745.524,187.102 745.265,186.964 "
         id="polygon2341" />
      <polygon
         style="fill:none;stroke:#ee7600;stroke-width:0.016;stroke-linecap:round;stroke-linejoin:round;stroke-miterlimit:10"
         points="745.604,186.618 745.746,186.875 746.037,186.833 745.836,187.049 745.966,187.312 745.7,187.188 745.488,187.394 745.524,187.101 745.265,186.965 745.553,186.908 "
         id="polygon2343" />
      <polygon
         style="fill:#f8ec00"
         points="738.323,179.537 738.271,179.248 738.129,179.505 737.838,179.463 738.038,179.679 737.91,179.943 738.176,179.819 738.388,180.023 738.353,179.732 738.611,179.594 "
         id="polygon2345" />
      <polygon
         style="fill:none;stroke:#ee7600;stroke-width:0.016;stroke-linecap:round;stroke-linejoin:round;stroke-miterlimit:10"
         points="738.271,179.247 738.129,179.505 737.838,179.463 738.038,179.679 737.91,179.943 738.177,179.819 738.388,180.023 738.353,179.732 738.611,179.594 738.323,179.537 "
         id="polygon2347" />
      <polygon
         style="fill:#f8ec00"
         points="724.959,176.907 724.69,177.032 724.976,177.103 725.012,177.396 725.168,177.146 725.457,177.202 725.268,176.978 725.41,176.719 725.139,176.831 724.938,176.615 "
         id="polygon2349" />
      <polygon
         style="fill:none;stroke:#ee7600;stroke-width:0.016;stroke-linecap:round;stroke-linejoin:round;stroke-miterlimit:10"
         points="724.69,177.032 724.976,177.103 725.012,177.396 725.168,177.146 725.457,177.203 725.268,176.978 725.41,176.72 725.139,176.831 724.938,176.616 724.958,176.908 "
         id="polygon2351" />
      <polygon
         style="fill:#7dc6a7"
         points="744.354,176.549 744.893,175.947 744.484,175.259 745.262,175.552 745.831,174.977 745.773,175.761 746.533,176.094 745.72,176.284 745.622,177.066 745.177,176.399 "
         id="polygon2353" />
      <polygon
         style="fill:none;stroke:#00946c;stroke-width:0.046;stroke-linecap:round;stroke-linejoin:round;stroke-miterlimit:10"
         points="744.893,175.946 744.484,175.258 745.262,175.552 745.831,174.976 745.773,175.761 746.533,176.094 745.72,176.283 745.622,177.065 745.177,176.399 744.354,176.549 "
         id="polygon2355" />
      <polygon
         style="fill:#7dc6a7"
         points="746.843,192.879 748.028,192.475 748.05,191.289 748.825,192.222 750.029,191.874 749.325,192.858 750.049,193.83 748.836,193.502 748.081,194.451 748.036,193.267 "
         id="polygon2357" />
      <polygon
         style="fill:none;stroke:#00946c;stroke-width:0.069;stroke-linecap:round;stroke-linejoin:round;stroke-miterlimit:10"
         points="748.028,192.476 748.05,191.29 748.825,192.222 750.029,191.875 749.325,192.858 750.049,193.831 748.836,193.503 748.081,194.451 748.036,193.267 746.843,192.879 "
         id="polygon2359" />
      <polygon
         style="fill:#7dc6a7"
         points="761.525,201.583 761.355,199.729 759.459,199.22 761.27,198.491 761.2,196.631 762.495,198.036 764.349,197.396 763.333,198.992 764.552,200.453 762.631,200.038 "
         id="polygon2361" />
      <polygon
         style="fill:none;stroke:#00946c;stroke-width:0.104;stroke-linecap:round;stroke-linejoin:round;stroke-miterlimit:10"
         points="761.355,199.729 759.459,199.219 761.27,198.491 761.2,196.631 762.495,198.035 764.349,197.396 763.333,198.992 764.552,200.453 762.631,200.038 761.525,201.583 "
         id="polygon2363" />
      <polygon
         style="fill:#f8ec00"
         points="756.432,186.005 757.379,183.833 755.117,184.894 753.103,183.272 753.631,185.639 751.437,186.804 754.021,187.207 754.683,189.556 755.752,187.434 758.351,187.716 "
         id="polygon2365" />
      <polygon
         style="fill:none;stroke:#ee7600;stroke-width:0.134;stroke-linecap:round;stroke-linejoin:round;stroke-miterlimit:10"
         points="757.379,183.833 755.117,184.894 753.103,183.272 753.631,185.639 751.437,186.804 754.021,187.207 754.683,189.556 755.752,187.434 758.351,187.716 756.432,186.005 "
         id="polygon2367" />
      <polygon
         style="fill:#7dc6a7"
         points="761.274,175.706 762.384,174.465 761.546,173.049 763.141,173.652 764.312,172.465 764.192,174.083 765.755,174.766 764.084,175.159 763.88,176.766 762.967,175.396 "
         id="polygon2369" />
      <polygon
         style="fill:none;stroke:#00946c;stroke-width:0.094;stroke-linecap:round;stroke-linejoin:round;stroke-miterlimit:10"
         points="762.384,174.465 761.545,173.049 763.141,173.652 764.312,172.465 764.192,174.082 765.754,174.766 764.084,175.159 763.879,176.766 762.967,175.396 761.274,175.706 "
         id="polygon2371" />
      <polygon
         style="fill:#7dc6a7"
         points="761.784,185.878 763.021,184.494 762.088,182.917 763.867,183.587 765.174,182.264 765.039,184.068 766.78,184.829 764.918,185.268 764.689,187.061 763.673,185.532 "
         id="polygon2373" />
      <polygon
         style="fill:none;stroke:#00946c;stroke-width:0.105;stroke-linecap:round;stroke-linejoin:round;stroke-miterlimit:10"
         points="763.021,184.495 762.088,182.917 763.867,183.587 765.174,182.264 765.039,184.067 766.78,184.83 764.918,185.269 764.689,187.062 763.673,185.532 761.784,185.878 "
         id="polygon2375" />
      <polygon
         style="fill:#f8ec00"
         points="759.562,192.962 758.896,193.353 759.652,193.441 759.81,194.157 760.16,193.486 760.923,193.535 760.923,193.534 760.385,193.034 760.699,192.348 760.015,192.71 759.445,192.237 "
         id="polygon2377" />
      <polygon
         style="fill:none;stroke:#ee7600;stroke-width:0.04;stroke-linecap:round;stroke-linejoin:round;stroke-miterlimit:10"
         points="760.699,192.348 760.015,192.71 759.445,192.237 759.562,192.962 758.896,193.353 759.652,193.441 759.81,194.157 760.16,193.486 760.923,193.535 760.385,193.034 "
         id="polygon2379" />
      <polygon
         style="fill:#f8ec00"
         points="775.659,188.453 776.541,189.771 774.975,189.268 773.916,190.468 773.939,188.908 772.402,188.333 773.979,187.871 774.09,186.312 775.043,187.588 776.646,187.205 "
         id="polygon2381" />
      <polygon
         style="fill:none;stroke:#ee7600;stroke-width:0.086;stroke-linecap:round;stroke-linejoin:round;stroke-miterlimit:10"
         points="776.541,189.771 774.975,189.268 773.917,190.468 773.939,188.908 772.402,188.333 773.979,187.871 774.09,186.312 775.043,187.589 776.646,187.205 775.659,188.453 "
         id="polygon2383" />
      <polygon
         style="fill:#f8ec00"
         points="756.003,183.766 760.021,178.686 760.286,185.017 766.661,187.044 760.35,189.243 760.282,195.574 756.116,190.612 749.68,192.5 753.426,187.23 749.533,182.066 "
         id="polygon2385" />
      <polygon
         style="fill:none;stroke:#ee7600;stroke-width:0.35299999;stroke-linecap:round;stroke-linejoin:round;stroke-miterlimit:10"
         points="760.021,178.685 760.286,185.018 766.661,187.044 760.35,189.244 760.282,195.575 756.116,190.613 749.68,192.5 753.426,187.23 749.533,182.066 756.003,183.767 "
         id="polygon2387" />
      <polygon
         style="fill:#7dc6a7"
         points="767.661,194.283 768.2,193.68 767.793,192.993 768.568,193.286 769.137,192.71 769.079,193.496 769.838,193.828 769.027,194.018 768.928,194.799 768.484,194.133 "
         id="polygon2389" />
      <polygon
         style="fill:none;stroke:#00946c;stroke-width:0.046;stroke-linecap:round;stroke-linejoin:round;stroke-miterlimit:10"
         points="768.2,193.679 767.793,192.992 768.568,193.285 769.137,192.71 769.079,193.495 769.839,193.827 769.027,194.018 768.928,194.799 768.484,194.133 767.661,194.283 "
         id="polygon2391" />
      <polygon
         style="fill:#7dc6a7"
         points="770.15,210.612 771.335,210.209 771.356,209.022 772.132,209.956 773.338,209.607 772.632,210.591 773.356,211.563 772.145,211.236 771.389,212.185 771.344,211 "
         id="polygon2393" />
      <polygon
         style="fill:none;stroke:#00946c;stroke-width:0.069;stroke-linecap:round;stroke-linejoin:round;stroke-miterlimit:10"
         points="771.335,210.21 771.356,209.023 772.132,209.956 773.338,209.608 772.632,210.592 773.356,211.564 772.145,211.237 771.389,212.185 771.344,211.001 770.15,210.613 "
         id="polygon2395" />
      <polygon
         style="fill:#7dc6a7"
         points="784.834,219.316 784.663,217.462 782.765,216.954 784.577,216.224 784.506,214.364 785.801,215.768 787.655,215.129 786.64,216.726 787.859,218.186 785.938,217.771 "
         id="polygon2397" />
      <polygon
         style="fill:none;stroke:#00946c;stroke-width:0.104;stroke-linecap:round;stroke-linejoin:round;stroke-miterlimit:10"
         points="784.663,217.462 782.765,216.954 784.577,216.223 784.506,214.364 785.801,215.769 787.655,215.129 786.64,216.725 787.859,218.187 785.938,217.771 784.833,219.316 "
         id="polygon2399" />
      <polygon
         style="fill:#f8ec00"
         points="779.738,203.738 780.687,201.566 778.425,202.628 776.41,201.005 776.938,203.372 774.744,204.537 777.327,204.941 777.989,207.29 779.06,205.167 781.657,205.449 "
         id="polygon2401" />
      <polygon
         style="fill:none;stroke:#ee7600;stroke-width:0.134;stroke-linecap:round;stroke-linejoin:round;stroke-miterlimit:10"
         points="780.687,201.566 778.426,202.628 776.41,201.005 776.938,203.372 774.744,204.537 777.327,204.941 777.989,207.291 779.06,205.167 781.657,205.449 779.738,203.738 "
         id="polygon2403" />
      <polygon
         style="fill:#7dc6a7"
         points="784.58,193.44 785.689,192.198 784.853,190.783 786.447,191.384 787.62,190.198 787.5,191.816 789.061,192.5 787.391,192.893 787.187,194.5 786.273,193.129 "
         id="polygon2405" />
      <polygon
         style="fill:none;stroke:#00946c;stroke-width:0.094;stroke-linecap:round;stroke-linejoin:round;stroke-miterlimit:10"
         points="785.689,192.199 784.852,190.783 786.447,191.385 787.62,190.199 787.5,191.816 789.061,192.5 787.391,192.893 787.187,194.5 786.273,193.129 784.58,193.44 "
         id="polygon2407" />
      <polygon
         style="fill:#7dc6a7"
         points="785.092,203.612 786.328,202.228 785.396,200.649 787.173,201.322 788.48,199.999 788.347,201.802 790.088,202.563 788.225,203.001 787.997,204.795 786.979,203.266 "
         id="polygon2409" />
      <polygon
         style="fill:none;stroke:#00946c;stroke-width:0.105;stroke-linecap:round;stroke-linejoin:round;stroke-miterlimit:10"
         points="786.328,202.229 785.396,200.649 787.173,201.321 788.48,200 788.347,201.801 790.088,202.563 788.225,203.001 787.997,204.795 786.979,203.266 785.092,203.612 "
         id="polygon2411" />
      <polygon
         style="fill:#f8ec00"
         points="783.691,210.767 784.007,210.082 783.321,210.443 782.753,209.971 782.869,210.695 782.203,211.088 782.959,211.174 783.117,211.891 783.468,211.219 784.229,211.269 "
         id="polygon2413" />
      <polygon
         style="fill:none;stroke:#ee7600;stroke-width:0.04;stroke-linecap:round;stroke-linejoin:round;stroke-miterlimit:10"
         points="784.007,210.082 783.321,210.443 782.754,209.971 782.869,210.695 782.203,211.088 782.96,211.174 783.117,211.891 783.468,211.219 784.229,211.269 783.691,210.767 "
         id="polygon2415" />
      <polygon
         style="fill:#f8ec00"
         points="798.966,206.187 799.848,207.506 798.282,207.001 797.223,208.201 797.246,206.641 795.709,206.066 797.287,205.604 797.396,204.045 798.349,205.322 799.953,204.938 "
         id="polygon2417" />
      <polygon
         style="fill:none;stroke:#ee7600;stroke-width:0.086;stroke-linecap:round;stroke-linejoin:round;stroke-miterlimit:10"
         points="799.848,207.505 798.281,207.001 797.223,208.201 797.246,206.641 795.709,206.065 797.287,205.604 797.396,204.044 798.35,205.322 799.953,204.938 798.966,206.187 "
         id="polygon2419" />
      <polygon
         style="fill:#f8ec00"
         points="779.309,201.501 783.328,196.418 783.593,202.751 789.97,204.778 783.656,206.976 783.589,213.308 779.423,208.346 772.988,210.233 776.734,204.964 772.842,199.8 "
         id="polygon2421" />
      <polygon
         style="fill:none;stroke:#ee7600;stroke-width:0.35299999;stroke-linecap:round;stroke-linejoin:round;stroke-miterlimit:10"
         points="783.328,196.418 783.593,202.751 789.97,204.778 783.656,206.977 783.59,213.308 779.423,208.346 772.987,210.233 776.734,204.964 772.842,199.8 779.31,201.501 "
         id="polygon2423" />
      <polygon
         style="fill:#7dc6a7"
         points="821.793,230.576 819.19,227.137 821.479,223.491 817.41,224.881 814.643,221.58 814.72,225.887 810.723,227.497 814.845,228.758 815.134,233.052 817.604,229.532 "
         id="polygon2425" />
      <polygon
         style="fill:none;stroke:#00946c;stroke-width:0.237;stroke-linecap:round;stroke-linejoin:round;stroke-miterlimit:10"
         points="819.19,227.138 821.479,223.491 817.41,224.881 814.643,221.58 814.72,225.888 810.723,227.497 814.845,228.758 815.134,233.052 817.604,229.532 821.792,230.576 "
         id="polygon2427" />
      <polygon
         style="fill:#7dc6a7"
         points="781.101,232.505 785.039,227.444 791.159,229.327 787.595,224.017 791.271,218.77 785.113,220.54 781.263,215.418 781.038,221.824 774.98,223.893 780.988,226.086 "
         id="polygon2429" />
      <polygon
         style="fill:none;stroke:#00946c;stroke-width:0.35299999;stroke-linecap:round;stroke-linejoin:round;stroke-miterlimit:10"
         points="785.039,227.444 791.159,229.327 787.595,224.017 791.271,218.77 785.113,220.54 781.263,215.418 781.037,221.824 774.98,223.893 780.988,226.086 781.101,232.505 "
         id="polygon2431" />
      <polygon
         style="fill:#f8ec00"
         points="810.647,204.475 812.116,196.659 816.222,203.602 824.616,202.487 818.834,208.295 822.565,215.415 814.893,212.073 808.782,217.597 809.831,209.715 802.345,206.003 "
         id="polygon2433" />
      <polygon
         style="fill:none;stroke:#ee7600;stroke-width:0.43700001;stroke-linecap:round;stroke-linejoin:round;stroke-miterlimit:10"
         points="812.117,196.659 816.222,203.601 824.617,202.488 818.834,208.296 822.565,215.414 814.893,212.073 808.782,217.597 809.831,209.715 802.345,206.003 810.647,204.475 "
         id="polygon2435" />
      <polygon
         style="fill:#7dc6a7"
         points="816.472,183.301 815.731,177.372 821.006,174.579 815.157,173.428 814.122,167.548 811.231,172.771 805.318,171.935 809.392,176.303 806.764,181.658 812.167,179.145 "
         id="polygon2437" />
      <polygon
         style="fill:none;stroke:#00946c;stroke-width:0.329;stroke-linecap:round;stroke-linejoin:round;stroke-miterlimit:10"
         points="815.731,177.371 821.006,174.578 815.157,173.428 814.122,167.548 811.231,172.771 805.318,171.934 809.392,176.302 806.764,181.657 812.167,179.145 816.472,183.301 "
         id="polygon2439" />
      <polygon
         style="fill:#7dc6a7"
         points="802.764,201.071 802.014,195.058 807.36,192.227 801.431,191.06 800.381,185.098 797.449,190.394 791.453,189.544 795.584,193.975 792.92,199.405 798.398,196.857 "
         id="polygon2441" />
      <polygon
         style="fill:none;stroke:#00946c;stroke-width:0.333;stroke-linecap:round;stroke-linejoin:round;stroke-miterlimit:10"
         points="802.014,195.058 807.36,192.227 801.431,191.06 800.381,185.098 797.449,190.394 791.453,189.545 795.584,193.975 792.919,199.405 798.398,196.857 802.764,201.071 "
         id="polygon2443" />
      <polygon
         style="fill:#f8ec00"
         points="795.832,212.535 796.364,209.325 797.852,212.176 800.896,211.718 798.799,214.102 800.151,217.025 797.37,215.654 795.154,217.921 795.535,214.686 792.821,213.162 "
         id="polygon2445" />
      <polygon
         style="fill:none;stroke:#ee7600;stroke-width:0.17399999;stroke-linecap:round;stroke-linejoin:round;stroke-miterlimit:10"
         points="796.364,209.326 797.853,212.176 800.896,211.719 798.799,214.103 800.151,217.025 797.37,215.654 795.154,217.922 795.535,214.686 792.821,213.162 795.832,212.535 "
         id="polygon2447" />
      <polygon
         style="fill:#f8ec00"
         points="772.252,186.802 767.549,188.993 772.583,190.244 773.209,195.397 775.96,190.995 781.047,191.996 777.723,188.026 780.242,183.478 775.431,185.433 771.901,181.635 "
         id="polygon2449" />
      <polygon
         style="fill:none;stroke:#ee7600;stroke-width:0.285;stroke-linecap:round;stroke-linejoin:round;stroke-miterlimit:10"
         points="767.549,188.992 772.583,190.243 773.209,195.396 775.96,190.994 781.047,191.996 777.723,188.025 780.242,183.477 775.431,185.432 771.901,181.634 772.252,186.801 "
         id="polygon2451" />
    </g>
  </g>
</svg>
