<?xml version="1.0" encoding="UTF-8" standalone="no"?>
<!-- Created with Inkscape (http://www.inkscape.org/) -->

<svg
   xmlns:dc="http://purl.org/dc/elements/1.1/"
   xmlns:cc="http://creativecommons.org/ns#"
   xmlns:rdf="http://www.w3.org/1999/02/22-rdf-syntax-ns#"
   xmlns:svg="http://www.w3.org/2000/svg"
   xmlns="http://www.w3.org/2000/svg"
   xmlns:sodipodi="http://sodipodi.sourceforge.net/DTD/sodipodi-0.dtd"
   xmlns:inkscape="http://www.inkscape.org/namespaces/inkscape"
   width="163.3226"
   height="170.72971"
   id="svg5696"
   version="1.1"
   inkscape:version="0.48.4 r9939"
   sodipodi:docname="abby9.svg">
  <defs
     id="defs5698" />
  <sodipodi:namedview
     id="base"
     pagecolor="#ffffff"
     bordercolor="#666666"
     borderopacity="1.0"
     inkscape:pageopacity="0.0"
     inkscape:pageshadow="2"
     inkscape:zoom="0.77472527"
     inkscape:cx="44.731168"
     inkscape:cy="83.312108"
     inkscape:current-layer="layer1"
     inkscape:document-units="px"
     showgrid="false"
     inkscape:window-width="942"
     inkscape:window-height="591"
     inkscape:window-x="414"
     inkscape:window-y="49"
     inkscape:window-maximized="0"
     fit-margin-top="0"
     fit-margin-left="0"
     fit-margin-right="0"
     fit-margin-bottom="0" />
  <metadata
     id="metadata5701">
    <rdf:RDF>
      <cc:Work
         rdf:about="">
        <dc:format>image/svg+xml</dc:format>
        <dc:type
           rdf:resource="http://purl.org/dc/dcmitype/StillImage" />
        <dc:title></dc:title>
      </cc:Work>
    </rdf:RDF>
  </metadata>
  <g
     id="layer1"
     inkscape:label="Layer 1"
     inkscape:groupmode="layer"
     transform="translate(-65.370281,-152.5824)">
    <g
       transform="translate(-302.93603,-387.97582)"
       id="g5">
      <path
         inkscape:connector-curvature="0"
         style="fill:#c4084b"
         d="m 432.846,683.684 c -4.513,1.955 -9.479,3.926 -13.571,5.918 -0.177,0.084 -0.528,0.449 -0.524,0.258 -0.449,24.369 -26.965,26.691 -12.343,-0.646 0.842,-1.57 17.402,-7.877 23.228,-9.996"
         id="path7" />
      <path
         inkscape:connector-curvature="0"
         style="fill:none;stroke:#c4084b;stroke-width:4.7249999"
         d="m 432.846,683.684 c -4.513,1.955 -9.479,3.926 -13.571,5.918 -0.177,0.084 -0.528,0.449 -0.524,0.258 -0.449,24.369 -26.965,26.691 -12.343,-0.646 0.842,-1.57 17.402,-7.877 23.228,-9.996"
         id="path9" />
      <path
         inkscape:connector-curvature="0"
         style="fill:#e27c9f"
         d="m 432.846,683.684 c -4.513,1.955 -9.479,3.926 -13.571,5.918 -0.177,0.084 -0.528,0.449 -0.524,0.258 -0.449,24.369 -26.965,26.691 -12.343,-0.646 0.842,-1.57 17.402,-7.877 23.228,-9.996"
         id="path11" />
      <path
         inkscape:connector-curvature="0"
         style="fill:#c4084b"
         d="m 420.834,674.215 c -4.514,1.953 -9.479,3.924 -13.572,5.916 -0.176,0.086 -0.527,0.449 -0.523,0.258 -0.449,24.371 -26.965,26.693 -12.343,-0.646 0.841,-1.57 17.401,-7.877 23.228,-9.994"
         id="path13" />
      <path
         inkscape:connector-curvature="0"
         style="fill:none;stroke:#c4084b;stroke-width:4.7249999"
         d="m 420.834,674.215 c -4.514,1.953 -9.479,3.924 -13.572,5.916 -0.176,0.086 -0.527,0.449 -0.523,0.258 -0.449,24.371 -26.965,26.693 -12.343,-0.646 0.841,-1.57 17.401,-7.877 23.228,-9.994"
         id="path15" />
      <path
         inkscape:connector-curvature="0"
         style="fill:#e27c9f"
         d="m 420.834,674.215 c -4.514,1.953 -9.479,3.924 -13.572,5.916 -0.176,0.086 -0.527,0.449 -0.523,0.258 -0.449,24.371 -26.965,26.693 -12.343,-0.646 0.841,-1.57 17.401,-7.877 23.228,-9.994"
         id="path17" />
      <path
         inkscape:connector-curvature="0"
         style="fill:#e27c9f"
         d="m 438.437,643.299 c 8.098,-7.117 19.248,-12.299 30.004,-5.414 5.038,3.221 3.152,9.691 -0.719,12.555 -4.51,3.338 -9.5,4.574 -14.851,5.82 4.316,0.639 11.455,5.4 9.434,10.93 -2.298,6.281 -10.943,1.562 -14.745,-0.268 -5.535,-2.654 -10.818,-6.701 -11.887,-13.105 -0.465,-2.784 -0.01,-7.778 2.764,-10.518"
         id="path19" />
      <path
         inkscape:connector-curvature="0"
         style="fill:#f8e6f0"
         d="m 438.437,643.299 c 8.098,-7.117 19.248,-12.299 30.004,-5.414 5.038,3.221 3.152,9.691 -0.719,12.555 -4.51,3.338 -9.5,4.574 -14.851,5.82 4.316,0.639 11.455,5.4 9.434,10.93 -2.298,6.281 -10.943,1.562 -14.745,-0.268 -5.535,-2.654 -10.818,-6.701 -11.887,-13.105 -0.465,-2.784 -0.01,-7.778 2.764,-10.518"
         id="path21" />
      <path
         inkscape:connector-curvature="0"
         style="fill:none;stroke:#e17c9f;stroke-width:2.16000009"
         d="m 438.437,643.299 c 8.098,-7.117 19.248,-12.299 30.004,-5.414 5.038,3.221 3.152,9.691 -0.719,12.555 -4.51,3.338 -9.5,4.574 -14.851,5.82 4.316,0.639 11.455,5.4 9.434,10.93 -2.298,6.281 -10.943,1.562 -14.745,-0.268 -5.535,-2.654 -10.818,-6.701 -11.887,-13.105 -0.465,-2.784 -0.01,-7.778 2.764,-10.518"
         id="path23" />
      <path
         inkscape:connector-curvature="0"
         style="fill:#e27c9f"
         d="m 438.063,644.117 c -2.167,-13.682 -8.616,-27.904 -23.752,-29.729 -7.086,-0.855 -10.19,7.148 -8.75,13.154 1.675,6.992 5.375,12.275 9.4,17.859 -4.479,-2.855 -14.671,-3.873 -16.942,3.299 -2.583,8.152 8.971,10.43 13.868,11.682 7.121,1.822 15.053,2.055 20.851,-3.492 2.517,-2.408 5.84,-7.779 5.325,-12.773"
         id="path25" />
      <path
         inkscape:connector-curvature="0"
         style="fill:#f8e6f0"
         d="m 438.063,644.117 c -2.167,-13.682 -8.616,-27.904 -23.752,-29.729 -7.086,-0.855 -10.19,7.148 -8.75,13.154 1.675,6.992 5.375,12.275 9.4,17.859 -4.479,-2.855 -14.671,-3.873 -16.942,3.299 -2.583,8.152 8.971,10.43 13.868,11.682 7.121,1.822 15.053,2.055 20.851,-3.492 2.517,-2.408 5.84,-7.779 5.325,-12.773"
         id="path27" />
      <path
         inkscape:connector-curvature="0"
         style="fill:none;stroke:#e17c9f;stroke-width:2.16000009"
         d="m 438.063,644.117 c -2.167,-13.682 -8.616,-27.904 -23.752,-29.729 -7.086,-0.855 -10.19,7.148 -8.75,13.154 1.675,6.992 5.375,12.275 9.4,17.859 -4.479,-2.855 -14.671,-3.873 -16.942,3.299 -2.583,8.152 8.971,10.43 13.868,11.682 7.121,1.822 15.053,2.055 20.851,-3.492 2.517,-2.408 5.84,-7.779 5.325,-12.773"
         id="path29" />
      <path
         inkscape:connector-curvature="0"
         style="fill:#3992d1"
         d="m 436.588,649.398 c 0,0 -15.001,20.789 -12.096,34.846 0,0 14.657,-3.246 21.361,-35.09 l -9.265,0.244 z"
         id="path31" />
      <path
         inkscape:connector-curvature="0"
         style="fill:none;stroke:#3992d1;stroke-width:4.7249999"
         d="m 436.588,649.398 c 0,0 -15.001,20.789 -12.096,34.846 0,0 14.657,-3.246 21.361,-35.09 l -9.265,0.244 z"
         id="path33" />
      <path
         inkscape:connector-curvature="0"
         style="fill:#3992d1"
         d="m 443.248,651.518 c 0,0 -11.809,22.803 -6.276,35.082 0,0 14.606,-6.52 15.833,-37.533 l -9.557,2.451 z"
         id="path35" />
      <path
         inkscape:connector-curvature="0"
         style="fill:none;stroke:#3992d1;stroke-width:4.7249999"
         d="m 443.248,651.518 c 0,0 -11.809,22.803 -6.276,35.082 0,0 14.606,-6.52 15.833,-37.533 l -9.557,2.451 z"
         id="path37" />
      <path
         inkscape:connector-curvature="0"
         style="fill:#3992d1"
         d="m 436.659,646.668 c 0,0 -20.028,12.65 -23.775,28.561 0,0 12.37,4.973 30.833,-23.58 l -7.058,-4.981 z"
         id="path39" />
      <path
         inkscape:connector-curvature="0"
         style="fill:none;stroke:#3992d1;stroke-width:4.7249999"
         d="m 436.659,646.668 c 0,0 -20.028,12.65 -23.775,28.561 0,0 12.37,4.973 30.833,-23.58 l -7.058,-4.981 z"
         id="path41" />
      <path
         inkscape:connector-curvature="0"
         style="fill:#3992d1"
         d="m 436.695,639.971 -13.756,15.721 c 0,0 10.786,15.158 25.385,13.002 l 5.691,-20.852 -17.32,-7.871 z"
         id="path43" />
      <path
         inkscape:connector-curvature="0"
         style="fill:none;stroke:#3992d1;stroke-width:4.7249999"
         d="m 436.695,639.971 -13.756,15.721 c 0,0 10.786,15.158 25.385,13.002 l 5.691,-20.852 -17.32,-7.871 z"
         id="path45" />
      <path
         inkscape:connector-curvature="0"
         style="fill:#3992d1"
         d="m 433.924,643.318 c 0,0 -20.456,10.783 -25.361,26.629 0,0 11.616,6.395 31.817,-20.793 l -6.456,-5.836 z"
         id="path47" />
      <path
         inkscape:connector-curvature="0"
         style="fill:none;stroke:#3992d1;stroke-width:4.7249999"
         d="m 433.924,643.318 c 0,0 -20.456,10.783 -25.361,26.629 0,0 11.616,6.395 31.817,-20.793 l -6.456,-5.836 z"
         id="path49" />
      <path
         inkscape:connector-curvature="0"
         style="fill:#3992d1"
         d="m 434.049,648.092 c 0,0 -17.391,18.213 -17,33.393 0,0 14.186,-0.129 25.669,-31.604 l -8.669,-1.789 z"
         id="path51" />
      <path
         inkscape:connector-curvature="0"
         style="fill:none;stroke:#3992d1;stroke-width:4.7249999"
         d="m 434.049,648.092 c 0,0 -17.391,18.213 -17,33.393 0,0 14.186,-0.129 25.669,-31.604 l -8.669,-1.789 z"
         id="path53" />
      <path
         inkscape:connector-curvature="0"
         style="fill:#3992d1"
         d="m 437.489,653.107 c 0,0 -13.143,22.109 -8.63,35.158 0,0 14.697,-5.242 18.115,-36.74 l -9.485,1.582 z"
         id="path55" />
      <path
         inkscape:connector-curvature="0"
         style="fill:none;stroke:#3992d1;stroke-width:4.7249999"
         d="m 437.489,653.107 c 0,0 -13.143,22.109 -8.63,35.158 0,0 14.697,-5.242 18.115,-36.74 l -9.485,1.582 z"
         id="path57" />
      <path
         inkscape:connector-curvature="0"
         style="fill:#3992d1"
         d="m 443.532,656.426 c 0,0 -8.305,23.865 -0.462,33.984 0,0 14.004,-9.406 9.939,-38.453 l -9.477,4.469 z"
         id="path59" />
      <path
         inkscape:connector-curvature="0"
         style="fill:none;stroke:#3992d1;stroke-width:4.7249999"
         d="m 443.532,656.426 c 0,0 -8.305,23.865 -0.462,33.984 0,0 14.004,-9.406 9.939,-38.453 l -9.477,4.469 z"
         id="path61" />
      <path
         inkscape:connector-curvature="0"
         style="fill:#bc9fca"
         d="m 436.588,649.398 c 0,0 -15.001,20.789 -12.096,34.846 0,0 14.657,-3.246 21.361,-35.09 l -9.265,0.244 z"
         id="path63" />
      <path
         inkscape:connector-curvature="0"
         style="fill:#bc9fca"
         d="m 443.248,651.518 c 0,0 -11.809,22.803 -6.276,35.082 0,0 14.606,-6.52 15.833,-37.533 l -9.557,2.451 z"
         id="path65" />
      <path
         inkscape:connector-curvature="0"
         style="fill:#bc9fca"
         d="m 436.659,646.668 c 0,0 -20.028,12.65 -23.775,28.561 0,0 12.37,4.973 30.833,-23.58 l -7.058,-4.981 z"
         id="path67" />
      <path
         inkscape:connector-curvature="0"
         style="fill:#86c1ea"
         d="m 436.695,639.971 -13.756,15.721 c 0,0 10.786,15.158 25.385,13.002 l 5.691,-20.852 -17.32,-7.871 z"
         id="path69" />
      <path
         inkscape:connector-curvature="0"
         style="fill:#86c1ea"
         d="m 433.924,643.318 c 0,0 -20.456,10.783 -25.361,26.629 0,0 11.616,6.395 31.817,-20.793 l -6.456,-5.836 z"
         id="path71" />
      <path
         inkscape:connector-curvature="0"
         style="fill:#86c1ea"
         d="m 434.049,648.092 c 0,0 -17.391,18.213 -17,33.393 0,0 14.186,-0.129 25.669,-31.604 l -8.669,-1.789 z"
         id="path73" />
      <path
         inkscape:connector-curvature="0"
         style="fill:#86c1ea"
         d="m 437.489,653.107 c 0,0 -13.143,22.109 -8.63,35.158 0,0 14.697,-5.242 18.115,-36.74 l -9.485,1.582 z"
         id="path75" />
      <path
         inkscape:connector-curvature="0"
         style="fill:#86c1ea"
         d="m 443.532,656.426 c 0,0 -8.305,23.865 -0.462,33.984 0,0 14.004,-9.406 9.939,-38.453 l -9.477,4.469 z"
         id="path77" />
      <path
         inkscape:connector-curvature="0"
         style="fill:#c4084b"
         d="m 408.138,654.811 c 0.59,0.639 0.081,10.293 -3.554,10.795 -2.565,0.354 -3.003,-3.992 -3.029,-5.402 -0.199,1.08 -4.346,6.299 -6.153,5.562 -4.148,-1.688 -0.987,-6.59 1.361,-10.031 -0.978,0.914 -4.463,6.008 -6.094,4.297 -3.297,-2.652 1.878,-8.865 2.936,-9.066 -1.5,0.688 -3.758,4.342 -6.307,1.158 -1.562,-1.953 8.437,-11.883 18.411,-3.24 3.114,-1.373 6.509,-2.061 9.878,-2.406 1.785,-0.184 3.58,-0.264 5.371,-0.262 0.737,0.002 3.631,0.252 4.307,0.473 1.208,0.396 2.649,0.738 2.816,2.08 0.057,0.467 0.045,1.789 -0.165,2.213 -0.672,1.369 -1.455,2.205 -3.442,2.096 -1.704,-0.094 -3.4,-0.543 -5.089,-0.475 -3.694,0.148 -7.58,0.508 -10.957,2.072 -0.02,0.009 -0.281,0.145 -0.29,0.136"
         id="path79" />
      <path
         inkscape:connector-curvature="0"
         style="fill:none;stroke:#c4084b;stroke-width:4.7249999"
         d="m 408.138,654.811 c 0.59,0.639 0.081,10.293 -3.554,10.795 -2.565,0.354 -3.003,-3.992 -3.029,-5.402 -0.199,1.08 -4.346,6.299 -6.153,5.562 -4.148,-1.688 -0.987,-6.59 1.361,-10.031 -0.978,0.914 -4.463,6.008 -6.094,4.297 -3.297,-2.652 1.878,-8.865 2.936,-9.066 -1.5,0.688 -3.758,4.342 -6.307,1.158 -1.562,-1.953 8.437,-11.883 18.411,-3.24 3.114,-1.373 6.509,-2.061 9.878,-2.406 1.785,-0.184 3.58,-0.264 5.371,-0.262 0.737,0.002 3.631,0.252 4.307,0.473 1.208,0.396 2.649,0.738 2.816,2.08 0.057,0.467 0.045,1.789 -0.165,2.213 -0.672,1.369 -1.455,2.205 -3.442,2.096 -1.704,-0.094 -3.4,-0.543 -5.089,-0.475 -3.694,0.148 -7.58,0.508 -10.957,2.072 -0.02,0.009 -0.281,0.145 -0.29,0.136"
         id="path81" />
      <path
         inkscape:connector-curvature="0"
         style="fill:#e27c9f"
         d="m 408.138,654.811 c 0.59,0.639 0.081,10.293 -3.554,10.795 -2.565,0.354 -3.003,-3.992 -3.029,-5.402 -0.199,1.08 -4.346,6.299 -6.153,5.562 -4.148,-1.688 -0.987,-6.59 1.361,-10.031 -0.978,0.914 -4.463,6.008 -6.094,4.297 -3.297,-2.652 1.878,-8.865 2.936,-9.066 -1.5,0.688 -3.758,4.342 -6.307,1.158 -1.562,-1.953 8.437,-11.883 18.411,-3.24 3.114,-1.373 6.509,-2.061 9.878,-2.406 1.785,-0.184 3.58,-0.264 5.371,-0.262 0.737,0.002 3.631,0.252 4.307,0.473 1.208,0.396 2.649,0.738 2.816,2.08 0.057,0.467 0.045,1.789 -0.165,2.213 -0.672,1.369 -1.455,2.205 -3.442,2.096 -1.704,-0.094 -3.4,-0.543 -5.089,-0.475 -3.694,0.148 -7.58,0.508 -10.957,2.072 -0.02,0.009 -0.281,0.145 -0.29,0.136"
         id="path83" />
      <path
         inkscape:connector-curvature="0"
         style="fill:#7c338f"
         d="m 437.232,565.793 c 0.186,-10.803 -9.735,-23.336 -30.932,-16.387 -15.33,5.025 -17.815,4.416 -30.416,-6.518 -1.073,-0.711 -17.941,42.023 15.397,48.789 3.206,0.654 -1.397,2.232 -4.873,4.576 -3.475,2.348 4.756,5.75 16.269,4.014 5.1,-0.771 15.386,-5.807 21.147,-11.482 5.765,-5.676 13.284,-15.963 13.408,-22.992"
         id="path85" />
      <path
         inkscape:connector-curvature="0"
         style="fill:none;stroke:#5d1f80;stroke-width:4.7249999"
         d="m 437.232,565.793 c 0.186,-10.803 -9.735,-23.336 -30.932,-16.387 -15.33,5.025 -17.815,4.416 -30.416,-6.518 -1.073,-0.711 -17.941,42.023 15.397,48.789 3.206,0.654 -1.397,2.232 -4.873,4.576 -3.475,2.348 4.756,5.75 16.269,4.014 5.1,-0.771 15.386,-5.807 21.147,-11.482 5.765,-5.676 13.284,-15.963 13.408,-22.992 z"
         id="path87" />
      <path
         inkscape:connector-curvature="0"
         style="fill:#84539c"
         d="m 437.232,565.793 c 0.186,-10.803 -9.735,-23.336 -30.932,-16.387 -1.311,0.432 -2.623,0.852 -3.944,1.248 -1.13,0.338 -2.267,0.66 -3.41,0.938 -0.981,0.24 -1.967,0.449 -2.963,0.602 -0.87,0.133 -1.75,0.223 -2.629,0.24 -0.806,0.02 -1.609,-0.023 -2.407,-0.141 -0.776,-0.113 -1.542,-0.297 -2.292,-0.547 -0.784,-0.264 -1.548,-0.596 -2.289,-0.977 -0.824,-0.426 -1.622,-0.908 -2.397,-1.428 -0.897,-0.596 -1.765,-1.238 -2.618,-1.9 -1.001,-0.773 -1.978,-1.578 -2.949,-2.393 -0.399,-0.34 -0.798,-0.678 -1.196,-1.02 -0.189,-0.162 -0.864,-0.822 -1.058,-0.891 -0.152,-0.055 -0.339,-0.068 -0.495,-0.014 -0.18,0.061 -0.706,1.201 -0.895,1.637 -0.334,0.766 -0.63,1.553 -0.909,2.342 -0.357,1.021 -0.68,2.055 -0.974,3.094 -0.347,1.219 -0.653,2.453 -0.922,3.691 -0.298,1.371 -0.548,2.756 -0.746,4.148 -0.214,1.477 -0.369,2.963 -0.454,4.455 -0.09,1.539 -0.109,3.084 -0.038,4.623 0.071,1.557 0.231,3.107 0.499,4.641 0.269,1.535 0.649,3.049 1.156,4.514 0.512,1.479 1.154,2.906 1.934,4.242 0.808,1.385 1.759,2.672 2.834,3.828 1.159,1.242 2.459,2.332 3.853,3.264 1.568,1.045 3.255,1.885 4.995,2.555 0.93,0.357 1.879,0.668 2.837,0.934 0.764,0.211 2.112,0.615 2.277,1.248 0.42,1.59 -3.48,2.578 -4.692,3.914 -2.86,3.154 4.756,5.75 16.269,4.014 5.1,-0.771 15.386,-5.807 21.147,-11.482 5.765,-5.676 13.284,-15.963 13.408,-22.992"
         id="path89" />
      <path
         inkscape:connector-curvature="0"
         style="fill:#fcdf00"
         d="m 421.074,595.709 13.554,-14.186 c 0,0 0.686,-6.014 0.612,-7.66 -0.489,-10.928 -13.355,-4.021 -12.903,0.484 -3.47,-9.098 -17.284,2.078 -9.208,10.131 -3.806,0.611 -10.604,9.346 2.707,11.762 3.53,0.496 5.238,-0.531 5.238,-0.531"
         id="path91" />
      <path
         inkscape:connector-curvature="0"
         style="fill:#7c338f"
         d="m 464.265,564.379 c 1.223,-9.846 12.466,-19.943 32.112,-10.852 14.205,6.574 16.695,6.346 30.326,-1.947 1.134,-0.508 11.939,40.555 -21.255,42.348 -3.192,0.174 1.065,2.209 4.131,4.797 3.062,2.588 -5.356,4.604 -16.291,1.52 -4.845,-1.367 -14.161,-7.291 -19.011,-13.205 -4.85,-5.915 -10.805,-16.253 -10.012,-22.661"
         id="path93" />
      <path
         inkscape:connector-curvature="0"
         style="fill:none;stroke:#5d1f80;stroke-width:4.7249999"
         d="m 464.265,564.379 c 1.223,-9.846 12.466,-19.943 32.112,-10.852 14.205,6.574 16.695,6.346 30.326,-1.947 1.134,-0.508 11.939,40.555 -21.255,42.348 -3.192,0.174 1.065,2.209 4.131,4.797 3.062,2.588 -5.356,4.604 -16.291,1.52 -4.845,-1.367 -14.161,-7.291 -19.011,-13.205 -4.85,-5.915 -10.805,-16.253 -10.012,-22.661 z"
         id="path95" />
      <path
         inkscape:connector-curvature="0"
         style="fill:#84539c"
         d="m 464.265,564.379 c 1.223,-9.846 12.466,-19.943 32.112,-10.852 1.214,0.562 2.434,1.117 3.661,1.65 1.051,0.455 2.11,0.896 3.183,1.299 0.92,0.346 1.85,0.664 2.795,0.936 0.826,0.234 1.666,0.43 2.516,0.561 0.777,0.123 1.564,0.189 2.35,0.188 0.768,-0.004 1.536,-0.07 2.293,-0.199 0.795,-0.135 1.579,-0.338 2.346,-0.588 0.855,-0.277 1.691,-0.613 2.512,-0.982 0.943,-0.426 1.869,-0.896 2.783,-1.385 1.068,-0.574 2.121,-1.178 3.168,-1.795 0.433,-0.252 0.861,-0.51 1.291,-0.766 0.203,-0.125 0.945,-0.635 1.144,-0.674 0.154,-0.027 0.337,-0.016 0.481,0.051 0.166,0.08 0.527,1.188 0.654,1.607 0.223,0.74 0.408,1.494 0.575,2.25 0.216,0.975 0.392,1.955 0.545,2.939 0.177,1.152 0.314,2.312 0.414,3.475 0.109,1.289 0.175,2.58 0.187,3.871 0.015,1.371 -0.03,2.742 -0.139,4.111 -0.113,1.41 -0.296,2.816 -0.563,4.207 -0.271,1.406 -0.628,2.797 -1.087,4.154 -0.459,1.361 -1.024,2.686 -1.707,3.951 -0.687,1.277 -1.495,2.492 -2.424,3.605 -0.963,1.154 -2.051,2.199 -3.244,3.109 -1.283,0.979 -2.686,1.801 -4.158,2.463 -1.655,0.746 -3.396,1.291 -5.172,1.67 -0.95,0.203 -1.909,0.359 -2.872,0.477 -0.769,0.094 -2.125,0.283 -2.371,0.838 -0.612,1.391 3.041,2.799 4.043,4.174 2.36,3.24 -5.356,4.604 -16.291,1.52 -4.845,-1.367 -14.161,-7.291 -19.011,-13.205 -4.852,-5.914 -10.807,-16.252 -10.014,-22.66"
         id="path97" />
      <path
         inkscape:connector-curvature="0"
         style="fill:#fcdf00"
         d="m 468.021,574.221 c 1.892,-9.871 13.468,-1.91 12.445,2.127 4.543,-7.818 16.486,4.148 7.611,10.416 3.61,1.053 9.188,11.908 -4.033,12.365 -2.882,-10.463 -6.227,-18.479 -16.023,-24.908"
         id="path99" />
      <path
         inkscape:connector-curvature="0"
         style="fill:#c4084b"
         d="m 475.369,637.086 c -3.94,-1.906 4.116,-13.166 8.671,-15.258 4.556,-2.09 14.99,0.117 14.8,3.23 -0.24,3.944 -12.902,17.141 -23.471,12.028"
         id="path101" />
      <path
         inkscape:connector-curvature="0"
         style="fill:none;stroke:#c4084b;stroke-width:4.7249999"
         d="m 475.369,637.086 c -3.94,-1.906 4.116,-13.166 8.671,-15.258 4.556,-2.09 14.99,0.117 14.8,3.23 -0.24,3.944 -12.902,17.141 -23.471,12.028 z"
         id="path103" />
      <path
         inkscape:connector-curvature="0"
         style="fill:#e27c9f"
         d="m 475.369,637.086 c -3.94,-1.906 4.116,-13.166 8.671,-15.258 4.556,-2.09 14.99,0.117 14.8,3.23 -0.24,3.944 -12.902,17.141 -23.471,12.028"
         id="path105" />
      <path
         inkscape:connector-curvature="0"
         style="fill:#c4084b"
         d="m 410.91,610.928 c 2.716,-22.316 21.331,-39.635 46.677,-36.373 25.151,3.238 40.86,24.381 38.144,46.697 -2.716,22.316 -21.047,33.908 -46.174,31.988 -26.21,-2.002 -41.363,-19.996 -38.647,-42.312"
         id="path107" />
      <path
         inkscape:connector-curvature="0"
         style="fill:none;stroke:#c4084b;stroke-width:4.7249999"
         d="m 410.91,610.928 c 2.716,-22.316 21.331,-39.635 46.677,-36.373 25.151,3.238 40.86,24.381 38.144,46.697 -2.716,22.316 -21.047,33.908 -46.174,31.988 -26.21,-2.002 -41.363,-19.996 -38.647,-42.312 z"
         id="path109" />
      <path
         inkscape:connector-curvature="0"
         style="fill:#e27c9f"
         d="m 410.91,610.928 c 2.716,-22.316 21.331,-39.635 46.677,-36.373 25.151,3.238 40.86,24.381 38.144,46.697 -2.716,22.316 -21.047,33.908 -46.174,31.988 -26.21,-2.002 -41.363,-19.996 -38.647,-42.312"
         id="path111" />
      <path
         inkscape:connector-curvature="0"
         style="fill:#7c338f"
         d="m 450.494,584.672 c -0.008,0.352 -0.013,0.707 -0.005,1.076 0.069,3.326 0.055,7.061 1.378,9.994 1.204,2.672 4.46,7.553 7.107,7.229 -0.039,-0.859 -0.558,-2.564 0.033,-3.025 0.855,-0.672 6.903,8.436 8.264,7.92 4.882,-1.854 6.709,-13.031 6.221,-18.744 0.312,1.396 1.51,6.352 1.89,7.203 0.753,-2.084 1.205,-4.375 1.407,-6.697 0.164,-1.896 0.162,-3.875 -0.045,-5.82 -9.945,-7.423 -21.396,-2.076 -26.25,0.864"
         id="path113" />
      <path
         inkscape:connector-curvature="0"
         style="fill:none;stroke:#5d1f80;stroke-width:4.7249999"
         d="m 450.494,584.672 c -0.008,0.352 -0.013,0.707 -0.005,1.076 0.069,3.326 0.055,7.061 1.378,9.994 1.204,2.672 4.46,7.553 7.107,7.229 -0.039,-0.859 -0.558,-2.564 0.033,-3.025 0.855,-0.672 6.903,8.436 8.264,7.92 4.882,-1.854 6.709,-13.031 6.221,-18.744 0.312,1.396 1.51,6.352 1.89,7.203 0.753,-2.084 1.205,-4.375 1.407,-6.697 0.164,-1.896 0.162,-3.875 -0.045,-5.82 -9.945,-7.423 -21.396,-2.076 -26.25,0.864 z"
         id="path115" />
      <path
         inkscape:connector-curvature="0"
         style="fill:#7c338f"
         d="m 465.558,589.516 c 0,0 27.09,2.77 30.31,30.305 1.891,-21.783 -13.668,-42.098 -38.28,-45.266 -25.347,-3.262 -43.962,14.057 -46.677,36.373 -1.159,9.516 0.943,18.238 5.753,25.279 -4.752,-18.457 8.897,-50.359 48.894,-46.691"
         id="path117" />
      <path
         inkscape:connector-curvature="0"
         style="fill:none;stroke:#5d1f80;stroke-width:4.7249999"
         d="m 465.558,589.516 c 0,0 27.09,2.77 30.31,30.305 1.891,-21.783 -13.668,-42.098 -38.28,-45.266 -25.347,-3.262 -43.962,14.057 -46.677,36.373 -1.159,9.516 0.943,18.238 5.753,25.279 -4.752,-18.457 8.897,-50.359 48.894,-46.691 z"
         id="path119" />
      <path
         inkscape:connector-curvature="0"
         style="fill:#84539c"
         d="m 465.558,589.516 c 0,0 27.09,2.77 30.31,30.305 1.891,-21.783 -13.668,-42.098 -38.28,-45.266 -25.347,-3.262 -43.962,14.057 -46.677,36.373 -1.159,9.516 0.943,18.238 5.753,25.279 -4.752,-18.457 8.897,-50.359 48.894,-46.691"
         id="path121" />
      <path
         inkscape:connector-curvature="0"
         style="fill:#d82629"
         d="m 432.785,633.463 c 0,0 21.123,9.469 51.685,2.225 0,0 -6.085,14.516 -27.554,14.695 0,0 -19.444,0.842 -24.131,-16.92"
         id="path123" />
      <path
         inkscape:connector-curvature="0"
         style="fill:#84539c"
         d="m 450.494,584.672 c -0.008,0.352 -0.013,0.707 -0.005,1.076 0.069,3.326 0.055,7.061 1.378,9.994 1.204,2.672 4.46,7.553 7.107,7.229 -0.039,-0.859 -0.558,-2.564 0.033,-3.025 0.855,-0.672 6.903,8.436 8.264,7.92 4.882,-1.854 6.709,-13.031 6.221,-18.744 0.312,1.396 1.51,6.352 1.89,7.203 0.753,-2.084 1.205,-4.375 1.407,-6.697 0.164,-1.896 0.162,-3.875 -0.045,-5.82 -9.945,-7.423 -21.396,-2.076 -26.25,0.864"
         id="path125" />
      <path
         inkscape:connector-curvature="0"
         style="fill:#da4d5d"
         d="m 454.189,638.367 c 0.382,2.332 1.002,6.422 4.968,6.396 5.521,-0.033 5.316,-4.643 5.3,-6.029 -4.451,0.225 -6.233,0.264 -10.268,-0.367"
         id="path127" />
      <path
         inkscape:connector-curvature="0"
         style="fill:#ffffff"
         d="m 468.748,624.086 c 1.49,7.385 7.698,11.102 13.868,8.301 6.17,-2.801 9.968,-11.057 8.481,-18.439 -1.485,-7.387 -7.692,-11.102 -13.865,-8.303 -6.17,2.8 -9.967,11.056 -8.484,18.441"
         id="path129" />
      <path
         inkscape:connector-curvature="0"
         style="fill:#da4d5d"
         d="m 471.201,630.904 c -0.356,2.922 -3.187,4.979 -6.319,4.598 -3.135,-0.383 -5.388,-3.059 -5.034,-5.979 0.355,-2.92 3.187,-4.979 6.319,-4.598 3.135,0.382 5.389,3.059 5.034,5.979"
         id="path131" />
      <path
         inkscape:connector-curvature="0"
         style="fill:#0e5cab"
         d="m 480.33,614.215 c 2.395,3.205 2.251,8.611 -0.318,12.076 -2.57,3.463 -6.597,3.674 -8.989,0.465 -2.396,-3.205 -2.252,-8.613 0.317,-12.072 2.573,-3.467 6.596,-3.674 8.99,-0.469"
         id="path133" />
      <path
         inkscape:connector-curvature="0"
         d="m 479.402,622.709 c 1.071,-2.865 0.267,-6.182 -1.791,-7.408 -2.059,-1.229 -4.593,0.1 -5.663,2.963 -1.067,2.865 -0.266,6.182 1.794,7.408 2.059,1.226 4.594,-0.1 5.66,-2.963"
         id="path135" />
      <path
         inkscape:connector-curvature="0"
         style="fill:#ffffff"
         d="m 478.799,619.777 c 0.353,-0.939 0.088,-2.029 -0.588,-2.434 -0.677,-0.402 -1.506,0.035 -1.857,0.977 -0.352,0.939 -0.088,2.029 0.589,2.432 0.673,0.402 1.506,-0.033 1.856,-0.975"
         id="path137" />
      <path
         inkscape:connector-curvature="0"
         style="fill:#3793d1"
         d="m 488.902,616.639 c -1.529,-7.6 -6.941,-12.01 -12.557,-10.627 0.291,-0.164 0.584,-0.314 0.886,-0.453 6.171,-2.799 12.379,0.918 13.862,8.301 0.94,4.664 -0.23,9.672 -2.771,13.438 1.037,-3.31 1.309,-7.048 0.58,-10.659"
         id="path139" />
      <path
         inkscape:connector-curvature="0"
         style="fill:#c4084b"
         d="m 425.422,629.588 c 4.289,-0.824 -1.126,-13.867 -5.135,-17.086 -4.01,-3.219 -14.745,-3.795 -15.245,-0.721 -0.637,3.897 8.874,20.022 20.38,17.807"
         id="path141" />
      <path
         inkscape:connector-curvature="0"
         style="fill:none;stroke:#c4084b;stroke-width:4.7249999"
         d="m 425.422,629.588 c 4.289,-0.824 -1.126,-13.867 -5.135,-17.086 -4.01,-3.219 -14.745,-3.795 -15.245,-0.721 -0.637,3.897 8.874,20.022 20.38,17.807 z"
         id="path143" />
      <path
         inkscape:connector-curvature="0"
         style="fill:#e27c9f"
         d="m 425.422,629.588 c 4.289,-0.824 -1.126,-13.867 -5.135,-17.086 -4.01,-3.219 -14.745,-3.795 -15.245,-0.721 -0.637,3.897 8.874,20.022 20.38,17.807"
         id="path145" />
      <path
         inkscape:connector-curvature="0"
         style="fill:#e27c9f"
         d="m 422.926,610.922 -5.003,16.1 c 0,0 -1.693,4.723 -0.917,9.418 l 4.05,0.98 9.234,-1.516 0.886,-3.627 -1.655,-10.812 -6.595,-10.543 z"
         id="path147" />
      <path
         inkscape:connector-curvature="0"
         style="fill:#84539c"
         d="m 418.02,602.316 c 0,0 6.455,-17.809 21.797,-18.17"
         id="path149" />
      <path
         inkscape:connector-curvature="0"
         style="fill:#a682b9"
         d="m 429.115,627.014 c -0.076,0.623 -0.653,1.064 -1.292,0.986 -0.637,-0.078 -1.093,-0.645 -1.017,-1.268 0.076,-0.621 0.655,-1.062 1.291,-0.984 0.64,0.076 1.094,0.645 1.018,1.266"
         id="path151" />
      <path
         inkscape:connector-curvature="0"
         style="fill:#a682b9"
         d="m 425.984,631.035 c -0.077,0.623 -0.657,1.062 -1.293,0.984 -0.637,-0.076 -1.093,-0.643 -1.017,-1.264 0.077,-0.625 0.653,-1.064 1.291,-0.986 0.638,0.079 1.096,0.643 1.019,1.266"
         id="path153" />
      <path
         inkscape:connector-curvature="0"
         style="fill:#a682b9"
         d="m 431.699,631.785 c -0.075,0.623 -0.655,1.062 -1.292,0.984 -0.638,-0.076 -1.093,-0.645 -1.016,-1.266 0.074,-0.623 0.653,-1.064 1.291,-0.986 0.638,0.079 1.093,0.645 1.017,1.268"
         id="path155" />
      <path
         inkscape:connector-curvature="0"
         style="fill:#a682b9"
         d="m 488.953,630.686 c -0.15,0.48 -0.559,0.781 -0.914,0.674 -0.354,-0.107 -0.52,-0.584 -0.369,-1.062 0.15,-0.48 0.561,-0.781 0.914,-0.672 0.354,0.106 0.52,0.581 0.369,1.06"
         id="path157" />
      <path
         inkscape:connector-curvature="0"
         style="fill:#a682b9"
         d="m 486.457,633.59 c -0.15,0.479 -0.561,0.779 -0.914,0.672 -0.353,-0.107 -0.52,-0.582 -0.369,-1.062 0.151,-0.479 0.559,-0.781 0.914,-0.672 0.353,0.107 0.519,0.583 0.369,1.062"
         id="path159" />
      <path
         inkscape:connector-curvature="0"
         style="fill:#a682b9"
         d="m 489.621,634.598 c -0.148,0.48 -0.559,0.779 -0.914,0.672 -0.353,-0.107 -0.519,-0.582 -0.367,-1.062 0.152,-0.479 0.56,-0.781 0.914,-0.674 0.354,0.109 0.518,0.585 0.367,1.064"
         id="path161" />
      <path
         inkscape:connector-curvature="0"
         d="m 492.758,614.475 c 0.08,-0.803 -2.201,0.338 -3.03,0.23 1.331,-2.432 1.46,-4.004 1.284,-4.859 -0.193,-0.896 -2.7,1.689 -2.911,1.68 0.24,-0.973 0.444,-1.914 0.528,-2.926 0.041,-0.5 0.005,-2.309 -0.625,-1.6 -1.107,1.252 -1.799,1.555 -2.288,1.498 -0.483,-0.404 -1.187,-0.84 -1.957,-1.314 -2.289,-1.342 -4.909,-1.787 -7.413,-1.172 -0.814,0.455 -1.584,1.006 -2.298,1.641 6.174,-2.244 12.254,1.938 13.821,9.715 0.842,4.188 0.207,8.6 -1.49,12.289 0.716,-0.709 1.365,-1.502 1.943,-2.359 1.102,-2.373 2.072,-5.174 1.916,-8.508 2.155,-2.128 2.448,-3.581 2.52,-4.315"
         id="path163" />
      <path
         inkscape:connector-curvature="0"
         style="fill:#ffffff"
         d="m 457.493,625.607 c -4.34,7.178 -14.254,9.139 -22.148,4.379 -7.89,-4.758 -10.772,-14.436 -6.433,-21.613 4.34,-7.178 14.257,-9.139 22.148,-4.381 7.89,4.76 10.771,14.438 6.433,21.615"
         id="path165" />
      <path
         inkscape:connector-curvature="0"
         style="fill:#0e5cab"
         d="m 444.08,611.908 c -4.36,2.586 -5.791,8.213 -3.201,12.57 2.591,4.355 8.23,5.789 12.59,3.199 4.359,-2.584 5.793,-8.215 3.199,-12.566 -2.592,-4.357 -8.226,-5.789 -12.588,-3.203"
         id="path167" />
      <path
         inkscape:connector-curvature="0"
         d="m 442.823,620.963 c -0.648,-3.283 1.494,-6.467 4.78,-7.111 3.285,-0.645 6.474,1.494 7.124,4.775 0.644,3.283 -1.498,6.465 -4.784,7.107 -3.285,0.647 -6.473,-1.492 -7.12,-4.771"
         id="path169" />
      <path
         inkscape:connector-curvature="0"
         style="fill:#ffffff"
         d="m 449.384,618.705 c -0.215,-1.078 0.489,-2.123 1.568,-2.336 1.08,-0.211 2.127,0.492 2.341,1.568 0.21,1.078 -0.49,2.123 -1.572,2.336 -1.077,0.211 -2.125,-0.49 -2.337,-1.568"
         id="path171" />
      <path
         inkscape:connector-curvature="0"
         style="fill:#3793d1"
         d="m 431.21,611.82 c 4.465,-7.391 13.463,-10.305 20.994,-7.182 -0.361,-0.254 -0.729,-0.502 -1.114,-0.732 -7.892,-4.76 -17.808,-2.799 -22.148,4.379 -2.74,4.533 -2.595,10.061 -0.136,14.719 -0.469,-3.731 0.281,-7.676 2.404,-11.184"
         id="path173" />
      <path
         inkscape:connector-curvature="0"
         d="m 451.991,604.461 c -3.393,-1.434 -7.292,-1.732 -10.974,-0.949 -0.786,0.115 -2.263,0.646 -3.375,0.947 -0.706,-0.088 -1.581,-0.619 -2.742,-2.318 -0.648,-0.941 -1.282,0.924 -1.385,1.457 -0.206,1.08 -0.224,2.127 -0.204,3.217 -0.297,-0.059 -2.95,-3.572 -3.511,-2.705 -0.518,0.834 -0.841,2.512 0.227,5.477 -1.19,-0.166 -3.994,-2.1 -4.141,-1.238 -0.144,0.842 -0.203,2.615 2.627,5.926 -0.95,3.195 -0.449,6.191 0.324,8.828 0.547,1.068 1.216,2.096 1.999,3.053 -1.256,-4.369 -0.812,-9.172 1.63,-13.297 4.534,-7.658 14.291,-10.197 22.242,-5.986 -0.807,-0.881 -1.715,-1.689 -2.717,-2.412"
         id="path175" />
    </g>
  </g>
</svg>
