<?xml version="1.0" encoding="UTF-8" standalone="no"?>
<!-- Created with Inkscape (http://www.inkscape.org/) -->

<svg
   xmlns:dc="http://purl.org/dc/elements/1.1/"
   xmlns:cc="http://creativecommons.org/ns#"
   xmlns:rdf="http://www.w3.org/1999/02/22-rdf-syntax-ns#"
   xmlns:svg="http://www.w3.org/2000/svg"
   xmlns="http://www.w3.org/2000/svg"
   xmlns:sodipodi="http://sodipodi.sourceforge.net/DTD/sodipodi-0.dtd"
   xmlns:inkscape="http://www.inkscape.org/namespaces/inkscape"
   width="127.89482"
   height="227.94641"
   id="svg5696"
   version="1.1"
   inkscape:version="0.48.4 r9939"
   sodipodi:docname="oscar13.svg">
  <defs
     id="defs5698">
    <clipPath
       id="SVGID_2_">
      <rect
         height="88.862999"
         width="111.498"
         y="518.96198"
         x="382.04999"
         id="use1087" />
    </clipPath>
    <clipPath
       id="SVGID_4_">
      <rect
         height="41.314999"
         width="49.584999"
         y="525.19397"
         x="389.84698"
         id="use1111" />
    </clipPath>
  </defs>
  <sodipodi:namedview
     id="base"
     pagecolor="#ffffff"
     bordercolor="#666666"
     borderopacity="1.0"
     inkscape:pageopacity="0.0"
     inkscape:pageshadow="2"
     inkscape:zoom="0.77472527"
     inkscape:cx="9.2028644"
     inkscape:cy="268.10019"
     inkscape:current-layer="layer1"
     inkscape:document-units="px"
     showgrid="false"
     inkscape:window-width="763"
     inkscape:window-height="591"
     inkscape:window-x="592"
     inkscape:window-y="97"
     inkscape:window-maximized="0"
     fit-margin-top="0"
     fit-margin-left="0"
     fit-margin-right="0"
     fit-margin-bottom="0" />
  <metadata
     id="metadata5701">
    <rdf:RDF>
      <cc:Work
         rdf:about="">
        <dc:format>image/svg+xml</dc:format>
        <dc:type
           rdf:resource="http://purl.org/dc/dcmitype/StillImage" />
        <dc:title></dc:title>
      </cc:Work>
    </rdf:RDF>
  </metadata>
  <g
     id="layer1"
     inkscape:label="Layer 1"
     inkscape:groupmode="layer"
     transform="translate(-308.74043,-125.26015)">
    <g
       transform="translate(-536.9149,-384.32469)"
       id="g1009">
      <path
         inkscape:connector-curvature="0"
         style="fill:#255f27"
         d="m 932.792,614.657 -0.02,-0.019 c -4.404,-8.253 -6.411,-19.042 -6.012,-32.354 l -32.744,2.91 c 2.408,13.911 1.297,25.489 -3.315,34.715 -0.013,0.01 -0.03,0.029 -0.039,0.059 -0.422,0.7 -0.812,1.43 -1.164,2.174 -2.817,5.63 -4.163,11.942 -4.045,18.935 0.168,9.604 3.032,17.663 8.608,24.187 5.504,6.452 12.061,9.51 19.684,9.17 7.601,-0.358 14.053,-4.019 19.337,-10.966 5.323,-7.024 7.904,-15.335 7.738,-24.94 -0.077,-4.493 -0.749,-8.646 -2.003,-12.462 -0.656,-1.94 -1.475,-3.748 -2.478,-5.415 -1.203,-2.001 -2.381,-4.003 -3.547,-5.994"
         id="path1011" />
      <path
         inkscape:connector-curvature="0"
         style="fill:none;stroke:#255f27;stroke-width:1.51409996;stroke-linecap:round;stroke-linejoin:round;stroke-miterlimit:10"
         d="m 932.772,614.639 c -4.404,-8.253 -6.411,-19.042 -6.012,-32.354 l -32.744,2.91 c 2.408,13.911 1.297,25.489 -3.315,34.715 -0.013,0.009 -0.03,0.029 -0.039,0.059 -0.422,0.7 -0.812,1.43 -1.164,2.174 -2.817,5.63 -4.163,11.942 -4.045,18.935 0.168,9.604 3.032,17.663 8.608,24.187 5.504,6.452 12.061,9.51 19.684,9.17 7.601,-0.358 14.053,-4.019 19.337,-10.966 5.323,-7.024 7.904,-15.335 7.738,-24.94 -0.077,-4.493 -0.749,-8.646 -2.003,-12.462 -0.657,-1.94 -1.475,-3.748 -2.478,-5.415 -1.204,-1.999 -2.382,-4.002 -3.548,-5.993 l -0.019,-0.02 z"
         id="path1013" />
      <path
         inkscape:connector-curvature="0"
         style="fill:#9fc94c"
         d="m 932.15,615.122 c -0.031,-0.036 -0.061,-0.073 -0.083,-0.12 -4.369,-8.179 -6.403,-18.806 -6.109,-31.886 l -31.022,2.756 c 2.253,13.729 1.072,25.186 -3.523,34.354 -0.028,0.031 -0.046,0.069 -0.065,0.109 -0.411,0.67 -0.794,1.38 -1.135,2.106 v 0.018 c -2.768,5.525 -4.089,11.723 -3.97,18.584 0.163,9.413 2.975,17.323 8.429,23.729 h 0.012 c 5.333,6.25 11.682,9.216 19.049,8.904 7.365,-0.369 13.603,-3.912 18.723,-10.633 v -0.01 c 5.215,-6.896 7.742,-15.054 7.58,-24.469 -0.075,-4.418 -0.729,-8.497 -1.965,-12.248 -0.631,-1.894 -1.44,-3.646 -2.413,-5.275 v 0.011 c -1.186,-1.984 -2.361,-3.966 -3.508,-5.93"
         id="path1015" />
      <path
         inkscape:connector-curvature="0"
         style="fill:#5a6074"
         d="m 848.098,550.685 2.538,7.836 c 3.973,0.1 8.251,-0.402 12.855,-1.516 2.562,-0.848 6.1,-1.407 10.604,-1.673 22.423,-4.692 45.082,-13.396 67.998,-26.099 l -3.816,-8.254 -90.179,29.706 z"
         id="path1017" />
      <path
         inkscape:connector-curvature="0"
         style="fill:none;stroke:#737a91;stroke-width:1.56089997;stroke-linecap:round;stroke-linejoin:round;stroke-miterlimit:10"
         d="m 848.098,550.685 90.18,-29.705 3.816,8.254 c -22.916,12.702 -45.575,21.406 -67.998,26.099 -4.505,0.266 -8.042,0.825 -10.604,1.673 -4.604,1.113 -8.883,1.615 -12.855,1.516 l -2.539,-7.837 z"
         id="path1019" />
      <path
         inkscape:connector-curvature="0"
         style="fill:#9fc94c"
         d="m 933.988,537.708 c 1.668,-0.556 2.767,-1.41 3.298,-2.57 -1.765,0.16 -3.827,-0.341 -6.208,-1.503 -6.272,-4.491 -14.609,-6.042 -25.012,-4.65 0.025,-1.136 0.553,-2.229 1.585,-3.271 -2.803,0.104 -5.845,1.041 -9.148,2.813 -0.934,-0.232 -1.165,-1.055 -0.693,-2.457 -3.474,0.898 -6.451,3.093 -8.915,6.563 -4.504,-0.46 -8.866,0.106 -13.081,1.69 2.159,0.177 3.645,0.782 4.454,1.822 -5.982,2.258 -11.165,6.386 -15.56,12.387 -1.607,2.192 -3.321,3.632 -5.136,4.319 1.015,0.81 2.393,1.096 4.141,0.872 -2.552,6.077 -5.029,9.657 -7.424,10.735 1.136,0.812 2.674,1.045 4.604,0.701 -0.168,1 -0.479,1.966 -0.938,2.877 -0.223,0.45 -0.481,0.879 -0.77,1.306 -0.616,0.897 -1.374,1.751 -2.294,2.554 -0.836,0.746 -1.802,1.451 -2.885,2.126 1.552,1.532 4.171,1.656 7.856,0.379 -0.331,1.153 -0.519,2.324 -0.574,3.504 -0.051,1.062 0.063,2.104 0.345,3.128 0.262,1.002 0.683,1.927 1.252,2.777 0.555,0.826 1.281,1.614 2.16,2.365 0.408,-1.045 0.951,-1.954 1.624,-2.74 0.528,0.881 1.086,1.717 1.685,2.522 0.212,0.283 0.431,0.563 0.651,0.844 3.794,4.734 8.89,7.988 15.272,9.751 -0.234,-0.831 -0.257,-1.66 -0.067,-2.501 5.127,3.059 11.01,4.46 17.656,4.18 -0.278,-0.853 -0.245,-1.703 0.078,-2.564 0.487,0.347 1.001,0.676 1.546,0.968 0.519,0.264 1.059,0.508 1.618,0.733 0.599,0.261 1.212,0.462 1.834,0.619 0.709,0.18 1.444,0.303 2.2,0.385 0.389,0.038 0.785,0.045 1.183,0.02 0.719,-0.025 1.426,-0.138 2.123,-0.336 0.589,-0.183 1.132,-0.434 1.626,-0.759 0.563,-0.371 1.084,-0.754 1.567,-1.164 0.518,-0.401 0.964,-0.845 1.356,-1.329 0.409,-0.476 0.811,-0.964 1.203,-1.463 0.402,-0.49 0.746,-1.034 1.026,-1.615 0.688,0.632 1.111,1.38 1.258,2.262 6.075,-2.62 10.686,-6.412 13.854,-11.364 0.559,0.67 0.922,1.424 1.1,2.27 5.877,-5.201 9.095,-11.517 9.644,-18.943 1,0.21 1.995,0.702 2.99,1.478 1.474,-4.43 0.524,-8.433 -2.851,-12.028 3.887,-0.448 6.173,-1.689 6.851,-3.73 -1.281,-0.133 -2.462,-0.354 -3.554,-0.658 -1.196,-0.32 -2.279,-0.754 -3.247,-1.291 -0.455,-0.257 -0.885,-0.527 -1.291,-0.833 -0.836,-0.617 -1.558,-1.347 -2.172,-2.172 1.887,-0.525 3.153,-1.396 3.791,-2.613 -2.639,0.067 -6.513,-2.064 -11.611,-6.396"
         id="path1021" />
      <path
         inkscape:connector-curvature="0"
         style="fill:none;stroke:#255f27;stroke-width:1.55359995;stroke-linecap:round;stroke-miterlimit:10"
         d="m 933.988,537.708 c 5.098,4.332 8.972,6.463 11.613,6.394 -0.638,1.217 -1.904,2.088 -3.791,2.613 0.614,0.825 1.336,1.555 2.172,2.172 0.406,0.306 0.836,0.576 1.291,0.833 0.968,0.537 2.051,0.971 3.247,1.291 1.092,0.305 2.272,0.525 3.554,0.658 -0.678,2.041 -2.964,3.282 -6.851,3.73 3.375,3.596 4.324,7.599 2.851,12.028 -0.995,-0.775 -1.99,-1.268 -2.99,-1.478 -0.549,7.427 -3.767,13.742 -9.644,18.943 -0.178,-0.846 -0.541,-1.6 -1.1,-2.27 -3.169,4.952 -7.779,8.744 -13.854,11.364 -0.146,-0.882 -0.569,-1.63 -1.258,-2.262 -0.28,0.581 -0.624,1.125 -1.026,1.615 -0.393,0.499 -0.794,0.987 -1.203,1.463 -0.393,0.484 -0.839,0.928 -1.356,1.329 -0.483,0.41 -1.004,0.793 -1.567,1.164 -0.494,0.325 -1.037,0.576 -1.626,0.759 -0.697,0.198 -1.404,0.311 -2.123,0.336 -0.397,0.025 -0.794,0.019 -1.183,-0.02 -0.756,-0.082 -1.491,-0.205 -2.2,-0.385 -0.622,-0.157 -1.235,-0.358 -1.834,-0.619 -0.56,-0.226 -1.1,-0.47 -1.618,-0.733 -0.545,-0.292 -1.059,-0.621 -1.546,-0.968 -0.323,0.861 -0.356,1.712 -0.078,2.564 -6.646,0.28 -12.529,-1.121 -17.656,-4.18 -0.189,0.841 -0.167,1.67 0.067,2.501 -6.383,-1.763 -11.479,-5.017 -15.272,-9.751 -0.221,-0.28 -0.439,-0.561 -0.651,-0.844 -0.599,-0.806 -1.156,-1.642 -1.685,-2.522 -0.673,0.786 -1.216,1.695 -1.624,2.74 -0.879,-0.751 -1.605,-1.539 -2.16,-2.365 -0.569,-0.851 -0.99,-1.775 -1.252,-2.777 -0.281,-1.023 -0.396,-2.066 -0.345,-3.128 0.056,-1.18 0.243,-2.351 0.574,-3.504 -3.686,1.277 -6.305,1.153 -7.856,-0.379 1.083,-0.675 2.049,-1.38 2.885,-2.126 0.92,-0.803 1.678,-1.656 2.294,-2.554 0.288,-0.427 0.547,-0.855 0.77,-1.306 0.459,-0.911 0.77,-1.877 0.938,-2.877 -1.93,0.344 -3.468,0.111 -4.604,-0.701 2.395,-1.078 4.872,-4.658 7.424,-10.735 -1.748,0.224 -3.126,-0.062 -4.141,-0.872 1.814,-0.688 3.528,-2.127 5.136,-4.319 4.395,-6.001 9.577,-10.129 15.56,-12.387 -0.81,-1.04 -2.295,-1.646 -4.454,-1.822 4.215,-1.586 8.577,-2.15 13.081,-1.69 2.464,-3.471 5.441,-5.665 8.915,-6.563 -0.472,1.402 -0.24,2.225 0.693,2.457 3.304,-1.772 6.346,-2.71 9.148,-2.813 -1.032,1.042 -1.56,2.135 -1.585,3.271 10.402,-1.392 18.739,0.159 25.012,4.65 2.381,1.162 4.443,1.663 6.208,1.503 -0.533,1.162 -1.632,2.016 -3.3,2.572 z"
         id="path1023" />
      <path
         inkscape:connector-curvature="0"
         style="fill:#d9382a"
         d="m 919.2,564.794 c -0.025,0.016 -0.046,0.021 -0.064,0.024 l 0.067,-0.008 c -10e-4,-0.007 -10e-4,-0.007 -0.003,-0.016"
         id="path1025" />
      <path
         inkscape:connector-curvature="0"
         style="fill:#1f1a1a"
         d="m 919.136,564.818 c 0.17,2.305 -0.744,4.536 -2.751,6.694 -2.394,2.614 -5.612,4.359 -9.662,5.254 -4.061,0.906 -7.773,0.704 -11.146,-0.61 -2.438,-0.949 -4.173,-2.275 -5.204,-3.984 -0.051,0 -0.107,0.015 -0.156,0.015 -5.755,0.769 -11.674,1.184 -17.758,1.258 8.416,6.376 16.343,9.547 23.773,9.508 7.43,-0.053 15.025,-1.804 22.767,-5.27 8.417,-3.747 14.049,-10.737 16.877,-20.959 -5.348,3.135 -10.91,5.822 -16.676,8.07 0.002,0.009 0.002,0.009 0.003,0.017 l -0.067,0.007 z"
         id="path1027" />
      <path
         inkscape:connector-curvature="0"
         style="fill:#d9382a"
         d="m 916.385,571.513 c 2.007,-2.158 2.921,-4.39 2.751,-6.694 -9.072,3.535 -18.654,5.983 -28.763,7.354 1.031,1.709 2.767,3.035 5.204,3.984 3.372,1.314 7.085,1.517 11.146,0.61 4.049,-0.895 7.268,-2.639 9.662,-5.254"
         id="path1029" />
      <path
         inkscape:connector-curvature="0"
         style="fill:none;stroke:#1f1a1a;stroke-width:0.0095;stroke-linecap:round;stroke-linejoin:round;stroke-miterlimit:10"
         d="m 919.2,564.794 c 5.766,-2.248 11.328,-4.936 16.676,-8.07 -2.828,10.222 -8.46,17.212 -16.877,20.959 -7.741,3.466 -15.337,5.217 -22.77,5.27 -7.428,0.039 -15.354,-3.132 -23.771,-9.508 6.084,-0.074 12.003,-0.489 17.758,-1.258"
         id="path1031" />
      <path
         inkscape:connector-curvature="0"
         style="fill:none;stroke:#d9382a;stroke-width:0.0095;stroke-linecap:round;stroke-linejoin:round;stroke-miterlimit:10"
         d="m 890.217,572.187 c 0.049,0 0.105,-0.015 0.156,-0.015 10.108,-1.37 19.69,-3.818 28.763,-7.354 0.018,-0.004 0.039,-0.009 0.064,-0.024 m -28.827,7.378 c 1.031,1.709 2.767,3.035 5.204,3.984 3.372,1.314 7.085,1.517 11.146,0.61 4.05,-0.893 7.269,-2.639 9.662,-5.254 2.007,-2.158 2.921,-4.39 2.751,-6.694"
         id="path1033" />
      <path
         inkscape:connector-curvature="0"
         style="fill:#ffffff"
         d="m 912.479,541.049 c -2.709,0.161 -4.955,1.218 -6.763,3.185 -1.808,1.957 -2.617,4.243 -2.441,6.855 0.167,2.618 1.272,4.796 3.299,6.532 2.057,1.738 4.435,2.528 7.145,2.366 2.699,-0.167 4.947,-1.232 6.728,-3.207 1.807,-1.956 2.615,-4.248 2.449,-6.866 -0.176,-2.614 -1.279,-4.783 -3.305,-6.509 -2.046,-1.741 -4.415,-2.533 -7.112,-2.356"
         id="path1035" />
      <path
         inkscape:connector-curvature="0"
         style="fill:#ffffff"
         d="m 877.609,556.949 c 0.165,2.606 1.271,4.777 3.308,6.519 2.047,1.742 4.425,2.533 7.135,2.369 2.691,-0.154 4.937,-1.229 6.728,-3.202 1.806,-1.97 2.624,-4.256 2.462,-6.863 -0.168,-2.616 -1.275,-4.795 -3.329,-6.523 -2.038,-1.744 -4.403,-2.525 -7.088,-2.352 -2.712,0.161 -4.969,1.229 -6.774,3.187 -1.788,1.953 -2.597,4.246 -2.442,6.865"
         id="path1037" />
      <path
         inkscape:connector-curvature="0"
         style="fill:#1f1a1a"
         d="m 915.285,547.836 c -0.75,-0.878 -1.702,-1.364 -2.862,-1.472 -1.172,-0.108 -2.206,0.197 -3.113,0.913 -0.909,0.726 -1.412,1.644 -1.525,2.765 -0.111,1.121 0.203,2.114 0.947,2.992 0.749,0.877 1.701,1.364 2.863,1.473 1.162,0.107 2.19,-0.197 3.1,-0.913 0.907,-0.719 1.412,-1.638 1.522,-2.766 0.118,-1.122 -0.189,-2.116 -0.932,-2.992"
         id="path1039" />
      <path
         inkscape:connector-curvature="0"
         style="fill:#1f1a1a"
         d="m 892.641,553.077 c -0.751,-0.878 -1.702,-1.361 -2.863,-1.469 -1.169,-0.108 -2.205,0.195 -3.112,0.913 -0.909,0.724 -1.413,1.642 -1.525,2.763 -0.111,1.124 0.204,2.115 0.945,2.992 0.752,0.879 1.705,1.364 2.865,1.472 1.16,0.108 2.189,-0.197 3.099,-0.914 0.91,-0.716 1.412,-1.634 1.521,-2.765 0.12,-1.119 -0.189,-2.114 -0.93,-2.992"
         id="path1041" />
      <path
         inkscape:connector-curvature="0"
         style="fill:#c16513"
         d="m 910.064,534.946 c -0.528,-0.552 -1.216,-0.521 -2.052,0.098 -3.25,2.479 -6.229,5.123 -8.939,7.91 -0.554,0.572 -1.029,0.778 -1.439,0.619 -5,-1.874 -8.367,-3.001 -10.122,-3.381 -1.786,-0.39 -2.936,-0.235 -3.447,0.475 -0.525,0.695 -0.596,1.438 -0.192,2.252 -5.941,1.616 -10.17,3.68 -12.699,6.181 -2.517,2.479 -3.761,4.094 -3.734,4.855 0.011,0.748 1.14,0.841 3.388,0.271 -1.577,1.953 -2.716,4.138 -3.4,6.559 -0.338,1.178 -0.407,2.048 -0.206,2.615 0.026,0.073 0.063,0.141 0.103,0.219 0.022,0.044 0.05,0.075 0.068,0.111 0.043,0.057 0.103,0.094 0.162,0.128 0.152,0.093 0.319,0.151 0.499,0.197 0.227,0.057 0.465,0.08 0.697,0.084 0.188,0.025 0.379,0.031 0.572,0.035 3.502,-0.05 6.763,-0.968 9.76,-2.759 -0.633,-3.152 -0.335,-5.884 0.898,-8.219 1.211,-2.325 3.096,-3.483 5.631,-3.449 1.988,0.022 3.769,0.259 5.329,0.71 l 2.377,0.828 c 1.525,0.556 2.781,0.911 3.756,1.069 0.966,0.157 2.083,0.081 3.357,-0.23 1.294,-0.307 2.615,-1.045 3.968,-2.217 1.353,-1.183 2.355,-2.062 3.01,-2.642 0.759,-0.649 1.587,-1.293 2.491,-1.919 1.119,-0.739 2.265,-1.322 3.434,-1.735 1.881,-0.663 3.486,-0.726 4.818,-0.186 0.659,0.27 1.256,0.698 1.796,1.285 0.554,0.581 1.04,1.212 1.475,1.88 0.799,1.285 1.295,2.863 1.477,4.72 3.697,0.257 7.456,-0.31 11.273,-1.705 1.133,-0.396 1.661,-0.941 1.588,-1.653 -0.036,-0.77 -0.725,-1.695 -2.045,-2.765 -1.963,-1.603 -3.906,-2.881 -5.826,-3.815 0.574,-0.042 1.206,-0.254 1.91,-0.63 1.554,-0.849 1.416,-1.663 -0.435,-2.438 -6.876,-2.787 -12.954,-3.396 -18.221,-1.826 -0.243,-0.537 -0.6,-1.047 -1.08,-1.532"
         id="path1043" />
      <path
         inkscape:connector-curvature="0"
         style="fill:#255f27"
         d="m 959.224,575.376 c -2.092,0.075 -4.37,1.529 -6.852,4.373 -0.027,0.018 -0.039,0.04 -0.053,0.063 -1.872,2.685 -3.246,5.148 -4.118,7.404 -2.911,-0.604 -5.086,0.062 -6.532,2.015 -1.495,1.889 -2.198,5.121 -2.116,9.712 -1.126,8.596 -7.221,20.831 -18.29,36.698 -0.113,0.138 -0.157,0.299 -0.132,0.48 0.01,0.173 0.077,0.323 0.197,0.456 l 11.104,11.75 c 0.102,0.099 0.214,0.167 0.36,0.204 0.133,0.041 0.276,0.041 0.42,0.011 0.137,-0.027 0.257,-0.102 0.359,-0.199 14.952,-14.636 27.315,-28.95 37.069,-42.948 0.14,-0.109 0.274,-0.205 0.417,-0.313 0.007,-0.011 0.016,-0.016 0.022,-0.026 1.705,-1.492 2.529,-3.132 2.468,-4.931 -0.006,-0.019 -0.01,-0.036 -0.003,-0.048 -0.2,-2.233 -1.21,-3.753 -3.034,-4.563 -1.006,-0.458 -1.971,-0.75 -2.894,-0.864 0.399,-1.827 0.019,-3.337 -1.148,-4.541 -1.006,-1.069 -2.332,-1.704 -3.983,-1.901 1.763,-4.062 2.255,-7.149 1.489,-9.251 -0.877,-2.556 -2.461,-3.749 -4.75,-3.581 m 0.088,1.513 0.009,-0.002 c 1.504,-0.055 2.566,0.791 3.165,2.545 0.627,1.954 0.053,4.876 -1.707,8.769 -1.58,0.277 -2.87,1.081 -3.888,2.42 -1.05,1.369 -1.703,3.068 -1.952,5.092 -0.284,2.178 0.199,3.788 1.436,4.814 1.199,1.033 2.553,1.493 4.062,1.388 l 0.01,0.004 c 0.029,-0.007 0.061,-0.004 0.093,-0.003 -0.124,2.006 0.288,3.448 1.244,4.312 1.051,1.116 2.812,1.412 5.301,0.893 0.019,-0.005 0.037,-0.01 0.066,-0.019 0.16,-0.045 0.327,-0.101 0.483,-0.154 -9.295,12.971 -20.823,26.228 -34.595,39.76 l -10.132,-10.717 c 11.064,-15.925 17.129,-28.229 18.209,-36.903 -10e-4,-0.038 -0.003,-0.078 -10e-4,-0.107 -0.079,-4.169 0.527,-7.118 1.815,-8.847 1.2,-1.511 3.027,-1.953 5.477,-1.309 1.773,0.875 2.877,2.164 3.303,3.887 0.438,1.8 0.394,3.42 -0.124,4.856 l 0.009,-10e-4 0.003,0.007 c -0.509,1.336 -1.269,2.237 -2.277,2.718 -0.929,0.417 -1.777,0.369 -2.566,-0.148 -0.842,-0.584 -1.91,-1.804 -3.216,-3.665 -0.091,0.065 -0.144,0.198 -0.147,0.385 -0.015,0.193 0.136,0.753 0.428,1.706 0.296,0.949 0.979,1.895 2.047,2.828 1.262,0.839 2.634,0.931 4.12,0.267 1.391,-0.614 2.419,-1.811 3.08,-3.584 0.637,-1.687 0.697,-3.596 0.172,-5.716 -0.484,-1.983 -1.67,-3.524 -3.574,-4.598 0.832,-2.155 2.148,-4.509 3.92,-7.064 2.108,-2.405 4.012,-3.677 5.727,-3.814 m -2.816,19.009 c 0.218,-1.746 0.772,-3.205 1.664,-4.382 0.826,-1.088 1.904,-1.716 3.236,-1.873 l 0.009,-0.003 0.009,-0.002 c 1.663,0.028 2.967,0.523 3.899,1.493 0.869,0.95 1.093,2.168 0.649,3.653 -0.011,0.002 -0.011,0.002 -0.007,0.012 -0.029,0.076 -0.055,0.163 -0.078,0.247 -0.019,0.017 -0.021,0.036 -0.023,0.059 l 0.002,0.007 -0.003,0.022 c -0.011,0.003 -0.008,0.011 -0.004,0.02 -0.009,0.014 -0.009,0.014 -0.015,0.024 l 0.005,0.011 c -0.511,1.463 -1.272,2.672 -2.271,3.63 l -0.011,0.005 c -0.747,0.701 -1.516,1.17 -2.3,1.412 -0.051,0.003 -0.088,0.014 -0.123,0.035 -0.274,0.066 -0.539,0.11 -0.807,0.136 -1.083,0.067 -2.053,-0.272 -2.907,-1.011 -0.816,-0.754 -1.126,-1.92 -0.924,-3.495 m 6.407,9.268 c -0.678,-0.728 -0.928,-1.931 -0.762,-3.624 0.862,-0.331 1.7,-0.867 2.52,-1.641 1.073,-1.011 1.901,-2.269 2.491,-3.773 0.849,0.069 1.739,0.321 2.688,0.756 1.272,0.6 1.978,1.693 2.137,3.275 0.011,1.359 -0.625,2.61 -1.927,3.754 -0.142,0.109 -0.275,0.205 -0.403,0.311 -0.045,0.022 -0.081,0.043 -0.11,0.08 -0.838,0.579 -1.769,1.018 -2.786,1.331 -0.011,0.004 -0.011,0.004 -0.02,0.006 -1.777,0.37 -3.062,0.206 -3.828,-0.475"
         id="path1045" />
      <path
         inkscape:connector-curvature="0"
         style="fill:#9fc94c"
         d="m 959.32,576.887 -0.009,0.002 c -1.715,0.138 -3.618,1.409 -5.729,3.812 -1.771,2.556 -3.088,4.909 -3.92,7.064 1.904,1.073 3.09,2.614 3.574,4.598 0.525,2.12 0.465,4.029 -0.172,5.716 -0.661,1.773 -1.69,2.97 -3.08,3.584 -1.486,0.664 -2.858,0.572 -4.12,-0.267 -1.067,-0.934 -1.751,-1.879 -2.047,-2.828 -0.292,-0.953 -0.442,-1.513 -0.428,-1.706 0.004,-0.187 0.057,-0.319 0.149,-0.385 1.304,1.861 2.373,3.081 3.214,3.665 0.789,0.518 1.638,0.565 2.566,0.148 1.009,-0.48 1.769,-1.382 2.277,-2.718 l -0.012,-0.006 c 0.518,-1.437 0.562,-3.057 0.124,-4.856 -0.426,-1.723 -1.529,-3.012 -3.303,-3.887 -2.448,-0.645 -4.276,-0.202 -5.477,1.309 -1.288,1.729 -1.895,4.678 -1.815,8.847 -0.002,0.029 0,0.069 0.001,0.107 -1.08,8.674 -7.145,20.979 -18.209,36.903 l 10.132,10.717 c 13.771,-13.532 25.3,-26.789 34.595,-39.76 -0.156,0.054 -0.323,0.109 -0.483,0.152 -0.029,0.011 -0.048,0.016 -0.066,0.021 -2.489,0.52 -4.25,0.224 -5.301,-0.893 -0.956,-0.864 -1.368,-2.307 -1.244,-4.312 -0.032,-10e-4 -0.063,-0.004 -0.093,0.003 l -0.01,-0.004 c -1.51,0.105 -2.863,-0.354 -4.062,-1.388 -1.236,-1.026 -1.72,-2.637 -1.436,-4.814 0.249,-2.023 0.902,-3.723 1.952,-5.092 1.018,-1.339 2.308,-2.143 3.889,-2.42 1.759,-3.893 2.333,-6.814 1.706,-8.769 -0.596,-1.752 -1.659,-2.598 -3.163,-2.543"
         id="path1047" />
      <path
         inkscape:connector-curvature="0"
         style="fill:#9fc94c"
         d="m 958.16,591.517 c -0.892,1.177 -1.444,2.636 -1.664,4.382 -0.202,1.574 0.107,2.74 0.926,3.495 0.854,0.738 1.824,1.078 2.907,1.011 0.268,-0.025 0.532,-0.069 0.807,-0.136 0.035,-0.021 0.072,-0.032 0.123,-0.035 0.784,-0.242 1.553,-0.711 2.3,-1.412 l 0.012,-0.005 c 0.997,-0.958 1.759,-2.167 2.27,-3.63 l -0.005,-0.011 c 0.006,-0.011 0.006,-0.011 0.015,-0.024 -0.004,-0.009 -0.007,-0.017 0.004,-0.02 l 0.003,-0.022 -0.002,-0.007 c 0.003,-0.022 0.007,-0.042 0.023,-0.059 0.023,-0.084 0.049,-0.171 0.078,-0.247 -0.004,-0.01 -0.004,-0.01 0.007,-0.012 0.443,-1.485 0.22,-2.703 -0.649,-3.653 -0.933,-0.97 -2.236,-1.465 -3.899,-1.493 l -0.009,0.002 -0.009,0.003 c -1.334,0.157 -2.412,0.785 -3.238,1.873"
         id="path1049" />
      <path
         inkscape:connector-curvature="0"
         style="fill:#9fc94c"
         d="m 962.142,601.542 c -0.166,1.694 0.084,2.896 0.762,3.624 0.766,0.681 2.051,0.845 3.829,0.475 0.008,-0.002 0.008,-0.002 0.019,-0.006 1.018,-0.313 1.948,-0.752 2.786,-1.331 0.029,-0.037 0.065,-0.058 0.11,-0.08 0.129,-0.105 0.262,-0.201 0.403,-0.311 1.302,-1.144 1.938,-2.395 1.926,-3.754 -0.158,-1.582 -0.863,-2.676 -2.136,-3.275 -0.949,-0.435 -1.84,-0.687 -2.688,-0.756 -0.59,1.505 -1.417,2.763 -2.491,3.773 -0.82,0.774 -1.658,1.31 -2.52,1.641"
         id="path1051" />
      <path
         inkscape:connector-curvature="0"
         style="fill:#b0b6d5"
         d="m 899.802,649.287 c 0.398,-4.296 -1.258,-6.363 -4.98,-6.208 l -20.917,-0.029 c -2.995,-0.128 -4.874,0.951 -5.622,3.256 -0.169,0.595 -0.306,1.306 -0.416,2.14 -0.089,0.448 -0.169,1.282 -0.24,2.524 -0.192,3.972 -0.56,7.68 -1.115,11.129 -0.408,4.287 1.26,6.345 5.002,6.191 l 20.917,0.028 c 3.692,0.187 5.746,-1.879 6.154,-6.175 l 1.217,-12.856 z m -5.419,-1.562 c 0.5,0.142 0.696,0.656 0.606,1.556 l -1.216,12.856 c -0.08,0.882 -0.386,1.402 -0.906,1.555 l -20.917,-0.029 c -0.511,-0.145 -0.727,-0.655 -0.648,-1.556 l 1.236,-12.857 c 0.09,-0.911 0.404,-1.433 0.946,-1.553 l 20.899,0.028 z"
         id="path1053" />
      <path
         inkscape:connector-curvature="0"
         style="fill:none;stroke:#737a91;stroke-width:1.54480004;stroke-linecap:round;stroke-linejoin:round;stroke-miterlimit:10"
         d="m 894.383,647.725 -20.898,-0.028 c -0.542,0.12 -0.856,0.642 -0.946,1.553 l -1.236,12.857 c -0.078,0.9 0.138,1.411 0.648,1.556 l 20.917,0.029 c 0.521,-0.152 0.826,-0.673 0.906,-1.555 l 1.216,-12.856 c 0.089,-0.9 -0.107,-1.415 -0.607,-1.556 z m 5.419,1.562 -1.216,12.856 c -0.41,4.296 -2.464,6.361 -6.156,6.175 l -20.917,-0.028 c -3.742,0.153 -5.41,-1.904 -5.002,-6.191 0.556,-3.449 0.925,-7.157 1.115,-11.129 0.071,-1.242 0.152,-2.076 0.24,-2.524 0.11,-0.834 0.247,-1.545 0.416,-2.14 0.748,-2.305 2.627,-3.384 5.622,-3.256 l 20.917,0.029 c 3.724,-0.155 5.379,1.912 4.981,6.208 z"
         id="path1055" />
      <rect
         x="876.36603"
         y="639.75403"
         transform="matrix(1,0.0014,-0.0014,1,0.9023,-1.236)"
         style="fill:#c6cee3"
         width="15.359"
         height="9.4440002"
         id="rect1057" />
      <rect
         x="876.36603"
         y="639.75403"
         transform="matrix(1,0.0014,-0.0014,1,0.9023,-1.236)"
         style="fill:none;stroke:#737a91;stroke-width:1.54480004;stroke-linecap:round;stroke-linejoin:round;stroke-miterlimit:10"
         width="15.359"
         height="9.4440002"
         id="rect1059" />
      <path
         inkscape:connector-curvature="0"
         style="fill:#b0b6d5"
         d="m 959.156,623.363 c -0.775,-0.654 -1.716,-0.978 -2.826,-0.979 l -2.928,-0.035 c -2.14,0.16 -4.389,0.262 -6.757,0.286 -1.207,0.017 -2.437,0.024 -3.691,0.023 -8.379,-0.156 -13.936,-0.273 -16.656,-0.347 l -24.297,-0.287 c -5.225,-0.114 -11.105,-0.054 -17.656,0.166 -1.493,0.041 -3.017,0.107 -4.579,0.173 -2.002,0.044 -3.841,0.042 -5.52,-0.007 l -2.729,-0.081 -0.391,-0.011 c -1.101,-10e-4 -2.055,0.322 -2.851,0.975 -0.541,0.462 -0.885,1.003 -1.054,1.602 -0.068,0.253 -0.109,0.728 -0.11,1.439 l -0.002,1.718 c -0.001,1.068 0.38,1.981 1.156,2.73 0.793,0.762 1.923,1.18 3.376,1.257 h 0.01 c 3.191,0.184 6.384,0.256 9.593,0.204 1.445,-0.027 4.008,-0.12 7.7,-0.294 4.902,-0.079 9.754,-0.073 14.556,0.021 l 19.809,0.026 c 3.004,0.166 6.008,0.159 9.016,-0.035 2.888,-0.022 5.774,-0.077 8.662,-0.14 2.956,-0.072 5.912,-0.048 8.87,0.06 1.177,0.029 2.354,0.059 3.533,0.091 0.227,0 0.462,0 0.688,0.009 0.59,0.02 1.259,0.041 2.003,0.061 h 0.052 l 0.185,0.002 c 1.111,10e-4 2.053,-0.377 2.83,-1.137 0.787,-0.748 1.179,-1.658 1.181,-2.728 l 0.004,-2.343 c -10e-4,-0.937 -0.392,-1.743 -1.177,-2.419"
         id="path1061" />
      <path
         inkscape:connector-curvature="0"
         style="fill:#c6cee3"
         d="m 954.077,631.928 c -0.226,-0.009 -0.461,-0.009 -0.688,-0.009 -1.179,-0.032 -2.356,-0.062 -3.535,-0.091 -2.956,-0.107 -5.912,-0.132 -8.868,-0.06 -2.888,0.062 -5.774,0.117 -8.662,0.14 -3.008,0.194 -6.012,0.201 -9.016,0.035 l -19.809,-0.026 c -4.802,-0.094 -9.651,-0.1 -14.556,-0.021 -3.692,0.174 -6.255,0.267 -7.7,0.294 -3.209,0.052 -6.4,-0.021 -9.593,-0.204 0.105,0.965 0.194,2.057 0.251,3.263 l 0.056,3.688 c 0,0.123 0,0.257 -0.013,0.39 -0.041,1.708 -0.063,3.335 -0.056,4.881 l 0.223,9.521 c 0.057,0.787 0.115,1.546 0.185,2.268 l 0.076,1.574 c 0.163,2.626 0.336,5.093 0.521,7.377 0.037,0.447 0.076,0.884 0.114,1.309 0.087,1.109 0.165,2.249 0.23,3.414 0.029,0.503 0.039,1.015 0.038,1.537 v 0.36 c -0.022,1.004 -0.072,2.002 -0.161,2.996 -0.03,0.293 -0.051,0.578 -0.082,0.854 v 0.056 c -0.108,0.847 -0.207,1.698 -0.298,2.54 -0.129,1.072 -0.218,2.144 -0.249,3.226 -0.01,0.131 -0.011,0.264 -0.011,0.397 -0.009,0.237 -0.001,0.473 0.018,0.711 0.011,0.258 0.042,0.513 0.08,0.769 0.204,1.179 0.507,2.344 0.897,3.491 0.188,0.578 0.401,1.167 0.666,1.747 0.157,0.349 0.537,1.867 1.152,4.552 0.253,0.862 0.322,1.662 0.203,2.39 -0.119,0.712 -0.414,1.355 -0.896,1.933 -0.275,0.343 -0.492,0.768 -0.649,1.271 -0.286,0.899 -0.396,2.076 -0.319,3.526 0.029,0.597 0.087,1.253 0.173,1.954 l 1.096,18.683 -0.004,2.704 c 0.236,0.028 0.471,0.066 0.695,0.113 0.707,0.171 1.414,0.35 2.111,0.552 0.737,0.029 1.464,0.051 2.201,0.079 0.619,0.067 1.246,0.106 1.864,0.116 0.061,0 0.117,0 0.177,0.011 0.688,0.01 1.375,0.011 2.072,0.003 0.63,-0.01 1.257,-0.027 1.887,-0.056 0.687,-0.027 1.365,-0.046 2.032,-0.053 0.639,-0.01 1.276,0.002 1.905,0.03 0.619,0.028 1.229,0.049 1.828,0.05 0.716,-0.007 1.434,-0.026 2.171,-0.064 0.462,-0.026 0.921,-0.045 1.385,-0.071 1.561,-0.102 2.838,-0.291 3.829,-0.556 1.632,-0.442 3.675,-0.117 6.126,0.986 0.521,0.236 1.069,0.504 1.63,0.808 3.171,1.73 6.342,1.924 9.506,0.592 0.256,-0.104 0.521,-0.211 0.787,-0.295 3.034,-0.866 6.081,-1.64 9.155,-2.311 0.128,-0.035 0.246,-0.075 0.375,-0.114 0.363,-0.111 0.735,-0.204 1.099,-0.271 0.746,-0.144 1.492,-0.188 2.239,-0.142 0.226,0.021 0.461,0.059 0.688,0.115 0.744,0.143 1.483,0.383 2.219,0.697 0.46,0.143 0.932,0.237 1.414,0.306 2.031,0.361 3.131,0.552 3.299,0.583 1.335,0.189 2.396,0.285 3.171,0.286 1.287,0.002 2.623,-0.052 3.987,-0.154 0.835,-0.066 2.251,-0.197 4.225,-0.411 l 3.299,-0.1 0.004,-2.429 c -0.01,-0.303 -0.009,-0.608 -0.009,-0.9 0.051,-7.852 0.395,-15.814 1.034,-23.893 0.458,-4.269 0.707,-7.502 0.76,-9.7 0.021,-0.979 0.003,-1.756 -0.057,-2.325 -0.096,-0.976 -0.152,-1.792 -0.184,-2.444 -0.028,-0.581 -0.018,-1.024 0.013,-1.349 0.058,-0.511 0.209,-1.08 0.436,-1.706 0.078,-0.208 0.167,-0.426 0.254,-0.645 1.074,-2.188 1.696,-3.856 1.863,-5.002 0.061,-0.438 0.061,-0.799 -0.005,-1.083 -0.286,-1.073 -0.668,-1.924 -1.139,-2.543 -0.41,-0.52 -0.625,-1.717 -0.652,-3.596 -0.009,-0.407 0.002,-0.833 0.012,-1.298 l 0.082,-2.293 v -0.078 c -0.007,-9.566 0.349,-18.983 1.061,-28.256 0.098,-1.327 0.21,-2.854 0.34,-4.569 -0.744,-0.019 -1.413,-0.041 -2.003,-0.06"
         id="path1063" />
      <polygon
         style="fill:#b0b6d5"
         points="871.293,622.267 871.126,622.266 871.517,622.276 "
         id="polygon1065" />
      <path
         inkscape:connector-curvature="0"
         style="fill:#c6cee3"
         d="m 871.902,635.249 c -0.057,-1.206 -0.146,-2.298 -0.251,-3.263 h -0.01 c 0.106,1.051 0.193,2.097 0.25,3.128 0.001,0.042 0.001,0.086 0.011,0.135"
         id="path1067" />
      <path
         inkscape:connector-curvature="0"
         style="fill:#b0b6d5"
         d="m 905.177,726.507 c -2.451,-1.104 -4.494,-1.429 -6.126,-0.986 -0.991,0.265 -2.269,0.454 -3.829,0.556 -0.464,0.026 -0.923,0.045 -1.385,0.071 -0.737,0.038 -1.455,0.058 -2.171,0.064 -0.6,-10e-4 -1.209,-0.021 -1.828,-0.05 -0.629,-0.028 -1.267,-0.04 -1.905,-0.03 -0.667,0.007 -1.346,0.025 -2.032,0.053 -0.63,0.028 -1.257,0.046 -1.887,0.056 -0.697,0.008 -1.384,0.007 -2.072,-0.003 -0.06,-0.008 -0.116,-0.008 -0.177,-0.008 -0.618,-0.013 -1.245,-0.052 -1.864,-0.119 -0.737,-0.028 -1.464,-0.05 -2.201,-0.079 -0.382,0.009 -0.755,0.027 -1.129,0.035 -0.56,0.029 -1.119,0.049 -1.679,0.076 -0.148,0.009 -0.305,0.009 -0.463,0.017 -0.166,0.01 -0.334,0.01 -0.5,0.009 -1.582,0.748 -2.379,1.969 -2.381,3.676 l -0.004,2.939 c -0.002,1.072 0.341,1.983 1.037,2.734 0.715,0.759 1.579,1.141 2.571,1.142 l 76.838,0.105 c 1.012,10e-4 1.855,-0.378 2.555,-1.136 0.708,-0.749 1.062,-1.658 1.064,-2.729 l 0.004,-2.94 c 10e-4,-1.071 -0.352,-1.991 -1.058,-2.753 -0.637,-0.68 -1.393,-1.052 -2.287,-1.109 l -3.299,0.1 c -1.974,0.214 -3.39,0.345 -4.225,0.412 -1.364,0.102 -2.7,0.155 -3.987,0.153 -0.774,-0.001 -1.836,-0.097 -3.171,-0.286 -0.168,-0.031 -1.268,-0.222 -3.299,-0.583 -0.482,-0.068 -0.954,-0.163 -1.414,-0.306 -0.735,-0.314 -1.474,-0.554 -2.217,-0.697 -0.229,-0.057 -0.464,-0.094 -0.69,-0.115 -0.746,-0.047 -1.492,-0.002 -2.238,0.142 -0.363,0.066 -0.735,0.159 -1.098,0.271 -0.13,0.038 -0.248,0.078 -0.376,0.113 -3.074,0.671 -6.121,1.444 -9.155,2.311 -0.267,0.085 -0.531,0.19 -0.787,0.295 -3.164,1.332 -6.334,1.139 -9.506,-0.592 -0.56,-0.305 -1.109,-0.573 -1.629,-0.809"
         id="path1069" />
      <path
         inkscape:connector-curvature="0"
         style="fill:none;stroke:#737a91;stroke-width:1.54480004;stroke-linecap:round;stroke-linejoin:round;stroke-miterlimit:10"
         d="m 871.651,631.986 h -0.01 c -1.453,-0.077 -2.583,-0.495 -3.376,-1.257 -0.776,-0.749 -1.157,-1.662 -1.156,-2.73 l 0.002,-1.718 c 10e-4,-0.712 0.042,-1.187 0.11,-1.439 0.169,-0.599 0.513,-1.14 1.054,-1.602 0.796,-0.652 1.75,-0.976 2.851,-0.975 l 0.391,0.011 2.729,0.081 c 1.679,0.049 3.518,0.051 5.52,0.007 1.563,-0.065 3.086,-0.132 4.579,-0.173 6.549,-0.22 12.432,-0.28 17.656,-0.166 l 24.297,0.287 c 2.721,0.073 8.277,0.19 16.656,0.347 1.255,10e-4 2.484,-0.007 3.691,-0.023 2.368,-0.024 4.617,-0.126 6.757,-0.286 l 2.927,0.035 c 1.111,10e-4 2.052,0.324 2.827,0.979 0.785,0.676 1.176,1.481 1.175,2.42 l -0.004,2.343 c -0.002,1.069 -0.394,1.979 -1.181,2.728 -0.777,0.76 -1.719,1.137 -2.831,1.135 l -0.184,-10e-4 h -0.051 m 10e-4,-0.002 c -0.745,-0.019 -1.414,-0.04 -2.004,-0.06 -0.226,-0.009 -0.461,-0.009 -0.688,-0.009 -1.179,-0.032 -2.356,-0.062 -3.533,-0.092 -2.958,-0.106 -5.914,-0.131 -8.87,-0.059 -2.888,0.062 -5.774,0.117 -8.662,0.14 -3.008,0.194 -6.012,0.201 -9.016,0.034 l -19.809,-0.026 c -4.802,-0.093 -9.651,-0.099 -14.556,-0.021 -3.692,0.175 -6.255,0.268 -7.701,0.295 -3.208,0.052 -6.4,-0.021 -9.592,-0.204 m 80.619,94.112 0.004,-2.429 c -0.01,-0.303 -0.009,-0.608 -0.009,-0.9 0.051,-7.852 0.395,-15.814 1.034,-23.893 0.458,-4.269 0.707,-7.502 0.76,-9.7 0.021,-0.979 0.003,-1.756 -0.057,-2.325 -0.096,-0.976 -0.152,-1.792 -0.184,-2.444 -0.028,-0.581 -0.018,-1.024 0.013,-1.349 0.058,-0.511 0.209,-1.08 0.437,-1.705 0.077,-0.209 0.166,-0.427 0.253,-0.646 1.074,-2.188 1.696,-3.856 1.863,-5.002 0.061,-0.438 0.061,-0.799 -0.005,-1.083 -0.286,-1.073 -0.668,-1.924 -1.139,-2.543 -0.41,-0.52 -0.625,-1.717 -0.652,-3.596 -0.009,-0.406 0.002,-0.833 0.012,-1.298 l 0.082,-2.293 v -0.078 c -0.007,-9.566 0.349,-18.983 1.061,-28.256 0.098,-1.327 0.21,-2.854 0.34,-4.57 m -84.79,-9.72 2.818,-0.017 m -2.459,9.736 c 0.105,0.965 0.194,2.057 0.251,3.263 l 0.056,3.688 c 0,0.123 0,0.257 -0.013,0.39 -0.041,1.708 -0.063,3.335 -0.056,4.881 l 0.223,9.521 c 0.057,0.789 0.115,1.546 0.185,2.268 l 0.076,1.574 c 0.163,2.626 0.336,5.093 0.521,7.377 0.037,0.447 0.076,0.884 0.114,1.309 0.087,1.109 0.165,2.249 0.23,3.414 0.029,0.503 0.039,1.015 0.038,1.537 v 0.36 c -0.022,1.004 -0.072,2.002 -0.161,2.996 -0.03,0.293 -0.051,0.578 -0.082,0.853 v 0.057 c -0.108,0.847 -0.207,1.698 -0.298,2.54 -0.129,1.072 -0.219,2.144 -0.249,3.226 -0.01,0.131 -0.011,0.264 -0.011,0.397 -0.009,0.237 -10e-4,0.473 0.018,0.711 0.011,0.258 0.042,0.513 0.08,0.769 0.204,1.179 0.507,2.344 0.897,3.491 0.188,0.578 0.401,1.167 0.666,1.747 0.157,0.349 0.537,1.867 1.152,4.552 0.253,0.862 0.322,1.662 0.203,2.39 -0.119,0.712 -0.414,1.355 -0.896,1.933 -0.275,0.343 -0.492,0.768 -0.649,1.271 -0.286,0.899 -0.396,2.076 -0.319,3.526 0.029,0.597 0.087,1.253 0.173,1.954 l 1.096,18.683 -0.004,2.704 m 77.377,0.729 -3.299,0.1 c -1.974,0.214 -3.39,0.345 -4.225,0.412 -1.364,0.102 -2.7,0.155 -3.988,0.153 -0.773,-10e-4 -1.835,-0.097 -3.17,-0.286 -0.168,-0.031 -1.268,-0.222 -3.299,-0.583 -0.482,-0.068 -0.954,-0.163 -1.414,-0.306 -0.735,-0.314 -1.474,-0.554 -2.219,-0.697 -0.227,-0.057 -0.462,-0.094 -0.688,-0.115 -0.746,-0.047 -1.492,-0.002 -2.238,0.142 -0.363,0.066 -0.735,0.159 -1.099,0.271 -0.129,0.038 -0.247,0.078 -0.375,0.113 -3.074,0.671 -6.121,1.444 -9.155,2.311 -0.267,0.084 -0.531,0.188 -0.787,0.295 -3.164,1.332 -6.335,1.139 -9.506,-0.592 -0.561,-0.304 -1.109,-0.571 -1.63,-0.808 -2.451,-1.104 -4.494,-1.429 -6.126,-0.988 -0.991,0.267 -2.269,0.456 -3.829,0.558 -0.464,0.026 -0.923,0.045 -1.385,0.071 -0.737,0.038 -1.455,0.058 -2.171,0.064 -0.6,-10e-4 -1.209,-0.021 -1.828,-0.05 -0.629,-0.028 -1.267,-0.04 -1.905,-0.03 -0.667,0.007 -1.346,0.025 -2.032,0.053 -0.63,0.028 -1.257,0.049 -1.887,0.056 -0.697,0.008 -1.384,0.007 -2.072,-0.003 -0.06,-0.008 -0.116,-0.008 -0.177,-0.008 -0.618,-0.013 -1.245,-0.052 -1.864,-0.119 -0.737,-0.028 -1.464,-0.05 -2.201,-0.079 -0.382,0.009 -0.755,0.027 -1.129,0.035 -0.56,0.029 -1.119,0.049 -1.679,0.076 -0.148,0.009 -0.305,0.009 -0.463,0.017 -0.166,0.01 -0.334,0.01 -0.5,0.009 -1.582,0.748 -2.379,1.969 -2.381,3.675 l -0.004,2.94 c -0.002,1.072 0.341,1.983 1.037,2.734 0.715,0.759 1.579,1.141 2.571,1.142 l 76.838,0.105 c 1.011,10e-4 1.855,-0.378 2.554,-1.136 0.709,-0.749 1.062,-1.658 1.065,-2.729 l 0.004,-2.941 c 10e-4,-1.07 -0.352,-1.99 -1.059,-2.752 -0.636,-0.681 -1.391,-1.053 -2.285,-1.11 z"
         id="path1071" />
      <path
         inkscape:connector-curvature="0"
         style="fill:#b0b6d5"
         d="m 946.999,636.774 h -0.02 c -1.179,-0.03 -2.201,0.887 -3.066,2.746 -0.916,1.83 -1.401,4.046 -1.444,6.653 l -0.198,30.533 c -0.611,1.335 -1.025,2.883 -1.234,4.626 -0.098,0.777 -0.159,1.593 -0.17,2.446 -0.11,2.2 0.17,3.935 0.836,5.197 l -0.778,24.465 c -0.042,2.304 0.319,4.277 1.073,5.937 0.743,1.633 1.675,2.448 2.784,2.449 h 0.021 c 1.07,0.002 2.033,-0.81 2.869,-2.441 0.828,-1.657 1.272,-3.63 1.346,-5.933 l 0.373,-28.865 c -0.578,-0.446 -0.882,-1.526 -0.919,-3.245 -0.009,-0.237 -0.009,-0.483 10e-4,-0.739 l 1.325,-6.276 1.196,-28.143 c 0.053,-2.607 -0.298,-4.824 -1.07,-6.656 -0.775,-1.861 -1.746,-2.78 -2.925,-2.754"
         id="path1073" />
      <path
         inkscape:connector-curvature="0"
         style="fill:#b0b6d5"
         d="m 936.076,639.51 c -0.794,-1.862 -1.784,-2.78 -2.962,-2.754 h -0.021 c -1.178,-0.029 -2.19,0.886 -3.026,2.744 -0.868,1.83 -1.322,4.048 -1.366,6.655 l -0.406,37.493 -0.891,6.788 c -0.169,0.834 -0.035,2.268 0.426,4.306 l 0.034,18.681 c -0.041,2.304 0.326,4.277 1.111,5.938 0.741,1.634 1.674,2.447 2.804,2.449 h 0.021 c 1.06,0.001 2.015,-0.811 2.851,-2.44 0.799,-1.658 1.233,-3.631 1.307,-5.935 l -0.07,-22.284 c -0.665,-1.492 -0.896,-3.197 -0.699,-5.103 l 1.364,-7.357 0.655,-32.523 c 0.029,-2.608 -0.35,-4.827 -1.132,-6.658"
         id="path1075" />
      <path
         inkscape:connector-curvature="0"
         style="fill:#b0b6d5"
         d="m 922.562,639.49 c -0.812,-1.861 -1.795,-2.779 -2.96,-2.754 h -0.021 c -1.179,-0.028 -2.192,0.888 -3.028,2.746 -0.867,1.829 -1.305,4.048 -1.308,6.654 l -0.358,48.492 0.858,3.928 c 0.205,0.9 0.114,2.646 -0.282,5.252 l -0.387,9.597 c -0.003,2.305 0.398,4.277 1.189,5.938 0.774,1.633 1.706,2.447 2.806,2.449 h 0.02 c 1.101,10e-4 2.044,-0.812 2.833,-2.441 0.787,-1.658 1.194,-3.631 1.225,-5.936 l 0.623,-67.268 c 0.01,-2.606 -0.388,-4.825 -1.21,-6.657"
         id="path1077" />
      <path
         inkscape:connector-curvature="0"
         style="fill:#b0b6d5"
         d="m 906.146,636.718 c -1.191,-0.028 -2.192,0.889 -3.01,2.746 -0.829,1.829 -1.224,4.048 -1.188,6.654 l 0.541,7.683 -0.356,2.463 0.695,36.263 0.644,3.568 c 0.458,1.602 0.132,3.963 -0.974,7.071 l -0.054,10.222 c -0.01,2.305 0.388,4.278 1.212,5.938 0.782,1.633 1.733,2.447 2.846,2.449 h 0.018 c 1.091,10e-4 2.024,-0.81 2.812,-2.441 0.788,-1.657 1.184,-3.629 1.188,-5.934 l 0.192,-11.037 0.456,-3.661 -0.703,-2.522 -0.05,-50.05 c 0.003,-2.606 -0.417,-4.824 -1.246,-6.657 -0.823,-1.859 -1.824,-2.779 -3.004,-2.754 h -0.019 z"
         id="path1079" />
      <path
         inkscape:connector-curvature="0"
         style="fill:#b0b6d5"
         d="m 893.143,636.701 h -0.021 c -1.185,-0.029 -2.189,0.888 -2.987,2.745 -0.818,1.83 -1.192,4.047 -1.128,6.653 l 1.541,7.419 -1.105,3.431 0.956,33.797 c 0.675,2.589 1.013,5.092 1.01,7.512 l -0.888,3.844 -0.389,11.271 c 0.026,2.305 0.454,4.277 1.289,5.938 0.812,1.633 1.752,2.446 2.843,2.448 h 0.021 c 1.1,0.002 2.034,-0.811 2.791,-2.441 0.761,-1.657 1.135,-3.629 1.108,-5.934 l -0.496,-9.162 c -0.029,-0.977 0.04,-1.726 0.2,-2.257 0.146,-0.529 0.265,-0.881 0.373,-1.059 0.09,-0.184 0.188,-0.39 0.274,-0.628 0.287,-0.719 0.425,-1.451 0.416,-2.198 10e-4,-0.529 -0.047,-1.053 -0.155,-1.573 -0.165,-0.836 -0.38,-1.661 -0.644,-2.487 l -0.391,-2.372 -0.423,-34.1 c 0.786,-1.788 1.232,-3.116 1.32,-3.962 l -0.564,-2.976 -0.583,-4.497 c -0.047,-2.606 -0.495,-4.826 -1.347,-6.657 -0.861,-1.861 -1.874,-2.781 -3.021,-2.755"
         id="path1081" />
      <path
         inkscape:connector-curvature="0"
         style="fill:#b0b6d5"
         d="m 880.081,636.683 h -0.021 c -1.187,-0.028 -2.171,0.889 -2.928,2.747 -0.8,1.828 -1.175,3.648 -1.13,5.458 -0.048,0.304 -0.068,0.597 -0.04,0.892 0.087,0.684 0.342,1.291 0.743,1.822 0.442,0.58 0.745,1.243 0.902,1.973 0.069,0.294 0.147,0.71 0.232,1.273 -0.345,0.898 -0.659,1.921 -0.946,3.09 l -0.452,1.762 1.678,35.959 1.546,4.023 c 0.537,1.508 0.379,2.92 -0.478,4.246 -0.717,0.806 -1.133,2.445 -1.225,4.911 0.271,2.618 0.221,5.454 -0.148,8.516 0.047,2.305 0.495,4.278 1.328,5.938 0.832,1.633 1.812,2.448 2.922,2.449 h 0.021 c 1.07,0.002 1.994,-0.811 2.754,-2.441 0.738,-1.657 1.085,-3.63 1.049,-5.934 l -0.202,-10.47 c 0.741,-3.099 0.971,-5.263 0.696,-6.485 L 885.621,692.581 884,656.81 c -0.008,-0.377 0.138,-0.824 0.455,-1.327 0.314,-0.501 0.659,-1.362 1.045,-2.577 0.088,-0.339 0.166,-0.597 0.235,-0.777 l -1.151,-4.972 c -0.117,-0.577 -0.186,-1.23 -0.194,-1.953 0.051,-2.011 -0.359,-3.933 -1.229,-5.765 -0.89,-1.863 -1.912,-2.782 -3.08,-2.756"
         id="path1083" />
      <path
         inkscape:connector-curvature="0"
         style="fill:#b0b6d5"
         d="m 958.657,655.55 -0.245,-6.677 c -0.308,-4.297 -2.318,-6.366 -6.021,-6.212 l -20.917,-0.028 c -2.073,-0.089 -3.508,0.471 -4.307,1.683 -0.166,0.369 -0.315,0.74 -0.432,1.119 -0.129,0.426 -0.208,0.873 -0.218,1.328 -0.012,0.607 0.016,1.205 0.094,1.802 0.079,0.558 0.127,1.109 0.137,1.65 0.008,0.758 0.038,1.507 0.076,2.257 0.035,0.682 0.085,1.366 0.133,2.048 0.01,0.161 0.03,0.331 0.04,0.493 l 0.6,7.435 c 0.077,0.834 0.243,1.65 0.486,2.446 0.068,0.2 0.137,0.409 0.217,0.606 0.851,1.453 2.205,2.252 4.081,2.379 2.593,-0.073 5.186,-0.023 7.776,0.143 1.17,0.01 2.446,0.07 3.83,0.156 1.976,0.091 4.065,0.12 6.267,0.085 0.991,-0.075 1.992,-0.141 3.005,-0.205 0.472,-0.038 0.954,-0.081 1.434,-0.132 0.424,-0.037 0.835,-0.073 1.259,-0.111 2.513,-0.499 3.646,-2.526 3.387,-6.08 l -0.682,-6.185 z m -5.939,-8.24 c 0.521,0.143 0.813,0.657 0.883,1.558 0.554,3.707 0.863,7.653 0.905,11.854 0.166,1.099 0.047,1.904 -0.356,2.424 -0.029,0.04 -0.06,0.068 -0.098,0.099 -4.332,0.59 -8.134,0.783 -11.395,0.589 -3.259,-0.193 -5.548,-0.31 -6.853,-0.349 -1.326,-0.052 -2.327,-0.147 -3.007,-0.27 l -0.41,-0.383 c -0.165,-0.265 -0.274,-0.643 -0.313,-1.136 l -0.775,-8.499 -0.149,-4.361 c -0.066,-0.91 0.148,-1.433 0.651,-1.555 l 20.917,0.029 z"
         id="path1085" />
      <path
         inkscape:connector-curvature="0"
         style="fill:none;stroke:#737a91;stroke-width:1.54480004;stroke-linecap:round;stroke-linejoin:round;stroke-miterlimit:10"
         d="m 958.412,648.873 c -0.308,-4.297 -2.318,-6.366 -6.021,-6.212 l -20.917,-0.028 c -2.073,-0.089 -3.508,0.471 -4.307,1.683 -0.166,0.369 -0.315,0.74 -0.432,1.119 -0.129,0.426 -0.208,0.873 -0.218,1.328 -0.012,0.607 0.016,1.205 0.094,1.802 0.079,0.558 0.127,1.109 0.137,1.65 0.008,0.758 0.038,1.507 0.076,2.257 0.035,0.682 0.085,1.366 0.133,2.048 0.01,0.161 0.03,0.331 0.04,0.493 l 0.6,7.435 c 0.077,0.834 0.243,1.65 0.486,2.446 0.068,0.2 0.137,0.409 0.217,0.606 0.851,1.453 2.205,2.252 4.081,2.379 2.593,-0.073 5.186,-0.023 7.776,0.143 1.17,0.01 2.446,0.07 3.83,0.156 1.976,0.091 4.065,0.12 6.267,0.085 0.991,-0.075 1.992,-0.141 3.005,-0.205 0.472,-0.038 0.954,-0.081 1.434,-0.132 0.424,-0.037 0.835,-0.073 1.259,-0.111 2.513,-0.499 3.646,-2.526 3.387,-6.08 l -0.681,-6.185 -0.246,-6.677 z m -5.694,-1.563 -20.917,-0.028 c -0.503,0.122 -0.718,0.645 -0.651,1.555 l 0.149,4.361 0.775,8.499 c 0.039,0.493 0.148,0.871 0.313,1.136 l 0.41,0.383 c 0.68,0.122 1.681,0.218 3.007,0.27 1.305,0.039 3.594,0.155 6.853,0.349 3.261,0.194 7.062,10e-4 11.395,-0.589 0.038,-0.03 0.068,-0.059 0.098,-0.099 0.403,-0.52 0.522,-1.325 0.356,-2.424 -0.042,-4.201 -0.352,-8.147 -0.905,-11.854 -0.07,-0.902 -0.363,-1.417 -0.883,-1.559 z"
         id="path1087" />
      <path
         inkscape:connector-curvature="0"
         style="fill:#c6cee3"
         d="m 950.19,641.902 c -0.036,-0.886 -0.596,-1.337 -1.688,-1.35 l -7.346,-0.049 c -1.363,-0.058 -2.63,-0.07 -3.79,-0.043 -1.464,-0.031 -2.327,0.233 -2.584,0.795 -0.148,1.261 -0.181,2.71 -0.075,4.341 l 0.035,4.25 c 0.156,0.123 0.304,0.217 0.451,0.265 0.678,0.115 1.345,0.153 2.003,0.117 h 0.156 l 0.274,0.001 c 2.938,0.012 5.796,0.035 8.585,0.049 l 3.593,0.063 c 0.308,-0.713 0.445,-1.414 0.437,-2.125 l -0.051,-6.314 z"
         id="path1089" />
      <path
         inkscape:connector-curvature="0"
         style="fill:none;stroke:#737a91;stroke-width:1.54480004;stroke-linecap:round;stroke-linejoin:round;stroke-miterlimit:10"
         d="m 948.503,640.553 -7.346,-0.049 c -1.363,-0.058 -2.63,-0.07 -3.79,-0.043 -1.464,-0.031 -2.327,0.233 -2.584,0.795 -0.148,1.261 -0.181,2.71 -0.075,4.341 l 0.035,4.25 c 0.156,0.123 0.304,0.217 0.451,0.265 0.678,0.115 1.345,0.153 2.003,0.117 h 0.156 l 0.274,10e-4 c 2.938,0.012 5.796,0.035 8.585,0.049 l 3.593,0.063 c 0.308,-0.713 0.445,-1.414 0.437,-2.125 l -0.052,-6.314 c -0.036,-0.886 -0.595,-1.338 -1.687,-1.35 z"
         id="path1091" />
      <path
         inkscape:connector-curvature="0"
         style="fill:#255f27"
         d="m 898.479,608.276 c -0.715,-0.542 -1.717,-1.167 -2.982,-1.882 -0.03,-0.028 -0.049,-0.036 -0.078,-0.036 -1.179,-0.525 -2.475,-0.962 -3.889,-1.313 l -0.018,-0.021 c -2.595,-0.601 -5.176,-0.869 -7.737,-0.826 -2.635,0.045 -5.08,0.487 -7.349,1.318 h 0.02 c -2.29,0.791 -4.383,1.938 -6.271,3.443 v 0.019 c -1.877,1.485 -3.511,3.21 -4.919,5.152 -1.415,1.96 -2.519,4.101 -3.306,6.442 -0.819,2.417 -0.804,4.864 0.028,7.339 v -0.018 c 0.459,1.403 1.234,2.314 2.333,2.731 0.796,0.343 1.778,0.394 2.946,0.157 0.115,1.024 0.42,2.021 0.898,2.979 1.401,2.763 3.503,3.902 6.302,3.423 2.542,-0.424 4.47,-1.768 5.779,-4.014 0.823,1.822 2.335,3.066 4.532,3.726 h -0.021 c 1.62,0.531 3.183,0.393 4.676,-0.412 2.585,-1.361 4.239,-3.456 4.959,-6.271 0.603,-2.343 0.804,-4.692 0.6,-7.055 -0.01,-0.189 -0.03,-0.381 -0.06,-0.568 0.146,0.114 0.284,0.22 0.433,0.322 0.5,0.408 1.04,0.713 1.628,0.933 0.52,0.2 1.109,0.351 1.769,0.438 0.599,0.048 1.207,0.01 1.808,-0.109 0.971,-0.237 1.698,-0.824 2.202,-1.743 l 0.018,-0.018 c 0.385,-0.693 0.651,-1.413 0.81,-2.161 l 0.021,-0.021 c 0.117,-0.654 0.188,-1.3 0.218,-1.934 v -0.039 c 0.002,-0.578 -0.038,-1.166 -0.115,-1.746 v -0.018 c -0.128,-0.805 -0.361,-1.604 -0.685,-2.37 v 0.018 c -0.304,-0.757 -0.675,-1.471 -1.138,-2.144 -0.009,-0.01 -0.019,-0.028 -0.019,-0.037 -0.43,-0.686 -0.931,-1.331 -1.51,-1.938 v -0.018 c -0.587,-0.634 -1.216,-1.205 -1.883,-1.728 m -7.343,-1.771 h -0.02 c 1.305,0.331 2.521,0.732 3.632,1.218 1.177,0.655 2.099,1.245 2.767,1.747 h -0.021 c 0.599,0.457 1.167,0.979 1.689,1.559 h 0.018 c 0.511,0.541 0.951,1.129 1.333,1.748 l 0.021,0.018 c 0.401,0.597 0.744,1.227 1.018,1.897 0,0.007 0.009,0.028 0.019,0.038 0.285,0.56 0.471,1.147 0.548,1.764 0.107,0.759 0.134,1.488 0.096,2.182 -0.041,0.72 -0.158,1.412 -0.356,2.087 -0.157,0.576 -0.472,1.051 -0.945,1.399 -0.628,0.427 -1.307,0.655 -2.044,0.683 -0.588,-10e-4 -1.236,-0.175 -1.942,-0.516 -0.707,-0.353 -1.207,-0.656 -1.491,-0.893 -0.285,-0.239 -0.442,-0.373 -0.471,-0.4 -0.5,-0.418 -1.323,-1.347 -2.471,-2.792 l 0.604,2.789 c 0.351,1.595 0.478,3.218 0.385,4.874 -0.09,1.661 -0.416,3.252 -0.968,4.778 -0.604,1.64 -1.634,2.966 -3.091,3.961 -0.243,0.16 -0.491,0.33 -0.727,0.492 -0.03,0 -0.048,0.008 -0.058,0.019 -1.091,0.576 -2.223,0.678 -3.4,0.297 h -0.019 c -0.655,-0.199 -1.226,-0.466 -1.728,-0.778 -1.598,-1.282 -2.441,-2.924 -2.546,-4.935 -0.05,-1.1 -0.027,-2.58 0.085,-4.438 -0.561,1.108 -0.906,2.227 -1.026,3.336 -0.147,1.1 -0.326,1.926 -0.554,2.483 -0.236,0.541 -0.483,1.044 -0.73,1.498 -0.245,0.454 -0.608,0.899 -1.081,1.326 -0.205,0.188 -0.423,0.359 -0.629,0.511 -0.304,0.228 -0.629,0.435 -0.984,0.624 -0.578,0.273 -1.196,0.482 -1.864,0.604 -1.131,0.181 -2.093,-0.012 -2.908,-0.553 -1.423,-1.245 -2.254,-2.801 -2.485,-4.688 -0.206,-1.661 -0.185,-3.31 0.063,-4.969 0.01,-0.113 0.03,-0.219 0.041,-0.323 0.078,-0.425 0.198,-0.975 0.354,-1.648 l -1.062,1.555 c -0.521,0.975 -0.829,1.883 -0.908,2.729 -0.079,0.834 -0.12,1.319 -0.12,1.46 -0.038,0.009 -0.069,0.029 -0.099,0.037 -1.207,0.388 -2.228,0.14 -3.062,-0.762 l -0.177,-0.285 c -0.146,-0.236 -0.265,-0.503 -0.351,-0.798 -0.734,-2.162 -0.743,-4.296 -0.034,-6.39 0.74,-2.199 1.776,-4.217 3.113,-6.047 1.33,-1.848 2.862,-3.466 4.622,-4.868 1.741,-1.399 3.676,-2.468 5.8,-3.198 2.112,-0.763 4.391,-1.176 6.836,-1.222 2.439,-0.041 4.884,0.215 7.328,0.79"
         id="path1093" />
      <path
         inkscape:connector-curvature="0"
         style="fill:#9fc94c"
         d="m 891.116,606.505 h 0.02 c -2.443,-0.575 -4.889,-0.831 -7.326,-0.79 -2.445,0.046 -4.724,0.459 -6.836,1.222 -2.124,0.73 -4.059,1.8 -5.8,3.198 -1.761,1.402 -3.292,3.021 -4.622,4.868 -1.337,1.83 -2.373,3.848 -3.113,6.047 -0.709,2.094 -0.7,4.228 0.034,6.39 0.086,0.295 0.204,0.562 0.351,0.798 l 0.177,0.285 c 0.834,0.901 1.854,1.149 3.062,0.762 0.029,-0.008 0.06,-0.028 0.099,-0.037 0,-0.141 0.041,-0.626 0.12,-1.46 0.079,-0.846 0.388,-1.754 0.908,-2.729 l 1.062,-1.555 c -0.157,0.674 -0.276,1.224 -0.354,1.648 -0.011,0.104 -0.031,0.21 -0.041,0.323 -0.248,1.659 -0.27,3.308 -0.063,4.969 0.231,1.888 1.062,3.443 2.485,4.688 0.815,0.541 1.777,0.733 2.908,0.553 0.668,-0.122 1.286,-0.331 1.864,-0.604 0.355,-0.189 0.681,-0.396 0.984,-0.624 0.206,-0.151 0.424,-0.322 0.629,-0.511 0.472,-0.427 0.836,-0.872 1.081,-1.326 0.245,-0.454 0.493,-0.957 0.73,-1.498 0.228,-0.558 0.404,-1.384 0.554,-2.483 0.12,-1.109 0.466,-2.228 1.026,-3.336 -0.112,1.857 -0.134,3.338 -0.085,4.438 0.104,2.011 0.948,3.652 2.546,4.935 0.502,0.312 1.07,0.579 1.728,0.778 h 0.019 c 1.178,0.381 2.31,0.279 3.4,-0.297 0.009,-0.011 0.027,-0.019 0.058,-0.019 0.235,-0.162 0.481,-0.332 0.727,-0.492 1.457,-0.995 2.487,-2.321 3.091,-3.961 0.552,-1.526 0.878,-3.117 0.968,-4.778 0.091,-1.656 -0.034,-3.279 -0.385,-4.874 l -0.604,-2.789 c 1.146,1.445 1.971,2.374 2.471,2.792 0.027,0.027 0.186,0.161 0.471,0.4 0.284,0.236 0.784,0.54 1.491,0.893 0.706,0.341 1.354,0.515 1.942,0.516 0.737,-0.027 1.416,-0.256 2.044,-0.683 0.473,-0.349 0.788,-0.823 0.945,-1.399 0.197,-0.675 0.315,-1.367 0.356,-2.087 0.038,-0.693 0.011,-1.423 -0.096,-2.182 -0.077,-0.616 -0.263,-1.204 -0.548,-1.764 -0.01,-0.01 -0.019,-0.031 -0.019,-0.038 -0.273,-0.671 -0.616,-1.301 -1.018,-1.897 l -0.021,-0.018 c -0.382,-0.619 -0.823,-1.207 -1.333,-1.748 h -0.018 c -0.522,-0.58 -1.091,-1.102 -1.689,-1.559 h 0.021 c -0.668,-0.502 -1.59,-1.092 -2.767,-1.747 -1.112,-0.486 -2.329,-0.887 -3.634,-1.218"
         id="path1095" />
      <path
         inkscape:connector-curvature="0"
         style="fill:#c6cee3"
         d="m 899.269,510.518 c -0.687,0.157 -1.571,0.466 -2.652,0.915 -2.691,1.225 -5.288,2.147 -7.786,2.778 -2.499,0.629 -4.028,1.017 -4.587,1.177 -0.095,0.027 -0.197,0.059 -0.301,0.088 -0.527,0.136 -1.218,0.307 -2.079,0.494 -4.426,0.982 -7.321,1.898 -8.712,2.746 -0.541,0.293 -0.994,0.801 -1.363,1.529 -0.057,0.115 -0.105,0.226 -0.146,0.332 -0.233,0.625 -0.226,1.268 0.004,1.935 1.143,3.969 2.433,7.641 3.879,11.03 0.276,0.781 0.792,1.345 1.568,1.701 0.747,0.36 1.521,0.414 2.329,0.145 0.807,-0.266 1.392,-0.764 1.771,-1.495 0.36,-0.728 0.4,-1.48 0.124,-2.259 -1.392,-2.736 -2.437,-5.648 -3.148,-8.752 2.24,-0.896 4.589,-1.577 7.044,-2.056 5.501,-1.344 9.826,-2.665 12.983,-3.94 l 2.896,8.236 c 0.278,0.779 0.791,1.343 1.564,1.693 0.75,0.367 1.525,0.42 2.333,0.153 0.789,-0.263 1.383,-0.762 1.77,-1.477 0.353,-0.742 0.403,-1.498 0.125,-2.28 l -3.762,-10.75 c -0.355,-0.965 -0.871,-1.578 -1.54,-1.856 -0.656,-0.273 -1.432,-0.305 -2.314,-0.087"
         id="path1097" />
      <path
         inkscape:connector-curvature="0"
         style="fill:none;stroke:#737a91;stroke-width:1.56089997;stroke-linecap:round;stroke-linejoin:round;stroke-miterlimit:10"
         d="m 899.269,510.518 c 0.883,-0.218 1.658,-0.186 2.313,0.088 0.669,0.278 1.185,0.892 1.54,1.856 l 3.762,10.75 c 0.278,0.782 0.228,1.538 -0.125,2.28 -0.387,0.715 -0.98,1.214 -1.77,1.477 -0.808,0.267 -1.583,0.214 -2.333,-0.153 -0.773,-0.351 -1.286,-0.914 -1.564,-1.693 l -2.896,-8.236 c -3.157,1.275 -7.482,2.597 -12.983,3.94 -2.455,0.479 -4.804,1.159 -7.044,2.056 0.712,3.104 1.757,6.016 3.148,8.752 0.276,0.778 0.236,1.531 -0.124,2.259 -0.379,0.731 -0.962,1.229 -1.771,1.495 -0.808,0.27 -1.582,0.216 -2.329,-0.145 -0.776,-0.356 -1.292,-0.92 -1.568,-1.701 -1.446,-3.39 -2.736,-7.062 -3.879,-11.03 -0.229,-0.667 -0.237,-1.31 -0.004,-1.935 0.04,-0.106 0.089,-0.217 0.146,-0.332 0.369,-0.729 0.822,-1.236 1.363,-1.529 1.391,-0.848 4.286,-1.764 8.712,-2.746 0.861,-0.188 1.552,-0.358 2.079,-0.494 0.104,-0.029 0.206,-0.061 0.301,-0.088 0.559,-0.16 2.088,-0.548 4.587,-1.177 2.498,-0.631 5.095,-1.554 7.786,-2.778 1.081,-0.451 1.966,-0.759 2.653,-0.916 z"
         id="path1099" />
      <path
         inkscape:connector-curvature="0"
         style="fill:#b0b6d5"
         d="m 917.205,518.174 c -12.067,2.146 -21.08,4.674 -27.043,7.582 -9.541,4.411 -16.264,7.099 -20.159,8.074 -3.905,0.991 -8.042,2.551 -12.4,4.691 -4.365,2.124 -7.991,4.171 -10.865,6.115 -0.695,2.383 -0.268,4.994 1.305,7.832 0.006,0.016 0.02,0.042 0.039,0.064 0.052,0.094 0.097,0.199 0.146,0.312 0.054,0.154 0.112,0.322 0.182,0.51 0.188,0.571 0.32,1.154 0.407,1.734 0.332,1.657 0.852,2.783 1.564,3.394 8.717,-4.336 17.309,-8.302 25.776,-11.924 4.121,-1.749 7.542,-3.134 10.274,-4.159 l 7.777,-2.949 c 8.11,-3.233 13.857,-5.146 17.247,-5.748 l 14.897,-2.897 c 5.329,-0.999 10.623,-1.556 15.9,-1.677 0.146,-0.957 -0.171,-2.357 -0.947,-4.188 -0.057,-0.132 -0.108,-0.256 -0.171,-0.374 -0.256,-0.583 -0.469,-1.062 -0.646,-1.45 -0.005,-0.013 -0.005,-0.013 -0.009,-0.02 -0.106,-0.232 -0.193,-0.435 -0.271,-0.588 -0.141,-0.312 -0.281,-0.617 -0.409,-0.923 -0.567,-1.26 -1.037,-2.322 -1.43,-3.169 -0.102,-0.216 -0.19,-0.428 -0.288,-0.634 -0.283,-0.596 -0.557,-1.14 -0.83,-1.656 -0.385,-0.688 -1.168,-0.98 -2.327,-0.892 -5.99,0.556 -11.902,1.534 -17.719,2.94"
         id="path1101" />
      <path
         inkscape:connector-curvature="0"
         style="fill:none;stroke:#737a91;stroke-width:1.56089997;stroke-linecap:round;stroke-linejoin:round;stroke-miterlimit:10"
         d="m 917.205,518.174 c 5.817,-1.406 11.729,-2.384 17.721,-2.938 1.159,-0.089 1.942,0.204 2.327,0.892 0.273,0.517 0.547,1.061 0.83,1.656 0.098,0.206 0.187,0.418 0.288,0.634 0.393,0.847 0.862,1.909 1.43,3.169 0.128,0.306 0.269,0.61 0.409,0.923 0.077,0.153 0.164,0.355 0.271,0.588 0.004,0.007 0.004,0.007 0.009,0.02 0.177,0.388 0.39,0.867 0.646,1.45 0.062,0.118 0.114,0.242 0.171,0.374 0.776,1.83 1.093,3.23 0.947,4.188 -5.277,0.121 -10.571,0.678 -15.9,1.677 l -14.897,2.897 c -3.39,0.602 -9.137,2.515 -17.247,5.748 l -7.777,2.949 c -2.732,1.025 -6.153,2.41 -10.274,4.159 -8.468,3.622 -17.06,7.588 -25.776,11.924 -0.714,-0.61 -1.232,-1.736 -1.564,-3.394 -0.087,-0.58 -0.219,-1.163 -0.407,-1.734 -0.069,-0.188 -0.128,-0.355 -0.182,-0.51 -0.049,-0.113 -0.094,-0.219 -0.146,-0.312 -0.02,-0.022 -0.033,-0.049 -0.039,-0.064 -1.572,-2.838 -2,-5.449 -1.305,-7.832 2.874,-1.944 6.5,-3.991 10.865,-6.115 4.358,-2.141 8.495,-3.7 12.4,-4.691 3.896,-0.976 10.618,-3.663 20.159,-8.074 5.961,-2.91 14.974,-5.438 27.041,-7.584 z"
         id="path1103" />
    </g>
  </g>
</svg>
