<?xml version="1.0" encoding="UTF-8" standalone="no"?>
<!-- Created with Inkscape (http://www.inkscape.org/) -->

<svg
   xmlns:dc="http://purl.org/dc/elements/1.1/"
   xmlns:cc="http://creativecommons.org/ns#"
   xmlns:rdf="http://www.w3.org/1999/02/22-rdf-syntax-ns#"
   xmlns:svg="http://www.w3.org/2000/svg"
   xmlns="http://www.w3.org/2000/svg"
   xmlns:sodipodi="http://sodipodi.sourceforge.net/DTD/sodipodi-0.dtd"
   xmlns:inkscape="http://www.inkscape.org/namespaces/inkscape"
   width="128.336"
   height="231.19576"
   id="svg5696"
   version="1.1"
   inkscape:version="0.48.4 r9939"
   sodipodi:docname="oscar8.svg">
  <defs
     id="defs5698">
    <clipPath
       id="SVGID_2_">
      <rect
         height="88.862999"
         width="111.498"
         y="518.96198"
         x="382.04999"
         id="use1087" />
    </clipPath>
    <clipPath
       id="SVGID_4_">
      <rect
         height="41.314999"
         width="49.584999"
         y="525.19397"
         x="389.84698"
         id="use1111" />
    </clipPath>
  </defs>
  <sodipodi:namedview
     id="base"
     pagecolor="#ffffff"
     bordercolor="#666666"
     borderopacity="1.0"
     inkscape:pageopacity="0.0"
     inkscape:pageshadow="2"
     inkscape:zoom="0.77472527"
     inkscape:cx="76.872509"
     inkscape:cy="136.7317"
     inkscape:current-layer="layer1"
     inkscape:document-units="px"
     showgrid="false"
     inkscape:window-width="763"
     inkscape:window-height="591"
     inkscape:window-x="592"
     inkscape:window-y="97"
     inkscape:window-maximized="0"
     fit-margin-top="0"
     fit-margin-left="0"
     fit-margin-right="0"
     fit-margin-bottom="0" />
  <metadata
     id="metadata5701">
    <rdf:RDF>
      <cc:Work
         rdf:about="">
        <dc:format>image/svg+xml</dc:format>
        <dc:type
           rdf:resource="http://purl.org/dc/dcmitype/StillImage" />
        <dc:title></dc:title>
      </cc:Work>
    </rdf:RDF>
  </metadata>
  <g
     id="layer1"
     inkscape:label="Layer 1"
     inkscape:groupmode="layer"
     transform="translate(-241.07079,9.3576961)">
    <g
       transform="translate(-618.92921,-272.66194)"
       id="g5">
      <path
         inkscape:connector-curvature="0"
         style="fill:#245e27"
         d="m 925.839,340.643 -31.723,1.366 c 2.074,14.102 0.794,25.686 -3.838,34.747 -0.01,0.006 -0.029,0.025 -0.038,0.055 -0.42,0.685 -0.812,1.399 -1.164,2.13 -2.826,5.526 -4.241,11.81 -4.252,18.847 -0.013,9.663 2.611,17.9 7.886,24.723 5.208,6.751 11.497,10.138 18.874,10.157 7.362,0 13.667,-3.369 18.903,-10.104 5.275,-6.809 7.924,-15.041 7.937,-24.703 0.007,-4.523 -0.569,-8.73 -1.716,-12.627 -0.597,-1.98 -1.355,-3.839 -2.299,-5.563 -1.129,-2.068 -2.23,-4.134 -3.32,-6.191 l -0.02,-0.02 c -4.112,-8.511 -5.859,-19.451 -5.23,-32.817"
         id="path7" />
      <path
         inkscape:connector-curvature="0"
         style="fill:none;stroke:#245e27;stroke-width:1.52359998;stroke-linecap:round;stroke-linejoin:round;stroke-miterlimit:10"
         d="m 894.116,342.009 c 2.074,14.104 0.794,25.687 -3.838,34.747 -0.01,0.006 -0.029,0.025 -0.037,0.055 -0.421,0.685 -0.813,1.399 -1.165,2.13 -2.826,5.526 -4.243,11.81 -4.253,18.847 -0.013,9.663 2.612,17.9 7.887,24.723 5.208,6.751 11.497,10.138 18.874,10.157 7.362,0 13.667,-3.369 18.903,-10.104 5.275,-6.809 7.924,-15.041 7.937,-24.703 0.007,-4.523 -0.569,-8.73 -1.716,-12.627 -0.597,-1.98 -1.355,-3.839 -2.299,-5.563 -1.129,-2.068 -2.23,-4.134 -3.32,-6.191 l -0.02,-0.02 c -4.112,-8.508 -5.859,-19.45 -5.23,-32.814 l -31.723,1.363 z"
         id="path9" />
      <path
         inkscape:connector-curvature="0"
         style="fill:#245e27"
         d="m 975.751,336.265 c -0.447,0.379 -0.887,0.779 -1.335,1.198 0.719,-1.949 0.386,-4.017 -0.981,-6.189 -1.443,-2.297 -3.395,-3.004 -5.841,-2.122 -2.239,0.787 -4.05,2.204 -5.435,4.257 -1.098,1.608 -2.127,3.482 -3.109,5.614 -0.646,-1.82 -1.711,-3.289 -3.194,-4.422 -0.999,-0.793 -2.131,-1.108 -3.388,-0.957 -0.048,0.01 -0.096,0.028 -0.134,0.037 l 0.038,-0.018 c -1.484,0.227 -2.658,0.948 -3.525,2.166 -0.811,1.142 -1.308,2.407 -1.473,3.808 -0.162,1.322 -0.191,2.626 -0.079,3.921 v 0.019 c 0.121,1.171 0.331,2.39 0.622,3.676 -2.827,7.47 -11.915,17.672 -27.252,30.601 -0.124,0.111 -0.197,0.255 -0.228,0.436 -0.049,0.181 -0.029,0.344 0.057,0.494 l 7.31,14.367 c 0.049,0.126 0.134,0.238 0.248,0.325 0.115,0.065 0.238,0.096 0.38,0.096 0.145,0.012 0.277,-0.02 0.401,-0.095 23.144,-13.574 38.923,-24.338 47.342,-32.285 2.409,-0.274 4.817,-1.013 7.22,-2.218 3.383,-1.682 5.021,-3.658 4.938,-5.935 -0.005,-2.009 -0.784,-3.4 -2.336,-4.173 -0.409,-0.218 -0.874,-0.381 -1.409,-0.496 -0.797,-0.192 -1.749,-0.297 -2.854,-0.328 0.335,-0.334 0.647,-0.656 0.952,-0.989 h -0.019 c 0.677,-0.751 1.288,-1.521 1.851,-2.319 0.266,-0.381 0.524,-0.781 0.782,-1.201 0.715,-1.14 1.032,-2.321 0.957,-3.539 v -0.038 c -0.008,-0.381 -0.063,-0.772 -0.15,-1.182 -0.066,-0.228 -0.123,-0.439 -0.189,-0.629 -0.408,-1.191 -1.141,-2.085 -2.205,-2.668 -0.01,-0.01 -0.028,-0.019 -0.039,-0.019 l -0.019,-0.019 c -0.114,-0.066 -0.228,-0.124 -0.342,-0.172 -2.656,-1.307 -5.17,-0.979 -7.541,0.999 h -0.021 z m -3.024,-3.089 c 0.732,1.486 0.807,3.029 0.222,4.628 -0.581,1.606 -1.097,3.044 -1.546,4.3 0.027,-0.009 0.057,-0.028 0.095,-0.038 1.411,-1.188 2.792,-2.443 4.156,-3.747 1.364,-1.3 2.945,-2.061 4.744,-2.279 2.199,0.091 3.569,1.149 4.128,3.168 0.35,1.266 0.177,2.456 -0.52,3.56 -0.829,1.265 -1.727,2.492 -2.709,3.67 -0.677,0.79 -1.325,1.59 -1.945,2.397 l -0.897,1.084 c 1.821,-0.417 3.629,-0.499 5.43,-0.26 0.961,0.164 1.741,0.622 2.338,1.356 0.39,0.524 0.588,1.209 0.587,2.057 -0.049,1.675 -1.422,3.187 -4.098,4.526 -2.314,1.148 -4.629,1.85 -6.954,2.084 -0.181,0.028 -0.334,0.104 -0.458,0.229 -8.224,7.845 -23.729,18.464 -46.521,31.868 l -6.664,-13.147 c 15.478,-13.127 24.584,-23.49 27.31,-31.075 0.036,-0.144 0.047,-0.276 0.036,-0.419 -0.312,-1.304 -0.529,-2.543 -0.642,-3.714 -0.113,-1.19 -0.083,-2.39 0.08,-3.598 v -0.02 c 0.144,-1.142 0.538,-2.169 1.187,-3.083 h 0.02 c 0.61,-0.884 1.438,-1.407 2.494,-1.559 l 0.039,0 c 0.943,-0.18 1.78,0.05 2.513,0.67 1.521,1.383 2.844,3.479 3.972,6.289 1.248,-2.711 2.53,-5.138 3.854,-7.27 0.877,-1.417 1.994,-2.557 3.357,-3.422 1.362,-0.864 2.582,-1.158 3.656,-0.89 1.103,0.272 2.017,1.149 2.736,2.635"
         id="path11" />
      <path
         inkscape:connector-curvature="0"
         style="fill:#9ec94b"
         d="m 972.948,337.805 c 0.585,-1.6 0.511,-3.143 -0.222,-4.629 -0.719,-1.486 -1.633,-2.363 -2.737,-2.63 -1.074,-0.268 -2.294,0.025 -3.656,0.89 -1.362,0.865 -2.48,2.006 -3.357,3.422 -1.322,2.132 -2.606,4.558 -3.854,7.271 -1.128,-2.811 -2.45,-4.907 -3.972,-6.29 -0.732,-0.62 -1.569,-0.85 -2.513,-0.669 l -0.038,0 c -1.057,0.151 -1.885,0.672 -2.495,1.558 h -0.02 c -0.648,0.914 -1.043,1.94 -1.187,3.083 v 0.02 c -0.163,1.208 -0.191,2.409 -0.08,3.598 0.112,1.172 0.33,2.41 0.642,3.714 0.011,0.143 0,0.277 -0.036,0.419 -2.726,7.584 -11.832,17.948 -27.31,31.075 l 6.664,13.147 c 22.792,-13.403 38.298,-24.024 46.521,-31.868 0.125,-0.124 0.277,-0.2 0.458,-0.228 2.325,-0.235 4.64,-0.937 6.954,-2.085 2.676,-1.339 4.049,-2.851 4.098,-4.528 10e-4,-0.846 -0.197,-1.531 -0.587,-2.057 -0.597,-0.734 -1.377,-1.191 -2.338,-1.354 -1.8,-0.24 -3.608,-0.158 -5.428,0.258 l 0.897,-1.084 c 0.618,-0.807 1.267,-1.606 1.943,-2.396 0.982,-1.179 1.88,-2.406 2.709,-3.67 0.696,-1.104 0.869,-2.293 0.52,-3.56 -0.559,-2.019 -1.929,-3.078 -4.128,-3.166 -1.799,0.216 -3.38,0.976 -4.744,2.278 -1.364,1.302 -2.745,2.556 -4.156,3.745 -0.038,0.009 -0.067,0.028 -0.095,0.037 0.451,-1.257 0.966,-2.695 1.547,-4.301"
         id="path13" />
      <path
         inkscape:connector-curvature="0"
         style="fill:#9ec94b"
         d="m 925.048,341.442 -30.057,1.291 c 1.932,13.914 0.584,25.373 -4.027,34.373 -0.029,0.029 -0.047,0.069 -0.065,0.104 -0.41,0.656 -0.794,1.352 -1.136,2.063 v 0.021 c -2.779,5.424 -4.168,11.59 -4.178,18.494 -0.013,9.472 2.566,17.559 7.726,24.258 h 0.011 c 5.045,6.539 11.135,9.82 18.266,9.857 7.131,-0.019 13.228,-3.283 18.301,-9.799 v -0.009 c 5.171,-6.685 7.76,-14.767 7.773,-24.237 0.006,-4.447 -0.549,-8.579 -1.678,-12.407 -0.577,-1.934 -1.327,-3.735 -2.239,-5.421 v 0.01 c -1.11,-2.049 -2.214,-4.097 -3.286,-6.127 -0.027,-0.037 -0.057,-0.074 -0.076,-0.121 -4.081,-8.433 -5.859,-19.213 -5.335,-32.35"
         id="path15" />
      <path
         inkscape:connector-curvature="0"
         style="fill:#afb6d4"
         d="m 898.103,405.887 c 0.387,-4.313 -1.219,-6.391 -4.828,-6.233 l -20.277,-0.027 c -2.902,-0.127 -4.724,0.955 -5.453,3.267 -0.159,0.602 -0.294,1.316 -0.401,2.152 -0.085,0.447 -0.163,1.284 -0.232,2.532 -0.185,3.987 -0.542,7.71 -1.08,11.174 -0.397,4.305 1.22,6.373 4.847,6.214 l 20.278,0.028 c 3.578,0.186 5.571,-1.885 5.969,-6.198 l 1.177,-12.909 z m -5.252,-1.571 c 0.484,0.146 0.674,0.659 0.588,1.564 l -1.181,12.908 c -0.077,0.885 -0.373,1.408 -0.877,1.56 l -20.279,-0.027 c -0.493,-0.146 -0.704,-0.659 -0.627,-1.562 l 1.198,-12.907 c 0.089,-0.916 0.394,-1.439 0.917,-1.562 l 20.261,0.026 z"
         id="path17" />
      <path
         inkscape:connector-curvature="0"
         style="fill:none;stroke:#727a90;stroke-width:1.52359998;stroke-linecap:round;stroke-linejoin:round;stroke-miterlimit:10"
         d="m 892.851,404.316 -20.261,-0.027 c -0.523,0.123 -0.828,0.646 -0.917,1.562 l -1.198,12.907 c -0.077,0.903 0.134,1.417 0.627,1.562 l 20.279,0.027 c 0.504,-0.151 0.802,-0.675 0.877,-1.56 l 1.181,-12.908 c 0.085,-0.903 -0.104,-1.417 -0.588,-1.563 z m 5.252,1.571 -1.179,12.908 c -0.397,4.313 -2.391,6.384 -5.969,6.198 l -20.278,-0.028 c -3.627,0.159 -5.244,-1.909 -4.848,-6.214 0.539,-3.464 0.896,-7.187 1.081,-11.174 0.069,-1.248 0.147,-2.085 0.232,-2.532 0.107,-0.836 0.243,-1.551 0.401,-2.152 0.73,-2.312 2.549,-3.394 5.453,-3.267 l 20.277,0.027 c 3.611,-0.157 5.216,1.92 4.83,6.234 z"
         id="path19" />
      <rect
         x="875.38397"
         y="396.31601"
         transform="matrix(1,0.0014,-0.0014,1,0.5797,-1.2735)"
         style="fill:#c6cee3"
         width="14.889"
         height="9.4829998"
         id="rect21" />
      <rect
         x="875.38397"
         y="396.31601"
         transform="matrix(1,0.0014,-0.0014,1,0.5797,-1.2735)"
         style="fill:none;stroke:#727a90;stroke-width:1.52359998;stroke-linecap:round;stroke-linejoin:round;stroke-miterlimit:10"
         width="14.889"
         height="9.4829998"
         id="rect23" />
      <path
         inkscape:connector-curvature="0"
         style="fill:#afb6d4"
         d="m 955.642,379.869 c -0.753,-0.656 -1.664,-0.982 -2.74,-0.983 l -2.836,-0.033 c -2.076,0.161 -4.258,0.261 -6.552,0.287 -1.171,0.017 -2.362,0.024 -3.581,0.022 -8.12,-0.152 -13.507,-0.276 -16.145,-0.345 l -23.554,-0.289 c -5.065,-0.112 -10.767,-0.055 -17.116,0.166 -1.448,0.045 -2.924,0.109 -4.439,0.174 -1.941,0.048 -3.722,0.045 -5.351,-0.008 l -2.646,-0.078 -0.379,-0.01 c -1.067,-10e-4 -1.991,0.321 -2.763,0.976 -0.524,0.467 -0.859,1.008 -1.022,1.608 -0.065,0.258 -0.105,0.732 -0.106,1.446 l -0.002,1.725 c -10e-4,1.075 0.369,1.988 1.12,2.744 0.771,0.76 1.865,1.182 3.272,1.262 h 0.011 c 3.094,0.183 6.187,0.255 9.301,0.202 1.4,-0.027 3.885,-0.118 7.466,-0.296 4.75,-0.078 9.454,-0.071 14.108,0.02 l 19.202,0.027 c 2.913,0.166 5.828,0.16 8.74,-0.036 2.801,-0.026 5.598,-0.076 8.396,-0.142 2.865,-0.072 5.732,-0.049 8.599,0.059 1.141,0.033 2.285,0.062 3.428,0.091 0.218,0 0.445,0 0.665,0.012 0.572,0.021 1.218,0.04 1.94,0.059 h 0.049 l 0.182,10e-4 c 1.076,0.002 1.988,-0.379 2.741,-1.138 0.763,-0.753 1.146,-1.664 1.147,-2.74 l 0.003,-2.352 c 10e-4,-0.943 -0.38,-1.753 -1.138,-2.431"
         id="path25" />
      <path
         inkscape:connector-curvature="0"
         style="fill:#c6cee3"
         d="m 950.718,388.47 c -0.22,-0.012 -0.447,-0.012 -0.665,-0.012 -1.143,-0.029 -2.287,-0.058 -3.428,-0.091 -2.866,-0.107 -5.733,-0.131 -8.599,-0.059 -2.799,0.065 -5.596,0.115 -8.396,0.142 -2.912,0.196 -5.827,0.202 -8.74,0.036 l -19.202,-0.027 c -4.654,-0.091 -9.358,-0.098 -14.108,-0.02 -3.581,0.178 -6.065,0.269 -7.465,0.296 -3.115,0.053 -6.208,-0.02 -9.302,-0.202 0.104,0.97 0.188,2.063 0.242,3.274 l 0.052,3.703 c 0,0.125 0,0.255 -0.009,0.389 -0.042,1.714 -0.062,3.351 -0.055,4.902 l 0.214,9.56 c 0.057,0.791 0.113,1.553 0.179,2.276 l 0.075,1.582 c 0.157,2.636 0.325,5.11 0.502,7.407 0.04,0.449 0.077,0.886 0.115,1.314 0.083,1.113 0.157,2.258 0.223,3.428 0.027,0.503 0.037,1.016 0.036,1.541 l -10e-4,0.36 c -0.02,1.011 -0.069,2.01 -0.156,3.009 -0.028,0.294 -0.049,0.582 -0.078,0.859 v 0.055 c -0.104,0.848 -0.201,1.705 -0.289,2.551 -0.125,1.075 -0.212,2.15 -0.242,3.237 -0.01,0.134 -0.01,0.269 -0.01,0.399 -0.011,0.239 -10e-4,0.478 0.019,0.715 0.008,0.259 0.037,0.513 0.075,0.771 0.197,1.18 0.491,2.354 0.87,3.506 0.181,0.579 0.391,1.169 0.646,1.75 0.151,0.354 0.521,1.878 1.116,4.574 0.248,0.866 0.312,1.665 0.196,2.398 -0.114,0.713 -0.399,1.358 -0.868,1.938 -0.267,0.343 -0.478,0.773 -0.63,1.276 -0.276,0.905 -0.384,2.084 -0.31,3.542 0.029,0.598 0.085,1.257 0.169,1.962 l 1.06,18.755 -0.004,2.713 c 0.229,0.03 0.458,0.069 0.677,0.116 0.686,0.173 1.368,0.354 2.044,0.556 0.716,0.029 1.419,0.049 2.133,0.079 0.603,0.065 1.211,0.105 1.811,0.116 0.055,0 0.113,0 0.17,0.01 0.668,0.011 1.333,0.012 2.009,0.003 0.609,-0.009 1.22,-0.027 1.829,-0.057 0.667,-0.025 1.323,-0.046 1.971,-0.052 0.619,-0.009 1.237,0.002 1.846,0.03 0.602,0.027 1.189,0.051 1.771,0.052 0.695,-0.009 1.39,-0.027 2.104,-0.066 0.448,-0.025 0.896,-0.046 1.344,-0.074 1.513,-0.101 2.753,-0.289 3.713,-0.557 1.582,-0.443 3.562,-0.12 5.94,0.988 0.503,0.238 1.037,0.508 1.577,0.812 3.074,1.739 6.148,1.933 9.217,0.594 0.249,-0.104 0.504,-0.21 0.762,-0.293 2.942,-0.873 5.895,-1.65 8.876,-2.32 0.123,-0.04 0.239,-0.076 0.361,-0.114 0.354,-0.113 0.714,-0.209 1.067,-0.273 0.725,-0.142 1.447,-0.188 2.172,-0.14 0.219,0.019 0.446,0.056 0.666,0.113 0.724,0.146 1.437,0.382 2.149,0.7 0.447,0.142 0.902,0.238 1.37,0.305 1.971,0.362 3.038,0.559 3.198,0.585 1.295,0.192 2.323,0.289 3.076,0.29 1.246,10e-4 2.539,-0.054 3.865,-0.157 0.81,-0.065 2.181,-0.197 4.096,-0.411 l 3.196,-0.101 0.003,-2.438 c -0.008,-0.303 -0.008,-0.609 -0.007,-0.906 0.05,-7.88 0.383,-15.88 1.005,-23.986 0.443,-4.286 0.686,-7.531 0.737,-9.74 0.019,-0.982 0.002,-1.762 -0.055,-2.335 -0.094,-0.977 -0.151,-1.796 -0.179,-2.455 -0.025,-0.579 -0.016,-1.026 0.011,-1.352 0.06,-0.513 0.202,-1.085 0.422,-1.713 0.077,-0.209 0.163,-0.428 0.248,-0.647 1.041,-2.198 1.643,-3.872 1.807,-5.021 0.057,-0.44 0.058,-0.802 -0.007,-1.087 -0.275,-1.078 -0.646,-1.934 -1.102,-2.555 -0.4,-0.521 -0.606,-1.725 -0.632,-3.607 -0.012,-0.411 10e-4,-0.838 0.009,-1.308 l 0.08,-2.301 v -0.075 c -0.005,-9.608 0.34,-19.062 1.028,-28.371 0.099,-1.332 0.206,-2.864 0.33,-4.589 -0.722,-0.017 -1.368,-0.037 -1.94,-0.057"
         id="path27" />
      <polygon
         style="fill:#afb6d4"
         points="870.463,378.772 870.303,378.772 870.682,378.782 "
         id="polygon29" />
      <path
         inkscape:connector-curvature="0"
         style="fill:#c6cee3"
         d="m 871.055,391.808 c -0.055,-1.211 -0.139,-2.305 -0.242,-3.274 h -0.011 c 0.105,1.055 0.189,2.104 0.244,3.141 0,0.037 0,0.085 0.009,0.133"
         id="path31" />
      <path
         inkscape:connector-curvature="0"
         style="fill:#afb6d4"
         d="m 903.309,483.427 c -2.378,-1.108 -4.357,-1.432 -5.939,-0.988 -0.96,0.268 -2.201,0.456 -3.713,0.557 -0.448,0.028 -0.896,0.049 -1.344,0.076 -0.714,0.037 -1.408,0.056 -2.104,0.064 -0.582,-0.001 -1.171,-0.024 -1.771,-0.052 -0.608,-0.03 -1.228,-0.039 -1.846,-0.032 -0.648,0.01 -1.304,0.028 -1.971,0.054 -0.609,0.029 -1.22,0.048 -1.829,0.057 -0.676,0.009 -1.341,0.008 -2.009,-0.003 -0.057,-0.01 -0.116,-0.01 -0.17,-0.01 -0.601,-0.011 -1.208,-0.051 -1.811,-0.116 -0.714,-0.03 -1.417,-0.05 -2.133,-0.079 -0.37,0.008 -0.731,0.027 -1.094,0.035 -0.542,0.031 -1.085,0.047 -1.628,0.076 -0.143,0.009 -0.297,0.009 -0.447,0.017 -0.163,0.007 -0.323,0.007 -0.486,0.007 -1.534,0.754 -2.307,1.98 -2.309,3.693 l -0.004,2.951 c -0.002,1.075 0.331,1.99 1.004,2.745 0.694,0.761 1.531,1.145 2.495,1.146 l 74.485,0.103 c 0.982,10e-4 1.801,-0.38 2.478,-1.141 0.686,-0.752 1.031,-1.666 1.032,-2.741 l 0.004,-2.951 c 0.001,-1.076 -0.34,-2 -1.024,-2.764 -0.618,-0.685 -1.351,-1.058 -2.217,-1.114 l -3.196,0.101 c -1.915,0.214 -3.286,0.346 -4.096,0.411 -1.326,0.104 -2.619,0.158 -3.865,0.157 -0.753,-10e-4 -1.781,-0.098 -3.076,-0.29 -0.16,-0.026 -1.228,-0.223 -3.198,-0.585 -0.468,-0.066 -0.923,-0.163 -1.37,-0.305 -0.714,-0.318 -1.426,-0.555 -2.149,-0.7 -0.22,-0.058 -0.447,-0.095 -0.666,-0.113 -0.725,-0.048 -1.447,-0.002 -2.172,0.14 -0.354,0.064 -0.714,0.16 -1.067,0.273 -0.122,0.038 -0.238,0.074 -0.362,0.114 -2.98,0.67 -5.935,1.447 -8.875,2.32 -0.258,0.083 -0.513,0.188 -0.762,0.293 -3.069,1.339 -6.143,1.146 -9.217,-0.594 -0.542,-0.304 -1.075,-0.574 -1.578,-0.812"
         id="path33" />
      <path
         inkscape:connector-curvature="0"
         style="fill:none;stroke:#727a90;stroke-width:1.52359998;stroke-linecap:round;stroke-linejoin:round;stroke-miterlimit:10"
         d="m 870.812,388.533 h -0.011 c -1.407,-0.08 -2.502,-0.502 -3.272,-1.262 -0.751,-0.756 -1.121,-1.669 -1.12,-2.744 l 0.002,-1.725 c 0.001,-0.714 0.041,-1.188 0.106,-1.446 0.163,-0.601 0.497,-1.142 1.022,-1.608 0.771,-0.654 1.695,-0.977 2.763,-0.976 l 0.379,0.01 2.646,0.078 c 1.629,0.053 3.409,0.056 5.351,0.008 1.516,-0.064 2.991,-0.129 4.438,-0.174 6.352,-0.221 12.053,-0.278 17.118,-0.166 l 23.554,0.289 c 2.638,0.068 8.025,0.192 16.145,0.345 1.219,0.002 2.41,-0.006 3.581,-0.022 2.294,-0.026 4.476,-0.126 6.552,-0.287 l 2.836,0.033 c 1.076,10e-4 1.987,0.327 2.741,0.983 0.76,0.678 1.139,1.488 1.138,2.431 l -0.003,2.352 c -0.002,1.076 -0.383,1.987 -1.146,2.74 -0.754,0.759 -1.666,1.14 -2.742,1.138 l -0.182,-10e-4 h -0.049 m -10e-4,-10e-4 c -0.723,-0.019 -1.368,-0.038 -1.94,-0.059 -0.22,-0.012 -0.447,-0.012 -0.665,-0.012 -1.143,-0.029 -2.287,-0.058 -3.428,-0.091 -2.866,-0.107 -5.733,-0.131 -8.599,-0.059 -2.799,0.065 -5.596,0.115 -8.396,0.141 -2.912,0.197 -5.827,0.203 -8.74,0.037 l -19.202,-0.027 c -4.654,-0.091 -9.359,-0.098 -14.108,-0.02 -3.581,0.178 -6.065,0.269 -7.466,0.296 -3.114,0.053 -6.207,-0.02 -9.301,-0.202 m 78.146,94.484 0.003,-2.438 c -0.008,-0.303 -0.008,-0.609 -0.007,-0.906 0.048,-7.88 0.383,-15.88 1.005,-23.986 0.443,-4.286 0.686,-7.531 0.737,-9.74 0.019,-0.982 0.002,-1.762 -0.055,-2.335 -0.094,-0.978 -0.151,-1.796 -0.179,-2.455 -0.025,-0.579 -0.016,-1.026 0.011,-1.352 0.06,-0.513 0.202,-1.085 0.422,-1.714 0.077,-0.208 0.163,-0.427 0.248,-0.646 1.041,-2.198 1.643,-3.872 1.807,-5.021 0.059,-0.44 0.059,-0.802 -0.007,-1.087 -0.275,-1.078 -0.646,-1.934 -1.102,-2.555 -0.4,-0.521 -0.606,-1.725 -0.632,-3.607 -0.012,-0.411 10e-4,-0.838 0.009,-1.308 l 0.08,-2.302 v -0.074 c -0.005,-9.608 0.34,-19.062 1.028,-28.371 0.099,-1.332 0.206,-2.864 0.33,-4.589 m -82.194,-9.758 2.733,-0.016 m -2.384,9.777 c 0.104,0.97 0.188,2.063 0.242,3.274 l 0.052,3.703 c 0,0.125 0,0.255 -0.009,0.389 -0.042,1.714 -0.062,3.351 -0.055,4.902 l 0.214,9.56 c 0.057,0.791 0.113,1.553 0.179,2.276 l 0.075,1.582 c 0.157,2.636 0.325,5.11 0.502,7.407 0.04,0.449 0.077,0.886 0.115,1.314 0.083,1.113 0.157,2.258 0.223,3.428 0.026,0.503 0.037,1.016 0.036,1.541 l -10e-4,0.36 c -0.02,1.011 -0.069,2.01 -0.156,3.009 -0.028,0.294 -0.049,0.582 -0.078,0.859 v 0.055 c -0.104,0.848 -0.201,1.705 -0.289,2.551 -0.125,1.075 -0.213,2.15 -0.242,3.236 -0.01,0.135 -0.01,0.27 -0.01,0.4 -0.011,0.239 -10e-4,0.478 0.019,0.715 0.009,0.257 0.037,0.513 0.075,0.771 0.197,1.18 0.491,2.353 0.87,3.506 0.181,0.579 0.39,1.169 0.646,1.75 0.151,0.354 0.521,1.878 1.116,4.574 0.248,0.866 0.312,1.665 0.196,2.398 -0.114,0.713 -0.399,1.358 -0.868,1.938 -0.267,0.343 -0.478,0.773 -0.63,1.276 -0.276,0.904 -0.384,2.084 -0.31,3.542 0.029,0.598 0.085,1.257 0.169,1.962 l 1.06,18.755 -0.004,2.713 m 75.01,0.737 -3.196,0.101 c -1.915,0.214 -3.286,0.346 -4.096,0.411 -1.326,0.104 -2.619,0.158 -3.865,0.157 -0.753,-10e-4 -1.781,-0.098 -3.076,-0.29 -0.16,-0.026 -1.228,-0.223 -3.198,-0.585 -0.468,-0.066 -0.923,-0.163 -1.37,-0.305 -0.714,-0.318 -1.426,-0.555 -2.149,-0.7 -0.22,-0.058 -0.447,-0.095 -0.666,-0.113 -0.725,-0.048 -1.447,-0.002 -2.172,0.14 -0.354,0.064 -0.714,0.16 -1.067,0.273 -0.122,0.038 -0.238,0.074 -0.362,0.114 -2.98,0.67 -5.933,1.447 -8.875,2.32 -0.258,0.083 -0.513,0.188 -0.762,0.293 -3.068,1.339 -6.143,1.146 -9.217,-0.594 -0.542,-0.304 -1.074,-0.573 -1.578,-0.813 -2.378,-1.106 -4.357,-1.43 -5.939,-0.986 -0.96,0.268 -2.201,0.456 -3.713,0.557 -0.448,0.028 -0.896,0.049 -1.344,0.076 -0.714,0.037 -1.408,0.056 -2.104,0.064 -0.582,-0.001 -1.171,-0.024 -1.771,-0.052 -0.608,-0.028 -1.228,-0.039 -1.846,-0.03 -0.647,0.008 -1.304,0.026 -1.971,0.052 -0.609,0.029 -1.22,0.048 -1.829,0.057 -0.676,0.009 -1.341,0.008 -2.009,-0.003 -0.057,-0.01 -0.115,-0.01 -0.171,-0.01 -0.6,-0.011 -1.207,-0.051 -1.81,-0.116 -0.714,-0.03 -1.417,-0.05 -2.133,-0.079 -0.37,0.008 -0.731,0.027 -1.094,0.035 -0.542,0.031 -1.085,0.049 -1.628,0.076 -0.143,0.009 -0.297,0.009 -0.447,0.017 -0.163,0.007 -0.323,0.007 -0.486,0.007 -1.534,0.754 -2.307,1.98 -2.309,3.694 l -0.004,2.95 c -0.002,1.075 0.331,1.99 1.004,2.745 0.694,0.761 1.531,1.145 2.495,1.146 l 74.485,0.103 c 0.982,10e-4 1.801,-0.38 2.478,-1.141 0.686,-0.752 1.032,-1.666 1.033,-2.741 l 0.004,-2.95 c 10e-4,-1.077 -0.341,-2.001 -1.025,-2.765 -0.618,-0.686 -1.351,-1.059 -2.217,-1.115 z"
         id="path35" />
      <path
         inkscape:connector-curvature="0"
         style="fill:#afb6d4"
         d="m 943.856,393.336 h -0.02 c -1.143,-0.031 -2.134,0.891 -2.974,2.754 -0.889,1.838 -1.356,4.064 -1.399,6.684 l -0.194,30.656 c -0.593,1.341 -0.995,2.893 -1.198,4.643 -0.095,0.782 -0.154,1.6 -0.165,2.457 -0.105,2.211 0.168,3.95 0.814,5.218 l -0.761,24.562 c -0.038,2.313 0.31,4.294 1.041,5.961 0.723,1.638 1.626,2.457 2.699,2.459 h 0.021 c 1.038,10e-4 1.97,-0.816 2.781,-2.451 0.802,-1.664 1.235,-3.645 1.303,-5.958 l 0.365,-28.98 c -0.562,-0.449 -0.855,-1.536 -0.892,-3.257 -0.008,-0.237 -0.008,-0.485 10e-4,-0.742 l 1.287,-6.3 1.161,-28.257 c 0.049,-2.619 -0.289,-4.847 -1.041,-6.688 -0.746,-1.865 -1.686,-2.789 -2.829,-2.761"
         id="path37" />
      <path
         inkscape:connector-curvature="0"
         style="fill:#afb6d4"
         d="m 933.267,396.079 c -0.771,-1.865 -1.73,-2.79 -2.873,-2.762 h -0.019 c -1.142,-0.031 -2.124,0.892 -2.937,2.754 -0.839,1.838 -1.28,4.064 -1.323,6.684 l -0.393,37.643 -0.866,6.815 c -0.163,0.839 -0.033,2.275 0.411,4.323 l 0.031,18.757 c -0.039,2.313 0.317,4.294 1.08,5.959 0.72,1.639 1.622,2.458 2.718,2.46 h 0.02 c 1.027,0.002 1.951,-0.814 2.764,-2.452 0.772,-1.663 1.193,-3.644 1.266,-5.957 l -0.065,-22.375 c -0.646,-1.493 -0.873,-3.207 -0.677,-5.122 l 1.323,-7.385 0.635,-32.654 c 0.031,-2.621 -0.337,-4.847 -1.095,-6.688"
         id="path39" />
      <path
         inkscape:connector-curvature="0"
         style="fill:#afb6d4"
         d="m 920.167,396.062 c -0.79,-1.865 -1.74,-2.789 -2.871,-2.762 h -0.022 c -1.141,-0.031 -2.122,0.891 -2.935,2.754 -0.841,1.839 -1.264,4.063 -1.267,6.683 l -0.351,48.686 0.832,3.946 c 0.198,0.903 0.111,2.654 -0.274,5.272 l -0.376,9.635 c -0.003,2.312 0.385,4.295 1.154,5.961 0.75,1.638 1.654,2.457 2.72,2.458 h 0.021 c 1.064,0.002 1.979,-0.815 2.742,-2.451 0.766,-1.664 1.158,-3.644 1.189,-5.957 l 0.608,-67.539 c 0.013,-2.619 -0.375,-4.846 -1.17,-6.686"
         id="path41" />
      <path
         inkscape:connector-curvature="0"
         style="fill:#afb6d4"
         d="m 904.251,393.282 c -1.152,-0.032 -2.124,0.89 -2.916,2.754 -0.804,1.839 -1.187,4.064 -1.151,6.683 l 0.521,7.714 -0.346,2.473 0.675,36.407 0.623,3.581 c 0.445,1.609 0.127,3.979 -0.942,7.1 l -0.055,10.266 c -0.012,2.312 0.377,4.294 1.174,5.96 0.763,1.638 1.683,2.458 2.759,2.459 h 0.019 c 1.056,0.002 1.961,-0.814 2.727,-2.451 0.763,-1.663 1.146,-3.645 1.149,-5.957 l 0.188,-11.083 0.443,-3.674 -0.683,-2.533 -0.046,-50.25 c 0.003,-2.618 -0.402,-4.845 -1.21,-6.686 -0.797,-1.866 -1.767,-2.791 -2.908,-2.762 h -0.021 z"
         id="path43" />
      <path
         inkscape:connector-curvature="0"
         style="fill:#afb6d4"
         d="m 891.646,393.264 h -0.02 c -1.153,-0.031 -2.125,0.892 -2.898,2.755 -0.792,1.838 -1.156,4.063 -1.094,6.683 l 1.494,7.447 -1.071,3.445 0.925,33.933 c 0.653,2.599 0.982,5.112 0.979,7.543 l -0.863,3.861 -0.377,11.312 c 0.027,2.313 0.442,4.295 1.248,5.96 0.79,1.64 1.702,2.459 2.758,2.46 h 0.021 c 1.064,0.002 1.971,-0.815 2.705,-2.451 0.736,-1.664 1.101,-3.646 1.074,-5.958 l -0.481,-9.198 c -0.026,-0.98 0.04,-1.732 0.193,-2.266 0.143,-0.534 0.259,-0.886 0.363,-1.067 0.086,-0.178 0.182,-0.389 0.268,-0.625 0.278,-0.727 0.411,-1.458 0.401,-2.209 0.001,-0.533 -0.045,-1.059 -0.147,-1.58 -0.162,-0.84 -0.371,-1.667 -0.626,-2.495 l -0.378,-2.381 -0.41,-34.237 c 0.765,-1.798 1.194,-3.13 1.281,-3.978 l -0.548,-2.99 -0.564,-4.514 c -0.046,-2.619 -0.48,-4.845 -1.306,-6.686 -0.834,-1.868 -1.814,-2.793 -2.927,-2.764"
         id="path45" />
      <path
         inkscape:connector-curvature="0"
         style="fill:#afb6d4"
         d="m 878.983,393.247 h -0.019 c -1.152,-0.031 -2.105,0.891 -2.841,2.754 -0.774,1.839 -1.139,3.665 -1.093,5.483 -0.048,0.306 -0.068,0.6 -0.04,0.893 0.084,0.688 0.332,1.301 0.722,1.832 0.429,0.581 0.721,1.246 0.873,1.981 0.066,0.295 0.143,0.715 0.227,1.276 -0.333,0.903 -0.641,1.932 -0.918,3.102 l -0.439,1.771 1.625,36.104 1.498,4.038 c 0.521,1.518 0.366,2.935 -0.462,4.264 -0.696,0.81 -1.098,2.456 -1.188,4.931 0.263,2.629 0.212,5.477 -0.146,8.551 0.046,2.313 0.479,4.295 1.288,5.962 0.807,1.638 1.758,2.457 2.833,2.458 h 0.019 c 1.038,0.002 1.935,-0.815 2.669,-2.451 0.716,-1.664 1.053,-3.645 1.018,-5.958 l -0.196,-10.512 c 0.718,-3.113 0.94,-5.282 0.678,-6.511 l -0.739,-3.848 -1.569,-35.914 c -0.007,-0.38 0.135,-0.827 0.44,-1.33 0.307,-0.505 0.641,-1.371 1.013,-2.589 0.087,-0.343 0.163,-0.6 0.229,-0.781 l -1.114,-4.989 c -0.115,-0.581 -0.18,-1.238 -0.188,-1.961 0.049,-2.02 -0.349,-3.952 -1.19,-5.793 -0.869,-1.866 -1.858,-2.791 -2.99,-2.763"
         id="path47" />
      <path
         inkscape:connector-curvature="0"
         style="fill:#afb6d4"
         d="m 955.159,412.183 -0.238,-6.705 c -0.298,-4.312 -2.249,-6.391 -5.838,-6.232 l -20.278,-0.028 c -2.009,-0.089 -3.397,0.471 -4.173,1.689 -0.16,0.371 -0.306,0.741 -0.419,1.123 -0.123,0.427 -0.201,0.876 -0.211,1.331 -0.01,0.608 0.016,1.21 0.093,1.81 0.074,0.562 0.121,1.114 0.131,1.657 0.01,0.76 0.037,1.513 0.072,2.265 0.039,0.686 0.085,1.373 0.13,2.057 0.012,0.163 0.03,0.332 0.039,0.496 l 0.579,7.463 c 0.074,0.84 0.235,1.66 0.474,2.459 0.065,0.2 0.132,0.408 0.208,0.608 0.827,1.458 2.14,2.26 3.958,2.387 2.514,-0.072 5.025,-0.021 7.54,0.144 1.132,0.011 2.37,0.069 3.713,0.156 1.913,0.09 3.94,0.122 6.073,0.085 0.962,-0.075 1.932,-0.142 2.913,-0.204 0.458,-0.04 0.924,-0.086 1.392,-0.133 0.407,-0.038 0.807,-0.076 1.219,-0.111 2.436,-0.501 3.535,-2.54 3.283,-6.109 l -0.66,-6.208 z m -5.758,-8.274 c 0.504,0.144 0.79,0.657 0.854,1.562 0.539,3.723 0.837,7.685 0.879,11.902 0.16,1.105 0.045,1.913 -0.346,2.437 -0.029,0.038 -0.057,0.065 -0.095,0.095 -4.201,0.597 -7.884,0.791 -11.046,0.594 -3.161,-0.193 -5.379,-0.31 -6.646,-0.352 -1.284,-0.048 -2.257,-0.145 -2.911,-0.271 l -0.399,-0.379 c -0.163,-0.268 -0.267,-0.65 -0.305,-1.145 l -0.749,-8.53 -0.146,-4.38 c -0.065,-0.912 0.144,-1.437 0.629,-1.561 l 20.281,0.028 z"
         id="path49" />
      <path
         inkscape:connector-curvature="0"
         style="fill:none;stroke:#727a90;stroke-width:1.52359998;stroke-linecap:round;stroke-linejoin:round;stroke-miterlimit:10"
         d="m 954.921,405.478 c -0.298,-4.312 -2.249,-6.391 -5.838,-6.232 l -20.278,-0.028 c -2.009,-0.089 -3.397,0.471 -4.173,1.689 -0.16,0.371 -0.306,0.741 -0.419,1.123 -0.123,0.427 -0.201,0.876 -0.211,1.331 -0.01,0.608 0.016,1.21 0.093,1.81 0.074,0.562 0.121,1.114 0.131,1.657 0.01,0.76 0.037,1.513 0.072,2.265 0.039,0.686 0.085,1.373 0.13,2.057 0.012,0.163 0.03,0.332 0.039,0.496 l 0.579,7.463 c 0.074,0.84 0.235,1.66 0.474,2.459 0.065,0.2 0.132,0.408 0.208,0.608 0.827,1.458 2.14,2.26 3.958,2.387 2.514,-0.072 5.025,-0.021 7.54,0.144 1.132,0.011 2.37,0.069 3.713,0.156 1.913,0.09 3.94,0.122 6.073,0.085 0.962,-0.075 1.932,-0.142 2.913,-0.204 0.458,-0.04 0.924,-0.086 1.392,-0.133 0.407,-0.038 0.807,-0.076 1.219,-0.111 2.436,-0.501 3.535,-2.54 3.283,-6.109 l -0.659,-6.206 -0.239,-6.707 z m -5.52,-1.569 -20.279,-0.027 c -0.485,0.124 -0.694,0.648 -0.629,1.561 l 0.146,4.38 0.749,8.53 c 0.038,0.494 0.142,0.877 0.305,1.145 l 0.399,0.379 c 0.654,0.127 1.627,0.224 2.911,0.271 1.267,0.042 3.484,0.158 6.646,0.352 3.162,0.197 6.845,0.003 11.046,-0.594 0.038,-0.029 0.065,-0.057 0.095,-0.095 0.391,-0.523 0.506,-1.331 0.346,-2.437 -0.042,-4.218 -0.34,-8.18 -0.879,-11.902 -0.066,-0.906 -0.352,-1.419 -0.856,-1.563 z"
         id="path51" />
      <path
         inkscape:connector-curvature="0"
         style="fill:#c6cee3"
         d="m 946.952,398.48 c -0.037,-0.885 -0.579,-1.344 -1.636,-1.354 l -7.123,-0.047 c -1.321,-0.061 -2.55,-0.072 -3.675,-0.045 -1.416,-0.031 -2.255,0.236 -2.503,0.795 -0.145,1.268 -0.174,2.726 -0.074,4.362 l 0.034,4.266 c 0.152,0.123 0.295,0.22 0.438,0.265 0.655,0.119 1.302,0.156 1.94,0.121 h 0.151 0.269 c 2.847,0.011 5.617,0.035 8.32,0.048 l 3.484,0.062 c 0.298,-0.714 0.432,-1.418 0.422,-2.132 l -0.047,-6.341 z"
         id="path53" />
      <path
         inkscape:connector-curvature="0"
         style="fill:none;stroke:#727a90;stroke-width:1.52359998;stroke-linecap:round;stroke-linejoin:round;stroke-miterlimit:10"
         d="m 945.316,397.126 -7.123,-0.047 c -1.321,-0.061 -2.55,-0.072 -3.675,-0.045 -1.416,-0.031 -2.255,0.236 -2.503,0.795 -0.145,1.268 -0.174,2.726 -0.074,4.362 l 0.034,4.266 c 0.152,0.123 0.295,0.22 0.438,0.265 0.655,0.119 1.302,0.156 1.94,0.121 h 0.151 0.269 c 2.847,0.011 5.617,0.035 8.32,0.048 l 3.484,0.062 c 0.298,-0.714 0.432,-1.418 0.422,-2.132 l -0.049,-6.341 c -0.035,-0.884 -0.577,-1.343 -1.634,-1.354 z"
         id="path55" />
      <path
         inkscape:connector-curvature="0"
         style="fill:#245e27"
         d="m 896.826,364.719 c -0.694,-0.544 -1.665,-1.173 -2.893,-1.89 -0.027,-0.027 -0.047,-0.037 -0.074,-0.037 -1.143,-0.525 -2.398,-0.965 -3.769,-1.319 l -0.02,-0.019 c -2.513,-0.604 -5.017,-0.874 -7.501,-0.829 -2.551,0.044 -4.923,0.488 -7.124,1.323 h 0.02 c -2.219,0.795 -4.248,1.946 -6.079,3.457 v 0.019 c -1.82,1.492 -3.403,3.223 -4.767,5.172 -1.374,1.968 -2.443,4.12 -3.208,6.47 -0.793,2.426 -0.778,4.881 0.028,7.368 v -0.018 c 0.445,1.409 1.196,2.324 2.262,2.744 0.771,0.343 1.723,0.394 2.856,0.156 0.112,1.027 0.406,2.027 0.871,2.99 1.358,2.773 3.395,3.917 6.108,3.437 2.467,-0.427 4.334,-1.774 5.604,-4.028 0.797,1.828 2.261,3.076 4.392,3.738 h -0.018 c 1.571,0.536 3.084,0.393 4.532,-0.414 2.504,-1.367 4.109,-3.47 4.807,-6.296 0.584,-2.351 0.776,-4.713 0.582,-7.082 -0.01,-0.191 -0.029,-0.383 -0.057,-0.572 0.142,0.115 0.276,0.222 0.418,0.325 0.484,0.409 1.009,0.716 1.576,0.936 0.506,0.2 1.078,0.354 1.716,0.438 0.58,0.05 1.17,0.012 1.751,-0.11 0.943,-0.234 1.649,-0.824 2.136,-1.75 l 0.019,-0.018 c 0.372,-0.694 0.632,-1.418 0.782,-2.171 l 0.021,-0.02 c 0.115,-0.655 0.183,-1.302 0.212,-1.94 v -0.038 c 0.002,-0.58 -0.036,-1.17 -0.112,-1.751 v -0.019 c -0.122,-0.812 -0.348,-1.61 -0.662,-2.381 v 0.019 c -0.294,-0.763 -0.654,-1.477 -1.101,-2.154 -0.01,-0.009 -0.02,-0.028 -0.02,-0.037 -0.419,-0.686 -0.903,-1.334 -1.464,-1.945 v -0.018 c -0.569,-0.639 -1.176,-1.212 -1.824,-1.736 m -7.118,-1.781 h -0.02 c 1.265,0.334 2.447,0.736 3.521,1.223 1.142,0.66 2.036,1.251 2.684,1.756 h -0.021 c 0.58,0.456 1.132,0.983 1.635,1.564 h 0.021 c 0.494,0.542 0.921,1.134 1.292,1.751 l 0.019,0.021 c 0.39,0.6 0.723,1.228 0.988,1.904 0,0.011 0.01,0.029 0.019,0.039 0.275,0.562 0.454,1.152 0.529,1.772 0.104,0.76 0.133,1.493 0.092,2.19 -0.037,0.723 -0.151,1.416 -0.343,2.093 -0.154,0.58 -0.46,1.055 -0.917,1.407 -0.61,0.428 -1.267,0.657 -1.979,0.683 -0.573,-0.001 -1.201,-0.172 -1.886,-0.517 -0.686,-0.354 -1.169,-0.659 -1.445,-0.897 -0.277,-0.237 -0.429,-0.371 -0.457,-0.399 -0.484,-0.42 -1.283,-1.354 -2.395,-2.803 l 0.586,2.801 c 0.34,1.601 0.461,3.228 0.373,4.895 -0.087,1.663 -0.405,3.264 -0.939,4.797 -0.585,1.646 -1.585,2.977 -2.994,3.975 -0.238,0.161 -0.476,0.331 -0.706,0.494 -0.028,0 -0.048,0.009 -0.057,0.02 -1.057,0.577 -2.153,0.682 -3.293,0.3 h -0.021 c -0.637,-0.199 -1.188,-0.466 -1.675,-0.783 -1.55,-1.287 -2.366,-2.935 -2.469,-4.956 -0.045,-1.103 -0.023,-2.587 0.083,-4.456 -0.544,1.115 -0.878,2.238 -0.996,3.353 -0.143,1.102 -0.315,1.931 -0.535,2.493 -0.229,0.543 -0.47,1.047 -0.707,1.503 -0.238,0.458 -0.591,0.902 -1.05,1.333 -0.199,0.189 -0.41,0.361 -0.608,0.512 -0.296,0.228 -0.609,0.438 -0.955,0.627 -0.561,0.275 -1.161,0.484 -1.808,0.605 -1.096,0.182 -2.028,-0.01 -2.818,-0.554 -1.379,-1.249 -2.186,-2.813 -2.411,-4.707 -0.199,-1.667 -0.177,-3.323 0.064,-4.989 0.01,-0.113 0.028,-0.219 0.037,-0.322 0.076,-0.43 0.191,-0.981 0.346,-1.657 l -1.03,1.562 c -0.506,0.979 -0.803,1.89 -0.879,2.739 -0.078,0.838 -0.118,1.324 -0.118,1.466 -0.035,0.009 -0.065,0.028 -0.095,0.036 -1.171,0.391 -2.161,0.142 -2.969,-0.766 l -0.17,-0.284 c -0.142,-0.238 -0.258,-0.505 -0.343,-0.801 -0.711,-2.173 -0.718,-4.313 -0.029,-6.416 0.717,-2.208 1.72,-4.232 3.018,-6.07 1.287,-1.854 2.774,-3.48 4.481,-4.888 1.688,-1.404 3.563,-2.479 5.621,-3.209 2.047,-0.768 4.258,-1.185 6.628,-1.228 2.36,-0.046 4.731,0.213 7.101,0.788"
         id="path57" />
      <path
         inkscape:connector-curvature="0"
         style="fill:#9ec94b"
         d="m 889.688,362.938 h 0.02 c -2.37,-0.576 -4.741,-0.834 -7.102,-0.791 -2.37,0.043 -4.582,0.46 -6.628,1.228 -2.058,0.73 -3.934,1.805 -5.621,3.209 -1.707,1.408 -3.194,3.034 -4.48,4.888 -1.299,1.838 -2.302,3.863 -3.019,6.07 -0.688,2.103 -0.682,4.243 0.029,6.416 0.085,0.296 0.201,0.562 0.343,0.801 l 0.17,0.284 c 0.808,0.907 1.798,1.156 2.969,0.766 0.029,-0.008 0.06,-0.027 0.095,-0.036 0,-0.142 0.04,-0.628 0.118,-1.466 0.076,-0.85 0.373,-1.761 0.879,-2.739 l 1.03,-1.562 c -0.154,0.676 -0.27,1.228 -0.346,1.657 -0.009,0.104 -0.027,0.209 -0.037,0.322 -0.241,1.666 -0.264,3.322 -0.064,4.989 0.226,1.894 1.032,3.458 2.411,4.707 0.79,0.544 1.723,0.735 2.818,0.554 0.646,-0.121 1.247,-0.33 1.808,-0.605 0.344,-0.189 0.659,-0.399 0.955,-0.627 0.198,-0.15 0.409,-0.322 0.61,-0.512 0.457,-0.431 0.81,-0.875 1.048,-1.333 0.237,-0.456 0.479,-0.96 0.707,-1.503 0.22,-0.562 0.393,-1.392 0.535,-2.493 0.118,-1.114 0.452,-2.237 0.996,-3.353 -0.105,1.869 -0.128,3.354 -0.083,4.456 0.103,2.021 0.919,3.669 2.469,4.956 0.486,0.317 1.038,0.584 1.675,0.783 h 0.021 c 1.14,0.382 2.236,0.277 3.293,-0.3 0.01,-0.011 0.028,-0.02 0.057,-0.02 0.23,-0.163 0.468,-0.333 0.706,-0.494 1.409,-0.998 2.412,-2.328 2.994,-3.975 0.534,-1.533 0.853,-3.134 0.939,-4.797 0.088,-1.667 -0.034,-3.294 -0.373,-4.895 l -0.586,-2.801 c 1.111,1.449 1.91,2.383 2.395,2.803 0.028,0.028 0.18,0.162 0.457,0.399 0.276,0.238 0.76,0.544 1.445,0.897 0.685,0.345 1.312,0.516 1.886,0.517 0.713,-0.025 1.369,-0.256 1.979,-0.683 0.457,-0.353 0.763,-0.827 0.917,-1.407 0.191,-0.677 0.306,-1.37 0.343,-2.093 0.041,-0.697 0.013,-1.43 -0.092,-2.19 -0.075,-0.62 -0.254,-1.209 -0.529,-1.772 -0.009,-0.01 -0.019,-0.028 -0.019,-0.039 -0.266,-0.677 -0.599,-1.305 -0.988,-1.904 l -0.019,-0.021 c -0.371,-0.618 -0.798,-1.209 -1.292,-1.751 h -0.021 c -0.503,-0.581 -1.055,-1.108 -1.635,-1.564 h 0.021 c -0.647,-0.505 -1.542,-1.096 -2.685,-1.756 -1.071,-0.483 -2.255,-0.885 -3.519,-1.22"
         id="path59" />
      <path
         inkscape:connector-curvature="0"
         style="fill:#595f73"
         d="m 863.023,284.691 -0.717,8.225 c 3.532,1.555 7.565,2.666 12.126,3.328 2.628,0.157 6.016,0.941 10.165,2.356 21.93,3.906 45.606,4.166 71.04,0.802 l -0.272,-9.082 -92.342,-5.629 z"
         id="path61" />
      <path
         inkscape:connector-curvature="0"
         style="fill:none;stroke:#727a90;stroke-width:1.52359998;stroke-linecap:round;stroke-linejoin:round;stroke-miterlimit:10"
         d="m 863.023,284.691 92.342,5.63 0.272,9.082 c -25.434,3.364 -49.11,3.104 -71.04,-0.802 -4.149,-1.415 -7.537,-2.199 -10.165,-2.356 -4.561,-0.663 -8.594,-1.773 -12.126,-3.328 l 0.717,-8.226 z"
         id="path63" />
      <path
         inkscape:connector-curvature="0"
         style="fill:#9ec94b"
         d="m 948.715,298.017 c -1.703,-0.238 -3.536,-1.188 -5.515,-2.851 -4.89,-5.789 -12.4,-9.162 -22.548,-10.119 0.287,-1.103 1.037,-2.055 2.255,-2.844 -2.671,-0.521 -5.763,-0.284 -9.29,0.716 -0.827,-0.438 -0.854,-1.293 -0.086,-2.558 -3.49,0.105 -6.806,1.59 -9.934,4.434 -4.146,-1.453 -8.396,-1.871 -12.741,-1.261 1.998,0.654 3.262,1.577 3.785,2.775 -6.17,0.876 -12.019,3.759 -17.548,8.648 -2.025,1.787 -3.975,2.815 -5.846,3.081 0.769,1.018 2.005,1.607 3.708,1.778 -3.812,5.372 -6.977,8.32 -9.486,8.844 0.895,1.056 2.302,1.625 4.221,1.711 -1.319,3.441 -4.179,5.99 -8.581,7.646 1.11,1.967 3.555,2.718 7.33,2.251 -0.581,1.132 -1.026,2.3 -1.35,3.518 -0.293,1.094 -0.428,2.206 -0.397,3.337 0.019,1.093 0.199,2.159 0.543,3.186 0.332,0.998 0.837,1.986 1.494,2.974 0.625,-0.988 1.349,-1.816 2.165,-2.472 0.295,1.037 0.629,2.054 1.01,3.033 0.134,0.342 0.276,0.685 0.418,1.018 2.494,5.836 6.555,10.427 12.174,13.773 -0.028,-0.912 0.143,-1.787 0.513,-2.624 4.137,4.41 9.368,7.26 15.711,8.543 -0.069,-0.952 0.16,-1.836 0.662,-2.654 0.381,0.484 0.789,0.941 1.236,1.369 0.429,0.41 0.885,0.798 1.36,1.159 0.504,0.399 1.037,0.761 1.588,1.084 0.628,0.351 1.294,0.656 1.988,0.912 0.36,0.124 0.73,0.229 1.112,0.305 0.686,0.143 1.379,0.19 2.084,0.15 0.596,-0.047 1.167,-0.189 1.71,-0.409 0.618,-0.247 1.197,-0.523 1.749,-0.827 0.581,-0.314 1.103,-0.666 1.587,-1.066 0.495,-0.41 0.987,-0.817 1.474,-1.245 0.495,-0.42 0.939,-0.894 1.341,-1.437 0.503,0.817 0.732,1.701 0.665,2.653 6.341,-1.287 11.57,-4.141 15.705,-8.554 0.37,0.836 0.542,1.711 0.514,2.624 6.748,-4.014 11.244,-9.823 13.475,-17.43 0.896,0.455 1.724,1.206 2.484,2.252 2.412,-4.261 2.438,-8.661 0.081,-13.196 3.774,0.465 6.218,-0.287 7.33,-2.256 -4.404,-1.653 -7.265,-4.2 -8.587,-7.642 1.92,-0.085 3.327,-0.657 4.219,-1.711 -2.509,-0.522 -5.677,-3.468 -9.491,-8.839 1.703,-0.171 2.938,-0.761 3.709,-1.779"
         id="path65" />
      <path
         inkscape:connector-curvature="0"
         style="fill:none;stroke:#245e27;stroke-width:1.52139997;stroke-linecap:round;stroke-miterlimit:10"
         d="m 948.715,298.017 c -0.771,1.018 -2.006,1.607 -3.709,1.779 3.814,5.371 6.981,8.317 9.491,8.839 -0.892,1.055 -2.299,1.626 -4.219,1.711 1.322,3.442 4.183,5.989 8.587,7.642 -1.112,1.969 -3.556,2.721 -7.33,2.256 2.357,4.535 2.331,8.936 -0.081,13.196 -0.761,-1.046 -1.589,-1.797 -2.484,-2.252 -2.23,7.607 -6.727,13.416 -13.475,17.43 0.028,-0.912 -0.144,-1.787 -0.514,-2.624 -4.135,4.413 -9.364,7.267 -15.705,8.554 0.067,-0.952 -0.162,-1.836 -0.665,-2.653 -0.401,0.542 -0.846,1.016 -1.341,1.437 -0.486,0.428 -0.979,0.835 -1.474,1.245 -0.484,0.4 -1.006,0.752 -1.587,1.066 -0.552,0.304 -1.131,0.581 -1.749,0.827 -0.543,0.219 -1.114,0.362 -1.71,0.409 -0.705,0.04 -1.398,-0.008 -2.084,-0.15 -0.382,-0.076 -0.752,-0.181 -1.112,-0.305 -0.694,-0.256 -1.36,-0.561 -1.988,-0.912 -0.551,-0.323 -1.084,-0.685 -1.588,-1.084 -0.476,-0.361 -0.932,-0.75 -1.36,-1.159 -0.447,-0.428 -0.855,-0.885 -1.236,-1.369 -0.502,0.817 -0.731,1.702 -0.662,2.654 -6.343,-1.283 -11.574,-4.133 -15.711,-8.543 -0.37,0.837 -0.541,1.712 -0.513,2.624 -5.619,-3.346 -9.68,-7.937 -12.174,-13.773 -0.142,-0.333 -0.284,-0.675 -0.418,-1.019 -0.381,-0.978 -0.715,-1.995 -1.01,-3.032 -0.816,0.656 -1.54,1.484 -2.165,2.472 -0.657,-0.988 -1.162,-1.976 -1.494,-2.976 -0.344,-1.026 -0.524,-2.091 -0.543,-3.184 -0.03,-1.132 0.104,-2.243 0.397,-3.337 0.323,-1.218 0.769,-2.386 1.35,-3.518 -3.775,0.467 -6.22,-0.284 -7.33,-2.251 4.402,-1.656 7.262,-4.205 8.581,-7.646 -1.919,-0.086 -3.326,-0.655 -4.221,-1.711 2.51,-0.524 5.675,-3.472 9.486,-8.844 -1.703,-0.17 -2.939,-0.76 -3.708,-1.778 1.871,-0.266 3.82,-1.293 5.846,-3.081 5.529,-4.889 11.378,-7.771 17.548,-8.648 -0.523,-1.198 -1.787,-2.121 -3.785,-2.775 4.345,-0.61 8.596,-0.192 12.741,1.261 3.128,-2.844 6.443,-4.328 9.934,-4.434 -0.769,1.265 -0.741,2.12 0.086,2.558 3.527,-1 6.617,-1.238 9.29,-0.716 -1.218,0.79 -1.968,1.742 -2.255,2.844 10.147,0.957 17.658,4.33 22.548,10.119 1.979,1.663 3.812,2.613 5.515,2.851 z"
         id="path67" />
      <path
         inkscape:connector-curvature="0"
         style="fill:#1f1a19"
         d="m 924.966,321.757 c 0.029,0.334 0.048,0.676 0.059,1.037 0.029,2.862 -1.388,5.276 -4.239,7.266 -2.861,2.025 -6.302,3.014 -10.335,2.988 -4.04,-0.017 -7.499,-1.043 -10.38,-3.078 -2.797,-1.967 -4.243,-4.333 -4.328,-7.092 -7.388,-0.443 -14.605,-1.458 -21.64,-3.054 7.961,13.576 21.129,20.435 39.527,20.59 16.687,0.139 27.568,-7.461 32.633,-22.818 -7.236,1.848 -14.337,3.237 -21.297,4.161"
         id="path69" />
      <path
         inkscape:connector-curvature="0"
         style="fill:#d93729"
         d="m 925.024,322.793 c -0.011,-0.361 -0.029,-0.703 -0.059,-1.037 -10.029,1.315 -19.766,1.689 -29.224,1.121 0.085,2.758 1.531,5.125 4.328,7.092 2.88,2.034 6.34,3.061 10.379,3.078 4.034,0.026 7.476,-0.962 10.336,-2.988 2.853,-1.989 4.27,-4.403 4.24,-7.266"
         id="path71" />
      <path
         inkscape:connector-curvature="0"
         style="fill:none;stroke:#1f1a19;stroke-width:0.0095;stroke-linecap:round;stroke-linejoin:round;stroke-miterlimit:10"
         d="m 924.966,321.757 c 6.96,-0.923 14.062,-2.313 21.297,-4.161 -5.064,15.357 -15.946,22.957 -32.633,22.818 -18.398,-0.156 -31.566,-7.015 -39.527,-20.59 7.034,1.596 14.252,2.611 21.64,3.054"
         id="path73" />
      <path
         inkscape:connector-curvature="0"
         style="fill:none;stroke:#d93729;stroke-width:0.0095;stroke-linecap:round;stroke-linejoin:round;stroke-miterlimit:10"
         d="m 924.966,321.757 c -10.029,1.315 -19.766,1.689 -29.224,1.121 0.085,2.758 1.531,5.125 4.328,7.092 2.881,2.034 6.34,3.061 10.38,3.078 4.033,0.026 7.474,-0.962 10.335,-2.988 2.852,-1.989 4.269,-4.403 4.239,-7.266 -0.01,-0.361 -0.029,-0.703 -0.058,-1.037 z"
         id="path75" />
      <path
         inkscape:connector-curvature="0"
         style="fill:#ffffff"
         d="m 923.929,298.273 c -2.596,-0.447 -4.963,0.086 -7.12,1.608 -2.157,1.512 -3.45,3.565 -3.887,6.162 -0.443,2.596 0.097,4.973 1.609,7.12 1.542,2.159 3.603,3.46 6.2,3.906 2.586,0.438 4.952,-0.106 7.091,-1.638 2.158,-1.511 3.453,-3.576 3.897,-6.171 0.438,-2.595 -0.107,-4.962 -1.618,-7.101 -1.531,-2.157 -3.584,-3.458 -6.172,-3.886"
         id="path77" />
      <path
         inkscape:connector-curvature="0"
         style="fill:#ffffff"
         d="m 887.336,306.06 c -0.446,2.586 0.098,4.954 1.62,7.112 1.532,2.157 3.595,3.46 6.188,3.906 2.579,0.445 4.945,-0.106 7.094,-1.639 2.157,-1.521 3.459,-3.576 3.905,-6.161 0.447,-2.596 -0.099,-4.973 -1.638,-7.12 -1.521,-2.158 -3.575,-3.452 -6.151,-3.878 -2.597,-0.446 -4.973,0.097 -7.13,1.608 -2.138,1.512 -3.432,3.577 -3.888,6.172"
         id="path79" />
      <path
         inkscape:connector-curvature="0"
         style="fill:#1f1a19"
         d="m 925.017,305.542 c -0.507,-1.025 -1.295,-1.712 -2.367,-2.077 -1.078,-0.367 -2.125,-0.297 -3.148,0.2 -1.023,0.506 -1.711,1.292 -2.074,2.365 -0.366,1.072 -0.297,2.113 0.203,3.137 0.504,1.024 1.291,1.711 2.364,2.076 1.07,0.364 2.112,0.295 3.136,-0.204 1.024,-0.499 1.711,-1.286 2.075,-2.365 0.371,-1.069 0.308,-2.109 -0.189,-3.132"
         id="path81" />
      <path
         inkscape:connector-curvature="0"
         style="fill:#1f1a19"
         d="m 902.415,305.625 c -0.506,-1.024 -1.295,-1.711 -2.367,-2.077 -1.077,-0.366 -2.125,-0.298 -3.148,0.201 -1.024,0.506 -1.71,1.292 -2.077,2.365 -0.362,1.072 -0.294,2.113 0.205,3.136 0.505,1.025 1.291,1.711 2.364,2.076 1.071,0.364 2.111,0.294 3.136,-0.204 1.023,-0.498 1.71,-1.286 2.076,-2.364 0.372,-1.07 0.307,-2.11 -0.189,-3.133"
         id="path83" />
      <path
         inkscape:connector-curvature="0"
         style="fill:#c16413"
         d="m 923.055,291.771 c -0.373,-0.656 -1.026,-0.778 -1.957,-0.36 -3.644,1.703 -7.065,3.625 -10.269,5.747 -0.655,0.435 -1.149,0.531 -1.501,0.283 -4.29,-2.945 -7.206,-4.798 -8.778,-5.559 -1.597,-0.777 -2.718,-0.883 -3.366,-0.302 -0.655,0.561 -0.892,1.274 -0.701,2.158 -5.98,0.26 -10.449,1.335 -13.415,3.218 -2.945,1.863 -4.495,3.167 -4.647,3.917 -0.161,0.732 0.885,1.075 3.139,1.017 -1.941,1.56 -3.519,3.443 -4.725,5.658 -0.589,1.075 -0.855,1.911 -0.798,2.511 0.01,0.075 0.028,0.152 0.046,0.237 0.01,0.048 0.031,0.085 0.039,0.124 0.029,0.067 0.076,0.114 0.125,0.162 0.124,0.123 0.267,0.219 0.426,0.304 0.2,0.105 0.42,0.181 0.638,0.237 0.171,0.067 0.353,0.115 0.534,0.162 3.316,0.731 6.606,0.559 9.85,-0.525 0.131,-3.224 1.041,-5.83 2.744,-7.834 1.683,-2.007 3.728,-2.72 6.112,-2.123 1.872,0.465 3.499,1.092 4.869,1.881 l 2.054,1.34 c 1.312,0.884 2.414,1.51 3.301,1.881 0.874,0.371 1.947,0.542 3.224,0.522 1.293,-0.01 2.707,-0.438 4.258,-1.285 1.549,-0.856 2.699,-1.494 3.451,-1.912 0.863,-0.466 1.797,-0.914 2.795,-1.323 1.225,-0.475 2.442,-0.79 3.639,-0.932 1.931,-0.229 3.463,0.066 4.595,0.892 0.56,0.409 1.027,0.96 1.396,1.654 0.394,0.694 0.705,1.416 0.963,2.167 0.457,1.436 0.561,3.09 0.306,4.945 3.433,1.073 7.11,1.357 11.039,0.843 1.159,-0.134 1.787,-0.552 1.882,-1.266 0.142,-0.761 -0.296,-1.816 -1.295,-3.155 -1.484,-2.007 -3.023,-3.688 -4.621,-5.03 0.55,0.086 1.197,0.021 1.948,-0.19 1.663,-0.485 1.719,-1.312 0.151,-2.481 -5.847,-4.258 -11.449,-6.206 -16.781,-5.842 -0.11,-0.581 -0.329,-1.161 -0.67,-1.741"
         id="path85" />
      <path
         inkscape:connector-curvature="0"
         style="fill:#c6cee3"
         d="m 924.343,266.2 c -0.677,-0.106 -1.59,-0.145 -2.731,-0.127 -2.886,0.148 -5.572,0.049 -8.056,-0.287 -2.484,-0.337 -4.008,-0.539 -4.568,-0.597 -0.096,-0.01 -0.2,-0.02 -0.306,-0.029 -0.522,-0.067 -1.208,-0.164 -2.056,-0.307 -4.35,-0.721 -7.301,-0.935 -8.871,-0.661 -0.602,0.076 -1.201,0.38 -1.811,0.922 -0.095,0.085 -0.181,0.17 -0.257,0.255 -0.448,0.495 -0.688,1.095 -0.736,1.8 -0.491,4.112 -0.736,8.005 -0.731,11.689 -0.048,0.828 0.198,1.542 0.76,2.163 0.53,0.609 1.208,0.943 2.035,0.994 0.829,0.048 1.544,-0.199 2.164,-0.74 0.599,-0.542 0.924,-1.228 0.972,-2.055 -0.203,-3.056 -0.029,-6.15 0.518,-9.302 2.351,-0.006 4.723,0.227 7.112,0.686 5.453,0.779 9.844,1.147 13.165,1.124 l -0.545,8.729 c -0.05,0.828 0.198,1.542 0.758,2.152 0.534,0.622 1.209,0.954 2.035,1.003 0.81,0.049 1.534,-0.197 2.152,-0.72 0.603,-0.561 0.936,-1.247 0.984,-2.075 l 0.729,-11.385 c 0.05,-1.028 -0.175,-1.791 -0.672,-2.296 -0.486,-0.496 -1.171,-0.81 -2.044,-0.936"
         id="path87" />
      <path
         inkscape:connector-curvature="0"
         style="fill:none;stroke:#727a90;stroke-width:1.52359998;stroke-linecap:round;stroke-linejoin:round;stroke-miterlimit:10"
         d="m 924.343,266.2 c 0.873,0.125 1.559,0.44 2.044,0.936 0.497,0.505 0.722,1.268 0.672,2.296 l -0.729,11.385 c -0.049,0.828 -0.382,1.514 -0.984,2.075 -0.618,0.523 -1.343,0.77 -2.152,0.72 -0.826,-0.049 -1.501,-0.381 -2.035,-1.003 -0.56,-0.61 -0.808,-1.324 -0.758,-2.152 l 0.545,-8.729 c -3.321,0.023 -7.712,-0.344 -13.165,-1.124 -2.39,-0.459 -4.762,-0.692 -7.112,-0.686 -0.547,3.151 -0.721,6.246 -0.518,9.302 -0.048,0.828 -0.373,1.513 -0.972,2.055 -0.62,0.542 -1.335,0.788 -2.164,0.74 -0.827,-0.05 -1.505,-0.384 -2.035,-0.994 -0.562,-0.62 -0.808,-1.334 -0.76,-2.163 -0.005,-3.684 0.24,-7.577 0.731,-11.689 0.049,-0.705 0.288,-1.305 0.736,-1.8 0.076,-0.085 0.162,-0.17 0.257,-0.255 0.609,-0.542 1.209,-0.846 1.811,-0.922 1.57,-0.274 4.521,-0.06 8.871,0.661 0.848,0.143 1.533,0.24 2.056,0.307 0.105,0.01 0.21,0.02 0.306,0.029 0.561,0.058 2.084,0.26 4.568,0.597 2.483,0.336 5.17,0.435 8.056,0.287 1.141,-0.017 2.054,0.021 2.731,0.127 z"
         id="path89" />
      <path
         inkscape:connector-curvature="0"
         style="fill:#afb6d4"
         d="m 937.528,279.937 c -11.66,-2.453 -20.721,-3.428 -27.188,-2.921 -10.252,0.585 -17.316,0.604 -21.191,0.075 -3.883,-0.52 -8.196,-0.592 -12.927,-0.209 -4.732,0.365 -8.771,0.931 -12.095,1.679 -1.533,1.958 -2.148,4.548 -1.82,7.766 0,0.019 0,0.047 0.008,0.076 0.012,0.105 0.012,0.219 0.012,0.342 -0.012,0.163 -0.021,0.343 -0.029,0.543 -0.049,0.599 -0.154,1.189 -0.299,1.76 -0.334,1.666 -0.299,2.903 0.11,3.733 9.484,-0.816 18.72,-1.335 27.706,-1.581 4.371,-0.108 7.969,-0.132 10.815,-0.081 l 8.112,0.125 c 8.521,-0.017 14.414,0.325 17.688,1.014 l 14.487,2.801 c 5.167,1.034 10.136,2.47 14.92,4.305 0.497,-0.837 0.747,-2.256 0.75,-4.246 0,-0.142 0,-0.276 -0.009,-0.409 -0.01,-0.639 -0.017,-1.162 -0.028,-1.59 V 293.1 c -0.01,-0.256 -0.01,-0.476 -0.019,-0.647 -0.008,-0.342 -0.017,-0.676 -0.016,-1.009 -0.027,-1.381 -0.045,-2.543 -0.072,-3.476 -0.008,-0.237 -0.008,-0.466 -0.02,-0.694 -0.026,-0.658 -0.062,-1.267 -0.111,-1.848 -0.084,-0.782 -0.672,-1.343 -1.748,-1.686 -5.595,-1.692 -11.277,-2.967 -17.036,-3.803"
         id="path91" />
      <path
         inkscape:connector-curvature="0"
         style="fill:none;stroke:#727a90;stroke-width:1.52359998;stroke-linecap:round;stroke-linejoin:round;stroke-miterlimit:10"
         d="m 937.528,279.937 c 5.759,0.836 11.44,2.111 17.036,3.804 1.076,0.343 1.664,0.904 1.748,1.686 0.049,0.581 0.085,1.19 0.111,1.848 0.012,0.229 0.012,0.457 0.02,0.694 0.027,0.933 0.045,2.095 0.072,3.476 -10e-4,0.333 0.008,0.667 0.016,1.009 0.009,0.171 0.009,0.391 0.019,0.647 v 0.019 c 0.012,0.428 0.019,0.952 0.028,1.59 0.009,0.132 0.009,0.267 0.009,0.409 -0.003,1.99 -0.253,3.409 -0.75,4.246 -4.784,-1.835 -9.753,-3.271 -14.92,-4.305 l -14.487,-2.801 c -3.273,-0.689 -9.167,-1.031 -17.688,-1.014 l -8.112,-0.125 c -2.847,-0.052 -6.444,-0.028 -10.815,0.081 -8.986,0.245 -18.222,0.765 -27.706,1.581 -0.409,-0.83 -0.444,-2.067 -0.11,-3.733 0.145,-0.571 0.25,-1.161 0.299,-1.76 0.009,-0.2 0.018,-0.38 0.029,-0.543 0,-0.124 0,-0.237 -0.012,-0.342 -0.008,-0.029 -0.008,-0.057 -0.008,-0.076 -0.328,-3.218 0.287,-5.808 1.82,-7.766 3.324,-0.749 7.362,-1.314 12.095,-1.679 4.73,-0.383 9.044,-0.311 12.927,0.209 3.875,0.529 10.939,0.51 21.191,-0.075 6.468,-0.508 15.528,0.467 27.188,2.92 z"
         id="path93" />
    </g>
  </g>
</svg>
