<?xml version="1.0" encoding="UTF-8" standalone="no"?>
<!-- Created with Inkscape (http://www.inkscape.org/) -->

<svg
   xmlns:dc="http://purl.org/dc/elements/1.1/"
   xmlns:cc="http://creativecommons.org/ns#"
   xmlns:rdf="http://www.w3.org/1999/02/22-rdf-syntax-ns#"
   xmlns:svg="http://www.w3.org/2000/svg"
   xmlns="http://www.w3.org/2000/svg"
   xmlns:sodipodi="http://sodipodi.sourceforge.net/DTD/sodipodi-0.dtd"
   xmlns:inkscape="http://www.inkscape.org/namespaces/inkscape"
   width="111.00692"
   height="228.63707"
   id="svg5696"
   version="1.1"
   inkscape:version="0.48.4 r9939"
   sodipodi:docname="oscar11.svg">
  <defs
     id="defs5698">
    <clipPath
       id="SVGID_2_">
      <rect
         height="88.862999"
         width="111.498"
         y="518.96198"
         x="382.04999"
         id="use1087" />
    </clipPath>
    <clipPath
       id="SVGID_4_">
      <rect
         height="41.314999"
         width="49.584999"
         y="525.19397"
         x="389.84698"
         id="use1111" />
    </clipPath>
  </defs>
  <sodipodi:namedview
     id="base"
     pagecolor="#ffffff"
     bordercolor="#666666"
     borderopacity="1.0"
     inkscape:pageopacity="0.0"
     inkscape:pageshadow="2"
     inkscape:zoom="0.77472527"
     inkscape:cx="55.502878"
     inkscape:cy="114.32393"
     inkscape:current-layer="layer1"
     inkscape:document-units="px"
     showgrid="false"
     inkscape:window-width="763"
     inkscape:window-height="591"
     inkscape:window-x="592"
     inkscape:window-y="97"
     inkscape:window-maximized="0"
     fit-margin-top="0"
     fit-margin-left="0"
     fit-margin-right="0"
     fit-margin-bottom="0" />
  <metadata
     id="metadata5701">
    <rdf:RDF>
      <cc:Work
         rdf:about="">
        <dc:format>image/svg+xml</dc:format>
        <dc:type
           rdf:resource="http://purl.org/dc/dcmitype/StillImage" />
        <dc:title></dc:title>
      </cc:Work>
    </rdf:RDF>
  </metadata>
  <g
     id="layer1"
     inkscape:label="Layer 1"
     inkscape:groupmode="layer"
     transform="translate(-262.44042,29.206763)">
    <g
       transform="translate(-209.67766,-537.8197)"
       id="g479">
      <path
         inkscape:connector-curvature="0"
         style="fill:#255f27"
         d="m 546.95,583.855 -31.425,2.571 c 2.6,13.916 1.771,25.462 -2.474,34.628 -0.011,0.01 -0.028,0.028 -0.036,0.056 -0.392,0.698 -0.751,1.421 -1.075,2.16 -2.591,5.592 -3.756,11.884 -3.497,18.862 0.358,9.589 3.28,17.666 8.776,24.233 5.429,6.495 11.797,9.617 19.12,9.353 7.304,-0.281 13.434,-3.871 18.369,-10.75 4.973,-6.959 7.285,-15.23 6.925,-24.82 -0.165,-4.487 -0.898,-8.641 -2.184,-12.464 -0.67,-1.942 -1.495,-3.757 -2.495,-5.431 -1.199,-2.008 -2.372,-4.019 -3.536,-6.019 l -0.018,-0.018 c -4.405,-8.284 -6.559,-19.073 -6.45,-32.361"
         id="path481" />
      <path
         inkscape:connector-curvature="0"
         style="fill:none;stroke:#255f27;stroke-width:1.51259995;stroke-linecap:round;stroke-linejoin:round;stroke-miterlimit:10"
         d="m 515.524,586.427 c 2.601,13.916 1.772,25.462 -2.473,34.628 -0.012,0.01 -0.028,0.028 -0.037,0.056 -0.391,0.698 -0.752,1.421 -1.074,2.16 -2.591,5.592 -3.756,11.884 -3.497,18.862 0.358,9.589 3.28,17.666 8.776,24.232 5.429,6.496 11.797,9.618 19.121,9.354 7.302,-0.281 13.433,-3.871 18.368,-10.75 4.973,-6.959 7.286,-15.23 6.927,-24.82 -0.167,-4.487 -0.899,-8.641 -2.188,-12.464 -0.668,-1.942 -1.493,-3.757 -2.493,-5.431 -1.198,-2.008 -2.372,-4.019 -3.536,-6.019 l -0.018,-0.018 c -4.406,-8.285 -6.56,-19.075 -6.451,-32.362 l -31.425,2.572 z"
         id="path483" />
      <path
         inkscape:connector-curvature="0"
         style="fill:#9fc94c"
         d="m 546.198,584.68 -29.779,2.436 c 2.452,13.73 1.556,25.155 -2.676,34.262 -0.026,0.03 -0.044,0.068 -0.061,0.107 -0.383,0.668 -0.734,1.37 -1.048,2.093 10e-4,0.01 10e-4,0.01 10e-4,0.02 -2.551,5.485 -3.69,11.661 -3.435,18.509 0.352,9.4 3.22,17.325 8.597,23.777 h 0.009 c 5.262,6.293 11.43,9.317 18.507,9.08 7.074,-0.293 12.999,-3.767 17.784,-10.427 v -0.01 c 4.872,-6.833 7.134,-14.95 6.781,-24.352 -0.165,-4.41 -0.874,-8.491 -2.141,-12.246 -0.648,-1.896 -1.46,-3.654 -2.431,-5.291 v 0.008 c -1.18,-1.989 -2.352,-3.979 -3.494,-5.953 -0.03,-0.037 -0.061,-0.072 -0.081,-0.119 -4.374,-8.212 -6.549,-18.839 -6.533,-31.894"
         id="path485" />
      <path
         inkscape:connector-curvature="0"
         style="fill:#5a6074"
         d="m 474.256,544.927 1.715,7.996 c 3.798,0.448 7.756,0.301 11.879,-0.438 3.626,-0.624 7.348,-1.064 11.162,-1.304 20.248,-2.83 42.711,-9.17 67.386,-19.014 l -3.063,-8.789 -89.079,21.549 z"
         id="path487" />
      <path
         inkscape:connector-curvature="0"
         style="fill:none;stroke:#737a91;stroke-width:1.50899994;stroke-linecap:round;stroke-linejoin:round;stroke-miterlimit:10"
         d="m 474.256,544.927 89.078,-21.549 3.063,8.789 c -24.675,9.844 -47.138,16.184 -67.386,19.014 -3.814,0.239 -7.536,0.68 -11.162,1.304 -4.123,0.739 -8.081,0.887 -11.879,0.438 l -1.714,-7.996 z"
         id="path489" />
      <path
         inkscape:connector-curvature="0"
         style="fill:#9fc94c"
         d="m 557.439,536.003 c 1.583,-0.602 2.616,-1.483 3.091,-2.654 -1.689,0.209 -3.69,-0.228 -6.01,-1.312 -6.163,-4.288 -14.217,-5.59 -24.173,-3.901 -0.01,-1.13 0.464,-2.232 1.427,-3.298 -2.689,0.185 -5.588,1.206 -8.705,3.066 -0.903,-0.206 -1.152,-1.016 -0.738,-2.427 -3.314,0.997 -6.106,3.269 -8.37,6.793 -4.342,-0.327 -8.517,0.364 -12.517,2.061 2.077,0.116 3.525,0.675 4.335,1.687 -5.683,2.422 -10.537,6.68 -14.578,12.778 -1.478,2.231 -3.08,3.714 -4.803,4.45 0.997,0.775 2.331,1.022 4.005,0.747 -2.271,6.122 -4.543,9.753 -6.809,10.9 1.114,0.772 2.597,0.959 4.441,0.563 -0.149,0.925 -0.435,1.833 -0.859,2.717 -0.641,1.323 -1.602,2.575 -2.875,3.758 -0.789,0.727 -1.699,1.44 -2.729,2.117 1.512,1.378 4.021,1.395 7.531,0.036 -0.299,1.104 -0.461,2.209 -0.494,3.321 -0.033,1.003 0.094,1.984 0.375,2.933 0.271,0.932 0.685,1.788 1.247,2.562 0.544,0.761 1.251,1.47 2.103,2.138 0.379,-0.996 0.88,-1.886 1.514,-2.648 0.52,0.806 1.067,1.577 1.653,2.306 0.205,0.258 0.419,0.512 0.636,0.765 3.709,4.301 8.639,7.154 14.777,8.548 -0.234,-0.764 -0.271,-1.554 -0.105,-2.352 4.963,2.68 10.613,3.745 16.974,3.211 -0.279,-0.795 -0.262,-1.6 0.035,-2.419 0.473,0.31 0.968,0.588 1.494,0.847 0.501,0.228 1.027,0.436 1.562,0.625 0.576,0.215 1.17,0.388 1.77,0.51 0.68,0.139 1.385,0.225 2.106,0.264 0.376,0.017 0.756,0.012 1.138,-0.021 0.685,-0.057 1.364,-0.192 2.025,-0.408 0.561,-0.199 1.077,-0.453 1.545,-0.786 0.534,-0.366 1.026,-0.752 1.483,-1.158 0.487,-0.402 0.907,-0.839 1.278,-1.309 0.382,-0.464 0.761,-0.946 1.13,-1.424 0.376,-0.481 0.696,-1.007 0.954,-1.563 0.669,0.562 1.088,1.25 1.24,2.077 5.776,-2.721 10.133,-6.475 13.088,-11.277 0.543,0.605 0.905,1.308 1.087,2.089 5.547,-5.138 8.528,-11.213 8.938,-18.229 0.957,0.152 1.921,0.578 2.884,1.263 1.343,-4.231 0.372,-7.96 -2.918,-11.202 3.719,-0.579 5.882,-1.854 6.501,-3.803 -1.229,-0.07 -2.366,-0.233 -3.413,-0.469 -1.702,-0.382 -3.163,-0.986 -4.377,-1.81 -0.813,-0.553 -1.512,-1.195 -2.106,-1.924 1.794,-0.58 2.985,-1.484 3.562,-2.712 -2.536,0.142 -6.322,-1.866 -11.35,-6.026"
         id="path491" />
      <path
         inkscape:connector-curvature="0"
         style="fill:none;stroke:#255f27;stroke-width:1.50750005;stroke-linecap:round;stroke-miterlimit:10"
         d="m 557.439,536.003 c 5.027,4.16 8.813,6.168 11.35,6.022 -0.577,1.228 -1.769,2.132 -3.562,2.712 0.595,0.729 1.293,1.371 2.106,1.924 1.214,0.823 2.675,1.428 4.377,1.81 1.047,0.235 2.184,0.398 3.413,0.469 -0.619,1.949 -2.782,3.224 -6.501,3.803 3.29,3.242 4.261,6.971 2.918,11.202 -0.963,-0.685 -1.927,-1.11 -2.884,-1.263 -0.409,7.017 -3.391,13.092 -8.938,18.229 -0.182,-0.781 -0.545,-1.483 -1.087,-2.089 -2.955,4.803 -7.312,8.557 -13.088,11.277 -0.152,-0.827 -0.571,-1.516 -1.24,-2.077 -0.258,0.557 -0.578,1.082 -0.954,1.563 -0.369,0.478 -0.748,0.96 -1.13,1.424 -0.371,0.47 -0.791,0.906 -1.278,1.309 -0.457,0.406 -0.949,0.792 -1.483,1.158 -0.468,0.333 -0.984,0.587 -1.545,0.786 -0.661,0.216 -1.341,0.352 -2.025,0.408 -0.382,0.033 -0.762,0.038 -1.138,0.021 -0.722,-0.039 -1.427,-0.125 -2.106,-0.264 -0.6,-0.122 -1.193,-0.295 -1.77,-0.51 -0.535,-0.189 -1.061,-0.397 -1.562,-0.625 -0.526,-0.259 -1.021,-0.537 -1.494,-0.847 -0.297,0.819 -0.314,1.624 -0.035,2.419 -6.36,0.534 -12.011,-0.531 -16.974,-3.211 -0.166,0.798 -0.129,1.588 0.105,2.352 -6.139,-1.394 -11.069,-4.247 -14.777,-8.548 -0.217,-0.253 -0.431,-0.507 -0.638,-0.765 -0.584,-0.729 -1.132,-1.5 -1.651,-2.306 -0.634,0.763 -1.135,1.652 -1.514,2.648 -0.853,-0.668 -1.559,-1.377 -2.103,-2.138 -0.562,-0.773 -0.977,-1.63 -1.247,-2.562 -0.281,-0.948 -0.408,-1.93 -0.375,-2.933 0.033,-1.112 0.195,-2.217 0.494,-3.321 -3.51,1.358 -6.02,1.342 -7.531,-0.036 1.029,-0.677 1.939,-1.391 2.729,-2.117 1.273,-1.183 2.234,-2.435 2.875,-3.758 0.425,-0.884 0.71,-1.792 0.859,-2.717 -1.845,0.396 -3.327,0.209 -4.441,-0.563 2.266,-1.147 4.537,-4.778 6.809,-10.9 -1.674,0.275 -3.008,0.028 -4.005,-0.747 1.723,-0.736 3.325,-2.219 4.803,-4.45 4.041,-6.099 8.896,-10.356 14.578,-12.778 -0.81,-1.012 -2.258,-1.57 -4.335,-1.687 4,-1.696 8.175,-2.388 12.515,-2.061 2.266,-3.524 5.058,-5.796 8.372,-6.793 -0.414,1.411 -0.166,2.221 0.738,2.427 3.117,-1.86 6.014,-2.882 8.705,-3.066 -0.963,1.065 -1.437,2.168 -1.427,3.298 9.956,-1.688 18.01,-0.387 24.173,3.901 2.319,1.085 4.32,1.521 6.01,1.312 -0.476,1.175 -1.508,2.056 -3.091,2.658 l 0,0 z"
         id="path493" />
      <path
         inkscape:connector-curvature="0"
         style="fill:#1a1414"
         d="m 556.121,560.165 c -19.063,0.017 -34.416,5.219 -46.064,15.594 12.756,-8.75 28.112,-13.946 46.064,-15.594"
         id="path495" />
      <path
         inkscape:connector-curvature="0"
         style="fill:none;stroke:#1f1a1a;stroke-width:0.0095;stroke-linecap:round;stroke-linejoin:round;stroke-miterlimit:10"
         d="m 510.057,575.759 c 12.757,-8.75 28.112,-13.945 46.064,-15.594 -19.063,0.017 -34.416,5.219 -46.064,15.594 z"
         id="path497" />
      <path
         inkscape:connector-curvature="0"
         style="fill:#ffffff"
         d="m 536.825,539.901 c -2.598,0.24 -4.728,1.358 -6.401,3.368 -1.677,1.999 -2.388,4.296 -2.139,6.892 0.239,2.601 1.369,4.735 3.366,6.404 2.027,1.669 4.338,2.385 6.936,2.146 2.589,-0.245 4.714,-1.37 6.367,-3.386 1.679,-2.003 2.385,-4.309 2.146,-6.906 -0.248,-2.597 -1.374,-4.724 -3.37,-6.381 -2.019,-1.672 -4.32,-2.392 -6.905,-2.137"
         id="path499" />
      <path
         inkscape:connector-curvature="0"
         style="fill:#ffffff"
         d="m 503.804,556.743 c 0.237,2.59 1.365,4.715 3.372,6.39 2.021,1.672 4.33,2.389 6.93,2.149 2.58,-0.235 4.702,-1.369 6.365,-3.388 1.676,-2.008 2.395,-4.308 2.158,-6.897 -0.239,-2.6 -1.368,-4.733 -3.395,-6.396 -2.011,-1.674 -4.307,-2.381 -6.881,-2.132 -2.601,0.241 -4.735,1.369 -6.413,3.369 -1.658,1.998 -2.365,4.305 -2.136,6.905"
         id="path501" />
      <path
         inkscape:connector-curvature="0"
         style="fill:#1f1a1a"
         d="m 539.019,546.635 c -0.746,-0.852 -1.675,-1.308 -2.795,-1.381 -1.124,-0.074 -2.112,0.261 -2.964,1.001 -0.851,0.745 -1.307,1.675 -1.38,2.795 -0.072,1.118 0.26,2.098 0.999,2.951 0.746,0.85 1.677,1.304 2.796,1.38 1.12,0.073 2.099,-0.263 2.949,-1.001 0.852,-0.738 1.306,-1.669 1.381,-2.795 0.08,-1.121 -0.246,-2.1 -0.986,-2.95"
         id="path503" />
      <path
         inkscape:connector-curvature="0"
         style="fill:#1f1a1a"
         d="m 517.41,552.559 c -0.746,-0.852 -1.677,-1.307 -2.793,-1.382 -1.127,-0.072 -2.115,0.261 -2.966,1 -0.852,0.747 -1.306,1.676 -1.381,2.797 -0.072,1.118 0.261,2.099 1,2.948 0.746,0.854 1.676,1.307 2.797,1.38 1.117,0.076 2.097,-0.258 2.949,-0.997 0.85,-0.74 1.305,-1.671 1.381,-2.797 0.079,-1.118 -0.246,-2.098 -0.987,-2.949"
         id="path505" />
      <path
         inkscape:connector-curvature="0"
         style="fill:#c16513"
         d="m 533.729,531.173 c -0.524,-0.533 -1.184,-0.482 -1.968,0.155 -3.046,2.565 -5.828,5.283 -8.351,8.134 -0.517,0.588 -0.965,0.806 -1.365,0.659 -4.859,-1.719 -8.129,-2.744 -9.827,-3.069 -1.728,-0.335 -2.827,-0.148 -3.298,0.573 -0.482,0.706 -0.525,1.45 -0.118,2.247 -5.658,1.781 -9.656,3.955 -12.012,6.519 -2.344,2.541 -3.492,4.186 -3.445,4.944 0.035,0.743 1.123,0.803 3.264,0.166 -1.453,1.992 -2.48,4.199 -3.068,6.628 -0.286,1.18 -0.328,2.047 -0.117,2.607 0.027,0.071 0.064,0.139 0.104,0.215 0.021,0.042 0.05,0.075 0.068,0.108 0.045,0.056 0.103,0.089 0.16,0.122 0.149,0.087 0.311,0.142 0.487,0.182 0.218,0.051 0.447,0.065 0.672,0.064 0.18,0.021 0.365,0.02 0.551,0.018 3.361,-0.152 6.467,-1.16 9.29,-3.03 -0.7,-3.118 -0.495,-5.846 0.618,-8.2 1.097,-2.353 2.867,-3.56 5.307,-3.601 1.911,-0.036 3.627,0.147 5.142,0.552 l 2.308,0.755 c 1.484,0.508 2.7,0.826 3.643,0.954 0.93,0.129 2.003,0.018 3.218,-0.328 1.235,-0.34 2.481,-1.114 3.747,-2.322 1.263,-1.216 2.199,-2.12 2.812,-2.715 0.708,-0.669 1.487,-1.334 2.336,-1.981 1.052,-0.772 2.134,-1.384 3.245,-1.827 1.786,-0.714 3.326,-0.825 4.622,-0.325 0.642,0.248 1.23,0.655 1.764,1.225 0.551,0.564 1.036,1.175 1.476,1.827 0.807,1.258 1.329,2.813 1.562,4.654 3.559,0.145 7.154,-0.525 10.78,-2.027 1.074,-0.424 1.568,-0.985 1.475,-1.691 -0.058,-0.764 -0.747,-1.663 -2.047,-2.689 -1.935,-1.538 -3.839,-2.754 -5.714,-3.625 0.552,-0.062 1.15,-0.291 1.816,-0.684 1.469,-0.892 1.311,-1.697 -0.491,-2.414 -6.689,-2.573 -12.549,-3 -17.561,-1.285 -0.251,-0.53 -0.609,-1.028 -1.085,-1.495"
         id="path507" />
      <path
         inkscape:connector-curvature="0"
         style="fill:#b0b6d5"
         d="m 524.119,649.281 c 0.384,-4.284 -1.213,-6.346 -4.796,-6.188 l -20.139,-0.024 c -2.883,-0.127 -4.689,0.948 -5.413,3.245 -0.159,0.597 -0.293,1.305 -0.397,2.138 -0.085,0.445 -0.163,1.275 -0.23,2.513 -0.184,3.963 -0.538,7.658 -1.071,11.099 -0.395,4.274 1.213,6.329 4.815,6.171 l 20.137,0.024 c 3.556,0.183 5.533,-1.877 5.926,-6.159 l 1.168,-12.819 z m -5.218,-1.555 c 0.482,0.142 0.67,0.651 0.586,1.55 l -1.17,12.82 c -0.076,0.878 -0.37,1.399 -0.871,1.549 l -20.139,-0.024 c -0.491,-0.143 -0.699,-0.652 -0.623,-1.552 l 1.188,-12.819 c 0.086,-0.905 0.391,-1.426 0.91,-1.548 l 20.119,0.024 z"
         id="path509" />
      <path
         inkscape:connector-curvature="0"
         style="fill:none;stroke:#737a91;stroke-width:1.51259995;stroke-linecap:round;stroke-linejoin:round;stroke-miterlimit:10"
         d="m 518.901,647.726 -20.119,-0.024 c -0.52,0.122 -0.824,0.643 -0.91,1.548 l -1.186,12.819 c -0.077,0.899 0.13,1.409 0.622,1.552 l 20.138,0.024 c 0.501,-0.149 0.795,-0.671 0.871,-1.55 l 1.167,-12.819 c 0.087,-0.9 -0.1,-1.409 -0.583,-1.55 z m 5.218,1.555 -1.169,12.819 c -0.393,4.282 -2.371,6.342 -5.926,6.159 l -20.137,-0.024 c -3.603,0.158 -5.21,-1.896 -4.815,-6.171 0.534,-3.44 0.888,-7.136 1.071,-11.099 0.067,-1.237 0.146,-2.067 0.23,-2.513 0.104,-0.833 0.238,-1.541 0.397,-2.138 0.724,-2.297 2.53,-3.372 5.413,-3.245 l 20.139,0.024 c 3.584,-0.157 5.182,1.904 4.797,6.188 z"
         id="path511" />
      <rect
         x="504.241"
         y="637.09601"
         transform="matrix(-0.0012,1,-1,-0.0012,1154.0728,136.3419)"
         style="fill:#c6cee3"
         width="9.4180002"
         height="14.787"
         id="rect513" />
      <rect
         x="501.55701"
         y="639.78101"
         transform="matrix(1,0.0011,-0.0011,1,0.7239,-0.571)"
         style="fill:none;stroke:#737a91;stroke-width:1.51259995;stroke-linecap:round;stroke-linejoin:round;stroke-miterlimit:10"
         width="14.787"
         height="9.4139996"
         id="rect515" />
      <path
         inkscape:connector-curvature="0"
         style="fill:#b0b6d5"
         d="m 581.249,623.421 c -0.746,-0.651 -1.654,-0.976 -2.723,-0.977 l -2.817,-0.03 c -2.06,0.157 -4.225,0.257 -6.504,0.285 -1.165,0.02 -2.346,0.025 -3.557,0.024 -8.062,-0.151 -13.415,-0.271 -16.033,-0.339 l -23.39,-0.284 c -5.03,-0.111 -10.693,-0.052 -17.001,0.169 -1.438,0.047 -2.903,0.11 -4.405,0.176 -1.93,0.045 -3.697,0.042 -5.313,-0.007 l -2.629,-0.08 -0.379,-0.008 c -1.059,-10e-4 -1.974,0.316 -2.742,0.97 -0.521,0.462 -0.852,1.002 -1.013,1.598 -0.066,0.255 -0.106,0.727 -0.107,1.437 l -0.001,1.711 c -0.002,1.068 0.365,1.977 1.111,2.723 0.766,0.756 1.854,1.176 3.252,1.255 h 0.009 c 3.074,0.183 6.146,0.252 9.238,0.198 1.388,-0.026 3.856,-0.12 7.411,-0.294 4.72,-0.079 9.39,-0.073 14.013,0.019 l 19.069,0.02 c 2.894,0.162 5.787,0.157 8.679,-0.037 2.78,-0.025 5.562,-0.078 8.342,-0.142 2.846,-0.072 5.691,-0.05 8.538,0.057 1.134,0.032 2.267,0.06 3.399,0.089 0.219,0 0.446,0.001 0.661,0.013 0.569,0.018 1.213,0.038 1.932,0.057 l 0.048,10e-4 h 0.18 c 1.068,10e-4 1.977,-0.377 2.724,-1.131 0.757,-0.747 1.136,-1.651 1.138,-2.722 l 0.004,-2.338 c -0.001,-0.936 -0.378,-1.74 -1.134,-2.413"
         id="path517" />
      <path
         inkscape:connector-curvature="0"
         style="fill:#c6cee3"
         d="m 576.357,631.965 c -0.215,-0.012 -0.442,-0.013 -0.66,-0.013 -1.134,-0.029 -2.267,-0.057 -3.401,-0.089 -2.846,-0.106 -5.693,-0.129 -8.537,-0.057 -2.781,0.063 -5.561,0.116 -8.342,0.142 -2.892,0.194 -5.785,0.199 -8.68,0.037 l -19.069,-0.02 c -4.622,-0.092 -9.294,-0.098 -14.012,-0.019 -3.555,0.174 -6.021,0.268 -7.411,0.294 -3.093,0.054 -6.165,-0.016 -9.238,-0.199 0.104,0.964 0.188,2.051 0.243,3.252 l 0.053,3.678 c 0,0.121 0,0.256 -0.011,0.387 -0.039,1.703 -0.06,3.328 -0.053,4.871 l 0.216,9.492 c 0.055,0.783 0.111,1.541 0.177,2.259 l 0.073,1.568 c 0.16,2.619 0.324,5.078 0.504,7.357 0.035,0.444 0.073,0.88 0.111,1.303 0.084,1.109 0.157,2.244 0.223,3.408 0.028,0.5 0.038,1.01 0.037,1.53 l -10e-4,0.358 c -0.022,1.003 -0.07,1.997 -0.155,2.99 -0.029,0.292 -0.046,0.573 -0.077,0.848 v 0.059 c -0.104,0.841 -0.2,1.689 -0.287,2.53 -0.124,1.07 -0.209,2.138 -0.239,3.216 -0.01,0.133 -0.01,0.267 -0.01,0.398 -0.009,0.235 -10e-4,0.471 0.019,0.708 0.008,0.256 0.036,0.511 0.074,0.766 0.196,1.174 0.488,2.337 0.865,3.48 0.179,0.576 0.386,1.164 0.641,1.741 0.152,0.35 0.519,1.865 1.111,4.54 0.244,0.859 0.311,1.655 0.196,2.382 -0.116,0.708 -0.399,1.353 -0.864,1.927 -0.264,0.34 -0.475,0.769 -0.624,1.267 -0.276,0.897 -0.381,2.071 -0.308,3.518 0.027,0.595 0.085,1.249 0.168,1.946 l 1.057,18.628 -0.003,2.694 c 0.227,0.03 0.453,0.069 0.671,0.117 0.681,0.169 1.361,0.35 2.032,0.549 0.709,0.028 1.408,0.048 2.118,0.077 0.597,0.066 1.198,0.106 1.796,0.117 0.056,0 0.113,0 0.169,0.01 0.661,0.009 1.322,0.01 1.995,0 0.605,-0.008 1.212,-0.026 1.817,-0.055 0.662,-0.025 1.313,-0.044 1.957,-0.053 0.613,-0.01 1.228,10e-4 1.833,0.028 0.597,0.031 1.182,0.053 1.756,0.054 0.691,-0.011 1.384,-0.03 2.093,-0.065 0.444,-0.028 0.889,-0.045 1.335,-0.076 1.501,-0.103 2.73,-0.287 3.687,-0.552 1.569,-0.443 3.536,-0.119 5.897,0.982 0.501,0.234 1.029,0.5 1.568,0.803 3.053,1.724 6.104,1.916 9.151,0.587 0.245,-0.103 0.502,-0.205 0.757,-0.294 2.923,-0.864 5.854,-1.637 8.815,-2.305 0.121,-0.039 0.235,-0.073 0.356,-0.11 0.353,-0.115 0.712,-0.208 1.062,-0.273 0.719,-0.141 1.438,-0.188 2.154,-0.14 0.219,0.019 0.445,0.056 0.662,0.113 0.719,0.144 1.428,0.379 2.136,0.692 0.445,0.143 0.897,0.238 1.363,0.304 1.955,0.361 3.015,0.555 3.175,0.58 1.287,0.19 2.307,0.288 3.054,0.288 1.239,10e-4 2.523,-0.055 3.839,-0.158 0.804,-0.065 2.165,-0.195 4.067,-0.409 l 3.175,-0.1 0.004,-2.421 c -0.009,-0.303 -0.008,-0.604 -0.009,-0.897 0.047,-7.829 0.376,-15.771 0.99,-23.826 0.444,-4.254 0.682,-7.477 0.731,-9.67 0.021,-0.973 10e-4,-1.749 -0.054,-2.316 -0.094,-0.974 -0.148,-1.787 -0.178,-2.439 -0.027,-0.578 -0.017,-1.021 0.011,-1.342 0.058,-0.511 0.202,-1.08 0.418,-1.702 0.076,-0.209 0.161,-0.425 0.247,-0.641 1.033,-2.185 1.632,-3.846 1.795,-4.99 0.058,-0.438 0.058,-0.795 -0.01,-1.08 -0.272,-1.067 -0.639,-1.921 -1.095,-2.536 -0.396,-0.52 -0.603,-1.711 -0.629,-3.581 -0.01,-0.408 10e-4,-0.833 0.01,-1.296 l 0.079,-2.29 10e-4,-0.074 c -0.009,-9.54 0.333,-18.926 1.016,-28.173 0.097,-1.323 0.202,-2.847 0.326,-4.559 -0.718,-0.017 -1.361,-0.038 -1.929,-0.055"
         id="path519" />
      <polygon
         style="fill:#b0b6d5"
         points="496.659,622.351 496.498,622.351 496.877,622.358 "
         id="polygon521" />
      <path
         inkscape:connector-curvature="0"
         style="fill:#c6cee3"
         d="m 497.252,635.294 c -0.059,-1.201 -0.142,-2.288 -0.245,-3.252 h -0.009 c 0.103,1.05 0.187,2.088 0.241,3.119 0,0.038 0,0.086 0.013,0.133"
         id="path523" />
      <path
         inkscape:connector-curvature="0"
         style="fill:#b0b6d5"
         d="m 529.299,726.277 c -2.361,-1.102 -4.328,-1.426 -5.897,-0.982 -0.956,0.266 -2.186,0.449 -3.688,0.552 -0.445,0.03 -0.888,0.048 -1.333,0.076 -0.71,0.035 -1.402,0.055 -2.092,0.065 -0.576,-0.001 -1.161,-0.022 -1.758,-0.054 -0.605,-0.027 -1.22,-0.038 -1.835,-0.028 -0.641,0.009 -1.293,0.025 -1.955,0.053 -0.605,0.028 -1.212,0.047 -1.816,0.055 -0.672,0.01 -1.335,0.009 -1.996,0 -0.056,-0.01 -0.113,-0.01 -0.169,-0.01 -0.596,-0.011 -1.199,-0.051 -1.796,-0.117 -0.71,-0.029 -1.409,-0.049 -2.118,-0.077 -0.368,0.01 -0.728,0.028 -1.087,0.035 -0.539,0.029 -1.079,0.048 -1.616,0.076 -0.144,0.008 -0.294,0.008 -0.443,0.016 -0.162,0.01 -0.322,0.01 -0.483,0.01 -1.523,0.746 -2.291,1.966 -2.293,3.666 l -0.004,2.932 c -0.001,1.069 0.33,1.977 0.998,2.723 0.69,0.759 1.523,1.137 2.477,1.139 l 73.974,0.087 c 0.973,0 1.787,-0.377 2.459,-1.131 0.682,-0.749 1.023,-1.656 1.025,-2.723 l 0.004,-2.933 c 10e-4,-1.067 -0.34,-1.985 -1.019,-2.742 -0.615,-0.681 -1.342,-1.052 -2.203,-1.108 l -3.175,0.1 c -1.902,0.214 -3.264,0.345 -4.067,0.41 -1.314,0.103 -2.6,0.157 -3.839,0.158 -0.747,-10e-4 -1.769,-0.099 -3.055,-0.289 -0.158,-0.026 -1.219,-0.219 -3.174,-0.581 -0.465,-0.064 -0.916,-0.16 -1.363,-0.303 -0.708,-0.313 -1.417,-0.55 -2.136,-0.692 -0.216,-0.058 -0.443,-0.095 -0.662,-0.113 -0.717,-0.049 -1.436,-10e-4 -2.154,0.14 -0.35,0.065 -0.709,0.158 -1.061,0.273 -0.121,0.037 -0.236,0.071 -0.357,0.11 -2.961,0.667 -5.893,1.44 -8.816,2.305 -0.254,0.088 -0.51,0.191 -0.756,0.294 -3.047,1.329 -6.099,1.137 -9.151,-0.587 -0.541,-0.305 -1.069,-0.57 -1.57,-0.805"
         id="path525" />
      <path
         inkscape:connector-curvature="0"
         style="fill:none;stroke:#737a91;stroke-width:1.51259995;stroke-linecap:round;stroke-linejoin:round;stroke-miterlimit:10"
         d="m 497.007,632.042 h -0.009 c -1.398,-0.078 -2.486,-0.498 -3.252,-1.254 -0.745,-0.746 -1.113,-1.654 -1.111,-2.723 l 0.002,-1.711 c 10e-4,-0.71 0.039,-1.182 0.106,-1.437 0.161,-0.597 0.492,-1.136 1.013,-1.598 0.769,-0.653 1.684,-0.971 2.742,-0.97 l 0.379,0.008 2.63,0.08 c 1.615,0.049 3.383,0.052 5.312,0.007 1.503,-0.065 2.969,-0.129 4.406,-0.176 6.308,-0.221 11.971,-0.28 17.001,-0.169 l 23.389,0.284 c 2.619,0.068 7.972,0.188 16.034,0.339 1.211,10e-4 2.392,-0.005 3.557,-0.024 2.279,-0.028 4.444,-0.128 6.504,-0.285 l 2.816,0.03 c 1.069,10e-4 1.978,0.324 2.724,0.977 0.756,0.673 1.133,1.478 1.133,2.411 l -0.004,2.338 c -0.002,1.07 -0.381,1.975 -1.139,2.722 -0.746,0.754 -1.654,1.132 -2.723,1.131 h -0.18 l -0.049,-0.001 m 0,0 c -0.718,-0.019 -1.363,-0.039 -1.931,-0.057 -0.215,-0.012 -0.443,-0.013 -0.661,-0.013 -1.133,-0.029 -2.266,-0.057 -3.399,-0.089 -2.847,-0.106 -5.693,-0.129 -8.538,-0.057 -2.781,0.063 -5.562,0.116 -8.342,0.142 -2.892,0.194 -5.785,0.199 -8.68,0.037 l -19.069,-0.02 c -4.622,-0.092 -9.294,-0.098 -14.012,-0.019 -3.554,0.174 -6.021,0.268 -7.411,0.294 -3.093,0.054 -6.165,-0.016 -9.238,-0.199 m 77.627,93.815 0.004,-2.421 c -0.01,-0.303 -0.009,-0.604 -0.01,-0.897 0.048,-7.829 0.379,-15.771 0.992,-23.826 0.443,-4.254 0.681,-7.477 0.729,-9.67 0.022,-0.973 10e-4,-1.749 -0.054,-2.316 -0.093,-0.974 -0.149,-1.787 -0.177,-2.439 -0.027,-0.578 -0.016,-1.021 0.011,-1.342 0.058,-0.511 0.202,-1.08 0.418,-1.702 0.077,-0.209 0.163,-0.425 0.246,-0.641 1.034,-2.185 1.633,-3.846 1.796,-4.99 0.058,-0.438 0.058,-0.795 -0.01,-1.08 -0.272,-1.067 -0.639,-1.921 -1.093,-2.536 -0.397,-0.52 -0.603,-1.711 -0.63,-3.581 -0.011,-0.408 10e-4,-0.833 0.009,-1.296 l 0.08,-2.29 v -0.074 c -0.009,-9.54 0.334,-18.926 1.016,-28.173 0.097,-1.323 0.202,-2.847 0.326,-4.559 m -81.628,-9.671 2.713,-0.017 m -2.365,9.708 c 0.104,0.964 0.187,2.051 0.245,3.252 l 0.051,3.678 c 0,0.121 0,0.256 -0.011,0.387 -0.039,1.703 -0.062,3.328 -0.054,4.871 l 0.217,9.492 c 0.056,0.783 0.111,1.541 0.177,2.259 l 0.072,1.568 c 0.161,2.619 0.325,5.078 0.505,7.357 0.036,0.444 0.073,0.88 0.111,1.303 0.084,1.109 0.157,2.244 0.223,3.408 0.028,0.5 0.038,1.01 0.037,1.53 l -10e-4,0.358 c -0.021,1.003 -0.07,1.997 -0.155,2.99 -0.029,0.292 -0.047,0.573 -0.076,0.848 v 0.059 c -0.105,0.841 -0.202,1.689 -0.288,2.53 -0.124,1.07 -0.209,2.138 -0.239,3.216 -0.01,0.133 -0.01,0.267 -0.01,0.398 -0.011,0.235 -10e-4,0.471 0.018,0.708 0.011,0.256 0.038,0.511 0.075,0.766 0.196,1.174 0.488,2.337 0.865,3.48 0.179,0.576 0.387,1.164 0.641,1.741 0.152,0.35 0.519,1.865 1.112,4.54 0.244,0.859 0.31,1.655 0.195,2.382 -0.116,0.708 -0.399,1.353 -0.864,1.927 -0.264,0.34 -0.475,0.768 -0.624,1.267 -0.275,0.897 -0.38,2.071 -0.308,3.518 0.027,0.595 0.083,1.249 0.17,1.946 l 1.055,18.628 -0.002,2.694 m 74.49,0.712 -3.175,0.1 c -1.902,0.214 -3.264,0.344 -4.067,0.409 -1.314,0.104 -2.6,0.159 -3.839,0.158 -0.747,0 -1.769,-0.098 -3.054,-0.288 -0.159,-0.026 -1.22,-0.219 -3.175,-0.581 -0.465,-0.064 -0.916,-0.16 -1.363,-0.303 -0.707,-0.313 -1.417,-0.549 -2.136,-0.692 -0.216,-0.058 -0.442,-0.095 -0.662,-0.113 -0.717,-0.049 -1.437,-10e-4 -2.154,0.14 -0.35,0.065 -0.709,0.158 -1.061,0.273 -0.121,0.037 -0.236,0.071 -0.357,0.11 -2.961,0.668 -5.893,1.44 -8.816,2.305 -0.253,0.088 -0.511,0.191 -0.756,0.294 -3.045,1.329 -6.099,1.137 -9.151,-0.587 -0.539,-0.303 -1.067,-0.568 -1.568,-0.803 -2.361,-1.102 -4.328,-1.426 -5.899,-0.982 -0.954,0.266 -2.184,0.449 -3.685,0.552 -0.446,0.03 -0.891,0.048 -1.335,0.076 -0.709,0.035 -1.401,0.055 -2.091,0.065 -0.576,-0.001 -1.161,-0.022 -1.756,-0.054 -0.607,-0.027 -1.221,-0.038 -1.835,-0.028 -0.644,0.009 -1.295,0.027 -1.957,0.053 -0.605,0.028 -1.212,0.047 -1.817,0.055 -0.671,0.01 -1.334,0.009 -1.995,0 -0.057,-0.01 -0.113,-0.01 -0.169,-0.01 -0.596,-0.011 -1.201,-0.051 -1.796,-0.117 -0.71,-0.029 -1.409,-0.049 -2.118,-0.077 -0.368,0.01 -0.729,0.028 -1.087,0.035 -0.539,0.029 -1.079,0.048 -1.616,0.077 -0.142,0.007 -0.293,0.007 -0.443,0.015 -0.162,0.01 -0.322,0.01 -0.485,0.01 -1.523,0.746 -2.29,1.966 -2.292,3.666 l -0.003,2.932 c -10e-4,1.069 0.33,1.977 0.999,2.723 0.689,0.759 1.522,1.139 2.476,1.14 l 73.974,0.086 c 0.973,0 1.787,-0.377 2.459,-1.131 0.682,-0.749 1.023,-1.656 1.025,-2.723 l 0.004,-2.933 c 0.001,-1.067 -0.34,-1.985 -1.019,-2.742 -0.617,-0.682 -1.344,-1.053 -2.205,-1.11 z"
         id="path527" />
      <path
         inkscape:connector-curvature="0"
         style="fill:#b0b6d5"
         d="m 569.548,636.796 h -0.02 c -1.135,-0.03 -2.119,0.888 -2.954,2.741 -0.88,1.822 -1.347,4.031 -1.387,6.634 L 565,676.614 c -0.586,1.331 -0.987,2.872 -1.188,4.611 -0.096,0.775 -0.152,1.588 -0.163,2.44 -0.107,2.192 0.165,3.921 0.807,5.18 l -0.747,24.394 c -0.039,2.296 0.308,4.263 1.035,5.919 0.716,1.629 1.61,2.442 2.681,2.443 h 0.02 c 1.028,10e-4 1.956,-0.809 2.763,-2.436 0.796,-1.654 1.224,-3.621 1.295,-5.919 l 0.353,-28.778 c -0.556,-0.444 -0.849,-1.521 -0.885,-3.234 -0.009,-0.236 -0.009,-0.481 10e-4,-0.738 l 1.274,-6.259 1.147,-28.058 c 0.052,-2.601 -0.287,-4.813 -1.031,-6.638 -0.744,-1.853 -1.68,-2.772 -2.814,-2.745"
         id="path529" />
      <path
         inkscape:connector-curvature="0"
         style="fill:#b0b6d5"
         d="m 559.028,639.527 c -0.761,-1.854 -1.716,-2.772 -2.85,-2.747 h -0.019 c -1.137,-0.029 -2.109,0.887 -2.917,2.74 -0.833,1.823 -1.271,4.033 -1.312,6.635 l -0.385,37.383 -0.858,6.768 c -0.161,0.831 -0.031,2.261 0.414,4.293 l 0.033,18.624 c -0.04,2.3 0.316,4.267 1.071,5.923 0.716,1.626 1.612,2.439 2.7,2.44 h 0.02 c 1.02,0.002 1.938,-0.81 2.745,-2.434 0.77,-1.654 1.185,-3.621 1.254,-5.919 l -0.069,-22.219 c -0.643,-1.484 -0.864,-3.188 -0.673,-5.086 l 1.312,-7.337 0.625,-32.429 c 0.031,-2.6 -0.336,-4.81 -1.091,-6.635"
         id="path531" />
      <path
         inkscape:connector-curvature="0"
         style="fill:#b0b6d5"
         d="m 546.02,639.511 c -0.781,-1.855 -1.725,-2.772 -2.85,-2.746 h -0.019 c -1.136,-0.029 -2.11,0.886 -2.917,2.738 -0.832,1.824 -1.252,4.035 -1.255,6.638 l -0.34,48.349 0.827,3.915 c 0.198,0.899 0.11,2.64 -0.271,5.238 l -0.369,9.567 c -0.003,2.298 0.382,4.264 1.148,5.919 0.742,1.627 1.64,2.443 2.699,2.442 h 0.02 c 1.059,10e-4 1.967,-0.81 2.726,-2.434 0.757,-1.655 1.146,-3.62 1.179,-5.919 l 0.588,-67.068 c 0.011,-2.602 -0.373,-4.815 -1.166,-6.639"
         id="path533" />
      <path
         inkscape:connector-curvature="0"
         style="fill:#b0b6d5"
         d="m 530.217,636.749 c -1.145,-0.028 -2.109,0.889 -2.897,2.737 -0.796,1.826 -1.176,4.04 -1.142,6.639 l 0.521,7.658 -0.344,2.457 0.68,36.156 0.617,3.556 c 0.443,1.597 0.129,3.952 -0.936,7.052 l -0.049,10.19 c -0.012,2.301 0.373,4.268 1.166,5.921 0.755,1.628 1.67,2.441 2.737,2.443 h 0.021 c 1.048,10e-4 1.949,-0.811 2.707,-2.437 0.759,-1.654 1.139,-3.619 1.142,-5.917 l 0.181,-11.004 0.44,-3.649 -0.677,-2.517 -0.058,-49.901 c 0.004,-2.6 -0.399,-4.813 -1.202,-6.641 -0.791,-1.851 -1.755,-2.771 -2.89,-2.744 h -0.017 z"
         id="path535" />
      <path
         inkscape:connector-curvature="0"
         style="fill:#b0b6d5"
         d="m 517.698,636.735 h -0.019 c -1.145,-0.03 -2.11,0.886 -2.879,2.737 -0.784,1.825 -1.147,4.037 -1.085,6.638 l 1.486,7.396 -1.063,3.421 0.925,33.697 c 0.649,2.581 0.979,5.079 0.976,7.489 l -0.856,3.837 -0.371,11.233 c 0.026,2.298 0.439,4.264 1.241,5.919 0.783,1.626 1.688,2.44 2.738,2.442 h 0.019 c 1.059,0 1.959,-0.812 2.688,-2.436 0.729,-1.654 1.092,-3.618 1.066,-5.92 l -0.481,-9.132 c -0.027,-0.974 0.039,-1.722 0.191,-2.249 0.142,-0.529 0.256,-0.88 0.359,-1.06 0.086,-0.18 0.181,-0.389 0.268,-0.623 0.273,-0.717 0.406,-1.446 0.398,-2.192 10e-4,-0.53 -0.046,-1.051 -0.147,-1.571 -0.162,-0.833 -0.369,-1.652 -0.625,-2.478 l -0.373,-2.363 -0.416,-34.001 c 0.759,-1.785 1.186,-3.107 1.272,-3.95 l -0.544,-2.969 -0.563,-4.48 c -0.044,-2.602 -0.476,-4.813 -1.296,-6.641 -0.831,-1.852 -1.802,-2.771 -2.909,-2.744"
         id="path537" />
      <path
         inkscape:connector-curvature="0"
         style="fill:#b0b6d5"
         d="m 505.124,636.721 -0.021,-10e-4 c -1.143,-0.028 -2.089,0.888 -2.819,2.741 -0.768,1.823 -1.13,3.637 -1.085,5.443 -0.048,0.302 -0.066,0.594 -0.038,0.889 0.084,0.681 0.329,1.287 0.717,1.817 0.424,0.577 0.718,1.238 0.866,1.966 0.066,0.293 0.143,0.711 0.228,1.268 -0.334,0.896 -0.638,1.919 -0.913,3.081 l -0.436,1.757 1.623,35.854 1.488,4.011 c 0.518,1.505 0.366,2.913 -0.46,4.236 -0.689,0.804 -1.089,2.438 -1.178,4.896 0.261,2.608 0.212,5.437 -0.141,8.489 0.043,2.297 0.476,4.264 1.276,5.921 0.804,1.626 1.748,2.438 2.817,2.439 h 0.017 c 1.031,0.002 1.922,-0.809 2.651,-2.435 0.712,-1.652 1.045,-3.619 1.009,-5.917 l -0.195,-10.438 c 0.712,-3.091 0.933,-5.248 0.669,-6.468 l -0.733,-3.819 -1.565,-35.664 c -0.008,-0.379 0.133,-0.821 0.436,-1.324 0.306,-0.501 0.637,-1.361 1.004,-2.57 0.087,-0.339 0.163,-0.597 0.229,-0.773 l -1.11,-4.957 c -0.112,-0.577 -0.177,-1.229 -0.186,-1.949 0.048,-2.003 -0.346,-3.923 -1.186,-5.749 -0.858,-1.854 -1.839,-2.771 -2.964,-2.744"
         id="path539" />
      <path
         inkscape:connector-curvature="0"
         style="fill:#b0b6d5"
         d="m 580.779,655.531 -0.24,-6.658 c -0.298,-4.283 -2.233,-6.347 -5.796,-6.188 l -20.141,-0.025 c -1.994,-0.087 -3.374,0.469 -4.143,1.679 -0.161,0.368 -0.303,0.737 -0.419,1.116 -0.121,0.423 -0.198,0.869 -0.208,1.322 -0.011,0.604 0.02,1.2 0.093,1.796 0.074,0.56 0.123,1.108 0.131,1.646 0.009,0.755 0.036,1.502 0.073,2.25 0.036,0.681 0.084,1.36 0.128,2.043 0.012,0.159 0.029,0.33 0.039,0.488 l 0.579,7.415 c 0.072,0.832 0.232,1.646 0.468,2.439 0.067,0.201 0.133,0.408 0.208,0.606 0.82,1.448 2.124,2.244 3.93,2.366 2.495,-0.069 4.991,-0.02 7.488,0.145 1.125,0.009 2.354,0.068 3.687,0.153 1.901,0.088 3.914,0.116 6.032,0.084 0.955,-0.077 1.92,-0.142 2.894,-0.206 0.455,-0.037 0.918,-0.083 1.379,-0.13 0.407,-0.037 0.806,-0.075 1.212,-0.112 2.42,-0.498 3.512,-2.52 3.26,-6.065 l -0.654,-6.164 z m -5.719,-8.215 c 0.502,0.144 0.781,0.655 0.847,1.553 0.534,3.698 0.833,7.631 0.876,11.818 0.158,1.097 0.043,1.901 -0.345,2.421 -0.025,0.037 -0.055,0.066 -0.094,0.094 -4.169,0.591 -7.829,0.785 -10.968,0.595 -3.137,-0.193 -5.343,-0.311 -6.6,-0.351 -1.277,-0.048 -2.241,-0.146 -2.892,-0.269 l -0.397,-0.377 c -0.159,-0.267 -0.264,-0.644 -0.301,-1.135 l -0.747,-8.473 -0.146,-4.349 c -0.064,-0.909 0.145,-1.428 0.627,-1.552 l 20.14,0.025 z"
         id="path541" />
      <path
         inkscape:connector-curvature="0"
         style="fill:none;stroke:#737a91;stroke-width:1.51259995;stroke-linecap:round;stroke-linejoin:round;stroke-miterlimit:10"
         d="m 580.539,648.873 c -0.298,-4.283 -2.233,-6.347 -5.796,-6.188 l -20.141,-0.025 c -1.994,-0.087 -3.374,0.469 -4.143,1.679 -0.161,0.368 -0.303,0.737 -0.419,1.116 -0.121,0.423 -0.198,0.869 -0.208,1.322 -0.011,0.604 0.02,1.2 0.093,1.796 0.074,0.56 0.123,1.108 0.131,1.646 0.009,0.755 0.036,1.502 0.073,2.25 0.036,0.681 0.084,1.36 0.128,2.043 0.012,0.159 0.029,0.33 0.039,0.488 l 0.579,7.415 c 0.072,0.832 0.232,1.646 0.468,2.439 0.067,0.201 0.133,0.408 0.208,0.606 0.82,1.448 2.124,2.244 3.93,2.366 2.495,-0.069 4.991,-0.02 7.488,0.145 1.125,0.009 2.354,0.068 3.687,0.153 1.901,0.088 3.914,0.116 6.032,0.084 0.955,-0.077 1.92,-0.142 2.894,-0.206 0.455,-0.037 0.918,-0.083 1.379,-0.13 0.407,-0.037 0.806,-0.075 1.212,-0.112 2.42,-0.498 3.512,-2.52 3.26,-6.065 l -0.653,-6.165 -0.241,-6.657 z m -5.479,-1.557 -20.14,-0.023 c -0.482,0.124 -0.691,0.643 -0.627,1.55 l 0.146,4.351 0.747,8.473 c 0.037,0.491 0.142,0.868 0.301,1.134 l 0.397,0.378 c 0.65,0.123 1.614,0.221 2.892,0.267 1.257,0.041 3.463,0.159 6.6,0.353 3.139,0.19 6.799,-0.004 10.968,-0.595 0.039,-0.027 0.068,-0.057 0.094,-0.094 0.388,-0.52 0.503,-1.324 0.345,-2.421 -0.043,-4.188 -0.342,-8.12 -0.876,-11.818 -0.066,-0.899 -0.345,-1.411 -0.847,-1.555 z"
         id="path543" />
      <path
         inkscape:connector-curvature="0"
         style="fill:#c6cee3"
         d="m 572.625,641.924 c -0.036,-0.875 -0.576,-1.332 -1.625,-1.342 l -7.071,-0.047 c -1.315,-0.058 -2.534,-0.069 -3.651,-0.042 -1.407,-0.031 -2.239,0.231 -2.486,0.789 -0.144,1.261 -0.173,2.705 -0.071,4.331 l 0.034,4.237 c 0.148,0.121 0.291,0.216 0.433,0.264 0.654,0.115 1.297,0.154 1.929,0.117 h 0.152 l 0.265,10e-4 c 2.826,0.013 5.578,0.033 8.263,0.046 l 3.461,0.062 c 0.294,-0.711 0.427,-1.411 0.419,-2.12 l -0.052,-6.296 z"
         id="path545" />
      <path
         inkscape:connector-curvature="0"
         style="fill:none;stroke:#737a91;stroke-width:1.51259995;stroke-linecap:round;stroke-linejoin:round;stroke-miterlimit:10"
         d="m 571,640.582 -7.071,-0.047 c -1.315,-0.058 -2.534,-0.069 -3.65,-0.042 -1.408,-0.031 -2.24,0.231 -2.487,0.789 -0.143,1.261 -0.173,2.705 -0.071,4.331 l 0.034,4.237 c 0.148,0.121 0.291,0.216 0.434,0.264 0.653,0.115 1.295,0.154 1.928,0.117 h 0.152 l 0.266,10e-4 c 2.825,0.013 5.577,0.033 8.262,0.046 l 3.46,0.062 c 0.296,-0.711 0.428,-1.411 0.421,-2.119 l -0.051,-6.298 c -0.037,-0.874 -0.577,-1.331 -1.627,-1.341 z"
         id="path547" />
      <path
         inkscape:connector-curvature="0"
         style="fill:#255f27"
         d="m 543.507,604.86 c 0.909,-0.177 2.119,-0.309 3.61,-0.407 0.042,-0.013 0.062,-0.013 0.091,0 1.322,0.031 2.713,0.188 4.172,0.468 l 0.027,-0.009 c 2.653,0.557 5.145,1.396 7.47,2.508 2.39,1.138 4.423,2.55 6.114,4.229 l -0.019,-0.009 c 1.723,1.653 3.106,3.535 4.131,5.646 l -0.009,0.018 c 1.024,2.09 1.714,4.286 2.096,6.583 0.381,2.313 0.389,4.656 0.017,7.045 -0.381,2.469 -1.538,4.612 -3.457,6.438 l 0.01,-0.017 c -1.077,1.045 -2.213,1.521 -3.415,1.429 -0.887,-0.031 -1.81,-0.398 -2.771,-1.096 -0.584,0.853 -1.326,1.604 -2.214,2.246 -2.574,1.842 -5.03,1.964 -7.37,0.373 -2.129,-1.434 -3.266,-3.42 -3.414,-5.941 -1.606,1.257 -3.57,1.721 -5.891,1.381 l 0.018,0.007 c -1.73,-0.208 -3.097,-0.983 -4.089,-2.315 -1.729,-2.275 -2.265,-4.809 -1.606,-7.582 0.542,-2.31 1.459,-4.46 2.748,-6.452 0.096,-0.162 0.202,-0.321 0.318,-0.476 -0.188,0.039 -0.363,0.074 -0.545,0.104 -0.65,0.151 -1.287,0.194 -1.927,0.139 -0.57,-0.041 -1.18,-0.153 -1.824,-0.352 -0.571,-0.208 -1.11,-0.498 -1.603,-0.855 -0.781,-0.613 -1.174,-1.433 -1.205,-2.448 l -0.007,-0.025 c -0.026,-0.771 0.063,-1.514 0.269,-2.238 l -0.007,-0.024 c 0.196,-0.625 0.434,-1.223 0.702,-1.792 0.006,-0.009 0.015,-0.025 0.02,-0.033 0.27,-0.51 0.579,-1.011 0.922,-1.484 l 0.009,-0.02 c 0.49,-0.653 1.079,-1.257 1.734,-1.795 l -0.011,0.014 c 0.633,-0.541 1.306,-1.01 2.044,-1.411 0.014,-0.004 0.03,-0.016 0.035,-0.025 0.714,-0.42 1.473,-0.778 2.287,-1.07 l 0.008,-0.017 c 0.837,-0.316 1.677,-0.557 2.532,-0.735 m 7.554,1.511 0.017,0.007 c -1.352,-0.253 -2.652,-0.408 -3.895,-0.446 -1.385,0.083 -2.504,0.215 -3.351,0.38 l 0.02,0.007 c -0.761,0.151 -1.528,0.375 -2.274,0.665 l -0.017,-0.008 c -0.72,0.263 -1.399,0.595 -2.037,0.978 l -0.028,0.012 c -0.646,0.356 -1.253,0.762 -1.82,1.241 -0.003,0.007 -0.02,0.02 -0.033,0.025 -0.522,0.372 -0.967,0.813 -1.326,1.32 -0.454,0.624 -0.819,1.253 -1.105,1.878 -0.302,0.65 -0.517,1.31 -0.65,1.982 -0.125,0.575 -0.059,1.121 0.211,1.626 0.376,0.638 0.892,1.122 1.553,1.453 0.538,0.246 1.214,0.365 2.021,0.36 0.811,-0.014 1.41,-0.073 1.783,-0.163 0.372,-0.089 0.577,-0.142 0.617,-0.155 0.651,-0.157 1.843,-0.63 3.566,-1.42 l -1.855,2.198 c -1.068,1.255 -1.941,2.627 -2.633,4.124 -0.692,1.496 -1.14,3.033 -1.345,4.605 -0.217,1.691 0.109,3.289 0.977,4.77 0.149,0.244 0.295,0.496 0.437,0.738 0.027,0.01 0.039,0.027 0.045,0.038 0.729,0.964 1.714,1.527 2.971,1.683 l 0.019,0.009 c 0.695,0.1 1.342,0.104 1.947,0.039 2.063,-0.461 3.602,-1.551 4.637,-3.274 0.557,-0.947 1.23,-2.258 1.998,-3.936 -0.006,1.208 -0.212,2.336 -0.622,3.36 -0.378,1.027 -0.599,1.829 -0.654,2.414 -0.035,0.574 -0.043,1.12 -0.032,1.622 0.013,0.501 0.138,1.047 0.371,1.616 0.102,0.253 0.221,0.492 0.338,0.713 0.172,0.327 0.371,0.646 0.607,0.962 0.404,0.48 0.872,0.923 1.428,1.31 0.949,0.629 1.921,0.862 2.919,0.726 1.885,-0.498 3.371,-1.519 4.469,-3.082 0.963,-1.371 1.713,-2.829 2.261,-4.394 0.045,-0.104 0.074,-0.204 0.115,-0.3 0.126,-0.407 0.275,-0.941 0.446,-1.597 l 0.246,1.811 c 0.023,1.075 -0.124,2.001 -0.446,2.776 -0.315,0.768 -0.504,1.209 -0.57,1.333 0.032,0.025 0.048,0.055 0.071,0.075 0.925,0.844 1.976,1.055 3.161,0.608 l 0.295,-0.176 c 0.245,-0.147 0.477,-0.333 0.695,-0.555 1.681,-1.593 2.685,-3.468 3.014,-5.604 0.351,-2.241 0.347,-4.448 -0.023,-6.613 -0.352,-2.18 -1.001,-4.244 -1.957,-6.21 -0.938,-1.959 -2.212,-3.708 -3.814,-5.232 -1.578,-1.557 -3.471,-2.873 -5.689,-3.933 -2.213,-1.054 -4.575,-1.849 -7.079,-2.366"
         id="path549" />
      <path
         inkscape:connector-curvature="0"
         style="fill:#9fc94c"
         d="m 551.077,606.378 -0.017,-0.007 c 2.505,0.517 4.866,1.312 7.073,2.367 2.219,1.06 4.112,2.376 5.689,3.933 1.602,1.524 2.877,3.273 3.814,5.232 0.956,1.966 1.605,4.03 1.957,6.21 0.37,2.165 0.374,4.372 0.023,6.613 -0.329,2.137 -1.333,4.012 -3.014,5.604 -0.219,0.222 -0.45,0.406 -0.695,0.555 l -0.295,0.176 c -1.186,0.446 -2.236,0.236 -3.161,-0.608 -0.023,-0.021 -0.039,-0.05 -0.071,-0.075 0.066,-0.124 0.255,-0.566 0.57,-1.333 0.322,-0.775 0.467,-1.701 0.446,-2.776 l -0.246,-1.811 c -0.171,0.655 -0.32,1.189 -0.446,1.597 -0.041,0.096 -0.07,0.195 -0.115,0.3 -0.548,1.564 -1.298,3.022 -2.261,4.394 -1.098,1.563 -2.584,2.584 -4.469,3.082 -0.998,0.135 -1.97,-0.097 -2.919,-0.726 -0.556,-0.387 -1.023,-0.829 -1.428,-1.312 -0.236,-0.314 -0.436,-0.633 -0.607,-0.96 -0.118,-0.221 -0.236,-0.46 -0.338,-0.713 -0.233,-0.57 -0.358,-1.115 -0.371,-1.616 -0.013,-0.502 -0.003,-1.048 0.032,-1.622 0.056,-0.585 0.276,-1.387 0.654,-2.414 0.41,-1.024 0.616,-2.152 0.621,-3.36 -0.768,1.678 -1.44,2.988 -1.997,3.936 -1.035,1.724 -2.573,2.813 -4.637,3.274 -0.605,0.064 -1.252,0.061 -1.947,-0.039 l -0.019,-0.009 c -1.257,-0.155 -2.242,-0.719 -2.971,-1.683 -0.006,-0.011 -0.018,-0.028 -0.045,-0.038 -0.142,-0.242 -0.287,-0.494 -0.437,-0.738 -0.867,-1.48 -1.193,-3.078 -0.977,-4.77 0.205,-1.573 0.652,-3.109 1.345,-4.606 0.691,-1.496 1.564,-2.868 2.633,-4.123 l 1.855,-2.198 c -1.724,0.79 -2.915,1.263 -3.566,1.42 -0.04,0.014 -0.245,0.067 -0.617,0.155 -0.373,0.09 -0.972,0.149 -1.783,0.163 -0.807,0.005 -1.482,-0.114 -2.021,-0.36 -0.661,-0.331 -1.177,-0.815 -1.553,-1.453 -0.27,-0.505 -0.336,-1.051 -0.211,-1.626 0.135,-0.673 0.349,-1.333 0.65,-1.982 0.285,-0.625 0.651,-1.254 1.105,-1.878 0.359,-0.507 0.804,-0.948 1.326,-1.32 0.014,-0.006 0.03,-0.019 0.033,-0.025 0.567,-0.479 1.174,-0.885 1.82,-1.243 l 0.028,-0.01 c 0.638,-0.383 1.317,-0.715 2.036,-0.978 l 0.018,0.008 c 0.746,-0.29 1.514,-0.514 2.274,-0.665 l -0.02,-0.007 c 0.847,-0.165 1.966,-0.297 3.351,-0.38 1.251,0.037 2.55,0.192 3.901,0.445"
         id="path551" />
      <path
         inkscape:connector-curvature="0"
         style="fill:#255f27"
         d="m 523.388,605.364 c -0.881,-0.194 -2.051,-0.352 -3.493,-0.479 -0.039,-0.014 -0.062,-0.016 -0.089,-0.003 -1.276,0.003 -2.621,0.128 -4.025,0.377 l -0.026,-0.008 c -2.557,0.489 -4.95,1.272 -7.183,2.321 -2.291,1.077 -4.235,2.43 -5.842,4.056 l 0.017,-0.008 c -1.643,1.603 -2.95,3.435 -3.909,5.505 l 0.008,0.017 c -0.957,2.05 -1.59,4.208 -1.924,6.474 -0.334,2.284 -0.308,4.605 0.088,6.977 0.405,2.45 1.557,4.598 3.438,6.448 l -0.008,-0.016 c 1.055,1.056 2.159,1.553 3.32,1.487 0.857,-0.011 1.741,-0.357 2.661,-1.026 0.578,0.856 1.308,1.616 2.175,2.271 2.513,1.878 4.889,2.054 7.126,0.528 2.039,-1.377 3.107,-3.319 3.213,-5.812 1.569,1.277 3.475,1.778 5.712,1.489 l -0.017,0.007 c 1.672,-0.168 2.979,-0.906 3.918,-2.204 1.637,-2.22 2.114,-4.712 1.44,-7.475 -0.56,-2.3 -1.478,-4.446 -2.752,-6.445 -0.099,-0.165 -0.203,-0.323 -0.315,-0.478 0.18,0.04 0.35,0.079 0.528,0.112 0.63,0.163 1.244,0.219 1.863,0.177 0.55,-0.025 1.14,-0.126 1.756,-0.31 0.551,-0.193 1.067,-0.468 1.536,-0.811 0.746,-0.591 1.11,-1.396 1.126,-2.401 l 0.009,-0.023 c 0.017,-0.76 -0.085,-1.5 -0.294,-2.223 l 0.008,-0.023 c -0.199,-0.624 -0.438,-1.218 -0.707,-1.788 -0.003,-0.01 -0.012,-0.025 -0.017,-0.033 -0.268,-0.512 -0.575,-1.013 -0.913,-1.492 l -0.011,-0.017 c -0.483,-0.659 -1.062,-1.267 -1.702,-1.816 l 0.009,0.017 c -0.619,-0.548 -1.277,-1.029 -1.998,-1.44 -0.012,-0.005 -0.028,-0.017 -0.032,-0.027 -0.698,-0.43 -1.435,-0.802 -2.226,-1.108 l -0.009,-0.015 c -0.814,-0.332 -1.629,-0.585 -2.459,-0.782 m -7.276,1.334 -0.018,0.008 c 1.302,-0.222 2.558,-0.351 3.759,-0.361 1.338,0.114 2.423,0.269 3.243,0.451 l -0.018,0.009 c 0.738,0.164 1.479,0.399 2.207,0.703 l 0.018,-0.007 c 0.7,0.274 1.359,0.619 1.982,1.011 l 0.026,0.011 c 0.631,0.365 1.223,0.782 1.776,1.269 0.004,0.008 0.021,0.021 0.035,0.024 0.511,0.381 0.946,0.826 1.301,1.339 0.447,0.625 0.812,1.256 1.1,1.882 0.298,0.65 0.517,1.306 0.656,1.977 0.127,0.571 0.073,1.112 -0.18,1.606 -0.354,0.623 -0.845,1.09 -1.479,1.403 -0.516,0.234 -1.166,0.339 -1.944,0.315 -0.786,-0.031 -1.368,-0.103 -1.729,-0.198 -0.359,-0.099 -0.56,-0.152 -0.599,-0.168 -0.634,-0.17 -1.791,-0.665 -3.469,-1.482 l 1.829,2.218 c 1.048,1.266 1.913,2.643 2.604,4.139 0.691,1.496 1.146,3.026 1.37,4.59 0.233,1.679 -0.058,3.253 -0.875,4.7 -0.141,0.239 -0.277,0.485 -0.41,0.721 -0.025,0.012 -0.038,0.028 -0.041,0.039 -0.691,0.94 -1.637,1.476 -2.849,1.604 l -0.017,0.009 c -0.671,0.08 -1.294,0.071 -1.881,-0.008 -2,-0.497 -3.504,-1.609 -4.531,-3.339 -0.551,-0.95 -1.223,-2.26 -1.988,-3.939 0.022,1.197 0.238,2.316 0.649,3.343 0.38,1.023 0.607,1.822 0.669,2.403 0.043,0.568 0.061,1.106 0.056,1.604 -0.005,0.502 -0.118,1.035 -0.334,1.596 -0.094,0.249 -0.204,0.484 -0.315,0.699 -0.162,0.32 -0.35,0.631 -0.572,0.936 -0.384,0.472 -0.83,0.896 -1.359,1.269 -0.911,0.602 -1.844,0.814 -2.811,0.659 -1.829,-0.537 -3.284,-1.578 -4.366,-3.146 -0.949,-1.383 -1.698,-2.841 -2.253,-4.399 -0.044,-0.105 -0.076,-0.204 -0.115,-0.299 -0.128,-0.407 -0.279,-0.939 -0.453,-1.595 l -0.212,1.787 c -0.005,1.064 0.15,1.986 0.473,2.761 0.317,0.767 0.507,1.208 0.573,1.332 -0.03,0.025 -0.048,0.052 -0.068,0.072 -0.882,0.819 -1.895,0.999 -3.047,0.538 l -0.287,-0.184 c -0.24,-0.15 -0.467,-0.335 -0.68,-0.562 -1.651,-1.613 -2.647,-3.489 -2.998,-5.613 -0.373,-2.226 -0.403,-4.411 -0.076,-6.548 0.307,-2.15 0.902,-4.181 1.797,-6.108 0.879,-1.918 2.084,-3.624 3.609,-5.101 1.5,-1.505 3.312,-2.771 5.438,-3.775 2.123,-0.999 4.391,-1.733 6.804,-2.195"
         id="path553" />
      <path
         inkscape:connector-curvature="0"
         style="fill:#9fc94c"
         d="m 516.095,606.706 0.017,-0.008 c -2.413,0.462 -4.681,1.195 -6.802,2.193 -2.128,1.004 -3.938,2.27 -5.438,3.774 -1.525,1.477 -2.73,3.183 -3.609,5.101 -0.895,1.928 -1.49,3.958 -1.799,6.108 -0.325,2.137 -0.295,4.322 0.077,6.548 0.352,2.124 1.349,4 2.999,5.613 0.214,0.228 0.44,0.412 0.68,0.562 l 0.288,0.184 c 1.149,0.461 2.162,0.281 3.046,-0.538 0.021,-0.021 0.038,-0.047 0.068,-0.072 -0.066,-0.124 -0.254,-0.565 -0.573,-1.332 -0.323,-0.774 -0.478,-1.696 -0.472,-2.761 l 0.211,-1.787 c 0.174,0.655 0.325,1.188 0.453,1.593 0.039,0.097 0.071,0.195 0.115,0.301 0.553,1.559 1.303,3.017 2.252,4.399 1.082,1.567 2.538,2.609 4.367,3.146 0.967,0.155 1.9,-0.058 2.811,-0.659 0.529,-0.372 0.976,-0.797 1.357,-1.269 0.224,-0.305 0.412,-0.615 0.574,-0.936 0.11,-0.215 0.222,-0.45 0.315,-0.699 0.216,-0.561 0.329,-1.094 0.336,-1.596 0.004,-0.497 -0.015,-1.035 -0.058,-1.604 -0.062,-0.581 -0.289,-1.38 -0.669,-2.403 -0.411,-1.026 -0.627,-2.146 -0.649,-3.343 0.766,1.68 1.436,2.989 1.988,3.939 1.027,1.729 2.531,2.842 4.531,3.339 0.586,0.079 1.21,0.088 1.881,0.008 l 0.017,-0.009 c 1.212,-0.129 2.157,-0.664 2.849,-1.604 0.003,-0.012 0.016,-0.028 0.041,-0.04 0.133,-0.232 0.27,-0.481 0.409,-0.721 0.818,-1.447 1.109,-3.021 0.875,-4.702 -0.223,-1.562 -0.678,-3.092 -1.368,-4.588 -0.692,-1.496 -1.558,-2.873 -2.605,-4.139 l -1.83,-2.218 c 1.679,0.817 2.836,1.312 3.47,1.482 0.039,0.016 0.239,0.069 0.6,0.168 0.359,0.096 0.94,0.167 1.727,0.198 0.779,0.023 1.428,-0.081 1.945,-0.315 0.635,-0.313 1.125,-0.78 1.479,-1.403 0.254,-0.494 0.308,-1.035 0.181,-1.606 -0.14,-0.671 -0.357,-1.326 -0.656,-1.977 -0.287,-0.626 -0.652,-1.257 -1.1,-1.882 -0.354,-0.512 -0.79,-0.958 -1.301,-1.339 -0.014,-0.004 -0.031,-0.017 -0.034,-0.024 -0.555,-0.486 -1.146,-0.903 -1.777,-1.269 l -0.025,-0.011 c -0.624,-0.392 -1.284,-0.736 -1.983,-1.011 l -0.018,0.007 c -0.728,-0.304 -1.469,-0.539 -2.207,-0.703 l 0.017,-0.009 c -0.819,-0.183 -1.904,-0.337 -3.242,-0.451 -1.204,0.016 -2.46,0.143 -3.761,0.365 l 0,0 z"
         id="path555" />
      <path
         inkscape:connector-curvature="0"
         style="fill:#c6cee3"
         d="m 526.832,509.417 c -0.671,0.097 -1.548,0.325 -2.623,0.674 -2.689,0.98 -5.262,1.669 -7.711,2.073 -2.451,0.401 -3.951,0.655 -4.499,0.764 -0.094,0.019 -0.196,0.04 -0.297,0.063 -0.518,0.086 -1.193,0.196 -2.037,0.306 -4.329,0.585 -7.186,1.241 -8.592,1.957 -0.548,0.246 -1.028,0.711 -1.448,1.4 -0.064,0.107 -0.122,0.216 -0.17,0.316 -0.278,0.6 -0.329,1.236 -0.171,1.918 0.729,4.038 1.633,7.795 2.711,11.282 0.195,0.799 0.636,1.403 1.347,1.827 0.683,0.423 1.419,0.541 2.218,0.348 0.799,-0.194 1.404,-0.637 1.833,-1.329 0.409,-0.689 0.518,-1.432 0.323,-2.23 -1.086,-2.835 -1.82,-5.814 -2.22,-8.957 2.227,-0.693 4.539,-1.163 6.935,-1.421 5.392,-0.851 9.654,-1.779 12.794,-2.771 l 2.024,8.425 c 0.196,0.8 0.637,1.404 1.345,1.817 0.686,0.433 1.422,0.553 2.22,0.359 0.78,-0.19 1.395,-0.636 1.83,-1.312 0.404,-0.703 0.521,-1.45 0.326,-2.248 l -2.622,-10.993 c -0.254,-0.989 -0.69,-1.644 -1.306,-1.98 -0.605,-0.328 -1.344,-0.426 -2.21,-0.288"
         id="path557" />
      <path
         inkscape:connector-curvature="0"
         style="fill:none;stroke:#737a91;stroke-width:1.50899994;stroke-linecap:round;stroke-linejoin:round;stroke-miterlimit:10"
         d="m 526.832,509.417 c 0.866,-0.138 1.604,-0.04 2.21,0.288 0.615,0.337 1.052,0.991 1.306,1.98 l 2.622,10.993 c 0.195,0.798 0.078,1.545 -0.326,2.248 -0.435,0.677 -1.05,1.122 -1.83,1.312 -0.798,0.193 -1.534,0.073 -2.22,-0.359 -0.708,-0.413 -1.148,-1.018 -1.345,-1.817 l -2.024,-8.425 c -3.14,0.991 -7.402,1.92 -12.794,2.771 -2.396,0.258 -4.708,0.728 -6.935,1.421 0.399,3.143 1.134,6.122 2.22,8.957 0.194,0.799 0.086,1.541 -0.323,2.23 -0.429,0.692 -1.034,1.135 -1.833,1.329 -0.799,0.193 -1.535,0.075 -2.218,-0.348 -0.711,-0.424 -1.151,-1.028 -1.347,-1.827 -1.078,-3.487 -1.981,-7.244 -2.711,-11.282 -0.158,-0.682 -0.107,-1.318 0.171,-1.918 0.048,-0.101 0.105,-0.209 0.17,-0.316 0.42,-0.689 0.9,-1.154 1.448,-1.4 1.406,-0.716 4.263,-1.372 8.592,-1.957 0.844,-0.109 1.52,-0.22 2.037,-0.306 0.101,-0.023 0.203,-0.045 0.297,-0.063 0.548,-0.108 2.048,-0.362 4.499,-0.764 2.449,-0.404 5.021,-1.093 7.711,-2.073 1.075,-0.349 1.952,-0.577 2.623,-0.674 z"
         id="path559" />
      <path
         inkscape:connector-curvature="0"
         style="fill:#b0b6d5"
         d="m 543.316,518.587 c -11.755,1.07 -20.619,2.786 -26.595,5.146 -9.537,3.54 -16.223,5.615 -20.045,6.241 -3.828,0.639 -7.933,1.822 -12.303,3.564 -4.375,1.725 -8.033,3.437 -10.961,5.11 -0.886,2.301 -0.712,4.932 0.535,7.883 0.007,0.02 0.015,0.047 0.031,0.069 0.041,0.096 0.072,0.206 0.107,0.322 0.04,0.155 0.082,0.33 0.134,0.523 0.127,0.579 0.199,1.171 0.229,1.754 0.167,1.674 0.562,2.835 1.19,3.501 8.741,-3.53 17.335,-6.714 25.775,-9.562 4.106,-1.373 7.508,-2.443 10.219,-3.222 l 7.718,-2.243 c 8.064,-2.497 13.743,-3.888 17.042,-4.188 l 14.534,-1.565 c 5.194,-0.522 10.315,-0.61 15.383,-0.268 0.228,-0.935 0.049,-2.353 -0.528,-4.236 -0.04,-0.136 -0.079,-0.262 -0.126,-0.386 -0.194,-0.602 -0.355,-1.094 -0.487,-1.498 -0.004,-0.01 -0.004,-0.01 -0.005,-0.017 -0.084,-0.242 -0.148,-0.45 -0.206,-0.606 -0.109,-0.325 -0.213,-0.64 -0.312,-0.954 -0.426,-1.298 -0.779,-2.395 -1.079,-3.27 -0.076,-0.223 -0.142,-0.438 -0.217,-0.651 -0.221,-0.615 -0.433,-1.181 -0.646,-1.718 -0.309,-0.715 -1.03,-1.077 -2.148,-1.088 -5.788,0.025 -11.542,0.473 -17.239,1.359"
         id="path561" />
      <path
         inkscape:connector-curvature="0"
         style="fill:none;stroke:#737a91;stroke-width:1.50899994;stroke-linecap:round;stroke-linejoin:round;stroke-miterlimit:10"
         d="m 543.316,518.587 c 5.696,-0.886 11.45,-1.334 17.239,-1.358 1.118,0.011 1.84,0.373 2.148,1.088 0.213,0.537 0.425,1.103 0.646,1.718 0.075,0.214 0.141,0.429 0.217,0.651 0.3,0.875 0.653,1.972 1.079,3.27 0.1,0.314 0.203,0.629 0.312,0.954 0.058,0.156 0.122,0.364 0.206,0.606 10e-4,0.007 10e-4,0.007 0.005,0.017 0.132,0.404 0.293,0.896 0.487,1.498 0.047,0.124 0.086,0.25 0.126,0.386 0.577,1.884 0.756,3.302 0.528,4.236 -5.067,-0.343 -10.188,-0.255 -15.383,0.268 l -14.534,1.565 c -3.299,0.301 -8.978,1.691 -17.042,4.188 l -7.718,2.243 c -2.711,0.778 -6.112,1.849 -10.22,3.222 -8.439,2.849 -17.033,6.032 -25.774,9.562 -0.629,-0.666 -1.023,-1.827 -1.19,-3.501 -0.029,-0.583 -0.102,-1.175 -0.229,-1.754 -0.052,-0.193 -0.094,-0.368 -0.134,-0.523 -0.035,-0.116 -0.066,-0.227 -0.107,-0.322 -0.017,-0.022 -0.024,-0.05 -0.031,-0.069 -1.247,-2.951 -1.421,-5.582 -0.537,-7.883 2.93,-1.674 6.588,-3.386 10.963,-5.11 4.37,-1.742 8.475,-2.926 12.303,-3.564 3.822,-0.626 10.508,-2.701 20.045,-6.241 5.976,-2.361 14.841,-4.077 26.595,-5.147 z"
         id="path563" />
    </g>
  </g>
</svg>
