<?xml version="1.0" encoding="UTF-8" standalone="no"?>
<!-- Created with Inkscape (http://www.inkscape.org/) -->

<svg
   xmlns:dc="http://purl.org/dc/elements/1.1/"
   xmlns:cc="http://creativecommons.org/ns#"
   xmlns:rdf="http://www.w3.org/1999/02/22-rdf-syntax-ns#"
   xmlns:svg="http://www.w3.org/2000/svg"
   xmlns="http://www.w3.org/2000/svg"
   xmlns:sodipodi="http://sodipodi.sourceforge.net/DTD/sodipodi-0.dtd"
   xmlns:inkscape="http://www.inkscape.org/namespaces/inkscape"
   width="101.2822"
   height="224.15669"
   id="svg5696"
   version="1.1"
   inkscape:version="0.48.4 r9939"
   sodipodi:docname="oscar4.svg">
  <defs
     id="defs5698">
    <clipPath
       id="SVGID_2_">
      <rect
         height="88.862999"
         width="111.498"
         y="518.96198"
         x="382.04999"
         id="use1087" />
    </clipPath>
    <clipPath
       id="SVGID_4_">
      <rect
         height="41.314999"
         width="49.584999"
         y="525.19397"
         x="389.84698"
         id="use1111" />
    </clipPath>
  </defs>
  <sodipodi:namedview
     id="base"
     pagecolor="#ffffff"
     bordercolor="#666666"
     borderopacity="1.0"
     inkscape:pageopacity="0.0"
     inkscape:pageshadow="2"
     inkscape:zoom="0.77472527"
     inkscape:cx="55.556114"
     inkscape:cy="101.40248"
     inkscape:current-layer="layer1"
     inkscape:document-units="px"
     showgrid="false"
     inkscape:window-width="763"
     inkscape:window-height="591"
     inkscape:window-x="592"
     inkscape:window-y="97"
     inkscape:window-maximized="0"
     fit-margin-top="0"
     fit-margin-left="0"
     fit-margin-right="0"
     fit-margin-bottom="0" />
  <metadata
     id="metadata5701">
    <rdf:RDF>
      <cc:Work
         rdf:about="">
        <dc:format>image/svg+xml</dc:format>
        <dc:type
           rdf:resource="http://purl.org/dc/dcmitype/StillImage" />
        <dc:title></dc:title>
      </cc:Work>
    </rdf:RDF>
  </metadata>
  <g
     id="layer1"
     inkscape:label="Layer 1"
     inkscape:groupmode="layer"
     transform="translate(-262.38718,37.647835)">
    <g
       transform="translate(-606.45653,-62.678647)"
       id="g361">
      <path
         inkscape:connector-curvature="0"
         style="fill:#255f27"
         d="m 946.98,76.78 c -0.019,0.028 -0.035,0.056 -0.046,0.09 -1.039,2.638 -1.683,5.506 -1.899,8.61 -2.777,-1.931 -5.124,-2.522 -7.021,-1.77 -0.011,0 -0.021,0.007 -0.034,0.007 -2.483,1.015 -3.795,2.871 -3.931,5.562 -0.27,3.514 0.972,6.729 3.721,9.649 3.79,6.002 4.937,10.763 3.434,14.289 -2.745,3.529 -6.797,5.701 -12.159,6.521 -5.377,0.828 -7.741,1.567 -7.107,2.239 0.633,0.673 0.891,1.119 0.777,1.354 -0.115,0.233 -0.623,0.692 -1.523,1.382 l 15.55,10.796 c 0.074,0.116 0.178,0.202 0.322,0.254 0.127,0.052 0.271,0.057 0.423,0.028 22.497,-5.14 33.283,-17.451 32.352,-36.943 -0.004,-0.007 -0.004,-0.007 0.004,-0.014 l -0.158,-2.223 0.006,-0.007 c 0.595,-2.767 0.579,-5.19 -0.045,-7.282 -0.19,-0.64 -0.449,-1.235 -0.759,-1.79 0.018,-3.36 -1.205,-5.927 -3.687,-7.691 -1.706,-1.202 -3.592,-1.896 -5.678,-2.083 l -0.1,-0.695 c 10e-4,-0.014 -0.002,-0.033 -0.007,-0.054 -0.065,-0.292 -0.124,-0.564 -0.191,-0.829 -0.14,-0.49 -0.293,-0.944 -0.482,-1.365 l -0.004,-0.006 c -0.413,-0.86 -0.938,-1.583 -1.577,-2.167 -1.616,-1.477 -3.331,-1.868 -5.123,-1.183 -1.841,0.618 -3.528,2.391 -5.058,5.321 m 9.041,-2.932 c 0.521,0.485 0.957,1.072 1.287,1.777 l -0.006,-0.007 c 0.158,0.353 0.297,0.747 0.413,1.161 l -0.006,-0.007 c 0.062,0.245 0.124,0.504 0.179,0.769 l 0.021,0.151 c -1.794,0.054 -3.154,0.772 -4.097,2.138 l -0.005,0.006 c -0.603,0.842 -0.974,1.756 -1.117,2.74 l 0.007,0.007 c -0.468,3.475 0.694,6.085 3.485,7.81 -0.103,1.19 0.164,2.264 0.805,3.21 0.068,0.094 0.131,0.181 0.201,0.276 0.157,0.1 0.322,0.206 0.496,0.327 0.143,0.101 0.28,0.193 0.413,0.281 0.051,0.013 0.104,0.039 0.153,0.066 h 0.013 c 0.245,0.058 0.604,0.134 1.084,0.221 0.812,0.152 1.19,0.172 1.143,0.058 -0.045,-0.116 -0.282,-0.351 -0.7,-0.7 -0.424,-0.342 -0.697,-0.589 -0.828,-0.737 -0.088,-0.101 -0.177,-0.202 -0.266,-0.304 l -0.008,-0.006 c -0.791,-0.868 -1.1,-1.896 -0.924,-3.079 0.004,-0.041 0.017,-0.075 0.022,-0.116 l 0.003,-0.014 c 0.027,-0.328 0.137,-0.645 0.314,-0.947 0.531,-0.937 1.276,-1.63 2.24,-2.076 3.004,-1.411 5.36,-0.936 7.053,1.414 0.012,0.027 0.03,0.048 0.038,0.073 0.297,0.494 0.534,1.03 0.711,1.607 0.551,1.882 0.562,4.066 0.019,6.545 l 0.004,-0.013 c -0.013,0.034 -0.017,0.061 -0.025,0.083 -0.023,0.082 -0.029,0.17 -0.021,0.26 l 0.164,2.337 c 0.807,18.376 -9.34,30.049 -30.444,35.01 l -12.654,-12.002 c 10.502,-1.855 16.31,-4.689 17.429,-8.508 1.812,-3.911 0.642,-9.156 -3.517,-15.733 -0.029,-0.033 -0.052,-0.061 -0.076,-0.089 -2.496,-2.629 -3.634,-5.526 -3.411,-8.682 -0.006,-0.008 -0.006,-0.008 -0.006,-0.021 0.104,-1.912 1.011,-3.237 2.743,-3.974 1.756,-0.566 4.037,0.265 6.841,2.507 0.148,0.122 0.408,0.323 0.769,0.603 0.35,0.289 0.522,0.061 0.51,-0.676 -0.024,-0.738 -0.009,-1.912 0.065,-3.51 0.072,-1.599 0.669,-3.86 1.814,-6.785 1.251,-2.368 2.585,-3.835 4.021,-4.391 1.269,-0.428 2.482,-0.118 3.651,0.94 m -1.789,8.717 0.007,-0.006 c 0.099,-0.704 0.361,-1.364 0.796,-1.958 0.78,-1.029 1.951,-1.477 3.511,-1.337 0.04,0 0.08,0.012 0.122,0.012 0.013,0 0.041,-10e-4 0.055,-10e-4 h 0.013 c 2.017,0.105 3.826,0.731 5.44,1.875 1.556,1.123 2.541,2.603 2.938,4.452 -1.928,-1.451 -4.345,-1.496 -7.256,-0.133 -1.32,0.621 -2.344,1.565 -3.077,2.853 l -0.005,-0.006 c -0.072,0.124 -0.135,0.241 -0.185,0.356 -1.917,-1.424 -2.705,-3.466 -2.359,-6.107"
         id="path363" />
      <path
         inkscape:connector-curvature="0"
         style="fill:#9fc94c"
         d="m 956.021,73.848 c -1.169,-1.06 -2.382,-1.369 -3.648,-0.939 -1.437,0.554 -2.771,2.022 -4.023,4.39 -1.146,2.926 -1.742,5.188 -1.814,6.785 -0.074,1.599 -0.09,2.773 -0.065,3.51 0.013,0.737 -0.16,0.965 -0.51,0.676 -0.36,-0.28 -0.62,-0.48 -0.767,-0.603 -2.806,-2.242 -5.087,-3.074 -6.843,-2.507 -1.731,0.737 -2.64,2.061 -2.741,3.974 -0.002,0.012 -0.002,0.012 0.004,0.021 -0.223,3.156 0.915,6.054 3.411,8.684 0.024,0.027 0.047,0.054 0.076,0.088 4.158,6.576 5.329,11.822 3.517,15.733 -1.119,3.819 -6.927,6.653 -17.429,8.508 l 12.654,12.002 c 21.106,-4.961 31.251,-16.634 30.444,-35.009 l -0.164,-2.339 c -0.008,-0.088 -0.002,-0.178 0.021,-0.259 0.009,-0.021 0.013,-0.048 0.025,-0.083 l -0.004,0.014 c 0.543,-2.479 0.532,-4.664 -0.019,-6.545 -0.177,-0.577 -0.414,-1.113 -0.711,-1.606 -0.008,-0.026 -0.026,-0.048 -0.038,-0.074 -1.692,-2.35 -4.049,-2.825 -7.053,-1.414 -0.964,0.445 -1.709,1.14 -2.24,2.075 -0.178,0.303 -0.287,0.62 -0.314,0.948 l -0.003,0.014 c -0.006,0.041 -0.019,0.075 -0.022,0.115 -0.174,1.183 0.133,2.21 0.926,3.079 l 0.006,0.006 c 0.089,0.102 0.178,0.203 0.266,0.304 0.131,0.147 0.404,0.396 0.828,0.737 0.418,0.348 0.655,0.584 0.7,0.7 0.048,0.114 -0.331,0.094 -1.143,-0.057 -0.479,-0.089 -0.839,-0.164 -1.084,-0.223 h -0.013 c -0.05,-0.026 -0.103,-0.053 -0.153,-0.065 -0.133,-0.087 -0.271,-0.18 -0.413,-0.281 -0.174,-0.121 -0.339,-0.227 -0.496,-0.327 -0.07,-0.094 -0.133,-0.182 -0.201,-0.276 -0.641,-0.946 -0.907,-2.021 -0.805,-3.21 -2.791,-1.725 -3.953,-4.334 -3.485,-7.809 l -0.007,-0.007 c 0.144,-0.984 0.515,-1.899 1.117,-2.74 l 0.005,-0.007 c 0.942,-1.366 2.303,-2.082 4.097,-2.138 l -0.021,-0.149 c -0.055,-0.266 -0.116,-0.524 -0.177,-0.768 l 0.004,0.006 c -0.116,-0.415 -0.255,-0.808 -0.413,-1.161 l 0.006,0.006 c -0.331,-0.708 -0.767,-1.294 -1.288,-1.779"
         id="path365" />
      <path
         inkscape:connector-curvature="0"
         style="fill:#9fc94c"
         d="m 954.239,82.559 -0.007,0.006 c -0.347,2.642 0.441,4.683 2.358,6.106 0.05,-0.116 0.112,-0.233 0.185,-0.358 l 0.005,0.007 c 0.733,-1.288 1.757,-2.231 3.077,-2.853 2.911,-1.362 5.328,-1.319 7.256,0.133 -0.396,-1.85 -1.382,-3.331 -2.938,-4.452 -1.614,-1.143 -3.424,-1.77 -5.44,-1.876 l -0.013,10e-4 c -0.014,0 -0.042,0 -0.055,0.001 -0.042,0 -0.082,-0.013 -0.122,-0.012 -1.56,-0.14 -2.73,0.309 -3.511,1.337 -0.433,0.595 -0.696,1.256 -0.795,1.96"
         id="path367" />
      <path
         inkscape:connector-curvature="0"
         style="fill:#255f27"
         d="m 935.327,134.042 -0.019,-0.019 c -3.831,-8.605 -5.231,-19.563 -4.191,-32.861 l -31.654,0.375 c 1.63,14.116 -0.009,25.621 -4.901,34.502 -0.013,0.009 -0.03,0.027 -0.041,0.056 -0.439,0.669 -0.851,1.367 -1.227,2.087 -2.987,5.42 -4.596,11.636 -4.822,18.646 -0.314,9.628 2.047,17.92 7.09,24.882 4.979,6.887 11.143,10.458 18.492,10.708 7.337,0.23 13.725,-2.935 19.152,-9.481 5.466,-6.622 8.362,-14.742 8.675,-24.37 0.146,-4.507 -0.297,-8.719 -1.318,-12.636 -0.534,-1.992 -1.231,-3.866 -2.114,-5.615 -1.063,-2.094 -2.096,-4.187 -3.122,-6.274"
         id="path369" />
      <path
         inkscape:connector-curvature="0"
         style="fill:none;stroke:#255f27;stroke-width:1.51849997;stroke-linecap:round;stroke-linejoin:round;stroke-miterlimit:10"
         d="m 935.309,134.023 c -3.831,-8.605 -5.231,-19.562 -4.191,-32.861 l -31.654,0.375 c 1.63,14.116 -0.009,25.621 -4.901,34.503 -0.013,0.009 -0.03,0.027 -0.041,0.056 -0.439,0.669 -0.851,1.367 -1.227,2.086 -2.987,5.419 -4.596,11.635 -4.822,18.646 -0.314,9.629 2.047,17.92 7.09,24.883 4.979,6.886 11.144,10.457 18.492,10.706 7.335,0.23 13.724,-2.934 19.152,-9.481 5.466,-6.622 8.362,-14.741 8.675,-24.37 0.146,-4.507 -0.297,-8.718 -1.318,-12.636 -0.534,-1.992 -1.231,-3.866 -2.114,-5.615 -1.062,-2.095 -2.096,-4.188 -3.121,-6.273 l -0.02,-0.019 0,0 z"
         id="path371" />
      <path
         inkscape:connector-curvature="0"
         style="fill:#9fc94c"
         d="m 934.688,134.459 c -0.027,-0.04 -0.054,-0.078 -0.071,-0.125 -3.808,-8.529 -5.239,-19.324 -4.313,-32.401 l -29.989,0.355 c 1.493,13.922 -0.209,25.3 -5.083,34.126 -0.028,0.026 -0.049,0.064 -0.068,0.102 -0.43,0.642 -0.832,1.322 -1.195,2.021 -0.002,0.01 -0.002,0.01 -0.002,0.021 -2.936,5.316 -4.512,11.419 -4.736,18.296 -0.306,9.439 2.011,17.577 6.947,24.413 h 0.009 c 4.825,6.672 10.792,10.133 17.896,10.393 7.106,0.202 13.282,-2.863 18.542,-9.196 v -0.011 c 5.357,-6.501 8.19,-14.472 8.497,-23.91 0.146,-4.431 -0.281,-8.565 -1.285,-12.416 -0.518,-1.944 -1.207,-3.762 -2.063,-5.471 v 0.01 c -1.046,-2.077 -2.081,-4.151 -3.086,-6.207"
         id="path373" />
      <path
         inkscape:connector-curvature="0"
         style="fill:#9fc94c"
         d="m 916.058,119.522 c -4.121,-1.593 -8.693,-1.846 -13.723,-0.76 -7.052,2.091 -12.067,6.902 -15.053,14.415 -0.326,0.94 -0.621,2.261 -0.881,3.943 l 10.796,0.015 c -0.244,-1.13 -0.403,-2.386 -0.488,-3.783 0.085,1.397 0.244,2.653 0.488,3.783 0.644,2.946 1.837,5.001 3.594,6.163 0.418,0.19 0.827,0.324 1.235,0.4 0.769,0.164 1.539,0.118 2.31,-0.157 0.21,-0.077 0.409,-0.172 0.6,-0.276 0.541,-0.321 0.98,-0.787 1.305,-1.385 0.389,-0.732 0.609,-1.529 0.679,-2.375 0.046,-0.684 0.048,-1.378 -0.009,-2.081 -0.011,-0.199 -0.029,-0.389 -0.047,-0.589 0.018,0.2 0.036,0.39 0.047,0.589 0.057,0.703 0.055,1.397 0.009,2.081 -0.069,0.847 -0.29,1.643 -0.679,2.375 -0.324,0.599 -0.764,1.064 -1.305,1.385 0.161,0.732 0.359,1.456 0.595,2.159 0.73,2.148 2.153,3.67 4.253,4.577 0.797,0.247 1.549,0.21 2.252,-0.111 0.646,-0.389 1.209,-0.854 1.692,-1.414 0.077,-0.086 0.154,-0.181 0.22,-0.265 0.098,-0.115 0.182,-0.228 0.257,-0.343 0.067,-0.084 0.122,-0.18 0.191,-0.265 0.047,-0.076 0.085,-0.153 0.133,-0.228 0.353,-0.607 0.657,-1.292 0.896,-2.042 0.429,-1.425 0.63,-3.117 0.586,-5.085 0.044,1.968 -0.157,3.66 -0.586,5.085 -0.239,0.75 -0.544,1.434 -0.896,2.042 -0.048,0.075 -0.086,0.152 -0.133,0.228 0.427,0.486 0.653,0.743 0.683,0.771 0.038,0.027 0.065,0.065 0.096,0.104 1.279,1.265 2.771,1.695 4.481,1.27 2.343,-0.937 3.778,-2.798 4.315,-5.562 0.21,-1.369 0.317,-2.69 0.328,-3.963 0.012,-1.169 -0.073,-2.31 -0.243,-3.402 v -0.018 c -0.027,-0.133 -0.047,-0.268 -0.065,-0.389 -0.103,-0.591 -0.235,-1.17 -0.388,-1.741 -0.064,-0.267 -0.152,-0.533 -0.236,-0.799 0.084,0.267 0.172,0.533 0.236,0.799 0.152,0.57 0.285,1.15 0.388,1.741 0.019,0.122 0.038,0.256 0.065,0.389 0.553,-0.047 1.028,-0.17 1.427,-0.387 0.333,-0.182 0.608,-0.409 0.827,-0.703 0.287,-0.381 0.487,-0.854 0.61,-1.416 0.366,-3.061 -0.41,-5.874 -2.316,-8.441 -0.01,-0.02 -0.03,-0.039 -0.038,-0.058 l -0.312,-0.399 c -0.03,-0.039 -0.067,-0.077 -0.097,-0.115 -2.029,-2.522 -4.726,-4.437 -8.099,-5.762"
         id="path375" />
      <path
         inkscape:connector-curvature="0"
         style="fill:none;stroke:#255f27;stroke-width:1.52069998;stroke-linecap:round;stroke-linejoin:round;stroke-miterlimit:10"
         d="m 896.709,133.352 c 0.085,1.397 0.244,2.652 0.488,3.784 m 26.859,-0.335 v 0.02 c 0.17,1.092 0.254,2.233 0.243,3.402 -0.011,1.273 -0.118,2.593 -0.328,3.963 -0.537,2.764 -1.973,4.625 -4.313,5.562 -1.713,0.425 -3.204,-0.005 -4.483,-1.271 -0.03,-0.036 -0.058,-0.075 -0.096,-0.104 -0.029,-0.028 -0.256,-0.285 -0.683,-0.771 m 8.97,-13.73 c 0.084,0.267 0.172,0.533 0.236,0.8 0.152,0.571 0.285,1.15 0.388,1.74 0.019,0.123 0.038,0.257 0.065,0.39 m -9.659,10.801 c -0.066,0.085 -0.124,0.182 -0.191,0.266 -0.075,0.114 -0.159,0.228 -0.257,0.342 -0.065,0.085 -0.143,0.18 -0.22,0.264 -0.483,0.561 -1.047,1.026 -1.692,1.415 -0.703,0.323 -1.455,0.359 -2.252,0.112 -2.1,-0.908 -3.522,-2.43 -4.253,-4.578 -0.235,-0.702 -0.434,-1.427 -0.595,-2.159 m 11.075,-3.015 c 0.044,1.966 -0.157,3.659 -0.586,5.084 -0.239,0.749 -0.544,1.434 -0.896,2.041 -0.046,0.077 -0.086,0.152 -0.133,0.229 m -9.46,-4.339 0,0 c -0.19,0.104 -0.39,0.2 -0.6,0.274 -0.771,0.276 -1.541,0.322 -2.31,0.16 -0.408,-0.077 -0.817,-0.21 -1.235,-0.402 -1.756,-1.161 -2.95,-3.217 -3.594,-6.163 m 9.666,-0.3 c 0.018,0.2 0.036,0.39 0.047,0.588 0.058,0.703 0.057,1.397 0.009,2.083 -0.069,0.844 -0.29,1.641 -0.679,2.374 -0.324,0.599 -0.764,1.062 -1.305,1.385 m -7.738,-6.129 -10.796,-0.015 c 0.26,-1.682 0.555,-3.003 0.881,-3.943 2.984,-7.514 8.001,-12.326 15.053,-14.417 5.029,-1.084 9.602,-0.831 13.723,0.761 3.373,1.326 6.07,3.24 8.1,5.761 0.029,0.038 0.066,0.076 0.097,0.114 l 0.312,0.4 c 0.008,0.019 0.028,0.037 0.038,0.056 1.906,2.569 2.683,5.383 2.316,8.443 -0.123,0.561 -0.323,1.037 -0.61,1.417 -0.219,0.293 -0.494,0.521 -0.827,0.702 -0.398,0.217 -0.874,0.341 -1.427,0.388"
         id="path377" />
      <path
         inkscape:connector-curvature="0"
         style="fill:#5a6074"
         d="m 876.303,38.793 -2.219,7.906 c 3.162,2.138 6.747,3.825 10.755,5.057 3.51,1.107 7.022,2.423 10.52,3.959 19.311,6.765 42.224,11.424 68.745,13.974 l 1.392,-9.228 -89.193,-21.668 z"
         id="path379" />
      <path
         inkscape:connector-curvature="0"
         style="fill:none;stroke:#737a91;stroke-width:1.50530005;stroke-linecap:round;stroke-linejoin:round;stroke-miterlimit:10"
         d="m 876.303,38.793 89.192,21.668 -1.392,9.228 c -26.521,-2.55 -49.435,-7.209 -68.745,-13.974 -3.497,-1.536 -7.01,-2.853 -10.52,-3.959 -4.008,-1.232 -7.593,-2.918 -10.755,-5.057 l 2.22,-7.906 z"
         id="path381" />
      <path
         inkscape:connector-curvature="0"
         style="fill:#9fc94c"
         d="m 948.926,63.822 c -0.597,-0.699 -1.358,-1.744 -2.273,-3.123 -0.928,-1.372 -2.233,-3.075 -3.922,-5.104 -1.695,-2.041 -4.698,-4.027 -9.029,-5.961 1.02,-1.258 2.142,-2.108 3.356,-2.561 -2.875,-1.154 -5.952,-1.483 -9.227,-0.993 -0.002,-0.764 0.366,-1.662 1.099,-2.712 -3.059,-0.422 -6.057,0.506 -8.979,2.774 -3.574,-2.623 -7.864,-4.047 -12.873,-4.28 1.231,1.051 2.257,2.25 3.072,3.606 -6.938,-0.681 -12.738,0.664 -17.394,4.045 -2.105,1.778 -4.805,2.761 -8.103,2.935 0.496,0.959 1.403,1.785 2.705,2.481 -5.143,4.042 -8.938,6.062 -11.38,6.065 0.141,0.29 0.321,0.553 0.568,0.799 0.713,0.734 1.901,1.244 3.56,1.536 -0.9,1.149 -1.952,2.121 -3.166,2.911 -0.737,0.479 -1.487,0.926 -2.26,1.349 -0.538,0.28 -1.071,0.551 -1.625,0.809 -0.835,0.389 -1.696,0.734 -2.576,1.037 1.227,1.282 2.847,2.165 4.867,2.641 -0.594,0.616 -1.091,1.988 -1.461,4.103 -0.374,2.115 -0.1,4.417 0.832,6.913 l 2.185,-2.177 c 0.816,6.772 4.154,12.747 10.013,17.934 l 1.299,-2.349 c 1.919,3.993 6.729,7.773 14.436,11.337 0.313,-0.657 0.787,-1.337 1.401,-2.037 0.222,0.252 0.438,0.501 0.66,0.753 2.445,2.658 5.408,4.614 8.885,5.872 0.18,0.067 0.359,0.126 0.54,0.193 0.175,0.068 0.355,0.126 0.541,0.176 0.415,0.12 0.838,0.22 1.26,0.312 0.336,0.062 0.674,0.106 1.021,0.153 0.341,-0.004 0.688,-0.006 1.037,0.002 2.451,-0.03 4.957,-0.657 7.491,-1.898 0.335,-0.159 0.667,-0.339 1.014,-0.542 l -0.014,1.688 c 3.839,-0.511 7.376,-1.98 10.608,-4.422 l 0.222,1.837 c 1.395,-0.732 2.872,-1.661 4.437,-2.8 1.194,-0.874 2.277,-1.847 3.234,-2.917 1.573,-1.777 2.836,-3.805 3.773,-6.067 0.088,-0.213 0.198,-0.528 0.333,-0.954 l 0.95,1.909 c 2.52,-3.342 3.962,-6.684 4.335,-10.027 1.377,0.036 2.713,-0.408 3.992,-1.32 -1.102,-0.676 -2.021,-1.542 -2.752,-2.619 -0.103,-0.147 -0.203,-0.296 -0.291,-0.46 -0.628,-1.035 -1.153,-2.135 -1.557,-3.296 -0.267,-0.744 -0.513,-1.494 -0.746,-2.25 0.984,0.086 1.761,0.003 2.329,-0.25 0.203,-0.083 0.374,-0.2 0.528,-0.33 -1.095,-0.924 -2.718,-4.352 -4.858,-10.278 1.223,-0.017 2.094,-0.272 2.622,-0.768 -1.08,-0.485 -2.031,-1.068 -2.843,-1.758 -0.661,-0.58 -1.29,-1.218 -1.876,-1.917"
         id="path383" />
      <path
         inkscape:connector-curvature="0"
         style="fill:none;stroke:#255f27;stroke-width:1.50380003;stroke-linecap:square;stroke-miterlimit:10"
         d="m 946.652,60.699 c -0.928,-1.372 -2.233,-3.075 -3.922,-5.104 -1.695,-2.041 -4.698,-4.026 -9.029,-5.961 1.02,-1.258 2.142,-2.108 3.356,-2.561 -2.875,-1.154 -5.952,-1.483 -9.227,-0.993 -0.002,-0.764 0.366,-1.662 1.099,-2.712 -3.059,-0.422 -6.057,0.506 -8.979,2.774 -3.574,-2.622 -7.864,-4.046 -12.873,-4.28 1.231,1.051 2.257,2.25 3.072,3.606 -6.938,-0.681 -12.738,0.664 -17.394,4.045 -2.105,1.779 -4.805,2.761 -8.103,2.935 0.496,0.959 1.403,1.784 2.705,2.483 -5.143,4.041 -8.938,6.06 -11.38,6.064 0.141,0.291 0.321,0.553 0.568,0.799 0.713,0.734 1.901,1.244 3.56,1.536 -0.9,1.149 -1.952,2.121 -3.166,2.912 -0.737,0.478 -1.487,0.924 -2.26,1.348 -0.538,0.28 -1.071,0.551 -1.625,0.809 -0.835,0.389 -1.696,0.735 -2.576,1.037 1.227,1.282 2.847,2.165 4.867,2.641 -0.594,0.616 -1.091,1.988 -1.461,4.103 -0.374,2.115 -0.102,4.417 0.832,6.913 l 2.185,-2.177 c 0.816,6.772 4.154,12.747 10.013,17.934 l 1.299,-2.349 c 1.919,3.993 6.729,7.773 14.436,11.337 0.313,-0.657 0.787,-1.336 1.401,-2.037 0.222,0.252 0.438,0.501 0.66,0.753 2.445,2.658 5.408,4.614 8.885,5.872 0.18,0.067 0.359,0.125 0.54,0.192 0.175,0.068 0.355,0.126 0.541,0.176 0.415,0.12 0.838,0.22 1.26,0.312 0.336,0.062 0.674,0.106 1.021,0.153 0.341,-0.004 0.688,-0.005 1.037,0.002 2.451,-0.03 4.957,-0.657 7.491,-1.898 0.335,-0.159 0.667,-0.338 1.014,-0.543 l -0.014,1.688 c 3.839,-0.511 7.376,-1.98 10.608,-4.422 l 0.222,1.837 c 1.395,-0.732 2.872,-1.662 4.437,-2.8 1.194,-0.874 2.277,-1.847 3.234,-2.917 1.573,-1.777 2.836,-3.805 3.773,-6.067 0.088,-0.213 0.198,-0.528 0.333,-0.954 l 0.95,1.909 c 2.52,-3.342 3.962,-6.685 4.335,-10.027 1.377,0.036 2.713,-0.408 3.992,-1.32 -1.102,-0.676 -2.021,-1.542 -2.752,-2.619 -0.103,-0.147 -0.203,-0.296 -0.291,-0.46 -0.628,-1.035 -1.153,-2.135 -1.557,-3.297 -0.267,-0.744 -0.513,-1.493 -0.746,-2.25 0.984,0.086 1.76,0.004 2.329,-0.25 0.203,-0.082 0.374,-0.199 0.528,-0.33 -1.096,-0.924 -2.718,-4.352 -4.858,-10.278 1.223,-0.017 2.094,-0.272 2.622,-0.768 -1.08,-0.485 -2.031,-1.069 -2.843,-1.758 -0.662,-0.579 -1.291,-1.217 -1.877,-1.916 -0.595,-0.698 -1.356,-1.744 -2.272,-3.122 z"
         id="path385" />
      <path
         inkscape:connector-curvature="0"
         style="fill:#1a1414"
         d="m 947.094,92.054 c -14.838,-8.215 -28.911,-10.215 -42.221,-6.021 13.51,-2.272 27.578,-0.263 42.221,6.021"
         id="path387" />
      <path
         inkscape:connector-curvature="0"
         style="fill:none;stroke:#1f1a1a;stroke-width:0.0095;stroke-linecap:round;stroke-linejoin:round;stroke-miterlimit:10"
         d="m 904.873,86.033 c 13.51,-2.271 27.579,-0.263 42.221,6.02 -14.838,-8.215 -28.911,-10.215 -42.221,-6.02 z"
         id="path389" />
      <path
         inkscape:connector-curvature="0"
         style="fill:#ffffff"
         d="m 944.432,65.266 c -2.244,-0.941 -4.51,-0.891 -6.789,0.163 -2.278,1.044 -3.9,2.781 -4.868,5.212 -0.967,2.432 -1.011,4.839 -0.108,7.22 0.919,2.395 2.496,4.061 4.74,5.002 2.237,0.93 4.497,0.867 6.768,-0.198 2.278,-1.044 3.902,-2.79 4.87,-5.22 0.965,-2.432 1.008,-4.831 0.104,-7.203 -0.902,-2.39 -2.477,-4.056 -4.717,-4.976"
         id="path391" />
      <path
         inkscape:connector-curvature="0"
         style="fill:#ffffff"
         d="m 913.675,60.235 c -2.407,1.016 -4.114,2.745 -5.128,5.166 -1.001,2.413 -0.995,4.822 0.007,7.235 1.009,2.414 2.723,4.11 5.144,5.088 2.399,0.975 4.817,0.938 7.237,-0.095 2.429,-1.021 4.146,-2.739 5.145,-5.151 1.004,-2.422 1.002,-4.842 -0.021,-7.249 -1,-2.412 -2.709,-4.097 -5.114,-5.054 -2.42,-0.977 -4.844,-0.952 -7.27,0.06"
         id="path393" />
      <path
         inkscape:connector-curvature="0"
         style="fill:#1f1a1a"
         d="m 939.209,72.868 c -0.459,-1.009 -1.188,-1.681 -2.2,-2.031 -1.016,-0.352 -2.009,-0.274 -2.988,0.229 -0.981,0.511 -1.648,1.297 -2.014,2.361 -0.364,1.064 -0.317,2.095 0.134,3.102 0.461,1.01 1.191,1.681 2.201,2.032 1.008,0.35 1.996,0.271 2.976,-0.232 0.979,-0.505 1.645,-1.29 2.013,-2.362 0.371,-1.062 0.332,-2.09 -0.122,-3.099"
         id="path395" />
      <path
         inkscape:connector-curvature="0"
         style="fill:#1f1a1a"
         d="m 916.771,67.756 c -0.264,-1.101 -0.876,-1.932 -1.836,-2.51 -0.965,-0.583 -1.996,-0.737 -3.1,-0.469 -1.103,0.275 -1.942,0.894 -2.532,1.856 -0.592,0.963 -0.75,1.986 -0.494,3.083 0.265,1.1 0.878,1.932 1.836,2.511 0.96,0.579 1.985,0.73 3.085,0.463 1.104,-0.269 1.945,-0.887 2.535,-1.856 0.596,-0.961 0.766,-1.981 0.506,-3.078"
         id="path397" />
      <path
         inkscape:connector-curvature="0"
         style="fill:#82ab3e"
         d="m 920.909,60.084 c -2.445,-0.985 -4.887,-0.972 -7.335,0.055 -2.43,1.031 -4.16,2.773 -5.18,5.223 -0.159,0.362 -0.291,0.729 -0.395,1.104 7.185,0.658 13.349,2.312 18.49,4.943 0.53,-1.828 0.486,-3.646 -0.116,-5.46 -0.007,-0.011 -0.013,-0.031 -0.021,-0.042 -0.017,-0.061 -0.04,-0.125 -0.062,-0.188 -0.009,-0.01 -0.012,-0.031 -0.019,-0.043 -0.019,-0.052 -0.037,-0.104 -0.055,-0.146 -0.019,-0.053 -0.028,-0.094 -0.049,-0.137 -0.007,-0.011 -0.021,-0.033 -0.027,-0.044 -0.013,-0.031 -0.023,-0.073 -0.033,-0.104 -0.007,-0.02 -0.021,-0.044 -0.025,-0.054 -1.017,-2.437 -2.737,-4.144 -5.173,-5.107"
         id="path399" />
      <path
         inkscape:connector-curvature="0"
         style="fill:#255f27"
         d="m 926.044,72.474 0.009,0.011 c 0.021,0.004 0.037,0.008 0.045,0.019 0.071,-0.188 0.141,-0.366 0.207,-0.534 0.072,-0.188 0.134,-0.378 0.187,-0.562 -5.143,-2.631 -11.307,-4.286 -18.491,-4.943 -0.052,0.182 -0.104,0.363 -0.147,0.558 -0.041,0.184 -0.072,0.372 -0.104,0.557 0.007,0.002 0.027,0.005 0.034,0.009 0.013,-0.008 0.013,-0.008 0.018,0.004 7.102,0.638 13.177,2.264 18.242,4.881"
         id="path401" />
      <path
         inkscape:connector-curvature="0"
         style="fill:#82ab3e"
         d="m 944.398,65.174 c -2.271,-0.956 -4.555,-0.9 -6.856,0.158 -2.301,1.059 -3.948,2.82 -4.919,5.269 -0.271,0.686 -0.474,1.367 -0.598,2.045 7.565,-0.042 13.447,0.846 17.64,2.673 0.303,-1.724 0.137,-3.423 -0.506,-5.118 -0.911,-2.424 -2.504,-4.103 -4.761,-5.027"
         id="path403" />
      <path
         inkscape:connector-curvature="0"
         style="fill:#255f27"
         d="m 949.317,76.424 c 0.025,0.015 0.053,0.021 0.086,0.039 0.055,-0.191 0.099,-0.376 0.147,-0.558 0.045,-0.194 0.079,-0.391 0.114,-0.585 -4.192,-1.827 -10.074,-2.715 -17.64,-2.672 -0.034,0.187 -0.068,0.373 -0.091,0.571 -0.023,0.189 -0.04,0.378 -0.052,0.569 0.011,-0.007 0.028,-0.002 0.048,0.001 7.48,-0.054 13.279,0.825 17.388,2.635"
         id="path405" />
      <path
         inkscape:connector-curvature="0"
         style="fill:#a5cd50"
         d="m 944.131,82.747 c 0.938,-0.427 1.757,-0.973 2.474,-1.621 -4.539,0.786 -9.048,0.108 -13.546,-2.036 0.96,1.784 2.37,3.067 4.237,3.848 2.261,0.945 4.54,0.879 6.835,-0.191"
         id="path407" />
      <path
         inkscape:connector-curvature="0"
         style="fill:#a5cd50"
         d="m 920.902,77.713 c 0.597,-0.257 1.159,-0.551 1.68,-0.883 -5.272,-0.001 -9.96,-1.298 -14.068,-3.88 1.036,2.294 2.732,3.909 5.081,4.854 2.429,0.98 4.862,0.956 7.307,-0.091"
         id="path409" />
      <path
         inkscape:connector-curvature="0"
         style="fill:#c16513"
         d="m 936.453,64.158 c -1.576,0.509 -3.118,0.785 -4.616,0.818 -0.146,0.007 -0.281,0.007 -0.425,-0.005 -0.142,-0.05 -0.275,-0.107 -0.405,-0.175 -1.343,-0.648 -2.623,-1.535 -3.831,-2.648 -2.816,-2.554 -5.406,-4.188 -7.783,-4.926 -1.781,-0.465 -2.557,-0.033 -2.325,1.284 -1.083,-0.079 -2.103,-0.146 -3.059,-0.198 -0.221,-0.019 -0.431,-0.025 -0.632,-0.031 -3.366,-0.168 -5.901,-0.137 -7.607,0.103 -2.277,0.309 -3.58,0.509 -3.898,0.586 -0.315,0.076 -0.552,0.132 -0.705,0.175 -0.072,0.014 -0.135,0.039 -0.206,0.053 -0.358,0.086 -0.701,0.187 -1.039,0.316 -0.348,0.128 -0.694,0.285 -1.017,0.475 -0.178,0.097 -0.341,0.217 -0.48,0.37 -0.24,0.248 -0.308,0.543 -0.207,0.875 0.05,0.166 0.163,0.297 0.333,0.401 0.163,0.093 0.39,0.2 0.684,0.313 0.293,0.111 0.514,0.168 0.658,0.18 -1.715,0.383 -3.144,1.224 -4.302,2.53 -0.252,0.265 -0.481,0.554 -0.678,0.86 -0.187,0.268 -0.364,0.539 -0.552,0.817 -0.191,0.297 -0.276,0.626 -0.233,0.985 0.024,0.16 0.083,0.309 0.182,0.436 0.237,0.275 0.519,0.489 0.854,0.63 0.166,0.076 0.333,0.15 0.498,0.234 0.231,0.089 0.465,0.177 0.694,0.267 0.33,0.12 0.682,0.243 1.041,0.351 0.269,0.068 0.542,0.146 0.803,0.222 0.13,0.02 0.261,0.047 0.396,0.087 3.278,0.816 6.375,1.158 9.274,1.042 2.092,-4.75 5.696,-5.931 10.817,-3.555 0.229,0.107 0.455,0.223 0.677,0.359 0.009,0.001 0.009,0.001 0.016,0.013 l 7.335,4.385 c 0.173,0.096 0.343,0.191 0.506,0.283 0.201,0.103 0.399,0.203 0.6,0.306 0.766,0.33 1.553,0.569 2.383,0.709 0.91,0.091 1.831,0.078 2.762,-0.058 l 6.575,-0.975 c 0.093,-0.018 0.194,-0.037 0.292,-0.053 1.449,-0.111 2.906,-0.095 4.371,0.049 0.446,0.046 0.878,0.15 1.319,0.294 0.062,0.022 0.117,0.034 0.18,0.058 2.99,1.026 3.76,3.34 2.305,6.95 1.624,0.903 3.312,1.569 5.06,2.005 0.797,0.201 1.631,0.354 2.508,0.456 0.58,0.047 1.149,-0.031 1.718,-0.228 0.062,-0.025 0.119,-0.061 0.175,-0.097 0.215,-0.176 0.393,-0.408 0.532,-0.716 0.146,-0.442 0.202,-0.982 0.165,-1.628 -0.125,-2.058 -0.8,-3.693 -2.016,-4.896 0.287,0.053 0.557,0.103 0.811,0.138 0.145,0.002 0.292,-0.005 0.425,-0.043 0.119,-0.013 0.223,-0.087 0.322,-0.22 0.188,-0.269 0.242,-0.566 0.189,-0.878 -0.027,-0.188 -0.086,-0.355 -0.158,-0.507 -0.135,-0.292 -0.279,-0.555 -0.446,-0.795 -0.16,-0.237 -0.335,-0.449 -0.529,-0.656 -0.031,-0.035 -0.06,-0.081 -0.099,-0.117 -0.086,-0.096 -0.208,-0.23 -0.372,-0.41 -0.086,-0.095 -0.317,-0.301 -0.684,-0.622 -0.361,-0.32 -0.863,-0.749 -1.496,-1.282 -1.275,-1.078 -3.589,-2.354 -6.926,-3.812 0.781,-1.108 0.268,-1.819 -1.547,-2.135 -2.478,-0.311 -5.53,0.1 -9.187,1.251"
         id="path411" />
      <path
         inkscape:connector-curvature="0"
         style="fill:#b0b6d5"
         d="m 901.854,160.779 c 0.385,-4.302 -1.219,-6.375 -4.817,-6.218 l -20.238,-0.023 c -2.896,-0.127 -4.713,0.954 -5.438,3.262 -0.163,0.599 -0.296,1.311 -0.402,2.147 -0.085,0.446 -0.162,1.282 -0.229,2.527 -0.187,3.981 -0.543,7.695 -1.078,11.153 -0.395,4.293 1.218,6.356 4.839,6.199 l 20.235,0.024 c 3.571,0.184 5.562,-1.884 5.954,-6.189 l 1.174,-12.882 z m -5.244,-1.563 c 0.485,0.142 0.674,0.656 0.588,1.559 l -1.175,12.881 c -0.077,0.884 -0.372,1.405 -0.877,1.557 l -20.234,-0.024 c -0.495,-0.143 -0.701,-0.655 -0.626,-1.558 l 1.194,-12.882 c 0.087,-0.912 0.39,-1.435 0.913,-1.557 l 20.217,0.024 z"
         id="path413" />
      <path
         inkscape:connector-curvature="0"
         style="fill:none;stroke:#737a91;stroke-width:1.51999998;stroke-linecap:round;stroke-linejoin:round;stroke-miterlimit:10"
         d="m 896.61,159.216 -20.217,-0.024 c -0.523,0.123 -0.826,0.646 -0.913,1.557 l -1.195,12.882 c -0.074,0.903 0.132,1.416 0.627,1.558 l 20.234,0.024 c 0.505,-0.152 0.8,-0.674 0.877,-1.558 l 1.175,-12.881 c 0.086,-0.902 -0.102,-1.416 -0.588,-1.558 z m 5.244,1.563 -1.175,12.881 c -0.393,4.305 -2.383,6.373 -5.954,6.189 l -20.235,-0.024 c -3.621,0.157 -5.233,-1.906 -4.842,-6.199 0.538,-3.458 0.895,-7.172 1.081,-11.153 0.067,-1.245 0.145,-2.081 0.229,-2.527 0.106,-0.836 0.239,-1.548 0.402,-2.147 0.725,-2.308 2.541,-3.389 5.438,-3.262 l 20.238,0.023 c 3.599,-0.156 5.202,1.918 4.818,6.219 z"
         id="path415" />
      <rect
         x="881.87903"
         y="148.535"
         transform="matrix(-0.0011,1,-1,-0.0011,1043.5807,-730.4678)"
         style="fill:#c6cee3"
         width="9.4619999"
         height="14.859"
         id="rect417" />
      <rect
         x="879.18103"
         y="151.233"
         transform="matrix(1,0.0011,-0.0011,1,0.1697,-0.9613)"
         style="fill:none;stroke:#737a91;stroke-width:1.51999998;stroke-linecap:round;stroke-linejoin:round;stroke-miterlimit:10"
         width="14.859"
         height="9.4619999"
         id="rect419" />
      <path
         inkscape:connector-curvature="0"
         style="fill:#b0b6d5"
         d="m 959.262,134.795 c -0.751,-0.656 -1.661,-0.98 -2.734,-0.981 l -2.831,-0.032 c -2.071,0.16 -4.248,0.261 -6.538,0.287 -1.168,0.018 -2.355,0.025 -3.571,0.024 -8.104,-0.152 -13.482,-0.271 -16.113,-0.342 l -23.504,-0.283 c -5.056,-0.111 -10.746,-0.051 -17.084,0.17 -1.442,0.046 -2.914,0.11 -4.425,0.175 -1.939,0.045 -3.717,0.043 -5.341,-0.005 l -2.642,-0.081 -0.377,-0.009 c -1.067,-10e-4 -1.99,0.32 -2.76,0.974 -0.521,0.467 -0.856,1.006 -1.018,1.606 -0.067,0.255 -0.106,0.731 -0.107,1.443 l -0.003,1.719 c -0.001,1.074 0.369,1.986 1.122,2.738 0.766,0.761 1.859,1.181 3.266,1.26 h 0.009 c 3.086,0.182 6.172,0.253 9.281,0.199 1.397,-0.026 3.877,-0.119 7.451,-0.294 4.738,-0.081 9.433,-0.076 14.078,0.016 l 19.164,0.022 c 2.906,0.165 5.813,0.158 8.723,-0.037 2.791,-0.025 5.585,-0.08 8.378,-0.143 2.86,-0.073 5.72,-0.051 8.578,0.057 1.142,0.03 2.281,0.059 3.422,0.09 0.22,0 0.447,0 0.666,0.01 0.569,0.02 1.215,0.04 1.937,0.059 h 0.047 l 0.181,0 c 1.073,10e-4 1.987,-0.377 2.736,-1.136 0.763,-0.75 1.144,-1.662 1.144,-2.734 l 0.004,-2.347 c -10e-4,-0.941 -0.38,-1.749 -1.139,-2.425"
         id="path421" />
      <path
         inkscape:connector-curvature="0"
         style="fill:#c6cee3"
         d="m 954.352,143.378 c -0.219,-0.009 -0.446,-0.009 -0.668,-0.01 -1.139,-0.031 -2.278,-0.06 -3.42,-0.09 -2.858,-0.108 -5.718,-0.13 -8.578,-0.056 -2.793,0.061 -5.587,0.116 -8.378,0.143 -2.908,0.194 -5.816,0.201 -8.723,0.036 l -19.164,-0.022 c -4.646,-0.091 -9.34,-0.096 -14.078,-0.016 -3.574,0.176 -6.054,0.268 -7.451,0.294 -3.109,0.054 -6.195,-0.017 -9.281,-0.199 0.102,0.968 0.188,2.062 0.243,3.267 l 0.053,3.697 c 0,0.124 0,0.256 -0.009,0.39 -0.041,1.71 -0.063,3.344 -0.055,4.893 l 0.216,9.538 c 0.057,0.789 0.114,1.55 0.18,2.271 l 0.073,1.579 c 0.16,2.631 0.326,5.102 0.504,7.391 0.038,0.447 0.076,0.883 0.113,1.311 0.084,1.111 0.159,2.251 0.224,3.421 0.026,0.504 0.038,1.016 0.037,1.539 v 0.361 c -0.022,1.006 -0.07,2.004 -0.154,3.001 -0.032,0.295 -0.051,0.58 -0.079,0.855 v 0.056 c -0.104,0.847 -0.201,1.703 -0.287,2.546 -0.126,1.074 -0.212,2.147 -0.24,3.231 -0.013,0.131 -0.014,0.265 -0.014,0.399 -0.008,0.238 -0.001,0.472 0.021,0.711 0.008,0.257 0.038,0.514 0.074,0.771 0.2,1.178 0.491,2.347 0.871,3.497 0.181,0.58 0.389,1.168 0.644,1.748 0.15,0.353 0.521,1.872 1.113,4.562 0.247,0.865 0.314,1.663 0.199,2.394 -0.114,0.713 -0.402,1.36 -0.867,1.938 -0.267,0.341 -0.476,0.769 -0.63,1.272 -0.276,0.902 -0.381,2.08 -0.307,3.534 0.026,0.598 0.083,1.254 0.169,1.957 l 1.062,18.718 -0.003,2.707 c 0.227,0.029 0.455,0.067 0.674,0.115 0.684,0.172 1.368,0.354 2.041,0.553 0.714,0.03 1.418,0.05 2.127,0.078 0.599,0.068 1.208,0.106 1.808,0.117 0.056,0 0.112,0 0.169,0.01 0.665,0.011 1.333,0.011 2.005,0.002 0.609,-0.008 1.216,-0.027 1.824,-0.055 0.666,-0.028 1.32,-0.045 1.967,-0.054 0.618,-0.009 1.236,0.001 1.845,0.031 0.598,0.028 1.184,0.048 1.765,0.049 0.693,-0.008 1.388,-0.027 2.1,-0.065 0.447,-0.027 0.896,-0.046 1.342,-0.074 1.511,-0.103 2.745,-0.291 3.707,-0.556 1.575,-0.445 3.552,-0.119 5.927,0.984 0.503,0.24 1.032,0.506 1.574,0.811 3.07,1.733 6.137,1.927 9.197,0.59 0.246,-0.103 0.505,-0.208 0.761,-0.293 2.938,-0.872 5.883,-1.646 8.859,-2.317 0.121,-0.038 0.236,-0.076 0.359,-0.113 0.352,-0.114 0.713,-0.209 1.064,-0.274 0.722,-0.142 1.442,-0.188 2.165,-0.14 0.219,0.019 0.447,0.057 0.666,0.114 0.721,0.144 1.434,0.381 2.147,0.696 0.443,0.143 0.902,0.239 1.366,0.306 1.967,0.364 3.03,0.555 3.192,0.583 1.292,0.192 2.317,0.289 3.068,0.29 1.243,10e-4 2.537,-0.055 3.856,-0.158 0.809,-0.065 2.177,-0.197 4.088,-0.414 l 3.192,-0.101 0.003,-2.432 c -0.009,-0.305 -0.008,-0.609 -0.008,-0.902 0.044,-7.867 0.376,-15.848 0.996,-23.941 0.439,-4.275 0.682,-7.514 0.731,-9.718 0.021,-0.979 0.004,-1.757 -0.053,-2.328 -0.095,-0.979 -0.149,-1.796 -0.179,-2.452 -0.027,-0.58 -0.019,-1.027 0.01,-1.349 0.057,-0.513 0.204,-1.083 0.421,-1.708 0.077,-0.21 0.162,-0.429 0.248,-0.646 1.037,-2.193 1.637,-3.865 1.801,-5.015 0.058,-0.436 0.058,-0.798 -0.007,-1.083 -0.274,-1.074 -0.646,-1.929 -1.1,-2.547 -0.399,-0.522 -0.607,-1.72 -0.632,-3.601 -0.01,-0.408 0.001,-0.836 0.011,-1.301 l 0.078,-2.3 v -0.075 c -0.007,-9.587 0.335,-19.021 1.021,-28.311 0.098,-1.331 0.204,-2.859 0.328,-4.58 -0.72,-0.021 -1.365,-0.042 -1.934,-0.061"
         id="path423" />
      <polygon
         style="fill:#b0b6d5"
         points="874.259,133.718 874.102,133.718 874.479,133.728 "
         id="polygon425" />
      <path
         inkscape:connector-curvature="0"
         style="fill:#c6cee3"
         d="m 874.854,146.724 c -0.056,-1.205 -0.142,-2.298 -0.243,-3.266 h -0.009 c 0.102,1.052 0.188,2.099 0.242,3.134 0,0.038 -0.001,0.085 0.01,0.132"
         id="path427" />
      <path
         inkscape:connector-curvature="0"
         style="fill:#b0b6d5"
         d="m 907.06,238.148 c -2.375,-1.103 -4.352,-1.429 -5.927,-0.984 -0.962,0.265 -2.196,0.454 -3.707,0.557 -0.446,0.027 -0.895,0.045 -1.342,0.074 -0.712,0.037 -1.406,0.056 -2.1,0.064 -0.579,-0.001 -1.167,-0.02 -1.765,-0.05 -0.608,-0.029 -1.227,-0.039 -1.845,-0.03 -0.646,0.01 -1.301,0.026 -1.967,0.055 -0.608,0.028 -1.215,0.046 -1.825,0.055 -0.671,0.009 -1.339,0.008 -2.004,-0.003 -0.057,-0.01 -0.113,-0.01 -0.169,-0.01 -0.6,-0.01 -1.209,-0.048 -1.808,-0.115 -0.709,-0.03 -1.413,-0.05 -2.127,-0.08 -0.37,0.008 -0.729,0.028 -1.09,0.037 -0.544,0.027 -1.086,0.046 -1.626,0.074 -0.145,0.01 -0.295,0.01 -0.448,0.019 -0.161,0.009 -0.322,0.009 -0.484,0.009 -1.529,0.748 -2.302,1.973 -2.303,3.684 l -0.003,2.944 c -0.002,1.074 0.33,1.986 1.004,2.738 0.693,0.761 1.527,1.142 2.488,1.144 l 74.332,0.086 c 0.98,0.001 1.797,-0.378 2.472,-1.139 0.686,-0.749 1.029,-1.661 1.029,-2.733 l 0.004,-2.946 c 0.002,-1.074 -0.341,-1.995 -1.023,-2.755 -0.614,-0.686 -1.347,-1.058 -2.21,-1.116 l -3.192,0.101 c -1.911,0.217 -3.279,0.348 -4.088,0.414 -1.319,0.103 -2.613,0.159 -3.856,0.157 -0.751,-0.001 -1.776,-0.097 -3.068,-0.288 -0.162,-0.028 -1.226,-0.22 -3.192,-0.584 -0.464,-0.067 -0.923,-0.163 -1.366,-0.306 -0.714,-0.314 -1.427,-0.552 -2.147,-0.696 -0.219,-0.056 -0.447,-0.096 -0.666,-0.114 -0.723,-0.047 -1.443,-0.002 -2.165,0.14 -0.352,0.066 -0.713,0.161 -1.063,0.274 -0.124,0.038 -0.239,0.076 -0.36,0.114 -2.977,0.671 -5.921,1.446 -8.859,2.317 -0.256,0.085 -0.515,0.19 -0.761,0.293 -3.061,1.337 -6.127,1.144 -9.197,-0.589 -0.544,-0.306 -1.074,-0.572 -1.576,-0.812"
         id="path429" />
      <path
         inkscape:connector-curvature="0"
         style="fill:none;stroke:#737a91;stroke-width:1.51999998;stroke-linecap:round;stroke-linejoin:round;stroke-miterlimit:10"
         d="m 874.61,143.458 h -0.009 c -1.406,-0.078 -2.5,-0.498 -3.268,-1.259 -0.751,-0.751 -1.121,-1.664 -1.12,-2.738 l 0.003,-1.72 c 10e-4,-0.711 0.04,-1.187 0.107,-1.442 0.16,-0.599 0.496,-1.14 1.018,-1.605 0.77,-0.656 1.692,-0.977 2.76,-0.975 l 0.377,0.009 2.642,0.08 c 1.624,0.049 3.401,0.051 5.34,0.005 1.512,-0.064 2.983,-0.128 4.426,-0.176 6.338,-0.22 12.028,-0.28 17.084,-0.169 l 23.504,0.283 c 2.631,0.071 8.01,0.189 16.113,0.342 1.216,0.001 2.403,-0.006 3.571,-0.024 2.29,-0.026 4.467,-0.128 6.538,-0.287 l 2.831,0.032 c 1.073,0.001 1.983,0.325 2.734,0.981 0.759,0.674 1.139,1.483 1.138,2.424 l -0.004,2.346 c 0,1.073 -0.382,1.985 -1.144,2.735 -0.749,0.76 -1.663,1.137 -2.736,1.136 l -0.181,0 h -0.047 m 10e-4,0 c -0.722,-0.019 -1.367,-0.038 -1.937,-0.059 -0.219,-0.008 -0.448,-0.008 -0.668,-0.009 -1.139,-0.032 -2.278,-0.061 -3.42,-0.091 -2.858,-0.107 -5.718,-0.13 -8.578,-0.056 -2.793,0.062 -5.587,0.117 -8.38,0.142 -2.907,0.196 -5.814,0.202 -8.721,0.038 l -19.164,-0.022 c -4.646,-0.092 -9.34,-0.097 -14.078,-0.016 -3.574,0.177 -6.054,0.268 -7.451,0.294 -3.109,0.055 -6.195,-0.015 -9.281,-0.199 m 78.007,94.269 0.003,-2.432 c -0.009,-0.305 -0.008,-0.607 -0.008,-0.903 0.044,-7.866 0.376,-15.846 0.996,-23.94 0.438,-4.275 0.682,-7.514 0.731,-9.718 0.021,-0.979 0.004,-1.757 -0.053,-2.327 -0.095,-0.98 -0.149,-1.797 -0.179,-2.453 -0.028,-0.58 -0.019,-1.027 0.01,-1.349 0.057,-0.514 0.204,-1.083 0.421,-1.71 0.077,-0.209 0.162,-0.428 0.248,-0.645 1.037,-2.194 1.637,-3.866 1.801,-5.015 0.058,-0.437 0.058,-0.798 -0.007,-1.083 -0.274,-1.074 -0.646,-1.93 -1.1,-2.547 -0.399,-0.523 -0.607,-1.722 -0.632,-3.601 -0.01,-0.409 0.001,-0.838 0.011,-1.304 l 0.078,-2.298 v -0.076 c -0.007,-9.587 0.335,-19.02 1.021,-28.311 0.098,-1.331 0.204,-2.859 0.328,-4.58 m -82.027,-9.717 2.729,-0.016 m -2.378,9.756 c 0.102,0.968 0.188,2.062 0.243,3.267 l 0.052,3.696 c 0,0.124 0,0.255 -0.008,0.389 -0.041,1.71 -0.063,3.344 -0.055,4.893 l 0.216,9.538 c 0.057,0.788 0.114,1.55 0.18,2.271 l 0.073,1.579 c 0.16,2.631 0.326,5.102 0.504,7.392 0.038,0.446 0.076,0.883 0.113,1.311 0.084,1.111 0.159,2.251 0.224,3.421 0.026,0.503 0.038,1.016 0.037,1.539 v 0.362 c -0.022,1.006 -0.07,2.003 -0.154,3.001 -0.03,0.293 -0.052,0.579 -0.079,0.854 v 0.056 c -0.104,0.848 -0.201,1.703 -0.287,2.546 -0.126,1.074 -0.212,2.148 -0.241,3.232 -0.012,0.131 -0.012,0.266 -0.012,0.397 -0.009,0.238 0,0.475 0.02,0.713 0.009,0.257 0.038,0.514 0.074,0.771 0.2,1.177 0.49,2.347 0.871,3.497 0.181,0.58 0.389,1.169 0.644,1.748 0.15,0.352 0.521,1.872 1.113,4.562 0.247,0.865 0.314,1.664 0.199,2.394 -0.114,0.713 -0.402,1.359 -0.867,1.938 -0.268,0.342 -0.476,0.77 -0.63,1.272 -0.276,0.903 -0.381,2.081 -0.307,3.534 0.026,0.599 0.083,1.255 0.169,1.958 l 1.062,18.717 -0.003,2.708 m 74.856,0.713 -3.192,0.101 c -1.911,0.217 -3.279,0.348 -4.088,0.414 -1.319,0.103 -2.613,0.159 -3.856,0.157 -0.751,-0.001 -1.776,-0.097 -3.068,-0.289 -0.162,-0.028 -1.226,-0.219 -3.192,-0.583 -0.464,-0.067 -0.923,-0.163 -1.366,-0.306 -0.714,-0.313 -1.427,-0.552 -2.147,-0.696 -0.219,-0.057 -0.447,-0.096 -0.666,-0.114 -0.723,-0.048 -1.443,-0.002 -2.165,0.14 -0.352,0.065 -0.713,0.16 -1.064,0.273 -0.123,0.038 -0.238,0.077 -0.359,0.113 -2.977,0.671 -5.923,1.448 -8.859,2.317 -0.256,0.085 -0.515,0.191 -0.761,0.294 -3.061,1.337 -6.127,1.144 -9.197,-0.589 -0.542,-0.305 -1.071,-0.571 -1.574,-0.811 -2.375,-1.103 -4.352,-1.43 -5.927,-0.984 -0.962,0.265 -2.196,0.454 -3.707,0.557 -0.446,0.027 -0.895,0.046 -1.342,0.074 -0.712,0.037 -1.406,0.056 -2.1,0.064 -0.579,0 -1.167,-0.02 -1.765,-0.049 -0.608,-0.03 -1.227,-0.04 -1.845,-0.031 -0.646,0.01 -1.301,0.027 -1.967,0.055 -0.608,0.028 -1.215,0.046 -1.824,0.055 -0.672,0.01 -1.34,0.009 -2.005,-0.003 -0.057,-0.009 -0.113,-0.009 -0.169,-0.009 -0.6,-0.01 -1.209,-0.048 -1.808,-0.115 -0.709,-0.03 -1.414,-0.049 -2.127,-0.079 -0.369,0.008 -0.729,0.027 -1.09,0.037 -0.544,0.027 -1.086,0.046 -1.626,0.074 -0.145,0.01 -0.295,0.01 -0.448,0.019 -0.161,0.009 -0.322,0.009 -0.484,0.009 -1.529,0.748 -2.302,1.973 -2.303,3.684 l -0.003,2.945 c -0.002,1.073 0.33,1.986 1.004,2.737 0.693,0.761 1.527,1.142 2.488,1.144 l 74.332,0.086 c 0.98,0.001 1.797,-0.378 2.472,-1.139 0.686,-0.749 1.029,-1.661 1.029,-2.733 l 0.004,-2.946 c 0.002,-1.074 -0.341,-1.995 -1.023,-2.755 -0.616,-0.688 -1.349,-1.06 -2.212,-1.118 z"
         id="path431" />
      <path
         inkscape:connector-curvature="0"
         style="fill:#b0b6d5"
         d="m 947.503,148.234 h -0.017 c -1.143,-0.03 -2.131,0.891 -2.97,2.752 -0.885,1.831 -1.354,4.056 -1.394,6.667 l -0.188,30.593 c -0.59,1.339 -0.992,2.887 -1.193,4.634 -0.096,0.779 -0.152,1.598 -0.163,2.453 -0.106,2.202 0.166,3.942 0.811,5.206 l -0.75,24.511 c -0.041,2.308 0.309,4.284 1.038,5.948 0.718,1.636 1.621,2.454 2.695,2.454 h 0.019 c 1.036,0.001 1.967,-0.815 2.777,-2.447 0.799,-1.662 1.229,-3.637 1.299,-5.946 l 0.356,-28.919 c -0.561,-0.447 -0.854,-1.531 -0.888,-3.25 -0.012,-0.238 -0.012,-0.486 0.001,-0.742 l 1.28,-6.288 1.152,-28.196 c 0.05,-2.612 -0.289,-4.835 -1.036,-6.67 -0.747,-1.864 -1.688,-2.786 -2.829,-2.76"
         id="path433" />
      <path
         inkscape:connector-curvature="0"
         style="fill:#b0b6d5"
         d="m 936.937,150.977 c -0.769,-1.863 -1.727,-2.785 -2.867,-2.758 h -0.02 c -1.14,-0.03 -2.119,0.892 -2.927,2.751 -0.841,1.833 -1.278,4.056 -1.321,6.668 l -0.385,37.566 -0.863,6.802 c -0.162,0.836 -0.03,2.27 0.414,4.313 l 0.035,18.716 c -0.042,2.309 0.317,4.286 1.076,5.949 0.718,1.636 1.621,2.453 2.715,2.454 h 0.018 c 1.026,0.001 1.948,-0.813 2.76,-2.447 0.771,-1.662 1.19,-3.638 1.26,-5.947 l -0.069,-22.326 c -0.646,-1.492 -0.87,-3.203 -0.678,-5.112 l 1.319,-7.371 0.627,-32.586 c 0.031,-2.614 -0.339,-4.837 -1.094,-6.672"
         id="path435" />
      <path
         inkscape:connector-curvature="0"
         style="fill:#b0b6d5"
         d="m 923.862,150.961 c -0.785,-1.863 -1.734,-2.786 -2.864,-2.758 h -0.021 c -1.14,-0.031 -2.118,0.89 -2.928,2.752 -0.839,1.833 -1.259,4.054 -1.263,6.669 l -0.341,48.585 0.831,3.936 c 0.198,0.9 0.111,2.65 -0.273,5.261 l -0.371,9.615 c -10e-4,2.309 0.385,4.284 1.151,5.948 0.75,1.635 1.653,2.453 2.715,2.454 h 0.019 c 1.064,0.002 1.979,-0.813 2.739,-2.447 0.763,-1.662 1.154,-3.638 1.187,-5.946 l 0.59,-67.396 c 0.013,-2.614 -0.374,-4.838 -1.171,-6.673"
         id="path437" />
      <path
         inkscape:connector-curvature="0"
         style="fill:#b0b6d5"
         d="m 907.979,148.188 c -1.147,-0.03 -2.12,0.892 -2.907,2.752 -0.803,1.833 -1.185,4.055 -1.149,6.668 l 0.521,7.695 -0.345,2.469 0.682,36.332 0.623,3.573 c 0.444,1.607 0.126,3.972 -0.939,7.086 l -0.051,10.243 c -0.015,2.309 0.375,4.285 1.171,5.949 0.758,1.635 1.679,2.454 2.751,2.454 h 0.02 c 1.055,0.001 1.958,-0.814 2.722,-2.447 0.761,-1.661 1.144,-3.638 1.148,-5.946 l 0.182,-11.059 0.44,-3.667 -0.679,-2.528 -0.057,-50.145 c 0.004,-2.612 -0.404,-4.836 -1.207,-6.67 -0.798,-1.864 -1.766,-2.787 -2.906,-2.759 h -0.02 z"
         id="path439" />
      <path
         inkscape:connector-curvature="0"
         style="fill:#b0b6d5"
         d="m 895.4,148.173 h -0.019 c -1.149,-0.029 -2.118,0.892 -2.891,2.752 -0.791,1.833 -1.154,4.055 -1.09,6.667 l 1.492,7.432 -1.07,3.436 0.932,33.863 c 0.653,2.595 0.981,5.104 0.979,7.526 l -0.858,3.855 -0.375,11.287 c 0.025,2.309 0.442,4.287 1.249,5.949 0.784,1.636 1.695,2.454 2.75,2.456 h 0.021 c 1.062,0.001 1.965,-0.815 2.699,-2.449 0.733,-1.662 1.098,-3.638 1.072,-5.946 l -0.485,-9.179 c -0.025,-0.977 0.041,-1.729 0.192,-2.26 0.145,-0.531 0.258,-0.882 0.363,-1.063 0.086,-0.18 0.182,-0.391 0.267,-0.627 0.276,-0.723 0.409,-1.454 0.4,-2.205 10e-4,-0.532 -0.046,-1.054 -0.149,-1.577 -0.16,-0.836 -0.369,-1.663 -0.623,-2.49 l -0.377,-2.375 -0.417,-34.164 c 0.762,-1.795 1.19,-3.124 1.277,-3.97 l -0.545,-2.984 -0.567,-4.504 c -0.045,-2.613 -0.479,-4.836 -1.303,-6.671 -0.834,-1.862 -1.808,-2.786 -2.924,-2.759"
         id="path441" />
      <path
         inkscape:connector-curvature="0"
         style="fill:#b0b6d5"
         d="m 882.766,148.159 h -0.018 c -1.149,-0.031 -2.102,0.891 -2.835,2.752 -0.771,1.833 -1.134,3.656 -1.091,5.471 -0.047,0.304 -0.067,0.598 -0.039,0.893 0.086,0.684 0.333,1.293 0.722,1.825 0.424,0.581 0.72,1.246 0.871,1.978 0.066,0.293 0.141,0.711 0.227,1.272 -0.334,0.902 -0.64,1.929 -0.916,3.096 l -0.438,1.769 1.628,36.027 1.497,4.03 c 0.521,1.511 0.367,2.927 -0.462,4.256 -0.693,0.807 -1.094,2.449 -1.183,4.92 0.262,2.622 0.213,5.462 -0.144,8.53 0.046,2.309 0.48,4.286 1.286,5.95 0.805,1.634 1.753,2.453 2.828,2.454 h 0.019 c 1.035,0.001 1.929,-0.815 2.662,-2.448 0.717,-1.662 1.049,-3.639 1.016,-5.948 L 888.2,214.497 c 0.715,-3.104 0.937,-5.272 0.671,-6.497 l -0.738,-3.839 -1.572,-35.839 c -0.008,-0.38 0.135,-0.827 0.439,-1.331 0.304,-0.501 0.637,-1.366 1.01,-2.582 0.085,-0.342 0.163,-0.598 0.229,-0.779 l -1.114,-4.978 c -0.114,-0.58 -0.18,-1.236 -0.188,-1.958 0.049,-2.015 -0.348,-3.943 -1.19,-5.778 -0.864,-1.861 -1.851,-2.784 -2.981,-2.757"
         id="path443" />
      <path
         inkscape:connector-curvature="0"
         style="fill:#b0b6d5"
         d="m 958.79,167.06 -0.24,-6.689 c -0.299,-4.303 -2.244,-6.376 -5.826,-6.219 l -20.236,-0.024 c -2.004,-0.088 -3.394,0.471 -4.163,1.687 -0.162,0.37 -0.306,0.741 -0.421,1.12 -0.123,0.429 -0.198,0.875 -0.209,1.331 -0.011,0.607 0.017,1.207 0.093,1.805 0.076,0.561 0.122,1.112 0.131,1.654 0.008,0.759 0.036,1.51 0.073,2.26 0.037,0.685 0.082,1.369 0.132,2.053 0.007,0.161 0.027,0.332 0.037,0.494 l 0.578,7.448 c 0.076,0.837 0.237,1.655 0.474,2.453 0.064,0.199 0.133,0.408 0.209,0.608 0.824,1.453 2.134,2.253 3.95,2.381 2.509,-0.074 5.015,-0.024 7.522,0.141 1.131,0.01 2.366,0.069 3.705,0.155 1.91,0.088 3.933,0.119 6.062,0.084 0.959,-0.075 1.929,-0.14 2.907,-0.205 0.456,-0.039 0.922,-0.085 1.388,-0.131 0.408,-0.039 0.807,-0.075 1.216,-0.113 2.433,-0.5 3.527,-2.532 3.275,-6.095 l -0.657,-6.198 z m -5.749,-8.253 c 0.504,0.143 0.787,0.657 0.854,1.559 0.538,3.715 0.838,7.668 0.878,11.878 0.164,1.102 0.047,1.91 -0.344,2.431 -0.028,0.039 -0.057,0.067 -0.096,0.097 -4.189,0.593 -7.866,0.788 -11.021,0.594 -3.155,-0.194 -5.368,-0.311 -6.63,-0.35 -1.283,-0.049 -2.252,-0.145 -2.908,-0.271 l -0.399,-0.38 c -0.158,-0.266 -0.265,-0.646 -0.303,-1.14 l -0.749,-8.514 -0.148,-4.371 c -0.064,-0.912 0.145,-1.434 0.63,-1.557 l 20.236,0.024 z"
         id="path445" />
      <path
         inkscape:connector-curvature="0"
         style="fill:none;stroke:#737a91;stroke-width:1.51999998;stroke-linecap:round;stroke-linejoin:round;stroke-miterlimit:10"
         d="m 958.55,160.37 c -0.299,-4.303 -2.244,-6.376 -5.826,-6.219 l -20.236,-0.024 c -2.004,-0.088 -3.394,0.471 -4.163,1.687 -0.162,0.37 -0.306,0.741 -0.421,1.12 -0.123,0.429 -0.198,0.875 -0.209,1.331 -0.011,0.607 0.017,1.207 0.093,1.805 0.076,0.561 0.122,1.112 0.131,1.654 0.008,0.759 0.036,1.51 0.073,2.26 0.037,0.685 0.082,1.369 0.132,2.053 0.007,0.161 0.027,0.332 0.037,0.494 l 0.578,7.448 c 0.076,0.837 0.237,1.655 0.474,2.453 0.064,0.199 0.133,0.408 0.209,0.608 0.824,1.453 2.134,2.253 3.95,2.381 2.509,-0.074 5.015,-0.024 7.522,0.141 1.131,0.01 2.366,0.069 3.705,0.155 1.91,0.088 3.933,0.119 6.062,0.084 0.959,-0.075 1.929,-0.14 2.907,-0.205 0.456,-0.039 0.922,-0.085 1.388,-0.131 0.408,-0.039 0.807,-0.075 1.216,-0.113 2.433,-0.5 3.527,-2.532 3.275,-6.095 l -0.657,-6.196 -0.24,-6.691 z m -5.509,-1.563 -20.236,-0.023 c -0.485,0.123 -0.694,0.646 -0.63,1.557 l 0.148,4.371 0.749,8.514 c 0.038,0.494 0.145,0.874 0.303,1.14 l 0.399,0.38 c 0.656,0.125 1.625,0.221 2.908,0.271 1.262,0.039 3.475,0.155 6.63,0.35 3.154,0.193 6.831,-10e-4 11.021,-0.594 0.039,-0.03 0.067,-0.058 0.096,-0.097 0.391,-0.521 0.508,-1.33 0.344,-2.431 -0.04,-4.209 -0.34,-8.163 -0.878,-11.878 -0.067,-0.903 -0.35,-1.417 -0.854,-1.56 z"
         id="path447" />
      <path
         inkscape:connector-curvature="0"
         style="fill:#c6cee3"
         d="m 950.596,153.389 c -0.036,-0.884 -0.579,-1.341 -1.633,-1.352 l -7.105,-0.046 c -1.321,-0.059 -2.548,-0.069 -3.668,-0.042 -1.415,-0.029 -2.252,0.236 -2.499,0.796 -0.143,1.263 -0.175,2.715 -0.072,4.352 l 0.035,4.256 c 0.151,0.123 0.293,0.219 0.436,0.266 0.654,0.115 1.301,0.153 1.938,0.115 l 0.151,0 h 0.266 c 2.842,0.014 5.606,0.035 8.304,0.048 l 3.479,0.062 c 0.295,-0.713 0.431,-1.415 0.422,-2.128 l -0.054,-6.327 z"
         id="path449" />
      <path
         inkscape:connector-curvature="0"
         style="fill:none;stroke:#737a91;stroke-width:1.51999998;stroke-linecap:round;stroke-linejoin:round;stroke-miterlimit:10"
         d="m 948.963,152.037 -7.105,-0.046 c -1.321,-0.058 -2.548,-0.069 -3.668,-0.043 -1.415,-0.029 -2.252,0.236 -2.499,0.796 -0.143,1.263 -0.175,2.716 -0.072,4.352 l 0.035,4.256 c 0.151,0.122 0.293,0.218 0.436,0.266 0.654,0.114 1.301,0.153 1.938,0.116 l 0.151,0 h 0.266 c 2.842,0.013 5.606,0.036 8.304,0.047 l 3.479,0.062 c 0.295,-0.711 0.431,-1.414 0.422,-2.127 l -0.052,-6.328 c -0.038,-0.884 -0.581,-1.34 -1.635,-1.351 z"
         id="path451" />
      <path
         inkscape:connector-curvature="0"
         style="fill:#c6cee3"
         d="m 935.715,31.597 c -0.384,-0.569 -0.995,-0.998 -1.83,-1.271 -0.432,-0.146 -0.972,-0.292 -1.611,-0.417 -1.322,-0.287 -2.489,-0.671 -3.49,-1.131 -0.307,-0.143 -0.625,-0.304 -0.958,-0.47 -0.323,-0.174 -0.633,-0.354 -0.943,-0.546 -1.206,-0.794 -2.516,-1.338 -3.932,-1.643 -0.988,-0.217 -1.796,-0.324 -2.409,-0.329 -0.173,-0.002 -0.348,0.004 -0.535,0.028 -0.446,0.074 -0.915,0.258 -1.405,0.555 -0.107,0.065 -0.208,0.134 -0.299,0.205 -0.527,0.405 -0.872,0.948 -1.05,1.627 -1.238,3.929 -2.196,7.689 -2.872,11.286 -0.199,0.8 -0.091,1.541 0.343,2.245 0.406,0.688 1.004,1.133 1.805,1.326 0.802,0.192 1.545,0.077 2.251,-0.343 0.686,-0.425 1.131,-1.037 1.331,-1.836 0.301,-2.541 1.047,-5.55 2.229,-9.029 0.223,-0.661 0.458,-1.33 0.713,-2.014 -0.255,0.685 -0.49,1.354 -0.713,2.014 1.987,0.436 3.614,0.933 4.875,1.487 0.86,0.377 1.724,0.754 2.585,1.13 0.524,0.219 1.041,0.437 1.568,0.658 -0.527,-0.221 -1.044,-0.439 -1.568,-0.658 l -2.395,9.084 c -0.184,0.707 -0.111,1.384 0.213,2.009 0.034,0.074 0.076,0.149 0.13,0.226 0.324,0.568 0.787,0.969 1.387,1.202 0.134,0.053 0.271,0.098 0.416,0.134 0.271,0.058 0.543,0.088 0.812,0.089 0.28,-0.008 0.55,-0.056 0.815,-0.141 0.205,-0.069 0.406,-0.16 0.61,-0.275 0.689,-0.442 1.145,-1.053 1.343,-1.853 l 2.815,-10.99 c 0.239,-0.995 0.158,-1.779 -0.231,-2.359"
         id="path453" />
      <path
         inkscape:connector-curvature="0"
         style="fill:none;stroke:#737a91;stroke-width:1.50530005;stroke-linecap:round;stroke-linejoin:round;stroke-miterlimit:10"
         d="m 922.338,31.854 c -1.182,3.479 -1.928,6.488 -2.229,9.028 -0.202,0.798 -0.646,1.411 -1.331,1.835 -0.706,0.421 -1.449,0.537 -2.251,0.345 -0.801,-0.194 -1.398,-0.639 -1.805,-1.327 -0.434,-0.703 -0.543,-1.444 -0.343,-2.243 0.676,-3.6 1.634,-7.359 2.872,-11.288 0.177,-0.678 0.522,-1.223 1.05,-1.626 0.091,-0.07 0.191,-0.14 0.299,-0.205 0.49,-0.297 0.959,-0.481 1.405,-0.554 0.188,-0.024 0.362,-0.031 0.534,-0.028 0.614,0.006 1.422,0.113 2.41,0.329 1.416,0.303 2.726,0.848 3.932,1.642 0.311,0.191 0.62,0.373 0.943,0.545 0.333,0.167 0.651,0.328 0.958,0.471 1.001,0.459 2.168,0.844 3.49,1.13 0.64,0.125 1.18,0.271 1.611,0.417 0.835,0.274 1.446,0.704 1.83,1.271 0.388,0.58 0.47,1.363 0.23,2.359 l -2.815,10.989 c -0.198,0.8 -0.652,1.411 -1.343,1.853 -0.204,0.116 -0.405,0.206 -0.611,0.274 -0.265,0.086 -0.535,0.134 -0.816,0.141 -0.268,0 -0.54,-0.031 -0.81,-0.089 -0.146,-0.037 -0.283,-0.081 -0.417,-0.134 -0.6,-0.233 -1.062,-0.634 -1.387,-1.202 -0.054,-0.078 -0.096,-0.152 -0.13,-0.226 -0.324,-0.625 -0.396,-1.302 -0.213,-2.009 l 2.394,-9.084 m 0.002,0.002 c -0.86,-0.376 -1.724,-0.754 -2.584,-1.13 -1.261,-0.555 -2.888,-1.051 -4.875,-1.486 m 9.028,3.273 c -0.527,-0.219 -1.044,-0.438 -1.569,-0.657 m -6.746,-4.631 c -0.255,0.685 -0.49,1.354 -0.713,2.015"
         id="path455" />
      <path
         inkscape:connector-curvature="0"
         style="fill:#b0b6d5"
         d="m 934.141,41.513 c -3.115,0.042 -6.631,-0.487 -10.553,-1.58 -6.312,-2.361 -12.222,-3.91 -17.717,-4.662 -5.494,-0.752 -10.625,-1.352 -15.377,-1.797 -4.764,-0.447 -8.387,-0.535 -10.869,-0.262 -1.539,0.839 -2.668,1.979 -3.396,3.425 -0.265,0.528 -0.466,1.079 -0.604,1.651 -0.151,0.606 -0.282,1.226 -0.381,1.852 -0.194,1.168 -0.541,2.278 -1.042,3.351 -0.416,1.213 -0.513,2.187 -0.308,2.924 8.67,0.392 16.158,1.025 22.48,1.888 5.128,0.696 8.785,1.25 10.966,1.673 1.598,0.394 3.214,0.706 4.847,0.914 0.434,0.049 0.869,0.089 1.301,0.139 1.896,0.246 3.699,0.533 5.398,0.851 1.026,0.223 2.036,0.482 3.038,0.778 1.731,0.457 3.481,0.754 5.273,0.905 1.885,0.195 3.771,0.459 5.65,0.789 2.066,0.364 4.092,0.845 6.085,1.445 1.942,0.553 3.826,1.22 5.668,2.005 1.006,0.421 1.999,0.87 2.985,1.346 1.944,0.908 3.837,1.934 5.679,3.064 1.762,1.106 3.518,2.241 5.269,3.402 1.774,1.187 3.528,2.396 5.265,3.624 0.119,0.088 0.239,0.168 0.356,0.256 0.729,-0.944 1.192,-2.016 1.407,-3.197 0.215,-1.221 0.429,-2.451 0.65,-3.671 0.224,-1.218 0.435,-2.429 0.659,-3.649 0.154,-0.865 0.252,-1.731 0.274,-2.612 0.009,-0.384 -0.021,-0.752 -0.098,-1.104 -0.127,-0.687 -0.515,-1.18 -1.14,-1.485 -4.639,-3.174 -9.734,-5.968 -15.3,-8.368 -3.429,-2.079 -8.915,-3.377 -16.465,-3.895"
         id="path457" />
      <path
         inkscape:connector-curvature="0"
         style="fill:none;stroke:#737a91;stroke-width:1.50530005;stroke-linecap:round;stroke-linejoin:round;stroke-miterlimit:10"
         d="m 934.141,41.513 c 7.551,0.518 13.036,1.816 16.469,3.897 5.565,2.4 10.661,5.194 15.3,8.368 0.625,0.306 1.013,0.798 1.14,1.485 0.077,0.352 0.106,0.719 0.098,1.104 -0.022,0.881 -0.12,1.747 -0.274,2.612 -0.225,1.22 -0.436,2.431 -0.659,3.649 -0.222,1.22 -0.436,2.45 -0.65,3.671 -0.215,1.181 -0.678,2.252 -1.407,3.197 -0.117,-0.088 -0.237,-0.168 -0.356,-0.256 -1.736,-1.228 -3.49,-2.438 -5.265,-3.624 -1.749,-1.163 -3.507,-2.296 -5.269,-3.402 -1.842,-1.131 -3.734,-2.156 -5.679,-3.064 -0.986,-0.476 -1.979,-0.925 -2.985,-1.346 -1.842,-0.785 -3.726,-1.453 -5.668,-2.005 -1.993,-0.6 -4.019,-1.081 -6.085,-1.445 -1.88,-0.33 -3.766,-0.594 -5.65,-0.79 -1.789,-0.15 -3.542,-0.448 -5.273,-0.904 -1.002,-0.296 -2.012,-0.555 -3.038,-0.778 -1.699,-0.317 -3.502,-0.605 -5.398,-0.851 -0.431,-0.05 -0.867,-0.09 -1.301,-0.139 -1.633,-0.208 -3.249,-0.52 -4.847,-0.914 -2.181,-0.423 -5.838,-0.978 -10.966,-1.673 -6.322,-0.863 -13.811,-1.496 -22.48,-1.888 -0.205,-0.738 -0.108,-1.711 0.308,-2.924 0.501,-1.073 0.848,-2.183 1.042,-3.351 0.099,-0.626 0.229,-1.246 0.381,-1.852 0.138,-0.572 0.339,-1.123 0.604,-1.651 0.729,-1.445 1.857,-2.586 3.396,-3.425 2.482,-0.272 6.105,-0.185 10.869,0.262 4.752,0.445 9.883,1.044 15.377,1.797 5.495,0.752 11.405,2.3 17.717,4.662 3.918,1.091 7.433,1.62 10.549,1.578 z"
         id="path459" />
      <path
         inkscape:connector-curvature="0"
         style="fill:#255f27"
         d="m 924.747,124.809 v -0.01 c -2.115,-2.616 -4.917,-4.616 -8.411,-5.978 -4.257,-1.651 -8.979,-1.914 -14.158,-0.799 -0.021,0.008 -0.04,0.008 -0.059,0.018 -1.997,0.588 -3.832,1.393 -5.507,2.406 l 0.02,-0.009 c -0.144,0.076 -0.277,0.161 -0.398,0.246 -0.163,0.096 -0.315,0.199 -0.477,0.313 -0.182,0.124 -0.287,0.285 -0.315,0.484 -0.038,0.2 0,0.39 0.122,0.57 0.115,0.172 0.276,0.277 0.486,0.314 0.199,0.029 0.389,-0.008 0.57,-0.122 0.132,-0.094 0.265,-0.181 0.398,-0.257 0.01,-0.009 0.021,-0.019 0.03,-0.028 h 0.011 c 0.103,-0.066 0.207,-0.133 0.321,-0.2 0,-0.009 0.011,-0.009 0.019,-0.009 1.549,-0.939 3.254,-1.687 5.098,-2.246 0.009,0 0.029,0 0.039,-0.009 h 0.009 0.009 c 4.838,-1.039 9.257,-0.796 13.238,0.74 h -0.009 c 3.238,1.269 5.832,3.106 7.783,5.533 h 0.012 c 0.018,0.028 0.047,0.066 0.074,0.095 0,0.009 0.012,0.01 0.02,0.019 l 0.267,0.343 c 0.01,0.018 0.028,0.037 0.036,0.056 0.011,0.01 0.011,0.019 0.021,0.029 1.775,2.387 2.502,5.011 2.176,7.853 l 1.529,0.002 c 0.327,-3.164 -0.495,-6.073 -2.459,-8.728 l -0.011,-0.009 c -0.008,-0.01 -0.008,-0.02 -0.019,-0.029 -0.01,-0.01 -0.01,-0.01 -0.01,-0.019 -0.007,-0.01 -0.019,-0.029 -0.027,-0.038 l -0.312,-0.399 c -0.009,-0.01 -0.018,-0.02 -0.018,-0.029 -0.031,-0.037 -0.069,-0.075 -0.098,-0.103"
         id="path461" />
      <path
         inkscape:connector-curvature="0"
         style="fill:#255f27"
         d="m 923.166,134.158 0.818,0.001 c -0.087,-0.142 -0.17,-0.287 -0.256,-0.409 -0.267,-0.371 -0.491,-0.562 -0.675,-0.571 l 0.113,0.979 z"
         id="path463" />
      <path
         inkscape:connector-curvature="0"
         style="fill:#255f27"
         d="m 923.984,134.159 -0.818,-0.001 0.272,2.405 c 0,0.038 0,0.076 0.009,0.104 0.021,0.304 0.038,0.608 0.057,0.922 0.028,0.617 0.056,1.225 0.073,1.842 0.027,0.694 0.007,1.388 -0.05,2.083 -0.058,0.741 -0.155,1.586 -0.3,2.527 -0.006,0.01 -0.006,0.021 -0.006,0.029 -0.48,2.442 -1.749,4.093 -3.794,4.956 -1.195,0.274 -2.26,0.062 -3.2,-0.632 -0.163,-0.125 -0.321,-0.266 -0.483,-0.428 -0.046,-0.048 -0.085,-0.096 -0.134,-0.143 -0.01,-0.01 -0.01,-0.01 -0.019,-0.019 1.058,-2.194 1.395,-4.407 1.018,-6.641 -0.095,-0.562 -0.314,-1.084 -0.654,-1.551 0.008,0.201 0.007,0.409 -0.001,0.619 -0.05,2.119 -0.537,4.152 -1.461,6.098 -0.087,0.182 -0.174,0.352 -0.259,0.514 -0.028,0.046 -0.058,0.104 -0.095,0.151 -0.029,0.056 -0.067,0.113 -0.104,0.18 -0.012,0.01 -0.021,0.029 -0.031,0.048 -0.056,0.066 -0.113,0.142 -0.16,0.209 -0.012,0.009 -0.012,0.009 -0.012,0.018 -0.065,0.086 -0.14,0.181 -0.219,0.277 -0.008,0.008 -0.008,0.008 -0.017,0.019 -0.067,0.076 -0.133,0.152 -0.201,0.237 -0.447,0.484 -0.953,0.891 -1.533,1.233 -0.332,0.142 -0.685,0.2 -1.043,0.188 -0.219,-0.01 -0.447,-0.047 -0.686,-0.114 -0.428,-0.181 -0.818,-0.381 -1.168,-0.61 -0.249,-0.152 -0.474,-0.314 -0.693,-0.484 l -0.011,0 h -0.009 c -0.921,-0.782 -1.585,-1.79 -1.999,-3.017 -0.183,-0.513 -0.332,-1.036 -0.464,-1.567 0.114,-0.096 0.227,-0.19 0.332,-0.295 1.341,-1.509 1.868,-3.275 1.564,-5.281 -0.112,-0.77 -0.415,-1.416 -0.907,-1.949 0.272,1.368 0.14,2.688 -0.387,3.971 -0.343,0.826 -0.812,1.566 -1.391,2.223 -0.133,0.123 -0.275,0.228 -0.438,0.323 l -0.009,0.009 h -0.01 c -0.01,0.009 -0.031,0.019 -0.039,0.028 -0.141,0.066 -0.286,0.133 -0.426,0.189 -0.629,0.219 -1.255,0.266 -1.894,0.13 h -0.019 c -0.333,-0.066 -0.675,-0.182 -1.017,-0.334 -1.558,-1.094 -2.629,-2.978 -3.213,-5.648 -0.161,-0.751 -0.284,-1.551 -0.368,-2.415 -0.009,-0.143 -0.028,-0.294 -0.037,-0.437 L 896,134.123 c 0.01,0.048 0.01,0.095 0.02,0.143 0.009,0.143 0.027,0.285 0.036,0.428 v 0.009 c 0.084,0.931 0.216,1.796 0.396,2.604 0.689,3.175 1.997,5.382 3.917,6.629 0.027,0.019 0.062,0.039 0.104,0.057 0.474,0.219 0.948,0.373 1.412,0.459 0.848,0.182 1.685,0.136 2.521,-0.13 0.123,0.456 0.255,0.904 0.409,1.35 0.573,1.722 1.561,3.082 2.956,4.08 0.484,0.333 1.035,0.628 1.632,0.887 0.051,0.019 0.098,0.037 0.146,0.067 0.028,0.009 0.057,0.018 0.085,0.027 1.033,0.306 2.004,0.26 2.918,-0.147 0.017,-0.01 0.037,-0.03 0.066,-0.039 0.752,-0.426 1.408,-0.948 1.969,-1.565 v -0.011 c 0.009,0.02 0.028,0.039 0.046,0.049 0.029,0.028 0.067,0.065 0.098,0.095 l 0.112,0.104 c 0.135,0.125 0.267,0.239 0.398,0.343 1.34,1.039 2.88,1.353 4.598,0.929 0.03,-0.011 0.067,-0.029 0.096,-0.038 2.596,-1.033 4.188,-3.074 4.78,-6.124 V 144.3 c 0.222,-1.406 0.327,-2.765 0.337,-4.066 0.013,-0.961 -0.045,-1.893 -0.148,-2.795 0.344,-0.085 0.658,-0.197 0.933,-0.35 0.429,-0.236 0.782,-0.54 1.076,-0.911 v -0.009 c 0.352,-0.466 0.599,-1.035 0.742,-1.71 0.011,-0.028 0.011,-0.047 0.021,-0.066 0.009,-0.086 0.009,-0.162 0.02,-0.228 l -1.529,-0.002 v 0.038 c -0.105,0.408 -0.26,0.76 -0.46,1.055 h -0.008 c -0.162,0.199 -0.353,0.37 -0.581,0.493 -0.142,0.067 -0.284,0.133 -0.446,0.18 -0.01,-0.057 -0.104,-0.341 -0.283,-0.856 -0.121,-0.334 -0.254,-0.638 -0.405,-0.914"
         id="path465" />
      <path
         inkscape:connector-curvature="0"
         style="fill:#255f27"
         d="m 895.949,133.407 c 0.019,0.239 0.038,0.475 0.056,0.713 l 1.53,0.002 c -0.019,-0.209 -0.037,-0.419 -0.046,-0.638 -0.009,-0.065 -0.009,-0.123 -0.021,-0.18 -0.008,-0.21 -0.092,-0.381 -0.256,-0.523 -0.159,-0.143 -0.35,-0.2 -0.55,-0.191 -0.208,0.01 -0.381,0.104 -0.523,0.267 -0.141,0.161 -0.199,0.34 -0.19,0.55"
         id="path467" />
      <path
         inkscape:connector-curvature="0"
         style="fill:#9fc94c"
         d="m 902.554,119.494 h -0.009 -0.009 c -0.01,0.009 -0.03,0.009 -0.039,0.009 -1.844,0.558 -3.549,1.307 -5.098,2.245 -0.008,0 -0.019,0 -0.019,0.009 -0.114,0.066 -0.219,0.134 -0.321,0.199 0.044,0.115 0.217,0.467 0.519,1.056 0.274,0.542 0.465,0.96 0.548,1.275 0.173,0.588 0.324,1.34 0.463,2.252 0.152,0.979 0.226,1.787 0.225,2.415 -10e-4,0.712 -0.019,1.189 -0.066,1.435 -0.085,0.495 -0.296,1.045 -0.64,1.643 -0.085,0.142 -0.189,0.409 -0.323,0.779 -0.105,0.294 -0.211,0.512 -0.295,0.673 0.009,0.219 0.027,0.428 0.046,0.638 0.009,0.143 0.028,0.294 0.037,0.437 0.084,0.864 0.207,1.664 0.368,2.415 0.584,2.67 1.656,4.554 3.213,5.648 0.342,0.152 0.684,0.268 1.018,0.334 h 0.018 c 0.639,0.135 1.265,0.088 1.894,-0.13 0.14,-0.056 0.286,-0.123 0.426,-0.189 0.011,-0.01 0.029,-0.019 0.039,-0.028 h 0.01 l 0.009,-0.01 c 0.162,-0.094 0.306,-0.199 0.438,-0.322 0.579,-0.656 1.048,-1.396 1.391,-2.223 0.526,-1.282 0.659,-2.603 0.387,-3.971 0.492,0.533 0.796,1.179 0.907,1.949 0.304,2.005 -0.224,3.772 -1.563,5.281 -0.106,0.104 -0.219,0.199 -0.333,0.295 0.132,0.531 0.281,1.054 0.464,1.567 0.414,1.228 1.078,2.235 1.999,3.017 h 0.009 l 0.011,0 c 0.22,0.17 0.445,0.332 0.693,0.484 0.35,0.229 0.74,0.429 1.168,0.61 0.238,0.067 0.467,0.104 0.686,0.114 0.358,0.011 0.711,-0.046 1.043,-0.188 0.58,-0.342 1.086,-0.749 1.533,-1.233 0.068,-0.085 0.134,-0.162 0.201,-0.237 0.009,-0.01 0.009,-0.01 0.018,-0.019 0.078,-0.096 0.152,-0.19 0.218,-0.277 0,-0.009 0,-0.009 0.012,-0.018 0.047,-0.067 0.104,-0.143 0.16,-0.209 0.01,-0.019 0.021,-0.039 0.031,-0.048 0.036,-0.066 0.074,-0.124 0.104,-0.18 0.039,-0.047 0.066,-0.105 0.095,-0.151 0.085,-0.162 0.172,-0.333 0.259,-0.514 0.924,-1.946 1.411,-3.979 1.462,-6.098 0.007,-0.209 0.008,-0.417 10e-4,-0.619 0.339,0.466 0.559,0.989 0.653,1.551 0.377,2.234 0.043,4.447 -1.018,6.641 0.009,0.009 0.009,0.009 0.021,0.019 0.047,0.047 0.086,0.095 0.132,0.143 0.162,0.162 0.32,0.303 0.483,0.428 0.94,0.694 2.005,0.906 3.2,0.632 2.045,-0.863 3.313,-2.514 3.794,-4.956 0,-0.008 0,-0.019 0.009,-0.029 0.142,-0.94 0.238,-1.786 0.297,-2.527 0.057,-0.694 0.077,-1.389 0.05,-2.083 -0.018,-0.617 -0.045,-1.226 -0.073,-1.842 -0.019,-0.314 -0.036,-0.619 -0.057,-0.922 -0.009,-0.028 -0.009,-0.066 -0.009,-0.104 l -0.385,-3.384 c 0.184,0.009 0.408,0.201 0.675,0.571 0.256,0.371 0.483,0.808 0.664,1.321 0.179,0.515 0.273,0.799 0.283,0.856 0.162,-0.047 0.305,-0.113 0.446,-0.18 0.229,-0.123 0.419,-0.293 0.581,-0.493 h 0.008 c 0.2,-0.295 0.354,-0.647 0.46,-1.055 0.335,-2.86 -0.392,-5.484 -2.176,-7.89 -0.01,-0.011 -0.01,-0.02 -0.021,-0.03 -0.008,-0.019 -0.026,-0.037 -0.036,-0.056 l -0.267,-0.342 c -0.009,-0.01 -0.02,-0.01 -0.02,-0.02 -0.027,-0.029 -0.057,-0.067 -0.074,-0.095 h -0.012 c -1.951,-2.426 -4.545,-4.264 -7.783,-5.533 h 0.009 c -3.985,-1.531 -8.404,-1.775 -13.242,-0.736"
         id="path469" />
      <path
         inkscape:connector-curvature="0"
         style="fill:#255f27"
         d="m 962.39,72.76 c 0.291,0.485 0.517,0.98 0.685,1.496 0.074,0.239 0.141,0.479 0.186,0.728 0.784,0.476 1.526,1.041 2.219,1.701 l 0.002,0.009 c 0.766,0.764 1.333,1.658 1.72,2.67 0.739,1.629 1.271,3.329 1.598,5.081 0.159,0.392 0.293,0.802 0.407,1.213 l 10e-4,0.009 c 0.275,1.07 0.477,2.152 0.621,3.236 -0.382,0.496 -0.834,0.926 -1.368,1.29 -0.122,-1.409 -0.362,-2.817 -0.719,-4.203 -0.093,-0.373 -0.215,-0.736 -0.361,-1.069 -0.011,-0.028 -0.025,-0.067 -0.036,-0.095 -0.236,-0.534 -0.556,-1.028 -0.961,-1.482 0,-0.01 0,-0.01 -0.01,-0.02 -0.072,-0.104 -0.166,-0.199 -0.258,-0.284 -1.395,-0.831 -2.897,-1.239 -4.518,-1.221 -1.812,0.021 -3.507,0.433 -5.092,1.237 -0.303,0.149 -0.522,0.382 -0.661,0.694 -0.091,1.643 0.733,2.829 2.476,3.578 l 0.021,0.009 c 1.37,0.603 2.772,1.096 4.213,1.477 0.039,0.01 0.472,0.089 1.308,0.228 0.173,0.026 0.364,0.061 0.567,0.096 -1.151,0.365 -2.472,0.464 -3.956,0.286 -0.037,0.002 -0.077,0.002 -0.124,-0.006 0.047,-0.01 0.085,-0.01 0.123,-0.011 -0.271,-0.054 -0.579,-0.115 -0.916,-0.197 -0.955,-0.244 -1.438,-0.36 -1.466,-0.35 h -0.012 c -0.096,-0.046 -0.195,-0.083 -0.291,-0.12 -2.42,-1.063 -3.574,-2.726 -3.471,-4.993 -0.179,-0.237 -0.348,-0.465 -0.507,-0.703 0,-0.009 0,-0.009 0,-0.02 -0.226,-0.35 -0.422,-0.712 -0.59,-1.074 -0.177,-0.334 -0.315,-0.697 -0.418,-1.08 -0.03,-0.123 -0.056,-0.239 -0.085,-0.363 -0.146,-1.649 -0.061,-2.965 0.238,-3.95 -0.354,-0.581 -0.651,-1.181 -0.906,-1.8 -0.048,-0.134 -0.095,-0.267 -0.152,-0.41 -0.359,-0.926 -0.534,-1.883 -0.536,-2.862 0.029,-0.778 0.285,-1.446 0.767,-2.001 0.045,-0.039 0.099,-0.078 0.152,-0.118 0.01,-0.009 0.019,-0.02 0.027,-0.03 1.289,-1.057 2.783,-1.409 4.476,-1.063 0.049,0.009 0.105,0.019 0.155,0.027 0.811,0.188 1.557,0.541 2.248,1.068 0.744,0.572 1.435,1.214 2.064,1.925 0.422,0.461 0.799,0.955 1.14,1.467 m -2.656,0.688 c 0.628,0.162 1.213,0.362 1.761,0.604 -0.104,-0.238 -0.215,-0.476 -0.345,-0.705 -0.097,-0.18 -0.216,-0.361 -0.343,-0.542 -0.052,-0.076 -0.105,-0.152 -0.169,-0.228 -0.428,-0.531 -0.88,-1.042 -1.359,-1.533 -0.678,-0.709 -1.482,-1.195 -2.4,-1.45 -0.166,-0.054 -0.342,-0.108 -0.515,-0.163 -1.127,-0.346 -2.166,-0.137 -3.124,0.637 -0.959,0.785 -0.899,2.407 0.178,4.866 0.012,0.021 0.021,0.039 0.032,0.067 0.124,0.257 0.217,0.496 0.289,0.697 0.126,-0.194 0.266,-0.388 0.422,-0.574 0.045,-0.05 0.096,-0.108 0.16,-0.166 0.027,-0.029 0.053,-0.068 0.086,-0.108 l 0.01,-0.009 c 1.403,-1.472 3.182,-1.934 5.317,-1.393 m -0.376,1.638 c -0.107,-0.027 -0.221,-0.044 -0.327,-0.061 -0.66,-0.095 -1.326,-0.123 -2.007,-0.082 -1.435,0.09 -2.367,0.74 -2.792,1.947 -0.017,0.048 -0.03,0.106 -0.055,0.165 -0.016,0.057 -0.028,0.115 -0.047,0.174 l -0.006,0.019 c -0.029,0.125 -0.059,0.26 -0.076,0.395 -0.176,1.145 -0.058,2.239 0.35,3.288 0.163,0.429 0.373,0.849 0.63,1.257 0.213,-0.205 0.456,-0.372 0.723,-0.521 h 0.01 c 1.784,-0.896 3.697,-1.348 5.736,-1.373 1.762,-0.019 3.414,0.385 4.965,1.223 -0.192,-0.552 -0.411,-1.097 -0.668,-1.639 -0.013,-0.021 -0.013,-0.039 -0.014,-0.049 -0.293,-0.783 -0.741,-1.466 -1.343,-2.061 h 0.01 c -0.786,-0.765 -1.646,-1.376 -2.581,-1.85 -0.01,0 -0.01,0 -0.01,-0.009 -0.031,-0.009 -0.06,-0.028 -0.09,-0.046 -0.333,-0.158 -0.676,-0.287 -1.015,-0.406 -0.05,-0.019 -0.108,-0.037 -0.157,-0.055 -0.406,-0.137 -0.821,-0.236 -1.236,-0.316"
         id="path471" />
      <path
         inkscape:connector-curvature="0"
         style="fill:#9fc94c"
         d="m 961.495,74.053 c -0.548,-0.242 -1.133,-0.443 -1.761,-0.604 -2.136,-0.541 -3.914,-0.079 -5.317,1.394 l -0.01,0.009 c -0.034,0.04 -0.059,0.079 -0.086,0.107 -0.064,0.059 -0.115,0.118 -0.16,0.166 -0.156,0.186 -0.296,0.379 -0.422,0.574 -0.072,-0.2 -0.165,-0.439 -0.288,-0.697 -0.012,-0.028 -0.021,-0.046 -0.033,-0.066 -1.077,-2.46 -1.137,-4.081 -0.178,-4.865 0.958,-0.775 1.996,-0.984 3.124,-0.638 0.173,0.055 0.349,0.109 0.515,0.164 0.918,0.254 1.723,0.74 2.4,1.45 0.479,0.489 0.932,1.002 1.359,1.531 0.063,0.077 0.117,0.153 0.169,0.229 0.127,0.18 0.246,0.362 0.343,0.543 0.13,0.226 0.242,0.464 0.345,0.703"
         id="path473" />
      <path
         inkscape:connector-curvature="0"
         style="fill:#9fc94c"
         d="m 959.031,75.024 c 0.106,0.018 0.221,0.034 0.327,0.062 0.415,0.079 0.829,0.179 1.236,0.315 0.049,0.019 0.107,0.037 0.157,0.055 0.339,0.12 0.682,0.249 1.015,0.407 0.03,0.019 0.059,0.037 0.09,0.047 0,0.008 0,0.008 0.01,0.008 0.936,0.475 1.795,1.085 2.581,1.851 h -0.01 c 0.602,0.593 1.05,1.278 1.343,2.061 10e-4,0.01 10e-4,0.028 0.014,0.049 0.257,0.542 0.476,1.086 0.668,1.639 -1.551,-0.837 -3.203,-1.241 -4.965,-1.223 -2.04,0.023 -3.952,0.478 -5.736,1.373 h -0.01 c -0.267,0.148 -0.51,0.315 -0.723,0.521 -0.257,-0.408 -0.467,-0.828 -0.63,-1.257 -0.407,-1.048 -0.525,-2.142 -0.35,-3.288 0.018,-0.135 0.047,-0.27 0.076,-0.395 l 0.01,-0.019 c 0.015,-0.059 0.027,-0.118 0.043,-0.174 0.024,-0.059 0.038,-0.116 0.055,-0.165 0.425,-1.207 1.357,-1.856 2.792,-1.947 0.683,-0.042 1.347,-0.013 2.007,0.08"
         id="path475" />
      <path
         inkscape:connector-curvature="0"
         style="fill:#9fc94c"
         d="m 961.597,81.819 c 1.62,-0.017 3.123,0.389 4.518,1.221 0.092,0.084 0.186,0.18 0.258,0.284 0.01,0.011 0.01,0.011 0.01,0.02 0.405,0.453 0.725,0.948 0.961,1.483 0.011,0.027 0.025,0.066 0.036,0.094 0.146,0.333 0.269,0.697 0.361,1.069 0.356,1.386 0.597,2.794 0.719,4.204 -0.243,0.167 -0.499,0.314 -0.765,0.444 -0.081,0.04 -0.155,0.099 -0.216,0.167 l -0.25,-0.015 c -0.476,-0.683 -1.099,-1.182 -1.871,-1.505 -0.479,-0.194 -0.978,-0.281 -1.499,-0.244 -0.834,-0.139 -1.267,-0.219 -1.306,-0.228 -1.44,-0.379 -2.843,-0.874 -4.213,-1.477 l -0.021,-0.008 c -1.741,-0.749 -2.566,-1.935 -2.476,-3.579 0.139,-0.311 0.358,-0.545 0.661,-0.693 1.586,-0.804 3.281,-1.216 5.093,-1.237"
         id="path477" />
    </g>
  </g>
</svg>
