<?xml version="1.0" encoding="UTF-8" standalone="no"?>
<!-- Created with Inkscape (http://www.inkscape.org/) -->

<svg
   xmlns:dc="http://purl.org/dc/elements/1.1/"
   xmlns:cc="http://creativecommons.org/ns#"
   xmlns:rdf="http://www.w3.org/1999/02/22-rdf-syntax-ns#"
   xmlns:svg="http://www.w3.org/2000/svg"
   xmlns="http://www.w3.org/2000/svg"
   xmlns:sodipodi="http://sodipodi.sourceforge.net/DTD/sodipodi-0.dtd"
   xmlns:inkscape="http://www.inkscape.org/namespaces/inkscape"
   width="102.8526"
   height="232.53459"
   id="svg5696"
   version="1.1"
   inkscape:version="0.48.4 r9939"
   sodipodi:docname="oscar2.svg">
  <defs
     id="defs5698">
    <clipPath
       id="SVGID_2_">
      <rect
         height="88.862999"
         width="111.498"
         y="518.96198"
         x="382.04999"
         id="use1087" />
    </clipPath>
    <clipPath
       id="SVGID_4_">
      <rect
         height="41.314999"
         width="49.584999"
         y="525.19397"
         x="389.84698"
         id="use1111" />
    </clipPath>
  </defs>
  <sodipodi:namedview
     id="base"
     pagecolor="#ffffff"
     bordercolor="#666666"
     borderopacity="1.0"
     inkscape:pageopacity="0.0"
     inkscape:pageshadow="2"
     inkscape:zoom="0.77472527"
     inkscape:cx="68.874115"
     inkscape:cy="96.474576"
     inkscape:current-layer="layer1"
     inkscape:document-units="px"
     showgrid="false"
     inkscape:window-width="763"
     inkscape:window-height="591"
     inkscape:window-x="592"
     inkscape:window-y="97"
     inkscape:window-maximized="0"
     fit-margin-top="0"
     fit-margin-left="0"
     fit-margin-right="0"
     fit-margin-bottom="0" />
  <metadata
     id="metadata5701">
    <rdf:RDF>
      <cc:Work
         rdf:about="">
        <dc:format>image/svg+xml</dc:format>
        <dc:type
           rdf:resource="http://purl.org/dc/dcmitype/StillImage" />
        <dc:title></dc:title>
      </cc:Work>
    </rdf:RDF>
  </metadata>
  <g
     id="layer1"
     inkscape:label="Layer 1"
     inkscape:groupmode="layer"
     transform="translate(-249.06918,50.953642)">
    <g
       transform="translate(-255.98447,-68.262801)"
       id="g1299">
      <path
         inkscape:connector-curvature="0"
         style="fill:#245e27"
         d="m 576.706,128.417 -0.019,-0.019 c -4.124,-8.538 -5.878,-19.518 -5.247,-32.93 l -31.837,1.37 c 2.082,14.152 0.797,25.777 -3.853,34.866 -0.007,0.01 -0.025,0.028 -0.035,0.057 -0.422,0.688 -0.815,1.403 -1.17,2.138 -2.833,5.547 -4.257,11.85 -4.266,18.911 -0.015,9.698 2.62,17.965 7.914,24.813 5.225,6.771 11.536,10.171 18.94,10.192 7.384,-0.001 13.714,-3.383 18.971,-10.14 5.291,-6.833 7.95,-15.093 7.964,-24.791 0.006,-4.539 -0.571,-8.762 -1.723,-12.671 -0.6,-1.988 -1.36,-3.852 -2.304,-5.582 -1.134,-2.074 -2.237,-4.149 -3.335,-6.214"
         id="path1301" />
      <path
         inkscape:connector-curvature="0"
         style="fill:none;stroke:#245e27;stroke-width:1.52869999;stroke-linecap:round;stroke-linejoin:round;stroke-miterlimit:10"
         d="m 576.688,128.398 c -4.124,-8.538 -5.878,-19.518 -5.247,-32.931 l -31.837,1.371 c 2.083,14.152 0.797,25.777 -3.85,34.866 -0.01,0.009 -0.029,0.028 -0.038,0.057 -0.422,0.688 -0.813,1.403 -1.17,2.138 -2.833,5.547 -4.258,11.85 -4.268,18.911 -0.014,9.698 2.622,17.966 7.917,24.812 5.226,6.772 11.535,10.171 18.939,10.191 7.386,0 13.714,-3.381 18.971,-10.14 5.291,-6.833 7.95,-15.093 7.964,-24.79 0.006,-4.538 -0.572,-8.762 -1.723,-12.671 -0.6,-1.988 -1.36,-3.852 -2.304,-5.583 -1.136,-2.074 -2.239,-4.149 -3.337,-6.214 l -0.017,-0.017 z"
         id="path1303" />
      <path
         inkscape:connector-curvature="0"
         style="fill:#9ec94b"
         d="m 576.075,128.855 c -0.029,-0.038 -0.057,-0.076 -0.076,-0.123 -4.096,-8.461 -5.878,-19.279 -5.354,-32.463 l -30.161,1.298 c 1.938,13.96 0.585,25.459 -4.041,34.492 -0.03,0.029 -0.049,0.066 -0.067,0.105 -0.412,0.658 -0.796,1.356 -1.139,2.072 v 0.018 c -2.789,5.442 -4.184,11.63 -4.193,18.557 -0.013,9.508 2.575,17.622 7.755,24.345 h 0.009 c 5.065,6.562 11.173,9.855 18.329,9.894 7.156,-0.019 13.276,-3.297 18.367,-9.834 v -0.009 c 5.189,-6.71 7.787,-14.817 7.802,-24.324 0.006,-4.46 -0.553,-8.608 -1.685,-12.452 -0.581,-1.939 -1.332,-3.748 -2.247,-5.439 v 0.011 c -1.115,-2.055 -2.221,-4.111 -3.299,-6.148"
         id="path1305" />
      <path
         inkscape:connector-curvature="0"
         style="fill:#afb6d4"
         d="m 542.459,160.94 c 0.388,-4.328 -1.225,-6.414 -4.845,-6.255 l -20.349,-0.028 c -2.914,-0.129 -4.741,0.958 -5.472,3.278 -0.161,0.602 -0.298,1.318 -0.402,2.16 -0.087,0.448 -0.166,1.288 -0.233,2.54 -0.188,4.002 -0.546,7.738 -1.085,11.214 -0.399,4.318 1.223,6.394 4.863,6.236 l 20.349,0.028 c 3.593,0.187 5.592,-1.894 5.99,-6.222 l 1.184,-12.951 z m -5.271,-1.574 c 0.486,0.144 0.676,0.66 0.589,1.569 l -1.183,12.951 c -0.077,0.889 -0.376,1.414 -0.881,1.566 l -20.351,-0.027 c -0.496,-0.144 -0.707,-0.659 -0.628,-1.568 l 1.203,-12.952 c 0.086,-0.918 0.394,-1.443 0.918,-1.566 l 20.333,0.027 z"
         id="path1307" />
      <path
         inkscape:connector-curvature="0"
         style="fill:none;stroke:#727a90;stroke-width:1.52869999;stroke-linecap:round;stroke-linejoin:round;stroke-miterlimit:10"
         d="m 537.188,159.366 -20.331,-0.028 c -0.526,0.123 -0.832,0.648 -0.918,1.566 l -1.203,12.953 c -0.078,0.908 0.132,1.423 0.628,1.567 l 20.351,0.027 c 0.505,-0.152 0.804,-0.677 0.881,-1.565 l 1.183,-12.952 c 0.085,-0.909 -0.104,-1.424 -0.591,-1.568 z m 5.271,1.574 -1.183,12.953 c -0.398,4.328 -2.398,6.407 -5.991,6.221 l -20.349,-0.028 c -3.641,0.157 -5.263,-1.918 -4.863,-6.235 0.539,-3.477 0.897,-7.212 1.085,-11.215 0.067,-1.252 0.146,-2.092 0.233,-2.54 0.104,-0.842 0.24,-1.558 0.402,-2.16 0.73,-2.32 2.557,-3.407 5.472,-3.278 l 20.349,0.027 c 3.623,-0.159 5.233,1.928 4.845,6.255 z"
         id="path1309" />
      <rect
         x="519.65997"
         y="151.33501"
         transform="matrix(1,0.0014,-0.0014,1,0.2147,-0.7233)"
         style="fill:#c6cee3"
         width="14.943"
         height="9.5170002"
         id="rect1311" />
      <rect
         x="519.65997"
         y="151.33501"
         transform="matrix(1,0.0014,-0.0014,1,0.2147,-0.7233)"
         style="fill:none;stroke:#727a90;stroke-width:1.52869999;stroke-linecap:round;stroke-linejoin:round;stroke-miterlimit:10"
         width="14.943"
         height="9.5170002"
         id="rect1313" />
      <path
         inkscape:connector-curvature="0"
         style="fill:#afb6d4"
         d="m 600.202,134.832 c -0.756,-0.661 -1.671,-0.987 -2.752,-0.988 l -2.848,-0.032 c -2.082,0.158 -4.271,0.26 -6.573,0.286 -1.175,0.017 -2.369,0.026 -3.591,0.024 -8.149,-0.154 -13.557,-0.277 -16.205,-0.347 l -23.634,-0.291 c -5.084,-0.113 -10.806,-0.054 -17.18,0.167 -1.45,0.046 -2.933,0.111 -4.452,0.176 -1.949,0.045 -3.736,0.043 -5.369,-0.008 l -2.655,-0.079 -0.385,-0.01 c -1.068,-10e-4 -1.995,0.321 -2.77,0.98 -0.526,0.467 -0.861,1.011 -1.024,1.613 -0.068,0.258 -0.106,0.735 -0.107,1.452 l -0.002,1.73 c -0.002,1.079 0.37,1.996 1.123,2.751 0.773,0.766 1.873,1.188 3.283,1.267 h 0.011 c 3.104,0.185 6.211,0.255 9.334,0.203 1.404,-0.028 3.898,-0.119 7.49,-0.295 4.769,-0.08 9.488,-0.073 14.16,0.02 l 19.271,0.026 c 2.923,0.166 5.848,0.161 8.77,-0.035 2.811,-0.026 5.618,-0.079 8.427,-0.142 2.875,-0.073 5.751,-0.048 8.628,0.06 1.145,0.029 2.294,0.06 3.439,0.091 0.22,0 0.449,0 0.669,0.009 0.572,0.021 1.223,0.042 1.948,0.061 h 0.047 0.182 c 1.081,0.002 1.998,-0.379 2.755,-1.143 0.764,-0.754 1.147,-1.67 1.149,-2.749 l 0.004,-2.36 c 0,-0.945 -0.382,-1.759 -1.143,-2.437"
         id="path1315" />
      <path
         inkscape:connector-curvature="0"
         style="fill:#c6cee3"
         d="m 595.26,143.461 c -0.22,-0.009 -0.449,-0.01 -0.669,-0.01 -1.146,-0.032 -2.293,-0.061 -3.439,-0.091 -2.876,-0.108 -5.753,-0.132 -8.628,-0.059 -2.809,0.062 -5.616,0.116 -8.426,0.141 -2.923,0.197 -5.848,0.201 -8.771,0.035 l -19.271,-0.026 c -4.672,-0.094 -9.392,-0.1 -14.16,-0.02 -3.593,0.176 -6.086,0.268 -7.489,0.296 -3.123,0.051 -6.229,-0.019 -9.335,-0.205 0.104,0.975 0.188,2.073 0.245,3.287 l 0.052,3.716 c 0,0.125 0,0.258 -0.01,0.392 -0.04,1.72 -0.062,3.363 -0.054,4.92 l 0.215,9.592 c 0.058,0.793 0.113,1.558 0.18,2.285 l 0.073,1.585 c 0.158,2.647 0.327,5.131 0.505,7.434 0.039,0.449 0.077,0.889 0.112,1.318 0.087,1.118 0.16,2.267 0.226,3.441 0.028,0.507 0.038,1.022 0.038,1.546 l -10e-4,0.365 c -0.021,1.012 -0.07,2.015 -0.159,3.019 -0.026,0.295 -0.049,0.582 -0.077,0.859 v 0.058 c -0.105,0.85 -0.202,1.709 -0.29,2.56 -0.125,1.08 -0.213,2.159 -0.242,3.247 -0.011,0.134 -0.011,0.269 -0.012,0.403 -0.009,0.238 0,0.478 0.019,0.715 0.01,0.259 0.038,0.516 0.077,0.774 0.198,1.185 0.493,2.361 0.872,3.517 0.181,0.584 0.391,1.176 0.648,1.759 0.15,0.354 0.522,1.883 1.121,4.588 0.246,0.869 0.312,1.672 0.196,2.407 -0.114,0.716 -0.402,1.367 -0.872,1.949 -0.268,0.342 -0.479,0.772 -0.633,1.279 -0.277,0.907 -0.383,2.092 -0.31,3.553 0.027,0.602 0.083,1.262 0.17,1.969 l 1.063,18.821 -0.004,2.724 c 0.227,0.028 0.458,0.065 0.678,0.114 0.688,0.174 1.375,0.357 2.054,0.559 0.716,0.028 1.422,0.049 2.138,0.078 0.604,0.068 1.214,0.107 1.816,0.116 0.058,0 0.116,0.001 0.174,0.012 0.667,0.008 1.337,0.009 2.014,0.002 0.611,-0.01 1.223,-0.028 1.834,-0.055 0.67,-0.029 1.328,-0.046 1.979,-0.055 0.62,-0.009 1.241,0.002 1.854,0.03 0.602,0.031 1.193,0.051 1.776,0.052 0.697,-0.008 1.395,-0.027 2.111,-0.064 0.448,-0.028 0.898,-0.045 1.347,-0.075 1.52,-0.103 2.762,-0.292 3.726,-0.559 1.589,-0.446 3.574,-0.118 5.962,0.993 0.507,0.239 1.041,0.507 1.585,0.814 3.083,1.743 6.17,1.938 9.247,0.595 0.247,-0.105 0.507,-0.209 0.765,-0.294 2.954,-0.876 5.917,-1.655 8.908,-2.33 0.123,-0.037 0.239,-0.076 0.364,-0.114 0.354,-0.113 0.716,-0.208 1.069,-0.275 0.727,-0.144 1.453,-0.188 2.18,-0.141 0.218,0.02 0.448,0.059 0.668,0.117 0.727,0.145 1.441,0.384 2.156,0.7 0.449,0.145 0.907,0.24 1.377,0.308 1.977,0.366 3.047,0.558 3.208,0.588 1.301,0.192 2.332,0.289 3.088,0.29 1.251,0.001 2.55,-0.053 3.878,-0.157 0.812,-0.066 2.188,-0.198 4.107,-0.416 l 3.213,-0.101 0.004,-2.444 c -0.012,-0.307 -0.011,-0.612 -0.011,-0.909 0.05,-7.909 0.385,-15.935 1.007,-24.074 0.447,-4.297 0.689,-7.556 0.741,-9.773 0.021,-0.983 0.003,-1.767 -0.056,-2.341 -0.093,-0.983 -0.148,-1.805 -0.178,-2.465 -0.027,-0.582 -0.018,-1.032 0.011,-1.355 0.06,-0.518 0.203,-1.09 0.425,-1.72 0.076,-0.209 0.16,-0.429 0.249,-0.648 1.045,-2.206 1.649,-3.886 1.812,-5.042 0.058,-0.44 0.059,-0.803 -0.009,-1.089 -0.275,-1.081 -0.646,-1.94 -1.105,-2.562 -0.398,-0.526 -0.608,-1.731 -0.635,-3.622 -0.01,-0.412 10e-4,-0.84 0.012,-1.309 l 0.078,-2.312 v -0.076 c -0.004,-9.64 0.345,-19.125 1.035,-28.469 0.097,-1.338 0.204,-2.875 0.33,-4.604 -0.724,-0.021 -1.374,-0.042 -1.946,-0.061"
         id="path1317" />
      <polygon
         style="fill:#afb6d4"
         points="514.562,133.73 514.943,133.74 514.723,133.731 "
         id="polygon1319" />
      <path
         inkscape:connector-curvature="0"
         style="fill:#c6cee3"
         d="m 515.072,143.523 h -0.011 c 0.106,1.061 0.19,2.111 0.246,3.153 0,0.038 0,0.085 0.009,0.133 -0.055,-1.212 -0.139,-2.31 -0.244,-3.286"
         id="path1321" />
      <path
         inkscape:connector-curvature="0"
         style="fill:#afb6d4"
         d="m 547.684,238.753 c -2.388,-1.111 -4.373,-1.439 -5.961,-0.992 -0.965,0.268 -2.207,0.455 -3.725,0.558 -0.45,0.029 -0.901,0.048 -1.349,0.075 -0.717,0.038 -1.413,0.055 -2.111,0.064 -0.583,0 -1.175,-0.021 -1.776,-0.051 -0.612,-0.028 -1.233,-0.039 -1.854,-0.03 -0.651,0.009 -1.31,0.026 -1.979,0.054 -0.611,0.028 -1.223,0.045 -1.834,0.055 -0.677,0.008 -1.347,0.007 -2.014,-0.002 -0.058,-0.01 -0.116,-0.011 -0.174,-0.011 -0.602,-0.009 -1.213,-0.048 -1.816,-0.116 -0.716,-0.029 -1.422,-0.049 -2.138,-0.078 -0.375,0.008 -0.736,0.027 -1.099,0.035 -0.546,0.029 -1.091,0.047 -1.634,0.074 -0.145,0.009 -0.297,0.009 -0.45,0.019 -0.164,0.009 -0.325,0.009 -0.486,0.009 -1.539,0.752 -2.316,1.985 -2.319,3.704 l -0.004,2.961 c -10e-4,1.08 0.333,1.998 1.011,2.753 0.697,0.765 1.536,1.149 2.503,1.151 l 74.749,0.102 c 0.984,0.001 1.807,-0.381 2.485,-1.144 0.688,-0.753 1.034,-1.67 1.035,-2.751 l 0.004,-2.961 c 0.002,-1.08 -0.341,-2.008 -1.027,-2.772 -0.621,-0.689 -1.356,-1.063 -2.224,-1.12 l -3.213,0.101 c -1.92,0.217 -3.295,0.349 -4.107,0.414 -1.328,0.104 -2.627,0.159 -3.878,0.158 -0.756,-0.001 -1.787,-0.098 -3.088,-0.291 -0.161,-0.03 -1.231,-0.222 -3.208,-0.588 -0.47,-0.067 -0.928,-0.164 -1.376,-0.307 -0.716,-0.317 -1.431,-0.558 -2.158,-0.701 -0.219,-0.058 -0.449,-0.096 -0.667,-0.116 -0.727,-0.049 -1.453,-0.002 -2.18,0.14 -0.354,0.066 -0.716,0.161 -1.069,0.275 -0.125,0.038 -0.241,0.077 -0.363,0.115 -2.992,0.673 -5.955,1.453 -8.909,2.328 -0.258,0.086 -0.518,0.189 -0.765,0.295 -3.076,1.343 -6.164,1.147 -9.247,-0.596 -0.544,-0.305 -1.079,-0.572 -1.585,-0.813"
         id="path1323" />
      <path
         inkscape:connector-curvature="0"
         style="fill:none;stroke:#727a90;stroke-width:1.52869999;stroke-linecap:round;stroke-linejoin:round;stroke-miterlimit:10"
         d="m 515.072,143.523 h -0.009 c -1.415,-0.079 -2.512,-0.5 -3.285,-1.266 -0.753,-0.755 -1.126,-1.673 -1.124,-2.752 l 0.002,-1.729 c 10e-4,-0.716 0.041,-1.194 0.108,-1.453 0.163,-0.601 0.498,-1.145 1.024,-1.612 0.774,-0.659 1.701,-0.981 2.77,-0.98 l 0.385,0.01 2.653,0.079 c 1.635,0.051 3.423,0.053 5.37,0.008 1.521,-0.063 3.003,-0.129 4.453,-0.176 6.374,-0.22 12.096,-0.279 17.18,-0.167 l 23.636,0.291 c 2.646,0.068 8.052,0.192 16.203,0.347 1.222,0.002 2.416,-0.006 3.591,-0.024 2.304,-0.026 4.491,-0.128 6.573,-0.286 l 2.848,0.032 c 1.08,0.001 1.996,0.328 2.752,0.988 0.761,0.679 1.143,1.491 1.143,2.438 l -0.004,2.36 c -0.002,1.079 -0.386,1.996 -1.149,2.749 -0.757,0.764 -1.675,1.145 -2.755,1.143 h -0.181 -0.048 m 0,-0.002 c -0.726,-0.021 -1.376,-0.041 -1.948,-0.06 -0.22,-0.01 -0.449,-0.011 -0.669,-0.011 -1.146,-0.032 -2.295,-0.06 -3.439,-0.091 -2.876,-0.108 -5.753,-0.132 -8.628,-0.061 -2.809,0.064 -5.616,0.118 -8.426,0.142 -2.923,0.197 -5.848,0.202 -8.771,0.036 l -19.271,-0.026 c -4.671,-0.093 -9.392,-0.1 -14.16,-0.02 -3.593,0.177 -6.085,0.267 -7.489,0.295 -3.124,0.053 -6.229,-0.018 -9.335,-0.204 m 78.425,94.817 0.004,-2.445 c -0.012,-0.307 -0.011,-0.612 -0.011,-0.909 0.05,-7.91 0.384,-15.933 1.007,-24.074 0.447,-4.297 0.689,-7.556 0.741,-9.772 0.021,-0.983 0.003,-1.768 -0.056,-2.341 -0.093,-0.983 -0.148,-1.805 -0.178,-2.465 -0.027,-0.583 -0.018,-1.032 0.011,-1.356 0.06,-0.517 0.203,-1.09 0.425,-1.72 0.075,-0.209 0.16,-0.429 0.249,-0.649 1.045,-2.205 1.649,-3.886 1.812,-5.042 0.058,-0.439 0.059,-0.803 -0.009,-1.089 -0.275,-1.081 -0.646,-1.94 -1.105,-2.562 -0.398,-0.527 -0.608,-1.731 -0.635,-3.623 -0.008,-0.412 0.001,-0.841 0.012,-1.309 l 0.078,-2.312 v -0.076 c -0.004,-9.641 0.345,-19.125 1.035,-28.47 0.097,-1.337 0.204,-2.875 0.33,-4.604 m -79.741,-9.805 -2.74,0.016 m 0.346,9.792 c 0.104,0.975 0.188,2.073 0.245,3.287 l 0.052,3.716 c 0,0.125 0,0.259 -0.01,0.393 -0.04,1.719 -0.062,3.362 -0.054,4.919 l 0.215,9.592 c 0.058,0.793 0.111,1.557 0.178,2.285 l 0.075,1.585 c 0.158,2.647 0.327,5.131 0.506,7.434 0.037,0.449 0.076,0.89 0.111,1.318 0.087,1.118 0.16,2.266 0.228,3.441 0.025,0.506 0.036,1.021 0.036,1.547 l -10e-4,0.363 c -0.021,1.012 -0.071,2.015 -0.158,3.019 -0.027,0.295 -0.048,0.583 -0.078,0.858 v 0.059 c -0.105,0.85 -0.202,1.709 -0.29,2.56 -0.126,1.08 -0.213,2.159 -0.244,3.248 -0.009,0.134 -0.009,0.268 -0.01,0.401 -0.009,0.24 0,0.478 0.019,0.716 0.01,0.259 0.038,0.516 0.077,0.775 0.198,1.185 0.493,2.36 0.873,3.516 0.179,0.584 0.39,1.176 0.646,1.759 0.153,0.354 0.523,1.882 1.121,4.588 0.249,0.869 0.313,1.672 0.197,2.407 -0.114,0.716 -0.402,1.367 -0.872,1.949 -0.268,0.343 -0.479,0.773 -0.632,1.279 -0.278,0.907 -0.386,2.092 -0.311,3.553 0.028,0.602 0.084,1.261 0.169,1.969 l 1.064,18.821 -0.004,2.724 m 75.277,0.734 c 0.868,0.058 1.603,0.431 2.224,1.121 0.687,0.765 1.029,1.693 1.027,2.772 l -0.004,2.961 c -10e-4,1.081 -0.347,1.998 -1.035,2.751 -0.679,0.763 -1.501,1.145 -2.485,1.144 l -74.751,-0.102 c -0.964,-0.002 -1.804,-0.386 -2.501,-1.151 -0.678,-0.755 -1.012,-1.673 -1.011,-2.753 l 0.004,-2.961 c 0.003,-1.72 0.78,-2.951 2.317,-3.703 0.163,0 0.326,0.001 0.488,-0.01 0.152,-0.009 0.306,-0.009 0.45,-0.019 0.543,-0.027 1.088,-0.046 1.634,-0.075 0.362,-0.007 0.724,-0.027 1.099,-0.035 0.716,0.029 1.423,0.049 2.138,0.079 0.604,0.067 1.215,0.106 1.816,0.116 0.058,0 0.117,0 0.172,0.01 0.669,0.01 1.338,0.01 2.016,0.002 0.611,-0.009 1.223,-0.026 1.834,-0.054 0.67,-0.029 1.328,-0.045 1.978,-0.055 0.622,-0.008 1.243,0.002 1.855,0.03 0.602,0.031 1.193,0.05 1.776,0.051 0.697,-0.008 1.395,-0.026 2.111,-0.063 0.448,-0.029 0.898,-0.047 1.347,-0.076 1.52,-0.103 2.761,-0.291 3.726,-0.558 1.588,-0.447 3.574,-0.119 5.962,0.992 0.507,0.24 1.041,0.508 1.585,0.814 3.083,1.743 6.17,1.938 9.247,0.596 0.247,-0.104 0.506,-0.21 0.765,-0.294 2.954,-0.876 5.917,-1.655 8.908,-2.33 0.123,-0.038 0.239,-0.075 0.364,-0.114 0.354,-0.113 0.716,-0.209 1.069,-0.275 0.727,-0.143 1.453,-0.189 2.179,-0.14 0.221,0.019 0.449,0.059 0.668,0.115 0.727,0.145 1.443,0.384 2.157,0.701 0.449,0.144 0.907,0.24 1.375,0.307 1.979,0.367 3.049,0.559 3.21,0.588 1.301,0.193 2.331,0.289 3.087,0.29 1.251,0.001 2.551,-0.054 3.88,-0.156 0.812,-0.066 2.188,-0.198 4.106,-0.416 l 3.213,-0.1 z"
         id="path1325" />
      <path
         inkscape:connector-curvature="0"
         style="fill:#afb6d4"
         d="m 588.374,148.344 h -0.02 c -1.146,-0.03 -2.141,0.896 -2.985,2.767 -0.891,1.843 -1.363,4.077 -1.403,6.705 l -0.195,30.763 c -0.595,1.347 -0.999,2.903 -1.201,4.66 -0.096,0.785 -0.153,1.606 -0.164,2.465 -0.109,2.218 0.165,3.964 0.813,5.237 l -0.759,24.647 c -0.042,2.32 0.308,4.309 1.043,5.981 0.723,1.645 1.628,2.468 2.709,2.469 h 0.019 c 1.04,10e-4 1.979,-0.819 2.796,-2.461 0.804,-1.671 1.233,-3.658 1.305,-5.979 l 0.365,-29.081 c -0.564,-0.45 -0.856,-1.54 -0.895,-3.27 -0.009,-0.237 -0.009,-0.486 10e-4,-0.744 l 1.29,-6.324 1.165,-28.354 c 0.053,-2.628 -0.286,-4.864 -1.041,-6.708 -0.753,-1.872 -1.696,-2.801 -2.843,-2.773"
         id="path1327" />
      <path
         inkscape:connector-curvature="0"
         style="fill:#afb6d4"
         d="m 577.744,151.1 c -0.771,-1.874 -1.733,-2.802 -2.88,-2.775 h -0.019 c -1.146,-0.03 -2.132,0.896 -2.946,2.767 -0.846,1.843 -1.286,4.076 -1.329,6.705 l -0.394,37.775 -0.872,6.838 c -0.161,0.842 -0.029,2.284 0.417,4.339 l 0.032,18.82 c -0.042,2.321 0.317,4.31 1.08,5.982 0.723,1.645 1.629,2.467 2.728,2.468 l 0.021,0 c 1.03,0.001 1.958,-0.819 2.773,-2.461 0.776,-1.671 1.2,-3.658 1.271,-5.979 l -0.065,-22.451 c -0.648,-1.501 -0.875,-3.221 -0.683,-5.141 l 1.33,-7.414 0.638,-32.768 c 0.031,-2.625 -0.337,-4.86 -1.102,-6.705"
         id="path1329" />
      <path
         inkscape:connector-curvature="0"
         style="fill:#afb6d4"
         d="m 564.6,151.082 c -0.79,-1.874 -1.744,-2.802 -2.882,-2.774 l -0.018,0 c -1.149,-0.03 -2.132,0.896 -2.949,2.767 -0.842,1.842 -1.266,4.077 -1.27,6.705 l -0.353,48.859 0.835,3.955 c 0.2,0.909 0.111,2.666 -0.275,5.292 l -0.375,9.668 c -0.003,2.321 0.385,4.31 1.158,5.982 0.749,1.645 1.656,2.467 2.728,2.469 l 0.019,0 c 1.069,0.001 1.989,-0.819 2.758,-2.461 0.763,-1.67 1.159,-3.658 1.191,-5.979 l 0.608,-67.773 c 0.015,-2.63 -0.376,-4.865 -1.175,-6.71"
         id="path1331" />
      <path
         inkscape:connector-curvature="0"
         style="fill:#afb6d4"
         d="m 548.629,148.289 c -1.156,-0.031 -2.131,0.896 -2.928,2.767 -0.804,1.843 -1.188,4.077 -1.155,6.705 l 0.524,7.739 -0.348,2.483 0.678,36.535 0.625,3.593 c 0.447,1.616 0.128,3.993 -0.946,7.126 l -0.052,10.298 c -0.012,2.321 0.375,4.309 1.175,5.982 0.763,1.644 1.688,2.468 2.769,2.469 h 0.018 c 1.062,0.001 1.97,-0.82 2.739,-2.462 0.765,-1.67 1.149,-3.658 1.153,-5.979 l 0.185,-11.119 0.444,-3.687 -0.681,-2.543 -0.048,-50.425 c 0.004,-2.628 -0.404,-4.864 -1.214,-6.709 -0.799,-1.873 -1.772,-2.801 -2.919,-2.774 h -0.019 z"
         id="path1333" />
      <path
         inkscape:connector-curvature="0"
         style="fill:#afb6d4"
         d="m 535.98,148.272 h -0.02 c -1.155,-0.031 -2.132,0.896 -2.909,2.767 -0.794,1.842 -1.162,4.077 -1.098,6.705 l 1.5,7.474 -1.074,3.456 0.927,34.052 c 0.657,2.608 0.986,5.132 0.983,7.567 l -0.865,3.878 -0.377,11.349 c 0.023,2.32 0.442,4.309 1.252,5.981 0.79,1.645 1.705,2.468 2.767,2.469 h 0.02 c 1.07,0.001 1.979,-0.819 2.718,-2.461 0.736,-1.67 1.102,-3.658 1.078,-5.979 l -0.487,-9.229 c -0.026,-0.985 0.041,-1.739 0.196,-2.274 0.144,-0.534 0.259,-0.888 0.362,-1.068 0.088,-0.183 0.184,-0.392 0.27,-0.632 0.278,-0.725 0.413,-1.46 0.405,-2.214 10e-4,-0.536 -0.046,-1.062 -0.151,-1.587 -0.161,-0.84 -0.37,-1.673 -0.627,-2.505 l -0.379,-2.388 -0.411,-34.355 c 0.767,-1.806 1.197,-3.144 1.285,-3.995 l -0.549,-2.999 -0.568,-4.53 c -0.043,-2.628 -0.48,-4.864 -1.311,-6.709 -0.835,-1.872 -1.82,-2.8 -2.937,-2.773"
         id="path1335" />
      <path
         inkscape:connector-curvature="0"
         style="fill:#afb6d4"
         d="m 523.273,148.254 h -0.02 c -1.156,-0.031 -2.112,0.896 -2.851,2.767 -0.774,1.843 -1.144,3.676 -1.097,5.501 -0.049,0.306 -0.068,0.603 -0.04,0.898 0.087,0.688 0.333,1.3 0.725,1.835 0.43,0.585 0.725,1.253 0.877,1.988 0.065,0.298 0.143,0.718 0.226,1.281 -0.335,0.908 -0.643,1.938 -0.922,3.114 l -0.442,1.777 1.634,36.23 1.502,4.053 c 0.524,1.521 0.37,2.944 -0.462,4.28 -0.699,0.812 -1.104,2.464 -1.192,4.947 0.265,2.637 0.213,5.493 -0.145,8.579 0.044,2.321 0.48,4.31 1.292,5.981 0.809,1.645 1.762,2.468 2.842,2.47 h 0.021 c 1.04,10e-4 1.938,-0.819 2.677,-2.461 0.719,-1.671 1.055,-3.658 1.021,-5.979 l -0.196,-10.547 c 0.722,-3.124 0.944,-5.301 0.678,-6.534 l -0.738,-3.862 -1.576,-36.039 c -0.011,-0.382 0.134,-0.832 0.442,-1.337 0.307,-0.504 0.642,-1.374 1.014,-2.597 0.087,-0.344 0.164,-0.602 0.23,-0.784 l -1.119,-5.006 c -0.112,-0.585 -0.179,-1.242 -0.188,-1.969 0.049,-2.025 -0.348,-3.965 -1.196,-5.81 -0.868,-1.874 -1.86,-2.803 -2.997,-2.776"
         id="path1337" />
      <path
         inkscape:connector-curvature="0"
         style="fill:#afb6d4"
         d="m 599.718,167.257 -0.239,-6.726 c -0.301,-4.328 -2.256,-6.414 -5.856,-6.257 l -20.352,-0.028 c -2.016,-0.089 -3.412,0.473 -4.188,1.695 -0.162,0.373 -0.307,0.745 -0.421,1.126 -0.125,0.43 -0.202,0.879 -0.212,1.338 -0.012,0.611 0.017,1.213 0.093,1.815 0.075,0.564 0.123,1.118 0.131,1.661 0.009,0.765 0.036,1.52 0.074,2.275 0.034,0.688 0.083,1.376 0.132,2.063 0.008,0.164 0.027,0.335 0.036,0.497 l 0.582,7.493 c 0.074,0.838 0.235,1.662 0.475,2.464 0.065,0.201 0.134,0.41 0.209,0.61 0.828,1.464 2.147,2.269 3.972,2.395 2.522,-0.073 5.045,-0.022 7.565,0.144 1.137,0.011 2.379,0.07 3.728,0.158 1.918,0.089 3.951,0.12 6.095,0.085 0.965,-0.075 1.938,-0.141 2.924,-0.206 0.458,-0.037 0.927,-0.085 1.396,-0.132 0.41,-0.038 0.811,-0.077 1.222,-0.113 2.446,-0.503 3.548,-2.545 3.295,-6.129 l -0.661,-6.228 z m -5.779,-8.301 c 0.508,0.144 0.792,0.661 0.858,1.569 0.539,3.736 0.838,7.711 0.882,11.943 0.159,1.108 0.044,1.92 -0.349,2.445 -0.029,0.039 -0.057,0.066 -0.096,0.095 -4.216,0.596 -7.911,0.792 -11.086,0.597 -3.17,-0.196 -5.396,-0.313 -6.667,-0.354 -1.289,-0.048 -2.263,-0.145 -2.923,-0.271 l -0.398,-0.382 c -0.163,-0.268 -0.27,-0.65 -0.306,-1.147 l -0.751,-8.562 -0.147,-4.394 c -0.066,-0.917 0.146,-1.443 0.632,-1.567 l 20.351,0.028 z"
         id="path1339" />
      <path
         inkscape:connector-curvature="0"
         style="fill:none;stroke:#727a90;stroke-width:1.52869999;stroke-linecap:round;stroke-linejoin:round;stroke-miterlimit:10"
         d="m 599.479,160.531 c -0.301,-4.328 -2.256,-6.414 -5.859,-6.257 l -20.349,-0.028 c -2.016,-0.089 -3.412,0.473 -4.188,1.695 -0.162,0.373 -0.307,0.745 -0.421,1.126 -0.125,0.43 -0.202,0.879 -0.212,1.338 -0.012,0.611 0.017,1.213 0.093,1.815 0.075,0.564 0.123,1.118 0.131,1.661 0.009,0.765 0.036,1.521 0.074,2.275 0.034,0.688 0.083,1.376 0.132,2.063 0.008,0.164 0.027,0.335 0.036,0.497 l 0.582,7.493 c 0.074,0.838 0.235,1.662 0.475,2.464 0.065,0.201 0.134,0.41 0.209,0.61 0.828,1.464 2.147,2.269 3.972,2.395 2.522,-0.073 5.045,-0.022 7.565,0.144 1.137,0.011 2.379,0.07 3.728,0.158 1.918,0.089 3.951,0.12 6.095,0.085 0.965,-0.075 1.938,-0.141 2.924,-0.206 0.458,-0.037 0.927,-0.085 1.396,-0.132 0.41,-0.038 0.811,-0.077 1.222,-0.113 2.446,-0.503 3.548,-2.545 3.295,-6.129 l -0.659,-6.229 -0.241,-6.725 z m -5.54,-1.575 -20.351,-0.028 c -0.486,0.125 -0.698,0.65 -0.632,1.567 l 0.147,4.394 0.751,8.562 c 0.038,0.497 0.143,0.879 0.306,1.147 l 0.398,0.382 c 0.66,0.126 1.634,0.223 2.923,0.271 1.271,0.041 3.497,0.158 6.667,0.354 3.175,0.195 6.87,-10e-4 11.086,-0.597 0.039,-0.029 0.066,-0.057 0.096,-0.095 0.393,-0.525 0.508,-1.336 0.349,-2.445 -0.044,-4.232 -0.343,-8.207 -0.882,-11.943 -0.066,-0.908 -0.35,-1.425 -0.858,-1.569 z"
         id="path1341" />
      <path
         inkscape:connector-curvature="0"
         style="fill:#c6cee3"
         d="m 591.482,153.507 c -0.039,-0.889 -0.583,-1.348 -1.641,-1.36 l -7.147,-0.046 c -1.328,-0.061 -2.562,-0.071 -3.688,-0.043 -1.424,-0.032 -2.265,0.235 -2.515,0.797 -0.146,1.271 -0.175,2.733 -0.071,4.376 l 0.031,4.28 c 0.152,0.125 0.296,0.222 0.44,0.269 0.657,0.115 1.306,0.155 1.949,0.117 h 0.151 0.269 c 2.856,0.014 5.636,0.038 8.351,0.051 l 3.494,0.062 c 0.299,-0.716 0.434,-1.423 0.425,-2.139 l -0.048,-6.364 z"
         id="path1343" />
      <path
         inkscape:connector-curvature="0"
         style="fill:none;stroke:#727a90;stroke-width:1.52869999;stroke-linecap:round;stroke-linejoin:round;stroke-miterlimit:10"
         d="m 589.84,152.148 -7.146,-0.047 c -1.328,-0.06 -2.562,-0.072 -3.688,-0.044 -1.424,-0.032 -2.265,0.236 -2.515,0.798 -0.146,1.271 -0.175,2.733 -0.071,4.377 l 0.031,4.279 c 0.152,0.125 0.296,0.222 0.44,0.269 0.657,0.116 1.306,0.155 1.949,0.118 h 0.151 0.269 c 2.856,0.013 5.636,0.037 8.351,0.05 l 3.493,0.062 c 0.3,-0.716 0.435,-1.423 0.426,-2.14 l -0.05,-6.362 c -0.037,-0.889 -0.581,-1.349 -1.64,-1.36 z"
         id="path1345" />
      <path
         inkscape:connector-curvature="0"
         style="fill:#245e27"
         d="m 541.177,119.627 c -0.696,-0.546 -1.668,-1.178 -2.9,-1.896 -0.028,-0.028 -0.049,-0.038 -0.077,-0.038 -1.145,-0.527 -2.405,-0.969 -3.78,-1.323 l -0.019,-0.02 c -2.521,-0.605 -5.036,-0.875 -7.528,-0.832 -2.561,0.044 -4.939,0.489 -7.149,1.328 h 0.021 c -2.228,0.799 -4.264,1.953 -6.1,3.468 v 0.02 c -1.828,1.498 -3.416,3.235 -4.787,5.19 -1.375,1.976 -2.45,4.133 -3.217,6.491 -0.795,2.436 -0.78,4.9 0.027,7.396 v -0.02 c 0.449,1.417 1.201,2.334 2.27,2.756 0.775,0.345 1.73,0.394 2.867,0.156 0.113,1.032 0.408,2.035 0.874,3 1.363,2.783 3.407,3.932 6.128,3.45 2.477,-0.427 4.352,-1.782 5.626,-4.044 0.799,1.834 2.27,3.089 4.408,3.75 h -0.02 c 1.576,0.537 3.096,0.397 4.548,-0.414 2.515,-1.374 4.123,-3.483 4.824,-6.318 0.586,-2.358 0.781,-4.729 0.582,-7.106 -0.007,-0.191 -0.027,-0.384 -0.056,-0.574 0.144,0.114 0.276,0.218 0.421,0.324 0.485,0.412 1.012,0.718 1.583,0.938 0.507,0.202 1.081,0.355 1.721,0.442 0.583,0.049 1.175,0.011 1.758,-0.112 0.944,-0.238 1.653,-0.83 2.142,-1.756 l 0.019,-0.019 c 0.373,-0.697 0.633,-1.422 0.787,-2.177 l 0.02,-0.02 c 0.114,-0.657 0.184,-1.309 0.213,-1.949 v -0.038 c 0.002,-0.583 -0.038,-1.176 -0.113,-1.758 v -0.018 c -0.122,-0.813 -0.35,-1.616 -0.665,-2.391 v 0.02 c -0.294,-0.765 -0.657,-1.482 -1.105,-2.161 -0.009,-0.009 -0.02,-0.029 -0.02,-0.039 -0.419,-0.688 -0.905,-1.338 -1.469,-1.95 v -0.02 c -0.574,-0.635 -1.183,-1.21 -1.834,-1.736 m -7.143,-1.787 h -0.02 c 1.271,0.337 2.455,0.739 3.535,1.227 1.144,0.661 2.04,1.255 2.69,1.762 h -0.019 c 0.581,0.458 1.135,0.985 1.642,1.569 h 0.017 c 0.497,0.545 0.927,1.138 1.297,1.759 l 0.021,0.021 c 0.391,0.602 0.724,1.234 0.991,1.912 0,0.01 0.009,0.029 0.018,0.039 0.278,0.562 0.458,1.157 0.534,1.778 0.104,0.764 0.133,1.499 0.092,2.197 -0.038,0.726 -0.153,1.424 -0.346,2.101 -0.155,0.582 -0.461,1.06 -0.92,1.414 -0.611,0.428 -1.271,0.656 -1.987,0.684 -0.573,-0.001 -1.203,-0.173 -1.893,-0.518 -0.686,-0.354 -1.174,-0.66 -1.449,-0.9 -0.276,-0.239 -0.432,-0.372 -0.46,-0.402 -0.486,-0.422 -1.287,-1.358 -2.401,-2.812 l 0.587,2.809 c 0.342,1.606 0.465,3.241 0.377,4.912 -0.089,1.671 -0.407,3.276 -0.943,4.814 -0.586,1.651 -1.591,2.987 -3.008,3.989 -0.236,0.161 -0.478,0.333 -0.705,0.495 -0.029,0 -0.049,0.009 -0.059,0.02 -1.062,0.58 -2.159,0.685 -3.306,0.301 h -0.02 c -0.64,-0.201 -1.193,-0.47 -1.679,-0.786 -1.556,-1.292 -2.377,-2.946 -2.479,-4.97 -0.046,-1.109 -0.025,-2.599 0.082,-4.472 -0.545,1.118 -0.882,2.244 -0.999,3.361 -0.145,1.11 -0.317,1.939 -0.536,2.502 -0.231,0.545 -0.47,1.05 -0.709,1.508 -0.24,0.46 -0.595,0.907 -1.053,1.337 -0.202,0.19 -0.413,0.363 -0.612,0.516 -0.297,0.229 -0.612,0.437 -0.957,0.628 -0.563,0.277 -1.165,0.487 -1.816,0.609 -1.098,0.18 -2.034,-0.012 -2.827,-0.558 -1.384,-1.254 -2.193,-2.822 -2.421,-4.724 -0.197,-1.67 -0.177,-3.333 0.066,-5.005 0.009,-0.115 0.027,-0.22 0.037,-0.324 0.078,-0.43 0.193,-0.984 0.348,-1.664 l -1.036,1.567 c -0.507,0.983 -0.804,1.899 -0.881,2.75 -0.079,0.84 -0.116,1.328 -0.116,1.47 -0.039,0.01 -0.069,0.028 -0.098,0.039 -1.174,0.39 -2.169,0.139 -2.98,-0.769 l -0.169,-0.287 c -0.145,-0.239 -0.26,-0.506 -0.345,-0.804 -0.714,-2.179 -0.721,-4.329 -0.028,-6.438 0.718,-2.216 1.727,-4.248 3.027,-6.092 1.291,-1.86 2.783,-3.492 4.498,-4.903 1.692,-1.413 3.574,-2.49 5.639,-3.223 2.056,-0.771 4.273,-1.188 6.652,-1.233 2.37,-0.044 4.75,0.218 7.127,0.794"
         id="path1347" />
      <path
         inkscape:connector-curvature="0"
         style="fill:#9ec94b"
         d="m 534.015,117.84 h 0.02 c -2.377,-0.576 -4.757,-0.837 -7.126,-0.793 -2.378,0.045 -4.597,0.462 -6.652,1.233 -2.064,0.732 -3.946,1.81 -5.639,3.223 -1.715,1.411 -3.207,3.042 -4.498,4.903 -1.302,1.844 -2.308,3.875 -3.027,6.092 -0.692,2.11 -0.686,4.26 0.028,6.438 0.085,0.298 0.2,0.565 0.345,0.804 l 0.17,0.287 c 0.812,0.908 1.803,1.158 2.979,0.769 0.028,-0.011 0.059,-0.029 0.098,-0.039 0,-0.142 0.037,-0.63 0.116,-1.47 0.077,-0.851 0.374,-1.768 0.883,-2.75 l 1.034,-1.567 c -0.154,0.68 -0.27,1.233 -0.348,1.664 -0.01,0.104 -0.028,0.209 -0.037,0.324 -0.243,1.672 -0.264,3.335 -0.066,5.005 0.228,1.902 1.038,3.47 2.422,4.724 0.792,0.545 1.728,0.738 2.826,0.558 0.651,-0.122 1.253,-0.332 1.816,-0.609 0.345,-0.191 0.66,-0.399 0.957,-0.628 0.199,-0.153 0.41,-0.326 0.613,-0.516 0.457,-0.43 0.811,-0.877 1.052,-1.337 0.239,-0.458 0.478,-0.963 0.709,-1.508 0.219,-0.562 0.392,-1.392 0.536,-2.502 0.117,-1.117 0.454,-2.243 0.999,-3.361 -0.106,1.873 -0.128,3.363 -0.081,4.472 0.101,2.024 0.922,3.678 2.478,4.97 0.485,0.316 1.039,0.584 1.68,0.786 h 0.018 c 1.147,0.384 2.244,0.279 3.307,-0.301 0.012,-0.011 0.029,-0.02 0.059,-0.02 0.228,-0.162 0.469,-0.334 0.705,-0.495 1.417,-1.002 2.423,-2.338 3.008,-3.989 0.538,-1.539 0.854,-3.144 0.943,-4.814 0.089,-1.671 -0.035,-3.306 -0.375,-4.912 l -0.591,-2.809 c 1.116,1.454 1.917,2.39 2.403,2.812 0.03,0.03 0.184,0.163 0.46,0.402 0.275,0.24 0.764,0.545 1.449,0.9 0.689,0.345 1.319,0.517 1.893,0.518 0.717,-0.027 1.376,-0.256 1.987,-0.684 0.459,-0.354 0.767,-0.832 0.92,-1.414 0.192,-0.677 0.309,-1.375 0.346,-2.101 0.041,-0.698 0.012,-1.433 -0.092,-2.197 -0.076,-0.621 -0.256,-1.215 -0.534,-1.778 -0.008,-0.01 -0.017,-0.029 -0.017,-0.039 -0.269,-0.678 -0.602,-1.31 -0.991,-1.912 l -0.021,-0.021 c -0.37,-0.621 -0.8,-1.214 -1.296,-1.759 h -0.018 c -0.507,-0.584 -1.06,-1.111 -1.642,-1.569 h 0.019 c -0.648,-0.507 -1.547,-1.101 -2.69,-1.762 -1.082,-0.489 -2.267,-0.891 -3.537,-1.228"
         id="path1349" />
      <path
         inkscape:connector-curvature="0"
         style="fill:#245e27"
         d="m 571.675,119.669 c 0.699,-0.544 1.674,-1.173 2.906,-1.889 0.029,-0.028 0.047,-0.038 0.077,-0.038 1.146,-0.524 2.406,-0.961 3.784,-1.312 l 0.021,-0.02 c 2.523,-0.598 5.035,-0.862 7.529,-0.811 2.559,0.051 4.938,0.502 7.145,1.348 h -0.02 c 2.226,0.806 4.26,1.963 6.093,3.484 v 0.02 c 1.821,1.503 3.403,3.244 4.768,5.204 1.373,1.979 2.44,4.14 3.202,6.5 0.789,2.438 0.766,4.902 -0.05,7.396 v -0.02 c -0.449,1.415 -1.206,2.33 -2.276,2.75 -0.776,0.342 -1.729,0.389 -2.868,0.149 -0.113,1.031 -0.413,2.034 -0.881,2.997 -1.371,2.779 -3.417,3.922 -6.14,3.433 -2.474,-0.434 -4.346,-1.793 -5.611,-4.059 -0.807,1.833 -2.277,3.083 -4.419,3.738 h 0.02 c -1.579,0.533 -3.098,0.388 -4.55,-0.426 -2.511,-1.38 -4.111,-3.494 -4.805,-6.332 -0.58,-2.36 -0.768,-4.731 -0.564,-7.109 0.014,-0.19 0.029,-0.382 0.059,-0.572 -0.144,0.113 -0.277,0.218 -0.42,0.323 -0.487,0.411 -1.015,0.715 -1.588,0.934 -0.507,0.201 -1.08,0.353 -1.72,0.438 -0.582,0.047 -1.176,0.008 -1.759,-0.116 -0.945,-0.241 -1.651,-0.834 -2.14,-1.761 l -0.019,-0.02 c -0.371,-0.697 -0.628,-1.424 -0.78,-2.179 l -0.019,-0.02 c -0.113,-0.657 -0.18,-1.309 -0.206,-1.949 v -0.038 c 0.001,-0.583 0.041,-1.175 0.114,-1.758 v -0.019 c 0.128,-0.813 0.357,-1.614 0.675,-2.388 v 0.019 c 0.297,-0.764 0.661,-1.48 1.11,-2.158 0.012,-0.009 0.021,-0.029 0.021,-0.039 0.42,-0.688 0.908,-1.336 1.475,-1.946 v -0.02 c 0.572,-0.637 1.184,-1.211 1.836,-1.734 m 7.149,-1.768 h 0.02 c -1.273,0.333 -2.458,0.732 -3.538,1.217 -1.148,0.658 -2.046,1.25 -2.696,1.755 h 0.02 c -0.585,0.457 -1.138,0.982 -1.647,1.565 h -0.018 c -0.498,0.543 -0.929,1.135 -1.302,1.755 l -0.021,0.02 c -0.39,0.601 -0.728,1.231 -0.996,1.909 0,0.01 -0.007,0.028 -0.017,0.039 -0.277,0.562 -0.463,1.156 -0.539,1.777 -0.107,0.764 -0.136,1.499 -0.1,2.197 0.04,0.726 0.151,1.424 0.343,2.102 0.151,0.583 0.456,1.062 0.914,1.416 0.611,0.43 1.271,0.66 1.987,0.689 0.574,10e-4 1.204,-0.169 1.893,-0.512 0.688,-0.353 1.174,-0.657 1.453,-0.896 0.277,-0.238 0.431,-0.371 0.458,-0.401 0.489,-0.42 1.292,-1.354 2.411,-2.805 l -0.597,2.807 c -0.345,1.605 -0.471,3.239 -0.387,4.911 0.081,1.671 0.397,3.277 0.929,4.817 0.581,1.652 1.582,2.991 2.995,3.998 0.239,0.161 0.477,0.334 0.707,0.498 0.027,0 0.046,0.009 0.056,0.019 1.06,0.583 2.16,0.69 3.306,0.31 h 0.019 c 0.641,-0.199 1.195,-0.466 1.686,-0.781 1.557,-1.288 2.382,-2.94 2.486,-4.963 0.052,-1.109 0.033,-2.6 -0.068,-4.473 0.543,1.12 0.876,2.247 0.988,3.365 0.141,1.109 0.313,1.939 0.533,2.503 0.228,0.545 0.467,1.051 0.703,1.51 0.238,0.46 0.592,0.909 1.051,1.339 0.199,0.191 0.409,0.364 0.611,0.518 0.294,0.229 0.609,0.439 0.953,0.631 0.564,0.278 1.165,0.49 1.815,0.613 1.099,0.184 2.035,-0.006 2.827,-0.549 1.387,-1.25 2.203,-2.816 2.433,-4.717 0.206,-1.67 0.188,-3.333 -0.049,-5.005 -0.01,-0.116 -0.029,-0.221 -0.038,-0.325 -0.076,-0.431 -0.191,-0.984 -0.342,-1.664 l 1.029,1.569 c 0.505,0.985 0.8,1.902 0.876,2.753 0.076,0.841 0.113,1.329 0.113,1.47 0.038,0.011 0.066,0.029 0.095,0.039 1.174,0.393 2.169,0.146 2.982,-0.76 l 0.171,-0.287 c 0.146,-0.238 0.262,-0.505 0.347,-0.802 0.719,-2.177 0.731,-4.327 0.045,-6.439 -0.714,-2.217 -1.711,-4.253 -3.01,-6.1 -1.288,-1.864 -2.773,-3.5 -4.483,-4.916 -1.688,-1.417 -3.57,-2.5 -5.633,-3.238 -2.054,-0.776 -4.268,-1.2 -6.646,-1.251 -2.37,-0.052 -4.75,0.204 -7.128,0.773"
         id="path1351" />
      <path
         inkscape:connector-curvature="0"
         style="fill:#9ec94b"
         d="m 578.844,117.901 h -0.02 c 2.378,-0.57 4.758,-0.825 7.128,-0.774 2.379,0.052 4.596,0.475 6.646,1.251 2.062,0.738 3.944,1.82 5.633,3.238 1.71,1.416 3.195,3.051 4.483,4.916 1.299,1.847 2.298,3.882 3.01,6.1 0.687,2.112 0.675,4.262 -0.045,6.439 -0.085,0.297 -0.201,0.564 -0.347,0.802 l -0.171,0.287 c -0.813,0.906 -1.809,1.153 -2.982,0.76 -0.028,-0.01 -0.057,-0.028 -0.095,-0.039 0,-0.142 -0.037,-0.629 -0.112,-1.47 -0.077,-0.851 -0.371,-1.768 -0.877,-2.753 l -1.028,-1.569 c 0.152,0.68 0.265,1.233 0.341,1.664 0.009,0.104 0.028,0.209 0.038,0.325 0.236,1.672 0.255,3.335 0.049,5.005 -0.229,1.901 -1.043,3.468 -2.433,4.717 -0.792,0.543 -1.729,0.733 -2.827,0.549 -0.65,-0.123 -1.251,-0.335 -1.815,-0.613 -0.344,-0.192 -0.658,-0.401 -0.953,-0.631 -0.202,-0.154 -0.412,-0.327 -0.611,-0.518 -0.457,-0.431 -0.812,-0.879 -1.051,-1.339 -0.236,-0.459 -0.475,-0.965 -0.705,-1.51 -0.219,-0.563 -0.39,-1.394 -0.53,-2.503 -0.115,-1.118 -0.446,-2.245 -0.991,-3.365 0.104,1.874 0.122,3.364 0.073,4.473 -0.108,2.023 -0.933,3.675 -2.489,4.963 -0.49,0.315 -1.045,0.582 -1.686,0.781 h -0.019 c -1.146,0.38 -2.246,0.273 -3.306,-0.31 -0.01,-0.01 -0.028,-0.019 -0.056,-0.019 -0.23,-0.163 -0.468,-0.336 -0.706,-0.498 -1.414,-1.006 -2.415,-2.345 -2.996,-3.998 -0.533,-1.54 -0.845,-3.146 -0.929,-4.817 -0.085,-1.672 0.042,-3.306 0.387,-4.911 l 0.598,-2.807 c -1.121,1.451 -1.923,2.385 -2.412,2.805 -0.027,0.03 -0.181,0.163 -0.458,0.401 -0.279,0.239 -0.765,0.543 -1.454,0.896 -0.688,0.343 -1.317,0.514 -1.893,0.512 -0.716,-0.029 -1.375,-0.259 -1.985,-0.689 -0.459,-0.354 -0.765,-0.833 -0.915,-1.416 -0.191,-0.678 -0.303,-1.376 -0.343,-2.102 -0.036,-0.698 -0.008,-1.433 0.1,-2.197 0.076,-0.621 0.262,-1.214 0.539,-1.777 0.01,-0.01 0.019,-0.028 0.019,-0.039 0.267,-0.677 0.603,-1.308 0.994,-1.909 l 0.021,-0.02 c 0.373,-0.62 0.804,-1.212 1.302,-1.755 h 0.02 c 0.508,-0.583 1.061,-1.108 1.646,-1.565 h -0.02 c 0.649,-0.505 1.548,-1.097 2.696,-1.755 1.079,-0.483 2.263,-0.882 3.537,-1.216"
         id="path1353" />
      <path
         inkscape:connector-curvature="0"
         style="fill:#595f73"
         d="m 513.895,35.982 -1.334,8.163 c 3.41,1.822 7.357,3.234 11.863,4.239 2.613,0.354 5.939,1.393 9.979,3.119 21.614,5.551 45.25,7.593 70.911,6.149 l 0.414,-9.095 -91.833,-12.575 z"
         id="path1355" />
      <path
         inkscape:connector-curvature="0"
         style="fill:none;stroke:#727a90;stroke-width:1.52649999;stroke-linecap:round;stroke-linejoin:round;stroke-miterlimit:10"
         d="m 513.895,35.982 91.833,12.575 -0.414,9.095 c -25.661,1.444 -49.297,-0.598 -70.911,-6.149 -4.039,-1.726 -7.365,-2.765 -9.979,-3.119 -4.506,-1.005 -8.453,-2.417 -11.863,-4.239 l 1.334,-8.163 z"
         id="path1357" />
      <path
         inkscape:connector-curvature="0"
         style="fill:#9ec94b"
         d="m 592.903,54.625 c 1.711,-0.163 2.954,-0.749 3.729,-1.765 -1.706,-0.247 -3.544,-1.209 -5.519,-2.89 -4.877,-5.836 -12.396,-9.26 -22.571,-10.273 0.291,-1.105 1.05,-2.055 2.274,-2.842 -2.679,-0.537 -5.78,-0.314 -9.327,0.67 -0.829,-0.442 -0.853,-1.301 -0.072,-2.567 -3.502,0.088 -6.838,1.559 -9.992,4.397 -4.152,-1.48 -8.417,-1.921 -12.777,-1.331 1.999,0.668 3.265,1.598 3.782,2.804 -6.197,0.847 -12.08,3.709 -17.656,8.585 -2.043,1.784 -4.002,2.805 -5.885,3.063 0.769,1.024 2.008,1.622 3.714,1.803 -3.853,5.37 -7.044,8.313 -9.567,8.826 0.893,1.063 2.294,1.643 4.189,1.737 -0.395,0.857 -0.914,1.656 -1.566,2.388 -1.582,1.795 -3.938,3.187 -7.042,4.192 1.107,1.733 3.557,2.412 7.346,2.021 -0.588,0.99 -1.039,2.019 -1.369,3.085 -0.3,0.962 -0.439,1.935 -0.415,2.927 0.015,0.964 0.189,1.9 0.529,2.798 0.33,0.879 0.831,1.75 1.484,2.621 0.635,-0.865 1.362,-1.577 2.185,-2.156 0.294,0.908 0.623,1.798 1,2.667 0.132,0.296 0.273,0.603 0.416,0.899 2.475,5.136 6.528,9.193 12.152,12.16 -0.024,-0.802 0.15,-1.564 0.526,-2.298 4.131,3.896 9.366,6.421 15.726,7.587 -0.062,-0.839 0.171,-1.611 0.681,-2.325 0.379,0.423 0.788,0.825 1.233,1.21 0.429,0.354 0.884,0.701 1.359,1.017 0.503,0.356 1.038,0.683 1.589,0.961 0.627,0.308 1.295,0.579 1.989,0.812 0.363,0.118 0.735,0.205 1.117,0.272 0.685,0.127 1.382,0.179 2.088,0.145 0.603,-0.046 1.176,-0.157 1.72,-0.344 0.62,-0.217 1.204,-0.463 1.758,-0.726 0.584,-0.266 1.11,-0.578 1.599,-0.929 0.499,-0.349 0.996,-0.709 1.484,-1.08 0.498,-0.371 0.948,-0.788 1.351,-1.253 0.502,0.719 0.729,1.493 0.657,2.331 6.369,-1.103 11.632,-3.577 15.801,-7.43 0.368,0.736 0.536,1.5 0.503,2.302 6.791,-3.488 11.331,-8.57 13.606,-15.239 0.895,0.406 1.721,1.068 2.481,1.988 2.441,-3.728 2.488,-7.592 0.142,-11.592 3.784,0.43 6.242,-0.227 7.365,-1.948 -3.094,-1.036 -5.435,-2.451 -7.002,-4.261 -0.644,-0.738 -1.155,-1.542 -1.542,-2.403 1.898,-0.076 3.305,-0.643 4.207,-1.697 -2.517,-0.535 -5.68,-3.509 -9.48,-8.919"
         id="path1359" />
      <path
         inkscape:connector-curvature="0"
         style="fill:none;stroke:#245e27;stroke-width:1.52649999;stroke-linecap:round;stroke-miterlimit:10"
         d="m 592.903,54.625 c 3.802,5.41 6.963,8.384 9.48,8.921 -0.902,1.054 -2.309,1.621 -4.207,1.697 0.387,0.86 0.898,1.665 1.542,2.403 1.567,1.811 3.908,3.225 7.002,4.261 -1.123,1.721 -3.581,2.378 -7.365,1.948 2.347,4 2.3,7.864 -0.142,11.592 -0.761,-0.92 -1.587,-1.582 -2.481,-1.988 -2.275,6.668 -6.815,11.751 -13.606,15.239 0.033,-0.803 -0.135,-1.566 -0.503,-2.302 -4.169,3.853 -9.432,6.327 -15.801,7.43 0.072,-0.838 -0.155,-1.612 -0.657,-2.331 -0.402,0.465 -0.853,0.883 -1.351,1.253 -0.488,0.37 -0.984,0.73 -1.484,1.08 -0.488,0.351 -1.015,0.664 -1.599,0.929 -0.554,0.263 -1.138,0.508 -1.758,0.726 -0.544,0.188 -1.117,0.298 -1.72,0.344 -0.706,0.034 -1.403,-0.018 -2.088,-0.145 -0.382,-0.067 -0.754,-0.155 -1.117,-0.272 -0.694,-0.232 -1.362,-0.503 -1.989,-0.812 -0.551,-0.278 -1.086,-0.605 -1.589,-0.961 -0.476,-0.316 -0.931,-0.663 -1.359,-1.017 -0.445,-0.386 -0.854,-0.788 -1.233,-1.21 -0.51,0.714 -0.743,1.486 -0.681,2.325 -6.357,-1.167 -11.595,-3.692 -15.726,-7.587 -0.375,0.734 -0.551,1.496 -0.526,2.298 -5.623,-2.967 -9.678,-7.023 -12.152,-12.16 -0.143,-0.296 -0.283,-0.603 -0.416,-0.899 -0.377,-0.87 -0.706,-1.759 -1,-2.667 -0.821,0.579 -1.55,1.291 -2.185,2.156 -0.653,-0.871 -1.154,-1.742 -1.484,-2.621 -0.34,-0.898 -0.515,-1.834 -0.529,-2.798 -0.024,-0.993 0.115,-1.965 0.415,-2.927 0.33,-1.067 0.782,-2.096 1.369,-3.085 -3.789,0.391 -6.238,-0.288 -7.346,-2.021 3.104,-1.005 5.46,-2.396 7.042,-4.192 0.652,-0.731 1.172,-1.531 1.566,-2.388 -1.896,-0.095 -3.297,-0.674 -4.189,-1.737 2.523,-0.512 5.715,-3.456 9.567,-8.826 -1.706,-0.182 -2.945,-0.779 -3.714,-1.803 1.883,-0.258 3.842,-1.279 5.885,-3.063 5.576,-4.876 11.459,-7.739 17.656,-8.585 -0.518,-1.206 -1.783,-2.136 -3.782,-2.804 4.36,-0.59 8.625,-0.149 12.777,1.331 3.154,-2.838 6.49,-4.309 9.993,-4.397 -0.78,1.266 -0.758,2.125 0.071,2.567 3.547,-0.984 6.648,-1.207 9.327,-0.67 -1.225,0.787 -1.983,1.737 -2.274,2.842 10.176,1.013 17.694,4.437 22.571,10.273 1.978,1.681 3.812,2.644 5.519,2.89 -0.773,1.014 -2.016,1.599 -3.729,1.763 z"
         id="path1361" />
      <path
         inkscape:connector-curvature="0"
         style="fill:#1f1a19"
         d="m 582.029,77.921 c 2.411,-1.027 4.783,-2.4 7.12,-4.105 -20.18,9.518 -40.308,10.202 -60.381,2.04 2.217,1.452 4.775,2.685 7.683,3.702 15.66,5.21 30.854,4.664 45.578,-1.637"
         id="path1363" />
      <path
         inkscape:connector-curvature="0"
         style="fill:none;stroke:#1f1a19;stroke-width:0.0095;stroke-linecap:round;stroke-linejoin:round;stroke-miterlimit:10"
         d="m 589.149,73.815 c -20.181,9.518 -40.308,10.202 -60.381,2.04 2.217,1.452 4.775,2.685 7.683,3.702 15.66,5.21 30.854,4.665 45.578,-1.636 2.41,-1.027 4.783,-2.4 7.12,-4.106 z"
         id="path1365" />
      <path
         inkscape:connector-curvature="0"
         style="fill:#ffffff"
         d="m 564.599,54.566 c -2.174,1.507 -3.481,3.562 -3.936,6.164 -0.458,2.602 0.072,4.991 1.579,7.154 1.534,2.173 3.599,3.492 6.201,3.953 2.591,0.451 4.974,-0.081 7.127,-1.606 2.173,-1.507 3.479,-3.571 3.941,-6.173 0.452,-2.603 -0.08,-4.98 -1.587,-7.135 -1.525,-2.173 -3.58,-3.492 -6.173,-3.934 -2.602,-0.462 -4.98,0.061 -7.152,1.577"
         id="path1367" />
      <path
         inkscape:connector-curvature="0"
         style="fill:#ffffff"
         d="m 538.921,54.439 c -2.153,1.507 -3.463,3.571 -3.932,6.173 -0.462,2.593 0.07,4.971 1.586,7.146 1.525,2.172 3.59,3.49 6.192,3.951 2.581,0.461 4.963,-0.08 7.126,-1.605 2.174,-1.516 3.489,-3.57 3.952,-6.164 0.459,-2.602 -0.072,-4.991 -1.606,-7.153 -1.517,-2.174 -3.571,-3.482 -6.152,-3.924 -2.605,-0.461 -4.99,0.07 -7.166,1.576"
         id="path1369" />
      <path
         inkscape:connector-curvature="0"
         style="fill:#1f1a19"
         d="m 572.802,60.285 c -0.502,-1.03 -1.289,-1.724 -2.363,-2.095 -1.079,-0.374 -2.133,-0.311 -3.162,0.184 -1.03,0.502 -1.724,1.288 -2.095,2.362 -0.371,1.075 -0.31,2.118 0.187,3.148 0.502,1.032 1.289,1.725 2.362,2.096 1.074,0.371 2.119,0.307 3.149,-0.188 1.029,-0.495 1.722,-1.281 2.096,-2.362 0.378,-1.071 0.321,-2.115 -0.174,-3.145"
         id="path1371" />
      <path
         inkscape:connector-curvature="0"
         style="fill:#1f1a19"
         d="m 550.12,60.254 c -0.502,-1.03 -1.288,-1.724 -2.362,-2.095 -1.081,-0.374 -2.132,-0.311 -3.162,0.184 -1.03,0.502 -1.725,1.288 -2.096,2.362 -0.37,1.075 -0.31,2.118 0.187,3.149 0.504,1.032 1.291,1.724 2.362,2.095 1.075,0.372 2.12,0.308 3.148,-0.187 1.029,-0.495 1.723,-1.281 2.099,-2.362 0.375,-1.072 0.319,-2.115 -0.176,-3.146"
         id="path1373" />
      <path
         inkscape:connector-curvature="0"
         style="fill:#c16413"
         d="m 570.912,46.457 c -0.368,-0.66 -1.026,-0.787 -1.962,-0.371 -3.663,1.69 -7.107,3.6 -10.333,5.711 -0.661,0.436 -1.158,0.529 -1.51,0.28 -4.288,-2.979 -7.208,-4.854 -8.778,-5.626 -1.6,-0.79 -2.726,-0.902 -3.377,-0.322 -0.661,0.56 -0.902,1.273 -0.716,2.162 -6.003,0.229 -10.496,1.284 -13.48,3.159 -2.968,1.855 -4.528,3.156 -4.685,3.909 -0.165,0.734 0.882,1.082 3.144,1.036 -1.953,1.555 -3.547,3.437 -4.771,5.655 -0.597,1.074 -0.867,1.913 -0.814,2.514 0.009,0.078 0.029,0.153 0.048,0.238 0.009,0.05 0.028,0.087 0.038,0.125 0.028,0.067 0.076,0.114 0.122,0.163 0.122,0.125 0.267,0.221 0.429,0.307 0.199,0.107 0.418,0.184 0.638,0.242 0.172,0.068 0.352,0.116 0.534,0.165 3.325,0.75 6.628,0.596 9.886,-0.476 0.149,-3.234 1.081,-5.843 2.798,-7.849 1.697,-2.004 3.754,-2.71 6.145,-2.097 1.877,0.476 3.507,1.115 4.877,1.914 l 2.054,1.354 c 1.313,0.894 2.416,1.529 3.302,1.905 0.876,0.378 1.953,0.554 3.233,0.542 1.296,-0.003 2.719,-0.426 4.279,-1.266 1.561,-0.852 2.717,-1.485 3.473,-1.901 0.871,-0.463 1.808,-0.907 2.812,-1.312 1.23,-0.472 2.456,-0.779 3.661,-0.917 1.935,-0.221 3.47,0.083 4.602,0.919 0.562,0.414 1.024,0.968 1.395,1.667 0.388,0.698 0.699,1.425 0.952,2.179 0.452,1.444 0.55,3.105 0.282,4.964 3.438,1.094 7.129,1.399 11.072,0.905 1.165,-0.129 1.796,-0.545 1.896,-1.261 0.148,-0.762 -0.286,-1.824 -1.28,-3.174 -1.48,-2.021 -3.018,-3.717 -4.613,-5.07 0.553,0.089 1.2,0.025 1.956,-0.182 1.672,-0.478 1.735,-1.308 0.164,-2.489 -5.845,-4.303 -11.457,-6.287 -16.81,-5.951 -0.103,-0.583 -0.32,-1.167 -0.663,-1.751"
         id="path1375" />
      <path
         inkscape:connector-curvature="0"
         style="fill:#c6cee3"
         d="m 576.557,22.096 c -0.667,-0.156 -1.577,-0.264 -2.721,-0.332 -2.892,-0.07 -5.566,-0.37 -8.022,-0.895 -2.459,-0.522 -3.966,-0.838 -4.52,-0.939 -0.095,-0.017 -0.2,-0.034 -0.304,-0.052 -0.518,-0.106 -1.195,-0.255 -2.031,-0.462 -4.291,-1.048 -7.224,-1.481 -8.814,-1.326 -0.606,0.029 -1.227,0.287 -1.877,0.783 -0.104,0.079 -0.195,0.157 -0.277,0.238 -0.486,0.459 -0.768,1.041 -0.868,1.741 -0.802,4.071 -1.338,7.943 -1.61,11.624 -0.11,0.825 0.082,1.557 0.596,2.218 0.485,0.649 1.137,1.034 1.959,1.145 0.822,0.111 1.556,-0.081 2.215,-0.576 0.64,-0.497 1.018,-1.156 1.128,-1.98 0.025,-3.07 0.433,-6.146 1.217,-9.252 2.35,0.17 4.702,0.58 7.053,1.219 5.391,1.189 9.747,1.887 13.069,2.113 l -1.203,8.68 c -0.11,0.824 0.082,1.555 0.596,2.208 0.486,0.659 1.138,1.043 1.96,1.155 0.804,0.11 1.545,-0.082 2.204,-0.558 0.642,-0.516 1.027,-1.174 1.138,-1.999 l 1.588,-11.32 c 0.127,-1.023 -0.044,-1.801 -0.501,-2.344 -0.45,-0.531 -1.109,-0.898 -1.975,-1.089"
         id="path1377" />
      <path
         inkscape:connector-curvature="0"
         style="fill:none;stroke:#727a90;stroke-width:1.52649999;stroke-linecap:round;stroke-linejoin:round;stroke-miterlimit:10"
         d="m 576.557,22.096 c 0.866,0.191 1.525,0.558 1.973,1.089 0.457,0.543 0.628,1.321 0.501,2.344 l -1.588,11.32 c -0.11,0.825 -0.496,1.482 -1.138,1.999 -0.659,0.476 -1.4,0.668 -2.204,0.558 -0.822,-0.112 -1.474,-0.496 -1.96,-1.155 -0.514,-0.652 -0.706,-1.384 -0.596,-2.208 l 1.203,-8.68 c -3.322,-0.227 -7.679,-0.924 -13.069,-2.113 -2.351,-0.639 -4.703,-1.049 -7.053,-1.219 -0.784,3.106 -1.191,6.183 -1.217,9.252 -0.11,0.824 -0.488,1.483 -1.128,1.98 -0.659,0.495 -1.393,0.687 -2.215,0.576 -0.822,-0.11 -1.474,-0.496 -1.959,-1.145 -0.514,-0.661 -0.706,-1.393 -0.596,-2.218 0.272,-3.681 0.809,-7.553 1.61,-11.624 0.101,-0.7 0.382,-1.282 0.868,-1.741 0.082,-0.081 0.174,-0.159 0.277,-0.238 0.65,-0.496 1.271,-0.754 1.877,-0.783 1.591,-0.155 4.523,0.278 8.814,1.326 0.836,0.207 1.514,0.355 2.031,0.462 0.104,0.018 0.209,0.035 0.304,0.052 0.554,0.101 2.061,0.417 4.52,0.939 2.456,0.524 5.131,0.824 8.022,0.895 1.145,0.068 2.056,0.176 2.723,0.332 z"
         id="path1379" />
      <path
         inkscape:connector-curvature="0"
         style="fill:#afb6d4"
         d="m 588.696,36.813 c -11.463,-3.329 -20.443,-4.983 -26.939,-4.966 -10.291,-0.186 -17.348,-0.7 -21.18,-1.518 -3.841,-0.812 -8.143,-1.209 -12.899,-1.182 -4.756,0.008 -8.833,0.269 -12.21,0.766 -1.681,1.842 -2.486,4.383 -2.403,7.622 0,0.02 -0.002,0.048 0.006,0.077 10e-4,0.105 -0.008,0.22 -0.015,0.344 -0.024,0.161 -0.048,0.34 -0.072,0.539 -0.093,0.595 -0.245,1.177 -0.43,1.738 -0.461,1.638 -0.518,2.877 -0.173,3.736 9.536,-0.101 18.802,0.075 27.8,0.506 4.373,0.221 7.972,0.468 10.812,0.734 l 8.095,0.736 c 8.512,0.624 14.375,1.409 17.595,2.344 l 14.263,3.888 c 5.083,1.423 9.938,3.229 14.582,5.424 0.56,-0.8 0.914,-2.198 1.069,-4.186 0.009,-0.143 0.02,-0.276 0.021,-0.41 0.04,-0.637 0.07,-1.161 0.096,-1.59 v -0.019 c 0.009,-0.257 0.025,-0.475 0.029,-0.649 0.019,-0.342 0.033,-0.676 0.06,-1.009 0.077,-1.38 0.146,-2.544 0.19,-3.477 0.008,-0.237 0.025,-0.466 0.033,-0.696 0.02,-0.658 0.031,-1.27 0.029,-1.853 -0.027,-0.786 -0.572,-1.393 -1.621,-1.817 -5.466,-2.113 -11.046,-3.813 -16.738,-5.082"
         id="path1381" />
      <path
         inkscape:connector-curvature="0"
         style="fill:none;stroke:#727a90;stroke-width:1.52649999;stroke-linecap:round;stroke-linejoin:round;stroke-miterlimit:10"
         d="m 588.696,36.813 c 5.691,1.269 11.271,2.969 16.736,5.082 1.049,0.425 1.594,1.031 1.621,1.817 0.002,0.583 -0.01,1.195 -0.029,1.853 -0.008,0.23 -0.025,0.459 -0.033,0.696 -0.044,0.933 -0.113,2.097 -0.19,3.477 -0.026,0.333 -0.041,0.667 -0.06,1.009 -0.004,0.174 -0.021,0.392 -0.029,0.649 v 0.019 c -0.025,0.429 -0.056,0.953 -0.095,1.59 -0.002,0.134 -0.013,0.268 -0.021,0.41 -0.155,1.987 -0.51,3.386 -1.069,4.186 -4.644,-2.194 -9.499,-4 -14.582,-5.424 l -14.263,-3.888 c -3.22,-0.936 -9.083,-1.721 -17.595,-2.344 l -8.095,-0.736 c -2.84,-0.266 -6.438,-0.514 -10.812,-0.734 -8.998,-0.431 -18.264,-0.607 -27.8,-0.506 -0.345,-0.859 -0.288,-2.098 0.173,-3.736 0.185,-0.561 0.337,-1.143 0.43,-1.738 0.024,-0.199 0.048,-0.378 0.072,-0.539 0.007,-0.124 0.016,-0.239 0.016,-0.344 -0.009,-0.028 -0.007,-0.057 -0.007,-0.077 -0.083,-3.239 0.723,-5.779 2.403,-7.62 3.377,-0.499 7.454,-0.76 12.21,-0.768 4.757,-0.028 9.059,0.369 12.899,1.182 3.832,0.818 10.889,1.332 21.18,1.518 6.497,-0.017 15.477,1.637 26.94,4.966 z"
         id="path1383" />
    </g>
  </g>
</svg>
