<?xml version="1.0" encoding="UTF-8" standalone="no"?>
<!-- Created with Inkscape (http://www.inkscape.org/) -->

<svg
   xmlns:dc="http://purl.org/dc/elements/1.1/"
   xmlns:cc="http://creativecommons.org/ns#"
   xmlns:rdf="http://www.w3.org/1999/02/22-rdf-syntax-ns#"
   xmlns:svg="http://www.w3.org/2000/svg"
   xmlns="http://www.w3.org/2000/svg"
   xmlns:sodipodi="http://sodipodi.sourceforge.net/DTD/sodipodi-0.dtd"
   xmlns:inkscape="http://www.inkscape.org/namespaces/inkscape"
   width="112.5535"
   height="159.65811"
   id="svg5696"
   version="1.1"
   inkscape:version="0.48.4 r9939"
   sodipodi:docname="oscar12.svg">
  <defs
     id="defs5698">
    <clipPath
       id="SVGID_2_">
      <rect
         height="88.862999"
         width="111.498"
         y="518.96198"
         x="382.04999"
         id="use1087" />
    </clipPath>
    <clipPath
       id="SVGID_4_">
      <rect
         height="41.314999"
         width="49.584999"
         y="525.19397"
         x="389.84698"
         id="use1111" />
    </clipPath>
  </defs>
  <sodipodi:namedview
     id="base"
     pagecolor="#ffffff"
     bordercolor="#666666"
     borderopacity="1.0"
     inkscape:pageopacity="0.0"
     inkscape:pageshadow="2"
     inkscape:zoom="0.77472527"
     inkscape:cx="-41.827861"
     inkscape:cy="114.1206"
     inkscape:current-layer="layer1"
     inkscape:document-units="px"
     showgrid="false"
     inkscape:window-width="763"
     inkscape:window-height="591"
     inkscape:window-x="592"
     inkscape:window-y="97"
     inkscape:window-maximized="0"
     fit-margin-top="0"
     fit-margin-left="0"
     fit-margin-right="0"
     fit-margin-bottom="0" />
  <metadata
     id="metadata5701">
    <rdf:RDF>
      <cc:Work
         rdf:about="">
        <dc:format>image/svg+xml</dc:format>
        <dc:type
           rdf:resource="http://purl.org/dc/dcmitype/StillImage" />
        <dc:title></dc:title>
      </cc:Work>
    </rdf:RDF>
  </metadata>
  <g
     id="layer1"
     inkscape:label="Layer 1"
     inkscape:groupmode="layer"
     transform="translate(-359.77116,-39.568865)">
    <g
       transform="translate(-314.97653,-542.01345)"
       id="g1105">
      <path
         inkscape:connector-curvature="0"
         style="fill:#9fc94c"
         d="m 730.495,709.559 -16.718,-10.601 c -8.73,1.666 -13.769,6.79 -15.112,15.391 -3.205,-2.898 -7.279,-4.771 -12.224,-5.636 -4.575,-0.593 -7.706,0.119 -9.383,2.15 -1.677,2.028 -2.043,4.441 -1.105,7.249 3.821,6.193 10.524,10.901 20.108,14.108 7.618,2.33 12.866,3.092 15.739,2.299 2.019,-2.419 2.992,-5.551 2.916,-9.376 0.277,-8.085 5.535,-13.279 15.779,-15.584"
         id="path1107" />
      <path
         inkscape:connector-curvature="0"
         style="fill:none;stroke:#255f27;stroke-width:1.44239998;stroke-linecap:square;stroke-miterlimit:10"
         d="m 730.495,709.559 c -10.244,2.306 -15.502,7.499 -15.778,15.585 0.076,3.825 -0.897,6.957 -2.916,9.376 -2.873,0.793 -8.121,0.031 -15.739,-2.299 -9.584,-3.207 -16.287,-7.915 -20.108,-14.108 -0.938,-2.808 -0.571,-5.221 1.105,-7.249 1.677,-2.031 4.808,-2.743 9.383,-2.15 4.944,0.865 9.019,2.737 12.224,5.636 1.344,-8.601 6.382,-13.725 15.112,-15.391 l 16.717,10.6 z"
         id="path1109" />
      <path
         inkscape:connector-curvature="0"
         style="fill:#9fc94c"
         d="m 760.125,719.104 c -1.844,-4.617 -2.309,-10.351 -1.419,-17.217 -2.504,-2.278 -5.988,-2.326 -10.463,-0.15 -7.894,3.549 -13.646,1.78 -17.266,-5.289 l -15.785,8.595 c 5.658,13.37 15.255,18.19 28.801,14.47 -1.152,4.289 -0.662,8.507 1.485,12.678 4.425,7.654 9.431,10.03 15.016,7.117 3.125,-2.387 4.105,-6.064 2.94,-11.021 -0.372,-1.514 -1.471,-4.568 -3.309,-9.183"
         id="path1111" />
      <path
         inkscape:connector-curvature="0"
         style="fill:none;stroke:#255f27;stroke-width:1.50380003;stroke-linecap:square;stroke-miterlimit:10"
         d="m 760.125,719.104 c 1.838,4.615 2.937,7.67 3.31,9.182 1.165,4.957 0.185,8.635 -2.94,11.021 -5.585,2.913 -10.591,0.537 -15.016,-7.117 -2.147,-4.171 -2.638,-8.389 -1.485,-12.678 -13.546,3.721 -23.143,-1.1 -28.801,-14.47 l 15.785,-8.595 c 3.619,7.069 9.372,8.838 17.266,5.289 4.475,-2.176 7.959,-2.128 10.463,0.15 -0.891,6.867 -0.426,12.6 1.418,17.218 z"
         id="path1113" />
      <path
         inkscape:connector-curvature="0"
         style="fill:#5a6074"
         d="m 785.312,619.14 0.904,-8.099 -90.693,-10.809 -2.861,7.985 c 20.702,7.873 43.708,11.844 69.019,11.898 4.322,-0.185 8.314,-0.181 11.974,0.008 4.168,0.246 8.057,-0.085 11.657,-0.983"
         id="path1115" />
      <path
         inkscape:connector-curvature="0"
         style="fill:none;stroke:#737a91;stroke-width:1.50380003;stroke-linecap:round;stroke-linejoin:round;stroke-miterlimit:10"
         d="m 786.216,611.041 -90.693,-10.809 -2.861,7.985 c 20.702,7.873 43.708,11.844 69.019,11.898 4.322,-0.185 8.314,-0.181 11.974,0.008 4.17,0.245 8.059,-0.086 11.658,-0.984 l 0.903,-8.098 z"
         id="path1117" />
      <path
         inkscape:connector-curvature="0"
         style="fill:#b0b6d5"
         d="m 755.739,627.349 c -0.495,0.069 -0.757,0.544 -0.803,1.44 l -0.734,12.782 c -0.053,0.873 0.16,1.427 0.63,1.648 l 8.577,1.271 -0.673,4.54 -8.168,-1.211 c -3.522,-0.341 -5.166,-2.658 -4.923,-6.926 l 0.734,-12.778 c 0.252,-4.27 2.125,-6.065 5.627,-5.383 l 6.604,0.978 -0.677,4.558 -6.194,-0.919 z"
         id="path1119" />
      <path
         inkscape:connector-curvature="0"
         style="fill:none;stroke:#737a91;stroke-width:1.50460005;stroke-linecap:round;stroke-linejoin:round;stroke-miterlimit:10"
         d="m 763.409,644.49 -8.577,-1.271 c -0.47,-0.221 -0.683,-0.775 -0.63,-1.648 l 0.735,-12.782 c 0.045,-0.896 0.307,-1.371 0.802,-1.44 l 6.194,0.919 0.677,-4.558 -6.604,-0.978 c -3.502,-0.683 -5.375,1.113 -5.627,5.383 l -0.734,12.779 c -0.243,4.267 1.4,6.584 4.923,6.925 l 8.167,1.211"
         id="path1121" />
      <polygon
         style="fill:#c6cee3"
         points="773.644,632.301 759.098,630.146 760.495,620.716 765.749,621.495 775.042,622.869 "
         id="polygon1123" />
      <polygon
         style="fill:#c6cee3"
         points="773.643,632.301 773.622,632.449 764.331,631.074 759.075,630.296 759.098,630.146 "
         id="polygon1125" />
      <path
         inkscape:connector-curvature="0"
         style="fill:none;stroke:#737a91;stroke-width:1.50460005;stroke-linecap:round;stroke-linejoin:round;stroke-miterlimit:10"
         d="m 759.098,630.146 1.397,-9.431 5.254,0.779 9.293,1.374 -1.398,9.432 m 0,0.001 -0.021,0.148 -9.291,-1.375 -5.256,-0.778 0.022,-0.149 m 14.546,2.154 -14.546,-2.154"
         id="path1127" />
      <path
         inkscape:connector-curvature="0"
         style="fill:#b0b6d5"
         d="m 774.298,625.442 -0.307,-0.048 c -0.389,0.059 -0.755,0.223 -1.089,0.506 -0.51,0.419 -0.809,0.945 -0.897,1.565 -0.095,0.635 0.038,1.208 0.41,1.707 0.105,0.129 0.229,0.252 0.395,0.363 0.275,0.191 0.733,0.375 1.371,0.546 l -0.892,-0.133 c -0.641,-0.171 -1.097,-0.353 -1.373,-0.546 -0.165,-0.108 -0.289,-0.232 -0.393,-0.363 -0.374,-0.501 -0.507,-1.074 -0.412,-1.705 0.092,-0.623 0.387,-1.148 0.896,-1.567 0.337,-0.284 0.704,-0.448 1.094,-0.504 0.203,-0.027 0.402,-0.023 0.616,0.005 0.213,0.033 0.405,0.088 0.581,0.174"
         id="path1129" />
      <path
         inkscape:connector-curvature="0"
         style="fill:#b0b6d5"
         d="m 773.991,625.395 0.307,0.049 1.517,0.223 c 2.855,0.3 4.475,1.624 4.847,3.988 0.07,0.608 0.099,1.324 0.078,2.157 0.02,0.449 -0.027,1.282 -0.143,2.51 -0.399,3.924 -0.597,7.609 -0.577,11.071 -0.241,4.262 -2.12,6.045 -5.641,5.363 l -11.644,-1.726 0.674,-4.54 11.232,1.665 c 0.506,-0.067 0.783,-0.541 0.84,-1.434 l 0.717,-12.784 c 0.048,-0.905 -0.175,-1.459 -0.668,-1.657 l -1.35,-0.198 c -0.638,-0.171 -1.096,-0.354 -1.371,-0.546 -0.166,-0.111 -0.289,-0.234 -0.395,-0.363 -0.372,-0.499 -0.505,-1.072 -0.41,-1.707 0.089,-0.62 0.388,-1.146 0.897,-1.565 0.335,-0.284 0.702,-0.448 1.09,-0.506"
         id="path1131" />
      <path
         inkscape:connector-curvature="0"
         style="fill:none;stroke:#737a91;stroke-width:1.50460005;stroke-linecap:round;stroke-linejoin:round;stroke-miterlimit:10"
         d="m 774.181,630.082 c -0.638,-0.171 -1.096,-0.354 -1.371,-0.546 -0.166,-0.111 -0.289,-0.234 -0.395,-0.363 -0.372,-0.499 -0.505,-1.072 -0.41,-1.707 0.089,-0.62 0.388,-1.146 0.897,-1.565 0.334,-0.283 0.7,-0.447 1.089,-0.506 l 0.307,0.048 1.517,0.224 c 2.855,0.3 4.475,1.624 4.847,3.988 0.07,0.608 0.099,1.324 0.078,2.157 0.02,0.449 -0.027,1.282 -0.143,2.51 -0.399,3.924 -0.597,7.609 -0.577,11.071 -0.241,4.262 -2.12,6.045 -5.641,5.363 l -11.644,-1.726 m 0.674,-4.54 11.232,1.665 c 0.506,-0.067 0.783,-0.541 0.84,-1.434 l 0.717,-12.784 c 0.048,-0.905 -0.175,-1.459 -0.668,-1.657 l -1.35,-0.198 m -0.891,-0.133 0.892,0.133"
         id="path1133" />
      <path
         inkscape:connector-curvature="0"
         style="fill:#b0b6d5"
         d="m 784.042,607.417 c -0.156,-0.167 -0.323,-0.314 -0.491,-0.463 -0.195,-0.154 -0.396,-0.288 -0.608,-0.385 -0.288,-0.109 -0.58,-0.201 -0.883,-0.274 l -0.558,-0.073 c -1.499,-0.229 -3.465,-0.616 -5.913,-1.142 l -3.39,-0.473 c -0.595,-0.098 -1.209,-0.199 -1.838,-0.302 -0.378,-0.073 -0.786,-0.153 -1.202,-0.225 -0.629,-0.121 -1.296,-0.249 -2,-0.372 -0.285,-0.053 -0.518,-0.097 -0.704,-0.116 -0.102,-0.014 -0.958,-0.14 -2.587,-0.373 -1.257,-0.176 -2.958,-0.429 -5.128,-0.739 -4.476,-0.645 -8.97,-1.225 -13.468,-1.729 -0.466,-0.07 -1.85,-0.198 -4.17,-0.399 -2.318,-0.201 -4.449,-0.45 -6.392,-0.738 -0.979,-0.145 -2.685,-0.551 -5.146,-1.21 -2.457,-0.67 -4.471,-1.053 -6.046,-1.142 -1.574,-0.092 -3.21,-0.277 -4.89,-0.546 -0.753,-0.12 -2.483,-0.367 -5.206,-0.73 -1.816,-0.241 -4.065,-0.537 -6.749,-0.888 -1.296,-0.174 -2.695,-0.352 -4.197,-0.545 -0.474,-0.062 -0.959,-0.125 -1.454,-0.188 -0.718,-0.098 -1.465,-0.188 -2.237,-0.294 -0.221,0.082 -0.47,0.207 -0.742,0.385 -0.882,0.562 -1.39,1.308 -1.526,2.227 l -0.341,2.296 c -0.155,1.053 0.084,2 0.721,2.845 0.26,0.353 0.739,0.707 1.418,1.058 l 1.226,0.467 0.108,0.034 0.324,0.047 21.033,3.087 c 0.057,0.019 0.175,0.047 0.369,0.085 0.864,0.186 3.147,0.636 6.854,1.348 2.264,0.438 4.498,0.866 6.711,1.279 0.006,10e-4 0.017,0.003 0.026,0.005 0.01,10e-4 0.019,0.002 0.029,0.003 0.008,0.002 0.008,0.002 0.017,0.004 0.011,10e-4 0.02,0.002 0.029,0.003 0.009,10e-4 0.018,0.004 0.027,0.006 0.01,0 0.019,0 0.028,10e-4 l 0.027,0.007 c 0.01,10e-4 0.02,10e-4 0.027,0.003 0.011,10e-4 0.021,0.004 0.028,0.005 0.009,0.002 0.021,0.002 0.027,0.003 0.011,0.002 0.019,0.003 0.03,0.006 l 7.01,0.591 c 0.237,0.007 0.473,0.022 0.709,0.038 -0.027,-0.003 -0.057,-0.006 -0.085,-0.012 -0.185,-0.038 -0.1,-0.026 0.263,0.029 -0.009,-0.002 -0.03,-0.005 -0.048,0.002 0.017,0.005 0.037,0.007 0.045,0.008 0.067,0 0.123,0.008 0.18,0.017 1.188,0.128 2.438,0.284 3.763,0.453 3.163,0.402 6.715,0.928 10.65,1.559 l 12.826,2.233 c 0.074,0 0.149,0.011 0.223,0.022 0.057,0.009 0.111,0.018 0.168,0.024 0.925,0.109 1.838,0.235 2.757,0.38 0.791,0.119 1.588,0.257 2.373,0.42 l 3.088,0.455 c 0.14,0.014 0.272,0.022 0.401,0.041 0.086,0.004 0.179,0.019 0.263,0.03 0.085,0.004 0.178,0.016 0.26,0.028 0.068,0 0.125,0.009 0.19,0.009 0.409,-0.006 0.803,-0.089 1.197,-0.258 0.234,-0.108 0.479,-0.217 0.722,-0.314 0.412,-0.154 0.771,-0.397 1.098,-0.719 0.646,-0.588 1.033,-1.339 1.168,-2.251 l 0.249,-1.683 c 0.102,-0.697 0.135,-1.168 0.106,-1.428 -0.017,-0.146 -0.042,-0.293 -0.077,-0.439 -0.044,-0.151 -0.18,-0.391 -0.405,-0.719 -0.093,-0.136 -0.188,-0.255 -0.287,-0.374"
         id="path1135" />
      <path
         inkscape:connector-curvature="0"
         style="fill:#c6cee3"
         d="m 773.698,614.618 c -0.919,-0.145 -1.832,-0.271 -2.757,-0.38 -0.057,-0.007 -0.111,-0.016 -0.168,-0.024 -0.073,-0.012 -0.148,-0.022 -0.223,-0.022 l -12.826,-2.233 c -3.936,-0.631 -7.488,-1.157 -10.65,-1.56 -1.325,-0.168 -2.575,-0.324 -3.763,-0.452 l -0.356,-0.033 c -0.235,-0.018 -0.47,-0.033 -0.707,-0.049 l -7.012,-0.591 c -0.01,-0.003 -0.018,-0.004 -0.027,-0.006 -0.008,-10e-4 -0.02,-10e-4 -0.028,-0.003 -0.008,-10e-4 -0.018,-0.004 -0.028,-0.005 -0.008,-0.002 -0.018,-0.002 -0.027,-0.004 l -0.027,-0.006 c -0.01,-10e-4 -0.019,-10e-4 -0.028,-10e-4 -0.01,-0.002 -0.019,-0.005 -0.027,-0.006 -0.01,-0.001 -0.019,-0.002 -0.029,-0.003 -0.009,-0.002 -0.009,-0.002 -0.017,-0.004 -0.011,-10e-4 -0.02,-0.002 -0.029,-0.003 -0.01,-0.002 -0.021,-0.002 -0.026,-0.005 -2.213,-0.413 -4.447,-0.841 -6.711,-1.279 -3.706,-0.712 -5.989,-1.162 -6.854,-1.348 -0.194,-0.038 -0.314,-0.066 -0.369,-0.085 l -21.033,-3.087 c -0.084,0.89 -0.151,1.672 -0.213,2.354 -0.031,0.327 -0.055,0.63 -0.088,0.899 -0.061,0.608 -0.106,1.115 -0.146,1.5 0.006,0.03 0.004,0.047 -10e-4,0.077 -0.055,0.562 -0.1,1.123 -0.156,1.695 -0.055,0.562 -0.102,1.125 -0.155,1.697 -0.057,0.569 -0.103,1.146 -0.159,1.715 -0.03,0.33 -0.06,0.668 -0.094,1.005 l -0.596,6.09 c -0.046,4.337 -0.167,7.282 -0.371,8.84 -0.061,0.476 -0.121,0.963 -0.193,1.436 -0.212,1.253 -0.543,2.324 -0.972,3.221 -0.484,1.021 -0.805,2.114 -0.977,3.27 -0.109,0.732 -0.077,2.639 0.088,5.695 0.174,3.058 0.119,5.416 -0.171,7.056 -0.11,3.11 -0.426,6.646 -0.943,10.591 -0.517,3.945 -1.041,8.058 -1.569,12.322 -0.527,4.267 -1.059,8.627 -1.616,13.097 -0.086,0.633 -0.174,1.353 -0.271,2.146 l -0.498,4.125 c -0.016,0.171 -0.041,0.348 -0.059,0.526 -0.13,1.198 -0.284,2.496 -0.452,3.886 -0.011,0.142 -0.022,0.281 -0.042,0.422 1.321,-0.005 2.498,-0.059 3.541,-0.171 1.398,-0.144 2.798,-0.277 4.191,-0.385 0.125,-0.018 0.243,-0.041 0.37,-0.06 0.36,-0.06 0.728,-0.1 1.082,-0.117 0.727,-0.033 1.441,0.025 2.142,0.175 0.211,0.052 0.429,0.122 0.635,0.21 0.685,0.245 1.348,0.58 2,0.992 0.416,0.203 0.849,0.359 1.295,0.495 1.873,0.638 2.89,0.978 3.041,1.03 0.72,0.21 4.016,0.728 9.905,1.533 2.424,0.32 4.693,0.532 6.812,0.647 l 4.243,0.629 c 1.052,0.28 1.93,0.505 2.636,0.685 0.53,0.135 0.962,0.239 1.302,0.316 1.278,0.297 2.535,0.538 3.752,0.719 0.734,0.106 1.754,0.166 3.046,0.168 0.164,-0.006 1.231,-0.038 3.208,-0.105 0.468,10e-4 0.926,-0.026 1.383,-0.1 0.745,-0.205 1.477,-0.335 2.205,-0.368 0.223,-0.023 0.449,-0.027 0.667,-0.015 0.714,0.059 1.413,0.207 2.099,0.452 0.336,0.117 0.676,0.263 1.003,0.425 0.115,0.058 0.223,0.111 0.337,0.163 1.304,0.51 2.602,1.041 3.889,1.585 0.206,0.088 0.421,0.175 0.636,0.274 0.259,0.113 0.519,0.229 0.775,0.342 l 3.794,1.476 c 0.623,-0.03 1.324,-0.091 2.09,-0.186 0.451,-2.86 0.766,-4.713 0.939,-5.571 0.358,-1.648 1.12,-4.358 2.299,-8.147 1.179,-3.788 1.838,-7.978 1.968,-12.567 0.129,-4.592 1.26,-10.041 3.383,-16.354 0.512,-1.968 0.854,-3.978 1.046,-6.033 0.359,-3.966 0.973,-7.79 1.841,-11.474 0.879,-3.681 1.649,-7.142 2.315,-10.357 0.667,-3.229 1.256,-6.429 1.775,-9.612 0.527,-3.184 0.845,-5.188 0.946,-6.001 0.11,-0.811 0.17,-1.478 0.181,-1.979 0.026,-0.511 0.045,-0.829 0.072,-0.948 0.028,-0.13 0.049,-0.258 0.067,-0.39 0.142,-0.636 0.334,-1.605 0.593,-2.906 -0.084,-0.012 -0.177,-0.026 -0.263,-0.03 -0.129,-0.019 -0.262,-0.028 -0.401,-0.041 l -3.088,-0.455 c -0.788,-0.163 -1.585,-0.301 -2.376,-0.42"
         id="path1137" />
      <path
         inkscape:connector-curvature="0"
         style="fill:#ffffff"
         d="m 742.957,609.902 -0.002,0.011 c 0.038,-0.006 0.076,10e-4 0.123,0.008 -0.047,-0.007 -0.085,-0.014 -0.121,-0.019"
         id="path1139" />
      <path
         inkscape:connector-curvature="0"
         style="fill:#b0b6d5"
         d="m 742.955,609.913 0.002,-0.011 c -0.236,-0.016 -0.472,-0.031 -0.709,-0.038 0.237,0.016 0.472,0.032 0.707,0.049"
         id="path1141" />
      <path
         inkscape:connector-curvature="0"
         style="fill:#b0b6d5"
         d="m 725.334,701.445 c -2.118,-0.115 -4.389,-0.327 -6.812,-0.647 -5.89,-0.806 -9.186,-1.323 -9.905,-1.533 -0.151,-0.053 -1.168,-0.393 -3.041,-1.03 -0.446,-0.136 -0.879,-0.292 -1.295,-0.495 -0.652,-0.412 -1.315,-0.747 -2,-0.992 -0.206,-0.088 -0.424,-0.158 -0.635,-0.21 -0.7,-0.149 -1.414,-0.208 -2.142,-0.175 -0.354,0.018 -0.722,0.058 -1.082,0.117 -0.127,0.019 -0.245,0.042 -0.37,0.06 -1.394,0.107 -2.793,0.241 -4.191,0.385 -1.043,0.112 -2.221,0.166 -3.541,0.171 -0.011,-10e-4 -0.029,-0.007 -0.04,0.003 -0.01,-0.002 -0.028,-0.003 -0.046,-0.008 -0.332,-0.002 -0.646,-10e-4 -0.923,0.008 -1.456,0.002 -2.186,-0.001 -2.215,-0.007 -0.307,0.081 -0.565,0.296 -0.781,0.647 -0.07,0.112 -0.135,0.216 -0.19,0.332 -0.188,0.38 -0.318,0.808 -0.388,1.272 l -0.426,2.885 c -0.157,1.049 0.046,1.992 0.608,2.826 0.549,0.842 1.293,1.331 2.252,1.473 l 72.766,10.783 c 0.382,0.055 0.744,0.053 1.105,-0.018 0.519,-0.103 1.022,-0.354 1.496,-0.738 0.77,-0.637 1.229,-1.48 1.384,-2.533 l 0.428,-2.882 c 0.064,-0.437 0.075,-0.836 0.028,-1.213 -0.025,-0.163 -0.051,-0.312 -0.085,-0.458 -0.021,-0.108 -0.056,-0.208 -0.089,-0.309 -0.131,-0.389 -0.521,-0.772 -1.163,-1.123 -0.236,-0.141 -0.451,-0.229 -0.645,-0.275 -0.349,0.052 -0.679,0.099 -0.999,0.145 -0.766,0.095 -1.467,0.155 -2.09,0.186 l -3.794,-1.476 c -0.257,-0.112 -0.517,-0.229 -0.775,-0.342 -0.215,-0.1 -0.43,-0.187 -0.634,-0.274 -1.289,-0.544 -2.587,-1.076 -3.891,-1.585 -0.114,-0.052 -0.222,-0.105 -0.337,-0.163 -0.327,-0.162 -0.667,-0.308 -1.003,-0.425 -0.686,-0.243 -1.385,-0.394 -2.099,-0.452 -0.218,-0.014 -0.444,-0.009 -0.667,0.015 -0.729,0.033 -1.46,0.163 -2.205,0.368 -0.457,0.073 -0.915,0.101 -1.383,0.1 -1.977,0.067 -3.044,0.1 -3.208,0.105 -1.292,-0.002 -2.312,-0.062 -3.046,-0.168 -1.217,-0.181 -2.474,-0.422 -3.752,-0.719 -0.34,-0.077 -0.771,-0.182 -1.302,-0.316 -0.705,-0.18 -1.584,-0.404 -2.636,-0.685 l -4.241,-0.63 z"
         id="path1143" />
      <path
         inkscape:connector-curvature="0"
         style="fill:#c6cee3"
         d="m 690.813,692.787 c 0.018,-0.179 0.043,-0.355 0.059,-0.526 -0.023,0.169 -0.05,0.345 -0.068,0.525 -0.148,1.193 -0.301,2.492 -0.468,3.882 -0.013,0.143 -0.034,0.281 -0.057,0.43 0.011,-0.01 0.029,-0.004 0.04,-0.003 0.02,-0.141 0.031,-0.28 0.042,-0.422 0.168,-1.39 0.323,-2.688 0.452,-3.886"
         id="path1145" />
      <path
         inkscape:connector-curvature="0"
         style="fill:none;stroke:#737a91;stroke-width:1.50460005;stroke-linecap:round;stroke-linejoin:round;stroke-miterlimit:10"
         d="m 690.319,697.095 c -0.011,-10e-4 -0.029,-0.007 -0.04,0.003 -0.01,-0.002 -0.028,-0.003 -0.047,-0.008 -0.331,-0.002 -0.646,-10e-4 -0.922,0.008 -1.458,0.002 -2.186,-10e-4 -2.215,-0.007 -0.308,0.081 -0.565,0.296 -0.781,0.647 -0.07,0.112 -0.136,0.216 -0.19,0.332 -0.188,0.38 -0.319,0.808 -0.388,1.272 l -0.426,2.885 c -0.157,1.049 0.046,1.992 0.608,2.826 0.549,0.842 1.293,1.331 2.252,1.473 l 72.766,10.783 c 0.382,0.055 0.744,0.053 1.105,-0.018 0.519,-0.103 1.022,-0.354 1.496,-0.738 0.77,-0.637 1.229,-1.48 1.384,-2.533 l 0.428,-2.882 c 0.064,-0.437 0.075,-0.836 0.028,-1.213 -0.025,-0.163 -0.051,-0.312 -0.085,-0.458 -0.021,-0.108 -0.056,-0.208 -0.089,-0.309 -0.131,-0.389 -0.521,-0.772 -1.163,-1.123 -0.236,-0.141 -0.451,-0.229 -0.645,-0.275 -0.349,0.052 -0.679,0.099 -0.999,0.145 m -19.318,-97.984 0.009,10e-4 c 0.017,0.005 0.037,0.007 0.045,0.008 0.067,0 0.123,0.008 0.18,0.017 1.188,0.128 2.438,0.284 3.763,0.452 3.162,0.402 6.715,0.929 10.65,1.56 l 12.826,2.233 c 0.074,0 0.149,0.011 0.223,0.022 0.057,0.009 0.111,0.018 0.168,0.024 0.925,0.109 1.838,0.235 2.757,0.38 0.791,0.119 1.588,0.257 2.373,0.42 l 3.088,0.455 c 0.139,0.013 0.272,0.022 0.401,0.041 0.086,0.004 0.179,0.019 0.263,0.03 m -17.427,92.341 c 0.451,-2.86 0.765,-4.713 0.939,-5.571 0.358,-1.648 1.12,-4.358 2.299,-8.147 1.179,-3.789 1.838,-7.978 1.968,-12.567 0.129,-4.592 1.26,-10.041 3.383,-16.354 0.512,-1.968 0.854,-3.978 1.046,-6.031 0.359,-3.968 0.973,-7.792 1.841,-11.476 0.879,-3.681 1.649,-7.142 2.315,-10.357 0.667,-3.229 1.256,-6.429 1.775,-9.612 0.527,-3.184 0.845,-5.188 0.946,-6.001 0.11,-0.811 0.17,-1.478 0.181,-1.979 0.026,-0.511 0.046,-0.829 0.072,-0.948 0.028,-0.13 0.049,-0.258 0.067,-0.39 0.142,-0.636 0.333,-1.605 0.593,-2.906 m -80.281,-12.217 0.108,0.034 0.324,0.047 21.033,3.087 c 0.055,0.019 0.175,0.047 0.369,0.085 0.864,0.186 3.147,0.636 6.854,1.348 2.264,0.438 4.498,0.866 6.711,1.279 0.006,0.003 0.017,0.003 0.026,0.005 0.01,10e-4 0.019,0.002 0.029,0.003 0.008,0.002 0.008,0.002 0.017,0.004 0.011,10e-4 0.02,0.002 0.029,0.003 0.009,10e-4 0.018,0.004 0.027,0.006 0.01,0 0.019,0 0.028,10e-4 l 0.027,0.006 c 0.01,0.002 0.02,0.002 0.027,0.004 0.011,10e-4 0.021,0.004 0.028,0.005 0.009,0.002 0.021,0.002 0.027,0.003 0.011,0.002 0.019,0.003 0.028,0.006 l 7.012,0.591 c 0.237,0.007 0.473,0.022 0.709,0.038 0.036,0.005 0.074,0.012 0.121,0.019 m 0.003,-0.002 c -0.047,-0.007 -0.085,-0.014 -0.123,-0.008 m -43.414,-6.564 c -0.085,0.898 -0.155,1.686 -0.218,2.37 -0.02,0.329 -0.047,0.629 -0.078,0.901 -0.051,0.611 -0.099,1.116 -0.137,1.501 0.005,0.031 0.002,0.047 -0.002,0.075 -0.055,0.564 -0.101,1.127 -0.146,1.699 -0.057,0.562 -0.103,1.126 -0.148,1.698 -0.056,0.571 -0.104,1.145 -0.158,1.716 -0.02,0.33 -0.052,0.666 -0.073,1.007 l -0.58,6.093 c -0.024,4.337 -0.13,7.289 -0.321,8.848 -0.054,0.478 -0.113,0.962 -0.185,1.435 -0.214,1.252 -0.527,2.328 -0.953,3.225 -0.475,1.023 -0.798,2.115 -0.97,3.269 -0.1,0.737 -0.057,2.644 0.126,5.702 0.182,3.06 0.139,5.42 -0.135,7.062 -0.09,3.112 -0.388,6.651 -0.895,10.599 -0.49,3.946 -0.997,8.064 -1.505,12.333 -0.498,4.268 -1.013,8.631 -1.553,13.104 -0.073,0.636 -0.152,1.356 -0.241,2.151 l -0.498,4.125 c -0.016,0.171 -0.041,0.348 -0.059,0.526 -0.13,1.198 -0.284,2.496 -0.452,3.886 -0.011,0.142 -0.022,0.281 -0.042,0.422 m 10e-4,-10e-4 c 1.32,-0.005 2.498,-0.059 3.541,-0.171 1.398,-0.144 2.798,-0.277 4.191,-0.385 0.125,-0.018 0.243,-0.041 0.37,-0.06 0.36,-0.06 0.728,-0.1 1.082,-0.117 0.727,-0.033 1.441,0.025 2.142,0.175 0.211,0.052 0.429,0.122 0.635,0.21 0.685,0.245 1.348,0.58 2,0.992 0.416,0.203 0.849,0.359 1.295,0.495 1.873,0.638 2.89,0.978 3.04,1.03 0.721,0.21 4.017,0.728 9.906,1.533 2.424,0.32 4.693,0.532 6.812,0.647 l 4.243,0.629 c 1.052,0.28 1.93,0.505 2.636,0.685 0.53,0.135 0.962,0.239 1.302,0.316 1.278,0.297 2.535,0.538 3.752,0.719 0.734,0.106 1.754,0.166 3.046,0.168 0.163,-0.006 1.231,-0.038 3.208,-0.105 0.468,10e-4 0.926,-0.026 1.383,-0.1 0.745,-0.205 1.477,-0.335 2.205,-0.368 0.223,-0.023 0.449,-0.028 0.667,-0.015 0.714,0.059 1.413,0.207 2.099,0.452 0.336,0.117 0.676,0.263 1.003,0.425 0.115,0.058 0.223,0.111 0.337,0.163 1.303,0.509 2.602,1.041 3.889,1.585 0.206,0.088 0.421,0.175 0.636,0.274 0.259,0.113 0.519,0.229 0.775,0.342 l 3.794,1.476 c 0.622,-0.03 1.323,-0.091 2.09,-0.186 m 17.425,-92.34 c 0.085,0.002 0.178,0.016 0.26,0.028 0.068,0 0.125,0.009 0.19,0.009 0.409,-0.006 0.803,-0.089 1.197,-0.258 0.234,-0.108 0.479,-0.217 0.722,-0.314 0.412,-0.154 0.771,-0.397 1.098,-0.719 0.646,-0.588 1.033,-1.339 1.168,-2.251 l 0.249,-1.683 c 0.102,-0.697 0.135,-1.168 0.106,-1.428 -0.017,-0.146 -0.042,-0.293 -0.077,-0.439 -0.044,-0.151 -0.18,-0.391 -0.405,-0.719 -0.095,-0.136 -0.19,-0.255 -0.289,-0.374 -0.156,-0.167 -0.323,-0.314 -0.491,-0.463 -0.195,-0.154 -0.396,-0.288 -0.608,-0.385 -0.288,-0.109 -0.58,-0.201 -0.883,-0.274 l -0.558,-0.073 c -1.499,-0.229 -3.465,-0.616 -5.913,-1.142 l -3.39,-0.473 c -0.595,-0.098 -1.209,-0.199 -1.838,-0.302 -0.378,-0.073 -0.786,-0.153 -1.202,-0.225 -0.629,-0.121 -1.296,-0.249 -2,-0.372 -0.285,-0.053 -0.518,-0.097 -0.704,-0.116 -0.102,-0.014 -0.958,-0.14 -2.587,-0.373 -1.257,-0.176 -2.958,-0.429 -5.128,-0.739 -4.476,-0.645 -8.97,-1.226 -13.468,-1.729 -0.466,-0.07 -1.85,-0.198 -4.17,-0.399 -2.318,-0.201 -4.449,-0.45 -6.392,-0.738 -0.979,-0.145 -2.685,-0.551 -5.146,-1.21 -2.457,-0.67 -4.471,-1.053 -6.046,-1.142 -1.574,-0.092 -3.21,-0.277 -4.89,-0.546 -0.753,-0.12 -2.483,-0.367 -5.206,-0.73 -1.816,-0.241 -4.065,-0.537 -6.749,-0.888 -1.296,-0.174 -2.695,-0.352 -4.197,-0.545 -0.474,-0.062 -0.959,-0.125 -1.454,-0.188 -0.718,-0.098 -1.465,-0.188 -2.237,-0.294 -0.221,0.082 -0.47,0.207 -0.742,0.385 -0.882,0.562 -1.391,1.308 -1.526,2.227 l -0.341,2.296 c -0.155,1.053 0.084,2 0.721,2.844 0.26,0.354 0.739,0.708 1.418,1.059 l 1.226,0.467"
         id="path1147" />
      <path
         inkscape:connector-curvature="0"
         style="fill:#b0b6d5"
         d="m 756.847,616.54 c -0.271,-0.085 -0.53,-0.074 -0.76,0.013 -0.943,0.383 -1.681,1.005 -2.227,1.875 -0.585,0.92 -1.043,1.909 -1.398,2.948 -0.158,0.488 -0.27,0.996 -0.338,1.52 -0.436,3.386 -0.814,6.778 -1.15,10.198 -0.076,0.834 -0.188,1.664 -0.341,2.507 -0.565,3.1 -0.979,5.435 -1.243,7.02 -0.262,1.579 -0.362,2.058 -0.287,1.431 0.083,-0.625 0.005,-0.293 -0.233,1.002 -0.237,1.286 -0.097,2.448 0.416,3.483 0.521,1.037 0.615,1.812 0.28,2.343 -0.335,0.528 -0.677,1.411 -1.028,2.641 -0.354,1.231 -0.716,2.441 -1.079,3.622 0.009,1.608 -0.14,3.26 -0.457,4.953 -0.44,2.396 -0.687,4.819 -0.718,7.276 -0.019,1.083 -0.118,2.151 -0.314,3.208 -0.287,1.562 -0.603,3.111 -0.958,4.666 -0.104,0.449 -0.169,0.896 -0.187,1.34 -0.029,0.642 -0.124,1.273 -0.261,1.89 -0.14,0.617 -0.34,1.264 -0.62,1.933 -0.271,0.676 -0.327,1.37 -0.175,2.067 0.153,0.697 0.232,1.135 0.222,1.336 -0.121,1.852 -0.347,3.692 -0.686,5.521 -0.286,1.547 -0.316,3.092 -0.089,4.637 0.173,1.214 0.62,2.306 1.342,3.268 0.486,0.635 1.122,0.907 1.902,0.813 0.234,-0.031 0.438,-0.104 0.616,-0.239 1.476,-1.046 2.515,-2.459 3.117,-4.225 0.256,-0.769 0.38,-1.55 0.364,-2.342 -0.004,-0.675 0.002,-1.359 0.035,-2.036 0.057,-1.276 0.066,-2.548 0.033,-3.809 -0.008,-0.391 -0.18,-0.957 -0.508,-1.69 -0.328,-0.742 -0.172,-1.794 0.467,-3.153 0.647,-1.358 1.04,-2.205 1.19,-2.532 l 0.035,-0.42 c 0.045,-0.89 0.128,-1.771 0.246,-2.637 0.259,-1.862 0.55,-3.709 0.881,-5.553 0.093,-0.491 0.165,-0.983 0.21,-1.479 0.334,-3.42 0.72,-6.834 1.137,-10.239 0.275,-2.242 0.646,-4.421 1.11,-6.528 l 0.917,-2.667 -0.131,-3.926 1.833,-9.614 c 0.272,-1.774 0.546,-3.549 0.818,-5.325 0.271,-1.774 0.426,-3.444 0.475,-5.003 0.052,-1.563 0.137,-2.853 0.267,-3.859 0.131,-1.006 0.09,-2.07 -0.138,-3.177 -0.298,-1.5 -1.163,-2.513 -2.587,-3.058"
         id="path1149" />
      <path
         inkscape:connector-curvature="0"
         style="fill:#b0b6d5"
         d="m 767.859,618.175 c -0.337,-0.099 -0.675,-0.063 -1.005,0.107 -0.951,0.456 -1.694,1.164 -2.214,2.104 -0.79,1.424 -1.309,2.8 -1.562,4.133 -0.076,0.395 -0.144,0.785 -0.204,1.185 -0.061,0.475 -0.106,0.964 -0.137,1.443 -0.065,1.007 -0.147,2.013 -0.251,3.033 -0.1,1.061 -0.206,2.101 -0.318,3.108 -0.101,1.003 -0.208,1.917 -0.302,2.74 -0.093,0.812 -0.226,1.6 -0.396,2.355 -0.159,0.755 -0.325,1.616 -0.486,2.59 -0.15,0.871 -0.299,1.742 -0.437,2.616 -0.415,2.599 -0.769,4.343 -1.043,5.242 -0.276,0.901 -0.146,3.24 0.384,7.034 l -2.191,5.738 c -0.129,2.669 -0.282,5.508 -0.455,8.526 0.083,2.331 -0.132,4.429 -0.655,6.281 -0.512,1.854 -0.745,2.979 -0.68,3.376 0.064,0.399 -0.302,2.542 -1.097,6.426 0.284,0.868 0.338,1.646 0.178,2.347 -0.219,1.345 -0.457,2.81 -0.708,4.398 -0.214,1.3 -0.245,2.606 -0.107,3.928 0.099,0.938 0.307,1.833 0.627,2.688 0.24,0.635 0.603,1.191 1.094,1.663 0.051,0.056 0.1,0.091 0.162,0.13 0.993,0.611 1.903,0.501 2.74,-0.346 1.455,-1.476 2.374,-3.252 2.765,-5.312 0.107,-0.542 0.117,-1.113 0.045,-1.713 -0.072,-0.603 -0.056,-1.549 0.042,-2.855 0.098,-1.306 0.028,-2.825 -0.209,-4.555 0.861,-1.896 1.335,-3.683 1.421,-5.35 0.085,-1.671 0.302,-3.521 0.648,-5.551 0.351,-2.029 0.601,-3.532 0.758,-4.516 l 0.86,-9.872 1.148,-3.308 0.004,-3.363 2.748,-16.038 c 0.551,-3.539 1.116,-7.086 1.667,-10.626 0.354,-2.267 0.249,-4.505 -0.315,-6.718 -0.272,-1.567 -1.117,-2.587 -2.519,-3.068"
         id="path1151" />
      <path
         inkscape:connector-curvature="0"
         style="fill:#b0b6d5"
         d="m 746.38,615.286 c -1.097,-0.628 -2.086,-0.433 -2.971,0.605 -1.196,1.41 -1.996,3.023 -2.408,4.842 -0.343,1.537 -0.545,3.086 -0.613,4.642 -0.04,1.04 -0.162,2.067 -0.361,3.085 -0.449,2.328 -0.767,4.666 -0.938,7.027 -0.037,0.459 -0.115,0.914 -0.237,1.353 -0.257,0.96 -0.084,1.785 0.515,2.49 0.057,0.066 0.084,0.137 0.103,0.215 0.157,0.926 0.112,1.86 -0.141,2.802 -0.612,2.275 -1.226,4.544 -1.83,6.818 -0.584,2.233 -1.081,4.479 -1.479,6.739 -0.106,0.583 -0.201,1.158 -0.277,1.735 -0.312,2.304 -0.515,4.628 -0.605,6.982 -0.074,2.09 -0.323,4.162 -0.755,6.236 -0.424,2.04 -0.642,4.068 -0.648,6.111 -0.008,2.102 -0.191,4.182 -0.555,6.248 -0.385,2.146 -0.75,4.299 -1.108,6.451 -0.373,2.265 -0.206,4.475 0.511,6.624 0.425,1.308 1.277,2.033 2.557,2.195 0.182,-0.02 0.335,-0.075 0.471,-0.16 1.876,-1.194 3.071,-2.907 3.585,-5.15 0.348,-1.509 0.528,-3.05 0.561,-4.623 0.033,-2.019 0.125,-4.049 0.282,-6.07 0.136,-1.756 0.322,-3.526 0.564,-5.284 0.311,-2.303 0.667,-4.581 1.062,-6.848 0.142,-0.828 0.253,-1.646 0.336,-2.472 0.336,-3.286 0.811,-6.55 1.421,-9.778 0.421,-2.247 0.682,-4.526 0.777,-6.833 0.02,-0.472 0.082,-0.938 0.186,-1.389 0.504,-2.186 1.036,-4.37 1.587,-6.551 0.55,-2.17 0.841,-4.383 0.875,-6.609 0.004,-0.474 0.034,-0.944 0.096,-1.402 0.214,-1.783 0.457,-3.553 0.73,-5.328 0.282,-1.773 0.562,-3.538 0.833,-5.312 0.278,-1.68 0.272,-3.363 -0.002,-5.047 -0.098,-0.56 -0.186,-1.122 -0.273,-1.676 -0.201,-1.179 -0.809,-2.066 -1.851,-2.668"
         id="path1153" />
      <path
         inkscape:connector-curvature="0"
         style="fill:#b0b6d5"
         d="m 736.563,616.228 c -0.196,-1.18 -0.807,-2.068 -1.849,-2.669 -1.093,-0.628 -2.082,-0.434 -2.971,0.604 -1.195,1.41 -1.995,3.022 -2.407,4.842 -0.34,1.538 -0.528,2.936 -0.556,4.205 -0.025,1.271 0.062,2.403 0.263,3.414 0.205,0.998 -0.023,2.534 -0.681,4.604 -0.216,0.698 -0.402,1.298 -0.562,1.797 -0.015,0.235 -0.164,1.049 -0.435,2.427 -0.534,2.715 -0.795,4.853 -0.79,6.423 0.006,1.569 -0.262,3.44 -0.806,5.63 -0.543,2.19 -1.015,4.41 -1.417,6.671 -0.104,0.586 -0.2,1.159 -0.274,1.737 -0.313,2.301 -0.516,4.629 -0.607,6.98 -0.072,2.091 -0.33,4.162 -0.769,6.227 -0.44,2.056 -0.909,4.257 -1.396,6.59 -0.487,2.33 -0.673,4.415 -0.547,6.249 0.119,1.832 0.003,3.83 -0.353,5.983 -0.374,2.263 -0.207,4.474 0.512,6.623 0.423,1.309 1.273,2.035 2.553,2.194 0.185,-0.02 0.333,-0.074 0.471,-0.156 1.879,-1.198 3.074,-2.912 3.585,-5.154 0.348,-1.507 0.475,-2.943 0.4,-4.292 -0.084,-1.366 -0.072,-2.919 0.035,-4.672 0.1,-1.754 0.079,-3.735 -0.071,-5.932 0.479,-1.423 0.872,-2.297 1.197,-2.618 0.394,-2.348 0.705,-4.116 0.907,-5.312 0.143,-0.826 0.256,-1.645 0.338,-2.47 0.334,-3.287 0.81,-6.55 1.421,-9.778 0.42,-2.248 0.682,-4.527 0.774,-6.835 0.024,-0.472 0.081,-0.937 0.188,-1.388 0.505,-2.186 0.95,-4.489 1.326,-6.893 0.364,-2.407 0.593,-4.254 0.678,-5.539 0.075,-1.278 0.37,-2.491 0.88,-3.641 0.516,-1.159 0.849,-2.583 1.012,-4.262 0.153,-1.678 0.305,-3.328 0.44,-4.953 0.136,-1.624 0.057,-3.279 -0.216,-4.963 -0.096,-0.555 -0.184,-1.119 -0.273,-1.673"
         id="path1155" />
      <path
         inkscape:connector-curvature="0"
         style="fill:#b0b6d5"
         d="m 726.146,621.363 c 0.352,-2.558 0.273,-4.794 -0.242,-6.706 -0.51,-1.939 -1.325,-2.981 -2.446,-3.119 l -0.019,-10e-4 c -1.111,-0.195 -2.185,0.567 -3.227,2.276 -1.084,1.674 -1.797,3.794 -2.14,6.356 l -3.748,30.05 c -0.734,1.23 -1.304,2.695 -1.705,4.385 -0.187,0.752 -0.334,1.548 -0.449,2.387 -0.356,2.15 -0.292,3.899 0.194,5.237 l -3.591,23.989 c -0.308,2.265 -0.204,4.256 0.326,5.996 0.518,1.713 1.3,2.647 2.352,2.803 l 0.018,0.004 c 1.015,0.147 2.016,-0.521 3.008,-2.008 0.976,-1.521 1.624,-3.4 1.958,-5.659 l 3.72,-28.383 c -0.491,-0.519 -0.659,-1.629 -0.493,-3.322 0.024,-0.234 0.05,-0.478 0.089,-0.727 l 1.982,-6 4.413,-27.558 z"
         id="path1157" />
      <path
         inkscape:connector-curvature="0"
         style="fill:#b0b6d5"
         d="m 712.791,612.713 c -0.54,-1.939 -1.364,-2.986 -2.484,-3.122 l -0.019,-0.005 c -1.11,-0.192 -2.176,0.572 -3.19,2.286 -1.037,1.679 -1.724,3.803 -2.064,6.366 l -4.753,36.877 -1.636,6.562 c -0.26,0.799 -0.292,2.228 -0.095,4.301 l -2.148,18.405 c -0.308,2.267 -0.182,4.261 0.367,6.005 0.516,1.712 1.3,2.646 2.369,2.806 l 0.019,0.001 c 1.004,0.147 1.996,-0.522 2.986,-2.009 0.949,-1.524 1.588,-3.405 1.923,-5.666 l 2.531,-21.962 c -0.462,-1.56 -0.483,-3.274 -0.068,-5.124 l 2.151,-7.055 4.408,-31.949 c 0.334,-2.565 0.227,-4.802 -0.297,-6.717"
         id="path1159" />
      <path
         inkscape:connector-curvature="0"
         style="fill:#b0b6d5"
         d="m 695.475,613.264 c 0.05,-0.003 0.104,0.006 0.151,0.014 l 1.33,0.196 -0.35,4.606 -0.995,-0.148 c -0.515,0.066 -0.866,0.528 -1.081,1.401 -0.969,3.57 -1.758,7.501 -2.374,11.792 -0.019,0.113 -0.036,0.235 -0.055,0.355 -0.002,0.076 -0.014,0.159 -0.025,0.242 -0.003,0.086 -0.007,0.18 -0.015,0.283 -0.03,0.526 0.047,0.966 0.254,1.312 0.007,0.018 0.051,0.045 0.11,0.081 0.047,0.018 0.115,0.045 0.205,0.09 0.064,0.017 0.126,0.044 0.198,0.075 0.029,0.003 0.046,0.006 0.072,0.019 0.092,0.024 0.184,0.056 0.282,0.09 0.181,0.057 0.394,0.106 0.622,0.169 0.028,0.004 0.066,0.01 0.093,0.022 0.008,0.002 0.008,0.002 0.016,0.005 0.03,0.002 0.048,0.006 0.077,0.009 0.329,0.079 0.709,0.153 1.127,0.226 l 1.844,0.309 0.278,0.043 c 0.019,0.003 0.075,0.011 0.179,0.018 0.028,0.004 0.056,0.007 0.086,0.013 -0.036,0.29 -0.081,0.587 -0.131,0.874 -0.151,1.069 -0.374,2.131 -0.662,3.181 -0.021,0.082 -0.043,0.156 -0.066,0.238 -1.006,-0.133 -2.162,-0.273 -3.469,-0.439 l -0.686,-0.12 c -0.266,-0.067 -0.54,-0.136 -0.816,-0.207 -0.393,-0.095 -0.787,-0.192 -1.182,-0.288 -2.338,-0.849 -3.193,-3.014 -2.594,-6.487 l 1.259,-6.01 0.907,-6.557 c 0.664,-3.828 2.468,-5.624 5.411,-5.407"
         id="path1161" />
      <path
         inkscape:connector-curvature="0"
         style="fill:none;stroke:#737a91;stroke-width:1.50460005;stroke-linecap:round;stroke-linejoin:round;stroke-miterlimit:10"
         d="m 696.646,638.778 c -1.006,-0.133 -2.162,-0.273 -3.469,-0.439 l -0.686,-0.12 c -0.266,-0.067 -0.54,-0.136 -0.816,-0.207 -0.393,-0.095 -0.787,-0.192 -1.182,-0.288 -2.338,-0.849 -3.193,-3.014 -2.594,-6.487 l 1.259,-6.01 0.907,-6.557 c 0.662,-3.827 2.467,-5.623 5.409,-5.406 0.05,-0.003 0.104,0.006 0.151,0.014 l 1.33,0.196 -0.35,4.606 -0.995,-0.148 c -0.515,0.066 -0.866,0.528 -1.081,1.401 -0.969,3.57 -1.758,7.501 -2.374,11.792 -0.019,0.113 -0.036,0.235 -0.055,0.355 -0.002,0.076 -0.014,0.159 -0.025,0.242 -0.003,0.086 -0.007,0.18 -0.015,0.283 -0.03,0.526 0.049,0.966 0.254,1.312 0.007,0.018 0.051,0.045 0.11,0.081 0.047,0.018 0.115,0.045 0.205,0.09 0.064,0.017 0.126,0.044 0.198,0.075 0.029,0.003 0.046,0.006 0.072,0.02 0.092,0.023 0.182,0.055 0.282,0.089 0.181,0.057 0.394,0.106 0.622,0.169 0.028,0.004 0.066,0.01 0.093,0.022 0.008,0.002 0.008,0.002 0.016,0.005 0.03,0.002 0.048,0.006 0.077,0.009 0.329,0.079 0.709,0.153 1.127,0.226 l 1.844,0.309 c 0.056,0.011 0.111,0.02 0.177,0.03 0.03,-0.008 0.066,0 0.102,0.013 m 0.18,0.018 c 0.028,0.004 0.056,0.007 0.085,0.013"
         id="path1163" />
      <path
         inkscape:connector-curvature="0"
         style="fill:#c6cee3"
         d="m 694.723,612.384 c 0.155,-0.862 0.63,-1.248 1.423,-1.141 l 5.362,0.758 c 1.005,0.092 1.926,0.218 2.77,0.372 1.074,0.13 1.667,0.483 1.771,1.061 -0.081,1.251 -0.273,2.679 -0.584,4.267 l -0.646,4.164 c -0.128,0.104 -0.255,0.178 -0.364,0.21 -0.508,0.039 -1.007,0.003 -1.476,-0.104 -0.049,-0.009 -0.084,-0.013 -0.121,-0.018 -0.065,-0.01 -0.131,-0.02 -0.195,-0.028 -2.142,-0.31 -4.227,-0.6 -6.265,-0.894 l -2.631,-0.329 c -0.111,-0.732 -0.123,-1.436 -0.008,-2.133 l 0.964,-6.185 z"
         id="path1165" />
      <path
         inkscape:connector-curvature="0"
         style="fill:none;stroke:#737a91;stroke-width:1.50460005;stroke-linecap:round;stroke-linejoin:round;stroke-miterlimit:10"
         d="m 696.146,611.243 5.362,0.758 c 1.005,0.092 1.926,0.218 2.77,0.372 1.074,0.13 1.667,0.483 1.772,1.061 -0.082,1.251 -0.274,2.679 -0.585,4.267 l -0.646,4.164 c -0.128,0.104 -0.255,0.178 -0.364,0.21 -0.508,0.039 -1.007,0.003 -1.476,-0.104 -0.049,-0.009 -0.084,-0.013 -0.121,-0.018 -0.064,-0.01 -0.131,-0.02 -0.195,-0.028 -2.142,-0.31 -4.227,-0.6 -6.265,-0.894 l -2.631,-0.329 c -0.111,-0.732 -0.123,-1.436 -0.008,-2.133 l 0.964,-6.186 c 0.155,-0.862 0.63,-1.247 1.423,-1.14 z"
         id="path1167" />
      <path
         inkscape:connector-curvature="0"
         style="fill:#b0b6d5"
         d="m 696.153,637.688 c -0.461,-0.802 -0.264,-1.551 0.61,-2.246 0.46,-0.17 0.529,-0.513 0.198,-1.029 1.388,0.188 2.188,0.298 2.425,0.322 0.112,0.01 0.215,0.023 0.315,0.039 1.254,0.137 2.217,0.184 2.876,0.16 l 0.427,-0.316 c 0.188,-0.24 0.326,-0.6 0.407,-1.081 l 1.588,-8.281 0.578,-4.288 c 0.082,-1.384 0.092,-2.228 0.019,-2.552 0.073,0.324 0.063,1.168 -0.019,2.552 -10e-4,-0.749 -0.031,-1.182 -0.102,-1.299 -0.083,-0.153 -0.201,-0.255 -0.359,-0.327 l -2.957,-0.439 c -0.371,-0.197 -0.701,-0.473 -0.98,-0.829 -0.409,-0.517 -0.59,-1.093 -0.542,-1.743 0.047,-0.64 0.304,-1.15 0.791,-1.546 0.377,-0.305 0.81,-0.46 1.275,-0.456 l 0.157,0.022 0.681,0.1 c 0.082,0.013 0.175,0.026 0.277,0.041 l 2.065,0.306 c 0.243,0.027 0.475,0.062 0.696,0.105 1.582,0.299 2.653,1.021 3.215,2.168 0.123,0.388 0.228,0.775 0.295,1.164 0.085,0.441 0.114,0.892 0.076,1.342 -0.043,0.603 -0.13,1.19 -0.262,1.766 -0.138,0.542 -0.235,1.079 -0.304,1.609 -0.084,0.748 -0.174,1.487 -0.293,2.22 -0.108,0.667 -0.216,1.337 -0.325,2.007 -0.032,0.154 -0.067,0.321 -0.101,0.478 l -1.301,7.259 c -0.169,0.811 -0.408,1.594 -0.72,2.348 -0.075,0.187 -0.161,0.382 -0.256,0.568 -0.953,1.313 -2.327,1.908 -4.111,1.768 -0.638,-0.113 -2.585,-0.383 -5.85,-0.818 0.823,0.035 1.201,0.054 1.155,0.036 -0.041,-0.017 -0.584,-0.395 -1.644,-1.13"
         id="path1169" />
      <path
         inkscape:connector-curvature="0"
         style="fill:none;stroke:#737a91;stroke-width:1.50460005;stroke-linecap:round;stroke-linejoin:round;stroke-miterlimit:10"
         d="m 702.861,614.35 c 0.075,0 0.149,0.013 0.225,0.023 0.055,0.007 0.205,0.03 0.456,0.076 m 1.935,5.219 c -0.083,-0.153 -0.201,-0.255 -0.359,-0.327 l -2.957,-0.439 c -0.371,-0.197 -0.701,-0.473 -0.98,-0.829 -0.409,-0.517 -0.59,-1.093 -0.542,-1.743 0.047,-0.64 0.304,-1.15 0.791,-1.546 0.377,-0.305 0.811,-0.46 1.275,-0.456 l 0.157,0.022 m 0.68,0.099 c 0.082,0.013 0.175,0.026 0.277,0.041 l 2.065,0.306 c 0.243,0.027 0.475,0.062 0.696,0.105 1.582,0.301 2.653,1.021 3.216,2.168 0.122,0.388 0.227,0.775 0.294,1.164 0.085,0.441 0.114,0.892 0.076,1.342 -0.043,0.603 -0.13,1.19 -0.262,1.766 -0.138,0.542 -0.235,1.079 -0.304,1.609 -0.084,0.748 -0.174,1.487 -0.293,2.22 -0.108,0.668 -0.215,1.337 -0.325,2.007 -0.032,0.155 -0.067,0.321 -0.101,0.478 l -1.301,7.259 c -0.169,0.811 -0.408,1.595 -0.72,2.346 -0.075,0.188 -0.161,0.384 -0.256,0.57 -0.953,1.313 -2.326,1.908 -4.111,1.768 -0.638,-0.113 -2.585,-0.383 -5.85,-0.818 m 8.954,-20.365 c 0.073,0.324 0.063,1.168 -0.019,2.552 l -0.578,4.288 -1.588,8.281 c -0.081,0.481 -0.22,0.841 -0.407,1.081 l -0.427,0.316 c -0.659,0.023 -1.622,-0.023 -2.876,-0.16 -0.101,-0.016 -0.203,-0.029 -0.315,-0.039 -0.236,-0.024 -1.037,-0.135 -2.425,-0.322 m 5.899,-20.062 0.681,0.1"
         id="path1171" />
      <path
         inkscape:connector-curvature="0"
         style="fill:#c6cee3"
         d="m 746.139,584.075 c -0.02,-0.045 -0.05,-0.087 -0.074,-0.118 -0.758,-1.045 -1.501,-1.582 -2.247,-1.627 -0.746,-0.051 -1.365,0.098 -1.87,0.455 -0.468,0.325 -0.81,0.838 -1.03,1.533 -0.165,0.448 -0.269,0.907 -0.321,1.373 -0.028,0.312 -0.049,0.634 -0.058,0.955 -0.015,0.353 -0.021,0.703 -0.038,1.055 -0.009,0.206 -0.025,0.413 -0.037,0.623 -0.156,3.313 -0.527,6.126 -1.102,8.417 -0.1,0.812 0.095,1.536 0.581,2.168 0.509,0.635 1.158,0.999 1.972,1.097 0.813,0.1 1.528,-0.105 2.154,-0.604 0.653,-0.505 1.019,-1.152 1.119,-1.967 0.652,-3.579 1.102,-7.404 1.349,-11.485 0.076,-0.691 -0.049,-1.317 -0.398,-1.875"
         id="path1173" />
      <path
         inkscape:connector-curvature="0"
         style="fill:none;stroke:#737a91;stroke-width:1.50380003;stroke-linecap:round;stroke-linejoin:round;stroke-miterlimit:10"
         d="m 746.065,583.957 c -0.759,-1.045 -1.502,-1.582 -2.248,-1.627 -0.746,-0.051 -1.365,0.098 -1.869,0.455 -0.469,0.326 -0.811,0.838 -1.031,1.533 -0.165,0.448 -0.269,0.907 -0.321,1.373 -0.028,0.312 -0.049,0.634 -0.058,0.955 -0.015,0.353 -0.021,0.703 -0.038,1.055 -0.009,0.206 -0.025,0.413 -0.037,0.623 -0.156,3.313 -0.526,6.125 -1.102,8.417 -0.1,0.812 0.095,1.536 0.582,2.168 0.508,0.635 1.157,0.999 1.971,1.097 0.813,0.1 1.528,-0.105 2.154,-0.604 0.653,-0.505 1.019,-1.152 1.119,-1.967 0.652,-3.579 1.102,-7.404 1.349,-11.486 0.077,-0.69 -0.048,-1.316 -0.397,-1.874 -0.02,-0.043 -0.05,-0.087 -0.074,-0.118 z"
         id="path1175" />
      <path
         inkscape:connector-curvature="0"
         style="fill:#b0b6d5"
         d="m 752.271,597.431 c -2.886,-0.625 -5.557,-1.276 -8.006,-1.947 -2.448,-0.67 -7.296,-1.551 -14.529,-2.633 -0.795,-0.04 -1.549,-0.1 -2.271,-0.173 -2.139,-0.223 -4.68,-0.22 -7.609,-0.011 -1.218,0.076 -2.382,0.181 -3.507,0.32 -1.124,0.145 -3.728,0.333 -7.817,0.562 -4.089,0.227 -6.945,0.287 -8.569,0.174 -1.623,-0.109 -3.028,0.223 -4.209,0.991 -0.278,0.283 -0.546,0.6 -0.792,0.955 -0.309,1.227 -0.576,2.458 -0.828,3.691 -0.248,1.227 -0.474,2.159 -0.69,2.779 -0.216,0.619 -0.427,1.472 -0.646,2.537 -0.211,1.06 -0.303,2.21 -0.286,3.437 1.737,-0.098 4.401,-0.249 8.003,-0.47 3.591,-0.223 7.493,-0.571 11.705,-1.044 4.203,-0.476 7.968,-0.485 11.286,-0.031 3.317,0.453 6.787,0.754 10.4,0.898 3.614,0.136 7.022,0.519 10.23,1.154 2.795,0.55 5.852,1.34 9.175,2.349 3.231,0.982 6.468,2.013 9.694,3.083 3.25,1.091 6.523,2.07 9.81,2.959 3.394,0.888 6.833,1.525 10.324,1.905 0.706,0.062 1.42,0.132 2.121,0.202 0.253,-0.336 0.447,-0.769 0.57,-1.311 0.133,-0.569 0.198,-1.256 0.197,-2.048 -0.002,-0.679 0.013,-1.346 0.027,-2.01 0.026,-0.94 0.117,-1.86 0.264,-2.781 0.046,-0.306 0.104,-0.64 0.164,-1.019 0.304,-1.798 -0.288,-3.338 -1.777,-4.62 -0.198,-0.168 -0.434,-0.334 -0.702,-0.487 -1.871,-0.911 -3.83,-1.542 -5.879,-1.881 -2.975,-0.507 -5.971,-0.959 -8.962,-1.364 -2.694,-0.418 -5.354,-0.991 -7.963,-1.713 -3.001,-0.726 -5.977,-1.549 -8.928,-2.453"
         id="path1177" />
      <path
         inkscape:connector-curvature="0"
         style="fill:none;stroke:#737a91;stroke-width:1.50380003;stroke-linecap:round;stroke-linejoin:round;stroke-miterlimit:10"
         d="m 744.266,595.483 c -2.448,-0.67 -7.296,-1.551 -14.529,-2.633 -0.795,-0.039 -1.549,-0.1 -2.271,-0.173 -2.139,-0.223 -4.679,-0.22 -7.609,-0.011 -1.218,0.076 -2.382,0.181 -3.507,0.32 -1.124,0.145 -3.728,0.333 -7.817,0.562 -4.089,0.227 -6.945,0.287 -8.569,0.174 -1.623,-0.109 -3.028,0.223 -4.209,0.993 -0.278,0.281 -0.546,0.598 -0.792,0.953 -0.309,1.227 -0.576,2.458 -0.828,3.691 -0.248,1.227 -0.474,2.159 -0.69,2.779 -0.216,0.619 -0.427,1.472 -0.646,2.537 -0.211,1.06 -0.303,2.21 -0.286,3.437 1.737,-0.098 4.401,-0.249 8.003,-0.47 3.591,-0.223 7.493,-0.571 11.705,-1.044 4.203,-0.476 7.968,-0.485 11.286,-0.031 3.318,0.453 6.787,0.754 10.4,0.898 3.614,0.136 7.022,0.519 10.23,1.154 2.795,0.55 5.852,1.34 9.175,2.349 3.231,0.982 6.468,2.013 9.694,3.083 3.25,1.091 6.523,2.07 9.81,2.959 3.394,0.888 6.833,1.525 10.324,1.905 0.706,0.062 1.42,0.132 2.122,0.202 0.252,-0.336 0.446,-0.769 0.57,-1.311 0.132,-0.569 0.197,-1.256 0.196,-2.048 -0.002,-0.679 0.013,-1.346 0.027,-2.01 0.026,-0.94 0.117,-1.86 0.264,-2.781 0.046,-0.306 0.104,-0.64 0.164,-1.019 0.304,-1.798 -0.288,-3.338 -1.777,-4.62 -0.199,-0.168 -0.434,-0.334 -0.702,-0.487 -1.871,-0.911 -3.83,-1.542 -5.879,-1.881 -2.975,-0.507 -5.971,-0.959 -8.962,-1.364 -2.694,-0.418 -5.353,-0.991 -7.963,-1.713 -3.001,-0.729 -5.978,-1.552 -8.928,-2.456 -2.886,-0.621 -5.557,-1.273 -8.006,-1.944 z"
         id="path1179" />
    </g>
  </g>
</svg>
