<?xml version="1.0" encoding="UTF-8" standalone="no"?>
<!-- Created with Inkscape (http://www.inkscape.org/) -->

<svg
   xmlns:dc="http://purl.org/dc/elements/1.1/"
   xmlns:cc="http://creativecommons.org/ns#"
   xmlns:rdf="http://www.w3.org/1999/02/22-rdf-syntax-ns#"
   xmlns:svg="http://www.w3.org/2000/svg"
   xmlns="http://www.w3.org/2000/svg"
   xmlns:sodipodi="http://sodipodi.sourceforge.net/DTD/sodipodi-0.dtd"
   xmlns:inkscape="http://www.inkscape.org/namespaces/inkscape"
   width="146.40477"
   height="228.11563"
   id="svg5696"
   version="1.1"
   inkscape:version="0.48.4 r9939"
   sodipodi:docname="oscar7.svg">
  <defs
     id="defs5698">
    <clipPath
       id="SVGID_2_">
      <rect
         height="88.862999"
         width="111.498"
         y="518.96198"
         x="382.04999"
         id="use1087" />
    </clipPath>
    <clipPath
       id="SVGID_4_">
      <rect
         height="41.314999"
         width="49.584999"
         y="525.19397"
         x="389.84698"
         id="use1111" />
    </clipPath>
  </defs>
  <sodipodi:namedview
     id="base"
     pagecolor="#ffffff"
     bordercolor="#666666"
     borderopacity="1.0"
     inkscape:pageopacity="0.0"
     inkscape:pageshadow="2"
     inkscape:zoom="0.77472527"
     inkscape:cx="73.197029"
     inkscape:cy="114.07038"
     inkscape:current-layer="layer1"
     inkscape:document-units="px"
     showgrid="false"
     inkscape:window-width="763"
     inkscape:window-height="591"
     inkscape:window-x="592"
     inkscape:window-y="97"
     inkscape:window-maximized="0"
     fit-margin-top="0"
     fit-margin-left="0"
     fit-margin-right="0"
     fit-margin-bottom="0" />
  <metadata
     id="metadata5701">
    <rdf:RDF>
      <cc:Work
         rdf:about="">
        <dc:format>image/svg+xml</dc:format>
        <dc:type
           rdf:resource="http://purl.org/dc/dcmitype/StillImage" />
        <dc:title></dc:title>
      </cc:Work>
    </rdf:RDF>
  </metadata>
  <g
     id="layer1"
     inkscape:label="Layer 1"
     inkscape:groupmode="layer"
     transform="translate(-244.74627,28.938881)">
    <g
       transform="translate(-390.4581,-294.917)"
       id="g667">
      <path
         inkscape:connector-curvature="0"
         style="fill:#9fc94c"
         d="m 765.195,359.639 c -0.362,-1.974 -0.656,-3.356 -0.882,-4.156 -0.518,-1.804 -0.802,-5.196 -0.873,-10.184 -0.059,-4.237 0.129,-7.463 0.554,-9.707 -1.182,0.025 -2.293,0.039 -3.341,0.043 -0.041,0.037 -0.081,0.065 -0.119,0.091 l -2.32,1.454 -0.349,-1.551 c -3.866,-0.038 -7.152,-0.198 -9.851,-0.481 -0.021,0.061 -0.038,0.114 -0.059,0.178 -0.115,0.351 -0.32,0.672 -0.601,0.951 -0.374,0.317 -0.668,0.579 -0.881,0.776 -0.028,1.12 0.381,1.852 1.215,2.193 0.535,0.224 1.502,0.311 2.891,0.279 1.517,-0.043 2.568,0.003 3.141,0.139 1.056,0.255 1.723,0.863 2.003,1.803 0.209,0.676 0.198,1.34 -0.01,1.979 -0.181,0.55 -0.535,0.991 -1.064,1.327 -0.677,0.429 -1.501,0.543 -2.483,0.375 l -10.594,-3.378 c -0.379,0.174 -0.773,0.345 -1.19,0.496 -0.409,0.155 -0.801,0.289 -1.188,0.408 -0.3,0.272 -0.675,0.53 -1.118,0.762 -0.216,0.109 -0.429,0.209 -0.643,0.289 -7.733,4.474 -21.061,8.315 -39.985,11.53 l 3.507,14.985 c 23.437,-0.463 43.775,-3.005 61.019,-7.638 0.421,-0.498 0.893,-0.994 1.408,-1.472 0.588,-0.549 1.199,-1.045 1.813,-1.491"
         id="path669" />
      <path
         inkscape:connector-curvature="0"
         style="fill:#255f27"
         d="m 760.716,364.072 c 0.108,-0.153 0.245,-0.297 0.413,-0.413 -17.379,4.58 -37.368,7.066 -59.971,7.453 l -0.201,-0.873 c -0.231,0.002 -0.462,0.007 -0.692,0.009 l 0.331,1.456 c 0.191,0.113 0.423,0.17 0.675,0.163 21.898,-0.378 41.351,-2.703 58.364,-6.992 0.322,-0.285 0.678,-0.546 1.081,-0.803"
         id="path671" />
      <path
         inkscape:connector-curvature="0"
         style="fill:#255f27"
         d="m 761.179,363.624 c 0.244,-0.346 0.514,-0.686 0.795,-1.023 -17.243,4.633 -37.582,7.175 -61.017,7.638 l 0.201,0.873 c 22.602,-0.387 42.592,-2.873 59.971,-7.453 0.015,-0.014 0.039,-0.028 0.05,-0.035"
         id="path673" />
      <path
         inkscape:connector-curvature="0"
         style="fill:#255f27"
         d="m 759.177,335.639 c -0.013,0.005 -0.021,0.004 -0.03,0 -0.065,0.047 -0.134,0.105 -0.2,0.155 -0.013,-0.055 -0.02,-0.095 -0.022,-0.149 -0.355,-0.005 -0.714,-0.012 -1.059,-0.017 l 0.35,1.55 2.319,-1.453 c 0.038,-0.026 0.078,-0.054 0.118,-0.091 -0.509,0.005 -1.001,0.012 -1.476,0.005"
         id="path675" />
      <path
         inkscape:connector-curvature="0"
         style="fill:#255f27"
         d="m 758.924,335.646 c 0.003,0.054 0.011,0.094 0.022,0.149 0.066,-0.05 0.134,-0.108 0.2,-0.155 -0.072,0.006 -0.148,0 -0.222,0.006"
         id="path677" />
      <path
         inkscape:connector-curvature="0"
         style="fill:#255f27"
         d="m 696.922,355.339 c 0.181,-0.032 0.347,-0.054 0.526,-0.086 l -0.158,-0.647 c 16.005,-2.668 27.951,-5.852 35.844,-9.538 -0.116,-0.01 -0.238,-0.029 -0.354,-0.066 -0.189,-0.063 -0.319,-0.156 -0.411,-0.275 -0.132,0.007 -0.257,-0.004 -0.382,-0.017 -0.218,0.12 -0.41,0.187 -0.572,0.223 -7.782,3.433 -19.254,6.416 -34.411,8.938 -0.147,0.023 -0.278,0.058 -0.389,0.124 l 0.307,1.344 z"
         id="path679" />
      <path
         inkscape:connector-curvature="0"
         style="fill:#9fc94c"
         d="m 697.448,355.253 c -0.18,0.032 -0.347,0.054 -0.526,0.086 l 3.343,14.908 c 0.23,-0.002 0.461,-0.007 0.69,-0.009 l -3.507,-14.985 z"
         id="path681" />
      <path
         inkscape:connector-curvature="0"
         style="fill:#255f27"
         d="m 697.291,354.606 0.157,0.647 c 18.925,-3.215 32.252,-7.056 39.985,-11.53 -0.431,0.157 -0.871,0.251 -1.317,0.277 -0.136,0.264 -0.393,0.378 -0.787,0.362 -0.113,0.139 -0.317,0.241 -0.61,0.315 -0.075,0.016 -0.142,0.034 -0.204,0.042 -0.037,0.02 -0.074,0.046 -0.112,0.074 -0.187,0.109 -0.381,0.154 -0.588,0.146 -0.229,0.096 -0.454,0.14 -0.679,0.127 -7.895,3.688 -19.84,6.872 -35.845,9.54"
         id="path683" />
      <path
         inkscape:connector-curvature="0"
         style="fill:none;stroke:#255f27;stroke-width:1.51559997;stroke-linecap:round;stroke-linejoin:round;stroke-miterlimit:10"
         d="m 758.924,335.646 c 0.003,0.054 0.011,0.094 0.022,0.149 0.066,-0.05 0.134,-0.108 0.2,-0.155 m -26.01,9.428 c -7.895,3.686 -19.841,6.87 -35.845,9.538 l 0.157,0.647 3.509,14.985 0.201,0.873 c 22.602,-0.387 42.592,-2.873 59.971,-7.453"
         id="path685" />
      <path
         inkscape:connector-curvature="0"
         style="fill:#255f27"
         d="m 761.938,342.429 h 0.012 c 0.238,0.035 0.469,0.074 0.692,0.121 0.229,0.139 0.544,0.311 0.927,0.517 0.819,0.433 1.405,0.853 1.746,1.258 0.091,0.107 0.214,0.387 0.354,0.835 0.054,0.165 0.097,0.288 0.136,0.393 -0.142,-0.005 -0.271,-0.058 -0.391,-0.14 -0.615,-0.457 -1.276,-0.803 -1.978,-1.064 l -1.625,-1.938 c 0.043,0.002 0.085,0.014 0.127,0.018"
         id="path687" />
      <path
         inkscape:connector-curvature="0"
         style="fill:#255f27"
         d="m 763.688,341.108 c 0.062,-0.163 0.166,-0.287 0.321,-0.381 0.89,-0.539 1.8,-1.056 2.725,-1.524 2.224,-1.139 4.536,-2.096 6.948,-2.876 4.609,-1.48 6.715,-3.507 6.312,-6.088 -0.54,-2.636 -2.527,-4.224 -5.941,-4.756 -3.638,-0.504 -8.355,1.713 -14.17,6.661 -0.058,0.048 -0.123,0.088 -0.198,0.116 l -2.024,0.862 c 2.926,2.337 4.188,5.295 3.789,8.857 l -1.463,-1.742 c -0.165,-2.562 -1.473,-4.703 -3.919,-6.434 -0.077,-0.043 -0.152,-0.092 -0.236,-0.133 -0.052,-0.017 -0.11,-0.042 -0.174,-0.075 -0.53,-0.161 -1.054,-0.287 -1.556,-0.37 l -1.396,-1.661 c 1.064,0.017 2.186,0.209 3.371,0.583 L 759,330.913 c 6.226,-5.275 11.316,-7.578 15.284,-6.917 4.203,0.647 6.608,2.633 7.195,5.958 0.743,3.394 -1.695,5.994 -7.332,7.806 -2.033,0.66 -4.005,1.454 -5.899,2.38 2.246,2.437 3.137,4.955 2.676,7.532 -0.148,0.879 -0.366,1.678 -0.655,2.374 0.544,0.69 0.807,1.124 0.786,1.29 l -0.004,-0.035 c 0.166,0.86 0.258,1.669 0.271,2.435 l -1.734,-2.066 c -0.007,-0.022 -0.005,-0.047 -0.015,-0.075 0.002,-0.015 -0.004,-0.02 -0.009,-0.027 0,-0.015 -0.021,-0.037 -0.045,-0.052 -0.002,0.014 -0.017,0.024 -0.023,0.044 l -1.036,-1.235 c 0.083,-0.147 0.172,-0.306 0.247,-0.467 0.007,-0.005 0.007,-0.005 0.007,-0.019 0.008,-0.019 0.023,-0.032 0.024,-0.045 0.312,-0.683 0.552,-1.473 0.695,-2.37 0.334,-2.127 -0.443,-4.346 -2.333,-6.654 0.37,-0.349 -0.763,-0.236 -3.412,0.338"
         id="path689" />
      <path
         inkscape:connector-curvature="0"
         style="fill:#255f27"
         d="m 763.437,344.347 c -0.532,-0.194 -1.088,-0.33 -1.669,-0.42 -0.015,0 -0.015,0 -0.026,-0.003 -0.095,-0.007 -0.193,-0.022 -0.287,-0.032 l -0.393,0.194 c -0.024,0.131 -0.054,0.255 -0.08,0.391 l 0.007,-0.007 c -0.403,2.393 -1.467,4.224 -3.177,5.488 0.467,1.248 1.357,2.087 2.658,2.524 3.905,0.911 6.569,0.192 7.987,-2.158 l 1.037,1.236 c -1.686,2.56 -4.657,3.391 -8.939,2.488 -0.764,1.32 -0.898,2.468 -0.401,3.442 0.663,1.094 2.123,1.998 4.365,2.717 0.031,0.01 0.06,0.012 0.084,0.027 4.16,-1.312 5.816,-4.165 4.981,-8.565 l 1.735,2.066 c 0.057,4.104 -2.166,6.783 -6.671,8.065 -1.197,1.113 -2.517,2.05 -3.978,2.821 -0.015,0.012 -0.035,0.016 -0.055,0.02 -1.993,0.873 -4.514,1.45 -7.561,1.752 l 0.019,-0.004 c -0.188,0.022 -0.372,0.041 -0.572,0.049 l 0.013,0.001 c -0.101,0.01 -0.203,0.022 -0.312,0.025 -0.201,0.022 -0.384,-0.034 -0.548,-0.154 -0.157,-0.126 -0.25,-0.297 -0.277,-0.504 -0.023,-0.218 0.035,-0.401 0.157,-0.562 0.129,-0.159 0.295,-0.25 0.492,-0.279 h 0.013 c 0.122,-0.018 0.251,-0.026 0.357,-0.03 l 0.007,-0.006 c 0.176,-0.012 0.34,-0.022 0.487,-0.039 0.014,0.003 0.014,0.003 0.02,-0.002 2.837,-0.276 5.181,-0.815 7.046,-1.604 1.08,-0.575 2.093,-1.25 3.009,-2.02 -2.1,-0.812 -3.479,-1.825 -4.122,-3.033 -0.794,-1.342 -0.711,-2.901 0.263,-4.693 -1.271,-0.631 -2.176,-1.635 -2.699,-3.008 -1.194,0.205 -2.342,0.073 -3.42,-0.404 l -0.015,0.012 c -0.501,0.385 -1.026,0.713 -1.562,1.004 -0.265,0.124 -0.529,0.233 -0.805,0.332 -0.346,0.115 -0.693,0.198 -1.061,0.248 -0.284,0.028 -0.562,0.017 -0.842,-0.033 -0.67,-0.139 -1.336,-0.331 -2.011,-0.591 -0.311,-0.121 -0.614,-0.247 -0.923,-0.369 0.661,0.071 1.34,0.055 2.024,-0.024 1.042,-0.124 2.032,-0.437 2.973,-0.933 0.281,-0.148 0.557,-0.32 0.821,-0.505 -0.797,-0.625 -1.47,-1.341 -2.016,-2.151 -0.073,-0.172 -0.129,-0.345 -0.174,-0.532 -0.08,-0.341 -0.147,-0.687 -0.191,-1.034 -0.019,-0.168 -0.019,-0.327 -0.007,-0.476 0.034,-0.46 0.125,-0.893 0.276,-1.302 0.059,0.057 0.103,0.123 0.123,0.19 0.322,0.752 0.697,1.461 1.12,2.142 0.53,0.823 1.198,1.532 2.015,2.138 0.179,0.111 0.355,0.231 0.527,0.348 l 0.019,0.009 0.007,0.007 c 0.93,0.476 1.921,0.617 2.963,0.42 l -0.014,-0.001 c 0.122,-0.019 0.245,-0.048 0.361,-0.071 1.579,-1.055 2.547,-2.631 2.897,-4.737 0.052,-0.277 0.097,-0.547 0.158,-0.81 0.017,-0.024 0.02,-0.049 0.021,-0.077 0.007,-0.006 0.007,-0.006 0.008,-0.02 0.261,-1.083 0.363,-2.104 0.303,-3.074 l 1.462,1.742 c -0.012,0.13 -0.03,0.256 -0.055,0.388 h 0.016 c 0.136,0.022 0.269,0.031 0.4,0.043 l 1.627,1.935 v 0.003 z"
         id="path691" />
      <path
         inkscape:connector-curvature="0"
         style="fill:#255f27"
         d="m 752.704,331.564 1.397,1.661 c -3.847,-0.604 -6.891,1.273 -9.125,5.625 -0.621,1.202 -1.522,2.178 -2.7,2.936 l -0.009,0.005 c -1.802,1.168 -4.072,2.249 -6.799,3.244 l 0.006,-0.006 c -0.306,0.119 -0.621,0.228 -0.952,0.348 -0.05,0.014 -0.104,0.035 -0.174,0.057 -0.021,0.003 -0.039,0.01 -0.068,0.021 l 0.035,-0.005 c -0.182,0.065 -0.354,0.125 -0.538,0.181 -0.207,0.063 -0.395,0.048 -0.58,-0.043 -0.18,-0.097 -0.301,-0.241 -0.371,-0.442 -0.067,-0.2 -0.053,-0.386 0.045,-0.578 0.096,-0.179 0.24,-0.298 0.44,-0.369 0.166,-0.053 0.316,-0.106 0.471,-0.158 0.007,-0.006 0.015,-0.014 0.026,-0.012 0.043,-0.023 0.084,-0.033 0.116,-0.035 l 0.008,-0.007 c 0.354,-0.124 0.686,-0.243 1.009,-0.369 l 0.015,0.002 c 2.609,-0.957 4.775,-1.989 6.5,-3.103 0.957,-0.607 1.681,-1.389 2.175,-2.356 2.29,-4.449 5.308,-6.652 9.073,-6.597"
         id="path693" />
      <path
         inkscape:connector-curvature="0"
         style="fill:#9fc94c"
         d="m 759.684,332.259 c 0.075,-0.028 0.139,-0.067 0.198,-0.116 5.815,-4.947 10.531,-7.165 14.17,-6.661 3.415,0.532 5.401,2.12 5.941,4.756 0.404,2.581 -1.702,4.607 -6.312,6.088 -2.412,0.78 -4.725,1.737 -6.948,2.876 -0.925,0.468 -1.835,0.985 -2.726,1.524 -0.157,0.094 -0.259,0.219 -0.32,0.381 2.647,-0.575 3.781,-0.687 3.41,-0.34 1.888,2.308 2.667,4.526 2.334,6.654 -0.145,0.897 -0.382,1.688 -0.696,2.37 -0.002,0.013 -0.017,0.026 -0.024,0.045 0,0.013 0,0.013 -0.008,0.019 -1.328,2.719 -4.078,3.597 -8.233,2.625 -1.302,-0.437 -2.191,-1.276 -2.658,-2.524 1.71,-1.263 2.773,-3.095 3.178,-5.488 l -0.008,0.007 c 0.026,-0.136 0.056,-0.259 0.08,-0.391 l 0.393,-0.194 c 0.093,0.011 0.192,0.025 0.287,0.033 0.013,0.002 0.013,0.002 0.026,0.002 1.342,0.191 2.556,0.687 3.646,1.485 0.12,0.082 0.249,0.135 0.391,0.14 -0.039,-0.102 -0.082,-0.228 -0.135,-0.393 -0.142,-0.448 -0.265,-0.727 -0.356,-0.835 -0.339,-0.405 -0.925,-0.825 -1.744,-1.258 -0.383,-0.206 -0.697,-0.375 -0.927,-0.517 -0.224,-0.047 -0.454,-0.086 -0.693,-0.121 h -0.011 c -0.176,-0.016 -0.354,-0.037 -0.53,-0.061 l -0.016,-0.002 c 0.541,-3.744 -0.704,-6.823 -3.733,-9.246 l 2.024,-0.858 z"
         id="path695" />
      <path
         inkscape:connector-curvature="0"
         style="fill:#9fc94c"
         d="m 769.517,351.514 c 0.024,0.015 0.045,0.037 0.045,0.052 0.005,0.007 0.011,0.012 0.009,0.027 0.871,4.443 -0.788,7.327 -4.968,8.642 -0.024,-0.016 -0.053,-0.018 -0.084,-0.028 -2.242,-0.719 -3.702,-1.622 -4.365,-2.717 -0.497,-0.975 -0.363,-2.122 0.401,-3.442 4.3,0.91 7.287,0.067 8.962,-2.534"
         id="path697" />
      <path
         inkscape:connector-curvature="0"
         style="fill:#9fc94c"
         d="m 755.656,333.595 c 0.063,0.033 0.122,0.058 0.174,0.077 0.084,0.039 0.159,0.088 0.236,0.131 3.369,2.373 4.573,5.538 3.617,9.507 -10e-4,0.014 -10e-4,0.014 -0.008,0.02 -0.002,0.028 -0.007,0.053 -0.021,0.077 -0.062,0.263 -0.106,0.534 -0.158,0.81 -0.352,2.106 -1.316,3.682 -2.898,4.738 -0.115,0.021 -0.238,0.051 -0.36,0.07 l 0.014,0.001 c -1.042,0.196 -2.035,0.055 -2.963,-0.42 l -0.007,-0.007 -0.019,-0.008 c -0.172,-0.117 -0.348,-0.238 -0.525,-0.349 -0.818,-0.606 -1.487,-1.315 -2.019,-2.136 -0.421,-0.683 -0.796,-1.391 -1.118,-2.144 -0.021,-0.068 -0.064,-0.133 -0.123,-0.19 -0.151,0.409 -0.242,0.841 -0.275,1.302 -0.013,0.148 -0.013,0.308 0.005,0.476 0.043,0.347 0.112,0.692 0.192,1.034 0.045,0.187 0.102,0.36 0.174,0.532 0.546,0.81 1.219,1.526 2.016,2.151 -0.265,0.186 -0.54,0.357 -0.821,0.505 -0.941,0.496 -1.933,0.809 -2.973,0.933 -0.687,0.08 -1.363,0.095 -2.026,0.024 0.311,0.123 0.614,0.249 0.926,0.369 0.674,0.26 1.341,0.452 2.012,0.591 0.278,0.05 0.556,0.062 0.84,0.033 0.367,-0.048 0.716,-0.132 1.061,-0.248 0.275,-0.099 0.54,-0.208 0.803,-0.332 0.536,-0.291 1.062,-0.619 1.563,-1.003 l 0.015,-0.013 c 1.076,0.477 2.226,0.608 3.422,0.404 0.521,1.373 1.426,2.377 2.695,3.008 -0.972,1.792 -1.055,3.351 -0.262,4.693 0.645,1.208 2.022,2.221 4.123,3.033 -0.918,0.77 -1.929,1.446 -3.009,2.022 -1.865,0.787 -4.209,1.327 -7.046,1.602 -0.006,0.005 -0.006,0.005 -0.019,0.002 -0.149,0.017 -0.312,0.027 -0.488,0.039 l -0.007,0.006 c -0.106,0.004 -0.235,0.012 -0.355,0.031 l -0.014,-0.001 c -0.018,-0.036 -0.035,-0.07 -0.052,-0.091 -0.188,-0.226 -0.438,-0.447 -0.739,-0.675 -0.302,-0.227 -0.452,-0.348 -0.471,-0.368 -0.309,-0.369 -1.018,-0.994 -2.133,-1.882 -1.116,-0.888 -1.935,-1.644 -2.455,-2.264 -1.149,-1.561 -1.777,-2.411 -1.892,-2.548 -0.007,-0.009 -0.134,-0.248 -0.381,-0.719 -0.247,-0.483 -0.55,-0.931 -0.9,-1.35 -0.66,-0.785 -1.153,-1.667 -1.464,-2.639 -0.305,-0.962 -0.678,-1.701 -1.108,-2.213 -0.309,-0.369 -0.754,-0.809 -1.342,-1.336 -0.583,-0.519 -1.204,-1.169 -1.854,-1.943 -0.104,-0.122 -0.63,-0.445 -1.588,-0.955 -0.379,-0.214 -0.758,-0.415 -1.127,-0.605 0.331,-0.121 0.647,-0.229 0.952,-0.348 l -0.006,0.006 c 2.727,-0.995 4.996,-2.076 6.799,-3.244 l 0.009,-0.005 c 1.176,-0.758 2.081,-1.733 2.7,-2.936 2.531,-4.921 6.086,-6.673 10.678,-5.255"
         id="path699" />
      <path
         inkscape:connector-curvature="0"
         style="fill:#255f27"
         d="m 710.695,341.174 -31.584,0.776 c 1.807,14.068 0.32,25.569 -4.452,34.496 -0.01,0.008 -0.031,0.025 -0.038,0.054 -0.432,0.675 -0.834,1.376 -1.198,2.101 -2.913,5.445 -4.438,11.669 -4.576,18.668 -0.192,9.611 2.271,17.857 7.392,24.742 5.058,6.805 11.251,10.292 18.592,10.446 7.321,0.136 13.657,-3.101 18.988,-9.704 5.372,-6.68 8.158,-14.817 8.349,-24.432 0.088,-4.494 -0.406,-8.695 -1.478,-12.59 -0.557,-1.982 -1.278,-3.845 -2.182,-5.577 -1.086,-2.075 -2.144,-4.153 -3.192,-6.222 l -0.019,-0.018 c -3.932,-8.538 -5.469,-19.456 -4.602,-32.74"
         id="path701" />
      <path
         inkscape:connector-curvature="0"
         style="fill:none;stroke:#255f27;stroke-width:1.51559997;stroke-linecap:round;stroke-linejoin:round;stroke-miterlimit:10"
         d="m 679.112,341.95 c 1.806,14.068 0.319,25.569 -4.453,34.494 -0.01,0.01 -0.031,0.027 -0.039,0.056 -0.431,0.675 -0.832,1.376 -1.198,2.101 -2.911,5.445 -4.438,11.669 -4.575,18.668 -0.192,9.611 2.27,17.857 7.393,24.742 5.057,6.805 11.25,10.292 18.591,10.446 7.321,0.136 13.655,-3.101 18.989,-9.704 5.371,-6.68 8.157,-14.817 8.348,-24.432 0.088,-4.494 -0.405,-8.695 -1.478,-12.59 -0.558,-1.982 -1.277,-3.845 -2.181,-5.577 -1.087,-2.075 -2.145,-4.153 -3.193,-6.222 l -0.019,-0.019 c -3.932,-8.538 -5.469,-19.456 -4.601,-32.74 l -31.584,0.777 z"
         id="path703" />
      <path
         inkscape:connector-curvature="0"
         style="fill:#9fc94c"
         d="m 709.895,341.954 -29.925,0.732 c 1.668,13.876 0.115,25.253 -4.636,34.122 -0.028,0.026 -0.049,0.065 -0.067,0.102 -0.421,0.647 -0.812,1.329 -1.169,2.034 v 0.02 c -2.864,5.343 -4.356,11.452 -4.494,18.319 -0.186,9.42 2.231,17.515 7.241,24.272 h 0.009 c 4.9,6.599 10.897,9.977 17.992,10.146 7.093,0.111 13.219,-3.029 18.385,-9.416 v -0.008 c 5.268,-6.557 7.991,-14.547 8.178,-23.97 0.089,-4.424 -0.39,-8.546 -1.441,-12.374 -0.538,-1.934 -1.252,-3.74 -2.13,-5.434 v 0.008 c -1.067,-2.056 -2.125,-4.114 -3.155,-6.152 -0.027,-0.039 -0.056,-0.078 -0.071,-0.125 -3.909,-8.462 -5.478,-19.215 -4.717,-32.276"
         id="path705" />
      <path
         inkscape:connector-curvature="0"
         style="fill:#9fc94c"
         d="m 693.451,364.776 c -4.109,-1.589 -8.668,-1.841 -13.681,-0.761 -7.034,2.087 -12.032,6.884 -15.009,14.374 -0.323,0.938 -0.618,2.253 -0.878,3.932 l 10.765,0.015 c -0.245,-1.13 -0.404,-2.381 -0.486,-3.772 0.082,1.392 0.241,2.643 0.486,3.772 0.641,2.937 1.831,4.987 3.582,6.144 0.417,0.19 0.825,0.322 1.232,0.4 0.767,0.162 1.533,0.115 2.301,-0.158 0.21,-0.077 0.408,-0.172 0.599,-0.274 0.54,-0.321 0.978,-0.787 1.3,-1.38 0.389,-0.729 0.607,-1.526 0.676,-2.369 0.049,-0.682 0.05,-1.374 -0.008,-2.076 -0.009,-0.199 -0.027,-0.388 -0.046,-0.586 0.019,0.198 0.037,0.387 0.046,0.586 0.058,0.702 0.057,1.395 0.008,2.076 -0.068,0.843 -0.287,1.64 -0.676,2.369 -0.322,0.593 -0.76,1.059 -1.3,1.38 0.159,0.731 0.357,1.449 0.595,2.152 0.726,2.141 2.145,3.659 4.238,4.562 0.796,0.247 1.544,0.21 2.245,-0.11 0.645,-0.387 1.205,-0.85 1.688,-1.41 0.075,-0.084 0.152,-0.179 0.221,-0.266 0.093,-0.111 0.178,-0.226 0.256,-0.34 0.065,-0.084 0.122,-0.178 0.189,-0.266 0.045,-0.078 0.085,-0.15 0.131,-0.227 0.353,-0.605 0.656,-1.287 0.895,-2.033 0.43,-1.424 0.63,-3.109 0.585,-5.071 0.045,1.962 -0.155,3.647 -0.585,5.071 -0.238,0.746 -0.542,1.428 -0.895,2.033 -0.046,0.076 -0.086,0.148 -0.131,0.227 0.426,0.482 0.651,0.741 0.679,0.768 0.04,0.029 0.068,0.068 0.097,0.105 1.278,1.261 2.764,1.691 4.471,1.265 2.332,-0.933 3.764,-2.786 4.299,-5.545 0.209,-1.364 0.316,-2.68 0.327,-3.951 0.012,-1.165 -0.071,-2.302 -0.24,-3.392 v -0.019 c -0.029,-0.132 -0.048,-0.266 -0.067,-0.39 -0.103,-0.588 -0.233,-1.164 -0.385,-1.732 -0.067,-0.266 -0.152,-0.531 -0.236,-0.797 0.084,0.266 0.169,0.531 0.236,0.797 0.151,0.568 0.282,1.145 0.385,1.732 0.02,0.124 0.038,0.258 0.067,0.39 0.549,-0.048 1.022,-0.171 1.421,-0.387 0.332,-0.179 0.605,-0.408 0.823,-0.7 0.287,-0.378 0.485,-0.852 0.61,-1.41 0.364,-3.049 -0.409,-5.856 -2.311,-8.417 -0.01,-0.02 -0.029,-0.038 -0.037,-0.059 l -0.312,-0.397 c -0.029,-0.039 -0.067,-0.076 -0.096,-0.115 -2.024,-2.51 -4.712,-4.419 -8.074,-5.74"
         id="path707" />
      <path
         inkscape:connector-curvature="0"
         style="fill:none;stroke:#255f27;stroke-width:1.51629996;stroke-linecap:round;stroke-linejoin:round;stroke-miterlimit:10"
         d="m 674.162,378.563 c 0.082,1.392 0.241,2.643 0.486,3.772 m 26.777,-0.333 v 0.019 c 0.17,1.09 0.253,2.227 0.24,3.392 -0.01,1.271 -0.117,2.586 -0.326,3.951 -0.535,2.759 -1.967,4.612 -4.299,5.545 -1.707,0.427 -3.193,-0.004 -4.471,-1.265 -0.028,-0.037 -0.057,-0.077 -0.097,-0.105 -0.028,-0.026 -0.253,-0.285 -0.679,-0.768 m 8.946,-13.688 c 0.082,0.266 0.167,0.529 0.234,0.797 0.151,0.568 0.282,1.145 0.385,1.732 0.02,0.124 0.036,0.256 0.066,0.39 m -9.63,10.769 c -0.067,0.088 -0.124,0.182 -0.189,0.266 -0.078,0.114 -0.163,0.229 -0.258,0.34 -0.066,0.087 -0.142,0.182 -0.218,0.266 -0.485,0.561 -1.044,1.023 -1.688,1.41 -0.702,0.32 -1.449,0.357 -2.245,0.11 -2.094,-0.903 -3.513,-2.422 -4.238,-4.562 -0.237,-0.703 -0.436,-1.421 -0.595,-2.152 m 11.041,-3.01 c 0.045,1.962 -0.155,3.647 -0.585,5.071 -0.238,0.746 -0.542,1.428 -0.895,2.033 -0.046,0.076 -0.086,0.148 -0.131,0.227 m -9.431,-4.323 0,0 c -0.19,0.103 -0.389,0.197 -0.599,0.274 -0.766,0.273 -1.534,0.32 -2.302,0.158 -0.406,-0.078 -0.814,-0.212 -1.231,-0.4 -1.751,-1.156 -2.941,-3.207 -3.582,-6.144 m 9.636,-0.3 c 0.019,0.199 0.037,0.388 0.046,0.587 0.059,0.702 0.057,1.395 0.008,2.076 -0.068,0.843 -0.287,1.64 -0.676,2.367 -0.322,0.595 -0.759,1.06 -1.3,1.382 m -7.714,-6.111 -10.764,-0.015 c 0.259,-1.679 0.554,-2.994 0.877,-3.932 2.977,-7.49 7.975,-12.287 15.009,-14.374 5.013,-1.08 9.571,-0.828 13.681,0.761 3.362,1.32 6.05,3.229 8.075,5.741 0.027,0.039 0.065,0.076 0.095,0.115 l 0.312,0.397 c 0.008,0.021 0.027,0.039 0.037,0.059 1.901,2.561 2.675,5.367 2.311,8.417 -0.125,0.559 -0.323,1.032 -0.61,1.41 -0.218,0.292 -0.492,0.521 -0.823,0.7 -0.398,0.216 -0.872,0.339 -1.422,0.387"
         id="path709" />
      <path
         inkscape:connector-curvature="0"
         style="fill:#5a6074"
         d="m 636.927,297.135 1.148,8.109 c 3.762,0.715 7.728,0.849 11.9,0.402 3.665,-0.368 7.415,-0.545 11.241,-0.514 20.431,-1.397 43.32,-6.145 68.664,-14.24 l -2.438,-8.995 -90.515,15.238 z"
         id="path711" />
      <path
         inkscape:connector-curvature="0"
         style="fill:none;stroke:#737a91;stroke-width:1.51119995;stroke-linecap:round;stroke-linejoin:round;stroke-miterlimit:10"
         d="m 636.927,297.135 90.517,-15.237 2.438,8.995 c -25.344,8.095 -48.233,12.843 -68.664,14.24 -3.826,-0.031 -7.576,0.146 -11.241,0.514 -4.173,0.447 -8.139,0.313 -11.9,-0.402 l -1.15,-8.11 z"
         id="path713" />
      <path
         inkscape:connector-curvature="0"
         style="fill:#9fc94c"
         d="m 713.567,291.543 c -0.827,-0.407 -1.945,-1.064 -3.341,-1.965 -1.403,-0.891 -3.289,-1.938 -5.654,-3.133 -2.375,-1.201 -5.932,-1.84 -10.684,-1.907 0.43,-1.555 1.114,-2.773 2.047,-3.666 -3.099,0.074 -6.056,0.984 -8.862,2.721 -0.311,-0.7 -0.333,-1.667 -0.085,-2.917 -2.976,0.816 -5.351,2.846 -7.117,6.071 -4.335,-0.994 -8.847,-0.61 -13.532,1.146 1.553,0.479 2.975,1.172 4.271,2.095 -6.639,2.105 -11.417,5.617 -14.322,10.545 -1.217,2.457 -3.298,4.416 -6.253,5.874 0.842,0.683 2.007,1.083 3.482,1.208 -3.09,5.724 -5.757,9.066 -7.992,10.03 0.984,0.856 2.573,1.028 4.77,0.507 -0.193,0.536 -0.398,1.065 -0.63,1.601 -0.168,0.369 -0.339,0.737 -0.528,1.102 -0.063,0.119 -0.119,0.228 -0.184,0.334 -0.147,0.279 -0.305,0.56 -0.474,0.832 -0.102,0.165 -0.205,0.33 -0.317,0.495 -0.655,1.029 -1.412,2.032 -2.263,3.003 -0.625,0.689 -1.288,1.376 -2.015,2.045 1.646,0.708 3.487,0.88 5.53,0.522 -0.297,0.798 -0.198,2.249 0.317,4.35 0.513,2.104 1.693,4.124 3.558,6.048 l 1.126,-2.861 c 3.482,5.91 8.957,10.095 16.422,12.557 l 0.241,-2.669 c 3.375,2.92 9.314,4.506 17.82,4.749 0.021,-0.742 0.18,-1.553 0.46,-2.433 3.588,1.783 7.4,2.563 11.431,2.338 0.191,-0.007 0.381,-0.016 0.571,-0.024 0.189,-0.019 0.378,-0.035 0.568,-0.052 0.43,-0.063 0.857,-0.139 1.282,-0.222 0.333,-0.072 0.663,-0.155 0.998,-0.261 0.31,-0.136 0.631,-0.266 0.951,-0.395 2.542,-1.117 4.812,-2.982 6.817,-5.591 l 0.663,1.543 c 3.314,-1.998 5.96,-4.75 7.941,-8.261 l 0.946,1.607 c 0.984,-1.232 1.961,-2.681 2.938,-4.338 0.74,-1.278 1.34,-2.597 1.788,-3.962 0.727,-2.247 1.064,-4.61 1.008,-7.085 -0.005,-0.23 -0.033,-0.562 -0.078,-0.995 l 1.64,1.363 c 0.96,-4.069 0.934,-7.717 -0.079,-10.954 1.28,-0.497 2.33,-1.42 3.134,-2.779 -2.153,-0.351 -4.029,-1.285 -5.621,-2.812 -1.004,-0.958 -1.95,-1.976 -2.848,-3.043 1.318,-0.38 2.139,-0.913 2.472,-1.623 -1.378,-0.415 -4.248,-2.916 -8.598,-7.502 1.114,-0.494 1.81,-1.07 2.094,-1.731 -1.186,-0.021 -2.293,-0.181 -3.315,-0.491 -0.837,-0.266 -1.673,-0.605 -2.494,-1.014"
         id="path715" />
      <path
         inkscape:connector-curvature="0"
         style="fill:none;stroke:#255f27;stroke-width:1.50969994;stroke-linecap:square;stroke-miterlimit:10"
         d="m 710.227,289.578 c -1.403,-0.891 -3.289,-1.938 -5.654,-3.133 -2.375,-1.201 -5.931,-1.84 -10.684,-1.907 0.43,-1.555 1.114,-2.773 2.047,-3.666 -3.099,0.074 -6.056,0.984 -8.862,2.721 -0.311,-0.7 -0.333,-1.667 -0.085,-2.917 -2.976,0.816 -5.351,2.846 -7.117,6.071 -4.335,-0.994 -8.846,-0.61 -13.533,1.146 1.554,0.479 2.977,1.172 4.271,2.095 -6.639,2.105 -11.418,5.617 -14.324,10.545 -1.214,2.457 -3.296,4.416 -6.251,5.874 0.842,0.683 2.007,1.083 3.482,1.208 -3.09,5.724 -5.757,9.066 -7.992,10.03 0.984,0.856 2.573,1.028 4.771,0.506 -0.194,0.537 -0.399,1.065 -0.632,1.602 -0.169,0.369 -0.339,0.737 -0.527,1.102 -0.062,0.119 -0.119,0.228 -0.184,0.334 -0.148,0.279 -0.305,0.56 -0.474,0.832 -0.102,0.165 -0.204,0.33 -0.317,0.495 -0.655,1.029 -1.412,2.032 -2.263,3.003 -0.625,0.689 -1.288,1.376 -2.015,2.045 1.646,0.708 3.487,0.88 5.53,0.522 -0.297,0.798 -0.198,2.249 0.317,4.35 0.513,2.104 1.692,4.124 3.558,6.048 l 1.126,-2.861 c 3.482,5.91 8.957,10.095 16.423,12.557 l 0.24,-2.669 c 3.375,2.919 9.315,4.506 17.82,4.749 0.021,-0.742 0.18,-1.553 0.46,-2.433 3.588,1.783 7.398,2.563 11.431,2.338 0.191,-0.007 0.381,-0.016 0.571,-0.024 0.189,-0.019 0.378,-0.035 0.568,-0.052 0.43,-0.065 0.857,-0.139 1.284,-0.222 0.329,-0.072 0.661,-0.155 0.996,-0.261 0.31,-0.136 0.631,-0.266 0.951,-0.395 2.543,-1.117 4.814,-2.982 6.817,-5.591 l 0.664,1.543 c 3.313,-1.998 5.959,-4.75 7.942,-8.261 l 0.944,1.607 c 0.984,-1.232 1.96,-2.681 2.938,-4.338 0.74,-1.278 1.341,-2.597 1.788,-3.962 0.726,-2.247 1.064,-4.61 1.008,-7.085 -0.006,-0.23 -0.033,-0.562 -0.078,-0.995 l 1.64,1.363 c 0.96,-4.069 0.934,-7.717 -0.079,-10.954 1.28,-0.497 2.33,-1.42 3.134,-2.779 -2.152,-0.351 -4.027,-1.285 -5.621,-2.812 -1.004,-0.958 -1.95,-1.976 -2.848,-3.043 1.319,-0.381 2.138,-0.913 2.472,-1.623 -1.378,-0.415 -4.248,-2.916 -8.598,-7.502 1.114,-0.494 1.81,-1.07 2.094,-1.731 -1.185,-0.021 -2.293,-0.181 -3.315,-0.491 -0.838,-0.269 -1.674,-0.607 -2.493,-1.016 -0.828,-0.405 -1.945,-1.062 -3.341,-1.963 z"
         id="path717" />
      <path
         inkscape:connector-curvature="0"
         style="fill:#1f1a1a"
         d="m 718.338,319.438 c 1.772,-1.079 3.46,-2.385 5.069,-3.911 -14.694,9.646 -30.704,13.294 -48.036,10.937 1.998,0.635 4.238,1.065 6.721,1.294 13.343,1.053 25.427,-1.721 36.246,-8.32"
         id="path719" />
      <path
         inkscape:connector-curvature="0"
         style="fill:none;stroke:#1f1a1a;stroke-width:0.0073;stroke-linecap:round;stroke-linejoin:round;stroke-miterlimit:10"
         d="m 723.407,315.526 c -14.694,9.646 -30.704,13.294 -48.036,10.937 1.998,0.635 4.237,1.065 6.721,1.294 13.343,1.054 25.427,-1.72 36.246,-8.32 1.772,-1.078 3.46,-2.384 5.069,-3.911 z"
         id="path721" />
      <path
         inkscape:connector-curvature="0"
         style="fill:#ffffff"
         d="m 710.053,294.603 c -2.437,0.02 -4.494,0.957 -6.161,2.819 -1.668,1.853 -2.457,4.083 -2.364,6.687 0.093,2.607 1.022,4.83 2.811,6.653 1.807,1.833 3.923,2.739 6.36,2.719 2.427,-0.03 4.472,-0.976 6.127,-2.844 1.67,-1.851 2.456,-4.089 2.365,-6.697 -0.093,-2.606 -1.023,-4.818 -2.807,-6.636 -1.789,-1.834 -3.905,-2.74 -6.331,-2.701"
         id="path723" />
      <path
         inkscape:connector-curvature="0"
         style="fill:#ffffff"
         d="m 679.817,302.095 c -1.8,1.877 -2.669,4.131 -2.623,6.747 0.052,2.604 1.028,4.808 2.917,6.624 1.9,1.812 4.157,2.69 6.771,2.637 2.596,-0.052 4.799,-1.038 6.602,-2.933 1.816,-1.893 2.696,-4.141 2.643,-6.744 -0.057,-2.615 -1.032,-4.828 -2.94,-6.631 -1.889,-1.812 -4.135,-2.683 -6.726,-2.615 -2.614,0.056 -4.827,1.034 -6.644,2.915"
         id="path725" />
      <path
         inkscape:connector-curvature="0"
         style="fill:#1f1a1a"
         d="m 718.155,303.772 c -0.116,-1.099 -0.529,-2.018 -1.244,-2.766 -0.724,-0.745 -1.524,-1.089 -2.412,-1.037 -0.896,0.051 -1.615,0.484 -2.164,1.299 -0.55,0.82 -0.757,1.775 -0.636,2.873 0.122,1.099 0.537,2.015 1.253,2.764 0.723,0.745 1.522,1.088 2.412,1.038 0.891,-0.052 1.606,-0.482 2.155,-1.295 0.55,-0.816 0.758,-1.773 0.636,-2.876"
         id="path727" />
      <path
         inkscape:connector-curvature="0"
         style="fill:#1f1a1a"
         d="m 695.456,308.912 c -0.07,-1.216 -0.49,-2.242 -1.266,-3.093 -0.784,-0.853 -1.679,-1.26 -2.696,-1.239 -1.024,0.019 -1.87,0.467 -2.543,1.34 -0.673,0.885 -0.96,1.926 -0.887,3.14 0.079,1.213 0.504,2.24 1.28,3.09 0.781,0.853 1.677,1.26 2.695,1.243 1.019,-0.022 1.858,-0.468 2.53,-1.342 0.674,-0.874 0.967,-1.918 0.887,-3.139"
         id="path729" />
      <path
         inkscape:connector-curvature="0"
         style="fill:#c16513"
         d="m 698.006,296.106 c -0.034,0.016 -0.069,0.041 -0.112,0.058 -0.18,0.075 -0.305,0.117 -0.378,0.133 -0.048,0.008 -0.104,0.019 -0.15,0.028 -0.143,0.008 -0.27,-0.015 -0.384,-0.06 -0.168,-0.063 -0.335,-0.126 -0.49,-0.185 -5.01,-1.844 -8.42,-2.972 -10.234,-3.358 -1.907,-0.419 -3.158,-0.279 -3.763,0.422 -0.616,0.688 -0.742,1.432 -0.379,2.254 -1.446,0.32 -2.541,0.582 -3.27,0.79 -0.975,0.277 -1.887,0.578 -2.74,0.888 -3.169,1.152 -5.603,2.539 -7.298,4.155 -2.491,2.366 -3.735,3.927 -3.731,4.685 -0.021,0.744 1.054,0.882 3.212,0.405 -1.577,1.884 -2.741,4.013 -3.489,6.397 -0.362,1.156 -0.451,2.021 -0.295,2.595 0.034,0.071 0.067,0.141 0.101,0.222 0.019,0.043 0.035,0.078 0.062,0.11 0.041,0.059 0.086,0.098 0.141,0.137 0.146,0.095 0.301,0.161 0.465,0.217 0.271,0.053 0.546,0.076 0.824,0.08 0.225,0.023 0.447,0.028 0.679,0.03 3.688,-0.061 7.197,-0.799 10.538,-2.217 0.212,-0.088 0.595,-0.25 1.146,-0.483 -0.048,-0.643 -0.083,-1.117 -0.112,-1.411 -0.062,-0.716 -0.065,-1.436 -0.004,-2.151 0.03,-0.342 0.071,-0.676 0.131,-1.015 0.112,-0.657 0.269,-1.291 0.482,-1.919 0.215,-0.628 0.478,-1.208 0.805,-1.751 0.243,-0.423 0.515,-0.813 0.8,-1.176 0.472,-0.59 1.034,-1.064 1.687,-1.414 0.636,-0.344 1.325,-0.562 2.066,-0.641 0.681,-0.064 1.376,-0.055 2.092,0.028 0.734,0.059 1.463,0.158 2.193,0.306 0.429,0.078 0.854,0.188 1.273,0.318 0.664,0.208 1.331,0.425 1.992,0.663 0.593,0.221 1.183,0.445 1.777,0.684 0.32,0.12 0.654,0.248 0.985,0.366 0.559,0.207 1.121,0.387 1.688,0.526 0.663,0.15 1.335,0.202 2.013,0.169 0.54,-0.039 1.075,-0.105 1.604,-0.207 0.037,-0.017 0.072,-0.024 0.109,-0.032 0.046,-0.008 0.082,-0.016 0.13,-0.024 0.466,-0.12 0.88,-0.276 1.241,-0.481 0.577,-0.304 1.11,-0.675 1.59,-1.125 0.497,-0.47 0.983,-0.93 1.47,-1.392 0.433,-0.439 0.879,-0.872 1.34,-1.317 0.486,-0.467 1,-0.894 1.544,-1.299 0.412,-0.308 0.848,-0.597 1.287,-0.853 0.451,-0.292 0.933,-0.548 1.428,-0.768 0.435,-0.181 0.873,-0.354 1.332,-0.509 0.338,-0.093 0.69,-0.162 1.05,-0.183 0.198,-0.021 0.389,-0.031 0.594,-0.02 0.52,0.004 1.028,0.107 1.52,0.301 1.01,0.449 1.839,1.104 2.479,1.981 0.866,1.186 1.438,2.208 1.714,3.087 0.278,0.881 0.415,1.537 0.415,1.98 -0.004,0.431 -0.021,0.779 -0.058,1.04 l 3.059,0.308 c 0.855,0.006 1.925,-0.085 3.194,-0.272 0.721,-0.151 1.446,-0.369 2.168,-0.672 0.706,-0.271 1.017,-0.755 0.939,-1.461 -0.055,-0.758 -0.521,-1.733 -1.403,-2.918 -1.317,-1.772 -2.598,-3.226 -3.861,-4.336 0.359,0.02 0.752,-0.125 1.187,-0.421 0.686,-0.479 0.82,-1.034 0.401,-1.654 -0.489,-0.587 -1.087,-1.089 -1.772,-1.501 -0.208,-0.125 -0.402,-0.239 -0.609,-0.356 -3.104,-1.741 -6.655,-2.551 -10.657,-2.428 -0.049,-0.002 -0.096,-0.002 -0.145,-0.002 -0.22,-0.544 -0.57,-1.062 -1.042,-1.555 -0.521,-0.562 -1.241,-0.548 -2.151,0.051 -2.328,1.577 -4.547,3.229 -6.644,4.951 -0.953,0.779 -1.878,1.576 -2.786,2.386 -0.109,0.088 -0.204,0.185 -0.303,0.27 -0.04,0.038 -0.084,0.074 -0.124,0.11 -0.199,0.181 -0.381,0.333 -0.563,0.436 l 0,0 z"
         id="path731" />
      <path
         inkscape:connector-curvature="0"
         style="fill:#b0b6d5"
         d="m 679.274,405.957 c 0.384,-4.289 -1.214,-6.358 -4.804,-6.198 l -20.174,-0.024 c -2.889,-0.126 -4.698,0.952 -5.421,3.251 -0.162,0.598 -0.295,1.308 -0.4,2.141 -0.086,0.445 -0.164,1.277 -0.23,2.521 -0.184,3.967 -0.541,7.669 -1.072,11.116 -0.396,4.28 1.214,6.337 4.822,6.18 l 20.173,0.024 c 3.561,0.184 5.543,-1.876 5.938,-6.169 l 1.168,-12.842 z m -5.226,-1.561 c 0.484,0.144 0.67,0.657 0.586,1.555 l -1.169,12.842 c -0.078,0.881 -0.374,1.401 -0.874,1.554 l -20.174,-0.023 c -0.492,-0.145 -0.699,-0.656 -0.621,-1.556 l 1.186,-12.841 c 0.088,-0.908 0.393,-1.428 0.911,-1.55 l 20.155,0.019 z"
         id="path733" />
      <path
         inkscape:connector-curvature="0"
         style="fill:none;stroke:#737a91;stroke-width:1.51559997;stroke-linecap:round;stroke-linejoin:round;stroke-miterlimit:10"
         d="m 674.048,404.396 -20.155,-0.02 c -0.519,0.122 -0.823,0.642 -0.911,1.55 l -1.186,12.841 c -0.078,0.899 0.129,1.411 0.621,1.556 l 20.174,0.023 c 0.5,-0.152 0.796,-0.673 0.874,-1.554 l 1.169,-12.842 c 0.084,-0.896 -0.102,-1.41 -0.586,-1.554 z m 5.226,1.561 -1.169,12.841 c -0.395,4.293 -2.377,6.353 -5.938,6.169 l -20.173,-0.024 c -3.608,0.157 -5.218,-1.899 -4.822,-6.18 0.531,-3.447 0.889,-7.149 1.072,-11.116 0.066,-1.243 0.145,-2.075 0.23,-2.522 0.105,-0.831 0.238,-1.541 0.4,-2.139 0.721,-2.299 2.532,-3.377 5.421,-3.251 l 20.174,0.024 c 3.592,-0.158 5.189,1.909 4.805,6.198 z"
         id="path735" />
      <rect
         x="659.36102"
         y="393.75101"
         transform="matrix(-0.0012,1,-1,-0.0012,1066.0609,-262.4211)"
         style="fill:#c6cee3"
         width="9.434"
         height="14.814"
         id="rect737" />
      <rect
         x="656.672"
         y="396.44101"
         style="fill:none;stroke:#737a91;stroke-width:1.51559997;stroke-linecap:round;stroke-linejoin:round;stroke-miterlimit:10"
         width="14.814"
         height="9.4300003"
         id="rect739" />
      <path
         inkscape:connector-curvature="0"
         style="fill:#b0b6d5"
         d="m 736.554,380.057 c -0.746,-0.655 -1.66,-0.978 -2.729,-0.979 l -2.823,-0.031 c -2.063,0.156 -4.233,0.26 -6.515,0.287 -1.165,0.016 -2.35,0.025 -3.562,0.023 -8.079,-0.15 -13.435,-0.271 -16.062,-0.341 l -23.431,-0.282 c -5.038,-0.108 -10.711,-0.049 -17.029,0.172 -1.439,0.047 -2.907,0.11 -4.413,0.174 -1.932,0.043 -3.703,0.041 -5.321,-0.006 l -2.635,-0.078 -0.379,-0.013 c -1.061,0 -1.979,0.323 -2.748,0.976 -0.521,0.463 -0.853,1 -1.015,1.598 -0.065,0.256 -0.104,0.729 -0.106,1.439 l -10e-4,1.715 c -10e-4,1.071 0.367,1.98 1.114,2.729 0.767,0.76 1.854,1.176 3.258,1.254 h 0.009 c 3.079,0.184 6.155,0.254 9.252,0.201 1.394,-0.029 3.866,-0.121 7.427,-0.295 4.727,-0.081 9.404,-0.076 14.036,0.016 l 19.103,0.022 c 2.898,0.163 5.799,0.155 8.694,-0.039 2.784,-0.025 5.568,-0.079 8.353,-0.143 2.853,-0.073 5.703,-0.051 8.554,0.058 1.137,0.029 2.272,0.059 3.408,0.088 0.219,0 0.444,0 0.663,0.01 0.569,0.02 1.213,0.041 1.933,0.059 h 0.048 l 0.179,0.001 c 1.071,10e-4 1.979,-0.376 2.729,-1.132 0.758,-0.748 1.139,-1.656 1.141,-2.727 l 0.003,-2.34 c -10e-4,-0.938 -0.38,-1.744 -1.135,-2.416"
         id="path741" />
      <path
         inkscape:connector-curvature="0"
         style="fill:#c6cee3"
         d="m 731.655,388.61 c -0.217,-0.01 -0.444,-0.01 -0.661,-0.01 -1.138,-0.029 -2.274,-0.059 -3.41,-0.088 -2.851,-0.108 -5.702,-0.131 -8.554,-0.059 -2.784,0.064 -5.568,0.118 -8.353,0.144 -2.897,0.194 -5.796,0.202 -8.693,0.039 l -19.104,-0.022 c -4.632,-0.092 -9.311,-0.097 -14.036,-0.016 -3.561,0.174 -6.033,0.266 -7.427,0.295 -3.097,0.054 -6.175,-0.018 -9.253,-0.201 0.104,0.965 0.188,2.056 0.244,3.258 l 0.053,3.686 c 0,0.125 0,0.254 -0.01,0.389 -0.041,1.705 -0.062,3.334 -0.055,4.877 l 0.218,9.51 c 0.057,0.785 0.112,1.541 0.178,2.262 l 0.072,1.572 c 0.159,2.623 0.325,5.088 0.505,7.371 0.035,0.443 0.074,0.879 0.111,1.305 0.085,1.111 0.159,2.246 0.223,3.41 0.027,0.502 0.038,1.014 0.037,1.535 l -10e-4,0.361 c -0.02,1.002 -0.067,1.996 -0.155,2.989 -0.028,0.297 -0.046,0.579 -0.076,0.854 v 0.056 c -0.105,0.843 -0.2,1.698 -0.285,2.538 -0.126,1.071 -0.212,2.141 -0.241,3.221 -0.013,0.132 -0.013,0.265 -0.014,0.398 -0.008,0.236 0,0.474 0.021,0.708 0.009,0.258 0.036,0.513 0.075,0.771 0.196,1.172 0.489,2.337 0.866,3.485 0.179,0.579 0.387,1.165 0.644,1.741 0.148,0.354 0.517,1.869 1.112,4.55 0.245,0.861 0.31,1.656 0.196,2.386 -0.115,0.713 -0.398,1.354 -0.865,1.932 -0.266,0.342 -0.475,0.767 -0.627,1.268 -0.275,0.901 -0.38,2.074 -0.307,3.523 0.027,0.598 0.085,1.25 0.168,1.951 l 1.06,18.66 -0.004,2.699 c 0.228,0.028 0.454,0.064 0.673,0.113 0.682,0.171 1.363,0.353 2.035,0.551 0.709,0.031 1.411,0.05 2.122,0.079 0.596,0.067 1.204,0.105 1.8,0.116 0.057,10e-4 0.111,10e-4 0.171,0.011 0.66,0.008 1.326,0.008 1.997,0.002 0.606,-0.011 1.214,-0.027 1.819,-0.056 0.663,-0.027 1.315,-0.045 1.96,-0.057 0.615,-0.007 1.23,0.002 1.838,0.032 0.596,0.028 1.185,0.049 1.762,0.05 0.692,-0.01 1.382,-0.026 2.094,-0.064 0.443,-0.026 0.89,-0.046 1.336,-0.075 1.503,-0.102 2.735,-0.289 3.693,-0.553 1.572,-0.445 3.542,-0.119 5.907,0.982 0.503,0.236 1.034,0.502 1.57,0.808 3.059,1.725 6.118,1.917 9.169,0.586 0.247,-0.104 0.504,-0.207 0.759,-0.293 2.929,-0.868 5.864,-1.64 8.83,-2.309 0.122,-0.037 0.235,-0.076 0.358,-0.115 0.35,-0.112 0.713,-0.206 1.062,-0.273 0.719,-0.141 1.439,-0.187 2.158,-0.139 0.218,0.02 0.445,0.057 0.662,0.115 0.72,0.141 1.432,0.38 2.141,0.69 0.447,0.145 0.898,0.24 1.363,0.307 1.959,0.363 3.021,0.554 3.183,0.582 1.286,0.189 2.31,0.286 3.058,0.287 1.241,0.001 2.529,-0.055 3.846,-0.154 0.805,-0.066 2.17,-0.197 4.074,-0.417 l 3.182,-0.099 0.002,-2.425 c -0.008,-0.305 -0.008,-0.605 -0.008,-0.897 0.047,-7.844 0.379,-15.798 0.992,-23.866 0.439,-4.266 0.681,-7.491 0.73,-9.689 0.021,-0.975 0.004,-1.751 -0.053,-2.319 -0.096,-0.974 -0.15,-1.792 -0.178,-2.444 -0.027,-0.576 -0.019,-1.023 0.012,-1.344 0.057,-0.512 0.199,-1.081 0.419,-1.706 0.073,-0.206 0.16,-0.429 0.247,-0.645 1.032,-2.185 1.632,-3.853 1.794,-4.997 0.057,-0.436 0.057,-0.797 -0.008,-1.08 -0.272,-1.07 -0.642,-1.924 -1.095,-2.541 -0.399,-0.52 -0.605,-1.715 -0.632,-3.588 -0.008,-0.409 0.002,-0.834 0.01,-1.3 l 0.079,-2.292 v -0.075 c -0.008,-9.556 0.336,-18.96 1.018,-28.222 0.097,-1.324 0.201,-2.85 0.328,-4.564 -0.722,-0.02 -1.365,-0.041 -1.934,-0.059 v -0.002 z"
         id="path743" />
      <polygon
         style="fill:#b0b6d5"
         points="651.818,378.982 651.656,378.982 652.035,378.995 "
         id="polygon745" />
      <path
         inkscape:connector-curvature="0"
         style="fill:#c6cee3"
         d="m 652.409,391.95 c -0.056,-1.202 -0.14,-2.293 -0.244,-3.258 h -0.008 c 0.103,1.053 0.187,2.094 0.242,3.125 0,0.039 0,0.084 0.01,0.133"
         id="path747" />
      <path
         inkscape:connector-curvature="0"
         style="fill:#b0b6d5"
         d="m 684.515,483.09 c -2.364,-1.102 -4.334,-1.428 -5.906,-0.982 -0.957,0.264 -2.19,0.451 -3.694,0.553 -0.445,0.029 -0.892,0.047 -1.335,0.076 -0.712,0.037 -1.403,0.054 -2.094,0.063 -0.578,-0.001 -1.166,-0.021 -1.762,-0.051 -0.607,-0.029 -1.223,-0.038 -1.839,-0.031 -0.644,0.012 -1.296,0.029 -1.959,0.057 -0.605,0.028 -1.213,0.045 -1.82,0.056 -0.67,0.006 -1.334,0.006 -1.997,-0.002 -0.059,-0.01 -0.112,-0.01 -0.171,-0.011 -0.595,-0.011 -1.204,-0.049 -1.799,-0.116 -0.711,-0.029 -1.413,-0.049 -2.12,-0.078 -0.37,0.009 -0.73,0.029 -1.091,0.037 -0.539,0.027 -1.079,0.046 -1.621,0.074 -0.141,0.01 -0.291,0.01 -0.443,0.019 -0.162,0.009 -0.323,0.009 -0.482,0.008 -1.526,0.748 -2.296,1.968 -2.298,3.673 l -0.003,2.935 c -10e-4,1.072 0.329,1.981 1.001,2.731 0.689,0.758 1.524,1.137 2.481,1.138 l 74.098,0.083 c 0.978,10e-4 1.794,-0.376 2.467,-1.132 0.682,-0.748 1.024,-1.656 1.024,-2.727 l 0.004,-2.938 c 0.002,-1.069 -0.339,-1.99 -1.021,-2.749 -0.615,-0.681 -1.344,-1.052 -2.203,-1.109 l -3.183,0.099 c -1.905,0.22 -3.27,0.351 -4.074,0.417 -1.315,0.1 -2.604,0.155 -3.846,0.154 -0.746,-10e-4 -1.772,-0.098 -3.058,-0.287 -0.162,-0.028 -1.223,-0.219 -3.183,-0.582 -0.465,-0.066 -0.916,-0.162 -1.362,-0.307 -0.71,-0.311 -1.421,-0.55 -2.142,-0.69 -0.217,-0.058 -0.445,-0.096 -0.661,-0.115 -0.72,-0.049 -1.438,-0.002 -2.159,0.139 -0.351,0.067 -0.711,0.161 -1.062,0.273 -0.122,0.039 -0.236,0.078 -0.359,0.115 -2.965,0.669 -5.901,1.44 -8.831,2.309 -0.254,0.086 -0.51,0.189 -0.757,0.293 -3.051,1.332 -6.108,1.14 -9.169,-0.586 -0.535,-0.306 -1.067,-0.573 -1.571,-0.809"
         id="path749" />
      <path
         inkscape:connector-curvature="0"
         style="fill:none;stroke:#737a91;stroke-width:1.51559997;stroke-linecap:round;stroke-linejoin:round;stroke-miterlimit:10"
         d="m 652.166,388.692 h -0.009 c -1.403,-0.08 -2.491,-0.494 -3.258,-1.254 -0.747,-0.748 -1.115,-1.657 -1.114,-2.729 l 10e-4,-1.715 c 0.002,-0.711 0.041,-1.184 0.106,-1.439 0.162,-0.598 0.493,-1.135 1.015,-1.598 0.77,-0.652 1.688,-0.976 2.748,-0.976 l 0.379,0.012 2.633,0.081 c 1.62,0.045 3.392,0.047 5.323,0.004 1.506,-0.063 2.974,-0.127 4.413,-0.174 6.317,-0.223 11.991,-0.28 17.029,-0.171 l 23.431,0.281 c 2.627,0.069 7.982,0.19 16.062,0.341 1.213,0.002 2.397,-0.006 3.562,-0.023 2.281,-0.027 4.451,-0.131 6.515,-0.287 l 2.823,0.031 c 1.068,0.002 1.982,0.324 2.729,0.979 0.755,0.672 1.135,1.479 1.134,2.415 l -0.003,2.34 c -0.002,1.07 -0.383,1.979 -1.141,2.727 -0.75,0.756 -1.658,1.133 -2.729,1.134 l -0.179,-10e-4 h -0.048 m 0,-0.001 c -0.72,-0.018 -1.363,-0.039 -1.933,-0.059 -0.219,-0.01 -0.444,-0.01 -0.663,-0.01 -1.136,-0.029 -2.272,-0.059 -3.408,-0.088 -2.851,-0.108 -5.701,-0.131 -8.554,-0.058 -2.784,0.063 -5.568,0.117 -8.353,0.143 -2.896,0.194 -5.796,0.202 -8.694,0.038 l -19.103,-0.021 c -4.632,-0.092 -9.31,-0.097 -14.036,-0.016 -3.561,0.174 -6.033,0.266 -7.427,0.295 -3.099,0.054 -6.175,-0.018 -9.252,-0.201 m 77.766,93.974 0.002,-2.425 c -0.008,-0.305 -0.008,-0.605 -0.008,-0.9 0.047,-7.84 0.377,-15.795 0.992,-23.865 0.44,-4.264 0.681,-7.49 0.73,-9.688 0.02,-0.975 0.002,-1.751 -0.052,-2.319 -0.097,-0.974 -0.151,-1.792 -0.179,-2.444 -0.026,-0.576 -0.019,-1.023 0.012,-1.344 0.057,-0.512 0.199,-1.081 0.419,-1.706 0.072,-0.206 0.158,-0.429 0.247,-0.645 1.032,-2.185 1.632,-3.853 1.794,-4.997 0.057,-0.436 0.058,-0.797 -0.008,-1.08 -0.274,-1.07 -0.643,-1.924 -1.095,-2.541 -0.399,-0.52 -0.605,-1.715 -0.632,-3.588 -0.008,-0.409 0.002,-0.834 0.01,-1.3 l 0.079,-2.292 v -0.075 c -0.008,-9.556 0.335,-18.96 1.018,-28.222 0.098,-1.324 0.201,-2.85 0.327,-4.566 m -81.769,-9.687 2.717,-0.015 m -2.369,9.725 c 0.104,0.965 0.188,2.056 0.243,3.258 l 0.053,3.686 c 0,0.125 0,0.254 -0.01,0.389 -0.041,1.705 -0.062,3.334 -0.054,4.877 l 0.216,9.51 c 0.059,0.785 0.114,1.541 0.179,2.262 l 0.073,1.572 c 0.159,2.623 0.325,5.088 0.504,7.371 0.035,0.443 0.076,0.879 0.111,1.305 0.085,1.111 0.159,2.246 0.223,3.41 0.027,0.502 0.038,1.014 0.038,1.535 l -10e-4,0.361 c -0.021,1.002 -0.068,1.996 -0.154,2.989 -0.03,0.297 -0.047,0.579 -0.078,0.854 v 0.056 c -0.105,0.843 -0.2,1.698 -0.285,2.538 -0.126,1.071 -0.212,2.141 -0.241,3.221 -0.012,0.132 -0.012,0.265 -0.013,0.398 -0.009,0.236 0.004,0.474 0.021,0.708 0.009,0.258 0.036,0.513 0.075,0.771 0.196,1.172 0.489,2.337 0.866,3.485 0.179,0.579 0.388,1.165 0.644,1.741 0.148,0.354 0.517,1.869 1.111,4.55 0.246,0.858 0.312,1.656 0.196,2.386 -0.114,0.713 -0.399,1.354 -0.864,1.93 -0.266,0.344 -0.473,0.769 -0.626,1.27 -0.276,0.901 -0.382,2.074 -0.307,3.523 0.027,0.598 0.084,1.25 0.168,1.951 l 1.059,18.66 -0.004,2.699 m 74.622,0.708 -3.184,0.099 c -1.903,0.22 -3.267,0.351 -4.072,0.417 -1.315,0.1 -2.604,0.155 -3.845,0.154 -0.748,-0.001 -1.772,-0.098 -3.059,-0.287 -0.162,-0.028 -1.223,-0.219 -3.183,-0.582 -0.465,-0.066 -0.918,-0.162 -1.363,-0.307 -0.711,-0.311 -1.42,-0.55 -2.141,-0.69 -0.218,-0.058 -0.444,-0.096 -0.662,-0.115 -0.719,-0.048 -1.439,-0.002 -2.158,0.139 -0.351,0.067 -0.711,0.161 -1.062,0.273 -0.123,0.039 -0.238,0.076 -0.359,0.115 -2.966,0.669 -5.903,1.44 -8.83,2.308 -0.256,0.087 -0.512,0.19 -0.759,0.294 -3.051,1.331 -6.11,1.14 -9.169,-0.586 -0.536,-0.306 -1.067,-0.571 -1.571,-0.808 -2.364,-1.102 -4.334,-1.428 -5.906,-0.982 -0.958,0.264 -2.19,0.451 -3.693,0.553 -0.446,0.029 -0.893,0.047 -1.336,0.076 -0.712,0.037 -1.403,0.054 -2.095,0.063 -0.578,-0.001 -1.165,-0.021 -1.761,-0.05 -0.607,-0.03 -1.223,-0.039 -1.838,-0.032 -0.645,0.012 -1.298,0.029 -1.96,0.057 -0.607,0.028 -1.213,0.045 -1.819,0.056 -0.671,0.006 -1.335,0.006 -1.997,-0.002 -0.059,-0.01 -0.114,-0.01 -0.172,-0.011 -0.597,-0.011 -1.203,-0.049 -1.799,-0.116 -0.709,-0.029 -1.409,-0.049 -2.12,-0.078 -0.37,0.009 -0.73,0.029 -1.09,0.037 -0.54,0.027 -1.081,0.046 -1.622,0.074 -0.141,0.01 -0.291,0.01 -0.443,0.019 -0.16,0.008 -0.324,0.008 -0.483,0.007 -1.527,0.749 -2.295,1.969 -2.297,3.674 l -0.003,2.935 c -0.001,1.072 0.329,1.981 1.001,2.731 0.689,0.758 1.523,1.137 2.481,1.138 l 74.099,0.083 c 0.977,10e-4 1.793,-0.376 2.465,-1.132 0.683,-0.748 1.025,-1.656 1.025,-2.727 l 0.004,-2.937 c 0.002,-1.07 -0.338,-1.991 -1.018,-2.75 -0.617,-0.681 -1.346,-1.052 -2.206,-1.11 z"
         id="path751" />
      <path
         inkscape:connector-curvature="0"
         style="fill:#b0b6d5"
         d="m 724.832,393.454 h -0.019 c -1.139,-0.031 -2.123,0.889 -2.959,2.742 -0.884,1.828 -1.351,4.044 -1.391,6.647 l -0.186,30.497 c -0.589,1.334 -0.988,2.875 -1.189,4.618 -0.096,0.778 -0.153,1.594 -0.163,2.445 -0.107,2.195 0.165,3.93 0.808,5.19 l -0.746,24.435 c -0.042,2.304 0.307,4.271 1.034,5.932 0.718,1.627 1.618,2.445 2.688,2.447 h 0.019 c 1.031,0 1.961,-0.815 2.769,-2.44 0.798,-1.659 1.227,-3.628 1.293,-5.929 l 0.356,-28.829 c -0.559,-0.447 -0.851,-1.527 -0.886,-3.241 -0.011,-0.237 -0.011,-0.483 0,-0.739 l 1.275,-6.268 1.148,-28.109 c 0.053,-2.605 -0.287,-4.821 -1.034,-6.652 -0.746,-1.854 -1.682,-2.775 -2.817,-2.746"
         id="path753" />
      <path
         inkscape:connector-curvature="0"
         style="fill:#b0b6d5"
         d="m 714.296,396.187 c -0.765,-1.857 -1.719,-2.774 -2.857,-2.749 h -0.018 c -1.138,-0.028 -2.113,0.89 -2.92,2.742 -0.837,1.831 -1.275,4.044 -1.315,6.649 l -0.383,37.447 -0.858,6.782 c -0.164,0.831 -0.032,2.261 0.411,4.298 l 0.035,18.657 c -0.04,2.303 0.316,4.273 1.073,5.931 0.717,1.631 1.615,2.447 2.705,2.448 h 0.02 c 1.021,0 1.941,-0.812 2.748,-2.44 0.77,-1.658 1.188,-3.626 1.258,-5.929 l -0.068,-22.257 c -0.645,-1.489 -0.869,-3.193 -0.679,-5.096 l 1.317,-7.346 0.624,-32.488 c 0.03,-2.603 -0.337,-4.819 -1.093,-6.649"
         id="path755" />
      <path
         inkscape:connector-curvature="0"
         style="fill:#b0b6d5"
         d="m 701.266,396.175 c -0.785,-1.859 -1.73,-2.777 -2.858,-2.752 h -0.02 c -1.137,-0.028 -2.109,0.889 -2.92,2.744 -0.834,1.828 -1.253,4.043 -1.258,6.646 l -0.338,48.433 0.828,3.923 c 0.198,0.901 0.11,2.643 -0.271,5.248 l -0.37,9.583 c -0.002,2.301 0.385,4.274 1.15,5.931 0.746,1.629 1.644,2.447 2.705,2.449 h 0.02 c 1.06,-0.002 1.97,-0.815 2.73,-2.443 0.758,-1.656 1.148,-3.626 1.181,-5.926 l 0.586,-67.188 c 0.013,-2.603 -0.373,-4.82 -1.165,-6.648"
         id="path757" />
      <path
         inkscape:connector-curvature="0"
         style="fill:#b0b6d5"
         d="m 685.434,393.407 c -1.147,-0.029 -2.114,0.889 -2.902,2.744 -0.798,1.828 -1.18,4.044 -1.144,6.648 l 0.521,7.672 -0.344,2.461 0.68,36.221 0.619,3.558 c 0.445,1.605 0.129,3.962 -0.935,7.065 l -0.05,10.211 c -0.014,2.302 0.373,4.274 1.168,5.931 0.755,1.63 1.672,2.446 2.744,2.447 h 0.018 c 1.052,10e-4 1.951,-0.812 2.713,-2.441 0.758,-1.657 1.14,-3.628 1.143,-5.927 l 0.183,-11.024 0.439,-3.657 -0.68,-2.52 -0.057,-49.986 c 0.003,-2.605 -0.402,-4.821 -1.205,-6.65 -0.793,-1.857 -1.757,-2.777 -2.894,-2.752 h -0.017 z"
         id="path759" />
      <path
         inkscape:connector-curvature="0"
         style="fill:#b0b6d5"
         d="m 672.892,393.395 h -0.019 c -1.145,-0.03 -2.112,0.886 -2.881,2.745 -0.788,1.825 -1.151,4.042 -1.089,6.645 l 1.49,7.408 -1.066,3.428 0.929,33.758 c 0.65,2.583 0.979,5.086 0.977,7.502 l -0.856,3.844 -0.374,11.25 c 0.026,2.301 0.441,4.273 1.243,5.93 0.785,1.631 1.694,2.446 2.745,2.447 h 0.019 c 1.062,0.001 1.963,-0.811 2.692,-2.44 0.731,-1.655 1.093,-3.626 1.068,-5.925 l -0.483,-9.152 c -0.027,-0.977 0.04,-1.724 0.191,-2.252 0.146,-0.533 0.259,-0.881 0.362,-1.064 0.085,-0.178 0.181,-0.387 0.269,-0.622 0.271,-0.722 0.406,-1.448 0.398,-2.198 0.002,-0.528 -0.047,-1.05 -0.151,-1.571 -0.159,-0.833 -0.367,-1.658 -0.622,-2.481 l -0.375,-2.37 -0.416,-34.058 c 0.76,-1.79 1.187,-3.113 1.273,-3.958 l -0.546,-2.974 -0.564,-4.489 c -0.046,-2.604 -0.477,-4.821 -1.3,-6.649 -0.829,-1.863 -1.805,-2.781 -2.914,-2.754"
         id="path761" />
      <path
         inkscape:connector-curvature="0"
         style="fill:#b0b6d5"
         d="m 660.298,393.38 h -0.02 c -1.146,-0.029 -2.096,0.889 -2.826,2.744 -0.77,1.826 -1.132,3.645 -1.086,5.453 -0.049,0.304 -0.067,0.599 -0.039,0.892 0.084,0.681 0.33,1.287 0.718,1.819 0.426,0.578 0.719,1.239 0.87,1.971 0.064,0.292 0.141,0.709 0.225,1.268 -0.332,0.902 -0.637,1.923 -0.912,3.088 l -0.438,1.762 1.625,35.916 1.493,4.018 c 0.518,1.506 0.367,2.917 -0.459,4.241 -0.693,0.804 -1.091,2.442 -1.181,4.903 0.262,2.616 0.213,5.448 -0.141,8.507 0.042,2.301 0.476,4.271 1.279,5.928 0.804,1.632 1.749,2.444 2.821,2.446 h 0.018 c 1.031,10e-4 1.923,-0.809 2.655,-2.441 0.712,-1.653 1.045,-3.624 1.008,-5.924 l -0.194,-10.457 c 0.712,-3.098 0.933,-5.255 0.67,-6.479 l -0.734,-3.826 -1.569,-35.728 c -0.008,-0.378 0.133,-0.821 0.438,-1.323 0.303,-0.502 0.635,-1.363 1.007,-2.577 0.086,-0.339 0.161,-0.597 0.228,-0.775 l -1.111,-4.965 c -0.113,-0.577 -0.179,-1.229 -0.187,-1.95 0.047,-2.008 -0.347,-3.931 -1.189,-5.76 -0.861,-1.857 -1.845,-2.777 -2.969,-2.751"
         id="path763" />
      <path
         inkscape:connector-curvature="0"
         style="fill:#b0b6d5"
         d="m 736.036,412.2 -0.24,-6.669 c -0.299,-4.29 -2.237,-6.356 -5.808,-6.2 l -20.173,-0.023 c -1.996,-0.086 -3.381,0.471 -4.15,1.684 -0.161,0.369 -0.303,0.739 -0.417,1.115 -0.124,0.428 -0.2,0.873 -0.209,1.326 -0.01,0.605 0.018,1.203 0.093,1.799 0.073,0.56 0.121,1.109 0.131,1.648 0.006,0.758 0.034,1.506 0.072,2.254 0.038,0.684 0.083,1.367 0.129,2.047 0.012,0.161 0.027,0.332 0.038,0.492 l 0.579,7.427 c 0.075,0.833 0.234,1.649 0.473,2.442 0.064,0.2 0.131,0.408 0.206,0.607 0.822,1.452 2.128,2.246 3.936,2.373 2.501,-0.073 5.002,-0.025 7.502,0.14 1.127,0.011 2.357,0.07 3.695,0.157 1.902,0.085 3.917,0.117 6.039,0.082 0.96,-0.076 1.923,-0.141 2.899,-0.205 0.455,-0.039 0.918,-0.087 1.384,-0.133 0.406,-0.035 0.804,-0.074 1.213,-0.112 2.424,-0.499 3.517,-2.522 3.264,-6.077 l -0.656,-6.174 z m -5.73,-8.228 c 0.502,0.145 0.785,0.657 0.851,1.555 0.534,3.705 0.834,7.645 0.877,11.839 0.159,1.101 0.045,1.907 -0.344,2.426 -0.028,0.039 -0.058,0.066 -0.094,0.095 -4.179,0.592 -7.846,0.785 -10.989,0.594 -3.144,-0.193 -5.351,-0.309 -6.61,-0.349 -1.277,-0.05 -2.243,-0.146 -2.895,-0.271 l -0.4,-0.378 c -0.159,-0.267 -0.264,-0.644 -0.301,-1.136 l -0.747,-8.487 -0.148,-4.355 c -0.064,-0.91 0.145,-1.432 0.628,-1.553 l 20.172,0.02 z"
         id="path765" />
      <path
         inkscape:connector-curvature="0"
         style="fill:none;stroke:#737a91;stroke-width:1.51559997;stroke-linecap:round;stroke-linejoin:round;stroke-miterlimit:10"
         d="m 735.796,405.531 c -0.299,-4.29 -2.237,-6.356 -5.808,-6.2 l -20.173,-0.023 c -1.996,-0.086 -3.381,0.471 -4.15,1.684 -0.161,0.369 -0.303,0.739 -0.417,1.115 -0.124,0.428 -0.2,0.873 -0.209,1.326 -0.01,0.605 0.018,1.203 0.093,1.799 0.073,0.56 0.121,1.109 0.131,1.648 0.006,0.758 0.034,1.506 0.072,2.254 0.038,0.684 0.083,1.367 0.129,2.047 0.012,0.161 0.027,0.332 0.038,0.492 l 0.579,7.427 c 0.075,0.833 0.234,1.649 0.473,2.442 0.064,0.2 0.131,0.408 0.206,0.607 0.822,1.452 2.128,2.246 3.936,2.373 2.501,-0.073 5.002,-0.025 7.502,0.14 1.127,0.011 2.357,0.07 3.695,0.157 1.902,0.085 3.917,0.117 6.039,0.082 0.96,-0.076 1.923,-0.141 2.899,-0.205 0.455,-0.039 0.918,-0.087 1.384,-0.133 0.406,-0.035 0.804,-0.074 1.213,-0.112 2.424,-0.499 3.517,-2.522 3.264,-6.077 l -0.655,-6.174 -0.241,-6.669 z m -5.49,-1.559 -20.173,-0.021 c -0.483,0.121 -0.692,0.643 -0.628,1.553 l 0.148,4.355 0.747,8.487 c 0.037,0.492 0.142,0.869 0.301,1.136 l 0.4,0.378 c 0.651,0.125 1.617,0.221 2.895,0.271 1.26,0.04 3.467,0.156 6.61,0.349 3.144,0.191 6.811,-0.002 10.989,-0.594 0.036,-0.028 0.065,-0.056 0.094,-0.095 0.389,-0.519 0.503,-1.325 0.344,-2.425 -0.043,-4.195 -0.343,-8.135 -0.877,-11.84 -0.065,-0.897 -0.348,-1.41 -0.85,-1.554 z"
         id="path767" />
      <path
         inkscape:connector-curvature="0"
         style="fill:#c6cee3"
         d="m 727.867,398.573 c -0.036,-0.882 -0.576,-1.338 -1.627,-1.349 l -7.084,-0.044 c -1.316,-0.058 -2.538,-0.072 -3.657,-0.044 -1.411,-0.03 -2.244,0.235 -2.491,0.794 -0.142,1.26 -0.173,2.709 -0.07,4.338 l 0.032,4.241 c 0.152,0.123 0.296,0.22 0.436,0.267 0.651,0.114 1.297,0.15 1.935,0.115 h 0.148 0.267 c 2.831,0.012 5.588,0.037 8.275,0.049 l 3.47,0.06 c 0.293,-0.71 0.426,-1.409 0.417,-2.121 l -0.051,-6.306 z"
         id="path769" />
      <path
         inkscape:connector-curvature="0"
         style="fill:none;stroke:#737a91;stroke-width:1.51559997;stroke-linecap:round;stroke-linejoin:round;stroke-miterlimit:10"
         d="m 726.241,397.225 -7.085,-0.044 c -1.315,-0.058 -2.538,-0.07 -3.657,-0.044 -1.411,-0.03 -2.244,0.235 -2.491,0.794 -0.142,1.26 -0.172,2.709 -0.07,4.338 l 0.032,4.241 c 0.152,0.123 0.294,0.22 0.436,0.267 0.654,0.113 1.299,0.15 1.935,0.115 h 0.148 0.267 c 2.832,0.012 5.588,0.037 8.276,0.049 l 3.468,0.06 c 0.294,-0.71 0.427,-1.409 0.419,-2.121 l -0.051,-6.306 c -0.038,-0.883 -0.576,-1.339 -1.627,-1.349 z"
         id="path771" />
      <path
         inkscape:connector-curvature="0"
         style="fill:#c6cee3"
         d="m 688.473,267.187 c -0.578,-0.371 -1.309,-0.523 -2.185,-0.446 -0.457,0.038 -1.012,0.114 -1.647,0.251 -1.327,0.259 -2.553,0.365 -3.654,0.338 -0.342,-0.009 -0.698,-0.034 -1.069,-0.053 -0.365,-0.032 -0.726,-0.076 -1.087,-0.129 -1.425,-0.253 -2.846,-0.236 -4.265,0.042 -0.992,0.189 -1.778,0.41 -2.344,0.648 -0.158,0.066 -0.315,0.138 -0.478,0.234 -0.38,0.242 -0.735,0.598 -1.065,1.061 -0.072,0.104 -0.137,0.206 -0.191,0.305 -0.322,0.578 -0.417,1.209 -0.307,1.902 0.444,4.086 1.081,7.904 1.912,11.465 0.137,0.811 0.536,1.447 1.217,1.918 0.65,0.47 1.378,0.642 2.19,0.502 0.812,-0.135 1.445,-0.534 1.925,-1.196 0.457,-0.659 0.618,-1.396 0.479,-2.206 -0.747,-2.445 -1.273,-5.494 -1.591,-9.142 -0.062,-0.695 -0.118,-1.399 -0.159,-2.126 0.041,0.727 0.097,1.432 0.159,2.126 1.998,-0.383 3.688,-0.569 5.066,-0.558 0.944,0.007 1.884,0.015 2.827,0.02 0.57,-0.005 1.132,-0.008 1.701,-0.015 -0.569,0.007 -1.131,0.01 -1.701,0.015 l 1.463,9.26 c 0.115,0.72 0.456,1.31 1.005,1.755 0.06,0.053 0.131,0.106 0.209,0.157 0.527,0.392 1.112,0.577 1.757,0.554 0.143,-0.003 0.287,-0.019 0.437,-0.043 0.271,-0.051 0.531,-0.131 0.779,-0.238 0.254,-0.115 0.48,-0.265 0.69,-0.447 0.161,-0.144 0.31,-0.304 0.45,-0.493 0.453,-0.676 0.623,-1.415 0.485,-2.224 l -1.844,-11.169 c -0.181,-1.006 -0.571,-1.692 -1.164,-2.068"
         id="path773" />
      <path
         inkscape:connector-curvature="0"
         style="fill:none;stroke:#737a91;stroke-width:1.51119995;stroke-linecap:round;stroke-linejoin:round;stroke-miterlimit:10"
         d="m 676.313,272.682 c 0.317,3.648 0.844,6.697 1.592,9.142 0.138,0.811 -0.023,1.547 -0.48,2.206 -0.479,0.662 -1.113,1.061 -1.925,1.196 -0.812,0.14 -1.54,-0.032 -2.19,-0.502 -0.681,-0.472 -1.08,-1.107 -1.217,-1.918 -0.831,-3.561 -1.468,-7.379 -1.912,-11.465 -0.11,-0.693 -0.015,-1.324 0.307,-1.902 0.056,-0.1 0.119,-0.202 0.191,-0.305 0.33,-0.463 0.686,-0.819 1.065,-1.061 0.162,-0.096 0.319,-0.168 0.479,-0.234 0.563,-0.238 1.349,-0.459 2.342,-0.648 1.419,-0.278 2.84,-0.295 4.265,-0.042 0.362,0.053 0.722,0.097 1.086,0.129 0.374,0.019 0.729,0.044 1.07,0.053 1.103,0.027 2.327,-0.079 3.654,-0.338 0.636,-0.137 1.19,-0.214 1.647,-0.251 0.876,-0.077 1.606,0.075 2.185,0.446 0.594,0.377 0.983,1.064 1.166,2.067 l 1.844,11.169 c 0.138,0.81 -0.032,1.548 -0.485,2.224 -0.141,0.189 -0.289,0.349 -0.45,0.493 -0.21,0.182 -0.436,0.332 -0.69,0.447 -0.248,0.107 -0.509,0.187 -0.779,0.238 -0.148,0.024 -0.292,0.04 -0.437,0.043 -0.644,0.022 -1.229,-0.163 -1.757,-0.554 -0.078,-0.05 -0.149,-0.104 -0.209,-0.157 -0.549,-0.445 -0.89,-1.035 -1.005,-1.755 l -1.464,-9.26 m 1.702,-0.015 c -0.569,0.007 -1.131,0.009 -1.702,0.015 m 0,0 c -0.942,-0.005 -1.882,-0.012 -2.825,-0.02 -1.379,-0.011 -3.069,0.175 -5.067,0.558 m -0.16,-2.126 c 0.041,0.727 0.096,1.432 0.159,2.126"
         id="path775" />
      <path
         inkscape:connector-curvature="0"
         style="fill:#b0b6d5"
         d="m 691.025,276.883 c -2.839,1.264 -6.276,2.163 -10.311,2.704 -6.741,0.32 -12.784,1.227 -18.125,2.699 -5.342,1.474 -10.286,2.939 -14.826,4.402 -4.549,1.462 -7.905,2.807 -10.073,4.035 -1.068,1.37 -1.646,2.861 -1.734,4.471 -0.026,0.587 0.009,1.17 0.112,1.748 0.104,0.615 0.236,1.233 0.397,1.847 0.292,1.143 0.422,2.295 0.393,3.477 0.108,1.273 0.411,2.203 0.896,2.797 8.108,-3.048 15.23,-5.416 21.374,-7.11 4.984,-1.381 8.561,-2.311 10.732,-2.781 1.624,-0.266 3.229,-0.618 4.812,-1.07 0.417,-0.125 0.833,-0.26 1.248,-0.382 1.838,-0.523 3.606,-0.965 5.295,-1.346 1.028,-0.199 2.059,-0.358 3.096,-0.481 1.773,-0.262 3.499,-0.678 5.2,-1.246 1.811,-0.561 3.644,-1.061 5.501,-1.497 2.041,-0.483 4.093,-0.835 6.163,-1.069 2.002,-0.261 3.999,-0.389 6.005,-0.396 1.093,-0.01 2.183,0.013 3.28,0.06 2.147,0.068 4.295,0.262 6.44,0.572 2.06,0.32 4.128,0.668 6.201,1.045 2.104,0.384 4.2,0.807 6.288,1.247 0.145,0.036 0.284,0.06 0.429,0.094 0.287,-1.15 0.28,-2.312 0.004,-3.48 -0.295,-1.203 -0.596,-2.414 -0.88,-3.617 -0.288,-1.204 -0.583,-2.396 -0.869,-3.601 -0.206,-0.852 -0.466,-1.684 -0.799,-2.499 -0.15,-0.355 -0.321,-0.683 -0.533,-0.973 -0.395,-0.578 -0.95,-0.875 -1.646,-0.91 -5.532,-1.083 -11.33,-1.639 -17.398,-1.646 -3.983,-0.557 -9.54,0.412 -16.672,2.906"
         id="path777" />
      <path
         inkscape:connector-curvature="0"
         style="fill:none;stroke:#737a91;stroke-width:1.51119995;stroke-linecap:round;stroke-linejoin:round;stroke-miterlimit:10"
         d="m 691.025,276.883 c 7.132,-2.494 12.688,-3.462 16.674,-2.906 6.068,0.006 11.866,0.562 17.398,1.646 0.695,0.035 1.251,0.332 1.646,0.91 0.212,0.29 0.383,0.618 0.533,0.973 0.333,0.815 0.593,1.647 0.799,2.499 0.286,1.205 0.581,2.397 0.869,3.601 0.284,1.203 0.585,2.414 0.88,3.617 0.276,1.168 0.283,2.33 -0.004,3.48 -0.145,-0.034 -0.284,-0.058 -0.429,-0.094 -2.088,-0.44 -4.184,-0.862 -6.288,-1.247 -2.073,-0.377 -4.142,-0.726 -6.201,-1.045 -2.146,-0.31 -4.293,-0.504 -6.44,-0.572 -1.098,-0.046 -2.188,-0.069 -3.28,-0.06 -2.006,0.007 -4.003,0.136 -6.005,0.396 -2.07,0.233 -4.122,0.586 -6.163,1.069 -1.857,0.437 -3.69,0.936 -5.501,1.497 -1.701,0.568 -3.427,0.984 -5.2,1.246 -1.037,0.123 -2.067,0.282 -3.096,0.481 -1.688,0.38 -3.457,0.822 -5.295,1.346 -0.415,0.122 -0.831,0.257 -1.248,0.382 -1.584,0.452 -3.188,0.804 -4.812,1.07 -2.172,0.47 -5.748,1.4 -10.732,2.781 -6.144,1.694 -13.266,4.062 -21.374,7.11 -0.485,-0.594 -0.788,-1.523 -0.896,-2.797 0.029,-1.182 -0.101,-2.334 -0.393,-3.477 -0.161,-0.614 -0.294,-1.231 -0.397,-1.847 -0.104,-0.578 -0.139,-1.163 -0.112,-1.748 0.088,-1.61 0.666,-3.102 1.734,-4.471 2.168,-1.228 5.524,-2.573 10.073,-4.035 4.54,-1.463 9.484,-2.929 14.826,-4.402 5.341,-1.472 11.384,-2.379 18.125,-2.699 4.033,-0.541 7.471,-1.441 10.309,-2.704 z"
         id="path779" />
      <path
         inkscape:connector-curvature="0"
         style="fill:#255f27"
         d="m 702.113,370.045 v -0.008 c -2.107,-2.609 -4.9,-4.602 -8.386,-5.964 -4.242,-1.642 -8.951,-1.904 -14.117,-0.793 -0.019,0.008 -0.036,0.008 -0.057,0.02 -1.99,0.583 -3.82,1.386 -5.488,2.398 l 0.017,-0.009 c -0.141,0.076 -0.274,0.159 -0.396,0.244 -0.159,0.095 -0.312,0.201 -0.473,0.313 -0.182,0.124 -0.286,0.283 -0.315,0.481 -0.038,0.2 0,0.39 0.124,0.569 0.112,0.172 0.274,0.276 0.481,0.313 0.198,0.03 0.389,-0.009 0.569,-0.121 0.133,-0.096 0.267,-0.18 0.397,-0.257 0.01,-0.009 0.02,-0.018 0.027,-0.028 h 0.011 c 0.104,-0.066 0.208,-0.132 0.321,-0.199 0,-0.01 0.01,-0.01 0.021,-0.01 1.546,-0.937 3.243,-1.681 5.08,-2.238 0.012,0 0.031,0 0.039,-0.01 l 0.01,0.001 h 0.009 c 4.825,-1.037 9.23,-0.792 13.197,0.738 h -0.009 c 3.229,1.265 5.813,3.098 7.763,5.517 h 0.011 c 0.017,0.026 0.045,0.065 0.073,0.094 0,0.009 0.009,0.009 0.02,0.021 l 0.265,0.34 c 0.009,0.019 0.026,0.038 0.038,0.057 0.01,0.009 0.01,0.017 0.018,0.029 1.77,2.38 2.496,4.996 2.17,7.827 l 1.526,0.002 c 0.326,-3.152 -0.495,-6.055 -2.453,-8.7 l -0.01,-0.008 c -0.01,-0.011 -0.01,-0.02 -0.019,-0.029 -0.01,-0.009 -0.01,-0.009 -0.01,-0.019 -0.01,-0.008 -0.02,-0.029 -0.028,-0.036 l -0.312,-0.4 c -0.01,-0.009 -0.019,-0.019 -0.019,-0.029 -0.029,-0.038 -0.066,-0.075 -0.095,-0.106"
         id="path781" />
      <path
         inkscape:connector-curvature="0"
         style="fill:#255f27"
         d="m 700.538,379.366 0.814,0.001 c -0.084,-0.14 -0.17,-0.283 -0.256,-0.407 -0.265,-0.371 -0.491,-0.559 -0.672,-0.569 l 0.114,0.975 z"
         id="path783" />
      <path
         inkscape:connector-curvature="0"
         style="fill:#255f27"
         d="m 701.354,379.367 -0.815,-0.001 0.271,2.398 c 0,0.037 0,0.074 0.01,0.104 0.019,0.301 0.038,0.605 0.057,0.921 0.027,0.616 0.056,1.222 0.072,1.837 0.027,0.693 0.008,1.383 -0.05,2.076 -0.057,0.736 -0.153,1.58 -0.298,2.518 -0.009,0.01 -0.009,0.021 -0.009,0.028 -0.479,2.437 -1.74,4.083 -3.779,4.941 -1.193,0.272 -2.254,0.063 -3.19,-0.628 -0.162,-0.125 -0.322,-0.268 -0.482,-0.429 -0.048,-0.047 -0.087,-0.094 -0.133,-0.142 -0.009,-0.01 -0.009,-0.01 -0.019,-0.02 1.054,-2.188 1.389,-4.394 1.012,-6.621 -0.094,-0.561 -0.311,-1.08 -0.652,-1.545 0.01,0.199 0.01,0.405 0,0.615 -0.051,2.111 -0.535,4.139 -1.457,6.08 -0.085,0.18 -0.173,0.352 -0.257,0.512 -0.028,0.047 -0.057,0.104 -0.095,0.152 -0.028,0.057 -0.066,0.113 -0.104,0.181 -0.011,0.009 -0.021,0.027 -0.029,0.046 -0.057,0.066 -0.113,0.143 -0.162,0.209 -0.01,0.009 -0.01,0.009 -0.01,0.02 -0.065,0.082 -0.143,0.177 -0.219,0.273 -0.009,0.01 -0.009,0.01 -0.017,0.019 -0.067,0.077 -0.134,0.15 -0.199,0.237 -0.446,0.482 -0.949,0.889 -1.528,1.229 -0.331,0.142 -0.683,0.196 -1.041,0.19 -0.219,-0.014 -0.445,-0.051 -0.686,-0.118 -0.424,-0.181 -0.812,-0.38 -1.163,-0.607 -0.245,-0.15 -0.473,-0.315 -0.689,-0.483 h -0.01 -0.011 c -0.918,-0.777 -1.58,-1.785 -1.993,-3.007 -0.182,-0.512 -0.332,-1.032 -0.463,-1.564 0.114,-0.095 0.227,-0.189 0.331,-0.292 1.338,-1.506 1.861,-3.266 1.561,-5.268 -0.112,-0.767 -0.413,-1.412 -0.906,-1.942 0.273,1.364 0.139,2.681 -0.384,3.958 -0.342,0.825 -0.808,1.564 -1.389,2.217 -0.131,0.122 -0.272,0.227 -0.434,0.32 l -0.01,0.012 h -0.009 c -0.011,0.008 -0.029,0.018 -0.039,0.026 -0.144,0.067 -0.285,0.133 -0.428,0.191 -0.626,0.216 -1.249,0.264 -1.884,0.129 h -0.02 c -0.33,-0.065 -0.672,-0.183 -1.014,-0.333 -1.552,-1.092 -2.619,-2.969 -3.204,-5.635 -0.16,-0.748 -0.282,-1.543 -0.367,-2.406 -0.009,-0.142 -0.026,-0.293 -0.036,-0.436 l -1.525,-0.002 c 0.01,0.047 0.01,0.096 0.018,0.143 0.01,0.143 0.029,0.284 0.039,0.428 v 0.008 c 0.082,0.929 0.214,1.792 0.393,2.597 0.688,3.167 1.992,5.364 3.905,6.61 0.028,0.021 0.064,0.037 0.105,0.059 0.472,0.215 0.945,0.367 1.41,0.455 0.843,0.18 1.675,0.133 2.51,-0.131 0.123,0.455 0.255,0.901 0.406,1.346 0.577,1.716 1.559,3.074 2.951,4.07 0.483,0.333 1.033,0.627 1.627,0.884 0.047,0.018 0.096,0.036 0.144,0.067 0.027,0.008 0.056,0.017 0.084,0.025 1.033,0.305 1.999,0.259 2.909,-0.146 0.02,-0.009 0.038,-0.027 0.068,-0.037 0.748,-0.426 1.403,-0.946 1.963,-1.562 v -0.007 c 0.01,0.018 0.026,0.035 0.044,0.046 0.032,0.028 0.069,0.066 0.097,0.094 l 0.112,0.105 c 0.134,0.124 0.267,0.237 0.399,0.341 1.335,1.035 2.869,1.35 4.584,0.928 0.027,-0.01 0.067,-0.029 0.096,-0.039 2.587,-1.028 4.174,-3.065 4.766,-6.105 v -0.029 c 0.219,-1.402 0.325,-2.757 0.335,-4.055 0.01,-0.955 -0.045,-1.883 -0.146,-2.784 0.34,-0.085 0.652,-0.2 0.927,-0.351 0.428,-0.235 0.779,-0.538 1.072,-0.909 v -0.009 c 0.352,-0.462 0.599,-1.03 0.741,-1.704 0.009,-0.028 0.009,-0.048 0.02,-0.065 0.01,-0.086 0.01,-0.162 0.021,-0.229 l -1.526,-0.002 v 0.04 c -0.105,0.407 -0.257,0.756 -0.457,1.048 h -0.01 c -0.161,0.199 -0.352,0.371 -0.576,0.494 -0.145,0.066 -0.286,0.131 -0.448,0.178 -0.009,-0.055 -0.104,-0.339 -0.281,-0.851 -0.125,-0.332 -0.258,-0.636 -0.407,-0.911"
         id="path785" />
      <path
         inkscape:connector-curvature="0"
         style="fill:#255f27"
         d="m 673.401,378.62 c 0.019,0.236 0.039,0.473 0.058,0.709 l 1.525,0.002 c -0.019,-0.209 -0.038,-0.416 -0.046,-0.633 -0.012,-0.066 -0.012,-0.125 -0.02,-0.182 -0.01,-0.208 -0.096,-0.377 -0.255,-0.521 -0.162,-0.142 -0.351,-0.198 -0.549,-0.191 -0.209,0.009 -0.38,0.104 -0.521,0.264 -0.143,0.163 -0.2,0.343 -0.192,0.552"
         id="path787" />
      <path
         inkscape:connector-curvature="0"
         style="fill:#9fc94c"
         d="m 679.987,364.748 h -0.009 l -0.01,-10e-4 c -0.008,0.01 -0.027,0.01 -0.039,0.01 -1.837,0.557 -3.534,1.302 -5.08,2.238 -0.011,0 -0.019,0 -0.019,0.011 -0.116,0.065 -0.22,0.132 -0.323,0.198 0.048,0.114 0.217,0.463 0.52,1.053 0.274,0.54 0.463,0.956 0.549,1.27 0.169,0.588 0.318,1.336 0.459,2.246 0.151,0.977 0.225,1.784 0.225,2.407 -0.002,0.712 -0.02,1.185 -0.067,1.43 -0.086,0.494 -0.296,1.044 -0.637,1.639 -0.086,0.142 -0.189,0.408 -0.324,0.776 -0.104,0.293 -0.209,0.513 -0.295,0.674 0.01,0.217 0.029,0.424 0.048,0.633 0.008,0.143 0.027,0.294 0.036,0.436 0.085,0.863 0.207,1.658 0.367,2.406 0.583,2.666 1.652,4.543 3.204,5.635 0.343,0.15 0.682,0.268 1.014,0.333 h 0.018 c 0.637,0.135 1.261,0.088 1.886,-0.129 0.143,-0.058 0.284,-0.124 0.43,-0.191 0.006,-0.009 0.026,-0.019 0.035,-0.026 h 0.011 l 0.01,-0.012 c 0.161,-0.094 0.303,-0.198 0.434,-0.32 0.581,-0.652 1.047,-1.392 1.389,-2.217 0.522,-1.277 0.658,-2.594 0.384,-3.958 0.493,0.53 0.794,1.176 0.906,1.942 0.301,2.002 -0.223,3.762 -1.561,5.268 -0.103,0.103 -0.218,0.197 -0.331,0.292 0.131,0.532 0.281,1.053 0.463,1.564 0.413,1.222 1.075,2.229 1.993,3.007 h 0.011 0.01 c 0.217,0.168 0.444,0.333 0.689,0.483 0.351,0.228 0.738,0.427 1.163,0.607 0.24,0.067 0.467,0.104 0.685,0.118 0.358,0.006 0.71,-0.049 1.042,-0.19 0.579,-0.341 1.081,-0.747 1.528,-1.229 0.063,-0.087 0.131,-0.16 0.199,-0.237 0.007,-0.009 0.007,-0.009 0.017,-0.019 0.077,-0.097 0.153,-0.191 0.219,-0.273 0,-0.011 0,-0.011 0.011,-0.02 0.048,-0.066 0.103,-0.143 0.161,-0.209 0.009,-0.019 0.019,-0.037 0.029,-0.046 0.037,-0.067 0.075,-0.125 0.104,-0.181 0.038,-0.048 0.066,-0.105 0.095,-0.152 0.086,-0.16 0.171,-0.332 0.257,-0.512 0.922,-1.941 1.407,-3.969 1.457,-6.08 0.01,-0.21 0.01,-0.416 0,-0.615 0.342,0.465 0.561,0.984 0.652,1.545 0.377,2.228 0.042,4.434 -1.012,6.621 0.01,0.01 0.01,0.01 0.019,0.02 0.046,0.048 0.085,0.095 0.133,0.142 0.16,0.161 0.32,0.304 0.482,0.429 0.936,0.691 1.998,0.9 3.19,0.628 2.041,-0.858 3.301,-2.507 3.777,-4.941 0,-0.008 0,-0.019 0.011,-0.028 0.144,-0.938 0.241,-1.781 0.298,-2.518 0.058,-0.693 0.077,-1.383 0.05,-2.076 -0.018,-0.615 -0.045,-1.221 -0.072,-1.837 -0.02,-0.315 -0.038,-0.62 -0.057,-0.921 -0.011,-0.029 -0.011,-0.066 -0.011,-0.104 l -0.383,-3.374 c 0.181,0.011 0.407,0.198 0.672,0.569 0.256,0.371 0.482,0.805 0.663,1.319 0.177,0.512 0.272,0.796 0.281,0.851 0.162,-0.047 0.304,-0.111 0.446,-0.178 0.227,-0.123 0.416,-0.295 0.578,-0.494 h 0.01 c 0.2,-0.292 0.352,-0.641 0.457,-1.048 0.335,-2.851 -0.391,-5.469 -2.17,-7.867 -0.008,-0.012 -0.008,-0.021 -0.018,-0.029 -0.011,-0.02 -0.029,-0.038 -0.038,-0.057 l -0.265,-0.34 c -0.011,-0.011 -0.021,-0.011 -0.021,-0.021 -0.027,-0.029 -0.056,-0.068 -0.074,-0.094 h -0.009 c -1.949,-2.419 -4.534,-4.252 -7.763,-5.517 h 0.009 c -3.967,-1.532 -8.373,-1.776 -13.198,-0.739"
         id="path789" />
    </g>
  </g>
</svg>
