<?xml version="1.0" encoding="UTF-8" standalone="no"?>
<!-- Created with Inkscape (http://www.inkscape.org/) -->

<svg
   xmlns:dc="http://purl.org/dc/elements/1.1/"
   xmlns:cc="http://creativecommons.org/ns#"
   xmlns:rdf="http://www.w3.org/1999/02/22-rdf-syntax-ns#"
   xmlns:svg="http://www.w3.org/2000/svg"
   xmlns="http://www.w3.org/2000/svg"
   xmlns:sodipodi="http://sodipodi.sourceforge.net/DTD/sodipodi-0.dtd"
   xmlns:inkscape="http://www.inkscape.org/namespaces/inkscape"
   width="161.08868"
   height="183.21857"
   id="svg5696"
   version="1.1"
   inkscape:version="0.48.4 r9939"
   sodipodi:docname="abby6.svg">
  <defs
     id="defs5698" />
  <sodipodi:namedview
     id="base"
     pagecolor="#ffffff"
     bordercolor="#666666"
     borderopacity="1.0"
     inkscape:pageopacity="0.0"
     inkscape:pageshadow="2"
     inkscape:zoom="0.77472527"
     inkscape:cx="-65.887272"
     inkscape:cy="48.057899"
     inkscape:current-layer="layer1"
     inkscape:document-units="px"
     showgrid="false"
     inkscape:window-width="942"
     inkscape:window-height="591"
     inkscape:window-x="414"
     inkscape:window-y="49"
     inkscape:window-maximized="0"
     fit-margin-top="0"
     fit-margin-left="0"
     fit-margin-right="0"
     fit-margin-bottom="0" />
  <metadata
     id="metadata5701">
    <rdf:RDF>
      <cc:Work
         rdf:about="">
        <dc:format>image/svg+xml</dc:format>
        <dc:type
           rdf:resource="http://purl.org/dc/dcmitype/StillImage" />
        <dc:title></dc:title>
      </cc:Work>
    </rdf:RDF>
  </metadata>
  <g
     id="layer1"
     inkscape:label="Layer 1"
     inkscape:groupmode="layer"
     transform="translate(-175.98872,-104.83934)">
    <g
       id="g4858"
       transform="translate(175.97451,104.7994)">
      <path
         id="path4860"
         d="m 103.42913,103.78346 0.1063,-0.0709 c 10.91338,-6.377955 21.15354,-8.39764 30.72047,-6.09449 l 0.0709,0.03543 c 7.97244,2.44488 12.04724,5.95276 12.25984,10.48819 0.60236,6.90945 -3.68504,11.87008 -12.79134,14.84646 l -0.0354,0 c -4.46457,1.41732 -8.43307,2.16142 -11.87008,2.23228 3.08268,3.15355 4.00394,7.22835 2.79921,12.25984 l -0.0354,0.1063 c -1.06299,3.33071 -3.75591,5.1378 -8.04331,5.42126 -3.79134,0.46063 -8.18504,-1.48819 -13.21653,-5.84645 -4.9252,-4.32284 -7.759846,-8.68111 -8.50394,-13.14567 -1.452756,-8.46851 1.417322,-15.20079 8.53937,-20.23229 m 40.85433,4.96063 -0.0354,0 c -0.35434,-3.7559 -4.00394,-6.73228 -10.91339,-8.858267 -9,-2.125984 -18.60236,-0.212598 -28.84252,5.740157 -6.12992,4.3937 -8.574801,10.24016 -7.334644,17.57481 0.744095,4.0748 3.366144,8.11417 7.937004,12.08267 4.46457,3.89764 8.36221,5.70473 11.69292,5.38583 l 0.0354,0 c 2.94094,-0.17716 4.8189,-1.31102 5.63386,-3.43701 1.41732,-5.95275 -1.27559,-10.91338 -8.07874,-14.84645 6.51968,1.20472 12.8622,0.67322 19.09842,-1.59449 l -0.0354,0 c 7.54724,-2.48032 11.16142,-6.48425 10.84252,-12.04725"
         style="fill:#e27c9f;fill-opacity:1;fill-rule:nonzero;stroke:none"
         inkscape:connector-curvature="0" />
      <path
         id="path4862"
         d="m 144.24803,108.74409 0.0354,0 c 0.3189,5.563 -3.29528,9.56693 -10.84252,12.04725 l 0.0354,0 c -6.23622,2.26771 -12.57874,2.79921 -19.09842,1.59449 6.80315,3.93307 9.49606,8.8937 8.07874,14.84645 -0.81496,2.12599 -2.69292,3.25985 -5.63386,3.43701 l -0.0354,0 c -3.33071,0.3189 -7.22835,-1.48819 -11.69292,-5.38583 -4.57086,-3.9685 -7.192909,-8.00787 -7.937004,-12.08267 -1.240157,-7.29922 1.204724,-13.18111 7.334644,-17.57481 10.24016,-5.952752 19.84252,-7.866138 28.84252,-5.740154 6.90945,2.125984 10.55905,5.102364 10.91339,8.858264"
         style="fill:#f8e6f0;fill-opacity:1;fill-rule:nonzero;stroke:none"
         inkscape:connector-curvature="0" />
      <path
         id="path4864"
         d="m 84.437004,99.850393 -0.07087,-0.106299 C 76.322831,90.637795 66.933068,85.748031 56.161415,85.110236 l -0.07087,0 c -9.177165,-0.07087 -14.917322,2.019685 -17.255905,6.200787 -3.862205,6.271654 -1.84252,12.153547 5.988189,17.574807 l 0.03543,0 c 3.862204,2.62204 7.51181,4.46456 10.913385,5.52756 -4.570866,2.09055 -7.405511,5.59842 -8.503937,10.62992 l -0.03543,0.1063 c -0.460629,3.437 1.417323,5.88189 5.598425,7.40551 3.614173,1.55905 8.964567,1.02756 16.086614,-1.59449 6.980315,-2.55118 11.870078,-5.81102 14.704724,-9.74409 5.421259,-7.47638 5.669291,-14.59843 0.81496,-21.366147 m -43.582675,-7.299212 0.03543,0 c 2.125984,-3.401575 7.192913,-5.102362 15.129921,-5.066929 10.098424,0.637795 18.921259,5.244094 26.503935,13.783468 4.14567,5.88189 3.862205,12.04724 -0.81496,18.53149 -2.622047,3.57874 -7.192913,6.55512 -13.641732,8.92914 -6.342519,2.33858 -11.125984,2.87007 -14.31496,1.62992 l -0.07087,-0.0354 c -2.870079,-1.02755 -4.216535,-2.62204 -4.074803,-4.85433 1.38189,-5.98819 6.413386,-9.77952 15.094488,-11.44488 -7.15748,-0.77953 -13.322834,-3.15354 -18.531496,-7.12205 l 0.03543,0.0354 c -6.484251,-4.53544 -8.255905,-9.3189 -5.350393,-14.385829"
         style="fill:#e27c9f;fill-opacity:1;fill-rule:nonzero;stroke:none"
         inkscape:connector-curvature="0" />
      <path
         id="path4866"
         d="m 40.889762,92.551181 -0.03543,0 c -2.905512,5.066929 -1.133858,9.850389 5.31496,14.385829 l 0,0 c 5.208662,3.93307 11.374016,6.30708 18.531496,7.08661 -8.716535,1.66536 -13.712598,5.45669 -15.094488,11.44488 -0.141732,2.23229 1.204724,3.82678 4.074803,4.85433 l 0.07087,0.0354 c 3.188976,1.24015 7.972441,0.70866 14.31496,-1.62992 6.448819,-2.37402 11.019685,-5.3504 13.641732,-8.92914 4.677165,-6.44882 4.96063,-12.6496 0.81496,-18.53149 C 74.940942,92.728346 66.118107,88.122047 56.019683,87.484252 48.047242,87.448819 43.015746,89.149606 40.889762,92.551181"
         style="fill:#f8e6f0;fill-opacity:1;fill-rule:nonzero;stroke:none"
         inkscape:connector-curvature="0" />
      <path
         id="path4868"
         d="m 93.472437,134.39764 7.653543,0 c 0.60236,6.44882 -0.35433,14.20866 -2.799213,23.27952 1.38189,1.20473 2.728343,2.62205 4.003933,4.25197 1.27559,1.59449 2.23229,3.29528 2.94095,5.0315 0.70866,1.73622 1.06299,3.25984 1.09842,4.5 0.0354,1.24016 -0.17716,2.48031 -0.60236,3.7559 -0.38976,1.2756 -1.06299,2.09056 -1.94882,2.51575 -0.92126,0.4252 -2.19685,0.5315 -3.862201,0.38977 -1.84252,-0.3189 -3.437008,-0.92126 -4.712599,-1.80709 -1.27559,-0.85039 -2.444881,-1.94882 -3.57874,-3.22441 -1.098425,-1.27559 -2.019685,-2.72835 -2.799212,-4.32283 -0.744095,-1.55906 -1.240158,-3.22441 -1.488189,-4.99607 0.602362,-1.27559 1.665354,-4.57086 3.224409,-9.95669 1.594488,-5.35039 2.551181,-11.83465 2.870079,-19.41732"
         style="fill:#e27c9f;fill-opacity:1;fill-rule:nonzero;stroke:none"
         inkscape:connector-curvature="0" />
      <path
         id="path4870"
         d="m 101.12598,134.39764 -7.653543,0 c -0.318898,7.58267 -1.275591,14.06693 -2.870079,19.41732 -1.559055,5.38583 -2.622047,8.6811 -3.224409,9.95669 0.248031,1.77166 0.744094,3.43701 1.488189,4.99607 0.779527,1.59448 1.700787,3.04724 2.799212,4.32283 1.133859,1.27559 2.338583,2.37402 3.57874,3.22441 1.275591,0.88583 2.870079,1.48819 4.712599,1.80709 1.665351,0.14173 2.940941,0.0354 3.862201,-0.38977"
         style="fill:none;stroke:#c4084a;stroke-width:2.37401557px;stroke-linecap:round;stroke-linejoin:round;stroke-opacity:1;stroke-dasharray:none"
         inkscape:connector-curvature="0" />
      <path
         id="path4872"
         d="m 103.81889,177.73228 c 0.88583,-0.42519 1.55906,-1.24015 1.94882,-2.51575 0.4252,-1.27559 0.6378,-2.51574 0.60236,-3.7559 -0.0354,-1.24016 -0.38976,-2.76378 -1.09842,-4.5 -0.70866,-1.73622 -1.66536,-3.43701 -2.94095,-5.0315 -1.27559,-1.62992 -2.622043,-3.04724 -4.003933,-4.25197 2.444883,-9.07086 3.401573,-16.8307 2.799213,-23.27952"
         style="fill:none;stroke:#c4084a;stroke-width:2.37401557px;stroke-linecap:round;stroke-linejoin:miter;stroke-miterlimit:4;stroke-opacity:1;stroke-dasharray:none"
         inkscape:connector-curvature="0" />
      <path
         id="path4874"
         d="m 80.4685,132.44882 7.15748,2.62205 c -1.559055,6.23622 -5.031495,13.1811 -10.381889,20.87007 0.92126,1.62993 1.700787,3.40158 2.338583,5.3504 0.673228,1.94882 1.062992,3.8622 1.133858,5.74016 0.07087,1.87795 -0.106299,3.40157 -0.496063,4.57086 -0.389764,1.16929 -0.992126,2.30315 -1.807087,3.36614 -0.779527,1.02756 -1.700787,1.59449 -2.692913,1.70079 -0.992126,0.0709 -2.232283,-0.24803 -3.755905,-0.95669 -1.629921,-0.9567 -2.905512,-2.05512 -3.826772,-3.29528 -0.885826,-1.24016 -1.665354,-2.65748 -2.303149,-4.25197 -0.602362,-1.59448 -0.992126,-3.25984 -1.169291,-5.03149 -0.177166,-1.70079 -0.1063,-3.43701 0.248031,-5.20866 0.992126,-0.9567 3.11811,-3.72048 6.377952,-8.22048 3.259843,-4.5 6.34252,-10.27559 9.177165,-17.2559"
         style="fill:#e27c9f;fill-opacity:1;fill-rule:nonzero;stroke:none"
         inkscape:connector-curvature="0" />
      <path
         id="path4876"
         d="m 87.62598,135.07087 -7.15748,-2.62205 c -2.834645,6.98031 -5.917322,12.7559 -9.177165,17.2559 -3.259842,4.5 -5.385826,7.26378 -6.377952,8.22048 -0.354331,1.77165 -0.425197,3.50787 -0.248031,5.20866 0.177165,1.77165 0.566929,3.43701 1.169291,5.03149 0.637795,1.59449 1.417323,3.01181 2.303149,4.25197 0.92126,1.24016 2.196851,2.33858 3.826772,3.29528 1.523622,0.70866 2.763779,1.02756 3.755905,0.95669"
         style="fill:none;stroke:#c4084a;stroke-width:2.33858252px;stroke-linecap:round;stroke-linejoin:round;stroke-opacity:1;stroke-dasharray:none"
         inkscape:connector-curvature="0" />
      <path
         id="path4878"
         d="m 75.720469,176.66929 c 0.992126,-0.1063 1.913386,-0.67323 2.692913,-1.70079 0.814961,-1.06299 1.417323,-2.19685 1.807087,-3.36614 0.389764,-1.16929 0.566929,-2.69291 0.46063,-4.57086 -0.03543,-1.87796 -0.425197,-3.79134 -1.098425,-5.74016 -0.637796,-1.94882 -1.417323,-3.75591 -2.338583,-5.3504 5.350394,-7.68897 8.822834,-14.63385 10.381889,-20.87007"
         style="fill:none;stroke:#c4084a;stroke-width:2.33858252px;stroke-linecap:round;stroke-linejoin:miter;stroke-miterlimit:4;stroke-opacity:1;stroke-dasharray:none"
         inkscape:connector-curvature="0" />
      <path
         id="path4880"
         d="m 100.91338,114.16535 c 2.12599,-4.00393 4.67717,-5.35039 7.65354,-3.9685 l 14.77559,29.19685 c -0.67322,0.85039 -3.04724,2.09055 -7.12204,3.72047 l -15.30709,-28.94882 z"
         style="fill:#e27c9f;fill-opacity:1;fill-rule:nonzero;stroke:none"
         inkscape:connector-curvature="0" />
      <path
         id="path4882"
         d="m 116.22047,143.11417 -15.30709,-28.94882 c 2.12599,-4.00393 4.67717,-5.35039 7.65354,-3.9685 l 14.77559,29.19685"
         style="fill:none;stroke:#c4084a;stroke-width:2.37401557px;stroke-linecap:round;stroke-linejoin:round;stroke-opacity:1;stroke-dasharray:none"
         inkscape:connector-curvature="0" />
      <path
         id="path4884"
         d="m 136.06299,149.31496 0,0.14173 c -0.77953,2.01969 -1.84252,3.04725 -3.25985,3.15355 -0.35433,0.99212 -0.99212,1.77165 -1.94881,2.37401 -1.41733,0.95669 -2.90552,0.92126 -4.5,-0.0709 -1.063,-0.67323 -2.26772,-1.91339 -3.57874,-3.82678 -0.3189,-0.38976 -0.60237,-0.77952 -0.88583,-1.09842 -0.24803,1.52362 -0.70866,2.65748 -1.34646,3.36614 -1.02756,1.45276 -2.51575,1.84252 -4.46456,1.09843 -3.40158,-1.13386 -4.03937,-5.49213 -1.94882,-13.14567 0.0354,-0.14174 0.1063,-0.3189 0.17716,-0.60237 0.46063,0.38977 1.13386,0.8504 2.09055,1.45276 -1.59449,5.81102 -1.38189,9.14173 0.56693,10.06299 0.7441,0.28347 1.34646,0.17717 1.73622,-0.3189 0.56693,-0.88582 0.9567,-2.37401 1.09843,-4.5 l 0.14173,-1.84252 1.77165,0.9567 c 0.88583,0.67323 1.87796,1.70078 2.97638,3.15354 l 0.0709,0.0354 c 1.02756,1.55906 1.98425,2.58662 2.87008,3.18898 l 0,0 c 0.63779,0.38976 1.24015,0.46063 1.80708,0.17717 1.62992,-0.8504 2.09055,-2.44489 1.38189,-4.78347 -0.85039,-2.23228 -2.19685,-4.0748 -4.11023,-5.49212 2.79921,0.14173 4.81889,2.09055 6.09448,5.84645 0.14174,0.4252 0.2126,0.81496 0.24804,1.20473 1.02755,-0.77953 1.38189,-2.12599 1.06299,-4.07481 -0.3189,-1.91338 -1.73622,-4.11023 -4.21654,-6.51968 1.70079,-0.17717 3.47244,0.99212 5.3504,3.57874 0,-0.2126 0,-0.4252 0,-0.60236 l -0.0354,-0.0354 c 0,-1.20472 -0.49606,-2.51575 -1.45275,-3.93307 -0.99213,-1.45275 -2.65748,-2.65748 -4.96063,-3.50787 -2.33859,-0.88583 -5.10236,-0.70866 -8.22048,0.53149 -0.0354,0 -0.0709,0 -0.10629,-0.0354 l -0.0709,-2.44488 c 3.50787,-1.24016 6.55512,-1.34646 9.2126,-0.28347 l 0,0.0354 c 2.90551,1.06299 4.96063,2.51575 6.12992,4.3937 1.27559,1.87795 1.91338,3.6496 1.87795,5.24409 0.0709,1.34646 -0.38976,2.76378 -1.38189,4.2874 0.0709,0.9567 0.0354,1.91339 -0.17716,2.83465"
         style="fill:#c4084a;fill-opacity:1;fill-rule:nonzero;stroke:none"
         inkscape:connector-curvature="0" />
      <path
         id="path4886"
         d="m 133.05118,149.81102 c -0.0354,-0.35433 -0.1063,-0.74409 -0.24804,-1.16929 -1.27559,-3.7559 -3.29527,-5.70472 -6.09448,-5.84645 1.91338,1.41732 3.25984,3.25984 4.11023,5.49212 0.70866,2.33858 0.24803,3.93307 -1.38189,4.78347 -0.56693,0.28346 -1.16929,0.21259 -1.80708,-0.17717 l 0,0 c -0.88583,-0.60236 -1.84252,-1.66535 -2.87008,-3.18898 l -0.0709,-0.0354 c -1.09842,-1.45276 -2.09055,-2.48031 -2.97638,-3.15354 l -1.77165,-0.9567 -0.14173,1.84252 c -0.14173,2.12599 -0.49607,3.61418 -1.09843,4.5 -0.38976,0.49607 -0.99212,0.60237 -1.73622,0.3189 -1.94882,-0.92126 -2.16142,-4.25197 -0.56693,-10.06299 l 1.27559,-3.75591 c -0.42519,-1.45275 0.49607,-2.51574 2.79922,-3.15354 0.0354,0.0354 0.0709,0.0354 0.10629,0.0354 3.11812,-1.24015 5.88189,-1.41732 8.22048,-0.53149 2.30315,0.85039 3.9685,2.05512 4.96063,3.50787 0.95669,1.41732 1.45275,2.72835 1.45275,3.93307 l 0.0354,0.0354 c 0,0.17716 0,0.38976 0,0.60236 -1.87796,-2.58662 -3.64961,-3.75591 -5.3504,-3.57874 2.48032,2.40945 3.89764,4.6063 4.21654,6.51968 0.3189,1.94882 -0.0354,3.29528 -1.06299,4.03937"
         style="fill:#e27c9f;fill-opacity:1;fill-rule:nonzero;stroke:none"
         inkscape:connector-curvature="0" />
      <path
         id="path4888"
         d="m 107.53937,104.31496 -0.0709,-5.598425 -22.358267,-3.153543 -2.551181,5.527558 -2.161418,2.30315 -0.07087,0.0354 c -2.19685,2.51575 -4.181102,5.10237 -6.023622,7.79528 -5.988188,8.82283 -9.070865,17.00787 -9.177165,24.51968 l -0.106299,1.91339 1.807087,0.38976 c 1.169291,0.3189 2.480315,0.28347 3.93307,-0.0354 -0.03543,0.60236 -0.03543,1.20472 0,1.84252 l 0.07087,1.98425 1.913385,0.17717 c 0.956693,0.14173 1.984252,0.0709 3.082677,-0.24803 0.177166,1.27559 0.46063,2.51574 0.814961,3.6496 l 0.602362,2.12599 2.090551,-0.6378 c 1.452756,-0.4252 2.940945,-1.31102 4.429134,-2.69291 0.283464,0.77953 0.637795,1.48819 0.992126,2.16142 l 0.992126,1.98425 1.948819,-1.09843 c 0.35433,-0.17716 0.673228,-0.38976 1.027559,-0.60236 0.46063,0.95669 0.992126,1.80709 1.559055,2.62205 l 1.204724,1.87795 1.807087,-1.34646 c 1.452755,-1.06299 2.834645,-2.65748 4.145669,-4.78346 0.106299,0.17716 0.212598,0.3189 0.35433,0.46063 l 1.346457,1.66535 1.736223,-1.48819 c 0.35433,-0.28346 0.70866,-0.60236 1.02756,-0.95669 0.95669,1.24016 2.01968,2.26772 3.18897,3.08268 l 1.62992,1.24016 1.34646,-1.66536 c 2.09055,-2.48031 3.61417,-6.23622 4.57087,-11.23228 1.73622,-9.38977 0.0354,-20.01969 -5.10236,-31.8189 m -2.26772,-3.47244 0.0354,4.42913 0.1063,-0.0709 c 4.99606,11.37401 6.66142,21.5433 4.99606,30.5433 -0.81496,4.5 -2.16141,7.83071 -4.00393,10.063 -1.66536,-1.24016 -3.11811,-2.97638 -4.2874,-5.17323 -0.81496,1.31102 -1.70079,2.37401 -2.622052,3.18897 -0.850394,-1.02755 -1.594488,-2.16141 -2.196851,-3.47244 -1.559055,3.57874 -3.295275,6.05906 -5.208661,7.44095 -1.027559,-1.45276 -1.842519,-3.18898 -2.444882,-5.1378 -0.956692,1.09843 -1.913385,1.91339 -2.905511,2.48032 -0.814961,-1.62992 -1.452756,-3.47244 -1.877953,-5.52756 -2.090551,2.72835 -4.110236,4.35827 -6.094488,4.96063 -0.566929,-1.87795 -0.92126,-3.93307 -1.027559,-6.20079 -1.73622,0.95669 -3.330708,1.38189 -4.748031,1.24016 -0.07087,-1.66536 0.03543,-3.40158 0.248031,-5.17323 -2.267716,1.20472 -4.216535,1.62992 -5.881889,1.27559 0.141732,-7.08661 3.082677,-14.77559 8.751968,-23.10236 1.771653,-2.62205 3.720472,-5.10236 5.811023,-7.54725 l 2.444882,-2.62204 1.984252,-4.287404 18.921261,2.692914 z"
         style="fill:#3793d1;fill-opacity:1;fill-rule:nonzero;stroke:none"
         inkscape:connector-curvature="0" />
      <path
         id="path4890"
         d="m 105.30708,105.27165 -0.0354,-4.42913 -18.92126,-2.692914 -1.984252,4.287404 -2.444882,2.62204 c -2.090551,2.44489 -4.03937,4.9252 -5.811023,7.54725 -5.669291,8.32677 -8.610236,16.05118 -8.751968,23.10236 1.665354,0.35433 3.614173,-0.0709 5.881889,-1.27559 0.708662,-0.38976 1.417323,-0.81496 2.125984,-1.34646 0.956693,-0.67322 1.877953,-1.41732 2.799213,-2.26771 -0.425197,2.69291 -0.531496,5.20866 -0.425197,7.54724 0.106299,2.26772 0.46063,4.32284 1.027559,6.20079 1.984252,-0.56693 4.003937,-2.23228 6.094488,-4.9252 0.354331,-0.46063 0.708661,-0.92126 1.062992,-1.45275 0.814961,-1.20473 1.594488,-2.48032 2.338583,-3.86221 0.177165,3.15354 0.637795,5.91732 1.381889,8.32677 0.602363,1.98425 1.417323,3.68504 2.444882,5.17323 1.913386,-1.41732 3.649606,-3.89764 5.208661,-7.47638 0.177166,-0.38976 0.318898,-0.81496 0.496063,-1.24015 0.673229,-1.70079 1.240158,-3.47245 1.665355,-5.3504 0.708664,2.65748 1.594484,4.9252 2.657484,6.87402 1.20472,2.23228 2.62204,3.93307 4.2874,5.17323 1.84252,-2.23229 3.18897,-5.563 4.00393,-10.063 1.66536,-9 0,-19.16929 -4.96063,-30.5433 l -0.14173,0.0709 z"
         style="fill:#86c1ea;fill-opacity:1;fill-rule:nonzero;stroke:none"
         inkscape:connector-curvature="0" />
      <path
         id="path4892"
         d="m 99.460626,133.72441 c -0.425197,1.91338 -0.992126,3.68504 -1.665355,5.38583 -0.177165,0.42519 -0.318897,0.85039 -0.496063,1.24015 0.602363,1.31103 1.346457,2.44489 2.196851,3.47244 0.921261,-0.81496 1.807091,-1.87795 2.622051,-3.18897 -1.063,-1.94882 -1.94882,-4.21654 -2.657484,-6.90945"
         style="fill:#bc9fca;fill-opacity:1;fill-rule:nonzero;stroke:none"
         inkscape:connector-curvature="0" />
      <path
         id="path4894"
         d="m 86.740154,145.13386 c 0.992126,-0.56693 1.948819,-1.38189 2.905511,-2.48032 -0.744094,-2.40945 -1.204724,-5.17323 -1.381889,-8.32677 -0.744095,1.38189 -1.523622,2.65748 -2.338583,3.86221 -0.354331,0.53149 -0.708661,0.99212 -1.062992,1.45275 0.425197,2.01969 1.062992,3.86221 1.877953,5.49213"
         style="fill:#bc9fca;fill-opacity:1;fill-rule:nonzero;stroke:none"
         inkscape:connector-curvature="0" />
      <path
         id="path4896"
         d="m 73.240154,134.43307 c -0.212598,1.77165 -0.318897,3.50787 -0.248031,5.20866 1.417323,0.1063 3.011811,-0.3189 4.748031,-1.27559 -0.106299,-2.33858 0,-4.85433 0.425197,-7.54724 -0.92126,0.85039 -1.84252,1.59449 -2.799213,2.26771 -0.708661,0.5315 -1.417322,0.9567 -2.125984,1.34646"
         style="fill:#bc9fca;fill-opacity:1;fill-rule:nonzero;stroke:none"
         inkscape:connector-curvature="0" />
      <path
         id="path4898"
         d="m 81.85039,169.08661 c 0.602362,-0.0354 1.098425,-0.28346 1.523622,-0.70866 l 0.248032,-0.28346 c 0.425196,-0.46063 0.637795,-0.9567 0.602362,-1.55906 0,-0.60236 -0.248032,-1.09842 -0.673229,-1.52362 L 34.440943,118.45276 c -0.425196,-0.38977 -0.921259,-0.56693 -1.523622,-0.56693 -0.602362,0.0354 -1.133858,0.24803 -1.559055,0.70866 l -0.248031,0.24803 c -0.425197,0.46063 -0.602362,0.99213 -0.602362,1.59449 0,0.60236 0.248031,1.09842 0.673228,1.48819 l 49.074801,46.55905 c 0.46063,0.38977 0.992126,0.60236 1.594488,0.60236"
         style="fill:#d4074c;fill-opacity:1;fill-rule:nonzero;stroke:none"
         inkscape:connector-curvature="0" />
      <path
         id="path4900"
         d="m 83.374012,168.37795 0.248032,-0.28346 c 0.425196,-0.46063 0.637795,-0.9567 0.602362,-1.55906 0,-0.60236 -0.248032,-1.09842 -0.673229,-1.52362 L 34.440943,118.45276 c -0.425196,-0.38977 -0.921259,-0.56693 -1.523622,-0.56693 -0.602362,0.0354 -1.133858,0.24803 -1.559055,0.70866 l -0.248031,0.24803 c -0.425197,0.46063 -0.602362,0.99213 -0.602362,1.59449 0,0.60236 0.248031,1.09842 0.673228,1.48819 l 49.074801,46.55905 c 0.46063,0.38977 0.992126,0.60236 1.559055,0.60236 0.637795,-0.0354 1.133858,-0.28346 1.559055,-0.70866 z"
         style="fill:none;stroke:#d40247;stroke-width:4.42913389px;stroke-linecap:butt;stroke-linejoin:miter;stroke-miterlimit:4;stroke-opacity:1;stroke-dasharray:none"
         inkscape:connector-curvature="0" />
      <path
         id="path4902"
         d="m 81.85039,169.08661 c 0.602362,-0.0354 1.098425,-0.28346 1.523622,-0.70866 l 0.248032,-0.28346 c 0.425196,-0.46063 0.637795,-0.9567 0.602362,-1.55906 0,-0.60236 -0.248032,-1.09842 -0.673229,-1.52362 L 34.440943,118.45276 c -0.425196,-0.38977 -0.921259,-0.56693 -1.523622,-0.56693 -0.602362,0.0354 -1.133858,0.24803 -1.559055,0.70866 l -0.248031,0.24803 c -0.425197,0.46063 -0.602362,0.99213 -0.602362,1.59449 0,0.60236 0.248031,1.09842 0.673228,1.48819 l 49.074801,46.55905 c 0.46063,0.38977 0.992126,0.60236 1.594488,0.60236"
         style="fill:#d4074c;fill-opacity:1;fill-rule:nonzero;stroke:none"
         inkscape:connector-curvature="0" />
      <path
         id="path4904"
         d="m 83.374012,168.37795 0.248032,-0.28346 c 0.425196,-0.46063 0.637795,-0.9567 0.602362,-1.55906 0,-0.60236 -0.248032,-1.09842 -0.673229,-1.52362 L 34.440943,118.45276 c -0.425196,-0.38977 -0.921259,-0.56693 -1.523622,-0.56693 -0.602362,0.0354 -1.133858,0.24803 -1.559055,0.70866 l -0.248031,0.24803 c -0.425197,0.46063 -0.602362,0.99213 -0.602362,1.59449 0,0.60236 0.248031,1.09842 0.673228,1.48819 l 49.074801,46.55905 c 0.46063,0.38977 0.992126,0.60236 1.559055,0.60236 0.637795,-0.0354 1.133858,-0.28346 1.559055,-0.70866 z"
         style="fill:none;stroke:#d4074c;stroke-width:2.30314946px;stroke-linecap:butt;stroke-linejoin:miter;stroke-miterlimit:4;stroke-opacity:1;stroke-dasharray:none"
         inkscape:connector-curvature="0" />
      <path
         id="path4906"
         d="m 53.893698,136.91339 -2.232283,-2.12599 -0.92126,5.66929 2.196851,2.12599 z"
         style="fill:#d4074c;fill-opacity:1;fill-rule:nonzero;stroke:none"
         inkscape:connector-curvature="0" />
      <path
         id="path4908"
         d="m 50.740155,140.45669 0.92126,-5.66929 2.232283,2.12599 -0.956692,5.66929 z"
         style="fill:none;stroke:#d4074c;stroke-width:2.30314946px;stroke-linecap:butt;stroke-linejoin:miter;stroke-miterlimit:4;stroke-opacity:1;stroke-dasharray:none"
         inkscape:connector-curvature="0" />
      <path
         id="path4910"
         d="m 68.244092,157.03937 6.307086,-0.56693 -2.444882,-2.33858 -6.342519,0.56693 z"
         style="fill:#d4074c;fill-opacity:1;fill-rule:nonzero;stroke:none"
         inkscape:connector-curvature="0" />
      <path
         id="path4912"
         d="m 72.106296,154.13386 2.444882,2.33858 -6.307086,0.56693 -2.480315,-2.33858 z"
         style="fill:none;stroke:#d4074c;stroke-width:2.30314946px;stroke-linecap:butt;stroke-linejoin:miter;stroke-miterlimit:4;stroke-opacity:1;stroke-dasharray:none"
         inkscape:connector-curvature="0" />
      <path
         id="path4914"
         d="m 66.118107,148.46457 -2.232283,-2.09055 -0.956693,5.63385 2.19685,2.12599 z"
         style="fill:#d4074c;fill-opacity:1;fill-rule:nonzero;stroke:none"
         inkscape:connector-curvature="0" />
      <path
         id="path4916"
         d="m 62.929131,152.00787 0.956693,-5.63385 2.232283,2.09055 -0.992126,5.66929 z"
         style="fill:none;stroke:#d4074c;stroke-width:2.30314946px;stroke-linecap:butt;stroke-linejoin:miter;stroke-miterlimit:4;stroke-opacity:1;stroke-dasharray:none"
         inkscape:connector-curvature="0" />
      <path
         id="path4918"
         d="m 60.236218,142.86614 -6.34252,0.60236 2.444882,2.33859 6.34252,-0.60237 z"
         style="fill:#d4074c;fill-opacity:1;fill-rule:nonzero;stroke:none"
         inkscape:connector-curvature="0" />
      <path
         id="path4920"
         d="m 56.33858,145.80709 -2.444882,-2.33859 6.34252,-0.60236 2.444882,2.33858 z"
         style="fill:none;stroke:#d4074c;stroke-width:2.30314946px;stroke-linecap:butt;stroke-linejoin:miter;stroke-miterlimit:4;stroke-opacity:1;stroke-dasharray:none"
         inkscape:connector-curvature="0" />
      <path
         id="path4922"
         d="m 44.114171,134.18504 6.34252,-0.5315 -2.444882,-2.33858 -6.342519,0.5315 z"
         style="fill:#d4074c;fill-opacity:1;fill-rule:nonzero;stroke:none"
         inkscape:connector-curvature="0" />
      <path
         id="path4924"
         d="m 48.011809,131.31496 2.444882,2.33858 -6.34252,0.5315 -2.444881,-2.33858 z"
         style="fill:none;stroke:#d4074c;stroke-width:2.30314946px;stroke-linecap:butt;stroke-linejoin:miter;stroke-miterlimit:4;stroke-opacity:1;stroke-dasharray:none"
         inkscape:connector-curvature="0" />
      <path
         id="path4926"
         d="m 38.834644,122.63386 -0.92126,5.66929 2.19685,2.12598 0.992126,-5.70472 z"
         style="fill:#d4074c;fill-opacity:1;fill-rule:nonzero;stroke:none"
         inkscape:connector-curvature="0" />
      <path
         id="path4928"
         d="m 40.110234,130.42913 -2.19685,-2.12598 0.92126,-5.66929 2.267716,2.09055 z"
         style="fill:none;stroke:#d4074c;stroke-width:2.30314946px;stroke-linecap:butt;stroke-linejoin:miter;stroke-miterlimit:4;stroke-opacity:1;stroke-dasharray:none"
         inkscape:connector-curvature="0" />
      <path
         id="path4930"
         d="m 81.85039,169.08661 c 0.602362,-0.0354 1.098425,-0.28346 1.523622,-0.70866 l 0.248032,-0.28346 c 0.425196,-0.46063 0.637795,-0.9567 0.602362,-1.55906 0,-0.60236 -0.248032,-1.09842 -0.673229,-1.52362 L 34.440943,118.45276 c -0.425196,-0.38977 -0.921259,-0.56693 -1.523622,-0.56693 -0.602362,0.0354 -1.133858,0.24803 -1.559055,0.70866 l -0.248031,0.24803 c -0.425197,0.46063 -0.602362,0.99213 -0.602362,1.59449 0,0.60236 0.248031,1.09842 0.673228,1.48819 l 49.074801,46.55905 c 0.46063,0.38977 0.992126,0.60236 1.594488,0.60236"
         style="fill:#84539c;fill-opacity:1;fill-rule:nonzero;stroke:none"
         inkscape:connector-curvature="0" />
      <path
         id="path4932"
         d="m 53.893698,136.91339 -2.232283,-2.12599 -0.92126,5.66929 2.196851,2.12599 z"
         style="fill:#e97ca0;fill-opacity:1;fill-rule:nonzero;stroke:none"
         inkscape:connector-curvature="0" />
      <path
         id="path4934"
         d="m 68.244092,157.03937 6.307086,-0.56693 -2.444882,-2.33858 -6.342519,0.56693 z"
         style="fill:#6bc4ee;fill-opacity:1;fill-rule:nonzero;stroke:none"
         inkscape:connector-curvature="0" />
      <path
         id="path4936"
         d="m 66.118107,148.46457 -2.232283,-2.09055 -0.956693,5.63385 2.19685,2.12599 z"
         style="fill:#e97ca0;fill-opacity:1;fill-rule:nonzero;stroke:none"
         inkscape:connector-curvature="0" />
      <path
         id="path4938"
         d="m 60.236218,142.86614 -6.34252,0.60236 2.444882,2.33859 6.34252,-0.60237 z"
         style="fill:#6bc4ee;fill-opacity:1;fill-rule:nonzero;stroke:none"
         inkscape:connector-curvature="0" />
      <path
         id="path4940"
         d="m 44.114171,134.18504 6.34252,-0.5315 -2.444882,-2.33858 -6.342519,0.5315 z"
         style="fill:#6bc4ee;fill-opacity:1;fill-rule:nonzero;stroke:none"
         inkscape:connector-curvature="0" />
      <path
         id="path4942"
         d="m 38.834644,122.63386 -0.92126,5.66929 2.19685,2.12598 0.992126,-5.70472 z"
         style="fill:#e97ca0;fill-opacity:1;fill-rule:nonzero;stroke:none"
         inkscape:connector-curvature="0" />
      <path
         id="path4944"
         d="m 96.62598,173.69291 c -0.141732,-1.02756 -0.814961,-1.70078 -1.984252,-2.09055 -1.204724,-0.35433 -2.940945,-0.70866 -5.208661,-0.95669 -2.267716,-0.49606 -4.535433,-1.59449 -6.838582,-3.29528 l 0.03543,0.0709 c 1.877952,2.12598 3.57874,3.89764 5.137795,5.27953 2.905511,2.58661 5.350393,3.61417 7.299212,3.08267 1.240157,-0.31889 1.771653,-1.02756 1.559055,-2.09055"
         style="fill:#f0d5e6;fill-opacity:1;fill-rule:nonzero;stroke:none"
         inkscape:connector-curvature="0" />
      <path
         id="path4946"
         d="m 70.724406,163.31102 c 2.232284,0.35433 4.216536,0.77953 5.917323,1.24016 1.700787,0.46063 3.720472,1.41732 6.059055,2.94095 -0.212599,-0.77953 -1.913386,-2.55119 -5.102362,-5.27953 -2.905512,-2.58662 -5.350394,-3.61418 -7.299212,-3.11811 -1.240158,0.35433 -1.771654,1.06299 -1.594489,2.12598 0.177166,0.99213 0.850394,1.70079 2.019685,2.09055"
         style="fill:#f0d5e6;fill-opacity:1;fill-rule:nonzero;stroke:none"
         inkscape:connector-curvature="0" />
      <path
         id="path4948"
         d="m 97.866137,169.93701 c -0.460629,-0.92126 -1.311023,-1.41733 -2.515747,-1.52362 -1.240158,-0.0354 -3.011811,0.0709 -5.314961,0.38976 -2.303149,0.1063 -4.783464,-0.35433 -7.511811,-1.45276 l 0.1063,0.0709 c 2.338582,1.59449 4.429133,2.83464 6.271653,3.79134 3.507874,1.73622 6.129921,2.12598 7.866141,1.13386 1.133859,-0.6378 1.488189,-1.45276 1.098425,-2.40945"
         style="fill:#f0d5e6;fill-opacity:1;fill-rule:nonzero;stroke:none"
         inkscape:connector-curvature="0" />
      <path
         id="path4950"
         d="m 96.62598,173.69291 c -0.141732,-1.02756 -0.814961,-1.70078 -1.984252,-2.09055 -1.204724,-0.35433 -2.940945,-0.70866 -5.208661,-0.95669 -2.267716,-0.49606 -4.535433,-1.59449 -6.838582,-3.29528 l 0.03543,0.0709 c 1.665354,2.12598 3.649606,4.1811 5.988188,6.20079 2.338583,1.94882 4.5,2.69291 6.448819,2.16141 1.240157,-0.31889 1.771653,-1.02756 1.559055,-2.09055"
         style="fill:#6bc4ee;fill-opacity:1;fill-rule:nonzero;stroke:none"
         inkscape:connector-curvature="0" />
      <path
         id="path4952"
         d="m 97.866137,169.93701 c -0.460629,-0.92126 -1.311023,-1.41733 -2.515747,-1.52362 -1.240158,-0.0354 -3.011811,0.0709 -5.314961,0.38976 -2.303149,0.1063 -4.783464,-0.35433 -7.511811,-1.45276 l 0.1063,0.0709 c 2.338582,1.59449 4.429133,2.83464 6.271653,3.79134 3.507874,1.73622 6.129921,2.12598 7.866141,1.13386 1.133859,-0.6378 1.488189,-1.45276 1.098425,-2.40945"
         style="fill:#eddd00;fill-opacity:1;fill-rule:nonzero;stroke:none"
         inkscape:connector-curvature="0" />
      <path
         id="path4954"
         d="m 76.429131,163.70079 c -3.507874,-1.73622 -6.129921,-2.12599 -7.866142,-1.13386 -1.133858,0.63779 -1.488189,1.45275 -1.062992,2.37401 0.46063,0.9567 1.275591,1.45276 2.515748,1.52363 2.267716,-0.17717 4.03937,-0.3189 5.31496,-0.38977 2.267717,-0.0709 4.712599,0.38977 7.370079,1.41733 -0.496063,-0.49607 -2.586614,-1.77166 -6.271653,-3.79134"
         style="fill:#eddd00;fill-opacity:1;fill-rule:nonzero;stroke:none"
         inkscape:connector-curvature="0" />
      <path
         id="path4956"
         d="m 98.043303,166.03937 c -0.637795,-0.77953 -1.594488,-1.06299 -2.799213,-0.81496 -1.240157,0.24803 -2.940944,0.85039 -5.066929,1.73622 -2.161417,0.63779 -4.677165,0.81496 -7.547243,0.46063 2.692913,0.95669 5.066929,1.62992 7.086614,2.09055 3.826771,0.81496 6.484251,0.5315 7.937007,-0.88583 0.956693,-0.88582 1.062992,-1.77165 0.389764,-2.58661"
         style="fill:#f0d5e6;fill-opacity:1;fill-rule:nonzero;stroke:none"
         inkscape:connector-curvature="0" />
      <path
         id="path4958"
         d="m 70.086611,169.65354 c 2.161417,-0.74409 4.110236,-1.34645 5.811024,-1.77165 1.73622,-0.4252 4.039369,-0.56693 6.944881,-0.38976 l -0.141732,-0.0354 c -0.531496,-0.3189 -2.870079,-1.02756 -7.015748,-2.05512 -3.826771,-0.81496 -6.484252,-0.56692 -7.972441,0.8504 -0.956692,0.92126 -1.062992,1.77165 -0.389763,2.58661 0.637795,0.81496 1.594488,1.06299 2.763779,0.81496"
         style="fill:#6bc4ee;fill-opacity:1;fill-rule:nonzero;stroke:none"
         inkscape:connector-curvature="0" />
      <path
         id="path4960"
         d="m 97.54724,164.83465 c 0.673228,-1.13386 0.566929,-1.98426 -0.283465,-2.62205 -0.81496,-0.60236 -1.807086,-0.6378 -2.905511,-0.0709 -1.133859,0.56693 -2.657481,1.52362 -4.5,2.90551 -1.984252,1.20473 -4.429134,2.01969 -7.334646,2.40945 l 0.1063,0 c 2.834645,0.2126 5.31496,0.28347 7.370078,0.2126 3.968504,-0.17716 6.484252,-1.13386 7.547244,-2.83464"
         style="fill:#f0d5e6;fill-opacity:1;fill-rule:nonzero;stroke:none"
         inkscape:connector-curvature="0" />
      <path
         id="path4962"
         d="m 98.043303,166.03937 c -0.637795,-0.77953 -1.594488,-1.06299 -2.799213,-0.81496 -1.240157,0.24803 -2.940944,0.85039 -5.066929,1.73622 -2.161417,0.63779 -4.677165,0.81496 -7.547243,0.46063 2.692913,0.95669 5.066929,1.62992 7.086614,2.09055 3.826771,0.81496 6.484251,0.5315 7.937007,-0.88583 0.956693,-0.88582 1.062992,-1.77165 0.389764,-2.58661"
         style="fill:#f0d5e6;fill-opacity:1;fill-rule:nonzero;stroke:none"
         inkscape:connector-curvature="0" />
      <path
         id="path4964"
         d="m 97.54724,164.83465 c 0.673228,-1.13386 0.566929,-1.98426 -0.283465,-2.62205 -0.81496,-0.60236 -1.807086,-0.6378 -2.905511,-0.0709 -1.133859,0.56693 -2.692914,1.52362 -4.677166,2.94095 -1.842519,1.06299 -4.251968,1.87795 -7.15748,2.37401 l 0.1063,0 c 2.834645,0.2126 5.31496,0.28347 7.370078,0.2126 3.968504,-0.17716 6.484252,-1.13386 7.547244,-2.83464"
         style="fill:#6bc4ee;fill-opacity:1;fill-rule:nonzero;stroke:none"
         inkscape:connector-curvature="0" />
      <path
         id="path4966"
         d="m 82.842516,167.45669 -0.141732,0 c -0.779528,0 -3.224409,-0.0709 -7.370079,-0.2126 -3.93307,0.14174 -6.413385,1.09843 -7.51181,2.83465 -0.673229,1.09842 -0.602362,1.98425 0.283464,2.58661 0.814961,0.60237 1.771654,0.6378 2.905512,0.1063 1.913386,-1.31102 3.437008,-2.26771 4.5,-2.94094 1.984252,-1.20473 4.429133,-2.01969 7.334645,-2.37402"
         style="fill:#eddd00;fill-opacity:1;fill-rule:nonzero;stroke:none"
         inkscape:connector-curvature="0" />
      <path
         id="path4968"
         d="m 88.901571,163.16929 c -1.523622,1.66536 -3.614173,3.08268 -6.271653,4.2874 2.834645,-0.56693 5.208661,-1.20472 7.192913,-1.84252 3.720472,-1.31102 5.881889,-2.90551 6.448818,-4.81889 0.354331,-1.2756 0.03543,-2.09056 -0.956692,-2.44489 -0.992126,-0.31889 -1.948819,-0.0709 -2.834646,0.77953 -0.956693,0.81496 -2.161417,2.16142 -3.57874,4.03937"
         style="fill:#f0d5e6;fill-opacity:1;fill-rule:nonzero;stroke:none"
         inkscape:connector-curvature="0" />
      <path
         id="path4970"
         d="m 70.051178,176.52756 c 0.956693,0.35433 1.913386,0.1063 2.834646,-0.70866 1.488189,-1.77166 2.692913,-3.11811 3.543307,-4.07481 1.559055,-1.66535 3.614173,-3.11811 6.271653,-4.2874 -1.346457,0.0354 -3.720472,0.67323 -7.192913,1.87796 -3.755906,1.27559 -5.88189,2.87007 -6.413386,4.78346 -0.35433,1.27559 -0.03543,2.09055 0.956693,2.40945"
         style="fill:#f0d5e6;fill-opacity:1;fill-rule:nonzero;stroke:none"
         inkscape:connector-curvature="0" />
      <path
         id="path4972"
         d="m 82.523618,167.56299 0.1063,-0.0709 c 2.586614,-1.2756 4.783464,-2.48032 6.519684,-3.64961 3.330709,-2.16142 5.031496,-4.25197 5.066929,-6.27165 0.03543,-1.27559 -0.496063,-1.98426 -1.559055,-2.05512 -1.027559,-0.0709 -1.877952,0.38976 -2.586614,1.41732 -0.708661,1.09843 -1.488189,2.65748 -2.409448,4.8189 -1.098426,2.05512 -2.799213,3.9685 -5.137796,5.81102"
         style="fill:#f0d5e6;fill-opacity:1;fill-rule:nonzero;stroke:none"
         inkscape:connector-curvature="0" />
      <path
         id="path4974"
         d="m 88.901571,163.16929 c -1.523622,1.66536 -3.614173,3.08268 -6.271653,4.2874 2.834645,-0.56693 5.208661,-1.20472 7.192913,-1.84252 3.720472,-1.31102 5.881889,-2.90551 6.448818,-4.81889 0.354331,-1.2756 0.03543,-2.09056 -0.956692,-2.44489 -0.992126,-0.31889 -1.948819,-0.0709 -2.834646,0.77953 -0.956693,0.81496 -2.161417,2.16142 -3.57874,4.03937"
         style="fill:#f0d5e6;fill-opacity:1;fill-rule:nonzero;stroke:none"
         inkscape:connector-curvature="0" />
      <path
         id="path4976"
         d="m 82.523618,167.56299 0.1063,-0.0709 c 2.586614,-1.2756 4.783464,-2.48032 6.519684,-3.64961 3.330709,-2.16142 5.031496,-4.25197 5.066929,-6.27165 0.03543,-1.27559 -0.496063,-1.98426 -1.559055,-2.05512 -1.027559,-0.0709 -1.877952,0.38976 -2.586614,1.41732 -0.708661,1.09843 -1.488189,2.65748 -2.409448,4.8189 -1.098426,2.05512 -2.799213,3.9685 -5.137796,5.81102"
         style="fill:#eddd00;fill-opacity:1;fill-rule:nonzero;stroke:none"
         inkscape:connector-curvature="0" />
      <path
         id="path4978"
         d="m 72.708658,179.39764 c 0.992126,0.0709 1.877953,-0.38977 2.586614,-1.41733 0.992126,-2.09055 1.807087,-3.68503 2.409449,-4.81889 1.098425,-2.05512 2.799213,-3.96851 5.137795,-5.81103 l -0.106299,0.0709 c -0.673228,0.24803 -2.834646,1.45276 -6.519685,3.61417 -3.330708,2.19685 -5.031496,4.2874 -5.066929,6.27166 -0.03543,1.31102 0.496063,2.01968 1.559055,2.09055"
         style="fill:#eddd00;fill-opacity:1;fill-rule:nonzero;stroke:none"
         inkscape:connector-curvature="0" />
      <path
         id="path4980"
         d="m 82.559052,167.56299 0.07087,-0.0709 c 2.232283,-1.87796 4.03937,-3.57874 5.421259,-5.10237 2.728347,-2.94094 3.862205,-5.38582 3.366142,-7.33464 -0.283465,-1.27559 -0.956693,-1.80709 -1.984252,-1.62992 -1.027559,0.21259 -1.73622,0.88582 -2.161417,2.01968 -0.425197,1.20473 -0.814961,2.97638 -1.169292,5.27953 -0.566929,2.23228 -1.73622,4.5 -3.543306,6.83858"
         style="fill:#f0d5e6;fill-opacity:1;fill-rule:nonzero;stroke:none"
         inkscape:connector-curvature="0" />
      <path
         id="path4982"
         d="m 78.094485,179.43307 c 0.46063,-2.23228 0.850393,-3.9685 1.169291,-5.20866 0.531496,-2.23228 1.700787,-4.53543 3.543307,-6.90945 l -0.106299,0.1063 c -0.602362,0.3189 -2.444882,2.01968 -5.42126,5.13779 -2.692913,2.90552 -3.826771,5.3504 -3.366141,7.26378 0.283464,1.27559 0.956693,1.80709 2.019685,1.59449 1.027559,-0.14173 1.771653,-0.81496 2.161417,-1.98425"
         style="fill:#6bc4ee;fill-opacity:1;fill-rule:nonzero;stroke:none"
         inkscape:connector-curvature="0" />
      <path
         id="path4984"
         d="m 82.629918,167.49213 c 1.665354,-2.37402 3.011811,-4.46457 4.03937,-6.27166 1.877952,-3.54331 2.338582,-6.16535 1.417322,-7.90157 -0.602362,-1.16929 -1.417322,-1.52362 -2.374015,-1.06299 -0.956693,0.42519 -1.452756,1.27559 -1.594488,2.51574 -0.1063,1.27559 -0.03543,3.04725 0.177165,5.31496 0.03543,2.26772 -0.531496,4.74804 -1.665354,7.40552"
         style="fill:#f0d5e6;fill-opacity:1;fill-rule:nonzero;stroke:none"
         inkscape:connector-curvature="0" />
      <path
         id="path4986"
         d="m 82.559052,167.56299 0.07087,-0.0709 c 2.232283,-1.87796 4.03937,-3.57874 5.421259,-5.10237 2.728347,-2.94094 3.862205,-5.38582 3.366142,-7.33464 -0.283465,-1.27559 -0.956693,-1.80709 -1.984252,-1.62992 -1.027559,0.21259 -1.73622,0.88582 -2.161417,2.01968 -0.425197,1.20473 -0.814961,2.97638 -1.169292,5.27953 -0.566929,2.23228 -1.73622,4.5 -3.543306,6.83858"
         style="fill:#f0d5e6;fill-opacity:1;fill-rule:nonzero;stroke:none"
         inkscape:connector-curvature="0" />
      <path
         id="path4988"
         d="m 84.118107,154.77165 c -0.1063,1.27559 -0.03543,3.04725 0.177165,5.31496 -0.03543,2.26772 -0.602362,4.74804 -1.665354,7.40552 1.665354,-2.37402 3.011811,-4.46457 4.03937,-6.27166 1.877952,-3.54331 2.338582,-6.16535 1.417322,-7.90157 -0.602362,-1.16929 -1.417322,-1.52362 -2.374015,-1.06299 -0.956693,0.42519 -1.488189,1.27559 -1.594488,2.51574"
         style="fill:#6bc4ee;fill-opacity:1;fill-rule:nonzero;stroke:none"
         inkscape:connector-curvature="0" />
      <path
         id="path4990"
         d="m 81.212595,180.14173 c -0.106299,-2.26771 -0.141732,-4.03937 -0.177165,-5.31496 0,-2.26772 0.566929,-4.78346 1.73622,-7.51181 l -0.07087,0.1063 c -0.602362,0.5315 -1.948819,2.65748 -4.003937,6.27165 -1.877953,3.50788 -2.338583,6.16536 -1.417323,7.90158 0.602362,1.13386 1.417323,1.48819 2.374016,1.02756 0.92126,-0.4252 1.452756,-1.27559 1.559055,-2.48032"
         style="fill:#eddd00;fill-opacity:1;fill-rule:nonzero;stroke:none"
         inkscape:connector-curvature="0" />
      <path
         id="path4992"
         d="m 82.629918,167.59842 0.03543,-0.10629 c 0.992126,-2.69292 1.700787,-5.06693 2.161417,-7.12205 0.885827,-3.86221 0.637795,-6.48425 -0.744094,-7.93701 -0.885827,-0.92126 -1.736221,-1.06299 -2.551181,-0.35433 -0.814961,0.67323 -1.133859,1.62992 -0.885827,2.83465 0.212598,1.20472 0.779527,2.90551 1.629921,5.06692 0.637795,2.16142 0.744094,4.7126 0.354331,7.61811"
         style="fill:#f0d5e6;fill-opacity:1;fill-rule:nonzero;stroke:none"
         inkscape:connector-curvature="0" />
      <path
         id="path4994"
         d="m 84.720469,180 c -0.744095,-2.16142 -1.311024,-3.82677 -1.665354,-5.0315 -0.602363,-2.19685 -0.708662,-4.7126 -0.354331,-7.54724 -0.425197,0.60236 -1.169291,2.97638 -2.19685,7.08661 -0.885827,3.86221 -0.602363,6.51969 0.744094,7.93701 0.92126,0.95669 1.771653,1.06299 2.586614,0.35433 0.779528,-0.67323 1.062992,-1.59449 0.885827,-2.79921"
         style="fill:#f0d5e6;fill-opacity:1;fill-rule:nonzero;stroke:none"
         inkscape:connector-curvature="0" />
      <path
         id="path4996"
         d="m 82.665351,167.59842 0,-0.10629 c 0.283464,-2.83465 0.389764,-5.31497 0.318897,-7.40552 -0.106299,-3.93307 -0.992126,-6.41338 -2.692913,-7.44094 -1.133858,-0.67323 -1.984252,-0.56693 -2.622047,0.3189 -0.602362,0.81496 -0.637795,1.80708 -0.141732,2.90551 0.566929,1.13386 1.488189,2.62205 2.870078,4.46457 1.169292,1.94881 1.913386,4.35826 2.267717,7.26377"
         style="fill:#f0d5e6;fill-opacity:1;fill-rule:nonzero;stroke:none"
         inkscape:connector-curvature="0" />
      <path
         id="path4998"
         d="m 82.629918,167.59842 0.03543,-0.10629 c 0.992126,-2.69292 1.700787,-5.06693 2.161417,-7.12205 0.885827,-3.86221 0.637795,-6.48425 -0.744094,-7.93701 -0.885827,-0.92126 -1.736221,-1.06299 -2.551181,-0.35433 -0.814961,0.67323 -1.133859,1.62992 -0.885827,2.83465 0.212598,1.20472 0.779527,2.90551 1.629921,5.06692 0.637795,2.16142 0.744094,4.7126 0.354331,7.61811"
         style="fill:#eddd00;fill-opacity:1;fill-rule:nonzero;stroke:none"
         inkscape:connector-curvature="0" />
      <path
         id="path5000"
         d="m 82.665351,167.59842 0,-0.10629 c 0.283464,-2.83465 0.389764,-5.31497 0.318897,-7.40552 -0.106299,-3.93307 -0.992126,-6.41338 -2.692913,-7.44094 -1.133858,-0.67323 -1.984252,-0.56693 -2.622047,0.3189 -0.602362,0.81496 -0.637795,1.80708 -0.141732,2.90551 0.566929,1.13386 1.488189,2.62205 2.870078,4.46457 1.169292,1.94881 1.913386,4.35826 2.267717,7.26377"
         style="fill:#f0d5e6;fill-opacity:1;fill-rule:nonzero;stroke:none"
         inkscape:connector-curvature="0" />
      <path
         id="path5002"
         d="m 87.803146,179.00787 c -1.240158,-1.87795 -2.19685,-3.36614 -2.834646,-4.42913 -1.169291,-1.98425 -1.913385,-4.3937 -2.267716,-7.29921 l -0.03543,0.1063 c -0.141733,0.70866 -0.248032,3.18897 -0.283465,7.40551 0.106299,3.9685 1.027559,6.44882 2.692913,7.47638 1.098426,0.67322 1.984252,0.56693 2.622048,-0.3189 0.602362,-0.81496 0.637795,-1.80709 0.106299,-2.94095"
         style="fill:#6bc4ee;fill-opacity:1;fill-rule:nonzero;stroke:none"
         inkscape:connector-curvature="0" />
      <path
         id="path5004"
         d="m 78.661414,161.14961 c 1.629921,1.55905 2.940945,3.6496 3.968504,6.34252 -0.389764,-2.83465 -0.885827,-5.20867 -1.488189,-7.19292 -1.098425,-3.79134 -2.586614,-5.95275 -4.5,-6.51968 -1.240157,-0.35433 -2.055118,-0.0354 -2.444882,0.95669 -0.389764,0.95669 -0.177165,1.91339 0.602362,2.83465 0.779528,0.95669 2.090551,2.16141 3.862205,3.57874"
         style="fill:#f0d5e6;fill-opacity:1;fill-rule:nonzero;stroke:none"
         inkscape:connector-curvature="0" />
      <path
         id="path5006"
         d="m 84.188973,174.61417 c 1.133858,3.79134 2.622047,5.91733 4.535433,6.51969 1.204724,0.35433 2.055118,0.0354 2.444881,-0.9567 0.389764,-0.95669 0.177166,-1.91338 -0.602362,-2.83464 -1.700787,-1.52362 -3.011811,-2.69291 -3.897637,-3.57874 -1.629922,-1.59449 -2.976378,-3.75591 -4.003937,-6.44882 l 0,0.0709 c 0.07087,0.74409 0.566929,3.18897 1.523622,7.22834"
         style="fill:#eddd00;fill-opacity:1;fill-rule:nonzero;stroke:none"
         inkscape:connector-curvature="0" />
      <path
         id="path5008"
         d="m 82.77165,167.59842 -0.07087,-0.10629 c -1.133858,-2.62205 -2.232284,-4.78347 -3.295276,-6.55512 -2.019685,-3.33071 -4.03937,-5.06693 -6.023621,-5.1378 -1.311024,-0.0354 -2.055118,0.46063 -2.196851,1.52362 -0.106299,1.02756 0.354331,1.91339 1.346457,2.62205 2.019685,0.99213 3.57874,1.84252 4.677165,2.48032 1.984252,1.09842 3.826772,2.83464 5.562992,5.17322"
         style="fill:#f0d5e6;fill-opacity:1;fill-rule:nonzero;stroke:none"
         inkscape:connector-curvature="0" />
      <path
         id="path5010"
         d="m 80.787398,158.95276 c -0.850394,-2.90552 -2.232283,-4.6063 -4.145669,-5.17323 -1.240157,-0.35433 -2.055118,-0.0354 -2.444882,0.95669 -0.389764,0.95669 -0.177165,1.91339 0.602362,2.83465 0.779528,0.95669 2.090551,2.16141 3.897638,3.57874 1.594488,1.55905 2.905512,3.6496 3.933071,6.34252 -0.354331,-2.79922 -0.956693,-5.63386 -1.84252,-8.53937"
         style="fill:#6bc4ee;fill-opacity:1;fill-rule:nonzero;stroke:none"
         inkscape:connector-curvature="0" />
      <path
         id="path5012"
         d="m 82.77165,167.59842 -0.07087,-0.10629 c -1.133858,-2.62205 -2.232284,-4.78347 -3.295276,-6.55512 -2.019685,-3.33071 -4.03937,-5.06693 -6.023621,-5.1378 -1.311024,-0.0354 -2.055118,0.46063 -2.196851,1.52362 -0.106299,1.02756 0.354331,1.91339 1.346457,2.62205 2.019685,0.99213 3.57874,1.84252 4.677165,2.48032 1.984252,1.09842 3.826772,2.83464 5.562992,5.17322"
         style="fill:#eddd00;fill-opacity:1;fill-rule:nonzero;stroke:none"
         inkscape:connector-curvature="0" />
      <path
         id="path5014"
         d="m 85.960626,173.97638 c 2.019685,3.33071 4.03937,5.06693 6.059055,5.13779 1.275591,0.0354 1.984252,-0.49606 2.125984,-1.52362 0.106299,-1.06299 -0.318897,-1.91339 -1.311023,-2.62205 -1.027559,-0.70866 -2.586614,-1.52362 -4.677165,-2.44488 -1.984252,-1.13386 -3.826772,-2.87008 -5.527559,-5.20866 l 0.03543,0.0709 c 0.212598,0.74409 1.311023,2.94094 3.295275,6.59055"
         style="fill:#f0d5e6;fill-opacity:1;fill-rule:nonzero;stroke:none"
         inkscape:connector-curvature="0" />
      <path
         id="path5016"
         d="m 78.767713,107.29134 c 3.755905,1.02756 5.208661,3.50787 4.429134,7.44094 -12.153543,4.85433 -22.748031,11.51575 -31.74803,20.01969 -2.019685,-2.40945 -3.295276,-5.10236 -3.862205,-8.07874 9.318897,-8.82284 19.700787,-15.27166 31.181101,-19.38189"
         style="fill:#e27c9f;fill-opacity:1;fill-rule:nonzero;stroke:none"
         inkscape:connector-curvature="0" />
      <path
         id="path5018"
         d="m 47.586612,126.67323 c 9.318897,-8.82284 19.700787,-15.27166 31.181101,-19.38189 3.755905,1.02756 5.208661,3.50787 4.429134,7.44094 -12.153543,4.85433 -22.748031,11.51575 -31.74803,19.98425"
         style="fill:none;stroke:#c4084a;stroke-width:2.37401557px;stroke-linecap:round;stroke-linejoin:round;stroke-opacity:1;stroke-dasharray:none"
         inkscape:connector-curvature="0" />
      <path
         id="path5020"
         d="m 48.36614,148.35827 c -1.133859,-0.35433 -2.125985,-1.16929 -2.905512,-2.51575 -2.905512,0.24803 -4.925197,-1.80709 -6.129921,-6.09449 -2.338583,-2.19685 -3.330709,-4.6063 -2.940945,-7.26378 0.212599,-1.87795 2.055118,-4.25197 5.527559,-7.12205 1.984252,-1.34645 4.393701,-1.84252 7.15748,-1.41732 l -0.566929,1.98425 c -2.374016,-0.14173 -4.216535,0.35433 -5.492126,1.48819 -2.551181,1.91339 -3.968504,3.72047 -4.145669,5.42126 -0.177165,1.91339 0.602362,3.68504 2.409449,5.27953 l 0.248031,0.24803 0.141733,0.35433 c 0.850393,3.22441 2.232283,4.7126 4.216535,4.46457 l 0.992126,-0.0354 0.389763,0.74409 c 0.531497,1.06299 1.169292,1.73622 1.877953,2.01969 0.496063,0.21259 1.275591,0.17716 2.30315,-0.1063 -0.850394,-4.14567 0.318897,-7.72441 3.57874,-10.70079 l 0.566929,-0.49606 0.779527,0.67322 c -0.141732,0.17717 -0.283464,0.38977 -0.389763,0.60237 -2.940945,5.20866 -3.543307,8.7874 -1.807087,10.77165 l -1.169291,0.92126 c -1.771654,0.95669 -3.330709,1.20472 -4.641732,0.77953"
         style="fill:#c4084a;fill-opacity:1;fill-rule:nonzero;stroke:none"
         inkscape:connector-curvature="0" />
      <path
         id="path5022"
         d="m 51.448817,145.80709 c -1.027559,0.28346 -1.807087,0.31889 -2.30315,0.1063 -0.708661,-0.28347 -1.346456,-0.9567 -1.877953,-2.01969 l -0.389763,-0.74409 -0.992126,0.0354 c -1.984252,0.28346 -3.366142,-1.24016 -4.216535,-4.46457 l -0.141733,-0.35433 -0.248031,-0.24803 c -1.807087,-1.59449 -2.586614,-3.36614 -2.409449,-5.27953 0.177165,-1.70079 1.594488,-3.50787 4.145669,-5.42126 1.275591,-1.13386 3.11811,-1.62992 5.492126,-1.48819 1.807086,0.3189 2.692913,0.99213 2.692913,2.05512 l 4.287402,2.72835 c 1.452755,0.81496 2.267716,2.12598 2.444881,3.89764 -0.03543,0.92126 -0.35433,1.70078 -0.850393,2.33858 L 55.98425,135.8858 c 0.106299,-0.2126 0.248031,-0.4252 0.389763,-0.60237 l -0.779527,-0.67322 -0.566929,0.49606 c -3.259843,2.97638 -4.429134,6.55512 -3.57874,10.70079"
         style="fill:#e27c9f;fill-opacity:1;fill-rule:nonzero;stroke:none"
         inkscape:connector-curvature="0" />
      <path
         id="path5024"
         d="m 59.244092,138.57874 c 0,0 -0.03543,0.1063 -0.141732,0.24803 l -2.019685,-1.87795 c 0.496063,-0.6378 0.81496,-1.41732 0.850393,-2.33858 -0.177165,-1.77166 -0.992126,-3.08268 -2.444881,-3.89764 l 1.381889,-1.24016 c 3.543307,2.33858 4.358268,5.35039 2.374016,9.1063"
         style="fill:#c4084a;fill-opacity:1;fill-rule:nonzero;stroke:none"
         inkscape:connector-curvature="0" />
      <path
         id="path5026"
         d="M 76.110233,18.177165 C 74.444879,15.34252 72.141729,13.074803 69.236217,11.338583 62.114171,7.1929134 53.007872,6.9448819 41.881888,10.594488 l -4.535433,1.452756 c -1.73622,0.496063 -3.047244,0.885827 -3.897638,1.098425 -0.956692,0.248032 -2.090551,0.496063 -3.401574,0.744095 -1.027559,0.177165 -2.019685,0.283464 -3.047244,0.318897 -0.92126,0.07087 -1.84252,0.03543 -2.799213,-0.03543 C 23.279527,14.066929 22.3937,13.889764 21.507873,13.677165 20.657479,13.429134 19.73622,13.110236 18.81496,12.720472 17.999999,12.401575 17.043306,11.940945 15.980314,11.338583 15.023621,10.807087 13.960629,10.169291 12.826771,9.4606299 11.65748,8.7165354 10.488189,7.9015748 9.3543303,7.0866141 L 7.8661414,6.0590551 C 7.1929131,5.492126 6.7677162,5.2086614 6.5905509,5.1732283 c -0.1417323,-0.070866 -0.3543307,-0.070866 -0.5669291,0 -0.070866,0 -0.2125984,0.2480315 -0.4606299,0.7086614 C 5.3858265,6.2716535 5.2086612,6.5905512 5.102362,6.9094488 4.8543305,7.4409449 4.5354329,8.2913386 4.110236,9.3897637 3.7559053,10.523622 3.4015747,11.586614 3.1181101,12.649606 2.8346455,13.677165 2.5157479,14.952756 2.2322834,16.511811 1.9133857,17.964567 1.7007873,19.38189 1.523622,20.834646 c -0.1771654,1.488189 -0.2834646,3.011811 -0.3188976,4.641732 -0.035433,1.559055 0,3.153543 0.1771653,4.818897 0.1417323,1.629922 0.3897638,3.22441 0.7440945,4.783465 0.3897637,1.594488 0.9212598,3.153543 1.559055,4.712598 0.6732283,1.523622 1.4881889,2.976378 2.4094487,4.322835 1.027559,1.452756 2.1968503,2.728347 3.4724408,3.862205 1.4173223,1.27559 2.9409443,2.374016 4.6417323,3.259842 1.665354,0.956693 3.649606,1.771654 5.881889,2.480315 0.956693,0.283465 2.055118,0.602362 3.330709,0.850394 1.665354,0.354331 2.551181,0.779528 2.692913,1.204724 0.212599,0.637796 -0.425197,1.38189 -1.913386,2.232284 -1.984252,1.098425 -3.11811,1.771653 -3.330708,2.019685 -1.665354,1.771653 -0.566929,3.082677 3.330708,3.897638 3.047244,0.673228 6.767717,0.779527 11.125984,0.318897 6.484252,-0.708661 12.720472,-2.799212 18.779527,-6.307086 10.700787,-6.200788 18.460629,-14.917323 23.20866,-26.18504 0.177166,-0.389763 0.354331,-0.81496 0.496063,-1.240157 0.07087,-0.141732 0.141733,-0.248032 0.212599,-0.354331 0.35433,-1.311023 0.496063,-2.515748 0.46063,-3.649606 -0.03543,-2.905512 -0.850394,-5.704724 -2.374016,-8.326772 l 0,0 z"
         style="fill:#84539c;fill-opacity:1;fill-rule:nonzero;stroke:none"
         inkscape:connector-curvature="0" />
      <path
         id="path5028"
         d="M 69.236217,11.338583 C 62.114171,7.1929134 53.007872,6.9448819 41.881888,10.594488 l -4.535433,1.452756 c -1.73622,0.496063 -3.047244,0.885827 -3.897638,1.098425 -0.956692,0.248032 -2.090551,0.496063 -3.401574,0.744095 -1.027559,0.177165 -2.019685,0.283464 -3.047244,0.318897 -0.92126,0.07087 -1.84252,0.03543 -2.799213,-0.03543 C 23.279527,14.066929 22.3937,13.889764 21.507873,13.677165 20.657479,13.429134 19.73622,13.110236 18.81496,12.720472 17.999999,12.401575 17.043306,11.940945 15.980314,11.338583 15.023621,10.807087 13.960629,10.169291 12.826771,9.4606299 11.65748,8.7165354 10.488189,7.9015748 9.3543303,7.0511811 L 7.8661414,6.0590551 C 7.1929131,5.492126 6.7677162,5.2086614 6.5905509,5.1732283 c -0.1417323,-0.070866 -0.3543307,-0.070866 -0.5669291,0 -0.070866,0 -0.2125984,0.2480315 -0.4606299,0.7086614 C 5.3858265,6.2716535 5.2086612,6.5905512 5.102362,6.9094488 4.8543305,7.4409449 4.5354329,8.2913386 4.110236,9.3897637 3.7559053,10.523622 3.4015747,11.586614 3.1181101,12.649606 2.8346455,13.677165 2.5157479,14.952756 2.2322834,16.511811 1.9133857,17.964567 1.7007873,19.38189 1.523622,20.834646 c -0.1771654,1.488189 -0.2834646,3.011811 -0.3188976,4.641732 -0.035433,1.559055 0,3.153543 0.1771653,4.818897 0.1417323,1.629922 0.3897638,3.22441 0.7440945,4.783465 0.3897637,1.594488 0.9212598,3.153543 1.559055,4.712598 0.6732283,1.523622 1.4881889,2.976378 2.4094487,4.322835 1.027559,1.452756 2.1968503,2.728347 3.4724408,3.862205 1.4173223,1.27559 2.9409443,2.374016 4.6417323,3.259842 1.665354,0.956693 3.649606,1.771654 5.881889,2.480315 0.956693,0.283465 2.055118,0.602362 3.330709,0.850394 1.665354,0.354331 2.551181,0.779528 2.692913,1.204724 0.212599,0.637796 -0.425197,1.38189 -1.913386,2.232284 -2.019685,1.098425 -3.11811,1.771653 -3.330708,2.019685 -1.665354,1.771653 -0.566929,3.082677 3.330708,3.897638 3.047244,0.673228 6.767717,0.779527 11.125984,0.318897 6.484252,-0.708661 12.720472,-2.799212 18.779527,-6.307086 10.700787,-6.200788 18.460629,-14.917323 23.20866,-26.18504 0.177166,-0.389763 0.354331,-0.81496 0.496063,-1.240157 0.07087,-0.141732 0.141733,-0.248032 0.212599,-0.354331 0.35433,-1.311023 0.496063,-2.515748 0.46063,-3.649606 -0.03543,-2.905512 -0.850394,-5.704724 -2.374016,-8.326772 -1.665354,-2.834645 -3.968504,-5.102362 -6.874016,-6.838582 z"
         style="fill:none;stroke:#652182;stroke-width:2.37401557px;stroke-linecap:round;stroke-linejoin:round;stroke-opacity:1;stroke-dasharray:none"
         inkscape:connector-curvature="0" />
      <path
         id="path5030"
         d="m 53.929132,31.251968 c -1.877953,0.03543 -3.57874,0.814961 -5.137796,2.444882 -1.594488,1.629922 -2.444881,3.507874 -2.515747,5.527559 -0.07087,2.374016 1.027559,4.429134 3.188976,6.200788 -1.062992,0.248031 -2.125984,1.027559 -3.188976,2.374015 -1.133859,1.417323 -1.771654,2.905512 -1.984252,4.464567 -0.212599,1.913386 0.283464,3.472441 1.559055,4.641733 1.27559,1.169291 3.401574,1.948819 6.448818,2.267716 l 0,0 c 0.637796,0.106299 1.523622,0.07087 2.692914,-0.106299 1.133858,-0.177165 2.444881,-0.779528 3.968503,-1.771654 1.523622,-1.027559 2.905512,-2.090551 4.110236,-3.224409 1.700788,-1.346457 3.22441,-2.870079 4.606299,-4.641732 3.649607,-4.570866 5.385827,-9.744095 5.279528,-15.484252 -0.03543,-1.027559 -0.212599,-1.771654 -0.602362,-2.30315 -0.496063,-1.948819 -1.417323,-3.224409 -2.76378,-3.897638 -1.346456,-0.673228 -2.976378,-0.673228 -4.925196,0 -1.736221,0.602363 -3.22441,1.559056 -4.464567,2.905512 -1.275591,1.346457 -1.807087,2.586614 -1.594488,3.68504 -1.098425,-2.090552 -2.657481,-3.153544 -4.677165,-3.082678"
         style="fill:#fcdf00;fill-opacity:1;fill-rule:nonzero;stroke:none"
         inkscape:connector-curvature="0" />
      <path
         id="path5032"
         d="m 124.37007,7.7952756 3.96851,1.2401574 c 1.48819,0.46063 2.62204,0.7795276 3.36614,0.956693 0.85039,0.212598 1.84252,0.425197 2.94094,0.602362 0.88583,0.141732 1.77166,0.212599 2.65748,0.212599 0.77953,0.03543 1.55906,0 2.37402,-0.141733 0.77953,-0.106299 1.55905,-0.318897 2.30315,-0.566929 0.70866,-0.2480313 1.48819,-0.566929 2.26772,-0.9921258 0.70866,-0.3897638 1.52362,-0.8858268 2.37401,-1.488189 0.81496,-0.5669291 1.70079,-1.2047244 2.62205,-1.9133858 0.99212,-0.8149606 1.98425,-1.6299213 2.94094,-2.480315 l 1.20473,-1.0629921 c 0.56693,-0.5669291 0.92126,-0.8503937 1.02756,-0.9212598 0.17716,-0.035433 0.31889,-0.035433 0.49606,0 0.0709,0.035433 0.2126,0.2480315 0.46063,0.6732283 0.14173,0.3897638 0.3189,0.7086614 0.4252,0.992126 0.24803,0.5314961 0.53149,1.3464567 0.92126,2.4094488 0.38976,1.0629921 0.70866,2.1259843 0.99212,3.1535433 0.28347,0.992126 0.60236,2.2677161 0.92126,3.7559051 0.28347,1.417323 0.56693,2.799213 0.7441,4.216536 0.21259,1.417323 0.35433,2.940945 0.42519,4.535433 0.1063,1.523622 0.14173,3.082677 0.0709,4.712598 -0.0709,1.594488 -0.24803,3.188977 -0.49606,4.748032 -0.24804,1.559055 -0.6378,3.11811 -1.13386,4.606299 -0.5315,1.559055 -1.16929,3.011811 -1.91339,4.358268 -0.81496,1.452756 -1.77165,2.763779 -2.83464,3.897637 -1.16929,1.311024 -2.44489,2.444882 -3.82678,3.366142 -1.41732,0.992126 -3.08267,1.84252 -4.99606,2.622047 -0.77953,0.318898 -1.73622,0.637796 -2.83464,0.956693 -1.38189,0.389764 -2.12599,0.850394 -2.23229,1.275591 -0.17716,0.637795 0.38977,1.346457 1.70079,2.090551 1.77165,1.027559 2.76378,1.665354 2.94095,1.877953 1.52362,1.665354 0.60236,2.976378 -2.69292,3.933071 -3.43701,0.992126 -7.93701,1.062992 -13.5,0.248031 -1.91338,-0.248031 -4.14567,-0.992126 -6.76771,-2.161417 -0.1063,-0.177166 -0.2126,-0.283465 -0.38977,-0.318898 -0.49606,-0.248031 -0.99212,-0.496063 -1.48819,-0.708661 C 108.03543,50.88189 99.885822,41.988189 94.818894,29.728346 94.641728,29.30315 94.464563,28.913386 94.322831,28.488189 94.251964,28.38189 94.181098,28.27559 94.110232,28.169291 c -0.318897,-1.27559 -0.496063,-2.444882 -0.531496,-3.543307 -0.07087,-2.870079 0.531496,-5.598425 1.771654,-8.255905 1.311023,-2.834646 3.188976,-5.137796 5.63386,-6.9094491 5.91732,-4.3228346 13.7126,-4.8897638 23.38582,-1.6653543"
         style="fill:#84539c;fill-opacity:1;fill-rule:nonzero;stroke:none"
         inkscape:connector-curvature="0" />
      <path
         id="path5034"
         d="m 128.33858,9.035433 c 1.48819,0.46063 2.62204,0.7795276 3.36614,0.956693 0.85039,0.212598 1.84252,0.425197 2.94094,0.602362 0.88583,0.141732 1.77166,0.212599 2.65748,0.212599 0.77953,0.03543 1.55906,0 2.37402,-0.141733 0.81496,-0.106299 1.55905,-0.318897 2.30315,-0.566929 0.70866,-0.2480313 1.48819,-0.566929 2.26772,-0.9921258 0.70866,-0.3897638 1.52362,-0.8858268 2.37401,-1.488189 0.81496,-0.5669291 1.70079,-1.2047244 2.62205,-1.9133858 0.99212,-0.8149606 1.98425,-1.6299213 2.94094,-2.480315 l 1.20473,-1.0629921 c 0.56693,-0.5669291 0.92126,-0.8503937 1.02756,-0.8858268 0.17716,-0.070866 0.31889,-0.070866 0.49606,-0.035433 0.0709,0.035433 0.2126,0.2480315 0.46063,0.6732283 0.14173,0.3897638 0.3189,0.7086614 0.4252,0.992126 0.24803,0.5314961 0.53149,1.3464567 0.92126,2.4094488 0.38976,1.0629921 0.70866,2.1259843 0.99212,3.1535433 0.28347,0.992126 0.60236,2.2677161 0.92126,3.7559051 0.28347,1.417323 0.56693,2.799213 0.7441,4.216536 0.21259,1.417323 0.35433,2.940945 0.42519,4.535433 0.1063,1.523622 0.14173,3.082677 0.0709,4.712598 -0.0709,1.629922 -0.24803,3.188977 -0.49606,4.748032 -0.24804,1.559055 -0.6378,3.11811 -1.13386,4.606299 -0.5315,1.559055 -1.16929,3.011811 -1.91339,4.358268 -0.81496,1.452756 -1.77165,2.763779 -2.83464,3.897637 -1.16929,1.311024 -2.44489,2.444882 -3.82678,3.366142 -1.41732,0.992126 -3.08267,1.84252 -4.99606,2.586614 -0.77953,0.354331 -1.73622,0.673229 -2.83464,0.992126 -1.38189,0.389764 -2.12599,0.850394 -2.23229,1.275591 -0.17716,0.637795 0.38977,1.346457 1.70079,2.090551 1.77165,1.027559 2.76378,1.665354 2.94095,1.877953 1.52362,1.665354 0.60236,2.976378 -2.69292,3.933071 -3.43701,0.992126 -7.93701,1.062992 -13.5,0.248031 -1.91338,-0.283464 -4.14567,-0.992126 -6.76771,-2.161417 -0.1063,-0.177166 -0.2126,-0.283465 -0.38977,-0.318898 -0.49606,-0.248031 -0.99212,-0.496063 -1.48819,-0.708661 C 108.03543,50.88189 99.885822,41.988189 94.818894,29.728346 94.641728,29.30315 94.464563,28.913386 94.322831,28.488189 94.251964,28.38189 94.181098,28.27559 94.110232,28.169291 c -0.318897,-1.27559 -0.496063,-2.444882 -0.531496,-3.543307 -0.07087,-2.870079 0.531496,-5.598425 1.771654,-8.255905 1.311023,-2.834646 3.188976,-5.137796 5.63386,-6.9094491 5.91732,-4.3228346 13.7126,-4.8897638 23.42126,-1.6653543 l 3.93307,1.2401574 z"
         style="fill:none;stroke:#652182;stroke-width:2.37401557px;stroke-linecap:round;stroke-linejoin:round;stroke-opacity:1;stroke-dasharray:none"
         inkscape:connector-curvature="0" />
      <path
         id="path5036"
         d="m 120.72047,26.858268 c 1.80708,-0.283465 3.6496,0.212598 5.49212,1.559055 1.84252,1.311023 3.01181,3.011811 3.43701,5.031496 0.46063,2.303149 -0.2126,4.5 -2.05512,6.625984 1.06299,0.03543 2.26772,0.637795 3.54331,1.807087 1.38189,1.169291 2.26772,2.515748 2.72835,4.003937 1.13385,3.755905 -0.9567,6.484252 -6.27166,8.220472 0,0 0,-0.03543 -0.0354,-0.03543 -0.17717,0.03543 -0.4252,0.03543 -0.67323,0.03543 -0.24803,-0.03543 -0.53149,-0.03543 -0.77953,-0.07087 -1.87795,0.425197 -3.82677,0.177165 -5.91732,-0.708662 -1.55905,-0.673228 -3.08268,-1.488188 -4.5,-2.409448 -1.87795,-0.992126 -3.6496,-2.267717 -5.35039,-3.755906 -4.35827,-3.933071 -7.01575,-8.681102 -7.90158,-14.385827 -0.14173,-0.956692 -0.0709,-1.73622 0.2126,-2.338582 0.1063,-1.984252 0.77953,-3.437008 1.98425,-4.287402 1.24016,-0.92126 2.87008,-1.204724 4.88977,-0.885827 1.80708,0.318898 3.43701,0.992126 4.92519,2.090552 1.48819,1.133858 2.23229,2.267716 2.19685,3.366141 0.70867,-2.267716 2.05512,-3.543307 4.07481,-3.862204"
         style="fill:#fcdf00;fill-opacity:1;fill-rule:nonzero;stroke:none"
         inkscape:connector-curvature="0" />
      <path
         id="path5038"
         d="M 133.26377,55.488189 C 131.06692,50.42126 127.94881,45.92126 123.98031,42.023622 115.47637,33.69685 104.98818,29.586614 92.515744,29.728346 c -12.401574,0.1063 -22.499999,4.5 -30.259841,13.181103 -4.464567,4.996063 -7.547244,10.73622 -9.283464,17.220472 -1.133859,5.102362 -1.240158,10.665354 -0.283465,16.653543 1.062992,5.704725 3.366142,11.161418 6.944882,16.370079 0.318897,0.496063 0.673228,0.992126 1.062992,1.488189 2.125984,2.622047 4.996063,5.102362 8.574803,7.370078 2.65748,1.66536 5.704724,3.22441 9.141731,4.7126 4.677166,2.01968 9.744095,3.15354 15.129921,3.50787 1.594488,0.0709 3.224409,0.1063 4.889764,0.0354 6.377953,-0.28347 12.118113,-1.70079 17.291333,-4.21654 5.98819,-2.90551 11.19685,-7.299212 15.55512,-13.181102 1.20473,-1.771653 2.12599,-3.295275 2.72835,-4.570866 2.58661,-6.165354 3.57874,-12.153543 2.87008,-18.035433 -0.56693,-5.633858 -1.77166,-10.594488 -3.61418,-14.77559"
         style="fill:#e27c9f;fill-opacity:1;fill-rule:nonzero;stroke:none"
         inkscape:connector-curvature="0" />
      <path
         id="path5040"
         d="m 142.79527,77.385827 c 0.3189,-0.673229 0.56693,-1.311024 0.74409,-1.877953 0.35433,-1.098425 0.5315,-2.019685 0.46063,-2.692914 0,-0.106299 -0.0354,-0.248031 -0.0354,-0.35433 -0.3189,-1.275591 -1.77165,-2.055118 -4.35827,-2.267717 -0.81496,-0.106299 -1.73622,-0.07087 -2.72834,0.07087 0.70866,5.88189 -0.28347,11.870079 -2.87008,18.035433 0.1063,-0.212598 0.17716,-0.425197 0.24803,-0.602362 1.84252,-1.027559 3.54331,-2.480315 5.06693,-4.464567 1.41732,-1.807086 2.58661,-3.755905 3.47244,-5.846456"
         style="fill:#e27c9f;fill-opacity:1;fill-rule:nonzero;stroke:none"
         inkscape:connector-curvature="0" />
      <path
         id="path5042"
         d="M 123.98031,42.023622 C 115.47637,33.69685 104.98818,29.586614 92.515744,29.728346 c -12.401574,0.1063 -22.499999,4.5 -30.259841,13.181103 -4.464567,4.996063 -7.547244,10.73622 -9.283464,17.220472 -1.133859,5.102362 -1.240158,10.665354 -0.283465,16.653543 1.062992,5.704725 3.366142,11.161418 6.944882,16.370079 0.318897,0.496063 0.673228,0.992126 1.062992,1.488189 2.125984,2.622047 4.996063,5.102362 8.574803,7.370078 2.65748,1.66536 5.704724,3.22441 9.141731,4.7126 4.677166,2.01968 9.744095,3.15354 15.129921,3.50787 1.594488,0.0709 3.224409,0.1063 4.889764,0.0354 6.377953,-0.28347 12.118113,-1.70079 17.291333,-4.21654 5.98819,-2.90551 11.19685,-7.299212 15.55512,-13.145668 1.20473,-1.807087 2.12599,-3.330709 2.72835,-4.6063 0.1063,-0.212598 0.17716,-0.425197 0.24803,-0.602362 1.84252,-1.027559 3.54331,-2.480315 5.06693,-4.464567 1.41732,-1.807086 2.58661,-3.755905 3.47244,-5.846456 0.3189,-0.673229 0.56693,-1.311024 0.74409,-1.877953 0.35433,-1.098425 0.5315,-2.019685 0.46063,-2.692914 0,-0.106299 -0.0354,-0.248031 -0.0354,-0.35433 -0.3189,-1.275591 -1.77165,-2.055118 -4.35827,-2.267717 -0.85039,-0.106299 -1.73622,-0.07087 -2.72834,0.07087 -0.56693,-5.633858 -1.77166,-10.594488 -3.61418,-14.77559 -2.19685,-5.066929 -5.31496,-9.566929 -9.28346,-13.464567 z m 12.89764,28.240157 c 0.70866,5.88189 -0.28347,11.870079 -2.87008,18.035433"
         style="fill:none;stroke:#c4084a;stroke-width:2.37401557px;stroke-linecap:round;stroke-linejoin:round;stroke-opacity:1;stroke-dasharray:none"
         inkscape:connector-curvature="0" />
      <path
         id="path5044"
         d="m 131.31495,79.440945 c -0.10629,-0.177166 -0.28346,-0.283465 -0.46062,-0.283465 -0.24804,0.03543 -0.4252,0.106299 -0.56693,0.283465 -0.0709,0.141732 -0.14174,0.283464 -0.14174,0.389763 -0.0354,0.1063 -0.0354,0.212599 -0.0354,0.354331 0,0.141732 0,0.212599 0.0354,0.318898 0.0354,0.141732 0.1063,0.248031 0.17717,0.35433 0.14173,0.177166 0.3189,0.283465 0.56693,0.283465 0.17716,0 0.35433,-0.106299 0.46063,-0.283465 0.14173,-0.212598 0.2126,-0.425196 0.17716,-0.708661 0,-0.283465 -0.0709,-0.531496 -0.2126,-0.708661"
         style="fill:#a682b9;fill-opacity:1;fill-rule:nonzero;stroke:none"
         inkscape:connector-curvature="0" />
      <path
         id="path5046"
         d="m 128.40944,83.409449 c -0.14173,0.177165 -0.2126,0.425196 -0.17716,0.708661 0,0.177165 0.0354,0.318898 0.0709,0.46063 0.0709,0.106299 0.1063,0.177165 0.14174,0.212598 0.17716,0.212599 0.35433,0.318898 0.53149,0.318898 0.17717,0 0.35433,-0.106299 0.49607,-0.318898 0.14173,-0.212598 0.21259,-0.425197 0.17716,-0.708661 0,-0.248032 -0.0709,-0.496063 -0.2126,-0.673228 -0.14173,-0.248032 -0.3189,-0.354331 -0.49606,-0.354331 -0.0709,0 -0.17717,0.03543 -0.24803,0.07087 -0.1063,0.03543 -0.17717,0.141732 -0.28347,0.283465"
         style="fill:#a682b9;fill-opacity:1;fill-rule:nonzero;stroke:none"
         inkscape:connector-curvature="0" />
      <path
         id="path5048"
         d="m 132.51968,82.877952 c -0.0354,0 -0.1063,-0.03543 -0.17717,-0.03543 0,0 -0.0354,0.03543 -0.0709,0.03543 -0.0709,0 -0.1063,0.03543 -0.17717,0.03543 -0.0709,0.03543 -0.14173,0.106299 -0.17716,0.177165 -0.0709,0.03543 -0.0709,0.07087 -0.1063,0.106299 -0.1063,0.177165 -0.17717,0.425197 -0.17717,0.708662 0,0.177165 0.0354,0.318897 0.1063,0.460629 0.0354,0.07087 0.0709,0.141733 0.1063,0.212599 0.0354,0.03543 0.0709,0.106299 0.1063,0.141732 0.0709,0.03543 0.14173,0.106299 0.2126,0.141732 l 0.0354,0.03543 0,-0.03543 c 0.0709,0 0.14173,0.03543 0.17717,0.03543 0.0709,0 0.1063,0 0.17716,0 0.1063,-0.07087 0.2126,-0.177166 0.3189,-0.354331 0.14173,-0.177166 0.2126,-0.389764 0.2126,-0.673229 -0.0354,-0.248031 -0.1063,-0.496063 -0.24803,-0.673228 -0.1063,-0.177165 -0.2126,-0.283464 -0.3189,-0.318898"
         style="fill:#a682b9;fill-opacity:1;fill-rule:nonzero;stroke:none"
         inkscape:connector-curvature="0" />
      <path
         id="path5050"
         d="m 72.744091,82.913386 c 0.177166,-0.212599 0.283465,-0.46063 0.283465,-0.708662 -0.03543,-0.283464 -0.141732,-0.531496 -0.318898,-0.744094 -0.177165,-0.177166 -0.389763,-0.248032 -0.637795,-0.248032 -0.283465,0 -0.531496,0.106299 -0.708661,0.283465 -0.177166,0.212598 -0.248032,0.425197 -0.248032,0.744094 0,0.248032 0.106299,0.496063 0.283465,0.673229 0.177165,0.177165 0.425197,0.283464 0.708661,0.248031 0.248032,0 0.46063,-0.07087 0.637795,-0.248031"
         style="fill:#a682b9;fill-opacity:1;fill-rule:nonzero;stroke:none"
         inkscape:connector-curvature="0" />
      <path
         id="path5052"
         d="m 75.401572,86.740157 c 0.212598,-0.177165 0.283464,-0.425197 0.283464,-0.708661 0,-0.248032 -0.106299,-0.496063 -0.318898,-0.673229 -0.177165,-0.248031 -0.425196,-0.318897 -0.708661,-0.318897 -0.248031,0 -0.46063,0.106299 -0.602362,0.318897 -0.177165,0.212599 -0.283465,0.46063 -0.283465,0.708662 0,0.283464 0.1063,0.531496 0.318898,0.708661 0.141732,0.177166 0.354331,0.283465 0.637795,0.283465 0.248032,0 0.496063,-0.106299 0.673229,-0.318898"
         style="fill:#a682b9;fill-opacity:1;fill-rule:nonzero;stroke:none"
         inkscape:connector-curvature="0" />
      <path
         id="path5054"
         d="m 69.059052,86.102362 c 0,0.283464 0.106299,0.531496 0.283465,0.708661 0.177165,0.212599 0.425197,0.283465 0.673228,0.283465 0.283465,0 0.496063,-0.106299 0.673228,-0.318898 0.177166,-0.177165 0.283465,-0.389764 0.248032,-0.708661 0,-0.248032 -0.07087,-0.496063 -0.283465,-0.708662 -0.177165,-0.177165 -0.425197,-0.283464 -0.708661,-0.283464 -0.212599,0 -0.46063,0.141732 -0.637795,0.318898 -0.177166,0.212598 -0.248032,0.460629 -0.248032,0.708661"
         style="fill:#a682b9;fill-opacity:1;fill-rule:nonzero;stroke:none"
         inkscape:connector-curvature="0" />
      <path
         id="path5056"
         d="m 109.52362,30.897638 c 0,0 0,0 0,0 -5.4567,-1.984252 -11.303152,-2.940945 -17.610238,-2.799213 -11.728346,0.212599 -21.791338,3.933071 -30.224408,11.161417 -0.673229,0.602363 -1.346457,1.204725 -2.019685,1.84252 -8.822835,8.433071 -13.110236,18.46063 -12.862204,30.153543 0.212598,9.673229 4.287401,17.64567 12.224409,23.88189 l 3.082677,2.799213 -1.417323,-4.6063 C 56.870076,83.267716 56.444879,76.322834 59.385824,72.531496 c 0.814961,-0.212599 1.948819,0.212598 3.330709,1.27559 l 0,-0.03543 c 1.452756,1.133859 2.940944,1.807087 4.464566,1.984252 l 1.38189,-0.03543 -0.03543,-1.169291 c -0.106299,-9.956693 3.047244,-17.291339 9.496063,-22.003937 2.586614,-1.877953 5.669291,-3.330709 9.283464,-4.358268 l 0,0.03543 0.03543,0.03543 0,0 c 1.84252,2.799213 4.110236,5.173229 6.803149,7.157481 l 1.559055,1.169291 0.602362,-3.188976 c 2.161418,2.728346 5.137798,5.066929 8.822838,7.086614 l 0.74409,0.389764 0.6378,-0.531497 c 2.90551,-2.444881 4.96063,-6.129921 6.12992,-11.090551 0.2126,0.566929 0.56693,1.488189 1.02756,2.728347 l 0.92126,2.232283 1.24015,-2.090551 c 0.77953,-1.204724 1.31103,-2.480315 1.59449,-3.755905 2.90551,1.381889 5.49213,2.976378 7.79528,4.818897 0,0 0.0354,0 0.0354,0 2.58661,2.090551 4.6063,4.287402 6.09449,6.625984 1.48819,2.409449 2.65748,4.925197 3.47244,7.511811 0.70866,2.905512 1.02756,5.279528 1.02756,7.122048 1.48819,-0.92126 2.19685,-2.76378 2.12598,-5.598426 0.24803,-8.716535 -1.98425,-16.051181 -6.69685,-22.110236 -1.09842,-1.381889 -2.26771,-2.65748 -3.57874,-3.897637 l -0.2126,-0.212599 c -0.77952,-0.814961 -1.59448,-1.594488 -2.48031,-2.374016 l 0,-0.03543 -0.38977,-0.35433 c -4.60629,-4.03937 -9.60236,-7.015748 -15.09448,-8.964567 m -0.81496,2.267716 0,0 c 5.03149,1.771654 9.67322,4.5 13.92519,8.18504 l 0,0 0.38977,0.35433 c 0.85039,0.744095 1.62992,1.488189 2.40945,2.267717 l 0,0.03543 0.38976,0.389764 c 1.34646,1.240157 2.55118,2.586614 3.61417,3.968504 2.97638,3.862204 4.88977,8.326771 5.70473,13.322834 -0.60237,-1.133858 -1.16929,-2.19685 -1.73622,-3.153543 -1.62993,-2.551181 -3.82678,-4.96063 -6.66142,-7.228347 0,-0.03543 0,-0.03543 -0.0354,-0.03543 -2.79922,-2.232283 -6.05906,-4.145669 -9.7441,-5.77559 l -1.55905,-0.708662 -0.14174,1.700788 c -0.0709,0.637795 -0.17716,1.27559 -0.35433,1.913386 -0.0354,-0.1063 -0.0709,-0.177166 -0.1063,-0.248032 -0.17716,-0.496063 -0.63779,-1.84252 -1.45275,-4.003937 l -1.62992,-4.393701 -0.0709,0.03543 -0.63779,4.641733 c -0.70867,6.129921 -2.55118,10.629921 -5.4567,13.5 -4.00393,-2.267717 -6.944878,-4.996063 -8.858264,-8.220473 l -1.665354,-2.65748 -0.992126,5.173228 c -1.771653,-1.523622 -3.366142,-3.295275 -4.677165,-5.31496 l 0,0.03543 -0.956693,-1.594488 -0.885827,0.283464 c -4.145669,1.062992 -7.688976,2.65748 -10.629921,4.712599 -6.980314,4.85433 -10.559054,12.401574 -10.771653,22.677165 -0.637795,-0.283465 -1.27559,-0.637795 -1.913385,-1.169292 l 0,0 c -2.551181,-1.913385 -4.606299,-2.374015 -6.129921,-1.417322 l -0.212599,0.141732 -0.141732,0.141732 C 54.389761,74.338582 54.106297,80.751968 56.940942,89.858267 51.94488,84.826771 49.393699,78.625984 49.216533,71.185039 49.003935,60.23622 53.043305,50.77559 61.334643,42.838583 c 1.062992,-0.992126 2.125984,-1.948819 3.259842,-2.834646 7.688976,-6.129921 16.830708,-9.318898 27.35433,-9.496063 5.988189,-0.106299 11.586615,0.779527 16.759845,2.65748"
         style="fill:#5d1e80;fill-opacity:1;fill-rule:nonzero;stroke:none"
         inkscape:connector-curvature="0" />
      <path
         id="path5058"
         d="m 108.70866,33.165354 0,0 c -5.17323,-1.877953 -10.771656,-2.763779 -16.759845,-2.65748 -10.523622,0.177165 -19.665354,3.366142 -27.35433,9.496063 -1.133858,0.885827 -2.19685,1.84252 -3.259842,2.834646 -8.291338,7.937007 -12.330708,17.397637 -12.11811,28.381889 0.141733,7.405512 2.728347,13.606299 7.724409,18.637795 -2.834645,-9.106299 -2.551181,-15.519685 0.779528,-19.133858 l 0.141732,-0.141732 0.212599,-0.141732 c 1.523622,-0.956693 3.57874,-0.496063 6.129921,1.417322 l 0,0.03543 c 0.637795,0.496063 1.27559,0.850393 1.913385,1.133858 0.212599,-10.275591 3.791339,-17.822835 10.771653,-22.677165 2.940945,-2.055119 6.484252,-3.614174 10.629921,-4.712599 l 0.885827,-0.283464 0.956693,1.594488 0,-0.03543 c 1.311023,2.019685 2.905512,3.791338 4.677165,5.31496 l 0.992126,-5.173228 1.665354,2.65748 c 1.913386,3.22441 4.854334,5.952756 8.858264,8.220473 2.90552,-2.870079 4.74803,-7.370079 5.4567,-13.5 l 0.63779,-4.641733 0.0709,-0.03543 1.62992,4.393701 c 0.81496,2.161417 1.27559,3.507874 1.45275,4.003937 0.0354,0.07087 0.0709,0.141732 0.1063,0.248032 0.17717,-0.637796 0.28347,-1.275591 0.35433,-1.913386 l 0.14174,-1.700788 1.55905,0.708662 c 3.68504,1.629921 6.94488,3.543307 9.7441,5.77559 0.0354,0 0.0354,0 0.0354,0.03543 2.83464,2.267717 5.03149,4.677166 6.62598,7.228347 0.60237,0.956693 1.16929,2.019685 1.77166,3.153543 -0.81496,-4.996063 -2.72835,-9.46063 -5.70473,-13.322834 -1.06299,-1.38189 -2.26771,-2.728347 -3.6496,-3.968504 l -0.35433,-0.389764 0,-0.03543 c -0.77953,-0.779528 -1.55906,-1.523622 -2.40945,-2.267717 l -0.4252,-0.35433 0,0 c -4.21654,-3.68504 -8.85827,-6.413386 -13.88976,-8.18504"
         style="fill:#7f519b;fill-opacity:1;fill-rule:nonzero;stroke:none"
         inkscape:connector-curvature="0" />
      <path
         id="path5060"
         d="m 47.338581,72.531496 c -1.736221,0.531496 -2.409449,1.523622 -1.984252,3.047244 2.267716,7.937008 7.759842,12.614173 16.51181,14.031496 L 61.618108,74.338582 C 56.622045,71.751968 51.874014,71.149606 47.338581,72.531496"
         style="fill:#e27c9f;fill-opacity:1;fill-rule:nonzero;stroke:none"
         inkscape:connector-curvature="0" />
      <path
         id="path5062"
         d="M 61.866139,89.610236 C 53.114171,88.192913 47.622045,83.515748 45.354329,75.57874 c -0.425197,-1.523622 0.248031,-2.515748 1.984252,-3.047244 4.535433,-1.38189 9.283464,-0.779528 14.279527,1.807086"
         style="fill:none;stroke:#c4084a;stroke-width:2.37401557px;stroke-linecap:square;stroke-linejoin:round;stroke-opacity:1;stroke-dasharray:none"
         inkscape:connector-curvature="0" />
      <path
         id="path5064"
         d="m 78.27165,92.303149 c 4.322835,2.551181 9.637795,4.181103 15.944881,4.854331 3.614173,0.389764 7.086619,0.389764 10.488189,0 3.36614,-0.354331 6.73228,-1.133858 10.06299,-2.30315 5.84646,-2.019685 10.38189,-4.748031 13.67717,-8.149606 -6.48426,8.397638 -14.20866,12.968504 -23.1378,13.748036 -8.929131,1.20472 -17.929131,-1.488193 -27.03543,-8.149611"
         style="fill:#d8272a;fill-opacity:1;fill-rule:nonzero;stroke:none"
         inkscape:connector-curvature="0" />
      <path
         id="path5066"
         d="m 124.12204,56.834645 c -2.76378,-1.204724 -5.52756,-0.921259 -8.2559,0.885827 -2.72835,1.84252 -4.64174,4.641733 -5.74016,8.433071 -1.06299,3.791339 -0.99213,7.476378 0.2126,11.090551 1.20472,3.543307 3.18897,5.917323 5.98819,7.157481 2.76378,1.240157 5.52756,0.921259 8.2559,-0.885827 2.72835,-1.807087 4.64173,-4.606299 5.74016,-8.433071 1.06299,-3.791339 0.99212,-7.476378 -0.2126,-11.019685 -1.20472,-3.57874 -3.18898,-5.988189 -5.98819,-7.228347"
         style="fill:#ffffff;fill-opacity:1;fill-rule:nonzero;stroke:none"
         inkscape:connector-curvature="0" />
      <path
         id="path5068"
         d="m 102.72047,79.511811 c 1.45275,-3.826772 1.38189,-7.688977 -0.24803,-11.657481 -1.66536,-3.968503 -4.393704,-6.838582 -8.185043,-8.610236 -3.791338,-1.807086 -7.51181,-1.984252 -11.232282,-0.566929 -3.720473,1.417323 -6.271654,4.03937 -7.759843,7.866142 -1.452756,3.791338 -1.346456,7.653543 0.283465,11.622047 1.629921,3.968504 4.358267,6.80315 8.149606,8.610236 3.791338,1.771654 7.547244,1.984252 11.267716,0.566929 3.685039,-1.452756 6.271651,-4.03937 7.724411,-7.830708"
         style="fill:#ffffff;fill-opacity:1;fill-rule:nonzero;stroke:none"
         inkscape:connector-curvature="0" />
      <path
         id="path5070"
         d="m 129.1181,73.559055 c -0.24803,-2.338583 -1.02755,-4.216536 -2.37401,-5.669291 -1.34646,-1.417323 -2.83465,-1.984252 -4.5,-1.629922 -1.66536,0.318898 -2.97638,1.452756 -3.9685,3.366142 -0.9567,1.877953 -1.31103,4.003937 -1.063,6.34252 0.24803,2.338582 1.063,4.251968 2.40945,5.704724 1.34646,1.38189 2.87008,1.948819 4.5,1.594488 1.62992,-0.318897 2.94095,-1.452756 3.93307,-3.330708 0.99213,-1.913386 1.34646,-4.03937 1.06299,-6.377953 m -4.81889,-4.216536 c 1.06299,0.496063 1.84252,1.417323 2.37401,2.799213 0.5315,1.38189 0.6378,2.834646 0.3189,4.322835 -0.3189,1.488189 -0.95669,2.622047 -1.91339,3.330708 -0.95669,0.744095 -1.98425,0.885827 -3.04724,0.389764 -1.06299,-0.46063 -1.84252,-1.38189 -2.37401,-2.763779 -0.5315,-1.38189 -0.6378,-2.834646 -0.3189,-4.322835 0.3189,-1.523622 0.92126,-2.622047 1.91338,-3.330709 0.9567,-0.744094 1.98426,-0.850393 3.04725,-0.425197"
         style="fill:#0e5cab;fill-opacity:1;fill-rule:nonzero;stroke:none"
         inkscape:connector-curvature="0" />
      <path
         id="path5072"
         d="m 126.67322,72.141732 c -0.53149,-1.38189 -1.31102,-2.30315 -2.37401,-2.799213 -1.06299,-0.425196 -2.09055,-0.318897 -3.04725,0.425197 -0.99212,0.708662 -1.59448,1.807087 -1.91338,3.330709 -0.3189,1.488189 -0.2126,2.940945 0.3189,4.322835 0.53149,1.381889 1.31102,2.303149 2.37401,2.763779 1.06299,0.496063 2.09055,0.354331 3.04724,-0.389764 0.9567,-0.708661 1.59449,-1.807086 1.91339,-3.330708 0.3189,-1.488189 0.2126,-2.940945 -0.3189,-4.322835"
         style="fill:#080101;fill-opacity:1;fill-rule:nonzero;stroke:none"
         inkscape:connector-curvature="0" />
      <path
         id="path5074"
         d="m 120.93307,71.503937 c -0.3189,0.248031 -0.49607,0.602362 -0.60237,1.098425 -0.1063,0.496063 -0.0709,0.956693 0.1063,1.417323 0.17717,0.46063 0.4252,0.744094 0.77953,0.92126 0.3189,0.141732 0.67323,0.07087 0.99213,-0.141733 0.31889,-0.248031 0.53149,-0.602362 0.60236,-1.098425 0.14173,-0.496063 0.1063,-0.956693 -0.0709,-1.417323 -0.17716,-0.46063 -0.46063,-0.779527 -0.81496,-0.92126 -0.3189,-0.141732 -0.67323,-0.106299 -0.99212,0.141733"
         style="fill:#ffffff;fill-opacity:1;fill-rule:nonzero;stroke:none"
         inkscape:connector-curvature="0" />
      <path
         id="path5076"
         d="m 101.83464,70.015748 c -1.41732,-1.984252 -3.259841,-3.11811 -5.527558,-3.366142 -2.232283,-0.283464 -4.251968,0.354331 -5.988188,1.913386 -1.771654,1.594488 -2.76378,3.614173 -3.011811,6.059055 -0.212599,2.480315 0.354331,4.712598 1.771653,6.69685 1.417323,1.913386 3.259843,3.047244 5.492126,3.330709 2.267716,0.248032 4.287401,-0.389764 6.023618,-1.913386 1.77166,-1.559055 2.76378,-3.57874 3.01181,-6.094488 0.2126,-2.480315 -0.35433,-4.677165 -1.77165,-6.625984 m -4.003936,0.283464 c 1.346457,0.708662 2.267716,1.84252 2.728346,3.401575 0.49606,1.559055 0.4252,3.082677 -0.24803,4.570866 -0.637796,1.488189 -1.665355,2.515748 -3.047245,3.011811 -1.417322,0.566929 -2.799212,0.46063 -4.145669,-0.248031 -1.346456,-0.744095 -2.267716,-1.877953 -2.763779,-3.437008 -0.496063,-1.559055 -0.389764,-3.082677 0.248031,-4.570866 0.637796,-1.452756 1.665355,-2.480315 3.082677,-3.011811 1.38189,-0.531496 2.799213,-0.425197 4.145669,0.283464"
         style="fill:#0e5cab;fill-opacity:1;fill-rule:nonzero;stroke:none"
         inkscape:connector-curvature="0" />
      <path
         id="path5078"
         d="m 100.55905,73.700787 c -0.46063,-1.559055 -1.381889,-2.692913 -2.728346,-3.401575 -1.346456,-0.708661 -2.763779,-0.81496 -4.145669,-0.283464 -1.417322,0.531496 -2.444881,1.559055 -3.082677,3.011811 -0.637795,1.488189 -0.744094,3.011811 -0.248031,4.570866 0.496063,1.559055 1.417323,2.692913 2.763779,3.437008 1.346457,0.708661 2.728347,0.81496 4.145669,0.248031 1.38189,-0.496063 2.409449,-1.523622 3.047245,-3.011811 0.67323,-1.488189 0.74409,-3.011811 0.24803,-4.570866"
         style="fill:#080101;fill-opacity:1;fill-rule:nonzero;stroke:none"
         inkscape:connector-curvature="0" />
      <path
         id="path5080"
         d="M 99.177161,73.204724 C 99.035429,72.744094 98.751964,72.35433 98.291334,72.106299 97.866137,71.858267 97.405508,71.822834 96.944878,72 c -0.46063,0.177165 -0.814961,0.531496 -1.027559,1.027559 -0.212599,0.46063 -0.212599,0.956693 -0.03543,1.488189 0.141732,0.496063 0.425196,0.885827 0.885826,1.098425 0.425197,0.248031 0.885827,0.283465 1.346457,0.106299 0.46063,-0.177165 0.814961,-0.496063 1.027559,-0.992126 0.212598,-0.496063 0.212598,-0.992126 0.03543,-1.523622"
         style="fill:#ffffff;fill-opacity:1;fill-rule:nonzero;stroke:none"
         inkscape:connector-curvature="0" />
      <path
         id="path5082"
         d="m 113.70472,59.527559 c 2.55118,-0.389764 5.17323,-0.283465 7.86614,0.318897 2.87008,1.948819 5.17323,4.570867 6.94488,7.795276 0.92126,3.472441 0.99213,7.370079 0.17717,11.65748 0.70866,-1.240157 1.27559,-2.622047 1.70079,-4.145669 0.10629,-0.389764 0.17716,-0.744094 0.28346,-1.133858 0.74409,-3.437008 0.60236,-6.732284 -0.49606,-9.956693 -1.20473,-3.614173 -3.22441,-6.023622 -6.02363,-7.26378 -2.79921,-1.240157 -5.56299,-0.921259 -8.29133,0.885827 -0.77953,0.531496 -1.52363,1.133858 -2.16142,1.84252"
         style="fill:#3793d1;fill-opacity:1;fill-rule:nonzero;stroke:none"
         inkscape:connector-curvature="0" />
      <path
         id="path5084"
         d="m 96.696846,60.519685 c -0.744094,-0.531496 -1.523622,-0.956693 -2.374015,-1.346457 -3.791339,-1.807086 -7.582677,-2.019685 -11.338583,-0.566929 -3.720472,1.417323 -6.342519,4.03937 -7.830708,7.901575 -1.452756,3.791338 -1.38189,7.688976 0.283465,11.65748 0.389763,0.956693 0.850393,1.84252 1.381889,2.692913 0.177166,0.283465 0.354331,0.531497 0.566929,0.814961 -0.81496,-4.96063 -0.07087,-10.169291 2.30315,-15.625984 4.85433,-4.96063 10.523622,-6.838583 17.007873,-5.527559"
         style="fill:#3793d1;fill-opacity:1;fill-rule:nonzero;stroke:none"
         inkscape:connector-curvature="0" />
      <path
         id="path5086"
         d="m 112.11023,61.476378 c 0.0709,-0.03543 0.14173,-0.106299 0.2126,-0.141733 0.6378,-0.921259 1.34646,-1.73622 2.12598,-2.480314 -0.0354,0.03543 -0.0709,0.03543 -0.1063,0.03543 0,0.03543 0,0.03543 0,0.03543 -0.77952,0.496063 -1.52362,1.311023 -2.23228,2.551181"
         style="fill:#080101;fill-opacity:1;fill-rule:nonzero;stroke:none"
         inkscape:connector-curvature="0" />
      <path
         id="path5088"
         d="m 124.58267,60.342519 c -0.1063,0.03543 -0.24803,0.03543 -0.38976,0 -0.4252,-0.318897 -0.92126,-0.602362 -1.45276,-0.850393 -2.87008,-1.452756 -5.59842,-1.665355 -8.22047,-0.637795 -0.0354,0 -0.0354,0 -0.0709,0 -0.77952,0.744094 -1.48818,1.559055 -2.12598,2.480314 2.79921,-1.807086 5.66929,-1.984251 8.5748,-0.496063 3.01181,1.523623 5.1378,4.181103 6.44882,8.007874 0.67323,2.019685 0.99213,4.14567 0.95669,6.377953 0,1.417323 -0.21259,3.22441 -0.56693,5.350394 0.38977,-0.531496 0.77953,-1.133858 1.09843,-1.736221 0.14173,-0.283464 0.28346,-0.566929 0.46063,-0.850393 0.46063,-1.629922 0.74409,-3.118111 0.85039,-4.464567 0.0709,-1.027559 0.0354,-2.019685 -0.0709,-2.976378 0.24803,-0.318898 0.49606,-0.637795 0.74409,-0.92126 0.0709,-0.141732 0.17717,-0.248031 0.24803,-0.354331 1.02756,-1.523622 1.52363,-2.870078 1.45276,-4.03937 0,-0.318897 -0.4252,-0.283464 -1.20473,0.07087 -0.28346,0.1063 -0.53149,0.212599 -0.74409,0.318898 -0.1063,0.03543 -0.2126,0.07087 -0.3189,0.106299 -0.42519,0.177166 -0.70866,0.248032 -0.81496,0.248032 0.17717,-0.496063 0.35433,-0.992126 0.49607,-1.452756 0.0354,-0.177166 0.10629,-0.389764 0.14173,-0.566929 0.28346,-1.275591 0.3189,-2.30315 0,-3.082677 -0.1063,-0.354331 -0.49607,-0.177166 -1.13386,0.496063 -0.0709,0.07087 -0.17717,0.141732 -0.24803,0.212598 0,0.03543 -0.0354,0.03543 -0.0354,0.03543 -0.42519,0.425197 -0.88582,0.885827 -1.34645,1.417323 0.14173,-1.275591 0.17716,-2.267717 0.14173,-3.047244 0,-0.106299 0,-0.177166 0,-0.248032 -0.0354,-0.177165 -0.0709,-0.389763 -0.1063,-0.566929 -0.24803,-0.248031 -0.46063,-0.496063 -0.74409,-0.708661 0,0 0,0 -0.0354,0.03543 -0.0354,0.07087 -0.0709,0.141732 -0.1063,0.212598 -0.70866,0.992126 -1.34645,1.559055 -1.87795,1.629921 z"
         style="fill:#080101;fill-opacity:1;fill-rule:nonzero;stroke:none"
         inkscape:connector-curvature="0" />
      <path
         id="path5090"
         d="m 126.60236,58.464567 c 0.28346,0.212598 0.49606,0.46063 0.74409,0.708661 -0.0354,-0.141732 -0.0709,-0.283464 -0.14173,-0.425197 -0.14173,-0.496063 -0.35433,-0.602362 -0.60236,-0.283464"
         style="fill:#080101;fill-opacity:1;fill-rule:nonzero;stroke:none"
         inkscape:connector-curvature="0" />
      <path
         id="path5092"
         d="m 128.83464,78.838582 c -0.3189,0.602363 -0.70866,1.204725 -1.09843,1.736221 -0.0354,0 -0.0354,0.03543 0,0.07087 0.49607,-0.602362 0.8504,-1.098425 1.02756,-1.523622 0.0354,0 0.0354,-0.03543 0.0354,-0.03543 0.2126,-0.389764 0.31889,-0.602362 0.35433,-0.673228 0.0354,-0.141733 0.0709,-0.318898 0.14173,-0.425197 -0.17717,0.283464 -0.3189,0.566929 -0.46063,0.850393"
         style="fill:#080101;fill-opacity:1;fill-rule:nonzero;stroke:none"
         inkscape:connector-curvature="0" />
      <path
         id="path5094"
         d="m 73.452753,67.110236 c -1.062992,-0.354331 -1.629921,-0.354331 -1.629921,-0.03543 -0.07087,1.488189 1.027559,3.259842 3.295275,5.208661 -0.141732,0.992126 -0.141732,1.948819 -0.07087,2.976378 0.212598,1.594488 0.744094,3.366142 1.629921,5.279528 0.531496,0.885827 1.062992,1.629921 1.629921,2.267716 -0.46063,-2.515748 -0.708661,-4.464567 -0.744094,-5.881889 -0.07087,-2.267717 0.318897,-4.429134 1.204724,-6.484252 1.665354,-3.897638 4.464567,-6.661418 8.468504,-8.291339 3.968503,-1.629921 7.901574,-1.559055 11.763779,0.248032 -0.956693,-1.204725 -1.984252,-2.019685 -3.047244,-2.480315 -3.57874,-0.992126 -7.299213,-0.673229 -11.19685,0.956693 -0.673228,0.283464 -1.275591,0.602362 -1.877953,0.921259 -0.177165,0.03543 -0.354331,0.03543 -0.531496,0.03543 -0.744094,-0.07087 -1.665354,-0.673228 -2.692913,-1.771653 -0.318898,-0.354331 -0.602362,-0.248032 -0.814961,0.283464 -0.212598,0.354331 -0.318897,0.779528 -0.318897,1.240158 -0.03543,0.779528 0.03543,1.771654 0.248031,3.047244 -0.673228,-0.496063 -1.27559,-0.956693 -1.842519,-1.38189 -1.098426,-0.81496 -1.736221,-1.062992 -1.877953,-0.673228 -0.602362,1.169291 -0.283465,2.905512 0.92126,5.102362 C 75.720469,67.712598 74.870076,67.5 73.452753,67.110236"
         style="fill:#070101;fill-opacity:1;fill-rule:nonzero;stroke:none"
         inkscape:connector-curvature="0" />
      <path
         id="path5096"
         d="m 112.32283,61.334645 c 0.6378,-0.921259 1.34646,-1.73622 2.12598,-2.480314 m 12.89764,0.318897 c -0.24803,-0.248031 -0.46063,-0.496063 -0.74409,-0.708661 m 1.13385,22.110236 c 0.38977,-0.531496 0.77953,-1.133858 1.09843,-1.736221 0.14173,-0.283464 0.28346,-0.566929 0.46063,-0.850393"
         style="fill:none;stroke:#080101;stroke-width:0.03543307px;stroke-linecap:butt;stroke-linejoin:miter;stroke-miterlimit:4;stroke-opacity:1;stroke-dasharray:none"
         inkscape:connector-curvature="0" />
      <path
         id="path5098"
         d="m 112.60629,87.909449 c 1.13386,-0.992126 1.70079,-2.196851 1.66536,-3.614174 -0.0354,-1.381889 -0.60236,-2.551181 -1.80709,-3.507874 -1.13386,-0.992126 -2.55118,-1.488189 -4.1811,-1.452756 -1.59449,0.03543 -2.94094,0.56693 -4.11024,1.594489 -1.13385,0.992126 -1.66535,2.161417 -1.66535,3.57874 0.0354,1.381889 0.63779,2.586614 1.80709,3.57874 1.20472,0.956693 2.58661,1.452756 4.1811,1.417323 1.62992,-0.03543 3.01181,-0.566929 4.11023,-1.594488"
         style="fill:#da4d5d;fill-opacity:1;fill-rule:nonzero;stroke:none"
         inkscape:connector-curvature="0" />
    </g>
  </g>
</svg>
