<?xml version="1.0" encoding="UTF-8" standalone="no"?>
<!-- Created with Inkscape (http://www.inkscape.org/) -->

<svg
   xmlns:dc="http://purl.org/dc/elements/1.1/"
   xmlns:cc="http://creativecommons.org/ns#"
   xmlns:rdf="http://www.w3.org/1999/02/22-rdf-syntax-ns#"
   xmlns:svg="http://www.w3.org/2000/svg"
   xmlns="http://www.w3.org/2000/svg"
   xmlns:sodipodi="http://sodipodi.sourceforge.net/DTD/sodipodi-0.dtd"
   xmlns:inkscape="http://www.inkscape.org/namespaces/inkscape"
   width="169.54813"
   height="188.9216"
   id="svg5696"
   version="1.1"
   inkscape:version="0.48.4 r9939"
   sodipodi:docname="abby8.svg">
  <defs
     id="defs5698" />
  <sodipodi:namedview
     id="base"
     pagecolor="#ffffff"
     bordercolor="#666666"
     borderopacity="1.0"
     inkscape:pageopacity="0.0"
     inkscape:pageshadow="2"
     inkscape:zoom="0.77472527"
     inkscape:cx="-8.5396508"
     inkscape:cy="62.468722"
     inkscape:current-layer="layer1"
     inkscape:document-units="px"
     showgrid="false"
     inkscape:window-width="942"
     inkscape:window-height="591"
     inkscape:window-x="414"
     inkscape:window-y="49"
     inkscape:window-maximized="0"
     fit-margin-top="0"
     fit-margin-left="0"
     fit-margin-right="0"
     fit-margin-bottom="0" />
  <metadata
     id="metadata5701">
    <rdf:RDF>
      <cc:Work
         rdf:about="">
        <dc:format>image/svg+xml</dc:format>
        <dc:type
           rdf:resource="http://purl.org/dc/dcmitype/StillImage" />
        <dc:title></dc:title>
      </cc:Work>
    </rdf:RDF>
  </metadata>
  <g
     id="layer1"
     inkscape:label="Layer 1"
     inkscape:groupmode="layer"
     transform="translate(-118.6411,-113.54712)">
    <g
       transform="translate(-24.780177,-414.44365)"
       id="g661">
      <path
         inkscape:connector-curvature="0"
         style="fill:#e27c9f"
         d="m 198.671,653.348 c 0.902,-2.016 1.46,-4.314 1.715,-6.852 0.272,-3.189 -0.102,-5.793 -1.14,-7.852 l -0.081,-0.104 c -3.606,-6.34 -7.712,-10.92 -12.262,-13.719 -5.807,-3.631 -11.997,-4.248 -18.53,-1.867 -3.743,1.336 -5.952,4.137 -6.605,8.352 -0.543,3.57 0.183,6.777 2.146,9.645 1.664,2.41 3.797,4.631 6.401,6.65 0.614,0.443 1.348,0.973 2.187,1.551 -0.962,0.375 -1.911,0.854 -2.88,1.447 -4.154,2.5 -6.12,5.795 -5.878,9.854 l -0.012,0.027 c 0.099,4.498 2.635,6.869 7.658,7.076 1.811,0.107 4.99,-0.348 9.527,-1.348 9.008,-1.995 14.933,-6.269 17.754,-12.86 m -12.876,-26.606 c 4.342,2.701 8.233,7.061 11.667,13.096 0.862,1.758 1.187,3.994 0.949,6.693 -0.212,2.242 -0.703,4.256 -1.495,6.037 -2.615,5.867 -8.014,9.689 -16.167,11.479 -4.294,0.953 -7.309,1.393 -9.042,1.318 -3.84,-0.166 -5.845,-1.912 -5.974,-5.256 -0.134,-3.127 1.429,-5.689 4.666,-7.635 2.834,-1.689 5.596,-2.404 8.325,-2.092 -3.176,-1.877 -5.558,-3.42 -7.173,-4.643 -2.444,-1.885 -4.445,-3.979 -6.017,-6.25 -1.638,-2.402 -2.26,-5.088 -1.8,-8.066 0.491,-3.25 2.17,-5.379 5.048,-6.414 6.003,-2.187 11.663,-1.591 17.013,1.733"
         id="path663" />
      <path
         inkscape:connector-curvature="0"
         style="fill:#f8e6f0"
         d="m 197.463,639.838 c -3.435,-6.035 -7.325,-10.395 -11.667,-13.096 -5.35,-3.324 -11.011,-3.92 -17.013,-1.732 -2.879,1.035 -4.558,3.164 -5.048,6.414 -0.46,2.979 0.161,5.664 1.8,8.066 1.572,2.273 3.572,4.365 6.016,6.25 1.616,1.223 3.998,2.766 7.173,4.643 -2.729,-0.312 -5.49,0.402 -8.324,2.092 -3.238,1.945 -4.801,4.508 -4.666,7.635 0.128,3.344 2.133,5.09 5.973,5.256 1.733,0.074 4.749,-0.365 9.042,-1.318 8.154,-1.789 13.553,-5.611 16.168,-11.479 0.792,-1.781 1.282,-3.795 1.494,-6.037 0.238,-2.7 -0.087,-4.934 -0.948,-6.694"
         id="path665" />
      <path
         inkscape:connector-curvature="0"
         style="fill:#e27c9f"
         d="m 212.219,656.449 c -0.732,-2.082 -1.097,-4.422 -1.145,-6.969 -0.009,-3.201 0.58,-5.768 1.787,-7.734 l 0.086,-0.092 c 4.121,-6.025 8.591,-10.252 13.355,-12.664 6.089,-3.141 12.311,-3.246 18.625,-0.332 3.62,1.639 5.592,4.613 5.895,8.867 0.246,3.602 -0.744,6.742 -2.934,9.436 -1.86,2.268 -4.169,4.303 -6.929,6.102 -0.652,0.393 -1.427,0.859 -2.312,1.363 0.93,0.457 1.833,1.01 2.752,1.684 3.936,2.838 5.622,6.281 5.046,10.307 l 0.01,0.025 c -0.472,4.479 -3.194,6.633 -8.216,6.422 -1.817,-0.039 -4.947,-0.758 -9.387,-2.127 -8.814,-2.735 -14.363,-7.485 -16.633,-14.288 m 15.032,-25.455 c -4.552,2.336 -8.792,6.357 -12.712,12.09 -1.004,1.682 -1.513,3.881 -1.497,6.596 0.027,2.246 0.347,4.297 0.991,6.137 2.122,6.064 7.187,10.32 15.167,12.777 4.201,1.305 7.168,1.992 8.903,2.059 3.841,0.154 5.983,-1.42 6.387,-4.742 0.393,-3.104 -0.955,-5.789 -4.02,-7.996 -2.685,-1.92 -5.379,-2.857 -8.124,-2.771 3.319,-1.609 5.821,-2.951 7.532,-4.035 2.591,-1.676 4.76,-3.6 6.514,-5.734 1.832,-2.258 2.673,-4.885 2.46,-7.891 -0.221,-3.277 -1.718,-5.537 -4.503,-6.812 -5.801,-2.674 -11.494,-2.551 -17.098,0.322"
         id="path667" />
      <path
         inkscape:connector-curvature="0"
         style="fill:#f8e6f0"
         d="m 214.539,643.084 c 3.92,-5.732 8.16,-9.754 12.712,-12.09 5.604,-2.873 11.297,-2.996 17.098,-0.324 2.785,1.275 4.282,3.535 4.503,6.812 0.213,3.006 -0.628,5.633 -2.46,7.891 -1.754,2.135 -3.923,4.057 -6.514,5.734 -1.711,1.084 -4.213,2.426 -7.532,4.035 2.745,-0.088 5.439,0.852 8.124,2.771 3.065,2.207 4.413,4.891 4.02,7.996 -0.404,3.322 -2.546,4.896 -6.387,4.742 -1.735,-0.066 -4.702,-0.754 -8.903,-2.059 -7.98,-2.457 -13.045,-6.713 -15.167,-12.777 -0.644,-1.84 -0.964,-3.891 -0.992,-6.137 -0.015,-2.713 0.494,-4.914 1.498,-6.594"
         id="path669" />
      <path
         inkscape:connector-curvature="0"
         style="fill:#c4084a"
         d="m 186.677,662.637 2.344,-1.523 -2.355,1.123 c -0.026,0.085 -0.023,0.201 0.011,0.4"
         id="path671" />
      <path
         inkscape:connector-curvature="0"
         style="fill:#e27c9f"
         d="m 189.021,661.113 -2.344,1.523 -3.189,2.008 c -0.556,3.945 -0.548,9.686 -0.032,17.191 0.246,3.928 0.557,7.018 0.907,9.334 0.067,0.428 0.165,0.828 0.262,1.254 0.228,0.998 0.223,1.889 0.044,2.727 -5.203,2.949 -9.025,6.006 -11.466,9.172 -2.082,2.668 -2.661,4.662 -1.793,5.988 0.864,1.184 2.871,1.1 6.021,-0.219 l -0.028,0.002 c 3.828,-1.711 8.417,-5.072 13.825,-10.096 0.025,-0.059 0.024,-0.143 0.05,-0.23 0.027,-0.029 0.054,-0.086 0.081,-0.145 0.029,-0.031 0.026,-0.115 0.022,-0.26 0.083,-0.117 0.137,-0.264 0.16,-0.463 -0.001,-0.061 -0.007,-0.289 -0.017,-0.689 l -0.046,-0.602 h 0.029 c -0.037,-0.314 -0.075,-0.66 -0.113,-1.004 -0.545,-3.256 -0.992,-6 -1.335,-8.201 -1.558,-10.03 -1.885,-19.147 -1.038,-27.29"
         id="path673" />
      <path
         inkscape:connector-curvature="0"
         style="fill:#c4084a"
         d="m 191.342,659.959 -2.321,1.154 c -0.847,8.143 -0.52,17.26 1.038,27.291 0.344,2.201 0.79,4.945 1.335,8.201 0.038,0.344 0.076,0.689 0.113,1.004 h -0.029 l 0.046,0.602 c 0.01,0.4 0.016,0.629 0.017,0.689 -0.023,0.199 -0.076,0.346 -0.16,0.463 0.004,0.145 0.007,0.229 -0.022,0.26 -0.027,0.059 -0.054,0.115 -0.08,0.145 -0.027,0.088 -0.025,0.172 -0.051,0.23 -5.408,5.023 -9.996,8.387 -13.825,10.096 l 0.028,-0.002 c -3.15,1.318 -5.157,1.402 -6.021,0.219 -0.867,-1.326 -0.289,-3.32 1.793,-5.988 2.441,-3.166 6.264,-6.223 11.467,-9.172 0.178,-0.838 0.183,-1.729 -0.044,-2.727 -0.097,-0.426 -0.196,-0.826 -0.263,-1.254 -0.35,-2.316 -0.661,-5.406 -0.907,-9.334 -0.515,-7.506 -0.524,-13.246 0.032,-17.191 l -2.271,0.922 c -0.552,4.117 -0.51,10.029 0.098,17.762 l 0.001,0.029 c 0.225,3.121 0.466,5.727 0.752,7.873 0.043,0.514 0.086,1.031 0.1,1.576 0.004,0.199 -0.017,0.43 -0.07,0.66 0,0.029 0,0.029 0.03,0.057 l -2.313,1.496 c -3.522,2.42 -6.211,4.93 -8.124,7.506 -2.524,3.254 -3.661,5.895 -3.348,7.924 0.051,0.801 0.355,1.541 0.918,2.213 0.633,1.102 1.766,1.617 3.401,1.574 1.233,-0.061 2.857,-0.477 4.846,-1.248 l 0.027,-0.029 c 1.305,-0.607 2.718,-1.363 4.243,-2.295 2.965,-1.943 6.309,-4.615 10.062,-8.07 0.14,-0.146 0.25,-0.324 0.39,-0.498 1.081,-1.436 1.555,-3.025 1.479,-4.803 -0.074,-0.631 -0.151,-1.404 -0.263,-2.318 v -0.057 c -0.518,-3.285 -0.936,-6.033 -1.222,-8.232 l -0.004,-0.086 c -1.437,-9.867 -1.73,-18.728 -0.878,-26.642"
         id="path675" />
      <path
         inkscape:connector-curvature="0"
         style="fill:#c4084a"
         d="m 202.485,663.811 2.114,-1.826 -2.178,1.432 c -0.015,0.087 0.004,0.2 0.064,0.394"
         id="path677" />
      <path
         inkscape:connector-curvature="0"
         style="fill:#e27c9f"
         d="m 204.599,661.984 -2.114,1.826 -2.889,2.42 c -0.018,3.986 0.765,9.672 2.289,17.039 0.776,3.855 1.501,6.875 2.159,9.125 0.126,0.414 0.276,0.797 0.431,1.207 0.36,0.959 0.474,1.842 0.41,2.693 -4.755,3.625 -8.131,7.17 -10.122,10.639 -1.702,2.924 -2.006,4.979 -0.968,6.174 1.016,1.055 2.993,0.703 5.936,-1.027 l -0.027,0.004 c 3.564,-2.211 7.656,-6.162 12.335,-11.867 0.017,-0.064 0.003,-0.148 0.018,-0.238 0.023,-0.033 0.042,-0.094 0.062,-0.154 0.023,-0.033 0.009,-0.117 -0.013,-0.26 0.065,-0.127 0.099,-0.277 0.096,-0.48 -0.008,-0.059 -0.047,-0.285 -0.112,-0.68 l -0.124,-0.592 0.027,-0.004 c -0.08,-0.305 -0.163,-0.643 -0.247,-0.977 -0.98,-3.154 -1.793,-5.812 -2.431,-7.947 -2.899,-9.729 -4.454,-18.719 -4.716,-26.901"
         id="path679" />
      <path
         inkscape:connector-curvature="0"
         style="fill:#c4084a"
         d="m 206.744,660.527 -2.145,1.457 c 0.262,8.182 1.817,17.172 4.716,26.9 0.638,2.135 1.45,4.793 2.431,7.947 0.084,0.334 0.167,0.672 0.247,0.977 l -0.027,0.004 0.124,0.592 c 0.065,0.395 0.104,0.621 0.112,0.68 0.003,0.203 -0.031,0.354 -0.096,0.48 0.022,0.143 0.036,0.227 0.013,0.26 -0.02,0.061 -0.039,0.121 -0.062,0.154 -0.015,0.09 -10e-4,0.174 -0.018,0.238 -4.679,5.705 -8.771,9.656 -12.335,11.867 l 0.027,-0.004 c -2.943,1.73 -4.92,2.082 -5.936,1.027 -1.038,-1.195 -0.734,-3.25 0.968,-6.174 1.991,-3.467 5.367,-7.014 10.122,-10.639 0.064,-0.852 -0.05,-1.734 -0.41,-2.693 -0.155,-0.41 -0.305,-0.793 -0.431,-1.207 -0.658,-2.25 -1.383,-5.27 -2.159,-9.125 -1.524,-7.367 -2.307,-13.053 -2.289,-17.039 l -2.126,1.221 c 0.009,4.154 0.85,10.006 2.495,17.586 l 0.005,0.027 c 0.645,3.064 1.236,5.611 1.809,7.699 0.112,0.504 0.224,1.01 0.313,1.547 0.031,0.199 0.039,0.43 0.021,0.666 0.004,0.029 0.004,0.029 0.037,0.053 l -2.091,1.793 c -3.165,2.873 -5.49,5.723 -7.037,8.535 -2.063,3.562 -2.832,6.334 -2.247,8.303 0.159,0.787 0.562,1.479 1.21,2.068 0.775,1.008 1.967,1.365 3.581,1.102 1.215,-0.227 2.766,-0.859 4.634,-1.891 l 0.022,-0.033 c 1.21,-0.777 2.51,-1.719 3.896,-2.846 2.673,-2.326 5.626,-5.424 8.878,-9.357 0.12,-0.164 0.204,-0.354 0.317,-0.547 0.879,-1.566 1.135,-3.207 0.818,-4.955 -0.158,-0.617 -0.34,-1.373 -0.571,-2.264 l -0.009,-0.057 c -0.959,-3.186 -1.743,-5.85 -2.324,-7.992 l -0.015,-0.084 c -2.757,-9.578 -4.242,-18.319 -4.468,-26.276"
         id="path681" />
      <path
         inkscape:connector-curvature="0"
         style="fill:#e27c9f"
         d="m 188.125,619.918 -1.666,-0.645 -2.724,-1.051 c 0.016,0.27 0.661,2.154 1.982,5.602 1.357,4.084 2.023,7.799 2.036,11.164 0.031,6.977 -2.67,12.264 -8.075,15.85 -1.577,1.043 -3.403,1.947 -5.437,2.736 l -4.593,1.369 -0.662,0.486 -5.938,1.664 -0.151,0.875 1.62,3.48 10.413,-2.787 c 2.13,-0.787 4.089,-1.674 5.893,-2.637 7.729,-4.277 11.889,-10.51 12.465,-18.719 0.267,-3.545 -0.186,-7.357 -1.34,-11.41 -1.18,-3.34 -1.758,-5.061 -1.707,-5.168 l -2.116,-0.809 z"
         id="path683" />
      <path
         inkscape:connector-curvature="0"
         style="fill:#c4084a"
         d="m 192.508,621.523 -4.384,-1.604 2.116,0.809 c -0.051,0.107 0.527,1.828 1.707,5.168 1.154,4.053 1.607,7.865 1.34,11.41 -0.575,8.209 -4.736,14.441 -12.465,18.719 -1.804,0.963 -3.763,1.85 -5.893,2.637 l -10.413,2.787 -1.619,-3.48 -0.342,-0.752 0.493,-0.123 5.938,-1.664 0.662,-0.486 4.592,-1.369 c 2.034,-0.789 3.86,-1.693 5.437,-2.736 5.405,-3.586 8.106,-8.873 8.075,-15.85 -0.013,-3.365 -0.679,-7.08 -2.036,-11.164 -1.321,-3.447 -1.966,-5.332 -1.982,-5.602 l -2.35,-0.066 c -0.059,0.326 0.637,2.408 2.075,6.221 1.274,3.799 1.918,7.307 1.949,10.484 -0.033,6.047 -2.371,10.67 -6.963,13.908 -1.481,1.045 -3.221,1.924 -5.169,2.684 l -5.187,1.559 -0.572,0.24 -7.134,2.008 -0.751,1.582 3.02,6.506 1.615,0.752 10.414,-2.941 c 2.162,-0.701 4.128,-1.5 5.965,-2.381 9.406,-4.617 14.427,-11.699 15.027,-21.172 0.258,-3.789 -0.196,-7.846 -1.423,-12.148 l -0.022,-0.059 -0.034,-0.08 c -0.874,-2.517 -1.454,-3.775 -1.686,-3.797"
         id="path685" />
      <path
         inkscape:connector-curvature="0"
         style="fill:#c4084a"
         d="m 186.459,619.273 c -0.207,-0.582 -0.341,-0.906 -0.345,-0.998 l -2.38,-0.053 2.725,1.051 z"
         id="path687" />
      <path
         inkscape:connector-curvature="0"
         style="fill:#c4084a"
         d="m 146.602,665.24 c 0.638,0.268 1.416,0.35 2.283,0.271 -1.296,3.416 -0.259,6.092 3.056,8.049 2.812,1.791 5.213,1.146 7.28,-1.904 0.278,-0.455 0.557,-0.91 0.76,-1.396 0.962,0.227 1.754,0.271 2.418,0.154 0.027,-0.012 0.027,-0.012 0.065,0.004 3.135,-0.293 4.925,-2.734 5.38,-7.293 0.104,-0.043 0.16,-0.285 0.156,-0.748 -0.12,-0.291 -0.273,-0.816 -0.467,-1.514 -0.62,0.225 -1.213,0.438 -1.836,0.662 -0.149,4.094 -1.345,6.318 -3.646,6.674 -0.432,0.086 -0.907,0.062 -1.401,-0.014 -0.342,-0.076 -0.685,-0.15 -1.022,-0.293 -0.636,-0.266 -1.042,-0.502 -1.23,-0.734 0.103,0.174 0.046,0.57 -0.112,1.162 -0.197,0.732 -0.493,1.441 -0.941,2.092 -1.213,1.801 -2.633,2.197 -4.269,1.225 -2.343,-1.395 -3.01,-3.322 -1.941,-5.777 0.637,-1.469 1.484,-2.654 2.579,-3.539 0.233,-0.186 0.476,-0.35 0.719,-0.512 -0.337,-0.143 -1.001,-0.021 -1.995,0.352 -1.544,0.545 -2.442,0.852 -2.718,0.932 -2.347,0.623 -3.681,-0.287 -3.954,-2.686 -0.203,-1.775 1.528,-2.922 5.22,-3.445 3.483,-0.5 5.9,-0.283 7.181,0.648 -0.013,-0.18 -0.024,-0.361 -0.036,-0.545 -0.823,-0.869 -1.662,-1.703 -2.463,-2.52 l -0.01,-0.029 c -0.194,-0.014 -0.376,-0.004 -0.54,-0.027 -1.293,-0.055 -2.78,0.023 -4.445,0.277 -5.485,0.762 -7.842,2.723 -7.127,5.898 0.238,2.014 0.974,3.354 2.167,4.074 0.268,0.2 0.552,0.364 0.889,0.502"
         id="path689" />
      <path
         inkscape:connector-curvature="0"
         style="fill:#e27c9f"
         d="m 150.985,656.961 c -3.692,0.523 -5.422,1.67 -5.22,3.445 0.273,2.398 1.607,3.309 3.954,2.686 0.276,-0.08 1.175,-0.387 2.719,-0.932 0.993,-0.373 1.657,-0.494 1.994,-0.352 -0.242,0.162 -0.486,0.326 -0.719,0.514 -1.095,0.883 -1.941,2.068 -2.579,3.537 -1.068,2.455 -0.401,4.383 1.941,5.777 1.636,0.973 3.056,0.576 4.269,-1.225 0.449,-0.65 0.744,-1.359 0.941,-2.092 0.158,-0.592 0.215,-0.988 0.113,-1.162 0.188,0.232 0.593,0.469 1.23,0.734 0.336,0.143 0.679,0.217 1.021,0.293 0.494,0.078 0.969,0.1 1.401,0.014 2.302,-0.354 3.497,-2.58 3.646,-6.674 0.623,-0.225 1.216,-0.438 1.836,-0.662 -0.312,-0.986 -0.571,-1.996 -0.793,-2.99 -1.828,0.533 -3.684,0.924 -5.604,1.152 -0.637,0.107 -1.167,-0.047 -1.595,-0.49 -0.491,-0.512 -0.945,-1.01 -1.41,-1.471 0.012,0.184 0.023,0.365 0.037,0.545 -1.282,-0.93 -3.699,-1.147 -7.182,-0.647"
         id="path691" />
      <path
         inkscape:connector-curvature="0"
         style="fill:#c4084a"
         d="m 163.843,649.914 c -0.856,-0.424 -2.108,-0.527 -3.708,-0.273 -0.144,0.025 -0.26,0.045 -0.378,0.061 l -0.026,0.012 c -0.953,0.174 -1.727,0.555 -2.308,1.104 -0.333,0.32 -0.633,0.723 -0.858,1.156 -0.267,0.482 -0.439,1.051 -0.537,1.709 -0.057,0.24 -0.087,0.471 -0.095,0.752 -0.016,0.039 -0.006,0.064 -0.021,0.102 -0.09,0.006 -0.165,-0.025 -0.255,-0.02 l 0.011,0.029 c 0.801,0.816 1.639,1.65 2.463,2.52 -0.02,-0.268 -0.012,-0.553 -0.02,-0.795 -0.031,-0.607 -0.016,-1.172 0.034,-1.658 0.048,-0.484 0.147,-0.93 0.314,-1.275 0.369,-0.834 1.037,-1.326 2.025,-1.482 1.393,-0.232 2.377,-0.107 2.944,0.373 0.069,0.096 0.167,0.178 0.248,0.299 0.125,0.229 0.223,0.469 0.263,0.793 0.024,0.205 0.022,0.58 -0.001,1.055 -0.003,0.217 -0.035,0.447 -0.069,0.74 -0.013,0.037 0.006,0.09 -0.007,0.127 -0.04,0.357 -0.038,0.666 -0.02,0.939 -0.002,0.217 0.047,0.414 0.102,0.549 0.802,-0.238 1.604,-0.475 2.384,-0.764 -0.038,-0.17 -0.077,-0.34 -0.116,-0.51 -0.033,-0.082 -0.038,-0.172 -0.046,-0.26 -0.031,-0.082 -0.05,-0.197 -0.055,-0.289 0.003,-0.062 -0.018,-0.115 -10e-4,-0.154 0.077,-0.188 0.134,-0.428 0.154,-0.682 0.048,-0.488 -0.01,-0.928 -0.151,-1.273 l -0.01,-0.025 0.025,-0.012 c -0.257,-1.385 -1.022,-2.342 -2.285,-2.848"
         id="path693" />
      <path
         inkscape:connector-curvature="0"
         style="fill:#e27c9f"
         d="m 159.54,658.535 c 0.429,0.443 0.958,0.598 1.596,0.49 1.919,-0.229 3.775,-0.619 5.604,-1.152 -0.094,-0.303 -0.15,-0.59 -0.206,-0.879 -0.078,-0.338 -0.156,-0.68 -0.206,-1.029 -0.781,0.289 -1.582,0.525 -2.384,0.762 -0.055,-0.133 -0.105,-0.33 -0.102,-0.547 -0.018,-0.273 -0.021,-0.582 0.019,-0.939 0.014,-0.037 -0.006,-0.09 0.008,-0.127 0.035,-0.293 0.066,-0.523 0.069,-0.74 0.022,-0.475 0.024,-0.85 0.001,-1.055 -0.041,-0.324 -0.139,-0.564 -0.263,-0.793 -0.081,-0.121 -0.179,-0.203 -0.248,-0.301 -0.567,-0.479 -1.551,-0.604 -2.944,-0.371 -0.988,0.156 -1.656,0.648 -2.025,1.482 -0.168,0.346 -0.266,0.791 -0.314,1.275 -0.05,0.486 -0.065,1.051 -0.035,1.658 0.009,0.242 0,0.527 0.02,0.795 0.466,0.461 0.919,0.957 1.41,1.471"
         id="path695" />
      <path
         inkscape:connector-curvature="0"
         style="fill:#3793d1"
         d="m 212.142,648.496 c 1.305,2.832 2.435,5.684 3.363,8.58 3.05,9.512 3.483,17.584 1.295,24.213 l -0.5,1.693 -1.829,-0.16 c -1.232,-0.068 -2.475,-0.455 -3.726,-1.189 -0.173,0.537 -0.348,1.072 -0.579,1.605 l -0.676,1.742 -1.872,-0.393 c -0.968,-0.143 -1.924,-0.512 -2.867,-1.111 -0.58,1.086 -1.21,2.057 -1.922,2.965 l -1.217,1.684 -1.772,-1.164 c -1.278,-0.789 -2.415,-2.004 -3.442,-3.643 -0.521,0.572 -1.043,1.117 -1.585,1.604 l -1.578,1.461 -1.523,-1.521 c -0.272,-0.273 -0.544,-0.549 -0.788,-0.822 -0.727,0.68 -1.481,1.295 -2.288,1.852 l -1.711,1.285 -1.339,-1.717 c -1.072,-1.352 -1.892,-3.123 -2.483,-5.371 -0.149,0.109 -0.326,0.215 -0.505,0.289 l -1.784,1.076 -1.191,-1.791 c -0.238,-0.359 -0.477,-0.746 -0.71,-1.16 -1.282,0.816 -2.609,1.402 -3.98,1.783 l -1.933,0.636 -0.784,-1.883 c -1.249,-2.773 -1.557,-6.496 -0.917,-11.172 1.188,-8.754 6.03,-17.59 14.554,-26.498 l 1.771,-4.873 22.347,3.686 0.745,5.588 1.372,2.666 0.054,0.06 z m -23.051,-9.5 -1.398,3.883 -0.08,-0.119 c -8.217,8.557 -12.923,17.025 -14.088,25.406 -0.554,4.193 -0.314,7.512 0.753,9.986 1.959,-0.609 3.861,-1.707 5.706,-3.297 0.35,1.396 0.857,2.576 1.521,3.562 1.099,-0.656 2.15,-1.457 3.153,-2.406 0.398,3.586 1.308,6.281 2.704,8.055 1.406,-0.982 2.712,-2.26 3.895,-3.828 0.589,1.24 1.251,2.256 2.041,3.018 1.272,-1.164 2.418,-2.592 3.461,-4.285 1.181,2.969 2.618,5.004 4.307,6.105 1.148,-1.486 2.109,-3.213 2.88,-5.15 1.389,1.371 2.749,2.193 4.143,2.479 0.57,-1.465 1.032,-3.02 1.354,-4.639 1.768,1.738 3.527,2.672 5.241,2.828 1.993,-6.238 1.564,-13.85 -1.315,-22.834 -0.906,-2.781 -1.983,-5.572 -3.264,-8.318 l -1.524,-2.988 -0.587,-4.344 -18.903,-3.114 z"
         id="path697" />
      <path
         inkscape:connector-curvature="0"
         style="fill:#86c1ea"
         d="m 187.693,642.879 1.398,-3.883 18.903,3.113 0.587,4.344 1.524,2.99 c 1.281,2.744 2.358,5.535 3.264,8.316 2.879,8.984 3.308,16.596 1.315,22.834 -1.714,-0.156 -3.473,-1.09 -5.241,-2.828 -0.544,-0.52 -1.085,-1.125 -1.622,-1.787 -0.697,-0.873 -1.364,-1.801 -1.967,-2.811 -0.458,2.5 -1.075,4.764 -1.908,6.758 -0.771,1.938 -1.732,3.664 -2.88,5.15 -1.689,-1.102 -3.126,-3.137 -4.307,-6.105 -0.201,-0.5 -0.401,-1.029 -0.57,-1.586 -0.417,-1.258 -0.771,-2.629 -1.063,-4.053 -1.131,2.721 -2.411,5.006 -3.87,6.906 -1.182,1.568 -2.488,2.846 -3.895,3.828 -1.395,-1.773 -2.305,-4.469 -2.703,-8.055 -0.033,-0.404 -0.069,-0.809 -0.103,-1.242 -0.135,-1.674 -0.122,-3.396 0.039,-5.197 -1.472,2.129 -3.011,3.906 -4.61,5.283 -1.845,1.59 -3.747,2.688 -5.707,3.297 -1.066,-2.475 -1.306,-5.793 -0.752,-9.986 1.165,-8.381 5.871,-16.85 14.088,-25.406 l 0.08,0.12 z"
         id="path699" />
      <path
         inkscape:connector-curvature="0"
         style="fill:#bc9fca"
         d="m 196.188,677.385 c 0.169,0.557 0.369,1.086 0.57,1.586 -1.043,1.693 -2.188,3.121 -3.461,4.285 -0.79,-0.762 -1.452,-1.777 -2.041,-3.02 1.458,-1.898 2.739,-4.184 3.869,-6.904 0.292,1.424 0.646,2.795 1.063,4.053"
         id="path701" />
      <path
         inkscape:connector-curvature="0"
         style="fill:#bc9fca"
         d="m 208.088,682.4 c -1.394,-0.281 -2.753,-1.104 -4.142,-2.475 0.833,-1.994 1.449,-4.258 1.907,-6.758 0.603,1.01 1.27,1.938 1.967,2.811 0.537,0.662 1.078,1.268 1.622,1.787 -0.32,1.62 -0.784,3.174 -1.354,4.635"
         id="path703" />
      <path
         inkscape:connector-curvature="0"
         style="fill:#bc9fca"
         d="m 184.658,676.012 c -1.002,0.949 -2.054,1.75 -3.153,2.406 -0.663,-0.986 -1.171,-2.166 -1.521,-3.562 1.599,-1.377 3.138,-3.156 4.61,-5.283 -0.161,1.801 -0.174,3.523 -0.039,5.197 0.035,0.433 0.07,0.837 0.103,1.242"
         id="path705" />
      <path
         inkscape:connector-curvature="0"
         style="fill:#c4084a"
         d="m 214.663,651.75 0.024,0.035 c 1.44,0.873 2.837,1.855 4.158,2.947 2.726,2.219 5.309,4.621 7.693,7.197 2.663,2.848 5.105,5.84 7.32,8.973 0.029,0.004 0.029,0.004 0.026,0.031 0.786,1.188 1.424,2.381 1.976,3.592 0.081,0.041 0.053,0.037 -0.025,-0.033 l 2.802,5.508 -0.003,0.029 c 0.134,0.076 0.259,0.211 0.324,0.365 0.164,0.285 0.208,0.582 0.129,0.918 -0.072,0.307 -0.284,0.568 -0.573,0.758 l -7.531,4.367 c -0.285,0.164 -0.578,0.18 -0.914,0.1 -0.308,-0.072 -0.573,-0.256 -0.764,-0.543 -0.065,-0.127 -0.108,-0.248 -0.12,-0.367 -0.023,-0.031 -0.02,-0.061 -0.045,-0.094 l -2.575,-5.676 c -0.069,-0.127 -0.113,-0.219 -0.129,-0.309 -0.446,-1.139 -1.064,-2.271 -1.855,-3.43 -0.989,-1.391 -2.072,-2.734 -3.224,-4.002 -1.983,-2.143 -3.996,-4.258 -6.105,-6.332 -1.979,-1.969 -4.104,-3.723 -6.372,-5.297 0.004,-0.029 -0.025,-0.031 -0.056,-0.008 -0.208,-0.174 -0.386,-0.346 -0.516,-0.451 l -0.056,-0.008 0.004,-0.027 c -0.852,-0.732 -1.345,-1.529 -1.463,-2.33 -0.121,-0.568 -0.152,-1.152 -0.039,-1.744 0.299,-1.467 0.807,-2.582 1.466,-3.328 0.029,0.004 0.029,0.004 0.061,-0.021 0.732,-0.852 1.795,-1.393 3.128,-1.576 0.239,-0.055 0.584,-0.033 1.034,0.059 0.033,-0.023 0.063,-0.02 0.09,-0.016 0.366,0.084 0.673,0.156 0.922,0.25 0.029,0.004 0.029,0.004 0.06,-0.02 0.248,0.094 0.629,0.262 1.117,0.506 l 0.031,-0.023 z m -3.927,1.697 -0.033,0.025 -0.028,-0.004 c -0.031,0.023 -0.04,0.08 -0.073,0.105 l -0.028,-0.004 -0.004,0.025 -0.028,-0.002 c -0.172,0.178 -0.375,0.381 -0.586,0.641 -0.03,-0.006 -0.033,0.023 -0.066,0.049 -0.308,0.332 -0.459,0.57 -0.513,0.736 l -0.036,0.053 c -0.252,0.748 -0.309,1.35 -0.237,1.852 0.117,0.6 0.526,1.178 1.168,1.764 l 0.023,0.031 c 0.029,0.004 0.053,0.039 0.045,0.094 0.392,0.289 1.103,0.799 2.069,1.547 0.944,0.686 1.7,1.287 2.271,1.748 0.577,0.43 3.369,3.182 8.376,8.281 l -0.004,0.029 c 1.233,1.309 2.226,2.467 2.972,3.531 1.334,1.816 2.327,3.584 2.979,5.303 0.023,0.029 0.023,0.029 -0.009,0.057 l 0.024,0.029 c 0.024,0.035 0.074,0.1 0.092,0.16 l -0.031,0.023 1.874,4.1 5.253,-3.043 -2.385,-4.781 c -0.046,-0.094 -0.086,-0.215 -0.102,-0.305 -1.187,-2.434 -2.803,-4.898 -4.912,-7.377 -0.17,-0.227 -0.372,-0.43 -0.571,-0.662 -0.025,-0.033 -0.025,-0.033 -0.048,-0.064 -5.7,-5.926 -9.017,-9.277 -9.927,-10.016 -0.907,-0.74 -1.768,-1.414 -2.573,-2.051 -0.913,-0.713 -1.518,-1.15 -1.815,-1.307 -0.892,-0.445 -1.464,-0.705 -1.774,-0.777 -0.533,-0.106 -0.977,-0.053 -1.363,0.21"
         id="path707" />
      <path
         inkscape:connector-curvature="0"
         style="fill:#e27c9f"
         d="m 210.703,653.473 0.033,-0.025 c 0.386,-0.264 0.83,-0.316 1.363,-0.209 0.311,0.072 0.882,0.332 1.774,0.777 0.297,0.156 0.902,0.594 1.815,1.307 0.806,0.637 1.666,1.311 2.573,2.051 0.91,0.738 4.228,4.09 9.927,10.016 0.023,0.031 0.023,0.031 0.048,0.064 0.199,0.232 0.401,0.436 0.571,0.662 2.109,2.479 3.726,4.943 4.913,7.379 0.015,0.088 0.055,0.209 0.101,0.303 l 2.385,4.781 -5.253,3.043 -1.874,-4.1 0.031,-0.023 c -0.017,-0.061 -0.068,-0.125 -0.092,-0.16 l -0.024,-0.029 c 0.032,-0.027 0.032,-0.027 0.009,-0.057 -0.652,-1.719 -1.645,-3.486 -2.979,-5.305 -0.746,-1.062 -1.739,-2.221 -2.971,-3.529 l 0.004,-0.029 c -5.008,-5.1 -7.8,-7.852 -8.377,-8.281 -0.571,-0.461 -1.327,-1.062 -2.27,-1.748 -0.967,-0.748 -1.678,-1.258 -2.07,-1.547 0.009,-0.055 -0.016,-0.09 -0.045,-0.094 l -0.023,-0.031 c -0.642,-0.586 -1.051,-1.164 -1.168,-1.764 -0.072,-0.502 -0.015,-1.104 0.237,-1.852 l 0.036,-0.053 c 0.054,-0.166 0.205,-0.404 0.513,-0.736 0.033,-0.025 0.036,-0.055 0.066,-0.049 0.211,-0.26 0.414,-0.463 0.586,-0.641 l 0.029,0.002 0.003,-0.025 0.028,0.004 c 0.034,-0.025 0.042,-0.082 0.074,-0.107 l 0.027,0.005 z"
         id="path709" />
      <path
         inkscape:connector-curvature="0"
         style="fill:#c4084a"
         d="m 236.773,673.105 c -0.296,0.004 -0.553,0.018 -0.834,0.047 l -0.015,-0.023 c -0.346,0.033 -0.665,0.053 -1.012,0.086 -0.01,0.039 -0.075,0.043 -0.113,0.031 -0.216,0.027 -0.395,0.064 -0.612,0.09 -0.331,0.059 -0.663,0.117 -0.979,0.201 -0.023,0.014 -0.088,0.018 -0.127,0.008 -0.055,-0.037 -0.108,-0.072 -0.111,-0.137 -0.083,-0.084 -0.165,-0.168 -0.261,-0.279 -0.2,-0.285 -0.422,-0.553 -0.642,-0.824 -0.155,-0.207 -0.294,-0.393 -0.497,-0.574 0.761,-0.406 1.349,-0.646 1.765,-0.789 0.43,-0.115 1.616,-0.301 3.521,-0.506 1.929,-0.219 4.301,0.5 7.129,2.184 1.614,0.957 3.056,2.248 4.339,3.895 0.111,0.135 0.197,0.285 0.323,0.445 0.057,0.1 0.116,0.199 0.195,0.283 0.04,0.01 0.07,0.061 0.098,0.109 0.014,0.025 0.028,0.051 0.043,0.074 0.029,0.051 0.058,0.1 0.113,0.135 -0.028,0.016 -0.028,0.016 -0.013,0.039 0.041,0.012 0.068,0.061 0.083,0.086 0.808,1.225 1.421,2.463 1.846,3.709 0.175,0.598 0.329,1.205 0.407,1.857 0.326,2.463 -0.628,4.141 -2.849,5.059 -1.027,0.461 -1.898,0.566 -2.568,0.32 -0.388,3.176 -1.837,4.977 -4.375,5.344 l -0.039,-0.01 -1.694,-2.934 c 0.29,0.33 0.608,0.479 0.929,0.459 0.088,-0.02 0.153,-0.023 0.24,-0.041 l -0.013,-0.025 0.039,0.012 c 0.663,-0.117 1.224,-0.406 1.683,-0.875 0.724,-0.812 1.122,-2.137 1.179,-3.928 0.036,-0.918 -0.047,-1.863 -0.194,-2.809 l -0.555,-2.164 c 0.098,0.109 0.181,0.195 0.278,0.305 0.293,0.393 0.562,0.801 0.778,1.174 0.042,0.076 0.1,0.174 0.143,0.25 0.17,0.467 0.339,0.934 0.536,1.447 0.446,0.771 1.026,1.199 1.764,1.27 0.411,0.027 0.847,-0.023 1.313,-0.193 0.137,-0.047 0.251,-0.082 0.352,-0.137 0.336,-0.162 0.535,-0.51 0.602,-1.078 0.003,-0.4 -0.027,-0.914 -0.101,-1.502 -0.059,-0.33 -0.141,-0.645 -0.227,-0.963 -0.037,-0.01 -0.037,-0.01 -0.027,-0.047 l 0.01,-0.039 c -0.371,-1.279 -0.992,-2.58 -1.875,-3.826 -0.314,-0.482 -0.66,-0.912 -0.978,-1.291 -2.36,-2.653 -5.358,-3.938 -8.997,-3.925"
         id="path711" />
      <path
         inkscape:connector-curvature="0"
         style="fill:#c4084a"
         d="m 238.951,688.824 c -0.026,0.012 -0.026,0.012 0.014,0.025 0.101,0.404 0.214,0.771 0.297,1.086 l -1.578,-2.734 0.019,-0.311 c -0.004,-0.064 -0.007,-0.129 -0.026,-0.217 0.011,-0.037 0.008,-0.104 0.018,-0.143 -0.051,-0.602 -0.074,-1.219 -0.112,-1.859 -0.033,-0.113 -0.027,-0.215 -0.044,-0.305 0.022,-0.246 -0.006,-0.527 -0.026,-0.85 0.006,-0.1 0.137,0.121 0.389,0.672 -0.012,0.041 -0.009,0.105 0.02,0.156 0.181,0.424 0.325,0.904 0.474,1.449 0.04,0.242 0.109,0.531 0.143,0.879 0.013,0.023 0.013,0.023 0.029,0.049 0.113,0.599 0.217,1.3 0.383,2.103"
         id="path713" />
      <path
         inkscape:connector-curvature="0"
         style="fill:#c4084a"
         d="m 237.665,688.205 0.019,-1.004 1.578,2.734 c 0.014,0.025 0.028,0.051 0.042,0.074 0.196,0.451 0.382,0.775 0.59,1.021 l 1.694,2.934 c -0.842,0.322 -1.641,0.088 -2.343,-0.67 -0.123,0.305 -0.272,0.621 -0.42,0.939 l -0.034,0.055 c -1.079,1.98 -2.675,2.836 -4.852,2.568 -0.025,0.014 -0.039,-0.012 -0.052,-0.037 -2.186,-0.164 -3.621,-1.789 -4.272,-4.926 0.009,-0.041 0.009,-0.041 0.021,-0.08 -0.08,-0.254 -0.134,-0.521 -0.164,-0.803 -0.854,0.99 -1.907,1.469 -3.185,1.377 l -0.039,-0.012 c -1.175,-0.082 -2.165,-0.475 -2.966,-1.172 -0.891,-0.68 -1.387,-1.887 -1.455,-3.67 l -0.014,-0.023 c -0.051,-1.465 0.362,-3.395 1.206,-5.838 0.009,-0.037 0.035,-0.055 0.044,-0.094 0.633,-1.721 1.245,-3.072 1.846,-3.982 0.037,-0.451 0.108,-0.791 0.235,-1.029 0.167,-0.23 0.581,-0.602 1.269,-1.133 0.332,0.406 0.653,0.785 0.947,1.18 0.013,0.023 0.013,0.023 0.028,0.049 0.096,0.109 0.155,0.209 0.212,0.311 0.125,0.16 0.251,0.318 0.36,0.453 0.006,0.064 0.035,0.113 0.038,0.18 -0.011,0.037 -0.021,0.078 -0.056,0.131 -0.051,0.027 -0.075,0.043 -0.087,0.082 -0.075,0.041 -0.123,0.072 -0.183,0.139 -0.061,0.068 -0.096,0.121 -0.155,0.191 -0.081,0.146 -0.213,0.32 -0.33,0.52 -0.117,0.199 -0.268,0.455 -0.406,0.732 -0.279,0.494 -0.569,1.027 -0.82,1.566 -0.133,0.344 -0.242,0.672 -0.365,0.975 -0.077,0.211 -0.156,0.42 -0.232,0.631 -0.032,0.119 -0.064,0.236 -0.095,0.354 -1.109,3.195 -1.11,5.314 -0.004,6.369 0.029,0.049 0.083,0.084 0.135,0.119 0.662,0.516 1.419,0.51 2.276,-0.02 0.275,-0.158 0.518,-0.365 0.75,-0.598 0.124,-0.072 0.235,-0.17 0.294,-0.236 0.429,-0.348 0.791,-0.756 1.098,-1.197 0.061,-0.068 0.121,-0.137 0.157,-0.189 l 1.097,-1.662 c -0.056,0.131 -0.089,0.25 -0.094,0.354 -0.032,0.117 -0.013,0.207 -0.026,0.246 0.034,0.346 0.107,0.703 0.141,1.045 -0.002,0.166 0.005,0.297 0.027,0.449 -0.025,0.014 -0.025,0.014 0.015,0.025 l 0.348,2.385 c 0.051,0.201 0.063,0.395 0.089,0.611 0.592,2.346 1.309,3.59 2.129,3.744 0.166,0.004 0.309,0.023 0.476,0.025 0.98,0.029 1.745,-0.312 2.318,-1.041 0.382,-0.486 0.664,-1.146 0.871,-1.994 l 0.01,-0.039 c 0.176,-0.732 0.271,-1.717 0.286,-2.951 0.026,-0.014 0.026,-0.014 0.036,-0.055 0.009,-0.039 -0.02,-0.088 -0.033,-0.113"
         id="path715" />
      <path
         inkscape:connector-curvature="0"
         style="fill:#e27c9f"
         d="m 246.748,678.32 c 0.884,1.246 1.504,2.547 1.875,3.826 l -0.01,0.039 c -0.01,0.037 -0.01,0.037 0.028,0.047 0.085,0.318 0.167,0.633 0.226,0.963 0.075,0.588 0.105,1.102 0.102,1.502 -0.068,0.568 -0.266,0.916 -0.603,1.078 -0.101,0.055 -0.214,0.09 -0.352,0.137 -0.465,0.17 -0.902,0.221 -1.313,0.193 -0.738,-0.07 -1.317,-0.498 -1.764,-1.27 -0.196,-0.514 -0.366,-0.98 -0.536,-1.447 -0.043,-0.076 -0.1,-0.174 -0.143,-0.25 -0.216,-0.373 -0.484,-0.781 -0.778,-1.174 -0.097,-0.109 -0.179,-0.195 -0.277,-0.305 l 0.555,2.164 c 0.147,0.945 0.23,1.891 0.194,2.809 -0.058,1.791 -0.456,3.115 -1.18,3.928 -0.459,0.469 -1.02,0.758 -1.683,0.875 l -0.038,-0.012 0.012,0.025 c -0.087,0.018 -0.151,0.021 -0.24,0.041 -0.592,0.01 -1.113,-0.486 -1.519,-1.48 -0.112,-0.365 -0.223,-0.73 -0.339,-1.16 -0.04,-0.014 -0.04,-0.014 -0.014,-0.025 -0.165,-0.803 -0.27,-1.504 -0.383,-2.102 -0.016,-0.025 -0.016,-0.025 -0.029,-0.049 -0.034,-0.348 -0.103,-0.637 -0.143,-0.879 -0.148,-0.545 -0.293,-1.025 -0.474,-1.451 -0.028,-0.049 -0.032,-0.113 -0.02,-0.154 -0.252,-0.551 -0.383,-0.771 -0.389,-0.672 0.02,0.322 0.048,0.604 0.026,0.85 0.017,0.09 0.011,0.191 0.044,0.305 0.038,0.641 0.061,1.258 0.112,1.859 -0.01,0.039 -0.007,0.104 -0.018,0.143 0.019,0.088 0.022,0.152 0.026,0.217 l -0.038,1.314 c 0.013,0.025 0.042,0.074 0.033,0.113 -0.01,0.041 -0.01,0.041 -0.036,0.055 -0.015,1.234 -0.11,2.219 -0.286,2.951 l -0.01,0.039 c -0.207,0.848 -0.489,1.508 -0.871,1.994 -0.573,0.729 -1.338,1.07 -2.318,1.041 -0.167,-0.002 -0.31,-0.021 -0.476,-0.025 -0.82,-0.154 -1.537,-1.398 -2.129,-3.744 -0.026,-0.217 -0.038,-0.41 -0.089,-0.611 l -0.348,-2.385 c -0.04,-0.012 -0.04,-0.012 -0.015,-0.025 -0.022,-0.152 -0.029,-0.283 -0.027,-0.449 -0.034,-0.342 -0.107,-0.699 -0.141,-1.045 0.013,-0.039 -0.006,-0.129 0.026,-0.246 0.005,-0.104 0.038,-0.223 0.094,-0.354 l -1.097,1.66 c -0.036,0.055 -0.096,0.123 -0.156,0.191 -0.308,0.441 -0.67,0.85 -1.099,1.197 -0.059,0.066 -0.17,0.164 -0.294,0.236 -0.232,0.232 -0.475,0.439 -0.75,0.598 -0.857,0.529 -1.614,0.535 -2.276,0.02 -0.052,-0.035 -0.106,-0.07 -0.135,-0.119 -1.106,-1.055 -1.105,-3.174 0.004,-6.369 0.031,-0.117 0.063,-0.234 0.095,-0.354 0.076,-0.211 0.155,-0.42 0.232,-0.631 0.123,-0.303 0.232,-0.631 0.365,-0.975 0.251,-0.539 0.541,-1.072 0.82,-1.566 0.138,-0.277 0.289,-0.533 0.406,-0.732 0.117,-0.199 0.249,-0.373 0.33,-0.52 0.059,-0.07 0.094,-0.123 0.155,-0.191 0.06,-0.066 0.108,-0.098 0.183,-0.139 0.012,-0.039 0.036,-0.055 0.087,-0.082 0.035,-0.053 0.045,-0.094 0.056,-0.131 -0.003,-0.066 -0.032,-0.115 -0.038,-0.18 -0.109,-0.135 -0.235,-0.295 -0.36,-0.453 -0.057,-0.102 -0.116,-0.201 -0.212,-0.311 -0.015,-0.025 -0.015,-0.025 -0.028,-0.049 -0.294,-0.395 -0.615,-0.773 -0.947,-1.18 0.444,-0.32 0.914,-0.658 1.371,-0.957 l 0.672,-0.85 c 0.995,-0.744 2.025,-1.369 3.114,-1.898 0.203,0.182 0.342,0.367 0.497,0.574 0.221,0.271 0.443,0.539 0.642,0.824 0.096,0.111 0.179,0.195 0.261,0.279 0.003,0.064 0.057,0.1 0.111,0.137 0.039,0.01 0.104,0.004 0.127,-0.008 0.317,-0.084 0.648,-0.143 0.979,-0.201 0.217,-0.025 0.396,-0.062 0.613,-0.09 0.037,0.012 0.103,0.008 0.112,-0.031 0.347,-0.033 0.666,-0.053 1.012,-0.086 l 0.015,0.023 c 0.282,-0.029 0.538,-0.043 0.834,-0.047 3.64,-0.014 6.638,1.271 8.997,3.924 0.317,0.381 0.665,0.811 0.978,1.293"
         id="path717" />
      <path
         inkscape:connector-curvature="0"
         style="fill:#5d1e80"
         d="m 247.228,559.877 0.03,0.01 c 8.507,-2.713 17.921,-0.635 28.272,6.246 3.964,2.668 7.047,4.531 9.217,5.609 2.382,1.139 4.54,1.791 6.503,1.994 2.012,0.154 4.31,-0.133 6.929,-0.85 2.321,-0.705 5.796,-2.021 10.418,-3.924 l 0.322,-0.105 c 1.406,-0.803 2.503,-0.195 3.293,1.826 0.176,0.41 0.352,1.047 0.451,1.953 0.185,1.293 0.269,3.273 0.274,5.98 l 0.03,0.012 c 0.051,6.078 -0.708,11.795 -2.268,17.119 l -0.009,0.029 c -2.162,7.434 -5.619,13.127 -10.449,17.123 -5.107,4.273 -11.544,6.373 -19.356,6.318 0.539,0.514 1.171,1.15 1.855,1.836 l 0.094,0.125 c 0.855,0.996 1.251,1.891 1.169,2.748 0.089,1.168 -0.424,2.16 -1.571,2.975 l -0.038,0.021 c -0.987,0.826 -2.765,1.227 -5.336,1.209 -4.722,-0.018 -10.129,-1.406 -16.158,-4.145 -2.225,-0.996 -4.724,-2.627 -7.521,-4.93 -0.022,-0.035 -0.005,-0.096 0.004,-0.127 -0.051,-0.047 -0.112,-0.064 -0.134,-0.104 -12.45,-10.254 -19.456,-23.348 -21.047,-39.291 -0.039,-0.207 -0.017,-0.398 0.066,-0.568 -0.052,-0.049 -0.113,-0.064 -0.135,-0.105 0.002,-1.596 0.198,-3.072 0.608,-4.393 0.941,-3.281 2.631,-6.221 5.102,-8.807 2.61,-2.735 5.733,-4.643 9.385,-5.784 m -12.129,15.24 c -0.318,1.113 -0.485,2.371 -0.524,3.76 0.065,0.117 0.089,0.256 0.114,0.395 0.03,0.465 0.092,0.939 0.151,1.41 1.688,14.018 7.9,25.678 18.594,35.004 0.464,0.428 0.937,0.822 1.411,1.219 0.163,0.111 0.279,0.277 0.326,0.453 2.517,2.025 4.773,3.488 6.766,4.385 5.826,2.648 10.776,4.035 14.857,4.131 3.913,0.109 5.318,-0.922 4.214,-3.098 -0.151,-0.271 -1.046,-1.246 -2.642,-2.846 -1.199,-1.158 -1.626,-2.061 -1.225,-2.664 0.251,-0.416 1.216,-0.598 2.864,-0.549 1.291,0.045 2.441,0.016 3.41,-0.064 2.318,-0.121 4.405,-0.467 6.256,-1.014 1.865,-0.475 3.639,-1.203 5.307,-2.129 1.511,-0.838 2.97,-1.824 4.327,-3.031 1.231,-1.113 2.369,-2.352 3.45,-3.738 1.012,-1.373 1.915,-2.809 2.703,-4.312 0.791,-1.5 1.459,-3.035 2.006,-4.607 0.596,-1.623 1.084,-3.211 1.435,-4.775 0.406,-1.643 0.726,-3.215 0.937,-4.752 0.226,-1.467 0.4,-2.982 0.513,-4.516 0.1,-1.6 0.161,-2.953 0.154,-4.062 0.024,-1.104 -0.006,-2.252 -0.079,-3.479 -0.071,-1.229 -0.169,-2.137 -0.256,-2.748 -0.041,-0.305 -0.098,-0.682 -0.196,-1.133 -0.081,-0.512 -0.172,-0.768 -0.252,-0.824 -0.195,-0.117 -0.375,-0.17 -0.544,-0.154 -0.159,-0.012 -0.645,0.207 -1.442,0.598 l -1.651,0.637 c -1.296,0.541 -2.623,1.074 -3.969,1.566 -1.263,0.422 -2.438,0.77 -3.506,1.082 -1.168,0.318 -2.18,0.549 -3.076,0.717 -0.995,0.17 -1.933,0.26 -2.815,0.27 -0.883,0.008 -1.778,-0.053 -2.686,-0.186 -0.908,-0.129 -1.791,-0.35 -2.657,-0.629 -0.955,-0.307 -1.901,-0.645 -2.822,-1.072 -1.175,-0.562 -2.169,-1.078 -3.043,-1.557 -0.752,-0.443 -1.894,-1.129 -3.404,-2.115 l -3.946,-2.5 c -9.607,-6.408 -18.332,-8.389 -26.197,-5.979 -3.259,1.02 -6.033,2.736 -8.351,5.137 -2.186,2.273 -3.674,4.845 -4.512,7.769"
         id="path719" />
      <path
         inkscape:connector-curvature="0"
         style="fill:#7f519b"
         d="m 234.574,578.877 c 0.039,-1.389 0.206,-2.645 0.524,-3.76 0.838,-2.924 2.326,-5.496 4.512,-7.771 2.318,-2.4 5.092,-4.117 8.351,-5.137 7.865,-2.41 16.591,-0.43 26.197,5.979 l 3.946,2.5 c 1.511,0.986 2.652,1.672 3.405,2.115 0.874,0.479 1.868,0.994 3.042,1.557 0.921,0.428 1.867,0.766 2.823,1.072 0.866,0.279 1.748,0.5 2.657,0.629 0.907,0.133 1.802,0.193 2.685,0.186 0.883,-0.01 1.82,-0.098 2.815,-0.27 0.897,-0.168 1.908,-0.398 3.076,-0.717 1.068,-0.312 2.243,-0.66 3.506,-1.08 1.346,-0.494 2.673,-1.027 3.97,-1.568 l 1.65,-0.637 c 0.797,-0.391 1.284,-0.609 1.442,-0.598 0.169,-0.016 0.349,0.037 0.544,0.154 0.081,0.057 0.171,0.312 0.252,0.826 0.099,0.449 0.156,0.826 0.197,1.131 0.086,0.611 0.184,1.52 0.255,2.748 0.073,1.227 0.103,2.375 0.08,3.479 0.007,1.109 -0.054,2.463 -0.155,4.062 -0.113,1.533 -0.286,3.049 -0.512,4.516 -0.212,1.537 -0.532,3.109 -0.937,4.752 -0.351,1.564 -0.839,3.152 -1.436,4.775 -0.547,1.572 -1.215,3.107 -2.006,4.607 -0.788,1.504 -1.691,2.939 -2.703,4.312 -1.08,1.387 -2.219,2.625 -3.45,3.738 -1.357,1.207 -2.815,2.193 -4.326,3.031 -1.668,0.926 -3.443,1.654 -5.307,2.129 -1.852,0.547 -3.939,0.893 -6.256,1.014 -0.97,0.08 -2.12,0.109 -3.41,0.064 -1.648,-0.049 -2.614,0.133 -2.864,0.549 -0.402,0.604 0.026,1.506 1.225,2.664 1.595,1.6 2.491,2.574 2.641,2.846 1.104,2.176 -0.301,3.207 -4.213,3.098 -4.081,-0.096 -9.032,-1.482 -14.858,-4.131 -1.992,-0.896 -4.249,-2.359 -6.766,-4.385 -0.047,-0.176 -0.163,-0.342 -0.325,-0.453 -0.474,-0.396 -0.947,-0.791 -1.412,-1.219 -10.693,-9.326 -16.905,-20.986 -18.593,-35.004 -0.06,-0.471 -0.121,-0.945 -0.151,-1.408 -0.025,-0.139 -0.05,-0.278 -0.115,-0.395"
         id="path721" />
      <path
         inkscape:connector-curvature="0"
         style="fill:#fcdf00"
         d="m 247.514,580.371 c 0.033,0.01 0.091,0.027 0.122,0.035 1.158,0.17 2.363,0.742 3.546,1.734 1.519,1.186 2.623,2.676 3.384,4.459 0.473,1.082 0.7,1.994 0.664,2.799 0.039,-0.021 0.118,-0.064 0.155,-0.086 0.768,-0.398 1.59,-0.654 2.499,-0.752 0.849,-0.115 1.735,-0.023 2.6,0.256 1.949,0.82 3.435,2.127 4.483,3.928 1.048,1.801 1.396,3.66 1.063,5.619 -0.238,1.4 -0.804,2.576 -1.695,3.523 -0.953,1.393 -2.419,2.406 -4.404,3.074 0.96,0.635 1.732,1.803 2.321,3.504 0.632,1.777 0.734,3.471 0.346,5.055 -0.882,3.986 -4.195,5.416 -9.927,4.262 l -0.031,-0.008 c -0.31,-0.057 -0.602,-0.172 -0.896,-0.289 -0.9,-0.389 -1.733,-0.891 -2.503,-1.502 -1.081,-0.668 -2.046,-1.629 -2.94,-2.832 -1.062,-1.412 -2.006,-2.891 -2.829,-4.461 -0.498,-0.764 -0.95,-1.578 -1.362,-2.414 -1.785,-2.76 -2.944,-5.766 -3.539,-9.035 -0.137,-0.887 -0.343,-1.76 -0.588,-2.611 -1.06,-3.926 -0.785,-7.727 0.824,-11.406 0.272,-0.607 0.676,-1.111 1.186,-1.518 2.168,-1.76 4.668,-2.184 7.521,-1.334 m 8.771,9.33 c -0.037,0.021 -0.077,0.041 -0.115,0.064 l 0.028,0.008 c 0.04,-0.019 0.05,-0.05 0.087,-0.072"
         id="path723" />
      <path
         inkscape:connector-curvature="0"
         style="fill:#5d1e80"
         d="m 162.197,528.854 c 1.578,-1.188 2.719,-1.158 3.406,0.141 l 0.172,0.229 c 2.631,3.674 4.673,6.312 6.122,7.951 l -0.027,-0.008 c 1.687,1.822 3.32,3.123 4.878,3.959 1.629,0.793 3.633,1.311 6.012,1.545 2.191,0.18 5.458,0.193 9.778,0.033 11.259,-0.404 19.49,2.461 24.668,8.561 2.293,2.594 3.766,5.576 4.491,8.912 0.663,3.137 0.549,6.203 -0.31,9.203 -0.25,0.971 -0.675,1.949 -1.23,2.953 0.026,0.215 -0.035,0.438 -0.181,0.633 -7.924,12.113 -19.776,19.107 -35.575,20.951 -3.356,0.5 -6.16,0.617 -8.4,0.303 -5.945,-0.752 -10.762,-2.25 -14.432,-4.465 l -0.027,-0.01 c -1.96,-1.186 -3.128,-2.354 -3.495,-3.441 l 0.028,0.006 c -0.515,-1.189 -0.456,-2.213 0.14,-3.057 0.349,-0.703 1.09,-1.234 2.227,-1.594 l 0.159,-0.045 c 0.854,-0.201 1.645,-0.391 2.311,-0.557 -6.007,-3.629 -9.914,-8.295 -11.783,-14.012 -1.801,-5.34 -1.753,-11.371 0.154,-18.121 1.369,-4.883 3.56,-9.643 6.518,-14.303 1.328,-2.062 2.346,-3.557 3.116,-4.496 0.506,-0.631 0.948,-1.041 1.28,-1.271 m 10.25,11.958 c -0.615,-0.531 -1.279,-1.197 -2.02,-2.006 -0.676,-0.729 -1.382,-1.559 -2.146,-2.492 -0.717,-0.891 -1.512,-1.922 -2.331,-3.08 l -1.348,-1.875 c -0.201,-0.326 -0.333,-0.482 -0.407,-0.535 -0.148,-0.102 -0.311,-0.148 -0.491,-0.141 -0.207,0 -0.628,0.447 -1.286,1.299 -0.36,0.434 -0.873,1.09 -1.51,1.98 -0.647,0.918 -1.222,1.793 -1.736,2.66 -0.541,0.855 -1.144,1.934 -1.839,3.223 -0.642,1.217 -1.24,2.477 -1.773,3.721 -0.504,1.137 -1.042,2.502 -1.581,4.074 -0.449,1.361 -0.841,2.826 -1.192,4.365 -0.332,1.572 -0.56,3.086 -0.648,4.518 -0.109,1.518 -0.105,3.039 0.011,4.59 0.17,1.568 0.445,3.076 0.853,4.533 0.465,1.564 1.108,3.027 1.869,4.377 0.842,1.492 1.829,2.879 3.002,4.139 1.191,1.295 2.659,2.547 4.347,3.748 0.706,0.529 1.58,1.076 2.591,1.664 1.286,0.756 1.945,1.332 1.936,1.775 0.027,0.633 -0.737,1.131 -2.22,1.479 -2.021,0.465 -3.174,0.787 -3.429,0.953 -1.893,1.156 -1.28,2.613 1.78,4.383 3.189,1.838 7.655,3.117 13.404,3.842 1.597,0.191 3.482,0.195 5.698,-0.033 0.176,-0.098 0.343,-0.17 0.522,-0.178 1.209,-0.102 2.37,-0.244 3.512,-0.424 13.193,-1.904 23.393,-7.766 30.583,-17.527 0.035,-0.021 0.035,-0.021 0.043,-0.047 -0.025,-0.008 -0.053,-0.016 -0.089,0.004 1.36,-1.756 2.252,-3.434 2.71,-5.031 0.758,-2.641 0.857,-5.354 0.264,-8.115 -0.63,-2.947 -1.965,-5.596 -3.977,-7.93 -4.854,-5.59 -12.488,-8.166 -22.94,-7.797 l -4.242,0.094 c -1.626,0.01 -2.829,-0.006 -3.62,-0.025 -0.969,-0.01 -2.005,-0.1 -3.089,-0.23 -0.909,-0.113 -1.806,-0.279 -2.687,-0.502 -0.795,-0.199 -1.578,-0.451 -2.344,-0.76 -0.759,-0.34 -1.474,-0.723 -2.146,-1.152 -0.673,-0.435 -1.349,-0.955 -2.034,-1.541"
         id="path725" />
      <path
         inkscape:connector-curvature="0"
         style="fill:#7f519b"
         d="m 170.427,538.807 c 0.741,0.809 1.405,1.475 2.02,2.006 0.685,0.586 1.36,1.105 2.034,1.539 0.672,0.43 1.387,0.812 2.146,1.152 0.766,0.309 1.549,0.561 2.344,0.76 0.881,0.223 1.778,0.389 2.686,0.502 1.084,0.131 2.12,0.221 3.089,0.23 0.792,0.02 1.995,0.035 3.62,0.025 l 4.242,-0.094 c 10.453,-0.369 18.086,2.207 22.94,7.797 2.012,2.334 3.348,4.982 3.977,7.93 0.594,2.762 0.494,5.475 -0.264,8.115 -0.457,1.598 -1.35,3.275 -2.709,5.031 l 0.046,0.043 c -7.191,9.762 -17.391,15.623 -30.584,17.527 -1.141,0.18 -2.302,0.322 -3.512,0.424 -0.179,0.008 -0.346,0.08 -0.521,0.178 -2.217,0.229 -4.102,0.225 -5.699,0.033 -5.748,-0.725 -10.215,-2.006 -13.403,-3.842 -3.06,-1.77 -3.673,-3.227 -1.781,-4.383 0.255,-0.166 1.408,-0.488 3.429,-0.953 1.483,-0.348 2.247,-0.846 2.22,-1.479 0.01,-0.443 -0.649,-1.02 -1.935,-1.775 -1.012,-0.588 -1.885,-1.135 -2.592,-1.664 -1.688,-1.201 -3.155,-2.453 -4.346,-3.748 -1.174,-1.26 -2.161,-2.646 -3.002,-4.139 -0.762,-1.35 -1.405,-2.812 -1.869,-4.377 -0.408,-1.457 -0.683,-2.965 -0.853,-4.533 -0.117,-1.551 -0.121,-3.072 -0.011,-4.59 0.087,-1.432 0.316,-2.945 0.648,-4.518 0.351,-1.539 0.743,-3.004 1.192,-4.365 0.539,-1.572 1.077,-2.938 1.581,-4.074 0.533,-1.244 1.13,-2.504 1.773,-3.721 0.695,-1.289 1.298,-2.367 1.838,-3.223 0.514,-0.867 1.089,-1.742 1.737,-2.66 0.637,-0.891 1.149,-1.545 1.51,-1.98 0.657,-0.852 1.079,-1.299 1.286,-1.299 0.18,-0.008 0.343,0.039 0.49,0.141 0.075,0.053 0.207,0.209 0.408,0.535 l 1.348,1.875 c 0.818,1.158 1.614,2.189 2.331,3.08 0.763,0.935 1.469,1.765 2.146,2.494"
         id="path727" />
      <path
         inkscape:connector-curvature="0"
         style="fill:#fcdf00"
         d="m 206.046,565.814 c 1.945,0.32 3.292,1.064 4.094,2.277 0.916,1.334 1.003,3.086 0.236,5.248 0,0 -0.027,-0.008 -0.062,0.012 -0.02,0.174 -0.049,0.375 -0.134,0.559 -0.757,2.344 -1.887,4.432 -3.44,6.25 -1.044,1.277 -2.24,2.365 -3.641,3.244 -4.59,2.943 -9.475,4.461 -14.675,4.607 -0.667,-0.043 -1.326,-0.111 -1.975,-0.209 -2.905,-0.146 -5.407,-1.193 -7.503,-3.133 -2.527,-2.602 -2.88,-5.174 -1.103,-7.672 0.904,-1.201 2.15,-2.154 3.724,-2.805 1.5,-0.613 2.758,-0.787 3.748,-0.533 -1.032,-2.471 -0.959,-4.684 0.195,-6.646 0.976,-1.654 2.519,-2.82 4.628,-3.496 2.067,-0.629 3.859,-0.502 5.363,0.318 1.723,0.879 2.539,2.453 2.451,4.721 0.345,-1.004 1.365,-1.783 3.058,-2.34 1.658,-0.534 3.322,-0.685 5.036,-0.402"
         id="path729" />
      <path
         inkscape:connector-curvature="0"
         style="fill:#c4084a"
         d="m 173.915,586.305 c 3.589,-4.475 7.857,-8.107 12.845,-10.92 4.045,-2.314 8.233,-3.943 12.515,-4.836 7.015,-1.523 14.342,-1.236 22.007,0.869 7.203,2.004 13.254,5.244 18.111,9.742 3.476,3.209 6.313,7.035 8.563,11.523 3.246,6.369 4.81,13.029 4.743,20.02 -0.022,1.684 -0.126,3.438 -0.366,5.244 -0.168,1.334 -0.372,2.689 -0.656,4.115 -0.024,0.178 -0.071,0.348 -0.119,0.518 0.085,0.027 0.169,0.051 0.255,0.076 0.191,0.084 0.361,0.133 0.551,0.217 1.389,0.521 2.544,1.102 3.478,1.703 2.392,1.52 3.216,3.26 2.495,5.236 -0.061,0.32 -0.159,0.662 -0.321,1.016 -0.492,1.182 -1.585,2.527 -3.239,4.113 -1.906,1.82 -4.083,3.41 -6.515,4.709 l -0.008,0.029 c -2.031,1.078 -3.944,1.85 -5.764,2.311 -0.038,0.021 -0.083,0.072 -0.119,0.092 -0.289,0.256 -0.57,0.482 -0.858,0.738 -4.62,3.992 -8.23,6.617 -10.842,7.896 l -0.035,0.02 c -10.059,4.955 -21.425,5.355 -34.081,1.143 -12.401,-4.137 -21.346,-10.576 -26.805,-19.305 -1.719,-2.799 -3.048,-5.67 -4.005,-8.65 -0.078,-0.051 -0.22,-0.523 -0.417,-1.441 -1.612,-1.354 -3.058,-3.49 -4.314,-6.4 l 0.008,-0.029 c -0.936,-2.203 -1.604,-4.486 -1.987,-6.9 -0.403,-2.668 -0.365,-4.625 0.143,-5.863 0.594,-2.717 2.89,-3.75 6.875,-3.07 0.208,0.029 0.379,0.078 0.555,0.1 l -0.124,-0.1 c 1.234,-3.764 2.888,-7.285 5.029,-10.576 0.757,-1.139 1.571,-2.258 2.402,-3.34 m 13.895,-8.897 c -4.731,2.668 -8.772,6.154 -12.138,10.383 -2.847,3.609 -5.057,7.559 -6.602,11.879 l -1.137,3.211 c -0.014,0.057 -0.032,0.113 -0.048,0.17 -0.694,-0.262 -1.44,-0.445 -2.287,-0.596 -2.726,-0.473 -4.333,-0.01 -4.825,1.385 -0.305,0.959 -0.313,2.492 0.008,4.584 0.348,2.219 0.97,4.334 1.832,6.365 1.297,2.984 2.788,5.072 4.512,6.242 l 0.289,0.605 c 0.031,0.104 0.065,0.203 0.069,0.297 1.024,3.396 2.444,6.48 4.199,9.258 5.268,8.334 13.805,14.469 25.647,18.42 12.031,4.031 22.82,3.713 32.403,-0.979 2.897,-1.414 5.48,-3.131 7.742,-5.129 0.296,-0.281 0.593,-0.566 0.883,-0.82 l 0.006,-0.029 c 0.044,-0.049 0.117,-0.09 0.163,-0.139 -0.337,-0.004 -0.703,-0.016 -1.068,-0.029 h -0.645 c 0.007,-0.029 -0.122,-0.004 -0.391,0.074 -0.238,0.084 -0.355,-0.043 -0.351,-0.379 0.003,-0.338 0.13,-1.102 0.306,-2.248 3.389,0.51 7.002,-0.299 10.88,-2.354 2.259,-1.229 4.274,-2.68 6.045,-4.355 1.652,-1.584 2.617,-2.906 2.845,-3.916 0.047,-0.172 0.07,-0.35 0.051,-0.508 -0.084,-1.316 -1.633,-2.561 -4.656,-3.701 -0.134,-0.07 -0.303,-0.119 -0.446,-0.16 -0.749,-0.277 -1.517,-0.496 -2.235,-0.672 -0.149,-0.012 -0.32,-0.062 -0.529,-0.09 -0.028,-0.008 -0.084,-0.025 -0.141,-0.041 l -0.9,-0.074 c -3.578,-0.287 -6.829,0.443 -9.721,2.162 -0.027,-0.223 -0.063,-0.418 -0.093,-0.639 -0.116,-0.771 -0.246,-1.395 -0.331,-1.85 0.549,-0.303 1.108,-0.543 1.67,-0.781 0.036,-0.02 0.072,-0.039 0.108,-0.061 0.036,-0.021 0.036,-0.021 0.066,-0.014 2.565,-1.016 5.355,-1.414 8.331,-1.176 0.065,-0.012 0.121,0.004 0.151,0.012 l 1.172,0.092 -0.01,0.027 c 0.037,-0.02 0.065,-0.012 0.095,-0.004 0.178,0.021 0.349,0.07 0.491,0.111 0.093,-0.008 0.178,0.02 0.271,0.016 l 0.009,-0.027 c 0.025,-0.088 0.049,-0.172 0.044,-0.266 0.269,-1.367 0.467,-2.695 0.604,-4.037 0.93,-8.496 -0.455,-16.424 -4.182,-23.795 -5.167,-10.18 -13.6,-16.902 -25.306,-20.135 -11.756,-3.277 -22.693,-2.015 -32.85,3.711"
         id="path731" />
      <path
         inkscape:connector-curvature="0"
         style="fill:#e27c9f"
         d="m 168.886,600.201 0.184,-0.531 c 1.545,-4.32 3.754,-8.27 6.602,-11.879 3.365,-4.229 7.407,-7.715 12.138,-10.383 10.157,-5.727 21.094,-6.988 32.849,-3.709 11.707,3.232 20.14,9.955 25.307,20.135 3.727,7.371 5.112,15.299 4.182,23.795 -0.137,1.342 -0.335,2.67 -0.604,4.037 0.005,0.094 -0.019,0.178 -0.044,0.266 l -0.009,0.027 c -0.093,0.004 -0.178,-0.023 -0.271,-0.016 -0.143,-0.041 -0.313,-0.09 -0.491,-0.111 -0.03,-0.008 -0.058,-0.016 -0.095,0.004 l 0.01,-0.027 -1.172,-0.092 c -0.03,-0.008 -0.086,-0.023 -0.151,-0.012 -1.145,-0.082 -2.257,-0.062 -3.357,0.021 l -75.078,-21.525 z"
         id="path733" />
      <path
         inkscape:connector-curvature="0"
         style="fill:#e27c9f"
         d="m 238.99,622.881 c -0.029,-0.008 -0.029,-0.008 -0.066,0.014 -0.036,0.021 -0.072,0.041 -0.108,0.062 -0.561,0.236 -1.121,0.477 -1.669,0.779 0.084,0.455 0.214,1.078 0.331,1.85 0.029,0.221 0.066,0.416 0.092,0.639 2.893,-1.719 6.144,-2.449 9.721,-2.162 l 0.9,0.074 c 0.057,0.016 0.113,0.033 0.141,0.041 0.209,0.029 0.38,0.078 0.529,0.09 0.718,0.176 1.486,0.395 2.235,0.672 0.143,0.041 0.312,0.09 0.447,0.16 3.023,1.141 4.571,2.385 4.655,3.701 0.019,0.158 -0.004,0.336 -0.051,0.508 -0.227,1.01 -1.193,2.332 -2.845,3.916 -1.771,1.676 -3.786,3.127 -6.045,4.355 -3.878,2.055 -7.491,2.863 -10.88,2.354 -0.176,1.148 -0.303,1.91 -0.306,2.248 -0.004,0.336 0.113,0.463 0.351,0.379 0.27,-0.078 0.398,-0.104 0.392,-0.074 h 0.645 c 0.364,0.014 0.731,0.025 1.067,0.029 -0.046,0.049 -0.119,0.088 -0.163,0.139 l -0.006,0.029 c -0.29,0.254 -0.587,0.539 -0.883,0.82 -2.262,1.998 -4.845,3.715 -7.741,5.129 -9.584,4.691 -20.373,5.01 -32.404,0.979 -11.842,-3.951 -20.379,-10.086 -25.647,-18.42 -1.755,-2.777 -3.175,-5.861 -4.198,-9.258 -0.004,-0.094 -0.039,-0.193 -0.069,-0.297 l -0.29,-0.605 c -1.723,-1.17 -3.215,-3.258 -4.512,-6.242 -0.861,-2.031 -1.484,-4.146 -1.832,-6.365 -0.321,-2.092 -0.313,-3.625 -0.008,-4.584 0.492,-1.395 2.1,-1.857 4.825,-1.383 0.847,0.148 1.593,0.332 2.287,0.594 0.016,-0.057 0.034,-0.113 0.048,-0.17 l 0.953,-2.68 75.079,21.525 c -1.734,0.146 -3.383,0.537 -4.975,1.154 m -11.978,8.433 c 0.073,-0.256 0.054,-0.506 -0.06,-0.754 -0.121,-0.221 -0.324,-0.371 -0.58,-0.443 -0.256,-0.072 -0.479,-0.045 -0.669,0.086 -0.257,0.141 -0.406,0.342 -0.48,0.6 -0.074,0.254 -0.044,0.477 0.097,0.734 0.092,0.211 0.267,0.354 0.523,0.426 0.257,0.072 0.507,0.055 0.726,-0.068 0.227,-0.151 0.37,-0.325 0.443,-0.581 m 0.371,2.997 c -0.254,-0.072 -0.507,-0.053 -0.735,0.098 -0.227,0.148 -0.369,0.322 -0.443,0.58 -0.082,0.285 -0.061,0.533 0.06,0.754 0.121,0.219 0.326,0.369 0.582,0.443 0.226,0.064 0.449,0.037 0.697,-0.076 0.22,-0.121 0.37,-0.324 0.451,-0.609 0.073,-0.254 0.043,-0.479 -0.068,-0.727 -0.142,-0.256 -0.316,-0.399 -0.544,-0.463 m -3.931,-0.76 c -0.088,-0.238 -0.253,-0.41 -0.509,-0.48 -0.255,-0.072 -0.516,-0.025 -0.741,0.123 -0.257,0.143 -0.4,0.316 -0.473,0.572 -0.073,0.256 -0.052,0.506 0.098,0.734 0.141,0.256 0.315,0.398 0.57,0.471 0.256,0.076 0.48,0.047 0.679,-0.113 0.247,-0.113 0.397,-0.314 0.473,-0.57 0.072,-0.255 0.043,-0.479 -0.097,-0.737 m -51.719,-21.619 c -0.093,-0.211 -0.238,-0.346 -0.438,-0.402 -0.198,-0.057 -0.364,-0.012 -0.528,0.125 -0.198,0.158 -0.321,0.369 -0.394,0.625 -0.074,0.254 -0.074,0.471 0.012,0.709 0.063,0.203 0.183,0.33 0.381,0.387 0.198,0.055 0.393,0.021 0.584,-0.107 0.118,-0.09 0.179,-0.195 0.239,-0.301 0.056,-0.078 0.116,-0.184 0.148,-0.297 0.032,-0.113 0.037,-0.236 0.032,-0.328 0.012,-0.152 0.017,-0.275 -0.036,-0.411 m 0.366,3.763 c -0.171,-0.049 -0.343,0.023 -0.543,0.182 -0.2,0.158 -0.313,0.34 -0.386,0.596 -0.075,0.256 -0.081,0.5 0.01,0.709 0.087,0.242 0.205,0.365 0.373,0.414 0.201,0.061 0.395,0.023 0.595,-0.135 0.043,-0.049 0.116,-0.088 0.169,-0.168 0.098,-0.125 0.168,-0.26 0.216,-0.43 0.073,-0.256 0.081,-0.498 -0.011,-0.709 -0.046,-0.166 -0.135,-0.287 -0.211,-0.338 -0.077,-0.052 -0.127,-0.097 -0.212,-0.121 m -3.092,-1.009 c -0.019,-0.037 -0.049,-0.045 -0.077,-0.053 -0.056,-0.018 -0.114,-0.033 -0.151,-0.012 -0.12,-0.006 -0.266,0.076 -0.393,0.193 -0.2,0.156 -0.313,0.34 -0.386,0.596 -0.073,0.256 -0.081,0.502 0.01,0.711 0.046,0.168 0.136,0.283 0.233,0.373 0.056,0.018 0.115,0.033 0.143,0.041 0.055,0.018 0.113,0.033 0.177,0.021 l -0.008,0.027 0.036,-0.02 c 0.095,-0.004 0.167,-0.045 0.241,-0.086 0.036,-0.02 0.109,-0.061 0.146,-0.08 0.045,-0.049 0.118,-0.09 0.171,-0.166 0.097,-0.127 0.166,-0.26 0.213,-0.432 0.074,-0.256 0.083,-0.498 -0.009,-0.711 -0.022,-0.035 -0.041,-0.07 -0.063,-0.107 -0.032,-0.104 -0.072,-0.174 -0.148,-0.229 -0.05,-0.043 -0.107,-0.059 -0.135,-0.066"
         id="path735" />
      <path
         inkscape:connector-curvature="0"
         style="fill:#a682b9"
         d="m 170.385,612.988 c -0.085,-0.238 -0.085,-0.455 -0.012,-0.709 0.074,-0.256 0.196,-0.467 0.394,-0.625 0.164,-0.137 0.33,-0.182 0.528,-0.125 0.2,0.057 0.345,0.191 0.438,0.402 0.053,0.137 0.048,0.26 0.036,0.412 0.005,0.09 0,0.213 -0.032,0.326 -0.032,0.113 -0.092,0.219 -0.148,0.299 -0.06,0.104 -0.121,0.209 -0.239,0.299 -0.191,0.129 -0.386,0.162 -0.584,0.107 -0.198,-0.056 -0.318,-0.183 -0.381,-0.386"
         id="path737" />
      <path
         inkscape:connector-curvature="0"
         style="fill:#a682b9"
         d="m 171.169,616.473 c 0.073,-0.256 0.187,-0.438 0.386,-0.596 0.2,-0.158 0.373,-0.23 0.543,-0.182 0.086,0.023 0.135,0.068 0.212,0.121 0.077,0.053 0.165,0.172 0.211,0.338 0.092,0.211 0.085,0.453 0.012,0.709 -0.049,0.172 -0.118,0.305 -0.217,0.43 -0.053,0.08 -0.126,0.119 -0.169,0.168 -0.2,0.158 -0.394,0.195 -0.595,0.135 -0.168,-0.049 -0.286,-0.172 -0.372,-0.414 -0.092,-0.209 -0.086,-0.453 -0.011,-0.709"
         id="path739" />
      <path
         inkscape:connector-curvature="0"
         style="fill:#a682b9"
         d="m 168.779,614.621 c 0.037,-0.021 0.095,-0.006 0.151,0.012 0.028,0.008 0.058,0.016 0.077,0.053 0.028,0.008 0.085,0.023 0.135,0.068 0.076,0.055 0.116,0.125 0.148,0.229 0.022,0.037 0.041,0.072 0.063,0.107 0.093,0.213 0.083,0.455 0.009,0.711 -0.047,0.172 -0.116,0.305 -0.213,0.432 -0.053,0.076 -0.126,0.117 -0.171,0.166 -0.037,0.02 -0.11,0.061 -0.146,0.08 -0.074,0.041 -0.146,0.082 -0.241,0.086 l -0.036,0.02 0.008,-0.027 c -0.064,0.012 -0.122,-0.004 -0.177,-0.021 -0.028,-0.008 -0.086,-0.023 -0.143,-0.041 -0.097,-0.09 -0.187,-0.205 -0.233,-0.373 -0.091,-0.209 -0.083,-0.455 -0.01,-0.711 0.073,-0.256 0.186,-0.438 0.386,-0.596 0.127,-0.119 0.273,-0.201 0.393,-0.195"
         id="path741" />
      <path
         inkscape:connector-curvature="0"
         style="fill:#a682b9"
         d="m 225.703,630.203 c 0.19,-0.131 0.414,-0.158 0.669,-0.086 0.256,0.072 0.459,0.223 0.581,0.443 0.113,0.248 0.132,0.498 0.06,0.754 -0.074,0.256 -0.217,0.43 -0.444,0.58 -0.219,0.123 -0.469,0.141 -0.725,0.068 -0.257,-0.072 -0.432,-0.215 -0.524,-0.426 -0.141,-0.258 -0.171,-0.48 -0.096,-0.734 0.073,-0.257 0.223,-0.458 0.479,-0.599"
         id="path743" />
      <path
         inkscape:connector-curvature="0"
         style="fill:#a682b9"
         d="m 227.544,636.109 c -0.249,0.113 -0.471,0.141 -0.697,0.076 -0.256,-0.074 -0.461,-0.225 -0.582,-0.443 -0.121,-0.221 -0.142,-0.469 -0.06,-0.754 0.074,-0.258 0.215,-0.432 0.443,-0.58 0.228,-0.15 0.48,-0.17 0.735,-0.098 0.228,0.064 0.402,0.207 0.544,0.463 0.111,0.248 0.141,0.473 0.068,0.727 -0.081,0.285 -0.231,0.488 -0.451,0.609"
         id="path745" />
      <path
         inkscape:connector-curvature="0"
         style="fill:#a682b9"
         d="m 223.548,634.287 c -0.076,0.256 -0.225,0.457 -0.473,0.57 -0.198,0.158 -0.422,0.189 -0.678,0.113 -0.256,-0.072 -0.43,-0.215 -0.571,-0.471 -0.149,-0.229 -0.17,-0.479 -0.098,-0.734 0.074,-0.256 0.216,-0.43 0.473,-0.572 0.225,-0.148 0.487,-0.195 0.741,-0.123 0.257,0.07 0.422,0.242 0.509,0.48 0.141,0.259 0.17,0.483 0.097,0.737"
         id="path747" />
      <path
         inkscape:connector-curvature="0"
         style="fill:#5d1e80"
         d="m 204.236,569.328 -0.029,-0.008 c 5.777,-0.525 11.686,0.09 17.795,1.842 12.242,3.51 21.52,10.504 27.894,20.971 6.395,10.504 7.973,21.408 4.732,32.713 -1.962,6.844 -5.344,12.639 -10.146,17.379 -0.21,0.188 -0.444,0.365 -0.671,0.516 -2.275,1.717 -4.642,3.219 -7.133,4.504 -1.19,0.613 -2.359,1.26 -3.443,1.932 l 0.692,-1.768 c 9.876,-23.516 5.602,-41.309 -12.852,-53.395 -1.324,1.188 -2.364,2.029 -3.156,2.539 -2.714,1.744 -5.198,2.26 -7.462,1.58 -0.595,-0.17 -1.16,-0.455 -1.684,-0.881 -2.412,1.551 -4.364,2.682 -5.815,3.342 l -0.008,0.027 c -1.663,0.754 -3.074,0.535 -4.246,-0.633 -0.936,-0.914 -1.69,-2.574 -2.231,-4.973 l -0.028,-0.01 c -0.303,-1.408 -0.503,-2.973 -0.633,-4.762 -0.443,0.582 -0.86,1.168 -1.294,1.723 l -1.609,2.18 -0.497,-2.662 c -0.221,-1.262 -0.388,-2.725 -0.421,-4.426 l 0.016,-0.055 c 0.02,-0.18 0.012,-0.365 0.005,-0.553 -2.64,0.412 -5.23,1.082 -7.744,2.023 -3.406,1.266 -6.142,2.879 -8.239,4.83 -2.564,2.4 -4.888,4.932 -7.01,7.611 -0.255,0.357 -0.881,1.469 -1.876,3.336 l -1.605,3.014 -0.169,-0.049 c 0.355,-2.205 0.755,-4.455 1.248,-6.713 0.57,-2.635 1.293,-5.254 2.19,-7.855 0.217,-0.646 0.425,-1.262 0.632,-1.879 3.317,-5.996 8.103,-10.896 14.32,-14.678 l 0.029,0.008 c 1.113,-0.664 2.254,-1.32 3.444,-1.932 l 0.028,0.008 c 5.496,-2.76 11.159,-4.391 16.976,-4.846 m -6.93,14.522 c 0.249,-0.328 0.467,-0.666 0.659,-1.01 l 0.049,3.363 c 0.037,3.301 0.288,6.078 0.757,8.303 0.425,1.844 0.954,3.102 1.583,3.805 0.271,0.23 0.549,0.342 0.827,0.33 1.808,-0.404 3.509,-1.086 5.096,-2.014 1.588,-0.928 3.109,-1.938 4.55,-3 0.58,-0.418 1.16,-0.836 1.734,-1.223 l -1.595,3.416 c 0.02,0.037 0.078,0.053 0.114,0.031 l 0.029,0.01 c 1.683,0.451 3.535,-0.002 5.536,-1.305 0.838,-0.557 2.003,-1.514 3.507,-2.896 l 0.675,-0.637 0.743,0.52 c 19.325,12.152 24.617,29.93 15.861,53.395 7.455,-5.088 12.415,-11.996 14.925,-20.744 3.054,-10.652 1.577,-20.943 -4.474,-30.824 -6.063,-9.945 -14.913,-16.604 -26.533,-19.934 -5.794,-1.662 -11.439,-2.234 -16.929,-1.75 -5.507,0.451 -10.895,1.98 -16.098,4.576 l -0.008,0.029 c -1.144,0.562 -2.241,1.172 -3.317,1.814 l -0.01,0.029 c -7.548,4.568 -12.798,10.873 -15.798,18.863 1.614,-1.871 3.36,-3.676 5.214,-5.422 2.302,-2.135 5.304,-3.918 9.023,-5.311 3.13,-1.162 6.342,-1.963 9.648,-2.34 l 1.331,-0.141 -0.018,1.35 c -0.012,0.578 -0.012,1.225 -0.031,1.928 l 0.009,-0.029 c 0.015,0.373 0.032,0.746 0.049,1.119 0.262,-0.385 0.507,-0.807 0.742,-1.199 0.208,-0.188 0.396,-0.41 0.569,-0.699 0.507,-0.806 1.045,-1.605 1.581,-2.403"
         id="path749" />
      <path
         inkscape:connector-curvature="0"
         style="fill:#7f519b"
         d="m 197.965,582.84 c -0.191,0.344 -0.41,0.682 -0.659,1.01 -0.535,0.799 -1.073,1.598 -1.58,2.404 -0.174,0.289 -0.362,0.512 -0.57,0.699 -0.234,0.393 -0.48,0.814 -0.742,1.199 -0.016,-0.373 -0.033,-0.746 -0.049,-1.119 l -0.008,0.029 c 0.018,-0.701 0.018,-1.35 0.03,-1.928 l 0.018,-1.35 -1.331,0.141 c -3.306,0.377 -6.517,1.178 -9.648,2.34 -3.719,1.393 -6.721,3.176 -9.024,5.311 -1.853,1.746 -3.599,3.551 -5.212,5.422 3,-7.99 8.249,-14.293 15.797,-18.863 l 0.01,-0.029 c 1.076,-0.643 2.173,-1.252 3.318,-1.814 l 0.007,-0.029 c 5.204,-2.596 10.591,-4.125 16.099,-4.576 5.489,-0.484 11.134,0.088 16.929,1.75 11.619,3.33 20.469,9.988 26.532,19.934 6.051,9.881 7.528,20.172 4.474,30.824 -2.51,8.748 -7.47,15.656 -14.925,20.744 8.757,-23.465 3.464,-41.242 -15.862,-53.395 l -0.742,-0.52 -0.675,0.637 c -1.503,1.383 -2.669,2.34 -3.507,2.896 -2,1.303 -3.852,1.756 -5.536,1.305 l -0.028,-0.01 c -0.036,0.021 -0.095,0.006 -0.115,-0.031 l 1.595,-3.416 c -0.574,0.387 -1.154,0.805 -1.734,1.223 -1.441,1.062 -2.962,2.072 -4.549,3 -1.588,0.928 -3.289,1.609 -5.096,2.014 -0.279,0.012 -0.556,-0.1 -0.827,-0.33 -0.629,-0.703 -1.159,-1.961 -1.584,-3.805 -0.469,-2.225 -0.72,-5.002 -0.757,-8.303 l -0.049,-3.364 z"
         id="path751" />
      <path
         inkscape:connector-curvature="0"
         style="fill:#e60b11"
         d="m 202.95,600.621 0.008,-0.027 -0.008,0.027 z"
         id="path753" />
      <path
         inkscape:connector-curvature="0"
         style="fill:#c4084a"
         d="m 258.337,629.812 c -0.062,0.32 -0.159,0.662 -0.321,1.016 -0.492,1.182 -1.585,2.527 -3.24,4.113 -1.905,1.82 -4.083,3.41 -6.515,4.709 l -0.007,0.029 c -2.032,1.078 -3.944,1.85 -5.765,2.311 -0.038,0.023 -0.046,0.051 -0.082,0.072 -0.76,0.182 -1.559,0.289 -2.351,0.369 -0.511,0.07 -1.007,0.082 -1.531,0.084 h -0.645 c -0.065,0.012 -0.12,-0.004 -0.216,0 -0.056,-0.016 -0.112,-0.031 -0.206,-0.029 l -0.122,-0.002 c -0.3,-0.027 -0.6,-0.053 -0.899,-0.076 -0.124,-0.004 -0.245,-0.008 -0.367,-0.012 -0.012,-0.064 0.004,-0.121 0,-0.215 0.004,-0.338 0.131,-1.102 0.307,-2.248 3.389,0.51 7.002,-0.299 10.88,-2.354 2.258,-1.229 4.273,-2.68 6.044,-4.355 1.653,-1.584 2.618,-2.906 2.846,-3.916 0.046,-0.172 0.069,-0.352 0.05,-0.508 -0.083,-1.316 -1.632,-2.561 -4.655,-3.701 -0.134,-0.07 -0.303,-0.119 -0.446,-0.16 -0.75,-0.277 -1.518,-0.496 -2.235,-0.672 -0.149,-0.012 -0.32,-0.062 -0.529,-0.09 -0.028,-0.008 -0.085,-0.025 -0.141,-0.041 l -0.9,-0.074 c -3.578,-0.287 -6.829,0.443 -9.721,2.162 -0.027,-0.223 -0.064,-0.418 -0.093,-0.639 -0.124,-0.744 -0.234,-1.326 -0.32,-1.783 0.009,-0.029 0.009,-0.029 -0.011,-0.066 0.046,-0.047 0.119,-0.09 0.182,-0.1 0.477,-0.264 0.97,-0.49 1.488,-0.682 0.035,-0.02 0.071,-0.039 0.108,-0.061 0.036,-0.021 0.036,-0.021 0.066,-0.014 2.565,-1.016 5.355,-1.414 8.33,-1.176 0.065,-0.012 0.122,0.002 0.152,0.012 l 1.172,0.092 -0.01,0.027 c 0.037,-0.02 0.065,-0.012 0.095,-0.004 0.122,0.004 0.234,0.037 0.348,0.07 0.374,0.199 0.828,0.33 1.319,0.439 0.378,0.078 0.783,0.162 1.161,0.238 0.086,0.027 0.17,0.051 0.256,0.076 0.191,0.084 0.361,0.133 0.551,0.217 1.389,0.521 2.544,1.102 3.477,1.703 2.392,1.523 3.218,3.263 2.496,5.239"
         id="path755" />
      <path
         inkscape:connector-curvature="0"
         style="fill:#e27c9f"
         d="m 256.198,628.801 c 0.019,0.158 -0.004,0.336 -0.051,0.508 -0.227,1.01 -1.193,2.332 -2.845,3.916 -1.771,1.676 -3.786,3.127 -6.044,4.355 -3.879,2.055 -7.492,2.863 -10.881,2.354 -0.176,1.146 -0.303,1.91 -0.306,2.248 0.003,0.094 -0.013,0.15 0,0.215 -0.387,-0.049 -0.724,-0.055 -1.076,-0.002 l -0.69,-1.027 c -0.479,-3.365 -0.774,-6.736 -0.832,-10.076 -0.029,-1.822 0.174,-3.609 0.607,-5.326 l 3.078,-2.162 c 0.085,0.457 0.196,1.039 0.32,1.783 0.029,0.221 0.066,0.416 0.093,0.639 2.892,-1.719 6.143,-2.449 9.72,-2.162 l 0.9,0.074 c 0.057,0.016 0.113,0.033 0.141,0.041 0.209,0.027 0.38,0.078 0.53,0.09 0.717,0.176 1.485,0.395 2.234,0.672 0.144,0.041 0.312,0.092 0.447,0.16 3.023,1.139 4.572,2.383 4.655,3.7"
         id="path757" />
      <path
         inkscape:connector-curvature="0"
         style="fill:#e27c9f"
         d="m 237.665,642.516 c -0.094,0.004 -0.206,-0.029 -0.328,-0.031 l 0.122,0.002 c 0.094,-0.003 0.148,0.013 0.206,0.029"
         id="path759" />
      <path
         inkscape:connector-curvature="0"
         style="fill:#d8272a"
         d="m 171.648,619.291 c 2.855,4.273 7.066,8.105 12.636,11.463 3.162,1.918 6.405,3.424 9.727,4.521 3.334,1.096 6.805,1.803 10.427,2.125 6.366,0.578 11.856,-0.057 16.459,-1.871 -9.863,5.207 -19.138,6.234 -27.825,3.111 -8.844,-2.658 -15.98,-9.097 -21.424,-19.349"
         id="path761" />
      <path
         inkscape:connector-curvature="0"
         style="fill:#ffffff"
         d="m 182.926,591.424 c -2.922,0.486 -5.405,2.279 -7.428,5.373 -2.033,3.074 -3.018,6.559 -2.977,10.443 0.051,3.887 1.13,7.041 3.239,9.443 2.103,2.418 4.61,3.383 7.526,2.912 2.923,-0.484 5.402,-2.264 7.419,-5.344 2.04,-3.088 3.028,-6.586 2.988,-10.471 -0.053,-3.889 -1.131,-7.043 -3.241,-9.445 -2.105,-2.417 -4.61,-3.382 -7.526,-2.911"
         id="path763" />
      <path
         inkscape:connector-curvature="0"
         style="fill:#0e5cab"
         d="m 185.32,598.314 c 1.664,0.17 2.929,1.119 3.796,2.865 0.873,1.734 1.081,3.744 0.647,6.027 -0.433,2.27 -1.384,4.17 -2.864,5.682 -1.494,1.494 -3.07,2.145 -4.726,1.977 -1.674,-0.172 -2.954,-1.111 -3.819,-2.826 -0.87,-1.748 -1.087,-3.76 -0.648,-6.057 0.435,-2.283 1.384,-4.17 2.865,-5.652 1.488,-1.512 3.073,-2.185 4.749,-2.016"
         id="path765" />
      <path
         inkscape:connector-curvature="0"
         style="fill:#080101"
         d="m 186.333,601.186 c -0.787,-0.963 -1.78,-1.352 -2.967,-1.193 -1.197,0.166 -2.226,0.85 -3.109,2.057 -0.882,1.207 -1.367,2.588 -1.446,4.131 -0.064,1.561 0.291,2.805 1.066,3.766 0.794,0.98 1.783,1.385 2.972,1.215 1.186,-0.16 2.228,-0.852 3.11,-2.061 0.897,-1.217 1.379,-2.598 1.442,-4.145 0.078,-1.544 -0.273,-2.804 -1.068,-3.77"
         id="path767" />
      <path
         inkscape:connector-curvature="0"
         style="fill:#ffffff"
         d="m 182.985,602.049 c -0.25,-0.312 -0.572,-0.449 -0.969,-0.4 -0.39,0.055 -0.74,0.285 -1.043,0.693 -0.286,0.389 -0.438,0.84 -0.453,1.348 -0.027,0.518 0.086,0.928 0.335,1.24 0.275,0.305 0.597,0.439 0.972,0.396 0.398,-0.049 0.739,-0.283 1.041,-0.693 0.287,-0.383 0.438,-0.838 0.456,-1.359 0.029,-0.489 -0.083,-0.897 -0.339,-1.225"
         id="path769" />
      <path
         inkscape:connector-curvature="0"
         style="fill:#3793d1"
         d="m 182.781,591.281 c -2.947,0.469 -5.473,2.256 -7.538,5.371 -1.266,1.914 -2.134,4.086 -2.618,6.486 -0.441,2.328 -0.474,4.594 -0.089,6.834 0.39,-3.652 1.565,-6.965 3.552,-9.955 2.097,-3.164 4.577,-5.227 7.433,-6.16 2.837,-0.938 5.358,-0.564 7.537,1.141 l -0.604,-0.758 c -2.151,-2.455 -4.707,-3.42 -7.673,-2.959"
         id="path771" />
      <path
         inkscape:connector-curvature="0"
         style="fill:#080101"
         d="m 183.245,593.457 c -3.07,0.756 -5.663,2.639 -7.789,5.678 -1.185,1.705 -2.006,3.57 -2.474,5.625 -0.331,1.51 -0.48,3.248 -0.445,5.213 0.202,1.08 0.482,2.037 0.794,2.885 -0.027,-2.051 0.243,-4.074 0.797,-6.076 0.578,-2.082 1.453,-3.99 2.581,-5.709 2.168,-3.262 4.766,-5.23 7.802,-5.939 3.016,-0.709 5.662,0.02 7.927,2.215 -0.435,-0.912 -0.885,-1.711 -1.379,-2.35 -2.238,-1.724 -4.841,-2.235 -7.814,-1.542"
         id="path773" />
      <path
         inkscape:connector-curvature="0"
         style="fill:#1c1616"
         d="m 173.166,596.523 c -0.492,1.434 -0.22,3.352 0.798,5.746 l 8.592,-8.482 c -0.522,0.172 -0.894,0.182 -1.105,0.062 -0.491,-0.229 -0.897,-0.959 -1.261,-2.201 -0.115,-0.383 -0.327,-0.357 -0.618,0.086 -0.235,0.312 -0.406,0.699 -0.542,1.102 -0.247,0.715 -0.479,1.67 -0.698,2.863 -0.286,-0.58 -0.56,-1.125 -0.806,-1.633 -0.477,-0.984 -0.823,-1.346 -1.04,-1.027 -0.696,0.996 -0.955,2.617 -0.81,4.904 -0.169,-0.049 -0.668,-0.396 -1.461,-1.062 -0.611,-0.524 -0.944,-0.649 -1.049,-0.358"
         id="path775" />
      <path
         inkscape:connector-curvature="0"
         style="fill:#ffffff"
         d="m 224.636,604.736 c 3.167,2.305 4.964,5.465 5.398,9.479 0.436,4 -0.632,7.674 -3.196,11.043 -2.578,3.363 -5.901,5.408 -9.97,6.146 -4.074,0.754 -7.698,-0.008 -10.878,-2.318 -3.182,-2.311 -4.984,-5.457 -5.407,-9.451 -0.434,-4.012 0.64,-7.701 3.191,-11.072 2.579,-3.367 5.9,-5.412 9.97,-6.15 4.075,-0.755 7.713,0.011 10.892,2.323"
         id="path777" />
      <path
         inkscape:connector-curvature="0"
         style="fill:#0e5cab"
         d="m 211.917,606.99 c 2.182,0.305 3.898,1.41 5.158,3.34 1.263,1.912 1.68,4.078 1.281,6.482 -0.396,2.393 -1.497,4.352 -3.313,5.859 -1.836,1.488 -3.841,2.068 -6.012,1.766 -2.193,-0.305 -3.927,-1.402 -5.181,-3.297 -1.26,-1.932 -1.688,-4.098 -1.286,-6.52 0.4,-2.406 1.496,-4.35 3.316,-5.826 1.83,-1.505 3.845,-2.108 6.037,-1.804"
         id="path779" />
      <path
         inkscape:connector-curvature="0"
         style="fill:#080101"
         d="m 208.699,609.076 c 1.44,-0.34 2.76,-0.068 3.955,0.781 1.205,0.867 1.91,2.07 2.142,3.625 0.232,1.557 -0.079,3.021 -0.924,4.379 -0.874,1.363 -2.014,2.205 -3.442,2.547 -1.456,0.352 -2.778,0.096 -3.971,-0.768 -1.195,-0.85 -1.909,-2.07 -2.141,-3.627 -0.24,-1.576 0.068,-3.039 0.941,-4.391 0.845,-1.352 1.988,-2.208 3.44,-2.546"
         id="path781" />
      <path
         inkscape:connector-curvature="0"
         style="fill:#ffffff"
         d="m 207.772,610.67 c 0.462,-0.111 0.895,-0.035 1.298,0.25 0.39,0.281 0.634,0.688 0.716,1.219 0.078,0.5 -0.029,0.975 -0.321,1.414 -0.285,0.457 -0.654,0.736 -1.116,0.85 -0.484,0.092 -0.916,0.012 -1.299,-0.252 -0.402,-0.281 -0.631,-0.686 -0.715,-1.217 -0.077,-0.5 0.031,-0.973 0.328,-1.428 0.262,-0.434 0.632,-0.713 1.109,-0.836"
         id="path783" />
      <path
         inkscape:connector-curvature="0"
         style="fill:#3793d1"
         d="m 224.662,604.654 c 3.154,2.285 4.976,5.451 5.405,9.479 0.265,2.475 -0.103,4.922 -1.067,7.318 -0.967,2.305 -2.373,4.299 -4.254,6.004 1.874,-3.43 2.608,-7.061 2.187,-10.93 -0.439,-4.092 -2.033,-7.469 -4.782,-10.104 -2.725,-2.625 -5.918,-3.91 -9.562,-3.816 l 1.19,-0.273 c 4.087,-0.766 7.699,0.025 10.883,2.322"
         id="path785" />
      <path
         inkscape:connector-curvature="0"
         style="fill:#080101"
         d="m 222.729,606.25 c 3.117,2.615 4.956,5.908 5.505,9.91 0.305,2.236 0.078,4.387 -0.686,6.473 -0.577,1.525 -1.51,3.133 -2.801,4.822 -0.928,0.811 -1.868,1.463 -2.772,2.004 1.34,-1.768 2.312,-3.701 2.94,-5.797 0.652,-2.184 0.843,-4.4 0.616,-6.617 -0.457,-4.221 -2.246,-7.594 -5.355,-10.143 -3.081,-2.543 -6.648,-3.598 -10.705,-3.131 1.094,-0.516 2.13,-0.928 3.118,-1.168 3.719,-0.07 7.099,1.147 10.14,3.647"
         id="path787" />
      <path
         inkscape:connector-curvature="0"
         style="fill:#1c1616"
         d="m 232.585,615.348 c -0.336,1.562 -1.878,3.059 -4.598,4.492 l -4.66,-12.865 c 0.501,0.482 0.931,0.73 1.256,0.76 0.719,0.115 1.663,-0.262 2.88,-1.111 0.38,-0.258 0.614,-0.102 0.673,0.473 0.074,0.418 0.03,0.867 -0.07,1.301 -0.168,0.781 -0.505,1.76 -1.008,2.938 0.704,-0.32 1.375,-0.621 1.985,-0.906 1.188,-0.551 1.827,-0.645 1.875,-0.23 0.18,1.311 -0.55,2.885 -2.179,4.785 0.233,0.066 1.033,0.082 2.389,0.01 1.049,-0.071 1.522,0.034 1.457,0.353"
         id="path789" />
      <path
         inkscape:connector-curvature="0"
         style="fill:#da4d5d"
         d="m 186.802,624.211 c -0.838,-1.256 -1.054,-2.547 -0.67,-3.881 0.383,-1.334 1.24,-2.289 2.615,-2.906 1.328,-0.666 2.803,-0.766 4.365,-0.316 1.504,0.43 2.674,1.285 3.506,2.57 0.847,1.227 1.069,2.49 0.684,3.824 -0.381,1.336 -1.256,2.346 -2.631,2.965 -1.376,0.621 -2.821,0.727 -4.327,0.295 -1.563,-0.448 -2.759,-1.313 -3.542,-2.551"
         id="path791" />
    </g>
  </g>
</svg>
