<?xml version="1.0" encoding="UTF-8" standalone="no"?>
<!-- Created with Inkscape (http://www.inkscape.org/) -->

<svg
   xmlns:dc="http://purl.org/dc/elements/1.1/"
   xmlns:cc="http://creativecommons.org/ns#"
   xmlns:rdf="http://www.w3.org/1999/02/22-rdf-syntax-ns#"
   xmlns:svg="http://www.w3.org/2000/svg"
   xmlns="http://www.w3.org/2000/svg"
   xmlns:sodipodi="http://sodipodi.sourceforge.net/DTD/sodipodi-0.dtd"
   xmlns:inkscape="http://www.inkscape.org/namespaces/inkscape"
   width="190"
   height="180"
   id="svg5696"
   version="1.1"
   inkscape:version="0.48.4 r9939"
   sodipodi:docname="abby2.svg">
  <defs
     id="defs5698" />
  <sodipodi:namedview
     id="base"
     pagecolor="#ffffff"
     bordercolor="#666666"
     borderopacity="1.0"
     inkscape:pageopacity="0.0"
     inkscape:pageshadow="2"
     inkscape:zoom="0.77472527"
     inkscape:cx="-9.7943287"
     inkscape:cy="240"
     inkscape:current-layer="layer1"
     inkscape:document-units="px"
     showgrid="false"
     inkscape:window-width="821"
     inkscape:window-height="591"
     inkscape:window-x="512"
     inkscape:window-y="33"
     inkscape:window-maximized="0" />
  <metadata
     id="metadata5701">
    <rdf:RDF>
      <cc:Work
         rdf:about="">
        <dc:format>image/svg+xml</dc:format>
        <dc:type
           rdf:resource="http://purl.org/dc/dcmitype/StillImage" />
        <dc:title />
      </cc:Work>
    </rdf:RDF>
  </metadata>
  <g
     id="layer1"
     inkscape:label="Layer 1"
     inkscape:groupmode="layer"
     transform="translate(0,-300)">
    <g
       transform="matrix(0.97780777,0,0,0.97780777,-316.67179,246.29497)"
       id="g1829">
      <path
         inkscape:connector-curvature="0"
         style="fill:#e27c9f"
         d="m 435.06,163.272 0.095,-0.078 c 10.319,-7.343 20.35,-10.303 30.103,-8.881 l 0.067,0.012 c 8.146,1.704 12.519,4.821 13.118,9.346 1.195,6.83 -2.634,12.159 -11.481,15.955 l -0.014,0.001 c -4.348,1.816 -8.229,2.92 -11.632,3.302 3.328,2.875 4.593,6.861 3.823,11.954 l -0.03,0.12 c -0.768,3.414 -3.286,5.454 -7.541,6.133 -3.745,0.82 -8.302,-0.714 -13.67,-4.6 -5.29,-3.846 -8.485,-7.949 -9.611,-12.322 -2.162,-8.294 0.095,-15.269 6.773,-20.942 m 41.139,1.206 -0.013,-0.014 c -0.686,-3.713 -4.574,-6.316 -11.645,-7.798 -9.151,-1.313 -18.582,1.478 -28.276,8.355 -5.734,4.945 -7.65,11.01 -5.778,18.196 1.071,3.979 4.046,7.75 8.933,11.288 4.796,3.482 8.834,4.917 12.113,4.306 l 0.059,-0.002 c 2.905,-0.45 4.678,-1.77 5.31,-3.943 0.897,-6.084 -2.215,-10.765 -9.338,-14.039 6.608,0.6 12.902,-0.524 18.896,-3.374 l -0.015,0.001 c 7.315,-3.152 10.564,-7.472 9.754,-12.976"
         id="path1831" />
      <path
         inkscape:connector-curvature="0"
         style="fill:#f8e6f0"
         d="m 476.188,164.464 0.012,0.014 c 0.81,5.504 -2.439,9.824 -9.753,12.975 l 0.015,-0.001 c -5.994,2.851 -12.288,3.974 -18.897,3.374 7.123,3.275 10.235,7.955 9.339,14.039 -0.632,2.173 -2.403,3.494 -5.311,3.943 l -0.057,0.002 c -3.28,0.612 -7.317,-0.824 -12.115,-4.305 -4.886,-3.538 -7.861,-7.31 -8.932,-11.289 -1.872,-7.186 0.044,-13.25 5.778,-18.195 9.692,-6.877 19.124,-9.668 28.275,-8.355 7.07,1.481 10.958,4.085 11.646,7.798"
         id="path1833" />
      <path
         inkscape:connector-curvature="0"
         style="fill:#e27c9f"
         d="m 415.799,161.094 -0.078,-0.085 c -8.801,-8.387 -18.585,-12.428 -29.367,-12.126 l -0.077,0.004 c -9.156,0.761 -14.719,3.335 -16.69,7.722 -3.282,6.583 -0.784,12.257 7.497,16.99 l 0.014,0.002 c 4.086,2.275 7.886,3.8 11.387,4.556 -4.383,2.456 -6.901,6.234 -7.585,11.332 l -10e-4,0.121 c -0.19,3.446 1.883,5.737 6.206,6.882 3.736,1.23 9.029,0.233 15.879,-2.987 6.753,-3.189 11.356,-6.866 13.84,-11.043 4.742,-7.917 4.399,-15.035 -1.025,-21.368 m -44.065,-3.439 0.017,-0.013 c 1.824,-3.576 6.719,-5.7 14.669,-6.362 10.111,-0.264 19.31,3.542 27.582,11.401 4.635,5.51 4.885,11.693 0.778,18.552 -2.309,3.794 -6.582,7.171 -12.816,10.102 -6.122,2.887 -10.835,3.845 -14.141,2.874 l -0.058,-0.009 c -2.957,-0.769 -4.449,-2.266 -4.481,-4.476 0.839,-6.088 5.525,-10.342 14.057,-12.764 -7.198,-0.152 -13.554,-1.966 -19.084,-5.445 l 0.015,0.002 c -6.841,-3.922 -9.02,-8.538 -6.538,-13.862"
         id="path1835" />
      <path
         inkscape:connector-curvature="0"
         style="fill:#f8e6f0"
         d="m 371.751,157.642 -0.017,0.013 c -2.482,5.324 -0.302,9.94 6.538,13.862 l -0.015,-0.002 c 5.53,3.479 11.887,5.293 19.084,5.445 -8.531,2.421 -13.218,6.676 -14.057,12.764 0.032,2.21 1.525,3.707 4.481,4.476 l 0.059,0.009 c 3.305,0.971 8.019,0.012 14.14,-2.874 6.234,-2.931 10.508,-6.308 12.817,-10.102 4.107,-6.859 3.857,-13.043 -0.779,-18.552 -8.272,-7.859 -17.471,-11.665 -27.582,-11.402 -7.949,0.662 -12.844,2.786 -14.669,6.363 l 0,0 z"
         id="path1837" />
      <path
         inkscape:connector-curvature="0"
         style="fill:#e27c9f"
         d="m 421.692,185.723 7.838,-0.542 c 3.482,7.578 5.918,15.778 7.333,24.589 2.454,-0.265 4.88,-0.257 7.281,0.018 2.413,0.276 4.562,0.824 6.461,1.644 1.897,0.82 3.278,1.827 4.171,3.001 0.947,1.263 1.224,2.534 0.837,3.842 -0.865,2.765 -3.807,4.351 -8.804,4.776 -4.982,0.423 -10.302,-0.169 -15.94,-1.763 -0.778,-1.924 -1.698,-6.47 -2.752,-13.666 -1.037,-7.136 -3.185,-14.441 -6.425,-21.899"
         id="path1839" />
      <path
         inkscape:connector-curvature="0"
         style="fill:none;stroke:#c4084a;stroke-width:2.48699999;stroke-linecap:round;stroke-linejoin:round;stroke-miterlimit:10"
         d="m 429.53,185.181 -7.838,0.542 c 3.24,7.458 5.388,14.763 6.425,21.899 1.055,7.196 1.975,11.742 2.752,13.666 5.639,1.593 10.958,2.185 15.939,1.762 4.998,-0.424 7.939,-2.011 8.806,-4.776"
         id="path1841" />
      <path
         inkscape:connector-curvature="0"
         style="fill:none;stroke:#c4084a;stroke-width:2.48699999;stroke-linecap:round;stroke-miterlimit:10"
         d="m 455.612,218.274 c 0.386,-1.308 0.111,-2.579 -0.837,-3.842 -0.892,-1.174 -2.273,-2.18 -4.171,-3.001 -1.898,-0.82 -4.047,-1.367 -6.461,-1.644 -2.401,-0.275 -4.826,-0.283 -7.281,-0.018 -1.414,-8.811 -3.85,-17.011 -7.333,-24.588"
         id="path1843" />
      <path
         inkscape:connector-curvature="0"
         style="fill:#e27c9f"
         d="m 408.813,187.96 7.975,-0.124 c 2.393,7.647 3.638,15.853 3.765,24.605 2.51,-0.13 4.954,0.002 7.329,0.399 2.393,0.399 4.477,1.051 6.267,1.959 1.792,0.908 3.036,1.971 3.761,3.175 0.769,1.294 0.86,2.56 0.277,3.827 -1.28,2.679 -4.475,4.087 -9.573,4.243 -5.081,0.157 -10.353,-0.707 -15.798,-2.569 -0.502,-1.938 -0.758,-6.463 -0.759,-13.606 0.008,-7.084 -1.079,-14.393 -3.244,-21.909"
         id="path1845" />
      <path
         inkscape:connector-curvature="0"
         style="fill:none;stroke:#c4084a;stroke-width:2.41499996;stroke-linecap:round;stroke-linejoin:round;stroke-miterlimit:10"
         d="m 416.788,187.836 -7.975,0.124 c 2.164,7.516 3.252,14.824 3.245,21.908 0.001,7.143 0.257,11.668 0.759,13.606 5.444,1.863 10.716,2.726 15.797,2.57 5.098,-0.156 8.293,-1.564 9.573,-4.243"
         id="path1847" />
      <path
         inkscape:connector-curvature="0"
         style="fill:none;stroke:#c4084a;stroke-width:2.41499996;stroke-linecap:round;stroke-miterlimit:10"
         d="m 438.187,221.801 c 0.583,-1.267 0.493,-2.533 -0.277,-3.829 -0.724,-1.203 -1.969,-2.266 -3.76,-3.173 -1.791,-0.908 -3.876,-1.56 -6.267,-1.959 -2.375,-0.397 -4.82,-0.53 -7.33,-0.399 -0.126,-8.753 -1.372,-16.958 -3.765,-24.605"
         id="path1849" />
      <path
         inkscape:connector-curvature="0"
         style="fill:#3793d1"
         d="m 442.619,166.821 -0.472,-5.292 -24.069,-2.559 -2.322,5.304 -2.155,2.247 -0.072,0.044 c -2.147,2.429 -4.095,4.944 -5.854,7.53 -5.773,8.523 -8.461,16.36 -8.067,23.512 l 0.043,1.811 1.933,0.348 c 1.273,0.269 2.665,0.217 4.171,-0.14 0.012,0.587 0.073,1.171 0.152,1.743 l 0.21,1.905 2.042,0.13 c 1.042,0.116 2.131,0.016 3.265,-0.3 0.299,1.218 0.688,2.381 1.159,3.456 l 0.785,1.997 2.152,-0.657 c 1.533,-0.411 3.059,-1.29 4.562,-2.639 0.36,0.721 0.762,1.391 1.19,2.022 l 1.219,1.879 1.994,-1.081 c 0.353,-0.181 0.694,-0.378 1.04,-0.591 0.559,0.884 1.179,1.705 1.845,2.461 l 1.407,1.738 1.858,-1.319 c 1.479,-1.024 2.837,-2.568 4.053,-4.608 0.14,0.149 0.282,0.285 0.441,0.424 l 1.541,1.554 1.727,-1.435 c 0.36,-0.284 0.712,-0.6 1.054,-0.949 1.113,1.151 2.315,2.109 3.609,2.864 l 1.815,1.163 1.331,-1.641 c 2.046,-2.388 3.397,-5.976 4.053,-10.76 1.213,-8.976 -1.339,-19.029 -7.64,-30.161 m -2.679,-3.237 0.362,4.219 0.116,-0.095 c 6.108,10.714 8.592,20.364 7.463,28.951 -0.574,4.276 -1.766,7.493 -3.552,9.637 -1.871,-1.13 -3.526,-2.74 -4.967,-4.831 -0.766,1.28 -1.621,2.315 -2.559,3.092 -0.971,-0.941 -1.832,-2.022 -2.583,-3.246 -1.425,3.421 -3.094,5.816 -5.027,7.194 -1.189,-1.377 -2.169,-2.994 -2.953,-4.856 -0.939,1.062 -1.929,1.859 -2.944,2.41 -0.986,-1.513 -1.784,-3.243 -2.378,-5.185 -2.033,2.618 -4.078,4.227 -6.139,4.829 -0.756,-1.78 -1.269,-3.736 -1.537,-5.878 -1.795,0.957 -3.457,1.387 -4.959,1.296 -0.198,-1.604 -0.229,-3.247 -0.109,-4.947 -2.319,1.206 -4.379,1.657 -6.191,1.334 -0.333,-6.718 2.241,-14.099 7.705,-22.147 1.695,-2.509 3.59,-4.931 5.676,-7.298 l 2.406,-2.523 1.811,-4.121 20.359,2.165 z"
         id="path1851" />
      <path
         inkscape:connector-curvature="0"
         style="fill:#86c1ea"
         d="m 440.302,167.804 -0.362,-4.219 -20.359,-2.165 -1.811,4.12 -2.406,2.524 c -2.086,2.366 -3.981,4.788 -5.675,7.298 -5.465,8.047 -8.039,15.429 -7.706,22.147 1.812,0.323 3.871,-0.128 6.191,-1.334 0.71,-0.376 1.431,-0.809 2.17,-1.313 0.958,-0.654 1.891,-1.403 2.81,-2.23 -0.239,2.591 -0.199,4.987 0.087,7.194 0.269,2.142 0.782,4.098 1.538,5.877 2.061,-0.601 4.106,-2.211 6.139,-4.828 0.343,-0.422 0.681,-0.891 1.029,-1.404 0.798,-1.136 1.536,-2.361 2.223,-3.702 0.412,2.983 1.106,5.621 2.07,7.881 0.784,1.862 1.764,3.479 2.953,4.856 1.933,-1.378 3.602,-3.773 5.027,-7.195 0.147,-0.389 0.298,-0.792 0.449,-1.195 0.605,-1.614 1.074,-3.332 1.408,-5.137 0.936,2.524 2.034,4.677 3.285,6.487 1.441,2.09 3.096,3.7 4.966,4.831 1.787,-2.144 2.979,-5.362 3.554,-9.637 1.129,-8.587 -1.355,-18.236 -7.463,-28.952 l -0.117,0.096 z"
         id="path1853" />
      <path
         inkscape:connector-curvature="0"
         style="fill:#bc9fca"
         d="m 436.077,194.979 c -0.333,1.805 -0.803,3.523 -1.408,5.136 -0.151,0.404 -0.301,0.807 -0.449,1.196 0.751,1.224 1.612,2.306 2.583,3.247 0.938,-0.778 1.793,-1.813 2.559,-3.092 -1.251,-1.81 -2.348,-3.963 -3.285,-6.487"
         id="path1855" />
      <path
         inkscape:connector-curvature="0"
         style="fill:#bc9fca"
         d="m 423.296,206.059 c 1.015,-0.551 2.005,-1.347 2.944,-2.41 -0.964,-2.259 -1.657,-4.897 -2.07,-7.881 -0.686,1.341 -1.424,2.566 -2.223,3.703 -0.348,0.512 -0.686,0.982 -1.029,1.403 0.594,1.942 1.392,3.672 2.378,5.185"
         id="path1857" />
      <path
         inkscape:connector-curvature="0"
         style="fill:#bc9fca"
         d="m 408.174,196.174 c -0.121,1.7 -0.089,3.343 0.109,4.947 1.502,0.091 3.164,-0.339 4.959,-1.296 -0.286,-2.207 -0.327,-4.602 -0.088,-7.193 -0.918,0.827 -1.852,1.575 -2.81,2.229 -0.738,0.504 -1.46,0.937 -2.17,1.313"
         id="path1859" />
      <path
         inkscape:connector-curvature="0"
         style="fill:#d4074c"
         d="m 338.772,217.504 c 0.015,0.61 0.248,1.12 0.689,1.541 l 0.281,0.266 c 0.453,0.41 0.973,0.62 1.572,0.615 0.6,-0.025 1.109,-0.258 1.53,-0.679 l 46.698,-49.064 c 0.41,-0.431 0.598,-0.951 0.572,-1.55 -0.013,-0.609 -0.248,-1.12 -0.679,-1.552 l -0.28,-0.265 c -0.452,-0.411 -0.983,-0.608 -1.582,-0.604 -0.6,0.024 -1.099,0.247 -1.489,0.678 l -46.729,49.054 c -0.4,0.44 -0.586,0.96 -0.583,1.56"
         id="path1861" />
      <path
         inkscape:connector-curvature="0"
         style="fill:none;stroke:#d40247;stroke-width:4.46299982;stroke-miterlimit:10"
         d="m 339.461,219.045 0.28,0.266 c 0.453,0.41 0.973,0.62 1.573,0.615 0.599,-0.025 1.109,-0.258 1.53,-0.679 l 46.698,-49.064 c 0.41,-0.431 0.597,-0.951 0.572,-1.55 -0.014,-0.609 -0.248,-1.12 -0.679,-1.552 l -0.281,-0.265 c -0.451,-0.411 -0.982,-0.608 -1.582,-0.604 -0.6,0.024 -1.098,0.247 -1.488,0.678 l -46.729,49.054 c -0.4,0.44 -0.587,0.96 -0.583,1.56 0.015,0.61 0.249,1.121 0.689,1.541 z"
         id="path1863" />
      <path
         inkscape:connector-curvature="0"
         style="fill:#d4074c"
         d="m 338.772,217.504 c 0.015,0.61 0.248,1.12 0.689,1.541 l 0.281,0.266 c 0.453,0.41 0.973,0.62 1.572,0.615 0.6,-0.025 1.109,-0.258 1.53,-0.679 l 46.698,-49.064 c 0.41,-0.431 0.598,-0.951 0.572,-1.55 -0.013,-0.609 -0.248,-1.12 -0.679,-1.552 l -0.28,-0.265 c -0.452,-0.411 -0.983,-0.608 -1.582,-0.604 -0.6,0.024 -1.099,0.247 -1.489,0.678 l -46.729,49.054 c -0.4,0.44 -0.586,0.96 -0.583,1.56"
         id="path1865" />
      <path
         inkscape:connector-curvature="0"
         style="fill:none;stroke:#d4074c;stroke-width:2.3210001;stroke-miterlimit:10"
         d="m 339.461,219.045 0.28,0.266 c 0.453,0.41 0.973,0.62 1.573,0.615 0.599,-0.025 1.109,-0.258 1.53,-0.679 l 46.698,-49.064 c 0.41,-0.431 0.597,-0.951 0.572,-1.55 -0.014,-0.609 -0.248,-1.12 -0.679,-1.552 l -0.281,-0.265 c -0.451,-0.411 -0.982,-0.608 -1.582,-0.604 -0.6,0.024 -1.098,0.247 -1.488,0.678 l -46.729,49.054 c -0.4,0.44 -0.587,0.96 -0.583,1.56 0.015,0.61 0.249,1.121 0.689,1.541 z"
         id="path1867" />
      <polygon
         style="fill:#d4074c"
         points="365.367,188.637 371.041,189.604 373.165,187.375 367.48,186.418 "
         id="polygon1869" />
      <polygon
         style="fill:none;stroke:#d4074c;stroke-width:2.3210001;stroke-miterlimit:10"
         points="365.367,188.637 367.48,186.418 373.165,187.375 371.041,189.604 "
         id="polygon1871" />
      <polygon
         style="fill:#d4074c"
         points="353.198,201.434 350.827,203.923 351.402,210.243 353.763,207.786 "
         id="polygon1873" />
      <polygon
         style="fill:none;stroke:#d4074c;stroke-width:2.3210001;stroke-miterlimit:10"
         points="353.198,201.434 353.763,207.786 351.402,210.243 350.827,203.923 "
         id="polygon1875" />
      <polygon
         style="fill:#d4074c"
         points="353.751,200.81 359.447,201.819 361.55,199.59 355.876,198.623 "
         id="polygon1877" />
      <polygon
         style="fill:none;stroke:#d4074c;stroke-width:2.3210001;stroke-miterlimit:10"
         points="353.751,200.81 355.876,198.623 361.55,199.59 359.447,201.819 "
         id="polygon1879" />
      <polygon
         style="fill:#d4074c"
         points="362.721,198.382 365.039,195.928 364.475,189.575 362.124,192.02 "
         id="polygon1881" />
      <polygon
         style="fill:none;stroke:#d4074c;stroke-width:2.3210001;stroke-miterlimit:10"
         points="362.721,198.382 362.124,192.02 364.475,189.575 365.039,195.928 "
         id="polygon1883" />
      <polygon
         style="fill:#d4074c"
         points="376.122,177.371 373.771,179.815 374.314,186.169 376.665,183.723 "
         id="polygon1885" />
      <polygon
         style="fill:none;stroke:#d4074c;stroke-width:2.3210001;stroke-miterlimit:10"
         points="376.122,177.371 376.665,183.723 374.314,186.169 373.771,179.815 "
         id="polygon1887" />
      <polygon
         style="fill:#d4074c"
         points="383.251,176.808 385.365,174.569 379.691,173.601 377.556,175.82 "
         id="polygon1889" />
      <polygon
         style="fill:none;stroke:#d4074c;stroke-width:2.3210001;stroke-miterlimit:10"
         points="383.251,176.808 377.556,175.82 379.691,173.601 385.365,174.569 "
         id="polygon1891" />
      <path
         inkscape:connector-curvature="0"
         style="fill:#84539c"
         d="m 338.772,217.504 c 0.015,0.61 0.248,1.12 0.689,1.541 l 0.281,0.266 c 0.453,0.41 0.973,0.62 1.572,0.615 0.6,-0.025 1.109,-0.258 1.53,-0.679 l 46.698,-49.064 c 0.41,-0.431 0.598,-0.951 0.572,-1.55 -0.013,-0.609 -0.248,-1.12 -0.679,-1.552 l -0.28,-0.265 c -0.452,-0.411 -0.983,-0.608 -1.582,-0.604 -0.6,0.024 -1.099,0.247 -1.489,0.678 l -46.729,49.054 c -0.4,0.44 -0.586,0.96 -0.583,1.56"
         id="path1893" />
      <polygon
         style="fill:#e97ca0"
         points="365.367,188.637 371.041,189.604 373.165,187.375 367.48,186.418 "
         id="polygon1895" />
      <polygon
         style="fill:#6bc4ee"
         points="353.198,201.434 350.827,203.923 351.402,210.243 353.763,207.786 "
         id="polygon1897" />
      <polygon
         style="fill:#e97ca0"
         points="353.751,200.81 359.447,201.819 361.55,199.59 355.876,198.623 "
         id="polygon1899" />
      <polygon
         style="fill:#6bc4ee"
         points="362.721,198.382 365.039,195.928 364.475,189.575 362.124,192.02 "
         id="polygon1901" />
      <polygon
         style="fill:#6bc4ee"
         points="376.122,177.371 373.771,179.815 374.314,186.169 376.665,183.723 "
         id="polygon1903" />
      <polygon
         style="fill:#e97ca0"
         points="383.251,176.808 385.365,174.569 379.691,173.601 377.556,175.82 "
         id="polygon1905" />
      <path
         inkscape:connector-curvature="0"
         style="fill:#f0d5e6"
         d="m 334.116,232.356 c 1.017,-0.162 1.716,-0.831 2.098,-2.008 0.371,-1.188 0.707,-2.922 0.978,-5.213 0.492,-2.262 1.594,-4.541 3.317,-6.845 l -0.094,0.055 c -2.133,1.851 -3.902,3.555 -5.295,5.104 -2.591,2.915 -3.616,5.349 -3.095,7.304 0.336,1.267 1.023,1.797 2.091,1.603"
         id="path1907" />
      <path
         inkscape:connector-curvature="0"
         style="fill:#f0d5e6"
         d="m 344.577,206.405 c -0.388,2.241 -0.813,4.219 -1.267,5.924 -0.453,1.704 -1.435,3.728 -2.956,6.079 0.795,-0.208 2.564,-1.913 5.285,-5.093 2.601,-2.927 3.647,-5.361 3.137,-7.306 -0.346,-1.254 -1.043,-1.795 -2.102,-1.613 -1.016,0.183 -1.715,0.854 -2.097,2.009"
         id="path1909" />
      <path
         inkscape:connector-curvature="0"
         style="fill:#f0d5e6"
         d="m 337.881,233.58 c 0.937,-0.443 1.442,-1.276 1.517,-2.499 0.055,-1.244 -0.062,-3.019 -0.381,-5.336 -0.098,-2.291 0.388,-4.787 1.48,-7.507 l -0.082,0.107 c -1.595,2.344 -2.849,4.436 -3.783,6.279 -1.766,3.494 -2.156,6.123 -1.155,7.877 0.638,1.142 1.446,1.501 2.404,1.079"
         id="path1911" />
      <path
         inkscape:connector-curvature="0"
         style="fill:#6bc4ee"
         d="m 334.116,232.356 c 1.017,-0.162 1.716,-0.831 2.098,-2.008 0.371,-1.188 0.707,-2.922 0.978,-5.213 0.492,-2.262 1.594,-4.541 3.317,-6.845 l -0.094,0.055 c -2.138,1.64 -4.204,3.638 -6.2,5.969 -1.984,2.342 -2.711,4.485 -2.19,6.44 0.336,1.266 1.023,1.796 2.091,1.602"
         id="path1913" />
      <path
         inkscape:connector-curvature="0"
         style="fill:#eddd00"
         d="m 337.881,233.58 c 0.937,-0.443 1.442,-1.276 1.517,-2.499 0.055,-1.244 -0.062,-3.019 -0.381,-5.336 -0.098,-2.291 0.388,-4.787 1.48,-7.507 l -0.082,0.107 c -1.595,2.344 -2.849,4.436 -3.783,6.279 -1.766,3.494 -2.156,6.123 -1.155,7.877 0.638,1.142 1.446,1.501 2.404,1.079"
         id="path1915" />
      <path
         inkscape:connector-curvature="0"
         style="fill:#eddd00"
         d="m 344.169,212.14 c 1.756,-3.504 2.145,-6.135 1.145,-7.889 -0.649,-1.151 -1.447,-1.502 -2.394,-1.068 -0.936,0.444 -1.442,1.277 -1.518,2.5 0.192,2.278 0.309,4.054 0.371,5.326 0.087,2.281 -0.39,4.745 -1.419,7.4 0.503,-0.506 1.778,-2.6 3.815,-6.269"
         id="path1917" />
      <path
         inkscape:connector-curvature="0"
         style="fill:#f0d5e6"
         d="m 341.79,233.791 c 0.785,-0.651 1.056,-1.584 0.816,-2.799 -0.251,-1.246 -0.829,-2.947 -1.723,-5.093 -0.642,-2.173 -0.798,-4.685 -0.468,-7.554 -0.956,2.686 -1.645,5.049 -2.079,7.08 -0.854,3.85 -0.568,6.506 0.845,7.955 0.918,0.955 1.783,1.082 2.609,0.411"
         id="path1919" />
      <path
         inkscape:connector-curvature="0"
         style="fill:#6bc4ee"
         d="m 338.195,205.771 c 0.757,2.16 1.352,4.103 1.783,5.829 0.432,1.726 0.55,4.038 0.379,6.935 l 0.029,-0.116 c 0.333,-0.544 1.024,-2.887 2.08,-7.038 0.833,-3.85 0.559,-6.515 -0.847,-7.998 -0.927,-0.945 -1.782,-1.082 -2.608,-0.409 -0.795,0.66 -1.066,1.593 -0.816,2.797"
         id="path1921" />
      <path
         inkscape:connector-curvature="0"
         style="fill:#f0d5e6"
         d="m 343.01,233.287 c 1.111,0.688 1.981,0.594 2.602,-0.274 0.602,-0.825 0.641,-1.794 0.086,-2.916 -0.553,-1.145 -1.525,-2.647 -2.906,-4.497 -1.207,-1.991 -2.002,-4.455 -2.399,-7.361 l -0.009,0.095 c -0.226,2.848 -0.291,5.311 -0.21,7.382 0.181,3.974 1.125,6.497 2.836,7.571"
         id="path1923" />
      <path
         inkscape:connector-curvature="0"
         style="fill:#f0d5e6"
         d="m 341.79,233.791 c 0.785,-0.651 1.056,-1.584 0.816,-2.799 -0.251,-1.246 -0.829,-2.947 -1.723,-5.093 -0.642,-2.173 -0.798,-4.685 -0.468,-7.554 -0.956,2.686 -1.645,5.049 -2.079,7.08 -0.854,3.85 -0.568,6.506 0.845,7.955 0.918,0.955 1.783,1.082 2.609,0.411"
         id="path1925" />
      <path
         inkscape:connector-curvature="0"
         style="fill:#6bc4ee"
         d="m 343.01,233.287 c 1.111,0.688 1.981,0.594 2.602,-0.274 0.602,-0.825 0.641,-1.794 0.086,-2.916 -0.553,-1.145 -1.537,-2.699 -2.942,-4.674 -1.067,-1.879 -1.862,-4.282 -2.363,-7.184 l -0.009,0.095 c -0.226,2.848 -0.291,5.311 -0.21,7.382 0.181,3.974 1.125,6.497 2.836,7.571"
         id="path1927" />
      <path
         inkscape:connector-curvature="0"
         style="fill:#eddd00"
         d="m 340.389,218.546 -0.003,-0.126 c 0.002,-0.801 0.088,-3.266 0.231,-7.404 -0.148,-3.942 -1.094,-6.444 -2.813,-7.529 -1.133,-0.688 -2.005,-0.614 -2.625,0.253 -0.602,0.825 -0.63,1.805 -0.088,2.917 1.289,1.926 2.262,3.45 2.921,4.549 1.215,1.981 2.011,4.423 2.377,7.34"
         id="path1929" />
      <path
         inkscape:connector-curvature="0"
         style="fill:#f0d5e6"
         d="m 344.683,224.649 c -1.668,-1.548 -3.098,-3.65 -4.299,-6.315 0.573,2.828 1.2,5.233 1.848,7.205 1.291,3.757 2.901,5.928 4.829,6.492 1.261,0.359 2.064,0.033 2.418,-0.964 0.335,-0.976 0.091,-1.927 -0.742,-2.844 -0.833,-0.958 -2.189,-2.147 -4.054,-3.574"
         id="path1931" />
      <path
         inkscape:connector-curvature="0"
         style="fill:#f0d5e6"
         d="m 331.312,205.707 c -0.355,0.956 -0.112,1.907 0.721,2.845 1.762,1.493 3.117,2.68 4.065,3.562 1.668,1.549 3.108,3.64 4.308,6.283 -0.064,-1.335 -0.679,-3.729 -1.88,-7.193 -1.279,-3.768 -2.878,-5.929 -4.806,-6.471 -1.262,-0.359 -2.064,-0.034 -2.408,0.974"
         id="path1933" />
      <path
         inkscape:connector-curvature="0"
         style="fill:#f0d5e6"
         d="m 340.297,218.231 0.055,0.094 c 1.273,2.61 2.494,4.8 3.641,6.552 2.176,3.344 4.269,5.052 6.27,5.108 1.305,0.031 2.009,-0.491 2.087,-1.565 0.059,-1.034 -0.413,-1.896 -1.441,-2.586 -1.069,-0.711 -2.657,-1.525 -4.805,-2.44 -2.047,-1.107 -3.981,-2.829 -5.807,-5.163"
         id="path1935" />
      <path
         inkscape:connector-curvature="0"
         style="fill:#f0d5e6"
         d="m 344.683,224.649 c -1.668,-1.548 -3.098,-3.65 -4.299,-6.315 0.573,2.828 1.2,5.233 1.848,7.205 1.291,3.757 2.901,5.928 4.829,6.492 1.261,0.359 2.064,0.033 2.418,-0.964 0.335,-0.976 0.091,-1.927 -0.742,-2.844 -0.833,-0.958 -2.189,-2.147 -4.054,-3.574"
         id="path1937" />
      <path
         inkscape:connector-curvature="0"
         style="fill:#eddd00"
         d="m 340.297,218.231 0.055,0.094 c 1.273,2.61 2.494,4.8 3.641,6.552 2.176,3.344 4.269,5.052 6.27,5.108 1.305,0.031 2.009,-0.491 2.087,-1.565 0.059,-1.034 -0.413,-1.896 -1.441,-2.586 -1.069,-0.711 -2.657,-1.525 -4.805,-2.44 -2.047,-1.107 -3.981,-2.829 -5.807,-5.163"
         id="path1939" />
      <path
         inkscape:connector-curvature="0"
         style="fill:#eddd00"
         d="m 328.451,208.344 c -0.081,1.012 0.393,1.873 1.421,2.585 2.065,1.003 3.662,1.827 4.805,2.44 2.046,1.108 3.982,2.829 5.807,5.163 l -0.066,-0.104 c -0.238,-0.657 -1.437,-2.848 -3.62,-6.551 -2.177,-3.346 -4.259,-5.043 -6.259,-5.079 -1.316,-0.041 -2.008,0.471 -2.088,1.546"
         id="path1941" />
      <path
         inkscape:connector-curvature="0"
         style="fill:#f0d5e6"
         d="m 340.288,218.264 0.065,0.082 c 1.874,2.216 3.57,4.039 5.121,5.453 2.938,2.717 5.386,3.858 7.342,3.4 1.266,-0.295 1.797,-0.959 1.615,-1.996 -0.194,-1.027 -0.864,-1.747 -2.022,-2.172 -1.199,-0.444 -2.955,-0.844 -5.258,-1.208 -2.244,-0.556 -4.526,-1.743 -6.863,-3.559"
         id="path1943" />
      <path
         inkscape:connector-curvature="0"
         style="fill:#6bc4ee"
         d="m 328.393,213.754 c 2.242,0.471 3.988,0.86 5.237,1.188 2.234,0.546 4.535,1.73 6.895,3.567 l -0.087,-0.103 c -0.33,-0.622 -2.047,-2.443 -5.141,-5.452 -2.917,-2.717 -5.355,-3.846 -7.29,-3.389 -1.278,0.283 -1.818,0.96 -1.614,2.017 0.162,1.039 0.822,1.77 2,2.172"
         id="path1945" />
      <path
         inkscape:connector-curvature="0"
         style="fill:#f0d5e6"
         d="m 340.353,218.346 c 2.366,1.68 4.472,3.028 6.296,4.046 3.518,1.892 6.15,2.387 7.917,1.461 1.153,-0.607 1.512,-1.417 1.067,-2.394 -0.443,-0.936 -1.298,-1.463 -2.542,-1.58 -1.256,-0.127 -3.033,-0.074 -5.31,0.159 -2.262,0.003 -4.748,-0.557 -7.428,-1.692"
         id="path1947" />
      <path
         inkscape:connector-curvature="0"
         style="fill:#f0d5e6"
         d="m 340.288,218.264 0.065,0.082 c 1.874,2.216 3.57,4.039 5.121,5.453 2.938,2.717 5.386,3.858 7.342,3.4 1.266,-0.295 1.797,-0.959 1.615,-1.996 -0.194,-1.027 -0.864,-1.747 -2.022,-2.172 -1.199,-0.444 -2.955,-0.844 -5.258,-1.208 -2.244,-0.556 -4.526,-1.743 -6.863,-3.559"
         id="path1949" />
      <path
         inkscape:connector-curvature="0"
         style="fill:#6bc4ee"
         d="m 353.09,219.878 c -1.255,-0.127 -3.033,-0.073 -5.31,0.16 -2.295,-0.07 -4.761,-0.631 -7.428,-1.693 2.366,1.68 4.472,3.028 6.297,4.046 3.518,1.893 6.149,2.387 7.916,1.461 1.153,-0.607 1.512,-1.416 1.067,-2.393 -0.443,-0.937 -1.297,-1.463 -2.542,-1.581"
         id="path1951" />
      <path
         inkscape:connector-curvature="0"
         style="fill:#eddd00"
         d="m 327.68,216.875 c 2.292,-0.097 4.058,-0.141 5.32,-0.15 2.294,-0.013 4.813,0.579 7.535,1.754 l -0.096,-0.072 c -0.551,-0.607 -2.657,-1.955 -6.307,-4.034 -3.507,-1.884 -6.139,-2.377 -7.895,-1.461 -1.142,0.617 -1.492,1.414 -1.047,2.392 0.444,0.937 1.277,1.464 2.49,1.571"
         id="path1953" />
      <path
         inkscape:connector-curvature="0"
         style="fill:#f0d5e6"
         d="m 340.237,218.338 0.105,0.04 c 2.708,0.996 5.093,1.728 7.135,2.194 3.863,0.885 6.519,0.641 7.948,-0.73 0.947,-0.886 1.073,-1.752 0.38,-2.577 -0.683,-0.814 -1.637,-1.106 -2.831,-0.867 -1.226,0.208 -2.928,0.745 -5.085,1.607 -2.184,0.632 -4.738,0.746 -7.652,0.333"
         id="path1955" />
      <path
         inkscape:connector-curvature="0"
         style="fill:#f0d5e6"
         d="m 327.817,220.376 c 2.16,-0.736 3.852,-1.283 5.063,-1.627 2.174,-0.621 4.697,-0.725 7.558,-0.342 -0.621,-0.448 -2.986,-1.179 -7.105,-2.227 -3.882,-0.884 -6.539,-0.641 -7.968,0.731 -0.935,0.896 -1.062,1.762 -0.358,2.597 0.671,0.784 1.616,1.065 2.81,0.868"
         id="path1957" />
      <path
         inkscape:connector-curvature="0"
         style="fill:#f0d5e6"
         d="m 340.248,218.37 0.095,0.008 c 2.869,0.287 5.334,0.397 7.416,0.346 3.944,-0.106 6.437,-0.999 7.48,-2.696 0.666,-1.111 0.571,-1.982 -0.306,-2.614 -0.836,-0.61 -1.815,-0.66 -2.929,-0.138 -1.144,0.533 -2.637,1.474 -4.456,2.843 -1.959,1.174 -4.393,1.917 -7.3,2.251"
         id="path1959" />
      <path
         inkscape:connector-curvature="0"
         style="fill:#eddd00"
         d="m 340.237,218.338 0.105,0.04 c 2.708,0.996 5.093,1.728 7.135,2.194 3.863,0.885 6.519,0.641 7.948,-0.73 0.947,-0.886 1.073,-1.752 0.38,-2.577 -0.683,-0.814 -1.637,-1.106 -2.831,-0.867 -1.226,0.208 -2.928,0.745 -5.085,1.607 -2.184,0.632 -4.738,0.746 -7.652,0.333"
         id="path1961" />
      <path
         inkscape:connector-curvature="0"
         style="fill:#f0d5e6"
         d="m 340.248,218.37 0.095,0.008 c 2.869,0.287 5.334,0.397 7.416,0.346 3.944,-0.106 6.437,-0.999 7.48,-2.696 0.666,-1.111 0.571,-1.982 -0.306,-2.614 -0.836,-0.61 -1.815,-0.66 -2.929,-0.138 -1.144,0.533 -2.637,1.474 -4.456,2.843 -1.959,1.174 -4.393,1.917 -7.3,2.251"
         id="path1963" />
      <path
         inkscape:connector-curvature="0"
         style="fill:#6bc4ee"
         d="m 328.796,223.488 c 1.896,-1.236 3.379,-2.187 4.446,-2.833 1.982,-1.175 4.415,-1.918 7.323,-2.251 l -0.117,-0.029 c -0.709,-0.14 -3.185,-0.259 -7.417,-0.325 -3.953,0.116 -6.446,1.009 -7.479,2.676 -0.667,1.11 -0.562,1.991 0.306,2.634 0.836,0.61 1.815,0.64 2.938,0.128 l 0,0 z"
         id="path1965" />
      <path
         inkscape:connector-curvature="0"
         style="fill:#f0d5e6"
         d="m 346.707,214.394 c -1.549,1.606 -3.665,2.919 -6.354,3.952 2.831,-0.405 5.229,-0.894 7.225,-1.479 3.793,-1.092 5.955,-2.586 6.519,-4.494 0.37,-1.23 0.056,-2.064 -0.943,-2.46 -0.978,-0.376 -1.92,-0.186 -2.848,0.595 -0.96,0.79 -2.158,2.094 -3.599,3.886 l 0,0 z"
         id="path1967" />
      <path
         inkscape:connector-curvature="0"
         style="fill:#eddd00"
         d="m 333.214,219.888 c -3.783,1.101 -5.945,2.595 -6.52,4.494 -0.371,1.229 -0.056,2.063 0.933,2.471 0.977,0.376 1.93,0.174 2.858,-0.606 1.506,-1.69 2.706,-2.991 3.599,-3.887 1.592,-1.628 3.737,-2.952 6.459,-3.997 l -0.095,0.013 c -0.746,0.049 -3.165,0.56 -7.234,1.512"
         id="path1969" />
      <path
         inkscape:connector-curvature="0"
         style="fill:#f0d5e6"
         d="m 340.25,218.475 0.104,-0.066 c 2.613,-1.148 4.807,-2.242 6.57,-3.295 3.35,-2.007 5.07,-4.006 5.146,-6.007 0.054,-1.327 -0.448,-2.051 -1.526,-2.195 -1.023,-0.111 -1.896,0.332 -2.608,1.316 -1.015,2.014 -1.85,3.581 -2.486,4.702 -1.118,1.974 -2.852,3.815 -5.2,5.545"
         id="path1971" />
      <path
         inkscape:connector-curvature="0"
         style="fill:#6bc4ee"
         d="m 348.916,216.518 c 2.894,-0.86 4.617,-2.238 5.182,-4.146 0.369,-1.229 0.055,-2.063 -0.944,-2.459 -0.977,-0.377 -1.919,-0.186 -2.847,0.595 -0.96,0.79 -2.159,2.093 -3.599,3.885 -1.55,1.606 -3.665,2.92 -6.355,3.953 2.812,-0.342 5.66,-0.958 8.563,-1.828"
         id="path1973" />
      <path
         inkscape:connector-curvature="0"
         style="fill:#eddd00"
         d="m 340.25,218.475 0.104,-0.066 c 2.613,-1.148 4.807,-2.242 6.57,-3.295 3.35,-2.007 5.07,-4.006 5.146,-6.007 0.054,-1.327 -0.448,-2.051 -1.526,-2.195 -1.023,-0.111 -1.896,0.332 -2.608,1.316 -1.015,2.014 -1.85,3.581 -2.486,4.702 -1.118,1.974 -2.852,3.815 -5.2,5.545"
         id="path1975" />
      <path
         inkscape:connector-curvature="0"
         style="fill:#f0d5e6"
         d="m 333.856,221.65 c -3.339,2.017 -5.069,4.027 -5.157,6.038 -0.021,1.295 0.491,2.009 1.526,2.152 1.056,0.122 1.929,-0.298 2.62,-1.306 0.722,-1.017 1.548,-2.572 2.475,-4.668 1.13,-1.985 2.853,-3.836 5.2,-5.546 l -0.072,0.035 c -0.732,0.228 -2.936,1.334 -6.592,3.295"
         id="path1977" />
      <path
         inkscape:connector-curvature="0"
         style="fill:#e27c9f"
         d="m 412.765,169.032 c 3.368,1.965 4.143,4.744 2.338,8.329 l -37.401,10.281 c -0.378,-2.306 -0.26,-5.219 0.371,-8.772 l 34.692,-9.838 z"
         id="path1979" />
      <path
         inkscape:connector-curvature="0"
         style="fill:none;stroke:#c4084a;stroke-width:2.39299989;stroke-linecap:round;stroke-linejoin:round;stroke-miterlimit:10"
         d="m 378.073,178.87 34.692,-9.838 c 3.368,1.965 4.143,4.744 2.338,8.329 l -37.401,10.28"
         id="path1981" />
      <path
         inkscape:connector-curvature="0"
         style="fill:#c4084a"
         d="m 369.332,194.986 c -0.021,-0.005 -0.116,-0.067 -0.276,-0.177 l 1.88,-1.991 c 2.413,1.158 4.493,0.679 6.236,-1.44 -0.008,-0.013 -0.008,-0.013 0.004,-0.021 1.256,-1.441 2.221,-3.659 2.9,-6.617 l 0.944,2.079 c 0.447,2.03 -0.192,4.088 -1.907,6.168 -0.004,0.022 -0.004,0.022 -0.017,0.03 -2.736,3.334 -5.986,3.987 -9.764,1.969"
         id="path1983" />
      <path
         inkscape:connector-curvature="0"
         style="fill:#e27c9f"
         d="m 377.176,191.357 c -0.012,0.008 -0.012,0.008 -0.003,0.021 -1.744,2.119 -3.824,2.598 -6.237,1.439 l 1.106,-1.095 c 0.202,0.117 0.4,0.257 0.61,0.387 l 0.631,-0.785 -0.471,-0.585 c -3.002,-3.238 -6.564,-4.434 -10.718,-3.603 -0.278,-1.031 -0.312,-1.795 -0.099,-2.29 0.286,-0.739 0.956,-1.354 2.027,-1.875 l 0.742,-0.394 -0.05,-0.984 c -0.253,-1.976 1.234,-3.392 4.475,-4.252 l 0.353,-0.088 0.264,-0.279 c 1.608,-1.779 3.374,-2.574 5.31,-2.371 2.515,0.274 4.884,1.691 7.109,4.257 l 1.813,2.264 -3.962,3.616 c -0.679,2.958 -1.644,5.176 -2.9,6.617"
         id="path1985" />
      <path
         inkscape:connector-curvature="0"
         style="fill:#c4084a"
         d="m 384.749,178.322 c -1.368,0.339 -2.196,0.52 -2.524,0.538 -2.225,-2.566 -4.594,-3.984 -7.109,-4.258 -1.935,-0.202 -3.701,0.593 -5.309,2.371 l -0.265,0.28 -0.353,0.088 c -3.241,0.86 -4.728,2.276 -4.475,4.252 l 0.051,0.984 -0.743,0.394 c -1.07,0.52 -1.74,1.135 -2.026,1.874 -0.214,0.496 -0.18,1.259 0.099,2.291 4.154,-0.832 7.716,0.364 10.717,3.603 l 0.471,0.584 -0.631,0.786 c -0.21,-0.131 -0.407,-0.27 -0.61,-0.388 -5.231,-2.962 -8.829,-3.581 -10.802,-1.816 l -0.924,-1.199 c -0.96,-1.749 -1.205,-3.303 -0.726,-4.65 0.315,-1.132 1.146,-2.103 2.494,-2.909 -0.243,-2.894 1.8,-4.937 6.104,-6.136 2.179,-2.328 4.599,-3.298 7.266,-2.93 2.509,0.293 5.614,2.374 9.295,6.241"
         id="path1987" />
      <path
         inkscape:connector-curvature="0"
         style="fill:#84539c"
         d="m 409.594,81.016 c -1.688,-2.762 -3.972,-4.953 -6.837,-6.568 -6.92,-3.898 -15.634,-3.813 -26.108,0.253 l -4.282,1.597 c -1.628,0.589 -2.862,1.004 -3.687,1.246 -0.925,0.309 -1.988,0.596 -3.215,0.861 -0.961,0.221 -1.941,0.382 -2.91,0.454 -0.879,0.095 -1.762,0.101 -2.649,0.048 -0.887,-0.069 -1.749,-0.198 -2.599,-0.389 -0.82,-0.207 -1.691,-0.486 -2.609,-0.837 -0.813,-0.312 -1.735,-0.738 -2.771,-1.293 -0.943,-0.499 -1.951,-1.085 -3.054,-1.754 -1.165,-0.726 -2.317,-1.484 -3.441,-2.273 l -1.42,-0.966 c -0.689,-0.529 -1.109,-0.803 -1.247,-0.842 -0.167,-0.05 -0.346,-0.039 -0.552,0.032 -0.073,0.02 -0.209,0.266 -0.407,0.728 -0.187,0.4 -0.332,0.739 -0.435,1.028 -0.207,0.567 -0.486,1.422 -0.826,2.535 -0.324,1.143 -0.605,2.237 -0.828,3.284 -0.24,1.047 -0.479,2.35 -0.719,3.89 -0.215,1.467 -0.37,2.912 -0.481,4.374 -0.109,1.473 -0.154,3.018 -0.12,4.649 0.014,1.543 0.123,3.153 0.338,4.804 0.198,1.621 0.501,3.207 0.921,4.769 0.405,1.564 0.958,3.105 1.631,4.623 0.732,1.532 1.548,2.938 2.478,4.247 1.04,1.408 2.191,2.659 3.466,3.738 1.39,1.223 2.903,2.26 4.539,3.108 1.639,0.88 3.554,1.621 5.732,2.23 0.899,0.277 1.978,0.528 3.219,0.757 1.59,0.296 2.451,0.667 2.596,1.106 0.232,0.632 -0.338,1.399 -1.726,2.273 -1.864,1.187 -2.915,1.907 -3.124,2.173 -1.528,1.811 -0.406,3.079 3.334,3.777 3.891,0.717 8.893,0.428 14.989,-0.869 2.085,-0.45 4.549,-1.371 7.359,-2.779 0.093,-0.169 0.221,-0.296 0.412,-0.366 0.539,-0.272 1.061,-0.557 1.598,-0.857 12.125,-6.605 20.488,-16.361 25.102,-29.256 0.157,-0.413 0.297,-0.841 0.436,-1.284 0.067,-0.123 0.136,-0.232 0.205,-0.341 0.268,-1.318 0.362,-2.537 0.297,-3.657 -0.169,-2.926 -1.033,-5.677 -2.605,-8.253"
         id="path1989" />
      <path
         inkscape:connector-curvature="0"
         style="fill:none;stroke:#652182;stroke-width:2.39299989;stroke-linecap:round;stroke-linejoin:round;stroke-miterlimit:10"
         d="m 402.757,74.448 c -6.92,-3.898 -15.634,-3.813 -26.108,0.252 l -4.282,1.598 c -1.629,0.588 -2.862,1.004 -3.687,1.246 -0.925,0.309 -1.988,0.595 -3.215,0.861 -0.961,0.221 -1.941,0.382 -2.91,0.454 -0.879,0.095 -1.762,0.101 -2.649,0.048 -0.887,-0.069 -1.749,-0.198 -2.599,-0.389 -0.821,-0.207 -1.691,-0.486 -2.61,-0.837 -0.813,-0.313 -1.734,-0.738 -2.771,-1.293 -0.942,-0.5 -1.95,-1.085 -3.053,-1.754 -1.165,-0.727 -2.317,-1.484 -3.441,-2.273 l -1.42,-0.966 c -0.689,-0.53 -1.109,-0.803 -1.247,-0.842 -0.167,-0.05 -0.346,-0.04 -0.552,0.032 -0.073,0.02 -0.209,0.266 -0.407,0.728 -0.187,0.4 -0.332,0.739 -0.435,1.028 -0.207,0.566 -0.487,1.421 -0.826,2.535 -0.324,1.143 -0.605,2.237 -0.829,3.283 -0.239,1.048 -0.478,2.351 -0.718,3.891 -0.215,1.467 -0.37,2.912 -0.481,4.374 -0.109,1.473 -0.154,3.018 -0.12,4.649 0.014,1.543 0.123,3.153 0.338,4.804 0.198,1.621 0.501,3.207 0.92,4.769 0.406,1.564 0.959,3.104 1.632,4.623 0.732,1.532 1.548,2.938 2.478,4.247 1.04,1.408 2.191,2.659 3.466,3.738 1.39,1.223 2.902,2.259 4.539,3.108 1.639,0.879 3.554,1.621 5.731,2.23 0.9,0.277 1.979,0.528 3.22,0.756 1.59,0.297 2.451,0.667 2.596,1.107 0.232,0.632 -0.339,1.399 -1.726,2.273 -1.864,1.187 -2.915,1.907 -3.125,2.173 -1.527,1.811 -0.405,3.079 3.334,3.776 3.892,0.718 8.894,0.429 14.99,-0.868 2.085,-0.45 4.549,-1.371 7.359,-2.779 0.093,-0.169 0.221,-0.296 0.412,-0.366 0.539,-0.272 1.061,-0.557 1.598,-0.858 12.125,-6.604 20.488,-16.36 25.102,-29.255 0.157,-0.414 0.297,-0.841 0.436,-1.284 0.067,-0.123 0.136,-0.232 0.205,-0.341 0.268,-1.318 0.362,-2.538 0.297,-3.657 -0.169,-2.926 -1.033,-5.677 -2.605,-8.253 -1.688,-2.763 -3.972,-4.953 -6.837,-6.568 z"
         id="path1991" />
      <path
         inkscape:connector-curvature="0"
         style="fill:#fcdf00"
         d="m 399.012,93.313 c -1.748,0.595 -3.25,1.566 -4.506,2.897 -1.285,1.347 -1.813,2.577 -1.613,3.688 -1.066,-2.11 -2.61,-3.158 -4.645,-3.116 -1.857,0.003 -3.577,0.822 -5.162,2.426 -1.628,1.637 -2.479,3.484 -2.554,5.541 -0.059,2.356 0.989,4.421 3.174,6.196 -1.064,0.243 -2.142,1.039 -3.217,2.375 -1.133,1.397 -1.796,2.874 -1.991,4.428 -0.495,3.879 2.024,6.234 7.569,7.051 -0.001,-0.014 0.013,-0.03 0.028,-0.031 0.194,-0.011 0.432,-0.039 0.684,-0.1 0.251,-0.058 0.516,-0.12 0.767,-0.193 1.908,0.114 3.807,-0.462 5.712,-1.709 1.43,-0.937 2.762,-1.973 4.015,-3.109 1.676,-1.311 3.219,-2.853 4.615,-4.612 3.675,-4.586 5.457,-9.753 5.364,-15.499 -0.013,-1.004 -0.207,-1.771 -0.583,-2.303 -0.471,-1.935 -1.371,-3.23 -2.712,-3.888 -1.358,-0.698 -3.007,-0.709 -4.945,-0.042"
         id="path1993" />
      <path
         inkscape:connector-curvature="0"
         style="fill:#7f519b"
         d="m 444.171,79.09 c 1.356,-2.94 3.373,-5.379 6.032,-7.315 6.425,-4.672 15.088,-5.592 25.963,-2.764 l 4.438,1.092 c 1.686,0.396 2.959,0.667 3.807,0.814 0.955,0.197 2.043,0.36 3.293,0.483 0.98,0.107 1.971,0.155 2.943,0.113 0.883,-0.006 1.76,-0.102 2.637,-0.258 0.873,-0.169 1.714,-0.397 2.535,-0.685 0.793,-0.301 1.623,-0.679 2.496,-1.134 0.771,-0.404 1.64,-0.934 2.604,-1.603 0.877,-0.606 1.812,-1.304 2.828,-2.097 1.073,-0.855 2.132,-1.74 3.157,-2.654 l 1.297,-1.124 c 0.625,-0.605 1.012,-0.928 1.143,-0.979 0.16,-0.069 0.34,-0.08 0.553,-0.032 0.075,0.01 0.238,0.24 0.487,0.674 0.233,0.377 0.415,0.696 0.552,0.973 0.271,0.538 0.647,1.355 1.113,2.421 0.453,1.098 0.859,2.153 1.203,3.166 0.357,1.014 0.745,2.279 1.162,3.784 0.383,1.43 0.705,2.849 0.982,4.285 0.278,1.453 0.502,2.983 0.656,4.607 0.163,1.534 0.242,3.146 0.219,4.81 -0.011,1.632 -0.127,3.243 -0.363,4.845 -0.223,1.599 -0.594,3.194 -1.086,4.782 -0.553,1.604 -1.199,3.094 -1.971,4.502 -0.871,1.519 -1.869,2.894 -3.014,4.114 -1.238,1.374 -2.621,2.578 -4.148,3.611 -1.526,1.061 -3.344,2.02 -5.436,2.876 -0.861,0.38 -1.905,0.755 -3.111,1.124 -1.546,0.479 -2.357,0.944 -2.451,1.4 -0.154,0.653 0.5,1.35 1.979,2.057 1.988,0.963 3.115,1.556 3.354,1.798 1.728,1.624 0.76,3.011 -2.875,4.136 -3.783,1.163 -8.785,1.452 -14.99,0.868 -2.123,-0.205 -4.676,-0.838 -7.631,-1.909 -0.112,-0.159 -0.254,-0.271 -0.451,-0.319 -0.566,-0.207 -1.119,-0.429 -1.688,-0.666 -12.805,-5.16 -22.239,-13.886 -28.312,-26.161 -0.202,-0.392 -0.392,-0.802 -0.58,-1.224 -0.081,-0.116 -0.161,-0.216 -0.242,-0.315 -0.419,-1.28 -0.653,-2.479 -0.719,-3.599 -0.17,-2.926 0.369,-5.757 1.635,-8.497"
         id="path1995" />
      <path
         inkscape:connector-curvature="0"
         style="fill:none;stroke:#652182;stroke-width:2.39299989;stroke-linecap:round;stroke-linejoin:round;stroke-miterlimit:10"
         d="m 450.203,71.775 c 6.424,-4.672 15.087,-5.592 25.963,-2.764 l 4.436,1.092 c 1.687,0.396 2.961,0.667 3.809,0.814 0.956,0.197 2.043,0.36 3.293,0.483 0.98,0.107 1.971,0.155 2.943,0.113 0.884,-0.006 1.761,-0.102 2.637,-0.258 0.874,-0.169 1.714,-0.397 2.536,-0.685 0.792,-0.301 1.623,-0.679 2.495,-1.134 0.771,-0.404 1.639,-0.934 2.604,-1.603 0.878,-0.606 1.811,-1.304 2.829,-2.098 1.074,-0.855 2.131,-1.739 3.157,-2.653 l 1.298,-1.124 c 0.625,-0.605 1.01,-0.928 1.142,-0.979 0.16,-0.069 0.34,-0.08 0.553,-0.032 0.076,0.01 0.238,0.24 0.488,0.674 0.232,0.377 0.414,0.696 0.551,0.973 0.27,0.538 0.646,1.355 1.113,2.421 0.452,1.098 0.859,2.153 1.202,3.166 0.358,1.014 0.746,2.279 1.163,3.783 0.383,1.431 0.705,2.85 0.982,4.286 0.279,1.453 0.503,2.983 0.656,4.607 0.164,1.534 0.241,3.146 0.219,4.81 -0.01,1.632 -0.127,3.243 -0.363,4.845 -0.223,1.599 -0.594,3.194 -1.085,4.782 -0.554,1.604 -1.201,3.094 -1.972,4.502 -0.873,1.519 -1.871,2.894 -3.014,4.114 -1.238,1.374 -2.621,2.578 -4.148,3.611 -1.527,1.061 -3.344,2.02 -5.437,2.876 -0.86,0.379 -1.903,0.755 -3.11,1.124 -1.545,0.479 -2.356,0.944 -2.45,1.4 -0.156,0.653 0.497,1.35 1.978,2.057 1.988,0.963 3.116,1.556 3.354,1.798 1.726,1.624 0.759,3.011 -2.876,4.136 -3.783,1.163 -8.785,1.452 -14.989,0.868 -2.124,-0.205 -4.677,-0.838 -7.631,-1.909 -0.113,-0.159 -0.255,-0.271 -0.452,-0.319 -0.566,-0.207 -1.119,-0.429 -1.687,-0.666 -12.806,-5.16 -22.239,-13.886 -28.312,-26.161 -0.203,-0.392 -0.393,-0.802 -0.581,-1.224 -0.081,-0.116 -0.162,-0.216 -0.242,-0.315 -0.419,-1.28 -0.654,-2.479 -0.718,-3.599 -0.169,-2.927 0.37,-5.758 1.635,-8.497 1.356,-2.94 3.372,-5.379 6.031,-7.315 z"
         id="path1997" />
      <path
         inkscape:connector-curvature="0"
         style="fill:#fcdf00"
         d="m 456.102,90.082 c 1.805,0.39 3.408,1.181 4.811,2.358 1.431,1.188 2.099,2.35 2.027,3.478 0.815,-2.22 2.228,-3.44 4.253,-3.633 1.846,-0.212 3.649,0.403 5.408,1.813 1.808,1.439 2.866,3.176 3.179,5.209 0.33,2.333 -0.473,4.506 -2.438,6.523 1.086,0.117 2.247,0.784 3.471,1.985 1.286,1.259 2.117,2.65 2.488,4.17 0.938,3.795 -1.29,6.426 -6.704,7.879 -10e-4,-0.016 -0.017,-0.03 -0.032,-0.029 -0.193,0.011 -0.434,0.01 -0.689,-0.02 -0.256,-0.029 -0.528,-0.059 -0.785,-0.104 -1.885,0.334 -3.836,-0.017 -5.872,-1.038 -1.528,-0.765 -2.971,-1.64 -4.346,-2.623 -1.816,-1.11 -3.527,-2.462 -5.118,-4.049 -4.178,-4.131 -6.546,-9.056 -7.116,-14.776 -0.104,-0.997 10e-4,-1.783 0.312,-2.354 0.245,-1.977 0.989,-3.37 2.245,-4.176 1.267,-0.851 2.904,-1.051 4.906,-0.613"
         id="path1999" />
      <path
         inkscape:connector-curvature="0"
         style="fill:#c4084a"
         d="m 473.014,119.307 c -0.493,-1.246 -1.044,-2.486 -1.653,-3.71 -2.57,-5.062 -6.046,-9.475 -10.413,-13.237 -3.548,-3.075 -7.388,-5.488 -11.505,-7.271 -6.702,-2.953 -14.146,-4.214 -22.33,-3.801 -7.721,0.403 -14.548,2.266 -20.469,5.56 -4.223,2.342 -7.969,5.42 -11.267,9.25 -4.719,5.428 -7.828,11.494 -9.34,18.217 -0.612,2.627 -0.948,5.372 -1.021,8.239 l -0.055,3.178 -1.641,0.125 c -0.581,0.048 -1.16,0.127 -1.755,0.221 -5.452,0.781 -7.985,2.575 -7.596,5.383 -0.101,1.371 0.697,3.255 2.395,5.673 1.505,2.176 3.34,4.136 5.495,5.913 l 0.002,0.03 c 3.522,2.866 6.928,4.526 10.203,4.951 2.033,2.773 4.514,5.265 7.413,7.48 l 0.033,0.028 c 8.982,6.895 20.33,9.637 34.029,8.244 13.418,-1.361 23.895,-5.653 31.397,-12.903 2.384,-2.295 4.382,-4.778 6.011,-7.448 3.146,-0.798 6.294,-2.822 9.417,-6.058 l -0.002,-0.03 c 1.935,-2.014 3.547,-4.174 4.805,-6.509 1.392,-2.598 1.953,-4.562 1.695,-5.911 0.06,-2.835 -2.662,-4.323 -8.139,-4.471 -1.096,-0.042 -2.128,-0.011 -3.083,0.059 -0.359,-3.889 -1.236,-7.629 -2.626,-11.202 m -3.75,-2.66 c 2.033,4.061 3.343,8.331 3.919,12.805 l 0.029,-0.002 c 0.071,0.461 0.128,0.905 0.17,1.369 0.049,0.581 0.112,1.176 0.163,1.787 0.011,0.179 0.035,0.342 0.088,0.475 0.163,-0.011 0.326,-0.035 0.506,-0.059 0.073,-0.021 0.162,-0.025 0.241,0.016 0.282,-0.033 0.549,-0.078 0.8,-0.137 0.075,-0.004 0.165,-0.025 0.236,-0.044 l 0.002,0.03 c 0.996,-0.117 2.074,-0.165 3.229,-0.126 3.766,0.095 5.729,0.911 5.891,2.414 0.119,1.012 -0.361,2.522 -1.442,4.547 -1.149,2.15 -2.621,4.151 -4.415,6.009 -3.096,3.189 -6.163,5.075 -9.231,5.626 -1.59,2.834 -3.641,5.438 -6.139,7.815 -7.194,6.889 -17.202,10.988 -30.024,12.285 -13.03,1.338 -23.816,-1.27 -32.388,-7.801 -3.024,-2.296 -5.543,-4.921 -7.555,-7.86 -3.185,-0.174 -6.523,-1.689 -10,-4.543 -1.997,-1.637 -3.691,-3.456 -5.079,-5.457 -1.308,-1.886 -1.961,-3.333 -1.96,-4.351 -0.013,-1.512 1.845,-2.548 5.573,-3.08 0.401,-0.067 0.788,-0.104 1.191,-0.128 0.892,-0.127 1.786,-0.208 2.684,-0.215 0.701,-0.057 1.36,-0.064 1.976,-0.025 l -0.125,-1.13 c -0.087,-0.716 -0.157,-1.43 -0.244,-2.144 -0.101,-0.967 -0.098,-1.957 0.008,-2.967 0.502,-9.15 3.767,-17.204 9.775,-24.143 7.54,-8.689 17.577,-13.346 30.076,-13.994 12.56,-0.654 23.309,2.858 32.215,10.506 4.143,3.55 7.412,7.734 9.83,12.522"
         id="path2001" />
      <path
         inkscape:connector-curvature="0"
         style="fill:#e27c9f"
         d="m 473.183,129.452 c -0.576,-4.474 -1.886,-8.744 -3.919,-12.805 -2.42,-4.787 -5.687,-8.972 -9.831,-12.522 -8.906,-7.648 -19.655,-11.159 -32.215,-10.506 -12.499,0.648 -22.535,5.305 -30.076,13.994 -6.008,6.94 -9.272,14.993 -9.775,24.144 -0.106,1.009 -0.109,1.999 -0.008,2.966 0.087,0.714 0.157,1.429 0.244,2.144 l 0.125,1.13 c -0.616,-0.039 -1.275,-0.031 -1.976,0.025 -0.898,0.008 -1.793,0.089 -2.684,0.216 -0.403,0.024 -0.79,0.06 -1.191,0.128 -3.728,0.532 -5.586,1.567 -5.573,3.08 -10e-4,1.017 0.652,2.464 1.96,4.35 1.388,2.001 3.082,3.821 5.079,5.458 3.477,2.853 6.815,4.368 10,4.542 2.012,2.939 4.531,5.565 7.555,7.861 8.572,6.53 19.358,9.139 32.388,7.8 12.822,-1.297 22.83,-5.396 30.024,-12.284 2.498,-2.378 4.549,-4.982 6.139,-7.815 3.068,-0.552 6.136,-2.438 9.231,-5.627 1.795,-1.858 3.266,-3.859 4.415,-6.009 1.081,-2.024 1.562,-3.535 1.442,-4.546 -0.162,-1.503 -2.125,-2.32 -5.891,-2.415 -1.154,-0.039 -2.232,0.009 -3.229,0.126 l -0.002,-0.03 c -0.073,0.02 -0.161,0.04 -0.236,0.045 -0.251,0.059 -0.518,0.103 -0.8,0.136 -0.079,-0.041 -0.168,-0.036 -0.241,-0.016 -0.18,0.024 -0.343,0.048 -0.506,0.059 -0.053,-0.132 -0.077,-0.296 -0.088,-0.475 -0.051,-0.611 -0.114,-1.206 -0.163,-1.787 -0.042,-0.463 -0.099,-0.908 -0.17,-1.369 l -0.028,0.002 z"
         id="path2003" />
      <path
         inkscape:connector-curvature="0"
         style="fill:#a682b9"
         d="m 467.187,142.322 c 0.254,-0.015 0.473,-0.117 0.641,-0.307 0.185,-0.205 0.274,-0.451 0.26,-0.703 -0.015,-0.255 -0.133,-0.488 -0.34,-0.67 -0.188,-0.17 -0.416,-0.245 -0.67,-0.23 -0.285,0.016 -0.505,0.118 -0.673,0.308 -0.183,0.205 -0.272,0.451 -0.259,0.704 0.016,0.253 0.133,0.487 0.339,0.669 0.19,0.169 0.417,0.246 0.702,0.229"
         id="path2005" />
      <path
         inkscape:connector-curvature="0"
         style="fill:#a682b9"
         d="m 469.439,143.989 c -0.253,0.014 -0.487,0.118 -0.671,0.308 -0.167,0.204 -0.244,0.448 -0.229,0.702 0.017,0.283 0.119,0.503 0.309,0.671 0.204,0.17 0.447,0.245 0.703,0.23 0.283,-0.017 0.501,-0.12 0.671,-0.31 0.169,-0.188 0.245,-0.418 0.228,-0.702 -0.014,-0.252 -0.117,-0.487 -0.308,-0.67 -0.19,-0.17 -0.416,-0.245 -0.703,-0.229"
         id="path2007" />
      <path
         inkscape:connector-curvature="0"
         style="fill:#a682b9"
         d="m 465.368,144.554 c -0.191,-0.184 -0.42,-0.275 -0.674,-0.261 -0.104,0.007 -0.193,0.027 -0.295,0.077 -0.133,0.054 -0.262,0.135 -0.374,0.262 -0.169,0.19 -0.246,0.418 -0.229,0.702 0.01,0.165 0.063,0.311 0.146,0.442 0.05,0.071 0.098,0.143 0.161,0.199 0.205,0.183 0.451,0.274 0.703,0.26 0.254,-0.015 0.473,-0.132 0.641,-0.337 0.184,-0.191 0.275,-0.421 0.26,-0.675 -0.016,-0.252 -0.133,-0.485 -0.339,-0.669"
         id="path2009" />
      <path
         inkscape:connector-curvature="0"
         style="fill:#a682b9"
         d="m 395.224,144.844 c -0.189,-0.169 -0.418,-0.247 -0.672,-0.232 -0.283,0.018 -0.502,0.12 -0.671,0.309 -0.183,0.205 -0.274,0.45 -0.259,0.703 0.014,0.255 0.133,0.487 0.338,0.67 0.19,0.169 0.419,0.245 0.702,0.23 0.254,-0.015 0.473,-0.117 0.643,-0.307 0.182,-0.206 0.272,-0.451 0.257,-0.704 -0.014,-0.254 -0.132,-0.488 -0.338,-0.669"
         id="path2011" />
      <path
         inkscape:connector-curvature="0"
         style="fill:#a682b9"
         d="m 398.377,149.124 c -0.014,-0.254 -0.132,-0.486 -0.338,-0.67 -0.19,-0.184 -0.419,-0.275 -0.704,-0.258 -0.254,0.014 -0.472,0.132 -0.64,0.337 -0.183,0.205 -0.273,0.449 -0.258,0.704 0.014,0.253 0.132,0.471 0.336,0.639 0.191,0.183 0.42,0.276 0.675,0.261 0.253,-0.015 0.486,-0.133 0.669,-0.339 0.184,-0.191 0.276,-0.42 0.26,-0.674"
         id="path2013" />
      <path
         inkscape:connector-curvature="0"
         style="fill:#a682b9"
         d="m 392.586,148.442 c -0.253,0.014 -0.488,0.117 -0.67,0.307 -0.169,0.205 -0.245,0.448 -0.229,0.703 0.015,0.282 0.118,0.502 0.308,0.671 0.204,0.168 0.448,0.244 0.702,0.229 0.284,-0.016 0.502,-0.119 0.671,-0.309 0.169,-0.189 0.246,-0.417 0.229,-0.702 -0.014,-0.253 -0.118,-0.487 -0.309,-0.671 -0.189,-0.168 -0.418,-0.246 -0.702,-0.228"
         id="path2015" />
      <path
         inkscape:connector-curvature="0"
         style="fill:#da4d5d"
         d="m 435.733,143.905 c -1.299,-0.958 -2.821,-1.394 -4.569,-1.293 -1.732,0.099 -3.18,0.709 -4.359,1.81 -1.179,1.087 -1.72,2.362 -1.636,3.81 0.083,1.447 0.767,2.65 2.066,3.594 1.298,0.958 2.806,1.395 4.538,1.295 1.747,-0.101 3.21,-0.71 4.389,-1.812 1.181,-1.087 1.72,-2.361 1.637,-3.809 -0.084,-1.449 -0.769,-2.652 -2.066,-3.595 l 0,0 z"
         id="path2017" />
      <path
         inkscape:connector-curvature="0"
         style="fill:#5d1e80"
         d="m 446.668,93.628 c -5.19,-1.691 -10.394,-2.572 -15.595,-2.616 -5.23,-0.057 -10.27,0.595 -15.134,1.954 -5.382,1.496 -10.242,3.964 -14.611,7.409 -4.455,3.508 -8.034,7.655 -10.754,12.426 -2.733,4.786 -4.424,8.705 -5.041,11.767 -0.63,3.076 -0.909,6.012 -0.821,8.824 0.079,2.646 0.963,4.993 2.683,7.02 l 0.397,-3.244 c 0.375,-2.043 0.947,-4.054 1.687,-6.045 3.85,-10.333 10.157,-16.78 18.95,-19.357 2.673,3.47 5.911,6.099 9.699,7.871 l 1.342,0.671 0.332,-1.486 c 0.177,-0.834 0.416,-1.611 0.704,-2.333 2.772,4.409 6.342,7.347 10.697,8.816 l 0.506,0.197 0.463,-0.282 c 5.703,-3.161 9.222,-7.844 10.523,-14.076 0.307,0.895 0.585,1.825 0.835,2.783 l 0.669,2.492 1.466,-2.107 c 0.802,-1.139 1.633,-2.58 2.475,-4.336 9.769,2.879 17.615,9.315 23.541,19.291 0.398,0.681 0.799,1.377 1.185,2.088 l 1.921,4.188 c 0.478,-1.301 0.785,-2.741 0.888,-4.35 0.101,-3.166 -0.3,-6.199 -1.188,-9.129 -0.685,-2.251 -1.842,-4.88 -3.471,-7.887 -2.53,-4.661 -5.918,-8.809 -10.143,-12.474 -4.26,-3.692 -8.998,-6.385 -14.205,-8.075 m -5.076,9.341 -0.533,0.106 -0.206,3.413 c -0.289,7.432 -3.417,12.901 -9.373,16.376 -4.181,-1.601 -7.51,-4.763 -10.016,-9.486 l -1.036,-1.873 -1.048,1.829 c -0.628,1.055 -1.13,2.222 -1.52,3.489 -3.11,-1.707 -5.78,-4.084 -8.008,-7.131 l -0.503,-0.676 -0.751,0.224 c -9.833,2.473 -16.87,9.516 -21.125,21.131 l -0.796,3.072 c 0.233,-3.474 0.582,-6.25 1.076,-8.331 0.683,-2.931 2.325,-6.65 4.897,-11.129 2.57,-4.506 5.968,-8.419 10.165,-11.732 4.11,-3.249 8.711,-5.568 13.766,-6.984 4.644,-1.288 9.476,-1.913 14.467,-1.857 4.975,0.042 9.937,0.877 14.884,2.494 4.901,1.603 9.362,4.144 13.368,7.613 3.989,3.468 7.198,7.402 9.61,11.8 1.527,2.834 2.63,5.316 3.277,7.45 h 0.015 c 0.409,1.369 0.7,2.776 0.89,4.218 -6.394,-10.28 -14.831,-16.818 -25.312,-19.596 l -0.959,-0.273 -0.441,0.939 c -0.436,0.969 -0.88,1.863 -1.312,2.653 -0.563,-1.692 -1.224,-3.256 -1.967,-4.71 l -1.509,-3.029 z"
         id="path2019" />
      <path
         inkscape:connector-curvature="0"
         style="fill:#7f519b"
         d="m 441.059,103.075 0.533,-0.106 1.509,3.029 c 0.744,1.453 1.403,3.018 1.966,4.709 0.434,-0.789 0.877,-1.683 1.313,-2.652 l 0.441,-0.939 0.959,0.272 c 10.481,2.779 18.919,9.316 25.312,19.596 -0.19,-1.442 -0.48,-2.849 -0.89,-4.218 h -0.016 c -0.646,-2.133 -1.75,-4.616 -3.275,-7.45 -2.413,-4.398 -5.622,-8.332 -9.611,-11.8 -4.006,-3.467 -8.467,-6.01 -13.368,-7.613 -4.947,-1.616 -9.909,-2.452 -14.884,-2.494 -4.99,-0.056 -9.823,0.569 -14.467,1.858 -5.055,1.416 -9.655,3.734 -13.766,6.983 -4.196,3.313 -7.595,7.226 -10.165,11.733 -2.572,4.479 -4.214,8.198 -4.897,11.128 -0.494,2.081 -0.842,4.858 -1.075,8.332 l 0.796,-3.073 c 4.254,-11.614 11.291,-18.658 21.124,-21.13 l 0.752,-0.224 0.502,0.675 c 2.228,3.047 4.898,5.425 8.008,7.132 0.39,-1.267 0.892,-2.434 1.52,-3.49 l 1.048,-1.828 1.036,1.872 c 2.507,4.724 5.835,7.886 10.016,9.487 5.956,-3.476 9.084,-8.945 9.373,-16.376 l 0.206,-3.413 z"
         id="path2021" />
      <path
         inkscape:connector-curvature="0"
         style="fill:#d8272a"
         d="m 437.637,159.719 c -0.314,-0.4 -0.892,-0.611 -1.75,-0.63 -0.828,-0.007 -1.689,0.178 -2.582,0.554 -0.893,0.388 -1.519,0.858 -1.893,1.401 -0.39,0.553 -0.42,1.044 -0.09,1.456 0.313,0.402 0.892,0.612 1.749,0.631 0.828,0.008 1.689,-0.188 2.582,-0.577 0.863,-0.375 1.503,-0.846 1.892,-1.401 0.39,-0.555 0.42,-1.032 0.092,-1.434"
         id="path2023" />
      <path
         inkscape:connector-curvature="0"
         style="fill:#d8272a"
         d="m 439.347,157.136 c 0.542,0.344 0.988,0.775 1.352,1.293 0.78,1.189 0.794,2.438 0.014,3.762 -0.779,1.336 -2.099,2.352 -3.976,3.049 -1.875,0.71 -3.751,0.909 -5.63,0.583 -1.877,-0.339 -3.214,-1.097 -3.994,-2.286 l -0.224,-0.346 c -0.109,0.862 0.097,1.674 0.606,2.424 0.875,1.327 2.405,2.158 4.59,2.518 2.184,0.359 4.39,0.109 6.607,-0.723 2.218,-0.835 3.789,-2.028 4.731,-3.563 0.944,-1.522 0.978,-2.941 0.103,-4.268 -0.812,-1.211 -2.196,-2.026 -4.179,-2.443"
         id="path2025" />
      <path
         inkscape:connector-curvature="0"
         style="fill:#ffffff"
         d="m 444.382,121.52 c -4.015,2.074 -6.757,5.14 -8.246,9.195 -1.473,4.055 -1.264,7.923 0.641,11.586 1.888,3.636 4.917,6.007 9.1,7.114 4.184,1.105 8.275,0.613 12.272,-1.492 4.014,-2.073 6.772,-5.139 8.258,-9.196 1.459,-4.053 1.25,-7.906 -0.639,-11.556 -1.904,-3.65 -4.932,-6.036 -9.116,-7.142 -4.168,-1.105 -8.258,-0.613 -12.27,1.491"
         id="path2027" />
      <path
         inkscape:connector-curvature="0"
         style="fill:#ffffff"
         d="m 402.908,123.144 c -4.028,1.581 -6.76,4.303 -8.231,8.146 -1.455,3.843 -1.216,7.695 0.7,11.553 1.946,3.857 5.039,6.584 9.266,8.181 4.214,1.629 8.335,1.643 12.362,0.063 4.027,-1.582 6.761,-4.286 8.217,-8.115 1.47,-3.86 1.231,-7.726 -0.701,-11.583 -1.946,-3.857 -5.025,-6.584 -9.251,-8.182 -4.229,-1.627 -8.349,-1.645 -12.362,-0.063"
         id="path2029" />
      <path
         inkscape:connector-curvature="0"
         style="fill:#ffffff"
         d="m 465.862,127.147 c -1.906,-3.679 -4.965,-6.079 -9.165,-7.198 -4.198,-1.12 -8.318,-0.613 -12.347,1.494 -4.028,2.091 -6.801,5.171 -8.301,9.259 -1.485,4.086 -1.261,7.967 0.645,11.646 1.905,3.664 4.963,6.048 9.165,7.168 4.197,1.119 8.317,0.611 12.345,-1.495 4.028,-2.091 6.801,-5.171 8.301,-9.258 1.485,-4.085 1.262,-7.951 -0.643,-11.616"
         id="path2031" />
      <path
         inkscape:connector-curvature="0"
         style="fill:#0e5cab"
         d="m 452.595,131.195 c -1.653,-1.896 -3.723,-2.945 -6.232,-3.114 -2.481,-0.169 -4.671,0.556 -6.553,2.207 -1.881,1.652 -2.916,3.72 -3.086,6.201 -0.171,2.481 0.556,4.686 2.179,6.584 1.651,1.881 3.719,2.916 6.2,3.086 2.512,0.168 4.701,-0.557 6.584,-2.179 1.882,-1.652 2.916,-3.719 3.085,-6.23 0.17,-2.482 -0.555,-4.671 -2.177,-6.555 m -4.439,0.467 c 1.521,0.646 2.573,1.754 3.159,3.292 0.612,1.538 0.58,3.067 -0.095,4.589 -0.646,1.521 -1.754,2.573 -3.293,3.158 -1.537,0.611 -3.066,0.581 -4.588,-0.095 -1.492,-0.648 -2.544,-1.756 -3.158,-3.292 -0.584,-1.539 -0.552,-3.069 0.094,-4.589 0.648,-1.49 1.754,-2.542 3.293,-3.157 1.54,-0.584 3.07,-0.552 4.588,0.094"
         id="path2033" />
      <path
         inkscape:connector-curvature="0"
         style="fill:#080101"
         d="m 451.315,134.954 c -0.585,-1.538 -1.639,-2.646 -3.159,-3.292 -1.518,-0.646 -3.048,-0.677 -4.587,-0.094 -1.54,0.615 -2.646,1.667 -3.293,3.157 -0.646,1.521 -0.678,3.05 -0.093,4.589 0.612,1.536 1.665,2.644 3.156,3.292 1.522,0.676 3.053,0.706 4.59,0.095 1.537,-0.585 2.646,-1.637 3.292,-3.158 0.675,-1.522 0.706,-3.051 0.094,-4.589"
         id="path2035" />
      <path
         inkscape:connector-curvature="0"
         style="fill:#ffffff"
         d="m 449.792,134.533 c -0.192,-0.483 -0.528,-0.854 -1.021,-1.079 -0.492,-0.213 -0.987,-0.228 -1.5,-0.034 -0.514,0.196 -0.882,0.547 -1.108,1.054 -0.211,0.492 -0.212,0.985 -0.003,1.497 0.195,0.513 0.529,0.87 1.021,1.079 0.507,0.211 1.017,0.227 1.5,0.033 0.513,-0.194 0.882,-0.545 1.107,-1.053 0.212,-0.492 0.213,-0.985 0.004,-1.497"
         id="path2037" />
      <path
         inkscape:connector-curvature="0"
         style="fill:#ffffff"
         d="m 425.319,143.007 c 1.468,-3.874 1.244,-7.756 -0.704,-11.642 -1.964,-3.886 -5.072,-6.627 -9.316,-8.239 -4.242,-1.626 -8.394,-1.655 -12.435,-0.058 -4.043,1.598 -6.804,4.334 -8.273,8.208 -1.469,3.86 -1.244,7.727 0.703,11.614 1.962,3.886 5.072,6.626 9.315,8.238 4.244,1.626 8.395,1.654 12.437,0.057 4.041,-1.596 6.804,-4.317 8.273,-8.178"
         id="path2039" />
      <path
         inkscape:connector-curvature="0"
         style="fill:#0e5cab"
         d="m 422.686,132.918 c -1.653,-1.897 -3.721,-2.945 -6.232,-3.115 -2.481,-0.17 -4.671,0.555 -6.553,2.207 -1.882,1.653 -2.915,3.719 -3.086,6.201 -0.171,2.482 0.556,4.685 2.179,6.585 1.651,1.881 3.719,2.914 6.2,3.086 2.513,0.168 4.702,-0.559 6.584,-2.179 1.882,-1.652 2.916,-3.719 3.085,-6.231 0.171,-2.481 -0.556,-4.671 -2.177,-6.554 m -4.437,0.466 c 1.521,0.646 2.574,1.753 3.157,3.293 0.614,1.536 0.581,3.066 -0.094,4.589 -0.646,1.52 -1.753,2.573 -3.292,3.156 -1.538,0.614 -3.067,0.582 -4.588,-0.094 -1.491,-0.647 -2.545,-1.754 -3.158,-3.292 -0.584,-1.539 -0.552,-3.068 0.094,-4.589 0.647,-1.491 1.755,-2.543 3.293,-3.155 1.539,-0.584 3.068,-0.554 4.588,0.092"
         id="path2041" />
      <path
         inkscape:connector-curvature="0"
         style="fill:#080101"
         d="m 421.406,136.677 c -0.583,-1.54 -1.637,-2.647 -3.157,-3.293 -1.52,-0.646 -3.05,-0.677 -4.589,-0.093 -1.537,0.612 -2.645,1.665 -3.292,3.156 -0.646,1.521 -0.678,3.049 -0.094,4.589 0.613,1.538 1.667,2.645 3.157,3.291 1.522,0.677 3.051,0.708 4.589,0.095 1.539,-0.584 2.646,-1.636 3.292,-3.156 0.675,-1.523 0.707,-3.053 0.094,-4.589"
         id="path2043" />
      <path
         inkscape:connector-curvature="0"
         style="fill:#ffffff"
         d="m 419.884,136.255 c -0.193,-0.483 -0.529,-0.853 -1.021,-1.079 -0.492,-0.211 -0.987,-0.228 -1.5,-0.033 -0.513,0.194 -0.883,0.545 -1.108,1.053 -0.21,0.491 -0.212,0.986 -0.003,1.498 0.194,0.513 0.53,0.868 1.022,1.08 0.506,0.21 1.016,0.225 1.5,0.032 0.512,-0.194 0.881,-0.546 1.107,-1.051 0.211,-0.493 0.212,-0.988 0.003,-1.5"
         id="path2045" />
      <path
         inkscape:connector-curvature="0"
         style="fill:#3793d1"
         d="m 444.344,121.401 c -0.274,0.151 -0.538,0.286 -0.799,0.437 8.821,-0.302 15.005,1.722 18.551,6.07 1.882,3.769 2.639,8.565 2.272,14.382 l 1.189,-1.162 c 0.408,-0.727 0.754,-1.496 1.05,-2.308 1.485,-4.1 1.276,-7.998 -0.646,-11.676 -1.923,-3.708 -4.997,-6.121 -9.211,-7.24 -4.214,-1.12 -8.348,-0.61 -12.406,1.497"
         id="path2047" />
      <path
         inkscape:connector-curvature="0"
         style="fill:#3793d1"
         d="m 393.557,136.762 c 0.009,0.149 0.017,0.299 0.026,0.448 0.125,1.909 0.67,3.826 1.636,5.747 0.39,0.785 0.837,1.524 1.342,2.229 -0.938,-3.017 -0.944,-5.968 -0.046,-8.82 0.011,-0.061 0.038,-0.122 0.049,-0.168 0.687,-2.122 1.871,-4.183 3.55,-6.212 0.182,-0.221 0.364,-0.441 0.563,-0.647 0.097,-0.111 0.197,-0.206 0.296,-0.318 3.923,-4.135 9.446,-5.773 16.581,-4.929 -0.712,-0.377 -1.451,-0.709 -2.232,-1.009 -4.272,-1.625 -8.438,-1.654 -12.495,-0.054 -0.132,0.051 -0.249,0.104 -0.366,0.155 -0.175,0.069 -0.336,0.14 -0.496,0.224 -3.591,1.63 -6.074,4.261 -7.452,7.876 -0.689,1.822 -1.017,3.653 -0.956,5.478"
         id="path2049" />
      <path
         inkscape:connector-curvature="0"
         style="fill:#070101"
         d="m 440.366,124.104 c 3.983,-1.834 8.12,-2.058 12.38,-0.658 4.274,1.386 7.439,4.048 9.494,7.958 1.062,2.066 1.654,4.279 1.775,6.623 0.115,2.24 -0.253,4.434 -1.102,6.565 0.837,-0.798 1.673,-1.864 2.509,-3.216 0.643,-1.835 0.99,-3.593 1.029,-5.258 0.029,-1.049 -0.076,-2.077 -0.314,-3.096 2.236,-2.228 3.251,-4.129 3.04,-5.689 -0.034,-0.329 -0.599,-0.279 -1.698,0.158 -1.424,0.516 -2.291,0.792 -2.574,0.809 1.06,-2.385 1.256,-4.177 0.571,-5.381 -0.2,-0.378 -0.844,-0.086 -1.927,0.875 -0.556,0.467 -1.154,0.996 -1.796,1.557 0.119,-1.324 0.117,-2.388 0.01,-3.191 -0.042,-0.462 -0.186,-0.889 -0.418,-1.279 -0.271,-0.539 -0.575,-0.61 -0.897,-0.233 -0.978,1.241 -1.867,1.921 -2.666,2.071 -0.133,0.024 -0.312,0.034 -0.509,0.016 -0.646,-0.308 -1.321,-0.569 -2.038,-0.812 -4.169,-1.375 -8.055,-1.45 -11.622,-0.223 -1.352,0.722 -2.444,1.519 -3.247,2.404"
         id="path2051" />
      <path
         inkscape:connector-curvature="0"
         style="fill:#070101"
         d="m 404.535,124.861 c -0.612,0.291 -1.193,0.593 -1.742,0.94 l -0.143,0.129 -0.046,0.512 -0.403,0.532 -0.318,0.198 c -0.27,0.765 -0.69,1.538 -1.243,2.334 -0.234,0.359 -0.496,0.732 -0.772,1.154 -0.192,0.296 -0.461,0.565 -0.791,0.824 -0.22,0.598 -0.439,1.209 -0.628,1.834 -0.553,1.815 -1.575,3.058 -3.063,3.728 -0.132,0.067 -0.263,0.12 -0.396,0.158 -0.122,1.009 -0.108,2.027 0.041,3.053 0.232,1.649 0.779,3.355 1.629,5.103 0.987,1.247 1.925,2.194 2.833,2.861 -1.06,-1.99 -1.677,-4.111 -1.821,-6.351 -0.151,-2.341 0.182,-4.608 1,-6.782 1.588,-4.122 4.425,-7.132 8.51,-9.001 4.071,-1.885 8.143,-2.18 12.217,-0.903 -0.805,-0.702 -1.873,-1.3 -3.206,-1.791 -3.779,-0.876 -7.676,-0.379 -11.658,1.468"
         id="path2053" />
      <path
         inkscape:connector-curvature="0"
         style="fill:#070101"
         d="m 393.015,131.805 c -1.141,-0.309 -1.709,-0.29 -1.706,0.039 -0.014,1.573 1.182,3.317 3.6,5.244 0.03,0.013 0.062,0.041 0.078,0.056 10e-4,0.014 0.002,0.044 0.004,0.059 0.132,-0.038 0.264,-0.09 0.395,-0.158 1.488,-0.67 2.51,-1.912 3.064,-3.728 0.189,-0.624 0.408,-1.236 0.628,-1.833 0.33,-0.259 0.598,-0.529 0.791,-0.824 0.275,-0.422 0.538,-0.795 0.771,-1.154 0.554,-0.796 0.974,-1.569 1.244,-2.334 l 0.318,-0.198 0.402,-0.532 0.046,-0.512 0.143,-0.129 c -0.073,0.035 -0.132,0.067 -0.189,0.101 -0.045,0.017 -0.104,0.022 -0.148,0.038 -0.132,0.024 -0.253,0.015 -0.359,0.006 -0.812,-0.057 -1.774,-0.63 -2.887,-1.75 -0.112,-0.114 -0.221,-0.183 -0.326,-0.189 -0.105,-0.011 -0.208,0.026 -0.294,0.105 -0.099,0.081 -0.181,0.22 -0.245,0.419 -0.185,0.416 -0.28,0.856 -0.268,1.319 -0.013,0.809 0.108,1.866 0.379,3.168 -0.702,-0.483 -1.358,-0.94 -1.965,-1.338 -1.186,-0.831 -1.859,-1.046 -2.015,-0.649 -0.541,1.275 -0.139,3.035 1.189,5.279 -0.283,0.016 -1.177,-0.156 -2.65,-0.505"
         id="path2055" />
      <path
         inkscape:connector-curvature="0"
         style="fill:#e27c9f"
         d="m 451.45,171.472 7.221,0.652 c 2.867,0.533 5.053,1.642 6.579,3.313 1.476,1.613 2.205,3.603 2.196,6.001 -0.025,2.18 -0.807,3.864 -2.35,5.019 -1.418,1.058 -3.393,1.402 -5.897,1.037 -2.504,-0.365 -5.672,-2.14 -9.495,-5.355 -3.847,-4.153 -3.27,-7.714 1.746,-10.667"
         id="path2057" />
      <path
         inkscape:connector-curvature="0"
         style="fill:none;stroke:#c4084a;stroke-width:2.37899995;stroke-linecap:round;stroke-miterlimit:10"
         d="m 449.704,182.139 c 3.823,3.215 6.99,4.989 9.495,5.355 2.506,0.365 4.479,0.021 5.897,-1.037 1.544,-1.155 2.324,-2.839 2.35,-5.019 0.008,-2.398 -0.721,-4.388 -2.197,-6.001 -1.524,-1.671 -3.71,-2.78 -6.579,-3.313 l -7.22,-0.652"
         id="path2059" />
      <path
         inkscape:connector-curvature="0"
         style="fill:#c4084a"
         d="m 444.432,163.434 c 0.396,0.833 0.894,1.552 1.48,2.12 3.663,1.285 6.353,3.081 8.094,5.423 l -1.882,1.464 c -1.559,-2.028 -3.963,-3.58 -7.204,-4.683 l -0.258,-0.085 -0.18,-0.16 c -0.889,-0.817 -1.628,-1.846 -2.204,-3.085 -0.437,-0.934 -0.879,-2.221 -1.311,-3.872 -0.272,-1.006 -0.783,-1.726 -1.535,-2.161 -0.689,-0.361 -1.412,-0.408 -2.184,-0.129 -1.397,0.498 -2.097,1.403 -2.105,2.732 0.083,1.484 0.83,3.387 2.269,5.71 -0.002,0.017 -0.002,0.017 -0.005,0.031 1.054,-0.616 2.297,-0.581 3.716,0.104 0.652,0.398 0.295,0.659 -1.09,0.792 -1.097,0.071 -1.899,0.65 -2.437,1.727 0.756,-0.19 1.617,-0.297 2.588,-0.35 0.693,0.27 0.057,1.005 -1.879,2.214 -0.659,0.395 -1.256,0.787 -1.812,1.205 l -0.018,0.01 c -0.106,0.07 -0.214,0.154 -0.34,0.249 -0.017,0.012 -0.049,0.02 -0.07,0.046 -1.043,0.864 -1.694,2.132 -1.95,3.789 -0.323,2.744 0.818,4.731 3.392,5.967 1.214,0.258 2.445,-0.092 3.707,-1.061 -0.326,-0.359 -0.632,-0.731 -0.91,-1.095 l 0.015,0.002 c -0.152,-0.23 -0.318,-0.465 -0.499,-0.701 -0.582,0.242 -1.143,0.672 -1.681,1.307 -0.071,-0.03 -0.135,-0.09 -0.199,-0.149 -0.246,-0.22 -0.389,-0.495 -0.415,-0.822 -0.125,-1.204 0.46,-2.288 1.765,-3.247 l 1.06,-0.799 0.693,1.188 c 0.391,0.709 0.853,1.373 1.35,2.014 l 0.245,0.298 c 0.344,0.41 0.708,0.807 1.086,1.194 l 0.026,0.021 c 1.479,1.37 3.623,1.705 6.405,0.997 l 0.521,2.342 c -3.231,0.826 -5.812,0.536 -7.728,-0.865 -2.044,1.75 -4.09,2.293 -6.144,1.656 l -0.102,-0.021 -0.067,-0.045 c -3.755,-1.732 -5.382,-4.57 -4.892,-8.533 l -0.008,-0.033 0.017,-0.01 c 0.345,-2.174 1.188,-3.861 2.54,-5.055 0.403,-1.092 0.858,-1.989 1.365,-2.69 -1.902,-2.99 -2.861,-5.426 -2.876,-7.326 -0.102,-2.452 1.123,-4.148 3.655,-5.061 1.461,-0.513 2.83,-0.421 4.104,0.294 l 0.016,0.003 c 1.336,0.713 2.235,1.929 2.697,3.662 0.404,1.478 0.799,2.632 1.181,3.463 l -0.002,0.014 z"
         id="path2061" />
      <path
         inkscape:connector-curvature="0"
         style="fill:#e27c9f"
         d="m 452.124,172.441 c 1.436,2.049 1.978,3.907 1.624,5.59 -0.338,1.686 -1.54,2.883 -3.592,3.607 -2.782,0.708 -4.926,0.374 -6.405,-0.996 l -0.025,-0.021 c -0.38,-0.388 -0.744,-0.785 -1.087,-1.195 l -0.245,-0.297 c -0.497,-0.641 -0.959,-1.305 -1.35,-2.015 l -0.692,-1.187 -1.061,0.799 c -1.305,0.959 -1.89,2.043 -1.765,3.247 0.026,0.326 0.169,0.601 0.415,0.822 0.064,0.059 0.128,0.119 0.199,0.149 0.538,-0.635 1.099,-1.065 1.681,-1.308 0.181,0.237 0.347,0.472 0.499,0.702 l -0.015,-0.002 c 0.278,0.364 0.584,0.735 0.91,1.095 -1.262,0.969 -2.493,1.319 -3.707,1.061 -2.574,-1.236 -3.715,-3.223 -3.392,-5.967 0.256,-1.658 0.907,-2.925 1.95,-3.789 0.021,-0.026 0.053,-0.035 0.07,-0.046 0.126,-0.095 0.234,-0.18 0.34,-0.249 l 0.018,-0.011 c 0.556,-0.417 1.153,-0.809 1.812,-1.204 1.936,-1.209 2.572,-1.944 1.879,-2.215 -0.971,0.054 -1.832,0.16 -2.588,0.351 0.538,-1.078 1.34,-1.656 2.437,-1.728 1.385,-0.132 1.742,-0.393 1.09,-0.791 -1.418,-0.685 -2.662,-0.72 -3.716,-0.105 0.003,-0.014 0.003,-0.014 0.006,-0.03 -1.44,-2.324 -2.187,-4.226 -2.27,-5.71 0.008,-1.329 0.709,-2.235 2.105,-2.732 0.772,-0.279 1.496,-0.232 2.185,0.129 0.752,0.434 1.262,1.155 1.534,2.16 0.432,1.652 0.874,2.939 1.311,3.873 0.576,1.239 1.315,2.268 2.205,3.084 l 0.181,0.161 0.256,0.085 c 3.24,1.102 5.644,2.655 7.203,4.683"
         id="path2063" />
    </g>
  </g>
</svg>
