<?xml version="1.0" encoding="UTF-8" standalone="no"?>
<!-- Created with Inkscape (http://www.inkscape.org/) -->

<svg
   xmlns:dc="http://purl.org/dc/elements/1.1/"
   xmlns:cc="http://creativecommons.org/ns#"
   xmlns:rdf="http://www.w3.org/1999/02/22-rdf-syntax-ns#"
   xmlns:svg="http://www.w3.org/2000/svg"
   xmlns="http://www.w3.org/2000/svg"
   xmlns:sodipodi="http://sodipodi.sourceforge.net/DTD/sodipodi-0.dtd"
   xmlns:inkscape="http://www.inkscape.org/namespaces/inkscape"
   width="213.37209"
   height="168.77571"
   id="svg5696"
   version="1.1"
   inkscape:version="0.48.4 r9939"
   sodipodi:docname="abby10.svg">
  <defs
     id="defs5698" />
  <sodipodi:namedview
     id="base"
     pagecolor="#ffffff"
     bordercolor="#666666"
     borderopacity="1.0"
     inkscape:pageopacity="0.0"
     inkscape:pageshadow="2"
     inkscape:zoom="0.77472527"
     inkscape:cx="-6.0638999"
     inkscape:cy="76.049291"
     inkscape:current-layer="layer1"
     inkscape:document-units="px"
     showgrid="false"
     inkscape:window-width="942"
     inkscape:window-height="591"
     inkscape:window-x="414"
     inkscape:window-y="49"
     inkscape:window-maximized="0"
     fit-margin-top="0"
     fit-margin-left="0"
     fit-margin-right="0"
     fit-margin-bottom="0" />
  <metadata
     id="metadata5701">
    <rdf:RDF>
      <cc:Work
         rdf:about="">
        <dc:format>image/svg+xml</dc:format>
        <dc:type
           rdf:resource="http://purl.org/dc/dcmitype/StillImage" />
        <dc:title></dc:title>
      </cc:Work>
    </rdf:RDF>
  </metadata>
  <g
     id="layer1"
     inkscape:label="Layer 1"
     inkscape:groupmode="layer"
     transform="translate(-116.16535,-147.27358)">
    <g
       transform="translate(-437.23781,-387.25767)"
       id="g421">
      <path
         inkscape:connector-curvature="0"
         style="fill:#e27c9f"
         d="m 688.223,651.281 0.025,0.014 0.024,0.016 c 7.688,3.701 11.512,8.455 11.468,14.271 l 10e-4,0.018 0.003,0.02 c -0.227,6.42 -4.36,10.361 -12.411,11.838 l -0.052,0.018 -0.077,0.006 c -6.917,0.625 -12.529,-0.395 -16.851,-3.082 0.729,4.371 -0.329,7.912 -3.159,10.613 -2.681,2.621 -5.128,3.93 -7.354,3.92 -2.275,0.129 -4.268,-1.09 -5.95,-3.656 l 0.013,0.004 c -3.979,-6.021 -5.236,-12.301 -3.784,-18.859 l -0.004,-0.018 0.008,-0.031 c 1.85,-6.797 6.585,-12.053 14.232,-15.752 l 0.085,-0.035 c 7.387,-3.01 15.306,-2.781 23.783,0.695 m -1.379,1.869 0.071,0.023 c -7.693,-3.146 -14.876,-3.402 -21.576,-0.75 -6.841,3.314 -11.099,8.023 -12.771,14.119 -1.332,6.105 -0.169,11.961 3.54,17.555 1.182,1.789 2.512,2.703 3.98,2.74 1.551,-0.117 3.317,-1.137 5.303,-3.068 3.388,-2.916 3.648,-8.102 0.807,-15.58 6.057,6.029 13.063,8.438 20.999,7.217 6.471,-1.207 9.827,-4.391 10.057,-9.562 -0.048,-5.149 -3.524,-9.377 -10.41,-12.694"
         id="path423" />
      <path
         inkscape:connector-curvature="0"
         style="fill:#f8e6f0"
         d="m 686.915,653.174 -0.071,-0.023 c 6.887,3.316 10.362,7.545 10.41,12.693 -0.229,5.172 -3.586,8.355 -10.058,9.562 -7.935,1.221 -14.941,-1.188 -20.999,-7.217 2.843,7.479 2.582,12.664 -0.806,15.58 -1.986,1.932 -3.752,2.951 -5.303,3.068 -1.469,-0.037 -2.799,-0.951 -3.98,-2.74 -3.709,-5.594 -4.872,-11.449 -3.54,-17.555 1.671,-6.096 5.93,-10.805 12.771,-14.119 6.7,-2.652 13.883,-2.396 21.576,0.751"
         id="path425" />
      <path
         inkscape:connector-curvature="0"
         style="fill:#e27c9f"
         d="m 647.838,620.719 -0.021,-0.018 -0.022,-0.021 c -6.196,-6.307 -12.594,-8.924 -19.201,-7.838 l -0.021,0.002 -0.021,0.002 c -7.247,1.355 -10.669,5.812 -10.268,13.379 l -0.011,0.053 0.015,0.072 c 1.074,6.387 3.683,11.295 7.856,14.732 -5.162,0.121 -8.916,1.719 -11.26,4.77 -2.29,2.902 -3.15,5.357 -2.566,7.375 0.44,2.088 2.341,3.676 5.699,4.74 l -0.011,-0.01 c 7.882,2.527 15.351,2.541 22.439,0.047 l 0.021,-0.002 0.032,-0.012 c 7.258,-2.898 12.017,-8.137 14.254,-15.738 l 0.018,-0.084 c 1.516,-7.242 -0.791,-14.381 -6.932,-21.449 m -1.771,1.588 -0.047,-0.061 c 5.569,6.416 7.714,12.883 6.424,19.439 -2.007,6.799 -6.267,11.51 -12.771,14.117 -6.605,2.307 -13.567,2.301 -20.891,-0.059 -2.341,-0.75 -3.726,-1.795 -4.146,-3.119 -0.269,-1.428 0.438,-3.213 2.124,-5.361 2.442,-3.596 8.278,-4.764 17.521,-3.529 -8.425,-4.41 -12.977,-10.334 -13.63,-17.752 -0.298,-6.086 2.461,-9.703 8.284,-10.838 5.872,-0.882 11.585,1.51 17.132,7.163"
         id="path427" />
      <path
         inkscape:connector-curvature="0"
         style="fill:#f8e6f0"
         d="m 646.021,622.246 0.047,0.061 c -5.548,-5.652 -11.261,-8.045 -17.13,-7.162 -5.823,1.135 -8.582,4.752 -8.284,10.838 0.653,7.418 5.205,13.342 13.63,17.752 -9.243,-1.234 -15.079,-0.066 -17.521,3.529 -1.686,2.148 -2.393,3.934 -2.124,5.361 0.42,1.324 1.805,2.369 4.146,3.119 7.323,2.359 14.283,2.365 20.891,0.059 6.504,-2.607 10.764,-7.318 12.771,-14.117 1.287,-6.557 -0.857,-13.026 -6.426,-19.44"
         id="path429" />
      <path
         inkscape:connector-curvature="0"
         style="fill:#e27c9f"
         d="m 646.483,670.34 3.967,6.408 c -5.073,3.871 -12.061,7.129 -20.956,9.801 -0.276,1.797 -0.764,3.646 -1.451,5.564 -0.689,1.918 -1.584,3.615 -2.688,5.113 -1.087,1.506 -2.153,2.586 -3.185,3.248 -1.023,0.678 -2.187,1.168 -3.462,1.486 -1.275,0.322 -2.319,0.209 -3.145,-0.33 -0.811,-0.545 -1.589,-1.553 -2.334,-3.025 -0.7,-1.732 -1.018,-3.365 -0.946,-4.883 0.071,-1.52 0.357,-3.082 0.841,-4.689 0.487,-1.598 1.21,-3.131 2.159,-4.6 0.914,-1.439 2.053,-2.729 3.41,-3.871 1.369,-0.158 4.708,-0.977 10.014,-2.473 5.332,-1.47 11.259,-4.066 17.776,-7.749"
         id="path431" />
      <path
         inkscape:connector-curvature="0"
         style="fill:none;stroke:#c4084a;stroke-width:2.34699988;stroke-linecap:round;stroke-linejoin:round;stroke-miterlimit:10"
         d="m 650.45,676.748 -3.967,-6.408 c -6.518,3.684 -12.444,6.279 -17.776,7.75 -5.306,1.496 -8.645,2.314 -10.014,2.473 -1.357,1.143 -2.496,2.432 -3.41,3.871 -0.949,1.469 -1.672,3.002 -2.159,4.6 -0.483,1.607 -0.77,3.17 -0.841,4.689 -0.071,1.518 0.246,3.15 0.946,4.883 0.745,1.473 1.523,2.48 2.334,3.025"
         id="path433" />
      <path
         inkscape:connector-curvature="0"
         style="fill:none;stroke:#c4084a;stroke-width:2.34699988;stroke-linecap:round;stroke-miterlimit:10"
         d="m 615.563,701.631 c 0.825,0.539 1.869,0.652 3.145,0.33 1.275,-0.318 2.438,-0.809 3.462,-1.486 1.031,-0.662 2.098,-1.742 3.185,-3.248 1.104,-1.498 1.999,-3.195 2.688,-5.113 0.688,-1.918 1.175,-3.768 1.451,-5.564 8.896,-2.672 15.883,-5.93 20.956,-9.801"
         id="path435" />
      <path
         inkscape:connector-curvature="0"
         style="fill:#e27c9f"
         d="m 638.5,664.986 2.418,7.148 c -5.78,2.646 -13.286,4.273 -22.508,4.898 -0.671,1.693 -1.552,3.395 -2.649,5.113 -1.095,1.719 -2.341,3.178 -3.746,4.396 -1.391,1.227 -2.666,2.045 -3.812,2.463 -1.144,0.432 -2.38,0.652 -3.688,0.678 -1.308,0.029 -2.296,-0.312 -2.978,-1.023 -0.665,-0.715 -1.193,-1.873 -1.591,-3.477 -0.291,-1.85 -0.234,-3.516 0.172,-4.984 0.408,-1.469 1.034,-2.932 1.86,-4.393 0.83,-1.453 1.868,-2.791 3.12,-4.016 1.208,-1.201 2.597,-2.207 4.169,-3.021 1.364,0.152 4.786,0.098 10.264,-0.18 5.497,-0.244 11.824,-1.457 18.969,-3.602"
         id="path437" />
      <path
         inkscape:connector-curvature="0"
         style="fill:none;stroke:#c4084a;stroke-width:2.33800006;stroke-linecap:round;stroke-linejoin:round;stroke-miterlimit:10"
         d="m 640.918,672.135 -2.418,-7.148 c -7.145,2.145 -13.472,3.357 -18.969,3.605 -5.478,0.275 -8.899,0.33 -10.264,0.178 -1.572,0.814 -2.961,1.822 -4.169,3.021 -1.252,1.225 -2.29,2.562 -3.118,4.016 -0.828,1.461 -1.454,2.924 -1.862,4.393 -0.406,1.469 -0.463,3.135 -0.172,4.984 0.397,1.604 0.926,2.762 1.591,3.477"
         id="path439" />
      <path
         inkscape:connector-curvature="0"
         style="fill:none;stroke:#c4084a;stroke-width:2.33800006;stroke-linecap:round;stroke-miterlimit:10"
         d="m 601.537,688.66 c 0.682,0.711 1.67,1.053 2.978,1.023 1.308,-0.025 2.543,-0.246 3.688,-0.678 1.146,-0.418 2.422,-1.236 3.812,-2.463 1.405,-1.219 2.651,-2.678 3.746,-4.396 1.098,-1.719 1.979,-3.42 2.649,-5.113 9.222,-0.625 16.728,-2.252 22.508,-4.898"
         id="path441" />
      <path
         inkscape:connector-curvature="0"
         style="fill:#e27c9f"
         d="m 672.439,655.67 c 4.339,6.941 8.482,11.023 12.453,12.258 4.018,1.23 8.335,-0.27 12.959,-4.52 6.191,-1.348 7.422,1.23 3.73,7.711 -5.671,5.318 -11.522,7.25 -17.555,5.773 -6.02,-1.475 -11.31,-6.096 -15.873,-13.863 -0.921,-3.748 0.515,-6.199 4.286,-7.359"
         id="path443" />
      <path
         inkscape:connector-curvature="0"
         style="fill:none;stroke:#c4084a;stroke-width:2.35100007;stroke-linecap:round;stroke-linejoin:round;stroke-miterlimit:10"
         d="m 701.582,671.119 c -5.671,5.318 -11.521,7.25 -17.555,5.773 -6.02,-1.475 -11.31,-6.096 -15.873,-13.863 -0.922,-3.748 0.513,-6.199 4.285,-7.359 4.339,6.941 8.482,11.023 12.454,12.258 4.017,1.23 8.335,-0.27 12.959,-4.52"
         id="path445" />
      <path
         inkscape:connector-curvature="0"
         style="fill:#c4084a"
         d="m 695.353,652.881 0.015,0.004 c 2.29,-2.297 4.725,-2.77 7.317,-1.449 1.765,-2.723 3.158,-4.729 4.168,-6.053 l 0.017,-0.01 0.004,-0.014 c 2.326,-2.789 4.772,-3.367 7.34,-1.748 l 0.093,0.051 c 1.521,1.102 2.252,2.35 2.195,3.73 0.062,1.27 -0.615,2.643 -2.01,4.133 l -0.015,-0.004 -2.755,2.885 c 0.713,0.256 1.335,0.707 1.889,1.338 l -0.014,-0.004 c 1.128,1.234 1.573,2.674 1.335,4.314 l -0.009,-0.018 c 0.004,0.047 -0.01,0.105 -0.019,0.146 2.311,1.363 2.965,3.211 1.946,5.562 l -0.024,0.041 -0.003,0.014 c -1.251,2.662 -2.979,3.74 -5.21,3.232 -2.607,3.436 -5.938,4.578 -9.972,3.416 l -0.309,-2.434 c 3.466,0.92 6.162,0.234 8.103,-2.053 -0.456,-0.455 -0.758,-1.059 -0.928,-1.781 -2.161,0.328 -3.636,-0.502 -4.422,-2.52 l 0.014,0.016 c -0.408,-0.807 -0.532,-1.654 -0.389,-2.559 -1.999,0.74 -3.862,-0.65 -5.557,-4.186 l 1.268,-0.248 c 1.561,1.717 2.846,2.395 3.82,2.033 1.312,-1.057 1.404,-2.336 0.276,-3.828 -0.36,-0.344 -0.72,-0.625 -1.076,-0.859 l -0.025,-0.021 -0.015,-0.002 -0.009,-0.018 c -1.904,-1.281 -3.688,-1.094 -5.35,0.574 l 0.006,-0.027 c -2.125,2.365 -1.904,5.6 0.673,9.705 l -1.382,0.963 c -3.92,-4.934 -4.248,-9.027 -0.993,-12.311 l 0.007,-0.01 z m 17.59,-7.279 c 0.004,-0.014 0.004,-0.014 -0.009,-0.018 -1.465,-0.752 -2.879,-0.326 -4.244,1.307 l 0.023,-0.041 c -1.001,1.281 -2.354,3.252 -4.073,5.895 0.19,0.166 0.393,0.334 0.578,0.514 l 0.073,0.08 0.065,0.059 c 0.743,0.977 1.216,1.908 1.393,2.783 0.061,-0.062 0.105,-0.127 0.161,-0.174 0.018,-0.014 0.018,-0.014 0.02,-0.027 l 1.308,-1.359 c 0.022,-0.025 0.044,-0.053 0.06,-0.061 l 4.479,-4.68 -0.004,0.016 c 0.861,-0.934 1.322,-1.766 1.373,-2.527 -0.05,-0.633 -0.448,-1.226 -1.203,-1.767 m -0.508,14.865 0.007,-0.027 c 0.069,-0.24 0.124,-0.486 0.151,-0.736 l 0.004,-0.014 c 0.127,-0.896 -0.116,-1.695 -0.735,-2.371 -0.569,-0.619 -1.296,-0.879 -2.185,-0.77 l -1.086,1.123 c -2.029,2.008 -2.802,3.691 -2.339,5.055 l 0.008,0.02 c 0.514,1.014 1.479,1.301 2.895,0.848 l 0.021,-0.014 0.013,0.004 c 0.032,-0.006 0.064,-0.014 0.097,-0.021 0.016,-0.012 0.016,-0.012 0.029,-0.006 0.02,-0.014 0.02,-0.014 0.037,-0.023 l 0.049,-0.021 c 1.567,-0.568 2.578,-1.559 3.023,-2.986 l 0.006,-0.027 c 0.003,-0.017 0.003,-0.017 0.005,-0.034 m -0.801,6.133 c 0.1,0.039 0.214,0.066 0.328,0.092 1.126,0.174 2.038,-0.447 2.704,-1.85 0.328,-0.91 0.149,-1.662 -0.527,-2.275 -0.701,1.289 -1.8,2.273 -3.327,2.93 0.115,0.498 0.38,0.863 0.782,1.078 0.017,0.003 0.031,0.007 0.04,0.025"
         id="path447" />
      <path
         inkscape:connector-curvature="0"
         style="fill:#e27c9f"
         d="m 712.935,645.584 c 0.013,0.004 0.013,0.004 0.009,0.018 0.755,0.541 1.152,1.135 1.203,1.766 -0.051,0.762 -0.512,1.594 -1.373,2.527 l 0.004,-0.012 -4.479,4.676 c -0.016,0.008 -0.037,0.035 -0.059,0.061 l -1.307,1.359 c -0.004,0.014 -0.004,0.014 -0.021,0.027 -0.056,0.047 -0.101,0.111 -0.161,0.174 -0.177,-0.875 -0.649,-1.807 -1.393,-2.781 l -0.065,-0.061 -0.073,-0.08 c -0.186,-0.18 -0.389,-0.348 -0.578,-0.514 1.719,-2.643 3.072,-4.613 4.073,-5.895 l -0.023,0.041 c 1.364,-1.632 2.778,-2.058 4.243,-1.306"
         id="path449" />
      <path
         inkscape:connector-curvature="0"
         style="fill:#e27c9f"
         d="m 712.441,660.439 -0.007,0.027 c -0.002,0.018 -0.002,0.018 -0.006,0.031 l -0.006,0.027 c -0.445,1.428 -1.456,2.418 -3.023,2.988 l -0.049,0.02 c -0.018,0.01 -0.018,0.01 -0.037,0.023 -0.014,-0.006 -0.014,-0.006 -0.029,0.006 -0.032,0.008 -0.064,0.016 -0.097,0.023 l -0.013,-0.006 -0.02,0.014 c -1.418,0.453 -2.382,0.168 -2.896,-0.848 l -0.008,-0.018 c -0.463,-1.365 0.31,-3.049 2.339,-5.057 l 1.086,-1.123 c 0.889,-0.109 1.615,0.15 2.185,0.771 0.619,0.674 0.862,1.475 0.735,2.369 l -0.004,0.014 c -0.026,0.255 -0.08,0.499 -0.15,0.739"
         id="path451" />
      <path
         inkscape:connector-curvature="0"
         style="fill:#e27c9f"
         d="m 711.962,666.691 c -0.114,-0.025 -0.229,-0.053 -0.328,-0.092 -0.009,-0.018 -0.022,-0.021 -0.04,-0.025 -0.403,-0.215 -0.667,-0.58 -0.782,-1.078 1.527,-0.656 2.626,-1.641 3.327,-2.93 0.677,0.613 0.855,1.365 0.527,2.275 -0.666,1.403 -1.578,2.024 -2.704,1.85"
         id="path453" />
      <path
         inkscape:connector-curvature="0"
         style="fill:#e27c9f"
         d="m 702.394,653.99 0.009,0.018 0.015,0.002 0.025,0.021 c 0.356,0.234 0.716,0.516 1.076,0.859 1.128,1.492 1.035,2.771 -0.276,3.828 -0.975,0.361 -2.26,-0.316 -3.82,-2.033 l -1.268,0.248 c 1.694,3.535 3.558,4.926 5.557,4.186 -0.144,0.904 -0.02,1.752 0.389,2.561 l -0.014,-0.018 c 0.787,2.018 2.261,2.848 4.422,2.52 0.17,0.723 0.472,1.326 0.928,1.781 -1.939,2.287 -4.637,2.973 -8.103,2.053 -1.355,-0.5 -2.436,-1.27 -3.218,-2.299 l 1.175,-0.848 -1.567,-2.627 c -2.577,-4.105 -2.798,-7.34 -0.673,-9.705 l -0.006,0.029 c 1.661,-1.67 3.444,-1.857 5.349,-0.576"
         id="path455" />
      <path
         inkscape:connector-curvature="0"
         style="fill:#3793d1"
         d="m 673.183,656.49 2.541,-4.701 -18.217,-14.215 -4.825,3.311 -3.002,0.814 -0.085,0.002 c -3.094,0.971 -6.072,2.117 -8.938,3.418 -9.42,4.295 -15.947,9.559 -19.58,15.789 l -0.966,1.549 1.384,1.26 c 0.89,0.867 2.054,1.52 3.479,1.973 -0.313,0.502 -0.589,1.023 -0.839,1.545 l -0.884,1.713 1.594,1.135 c 0.787,0.617 1.729,1.08 2.831,1.381 -0.432,1.178 -0.757,2.352 -0.968,3.494 l -0.464,2.078 2.118,0.525 c 1.479,0.42 3.21,0.445 5.182,0.059 -0.105,0.789 -0.147,1.557 -0.147,2.301 l -0.044,2.195 2.222,0.09 c 0.389,0.023 0.776,0.027 1.175,0.021 -0.031,1.025 0.02,2.027 0.145,2.998 l 0.188,2.174 2.244,-0.184 c 1.771,-0.123 3.734,-0.742 5.854,-1.855 0.029,0.197 0.073,0.383 0.125,0.578 l 0.396,2.086 2.203,-0.348 c 0.451,-0.059 0.911,-0.15 1.385,-0.271 0.271,1.527 0.722,2.939 1.359,4.223 l 0.839,1.891 1.991,-0.717 c 2.989,-0.99 6.076,-3.338 9.256,-7.047 5.95,-6.962 9.429,-16.722 10.448,-29.265 m -0.398,-4.072 -2.036,3.74 0.146,-0.023 c -0.943,12.098 -4.255,21.48 -9.922,28.158 -2.833,3.318 -5.583,5.434 -8.229,6.348 -0.896,-1.893 -1.359,-4.08 -1.379,-6.562 -1.332,0.693 -2.601,1.141 -3.797,1.324 -0.272,-1.279 -0.374,-2.623 -0.312,-4.033 -3.054,2.174 -5.738,3.357 -8.077,3.549 -0.209,-1.756 -0.112,-3.611 0.275,-5.572 -1.351,0.426 -2.599,0.6 -3.732,0.561 0.032,-1.771 0.336,-3.631 0.927,-5.566 -3.104,1.189 -5.663,1.521 -7.677,0.994 0.367,-1.881 1.03,-3.785 1.997,-5.727 -1.995,-0.09 -3.587,-0.561 -4.76,-1.393 0.726,-1.449 1.605,-2.85 2.646,-4.225 -2.56,-0.145 -4.49,-0.797 -5.787,-1.975 3.443,-5.834 9.626,-10.77 18.531,-14.822 2.77,-1.268 5.655,-2.357 8.667,-3.311 l 3.354,-0.922 3.756,-2.568 15.409,12.025 z"
         id="path457" />
      <path
         inkscape:connector-curvature="0"
         style="fill:#86c1ea"
         d="m 670.749,656.158 2.036,-3.74 -15.408,-12.025 -3.756,2.568 -3.354,0.922 c -3.012,0.953 -5.897,2.043 -8.667,3.311 -8.905,4.053 -15.088,8.988 -18.531,14.822 1.297,1.178 3.228,1.832 5.787,1.975 0.785,0.039 1.615,0.035 2.496,-0.021 1.144,-0.07 2.318,-0.232 3.524,-0.471 -1.629,2.066 -2.918,4.105 -3.906,6.109 -0.967,1.941 -1.63,3.846 -1.998,5.727 2.015,0.527 4.574,0.195 7.678,-0.994 0.513,-0.186 1.049,-0.412 1.614,-0.67 1.282,-0.559 2.56,-1.223 3.861,-2.008 -1.313,2.721 -2.207,5.295 -2.67,7.686 -0.388,1.959 -0.484,3.814 -0.275,5.57 2.339,-0.191 5.023,-1.375 8.077,-3.549 0.337,-0.252 0.681,-0.518 1.028,-0.781 1.386,-1.059 2.72,-2.273 3.987,-3.627 -0.63,2.6 -0.925,4.961 -0.907,7.117 0.02,2.482 0.481,4.67 1.379,6.562 2.646,-0.914 5.396,-3.029 8.228,-6.348 5.668,-6.678 8.979,-16.061 9.923,-28.158 l -0.146,0.023 z"
         id="path459" />
      <path
         inkscape:connector-curvature="0"
         style="fill:#bc9fca"
         d="m 628.855,663.99 c -1.04,1.375 -1.92,2.775 -2.646,4.225 1.174,0.832 2.766,1.303 4.761,1.393 0.988,-2.004 2.277,-4.043 3.907,-6.109 -1.207,0.238 -2.382,0.4 -3.525,0.473 -0.881,0.053 -1.711,0.057 -2.497,0.018"
         id="path461" />
      <path
         inkscape:connector-curvature="0"
         style="fill:#bc9fca"
         d="m 638.264,673.67 c -0.565,0.258 -1.102,0.484 -1.614,0.67 -0.591,1.934 -0.895,3.795 -0.928,5.566 1.135,0.039 2.383,-0.135 3.733,-0.561 0.463,-2.389 1.357,-4.959 2.67,-7.684 -1.302,0.786 -2.579,1.45 -3.861,2.009"
         id="path463" />
      <path
         inkscape:connector-curvature="0"
         style="fill:#bc9fca"
         d="m 652.272,676.961 c -1.268,1.355 -2.602,2.568 -3.987,3.627 -0.347,0.264 -0.691,0.529 -1.028,0.781 -0.062,1.41 0.039,2.754 0.312,4.033 1.196,-0.184 2.465,-0.629 3.797,-1.324 -0.018,-2.156 0.277,-4.517 0.906,-7.117"
         id="path465" />
      <path
         inkscape:connector-curvature="0"
         style="fill:#d4074c"
         d="m 567.627,671.762 c -0.059,0.59 0.114,1.111 0.504,1.566 l 0.246,0.287 c 0.398,0.449 0.893,0.709 1.486,0.773 0.597,0.041 1.128,-0.127 1.595,-0.486 l 51.984,-42.186 c 0.454,-0.369 0.702,-0.85 0.748,-1.432 0.054,-0.594 -0.117,-1.109 -0.494,-1.576 l -0.246,-0.289 c -0.4,-0.449 -0.905,-0.699 -1.499,-0.76 -0.595,-0.045 -1.118,0.115 -1.553,0.486 l -52.013,42.172 c -0.447,0.382 -0.694,0.865 -0.758,1.445"
         id="path467" />
      <path
         inkscape:connector-curvature="0"
         style="fill:none;stroke:#d40247;stroke-width:4.34399986;stroke-miterlimit:10"
         d="m 568.131,673.328 0.246,0.289 c 0.4,0.447 0.893,0.707 1.486,0.771 0.598,0.041 1.127,-0.127 1.595,-0.486 l 51.985,-42.186 c 0.453,-0.367 0.701,-0.85 0.746,-1.432 0.055,-0.594 -0.116,-1.109 -0.493,-1.576 l -0.246,-0.289 c -0.4,-0.447 -0.905,-0.699 -1.499,-0.76 -0.595,-0.045 -1.118,0.115 -1.554,0.486 l -52.012,42.172 c -0.448,0.381 -0.694,0.863 -0.759,1.443 -0.058,0.592 0.114,1.113 0.505,1.568 z"
         id="path469" />
      <path
         inkscape:connector-curvature="0"
         style="fill:#d4074c"
         d="m 567.627,671.762 c -0.059,0.59 0.114,1.111 0.504,1.566 l 0.246,0.287 c 0.398,0.449 0.893,0.709 1.486,0.773 0.597,0.041 1.128,-0.127 1.595,-0.486 l 51.984,-42.186 c 0.454,-0.369 0.702,-0.85 0.748,-1.432 0.054,-0.594 -0.117,-1.109 -0.494,-1.576 l -0.246,-0.289 c -0.4,-0.449 -0.905,-0.699 -1.499,-0.76 -0.595,-0.045 -1.118,0.115 -1.553,0.486 l -52.013,42.172 c -0.447,0.382 -0.694,0.865 -0.758,1.445"
         id="path471" />
      <path
         inkscape:connector-curvature="0"
         style="fill:none;stroke:#d4074c;stroke-width:2.25900006;stroke-miterlimit:10"
         d="m 568.131,673.328 0.246,0.289 c 0.4,0.447 0.893,0.707 1.486,0.771 0.598,0.041 1.127,-0.127 1.595,-0.486 l 51.985,-42.186 c 0.453,-0.367 0.701,-0.85 0.746,-1.432 0.055,-0.594 -0.116,-1.109 -0.493,-1.576 l -0.246,-0.289 c -0.4,-0.447 -0.905,-0.699 -1.499,-0.76 -0.595,-0.045 -1.118,0.115 -1.554,0.486 l -52.012,42.172 c -0.448,0.381 -0.694,0.863 -0.759,1.443 -0.058,0.592 0.114,1.113 0.505,1.568 z"
         id="path473" />
      <polygon
         style="fill:#d4074c"
         points="605.213,646.496 599.69,644.936 597.339,646.842 602.849,648.414 "
         id="polygon475" />
      <polygon
         style="fill:none;stroke:#d4074c;stroke-width:2.25900006;stroke-miterlimit:10"
         points="605.213,646.496 602.849,648.414 597.339,646.842 599.69,644.936 "
         id="polygon477" />
      <polygon
         style="fill:#d4074c"
         points="580.985,666.158 583.61,664.049 583.793,657.846 581.151,659.986 "
         id="polygon479" />
      <polygon
         style="fill:none;stroke:#d4074c;stroke-width:2.25900006;stroke-miterlimit:10"
         points="580.985,666.158 581.151,659.986 583.793,657.846 583.61,664.049 "
         id="polygon481" />
      <polygon
         style="fill:#d4074c"
         points="592.281,657 586.772,655.43 584.411,657.307 589.938,658.92 "
         id="polygon483" />
      <polygon
         style="fill:none;stroke:#d4074c;stroke-width:2.25900006;stroke-miterlimit:10"
         points="592.281,657 589.938,658.92 584.411,657.307 586.772,655.43 "
         id="polygon485" />
      <polygon
         style="fill:#d4074c"
         points="596.343,647.65 593.731,649.75 593.583,655.965 596.165,653.854 "
         id="polygon487" />
      <polygon
         style="fill:none;stroke:#d4074c;stroke-width:2.25900006;stroke-miterlimit:10"
         points="596.343,647.65 596.165,653.854 593.583,655.965 593.731,649.75 "
         id="polygon489" />
      <polygon
         style="fill:#d4074c"
         points="606.492,645.461 609.105,643.359 609.308,637.158 606.691,639.258 "
         id="polygon491" />
      <polygon
         style="fill:none;stroke:#d4074c;stroke-width:2.25900006;stroke-miterlimit:10"
         points="606.492,645.461 606.691,639.258 609.308,637.158 609.105,643.359 "
         id="polygon493" />
      <polygon
         style="fill:#d4074c"
         points="613.284,633.916 610.908,635.822 616.437,637.416 618.793,635.488 "
         id="polygon495" />
      <polygon
         style="fill:none;stroke:#d4074c;stroke-width:2.25900006;stroke-miterlimit:10"
         points="613.284,633.916 618.793,635.488 616.437,637.416 610.908,635.822 "
         id="polygon497" />
      <path
         inkscape:connector-curvature="0"
         style="fill:#84539c"
         d="m 567.627,671.762 c -0.059,0.59 0.114,1.111 0.504,1.566 l 0.246,0.287 c 0.398,0.449 0.893,0.709 1.486,0.773 0.597,0.041 1.128,-0.127 1.595,-0.486 l 51.984,-42.186 c 0.454,-0.369 0.702,-0.85 0.748,-1.432 0.054,-0.594 -0.117,-1.109 -0.494,-1.576 l -0.246,-0.289 c -0.4,-0.449 -0.905,-0.699 -1.499,-0.76 -0.595,-0.045 -1.118,0.115 -1.553,0.486 l -52.013,42.172 c -0.447,0.382 -0.694,0.865 -0.758,1.445"
         id="path499" />
      <polygon
         style="fill:#e97ca0"
         points="605.213,646.496 599.69,644.936 597.339,646.842 602.849,648.414 "
         id="polygon501" />
      <polygon
         style="fill:#6bc4ee"
         points="580.985,666.158 583.61,664.049 583.793,657.846 581.151,659.986 "
         id="polygon503" />
      <polygon
         style="fill:#e97ca0"
         points="592.281,657 586.772,655.43 584.411,657.307 589.938,658.92 "
         id="polygon505" />
      <polygon
         style="fill:#6bc4ee"
         points="596.343,647.65 593.731,649.75 593.583,655.965 596.165,653.854 "
         id="polygon507" />
      <polygon
         style="fill:#6bc4ee"
         points="606.492,645.461 609.105,643.359 609.308,637.158 606.691,639.258 "
         id="polygon509" />
      <polygon
         style="fill:#e97ca0"
         points="613.284,633.916 610.908,635.822 616.437,637.416 618.793,635.488 "
         id="polygon511" />
      <path
         inkscape:connector-curvature="0"
         style="fill:#f0d5e6"
         d="m 561.262,685.574 c 1.027,-0.041 1.795,-0.609 2.312,-1.705 0.507,-1.107 1.042,-2.744 1.576,-4.928 0.752,-2.133 2.11,-4.211 4.084,-6.244 l -0.099,0.043 c -2.328,1.549 -4.279,2.998 -5.843,4.338 -2.905,2.527 -4.204,4.766 -3.917,6.715 0.186,1.26 0.805,1.85 1.887,1.781"
         id="path513" />
      <path
         inkscape:connector-curvature="0"
         style="fill:#f0d5e6"
         d="m 574.646,661.666 c -0.645,2.123 -1.295,3.986 -1.942,5.584 -0.649,1.598 -1.856,3.441 -3.638,5.543 0.811,-0.111 2.762,-1.562 5.828,-4.33 2.92,-2.535 4.239,-4.77 3.961,-6.709 -0.197,-1.25 -0.826,-1.852 -1.896,-1.793 -1.027,0.062 -1.797,0.631 -2.313,1.705"
         id="path515" />
      <path
         inkscape:connector-curvature="0"
         style="fill:#f0d5e6"
         d="m 564.852,687.18 c 0.979,-0.324 1.576,-1.072 1.794,-2.244 0.198,-1.195 0.289,-2.924 0.244,-5.201 0.167,-2.225 0.94,-4.584 2.338,-7.09 l -0.093,0.096 c -1.852,2.084 -3.34,3.967 -4.48,5.645 -2.156,3.178 -2.848,5.678 -2.062,7.482 0.5,1.177 1.26,1.614 2.259,1.312"
         id="path517" />
      <path
         inkscape:connector-curvature="0"
         style="fill:#6bc4ee"
         d="m 561.262,685.574 c 1.027,-0.041 1.795,-0.609 2.312,-1.705 0.507,-1.107 1.042,-2.744 1.576,-4.928 0.752,-2.133 2.11,-4.211 4.084,-6.244 l -0.099,0.043 c -2.31,1.344 -4.59,3.043 -6.838,5.072 -2.238,2.041 -3.209,4.031 -2.922,5.98 0.186,1.261 0.805,1.851 1.887,1.782"
         id="path519" />
      <path
         inkscape:connector-curvature="0"
         style="fill:#eddd00"
         d="m 564.852,687.18 c 0.979,-0.324 1.576,-1.072 1.794,-2.244 0.198,-1.195 0.289,-2.924 0.244,-5.201 0.167,-2.225 0.94,-4.584 2.338,-7.09 l -0.093,0.096 c -1.852,2.084 -3.34,3.967 -4.48,5.645 -2.156,3.178 -2.848,5.678 -2.062,7.482 0.5,1.177 1.26,1.614 2.259,1.312"
         id="path521" />
      <path
         inkscape:connector-curvature="0"
         style="fill:#eddd00"
         d="m 573.576,667.162 c 2.147,-3.189 2.84,-5.688 2.053,-7.496 -0.51,-1.186 -1.26,-1.611 -2.247,-1.299 -0.979,0.322 -1.578,1.07 -1.796,2.244 -0.073,2.225 -0.165,3.953 -0.252,5.189 -0.18,2.215 -0.938,4.541 -2.268,6.992 0.559,-0.431 2.064,-2.312 4.51,-5.63"
         id="path523" />
      <path
         inkscape:connector-curvature="0"
         style="fill:#f0d5e6"
         d="m 568.699,687.822 c 0.854,-0.541 1.23,-1.41 1.133,-2.613 -0.103,-1.232 -0.478,-2.941 -1.112,-5.115 -0.384,-2.172 -0.246,-4.619 0.415,-7.354 -1.258,2.486 -2.219,4.695 -2.887,6.607 -1.293,3.629 -1.319,6.225 -0.086,7.785 0.797,1.03 1.641,1.247 2.537,0.69"
         id="path525" />
      <path
         inkscape:connector-curvature="0"
         style="fill:#6bc4ee"
         d="m 568.398,660.338 c 0.499,2.172 0.861,4.115 1.088,5.834 0.225,1.717 0.077,3.963 -0.432,6.744 l 0.042,-0.109 c 0.394,-0.49 1.35,-2.676 2.88,-6.568 1.275,-3.631 1.312,-6.236 0.093,-7.824 -0.81,-1.018 -1.64,-1.248 -2.538,-0.688 -0.861,0.546 -1.24,1.418 -1.133,2.611"
         id="path527" />
      <path
         inkscape:connector-curvature="0"
         style="fill:#f0d5e6"
         d="m 569.967,687.473 c 1.018,0.791 1.895,0.797 2.609,0.027 0.691,-0.73 0.844,-1.662 0.426,-2.811 -0.416,-1.168 -1.204,-2.727 -2.358,-4.67 -0.963,-2.061 -1.465,-4.531 -1.52,-7.385 l -0.019,0.09 c -0.556,2.727 -0.91,5.102 -1.07,7.113 -0.281,3.86 0.361,6.407 1.932,7.636"
         id="path529" />
      <path
         inkscape:connector-curvature="0"
         style="fill:#f0d5e6"
         d="m 568.699,687.822 c 0.854,-0.541 1.23,-1.41 1.133,-2.613 -0.103,-1.232 -0.478,-2.941 -1.112,-5.115 -0.384,-2.172 -0.246,-4.619 0.415,-7.354 -1.258,2.486 -2.219,4.695 -2.887,6.607 -1.293,3.629 -1.319,6.225 -0.086,7.785 0.797,1.03 1.641,1.247 2.537,0.69"
         id="path531" />
      <path
         inkscape:connector-curvature="0"
         style="fill:#6bc4ee"
         d="m 569.967,687.473 c 1.018,0.791 1.895,0.797 2.609,0.027 0.691,-0.73 0.844,-1.662 0.426,-2.811 -0.416,-1.168 -1.21,-2.781 -2.372,-4.848 -0.839,-1.934 -1.347,-4.344 -1.506,-7.207 l -0.019,0.09 c -0.556,2.727 -0.91,5.102 -1.07,7.113 -0.281,3.86 0.361,6.407 1.932,7.636"
         id="path533" />
      <path
         inkscape:connector-curvature="0"
         style="fill:#eddd00"
         d="m 569.085,672.93 0.013,-0.123 c 0.094,-0.773 0.467,-3.145 1.09,-7.129 0.312,-3.826 -0.334,-6.352 -1.912,-7.594 -1.043,-0.791 -1.914,-0.818 -2.631,-0.049 -0.69,0.729 -0.832,1.674 -0.424,2.811 1.051,2.004 1.838,3.588 2.363,4.723 0.975,2.052 1.48,4.501 1.501,7.361"
         id="path535" />
      <path
         inkscape:connector-curvature="0"
         style="fill:#f0d5e6"
         d="m 572.63,679.312 c -1.474,-1.686 -2.647,-3.877 -3.524,-6.588 0.237,2.799 0.58,5.193 0.991,7.174 0.843,3.775 2.187,6.055 4.03,6.816 1.208,0.486 2.04,0.264 2.509,-0.662 0.444,-0.904 0.312,-1.854 -0.405,-2.832 -0.715,-1.019 -1.919,-2.318 -3.601,-3.908"
         id="path537" />
      <path
         inkscape:connector-curvature="0"
         style="fill:#f0d5e6"
         d="m 561.586,659.502 c -0.465,0.887 -0.334,1.83 0.383,2.83 1.572,1.643 2.777,2.941 3.613,3.902 1.473,1.684 2.656,3.863 3.539,6.555 0.09,-1.299 -0.242,-3.682 -1.026,-7.164 -0.829,-3.787 -2.164,-6.053 -4.011,-6.793 -1.207,-0.49 -2.041,-0.266 -2.498,0.67"
         id="path539" />
      <path
         inkscape:connector-curvature="0"
         style="fill:#f0d5e6"
         d="m 569.029,672.617 0.047,0.096 c 0.955,2.668 1.91,4.922 2.846,6.742 1.764,3.475 3.639,5.361 5.615,5.641 1.291,0.178 2.048,-0.25 2.252,-1.279 0.179,-0.992 -0.19,-1.879 -1.129,-2.66 -0.976,-0.807 -2.455,-1.771 -4.477,-2.898 -1.898,-1.302 -3.617,-3.183 -5.154,-5.642"
         id="path541" />
      <path
         inkscape:connector-curvature="0"
         style="fill:#f0d5e6"
         d="m 572.63,679.312 c -1.474,-1.686 -2.647,-3.877 -3.524,-6.588 0.237,2.799 0.58,5.193 0.991,7.174 0.843,3.775 2.187,6.055 4.03,6.816 1.208,0.486 2.04,0.264 2.509,-0.662 0.444,-0.904 0.312,-1.854 -0.405,-2.832 -0.715,-1.019 -1.919,-2.318 -3.601,-3.908"
         id="path543" />
      <path
         inkscape:connector-curvature="0"
         style="fill:#eddd00"
         d="m 569.029,672.617 0.047,0.096 c 0.955,2.668 1.91,4.922 2.846,6.742 1.764,3.475 3.639,5.361 5.615,5.641 1.291,0.178 2.048,-0.25 2.252,-1.279 0.179,-0.992 -0.19,-1.879 -1.129,-2.66 -0.976,-0.807 -2.455,-1.771 -4.477,-2.898 -1.898,-1.302 -3.617,-3.183 -5.154,-5.642"
         id="path545" />
      <path
         inkscape:connector-curvature="0"
         style="fill:#eddd00"
         d="m 558.442,661.73 c -0.196,0.969 0.172,1.855 1.106,2.658 1.931,1.199 3.42,2.174 4.477,2.898 1.9,1.301 3.619,3.18 5.154,5.641 l -0.053,-0.107 c -0.158,-0.662 -1.094,-2.914 -2.826,-6.738 -1.766,-3.479 -3.631,-5.352 -5.609,-5.611 -1.298,-0.188 -2.045,0.228 -2.249,1.259"
         id="path547" />
      <path
         inkscape:connector-curvature="0"
         style="fill:#f0d5e6"
         d="m 569.017,672.646 0.058,0.088 c 1.598,2.352 3.066,4.303 4.437,5.842 2.595,2.959 4.888,4.334 6.88,4.113 1.289,-0.145 1.895,-0.727 1.832,-1.75 -0.073,-1.014 -0.65,-1.787 -1.749,-2.326 -1.138,-0.564 -2.832,-1.145 -5.069,-1.76 -2.162,-0.787 -4.285,-2.187 -6.389,-4.207"
         id="path549" />
      <path
         inkscape:connector-curvature="0"
         style="fill:#6bc4ee"
         d="m 557.757,666.955 c 2.166,0.705 3.851,1.277 5.05,1.732 2.15,0.779 4.292,2.184 6.417,4.225 l -0.075,-0.109 c -0.254,-0.641 -1.742,-2.594 -4.457,-5.846 -2.574,-2.957 -4.859,-4.32 -6.83,-4.096 -1.297,0.129 -1.914,0.721 -1.834,1.768 0.04,1.021 0.608,1.803 1.729,2.326"
         id="path551" />
      <path
         inkscape:connector-curvature="0"
         style="fill:#f0d5e6"
         d="m 569.074,672.734 c 2.146,1.889 4.077,3.428 5.766,4.617 3.268,2.225 5.817,2.996 7.674,2.297 1.213,-0.457 1.664,-1.197 1.336,-2.193 -0.33,-0.953 -1.112,-1.559 -2.334,-1.811 -1.228,-0.266 -2.998,-0.412 -5.28,-0.441 -2.243,-0.252 -4.64,-1.072 -7.162,-2.469"
         id="path553" />
      <path
         inkscape:connector-curvature="0"
         style="fill:#f0d5e6"
         d="m 569.017,672.646 0.058,0.088 c 1.598,2.352 3.066,4.303 4.437,5.842 2.595,2.959 4.888,4.334 6.88,4.113 1.289,-0.145 1.895,-0.727 1.832,-1.75 -0.073,-1.014 -0.65,-1.787 -1.749,-2.326 -1.138,-0.564 -2.832,-1.145 -5.069,-1.76 -2.162,-0.787 -4.285,-2.187 -6.389,-4.207"
         id="path555" />
      <path
         inkscape:connector-curvature="0"
         style="fill:#6bc4ee"
         d="m 581.516,675.645 c -1.229,-0.264 -2.997,-0.412 -5.28,-0.441 -2.266,-0.326 -4.643,-1.145 -7.161,-2.469 2.146,1.889 4.076,3.428 5.767,4.617 3.267,2.225 5.817,2.996 7.674,2.297 1.213,-0.457 1.663,-1.197 1.336,-2.191 -0.331,-0.956 -1.114,-1.562 -2.336,-1.813"
         id="path557" />
      <path
         inkscape:connector-curvature="0"
         style="fill:#eddd00"
         d="m 556.687,669.891 c 2.28,0.164 4.036,0.318 5.289,0.451 2.274,0.244 4.702,1.098 7.262,2.541 l -0.087,-0.08 c -0.475,-0.648 -2.406,-2.189 -5.779,-4.609 -3.257,-2.211 -5.809,-2.984 -7.654,-2.297 -1.203,0.469 -1.643,1.199 -1.316,2.195 0.33,0.955 1.092,1.558 2.285,1.799"
         id="path559" />
      <path
         inkscape:connector-curvature="0"
         style="fill:#f0d5e6"
         d="m 568.958,672.713 0.101,0.051 c 2.567,1.266 4.844,2.242 6.814,2.922 3.727,1.287 6.386,1.35 7.961,0.186 1.04,-0.75 1.266,-1.57 0.676,-2.447 -0.582,-0.863 -1.492,-1.256 -2.703,-1.156 -1.24,0.064 -2.99,0.389 -5.228,0.982 -2.237,0.364 -4.781,0.188 -7.621,-0.538"
         id="path561" />
      <path
         inkscape:connector-curvature="0"
         style="fill:#f0d5e6"
         d="m 556.414,673.291 c 2.228,-0.471 3.967,-0.809 5.207,-1.008 2.228,-0.355 4.738,-0.172 7.527,0.52 -0.561,-0.502 -2.82,-1.477 -6.779,-2.949 -3.744,-1.291 -6.404,-1.354 -7.98,-0.189 -1.032,0.76 -1.258,1.584 -0.658,2.471 0.574,0.831 1.476,1.21 2.683,1.155"
         id="path563" />
      <path
         inkscape:connector-curvature="0"
         style="fill:#f0d5e6"
         d="m 568.966,672.746 0.092,0.018 c 2.812,0.6 5.24,0.982 7.31,1.166 3.92,0.34 6.494,-0.242 7.725,-1.768 0.79,-0.998 0.798,-1.85 0.001,-2.559 -0.756,-0.684 -1.719,-0.844 -2.885,-0.463 -1.197,0.385 -2.784,1.127 -4.747,2.246 -2.079,0.918 -4.576,1.361 -7.495,1.355 v 0.005 z"
         id="path565" />
      <path
         inkscape:connector-curvature="0"
         style="fill:#eddd00"
         d="m 568.958,672.713 0.101,0.051 c 2.567,1.266 4.844,2.242 6.814,2.922 3.727,1.287 6.386,1.35 7.961,0.186 1.04,-0.75 1.266,-1.57 0.676,-2.447 -0.582,-0.863 -1.492,-1.256 -2.703,-1.156 -1.24,0.064 -2.99,0.389 -5.228,0.982 -2.237,0.364 -4.781,0.188 -7.621,-0.538"
         id="path567" />
      <path
         inkscape:connector-curvature="0"
         style="fill:#f0d5e6"
         d="m 568.966,672.746 0.092,0.018 c 2.812,0.6 5.24,0.982 7.31,1.166 3.92,0.34 6.494,-0.242 7.725,-1.768 0.79,-0.998 0.798,-1.85 0.001,-2.559 -0.756,-0.684 -1.719,-0.844 -2.885,-0.463 -1.197,0.385 -2.784,1.127 -4.747,2.246 -2.079,0.918 -4.576,1.361 -7.495,1.355 v 0.005 z"
         id="path569" />
      <path
         inkscape:connector-curvature="0"
         style="fill:#6bc4ee"
         d="m 557.023,676.408 c 2.021,-0.982 3.602,-1.736 4.737,-2.242 2.097,-0.91 4.595,-1.357 7.513,-1.354 l -0.11,-0.041 c -0.685,-0.213 -3.124,-0.607 -7.31,-1.146 -3.932,-0.328 -6.506,0.252 -7.724,1.75 -0.79,0.996 -0.788,1.861 -0.003,2.58 0.757,0.682 1.726,0.82 2.897,0.453"
         id="path571" />
      <path
         inkscape:connector-curvature="0"
         style="fill:#f0d5e6"
         d="m 575.828,669.625 c -1.724,1.377 -3.972,2.412 -6.754,3.109 2.852,-0.076 5.284,-0.279 7.33,-0.621 3.885,-0.631 6.202,-1.832 6.982,-3.613 0.509,-1.145 0.296,-1.988 -0.646,-2.482 -0.927,-0.473 -1.882,-0.395 -2.893,0.256 -1.041,0.656 -2.384,1.781 -4.019,3.351"
         id="path573" />
      <path
         inkscape:connector-curvature="0"
         style="fill:#eddd00"
         d="m 561.819,673.422 c -3.876,0.641 -6.194,1.844 -6.983,3.611 -0.511,1.148 -0.295,1.99 0.635,2.494 0.928,0.473 1.895,0.385 2.904,-0.266 1.688,-1.463 3.028,-2.588 4.019,-3.354 1.766,-1.393 4.047,-2.436 6.864,-3.137 h -0.094 c -0.746,-0.032 -3.201,0.191 -7.345,0.652"
         id="path575" />
      <path
         inkscape:connector-curvature="0"
         style="fill:#f0d5e6"
         d="m 568.956,672.846 0.11,-0.053 c 2.723,-0.814 5.025,-1.625 6.894,-2.445 3.552,-1.566 5.489,-3.303 5.802,-5.229 0.203,-1.279 -0.207,-2.033 -1.259,-2.293 -1.003,-0.223 -1.918,0.107 -2.739,0.98 -1.238,1.83 -2.25,3.252 -3.01,4.264 -1.34,1.782 -3.274,3.366 -5.798,4.776"
         id="path577" />
      <path
         inkscape:connector-curvature="0"
         style="fill:#6bc4ee"
         d="m 577.77,671.926 c 2.967,-0.506 4.836,-1.645 5.617,-3.426 0.508,-1.145 0.297,-1.988 -0.648,-2.482 -0.926,-0.473 -1.881,-0.395 -2.891,0.256 -1.043,0.656 -2.384,1.783 -4.019,3.352 -1.724,1.377 -3.972,2.412 -6.755,3.109 2.824,-0.016 5.718,-0.292 8.696,-0.809"
         id="path579" />
      <path
         inkscape:connector-curvature="0"
         style="fill:#eddd00"
         d="m 568.956,672.846 0.11,-0.053 c 2.723,-0.814 5.025,-1.625 6.894,-2.445 3.552,-1.566 5.489,-3.303 5.802,-5.229 0.203,-1.279 -0.207,-2.033 -1.259,-2.293 -1.003,-0.223 -1.918,0.107 -2.739,0.98 -1.238,1.83 -2.25,3.252 -3.01,4.264 -1.34,1.782 -3.274,3.366 -5.798,4.776"
         id="path581" />
      <path
         inkscape:connector-curvature="0"
         style="fill:#f0d5e6"
         d="m 562.252,675.199 c -3.546,1.574 -5.494,3.32 -5.814,5.258 -0.17,1.248 0.252,1.994 1.262,2.25 1.031,0.236 1.945,-0.07 2.746,-0.967 0.837,-0.902 1.834,-2.312 2.998,-4.234 1.351,-1.793 3.272,-3.389 5.798,-4.779 l -0.076,0.025 c -0.752,0.137 -3.064,0.961 -6.914,2.447"
         id="path583" />
      <path
         inkscape:connector-curvature="0"
         style="fill:#e27c9f"
         d="m 647.979,644.355 c 2.146,3.16 1.612,5.92 -1.584,8.277 -12.321,-4.26 -24.685,-6.186 -37.079,-5.775 0.062,-3.041 0.877,-5.834 2.439,-8.393 12.827,-0.446 24.896,1.528 36.224,5.891"
         id="path585" />
      <path
         inkscape:connector-curvature="0"
         style="fill:none;stroke:#c4084a;stroke-width:2.352;stroke-linecap:round;stroke-linejoin:round;stroke-miterlimit:10"
         d="m 611.756,638.465 c 12.826,-0.447 24.896,1.527 36.224,5.891 2.146,3.16 1.612,5.92 -1.584,8.277 -12.321,-4.26 -24.685,-6.186 -37.079,-5.775"
         id="path587" />
      <path
         inkscape:connector-curvature="0"
         style="fill:#c4084a"
         d="m 600.341,653.18 2.1,-1.729 c 2.263,1.404 4.37,1.184 6.336,-0.676 -0.002,-0.014 -0.002,-0.014 0.013,-0.016 1.423,-1.268 2.63,-3.301 3.627,-6.07 l 0.697,2.115 c 0.202,2.012 -0.66,3.932 -2.602,5.742 -0.014,0.02 -0.014,0.02 -0.027,0.02 -3.083,2.914 -6.387,3.189 -9.896,0.818 -0.015,-0.013 -0.098,-0.075 -0.248,-0.204"
         id="path589" />
      <path
         inkscape:connector-curvature="0"
         style="fill:#e27c9f"
         d="m 603.648,650.518 c 0.186,0.154 0.37,0.307 0.554,0.461 l 0.728,-0.686 -0.406,-0.627 c -2.591,-3.461 -5.985,-5.023 -10.196,-4.686 -0.139,-1.025 -0.097,-1.777 0.162,-2.234 0.382,-0.674 1.113,-1.199 2.225,-1.58 l 0.789,-0.301 0.063,-0.959 c -0.015,-1.947 1.645,-3.139 4.94,-3.586 l 0.353,-0.057 0.301,-0.242 c 1.81,-1.547 3.647,-2.117 5.533,-1.693 2.456,0.543 4.626,2.178 6.542,4.926 l 1.54,2.369 -4.359,3.066 c -0.996,2.77 -2.204,4.803 -3.627,6.07 -0.015,0.002 -0.015,0.002 -0.013,0.016 -1.966,1.859 -4.073,2.08 -6.336,0.676 l 1.207,-0.933 z"
         id="path591" />
      <path
         inkscape:connector-curvature="0"
         style="fill:#c4084a"
         d="m 604.202,650.979 c -0.184,-0.154 -0.368,-0.307 -0.554,-0.461 -4.824,-3.445 -8.329,-4.439 -10.479,-2.969 l -0.798,-1.254 c -0.748,-1.801 -0.802,-3.334 -0.188,-4.58 0.457,-1.064 1.402,-1.922 2.828,-2.547 0.105,-2.811 2.358,-4.543 6.768,-5.225 2.429,-2.002 4.946,-2.668 7.538,-2.004 2.459,0.559 5.285,2.906 8.487,7.059 -1.377,0.174 -2.238,0.262 -2.568,0.256 -1.916,-2.748 -4.086,-4.381 -6.542,-4.926 -1.886,-0.424 -3.724,0.146 -5.533,1.693 l -0.301,0.242 -0.354,0.057 c -3.295,0.447 -4.953,1.639 -4.938,3.586 l -0.063,0.959 -0.789,0.301 c -1.111,0.381 -1.843,0.906 -2.225,1.582 -0.259,0.455 -0.301,1.209 -0.162,2.232 4.211,-0.338 7.605,1.227 10.196,4.686 l 0.406,0.627 -0.728,0.688 v -0.002 z"
         id="path593" />
      <path
         inkscape:connector-curvature="0"
         style="fill:#84539c"
         d="m 662.642,560.18 c -1.034,-3.021 -2.764,-5.617 -5.179,-7.787 -5.833,-5.234 -14.239,-7.018 -25.199,-5.34 l -4.464,0.621 c -1.693,0.221 -2.972,0.354 -3.817,0.414 -0.959,0.098 -2.04,0.146 -3.282,0.141 -0.972,0.006 -1.949,-0.047 -2.898,-0.188 -0.864,-0.096 -1.719,-0.277 -2.561,-0.52 -0.841,-0.254 -1.643,-0.564 -2.419,-0.93 -0.747,-0.377 -1.525,-0.83 -2.336,-1.367 -0.713,-0.473 -1.513,-1.08 -2.391,-1.834 -0.803,-0.684 -1.646,-1.463 -2.565,-2.346 -0.966,-0.947 -1.914,-1.922 -2.827,-2.924 l -1.162,-1.232 c -0.55,-0.658 -0.896,-1.012 -1.02,-1.078 -0.151,-0.084 -0.327,-0.111 -0.541,-0.086 -0.073,0.002 -0.257,0.211 -0.546,0.613 -0.265,0.346 -0.477,0.639 -0.64,0.896 -0.319,0.502 -0.774,1.266 -1.337,2.264 -0.556,1.031 -1.062,2.025 -1.5,2.986 -0.455,0.957 -0.963,2.16 -1.523,3.592 -0.522,1.365 -0.979,2.727 -1.399,4.109 -0.419,1.396 -0.794,2.875 -1.11,4.451 -0.316,1.488 -0.555,3.064 -0.703,4.699 -0.153,1.604 -0.201,3.195 -0.132,4.791 0.056,1.594 0.26,3.195 0.582,4.803 0.378,1.631 0.864,3.156 1.478,4.617 0.7,1.58 1.543,3.031 2.541,4.342 1.075,1.477 2.31,2.797 3.704,3.965 1.393,1.197 3.076,2.32 5.044,3.371 0.807,0.461 1.793,0.934 2.938,1.418 1.469,0.627 2.217,1.168 2.264,1.623 0.087,0.656 -0.625,1.271 -2.148,1.818 -2.047,0.744 -3.216,1.213 -3.473,1.424 -1.859,1.418 -1.049,2.879 2.403,4.35 3.594,1.525 8.472,2.314 14.621,2.371 2.103,0.012 4.674,-0.35 7.681,-1.102 0.128,-0.143 0.276,-0.238 0.475,-0.268 0.577,-0.145 1.142,-0.309 1.723,-0.482 13.089,-3.768 23.231,-11.375 30.433,-22.805 0.238,-0.365 0.465,-0.748 0.694,-1.145 0.091,-0.104 0.181,-0.195 0.271,-0.285 0.54,-1.211 0.892,-2.365 1.068,-3.459 0.457,-2.851 0.214,-5.685 -0.748,-8.501"
         id="path595" />
      <path
         inkscape:connector-curvature="0"
         style="fill:none;stroke:#652182;stroke-width:2.3599999;stroke-linecap:round;stroke-linejoin:round;stroke-miterlimit:10"
         d="m 657.463,552.393 c -5.833,-5.234 -14.239,-7.018 -25.199,-5.34 l -4.464,0.621 c -1.693,0.221 -2.972,0.354 -3.817,0.414 -0.959,0.098 -2.041,0.146 -3.282,0.141 -0.972,0.006 -1.949,-0.047 -2.898,-0.188 -0.864,-0.096 -1.719,-0.277 -2.561,-0.52 -0.841,-0.254 -1.643,-0.564 -2.419,-0.93 -0.747,-0.377 -1.525,-0.83 -2.336,-1.367 -0.713,-0.473 -1.513,-1.08 -2.391,-1.834 -0.803,-0.684 -1.646,-1.463 -2.565,-2.346 -0.966,-0.947 -1.914,-1.922 -2.827,-2.924 l -1.162,-1.232 c -0.55,-0.658 -0.896,-1.012 -1.02,-1.078 -0.151,-0.084 -0.327,-0.111 -0.541,-0.086 -0.073,0.002 -0.257,0.211 -0.546,0.613 -0.265,0.346 -0.477,0.639 -0.64,0.896 -0.319,0.502 -0.774,1.266 -1.337,2.264 -0.556,1.031 -1.062,2.025 -1.5,2.986 -0.455,0.957 -0.963,2.16 -1.523,3.592 -0.521,1.365 -0.979,2.727 -1.399,4.109 -0.419,1.396 -0.794,2.875 -1.11,4.451 -0.315,1.488 -0.555,3.064 -0.703,4.699 -0.153,1.604 -0.201,3.195 -0.132,4.791 0.056,1.594 0.26,3.195 0.582,4.803 0.378,1.631 0.864,3.156 1.479,4.617 0.699,1.58 1.541,3.031 2.54,4.342 1.075,1.477 2.31,2.797 3.704,3.965 1.393,1.197 3.076,2.32 5.044,3.371 0.807,0.461 1.793,0.934 2.938,1.418 1.469,0.627 2.217,1.168 2.264,1.623 0.087,0.656 -0.625,1.271 -2.148,1.818 -2.047,0.744 -3.216,1.213 -3.473,1.424 -1.859,1.418 -1.049,2.879 2.403,4.35 3.594,1.525 8.472,2.314 14.621,2.371 2.103,0.012 4.674,-0.35 7.681,-1.102 0.128,-0.143 0.276,-0.238 0.475,-0.268 0.577,-0.145 1.142,-0.309 1.723,-0.482 13.089,-3.768 23.231,-11.375 30.433,-22.805 0.238,-0.365 0.465,-0.748 0.694,-1.145 0.091,-0.104 0.181,-0.195 0.271,-0.285 0.541,-1.211 0.892,-2.365 1.068,-3.459 0.46,-2.854 0.218,-5.688 -0.745,-8.504 -1.038,-3.019 -2.767,-5.615 -5.182,-7.784 z"
         id="path597" />
      <path
         inkscape:connector-curvature="0"
         style="fill:#fcdf00"
         d="m 649.821,569.76 c -1.81,0.199 -3.463,0.812 -4.958,1.826 -1.526,1.023 -2.298,2.094 -2.344,3.207 -0.575,-2.26 -1.839,-3.602 -3.807,-3.994 -1.789,-0.393 -3.621,0.025 -5.489,1.232 -1.918,1.227 -3.134,2.824 -3.645,4.789 -0.561,2.256 0.006,4.469 1.73,6.648 -1.077,0.004 -2.283,0.541 -3.607,1.596 -1.389,1.105 -2.344,2.387 -2.863,3.842 -1.305,3.629 0.616,6.436 5.782,8.408 0.002,-0.016 0.02,-0.027 0.033,-0.025 0.188,0.031 0.426,0.055 0.678,0.051 0.255,-0.002 0.525,-0.004 0.781,-0.023 1.816,0.52 3.768,0.373 5.868,-0.422 1.576,-0.598 3.081,-1.311 4.531,-2.137 1.896,-0.904 3.711,-2.059 5.431,-3.453 4.52,-3.631 7.34,-8.225 8.48,-13.779 0.201,-0.971 0.181,-1.75 -0.066,-2.342 -0.043,-1.965 -0.631,-3.406 -1.782,-4.324 -1.157,-0.965 -2.743,-1.327 -4.753,-1.1"
         id="path599" />
      <path
         inkscape:connector-curvature="0"
         style="fill:#7f519b"
         d="m 696.357,565.641 c 1.937,-2.541 4.398,-4.457 7.374,-5.754 7.188,-3.125 15.728,-2.158 25.595,2.891 l 4.041,2.002 c 1.537,0.74 2.707,1.275 3.49,1.596 0.878,0.396 1.892,0.785 3.069,1.17 0.918,0.314 1.865,0.57 2.81,0.738 0.854,0.184 1.717,0.281 2.593,0.316 0.878,0.025 1.736,-0.016 2.589,-0.119 0.829,-0.117 1.711,-0.305 2.647,-0.555 0.829,-0.227 1.777,-0.549 2.849,-0.988 0.977,-0.395 2.025,-0.867 3.174,-1.414 1.218,-0.596 2.426,-1.223 3.608,-1.883 l 1.489,-0.803 c 0.73,-0.451 1.174,-0.678 1.31,-0.699 0.17,-0.033 0.345,-0.006 0.541,0.086 0.069,0.027 0.177,0.283 0.325,0.756 0.143,0.412 0.251,0.758 0.321,1.055 0.146,0.576 0.334,1.443 0.554,2.568 0.204,1.154 0.368,2.258 0.483,3.307 0.125,1.053 0.23,2.355 0.31,3.893 0.062,1.459 0.07,2.895 0.029,4.338 -0.043,1.457 -0.153,2.979 -0.354,4.576 -0.171,1.512 -0.44,3.082 -0.817,4.68 -0.358,1.57 -0.817,3.096 -1.388,4.588 -0.556,1.492 -1.255,2.949 -2.065,4.371 -0.877,1.428 -1.817,2.725 -2.864,3.916 -1.163,1.275 -2.418,2.389 -3.78,3.318 -1.487,1.059 -3.075,1.922 -4.769,2.588 -1.697,0.697 -3.651,1.234 -5.85,1.609 -0.91,0.18 -1.993,0.318 -3.234,0.416 -1.591,0.133 -2.477,0.406 -2.659,0.824 -0.293,0.596 0.188,1.406 1.463,2.404 1.709,1.354 2.667,2.166 2.845,2.449 1.315,1.932 0.086,3.061 -3.653,3.369 -3.893,0.311 -8.77,-0.48 -14.62,-2.371 -2.001,-0.652 -4.325,-1.807 -6.94,-3.471 -0.077,-0.178 -0.189,-0.314 -0.368,-0.404 -0.5,-0.318 -0.984,-0.652 -1.482,-1 -11.229,-7.709 -18.447,-18.129 -21.671,-31.252 -0.111,-0.422 -0.204,-0.855 -0.297,-1.303 -0.055,-0.129 -0.11,-0.242 -0.166,-0.355 -0.13,-1.32 -0.1,-2.527 0.077,-3.619 0.462,-2.856 1.588,-5.467 3.391,-7.834"
         id="path601" />
      <path
         inkscape:connector-curvature="0"
         style="fill:none;stroke:#652182;stroke-width:2.3599999;stroke-linecap:round;stroke-linejoin:round;stroke-miterlimit:10"
         d="m 703.731,559.887 c 7.188,-3.125 15.728,-2.158 25.595,2.891 l 4.041,2.002 c 1.537,0.74 2.707,1.275 3.49,1.596 0.878,0.396 1.892,0.785 3.069,1.17 0.918,0.314 1.866,0.57 2.81,0.738 0.854,0.184 1.717,0.281 2.593,0.316 0.878,0.025 1.736,-0.016 2.589,-0.119 0.829,-0.117 1.712,-0.305 2.647,-0.555 0.829,-0.227 1.777,-0.549 2.849,-0.988 0.977,-0.395 2.025,-0.867 3.175,-1.414 1.217,-0.596 2.425,-1.223 3.607,-1.883 l 1.489,-0.803 c 0.73,-0.451 1.174,-0.678 1.31,-0.699 0.17,-0.033 0.345,-0.006 0.541,0.086 0.069,0.027 0.178,0.283 0.325,0.756 0.142,0.412 0.251,0.76 0.321,1.055 0.146,0.576 0.334,1.443 0.554,2.568 0.204,1.154 0.368,2.258 0.483,3.307 0.125,1.053 0.23,2.355 0.31,3.893 0.062,1.459 0.07,2.895 0.029,4.338 -0.043,1.457 -0.153,2.979 -0.354,4.576 -0.171,1.512 -0.44,3.082 -0.817,4.68 -0.358,1.57 -0.817,3.096 -1.388,4.588 -0.556,1.492 -1.255,2.949 -2.065,4.371 -0.877,1.428 -1.817,2.725 -2.864,3.916 -1.163,1.275 -2.418,2.389 -3.78,3.318 -1.487,1.059 -3.075,1.922 -4.769,2.588 -1.697,0.697 -3.651,1.234 -5.849,1.609 -0.911,0.18 -1.994,0.318 -3.235,0.416 -1.591,0.133 -2.476,0.406 -2.659,0.824 -0.293,0.596 0.188,1.406 1.463,2.404 1.709,1.354 2.667,2.166 2.846,2.449 1.314,1.932 0.086,3.061 -3.654,3.369 -3.893,0.311 -8.77,-0.48 -14.62,-2.371 -2.001,-0.652 -4.325,-1.805 -6.94,-3.471 -0.076,-0.178 -0.189,-0.314 -0.369,-0.404 -0.499,-0.318 -0.983,-0.652 -1.481,-1 -11.229,-7.709 -18.447,-18.129 -21.671,-31.252 -0.111,-0.422 -0.204,-0.855 -0.297,-1.303 -0.055,-0.129 -0.11,-0.242 -0.166,-0.355 -0.13,-1.32 -0.1,-2.527 0.077,-3.619 0.463,-2.854 1.589,-5.467 3.393,-7.834 1.935,-2.541 4.397,-4.457 7.372,-5.754 z"
         id="path603" />
      <path
         inkscape:connector-curvature="0"
         style="fill:#fcdf00"
         d="m 705.496,578.779 c 1.656,0.762 3.032,1.865 4.129,3.299 1.125,1.451 1.518,2.713 1.208,3.783 1.261,-1.963 2.881,-2.836 4.875,-2.59 1.823,0.193 3.427,1.17 4.82,2.902 1.432,1.773 2.079,3.672 1.946,5.697 -0.183,2.316 -1.42,4.24 -3.743,5.76 1.021,0.346 1.995,1.236 2.918,2.656 0.969,1.486 1.471,3.002 1.505,4.547 0.092,3.855 -2.619,5.914 -8.144,6.154 0.005,-0.016 -0.01,-0.031 -0.022,-0.033 -0.19,-0.033 -0.421,-0.086 -0.661,-0.168 -0.24,-0.084 -0.496,-0.17 -0.732,-0.268 -1.886,-0.082 -3.689,-0.838 -5.435,-2.256 -1.308,-1.062 -2.51,-2.217 -3.622,-3.457 -1.515,-1.457 -2.872,-3.125 -4.064,-4.992 -3.141,-4.875 -4.367,-10.123 -3.693,-15.752 0.113,-0.984 0.383,-1.717 0.804,-2.203 0.66,-1.852 1.674,-3.031 3.057,-3.539 1.401,-0.549 3.019,-0.389 4.854,0.46"
         id="path605" />
      <path
         inkscape:connector-curvature="0"
         style="fill:#c4084a"
         d="m 715.538,610.615 c -0.207,-1.303 -0.472,-2.619 -0.8,-3.924 -1.392,-5.428 -3.795,-10.422 -7.196,-14.979 -2.762,-3.719 -5.943,-6.863 -9.525,-9.463 -5.823,-4.277 -12.722,-7.084 -20.691,-8.434 -7.522,-1.266 -14.497,-0.93 -20.903,0.975 -4.566,1.354 -8.832,3.516 -12.83,6.498 -5.704,4.219 -9.994,9.395 -12.891,15.547 -1.15,2.398 -2.06,4.973 -2.743,7.717 l -0.734,3.049 -1.605,-0.23 c -0.571,-0.078 -1.146,-0.127 -1.738,-0.162 -5.418,-0.414 -8.238,0.771 -8.467,3.559 -0.39,1.297 -0.023,3.285 1.094,5.977 0.982,2.416 2.332,4.697 4.027,6.869 l -0.005,0.031 c 2.779,3.512 5.705,5.84 8.769,6.949 1.362,3.105 3.22,6.035 5.537,8.787 l 0.025,0.035 c 7.175,8.561 17.519,13.629 31.012,15.217 13.211,1.559 24.218,-0.332 32.995,-5.711 2.787,-1.699 5.242,-3.662 7.383,-5.887 3.196,-0.096 6.663,-1.371 10.361,-3.82 l 0.004,-0.029 c 2.294,-1.527 4.311,-3.262 6.021,-5.24 1.897,-2.205 2.854,-3.977 2.896,-5.332 0.665,-2.715 -1.639,-4.732 -6.882,-6.047 -1.046,-0.273 -2.046,-0.465 -2.98,-0.602 0.484,-3.822 0.439,-7.61 -0.134,-11.35 m -2.008,9.807 0.027,0.006 c -0.027,0.459 -0.069,0.898 -0.128,1.354 -0.078,0.57 -0.144,1.158 -0.226,1.756 -0.028,0.176 -0.038,0.338 -0.018,0.477 0.16,0.025 0.323,0.037 0.5,0.051 0.073,-0.004 0.163,0.012 0.229,0.068 0.277,0.029 0.546,0.043 0.798,0.037 0.075,0.014 0.163,0.014 0.239,0.01 l -0.003,0.029 c 0.982,0.1 2.029,0.283 3.135,0.568 3.606,0.898 5.322,2.104 5.157,3.586 -0.103,1 -0.889,2.352 -2.362,4.068 -1.566,1.826 -3.413,3.439 -5.538,4.844 -3.662,2.41 -7.02,3.568 -10.093,3.443 -2.136,2.389 -4.67,4.461 -7.583,6.215 -8.401,5.096 -18.917,6.902 -31.543,5.41 -12.833,-1.498 -22.665,-6.318 -29.521,-14.439 -2.422,-2.857 -4.287,-5.926 -5.596,-9.186 -3.032,-0.852 -5.924,-3.023 -8.658,-6.516 -1.574,-2.002 -2.813,-4.115 -3.725,-6.342 -0.858,-2.096 -1.177,-3.629 -0.958,-4.607 0.312,-1.459 2.32,-2.062 6.028,-1.775 0.398,0.021 0.78,0.068 1.174,0.131 0.884,0.07 1.763,0.184 2.629,0.367 0.688,0.096 1.324,0.229 1.909,0.398 l 0.12,-1.115 c 0.07,-0.707 0.153,-1.41 0.225,-2.117 0.108,-0.951 0.324,-1.904 0.642,-2.854 2.44,-8.707 7.307,-15.764 14.577,-21.16 9.119,-6.758 19.781,-9.094 31.957,-7.047 12.236,2.059 21.838,7.738 28.779,17.008 3.231,4.305 5.485,9.037 6.791,14.162 1.089,4.346 1.439,8.736 1.036,13.17"
         id="path607" />
      <path
         inkscape:connector-curvature="0"
         style="fill:#e27c9f"
         d="m 713.558,620.428 -0.027,-0.006 c 0.402,-4.432 0.053,-8.824 -1.035,-13.17 -1.305,-5.125 -3.559,-9.857 -6.791,-14.162 -6.94,-9.27 -16.543,-14.949 -28.777,-17.008 -12.177,-2.047 -22.839,0.289 -31.958,7.047 -7.271,5.396 -12.137,12.453 -14.577,21.16 -0.317,0.951 -0.533,1.902 -0.642,2.854 -0.071,0.707 -0.154,1.41 -0.225,2.117 l -0.12,1.115 c -0.585,-0.17 -1.222,-0.301 -1.91,-0.398 -0.865,-0.184 -1.744,-0.297 -2.628,-0.367 -0.394,-0.062 -0.775,-0.109 -1.174,-0.131 -3.708,-0.285 -5.717,0.316 -6.029,1.775 -0.218,0.98 0.101,2.512 0.959,4.607 0.911,2.227 2.15,4.34 3.725,6.342 2.734,3.492 5.626,5.664 8.658,6.516 1.309,3.26 3.174,6.328 5.596,9.188 6.856,8.119 16.688,12.939 29.521,14.438 12.626,1.492 23.142,-0.314 31.543,-5.41 2.912,-1.754 5.447,-3.826 7.582,-6.215 3.074,0.125 6.432,-1.033 10.094,-3.443 2.125,-1.404 3.972,-3.018 5.538,-4.844 1.474,-1.717 2.26,-3.066 2.362,-4.066 0.165,-1.484 -1.551,-2.689 -5.157,-3.588 -1.105,-0.285 -2.152,-0.469 -3.135,-0.568 l 0.003,-0.029 c -0.076,0.004 -0.164,0.004 -0.239,-0.01 -0.252,0.006 -0.521,-0.008 -0.798,-0.037 -0.066,-0.057 -0.155,-0.072 -0.229,-0.068 -0.177,-0.014 -0.34,-0.025 -0.5,-0.051 -0.021,-0.139 -0.013,-0.301 0.017,-0.477 0.083,-0.598 0.148,-1.186 0.227,-1.756 0.056,-0.457 0.098,-0.896 0.126,-1.355"
         id="path609" />
      <path
         inkscape:connector-curvature="0"
         style="fill:#a682b9"
         d="m 706.104,633.775 c -0.205,0.162 -0.33,0.379 -0.37,0.627 -0.046,0.275 0.006,0.51 0.152,0.711 0.162,0.209 0.379,0.334 0.63,0.373 0.277,0.043 0.508,-0.008 0.712,-0.154 0.203,-0.148 0.326,-0.35 0.368,-0.627 0.042,-0.248 -0.007,-0.496 -0.151,-0.713 -0.146,-0.203 -0.352,-0.326 -0.627,-0.369 -0.247,-0.043 -0.495,0.008 -0.714,0.152"
         id="path611" />
      <path
         inkscape:connector-curvature="0"
         style="fill:#a682b9"
         d="m 705.687,631.377 c 0.221,-0.158 0.361,-0.375 0.4,-0.623 0.038,-0.248 -0.023,-0.496 -0.184,-0.719 -0.146,-0.203 -0.349,-0.324 -0.599,-0.365 -0.275,-0.043 -0.508,0.008 -0.712,0.156 -0.22,0.156 -0.359,0.375 -0.399,0.621 -0.041,0.248 0.025,0.496 0.182,0.717 0.146,0.203 0.352,0.324 0.629,0.373 0.245,0.037 0.479,-0.014 0.683,-0.16"
         id="path613" />
      <path
         inkscape:connector-curvature="0"
         style="fill:#a682b9"
         d="m 702.183,632.902 c -0.104,-0.018 -0.192,-0.018 -0.304,0.01 -0.136,0.023 -0.28,0.072 -0.413,0.172 -0.202,0.145 -0.326,0.35 -0.373,0.629 -0.025,0.158 -0.005,0.309 0.047,0.455 0.033,0.078 0.065,0.158 0.112,0.227 0.159,0.221 0.375,0.357 0.621,0.398 0.248,0.041 0.485,-0.025 0.69,-0.186 0.217,-0.145 0.355,-0.348 0.395,-0.596 0.042,-0.246 -0.024,-0.496 -0.183,-0.715 -0.144,-0.216 -0.345,-0.355 -0.592,-0.394"
         id="path615" />
      <path
         inkscape:connector-curvature="0"
         style="fill:#a682b9"
         d="m 635.79,622.439 c -0.223,0.158 -0.361,0.375 -0.4,0.623 -0.041,0.248 0.026,0.482 0.187,0.689 0.146,0.213 0.346,0.354 0.593,0.395 0.249,0.039 0.497,-0.025 0.72,-0.184 0.216,-0.145 0.353,-0.348 0.393,-0.594 0.042,-0.248 -0.023,-0.498 -0.182,-0.717 -0.145,-0.219 -0.348,-0.355 -0.623,-0.4 -0.249,-0.038 -0.483,0.028 -0.688,0.188"
         id="path617" />
      <path
         inkscape:connector-curvature="0"
         style="fill:#a682b9"
         d="m 635.343,619.289 c 0.041,-0.248 -0.024,-0.498 -0.183,-0.719 -0.146,-0.203 -0.351,-0.324 -0.6,-0.363 -0.275,-0.047 -0.508,0.006 -0.711,0.152 -0.221,0.16 -0.358,0.375 -0.399,0.623 -0.039,0.248 0.023,0.496 0.183,0.715 0.145,0.203 0.351,0.326 0.627,0.373 0.247,0.039 0.48,-0.012 0.684,-0.158 0.218,-0.158 0.36,-0.375 0.399,-0.623"
         id="path619" />
      <path
         inkscape:connector-curvature="0"
         style="fill:#a682b9"
         d="m 632.479,621.844 c -0.146,-0.203 -0.352,-0.326 -0.628,-0.373 -0.247,-0.039 -0.495,0.012 -0.713,0.156 -0.205,0.16 -0.329,0.379 -0.369,0.625 -0.047,0.279 0.006,0.512 0.152,0.713 0.161,0.207 0.38,0.332 0.628,0.371 0.275,0.045 0.509,-0.008 0.711,-0.154 0.205,-0.146 0.328,-0.35 0.371,-0.625 0.041,-0.248 -0.01,-0.496 -0.152,-0.713"
         id="path621" />
      <path
         inkscape:connector-curvature="0"
         style="fill:#da4d5d"
         d="m 674.375,626.332 c -1.047,-1.201 -2.42,-1.947 -4.123,-2.223 -1.692,-0.275 -3.216,0.002 -4.587,0.811 -1.369,0.793 -2.161,1.906 -2.391,3.318 -0.229,1.414 0.172,2.719 1.22,3.906 1.046,1.199 2.405,1.941 4.094,2.215 1.704,0.277 3.242,0.006 4.615,-0.805 1.369,-0.795 2.163,-1.906 2.393,-3.318 0.228,-1.414 -0.173,-2.716 -1.221,-3.904"
         id="path623" />
      <path
         inkscape:connector-curvature="0"
         style="fill:#5d1e80"
         d="m 695.644,580.258 c -4.638,-2.738 -9.459,-4.701 -14.458,-5.855 -5.027,-1.172 -10.021,-1.625 -14.994,-1.354 -5.503,0.289 -10.711,1.627 -15.654,4.008 -5.042,2.428 -9.375,5.654 -13.017,9.668 -3.657,4.025 -6.121,7.438 -7.369,10.254 -1.266,2.828 -2.163,5.596 -2.679,8.322 -0.492,2.566 -0.141,5.016 1.083,7.336 l 1.075,-3.041 c 0.799,-1.887 1.779,-3.699 2.916,-5.459 5.918,-9.129 13.373,-13.988 22.392,-14.59 1.83,3.914 4.387,7.139 7.654,9.656 l 1.151,0.934 0.639,-1.361 c 0.348,-0.768 0.745,-1.465 1.176,-2.098 1.727,4.84 4.537,8.434 8.414,10.779 l 0.447,0.297 0.506,-0.172 c 6.169,-1.824 10.56,-5.582 13.144,-11.305 0.106,0.928 0.174,1.881 0.209,2.857 l 0.114,2.545 1.86,-1.717 c 1.019,-0.926 2.125,-2.137 3.312,-3.646 8.791,4.861 14.972,12.736 18.545,23.613 0.238,0.74 0.476,1.498 0.693,2.266 l 0.952,4.443 c 0.742,-1.152 1.345,-2.473 1.785,-4.002 0.776,-3.025 1.039,-6.033 0.81,-9.045 -0.179,-2.314 -0.729,-5.094 -1.653,-8.336 -1.442,-5.031 -3.814,-9.75 -7.103,-14.186 -3.312,-4.464 -7.299,-8.069 -11.95,-10.811 m -6.886,7.912 -0.536,-0.014 -0.929,3.242 c -1.868,7.096 -6.05,11.693 -12.528,13.768 -3.686,-2.436 -6.214,-6.195 -7.618,-11.279 l -0.598,-2.023 -1.4,1.535 c -0.83,0.883 -1.563,1.898 -2.209,3.035 -2.63,-2.311 -4.692,-5.168 -6.188,-8.578 l -0.342,-0.76 -0.771,0.055 c -9.998,0.279 -18.28,5.555 -24.863,15.832 l -1.423,2.791 c 0.967,-3.299 1.898,-5.898 2.817,-7.795 1.285,-2.676 3.663,-5.908 7.097,-9.67 3.44,-3.793 7.55,-6.832 12.299,-9.127 4.653,-2.25 9.58,-3.5 14.751,-3.781 4.749,-0.246 9.535,0.186 14.33,1.307 4.781,1.104 9.38,2.969 13.798,5.584 4.38,2.592 8.13,5.994 11.247,10.191 3.102,4.193 5.352,8.67 6.734,13.422 0.864,3.053 1.394,5.682 1.56,7.875 l 0.017,0.002 c 0.102,1.404 0.081,2.822 -0.049,4.252 -3.955,-11.27 -10.683,-19.367 -20.185,-24.285 l -0.865,-0.469 -0.623,0.809 c -0.629,0.842 -1.248,1.607 -1.833,2.275 -0.182,-1.748 -0.48,-3.396 -0.886,-4.957 l -0.805,-3.238 v 10e-4 z"
         id="path625" />
      <path
         inkscape:connector-curvature="0"
         style="fill:#7f519b"
         d="m 688.222,588.156 0.536,0.014 0.805,3.236 c 0.405,1.561 0.707,3.209 0.886,4.957 0.585,-0.668 1.204,-1.434 1.833,-2.275 l 0.624,-0.809 0.867,0.469 c 9.499,4.918 16.227,13.016 20.182,24.285 0.13,-1.43 0.15,-2.848 0.049,-4.252 l -0.016,-0.002 c -0.167,-2.193 -0.696,-4.822 -1.561,-7.875 -1.383,-4.752 -3.633,-9.227 -6.734,-13.422 -3.116,-4.197 -6.866,-7.6 -11.246,-10.191 -4.419,-2.613 -9.018,-4.48 -13.799,-5.584 -4.795,-1.121 -9.581,-1.553 -14.33,-1.307 -5.171,0.281 -10.098,1.531 -14.751,3.781 -4.749,2.295 -8.858,5.334 -12.299,9.127 -3.434,3.762 -5.812,6.994 -7.097,9.67 -0.919,1.896 -1.85,4.496 -2.817,7.793 l 1.423,-2.789 c 6.583,-10.277 14.865,-15.553 24.863,-15.832 l 0.771,-0.055 0.342,0.76 c 1.495,3.41 3.558,6.268 6.188,8.578 0.646,-1.137 1.379,-2.152 2.209,-3.035 l 1.4,-1.535 0.598,2.023 c 1.404,5.084 3.933,8.844 7.618,11.279 6.478,-2.074 10.66,-6.672 12.528,-13.768 l 0.928,-3.241 z"
         id="path627" />
      <path
         inkscape:connector-curvature="0"
         style="fill:#d8272a"
         d="m 668.688,648.629 c 3.185,-0.418 6.007,-1.467 8.438,-3.156 -6.184,-4.219 -12.029,-6.322 -17.553,-6.307 -1.728,0.023 -3.328,0.248 -4.773,0.678 -0.733,0.221 -1.289,0.436 -1.656,0.645 3.924,6.284 9.104,8.993 15.544,8.14"
         id="path629" />
      <path
         inkscape:connector-curvature="0"
         style="fill:#ffffff"
         d="m 687.494,606.633 c -4.308,1.139 -7.605,3.504 -9.907,7.094 -2.284,3.59 -2.91,7.357 -1.858,11.295 1.039,3.904 3.448,6.838 7.241,8.797 3.791,1.959 7.838,2.361 12.138,1.188 4.31,-1.137 7.622,-3.5 9.922,-7.088 2.271,-3.594 2.894,-7.348 1.854,-11.27 -1.053,-3.92 -3.46,-6.867 -7.252,-8.828 -3.778,-1.956 -7.821,-2.356 -12.138,-1.188"
         id="path631" />
      <path
         inkscape:connector-curvature="0"
         style="fill:#ffffff"
         d="m 647.208,599.326 c -4.218,0.662 -7.432,2.695 -9.67,6.086 -2.224,3.391 -2.817,7.15 -1.797,11.277 1.05,4.131 3.445,7.416 7.175,9.859 3.71,2.469 7.676,3.367 11.892,2.703 4.217,-0.66 7.429,-2.682 9.648,-6.059 2.24,-3.402 2.838,-7.176 1.803,-11.303 -1.049,-4.133 -3.431,-7.416 -7.16,-9.859 -3.723,-2.469 -7.689,-3.368 -11.891,-2.704"
         id="path633" />
      <path
         inkscape:connector-curvature="0"
         style="fill:#ffffff"
         d="m 706.969,616.605 c -1.047,-3.951 -3.479,-6.916 -7.287,-8.895 -3.804,-1.975 -7.879,-2.365 -12.207,-1.199 -4.327,1.152 -7.657,3.527 -9.977,7.141 -2.305,3.617 -2.919,7.404 -1.87,11.354 1.052,3.938 3.487,6.887 7.292,8.865 3.805,1.975 7.881,2.369 12.21,1.201 4.326,-1.152 7.655,-3.527 9.975,-7.143 2.305,-3.615 2.916,-7.386 1.864,-11.324"
         id="path635" />
      <path
         inkscape:connector-curvature="0"
         style="fill:#0e5cab"
         d="m 691.652,618.605 c -1.187,-2.18 -2.953,-3.633 -5.335,-4.332 -2.354,-0.695 -4.618,-0.465 -6.783,0.725 -2.166,1.188 -3.604,2.957 -4.298,5.311 -0.697,2.354 -0.468,4.631 0.689,6.809 1.188,2.162 2.959,3.602 5.311,4.299 2.385,0.697 4.648,0.467 6.81,-0.691 2.165,-1.189 3.603,-2.959 4.302,-5.34 0.696,-2.355 0.465,-4.618 -0.696,-6.781 m -4.372,-0.498 c 1.325,0.945 2.104,2.238 2.337,3.844 0.261,1.611 -0.097,3.08 -1.072,4.4 -0.948,1.326 -2.238,2.102 -3.848,2.336 -1.61,0.262 -3.076,-0.096 -4.396,-1.07 -1.297,-0.943 -2.075,-2.234 -2.338,-3.848 -0.233,-1.607 0.125,-3.072 1.072,-4.398 0.941,-1.299 2.233,-2.074 3.848,-2.336 1.603,-0.232 3.073,0.125 4.397,1.072"
         id="path637" />
      <path
         inkscape:connector-curvature="0"
         style="fill:#080101"
         d="m 689.617,621.951 c -0.233,-1.604 -1.012,-2.898 -2.337,-3.844 -1.324,-0.947 -2.794,-1.305 -4.397,-1.072 -1.614,0.262 -2.906,1.037 -3.848,2.336 -0.947,1.326 -1.306,2.791 -1.072,4.398 0.263,1.613 1.041,2.904 2.338,3.848 1.32,0.975 2.786,1.332 4.396,1.07 1.609,-0.234 2.898,-1.01 3.848,-2.336 0.976,-1.32 1.333,-2.789 1.072,-4.4"
         id="path639" />
      <path
         inkscape:connector-curvature="0"
         style="fill:#ffffff"
         d="m 688.239,621.221 c -0.082,-0.506 -0.327,-0.936 -0.753,-1.256 -0.427,-0.311 -0.899,-0.432 -1.436,-0.354 -0.539,0.078 -0.966,0.336 -1.291,0.777 -0.311,0.426 -0.416,0.902 -0.325,1.441 0.077,0.535 0.325,0.949 0.752,1.258 0.443,0.311 0.931,0.434 1.439,0.352 0.535,-0.078 0.965,-0.336 1.29,-0.777 0.31,-0.428 0.417,-0.904 0.324,-1.441"
         id="path641" />
      <path
         inkscape:connector-curvature="0"
         style="fill:#ffffff"
         d="m 666.344,611.846 c -1.058,-4.164 -3.468,-7.467 -7.209,-9.928 -3.738,-2.473 -7.729,-3.389 -11.962,-2.715 -4.234,0.674 -7.48,2.719 -9.724,6.137 -2.24,3.4 -2.852,7.176 -1.806,11.334 1.057,4.162 3.466,7.467 7.207,9.926 3.74,2.475 7.73,3.391 11.963,2.715 4.235,-0.674 7.479,-2.703 9.72,-6.105 2.24,-3.419 2.856,-7.204 1.811,-11.364"
         id="path643" />
      <path
         inkscape:connector-curvature="0"
         style="fill:#0e5cab"
         d="m 653.381,613.264 c -1.186,-2.18 -2.954,-3.633 -5.335,-4.334 -2.354,-0.693 -4.617,-0.463 -6.784,0.725 -2.164,1.189 -3.601,2.957 -4.298,5.312 -0.696,2.354 -0.466,4.631 0.689,6.805 1.189,2.168 2.96,3.605 5.312,4.299 2.382,0.701 4.646,0.471 6.811,-0.688 2.162,-1.189 3.6,-2.959 4.301,-5.342 0.694,-2.353 0.463,-4.617 -0.696,-6.777 m -4.372,-0.502 c 1.324,0.949 2.102,2.24 2.335,3.848 0.263,1.611 -0.095,3.078 -1.07,4.398 -0.949,1.328 -2.24,2.104 -3.848,2.338 -1.61,0.26 -3.077,-0.098 -4.398,-1.072 -1.297,-0.943 -2.075,-2.234 -2.335,-3.848 -0.234,-1.605 0.124,-3.072 1.07,-4.396 0.944,-1.299 2.235,-2.074 3.847,-2.338 1.606,-0.235 3.072,0.124 4.399,1.07"
         id="path645" />
      <path
         inkscape:connector-curvature="0"
         style="fill:#080101"
         d="m 651.344,616.609 c -0.233,-1.607 -1.011,-2.898 -2.335,-3.848 -1.327,-0.945 -2.793,-1.305 -4.399,-1.07 -1.611,0.264 -2.902,1.039 -3.847,2.338 -0.946,1.324 -1.305,2.791 -1.07,4.396 0.26,1.613 1.038,2.904 2.335,3.848 1.321,0.975 2.788,1.332 4.398,1.072 1.607,-0.234 2.898,-1.01 3.848,-2.338 0.975,-1.319 1.332,-2.786 1.07,-4.398"
         id="path647" />
      <path
         inkscape:connector-curvature="0"
         style="fill:#ffffff"
         d="m 649.968,615.879 c -0.082,-0.508 -0.326,-0.938 -0.754,-1.258 -0.427,-0.309 -0.898,-0.432 -1.435,-0.352 -0.538,0.076 -0.966,0.334 -1.293,0.775 -0.309,0.43 -0.416,0.904 -0.323,1.441 0.078,0.537 0.324,0.951 0.75,1.26 0.445,0.309 0.933,0.434 1.439,0.352 0.535,-0.078 0.97,-0.338 1.293,-0.777 0.307,-0.427 0.416,-0.904 0.323,-1.441"
         id="path649" />
      <path
         inkscape:connector-curvature="0"
         style="fill:#3793d1"
         d="m 687.484,606.461 c -0.298,0.086 -0.577,0.158 -0.86,0.25 8.557,1.596 14.081,4.865 16.567,9.812 1.004,4.033 0.71,8.812 -0.89,14.336 l 1.395,-0.863 c 0.549,-0.611 1.045,-1.279 1.505,-1.998 2.309,-3.631 2.938,-7.43 1.874,-11.383 -1.058,-3.982 -3.502,-6.965 -7.321,-8.941 -3.819,-1.981 -7.911,-2.375 -12.27,-1.213"
         id="path651" />
      <path
         inkscape:connector-curvature="0"
         style="fill:#3793d1"
         d="m 635.289,610.391 c -0.023,0.146 -0.048,0.289 -0.072,0.438 -0.287,1.867 -0.171,3.828 0.347,5.883 0.208,0.842 0.48,1.648 0.816,2.436 -0.256,-3.105 0.367,-5.949 1.842,-8.504 0.024,-0.055 0.063,-0.109 0.087,-0.15 1.113,-1.896 2.694,-3.629 4.745,-5.227 0.222,-0.172 0.443,-0.344 0.68,-0.5 0.118,-0.084 0.234,-0.156 0.353,-0.242 4.663,-3.146 10.333,-3.539 17.022,-1.201 -0.604,-0.518 -1.244,-0.994 -1.932,-1.449 -3.768,-2.479 -7.775,-3.398 -12.023,-2.725 -0.139,0.021 -0.26,0.047 -0.385,0.072 -0.183,0.029 -0.353,0.062 -0.525,0.107 -3.806,0.805 -6.763,2.805 -8.861,5.992 -1.056,1.607 -1.763,3.3 -2.094,5.07"
         id="path653" />
      <path
         inkscape:connector-curvature="0"
         style="fill:#070101"
         d="m 683.075,608.213 c 4.229,-0.914 8.262,-0.246 12.063,2.016 3.819,2.248 6.3,5.488 7.439,9.693 0.586,2.215 0.682,4.473 0.297,6.758 -0.367,2.182 -1.191,4.215 -2.466,6.086 0.977,-0.588 2.013,-1.438 3.105,-2.559 1.009,-1.631 1.721,-3.25 2.114,-4.844 0.252,-1.006 0.372,-2.018 0.358,-3.051 2.632,-1.666 4.015,-3.281 4.145,-4.826 0.039,-0.324 -0.517,-0.398 -1.667,-0.213 -1.481,0.193 -2.376,0.273 -2.653,0.227 1.531,-2.068 2.104,-3.754 1.702,-5.059 -0.113,-0.408 -0.796,-0.262 -2.043,0.432 -0.636,0.328 -1.325,0.711 -2.062,1.115 0.396,-1.252 0.621,-2.275 0.69,-3.072 0.057,-0.453 0.01,-0.893 -0.129,-1.322 -0.147,-0.574 -0.425,-0.707 -0.814,-0.414 -1.207,0.986 -2.209,1.453 -3.014,1.426 -0.132,-0.006 -0.305,-0.037 -0.492,-0.094 -0.556,-0.438 -1.148,-0.83 -1.789,-1.217 -3.718,-2.219 -7.446,-3.121 -11.144,-2.703 -1.453,0.406 -2.675,0.939 -3.64,1.621"
         id="path655" />
      <path
         inkscape:connector-curvature="0"
         style="fill:#070101"
         d="m 648.406,601.277 c -0.651,0.15 -1.274,0.318 -1.879,0.533 l -0.164,0.092 -0.152,0.484 -0.502,0.428 -0.351,0.123 c -0.422,0.676 -0.992,1.332 -1.695,1.98 -0.302,0.295 -0.635,0.6 -0.989,0.945 -0.248,0.244 -0.566,0.447 -0.938,0.627 -0.342,0.527 -0.684,1.068 -0.998,1.631 -0.922,1.629 -2.17,2.605 -3.749,2.934 -0.139,0.037 -0.277,0.061 -0.414,0.068 -0.332,0.947 -0.537,1.93 -0.613,2.949 -0.132,1.639 0.033,3.396 0.478,5.264 0.683,1.41 1.386,2.525 2.117,3.359 -0.595,-2.145 -0.734,-4.316 -0.396,-6.504 0.355,-2.287 1.159,-4.4 2.411,-6.318 2.413,-3.631 5.79,-5.922 10.122,-6.848 4.323,-0.943 8.309,-0.357 11.957,1.742 -0.625,-0.848 -1.525,-1.652 -2.702,-2.41 -3.453,-1.649 -7.312,-2.004 -11.543,-1.079"
         id="path657" />
      <path
         inkscape:connector-curvature="0"
         style="fill:#070101"
         d="m 635.827,605.502 c -1.033,-0.543 -1.584,-0.646 -1.649,-0.326 -0.352,1.512 0.427,3.445 2.344,5.818 0.026,0.02 0.051,0.051 0.062,0.07 -0.002,0.016 -0.006,0.045 -0.009,0.059 0.137,-0.008 0.275,-0.031 0.414,-0.068 1.579,-0.328 2.827,-1.305 3.749,-2.934 0.314,-0.562 0.656,-1.104 0.998,-1.631 0.371,-0.18 0.688,-0.383 0.938,-0.627 0.354,-0.346 0.688,-0.65 0.989,-0.945 0.703,-0.648 1.273,-1.305 1.695,-1.98 l 0.351,-0.123 0.502,-0.428 0.152,-0.484 0.164,-0.092 c -0.076,0.018 -0.141,0.037 -0.202,0.059 -0.047,0.006 -0.104,-0.004 -0.151,0.004 -0.133,-0.008 -0.247,-0.041 -0.346,-0.07 -0.771,-0.229 -1.574,-0.988 -2.408,-2.305 -0.083,-0.133 -0.172,-0.221 -0.272,-0.252 -0.098,-0.031 -0.205,-0.02 -0.306,0.039 -0.112,0.057 -0.222,0.174 -0.325,0.35 -0.268,0.361 -0.452,0.766 -0.539,1.215 -0.188,0.775 -0.296,1.82 -0.315,3.133 -0.573,-0.617 -1.105,-1.195 -1.604,-1.709 -0.967,-1.055 -1.567,-1.406 -1.804,-1.055 -0.794,1.111 -0.781,2.889 0.017,5.338 -0.277,-0.048 -1.1,-0.406 -2.445,-1.056"
         id="path659" />
    </g>
  </g>
</svg>
