<?xml version="1.0" encoding="UTF-8" standalone="no"?>
<!-- Created with Inkscape (http://www.inkscape.org/) -->

<svg
   xmlns:dc="http://purl.org/dc/elements/1.1/"
   xmlns:cc="http://creativecommons.org/ns#"
   xmlns:rdf="http://www.w3.org/1999/02/22-rdf-syntax-ns#"
   xmlns:svg="http://www.w3.org/2000/svg"
   xmlns="http://www.w3.org/2000/svg"
   xmlns:sodipodi="http://sodipodi.sourceforge.net/DTD/sodipodi-0.dtd"
   xmlns:inkscape="http://www.inkscape.org/namespaces/inkscape"
   width="190.40601"
   height="206.49052"
   id="svg5696"
   version="1.1"
   inkscape:version="0.48.4 r9939"
   sodipodi:docname="abby7.svg">
  <defs
     id="defs5698" />
  <sodipodi:namedview
     id="base"
     pagecolor="#ffffff"
     bordercolor="#666666"
     borderopacity="1.0"
     inkscape:pageopacity="0.0"
     inkscape:pageshadow="2"
     inkscape:zoom="0.77472527"
     inkscape:cx="-45.554851"
     inkscape:cy="40.291609"
     inkscape:current-layer="layer1"
     inkscape:document-units="px"
     showgrid="false"
     inkscape:window-width="942"
     inkscape:window-height="591"
     inkscape:window-x="414"
     inkscape:window-y="49"
     inkscape:window-maximized="0"
     fit-margin-top="0"
     fit-margin-left="0"
     fit-margin-right="0"
     fit-margin-bottom="0" />
  <metadata
     id="metadata5701">
    <rdf:RDF>
      <cc:Work
         rdf:about="">
        <dc:format>image/svg+xml</dc:format>
        <dc:type
           rdf:resource="http://purl.org/dc/dcmitype/StillImage" />
        <dc:title></dc:title>
      </cc:Work>
    </rdf:RDF>
  </metadata>
  <g
     id="layer1"
     inkscape:label="Layer 1"
     inkscape:groupmode="layer"
     transform="translate(-155.6563,-73.801092)">
    <g
       transform="translate(-661.21032,-196.08429)"
       id="g1297">
      <path
         inkscape:connector-curvature="0"
         style="fill:#e27c9f"
         d="m 973.034,383.262 0.031,-0.006 0.03,-0.006 c 8.78,-2.578 15.816,-1.745 21.11,2.511 l 0.019,0.013 0.018,0.013 c 5.719,4.816 6.43,10.512 2.135,17.094 l -0.021,0.053 -0.05,0.057 c -4.276,5.189 -9.147,8.293 -14.638,9.303 4.516,2.674 7.011,5.969 7.502,9.869 0.52,3.74 0.001,6.367 -1.567,7.885 -1.478,1.654 -3.99,2.133 -7.524,1.418 l 0.017,-0.004 c -8.306,-1.648 -14.936,-5.35 -19.927,-11.105 l -0.017,-0.014 -0.021,-0.025 c -4.929,-6.203 -6.421,-13.264 -4.443,-21.188 l 0.029,-0.084 c 2.427,-7.247 8.191,-12.501 17.317,-15.784 m 0.745,2.303 0.07,-0.03 c -8.279,2.98 -13.549,7.715 -15.818,14.23 -1.764,7.094 -0.439,13.43 3.97,19 4.656,5.35 10.834,8.803 18.555,10.326 2.467,0.49 4.239,0.242 5.304,-0.734 0.979,-1.148 1.284,-3.098 0.906,-5.863 -0.293,-4.436 -4.857,-8.381 -13.7,-11.865 9.771,0.23 16.892,-2.82 21.335,-9.145 3.436,-5.305 2.873,-9.918 -1.699,-13.83 -4.749,-3.707 -11.058,-4.398 -18.923,-2.089"
         id="path1299" />
      <path
         inkscape:connector-curvature="0"
         style="fill:#f8e6f0"
         d="m 973.85,385.534 -0.07,0.03 c 7.864,-2.307 14.174,-1.617 18.922,2.09 4.572,3.912 5.135,8.525 1.699,13.83 -4.443,6.326 -11.564,9.375 -21.335,9.145 8.843,3.484 13.407,7.43 13.7,11.865 0.378,2.766 0.073,4.715 -0.906,5.861 -1.064,0.979 -2.837,1.227 -5.304,0.736 -7.721,-1.523 -13.898,-4.977 -18.555,-10.326 -4.409,-5.57 -5.733,-11.906 -3.97,-19 2.271,-6.515 7.539,-11.249 15.819,-14.231"
         id="path1301" />
      <path
         inkscape:connector-curvature="0"
         style="fill:#e27c9f"
         d="m 900.107,398.457 -0.03,0.008 -0.029,0.006 c -9.077,1.154 -15.192,4.736 -18.339,10.756 l -0.013,0.016 -0.011,0.02 c -3.312,6.707 -1.685,12.207 4.889,16.52 l 0.041,0.039 0.068,0.033 c 5.997,3.041 11.703,3.938 17.139,2.662 -3.067,4.256 -4.034,8.275 -2.924,12.047 1.022,3.635 2.548,5.834 4.595,6.598 2.017,0.924 4.51,0.355 7.462,-1.713 l -0.015,0.004 c 6.949,-4.84 11.544,-10.885 13.81,-18.156 l 0.012,-0.02 0.009,-0.033 c 2.03,-7.658 0.57,-14.723 -4.413,-21.193 l -0.062,-0.064 c -5.124,-5.671 -12.509,-8.176 -22.189,-7.53 m 0.241,2.408 h -0.077 c 8.779,-0.582 15.507,1.645 20.195,6.707 4.455,5.791 5.78,12.129 3.969,19 -2.126,6.766 -6.401,12.402 -12.868,16.893 -2.063,1.436 -3.788,1.922 -5.152,1.447 -1.359,-0.658 -2.418,-2.324 -3.18,-5.008 -1.506,-4.184 1.097,-9.625 7.803,-16.357 -8.86,4.121 -16.607,4.18 -23.21,0.166 -5.272,-3.488 -6.604,-7.939 -3.98,-13.357 2.865,-5.297 8.37,-8.458 16.5,-9.491"
         id="path1303" />
      <path
         inkscape:connector-curvature="0"
         style="fill:#f8e6f0"
         d="m 900.271,400.865 h 0.077 c -8.13,1.033 -13.635,4.193 -16.501,9.49 -2.624,5.418 -1.292,9.869 3.98,13.357 6.603,4.014 14.35,3.955 23.21,-0.166 -6.706,6.732 -9.309,12.174 -7.803,16.357 0.762,2.684 1.82,4.35 3.18,5.01 1.364,0.473 3.089,-0.014 5.152,-1.449 6.466,-4.49 10.742,-10.127 12.868,-16.893 1.812,-6.871 0.486,-13.209 -3.969,-19 -4.688,-5.061 -11.415,-7.288 -20.194,-6.706"
         id="path1305" />
      <path
         inkscape:connector-curvature="0"
         style="fill:#e27c9f"
         d="m 953.271,429.408 7.967,0.141 c 0.455,6.322 -0.748,13.92 -3.576,22.787 1.423,1.203 2.771,2.604 4.061,4.215 1.29,1.607 2.267,3.27 2.944,5.002 0.693,1.719 1.024,3.189 1.009,4.41 -0.002,1.219 -0.248,2.451 -0.71,3.691 -0.46,1.238 -1.169,2.051 -2.125,2.447 -0.953,0.385 -2.297,0.49 -4.03,0.32 -1.937,-0.348 -3.562,-0.963 -4.859,-1.84 -1.3,-0.879 -2.51,-1.961 -3.648,-3.23 -1.122,-1.268 -2.055,-2.695 -2.798,-4.283 -0.733,-1.539 -1.208,-3.186 -1.425,-4.934 0.659,-1.23 1.884,-4.461 3.66,-9.699 1.809,-5.244 2.975,-11.593 3.53,-19.027"
         id="path1307" />
      <path
         inkscape:connector-curvature="0"
         style="fill:none;stroke:#c4084a;stroke-width:2.43700004;stroke-linecap:round;stroke-linejoin:round;stroke-miterlimit:10"
         d="m 961.237,429.549 -7.967,-0.141 c -0.554,7.434 -1.722,13.783 -3.531,19.027 -1.776,5.238 -3.001,8.469 -3.66,9.699 0.217,1.748 0.691,3.395 1.425,4.934 0.743,1.588 1.676,3.016 2.798,4.283 1.139,1.27 2.349,2.352 3.648,3.23 1.298,0.877 2.923,1.492 4.859,1.84 1.734,0.17 3.078,0.064 4.03,-0.32"
         id="path1309" />
      <path
         inkscape:connector-curvature="0"
         style="fill:none;stroke:#c4084a;stroke-width:2.43700004;stroke-linecap:round;stroke-miterlimit:10"
         d="m 962.84,472.102 c 0.956,-0.396 1.665,-1.209 2.125,-2.447 0.462,-1.24 0.708,-2.473 0.71,-3.691 0.016,-1.221 -0.315,-2.691 -1.01,-4.41 -0.677,-1.732 -1.653,-3.395 -2.943,-5.002 -1.29,-1.611 -2.639,-3.012 -4.061,-4.215 2.827,-8.867 4.031,-16.463 3.575,-22.787"
         id="path1311" />
      <path
         inkscape:connector-curvature="0"
         style="fill:#e27c9f"
         d="m 943.589,433.43 -7.88,-0.762 c -2.159,6.176 -3.028,13.793 -2.641,22.846 -1.725,1.021 -3.432,2.25 -5.135,3.691 -1.705,1.438 -3.115,2.965 -4.251,4.592 -1.147,1.615 -1.871,3.029 -2.185,4.23 -0.329,1.199 -0.422,2.443 -0.302,3.717 0.12,1.271 0.597,2.148 1.432,2.65 0.835,0.486 2.128,0.744 3.879,0.771 2.002,-0.125 3.768,-0.547 5.283,-1.268 1.518,-0.719 3,-1.645 4.464,-2.766 1.448,-1.125 2.752,-2.426 3.912,-3.904 1.139,-1.434 2.052,-3 2.736,-4.699 -0.314,-1.283 -0.646,-4.604 -0.982,-9.963 -0.361,-5.372 0.206,-11.756 1.67,-19.135"
         id="path1313" />
      <path
         inkscape:connector-curvature="0"
         style="fill:none;stroke:#c4084a;stroke-width:2.421;stroke-linecap:round;stroke-linejoin:round;stroke-miterlimit:10"
         d="m 935.709,432.668 7.88,0.762 c -1.464,7.379 -2.031,13.764 -1.669,19.137 0.336,5.359 0.668,8.678 0.982,9.963 -0.685,1.701 -1.598,3.266 -2.736,4.701 -1.16,1.477 -2.464,2.777 -3.912,3.902 -1.464,1.121 -2.946,2.047 -4.464,2.766 -1.516,0.721 -3.281,1.143 -5.283,1.266 -1.751,-0.025 -3.044,-0.283 -3.879,-0.77"
         id="path1315" />
      <path
         inkscape:connector-curvature="0"
         style="fill:none;stroke:#c4084a;stroke-width:2.421;stroke-linecap:round;stroke-miterlimit:10"
         d="m 922.628,474.395 c -0.835,-0.502 -1.312,-1.379 -1.432,-2.65 -0.12,-1.273 -0.027,-2.518 0.302,-3.717 0.313,-1.201 1.037,-2.615 2.185,-4.23 1.134,-1.627 2.546,-3.154 4.251,-4.59 1.703,-1.443 3.41,-2.672 5.135,-3.693 -0.388,-9.053 0.481,-16.67 2.641,-22.846"
         id="path1317" />
      <path
         inkscape:connector-curvature="0"
         style="fill:#e27c9f"
         d="m 931.117,419.064 -4.473,-6.465 -27.004,19.203 c 0.189,1.066 1.725,3.297 4.636,6.686 l 26.841,-19.424 z"
         id="path1319" />
      <path
         inkscape:connector-curvature="0"
         style="fill:none;stroke:#c4084a;stroke-width:2.421;stroke-linecap:round;stroke-linejoin:round;stroke-miterlimit:10"
         d="m 926.645,412.6 -27.004,19.203 m 4.635,6.685 26.841,-19.424"
         id="path1321" />
      <path
         inkscape:connector-curvature="0"
         style="fill:#c4084a"
         d="m 892.436,429.488 c -2.729,1.562 -4.525,3.377 -5.389,5.436 -0.963,2.094 -1.306,3.941 -1.017,5.531 0.161,1.377 0.872,2.74 2.128,4.074 0.062,0.965 0.261,1.902 0.617,2.787 l 0.049,0.16 c 1.108,1.871 2.359,2.734 3.788,2.588 0.513,0.936 1.295,1.611 2.341,2.061 1.567,0.715 3.055,0.457 4.474,-0.793 l 0.009,-0.02 c 0.972,-0.844 1.953,-2.322 2.942,-4.436 l -0.005,0.033 c 0.232,-0.471 0.471,-0.877 0.688,-1.246 0.523,1.469 1.148,2.51 1.895,3.119 1.309,1.305 2.867,1.418 4.676,0.361 3.229,-1.688 3.148,-6.164 -0.248,-13.439 -0.063,-0.156 -0.169,-0.344 -0.29,-0.576 -0.386,0.438 -0.996,1.023 -1.839,1.779 2.55,5.527 2.938,8.908 1.17,10.143 -0.716,0.398 -1.334,0.4 -1.829,-0.018 -0.745,-0.764 -1.363,-2.188 -1.849,-4.303 l -0.473,-1.816 -1.58,1.236 c -0.806,0.82 -1.612,2.041 -2.457,3.65 l -0.049,0.049 c -0.799,1.707 -1.578,2.916 -2.352,3.633 l 0.002,0.016 c -0.555,0.506 -1.156,0.662 -1.77,0.473 -1.793,-0.566 -2.516,-2.066 -2.19,-4.531 0.464,-2.379 1.521,-4.422 3.182,-6.158 -2.763,0.592 -4.478,2.871 -5.118,6.857 -0.038,0.439 -0.056,0.844 -0.033,1.215 -1.156,-0.605 -1.748,-1.895 -1.748,-3.877 0,-1.98 1.026,-4.377 3.102,-7.227 -1.729,0.096 -3.309,1.588 -4.709,4.463 -0.049,-0.205 -0.093,-0.398 -0.123,-0.596 l 10e-4,-0.047 c -0.168,-1.199 0.099,-2.58 0.798,-4.148 0.77,-1.648 2.237,-3.09 4.415,-4.34 2.188,-1.268 4.957,-1.531 8.303,-0.814 0.019,0.01 0.287,0.051 0.771,0.137 l 1.082,-2.223 c -0.829,-0.168 -1.271,-0.27 -1.357,-0.289 -4.041,-0.861 -7.383,-0.502 -10.027,1.086 l 0.019,0.01 z"
         id="path1323" />
      <path
         inkscape:connector-curvature="0"
         style="fill:#e27c9f"
         d="m 902.718,430.904 c -0.484,-0.086 -0.753,-0.127 -0.771,-0.137 -3.347,-0.717 -6.117,-0.453 -8.304,0.814 -2.178,1.25 -3.646,2.691 -4.415,4.34 -0.699,1.568 -0.966,2.949 -0.798,4.148 l -10e-4,0.047 c 0.03,0.197 0.074,0.391 0.123,0.596 1.4,-2.875 2.979,-4.367 4.709,-4.463 -2.075,2.85 -3.102,5.246 -3.102,7.227 0,1.982 0.592,3.271 1.748,3.877 -0.022,-0.371 -0.005,-0.775 0.033,-1.215 0.641,-3.986 2.355,-6.266 5.118,-6.857 -1.66,1.736 -2.718,3.779 -3.182,6.158 -0.325,2.465 0.397,3.965 2.19,4.531 0.613,0.189 1.215,0.033 1.77,-0.473 l -0.002,-0.016 c 0.773,-0.717 1.553,-1.926 2.352,-3.633 l 0.049,-0.049 c 0.844,-1.609 1.651,-2.83 2.457,-3.65 l 1.58,-1.236 0.472,1.816 c 0.486,2.115 1.104,3.539 1.85,4.303 0.495,0.418 1.113,0.416 1.829,0.018 1.771,-1.234 1.38,-4.615 -1.17,-10.143 l -1.907,-3.527 c 0.175,-1.526 -0.7,-2.347 -2.628,-2.476"
         id="path1325" />
      <path
         inkscape:connector-curvature="0"
         style="fill:#e27c9f"
         d="m 957.789,412.172 -1.094,-8.684 c 10.765,0.148 19.725,-2.703 26.873,-8.568 6.822,-0.908 8.486,1.025 4.972,5.811 -8.099,7.898 -18.352,11.705 -30.751,11.441"
         id="path1327" />
      <path
         inkscape:connector-curvature="0"
         style="fill:none;stroke:#c4084a;stroke-width:2.42000008;stroke-linecap:round;stroke-linejoin:round;stroke-miterlimit:10"
         d="m 956.695,403.488 c 10.765,0.148 19.725,-2.703 26.873,-8.568 m 4.972,5.81 c -8.099,7.898 -18.353,11.705 -30.751,11.441"
         id="path1329" />
      <path
         inkscape:connector-curvature="0"
         style="fill:#c4084a"
         d="m 996.984,378.535 c 0.043,-0.703 -0.275,-1.438 -0.946,-2.213 -1.87,-1.541 -3.729,-1.354 -5.598,0.565 -1.927,2.695 -3.664,6.135 -5.197,10.345 l 0.068,2.73 -1.806,-2.602 c -1.459,-2.209 -2.875,-3.624 -4.248,-4.227 -1.117,-0.405 -2.199,-0.191 -3.26,0.659 -1.031,1.122 -1.39,2.234 -1.067,3.334 0.479,1.195 1.907,2.537 4.286,4.029 0.501,2.146 1.296,3.848 2.409,5.117 l -1.147,0.875 c -1.327,-0.541 -2.394,-2.033 -3.155,-4.461 -2.602,-1.539 -4.162,-3.139 -4.688,-4.795 -0.732,-1.893 -0.191,-3.837 1.616,-5.812 l 0.127,-0.126 c 1.9,-1.551 3.821,-1.898 5.771,-1.058 1.317,0.479 2.633,1.539 3.932,3.175 1.233,-3.41 2.729,-6.323 4.497,-8.712 l 0.104,-0.098 c 2.974,-3.14 5.973,-3.381 8.988,-0.718 l 0.092,0.091 c 1.271,1.399 1.813,2.764 1.638,4.126 -0.004,0.102 -0.019,0.208 -0.033,0.33 0.526,-0.09 1.034,-0.107 1.526,-0.049 1.743,0.068 3.143,0.941 4.222,2.61 1.046,1.635 1.231,3.13 0.535,4.48 -0.257,0.564 -0.675,1.105 -1.255,1.621 0.824,0.453 1.486,1.1 2.006,1.943 1.046,1.668 1.145,3.338 0.327,5.008 l 0,0.049 c -0.035,0.033 -0.056,0.057 -0.051,0.105 -0.021,0.027 -0.051,0.039 -0.057,0.059 -1.265,2.109 -4.275,3.453 -9.029,4.047 -3.662,4.537 -7.224,5.518 -10.659,2.914 l 0.876,-2.08 c 2.837,1.58 5.549,0.674 8.143,-2.711 l 0.327,-0.416 0.535,-0.027 c 4.044,-0.469 6.646,-1.477 7.787,-3.016 0.383,-0.873 0.292,-1.762 -0.267,-2.654 -0.617,-0.951 -1.56,-1.449 -2.824,-1.52 -1.83,0.504 -3.809,1.492 -5.938,2.982 0.391,-2.561 2.139,-4.34 5.241,-5.342 1.354,-0.604 2.244,-1.276 2.655,-2.015 0.258,-0.633 0.121,-1.336 -0.413,-2.139 -0.597,-0.942 -1.364,-1.454 -2.304,-1.508 -1.103,-0.044 -2.209,0.228 -3.331,0.792 -2.803,2.529 -4.791,4.653 -5.98,6.346 -0.356,-0.453 -0.447,-1.16 -0.272,-2.121 0.238,-0.975 1.238,-2.28 3.026,-3.931 1.799,-1.667 2.718,-3.002 2.786,-3.981"
         id="path1331" />
      <path
         inkscape:connector-curvature="0"
         style="fill:#e27c9f"
         d="m 996.038,376.322 c 0.671,0.775 0.989,1.51 0.946,2.213 -0.068,0.979 -0.987,2.314 -2.786,3.985 -1.788,1.651 -2.788,2.957 -3.025,3.929 -0.176,0.963 -0.086,1.67 0.271,2.123 1.189,-1.693 3.178,-3.817 5.98,-6.346 1.122,-0.564 2.229,-0.836 3.33,-0.792 0.94,0.054 1.707,0.566 2.304,1.508 0.535,0.803 0.672,1.505 0.414,2.139 -0.411,0.738 -1.3,1.411 -2.655,2.015 -3.103,1.002 -4.851,2.781 -5.241,5.342 2.129,-1.49 4.107,-2.479 5.938,-2.982 1.265,0.07 2.207,0.568 2.823,1.52 0.56,0.893 0.65,1.781 0.268,2.654 -1.142,1.539 -3.743,2.547 -7.787,3.016 l -0.535,0.027 -0.327,0.416 c -2.594,3.385 -5.306,4.291 -8.143,2.711 -2.491,-0.607 -4.541,-1.781 -6.187,-3.525 -1.113,-1.27 -1.908,-2.971 -2.409,-5.117 -2.379,-1.492 -3.807,-2.834 -4.286,-4.029 -0.322,-1.1 0.036,-2.212 1.067,-3.333 1.061,-0.85 2.143,-1.064 3.26,-0.659 1.373,0.603 2.788,2.018 4.248,4.227 l 1.806,2.602 -0.069,-2.73 c 1.534,-4.21 3.271,-7.65 5.198,-10.346 1.868,-1.922 3.727,-2.109 5.597,-0.568"
         id="path1333" />
      <path
         inkscape:connector-curvature="0"
         style="fill:#3793d1"
         d="m 953.523,399.785 -2.263,-4.945 -22.542,7.064 -0.25,6.066 -1.159,3.035 -0.049,0.07 c -1.089,3.209 -1.969,6.422 -2.654,9.629 -2.234,10.557 -1.933,19.225 0.904,26.008 l 0.668,1.742 1.859,-0.432 c 1.239,-0.244 2.474,-0.846 3.705,-1.791 0.215,0.566 0.475,1.109 0.74,1.633 l 0.853,1.766 1.883,-0.686 c 0.976,-0.301 1.921,-0.83 2.833,-1.586 0.69,1.064 1.444,2.037 2.242,2.895 l 1.399,1.625 1.708,-1.49 c 1.236,-1.008 2.306,-2.467 3.19,-4.369 0.574,0.557 1.169,1.047 1.771,1.486 l 1.75,1.34 1.419,-1.838 c 0.255,-0.314 0.493,-0.643 0.729,-0.984 0.811,0.635 1.654,1.188 2.515,1.652 l 1.87,1.131 1.214,-2.018 c 0.975,-1.58 1.662,-3.615 2.047,-6.078 0.177,0.09 0.354,0.166 0.543,0.236 l 1.928,0.898 1.055,-2.078 c 0.225,-0.42 0.432,-0.865 0.621,-1.34 1.399,0.676 2.812,1.129 4.24,1.348 l 2.037,0.408 0.629,-2.119 c 1.011,-3.131 0.979,-7.146 -0.091,-12.047 -2.023,-9.188 -7.81,-17.928 -17.344,-26.231 m -3.534,-2.076 1.791,3.949 0.07,-0.139 c 9.217,7.973 14.801,16.35 16.767,25.129 0.968,4.375 1.012,7.967 0.148,10.756 -2.075,-0.354 -4.124,-1.258 -6.145,-2.715 -0.246,1.545 -0.656,2.887 -1.23,4.014 -1.2,-0.525 -2.351,-1.236 -3.452,-2.125 -0.093,3.885 -0.763,6.869 -2.025,8.975 -1.547,-0.865 -2.989,-2.047 -4.341,-3.541 -0.478,1.402 -1.092,2.57 -1.812,3.506 -1.413,-1.078 -2.731,-2.438 -3.939,-4.086 -0.921,3.346 -2.203,5.717 -3.85,7.119 -1.297,-1.428 -2.438,-3.121 -3.422,-5.092 -1.283,1.639 -2.63,2.715 -4.013,3.221 -0.733,-1.477 -1.335,-3.055 -1.814,-4.754 -1.669,2.09 -3.365,3.344 -5.107,3.75 -2.632,-6.387 -2.878,-14.568 -0.756,-24.543 0.653,-3.107 1.519,-6.207 2.574,-9.33 l 1.286,-3.402 0.2,-4.717 19.07,-5.975 z"
         id="path1335" />
      <path
         inkscape:connector-curvature="0"
         style="fill:#86c1ea"
         d="m 951.78,401.658 -1.791,-3.949 -19.07,5.975 -0.2,4.717 -1.286,3.402 c -1.056,3.123 -1.921,6.223 -2.574,9.33 -2.122,9.975 -1.876,18.156 0.756,24.543 1.742,-0.406 3.438,-1.66 5.108,-3.75 0.506,-0.646 1.007,-1.352 1.494,-2.137 0.637,-1.012 1.217,-2.109 1.755,-3.277 0.687,2.609 1.554,4.918 2.576,6.947 0.984,1.971 2.125,3.664 3.423,5.092 1.646,-1.402 2.929,-3.773 3.85,-7.119 0.161,-0.547 0.303,-1.135 0.439,-1.77 0.322,-1.42 0.562,-2.902 0.713,-4.477 1.408,2.732 2.947,5.018 4.6,6.826 1.352,1.494 2.794,2.676 4.341,3.541 1.263,-2.105 1.933,-5.09 2.025,-8.975 -10e-4,-0.436 -0.005,-0.887 -0.009,-1.338 -0.017,-1.805 -0.19,-3.658 -0.518,-5.541 1.72,2.076 3.455,3.73 5.209,4.99 2.021,1.457 4.069,2.361 6.145,2.715 0.863,-2.789 0.819,-6.381 -0.148,-10.756 -1.966,-8.779 -7.55,-17.156 -16.767,-25.129 l -0.071,0.14 z"
         id="path1337" />
      <path
         inkscape:connector-curvature="0"
         style="fill:#bc9fca"
         d="m 932.723,441.926 c 0.479,1.699 1.08,3.277 1.813,4.754 1.383,-0.506 2.729,-1.582 4.012,-3.221 -1.022,-2.029 -1.89,-4.338 -2.576,-6.945 -0.538,1.166 -1.118,2.264 -1.754,3.275 -0.489,0.785 -0.989,1.49 -1.495,2.137"
         id="path1339" />
      <path
         inkscape:connector-curvature="0"
         style="fill:#bc9fca"
         d="m 946.259,439.662 c -0.136,0.635 -0.277,1.223 -0.438,1.77 1.209,1.648 2.526,3.008 3.938,4.086 0.722,-0.936 1.337,-2.104 1.813,-3.506 -1.652,-1.809 -3.191,-4.094 -4.6,-6.826 -0.15,1.574 -0.39,3.056 -0.713,4.476"
         id="path1341" />
      <path
         inkscape:connector-curvature="0"
         style="fill:#bc9fca"
         d="m 957.412,429.699 c 0.327,1.883 0.501,3.736 0.518,5.541 0.004,0.451 0.008,0.902 0.009,1.338 1.102,0.889 2.252,1.6 3.452,2.125 0.574,-1.127 0.984,-2.469 1.23,-4.014 -1.754,-1.259 -3.489,-2.914 -5.209,-4.99"
         id="path1343" />
      <path
         inkscape:connector-curvature="0"
         style="fill:#7f519b"
         d="m 884.072,333.638 c -2.755,-1.771 -5.801,-2.758 -9.121,-2.965 -8.021,-0.496 -15.915,3.425 -23.658,11.749 l -3.191,3.341 c -1.225,1.255 -2.164,2.178 -2.81,2.763 -0.705,0.689 -1.546,1.418 -2.545,2.202 -0.777,0.624 -1.599,1.203 -2.451,1.695 -0.757,0.474 -1.559,0.87 -2.39,1.213 -0.838,0.33 -1.68,0.59 -2.536,0.792 -0.84,0.174 -1.755,0.303 -2.747,0.389 -0.877,0.074 -1.904,0.093 -3.093,0.047 -1.078,-0.04 -2.254,-0.128 -3.554,-0.252 -1.381,-0.148 -2.762,-0.329 -4.134,-0.55 l -1.72,-0.255 c -0.86,-0.177 -1.365,-0.242 -1.507,-0.216 -0.175,0.028 -0.333,0.117 -0.489,0.274 -0.059,0.049 -0.073,0.335 -0.05,0.842 0.008,0.446 0.024,0.818 0.06,1.129 0.061,0.606 0.182,1.508 0.364,2.672 0.21,1.181 0.438,2.302 0.694,3.355 0.246,1.058 0.602,2.348 1.062,3.857 0.451,1.43 0.948,2.817 1.491,4.193 0.552,1.391 1.192,2.817 1.942,4.288 0.693,1.396 1.502,2.816 2.427,4.223 0.896,1.388 1.87,2.698 2.941,3.936 1.061,1.246 2.242,2.405 3.526,3.489 1.342,1.07 2.703,1.992 4.129,2.771 1.567,0.824 3.168,1.455 4.803,1.875 1.805,0.5 3.64,0.777 5.504,0.828 1.879,0.076 3.952,-0.092 6.202,-0.498 0.941,-0.146 2.034,-0.393 3.265,-0.732 1.578,-0.43 2.526,-0.473 2.852,-0.137 0.49,0.473 0.309,1.424 -0.568,2.83 -1.174,1.902 -1.814,3.023 -1.886,3.357 -0.593,2.322 0.988,2.982 4.701,1.967 3.859,-1.062 8.286,-3.533 13.263,-7.402 1.701,-1.332 3.535,-3.256 5.474,-5.776 0.012,-0.196 0.069,-0.369 0.213,-0.517 0.372,-0.485 0.722,-0.975 1.077,-1.485 8.125,-11.361 11.434,-23.933 9.947,-37.708 -0.039,-0.444 -0.102,-0.895 -0.169,-1.36 0.007,-0.142 0.021,-0.272 0.035,-0.402 -0.337,-1.318 -0.79,-2.469 -1.343,-3.459 -1.443,-2.589 -3.442,-4.714 -6.01,-6.363"
         id="path1345" />
      <path
         inkscape:connector-curvature="0"
         style="fill:none;stroke:#652182;stroke-width:2.42000008;stroke-linecap:round;stroke-linejoin:round;stroke-miterlimit:10"
         d="m 874.951,330.673 c -8.021,-0.496 -15.915,3.425 -23.658,11.749 l -3.191,3.341 c -1.225,1.255 -2.164,2.178 -2.81,2.763 -0.705,0.689 -1.546,1.418 -2.545,2.202 -0.777,0.624 -1.599,1.203 -2.451,1.695 -0.757,0.474 -1.559,0.87 -2.39,1.212 -0.838,0.33 -1.68,0.591 -2.536,0.793 -0.84,0.174 -1.755,0.303 -2.747,0.389 -0.877,0.074 -1.905,0.093 -3.093,0.046 -1.078,-0.039 -2.254,-0.127 -3.554,-0.251 -1.381,-0.148 -2.763,-0.329 -4.135,-0.55 l -1.719,-0.255 c -0.859,-0.177 -1.366,-0.242 -1.507,-0.216 -0.175,0.028 -0.333,0.117 -0.489,0.273 -0.059,0.05 -0.072,0.335 -0.05,0.843 0.008,0.446 0.024,0.818 0.06,1.128 0.061,0.607 0.182,1.508 0.364,2.672 0.21,1.182 0.438,2.303 0.694,3.355 0.246,1.059 0.602,2.349 1.062,3.858 0.451,1.43 0.948,2.817 1.491,4.193 0.551,1.39 1.192,2.817 1.942,4.287 0.693,1.397 1.502,2.817 2.427,4.224 0.896,1.388 1.87,2.698 2.941,3.936 1.061,1.246 2.242,2.405 3.526,3.49 1.342,1.069 2.703,1.989 4.128,2.771 1.568,0.824 3.168,1.455 4.804,1.875 1.805,0.5 3.64,0.777 5.504,0.828 1.879,0.078 3.951,-0.092 6.201,-0.498 0.942,-0.146 2.035,-0.393 3.266,-0.732 1.578,-0.43 2.525,-0.475 2.852,-0.137 0.49,0.473 0.309,1.424 -0.568,2.83 -1.174,1.902 -1.814,3.023 -1.886,3.357 -0.593,2.322 0.988,2.982 4.701,1.967 3.859,-1.062 8.286,-3.533 13.263,-7.402 1.7,-1.332 3.535,-3.256 5.474,-5.775 0.012,-0.197 0.069,-0.369 0.213,-0.517 0.372,-0.485 0.722,-0.975 1.077,-1.485 8.125,-11.362 11.434,-23.933 9.947,-37.708 -0.039,-0.445 -0.102,-0.895 -0.169,-1.36 0.007,-0.143 0.021,-0.273 0.035,-0.402 -0.338,-1.318 -0.79,-2.469 -1.343,-3.459 -1.445,-2.59 -3.445,-4.715 -6.012,-6.364 -2.753,-1.772 -5.799,-2.759 -9.119,-2.966 z"
         id="path1347" />
      <path
         inkscape:connector-curvature="0"
         style="fill:#fcdf00"
         d="m 879.863,349.5 c -1.329,1.313 -2.267,2.859 -2.823,4.625 -0.576,1.794 -0.515,3.146 0.157,4.069 -1.901,-1.45 -3.771,-1.723 -5.603,-0.787 -1.69,0.822 -2.895,2.325 -3.63,4.487 -0.76,2.208 -0.719,4.264 0.119,6.169 0.984,2.171 2.851,3.589 5.625,4.243 -0.863,0.689 -1.492,1.888 -1.884,3.579 -0.414,1.773 -0.366,3.41 0.142,4.911 1.261,3.747 4.592,4.784 10,3.079 -0.006,-0.012 0,-0.032 0.014,-0.04 0.173,-0.095 0.375,-0.227 0.577,-0.392 0.202,-0.165 0.418,-0.338 0.614,-0.515 1.787,-0.739 3.263,-2.1 4.446,-4.076 0.888,-1.484 1.646,-3.015 2.284,-4.601 0.947,-1.934 1.672,-4.018 2.168,-6.235 1.321,-5.796 0.664,-11.286 -1.956,-16.476 -0.453,-0.908 -0.97,-1.52 -1.545,-1.84 -1.283,-1.554 -2.673,-2.338 -4.185,-2.343 -1.543,-0.038 -3.048,0.682 -4.52,2.143"
         id="path1349" />
      <path
         inkscape:connector-curvature="0"
         style="fill:#7f519b"
         d="m 914.674,316.618 c -0.061,-3.275 0.698,-6.385 2.266,-9.32 3.789,-7.088 11.271,-11.747 22.418,-13.969 l 4.522,-0.963 c 1.709,-0.384 2.989,-0.699 3.823,-0.939 0.958,-0.24 2.018,-0.573 3.211,-1.014 0.94,-0.333 1.863,-0.727 2.73,-1.193 0.801,-0.395 1.559,-0.871 2.287,-1.398 0.719,-0.541 1.383,-1.12 2.006,-1.744 0.588,-0.623 1.179,-1.334 1.771,-2.132 0.523,-0.708 1.08,-1.573 1.663,-2.609 0.531,-0.939 1.073,-1.985 1.65,-3.157 0.601,-1.253 1.172,-2.526 1.704,-3.809 l 0.686,-1.595 c 0.302,-0.826 0.51,-1.289 0.607,-1.396 0.115,-0.134 0.274,-0.222 0.488,-0.273 0.072,-0.023 0.323,0.115 0.743,0.4 0.376,0.24 0.684,0.45 0.93,0.641 0.484,0.371 1.188,0.949 2.082,1.715 0.896,0.798 1.73,1.581 2.49,2.352 0.772,0.763 1.685,1.745 2.728,2.929 0.98,1.135 1.899,2.285 2.785,3.471 0.895,1.198 1.772,2.492 2.63,3.903 0.825,1.323 1.608,2.758 2.32,4.282 0.711,1.492 1.315,3.009 1.807,4.571 0.505,1.555 0.868,3.171 1.12,4.832 0.207,1.705 0.273,3.347 0.192,4.969 -0.122,1.767 -0.425,3.46 -0.927,5.075 -0.522,1.797 -1.25,3.503 -2.188,5.118 -0.921,1.64 -2.15,3.314 -3.679,5.015 -0.616,0.727 -1.401,1.526 -2.334,2.396 -1.196,1.118 -1.729,1.9 -1.614,2.356 0.145,0.663 1.048,1.008 2.706,0.999 2.235,0 3.524,0.044 3.847,0.159 2.29,0.714 2.021,2.406 -0.792,5.034 -2.932,2.727 -7.355,5.196 -13.262,7.402 -2.027,0.749 -4.628,1.301 -7.791,1.628 -0.173,-0.094 -0.35,-0.133 -0.552,-0.09 -0.605,0.061 -1.207,0.102 -1.829,0.136 -13.935,0.953 -26.371,-2.829 -37.316,-11.326 -0.357,-0.268 -0.708,-0.557 -1.068,-0.859 -0.126,-0.069 -0.243,-0.125 -0.361,-0.179 -0.945,-0.981 -1.687,-1.969 -2.239,-2.96 -1.444,-2.589 -2.202,-5.407 -2.26,-8.458"
         id="path1351" />
      <path
         inkscape:connector-curvature="0"
         style="fill:none;stroke:#652182;stroke-width:2.42000008;stroke-linecap:round;stroke-linejoin:round;stroke-miterlimit:10"
         d="m 916.939,307.298 c 3.789,-7.087 11.271,-11.747 22.418,-13.968 l 4.522,-0.964 c 1.709,-0.383 2.989,-0.699 3.823,-0.939 0.958,-0.24 2.018,-0.572 3.211,-1.013 0.94,-0.333 1.863,-0.728 2.73,-1.194 0.802,-0.395 1.559,-0.87 2.287,-1.398 0.719,-0.541 1.383,-1.12 2.006,-1.743 0.588,-0.623 1.179,-1.335 1.772,-2.133 0.522,-0.708 1.079,-1.573 1.662,-2.608 0.532,-0.94 1.074,-1.986 1.65,-3.157 0.601,-1.254 1.173,-2.527 1.704,-3.809 l 0.686,-1.596 c 0.302,-0.826 0.51,-1.289 0.607,-1.395 0.115,-0.134 0.274,-0.223 0.488,-0.274 0.072,-0.022 0.324,0.115 0.744,0.4 0.376,0.24 0.683,0.45 0.929,0.642 0.485,0.371 1.188,0.948 2.082,1.714 0.896,0.799 1.73,1.581 2.49,2.352 0.772,0.764 1.685,1.745 2.728,2.93 0.98,1.134 1.899,2.284 2.785,3.47 0.895,1.199 1.772,2.493 2.63,3.903 0.825,1.323 1.608,2.758 2.32,4.282 0.711,1.493 1.316,3.01 1.807,4.571 0.505,1.555 0.868,3.172 1.12,4.833 0.207,1.704 0.273,3.346 0.193,4.968 -0.123,1.767 -0.426,3.46 -0.928,5.075 -0.522,1.798 -1.25,3.504 -2.188,5.118 -0.921,1.64 -2.149,3.314 -3.678,5.015 -0.617,0.728 -1.402,1.526 -2.334,2.397 -1.197,1.117 -1.729,1.899 -1.615,2.355 0.145,0.664 1.048,1.008 2.706,0.999 2.235,0 3.524,0.044 3.847,0.159 2.29,0.715 2.021,2.406 -0.792,5.034 -2.932,2.727 -7.354,5.197 -13.262,7.402 -2.027,0.75 -4.628,1.301 -7.791,1.628 -0.173,-0.094 -0.35,-0.133 -0.552,-0.09 -0.605,0.061 -1.206,0.102 -1.829,0.137 -13.934,0.952 -26.371,-2.83 -37.316,-11.327 -0.357,-0.268 -0.708,-0.556 -1.068,-0.859 -0.126,-0.069 -0.242,-0.125 -0.361,-0.179 -0.945,-0.981 -1.687,-1.969 -2.239,-2.96 -1.445,-2.589 -2.203,-5.406 -2.262,-8.458 -0.057,-3.275 0.701,-6.384 2.268,-9.32 z"
         id="path1353" />
      <path
         inkscape:connector-curvature="0"
         style="fill:#fcdf00"
         d="m 930.385,321.363 c 1.816,-0.441 3.625,-0.429 5.421,0.024 1.828,0.452 2.945,1.213 3.38,2.271 -0.236,-2.379 0.513,-4.114 2.27,-5.183 1.586,-1.006 3.5,-1.242 5.725,-0.734 2.278,0.513 4.008,1.626 5.189,3.34 1.329,1.979 1.557,4.311 0.658,7.013 1.041,-0.371 2.391,-0.278 4.036,0.278 1.725,0.578 3.094,1.478 4.104,2.699 2.53,3.041 1.661,6.419 -2.627,10.129 -0.007,-0.014 -0.029,-0.02 -0.041,-0.011 -0.172,0.095 -0.392,0.199 -0.636,0.285 -0.248,0.086 -0.509,0.179 -0.763,0.252 -1.567,1.134 -3.5,1.675 -5.804,1.645 -1.727,-0.024 -3.428,-0.183 -5.113,-0.472 -2.144,-0.207 -4.298,-0.685 -6.445,-1.428 -5.627,-1.917 -9.955,-5.357 -12.997,-10.312 -0.536,-0.863 -0.786,-1.624 -0.755,-2.282 -0.649,-1.907 -0.586,-3.502 0.203,-4.79 0.779,-1.336 2.179,-2.24 4.195,-2.724"
         id="path1355" />
      <path
         inkscape:connector-curvature="0"
         style="fill:#c4084a"
         d="m 958.736,340.544 c -0.997,-0.918 -2.046,-1.804 -3.142,-2.648 -4.573,-3.477 -9.684,-5.96 -15.317,-7.458 -4.588,-1.233 -9.148,-1.738 -13.685,-1.545 -7.403,0.269 -14.735,2.403 -22.005,6.391 -6.852,3.773 -12.244,8.48 -16.182,14.091 -2.812,3.995 -4.863,8.45 -6.177,13.393 -1.903,7.022 -2.056,13.916 -0.469,20.704 0.603,2.661 1.509,5.309 2.706,7.949 l 1.352,2.92 -1.438,0.836 c -0.509,0.301 -1.002,0.629 -1.5,0.977 -4.619,3.115 -6.133,5.865 -4.54,8.252 0.511,1.291 2.071,2.656 4.682,4.107 2.328,1.318 4.865,2.293 7.612,2.961 l 0.015,0.025 c 4.47,1.055 8.305,1.064 11.473,0.008 3.074,1.627 6.432,2.801 10.049,3.537 l 0.04,0.012 c 11.22,2.314 22.759,-0.193 34.619,-7.506 11.614,-7.16 19.26,-15.688 22.891,-25.598 1.16,-3.142 1.885,-6.282 2.188,-9.433 2.512,-2.111 4.484,-5.343 5.899,-9.668 l -0.015,-0.026 c 0.873,-2.688 1.388,-5.366 1.504,-8.045 0.121,-2.98 -0.235,-5.016 -1.065,-6.129 -1.194,-2.608 -4.33,-2.764 -9.381,-0.482 -1.017,0.446 -1.943,0.929 -2.782,1.414 -2.041,-3.38 -4.49,-6.399 -7.332,-9.039 m 4.629,9.162 0.027,-0.015 c 0.267,0.388 0.517,0.77 0.757,1.172 0.301,0.507 0.622,1.022 0.937,1.555 0.09,0.158 0.183,0.297 0.29,0.393 0.146,-0.081 0.282,-0.174 0.434,-0.277 0.061,-0.049 0.139,-0.093 0.227,-0.09 0.243,-0.154 0.467,-0.313 0.669,-0.478 0.066,-0.037 0.139,-0.094 0.197,-0.145 l 0.015,0.028 c 0.856,-0.548 1.813,-1.066 2.883,-1.541 3.471,-1.572 5.618,-1.697 6.429,-0.4 0.555,0.868 0.782,2.456 0.691,4.777 -0.099,2.462 -0.554,4.935 -1.368,7.416 -1.413,4.27 -3.372,7.34 -5.921,9.196 -0.197,3.28 -0.916,6.556 -2.142,9.822 -3.514,9.444 -10.816,17.592 -21.915,24.428 -11.273,6.969 -22.243,9.35 -32.928,7.188 -3.766,-0.756 -7.217,-2.037 -10.345,-3.824 -2.979,1.248 -6.686,1.342 -11.108,0.277 -2.54,-0.613 -4.885,-1.52 -7.032,-2.73 -2.024,-1.141 -3.253,-2.168 -3.703,-3.096 -0.679,-1.371 0.556,-3.135 3.716,-5.262 0.335,-0.24 0.67,-0.445 1.028,-0.643 0.754,-0.51 1.533,-0.979 2.348,-1.381 0.612,-0.359 1.21,-0.656 1.788,-0.893 l -0.613,-0.975 c -0.395,-0.611 -0.774,-1.232 -1.168,-1.844 -0.519,-0.836 -0.953,-1.738 -1.302,-2.703 -3.578,-8.555 -4.161,-17.326 -1.749,-26.293 3.03,-11.238 10.112,-19.904 21.208,-26.008 11.145,-6.135 22.479,-7.679 33.961,-4.645 5.339,1.402 10.16,3.769 14.477,7.061 3.638,2.803 6.716,6.109 9.212,9.93"
         id="path1357" />
      <path
         inkscape:connector-curvature="0"
         style="fill:#e27c9f"
         d="m 963.393,349.691 -0.027,0.015 c -2.496,-3.821 -5.574,-7.128 -9.214,-9.93 -4.316,-3.292 -9.138,-5.659 -14.477,-7.061 -11.482,-3.034 -22.816,-1.489 -33.961,4.646 -11.096,6.103 -18.178,14.769 -21.208,26.008 -2.411,8.968 -1.829,17.739 1.749,26.293 0.349,0.965 0.784,1.867 1.302,2.703 0.394,0.611 0.773,1.232 1.168,1.844 l 0.613,0.975 c -0.578,0.236 -1.176,0.533 -1.788,0.893 -0.814,0.402 -1.595,0.871 -2.348,1.381 -0.357,0.197 -0.693,0.402 -1.028,0.643 -3.159,2.127 -4.395,3.891 -3.716,5.262 0.45,0.928 1.68,1.955 3.703,3.096 2.147,1.211 4.492,2.117 7.032,2.73 4.423,1.064 8.13,0.971 11.106,-0.277 3.131,1.787 6.581,3.068 10.347,3.824 10.684,2.162 21.654,-0.219 32.928,-7.188 11.099,-6.836 18.401,-14.984 21.915,-24.428 1.226,-3.266 1.944,-6.542 2.142,-9.823 2.55,-1.855 4.509,-4.925 5.921,-9.195 0.814,-2.482 1.27,-4.954 1.368,-7.416 0.091,-2.322 -0.137,-3.909 -0.691,-4.777 -0.811,-1.298 -2.958,-1.173 -6.429,0.4 -1.069,0.474 -2.026,0.992 -2.883,1.54 l -0.015,-0.028 c -0.059,0.051 -0.131,0.108 -0.197,0.145 -0.202,0.165 -0.426,0.325 -0.67,0.479 -0.087,-0.003 -0.167,0.04 -0.226,0.09 -0.151,0.102 -0.288,0.196 -0.434,0.277 -0.107,-0.096 -0.2,-0.235 -0.29,-0.393 -0.314,-0.534 -0.636,-1.048 -0.937,-1.555 -0.239,-0.403 -0.489,-0.786 -0.755,-1.173"
         id="path1359" />
      <path
         inkscape:connector-curvature="0"
         style="fill:#a682b9"
         d="m 965.896,365.168 c -0.062,0.26 -0.022,0.515 0.104,0.741 0.139,0.251 0.329,0.404 0.576,0.474 0.26,0.063 0.515,0.025 0.74,-0.101 0.25,-0.14 0.404,-0.33 0.475,-0.576 0.069,-0.247 0.039,-0.491 -0.102,-0.742 -0.126,-0.224 -0.322,-0.392 -0.578,-0.474 -0.246,-0.071 -0.488,-0.039 -0.739,0.101 -0.225,0.124 -0.392,0.323 -0.476,0.577"
         id="path1361" />
      <path
         inkscape:connector-curvature="0"
         style="fill:#a682b9"
         d="m 964.033,363.505 c 0.077,-0.268 0.052,-0.531 -0.075,-0.755 -0.125,-0.224 -0.335,-0.385 -0.604,-0.461 -0.246,-0.069 -0.488,-0.037 -0.713,0.087 -0.252,0.142 -0.405,0.33 -0.475,0.578 -0.077,0.266 -0.052,0.529 0.074,0.754 0.125,0.225 0.336,0.385 0.604,0.461 0.246,0.069 0.488,0.038 0.739,-0.101 0.228,-0.126 0.38,-0.316 0.45,-0.563"
         id="path1363" />
      <path
         inkscape:connector-curvature="0"
         style="fill:#a682b9"
         d="m 961.95,367.163 c -0.097,0.106 -0.178,0.238 -0.225,0.403 -0.07,0.246 -0.039,0.489 0.102,0.74 0.082,0.146 0.195,0.254 0.326,0.337 0.077,0.044 0.153,0.088 0.235,0.111 0.269,0.077 0.532,0.051 0.756,-0.075 0.224,-0.125 0.372,-0.328 0.434,-0.588 0.083,-0.255 0.065,-0.504 -0.06,-0.728 -0.126,-0.225 -0.337,-0.386 -0.604,-0.46 -0.254,-0.084 -0.505,-0.066 -0.729,0.059 -0.092,0.052 -0.163,0.109 -0.235,0.201"
         id="path1365" />
      <path
         inkscape:connector-curvature="0"
         style="fill:#a682b9"
         d="m 902.149,400.82 c -0.075,0.266 -0.049,0.527 0.076,0.752 0.124,0.227 0.328,0.371 0.588,0.434 0.254,0.084 0.505,0.066 0.729,-0.059 0.225,-0.125 0.386,-0.338 0.46,-0.605 0.083,-0.254 0.064,-0.504 -0.061,-0.729 -0.125,-0.225 -0.335,-0.383 -0.602,-0.461 -0.255,-0.082 -0.506,-0.064 -0.757,0.078 -0.224,0.125 -0.369,0.327 -0.433,0.59"
         id="path1367" />
      <path
         inkscape:connector-curvature="0"
         style="fill:#a682b9"
         d="m 899.786,398.568 c -0.125,-0.225 -0.336,-0.385 -0.604,-0.461 -0.246,-0.07 -0.489,-0.039 -0.713,0.088 -0.252,0.139 -0.405,0.328 -0.475,0.576 -0.077,0.268 -0.051,0.531 0.074,0.756 0.126,0.225 0.336,0.385 0.604,0.459 0.246,0.07 0.489,0.039 0.74,-0.102 0.225,-0.123 0.378,-0.314 0.448,-0.562 0.078,-0.267 0.051,-0.531 -0.074,-0.754"
         id="path1369" />
      <path
         inkscape:connector-curvature="0"
         style="fill:#a682b9"
         d="m 899.108,402.445 c -0.246,-0.068 -0.489,-0.037 -0.739,0.102 -0.225,0.127 -0.393,0.322 -0.476,0.578 -0.063,0.258 -0.023,0.514 0.102,0.74 0.139,0.25 0.33,0.404 0.577,0.475 0.26,0.062 0.516,0.025 0.74,-0.102 0.251,-0.139 0.404,-0.33 0.476,-0.576 0.069,-0.248 0.038,-0.488 -0.104,-0.742 -0.124,-0.223 -0.321,-0.391 -0.576,-0.475"
         id="path1371" />
      <path
         inkscape:connector-curvature="0"
         style="fill:#da4d5d"
         d="m 935.647,379.384 c -1.606,-0.3 -3.185,-0.025 -4.729,0.838 -1.531,0.855 -2.582,2.047 -3.17,3.57 -0.595,1.511 -0.524,2.909 0.191,4.19 0.715,1.281 1.867,2.076 3.465,2.363 1.606,0.299 3.171,0.031 4.704,-0.824 1.546,-0.863 2.608,-2.062 3.195,-3.586 0.597,-1.511 0.525,-2.909 -0.19,-4.19 -0.714,-1.281 -1.868,-2.074 -3.466,-2.361"
         id="path1373" />
      <path
         inkscape:connector-curvature="0"
         style="fill:#5d1e80"
         d="m 923.397,328.786 c -5.472,0.751 -10.599,2.243 -15.352,4.497 -4.787,2.257 -9.087,5.072 -12.917,8.457 -4.238,3.734 -7.574,8.127 -10.033,13.187 -2.508,5.162 -3.937,10.516 -4.308,16.059 -0.377,5.563 -0.188,9.876 0.601,12.934 0.784,3.08 1.825,5.877 3.146,8.398 1.239,2.375 3.079,4.119 5.54,5.205 l -1.07,-3.127 c -0.561,-2.025 -0.926,-4.109 -1.131,-6.246 -1.053,-11.107 1.844,-19.759 8.713,-25.981 3.965,1.978 8.07,2.944 12.303,2.887 l 1.518,0.018 -0.354,-1.501 c -0.208,-0.837 -0.332,-1.65 -0.389,-2.434 4.468,2.791 9.016,3.891 13.629,3.308 l 0.545,-0.044 0.297,-0.461 c 3.799,-5.394 4.937,-11.209 3.371,-17.456 0.676,0.68 1.338,1.401 1.989,2.164 l 1.708,1.975 0.405,-2.565 c 0.228,-1.392 0.348,-3.071 0.341,-5.041 10.162,-1.688 20.146,0.71 29.94,7.178 0.664,0.444 1.334,0.902 1.999,1.379 l 3.598,2.967 c -0.139,-1.396 -0.494,-2.843 -1.111,-4.352 -1.306,-2.929 -3.009,-5.513 -5.109,-7.786 -1.618,-1.749 -3.828,-3.633 -6.638,-5.652 -4.36,-3.127 -9.273,-5.411 -14.737,-6.881 -5.506,-1.484 -11.008,-1.844 -16.494,-1.086 m -0.501,10.744 -0.438,0.33 1.317,3.198 c 3.015,6.894 2.579,13.253 -1.31,19.043 -4.512,0.388 -8.938,-1.022 -13.304,-4.217 l -1.769,-1.246 -0.147,2.125 c -0.106,1.239 -0.049,2.522 0.153,3.847 -3.584,-0.182 -7.061,-1.169 -10.436,-2.96 l -0.756,-0.391 -0.584,0.535 c -7.861,6.588 -11.16,16.104 -9.91,28.554 l 0.63,3.15 c -1.319,-3.266 -2.227,-5.947 -2.696,-8.059 -0.67,-2.97 -0.814,-7.08 -0.448,-12.292 0.351,-5.238 1.718,-10.298 4.076,-15.166 2.311,-4.771 5.474,-8.912 9.453,-12.43 3.659,-3.221 7.782,-5.922 12.35,-8.073 4.55,-2.157 9.435,-3.585 14.652,-4.296 5.168,-0.702 10.351,-0.355 15.527,1.035 5.164,1.397 9.819,3.562 13.955,6.504 2.641,1.905 4.74,3.677 6.271,5.335 l 0.014,-0.006 c 0.977,1.065 1.861,2.217 2.67,3.447 -10.355,-6.54 -20.92,-8.768 -31.688,-6.672 l -0.995,0.173 0.015,1.049 c 0.028,1.076 0.021,2.085 -0.026,2.994 -1.258,-1.291 -2.549,-2.423 -3.867,-3.419 l -2.709,-2.092 z"
         id="path1375" />
      <path
         inkscape:connector-curvature="0"
         style="fill:#7f519b"
         d="m 922.459,339.86 0.438,-0.33 2.709,2.092 c 1.319,0.996 2.61,2.128 3.868,3.419 0.048,-0.909 0.055,-1.918 0.025,-2.994 l -0.014,-1.049 0.995,-0.173 c 10.768,-2.096 21.332,0.132 31.687,6.672 -0.808,-1.23 -1.692,-2.382 -2.669,-3.448 l -0.014,0.007 c -1.53,-1.658 -3.629,-3.43 -6.271,-5.335 -4.136,-2.942 -8.791,-5.107 -13.955,-6.504 -5.177,-1.39 -10.359,-1.737 -15.528,-1.035 -5.217,0.711 -10.102,2.139 -14.651,4.296 -4.567,2.151 -8.69,4.852 -12.349,8.072 -3.98,3.519 -7.144,7.66 -9.454,12.431 -2.358,4.868 -3.726,9.928 -4.076,15.166 -0.367,5.212 -0.222,9.322 0.448,12.292 0.47,2.112 1.377,4.793 2.696,8.059 l -0.63,-3.15 c -1.25,-12.45 2.049,-21.966 9.91,-28.554 l 0.584,-0.536 0.756,0.392 c 3.375,1.791 6.852,2.778 10.436,2.96 -0.202,-1.325 -0.26,-2.608 -0.153,-3.847 l 0.147,-2.125 1.769,1.246 c 4.365,3.195 8.792,4.605 13.304,4.217 3.889,-5.79 4.324,-12.149 1.31,-19.043 l -1.318,-3.198 z"
         id="path1377" />
      <path
         inkscape:connector-curvature="0"
         style="fill:#d8272a"
         d="m 963.184,376.449 c -2.825,4.57 -7.23,9.193 -13.23,13.852 -3.405,2.652 -6.943,4.98 -10.613,6.98 -3.683,2.01 -7.561,3.729 -11.646,5.164 -7.186,2.533 -13.491,3.754 -18.908,3.68 11.737,1.287 22.39,-0.811 31.961,-6.264 9.789,-5.111 17.267,-12.902 22.436,-23.412"
         id="path1379" />
      <path
         inkscape:connector-curvature="0"
         style="fill:#ffffff"
         d="m 933.59,355.078 c -2.744,3.681 -3.908,7.708 -3.472,12.091 0.448,4.374 2.365,7.81 5.724,10.318 3.352,2.496 7.188,3.317 11.504,2.484 4.316,-0.832 7.844,-3.113 10.582,-6.806 2.744,-3.681 3.908,-7.709 3.472,-12.091 -0.448,-4.375 -2.358,-7.797 -5.709,-10.293 -3.359,-2.508 -7.202,-3.343 -11.52,-2.509 -4.317,0.833 -7.842,3.112 -10.581,6.806"
         id="path1381" />
      <path
         inkscape:connector-curvature="0"
         style="fill:#ffffff"
         d="m 896.537,374.858 c -2.974,3.238 -4.281,6.947 -3.91,11.124 0.365,4.16 2.275,7.582 5.762,10.262 3.502,2.67 7.542,3.793 12.115,3.389 4.581,-0.389 8.373,-2.193 11.346,-5.43 2.977,-3.238 4.293,-6.936 3.927,-11.097 -0.373,-4.176 -2.291,-7.61 -5.778,-10.29 -3.5,-2.671 -7.541,-3.794 -12.114,-3.39 -4.581,0.39 -8.373,2.196 -11.348,5.432"
         id="path1383" />
      <path
         inkscape:connector-curvature="0"
         style="fill:#0e5cab"
         d="m 945.391,360.348 c -2.343,-0.997 -4.688,-1.039 -7.049,-0.086 -2.332,0.939 -4.008,2.566 -4.99,4.901 -0.984,2.334 -1.015,4.671 -0.075,7.005 0.938,2.335 2.573,4.021 4.886,5.033 2.336,0.985 4.674,1.013 7.009,0.074 2.361,-0.953 4.034,-2.58 5.032,-4.887 0.985,-2.334 1.015,-4.673 0.062,-7.034 -0.943,-2.333 -2.569,-4.007 -4.875,-5.006 m -3.834,2.381 c 1.669,-0.082 3.116,0.461 4.327,1.605 1.235,1.129 1.882,2.536 1.938,4.219 0.083,1.67 -0.459,3.116 -1.604,4.327 -1.128,1.236 -2.534,1.883 -4.221,1.938 -1.641,0.069 -3.088,-0.476 -4.324,-1.605 -1.21,-1.143 -1.856,-2.549 -1.939,-4.218 -0.068,-1.642 0.477,-3.089 1.605,-4.327 1.141,-1.209 2.548,-1.856 4.218,-1.939"
         id="path1385" />
      <path
         inkscape:connector-curvature="0"
         style="fill:#080101"
         d="m 945.884,364.334 c -1.211,-1.144 -2.658,-1.687 -4.327,-1.605 -1.67,0.083 -3.076,0.73 -4.219,1.939 -1.129,1.238 -1.674,2.685 -1.605,4.327 0.083,1.669 0.729,3.075 1.939,4.218 1.236,1.129 2.684,1.674 4.325,1.605 1.686,-0.055 3.092,-0.702 4.22,-1.938 1.146,-1.211 1.688,-2.657 1.605,-4.327 -0.056,-1.682 -0.702,-3.09 -1.938,-4.219"
         id="path1387" />
      <path
         inkscape:connector-curvature="0"
         style="fill:#ffffff"
         d="m 944.312,364.624 c -0.39,-0.356 -0.858,-0.544 -1.405,-0.533 -0.542,0.025 -1,0.229 -1.381,0.632 -0.382,0.403 -0.562,0.886 -0.545,1.446 0.025,0.541 0.242,0.992 0.659,1.366 0.403,0.381 0.865,0.558 1.404,0.531 0.556,-0.031 1.025,-0.242 1.381,-0.63 0.382,-0.404 0.562,-0.886 0.545,-1.448 -0.027,-0.54 -0.242,-0.99 -0.658,-1.364"
         id="path1389" />
      <path
         inkscape:connector-curvature="0"
         style="fill:#0e5cab"
         d="m 918.948,375.114 c -2.341,-0.997 -4.688,-1.041 -7.047,-0.086 -2.335,0.939 -4.008,2.566 -4.99,4.899 -0.985,2.334 -1.016,4.673 -0.075,7.008 0.937,2.332 2.572,4.021 4.887,5.033 2.335,0.982 4.672,1.014 7.006,0.072 2.362,-0.953 4.035,-2.58 5.033,-4.887 0.986,-2.334 1.015,-4.672 0.061,-7.033 -0.939,-2.334 -2.566,-4.007 -4.875,-5.006 m -3.833,2.382 c 1.669,-0.083 3.116,0.461 4.326,1.605 1.236,1.129 1.882,2.535 1.939,4.22 0.083,1.668 -0.462,3.114 -1.604,4.323 -1.13,1.238 -2.536,1.883 -4.22,1.941 -1.642,0.066 -3.09,-0.477 -4.326,-1.605 -1.21,-1.145 -1.857,-2.551 -1.938,-4.219 -0.069,-1.642 0.476,-3.09 1.605,-4.327 1.142,-1.209 2.548,-1.855 4.218,-1.938"
         id="path1391" />
      <path
         inkscape:connector-curvature="0"
         style="fill:#080101"
         d="m 919.441,379.101 c -1.21,-1.144 -2.657,-1.688 -4.326,-1.605 -1.67,0.083 -3.076,0.729 -4.218,1.938 -1.13,1.237 -1.675,2.685 -1.605,4.327 0.081,1.668 0.729,3.075 1.938,4.219 1.236,1.129 2.685,1.672 4.326,1.605 1.684,-0.059 3.09,-0.703 4.22,-1.941 1.144,-1.209 1.687,-2.655 1.604,-4.323 -0.057,-1.685 -0.702,-3.091 -1.939,-4.22"
         id="path1393" />
      <path
         inkscape:connector-curvature="0"
         style="fill:#ffffff"
         d="m 917.87,379.389 c -0.389,-0.355 -0.858,-0.543 -1.407,-0.532 -0.539,0.025 -0.997,0.228 -1.379,0.632 -0.381,0.404 -0.562,0.885 -0.543,1.447 0.022,0.54 0.242,0.991 0.657,1.365 0.404,0.381 0.865,0.556 1.406,0.532 0.554,-0.032 1.024,-0.243 1.38,-0.632 0.379,-0.403 0.562,-0.886 0.544,-1.447 -0.024,-0.54 -0.242,-0.99 -0.658,-1.365"
         id="path1395" />
      <path
         inkscape:connector-curvature="0"
         style="fill:#3793d1"
         d="m 933.54,355.015 c -0.187,0.259 -0.364,0.498 -0.535,0.75 7.896,-4.166 14.419,-5.051 19.566,-2.658 3.376,2.603 6.181,6.635 8.411,12.092 l 0.572,-1.583 c 0.049,-0.841 0.025,-1.694 -0.062,-2.564 -0.458,-4.388 -2.368,-7.843 -5.739,-10.344 -3.387,-2.529 -7.251,-3.369 -11.58,-2.529 -4.329,0.84 -7.87,3.129 -10.633,6.836"
         id="path1397" />
      <path
         inkscape:connector-curvature="0"
         style="fill:#3793d1"
         d="m 894.078,391.404 c 0.074,0.131 0.146,0.264 0.221,0.395 0.958,1.684 2.301,3.189 4.024,4.512 0.702,0.543 1.436,1.018 2.207,1.436 -2.186,-2.33 -3.492,-5.014 -3.934,-8.01 -0.017,-0.059 -0.02,-0.127 -0.029,-0.174 -0.311,-2.234 -0.143,-4.633 0.491,-7.222 0.069,-0.28 0.139,-0.561 0.226,-0.836 0.042,-0.144 0.09,-0.275 0.131,-0.419 1.75,-5.497 6.052,-9.424 12.92,-11.802 -0.814,-0.031 -1.632,-0.007 -2.475,0.064 -4.607,0.407 -8.412,2.218 -11.401,5.463 -0.097,0.106 -0.18,0.204 -0.264,0.303 -0.129,0.14 -0.244,0.275 -0.353,0.422 -2.55,3.069 -3.65,6.56 -3.312,10.458 0.18,1.963 0.689,3.776 1.548,5.41"
         id="path1399" />
      <path
         inkscape:connector-curvature="0"
         style="fill:#070101"
         d="m 931.109,359.23 c 2.816,-3.427 6.483,-5.455 10.98,-6.059 4.503,-0.626 8.56,0.403 12.154,3.057 1.878,1.412 3.395,3.164 4.538,5.245 1.095,1.988 1.727,4.149 1.892,6.464 0.411,-1.096 0.703,-2.436 0.867,-4.036 -0.223,-1.953 -0.683,-3.708 -1.382,-5.239 -0.438,-0.971 -0.985,-1.859 -1.653,-2.682 1.055,-3.014 1.14,-5.192 0.259,-6.52 -0.177,-0.283 -0.671,0.009 -1.476,0.893 -1.068,1.098 -1.736,1.732 -1.988,1.871 -0.086,-2.637 -0.7,-4.356 -1.853,-5.15 -0.35,-0.255 -0.806,0.294 -1.368,1.647 -0.301,0.671 -0.613,1.415 -0.949,2.21 -0.477,-1.258 -0.947,-2.225 -1.398,-2.909 -0.241,-0.403 -0.562,-0.727 -0.945,-0.98 -0.484,-0.371 -0.793,-0.303 -0.919,0.184 -0.343,1.56 -0.852,2.572 -1.515,3.063 -0.11,0.079 -0.269,0.168 -0.455,0.237 -0.724,0.006 -1.455,0.065 -2.214,0.161 -4.403,0.586 -7.972,2.232 -10.679,4.922 -0.912,1.253 -1.555,2.46 -1.896,3.621"
         id="path1401" />
      <path
         inkscape:connector-curvature="0"
         style="fill:#070101"
         d="m 898.823,375.726 c -0.429,0.535 -0.824,1.067 -1.172,1.625 l -0.073,0.18 0.184,0.486 -0.131,0.662 -0.204,0.321 c 0.093,0.814 0.053,1.705 -0.101,2.673 -0.054,0.428 -0.129,0.886 -0.192,1.39 -0.047,0.354 -0.171,0.72 -0.358,1.1 0.062,0.641 0.133,1.292 0.236,1.946 0.298,1.897 -0.085,3.479 -1.145,4.745 -0.089,0.119 -0.186,0.227 -0.289,0.318 0.335,0.975 0.798,1.895 1.385,2.762 0.937,1.4 2.189,2.713 3.734,3.926 1.447,0.701 2.72,1.15 3.841,1.357 -1.843,-1.346 -3.341,-3.004 -4.459,-4.979 -1.172,-2.064 -1.868,-4.277 -2.082,-6.617 -0.372,-4.453 0.882,-8.443 3.777,-11.949 2.875,-3.51 6.451,-5.576 10.722,-6.21 -1.042,-0.284 -2.277,-0.356 -3.706,-0.217 -3.828,0.872 -7.155,3.042 -9.967,6.481"
         id="path1403" />
      <path
         inkscape:connector-curvature="0"
         style="fill:#070101"
         d="m 891.398,387.129 c -1.174,0.223 -1.686,0.49 -1.535,0.789 0.682,1.438 2.538,2.498 5.59,3.186 0.033,0 0.074,0.01 0.094,0.016 0.01,0.014 0.023,0.039 0.031,0.053 0.104,-0.092 0.2,-0.199 0.289,-0.318 1.061,-1.266 1.442,-2.848 1.146,-4.745 -0.104,-0.651 -0.175,-1.305 -0.237,-1.946 0.188,-0.38 0.311,-0.745 0.358,-1.099 0.063,-0.504 0.139,-0.962 0.192,-1.391 0.153,-0.968 0.193,-1.858 0.102,-2.672 l 0.203,-0.322 0.132,-0.662 -0.185,-0.486 0.073,-0.18 c -0.051,0.063 -0.09,0.119 -0.128,0.176 -0.031,0.034 -0.084,0.063 -0.117,0.1 -0.111,0.079 -0.224,0.124 -0.324,0.163 -0.765,0.305 -1.894,0.209 -3.4,-0.319 -0.152,-0.055 -0.281,-0.07 -0.38,-0.031 -0.101,0.039 -0.179,0.117 -0.222,0.227 -0.056,0.118 -0.067,0.281 -0.038,0.489 0.014,0.461 0.123,0.903 0.337,1.319 0.346,0.743 0.922,1.652 1.743,2.718 -0.853,-0.13 -1.65,-0.256 -2.38,-0.352 -1.445,-0.232 -2.154,-0.133 -2.118,0.3 0.067,1.398 1.21,2.822 3.41,4.282 -0.251,0.138 -1.139,0.373 -2.636,0.705"
         id="path1405" />
    </g>
  </g>
</svg>
