<?xml version="1.0" encoding="UTF-8" standalone="no"?>
<!-- Created with Inkscape (http://www.inkscape.org/) -->

<svg
   xmlns:dc="http://purl.org/dc/elements/1.1/"
   xmlns:cc="http://creativecommons.org/ns#"
   xmlns:rdf="http://www.w3.org/1999/02/22-rdf-syntax-ns#"
   xmlns:svg="http://www.w3.org/2000/svg"
   xmlns="http://www.w3.org/2000/svg"
   xmlns:sodipodi="http://sodipodi.sourceforge.net/DTD/sodipodi-0.dtd"
   xmlns:inkscape="http://www.inkscape.org/namespaces/inkscape"
   width="198.81096"
   height="155.75253"
   id="svg5696"
   version="1.1"
   inkscape:version="0.48.4 r9939"
   sodipodi:docname="abby4.svg">
  <defs
     id="defs5698" />
  <sodipodi:namedview
     id="base"
     pagecolor="#ffffff"
     bordercolor="#666666"
     borderopacity="1.0"
     inkscape:pageopacity="0.0"
     inkscape:pageshadow="2"
     inkscape:zoom="0.77472527"
     inkscape:cx="44.226957"
     inkscape:cy="171.79179"
     inkscape:current-layer="layer1"
     inkscape:document-units="px"
     showgrid="false"
     inkscape:window-width="942"
     inkscape:window-height="591"
     inkscape:window-x="414"
     inkscape:window-y="49"
     inkscape:window-maximized="0"
     fit-margin-top="0"
     fit-margin-left="0"
     fit-margin-right="0"
     fit-margin-bottom="0" />
  <metadata
     id="metadata5701">
    <rdf:RDF>
      <cc:Work
         rdf:about="">
        <dc:format>image/svg+xml</dc:format>
        <dc:type
           rdf:resource="http://purl.org/dc/dcmitype/StillImage" />
        <dc:title></dc:title>
      </cc:Work>
    </rdf:RDF>
  </metadata>
  <g
     id="layer1"
     inkscape:label="Layer 1"
     inkscape:groupmode="layer"
     transform="translate(-65.874495,-256.03926)">
    <g
       transform="translate(-50.264703,-47.180888)"
       id="g1055">
      <path
         inkscape:connector-curvature="0"
         style="fill:#e27c9f"
         d="m 261.635,410.203 0.024,0.016 0.026,0.014 c 7.859,3.865 11.807,8.811 11.84,14.848 l 0.001,0.018 0.005,0.02 c -0.144,6.66 -4.29,10.736 -12.45,12.244 l -0.053,0.018 -0.08,0.006 c -7.019,0.627 -12.733,-0.447 -17.161,-3.25 0.801,4.537 -0.226,8.205 -3.064,11.002 -2.691,2.711 -5.159,4.061 -7.419,4.047 -2.312,0.127 -4.349,-1.145 -6.095,-3.814 l 0.012,0.006 c -4.121,-6.262 -5.482,-12.781 -4.096,-19.584 l -0.003,-0.02 0.009,-0.027 c 1.787,-7.049 6.526,-12.488 14.247,-16.305 l 0.087,-0.031 c 7.465,-3.104 15.51,-2.839 24.17,0.792 m -1.375,1.936 0.07,0.025 c -7.856,-3.291 -15.158,-3.58 -21.929,-0.846 -6.906,3.416 -11.171,8.291 -12.787,14.609 -1.271,6.332 -0.01,12.41 3.831,18.227 1.224,1.859 2.589,2.812 4.083,2.857 1.575,-0.117 3.354,-1.172 5.346,-3.17 3.401,-3.014 3.597,-8.395 0.609,-16.164 6.235,6.275 13.386,8.797 21.43,7.551 6.559,-1.229 9.925,-4.523 10.09,-9.889 -0.117,-5.341 -3.705,-9.739 -10.743,-13.2"
         id="path1057" />
      <path
         inkscape:connector-curvature="0"
         style="fill:#f8e6f0"
         d="m 260.331,412.164 -0.07,-0.025 c 7.038,3.461 10.626,7.859 10.742,13.201 -0.165,5.365 -3.53,8.66 -10.089,9.889 -8.044,1.248 -15.196,-1.275 -21.431,-7.551 2.989,7.77 2.792,13.15 -0.609,16.164 -1.992,1.998 -3.771,3.053 -5.346,3.17 -1.493,-0.045 -2.858,-0.998 -4.082,-2.857 -3.841,-5.816 -5.102,-11.895 -3.831,-18.227 1.616,-6.318 5.881,-11.193 12.786,-14.609 6.77,-2.735 14.074,-2.446 21.93,0.845"
         id="path1059" />
      <path
         inkscape:connector-curvature="0"
         style="fill:#e27c9f"
         d="m 220.184,378.446 -0.022,-0.019 -0.024,-0.02 c -6.386,-6.556 -12.926,-9.284 -19.628,-8.172 l -0.023,10e-4 -0.021,0.001 c -7.35,1.391 -10.765,6.003 -10.251,13.851 l -0.009,0.054 0.015,0.075 c 1.184,6.623 3.903,11.716 8.195,15.292 -5.248,0.113 -9.042,1.76 -11.383,4.918 -2.288,3.006 -3.126,5.549 -2.504,7.641 0.477,2.166 2.43,3.816 5.86,4.93 l -0.011,-0.01 c 8.047,2.637 15.641,2.668 22.815,0.098 h 0.022 l 0.031,-0.014 c 7.339,-2.986 12.103,-8.41 14.269,-16.283 l 0.017,-0.086 c 1.442,-7.508 -1.002,-14.914 -7.348,-22.257 m -1.777,1.641 -0.046,-0.062 c 5.75,6.662 8.022,13.375 6.801,20.168 -1.943,7.047 -6.209,11.92 -12.785,14.611 -6.683,2.375 -13.763,2.354 -21.24,-0.109 -2.389,-0.783 -3.813,-1.869 -4.257,-3.244 -0.293,-1.482 0.4,-3.33 2.084,-5.555 2.433,-3.721 8.348,-4.92 17.763,-3.615 -8.627,-4.596 -13.337,-10.746 -14.106,-18.439 -0.388,-6.312 2.366,-10.055 8.271,-11.221 5.954,-0.9 11.794,1.595 17.515,7.466"
         id="path1061" />
      <path
         inkscape:connector-curvature="0"
         style="fill:#f8e6f0"
         d="m 218.361,380.026 0.046,0.062 c -5.721,-5.87 -11.561,-8.366 -17.515,-7.466 -5.905,1.166 -8.659,4.909 -8.271,11.221 0.769,7.692 5.479,13.843 14.106,18.438 -9.415,-1.305 -15.33,-0.105 -17.763,3.615 -1.685,2.225 -2.377,4.072 -2.084,5.555 0.444,1.375 1.868,2.461 4.257,3.244 7.477,2.463 14.557,2.484 21.24,0.109 6.576,-2.691 10.842,-7.564 12.785,-14.611 1.22,-6.793 -1.051,-13.505 -6.801,-20.167"
         id="path1063" />
      <path
         inkscape:connector-curvature="0"
         style="fill:#e27c9f"
         d="m 213.221,421.309 4.383,6.549 c -4.632,4.561 -11.183,8.621 -19.637,12.209 -0.126,1.947 -0.449,3.971 -0.969,6.082 -0.515,2.111 -1.25,4.006 -2.207,5.701 -0.937,1.701 -1.891,2.947 -2.841,3.742 -0.943,0.807 -2.038,1.426 -3.255,1.873 -1.218,0.447 -2.244,0.412 -3.091,-0.1 -0.835,-0.518 -1.675,-1.535 -2.521,-3.053 -0.822,-1.801 -1.264,-3.525 -1.317,-5.16 -0.052,-1.635 0.101,-3.332 0.441,-5.096 0.349,-1.75 0.928,-3.455 1.735,-5.107 0.777,-1.615 1.78,-3.09 3.011,-4.426 1.322,-0.281 4.512,-1.43 9.563,-3.461 5.078,-2.013 10.646,-5.275 16.705,-9.753"
         id="path1065" />
      <path
         inkscape:connector-curvature="0"
         style="fill:none;stroke:#c4084a;stroke-width:2.43099999;stroke-linecap:round;stroke-linejoin:round;stroke-miterlimit:10"
         d="m 217.604,427.857 -4.383,-6.549 c -6.059,4.479 -11.627,7.74 -16.704,9.754 -5.052,2.031 -8.242,3.18 -9.563,3.461 -1.231,1.336 -2.235,2.811 -3.012,4.426 -0.807,1.652 -1.385,3.357 -1.734,5.107 -0.341,1.764 -0.494,3.461 -0.441,5.096 0.052,1.635 0.494,3.359 1.316,5.16 0.846,1.518 1.686,2.535 2.521,3.053"
         id="path1067" />
      <path
         inkscape:connector-curvature="0"
         style="fill:none;stroke:#c4084a;stroke-width:2.43099999;stroke-linecap:round;stroke-miterlimit:10"
         d="m 185.604,457.365 c 0.848,0.512 1.874,0.547 3.091,0.1 1.218,-0.447 2.312,-1.066 3.256,-1.873 0.949,-0.795 1.903,-2.041 2.841,-3.742 0.956,-1.695 1.691,-3.59 2.207,-5.701 0.52,-2.111 0.842,-4.135 0.968,-6.082 8.454,-3.588 15.006,-7.648 19.637,-12.209"
         id="path1069" />
      <path
         inkscape:connector-curvature="0"
         style="fill:#e27c9f"
         d="m 205.032,415.674 2.723,7.479 c -5.722,2.77 -13.22,4.469 -22.488,5.125 -0.606,1.77 -1.429,3.547 -2.464,5.348 -1.037,1.799 -2.234,3.324 -3.603,4.598 -1.349,1.285 -2.603,2.141 -3.741,2.578 -1.135,0.453 -2.373,0.682 -3.691,0.709 -1.318,0.031 -2.326,-0.328 -3.04,-1.07 -0.698,-0.746 -1.278,-1.961 -1.74,-3.639 -0.37,-1.936 -0.38,-3.678 -0.026,-5.215 0.35,-1.537 0.925,-3.066 1.699,-4.6 0.778,-1.518 1.773,-2.914 2.983,-4.195 1.171,-1.256 2.531,-2.311 4.082,-3.162 1.38,0.16 4.827,0.104 10.335,-0.184 5.531,-0.262 11.858,-1.53 18.971,-3.772"
         id="path1071" />
      <path
         inkscape:connector-curvature="0"
         style="fill:none;stroke:#c4084a;stroke-width:2.421;stroke-linecap:round;stroke-linejoin:round;stroke-miterlimit:10"
         d="m 207.755,423.152 -2.723,-7.479 c -7.113,2.242 -13.441,3.51 -18.971,3.771 -5.508,0.287 -8.955,0.344 -10.335,0.186 -1.551,0.85 -2.911,1.904 -4.082,3.16 -1.21,1.281 -2.205,2.678 -2.983,4.195 -0.774,1.533 -1.349,3.062 -1.699,4.6 -0.354,1.537 -0.344,3.279 0.025,5.215 0.463,1.678 1.042,2.891 1.741,3.639"
         id="path1073" />
      <path
         inkscape:connector-curvature="0"
         style="fill:none;stroke:#c4084a;stroke-width:2.421;stroke-linecap:round;stroke-miterlimit:10"
         d="m 168.729,440.439 c 0.714,0.742 1.722,1.102 3.04,1.07 1.318,-0.027 2.556,-0.256 3.69,-0.709 1.139,-0.438 2.393,-1.293 3.742,-2.578 1.369,-1.273 2.566,-2.799 3.603,-4.598 1.035,-1.801 1.858,-3.578 2.464,-5.35 9.268,-0.654 16.766,-2.354 22.488,-5.123"
         id="path1075" />
      <path
         inkscape:connector-curvature="0"
         style="fill:#e27c9f"
         d="m 237.206,425.523 4.222,-7.668 c 4.658,8.184 12.317,12.143 23.003,11.896 2.541,2.473 3.244,5.334 2.096,8.574 -13.944,-0.675 -23.717,-4.936 -29.321,-12.802"
         id="path1077" />
      <path
         inkscape:connector-curvature="0"
         style="fill:none;stroke:#c4084a;stroke-width:2.421;stroke-linecap:round;stroke-linejoin:round;stroke-miterlimit:10"
         d="m 241.428,417.855 c 4.659,8.184 12.317,12.143 23.003,11.895 m 2.096,8.576 c -13.943,-0.676 -23.717,-4.938 -29.321,-12.803"
         id="path1079" />
      <path
         inkscape:connector-curvature="0"
         style="fill:#c4084a"
         d="m 260.696,425.938 c -0.353,-1.537 0.033,-2.988 1.178,-4.377 1.599,-1.945 3.617,-2.695 6.079,-2.273 0.076,0.014 0.136,0.027 0.192,0.055 1.586,0.551 2.785,1.566 3.598,3.043 l -0.013,-0.02 c 0.287,0.49 0.446,1.002 0.461,1.543 2.966,-0.926 6.112,-1.215 9.453,-0.865 0.017,-0.01 0.032,-0.008 0.032,-0.008 2.361,0.307 4.004,1.041 4.954,2.223 1.087,1.191 1.42,2.818 0.982,4.908 -0.001,0.014 -0.008,0.043 -0.012,0.059 -0.555,2.371 -2.258,3.463 -5.092,3.275 2.469,2.598 3.471,5.426 2.989,8.494 l -0.009,-0.033 c -0.194,1.875 -0.9,3.152 -2.135,3.844 -1.085,0.709 -2.641,0.84 -4.636,0.406 -0.075,-0.016 -0.148,-0.031 -0.22,-0.061 -1.688,-0.729 -2.678,-1.947 -2.948,-3.668 -0.623,2.082 -1.869,3.666 -3.729,4.771 -1.832,1.127 -3.564,1.287 -5.196,0.51 -0.013,-0.02 -0.027,-0.023 -0.041,-0.025 -1.133,-0.584 -2.005,-1.393 -2.64,-2.449 -0.139,-0.227 -0.244,-0.465 -0.331,-0.729 -0.226,-0.711 -0.238,-1.408 -0.035,-2.107 l -0.006,0.029 c 0.068,-0.264 0.149,-0.51 0.253,-0.721 0.086,-0.199 0.189,-0.395 0.273,-0.594 0.019,-0.012 0.022,-0.025 0.026,-0.041 0.05,-0.096 0.157,-0.322 0.321,-0.676 -2.212,-1.109 -3.097,-2.773 -2.664,-5 2.126,3.379 5.012,4.535 8.645,3.432 -0.546,0.955 -1.585,1.516 -3.102,1.689 l -0.017,-0.004 c -0.649,0.236 -1.15,0.801 -1.513,1.684 -0.156,0.541 -0.057,1.193 0.318,1.947 0.393,0.574 0.901,1.033 1.529,1.361 0.926,0.387 1.778,0.375 2.576,-0.066 0.539,-0.293 0.96,-0.547 1.239,-0.783 2.453,-1.896 3.461,-4.133 3.004,-6.678 l -0.125,-0.984 c 1.255,1.041 2.017,2.154 2.312,3.371 0.374,1.82 1.285,2.961 2.743,3.457 1.172,0.236 2.077,0.188 2.719,-0.16 0.556,-0.383 0.877,-1.059 0.976,-2.01 0.005,-0.014 0.007,-0.029 0.011,-0.045 0.345,-3.004 -0.999,-5.744 -4.065,-8.217 -1.455,-1.205 -2.733,-1.818 -3.827,-1.84 1.427,-1.178 3.526,-1.402 6.313,-0.682 0.104,0.02 0.222,0.043 0.326,0.064 1.854,0.299 2.998,-0.166 3.417,-1.393 0.219,-1.16 0.065,-2.086 -0.46,-2.764 -0.689,-0.711 -1.832,-1.174 -3.44,-1.391 l 0.029,0.004 c -0.015,-0.002 -0.015,-0.002 -0.029,-0.004 -3.34,-0.352 -6.513,-0.006 -9.531,1.02 -0.023,0.119 -0.191,0.486 -0.514,1.1 -0.314,0.631 -0.303,1.422 0.014,2.365 -0.731,-0.504 -1.23,-1.098 -1.478,-1.766 -0.252,-0.668 -0.334,-1.332 -0.258,-2.012 0.09,-0.678 0.137,-1.207 0.165,-1.588 0.032,-0.379 -0.067,-0.801 -0.304,-1.236 -0.091,-0.156 -0.198,-0.316 -0.305,-0.477 -0.449,-0.539 -1.016,-0.932 -1.706,-1.18 -1.375,-0.217 -2.535,0.168 -3.463,1.168 -0.887,0.947 -1.225,2.16 -1.008,3.609 0.025,0.33 0.072,0.709 0.146,1.109 0.242,1.238 0.286,2.328 0.145,3.256 l -2.055,-2.143 c -0.05,-0.58 -0.223,-1.478 -0.511,-2.726"
         id="path1081" />
      <path
         inkscape:connector-curvature="0"
         style="fill:#e27c9f"
         d="m 281.359,425.441 c 1.607,0.217 2.75,0.68 3.439,1.391 0.526,0.678 0.68,1.604 0.461,2.764 -0.42,1.227 -1.563,1.689 -3.417,1.393 -0.104,-0.021 -0.222,-0.045 -0.326,-0.066 -2.787,-0.719 -4.886,-0.494 -6.313,0.684 1.093,0.02 2.372,0.635 3.827,1.84 3.066,2.473 4.41,5.213 4.065,8.217 -0.005,0.016 -0.007,0.031 -0.011,0.045 -0.099,0.951 -0.42,1.627 -0.976,2.01 -0.642,0.348 -1.547,0.396 -2.719,0.16 -1.458,-0.496 -2.369,-1.639 -2.743,-3.457 -0.295,-1.217 -1.058,-2.33 -2.312,-3.371 l 0.125,0.984 c 0.457,2.545 -0.551,4.781 -3.004,6.678 -0.279,0.236 -0.7,0.49 -1.239,0.783 -0.798,0.441 -1.65,0.453 -2.576,0.066 -0.628,-0.328 -1.136,-0.787 -1.53,-1.361 -0.374,-0.754 -0.471,-1.406 -0.317,-1.947 0.363,-0.883 0.864,-1.447 1.516,-1.684 l 0.014,0.004 c 1.516,-0.174 2.556,-0.736 3.102,-1.689 -3.633,1.104 -6.519,-0.053 -8.645,-3.432 l 1.482,-4.641 c 0.141,-0.928 0.099,-2.018 -0.145,-3.256 -0.074,-0.4 -0.121,-0.779 -0.146,-1.109 -0.217,-1.449 0.121,-2.662 1.008,-3.609 0.928,-1 2.088,-1.385 3.463,-1.168 0.689,0.248 1.257,0.641 1.706,1.18 0.107,0.16 0.214,0.32 0.305,0.477 0.237,0.436 0.336,0.857 0.304,1.236 -0.028,0.379 -0.073,0.91 -0.165,1.588 -0.076,0.68 0.006,1.344 0.258,2.012 0.248,0.668 0.747,1.262 1.478,1.766 -0.317,-0.943 -0.328,-1.734 -0.014,-2.365 0.323,-0.613 0.491,-0.98 0.514,-1.1 3.018,-1.028 6.191,-1.374 9.531,-1.023"
         id="path1083" />
      <path
         inkscape:connector-curvature="0"
         style="fill:#3793d1"
         d="m 245.842,415.918 3.312,-4.119 -17.209,-14.457 -5.524,2.664 -3.264,0.516 -0.09,-0.004 c -3.384,0.652 -6.672,1.473 -9.859,2.443 -10.488,3.213 -18.067,7.539 -22.735,12.975 l -1.227,1.346 1.282,1.264 c 0.819,0.863 1.953,1.555 3.39,2.08 -0.4,0.436 -0.757,0.895 -1.094,1.354 l -1.16,1.504 1.519,1.164 c 0.742,0.629 1.671,1.123 2.787,1.486 -0.614,1.049 -1.116,2.102 -1.493,3.133 l -0.77,1.873 2.155,0.645 c 1.497,0.5 3.312,0.656 5.437,0.455 -0.218,0.717 -0.367,1.416 -0.469,2.102 l -0.347,2.01 2.325,0.254 c 0.405,0.053 0.812,0.086 1.232,0.111 -0.173,0.938 -0.256,1.863 -0.256,2.764 l -0.1,2.008 2.384,0.008 c 1.88,0.023 4.027,-0.396 6.406,-1.252 0.007,0.182 0.025,0.354 0.052,0.541 l 0.134,1.943 2.362,-0.148 c 0.483,-0.02 0.979,-0.066 1.492,-0.141 0.078,1.422 0.358,2.752 0.853,3.98 l 0.623,1.799 2.195,-0.502 c 3.276,-0.678 6.838,-2.594 10.688,-5.752 7.204,-5.928 12.19,-14.615 14.969,-26.047 m 0.139,-3.77 -2.65,3.275 0.158,-0.01 c -2.641,11.027 -7.4,19.383 -14.267,25.07 -3.433,2.826 -6.611,4.557 -9.514,5.189 -0.689,-1.805 -0.874,-3.848 -0.554,-6.127 -1.496,0.531 -2.892,0.844 -4.174,0.92 -0.109,-1.195 -0.037,-2.436 0.224,-3.725 -3.506,1.76 -6.491,2.635 -8.974,2.635 0.018,-1.631 0.373,-3.326 1.048,-5.098 -1.48,0.287 -2.816,0.352 -3.999,0.223 0.276,-1.623 0.849,-3.303 1.733,-5.033 -3.427,0.85 -6.161,0.957 -8.206,0.32 0.643,-1.699 1.6,-3.395 2.879,-5.104 -2.081,-0.238 -3.692,-0.793 -4.814,-1.646 0.961,-1.275 2.078,-2.492 3.36,-3.672 -2.671,-0.332 -4.61,-1.078 -5.815,-2.262 4.416,-5.086 11.584,-9.139 21.498,-12.166 3.085,-0.947 6.266,-1.729 9.56,-2.367 l 3.653,-0.59 4.299,-2.062 14.555,12.23 z"
         id="path1085" />
      <path
         inkscape:connector-curvature="0"
         style="fill:#86c1ea"
         d="m 243.331,415.424 2.65,-3.275 -14.554,-12.229 -4.3,2.062 -3.652,0.59 c -3.294,0.639 -6.476,1.42 -9.561,2.367 -9.914,3.027 -17.082,7.078 -21.498,12.166 1.206,1.184 3.144,1.93 5.815,2.262 0.82,0.096 1.691,0.156 2.624,0.174 1.211,0.023 2.47,-0.037 3.769,-0.16 -1.991,1.771 -3.628,3.543 -4.939,5.305 -1.279,1.709 -2.236,3.404 -2.879,5.104 2.046,0.637 4.78,0.531 8.206,-0.32 0.566,-0.131 1.158,-0.297 1.791,-0.49 1.42,-0.412 2.856,-0.922 4.331,-1.545 -1.752,2.398 -3.042,4.689 -3.855,6.846 -0.676,1.771 -1.031,3.467 -1.049,5.096 2.484,0.002 5.468,-0.875 8.974,-2.633 0.387,-0.207 0.787,-0.422 1.188,-0.639 1.599,-0.863 3.167,-1.873 4.684,-3.02 -1.015,2.336 -1.65,4.484 -1.922,6.463 -0.32,2.279 -0.135,4.322 0.554,6.127 2.903,-0.633 6.081,-2.363 9.515,-5.188 6.867,-5.689 11.625,-14.043 14.266,-25.074 l -0.158,0.011 z"
         id="path1087" />
      <path
         inkscape:connector-curvature="0"
         style="fill:#bc9fca"
         d="m 198.23,419.367 c -1.281,1.18 -2.399,2.395 -3.359,3.672 1.121,0.854 2.733,1.408 4.814,1.646 1.31,-1.762 2.947,-3.533 4.938,-5.305 -1.299,0.123 -2.558,0.184 -3.769,0.16 -0.933,-0.017 -1.804,-0.077 -2.624,-0.173"
         id="path1089" />
      <path
         inkscape:connector-curvature="0"
         style="fill:#bc9fca"
         d="m 206.802,428.979 c -0.632,0.193 -1.225,0.359 -1.791,0.49 -0.883,1.73 -1.457,3.41 -1.732,5.033 1.183,0.129 2.52,0.064 3.999,-0.223 0.814,-2.156 2.104,-4.447 3.855,-6.846 -1.475,0.624 -2.911,1.133 -4.331,1.546 l 0,0 z"
         id="path1091" />
      <path
         inkscape:connector-curvature="0"
         style="fill:#bc9fca"
         d="m 221.076,433.084 c -1.518,1.146 -3.085,2.156 -4.685,3.02 -0.4,0.215 -0.8,0.432 -1.187,0.639 -0.261,1.289 -0.333,2.529 -0.224,3.725 1.283,-0.076 2.679,-0.389 4.174,-0.92 0.272,-1.98 0.907,-4.128 1.922,-6.464"
         id="path1093" />
      <path
         inkscape:connector-curvature="0"
         style="fill:#d4074c"
         d="m 131.034,413.076 c -0.288,0.547 -0.331,1.113 -0.145,1.701 l 0.116,0.373 c 0.198,0.584 0.555,1.023 1.088,1.314 0.541,0.271 1.106,0.316 1.686,0.15 l 65.34,-20.457 c 0.573,-0.18 0.993,-0.547 1.266,-1.088 0.286,-0.545 0.33,-1.113 0.161,-1.705 l -0.118,-0.373 c -0.197,-0.584 -0.571,-1.02 -1.102,-1.311 -0.542,-0.27 -1.093,-0.318 -1.648,-0.131 l -65.363,20.434 c -0.57,0.193 -0.99,0.564 -1.281,1.093"
         id="path1095" />
      <path
         inkscape:connector-curvature="0"
         style="fill:none;stroke:#d40247;stroke-width:4.51100016;stroke-miterlimit:10"
         d="m 130.889,414.777 0.116,0.373 c 0.198,0.584 0.555,1.023 1.088,1.316 0.541,0.27 1.106,0.314 1.686,0.148 l 65.34,-20.457 c 0.573,-0.18 0.993,-0.547 1.266,-1.088 0.286,-0.545 0.33,-1.113 0.161,-1.705 l -0.118,-0.373 c -0.197,-0.584 -0.571,-1.02 -1.102,-1.311 -0.541,-0.27 -1.093,-0.318 -1.648,-0.131 l -65.363,20.434 c -0.57,0.191 -0.99,0.562 -1.281,1.092 -0.288,0.548 -0.331,1.114 -0.145,1.702 z"
         id="path1097" />
      <path
         inkscape:connector-curvature="0"
         style="fill:#d4074c"
         d="m 131.034,413.076 c -0.288,0.547 -0.331,1.113 -0.145,1.701 l 0.116,0.373 c 0.198,0.584 0.555,1.023 1.088,1.314 0.541,0.271 1.106,0.316 1.686,0.15 l 65.34,-20.457 c 0.573,-0.18 0.993,-0.547 1.266,-1.088 0.286,-0.545 0.33,-1.113 0.161,-1.705 l -0.118,-0.373 c -0.197,-0.584 -0.571,-1.02 -1.102,-1.311 -0.542,-0.27 -1.093,-0.318 -1.648,-0.131 l -65.363,20.434 c -0.57,0.193 -0.99,0.564 -1.281,1.093"
         id="path1099" />
      <path
         inkscape:connector-curvature="0"
         style="fill:none;stroke:#d4074c;stroke-width:2.34599996;stroke-miterlimit:10"
         d="m 130.889,414.777 0.116,0.373 c 0.198,0.584 0.555,1.023 1.088,1.316 0.541,0.27 1.106,0.314 1.686,0.148 l 65.34,-20.457 c 0.573,-0.18 0.993,-0.547 1.266,-1.088 0.286,-0.545 0.33,-1.113 0.161,-1.705 l -0.118,-0.373 c -0.197,-0.584 -0.571,-1.02 -1.102,-1.311 -0.541,-0.27 -1.093,-0.318 -1.648,-0.131 l -65.363,20.434 c -0.57,0.191 -0.99,0.562 -1.281,1.092 -0.288,0.548 -0.331,1.114 -0.145,1.702 z"
         id="path1101" />
      <polygon
         style="fill:#d4074c"
         points="176.211,403.318 171.655,399.688 168.698,400.611 173.24,404.248 "
         id="polygon1103" />
      <polygon
         style="fill:none;stroke:#d4074c;stroke-width:2.34599996;stroke-miterlimit:10"
         points="176.211,403.318 173.24,404.248 168.699,400.611 171.655,399.688 "
         id="polygon1105" />
      <polygon
         style="fill:#d4074c"
         points="145.758,412.855 149.05,411.842 151.668,405.951 148.352,406.986 "
         id="polygon1107" />
      <polygon
         style="fill:none;stroke:#d4074c;stroke-width:2.34599996;stroke-miterlimit:10"
         points="145.758,412.855 148.352,406.986 151.668,405.951 149.05,411.842 "
         id="polygon1109" />
      <polygon
         style="fill:#d4074c"
         points="159.954,408.418 155.413,404.779 152.461,405.67 157.001,409.355 "
         id="polygon1111" />
      <polygon
         style="fill:none;stroke:#d4074c;stroke-width:2.34599996;stroke-miterlimit:10"
         points="159.954,408.418 157.001,409.355 152.461,405.67 155.413,404.779 "
         id="polygon1113" />
      <polygon
         style="fill:#d4074c"
         points="167.45,401 164.174,402.01 161.58,407.926 164.833,406.893 "
         id="polygon1115" />
      <polygon
         style="fill:none;stroke:#d4074c;stroke-width:2.34599996;stroke-miterlimit:10"
         points="167.45,401 164.833,406.893 161.58,407.926 164.174,402.01 "
         id="polygon1117" />
      <polygon
         style="fill:#d4074c"
         points="177.819,402.818 181.096,401.809 183.732,395.928 180.456,396.938 "
         id="polygon1119" />
      <polygon
         style="fill:none;stroke:#d4074c;stroke-width:2.34599996;stroke-miterlimit:10"
         points="177.819,402.818 180.456,396.938 183.732,395.928 181.096,401.809 "
         id="polygon1121" />
      <polygon
         style="fill:#d4074c"
         points="188.735,394.348 185.76,395.26 190.311,398.928 193.276,397.984 "
         id="polygon1123" />
      <polygon
         style="fill:none;stroke:#d4074c;stroke-width:2.34599996;stroke-miterlimit:10"
         points="188.735,394.348 193.276,397.984 190.311,398.928 185.76,395.26 "
         id="polygon1125" />
      <path
         inkscape:connector-curvature="0"
         style="fill:#84539c"
         d="m 131.034,413.076 c -0.288,0.547 -0.331,1.113 -0.145,1.701 l 0.116,0.373 c 0.198,0.584 0.555,1.023 1.088,1.314 0.541,0.271 1.106,0.316 1.686,0.15 l 65.34,-20.457 c 0.573,-0.18 0.993,-0.547 1.266,-1.088 0.286,-0.545 0.33,-1.113 0.161,-1.705 l -0.118,-0.373 c -0.197,-0.584 -0.571,-1.02 -1.102,-1.311 -0.542,-0.27 -1.093,-0.318 -1.648,-0.131 l -65.363,20.434 c -0.57,0.193 -0.99,0.564 -1.281,1.093"
         id="path1127" />
      <polygon
         style="fill:#e97ca0"
         points="176.211,403.318 171.655,399.688 168.698,400.611 173.24,404.248 "
         id="polygon1129" />
      <polygon
         style="fill:#6bc4ee"
         points="145.758,412.855 149.05,411.842 151.668,405.951 148.352,406.986 "
         id="polygon1131" />
      <polygon
         style="fill:#e97ca0"
         points="159.954,408.418 155.413,404.779 152.461,405.67 157.001,409.355 "
         id="polygon1133" />
      <polygon
         style="fill:#6bc4ee"
         points="167.45,401 164.174,402.01 161.58,407.926 164.833,406.893 "
         id="polygon1135" />
      <polygon
         style="fill:#6bc4ee"
         points="177.819,402.818 181.096,401.809 183.732,395.928 180.456,396.938 "
         id="polygon1137" />
      <polygon
         style="fill:#e97ca0"
         points="188.735,394.348 185.76,395.26 190.311,398.928 193.276,397.984 "
         id="polygon1139" />
      <path
         inkscape:connector-curvature="0"
         style="fill:#f0d5e6"
         d="m 119.599,423.883 c 0.977,0.355 1.922,0.107 2.839,-0.746 0.91,-0.867 2.058,-2.234 3.42,-4.125 1.546,-1.76 3.638,-3.234 6.29,-4.424 l -0.11,0.002 c -2.792,0.588 -5.191,1.229 -7.183,1.914 -3.72,1.305 -5.819,2.955 -6.319,4.938 -0.326,1.283 0.021,2.087 1.063,2.441"
         id="path1141" />
      <path
         inkscape:connector-curvature="0"
         style="fill:#f0d5e6"
         d="m 141.573,406.078 c -1.442,1.789 -2.789,3.332 -4.025,4.615 -1.239,1.283 -3.097,2.59 -5.596,3.922 0.805,0.207 3.205,-0.434 7.171,-1.908 3.733,-1.311 5.852,-2.949 6.355,-4.918 0.31,-1.279 -0.042,-2.1 -1.066,-2.455 -0.987,-0.336 -1.935,-0.09 -2.839,0.744"
         id="path1143" />
      <path
         inkscape:connector-curvature="0"
         style="fill:#f0d5e6"
         d="m 122.325,426.811 c 1.045,0.068 1.901,-0.42 2.567,-1.465 0.657,-1.07 1.426,-2.697 2.28,-4.902 1.038,-2.074 2.691,-4.039 4.992,-5.908 l -0.126,0.055 c -2.557,1.289 -4.694,2.523 -6.423,3.693 -3.277,2.221 -4.909,4.355 -4.887,6.396 0.004,1.32 0.542,2.037 1.597,2.131"
         id="path1145" />
      <path
         inkscape:connector-curvature="0"
         style="fill:#6bc4ee"
         d="m 119.599,423.883 c 0.977,0.355 1.922,0.107 2.839,-0.746 0.91,-0.867 2.058,-2.234 3.42,-4.125 1.546,-1.76 3.638,-3.234 6.29,-4.424 l -0.11,0.002 c -2.695,0.4 -5.5,1.152 -8.407,2.232 -2.904,1.098 -4.595,2.637 -5.095,4.619 -0.326,1.284 0.021,2.088 1.063,2.442"
         id="path1147" />
      <path
         inkscape:connector-curvature="0"
         style="fill:#eddd00"
         d="m 122.325,426.811 c 1.045,0.068 1.901,-0.42 2.567,-1.465 0.657,-1.07 1.426,-2.697 2.28,-4.902 1.038,-2.074 2.691,-4.039 4.992,-5.908 l -0.126,0.055 c -2.557,1.289 -4.694,2.523 -6.423,3.693 -3.277,2.221 -4.909,4.355 -4.887,6.396 0.004,1.32 0.542,2.037 1.597,2.131"
         id="path1149" />
      <path
         inkscape:connector-curvature="0"
         style="fill:#eddd00"
         d="m 138.398,410.945 c 3.271,-2.234 4.906,-4.369 4.883,-6.408 -0.009,-1.336 -0.543,-2.037 -1.592,-2.119 -1.046,-0.066 -1.901,0.422 -2.567,1.465 -0.949,2.107 -1.716,3.734 -2.285,4.891 -1.042,2.057 -2.672,4.002 -4.885,5.842 0.694,-0.2 2.848,-1.427 6.446,-3.671"
         id="path1151" />
      <path
         inkscape:connector-curvature="0"
         style="fill:#f0d5e6"
         d="m 125.676,428.914 c 1.012,-0.189 1.711,-0.881 2.094,-2.072 0.39,-1.225 0.713,-3.012 0.975,-5.346 0.499,-2.236 1.594,-4.531 3.293,-6.906 -2.163,1.904 -3.931,3.654 -5.311,5.236 -2.643,2.984 -3.693,5.471 -3.155,7.445 0.341,1.297 1.045,1.833 2.104,1.643"
         id="path1153" />
      <path
         inkscape:connector-curvature="0"
         style="fill:#6bc4ee"
         d="m 136.244,402.389 c -0.391,2.281 -0.817,4.287 -1.285,6.025 -0.464,1.736 -1.493,3.84 -3.066,6.314 l 0.082,-0.088 c 0.562,-0.318 2.322,-2.049 5.292,-5.199 2.625,-2.994 3.689,-5.486 3.175,-7.482 -0.357,-1.293 -1.045,-1.834 -2.105,-1.645 -1.027,0.196 -1.724,0.887 -2.093,2.075"
         id="path1155" />
      <path
         inkscape:connector-curvature="0"
         style="fill:#f0d5e6"
         d="m 127.001,429.068 c 0.645,1.154 1.461,1.496 2.436,1.033 0.936,-0.432 1.446,-1.27 1.507,-2.535 0.071,-1.281 -0.051,-3.086 -0.364,-5.4 -0.09,-2.35 0.414,-4.918 1.488,-7.682 l -0.053,0.08 c -1.595,2.406 -2.863,4.551 -3.806,6.422 -1.791,3.6 -2.193,6.293 -1.208,8.082"
         id="path1157" />
      <path
         inkscape:connector-curvature="0"
         style="fill:#f0d5e6"
         d="m 125.676,428.914 c 1.012,-0.189 1.711,-0.881 2.094,-2.072 0.39,-1.225 0.713,-3.012 0.975,-5.346 0.499,-2.236 1.594,-4.531 3.293,-6.906 -2.163,1.904 -3.931,3.654 -5.311,5.236 -2.643,2.984 -3.693,5.471 -3.155,7.445 0.341,1.297 1.045,1.833 2.104,1.643"
         id="path1159" />
      <path
         inkscape:connector-curvature="0"
         style="fill:#6bc4ee"
         d="m 127.001,429.068 c 0.645,1.154 1.461,1.496 2.436,1.033 0.936,-0.432 1.446,-1.27 1.507,-2.535 0.071,-1.281 -0.037,-3.139 -0.31,-5.574 -0.021,-2.184 0.455,-4.695 1.434,-7.508 l -0.053,0.08 c -1.595,2.406 -2.863,4.551 -3.806,6.422 -1.791,3.6 -2.193,6.293 -1.208,8.082"
         id="path1161" />
      <path
         inkscape:connector-curvature="0"
         style="fill:#eddd00"
         d="m 131.918,414.754 0.058,-0.113 c 0.395,-0.707 1.679,-2.842 3.835,-6.43 1.803,-3.557 2.196,-6.232 1.207,-8.033 -0.663,-1.164 -1.47,-1.527 -2.443,-1.064 -0.936,0.434 -1.442,1.285 -1.509,2.535 0.194,2.334 0.308,4.158 0.35,5.453 0.103,2.345 -0.392,4.896 -1.498,7.652"
         id="path1163" />
      <path
         inkscape:connector-curvature="0"
         style="fill:#f0d5e6"
         d="m 132.717,422.256 c -0.716,-2.188 -0.946,-4.746 -0.702,-7.691 -0.881,2.779 -1.507,5.215 -1.9,7.275 -0.705,3.953 -0.345,6.662 1.083,8.105 0.939,0.936 1.807,1.043 2.61,0.334 0.774,-0.697 1.026,-1.66 0.739,-2.877 -0.268,-1.256 -0.881,-2.97 -1.83,-5.146"
         id="path1165" />
      <path
         inkscape:connector-curvature="0"
         style="fill:#f0d5e6"
         d="m 130.192,398.955 c -0.783,0.67 -1.034,1.631 -0.757,2.869 0.824,2.184 1.439,3.896 1.844,5.141 0.715,2.188 0.962,4.742 0.726,7.666 0.598,-1.211 1.228,-3.629 1.869,-7.279 0.715,-3.959 0.361,-6.65 -1.077,-8.076 -0.938,-0.938 -1.807,-1.044 -2.605,-0.321"
         id="path1167" />
      <path
         inkscape:connector-curvature="0"
         style="fill:#f0d5e6"
         d="m 131.99,414.434 0.003,0.107 c -0.156,2.932 -0.151,5.467 0.003,7.578 0.282,4.021 1.296,6.559 3.036,7.59 1.139,0.668 2.015,0.551 2.613,-0.359 0.559,-0.885 0.564,-1.879 -0.005,-2.992 -0.597,-1.154 -1.602,-2.652 -3.05,-4.516 -1.266,-1.983 -2.134,-4.453 -2.6,-7.408"
         id="path1169" />
      <path
         inkscape:connector-curvature="0"
         style="fill:#f0d5e6"
         d="m 132.717,422.256 c -0.716,-2.188 -0.946,-4.746 -0.702,-7.691 -0.881,2.779 -1.507,5.215 -1.9,7.275 -0.705,3.953 -0.345,6.662 1.083,8.105 0.939,0.936 1.807,1.043 2.61,0.334 0.774,-0.697 1.026,-1.66 0.739,-2.877 -0.268,-1.256 -0.881,-2.97 -1.83,-5.146"
         id="path1171" />
      <path
         inkscape:connector-curvature="0"
         style="fill:#eddd00"
         d="m 131.99,414.434 0.003,0.107 c -0.156,2.932 -0.151,5.467 0.003,7.578 0.282,4.021 1.296,6.559 3.036,7.59 1.139,0.668 2.015,0.551 2.613,-0.359 0.559,-0.885 0.564,-1.879 -0.005,-2.992 -0.597,-1.154 -1.602,-2.652 -3.05,-4.516 -1.266,-1.983 -2.134,-4.453 -2.6,-7.408"
         id="path1173" />
      <path
         inkscape:connector-curvature="0"
         style="fill:#eddd00"
         d="m 126.369,399.881 c -0.567,0.855 -0.572,1.85 -0.012,2.982 1.332,1.898 2.341,3.412 3.048,4.516 1.267,1.982 2.134,4.451 2.601,7.41 l -0.008,-0.125 c 0.113,-0.695 0.128,-3.221 0.014,-7.566 -0.281,-4.023 -1.289,-6.545 -3.04,-7.557 -1.143,-0.684 -2.005,-0.572 -2.603,0.34"
         id="path1175" />
      <path
         inkscape:connector-curvature="0"
         style="fill:#f0d5e6"
         d="m 131.964,414.455 0.017,0.104 c 0.569,2.879 1.175,5.32 1.851,7.332 1.264,3.842 2.868,6.051 4.823,6.607 1.262,0.359 2.059,0.033 2.405,-0.973 0.333,-1.004 0.094,-1.969 -0.72,-2.912 -0.842,-0.98 -2.199,-2.193 -4.055,-3.646 -1.711,-1.594 -3.144,-3.76 -4.321,-6.512"
         id="path1177" />
      <path
         inkscape:connector-curvature="0"
         style="fill:#6bc4ee"
         d="m 123.664,404.635 c 1.751,1.516 3.104,2.717 4.047,3.619 1.705,1.578 3.16,3.754 4.344,6.535 l -0.027,-0.133 c 0.014,-0.713 -0.61,-3.164 -1.869,-7.34 -1.244,-3.834 -2.845,-6.029 -4.781,-6.574 -1.267,-0.375 -2.076,-0.043 -2.415,0.992 -0.365,0.996 -0.142,1.965 0.701,2.901"
         id="path1179" />
      <path
         inkscape:connector-curvature="0"
         style="fill:#f0d5e6"
         d="m 131.981,414.559 c 1.268,2.646 2.469,4.871 3.58,6.666 2.183,3.398 4.266,5.125 6.28,5.174 1.318,0.029 2.033,-0.51 2.119,-1.594 0.067,-1.045 -0.43,-1.928 -1.472,-2.643 -1.047,-0.729 -2.643,-1.553 -4.771,-2.463 -2.002,-1.107 -3.925,-2.822 -5.736,-5.14"
         id="path1181" />
      <path
         inkscape:connector-curvature="0"
         style="fill:#f0d5e6"
         d="m 131.964,414.455 0.017,0.104 c 0.569,2.879 1.175,5.32 1.851,7.332 1.264,3.842 2.868,6.051 4.823,6.607 1.262,0.359 2.059,0.033 2.405,-0.973 0.333,-1.004 0.094,-1.969 -0.72,-2.912 -0.842,-0.98 -2.199,-2.193 -4.055,-3.646 -1.711,-1.594 -3.144,-3.76 -4.321,-6.512"
         id="path1183" />
      <path
         inkscape:connector-curvature="0"
         style="fill:#6bc4ee"
         d="m 142.488,422.162 c -1.047,-0.729 -2.643,-1.553 -4.771,-2.463 -1.995,-1.188 -3.898,-2.893 -5.736,-5.141 1.268,2.646 2.469,4.871 3.58,6.664 2.183,3.4 4.266,5.127 6.281,5.176 1.317,0.029 2.032,-0.51 2.117,-1.594 0.069,-1.044 -0.429,-1.927 -1.471,-2.642"
         id="path1185" />
      <path
         inkscape:connector-curvature="0"
         style="fill:#eddd00"
         d="m 121.503,407.043 c 2.072,1.037 3.656,1.865 4.776,2.479 2.034,1.113 3.97,2.871 5.799,5.244 l -0.051,-0.109 c -0.189,-0.809 -1.387,-3.033 -3.593,-6.66 -2.177,-3.385 -4.263,-5.113 -6.262,-5.164 -1.313,-0.014 -2.013,0.52 -2.099,1.602 -0.068,1.045 0.41,1.92 1.43,2.608"
         id="path1187" />
      <path
         inkscape:connector-curvature="0"
         style="fill:#f0d5e6"
         d="m 131.883,414.496 0.073,0.088 c 1.906,2.207 3.655,4.025 5.231,5.439 2.979,2.676 5.446,3.764 7.383,3.254 1.271,-0.318 1.807,-1.021 1.599,-2.092 -0.203,-1.055 -0.903,-1.781 -2.078,-2.156 -1.186,-0.418 -2.953,-0.777 -5.281,-1.072 -2.24,-0.514 -4.553,-1.666 -6.927,-3.461"
         id="path1189" />
      <path
         inkscape:connector-curvature="0"
         style="fill:#f0d5e6"
         d="m 119.907,410.205 c 2.27,0.408 4.033,0.756 5.274,1.045 2.226,0.518 4.506,1.664 6.846,3.406 -0.329,-0.701 -2.059,-2.508 -5.185,-5.453 -3,-2.688 -5.466,-3.773 -7.402,-3.264 -1.266,0.334 -1.804,1.035 -1.59,2.119 0.209,1.022 0.904,1.735 2.057,2.147"
         id="path1191" />
      <path
         inkscape:connector-curvature="0"
         style="fill:#f0d5e6"
         d="m 131.878,414.529 0.079,0.055 c 2.395,1.66 4.52,2.967 6.387,3.943 3.535,1.84 6.177,2.275 7.932,1.285 1.134,-0.652 1.478,-1.469 1.011,-2.459 -0.437,-0.949 -1.28,-1.475 -2.52,-1.561 -1.274,-0.09 -3.054,0.01 -5.333,0.328 -2.309,0.077 -4.823,-0.46 -7.556,-1.591"
         id="path1193" />
      <path
         inkscape:connector-curvature="0"
         style="fill:#eddd00"
         d="m 131.883,414.496 0.073,0.088 c 1.906,2.207 3.655,4.025 5.231,5.439 2.979,2.676 5.446,3.764 7.383,3.254 1.271,-0.318 1.807,-1.021 1.599,-2.092 -0.203,-1.055 -0.903,-1.781 -2.078,-2.156 -1.186,-0.418 -2.953,-0.777 -5.281,-1.072 -2.24,-0.514 -4.553,-1.666 -6.927,-3.461"
         id="path1195" />
      <path
         inkscape:connector-curvature="0"
         style="fill:#f0d5e6"
         d="m 131.878,414.529 0.079,0.055 c 2.395,1.66 4.52,2.967 6.387,3.943 3.535,1.84 6.177,2.275 7.932,1.285 1.134,-0.652 1.478,-1.469 1.011,-2.459 -0.437,-0.949 -1.28,-1.475 -2.52,-1.561 -1.274,-0.09 -3.054,0.01 -5.333,0.328 -2.309,0.077 -4.823,-0.46 -7.556,-1.591"
         id="path1197" />
      <path
         inkscape:connector-curvature="0"
         style="fill:#6bc4ee"
         d="m 119.247,413.436 c 2.28,-0.16 4.059,-0.275 5.319,-0.322 2.328,-0.066 4.843,0.471 7.576,1.602 l -0.09,-0.082 c -0.556,-0.473 -2.686,-1.793 -6.395,-3.926 -3.551,-1.836 -6.192,-2.271 -7.924,-1.303 -1.133,0.652 -1.472,1.482 -1.02,2.477 0.438,0.95 1.291,1.454 2.534,1.554"
         id="path1199" />
      <path
         inkscape:connector-curvature="0"
         style="fill:#f0d5e6"
         d="m 139.538,414.184 c -2.159,0.658 -4.671,0.783 -7.557,0.375 2.702,1.031 5.061,1.775 7.113,2.236 3.887,0.896 6.53,0.639 7.967,-0.771 0.929,-0.904 1.06,-1.797 0.372,-2.637 -0.679,-0.812 -1.606,-1.107 -2.81,-0.871 -1.236,0.228 -2.934,0.789 -5.085,1.668"
         id="path1201" />
      <path
         inkscape:connector-curvature="0"
         style="fill:#eddd00"
         d="m 124.916,412.42 c -3.883,-0.883 -6.527,-0.623 -7.965,0.771 -0.931,0.906 -1.062,1.797 -0.389,2.643 0.68,0.812 1.62,1.102 2.823,0.867 2.16,-0.754 3.858,-1.316 5.088,-1.668 2.207,-0.658 4.752,-0.777 7.669,-0.365 l -0.09,-0.035 c -0.683,-0.322 -3.073,-1.057 -7.136,-2.213"
         id="path1203" />
      <path
         inkscape:connector-curvature="0"
         style="fill:#f0d5e6"
         d="m 131.828,414.623 0.125,-0.008 c 2.872,0.27 5.349,0.377 7.423,0.312 3.946,-0.131 6.445,-1.055 7.496,-2.787 0.698,-1.145 0.609,-2.031 -0.273,-2.686 -0.85,-0.602 -1.838,-0.639 -2.952,-0.117 -1.883,1.283 -3.39,2.258 -4.501,2.936 -1.958,1.196 -4.396,1.973 -7.318,2.35"
         id="path1205" />
      <path
         inkscape:connector-curvature="0"
         style="fill:#6bc4ee"
         d="m 140.448,417.145 c 2.979,0.66 5.177,0.289 6.613,-1.121 0.929,-0.904 1.06,-1.797 0.372,-2.639 -0.678,-0.811 -1.606,-1.105 -2.809,-0.869 -1.237,0.229 -2.935,0.789 -5.086,1.668 -2.158,0.658 -4.671,0.783 -7.556,0.375 2.653,1.078 5.472,1.929 8.466,2.586"
         id="path1207" />
      <path
         inkscape:connector-curvature="0"
         style="fill:#eddd00"
         d="m 131.828,414.623 0.125,-0.008 c 2.872,0.27 5.349,0.377 7.423,0.312 3.946,-0.131 6.445,-1.055 7.496,-2.787 0.698,-1.145 0.609,-2.031 -0.273,-2.686 -0.85,-0.602 -1.838,-0.639 -2.952,-0.117 -1.883,1.283 -3.39,2.258 -4.501,2.936 -1.958,1.196 -4.396,1.973 -7.318,2.35"
         id="path1209" />
      <path
         inkscape:connector-curvature="0"
         style="fill:#f0d5e6"
         d="m 124.62,414.293 c -3.94,0.146 -6.455,1.072 -7.521,2.807 -0.653,1.135 -0.552,2.016 0.292,2.65 0.874,0.627 1.853,0.684 2.958,0.133 1.137,-0.545 2.629,-1.516 4.477,-2.912 1.972,-1.197 4.403,-1.99 7.317,-2.352 l -0.08,-0.006 c -0.759,-0.156 -3.25,-0.259 -7.443,-0.32"
         id="path1211" />
      <path
         inkscape:connector-curvature="0"
         style="fill:#e27c9f"
         d="m 220.205,406.514 c 2.012,3.389 1.334,6.227 -2.02,8.51 l -38.102,-9.26 c 0.8,-2.223 2.332,-4.74 4.632,-7.57 l 35.49,8.32 z"
         id="path1213" />
      <path
         inkscape:connector-curvature="0"
         style="fill:none;stroke:#c4084a;stroke-width:2.41899991;stroke-linecap:round;stroke-linejoin:round;stroke-miterlimit:10"
         d="m 184.715,398.193 35.49,8.32 c 2.012,3.389 1.334,6.227 -2.019,8.51 l -38.102,-9.26"
         id="path1215" />
      <path
         inkscape:connector-curvature="0"
         style="fill:#c4084a"
         d="m 169.084,408.148 c -0.015,-0.014 -0.068,-0.117 -0.156,-0.291 l 2.637,-0.84 c 1.566,2.207 3.639,2.803 6.219,1.787 0,-0.014 0,-0.014 0.013,-0.016 1.818,-0.658 3.759,-2.145 5.809,-4.426 l -0.185,2.301 c -0.599,2.012 -2.176,3.518 -4.711,4.516 -0.015,0.016 -0.015,0.016 -0.028,0.018 -4.056,1.606 -7.247,0.588 -9.598,-3.049"
         id="path1217" />
      <path
         inkscape:connector-curvature="0"
         style="fill:#e27c9f"
         d="m 177.797,408.789 c -0.013,0.002 -0.013,0.002 -0.013,0.016 -2.58,1.016 -4.653,0.422 -6.218,-1.785 l 1.515,-0.428 c 0.121,0.205 0.227,0.424 0.348,0.643 l 0.944,-0.385 -0.129,-0.748 c -1.065,-4.332 -3.627,-7.139 -7.705,-8.441 0.26,-1.049 0.604,-1.74 1.035,-2.072 0.616,-0.514 1.509,-0.729 2.711,-0.662 l 0.85,0.016 0.437,-0.896 c 0.746,-1.869 2.756,-2.393 6.042,-1.562 l 0.354,0.096 0.372,-0.117 c 2.293,-0.783 4.243,-0.619 5.855,0.51 2.089,1.473 3.487,3.891 4.196,7.25 l 0.491,2.891 -5.275,1.252 c -2.051,2.278 -3.992,3.764 -5.81,4.422"
         id="path1219" />
      <path
         inkscape:connector-curvature="0"
         style="fill:#c4084a"
         d="m 190.885,400.982 c -1.376,-0.371 -2.196,-0.617 -2.494,-0.762 -0.709,-3.359 -2.107,-5.777 -4.196,-7.25 -1.612,-1.129 -3.562,-1.293 -5.855,-0.51 l -0.371,0.117 -0.355,-0.096 c -3.286,-0.83 -5.296,-0.307 -6.042,1.562 l -0.437,0.896 -0.85,-0.016 c -1.202,-0.066 -2.095,0.148 -2.711,0.66 -0.431,0.334 -0.774,1.025 -1.035,2.074 4.078,1.303 6.64,4.107 7.705,8.441 l 0.129,0.748 -0.944,0.385 c -0.121,-0.219 -0.227,-0.439 -0.348,-0.643 -3.17,-5.184 -6.046,-7.498 -8.657,-6.902 l -0.229,-1.514 c 0.01,-2.018 0.556,-3.51 1.64,-4.465 0.834,-0.848 2.044,-1.299 3.634,-1.35 1.203,-2.678 4.01,-3.482 8.404,-2.43 3.066,-0.988 5.681,-0.658 7.858,0.975 2.075,1.496 3.799,4.86 5.154,10.08"
         id="path1221" />
      <path
         inkscape:connector-curvature="0"
         style="fill:#84539c"
         d="m 229.504,322.634 c -1.464,-2.973 -3.607,-5.434 -6.428,-7.387 -6.857,-4.712 -16.037,-5.621 -27.54,-2.729 l -4.681,1.116 c -1.794,0.405 -3.142,0.682 -4.028,0.833 -0.996,0.205 -2.157,0.37 -3.483,0.497 -1.05,0.111 -2.082,0.163 -3.111,0.123 -0.939,-0.005 -1.875,-0.099 -2.82,-0.255 -0.915,-0.17 -1.797,-0.398 -2.676,-0.687 -0.848,-0.303 -1.736,-0.683 -2.652,-1.141 -0.812,-0.406 -1.739,-0.94 -2.764,-1.615 -0.937,-0.61 -1.945,-1.316 -3.039,-2.116 -1.136,-0.864 -2.256,-1.756 -3.342,-2.678 l -1.412,-1.134 c -0.649,-0.611 -1.055,-0.935 -1.205,-0.988 -0.164,-0.07 -0.36,-0.08 -0.574,-0.031 -0.077,0.011 -0.255,0.244 -0.521,0.685 -0.232,0.382 -0.417,0.705 -0.569,0.985 -0.285,0.546 -0.677,1.374 -1.159,2.455 -0.467,1.111 -0.887,2.179 -1.245,3.206 -0.372,1.027 -0.774,2.308 -1.202,3.83 -0.41,1.449 -0.744,2.885 -1.019,4.341 -0.289,1.47 -0.509,3.019 -0.656,4.663 -0.173,1.551 -0.244,3.184 -0.195,4.869 0.018,1.653 0.158,3.282 0.407,4.9 0.262,1.621 0.676,3.233 1.214,4.838 0.581,1.621 1.287,3.128 2.123,4.551 0.933,1.535 1.996,2.924 3.203,4.155 1.335,1.389 2.819,2.604 4.446,3.644 1.623,1.071 3.542,2.037 5.756,2.897 0.934,0.382 2.05,0.759 3.318,1.13 1.627,0.48 2.494,0.949 2.607,1.411 0.179,0.66 -0.526,1.365 -2.094,2.086 -2.097,0.98 -3.282,1.584 -3.522,1.829 -1.815,1.645 -0.783,3.049 3.082,4.178 3.03,0.872 6.767,1.252 11.229,1.125 6.576,-0.259 13.042,-1.932 19.405,-5.02 11.275,-5.48 19.728,-13.73 25.357,-24.766 0.218,-0.398 0.42,-0.812 0.626,-1.24 0.066,-0.118 0.148,-0.22 0.228,-0.322 0.434,-1.296 0.678,-2.509 0.739,-3.643 0.157,-2.961 -0.45,-5.826 -1.803,-8.595"
         id="path1223" />
      <path
         inkscape:connector-curvature="0"
         style="fill:none;stroke:#652182;stroke-width:2.421;stroke-linecap:round;stroke-linejoin:round;stroke-miterlimit:10"
         d="m 223.076,315.247 c -6.857,-4.712 -16.038,-5.622 -27.54,-2.729 l -4.681,1.116 c -1.794,0.405 -3.142,0.682 -4.028,0.832 -0.996,0.205 -2.157,0.371 -3.483,0.498 -1.051,0.111 -2.082,0.162 -3.111,0.123 -0.94,-0.005 -1.875,-0.099 -2.821,-0.256 -0.914,-0.169 -1.796,-0.397 -2.675,-0.687 -0.849,-0.302 -1.736,-0.682 -2.653,-1.14 -0.811,-0.406 -1.738,-0.941 -2.763,-1.615 -0.937,-0.611 -1.946,-1.316 -3.039,-2.117 -1.137,-0.863 -2.256,-1.755 -3.342,-2.677 l -1.412,-1.135 c -0.649,-0.61 -1.056,-0.935 -1.205,-0.987 -0.164,-0.07 -0.36,-0.08 -0.575,-0.031 -0.076,0.011 -0.255,0.244 -0.52,0.684 -0.233,0.382 -0.417,0.706 -0.569,0.985 -0.285,0.547 -0.678,1.375 -1.159,2.455 -0.467,1.112 -0.887,2.18 -1.245,3.207 -0.372,1.026 -0.775,2.308 -1.202,3.83 -0.411,1.449 -0.745,2.885 -1.019,4.341 -0.289,1.47 -0.509,3.018 -0.656,4.662 -0.173,1.552 -0.244,3.184 -0.196,4.869 0.019,1.653 0.159,3.282 0.408,4.901 0.261,1.621 0.676,3.233 1.214,4.837 0.581,1.621 1.287,3.129 2.123,4.552 0.933,1.535 1.996,2.924 3.203,4.155 1.335,1.389 2.819,2.604 4.446,3.644 1.623,1.071 3.542,2.037 5.755,2.896 0.935,0.383 2.051,0.76 3.319,1.13 1.627,0.481 2.494,0.95 2.607,1.411 0.179,0.661 -0.527,1.366 -2.095,2.086 -2.097,0.98 -3.281,1.585 -3.522,1.829 -1.814,1.646 -0.782,3.05 3.083,4.179 3.029,0.872 6.767,1.252 11.229,1.125 6.576,-0.26 13.042,-1.932 19.404,-5.02 11.276,-5.48 19.728,-13.73 25.358,-24.766 0.217,-0.398 0.42,-0.812 0.626,-1.24 0.066,-0.118 0.148,-0.22 0.228,-0.322 0.433,-1.296 0.678,-2.509 0.738,-3.643 0.158,-2.961 -0.45,-5.827 -1.802,-8.595 -1.465,-2.972 -3.607,-5.434 -6.428,-7.387 z"
         id="path1225" />
      <path
         inkscape:connector-curvature="0"
         style="fill:#fcdf00"
         d="m 206.162,334.233 c -1.888,-0.116 -3.682,0.578 -5.384,2.094 -1.733,1.544 -2.723,3.356 -2.938,5.421 -0.233,2.381 0.698,4.537 2.762,6.48 -1.085,0.17 -2.213,0.882 -3.386,2.169 -1.238,1.344 -2.013,2.802 -2.322,4.347 -0.375,1.935 0.025,3.547 1.214,4.822 1.192,1.261 3.293,2.189 6.325,2.759 l 0.016,0.001 c 0.642,0.14 1.536,0.172 2.708,0.068 1.172,-0.105 2.547,-0.608 4.156,-1.508 1.609,-0.915 3.07,-1.898 4.399,-2.965 1.792,-1.208 3.459,-2.649 4.988,-4.327 4.003,-4.379 6.167,-9.477 6.459,-15.28 0.054,-1.013 -0.086,-1.793 -0.435,-2.372 -0.334,-1.973 -1.17,-3.35 -2.479,-4.116 -1.322,-0.798 -2.983,-0.915 -4.997,-0.371 -1.798,0.496 -3.375,1.367 -4.73,2.614 -1.384,1.276 -2.009,2.485 -1.872,3.628 -0.93,-2.216 -2.429,-3.37 -4.484,-3.464"
         id="path1227" />
      <path
         inkscape:connector-curvature="0"
         style="fill:#84539c"
         d="m 278.938,315.503 3.886,1.539 c 1.487,0.564 2.602,0.971 3.347,1.209 0.834,0.285 1.805,0.564 2.926,0.82 0.883,0.214 1.754,0.35 2.646,0.413 0.798,0.088 1.6,0.1 2.42,0.037 0.809,-0.078 1.591,-0.219 2.358,-0.421 0.753,-0.202 1.541,-0.479 2.379,-0.844 0.745,-0.324 1.584,-0.765 2.507,-1.321 0.861,-0.5 1.786,-1.088 2.792,-1.762 1.054,-0.733 2.093,-1.496 3.122,-2.29 l 1.292,-0.962 c 0.619,-0.528 0.998,-0.811 1.136,-0.849 0.154,-0.052 0.32,-0.043 0.499,0.027 0.074,0.019 0.199,0.268 0.385,0.716 0.148,0.388 0.281,0.728 0.387,1.021 0.198,0.556 0.441,1.388 0.747,2.495 0.289,1.121 0.549,2.211 0.752,3.252 0.218,1.042 0.438,2.326 0.659,3.853 0.198,1.451 0.348,2.882 0.438,4.327 0.106,1.46 0.146,2.992 0.106,4.612 -0.006,1.529 -0.106,3.13 -0.299,4.773 -0.191,1.61 -0.469,3.187 -0.842,4.743 -0.369,1.556 -0.875,3.09 -1.485,4.588 -0.654,1.526 -1.412,2.941 -2.256,4.245 -0.936,1.405 -1.987,2.653 -3.152,3.742 -1.26,1.222 -2.635,2.27 -4.119,3.116 -1.487,0.891 -3.223,1.648 -5.212,2.27 -0.832,0.274 -1.817,0.541 -2.935,0.785 -1.44,0.302 -2.234,0.683 -2.362,1.116 -0.216,0.641 0.304,1.381 1.578,2.236 1.711,1.166 2.644,1.867 2.827,2.119 1.391,1.786 0.385,3.052 -3.032,3.78 -3.539,0.737 -8.074,0.496 -13.63,-0.721 -1.903,-0.419 -4.128,-1.325 -6.691,-2.688 -0.067,-0.17 -0.197,-0.283 -0.361,-0.352 -0.486,-0.269 -0.971,-0.552 -1.457,-0.835 -11.039,-6.448 -18.635,-16.032 -22.827,-28.785 -0.145,-0.418 -0.289,-0.834 -0.417,-1.264 -0.055,-0.125 -0.109,-0.235 -0.179,-0.344 -0.249,-1.3 -0.337,-2.518 -0.279,-3.621 0.155,-2.901 0.951,-5.631 2.39,-8.207 1.525,-2.754 3.595,-4.947 6.197,-6.583 6.3,-3.923 14.225,-3.928 23.759,0.015"
         id="path1229" />
      <path
         inkscape:connector-curvature="0"
         style="fill:none;stroke:#652182;stroke-width:2.421;stroke-linecap:round;stroke-linejoin:round;stroke-miterlimit:10"
         d="m 282.825,317.042 c 1.487,0.563 2.602,0.971 3.347,1.208 0.834,0.286 1.804,0.565 2.926,0.821 0.883,0.214 1.754,0.35 2.645,0.413 0.798,0.088 1.601,0.1 2.421,0.037 0.808,-0.078 1.591,-0.219 2.357,-0.421 0.754,-0.203 1.541,-0.479 2.38,-0.844 0.744,-0.324 1.584,-0.765 2.507,-1.321 0.861,-0.5 1.786,-1.088 2.792,-1.762 1.054,-0.733 2.093,-1.496 3.122,-2.29 l 1.292,-0.962 c 0.619,-0.528 0.998,-0.811 1.136,-0.849 0.154,-0.052 0.32,-0.043 0.499,0.027 0.074,0.019 0.199,0.268 0.385,0.716 0.148,0.388 0.281,0.728 0.386,1.021 0.199,0.556 0.442,1.388 0.747,2.495 0.29,1.121 0.55,2.211 0.753,3.252 0.218,1.042 0.437,2.326 0.659,3.853 0.197,1.451 0.348,2.882 0.438,4.327 0.106,1.46 0.146,2.992 0.106,4.612 -0.006,1.529 -0.106,3.13 -0.299,4.772 -0.191,1.611 -0.47,3.188 -0.843,4.744 -0.368,1.556 -0.874,3.09 -1.484,4.588 -0.654,1.526 -1.413,2.94 -2.256,4.245 -0.936,1.405 -1.988,2.652 -3.152,3.742 -1.26,1.222 -2.635,2.27 -4.119,3.116 -1.488,0.891 -3.224,1.648 -5.212,2.27 -0.832,0.274 -1.818,0.541 -2.935,0.785 -1.44,0.302 -2.234,0.683 -2.363,1.116 -0.215,0.641 0.305,1.381 1.578,2.236 1.711,1.166 2.645,1.866 2.828,2.119 1.391,1.786 0.385,3.052 -3.033,3.78 -3.538,0.737 -8.073,0.496 -13.629,-0.721 -1.903,-0.419 -4.128,-1.325 -6.691,-2.688 -0.067,-0.17 -0.198,-0.283 -0.361,-0.352 -0.486,-0.269 -0.971,-0.552 -1.457,-0.835 -11.039,-6.448 -18.636,-16.032 -22.827,-28.785 -0.145,-0.418 -0.289,-0.834 -0.417,-1.264 -0.056,-0.125 -0.109,-0.235 -0.18,-0.344 -0.248,-1.3 -0.337,-2.518 -0.278,-3.621 0.154,-2.902 0.951,-5.632 2.39,-8.207 1.525,-2.754 3.594,-4.947 6.196,-6.583 6.299,-3.924 14.226,-3.929 23.76,0.015 l 3.886,1.539 z"
         id="path1231" />
      <path
         inkscape:connector-curvature="0"
         style="fill:#fcdf00"
         d="m 273.811,334.506 c 1.874,-0.174 3.674,0.468 5.429,1.939 1.785,1.489 2.826,3.27 3.111,5.332 0.3,2.364 -0.558,4.546 -2.572,6.545 1.083,0.134 2.242,0.832 3.466,2.078 1.279,1.295 2.097,2.717 2.441,4.267 0.872,3.848 -1.432,6.469 -6.932,7.845 0.003,-0.015 -0.013,-0.031 -0.029,-0.032 -0.196,0.005 -0.438,-0.007 -0.695,-0.036 -0.255,-0.029 -0.526,-0.058 -0.797,-0.118 -1.91,0.308 -3.874,-0.084 -5.909,-1.162 -1.534,-0.793 -2.984,-1.703 -4.354,-2.73 -1.819,-1.157 -3.517,-2.55 -5.113,-4.195 -4.137,-4.264 -6.448,-9.281 -6.914,-15.079 -0.083,-1.005 0.049,-1.785 0.367,-2.36 0.273,-2.001 1.06,-3.399 2.342,-4.193 1.304,-0.841 2.962,-1.011 4.983,-0.525 1.811,0.429 3.404,1.256 4.811,2.466 1.433,1.244 2.099,2.43 1.992,3.561 0.862,-2.243 2.32,-3.438 4.373,-3.603"
         id="path1233" />
      <path
         inkscape:connector-curvature="0"
         style="fill:#e27c9f"
         d="m 284.487,364.401 c -1.857,-5.28 -4.653,-10.035 -8.37,-14.247 -7.992,-9.044 -18.277,-13.938 -30.859,-14.709 -12.521,-0.784 -23.036,2.933 -31.532,11.151 -4.871,4.713 -8.407,10.284 -10.642,16.696 -1.525,5.086 -2.035,10.681 -1.525,16.814 0.645,5.823 2.573,11.501 5.797,17.036 0.305,0.516 0.626,1.033 0.977,1.551 1.957,2.816 4.648,5.52 8.103,8.08 2.553,1.879 5.505,3.67 8.866,5.41 4.604,2.365 9.614,3.904 15.015,4.627 1.611,0.207 3.271,0.342 4.948,0.414 6.447,0.145 12.365,-0.861 17.751,-3.016 6.284,-2.502 11.848,-6.57 16.691,-12.178 1.348,-1.719 2.383,-3.193 3.085,-4.445 3.091,-6.033 4.513,-12.019 4.253,-17.988 -0.165,-5.751 -1.016,-10.826 -2.558,-15.196"
         id="path1235" />
      <path
         inkscape:connector-curvature="0"
         style="fill:#e27c9f"
         d="m 292.493,387.205 c 0.353,-0.664 0.659,-1.283 0.886,-1.848 0.435,-1.082 0.666,-1.979 0.671,-2.676 -0.008,-0.122 -0.018,-0.245 -0.027,-0.35 -0.217,-1.331 -1.626,-2.208 -4.224,-2.633 -0.841,-0.15 -1.764,-0.185 -2.754,-0.1 0.26,5.969 -1.162,11.954 -4.253,17.987 0.117,-0.205 0.218,-0.396 0.303,-0.59 1.941,-0.881 3.771,-2.254 5.46,-4.135 1.546,-1.704 2.86,-3.59 3.938,-5.655"
         id="path1237" />
      <path
         inkscape:connector-curvature="0"
         style="fill:none;stroke:#c4084a;stroke-width:2.421;stroke-linecap:round;stroke-linejoin:round;stroke-miterlimit:10"
         d="m 276.117,350.154 c -7.992,-9.044 -18.277,-13.938 -30.859,-14.709 -12.52,-0.784 -23.036,2.933 -31.532,11.151 -4.871,4.713 -8.407,10.283 -10.642,16.696 -1.525,5.086 -2.035,10.681 -1.525,16.814 0.646,5.823 2.573,11.501 5.797,17.036 0.305,0.516 0.626,1.033 0.978,1.551 1.956,2.816 4.647,5.52 8.102,8.08 2.553,1.879 5.505,3.67 8.867,5.41 4.603,2.365 9.613,3.904 15.014,4.627 1.611,0.207 3.271,0.34 4.949,0.414 6.446,0.145 12.364,-0.861 17.75,-3.016 6.285,-2.502 11.849,-6.57 16.692,-12.178 1.348,-1.717 2.382,-3.193 3.084,-4.445 0.117,-0.205 0.218,-0.396 0.303,-0.59 1.941,-0.881 3.771,-2.254 5.461,-4.135 1.545,-1.705 2.86,-3.592 3.937,-5.656 0.353,-0.662 0.659,-1.283 0.886,-1.848 0.435,-1.082 0.666,-1.979 0.671,-2.676 -0.008,-0.121 -0.018,-0.244 -0.027,-0.35 -0.216,-1.33 -1.626,-2.207 -4.224,-2.633 -0.84,-0.15 -1.763,-0.185 -2.754,-0.1 -0.165,-5.752 -1.016,-10.827 -2.558,-15.197 -1.857,-5.278 -4.653,-10.032 -8.37,-14.246 z m 6.675,47.432 c 3.091,-6.033 4.513,-12.019 4.253,-17.987"
         id="path1239" />
      <path
         inkscape:connector-curvature="0"
         style="fill:#a682b9"
         d="m 280.745,388.447 c -0.112,-0.188 -0.274,-0.287 -0.469,-0.297 -0.228,-0.014 -0.429,0.068 -0.574,0.24 -0.081,0.119 -0.149,0.25 -0.173,0.387 -0.05,0.104 -0.07,0.209 -0.078,0.344 -0.007,0.121 0.004,0.227 0.043,0.334 0.008,0.123 0.062,0.248 0.133,0.373 0.126,0.188 0.317,0.289 0.544,0.301 0.196,0.01 0.366,-0.07 0.496,-0.246 0.148,-0.189 0.237,-0.428 0.25,-0.684 0.015,-0.287 -0.048,-0.549 -0.172,-0.752"
         id="path1241" />
      <path
         inkscape:connector-curvature="0"
         style="fill:#a682b9"
         d="m 277.511,392.262 c -0.145,0.174 -0.233,0.396 -0.247,0.684 -0.01,0.182 0.011,0.35 0.064,0.488 0.042,0.094 0.066,0.172 0.11,0.234 0.156,0.205 0.332,0.322 0.528,0.332 0.181,0.008 0.353,-0.09 0.514,-0.277 0.146,-0.189 0.234,-0.412 0.249,-0.699 0.013,-0.258 -0.048,-0.502 -0.175,-0.707 -0.138,-0.234 -0.299,-0.363 -0.479,-0.373 -0.077,-0.002 -0.167,0.006 -0.245,0.047 -0.11,0.04 -0.205,0.14 -0.319,0.271"
         id="path1243" />
      <path
         inkscape:connector-curvature="0"
         style="fill:#a682b9"
         d="m 281.692,392.014 c -0.045,-0.018 -0.089,-0.035 -0.165,-0.039 -0.015,0 -0.046,0.012 -0.092,0.025 -0.045,-0.002 -0.091,0.01 -0.154,0.021 -0.076,0.041 -0.155,0.098 -0.219,0.17 -0.048,0.027 -0.08,0.057 -0.098,0.102 -0.145,0.174 -0.232,0.396 -0.248,0.684 -0.009,0.184 0.012,0.35 0.066,0.488 0.041,0.078 0.068,0.154 0.11,0.219 0.044,0.047 0.071,0.094 0.114,0.141 0.056,0.064 0.13,0.113 0.203,0.164 l 0.029,0.031 v -0.031 c 0.06,0.02 0.121,0.039 0.181,0.043 0.045,0.002 0.106,0.004 0.166,0.006 0.125,-0.053 0.236,-0.152 0.351,-0.299 0.144,-0.174 0.232,-0.396 0.245,-0.684 0.015,-0.258 -0.046,-0.502 -0.173,-0.705 -0.098,-0.174 -0.197,-0.286 -0.316,-0.336"
         id="path1245" />
      <path
         inkscape:connector-curvature="0"
         style="fill:#a682b9"
         d="m 221.34,387.715 c 0.207,-0.188 0.325,-0.424 0.339,-0.695 0.015,-0.285 -0.078,-0.533 -0.263,-0.74 -0.159,-0.191 -0.364,-0.293 -0.62,-0.307 -0.289,-0.016 -0.536,0.064 -0.726,0.236 -0.191,0.186 -0.294,0.422 -0.31,0.709 -0.013,0.271 0.064,0.52 0.236,0.725 0.17,0.191 0.407,0.293 0.695,0.311 0.256,0.013 0.472,-0.067 0.649,-0.239"
         id="path1247" />
      <path
         inkscape:connector-curvature="0"
         style="fill:#a682b9"
         d="m 224.102,391.104 c 0.012,-0.258 -0.082,-0.504 -0.266,-0.727 -0.171,-0.238 -0.404,-0.355 -0.692,-0.369 -0.259,-0.016 -0.473,0.08 -0.652,0.297 -0.208,0.201 -0.326,0.438 -0.341,0.695 -0.014,0.289 0.079,0.52 0.266,0.711 0.155,0.221 0.361,0.338 0.617,0.35 0.272,0.016 0.52,-0.078 0.727,-0.279 0.208,-0.171 0.323,-0.391 0.341,-0.678"
         id="path1249" />
      <path
         inkscape:connector-curvature="0"
         style="fill:#a682b9"
         d="m 217.395,390.688 c -0.017,0.303 0.063,0.549 0.232,0.738 0.186,0.209 0.409,0.311 0.651,0.324 0.286,0.016 0.52,-0.064 0.724,-0.25 0.192,-0.172 0.295,-0.408 0.311,-0.711 0.013,-0.256 -0.064,-0.504 -0.234,-0.725 -0.186,-0.207 -0.407,-0.326 -0.696,-0.342 -0.239,-0.012 -0.472,0.082 -0.68,0.27 -0.192,0.201 -0.296,0.438 -0.308,0.696"
         id="path1251" />
      <path
         inkscape:connector-curvature="0"
         style="fill:#5d1e80"
         d="m 262.284,337.862 c 0,-0.015 0,-0.015 -0.014,-0.016 -5.337,-2.394 -11.188,-3.759 -17.566,-4.097 -11.858,-0.627 -22.287,2.418 -31.319,9.117 -0.748,0.542 -1.467,1.116 -2.189,1.706 -9.52,7.868 -14.585,17.699 -15.211,29.511 -0.517,9.783 3.005,18.126 10.568,24.999 l 2.915,3.062 -1.095,-4.756 c -3.104,-10.449 -3.038,-17.485 0.198,-21.094 0.851,-0.169 1.957,0.334 3.302,1.506 l -0.014,-0.016 c 1.387,1.252 2.831,2.032 4.36,2.327 l 1.39,0.074 0.061,-1.191 c 0.61,-10.083 4.341,-17.262 11.209,-21.536 2.739,-1.706 5.958,-2.945 9.687,-3.742 l 0.013,0.047 0.014,0.031 0.015,0.002 c 1.665,2.948 3.778,5.525 6.341,7.726 l 1.476,1.287 0.842,-3.184 c 2.004,2.906 4.806,5.504 8.403,7.79 l 0.712,0.466 0.669,-0.515 c 3.132,-2.237 5.465,-5.818 7.011,-10.74 0.168,0.575 0.454,1.524 0.861,2.815 l 0.764,2.352 1.407,-2.022 c 0.843,-1.195 1.475,-2.432 1.864,-3.713 2.838,1.621 5.342,3.435 7.519,5.433 0.013,0.015 0.029,0.017 0.044,0.033 2.451,2.273 4.329,4.651 5.651,7.125 1.322,2.533 2.315,5.142 2.955,7.823 0.498,2.98 0.663,5.392 0.517,7.267 1.558,-0.807 2.405,-2.643 2.559,-5.513 0.889,-8.752 -0.82,-16.357 -5.147,-22.799 -0.98,-1.46 -2.083,-2.849 -3.312,-4.185 l -0.189,-0.224 c -0.735,-0.881 -1.514,-1.733 -2.328,-2.587 l 0.002,-0.031 -0.377,-0.386 c -4.327,-4.407 -9.183,-7.8 -14.568,-10.152 m -1.005,2.228 h 0.016 c 4.949,2.175 9.424,5.258 13.435,9.266 v 0.015 l 0.378,0.387 c 0.798,0.808 1.551,1.628 2.256,2.461 l -0.002,0.046 0.36,0.402 c 1.276,1.368 2.409,2.79 3.387,4.28 2.703,4.122 4.296,8.751 4.745,13.872 -0.502,-1.206 -1.011,-2.319 -1.525,-3.31 -1.433,-2.709 -3.482,-5.311 -6.183,-7.796 0.002,-0.014 0.002,-0.014 -0.014,-0.016 -2.67,-2.466 -5.814,-4.654 -9.433,-6.559 l -1.502,-0.814 -0.274,1.715 c -0.11,0.637 -0.284,1.27 -0.514,1.902 -0.026,-0.11 -0.05,-0.187 -0.064,-0.265 -0.14,-0.512 -0.526,-1.895 -1.17,-4.148 l -1.322,-4.554 -0.092,0.011 -0.966,4.647 c -1.18,6.136 -3.358,10.55 -6.532,13.244 -3.858,-2.576 -6.623,-5.553 -8.325,-8.934 l -1.475,-2.802 -1.375,5.161 c -1.702,-1.696 -3.161,-3.594 -4.35,-5.709 l 0.015,0.032 -0.878,-1.669 -0.881,0.198 c -4.281,0.799 -7.98,2.133 -11.109,4.003 -7.378,4.401 -11.55,11.771 -12.524,22.111 -0.643,-0.31 -1.262,-0.74 -1.861,-1.293 l -0.015,-0.016 c -2.414,-2.102 -4.446,-2.73 -6.067,-1.867 l -0.237,0.111 -0.128,0.13 c -3.657,3.433 -4.396,9.869 -2.215,19.289 -4.669,-5.451 -6.808,-11.916 -6.411,-19.408 0.587,-11.095 5.362,-20.346 14.325,-27.753 1.133,-0.935 2.299,-1.823 3.49,-2.631 8.24,-5.656 17.697,-8.201 28.333,-7.638 6.059,0.32 11.637,1.626 16.704,3.899"
         id="path1253" />
      <path
         inkscape:connector-curvature="0"
         style="fill:#7f519b"
         d="m 261.295,340.09 h -0.016 c -5.067,-2.273 -10.645,-3.579 -16.704,-3.899 -10.636,-0.563 -20.093,1.982 -28.333,7.637 -1.191,0.809 -2.357,1.697 -3.49,2.632 -8.963,7.407 -13.737,16.658 -14.325,27.753 -0.397,7.492 1.742,13.957 6.411,19.408 -2.181,-9.42 -1.442,-15.856 2.215,-19.289 l 0.128,-0.131 0.237,-0.11 c 1.621,-0.863 3.653,-0.235 6.067,1.867 l 0.015,0.016 c 0.599,0.553 1.218,0.983 1.861,1.293 0.974,-10.34 5.146,-17.71 12.524,-22.111 3.129,-1.87 6.827,-3.204 11.109,-4.003 l 0.881,-0.198 0.878,1.669 -0.015,-0.032 c 1.189,2.114 2.648,4.013 4.349,5.709 l 1.375,-5.161 1.476,2.802 c 1.702,3.381 4.467,6.358 8.325,8.934 3.174,-2.694 5.352,-7.108 6.532,-13.244 l 0.966,-4.647 0.092,-0.011 1.321,4.554 c 0.645,2.253 1.031,3.636 1.171,4.148 0.014,0.078 0.038,0.155 0.064,0.265 0.23,-0.632 0.404,-1.265 0.513,-1.902 l 0.275,-1.715 1.502,0.814 c 3.618,1.905 6.763,4.093 9.433,6.559 0.016,0.002 0.016,0.002 0.014,0.016 2.701,2.485 4.75,5.087 6.183,7.796 0.514,0.991 1.023,2.104 1.525,3.31 -0.449,-5.121 -2.042,-9.75 -4.745,-13.872 -0.979,-1.491 -2.111,-2.912 -3.387,-4.28 l -0.36,-0.402 0.002,-0.046 c -0.705,-0.833 -1.458,-1.653 -2.256,-2.461 l -0.378,-0.387 v -0.015 c -4.011,-4.008 -8.486,-7.091 -13.435,-9.266"
         id="path1255" />
      <path
         inkscape:connector-curvature="0"
         style="fill:#e27c9f"
         d="m 196.474,375.413 c -1.794,0.405 -2.542,1.38 -2.216,2.943 1.704,8.167 6.904,13.275 15.612,15.359 l 0.894,-15.455 c -4.858,-2.969 -9.613,-3.917 -14.29,-2.847"
         id="path1257" />
      <path
         inkscape:connector-curvature="0"
         style="fill:none;stroke:#c4084a;stroke-width:2.421;stroke-linecap:square;stroke-linejoin:round;stroke-miterlimit:10"
         d="m 209.87,393.715 c -8.708,-2.082 -13.908,-7.191 -15.612,-15.358 -0.326,-1.563 0.422,-2.538 2.216,-2.943 4.678,-1.071 9.432,-0.122 14.29,2.846"
         id="path1259" />
      <path
         inkscape:connector-curvature="0"
         style="fill:#d8272a"
         d="m 226.162,397.57 c 4.177,2.877 9.43,4.896 15.759,6.035 3.598,0.654 7.12,0.914 10.565,0.777 3.458,-0.137 6.899,-0.672 10.338,-1.607 6.048,-1.629 10.853,-4.049 14.413,-7.232 -7.151,8.006 -15.284,12.057 -24.388,12.186 -9.078,0.591 -17.966,-2.786 -26.687,-10.159"
         id="path1261" />
      <path
         inkscape:connector-curvature="0"
         style="fill:#ffffff"
         d="m 266.67,365.525 c -2.89,1.62 -5.002,4.296 -6.364,8.028 -1.336,3.748 -1.547,7.464 -0.607,11.135 0.946,3.642 2.781,6.195 5.477,7.638 2.696,1.432 5.49,1.338 8.35,-0.314 2.89,-1.621 5.002,-4.297 6.365,-8.028 1.364,-3.747 1.559,-7.434 0.601,-11.076 -0.941,-3.686 -2.761,-6.252 -5.472,-7.683 -2.684,-1.43 -5.46,-1.335 -8.35,0.3"
         id="path1263" />
      <path
         inkscape:connector-curvature="0"
         style="fill:#ffffff"
         d="m 251.715,386.434 c 1.741,-3.743 1.935,-7.657 0.59,-11.743 -1.375,-4.089 -3.895,-7.162 -7.574,-9.22 -3.661,-2.087 -7.397,-2.543 -11.232,-1.367 -3.818,1.161 -6.6,3.606 -8.341,7.317 -1.741,3.711 -1.932,7.61 -0.589,11.697 1.376,4.087 3.878,7.16 7.543,9.218 3.678,2.088 7.427,2.543 11.246,1.383 3.82,-1.162 6.6,-3.592 8.357,-7.285"
         id="path1265" />
      <path
         inkscape:connector-curvature="0"
         style="fill:#0e5cab"
         d="m 278.688,380.55 c -0.086,-2.384 -0.756,-4.343 -2.007,-5.895 -1.252,-1.536 -2.716,-2.205 -4.411,-1.976 -1.693,0.214 -3.112,1.245 -4.255,3.109 -1.112,1.835 -1.634,3.944 -1.548,6.327 0.087,2.398 0.754,4.374 2.022,5.926 1.253,1.521 2.733,2.174 4.426,1.961 1.679,-0.229 3.083,-1.262 4.225,-3.096 1.128,-1.863 1.649,-3.973 1.548,-6.356 m -4.561,-4.59 c 1.032,0.554 1.752,1.548 2.177,2.962 0.423,1.448 0.439,2.918 0.011,4.412 -0.431,1.492 -1.152,2.559 -2.172,3.217 -1.035,0.674 -2.07,0.74 -3.101,0.186 -1.047,-0.541 -1.767,-1.532 -2.193,-2.965 -0.437,-1.447 -0.436,-2.916 -0.008,-4.41 0.414,-1.493 1.137,-2.561 2.17,-3.218 1.035,-0.658 2.068,-0.71 3.116,-0.184"
         id="path1267" />
      <path
         inkscape:connector-curvature="0"
         style="fill:#080101"
         d="m 276.304,378.922 c -0.425,-1.415 -1.146,-2.408 -2.177,-2.962 -1.048,-0.526 -2.081,-0.475 -3.116,0.182 -1.034,0.658 -1.756,1.726 -2.17,3.218 -0.428,1.495 -0.43,2.964 0.008,4.411 0.426,1.432 1.145,2.424 2.193,2.965 1.031,0.555 2.066,0.488 3.1,-0.186 1.021,-0.657 1.742,-1.725 2.172,-3.217 0.428,-1.493 0.413,-2.962 -0.01,-4.411"
         id="path1269" />
      <path
         inkscape:connector-curvature="0"
         style="fill:#ffffff"
         d="m 270.57,377.877 c -0.329,0.241 -0.562,0.592 -0.692,1.055 -0.147,0.491 -0.156,0.961 -0.014,1.439 0.141,0.476 0.396,0.808 0.736,0.992 0.324,0.17 0.657,0.142 1.019,-0.067 0.327,-0.21 0.56,-0.561 0.689,-1.054 0.148,-0.492 0.158,-0.976 0.017,-1.439 -0.141,-0.492 -0.396,-0.823 -0.736,-0.993 -0.338,-0.168 -0.687,-0.142 -1.019,0.067"
         id="path1271" />
      <path
         inkscape:connector-curvature="0"
         style="fill:#0e5cab"
         d="m 251.503,376.277 c -1.299,-2.083 -3.063,-3.359 -5.329,-3.797 -2.25,-0.437 -4.322,0.06 -6.202,1.522 -1.88,1.46 -3.046,3.429 -3.466,5.908 -0.419,2.477 0.006,4.772 1.276,6.854 1.298,2.068 3.08,3.33 5.315,3.768 2.267,0.438 4.352,-0.059 6.233,-1.488 1.878,-1.463 3.043,-3.43 3.463,-5.939 0.419,-2.479 -0.005,-4.76 -1.29,-6.828 m -4.076,-0.003 c 1.307,0.813 2.151,2.038 2.52,3.649 0.383,1.611 0.197,3.148 -0.577,4.606 -0.758,1.459 -1.87,2.401 -3.33,2.825 -1.465,0.453 -2.863,0.256 -4.168,-0.586 -1.29,-0.809 -2.134,-2.036 -2.521,-3.647 -0.368,-1.611 -0.182,-3.146 0.577,-4.606 0.76,-1.43 1.869,-2.371 3.334,-2.823 1.459,-0.425 2.86,-0.229 4.165,0.582"
         id="path1273" />
      <path
         inkscape:connector-curvature="0"
         style="fill:#080101"
         d="m 249.947,379.923 c -0.369,-1.611 -1.213,-2.837 -2.52,-3.649 -1.305,-0.811 -2.706,-1.007 -4.165,-0.584 -1.465,0.452 -2.574,1.393 -3.334,2.824 -0.759,1.459 -0.945,2.995 -0.577,4.605 0.387,1.612 1.231,2.839 2.521,3.648 1.305,0.844 2.703,1.039 4.168,0.586 1.46,-0.424 2.572,-1.365 3.33,-2.824 0.774,-1.459 0.96,-2.995 0.577,-4.606"
         id="path1275" />
      <path
         inkscape:connector-curvature="0"
         style="fill:#ffffff"
         d="m 248.599,379.336 c -0.11,-0.506 -0.39,-0.914 -0.815,-1.194 -0.426,-0.266 -0.878,-0.335 -1.355,-0.193 -0.477,0.14 -0.857,0.454 -1.124,0.94 -0.239,0.471 -0.294,0.969 -0.156,1.507 0.109,0.537 0.39,0.929 0.815,1.194 0.44,0.266 0.892,0.336 1.353,0.194 0.477,-0.142 0.859,-0.455 1.126,-0.941 0.254,-0.471 0.295,-0.969 0.156,-1.507"
         id="path1277" />
      <path
         inkscape:connector-curvature="0"
         style="fill:#3793d1"
         d="m 264.373,367.058 c 2.601,-0.21 5.237,0.08 7.907,0.889 2.748,2.19 4.889,4.986 6.45,8.386 0.676,3.582 0.438,7.509 -0.712,11.765 0.807,-1.184 1.482,-2.525 2.034,-4.058 0.125,-0.372 0.252,-0.743 0.377,-1.116 1.013,-3.402 1.101,-6.761 0.231,-10.095 -0.955,-3.717 -2.805,-6.3 -5.53,-7.747 -2.725,-1.463 -5.55,-1.355 -8.456,0.295 -0.828,0.472 -1.6,1.036 -2.301,1.681"
         id="path1279" />
      <path
         inkscape:connector-curvature="0"
         style="fill:#3793d1"
         d="m 247.126,366.828 c -0.713,-0.568 -1.473,-1.078 -2.283,-1.53 -3.723,-2.091 -7.532,-2.565 -11.413,-1.391 -3.879,1.173 -6.707,3.644 -8.483,7.414 -1.76,3.74 -1.967,7.686 -0.596,11.818 0.328,0.987 0.733,1.918 1.215,2.809 0.151,0.295 0.321,0.576 0.5,0.873 -0.459,-5.07 0.694,-10.281 3.479,-15.62 5.264,-4.676 11.115,-6.14 17.581,-4.373"
         id="path1281" />
      <path
         inkscape:connector-curvature="0"
         style="fill:#080101"
         d="m 262.608,368.919 c 0.077,-0.041 0.156,-0.083 0.232,-0.124 0.702,-0.902 1.469,-1.679 2.337,-2.345 -0.045,0.011 -0.076,0.01 -0.108,0.024 -0.016,0.014 -0.016,0.014 -0.03,0.013 -0.81,0.442 -1.625,1.247 -2.431,2.432"
         id="path1283" />
      <path
         inkscape:connector-curvature="0"
         style="fill:#080101"
         d="m 275.273,368.681 c -0.108,0.009 -0.243,0.002 -0.377,-0.036 -0.421,-0.34 -0.89,-0.668 -1.388,-0.967 -2.792,-1.678 -5.557,-2.097 -8.284,-1.241 -0.014,-0.001 -0.029,-0.002 -0.046,0.013 -0.868,0.666 -1.636,1.443 -2.337,2.346 2.966,-1.632 5.873,-1.599 8.706,0.112 2.923,1.745 4.88,4.592 5.898,8.54 0.526,2.088 0.698,4.264 0.504,6.527 -0.122,1.434 -0.458,3.217 -0.981,5.357 0.435,-0.508 0.86,-1.076 1.254,-1.676 0.17,-0.281 0.335,-0.559 0.501,-0.838 0.615,-1.603 1.012,-3.083 1.218,-4.451 0.146,-1.007 0.183,-2.005 0.13,-2.994 0.289,-0.302 0.562,-0.591 0.819,-0.88 0.097,-0.116 0.196,-0.232 0.291,-0.349 1.153,-1.454 1.738,-2.772 1.771,-3.968 0.002,-0.317 -0.408,-0.308 -1.242,-0.004 -0.294,0.09 -0.541,0.183 -0.771,0.262 -0.109,0.04 -0.217,0.064 -0.323,0.089 -0.448,0.143 -0.738,0.203 -0.86,0.197 0.24,-0.502 0.445,-0.976 0.607,-1.437 0.071,-0.194 0.142,-0.387 0.198,-0.566 0.4,-1.266 0.485,-2.308 0.24,-3.124 -0.089,-0.338 -0.49,-0.192 -1.205,0.421 -0.079,0.072 -0.174,0.143 -0.254,0.214 -0.016,0.015 -0.03,0.014 -0.047,0.028 -0.46,0.4 -0.938,0.844 -1.464,1.332 0.234,-1.261 0.348,-2.285 0.376,-3.072 0.018,-0.089 0.023,-0.165 0.012,-0.241 -0.005,-0.198 -0.026,-0.395 -0.06,-0.579 -0.215,-0.269 -0.443,-0.539 -0.687,-0.779 -0.016,0.014 -0.016,0.014 -0.031,0.029 -0.05,0.073 -0.097,0.13 -0.147,0.204 -0.795,0.973 -1.473,1.483 -2.021,1.531"
         id="path1285" />
      <path
         inkscape:connector-curvature="0"
         style="fill:#080101"
         d="m 277.472,366.917 c 0.245,0.24 0.472,0.51 0.687,0.779 -0.024,-0.153 -0.061,-0.306 -0.099,-0.445 -0.123,-0.522 -0.315,-0.638 -0.588,-0.334"
         id="path1287" />
      <path
         inkscape:connector-curvature="0"
         style="fill:#080101"
         d="m 278.222,387.656 c -0.394,0.6 -0.819,1.168 -1.254,1.676 -0.017,0.014 -0.017,0.043 -0.019,0.059 0.562,-0.576 0.966,-1.055 1.183,-1.438 0.015,-0.029 0.017,-0.043 0.032,-0.059 0.216,-0.352 0.349,-0.572 0.401,-0.66 0.052,-0.135 0.105,-0.283 0.157,-0.416 -0.165,0.28 -0.331,0.557 -0.5,0.838"
         id="path1289" />
      <path
         inkscape:connector-curvature="0"
         style="fill:#070101"
         d="m 223.165,371.803 c -1.053,-0.435 -1.612,-0.479 -1.645,-0.147 -0.187,1.52 0.792,3.36 2.966,5.505 -0.217,0.974 -0.315,1.968 -0.294,3.015 0.081,1.61 0.485,3.42 1.242,5.443 0.466,0.92 0.954,1.703 1.464,2.383 -0.273,-2.545 -0.366,-4.535 -0.304,-5.986 0.106,-2.283 0.659,-4.436 1.69,-6.442 1.975,-3.82 5.021,-6.402 9.169,-7.772 4.133,-1.374 8.084,-1.013 11.851,1.111 -0.888,-1.29 -1.854,-2.205 -2.887,-2.729 -3.524,-1.262 -7.314,-1.221 -11.374,0.156 -0.691,0.236 -1.343,0.505 -1.963,0.79 -0.199,0.02 -0.364,0.011 -0.53,-0.013 -0.767,-0.131 -1.64,-0.799 -2.594,-1.985 -0.312,-0.365 -0.606,-0.29 -0.859,0.227 -0.218,0.367 -0.361,0.784 -0.4,1.236 -0.088,0.784 -0.081,1.814 0.019,3.092 -0.623,-0.549 -1.202,-1.048 -1.738,-1.501 -1.058,-0.92 -1.678,-1.21 -1.865,-0.841 -0.682,1.161 -0.487,2.914 0.571,5.243 -0.272,-0.014 -1.108,-0.271 -2.519,-0.785"
         id="path1291" />
      <path
         inkscape:connector-curvature="0"
         style="fill:none;stroke:#080101;stroke-width:0.015;stroke-miterlimit:10"
         d="m 262.841,368.795 c 0.701,-0.903 1.469,-1.68 2.337,-2.346 m 12.981,1.248 c -0.215,-0.269 -0.442,-0.539 -0.687,-0.779 m -0.504,22.414 c 0.436,-0.508 0.86,-1.076 1.254,-1.676 0.17,-0.281 0.335,-0.559 0.501,-0.838"
         id="path1293" />
      <path
         inkscape:connector-curvature="0"
         style="fill:#da4d5d"
         d="m 261.159,395.635 c 1.232,-0.934 1.868,-2.113 1.944,-3.533 0.076,-1.42 -0.436,-2.629 -1.563,-3.688 -1.064,-1.088 -2.456,-1.678 -4.119,-1.764 -1.602,-0.084 -3.018,0.354 -4.252,1.32 -1.231,0.904 -1.867,2.051 -1.942,3.473 -0.074,1.422 0.433,2.691 1.56,3.75 1.126,1.059 2.489,1.646 4.09,1.732 1.662,0.089 3.11,-0.351 4.282,-1.29"
         id="path1295" />
    </g>
  </g>
</svg>
