<?xml version="1.0" encoding="UTF-8" standalone="no"?>
<!-- Created with Inkscape (http://www.inkscape.org/) -->

<svg
   xmlns:dc="http://purl.org/dc/elements/1.1/"
   xmlns:cc="http://creativecommons.org/ns#"
   xmlns:rdf="http://www.w3.org/1999/02/22-rdf-syntax-ns#"
   xmlns:svg="http://www.w3.org/2000/svg"
   xmlns="http://www.w3.org/2000/svg"
   version="1.1"
   width="350"
   height="135"
   id="svg6842"
   xml:space="preserve"><metadata
     id="metadata6848"><rdf:RDF><cc:Work
         rdf:about=""><dc:format>image/svg+xml</dc:format><dc:type
           rdf:resource="http://purl.org/dc/dcmitype/StillImage" /><dc:title></dc:title></cc:Work></rdf:RDF></metadata><defs
     id="defs6846"><clipPath
       id="clipPath6856"><path
         d="M 0,612 792,612 792,0 0,0 0,612 z"
         id="path6858" /></clipPath></defs><g
     transform="matrix(1.25,0,0,-1.25,0,135)"
     id="g6850"><g
       transform="translate(-256,-251.9999)"
       id="g6852"><g
         clip-path="url(#clipPath6856)"
         id="g6854"><g
           transform="translate(516.584,324.7109)"
           id="g6860"><path
             d="m 0,0 -82.262,0.006 c -2.775,18.693 -18.847,33.079 -38.332,33.079 -19.477,0 -35.549,-14.386 -38.316,-33.079 L -241.18,0 c -6.986,0 -12.674,-5.701 -12.674,-12.693 l 0,-45.122 c 0,-6.989 5.688,-12.692 12.674,-12.692 l 241.18,0 c 6.994,0 12.686,5.703 12.686,12.692 l 0,45.122 C 12.686,-5.701 6.994,0 0,0"
             id="path6862"
             style="fill:#fcd205;fill-opacity:1;fill-rule:nonzero;stroke:none" /></g><g
           transform="translate(515.8281,316.748)"
           id="g6864"><path
             d="m 0,0 -239.667,0 c -3.004,0 -5.45,-2.452 -5.45,-5.459 l 0,-43.673 c 0,-3.006 2.446,-5.433 5.45,-5.433 l 239.667,0 c 3,0 5.453,2.427 5.453,5.433 l 0,43.673 C 5.453,-2.452 3,0 0,0"
             id="path6866"
             style="fill:#1aae48;fill-opacity:1;fill-rule:nonzero;stroke:none" /></g><g
           transform="translate(288.1548,270.333)"
           id="g6868"><path
             d="m 0,0 c -5.304,0 -7.684,3.701 -8.212,10.002 l 5.667,1.008 C -2.13,6.506 -1.323,5.398 0,5.398 c 1.482,0 2.114,0.959 2.114,3.338 0,3.551 -1.105,5.205 -4.446,8.909 -3.765,3.808 -5.619,7.304 -5.619,11.548 0,5.195 2.546,9.067 7.629,9.067 5.192,0 7.256,-3.51 7.943,-8.969 l -5.557,-1.16 c -0.426,3.64 -1.055,4.758 -2.386,4.758 -1.269,0 -1.909,-0.903 -1.909,-3.221 0,-2.606 0.908,-4.141 3.822,-7.273 C 5.875,18.061 7.896,14.352 7.896,9.268 7.896,3.803 5.037,0 0,0"
             id="path6870"
             style="fill:#ffffff;fill-opacity:1;fill-rule:nonzero;stroke:none" /></g><g
           transform="translate(299.2769,270.9092)"
           id="g6872"><path
             d="m 0,0 0,37.099 13.877,0 0,-5.525 -7.948,0 0,-9.265 6.096,0 0,-5.51 -6.096,0 0,-11.283 8.428,0 L 14.357,0 0,0 z"
             id="path6874"
             style="fill:#ffffff;fill-opacity:1;fill-rule:nonzero;stroke:none" /></g><g
           transform="translate(323.8599,270.333)"
           id="g6876"><path
             d="m 0,0 c -5.298,0 -7.68,3.701 -8.223,10.002 l 5.678,1.008 C -2.104,6.506 -1.32,5.398 0,5.398 c 1.486,0 2.114,0.959 2.114,3.338 0,3.551 -1.105,5.205 -4.443,8.909 -3.773,3.808 -5.619,7.304 -5.619,11.548 0,5.195 2.542,9.067 7.622,9.067 5.199,0 7.264,-3.51 7.955,-8.969 l -5.561,-1.16 c -0.431,3.64 -1.059,4.758 -2.394,4.758 -1.27,0 -1.895,-0.903 -1.895,-3.221 0,-2.606 0.901,-4.141 3.811,-7.273 C 5.883,18.061 7.893,14.352 7.893,9.268 7.893,3.803 5.021,0 0,0"
             id="path6878"
             style="fill:#ffffff;fill-opacity:1;fill-rule:nonzero;stroke:none" /></g><g
           transform="translate(351.4067,270.9092)"
           id="g6880"><path
             d="m 0,0 -5.875,37.099 -6.356,0 L -18.11,0 l 5.879,0 0.956,8.16 4.337,0 L -5.925,0 0,0 z m -7.517,13.498 -3.29,0 0.796,6.744 c 0.319,2.649 0.686,5.717 0.795,8.633 0.159,-2.916 0.532,-5.932 0.846,-8.582 l 0.853,-6.795 z"
             id="path6882"
             style="fill:#ffffff;fill-opacity:1;fill-rule:nonzero;stroke:none" /></g><g
           transform="translate(369.8472,270.9092)"
           id="g6884"><path
             d="m 0,0 0,9.693 c 0,4.5 0.155,8.797 0.265,12.616 -0.533,-2.926 -1.689,-8.438 -2.648,-12.186 L -5.032,-1.115 -7.633,10.123 c -0.9,3.594 -2.055,9.379 -2.584,12.186 0.051,-3.506 0.256,-8.274 0.256,-12.616 l 0,-9.693 -5.298,0 0,37.099 5.83,0 2.432,-11.292 c 0.796,-3.356 1.643,-7.629 1.965,-10.647 0.313,3.018 1.214,7.348 2.009,10.688 l 2.496,11.251 5.825,0 L 5.298,0 0,0 z"
             id="path6886"
             style="fill:#ffffff;fill-opacity:1;fill-rule:nonzero;stroke:none" /></g><g
           transform="translate(379.9595,270.9092)"
           id="g6888"><path
             d="m 0,0 0,37.099 13.888,0 0,-5.525 -7.943,0 0,-9.265 6.09,0 0,-5.51 -6.09,0 0,-11.283 8.409,0 L 14.354,0 0,0 z"
             id="path6890"
             style="fill:#ffffff;fill-opacity:1;fill-rule:nonzero;stroke:none" /></g><g
           transform="translate(414.4531,270.333)"
           id="g6892"><path
             d="m 0,0 c -5.299,0 -7.684,3.701 -8.211,10.002 l 5.666,1.008 C -2.123,6.506 -1.318,5.398 0,5.398 c 1.486,0 2.115,0.959 2.115,3.338 0,3.551 -1.101,5.205 -4.443,8.909 -3.768,3.808 -5.627,7.304 -5.627,11.548 0,5.195 2.555,9.067 7.65,9.067 5.18,0 7.244,-3.51 7.93,-8.969 l -5.557,-1.16 c -0.435,3.64 -1.054,4.758 -2.373,4.758 -1.287,0 -1.914,-0.903 -1.914,-3.221 0,-2.606 0.901,-4.141 3.823,-7.273 C 5.885,18.061 7.895,14.352 7.895,9.268 7.895,3.803 5.043,0 0,0"
             id="path6894"
             style="fill:#ffffff;fill-opacity:1;fill-rule:nonzero;stroke:none" /></g><g
           transform="translate(434.2676,302.4834)"
           id="g6896"><path
             d="m 0,0 0,-31.574 -5.934,0 0,31.574 -4.978,0 0,5.525 15.949,0 L 5.037,0 0,0 z"
             id="path6898"
             style="fill:#ffffff;fill-opacity:1;fill-rule:nonzero;stroke:none" /></g><g
           transform="translate(458.6875,270.9092)"
           id="g6900"><path
             d="m 0,0 -3.656,18.008 c 2.072,1.656 3.293,4.566 3.293,8.847 0,7.746 -3.758,10.244 -8.364,10.244 l -7.742,0 0,-37.099 5.875,0 0,16.316 1.487,0 L -6.033,0 0,0 z m -6.357,26.604 c 0,-3.928 -1.008,-5.413 -3.018,-5.413 l -1.219,0 0,10.864 1.379,0 c 2.072,0 2.858,-1.383 2.858,-5.451"
             id="path6902"
             style="fill:#ffffff;fill-opacity:1;fill-rule:nonzero;stroke:none" /></g><g
           transform="translate(462.6074,270.9092)"
           id="g6904"><path
             d="m 0,0 0,37.099 13.887,0 0,-5.525 -7.957,0 0,-9.265 6.095,0 0,-5.51 -6.095,0 0,-11.283 8.427,0 L 14.357,0 0,0 z"
             id="path6906"
             style="fill:#ffffff;fill-opacity:1;fill-rule:nonzero;stroke:none" /></g><g
           transform="translate(480.7852,270.9092)"
           id="g6908"><path
             d="m 0,0 0,37.099 13.875,0 0,-5.525 -7.943,0 0,-9.265 6.088,0 0,-5.51 -6.088,0 0,-11.283 8.416,0 L 14.348,0 0,0 z"
             id="path6910"
             style="fill:#ffffff;fill-opacity:1;fill-rule:nonzero;stroke:none" /></g><g
           transform="translate(507.8535,302.4834)"
           id="g6912"><path
             d="m 0,0 0,-31.574 -5.926,0 0,31.574 -4.99,0 0,5.525 15.953,0 L 5.037,0 0,0 z"
             id="path6914"
             style="fill:#ffffff;fill-opacity:1;fill-rule:nonzero;stroke:none" /></g><g
           transform="translate(516.5547,268.3076)"
           id="g6916"><path
             d="m 0,0 c 0,-0.287 -0.174,-0.441 -0.471,-0.441 l -0.806,0 0,0.861 0.806,0 C -0.191,0.42 0,0.295 0,0 m 0.721,0.016 c 0,0.714 -0.512,1.056 -1.153,1.056 l -1.554,0 0,-3.361 0.709,0 0,1.227 0.582,0 0.593,-1.227 0.799,0 -0.654,1.322 c 0.367,0.145 0.678,0.401 0.678,0.983 m 1.599,-0.69 c 0,1.75 -1.32,3.09 -3.066,3.09 -1.738,0 -3.067,-1.34 -3.067,-3.09 0,-1.732 1.329,-3.07 3.067,-3.07 1.746,0 3.066,1.338 3.066,3.07 m -0.541,0 c 0,-1.424 -1.086,-2.514 -2.525,-2.514 -1.428,0 -2.522,1.09 -2.522,2.514 0,1.444 1.094,2.533 2.522,2.533 1.439,0 2.525,-1.089 2.525,-2.533"
             id="path6918"
             style="fill:#ffffff;fill-opacity:1;fill-rule:nonzero;stroke:none" /></g><g
           transform="translate(424.6777,327.0234)"
           id="g6920"><path
             d="m 0,0 c -2.418,12.779 -15.004,22.791 -28.688,22.791 -13.678,0 -26.297,-10.012 -28.695,-22.791 -0.02,-1.906 1.466,-2.307 2.025,-2.307 l 53.29,0 c 0.572,0 2.08,0.401 2.08,2.225 l 0,0.051 L 0,0 z"
             id="path6922"
             style="fill:#1aae48;fill-opacity:1;fill-rule:nonzero;stroke:none" /></g><g
           transform="translate(384.4653,329.5195)"
           id="g6924"><path
             d="m 0,0 0,9.379 -1.707,0 0,1.404 c 1.25,0.137 1.781,0.885 2.037,1.812 l 1.925,0 L 2.255,0 0,0 z"
             id="path6926"
             style="fill:#ffffff;fill-opacity:1;fill-rule:nonzero;stroke:none" /></g><g
           transform="translate(384.4653,329.5195)"
           id="g6928"><path
             d="m 0,0 0,9.379 -1.707,0 0,1.404 c 1.25,0.137 1.781,0.885 2.037,1.812 l 1.925,0 L 2.255,0 0,0 z"
             id="path6930"
             style="fill:none;stroke:#ffffff;stroke-width:0.15000001;stroke-linecap:butt;stroke-linejoin:miter;stroke-miterlimit:4;stroke-opacity:1;stroke-dasharray:none" /></g><g
           transform="translate(391.0854,329.5195)"
           id="g6932"><path
             d="m 0,0 c 0.136,3.849 1.331,5.452 3.722,7.16 0.865,0.631 1.188,1.155 1.188,1.924 0,0.992 -0.514,1.458 -1.44,1.458 -0.792,0 -1.421,-0.44 -2.022,-1.128 l -1.396,1.643 c 0.838,1.054 1.964,1.745 3.502,1.745 2.173,0 3.64,-1.208 3.64,-3.407 C 7.194,7.648 6.325,6.576 5.119,5.668 3.412,4.396 2.64,3.543 2.555,2.207 l 4.674,0 L 7.229,0 0,0 z"
             id="path6934"
             style="fill:#ffffff;fill-opacity:1;fill-rule:nonzero;stroke:none" /></g><g
           transform="translate(391.0854,329.5195)"
           id="g6936"><path
             d="m 0,0 c 0.136,3.849 1.331,5.452 3.722,7.16 0.865,0.631 1.188,1.155 1.188,1.924 0,0.992 -0.514,1.458 -1.44,1.458 -0.792,0 -1.421,-0.44 -2.022,-1.128 l -1.396,1.643 c 0.838,1.054 1.964,1.745 3.502,1.745 2.173,0 3.64,-1.208 3.64,-3.407 C 7.194,7.648 6.325,6.576 5.119,5.668 3.412,4.396 2.64,3.543 2.555,2.207 l 4.674,0 L 7.229,0 0,0 z"
             id="path6938"
             style="fill:none;stroke:#ffffff;stroke-width:0.15000001;stroke-linecap:butt;stroke-linejoin:miter;stroke-miterlimit:4;stroke-opacity:1;stroke-dasharray:none" /></g><g
           transform="translate(405.1406,329.3203)"
           id="g6940"><path
             d="m 0,0 c -1.699,0 -2.885,0.719 -3.877,2.299 l 1.781,1.265 c 0.686,-0.979 1.315,-1.355 2.158,-1.355 1.092,0 1.688,0.697 1.688,1.714 0,1.282 -0.838,1.812 -1.998,1.812 l -0.869,0 0,2.189 0.888,0 c 1.038,0 1.633,0.462 1.633,1.366 0,0.823 -0.392,1.472 -1.482,1.472 -0.678,0 -1.164,-0.28 -1.822,-0.933 l -1.52,1.529 c 0.914,1.022 1.797,1.643 3.482,1.643 2.196,0 3.61,-1.359 3.61,-3.438 C 3.672,8.141 2.943,7.338 1.9,6.951 3.006,6.641 4.041,5.735 4.041,3.978 4.041,1.51 2.529,0 0,0"
             id="path6942"
             style="fill:#ffffff;fill-opacity:1;fill-rule:nonzero;stroke:none" /></g><g
           transform="translate(405.1406,329.3203)"
           id="g6944"><path
             d="m 0,0 c -1.699,0 -2.885,0.719 -3.877,2.299 l 1.781,1.265 c 0.686,-0.979 1.315,-1.355 2.158,-1.355 1.092,0 1.688,0.697 1.688,1.714 0,1.282 -0.838,1.812 -1.998,1.812 l -0.869,0 0,2.189 0.888,0 c 1.038,0 1.633,0.462 1.633,1.366 0,0.823 -0.392,1.472 -1.482,1.472 -0.678,0 -1.164,-0.28 -1.822,-0.933 l -1.52,1.529 c 0.914,1.022 1.797,1.643 3.482,1.643 2.196,0 3.61,-1.359 3.61,-3.438 C 3.672,8.141 2.943,7.338 1.9,6.951 3.006,6.641 4.041,5.735 4.041,3.978 4.041,1.51 2.529,0 0,0 z"
             id="path6946"
             style="fill:none;stroke:#ffffff;stroke-width:0.15000001;stroke-linecap:butt;stroke-linejoin:miter;stroke-miterlimit:4;stroke-opacity:1;stroke-dasharray:none" /></g></g></g></g></svg>