<?xml version="1.0" encoding="UTF-8" standalone="no"?>
<!-- Created with Inkscape (http://www.inkscape.org/) -->

<svg
   xmlns:dc="http://purl.org/dc/elements/1.1/"
   xmlns:cc="http://creativecommons.org/ns#"
   xmlns:rdf="http://www.w3.org/1999/02/22-rdf-syntax-ns#"
   xmlns:svg="http://www.w3.org/2000/svg"
   xmlns="http://www.w3.org/2000/svg"
   xmlns:sodipodi="http://sodipodi.sourceforge.net/DTD/sodipodi-0.dtd"
   xmlns:inkscape="http://www.inkscape.org/namespaces/inkscape"
   width="190"
   height="180"
   id="svg5696"
   version="1.1"
   inkscape:version="0.48.3.1 r9886"
   sodipodi:docname="New document 1">
  <defs
     id="defs5698" />
  <sodipodi:namedview
     id="base"
     pagecolor="#ffffff"
     bordercolor="#666666"
     borderopacity="1.0"
     inkscape:pageopacity="0.0"
     inkscape:pageshadow="2"
     inkscape:zoom="0.77472527"
     inkscape:cx="151.55319"
     inkscape:cy="240"
     inkscape:current-layer="layer1"
     inkscape:document-units="px"
     showgrid="false"
     inkscape:window-width="1027"
     inkscape:window-height="900"
     inkscape:window-x="868"
     inkscape:window-y="36"
     inkscape:window-maximized="0" />
  <metadata
     id="metadata5701">
    <rdf:RDF>
      <cc:Work
         rdf:about="">
        <dc:format>image/svg+xml</dc:format>
        <dc:type
           rdf:resource="http://purl.org/dc/dcmitype/StillImage" />
        <dc:title></dc:title>
      </cc:Work>
    </rdf:RDF>
  </metadata>
  <g
     id="layer1"
     inkscape:label="Layer 1"
     inkscape:groupmode="layer"
     transform="translate(0,-300)">
    <g
       transform="translate(-98.179375,244.43211)"
       id="g1649">
      <path
         inkscape:connector-curvature="0"
         style="fill:#e27c9f"
         d="m 214.889,161.907 c 11.522,-7.04 26.357,-11.303 38.009,-1.443 5.455,4.615 1.695,11.914 -3.692,14.648 -6.277,3.185 -12.677,3.819 -19.518,4.406 5.15,1.46 12.839,8.233 9.122,14.404 -4.224,7.01 -13.769,0.042 -18.025,-2.732 -6.19,-4.034 -11.765,-9.658 -11.642,-17.365 0.053,-3.349 1.732,-9.148 5.746,-11.918"
         id="path1651" />
      <path
         inkscape:connector-curvature="0"
         style="fill:#f8e6f0"
         d="m 214.889,161.907 c 11.522,-7.04 26.357,-11.303 38.009,-1.443 5.455,4.615 1.695,11.914 -3.692,14.648 -6.277,3.185 -12.677,3.819 -19.518,4.406 5.15,1.46 12.839,8.233 9.122,14.404 -4.224,7.01 -13.769,0.042 -18.025,-2.732 -6.19,-4.034 -11.765,-9.658 -11.642,-17.365 0.053,-3.349 1.732,-9.148 5.746,-11.918"
         id="path1653" />
      <path
         inkscape:connector-curvature="0"
         style="fill:none;stroke:#e17c9f;stroke-width:2.16000009"
         d="m 214.889,161.907 c 11.522,-7.04 26.357,-11.303 38.009,-1.443 5.455,4.615 1.695,11.914 -3.692,14.648 -6.277,3.185 -12.677,3.819 -19.518,4.406 5.15,1.46 12.839,8.233 9.122,14.404 -4.224,7.01 -13.769,0.042 -18.025,-2.732 -6.19,-4.034 -11.765,-9.658 -11.642,-17.365 0.053,-3.349 1.732,-9.148 5.746,-11.918"
         id="path1655" />
      <path
         inkscape:connector-curvature="0"
         style="fill:#7c338f"
         d="m 208.698,89.604 c 0.023,-10.676 10.718,-22.922 32.884,-15.766 16.029,5.176 18.658,4.608 32.138,-6.022 1.145,-0.69 18.026,41.763 -17.196,47.994 -3.388,0.6 1.425,2.221 5.035,4.586 3.608,2.367 -5.123,5.615 -17.202,3.742 -5.352,-0.83 -16.073,-5.947 -22.02,-11.633 -5.95,-5.687 -13.655,-15.955 -13.639,-22.901"
         id="path1657" />
      <path
         inkscape:connector-curvature="0"
         style="fill:none;stroke:#5d1f80;stroke-width:4.51499987"
         d="m 208.698,89.604 c 0.023,-10.676 10.718,-22.922 32.884,-15.766 16.029,5.176 18.658,4.608 32.138,-6.022 1.145,-0.69 18.026,41.763 -17.196,47.994 -3.388,0.6 1.425,2.221 5.035,4.586 3.608,2.367 -5.123,5.615 -17.202,3.742 -5.352,-0.83 -16.073,-5.947 -22.02,-11.633 -5.95,-5.687 -13.655,-15.955 -13.639,-22.901 z"
         id="path1659" />
      <path
         inkscape:connector-curvature="0"
         style="fill:#84539c"
         d="m 208.698,89.604 c 0.023,-10.676 10.718,-22.922 32.884,-15.766 1.371,0.443 2.744,0.877 4.125,1.287 1.183,0.349 2.37,0.682 3.569,0.973 1.026,0.252 2.062,0.471 3.106,0.635 0.914,0.144 1.836,0.244 2.761,0.274 0.846,0.029 1.694,-0.002 2.534,-0.107 0.82,-0.102 1.631,-0.273 2.423,-0.509 0.832,-0.248 1.643,-0.567 2.43,-0.933 0.877,-0.408 1.725,-0.876 2.552,-1.376 0.955,-0.578 1.883,-1.2 2.794,-1.842 1.068,-0.752 2.114,-1.534 3.151,-2.327 0.428,-0.327 0.855,-0.658 1.28,-0.989 0.202,-0.157 0.926,-0.8 1.133,-0.864 0.161,-0.052 0.357,-0.064 0.52,-0.01 0.189,0.064 0.719,1.199 0.908,1.631 0.335,0.763 0.632,1.543 0.908,2.329 0.355,1.011 0.674,2.036 0.963,3.067 0.339,1.21 0.638,2.432 0.895,3.66 0.284,1.361 0.521,2.731 0.702,4.109 0.194,1.462 0.325,2.934 0.386,4.409 0.063,1.521 0.05,3.048 -0.054,4.567 -0.107,1.537 -0.307,3.069 -0.621,4.577 -0.314,1.514 -0.745,3.005 -1.308,4.444 -0.57,1.455 -1.275,2.856 -2.123,4.166 -0.876,1.357 -1.903,2.615 -3.06,3.742 -1.244,1.213 -2.634,2.272 -4.121,3.172 -1.672,1.012 -3.462,1.82 -5.307,2.456 -0.988,0.341 -1.992,0.633 -3.006,0.883 -0.808,0.199 -2.233,0.578 -2.422,1.202 -0.474,1.564 3.61,2.596 4.859,3.932 2.944,3.155 -5.123,5.615 -17.202,3.742 -5.352,-0.83 -16.073,-5.947 -22.02,-11.633 -5.95,-5.687 -13.655,-15.955 -13.639,-22.901"
         id="path1661" />
      <path
         inkscape:connector-curvature="0"
         style="fill:#7c338f"
         d="m 177.661,89.604 c -0.024,-10.676 -10.719,-22.922 -32.885,-15.766 -16.028,5.176 -18.657,4.608 -32.138,-6.022 -1.144,-0.69 -18.025,41.763 17.196,47.994 3.388,0.6 -1.424,2.221 -5.034,4.586 -3.608,2.367 5.122,5.615 17.201,3.742 5.353,-0.83 16.073,-5.947 22.02,-11.633 5.951,-5.687 13.656,-15.955 13.64,-22.901"
         id="path1663" />
      <path
         inkscape:connector-curvature="0"
         style="fill:none;stroke:#5d1f80;stroke-width:4.51499987"
         d="m 177.661,89.604 c -0.024,-10.676 -10.719,-22.922 -32.885,-15.766 -16.028,5.176 -18.657,4.608 -32.138,-6.022 -1.144,-0.69 -18.025,41.763 17.196,47.994 3.388,0.6 -1.424,2.221 -5.034,4.586 -3.608,2.367 5.122,5.615 17.201,3.742 5.353,-0.83 16.073,-5.947 22.02,-11.633 5.951,-5.687 13.656,-15.955 13.64,-22.901 z"
         id="path1665" />
      <path
         inkscape:connector-curvature="0"
         style="fill:#84539c"
         d="m 177.661,89.604 c -0.024,-10.676 -10.719,-22.922 -32.885,-15.766 -1.37,0.443 -2.743,0.877 -4.124,1.287 -1.183,0.349 -2.371,0.682 -3.569,0.973 -1.026,0.252 -2.062,0.471 -3.107,0.635 -0.913,0.144 -1.836,0.244 -2.76,0.274 -0.847,0.029 -1.695,-0.002 -2.534,-0.107 -0.821,-0.102 -1.631,-0.273 -2.424,-0.509 -0.832,-0.248 -1.642,-0.567 -2.43,-0.933 -0.876,-0.408 -1.725,-0.876 -2.552,-1.376 -0.954,-0.578 -1.882,-1.2 -2.794,-1.842 -1.067,-0.752 -2.113,-1.534 -3.151,-2.327 -0.427,-0.327 -0.854,-0.658 -1.28,-0.989 -0.202,-0.157 -0.926,-0.8 -1.132,-0.864 -0.162,-0.052 -0.358,-0.064 -0.521,-0.01 -0.189,0.064 -0.718,1.199 -0.908,1.631 -0.335,0.763 -0.632,1.543 -0.908,2.329 -0.355,1.011 -0.673,2.036 -0.963,3.067 -0.339,1.21 -0.636,2.432 -0.895,3.66 -0.284,1.361 -0.521,2.731 -0.702,4.109 -0.193,1.462 -0.325,2.934 -0.386,4.409 -0.062,1.521 -0.05,3.048 0.055,4.567 0.106,1.537 0.306,3.069 0.62,4.577 0.315,1.514 0.745,3.005 1.309,4.444 0.569,1.455 1.275,2.856 2.122,4.166 0.877,1.357 1.904,2.615 3.06,3.742 1.245,1.213 2.635,2.272 4.122,3.172 1.672,1.012 3.461,1.82 5.308,2.456 0.987,0.341 1.991,0.633 3.004,0.883 0.809,0.199 2.234,0.578 2.423,1.202 0.475,1.564 -3.611,2.596 -4.859,3.932 -2.945,3.155 5.122,5.615 17.201,3.742 5.353,-0.83 16.073,-5.947 22.02,-11.633 5.951,-5.687 13.656,-15.955 13.64,-22.901"
         id="path1667" />
      <path
         inkscape:connector-curvature="0"
         style="fill:#fcdf00"
         d="m 172.679,99.626 c -0.736,-10.79 -14.135,-3.792 -13.568,0.654 -3.837,-8.94 -18.146,2.289 -9.482,10.136 -3.992,0.656 -11.361,11.524 2.697,13.731 4.441,-10.799 9.056,-18.926 20.353,-24.521"
         id="path1669" />
      <path
         inkscape:connector-curvature="0"
         style="fill:#fcdf00"
         d="m 213.987,99.626 c 0.737,-10.79 14.136,-3.792 13.569,0.654 3.836,-8.94 18.146,2.289 9.482,10.136 3.993,0.656 11.362,11.524 -2.697,13.731 -4.441,-10.799 -9.056,-18.926 -20.354,-24.521"
         id="path1671" />
      <path
         inkscape:connector-curvature="0"
         style="fill:#c4084b"
         d="m 203.439,187.507 c 1.463,5.754 1.043,21.297 0.063,25.211 25.877,-2.245 19.816,16.104 -6.413,8.941 -1.488,-0.404 3.755,-18.972 1.009,-33.802"
         id="path1673" />
      <path
         inkscape:connector-curvature="0"
         style="fill:none;stroke:#c4084b;stroke-width:4.51499987"
         d="m 203.439,187.507 c 1.463,5.754 1.043,21.297 0.063,25.211 25.877,-2.245 19.816,16.104 -6.413,8.941 -1.488,-0.404 3.755,-18.972 1.009,-33.802"
         id="path1675" />
      <path
         inkscape:connector-curvature="0"
         style="fill:#c4084b"
         d="m 182.898,187.507 c -1.463,5.754 -1.043,21.297 -0.064,25.211 -25.876,-2.245 -19.815,16.104 6.414,8.941 1.488,-0.404 -3.756,-18.972 -1.01,-33.802"
         id="path1677" />
      <path
         inkscape:connector-curvature="0"
         style="fill:none;stroke:#c4084b;stroke-width:4.51499987"
         d="m 182.898,187.507 c -1.463,5.754 -1.043,21.297 -0.064,25.211 -25.876,-2.245 -19.815,16.104 6.414,8.941 1.488,-0.404 -3.756,-18.972 -1.01,-33.802"
         id="path1679" />
      <path
         inkscape:connector-curvature="0"
         style="fill:#e27c9f"
         d="m 203.439,187.507 c 1.463,5.754 1.043,21.297 0.063,25.211 25.877,-2.245 19.816,16.104 -6.413,8.941 -1.488,-0.404 3.755,-18.972 1.009,-33.802"
         id="path1681" />
      <path
         inkscape:connector-curvature="0"
         style="fill:#e27c9f"
         d="m 182.898,187.507 c -1.463,5.754 -1.043,21.297 -0.064,25.211 -25.876,-2.245 -19.815,16.104 6.414,8.941 1.488,-0.404 -3.756,-18.972 -1.01,-33.802"
         id="path1683" />
      <path
         inkscape:connector-curvature="0"
         style="fill:#e27c9f"
         d="m 171.108,161.907 c -11.521,-7.04 -26.356,-11.303 -38.009,-1.443 -5.455,4.615 -1.695,11.914 3.694,14.648 6.276,3.185 12.675,3.819 19.518,4.406 -5.15,1.46 -12.841,8.233 -9.122,14.404 4.222,7.01 13.767,0.042 18.024,-2.732 6.19,-4.034 11.766,-9.658 11.643,-17.365 -0.053,-3.349 -1.732,-9.148 -5.748,-11.918"
         id="path1685" />
      <path
         inkscape:connector-curvature="0"
         style="fill:#f8e6f0"
         d="m 171.108,161.907 c -11.521,-7.04 -26.356,-11.303 -38.009,-1.443 -5.455,4.615 -1.695,11.914 3.694,14.648 6.276,3.185 12.675,3.819 19.518,4.406 -5.15,1.46 -12.841,8.233 -9.122,14.404 4.222,7.01 13.767,0.042 18.024,-2.732 6.19,-4.034 11.766,-9.658 11.643,-17.365 -0.053,-3.349 -1.732,-9.148 -5.748,-11.918"
         id="path1687" />
      <path
         inkscape:connector-curvature="0"
         style="fill:none;stroke:#e17c9f;stroke-width:2.16000009"
         d="m 171.108,161.907 c -11.521,-7.04 -26.356,-11.303 -38.009,-1.443 -5.455,4.615 -1.695,11.914 3.694,14.648 6.276,3.185 12.675,3.819 19.518,4.406 -5.15,1.46 -12.841,8.233 -9.122,14.404 4.222,7.01 13.767,0.042 18.024,-2.732 6.19,-4.034 11.766,-9.658 11.643,-17.365 -0.053,-3.349 -1.732,-9.148 -5.748,-11.918"
         id="path1689" />
      <path
         inkscape:connector-curvature="0"
         style="fill:#c4084b"
         d="m 161.132,154.212 c 3.829,-1.319 -2.419,-12.955 -6.399,-15.493 -3.98,-2.535 -13.827,-1.733 -13.976,1.236 -0.189,3.757 10.103,17.793 20.375,14.257"
         id="path1691" />
      <path
         inkscape:connector-curvature="0"
         style="fill:none;stroke:#c4084b;stroke-width:4.51499987"
         d="m 161.132,154.212 c 3.829,-1.319 -2.419,-12.955 -6.399,-15.493 -3.98,-2.535 -13.827,-1.733 -13.976,1.236 -0.189,3.757 10.103,17.793 20.375,14.257 z"
         id="path1693" />
      <path
         inkscape:connector-curvature="0"
         style="fill:#e27c9f"
         d="m 161.132,154.212 c 3.829,-1.319 -2.419,-12.955 -6.399,-15.493 -3.98,-2.535 -13.827,-1.733 -13.976,1.236 -0.189,3.757 10.103,17.793 20.375,14.257"
         id="path1695" />
      <path
         inkscape:connector-curvature="0"
         style="fill:#c4084b"
         d="m 225.31,154.212 c -3.829,-1.319 2.419,-12.955 6.398,-15.493 3.98,-2.535 13.829,-1.733 13.977,1.236 0.189,3.757 -10.104,17.793 -20.375,14.257"
         id="path1697" />
      <path
         inkscape:connector-curvature="0"
         style="fill:none;stroke:#c4084b;stroke-width:4.51499987"
         d="m 225.31,154.212 c -3.829,-1.319 2.419,-12.955 6.398,-15.493 3.98,-2.535 13.829,-1.733 13.977,1.236 0.189,3.757 -10.104,17.793 -20.375,14.257 z"
         id="path1699" />
      <path
         inkscape:connector-curvature="0"
         style="fill:#e27c9f"
         d="m 225.31,154.212 c -3.829,-1.319 2.419,-12.955 6.398,-15.493 3.98,-2.535 13.829,-1.733 13.977,1.236 0.189,3.757 -10.104,17.793 -20.375,14.257"
         id="path1701" />
      <path
         inkscape:connector-curvature="0"
         style="fill:#c4084b"
         d="m 184.773,148.334 c -0.618,1.619 3.084,33.633 -28.06,30.415 0.041,-1.873 3.846,-4.682 -1.364,-5.875 -3.515,-0.808 -3.694,3.707 -4.377,4.468 -1.454,-2.325 -11.576,-5.938 -12.641,-2.147 -1.649,5.855 6.188,3.376 7.561,4.657 -1.809,0.315 -8.895,3.529 -5.055,8.645 2.664,3.548 7.048,-1.551 6.654,-2.221 0.152,0.829 4.982,6.504 9.022,-2.4 35.74,1.917 32.758,-30.716 33.245,-31.24"
         id="path1703" />
      <path
         inkscape:connector-curvature="0"
         style="fill:none;stroke:#c4084b;stroke-width:4.51499987"
         d="m 184.773,148.334 c -0.618,1.619 3.084,33.633 -28.06,30.415 0.041,-1.873 3.846,-4.682 -1.364,-5.875 -3.515,-0.808 -3.694,3.707 -4.377,4.468 -1.454,-2.325 -11.576,-5.938 -12.641,-2.147 -1.649,5.855 6.188,3.376 7.561,4.657 -1.809,0.315 -8.895,3.529 -5.055,8.645 2.664,3.548 7.048,-1.551 6.654,-2.221 0.152,0.829 4.982,6.504 9.022,-2.4 35.74,1.917 32.758,-30.716 33.245,-31.24"
         id="path1705" />
      <path
         inkscape:connector-curvature="0"
         style="fill:#c4084b"
         d="m 199.761,150.946 c 0.811,1.531 1.06,33.758 31.576,26.748 -0.271,-1.854 -4.391,-4.175 0.633,-5.999 3.39,-1.232 4.122,3.229 4.892,3.898 1.16,-2.485 10.761,-7.312 12.282,-3.679 2.354,5.611 -5.727,4.108 -6.931,5.547 1.834,0.092 9.26,2.414 6.076,7.962 -2.21,3.849 -7.185,-0.675 -6.877,-1.39 -0.05,0.845 -4.148,7.066 -9.249,-1.275 -35.234,6.283 -36.273,-26.47 -36.821,-26.93"
         id="path1707" />
      <path
         inkscape:connector-curvature="0"
         style="fill:none;stroke:#c4084b;stroke-width:4.51499987"
         d="m 199.761,150.946 c 0.811,1.531 1.06,33.758 31.576,26.748 -0.271,-1.854 -4.391,-4.175 0.633,-5.999 3.39,-1.232 4.122,3.229 4.892,3.898 1.16,-2.485 10.761,-7.312 12.282,-3.679 2.354,5.611 -5.727,4.108 -6.931,5.547 1.834,0.092 9.26,2.414 6.076,7.962 -2.21,3.849 -7.185,-0.675 -6.877,-1.39 -0.05,0.845 -4.148,7.066 -9.249,-1.275 -35.234,6.283 -36.273,-26.47 -36.821,-26.93"
         id="path1709" />
      <path
         inkscape:connector-curvature="0"
         style="fill:#e27c9f"
         d="m 199.761,150.946 c 0.811,1.531 1.06,33.758 31.576,26.748 -0.271,-1.854 -4.391,-4.175 0.633,-5.999 3.39,-1.232 4.122,3.229 4.892,3.898 1.16,-2.485 10.761,-7.312 12.282,-3.679 2.354,5.611 -5.727,4.108 -6.931,5.547 1.834,0.092 9.26,2.414 6.076,7.962 -2.21,3.849 -7.185,-0.675 -6.877,-1.39 -0.05,0.845 -4.148,7.066 -9.249,-1.275 -35.234,6.283 -36.273,-26.47 -36.821,-26.93"
         id="path1711" />
      <path
         inkscape:connector-curvature="0"
         style="fill:#e27c9f"
         d="m 184.773,148.334 c -0.618,1.619 3.084,33.633 -28.06,30.415 0.041,-1.873 3.846,-4.682 -1.364,-5.875 -3.515,-0.808 -3.694,3.707 -4.377,4.468 -1.454,-2.325 -11.576,-5.938 -12.641,-2.147 -1.649,5.855 6.188,3.376 7.561,4.657 -1.809,0.315 -8.895,3.529 -5.055,8.645 2.664,3.548 7.048,-1.551 6.654,-2.221 0.152,0.829 4.982,6.504 9.022,-2.4 35.74,1.917 32.758,-30.716 33.245,-31.24"
         id="path1713" />
      <path
         inkscape:connector-curvature="0"
         style="fill:#3992d1"
         d="m 186.62,170.621 c 0,0 -2.246,24.408 7.635,34.511 0,0 11.112,-9.85 0.334,-39.254 l -7.969,4.743 z"
         id="path1715" />
      <path
         inkscape:connector-curvature="0"
         style="fill:none;stroke:#3992d1;stroke-width:4.51499987"
         d="m 186.62,170.621 c 0,0 -2.246,24.408 7.635,34.511 0,0 11.112,-9.85 0.334,-39.254 l -7.969,4.743 z"
         id="path1717" />
      <path
         inkscape:connector-curvature="0"
         style="fill:#3992d1"
         d="m 193.546,169.092 c 0,0 1.595,24.494 12.846,31.852 0,0 9.356,-12.509 -5.776,-38.548 l -7.07,6.696 z"
         id="path1719" />
      <path
         inkscape:connector-curvature="0"
         style="fill:none;stroke:#3992d1;stroke-width:4.51499987"
         d="m 193.546,169.092 c 0,0 1.595,24.494 12.846,31.852 0,0 9.356,-12.509 -5.776,-38.548 l -7.07,6.696 z"
         id="path1721" />
      <path
         inkscape:connector-curvature="0"
         style="fill:#3992d1"
         d="m 185.256,168.346 c 0,0 -10.892,20.197 -5.854,35.083 0,0 13.406,-1.987 14.621,-34.458 l -8.767,-0.625 z"
         id="path1723" />
      <path
         inkscape:connector-curvature="0"
         style="fill:none;stroke:#3992d1;stroke-width:4.51499987"
         d="m 185.256,168.346 c 0,0 -10.892,20.197 -5.854,35.083 0,0 13.406,-1.987 14.621,-34.458 l -8.767,-0.625 z"
         id="path1725" />
      <path
         inkscape:connector-curvature="0"
         style="fill:#3992d1"
         d="m 181.789,162.836 -3.806,19.64 c 0,0 17.342,7.142 28.974,-1.786 l -5.921,-19.893 -19.247,2.039 z"
         id="path1727" />
      <path
         inkscape:connector-curvature="0"
         style="fill:none;stroke:#3992d1;stroke-width:4.51499987"
         d="m 181.789,162.836 -3.806,19.64 c 0,0 17.342,7.142 28.974,-1.786 l -5.921,-19.893 -19.247,2.039 z"
         id="path1729" />
      <path
         inkscape:connector-curvature="0"
         style="fill:#3992d1"
         d="m 181.117,166.94 c 0,0 -12.239,18.875 -8.249,34.277 0,0 13.492,-0.452 16.938,-32.657 l -8.689,-1.62 z"
         id="path1731" />
      <path
         inkscape:connector-curvature="0"
         style="fill:none;stroke:#3992d1;stroke-width:4.51499987"
         d="m 181.117,166.94 c 0,0 -12.239,18.875 -8.249,34.277 0,0 13.492,-0.452 16.938,-32.657 l -8.689,-1.62 z"
         id="path1733" />
      <path
         inkscape:connector-curvature="0"
         style="fill:#3992d1"
         d="m 183.719,170.794 c 0,0 -5.682,23.466 2.592,35.726 0,0 12.327,-7.065 5.917,-38.511 l -8.509,2.785 z"
         id="path1735" />
      <path
         inkscape:connector-curvature="0"
         style="fill:none;stroke:#3992d1;stroke-width:4.51499987"
         d="m 183.719,170.794 c 0,0 -5.682,23.466 2.592,35.726 0,0 12.327,-7.065 5.917,-38.511 l -8.509,2.785 z"
         id="path1737" />
      <path
         inkscape:connector-curvature="0"
         style="fill:#3992d1"
         d="m 189.345,173.22 c 0,0 0.067,24.579 10.828,33.069 0,0 10.102,-11.507 -3.366,-39.018 l -7.462,5.949 z"
         id="path1739" />
      <path
         inkscape:connector-curvature="0"
         style="fill:none;stroke:#3992d1;stroke-width:4.51499987"
         d="m 189.345,173.22 c 0,0 0.067,24.579 10.828,33.069 0,0 10.102,-11.507 -3.366,-39.018 l -7.462,5.949 z"
         id="path1741" />
      <path
         inkscape:connector-curvature="0"
         style="fill:#3992d1"
         d="m 196.36,172.979 c 0,0 5.211,23.647 17.349,28.098 0,0 7.322,-14.58 -11.405,-36.411 l -5.944,8.313 z"
         id="path1743" />
      <path
         inkscape:connector-curvature="0"
         style="fill:none;stroke:#3992d1;stroke-width:4.51499987"
         d="m 196.36,172.979 c 0,0 5.211,23.647 17.349,28.098 0,0 7.322,-14.58 -11.405,-36.411 l -5.944,8.313 z"
         id="path1745" />
      <path
         inkscape:connector-curvature="0"
         style="fill:#bc9fca"
         d="m 186.62,170.621 c 0,0 -2.246,24.408 7.635,34.511 0,0 11.112,-9.85 0.334,-39.254 l -7.969,4.743 z"
         id="path1747" />
      <path
         inkscape:connector-curvature="0"
         style="fill:#bc9fca"
         d="m 193.546,169.092 c 0,0 1.595,24.494 12.846,31.852 0,0 9.356,-12.509 -5.776,-38.548 l -7.07,6.696 z"
         id="path1749" />
      <path
         inkscape:connector-curvature="0"
         style="fill:#bc9fca"
         d="m 185.256,168.346 c 0,0 -10.892,20.197 -5.854,35.083 0,0 13.406,-1.987 14.621,-34.458 l -8.767,-0.625 z"
         id="path1751" />
      <path
         inkscape:connector-curvature="0"
         style="fill:#86c1ea"
         d="m 181.789,162.836 -3.806,19.64 c 0,0 17.342,7.142 28.974,-1.786 l -5.921,-19.893 -19.247,2.039 z"
         id="path1753" />
      <path
         inkscape:connector-curvature="0"
         style="fill:#86c1ea"
         d="m 181.117,166.94 c 0,0 -12.239,18.875 -8.249,34.277 0,0 13.492,-0.452 16.938,-32.657 l -8.689,-1.62 z"
         id="path1755" />
      <path
         inkscape:connector-curvature="0"
         style="fill:#86c1ea"
         d="m 183.719,170.794 c 0,0 -5.682,23.466 2.592,35.726 0,0 12.327,-7.065 5.917,-38.511 l -8.509,2.785 z"
         id="path1757" />
      <path
         inkscape:connector-curvature="0"
         style="fill:#86c1ea"
         d="m 189.345,173.22 c 0,0 0.067,24.579 10.828,33.069 0,0 10.102,-11.507 -3.366,-39.018 l -7.462,5.949 z"
         id="path1759" />
      <path
         inkscape:connector-curvature="0"
         style="fill:#86c1ea"
         d="m 196.36,172.979 c 0,0 5.211,23.647 17.349,28.098 0,0 7.322,-14.58 -11.405,-36.411 l -5.944,8.313 z"
         id="path1761" />
      <path
         inkscape:connector-curvature="0"
         style="fill:#c4084b"
         d="m 151.674,136.473 c 0,-21.483 15.999,-40.062 40.952,-39.895 24.76,0.168 42.48,18.412 42.48,39.895 0,21.481 -16.399,34.596 -40.981,35.675 -25.641,1.126 -42.451,-14.194 -42.451,-35.675"
         id="path1763" />
      <path
         inkscape:connector-curvature="0"
         style="fill:none;stroke:#c4084b;stroke-width:4.51499987"
         d="m 151.674,136.473 c 0,-21.483 15.999,-40.062 40.952,-39.895 24.76,0.168 42.48,18.412 42.48,39.895 0,21.481 -16.399,34.596 -40.981,35.675 -25.641,1.126 -42.451,-14.194 -42.451,-35.675 z"
         id="path1765" />
      <path
         inkscape:connector-curvature="0"
         style="fill:#e27c9f"
         d="m 151.674,136.473 c 0,-21.483 15.999,-40.062 40.952,-39.895 24.76,0.168 42.48,18.412 42.48,39.895 0,21.481 -16.399,34.596 -40.981,35.675 -25.641,1.126 -42.451,-14.194 -42.451,-35.675"
         id="path1767" />
      <path
         inkscape:connector-curvature="0"
         style="fill:#7c338f"
         d="m 175.563,101.598 c -0.048,0.334 -0.092,0.673 -0.12,1.026 -0.256,3.173 -0.665,6.729 0.795,9.623 1.331,2.636 5.169,7.528 8.741,7.418 0.039,-0.821 -0.479,-2.484 0.358,-2.881 1.214,-0.576 8.342,8.553 10.214,8.163 6.717,-1.402 10.326,-11.915 10.271,-17.394 0.269,1.354 1.35,6.164 1.77,7.006 1.224,-1.932 2.069,-4.081 2.581,-6.276 0.419,-1.796 0.621,-3.681 0.553,-5.551 -12.512,-7.813 -28.372,-3.572 -35.163,-1.134"
         id="path1769" />
      <path
         inkscape:connector-curvature="0"
         style="fill:none;stroke:#5d1f80;stroke-width:4.51499987"
         d="m 175.563,101.598 c -0.048,0.334 -0.092,0.673 -0.12,1.026 -0.256,3.173 -0.665,6.729 0.795,9.623 1.331,2.636 5.169,7.528 8.741,7.418 0.039,-0.821 -0.479,-2.484 0.358,-2.881 1.214,-0.576 8.342,8.553 10.214,8.163 6.717,-1.402 10.326,-11.915 10.271,-17.394 0.269,1.354 1.35,6.164 1.77,7.006 1.224,-1.932 2.069,-4.081 2.581,-6.276 0.419,-1.796 0.621,-3.681 0.553,-5.551 -12.512,-7.813 -28.372,-3.572 -35.163,-1.134 z"
         id="path1771" />
      <path
         inkscape:connector-curvature="0"
         style="fill:none;stroke:#5d1f80;stroke-width:4.51499987;stroke-miterlimit:5"
         d="m 191.585,104.471 c 0,0 30.704,-2.733 43.245,29.776 0,-0.018 10e-4,-0.033 10e-4,-0.051 0,-21.482 -17.719,-39.726 -42.478,-39.892 -24.744,-0.168 -40.673,18.1 -40.939,39.352 2.179,-7.387 10.714,-27.057 40.171,-29.185 z"
         id="path1773" />
      <path
         inkscape:connector-curvature="0"
         style="fill:#84539c"
         d="m 191.585,104.471 c 0,0 30.704,-2.733 43.245,29.776 0,-0.018 10e-4,-0.033 10e-4,-0.051 0,-21.482 -17.719,-39.726 -42.478,-39.892 -24.744,-0.168 -40.673,18.1 -40.939,39.352 2.179,-7.387 10.714,-27.057 40.171,-29.185"
         id="path1775" />
      <path
         inkscape:connector-curvature="0"
         style="fill:#7c338f"
         d="m 149.181,132.986 c 0,0 -0.245,5.209 1.379,9.644 0,0 1.147,-3.04 3.556,-9.94 l -4.935,0.296 z"
         id="path1777" />
      <path
         inkscape:connector-curvature="0"
         style="fill:#7c338f"
         d="m 237.07,133.901 c 0,0 0.245,5.209 -1.379,9.645 0,0 -1.147,-3.041 -3.556,-9.941 l 4.935,0.296 z"
         id="path1779" />
      <path
         inkscape:connector-curvature="0"
         style="fill:#d82629"
         d="m 159.443,151.533 c 0,0 28.902,14.008 65.25,0 0,0 -8.044,15.59 -31.285,16.72 0,-10e-4 -26.218,1.355 -33.965,-16.72"
         id="path1781" />
      <path
         inkscape:connector-curvature="0"
         style="fill:#da4d5d"
         d="m 198.434,148.54 c 0,2.811 -2.74,5.089 -6.117,5.089 -3.38,0 -6.118,-2.278 -6.118,-5.089 0,-2.812 2.738,-5.09 6.118,-5.09 3.376,0 6.117,2.278 6.117,5.09"
         id="path1783" />
      <path
         inkscape:connector-curvature="0"
         style="fill:#84539c"
         d="m 175.563,101.598 c -0.048,0.334 -0.092,0.673 -0.12,1.026 -0.256,3.173 -0.665,6.729 0.795,9.623 1.331,2.636 5.169,7.528 8.741,7.418 0.039,-0.821 -0.479,-2.484 0.358,-2.881 1.214,-0.576 8.342,8.553 10.214,8.163 6.717,-1.402 10.326,-11.915 10.271,-17.394 0.269,1.354 1.35,6.164 1.77,7.006 1.224,-1.932 2.069,-4.081 2.581,-6.276 0.419,-1.796 0.621,-3.681 0.553,-5.551 -12.512,-7.813 -28.372,-3.572 -35.163,-1.134"
         id="path1785" />
      <path
         inkscape:connector-curvature="0"
         style="fill:#a682b9"
         d="m 158.668,144.965 c 0,0.514 -0.416,0.93 -0.93,0.93 -0.513,0 -0.931,-0.416 -0.931,-0.93 0,-0.514 0.418,-0.93 0.931,-0.93 0.514,0.001 0.93,0.417 0.93,0.93"
         id="path1787" />
      <path
         inkscape:connector-curvature="0"
         style="fill:#a682b9"
         d="m 156.57,148.55 c 0,0.514 -0.417,0.931 -0.93,0.931 -0.514,0 -0.93,-0.417 -0.93,-0.931 0,-0.515 0.416,-0.931 0.93,-0.931 0.513,0 0.93,0.416 0.93,0.931"
         id="path1789" />
      <path
         inkscape:connector-curvature="0"
         style="fill:#a682b9"
         d="m 161.181,148.594 c 0,0.514 -0.417,0.93 -0.93,0.93 -0.515,0 -0.931,-0.416 -0.931,-0.93 0,-0.514 0.416,-0.93 0.931,-0.93 0.513,0 0.93,0.416 0.93,0.93"
         id="path1791" />
      <path
         inkscape:connector-curvature="0"
         style="fill:#a682b9"
         d="m 227.11,144.965 c 0,0.514 0.417,0.93 0.931,0.93 0.512,0 0.929,-0.416 0.929,-0.93 0,-0.514 -0.417,-0.93 -0.929,-0.93 -0.514,0.001 -0.931,0.417 -0.931,0.93"
         id="path1793" />
      <path
         inkscape:connector-curvature="0"
         style="fill:#a682b9"
         d="m 229.208,148.55 c 0,0.514 0.417,0.931 0.93,0.931 0.514,0 0.931,-0.417 0.931,-0.931 0,-0.515 -0.417,-0.931 -0.931,-0.931 -0.513,0 -0.93,0.416 -0.93,0.931"
         id="path1795" />
      <path
         inkscape:connector-curvature="0"
         style="fill:#a682b9"
         d="m 224.598,148.594 c 0,0.514 0.418,0.93 0.931,0.93 0.513,0 0.929,-0.416 0.929,-0.93 0,-0.514 -0.416,-0.93 -0.929,-0.93 -0.513,0 -0.931,0.416 -0.931,0.93"
         id="path1797" />
      <path
         inkscape:connector-curvature="0"
         style="fill:#da4d5d"
         d="m 183.513,157.397 c 0.685,2.49 1.81,6.861 8.267,6.681 8.992,-0.251 8.525,-5.195 8.46,-6.683 -7.244,0.413 -10.142,0.524 -16.727,0.002"
         id="path1799" />
      <path
         inkscape:connector-curvature="0"
         style="fill:#ffffff"
         d="m 187.112,142.083 c -3.284,7.31 -12.45,10.315 -20.474,6.711 -8.023,-3.603 -11.869,-12.45 -8.585,-19.759 3.283,-7.311 12.45,-10.315 20.473,-6.712 8.023,3.603 11.867,12.45 8.586,19.76"
         id="path1801" />
      <path
         inkscape:connector-curvature="0"
         style="fill:#0e5cab"
         d="m 172.829,130.636 c -3.833,2.957 -4.542,8.46 -1.584,12.294 2.956,3.832 8.463,4.542 12.292,1.582 3.834,-2.957 4.542,-8.461 1.584,-12.29 -2.958,-3.835 -8.46,-4.544 -12.292,-1.586"
         id="path1803" />
      <path
         inkscape:connector-curvature="0"
         d="m 172.681,139.369 c -0.991,-3.037 0.67,-6.305 3.708,-7.295 3.038,-0.991 6.304,0.67 7.297,3.707 0.989,3.039 -0.672,6.305 -3.711,7.296 -3.038,0.991 -6.305,-0.67 -7.294,-3.708"
         id="path1805" />
      <path
         inkscape:connector-curvature="0"
         style="fill:#ffffff"
         d="m 178.635,136.471 c -0.327,-0.998 0.219,-2.07 1.218,-2.396 0.997,-0.325 2.069,0.22 2.395,1.217 0.325,0.999 -0.22,2.072 -1.218,2.396 -0.998,0.326 -2.071,-0.219 -2.395,-1.217"
         id="path1807" />
      <path
         inkscape:connector-curvature="0"
         style="fill:#3793d1"
         d="m 160.625,132.038 c 3.378,-7.525 11.566,-11.33 19.061,-9.234 -0.371,-0.201 -0.75,-0.392 -1.141,-0.567 -8.024,-3.604 -17.191,-0.599 -20.474,6.71 -2.072,4.616 -1.3,9.843 1.567,13.978 -0.874,-3.486 -0.618,-7.313 0.987,-10.887"
         id="path1809" />
      <path
         inkscape:connector-curvature="0"
         d="m 161.915,145.559 c -1.716,-3.953 -1.851,-8.508 0.011,-12.654 3.457,-7.699 12.527,-11.192 20.649,-8.152 -0.877,-0.732 -1.844,-1.385 -2.89,-1.949 -7.494,-2.096 -16.717,1.129 -20.304,8.556 -2.172,4.495 -1.152,8.361 0.256,11.565 0.653,0.941 1.416,1.825 2.278,2.634"
         id="path1811" />
      <path
         inkscape:connector-curvature="0"
         d="m 167.212,124.037 c -0.837,0.386 -1.875,1.128 -4.204,-1.458 -0.731,-0.81 -1.12,1.013 -1.156,1.523 -0.072,1.037 0.032,2.02 0.179,3.039 -0.292,-0.02 -3.25,-3.011 -3.686,-2.134 -0.4,0.841 -0.516,2.45 0.857,5.108 -1.161,-0.018 -4.078,-1.511 -4.12,-0.688 -0.041,0.826 0.11,2.558 3.448,5.467"
         id="path1813" />
      <path
         inkscape:connector-curvature="0"
         style="fill:#ffffff"
         d="m 198.183,142.083 c 3.284,7.31 12.449,10.315 20.474,6.711 8.023,-3.603 11.868,-12.45 8.584,-19.759 -3.283,-7.311 -12.449,-10.315 -20.472,-6.712 -8.023,3.603 -11.867,12.45 -8.586,19.76"
         id="path1815" />
      <path
         inkscape:connector-curvature="0"
         style="fill:#0e5cab"
         d="m 212.467,130.636 c 3.833,2.957 4.54,8.46 1.584,12.294 -2.957,3.832 -8.464,4.542 -12.293,1.582 -3.833,-2.957 -4.542,-8.461 -1.584,-12.29 2.958,-3.835 8.46,-4.544 12.293,-1.586"
         id="path1817" />
      <path
         inkscape:connector-curvature="0"
         d="m 212.614,139.369 c 0.992,-3.037 -0.669,-6.305 -3.708,-7.295 -3.038,-0.991 -6.304,0.67 -7.297,3.707 -0.99,3.039 0.672,6.305 3.711,7.296 3.038,0.991 6.305,-0.67 7.294,-3.708"
         id="path1819" />
      <path
         inkscape:connector-curvature="0"
         style="fill:#ffffff"
         d="m 211.292,136.471 c 0.326,-0.998 -0.219,-2.07 -1.217,-2.396 -0.998,-0.325 -2.07,0.22 -2.396,1.217 -0.325,0.999 0.22,2.072 1.219,2.396 0.997,0.326 2.069,-0.219 2.394,-1.217"
         id="path1821" />
      <path
         inkscape:connector-curvature="0"
         style="fill:#3793d1"
         d="m 224.67,132.038 c -3.377,-7.525 -11.566,-11.33 -19.061,-9.234 0.371,-0.201 0.75,-0.392 1.141,-0.567 8.024,-3.604 17.191,-0.599 20.474,6.71 2.072,4.616 1.3,9.843 -1.567,13.978 0.873,-3.486 0.619,-7.313 -0.987,-10.887"
         id="path1823" />
      <path
         inkscape:connector-curvature="0"
         d="m 223.38,145.559 c 1.716,-3.953 1.852,-8.508 -0.011,-12.654 -3.457,-7.699 -12.526,-11.192 -20.649,-8.152 0.877,-0.732 1.844,-1.385 2.889,-1.949 7.495,-2.096 16.718,1.129 20.306,8.556 2.171,4.495 1.151,8.361 -0.258,11.565 -0.652,0.941 -1.414,1.825 -2.277,2.634"
         id="path1825" />
      <path
         inkscape:connector-curvature="0"
         d="m 217.589,123.745 c 0.83,0.401 1.854,1.165 4.231,-1.377 0.746,-0.797 1.101,1.033 1.126,1.544 0.054,1.038 -0.069,2.019 -0.236,3.035 0.293,-0.014 3.307,-2.949 3.727,-2.063 0.383,0.847 0.468,2.459 -0.955,5.09 1.161,0.004 4.107,-1.433 4.132,-0.609 0.026,0.825 -0.157,2.555 -3.55,5.4"
         id="path1827" />
    </g>
  </g>
</svg>
