<?xml version="1.0" encoding="UTF-8" standalone="no"?>
<!-- Created with Inkscape (http://www.inkscape.org/) -->

<svg
   xmlns:dc="http://purl.org/dc/elements/1.1/"
   xmlns:cc="http://creativecommons.org/ns#"
   xmlns:rdf="http://www.w3.org/1999/02/22-rdf-syntax-ns#"
   xmlns:svg="http://www.w3.org/2000/svg"
   xmlns="http://www.w3.org/2000/svg"
   version="1.1"
   width="195.09"
   height="225"
   id="svg4991">
  <defs
     id="defs4993" />
  <metadata
     id="metadata4996">
    <rdf:RDF>
      <cc:Work
         rdf:about="">
        <dc:format>image/svg+xml</dc:format>
        <dc:type
           rdf:resource="http://purl.org/dc/dcmitype/StillImage" />
        <dc:title></dc:title>
      </cc:Work>
    </rdf:RDF>
  </metadata>
  <g
     transform="translate(0,-827.36218)"
     id="layer1">
    <g
       transform="translate(-100.50527,799.58492)"
       id="g8211">
      <path
         d="m 186.138,197.491 14.233,-7.403 c 3.796,2.752 6.977,5.952 9.532,9.602 5.037,7.282 5.182,14.017 0.448,20.195 8.62,-0.016 15.111,0.832 19.49,2.521 3.876,1.512 5.561,3.456 5.078,5.821 -0.83,4.129 -3.431,7.187 -7.817,9.159 -3.767,1.717 -8.55,2.535 -14.349,2.451 -5.13,-0.09 -10.207,-0.823 -15.229,-2.209 -4.856,-1.337 -8.341,-2.915 -10.469,-4.736 -0.735,-0.634 -1.181,-1.256 -1.312,-1.84 -0.09,-0.411 -0.027,-1.04 0.182,-1.889 0.015,-0.085 0.852,-1.383 2.504,-3.871 1.747,-2.652 3.012,-5.147 3.784,-7.463 2.59,-7.647 0.566,-14.426 -6.075,-20.338"
         id="path8213"
         style="fill:#00a0e9" />
      <path
         d="m 186.138,197.491 c 6.641,5.912 8.665,12.691 6.075,20.338 -0.772,2.316 -2.037,4.811 -3.784,7.463 -1.652,2.488 -2.489,3.786 -2.504,3.871 -0.209,0.849 -0.272,1.478 -0.182,1.889 0.131,0.584 0.577,1.206 1.312,1.84 2.128,1.821 5.613,3.399 10.469,4.736 5.023,1.386 10.099,2.119 15.229,2.209 5.799,0.084 10.582,-0.734 14.349,-2.451 4.386,-1.972 6.987,-5.03 7.817,-9.159 0.483,-2.365 -1.202,-4.309 -5.078,-5.821 -4.379,-1.689 -10.87,-2.537 -19.49,-2.521 4.734,-6.178 4.589,-12.913 -0.448,-20.195 -2.555,-3.65 -5.736,-6.85 -9.532,-9.602 l -14.233,7.403 z"
         id="path8215"
         style="fill:none;stroke:#00499f;stroke-width:5.55299997;stroke-linecap:round;stroke-miterlimit:10" />
      <path
         d="m 149.744,205.325 c -3.135,8.791 -4.809,13.398 -5.012,13.836 -8.421,-0.048 -16.073,2.383 -22.945,7.296 -2.674,1.895 -4.629,3.781 -5.855,5.665 -1.209,1.836 -1.4,3.113 -0.563,3.843 7.817,6.674 25.609,5.324 53.376,-4.062 0.381,-0.389 0.697,-0.985 0.938,-1.799 0.022,-0.097 0.188,-0.766 0.496,-1.993 0.189,-0.791 0.545,-6.177 1.039,-16.148 0.5,-10.018 0.831,-15.404 0.991,-16.145 l -17.573,-3.405 c -0.31,0.293 -1.94,4.596 -4.892,12.912"
         id="path8217"
         style="fill:#00a0e9" />
      <path
         d="m 149.744,205.325 c 2.952,-8.316 4.582,-12.619 4.892,-12.912 l 17.573,3.405 c -0.16,0.741 -0.491,6.127 -0.991,16.145 -0.494,9.971 -0.85,15.357 -1.039,16.148 -0.308,1.227 -0.474,1.896 -0.496,1.993 -0.241,0.814 -0.557,1.41 -0.938,1.799 -27.767,9.386 -45.559,10.736 -53.376,4.062 -0.837,-0.73 -0.646,-2.007 0.563,-3.843 1.226,-1.884 3.181,-3.77 5.855,-5.665 6.872,-4.913 14.524,-7.344 22.945,-7.296 0.203,-0.438 1.876,-5.045 5.012,-13.836 z"
         id="path8219"
         style="fill:none;stroke:#00499f;stroke-width:5.55299997;stroke-linecap:round;stroke-miterlimit:10" />
      <path
         d="m 142.656,93.633 c -1.71,0.689 -2.76,0.964 -3.128,0.837 l -10.935,-0.301 c -4.584,-2.477 -7.878,-5.677 -9.87,-9.597 -1.664,-3.252 -2.373,-6.772 -2.104,-10.582 0.215,-3.173 1.013,-5.956 2.395,-8.337 1.303,-2.241 2.481,-3.185 3.563,-2.842 2.744,0.868 3.939,2.591 3.56,5.153 -0.105,0.683 -0.396,1.705 -0.884,3.056 -0.087,0.31 -0.173,0.595 -0.269,0.843 0.136,-0.33 0.324,-0.719 0.55,-1.155 0.799,-1.553 1.772,-2.976 2.933,-4.259 3.166,-3.621 6.098,-4.637 8.806,-3.045 1.55,0.641 1.586,2.621 0.122,5.939 -1.897,3.562 -3.003,5.691 -3.289,6.388 2.891,-4.153 5.271,-6.955 7.15,-8.42 3.057,-2.36 5.732,-2.302 8.036,0.16 1.022,1.076 0.652,3.457 -1.106,7.135 -1.623,3.37 -2.963,5.391 -4.033,6.075 2.001,-0.723 3.914,-1.112 5.712,-1.17 2.729,-0.048 4.313,0.861 4.741,2.715 0.609,2.634 -1.558,5.508 -6.496,8.621 -1.778,1.107 -3.597,2.044 -5.454,2.786"
         id="path8221"
         style="fill:#359ad6" />
      <path
         d="M 139.528,94.471 128.592,94.17 c -4.583,-2.478 -7.877,-5.677 -9.869,-9.597 -1.664,-3.252 -2.373,-6.772 -2.104,-10.582 0.215,-3.174 1.013,-5.957 2.395,-8.338 1.303,-2.24 2.481,-3.184 3.563,-2.842 2.743,0.869 3.939,2.591 3.56,5.154 -0.105,0.682 -0.396,1.705 -0.884,3.056 -0.087,0.309 -0.173,0.595 -0.269,0.843 0.136,-0.33 0.324,-0.719 0.55,-1.155 0.799,-1.553 1.772,-2.977 2.932,-4.259 3.167,-3.621 6.099,-4.637 8.807,-3.046 1.549,0.642 1.586,2.621 0.122,5.94 -1.897,3.562 -3.003,5.69 -3.289,6.388 2.891,-4.153 5.271,-6.956 7.15,-8.421 3.057,-2.36 5.732,-2.301 8.036,0.161 1.022,1.075 0.652,3.457 -1.106,7.135 -1.623,3.369 -2.963,5.391 -4.033,6.074 2,-0.723 3.914,-1.111 5.712,-1.169 2.728,-0.048 4.313,0.861 4.741,2.714 0.609,2.635 -1.558,5.508 -6.496,8.621 -1.778,1.108 -3.597,2.045 -5.454,2.787 -1.71,0.689 -2.76,0.963 -3.128,0.837 z"
         id="path8223"
         style="fill:none;stroke:#00499f;stroke-width:5.55299997;stroke-linecap:round;stroke-miterlimit:10" />
      <path
         d="m 141.273,128.127 c -6.501,-0.188 -11.916,-1.188 -16.221,-2.986 -6.067,-2.548 -9.621,-6.583 -10.673,-12.109 -1.301,-6.907 1.362,-15.976 7.985,-27.194 l 21.152,3.028 c -9.246,14.361 -9.943,22 -2.097,22.927 2.352,0.267 5.604,-0.1 9.762,-1.113 3.725,-0.912 5.617,-1.332 5.687,-1.282 l 1.614,1.11 -8.618,17.45 c -2.491,0.217 -5.367,0.276 -8.591,0.169"
         id="path8225"
         style="fill:#00a0e9" />
      <path
         d="m 125.053,125.142 c -6.067,-2.548 -9.621,-6.583 -10.673,-12.109 -1.302,-6.907 1.362,-15.976 7.985,-27.194 l 21.152,3.028 c -9.246,14.36 -9.943,22 -2.097,22.927 2.351,0.267 5.604,-0.1 9.762,-1.113 3.725,-0.912 5.617,-1.332 5.686,-1.282 l 1.615,1.11 -8.618,17.45 c -2.493,0.217 -5.368,0.276 -8.591,0.169 -6.501,-0.19 -11.916,-1.189 -16.221,-2.986 z"
         id="path8227"
         style="fill:none;stroke:#00499f;stroke-width:5.55299997;stroke-linecap:round;stroke-miterlimit:10" />
      <path
         d="m 246.88,143.911 c 1.046,-1.517 1.771,-2.325 2.146,-2.423 l 9.283,-5.776 c 5.188,-0.461 9.696,0.39 13.518,2.559 3.18,1.795 5.712,4.339 7.587,7.664 1.571,2.763 2.44,5.523 2.6,8.271 0.149,2.585 -0.315,4.022 -1.404,4.333 -2.766,0.788 -4.711,0.011 -5.809,-2.334 -0.288,-0.627 -0.61,-1.64 -0.948,-3.035 -0.098,-0.306 -0.183,-0.592 -0.24,-0.851 0.069,0.351 0.127,0.778 0.178,1.265 0.191,1.735 0.164,3.459 -0.096,5.168 -0.644,4.764 -2.527,7.227 -5.663,7.394 -1.646,0.319 -2.767,-1.312 -3.376,-4.885 -0.382,-4.015 -0.634,-6.399 -0.78,-7.139 -0.121,5.056 -0.558,8.705 -1.319,10.961 -1.248,3.654 -3.509,5.079 -6.788,4.296 -1.444,-0.332 -2.45,-2.522 -3.01,-6.557 -0.506,-3.703 -0.503,-6.128 0.013,-7.288 -1.269,1.706 -2.649,3.085 -4.118,4.125 -2.248,1.544 -4.069,1.658 -5.448,0.35 -1.959,-1.862 -1.739,-5.451 0.663,-10.768 0.873,-1.905 1.872,-3.687 3.011,-5.33"
         id="path8229"
         style="fill:#359ad6" />
      <path
         d="m 249.026,141.488 9.283,-5.776 c 5.188,-0.461 9.696,0.39 13.518,2.559 3.18,1.795 5.712,4.339 7.587,7.664 1.571,2.763 2.44,5.523 2.6,8.271 0.149,2.585 -0.315,4.021 -1.404,4.333 -2.766,0.788 -4.711,0.011 -5.809,-2.334 -0.288,-0.627 -0.61,-1.64 -0.948,-3.035 -0.098,-0.307 -0.183,-0.592 -0.24,-0.851 0.069,0.351 0.127,0.778 0.178,1.265 0.191,1.735 0.164,3.459 -0.096,5.168 -0.644,4.764 -2.527,7.227 -5.663,7.394 -1.646,0.319 -2.767,-1.312 -3.376,-4.885 -0.382,-4.015 -0.634,-6.399 -0.78,-7.139 -0.121,5.056 -0.558,8.705 -1.319,10.961 -1.248,3.654 -3.509,5.079 -6.788,4.296 -1.444,-0.332 -2.45,-2.522 -3.01,-6.557 -0.506,-3.704 -0.503,-6.128 0.013,-7.289 -1.269,1.707 -2.649,3.086 -4.118,4.125 -2.248,1.544 -4.069,1.659 -5.448,0.351 -1.959,-1.862 -1.739,-5.451 0.663,-10.768 0.873,-1.904 1.872,-3.688 3.011,-5.33 1.046,-1.517 1.771,-2.325 2.146,-2.423 z"
         id="path8231"
         style="fill:none;stroke:#00499f;stroke-width:5.55299997;stroke-linecap:round;stroke-miterlimit:10" />
      <path
         d="m 229.041,114.405 c 5.522,-3.427 10.587,-5.578 15.167,-6.453 6.463,-1.219 11.65,0.185 15.573,4.212 4.892,5.04 7.671,14.068 8.334,27.072 l -19.303,9.136 c -0.208,-17.07 -3.838,-23.822 -10.89,-20.27 -2.108,1.073 -4.616,3.172 -7.525,6.308 -2.603,2.814 -3.948,4.207 -4.033,4.204 l -1.958,-0.035 -2.435,-19.298 c 1.959,-1.553 4.322,-3.189 7.07,-4.876"
         id="path8233"
         style="fill:#00a0e9" />
      <path
         d="m 244.208,107.952 c 6.462,-1.219 11.649,0.186 15.572,4.212 4.893,5.04 7.672,14.068 8.335,27.072 l -19.304,9.136 c -0.208,-17.069 -3.837,-23.822 -10.889,-20.27 -2.108,1.073 -4.617,3.172 -7.525,6.308 -2.603,2.814 -3.948,4.208 -4.034,4.205 l -1.958,-0.036 -2.434,-19.297 c 1.959,-1.555 4.322,-3.19 7.07,-4.877 5.521,-3.427 10.587,-5.578 15.167,-6.453 z"
         id="path8235"
         style="fill:none;stroke:#00499f;stroke-width:5.55299997;stroke-linecap:round;stroke-linejoin:round;stroke-miterlimit:10" />
      <path
         d="m 232.942,188.239 c 2.477,-6.378 3.488,-13.192 3.024,-20.442 -0.508,-7.79 -2.649,-15.234 -6.434,-22.347 -4.185,-7.849 -8.458,-16.867 -12.792,-27.065 -0.22,-0.499 -2.674,-6.401 -7.373,-17.714 -12.892,12.63 -26.166,13.182 -39.821,1.657 l -5.986,2.979 c -4.23,4.227 -8.187,8.932 -11.875,14.118 -9.317,13.122 -15.216,25.723 -17.694,37.778 -3.115,15.326 0.159,27.379 9.822,36.158 11.808,10.725 32.715,15.964 62.732,15.708 5.868,-0.053 11.188,-2.006 15.936,-5.864 4.559,-3.714 8.05,-8.707 10.461,-14.966"
         id="path8237"
         style="fill:#00a0e9" />
      <path
         d="m 232.942,188.239 c -2.411,6.259 -5.903,11.252 -10.461,14.966 -4.748,3.858 -10.068,5.811 -15.936,5.864 -30.017,0.256 -50.923,-4.983 -62.732,-15.708 -9.663,-8.779 -12.937,-20.832 -9.822,-36.158 2.478,-12.055 8.377,-24.656 17.694,-37.778 3.688,-5.186 7.645,-9.891 11.875,-14.118 l 5.986,-2.979 c 13.655,11.525 26.929,10.973 39.821,-1.657 4.699,11.313 7.153,17.215 7.373,17.714 4.334,10.198 8.607,19.216 12.792,27.065 3.785,7.113 5.926,14.557 6.434,22.347 0.465,7.25 -0.547,14.064 -3.024,20.442 z"
         id="path8239"
         style="fill:none;stroke:#00499f;stroke-width:5.55299997;stroke-linecap:round;stroke-linejoin:round;stroke-miterlimit:10" />
      <path
         d="m 142.656,93.633 c -1.71,0.689 -2.76,0.964 -3.128,0.837 l -10.935,-0.301 c -4.584,-2.477 -7.878,-5.677 -9.87,-9.597 -1.664,-3.252 -2.373,-6.772 -2.104,-10.582 0.215,-3.173 1.013,-5.956 2.395,-8.337 1.303,-2.241 2.481,-3.185 3.563,-2.842 2.744,0.868 3.939,2.591 3.56,5.153 -0.105,0.683 -0.396,1.705 -0.884,3.056 -0.087,0.31 -0.173,0.595 -0.269,0.843 0.136,-0.33 0.324,-0.719 0.55,-1.155 0.799,-1.553 1.772,-2.976 2.933,-4.259 3.166,-3.621 6.098,-4.637 8.806,-3.045 1.55,0.641 1.586,2.621 0.122,5.939 -1.897,3.562 -3.003,5.691 -3.289,6.388 2.891,-4.153 5.271,-6.955 7.15,-8.42 3.057,-2.36 5.732,-2.302 8.036,0.16 1.022,1.076 0.652,3.457 -1.106,7.135 -1.623,3.37 -2.963,5.391 -4.033,6.075 2.001,-0.723 3.914,-1.112 5.712,-1.17 2.729,-0.048 4.313,0.861 4.741,2.715 0.609,2.634 -1.558,5.508 -6.496,8.621 -1.778,1.107 -3.597,2.044 -5.454,2.786"
         id="path8241"
         style="fill:#00a0e9" />
      <path
         d="m 141.273,128.127 c -6.501,-0.188 -11.916,-1.188 -16.221,-2.986 -6.067,-2.548 -9.621,-6.583 -10.673,-12.109 -1.301,-6.907 1.362,-15.976 7.985,-27.194 l 21.152,3.028 c -9.246,14.361 -9.943,22 -2.097,22.927 2.352,0.267 5.604,-0.1 9.762,-1.113 0.953,-0.132 5.11,-0.956 12.462,-2.461 l -10.234,19.727 c -4.865,0.224 -8.912,0.288 -12.136,0.181"
         id="path8243"
         style="fill:#00a0e9" />
      <path
         d="m 246.88,143.911 c 1.046,-1.517 1.771,-2.325 2.146,-2.423 l 9.283,-5.776 c 5.188,-0.461 9.696,0.39 13.518,2.559 3.18,1.795 5.712,4.339 7.587,7.664 1.571,2.763 2.44,5.523 2.6,8.271 0.149,2.585 -0.315,4.022 -1.404,4.333 -2.766,0.788 -4.711,0.011 -5.809,-2.334 -0.288,-0.627 -0.61,-1.64 -0.948,-3.035 -0.098,-0.306 -0.183,-0.592 -0.24,-0.851 0.069,0.351 0.127,0.778 0.178,1.265 0.191,1.735 0.164,3.459 -0.096,5.168 -0.644,4.764 -2.527,7.227 -5.663,7.394 -1.646,0.319 -2.767,-1.312 -3.376,-4.885 -0.382,-4.015 -0.634,-6.399 -0.78,-7.139 -0.121,5.056 -0.558,8.705 -1.319,10.961 -1.248,3.654 -3.509,5.079 -6.788,4.296 -1.444,-0.332 -2.45,-2.522 -3.01,-6.557 -0.506,-3.703 -0.503,-6.128 0.013,-7.288 -1.269,1.706 -2.649,3.085 -4.118,4.125 -2.248,1.544 -4.069,1.658 -5.448,0.35 -1.959,-1.862 -1.739,-5.451 0.663,-10.768 0.873,-1.905 1.872,-3.687 3.011,-5.33"
         id="path8245"
         style="fill:#00a0e9" />
      <path
         d="m 229.041,114.405 c 5.522,-3.427 10.587,-5.578 15.167,-6.453 6.463,-1.219 11.65,0.185 15.573,4.212 4.892,5.04 7.671,14.068 8.334,27.072 l -19.303,9.136 c -0.208,-17.07 -3.838,-23.822 -10.89,-20.27 -2.108,1.073 -4.616,3.172 -7.525,6.308 -0.721,0.636 -3.731,3.614 -9.031,8.922 l -2.344,-22.087 c 3.933,-2.869 7.271,-5.153 10.019,-6.84"
         id="path8247"
         style="fill:#00a0e9" />
      <path
         d="m 227.102,237.385 c 4.386,-1.972 6.987,-5.029 7.817,-9.158 0.483,-2.365 -1.202,-4.309 -5.078,-5.821 -4.379,-1.689 -10.87,-2.537 -19.49,-2.521 4.734,-6.178 4.589,-12.913 -0.448,-20.195 -2.554,-3.65 -5.736,-6.851 -9.532,-9.602 l -14.233,7.402 c 6.641,5.912 8.665,12.692 6.075,20.338 -0.772,2.316 -2.037,4.812 -3.784,7.464 -1.652,2.488 -2.489,3.786 -2.504,3.871 -0.209,0.849 -0.272,1.477 -0.181,1.888 0.13,0.584 0.576,1.207 1.312,1.84 2.127,1.821 5.612,3.399 10.468,4.736 5.023,1.386 10.099,2.12 15.229,2.209 5.799,0.084 10.581,-0.732 14.349,-2.451"
         id="path8249"
         style="fill:#00a0e9" />
      <path
         d="m 121.787,226.457 c -2.674,1.896 -4.629,3.781 -5.854,5.665 -1.209,1.836 -1.401,3.113 -0.563,3.843 7.816,6.674 25.608,5.325 53.375,-4.062 0.381,-0.388 0.697,-0.985 0.938,-1.799 0.022,-0.097 0.188,-0.766 0.496,-1.993 0.189,-0.791 0.545,-6.177 1.039,-16.148 0.5,-10.018 0.831,-15.403 0.991,-16.145 l -17.573,-3.404 c -0.31,0.292 -1.94,4.595 -4.892,12.911 -3.135,8.791 -4.809,13.399 -5.012,13.837 -8.421,-0.049 -16.073,2.382 -22.945,7.295"
         id="path8251"
         style="fill:#00a0e9" />
      <path
         d="m 221.217,119.873 c -0.717,-0.669 -1.605,-0.997 -2.639,-0.997 -1.032,0 -1.92,0.328 -2.65,0.997 -0.717,0.669 -1.082,1.472 -1.082,2.407 0,0.937 0.365,1.739 1.082,2.407 0.73,0.669 1.618,1.01 2.65,1.01 1.034,0 1.922,-0.341 2.639,-1.01 0.729,-0.668 1.094,-1.459 1.094,-2.395 0,-0.936 -0.365,-1.75 -1.094,-2.419"
         id="path8253"
         style="fill:#00a0e9" />
      <path
         d="m 230.924,62.993 c 0.977,-3.076 0.652,-6.087 -1,-9.032 -1.657,-2.935 -4.144,-4.915 -7.451,-5.962 -3.319,-1.024 -6.491,-0.82 -9.506,0.619 -3.036,1.458 -5.052,3.719 -6.038,6.815 -0.975,3.102 -0.634,6.108 1.022,9.042 1.656,2.935 4.144,4.915 7.452,5.962 3.308,1.047 6.48,0.842 9.504,-0.62 3.036,-1.456 5.043,-3.722 6.017,-6.824"
         id="path8255"
         style="fill:#f3f3f3" />
      <path
         d="m 229.924,53.961 c -1.657,-2.935 -4.144,-4.915 -7.451,-5.962 -3.319,-1.024 -6.491,-0.82 -9.506,0.619 -3.036,1.458 -5.052,3.719 -6.038,6.816 -0.975,3.102 -0.634,6.108 1.022,9.042 1.656,2.934 4.144,4.914 7.452,5.962 3.308,1.046 6.48,0.841 9.504,-0.621 3.036,-1.456 5.043,-3.722 6.017,-6.824 0.977,-3.075 0.652,-6.087 -1,-9.032 z"
         id="path8257"
         style="fill:none;stroke:#00499f;stroke-width:5.55299997;stroke-linecap:round;stroke-miterlimit:10" />
      <path
         d="m 208.543,56.061 c 0.976,-3.075 0.652,-6.087 -1,-9.033 -1.656,-2.934 -4.143,-4.914 -7.452,-5.961 -3.317,-1.025 -6.489,-0.819 -9.505,0.62 -3.035,1.457 -5.052,3.717 -6.038,6.815 -0.974,3.103 -0.634,6.107 1.023,9.042 1.656,2.934 4.143,4.915 7.451,5.961 3.309,1.047 6.481,0.843 9.505,-0.619 3.037,-1.457 5.041,-3.723 6.016,-6.825"
         id="path8259"
         style="fill:#f3f3f3" />
      <path
         d="m 207.543,47.028 c -1.657,-2.935 -4.143,-4.914 -7.452,-5.961 -3.318,-1.025 -6.489,-0.819 -9.505,0.62 -3.035,1.456 -5.052,3.717 -6.038,6.815 -0.975,3.103 -0.634,6.107 1.022,9.042 1.657,2.934 4.143,4.915 7.452,5.961 3.308,1.047 6.48,0.842 9.505,-0.62 3.036,-1.457 5.041,-3.723 6.016,-6.824 0.977,-3.075 0.652,-6.088 -1,-9.033 z"
         id="path8261"
         style="fill:none;stroke:#00499f;stroke-width:5.55299997;stroke-linecap:round;stroke-miterlimit:10" />
      <path
         d="m 235.367,72.144 c -3.135,-2.436 -7.556,-4.663 -13.284,-6.69 -3.021,-1.067 -8.662,-2.745 -16.937,-5.04 -7.455,-2.07 -13.132,-3.453 -17.015,-4.158 -5.801,-1.052 -10.667,-1.267 -14.619,-0.664 -9.465,1.4 -15.783,8.055 -18.972,19.944 -1.077,4.001 -0.976,8.155 0.283,12.442 1.229,4.15 3.459,8.136 6.694,11.949 6.889,8.098 16.316,13.813 28.299,17.149 11.988,3.35 23.004,3.316 33.068,-0.096 4.76,-1.599 8.732,-3.859 11.903,-6.787 3.279,-3.017 5.467,-6.518 6.565,-10.511 1.988,-6.639 2.404,-12.257 1.234,-16.885 -1.068,-4.172 -3.471,-7.717 -7.219,-10.653"
         id="path8263"
         style="fill:#00a0e9" />
      <path
         d="m 222.083,65.454 c -3.021,-1.066 -8.662,-2.744 -16.937,-5.04 -7.455,-2.069 -13.132,-3.453 -17.016,-4.157 -5.8,-1.053 -10.667,-1.268 -14.619,-0.664 -9.465,1.4 -15.782,8.054 -18.971,19.944 -1.077,4 -0.976,8.155 0.283,12.442 1.229,4.149 3.458,8.136 6.694,11.949 6.888,8.098 16.316,13.812 28.298,17.149 11.989,3.35 23.004,3.315 33.069,-0.096 4.76,-1.6 8.731,-3.86 11.903,-6.787 3.278,-3.018 5.466,-6.518 6.565,-10.512 1.987,-6.639 2.404,-12.256 1.234,-16.884 -1.068,-4.172 -3.471,-7.718 -7.219,-10.654 -3.135,-2.436 -7.555,-4.664 -13.284,-6.69 z"
         id="path8265"
         style="fill:none;stroke:#00499f;stroke-width:5.55299997;stroke-linecap:round;stroke-miterlimit:10" />
      <path
         d="m 235.367,72.144 c -3.135,-2.436 -7.556,-4.663 -13.284,-6.69 -3.021,-1.067 -8.662,-2.745 -16.937,-5.04 -7.455,-2.07 -13.132,-3.453 -17.015,-4.158 -5.801,-1.052 -10.667,-1.267 -14.619,-0.664 -9.465,1.4 -15.783,8.055 -18.972,19.944 -1.077,4.001 -0.976,8.155 0.283,12.442 1.229,4.15 3.459,8.136 6.694,11.949 6.889,8.098 16.316,13.813 28.299,17.149 11.988,3.35 23.004,3.316 33.068,-0.096 4.76,-1.599 8.732,-3.859 11.903,-6.787 3.279,-3.017 5.467,-6.518 6.565,-10.511 1.988,-6.639 2.404,-12.257 1.234,-16.885 -1.068,-4.172 -3.471,-7.717 -7.219,-10.653"
         id="path8267"
         style="fill:#00a0e9" />
      <path
         d="m 190.586,41.687 c -3.035,1.457 -5.052,3.717 -6.038,6.815 -0.975,3.103 -0.634,6.107 1.022,9.042 1.657,2.935 4.143,4.915 7.452,5.961 3.308,1.047 6.481,0.843 9.505,-0.619 3.036,-1.457 5.041,-3.723 6.016,-6.825 0.976,-3.075 0.652,-6.087 -1,-9.033 -1.657,-2.934 -4.143,-4.914 -7.452,-5.961 -3.317,-1.025 -6.488,-0.819 -9.505,0.62"
         id="path8269"
         style="fill:#f3f3f3" />
      <path
         d="m 212.967,48.618 c -3.036,1.458 -5.053,3.719 -6.039,6.815 -0.974,3.102 -0.634,6.108 1.023,9.042 1.656,2.935 4.143,4.915 7.452,5.962 3.308,1.047 6.48,0.842 9.504,-0.62 3.036,-1.456 5.042,-3.722 6.017,-6.824 0.976,-3.076 0.651,-6.087 -1,-9.032 -1.657,-2.935 -4.144,-4.915 -7.452,-5.962 -3.318,-1.024 -6.49,-0.82 -9.505,0.619"
         id="path8271"
         style="fill:#f3f3f3" />
      <path
         d="m 195.396,56.494 c 1.369,-0.169 2.576,-0.037 3.621,0.396 1.172,0.517 2.086,1.416 2.722,2.706 0.144,0.292 0.353,0.488 0.648,0.597 0.294,0.082 0.585,0.052 0.87,-0.09 0.271,-0.133 0.462,-0.354 0.574,-0.65 0.11,-0.295 0.094,-0.59 -0.055,-0.87 -0.89,-1.833 -2.177,-3.079 -3.86,-3.766 -1.427,-0.606 -3.101,-0.797 -5.003,-0.561 -0.574,0.076 -1.142,0.196 -1.701,0.359 -0.445,0.13 -0.676,0.198 -0.686,0.193 -0.292,0.126 -0.502,0.325 -0.617,0.605 -0.132,0.287 -0.153,0.58 -0.048,0.87 0.092,0.297 0.303,0.522 0.609,0.663 0.306,0.113 0.592,0.123 0.848,0.024 l 0.01,-0.023 c 0.926,-0.258 1.621,-0.407 2.068,-0.453"
         id="path8273" />
      <path
         d="m 213.516,55.291 c 1.375,-0.121 2.576,0.053 3.604,0.523 1.154,0.556 2.036,1.487 2.627,2.799 0.133,0.296 0.336,0.5 0.627,0.618 0.29,0.092 0.582,0.073 0.872,-0.058 0.274,-0.125 0.476,-0.339 0.596,-0.631 0.12,-0.292 0.114,-0.586 -0.024,-0.872 -0.826,-1.862 -2.07,-3.152 -3.727,-3.897 -1.403,-0.655 -3.071,-0.904 -4.979,-0.735 -0.577,0.055 -1.148,0.155 -1.714,0.299 -0.449,0.115 -0.682,0.174 -0.692,0.17 -0.295,0.114 -0.512,0.307 -0.638,0.582 -0.142,0.283 -0.173,0.575 -0.077,0.868 0.081,0.301 0.283,0.532 0.585,0.684 0.302,0.124 0.587,0.143 0.847,0.053 l 0.01,-0.023 c 0.935,-0.224 1.632,-0.35 2.083,-0.38"
         id="path8275" />
      <path
         d="m 219.329,90.357 1.003,-3.313 c -8.502,1.195 -18.893,-1.023 -31.167,-6.678 -3.839,-1.75 -7.641,-3.744 -11.385,-6.002 l -4.477,-2.795 c -5.359,9.697 -3.273,18.086 6.265,25.154 4.763,3.533 10.075,6.092 15.928,7.66 8.536,1.722 15.233,-0.647 20.095,-7.107 1.517,-2.001 2.759,-4.309 3.738,-6.919"
         id="path8277" />
      <path
         d="m 232.942,188.239 c 2.477,-6.378 3.488,-13.192 3.024,-20.442 -0.508,-7.79 -2.649,-15.234 -6.434,-22.347 -4.185,-7.849 -8.458,-16.867 -12.792,-27.065 -0.22,-0.499 -1.96,-3.857 -5.247,-10.055 -15.62,7.863 -29.35,4.183 -41.218,-11.029 -8.706,9.568 -14.902,16.938 -18.59,22.124 -9.317,13.122 -15.216,25.723 -17.694,37.778 -3.115,15.326 0.159,27.379 9.822,36.158 11.808,10.725 32.715,15.964 62.732,15.708 5.868,-0.053 11.188,-2.006 15.936,-5.864 4.559,-3.714 8.05,-8.707 10.461,-14.966"
         id="path8279"
         style="fill:#00a0e9" />
      <path
         d="m 166.612,91.036 c 1.098,3.711 2.334,5.542 3.699,5.495 1.365,-0.048 2.472,-1.961 3.308,-5.739 0.836,-3.778 1.161,-8.313 0.976,-13.604 -0.183,-5.302 -0.823,-9.803 -1.92,-13.513 -1.098,-3.699 -2.334,-5.531 -3.699,-5.484 -1.365,0.048 -2.471,1.961 -3.307,5.728 -0.836,3.777 -1.162,8.312 -0.978,13.615 0.185,5.29 0.825,9.792 1.921,13.502"
         id="path8281"
         style="fill:#97d4e3" />
      <path
         d="m 168.743,96.633 c -0.651,-0.981 -1.261,-2.52 -1.829,-4.592 -1.106,-3.989 -1.758,-8.828 -1.957,-14.517 -0.198,-5.702 0.115,-10.586 0.942,-14.642 0.412,-2.022 0.892,-3.551 1.437,-4.574 l -49.93,5.355 c -0.758,0.088 -1.333,0.301 -1.694,0.664 -0.171,0.321 -0.328,0.677 -0.484,1.057 -0.223,0.54 -0.431,1.152 -0.625,1.824 -0.984,3.372 -1.4,7.402 -1.236,12.101 0.164,4.698 0.859,8.701 2.074,11.985 0.254,0.68 0.505,1.3 0.779,1.847 0.069,0.288 0.211,0.537 0.399,0.736 0.39,0.409 1.002,0.631 1.863,0.673 l 50.261,2.083 z"
         id="path8283"
         style="fill:#97d4e3" />
      <path
         d="m 169.022,58.129 -51.617,5.535 c -0.758,0.088 -1.332,0.301 -1.694,0.664 -0.171,0.321 -0.327,0.676 -0.483,1.057 -0.224,0.54 -0.432,1.152 -0.625,1.824 -0.984,3.372 -1.4,7.401 -1.236,12.1 0.163,4.699 0.859,8.702 2.074,11.985 0.254,0.681 0.505,1.301 0.778,1.847 0.07,0.288 0.212,0.538 0.4,0.737 0.389,0.409 1.002,0.63 1.862,0.673 l 51.884,2.147 m -0.054,-0.167 c 1.365,-0.048 2.472,-1.961 3.308,-5.739 0.836,-3.779 1.161,-8.313 0.976,-13.604 -0.183,-5.302 -0.824,-9.803 -1.921,-13.513 -1.097,-3.699 -2.334,-5.531 -3.698,-5.484 -1.365,0.048 -2.472,1.961 -3.308,5.728 -0.836,3.777 -1.161,8.312 -0.977,13.614 0.184,5.291 0.825,9.792 1.921,13.503 1.097,3.711 2.334,5.542 3.699,5.495 z"
         id="path8285"
         style="fill:none;stroke:#3e7e90;stroke-width:1.69200003;stroke-linecap:round;stroke-linejoin:round;stroke-miterlimit:10" />
      <path
         d="m 151.955,62.569 11.976,-1.3 c -0.607,1.654 -0.988,3.227 -1.129,4.744"
         id="path8287"
         style="fill:none;stroke:#c9e7ea;stroke-width:2.17600012;stroke-linecap:round;stroke-linejoin:round;stroke-miterlimit:10" />
      <path
         d="m 193.249,93.276 c 1.09,0.047 1.712,-0.156 1.876,-0.634 0.141,-0.477 -0.352,-1.088 -1.502,-1.834 -1.164,-0.733 -2.625,-1.396 -4.4,-1.988 -1.785,-0.578 -3.357,-0.898 -4.726,-0.984 -0.012,0 -0.012,0 -0.024,0.001 1.274,0.451 2.772,1.463 4.507,3.023 1.748,1.561 3.166,2.37 4.269,2.416"
         id="path8289"
         style="fill:#ec739d" />
      <path
         d="m 195.125,92.643 c 0.141,-0.477 -0.352,-1.088 -1.503,-1.834 -1.163,-0.733 -2.625,-1.396 -4.399,-1.988 -1.786,-0.578 -3.357,-0.897 -4.727,-0.984 -0.012,0 -0.012,0 -0.024,10e-4 1.274,0.451 2.772,1.463 4.508,3.023 1.748,1.561 3.166,2.369 4.269,2.416 1.09,0.047 1.711,-0.156 1.876,-0.634 z"
         id="path8291"
         style="fill:none;stroke:#cb1c50;stroke-width:1.45000005;stroke-linecap:round;stroke-linejoin:round;stroke-miterlimit:10" />
      <path
         d="m 177.587,85.973 c 3.927,0.238 4.837,-0.362 2.743,-1.8 -2.094,-1.439 -4.932,-1.643 -8.535,-0.61 1.622,-3.431 -3.367,-3.257 -14.979,0.498 -2.667,0.867 -4.624,1.273 -5.871,1.232 1.469,-2.604 -0.495,-2.74 -5.88,-0.424 -5.387,2.304 -11.485,3.617 -18.283,3.914 -6.799,0.298 -9.21,1.204 -7.234,2.694 1.974,1.492 8.554,1.868 19.739,1.14 11.186,-0.716 18.551,-0.381 22.119,1.019 3.568,1.387 5.217,0.471 4.971,-2.774 5.302,0.13 9.426,1.173 12.383,3.113 3.837,2.516 5.206,1.874 4.117,-1.946 -1.088,-3.82 -2.852,-5.838 -5.29,-6.056 -0.109,-0.008 -0.218,-0.016 -0.328,-0.025 0.11,0.009 0.219,0.017 0.328,0.025"
         id="path8293"
         style="fill:#ec739d" />
      <path
         d="m 177.587,85.973 c 3.926,0.238 4.837,-0.362 2.742,-1.8 -2.093,-1.439 -4.931,-1.643 -8.534,-0.61 1.621,-3.431 -3.368,-3.257 -14.979,0.498 -2.667,0.866 -4.624,1.273 -5.871,1.232 1.469,-2.603 -0.495,-2.74 -5.881,-0.425 -5.386,2.305 -11.484,3.618 -18.282,3.915 -6.799,0.298 -9.211,1.204 -7.234,2.694 1.974,1.492 8.554,1.867 19.739,1.139 11.186,-0.715 18.551,-0.38 22.119,1.02 3.567,1.387 5.217,0.471 4.971,-2.774 5.301,0.13 9.425,1.172 12.383,3.113 3.837,2.515 5.206,1.874 4.117,-1.946 -1.087,-3.82 -2.852,-5.838 -5.29,-6.056 z m -0.328,-0.025 c 0.109,0.009 0.219,0.017 0.328,0.025"
         id="path8295"
         style="fill:none;stroke:#cb1c50;stroke-width:1.45000005;stroke-linecap:round;stroke-linejoin:round;stroke-miterlimit:10" />
      <path
         d="m 166.425,90.861 c -0.002,-0.037 -0.002,-0.061 -0.004,-0.097 -0.023,-2.43 -0.302,-4.863 -0.847,-7.323 -0.113,-0.129 -0.215,-0.283 -0.306,-0.436 -0.03,-0.182 -0.049,-0.35 -0.066,-0.507 -0.105,-0.239 -0.197,-0.478 -0.267,-0.729 -2.196,0.487 -4.903,1.247 -8.119,2.291 -2.667,0.866 -4.624,1.273 -5.871,1.232 1.469,-2.603 -0.495,-2.74 -5.881,-0.425 -5.386,2.305 -11.484,3.618 -18.282,3.915 -6.799,0.298 -9.211,1.203 -7.234,2.694 1.974,1.492 8.554,1.867 19.739,1.139 11.186,-0.715 18.551,-0.38 22.119,1.02 3.567,1.387 5.217,0.471 4.971,-2.774 0.012,10e-4 0.036,0 0.048,0"
         id="path8297"
         style="fill:#f4afc4" />
      <path
         d="m 164.935,81.77 c -2.195,0.488 -4.902,1.248 -8.119,2.291 -2.667,0.867 -4.624,1.273 -5.871,1.232 1.469,-2.603 -0.495,-2.74 -5.881,-0.424 -5.386,2.304 -11.484,3.617 -18.282,3.914 -6.799,0.298 -9.21,1.204 -7.234,2.695 1.974,1.491 8.554,1.867 19.739,1.139 11.186,-0.716 18.551,-0.381 22.119,1.02 3.568,1.387 5.217,0.471 4.971,-2.774 0.012,0 0.036,-0.001 0.048,-0.001"
         id="path8299"
         style="fill:none;stroke:#ca6287;stroke-width:1.45000005;stroke-linecap:round;stroke-linejoin:round;stroke-miterlimit:10" />
      <path
         d="m 174.042,70.302 c -0.327,-2.444 -0.779,-4.653 -1.368,-6.628 -1.097,-3.699 -2.334,-5.531 -3.698,-5.483 -1.365,0.048 -2.472,1.96 -3.308,5.727 -0.835,3.777 -1.161,8.312 -0.977,13.615 0.184,5.29 0.825,9.792 1.921,13.502 1.097,3.711 2.334,5.543 3.699,5.496 0.689,-0.025 1.313,-0.518 1.859,-1.493"
         id="path8301"
         style="fill:none;stroke:#3e7e90;stroke-width:1.69200003;stroke-linecap:round;stroke-linejoin:round;stroke-miterlimit:10" />
      <path
         d="m 137.741,63.217 c 1.106,1.017 2.331,1.465 3.676,1.345 1.314,-0.119 2.33,-0.747 3.077,-1.883 0.747,-1.165 0.986,-2.48 0.717,-3.974 -0.269,-1.523 -0.956,-2.809 -2.062,-3.794 -1.105,-0.957 -2.33,-1.375 -3.615,-1.285 -1.345,0.089 -2.391,0.717 -3.137,1.852 -0.718,1.165 -0.956,2.51 -0.687,4.034 0.268,1.495 0.955,2.72 2.031,3.705"
         id="path8303"
         style="fill:#00a0e9" />
      <path
         d="m 141.417,64.562 c 1.314,-0.119 2.33,-0.747 3.077,-1.882 0.747,-1.165 0.986,-2.48 0.717,-3.974 -0.269,-1.524 -0.956,-2.81 -2.062,-3.794 -1.105,-0.957 -2.33,-1.375 -3.614,-1.286 -1.346,0.089 -2.392,0.717 -3.138,1.853 -0.718,1.165 -0.956,2.51 -0.687,4.033 0.268,1.495 0.956,2.72 2.031,3.705 1.106,1.016 2.331,1.465 3.676,1.345 z"
         id="path8305"
         style="fill:none;stroke:#00499f;stroke-width:2.15199995;stroke-linecap:round;stroke-miterlimit:10" />
      <path
         d="m 134.544,65.368 c 1.225,-0.358 2.002,-1.135 2.331,-2.36 0.328,-1.225 0.149,-2.54 -0.539,-3.885 -0.687,-1.344 -1.703,-2.39 -3.047,-3.136 -1.345,-0.658 -2.599,-0.807 -3.825,-0.479 -1.195,0.388 -1.972,1.165 -2.301,2.361 -0.329,1.284 -0.149,2.599 0.538,3.943 0.717,1.345 1.733,2.391 3.048,3.077 1.345,0.688 2.6,0.868 3.795,0.479"
         id="path8307"
         style="fill:#00a0e9" />
      <path
         d="m 136.875,63.008 c 0.329,-1.226 0.149,-2.541 -0.538,-3.885 -0.687,-1.344 -1.703,-2.39 -3.048,-3.136 -1.345,-0.658 -2.599,-0.807 -3.824,-0.479 -1.196,0.388 -1.973,1.165 -2.302,2.361 -0.329,1.284 -0.149,2.598 0.539,3.943 0.716,1.345 1.733,2.391 3.047,3.077 1.345,0.688 2.6,0.868 3.795,0.479 1.225,-0.358 2.002,-1.135 2.331,-2.36 z"
         id="path8309"
         style="fill:none;stroke:#00499f;stroke-width:2.15199995;stroke-linecap:round;stroke-miterlimit:10" />
      <path
         d="m 127.403,66.772 c 1.075,-0.448 1.762,-1.225 2.062,-2.36 0.238,-1.076 -0.03,-2.181 -0.777,-3.346 -0.718,-1.107 -1.703,-1.943 -2.958,-2.481 -1.285,-0.478 -2.451,-0.507 -3.526,-0.06 -1.076,0.448 -1.763,1.196 -2.032,2.302 -0.239,1.105 0,2.24 0.718,3.346 0.746,1.165 1.732,1.972 2.987,2.48 1.284,0.509 2.45,0.538 3.526,0.119"
         id="path8311"
         style="fill:#00a0e9" />
      <path
         d="m 129.465,64.413 c 0.238,-1.076 -0.03,-2.181 -0.777,-3.346 -0.718,-1.107 -1.703,-1.943 -2.958,-2.481 -1.285,-0.478 -2.451,-0.507 -3.526,-0.06 -1.076,0.448 -1.763,1.196 -2.032,2.302 -0.239,1.105 0,2.24 0.718,3.346 0.746,1.165 1.732,1.972 2.987,2.48 1.284,0.508 2.45,0.538 3.526,0.119 1.075,-0.448 1.762,-1.225 2.062,-2.36 z"
         id="path8313"
         style="fill:none;stroke:#00499f;stroke-width:2.15199995;stroke-linecap:round;stroke-miterlimit:10" />
    </g>
  </g>
</svg>
