<?xml version="1.0" encoding="UTF-8" standalone="no"?>
<!-- Created with Inkscape (http://www.inkscape.org/) -->

<svg
   xmlns:dc="http://purl.org/dc/elements/1.1/"
   xmlns:cc="http://creativecommons.org/ns#"
   xmlns:rdf="http://www.w3.org/1999/02/22-rdf-syntax-ns#"
   xmlns:svg="http://www.w3.org/2000/svg"
   xmlns="http://www.w3.org/2000/svg"
   version="1.1"
   width="290"
   height="256"
   id="svg5089">
  <defs
     id="defs5091" />
  <metadata
     id="metadata5094">
    <rdf:RDF>
      <cc:Work
         rdf:about="">
        <dc:format>image/svg+xml</dc:format>
        <dc:type
           rdf:resource="http://purl.org/dc/dcmitype/StillImage" />
        <dc:title></dc:title>
      </cc:Work>
    </rdf:RDF>
  </metadata>
  <g
     transform="translate(0,-224)"
     id="layer1">
    <g
       transform="translate(-765.0721,-268.00862)"
       id="g323">
      <path
         d="m 937.732,658.446 c -1.173,-3.205 -2.683,-7.431 -4.545,-12.646 -1.861,-5.218 -3.64,-8.773 -5.333,-10.669 -1.711,-1.895 -6.793,-2.431 -15.246,-1.644 -8.453,0.789 -13.786,2.098 -16.018,3.941 -2.23,1.828 -4.411,5.788 -6.542,11.858 -2.146,6.055 -3.739,11.104 -4.797,15.11 -2.683,8.203 -0.703,15.131 5.954,20.782 5.955,5.082 13.553,7.716 22.811,7.899 9.544,0.151 16.739,-2.498 21.569,-7.966 5.638,-6.353 6.358,-15.244 2.147,-26.665"
         id="path325"
         style="fill:#9e0c27" />
      <path
         d="m 937.732,658.446 c 4.211,11.421 3.49,20.312 -2.146,26.668 -4.83,5.468 -12.025,8.117 -21.569,7.966 -9.258,-0.184 -16.855,-2.817 -22.811,-7.899 -6.657,-5.651 -8.637,-12.579 -5.954,-20.782 1.058,-4.007 2.651,-9.056 4.797,-15.11 2.131,-6.07 4.312,-10.03 6.542,-11.858 2.231,-1.844 7.564,-3.152 16.018,-3.941 8.453,-0.787 13.535,-0.251 15.246,1.644 1.693,1.896 3.472,5.451 5.333,10.669 1.862,5.213 3.372,9.438 4.544,12.643 z"
         id="path327"
         style="fill:none;stroke:#9e0c27;stroke-width:2.68400002;stroke-miterlimit:10" />
      <path
         d="m 966.842,561.876 c -0.726,-0.63 -1.466,-1.242 -2.223,-1.854 -1.567,-1.237 -3.18,-2.387 -4.838,-3.484 -1.309,-0.849 -2.646,-1.628 -4.049,-2.354 -1.852,-0.951 -3.719,-1.868 -5.604,-2.785 -1.883,-0.916 -3.827,-1.693 -5.83,-2.367 -0.086,-0.029 -0.155,-0.06 -0.24,-0.087 2.297,-3.593 3.335,-7.433 3.099,-11.534 -0.311,-5.407 -2.603,-9.894 -6.857,-13.479 -4.255,-3.584 -9.253,-5.211 -14.995,-4.88 -5.709,0.328 -10.487,2.52 -14.319,6.569 -1.392,1.475 -2.512,3.033 -3.341,4.694 -0.182,-0.242 -0.362,-0.467 -0.543,-0.691 -0.867,-1.042 -1.845,-1.994 -2.953,-2.853 -1.371,-1.064 -2.817,-1.972 -4.338,-2.707 -1.781,-0.889 -3.662,-1.469 -5.662,-1.774 -1.71,-0.237 -3.41,-0.307 -5.101,-0.192 -1.69,0.113 -3.353,0.412 -4.952,0.925 -1.883,0.56 -3.648,1.385 -5.282,2.469 -1.409,0.938 -2.69,2.004 -3.846,3.229 -1.361,1.455 -2.477,3.082 -3.348,4.878 -0.843,1.712 -1.393,3.541 -1.632,5.487 -0.223,1.675 -0.227,3.354 -0.028,5.057 0.229,1.936 0.739,3.787 1.497,5.574 0.33,0.771 0.977,1.792 1.94,3.079 -1.355,0.667 -2.695,1.331 -4.031,2.03 -1.321,0.698 -2.623,1.428 -3.905,2.189 -1.918,1.119 -3.78,2.335 -5.602,3.665 -1.468,1.043 -2.85,2.13 -4.178,3.266 -1.489,1.262 -2.907,2.603 -4.271,4.008 -1.286,1.301 -2.517,2.682 -3.659,4.124 -1.097,1.357 -2.109,2.759 -3.032,4.224 -0.892,1.445 -1.663,2.918 -2.314,4.434 -0.817,1.861 -1.462,3.779 -1.954,5.739 -0.493,1.927 -0.832,3.911 -1.003,5.92 -0.183,2.077 -0.183,4.127 0.02,6.164 0.201,2.054 0.554,4.065 1.07,6.035 0.497,1.937 1.194,3.828 2.056,5.66 0.862,1.848 1.888,3.603 3.042,5.268 1.209,1.743 2.565,3.412 4.049,4.989 1.236,1.323 2.534,2.576 3.93,3.754 1.465,1.243 2.978,2.416 4.569,3.517 1.663,1.165 3.404,2.257 5.194,3.279 1.841,1.035 3.693,2.004 5.559,2.903 1.885,0.899 3.811,1.713 5.785,2.456 1.991,0.725 4.011,1.382 6.059,1.952 2.099,0.568 4.194,1.068 6.286,1.52 2.158,0.43 4.346,0.774 6.529,1.068 1.675,0.222 3.364,0.394 5.032,0.482 1.736,0.085 3.47,0.153 5.204,0.238 1.766,0.031 3.529,0.031 5.308,-0.021 1.826,-0.055 3.636,-0.143 5.459,-0.281 1.773,-0.119 3.561,-0.289 5.346,-0.51 1.733,-0.218 3.467,-0.451 5.181,-0.735 1.681,-0.281 3.357,-0.612 5.033,-0.996 2.17,-0.511 4.305,-1.069 6.418,-1.712 2.081,-0.607 4.141,-1.313 6.16,-2.119 1.988,-0.769 3.921,-1.619 5.833,-2.553 1.879,-0.897 3.737,-1.878 5.558,-2.939 1.803,-1.08 3.551,-2.222 5.245,-3.428 1.694,-1.206 3.334,-2.477 4.921,-3.812 1.487,-1.278 2.94,-2.604 4.321,-3.977 0.479,-0.481 0.952,-0.979 1.41,-1.475 0.774,-0.869 1.529,-1.752 2.249,-2.666 1.363,-1.709 2.587,-3.509 3.671,-5.386 1.039,-1.79 1.92,-3.672 2.649,-5.612 0.715,-1.889 1.259,-3.835 1.628,-5.854 0.388,-2.022 0.59,-4.05 0.607,-6.1 0.028,-2.102 -0.123,-4.159 -0.426,-6.207 -0.302,-2.016 -0.769,-4.004 -1.4,-5.95 -0.615,-1.929 -1.412,-3.781 -2.371,-5.557 -1.012,-1.84 -2.154,-3.588 -3.407,-5.229 -1.345,-1.755 -2.814,-3.366 -4.396,-4.871 -0.658,-0.614 -1.315,-1.231 -1.987,-1.814"
         id="path329"
         style="fill:#d82d1c" />
      <path
         d="m 944.059,548.945 c 0.085,0.027 0.154,0.058 0.24,0.087 2.003,0.674 3.947,1.451 5.83,2.367 1.885,0.917 3.752,1.834 5.604,2.785 1.402,0.726 2.74,1.505 4.049,2.354 1.658,1.098 3.271,2.247 4.838,3.484 0.757,0.61 1.497,1.224 2.223,1.854 0.672,0.583 1.329,1.2 1.985,1.817 1.582,1.505 3.052,3.116 4.396,4.87 1.253,1.642 2.396,3.39 3.407,5.229 0.959,1.775 1.756,3.628 2.371,5.557 0.632,1.946 1.099,3.935 1.4,5.949 0.303,2.049 0.454,4.106 0.426,6.208 -0.018,2.05 -0.22,4.077 -0.607,6.1 -0.369,2.019 -0.913,3.965 -1.628,5.854 -0.729,1.94 -1.61,3.823 -2.649,5.612 -1.084,1.877 -2.308,3.677 -3.671,5.386 -0.72,0.914 -1.475,1.798 -2.249,2.666 -0.458,0.496 -0.934,0.993 -1.41,1.475 -1.381,1.372 -2.834,2.698 -4.321,3.977 -1.587,1.335 -3.227,2.605 -4.921,3.812 -1.694,1.207 -3.442,2.348 -5.245,3.427 -1.82,1.062 -3.679,2.043 -5.558,2.94 -1.912,0.933 -3.845,1.784 -5.833,2.553 -2.02,0.806 -4.079,1.512 -6.16,2.119 -2.113,0.643 -4.248,1.201 -6.418,1.712 -1.676,0.383 -3.353,0.715 -5.033,0.995 -1.714,0.285 -3.447,0.519 -5.181,0.736 -1.785,0.221 -3.572,0.391 -5.346,0.51 -1.823,0.139 -3.633,0.227 -5.459,0.282 -1.778,0.051 -3.542,0.051 -5.309,0.02 -1.733,-0.085 -3.468,-0.153 -5.203,-0.238 -1.668,-0.089 -3.357,-0.261 -5.032,-0.482 -2.183,-0.294 -4.371,-0.639 -6.529,-1.068 -2.092,-0.451 -4.188,-0.951 -6.286,-1.52 -2.048,-0.57 -4.067,-1.228 -6.059,-1.952 -1.975,-0.743 -3.901,-1.556 -5.785,-2.455 -1.865,-0.9 -3.718,-1.869 -5.559,-2.904 -1.79,-1.022 -3.531,-2.114 -5.194,-3.279 -1.592,-1.101 -3.104,-2.273 -4.569,-3.517 -1.396,-1.178 -2.693,-2.431 -3.93,-3.754 -1.483,-1.577 -2.84,-3.246 -4.049,-4.99 -1.154,-1.664 -2.18,-3.419 -3.042,-5.267 -0.861,-1.832 -1.559,-3.724 -2.056,-5.66 -0.517,-1.97 -0.869,-3.981 -1.07,-6.035 -0.202,-2.038 -0.202,-4.087 -0.02,-6.164 0.171,-2.009 0.51,-3.993 1.003,-5.92 0.492,-1.96 1.137,-3.878 1.953,-5.739 0.652,-1.516 1.424,-2.988 2.315,-4.434 0.923,-1.465 1.935,-2.866 3.032,-4.224 1.143,-1.442 2.373,-2.823 3.659,-4.124 1.364,-1.405 2.78,-2.746 4.271,-4.008 1.328,-1.135 2.71,-2.223 4.178,-3.266 1.821,-1.33 3.684,-2.546 5.602,-3.665 1.282,-0.762 2.584,-1.491 3.905,-2.189 1.336,-0.699 2.676,-1.363 4.031,-2.03"
         id="path331"
         style="fill:none;stroke:#9e0c27;stroke-width:2.68300009;stroke-linecap:round;stroke-linejoin:round;stroke-miterlimit:10" />
      <path
         d="m 873.397,552.796 c -0.964,-1.287 -1.61,-2.308 -1.94,-3.079 -0.758,-1.787 -1.269,-3.639 -1.497,-5.574 -0.198,-1.702 -0.194,-3.382 0.028,-5.057 0.239,-1.946 0.789,-3.775 1.632,-5.487 0.871,-1.796 1.986,-3.423 3.348,-4.878 1.155,-1.226 2.438,-2.291 3.846,-3.229 1.634,-1.084 3.399,-1.909 5.282,-2.47 1.6,-0.512 3.262,-0.811 4.952,-0.924 1.69,-0.115 3.391,-0.045 5.101,0.192 2,0.306 3.88,0.886 5.662,1.774 1.521,0.735 2.967,1.643 4.338,2.706 1.108,0.859 2.086,1.812 2.953,2.854 0.181,0.225 0.361,0.449 0.543,0.691 0.829,-1.661 1.949,-3.22 3.341,-4.694 3.832,-4.05 8.61,-6.241 14.319,-6.569 5.742,-0.331 10.74,1.296 14.995,4.88 4.255,3.586 6.547,8.072 6.857,13.479 0.236,4.102 -0.802,7.941 -3.099,11.534"
         id="path333"
         style="fill:none;stroke:#9e0c27;stroke-width:2.68300009;stroke-miterlimit:10" />
      <path
         d="m 945.875,537.586 c -0.296,-5.123 -2.456,-9.382 -6.466,-12.779 -4.009,-3.414 -8.717,-4.957 -14.124,-4.646 -5.391,0.311 -9.891,2.383 -13.499,6.236 -1.82,1.936 -3.126,4.043 -3.953,6.31 -0.224,-0.408 -0.467,-0.813 -0.742,-1.218 -0.274,-0.388 -0.564,-0.773 -0.872,-1.142 -0.812,-0.995 -1.755,-1.898 -2.793,-2.712 -1.301,-1.001 -2.676,-1.846 -4.113,-2.553 -1.676,-0.844 -3.472,-1.411 -5.353,-1.689 -1.608,-0.227 -3.224,-0.286 -4.831,-0.175 -1.607,0.109 -3.168,0.4 -4.702,0.876 -1.783,0.538 -3.451,1.323 -5.005,2.337 -1.328,0.883 -2.546,1.91 -3.638,3.064 -1.282,1.367 -2.335,2.905 -3.16,4.616 -0.797,1.625 -1.319,3.352 -1.548,5.195 -0.212,1.575 -0.221,3.171 -0.027,4.789 0.223,1.835 0.693,3.588 1.412,5.276 0.35,0.804 0.746,1.554 1.205,2.249 0.48,0.729 1.023,1.419 1.613,2.057 1.251,1.306 2.643,2.418 4.158,3.355 1.548,0.918 3.184,1.631 4.875,2.139 1.794,0.5 3.625,0.782 5.476,0.86 1.938,0.089 3.825,-0.069 5.667,-0.495 1.787,-0.456 3.459,-1.156 5.018,-2.104 1.347,-0.833 2.583,-1.828 3.691,-2.967 1.128,-1.14 2.097,-2.405 2.908,-3.778 0.441,-0.782 0.85,-1.578 1.188,-2.403 0.177,-0.431 0.336,-0.876 0.479,-1.305 1.079,2.089 2.597,3.966 4.558,5.634 4.025,3.396 8.733,4.939 14.124,4.628 5.407,-0.311 9.906,-2.384 13.499,-6.22 3.592,-3.833 5.249,-8.312 4.955,-13.435"
         id="path335"
         style="fill:#ffffff" />
      <path
         d="m 884.074,538.121 c 1.552,-2.223 3.643,-3.553 6.286,-4.025 2.66,-0.472 5.093,0.06 7.314,1.595 2.223,1.552 3.553,3.642 4.023,6.286 0.471,2.644 -0.062,5.06 -1.596,7.281 -1.552,2.223 -3.643,3.552 -6.286,4.023 -2.643,0.472 -5.059,-0.062 -7.28,-1.597 -2.222,-1.534 -3.552,-3.624 -4.024,-6.285 -0.486,-2.642 0.029,-5.057 1.563,-7.278"
         id="path337"
         style="fill:#282525" />
      <path
         d="m 929.583,535.102 c -1.797,-2.031 -4.025,-3.111 -6.706,-3.275 -2.697,-0.164 -5.053,0.644 -7.082,2.423 -2.03,1.797 -3.111,4.025 -3.276,6.707 -0.165,2.68 0.643,5.019 2.421,7.05 1.797,2.028 4.025,3.109 6.705,3.274 2.682,0.166 5.021,-0.641 7.051,-2.422 2.031,-1.78 3.112,-4.008 3.276,-6.705 0.181,-2.682 -0.609,-5.022 -2.389,-7.052"
         id="path339"
         style="fill:#282525" />
      <path
         d="m 931.728,589.407 c -6.818,0.913 -13.699,1.596 -20.611,2.01 -6.913,0.415 -13.91,0.566 -21.023,0.422 -7.113,-0.144 -14.625,-1.089 -22.521,-2.852 l -9.389,-2.617 c 5.025,18.439 17.122,29.266 36.306,32.511 5.615,0.969 11.575,1.197 17.843,0.685 0.052,-0.002 0.086,-0.004 0.119,-0.006 6.287,-0.211 12.18,-1.121 17.646,-2.73 18.686,-5.427 29.458,-17.569 32.335,-36.464 l -9.027,3.677 c -7.64,2.656 -14.863,4.45 -21.678,5.364"
         id="path341"
         style="fill:#282525" />
      <path
         d="m 910.523,590.175 0.002,0.033 c 0.116,-0.023 0.181,-0.043 0.198,-0.045 l -0.2,0.012 z"
         id="path343"
         style="fill:#282525" />
      <path
         d="m 927.021,563.908 c -0.409,-5.065 -2.498,-9.245 -6.268,-12.572 -3.767,-3.293 -8.118,-4.757 -13.051,-4.388 -4.933,0.401 -9.01,2.518 -12.23,6.382 -3.204,3.863 -4.611,8.312 -4.235,13.379 0.41,5.066 2.498,9.246 6.266,12.54 3.77,3.326 8.119,4.788 13.052,4.387 4.935,-0.367 9.012,-2.483 12.231,-6.348 3.223,-3.863 4.644,-8.313 4.235,-13.38"
         id="path345"
         style="fill:#e78c00" />
      <path
         d="m 914.19,717.294 c -1.091,-4.83 -1.562,-9.711 -1.425,-14.643 0.134,-5.048 0.334,-10.113 0.603,-15.162 0.252,-4.848 0.605,-9.71 1.041,-14.574 l 10.013,-0.688 0.234,26.315 c 9.511,-1.057 17.175,-0.134 22.995,2.768 5.82,2.902 8.185,6.256 7.078,10.063 -1.091,3.808 -5.183,6.575 -12.26,8.319 -5.988,1.476 -14.291,0.955 -24.875,-1.544 -1.106,-0.266 -2.246,-0.552 -3.404,-0.854"
         id="path347"
         style="fill:#d82d1c" />
      <path
         d="m 914.19,717.294 c 1.157,0.302 2.298,0.588 3.404,0.854 10.584,2.499 18.887,3.02 24.875,1.544 7.077,-1.744 11.169,-4.512 12.26,-8.319 1.106,-3.808 -1.258,-7.162 -7.078,-10.063 -5.82,-2.901 -13.484,-3.824 -22.995,-2.768 l -0.234,-26.315 -10.013,0.688 c -0.436,4.864 -0.789,9.727 -1.041,14.574 -0.269,5.049 -0.469,10.114 -0.603,15.162 -0.136,4.932 0.335,9.813 1.425,14.643 z"
         id="path349"
         style="fill:none;stroke:#9e0c27;stroke-width:2.68400002;stroke-miterlimit:10" />
      <path
         d="m 910.295,717.789 c 1.091,-4.831 1.56,-9.711 1.425,-14.642 -0.134,-5.05 -0.334,-10.113 -0.604,-15.162 -0.252,-4.849 -0.604,-9.712 -1.039,-14.575 l -10.014,-0.688 -0.234,26.315 c -9.511,-1.057 -17.175,-0.134 -22.994,2.768 -5.821,2.902 -8.185,6.256 -7.078,10.063 1.09,3.809 5.183,6.575 12.26,8.32 5.987,1.475 14.291,0.955 24.874,-1.544 1.106,-0.268 2.248,-0.553 3.404,-0.855"
         id="path351"
         style="fill:#d82d1c" />
      <path
         d="m 910.295,717.789 c -1.156,0.302 -2.298,0.587 -3.404,0.855 -10.583,2.499 -18.887,3.019 -24.874,1.544 -7.077,-1.745 -11.17,-4.512 -12.26,-8.32 -1.106,-3.808 1.257,-7.161 7.078,-10.063 5.819,-2.901 13.483,-3.824 22.994,-2.768 l 0.234,-26.315 10.014,0.688 c 0.436,4.863 0.787,9.727 1.039,14.575 0.27,5.049 0.47,10.112 0.604,15.162 0.134,4.931 -0.334,9.811 -1.425,14.642 z"
         id="path353"
         style="fill:none;stroke:#9e0c27;stroke-width:2.68400002;stroke-miterlimit:10" />
      <path
         d="m 959.684,654.766 -1.142,0.722 c -3.337,2.046 -6.305,1.09 -8.938,-2.886 -2.499,-3.823 -4.729,-10.046 -6.676,-18.685 -0.855,0.034 -1.761,0.085 -2.717,0.135 2.062,9.31 4.444,15.984 7.162,20.044 3.505,5.282 7.479,6.624 11.957,4.059 0.22,-0.136 0.438,-0.27 0.655,-0.403 l 0.671,-0.436 0.471,-0.285 -1.443,-2.265 z"
         id="path355"
         style="fill:#9e0c27" />
      <path
         d="m 960.656,657.315 -0.671,0.436 c -0.218,0.134 -0.435,0.268 -0.654,0.403 -4.479,2.565 -8.453,1.224 -11.958,-4.059 -2.718,-4.06 -5.1,-10.734 -7.162,-20.044 -1.896,0.102 -3.941,0.235 -6.139,0.387 -2.533,0.419 -4.26,0.637 -5.167,0.637 -0.335,0 -0.535,-0.118 -0.62,-0.369 -0.016,-0.05 -0.033,-0.202 -0.033,-0.453 -0.688,0.118 -1.291,0.201 -1.812,0.269 -0.989,0.135 -1.643,0.201 -1.978,0.201 -0.168,0 -0.671,-0.402 -1.493,-1.225 0,-0.335 0.134,-0.552 0.386,-0.654 -0.151,-0.066 -0.437,-0.167 -0.89,-0.284 -0.285,1.224 -0.419,2.532 -0.419,3.942 0,0.771 0.186,1.826 0.537,3.152 0.403,1.459 0.638,2.533 0.688,3.203 0.15,1.812 0.972,3.305 2.464,4.494 1.478,1.174 3.238,1.763 5.267,1.763 0.655,0 1.191,-0.018 1.645,-0.033 -0.034,-0.086 -0.067,-0.169 -0.084,-0.252 l -0.437,-1.275 2.533,-0.854 0.436,1.256 c 3.271,9.612 7.062,16.304 11.374,20.11 4.074,3.54 8.636,4.346 13.718,2.433 l 1.259,-0.469 0.334,0.922 c 0.067,-0.285 0.135,-0.588 0.202,-0.939 0.235,-1.795 0.353,-2.718 0.353,-2.767 0,-0.923 -0.15,-1.846 -0.454,-2.768 -0.284,-0.906 -0.435,-2.063 -0.419,-3.455 -10e-4,-1.36 -0.27,-2.584 -0.806,-3.708"
         id="path357"
         style="fill:#d82d1c" />
      <path
         d="m 935.095,647.955 -0.437,-1.256 -2.532,0.854 0.437,1.275 c 0.017,0.083 0.05,0.166 0.084,0.252 3.438,10.046 7.464,17.039 12.06,20.998 4.864,4.243 10.331,5.233 16.421,2.936 l 1.256,-0.47 -0.604,-1.594 -0.334,-0.922 -1.259,0.469 c -5.082,1.912 -9.644,1.107 -13.719,-2.433 -4.312,-3.805 -8.103,-10.497 -11.373,-20.109"
         id="path359"
         style="fill:#9e0c27" />
      <path
         d="m 859.402,656.979 -1.023,-0.872 -1.744,2.047 1.022,0.872 c 0.185,0.15 0.386,0.318 0.57,0.469 0.186,0.151 0.386,0.302 0.571,0.453 0.218,0.151 0.452,0.318 0.67,0.47 1.662,1.125 3.304,1.795 4.932,2.047 0.553,0.083 1.106,0.1 1.66,0.083 1.929,-0.083 3.823,-0.788 5.702,-2.146 0.738,-0.554 1.477,-1.191 2.198,-1.929 0.453,-0.454 0.888,-0.939 1.324,-1.459 3.874,-4.646 7.565,-12.463 11.104,-23.448 0,-0.017 0,-0.05 0.018,-0.083 -0.571,0.134 -1.007,0.2 -1.31,0.2 -0.134,0 -0.269,-0.051 -0.386,-0.134 -0.133,-0.101 -0.269,-0.151 -0.385,-0.151 -0.118,0 -0.386,0.085 -0.789,0.234 -3.655,11.205 -7.48,18.853 -11.488,22.962 -4.008,4.042 -8.218,4.177 -12.646,0.385"
         id="path361"
         style="fill:#9e0c27" />
      <path
         d="m 886.489,633.482 c -0.034,0.016 -0.067,0.049 -0.101,0.083 -3.538,10.985 -7.229,18.802 -11.104,23.448 -0.437,0.52 -0.871,1.005 -1.324,1.459 -0.722,0.737 -1.46,1.375 -2.198,1.929 -1.878,1.358 -3.773,2.063 -5.702,2.146 -0.555,0.017 -1.107,0 -1.66,-0.083 -1.628,-0.252 -3.271,-0.923 -4.932,-2.047 -0.218,-0.151 -0.452,-0.318 -0.67,-0.47 -0.085,0.318 -0.168,0.704 -0.269,1.191 -0.135,0.654 -0.336,1.979 -0.588,3.976 -0.049,0.503 -0.151,1.576 -0.302,3.202 0.05,-0.017 0.101,-0.017 0.15,-0.017 0.018,0 0.285,0.201 0.822,0.622 0.706,0.502 1.425,0.955 2.182,1.357 2.431,1.325 4.746,1.979 6.959,1.979 2.114,0 4.312,-0.638 6.575,-1.896 1.057,-0.586 2.098,-1.308 3.104,-2.164 0.788,-0.804 1.476,-1.49 2.079,-2.062 2.885,-3.555 5.687,-8.184 8.421,-13.87 l 0.352,-0.704 c 0.218,-0.504 0.737,-1.66 1.56,-3.473 0.486,-1.123 0.838,-1.945 1.022,-2.499 0.471,-0.788 1.023,-1.995 1.679,-3.622 0.05,-0.101 0.083,-0.201 0.117,-0.302 0.485,-0.755 1.073,-1.795 1.743,-3.104 0,-0.285 -0.067,-0.503 -0.201,-0.688 -0.05,0.033 -0.101,0.084 -0.167,0.167 0.117,-0.352 0.185,-0.62 0.218,-0.771 0.034,0.017 0.067,0.051 0.117,0.1 -0.034,-0.083 -0.066,-0.167 -0.083,-0.251 l -0.034,-0.083 c -0.017,-0.57 -0.134,-0.873 -0.352,-0.922 -0.219,-0.521 -0.504,-1.243 -0.856,-2.165 -0.217,-0.587 -0.653,-1.291 -1.273,-2.112 -0.471,0.217 -1.208,0.52 -2.231,0.871 -0.989,0.353 -1.812,0.604 -2.448,0.772 -0.017,0.066 -0.051,0.134 -0.067,0.217 -0.068,-0.348 -0.253,-0.432 -0.538,-0.214"
         id="path363"
         style="fill:#d82d1c" />
      <path
         d="m 894.439,637.457 c -0.017,-0.034 -0.051,-0.067 -0.067,-0.085 -0.05,-0.049 -0.083,-0.083 -0.117,-0.1 -0.033,0.15 -0.101,0.419 -0.218,0.771 0.066,-0.083 0.117,-0.134 0.167,-0.167 0.134,0.185 0.202,0.402 0.202,0.688 -0.671,1.309 -1.259,2.349 -1.744,3.104 -0.034,0.101 -0.067,0.201 -0.117,0.302 -0.655,1.627 -1.208,2.834 -1.679,3.622 -0.185,0.554 -0.536,1.376 -1.022,2.499 -0.822,1.812 -1.342,2.969 -1.56,3.472 l -0.352,0.705 c -2.734,5.687 -5.536,10.315 -8.421,13.87 -0.604,0.572 -1.291,1.258 -2.079,2.062 -1.007,0.856 -2.047,1.578 -3.104,2.164 -2.264,1.259 -4.461,1.896 -6.575,1.896 -2.213,0 -4.528,-0.654 -6.959,-1.979 -0.757,-0.402 -1.476,-0.856 -2.182,-1.357 -0.537,-0.421 -0.805,-0.622 -0.822,-0.622 -0.05,0 -0.101,0 -0.15,0.017 -0.218,0.068 -0.335,0.285 -0.335,0.639 0,0.149 0.084,0.317 0.235,0.503 0.401,0.52 1.357,1.24 2.851,2.13 0.184,0.117 0.387,0.217 0.569,0.317 -0.218,0.084 -0.317,0.286 -0.317,0.605 0,0.133 0.018,0.234 0.067,0.317 0.05,0.102 0.185,0.235 0.368,0.387 0.352,0.134 0.805,0.352 1.358,0.653 1.325,0.453 3.119,0.738 5.4,0.821 0.22,-0.016 0.419,-0.049 0.639,-0.066 2.062,-0.201 3.773,-0.503 5.132,-0.889 1.409,-0.587 2.616,-1.19 3.639,-1.845 1.024,-0.654 1.661,-1.157 1.912,-1.527 0.252,-0.368 0.453,-0.603 0.588,-0.688 0.033,-0.033 0.066,-0.066 0.117,-0.101 0.419,-0.352 0.788,-0.652 1.105,-0.904 3.239,-3.859 6.358,-8.94 9.378,-15.247 l 0.586,-1.207 -0.05,-0.034 -0.167,-0.083 c 0.62,-1.259 1.309,-3.07 2.045,-5.418 0.537,-1.662 1.041,-3.438 1.527,-5.317 0.185,-0.754 0.334,-1.358 0.452,-1.777 0.101,-0.452 0.151,-0.722 0.151,-0.805 0.003,-0.505 -0.149,-0.94 -0.451,-1.326"
         id="path365"
         style="fill:#9e0c27" />
      <path
         d="m 894.741,640.04 v -0.453 c -0.118,0.419 -0.268,1.023 -0.452,1.777 -0.486,1.879 -0.99,3.655 -1.527,5.317 -0.736,2.348 -1.425,4.159 -2.045,5.418 l 0.167,0.083 c 0.168,-0.251 0.353,-0.553 0.553,-0.872 1.125,-1.794 1.845,-3.204 2.198,-4.209 0.451,-1.359 0.754,-2.551 0.905,-3.573 0.134,-0.922 0.201,-2.095 0.201,-3.488"
         id="path367"
         style="fill:#d82d1c" />
      <path
         d="m 861.079,673.216 c -0.184,-0.151 -0.318,-0.285 -0.369,-0.387 -0.049,-0.083 -0.066,-0.184 -0.066,-0.317 0,-0.319 0.1,-0.521 0.317,-0.605 -0.183,-0.101 -0.386,-0.2 -0.57,-0.317 -1.492,-0.89 -2.448,-1.609 -2.851,-2.13 -0.084,0.805 -0.135,1.476 -0.168,2.029 0.454,0.318 0.989,0.872 1.627,1.66 0.101,0.017 0.202,0.05 0.303,0.067 0.184,0.05 0.352,0.083 0.503,0.134 0.017,-0.084 0.05,-0.151 0.117,-0.219 0.116,-0.082 0.251,-0.134 0.42,-0.134 0.15,0 0.401,0.067 0.737,0.219"
         id="path369"
         style="fill:#d82d1c" />
      <path
         d="m 931.678,638.252 c -0.737,-2.951 -1.945,-4.545 -3.64,-4.797 -1.291,-0.671 -3.187,-1.258 -5.651,-1.744 -4.932,-1.107 -9.912,-1.426 -14.944,-0.939 -1.022,-0.018 -2.079,0.051 -3.152,0.201 -1.561,0.251 -2.852,0.57 -3.858,0.956 -1.778,0.402 -3.371,1.56 -4.797,3.454 -0.872,1.175 -1.576,2.501 -2.13,3.992 -0.335,0.923 -0.554,1.711 -0.638,2.365 -0.385,0.957 -0.738,1.979 -1.056,3.069 -0.185,0.722 -0.37,1.442 -0.537,2.181 -0.688,3.003 -1.56,5.938 -2.617,8.823 -1.023,3.002 -1.828,5.668 -2.449,7.967 -2.599,8.05 -0.687,14.843 5.771,20.377 5.77,4.981 13.148,7.565 22.122,7.75 7.615,0.117 13.687,-1.609 18.215,-5.217 2.146,-1.661 3.773,-3.724 4.881,-6.172 1.022,-2.264 1.627,-4.613 1.845,-7.062 0.218,-2.499 0.117,-4.998 -0.268,-7.514 -0.067,-0.453 -0.151,-0.89 -0.236,-1.342 l -2.532,-9.995 c -0.754,-3.071 -1.559,-6.107 -2.432,-9.125 -0.54,-1.877 -1.177,-4.292 -1.897,-7.228"
         id="path371"
         style="fill:#d82d1c" />
      <path
         d="m 914.503,640.04 c 1.758,-0.117 3.511,-0.285 5.278,-0.505 1.719,-0.217 3.419,-0.449 5.116,-0.715 1.664,-0.28 3.325,-0.611 4.966,-0.991 2.138,-0.511 4.238,-1.067 6.335,-1.692 2.031,-0.604 4.058,-1.291 6.044,-2.078 h 0.019 c 1.001,-0.395 2.002,-0.805 3.002,-1.231 l -0.215,-3.75 -65.393,3.767 0.224,3.883 c 0.428,0.126 0.837,0.239 1.264,0.365 l -0.018,-0.017 c 2.064,0.553 4.126,1.057 6.2,1.507 0.017,0 0.017,0 0.034,-0.002 2.122,0.415 4.261,0.763 6.41,1.059 h 0.016 c 1.643,0.224 3.28,0.381 4.916,0.473 1.718,0.085 3.452,0.153 5.188,0.238 l -0.033,-0.014 c 1.73,0.033 3.495,0.032 5.254,-0.018 1.794,-0.054 3.603,-0.141 5.393,-0.279 l 0,0 z"
         id="path373"
         style="fill:#d82d1c" />
      <path
         d="m 970.522,624.621 c -2.934,-2.755 -6.609,-4.312 -11.031,-4.661 -4.422,-0.349 -8.297,0.611 -11.625,2.869 -3.33,2.271 -5.142,5.19 -5.423,8.751 -0.281,3.562 1.049,6.729 3.981,9.483 2.932,2.754 6.608,4.312 11.029,4.661 4.422,0.35 8.298,-0.61 11.626,-2.869 3.328,-2.259 5.141,-5.18 5.422,-8.741 0.282,-3.56 -1.049,-6.729 -3.979,-9.493"
         id="path375"
         style="fill:#ea5f93" />
      <path
         d="m 965.027,659.206 0.025,-0.053 5.749,-13.435 -27.346,-2.16 8.071,31.952 c 0.07,0.213 0.152,0.402 0.236,0.572 0.044,0.111 0.103,0.214 0.16,0.315 0.311,0.576 0.688,1.007 1.119,1.302 0.504,0.342 1.099,0.485 1.763,0.443 l 0.774,-0.081 c 0.165,-0.031 0.713,-0.388 1.655,-1.082 0.131,-0.152 0.24,-0.305 0.353,-0.48 0.077,-0.156 0.153,-0.312 0.232,-0.49 l 7.209,-16.803 z"
         id="path377"
         style="fill:#faef45" />
      <path
         d="m 956.8,649.494 -2.745,-3.227 m 10.261,-1.06 1.692,1.995 m -5.971,-0.473 1.997,-1.703 m -3.689,-0.292 1.692,1.994 m 5.499,6.444 1.389,1.626 m -4.627,1.138 3.238,-2.764 m 0,0 -2.743,-3.226 m -3.238,2.764 -3.228,2.754 m 0.473,-5.97 2.755,3.216 m -0.472,5.971 -3.228,2.754 m 5.992,0.486 3.181,-2.715 -2.729,-3.271 m 0.894,7.564 -1.347,-1.578 m 0.947,-11.975 -3.238,2.764 m 0,0 2.743,3.226 m 0,0 -3.215,2.745 m 0,0 2.764,3.24 m -5.52,-6.456 2.756,3.216 m 6.926,-11.479 2.754,3.216 -3.227,2.754 m 0.473,-5.97 -3.216,2.744 m 0,0 -2.756,-3.218 m 0,0.001 -3.237,2.766 m -4.458,-5.235 1.713,2.008 m -5.97,-0.472 2.009,-1.715 m -3.722,-0.293 1.713,2.008 m 5.97,0.472 2.01,-1.714 m -11.206,3.996 -0.118,0.099 m 0.118,-0.099 -0.208,-0.243 m 5.706,6.686 -2.745,-3.228 m 0,10e-4 3.217,-2.744 m -4.934,4.211 1.718,-1.468 m 2.271,9.198 -1.672,1.438 m -1.07,-4.664 2.742,3.226 m -2.836,-3.148 0.094,-0.078 m -0.16,-0.186 0.159,0.187 m 0.001,-0.001 3.216,-2.746 m -10e-4,0.002 2.754,3.216 m 0,0 -3.228,2.754 m 3.7,-8.725 -3.226,2.753 m 0.472,-5.97 2.754,3.217 m -5.971,-0.472 -2.753,-3.216 m 9.196,-2.282 -3.226,2.754 m 0,-0.001 -2.744,-3.226 m 0,0.001 -3.226,2.754 m 4.554,18.383 3.227,-2.754 m -3.316,2.64 0.089,0.113 m 0,10e-4 2.765,3.229 m 0,0 -1.639,1.418 m 10.72,-3.591 -3.11,2.645 m -10e-4,0 -2.745,-3.216 m 0,0 3.217,-2.755 m 0,0 2.714,3.181 m -3.747,8.656 -2.655,-3.111 m 0,0 3.217,-2.755 m -10e-4,0 1.308,1.544 m -7.692,3.905 3.168,-2.694 m 0,0 -2.754,-3.227 m 3.677,-8.727 -3.216,2.744 m 10e-4,0 -2.756,-3.216 m 2.756,3.216 2.764,3.239 m -10e-4,0 -3.226,2.744 m 9.67,-8.241 -3.227,2.742 m 0,0 -2.765,-3.229 m 0,10e-4 -2.744,-3.226 m 0,0 3.216,-2.745 m 0,10e-4 -2.744,-3.227 m 0,0 3.217,-2.744 m 11.206,-3.996 -1.997,1.704"
         id="path379"
         style="fill:none;stroke:#e5a800;stroke-width:1.079;stroke-linecap:round;stroke-linejoin:round;stroke-miterlimit:10" />
      <path
         d="m 953.043,677.699 c 0.503,0.343 1.099,0.486 1.763,0.443 l 0.774,-0.08 c 0.165,-0.031 0.713,-0.388 1.656,-1.082 0.13,-0.152 0.239,-0.305 0.351,-0.48 0.078,-0.156 0.154,-0.313 0.233,-0.49 l 7.207,-16.804 0.025,-0.053 5.749,-13.435 -27.346,-2.161 8.071,31.953 c 0.07,0.213 0.152,0.402 0.236,0.572 0.044,0.111 0.103,0.214 0.159,0.315 m 0.002,10e-4 1.12,1.302 m -1.12,-1.302 c 0.312,0.576 0.689,1.007 1.12,1.302"
         id="path381"
         style="fill:none;stroke:#4a4646;stroke-width:1.727;stroke-linecap:round;stroke-linejoin:round;stroke-miterlimit:10" />
      <path
         d="m 975.135,635.139 c -0.046,-0.361 -0.106,-0.71 -0.189,-1.032 -1.608,5.426 -3.272,8.262 -5.001,8.503 -0.334,-0.026 -0.676,-0.086 -1.003,-0.177 -0.065,-0.015 -0.128,-0.03 -0.181,-0.047 -0.147,-0.044 -0.297,-0.088 -0.436,-0.132 -0.555,-0.228 -1.104,-0.53 -1.637,-0.908 -1.462,-0.82 -2.817,-0.927 -4.078,-0.323 -3.169,2.013 -6.34,1.74 -9.502,-0.838 -1.199,-0.862 -2.651,-0.977 -4.357,-0.344 -0.287,0.074 -0.564,0.151 -0.84,0.215 l -0.154,0.03 c -3.144,0.478 -5.025,-2.432 -5.642,-8.737 -0.171,0.375 -0.309,0.755 -0.416,1.148 -0.382,1.149 -0.641,2.362 -0.772,3.62 -0.027,0.764 -0.022,1.512 0.038,2.242 0.1,1.49 0.386,2.932 0.872,4.322 0.31,0.858 0.838,1.712 1.571,2.561 3.1,2.29 6.041,2.47 8.812,0.545 3.501,3.773 7.002,3.997 10.48,0.666 2.433,3.05 5.404,3.394 8.937,1.021 0.762,-0.73 1.365,-1.516 1.819,-2.345 0.08,-0.178 0.17,-0.355 0.27,-0.532 0.494,-1.032 0.882,-2.116 1.177,-3.251 0.205,-0.807 0.358,-1.64 0.438,-2.51 0.067,-1.26 -0.008,-2.501 -0.206,-3.697"
         id="path383"
         style="fill:#e6156f" />
      <path
         d="m 974.945,634.106 c -0.593,-2.635 -1.828,-5.069 -3.719,-7.31 -3.094,-3.609 -7.015,-5.609 -11.76,-5.983 -4.743,-0.375 -8.943,0.979 -12.597,4.06 -2.171,1.874 -3.75,4.034 -4.755,6.476 0.616,6.306 2.498,9.215 5.643,8.736 l 0.153,-0.029 c 0.275,-0.064 0.553,-0.141 0.84,-0.215 1.706,-0.633 3.158,-0.519 4.357,0.344 3.162,2.578 6.333,2.85 9.502,0.838 1.261,-0.604 2.616,-0.497 4.078,0.323 0.533,0.378 1.082,0.681 1.637,0.907 0.139,0.045 0.287,0.089 0.436,0.133 0.053,0.017 0.115,0.032 0.181,0.047 0.327,0.091 0.669,0.15 1.003,0.177 1.73,-0.243 3.393,-3.078 5.001,-8.504"
         id="path385"
         style="fill:#ea5f93" />
      <path
         d="m 975.189,633.768 c 0.015,0.1 0.028,0.188 0.032,0.284 0.228,1.362 0.278,2.783 0.16,4.258 -0.014,0.182 -0.027,0.365 -0.041,0.526 -0.079,0.87 -0.232,1.703 -0.438,2.51 -0.295,1.135 -0.683,2.219 -1.177,3.251 -0.1,0.177 -0.189,0.354 -0.27,0.532 -0.454,0.829 -1.058,1.614 -1.819,2.345 -3.532,2.373 -6.504,2.029 -8.937,-1.021 -3.479,3.33 -6.979,3.107 -10.48,-0.666 -2.771,1.925 -5.713,1.745 -8.812,-0.546 -0.733,-0.848 -1.262,-1.701 -1.571,-2.56 -0.486,-1.392 -0.772,-2.832 -0.872,-4.322 -0.061,-0.73 -0.065,-1.479 -0.038,-2.243 0.002,-0.163 0.017,-0.347 0.03,-0.528 0.117,-1.475 0.391,-2.87 0.829,-4.179 0.03,-0.116 0.062,-0.244 0.105,-0.37 0.987,-2.77 2.671,-5.181 5.065,-7.252 3.653,-3.079 7.853,-4.436 12.596,-4.06 4.744,0.374 8.668,2.374 11.759,5.984 2.072,2.448 3.363,5.138 3.879,8.057 z"
         id="path387"
         style="fill:none;stroke:#4a4646;stroke-width:1.727;stroke-linecap:round;stroke-linejoin:round;stroke-miterlimit:10" />
      <path
         d="m 870.235,639.964 c 3.065,-2.331 4.598,-5.148 4.598,-8.451 0,-3.313 -1.532,-6.13 -4.598,-8.462 -3.065,-2.331 -6.768,-3.497 -11.106,-3.497 -4.328,0 -8.031,1.166 -11.108,3.497 -3.063,2.332 -4.597,5.148 -4.597,8.462 0,3.303 1.533,6.12 4.597,8.451 3.077,2.342 6.78,3.508 11.108,3.508 4.339,0 8.041,-1.166 11.106,-3.508"
         id="path389"
         style="fill:#72bb2b" />
      <path
         d="m 867.871,658.27 0.021,-0.054 4.674,-13.849 h -27.438 l 10.566,31.226 c 0.087,0.205 0.185,0.39 0.281,0.551 0.055,0.108 0.118,0.205 0.184,0.303 0.357,0.551 0.766,0.949 1.22,1.209 0.529,0.302 1.133,0.398 1.791,0.302 l 0.767,-0.141 c 0.162,-0.042 0.68,-0.443 1.566,-1.209 0.118,-0.161 0.215,-0.323 0.312,-0.507 0.063,-0.162 0.129,-0.323 0.193,-0.508 l 5.863,-17.323 z"
         id="path391"
         style="fill:#faef45" />
      <path
         d="m 858.902,649.235 -2.991,-3 m 4.157,-1.868 1.845,1.856 m 4.145,-1.856 1.846,1.856 m -5.991,0.001 1.855,-1.856 m 1.145,4.846 2.99,3 m 0,0 -3.012,3.012 m 3.012,-3.012 1.512,1.512 m -10.513,-4.491 2.999,2.99 m 0,10e-4 -2.999,3 m 0,5.991 2.999,-3.001 m 4.481,4.478 -1.469,-1.467 m 0,10e-4 2.958,-2.958 -2.979,-3.044 m 0,0 -2.99,2.99 m -0.001,0 -2.999,-2.99 m 2.999,-3 3.012,-3.012 m -0.021,6.012 -2.99,-3 m -0.001,5.99 3.012,3.012 m 2.99,-9.014 3.001,-3 -3.001,-2.99 m -5.99,0 -3.011,3.012 m 9.001,-3.012 -2.99,2.99 m 0,0 -3,-2.99 m -0.097,29.877 -2.894,-2.893 m 10e-4,0 2.99,-3.001 m 0,0 1.424,1.436 m 1.469,-4.318 -2.893,2.882 m 0,0 -2.99,-2.989 m 0,0 2.99,-3.001 m 0,0 2.957,2.957 m 0.043,-5.946 -3,2.989 m 0,0 -3.011,-3 m -4.858,-16.85 1.867,1.868 m -5.99,0 1.867,-1.868 m -3.734,0 1.867,1.868 m 5.99,0 1.868,-1.868 m -10.858,4.868 -0.108,0.108 m 0.108,-0.108 -0.227,-0.227 m 3.227,3.218 2.99,-2.99 m 0,5.99 -2.99,-3 m 0,0 -1.599,1.597 m 4.589,7.394 -1.555,1.564 m -1.435,-4.565 2.99,3.001 m -3.076,-2.915 0.086,-0.086 m -0.173,-0.173 0.173,0.173 m 2.99,-2.99 -2.99,2.99 m 5.99,0 -3,-2.99 m 0,5.991 3,-3.001 m 0,-5.99 -3,3 m 0,-5.991 3,2.99 m -8.99,-2.99 3,2.99 m 5.99,-5.99 -3,3 m 0,0 -2.99,-3 m 0,0 -3,3 m 9.002,20.972 -1.522,1.543 m -1.588,-4.651 0.098,0.107 m 0,0 3,-3 m 0.012,6.001 -3.012,-3.001 m 3,-3 -3,-2.989 m 3.012,8.99 3,3.001 m 0,0 -2.946,2.936 m -0.066,-11.938 3.012,3.012 m 0,0 -3,2.989 m 2.979,-14.981 -2.991,2.99 m 0,0 2.991,3.001 m 0,0 -2.991,2.989 m 2.991,-8.98 -2.991,-3 m 0,0 2.991,-2.99 m 10.859,-4.869 -1.857,1.856"
         id="path393"
         style="fill:none;stroke:#e5a800;stroke-width:1.079;stroke-linecap:round;stroke-linejoin:round;stroke-miterlimit:10" />
      <path
         d="m 856.16,676.446 c -0.065,-0.098 -0.129,-0.194 -0.184,-0.303 -0.097,-0.161 -0.194,-0.346 -0.281,-0.551 l -10.566,-31.226 h 27.438 l -4.674,13.849 -0.021,0.054 -5.861,17.323 c -0.064,0.185 -0.13,0.346 -0.193,0.508 -0.098,0.184 -0.194,0.346 -0.312,0.507 -0.887,0.767 -1.404,1.167 -1.566,1.209 l -0.767,0.141 c -0.658,0.097 -1.262,0 -1.791,-0.302 m -0.002,0 c -0.454,-0.26 -0.863,-0.658 -1.22,-1.209 m 1.22,1.209 -1.22,-1.209"
         id="path395"
         style="fill:none;stroke:#4a4646;stroke-width:1.727;stroke-linecap:round;stroke-linejoin:round;stroke-miterlimit:10" />
      <path
         d="m 876.074,633.477 c -0.723,-2.99 -2.245,-5.655 -4.576,-7.997 -3.379,-3.368 -7.448,-5.052 -12.208,-5.052 -4.771,0 -8.84,1.684 -12.208,5.052 -2.343,2.342 -3.863,5.007 -4.576,7.997 -0.291,1.178 -0.441,2.407 -0.475,3.691 0.055,2.299 0.529,4.458 1.413,6.456 0.379,0.829 0.972,1.641 1.782,2.428 3.27,2.04 6.207,1.987 8.817,-0.151 3.789,3.487 7.296,3.433 10.514,-0.162 2.654,2.85 5.645,2.958 8.98,0.313 0.701,-0.787 1.24,-1.62 1.629,-2.482 0.065,-0.184 0.141,-0.367 0.227,-0.552 0.702,-1.823 1.091,-3.777 1.155,-5.85 -0.042,-1.284 -0.204,-2.515 -0.474,-3.691"
         id="path397"
         style="fill:#72bb2b" />
      <path
         d="m 876.074,632.386 c 0.312,1.34 0.475,2.753 0.475,4.232 v 0.55 c -0.064,2.071 -0.453,4.026 -1.155,5.85 -0.086,0.185 -0.161,0.368 -0.227,0.552 -0.389,0.862 -0.928,1.695 -1.629,2.482 -3.336,2.645 -6.326,2.536 -8.98,-0.313 -3.218,3.595 -6.725,3.649 -10.514,0.162 -2.61,2.138 -5.548,2.191 -8.817,0.151 -0.811,-0.787 -1.403,-1.599 -1.782,-2.428 -0.884,-1.998 -1.358,-4.157 -1.413,-6.456 -0.011,-0.184 -0.011,-0.365 -0.011,-0.55 0,-1.479 0.162,-2.893 0.485,-4.232 0.713,-2.988 2.233,-5.654 4.576,-7.996 3.368,-3.368 7.437,-5.052 12.208,-5.052 4.76,0 8.829,1.684 12.208,5.052 2.331,2.341 3.854,5.007 4.576,7.996 z"
         id="path399"
         style="fill:none;stroke:#4a4646;stroke-width:1.727;stroke-linecap:round;stroke-linejoin:round;stroke-miterlimit:10" />
      <polygon
         points="868.021,634.06 866.479,632.16 862.086,635.949 863.608,637.828 "
         id="polygon401"
         style="fill:#623811" />
      <polygon
         points="869.792,627.313 867.579,628.35 870.138,633.553 872.35,632.527 "
         id="polygon403"
         style="fill:#623811" />
      <polygon
         points="861.189,628.415 863.457,629.322 865.508,623.882 863.24,622.975 "
         id="polygon405"
         style="fill:#623811" />
      <polygon
         points="866.867,641.886 868.982,643.115 871.778,638.054 869.684,636.812 "
         id="polygon407"
         style="fill:#623811" />
      <polygon
         points="861.211,643.979 863.111,642.479 859.431,638.01 857.51,639.521 "
         id="polygon409"
         style="fill:#623811" />
      <polygon
         points="858.567,629.678 856.149,629.871 856.732,635.656 859.161,635.441 "
         id="polygon411"
         style="fill:#623811" />
      <polygon
         points="858.697,624.863 858.156,622.489 852.522,623.914 853.051,626.289 "
         id="polygon413"
         style="fill:#623811" />
      <polygon
         points="852.155,632.14 853.526,630.109 848.604,626.979 847.245,629.008 "
         id="polygon415"
         style="fill:#623811" />
      <polygon
         points="849.166,640.212 849.382,642.63 855.145,642.015 854.951,639.597 "
         id="polygon417"
         style="fill:#623811" />
      <polygon
         points="850.03,638.615 851.562,636.737 846.964,633.207 845.441,635.085 "
         id="polygon419"
         style="fill:#623811" />
      <path
         d="m 972.415,655.821 c -0.252,1.189 -0.973,2.096 -2.197,2.7 -1.225,0.604 -2.549,0.754 -4.009,0.451 -1.459,-0.301 -2.616,-0.971 -3.488,-2.027 -0.872,-1.024 -1.191,-2.148 -0.939,-3.338 0.251,-1.191 0.987,-2.097 2.214,-2.719 1.208,-0.586 2.533,-0.737 3.992,-0.435 1.46,0.301 2.615,0.972 3.505,2.012 0.856,1.057 1.174,2.165 0.922,3.356"
         id="path421"
         style="fill:#d82d1c" />
      <path
         d="m 970.218,658.521 c -1.225,0.604 -2.549,0.754 -4.009,0.451 -1.459,-0.301 -2.616,-0.971 -3.488,-2.027 -0.872,-1.024 -1.191,-2.148 -0.939,-3.338 0.251,-1.191 0.988,-2.097 2.214,-2.719 1.208,-0.586 2.533,-0.737 3.993,-0.435 1.459,0.301 2.615,0.972 3.504,2.012 0.856,1.057 1.175,2.164 0.923,3.355 -0.253,1.191 -0.974,2.098 -2.198,2.701 z"
         id="path423"
         style="fill:none;stroke:#9e0c27;stroke-width:2.68400002;stroke-linecap:square;stroke-linejoin:round;stroke-miterlimit:10" />
      <path
         d="m 947.761,651.325 c 1.44,0.286 2.6,0.939 3.455,1.979 0.854,1.058 1.156,2.197 0.922,3.421 -0.236,1.226 -0.939,2.148 -2.113,2.784 -1.191,0.671 -2.5,0.873 -3.942,0.588 -1.442,-0.285 -2.599,-0.938 -3.455,-1.996 -0.855,-1.023 -1.174,-2.147 -0.938,-3.371 0.234,-1.224 0.938,-2.163 2.13,-2.835 1.189,-0.654 2.497,-0.855 3.941,-0.57"
         id="path425"
         style="fill:#d82d1c" />
      <path
         d="m 951.216,653.304 c 0.854,1.059 1.156,2.198 0.922,3.422 -0.236,1.226 -0.939,2.148 -2.113,2.784 -1.191,0.671 -2.5,0.873 -3.942,0.588 -1.442,-0.285 -2.599,-0.938 -3.455,-1.996 -0.855,-1.023 -1.174,-2.147 -0.938,-3.371 0.234,-1.224 0.938,-2.163 2.13,-2.835 1.19,-0.655 2.499,-0.855 3.942,-0.571 1.44,0.286 2.599,0.94 3.454,1.979 z"
         id="path427"
         style="fill:none;stroke:#9e0c27;stroke-width:2.68400002;stroke-linecap:square;stroke-linejoin:round;stroke-miterlimit:10" />
      <path
         d="m 960.138,659.41 c 1.392,-0.688 2.969,-0.872 4.714,-0.57 1.728,0.319 3.136,1.039 4.226,2.163 1.057,1.124 1.476,2.314 1.258,3.573 -0.218,1.257 -1.023,2.231 -2.415,2.918 -0.872,0.419 -1.795,0.654 -2.784,0.671 -0.621,0.033 -1.273,-0.017 -1.929,-0.134 -0.654,-0.118 -1.274,-0.285 -1.845,-0.537 -0.923,-0.368 -1.711,-0.905 -2.382,-1.594 -0.218,-0.233 -0.419,-0.469 -0.604,-0.721 -0.637,-0.924 -0.871,-1.879 -0.687,-2.868 0.184,-0.989 0.721,-1.795 1.626,-2.399 0.251,-0.183 0.537,-0.351 0.822,-0.502"
         id="path429"
         style="fill:#d82d1c" />
      <path
         d="m 964.852,658.84 c 1.729,0.319 3.136,1.039 4.227,2.163 1.056,1.124 1.475,2.314 1.257,3.573 -0.218,1.257 -1.023,2.231 -2.415,2.918 -0.872,0.419 -1.795,0.654 -2.784,0.671 -0.621,0.033 -1.273,-0.017 -1.929,-0.134 -0.654,-0.118 -1.274,-0.285 -1.845,-0.537 -0.923,-0.368 -1.711,-0.905 -2.382,-1.594 -0.218,-0.233 -0.419,-0.469 -0.604,-0.722 -0.637,-0.923 -0.871,-1.878 -0.687,-2.867 0.184,-0.989 0.721,-1.795 1.626,-2.399 0.252,-0.183 0.537,-0.352 0.822,-0.502 1.391,-0.688 2.968,-0.872 4.714,-0.57 z"
         id="path431"
         style="fill:none;stroke:#9e0c27;stroke-width:2.68400002;stroke-linecap:square;stroke-linejoin:round;stroke-miterlimit:10" />
      <path
         d="m 964.969,673.466 c -0.337,1.123 -1.105,1.944 -2.332,2.447 -1.224,0.521 -2.533,0.571 -3.924,0.15 -1.377,-0.401 -2.45,-1.155 -3.205,-2.247 -0.754,-1.09 -0.955,-2.196 -0.62,-3.319 0.318,-1.124 1.107,-1.93 2.332,-2.449 1.224,-0.503 2.532,-0.554 3.908,-0.151 1.392,0.42 2.465,1.157 3.219,2.248 0.738,1.089 0.94,2.196 0.622,3.321"
         id="path433"
         style="fill:#d82d1c" />
      <path
         d="m 962.637,675.913 c -1.224,0.521 -2.533,0.571 -3.924,0.15 -1.377,-0.401 -2.45,-1.155 -3.205,-2.247 -0.754,-1.09 -0.955,-2.196 -0.62,-3.319 0.318,-1.124 1.107,-1.93 2.332,-2.449 1.224,-0.503 2.532,-0.554 3.908,-0.151 1.392,0.42 2.465,1.157 3.219,2.248 0.738,1.09 0.94,2.196 0.622,3.321 -0.337,1.123 -1.107,1.944 -2.332,2.447 z"
         id="path435"
         style="fill:none;stroke:#9e0c27;stroke-width:2.68400002;stroke-linecap:square;stroke-linejoin:round;stroke-miterlimit:10" />
      <path
         d="m 842.663,653.001 c 0.119,1.224 0.756,2.18 1.896,2.901 1.157,0.737 2.466,1.022 3.959,0.872 1.476,-0.151 2.701,-0.721 3.657,-1.677 0.988,-0.94 1.408,-2.014 1.291,-3.238 -0.135,-1.208 -0.788,-2.18 -1.945,-2.918 -1.124,-0.721 -2.433,-0.988 -3.908,-0.838 -1.493,0.15 -2.718,0.704 -3.707,1.643 -0.957,0.956 -1.376,2.048 -1.243,3.255"
         id="path437"
         style="fill:#d82d1c" />
      <path
         d="m 844.559,655.902 c 1.157,0.737 2.466,1.021 3.959,0.872 1.476,-0.151 2.701,-0.721 3.657,-1.677 0.987,-0.94 1.408,-2.014 1.291,-3.238 -0.136,-1.208 -0.788,-2.18 -1.945,-2.918 -1.124,-0.721 -2.433,-0.988 -3.908,-0.838 -1.493,0.15 -2.718,0.704 -3.707,1.643 -0.956,0.956 -1.375,2.048 -1.243,3.255 0.119,1.224 0.756,2.18 1.896,2.901 z"
         id="path439"
         style="fill:none;stroke:#9e0c27;stroke-width:2.68400002;stroke-linecap:square;stroke-linejoin:round;stroke-miterlimit:10" />
      <path
         d="m 869.099,652.312 c -1.444,0.286 -2.603,0.939 -3.456,1.979 -0.857,1.059 -1.158,2.198 -0.923,3.422 0.233,1.226 0.939,2.148 2.112,2.784 1.192,0.671 2.498,0.873 3.942,0.588 1.442,-0.285 2.6,-0.938 3.454,-1.995 0.856,-1.024 1.175,-2.148 0.94,-3.372 -0.234,-1.225 -0.94,-2.164 -2.13,-2.834 -1.19,-0.655 -2.499,-0.857 -3.939,-0.572"
         id="path441"
         style="fill:#d82d1c" />
      <path
         d="m 865.643,654.291 c -0.856,1.059 -1.158,2.198 -0.923,3.422 0.235,1.226 0.939,2.148 2.112,2.784 1.192,0.671 2.498,0.873 3.942,0.588 1.442,-0.285 2.6,-0.938 3.454,-1.995 0.856,-1.024 1.175,-2.148 0.94,-3.372 -0.234,-1.225 -0.94,-2.164 -2.13,-2.834 -1.191,-0.655 -2.5,-0.856 -3.94,-0.572 -1.444,0.287 -2.602,0.94 -3.455,1.979 z"
         id="path443"
         style="fill:none;stroke:#9e0c27;stroke-width:2.68400002;stroke-linecap:square;stroke-linejoin:round;stroke-miterlimit:10" />
      <path
         d="m 854.505,657.831 c -1.324,-0.822 -2.867,-1.175 -4.629,-1.04 -1.762,0.134 -3.237,0.704 -4.428,1.711 -1.191,1.022 -1.728,2.164 -1.626,3.422 0.083,1.291 0.805,2.331 2.129,3.152 0.821,0.521 1.728,0.84 2.717,0.99 0.604,0.084 1.242,0.1 1.913,0.051 0.671,-0.051 1.309,-0.168 1.911,-0.353 0.94,-0.286 1.779,-0.737 2.517,-1.358 0.251,-0.218 0.47,-0.437 0.671,-0.655 0.721,-0.855 1.057,-1.777 0.973,-2.8 -0.084,-0.991 -0.537,-1.846 -1.377,-2.55 -0.234,-0.216 -0.485,-0.403 -0.771,-0.57"
         id="path445"
         style="fill:#d82d1c" />
      <path
         d="m 849.876,656.791 c -1.762,0.134 -3.237,0.704 -4.428,1.711 -1.191,1.022 -1.728,2.164 -1.626,3.422 0.083,1.291 0.805,2.331 2.129,3.152 0.82,0.521 1.728,0.84 2.717,0.99 0.604,0.084 1.242,0.1 1.913,0.051 0.671,-0.051 1.309,-0.168 1.911,-0.353 0.94,-0.286 1.779,-0.737 2.517,-1.358 0.251,-0.218 0.47,-0.437 0.671,-0.655 0.722,-0.856 1.057,-1.777 0.973,-2.8 -0.085,-0.991 -0.537,-1.846 -1.376,-2.55 -0.234,-0.218 -0.485,-0.403 -0.771,-0.57 -1.325,-0.822 -2.868,-1.175 -4.63,-1.04 z"
         id="path447"
         style="fill:none;stroke:#9e0c27;stroke-width:2.68400002;stroke-linecap:square;stroke-linejoin:round;stroke-miterlimit:10" />
      <path
         d="m 848.266,671.299 c 0.218,1.158 0.905,2.047 2.062,2.685 1.192,0.637 2.483,0.82 3.892,0.57 1.426,-0.27 2.566,-0.906 3.422,-1.93 0.854,-1.023 1.174,-2.097 0.956,-3.254 -0.218,-1.141 -0.906,-2.029 -2.062,-2.649 -1.174,-0.638 -2.467,-0.822 -3.892,-0.555 -1.408,0.252 -2.55,0.89 -3.422,1.914 -0.856,1.004 -1.173,2.078 -0.956,3.219"
         id="path449"
         style="fill:#d82d1c" />
      <path
         d="m 850.329,673.983 c 1.191,0.637 2.482,0.82 3.891,0.57 1.426,-0.27 2.567,-0.906 3.423,-1.93 0.854,-1.023 1.173,-2.096 0.955,-3.254 -0.218,-1.141 -0.906,-2.029 -2.062,-2.649 -1.174,-0.638 -2.467,-0.822 -3.892,-0.555 -1.408,0.252 -2.55,0.89 -3.422,1.914 -0.855,1.004 -1.173,2.078 -0.956,3.219 0.217,1.158 0.905,2.048 2.063,2.685 z"
         id="path451"
         style="fill:none;stroke:#9e0c27;stroke-width:2.68400002;stroke-linecap:square;stroke-linejoin:round;stroke-miterlimit:10" />
    </g>
  </g>
</svg>
