<?xml version="1.0" encoding="UTF-8" standalone="no"?>
<!-- Created with Inkscape (http://www.inkscape.org/) -->

<svg
   xmlns:dc="http://purl.org/dc/elements/1.1/"
   xmlns:cc="http://creativecommons.org/ns#"
   xmlns:rdf="http://www.w3.org/1999/02/22-rdf-syntax-ns#"
   xmlns:svg="http://www.w3.org/2000/svg"
   xmlns="http://www.w3.org/2000/svg"
   version="1.1"
   width="290"
   height="256"
   id="svg5089">
  <defs
     id="defs5091" />
  <metadata
     id="metadata5094">
    <rdf:RDF>
      <cc:Work
         rdf:about="">
        <dc:format>image/svg+xml</dc:format>
        <dc:type
           rdf:resource="http://purl.org/dc/dcmitype/StillImage" />
        <dc:title></dc:title>
      </cc:Work>
    </rdf:RDF>
  </metadata>
  <g
     transform="translate(0,-224)"
     id="layer1">
    <g
       transform="translate(-77.98503,-40.692369)"
       id="g121">
      <path
         d="m 263.434,349.177 c 4.729,24.919 -21.223,50.721 -57.963,57.634 -36.742,6.911 -70.358,-7.687 -75.082,-32.603 -4.728,-24.919 21.223,-50.721 57.964,-57.631 36.74,-6.914 70.355,7.683 75.081,32.6"
         id="path123"
         style="fill:none;stroke:#9d0d28;stroke-width:5.07800007" />
      <path
         d="m 221.446,417.848 c -1.914,-3.467 -8.941,-14.874 -12.954,-16.514 -4.943,-2.017 -26.834,5.829 -29.553,7.827 -3.263,2.394 -4.501,20.083 -4.79,22.019 -5.204,34.696 71.456,30.452 47.297,-13.332"
         id="path125"
         style="fill:none;stroke:#9d0d28;stroke-width:5.07800007" />
      <path
         d="m 178.901,444.16 c -3.592,6.423 -5.792,10.935 -9.368,16.609 -36.158,-23.368 -44.839,7.848 -0.864,17.709 2.494,0.56 11.903,-19.97 15.767,-27.979"
         id="path127"
         style="fill:none;stroke:#9d0d28;stroke-width:5.07800007" />
      <path
         d="m 210.929,448.854 c 0.208,7.356 0.065,12.374 0.603,19.061 42.871,-3.948 36.097,27.734 -7.442,16.091 -2.468,-0.659 -1.291,-23.212 -1.003,-32.1"
         id="path129"
         style="fill:none;stroke:#9d0d28;stroke-width:5.07800007" />
      <path
         d="m 221.446,417.848 c -1.914,-3.467 -8.941,-14.874 -12.954,-16.514 -4.943,-2.017 -26.834,5.829 -29.553,7.827 -3.263,2.394 -4.501,20.083 -4.79,22.019 -5.204,34.696 71.456,30.452 47.297,-13.332"
         id="path131"
         style="fill:#d82d1b" />
      <path
         d="m 190.809,310.508 c 1.811,9.59 -5.035,18.933 -15.292,20.871 -10.255,1.937 -20.04,-4.267 -21.85,-13.854 -1.812,-9.589 5.033,-18.933 15.292,-20.87 10.256,-1.938 20.038,4.267 21.85,13.853"
         id="path133"
         style="fill:none;stroke:#9d0d28;stroke-width:5.07800007" />
      <path
         d="m 225.363,303.791 c 1.811,9.589 -5.035,18.931 -15.29,20.869 -10.257,1.939 -20.041,-4.265 -21.853,-13.851 -1.81,-9.589 5.035,-18.934 15.293,-20.872 10.258,-1.935 20.039,4.267 21.85,13.854"
         id="path135"
         style="fill:none;stroke:#9d0d28;stroke-width:5.07800007" />
      <path
         d="m 263.434,349.177 c 4.729,24.919 -21.223,50.721 -57.963,57.634 -36.742,6.911 -70.358,-7.687 -75.082,-32.603 -4.728,-24.919 21.223,-50.721 57.964,-57.631 36.74,-6.914 70.355,7.683 75.081,32.6"
         id="path137"
         style="fill:#d82d1b" />
      <path
         d="m 190.809,310.508 c 1.811,9.59 -5.035,18.933 -15.292,20.871 -10.255,1.937 -20.04,-4.267 -21.85,-13.854 -1.812,-9.589 5.033,-18.933 15.292,-20.87 10.256,-1.938 20.038,4.267 21.85,13.853"
         id="path139"
         style="fill:#ffffff" />
      <path
         d="m 225.363,303.791 c 1.811,9.589 -5.035,18.931 -15.29,20.869 -10.257,1.939 -20.041,-4.265 -21.853,-13.851 -1.81,-9.589 5.035,-18.934 15.293,-20.872 10.258,-1.935 20.039,4.267 21.85,13.854"
         id="path141"
         style="fill:#ffffff" />
      <path
         d="m 184.286,315.672 c 0.242,5.225 -3.797,9.659 -9.023,9.902 -5.227,0.244 -9.661,-3.794 -9.905,-9.022 -0.243,-5.225 3.796,-9.661 9.023,-9.904 5.225,-0.244 9.661,3.795 9.905,9.024"
         id="path143" />
      <path
         d="m 213.198,310.393 c 0.243,5.226 -3.797,9.66 -9.022,9.901 -5.226,0.245 -9.661,-3.794 -9.904,-9.021 -0.244,-5.225 3.796,-9.659 9.022,-9.904 5.226,-0.244 9.661,3.797 9.904,9.024"
         id="path145" />
      <path
         d="m 209.988,331.843 c 1.834,9.701 -4.35,19.014 -13.812,20.802 -9.459,1.786 -18.616,-4.629 -20.45,-14.328 -1.833,-9.702 4.353,-19.013 13.813,-20.8 9.461,-1.789 18.617,4.626 20.449,14.326"
         id="path147"
         style="fill:#e78c00" />
      <path
         d="m 144.093,362.007 c 0,0 55.581,14.479 97.598,-30.889 0,0 6.095,40.135 -32.821,54.95 0,-10e-4 -48.466,17.423 -64.777,-24.061"
         id="path149" />
      <path
         d="m 178.901,444.16 c -3.592,6.423 -5.792,10.935 -9.368,16.609 -36.158,-23.368 -44.839,7.848 -0.864,17.709 2.494,0.56 11.903,-19.97 15.767,-27.979"
         id="path151"
         style="fill:#d82d1b" />
      <path
         d="m 210.929,448.854 c 0.208,7.356 0.065,12.374 0.603,19.061 42.871,-3.948 36.097,27.734 -7.442,16.091 -2.468,-0.659 -1.291,-23.212 -1.003,-32.1"
         id="path153"
         style="fill:#d82d1b" />
      <polyline
         style="fill:#fdcc00"
         points="298.675,363.671 205.172,477.052 179.433,455.829 272.93,342.439  "
         id="polyline155" />
      <polyline
         style="fill:none;stroke:#c38f09;stroke-width:2.60400009"
         points="298.675,363.671 205.172,477.052 179.433,455.829    272.93,342.439  "
         id="polyline157" />
      <path
         d="m 200.462,464.892 c 5.406,4.459 7.813,9.404 2.16,16.251 l -8.24,9.985 c -5.64,6.85 -12.184,7.557 -17.594,3.097 l -7.901,-6.519 c -5.406,-4.458 -6.264,-11.272 -0.623,-18.108 l 8.235,-9.998 c 5.643,-6.844 10.648,-5.688 16.057,-1.22 l 7.906,6.512 z"
         id="path159"
         style="fill:#f29a76" />
      <path
         d="m 200.462,464.892 c 5.406,4.459 7.813,9.404 2.16,16.251 l -8.24,9.985 c -5.64,6.85 -12.184,7.557 -17.594,3.097 l -7.901,-6.519 c -5.406,-4.458 -6.264,-11.272 -0.623,-18.108 l 8.235,-9.998 c 5.643,-6.844 10.648,-5.688 16.057,-1.22 l 7.906,6.512 z"
         id="path161"
         style="fill:none;stroke:#c8698b;stroke-width:2.60400009" />
      <path
         d="m 181.756,462.057 c -3.229,-4.482 -3.137,-5.278 0.52,-10.186 l 11.902,-14.144 c 4.14,-4.86 8.692,-11.369 9.207,-10.595 4.065,6.077 20.392,19.024 25.758,20.929 1.291,0.461 -5.769,7.668 -10.133,13.272 l -8.391,10.178 c -6.766,8.199 -6.111,7.407 -11.516,4.851 -6.018,-2.837 -12.406,-7.45 -17.347,-14.305"
         id="path163"
         style="fill:#aeafaf" />
      <path
         d="m 181.756,462.057 c -3.229,-4.482 -3.137,-5.278 0.52,-10.186 l 11.902,-14.144 c 4.14,-4.86 8.692,-11.369 9.207,-10.595 4.065,6.077 20.392,19.024 25.758,20.929 1.291,0.461 -5.769,7.668 -10.133,13.272 l -8.391,10.178 c -6.766,8.199 -6.111,7.407 -11.516,4.851 -6.018,-2.837 -12.406,-7.45 -17.347,-14.305 z"
         id="path165"
         style="fill:none;stroke:#5f5d5b;stroke-width:2.60400009" />
      <path
         d="m 195.805,455.751 c -4.005,-3.571 -8.627,-9.271 -7.725,-10.927 l 3.989,-4.673 c 1.28,-1.475 1.805,-2.87 2.385,-2.19 6.216,7.249 9.043,10.488 17.609,16.333 3.045,2.088 4.551,3.446 8.276,5.316 l -4.618,5.589 c -1.984,2.54 -2.076,3.146 -6.953,-0.002 -5.455,-3.501 -6.847,-3.998 -12.963,-9.446"
         id="path167"
         style="fill:#cf0037" />
      <line
         style="fill:#ffffff"
         x1="207.621"
         y1="431.07901"
         x2="273.34201"
         y2="351.36801"
         id="line169" />
      <line
         style="fill:none;stroke:#c38f09;stroke-width:2.60400009"
         x1="207.621"
         y1="431.07901"
         x2="273.34201"
         y2="351.36801"
         id="line171" />
      <line
         style="fill:#ffffff"
         x1="221.41901"
         y1="442.452"
         x2="286.09601"
         y2="364.021"
         id="line173" />
      <line
         style="fill:none;stroke:#c38f09;stroke-width:2.60400009"
         x1="221.41901"
         y1="442.452"
         x2="286.09601"
         y2="364.021"
         id="line175" />
      <path
         d="m 297.109,363.914 c -1.277,-1.867 -7.084,4.548 -10.207,1.794 -3.417,-3.012 0.89,-8.335 -3.257,-11.394 -2.706,-1.996 -5.848,0.793 -8.97,-1.356 -2.742,-1.872 -2.605,-5.032 -2.713,-8.319 l 0.322,-0.843 42.374,-26.336 2.716,2.325 -20.119,43.508 -0.146,0.621 z"
         id="path177"
         style="fill:#fff7ee" />
      <path
         d="m 297.109,363.914 c -1.277,-1.867 -7.084,4.548 -10.207,1.794 -3.417,-3.012 0.89,-8.335 -3.257,-11.394 -2.706,-1.996 -5.848,0.793 -8.97,-1.356 -2.742,-1.872 -2.605,-5.032 -2.713,-8.319 l 0.322,-0.843 42.374,-26.336 2.716,2.325 -20.119,43.508 -0.146,0.621 z"
         id="path179"
         style="fill:none;stroke:#a8a6a2;stroke-width:2.60400009" />
      <path
         d="m 296.969,364.534 c -1.354,-1.931 -6.795,4.417 -10.055,1.55 -3.582,-3.142 0.749,-8.487 -3.574,-11.694 -2.815,-2.096 -5.993,0.696 -9.26,-1.556 -2.85,-1.967 -2.132,-5.426 -2.309,-8.792"
         id="path181"
         style="fill:none;stroke:#c38f09;stroke-width:2.60400009;stroke-linecap:round" />
      <polygon
         points="306.994,321.864 313.907,317.561 316.619,319.892 312.386,329.043 "
         id="polygon183"
         style="fill:#5c5b5c" />
      <path
         d="m 180.09,411.401 c 2.714,1.087 32.52,4.734 39.644,-6.326 -2.366,-2.088 -10.191,-0.582 -5.722,-8.402 3.018,-5.276 8.817,-0.339 10.538,-0.316 -1.218,-4.461 5.87,-21.128 11.785,-18.115 9.139,4.651 -2.887,11.524 -2.87,14.688 2.459,-1.881 14.541,-6.99 16.491,3.615 1.352,7.354 -9.976,6.962 -10.354,5.706 0.853,1.14 -0.112,12.728 -13.063,10.058 -16.79,16.134 -47.53,7.352 -48.737,7.359"
         id="path185"
         style="fill:none;stroke:#9d0d28;stroke-width:5.07800007" />
      <path
         d="m 180.09,411.401 c 2.714,1.087 32.52,4.734 39.644,-6.326 -2.366,-2.088 -10.191,-0.582 -5.722,-8.402 3.018,-5.276 8.817,-0.339 10.538,-0.316 -1.218,-4.461 5.87,-21.128 11.785,-18.115 9.139,4.651 -2.887,11.524 -2.87,14.688 2.459,-1.881 14.541,-6.99 16.491,3.615 1.352,7.354 -9.976,6.962 -10.354,5.706 0.853,1.14 -0.112,12.728 -13.063,10.058 -16.79,16.134 -47.53,7.352 -48.737,7.359"
         id="path187"
         style="fill:#d82d1b" />
      <path
         d="m 193.236,408.437 c 0,0 -6.275,0.95 -7.977,3.676 -1.701,2.726 -1.847,5.842 -1.847,5.842 0,0 1.652,6.079 7.423,7.397 l -7.043,6.319 -5.449,-4.987 -2.784,-5.846 2.715,-15.001 3.836,-1.346 7.172,-2.823 3.954,6.769 z"
         id="path189"
         style="fill:#d82d1b" />
      <path
         d="m 261.504,415.791 c 2.665,3.793 2.425,8.556 -0.535,10.633 -2.96,2.077 -7.518,0.685 -10.182,-3.107 -2.665,-3.795 -2.425,-8.556 0.535,-10.632 2.96,-2.079 7.518,-0.687 10.182,3.106"
         id="path191"
         style="fill:#d82d1b" />
      <ellipse
         cx="256.49301"
         cy="419.56601"
         rx="6.5479999"
         ry="8.3920002"
         transform="matrix(0.8184,-0.5747,0.5747,0.8184,-194.53,223.6)"
         id="ellipse193"
         style="fill:none;stroke:#9d0d28;stroke-width:2.60400009" />
      <path
         d="m 274.648,401.868 c 2.383,3.391 2.168,7.648 -0.478,9.505 -2.647,1.858 -6.722,0.612 -9.104,-2.778 -2.382,-3.39 -2.168,-7.647 0.478,-9.505 2.647,-1.859 6.725,-0.612 9.104,2.778"
         id="path195"
         style="fill:#d82d1b" />
      <ellipse
         cx="270.16699"
         cy="405.24301"
         rx="5.8530002"
         ry="7.5029998"
         transform="matrix(0.8185,-0.5745,0.5745,0.8185,-183.7869,228.7845)"
         id="ellipse197"
         style="fill:none;stroke:#9d0d28;stroke-width:2.32800007" />
      <path
         d="m 268.47,409.142 c 2.665,3.793 2.425,8.553 -0.534,10.632 -2.96,2.077 -7.519,0.687 -10.183,-3.107 -2.664,-3.794 -2.424,-8.554 0.535,-10.632 2.961,-2.079 7.519,-0.688 10.182,3.107"
         id="path199"
         style="fill:#d82d1b" />
      <ellipse
         cx="263.45801"
         cy="412.91501"
         rx="6.5469999"
         ry="8.3929996"
         transform="matrix(0.8185,-0.5746,0.5746,0.8185,-189.4198,226.3395)"
         id="ellipse201"
         style="fill:none;stroke:#9d0d28;stroke-width:2.60400009" />
    </g>
  </g>
</svg>
