<?xml version="1.0" encoding="UTF-8" standalone="no"?>
<!-- Created with Inkscape (http://www.inkscape.org/) -->

<svg
   xmlns:dc="http://purl.org/dc/elements/1.1/"
   xmlns:cc="http://creativecommons.org/ns#"
   xmlns:rdf="http://www.w3.org/1999/02/22-rdf-syntax-ns#"
   xmlns:svg="http://www.w3.org/2000/svg"
   xmlns="http://www.w3.org/2000/svg"
   version="1.1"
   width="290"
   height="256"
   id="svg5089">
  <defs
     id="defs5091" />
  <metadata
     id="metadata5094">
    <rdf:RDF>
      <cc:Work
         rdf:about="">
        <dc:format>image/svg+xml</dc:format>
        <dc:type
           rdf:resource="http://purl.org/dc/dcmitype/StillImage" />
        <dc:title></dc:title>
      </cc:Work>
    </rdf:RDF>
  </metadata>
  <g
     transform="translate(0,-224)"
     id="layer1">
    <g
       transform="translate(-46.128684,-268.66655)"
       id="g621">
      <path
         d="m 195.125,631.13 c -8.065,-0.659 -13.525,0.573 -16.378,3.662 -2.821,2.892 -5.191,6.76 -7.112,11.623 -1.856,4.649 -3.412,8.863 -4.652,12.624 -3.243,8.201 -1.907,15.464 4.007,21.79 l 0.014,0.019 c 5.218,5.557 12.156,8.765 20.817,9.601 9.037,0.885 16.073,-1.277 21.091,-6.485 5.938,-5.979 7.372,-14.884 4.306,-26.719 -0.819,-3.185 -1.933,-6.603 -3.343,-10.227 -1.925,-5.054 -3.483,-8.706 -4.657,-10.943 -1.192,-2.635 -5.88,-4.277 -14.093,-4.945"
         id="path623"
         style="fill:#9e0c27" />
      <path
         d="m 252.156,568.193 c -3.753,-5.444 -8.871,-10.166 -15.389,-14.143 -3.629,-2.228 -7.727,-4.001 -12.328,-5.351 0.571,-0.394 0.929,-0.675 1.057,-0.829 3.148,-3.746 4.574,-8.133 4.263,-13.155 -0.276,-5.01 -2.182,-9.181 -5.722,-12.537 -3.535,-3.337 -7.641,-4.858 -12.35,-4.593 -4.707,0.299 -8.626,2.329 -11.756,6.09 -1.107,1.336 -2.01,2.747 -2.691,4.234 -0.874,-1.309 -1.961,-2.526 -3.247,-3.637 -3.838,-3.325 -8.33,-4.831 -13.458,-4.55 -5.126,0.314 -9.397,2.358 -12.812,6.131 -3.431,3.759 -5.009,8.15 -4.732,13.175 0.183,2.996 0.992,5.686 2.444,8.079 -1.178,0.364 -2.34,0.745 -3.482,1.157 -7.933,2.856 -14.907,6.649 -20.889,11.378 -5.996,4.729 -10.464,9.951 -13.401,15.687 -2.935,5.737 -4.261,11.861 -3.994,18.384 0.267,6.518 2.265,12.617 5.992,18.264 3.727,5.648 8.833,10.47 15.315,14.449 6.519,3.996 13.888,6.97 22.122,8.886 8.523,1.972 17.384,2.704 26.548,2.168 9.182,-0.537 17.898,-2.284 26.145,-5.27 7.968,-2.858 14.942,-6.649 20.922,-11.379 5.981,-4.728 10.513,-10.021 13.629,-15.864 3.193,-6.045 4.6,-12.277 4.219,-18.691 -0.382,-6.413 -2.511,-12.44 -6.405,-18.083"
         id="path625"
         style="fill:#d82d1b" />
      <path
         d="m 236.767,554.051 c -3.629,-2.228 -7.727,-4.001 -12.328,-5.351 0.571,-0.392 0.929,-0.675 1.057,-0.829 3.148,-3.746 4.574,-8.133 4.263,-13.155 -0.276,-5.01 -2.182,-9.181 -5.721,-12.537 -3.536,-3.337 -7.642,-4.858 -12.351,-4.593 -4.707,0.299 -8.626,2.329 -11.755,6.09 -1.108,1.336 -2.011,2.747 -2.691,4.234 -0.874,-1.309 -1.962,-2.526 -3.248,-3.637 -3.838,-3.325 -8.33,-4.831 -13.457,-4.55 -5.127,0.314 -9.398,2.358 -12.812,6.131 -3.432,3.759 -5.01,8.149 -4.732,13.176 0.182,2.995 0.991,5.684 2.443,8.078 -1.178,0.364 -2.339,0.745 -3.481,1.157 -7.934,2.856 -14.908,6.649 -20.89,11.378 -5.996,4.729 -10.464,9.951 -13.401,15.689 -2.935,5.734 -4.261,11.858 -3.994,18.38 0.267,6.519 2.265,12.618 5.992,18.265 3.727,5.648 8.834,10.47 15.315,14.449 6.52,3.995 13.888,6.97 22.122,8.886 8.523,1.972 17.384,2.704 26.548,2.168 9.182,-0.537 17.898,-2.283 26.145,-5.27 7.968,-2.858 14.942,-6.649 20.922,-11.379 5.981,-4.728 10.513,-10.021 13.629,-15.864 3.194,-6.046 4.6,-12.277 4.219,-18.691 -0.381,-6.412 -2.511,-12.44 -6.405,-18.083 -3.753,-5.444 -8.871,-10.166 -15.389,-14.142 z"
         id="path627"
         style="fill:none;stroke:#9e0c27;stroke-width:2.68400002;stroke-miterlimit:10" />
      <path
         d="m 224.495,547.12 c 2.939,-3.471 4.292,-7.552 4.079,-12.259 -0.265,-4.689 -1.994,-8.615 -5.189,-11.785 -3.228,-3.147 -6.978,-4.616 -11.288,-4.415 -4.342,0.185 -7.95,1.966 -10.859,5.367 -1.88,2.171 -3.13,4.619 -3.732,7.312 -0.942,-2.23 -2.363,-4.242 -4.277,-5.996 -3.483,-3.207 -7.604,-4.711 -12.365,-4.526 -4.763,0.183 -8.756,1.999 -11.998,5.462 -3.225,3.464 -4.746,7.568 -4.565,12.294 0.181,4.726 2.013,8.684 5.495,11.892 3.498,3.203 7.621,4.725 12.383,4.541 4.762,-0.184 8.754,-2.015 11.98,-5.479 0.532,-0.573 1.029,-1.163 1.477,-1.768 0.483,-0.103 1.017,-0.207 1.583,-0.312 1.778,-0.069 3.151,-0.156 4.105,-0.242 0.229,0.274 0.491,0.534 0.753,0.81 3.18,3.219 6.984,4.751 11.411,4.597 4.359,-0.185 8.033,-2.006 11.007,-5.493"
         id="path629"
         style="fill:#ffffff" />
      <path
         d="m 179.438,544.32 c 5.345,-6.654 11.058,-7.557 17.152,-2.67"
         id="path631"
         style="fill:none;stroke:#000000;stroke-width:3.49300003;stroke-linecap:round;stroke-linejoin:round;stroke-miterlimit:10" />
      <path
         d="m 224.531,541.101 c -5.664,-6.232 -11.247,-6.701 -16.759,-1.367"
         id="path633"
         style="fill:none;stroke:#000000;stroke-width:3.49300003;stroke-linecap:round;stroke-linejoin:round;stroke-miterlimit:10" />
      <path
         d="m 225.509,588.544 c -5.332,1.02 -10.711,1.817 -16.114,2.35 -5.402,0.533 -10.866,0.808 -16.421,0.797 -5.555,-0.014 -11.415,-0.804 -17.569,-2.391 l -7.314,-2.401 c 3.792,18.025 13.161,28.438 28.122,31.276 4.377,0.852 9.03,0.967 13.93,0.348 0.041,-0.003 0.066,-0.005 0.092,-0.006 4.912,-0.323 9.523,-1.327 13.802,-3.006 14.634,-5.672 23.135,-17.796 25.518,-36.409 l -7.076,3.776 c -5.987,2.751 -11.64,4.642 -16.97,5.666"
         id="path635" />
      <path
         d="m 208.941,589.684 0.001,0.033 c 0.092,-0.026 0.143,-0.047 0.156,-0.047 l -0.157,0.014 z"
         id="path637" />
      <path
         d="m 189.567,558.583 c -0.581,5.025 0.683,9.632 3.759,13.842 3.109,4.206 7.142,6.782 12.117,7.728 4.957,0.928 9.381,-0.05 13.287,-2.946 3.922,-2.865 6.173,-6.816 6.754,-11.843 0.58,-5.024 -0.685,-9.647 -3.794,-13.872 -3.075,-4.208 -7.108,-6.769 -12.082,-7.696 -4.958,-0.944 -9.399,0.017 -13.321,2.915 -3.905,2.897 -6.139,6.849 -6.72,11.872"
         id="path639"
         style="fill:#e78c00" />
      <path
         d="m 151.604,714.309 c -1.339,-4.399 1.261,-8.156 7.818,-11.284 2.939,-1.444 7.942,-2.329 15.044,-2.65 0.179,0.038 0.377,0.074 0.59,0.128 1.855,0.309 2.855,0.494 3.019,0.545 0.164,0.05 0.327,0.121 0.475,0.174 1.751,0.571 3.044,0.988 3.879,1.249 0.066,0.018 0.131,0.054 0.196,0.087 0.54,0.256 1.094,0.546 1.681,0.834 0.131,0.054 0.262,0.12 0.393,0.174 l -0.002,0.049 c -0.18,-0.021 -0.542,-0.076 -1.067,-0.165 -0.903,-0.132 -2.298,-0.37 -4.202,-0.699 -0.017,0 -0.412,0.043 -1.187,0.128 -0.247,0.01 -0.463,0.04 -0.676,0.053 -0.445,0.025 -0.791,0.035 -1.038,0.049 l -0.032,-0.052 c -0.725,0.02 -1.433,0.058 -2.125,0.096 -6.475,0.299 -11.082,1.09 -13.804,2.376 h -0.016 c -4.963,2.365 -7.101,5.107 -6.398,8.212 1.013,3.293 4.657,5.774 10.948,7.447 1.983,0.512 4.251,0.812 6.768,0.873 l 0.049,0.002 c 3.125,0.172 6.236,0.156 9.352,-0.066 l -0.033,-0.003 c 3.231,-0.288 6.465,-0.678 9.715,-1.146 h 0.017 c 2.161,-0.275 4.291,-0.679 6.408,-1.203 l 0.172,-0.425 c 0.017,-0.034 0.017,-0.065 0.034,-0.084 0.71,-2.026 1.024,-3.93 0.939,-5.708 -0.035,-0.773 -0.154,-1.5 -0.324,-2.193 0,-0.017 0.001,-0.032 -0.015,-0.05 -0.249,-0.858 -0.597,-1.656 -1.061,-2.405 v -0.016 c -0.208,-0.347 -0.449,-0.683 -0.723,-0.982 -0.334,-0.712 -0.748,-1.545 -1.242,-2.489 -0.398,-0.749 -0.765,-1.414 -1.1,-1.994 -0.24,-0.447 -0.479,-0.849 -0.688,-1.196 -0.144,-0.232 -0.271,-0.45 -0.4,-0.632 0.065,0.034 0.13,0.067 0.212,0.119 0.375,0.221 0.701,0.39 0.978,0.544 0.228,0.183 0.47,0.401 0.746,0.654 0.049,0.032 0.081,0.066 0.113,0.101 l 0.017,0.018 c 0.728,0.719 1.457,1.39 2.203,2.011 0.861,0.725 1.587,1.559 2.146,2.506 h -0.016 c 0.592,0.949 1.035,1.976 1.362,3.065 l 0.015,0.068 c 0.216,0.843 0.348,1.75 0.414,2.721 0.111,2.143 -0.258,4.421 -1.14,6.841 l -0.018,0.077 -0.017,0.033 -0.67,1.567 c -0.414,0.125 -0.728,0.252 -0.945,0.396 l -0.131,-0.07 c -2.298,0.57 -4.593,1.022 -6.92,1.328 l 0.016,0.002 c -3.284,0.469 -6.583,0.854 -9.865,1.161 h -0.015 c -3.215,0.222 -6.425,0.248 -9.648,0.077 -2.748,-0.063 -5.212,-0.387 -7.375,-0.968 -7.537,-1.989 -11.814,-5.091 -12.826,-9.305 l -0.001,0.016 v 0.004 z"
         id="path641"
         style="fill:#9e0c27" />
      <path
         d="m 154.151,713.611 c -0.703,-3.105 1.435,-5.848 6.398,-8.213 h 0.017 c 2.721,-1.286 7.328,-2.077 13.803,-2.376 0.692,-0.038 1.4,-0.076 2.125,-0.096 l 0.032,0.052 c 0.247,-0.014 0.593,-0.023 1.038,-0.049 0.213,-0.013 0.429,-0.043 0.676,-0.053 0.775,-0.085 1.17,-0.128 1.187,-0.128 1.904,0.329 3.299,0.567 4.202,0.699 0.525,0.09 0.887,0.146 1.067,0.165 l 0.002,-0.049 c -0.131,-0.054 -0.261,-0.12 -0.393,-0.172 -0.587,-0.29 -1.141,-0.58 -1.68,-0.836 0.411,-0.026 0.823,-0.066 1.252,-0.107 2.327,-0.273 4.008,-0.441 5.031,-0.539 2.127,-0.209 3.624,-0.185 4.459,0.061 0.209,0.35 0.448,0.749 0.688,1.196 0.335,0.582 0.702,1.248 1.1,1.994 0.494,0.946 0.908,1.777 1.243,2.489 0.273,0.3 0.514,0.636 0.722,0.982 v 0.016 c 0.464,0.751 0.812,1.547 1.061,2.405 0.016,0.018 0.015,0.033 0.015,0.051 0.17,0.692 0.289,1.419 0.324,2.193 0.085,1.777 -0.228,3.683 -0.939,5.707 -0.016,0.019 -0.017,0.05 -0.034,0.084 l -0.172,0.425 c -2.117,0.523 -4.246,0.928 -6.408,1.202 h -0.017 c -3.25,0.472 -6.484,0.859 -9.715,1.147 l 0.033,0.003 c -3.116,0.225 -6.226,0.238 -9.352,0.068 l -0.049,-0.002 c -2.517,-0.062 -4.784,-0.363 -6.768,-0.875 -6.29,-1.668 -9.934,-4.152 -10.948,-7.444"
         id="path643"
         style="fill:#d82d1b" />
      <path
         d="m 188.438,676.943 c 0.198,0.081 0.379,0.149 0.543,0.214 l -0.411,0.114 8.729,31.328 c -0.312,0.033 -0.708,0.049 -1.185,0.049 -0.478,0 -2.488,-0.593 -6.012,-1.778 -0.263,-0.08 -1.153,-0.327 -2.652,-0.771 -0.05,-0.051 -0.099,-0.082 -0.148,-0.115 -0.923,-0.676 -2.01,-1.318 -3.244,-1.927 -0.083,-0.05 -0.183,-0.083 -0.264,-0.115 l -5.139,-27.278 -0.477,0.084 c 0.231,-1.399 2.256,-1.729 6.06,-0.957 1.45,0.281 2.85,0.674 4.2,1.152"
         id="path645"
         style="fill:#d82d1b" />
      <polygon
         points="191.107,676.564 200.049,708.683 197.513,709.391 197.299,708.6 188.57,677.271 188.981,677.157 "
         id="polygon647"
         style="fill:#9e0c27" />
      <path
         d="m 178.178,676.747 0.478,-0.084 5.138,27.278 c -1.136,-0.544 -2.092,-0.89 -2.882,-1.037 l -4.859,-25.762 2.125,-0.395 z"
         id="path649"
         style="fill:#9e0c27" />
      <path
         d="m 187.091,631.959 c -0.899,0.309 -1.725,0.735 -2.464,1.304 -0.788,0.598 -1.617,1.258 -2.485,1.996 -0.513,0.438 -0.939,0.815 -1.244,1.123 -0.089,0.074 -0.176,0.15 -0.266,0.241 -2.59,2.68 -4.773,6.266 -6.55,10.76 -1.853,4.635 -3.391,8.816 -4.629,12.544 -0.017,0.016 -0.02,0.047 -0.022,0.082 -2.831,7.162 -1.669,13.506 3.484,19.027 4.809,5.083 11.192,8.013 19.165,8.793 8.104,0.795 14.427,-1.11 18.95,-5.698 5.2,-5.441 6.422,-13.526 3.644,-24.232 -0.792,-3.097 -1.88,-6.418 -3.25,-9.938 -1.491,-3.862 -2.734,-6.898 -3.749,-9.072 -0.11,-0.486 -0.355,-1.133 -0.738,-1.937 -0.612,-1.204 -0.954,-1.893 -1.022,-2.078 -0.242,-0.481 -0.443,-0.843 -0.607,-1.07 -0.28,-0.419 -0.764,-0.769 -1.419,-1.038 -1.772,-0.749 -5.649,-1.372 -11.667,-1.833 -2.232,0.265 -3.943,0.609 -5.131,1.026 m 3.404,0.139 0.269,-0.061 -0.006,0.082 c -0.082,-0.008 -0.18,-0.016 -0.263,-0.021"
         id="path651"
         style="fill:#d82d1b" />
      <path
         d="m 198.377,697.488 c 0.566,-2.413 1.728,-4.174 3.458,-5.297 2.203,-1.415 5.379,-1.479 9.55,-0.17 2.063,0.65 3.933,1.432 5.581,2.367 7.968,4.345 12.913,9.098 14.861,14.277 2.08,5.58 1.48,9.748 -1.789,12.507 -1.612,1.376 -3.657,2.17 -6.124,2.396 -2.421,0.236 -5.195,-0.092 -8.32,-0.983 -2.989,-0.837 -6.161,-2.849 -9.55,-6.018 -3.55,-3.336 -5.859,-6.663 -6.951,-9.975 -1.114,-3.401 -1.358,-6.423 -0.716,-9.104"
         id="path653"
         style="fill:#d82d1b" />
      <path
         d="m 199.093,706.592 c -1.115,-3.4 -1.358,-6.423 -0.716,-9.104 0.566,-2.413 1.727,-4.174 3.458,-5.297"
         id="path655"
         style="fill:none;stroke:#9e0c27;stroke-width:2.95300007;stroke-linejoin:round;stroke-miterlimit:10" />
      <path
         d="m 201.835,692.191 c 2.203,-1.415 5.379,-1.479 9.55,-0.17 2.063,0.65 3.933,1.432 5.581,2.367 7.968,4.345 12.913,9.098 14.861,14.277 2.08,5.58 1.48,9.745 -1.789,12.507 -1.612,1.376 -3.657,2.17 -6.124,2.396 -2.421,0.236 -5.195,-0.092 -8.32,-0.983 -2.989,-0.837 -6.161,-2.849 -9.55,-6.018 -3.55,-3.336 -5.859,-6.663 -6.951,-9.976"
         id="path657"
         style="fill:none;stroke:#9e0c27;stroke-width:2.95300007;stroke-linecap:square;stroke-miterlimit:10" />
      <path
         d="m 214.609,681.269 c 1.961,2.239 3.081,4.66 3.345,7.262 0.28,2.617 -0.313,5.069 -1.797,7.323 -0.312,0.478 -0.642,0.921 -1.021,1.366 -0.147,0.132 -0.312,0.281 -0.477,0.429 -0.428,0.346 -1.054,0.741 -1.861,1.186 -1.301,0.725 -2.373,1.086 -3.179,1.086 -0.312,0 -0.609,-0.016 -0.889,-0.032 l -0.181,-0.411 c 0.033,-0.017 0.065,-0.017 0.081,-0.017 0.462,-0.1 0.907,-0.247 1.335,-0.428 1.169,-0.544 2.207,-1.498 3.081,-2.851 0.444,-0.689 0.805,-1.381 1.085,-2.072 1.005,-1.646 1.401,-3.407 1.204,-5.303 -0.231,-2.088 -1.137,-4.015 -2.703,-5.809 h -0.016 c -0.279,-0.33 -0.592,-0.643 -0.904,-0.956 -0.199,-0.214 -0.413,-0.443 -0.627,-0.658 -1.071,-1.07 -2.339,-2.107 -3.772,-3.078 -0.213,-0.148 -0.411,-0.279 -0.625,-0.412 -0.28,-0.181 -0.578,-0.379 -0.874,-0.561 l 0.132,-0.329 c 1.087,0.165 1.829,0.297 2.207,0.379 0.56,0.149 1.466,0.479 2.734,1.022 0.297,0.13 1.055,0.593 2.289,1.398 0.512,0.462 0.989,0.955 1.433,1.466"
         id="path659"
         style="fill:#9e0c27" />
      <path
         d="m 212.617,682.998 h 0.016 c 1.566,1.794 2.472,3.721 2.702,5.809 0.198,1.896 -0.198,3.656 -1.203,5.303 -0.28,0.691 -0.641,1.383 -1.086,2.072 -0.873,1.353 -1.911,2.307 -3.08,2.851 -0.429,0.181 -0.873,0.328 -1.335,0.428 -0.938,-0.196 -2.058,-0.592 -3.392,-1.203 -2.487,-1.137 -3.772,-2.483 -3.822,-4.049 0.281,-0.164 0.56,-0.33 0.808,-0.479 1.465,-0.938 2.305,-1.939 2.503,-3.026 0.38,-1.07 0.165,-2.092 -0.625,-3.062 -0.281,-0.181 -0.61,-0.377 -0.956,-0.56 -0.297,-0.149 -0.577,-0.281 -0.823,-0.38 -0.265,-0.113 -0.512,-0.181 -0.742,-0.228 v -0.051 c 0,-0.774 1.005,-2.684 2.998,-5.695 0.906,-1.367 1.614,-2.321 2.108,-2.833 0.215,0.133 0.412,0.264 0.626,0.412 1.433,0.971 2.701,2.008 3.772,3.078 0.213,0.215 0.427,0.444 0.625,0.658 0.313,0.312 0.626,0.625 0.906,0.955"
         id="path661"
         style="fill:#d82d1b" />
      <path
         d="m 201.582,686.473 c 0.23,0.048 0.478,0.114 0.741,0.229 0.246,0.098 0.527,0.229 0.823,0.379 0.347,0.183 0.676,0.379 0.957,0.56 0.79,0.971 1.004,1.992 0.625,3.062 -0.198,1.087 -1.038,2.089 -2.503,3.027 -0.248,0.148 -0.528,0.314 -0.807,0.479 -0.643,0.33 -1.368,0.659 -2.192,0.988 l -0.608,-1.565 c 0.131,-0.147 0.296,-0.312 0.477,-0.51 0.592,-0.676 0.939,-1.072 1.054,-1.185 0.05,-0.048 0.116,-0.082 0.164,-0.132 1.006,-0.577 1.631,-1.168 1.862,-1.763 0.016,-0.445 -0.247,-0.89 -0.823,-1.365 -0.331,-0.413 -0.841,-0.823 -1.549,-1.218 -0.148,-0.083 -0.28,-0.147 -0.412,-0.215 l 0.281,-0.559 c 0.378,-0.182 0.872,-0.264 1.498,-0.264 0.133,10e-4 0.264,0.017 0.412,0.052"
         id="path663"
         style="fill:#9e0c27" />
      <path
         d="m 212.669,643.933 c -0.028,0.025 -0.04,0.056 -0.069,0.078 -1.331,-0.688 -3.275,-1.285 -5.824,-1.769 -3.316,-0.66 -5.906,-0.804 -7.762,-0.414 -2.208,0.417 -3.671,1.266 -4.379,2.515 -0.748,1.181 -1.059,2.549 -0.942,4.086 l -0.008,-0.021 c 0.124,1.687 0.896,2.954 2.346,3.782 0.09,0.042 0.18,0.08 0.256,0.113 0.111,0.032 0.201,0.071 0.314,0.101 -0.586,0.193 -1.2,0.407 -1.864,0.656 -3.818,1.435 -5.664,3.568 -5.524,6.369 0.029,2.845 1.402,4.752 4.093,5.692 0.607,0.213 1.227,0.394 1.852,0.521 -0.023,0.011 -0.051,0.034 -0.063,0.064 -1.054,1.098 -1.293,2.176 -0.73,3.228 0.966,3.289 3.651,4.818 8.059,4.573 -0.443,0.935 -0.242,2.117 0.627,3.535 1.557,2.633 3.853,3.49 6.858,2.562 0.775,-0.254 1.531,-0.55 2.285,-0.92 1.693,-0.837 3.316,-2.013 4.879,-3.498 2.384,-2.294 4.13,-4.774 5.235,-7.429 1.677,-4.085 1.818,-8.595 0.448,-13.545 0.035,-0.04 0.064,-0.062 0.091,-0.085 -0.039,-0.073 -0.081,-0.144 -0.109,-0.245 -0.088,-0.164 -0.157,-0.337 -0.232,-0.532 -0.02,-0.08 -0.053,-0.167 -0.079,-0.231 -0.123,-0.251 -0.253,-0.487 -0.398,-0.729 -0.153,-0.265 -0.293,-0.521 -0.429,-0.742 -0.67,-1.135 -1.286,-1.942 -1.833,-2.412 -0.256,-0.239 -0.635,-0.601 -1.146,-1.11 -0.133,-0.147 -0.273,-0.28 -0.382,-0.398 -0.116,-0.105 -0.224,-0.187 -0.324,-0.285 -0.563,-0.517 -1.139,-0.964 -1.742,-1.352 -0.229,-0.17 -0.458,-0.343 -0.688,-0.517 -0.137,-0.094 -0.275,-0.189 -0.404,-0.264 -0.335,-0.219 -0.677,-0.421 -1.025,-0.609 -0.363,-0.193 -0.681,-0.367 -0.948,-0.538 -0.015,-0.007 -0.015,-0.007 -0.03,-0.014 -0.165,-0.074 -0.309,-0.154 -0.409,-0.216 m -2.026,2.181 c 0.383,0.148 0.736,0.286 1.044,0.401 0.317,0.138 0.566,0.265 0.77,0.371 0.099,0.062 0.205,0.108 0.273,0.155 0.182,0.116 0.299,0.219 0.347,0.314 0.022,-0.011 0.035,-0.04 0.057,-0.05 0.12,0.053 0.3,0.133 0.55,0.26 0.092,0.075 0.215,0.164 0.337,0.254 1.966,1.448 3.069,2.253 3.277,2.433 0.36,0.282 0.951,1.024 1.802,2.237 0.166,0.235 0.324,0.447 0.476,0.675 0.095,0.149 0.177,0.293 0.249,0.412 -0.029,0.025 -0.057,0.048 -0.086,0.071 0.036,0.087 0.07,0.172 0.089,0.253 0.12,0.339 0.226,0.673 0.332,1.007 0.088,0.288 0.176,0.578 0.243,0.874 0.007,-0.014 0.019,-0.044 0.043,-0.052 0.121,0.5 0.213,0.986 0.305,1.476 0.071,0.373 0.134,0.759 0.199,1.145 0.833,5.685 -0.869,10.568 -5.123,14.645 -1.52,1.468 -3.133,2.575 -4.83,3.338 -0.015,-0.005 -0.015,-0.005 -0.02,0.012 -0.439,0.184 -0.872,0.354 -1.314,0.501 -0.774,0.254 -1.429,0.398 -1.97,0.448 -0.925,0.062 -1.539,-0.17 -1.846,-0.7 -0.091,-0.163 -0.186,-0.312 -0.261,-0.471 -0.321,-0.659 -0.5,-1.274 -0.516,-1.856 -0.049,-1.077 0.424,-2.037 1.426,-2.852 0.816,-0.435 1.509,-0.829 2.088,-1.168 0.021,-0.009 0.027,-0.026 0.05,-0.031 0.534,-0.323 0.976,-0.597 1.317,-0.843 -0.273,0.134 -0.604,0.273 -1,0.443 -0.13,0.048 -0.26,0.101 -0.405,0.145 -0.028,0.025 -0.071,0.041 -0.108,0.041 -1.393,0.523 -2.795,0.86 -4.244,1.017 -2.479,0.297 -4.347,0.02 -5.599,-0.848 -0.756,-0.527 -1.28,-1.258 -1.571,-2.192 -0.057,-0.114 -0.093,-0.237 -0.129,-0.361 -0.202,-0.893 0.409,-1.755 1.827,-2.623 0.421,-0.265 0.936,-0.541 1.534,-0.801 3.193,-1.115 5.078,-1.815 5.665,-2.096 -1.97,0.447 -3.71,0.781 -5.179,0.982 -1.652,0.211 -2.988,0.272 -4.029,0.193 -1.197,-0.091 -2.175,-0.356 -2.934,-0.793 -1.131,-0.657 -1.765,-1.705 -1.929,-3.138 -0.026,-0.226 -0.037,-0.446 -0.043,-0.681 -0.013,-1.242 1.546,-2.517 4.722,-3.836 2.919,-1.18 4.894,-1.681 5.913,-1.469 -0.714,-0.293 -1.371,-0.598 -1.97,-0.948 -0.674,-0.384 -1.294,-0.815 -1.853,-1.257 -0.131,-0.113 -0.262,-0.222 -0.378,-0.327 -0.377,-0.324 -0.703,-0.646 -0.962,-0.957 -0.943,-1.164 -1.098,-2.288 -0.493,-3.388 0.054,-0.082 0.109,-0.165 0.156,-0.234 1.226,-1.776 4.143,-2.26 8.755,-1.448 1.737,0.294 3.392,0.728 4.946,1.317 m -13.954,-0.068 c 0.061,-0.098 0.106,-0.204 0.167,-0.303 0.097,-0.137 0.223,-0.261 0.363,-0.379 -0.201,0.217 -0.374,0.446 -0.53,0.682"
         id="path665"
         style="fill:#9e0c27" />
      <path
         d="m 211.686,646.516 c -0.308,-0.116 -0.66,-0.253 -1.044,-0.401 -1.553,-0.589 -3.208,-1.023 -4.946,-1.316 -4.612,-0.812 -7.529,-0.328 -8.754,1.447 -0.048,0.07 -0.102,0.153 -0.156,0.235 -0.606,1.1 -0.451,2.223 0.492,3.388 0.259,0.311 0.585,0.633 0.962,0.957 0.116,0.105 0.247,0.214 0.378,0.327 0.56,0.441 1.178,0.872 1.853,1.257 0.6,0.351 1.256,0.655 1.97,0.948 -1.019,-0.212 -2.994,0.289 -5.913,1.469 -3.175,1.319 -4.735,2.594 -4.722,3.835 0.006,0.235 0.018,0.456 0.044,0.682 0.163,1.433 0.798,2.48 1.929,3.138 0.759,0.437 1.736,0.702 2.933,0.793 1.041,0.079 2.377,0.018 4.029,-0.193 1.469,-0.201 3.21,-0.535 5.18,-0.982 -0.588,0.28 -2.473,0.982 -5.666,2.096 -0.597,0.26 -1.112,0.536 -1.533,0.801 -1.419,0.868 -2.03,1.73 -1.828,2.623 0.036,0.124 0.072,0.247 0.13,0.361 0.291,0.934 0.815,1.665 1.571,2.192 1.252,0.866 3.12,1.145 5.599,0.848 1.448,-0.156 2.851,-0.493 4.243,-1.017 0.037,0 0.081,-0.016 0.109,-0.041 0.144,-0.044 0.275,-0.097 0.405,-0.145 0.395,-0.17 0.727,-0.31 0.999,-0.443 -0.34,0.246 -0.783,0.52 -1.317,0.843 -0.022,0.005 -0.029,0.022 -0.05,0.031 -0.579,0.339 -1.272,0.733 -2.087,1.168 -1.003,0.814 -1.476,1.774 -1.426,2.852 0.015,0.582 0.195,1.197 0.516,1.856 0.074,0.158 0.17,0.308 0.261,0.471 0.306,0.53 0.921,0.763 1.846,0.7 0.541,-0.05 1.196,-0.194 1.97,-0.448 0.441,-0.147 0.874,-0.317 1.314,-0.501 0.005,-0.017 0.005,-0.017 0.02,-0.012 1.696,-0.763 3.309,-1.87 4.829,-3.339 4.254,-4.075 5.957,-8.959 5.123,-14.644 -0.064,-0.386 -0.128,-0.772 -0.199,-1.145 -0.091,-0.489 -0.183,-0.976 -0.305,-1.476 -0.024,0.008 -0.035,0.038 -0.042,0.052 -0.068,-0.296 -0.155,-0.586 -0.243,-0.874 -0.106,-0.334 -0.212,-0.668 -0.332,-1.007 -0.019,-0.081 -0.053,-0.166 -0.089,-0.253 0.029,-0.023 0.056,-0.046 0.086,-0.071 -0.073,-0.119 -0.154,-0.263 -0.25,-0.412 -0.151,-0.228 -0.31,-0.439 -0.476,-0.675 -0.85,-1.213 -1.442,-1.955 -1.802,-2.237 -0.208,-0.18 -1.31,-0.984 -3.277,-2.433 -0.123,-0.09 -0.244,-0.179 -0.337,-0.254 -0.249,-0.127 -0.43,-0.207 -0.55,-0.26 -0.023,0.01 -0.034,0.039 -0.056,0.05 -0.049,-0.096 -0.165,-0.198 -0.348,-0.314 -0.069,-0.048 -0.174,-0.094 -0.273,-0.155 -0.204,-0.108 -0.453,-0.235 -0.77,-0.372"
         id="path667"
         style="fill:#d82d1b" />
      <path
         d="m 232.192,648.56 v 0.018 c -1.482,3.373 -4.248,7.078 -8.301,11.077 l -0.939,0.924 -1.843,-1.861 0.525,-0.541 0.395,-0.396 c 0.38,-0.363 0.726,-0.726 1.071,-1.071 3.196,-3.308 5.419,-6.389 6.687,-9.203 h -0.015 c 1.201,-2.749 1.334,-5.019 0.361,-6.831 v -0.016 c -1.103,-1.846 -3.31,-3.078 -6.604,-3.688 -3.179,-0.609 -7.149,-0.66 -11.876,-0.116 0,-0.016 0,-0.016 -0.016,0 -0.527,0.05 -1.07,0.116 -1.631,0.198 -0.494,0.065 -1.004,0.132 -1.515,0.215 l -1.301,0.198 -0.065,-0.429 -0.331,-2.173 1.302,-0.198 c 6.523,-1.004 11.827,-1.085 15.928,-0.282 4.265,0.81 7.065,2.471 8.399,4.99 1.466,2.436 1.384,5.497 -0.231,9.185"
         id="path669"
         style="fill:#9e0c27" />
      <path
         d="m 230.133,640.659 v 0.016 c 0.973,1.812 0.84,4.082 -0.361,6.831 h 0.015 c -1.268,2.814 -3.491,5.896 -6.687,9.203 -0.345,0.347 -0.691,0.708 -1.071,1.071 l -0.395,0.396 c -0.212,0 -0.41,0 -0.625,-0.019 -0.033,-0.18 -0.066,-0.328 -0.116,-0.476 -0.247,-0.825 -0.988,-2.29 -2.223,-4.38 -0.905,-1.549 -2.058,-2.848 -3.426,-3.919 v -0.049 c 0,-0.083 -0.099,-0.213 -0.28,-0.429 l 7.56,-5.517 -1.563,-2.138 -5.849,4.281 c -3.113,-1.5 -5.122,-2.521 -5.994,-3.063 -0.874,-0.559 -1.434,-1.433 -1.696,-2.601 -0.215,-0.906 -0.314,-1.662 -0.314,-2.238 0,-0.231 0,-0.43 0.017,-0.593 l 0.065,0.429 1.301,-0.198 c 0.511,-0.083 1.021,-0.149 1.516,-0.215 0.56,-0.082 1.104,-0.148 1.63,-0.198 0.017,-0.016 0.017,-0.016 0.017,0 4.727,-0.544 8.696,-0.493 11.875,0.116 3.294,0.611 5.501,1.844 6.604,3.69"
         id="path671"
         style="fill:#d82d1b" />
      <path
         d="m 222.523,643.389 -7.56,5.517 c -0.082,-0.1 -0.197,-0.214 -0.345,-0.362 -0.444,-0.444 -0.906,-0.839 -1.384,-1.169 -0.115,-0.082 -0.231,-0.165 -0.346,-0.214 l 2.223,-1.628 5.849,-4.281 1.563,2.137 z"
         id="path673"
         style="fill:#9e0c27" />
      <path
         d="m 204.308,653.433 v 0.082 c -0.032,-0.016 -0.066,-0.016 -0.099,-0.016 l 0.099,-0.066 z"
         id="path675"
         style="fill:#9e0c27" />
      <path
         d="m 168.249,653.624 c 0.016,0.032 0.013,0.065 0.029,0.097 1.493,-0.031 3.495,0.287 5.989,0.969 3.257,0.863 5.638,1.869 7.128,3.032 1.793,1.339 2.732,2.741 2.817,4.169 0.152,1.383 -0.17,2.744 -0.95,4.07 l 0.017,-0.016 c -0.85,1.453 -2.098,2.251 -3.758,2.358 -0.098,-0.005 -0.197,-0.009 -0.278,-0.012 -0.116,-0.021 -0.213,-0.024 -0.326,-0.046 0.44,0.427 0.895,0.889 1.38,1.403 2.788,2.954 3.505,5.673 2.152,8.12 -1.276,2.533 -3.341,3.639 -6.161,3.301 -0.637,-0.077 -1.271,-0.185 -1.886,-0.344 0.015,0.017 0.029,0.049 0.028,0.084 0.461,1.443 0.201,2.515 -0.764,3.209 -2.308,2.519 -5.381,2.714 -9.221,0.562 -0.012,1.032 -0.71,2.002 -2.11,2.889 -2.548,1.676 -4.981,1.438 -7.263,-0.709 -0.581,-0.568 -1.129,-1.164 -1.64,-1.826 -1.148,-1.49 -2.087,-3.253 -2.834,-5.268 -1.127,-3.098 -1.602,-6.082 -1.427,-8.94 0.291,-4.396 2.143,-8.489 5.542,-12.322 -0.015,-0.052 -0.03,-0.085 -0.045,-0.116 0.068,-0.049 0.136,-0.094 0.205,-0.174 0.151,-0.106 0.288,-0.232 0.442,-0.373 0.052,-0.064 0.121,-0.126 0.171,-0.173 0.222,-0.17 0.441,-0.325 0.678,-0.476 0.253,-0.171 0.49,-0.34 0.709,-0.479 1.097,-0.723 2.003,-1.175 2.698,-1.358 0.333,-0.098 0.831,-0.258 1.514,-0.49 0.184,-0.072 0.366,-0.13 0.516,-0.189 0.15,-0.043 0.282,-0.067 0.415,-0.111 0.731,-0.214 1.442,-0.363 2.15,-0.446 0.282,-0.054 0.563,-0.107 0.844,-0.159 0.165,-0.027 0.33,-0.053 0.477,-0.062 0.396,-0.048 0.791,-0.079 1.185,-0.098 0.411,-0.014 0.771,-0.031 1.085,-0.067 0.016,0.003 0.016,0.003 0.033,0.005 0.18,0.007 0.343,-0.005 0.459,-0.014 m 0.858,2.838 c -0.408,-0.033 -0.783,-0.068 -1.109,-0.098 -0.344,-0.014 -0.623,-0.011 -0.852,-0.005 -0.116,0.013 -0.23,0.007 -0.313,0.019 -0.215,0.024 -0.363,0.068 -0.448,0.128 -0.016,-0.017 -0.015,-0.05 -0.03,-0.066 -0.131,-0.004 -0.328,-0.015 -0.605,-0.01 -0.118,0.026 -0.266,0.055 -0.415,0.08 -2.396,0.436 -3.734,0.672 -3.998,0.743 -0.448,0.095 -1.301,0.498 -2.595,1.212 -0.251,0.137 -0.487,0.256 -0.722,0.395 -0.152,0.092 -0.288,0.184 -0.405,0.262 0.015,0.032 0.03,0.066 0.044,0.099 -0.067,0.062 -0.136,0.126 -0.189,0.19 -0.257,0.25 -0.496,0.5 -0.737,0.751 -0.206,0.223 -0.413,0.441 -0.603,0.68 0.001,-0.016 0.002,-0.05 -0.014,-0.065 -0.328,0.396 -0.625,0.791 -0.922,1.188 -0.225,0.301 -0.453,0.618 -0.68,0.936 -3.24,4.724 -3.858,9.842 -1.838,15.35 0.717,1.984 1.674,3.679 2.857,5.107 0.016,0 0.016,0 0.016,0.017 0.311,0.356 0.625,0.699 0.954,1.024 0.582,0.567 1.105,0.983 1.567,1.267 0.799,0.459 1.453,0.521 1.959,0.183 0.154,-0.108 0.305,-0.202 0.44,-0.309 0.578,-0.449 1.008,-0.922 1.277,-1.435 0.517,-0.943 0.514,-2.009 -0.024,-3.179 -0.542,-0.746 -0.988,-1.404 -1.357,-1.96 -0.016,-0.016 -0.014,-0.033 -0.031,-0.054 -0.337,-0.521 -0.613,-0.959 -0.81,-1.326 0.186,0.237 0.42,0.509 0.701,0.835 0.094,0.102 0.188,0.204 0.298,0.306 0.015,0.034 0.046,0.066 0.078,0.086 1.019,1.076 2.126,1.992 3.354,2.766 2.088,1.354 3.882,1.925 5.383,1.695 0.908,-0.139 1.697,-0.564 2.367,-1.272 0.103,-0.078 0.189,-0.173 0.275,-0.266 0.572,-0.711 0.404,-1.752 -0.484,-3.148 -0.261,-0.423 -0.6,-0.897 -1.021,-1.391 -2.37,-2.396 -3.748,-3.852 -4.153,-4.358 1.569,1.265 2.98,2.324 4.206,3.148 1.386,0.913 2.555,1.555 3.52,1.939 1.112,0.442 2.104,0.634 2.975,0.574 1.299,-0.091 2.328,-0.75 3.103,-1.961 0.123,-0.191 0.229,-0.384 0.337,-0.593 0.557,-1.104 -0.281,-2.927 -2.544,-5.501 -2.095,-2.337 -3.643,-3.648 -4.648,-3.904 0.768,0.05 1.488,0.065 2.179,0.012 0.773,-0.048 1.515,-0.161 2.21,-0.312 0.166,-0.041 0.332,-0.082 0.482,-0.125 0.48,-0.127 0.913,-0.271 1.281,-0.436 1.354,-0.63 1.986,-1.568 1.926,-2.814 -0.011,-0.099 -0.023,-0.197 -0.036,-0.282 -0.317,-2.126 -2.716,-3.835 -7.2,-5.131 -1.682,-0.5 -3.357,-0.837 -5.006,-0.987 v -0.004 z m 12.52,6.053 c -0.011,-0.116 -0.006,-0.229 -0.017,-0.345 -0.026,-0.164 -0.084,-0.331 -0.159,-0.498 0.087,0.281 0.139,0.563 0.176,0.843"
         id="path677"
         style="fill:#9e0c27" />
      <path
         d="m 167.998,656.364 c 0.326,0.029 0.701,0.064 1.109,0.098 1.649,0.152 3.323,0.49 5.006,0.989 4.483,1.296 6.883,3.005 7.199,5.131 0.014,0.085 0.026,0.184 0.037,0.282 0.06,1.246 -0.572,2.185 -1.926,2.814 -0.368,0.165 -0.801,0.309 -1.281,0.436 -0.15,0.043 -0.316,0.084 -0.482,0.125 -0.695,0.151 -1.437,0.265 -2.21,0.313 -0.691,0.053 -1.411,0.037 -2.18,-0.013 1.006,0.256 2.554,1.567 4.649,3.904 2.263,2.574 3.1,4.398 2.544,5.501 -0.108,0.209 -0.215,0.401 -0.338,0.593 -0.774,1.211 -1.803,1.87 -3.102,1.961 -0.871,0.06 -1.863,-0.132 -2.975,-0.573 -0.966,-0.386 -2.134,-1.027 -3.52,-1.94 -1.226,-0.823 -2.639,-1.886 -4.206,-3.148 0.405,0.507 1.782,1.962 4.153,4.358 0.421,0.493 0.76,0.968 1.021,1.391 0.888,1.396 1.056,2.438 0.483,3.148 -0.085,0.094 -0.171,0.188 -0.274,0.266 -0.67,0.708 -1.459,1.135 -2.367,1.272 -1.501,0.229 -3.296,-0.341 -5.383,-1.694 -1.228,-0.774 -2.335,-1.69 -3.354,-2.767 -0.032,-0.02 -0.063,-0.052 -0.079,-0.086 -0.109,-0.102 -0.203,-0.204 -0.297,-0.309 -0.281,-0.323 -0.515,-0.595 -0.701,-0.832 0.197,0.368 0.473,0.806 0.81,1.327 0.017,0.02 0.015,0.037 0.031,0.053 0.369,0.556 0.815,1.214 1.356,1.961 0.539,1.169 0.542,2.234 0.025,3.178 -0.269,0.513 -0.699,0.985 -1.277,1.435 -0.136,0.106 -0.286,0.2 -0.44,0.309 -0.506,0.339 -1.16,0.276 -1.959,-0.183 -0.462,-0.283 -0.985,-0.699 -1.567,-1.267 -0.329,-0.325 -0.643,-0.668 -0.954,-1.024 0,-0.017 0,-0.017 -0.016,-0.017 -1.183,-1.429 -2.14,-3.123 -2.857,-5.107 -2.02,-5.508 -1.402,-10.626 1.838,-15.35 0.227,-0.317 0.455,-0.635 0.68,-0.936 0.297,-0.397 0.594,-0.792 0.922,-1.188 0.016,0.016 0.014,0.05 0.014,0.065 0.19,-0.238 0.397,-0.456 0.603,-0.679 0.24,-0.251 0.48,-0.501 0.737,-0.752 0.053,-0.064 0.122,-0.128 0.189,-0.19 -0.014,-0.032 -0.029,-0.066 -0.044,-0.099 0.117,-0.078 0.253,-0.17 0.404,-0.262 0.236,-0.139 0.471,-0.258 0.723,-0.395 1.294,-0.714 2.147,-1.117 2.595,-1.212 0.264,-0.071 1.602,-0.308 3.998,-0.742 0.149,-0.026 0.297,-0.055 0.414,-0.081 0.278,-0.004 0.475,0.006 0.606,0.01 0.015,0.017 0.014,0.05 0.029,0.066 0.085,-0.06 0.234,-0.104 0.449,-0.128 0.082,-0.012 0.197,-0.006 0.313,-0.019 0.229,-0.003 0.508,-0.008 0.852,0.007"
         id="path679"
         style="fill:#d82d1b" />
      <path
         d="m 178.615,635.034 1.236,-0.081 h 0.082 l 0.181,2.617 -1.317,0.1 c -0.758,0.049 -1.498,0.114 -2.224,0.197 -0.28,0.017 -0.544,0.05 -0.823,0.081 -0.281,0.034 -0.544,0.068 -0.824,0.099 -7.445,0.971 -12.863,3.128 -16.24,6.47 -3.64,3.754 -4.759,9.021 -3.343,15.82 0.048,0.165 0.083,0.329 0.115,0.511 l 0.198,0.873 0.017,0.099 c -0.148,0.132 -0.264,0.261 -0.347,0.396 l -2.157,0.492 -0.281,-1.283 c -1.827,-8.115 -0.509,-14.372 3.92,-18.77 4.25,-4.361 11.513,-6.895 21.807,-7.621"
         id="path681"
         style="fill:#9e0c27" />
      <path
         d="m 179.851,634.953 c 0.149,-0.477 0.379,-0.691 0.692,-0.658 0.61,0.047 0.906,0.971 0.906,2.749 0,0.016 -0.034,0.214 -0.083,0.576 -0.049,0.148 -0.131,0.264 -0.213,0.347 0.082,0.264 0.131,0.575 0.131,0.938 0,0.047 -0.626,1.217 -1.893,3.504 -1.055,1.58 -2.043,2.618 -2.981,3.097 l -0.183,-0.578 -1.251,0.38 c -0.198,0.05 -0.395,0.115 -0.593,0.182 -0.148,0.05 -0.296,0.081 -0.445,0.131 -5.401,1.76 -8.811,3.902 -10.244,6.454 -0.972,1.531 -1.252,3.192 -0.824,4.973 -0.312,0.229 -0.922,0.706 -1.86,1.432 -1.038,0.804 -1.73,1.332 -2.109,1.579 -0.445,0.296 -1.235,0.691 -2.372,1.201 -0.28,0.149 -0.526,0.297 -0.724,0.462 h -0.148 l -0.198,-0.873 c -0.033,-0.182 -0.067,-0.346 -0.116,-0.511 -1.417,-6.799 -0.296,-12.065 3.344,-15.82 3.377,-3.342 8.795,-5.499 16.24,-6.47 0.279,-0.03 0.543,-0.064 0.824,-0.099 0.279,-0.031 0.543,-0.064 0.822,-0.081 0.726,-0.083 1.467,-0.148 2.224,-0.197 l 1.318,-0.1 -0.181,-2.617 h -0.083 z m -0.46,3.965 c -0.083,-0.112 -0.215,-0.161 -0.396,-0.161 l 0.313,0.327 c 0.033,-0.018 0.05,-0.049 0.065,-0.098 l 0.018,-0.068 z"
         id="path683"
         style="fill:#d82d1b" />
      <path
         d="m 176.409,645.506 0.576,1.942 -1.252,0.378 c -5.139,1.548 -8.4,3.409 -9.783,5.582 -0.461,0.871 -0.61,1.826 -0.445,2.829 -0.642,0.018 -1.466,0.248 -2.471,0.692 -0.048,0.033 -0.099,0.067 -0.164,0.117 -0.428,-1.78 -0.148,-3.442 0.824,-4.973 1.432,-2.552 4.842,-4.694 10.243,-6.454 0.149,-0.05 0.297,-0.081 0.446,-0.131 0.197,-0.066 0.394,-0.132 0.592,-0.182 l 1.252,-0.38 0.182,0.58 z"
         id="path685"
         style="fill:#9e0c27" />
    </g>
  </g>
</svg>
