<?xml version="1.0" encoding="UTF-8" standalone="no"?>
<!-- Created with Inkscape (http://www.inkscape.org/) -->

<svg
   xmlns:dc="http://purl.org/dc/elements/1.1/"
   xmlns:cc="http://creativecommons.org/ns#"
   xmlns:rdf="http://www.w3.org/1999/02/22-rdf-syntax-ns#"
   xmlns:svg="http://www.w3.org/2000/svg"
   xmlns="http://www.w3.org/2000/svg"
   version="1.1"
   width="290"
   height="256"
   id="svg5089">
  <defs
     id="defs5091" />
  <metadata
     id="metadata5094">
    <rdf:RDF>
      <cc:Work
         rdf:about="">
        <dc:format>image/svg+xml</dc:format>
        <dc:type
           rdf:resource="http://purl.org/dc/dcmitype/StillImage" />
        <dc:title></dc:title>
      </cc:Work>
    </rdf:RDF>
  </metadata>
  <g
     transform="translate(0,-224)"
     id="layer1">
    <g
       transform="translate(-307.31472,198.05125)"
       id="g69">
      <path
         d="m 451.981,157.626 c -8.913,0.777 -14.618,3.072 -17.184,6.988 -2.532,3.681 -4.389,8.306 -5.57,13.978 -1.182,5.4 -2.093,10.262 -2.768,14.617 -2.026,9.521 0.742,17.217 8.338,22.99 h 0.034 c 6.684,5.132 14.854,7.36 24.441,6.685 9.993,-0.675 17.285,-4.355 21.811,-10.938 5.332,-7.597 5.299,-17.555 -0.238,-29.911 -1.451,-3.309 -3.309,-6.82 -5.502,-10.533 -3.038,-5.165 -5.402,-8.846 -7.09,-11.074 -1.788,-2.666 -7.19,-3.578 -16.272,-2.802 m 0.271,2.904 c 7.562,-0.642 12.121,-0.102 13.673,1.654 1.654,2.195 3.916,5.772 6.921,10.803 2.126,3.579 3.915,6.988 5.367,10.263 4.963,11.141 5.131,20.155 0.438,27.042 -4.085,5.84 -10.6,9.081 -19.581,9.655 -8.811,0.641 -16.305,-1.384 -22.483,-6.043 -6.616,-5.098 -9.047,-11.748 -7.291,-20.087 0,-0.068 0,-0.068 0.032,-0.101 0.643,-4.321 1.554,-9.116 2.735,-14.518 1.08,-5.232 2.836,-9.554 5.131,-12.929 2.296,-3.174 7.327,-5.064 15.058,-5.739"
         id="path71"
         style="fill:#990c27" />
      <path
         d="m 465.925,162.184 c -1.553,-1.755 -6.11,-2.295 -13.673,-1.654 -7.73,0.675 -12.761,2.566 -15.057,5.739 -2.295,3.375 -4.053,7.697 -5.132,12.93 -1.182,5.402 -2.093,10.196 -2.735,14.517 -0.032,0.033 -0.032,0.033 -0.032,0.101 -1.757,8.339 0.675,14.99 7.291,20.087 6.178,4.659 13.673,6.684 22.484,6.044 8.979,-0.575 15.496,-3.816 19.581,-9.656 4.691,-6.887 4.522,-15.901 -0.439,-27.042 -1.452,-3.275 -3.241,-6.684 -5.368,-10.263 -3.004,-5.031 -5.267,-8.608 -6.92,-10.803"
         id="path73"
         style="fill:#d66f45" />
      <path
         d="m 460.996,203.979 -0.169,-1.249 13.132,-3.68 6.178,30.114 5.335,1.181 c 9.69,2.228 16.946,5.74 21.81,10.635 5.704,5.637 7.055,10.499 4.016,14.584 h 0.033 c -2.564,3.95 -8.135,5.638 -16.676,4.996 -3.714,-0.271 -7.935,-1.384 -12.66,-3.375 -3.207,-1.317 -6.685,-3.106 -10.432,-5.267 -0.035,-0.067 -0.136,-0.203 -0.236,-0.237 -0.136,-0.134 -0.306,-0.304 -0.473,-0.472 -0.067,-0.068 -0.169,-0.135 -0.271,-0.169 -0.033,-0.101 -0.135,-0.202 -0.135,-0.303 -0.337,-0.439 -0.607,-1.014 -0.879,-1.655 -0.538,-1.384 -1.012,-2.768 -1.484,-4.219 -0.101,-0.305 -0.167,-0.575 -0.236,-0.845 -0.845,-2.667 -1.52,-5.367 -2.025,-8.17 -0.945,-5.368 -1.891,-10.803 -2.734,-16.171 -0.778,-5.232 -1.486,-10.431 -2.094,-15.698 m 18.062,28.155 c -0.406,-0.033 -0.776,-0.067 -1.115,-0.101 L 471.799,202.662 464,204.89 c 0.608,4.795 1.249,9.589 1.958,14.314 0.845,5.402 1.756,10.77 2.701,16.138 0.844,4.456 2.092,8.744 3.814,12.929 l 0.067,0.271 c 0.034,0.033 0.034,0.033 0.034,0.068 3.342,2.329 6.819,4.287 10.464,5.907 1.588,0.641 3.142,1.216 4.627,1.688 2.6,0.811 4.961,1.283 7.19,1.452 7.157,0.574 11.849,-0.71 14.078,-3.748 1.856,-3.004 0.642,-6.616 -3.681,-10.87 -4.862,-4.76 -12.152,-8.136 -21.943,-10.229 l -2.396,-0.303 c -0.606,-0.137 -1.249,-0.271 -1.855,-0.373"
         id="path75"
         style="fill:#990c27" />
      <path
         d="m 477.942,232.033 c 0.338,0.034 0.709,0.068 1.115,0.101 0.606,0.102 1.249,0.236 1.856,0.373 l 2.397,0.303 c 9.79,2.093 17.08,5.469 21.942,10.229 4.321,4.254 5.537,7.866 3.681,10.87 -2.229,3.039 -6.921,4.322 -14.078,3.748 -2.228,-0.169 -4.591,-0.641 -7.19,-1.452 -1.486,-0.472 -3.039,-1.047 -4.625,-1.688 -3.646,-1.62 -7.123,-3.578 -10.467,-5.907 0,-0.035 0,-0.035 -0.032,-0.068 l -0.068,-0.271 c -1.722,-4.185 -2.971,-8.473 -3.815,-12.929 -0.944,-5.368 -1.855,-10.736 -2.699,-16.138 -0.71,-4.725 -1.351,-9.519 -1.958,-14.314 l 7.798,-2.228 6.143,29.371 z"
         id="path77"
         style="fill:#d82d1b" />
      <path
         d="m 455.999,205.228 c -0.236,0.203 -0.439,0.474 -0.506,0.811 l -8.238,30.586 c -0.033,0 -0.033,0.067 -0.033,0.067 l -1.452,5.335 c -0.372,0.81 -0.878,1.654 -1.484,2.497 -2.803,3.984 -6.752,7.259 -11.782,9.791 -4.997,2.465 -9.656,3.477 -13.942,3.005 h -0.035 c -3.848,-0.439 -6.313,-2.026 -7.326,-4.794 -0.945,-2.971 -0.134,-6.314 2.465,-10.027 h -0.035 c 2.804,-4.051 6.753,-7.258 11.75,-9.79 4.523,-2.229 8.744,-3.241 12.728,-3.106 l 1.183,0.034 7.797,-28.663 c 0.102,-0.438 0.069,-0.81 -0.134,-1.147 -0.068,-0.101 -0.136,-0.202 -0.237,-0.304 -0.169,-0.203 -0.405,-0.337 -0.675,-0.371 -0.406,-0.135 -0.777,-0.068 -1.113,0.135 -0.372,0.202 -0.574,0.505 -0.71,0.877 l -7.225,26.468 c -4.018,0.033 -8.306,1.182 -12.896,3.409 -5.535,2.769 -9.824,6.314 -12.896,10.737 -3.242,4.692 -4.22,8.912 -2.803,12.727 1.284,3.915 4.558,6.178 9.825,6.752 4.794,0.573 9.993,-0.54 15.564,-3.275 5.569,-2.734 9.891,-6.347 12.929,-10.77 0.675,-0.978 1.284,-1.924 1.755,-2.836 0.035,-0.066 0.035,-0.134 0.068,-0.201 1.013,-2.06 1.553,-4.018 1.621,-5.875 l 8.169,-30.485 c 0.102,-0.405 0.067,-0.776 -0.136,-1.113 -0.067,-0.17 -0.2,-0.305 -0.337,-0.406 -0.169,-0.135 -0.337,-0.27 -0.573,-0.304 -0.406,-0.101 -0.742,-0.067 -1.114,0.169 -0.07,0.032 -0.105,0.032 -0.172,0.067"
         id="path79"
         style="fill:#990c27" />
      <path
         d="m 455.493,206.038 c 0.066,-0.337 0.27,-0.607 0.506,-0.811 0.068,-0.033 0.101,-0.033 0.169,-0.067 0.371,-0.235 0.708,-0.27 1.114,-0.168 0.236,0.034 0.404,0.168 0.573,0.304 -0.033,-0.608 -0.169,-1.182 -0.405,-1.757 -0.776,-1.923 -2.262,-3.207 -4.32,-3.78 -1.689,-0.507 -3.478,-0.675 -5.335,-0.574 -0.135,0.067 -0.303,0.101 -0.473,0.135 -0.202,0.067 -0.405,0.135 -0.607,0.202 0.103,0.102 0.169,0.203 0.236,0.304 0.204,0.337 0.236,0.71 0.135,1.148 l -7.797,28.663 -1.183,-0.035 c -3.983,-0.135 -8.203,0.878 -12.728,3.106 -4.996,2.532 -8.946,5.739 -11.749,9.791 h 0.035 c -2.599,3.713 -3.41,7.056 -2.465,10.027 1.013,2.767 3.478,4.354 7.326,4.793 h 0.034 c 4.287,0.473 8.946,-0.54 13.943,-3.005 5.03,-2.532 8.979,-5.806 11.782,-9.79 0.606,-0.844 1.112,-1.687 1.483,-2.498 l 1.453,-5.334 c 0,0 0,-0.068 0.033,-0.068 l 8.24,-30.586 z"
         id="path81"
         style="fill:#d82d1b" />
      <path
         d="m 496.612,87.777 c -0.776,-0.574 -1.554,-1.113 -2.363,-1.654 -1.655,-1.08 -3.343,-2.093 -5.063,-3.038 -1.418,-0.743 -2.803,-1.384 -4.256,-1.992 -1.922,-0.777 -3.846,-1.553 -5.806,-2.295 -1.924,-0.743 -3.949,-1.351 -5.976,-1.857 -0.1,0 -0.168,-0.068 -0.27,-0.068 1.992,-3.747 2.7,-7.664 2.127,-11.715 -0.777,-5.367 -3.443,-9.621 -7.968,-12.795 -4.523,-3.207 -9.654,-4.388 -15.326,-3.578 -5.639,0.81 -10.196,3.376 -13.641,7.731 -1.281,1.587 -2.26,3.24 -2.937,4.963 -0.201,-0.237 -0.404,-0.473 -0.572,-0.675 -0.947,-0.946 -1.993,-1.823 -3.176,-2.566 -1.483,-0.945 -3.003,-1.722 -4.557,-2.33 -1.856,-0.709 -3.746,-1.148 -5.773,-1.249 -1.721,-0.101 -3.444,-0.068 -5.063,0.237 -1.689,0.236 -3.309,0.675 -4.862,1.35 -1.823,0.675 -3.512,1.654 -5.03,2.869 -1.351,1.047 -2.499,2.228 -3.545,3.545 -1.216,1.553 -2.228,3.241 -2.903,5.132 -0.675,1.755 -1.081,3.646 -1.149,5.57 -0.101,1.688 0.034,3.343 0.373,5.03 0.404,1.924 1.046,3.68 1.991,5.402 0.338,0.742 1.08,1.687 2.161,2.903 -1.283,0.777 -2.566,1.553 -3.816,2.364 -1.248,0.776 -2.498,1.619 -3.713,2.497 -1.789,1.283 -3.545,2.634 -5.267,4.119 -1.35,1.182 -2.633,2.364 -3.849,3.579 -1.383,1.418 -2.666,2.869 -3.916,4.388 -1.147,1.384 -2.261,2.87 -3.274,4.389 -0.945,1.418 -1.857,2.938 -2.634,4.456 -0.775,1.519 -1.417,3.039 -1.957,4.625 -0.642,1.891 -1.115,3.85 -1.419,5.841 -0.337,1.958 -0.506,3.95 -0.506,5.975 0,2.06 0.169,4.085 0.54,6.111 0.373,2.026 0.879,3.984 1.553,5.908 0.676,1.857 1.521,3.714 2.532,5.435 1.013,1.789 2.195,3.41 3.512,4.963 1.316,1.655 2.835,3.173 4.422,4.625 1.35,1.215 2.701,2.364 4.22,3.409 1.553,1.082 3.139,2.162 4.827,3.073 1.757,1.013 3.579,1.958 5.471,2.836 1.89,0.877 3.814,1.654 5.738,2.397 1.924,0.743 3.951,1.384 5.975,1.957 2.027,0.575 4.086,1.014 6.144,1.419 2.161,0.405 4.288,0.742 6.381,0.979 2.195,0.236 4.39,0.405 6.583,0.506 1.688,0.067 3.376,0.136 5.063,0.034 1.688,-0.034 3.445,-0.102 5.167,-0.169 1.755,-0.135 3.511,-0.27 5.299,-0.472 1.79,-0.203 3.58,-0.473 5.368,-0.777 1.757,-0.271 3.512,-0.574 5.267,-0.945 1.723,-0.338 3.41,-0.743 5.099,-1.182 1.619,-0.405 3.273,-0.844 4.896,-1.418 2.092,-0.675 4.219,-1.418 6.245,-2.195 2.025,-0.81 3.983,-1.687 5.941,-2.633 1.891,-0.978 3.748,-1.992 5.569,-3.038 1.79,-1.08 3.546,-2.194 5.267,-3.41 1.688,-1.214 3.344,-2.498 4.93,-3.849 1.587,-1.35 3.107,-2.733 4.557,-4.219 1.35,-1.351 2.702,-2.802 3.951,-4.287 0.438,-0.541 0.844,-1.081 1.281,-1.621 0.71,-0.911 1.386,-1.857 1.992,-2.836 1.215,-1.789 2.297,-3.713 3.207,-5.671 0.879,-1.857 1.623,-3.781 2.162,-5.74 0.541,-1.958 0.911,-3.95 1.113,-6.009 0.203,-2.025 0.235,-4.051 0.068,-6.077 -0.137,-2.092 -0.473,-4.118 -0.946,-6.144 -0.474,-1.958 -1.112,-3.883 -1.89,-5.807 -0.776,-1.823 -1.721,-3.612 -2.838,-5.265 -1.146,-1.756 -2.428,-3.411 -3.813,-4.93 -1.483,-1.654 -3.071,-3.106 -4.793,-4.457 -0.708,-0.573 -1.383,-1.113 -2.125,-1.654"
         id="path83"
         style="fill:#d82d1b" />
      <path
         d="m 496.612,87.777 c -0.776,-0.574 -1.554,-1.113 -2.363,-1.654 -1.655,-1.08 -3.343,-2.093 -5.063,-3.038 -1.418,-0.743 -2.803,-1.384 -4.256,-1.992 -1.922,-0.777 -3.846,-1.553 -5.806,-2.295 -1.924,-0.743 -3.949,-1.351 -5.976,-1.857 -0.1,0 -0.168,-0.068 -0.27,-0.068 1.992,-3.747 2.7,-7.664 2.127,-11.715 -0.777,-5.367 -3.443,-9.621 -7.968,-12.795 -4.523,-3.207 -9.654,-4.388 -15.326,-3.578 -5.639,0.81 -10.196,3.376 -13.641,7.731 -1.281,1.587 -2.26,3.24 -2.937,4.963 -0.201,-0.237 -0.404,-0.473 -0.572,-0.675 -0.947,-0.946 -1.993,-1.823 -3.176,-2.566 -1.483,-0.945 -3.003,-1.722 -4.557,-2.33 -1.856,-0.709 -3.746,-1.148 -5.773,-1.249 -1.721,-0.101 -3.444,-0.068 -5.063,0.237 -1.689,0.236 -3.309,0.675 -4.862,1.35 -1.823,0.675 -3.512,1.654 -5.03,2.869 -1.351,1.047 -2.499,2.228 -3.545,3.545 -1.216,1.553 -2.228,3.241 -2.903,5.132 -0.675,1.755 -1.081,3.646 -1.149,5.57 -0.101,1.688 0.034,3.343 0.373,5.03 0.404,1.924 1.046,3.68 1.991,5.402 0.338,0.742 1.08,1.687 2.161,2.903 -1.283,0.777 -2.566,1.553 -3.816,2.364 -1.248,0.776 -2.498,1.619 -3.713,2.497 -1.789,1.283 -3.545,2.634 -5.267,4.119 -1.35,1.182 -2.633,2.364 -3.849,3.579 -1.383,1.418 -2.666,2.869 -3.916,4.388 -1.147,1.384 -2.261,2.87 -3.274,4.389 -0.945,1.418 -1.857,2.938 -2.634,4.456 -0.775,1.519 -1.417,3.039 -1.957,4.625 -0.642,1.891 -1.115,3.85 -1.419,5.841 -0.337,1.958 -0.506,3.95 -0.506,5.975 0,2.06 0.169,4.085 0.54,6.111 0.373,2.026 0.879,3.984 1.553,5.908 0.676,1.857 1.521,3.714 2.532,5.435 1.013,1.789 2.195,3.41 3.512,4.963 1.316,1.655 2.835,3.173 4.422,4.625 1.35,1.215 2.701,2.364 4.22,3.409 1.553,1.082 3.139,2.162 4.827,3.073 1.757,1.013 3.579,1.958 5.471,2.836 1.89,0.877 3.814,1.654 5.738,2.397 1.924,0.743 3.951,1.384 5.975,1.957 2.027,0.575 4.086,1.014 6.144,1.419 2.161,0.405 4.288,0.742 6.381,0.979 2.195,0.236 4.39,0.405 6.583,0.506 1.688,0.067 3.376,0.136 5.063,0.034 1.688,-0.034 3.445,-0.102 5.167,-0.169 1.755,-0.135 3.511,-0.27 5.299,-0.472 1.79,-0.203 3.58,-0.473 5.368,-0.777 1.757,-0.271 3.512,-0.574 5.267,-0.945 1.723,-0.338 3.41,-0.743 5.099,-1.182 1.619,-0.405 3.273,-0.844 4.896,-1.418 2.092,-0.675 4.219,-1.418 6.245,-2.195 2.025,-0.81 3.983,-1.687 5.941,-2.633 1.891,-0.978 3.748,-1.992 5.569,-3.038 1.79,-1.08 3.546,-2.194 5.267,-3.41 1.688,-1.214 3.344,-2.498 4.93,-3.849 1.587,-1.35 3.107,-2.733 4.557,-4.219 1.35,-1.351 2.702,-2.802 3.951,-4.287 0.438,-0.541 0.844,-1.081 1.281,-1.621 0.71,-0.911 1.386,-1.857 1.992,-2.836 1.215,-1.789 2.297,-3.713 3.207,-5.671 0.879,-1.857 1.623,-3.781 2.162,-5.74 0.541,-1.958 0.911,-3.95 1.113,-6.009 0.203,-2.025 0.235,-4.051 0.068,-6.077 -0.137,-2.092 -0.473,-4.118 -0.946,-6.144 -0.474,-1.958 -1.112,-3.883 -1.89,-5.807 -0.776,-1.823 -1.721,-3.612 -2.838,-5.265 -1.146,-1.756 -2.428,-3.411 -3.813,-4.93 -1.483,-1.654 -3.071,-3.106 -4.793,-4.457 -0.708,-0.573 -1.383,-1.113 -2.125,-1.654 z"
         id="path85"
         style="fill:none;stroke:#d66f45;stroke-width:0.338" />
      <path
         d="m 472.878,76.873 c 0.103,0 0.17,0.068 0.271,0.068 2.025,0.506 4.051,1.114 5.976,1.857 1.958,0.742 3.882,1.518 5.807,2.295 1.451,0.608 2.836,1.249 4.254,1.992 1.721,0.945 3.409,1.958 5.063,3.038 0.81,0.541 1.586,1.081 2.362,1.654 0.744,0.541 1.418,1.081 2.127,1.655 1.722,1.35 3.31,2.802 4.793,4.457 1.386,1.518 2.668,3.173 3.816,4.929 1.114,1.653 2.059,3.443 2.836,5.265 0.776,1.925 1.418,3.849 1.889,5.808 0.474,2.025 0.812,4.051 0.947,6.143 0.168,2.026 0.135,4.052 -0.068,6.077 -0.202,2.059 -0.573,4.052 -1.113,6.01 -0.54,1.958 -1.283,3.882 -2.161,5.739 -0.911,1.958 -1.991,3.882 -3.207,5.672 -0.608,0.978 -1.282,1.924 -1.991,2.835 -0.439,0.541 -0.845,1.08 -1.283,1.621 -1.25,1.485 -2.601,2.936 -3.951,4.287 -1.45,1.486 -2.971,2.869 -4.557,4.22 -1.586,1.35 -3.242,2.634 -4.93,3.849 -1.721,1.215 -3.477,2.329 -5.266,3.409 -1.823,1.047 -3.68,2.06 -5.57,3.038 -1.959,0.946 -3.917,1.824 -5.941,2.634 -2.026,0.776 -4.153,1.519 -6.245,2.195 -1.621,0.573 -3.276,1.012 -4.896,1.417 -1.688,0.44 -3.376,0.844 -5.097,1.183 -1.756,0.371 -3.511,0.674 -5.267,0.945 -1.788,0.303 -3.578,0.573 -5.368,0.776 -1.789,0.203 -3.544,0.337 -5.3,0.472 -1.723,0.067 -3.479,0.135 -5.166,0.169 -1.688,0.102 -3.375,0.034 -5.064,-0.034 -2.194,-0.101 -4.388,-0.27 -6.582,-0.506 -2.094,-0.237 -4.221,-0.574 -6.381,-0.979 -2.059,-0.405 -4.118,-0.843 -6.145,-1.419 -2.024,-0.572 -4.05,-1.214 -5.974,-1.957 -1.925,-0.743 -3.849,-1.52 -5.739,-2.397 -1.891,-0.878 -3.714,-1.823 -5.47,-2.835 -1.689,-0.912 -3.275,-1.992 -4.827,-3.073 -1.519,-1.046 -2.871,-2.195 -4.22,-3.409 -1.588,-1.453 -3.107,-2.971 -4.423,-4.626 -1.316,-1.553 -2.499,-3.174 -3.512,-4.962 -1.011,-1.722 -1.856,-3.579 -2.531,-5.436 -0.675,-1.924 -1.181,-3.882 -1.554,-5.908 -0.371,-2.025 -0.539,-4.051 -0.539,-6.11 0,-2.026 0.168,-4.017 0.506,-5.976 0.304,-1.991 0.776,-3.95 1.419,-5.84 0.539,-1.587 1.181,-3.106 1.957,-4.626 0.776,-1.518 1.688,-3.038 2.633,-4.456 1.014,-1.518 2.127,-3.004 3.275,-4.389 1.249,-1.519 2.533,-2.97 3.916,-4.388 1.216,-1.215 2.498,-2.397 3.848,-3.579 1.722,-1.485 3.478,-2.835 5.268,-4.118 1.215,-0.878 2.464,-1.722 3.712,-2.498 1.25,-0.811 2.534,-1.587 3.816,-2.364"
         id="path87"
         style="fill:none;stroke:#990c27;stroke-width:2.66700006;stroke-linecap:round;stroke-linejoin:round" />
      <path
         d="m 403.03,86.697 c -1.081,-1.216 -1.823,-2.161 -2.161,-2.903 -0.945,-1.722 -1.587,-3.478 -1.991,-5.402 -0.339,-1.688 -0.473,-3.341 -0.373,-5.029 0.068,-1.925 0.474,-3.816 1.149,-5.571 0.675,-1.891 1.688,-3.579 2.903,-5.132 1.046,-1.317 2.194,-2.498 3.545,-3.545 1.518,-1.215 3.207,-2.194 5.03,-2.869 1.553,-0.675 3.173,-1.114 4.862,-1.35 1.619,-0.304 3.342,-0.338 5.063,-0.237 2.027,0.101 3.917,0.54 5.773,1.249 1.554,0.608 3.073,1.385 4.557,2.33 1.183,0.743 2.229,1.62 3.176,2.566 0.168,0.202 0.371,0.438 0.572,0.675 0.677,-1.722 1.655,-3.376 2.938,-4.963 3.443,-4.355 8.001,-6.921 13.64,-7.731 5.672,-0.81 10.803,0.371 15.326,3.579 4.524,3.173 7.19,7.427 7.968,12.794 0.573,4.051 -0.135,7.968 -2.127,11.715"
         id="path89"
         style="fill:none;stroke:#990c27;stroke-width:2.66700006;stroke-linecap:round;stroke-linejoin:round" />
      <path
         d="m 473.723,65.429 c -0.709,-5.064 -3.207,-9.115 -7.494,-12.12 -4.254,-3.071 -9.081,-4.186 -14.415,-3.443 -5.335,0.776 -9.623,3.207 -12.863,7.359 -1.654,2.06 -2.803,4.254 -3.409,6.617 -0.271,-0.405 -0.541,-0.776 -0.845,-1.181 -0.305,-0.338 -0.641,-0.709 -0.944,-1.046 -0.912,-0.913 -1.925,-1.756 -3.039,-2.465 -1.35,-0.878 -2.803,-1.587 -4.287,-2.195 -1.756,-0.675 -3.579,-1.08 -5.47,-1.215 -1.62,-0.068 -3.206,0 -4.794,0.27 -1.621,0.236 -3.139,0.642 -4.625,1.25 -1.721,0.674 -3.308,1.586 -4.76,2.733 -1.249,0.98 -2.363,2.128 -3.376,3.377 -1.114,1.452 -2.059,3.072 -2.734,4.828 -0.641,1.688 -1.012,3.443 -1.08,5.3 -0.068,1.553 0.068,3.173 0.371,4.76 0.371,1.789 0.979,3.477 1.857,5.131 0.405,0.743 0.877,1.485 1.383,2.127 0.541,0.676 1.149,1.317 1.791,1.924 1.316,1.182 2.801,2.161 4.421,2.938 1.588,0.81 3.275,1.35 4.997,1.721 1.824,0.372 3.679,0.473 5.503,0.406 1.958,-0.102 3.815,-0.372 5.604,-0.98 1.723,-0.608 3.342,-1.451 4.828,-2.532 1.249,-0.912 2.397,-2.025 3.41,-3.24 1.011,-1.249 1.856,-2.566 2.564,-4.018 0.339,-0.81 0.676,-1.655 0.979,-2.499 0.136,-0.404 0.237,-0.877 0.371,-1.315 1.216,1.957 2.87,3.746 4.998,5.198 4.252,3.039 9.08,4.186 14.414,3.41 5.334,-0.776 9.657,-3.207 12.862,-7.326 3.276,-4.119 4.524,-8.71 3.782,-13.774"
         id="path91"
         style="fill:#ffffff" />
      <path
         d="m 412.348,71.235 c 1.349,-2.329 3.342,-3.848 5.908,-4.523 2.633,-0.709 5.062,-0.372 7.426,0.945 2.33,1.35 3.849,3.308 4.523,5.908 0.709,2.6 0.371,5.03 -0.979,7.359 -1.352,2.33 -3.275,3.849 -5.909,4.524 -2.565,0.709 -5.029,0.372 -7.359,-0.944 -2.329,-1.351 -3.815,-3.309 -4.523,-5.909 -0.709,-2.6 -0.404,-4.996 0.913,-7.36"
         id="path93"
         style="fill:#282525" />
      <path
         d="m 457.35,64.349 c -1.924,-1.857 -4.254,-2.734 -6.92,-2.701 -2.702,0.101 -4.963,1.081 -6.82,3.038 -1.857,1.925 -2.769,4.221 -2.701,6.921 0.102,2.667 1.081,4.895 3.005,6.785 1.992,1.858 4.253,2.735 6.954,2.702 2.667,-0.068 4.896,-1.081 6.786,-3.038 1.856,-1.925 2.734,-4.254 2.701,-6.921 -0.069,-2.667 -1.047,-4.929 -3.005,-6.786"
         id="path95"
         style="fill:#282525" />
      <path
         d="m 464.134,118.398 c -6.684,1.452 -13.436,2.734 -20.255,3.747 -6.853,1.013 -13.808,1.722 -20.897,2.161 -7.056,0.439 -14.617,0.101 -22.619,-1.08 l -9.554,-1.925 c 6.684,18.636 19.647,28.831 39.026,30.587 5.638,0.54 11.58,0.269 17.757,-0.777 0.068,-0.034 0.103,-0.034 0.136,-0.034 6.245,-0.742 11.985,-2.127 17.283,-4.254 18.099,-7.156 27.685,-20.593 28.799,-40.342 l -8.608,4.557 c -7.361,3.376 -14.348,5.807 -21.068,7.36"
         id="path97"
         style="fill:#282525" />
      <path
         d="m 443.103,120.626 v 0.067 c 0.136,-0.067 0.203,-0.101 0.236,-0.101 l -0.236,0.034 z"
         id="path99"
         style="fill:#282525" />
      <path
         d="m 457.248,93.213 c -0.877,-5.03 -3.274,-8.98 -7.326,-11.984 -4.017,-2.937 -8.439,-4.018 -13.335,-3.242 -4.86,0.845 -8.711,3.276 -11.613,7.394 -2.835,4.119 -3.849,8.643 -3.038,13.639 0.843,4.996 3.241,8.98 7.292,11.917 4.018,3.005 8.439,4.085 13.301,3.241 4.896,-0.777 8.744,-3.207 11.615,-7.326 2.868,-4.118 3.915,-8.642 3.104,-13.639"
         id="path101"
         style="fill:#e78c00" />
      <path
         d="m 467.41,174.743 c 0.067,-0.034 0.101,-0.034 0.168,-0.034 12.559,-1.35 24.646,-3.174 36.225,-5.504 l 1.08,-0.235 c 0.068,0.81 0.236,1.621 0.404,2.397 l -0.912,0.168 c -11.68,2.363 -23.866,4.221 -36.561,5.571 -0.337,0.033 -0.641,-0.034 -0.91,-0.237 -0.237,-0.236 -0.406,-0.506 -0.439,-0.81 0,-0.337 0.068,-0.608 0.271,-0.911 0.066,-0.101 0.2,-0.169 0.303,-0.236 0.1,-0.068 0.235,-0.136 0.371,-0.169"
         id="path103"
         style="fill:#990c27" />
      <path
         d="m 463.089,167.62 c -0.068,0 -0.136,0.034 -0.168,0 -0.271,0 -0.507,-0.101 -0.744,-0.236 -0.271,-0.203 -0.438,-0.506 -0.438,-0.81 -0.033,-0.372 0.034,-0.642 0.27,-0.912 0.169,-0.237 0.438,-0.405 0.776,-0.405 14.787,-1.756 29,-3.849 42.673,-6.381 -0.236,0.844 -0.404,1.688 -0.539,2.566 -13.302,2.431 -27.144,4.49 -41.491,6.144 -0.136,0.034 -0.239,0.034 -0.339,0.034"
         id="path105"
         style="fill:#990c27" />
      <path
         d="m 509.609,169.375 c 0.405,1.25 1.08,2.296 2.025,3.207 2.734,2.836 6.145,4.322 10.195,4.456 h 0.101 v -0.033 h 0.068 c 0.103,0 0.169,0.033 0.271,0.033 0.067,0 0.067,0 0.135,-0.033 v 0.033 h 0.068 c 0.032,0.102 0.1,0.237 0.202,0.338 0.101,0.203 0.202,0.372 0.269,0.574 0.136,0.236 0.271,0.44 0.408,0.607 1.18,1.824 2.395,3.344 3.745,4.491 h 0.033 c 1.419,1.215 3.241,1.756 5.538,1.688 0.404,-0.068 0.641,-0.168 0.775,-0.473 0.237,-0.168 0.373,-0.506 0.373,-0.944 0,-1.688 -0.373,-3.309 -1.049,-4.929 -0.201,-0.406 -0.404,-0.811 -0.574,-1.148 -0.336,-0.675 -0.674,-1.317 -1.078,-1.958 0.336,0.236 0.707,0.438 1.045,0.641 0.305,0.202 0.642,0.371 0.947,0.608 0.133,0.034 0.201,0.101 0.336,0.134 2.162,1.554 4.187,1.992 6.111,1.384 1.586,-0.574 2.362,-1.484 2.329,-2.633 0,-0.168 0,-0.303 0.033,-0.439 -0.27,-0.777 -0.742,-1.451 -1.452,-2.126 -0.371,-0.44 -0.775,-0.811 -1.282,-1.149 -1.553,-1.045 -3.206,-1.991 -4.895,-2.801 -1.048,-0.507 -2.095,-0.946 -3.173,-1.384 0.236,0 0.505,0.034 0.707,0.067 1.789,0.203 3.578,0.203 5.402,0.101 0.473,-0.033 0.945,-0.101 1.383,-0.202 1.42,-0.136 2.499,-0.44 3.208,-0.911 0.102,-0.102 0.203,-0.237 0.271,-0.372 0.235,-0.541 0.271,-1.114 0.066,-1.62 -0.135,-0.439 -0.404,-0.844 -0.776,-1.182 v -0.033 c -0.37,-0.372 -0.811,-0.676 -1.283,-0.912 v -0.035 c -1.486,-0.741 -3.037,-1.384 -4.591,-1.856 h -0.033 c -1.216,-0.372 -2.466,-0.709 -3.748,-0.912 0,0 -0.405,-0.135 -1.182,-0.304 -0.777,-0.202 -1.823,-0.371 -3.175,-0.54 -1.314,-0.134 -2.732,-0.304 -4.252,-0.405 0,-0.067 0,-0.067 0.068,-0.101 0.1,-0.034 0.2,-0.067 0.303,-0.067 0.541,-0.169 1.08,-0.338 1.621,-0.507 0.776,-0.169 1.688,-0.472 2.666,-0.979 1.082,-0.54 1.791,-0.945 2.094,-1.249 0.27,-0.304 0.439,-0.777 0.539,-1.384 -0.033,-2.666 -1.383,-4.017 -4.118,-4.085 h -0.033 c -2.901,0.102 -5.333,0.776 -7.226,2.06 -1.821,1.013 -3.308,2.565 -4.455,4.624 -0.17,0.271 -0.305,0.507 -0.473,0.777 -0.102,0.135 -0.203,0.271 -0.371,0.371 -0.744,0.641 -1.416,1.317 -2.094,1.992 -0.102,0.136 -0.236,0.169 -0.337,0.236 -0.944,0.304 -1.856,0.574 -2.803,0.675 -1.181,0.237 -2.363,0.439 -3.578,0.676 0.137,-0.878 0.305,-1.722 0.539,-2.566 1.08,-0.202 2.161,-0.372 3.241,-0.574 l 1.418,-0.303 0.777,-0.844 c 0.17,-0.102 0.303,-0.271 0.471,-0.44 0.508,-0.405 0.949,-0.911 1.352,-1.451 0.202,-0.304 0.439,-0.574 0.607,-0.878 1.25,-1.587 2.6,-2.903 4.051,-3.916 1.926,-1.384 4.929,-2.33 8.947,-2.836 V 147.6 c 4.389,0.102 6.549,2.296 6.481,6.583 v 0.102 c -0.103,1.114 -0.505,2.093 -1.249,2.903 1.587,0.202 3.139,0.575 4.692,1.08 1.688,0.507 3.343,1.183 4.964,1.992 v 0.034 c 0.708,0.304 1.351,0.809 1.89,1.418 0.608,0.574 1.047,1.249 1.317,2.026 v 0.034 c 0.404,1.147 0.337,2.227 -0.068,3.342 -0.27,0.607 -0.607,1.079 -1.113,1.418 -0.675,0.505 -1.654,0.945 -2.903,1.181 2.093,1.283 3.409,2.802 3.915,4.625 v 0.034 c 0.102,0.236 0.137,0.473 0.17,0.708 0,0.17 0,0.372 -0.068,0.541 0.068,2.161 -1.249,3.713 -3.983,4.726 -1.688,0.574 -3.376,0.574 -5.132,-0.033 0.473,1.417 0.709,2.565 0.709,3.443 0,2.161 -1.045,3.275 -3.14,3.376 -3.004,0.135 -5.437,-0.607 -7.258,-2.262 -1.655,-1.418 -3.14,-3.24 -4.49,-5.469 -4.286,-0.27 -7.967,-1.925 -10.938,-4.929 -0.842,-0.843 -1.553,-1.789 -2.159,-2.802 -0.136,-0.27 -0.271,-0.506 -0.373,-0.777 l -2.295,0.474 c -0.168,-0.777 -0.339,-1.587 -0.405,-2.398 l 4.391,-0.844 c 0.102,0.406 0.237,0.811 0.338,1.249 m 12.728,7.765 0,0 h -0.067 0.067 z"
         id="path107"
         style="fill:#990c27" />
      <path
         d="m 537.225,167.687 c 0.473,-0.034 0.945,-0.101 1.384,-0.203 1.419,-0.135 2.498,-0.439 3.207,-0.911 0.102,-0.101 0.203,-0.236 0.271,-0.372 0.235,-0.54 0.271,-1.113 0.066,-1.619 -0.135,-0.439 -0.404,-0.845 -0.776,-1.182 v -0.034 c -0.37,-0.371 -0.81,-0.675 -1.283,-0.911 v -0.035 c -1.485,-0.742 -3.037,-1.384 -4.592,-1.856 h -0.032 c -1.216,-0.372 -2.466,-0.71 -3.748,-0.912 0,0 -0.405,-0.135 -1.183,-0.304 -0.776,-0.202 -1.822,-0.371 -3.172,-0.54 -1.316,-0.135 -2.734,-0.304 -4.252,-0.405 0,-0.067 0,-0.067 0.066,-0.101 0.102,-0.034 0.2,-0.068 0.304,-0.068 0.539,-0.169 1.079,-0.338 1.62,-0.506 0.776,-0.169 1.688,-0.473 2.666,-0.979 1.082,-0.541 1.79,-0.945 2.094,-1.25 0.27,-0.303 0.439,-0.776 0.541,-1.383 -0.035,-2.667 -1.385,-4.017 -4.119,-4.085 h -0.035 c -2.901,0.101 -5.332,0.776 -7.224,2.059 -1.823,1.014 -3.309,2.566 -4.456,4.625 -0.169,0.27 -0.305,0.507 -0.473,0.777 -0.102,0.134 -0.203,0.27 -0.371,0.371 -0.743,0.641 -1.417,1.317 -2.094,1.991 -0.1,0.136 -0.236,0.17 -0.338,0.237 -0.944,0.304 -1.856,0.574 -2.801,0.675 -1.183,0.237 -2.364,0.439 -3.58,0.675 -13.299,2.432 -27.143,4.491 -41.489,6.145 -0.136,0.034 -0.237,0.034 -0.338,0.034 -0.068,0 -0.135,0.033 -0.169,0 0.066,0.27 0.101,0.573 0.237,0.844 0.505,1.384 1.18,2.701 1.99,3.882 0.642,0.844 1.249,1.755 1.892,2.566 0.1,-0.068 0.235,-0.136 0.371,-0.169 0.067,-0.034 0.101,-0.034 0.169,-0.034 12.558,-1.35 24.645,-3.173 36.224,-5.503 l 1.08,-0.236 4.39,-0.844 c 0.101,0.405 0.235,0.811 0.338,1.249 0.404,1.25 1.079,2.296 2.024,3.207 2.734,2.836 6.145,4.321 10.195,4.456 h 0.101 v -0.034 h 0.067 c 0.104,0 0.17,0.034 0.271,0.034 0.066,0 0.066,0 0.135,-0.034 v 0.034 h 0.068 c 0.031,0.102 0.1,0.236 0.202,0.338 0.101,0.203 0.202,0.372 0.27,0.574 0.134,0.236 0.271,0.439 0.406,0.607 1.183,1.824 2.396,3.343 3.746,4.491 h 0.032 c 1.42,1.215 3.242,1.755 5.539,1.688 0.404,-0.068 0.641,-0.169 0.776,-0.473 0.236,-0.169 0.371,-0.506 0.371,-0.945 0,-1.688 -0.371,-3.308 -1.048,-4.929 -0.202,-0.405 -0.402,-0.81 -0.573,-1.147 -0.337,-0.676 -0.676,-1.317 -1.079,-1.959 0.336,0.237 0.707,0.439 1.045,0.642 0.305,0.202 0.642,0.371 0.946,0.607 0.136,0.034 0.202,0.101 0.338,0.135 2.16,1.553 4.185,1.991 6.11,1.384 1.586,-0.574 2.362,-1.485 2.329,-2.633 0,-0.168 0,-0.304 0.033,-0.439 -0.27,-0.777 -0.742,-1.452 -1.452,-2.126 -0.371,-0.44 -0.775,-0.811 -1.282,-1.149 -1.554,-1.046 -3.206,-1.991 -4.896,-2.802 -1.045,-0.506 -2.093,-0.945 -3.172,-1.383 0.235,0 0.506,0.034 0.707,0.067 1.794,0.203 3.582,0.203 5.406,0.101"
         id="path109"
         style="fill:#d82d1b" />
      <path
         d="m 440.369,176.735 c 0.033,-0.068 0.067,-0.135 0.101,-0.168 0.911,-1.386 1.521,-2.937 1.823,-4.625 0.235,-1.284 0.203,-2.533 -0.069,-3.715 -0.066,0.034 -0.134,0.068 -0.202,0.068 -0.135,0 -0.304,0.033 -0.438,0.067 -13.807,1.519 -27.21,2.532 -40.242,3.174 l -7.765,0.237 c -0.27,-0.204 -0.507,-0.44 -0.81,-0.642 -0.27,-0.237 -0.541,-0.473 -0.877,-0.642 -0.676,-0.439 -1.385,-0.709 -2.162,-0.844 l -2.194,-1.924 c -1.114,-0.878 -2.262,-1.52 -3.409,-1.89 -1.823,-0.575 -3.377,-0.912 -4.625,-0.946 -1.147,-0.034 -1.79,-0.067 -1.925,-0.067 -0.337,0.101 -0.675,0.168 -1.08,0.27 h -0.033 c -2.532,0.675 -3.546,2.261 -2.972,4.726 0.034,0.034 0.034,0.067 0.068,0.101 0.035,0.101 0.067,0.203 0.134,0.27 0.406,0.743 1.013,1.148 1.892,1.317 1.046,0.202 2.093,0.169 3.139,-0.067 0.912,-0.203 1.755,-0.372 2.634,-0.473 l -0.406,0.203 c -1.08,0.573 -2.093,1.248 -3.004,2.025 -0.372,0.303 -0.776,0.607 -1.148,0.911 -0.337,0.203 -0.641,0.406 -0.979,0.608 -0.135,0.068 -0.27,0.135 -0.406,0.169 -1.991,0.979 -4.049,1.452 -6.278,1.418 -1.993,-0.034 -3.58,0.101 -4.727,0.439 -0.844,0.236 -1.418,0.675 -1.756,1.35 h -0.034 c -0.236,0.709 -0.236,1.485 0,2.363 0.339,0.979 0.946,1.858 1.79,2.633 0.54,0.44 1.114,0.71 1.79,0.743 v -0.033 h 0.033 c 0.338,-0.676 0.844,-1.182 1.486,-1.588 0.506,-0.37 1.08,-0.641 1.688,-0.81 0.27,-0.101 0.573,-0.168 0.878,-0.202 0.708,-0.067 1.349,-0.067 1.991,-0.101 v 0.034 c -0.91,0.236 -1.755,0.674 -2.464,1.316 -0.912,0.811 -1.351,1.756 -1.419,2.87 0,0.439 0.034,0.878 0.136,1.317 0.169,0.675 0.641,1.214 1.316,1.552 0.879,0.507 1.756,0.642 2.768,0.54 l 0.136,-0.304 c 0.1,-0.202 0.202,-0.404 0.337,-0.607 0.169,-0.54 0.54,-1.047 1.013,-1.486 0.675,-0.607 1.452,-1.046 2.262,-1.35 0.945,-0.304 1.924,-0.439 2.936,-0.338 0.777,0.034 1.555,0.204 2.229,0.473 l 0.845,0.337 c -0.574,-0.033 -1.182,0 -1.857,0.035 -0.845,0.101 -1.655,0.27 -2.398,0.506 -0.979,0.304 -1.822,0.811 -2.43,1.587 -0.709,0.776 -0.945,1.722 -0.812,2.735 0.373,1.282 1.386,2.092 3.108,2.363 2.396,0.303 4.928,-0.136 7.596,-1.284 2.632,-1.113 4.557,-2.937 5.74,-5.468 0.1,-0.135 0.168,-0.271 0.302,-0.406 0.136,-0.101 0.271,-0.168 0.473,-0.236 0.134,-0.033 0.303,-0.102 0.439,-0.169 2.092,-0.81 3.612,-2.194 4.524,-4.287 0.27,-0.608 0.573,-1.216 0.844,-1.823 l 6.549,-0.136 c 11.275,-0.336 22.855,-1.215 34.772,-2.667 0.236,0 0.406,0 0.607,0.068 0.067,0.034 0.204,0.101 0.305,0.202 0.067,0.068 0.169,0.136 0.237,0.271"
         id="path111"
         style="fill:#d82d1b" />
      <path
         d="m 440.571,177.242 c -0.034,-0.169 -0.103,-0.373 -0.202,-0.507 -0.068,-0.135 -0.171,-0.202 -0.237,-0.27 -0.102,-0.101 -0.237,-0.169 -0.305,-0.203 -0.201,-0.068 -0.371,-0.068 -0.607,-0.068 -11.917,1.452 -23.497,2.331 -34.773,2.668 l -6.548,0.135 c -0.271,0.607 -0.575,1.215 -0.845,1.823 -0.911,2.093 -2.431,3.477 -4.524,4.287 -0.135,0.068 -0.304,0.136 -0.438,0.169 -0.203,0.068 -0.337,0.135 -0.473,0.237 -0.134,0.134 -0.202,0.27 -0.302,0.405 -1.183,2.532 -3.108,4.354 -5.741,5.469 -2.668,1.147 -5.199,1.586 -7.595,1.283 -1.723,-0.271 -2.735,-1.08 -3.108,-2.363 -0.134,-1.013 0.103,-1.959 0.812,-2.735 0.608,-0.776 1.451,-1.283 2.429,-1.587 0.744,-0.236 1.554,-0.405 2.399,-0.506 0.675,-0.034 1.283,-0.068 1.857,-0.034 l -0.845,-0.338 c -0.674,-0.269 -1.452,-0.438 -2.229,-0.472 -1.012,-0.101 -1.992,0.033 -2.936,0.337 -0.81,0.304 -1.587,0.743 -2.262,1.351 -0.473,0.439 -0.844,0.945 -1.013,1.485 -0.136,0.203 -0.237,0.405 -0.337,0.607 l -0.136,0.305 c -1.012,0.101 -1.89,-0.034 -2.769,-0.54 -0.674,-0.338 -1.147,-0.878 -1.315,-1.553 -0.103,-0.439 -0.136,-0.878 -0.136,-1.317 0.068,-1.114 0.507,-2.059 1.419,-2.87 0.709,-0.641 1.553,-1.08 2.464,-1.316 v -0.034 c -0.642,0.034 -1.284,0.034 -1.992,0.101 -0.304,0.034 -0.607,0.101 -0.878,0.202 -0.607,0.169 -1.181,0.44 -1.688,0.81 -0.641,0.406 -1.147,0.912 -1.485,1.588 h -0.034 v 0.034 c -0.675,-0.034 -1.249,-0.304 -1.79,-0.744 -0.843,-0.775 -1.45,-1.654 -1.789,-2.632 -0.236,-0.878 -0.236,-1.655 0,-2.364 h 0.034 c 0.338,-0.675 0.912,-1.114 1.755,-1.35 1.148,-0.338 2.735,-0.473 4.727,-0.439 2.229,0.034 4.288,-0.439 6.279,-1.418 0.136,-0.033 0.271,-0.101 0.406,-0.169 0.337,-0.202 0.642,-0.405 0.979,-0.608 0.372,-0.303 0.776,-0.608 1.148,-0.911 0.911,-0.777 1.924,-1.451 3.004,-2.025 l 0.406,-0.203 c -0.879,0.101 -1.722,0.27 -2.634,0.473 -1.047,0.236 -2.093,0.269 -3.139,0.067 -0.879,-0.169 -1.486,-0.574 -1.892,-1.317 -0.067,-0.067 -0.1,-0.169 -0.134,-0.27 -0.034,-0.033 -0.034,-0.067 -0.068,-0.101 -0.574,-2.465 0.439,-4.051 2.972,-4.726 h 0.033 c 0.405,-0.102 0.743,-0.169 1.08,-0.27 0.135,0 0.778,0.033 1.925,0.068 1.248,0.033 2.802,0.371 4.625,0.945 1.147,0.37 2.295,1.013 3.409,1.89 l 2.194,1.924 c 0.777,0.136 1.486,0.405 2.161,0.845 0.337,0.169 0.608,0.404 0.878,0.641 0.303,0.202 0.54,0.439 0.81,0.642 l 7.765,-0.237 c 13.032,-0.642 26.436,-1.654 40.242,-3.173 0.134,-0.035 0.303,-0.068 0.438,-0.068 0.067,0 0.135,-0.033 0.201,-0.068 0.237,-0.067 0.441,-0.202 0.608,-0.371 0.203,-0.236 0.271,-0.573 0.237,-0.911 -0.034,-0.338 -0.202,-0.608 -0.473,-0.777 -0.235,-0.236 -0.541,-0.337 -0.879,-0.236 -14.313,1.587 -28.19,2.634 -41.692,3.241 l -5.841,0.169 c -0.439,-0.54 -1.013,-0.912 -1.62,-1.216 -1.655,-0.777 -3.175,-1.823 -4.525,-3.106 -1.046,-0.709 -2.059,-1.181 -3.139,-1.519 -2.127,-0.709 -3.882,-1.046 -5.368,-1.081 -1.519,-0.032 -2.329,-0.032 -2.465,0.035 h -0.033 c -0.338,0.034 -0.709,0.101 -1.114,0.236 h -0.035 c -4.151,1.047 -5.738,3.646 -4.76,7.765 0.035,0.034 0.035,0.034 0.035,0.101 0.37,1.114 1.046,1.992 2.025,2.633 -1.282,0.44 -2.633,0.676 -4.017,0.676 -2.329,-0.068 -4.152,0.135 -5.436,0.506 -1.62,0.506 -2.7,1.35 -3.308,2.633 v 0.033 c -0.574,1.217 -0.641,2.634 -0.135,4.153 v 0.034 c 0.473,1.418 1.317,2.633 2.465,3.714 h 0.034 c 0.944,0.81 2.025,1.282 3.24,1.384 0.102,0.945 0.676,2.06 1.554,3.376 0.067,0.067 0.134,0.135 0.236,0.203 1.012,0.944 2.599,1.418 4.726,1.316 0.608,2.194 2.328,3.478 5.098,3.881 2.801,0.373 5.772,-0.066 8.878,-1.416 3.072,-1.317 5.334,-3.376 6.786,-6.212 0.371,-0.169 0.776,-0.338 1.115,-0.473 1.282,-0.608 2.329,-1.452 3.24,-2.498 0.844,-0.911 1.418,-1.958 1.857,-3.073 l 5.435,-0.168 c 11.208,-0.372 22.721,-1.249 34.538,-2.667 0.336,-0.035 0.606,-0.203 0.843,-0.439 0.17,-0.271 0.305,-0.574 0.238,-0.911"
         id="path113"
         style="fill:#990c27" />
      <path
         d="M 384.901,163.501"
         id="path115"
         style="fill:#009944" />
      <path
         d="m 496.442,149.119 -3.14,0.608 c -32.646,8.777 -66.303,12.052 -100.974,9.723 2.328,1.653 4.862,3.14 7.596,4.489 6.919,3.41 14.617,5.638 23.057,6.786 8.776,1.182 17.758,1.047 26.94,-0.371 4.491,-0.71 8.812,-1.654 13.031,-2.903 3.782,-1.215 7.63,-2.566 11.547,-4.051 3.883,-1.52 7.764,-3.546 11.646,-6.213 3.883,-2.667 7.328,-5.299 10.297,-8.068"
         id="path117"
         style="fill:#d82d1b" />
      <path
         d="m 448.81,157.931 c -2.398,0.708 -4.188,1.417 -5.403,2.093 -0.91,0.472 -1.755,1.079 -2.464,1.856 -0.744,0.811 -1.52,1.654 -2.329,2.634 -0.474,0.574 -0.877,1.08 -1.147,1.418 -0.102,0.135 -0.17,0.235 -0.271,0.337 -2.295,3.375 -4.052,7.697 -5.132,12.93 -1.182,5.401 -2.093,10.196 -2.735,14.517 -0.032,0.033 -0.032,0.033 -0.032,0.101 -1.757,8.339 0.675,14.99 7.291,20.087 6.178,4.659 13.673,6.684 22.483,6.044 8.98,-0.575 15.497,-3.816 19.582,-9.656 4.691,-6.887 4.522,-15.901 -0.439,-27.042 -1.452,-3.275 -3.241,-6.684 -5.368,-10.263 -2.329,-3.95 -4.253,-7.022 -5.772,-9.183 -0.203,-0.506 -0.607,-1.182 -1.147,-2.025 -0.878,-1.181 -1.384,-1.857 -1.485,-2.026 -0.337,-0.506 -0.642,-0.843 -0.845,-1.08 -0.404,-0.371 -1.013,-0.709 -1.756,-0.878 -2.094,-0.472 -6.416,-0.472 -13.031,0.136 m -1.386,1.586 h -0.27 l 0.235,-0.102 0.035,0.102 z"
         id="path119"
         style="fill:#d82d1b" />
    </g>
  </g>
</svg>
