<?xml version="1.0" encoding="UTF-8" standalone="no"?>
<!-- Created with Inkscape (http://www.inkscape.org/) -->

<svg
   xmlns:dc="http://purl.org/dc/elements/1.1/"
   xmlns:cc="http://creativecommons.org/ns#"
   xmlns:rdf="http://www.w3.org/1999/02/22-rdf-syntax-ns#"
   xmlns:svg="http://www.w3.org/2000/svg"
   xmlns="http://www.w3.org/2000/svg"
   version="1.1"
   width="290"
   height="256"
   id="svg5089">
  <defs
     id="defs5091" />
  <metadata
     id="metadata5094">
    <rdf:RDF>
      <cc:Work
         rdf:about="">
        <dc:format>image/svg+xml</dc:format>
        <dc:type
           rdf:resource="http://purl.org/dc/dcmitype/StillImage" />
        <dc:title></dc:title>
      </cc:Work>
    </rdf:RDF>
  </metadata>
  <g
     transform="translate(0,-224)"
     id="layer1">
    <g
       transform="translate(-540.71012,-36.005871)"
       id="g545">
      <path
         d="m 743.326,413.524 c 0.672,-0.203 1.072,-0.306 1.197,-0.31 0.021,0.003 0.041,0.005 0.053,-0.004 0.003,-0.021 0.003,-0.021 0.019,0.022 2.38,-0.516 4.391,-0.604 6.051,-0.238 2.556,0.434 4.434,1.662 5.624,3.674 l -0.031,0.006 0.025,0.035 c 0.432,0.756 0.721,1.564 0.884,2.45 0.021,0.003 0.032,-0.005 0.029,0.014 -0.003,0.021 -0.003,0.021 0.007,0.033 -0.012,0.009 -0.004,0.021 0.018,0.022 l 0.021,0.003 c 0.128,0.84 0.124,1.579 -0.008,2.249 -0.191,0.974 -0.495,1.777 -0.937,2.427 l 0.021,0.003 c -0.032,0.006 -0.044,0.014 -0.022,0.018 -0.214,0.273 -0.457,0.534 -0.721,0.789 l -0.013,0.029 c 0.02,0.004 0.02,0.004 0.009,0.012 -0.004,0.021 -0.006,0.041 -0.009,0.062 0,0.313 -0.002,0.646 -0.013,1.04 -0.009,0.685 -0.044,1.191 -0.1,1.529 l -0.022,0.017 c -0.179,0.872 -0.419,1.663 -0.731,2.361 l -1.919,-1.932 c 0.085,-0.251 0.138,-0.492 0.184,-0.747 -0.011,-0.011 -0.011,-0.011 -0.009,-0.031 -0.181,0.121 -0.377,0.252 -0.588,0.358 l -2.085,-2.1 c 0.712,-0.271 1.402,-0.595 2.06,-1.007 0.552,-0.312 0.939,-0.646 1.188,-1.02 0.28,-0.233 0.501,-0.475 0.671,-0.734 0.002,-0.02 0.002,-0.02 -0.006,-0.031 l 0.01,-0.008 c 0.274,-0.412 0.465,-0.908 0.583,-1.496 l 0.034,-0.006 c 0.043,-0.4 0.029,-0.85 -0.062,-1.332 -0.103,-0.638 -0.308,-1.217 -0.622,-1.748 l -0.009,-0.012 c -0.863,-1.343 -2.157,-2.191 -3.903,-2.527 l -0.032,0.006 c -1.393,-0.258 -3.112,-0.174 -5.137,0.255 l -0.012,0.009 c -0.116,0.016 -0.557,0.113 -1.308,0.284 l -0.029,-0.014 0.009,0.011 c -0.044,0.017 -0.069,0.055 -0.072,0.074 -0.022,-0.002 -0.053,0.004 -0.079,0.041 l 0.009,0.012 c -0.028,0.06 -0.054,0.097 -0.089,0.123 -0.01,0.469 -0.093,1.01 -0.253,1.593 -0.026,0.11 -0.06,0.21 -0.084,0.321 l -2.206,-2.209 c -0.016,-0.669 -0.09,-1.365 -0.229,-2.123 -0.052,-0.09 -0.081,-0.178 -0.102,-0.254 -0.13,-0.434 -0.279,-0.797 -0.467,-1.113 0.003,-0.021 -0.006,-0.032 -0.024,-0.057 -0.271,-0.546 -0.564,-1 -0.893,-1.356 -0.429,-0.464 -0.909,-0.757 -1.445,-0.88 l -0.022,0.019 0.014,-0.029 -0.034,0.026 c -0.894,-0.182 -1.661,-0.127 -2.334,0.17 l -1.829,-1.837 c 1.252,-0.886 2.788,-1.161 4.607,-0.825 0.021,0.003 0.03,0.014 0.039,0.025 1.712,0.291 3.084,1.482 4.124,3.609 l 0.032,-0.006 c 0.308,0.665 0.575,1.379 0.818,2.149 l -0.05,0.056 c 0.029,0.016 0.051,0.018 0.06,0.029 0.011,-0.009 0.032,-0.006 0.052,-0.004 0.035,0.028 0.057,0.03 0.088,0.025"
         id="path547"
         style="fill:#9e0c27" />
      <path
         d="m 747.923,425.965 c 0.802,-0.153 1.579,-0.363 2.336,-0.648 l 2.085,2.1 c -0.359,0.202 -0.747,0.369 -1.162,0.522 -1.723,0.656 -3.529,0.938 -5.404,0.844 -0.215,-0.017 -0.411,-0.032 -0.618,-0.039 -1.205,-0.182 -2.365,-0.544 -3.48,-1.088 -0.24,-0.146 -0.481,-0.292 -0.713,-0.428 -0.08,-0.032 -0.177,-0.085 -0.272,-0.141 -0.339,-0.2 -0.664,-0.41 -1.01,-0.644 -0.02,0.069 -0.027,0.132 -0.035,0.193 -0.062,0.397 -0.083,0.78 -0.029,1.163 0.574,2.98 2.439,4.603 5.578,4.885 2.851,0.264 5.111,-0.842 6.781,-3.297 0.356,-0.494 0.623,-1.012 0.778,-1.552 l 1.919,1.932 c -0.488,1.091 -1.174,1.947 -2.051,2.581 l -0.01,0.008 c -0.023,0.019 -0.056,0.025 -0.088,0.031 -0.049,0.055 -0.099,0.111 -0.141,0.199 -0.197,0.151 -0.505,0.35 -0.938,0.626 -0.084,0.081 -0.177,0.153 -0.278,0.213 -0.439,1.035 -1.081,1.949 -1.958,2.749 l -0.01,-0.011 c -0.211,0.18 -0.432,0.349 -0.629,0.499 -0.274,0.193 -0.56,0.374 -0.832,0.545 -0.078,0.115 -0.164,0.219 -0.26,0.31 l -1.616,-1.63 c 0.339,-0.278 0.462,-0.5 0.372,-0.689 0.033,-0.008 0.067,-0.033 0.094,-0.072 -0.035,0.026 -0.079,0.042 -0.128,0.025 0.002,-0.021 0.014,-0.03 0.005,-0.041 0.003,-0.021 -0.125,0.004 -0.396,0.082 -0.23,0.012 -0.438,0.006 -0.654,-0.014 l -7.825,-7.891 c 0.002,-0.72 0.016,-1.447 0.069,-2.169 0.006,-0.04 0,-0.073 -0.039,-0.099 -0.03,-0.087 -0.08,-0.178 -0.143,-0.258 -0.268,0.058 -0.562,0.081 -0.861,0.052 -0.728,-0.086 -1.407,-0.302 -2.05,-0.636 -0.059,-0.029 -0.106,-0.068 -0.153,-0.104 l -2.866,-2.882 -0.036,-0.045 c -0.181,-0.285 -0.339,-0.587 -0.461,-0.916 -0.038,-0.119 -0.055,-0.216 -0.064,-0.3 -0.195,-0.016 -0.354,-0.006 -0.471,0.01 l 0.004,-0.02 c -0.094,-0.002 -0.177,-0.013 -0.249,-0.013 l -2.58,-2.603 c 0.993,0.121 1.989,0.223 3.014,0.285 0.111,-1.39 0.215,-2.334 0.283,-2.846 0.097,-0.57 0.183,-1.133 0.275,-1.682 0.185,-0.841 0.383,-1.471 0.597,-1.91 0.295,-0.648 0.643,-1.227 1.025,-1.76 0.153,-0.209 0.363,-0.463 0.642,-0.748 l 0.021,0.004 c 0.08,-0.062 0.173,-0.135 0.264,-0.185 l 1.829,1.837 c -0.353,0.14 -0.663,0.359 -0.949,0.633 l -0.019,-0.023 c -0.626,0.646 -1.088,1.532 -1.375,2.672 -0.399,1.832 -0.352,3.672 0.125,5.493 0.025,0.202 0.08,0.417 0.178,0.619 0.142,0.351 0.316,0.676 0.527,0.975 1.18,1.542 2.519,1.896 4.022,1.076 0.186,-0.069 0.343,-0.152 0.491,-0.247 1.041,-0.705 1.745,-1.611 2.11,-2.719 0.316,-0.812 0.455,-1.783 0.425,-2.881 l 2.206,2.209 c -0.274,0.891 -0.642,1.686 -1.11,2.393 -0.606,0.963 -1.055,1.6 -1.314,1.908 -0.338,0.425 -0.743,0.809 -1.225,1.141 1.447,1.172 3.146,1.948 5.106,2.322 0.01,0.013 0.039,0.026 0.089,0.045 l 0.023,-0.019 c 1.021,0.233 2.101,0.252 3.229,0.069"
         id="path549"
         style="fill:#9e0c27" />
      <path
         d="m 737.344,427.518 c 0,-0.073 -0.001,-0.146 -0.011,-0.229 l 7.825,7.89 c -1.937,-0.08 -3.799,-0.879 -5.574,-2.406 -0.062,-0.008 -0.116,0.017 -0.161,0.03 -0.156,-0.156 -0.291,-0.236 -0.402,-0.261 -0.544,-0.135 -1.012,-0.146 -1.402,-0.031 -0.153,0.062 -0.294,0.17 -0.458,0.314 -0.093,0.071 -0.264,0.184 -0.516,0.358 -0.891,0.591 -1.338,1.28 -1.338,2.072 -0.025,0.185 -0.017,0.362 0.046,0.517 0.007,0.031 0.001,0.073 0.008,0.104 0.017,0.022 0.025,0.035 0.046,0.038 0.13,0.434 0.435,0.807 0.901,1.129 0.627,0.459 1.331,0.729 2.152,0.818 0.679,0.215 1.421,0.271 2.237,0.161 1.466,-0.128 2.968,-0.69 4.473,-1.677 0.246,-0.135 0.476,-0.291 0.672,-0.441 0.013,-0.009 0.013,-0.009 0.023,-0.018 l 1.617,1.63 c -0.357,0.422 -0.719,0.79 -1.093,1.095 -0.331,0.216 -0.658,0.412 -0.976,0.6 -2.451,1.288 -5.041,1.58 -7.779,0.862 -0.84,-0.185 -1.585,-0.534 -2.237,-1.026 -0.127,-0.068 -0.241,-0.146 -0.345,-0.233 -0.253,-0.21 -0.465,-0.415 -0.628,-0.604 -1.415,-0.479 -2.71,-1.235 -3.897,-2.256 -0.662,-0.579 -1.246,-1.197 -1.782,-1.872 l -0.021,-0.002 c -0.032,-0.068 -0.074,-0.146 -0.104,-0.234 -0.035,-0.045 -0.068,-0.112 -0.102,-0.18 -1.012,-1.395 -1.683,-2.535 -2.014,-3.421 l -0.392,-0.106 c -11.048,-1.341 -21.077,-6.203 -30.087,-14.586 -0.021,-0.002 -0.029,-0.014 -0.038,-0.025 -0.127,-0.143 -0.254,-0.282 -0.393,-0.417 l -0.898,-0.765 1.504,-1.759 0.901,0.745 c 0.168,0.147 0.354,0.318 0.545,0.521 0.018,0.022 0.035,0.046 0.056,0.048 8.397,7.822 17.75,12.448 28.034,13.898 0.628,0.125 1.266,0.262 1.916,0.389 0.396,0.084 0.783,0.136 1.161,0.123 l 0.021,0.003 c -0.013,0.247 0.004,0.437 0.049,0.569 0.036,0.119 0.073,0.238 0.108,0.357 0.282,1.09 0.824,2.183 1.638,3.27 0.134,0.174 0.27,0.326 0.42,0.451 0.331,0.409 0.688,0.778 1.062,1.1 l 0.026,0.034 c 0.009,0.011 0.009,0.011 0.018,0.022 0.279,0.246 0.562,0.471 0.83,0.652 0.033,-0.725 0.295,-1.439 0.784,-2.145 0.613,-0.93 1.384,-1.629 2.289,-2.103 0.059,-0.044 0.097,-0.091 0.122,-0.13 0.066,-0.033 0.174,-0.061 0.311,-0.072 0.138,-0.088 0.292,-0.15 0.486,-0.207 0.316,-0.113 0.597,-0.181 0.839,-0.2 -0.015,-0.045 -0.042,-0.079 -0.057,-0.123 -0.245,-0.727 -0.384,-1.485 -0.415,-2.271"
         id="path551"
         style="fill:#9e0c27" />
      <path
         d="m 731.29,421.194 2.866,2.881 c -1.198,-0.701 -2.153,-1.662 -2.866,-2.881"
         id="path553"
         style="fill:#9e0c27" />
      <path
         d="m 705.008,407.208 c 0.009,0.011 0.018,0.021 0.006,0.031 5.717,5.57 13.177,8.925 22.419,10.068 l 2.58,2.603 c -11.127,-0.821 -19.974,-4.475 -26.57,-10.952 -0.026,-0.036 -0.054,-0.07 -0.081,-0.085 -0.158,-0.156 -0.297,-0.289 -0.406,-0.407 l -0.754,-0.912 1.724,-1.521 0.768,0.883 c 0.096,0.127 0.2,0.214 0.314,0.292"
         id="path555"
         style="fill:#9e0c27" />
      <path
         d="m 750.169,415.401 0.032,-0.006 c 1.746,0.336 3.04,1.185 3.903,2.527 l 0.009,0.012 c 0.314,0.531 0.52,1.112 0.622,1.748 0.092,0.482 0.105,0.932 0.062,1.332 l -0.033,0.006 c -0.119,0.588 -0.31,1.084 -0.583,1.496 l -0.011,0.008 c 0.008,0.012 0.008,0.012 0.006,0.031 -0.17,0.26 -0.391,0.501 -0.671,0.734 -0.248,0.373 -0.636,0.707 -1.188,1.02 -1.37,0.828 -2.826,1.375 -4.396,1.655 -1.128,0.184 -2.208,0.164 -3.23,-0.064 l -0.022,0.018 c -0.05,-0.018 -0.079,-0.031 -0.089,-0.044 -1.96,-0.374 -3.659,-1.15 -5.106,-2.322 0.481,-0.332 0.887,-0.716 1.225,-1.141 0.26,-0.309 0.708,-0.945 1.314,-1.908 0.521,-0.783 0.926,-1.698 1.194,-2.714 0.16,-0.583 0.243,-1.124 0.253,-1.593 0.035,-0.024 0.061,-0.063 0.089,-0.123 l -0.009,-0.012 c 0.026,-0.037 0.058,-0.043 0.079,-0.041 0.003,-0.02 0.028,-0.058 0.072,-0.074 l -0.009,-0.011 0.029,0.014 c 0.751,-0.171 1.191,-0.269 1.308,-0.284 l 0.012,-0.009 c 2.027,-0.428 3.745,-0.512 5.138,-0.255"
         id="path557"
         style="fill:#d82d1c" />
      <path
         d="m 752.933,427.058 c -0.002,0.021 -0.002,0.021 0.008,0.031 -0.142,0.825 -0.452,1.596 -0.962,2.299 -1.67,2.455 -3.931,3.561 -6.781,3.297 -3.139,-0.281 -5.005,-1.904 -5.578,-4.885 -0.054,-0.383 -0.033,-0.766 0.029,-1.163 0.008,-0.062 0.016,-0.124 0.035,-0.192 0.346,0.232 0.671,0.442 1.009,0.643 0.097,0.056 0.193,0.109 0.273,0.141 0.231,0.136 0.473,0.282 0.713,0.428 1.115,0.544 2.274,0.906 3.48,1.088 0.207,0.007 0.403,0.022 0.619,0.039 1.873,0.094 3.681,-0.188 5.403,-0.844 0.623,-0.22 1.204,-0.519 1.752,-0.882"
         id="path559"
         style="fill:#d82d1c" />
      <path
         d="m 746.204,435.151 c 0.049,0.017 0.093,10e-4 0.128,-0.025 -0.026,0.039 -0.061,0.064 -0.094,0.072 0.09,0.189 -0.045,0.42 -0.396,0.707 -0.196,0.15 -0.426,0.308 -0.672,0.441 -1.505,0.986 -3.007,1.549 -4.472,1.677 -0.817,0.109 -1.56,0.054 -2.238,-0.161 -0.821,-0.089 -1.526,-0.359 -2.151,-0.818 -0.468,-0.322 -0.772,-0.695 -0.901,-1.129 -0.021,-0.003 -0.03,-0.016 -0.047,-0.038 -0.007,-0.031 -10e-4,-0.073 -0.008,-0.104 -0.062,-0.154 -0.07,-0.332 -0.046,-0.517 0,-0.792 0.447,-1.481 1.338,-2.072 0.252,-0.175 0.423,-0.287 0.516,-0.358 0.164,-0.145 0.305,-0.252 0.458,-0.314 0.391,-0.115 0.858,-0.104 1.402,0.031 0.111,0.024 0.245,0.104 0.402,0.261 0.045,-0.015 0.099,-0.038 0.161,-0.03 1.981,1.7 4.06,2.518 6.229,2.42 0.271,-0.078 0.399,-0.103 0.396,-0.082 0.009,0.009 -0.003,0.019 -0.005,0.039"
         id="path561"
         style="fill:#d82d1c" />
      <path
         d="m 738.383,421.501 c -0.148,0.095 -0.306,0.178 -0.491,0.247 -1.504,0.821 -2.843,0.466 -4.022,-1.076 -0.211,-0.299 -0.386,-0.624 -0.527,-0.975 -0.098,-0.202 -0.152,-0.417 -0.178,-0.619 -0.477,-1.821 -0.524,-3.661 -0.125,-5.493 0.287,-1.139 0.749,-2.025 1.375,-2.672 l 0.019,0.024 c 0.827,-0.818 1.925,-1.089 3.283,-0.804 l 0.034,-0.026 -0.014,0.029 0.022,-0.019 c 0.536,0.123 1.017,0.416 1.445,0.88 0.328,0.357 0.621,0.811 0.893,1.357 0.019,0.023 0.027,0.035 0.024,0.056 0.188,0.316 0.337,0.68 0.467,1.113 0.021,0.076 0.051,0.164 0.102,0.254 0.379,2.008 0.313,3.676 -0.196,5.004 -0.366,1.109 -1.07,2.015 -2.111,2.72"
         id="path563"
         style="fill:#d82d1c" />
      <path
         d="m 737.402,425.119 c -0.054,0.796 -0.065,1.596 -0.059,2.398 0.031,0.786 0.17,1.544 0.417,2.273 0.015,0.044 0.042,0.078 0.057,0.122 -0.242,0.021 -0.522,0.088 -0.839,0.201 -0.194,0.057 -0.348,0.119 -0.486,0.207 -0.137,0.012 -0.244,0.039 -0.311,0.072 -0.026,0.038 -0.063,0.086 -0.122,0.13 -0.905,0.474 -1.676,1.173 -2.289,2.103 -0.489,0.705 -0.751,1.42 -0.784,2.145 -0.268,-0.182 -0.551,-0.406 -0.83,-0.652 -0.009,-0.012 -0.009,-0.012 -0.018,-0.022 l -0.026,-0.034 c -0.375,-0.321 -0.731,-0.691 -1.063,-1.1 -0.149,-0.125 -0.285,-0.277 -0.418,-0.451 -0.814,-1.087 -1.356,-2.18 -1.639,-3.27 -0.035,-0.119 -0.072,-0.238 -0.108,-0.357 -0.044,-0.133 -0.062,-0.322 -0.049,-0.569 l -0.021,-0.003 c -0.378,0.013 -0.766,-0.039 -1.161,-0.123 -0.65,-0.127 -1.287,-0.264 -1.916,-0.389 -10.284,-1.45 -19.637,-6.077 -28.034,-13.898 l 5.657,-5.028 c 0.028,0.015 0.056,0.049 0.082,0.085 6.641,6.536 15.58,10.191 26.819,10.965 l -0.004,0.02 c 0.117,-0.016 0.275,-0.025 0.471,-0.011 0.01,0.084 0.027,0.182 0.064,0.301 0.122,0.329 0.28,0.631 0.461,0.916 l 0.036,0.046 c 0.748,1.266 1.751,2.264 3.02,2.984 0.643,0.334 1.321,0.55 2.051,0.636 0.298,0.029 0.593,0.006 0.86,-0.052 0.062,0.08 0.112,0.171 0.143,0.258 0.038,0.024 0.045,0.057 0.039,0.097"
         id="path565"
         style="fill:#d82d1c" />
      <path
         d="m 686.829,396.079 c -8.705,-0.019 -14.456,1.769 -17.251,5.325 -2.778,3.344 -4.991,7.696 -6.636,13.075 -1.592,5.15 -2.901,9.804 -3.91,13.943 -2.778,9.078 -0.726,16.757 6.157,23.038 l 0.018,0.018 c 6.069,5.521 13.784,8.37 23.145,8.529 9.768,0.177 17.128,-2.743 22.064,-8.759 5.857,-6.918 6.636,-16.598 2.336,-29.036 -1.15,-3.345 -2.637,-6.919 -4.459,-10.688 -2.495,-5.255 -4.478,-9.042 -5.929,-11.342 -1.503,-2.724 -6.67,-4.085 -15.535,-4.103 m 0,2.83 c 7.396,0.018 11.768,0.938 13.13,2.777 1.397,2.248 3.327,5.929 5.786,11.06 1.769,3.663 3.22,7.131 4.335,10.387 3.893,11.253 3.273,20.03 -1.841,26.311 -4.458,5.31 -11.076,7.892 -19.835,7.733 -8.617,-0.16 -15.713,-2.762 -21.304,-7.804 -5.999,-5.484 -7.786,-12.19 -5.361,-20.117 0,-0.035 0,-0.071 0.017,-0.089 1.01,-4.105 2.303,-8.724 3.894,-13.854 1.522,-4.973 3.557,-9.007 6.105,-12.103 2.493,-2.886 7.519,-4.318 15.074,-4.301"
         id="path567"
         style="fill:#9e0c27" />
      <path
         d="m 699.959,401.687 c -1.362,-1.84 -5.733,-2.76 -13.13,-2.777 -7.555,-0.018 -12.581,1.415 -15.074,4.301 -2.549,3.096 -4.583,7.13 -6.105,12.103 -1.592,5.131 -2.885,9.749 -3.894,13.854 -0.017,0.019 -0.017,0.054 -0.017,0.09 -2.425,7.927 -0.638,14.632 5.361,20.117 5.591,5.042 12.687,7.644 21.304,7.804 8.759,0.158 15.377,-2.424 19.835,-7.733 5.115,-6.28 5.733,-15.058 1.841,-26.311 -1.115,-3.256 -2.566,-6.724 -4.335,-10.387 -2.459,-5.133 -4.389,-8.813 -5.786,-11.061"
         id="path569"
         style="fill:#d82d1c" />
      <path
         d="m 647.03,454.946 c -0.173,0.19 -0.316,0.389 -0.437,0.593 -1.271,2.279 -1.729,4.7 -1.372,7.264 -0.047,2.853 0.398,5.614 1.341,8.286 1.327,3.753 3.156,7.203 5.499,10.347 0.718,1.053 1.484,2.085 2.294,3.096 1.186,1.479 2.485,2.661 3.89,3.55 4.158,2.24 8.61,2.98 13.353,2.229 1.824,-0.294 3.604,-0.729 5.348,-1.305 0.062,0.011 0.124,0.018 0.185,0.021 0.858,-0.435 1.743,-0.874 2.653,-1.315 0.015,-0.012 0.029,-0.019 0.048,-0.029 1.809,-0.956 3.188,-2.345 4.142,-4.168 0.744,-1.416 1.008,-2.924 0.795,-4.517 -0.039,-0.393 -0.101,-0.799 -0.181,-1.215 0.012,-0.069 0.023,-0.141 0.033,-0.217 -0.111,-0.524 -0.245,-1.039 -0.403,-1.542 -0.444,-1.425 -1.168,-2.701 -2.172,-3.827 -0.528,-0.475 -1.121,-0.855 -1.78,-1.144 -0.467,-0.359 -0.967,-0.668 -1.495,-0.928 -0.28,-0.133 -0.555,-0.28 -0.815,-0.435 -1.421,-0.568 -2.823,-1.157 -4.212,-1.765 -0.938,-0.415 -1.822,-0.86 -2.654,-1.343 -0.039,-0.054 -0.075,-0.111 -0.111,-0.165 -0.26,-0.141 -0.522,-0.277 -0.791,-0.403 0.299,-0.111 0.59,-0.233 0.874,-0.374 0.007,0.004 0.01,0.004 0.014,0.007 6.196,-2.725 9.972,-7.095 11.332,-13.104 -0.019,-0.543 -0.059,-1.086 -0.119,-1.633 -0.187,-1.801 -0.78,-3.412 -1.777,-4.841 0.005,0.076 0.009,0.151 0.012,0.227 0.011,0.271 0.019,0.54 0.019,0.81 v 0.004 c 0,0.456 -0.012,0.906 -0.036,1.349 -0.359,6.556 -3.362,11.316 -9.013,14.276 -1.712,0.802 -3.47,1.496 -5.274,2.089 l -1.083,0.453 c 3.035,2.536 6.418,4.507 10.151,5.909 0.464,0.209 0.921,0.417 1.378,0.621 2.139,0.978 3.833,2.479 5.089,4.502 0.251,0.555 0.383,1.134 0.402,1.737 0.417,2.04 0.212,3.741 -0.619,5.097 -0.528,0.78 -1.266,1.442 -2.215,1.984 -4.944,2.425 -10.12,3.212 -15.521,2.362 -1.271,-0.2 -2.408,-0.719 -3.413,-1.552 -0.189,-0.134 -0.377,-0.268 -0.56,-0.407 -3.406,-3.031 -6.269,-6.538 -8.588,-10.52 -2.057,-3.523 -3.219,-7.317 -3.484,-11.382 -0.019,-0.359 -0.032,-0.719 -0.044,-1.082 -0.136,-0.885 -0.133,-1.736 0.016,-2.557 0,-0.047 0,-0.09 0.003,-0.136 0.007,-0.005 0.014,-0.014 0.025,-0.016 0.271,-1.349 0.92,-2.604 1.956,-3.771 0.384,-0.273 0.798,-0.497 1.244,-0.673 0.226,-0.083 0.461,-0.154 0.698,-0.213 0.995,-0.254 1.971,-0.193 2.931,0.177 0.831,0.327 1.661,0.543 2.492,0.655 0.845,0.246 1.763,0.367 2.751,0.355 1.959,-0.021 3.751,-0.607 5.38,-1.755 1.617,-1.14 3.053,-2.482 4.308,-4.021 0.689,-0.846 1.187,-1.791 1.493,-2.834 0.254,-1.096 0.067,-2.212 -0.562,-3.352 -0.036,-0.062 -0.071,-0.125 -0.104,-0.188 -0.104,-0.143 -0.206,-0.279 -0.31,-0.412 -0.007,-0.004 -0.014,-0.008 -0.018,-0.016 -0.144,-0.187 -0.288,-0.359 -0.435,-0.518 -0.051,-0.054 -0.102,-0.107 -0.155,-0.158 -0.032,-0.035 -0.068,-0.076 -0.108,-0.115 0.012,0.098 0.022,0.188 0.033,0.273 0.018,0.166 0.029,0.334 0.032,0.503 0.04,0.929 -0.101,1.835 -0.42,2.72 -0.231,0.561 -0.491,1.107 -0.781,1.643 -0.55,1.003 -1.21,1.892 -1.975,2.665 -3.829,3.463 -8.178,4.208 -13.046,2.24 -0.82,-0.335 -1.68,-0.396 -2.575,-0.19 -0.888,0.209 -1.708,0.572 -2.464,1.094 -0.176,0.145 -0.345,0.295 -0.503,0.457 -0.204,0.165 -0.4,0.346 -0.589,0.543"
         id="path571"
         style="fill:#9e0c27" />
      <path
         d="m 651.651,455.183 c -0.237,0.059 -0.473,0.13 -0.698,0.213 -0.447,0.176 -0.859,0.399 -1.244,0.673 -1.037,1.168 -1.686,2.423 -1.957,3.771 -0.011,0.003 -0.018,0.011 -0.024,0.015 -0.003,0.047 -0.003,0.09 -0.003,0.137 -0.148,0.82 -0.151,1.671 -0.016,2.557 0.012,0.363 0.025,0.723 0.043,1.082 0.267,4.064 1.429,7.858 3.485,11.382 2.319,3.981 5.182,7.487 8.588,10.52 0.183,0.14 0.37,0.273 0.561,0.407 1.004,0.833 2.141,1.352 3.411,1.552 5.402,0.85 10.578,0.062 15.522,-2.362 0.949,-0.542 1.686,-1.204 2.215,-1.984 0.831,-1.356 1.036,-3.057 0.619,-5.097 -0.019,-0.604 -0.151,-1.183 -0.402,-1.737 -1.256,-2.024 -2.949,-3.524 -5.089,-4.502 -0.457,-0.204 -0.914,-0.412 -1.378,-0.621 -3.733,-1.403 -7.116,-3.374 -10.151,-5.909 l 1.082,-0.453 c 1.806,-0.593 3.563,-1.288 5.275,-2.089 5.65,-2.96 8.653,-7.721 9.013,-14.277 0.024,-0.441 0.036,-0.892 0.036,-1.348 v -0.004 c 0,-0.27 -0.008,-0.539 -0.019,-0.81 -0.003,-0.075 -0.007,-0.15 -0.011,-0.227 -0.036,-0.054 -0.071,-0.104 -0.104,-0.151 -0.03,-0.004 -0.058,-0.004 -0.087,-0.004 -0.068,-0.117 -0.147,-0.229 -0.237,-0.342 -1.146,-1.491 -2.693,-2.409 -4.64,-2.756 -1.553,-0.28 -3.118,-0.293 -4.688,-0.037 -0.075,-0.061 -0.176,-0.084 -0.303,-0.068 -0.184,0.028 -0.37,0.062 -0.561,0.101 -0.062,0.011 -0.119,0.021 -0.177,0.039 -0.114,0.047 -0.212,0.134 -0.292,0.267 0.055,0.051 0.105,0.104 0.156,0.158 0.146,0.158 0.291,0.331 0.435,0.518 0.004,0.008 0.011,0.012 0.018,0.016 0.104,0.133 0.205,0.269 0.309,0.412 0.034,0.062 0.069,0.126 0.105,0.188 0.629,1.14 0.816,2.256 0.561,3.352 -0.306,1.043 -0.803,1.988 -1.492,2.833 -1.255,1.54 -2.69,2.882 -4.308,4.021 -1.629,1.147 -3.421,1.733 -5.38,1.755 -0.988,0.012 -1.906,-0.109 -2.751,-0.355 -0.831,-0.112 -1.661,-0.328 -2.492,-0.655 -0.959,-0.375 -1.935,-0.435 -2.93,-0.181"
         id="path573"
         style="fill:#d82d1c" />
      <path
         d="m 669.377,443.772 c 0.003,0.004 0.003,0.004 0.003,0.007 -0.003,-0.169 -0.015,-0.337 -0.032,-0.503 -0.029,0.076 -0.051,0.154 -0.064,0.237 -0.007,0.044 0,0.087 0.018,0.126 0.02,0.04 0.046,0.087 0.075,0.133"
         id="path575"
         style="fill:#d82d1c" />
      <path
         d="m 690.312,442.052 -0.142,-1.195 12.765,-3.584 5.887,26.985 c 9.224,-2.846 17.091,-3.39 23.583,-1.646 l -0.019,0.003 c 7.528,1.978 11.037,5.406 10.511,10.31 l -0.004,-0.018 c -0.221,4.641 -4.097,8.765 -11.631,12.374 -3.259,1.562 -7.353,2.669 -12.3,3.306 -4.159,0.526 -8.909,0.727 -14.289,0.587 -1.198,-0.038 -2.434,-0.087 -3.707,-0.144 l -0.874,-0.053 -0.343,-0.775 c -2.203,-4.854 -3.774,-9.877 -4.72,-15.103 -0.951,-5.242 -1.832,-10.499 -2.645,-15.771 -0.789,-5.076 -1.472,-10.159 -2.072,-15.276 m 17.905,25.358 -1.486,0.472 -5.907,-27.088 -7.571,2.139 c 0.562,4.676 1.209,9.332 1.923,13.958 0.809,5.254 1.684,10.476 2.63,15.701 0.856,4.704 2.24,9.262 4.148,13.655 0.962,0.033 1.889,0.073 2.815,0.115 l -0.02,-0.014 c 7.354,0.193 13.528,-0.267 18.506,-1.359 2.579,-0.594 4.839,-1.335 6.792,-2.247 6.287,-3.024 9.624,-6.369 10.029,-10.039 0.117,-3.413 -2.686,-5.872 -8.401,-7.363 -6.382,-1.657 -14.2,-0.963 -23.458,2.07"
         id="path577"
         style="fill:#9e0c27" />
      <path
         d="m 706.73,467.882 1.486,-0.472 c 9.258,-3.033 17.076,-3.728 23.458,-2.07 5.716,1.491 8.518,3.95 8.401,7.363 -0.406,3.67 -3.742,7.015 -10.029,10.039 -1.953,0.912 -4.213,1.653 -6.793,2.247 -4.977,1.093 -11.15,1.553 -18.505,1.359 l 0.02,0.013 c -0.927,-0.042 -1.854,-0.081 -2.815,-0.114 -1.909,-4.394 -3.292,-8.951 -4.148,-13.655 -0.946,-5.226 -1.821,-10.447 -2.63,-15.701 -0.715,-4.626 -1.36,-9.282 -1.924,-13.958 l 7.572,-2.139 5.907,27.088 z"
         id="path579"
         style="fill:#d82d1c" />
      <path
         d="m 719.445,290.883 h -0.018 c -3.668,-3.734 -8.045,-5.561 -13.129,-5.462 h -0.016 c -5.083,0.115 -9.394,2.139 -12.914,6.087 -0.74,0.806 -1.416,1.662 -1.991,2.55 -0.624,-0.79 -1.316,-1.547 -2.09,-2.27 -3.981,-3.702 -8.719,-5.511 -14.196,-5.429 -5.496,0.114 -10.151,2.138 -13.968,6.037 -3.834,3.883 -5.71,8.522 -5.611,13.935 0.066,2.632 0.593,5.067 1.563,7.304 -0.675,0.181 -1.366,0.395 -2.041,0.609 -8.177,2.599 -15.415,6.185 -21.684,10.775 -6.333,4.623 -11.121,9.806 -14.362,15.58 -1.052,1.859 -1.941,3.784 -2.647,5.742 h 2.812 c 0.593,-1.514 1.299,-2.995 2.122,-4.458 3.076,-5.463 7.617,-10.382 13.622,-14.742 6.055,-4.425 13.031,-7.88 20.927,-10.397 v 0.017 c 1.135,-0.362 2.304,-0.691 3.487,-1.003 l 1.597,-0.444 -0.05,-0.099 h 0.033 c 0.082,0.017 0.181,0.032 0.263,0.049 0.725,0.065 1.267,-0.132 1.63,-0.609 -0.033,-0.049 -0.066,-0.082 -0.1,-0.065 -0.082,0 -0.147,0 -0.213,0.016 0,-0.066 0,-0.132 -0.017,-0.181 0,-0.05 -0.017,-0.115 -0.05,-0.165 -0.132,-0.181 -0.297,-0.213 -0.51,-0.098 -0.33,0.164 -0.658,0.23 -0.987,0.198 -0.033,-0.018 -0.065,-0.05 -0.083,-0.067 -0.016,-0.016 -0.016,-0.049 -0.016,-0.065 0,-0.05 0,-0.083 0.016,-0.116 0.018,-0.065 0.05,-0.131 0.083,-0.181 0.017,-0.016 0.033,-0.049 0.049,-0.082 v -0.066 -0.082 c -0.016,-0.033 -0.032,-0.066 -0.049,-0.083 -0.148,-0.213 -0.264,-0.443 -0.361,-0.657 -0.083,-0.181 -0.182,-0.363 -0.28,-0.543 -0.017,-0.034 -0.033,-0.066 -0.05,-0.082 -0.065,-0.182 -0.132,-0.379 -0.198,-0.559 -0.081,-0.313 -0.197,-0.593 -0.328,-0.873 -0.165,-0.312 -0.279,-0.641 -0.346,-0.987 -0.082,-0.312 -0.164,-0.641 -0.247,-0.954 -0.016,-0.017 -0.016,-0.05 -0.033,-0.082 -0.017,-1.35 0.033,-2.764 0.116,-4.245 0.049,-1.135 0.263,-2.237 0.642,-3.29 0.807,-2.303 2.089,-4.393 3.816,-6.252 1.53,-1.645 3.356,-2.928 5.512,-3.85 0.511,-0.214 1.037,-0.312 1.579,-0.279 2.847,0.197 5.396,-0.181 7.618,-1.119 l -0.05,-0.082 h 0.033 c 0.329,-0.066 0.674,-0.115 1.02,-0.164 1.579,0.345 3.093,0.904 4.557,1.711 1.941,1.069 3.406,2.615 4.409,4.639 0.544,1.102 1.234,2.089 2.073,2.928 -0.016,0.444 0.05,0.873 0.23,1.267 0.115,0.017 0.214,0.066 0.313,0.132 0.016,0.016 0.016,0.033 0.016,0.082 -0.016,0.049 -0.016,0.099 -0.016,0.148 0.016,0.066 0.064,0.115 0.114,0.165 v 0.214 c 0.214,0 0.395,-0.05 0.575,-0.149 0.05,-0.016 0.116,-0.016 0.165,-0.033 0.083,-0.049 0.148,-0.131 0.197,-0.214 0.05,-0.082 0.099,-0.197 0.116,-0.312 0.03,-0.066 0.065,-0.131 0.081,-0.197 0.181,-0.51 0.362,-1.02 0.543,-1.547 0.428,-0.51 0.806,-1.118 1.119,-1.826 0.511,-1.135 1.185,-2.155 2.007,-3.06 0.823,-0.904 1.728,-1.694 2.732,-2.385 1.693,-1.201 3.388,-1.827 5.05,-1.909 0.478,0.05 0.921,-0.033 1.365,-0.23 0.182,-0.082 0.362,-0.148 0.543,-0.198 2.697,-0.246 5.33,0.198 7.881,1.317 1.414,0.625 2.632,1.497 3.668,2.632 3.998,4.392 5.479,9.493 4.476,15.284 -0.511,2.879 -1.562,5.512 -3.16,7.864 -0.229,0.542 -0.575,1.036 -1.052,1.481 -0.609,0.559 -1.234,1.069 -1.893,1.513 l 1.99,0.674 c 4.427,1.481 8.357,3.373 11.812,5.676 6.17,4.096 10.99,8.885 14.445,14.33 1.398,2.204 2.518,4.459 3.388,6.745 h 2.798 c -0.971,-2.78 -2.287,-5.511 -3.966,-8.16 v 0.016 c -3.618,-5.741 -8.686,-10.792 -15.2,-15.119 -3.076,-2.056 -6.499,-3.783 -10.299,-5.215 3.176,-3.768 4.722,-8.209 4.606,-13.326 -0.094,-5.38 -1.952,-9.92 -5.588,-13.655"
         id="path581"
         style="fill:#9e0c27" />
      <path
         d="m 619.154,346.34 h -2.812 c -1.498,4.163 -2.256,8.539 -2.238,13.145 0.033,6.762 1.858,13.161 5.494,19.166 3.587,5.956 8.638,11.105 15.136,15.449 6.466,4.326 13.853,7.616 22.16,9.904 8.571,2.335 17.504,3.422 26.816,3.24 9.328,-0.18 18.229,-1.628 26.701,-4.326 v 0.018 c 8.21,-2.617 15.448,-6.203 21.716,-10.776 6.303,-4.623 11.172,-9.855 14.594,-15.728 v -0.017 h 0.017 c 3.537,-6.153 5.249,-12.552 5.1,-19.215 -0.081,-3.718 -0.724,-7.338 -1.94,-10.858 H 747.1 c 1.333,3.52 2.024,7.156 2.106,10.907 0.115,6.186 -1.465,12.142 -4.755,17.85 -3.241,5.577 -7.864,10.546 -13.868,14.939 -6.055,4.408 -13.047,7.863 -20.96,10.381 -8.243,2.615 -16.896,4.014 -25.961,4.195 -9.065,0.18 -17.752,-0.873 -26.076,-3.144 -8.013,-2.188 -15.152,-5.381 -21.388,-9.558 -6.169,-4.114 -10.939,-8.983 -14.346,-14.627 -3.372,-5.577 -5.084,-11.516 -5.116,-17.817 -0.016,-4.622 0.789,-8.998 2.418,-13.128"
         id="path583"
         style="fill:#9e0c27" />
      <path
         d="m 749.205,357.25 c -0.082,-3.619 -0.74,-7.14 -1.975,-10.546 -0.871,-2.418 -2.056,-4.787 -3.52,-7.107 -3.455,-5.445 -8.276,-10.233 -14.445,-14.329 -3.456,-2.304 -7.386,-4.196 -11.812,-5.677 l -1.99,-0.674 c -0.065,0.049 -0.132,0.083 -0.197,0.132 -0.148,0.082 -0.313,0.148 -0.478,0.197 -0.065,0 -0.099,-0.033 -0.099,-0.082 -0.016,-0.049 -0.032,-0.099 -0.049,-0.148 -0.017,-0.016 -0.017,-0.033 -0.017,-0.05 0.033,-0.032 0.065,-0.065 0.099,-0.082 -0.018,-0.016 -0.018,-0.016 -0.018,-0.033 -0.016,-0.049 -0.064,-0.066 -0.13,-0.049 -0.033,0 -0.066,-0.017 -0.083,-0.033 0.083,-0.148 0.213,-0.296 0.395,-0.411 0.116,-0.082 0.248,-0.165 0.396,-0.247 0.033,-0.017 0.065,-0.049 0.099,-0.066 0.017,0 0.033,0 0.05,0.017 h 0.032 0.033 c 0.033,-0.017 0.064,-0.05 0.082,-0.099 0.017,-0.049 0.033,-0.082 0.082,-0.098 0.033,-0.017 0.065,-0.033 0.1,-0.05 0.016,0.017 0.016,0.05 0.032,0.066 0.247,-0.247 0.51,-0.477 0.79,-0.708 0.56,-0.477 0.986,-1.036 1.3,-1.711 0.082,-0.181 0.181,-0.312 0.296,-0.427 0.1,0.164 0.082,0.361 -0.065,0.609 -0.115,0.18 -0.247,0.377 -0.379,0.575 -0.082,0.115 -0.165,0.231 -0.247,0.346 0.165,-0.1 0.329,-0.231 0.478,-0.411 0.148,-0.165 0.262,-0.346 0.378,-0.527 0.05,-0.083 0.116,-0.099 0.197,-0.049 -0.048,0.114 -0.081,0.23 -0.132,0.345 1.598,-2.352 2.649,-4.985 3.16,-7.864 1.003,-5.79 -0.478,-10.892 -4.476,-15.284 -1.036,-1.135 -2.254,-2.007 -3.669,-2.632 -2.55,-1.119 -5.183,-1.563 -7.88,-1.316 -0.181,0.049 -0.361,0.115 -0.543,0.197 -0.444,0.197 -0.888,0.28 -1.365,0.23 -1.662,0.082 -3.356,0.708 -5.05,1.909 -1.005,0.691 -1.909,1.481 -2.733,2.385 -0.821,0.906 -1.495,1.925 -2.006,3.06 -0.313,0.708 -0.691,1.316 -1.12,1.827 -0.18,0.526 -0.361,1.036 -0.542,1.546 -0.016,0.066 -0.05,0.132 -0.082,0.197 -0.017,0.115 -0.065,0.231 -0.115,0.313 -0.049,0.082 -0.114,0.165 -0.197,0.214 -0.049,0.016 -0.114,0.016 -0.165,0.033 -0.181,0.098 -0.361,0.148 -0.575,0.148 v -0.214 c -0.05,-0.049 -0.099,-0.099 -0.115,-0.165 0,-0.049 0,-0.098 0.017,-0.148 0,-0.049 0,-0.066 -0.017,-0.082 -0.099,-0.066 -0.197,-0.115 -0.312,-0.131 -0.181,-0.395 -0.246,-0.823 -0.23,-1.268 -0.839,-0.838 -1.529,-1.826 -2.073,-2.928 -1.003,-2.024 -2.468,-3.57 -4.409,-4.639 -1.464,-0.807 -2.978,-1.366 -4.558,-1.711 -0.345,0.049 -0.689,0.099 -1.019,0.164 l 0.017,0.083 c -2.222,0.937 -4.771,1.316 -7.618,1.118 -0.542,-0.033 -1.068,0.066 -1.579,0.28 -2.155,0.922 -3.981,2.204 -5.512,3.849 -1.728,1.86 -3.01,3.949 -3.816,6.252 -0.379,1.053 -0.593,2.155 -0.642,3.29 -0.082,1.481 -0.132,2.896 -0.116,4.245 0.018,0.033 0.018,0.066 0.033,0.082 0.083,0.313 0.165,0.642 0.247,0.954 0.066,0.346 0.181,0.675 0.346,0.988 0.132,0.279 0.247,0.559 0.328,0.872 0.066,0.181 0.133,0.378 0.198,0.559 0.017,0.017 0.033,0.049 0.049,0.082 0.1,0.181 0.198,0.362 0.281,0.543 0.097,0.214 0.213,0.444 0.361,0.658 0.017,0.017 0.033,0.049 0.049,0.083 v 0.082 0.066 c -0.016,0.032 -0.032,0.065 -0.049,0.082 -0.033,0.049 -0.065,0.115 -0.083,0.18 -0.017,0.034 -0.017,0.066 -0.017,0.116 0,0.017 0,0.049 0.017,0.065 0.018,0.017 0.05,0.05 0.083,0.067 0.329,0.032 0.657,-0.034 0.987,-0.198 0.213,-0.115 0.378,-0.082 0.51,0.099 0.033,0.049 0.05,0.114 0.05,0.164 0.017,0.05 0.017,0.116 0.017,0.181 0.065,-0.016 0.131,-0.016 0.212,-0.016 0.034,-0.017 0.067,0.016 0.101,0.066 -0.363,0.476 -0.905,0.674 -1.63,0.608 -0.082,-0.016 -0.181,-0.032 -0.264,-0.049 h -0.032 l 0.05,0.099 -1.597,0.444 c -1.184,0.312 -2.353,0.641 -3.487,1.003 v -0.016 c -7.896,2.517 -14.872,5.971 -20.927,10.397 -6.006,4.359 -10.547,9.278 -13.622,14.741 -0.872,1.563 -1.628,3.175 -2.254,4.82 -1.529,4.03 -2.303,8.275 -2.287,12.767 0.031,6.301 1.743,12.24 5.115,17.817 3.406,5.643 8.178,10.513 14.347,14.626 6.235,4.178 13.375,7.369 21.388,9.558 8.324,2.271 17.011,3.323 26.076,3.144 9.064,-0.182 17.718,-1.58 25.961,-4.195 7.913,-2.518 14.905,-5.973 20.96,-10.381 6.004,-4.393 10.627,-9.361 13.868,-14.938 3.287,-5.709 4.867,-11.665 4.752,-17.851"
         id="path585"
         style="fill:#d82d1c" />
      <path
         d="m 718.539,315.577 c -0.081,-0.049 -0.147,-0.033 -0.197,0.049 -0.116,0.181 -0.229,0.362 -0.378,0.527 -0.148,0.181 -0.312,0.312 -0.478,0.411 0.082,-0.115 0.165,-0.23 0.247,-0.345 0.132,-0.198 0.264,-0.395 0.379,-0.576 0.147,-0.247 0.165,-0.444 0.065,-0.609 -0.115,0.115 -0.214,0.247 -0.296,0.427 -0.313,0.676 -0.74,1.234 -1.3,1.712 -0.28,0.23 -0.543,0.46 -0.79,0.708 -0.017,-0.017 -0.017,-0.05 -0.032,-0.067 -0.034,0.017 -0.066,0.033 -0.1,0.05 -0.049,0.017 -0.065,0.049 -0.082,0.098 -0.018,0.05 -0.049,0.083 -0.082,0.099 h -0.033 -0.032 c -0.017,-0.016 -0.034,-0.016 -0.05,-0.016 -0.033,0.016 -0.065,0.049 -0.099,0.065 -0.147,0.082 -0.279,0.165 -0.396,0.247 -0.182,0.116 -0.312,0.263 -0.395,0.411 0.017,0.017 0.05,0.033 0.083,0.033 0.065,-0.016 0.114,0 0.13,0.049 0,0.018 0,0.018 0.018,0.034 -0.033,0.016 -0.065,0.049 -0.099,0.082 0,0.016 0,0.033 0.017,0.049 0.017,0.049 0.033,0.099 0.049,0.148 0,0.05 0.033,0.082 0.099,0.082 0.164,-0.049 0.329,-0.114 0.478,-0.197 0.065,-0.049 0.131,-0.082 0.197,-0.132 0.658,-0.443 1.283,-0.954 1.893,-1.513 0.477,-0.445 0.822,-0.938 1.052,-1.481 0.051,-0.115 0.084,-0.23 0.132,-0.345"
         id="path587"
         style="fill:#ffffff" />
      <path
         d="m 722.406,304.587 c -0.082,-4.656 -1.694,-8.621 -4.854,-11.862 -3.125,-3.191 -6.86,-4.755 -11.203,-4.672 -4.343,0.115 -8.012,1.842 -11.023,5.215 -1.086,1.185 -1.975,2.467 -2.648,3.833 l -0.1,0.164 c -0.395,0.856 -0.706,1.744 -0.954,2.682 -0.821,-2.172 -2.089,-4.146 -3.816,-5.939 -0.114,-0.099 -0.214,-0.198 -0.312,-0.296 -3.471,-3.242 -7.585,-4.804 -12.355,-4.722 -4.788,0.099 -8.818,1.843 -12.124,5.248 H 663 c -1.892,1.925 -3.225,4.047 -4.03,6.383 l -0.577,2.419 -0.181,1.415 c -0.033,0.476 -0.049,0.954 -0.049,1.447 0,0.477 0.016,0.937 0.049,1.415 l 0.477,2.978 0.593,1.826 c 0.246,0.576 0.526,1.152 0.839,1.712 l 0.576,1.085 c 0.689,1.086 1.53,2.106 2.501,3.077 3.372,3.34 7.436,5.017 12.19,5.017 4.771,0 8.834,-1.677 12.19,-5.017 0.872,-0.872 1.646,-1.777 2.287,-2.731 0.575,-0.181 1.185,-0.28 1.826,-0.313 0.428,-0.016 0.839,-0.049 1.217,-0.098 0.444,0.148 0.89,0.263 1.333,0.361 0.395,0.543 0.823,1.07 1.3,1.58 3.061,3.339 6.811,5.018 11.236,5.034 3.291,-0.016 6.219,-0.97 8.802,-2.879 l -0.74,-0.247 2.336,-1.464 c 0.411,-0.279 0.674,-0.461 0.789,-0.543 l 0.017,-0.016 c 3.059,-3.372 4.54,-7.403 4.425,-12.092"
         id="path589"
         style="fill:#ffffff" />
      <path
         d="m 691.401,302.909 c -1.555,-2.089 -3.563,-3.273 -6.037,-3.586 -2.489,-0.313 -4.714,0.345 -6.69,1.974 -1.976,1.645 -3.096,3.767 -3.393,6.383 -0.295,2.616 0.327,4.952 1.868,7.042 1.555,2.089 3.562,3.273 6.036,3.586 2.474,0.312 4.684,-0.346 6.66,-1.974 1.977,-1.629 3.097,-3.751 3.393,-6.383 0.312,-2.616 -0.296,-4.953 -1.837,-7.042"
         id="path591"
         style="fill:#282525" />
      <path
         d="m 717.993,309.584 c 0.312,-2.632 -0.28,-4.985 -1.777,-7.074 -1.497,-2.09 -3.438,-3.291 -5.856,-3.619 -2.387,-0.329 -4.542,0.312 -6.45,1.941 -1.908,1.645 -3.01,3.767 -3.322,6.383 -0.281,2.632 0.312,4.985 1.776,7.074 1.498,2.089 3.438,3.291 5.857,3.62 2.418,0.312 4.573,-0.346 6.481,-1.974 1.908,-1.628 3.011,-3.734 3.291,-6.351"
         id="path593"
         style="fill:#1c1616" />
      <path
         d="m 713.982,356.282 c -5.366,1.19 -10.773,2.188 -16.193,3.007 -5.419,0.819 -10.892,1.449 -16.443,1.859 -5.551,0.411 -11.376,0.238 -17.466,-0.506 l -7.218,-1.283 c 3.098,13.492 12.06,20.752 26.901,21.795 4.345,0.328 8.989,0.067 13.91,-0.776 0.039,-0.007 0.066,-0.011 0.093,-0.013 4.921,-0.616 9.566,-1.731 13.91,-3.345 14.842,-5.44 23.805,-15.354 26.902,-29.764 l -7.219,3.421 c -6.088,2.548 -11.808,4.416 -17.177,5.605"
         id="path595"
         style="fill:#282525" />
      <path
         d="m 697.382,358.411 v 0.017 c 0.092,-0.03 0.146,-0.038 0.158,-0.04 l -0.158,0.023 z"
         id="path597"
         style="fill:#282525" />
      <path
         d="m 682.659,326.787 c -0.773,5.001 0.312,9.657 3.225,13.984 2.944,4.327 6.877,7.058 11.812,8.193 4.919,1.118 9.376,0.313 13.391,-2.435 4.031,-2.714 6.434,-6.58 7.207,-11.582 0.772,-5.001 -0.313,-9.673 -3.258,-14.016 -2.911,-4.328 -6.845,-7.042 -11.78,-8.161 -4.918,-1.135 -9.394,-0.345 -13.424,2.402 -4.015,2.748 -6.4,6.614 -7.173,11.615"
         id="path599"
         style="fill:#e78c00" />
      <path
         d="m 705.745,412.746 c -1.93,-4.017 -3.521,-7.166 -4.795,-9.413 -0.144,-0.442 -0.39,-0.99 -0.744,-1.646 -9.396,2.531 -18.49,2.619 -27.284,0.266 -0.371,0.371 -0.672,0.69 -0.903,0.975 -0.088,0.088 -0.176,0.176 -0.264,0.283 -2.549,3.096 -4.583,7.13 -6.105,12.103 -1.593,5.131 -2.885,9.749 -3.894,13.854 -0.017,0.017 -0.017,0.053 -0.017,0.089 -2.425,7.928 -0.638,14.632 5.361,20.117 5.591,5.042 12.687,7.645 21.304,7.804 8.759,0.158 15.377,-2.424 19.835,-7.733 5.114,-6.28 5.733,-15.058 1.841,-26.311 -1.115,-3.257 -2.566,-6.725 -4.335,-10.388"
         id="path601"
         style="fill:#d82d1c" />
      <path
         d="m 624.382,427.853 c 0.069,-0.166 0.129,-0.346 0.211,-0.525 0.001,-0.022 0.014,-0.033 0.025,-0.044 0.652,-1.403 1.556,-2.813 2.735,-4.202 1.104,-1.304 2.351,-2.492 3.762,-3.567 1.75,-1.327 3.752,-2.141 6.028,-2.44 0.907,-0.12 1.852,-0.146 2.804,-0.09 0.022,0.002 0.022,0.002 0.032,0.014 0.07,0.004 0.138,0.01 0.216,0.05 0.091,0.029 0.182,0.035 0.271,0.065 1.27,0.124 2.337,0.313 3.206,0.548 3.785,-5.223 8.154,-9.896 13.141,-14.034 4.05,-3.408 8.357,-6.419 12.915,-9.042 1.045,0.038 2.093,0.031 3.13,0.013 0.114,0.008 0.218,0.004 0.332,0.012 0.562,0.029 1.124,0.056 1.672,0.118 -5.874,3.015 -11.319,6.646 -16.382,10.894 -4.67,3.883 -8.799,8.264 -12.4,13.153 -0.56,0.766 -1.098,1.534 -1.637,2.324 -0.044,-0.026 -0.099,-0.065 -0.153,-0.103 -0.377,-0.212 -0.776,-0.424 -1.188,-0.602 -0.335,-0.162 -0.693,-0.279 -1.08,-0.354 -0.069,-0.004 -0.125,-0.02 -0.182,-0.035 -0.622,-0.148 -1.282,-0.263 -2.002,-0.325 -0.218,-0.026 -0.436,-0.03 -0.666,-0.023 -0.563,-0.006 -1.129,0.013 -1.698,0.075 l -0.022,-0.002 c -0.012,0.012 -0.012,0.012 -0.035,0.01 -1.324,0.183 -2.526,0.582 -3.618,1.205 -0.371,0.216 -0.732,0.445 -1.062,0.709 -0.012,0.011 -0.036,0.031 -0.049,0.043 -0.365,0.273 -0.719,0.559 -1.062,0.856 -0.81,0.704 -1.552,1.456 -2.229,2.259 -0.515,0.598 -0.96,1.199 -1.35,1.816 -0.388,0.617 -0.729,1.214 -1.013,1.804 -0.546,1.228 -0.836,2.403 -0.88,3.517 l 0.01,0.013 c -10e-4,0.022 -0.002,0.046 0.008,0.058 l -0.012,0.011 c 0.012,0.14 0.003,0.276 0.017,0.415 -0.004,0.047 0.006,0.082 0.049,0.107 0.022,0.025 0.056,0.039 0.102,0.041 l 0.012,-0.009 c 0.046,10e-4 0.082,-0.007 0.107,-0.051 l 0.013,-0.011 c 0.024,-0.021 0.061,-0.053 0.111,-0.119 0.207,-0.182 0.625,-0.52 1.224,-1.019 0.036,-0.031 0.071,-0.04 0.094,-0.038 0.034,-0.011 0.069,0.004 0.103,0.018 0.032,0.037 0.054,0.061 0.052,0.084 0.02,0.048 0.005,0.08 -0.007,0.092 -0.271,0.751 -0.503,1.426 -0.697,2.046 -0.686,2.205 -0.885,3.584 -0.602,4.157 0.01,0.013 0.018,0.047 0.017,0.07 -0.04,1.217 0.401,2.468 1.358,3.766 0.032,0.014 0.055,0.039 0.073,0.086 l 0.011,0.014 c 0.074,0.085 0.139,0.158 0.201,0.255 0.022,0.002 0.033,0.015 0.044,0.026 0.01,0.012 0.044,0.025 0.066,0.027 l 0.013,-0.01 c 0.033,0.014 0.057,0.016 0.079,0.016 0.013,-0.01 0.013,-0.01 0.024,-0.021 0.035,-0.008 0.05,-0.041 0.062,-0.075 0.101,-0.28 0.212,-0.548 0.324,-0.841 l 0.013,-0.01 0.002,-0.023 c 0.099,-0.258 0.234,-0.547 0.371,-0.859 0.3,-0.67 0.679,-1.471 1.137,-2.428 0.011,0.012 0.011,0.012 0.023,0.002 0.027,-0.068 0.078,-0.135 0.13,-0.199 l 10e-4,-0.023 c 0.253,-0.327 0.736,-0.811 1.483,-1.461 0.014,-0.032 0.049,-0.041 0.096,-0.039 0.022,0.002 0.045,0.004 0.09,0.029 0.022,0.002 0.044,0.027 0.062,0.074 -10e-4,0.023 0.009,0.059 -0.006,0.092 -0.125,0.475 -0.251,0.949 -0.352,1.402 l 0.01,0.011 c -0.361,1.54 -0.632,2.765 -0.789,3.697 -10e-4,0.022 -0.014,0.033 -0.016,0.057 -0.005,0.068 -0.032,0.136 -0.038,0.204 l -3.713,3.224 c -0.098,-0.087 -0.206,-0.186 -0.313,-0.284 -0.551,-0.512 -0.936,-0.931 -1.156,-1.232 -1.507,-1.96 -2.154,-3.893 -1.974,-5.791 0.012,-0.011 0.012,-0.011 0.014,-0.033 0.059,-0.502 0.151,-0.99 0.301,-1.486 l 0.012,-0.01 c 0.026,-0.045 0.018,-0.08 -0.015,-0.117 -0.607,-1.169 -0.908,-2.457 -0.902,-3.838 0.012,-0.01 0.012,-0.01 10e-4,-0.022 0.008,-0.286 0.029,-0.585 0.051,-0.882 0.097,-1.057 0.38,-2.141 0.849,-3.26"
         id="path603"
         style="fill:#9e0c27" />
      <path
         d="m 673.66,404.606 0.012,-0.01 c 0.168,-0.104 0.337,-0.207 0.493,-0.299 l -19.501,16.934 c 0.781,-0.958 1.581,-1.868 2.405,-2.777 4.891,-5.386 10.416,-9.99 16.591,-13.848"
         id="path605"
         style="fill:#9e0c27" />
      <path
         d="m 675.022,406.821 0.014,-0.012 c -5.972,3.745 -11.327,8.2 -16.042,13.392 -2.722,3.03 -5.216,6.249 -7.447,9.671 0.044,0.025 0.065,0.051 0.097,0.086 1.222,1.284 2.023,2.157 2.396,2.587 0.436,0.502 0.826,1.001 1.193,1.499 0.527,0.705 0.898,1.306 1.128,1.793 0.307,0.725 0.532,1.431 0.668,2.13 0.052,0.235 0.087,0.571 0.126,0.988 0.01,0.012 0.01,0.012 -0.002,0.022 -0.115,1.799 -1.042,3.355 -2.747,4.686 -0.022,-0.002 -0.047,0.02 -0.06,0.03 -1.417,1.165 -3.367,1.419 -5.828,0.739 -0.023,-0.002 -0.033,-0.014 -0.058,-0.016 -0.756,-0.202 -1.506,-0.496 -2.273,-0.885 l -0.01,-0.012 c -0.022,-0.002 -0.033,-0.014 -0.044,-0.025 -0.013,0.01 -0.025,0.02 -0.049,0.019 -0.047,0.021 -0.071,0.042 -0.097,0.085 -0.37,0.688 -0.594,1.074 -0.684,1.195 0.012,0.012 0.012,0.012 0.01,0.035 l -0.012,0.011 c -1.312,2.278 -2.695,3.952 -4.153,5.047 -2.237,1.705 -4.583,2.323 -7.023,1.841 l -0.01,-0.013 -0.023,-0.002 c -0.953,-0.183 -1.849,-0.544 -2.676,-1.052 l -0.012,0.011 0.002,-0.022 c -0.023,-0.002 -0.023,-0.002 -0.034,-0.014 l -0.013,0.01 c -0.771,-0.491 -1.376,-1.039 -1.829,-1.636 -0.655,-0.828 -1.068,-1.651 -1.275,-2.482 l -0.011,-0.013 c -0.01,-0.012 -0.01,-0.012 -0.009,-0.035 -0.088,-0.375 -0.144,-0.735 -0.174,-1.117 l 0.013,-0.011 c -0.012,-0.013 -0.033,-0.036 -0.032,-0.06 l -0.012,0.01 c 0.002,-0.022 0.004,-0.045 -0.019,-0.047 -0.153,-0.125 -0.327,-0.276 -0.498,-0.45 l 3.713,-3.224 c -0.178,1.23 -0.321,2.129 -0.408,2.698 l -0.012,0.011 c -0.013,0.011 -0.013,0.011 -0.015,0.033 -0.018,0.103 -0.024,0.193 -0.031,0.285 -0.002,0.023 -0.002,0.023 -0.003,0.046 l -0.013,0.011 c -0.027,0.391 0.004,0.771 0.081,1.134 0.012,0.013 0.012,0.013 0.009,0.035 l 0.013,-0.011 c -10e-4,0.022 -10e-4,0.022 -0.003,0.045 0.149,0.494 0.413,0.996 0.814,1.508 l 0.008,0.035 c 0.275,0.342 0.645,0.667 1.119,0.942 l -0.011,0.011 0.01,0.012 c 0.575,0.34 1.191,0.579 1.848,0.716 0.013,-0.009 0.013,-0.009 0.022,0.003 1.672,0.291 3.29,-0.147 4.845,-1.305 0.003,-0.021 0.015,-0.032 0.027,-0.043 1.205,-0.939 2.363,-2.355 3.453,-4.268 l 0.012,-0.013 0.002,-0.021 c 0.066,-0.122 0.304,-0.543 0.698,-1.252 0.013,-0.01 0.024,-0.021 0.015,-0.033 0.012,-0.011 0.012,-0.011 0.024,-0.021 0.014,-0.033 0.017,-0.079 0.018,-0.103 -0.008,-0.034 -0.018,-0.07 -0.026,-0.104 -0.037,-0.291 -0.103,-0.664 -0.197,-1.119 0.002,-0.023 0.005,-0.068 0.006,-0.091 0.014,-0.035 0.028,-0.067 0.063,-0.077 0.035,-0.008 0.07,-0.018 0.093,-0.016 0.71,0.049 1.317,0.08 1.81,0.127 0.823,0.058 1.326,0.117 1.483,0.174 0.023,0.002 0.023,0.002 0.033,0.014 0.321,0.173 0.646,0.321 0.958,0.459 0.402,0.166 0.807,0.31 1.188,0.429 0.022,0.002 0.034,0.013 0.057,0.015 0.634,0.16 1.203,0.247 1.723,0.227 0.689,0.002 1.288,-0.174 1.785,-0.52 l 0.024,-0.021 c 0.022,0.002 0.022,0.002 0.013,-0.01 1.168,-0.908 1.738,-1.984 1.712,-3.229 0.012,-0.011 0.001,-0.023 0.003,-0.047 -0.069,-1.143 -0.584,-2.33 -1.533,-3.547 -0.012,-0.013 -0.012,-0.013 -0.01,-0.036 -0.169,-0.219 -0.393,-0.454 -0.653,-0.679 -0.062,-0.096 -0.148,-0.194 -0.223,-0.281 -0.661,-0.737 -1.346,-1.475 -2.028,-2.237 -0.311,-0.331 -0.633,-0.653 -0.957,-0.953 -0.204,-0.209 -0.419,-0.408 -0.639,-0.585 l 0.61,-0.98 c 0.195,-0.32 0.401,-0.629 0.605,-0.914 0.002,-0.023 0.002,-0.023 0.014,-0.033 1.546,-2.354 3.212,-4.596 5,-6.77 l 19.501,-16.934 c 4.122,-2.483 8.395,-4.645 12.782,-6.497 0.18,0.034 0.363,0.069 0.545,0.106 0.102,0.02 0.193,0.025 0.309,0.033 0.674,0.553 1.461,0.988 2.345,1.338 -5.231,2.073 -10.265,4.595 -15.122,7.544"
         id="path607"
         style="fill:#9e0c27" />
      <path
         d="m 629.396,424.812 c 0.679,-0.803 1.421,-1.555 2.23,-2.259 0.343,-0.298 0.696,-0.583 1.062,-0.856 0.013,-0.012 0.037,-0.031 0.049,-0.043 0.329,-0.264 0.69,-0.493 1.062,-0.709 1.092,-0.623 2.294,-1.022 3.619,-1.205 0.022,0.002 0.022,0.002 0.034,-0.01 l 0.022,0.002 c 0.569,-0.062 1.135,-0.081 1.698,-0.075 0.231,-0.007 0.448,-0.003 0.666,0.023 0.72,0.062 1.38,0.177 2.002,0.325 0.057,0.016 0.112,0.031 0.182,0.035 0.387,0.074 0.745,0.191 1.08,0.354 0.412,0.178 0.812,0.39 1.189,0.602 0.054,0.039 0.108,0.076 0.152,0.103 0.539,-0.79 1.077,-1.559 1.637,-2.324 3.601,-4.89 7.73,-9.271 12.4,-13.153 5.062,-4.247 10.508,-7.879 16.382,-10.894 2.368,0.202 4.689,0.571 6.986,1.137 0.214,0.05 0.431,0.076 0.649,0.079 0.242,0.156 0.508,0.313 0.762,0.458 l -9.131,7.929 c -0.157,0.094 -0.3,0.175 -0.457,0.268 l -0.012,0.01 c -6.175,3.857 -11.7,8.462 -16.591,13.848 -0.812,0.898 -1.611,1.809 -2.369,2.744 l -23.459,20.373 c 0.004,-0.071 0.02,-0.126 0.024,-0.194 0.002,-0.023 0.015,-0.034 0.016,-0.057 0.157,-0.933 0.428,-2.157 0.789,-3.696 l -0.01,-0.012 c 0.101,-0.453 0.227,-0.927 0.352,-1.402 0.014,-0.033 0.005,-0.068 0.006,-0.092 -0.019,-0.047 -0.04,-0.072 -0.062,-0.074 -0.045,-0.025 -0.067,-0.027 -0.09,-0.029 -0.047,-0.002 -0.082,0.007 -0.096,0.039 -0.747,0.65 -1.23,1.134 -1.483,1.461 l -0.001,0.023 c -0.052,0.064 -0.102,0.131 -0.131,0.199 -0.012,0.01 -0.012,0.01 -0.022,-0.002 -0.458,0.957 -0.837,1.758 -1.137,2.428 -0.137,0.312 -0.272,0.602 -0.371,0.859 l -0.002,0.023 -0.013,0.01 c -0.112,0.293 -0.224,0.561 -0.324,0.841 -0.013,0.034 -0.027,0.067 -0.062,0.077 -0.012,0.01 -0.012,0.01 -0.024,0.02 -0.022,0 -0.046,-0.002 -0.079,-0.016 l -0.013,0.01 c -0.022,-0.002 -0.057,-0.016 -0.066,-0.027 -0.011,-0.012 -0.021,-0.024 -0.044,-0.026 -0.063,-0.097 -0.127,-0.17 -0.201,-0.255 l -0.011,-0.014 c -0.018,-0.047 -0.041,-0.072 -0.074,-0.086 -0.956,-1.298 -1.397,-2.549 -1.357,-3.766 10e-4,-0.023 -0.007,-0.058 -0.018,-0.07 -0.282,-0.573 -0.082,-1.952 0.603,-4.157 0.194,-0.62 0.426,-1.295 0.697,-2.046 0.012,-0.012 0.026,-0.044 0.007,-0.092 0.002,-0.023 -0.021,-0.047 -0.052,-0.084 -0.032,-0.014 -0.068,-0.027 -0.103,-0.018 -0.022,-0.002 -0.058,0.007 -0.094,0.038 -0.6,0.499 -1.016,0.837 -1.224,1.019 -0.051,0.066 -0.087,0.097 -0.111,0.119 l -0.013,0.011 c -0.025,0.044 -0.062,0.052 -0.107,0.051 l -0.012,0.009 c -0.046,-0.002 -0.079,-0.016 -0.102,-0.041 -0.043,-0.025 -0.053,-0.061 -0.05,-0.107 -0.013,-0.139 -0.004,-0.275 -0.016,-0.415 l 0.012,-0.011 c -0.01,-0.012 -0.009,-0.035 -0.008,-0.058 l -0.011,-0.013 c 0.045,-1.113 0.335,-2.289 0.881,-3.517 0.283,-0.59 0.625,-1.187 1.013,-1.804 0.391,-0.619 0.836,-1.221 1.35,-1.818"
         id="path609"
         style="fill:#d82d1c" />
      <path
         d="m 683.26,396.4 c 1.175,0.634 2.419,1.103 3.688,1.399 -4.412,1.875 -8.686,4.038 -12.818,6.529 l 9.13,-7.928 z"
         id="path611"
         style="fill:#d82d1c" />
      <path
         d="m 630.793,444.323 c 0.002,-0.022 0.002,-0.022 0.015,-0.033 l 0.012,-0.011 c 0.087,-0.569 0.23,-1.468 0.422,-2.708 l 23.459,-20.373 c -1.786,2.176 -3.477,4.439 -5.036,6.803 -0.012,0.01 -0.012,0.01 -0.014,0.033 -0.204,0.285 -0.41,0.594 -0.604,0.914 l -0.611,0.98 c 0.22,0.177 0.435,0.376 0.639,0.585 0.324,0.3 0.646,0.622 0.957,0.954 0.683,0.762 1.367,1.5 2.028,2.236 0.074,0.087 0.16,0.186 0.223,0.281 0.261,0.225 0.484,0.46 0.653,0.679 -0.002,0.023 -0.002,0.023 0.01,0.036 0.949,1.217 1.464,2.404 1.533,3.547 -0.002,0.023 0.009,0.036 -0.003,0.047 0.027,1.244 -0.544,2.32 -1.712,3.229 0.01,0.012 0.01,0.012 -0.013,0.01 l -0.024,0.021 c -0.497,0.346 -1.096,0.521 -1.785,0.52 -0.52,0.021 -1.089,-0.066 -1.723,-0.227 -0.022,-0.002 -0.034,-0.013 -0.056,-0.015 -0.383,-0.119 -0.787,-0.263 -1.189,-0.429 -0.312,-0.139 -0.636,-0.286 -0.958,-0.459 -0.01,-0.013 -0.01,-0.013 -0.033,-0.014 -0.157,-0.057 -0.659,-0.116 -1.483,-0.174 -0.492,-0.047 -1.1,-0.078 -1.81,-0.127 -0.022,-0.002 -0.058,0.008 -0.093,0.016 -0.035,0.01 -0.05,0.042 -0.063,0.077 -10e-4,0.022 -0.004,0.067 -0.006,0.091 0.096,0.455 0.16,0.827 0.197,1.118 0.009,0.035 0.019,0.071 0.026,0.105 -10e-4,0.023 -0.003,0.069 -0.018,0.103 -0.013,0.011 -0.013,0.011 -0.024,0.021 0.01,0.013 -0.002,0.023 -0.015,0.033 -0.395,0.709 -0.632,1.13 -0.697,1.252 l -0.003,0.021 -0.012,0.012 c -1.09,1.911 -2.248,3.327 -3.453,4.268 -0.013,0.011 -0.024,0.021 -0.026,0.043 -1.555,1.157 -3.174,1.596 -4.845,1.305 -0.011,-0.012 -0.011,-0.012 -0.023,-0.002 -0.656,-0.138 -1.272,-0.377 -1.846,-0.717 l -0.012,-0.012 0.012,-0.011 c -0.476,-0.275 -0.845,-0.601 -1.119,-0.942 l -0.009,-0.035 c -0.401,-0.512 -0.664,-1.014 -0.814,-1.508 0.002,-0.022 0.002,-0.022 0.003,-0.045 l -0.012,0.011 c 0.002,-0.022 0.002,-0.022 -0.01,-0.035 -0.077,-0.363 -0.108,-0.743 -0.08,-1.134 l 0.012,-0.011 c 10e-4,-0.022 10e-4,-0.022 0.003,-0.046 0.006,-0.09 0.012,-0.18 0.03,-0.283 m 11.933,-3.912 c -0.01,-0.012 -0.01,-0.012 0.013,-0.01 -0.022,-0.002 -0.046,-0.003 -0.069,-0.005 0.011,0.011 0.011,0.011 -10e-4,0.022 0.022,0.004 0.045,0.005 0.057,-0.007"
         id="path613"
         style="fill:#d82d1c" />
      <path
         d="m 642.669,440.396 c 0.023,0.002 0.047,0.003 0.069,0.005 -0.022,-0.002 -0.022,-0.002 -0.013,0.01 -0.012,0.012 -0.034,0.011 -0.058,0.008 0.013,-0.012 0.013,-0.012 0.002,-0.023"
         id="path615"
         style="fill:#9e0c27" />
      <path
         d="m 730.576,390.03 c 0.016,-0.016 0.033,-0.016 0.049,-0.032 -33.479,4.64 -67.206,3.503 -101.178,-3.406 2.023,1.892 4.277,3.651 6.744,5.313 6.235,4.179 13.376,7.37 21.388,9.559 8.324,2.271 17.012,3.324 26.076,3.143 9.064,-0.18 17.719,-1.578 25.961,-4.195 7.913,-2.517 14.905,-5.972 20.96,-10.382"
         id="path617"
         style="fill:#d82d1c" />
      <path
         d="m 704.022,401.136 c -10.71,0.756 -22.44,1.135 -35.19,1.117 13.572,7.471 25.303,7.092 35.19,-1.117"
         id="path619"
         style="fill:#d82d1c" />
    </g>
  </g>
</svg>
