<?xml version="1.0" encoding="UTF-8" standalone="no"?>
<!-- Created with Inkscape (http://www.inkscape.org/) -->

<svg
   xmlns:dc="http://purl.org/dc/elements/1.1/"
   xmlns:cc="http://creativecommons.org/ns#"
   xmlns:rdf="http://www.w3.org/1999/02/22-rdf-syntax-ns#"
   xmlns:svg="http://www.w3.org/2000/svg"
   xmlns="http://www.w3.org/2000/svg"
   version="1.1"
   width="150.09"
   height="220"
   id="svg4517">
  <defs
     id="defs4519" />
  <metadata
     id="metadata4522">
    <rdf:RDF>
      <cc:Work
         rdf:about="">
        <dc:format>image/svg+xml</dc:format>
        <dc:type
           rdf:resource="http://purl.org/dc/dcmitype/StillImage" />
        <dc:title></dc:title>
      </cc:Work>
    </rdf:RDF>
  </metadata>
  <g
     transform="translate(0,-832.36218)"
     id="layer1">
    <g
       transform="translate(-112.86872,804.49436)"
       id="g259">
      <path
         d="m 202.964,123.39 -0.001,-1.663 c -2.116,-0.021 -4.322,-0.052 -6.642,-0.083 l -0.397,-12.592 c 2.469,-0.319 4.819,-0.64 7.056,-0.961 l 0.007,-1.459 c -3.173,0.3 -7.056,0.665 -11.659,1.093 l 3.671,16.016 c 3.151,-0.156 5.803,-0.271 7.965,-0.351"
         id="path261"
         style="fill:#255f27" />
      <path
         d="m 202.963,121.727 0.017,-13.636 c -2.237,0.32 -4.587,0.641 -7.056,0.961 l 0.397,12.592 c 2.32,0.031 4.526,0.061 6.642,0.083"
         id="path263"
         style="fill:#9fc94c" />
      <path
         d="m 209.595,98.836 -28.957,-10.36 c -3.288,13.409 -8.67,23.333 -16.13,29.768 -0.012,0.004 -0.037,0.014 -0.055,0.036 -0.627,0.461 -1.238,0.958 -1.823,1.487 -4.553,3.927 -8.118,9.045 -10.697,15.353 -3.54,8.663 -4.193,17.013 -1.955,25.061 2.209,7.955 6.613,13.29 13.224,16.002 6.603,2.688 13.491,1.966 20.647,-2.162 7.217,-4.182 12.599,-10.6 16.141,-19.262 1.656,-4.055 2.678,-8.041 3.071,-11.954 0.188,-1.996 0.185,-3.939 -0.028,-5.829 -0.259,-2.269 -0.492,-4.524 -0.72,-6.769 l -0.01,-0.024 c -0.58,-9.133 1.848,-19.586 7.292,-31.347"
         id="path265"
         style="fill:#255f27" />
      <path
         d="m 180.638,88.476 c -3.288,13.409 -8.67,23.333 -16.129,29.768 -0.013,0.004 -0.038,0.014 -0.056,0.036 -0.627,0.461 -1.238,0.958 -1.823,1.487 -4.553,3.927 -8.118,9.045 -10.696,15.353 -3.542,8.663 -4.194,17.013 -1.955,25.061 2.207,7.955 6.611,13.29 13.222,16.002 6.603,2.688 13.491,1.966 20.647,-2.162 7.217,-4.182 12.599,-10.6 16.141,-19.262 1.656,-4.055 2.678,-8.041 3.071,-11.954 0.188,-1.996 0.186,-3.939 -0.028,-5.829 -0.259,-2.269 -0.491,-4.524 -0.72,-6.769 l -0.011,-0.024 c -0.58,-9.133 1.848,-19.585 7.292,-31.347 l -28.955,-10.36 z"
         id="path267"
         style="fill:none;stroke:#255f27;stroke-width:1.47529995;stroke-linecap:round;stroke-linejoin:round;stroke-miterlimit:10" />
      <path
         d="m 208.594,99.263 -27.435,-9.817 c -3.347,13.187 -8.742,22.975 -16.165,29.365 -0.036,0.015 -0.067,0.041 -0.098,0.069 -0.607,0.439 -1.204,0.922 -1.773,1.438 -0.003,0.009 -0.003,0.009 -0.006,0.017 -4.472,3.85 -7.971,8.875 -10.499,15.064 -3.472,8.493 -4.112,16.688 -1.929,24.584 l 0.01,0.002 c 2.138,7.707 6.402,12.876 12.784,15.515 6.405,2.588 13.067,1.884 19.997,-2.107 l 0.003,-0.009 c 7.08,-4.111 12.354,-10.411 15.825,-18.905 1.629,-3.984 2.638,-7.895 3.026,-11.742 0.186,-1.946 0.173,-3.834 -0.03,-5.68 l -0.003,0.008 c -0.249,-2.244 -0.49,-4.483 -0.711,-6.695 -0.011,-0.043 -0.023,-0.088 -0.023,-0.138 -0.584,-9.055 1.76,-19.374 7.027,-30.969"
         id="path269"
         style="fill:#9fc94c" />
      <path
         d="m 169.314,112.955 c -4.007,-1.549 -8.448,-1.794 -13.336,-0.738 -6.856,2.03 -11.73,6.706 -14.631,14.009 -0.315,0.914 -0.603,2.198 -0.854,3.831 l 10.493,0.014 c -0.239,-1.1 -0.395,-2.318 -0.476,-3.676 0.081,1.358 0.237,2.577 0.476,3.676 0.624,2.864 1.785,4.86 3.492,5.991 0.406,0.185 0.804,0.315 1.2,0.389 0.749,0.158 1.498,0.113 2.246,-0.155 0.203,-0.073 0.397,-0.166 0.582,-0.267 0.528,-0.313 0.951,-0.766 1.268,-1.347 0.38,-0.709 0.593,-1.486 0.658,-2.308 0.047,-0.666 0.048,-1.34 -0.007,-2.022 -0.008,-0.194 -0.027,-0.38 -0.045,-0.574 0.018,0.194 0.037,0.38 0.045,0.574 0.055,0.683 0.054,1.357 0.007,2.022 -0.065,0.821 -0.278,1.598 -0.658,2.308 -0.316,0.581 -0.74,1.033 -1.268,1.347 0.156,0.712 0.348,1.414 0.58,2.098 0.708,2.088 2.091,3.567 4.131,4.447 0.775,0.242 1.504,0.206 2.189,-0.107 0.628,-0.378 1.173,-0.828 1.646,-1.375 0.074,-0.081 0.147,-0.175 0.212,-0.257 0.093,-0.111 0.175,-0.221 0.249,-0.332 0.065,-0.083 0.121,-0.175 0.186,-0.259 0.046,-0.075 0.083,-0.146 0.13,-0.222 0.342,-0.589 0.639,-1.255 0.871,-1.984 0.417,-1.384 0.613,-3.029 0.57,-4.94 0.043,1.912 -0.152,3.556 -0.57,4.94 -0.232,0.729 -0.529,1.395 -0.871,1.984 -0.047,0.075 -0.083,0.147 -0.13,0.222 0.416,0.472 0.636,0.721 0.664,0.749 0.037,0.028 0.064,0.065 0.093,0.102 1.245,1.23 2.694,1.648 4.357,1.235 2.274,-0.911 3.671,-2.719 4.191,-5.407 0.204,-1.33 0.308,-2.613 0.319,-3.852 0.012,-1.135 -0.071,-2.244 -0.235,-3.306 v -0.019 c -0.029,-0.13 -0.046,-0.258 -0.065,-0.379 -0.1,-0.572 -0.229,-1.136 -0.376,-1.69 -0.064,-0.259 -0.147,-0.517 -0.229,-0.776 0.083,0.259 0.165,0.518 0.229,0.776 0.147,0.555 0.276,1.119 0.376,1.69 0.019,0.121 0.036,0.25 0.065,0.379 0.535,-0.046 0.997,-0.165 1.386,-0.377 0.323,-0.174 0.592,-0.395 0.805,-0.682 0.277,-0.369 0.472,-0.831 0.592,-1.375 0.355,-2.974 -0.397,-5.708 -2.251,-8.205 -0.008,-0.019 -0.026,-0.037 -0.036,-0.056 l -0.304,-0.388 c -0.028,-0.037 -0.065,-0.073 -0.092,-0.111 -1.975,-2.449 -4.597,-4.309 -7.874,-5.597"
         id="path271"
         style="fill:#9fc94c" />
      <path
         d="m 150.51,126.396 c 0.082,1.358 0.236,2.577 0.476,3.676 m 25.431,-3.17 c 0.083,0.259 0.165,0.517 0.23,0.776 0.147,0.554 0.275,1.118 0.376,1.689 0.019,0.122 0.036,0.25 0.064,0.379 m 0,0.001 v 0.019 c 0.165,1.062 0.246,2.171 0.235,3.306 -0.011,1.238 -0.115,2.521 -0.319,3.852 -0.521,2.687 -1.917,4.496 -4.191,5.407 -1.664,0.413 -3.113,-0.005 -4.357,-1.235 -0.028,-0.036 -0.056,-0.073 -0.093,-0.102 -0.028,-0.028 -0.249,-0.276 -0.664,-0.749 m 1.571,-7.146 c 0.043,1.911 -0.152,3.555 -0.57,4.94 -0.232,0.729 -0.529,1.393 -0.871,1.983 -0.047,0.075 -0.083,0.148 -0.13,0.223 m 0,0 c -0.065,0.083 -0.12,0.175 -0.186,0.259 -0.074,0.11 -0.156,0.221 -0.249,0.332 -0.065,0.083 -0.138,0.176 -0.212,0.257 -0.472,0.546 -1.018,0.998 -1.646,1.375 -0.685,0.312 -1.415,0.349 -2.19,0.107 -2.04,-0.88 -3.423,-2.359 -4.131,-4.447 -0.23,-0.684 -0.423,-1.386 -0.58,-2.098 m 1.874,-6.251 c 0.018,0.194 0.037,0.38 0.045,0.574 0.055,0.683 0.054,1.357 0.008,2.021 -0.066,0.822 -0.28,1.6 -0.66,2.31 -0.316,0.582 -0.74,1.033 -1.268,1.346 m 0.001,0 0,0 c -0.185,0.102 -0.378,0.194 -0.582,0.268 -0.748,0.266 -1.497,0.312 -2.246,0.154 -0.396,-0.074 -0.793,-0.204 -1.2,-0.389 -1.707,-1.129 -2.868,-3.126 -3.492,-5.991 m 0.001,-0.001 -10.493,-0.014 c 0.252,-1.633 0.54,-2.917 0.854,-3.831 2.901,-7.303 7.774,-11.979 14.632,-14.01 4.887,-1.055 9.33,-0.81 13.335,0.739 3.278,1.288 5.898,3.148 7.872,5.598 0.027,0.038 0.064,0.075 0.092,0.111 l 0.304,0.389 c 0.009,0.017 0.027,0.037 0.037,0.055 1.853,2.496 2.605,5.23 2.25,8.205 -0.12,0.544 -0.314,1.007 -0.591,1.376 -0.212,0.285 -0.481,0.507 -0.805,0.681 -0.389,0.212 -0.851,0.332 -1.386,0.377"
         id="path273"
         style="fill:none;stroke:#255f27;stroke-width:1.47749996;stroke-linecap:round;stroke-linejoin:round;stroke-miterlimit:10" />
      <path
         d="m 161.529,57.626 -0.789,7.951 c 3.393,1.514 7.114,2.522 11.163,3.025 3.554,0.465 7.14,1.13 10.752,2.01 19.648,3.212 42.394,3.794 68.238,1.745 l -0.228,-9.078 -89.136,-5.653 z"
         id="path275"
         style="fill:#5a6074" />
      <path
         d="m 161.529,57.626 89.137,5.653 0.228,9.078 c -25.845,2.049 -48.59,1.467 -68.238,-1.745 -3.613,-0.88 -7.199,-1.545 -10.752,-2.01 -4.049,-0.503 -7.77,-1.511 -11.163,-3.025 l 0.788,-7.951 z"
         id="path277"
         style="fill:none;stroke:#737a91;stroke-width:1.46510005;stroke-linecap:round;stroke-linejoin:round;stroke-miterlimit:10" />
      <path
         d="m 235.31,69.239 c -0.689,-0.57 -1.596,-1.442 -2.707,-2.608 -1.12,-1.157 -2.661,-2.569 -4.623,-4.229 -1.969,-1.667 -5.184,-3.062 -9.663,-4.182 0.765,-1.378 1.696,-2.383 2.783,-3.023 -2.95,-0.619 -5.956,-0.413 -9.01,0.611 -0.129,-0.733 0.07,-1.654 0.594,-2.785 -3.003,0.114 -5.717,1.51 -8.134,4.178 -3.87,-1.906 -8.225,-2.544 -13.063,-1.92 1.36,0.798 2.545,1.773 3.556,2.936 -6.765,0.522 -12.094,2.793 -15.983,6.822 -1.716,2.06 -4.137,3.457 -7.27,4.183 0.64,0.835 1.648,1.472 3.014,1.92 -4.244,4.743 -7.54,7.321 -9.877,7.738 0.732,1.04 2.197,1.557 4.413,1.541 -0.529,0.882 -1.112,1.714 -1.749,2.501 -0.283,0.348 -0.583,0.686 -0.893,1.014 -0.137,0.151 -0.272,0.295 -0.417,0.436 -1.49,1.516 -3.227,2.876 -5.225,4.079 1.392,1.094 3.091,1.701 5.107,1.816 -0.466,0.727 -0.712,2.209 -0.72,4.446 -0.005,2.237 0.637,4.543 1.949,6.905 l 1.734,-2.612 c 1.909,6.755 6.104,12.246 12.586,16.463 l 0.852,-2.646 c 2.505,3.731 7.749,6.715 15.731,8.944 0.191,-0.739 0.533,-1.516 1.004,-2.336 2.972,2.627 6.393,4.305 10.257,5.016 0.182,0.035 0.364,0.069 0.546,0.104 0.183,0.025 0.366,0.05 0.548,0.076 0.42,0.035 0.842,0.061 1.265,0.076 0.331,0.004 0.662,-0.001 1.003,-0.026 0.324,-0.061 0.659,-0.121 0.991,-0.172 2.664,-0.533 5.248,-1.879 7.75,-4.039 l 0.268,1.704 c 3.599,-1.223 6.745,-3.375 9.44,-6.446 l 0.519,1.833 c 1.215,-1.003 2.477,-2.225 3.789,-3.674 1,-1.112 1.875,-2.302 2.616,-3.571 1.213,-2.081 2.085,-4.375 2.611,-6.887 0.047,-0.228 0.1,-0.567 0.158,-1.016 l 1.23,1.751 c 1.858,-3.868 2.689,-7.545 2.488,-11.023 1.325,-0.207 2.534,-0.896 3.612,-2.062 -1.077,-0.4 -2.125,-1.14 -3.167,-2.238 -0.376,-0.392 -0.757,-0.885 -1.16,-1.472 -0.096,-0.15 -0.198,-0.302 -0.301,-0.461 -0.212,-0.331 -0.426,-0.689 -0.647,-1.075 -0.45,-0.782 -0.912,-1.674 -1.388,-2.677 1.354,-0.058 2.262,-0.392 2.742,-0.99 -1.208,-0.7 -3.344,-3.708 -6.397,-9.026 1.168,-0.222 1.959,-0.616 2.381,-1.179 -1.116,-0.282 -2.127,-0.68 -3.022,-1.202 -0.73,-0.441 -1.44,-0.947 -2.121,-1.516"
         id="path279"
         style="fill:#9fc94c" />
      <path
         d="m 232.603,66.631 c -1.121,-1.157 -2.66,-2.57 -4.623,-4.229 -1.97,-1.667 -5.185,-3.062 -9.663,-4.182 0.764,-1.379 1.696,-2.384 2.784,-3.023 -2.95,-0.619 -5.956,-0.413 -9.011,0.612 -0.129,-0.733 0.07,-1.655 0.594,-2.787 -3.003,0.115 -5.718,1.511 -8.135,4.18 -3.87,-1.907 -8.224,-2.544 -13.062,-1.921 1.36,0.797 2.545,1.773 3.556,2.936 -6.765,0.522 -12.095,2.793 -15.983,6.822 -1.718,2.06 -4.138,3.457 -7.271,4.183 0.641,0.834 1.648,1.472 3.015,1.92 -4.245,4.743 -7.54,7.322 -9.877,7.738 0.733,1.042 2.196,1.558 4.413,1.542 -0.529,0.882 -1.112,1.716 -1.748,2.501 -0.283,0.348 -0.584,0.685 -0.893,1.013 -0.136,0.152 -0.272,0.294 -0.417,0.437 -1.489,1.516 -3.227,2.876 -5.224,4.079 1.391,1.094 3.09,1.702 5.106,1.816 -0.466,0.728 -0.713,2.21 -0.718,4.446 -0.007,2.237 0.636,4.544 1.947,6.904 l 1.733,-2.612 c 1.909,6.756 6.105,12.247 12.585,16.463 l 0.853,-2.645 c 2.505,3.732 7.749,6.714 15.73,8.944 0.192,-0.739 0.533,-1.517 1.005,-2.336 2.973,2.628 6.394,4.306 10.257,5.016 0.183,0.034 0.365,0.07 0.547,0.104 0.182,0.026 0.364,0.051 0.548,0.076 0.421,0.035 0.842,0.061 1.264,0.077 0.332,0.003 0.663,-0.002 1.004,-0.026 0.324,-0.061 0.659,-0.122 0.992,-0.172 2.663,-0.532 5.248,-1.879 7.749,-4.039 l 0.269,1.704 c 3.599,-1.224 6.744,-3.375 9.439,-6.446 l 0.519,1.833 c 1.215,-1.003 2.478,-2.225 3.789,-3.674 1,-1.112 1.875,-2.302 2.617,-3.571 1.212,-2.081 2.084,-4.375 2.61,-6.885 0.048,-0.229 0.101,-0.568 0.159,-1.016 l 1.231,1.75 c 1.857,-3.868 2.688,-7.545 2.487,-11.023 1.325,-0.207 2.534,-0.896 3.611,-2.062 -1.076,-0.4 -2.125,-1.141 -3.166,-2.238 -0.376,-0.392 -0.757,-0.886 -1.16,-1.473 -0.096,-0.149 -0.197,-0.301 -0.3,-0.461 -0.213,-0.331 -0.426,-0.688 -0.647,-1.075 -0.449,-0.781 -0.913,-1.673 -1.387,-2.675 1.354,-0.059 2.261,-0.393 2.741,-0.991 -1.208,-0.699 -3.344,-3.708 -6.397,-9.027 1.168,-0.22 1.959,-0.614 2.382,-1.177 -1.117,-0.284 -2.127,-0.68 -3.022,-1.203 -0.733,-0.442 -1.443,-0.949 -2.124,-1.517 -0.69,-0.573 -1.596,-1.444 -2.708,-2.61 z"
         id="path281"
         style="fill:none;stroke:#255f27;stroke-width:1.46360004;stroke-linecap:square;stroke-miterlimit:10" />
      <path
         d="m 226.047,95.267 -0.055,-0.012 c -0.363,2.174 -1.57,4.016 -3.629,5.524 -2.463,1.837 -5.396,2.667 -8.802,2.507 -3.417,-0.152 -6.32,-1.246 -8.713,-3.282 -1.729,-1.475 -2.819,-3.125 -3.27,-4.958 -0.04,-0.01 -0.087,-0.012 -0.127,-0.022 -4.732,-0.695 -9.519,-1.753 -14.365,-3.167 5.305,7.952 10.91,12.819 16.815,14.593 5.907,1.766 12.313,1.998 19.206,0.678 7.489,-1.414 13.467,-6.51 17.916,-15.279 -4.917,1.597 -9.915,2.727 -14.974,3.4 -0.001,0.008 -0.001,0.008 -0.002,0.018"
         id="path283"
         style="fill:#1f1a1a" />
      <path
         d="m 225.992,95.255 0.055,0.011 c 0.001,-0.01 0.001,-0.01 0.001,-0.019 -0.024,0.009 -0.04,0.008 -0.056,0.008"
         id="path285"
         style="fill:#d9382a" />
      <path
         d="m 222.362,100.779 c 2.061,-1.508 3.267,-3.35 3.63,-5.523 -7.965,1.06 -16.097,0.986 -24.415,-0.21 0.451,1.833 1.542,3.483 3.27,4.958 2.393,2.036 5.296,3.13 8.713,3.282 3.407,0.16 6.339,-0.669 8.802,-2.507"
         id="path287"
         style="fill:#d9382a" />
      <path
         d="m 201.45,95.022 c -4.731,-0.694 -9.518,-1.753 -14.363,-3.167 5.304,7.952 10.908,12.819 16.814,14.593 5.906,1.766 12.313,1.998 19.206,0.678 7.488,-1.414 13.467,-6.51 17.916,-15.279 -4.917,1.597 -9.915,2.728 -14.975,3.401"
         id="path289"
         style="fill:none;stroke:#1f1a1a;stroke-width:0.0088;stroke-linecap:round;stroke-linejoin:round;stroke-miterlimit:10" />
      <path
         d="m 226.048,95.248 c -0.024,0.008 -0.041,0.008 -0.056,0.008 -7.965,1.06 -16.097,0.986 -24.414,-0.21 -0.04,-0.01 -0.087,-0.012 -0.128,-0.022 m 0.128,0.021 c 0.45,1.833 1.54,3.483 3.27,4.958 2.394,2.036 5.297,3.13 8.713,3.282 3.406,0.16 6.338,-0.669 8.802,-2.507 2.06,-1.509 3.266,-3.349 3.629,-5.523"
         id="path291"
         style="fill:none;stroke:#d9382a;stroke-width:0.0088;stroke-linecap:round;stroke-linejoin:round;stroke-miterlimit:10" />
      <path
         d="m 231.233,71.408 c -2.31,-0.521 -4.473,-0.089 -6.479,1.306 -2.006,1.386 -3.267,3.325 -3.783,5.819 -0.514,2.493 -0.148,4.808 1.122,6.937 1.284,2.138 3.078,3.468 5.387,3.99 2.3,0.513 4.456,0.071 6.454,-1.335 2.005,-1.385 3.268,-3.335 3.781,-5.828 0.516,-2.493 0.147,-4.798 -1.121,-6.918 -1.266,-2.138 -3.06,-3.468 -5.361,-3.971"
         id="path293"
         style="fill:#ffffff" />
      <path
         d="m 200.905,71.796 c -2.135,1.382 -3.478,3.328 -4.038,5.818 -0.552,2.483 -0.139,4.79 1.229,6.932 1.377,2.142 3.308,3.477 5.792,4.006 2.467,0.526 4.776,0.083 6.921,-1.317 2.154,-1.389 3.507,-3.326 4.058,-5.808 0.552,-2.492 0.139,-4.808 -1.248,-6.942 -1.369,-2.142 -3.291,-3.468 -5.756,-3.977 -2.486,-0.528 -4.805,-0.093 -6.958,1.288"
         id="path295"
         style="fill:#ffffff" />
      <path
         d="m 236.317,83.583 c -0.612,-0.889 -1.429,-1.409 -2.455,-1.575 -1.033,-0.165 -1.972,0.077 -2.825,0.727 -0.854,0.654 -1.359,1.521 -1.53,2.602 -0.17,1.083 0.048,2.061 0.652,2.949 0.613,0.89 1.427,1.41 2.454,1.574 1.026,0.166 1.958,-0.077 2.812,-0.726 0.853,-0.647 1.359,-1.514 1.529,-2.602 0.177,-1.082 -0.034,-2.061 -0.64,-2.949 h 0.003 z"
         id="path297"
         style="fill:#1f1a1a" />
      <path
         d="m 213.919,82.562 c -0.439,-1.011 -1.167,-1.702 -2.184,-2.095 -1.024,-0.393 -2.038,-0.369 -3.048,0.076 -1.014,0.45 -1.713,1.185 -2.116,2.207 -0.401,1.022 -0.384,2.03 0.05,3.038 0.44,1.01 1.167,1.703 2.185,2.096 1.018,0.391 2.026,0.365 3.037,-0.08 1.011,-0.443 1.71,-1.178 2.114,-2.208 0.408,-1.02 0.397,-2.026 -0.038,-3.034"
         id="path299"
         style="fill:#1f1a1a" />
      <path
         d="m 218.671,69.083 c -0.138,-0.023 -0.255,-0.074 -0.353,-0.142 -0.143,-0.098 -0.285,-0.194 -0.419,-0.283 -4.312,-2.862 -7.275,-4.688 -8.902,-5.459 -1.708,-0.821 -2.922,-0.97 -3.657,-0.435 -0.74,0.513 -1.03,1.192 -0.878,2.054 -1.442,-0.018 -2.538,-0.014 -3.274,0.022 -0.986,0.044 -1.918,0.127 -2.796,0.233 -3.263,0.39 -5.884,1.162 -7.86,2.32 -2.904,1.692 -4.442,2.895 -4.614,3.615 -0.19,0.7 0.794,1.071 2.944,1.098 -1.926,1.435 -3.518,3.196 -4.776,5.292 -0.61,1.017 -0.897,1.816 -0.878,2.396 0.015,0.075 0.029,0.148 0.043,0.232 0.008,0.045 0.016,0.083 0.031,0.122 0.025,0.064 0.06,0.11 0.102,0.16 0.115,0.124 0.248,0.22 0.392,0.309 0.243,0.111 0.496,0.194 0.76,0.259 0.208,0.072 0.416,0.127 0.635,0.181 3.5,0.76 6.991,0.839 10.477,0.237 0.222,-0.037 0.62,-0.105 1.195,-0.201 0.103,-0.624 0.181,-1.081 0.222,-1.364 0.107,-0.696 0.269,-1.38 0.494,-2.043 0.107,-0.317 0.222,-0.626 0.356,-0.934 0.259,-0.596 0.553,-1.166 0.901,-1.713 0.349,-0.549 0.73,-1.041 1.166,-1.483 0.328,-0.347 0.674,-0.655 1.029,-0.938 0.582,-0.455 1.223,-0.781 1.921,-0.965 0.68,-0.186 1.382,-0.242 2.103,-0.15 0.657,0.09 1.312,0.253 1.973,0.491 0.677,0.219 1.345,0.475 2.003,0.776 0.387,0.172 0.762,0.37 1.129,0.587 0.581,0.345 1.162,0.698 1.731,1.07 0.507,0.34 1.017,0.683 1.522,1.042 0.276,0.186 0.56,0.381 0.847,0.567 0.479,0.322 0.972,0.617 1.475,0.875 0.593,0.29 1.216,0.49 1.863,0.605 0.521,0.085 1.042,0.141 1.565,0.161 0.037,-0.007 0.073,-0.006 0.111,-0.005 0.044,0.003 0.081,0.004 0.127,0.005 0.47,-0.01 0.896,-0.065 1.287,-0.18 0.615,-0.161 1.206,-0.395 1.762,-0.714 0.578,-0.336 1.144,-0.665 1.711,-0.993 0.512,-0.321 1.032,-0.632 1.572,-0.952 0.568,-0.337 1.152,-0.628 1.762,-0.89 0.459,-0.204 0.938,-0.378 1.413,-0.525 0.495,-0.175 1.009,-0.312 1.527,-0.411 0.453,-0.075 0.908,-0.14 1.378,-0.187 0.341,-0.014 0.69,-0.001 1.037,0.059 0.19,0.026 0.373,0.06 0.563,0.115 0.492,0.12 0.951,0.33 1.368,0.622 0.852,0.649 1.484,1.457 1.888,2.429 0.543,1.319 0.85,2.417 0.908,3.312 0.057,0.895 0.036,1.547 -0.067,1.967 -0.103,0.411 -0.2,0.737 -0.295,0.973 l 2.821,0.974 c 0.81,0.197 1.841,0.348 3.085,0.45 0.717,0.02 1.453,-0.026 2.205,-0.154 0.73,-0.101 1.136,-0.49 1.224,-1.176 0.126,-0.732 -0.091,-1.761 -0.652,-3.081 -0.833,-1.976 -1.709,-3.638 -2.648,-4.972 0.337,0.096 0.744,0.047 1.221,-0.137 0.759,-0.302 1.014,-0.798 0.76,-1.48 -0.326,-0.666 -0.776,-1.272 -1.328,-1.817 -0.166,-0.163 -0.325,-0.316 -0.492,-0.47 -2.536,-2.344 -5.707,-3.901 -9.52,-4.674 -0.047,-0.012 -0.091,-0.023 -0.137,-0.033 -0.083,-0.564 -0.294,-1.134 -0.626,-1.708 -0.363,-0.65 -1.046,-0.796 -2.047,-0.43 -2.565,0.979 -5.043,2.053 -7.426,3.222 -1.083,0.528 -2.138,1.077 -3.187,1.644 -0.122,0.06 -0.234,0.128 -0.347,0.189 -0.049,0.025 -0.095,0.051 -0.143,0.077 -0.228,0.129 -0.435,0.231 -0.631,0.288 -0.036,0.008 -0.075,0.025 -0.12,0.033 -0.185,0.03 -0.314,0.044 -0.388,0.04 -0.048,0 -0.103,-0.002 -0.148,-0.004"
         id="path301"
         style="fill:#c16513" />
      <path
         d="m 155.51,153.051 c 0.374,-4.182 -1.184,-6.196 -4.684,-6.044 l -19.666,-0.021 c -2.816,-0.124 -4.583,0.927 -5.286,3.169 -0.158,0.582 -0.288,1.274 -0.389,2.086 -0.084,0.434 -0.159,1.248 -0.226,2.456 -0.18,3.869 -0.525,7.479 -1.045,10.84 -0.384,4.172 1.183,6.177 4.701,6.023 l 19.667,0.023 c 3.47,0.18 5.403,-1.831 5.786,-6.014 l 1.142,-12.518 z m -5.095,-1.52 c 0.469,0.138 0.654,0.638 0.57,1.515 l -1.14,12.519 c -0.076,0.86 -0.363,1.366 -0.853,1.514 l -19.666,-0.023 c -0.48,-0.138 -0.684,-0.638 -0.608,-1.514 l 1.16,-12.52 c 0.083,-0.887 0.38,-1.395 0.889,-1.514 l 19.648,0.023 z"
         id="path303"
         style="fill:#b0b6d5" />
      <path
         d="m 150.415,151.531 -19.649,-0.023 c -0.509,0.12 -0.805,0.627 -0.888,1.512 l -1.16,12.521 c -0.075,0.876 0.127,1.375 0.608,1.514 l 19.667,0.023 c 0.489,-0.147 0.776,-0.655 0.852,-1.514 l 1.141,-12.519 c 0.084,-0.876 -0.101,-1.376 -0.571,-1.514 z m 5.095,1.521 -1.142,12.518 c -0.382,4.184 -2.316,6.194 -5.786,6.015 l -19.668,-0.023 c -3.518,0.153 -5.085,-1.852 -4.702,-6.024 0.52,-3.361 0.867,-6.972 1.046,-10.84 0.067,-1.209 0.141,-2.021 0.226,-2.456 0.102,-0.812 0.232,-1.504 0.389,-2.085 0.704,-2.243 2.47,-3.294 5.286,-3.17 l 19.667,0.023 c 3.5,-0.156 5.057,1.859 4.684,6.042 z"
         id="path305"
         style="fill:none;stroke:#737a91;stroke-width:1.47749996;stroke-linecap:round;stroke-linejoin:round;stroke-miterlimit:10" />
      <rect
         width="9.1960001"
         height="14.442"
         x="136.097"
         y="141.14999"
         transform="matrix(-0.0011,1,-1,-0.0011,289.2227,7.8418)"
         id="rect307"
         style="fill:#c6cee3" />
      <rect
         width="14.441"
         height="9.1960001"
         x="133.47501"
         y="143.77299"
         transform="matrix(1,0.0011,-0.0011,1,0.1707,-0.1617)"
         id="rect309"
         style="fill:none;stroke:#737a91;stroke-width:1.47749996;stroke-linecap:round;stroke-linejoin:round;stroke-miterlimit:10" />
      <path
         d="m 211.302,127.798 c -0.729,-0.638 -1.614,-0.954 -2.658,-0.953 l -2.751,-0.032 c -2.015,0.154 -4.129,0.253 -6.354,0.279 -1.135,0.017 -2.29,0.025 -3.471,0.023 -7.876,-0.147 -13.103,-0.265 -15.661,-0.332 l -22.843,-0.276 c -4.912,-0.107 -10.442,-0.049 -16.601,0.166 -1.404,0.045 -2.834,0.108 -4.304,0.17 -1.883,0.044 -3.61,0.042 -5.189,-0.005 l -2.567,-0.077 -0.369,-0.01 c -1.035,-0.001 -1.931,0.312 -2.68,0.948 -0.508,0.451 -0.832,0.978 -0.989,1.559 -0.065,0.249 -0.103,0.71 -0.104,1.404 l -0.003,1.671 c 0,1.043 0.358,1.93 1.087,2.66 0.748,0.739 1.81,1.146 3.176,1.223 h 0.009 c 3,0.179 6.001,0.247 9.02,0.195 1.357,-0.026 3.767,-0.117 7.239,-0.287 4.608,-0.079 9.169,-0.073 13.685,0.016 l 18.623,0.021 c 2.825,0.161 5.651,0.155 8.477,-0.036 2.714,-0.024 5.429,-0.077 8.144,-0.138 2.781,-0.07 5.559,-0.049 8.338,0.056 1.107,0.029 2.216,0.058 3.323,0.087 0.212,0 0.434,0 0.646,0.01 0.555,0.02 1.183,0.039 1.883,0.057 h 0.047 l 0.176,0 c 1.042,0 1.929,-0.367 2.66,-1.105 0.738,-0.728 1.111,-1.615 1.111,-2.657 l 0.003,-2.281 c 0.004,-0.914 -0.365,-1.699 -1.103,-2.356"
         id="path311"
         style="fill:#b0b6d5" />
      <path
         d="m 206.528,136.139 c -0.212,-0.01 -0.435,-0.01 -0.646,-0.01 -1.107,-0.028 -2.217,-0.057 -3.323,-0.086 -2.78,-0.105 -5.559,-0.126 -8.339,-0.056 -2.714,0.061 -5.43,0.113 -8.145,0.138 -2.826,0.191 -5.652,0.197 -8.477,0.036 l -18.624,-0.021 c -4.514,-0.088 -9.075,-0.094 -13.684,-0.016 -3.471,0.17 -5.881,0.26 -7.239,0.287 -3.019,0.051 -6.02,-0.017 -9.02,-0.195 0.1,0.941 0.181,2.003 0.236,3.175 l 0.051,3.592 c 0,0.12 0,0.249 -0.01,0.379 -0.04,1.662 -0.061,3.25 -0.052,4.756 l 0.21,9.27 c 0.055,0.767 0.109,1.505 0.173,2.207 l 0.074,1.533 c 0.153,2.559 0.316,4.959 0.49,7.185 0.035,0.434 0.073,0.858 0.109,1.274 0.082,1.08 0.154,2.188 0.219,3.325 0.026,0.489 0.035,0.986 0.034,1.496 0,0.12 0,0.23 0,0.351 -0.018,0.979 -0.066,1.947 -0.15,2.917 -0.028,0.287 -0.047,0.563 -0.075,0.832 v 0.056 c -0.103,0.821 -0.195,1.652 -0.281,2.474 -0.121,1.043 -0.206,2.086 -0.234,3.14 -0.009,0.128 -0.009,0.258 -0.009,0.388 -0.01,0.229 0,0.461 0.018,0.691 0.009,0.25 0.036,0.499 0.072,0.748 0.192,1.146 0.478,2.281 0.847,3.4 0.174,0.564 0.376,1.135 0.625,1.699 0.148,0.341 0.506,1.819 1.085,4.433 0.239,0.841 0.302,1.617 0.191,2.327 -0.111,0.694 -0.39,1.321 -0.842,1.884 -0.259,0.332 -0.462,0.747 -0.611,1.236 -0.268,0.876 -0.372,2.021 -0.299,3.434 0.026,0.582 0.082,1.218 0.164,1.903 l 1.032,18.19 -0.003,2.631 c 0.221,0.029 0.442,0.065 0.655,0.112 0.665,0.167 1.33,0.342 1.984,0.538 0.692,0.03 1.376,0.047 2.069,0.077 0.582,0.064 1.172,0.102 1.754,0.112 0.055,0 0.111,0 0.166,0.01 0.647,0.009 1.293,0.01 1.948,0.002 0.592,-0.008 1.183,-0.026 1.774,-0.054 0.646,-0.027 1.283,-0.043 1.912,-0.053 0.601,-0.007 1.2,0.001 1.791,0.03 0.582,0.028 1.154,0.047 1.718,0.048 0.674,-0.008 1.347,-0.026 2.04,-0.062 0.434,-0.026 0.868,-0.045 1.302,-0.073 1.469,-0.1 2.668,-0.283 3.603,-0.541 1.532,-0.431 3.452,-0.115 5.759,0.958 0.489,0.232 1.006,0.491 1.531,0.788 2.982,1.683 5.963,1.872 8.938,0.573 0.24,-0.102 0.49,-0.202 0.739,-0.286 2.854,-0.845 5.718,-1.599 8.608,-2.251 0.12,-0.036 0.23,-0.074 0.351,-0.11 0.341,-0.111 0.692,-0.202 1.034,-0.267 0.702,-0.137 1.404,-0.183 2.105,-0.135 0.213,0.018 0.436,0.055 0.647,0.111 0.702,0.139 1.394,0.37 2.085,0.675 0.434,0.14 0.877,0.233 1.331,0.297 1.909,0.354 2.944,0.54 3.1,0.568 1.256,0.186 2.254,0.279 2.982,0.28 1.209,0.001 2.464,-0.052 3.75,-0.152 0.783,-0.064 2.114,-0.193 3.969,-0.403 l 3.104,-0.098 0.004,-2.364 c -0.01,-0.295 -0.01,-0.59 -0.009,-0.876 0.045,-7.646 0.369,-15.401 0.969,-23.268 0.43,-4.155 0.664,-7.303 0.713,-9.445 0.02,-0.95 0.001,-1.708 -0.052,-2.261 -0.091,-0.952 -0.147,-1.746 -0.173,-2.383 -0.027,-0.562 -0.016,-0.998 0.012,-1.311 0.054,-0.499 0.193,-1.053 0.406,-1.661 0.074,-0.204 0.159,-0.417 0.241,-0.627 1.009,-2.133 1.592,-3.757 1.752,-4.874 0.055,-0.424 0.056,-0.776 -0.009,-1.053 -0.267,-1.044 -0.625,-1.875 -1.069,-2.476 -0.387,-0.508 -0.589,-1.672 -0.614,-3.5 -0.009,-0.397 0.001,-0.813 0.01,-1.265 l 0.076,-2.233 v -0.075 c -0.008,-9.317 0.326,-18.485 0.993,-27.515 0.093,-1.292 0.197,-2.778 0.318,-4.45 -0.701,-0.022 -1.33,-0.04 -1.884,-0.06"
         id="path313"
         style="fill:#c6cee3" />
      <polygon
         points="128.693,126.751 128.536,126.751 128.905,126.761 "
         id="polygon315"
         style="fill:#b0b6d5" />
      <path
         d="m 129.27,139.392 c -0.056,-1.172 -0.137,-2.234 -0.236,-3.176 h -0.01 c 0.101,1.024 0.183,2.041 0.236,3.047 -0.001,0.037 -0.001,0.082 0.01,0.129"
         id="path317"
         style="fill:#c6cee3" />
      <path
         d="m 160.568,228.244 c -2.307,-1.073 -4.228,-1.39 -5.76,-0.958 -0.933,0.258 -2.134,0.441 -3.603,0.54 -0.435,0.027 -0.868,0.046 -1.302,0.073 -0.693,0.037 -1.367,0.054 -2.04,0.062 -0.564,0 -1.137,-0.021 -1.719,-0.048 -0.591,-0.028 -1.189,-0.039 -1.791,-0.029 -0.628,0.007 -1.265,0.025 -1.912,0.052 -0.591,0.026 -1.181,0.046 -1.773,0.053 -0.654,0.009 -1.301,0.008 -1.948,-0.002 -0.054,-0.008 -0.11,-0.009 -0.167,-0.009 -0.582,-0.009 -1.172,-0.048 -1.753,-0.113 -0.693,-0.028 -1.375,-0.046 -2.069,-0.076 -0.359,0.008 -0.71,0.027 -1.062,0.036 -0.526,0.027 -1.052,0.044 -1.579,0.072 -0.138,0.009 -0.287,0.009 -0.433,0.019 -0.158,0.009 -0.314,0.009 -0.471,0.008 -1.489,0.727 -2.238,1.918 -2.24,3.581 l -0.003,2.861 c -0.001,1.044 0.322,1.932 0.977,2.661 0.672,0.74 1.484,1.11 2.417,1.111 l 72.243,0.084 c 0.951,0.001 1.744,-0.368 2.402,-1.105 0.665,-0.729 0.999,-1.613 1,-2.657 l 0.002,-2.863 c 0.001,-1.043 -0.329,-1.939 -0.993,-2.678 -0.6,-0.666 -1.311,-1.026 -2.151,-1.082 l -3.103,0.096 c -1.854,0.211 -3.185,0.338 -3.97,0.402 -1.285,0.101 -2.539,0.155 -3.749,0.153 -0.729,-0.001 -1.726,-0.094 -2.982,-0.28 -0.157,-0.028 -1.191,-0.214 -3.101,-0.567 -0.453,-0.065 -0.896,-0.157 -1.329,-0.298 -0.693,-0.305 -1.386,-0.537 -2.087,-0.675 -0.212,-0.056 -0.434,-0.094 -0.646,-0.112 -0.702,-0.046 -1.404,-0.001 -2.105,0.136 -0.343,0.064 -0.693,0.156 -1.035,0.267 -0.119,0.037 -0.23,0.074 -0.35,0.11 -2.892,0.652 -5.756,1.406 -8.609,2.252 -0.249,0.084 -0.499,0.184 -0.738,0.287 -2.976,1.298 -5.958,1.109 -8.938,-0.574 -0.523,-0.3 -1.041,-0.559 -1.53,-0.79"
         id="path319"
         style="fill:#b0b6d5" />
      <path
         d="m 129.033,136.216 -0.01,0 c -1.367,-0.076 -2.428,-0.483 -3.175,-1.223 -0.729,-0.73 -1.087,-1.617 -1.087,-2.66 l 0.002,-1.672 c 10e-4,-0.692 0.038,-1.154 0.104,-1.403 0.157,-0.581 0.481,-1.107 0.989,-1.559 0.749,-0.636 1.645,-0.949 2.68,-0.949 l 0.369,0.01 2.567,0.077 c 1.579,0.047 3.305,0.05 5.189,0.006 1.467,-0.062 2.9,-0.127 4.303,-0.171 6.158,-0.214 11.689,-0.272 16.602,-0.166 l 22.842,0.276 c 2.559,0.067 7.785,0.185 15.66,0.332 1.182,0.002 2.337,-0.006 3.471,-0.024 2.225,-0.025 4.339,-0.124 6.354,-0.278 l 2.752,0.032 c 1.042,0 1.929,0.314 2.658,0.953 0.736,0.657 1.104,1.441 1.104,2.355 l -0.003,2.281 c -0.001,1.042 -0.372,1.929 -1.11,2.657 -0.73,0.738 -1.617,1.105 -2.661,1.105 l -0.175,0 h -0.047 m 0.001,0.002 c -0.701,-0.019 -1.329,-0.038 -1.883,-0.058 -0.212,-0.009 -0.434,-0.009 -0.646,-0.01 -1.108,-0.029 -2.216,-0.058 -3.323,-0.087 -2.779,-0.105 -5.559,-0.126 -8.339,-0.056 -2.714,0.061 -5.43,0.113 -8.145,0.138 -2.826,0.191 -5.652,0.197 -8.477,0.036 l -18.624,-0.021 c -4.516,-0.089 -9.075,-0.095 -13.684,-0.016 -3.472,0.17 -5.882,0.26 -7.239,0.287 -3.019,0.052 -6.021,-0.016 -9.02,-0.195 m 75.811,91.62 0.004,-2.364 c -0.01,-0.296 -0.01,-0.592 -0.009,-0.877 0.045,-7.646 0.368,-15.402 0.969,-23.268 0.43,-4.155 0.664,-7.303 0.713,-9.445 0.02,-0.951 10e-4,-1.708 -0.054,-2.262 -0.09,-0.951 -0.146,-1.745 -0.172,-2.383 -0.027,-0.562 -0.017,-0.998 0.012,-1.311 0.054,-0.499 0.195,-1.053 0.407,-1.661 0.074,-0.204 0.158,-0.417 0.241,-0.627 1.009,-2.132 1.592,-3.757 1.752,-4.874 0.055,-0.425 0.056,-0.776 -0.009,-1.053 -0.266,-1.044 -0.625,-1.875 -1.068,-2.476 -0.387,-0.509 -0.589,-1.672 -0.614,-3.5 -0.008,-0.397 0.001,-0.812 0.011,-1.265 l 0.077,-2.233 v -0.075 c -0.009,-9.317 0.325,-18.485 0.992,-27.515 0.093,-1.293 0.197,-2.778 0.318,-4.45 m -79.72,-9.446 2.649,-0.014 m -2.309,9.48 c 0.1,0.941 0.181,2.003 0.236,3.176 l 0.051,3.591 c 0,0.12 0,0.25 -0.01,0.379 -0.04,1.661 -0.06,3.25 -0.052,4.756 l 0.211,9.27 c 0.054,0.766 0.109,1.506 0.172,2.207 l 0.072,1.533 c 0.155,2.557 0.318,4.959 0.491,7.185 0.036,0.434 0.074,0.858 0.109,1.274 0.082,1.081 0.154,2.188 0.219,3.325 0.026,0.488 0.035,0.987 0.034,1.496 0,0.12 0,0.23 0,0.351 -0.019,0.979 -0.066,1.948 -0.15,2.917 -0.028,0.287 -0.047,0.564 -0.075,0.831 v 0.057 c -0.103,0.821 -0.197,1.652 -0.28,2.473 -0.122,1.043 -0.207,2.086 -0.234,3.14 -0.009,0.128 -0.009,0.258 -0.01,0.387 -0.01,0.23 0,0.462 0.018,0.693 0.009,0.249 0.036,0.499 0.072,0.748 0.193,1.145 0.479,2.28 0.847,3.399 0.174,0.564 0.377,1.135 0.625,1.699 0.148,0.342 0.506,1.819 1.085,4.433 0.239,0.841 0.303,1.617 0.19,2.327 -0.111,0.694 -0.39,1.321 -0.842,1.883 -0.259,0.333 -0.462,0.747 -0.611,1.237 -0.268,0.877 -0.372,2.021 -0.299,3.435 0.027,0.582 0.082,1.218 0.164,1.903 l 1.032,18.19 -0.003,2.631 m 72.748,0.693 -3.103,0.096 c -1.856,0.21 -3.186,0.338 -3.971,0.402 -1.285,0.101 -2.539,0.155 -3.749,0.153 -0.729,-10e-4 -1.726,-0.094 -2.981,-0.28 -0.158,-0.028 -1.192,-0.214 -3.102,-0.568 -0.453,-0.064 -0.896,-0.158 -1.329,-0.297 -0.692,-0.305 -1.384,-0.537 -2.086,-0.675 -0.211,-0.056 -0.433,-0.094 -0.646,-0.111 -0.702,-0.047 -1.403,-0.002 -2.105,0.135 -0.342,0.064 -0.693,0.156 -1.035,0.267 -0.12,0.037 -0.23,0.074 -0.35,0.11 -2.891,0.652 -5.754,1.406 -8.609,2.252 -0.249,0.084 -0.499,0.184 -0.739,0.284 -2.975,1.301 -5.957,1.112 -8.938,-0.571 -0.526,-0.296 -1.043,-0.556 -1.532,-0.787 -2.307,-1.073 -4.227,-1.39 -5.76,-0.958 -0.933,0.257 -2.134,0.442 -3.603,0.54 -0.434,0.027 -0.868,0.046 -1.301,0.073 -0.693,0.037 -1.367,0.054 -2.041,0.062 -0.562,0 -1.137,-0.021 -1.718,-0.048 -0.592,-0.028 -1.19,-0.039 -1.791,-0.03 -0.629,0.008 -1.265,0.026 -1.912,0.053 -0.591,0.026 -1.181,0.046 -1.773,0.054 -0.655,0.008 -1.301,0.007 -1.948,-0.002 -0.055,-0.009 -0.11,-0.01 -0.166,-0.01 -0.582,-0.009 -1.173,-0.048 -1.755,-0.113 -0.692,-0.028 -1.376,-0.046 -2.068,-0.076 -0.359,0.008 -0.71,0.027 -1.062,0.036 -0.527,0.027 -1.053,0.044 -1.579,0.072 -0.139,0.009 -0.287,0.009 -0.433,0.019 -0.158,0.009 -0.315,0.009 -0.472,0.008 -1.488,0.727 -2.237,1.918 -2.24,3.581 l -0.002,2.861 c -10e-4,1.044 0.321,1.932 0.976,2.661 0.673,0.74 1.485,1.11 2.417,1.111 l 72.242,0.084 c 0.952,10e-4 1.745,-0.367 2.402,-1.106 0.666,-0.728 0.999,-1.613 1,-2.657 l 0.003,-2.863 c 0,-1.043 -0.331,-1.939 -0.995,-2.678 -0.596,-0.668 -1.306,-1.029 -2.146,-1.084 z"
         id="path321"
         style="fill:none;stroke:#737a91;stroke-width:1.47749996;stroke-linecap:round;stroke-linejoin:round;stroke-miterlimit:10" />
      <path
         d="m 199.875,140.859 h -0.018 c -1.109,-0.029 -2.069,0.866 -2.883,2.675 -0.863,1.781 -1.317,3.941 -1.358,6.479 l -0.181,29.731 c -0.573,1.301 -0.964,2.805 -1.159,4.504 -0.093,0.757 -0.151,1.551 -0.16,2.383 -0.104,2.142 0.161,3.832 0.788,5.06 l -0.729,23.822 c -0.039,2.243 0.301,4.164 1.009,5.781 0.701,1.589 1.577,2.383 2.621,2.385 h 0.018 c 1.005,0 1.911,-0.792 2.699,-2.379 0.777,-1.614 1.195,-3.536 1.262,-5.779 l 0.347,-28.106 c -0.545,-0.434 -0.83,-1.487 -0.864,-3.158 -0.009,-0.232 -0.009,-0.471 0.001,-0.72 l 1.244,-6.112 1.122,-27.402 c 0.049,-2.541 -0.281,-4.701 -1.008,-6.483 -0.73,-1.811 -1.643,-2.708 -2.751,-2.681"
         id="path323"
         style="fill:#b0b6d5" />
      <path
         d="m 189.604,143.525 c -0.746,-1.81 -1.677,-2.708 -2.786,-2.68 h -0.017 c -1.109,-0.029 -2.06,0.865 -2.848,2.673 -0.814,1.782 -1.242,3.942 -1.281,6.48 l -0.375,36.508 -0.84,6.611 c -0.157,0.812 -0.03,2.205 0.402,4.192 l 0.034,18.19 c -0.041,2.243 0.308,4.165 1.046,5.781 0.699,1.589 1.576,2.384 2.638,2.385 h 0.018 c 0.998,0.001 1.895,-0.791 2.68,-2.38 0.75,-1.613 1.158,-3.533 1.226,-5.777 l -0.067,-21.698 c -0.627,-1.45 -0.845,-3.113 -0.659,-4.968 l 1.281,-7.164 0.61,-31.669 c 0.032,-2.54 -0.326,-4.7 -1.062,-6.484"
         id="path325"
         style="fill:#b0b6d5" />
      <path
         d="m 176.898,143.51 c -0.763,-1.81 -1.686,-2.707 -2.785,-2.681 h -0.018 c -1.109,-0.028 -2.061,0.866 -2.848,2.674 -0.815,1.781 -1.223,3.941 -1.227,6.48 l -0.332,47.219 0.809,3.824 c 0.192,0.877 0.108,2.576 -0.266,5.115 l -0.362,9.344 c -0.001,2.244 0.375,4.164 1.121,5.781 0.728,1.589 1.604,2.384 2.638,2.385 h 0.018 c 1.035,10e-4 1.921,-0.791 2.662,-2.379 0.741,-1.615 1.122,-3.536 1.15,-5.779 l 0.576,-65.501 c 0.015,-2.537 -0.362,-4.699 -1.136,-6.482"
         id="path327"
         style="fill:#b0b6d5" />
      <path
         d="m 161.464,140.815 c -1.116,-0.031 -2.061,0.866 -2.828,2.674 -0.778,1.781 -1.15,3.941 -1.117,6.481 l 0.509,7.479 -0.335,2.401 0.661,35.309 0.605,3.473 c 0.431,1.562 0.125,3.861 -0.912,6.888 l -0.049,9.953 c -0.011,2.243 0.365,4.165 1.138,5.781 0.737,1.588 1.632,2.385 2.675,2.386 l 0.019,0 c 1.024,0 1.903,-0.793 2.643,-2.381 0.74,-1.615 1.111,-3.535 1.114,-5.779 l 0.179,-10.748 0.429,-3.563 -0.663,-2.457 -0.054,-48.734 c 0.003,-2.539 -0.392,-4.699 -1.175,-6.482 -0.772,-1.81 -1.712,-2.708 -2.821,-2.681 h -0.018 z"
         id="path329"
         style="fill:#b0b6d5" />
      <path
         d="m 149.239,140.8 -0.019,0 c -1.118,-0.029 -2.06,0.866 -2.81,2.675 -0.769,1.781 -1.122,3.94 -1.061,6.481 l 1.452,7.221 -1.039,3.342 0.903,32.908 c 0.635,2.522 0.955,4.959 0.952,7.316 l -0.835,3.748 -0.364,10.968 c 0.026,2.244 0.43,4.165 1.213,5.781 0.764,1.59 1.65,2.384 2.675,2.386 h 0.019 c 1.034,0.001 1.912,-0.792 2.625,-2.379 0.712,-1.615 1.065,-3.536 1.04,-5.779 l -0.468,-8.92 c -0.027,-0.95 0.038,-1.681 0.187,-2.196 0.139,-0.518 0.25,-0.859 0.352,-1.034 0.083,-0.176 0.175,-0.379 0.258,-0.61 0.27,-0.701 0.4,-1.413 0.391,-2.142 0.001,-0.516 -0.044,-1.025 -0.145,-1.533 -0.157,-0.812 -0.358,-1.616 -0.607,-2.419 l -0.367,-2.309 -0.404,-33.203 c 0.74,-1.744 1.157,-3.037 1.242,-3.859 l -0.532,-2.899 -0.549,-4.377 c -0.042,-2.54 -0.465,-4.701 -1.267,-6.484 -0.812,-1.812 -1.762,-2.709 -2.842,-2.683"
         id="path331"
         style="fill:#b0b6d5" />
      <path
         d="m 136.958,140.786 h -0.019 c -1.117,-0.028 -2.041,0.866 -2.754,2.674 -0.75,1.782 -1.103,3.553 -1.059,5.316 -0.047,0.296 -0.065,0.583 -0.038,0.869 0.082,0.665 0.322,1.257 0.699,1.773 0.415,0.564 0.701,1.21 0.848,1.923 0.064,0.286 0.138,0.691 0.219,1.236 -0.324,0.877 -0.62,1.875 -0.891,3.009 l -0.425,1.718 1.584,35.014 1.454,3.916 c 0.507,1.469 0.357,2.845 -0.449,4.136 -0.674,0.785 -1.063,2.382 -1.149,4.782 0.255,2.55 0.206,5.31 -0.139,8.292 0.043,2.243 0.465,4.164 1.249,5.782 0.784,1.587 1.705,2.384 2.75,2.386 h 0.018 c 1.008,0 1.876,-0.793 2.588,-2.38 0.695,-1.614 1.02,-3.535 0.985,-5.779 l -0.191,-10.193 c 0.697,-3.018 0.911,-5.124 0.654,-6.314 l -0.715,-3.732 -1.529,-34.83 c -0.009,-0.369 0.129,-0.804 0.425,-1.293 0.297,-0.489 0.621,-1.328 0.983,-2.511 0.083,-0.33 0.157,-0.581 0.222,-0.755 l -1.083,-4.84 c -0.11,-0.563 -0.174,-1.2 -0.183,-1.902 0.048,-1.958 -0.337,-3.832 -1.157,-5.615 -0.838,-1.811 -1.799,-2.709 -2.897,-2.682"
         id="path333"
         style="fill:#b0b6d5" />
      <path
         d="m 210.842,159.155 -0.232,-6.501 c -0.291,-4.183 -2.181,-6.197 -5.663,-6.045 l -19.667,-0.022 c -1.948,-0.086 -3.296,0.458 -4.046,1.638 -0.156,0.36 -0.295,0.72 -0.407,1.09 -0.12,0.414 -0.194,0.849 -0.204,1.292 -0.01,0.591 0.018,1.173 0.09,1.756 0.073,0.543 0.119,1.079 0.127,1.605 0.008,0.738 0.036,1.467 0.071,2.197 0.036,0.665 0.082,1.33 0.126,1.995 0.011,0.156 0.028,0.322 0.038,0.481 l 0.563,7.239 c 0.073,0.813 0.229,1.608 0.458,2.383 0.064,0.194 0.129,0.397 0.203,0.591 0.802,1.414 2.075,2.191 3.839,2.313 2.437,-0.071 4.875,-0.022 7.313,0.138 1.098,0.01 2.299,0.066 3.601,0.152 1.855,0.084 3.822,0.115 5.89,0.081 0.933,-0.072 1.876,-0.136 2.827,-0.2 0.443,-0.037 0.894,-0.082 1.347,-0.127 0.397,-0.038 0.785,-0.073 1.181,-0.11 2.365,-0.487 3.43,-2.461 3.185,-5.924 l -0.64,-6.022 z m -5.586,-8.021 c 0.489,0.138 0.766,0.638 0.83,1.515 0.521,3.611 0.813,7.452 0.854,11.542 0.156,1.071 0.044,1.856 -0.335,2.363 -0.029,0.039 -0.055,0.065 -0.093,0.093 -4.072,0.577 -7.646,0.767 -10.71,0.579 -3.066,-0.188 -5.218,-0.302 -6.445,-0.34 -1.246,-0.047 -2.189,-0.14 -2.826,-0.261 l -0.386,-0.37 c -0.156,-0.259 -0.258,-0.629 -0.295,-1.108 l -0.729,-8.274 -0.142,-4.247 c -0.063,-0.886 0.141,-1.394 0.611,-1.514 l 19.666,0.022 z"
         id="path335"
         style="fill:#b0b6d5" />
      <path
         d="m 210.61,152.654 c -0.291,-4.183 -2.181,-6.197 -5.663,-6.045 l -19.667,-0.022 c -1.948,-0.086 -3.296,0.458 -4.046,1.638 -0.156,0.36 -0.295,0.72 -0.407,1.09 -0.12,0.414 -0.194,0.849 -0.204,1.292 -0.01,0.591 0.018,1.173 0.09,1.756 0.073,0.543 0.119,1.079 0.127,1.605 0.008,0.738 0.036,1.467 0.071,2.197 0.036,0.665 0.082,1.33 0.126,1.995 0.011,0.156 0.028,0.322 0.038,0.481 l 0.563,7.239 c 0.073,0.813 0.229,1.608 0.458,2.383 0.064,0.194 0.129,0.397 0.203,0.591 0.802,1.414 2.075,2.191 3.839,2.313 2.437,-0.071 4.875,-0.022 7.313,0.138 1.098,0.01 2.299,0.066 3.601,0.152 1.855,0.084 3.822,0.115 5.89,0.081 0.933,-0.072 1.876,-0.136 2.827,-0.2 0.443,-0.037 0.894,-0.082 1.347,-0.127 0.397,-0.038 0.785,-0.073 1.181,-0.11 2.365,-0.487 3.43,-2.461 3.185,-5.924 l -0.641,-6.021 -0.231,-6.502 z m -5.354,-1.52 -19.667,-0.023 c -0.471,0.12 -0.675,0.627 -0.612,1.514 l 0.143,4.247 0.729,8.274 c 0.037,0.479 0.139,0.849 0.295,1.108 l 0.386,0.37 c 0.637,0.121 1.58,0.214 2.826,0.261 1.227,0.038 3.379,0.15 6.445,0.339 3.065,0.188 6.638,-10e-4 10.71,-0.578 0.038,-0.028 0.064,-0.054 0.093,-0.093 0.379,-0.507 0.491,-1.292 0.335,-2.363 -0.041,-4.09 -0.333,-7.932 -0.854,-11.542 -0.064,-0.876 -0.34,-1.376 -0.829,-1.514 z"
         id="path337"
         style="fill:none;stroke:#737a91;stroke-width:1.47749996;stroke-linecap:round;stroke-linejoin:round;stroke-miterlimit:10" />
      <path
         d="m 202.88,145.869 c -0.036,-0.859 -0.562,-1.302 -1.586,-1.313 l -6.908,-0.045 c -1.282,-0.058 -2.474,-0.067 -3.564,-0.041 -1.375,-0.029 -2.189,0.229 -2.429,0.772 -0.14,1.229 -0.168,2.642 -0.07,4.23 l 0.033,4.136 c 0.147,0.121 0.286,0.213 0.424,0.259 0.637,0.111 1.264,0.149 1.883,0.112 l 0.148,0 0.259,0 c 2.76,0.012 5.448,0.035 8.069,0.045 l 3.38,0.06 c 0.287,-0.691 0.417,-1.375 0.409,-2.068 l -0.048,-6.147 z"
         id="path339"
         style="fill:#c6cee3" />
      <path
         d="m 201.294,144.556 -6.907,-0.045 c -1.283,-0.058 -2.474,-0.067 -3.564,-0.041 -1.375,-0.029 -2.189,0.229 -2.429,0.772 -0.14,1.229 -0.17,2.642 -0.071,4.23 l 0.033,4.136 c 0.147,0.121 0.287,0.213 0.423,0.259 0.639,0.111 1.265,0.149 1.884,0.112 l 0.149,0 0.258,0 c 2.76,0.012 5.448,0.035 8.069,0.045 l 3.38,0.06 c 0.287,-0.691 0.417,-1.375 0.408,-2.068 l -0.048,-6.149 c -0.034,-0.858 -0.56,-1.301 -1.585,-1.311 z"
         id="path341"
         style="fill:none;stroke:#737a91;stroke-width:1.47749996;stroke-linecap:round;stroke-linejoin:round;stroke-miterlimit:10" />
      <path
         d="m 217.184,40.61 c -0.463,-0.48 -1.12,-0.787 -1.965,-0.909 -0.441,-0.067 -0.983,-0.114 -1.616,-0.126 -1.316,-0.05 -2.5,-0.221 -3.535,-0.492 -0.321,-0.084 -0.651,-0.186 -1,-0.288 -0.338,-0.112 -0.667,-0.233 -0.998,-0.363 -1.29,-0.557 -2.638,-0.857 -4.043,-0.909 -0.983,-0.041 -1.774,-0.006 -2.364,0.093 -0.166,0.027 -0.333,0.064 -0.509,0.119 -0.415,0.145 -0.832,0.401 -1.251,0.769 -0.092,0.082 -0.177,0.164 -0.252,0.247 -0.438,0.477 -0.676,1.056 -0.731,1.738 -0.523,3.974 -0.802,7.738 -0.84,11.301 -0.058,0.801 0.172,1.493 0.708,2.092 0.507,0.591 1.155,0.916 1.956,0.965 0.8,0.049 1.493,-0.188 2.097,-0.71 0.587,-0.523 0.909,-1.185 0.964,-1.986 -0.14,-2.485 0.063,-5.494 0.607,-9.028 0.103,-0.671 0.212,-1.352 0.343,-2.052 -0.131,0.7 -0.24,1.381 -0.343,2.052 1.978,0.081 3.622,0.281 4.922,0.599 0.891,0.215 1.78,0.43 2.669,0.644 0.541,0.122 1.073,0.245 1.614,0.366 -0.541,-0.122 -1.073,-0.244 -1.614,-0.366 l -0.757,9.112 c -0.056,0.709 0.129,1.345 0.545,1.89 0.044,0.064 0.1,0.128 0.164,0.194 0.407,0.488 0.918,0.793 1.533,0.916 0.137,0.029 0.274,0.047 0.421,0.057 0.267,0.011 0.535,-0.007 0.792,-0.052 0.267,-0.054 0.517,-0.146 0.758,-0.274 0.184,-0.1 0.363,-0.219 0.538,-0.366 0.587,-0.541 0.917,-1.202 0.974,-2.003 l 0.838,-11.008 c 0.058,-0.995 -0.153,-1.732 -0.625,-2.222"
         id="path343"
         style="fill:#c6cee3" />
      <path
         d="m 204.411,43.123 c -0.542,3.533 -0.749,6.543 -0.607,9.029 -0.056,0.801 -0.377,1.462 -0.964,1.985 -0.604,0.522 -1.297,0.758 -2.097,0.71 -0.799,-0.049 -1.449,-0.374 -1.955,-0.965 -0.537,-0.6 -0.767,-1.292 -0.709,-2.091 0.039,-3.564 0.317,-7.329 0.841,-11.305 0.055,-0.68 0.292,-1.259 0.731,-1.736 0.075,-0.083 0.16,-0.165 0.252,-0.247 0.419,-0.367 0.836,-0.624 1.251,-0.769 0.176,-0.055 0.343,-0.092 0.509,-0.118 0.59,-0.1 1.382,-0.133 2.364,-0.093 1.406,0.051 2.754,0.351 4.043,0.909 0.33,0.129 0.66,0.25 1,0.363 0.347,0.103 0.677,0.204 0.998,0.288 1.035,0.271 2.218,0.441 3.535,0.493 0.633,0.011 1.175,0.059 1.615,0.125 0.846,0.122 1.503,0.429 1.966,0.91 0.472,0.489 0.683,1.226 0.624,2.221 L 216.97,53.84 c -0.056,0.802 -0.387,1.462 -0.973,2.003 -0.177,0.146 -0.354,0.265 -0.538,0.366 -0.242,0.127 -0.492,0.219 -0.759,0.274 -0.258,0.045 -0.526,0.062 -0.792,0.053 -0.147,-0.011 -0.285,-0.03 -0.422,-0.058 -0.614,-0.122 -1.125,-0.428 -1.533,-0.917 -0.065,-0.065 -0.119,-0.13 -0.164,-0.195 -0.415,-0.544 -0.601,-1.181 -0.544,-1.889 l 0.757,-9.112 m 1.614,0.366 c -0.541,-0.122 -1.074,-0.244 -1.614,-0.365 m 0,0 c -0.89,-0.215 -1.779,-0.429 -2.668,-0.646 -1.303,-0.317 -2.946,-0.517 -4.923,-0.597 m 0.342,-2.053 c -0.129,0.7 -0.24,1.38 -0.342,2.052"
         id="path345"
         style="fill:none;stroke:#737a91;stroke-width:1.46510005;stroke-linecap:round;stroke-linejoin:round;stroke-miterlimit:10" />
      <path
         d="m 217.357,50.379 c -2.979,0.569 -6.438,0.657 -10.378,0.274 -6.45,-1.193 -12.375,-1.676 -17.768,-1.465 -5.393,0.21 -10.41,0.505 -15.041,0.883 -4.64,0.379 -8.124,0.909 -10.459,1.591 -1.33,1.062 -2.22,2.348 -2.673,3.857 -0.164,0.551 -0.263,1.112 -0.299,1.684 -0.045,0.607 -0.062,1.224 -0.052,1.84 0.012,1.151 -0.132,2.274 -0.43,3.387 -0.193,1.233 -0.123,2.182 0.2,2.855 8.374,-1.093 15.658,-1.756 21.861,-2 5.033,-0.202 8.629,-0.29 10.792,-0.254 1.598,0.107 3.198,0.131 4.801,0.054 0.423,-0.026 0.846,-0.062 1.27,-0.087 1.858,-0.084 3.633,-0.115 5.317,-0.1 1.021,0.041 2.031,0.119 3.04,0.233 1.738,0.144 3.466,0.132 5.208,-0.026 1.841,-0.133 3.691,-0.199 5.549,-0.201 2.042,-0.002 4.063,0.117 6.074,0.354 1.957,0.2 3.874,0.521 5.773,0.96 1.037,0.234 2.062,0.496 3.088,0.785 2.017,0.542 4.004,1.202 5.961,1.974 1.876,0.762 3.751,1.551 5.625,2.369 1.902,0.834 3.785,1.698 5.658,2.58 0.129,0.064 0.256,0.12 0.384,0.186 0.538,-1.03 0.802,-2.134 0.808,-3.302 -0.002,-1.206 -0.005,-2.421 0.002,-3.626 0.006,-1.206 0.004,-2.404 0.011,-3.609 0.002,-0.856 -0.052,-1.703 -0.177,-2.552 -0.061,-0.369 -0.146,-0.718 -0.281,-1.04 -0.239,-0.637 -0.694,-1.044 -1.344,-1.23 -4.983,-2.256 -10.338,-4.071 -16.079,-5.427 -3.641,-1.415 -9.118,-1.73 -16.441,-0.947"
         id="path347"
         style="fill:#b0b6d5" />
      <path
         d="m 217.357,50.379 c 7.322,-0.783 12.8,-0.468 16.44,0.945 5.74,1.355 11.096,3.171 16.079,5.427 0.65,0.187 1.104,0.593 1.344,1.23 0.135,0.322 0.221,0.671 0.281,1.04 0.125,0.849 0.179,1.696 0.177,2.552 -0.007,1.205 -0.005,2.403 -0.011,3.609 -0.007,1.206 -0.005,2.421 -0.002,3.626 -0.006,1.168 -0.27,2.272 -0.808,3.302 -0.127,-0.066 -0.255,-0.121 -0.384,-0.186 -1.873,-0.882 -3.756,-1.746 -5.658,-2.58 -1.875,-0.817 -3.75,-1.607 -5.625,-2.369 -1.957,-0.772 -3.944,-1.433 -5.961,-1.974 -1.025,-0.289 -2.051,-0.551 -3.088,-0.785 -1.899,-0.439 -3.816,-0.76 -5.773,-0.96 -2.011,-0.238 -4.032,-0.356 -6.074,-0.354 -1.858,0.002 -3.708,0.068 -5.549,0.201 -1.742,0.159 -3.47,0.17 -5.208,0.026 -1.008,-0.114 -2.019,-0.192 -3.04,-0.233 -1.684,-0.015 -3.458,0.016 -5.317,0.1 -0.424,0.026 -0.847,0.062 -1.27,0.087 -1.603,0.078 -3.203,0.053 -4.801,-0.054 -2.162,-0.036 -5.758,0.052 -10.792,0.254 -6.204,0.244 -13.487,0.907 -21.861,2 -0.323,-0.674 -0.393,-1.623 -0.2,-2.855 0.298,-1.113 0.442,-2.236 0.43,-3.387 -0.01,-0.616 0.007,-1.233 0.052,-1.84 0.036,-0.572 0.135,-1.132 0.299,-1.684 0.453,-1.509 1.343,-2.795 2.673,-3.857 2.336,-0.682 5.819,-1.212 10.459,-1.591 4.631,-0.378 9.648,-0.673 15.041,-0.883 5.393,-0.21 11.318,0.272 17.768,1.465 3.941,0.385 7.401,0.297 10.379,-0.272 z"
         id="path349"
         style="fill:none;stroke:#737a91;stroke-width:1.46510005;stroke-linecap:round;stroke-linejoin:round;stroke-miterlimit:10" />
      <path
         d="m 177.758,118.092 v -0.009 c -2.055,-2.542 -4.779,-4.486 -8.175,-5.812 -4.135,-1.604 -8.725,-1.859 -13.76,-0.776 -0.019,0.009 -0.037,0.009 -0.055,0.017 -1.94,0.57 -3.724,1.354 -5.351,2.339 l 0.019,-0.008 c -0.14,0.073 -0.269,0.156 -0.389,0.239 -0.158,0.092 -0.305,0.194 -0.462,0.304 -0.176,0.12 -0.277,0.277 -0.305,0.472 -0.039,0.193 0,0.378 0.12,0.554 0.111,0.166 0.267,0.269 0.47,0.305 0.194,0.028 0.379,-0.009 0.555,-0.119 0.128,-0.092 0.258,-0.175 0.387,-0.25 0.012,-0.008 0.019,-0.018 0.029,-0.026 h 0.009 c 0.102,-0.065 0.203,-0.13 0.313,-0.195 0,-0.009 0.01,-0.009 0.02,-0.009 1.506,-0.912 3.161,-1.639 4.953,-2.182 0.01,0 0.028,0 0.037,-0.01 h 0.01 0.009 c 4.702,-1.01 8.997,-0.772 12.865,0.72 h -0.01 c 3.149,1.233 5.667,3.019 7.567,5.376 h 0.009 c 0.019,0.028 0.045,0.064 0.074,0.092 -0.001,0.011 0.009,0.011 0.019,0.019 l 0.259,0.333 c 0.007,0.019 0.027,0.038 0.035,0.056 0.009,0.009 0.009,0.018 0.019,0.028 1.724,2.319 2.432,4.87 2.114,7.631 l 1.486,0.002 c 0.319,-3.076 -0.48,-5.903 -2.39,-8.483 l -0.008,-0.009 c -0.009,-0.009 -0.009,-0.019 -0.018,-0.028 -0.009,-0.009 -0.009,-0.009 -0.009,-0.018 -0.009,-0.01 -0.018,-0.028 -0.028,-0.038 l -0.304,-0.389 c -0.009,-0.008 -0.018,-0.019 -0.018,-0.028 -0.031,-0.033 -0.066,-0.069 -0.096,-0.098"
         id="path351"
         style="fill:#255f27" />
      <path
         d="m 176.222,127.179 0.794,0.001 c -0.083,-0.138 -0.166,-0.277 -0.249,-0.397 -0.257,-0.361 -0.48,-0.547 -0.654,-0.556 l 0.109,0.952 z"
         id="path353"
         style="fill:#255f27" />
      <path
         d="m 177.017,127.18 -0.794,-0.001 0.264,2.337 c 0,0.038 0,0.074 0.01,0.102 0.019,0.295 0.037,0.591 0.054,0.896 0.027,0.6 0.054,1.192 0.072,1.791 0.026,0.675 0.007,1.349 -0.048,2.024 -0.056,0.721 -0.149,1.542 -0.289,2.456 -0.011,0.01 -0.011,0.018 -0.011,0.028 -0.464,2.373 -1.696,3.978 -3.683,4.816 -1.163,0.266 -2.198,0.061 -3.111,-0.613 -0.156,-0.122 -0.313,-0.26 -0.471,-0.417 -0.045,-0.045 -0.083,-0.092 -0.128,-0.139 -0.009,-0.009 -0.009,-0.009 -0.02,-0.018 1.029,-2.133 1.355,-4.285 0.989,-6.454 -0.092,-0.546 -0.303,-1.054 -0.635,-1.508 0.009,0.194 0.009,0.397 -0.001,0.602 -0.048,2.06 -0.522,4.035 -1.42,5.926 -0.083,0.176 -0.168,0.342 -0.251,0.5 -0.027,0.044 -0.055,0.101 -0.092,0.147 -0.028,0.056 -0.064,0.111 -0.102,0.176 -0.01,0.008 -0.02,0.026 -0.029,0.045 -0.055,0.065 -0.11,0.139 -0.158,0.203 -0.009,0.01 -0.009,0.01 -0.009,0.019 -0.064,0.082 -0.139,0.175 -0.212,0.267 -0.009,0.009 -0.009,0.009 -0.019,0.019 -0.065,0.074 -0.13,0.147 -0.194,0.23 -0.435,0.47 -0.924,0.867 -1.489,1.199 -0.324,0.137 -0.667,0.192 -1.017,0.183 -0.213,-0.01 -0.434,-0.047 -0.665,-0.112 -0.416,-0.175 -0.795,-0.371 -1.136,-0.592 -0.239,-0.149 -0.46,-0.306 -0.672,-0.472 h -0.01 -0.009 c -0.895,-0.759 -1.54,-1.739 -1.945,-2.931 -0.174,-0.5 -0.321,-1.007 -0.451,-1.525 0.111,-0.091 0.222,-0.184 0.324,-0.286 1.306,-1.466 1.816,-3.185 1.522,-5.134 -0.11,-0.748 -0.405,-1.376 -0.884,-1.895 0.265,1.332 0.136,2.615 -0.375,3.86 -0.334,0.804 -0.787,1.523 -1.351,2.161 -0.131,0.12 -0.269,0.221 -0.427,0.313 l -0.009,0.009 h -0.009 c -0.009,0.009 -0.028,0.019 -0.038,0.028 -0.138,0.063 -0.277,0.129 -0.417,0.184 -0.609,0.212 -1.219,0.257 -1.838,0.126 h -0.017 c -0.324,-0.064 -0.656,-0.176 -0.989,-0.324 -1.512,-1.063 -2.554,-2.894 -3.123,-5.49 -0.155,-0.73 -0.275,-1.506 -0.357,-2.347 -0.009,-0.138 -0.027,-0.286 -0.036,-0.424 l -1.488,-0.002 c 0.01,0.046 0.01,0.092 0.019,0.139 0.008,0.138 0.027,0.276 0.035,0.416 v 0.009 c 0.083,0.905 0.212,1.747 0.385,2.532 0.67,3.085 1.942,5.23 3.806,6.443 0.027,0.018 0.064,0.037 0.102,0.056 0.462,0.213 0.923,0.361 1.376,0.446 0.821,0.175 1.634,0.131 2.448,-0.127 0.12,0.444 0.248,0.878 0.396,1.312 0.56,1.674 1.519,2.995 2.875,3.967 0.47,0.325 1.006,0.611 1.587,0.86 0.046,0.02 0.093,0.037 0.138,0.065 0.028,0.009 0.056,0.02 0.083,0.028 1.007,0.297 1.949,0.252 2.836,-0.144 0.019,-0.01 0.038,-0.027 0.064,-0.037 0.73,-0.415 1.37,-0.921 1.915,-1.521 v -0.009 c 0.009,0.017 0.029,0.037 0.046,0.046 l 0.093,0.092 0.111,0.103 c 0.129,0.12 0.258,0.23 0.387,0.333 1.3,1.008 2.797,1.315 4.47,0.901 0.028,-0.009 0.063,-0.029 0.091,-0.036 2.524,-1.004 4.069,-2.987 4.646,-5.952 v -0.027 c 0.215,-1.366 0.318,-2.687 0.33,-3.953 0.011,-0.932 -0.044,-1.837 -0.145,-2.716 0.333,-0.083 0.638,-0.193 0.907,-0.34 0.416,-0.23 0.758,-0.526 1.043,-0.886 v -0.009 c 0.344,-0.453 0.583,-1.006 0.725,-1.661 0.008,-0.027 0.008,-0.047 0.019,-0.065 0.008,-0.083 0.009,-0.158 0.018,-0.221 l -1.487,-0.003 v 0.037 c -0.102,0.397 -0.25,0.739 -0.445,1.024 h -0.009 c -0.157,0.193 -0.342,0.36 -0.564,0.479 -0.139,0.064 -0.277,0.129 -0.434,0.176 -0.009,-0.056 -0.102,-0.333 -0.276,-0.832 -0.121,-0.325 -0.25,-0.62 -0.397,-0.888"
         id="path355"
         style="fill:#255f27" />
      <path
         d="m 149.771,126.45 c 0.018,0.23 0.038,0.462 0.055,0.692 l 1.487,0.002 c -0.018,-0.203 -0.036,-0.406 -0.045,-0.618 -0.009,-0.065 -0.009,-0.121 -0.018,-0.176 -0.009,-0.204 -0.092,-0.37 -0.249,-0.508 -0.158,-0.139 -0.342,-0.195 -0.536,-0.186 -0.203,0.01 -0.37,0.102 -0.509,0.259 -0.139,0.155 -0.195,0.331 -0.185,0.535"
         id="path357"
         style="fill:#255f27" />
      <path
         d="m 156.19,112.927 h -0.009 -0.01 c -0.009,0.01 -0.027,0.01 -0.036,0.01 -1.792,0.542 -3.447,1.27 -4.954,2.182 -0.009,0 -0.019,0 -0.019,0.009 -0.111,0.065 -0.212,0.129 -0.313,0.194 0.044,0.111 0.21,0.453 0.505,1.026 0.268,0.526 0.452,0.933 0.535,1.238 0.165,0.572 0.312,1.302 0.45,2.189 0.147,0.952 0.219,1.737 0.218,2.347 0,0.693 -0.02,1.154 -0.067,1.395 -0.083,0.48 -0.287,1.015 -0.62,1.597 -0.083,0.139 -0.185,0.397 -0.315,0.757 -0.101,0.286 -0.204,0.498 -0.288,0.654 0.009,0.213 0.027,0.417 0.045,0.62 0.01,0.138 0.027,0.286 0.037,0.425 0.083,0.84 0.201,1.617 0.357,2.346 0.568,2.597 1.611,4.427 3.123,5.492 0.333,0.147 0.665,0.259 0.989,0.324 h 0.018 c 0.618,0.13 1.228,0.084 1.837,-0.127 0.14,-0.055 0.279,-0.12 0.417,-0.185 0.008,-0.008 0.028,-0.019 0.037,-0.027 h 0.009 l 0.009,-0.009 c 0.157,-0.092 0.295,-0.194 0.426,-0.314 0.564,-0.636 1.017,-1.355 1.351,-2.159 0.51,-1.246 0.641,-2.53 0.374,-3.861 0.48,0.519 0.776,1.147 0.885,1.895 0.293,1.95 -0.219,3.667 -1.522,5.134 -0.101,0.102 -0.212,0.193 -0.324,0.286 0.129,0.518 0.276,1.025 0.45,1.524 0.406,1.191 1.05,2.171 1.946,2.931 h 0.01 0.009 c 0.211,0.166 0.434,0.323 0.674,0.472 0.341,0.222 0.719,0.416 1.135,0.592 0.231,0.065 0.452,0.103 0.666,0.112 0.351,0.011 0.693,-0.044 1.016,-0.184 0.563,-0.331 1.053,-0.728 1.489,-1.198 0.064,-0.083 0.128,-0.157 0.194,-0.23 0.009,-0.01 0.009,-0.01 0.019,-0.019 0.074,-0.092 0.147,-0.186 0.212,-0.267 0,-0.009 0,-0.009 0.009,-0.019 0.046,-0.065 0.103,-0.139 0.158,-0.203 0.008,-0.019 0.019,-0.037 0.028,-0.047 0.038,-0.064 0.074,-0.119 0.102,-0.175 0.037,-0.045 0.065,-0.102 0.093,-0.146 0.083,-0.158 0.167,-0.324 0.25,-0.499 0.899,-1.893 1.372,-3.867 1.421,-5.928 0.01,-0.203 0.01,-0.406 0.001,-0.601 0.332,0.454 0.543,0.962 0.635,1.506 0.367,2.171 0.041,4.322 -0.989,6.455 0.01,0.01 0.01,0.01 0.02,0.019 0.046,0.047 0.083,0.093 0.128,0.139 0.158,0.157 0.315,0.294 0.472,0.417 0.913,0.675 1.946,0.879 3.111,0.613 1.986,-0.837 3.218,-2.443 3.682,-4.816 0,-0.009 0,-0.017 0.01,-0.027 0.14,-0.915 0.233,-1.736 0.29,-2.456 0.056,-0.676 0.075,-1.351 0.048,-2.024 -0.018,-0.6 -0.044,-1.191 -0.072,-1.791 -0.017,-0.305 -0.035,-0.601 -0.054,-0.896 -0.01,-0.028 -0.009,-0.065 -0.009,-0.103 l -0.375,-3.287 c 0.176,0.008 0.398,0.193 0.656,0.554 0.249,0.361 0.47,0.785 0.644,1.285 0.176,0.499 0.267,0.776 0.277,0.832 0.156,-0.046 0.296,-0.111 0.434,-0.175 0.222,-0.119 0.407,-0.287 0.563,-0.479 h 0.01 c 0.194,-0.285 0.342,-0.627 0.445,-1.024 0.328,-2.78 -0.381,-5.33 -2.114,-7.668 -0.009,-0.01 -0.009,-0.019 -0.019,-0.028 -0.008,-0.019 -0.027,-0.038 -0.034,-0.056 l -0.259,-0.333 c -0.011,-0.008 -0.02,-0.008 -0.019,-0.019 -0.027,-0.027 -0.055,-0.063 -0.074,-0.092 h -0.009 c -1.9,-2.358 -4.418,-4.144 -7.567,-5.377 h 0.01 c -3.871,-1.494 -8.165,-1.732 -12.868,-0.722 l 0,0 z"
         id="path359"
         style="fill:#9fc94c" />
    </g>
  </g>
</svg>
