<?xml version="1.0" encoding="UTF-8" standalone="no"?>
<!-- Created with Inkscape (http://www.inkscape.org/) -->

<svg
   xmlns:dc="http://purl.org/dc/elements/1.1/"
   xmlns:cc="http://creativecommons.org/ns#"
   xmlns:rdf="http://www.w3.org/1999/02/22-rdf-syntax-ns#"
   xmlns:svg="http://www.w3.org/2000/svg"
   xmlns="http://www.w3.org/2000/svg"
   version="1.1"
   width="290"
   height="256"
   id="svg5089">
  <defs
     id="defs5091" />
  <metadata
     id="metadata5094">
    <rdf:RDF>
      <cc:Work
         rdf:about="">
        <dc:format>image/svg+xml</dc:format>
        <dc:type
           rdf:resource="http://purl.org/dc/dcmitype/StillImage" />
        <dc:title></dc:title>
      </cc:Work>
    </rdf:RDF>
  </metadata>
  <g
     transform="translate(0,-224)"
     id="layer1">
    <g
       transform="translate(-280.53774,-266.13228)"
       id="g453">
      <path
         d="m 438.432,712.706 c -1.068,-4.731 -1.528,-9.512 -1.396,-14.342 0.131,-4.943 0.328,-9.906 0.591,-14.849 0.247,-4.747 0.593,-9.512 1.02,-14.277 l 9.812,-0.671 0.229,25.771 c 9.32,-1.034 16.831,-0.131 22.535,2.713 5.704,2.842 8.021,6.127 6.938,9.855 -1.069,3.729 -5.079,6.439 -12.017,8.148 -5.867,1.446 -14.004,0.936 -24.376,-1.511 -1.084,-0.261 -2.203,-0.542 -3.336,-0.837"
         id="path455"
         style="fill:#d82d1c" />
      <path
         d="m 438.432,712.706 c 1.134,0.295 2.252,0.576 3.336,0.839 10.372,2.446 18.509,2.957 24.376,1.511 6.938,-1.709 10.947,-4.419 12.017,-8.148 1.084,-3.729 -1.233,-7.014 -6.938,-9.855 -5.704,-2.844 -13.215,-3.747 -22.535,-2.713 l -0.229,-25.771 -9.812,0.671 c -0.427,4.766 -0.772,9.53 -1.02,14.277 -0.263,4.942 -0.46,9.905 -0.591,14.849 -0.133,4.828 0.327,9.609 1.396,14.34 z"
         id="path457"
         style="fill:none;stroke:#9e0c27;stroke-width:2.62899995;stroke-miterlimit:10" />
      <path
         d="m 432.81,630.113 c -0.23,-0.062 -0.461,-0.053 -0.683,0.021 l -5.643,1.955 c -0.18,0.066 -0.325,0.162 -0.446,0.272 -0.122,0.111 -0.217,0.262 -0.28,0.418 l -1.797,4.655 c -0.116,0.3 -0.107,0.584 0.019,0.883 0.126,0.299 0.322,0.502 0.615,0.631 5.099,2.24 9.847,4.456 14.246,6.666 4.319,2.169 8.398,4.805 12.266,7.892 2.551,2.035 5.029,4.611 7.42,7.69 -0.88,1.02 -1.811,2.592 -2.77,4.719 -1.27,2.758 -1.938,4.989 -1.985,6.691 -0.1,2.017 0.336,3.473 1.28,4.354 0.875,0.9 2.008,1.459 3.378,1.68 l -0.021,0.002 c 1.5,0.243 2.771,-0.164 3.8,-1.256 0.053,-0.069 0.106,-0.143 0.151,-0.201 0.051,-0.092 0.104,-0.16 0.154,-0.252 0.046,0.552 0.105,1.134 0.184,1.765 0.454,3.637 1.932,5.695 4.412,6.162 2.494,0.568 4.449,-0.23 5.836,-2.383 0.312,-0.486 0.599,-0.99 0.844,-1.51 0.003,0.021 0.018,0.051 0.041,0.069 0.739,1.149 1.633,1.583 2.671,1.313 3.079,-0.156 4.979,-2.181 5.688,-6.083 0.725,0.585 1.801,0.655 3.223,0.194 2.629,-0.809 3.859,-2.634 3.678,-5.455 -0.16,-2.359 -0.949,-4.768 -2.361,-7.182 -3.81,-6.521 -9.525,-9.633 -17.152,-9.36 -1.964,-2.889 -4.308,-5.492 -7.048,-7.819 -4.364,-3.701 -9.035,-7.022 -13.987,-9.948 -4.962,-2.91 -10.213,-5.097 -15.733,-6.583 m -3.205,8.476 c -1,-0.44 -2.002,-0.901 -3.026,-1.36 l 1.204,-3.086 4.767,-1.655 c 4.551,1.254 8.895,2.998 13.037,5.256 2.338,1.19 4.773,2.623 7.313,4.282 6.504,4.299 11.359,8.797 14.599,13.497 0.249,0.355 0.479,0.716 0.708,1.072 0.079,0.113 0.161,0.252 0.243,0.387 0.199,-0.016 0.405,-0.047 0.615,-0.054 0.458,-0.043 0.928,-0.078 1.391,-0.078 -0.012,-0.01 -0.035,-0.027 -0.038,-0.048 0.464,0 0.91,0.022 1.356,0.045 0.127,0.002 0.266,0.014 0.393,0.018 5.472,0.304 9.599,2.824 12.382,7.59 0.967,1.637 1.596,3.277 1.909,4.92 -0.009,0.013 -0.009,0.013 0.003,0.02 0.068,0.422 0.127,0.835 0.164,1.254 0.059,0.728 0.048,1.329 -0.021,1.813 -0.139,0.82 -0.471,1.31 -0.998,1.467 -0.162,0.045 -0.312,0.098 -0.467,0.129 -0.644,0.141 -1.22,0.17 -1.729,0.062 -0.955,-0.185 -1.694,-0.797 -2.198,-1.843 -0.207,-0.807 -0.408,-1.494 -0.583,-2.069 -0.003,-0.022 -0.015,-0.03 -0.019,-0.05 -0.17,-0.535 -0.315,-0.979 -0.459,-1.327 0.059,0.266 0.113,0.584 0.178,0.966 0.017,0.123 0.033,0.247 0.043,0.383 0.014,0.03 0.02,0.071 0.014,0.103 0.164,1.326 0.166,2.624 -0.001,3.921 -0.259,2.228 -0.894,3.804 -1.916,4.712 -0.618,0.552 -1.366,0.856 -2.244,0.915 -0.112,0.026 -0.228,0.032 -0.343,0.036 -0.823,-0.01 -1.451,-0.724 -1.913,-2.146 -0.143,-0.422 -0.277,-0.93 -0.379,-1.506 -0.305,-3.023 -0.523,-4.815 -0.646,-5.389 -0.021,1.813 -0.094,3.406 -0.227,4.729 -0.16,1.489 -0.387,2.668 -0.674,3.561 -0.332,1.027 -0.768,1.824 -1.311,2.396 -0.81,0.853 -1.858,1.187 -3.146,1.028 -0.204,-0.024 -0.397,-0.06 -0.604,-0.104 -1.089,-0.251 -1.875,-1.88 -2.364,-4.93 -0.422,-2.796 -0.445,-4.627 -0.046,-5.474 -0.406,0.562 -0.811,1.07 -1.242,1.522 -0.478,0.509 -0.985,0.959 -1.488,1.356 -0.125,0.091 -0.249,0.183 -0.363,0.261 -0.364,0.262 -0.714,0.478 -1.039,0.64 -1.216,0.581 -2.232,0.479 -3.065,-0.279 -0.062,-0.064 -0.123,-0.13 -0.174,-0.185 -1.298,-1.443 -1.108,-4.094 0.568,-7.953 0.62,-1.456 1.348,-2.81 2.188,-4.045 0.211,-0.302 0.403,-0.582 0.569,-0.827 0.187,-0.248 0.35,-0.439 0.486,-0.595 0.074,-0.072 0.138,-0.154 0.193,-0.206 0.139,-0.135 0.255,-0.214 0.346,-0.238 -0.123,-0.203 -0.234,-0.398 -0.349,-0.615 -0.092,-0.123 -0.174,-0.258 -0.244,-0.387 -0.022,-0.018 -0.039,-0.047 -0.041,-0.069 -2.894,-4.569 -7.561,-8.852 -13.992,-12.854 -0.092,-0.05 -0.161,-0.105 -0.241,-0.146 -1.028,-0.647 -2.097,-1.27 -3.204,-1.883 -4.117,-2.294 -8.741,-4.6 -13.875,-6.94"
         id="path459"
         style="fill:#9e0c27" />
      <path
         d="m 429.605,638.589 c 5.134,2.34 9.758,4.646 13.873,6.94 1.107,0.612 2.176,1.234 3.204,1.882 0.08,0.04 0.149,0.096 0.241,0.146 6.432,4.003 11.099,8.285 13.992,12.854 0.002,0.022 0.019,0.052 0.041,0.069 0.07,0.129 0.152,0.264 0.244,0.387 0.114,0.217 0.226,0.412 0.349,0.615 -0.091,0.024 -0.207,0.104 -0.346,0.238 -0.056,0.052 -0.119,0.134 -0.193,0.206 -0.137,0.155 -0.3,0.347 -0.486,0.595 -0.166,0.245 -0.358,0.525 -0.569,0.827 -0.84,1.235 -1.567,2.589 -2.188,4.045 -1.677,3.859 -1.866,6.51 -0.568,7.953 0.051,0.055 0.112,0.12 0.174,0.185 0.833,0.759 1.85,0.86 3.065,0.279 0.325,-0.162 0.675,-0.378 1.039,-0.64 0.114,-0.078 0.238,-0.17 0.363,-0.261 0.503,-0.397 1.011,-0.848 1.488,-1.356 0.432,-0.449 0.836,-0.96 1.242,-1.522 -0.399,0.847 -0.376,2.678 0.046,5.474 0.489,3.05 1.275,4.682 2.364,4.93 0.207,0.044 0.4,0.079 0.604,0.104 1.288,0.158 2.337,-0.176 3.146,-1.028 0.543,-0.571 0.979,-1.368 1.311,-2.396 0.287,-0.893 0.514,-2.071 0.674,-3.561 0.133,-1.323 0.205,-2.916 0.227,-4.729 0.122,0.573 0.341,2.365 0.646,5.389 0.102,0.576 0.236,1.084 0.379,1.506 0.462,1.423 1.09,2.137 1.912,2.146 0.116,-0.004 0.231,-0.01 0.344,-0.036 0.878,-0.059 1.626,-0.363 2.244,-0.915 1.022,-0.908 1.657,-2.484 1.916,-4.712 0.167,-1.297 0.165,-2.595 0.001,-3.921 0.006,-0.031 0,-0.072 -0.014,-0.103 -0.01,-0.136 -0.026,-0.26 -0.043,-0.383 -0.064,-0.382 -0.119,-0.7 -0.178,-0.966 0.144,0.348 0.289,0.792 0.459,1.327 0.004,0.02 0.016,0.027 0.019,0.05 0.175,0.575 0.376,1.263 0.583,2.069 0.504,1.046 1.243,1.658 2.198,1.843 0.51,0.107 1.086,0.078 1.729,-0.062 0.154,-0.031 0.305,-0.084 0.467,-0.129 0.527,-0.157 0.859,-0.646 0.998,-1.467 0.069,-0.482 0.08,-1.086 0.021,-1.813 -0.037,-0.419 -0.096,-0.832 -0.164,-1.254 -0.012,-0.007 -0.012,-0.007 -0.003,-0.02 -0.313,-1.643 -0.942,-3.283 -1.909,-4.92 -2.783,-4.766 -6.91,-7.286 -12.382,-7.59 -0.127,-0.004 -0.266,-0.016 -0.393,-0.018 -0.446,-0.022 -0.893,-0.045 -1.356,-0.045 0.003,0.021 0.026,0.038 0.038,0.048 -0.463,0 -0.933,0.035 -1.391,0.078 -0.21,0.007 -0.416,0.038 -0.615,0.054 -0.082,-0.135 -0.164,-0.273 -0.243,-0.387 -0.229,-0.356 -0.459,-0.717 -0.708,-1.072 -3.239,-4.7 -8.095,-9.198 -14.599,-13.497 -2.54,-1.659 -4.976,-3.092 -7.313,-4.282 -4.143,-2.258 -8.486,-4.002 -13.037,-5.256 l -4.767,1.655 -1.204,3.086 c 1.027,0.46 2.028,0.92 3.028,1.361"
         id="path461"
         style="fill:#d82d1c" />
      <path
         d="m 438.352,631.14 c -8.087,-0.017 -13.429,1.645 -16.026,4.945 -2.58,3.104 -4.635,7.146 -6.163,12.14 -1.479,4.779 -2.697,9.103 -3.633,12.945 -2.58,8.429 -0.674,15.556 5.72,21.39 l 0.016,0.017 c 5.638,5.124 12.804,7.77 21.5,7.916 9.072,0.164 15.91,-2.546 20.496,-8.13 5.441,-6.426 6.163,-15.41 2.17,-26.958 -1.069,-3.106 -2.449,-6.425 -4.143,-9.925 -2.317,-4.877 -4.158,-8.393 -5.506,-10.528 -1.397,-2.531 -6.196,-3.795 -14.431,-3.812"
         id="path463"
         style="fill:#9e0c27" />
      <path
         d="m 420.154,716.682 c -1.068,-4.732 -1.529,-9.513 -1.397,-14.342 0.131,-4.943 0.329,-9.904 0.591,-14.85 0.247,-4.747 0.592,-9.511 1.02,-14.274 l 9.813,-0.674 0.229,25.775 c 9.32,-1.035 16.832,-0.133 22.535,2.708 5.704,2.843 8.021,6.128 6.938,9.857 -1.07,3.729 -5.079,6.439 -12.017,8.148 -5.868,1.444 -14.004,0.937 -24.375,-1.511 -1.086,-0.262 -2.203,-0.541 -3.337,-0.837"
         id="path465"
         style="fill:#d82d1c" />
      <path
         d="m 420.154,716.682 c 1.134,0.296 2.251,0.575 3.337,0.839 10.371,2.447 18.507,2.955 24.375,1.511 6.938,-1.709 10.946,-4.42 12.017,-8.148 1.084,-3.729 -1.233,-7.015 -6.938,-9.857 -5.703,-2.841 -13.215,-3.743 -22.535,-2.708 l -0.229,-25.775 -9.813,0.674 c -0.428,4.764 -0.773,9.527 -1.02,14.274 -0.262,4.945 -0.46,9.906 -0.591,14.85 -0.132,4.827 0.329,9.607 1.397,14.34 z"
         id="path467"
         style="fill:none;stroke:#9e0c27;stroke-width:2.62899995;stroke-miterlimit:10" />
      <path
         d="m 478.682,555.574 c -5.035,-4.27 -11.197,-7.488 -18.515,-9.627 -4.076,-1.203 -8.488,-1.845 -13.276,-1.949 0.451,-0.526 0.723,-0.892 0.806,-1.075 2.057,-4.43 2.29,-9.025 0.682,-13.786 -1.57,-4.754 -4.494,-8.279 -8.778,-10.592 -4.278,-2.298 -8.63,-2.695 -13.1,-1.215 -4.459,1.512 -7.706,4.487 -9.742,8.928 -0.721,1.575 -1.223,3.17 -1.493,4.779 -1.183,-1.035 -2.548,-1.924 -4.075,-2.658 -4.566,-2.208 -9.287,-2.492 -14.156,-0.886 -4.858,1.638 -8.441,4.717 -10.749,9.241 -2.33,4.515 -2.707,9.156 -1.131,13.926 0.956,2.842 2.436,5.222 4.459,7.152 -1.041,0.656 -2.06,1.324 -3.054,2.021 -6.901,4.816 -12.635,10.285 -17.168,16.397 -4.548,6.118 -7.494,12.313 -8.83,18.605 -1.336,6.291 -1.018,12.54 0.937,18.753 1.956,6.213 5.47,11.57 10.532,16.043 5.063,4.474 11.239,7.793 18.525,9.941 7.322,2.155 15.198,3.103 23.632,2.809 8.727,-0.317 17.458,-1.914 26.151,-4.818 8.709,-2.904 16.653,-6.853 23.824,-11.878 6.935,-4.825 12.667,-10.294 17.2,-16.405 4.532,-6.113 7.522,-12.394 9.004,-18.834 1.502,-6.66 1.233,-13.03 -0.804,-19.111 -2.037,-6.081 -5.66,-11.337 -10.881,-15.761"
         id="path469"
         style="fill:#d82d1c" />
      <path
         d="m 460.167,545.947 c -4.077,-1.203 -8.489,-1.845 -13.275,-1.949 0.449,-0.526 0.722,-0.892 0.805,-1.075 2.057,-4.43 2.29,-9.025 0.682,-13.785 -1.569,-4.755 -4.495,-8.28 -8.777,-10.593 -4.279,-2.298 -8.632,-2.695 -13.101,-1.215 -4.458,1.512 -7.706,4.487 -9.742,8.928 -0.72,1.575 -1.223,3.17 -1.492,4.779 -1.183,-1.035 -2.549,-1.924 -4.076,-2.658 -4.566,-2.208 -9.287,-2.491 -14.156,-0.886 -4.858,1.638 -8.441,4.717 -10.749,9.241 -2.329,4.515 -2.706,9.156 -1.131,13.926 0.956,2.842 2.436,5.222 4.459,7.152 -1.041,0.656 -2.06,1.325 -3.053,2.021 -6.902,4.816 -12.636,10.285 -17.169,16.397 -4.548,6.118 -7.494,12.313 -8.829,18.605 -1.336,6.291 -1.019,12.54 0.937,18.753 1.955,6.213 5.469,11.57 10.531,16.043 5.063,4.474 11.239,7.794 18.525,9.941 7.322,2.155 15.197,3.104 23.633,2.809 8.727,-0.317 17.458,-1.913 26.149,-4.818 8.709,-2.904 16.654,-6.853 23.825,-11.878 6.934,-4.825 12.667,-10.294 17.199,-16.405 4.533,-6.113 7.522,-12.394 9.005,-18.834 1.502,-6.66 1.235,-13.03 -0.804,-19.111 -2.037,-6.081 -5.66,-11.337 -10.881,-15.761 -5.036,-4.269 -11.198,-7.488 -18.515,-9.627 z"
         id="path471"
         style="fill:none;stroke:#9e0c27;stroke-width:2.68000007;stroke-miterlimit:10" />
      <path
         d="m 446.534,542.461 c 1.93,-4.109 2.172,-8.394 0.738,-12.874 -1.475,-4.45 -4.165,-7.786 -8.069,-10.007 -3.931,-2.196 -7.928,-2.634 -12.026,-1.32 -4.138,1.305 -7.151,3.964 -9.068,7.998 -1.247,2.581 -1.815,5.265 -1.693,8.016 -1.489,-1.903 -3.381,-3.472 -5.684,-4.667 -4.191,-2.182 -8.554,-2.558 -13.095,-1.144 -4.542,1.414 -7.918,4.203 -10.141,8.386 -2.206,4.178 -2.603,8.527 -1.197,13.034 1.406,4.509 4.202,7.846 8.392,10.03 4.207,2.18 8.575,2.571 13.117,1.156 4.541,-1.415 7.913,-4.219 10.119,-8.396 0.099,-0.188 0.198,-0.378 0.297,-0.566 3.236,-1.044 5.696,-1.933 7.391,-2.688 3.764,2.053 7.676,2.447 11.743,1.198 4.153,-1.312 7.219,-4.022 9.176,-8.156"
         id="path473"
         style="fill:#ffffff" />
      <path
         d="m 411.288,531.073 c -2.103,-1.528 -4.367,-2.062 -6.817,-1.625 -2.466,0.442 -4.39,1.729 -5.789,3.868 -1.394,2.153 -1.832,4.506 -1.337,7.086 0.495,2.578 1.783,4.618 3.872,6.152 2.104,1.526 4.367,2.059 6.817,1.622 2.451,-0.438 4.361,-1.718 5.76,-3.856 1.399,-2.138 1.836,-4.492 1.336,-7.087 -0.481,-2.583 -1.753,-4.628 -3.842,-6.16"
         id="path475"
         style="fill:#282525" />
      <path
         d="m 436.733,520.606 c -2.057,-1.542 -4.261,-2.092 -6.636,-1.678 -2.39,0.416 -4.246,1.684 -5.587,3.802 -1.334,2.134 -1.737,4.477 -1.232,7.055 0.504,2.575 1.771,4.622 3.813,6.168 2.058,1.543 4.262,2.094 6.637,1.681 2.375,-0.413 4.218,-1.676 5.557,-3.794 1.34,-2.119 1.742,-4.463 1.234,-7.054 -0.49,-2.581 -1.744,-4.632 -3.786,-6.18"
         id="path477"
         style="fill:#282525" />
      <path
         d="m 469.864,576.618 c -2.181,2.201 -4.438,4.202 -6.794,6.016 -2.985,2.345 -6.102,4.407 -9.366,6.173 -3.425,1.864 -7.093,3.608 -11.009,5.217 0.308,-0.203 -0.602,0.139 -2.725,0.986 -2.121,0.851 -4.988,1.732 -8.606,2.67 -3.623,0.922 -7.252,1.514 -10.889,1.774 -2.846,0.247 -5.735,0.263 -8.659,0.082 -2.195,-0.175 -4.372,-0.425 -6.544,-0.747 3.482,1.268 6.996,2.152 10.553,2.69 3.203,0.461 6.426,0.635 9.648,0.493 2.872,-0.114 5.691,-0.491 8.47,-1.13 2.856,-0.651 5.152,-1.339 6.884,-2.076 1.726,-0.717 2.919,-1.199 3.589,-1.469 0.659,-0.265 1.665,-0.643 3.034,-1.139 1.368,-0.496 3.333,-1.495 5.896,-2.999 2.517,-1.436 4.926,-3.125 7.23,-5.059 2.597,-2.146 5.005,-4.538 7.245,-7.164 2.482,-2.909 4.725,-6.061 6.728,-9.49 -1.504,1.774 -3.066,3.497 -4.685,5.172"
         id="path479"
         style="fill:#282525" />
      <path
         d="m 415.848,562.493 c 0.749,4.992 3.167,9.104 7.227,12.36 4.091,3.246 8.649,4.679 13.69,4.296 5.02,-0.395 9.027,-2.487 12.037,-6.296 3.033,-3.782 4.174,-8.177 3.426,-13.168 -0.749,-4.994 -3.172,-9.121 -7.27,-12.384 -4.059,-3.256 -8.611,-4.672 -13.647,-4.273 -5.025,0.38 -9.054,2.46 -12.079,6.273 -3.009,3.808 -4.133,8.2 -3.384,13.192"
         id="path481"
         style="fill:#e78c00" />
      <path
         d="m 430.413,632.603 c -0.871,0.377 -1.66,0.872 -2.351,1.494 -0.74,0.657 -1.512,1.381 -2.317,2.187 -0.478,0.476 -0.871,0.886 -1.151,1.213 -0.082,0.084 -0.164,0.166 -0.246,0.265 -2.367,2.873 -4.257,6.62 -5.671,11.237 -1.479,4.764 -2.678,9.051 -3.616,12.861 -0.016,0.017 -0.016,0.051 -0.016,0.082 -2.252,7.358 -0.592,13.586 4.98,18.679 5.194,4.682 11.785,7.096 19.79,7.243 8.137,0.149 14.283,-2.25 18.426,-7.179 4.749,-5.831 5.325,-13.979 1.709,-24.428 -1.034,-3.021 -2.383,-6.241 -4.026,-9.642 -1.792,-3.729 -3.272,-6.652 -4.455,-8.738 -0.148,-0.479 -0.444,-1.102 -0.887,-1.875 -0.707,-1.15 -1.102,-1.806 -1.184,-1.987 -0.279,-0.46 -0.51,-0.805 -0.69,-1.02 -0.312,-0.393 -0.822,-0.705 -1.496,-0.919 -1.825,-0.607 -5.736,-0.919 -11.77,-0.902 -2.203,0.443 -3.879,0.919 -5.029,1.429 m 3.402,-0.131 0.264,-0.083 v 0.083 h -0.264 z"
         id="path483"
         style="fill:#d82d1c" />
      <path
         d="m 472.995,616.772 -1.462,-4.686 -70.905,22.092 2.019,6.47 c 3.705,0.409 7.53,0.542 11.496,0.407 8.606,-0.31 17.196,-1.885 25.78,-4.749 8.584,-2.862 16.415,-6.764 23.492,-11.701 3.502,-2.45 6.695,-5.06 9.58,-7.833"
         id="path485"
         style="fill:#d82d1c" />
      <path
         d="m 411.985,640.531 -0.016,-0.006 c -0.492,-1.546 -0.39,-3.021 0.325,-4.433 0.563,-1.154 1.498,-2.135 2.78,-2.97 1.148,-0.74 2.325,-1.198 3.53,-1.372 l 0.02,-0.012 c 1.524,-0.208 2.65,0.021 3.367,0.713 l 0.011,0.022 c 1.022,0.862 2.351,2.475 4.007,4.809 2.557,3.638 3.929,5.589 4.121,5.841 l 0.01,0.021 c 3.194,4.203 6.066,6.128 8.631,5.776 2.029,-0.559 3.403,-4.155 4.123,-10.756 0.21,-2.072 0.384,-4.774 0.51,-8.123 0.136,-3.005 0.25,-4.731 0.354,-5.158 -0.01,-0.021 -0.01,-0.021 0.006,-0.017 0.831,-3.516 2.02,-5.751 3.564,-6.705 1.546,-1.125 3.248,-1.037 5.084,0.276 1.311,0.922 2.442,2.351 3.39,4.287 0.923,1.907 1.351,3.654 1.275,5.259 10e-4,2.637 -0.036,5.021 -0.127,7.15 l 0.005,-0.016 c -0.147,4.097 -0.534,7.724 -1.168,10.89 -2.011,10.052 -6.4,16.079 -13.162,18.067 -2.498,0.783 -5.387,0.6 -8.673,-0.517 -2.947,-1.005 -5.925,-2.706 -8.928,-5.068 -2.942,-2.341 -5.547,-5.033 -7.826,-8.101 -2.391,-3.24 -4.134,-6.528 -5.213,-9.857 m 7.001,-6.207 c -0.85,0.135 -1.693,0.462 -2.498,0.987 -0.846,0.548 -1.469,1.203 -1.865,1.946 -0.39,0.781 -0.451,1.601 -0.165,2.465 1.004,3.082 2.622,6.125 4.837,9.119 2.132,2.884 4.581,5.425 7.352,7.607 2.738,2.173 5.458,3.721 8.155,4.646 2.674,0.9 5.035,1.067 7.076,0.479 5.795,-1.856 9.569,-7.21 11.349,-16.069 0.593,-3.044 0.972,-6.535 1.119,-10.477 0.086,-2.113 0.119,-4.484 0.128,-7.101 0.006,-0.017 0.011,-0.032 -10e-4,-0.052 0.032,-1.205 -0.304,-2.548 -1.012,-4.01 -0.718,-1.482 -1.577,-2.584 -2.562,-3.297 -0.768,-0.541 -1.458,-0.627 -2.095,-0.251 l -0.016,-0.006 c -1.025,0.781 -1.856,2.498 -2.493,5.151 l 0.008,-0.03 c -0.077,0.401 -0.173,1.966 -0.295,4.715 l 0.005,-0.014 c -0.132,3.415 -0.295,6.19 -0.521,8.309 -0.905,8.287 -2.988,12.646 -6.253,13.044 l 0.016,0.004 c -3.437,0.771 -7.162,-1.481 -11.185,-6.774 l 0.011,0.02 c -0.208,-0.254 -1.605,-2.231 -4.203,-5.952 -1.497,-2.095 -2.689,-3.543 -3.577,-4.344 -0.29,-0.162 -0.723,-0.2 -1.3,-0.113 l -0.015,-0.002 z"
         id="path487"
         style="fill:#9e0c27" />
      <path
         d="m 416.488,635.312 c 0.805,-0.525 1.648,-0.853 2.498,-0.987 l 0.015,0.003 c 0.577,-0.087 1.01,-0.049 1.3,0.113 0.888,0.801 2.08,2.249 3.577,4.344 2.597,3.721 3.995,5.698 4.203,5.952 l -0.01,-0.02 c 4.021,5.293 7.747,7.546 11.184,6.774 l -0.016,-0.004 c 3.265,-0.397 5.348,-4.757 6.253,-13.044 0.226,-2.118 0.389,-4.894 0.521,-8.309 l -0.005,0.014 c 0.122,-2.749 0.217,-4.313 0.295,-4.715 l -0.009,0.03 c 0.638,-2.653 1.469,-4.37 2.494,-5.151 l 0.016,0.006 c 0.637,-0.376 1.327,-0.29 2.095,0.251 0.985,0.713 1.845,1.814 2.562,3.297 0.708,1.462 1.044,2.805 1.012,4.009 0.012,0.021 0.006,0.036 10e-4,0.053 -0.009,2.616 -0.042,4.987 -0.128,7.101 -0.147,3.941 -0.525,7.433 -1.12,10.477 -1.778,8.859 -5.553,14.213 -11.348,16.069 -2.041,0.588 -4.403,0.421 -7.076,-0.479 -2.698,-0.925 -5.417,-2.473 -8.156,-4.646 -2.77,-2.183 -5.219,-4.724 -7.351,-7.607 -2.215,-2.994 -3.833,-6.037 -4.837,-9.119 -0.286,-0.864 -0.225,-1.684 0.165,-2.465 0.396,-0.744 1.019,-1.4 1.865,-1.947"
         id="path489"
         style="fill:#d82d1c" />
      <path
         d="m 454.545,637.424 c 10e-4,0.188 -0.002,0.395 -0.017,0.58 -0.532,0.139 -1.023,0.258 -1.488,0.353 -2.653,0.565 -5.166,0.592 -7.546,0.095 0.012,-0.134 0.024,-0.267 0.017,-0.392 0.007,-0.411 0.03,-0.817 0.068,-1.216 0.047,-0.571 -0.064,-0.991 -0.312,-1.268 l -3.938,-1.46 c -1.001,-0.492 -1.99,-1.065 -2.956,-1.701 -3.889,-2.53 -5.675,-4.854 -5.358,-6.971 0.012,-0.079 0.03,-0.177 0.047,-0.275 0.305,-1.204 1.177,-1.913 2.649,-2.118 0.396,-0.05 0.851,-0.062 1.344,-0.042 0.155,0.002 0.325,0.011 0.495,0.019 0.704,0.06 1.443,0.165 2.191,0.344 0.673,0.15 1.354,0.374 2.069,0.644 -0.881,-0.534 -1.973,-2.233 -3.286,-5.062 -1.405,-3.102 -1.674,-5.079 -0.823,-5.969 0.161,-0.167 0.319,-0.317 0.491,-0.464 1.088,-0.927 2.259,-1.257 3.52,-0.967 0.847,0.197 1.733,0.666 2.664,1.408 0.806,0.648 1.73,1.596 2.785,2.865 0.926,1.139 1.962,2.558 3.085,4.213 -0.237,-0.601 -1.126,-2.382 -2.685,-5.348 -0.257,-0.593 -0.441,-1.141 -0.566,-1.616 -0.441,-1.588 -0.3,-2.625 0.452,-3.137 0.109,-0.063 0.219,-0.131 0.339,-0.173 0.842,-0.479 1.716,-0.655 2.619,-0.524 1.495,0.216 3.035,1.278 4.63,3.171 0.942,1.094 1.729,2.286 2.385,3.606 0.025,0.025 0.045,0.065 0.05,0.104 0.075,0.129 0.135,0.254 0.194,0.378 0.173,0.39 0.316,0.716 0.424,0.996 -0.08,-0.408 -0.215,-0.905 -0.384,-1.5 -0.012,-0.02 -0.005,-0.035 -0.016,-0.058 -0.188,-0.635 -0.422,-1.391 -0.721,-2.256 -0.173,-1.269 0.135,-2.282 0.9,-3.031 0.403,-0.409 0.949,-0.733 1.63,-0.994 0.161,-0.064 0.331,-0.106 0.507,-0.166 0.58,-0.174 1.184,0.073 1.81,0.743 0.358,0.403 0.734,0.951 1.123,1.657 0.22,0.406 0.418,0.821 0.611,1.251 -0.005,0.016 -0.005,0.016 0.01,0.021 0.711,1.702 1.13,3.593 1.236,5.683 0.337,6.073 -1.923,10.901 -6.773,14.505 -0.114,0.078 -0.233,0.176 -0.349,0.258 -0.397,0.29 -0.794,0.58 -1.221,0.86 -0.011,-0.021 10e-4,-0.05 0.007,-0.065 -0.429,0.279 -0.88,0.533 -1.328,0.773 -0.198,0.119 -0.405,0.219 -0.599,0.323 0.008,0.175 0.015,0.351 0.013,0.505 0.007,0.468 0.014,0.938 0.001,1.418"
         id="path491"
         style="fill:#d82d1c" />
      <path
         d="m 454.529,638.004 c 0.013,-0.186 0.017,-0.392 0.016,-0.58 0.013,-0.479 0.006,-0.95 0,-1.417 0.002,-0.154 -0.005,-0.33 -0.012,-0.505 0.192,-0.104 0.399,-0.204 0.598,-0.323 0.447,-0.24 0.9,-0.494 1.327,-0.773 -0.005,0.016 -0.016,0.045 -0.006,0.065 0.427,-0.28 0.824,-0.57 1.221,-0.86 0.114,-0.081 0.234,-0.18 0.35,-0.258 4.849,-3.604 7.109,-8.432 6.772,-14.505 -0.106,-2.09 -0.525,-3.982 -1.236,-5.683 -0.016,-0.006 -0.016,-0.006 -0.01,-0.021 -0.192,-0.43 -0.392,-0.845 -0.61,-1.251 -0.39,-0.708 -0.766,-1.254 -1.123,-1.657 -0.627,-0.67 -1.23,-0.917 -1.811,-0.743 -0.176,0.06 -0.347,0.102 -0.508,0.166 -0.679,0.261 -1.225,0.585 -1.63,0.995 -0.765,0.748 -1.072,1.761 -0.899,3.03 0.298,0.865 0.532,1.621 0.722,2.256 0.01,0.022 0.004,0.038 0.015,0.058 0.169,0.595 0.304,1.092 0.384,1.5 -0.107,-0.28 -0.251,-0.606 -0.424,-0.996 -0.06,-0.124 -0.119,-0.249 -0.195,-0.378 -0.004,-0.038 -0.022,-0.078 -0.049,-0.104 -0.656,-1.32 -1.442,-2.513 -2.386,-3.606 -1.593,-1.893 -3.133,-2.955 -4.629,-3.171 -0.903,-0.13 -1.777,0.045 -2.62,0.523 -0.119,0.043 -0.229,0.11 -0.338,0.174 -0.751,0.512 -0.894,1.549 -0.453,3.137 0.125,0.476 0.311,1.023 0.567,1.616 1.559,2.966 2.447,4.747 2.685,5.348 -1.124,-1.655 -2.159,-3.074 -3.086,-4.213 -1.053,-1.27 -1.979,-2.217 -2.785,-2.865 -0.929,-0.742 -1.817,-1.211 -2.663,-1.408 -1.261,-0.29 -2.431,0.04 -3.519,0.967 -0.174,0.146 -0.33,0.297 -0.493,0.464 -0.851,0.89 -0.582,2.867 0.825,5.969 1.312,2.828 2.403,4.527 3.285,5.062 -0.716,-0.27 -1.396,-0.493 -2.068,-0.644 -0.749,-0.179 -1.488,-0.284 -2.192,-0.344 -0.17,-0.008 -0.341,-0.017 -0.495,-0.019 -0.494,-0.021 -0.946,-0.008 -1.345,0.042 -1.471,0.205 -2.344,0.914 -2.649,2.118 -0.017,0.099 -0.033,0.196 -0.046,0.276 -0.316,2.115 1.471,4.439 5.358,6.97 0.966,0.636 1.955,1.209 2.956,1.701 l 3.938,1.46 c 0.248,0.276 0.358,0.696 0.312,1.266 -0.038,0.4 -0.062,0.807 -0.069,1.218 0.009,0.125 -0.004,0.258 -0.017,0.392 -0.724,-0.151 -1.43,-0.349 -2.121,-0.592 -0.184,-0.068 -0.354,-0.127 -0.528,-0.17 -0.009,-0.023 -0.009,-0.023 -0.004,-0.037 l -2.965,-1.236 c -0.759,-0.391 -1.574,-0.868 -2.45,-1.422 -2.847,-1.765 -4.819,-3.409 -5.898,-4.948 -1.317,-1.794 -1.804,-3.397 -1.47,-4.781 0.258,-1.359 0.958,-2.562 2.084,-3.596 l -0.02,0.011 c 1.229,-1.137 2.647,-1.534 4.258,-1.154 0.092,0.031 0.186,0.065 0.261,0.093 0.103,0.052 0.194,0.086 0.296,0.139 -0.294,-0.534 -0.593,-1.108 -0.905,-1.734 -1.793,-3.62 -1.686,-6.412 0.312,-8.348 1.947,-2.039 4.232,-2.492 6.816,-1.354 0.583,0.259 1.153,0.546 1.693,0.875 -0.01,-0.021 -0.014,-0.055 -0.004,-0.088 -0.018,-1.507 0.54,-2.448 1.659,-2.83 2.925,-1.729 5.904,-1.021 8.933,2.138 0.311,-0.977 1.256,-1.697 2.845,-2.136 2.909,-0.853 5.152,0.078 6.701,2.781 1.287,2.269 2.025,4.963 2.196,8.044 0.462,8.309 -2.902,14.646 -10.084,19.029 -0.01,0.03 -0.006,0.067 0.005,0.087 -0.233,0.073 -0.523,0.162 -0.854,0.269 -0.609,0.196 -1.188,0.371 -1.721,0.511"
         id="path493"
         style="fill:#9e0c27" />
      <path
         d="m 405.866,638.05 c 0.575,2.036 1.381,3.055 2.4,3.055 4.257,0 8.366,-0.377 12.327,-1.134 1.973,-0.377 3.485,-0.771 4.554,-1.197 2.119,0 3.681,-0.758 4.7,-2.27 0.658,-0.969 0.986,-1.971 0.986,-3.006 0,-1.987 -0.904,-3.942 -2.729,-5.83 -0.707,-0.74 -1.331,-1.183 -1.84,-1.298 -1.562,-2.153 -4.685,-3.27 -9.337,-3.383 -4.208,0.655 -7.331,2.363 -9.369,5.141 -1.495,2.037 -2.252,4.304 -2.252,6.817 0.002,0.016 0.182,1.051 0.56,3.105 m 21.45,-2.237 c 1.232,-1.46 1.709,-2.775 1.446,-3.907 v -0.051 c 0.116,0.23 0.23,0.527 0.312,0.872 0.081,0.329 0.115,0.607 0.115,0.854 0,0.591 -0.064,1.003 -0.197,1.249 -0.245,0.443 -0.804,0.773 -1.676,0.983"
         id="path495"
         style="fill:#d82d1c" />
    </g>
  </g>
</svg>
