<?xml version="1.0" encoding="UTF-8" standalone="no"?>
<!-- Created with Inkscape (http://www.inkscape.org/) -->

<svg
   xmlns:dc="http://purl.org/dc/elements/1.1/"
   xmlns:cc="http://creativecommons.org/ns#"
   xmlns:rdf="http://www.w3.org/1999/02/22-rdf-syntax-ns#"
   xmlns:svg="http://www.w3.org/2000/svg"
   xmlns="http://www.w3.org/2000/svg"
   xmlns:sodipodi="http://sodipodi.sourceforge.net/DTD/sodipodi-0.dtd"
   xmlns:inkscape="http://www.inkscape.org/namespaces/inkscape"
   id="svg2"
   version="1.1"
   inkscape:version="0.48.3.1 r9886"
   width="305"
   height="515"
   xml:space="preserve"
   sodipodi:docname="me.svg"><metadata
     id="metadata8"><rdf:RDF><cc:Work
         rdf:about=""><dc:format>image/svg+xml</dc:format><dc:type
           rdf:resource="http://purl.org/dc/dcmitype/StillImage" /><dc:title></dc:title></cc:Work></rdf:RDF></metadata><defs
     id="defs6"><clipPath
       clipPathUnits="userSpaceOnUse"
       id="clipPath16"><path
         d="M 0,500 500,500 500,0 0,0 0,500 z"
         id="path18"
         inkscape:connector-curvature="0" /></clipPath></defs><sodipodi:namedview
     pagecolor="#ffffff"
     bordercolor="#666666"
     borderopacity="1"
     objecttolerance="10"
     gridtolerance="10"
     guidetolerance="10"
     inkscape:pageopacity="0"
     inkscape:pageshadow="2"
     inkscape:window-width="833"
     inkscape:window-height="720"
     id="namedview4"
     showgrid="false"
     inkscape:zoom="0.3776"
     inkscape:cx="-29.131356"
     inkscape:cy="312.5"
     inkscape:window-x="0"
     inkscape:window-y="24"
     inkscape:window-maximized="0"
     inkscape:current-layer="g10" /><g
     id="g10"
     inkscape:groupmode="layer"
     inkscape:label="me"
     transform="matrix(1.25,0,0,-1.25,0,515)"><g
       id="g12"
       transform="translate(-124.66455,-62.73705)"><g
         id="g14"
         clip-path="url(#clipPath16)"><g
           id="g20"
           transform="translate(310.3867,408.6318)"><path
             d="m 0,0 c 0,-30.764 -24.938,-55.702 -55.702,-55.702 -30.763,0 -55.702,24.938 -55.702,55.702 0,30.763 24.939,55.702 55.702,55.702 C -24.938,55.702 0,30.763 0,0"
             style="fill:#f4ba22;fill-opacity:1;fill-rule:nonzero;stroke:none"
             id="path22"
             inkscape:connector-curvature="0" /></g><g
           id="g24"
           transform="translate(310.3867,408.6318)"><path
             d="m 0,0 c 0,-30.764 -24.938,-55.702 -55.702,-55.702 -30.763,0 -55.702,24.938 -55.702,55.702 0,30.763 24.939,55.702 55.702,55.702 C -24.938,55.702 0,30.763 0,0 z"
             style="fill:none;stroke:#000000;stroke-width:4;stroke-linecap:butt;stroke-linejoin:miter;stroke-miterlimit:10;stroke-opacity:1;stroke-dasharray:none"
             id="path26"
             inkscape:connector-curvature="0" /></g><g
           id="g28"
           transform="translate(292,155)"><path
             d="m 0,0 c 0,-6.627 -5.373,-12 -12,-12 l -50,0 c -6.627,0 -12,5.373 -12,12 l 0,186 c 0,6.627 5.373,12 12,12 l 50,0 c 6.627,0 12,-5.373 12,-12 L 0,0 z"
             style="fill:#f4ba22;fill-opacity:1;fill-rule:nonzero;stroke:none"
             id="path30"
             inkscape:connector-curvature="0" /></g><g
           id="g32"
           transform="translate(292,155)"><path
             d="m 0,0 c 0,-6.627 -5.373,-12 -12,-12 l -50,0 c -6.627,0 -12,5.373 -12,12 l 0,186 c 0,6.627 5.373,12 12,12 l 50,0 c 6.627,0 12,-5.373 12,-12 L 0,0 z"
             style="fill:none;stroke:#000000;stroke-width:4;stroke-linecap:butt;stroke-linejoin:miter;stroke-miterlimit:10;stroke-opacity:1;stroke-dasharray:none"
             id="path34"
             inkscape:connector-curvature="0" /></g><g
           id="g36"
           transform="translate(214.8096,300.6714)"><path
             d="m 0,0 c -3.101,-7.63 -23.605,-6.505 -45.8,2.513 -22.195,9.018 -37.673,22.514 -34.573,30.144 3.101,7.63 23.605,6.505 45.8,-2.513 C -12.378,21.126 3.1,7.63 0,0"
             style="fill:#f4ba22;fill-opacity:1;fill-rule:nonzero;stroke:none"
             id="path38"
             inkscape:connector-curvature="0" /></g><g
           id="g40"
           transform="translate(214.8096,300.6714)"><path
             d="m 0,0 c -3.101,-7.63 -23.605,-6.505 -45.8,2.513 -22.195,9.018 -37.673,22.514 -34.573,30.144 3.101,7.63 23.605,6.505 45.8,-2.513 C -12.378,21.126 3.1,7.63 0,0 z"
             style="fill:none;stroke:#000000;stroke-width:4;stroke-linecap:butt;stroke-linejoin:miter;stroke-miterlimit:10;stroke-opacity:1;stroke-dasharray:none"
             id="path42"
             inkscape:connector-curvature="0" /></g><g
           id="g44"
           transform="translate(357.7529,351.1411)"><path
             d="m 0,0 c 5.533,-6.101 -4.366,-24.093 -22.111,-40.188 -17.745,-16.094 -36.616,-24.196 -42.149,-18.095 -5.532,6.1 4.367,24.093 22.112,40.187 C -24.403,-2 -5.533,6.101 0,0"
             style="fill:#f4ba22;fill-opacity:1;fill-rule:nonzero;stroke:none"
             id="path46"
             inkscape:connector-curvature="0" /></g><g
           id="g48"
           transform="translate(357.7529,351.1411)"><path
             d="m 0,0 c 5.533,-6.101 -4.366,-24.093 -22.111,-40.188 -17.745,-16.094 -36.616,-24.196 -42.149,-18.095 -5.532,6.1 4.367,24.093 22.112,40.187 C -24.403,-2 -5.533,6.101 0,0 z"
             style="fill:none;stroke:#000000;stroke-width:4;stroke-linecap:butt;stroke-linejoin:miter;stroke-miterlimit:10;stroke-opacity:1;stroke-dasharray:none"
             id="path50"
             inkscape:connector-curvature="0" /></g><g
           id="g52"
           transform="translate(246.1587,108.0703)"><path
             d="m 0,0 c 0,-19.291 -5.302,-34.93 -11.842,-34.93 -6.541,0 -11.843,15.639 -11.843,34.93 0,19.291 5.302,34.93 11.843,34.93 C -5.302,34.93 0,19.291 0,0"
             style="fill:#f4ba22;fill-opacity:1;fill-rule:nonzero;stroke:none"
             id="path54"
             inkscape:connector-curvature="0" /></g><g
           id="g56"
           transform="translate(246.1587,108.0703)"><path
             d="m 0,0 c 0,-19.291 -5.302,-34.93 -11.842,-34.93 -6.541,0 -11.843,15.639 -11.843,34.93 0,19.291 5.302,34.93 11.843,34.93 C -5.302,34.93 0,19.291 0,0 z"
             style="fill:none;stroke:#000000;stroke-width:4;stroke-linecap:butt;stroke-linejoin:miter;stroke-miterlimit:10;stroke-opacity:1;stroke-dasharray:none"
             id="path58"
             inkscape:connector-curvature="0" /></g><g
           id="g60"
           transform="translate(287.1582,108.0703)"><path
             d="m 0,0 c 0,-19.291 -5.301,-34.93 -11.842,-34.93 -6.541,0 -11.842,15.639 -11.842,34.93 0,19.291 5.301,34.93 11.842,34.93 C -5.301,34.93 0,19.291 0,0"
             style="fill:#f4ba22;fill-opacity:1;fill-rule:nonzero;stroke:none"
             id="path62"
             inkscape:connector-curvature="0" /></g><g
           id="g64"
           transform="translate(287.1582,108.0703)"><path
             d="m 0,0 c 0,-19.291 -5.301,-34.93 -11.842,-34.93 -6.541,0 -11.842,15.639 -11.842,34.93 0,19.291 5.301,34.93 11.842,34.93 C -5.301,34.93 0,19.291 0,0 z"
             style="fill:none;stroke:#000000;stroke-width:4;stroke-linecap:butt;stroke-linejoin:miter;stroke-miterlimit:10;stroke-opacity:1;stroke-dasharray:none"
             id="path66"
             inkscape:connector-curvature="0" /></g></g></g></g></svg>