<?xml version="1.0" encoding="UTF-8" standalone="no"?>
<!-- Created with Inkscape (http://www.inkscape.org/) -->

<svg
   xmlns:dc="http://purl.org/dc/elements/1.1/"
   xmlns:cc="http://creativecommons.org/ns#"
   xmlns:rdf="http://www.w3.org/1999/02/22-rdf-syntax-ns#"
   xmlns:svg="http://www.w3.org/2000/svg"
   xmlns="http://www.w3.org/2000/svg"
   xmlns:sodipodi="http://sodipodi.sourceforge.net/DTD/sodipodi-0.dtd"
   xmlns:inkscape="http://www.inkscape.org/namespaces/inkscape"
   width="164.875"
   height="177.15918"
   id="svg5696"
   version="1.1"
   inkscape:version="0.48.4 r9939"
   sodipodi:docname="oscar14.svg">
  <defs
     id="defs5698">
    <clipPath
       id="SVGID_2_">
      <rect
         height="88.862999"
         width="111.498"
         y="518.96198"
         x="382.04999"
         id="use1087" />
    </clipPath>
    <clipPath
       id="SVGID_4_">
      <rect
         height="41.314999"
         width="49.584999"
         y="525.19397"
         x="389.84698"
         id="use1111" />
    </clipPath>
  </defs>
  <sodipodi:namedview
     id="base"
     pagecolor="#ffffff"
     bordercolor="#666666"
     borderopacity="1.0"
     inkscape:pageopacity="0.0"
     inkscape:pageshadow="2"
     inkscape:zoom="0.77472527"
     inkscape:cx="-11.352796"
     inkscape:cy="199.21041"
     inkscape:current-layer="layer1"
     inkscape:document-units="px"
     showgrid="false"
     inkscape:window-width="763"
     inkscape:window-height="591"
     inkscape:window-x="592"
     inkscape:window-y="97"
     inkscape:window-maximized="0"
     fit-margin-top="0"
     fit-margin-left="0"
     fit-margin-right="0"
     fit-margin-bottom="0" />
  <metadata
     id="metadata5701">
    <rdf:RDF>
      <cc:Work
         rdf:about="">
        <dc:format>image/svg+xml</dc:format>
        <dc:type
           rdf:resource="http://purl.org/dc/dcmitype/StillImage" />
        <dc:title></dc:title>
      </cc:Work>
    </rdf:RDF>
  </metadata>
  <g
     id="layer1"
     inkscape:label="Layer 1"
     inkscape:groupmode="layer"
     transform="translate(-329.29609,-107.15761)">
    <g
       transform="translate(229.70234,58.838708)"
       id="g5">
      <path
         inkscape:connector-curvature="0"
         style="fill:#eda1c1"
         d="m 176.676,181.768 7.875,2.018 -9.775,30.383 c -5.541,1.896 -8.911,0.785 -10.107,-3.367 l 12.007,-29.034 0,0 z"
         id="path7" />
      <path
         inkscape:connector-curvature="0"
         style="fill:none;stroke:#df5d91;stroke-width:1.38689995;stroke-linecap:round;stroke-miterlimit:10"
         d="m 184.551,183.786 -9.775,30.383 c -5.541,1.896 -8.911,0.785 -10.107,-3.367 l 12.008,-29.034 7.874,2.018 0,0 z"
         id="path9" />
      <path
         inkscape:connector-curvature="0"
         style="fill:#df5d91"
         d="m 146.343,205.297 c 1.658,-0.564 3.473,-0.971 5.476,-1.186 1.466,2.127 2.564,4.454 3.272,6.968 h 5.203 c -0.475,-1.72 -1.148,-3.339 -2.005,-4.886 -0.282,-0.52 -0.736,-1.272 -1.366,-2.255 3.045,0.057 6.084,0.332 9.119,0.824 1.041,1.894 1.887,3.99 2.553,6.317 h 7.171 c -0.243,2.647 -0.505,5.451 -0.777,8.417 -16.085,2.414 -26.309,3.02 -30.651,1.822 -4.352,-1.23 -6.344,-3.775 -5.955,-7.664 0.389,-3.889 3.048,-6.681 7.96,-8.357 l 0,0 z"
         id="path11" />
      <path
         inkscape:connector-curvature="0"
         style="fill:#eda1c1"
         d="m 151.818,204.111 c 1.733,-0.146 3.431,-0.203 5.104,-0.173 0.63,0.982 1.084,1.735 1.366,2.255 0.856,1.547 1.53,3.167 2.005,4.886 h -5.203 c -0.707,-2.514 -1.806,-4.841 -3.272,-6.968 l 0,0 z"
         id="path13" />
      <path
         inkscape:connector-curvature="0"
         style="fill:none;stroke:#970f45;stroke-width:1.34930003;stroke-linecap:round;stroke-miterlimit:10"
         d="m 156.923,203.938 c 3.045,0.057 6.084,0.332 9.119,0.824 1.041,1.894 1.887,3.99 2.553,6.317 h 7.171 c -0.243,2.647 -0.505,5.451 -0.777,8.417 -16.085,2.414 -26.309,3.02 -30.651,1.822 -4.352,-1.23 -6.344,-3.775 -5.955,-7.664 0.39,-3.889 3.049,-6.682 7.96,-8.357 1.658,-0.564 3.473,-0.971 5.476,-1.186 m 5.104,-0.173 c -1.673,-0.029 -3.372,0.027 -5.104,0.173 m -10e-4,0 c 1.466,2.127 2.564,4.454 3.272,6.968 h 5.203 c -0.475,-1.72 -1.148,-3.339 -2.005,-4.886 -0.282,-0.52 -0.736,-1.272 -1.366,-2.255"
         id="path15" />
      <path
         inkscape:connector-curvature="0"
         style="fill:#eda1c1"
         d="m 204.629,187.261 -8.476,2.044 c 5.812,7.944 6.946,16.101 3.396,24.47 3.456,3.844 7.025,4.108 10.719,0.797 3.961,-9.554 2.08,-18.659 -5.639,-27.311 l 0,0 z"
         id="path17" />
      <path
         inkscape:connector-curvature="0"
         style="fill:none;stroke:#df5d91;stroke-width:1.31289995;stroke-linecap:round;stroke-miterlimit:10"
         d="m 196.153,189.306 c 5.812,7.944 6.946,16.101 3.396,24.47 3.456,3.844 7.025,4.108 10.719,0.797 3.96,-9.555 2.08,-18.66 -5.639,-27.311 l -8.476,2.044 0,0 z"
         id="path19" />
      <path
         inkscape:connector-curvature="0"
         style="fill:#df5d91"
         d="m 229.403,208.211 c -1.594,-0.565 -3.361,-0.969 -5.339,-1.186 -1.711,2.124 -3.078,4.453 -4.07,6.968 h -5.206 c 0.673,-1.72 1.535,-3.339 2.565,-4.886 0.342,-0.521 0.881,-1.272 1.624,-2.255 -3.05,0.057 -6.125,0.332 -9.214,0.824 -1.254,1.894 -2.342,3.99 -3.272,6.317 h -7.174 c -1.416,2.707 -1.477,5.511 -0.183,8.417 15.813,2.414 25.962,3.022 30.442,1.822 4.495,-1.23 6.778,-3.775 6.832,-7.665 0.055,-3.888 -2.287,-6.68 -7.005,-8.356 l 0,0 z"
         id="path21" />
      <path
         inkscape:connector-curvature="0"
         style="fill:#eda1c1"
         d="m 219.994,213.993 c 0.992,-2.515 2.359,-4.844 4.07,-6.968 -1.718,-0.144 -3.41,-0.203 -5.087,-0.173 -0.743,0.983 -1.282,1.735 -1.624,2.255 -1.03,1.546 -1.892,3.166 -2.565,4.886 h 5.206 l 0,0 z"
         id="path23" />
      <path
         inkscape:connector-curvature="0"
         style="fill:none;stroke:#970f45;stroke-width:1.27450001;stroke-linecap:round;stroke-miterlimit:10"
         d="m 224.064,207.025 c 1.978,0.217 3.745,0.621 5.339,1.186 4.718,1.676 7.06,4.468 7.005,8.356 -0.054,3.89 -2.337,6.435 -6.832,7.665 -4.48,1.2 -14.629,0.591 -30.442,-1.822 -1.294,-2.906 -1.233,-5.71 0.183,-8.417 h 7.174 c 0.93,-2.327 2.018,-4.423 3.272,-6.317 3.089,-0.492 6.165,-0.768 9.214,-0.824 m 5.087,0.173 c -1.711,2.124 -3.078,4.453 -4.07,6.968 h -5.206 c 0.673,-1.72 1.535,-3.339 2.565,-4.886 0.342,-0.521 0.881,-1.272 1.624,-2.255 m 0,0 c 1.677,-0.03 3.369,0.03 5.087,0.173"
         id="path25" />
      <path
         inkscape:connector-curvature="0"
         style="fill:#f18900"
         d="m 206.213,138.453 c -8.624,-2.938 -17.313,-3.436 -26.101,-1.487 l -0.738,12.949 5.312,5.356 15.115,0.865 5.673,-4.718 0.739,-12.965 0,0 z"
         id="path27" />
      <path
         inkscape:connector-curvature="0"
         style="fill:none;stroke:#d04215;stroke-width:1.28840005;stroke-linecap:square;stroke-miterlimit:10"
         d="m 179.375,149.915 0.738,-12.949 c 8.788,-1.949 17.477,-1.451 26.101,1.487 l -0.738,12.964"
         id="path29" />
      <path
         inkscape:connector-curvature="0"
         style="fill:#eda1c1"
         d="m 213.417,166.401 c -2.159,-5.936 -3.421,-11.6 -3.773,-17.021 -3.912,1.807 -8.317,3.037 -13.248,3.69 -4.941,0.651 -11.873,-0.265 -20.798,-2.765 -0.233,4.99 -1.396,10.401 -3.533,16.236 -0.904,2.708 -1.631,5.108 -2.186,7.179 -1.907,5.993 -1.049,11.196 2.582,15.623 13.276,4.812 26.851,4.765 40.718,-0.14 3.6,-4.452 4.421,-9.661 2.476,-15.639 -0.57,-2.066 -1.318,-4.463 -2.238,-7.163 l 0,0 z"
         id="path31" />
      <path
         inkscape:connector-curvature="0"
         style="fill:none;stroke:#df5d91;stroke-width:1.28830004;stroke-linecap:square;stroke-miterlimit:10"
         d="m 209.644,149.38 c -3.912,1.807 -8.317,3.037 -13.248,3.688 -4.941,0.653 -11.873,-0.263 -20.798,-2.763 -0.233,4.99 -1.396,10.401 -3.533,16.236 -0.904,2.708 -1.631,5.108 -2.186,7.179 -1.907,5.993 -1.049,11.196 2.582,15.623 13.276,4.812 26.851,4.765 40.718,-0.14 3.6,-4.452 4.421,-9.661 2.476,-15.639 -0.569,-2.066 -1.317,-4.463 -2.238,-7.164 -2.159,-5.935 -3.421,-11.599 -3.773,-17.02 l 0,0 z"
         id="path33" />
      <path
         inkscape:connector-curvature="0"
         style="fill:#f18900"
         d="m 205.57,159.044 -5.438,-8.921 c 14.553,-3.32 26.821,-8.417 36.802,-15.295 4.29,1.752 6.035,4.76 5.223,9.022 -9.902,6.391 -22.092,11.463 -36.587,15.194 l 0,0 z"
         id="path35" />
      <path
         inkscape:connector-curvature="0"
         style="fill:none;stroke:#d04215;stroke-width:1.28820002;stroke-linecap:square;stroke-miterlimit:10"
         d="m 200.131,150.123 c 14.553,-3.32 26.821,-8.417 36.802,-15.295 4.29,1.75 6.035,4.76 5.223,9.022 -9.902,6.391 -22.091,11.463 -36.587,15.194 l -5.438,-8.921 0,0 z"
         id="path37" />
      <path
         inkscape:connector-curvature="0"
         style="fill:#eda1c1"
         d="m 222.205,142.949 c 0.158,3.544 1.624,6.563 4.367,9.082 -6.5,2.81 -13.506,5.137 -21.001,7.013 l -5.438,-8.921 c 8.195,-2.033 15.551,-4.429 22.072,-7.174 l 0,0 z"
         id="path39" />
      <path
         inkscape:connector-curvature="0"
         style="fill:none;stroke:#df5d91;stroke-width:1.28820002;stroke-linecap:square;stroke-miterlimit:10"
         d="m 226.571,152.031 c -6.5,2.81 -13.506,5.137 -21.001,7.013 l -5.438,-8.921 c 8.196,-2.033 15.553,-4.429 22.073,-7.176 0.157,3.546 1.624,6.566 4.366,9.084 l 0,0 z"
         id="path41" />
      <polygon
         style="fill:#eda1c1"
         points="202.356,158.654 198.406,151.694 198.406,151.694 202.06,150.83 206.263,157.67 "
         id="polygon43" />
      <path
         inkscape:connector-curvature="0"
         style="fill:#f18900"
         d="m 180.954,148.603 4.949,9.206 c -15.125,1.312 -26.574,6.069 -34.321,14.249 -4.318,-1.534 -6.457,-4.565 -6.413,-9.085 8.655,-7.808 20.576,-12.598 35.785,-14.37 l 0,0 z"
         id="path45" />
      <path
         inkscape:connector-curvature="0"
         style="fill:none;stroke:#d04215;stroke-width:1.28830004;stroke-linecap:square;stroke-miterlimit:10"
         d="m 185.903,157.808 c -15.125,1.312 -26.574,6.069 -34.321,14.249 -4.318,-1.534 -6.457,-4.565 -6.413,-9.085 8.655,-7.807 20.576,-12.598 35.785,-14.37 l 4.949,9.206 0,0 z"
         id="path47" />
      <path
         inkscape:connector-curvature="0"
         style="fill:#eda1c1"
         d="m 163.908,163.285 c -0.069,-3.458 -1.521,-6.583 -4.341,-9.338 6.287,-2.67 13.407,-4.45 21.387,-5.344 l 4.949,9.206 c -8.805,1.096 -16.133,2.923 -21.995,5.476 l 0,0 z"
         id="path49" />
      <path
         inkscape:connector-curvature="0"
         style="fill:none;stroke:#df5d91;stroke-width:1.28830004;stroke-linecap:square;stroke-miterlimit:10"
         d="m 163.908,163.285 c 5.862,-2.553 13.19,-4.38 21.995,-5.477 l -4.949,-9.206 c -7.98,0.894 -15.1,2.673 -21.387,5.344 2.819,2.756 4.272,5.881 4.341,9.339 l 0,0 z"
         id="path51" />
      <polygon
         style="fill:#eda1c1"
         points="184.955,149.271 188.098,156.349 188.098,156.349 184.028,156.878 180.261,149.834 "
         id="polygon53" />
      <path
         inkscape:connector-curvature="0"
         style="fill:#eda1c1"
         d="m 212.293,166.824 -0.015,-0.015 c -1.971,-5.446 -3.203,-10.644 -3.698,-15.632 -3.624,1.473 -7.624,2.513 -12.035,3.092 -4.783,0.638 -11.393,-0.164 -19.829,-2.406 -0.376,4.674 -1.56,9.709 -3.52,15.109 l 0.013,-0.029 c -0.904,2.678 -1.617,5.038 -2.146,7.092 l -0.027,0.057 c -1.731,5.429 -1.008,10.184 2.175,14.236 12.798,4.555 25.869,4.51 39.226,-0.148 3.154,-4.074 3.832,-8.82 2.065,-14.236 l -0.015,-0.057 c -0.56,-2.053 -1.288,-4.407 -2.194,-7.063 l 0,0 z"
         id="path55" />
      <path
         inkscape:connector-curvature="0"
         style="fill:#df5d91"
         d="m 185.789,197.143 c 0.28,0.288 0.587,0.564 0.923,0.812 3.119,2.491 6.337,2.547 9.684,0.194 1.113,-0.867 1.787,-1.372 2.02,-1.523 1,-0.616 1.913,-0.894 2.703,-0.819 1.713,0.163 3.179,0.941 4.412,2.352 0.644,0.743 1.134,1.24 1.5,1.492 0.653,0.453 1.455,0.733 2.391,0.823 0.85,0.079 1.661,-0.062 2.436,-0.423 0.458,-0.232 1.094,-0.666 1.926,-1.3 0.797,-0.636 1.436,-1.066 1.906,-1.299 0.762,-0.379 1.56,-0.52 2.396,-0.441 1.223,0.117 2.525,0.952 3.916,2.491 0.709,0.81 1.239,1.339 1.58,1.589 0.619,0.508 1.263,0.788 1.909,0.849 1.799,0.171 3.161,-0.241 4.106,-1.21 0.356,-0.356 0.881,-1.149 1.594,-2.375 L 219.153,184.84 c -18.489,-0.924 -36.074,-2.781 -52.754,-5.583 l -14.833,11.521 c 0.466,1.366 0.835,2.242 1.115,2.661 0.748,1.131 2.009,1.787 3.807,1.958 0.648,0.061 1.332,-0.092 2.035,-0.475 0.381,-0.181 1,-0.602 1.847,-1.263 1.659,-1.253 3.094,-1.827 4.316,-1.711 0.823,0.077 1.58,0.367 2.268,0.884 0.407,0.314 0.952,0.859 1.634,1.634 0.696,0.777 1.238,1.325 1.644,1.639 0.693,0.5 1.465,0.792 2.314,0.871 0.937,0.09 1.775,-0.035 2.502,-0.356 0.396,-0.181 0.971,-0.576 1.738,-1.186 1.49,-1.151 3.075,-1.641 4.788,-1.478 0.792,0.074 1.638,0.518 2.505,1.312 0.197,0.192 0.782,0.813 1.71,1.875 l 0,0 z"
         id="path57" />
      <path
         inkscape:connector-curvature="0"
         style="fill:none;stroke:#970f45;stroke-width:1.28820002;stroke-linecap:round;stroke-miterlimit:10"
         d="m 185.789,197.143 c -0.928,-1.062 -1.513,-1.683 -1.711,-1.876 -0.867,-0.794 -1.713,-1.238 -2.505,-1.312 -1.713,-0.163 -3.297,0.327 -4.788,1.478 -0.767,0.609 -1.342,1.005 -1.738,1.186 -0.728,0.322 -1.566,0.446 -2.502,0.359 -0.849,-0.082 -1.621,-0.372 -2.314,-0.874 -0.406,-0.314 -0.948,-0.859 -1.644,-1.636 -0.682,-0.778 -1.227,-1.322 -1.634,-1.637 -0.688,-0.517 -1.445,-0.807 -2.268,-0.884 -1.222,-0.116 -2.658,0.46 -4.316,1.711 -0.847,0.661 -1.465,1.082 -1.847,1.263 -0.703,0.383 -1.386,0.536 -2.035,0.475 -1.798,-0.171 -3.06,-0.827 -3.807,-1.958 -0.28,-0.418 -0.649,-1.295 -1.115,-2.661 l 14.833,-11.521 c 16.68,2.802 34.265,4.658 52.754,5.583 l 12.038,13.515 c -0.713,1.226 -1.238,2.018 -1.594,2.377 -0.946,0.97 -2.307,1.378 -4.106,1.208 -0.646,-0.061 -1.29,-0.341 -1.909,-0.849 -0.341,-0.25 -0.871,-0.779 -1.58,-1.587 -1.391,-1.542 -2.693,-2.376 -3.916,-2.493 -0.836,-0.078 -1.634,0.065 -2.396,0.441 -0.47,0.233 -1.109,0.666 -1.906,1.302 -0.832,0.631 -1.468,1.064 -1.926,1.297 -0.775,0.364 -1.586,0.505 -2.436,0.423 -0.936,-0.09 -1.737,-0.37 -2.391,-0.823 -0.367,-0.251 -0.857,-0.749 -1.5,-1.492 -1.232,-1.411 -2.699,-2.189 -4.412,-2.35 -0.79,-0.077 -1.703,0.202 -2.703,0.817 -0.232,0.153 -0.906,0.656 -2.02,1.523 -3.347,2.356 -6.565,2.297 -9.684,-0.191 -0.336,-0.25 -0.643,-0.527 -0.922,-0.814 l 0,0 z"
         id="path59" />
      <path
         inkscape:connector-curvature="0"
         style="fill:#df5d91"
         d="m 197.698,185.652 c 0.985,-0.59 1.867,-0.856 2.659,-0.78 1.668,0.158 3.124,0.921 4.348,2.27 0.628,0.712 1.118,1.181 1.475,1.434 0.639,0.438 1.429,0.7 2.349,0.789 0.819,0.077 1.617,-0.064 2.38,-0.414 0.455,-0.22 1.088,-0.638 1.886,-1.245 0.802,-0.606 1.435,-1.025 1.875,-1.23 0.76,-0.364 1.545,-0.507 2.364,-0.431 1.196,0.113 2.484,0.917 3.855,2.398 0.692,0.777 1.212,1.292 1.552,1.542 0.605,0.478 1.22,0.754 1.868,0.816 0.044,0.002 0.084,0.007 0.129,0.013 0.936,0.074 1.757,0.004 2.434,-0.236 0.586,-0.191 1.079,-0.508 1.482,-0.918 0.352,-0.347 0.877,-1.124 1.554,-2.322 L 216.521,175.83 c -16.743,3.671 -32.27,2.154 -46.565,-4.544 l -15.065,8.941 c 0.443,1.305 0.809,2.169 1.077,2.572 0.332,0.479 0.758,0.884 1.283,1.18 0.621,0.35 1.395,0.582 2.301,0.684 0.06,0.005 0.117,0.01 0.188,0.018 0.648,0.061 1.302,-0.095 1.99,-0.452 0.381,-0.183 0.985,-0.588 1.812,-1.222 1.624,-1.196 3.044,-1.742 4.238,-1.632 0.822,0.08 1.562,0.367 2.228,0.864 0.406,0.287 0.951,0.817 1.624,1.565 0.669,0.745 1.213,1.277 1.619,1.577 0.684,0.484 1.441,0.774 2.257,0.851 0.922,0.089 1.748,-0.022 2.459,-0.332 0.394,-0.181 0.967,-0.547 1.72,-1.132 1.456,-1.094 3.026,-1.571 4.694,-1.413 0.792,0.077 1.608,0.502 2.465,1.265 0.228,0.21 0.925,0.96 2.094,2.247 1.673,1.827 3.772,2.028 6.277,0.595 1.392,-1.042 2.219,-1.647 2.481,-1.81 l 0,0 z"
         id="path61" />
      <path
         inkscape:connector-curvature="0"
         style="fill:none;stroke:#970f45;stroke-width:1.28820002;stroke-linecap:round;stroke-miterlimit:10"
         d="m 197.698,185.652 c -0.262,0.163 -1.088,0.768 -2.48,1.812 -2.505,1.433 -4.604,1.232 -6.277,-0.595 -1.169,-1.287 -1.867,-2.037 -2.094,-2.247 -0.857,-0.765 -1.673,-1.191 -2.465,-1.265 -1.668,-0.158 -3.238,0.317 -4.694,1.413 -0.752,0.585 -1.326,0.951 -1.72,1.129 -0.711,0.312 -1.537,0.421 -2.459,0.334 -0.816,-0.077 -1.574,-0.367 -2.257,-0.851 -0.406,-0.3 -0.95,-0.832 -1.619,-1.577 -0.673,-0.748 -1.217,-1.278 -1.624,-1.565 -0.666,-0.497 -1.406,-0.787 -2.228,-0.864 -1.194,-0.113 -2.614,0.436 -4.238,1.632 -0.827,0.634 -1.431,1.039 -1.812,1.222 -0.688,0.357 -1.342,0.51 -1.99,0.452 -0.071,-0.008 -0.128,-0.013 -0.188,-0.018 -0.906,-0.102 -1.68,-0.334 -2.301,-0.684 -0.525,-0.296 -0.951,-0.7 -1.283,-1.182 -0.268,-0.404 -0.634,-1.265 -1.077,-2.57 l 15.065,-8.941 c 14.295,6.698 29.822,8.213 46.565,4.544 l 13.387,11.508 c -0.677,1.198 -1.203,1.975 -1.554,2.32 -0.404,0.413 -0.896,0.729 -1.482,0.92 -0.676,0.24 -1.498,0.31 -2.434,0.236 -0.044,-0.006 -0.085,-0.011 -0.129,-0.015 -0.648,-0.06 -1.263,-0.337 -1.868,-0.814 -0.34,-0.25 -0.86,-0.765 -1.552,-1.542 -1.372,-1.481 -2.659,-2.285 -3.855,-2.398 -0.819,-0.077 -1.604,0.066 -2.364,0.431 -0.44,0.205 -1.074,0.624 -1.875,1.23 -0.798,0.606 -1.432,1.025 -1.886,1.242 -0.763,0.352 -1.561,0.493 -2.38,0.416 -0.92,-0.089 -1.709,-0.352 -2.349,-0.789 -0.356,-0.253 -0.847,-0.721 -1.475,-1.434 -1.224,-1.352 -2.679,-2.112 -4.348,-2.27 -0.793,-0.076 -1.675,0.19 -2.66,0.78 l 0,0 z"
         id="path63" />
      <path
         inkscape:connector-curvature="0"
         style="fill:#f18900"
         d="m 216.348,71.599 c -1.481,-0.205 -2.941,-0.383 -4.397,-0.52 -20.454,-1.968 -39.176,1.56 -56.147,10.592 -3.034,-2.698 -7.659,-3.636 -13.872,-2.845 -8.139,1.035 -14.224,-0.155 -18.288,-3.54 -0.288,6.063 2.47,10.897 8.277,14.501 -6.502,-0.861 -10.798,0.594 -12.852,4.356 -2.926,5.28 -7.516,6.53 -13.734,3.765 1.278,6.342 6.269,8.567 14.986,6.682 -2.839,6.201 -9.035,9.696 -18.59,10.458 7.396,4.204 15.149,4.545 23.274,1.022 -1.752,2.444 -2.951,4.565 -3.589,6.379 -1.674,4.788 -5.466,7.743 -11.373,8.895 7.654,3.258 14.907,2.081 21.735,-3.536 -1.224,5.8 -4.452,9.444 -9.679,10.912 5.288,3.645 11.431,3.421 18.412,-0.665 9.233,5.186 20.447,7.879 33.666,8.062 1.807,0.052 3.827,-0.034 6.067,-0.225 9.929,-0.909 19.914,-2.646 29.98,-5.188 3.983,-1.01 7.62,-2.271 10.877,-3.783 4.705,-2.191 8.653,-4.894 11.852,-8.107 1.084,-1.106 2.829,-3.213 5.252,-6.303 2.629,0.504 4.541,0.745 5.733,0.703 3.911,-0.164 7.436,-2.037 10.571,-5.635 -4.481,-0.682 -7.666,-2.2 -9.547,-4.554 3.026,-0.052 5.625,-0.448 7.823,-1.176 2.688,-0.879 5.223,-2.522 7.644,-4.908 -5.045,0.327 -9.165,-1.394 -12.35,-5.152 -1.094,-1.275 -2.2,-2.534 -3.32,-3.779 2.401,-0.1 4.699,-0.464 6.872,-1.085 4.312,-1.222 8.061,-3.921 11.239,-8.069 -9.125,2.012 -15.466,0.584 -19.007,-4.317 3.644,-0.735 6.258,-1.896 7.853,-3.478 0.911,-0.891 1.524,-1.938 1.816,-3.126 0.03,-0.094 0.045,-0.183 0.08,-0.262 0.272,-1.317 0.213,-2.799 -0.193,-4.448 -0.148,0.156 -0.302,0.309 -0.436,0.462 -0.723,0.716 -1.44,1.268 -2.163,1.688 -3.168,1.832 -6.476,1.082 -9.922,-2.282 -1.282,-1.263 -3.42,-2.386 -6.401,-3.367 1.618,-3.841 1.706,-7.836 0.248,-11.983 -2.317,4.436 -5.317,7.047 -8.997,7.847 -3.691,0.792 -6.816,2.792 -9.4,6.009 l 0,0 z"
         id="path65" />
      <path
         inkscape:connector-curvature="0"
         style="fill:none;stroke:#d04215;stroke-width:1.28830004;stroke-linecap:square;stroke-miterlimit:10"
         d="m 211.951,71.08 c -20.454,-1.968 -39.176,1.56 -56.147,10.592 -3.034,-2.698 -7.659,-3.636 -13.872,-2.845 -8.139,1.035 -14.224,-0.155 -18.288,-3.54 -0.288,6.063 2.47,10.897 8.277,14.501 -6.502,-0.861 -10.798,0.594 -12.852,4.356 -2.926,5.28 -7.516,6.53 -13.734,3.765 1.278,6.342 6.269,8.567 14.986,6.682 -2.839,6.201 -9.035,9.696 -18.59,10.458 7.396,4.204 15.149,4.545 23.274,1.022 -1.752,2.444 -2.951,4.565 -3.589,6.379 -1.674,4.788 -5.466,7.743 -11.373,8.895 7.654,3.258 14.907,2.081 21.735,-3.536 -1.224,5.8 -4.452,9.444 -9.679,10.912 5.288,3.645 11.431,3.421 18.412,-0.665 9.233,5.186 20.447,7.879 33.666,8.062 1.807,0.052 3.827,-0.034 6.067,-0.225 9.929,-0.909 19.914,-2.646 29.98,-5.188 3.983,-1.01 7.62,-2.271 10.877,-3.783 4.705,-2.191 8.653,-4.894 11.852,-8.107 1.084,-1.106 2.829,-3.213 5.252,-6.303 2.629,0.504 4.541,0.745 5.733,0.703 3.911,-0.164 7.436,-2.037 10.571,-5.635 -4.481,-0.682 -7.666,-2.2 -9.547,-4.554 3.026,-0.052 5.625,-0.448 7.823,-1.176 2.688,-0.879 5.223,-2.522 7.644,-4.908 -5.045,0.327 -9.165,-1.394 -12.35,-5.152 -1.094,-1.275 -2.2,-2.534 -3.32,-3.779 2.401,-0.1 4.699,-0.464 6.872,-1.085 4.312,-1.222 8.061,-3.921 11.239,-8.069 -9.125,2.012 -15.466,0.584 -19.007,-4.317 3.644,-0.735 6.258,-1.896 7.853,-3.478 0.911,-0.891 1.524,-1.938 1.816,-3.126 0.03,-0.094 0.045,-0.183 0.08,-0.262 0.272,-1.317 0.215,-2.799 -0.193,-4.448 -0.148,0.156 -0.302,0.309 -0.436,0.462 -0.723,0.716 -1.44,1.268 -2.163,1.688 -3.168,1.832 -6.476,1.082 -9.922,-2.282 -1.282,-1.263 -3.42,-2.386 -6.401,-3.367 1.618,-3.841 1.706,-7.836 0.248,-11.983 -2.317,4.436 -5.317,7.047 -8.997,7.847 -3.692,0.79 -6.817,2.791 -9.401,6.007 -1.48,-0.203 -2.94,-0.382 -4.396,-0.518 l 0,0 z"
         id="path67" />
      <path
         inkscape:connector-curvature="0"
         style="fill:#9dc517"
         d="m 232.428,75.6 1.361,2.362 c 0.271,0.47 0.46,0.953 0.56,1.435 l -0.3,-0.218 c -0.443,-0.309 -0.775,-0.198 -1.002,0.32 l -0.656,1.581 c -0.208,0.518 -0.097,0.923 0.314,1.253 -0.24,0.025 -0.485,0.02 -0.743,-0.012 l -2.228,-0.235 c -1.124,-0.128 -1.48,-0.777 -1.084,-1.936 0.258,-0.788 0.664,-1.54 1.213,-2.24 l 0.772,-2.23 c 0.466,-1.363 1.066,-1.384 1.793,-0.08 l 0,0 z"
         id="path69" />
      <path
         inkscape:connector-curvature="0"
         style="fill:#9dc517"
         d="m 232.391,81.08 0.656,-1.581 c 0.227,-0.52 0.559,-0.629 1.002,-0.32 l 0.3,0.218 1.032,0.728 0.196,0.131 c 0.433,0.327 0.544,0.748 0.316,1.268 l -0.668,1.583 c -0.173,0.451 -0.451,0.598 -0.812,0.421 -0.055,-0.037 -0.104,-0.071 -0.168,-0.106 l -1.515,-1.077 c -0.015,-0.012 -0.015,-0.012 -0.025,-0.012 -0.411,-0.33 -0.522,-0.735 -0.314,-1.253 l 0,0 z"
         id="path71" />
      <path
         inkscape:connector-curvature="0"
         style="fill:#9dc517"
         d="m 235.577,80.256 -0.196,-0.131 c 0.371,-0.146 0.78,-0.196 1.235,-0.166 l 2.257,0.2 c 1.249,0.111 1.555,0.81 0.918,2.064 l -1.012,2.02 c -0.069,0.963 -0.292,1.817 -0.674,2.58 -0.539,1.124 -1.187,1.066 -1.926,-0.178 l -1.386,-2.315 c -0.158,-0.267 -0.282,-0.54 -0.381,-0.802 0.361,0.177 0.638,0.03 0.812,-0.421 l 0.668,-1.583 c 0.23,-0.52 0.118,-0.941 -0.315,-1.268 l 0,0 z"
         id="path73" />
      <path
         inkscape:connector-curvature="0"
         style="fill:none;stroke:#388e36;stroke-width:0.96619999;stroke-linecap:round;stroke-linejoin:round;stroke-miterlimit:10"
         d="m 234.35,79.397 c -0.1,-0.482 -0.29,-0.965 -0.56,-1.435 L 232.43,75.6 c -0.727,-1.304 -1.33,-1.283 -1.794,0.079 l -0.772,2.23 c -0.549,0.7 -0.955,1.453 -1.213,2.24 -0.396,1.161 -0.039,1.807 1.084,1.936 l 2.228,0.235 c 0.258,0.032 0.505,0.037 0.743,0.014 m -10e-4,-0.001 c -0.411,-0.33 -0.519,-0.735 -0.311,-1.253 l 0.653,-1.581 c 0.227,-0.518 0.559,-0.629 1.005,-0.32 l 0.297,0.218 m 1.035,0.728 -1.034,-0.728 m 1.034,0.728 0.193,0.131 c 0.436,0.327 0.544,0.748 0.316,1.268 l -0.668,1.583 c -0.171,0.451 -0.451,0.598 -0.812,0.421 m 10e-4,0 c 0.099,0.263 0.223,0.535 0.381,0.805 l 1.386,2.312 c 0.739,1.245 1.387,1.304 1.926,0.178 0.382,-0.763 0.605,-1.617 0.674,-2.58 l 1.016,-2.018 c 0.633,-1.257 0.327,-1.955 -0.922,-2.066 l -2.254,-0.2 c -0.458,-0.03 -0.869,0.019 -1.235,0.166 m -2.681,2.208 c 0.01,0 0.01,0 0.025,0.012 l 1.515,1.077 c 0.064,0.035 0.114,0.069 0.168,0.106"
         id="path75" />
      <path
         inkscape:connector-curvature="0"
         style="fill:#ab61a3"
         d="m 141.538,89.692 -0.817,2.706 c -0.166,0.538 -0.228,1.06 -0.181,1.549 l 0.287,-0.309 c 0.431,-0.448 0.866,-0.458 1.327,-0.047 l 1.342,1.265 c 0.43,0.416 0.44,0.839 0.059,1.294 0.297,-0.062 0.589,-0.15 0.891,-0.272 l 2.608,-0.998 c 1.312,-0.515 1.515,-1.25 0.635,-2.208 -0.589,-0.653 -1.337,-1.222 -2.243,-1.695 l -1.712,-1.836 c -1.04,-1.124 -1.773,-0.936 -2.194,0.551 h -0.002 z"
         id="path77" />
      <path
         inkscape:connector-curvature="0"
         style="fill:#ab61a3"
         d="m 143.497,94.856 -1.342,-1.265 c -0.46,-0.411 -0.896,-0.401 -1.327,0.047 l -0.287,0.309 -0.99,1.05 -0.188,0.191 c -0.411,0.459 -0.402,0.898 0.059,1.307 l 1.356,1.264 c 0.367,0.367 0.752,0.41 1.129,0.115 0.05,-0.053 0.104,-0.104 0.168,-0.159 l 1.451,-1.544 c 0.015,-0.017 0.015,-0.017 0.03,-0.021 0.381,-0.455 0.371,-0.878 -0.059,-1.294 l 0,0 z"
         id="path79" />
      <path
         inkscape:connector-curvature="0"
         style="fill:#ab61a3"
         d="m 139.362,95.188 0.188,-0.191 c -0.5,-0.01 -1.011,0.086 -1.549,0.275 l -2.659,0.976 c -1.465,0.538 -1.594,1.304 -0.385,2.27 l 1.926,1.555 c 0.42,0.886 0.99,1.616 1.71,2.205 1.047,0.874 1.805,0.592 2.27,-0.842 l 0.866,-2.668 c 0.095,-0.309 0.151,-0.611 0.179,-0.893 -0.376,0.295 -0.762,0.252 -1.129,-0.115 l -1.356,-1.262 c -0.463,-0.411 -0.472,-0.85 -0.061,-1.31 l 0,0 z"
         id="path81" />
      <path
         inkscape:connector-curvature="0"
         style="fill:none;stroke:#633791;stroke-width:0.96619999;stroke-linecap:round;stroke-linejoin:round;stroke-miterlimit:10"
         d="m 140.541,93.947 c -0.047,-0.49 0.015,-1.012 0.181,-1.549 l 0.817,-2.706 c 0.423,-1.487 1.156,-1.675 2.196,-0.551 l 1.712,1.836 c 0.906,0.47 1.654,1.042 2.243,1.695 0.88,0.958 0.677,1.694 -0.635,2.208 l -2.608,0.998 c -0.302,0.119 -0.594,0.21 -0.891,0.272 m 0,0 c 0.381,-0.455 0.371,-0.878 -0.059,-1.294 l -1.342,-1.265 c -0.46,-0.411 -0.896,-0.401 -1.327,0.047 l -0.287,0.309 m -0.991,1.05 0.99,-1.05 m -0.99,1.05 -0.188,0.191 c -0.411,0.459 -0.402,0.898 0.059,1.307 l 1.356,1.264 c 0.367,0.367 0.752,0.41 1.129,0.115 m 0.001,0 c -0.027,0.282 -0.081,0.584 -0.179,0.893 l -0.866,2.668 c -0.465,1.434 -1.223,1.716 -2.267,0.842 -0.723,-0.589 -1.292,-1.319 -1.713,-2.205 l -1.926,-1.555 c -1.209,-0.966 -1.08,-1.732 0.385,-2.27 L 138,95.269 c 0.539,-0.187 1.049,-0.283 1.549,-0.273 m 4.007,1.154 c -0.015,0.003 -0.015,0.003 -0.03,0.021 l -1.451,1.544 c -0.064,0.054 -0.116,0.106 -0.168,0.159"
         id="path83" />
      <path
         inkscape:connector-curvature="0"
         style="fill:#82110c"
         d="m 170.735,116.825 -5.287,-0.972 c 4.253,6.205 11.48,9.681 21.679,10.411 5.112,0.379 9.806,0.128 14.08,-0.76 9.447,-1.916 17.007,-5.784 22.666,-11.614 2.847,-2.912 4.748,-5.634 5.693,-8.164 -14.045,7.555 -28.942,11.515 -44.711,11.876 -4.936,0.103 -9.639,-0.152 -14.12,-0.777 l 0,0 z"
         id="path85" />
      <path
         inkscape:connector-curvature="0"
         style="fill:#d50d18"
         d="m 199.436,122.271 c 3.584,-0.579 6.032,-1.87 7.362,-3.862 0.669,-0.984 1.153,-2.364 1.475,-4.158 -6.371,1.726 -12.901,2.797 -19.58,3.199 0.831,1.56 1.713,2.683 2.617,3.406 1.917,1.504 4.626,1.982 8.126,1.415 l 0,0 z"
         id="path87" />
      <path
         inkscape:connector-curvature="0"
         style="fill:#ffffff"
         d="m 188.568,59.327 c -4.574,-3.478 -9.654,-4.771 -15.238,-3.887 -5.57,0.878 -10,3.671 -13.283,8.392 -3.292,4.722 -4.48,9.986 -3.57,15.771 0.916,5.785 3.666,10.415 8.25,13.863 4.578,3.493 9.657,4.8 15.228,3.919 5.584,-0.881 10.016,-3.689 13.292,-8.421 3.303,-4.694 4.491,-9.946 3.58,-15.729 -0.917,-5.787 -3.669,-10.43 -8.259,-13.908 l 0,0 z"
         id="path89" />
      <path
         inkscape:connector-curvature="0"
         style="fill:#ffffff"
         d="m 203.005,51.192 c -5.372,0.849 -9.64,3.572 -12.788,8.183 -3.154,4.61 -4.286,9.766 -3.392,15.435 0.901,5.685 3.56,10.21 7.976,13.599 4.421,3.444 9.322,4.733 14.694,3.887 5.371,-0.85 9.637,-3.587 12.798,-8.229 3.152,-4.581 4.292,-9.708 3.396,-15.395 -0.896,-5.669 -3.564,-10.223 -7.98,-13.639 -4.433,-3.412 -9.332,-4.687 -14.704,-3.841 l 0,0 z"
         id="path91" />
      <path
         inkscape:connector-curvature="0"
         d="m 214.048,65.757 c -1.467,-1.451 -3.18,-2.138 -5.141,-2.066 -1.976,0.061 -3.624,0.851 -4.951,2.366 -1.337,1.532 -1.951,3.327 -1.848,5.409 0.095,2.087 0.872,3.854 2.327,5.295 1.466,1.45 3.169,2.141 5.129,2.068 1.961,-0.059 3.609,-0.849 4.937,-2.363 1.341,-1.505 1.956,-3.315 1.847,-5.412 -0.085,-2.085 -0.847,-3.855 -2.3,-5.297 l 0,0 z"
         id="path93" />
      <path
         inkscape:connector-curvature="0"
         d="m 190.621,69.121 c -1.577,-1.522 -3.418,-2.239 -5.528,-2.156 -2.124,0.07 -3.903,0.906 -5.337,2.51 -1.446,1.619 -2.117,3.511 -2.01,5.703 0.094,2.196 0.921,4.056 2.48,5.565 1.58,1.525 3.406,2.245 5.515,2.162 2.109,-0.069 3.891,-0.906 5.323,-2.508 1.45,-1.591 2.119,-3.498 2.01,-5.706 -0.08,-2.196 -0.893,-4.059 -2.453,-5.57 l 0,0 z"
         id="path95" />
      <path
         inkscape:connector-curvature="0"
         style="fill:#5fc2cf"
         d="m 209.56,51.22 c -2.084,-0.389 -4.253,-0.414 -6.496,-0.06 -5.371,0.849 -9.639,3.572 -12.789,8.184 -0.192,0.277 -0.366,0.555 -0.54,0.844 -0.356,-0.308 -0.727,-0.602 -1.108,-0.891 -4.575,-3.481 -9.654,-4.77 -15.238,-3.889 -5.57,0.878 -10.001,3.671 -13.284,8.391 -3.292,4.721 -4.48,9.988 -3.57,15.771 0.347,2.186 0.956,4.198 1.817,6.038 -2.411,-6.924 -1.329,-13.432 3.243,-19.512 8.855,-7.708 18.695,-9.26 29.537,-4.664 6.189,-5.574 12.472,-8.072 18.853,-7.515 2.033,0.176 4.073,0.676 6.117,1.478 l -0.275,-1.728 c -1.99,-1.219 -4.083,-2.046 -6.267,-2.447 l 0,0 z"
         id="path97" />
      <path
         inkscape:connector-curvature="0"
         style="fill:#5fc2cf"
         d="m 222.774,60.476 c -0.802,-1.278 -1.733,-2.463 -2.815,-3.551 l -0.958,0.151 c 1.471,1.055 2.718,2.191 3.773,3.4 l 0,0 z"
         id="path99" />
      <path
         inkscape:connector-curvature="0"
         style="fill:#5fc2cf"
         d="m 219.001,57.076 0.958,-0.151 c -0.675,-0.668 -1.408,-1.316 -2.19,-1.923 -0.634,-0.485 -1.272,-0.926 -1.941,-1.334 l 0.275,1.728 c 0.31,0.113 0.622,0.237 0.938,0.378 0.696,0.418 1.351,0.857 1.96,1.302 l 0,0 z"
         id="path101" />
      <path
         inkscape:connector-curvature="0"
         style="fill:#ab6514"
         d="m 206.37,48.913 c -0.156,-0.166 -0.34,-0.3 -0.518,-0.404 -0.628,-0.366 -1.188,-0.205 -1.648,0.496 l -3.579,5.321 -3.837,-3.623 c -0.049,-0.035 -0.114,-0.056 -0.173,-0.075 -0.634,-0.223 -1.203,0.175 -1.728,1.195 l -4.173,6.865 -7.634,-4.592 c -1.406,-0.844 -2.292,-1.173 -2.688,-0.995 -0.399,0.166 -0.668,0.413 -0.808,0.743 l -2.134,3.908 -6.639,-3.312 c -0.46,-0.223 -0.804,-0.355 -1.05,-0.42 -0.53,-0.121 -0.88,-0.037 -1.059,0.241 -0.045,0.082 -0.109,0.237 -0.179,0.452 l -1.535,5 -7.243,-1.184 c -0.579,-0.128 -0.966,-0.185 -1.169,-0.168 -0.921,0.101 -1.208,0.688 -0.879,1.762 l 1.456,4.677 -8.003,0.78 c -0.688,0.079 -0.945,0.384 -0.792,0.916 0.034,0.112 0.099,0.248 0.184,0.397 l 3.604,5.212 -6.703,3.721 c -0.585,0.371 -0.491,0.78 0.297,1.228 l 7.173,3.625 -4.904,6.307 c -1.017,1.448 -0.923,2.226 0.28,2.342 0.166,0.017 0.357,0.017 0.587,-0.004 l 8.949,-0.989 c -0.518,-1.148 -0.941,-2.443 -1.268,-3.869 -0.515,-2.218 -0.596,-4.414 -0.252,-6.592 0.369,-2.208 1.075,-4.327 2.146,-6.339 1.053,-1.969 2.33,-3.78 3.86,-5.412 0.01,-0.017 0.024,-0.017 0.04,-0.034 1.535,-1.664 3.312,-3.028 5.327,-4.092 0.094,-0.044 0.173,-0.086 0.243,-0.127 1.923,-0.978 3.976,-1.605 6.144,-1.875 2.055,-0.254 4.125,-0.288 6.194,-0.072 0.193,0.014 0.374,0.044 0.552,0.059 2.25,0.26 4.3,0.799 6.157,1.633 0.376,0.161 0.723,0.312 1.024,0.454 0.584,0.274 1.07,0.49 1.448,0.65 0.206,-0.268 0.532,-0.612 0.963,-1.032 0.213,-0.224 0.471,-0.468 0.763,-0.736 1.426,-1.352 3.109,-2.479 5.055,-3.403 0.151,-0.067 0.312,-0.151 0.478,-0.221 1.799,-0.827 3.67,-1.416 5.586,-1.79 1.99,-0.388 3.976,-0.409 5.946,-0.077 0.134,0.025 0.272,0.045 0.406,0.069 2.129,0.409 4.139,1.177 6.027,2.298 1.89,1.106 3.592,2.447 5.127,4.019 1.17,1.194 2.059,2.56 2.668,4.087 1.54,3.929 1.795,7.943 0.772,12.029 l 6.323,-1.569 c 0.156,-0.041 0.279,-0.087 0.4,-0.152 0.798,-0.434 0.768,-1.16 -0.084,-2.195 l -5.426,-4.516 4.264,-5.812 c 0.176,-0.453 0.118,-0.75 -0.2,-0.906 l -6.585,-1.653 c 0.317,-1.235 0.723,-2.924 1.208,-5.05 0.074,-0.349 0.164,-0.712 0.253,-1.095 0.01,-0.029 0.005,-0.059 0.01,-0.103 0.034,-0.167 0.053,-0.317 0.048,-0.431 0.025,-0.678 -0.356,-0.881 -1.124,-0.629 l -6.238,1.746 -0.852,-5.398 c -0.133,-0.842 -0.559,-1.127 -1.292,-0.849 -0.166,0.057 -0.341,0.14 -0.529,0.246 l -5.55,3.232 -3.487,-3.915 0,0 z"
         id="path103" />
      <path
         inkscape:connector-curvature="0"
         style="fill:#e7467d"
         d="m 204.451,85.734 c -1.896,-0.961 -4.05,-1.25 -6.46,-0.868 -2.444,0.386 -4.417,1.327 -5.937,2.827 -1.504,1.51 -2.129,3.116 -1.861,4.815 0.271,1.73 1.366,3.079 3.257,4.04 1.911,0.971 4.08,1.258 6.52,0.874 2.417,-0.381 4.375,-1.323 5.877,-2.832 1.535,-1.502 2.159,-3.122 1.886,-4.85 -0.272,-1.701 -1.361,-3.035 -3.282,-4.006 l 0,0 z"
         id="path105" />
      <path
         inkscape:connector-curvature="0"
         style="fill:#f18900"
         d="m 205.011,139.282 c -7.868,-2.534 -15.793,-2.985 -23.794,-1.371 l -0.747,13.107 4.217,4.253 15.115,0.865 4.456,-3.701 0.753,-13.153 0,0 z"
         id="path107" />
      <path
         inkscape:connector-curvature="0"
         style="fill:#fbe000"
         d="m 175.647,142.602 c -0.074,-0.114 -0.153,-0.19 -0.218,-0.237 -0.252,-0.176 -0.455,-0.055 -0.608,0.361 l -0.861,2.187 -2.607,0.771 c -0.515,0.168 -0.613,0.408 -0.31,0.71 0.04,0.027 0.08,0.066 0.117,0.106 l 0.22,0.18 c 0.013,0.021 0.04,0.041 0.064,0.069 0.09,0.065 0.188,0.139 0.282,0.228 0.292,0.235 0.58,0.485 0.877,0.745 0.04,0.039 0.09,0.076 0.139,0.101 l 0.426,0.364 -0.011,2.396 c -0.035,0.229 -0.019,0.396 0.04,0.5 0.104,0.109 0.307,0.102 0.599,-0.044 l 2.441,-1.569 0.035,0.008 c 0.46,0.133 0.906,0.267 1.367,0.4 l 1.243,0.344 0.163,0.042 c 0.517,0.079 0.689,-0.136 0.491,-0.636 l -0.778,-2.334 1.436,-2.193 c 0.167,-0.24 0.218,-0.416 0.144,-0.528 -0.079,-0.101 -0.257,-0.153 -0.517,-0.157 l -2.716,0.024 -0.039,-0.039 -1.419,-1.799 0,0 z"
         id="path109" />
      <path
         inkscape:connector-curvature="0"
         style="fill:#fbe000"
         d="m 179.009,150.259 c 0.012,0.01 0.024,0.01 0.034,0.007 l -0.163,-0.042 0.129,0.035 0,0 z"
         id="path111" />
      <path
         inkscape:connector-curvature="0"
         style="fill:none;stroke:#6b7d27;stroke-width:0.74299997;stroke-linecap:round;stroke-linejoin:round;stroke-miterlimit:10"
         d="m 175.647,142.602 1.416,1.801 0.039,0.039 2.716,-0.024 c 0.26,0.004 0.438,0.057 0.517,0.157 0.075,0.113 0.023,0.288 -0.144,0.528 l -1.436,2.193 0.778,2.334 c 0.198,0.5 0.026,0.715 -0.491,0.636 l -0.163,-0.042 -1.243,-0.344 c -0.46,-0.134 -0.906,-0.268 -1.367,-0.4 l -0.035,-0.008 -2.441,1.569 c -0.292,0.146 -0.495,0.154 -0.599,0.044 -0.059,-0.103 -0.074,-0.27 -0.04,-0.5 l 0.011,-2.396 -0.426,-0.364 c -0.049,-0.025 -0.099,-0.062 -0.139,-0.101 -0.297,-0.26 -0.584,-0.51 -0.877,-0.745 -0.091,-0.089 -0.192,-0.163 -0.282,-0.228 -0.025,-0.029 -0.049,-0.049 -0.064,-0.069 l -0.218,-0.18 c -0.039,-0.04 -0.079,-0.079 -0.119,-0.106 -0.303,-0.302 -0.205,-0.542 0.31,-0.71 l 2.607,-0.771 0.861,-2.187 c 0.153,-0.418 0.356,-0.538 0.608,-0.361 0.068,0.045 0.147,0.121 0.221,0.235 l 0,0 z"
         id="path113" />
      <path
         inkscape:connector-curvature="0"
         style="fill:#fbe000"
         d="m 211.078,144.669 c 0.086,-0.104 0.173,-0.171 0.24,-0.21 0.272,-0.146 0.46,-0.002 0.564,0.428 l 0.608,2.271 2.5,1.064 c 0.493,0.225 0.565,0.475 0.229,0.74 -0.04,0.025 -0.084,0.06 -0.129,0.095 l -0.237,0.153 c -0.015,0.02 -0.044,0.035 -0.075,0.062 -0.094,0.054 -0.203,0.116 -0.307,0.193 -0.317,0.203 -0.629,0.417 -0.955,0.641 -0.042,0.035 -0.097,0.064 -0.149,0.087 l -0.464,0.312 -0.257,2.384 c 0.004,0.23 -0.03,0.396 -0.1,0.49 -0.119,0.095 -0.317,0.065 -0.594,-0.113 l -2.242,-1.837 -0.035,0.002 c -0.47,0.083 -0.93,0.167 -1.401,0.246 l -1.277,0.199 -0.167,0.024 c -0.521,0.021 -0.666,-0.215 -0.413,-0.688 l 1.037,-2.23 -1.176,-2.342 c -0.139,-0.257 -0.171,-0.438 -0.084,-0.542 0.091,-0.089 0.272,-0.121 0.53,-0.098 l 2.698,0.336 0.044,-0.035 1.612,-1.632 0,0 z"
         id="path115" />
      <path
         inkscape:connector-curvature="0"
         style="fill:#fbe000"
         d="m 206.864,151.895 c -0.012,0.007 -0.021,0.005 -0.035,0.002 l 0.167,-0.024 -0.132,0.022 0,0 z"
         id="path117" />
      <path
         inkscape:connector-curvature="0"
         style="fill:none;stroke:#6b7d27;stroke-width:0.74299997;stroke-linecap:round;stroke-linejoin:round;stroke-miterlimit:10"
         d="m 211.078,144.669 -1.612,1.628 -0.044,0.035 -2.698,-0.336 c -0.258,-0.023 -0.438,0.009 -0.53,0.098 -0.086,0.104 -0.055,0.285 0.084,0.542 l 1.176,2.342 -1.037,2.23 c -0.253,0.473 -0.109,0.708 0.413,0.688 l 0.167,-0.024 1.277,-0.199 c 0.471,-0.079 0.932,-0.163 1.401,-0.246 l 0.035,-0.002 2.242,1.837 c 0.277,0.179 0.476,0.208 0.594,0.113 0.069,-0.096 0.104,-0.259 0.1,-0.49 l 0.257,-2.384 0.464,-0.312 c 0.052,-0.023 0.107,-0.052 0.149,-0.087 0.326,-0.223 0.638,-0.438 0.955,-0.641 0.104,-0.077 0.213,-0.14 0.307,-0.193 0.03,-0.027 0.06,-0.042 0.075,-0.062 l 0.237,-0.153 c 0.045,-0.035 0.089,-0.069 0.129,-0.095 0.337,-0.265 0.265,-0.515 -0.229,-0.74 l -2.5,-1.064 -0.608,-2.271 c -0.104,-0.431 -0.292,-0.574 -0.564,-0.428 -0.069,0.043 -0.154,0.11 -0.24,0.214 l 0,0 z"
         id="path119" />
      <path
         inkscape:connector-curvature="0"
         style="fill:#ce2120"
         d="m 182.583,149.944 c 0.044,-0.795 -0.188,-1.488 -0.706,-2.082 -0.532,-0.579 -1.211,-0.894 -2.002,-0.941 -0.795,-0.044 -1.476,0.193 -2.055,0.708 -0.61,0.533 -0.936,1.194 -0.981,1.988 -0.049,0.822 0.2,1.533 0.748,2.099 0.515,0.61 1.164,0.936 1.956,0.98 0.796,0.048 1.505,-0.204 2.1,-0.75 0.578,-0.502 0.895,-1.178 0.94,-2.002 l 0,0 z"
         id="path121" />
      <path
         inkscape:connector-curvature="0"
         style="fill:none;stroke:#921113;stroke-width:0.96630001;stroke-linecap:round;stroke-linejoin:round;stroke-miterlimit:10"
         d="m 182.583,149.944 c -0.045,0.824 -0.362,1.5 -0.94,2.003 -0.594,0.546 -1.303,0.798 -2.1,0.75 -0.792,-0.044 -1.44,-0.371 -1.956,-0.98 -0.547,-0.566 -0.796,-1.277 -0.748,-2.099 0.045,-0.794 0.371,-1.456 0.981,-1.988 0.579,-0.515 1.26,-0.752 2.055,-0.708 0.791,0.047 1.47,0.362 2.002,0.941 0.519,0.593 0.75,1.286 0.706,2.081 l 0,0 z"
         id="path123" />
      <path
         inkscape:connector-curvature="0"
         style="fill:#ce2120"
         d="m 208.936,151.466 c 0.045,-0.794 -0.19,-1.49 -0.708,-2.083 -0.53,-0.58 -1.208,-0.894 -2.002,-0.941 -0.794,-0.044 -1.474,0.192 -2.053,0.71 -0.609,0.53 -0.938,1.19 -0.984,1.986 -0.045,0.824 0.203,1.532 0.752,2.099 0.514,0.609 1.164,0.936 1.956,0.98 0.791,0.046 1.504,-0.204 2.099,-0.748 0.579,-0.502 0.894,-1.18 0.94,-2.003 l 0,0 z"
         id="path125" />
      <path
         inkscape:connector-curvature="0"
         style="fill:none;stroke:#921113;stroke-width:0.96630001;stroke-linecap:round;stroke-linejoin:round;stroke-miterlimit:10"
         d="m 208.936,151.466 c -0.049,0.822 -0.361,1.5 -0.94,2.003 -0.594,0.544 -1.308,0.794 -2.099,0.748 -0.792,-0.044 -1.442,-0.371 -1.956,-0.98 -0.55,-0.566 -0.797,-1.274 -0.752,-2.099 0.046,-0.795 0.375,-1.456 0.984,-1.986 0.579,-0.518 1.258,-0.754 2.053,-0.71 0.794,0.047 1.472,0.361 2.002,0.941 0.518,0.593 0.753,1.289 0.708,2.083 l 0,0 z"
         id="path127" />
      <path
         inkscape:connector-curvature="0"
         style="fill:#6f53a0"
         d="m 187.523,152.731 c 0.045,-0.794 -0.188,-1.487 -0.705,-2.081 -0.533,-0.582 -1.211,-0.894 -2.003,-0.941 -0.795,-0.045 -1.476,0.193 -2.055,0.708 -0.609,0.532 -0.936,1.192 -0.98,1.988 -0.05,0.822 0.2,1.532 0.748,2.099 0.515,0.609 1.164,0.936 1.956,0.98 0.796,0.047 1.504,-0.203 2.099,-0.75 0.579,-0.503 0.896,-1.178 0.94,-2.003 l 0,0 z"
         id="path129" />
      <path
         inkscape:connector-curvature="0"
         style="fill:none;stroke:#352082;stroke-width:0.96630001;stroke-linecap:round;stroke-linejoin:round;stroke-miterlimit:10"
         d="m 187.523,152.731 c -0.044,0.825 -0.361,1.5 -0.94,2.003 -0.594,0.547 -1.302,0.797 -2.099,0.75 -0.792,-0.044 -1.44,-0.371 -1.956,-0.98 -0.547,-0.567 -0.797,-1.277 -0.748,-2.099 0.044,-0.795 0.371,-1.456 0.98,-1.988 0.579,-0.515 1.26,-0.753 2.055,-0.708 0.792,0.047 1.47,0.359 2.003,0.941 0.517,0.594 0.751,1.287 0.705,2.081 l 0,0 z"
         id="path131" />
      <path
         inkscape:connector-curvature="0"
         style="fill:#9dc517"
         d="m 203.035,151.665 c -0.532,-0.582 -1.208,-0.897 -2.006,-0.941 -0.791,-0.045 -1.469,0.19 -2.049,0.708 -0.611,0.53 -0.94,1.193 -0.985,1.985 -0.045,0.825 0.203,1.532 0.75,2.1 0.518,0.609 1.164,0.936 1.958,0.98 0.792,0.046 1.503,-0.204 2.099,-0.748 0.579,-0.502 0.892,-1.18 0.941,-2.002 0.044,-0.795 -0.193,-1.489 -0.708,-2.082 l 0,0 z"
         id="path133" />
      <path
         inkscape:connector-curvature="0"
         style="fill:none;stroke:#388e36;stroke-width:0.96630001;stroke-linecap:round;stroke-linejoin:round;stroke-miterlimit:10"
         d="m 203.035,151.665 c 0.515,0.593 0.752,1.287 0.708,2.081 -0.049,0.823 -0.362,1.5 -0.941,2.002 -0.596,0.544 -1.307,0.794 -2.099,0.748 -0.794,-0.044 -1.44,-0.371 -1.958,-0.98 -0.547,-0.568 -0.795,-1.274 -0.75,-2.1 0.044,-0.792 0.374,-1.455 0.983,-1.985 0.582,-0.518 1.26,-0.753 2.051,-0.708 0.798,0.045 1.474,0.36 2.006,0.942 l 0,0 z"
         id="path135" />
      <path
         inkscape:connector-curvature="0"
         style="fill:#fbe000"
         d="m 193.371,150.743 c -0.064,-0.163 -0.144,-0.282 -0.213,-0.359 -0.272,-0.29 -0.567,-0.19 -0.872,0.298 l -1.679,2.554 -3.522,0.292 c -0.7,0.077 -0.888,0.354 -0.582,0.822 0.04,0.047 0.079,0.106 0.119,0.166 l 0.233,0.286 c 0.01,0.031 0.04,0.062 0.065,0.107 0.094,0.106 0.202,0.23 0.297,0.363 0.312,0.381 0.608,0.775 0.918,1.184 0.042,0.059 0.097,0.122 0.151,0.168 l 0.446,0.574 -0.653,3.051 c -0.104,0.281 -0.129,0.497 -0.081,0.645 0.104,0.167 0.362,0.208 0.775,0.102 l 3.522,-1.349 0.045,0.017 c 0.549,0.292 1.082,0.585 1.628,0.876 l 1.493,0.766 0.195,0.099 c 0.639,0.238 0.914,0.007 0.792,-0.68 l -0.366,-3.179 2.412,-2.411 c 0.274,-0.258 0.385,-0.471 0.327,-0.634 -0.08,-0.149 -0.292,-0.262 -0.619,-0.339 l -3.467,-0.69 -0.039,-0.06 -1.325,-2.669 0,0 z"
         id="path137" />
      <path
         inkscape:connector-curvature="0"
         style="fill:#fbe000"
         d="m 195.618,161.388 c 0.013,0.015 0.025,0.015 0.04,0.017 l -0.195,-0.099 0.155,0.082 0,0 z"
         id="path139" />
      <path
         inkscape:connector-curvature="0"
         style="fill:none;stroke:#6b7d27;stroke-width:0.96630001;stroke-linecap:round;stroke-linejoin:round;stroke-miterlimit:10"
         d="m 193.371,150.743 1.327,2.669 0.039,0.06 3.467,0.69 c 0.326,0.077 0.539,0.19 0.619,0.339 0.059,0.163 -0.053,0.374 -0.327,0.634 l -2.412,2.411 0.366,3.179 c 0.122,0.687 -0.153,0.918 -0.792,0.68 l -0.195,-0.099 -1.493,-0.766 c -0.547,-0.291 -1.08,-0.584 -1.628,-0.876 l -0.045,-0.017 -3.521,1.349 c -0.413,0.107 -0.673,0.065 -0.777,-0.102 -0.049,-0.148 -0.024,-0.364 0.081,-0.648 l 0.653,-3.047 -0.446,-0.574 c -0.054,-0.047 -0.109,-0.109 -0.151,-0.168 -0.31,-0.408 -0.606,-0.802 -0.918,-1.184 -0.095,-0.133 -0.203,-0.257 -0.297,-0.363 -0.025,-0.045 -0.055,-0.077 -0.065,-0.107 l -0.233,-0.286 c -0.04,-0.06 -0.079,-0.122 -0.119,-0.166 -0.307,-0.468 -0.119,-0.745 0.582,-0.822 l 3.522,-0.292 1.679,-2.554 c 0.307,-0.488 0.599,-0.587 0.872,-0.298 0.068,0.076 0.148,0.196 0.212,0.358 l 0,0 z"
         id="path141" />
      <path
         inkscape:connector-curvature="0"
         style="fill:#f18900"
         d="m 236.815,122.786 0.015,-0.042 c -2.768,2.834 -2.654,6.85 0.356,12.058 l 1.807,3.329 -1.505,0.986 c 0.934,1.332 2.218,2.333 3.879,3.007 4.28,1.272 7.691,0.538 10.206,-2.193 -0.535,-0.591 -0.658,-1.349 -0.366,-2.307 -3.035,-0.099 -5.054,-1.193 -6.069,-3.282 l 0.014,0.015 c -0.46,-0.99 -0.583,-2.055 -0.371,-3.159 -2.496,0.404 -4.738,-1.41 -6.704,-5.456 l 1.59,-0.243 c 1.864,2.201 3.413,3.1 4.648,2.696 1.723,-1.25 1.902,-2.834 0.561,-4.736 -0.432,-0.44 -0.861,-0.821 -1.298,-1.118 l -0.054,-0.033 c -2.309,-1.7 -4.546,-1.546 -6.709,0.478 l 0,0 z"
         id="path143" />
      <path
         inkscape:connector-curvature="0"
         style="fill:#d04215"
         d="m 236.83,122.744 -0.015,0.042 c 2.163,-2.024 4.4,-2.178 6.708,-0.478 l 0.054,0.033 c 0.437,0.294 0.867,0.677 1.298,1.118 1.341,1.902 1.163,3.486 -0.561,4.734 -1.235,0.405 -2.784,-0.493 -4.648,-2.694 l -1.59,0.243 c 1.966,4.045 4.208,5.857 6.704,5.456 -0.213,1.104 -0.089,2.167 0.371,3.159 l -0.014,-0.015 c 1.015,2.089 3.035,3.183 6.069,3.282 -0.292,0.955 -0.168,1.716 0.366,2.304 -2.515,2.734 -5.926,3.468 -10.206,2.194 l -0.992,1.69 c 5.604,2.349 10.134,1.451 13.56,-2.686 1.431,0.372 2.604,0.342 3.52,-0.094 1.007,-0.473 1.911,-1.5 2.724,-3.082 l 0.059,-0.042 c 0.708,-1.47 0.926,-2.735 0.659,-3.805 -0.279,-1.099 -1.114,-2.08 -2.505,-2.971 l 0.035,-0.186 0.015,0.044 c 0.385,-2.052 -0.094,-3.854 -1.437,-5.409 l -0.015,-0.015 c -0.644,-0.826 -1.396,-1.399 -2.263,-1.73 l 2.762,-3.007 h 0.03 c 1.821,-1.795 2.723,-3.476 2.713,-5.052 0.071,-0.894 -0.05,-1.696 -0.376,-2.407 -0.356,-0.769 -0.985,-1.495 -1.882,-2.187 l -0.111,-0.078 c -1.542,-1.044 -3.077,-1.391 -4.583,-1.014 -1.465,0.352 -2.959,1.394 -4.504,3.114 l -0.03,0.029 c -0.905,1.069 -1.628,1.934 -2.181,2.618 -0.967,1.186 -1.958,2.482 -2.948,3.898 -1.579,-0.886 -2.995,-1.228 -4.268,-1.028 -1.282,0.202 -2.664,0.988 -4.134,2.364 l -0.016,-0.014 -0.014,0.014 c -1.872,1.938 -2.815,4.107 -2.812,6.496 0,2.403 1.015,5.187 3.035,8.337 l 1.777,-1.119 c -3.009,-5.206 -3.122,-9.221 -0.354,-12.056 l 0,0 z m 11.649,2.824 -0.198,0.208 c -0.168,-1.049 -0.706,-2.232 -1.584,-3.535 l -0.099,-0.062 -0.07,-0.089 c -0.024,-0.032 -0.262,-0.26 -0.703,-0.686 2.342,-3.29 4.056,-5.583 5.145,-6.862 l -0.045,0.069 c 1.815,-1.983 3.605,-2.462 5.368,-1.453 0.01,0.015 0.01,0.015 -0.005,0.031 0.911,0.692 1.381,1.44 1.416,2.237 -0.04,0.533 -0.131,0.918 -0.26,1.189 -0.161,0.353 -0.502,0.801 -1.018,1.312 l -5.901,5.684 -2.03,1.916 -0.016,0.041 0,0 z m -0.599,7.759 -0.03,-0.03 c -0.495,-1.718 0.57,-3.765 3.204,-6.173 l 1.411,-1.353 c 1.119,-0.104 2.015,0.255 2.698,1.07 0.728,0.846 0.985,1.826 0.757,2.96 v 0.03 c -0.03,0.302 -0.104,0.601 -0.218,0.901 v 0.027 c -0.002,0.015 -0.002,0.015 -0.019,0.029 l -0.016,0.027 c -0.619,1.754 -1.92,2.964 -3.906,3.607 l -0.04,-0.003 c -0.044,0.014 -0.059,0.014 -0.075,0.028 l -0.014,-0.003 c -0.044,0.014 -0.089,0.01 -0.134,0.026 l -0.029,0.012 -0.03,0.028 c -1.802,0.478 -2.985,0.089 -3.559,-1.183 l 0,0 z m 6.505,5.027 c -0.015,-0.03 -0.03,-0.044 -0.042,-0.044 -0.493,-0.285 -0.805,-0.748 -0.919,-1.374 1.917,-0.766 3.347,-1.926 4.293,-3.518 0.814,0.804 0.985,1.755 0.544,2.876 -0.921,1.708 -2.072,2.436 -3.466,2.181 -0.152,-0.048 -0.281,-0.084 -0.41,-0.121 l 0,0 z"
         id="path145" />
      <path
         inkscape:connector-curvature="0"
         style="fill:#f18900"
         d="m 248.281,125.776 0.198,-0.208 0.015,-0.042 2.03,-1.916 5.901,-5.684 c 0.515,-0.51 0.857,-0.958 1.018,-1.312 0.129,-0.271 0.22,-0.656 0.26,-1.189 -0.035,-0.799 -0.505,-1.545 -1.416,-2.237 0.016,-0.016 0.016,-0.016 0.005,-0.031 -1.763,-1.009 -3.553,-0.53 -5.368,1.453 l 0.045,-0.069 c -1.089,1.279 -2.802,3.572 -5.145,6.862 0.441,0.426 0.679,0.653 0.703,0.686 l 0.07,0.089 0.099,0.062 c 0.879,1.304 1.416,2.488 1.585,3.536 l 0,0 z"
         id="path147" />
      <path
         inkscape:connector-curvature="0"
         style="fill:#f18900"
         d="m 247.85,133.297 0.03,0.03 c 0.574,1.272 1.757,1.663 3.56,1.184 l 0.03,-0.028 0.029,-0.012 c 0.045,-0.012 0.09,-0.01 0.134,-0.026 l 0.014,0.003 c 0.016,-0.015 0.03,-0.013 0.072,-0.028 l 0.042,0.003 c 1.985,-0.644 3.287,-1.854 3.906,-3.607 l 0.016,-0.027 c 0.015,-0.015 0.015,-0.015 0.017,-0.027 l 0.002,-0.029 c 0.114,-0.3 0.188,-0.6 0.216,-0.901 l 0.002,-0.03 c 0.228,-1.134 -0.03,-2.114 -0.757,-2.96 -0.686,-0.812 -1.579,-1.174 -2.698,-1.067 l -1.411,1.352 c -2.635,2.405 -3.702,4.454 -3.204,6.17 l 0,0 z"
         id="path149" />
      <path
         inkscape:connector-curvature="0"
         style="fill:#f18900"
         d="m 254.343,138.31 c 0.012,0 0.027,0.014 0.042,0.044 0.128,0.037 0.257,0.072 0.413,0.121 1.395,0.255 2.543,-0.473 3.464,-2.181 0.44,-1.121 0.27,-2.069 -0.544,-2.876 -0.946,1.592 -2.376,2.752 -4.293,3.518 0.113,0.626 0.426,1.089 0.918,1.374 l 0,0 z"
         id="path151" />
      <path
         inkscape:connector-curvature="0"
         style="fill:#f18900"
         d="m 132.255,162.489 c 1.518,-1.737 3.79,-3.01 6.829,-3.809 3.05,-0.795 6.401,-0.191 10.056,1.822 0.036,0.02 0.327,0.163 0.871,0.428 2.243,0.815 2.965,2.122 2.172,3.909 l 0.921,4.966 c 0.916,7.622 0.084,11.895 -2.485,12.802 -0.986,0.248 -1.703,0.038 -2.151,-0.631 -0.584,-1.181 -0.755,-3.141 -0.527,-5.912 l 0.114,-2.361 -2.312,0.966 c -1.26,0.718 -2.683,1.936 -4.282,3.646 l -0.035,0.032 -0.024,0.021 c -1.594,1.814 -2.985,3.031 -4.174,3.641 l -0.004,0.015 c -0.827,0.421 -1.575,0.411 -2.232,-0.021 -1.897,-1.277 -2.184,-3.371 -0.887,-6.276 1.46,-2.747 3.488,-4.909 6.075,-6.464 -3.461,-0.205 -6.328,2 -8.59,6.661 -0.222,0.517 -0.384,1.017 -0.495,1.478 -1.168,-1.134 -1.375,-2.913 -0.618,-5.339 0.752,-2.411 2.886,-5.005 6.411,-7.793 -2.089,-0.46 -4.5,0.834 -7.228,3.894 0,-0.288 0.015,-0.549 0.049,-0.782 l 0.015,-0.06 c 0.248,-1.527 1.104,-3.144 2.533,-4.829 v -0.004 z"
         id="path153" />
      <path
         inkscape:connector-curvature="0"
         style="fill:#d04215"
         d="m 139.084,158.68 c -3.039,0.799 -5.312,2.072 -6.829,3.809 -1.428,1.688 -2.285,3.305 -2.533,4.832 l -0.015,0.06 c -0.035,0.233 -0.049,0.495 -0.049,0.782 2.728,-3.06 5.139,-4.354 7.228,-3.896 -3.525,2.79 -5.659,5.384 -6.411,7.795 -0.757,2.426 -0.55,4.206 0.618,5.339 0.109,-0.461 0.273,-0.961 0.495,-1.478 2.263,-4.661 5.129,-6.869 8.59,-6.661 -2.587,1.552 -4.615,3.718 -6.075,6.464 -1.297,2.902 -1.011,4.999 0.887,6.276 0.658,0.431 1.405,0.441 2.232,0.021 l 0.004,-0.015 c 1.188,-0.609 2.58,-1.827 4.174,-3.641 l 0.024,-0.021 0.035,-0.032 c 1.6,-1.711 3.022,-2.928 4.282,-3.646 l 2.312,-0.966 -0.114,2.359 c -0.228,2.77 -0.057,4.732 0.527,5.911 0.448,0.668 1.166,0.881 2.151,0.633 2.569,-0.908 3.401,-5.181 2.485,-12.802 l 2.129,-0.696 c 0.832,4.983 0.891,8.771 0.226,11.35 -0.676,2.537 -2.092,4.03 -4.26,4.503 -1.277,0.254 -2.367,0.225 -3.243,-0.107 -0.889,-0.336 -1.599,-0.965 -2.165,-1.896 -0.301,-0.522 -0.484,-1.126 -0.554,-1.838 -0.067,-0.726 -0.02,-1.744 0.114,-3.065 l -3.293,3.941 1.521,-1.622 c -1.957,2.237 -3.674,3.698 -5.137,4.406 l -0.007,0.016 c -2.139,1.06 -3.996,0.878 -5.575,-0.53 -1.06,-0.904 -1.703,-2 -1.965,-3.305 -2.768,-2.215 -3.812,-5.265 -3.12,-9.174 -1.097,-4.998 0.302,-9.106 4.214,-12.336 6.208,-4.81 12.238,-4.988 18.075,-0.542 l -0.054,2.022 c -0.544,-0.265 -0.835,-0.408 -0.871,-0.428 -3.651,-2.013 -7.003,-2.617 -10.053,-1.822 l 0,0 z"
         id="path155" />
    </g>
  </g>
</svg>
