<?xml version="1.0" encoding="UTF-8" standalone="no"?>
<!-- Created with Inkscape (http://www.inkscape.org/) -->

<svg
   xmlns:dc="http://purl.org/dc/elements/1.1/"
   xmlns:cc="http://creativecommons.org/ns#"
   xmlns:rdf="http://www.w3.org/1999/02/22-rdf-syntax-ns#"
   xmlns:svg="http://www.w3.org/2000/svg"
   xmlns="http://www.w3.org/2000/svg"
   xmlns:sodipodi="http://sodipodi.sourceforge.net/DTD/sodipodi-0.dtd"
   xmlns:inkscape="http://www.inkscape.org/namespaces/inkscape"
   width="176.46875"
   height="184.15858"
   id="svg5696"
   version="1.1"
   inkscape:version="0.48.4 r9939"
   sodipodi:docname="zoe11.svg">
  <defs
     id="defs5698">
    <clipPath
       id="SVGID_2_">
      <rect
         height="88.862999"
         width="111.498"
         y="518.96198"
         x="382.04999"
         id="use1087" />
    </clipPath>
    <clipPath
       id="SVGID_4_">
      <rect
         height="41.314999"
         width="49.584999"
         y="525.19397"
         x="389.84698"
         id="use1111" />
    </clipPath>
  </defs>
  <sodipodi:namedview
     id="base"
     pagecolor="#ffffff"
     bordercolor="#666666"
     borderopacity="1.0"
     inkscape:pageopacity="0.0"
     inkscape:pageshadow="2"
     inkscape:zoom="0.77472527"
     inkscape:cx="49.72476"
     inkscape:cy="126.55577"
     inkscape:current-layer="layer1"
     inkscape:document-units="px"
     showgrid="false"
     inkscape:window-width="763"
     inkscape:window-height="591"
     inkscape:window-x="592"
     inkscape:window-y="97"
     inkscape:window-maximized="0"
     fit-margin-top="0"
     fit-margin-left="0"
     fit-margin-right="0"
     fit-margin-bottom="0" />
  <metadata
     id="metadata5701">
    <rdf:RDF>
      <cc:Work
         rdf:about="">
        <dc:format>image/svg+xml</dc:format>
        <dc:type
           rdf:resource="http://purl.org/dc/dcmitype/StillImage" />
        <dc:title></dc:title>
      </cc:Work>
    </rdf:RDF>
  </metadata>
  <g
     id="layer1"
     inkscape:label="Layer 1"
     inkscape:groupmode="layer"
     transform="translate(-268.21854,-27.50355)">
    <g
       transform="translate(-541.40646,-513.68395)"
       id="g1443">
      <path
         inkscape:connector-curvature="0"
         style="fill:#df5d91"
         d="m 928.855,718.765 c 0.748,-3.353 0.656,-7.094 -0.285,-11.229 -2.877,2.793 -7.881,2.725 -15.002,-0.207 -0.477,-1.643 -0.674,-3.484 -0.598,-5.548 5.637,3.435 10.439,4.021 14.406,1.761 -0.605,-2.074 -1.602,-4.521 -2.982,-7.337 -2.494,-4.92 -5.645,-7.645 -9.463,-8.171 -3.057,-0.292 -5.125,0.926 -6.215,3.638 -0.898,2.368 -1.084,5.593 -0.562,9.635 0.506,4.044 1.111,7.313 1.82,9.806 0.721,2.474 1.414,4.389 2.115,5.716 0.998,2.17 2.369,3.929 4.105,5.244 1.789,1.367 3.664,2.021 5.6,1.977 3.774,-0.325 6.132,-2.08 7.061,-5.285 l 0,0 z"
         id="path1445" />
      <path
         inkscape:connector-curvature="0"
         style="fill:#eda1c1"
         d="m 928.57,707.535 c -0.242,-1.077 -0.635,-2.413 -1.193,-3.994 -3.967,2.261 -8.77,1.674 -14.406,-1.761 -0.076,2.063 0.121,3.905 0.598,5.548 7.12,2.932 12.124,3 15.001,0.207 l 0,0 z"
         id="path1447" />
      <path
         inkscape:connector-curvature="0"
         style="fill:none;stroke:#970f45;stroke-width:2.60159993;stroke-linecap:round;stroke-miterlimit:10"
         d="m 928.57,707.535 c 0.941,4.136 1.033,7.877 0.285,11.229 -0.93,3.205 -3.283,4.96 -7.061,5.283 -1.936,0.044 -3.811,-0.609 -5.6,-1.977 -1.736,-1.315 -3.107,-3.074 -4.105,-5.244 -0.701,-1.327 -1.395,-3.242 -2.115,-5.716 -0.709,-2.492 -1.314,-5.762 -1.82,-9.806 -0.521,-4.042 -0.336,-7.267 0.562,-9.635 1.09,-2.712 3.158,-3.93 6.215,-3.638 3.818,0.526 6.969,3.251 9.463,8.171 1.381,2.816 2.377,5.263 2.982,7.337 m 1.194,3.996 c -0.242,-1.077 -0.635,-2.413 -1.193,-3.994 m 0,0 c -3.967,2.261 -8.77,1.674 -14.406,-1.761 -0.076,2.063 0.121,3.905 0.596,5.548 7.123,2.932 12.127,3 15.004,0.207"
         id="path1449" />
      <path
         inkscape:connector-curvature="0"
         style="fill:#eda1c1"
         d="m 922.676,668.674 -8.275,-0.027 c 1.025,9.199 0.598,17.265 -1.309,24.183 0.184,2.592 1.297,4.186 3.35,4.768 0.883,0.244 1.826,0.244 2.828,-0.015 1.004,-0.259 1.928,-0.746 2.771,-1.446 2.627,-8.75 2.842,-17.9 0.635,-27.463 l 0,0 z"
         id="path1451" />
      <path
         inkscape:connector-curvature="0"
         style="fill:none;stroke:#df5d91;stroke-width:2.58089995;stroke-linecap:round;stroke-miterlimit:10"
         d="m 914.4,668.646 c 1.025,9.199 0.598,17.265 -1.309,24.183 0.184,2.592 1.297,4.186 3.35,4.768 0.883,0.244 1.826,0.244 2.828,-0.015 1.004,-0.259 1.928,-0.746 2.771,-1.446 2.627,-8.749 2.842,-17.898 0.635,-27.462 l -8.275,-0.028 0,0 z"
         id="path1453" />
      <path
         inkscape:connector-curvature="0"
         style="fill:#df5d91"
         d="m 891.5,711.952 c -1.033,-3.679 -1.297,-7.63 -0.783,-11.853 2.883,3.431 6.391,4.112 10.508,2.06 0.547,-1.705 0.678,-3.332 0.381,-4.89 -3.439,0.793 -6.887,0.611 -10.338,-0.512 0.535,-2.563 1.328,-5.205 2.387,-7.95 1.926,-4.785 4.688,-7.131 8.301,-7.027 2.9,0.216 5,1.862 6.299,4.925 1.084,2.671 1.566,6.12 1.445,10.313 -0.107,4.197 -0.383,7.562 -0.826,10.082 -0.453,2.5 -0.941,4.408 -1.486,5.699 -0.756,2.126 -1.904,3.752 -3.443,4.849 -1.586,1.139 -3.32,1.508 -5.184,1.127 -3.65,-0.995 -6.068,-3.263 -7.261,-6.823 l 0,0 z"
         id="path1455" />
      <path
         inkscape:connector-curvature="0"
         style="fill:#eda1c1"
         d="m 890.717,700.1 c 0.133,-1.103 0.305,-2.217 0.551,-3.342 3.451,1.123 6.898,1.305 10.338,0.512 0.297,1.558 0.166,3.185 -0.381,4.89 -4.118,2.052 -7.625,1.37 -10.508,-2.06 l 0,0 z"
         id="path1457" />
      <path
         inkscape:connector-curvature="0"
         style="fill:none;stroke:#970f45;stroke-width:2.61290002;stroke-linecap:round;stroke-miterlimit:10"
         d="m 890.717,700.1 c -0.514,4.223 -0.25,8.174 0.783,11.853 1.193,3.56 3.611,5.828 7.26,6.823 1.863,0.381 3.598,0.012 5.184,-1.127 1.541,-1.097 2.688,-2.723 3.443,-4.849 0.545,-1.291 1.033,-3.199 1.486,-5.699 0.443,-2.52 0.721,-5.885 0.826,-10.082 0.121,-4.193 -0.361,-7.643 -1.445,-10.313 -1.299,-3.062 -3.398,-4.709 -6.299,-4.925 -3.611,-0.104 -6.375,2.242 -8.301,7.027 -1.059,2.745 -1.852,5.387 -2.385,7.95 m 10e-4,0 c -0.248,1.125 -0.42,2.241 -0.553,3.342 m 0.553,-3.342 c 3.449,1.123 6.896,1.305 10.336,0.512 0.297,1.558 0.166,3.185 -0.377,4.89 -4.121,2.053 -7.629,1.371 -10.512,-2.06"
         id="path1459" />
      <path
         inkscape:connector-curvature="0"
         style="fill:#eda1c1"
         d="m 904.451,669.084 c 0.113,0.046 0.244,0.249 0.375,0.607 -3.51,3.752 -5.236,7.059 -5.178,9.951 -0.014,1.249 0.312,2.372 0.988,3.372 0.705,1.073 2.34,2.045 4.906,2.885 -0.672,3.505 -2.322,5.673 -4.939,6.477 -1.166,0.354 -2.484,0.35 -3.961,-0.033 -1.184,-0.4 -2.279,-1.059 -3.316,-1.977 -3.289,-2.896 -4.65,-6.29 -4.086,-10.208 0.592,-4.144 3.285,-8.331 8.092,-12.576 2.363,0.501 4.738,1.003 7.119,1.502 l 0,0 z"
         id="path1461" />
      <path
         inkscape:connector-curvature="0"
         style="fill:none;stroke:#df5d91;stroke-width:2.63569999;stroke-linecap:round;stroke-miterlimit:10"
         d="m 904.826,669.691 c -3.51,3.752 -5.236,7.059 -5.178,9.951 -0.014,1.249 0.312,2.372 0.988,3.372 0.705,1.073 2.34,2.045 4.906,2.885 -0.672,3.505 -2.322,5.673 -4.939,6.477 -1.166,0.354 -2.484,0.35 -3.961,-0.033 -1.184,-0.4 -2.279,-1.059 -3.316,-1.977 -3.289,-2.896 -4.65,-6.29 -4.086,-10.208 0.592,-4.144 3.285,-8.331 8.092,-12.576 2.363,0.501 4.738,1.003 7.119,1.502 0.113,0.046 0.244,0.249 0.375,0.607 l 0,0 z"
         id="path1463" />
      <path
         inkscape:connector-curvature="0"
         style="fill:#f18900"
         d="m 922.246,625.289 c -8.49,-1.945 -16.809,-1.558 -24.973,1.16 l 0.576,12.39 5.584,4.571 14.463,-0.67 4.926,-5.047 -0.576,-12.404 0,0 z"
         id="path1465" />
      <path
         inkscape:connector-curvature="0"
         style="fill:none;stroke:#d04215;stroke-width:2.58100009;stroke-linecap:square;stroke-miterlimit:10"
         d="m 897.85,638.839 -0.576,-12.39 c 8.164,-2.718 16.482,-3.105 24.973,-1.16 l 0.576,12.404"
         id="path1467" />
      <path
         inkscape:connector-curvature="0"
         style="fill:#eda1c1"
         d="m 931.029,652.603 c -2.307,-5.584 -3.742,-10.943 -4.305,-16.106 -3.66,1.883 -7.822,3.238 -12.502,4.069 -4.697,0.824 -11.355,0.236 -19.99,-1.786 -0.014,4.775 -0.906,9.992 -2.703,15.654 -0.752,2.623 -1.35,4.95 -1.797,6.949 -1.57,5.806 -0.537,10.743 3.113,14.822 12.883,4.051 25.855,3.449 38.896,-1.807 3.256,-4.402 3.826,-9.408 1.721,-15.044 -0.628,-1.949 -1.439,-4.209 -2.433,-6.751 l 0,0 z"
         id="path1469" />
      <path
         inkscape:connector-curvature="0"
         style="fill:none;stroke:#df5d91;stroke-width:2.58100009;stroke-linecap:square;stroke-miterlimit:10"
         d="m 926.725,636.496 c -3.66,1.883 -7.822,3.238 -12.502,4.069 -4.697,0.824 -11.355,0.236 -19.99,-1.786 -0.014,4.775 -0.906,9.992 -2.703,15.654 -0.752,2.623 -1.35,4.95 -1.797,6.949 -1.57,5.806 -0.537,10.743 3.113,14.822 12.883,4.051 25.855,3.449 38.896,-1.807 3.256,-4.402 3.826,-9.408 1.721,-15.044 -0.629,-1.949 -1.439,-4.21 -2.434,-6.752 -2.306,-5.582 -3.742,-10.942 -4.304,-16.105 l 0,0 z"
         id="path1471" />
      <path
         inkscape:connector-curvature="0"
         style="fill:#f18900"
         d="m 898.66,635.19 5.994,8 c -14.367,2.853 -24.02,9.143 -28.965,18.87 -4.275,-0.929 -6.91,-3.29 -7.93,-7.092 5.718,-9.789 16.022,-16.375 30.901,-19.778 l 0,0 z"
         id="path1473" />
      <path
         inkscape:connector-curvature="0"
         style="fill:none;stroke:#d04215;stroke-width:2.58080006;stroke-linecap:square;stroke-miterlimit:10"
         d="m 904.654,643.19 c -14.367,2.853 -24.02,9.143 -28.965,18.87 -4.275,-0.929 -6.91,-3.29 -7.93,-7.092 5.717,-9.79 16.021,-16.376 30.9,-19.778 l 5.995,8 0,0 z"
         id="path1475" />
      <path
         inkscape:connector-curvature="0"
         style="fill:#eda1c1"
         d="m 884.99,651.156 c -2.41,-1.703 -4.346,-4.423 -5.824,-8.143 5.379,-3.516 11.885,-6.13 19.494,-7.823 l 5.994,8 c -8.256,1.977 -14.808,4.622 -19.664,7.966 l 0,0 z"
         id="path1477" />
      <path
         inkscape:connector-curvature="0"
         style="fill:none;stroke:#df5d91;stroke-width:2.58080006;stroke-linecap:square;stroke-miterlimit:10"
         d="m 879.166,643.014 c 5.379,-3.516 11.885,-6.13 19.494,-7.823 l 5.994,8 c -8.256,1.977 -14.809,4.622 -19.664,7.966 -2.41,-1.704 -4.345,-4.424 -5.824,-8.143 l 0,0 z"
         id="path1479" />
      <polygon
         style="fill:#eda1c1"
         points="902.4,635.373 906.396,641.595 906.396,641.595 902.688,642.515 898.172,636.44 "
         id="polygon1481" />
      <path
         inkscape:connector-curvature="0"
         style="fill:#eda1c1"
         d="m 929.975,653.052 -0.014,-0.014 c -2.105,-5.118 -3.498,-10.038 -4.178,-14.783 -3.4,1.559 -7.182,2.714 -11.371,3.447 -4.541,0.807 -10.895,0.313 -19.045,-1.48 -0.166,4.477 -1.09,9.337 -2.74,14.577 l 0.01,-0.029 c -0.75,2.597 -1.336,4.879 -1.758,6.864 l -0.023,0.056 c -1.428,5.261 -0.543,9.771 2.666,13.515 12.412,3.825 24.898,3.245 37.471,-1.753 2.842,-4.023 3.297,-8.583 1.383,-13.687 l -0.014,-0.056 c -0.62,-1.936 -1.415,-4.156 -2.387,-6.657 l 0,0 z"
         id="path1483" />
      <path
         inkscape:connector-curvature="0"
         style="fill:#df5d91"
         d="m 906.486,683.042 c 0.283,0.257 0.592,0.502 0.934,0.719 3.121,2.194 6.193,2.058 9.25,-0.387 1.012,-0.896 1.623,-1.413 1.838,-1.575 0.922,-0.646 1.775,-0.966 2.533,-0.94 1.646,0.054 3.092,0.709 4.352,1.982 0.654,0.672 1.152,1.115 1.52,1.337 0.65,0.396 1.434,0.611 2.328,0.642 0.82,0.029 1.584,-0.155 2.303,-0.547 0.422,-0.248 1.006,-0.7 1.762,-1.354 0.725,-0.653 1.305,-1.104 1.744,-1.354 0.705,-0.405 1.457,-0.588 2.26,-0.563 1.174,0.038 2.465,0.759 3.887,2.146 0.725,0.729 1.26,1.204 1.6,1.422 0.623,0.449 1.252,0.677 1.875,0.698 1.727,0.056 3,-0.415 3.848,-1.398 0.316,-0.361 0.77,-1.15 1.377,-2.36 l -12.289,-12.188 c -17.703,0.213 -34.6,-0.518 -50.691,-2.204 l -13.475,11.873 c 0.525,1.278 0.93,2.093 1.219,2.474 0.785,1.038 2.025,1.59 3.752,1.646 0.621,0.022 1.266,-0.166 1.916,-0.574 0.35,-0.194 0.92,-0.634 1.688,-1.313 1.512,-1.295 2.844,-1.929 4.018,-1.89 0.789,0.025 1.527,0.257 2.219,0.709 0.408,0.275 0.959,0.765 1.656,1.467 0.711,0.698 1.26,1.189 1.668,1.465 0.693,0.438 1.443,0.669 2.26,0.694 0.9,0.03 1.693,-0.137 2.367,-0.489 0.367,-0.197 0.893,-0.605 1.59,-1.234 1.354,-1.188 2.838,-1.747 4.484,-1.695 0.76,0.025 1.592,0.4 2.465,1.104 0.199,0.17 0.791,0.73 1.742,1.687 l 0,0 z"
         id="path1485" />
      <path
         inkscape:connector-curvature="0"
         style="fill:none;stroke:#970f45;stroke-width:2.58109999;stroke-linecap:round;stroke-miterlimit:10"
         d="m 906.486,683.042 c -0.951,-0.957 -1.543,-1.517 -1.746,-1.69 -0.873,-0.704 -1.705,-1.079 -2.465,-1.103 -1.646,-0.054 -3.131,0.506 -4.484,1.693 -0.697,0.629 -1.223,1.037 -1.59,1.234 -0.674,0.353 -1.467,0.52 -2.367,0.489 -0.816,-0.025 -1.566,-0.257 -2.26,-0.694 -0.408,-0.275 -0.957,-0.767 -1.668,-1.465 -0.697,-0.702 -1.248,-1.191 -1.656,-1.467 -0.691,-0.452 -1.43,-0.684 -2.219,-0.709 -1.174,-0.039 -2.506,0.595 -4.018,1.89 -0.768,0.68 -1.338,1.119 -1.688,1.313 -0.65,0.408 -1.295,0.597 -1.916,0.574 -1.727,-0.056 -2.967,-0.607 -3.752,-1.646 -0.289,-0.381 -0.693,-1.195 -1.219,-2.474 l 13.475,-11.873 c 16.092,1.687 32.988,2.417 50.691,2.204 l 12.289,12.188 c -0.607,1.21 -1.061,1.999 -1.377,2.36 -0.846,0.983 -2.121,1.454 -3.848,1.398 -0.623,-0.021 -1.252,-0.249 -1.875,-0.698 -0.34,-0.218 -0.875,-0.692 -1.6,-1.422 -1.422,-1.388 -2.713,-2.108 -3.887,-2.146 -0.803,-0.024 -1.555,0.158 -2.26,0.563 -0.439,0.249 -1.02,0.7 -1.744,1.354 -0.756,0.654 -1.34,1.106 -1.762,1.354 -0.719,0.392 -1.482,0.576 -2.303,0.547 -0.895,-0.03 -1.678,-0.246 -2.328,-0.642 -0.367,-0.222 -0.865,-0.665 -1.52,-1.337 -1.26,-1.273 -2.705,-1.929 -4.352,-1.982 -0.758,-0.025 -1.611,0.294 -2.533,0.94 -0.215,0.162 -0.826,0.68 -1.838,1.575 -3.057,2.444 -6.129,2.581 -9.25,0.387 -0.338,-0.213 -0.646,-0.458 -0.93,-0.715 l 0,0 z"
         id="path1487" />
      <path
         inkscape:connector-curvature="0"
         style="fill:#df5d91"
         d="m 917.172,671.367 c 0.906,-0.621 1.732,-0.928 2.494,-0.903 1.6,0.054 3.033,0.692 4.281,1.912 0.645,0.645 1.143,1.061 1.494,1.278 0.639,0.382 1.406,0.585 2.289,0.615 0.789,0.025 1.541,-0.157 2.244,-0.536 0.424,-0.232 1.004,-0.672 1.732,-1.299 0.727,-0.626 1.307,-1.063 1.717,-1.287 0.703,-0.39 1.441,-0.576 2.23,-0.551 1.146,0.039 2.424,0.731 3.82,2.063 0.711,0.702 1.236,1.16 1.574,1.378 0.609,0.423 1.211,0.648 1.832,0.669 0.041,0 0.082,0.004 0.123,0.006 0.9,0.015 1.68,-0.099 2.309,-0.368 0.547,-0.218 1,-0.549 1.361,-0.968 0.318,-0.348 0.77,-1.121 1.346,-2.306 l -13.463,-10.191 c -15.766,4.495 -30.676,3.965 -44.717,-1.583 l -13.854,9.427 c 0.5,1.221 0.904,2.022 1.184,2.391 0.344,0.439 0.777,0.8 1.291,1.053 0.613,0.296 1.369,0.473 2.24,0.516 0.055,0.002 0.111,0.002 0.18,0.007 0.621,0.019 1.234,-0.168 1.871,-0.547 0.352,-0.197 0.908,-0.622 1.66,-1.274 1.48,-1.239 2.799,-1.849 3.949,-1.809 0.785,0.024 1.512,0.257 2.174,0.691 0.406,0.249 0.961,0.724 1.645,1.396 0.684,0.674 1.234,1.148 1.641,1.409 0.678,0.423 1.418,0.652 2.203,0.682 0.889,0.026 1.668,-0.124 2.328,-0.467 0.367,-0.194 0.893,-0.577 1.574,-1.179 1.32,-1.133 2.795,-1.68 4.396,-1.626 0.76,0.024 1.566,0.383 2.428,1.061 0.23,0.187 0.943,0.86 2.137,2.021 1.703,1.646 3.721,1.711 6.023,0.194 1.27,-1.075 2.024,-1.703 2.264,-1.875 l 0,0 z"
         id="path1489" />
      <path
         inkscape:connector-curvature="0"
         style="fill:none;stroke:#970f45;stroke-width:2.58109999;stroke-linecap:round;stroke-miterlimit:10"
         d="m 917.172,671.367 c -0.24,0.172 -0.994,0.8 -2.262,1.875 -2.303,1.517 -4.32,1.452 -6.023,-0.194 -1.193,-1.16 -1.906,-1.834 -2.137,-2.021 -0.861,-0.678 -1.668,-1.036 -2.428,-1.061 -1.602,-0.054 -3.076,0.493 -4.396,1.626 -0.682,0.602 -1.207,0.984 -1.574,1.179 -0.66,0.343 -1.439,0.493 -2.328,0.467 -0.785,-0.029 -1.525,-0.259 -2.203,-0.682 -0.406,-0.261 -0.957,-0.735 -1.641,-1.409 -0.684,-0.673 -1.238,-1.147 -1.645,-1.396 -0.664,-0.435 -1.389,-0.667 -2.174,-0.691 -1.15,-0.04 -2.469,0.569 -3.949,1.809 -0.752,0.652 -1.309,1.077 -1.66,1.274 -0.637,0.379 -1.25,0.565 -1.871,0.547 -0.068,-0.005 -0.125,-0.005 -0.18,-0.007 -0.871,-0.043 -1.627,-0.22 -2.24,-0.516 -0.514,-0.253 -0.947,-0.613 -1.291,-1.053 -0.279,-0.368 -0.684,-1.17 -1.184,-2.391 l 13.854,-9.427 c 14.041,5.548 28.951,6.078 44.717,1.583 l 13.463,10.191 c -0.576,1.185 -1.027,1.958 -1.346,2.306 -0.361,0.419 -0.814,0.75 -1.361,0.968 -0.629,0.27 -1.408,0.383 -2.309,0.368 -0.041,-0.002 -0.082,-0.006 -0.123,-0.006 -0.621,-0.021 -1.223,-0.246 -1.832,-0.669 -0.338,-0.218 -0.863,-0.676 -1.574,-1.378 -1.396,-1.332 -2.674,-2.024 -3.82,-2.063 -0.789,-0.025 -1.527,0.161 -2.23,0.551 -0.41,0.224 -0.99,0.661 -1.717,1.287 -0.729,0.627 -1.309,1.066 -1.732,1.299 -0.703,0.379 -1.455,0.562 -2.244,0.536 -0.883,-0.03 -1.65,-0.233 -2.289,-0.615 -0.352,-0.218 -0.85,-0.634 -1.494,-1.278 -1.248,-1.22 -2.682,-1.858 -4.281,-1.912 -0.764,-0.025 -1.59,0.282 -2.496,0.903 l 0,0 z"
         id="path1491" />
      <path
         inkscape:connector-curvature="0"
         style="fill:#f18900"
         d="m 858.062,668.191 c -0.191,-2.163 0.453,-4.557 1.953,-7.18 1.52,-2.629 4.227,-4.587 8.129,-5.856 0.041,-0.011 0.34,-0.125 0.896,-0.334 2.102,-1.048 3.516,-0.721 4.24,0.964 l 4.131,2.511 c 6.002,4.197 8.451,7.485 7.344,9.854 -0.494,0.844 -1.133,1.21 -1.91,1.101 -1.229,-0.342 -2.729,-1.467 -4.529,-3.386 l -1.588,-1.574 -0.891,2.223 c -0.355,1.332 -0.461,3.1 -0.342,5.302 l -0.002,0.042 -0.006,0.031 c 0.197,2.262 0.109,4.007 -0.262,5.219 v 0.013 c -0.262,0.841 -0.779,1.36 -1.533,1.545 -2.189,0.51 -3.863,-0.619 -5.031,-3.362 -0.943,-2.764 -1.092,-5.551 -0.428,-8.339 -2.502,2.28 -2.895,5.681 -1.143,10.212 0.213,0.486 0.453,0.913 0.705,1.282 -1.598,0.1 -2.994,-0.887 -4.188,-2.954 -1.193,-2.056 -1.57,-5.19 -1.143,-9.415 -1.742,1.165 -2.471,3.667 -2.168,7.511 -0.203,-0.181 -0.377,-0.358 -0.52,-0.53 l -0.031,-0.048 c -0.907,-1.146 -1.464,-2.768 -1.683,-4.832 l 0,0 z"
         id="path1493" />
      <path
         inkscape:connector-curvature="0"
         style="fill:#d04215"
         d="m 860.016,661.012 c -1.5,2.623 -2.145,5.017 -1.953,7.18 0.219,2.063 0.775,3.686 1.686,4.829 l 0.031,0.048 c 0.143,0.172 0.316,0.35 0.52,0.53 -0.303,-3.844 0.426,-6.346 2.168,-7.511 -0.428,4.225 -0.051,7.359 1.143,9.415 1.193,2.067 2.59,3.054 4.188,2.954 -0.252,-0.369 -0.492,-0.796 -0.705,-1.282 -1.752,-4.531 -1.359,-7.932 1.143,-10.212 -0.664,2.788 -0.516,5.575 0.428,8.339 1.168,2.743 2.844,3.872 5.031,3.362 0.754,-0.185 1.271,-0.704 1.533,-1.545 v -0.013 c 0.371,-1.212 0.459,-2.957 0.264,-5.219 l 0.004,-0.031 0.002,-0.042 c -0.119,-2.202 -0.014,-3.97 0.342,-5.302 l 0.891,-2.223 1.588,1.574 c 1.801,1.919 3.301,3.044 4.529,3.386 0.779,0.109 1.416,-0.257 1.91,-1.101 1.107,-2.368 -1.342,-5.656 -7.344,-9.854 l 0.957,-1.925 c 4.082,2.579 6.799,4.941 8.162,7.04 1.332,2.085 1.426,4.018 0.283,5.826 -0.691,1.057 -1.451,1.799 -2.283,2.198 -0.842,0.402 -1.77,0.501 -2.809,0.303 -0.576,-0.12 -1.127,-0.375 -1.678,-0.777 -0.557,-0.416 -1.242,-1.094 -2.084,-2.028 l 0.541,4.797 -0.111,-2.087 c 0.25,2.785 0.111,4.906 -0.385,6.377 l 0.006,0.013 c -0.709,2.165 -2.1,3.342 -4.17,3.549 -1.355,0.166 -2.57,-0.08 -3.666,-0.727 -3.451,0.523 -6.312,-0.68 -8.602,-3.645 -4.27,-2.405 -6.219,-5.99 -5.838,-10.766 0.826,-7.38 4.805,-11.695 11.916,-12.946 l 1.389,1.323 c -0.557,0.209 -0.855,0.323 -0.896,0.334 -3.905,1.272 -6.612,3.23 -8.131,5.859 l 0,0 z"
         id="path1495" />
      <path
         inkscape:connector-curvature="0"
         style="fill:#f18900"
         d="m 911,562.535 c -5.244,-0.356 -10.438,-0.068 -15.568,0.858 -5.094,0.903 -10.01,2.43 -14.779,4.607 -4.826,2.219 -9.344,4.86 -13.543,7.921 -1.541,1.12 -3.941,2.788 -7.191,5.034 -2.969,-4.023 -6.799,-5.542 -11.473,-4.558 -7.982,1.653 -13.588,0.946 -16.809,-2.095 0.318,5.697 3.469,10.029 9.465,12.992 -5.879,-0.439 -9.705,1.227 -11.494,5.008 -2.533,5.314 -6.996,6.901 -13.354,4.759 1.717,6.054 6.932,7.732 15.627,5.065 -2.383,6.191 -8.377,10.221 -17.99,12.079 7.424,3.311 15.209,2.834 23.387,-1.413 -1.561,2.484 -2.6,4.618 -3.111,6.404 -1.33,4.722 -4.881,7.871 -10.65,9.477 7.803,2.482 14.896,0.754 21.295,-5.192 -0.816,5.677 -3.768,9.43 -8.848,11.271 5.514,3.085 11.93,2.5 19.219,-1.749 0.842,0.485 1.717,0.945 2.627,1.384 7.453,3.587 16.521,4.608 27.193,3.077 15.373,-2.12 30.33,-5.859 44.859,-11.219 8.77,-3.17 15.568,-7.322 20.385,-12.436 1.998,-2.109 3.656,-4.276 4.959,-6.493 8.348,0.323 14.213,-2.207 17.564,-7.561 -5.344,0.827 -9.732,-1.048 -13.176,-5.635 8.471,2.144 15.521,0.252 21.172,-5.673 -5.832,1.363 -10.455,0.305 -13.895,-3.197 -1.309,-1.319 -3.244,-2.695 -5.805,-4.125 9.156,-0.187 16.307,-3.643 21.428,-10.349 -9.482,3.226 -16.754,2.688 -21.82,-1.596 8.91,-1.837 12.674,-5.812 11.273,-11.946 -4.547,4.932 -9.221,5.684 -14,2.238 -3.383,-2.457 -7.539,-2.082 -12.486,1.125 3.838,-5.479 4.518,-10.79 2.057,-15.939 -1.359,4.215 -5.826,7.513 -13.395,9.892 -5.469,1.842 -8.584,5.293 -9.354,10.357 -4.771,-1.29 -9.355,-2.088 -13.769,-2.372 l 0,0 z"
         id="path1497" />
      <path
         inkscape:connector-curvature="0"
         style="fill:none;stroke:#d04215;stroke-width:2.58109999;stroke-linecap:square;stroke-miterlimit:10"
         d="m 911,562.535 c 4.414,0.284 8.998,1.082 13.77,2.375 0.77,-5.064 3.885,-8.516 9.354,-10.357 7.568,-2.379 12.035,-5.677 13.395,-9.892 2.461,5.149 1.781,10.461 -2.057,15.939 4.947,-3.207 9.104,-3.582 12.486,-1.125 4.779,3.445 9.453,2.693 14,-2.238 1.4,6.135 -2.363,10.109 -11.273,11.946 5.066,4.283 12.338,4.821 21.82,1.596 -5.121,6.706 -12.271,10.162 -21.428,10.349 2.561,1.43 4.496,2.806 5.805,4.125 3.439,3.502 8.062,4.561 13.895,3.197 -5.65,5.925 -12.701,7.816 -21.172,5.673 3.443,4.587 7.832,6.462 13.176,5.635 -3.352,5.354 -9.217,7.884 -17.564,7.561 -1.303,2.217 -2.961,4.384 -4.959,6.493 -4.816,5.113 -11.615,9.266 -20.385,12.436 -14.529,5.359 -29.486,9.099 -44.859,11.219 -10.672,1.529 -19.74,0.51 -27.193,-3.077 -0.91,-0.438 -1.785,-0.898 -2.627,-1.384 -7.289,4.249 -13.705,4.834 -19.219,1.749 5.08,-1.842 8.031,-5.595 8.848,-11.271 -6.398,5.946 -13.492,7.675 -21.295,5.192 5.77,-1.605 9.32,-4.755 10.65,-9.477 0.512,-1.786 1.551,-3.92 3.111,-6.404 -8.178,4.247 -15.963,4.724 -23.387,1.413 9.613,-1.858 15.607,-5.888 17.99,-12.079 -8.695,2.667 -13.91,0.988 -15.627,-5.065 6.357,2.143 10.82,0.556 13.354,-4.759 1.789,-3.781 5.615,-5.447 11.494,-5.008 -5.996,-2.963 -9.146,-7.295 -9.465,-12.992 3.221,3.041 8.826,3.748 16.809,2.095 4.674,-0.984 8.504,0.534 11.473,4.556 3.25,-2.244 5.65,-3.912 7.191,-5.032 4.199,-3.061 8.717,-5.702 13.543,-7.921 4.77,-2.178 9.686,-3.704 14.779,-4.607 5.129,-0.929 10.323,-1.217 15.567,-0.861 l 0,0 z"
         id="path1499" />
      <path
         inkscape:connector-curvature="0"
         style="fill:#ab61a3"
         d="m 843.811,587.688 -0.537,2.647 c -0.107,0.528 -0.121,1.03 -0.029,1.494 l 0.246,-0.319 c 0.365,-0.468 0.783,-0.516 1.258,-0.165 l 1.389,1.085 c 0.447,0.356 0.496,0.759 0.17,1.227 0.277,-0.085 0.551,-0.198 0.828,-0.342 l 2.395,-1.183 c 1.201,-0.607 1.33,-1.326 0.406,-2.157 -0.619,-0.569 -1.385,-1.048 -2.291,-1.413 l -1.793,-1.597 c -1.093,-0.979 -1.773,-0.732 -2.042,0.723 l 0,0 z"
         id="path1501" />
      <path
         inkscape:connector-curvature="0"
         style="fill:#ab61a3"
         d="m 846.137,592.43 -1.389,-1.085 c -0.475,-0.351 -0.893,-0.303 -1.258,0.165 l -0.246,0.319 -0.852,1.088 -0.162,0.199 c -0.35,0.474 -0.301,0.889 0.176,1.238 l 1.404,1.082 c 0.379,0.314 0.752,0.321 1.084,0.006 0.043,-0.054 0.088,-0.105 0.146,-0.164 l 1.244,-1.604 c 0.008,-0.017 0.008,-0.017 0.021,-0.019 0.328,-0.467 0.279,-0.869 -0.168,-1.225 l 0,0 z"
         id="path1503" />
      <path
         inkscape:connector-curvature="0"
         style="fill:#ab61a3"
         d="m 842.23,593.116 0.162,-0.199 c -0.475,0.037 -0.951,0.172 -1.453,0.397 l -2.441,1.169 c -1.348,0.642 -1.398,1.386 -0.164,2.196 l 1.975,1.307 c 0.477,0.807 1.084,1.448 1.824,1.948 1.074,0.737 1.773,0.399 2.088,-1.005 l 0.582,-2.619 c 0.066,-0.303 0.092,-0.595 0.092,-0.868 -0.332,0.315 -0.705,0.309 -1.084,-0.006 l -1.404,-1.082 c -0.477,-0.349 -0.526,-0.764 -0.177,-1.238 l 0,0 z"
         id="path1505" />
      <path
         inkscape:connector-curvature="0"
         style="fill:none;stroke:#633791;stroke-width:1.93579996;stroke-linecap:round;stroke-linejoin:round;stroke-miterlimit:10"
         d="m 843.244,591.829 c -0.092,-0.464 -0.078,-0.966 0.029,-1.494 l 0.537,-2.647 c 0.27,-1.454 0.949,-1.701 2.041,-0.723 l 1.793,1.597 c 0.906,0.365 1.672,0.844 2.291,1.413 0.924,0.831 0.795,1.55 -0.406,2.157 l -2.395,1.183 c -0.277,0.144 -0.551,0.257 -0.828,0.342 m 10e-4,-0.001 c 0.326,-0.468 0.277,-0.87 -0.17,-1.227 l -1.389,-1.085 c -0.475,-0.351 -0.893,-0.303 -1.258,0.165 l -0.246,0.319 m -0.851,1.089 0.852,-1.088 m -0.852,1.088 -0.162,0.199 c -0.35,0.474 -0.301,0.889 0.176,1.238 l 1.404,1.082 c 0.379,0.314 0.752,0.321 1.084,0.006 m 0,0 c 0,0.273 -0.025,0.565 -0.092,0.868 l -0.582,2.619 c -0.314,1.404 -1.014,1.742 -2.088,1.005 -0.74,-0.5 -1.348,-1.142 -1.824,-1.948 l -1.975,-1.307 c -1.234,-0.811 -1.184,-1.555 0.164,-2.196 l 2.441,-1.169 c 0.502,-0.226 0.979,-0.36 1.453,-0.397 m 3.915,0.739 c -0.014,0.002 -0.014,0.002 -0.021,0.019 l -1.244,1.604 c -0.059,0.059 -0.104,0.11 -0.146,0.164"
         id="path1507" />
      <path
         inkscape:connector-curvature="0"
         style="fill:#9dc517"
         d="m 942.424,562.459 1.738,2.067 c 0.348,0.41 0.602,0.846 0.748,1.295 l -0.371,-0.161 c -0.545,-0.232 -0.934,-0.077 -1.182,0.457 l -0.697,1.618 c -0.223,0.528 -0.07,0.903 0.438,1.158 -0.283,0.061 -0.578,0.094 -0.891,0.1 l -2.666,0.112 c -1.344,0.043 -1.805,-0.524 -1.393,-1.699 0.268,-0.796 0.709,-1.579 1.33,-2.335 l 0.805,-2.265 c 0.49,-1.379 1.205,-1.491 2.141,-0.347 l 0,0 z"
         id="path1509" />
      <path
         inkscape:connector-curvature="0"
         style="fill:#9dc517"
         d="m 942.66,567.735 0.697,-1.618 c 0.248,-0.534 0.637,-0.689 1.182,-0.457 l 0.371,0.161 1.268,0.547 0.236,0.096 c 0.535,0.248 0.691,0.636 0.443,1.17 l -0.713,1.623 c -0.182,0.462 -0.504,0.646 -0.949,0.53 -0.062,-0.027 -0.127,-0.052 -0.203,-0.075 l -1.865,-0.81 c -0.016,-0.009 -0.016,-0.009 -0.029,-0.009 -0.508,-0.254 -0.66,-0.624 -0.438,-1.158 l 0,0 z"
         id="path1511" />
      <path
         inkscape:connector-curvature="0"
         style="fill:#9dc517"
         d="m 946.414,566.464 -0.236,-0.096 c 0.436,-0.199 0.918,-0.309 1.465,-0.346 l 2.703,-0.149 c 1.492,-0.083 1.895,0.541 1.201,1.846 l -1.105,2.095 c -0.031,0.935 -0.256,1.792 -0.666,2.584 -0.586,1.164 -1.361,1.204 -2.311,0.118 l -1.773,-2.016 c -0.201,-0.23 -0.363,-0.477 -0.496,-0.713 0.445,0.116 0.768,-0.068 0.949,-0.53 l 0.713,-1.623 c 0.247,-0.534 0.091,-0.922 -0.444,-1.17 l 0,0 z"
         id="path1513" />
      <path
         inkscape:connector-curvature="0"
         style="fill:none;stroke:#388e36;stroke-width:1.93550003;stroke-linecap:round;stroke-linejoin:round;stroke-miterlimit:10"
         d="m 944.91,565.821 c -0.146,-0.449 -0.4,-0.885 -0.748,-1.295 l -1.738,-2.067 c -0.936,-1.144 -1.65,-1.034 -2.141,0.348 l -0.805,2.265 c -0.621,0.756 -1.062,1.539 -1.33,2.335 -0.412,1.175 0.049,1.742 1.393,1.699 l 2.666,-0.112 c 0.312,-0.006 0.607,-0.039 0.891,-0.1 m 0,0 c -0.508,-0.255 -0.66,-0.63 -0.438,-1.158 l 0.697,-1.618 c 0.248,-0.534 0.637,-0.689 1.182,-0.457 l 0.371,0.161 m 1.268,0.546 -1.268,-0.547 m 1.268,0.547 0.236,0.096 c 0.535,0.248 0.691,0.636 0.443,1.17 l -0.713,1.623 c -0.182,0.462 -0.504,0.646 -0.949,0.53 m 0,0 c 0.133,0.236 0.295,0.479 0.496,0.713 l 1.773,2.016 c 0.949,1.086 1.725,1.046 2.311,-0.118 0.41,-0.792 0.635,-1.649 0.666,-2.584 l 1.105,-2.095 c 0.693,-1.305 0.291,-1.929 -1.201,-1.846 l -2.703,0.147 c -0.547,0.039 -1.029,0.148 -1.465,0.348 m -3.079,2.526 c 0.014,0 0.014,0 0.029,0.009 l 1.865,0.808 c 0.076,0.025 0.141,0.05 0.203,0.077"
         id="path1515" />
      <path
         inkscape:connector-curvature="0"
         style="fill:#82110c"
         d="m 907.924,611.556 c -0.268,-1.043 -0.979,-1.817 -2.143,-2.305 -1.172,-0.499 -2.451,-0.571 -3.83,-0.217 -1.359,0.346 -2.432,1.021 -3.219,2.021 -0.787,0.984 -1.057,2.01 -0.787,3.054 0.271,1.06 0.996,1.83 2.166,2.329 1.164,0.487 2.428,0.549 3.789,0.201 1.377,-0.351 2.469,-1.016 3.258,-2.004 0.785,-0.997 1.037,-2.019 0.766,-3.079 l 0,0 z"
         id="path1517" />
      <path
         inkscape:connector-curvature="0"
         style="fill:#ffffff"
         d="m 856.734,561.69 0.004,0.012 c -2.996,4.863 -3.803,10.021 -2.406,15.471 1.395,5.455 4.58,9.591 9.541,12.406 l 0.014,-0.006 c 4.955,2.858 10.244,3.562 15.885,2.119 5.613,-1.438 9.916,-4.591 12.904,-9.48 0.768,-1.239 1.385,-2.497 1.863,-3.761 l -5.553,-21.688 c -1.025,-0.894 -2.18,-1.712 -3.447,-2.431 l -0.002,-0.013 c -4.963,-2.826 -10.252,-3.514 -15.861,-2.078 -5.641,1.444 -9.947,4.586 -12.942,9.449 l 0,0 z"
         id="path1519" />
      <path
         inkscape:connector-curvature="0"
         style="fill:#ffffff"
         d="m 890.758,552.986 0.006,0.011 c -0.752,1.236 -1.369,2.507 -1.855,3.787 l 5.551,21.688 c 1.039,0.877 2.186,1.681 3.439,2.401 4.973,2.855 10.275,3.554 15.889,2.117 5.625,-1.438 9.928,-4.593 12.914,-9.484 l 0.014,-0.002 c 3,-4.849 3.793,-10.005 2.396,-15.456 -1.395,-5.453 -4.564,-9.595 -9.531,-12.421 l -0.002,-0.013 c -4.961,-2.83 -10.264,-3.514 -15.889,-2.073 -5.616,1.436 -9.934,4.58 -12.932,9.445 l 0,0 z"
         id="path1521" />
      <path
         inkscape:connector-curvature="0"
         d="m 899.973,571.596 c 0.857,-1.947 2.271,-3.294 4.234,-4.04 1.975,-0.761 3.928,-0.717 5.859,0.128 1.943,0.86 3.285,2.257 4.033,4.221 0.756,1.962 0.717,3.916 -0.133,5.845 -0.857,1.945 -2.254,3.288 -4.221,4.034 -1.961,0.758 -3.914,0.715 -5.842,-0.135 -1.939,-0.829 -3.287,-2.24 -4.037,-4.219 -0.766,-1.958 -0.741,-3.908 0.107,-5.834 l 0,0 z"
         id="path1523" />
      <path
         inkscape:connector-curvature="0"
         d="m 876.328,577.347 c -1.689,-1.29 -3.574,-1.796 -5.656,-1.506 -2.098,0.281 -3.785,1.256 -5.074,2.923 -1.295,1.691 -1.801,3.562 -1.512,5.642 0.277,2.085 1.254,3.775 2.924,5.06 1.688,1.297 3.557,1.801 5.639,1.513 2.086,-0.275 3.775,-1.251 5.062,-2.921 1.301,-1.662 1.805,-3.543 1.512,-5.64 -0.264,-2.088 -1.227,-3.784 -2.895,-5.071 l 0,0 z"
         id="path1525" />
      <path
         inkscape:connector-curvature="0"
         style="fill:#5fc2cf"
         d="m 889.904,560.132 -0.025,-0.095 c 5.561,-10.229 13.834,-14.325 24.789,-12.293 10.066,1.853 15.084,7.52 15.072,17.015 0.197,-2.192 0.008,-4.43 -0.578,-6.72 -1.395,-5.453 -4.58,-9.59 -9.543,-12.416 l -0.004,-0.015 c -4.961,-2.828 -10.25,-3.514 -15.891,-2.072 -5.609,1.437 -9.918,4.579 -12.91,9.439 l 0.002,0.015 c -0.758,1.223 -1.367,2.464 -1.836,3.711 -1.02,-0.868 -2.15,-1.662 -3.402,-2.37 l -0.002,-0.013 c -4.963,-2.828 -10.252,-3.516 -15.863,-2.08 -5.639,1.442 -9.947,4.585 -12.939,9.447 l 0.002,0.013 c -2.998,4.862 -3.801,10.021 -2.406,15.475 0.588,2.292 1.496,4.339 2.721,6.168 -4.57,-8.322 -2.893,-15.702 5.049,-22.158 8.629,-7.047 17.857,-7.422 27.646,-1.121 l 0.023,0.096 c 0.012,-0.019 0.031,-0.05 0.041,-0.068 0.015,0.011 0.037,0.034 0.054,0.042 l 0,0 z"
         id="path1527" />
      <path
         inkscape:connector-curvature="0"
         style="fill:#ab6514"
         d="m 905.865,542.132 c -1.01,-0.982 -1.873,-0.848 -2.566,0.4 l -3.305,5.77 -3.812,-3.064 c -1.094,-0.874 -1.854,-0.608 -2.309,0.792 l -0.902,2.828 c -1.023,1.09 -1.938,2.308 -2.777,3.652 -0.549,0.866 -1.086,1.788 -1.623,2.754 -0.014,-0.011 -0.031,-0.02 -0.051,-0.029 l 0.021,0.078 c -0.857,-0.621 -1.736,-1.197 -2.648,-1.705 -1.381,-0.772 -2.771,-1.404 -4.188,-1.866 l -2.154,-2.049 c -1.072,-1.012 -1.865,-0.879 -2.406,0.416 l -1.867,4.517 -5.67,-3.475 c -1.209,-0.76 -2.033,-0.464 -2.445,0.883 l -1.543,5.062 -5.668,-1.332 c -1.428,-0.334 -2.139,0.174 -2.123,1.515 l 0.074,5.703 -7.256,1.156 c -1.256,0.164 -1.379,0.737 -0.404,1.701 l 3.812,3.794 -6.307,3.752 c -1.082,0.634 -0.98,1.351 0.303,2.134 l 5.154,3.135 -3.482,6.857 c -0.639,1.235 -0.234,1.703 1.244,1.395 l 7.625,-1.55 c -1.031,-1.736 -1.826,-3.671 -2.373,-5.815 -1.184,-4.622 -0.357,-9.031 2.463,-13.233 2.844,-4.224 6.898,-7.017 12.164,-8.363 3.375,-0.862 6.621,-0.953 9.721,-0.273 1.717,0.3 3.355,0.896 4.908,1.783 0.58,0.321 1.152,0.648 1.713,1.003 l 0.016,-0.002 c 1.297,0.837 2.428,1.803 3.393,2.884 0.455,-1.502 1.039,-2.906 1.738,-4.197 l 0.012,-0.002 c 0.322,-0.584 0.664,-1.14 1.02,-1.705 0.939,-1.523 2.086,-2.83 3.451,-3.922 2.395,-2.082 5.283,-3.563 8.658,-4.426 5.264,-1.347 10.16,-0.843 14.684,1.496 4.496,2.333 7.338,5.801 8.52,10.421 0.551,2.143 0.783,4.225 0.713,6.24 l 7.432,-2.3 c 1.445,-0.438 1.578,-1.044 0.422,-1.82 l -6.352,-4.341 3.02,-5.226 c 0.75,-1.305 0.49,-1.98 -0.762,-2.018 l -7.334,-0.266 1.521,-5.154 c 0.393,-1.313 0.006,-1.759 -1.174,-1.299 l -6.92,2.47 -2.672,-5.039 c -0.633,-1.181 -1.502,-1.287 -2.592,-0.309 l -4.33,3.891 -3.787,-3.702 0,0 z"
         id="path1529" />
      <path
         inkscape:connector-curvature="0"
         style="fill:#e7467d"
         d="m 904.965,582.384 c -0.426,-1.676 -1.678,-2.882 -3.758,-3.637 -2.035,-0.764 -4.295,-0.828 -6.773,-0.192 -2.488,0.637 -4.451,1.782 -5.896,3.436 -1.434,1.651 -1.939,3.307 -1.51,4.98 0.436,1.703 1.678,2.928 3.721,3.674 2.07,0.771 4.34,0.832 6.832,0.194 2.477,-0.636 4.428,-1.775 5.842,-3.436 1.462,-1.644 1.977,-3.318 1.542,-5.019 l 0,0 z"
         id="path1531" />
      <path
         inkscape:connector-curvature="0"
         style="fill:#f18900"
         d="m 927.799,644.837 -6.34,-7.726 c 13.953,-4.018 23.82,-10.591 29.59,-19.69 4.33,0.646 6.896,3.095 7.688,7.345 -6.684,8.917 -16.993,15.609 -30.938,20.071 l 0,0 z"
         id="path1533" />
      <path
         inkscape:connector-curvature="0"
         style="fill:none;stroke:#d04215;stroke-width:2.58100009;stroke-linecap:square;stroke-miterlimit:10"
         d="m 921.459,637.111 c 13.953,-4.018 23.82,-10.591 29.59,-19.69 4.33,0.646 6.896,3.095 7.688,7.345 -6.684,8.917 -16.992,15.609 -30.938,20.071 l -6.34,-7.726 0,0 z"
         id="path1535" />
      <path
         inkscape:connector-curvature="0"
         style="fill:#eda1c1"
         d="m 941.092,627.925 c 2.32,1.697 4.262,4.345 5.795,7.962 -5.41,3.663 -11.762,6.645 -19.088,8.95 l -6.34,-7.726 c 8.061,-2.649 14.603,-5.714 19.633,-9.186 l 0,0 z"
         id="path1537" />
      <path
         inkscape:connector-curvature="0"
         style="fill:none;stroke:#df5d91;stroke-width:2.58100009;stroke-linecap:square;stroke-miterlimit:10"
         d="m 941.092,627.925 c -5.029,3.473 -11.572,6.537 -19.633,9.187 l 6.34,7.726 c 7.326,-2.306 13.678,-5.287 19.088,-8.95 -1.533,-3.618 -3.475,-6.266 -5.795,-7.963 l 0,0 z"
         id="path1539" />
      <polygon
         style="fill:#eda1c1"
         points="923.92,644.949 919.67,638.885 919.67,638.885 923.389,637.64 928.221,643.555 "
         id="polygon1541" />
      <path
         inkscape:connector-curvature="0"
         style="fill:#eda1c1"
         d="m 930.416,654.193 c -0.141,-0.366 -0.299,-0.748 -0.441,-1.142 l -0.014,-0.014 c -2.105,-5.118 -3.498,-10.038 -4.178,-14.783 -3.4,1.559 -7.182,2.714 -11.371,3.447 -4.541,0.807 -10.895,0.313 -19.045,-1.48 -0.166,4.477 -1.09,9.337 -2.74,14.577 l 0.01,-0.029 c -0.119,0.408 -0.225,0.8 -0.332,1.193 l 38.111,-1.769 0,0 z"
         id="path1543" />
      <path
         inkscape:connector-curvature="0"
         style="fill:#f18900"
         d="m 921.182,626.199 c -7.73,-1.637 -15.314,-1.287 -22.766,1.04 l 0.584,12.543 4.434,3.628 14.463,-0.67 3.871,-3.959 -0.586,-12.582 0,0 z"
         id="path1545" />
      <path
         inkscape:connector-curvature="0"
         style="fill:#fbe000"
         d="m 893.496,632.404 c -0.08,-0.102 -0.166,-0.168 -0.229,-0.205 -0.258,-0.144 -0.439,-0.007 -0.543,0.404 l -0.607,2.165 -2.4,0.99 c -0.471,0.213 -0.543,0.449 -0.223,0.706 0.037,0.022 0.08,0.059 0.121,0.089 l 0.225,0.153 c 0.018,0.017 0.043,0.031 0.068,0.057 0.096,0.054 0.197,0.115 0.293,0.19 0.301,0.194 0.6,0.408 0.906,0.621 0.043,0.033 0.094,0.064 0.143,0.085 l 0.443,0.303 0.223,2.283 c -0.008,0.22 0.021,0.377 0.09,0.468 0.111,0.094 0.303,0.066 0.568,-0.099 l 2.164,-1.734 0.035,0.002 c 0.449,0.081 0.887,0.166 1.336,0.246 l 1.215,0.203 0.162,0.025 c 0.5,0.024 0.641,-0.197 0.402,-0.652 l -0.971,-2.143 1.15,-2.229 c 0.135,-0.242 0.168,-0.419 0.086,-0.516 -0.088,-0.087 -0.264,-0.12 -0.51,-0.102 l -2.582,0.292 -0.041,-0.033 -1.524,-1.569 0,0 z"
         id="path1547" />
      <path
         inkscape:connector-curvature="0"
         style="fill:#fbe000"
         d="m 897.453,639.355 c 0.012,0.008 0.021,0.004 0.033,0.002 l -0.16,-0.025 0.127,0.023 0,0 z"
         id="path1549" />
      <path
         inkscape:connector-curvature="0"
         style="fill:none;stroke:#6b7d27;stroke-width:1.48839998;stroke-linecap:round;stroke-linejoin:round;stroke-miterlimit:10"
         d="m 893.496,632.404 1.525,1.57 0.041,0.033 2.582,-0.292 c 0.246,-0.019 0.422,0.015 0.51,0.102 0.082,0.097 0.049,0.273 -0.086,0.516 l -1.15,2.229 0.971,2.143 c 0.238,0.455 0.098,0.677 -0.402,0.652 l -0.16,-0.025 -1.217,-0.203 c -0.449,-0.08 -0.887,-0.165 -1.336,-0.246 l -0.033,-0.002 -2.166,1.734 c -0.266,0.165 -0.457,0.192 -0.568,0.099 -0.068,-0.091 -0.098,-0.248 -0.09,-0.468 l -0.223,-2.283 -0.443,-0.303 c -0.049,-0.021 -0.1,-0.052 -0.143,-0.085 -0.307,-0.213 -0.605,-0.427 -0.906,-0.621 -0.096,-0.075 -0.197,-0.137 -0.293,-0.19 -0.025,-0.025 -0.051,-0.04 -0.068,-0.057 l -0.225,-0.153 c -0.041,-0.03 -0.084,-0.066 -0.121,-0.089 -0.32,-0.257 -0.248,-0.493 0.223,-0.706 l 2.4,-0.99 0.607,-2.165 c 0.104,-0.411 0.285,-0.548 0.543,-0.404 0.062,0.036 0.148,0.103 0.228,0.204 l 0,0 z"
         id="path1551" />
      <path
         inkscape:connector-curvature="0"
         style="fill:#fbe000"
         d="m 927.342,630.844 c 0.072,-0.105 0.152,-0.178 0.209,-0.224 0.242,-0.166 0.439,-0.048 0.58,0.353 l 0.803,2.099 2.482,0.767 c 0.492,0.166 0.584,0.394 0.291,0.682 -0.037,0.027 -0.074,0.062 -0.117,0.1 l -0.207,0.172 c -0.014,0.019 -0.037,0.037 -0.066,0.064 -0.084,0.063 -0.182,0.135 -0.268,0.215 -0.285,0.224 -0.559,0.46 -0.846,0.705 -0.041,0.037 -0.086,0.07 -0.135,0.095 l -0.412,0.344 -0.012,2.292 c 0.027,0.22 0.014,0.379 -0.045,0.479 -0.104,0.1 -0.297,0.091 -0.572,-0.052 l -2.32,-1.525 -0.031,0.009 c -0.439,0.12 -0.869,0.246 -1.309,0.371 l -1.195,0.312 -0.154,0.041 c -0.494,0.068 -0.658,-0.139 -0.463,-0.613 l 0.768,-2.225 -1.352,-2.113 c -0.158,-0.23 -0.205,-0.397 -0.133,-0.508 0.08,-0.091 0.248,-0.139 0.496,-0.145 l 2.6,0.054 0.037,-0.037 1.371,-1.712 0,0 z"
         id="path1553" />
      <path
         inkscape:connector-curvature="0"
         style="fill:#fbe000"
         d="m 924.051,638.135 c -0.012,0.006 -0.025,0.006 -0.033,0.006 l 0.154,-0.041 -0.121,0.035 0,0 z"
         id="path1555" />
      <path
         inkscape:connector-curvature="0"
         style="fill:none;stroke:#6b7d27;stroke-width:1.48829997;stroke-linecap:round;stroke-linejoin:round;stroke-miterlimit:10"
         d="m 927.342,630.844 -1.371,1.71 -0.037,0.037 -2.6,-0.054 c -0.248,0.006 -0.416,0.054 -0.496,0.145 -0.072,0.11 -0.025,0.277 0.133,0.508 l 1.352,2.113 -0.768,2.225 c -0.195,0.475 -0.031,0.682 0.463,0.613 l 0.154,-0.041 1.195,-0.312 c 0.439,-0.125 0.869,-0.249 1.309,-0.371 l 0.031,-0.004 2.32,1.522 c 0.275,0.141 0.469,0.149 0.572,0.05 0.059,-0.1 0.072,-0.259 0.045,-0.479 l 0.012,-2.292 0.412,-0.344 c 0.049,-0.024 0.094,-0.058 0.135,-0.095 0.287,-0.245 0.561,-0.481 0.846,-0.705 0.086,-0.08 0.184,-0.151 0.268,-0.215 0.029,-0.027 0.053,-0.046 0.066,-0.064 l 0.207,-0.172 c 0.043,-0.037 0.08,-0.072 0.117,-0.098 0.293,-0.286 0.201,-0.518 -0.291,-0.684 l -2.482,-0.767 -0.803,-2.099 c -0.141,-0.4 -0.338,-0.519 -0.58,-0.353 -0.057,0.046 -0.137,0.118 -0.209,0.226 v 0 z"
         id="path1557" />
      <path
         inkscape:connector-curvature="0"
         style="fill:#ce2120"
         d="m 900.811,638.775 c -0.035,-0.759 -0.328,-1.396 -0.877,-1.91 -0.562,-0.5 -1.238,-0.731 -1.998,-0.698 -0.762,0.037 -1.385,0.329 -1.885,0.878 -0.527,0.563 -0.773,1.227 -0.736,1.985 0.035,0.787 0.344,1.438 0.92,1.925 0.549,0.525 1.197,0.772 1.957,0.737 0.762,-0.035 1.408,-0.342 1.924,-0.92 0.499,-0.535 0.734,-1.211 0.695,-1.997 l 0,0 z"
         id="path1559" />
      <path
         inkscape:connector-curvature="0"
         style="fill:none;stroke:#921113;stroke-width:1.93579996;stroke-linecap:round;stroke-linejoin:round;stroke-miterlimit:10"
         d="m 900.811,638.775 c 0.039,0.785 -0.195,1.462 -0.695,1.997 -0.516,0.578 -1.162,0.885 -1.924,0.92 -0.76,0.035 -1.408,-0.212 -1.957,-0.737 -0.576,-0.487 -0.885,-1.138 -0.92,-1.925 -0.037,-0.759 0.209,-1.422 0.736,-1.985 0.5,-0.549 1.123,-0.841 1.885,-0.878 0.76,-0.033 1.436,0.198 1.998,0.698 0.548,0.514 0.841,1.152 0.877,1.91 l 0,0 z"
         id="path1561" />
      <path
         inkscape:connector-curvature="0"
         style="fill:#ce2120"
         d="m 926.047,637.601 c -0.037,-0.759 -0.326,-1.396 -0.879,-1.91 -0.562,-0.5 -1.236,-0.729 -1.996,-0.696 -0.76,0.035 -1.383,0.327 -1.885,0.876 -0.525,0.563 -0.775,1.227 -0.738,1.985 0.039,0.791 0.344,1.438 0.92,1.925 0.553,0.525 1.199,0.774 1.959,0.737 0.758,-0.033 1.41,-0.342 1.92,-0.92 0.504,-0.535 0.736,-1.21 0.699,-1.997 l 0,0 z"
         id="path1563" />
      <path
         inkscape:connector-curvature="0"
         style="fill:none;stroke:#921113;stroke-width:1.93579996;stroke-linecap:round;stroke-linejoin:round;stroke-miterlimit:10"
         d="m 926.047,637.601 c 0.037,0.787 -0.195,1.463 -0.699,1.997 -0.51,0.578 -1.162,0.887 -1.92,0.92 -0.76,0.037 -1.406,-0.212 -1.959,-0.737 -0.576,-0.487 -0.881,-1.134 -0.92,-1.925 -0.037,-0.759 0.213,-1.422 0.738,-1.985 0.502,-0.549 1.125,-0.841 1.885,-0.876 0.76,-0.033 1.434,0.196 1.996,0.696 0.553,0.513 0.842,1.151 0.879,1.91 l 0,0 z"
         id="path1565" />
      <path
         inkscape:connector-curvature="0"
         style="fill:#6f53a0"
         d="m 905.799,640.946 c -0.033,-0.758 -0.326,-1.396 -0.879,-1.912 -0.562,-0.499 -1.234,-0.729 -1.998,-0.696 -0.758,0.035 -1.383,0.329 -1.881,0.879 -0.527,0.563 -0.773,1.227 -0.74,1.984 0.035,0.787 0.344,1.438 0.92,1.923 0.553,0.528 1.197,0.774 1.959,0.741 0.76,-0.035 1.41,-0.342 1.924,-0.922 0.501,-0.536 0.73,-1.21 0.695,-1.997 l 0,0 z"
         id="path1567" />
      <path
         inkscape:connector-curvature="0"
         style="fill:none;stroke:#352082;stroke-width:1.93579996;stroke-linecap:round;stroke-linejoin:round;stroke-miterlimit:10"
         d="m 905.799,640.946 c 0.035,0.787 -0.193,1.461 -0.695,1.997 -0.514,0.58 -1.164,0.887 -1.924,0.922 -0.762,0.033 -1.406,-0.213 -1.959,-0.741 -0.576,-0.485 -0.885,-1.136 -0.92,-1.923 -0.033,-0.758 0.213,-1.421 0.74,-1.984 0.498,-0.55 1.123,-0.844 1.881,-0.879 0.764,-0.033 1.436,0.197 1.998,0.696 0.553,0.516 0.846,1.154 0.879,1.912 l 0,0 z"
         id="path1569" />
      <path
         inkscape:connector-curvature="0"
         style="fill:#9dc517"
         d="m 920.475,638.33 c -0.564,-0.5 -1.238,-0.731 -1.998,-0.696 -0.762,0.037 -1.383,0.327 -1.885,0.876 -0.529,0.565 -0.773,1.229 -0.736,1.987 0.037,0.787 0.342,1.438 0.918,1.922 0.551,0.531 1.199,0.775 1.959,0.74 0.76,-0.033 1.412,-0.34 1.924,-0.918 0.502,-0.539 0.734,-1.21 0.695,-1.999 -0.038,-0.761 -0.327,-1.396 -0.877,-1.912 l 0,0 z"
         id="path1571" />
      <path
         inkscape:connector-curvature="0"
         style="fill:none;stroke:#388e36;stroke-width:1.93579996;stroke-linecap:round;stroke-linejoin:round;stroke-miterlimit:10"
         d="m 920.475,638.33 c 0.551,0.516 0.84,1.151 0.877,1.912 0.039,0.789 -0.193,1.46 -0.695,1.999 -0.512,0.578 -1.164,0.885 -1.924,0.918 -0.76,0.035 -1.408,-0.209 -1.959,-0.74 -0.576,-0.484 -0.881,-1.135 -0.918,-1.922 -0.037,-0.759 0.207,-1.422 0.736,-1.987 0.502,-0.549 1.123,-0.839 1.885,-0.876 0.759,-0.035 1.433,0.196 1.998,0.696 l 0,0 z"
         id="path1573" />
      <path
         inkscape:connector-curvature="0"
         style="fill:#fbe000"
         d="m 911.186,638.473 c -0.078,-0.149 -0.166,-0.257 -0.236,-0.321 -0.287,-0.251 -0.561,-0.126 -0.801,0.371 l -1.346,2.594 -3.32,0.624 c -0.658,0.141 -0.811,0.425 -0.473,0.837 0.041,0.041 0.088,0.095 0.133,0.146 l 0.246,0.253 c 0.014,0.027 0.043,0.054 0.072,0.094 0.102,0.091 0.217,0.198 0.32,0.316 0.332,0.332 0.652,0.678 0.988,1.034 0.041,0.054 0.104,0.105 0.158,0.145 l 0.48,0.506 -0.316,2.963 c -0.074,0.279 -0.078,0.487 -0.016,0.624 0.119,0.145 0.367,0.161 0.75,0.021 l 3.219,-1.633 0.039,0.013 c 0.551,0.222 1.088,0.447 1.641,0.671 l 1.492,0.582 0.197,0.072 c 0.633,0.166 0.869,-0.08 0.688,-0.723 l -0.666,-2.987 2.057,-2.532 c 0.236,-0.273 0.322,-0.484 0.246,-0.634 -0.09,-0.135 -0.301,-0.22 -0.621,-0.259 l -3.365,-0.317 -0.045,-0.052 -1.521,-2.408 0,0 z"
         id="path1575" />
      <path
         inkscape:connector-curvature="0"
         style="fill:#fbe000"
         d="m 914.373,648.372 c 0.014,0.015 0.027,0.015 0.041,0.012 l -0.197,-0.072 0.156,0.06 0,0 z"
         id="path1577" />
      <path
         inkscape:connector-curvature="0"
         style="fill:none;stroke:#6b7d27;stroke-width:1.93579996;stroke-linecap:round;stroke-linejoin:round;stroke-miterlimit:10"
         d="m 911.186,638.473 1.521,2.407 0.045,0.052 3.365,0.317 c 0.32,0.039 0.531,0.124 0.621,0.259 0.076,0.149 -0.01,0.36 -0.246,0.634 l -2.057,2.532 0.666,2.987 c 0.182,0.643 -0.055,0.889 -0.688,0.723 l -0.197,-0.072 -1.492,-0.582 c -0.553,-0.224 -1.09,-0.449 -1.641,-0.671 l -0.039,-0.013 -3.219,1.633 c -0.383,0.141 -0.631,0.124 -0.75,-0.021 -0.062,-0.137 -0.059,-0.345 0.016,-0.624 l 0.316,-2.963 -0.48,-0.506 c -0.055,-0.039 -0.117,-0.091 -0.158,-0.145 -0.336,-0.356 -0.656,-0.702 -0.988,-1.034 -0.104,-0.118 -0.219,-0.226 -0.32,-0.316 -0.029,-0.04 -0.059,-0.066 -0.072,-0.094 l -0.246,-0.253 c -0.045,-0.052 -0.092,-0.105 -0.133,-0.146 -0.338,-0.412 -0.186,-0.696 0.473,-0.837 l 3.32,-0.624 1.346,-2.594 c 0.24,-0.497 0.514,-0.622 0.801,-0.371 0.07,0.065 0.157,0.172 0.236,0.322 l 0,0 z"
         id="path1579" />
      <path
         inkscape:connector-curvature="0"
         style="fill:#d04215"
         d="m 941.533,616.097 c -1.154,-0.816 -1.848,-1.912 -2.092,-3.282 -0.023,-1.53 0.742,-2.517 2.281,-2.927 1.607,-0.406 3.334,-0.144 5.195,0.81 -0.287,0.512 -0.484,1.08 -0.619,1.688 l 1.074,0.085 c 1.021,-1.073 2.395,-2.021 4.113,-2.853 1.799,-3.002 2.652,-5.747 2.568,-8.209 -0.129,-1.641 0.449,-2.749 1.756,-3.354 1.006,-0.364 1.951,-0.072 2.828,0.899 -0.572,0.754 -0.996,1.775 -1.277,3.081 -0.447,3.423 -1.09,6.087 -1.951,7.991 l 0.678,0.872 c 1.564,-2.143 2.631,-4.969 3.223,-8.449 0.346,-2.285 1.426,-3.201 3.223,-2.734 1.117,0.242 1.803,1.059 2.074,2.442 -1.121,-0.105 -2.037,0.05 -2.758,0.454 -0.738,0.414 -1.289,1.17 -1.68,2.287 -0.396,1.119 -0.455,2.206 -0.188,3.244 0.299,1.395 0.215,2.501 -0.236,3.29 -3.549,1.79 -4.939,4.165 -4.152,7.145 l 0.23,1.229 0.938,0.25 c -0.203,-1.013 -0.08,-2.082 0.375,-3.205 0.273,-1.1 1.611,-2.223 4.027,-3.379 l 0.338,-0.164 0.17,-0.265 c 1.242,-1.757 1.305,-3.582 0.215,-5.46 -0.477,-1.044 -0.303,-1.995 0.535,-2.847 1.229,-0.815 2.504,-0.63 3.791,0.548 1.209,1.862 1.342,4.419 0.396,7.694 -0.01,0.009 -0.004,0.019 -0.004,0.037 -1.957,5.942 -4.938,10.025 -8.928,12.251 0.07,0.667 0.115,1.154 0.129,1.494 6.033,-2.824 9.748,-7.743 11.113,-14.748 0.6,-4.253 -0.031,-7.375 -1.898,-9.344 -0.299,-2.378 -1.289,-3.942 -2.998,-4.666 -0.824,-0.356 -1.953,-0.405 -3.375,-0.161 -1.377,-1.716 -3.156,-2.325 -5.359,-1.813 -1.838,0.562 -2.914,1.993 -3.238,4.291 -0.125,3.234 -0.713,5.667 -1.752,7.306 -0.633,0.312 -1.203,0.68 -1.701,1.103 -1.371,-0.705 -2.6,-1.136 -3.701,-1.308 -1.098,-0.172 -2.184,-0.151 -3.285,0.043 -2.693,0.726 -4.08,2.364 -4.172,4.911 0,2.434 0.998,4.441 2.988,6.024 l 3.275,0.094 c 0.588,0.2 1.215,0.857 1.877,1.98 0.535,0.915 1.207,1.927 2.006,3.035 0.41,-0.259 0.92,-0.591 1.539,-0.976 -0.754,-1.038 -1.455,-2.296 -2.107,-3.753 -0.641,-1.483 -1.264,-2.326 -1.859,-2.521 -0.631,-0.19 -0.914,-0.267 -0.842,-0.231 l -2.783,0.071 0,0 z"
         id="path1581" />
      <path
         inkscape:connector-curvature="0"
         style="fill:#f18900"
         d="m 939.441,612.814 c 0.244,1.37 0.938,2.466 2.092,3.282 l 2.783,-0.07 c -0.072,-0.035 0.211,0.041 0.842,0.231 0.596,0.193 1.219,1.038 1.859,2.521 0.652,1.457 1.354,2.713 2.107,3.753 0.777,1.021 1.748,2.012 2.916,2.973 1.838,0.353 3.721,0.275 5.637,-0.238 3.99,-2.226 6.971,-6.309 8.928,-12.251 0,-0.019 -0.006,-0.028 0.004,-0.037 0.945,-3.275 0.812,-5.832 -0.396,-7.694 -1.287,-1.178 -2.562,-1.363 -3.791,-0.548 -0.838,0.852 -1.012,1.803 -0.535,2.847 1.09,1.878 1.027,3.703 -0.215,5.46 l -0.17,0.265 -0.338,0.164 c -2.416,1.156 -3.754,2.277 -4.027,3.379 -0.455,1.123 -0.578,2.192 -0.375,3.201 l -0.938,-0.246 -0.23,-1.229 c -0.787,-2.979 0.604,-5.354 4.152,-7.145 0.451,-0.789 0.535,-1.896 0.236,-3.29 -0.268,-1.038 -0.209,-2.125 0.188,-3.244 0.391,-1.117 0.941,-1.873 1.68,-2.287 0.721,-0.408 1.637,-0.56 2.758,-0.454 -0.271,-1.384 -0.957,-2.2 -2.074,-2.442 -1.797,-0.467 -2.877,0.449 -3.227,2.734 -0.588,3.48 -1.654,6.307 -3.219,8.449 l -0.678,-0.872 c 0.861,-1.904 1.504,-4.568 1.951,-7.991 0.281,-1.306 0.705,-2.327 1.277,-3.081 -0.877,-0.972 -1.822,-1.264 -2.828,-0.899 -1.307,0.605 -1.885,1.714 -1.756,3.354 0.084,2.462 -0.77,5.207 -2.568,8.209 -1.719,0.831 -3.092,1.779 -4.113,2.853 l -1.074,-0.085 c 0.135,-0.608 0.332,-1.177 0.619,-1.688 -1.861,-0.953 -3.588,-1.216 -5.195,-0.81 -1.539,0.41 -2.305,1.396 -2.282,2.926 l 0,0 z"
         id="path1583" />
    </g>
  </g>
</svg>
