<?xml version="1.0" encoding="UTF-8" standalone="no"?>
<!-- Created with Inkscape (http://www.inkscape.org/) -->

<svg
   xmlns:dc="http://purl.org/dc/elements/1.1/"
   xmlns:cc="http://creativecommons.org/ns#"
   xmlns:rdf="http://www.w3.org/1999/02/22-rdf-syntax-ns#"
   xmlns:svg="http://www.w3.org/2000/svg"
   xmlns="http://www.w3.org/2000/svg"
   xmlns:sodipodi="http://sodipodi.sourceforge.net/DTD/sodipodi-0.dtd"
   xmlns:inkscape="http://www.inkscape.org/namespaces/inkscape"
   width="184.375"
   height="175.21286"
   id="svg5696"
   version="1.1"
   inkscape:version="0.48.4 r9939"
   sodipodi:docname="zoe1.svg">
  <defs
     id="defs5698">
    <clipPath
       id="SVGID_2_">
      <rect
         height="88.862999"
         width="111.498"
         y="518.96198"
         x="382.04999"
         id="use1087" />
    </clipPath>
    <clipPath
       id="SVGID_4_">
      <rect
         height="41.314999"
         width="49.584999"
         y="525.19397"
         x="389.84698"
         id="use1111" />
    </clipPath>
  </defs>
  <sodipodi:namedview
     id="base"
     pagecolor="#ffffff"
     bordercolor="#666666"
     borderopacity="1.0"
     inkscape:pageopacity="0.0"
     inkscape:pageshadow="2"
     inkscape:zoom="0.77472527"
     inkscape:cx="18.958757"
     inkscape:cy="223.57471"
     inkscape:current-layer="layer1"
     inkscape:document-units="px"
     showgrid="false"
     inkscape:window-width="763"
     inkscape:window-height="591"
     inkscape:window-x="592"
     inkscape:window-y="97"
     inkscape:window-maximized="0"
     fit-margin-top="0"
     fit-margin-left="0"
     fit-margin-right="0"
     fit-margin-bottom="0" />
  <metadata
     id="metadata5701">
    <rdf:RDF>
      <cc:Work
         rdf:about="">
        <dc:format>image/svg+xml</dc:format>
        <dc:type
           rdf:resource="http://purl.org/dc/dcmitype/StillImage" />
        <dc:title></dc:title>
      </cc:Work>
    </rdf:RDF>
  </metadata>
  <g
     id="layer1"
     inkscape:label="Layer 1"
     inkscape:groupmode="layer"
     transform="translate(-298.98454,-133.46822)">
    <g
       transform="translate(-14.202963,84.583392)"
       id="g157">
      <path
         inkscape:connector-curvature="0"
         style="fill:#eda1c1"
         d="m 403.567,179.5 7.204,3.985 -15.125,27.562 c -5.697,0.472 -8.734,-1.479 -9.105,-5.884 l 17.026,-25.663 0,0 z"
         id="path159" />
      <path
         inkscape:connector-curvature="0"
         style="fill:none;stroke:#df5d91;stroke-width:1.34070003;stroke-linecap:round;stroke-miterlimit:10"
         d="m 410.771,183.486 -15.125,27.562 c -5.697,0.472 -8.734,-1.479 -9.105,-5.884 l 17.026,-25.663 7.204,3.985 0,0 z"
         id="path161" />
      <path
         inkscape:connector-curvature="0"
         style="fill:#df5d91"
         d="m 367.614,204.086 c 1.674,-0.564 3.5,-0.968 5.506,-1.186 1.412,2.126 2.451,4.453 3.09,6.971 h 5.208 c -0.436,-1.721 -1.065,-3.34 -1.881,-4.889 -0.268,-0.52 -0.701,-1.272 -1.307,-2.255 3.044,0.059 6.076,0.334 9.099,0.824 0.991,1.896 1.783,3.991 2.387,6.321 h 7.174 c -0.318,2.646 -0.649,5.45 -1,8.414 -16.15,2.416 -26.384,3.022 -30.695,1.822 -4.322,-1.228 -6.248,-3.773 -5.758,-7.664 0.489,-3.89 3.222,-6.679 8.177,-8.358 l 0,0 z"
         id="path163" />
      <path
         inkscape:connector-curvature="0"
         style="fill:#eda1c1"
         d="m 373.12,202.9 c 1.737,-0.144 3.437,-0.201 5.11,-0.173 0.605,0.983 1.039,1.736 1.307,2.255 0.816,1.549 1.446,3.168 1.881,4.889 h -5.208 c -0.639,-2.518 -1.679,-4.845 -3.09,-6.971 l 0,0 z"
         id="path165" />
      <path
         inkscape:connector-curvature="0"
         style="fill:none;stroke:#970f45;stroke-width:1.36689997;stroke-linecap:round;stroke-miterlimit:10"
         d="m 378.23,202.727 c 3.044,0.059 6.076,0.334 9.099,0.824 0.991,1.896 1.783,3.991 2.387,6.321 h 7.174 c -0.318,2.646 -0.649,5.45 -1,8.414 -16.15,2.416 -26.384,3.022 -30.695,1.822 -4.322,-1.228 -6.248,-3.773 -5.758,-7.664 0.49,-3.889 3.223,-6.679 8.178,-8.357 1.674,-0.564 3.5,-0.968 5.506,-1.186 m 5.109,-0.174 c -1.674,-0.027 -3.373,0.029 -5.11,0.173 m 0,0 c 1.412,2.126 2.451,4.453 3.09,6.971 h 5.208 c -0.436,-1.721 -1.065,-3.34 -1.881,-4.889 -0.268,-0.52 -0.701,-1.272 -1.307,-2.255"
         id="path167" />
      <path
         inkscape:connector-curvature="0"
         style="fill:#eda1c1"
         d="m 432.961,182.507 -8.689,0.385 -4.24,29.987 c 4.602,2.805 8.429,2.41 11.507,-1.208 l 1.422,-29.164 0,0 z"
         id="path169" />
      <path
         inkscape:connector-curvature="0"
         style="fill:none;stroke:#df5d91;stroke-width:1.21800005;stroke-linecap:round;stroke-miterlimit:10"
         d="m 424.272,182.892 -4.24,29.987 c 4.602,2.805 8.429,2.41 11.507,-1.208 l 1.422,-29.164 -8.689,0.385 0,0 z"
         id="path171" />
      <path
         inkscape:connector-curvature="0"
         style="fill:#df5d91"
         d="m 450.963,206.874 c -1.512,-0.565 -3.225,-0.968 -5.167,-1.186 -2.022,2.126 -3.73,4.453 -5.091,6.971 h -5.209 c 0.927,-1.72 2.025,-3.339 3.283,-4.889 0.421,-0.52 1.069,-1.272 1.956,-2.256 -3.059,0.06 -6.169,0.335 -9.333,0.825 -1.534,1.894 -2.931,3.99 -4.204,6.32 h -7.173 c -0.447,2.646 -0.919,5.45 -1.419,8.414 15.455,2.416 25.521,3.022 30.174,1.823 4.673,-1.229 7.332,-3.773 7.958,-7.665 0.627,-3.89 -1.305,-6.68 -5.775,-8.357 l 0,0 z"
         id="path173" />
      <path
         inkscape:connector-curvature="0"
         style="fill:#eda1c1"
         d="m 445.796,205.688 c -1.695,-0.144 -3.38,-0.201 -5.062,-0.174 -0.887,0.984 -1.535,1.736 -1.956,2.256 -1.257,1.55 -2.355,3.169 -3.283,4.889 h 5.209 c 1.362,-2.518 3.069,-4.845 5.092,-6.971 l 0,0 z"
         id="path175" />
      <path
         inkscape:connector-curvature="0"
         style="fill:none;stroke:#970f45;stroke-width:1.18470001;stroke-linecap:round;stroke-miterlimit:10"
         d="m 440.734,205.514 c -3.059,0.06 -6.169,0.335 -9.333,0.825 -1.534,1.894 -2.931,3.99 -4.204,6.32 h -7.173 c -0.447,2.646 -0.919,5.45 -1.419,8.414 15.455,2.416 25.521,3.022 30.174,1.823 4.673,-1.229 7.332,-3.773 7.958,-7.665 0.628,-3.889 -1.305,-6.679 -5.774,-8.357 -1.512,-0.565 -3.225,-0.968 -5.167,-1.186 m -5.062,-0.174 c 1.682,-0.027 3.367,0.03 5.062,0.174 m 0,0 c -2.022,2.126 -3.73,4.453 -5.091,6.971 h -5.209 c 0.927,-1.72 2.025,-3.339 3.283,-4.889 0.421,-0.52 1.069,-1.272 1.956,-2.256"
         id="path177" />
      <path
         inkscape:connector-curvature="0"
         style="fill:#f18900"
         d="m 422.227,134.539 c -9.08,-0.779 -17.632,0.833 -25.689,4.835 l 2.396,12.745 6.447,3.921 14.877,-2.799 4.371,-5.941 -2.402,-12.761 0,0 z"
         id="path179" />
      <path
         inkscape:connector-curvature="0"
         style="fill:none;stroke:#d04215;stroke-width:1.28830004;stroke-linecap:square;stroke-miterlimit:10"
         d="m 398.933,152.119 -2.396,-12.745 c 8.058,-4.002 16.609,-5.614 25.689,-4.835 l 2.401,12.761"
         id="path181" />
      <path
         inkscape:connector-curvature="0"
         style="fill:#eda1c1"
         d="m 435.829,159.986 c -3.526,-5.24 -6.116,-10.434 -7.759,-15.613 -3.362,2.696 -7.342,4.951 -11.97,6.771 -4.64,1.824 -11.586,2.604 -20.854,2.327 0.981,4.9 1.148,10.432 0.48,16.61 -0.222,2.844 -0.351,5.352 -0.394,7.494 -0.403,6.275 1.68,11.12 6.271,14.54 14.045,1.476 27.21,-1.839 39.486,-9.938 2.423,-5.187 1.962,-10.438 -1.362,-15.776 -1.053,-1.868 -2.353,-4.016 -3.898,-6.415 l 0,0 z"
         id="path183" />
      <path
         inkscape:connector-curvature="0"
         style="fill:none;stroke:#df5d91;stroke-width:1.28830004;stroke-linecap:square;stroke-miterlimit:10"
         d="m 428.069,144.374 c -3.362,2.696 -7.342,4.951 -11.97,6.771 -4.64,1.824 -11.586,2.604 -20.854,2.327 0.981,4.9 1.148,10.432 0.48,16.61 -0.222,2.844 -0.351,5.352 -0.394,7.494 -0.403,6.275 1.68,11.12 6.271,14.54 14.045,1.476 27.21,-1.839 39.486,-9.938 2.423,-5.187 1.962,-10.438 -1.362,-15.776 -1.052,-1.867 -2.353,-4.016 -3.897,-6.414 -3.527,-5.241 -6.117,-10.436 -7.76,-15.614 l 0,0 z"
         id="path185" />
      <path
         inkscape:connector-curvature="0"
         style="fill:#f18900"
         d="m 423.365,155.766 -3.924,-9.686 c 15.179,0.329 27.072,-3.161 35.66,-10.452 4.125,1.993 5.927,5.238 5.392,9.726 -9.446,6.825 -21.819,10.297 -37.128,10.412 l 0,0 z"
         id="path187" />
      <path
         inkscape:connector-curvature="0"
         style="fill:none;stroke:#d04215;stroke-width:1.28830004;stroke-linecap:square;stroke-miterlimit:10"
         d="m 419.44,146.08 c 15.179,0.331 27.072,-3.161 35.66,-10.452 4.125,1.993 5.927,5.238 5.392,9.726 -9.445,6.824 -21.818,10.297 -37.127,10.411 l -3.925,-9.685 0,0 z"
         id="path189" />
      <path
         inkscape:connector-curvature="0"
         style="fill:#eda1c1"
         d="m 441.897,143.017 c 1.789,2.415 2.902,5.665 3.304,9.752 -6.538,1.975 -13.805,2.972 -21.836,2.997 l -3.924,-9.686 c 8.871,-0.14 16.351,-1.162 22.456,-3.063 l 0,0 z"
         id="path191" />
      <path
         inkscape:connector-curvature="0"
         style="fill:none;stroke:#df5d91;stroke-width:1.28830004;stroke-linecap:square;stroke-miterlimit:10"
         d="m 441.897,143.017 c -6.104,1.902 -13.585,2.924 -22.457,3.063 l 3.924,9.686 c 8.031,-0.025 15.298,-1.022 21.836,-2.997 -0.401,-4.088 -1.514,-7.337 -3.303,-9.752 l 0,0 z"
         id="path193" />
      <polygon
         style="fill:#eda1c1"
         points="419.455,154.669 417.098,147.292 417.098,147.292 421.2,147.206 424.183,154.615 "
         id="polygon195" />
      <path
         inkscape:connector-curvature="0"
         style="fill:#f18900"
         d="m 404.468,156.835 -3.093,-9.98 c -12.833,7.302 -25.431,14.386 -37.815,21.245 -1.005,4.663 0.664,7.532 4.988,8.582 10.981,-6.344 22.949,-12.951 35.92,-19.847 l 0,0 z"
         id="path197" />
      <path
         inkscape:connector-curvature="0"
         style="fill:none;stroke:#d04215;stroke-width:1.28830004;stroke-linecap:square;stroke-miterlimit:10"
         d="m 401.375,146.854 c -12.833,7.302 -25.431,14.386 -37.815,21.245 -1.005,4.663 0.664,7.532 4.988,8.582 10.981,-6.343 22.949,-12.949 35.92,-19.846 l -3.093,-9.981 0,0 z"
         id="path199" />
      <path
         inkscape:connector-curvature="0"
         style="fill:#eda1c1"
         d="m 380.581,158.615 c 2.708,2.454 4.153,5.399 4.32,8.842 l 19.567,-10.622 -3.093,-9.98 -20.794,11.76 0,0 z"
         id="path201" />
      <path
         inkscape:connector-curvature="0"
         style="fill:none;stroke:#df5d91;stroke-width:1.28830004;stroke-linecap:square;stroke-miterlimit:10"
         d="m 380.581,158.615 20.794,-11.76 3.093,9.98 -19.567,10.62 c -0.167,-3.441 -1.612,-6.387 -4.32,-8.84 l 0,0 z"
         id="path203" />
      <polygon
         style="fill:#eda1c1"
         points="405.697,154.971 403.37,146.948 403.37,146.948 400.504,148.668 402.85,156.419 "
         id="polygon205" />
      <path
         inkscape:connector-curvature="0"
         style="fill:#eda1c1"
         d="m 434.837,160.667 -0.015,-0.01 c -3.224,-4.81 -5.675,-9.562 -7.354,-14.283 -3.162,2.302 -6.795,4.276 -10.935,5.899 -4.491,1.771 -11.1,2.586 -19.83,2.441 0.763,4.626 0.828,9.798 0.221,15.51 l 0.007,-0.033 c -0.232,2.818 -0.356,5.281 -0.374,7.402 l -0.012,0.064 c -0.376,5.685 1.475,10.124 5.535,13.293 13.521,1.337 26.195,-1.852 38.04,-9.59 2.077,-4.713 1.594,-9.483 -1.425,-14.313 l -0.028,-0.054 c -1.033,-1.855 -2.309,-3.964 -3.83,-6.326 l 0,0 z"
         id="path207" />
      <path
         inkscape:connector-curvature="0"
         style="fill:#df5d91"
         d="m 415.949,196.365 c 0.332,0.226 0.688,0.433 1.07,0.608 3.56,1.807 6.724,1.213 9.526,-1.77 0.911,-1.074 1.47,-1.702 1.667,-1.898 0.857,-0.807 1.694,-1.263 2.484,-1.349 1.709,-0.186 3.304,0.28 4.794,1.411 0.776,0.598 1.355,0.985 1.767,1.159 0.732,0.312 1.575,0.423 2.51,0.322 0.847,-0.094 1.614,-0.396 2.299,-0.906 0.404,-0.322 0.938,-0.874 1.622,-1.662 0.659,-0.785 1.193,-1.339 1.609,-1.66 0.668,-0.522 1.421,-0.824 2.254,-0.917 1.223,-0.134 2.665,0.42 4.34,1.648 0.856,0.649 1.485,1.061 1.867,1.235 0.706,0.374 1.396,0.517 2.04,0.446 1.796,-0.196 3.046,-0.873 3.782,-2.013 0.272,-0.423 0.623,-1.305 1.074,-2.648 l -14.521,-10.803 c -18.29,2.831 -35.889,4.569 -52.791,5.198 l -12.194,14.281 c 0.732,1.243 1.267,2.027 1.625,2.381 0.965,0.955 2.329,1.344 4.127,1.148 0.644,-0.072 1.282,-0.358 1.896,-0.879 0.337,-0.252 0.857,-0.792 1.556,-1.609 1.371,-1.56 2.658,-2.413 3.88,-2.547 0.818,-0.092 1.62,0.04 2.399,0.406 0.464,0.225 1.104,0.649 1.929,1.272 0.836,0.622 1.48,1.045 1.941,1.271 0.781,0.351 1.594,0.48 2.445,0.386 0.93,-0.102 1.728,-0.391 2.376,-0.857 0.352,-0.255 0.831,-0.76 1.465,-1.512 1.223,-1.428 2.678,-2.228 4.387,-2.414 0.792,-0.086 1.708,0.176 2.717,0.777 0.241,0.151 0.935,0.644 2.058,1.495 l 0,0 z"
         id="path209" />
      <path
         inkscape:connector-curvature="0"
         style="fill:none;stroke:#970f45;stroke-width:1.28820002;stroke-linecap:round;stroke-miterlimit:10"
         d="m 415.949,196.365 c -1.124,-0.852 -1.817,-1.344 -2.055,-1.493 -1.009,-0.601 -1.925,-0.863 -2.717,-0.777 -1.708,0.186 -3.164,0.985 -4.387,2.414 -0.634,0.752 -1.114,1.257 -1.465,1.512 -0.649,0.466 -1.446,0.755 -2.376,0.857 -0.851,0.094 -1.664,-0.035 -2.445,-0.386 -0.461,-0.226 -1.105,-0.649 -1.941,-1.271 -0.825,-0.623 -1.465,-1.047 -1.929,-1.272 -0.779,-0.366 -1.581,-0.498 -2.399,-0.406 -1.223,0.134 -2.509,0.987 -3.88,2.547 -0.699,0.817 -1.219,1.357 -1.556,1.609 -0.614,0.521 -1.252,0.807 -1.896,0.879 -1.798,0.196 -3.162,-0.193 -4.127,-1.148 -0.359,-0.354 -0.893,-1.139 -1.625,-2.381 l 12.194,-14.281 c 16.902,-0.629 34.501,-2.367 52.791,-5.198 l 14.521,10.803 c -0.451,1.344 -0.802,2.226 -1.074,2.648 -0.736,1.141 -1.986,1.817 -3.782,2.013 -0.644,0.071 -1.334,-0.072 -2.04,-0.446 -0.382,-0.175 -1.011,-0.586 -1.867,-1.235 -1.675,-1.228 -3.117,-1.782 -4.34,-1.648 -0.833,0.092 -1.586,0.392 -2.254,0.917 -0.416,0.321 -0.95,0.875 -1.609,1.66 -0.684,0.788 -1.217,1.34 -1.62,1.662 -0.687,0.51 -1.454,0.812 -2.301,0.906 -0.936,0.102 -1.778,-0.01 -2.51,-0.322 -0.412,-0.174 -0.991,-0.561 -1.767,-1.159 -1.491,-1.131 -3.085,-1.597 -4.794,-1.411 -0.791,0.086 -1.627,0.542 -2.484,1.349 -0.197,0.196 -0.756,0.824 -1.667,1.898 -2.802,2.983 -5.966,3.577 -9.526,1.77 -0.384,-0.177 -0.741,-0.384 -1.073,-0.61 l 0,0 z"
         id="path211" />
      <path
         inkscape:connector-curvature="0"
         style="fill:#df5d91"
         d="m 425.292,182.703 c 0.845,-0.778 1.654,-1.213 2.447,-1.302 1.665,-0.181 3.242,0.272 4.713,1.346 0.761,0.572 1.335,0.931 1.735,1.104 0.716,0.299 1.541,0.398 2.462,0.297 0.817,-0.089 1.569,-0.389 2.243,-0.884 0.401,-0.307 0.941,-0.844 1.599,-1.602 0.659,-0.755 1.198,-1.294 1.586,-1.584 0.672,-0.509 1.409,-0.81 2.23,-0.898 1.195,-0.131 2.615,0.398 4.259,1.571 0.836,0.619 1.45,1.018 1.831,1.194 0.694,0.346 1.349,0.492 1.996,0.423 0.044,-0.005 0.084,-0.01 0.127,-0.015 0.935,-0.117 1.724,-0.35 2.34,-0.721 0.532,-0.307 0.955,-0.715 1.261,-1.2 0.278,-0.409 0.635,-1.278 1.055,-2.589 l -15.437,-8.563 c -15.654,6.978 -31.167,8.635 -46.523,4.964 l -12.947,11.8 c 0.698,1.19 1.232,1.96 1.58,2.303 0.421,0.402 0.92,0.711 1.493,0.895 0.678,0.218 1.488,0.29 2.394,0.206 0.056,-0.008 0.114,-0.012 0.188,-0.023 0.644,-0.069 1.253,-0.354 1.857,-0.841 0.331,-0.255 0.841,-0.776 1.531,-1.565 1.345,-1.5 2.623,-2.324 3.815,-2.456 0.818,-0.089 1.605,0.045 2.357,0.399 0.456,0.196 1.1,0.606 1.906,1.199 0.807,0.598 1.446,1.006 1.907,1.219 0.761,0.336 1.563,0.469 2.38,0.379 0.921,-0.102 1.709,-0.376 2.342,-0.825 0.348,-0.255 0.836,-0.73 1.456,-1.453 1.202,-1.369 2.644,-2.151 4.31,-2.334 0.79,-0.086 1.675,0.166 2.671,0.74 0.261,0.16 1.099,0.752 2.504,1.777 2.008,1.453 4.105,1.223 6.269,-0.686 1.15,-1.302 1.835,-2.061 2.063,-2.275 l 0,0 z"
         id="path213" />
      <path
         inkscape:connector-curvature="0"
         style="fill:none;stroke:#970f45;stroke-width:1.28820002;stroke-linecap:round;stroke-miterlimit:10"
         d="m 425.292,182.703 c -0.228,0.214 -0.913,0.973 -2.063,2.278 -2.164,1.909 -4.261,2.139 -6.269,0.686 -1.405,-1.025 -2.243,-1.617 -2.504,-1.777 -0.996,-0.574 -1.882,-0.826 -2.669,-0.74 -1.668,0.183 -3.11,0.965 -4.312,2.334 -0.62,0.723 -1.107,1.196 -1.456,1.453 -0.633,0.448 -1.421,0.723 -2.342,0.825 -0.817,0.09 -1.619,-0.042 -2.38,-0.379 -0.461,-0.213 -1.1,-0.621 -1.907,-1.219 -0.807,-0.593 -1.45,-1.003 -1.906,-1.203 -0.751,-0.351 -1.539,-0.485 -2.357,-0.396 -1.192,0.131 -2.47,0.956 -3.815,2.456 -0.689,0.789 -1.2,1.307 -1.531,1.565 -0.604,0.485 -1.213,0.772 -1.857,0.841 -0.074,0.008 -0.131,0.015 -0.188,0.021 -0.906,0.086 -1.716,0.014 -2.394,-0.204 -0.572,-0.184 -1.071,-0.493 -1.493,-0.898 -0.347,-0.339 -0.881,-1.109 -1.58,-2.299 l 12.947,-11.803 c 15.356,3.674 30.869,2.017 46.523,-4.961 l 15.437,8.563 c -0.42,1.312 -0.776,2.181 -1.055,2.589 -0.306,0.483 -0.729,0.894 -1.261,1.2 -0.616,0.371 -1.405,0.604 -2.34,0.721 -0.043,0.004 -0.083,0.009 -0.127,0.012 -0.647,0.072 -1.302,-0.074 -1.996,-0.42 -0.381,-0.177 -0.995,-0.575 -1.831,-1.196 -1.644,-1.171 -3.063,-1.7 -4.259,-1.569 -0.821,0.089 -1.558,0.389 -2.23,0.898 -0.389,0.29 -0.927,0.829 -1.586,1.584 -0.658,0.756 -1.198,1.295 -1.599,1.6 -0.674,0.497 -1.426,0.796 -2.243,0.886 -0.921,0.101 -1.746,0.002 -2.462,-0.297 -0.4,-0.173 -0.974,-0.532 -1.735,-1.104 -1.471,-1.074 -3.049,-1.527 -4.713,-1.346 -0.793,0.084 -1.602,0.521 -2.447,1.299 l 0,0 z"
         id="path215" />
      <path
         inkscape:connector-curvature="0"
         style="fill:#d04215"
         d="m 452.542,125.174 c 0.201,-1.22 1.123,-2.161 2.739,-2.826 1.466,-0.337 2.676,-0.031 3.612,0.948 1.088,1.31 1.771,3.334 2.06,6.106 l -0.815,1.164 c 0.577,0.446 1.434,0.298 2.558,-0.411 3.387,-2.912 6.597,-5.179 9.624,-6.79 2.803,-1.033 4.769,-0.305 5.902,2.178 0.267,1.069 0.035,2.248 -0.737,3.549 -4.96,1.115 -8.416,2.583 -10.343,4.429 0.056,0.931 0.16,1.322 0.307,1.208 3.327,-1.624 6.423,-2.53 9.263,-2.716 1.385,-0.03 2.586,0.26 3.598,0.863 0.992,0.614 1.57,1.506 1.717,2.654 0.143,1.163 -0.071,1.993 -0.645,2.505 -0.789,0.542 -1.887,0.938 -3.291,1.19 -3.326,-0.721 -6.245,-0.532 -8.754,0.545 l 0.447,1.413 c 3.769,-0.488 6.211,-0.421 7.33,0.226 1.38,0.77 2.129,1.755 2.24,2.953 0.111,1.197 -0.25,2.141 -1.074,2.824 -1.785,0.958 -4.904,0.933 -9.339,-0.042 -4.938,1.354 -8.65,0.799 -11.137,-1.659 l -1.312,1.181 c 1.423,1.542 3.056,2.498 4.902,2.886 2.075,0.429 4.754,0.275 8.021,-0.442 1.995,0.534 3.851,0.88 5.585,1.029 1.791,0.166 3.246,-0.114 4.387,-0.849 l 0.074,-0.034 c 0.035,-0.063 0.058,-0.087 0.104,-0.084 l 0.012,-0.072 c 0.858,-0.654 1.453,-1.344 1.789,-2.084 0.357,-0.762 0.47,-1.693 0.366,-2.792 -0.124,-1.126 -0.475,-2.102 -1.065,-2.921 0.877,-0.248 1.58,-0.604 2.096,-1.045 1.336,-0.988 1.891,-2.572 1.643,-4.775 -0.262,-2.222 -1.252,-3.79 -2.962,-4.715 -0.562,-0.315 -1.097,-0.543 -1.595,-0.648 0.037,-0.065 0.117,-0.188 0.24,-0.359 0.838,-1.263 0.951,-2.917 0.366,-4.966 l -0.084,-0.141 c -0.827,-2.059 -1.995,-3.369 -3.491,-3.905 -1.469,-0.528 -3.365,-0.364 -5.678,0.478 l -0.133,0.071 c -1.511,0.788 -2.856,1.644 -4.031,2.567 -1.24,0.978 -2.647,2.29 -4.218,3.948 -0.148,-1.519 -0.335,-2.716 -0.585,-3.594 -0.287,-1.015 -0.676,-1.79 -1.192,-2.319 -1.571,-1.797 -3.673,-2.403 -6.347,-1.805 l -0.333,0.109 c -2.701,1.1 -4.158,2.783 -4.354,5.035 -0.16,0.975 -0.061,1.998 0.276,3.047 0.33,1.062 0.975,2.288 1.928,3.671 -0.16,1.312 -0.22,2.43 -0.147,3.366 0.066,1.028 0.27,1.733 0.597,2.147 l 1.435,0.069 c -0.321,-1.213 -0.068,-3.277 0.769,-6.161 -1.667,-2.723 -2.429,-4.793 -2.325,-6.204 l 0,0 z"
         id="path217" />
      <path
         inkscape:connector-curvature="0"
         style="fill:#f18900"
         d="m 455.281,122.348 c -1.616,0.665 -2.538,1.606 -2.739,2.826 -0.104,1.411 0.658,3.478 2.319,6.204 -0.834,2.884 -1.087,4.948 -0.766,6.161 0.6,1.931 1.104,3.396 1.527,4.384 0.622,1.448 1.355,2.644 2.181,3.565 2.486,2.458 6.199,3.013 11.137,1.659 4.435,0.975 7.554,1 9.339,0.042 0.824,-0.684 1.186,-1.627 1.074,-2.824 -0.111,-1.198 -0.86,-2.184 -2.24,-2.953 -1.119,-0.647 -3.562,-0.714 -7.33,-0.226 l -0.447,-1.413 c 2.509,-1.077 5.425,-1.266 8.754,-0.545 1.404,-0.252 2.502,-0.649 3.291,-1.19 0.573,-0.512 0.787,-1.342 0.645,-2.505 -0.146,-1.148 -0.725,-2.04 -1.717,-2.654 -1.012,-0.603 -2.213,-0.893 -3.598,-0.863 -2.84,0.186 -5.936,1.092 -9.263,2.716 -0.146,0.114 -0.251,-0.278 -0.307,-1.208 1.927,-1.847 5.383,-3.314 10.343,-4.429 0.772,-1.301 1.004,-2.48 0.737,-3.549 -1.134,-2.483 -3.1,-3.211 -5.902,-2.178 -3.027,1.611 -6.237,3.878 -9.624,6.79 -1.124,0.708 -1.98,0.856 -2.558,0.411 l 0.815,-1.164 c -0.288,-2.772 -0.972,-4.797 -2.06,-6.109 -0.935,-0.979 -2.145,-1.287 -3.611,-0.948 l 0,0 z"
         id="path219" />
      <path
         inkscape:connector-curvature="0"
         style="fill:#f18900"
         d="m 422.386,71.547 c -5.401,-1.005 -10.833,-1.334 -16.271,-0.992 -5.398,0.321 -10.69,1.314 -15.904,2.997 -5.283,1.721 -10.298,3.917 -15.025,6.585 -1.738,0.979 -4.431,2.422 -8.081,4.362 -2.594,-4.539 -6.386,-6.579 -11.362,-6.125 -8.491,0.755 -14.224,-0.656 -17.199,-4.208 -0.362,5.958 2.386,10.837 8.252,14.639 -6.05,-1.163 -10.228,0.102 -12.541,3.813 -3.277,5.215 -8.104,6.319 -14.446,3.327 1.055,6.495 6.263,8.87 15.615,7.151 -3.223,6.142 -9.937,9.602 -20.146,10.369 7.313,4.337 15.457,4.783 24.463,1.362 -1.926,2.388 -3.263,4.48 -4.011,6.275 -1.956,4.743 -6.02,7.585 -12.208,8.552 7.802,3.525 15.377,2.589 22.744,-2.815 -1.535,5.795 -5.055,9.335 -10.555,10.635 5.354,3.871 12.09,4.04 20.175,0.51 0.812,0.604 1.664,1.189 2.559,1.755 7.308,4.627 16.601,6.785 27.869,6.486 16.22,-0.342 32.206,-2.417 47.945,-6.224 9.487,-2.233 17.055,-5.722 22.673,-10.451 2.331,-1.95 4.318,-3.998 5.936,-6.144 8.631,1.344 15.026,-0.572 19.155,-5.728 -5.644,0.21 -9.978,-2.267 -13,-7.446 8.539,3.25 16.092,2.142 22.674,-3.332 -6.217,0.712 -10.895,-0.945 -14.04,-5 -1.198,-1.529 -3.042,-3.19 -5.528,-4.985 9.527,0.913 17.375,-1.812 23.504,-8.154 -10.232,2.201 -17.725,0.762 -22.465,-4.299 9.475,-0.83 13.865,-4.504 13.152,-11.046 -5.316,4.573 -10.262,4.791 -14.807,0.634 -3.218,-2.966 -7.579,-3.075 -13.105,-0.345 4.65,-5.224 6.001,-10.659 4.067,-16.305 -1.924,4.213 -6.963,7.097 -15.112,8.651 -5.899,1.252 -9.551,4.461 -10.966,9.627 -4.798,-1.918 -9.464,-3.302 -14.011,-4.131 l 0,0 z"
         id="path221" />
      <path
         inkscape:connector-curvature="0"
         style="fill:none;stroke:#d04215;stroke-width:1.28820002;stroke-linecap:square;stroke-miterlimit:10"
         d="m 422.386,71.547 c 4.547,0.829 9.213,2.213 14.012,4.131 1.415,-5.166 5.067,-8.375 10.966,-9.627 8.149,-1.555 13.188,-4.438 15.112,-8.651 1.931,5.646 0.583,11.082 -4.067,16.305 5.526,-2.73 9.888,-2.621 13.105,0.345 4.545,4.156 9.49,3.938 14.807,-0.634 0.713,6.542 -3.678,10.216 -13.152,11.046 4.74,5.062 12.232,6.5 22.465,4.299 -6.129,6.342 -13.977,9.067 -23.504,8.154 2.486,1.795 4.33,3.456 5.528,4.985 3.146,4.055 7.823,5.713 14.04,5 -6.582,5.474 -14.135,6.582 -22.674,3.332 3.022,5.179 7.356,7.656 13,7.446 -4.129,5.156 -10.524,7.072 -19.155,5.728 -1.617,2.146 -3.604,4.193 -5.936,6.144 -5.618,4.729 -13.187,8.218 -22.673,10.451 -15.74,3.808 -31.726,5.882 -47.945,6.224 -11.268,0.299 -20.561,-1.859 -27.869,-6.486 -0.896,-0.565 -1.748,-1.151 -2.559,-1.755 -8.085,3.53 -14.82,3.361 -20.175,-0.51 5.5,-1.3 9.021,-4.84 10.555,-10.635 -7.367,5.404 -14.942,6.34 -22.744,2.815 6.188,-0.967 10.252,-3.81 12.208,-8.552 0.748,-1.795 2.085,-3.887 4.011,-6.275 -9.009,3.42 -17.15,2.975 -24.463,-1.362 10.209,-0.767 16.92,-4.227 20.146,-10.369 -9.352,1.718 -14.561,-0.656 -15.615,-7.151 6.342,2.992 11.169,1.889 14.446,-3.327 2.312,-3.711 6.49,-4.976 12.541,-3.813 -5.866,-3.802 -8.614,-8.681 -8.252,-14.639 2.975,3.552 8.708,4.963 17.199,4.208 4.976,-0.454 8.768,1.586 11.362,6.125 3.65,-1.939 6.343,-3.382 8.081,-4.362 4.728,-2.669 9.743,-4.865 15.025,-6.585 5.214,-1.683 10.506,-2.676 15.904,-2.997 5.437,-0.342 10.869,-0.013 16.27,0.992 l 0,0 z"
         id="path223" />
      <path
         inkscape:connector-curvature="0"
         style="fill:#ab61a3"
         d="m 349.567,89.504 -0.877,2.688 c -0.175,0.534 -0.25,1.055 -0.215,1.544 l 0.298,-0.302 c 0.436,-0.438 0.871,-0.438 1.321,-0.02 l 1.316,1.297 c 0.421,0.425 0.421,0.847 0.03,1.294 0.296,-0.054 0.594,-0.138 0.896,-0.252 l 2.633,-0.941 c 1.317,-0.486 1.54,-1.216 0.679,-2.19 -0.569,-0.668 -1.307,-1.255 -2.204,-1.745 L 351.773,89 c -1.016,-1.145 -1.749,-0.972 -2.206,0.504 l 0,0 z"
         id="path225" />
      <path
         inkscape:connector-curvature="0"
         style="fill:#ab61a3"
         d="m 351.41,94.712 -1.316,-1.294 c -0.45,-0.421 -0.886,-0.421 -1.321,0.017 l -0.298,0.302 -1.012,1.027 -0.196,0.188 c -0.417,0.451 -0.415,0.888 0.035,1.31 l 1.327,1.292 c 0.357,0.376 0.743,0.425 1.129,0.138 0.049,-0.049 0.102,-0.099 0.167,-0.153 l 1.485,-1.515 c 0.015,-0.014 0.015,-0.014 0.03,-0.017 0.391,-0.448 0.391,-0.87 -0.03,-1.295 l 0,0 z"
         id="path227" />
      <path
         inkscape:connector-curvature="0"
         style="fill:#ab61a3"
         d="m 347.266,94.952 0.196,-0.188 c -0.498,-0.02 -1.013,0.064 -1.557,0.24 l -2.679,0.916 c -1.478,0.507 -1.625,1.273 -0.436,2.263 l 1.891,1.597 c 0.401,0.896 0.951,1.638 1.661,2.242 1.027,0.896 1.792,0.631 2.285,-0.792 l 0.926,-2.648 c 0.104,-0.304 0.169,-0.607 0.203,-0.889 -0.387,0.288 -0.772,0.238 -1.129,-0.138 L 347.3,96.26 c -0.448,-0.42 -0.451,-0.857 -0.034,-1.308 l 0,0 z"
         id="path229" />
      <path
         inkscape:connector-curvature="0"
         style="fill:none;stroke:#633791;stroke-width:0.96619999;stroke-linecap:round;stroke-linejoin:round;stroke-miterlimit:10"
         d="m 348.475,93.736 c -0.035,-0.489 0.04,-1.01 0.215,-1.544 l 0.877,-2.688 c 0.457,-1.476 1.19,-1.649 2.207,-0.503 l 1.671,1.877 c 0.897,0.49 1.634,1.077 2.204,1.745 0.861,0.975 0.639,1.708 -0.679,2.19 l -2.633,0.941 c -0.302,0.114 -0.6,0.198 -0.896,0.252 m -10e-4,0 c 0.391,-0.448 0.391,-0.869 -0.03,-1.294 l -1.316,-1.294 c -0.45,-0.421 -0.886,-0.421 -1.321,0.017 l -0.298,0.302 m -1.013,1.027 1.012,-1.027 m -1.012,1.027 -0.196,0.188 c -0.417,0.451 -0.415,0.888 0.035,1.31 l 1.327,1.292 c 0.357,0.376 0.743,0.425 1.129,0.138 m 0,0 c -0.034,0.282 -0.099,0.585 -0.203,0.889 l -0.926,2.652 c -0.493,1.42 -1.257,1.685 -2.285,0.789 -0.71,-0.604 -1.26,-1.346 -1.661,-2.239 l -1.891,-1.6 c -1.188,-0.99 -1.042,-1.755 0.436,-2.261 l 2.679,-0.918 c 0.544,-0.176 1.059,-0.26 1.557,-0.237 m 3.977,1.239 c -0.016,0.003 -0.016,0.003 -0.03,0.017 l -1.485,1.515 c -0.066,0.055 -0.119,0.104 -0.167,0.153"
         id="path231" />
      <path
         inkscape:connector-curvature="0"
         style="fill:#9dc517"
         d="m 455.016,75.272 1.556,2.356 c 0.312,0.468 0.524,0.951 0.619,1.434 l -0.366,-0.213 c -0.535,-0.307 -0.955,-0.191 -1.282,0.333 l -0.92,1.599 c -0.293,0.523 -0.179,0.929 0.316,1.256 -0.305,0.027 -0.609,0.024 -0.937,-0.006 l -2.783,-0.205 c -1.403,-0.116 -1.812,-0.762 -1.242,-1.933 0.378,-0.795 0.931,-1.558 1.664,-2.269 l 1.112,-2.252 c 0.676,-1.372 1.428,-1.402 2.263,-0.1 l 0,0 z"
         id="path233" />
      <path
         inkscape:connector-curvature="0"
         style="fill:#9dc517"
         d="m 454.622,80.782 0.92,-1.599 c 0.327,-0.524 0.747,-0.64 1.282,-0.333 l 0.366,0.213 1.251,0.723 0.233,0.129 c 0.525,0.322 0.644,0.743 0.318,1.27 l -0.936,1.599 c -0.243,0.456 -0.605,0.607 -1.05,0.434 -0.062,-0.034 -0.125,-0.069 -0.204,-0.103 l -1.836,-1.065 c -0.015,-0.012 -0.015,-0.012 -0.029,-0.01 -0.494,-0.329 -0.608,-0.737 -0.315,-1.258 l 0,0 z"
         id="path235" />
      <path
         inkscape:connector-curvature="0"
         style="fill:#9dc517"
         d="m 458.675,79.914 -0.233,-0.129 c 0.476,-0.153 0.992,-0.208 1.567,-0.183 l 2.819,0.173 c 1.562,0.094 1.903,0.793 1.025,2.064 l -1.401,2.042 c -0.147,0.968 -0.48,1.829 -1.005,2.601 -0.751,1.136 -1.559,1.084 -2.415,-0.156 l -1.595,-2.307 c -0.183,-0.268 -0.321,-0.542 -0.43,-0.805 0.444,0.173 0.807,0.025 1.05,-0.434 l 0.936,-1.599 c 0.325,-0.524 0.207,-0.945 -0.318,-1.267 l 0,0 z"
         id="path237" />
      <path
         inkscape:connector-curvature="0"
         style="fill:none;stroke:#388e36;stroke-width:0.96619999;stroke-linecap:round;stroke-linejoin:round;stroke-miterlimit:10"
         d="m 457.19,79.062 c -0.095,-0.483 -0.308,-0.965 -0.619,-1.434 l -1.556,-2.356 C 454.18,73.97 453.428,74 452.752,75.373 l -1.112,2.252 c -0.733,0.711 -1.286,1.473 -1.664,2.269 -0.569,1.17 -0.161,1.817 1.242,1.933 l 2.783,0.205 c 0.327,0.03 0.632,0.033 0.937,0.006 m 0,0 c -0.495,-0.327 -0.609,-0.733 -0.316,-1.256 l 0.92,-1.599 c 0.327,-0.524 0.747,-0.64 1.282,-0.333 l 0.366,0.213 m 1.251,0.722 -1.251,-0.723 m 1.251,0.723 0.233,0.129 c 0.525,0.322 0.644,0.743 0.318,1.27 l -0.936,1.599 c -0.243,0.458 -0.605,0.607 -1.05,0.434 m 0.002,-0.001 c 0.108,0.263 0.247,0.537 0.43,0.805 l 1.595,2.307 c 0.856,1.24 1.664,1.292 2.415,0.156 0.524,-0.772 0.857,-1.633 1.005,-2.601 l 1.401,-2.042 c 0.878,-1.271 0.536,-1.971 -1.025,-2.064 l -2.819,-0.173 c -0.575,-0.025 -1.092,0.03 -1.567,0.183 m -3.505,2.251 c 0.015,0 0.015,0 0.029,0.01 l 1.836,1.065 c 0.079,0.034 0.142,0.069 0.204,0.103"
         id="path239" />
      <path
         inkscape:connector-curvature="0"
         style="fill:#82110c"
         d="m 445.912,104.864 1.464,-3.847 c -17.635,12.09 -36.472,17.789 -56.463,17.123 -6.234,-0.208 -12.228,-1.045 -17.957,-2.53 -2.868,-0.708 -5.094,-1.413 -6.703,-2.113 5.293,8.839 14.184,14.231 26.71,16.154 3.916,0.594 7.955,0.807 12.12,0.639 l 5.072,-0.412 c 12.898,-1.993 22.963,-7.396 30.212,-16.21 2.262,-2.757 4.101,-5.69 5.545,-8.804 l 0,0 z"
         id="path241" />
      <path
         inkscape:connector-curvature="0"
         style="fill:#d50d18"
         d="m 417.708,115.04 c -6.73,1.83 -13.6,2.876 -20.615,3.109 0.876,1.837 1.792,3.188 2.76,4.033 1.981,1.746 4.805,2.372 8.468,1.862 3.749,-0.523 6.323,-1.877 7.734,-4.053 0.737,-1.137 1.296,-2.787 1.653,-4.951 l 0,0 z"
         id="path243" />
      <path
         inkscape:connector-curvature="0"
         style="fill:#ffffff"
         d="m 366.051,64.088 0.002,0.016 c -3.701,4.685 -5.162,9.946 -4.374,15.777 0.792,5.833 3.599,10.513 8.407,14.035 l 0.015,-0.002 c 4.802,3.568 10.208,4.936 16.244,4.122 6,-0.813 10.852,-3.57 14.545,-8.286 0.948,-1.192 1.743,-2.425 2.392,-3.678 l -3.139,-23.198 c -0.958,-1.051 -2.055,-2.041 -3.285,-2.94 l -0.002,-0.015 c -4.812,-3.535 -10.218,-4.891 -16.219,-4.077 -6.036,0.815 -10.888,3.558 -14.586,8.246 l 0,0 z"
         id="path245" />
      <path
         inkscape:connector-curvature="0"
         style="fill:#ffffff"
         d="m 402.443,59.165 v 0.015 c -0.93,1.191 -1.726,2.436 -2.386,3.708 l 3.14,23.195 c 0.97,1.034 2.063,2.01 3.282,2.911 4.814,3.564 10.238,4.934 16.239,4.121 6.02,-0.814 10.868,-3.572 14.564,-8.288 l 0.017,-0.002 c 3.698,-4.673 5.148,-9.931 4.355,-15.764 -0.786,-5.832 -3.579,-10.516 -8.391,-14.051 v -0.014 c -4.812,-3.538 -10.233,-4.892 -16.253,-4.075 -6.002,0.813 -10.868,3.555 -14.567,8.244 l 0,0 z"
         id="path247" />
      <path
         inkscape:connector-curvature="0"
         d="m 408.318,71.334 c 1.127,-1.918 2.755,-3.146 4.885,-3.683 2.143,-0.552 4.168,-0.27 6.069,0.844 1.917,1.126 3.143,2.739 3.679,4.869 0.55,2.129 0.268,4.151 -0.847,6.055 -1.123,1.916 -2.736,3.141 -4.871,3.678 -2.126,0.55 -4.148,0.271 -6.049,-0.844 -1.917,-1.099 -3.143,-2.728 -3.68,-4.871 -0.566,-2.127 -0.3,-4.147 0.814,-6.048 l 0,0 z"
         id="path249" />
      <path
         inkscape:connector-curvature="0"
         d="m 394.586,73.191 c -1.594,-1.55 -3.49,-2.299 -5.688,-2.252 -2.214,0.037 -4.088,0.846 -5.625,2.425 -1.549,1.594 -2.301,3.476 -2.253,5.673 0.036,2.199 0.842,4.073 2.422,5.61 1.599,1.549 3.48,2.302 5.673,2.252 2.198,-0.034 4.075,-0.841 5.611,-2.421 1.552,-1.567 2.305,-3.463 2.252,-5.673 -0.019,-2.201 -0.811,-4.077 -2.392,-5.614 l 0,0 z"
         id="path251" />
      <path
         inkscape:connector-curvature="0"
         style="fill:#5fc2cf"
         d="m 400.669,66.478 -0.012,-0.1 c 7.013,-9.951 16.1,-13.209 27.229,-9.768 10.229,3.139 14.753,9.632 13.595,19.492 0.466,-2.252 0.546,-4.597 0.214,-7.048 -0.79,-5.829 -3.597,-10.513 -8.408,-14.049 l -0.004,-0.014 c -4.813,-3.537 -10.219,-4.891 -16.25,-4.077 -6.002,0.812 -10.854,3.555 -14.556,8.244 l 0.005,0.015 c -0.936,1.175 -1.721,2.391 -2.357,3.629 -0.956,-1.022 -2.035,-1.986 -3.247,-2.872 v -0.015 c -4.812,-3.535 -10.219,-4.891 -16.225,-4.08 -6.03,0.817 -10.882,3.56 -14.581,8.248 v 0.013 c -3.698,4.688 -5.158,9.949 -4.371,15.781 0.331,2.451 1.029,4.691 2.079,6.735 -3.738,-9.196 -1.102,-16.657 7.927,-22.403 9.817,-6.271 19.441,-5.546 28.845,2.184 l 0.013,0.1 c 0.015,-0.018 0.04,-0.05 0.049,-0.065 0.022,0.012 0.038,0.04 0.055,0.05 l 0,0 z"
         id="path253" />
      <path
         inkscape:connector-curvature="0"
         style="fill:#ab6514"
         d="m 419.424,49.716 c -0.925,-1.143 -1.841,-1.106 -2.712,0.104 l -4.134,5.592 -3.584,-3.644 c -1.031,-1.042 -1.852,-0.856 -2.496,0.542 l -1.276,2.83 c -1.194,1.007 -2.293,2.164 -3.328,3.456 -0.677,0.834 -1.343,1.728 -2.02,2.664 -0.015,-0.01 -0.029,-0.025 -0.048,-0.035 l 0.013,0.085 c -0.817,-0.75 -1.658,-1.454 -2.545,-2.092 -1.341,-0.97 -2.708,-1.792 -4.123,-2.448 l -1.986,-2.386 c -0.994,-1.179 -1.832,-1.139 -2.55,0.141 l -2.489,4.466 -5.469,-4.295 c -1.161,-0.936 -2.052,-0.728 -2.646,0.622 l -2.216,5.072 -5.72,-2.072 c -1.443,-0.52 -2.244,-0.077 -2.392,1.315 l -0.615,5.933 -7.674,0.325 c -1.321,0.02 -1.522,0.599 -0.628,1.717 l 3.5,4.402 -7,3.134 c -1.198,0.526 -1.182,1.285 0.055,2.255 l 4.976,3.879 -4.446,6.701 c -0.816,1.203 -0.45,1.738 1.119,1.6 l 8.104,-0.691 c -0.856,-1.925 -1.45,-4.032 -1.757,-6.327 -0.668,-4.941 0.723,-9.418 4.162,-13.443 3.465,-4.043 8.012,-6.454 13.641,-7.216 3.612,-0.489 6.993,-0.187 10.129,0.891 1.748,0.522 3.377,1.338 4.885,2.448 0.566,0.403 1.116,0.812 1.656,1.25 l 0.016,-0.003 c 1.247,1.027 2.307,2.166 3.172,3.406 0.658,-1.502 1.436,-2.891 2.314,-4.148 l 0.013,-0.002 c 0.405,-0.565 0.831,-1.105 1.267,-1.644 1.159,-1.47 2.51,-2.688 4.058,-3.659 2.735,-1.872 5.917,-3.061 9.527,-3.549 5.629,-0.763 10.653,0.353 15.07,3.332 4.384,2.965 6.916,6.911 7.585,11.854 0.311,2.292 0.3,4.483 -0.016,6.567 l 7.996,-1.49 c 1.555,-0.282 1.763,-0.894 0.658,-1.84 l -6.069,-5.277 3.765,-5.062 c 0.938,-1.264 0.75,-1.998 -0.541,-2.188 l -7.585,-1.161 2.203,-5.17 c 0.565,-1.318 0.221,-1.826 -1.065,-1.49 l -7.48,1.727 -2.168,-5.558 c -0.509,-1.302 -1.4,-1.518 -2.654,-0.633 l -4.966,3.518 -3.486,-4.305 0,0 z"
         id="path255" />
      <path
         inkscape:connector-curvature="0"
         style="fill:#e7467d"
         d="m 413.657,91.404 c -0.242,-1.791 -1.396,-3.195 -3.46,-4.229 -2.021,-1.04 -4.357,-1.379 -7.01,-1.023 -2.664,0.361 -4.843,1.312 -6.543,2.856 -1.688,1.54 -2.413,3.201 -2.17,4.991 0.247,1.819 1.386,3.242 3.421,4.264 2.055,1.05 4.406,1.389 7.069,1.028 2.654,-0.358 4.812,-1.307 6.485,-2.862 1.718,-1.53 2.456,-3.205 2.208,-5.025 l 0,0 z"
         id="path257" />
      <path
         inkscape:connector-curvature="0"
         style="fill:#f18900"
         d="m 421.257,135.633 c -8.244,-0.567 -16.047,0.901 -23.422,4.393 l 2.43,12.902 5.115,3.111 14.877,-2.799 3.435,-4.663 -2.435,-12.944 0,0 z"
         id="path259" />
      <path
         inkscape:connector-curvature="0"
         style="fill:#fbe000"
         d="m 393.498,146.102 c -0.094,-0.092 -0.194,-0.148 -0.263,-0.178 -0.288,-0.112 -0.46,0.057 -0.504,0.495 l -0.313,2.332 -2.341,1.377 c -0.46,0.287 -0.5,0.544 -0.129,0.764 0.04,0.018 0.089,0.047 0.139,0.075 l 0.253,0.125 c 0.02,0.014 0.049,0.027 0.084,0.048 0.098,0.042 0.218,0.093 0.326,0.154 0.342,0.159 0.68,0.334 1.03,0.512 0.05,0.03 0.104,0.053 0.159,0.067 l 0.499,0.25 0.57,2.33 c 0.021,0.23 0.074,0.388 0.159,0.475 0.128,0.078 0.321,0.022 0.571,-0.191 l 1.994,-2.108 0.034,-0.002 c 0.476,0.02 0.94,0.042 1.421,0.062 l 1.288,0.032 0.167,0.003 c 0.525,-0.048 0.635,-0.297 0.321,-0.735 l -1.316,-2.078 0.866,-2.475 c 0.105,-0.273 0.114,-0.455 0.015,-0.547 -0.103,-0.077 -0.287,-0.087 -0.539,-0.03 l -2.634,0.678 -0.044,-0.027 -1.813,-1.408 0,0 z"
         id="path261" />
      <path
         inkscape:connector-curvature="0"
         style="fill:#fbe000"
         d="m 398.606,152.724 c 0.016,0.007 0.026,0.003 0.035,-0.002 l -0.167,-0.003 0.132,0.005 0,0 z"
         id="path263" />
      <path
         inkscape:connector-curvature="0"
         style="fill:none;stroke:#6b7d27;stroke-width:0.74299997;stroke-linecap:round;stroke-linejoin:round;stroke-miterlimit:10"
         d="m 393.498,146.102 1.812,1.406 0.044,0.027 2.634,-0.678 c 0.252,-0.057 0.436,-0.047 0.539,0.03 0.1,0.092 0.09,0.274 -0.015,0.547 l -0.866,2.475 1.316,2.08 c 0.316,0.436 0.204,0.685 -0.321,0.733 l -0.167,-0.003 -1.288,-0.032 c -0.481,-0.021 -0.945,-0.042 -1.421,-0.062 l -0.034,0.002 -1.994,2.111 c -0.25,0.21 -0.443,0.268 -0.571,0.188 -0.085,-0.086 -0.139,-0.245 -0.159,-0.475 l -0.57,-2.33 -0.499,-0.25 c -0.055,-0.014 -0.109,-0.037 -0.159,-0.067 -0.35,-0.178 -0.688,-0.354 -1.03,-0.512 -0.108,-0.061 -0.228,-0.111 -0.326,-0.154 -0.035,-0.021 -0.064,-0.034 -0.084,-0.048 l -0.253,-0.125 c -0.05,-0.027 -0.099,-0.057 -0.139,-0.075 -0.372,-0.22 -0.331,-0.478 0.129,-0.764 l 2.341,-1.377 0.313,-2.329 c 0.043,-0.441 0.216,-0.61 0.504,-0.498 0.07,0.031 0.17,0.088 0.264,0.18 l 0,0 z"
         id="path265" />
      <path
         inkscape:connector-curvature="0"
         style="fill:#fbe000"
         d="m 428.287,139.633 c 0.059,-0.121 0.128,-0.21 0.184,-0.265 0.228,-0.206 0.445,-0.111 0.65,0.282 l 1.138,2.057 2.683,0.431 c 0.534,0.1 0.663,0.324 0.399,0.663 -0.034,0.032 -0.068,0.077 -0.104,0.122 l -0.193,0.208 c -0.01,0.02 -0.033,0.042 -0.057,0.074 -0.079,0.077 -0.17,0.164 -0.249,0.263 -0.263,0.271 -0.51,0.556 -0.774,0.853 -0.033,0.043 -0.078,0.088 -0.124,0.119 l -0.375,0.416 0.322,2.374 c 0.057,0.226 0.069,0.392 0.02,0.502 -0.09,0.122 -0.292,0.139 -0.601,0.032 l -2.623,-1.242 -0.035,0.01 c -0.436,0.192 -0.862,0.384 -1.299,0.577 l -1.188,0.499 -0.156,0.063 c -0.505,0.146 -0.704,-0.046 -0.569,-0.566 l 0.47,-2.416 -1.708,-1.99 c -0.194,-0.215 -0.268,-0.384 -0.21,-0.505 0.067,-0.11 0.235,-0.184 0.493,-0.223 l 2.698,-0.325 0.034,-0.044 1.174,-1.969 0,0 z"
         id="path267" />
      <path
         inkscape:connector-curvature="0"
         style="fill:#fbe000"
         d="m 425.938,147.661 c -0.012,0.009 -0.022,0.009 -0.032,0.009 l 0.156,-0.063 -0.124,0.054 0,0 z"
         id="path269" />
      <path
         inkscape:connector-curvature="0"
         style="fill:none;stroke:#6b7d27;stroke-width:0.74309999;stroke-linecap:round;stroke-linejoin:round;stroke-miterlimit:10"
         d="m 428.287,139.633 -1.173,1.968 -0.034,0.044 -2.698,0.325 c -0.258,0.04 -0.426,0.113 -0.493,0.223 -0.057,0.121 0.017,0.29 0.21,0.505 l 1.708,1.99 -0.47,2.416 c -0.134,0.52 0.064,0.712 0.569,0.566 l 0.156,-0.063 1.188,-0.499 c 0.437,-0.192 0.863,-0.384 1.299,-0.577 l 0.035,-0.01 2.623,1.242 c 0.309,0.107 0.511,0.087 0.601,-0.032 0.05,-0.111 0.038,-0.277 -0.02,-0.502 l -0.322,-2.374 0.375,-0.416 c 0.046,-0.031 0.09,-0.076 0.124,-0.121 0.264,-0.295 0.511,-0.58 0.774,-0.851 0.079,-0.099 0.17,-0.186 0.249,-0.263 0.024,-0.032 0.047,-0.054 0.057,-0.074 l 0.193,-0.208 c 0.035,-0.045 0.069,-0.09 0.104,-0.122 0.263,-0.339 0.135,-0.563 -0.399,-0.663 l -2.683,-0.431 -1.14,-2.06 c -0.203,-0.394 -0.42,-0.485 -0.648,-0.28 -0.058,0.057 -0.126,0.147 -0.185,0.267 l 0,0 z"
         id="path271" />
      <path
         inkscape:connector-curvature="0"
         style="fill:#ce2120"
         d="m 401.83,151.587 c -0.143,-0.782 -0.54,-1.398 -1.182,-1.851 -0.659,-0.436 -1.393,-0.577 -2.173,-0.43 -0.78,0.148 -1.382,0.539 -1.822,1.183 -0.467,0.66 -0.625,1.381 -0.477,2.164 0.154,0.809 0.564,1.438 1.233,1.856 0.648,0.468 1.354,0.628 2.133,0.48 0.782,-0.146 1.412,-0.559 1.859,-1.23 0.443,-0.63 0.582,-1.362 0.429,-2.172 l 0,0 z"
         id="path273" />
      <path
         inkscape:connector-curvature="0"
         style="fill:none;stroke:#921113;stroke-width:0.96619999;stroke-linecap:round;stroke-linejoin:round;stroke-miterlimit:10"
         d="m 401.83,151.587 c 0.154,0.81 0.015,1.542 -0.428,2.171 -0.448,0.671 -1.077,1.084 -1.859,1.23 -0.779,0.148 -1.485,-0.012 -2.133,-0.48 -0.669,-0.418 -1.08,-1.047 -1.233,-1.856 -0.148,-0.782 0.01,-1.503 0.477,-2.164 0.44,-0.644 1.042,-1.034 1.822,-1.183 0.781,-0.146 1.515,-0.006 2.173,0.43 0.641,0.453 1.038,1.07 1.181,1.852 l 0,0 z"
         id="path275" />
      <path
         inkscape:connector-curvature="0"
         style="fill:#ce2120"
         d="m 427.802,146.772 c -0.143,-0.782 -0.54,-1.398 -1.186,-1.851 -0.656,-0.436 -1.389,-0.577 -2.172,-0.429 -0.781,0.146 -1.381,0.54 -1.822,1.182 -0.464,0.661 -0.623,1.381 -0.474,2.163 0.153,0.81 0.564,1.438 1.233,1.859 0.648,0.466 1.351,0.627 2.133,0.481 0.782,-0.149 1.412,-0.56 1.86,-1.233 0.44,-0.63 0.582,-1.362 0.428,-2.172 l 0,0 z"
         id="path277" />
      <path
         inkscape:connector-curvature="0"
         style="fill:none;stroke:#921113;stroke-width:0.96619999;stroke-linecap:round;stroke-linejoin:round;stroke-miterlimit:10"
         d="m 427.802,146.772 c 0.154,0.809 0.013,1.542 -0.427,2.171 -0.448,0.673 -1.078,1.084 -1.86,1.233 -0.782,0.146 -1.484,-0.015 -2.133,-0.481 -0.668,-0.42 -1.08,-1.049 -1.233,-1.859 -0.149,-0.782 0.01,-1.502 0.474,-2.163 0.441,-0.642 1.041,-1.035 1.822,-1.182 0.783,-0.148 1.516,-0.007 2.172,0.429 0.645,0.454 1.042,1.07 1.185,1.852 l 0,0 z"
         id="path279" />
      <path
         inkscape:connector-curvature="0"
         style="fill:#6f53a0"
         d="m 407.405,153.107 c -0.144,-0.782 -0.54,-1.399 -1.184,-1.852 -0.659,-0.436 -1.392,-0.576 -2.174,-0.43 -0.781,0.148 -1.382,0.541 -1.822,1.183 -0.465,0.661 -0.623,1.381 -0.475,2.164 0.154,0.81 0.565,1.438 1.233,1.857 0.648,0.468 1.353,0.629 2.133,0.483 0.783,-0.149 1.412,-0.562 1.86,-1.233 0.443,-0.63 0.583,-1.362 0.429,-2.172 l 0,0 z"
         id="path281" />
      <path
         inkscape:connector-curvature="0"
         style="fill:none;stroke:#352082;stroke-width:0.96619999;stroke-linecap:round;stroke-linejoin:round;stroke-miterlimit:10"
         d="m 407.405,153.107 c 0.154,0.81 0.015,1.542 -0.428,2.171 -0.448,0.671 -1.077,1.084 -1.86,1.233 -0.78,0.146 -1.484,-0.015 -2.133,-0.483 -0.668,-0.419 -1.08,-1.047 -1.233,-1.857 -0.148,-0.782 0.01,-1.502 0.475,-2.164 0.44,-0.642 1.041,-1.034 1.822,-1.183 0.782,-0.146 1.515,-0.005 2.174,0.43 0.643,0.454 1.039,1.071 1.183,1.853 l 0,0 z"
         id="path283" />
      <path
         inkscape:connector-curvature="0"
         style="fill:#9dc517"
         d="m 422.182,148.216 c -0.655,-0.436 -1.391,-0.577 -2.168,-0.431 -0.781,0.148 -1.386,0.539 -1.826,1.183 -0.46,0.661 -0.619,1.381 -0.475,2.164 0.154,0.81 0.567,1.438 1.233,1.856 0.649,0.468 1.356,0.628 2.138,0.48 0.78,-0.146 1.409,-0.56 1.857,-1.233 0.441,-0.626 0.582,-1.358 0.431,-2.168 -0.149,-0.782 -0.546,-1.399 -1.19,-1.851 l 0,0 z"
         id="path285" />
      <path
         inkscape:connector-curvature="0"
         style="fill:none;stroke:#388e36;stroke-width:0.96619999;stroke-linecap:round;stroke-linejoin:round;stroke-miterlimit:10"
         d="m 422.182,148.216 c 0.644,0.453 1.041,1.069 1.189,1.852 0.151,0.81 0.01,1.542 -0.431,2.168 -0.448,0.674 -1.077,1.087 -1.857,1.233 -0.782,0.148 -1.489,-0.013 -2.138,-0.48 -0.666,-0.418 -1.079,-1.047 -1.233,-1.856 -0.144,-0.783 0.015,-1.503 0.475,-2.164 0.44,-0.644 1.045,-1.034 1.826,-1.183 0.779,-0.147 1.514,-0.006 2.169,0.43 l 0,0 z"
         id="path287" />
      <path
         inkscape:connector-curvature="0"
         style="fill:#fbe000"
         d="m 412.705,149.728 c -0.103,-0.143 -0.207,-0.24 -0.29,-0.299 -0.337,-0.216 -0.6,-0.05 -0.778,0.5 l -1.015,2.884 -3.347,1.132 c -0.663,0.24 -0.778,0.557 -0.371,0.935 0.054,0.035 0.104,0.085 0.158,0.134 l 0.292,0.223 c 0.019,0.027 0.054,0.05 0.089,0.087 0.119,0.082 0.255,0.173 0.378,0.282 0.395,0.294 0.775,0.604 1.177,0.928 0.052,0.047 0.119,0.095 0.183,0.126 l 0.572,0.451 0.102,3.116 c -0.032,0.3 -0.005,0.516 0.078,0.647 0.142,0.136 0.403,0.116 0.779,-0.087 l 3.095,-2.159 0.044,0.008 c 0.604,0.15 1.192,0.304 1.792,0.457 l 1.634,0.384 0.213,0.046 c 0.678,0.08 0.888,-0.209 0.606,-0.848 l -1.121,-2.999 1.757,-2.918 c 0.208,-0.319 0.266,-0.551 0.163,-0.692 -0.108,-0.127 -0.342,-0.186 -0.677,-0.181 l -3.531,0.163 -0.055,-0.049 -1.927,-2.271 0,0 z"
         id="path289" />
      <path
         inkscape:connector-curvature="0"
         style="fill:#fbe000"
         d="m 417.445,159.519 c 0.019,0.009 0.028,0.007 0.044,0.004 l -0.213,-0.046 0.169,0.042 0,0 z"
         id="path291" />
      <path
         inkscape:connector-curvature="0"
         style="fill:none;stroke:#6b7d27;stroke-width:0.96619999;stroke-linecap:round;stroke-linejoin:round;stroke-miterlimit:10"
         d="m 412.705,149.728 1.927,2.271 0.055,0.049 3.531,-0.163 c 0.335,-0.005 0.569,0.054 0.677,0.181 0.104,0.142 0.045,0.374 -0.163,0.692 l -1.757,2.918 1.121,2.999 c 0.282,0.639 0.072,0.928 -0.606,0.848 l -0.213,-0.046 -1.634,-0.384 c -0.599,-0.153 -1.188,-0.307 -1.792,-0.457 l -0.044,-0.008 -3.095,2.159 c -0.376,0.204 -0.637,0.223 -0.779,0.087 -0.083,-0.131 -0.11,-0.347 -0.078,-0.647 l -0.102,-3.116 -0.572,-0.451 c -0.064,-0.032 -0.131,-0.079 -0.183,-0.126 -0.401,-0.324 -0.782,-0.634 -1.177,-0.928 -0.123,-0.108 -0.259,-0.2 -0.378,-0.282 -0.035,-0.037 -0.07,-0.06 -0.089,-0.087 l -0.292,-0.223 c -0.055,-0.049 -0.104,-0.099 -0.158,-0.134 -0.407,-0.378 -0.292,-0.695 0.371,-0.935 l 3.347,-1.132 1.015,-2.884 c 0.178,-0.549 0.44,-0.716 0.778,-0.5 0.084,0.059 0.188,0.156 0.29,0.299 l 0,0 z"
         id="path293" />
      <path
         inkscape:connector-curvature="0"
         style="fill:#d04215"
         d="m 357.347,159.786 c -1.149,-0.462 -2.427,-0.17 -3.84,0.864 -1.052,1.075 -1.418,2.271 -1.071,3.577 0.549,1.611 1.921,3.253 4.139,4.941 l 1.416,-0.09 c 0.079,0.723 -0.491,1.376 -1.684,1.969 -4.248,1.373 -7.856,2.93 -10.808,4.679 -2.341,1.851 -2.748,3.909 -1.218,6.171 0.772,0.787 1.901,1.198 3.417,1.218 3.532,-3.651 6.584,-5.834 9.167,-6.521 0.765,0.534 1.046,0.824 0.869,0.893 -3.12,1.993 -5.506,4.162 -7.145,6.491 -0.743,1.166 -1.124,2.345 -1.134,3.52 0.006,1.166 0.465,2.127 1.372,2.848 0.917,0.727 1.738,0.977 2.473,0.753 0.874,-0.389 1.785,-1.121 2.731,-2.188 1.118,-3.213 2.797,-5.61 5.024,-7.189 l 0.973,1.12 c -2.382,2.966 -3.594,5.084 -3.626,6.374 -0.062,1.582 0.391,2.73 1.352,3.451 0.965,0.72 1.96,0.9 2.97,0.557 1.75,-1.027 3.352,-3.703 4.833,-7.995 3.728,-3.51 5.188,-6.966 4.386,-10.364 l 1.688,-0.508 c 0.577,2.015 0.545,3.91 -0.088,5.686 -0.716,1.996 -2.241,4.201 -4.56,6.617 -0.579,1.98 -1.253,3.747 -2.03,5.304 -0.792,1.612 -1.787,2.713 -3.009,3.297 l -0.064,0.047 c -0.074,0 -0.106,0.008 -0.129,0.047 l -0.069,-0.027 c -1.004,0.392 -1.9,0.538 -2.707,0.438 -0.837,-0.091 -1.689,-0.48 -2.575,-1.141 -0.896,-0.693 -1.547,-1.498 -1.938,-2.431 -0.666,0.621 -1.339,1.035 -1.982,1.245 -1.54,0.626 -3.179,0.272 -4.931,-1.089 -1.761,-1.379 -2.58,-3.043 -2.48,-4.984 0.024,-0.643 0.109,-1.217 0.277,-1.697 -0.075,0 -0.223,0 -0.431,0.017 -1.514,0.056 -2.985,-0.705 -4.431,-2.271 l -0.074,-0.149 c -1.327,-1.78 -1.836,-3.456 -1.515,-5.015 0.317,-1.527 1.44,-3.059 3.366,-4.597 l 0.134,-0.077 c 1.455,-0.879 2.888,-1.582 4.287,-2.101 1.481,-0.55 3.334,-1.07 5.564,-1.542 -1.218,-0.918 -2.139,-1.706 -2.76,-2.371 -0.715,-0.775 -1.176,-1.515 -1.359,-2.229 -0.713,-2.279 -0.139,-4.389 1.768,-6.356 l 0.267,-0.229 c 2.347,-1.734 4.54,-2.099 6.565,-1.093 0.915,0.372 1.738,0.99 2.456,1.824 0.733,0.836 1.443,2.022 2.129,3.56 1.203,0.544 2.188,1.079 2.951,1.626 0.841,0.591 1.336,1.134 1.52,1.627 l -0.689,1.262 c -0.872,-0.906 -2.763,-1.764 -5.659,-2.558 -1.462,-2.837 -2.831,-4.567 -4.088,-5.211 l 0,0 z"
         id="path295" />
      <path
         inkscape:connector-curvature="0"
         style="fill:#f18900"
         d="m 353.507,160.649 c 1.413,-1.034 2.69,-1.326 3.84,-0.864 1.258,0.644 2.626,2.375 4.083,5.21 2.896,0.79 4.788,1.652 5.657,2.558 1.34,1.517 2.324,2.713 2.949,3.59 0.911,1.282 1.549,2.529 1.906,3.717 0.802,3.401 -0.658,6.858 -4.386,10.368 -1.481,4.292 -3.085,6.968 -4.833,7.993 -1.009,0.346 -2.004,0.165 -2.97,-0.555 -0.96,-0.721 -1.414,-1.872 -1.352,-3.451 0.032,-1.29 1.245,-3.408 3.626,-6.374 l -0.973,-1.12 c -2.228,1.579 -3.907,3.976 -5.024,7.189 -0.949,1.064 -1.857,1.799 -2.734,2.188 -0.732,0.223 -1.554,-0.027 -2.47,-0.753 -0.906,-0.721 -1.366,-1.682 -1.372,-2.848 0.01,-1.175 0.392,-2.354 1.134,-3.52 1.638,-2.329 4.025,-4.499 7.145,-6.493 0.177,-0.067 -0.104,-0.359 -0.869,-0.891 -2.583,0.684 -5.635,2.87 -9.167,6.521 -1.516,-0.02 -2.644,-0.434 -3.417,-1.218 -1.53,-2.262 -1.124,-4.32 1.218,-6.171 2.951,-1.749 6.56,-3.308 10.808,-4.682 1.193,-0.589 1.763,-1.243 1.684,-1.966 l -1.416,0.09 c -2.218,-1.69 -3.59,-3.333 -4.139,-4.943 -0.347,-1.305 0.02,-2.5 1.069,-3.577 l 0.003,0.002 z"
         id="path297" />
    </g>
  </g>
</svg>
