<?xml version="1.0" encoding="UTF-8" standalone="no"?>
<!-- Created with Inkscape (http://www.inkscape.org/) -->

<svg
   xmlns:dc="http://purl.org/dc/elements/1.1/"
   xmlns:cc="http://creativecommons.org/ns#"
   xmlns:rdf="http://www.w3.org/1999/02/22-rdf-syntax-ns#"
   xmlns:svg="http://www.w3.org/2000/svg"
   xmlns="http://www.w3.org/2000/svg"
   xmlns:sodipodi="http://sodipodi.sourceforge.net/DTD/sodipodi-0.dtd"
   xmlns:inkscape="http://www.inkscape.org/namespaces/inkscape"
   width="186.09375"
   height="175.5808"
   id="svg5696"
   version="1.1"
   inkscape:version="0.48.4 r9939"
   sodipodi:docname="zoe2.svg">
  <defs
     id="defs5698">
    <clipPath
       id="SVGID_2_">
      <rect
         height="88.862999"
         width="111.498"
         y="518.96198"
         x="382.04999"
         id="use1087" />
    </clipPath>
    <clipPath
       id="SVGID_4_">
      <rect
         height="41.314999"
         width="49.584999"
         y="525.19397"
         x="389.84698"
         id="use1111" />
    </clipPath>
  </defs>
  <sodipodi:namedview
     id="base"
     pagecolor="#ffffff"
     bordercolor="#666666"
     borderopacity="1.0"
     inkscape:pageopacity="0.0"
     inkscape:pageshadow="2"
     inkscape:zoom="0.77472527"
     inkscape:cx="87.466937"
     inkscape:cy="157.76965"
     inkscape:current-layer="layer1"
     inkscape:document-units="px"
     showgrid="false"
     inkscape:window-width="763"
     inkscape:window-height="591"
     inkscape:window-x="592"
     inkscape:window-y="97"
     inkscape:window-maximized="0"
     fit-margin-top="0"
     fit-margin-left="0"
     fit-margin-right="0"
     fit-margin-bottom="0" />
  <metadata
     id="metadata5701">
    <rdf:RDF>
      <cc:Work
         rdf:about="">
        <dc:format>image/svg+xml</dc:format>
        <dc:type
           rdf:resource="http://purl.org/dc/dcmitype/StillImage" />
        <dc:title></dc:title>
      </cc:Work>
    </rdf:RDF>
  </metadata>
  <g
     id="layer1"
     inkscape:label="Layer 1"
     inkscape:groupmode="layer"
     transform="translate(-230.47636,-67.295221)">
    <g
       transform="translate(-315.71114,16.802465)"
       id="g299">
      <path
         inkscape:connector-curvature="0"
         style="fill:#eda1c1"
         d="m 631.977,182.295 8.055,1.642 -6.867,30.742 c -5.357,2.15 -8.828,1.203 -10.416,-2.876 l 9.228,-29.508 0,0 z"
         id="path301" />
      <path
         inkscape:connector-curvature="0"
         style="fill:none;stroke:#df5d91;stroke-width:1.35619998;stroke-linecap:round;stroke-miterlimit:10"
         d="m 640.031,183.937 -6.867,30.742 c -5.357,2.15 -8.828,1.203 -10.416,-2.876 l 9.229,-29.507 8.054,1.641 0,0 z"
         id="path303" />
      <path
         inkscape:connector-curvature="0"
         style="fill:#df5d91"
         d="m 604.52,205.88 c 1.629,-0.564 3.426,-0.97 5.414,-1.186 1.57,2.126 2.779,4.454 3.611,6.969 h 5.201 c -0.559,-1.721 -1.311,-3.34 -2.236,-4.886 -0.312,-0.52 -0.797,-1.272 -1.479,-2.255 3.047,0.056 6.102,0.332 9.162,0.825 1.129,1.893 2.074,3.99 2.854,6.317 h 7.172 c -0.119,2.646 -0.242,5.451 -0.373,8.417 -15.971,2.413 -26.164,3.022 -30.561,1.821 -4.414,-1.23 -6.529,-3.774 -6.326,-7.664 0.203,-3.889 2.729,-6.679 7.561,-8.358 l 0,0 z"
         id="path305" />
      <path
         inkscape:connector-curvature="0"
         style="fill:#eda1c1"
         d="m 609.934,204.695 c 1.73,-0.146 3.422,-0.203 5.098,-0.173 0.682,0.983 1.166,1.736 1.479,2.255 0.926,1.546 1.678,3.166 2.236,4.886 h -5.201 c -0.833,-2.515 -2.042,-4.842 -3.612,-6.968 l 0,0 z"
         id="path307" />
      <path
         inkscape:connector-curvature="0"
         style="fill:none;stroke:#970f45;stroke-width:1.31729996;stroke-linecap:round;stroke-miterlimit:10"
         d="m 615.031,204.522 c 3.047,0.056 6.102,0.332 9.162,0.825 1.129,1.893 2.074,3.99 2.854,6.317 h 7.172 c -0.119,2.646 -0.242,5.451 -0.373,8.417 -15.971,2.413 -26.164,3.022 -30.561,1.821 -4.414,-1.23 -6.529,-3.774 -6.326,-7.664 0.203,-3.889 2.729,-6.679 7.561,-8.357 1.629,-0.564 3.426,-0.97 5.414,-1.186 m 5.097,-0.173 c -1.676,-0.03 -3.367,0.027 -5.098,0.173 m 10e-4,0 c 1.57,2.126 2.779,4.454 3.611,6.969 h 5.201 c -0.559,-1.721 -1.311,-3.34 -2.236,-4.886 -0.312,-0.52 -0.797,-1.272 -1.479,-2.255"
         id="path309" />
      <path
         inkscape:connector-curvature="0"
         style="fill:#eda1c1"
         d="m 656.16,184.429 -8.623,0.384 0.984,29.987 c 5.084,2.805 8.848,2.409 11.295,-1.208 l -3.656,-29.163 0,0 z"
         id="path311" />
      <path
         inkscape:connector-curvature="0"
         style="fill:none;stroke:#df5d91;stroke-width:1.32819998;stroke-linecap:round;stroke-miterlimit:10"
         d="m 647.537,184.812 0.984,29.987 c 5.084,2.805 8.848,2.409 11.295,-1.208 l -3.656,-29.163 -8.623,0.384 0,0 z"
         id="path313" />
      <path
         inkscape:connector-curvature="0"
         style="fill:#df5d91"
         d="m 678.361,208.794 c -1.609,-0.564 -3.387,-0.968 -5.373,-1.186 -1.648,2.126 -2.951,4.454 -3.875,6.971 h -5.209 c 0.627,-1.723 1.443,-3.342 2.432,-4.89 0.332,-0.52 0.846,-1.272 1.562,-2.254 -3.047,0.057 -6.111,0.332 -9.188,0.824 -1.209,1.894 -2.238,3.99 -3.105,6.32 h -7.172 c 0.014,2.644 0.029,5.451 0.043,8.414 15.877,2.413 26.047,3.022 30.492,1.821 4.461,-1.23 6.674,-3.775 6.625,-7.664 -0.048,-3.887 -2.464,-6.68 -7.232,-8.356 l 0,0 z"
         id="path315" />
      <path
         inkscape:connector-curvature="0"
         style="fill:#eda1c1"
         d="m 672.988,207.608 c -1.719,-0.144 -3.41,-0.204 -5.09,-0.173 -0.717,0.982 -1.23,1.734 -1.562,2.254 -0.988,1.547 -1.805,3.167 -2.432,4.89 h 5.209 c 0.924,-2.517 2.227,-4.844 3.875,-6.971 l 0,0 z"
         id="path317" />
      <path
         inkscape:connector-curvature="0"
         style="fill:none;stroke:#970f45;stroke-width:1.29180002;stroke-linecap:round;stroke-miterlimit:10"
         d="m 667.898,207.436 c -3.047,0.057 -6.111,0.332 -9.188,0.824 -1.209,1.894 -2.238,3.99 -3.105,6.32 h -7.172 c 0.014,2.644 0.029,5.451 0.043,8.414 15.877,2.413 26.047,3.022 30.492,1.821 4.461,-1.23 6.674,-3.775 6.625,-7.664 -0.049,-3.889 -2.465,-6.681 -7.232,-8.357 -1.609,-0.564 -3.387,-0.968 -5.373,-1.186 m -5.09,-0.172 c 1.68,-0.031 3.371,0.029 5.09,0.173 m 0,-0.001 c -1.648,2.126 -2.951,4.454 -3.875,6.971 h -5.209 c 0.627,-1.723 1.443,-3.342 2.432,-4.89 0.332,-0.52 0.846,-1.272 1.562,-2.254"
         id="path319" />
      <path
         inkscape:connector-curvature="0"
         style="fill:#f18900"
         d="m 651.738,135.931 c -8.916,-1.872 -17.604,-1.308 -26.09,1.69 l 0.842,12.942 5.924,4.673 15.107,-0.978 5.055,-5.372 -0.838,-12.955 0,0 z"
         id="path321" />
      <path
         inkscape:connector-curvature="0"
         style="fill:none;stroke:#d04215;stroke-width:1.28830004;stroke-linecap:square;stroke-miterlimit:10"
         d="m 626.49,150.563 -0.842,-12.942 c 8.486,-2.998 17.174,-3.562 26.09,-1.69 l 0.838,12.956"
         id="path323" />
      <path
         inkscape:connector-curvature="0"
         style="fill:#eda1c1"
         d="m 662.324,162.863 c -2.865,-5.629 -4.809,-11.098 -5.816,-16.438 -3.664,2.268 -7.887,4.025 -12.701,5.273 -4.828,1.247 -11.818,1.182 -20.984,-0.216 0.377,4.98 -0.125,10.496 -1.533,16.548 -0.566,2.795 -0.996,5.27 -1.299,7.392 -1.16,6.182 0.322,11.241 4.463,15.195 13.766,3.164 27.236,1.467 40.402,-5.089 3.035,-4.855 3.217,-10.125 0.559,-15.826 -0.817,-1.98 -1.851,-4.269 -3.091,-6.839 l 0,0 z"
         id="path325" />
      <path
         inkscape:connector-curvature="0"
         style="fill:none;stroke:#df5d91;stroke-width:1.28849995;stroke-linecap:square;stroke-miterlimit:10"
         d="m 656.508,146.426 c -3.664,2.268 -7.887,4.025 -12.701,5.273 -4.828,1.247 -11.818,1.182 -20.984,-0.216 0.377,4.98 -0.125,10.496 -1.533,16.548 -0.566,2.795 -0.996,5.27 -1.299,7.392 -1.16,6.182 0.322,11.241 4.463,15.195 13.766,3.164 27.236,1.467 40.402,-5.089 3.035,-4.855 3.217,-10.125 0.559,-15.826 -0.816,-1.98 -1.85,-4.269 -3.09,-6.839 -2.866,-5.63 -4.809,-11.098 -5.817,-16.438 l 0,0 z"
         id="path327" />
      <path
         inkscape:connector-curvature="0"
         style="fill:#f18900"
         d="m 650.725,157.432 -3.414,-9.877 c 14.668,-1.712 29.016,-3.46 43.055,-5.27 3.572,3.166 3.924,6.466 1.061,9.875 -12.607,1.388 -26.163,3.151 -40.702,5.272 l 0,0 z"
         id="path329" />
      <path
         inkscape:connector-curvature="0"
         style="fill:none;stroke:#d04215;stroke-width:1.28830004;stroke-linecap:square;stroke-miterlimit:10"
         d="m 647.311,147.555 c 14.668,-1.712 29.016,-3.46 43.055,-5.27 3.572,3.166 3.924,6.466 1.061,9.875 -12.605,1.389 -26.162,3.151 -40.701,5.273 l -3.415,-9.878 0,0 z"
         id="path331" />
      <path
         inkscape:connector-curvature="0"
         style="fill:#eda1c1"
         d="m 671.033,144.723 c -0.732,3.582 -0.154,6.812 1.752,9.684 l -22.061,3.025 -3.414,-9.877 23.723,-2.832 0,0 z"
         id="path333" />
      <path
         inkscape:connector-curvature="0"
         style="fill:none;stroke:#df5d91;stroke-width:1.28830004;stroke-linecap:square;stroke-miterlimit:10"
         d="m 671.033,144.723 -23.723,2.832 3.414,9.877 22.061,-3.025 c -1.906,-2.872 -2.484,-6.102 -1.752,-9.684 l 0,0 z"
         id="path335" />
      <polygon
         style="fill:#eda1c1"
         points="648.631,156.655 645.76,148.812 645.76,148.812 649.088,148.503 651.787,156.14 "
         id="polygon337" />
      <path
         inkscape:connector-curvature="0"
         style="fill:#f18900"
         d="m 631.426,149.219 0.609,10.433 c -14.578,-2.329 -28.863,-4.542 -42.871,-6.609 -2.58,-4.016 -2.023,-7.287 1.656,-9.791 12.51,2.082 26.041,4.065 40.606,5.967 l 0,0 z"
         id="path339" />
      <path
         inkscape:connector-curvature="0"
         style="fill:none;stroke:#d04215;stroke-width:1.28840005;stroke-linecap:square;stroke-miterlimit:10"
         d="m 632.035,159.652 c -14.578,-2.329 -28.863,-4.542 -42.871,-6.609 -2.58,-4.016 -2.023,-7.287 1.656,-9.791 12.51,2.082 26.041,4.065 40.605,5.966 l 0.61,10.434 0,0 z"
         id="path341" />
      <path
         inkscape:connector-curvature="0"
         style="fill:#eda1c1"
         d="m 608.434,155.942 c 1.676,-3.249 1.996,-6.514 0.941,-9.796 l 22.051,3.073 0.609,10.433 -23.601,-3.71 0,0 z"
         id="path343" />
      <path
         inkscape:connector-curvature="0"
         style="fill:none;stroke:#df5d91;stroke-width:1.28840005;stroke-linecap:square;stroke-miterlimit:10"
         d="m 608.434,155.942 23.602,3.71 -0.609,-10.433 -22.051,-3.073 c 1.054,3.282 0.733,6.547 -0.942,9.796 l 0,0 z"
         id="path345" />
      <polygon
         style="fill:#eda1c1"
         points="633.232,150.535 633.873,158.862 633.873,158.862 630.584,158.258 630.055,150.176 "
         id="polygon347" />
      <path
         inkscape:connector-curvature="0"
         style="fill:#eda1c1"
         d="m 661.256,163.42 -0.016,-0.012 c -2.619,-5.164 -4.477,-10.179 -5.568,-15.068 -3.422,1.901 -7.268,3.421 -11.57,4.533 -4.674,1.212 -11.334,1.222 -19.982,0.022 0.197,4.684 -0.367,9.825 -1.658,15.424 l 0.012,-0.029 c -0.572,2.767 -0.992,5.198 -1.264,7.303 l -0.025,0.059 c -1.057,5.6 0.238,10.23 3.891,13.867 13.258,2.965 26.227,1.332 38.924,-4.916 2.633,-4.426 2.729,-9.218 0.316,-14.381 l -0.023,-0.056 c -0.801,-1.969 -1.814,-4.219 -3.037,-6.746 l 0,0 z"
         id="path349" />
      <path
         inkscape:connector-curvature="0"
         style="fill:#df5d91"
         d="m 638.115,196.566 c 0.303,0.264 0.629,0.515 0.99,0.735 3.312,2.223 6.525,2.018 9.664,-0.604 1.039,-0.956 1.668,-1.512 1.887,-1.683 0.949,-0.698 1.838,-1.047 2.629,-1.038 1.723,0.021 3.246,0.677 4.588,1.978 0.703,0.688 1.234,1.144 1.621,1.367 0.688,0.398 1.51,0.611 2.451,0.622 0.85,0.012 1.648,-0.196 2.393,-0.622 0.438,-0.268 1.035,-0.752 1.811,-1.451 0.746,-0.701 1.346,-1.186 1.795,-1.456 0.729,-0.438 1.514,-0.646 2.352,-0.633 1.229,0.014 2.596,0.739 4.109,2.16 0.771,0.746 1.342,1.23 1.705,1.453 0.656,0.456 1.32,0.681 1.969,0.689 1.809,0.022 3.129,-0.498 3.996,-1.542 0.324,-0.387 0.783,-1.221 1.391,-2.498 l -13.104,-12.48 c -18.506,0.596 -36.188,0.193 -53.045,-1.231 l -13.834,12.702 c 0.574,1.322 1.016,2.166 1.328,2.56 0.842,1.066 2.148,1.619 3.957,1.638 0.652,0.01 1.32,-0.2 1.988,-0.639 0.365,-0.213 0.949,-0.683 1.738,-1.41 1.549,-1.385 2.93,-2.076 4.162,-2.061 0.824,0.01 1.602,0.235 2.334,0.693 0.432,0.28 1.014,0.777 1.76,1.495 0.758,0.718 1.344,1.217 1.775,1.498 0.732,0.443 1.525,0.671 2.377,0.68 0.939,0.01 1.768,-0.18 2.463,-0.563 0.385,-0.21 0.922,-0.653 1.639,-1.325 1.389,-1.27 2.928,-1.886 4.65,-1.866 0.793,0.01 1.674,0.383 2.604,1.104 0.215,0.176 0.842,0.747 1.857,1.728 l 0,0 z"
         id="path351" />
      <path
         inkscape:connector-curvature="0"
         style="fill:none;stroke:#970f45;stroke-width:1.28830004;stroke-linecap:round;stroke-miterlimit:10"
         d="m 638.115,196.566 c -1.016,-0.983 -1.643,-1.552 -1.857,-1.731 -0.93,-0.717 -1.811,-1.091 -2.604,-1.101 -1.723,-0.02 -3.262,0.596 -4.65,1.866 -0.717,0.671 -1.254,1.112 -1.639,1.325 -0.695,0.381 -1.523,0.574 -2.463,0.563 -0.852,-0.011 -1.645,-0.237 -2.377,-0.68 -0.432,-0.28 -1.018,-0.779 -1.775,-1.498 -0.746,-0.718 -1.328,-1.215 -1.76,-1.495 -0.732,-0.458 -1.51,-0.683 -2.334,-0.693 -1.232,-0.015 -2.613,0.675 -4.162,2.061 -0.789,0.728 -1.373,1.197 -1.738,1.41 -0.668,0.438 -1.336,0.648 -1.988,0.639 -1.809,-0.022 -3.115,-0.572 -3.957,-1.638 -0.312,-0.394 -0.754,-1.238 -1.328,-2.56 l 13.834,-12.702 c 16.857,1.421 34.539,1.827 53.045,1.231 l 13.104,12.48 c -0.607,1.277 -1.066,2.111 -1.391,2.498 -0.867,1.045 -2.188,1.564 -3.996,1.542 -0.648,-0.008 -1.312,-0.233 -1.969,-0.691 -0.363,-0.221 -0.934,-0.705 -1.705,-1.451 -1.514,-1.423 -2.881,-2.146 -4.109,-2.163 -0.838,-0.01 -1.623,0.198 -2.352,0.636 -0.449,0.27 -1.049,0.755 -1.795,1.453 -0.775,0.701 -1.373,1.183 -1.811,1.453 -0.744,0.426 -1.543,0.634 -2.393,0.622 -0.941,-0.013 -1.764,-0.223 -2.451,-0.622 -0.387,-0.223 -0.918,-0.679 -1.621,-1.367 -1.342,-1.301 -2.865,-1.958 -4.588,-1.978 -0.791,-0.01 -1.68,0.34 -2.629,1.038 -0.219,0.171 -0.848,0.728 -1.887,1.683 -3.139,2.622 -6.352,2.827 -9.664,0.604 -0.361,-0.222 -0.687,-0.47 -0.99,-0.734 l 0,0 z"
         id="path353" />
      <path
         inkscape:connector-curvature="0"
         style="fill:#df5d91"
         d="m 649.041,184.134 c 0.934,-0.669 1.793,-1.006 2.586,-0.995 1.678,0.02 3.188,0.661 4.52,1.906 0.682,0.658 1.213,1.084 1.59,1.307 0.672,0.384 1.479,0.582 2.404,0.591 0.822,0.013 1.609,-0.195 2.338,-0.606 0.436,-0.255 1.033,-0.725 1.777,-1.394 0.748,-0.67 1.346,-1.141 1.768,-1.381 0.729,-0.425 1.5,-0.633 2.322,-0.624 1.199,0.015 2.549,0.713 4.039,2.074 0.758,0.719 1.314,1.189 1.674,1.409 0.645,0.429 1.277,0.651 1.93,0.661 0.043,0 0.084,0 0.131,0 0.939,-0.002 1.752,-0.136 2.404,-0.434 0.564,-0.236 1.035,-0.593 1.402,-1.036 0.322,-0.372 0.781,-1.191 1.361,-2.442 l -14.295,-10.371 c -16.387,5.035 -31.986,4.799 -46.781,-0.703 l -14.281,10.149 c 0.551,1.265 0.986,2.095 1.287,2.476 0.369,0.451 0.826,0.82 1.371,1.072 0.648,0.297 1.441,0.466 2.352,0.493 0.061,0 0.119,0 0.189,0 0.652,0.01 1.291,-0.2 1.943,-0.611 0.367,-0.213 0.938,-0.668 1.709,-1.367 1.521,-1.327 2.889,-1.99 4.09,-1.976 0.822,0.01 1.588,0.238 2.289,0.678 0.432,0.253 1.02,0.735 1.746,1.426 0.732,0.689 1.316,1.171 1.748,1.439 0.719,0.428 1.496,0.653 2.32,0.663 0.928,0.012 1.738,-0.166 2.422,-0.535 0.375,-0.21 0.916,-0.624 1.619,-1.267 1.361,-1.211 2.887,-1.814 4.564,-1.792 0.793,0.008 1.645,0.366 2.561,1.057 0.242,0.191 1,0.879 2.271,2.067 1.816,1.684 3.926,1.711 6.307,0.077 1.3,-1.158 2.077,-1.825 2.323,-2.011 l 0,0 z"
         id="path355" />
      <path
         inkscape:connector-curvature="0"
         style="fill:none;stroke:#970f45;stroke-width:1.28830004;stroke-linecap:round;stroke-miterlimit:10"
         d="m 649.041,184.134 c -0.246,0.186 -1.023,0.853 -2.322,2.009 -2.381,1.635 -4.49,1.607 -6.307,-0.077 -1.271,-1.188 -2.029,-1.876 -2.271,-2.067 -0.916,-0.69 -1.768,-1.049 -2.561,-1.057 -1.678,-0.022 -3.203,0.582 -4.564,1.792 -0.703,0.643 -1.244,1.057 -1.619,1.267 -0.684,0.37 -1.494,0.547 -2.422,0.535 -0.824,-0.01 -1.602,-0.235 -2.32,-0.663 -0.432,-0.268 -1.016,-0.75 -1.748,-1.439 -0.727,-0.69 -1.314,-1.173 -1.746,-1.426 -0.701,-0.44 -1.467,-0.667 -2.289,-0.678 -1.201,-0.015 -2.568,0.648 -4.09,1.976 -0.771,0.698 -1.342,1.153 -1.709,1.367 -0.652,0.411 -1.291,0.621 -1.943,0.611 -0.07,0 -0.129,0 -0.189,0 -0.91,-0.027 -1.703,-0.195 -2.352,-0.493 -0.545,-0.252 -1.002,-0.621 -1.371,-1.072 -0.301,-0.381 -0.736,-1.21 -1.287,-2.476 l 14.281,-10.149 c 14.795,5.502 30.395,5.738 46.781,0.703 l 14.295,10.371 c -0.58,1.25 -1.039,2.07 -1.361,2.442 -0.367,0.443 -0.838,0.8 -1.402,1.036 -0.652,0.297 -1.465,0.431 -2.404,0.434 -0.047,0 -0.088,0 -0.131,0 -0.652,-0.009 -1.285,-0.232 -1.93,-0.661 -0.359,-0.22 -0.916,-0.69 -1.674,-1.409 -1.49,-1.36 -2.84,-2.059 -4.039,-2.074 -0.822,-0.01 -1.594,0.198 -2.322,0.624 -0.422,0.241 -1.02,0.711 -1.768,1.381 -0.744,0.669 -1.342,1.139 -1.777,1.394 -0.729,0.411 -1.516,0.619 -2.338,0.606 -0.926,-0.01 -1.732,-0.207 -2.404,-0.591 -0.377,-0.223 -0.908,-0.649 -1.59,-1.307 -1.332,-1.245 -2.842,-1.886 -4.52,-1.906 -0.794,-0.009 -1.653,0.328 -2.587,0.997 l 0,0 z"
         id="path357" />
      <path
         inkscape:connector-curvature="0"
         style="fill:#f18900"
         d="m 659.604,73.416 c -5.244,-1.654 -10.592,-2.636 -16.031,-2.956 -5.402,-0.334 -10.775,0.013 -16.156,1.053 -5.449,1.069 -10.693,2.643 -15.713,4.721 -1.844,0.761 -4.689,1.868 -8.545,3.351 -2.031,-4.817 -5.551,-7.302 -10.543,-7.451 -8.52,-0.28 -14.039,-2.377 -16.564,-6.261 -1.08,5.87 1.057,11.048 6.422,15.534 -5.865,-1.891 -10.162,-1.138 -12.912,2.267 -3.885,4.778 -8.807,5.292 -14.744,1.555 0.264,6.574 5.146,9.56 14.639,8.987 -3.943,5.706 -11.023,8.331 -21.252,7.858 6.732,5.191 14.762,6.616 24.115,4.309 -2.197,2.139 -3.779,4.055 -4.738,5.746 -2.514,4.473 -6.893,6.799 -13.154,7.014 7.32,4.443 14.955,4.43 22.922,-0.042 -2.227,5.566 -6.148,8.656 -11.764,9.279 4.844,4.49 11.514,5.474 19.963,2.946 0.732,0.698 1.51,1.381 2.328,2.052 6.697,5.479 15.66,8.743 26.883,9.81 16.145,1.622 32.266,1.496 48.348,-0.38 9.689,-1.067 17.627,-3.618 23.775,-7.63 2.553,-1.653 4.77,-3.448 6.641,-5.381 8.402,2.376 14.98,1.247 19.707,-3.37 -5.633,-0.475 -9.633,-3.458 -12.004,-8.966 8.078,4.261 15.713,4.072 22.912,-0.564 -6.264,-0.047 -10.705,-2.257 -13.334,-6.664 -1.008,-1.663 -2.639,-3.537 -4.891,-5.617 9.352,2.06 17.471,0.302 24.324,-5.253 -10.428,0.946 -17.691,-1.386 -21.781,-6.985 9.502,0.321 14.307,-2.792 14.395,-9.375 -5.836,3.897 -10.771,3.513 -14.781,-1.163 -2.834,-3.332 -7.152,-3.968 -12.969,-1.923 5.248,-4.626 7.248,-9.857 6.01,-15.7 -2.418,3.951 -7.768,6.207 -16.045,6.764 -6.01,0.53 -10.021,3.271 -12.057,8.228 -4.531,-2.483 -8.994,-4.422 -13.406,-5.793 l 0,0 z"
         id="path359" />
      <path
         inkscape:connector-curvature="0"
         style="fill:none;stroke:#d04215;stroke-width:1.28830004;stroke-linecap:square;stroke-miterlimit:10"
         d="m 659.604,73.416 c 4.412,1.371 8.875,3.31 13.404,5.792 2.035,-4.957 6.047,-7.698 12.057,-8.228 8.277,-0.557 13.627,-2.812 16.045,-6.764 1.238,5.843 -0.762,11.073 -6.01,15.7 5.816,-2.045 10.135,-1.409 12.969,1.923 4.01,4.676 8.945,5.061 14.781,1.163 -0.088,6.583 -4.893,9.696 -14.396,9.375 4.092,5.6 11.355,7.931 21.783,6.985 -6.854,5.555 -14.973,7.312 -24.324,5.253 2.252,2.08 3.883,3.954 4.891,5.617 2.629,4.404 7.07,6.617 13.334,6.664 -7.199,4.637 -14.834,4.825 -22.912,0.564 2.371,5.508 6.371,8.491 12.004,8.966 -4.727,4.617 -11.305,5.746 -19.707,3.37 -1.871,1.933 -4.088,3.728 -6.641,5.381 -6.148,4.012 -14.086,6.562 -23.775,7.63 -16.082,1.876 -32.203,2.002 -48.348,0.38 -11.223,-1.067 -20.186,-4.332 -26.883,-9.81 -0.818,-0.67 -1.596,-1.354 -2.328,-2.052 -8.449,2.528 -15.119,1.544 -19.963,-2.946 5.615,-0.624 9.537,-3.713 11.764,-9.279 -7.967,4.472 -15.602,4.485 -22.922,0.042 6.262,-0.214 10.641,-2.541 13.154,-7.014 0.959,-1.69 2.541,-3.607 4.738,-5.746 -9.354,2.307 -17.383,0.882 -24.115,-4.309 10.229,0.473 17.309,-2.152 21.252,-7.858 -9.492,0.573 -14.375,-2.414 -14.639,-8.987 5.938,3.737 10.859,3.223 14.744,-1.555 2.75,-3.405 7.047,-4.158 12.912,-2.267 -5.365,-4.485 -7.502,-9.664 -6.422,-15.534 2.525,3.884 8.045,5.98 16.564,6.261 4.992,0.148 8.512,2.633 10.543,7.451 3.855,-1.483 6.701,-2.59 8.545,-3.351 5.02,-2.078 10.264,-3.651 15.713,-4.721 5.381,-1.04 10.754,-1.387 16.156,-1.053 5.44,0.321 10.787,1.303 16.032,2.957 l 0,0 z"
         id="path361" />
      <path
         inkscape:connector-curvature="0"
         style="fill:#ab61a3"
         d="m 585.082,82.404 -1.195,2.559 c -0.24,0.51 -0.379,1.018 -0.398,1.512 l 0.326,-0.266 c 0.488,-0.381 0.922,-0.332 1.318,0.141 l 1.146,1.445 c 0.369,0.473 0.318,0.894 -0.125,1.291 0.305,-0.02 0.607,-0.067 0.922,-0.145 l 2.725,-0.613 c 1.371,-0.322 1.678,-1.02 0.941,-2.095 -0.486,-0.732 -1.145,-1.404 -1.979,-2 l -1.43,-2.062 c -0.87,-1.262 -1.618,-1.18 -2.251,0.233 l 0,0 z"
         id="path363" />
      <path
         inkscape:connector-curvature="0"
         style="fill:#ab61a3"
         d="m 586.279,87.795 -1.146,-1.445 c -0.396,-0.473 -0.83,-0.522 -1.318,-0.141 l -0.326,0.266 -1.133,0.895 -0.215,0.164 c -0.469,0.396 -0.525,0.829 -0.129,1.302 l 1.162,1.446 c 0.311,0.415 0.691,0.513 1.107,0.275 0.053,-0.045 0.113,-0.09 0.182,-0.135 l 1.662,-1.321 c 0.014,-0.015 0.014,-0.015 0.029,-0.015 0.444,-0.397 0.494,-0.818 0.125,-1.291 l 0,0 z"
         id="path365" />
      <path
         inkscape:connector-curvature="0"
         style="fill:#ab61a3"
         d="m 582.141,87.534 0.215,-0.164 c -0.492,-0.08 -1.012,-0.057 -1.576,0.05 l -2.77,0.586 c -1.527,0.325 -1.76,1.064 -0.705,2.193 l 1.688,1.814 c 0.287,0.936 0.742,1.74 1.375,2.426 0.912,1.015 1.705,0.844 2.365,-0.509 l 1.238,-2.518 c 0.141,-0.292 0.24,-0.582 0.311,-0.856 -0.416,0.235 -0.797,0.138 -1.107,-0.275 l -1.162,-1.446 c -0.396,-0.473 -0.34,-0.906 0.129,-1.305 v 0.004 z"
         id="path367" />
      <path
         inkscape:connector-curvature="0"
         style="fill:none;stroke:#633791;stroke-width:0.96619999;stroke-linecap:round;stroke-linejoin:round;stroke-miterlimit:10"
         d="m 583.488,86.475 c 0.02,-0.494 0.158,-1.001 0.398,-1.512 l 1.195,-2.559 c 0.633,-1.411 1.381,-1.493 2.252,-0.233 l 1.43,2.062 c 0.834,0.596 1.492,1.268 1.979,2 0.736,1.075 0.43,1.772 -0.941,2.095 l -2.725,0.613 c -0.314,0.077 -0.617,0.125 -0.922,0.145 m 0,0 c 0.443,-0.396 0.494,-0.818 0.125,-1.291 l -1.146,-1.445 c -0.396,-0.473 -0.83,-0.522 -1.318,-0.141 l -0.326,0.266 m -1.134,0.895 1.133,-0.895 m -1.133,0.895 -0.215,0.164 c -0.469,0.396 -0.525,0.829 -0.129,1.302 l 1.162,1.446 c 0.311,0.415 0.691,0.513 1.107,0.275 m 10e-4,-0.001 c -0.07,0.274 -0.17,0.564 -0.311,0.856 l -1.238,2.518 c -0.66,1.353 -1.453,1.524 -2.365,0.509 -0.633,-0.686 -1.088,-1.49 -1.375,-2.426 l -1.688,-1.814 c -1.055,-1.129 -0.822,-1.869 0.705,-2.193 l 2.77,-0.586 c 0.564,-0.107 1.084,-0.13 1.576,-0.05 m 3.799,1.716 c -0.016,0 -0.016,0 -0.029,0.015 l -1.662,1.321 c -0.068,0.045 -0.129,0.089 -0.182,0.135"
         id="path369" />
      <path
         inkscape:connector-curvature="0"
         style="fill:#9dc517"
         d="m 691.52,80.916 1.264,2.527 c 0.25,0.502 0.404,1.008 0.439,1.499 l -0.336,-0.255 c -0.496,-0.369 -0.932,-0.305 -1.312,0.176 l -1.107,1.476 c -0.357,0.482 -0.293,0.9 0.158,1.284 -0.303,-0.01 -0.607,-0.049 -0.926,-0.116 l -2.74,-0.543 c -1.381,-0.286 -1.707,-0.975 -0.998,-2.069 0.469,-0.745 1.107,-1.433 1.924,-2.049 l 1.377,-2.102 c 0.837,-1.284 1.589,-1.222 2.257,0.172 l 0,0 z"
         id="path371" />
      <path
         inkscape:connector-curvature="0"
         style="fill:#9dc517"
         d="m 690.467,86.338 1.107,-1.476 c 0.381,-0.481 0.816,-0.544 1.312,-0.176 l 0.336,0.255 1.154,0.869 0.219,0.156 c 0.48,0.384 0.543,0.817 0.162,1.3 l -1.125,1.475 c -0.297,0.423 -0.674,0.527 -1.094,0.302 -0.057,-0.042 -0.119,-0.084 -0.189,-0.126 l -1.695,-1.279 c -0.016,-0.016 -0.016,-0.016 -0.029,-0.012 -0.451,-0.388 -0.516,-0.806 -0.158,-1.288 l 0,0 z"
         id="path373" />
      <path
         inkscape:connector-curvature="0"
         style="fill:#9dc517"
         d="m 694.596,85.966 -0.219,-0.156 c 0.49,-0.094 1.01,-0.087 1.574,0.008 l 2.783,0.512 c 1.539,0.285 1.791,1.018 0.768,2.174 l -1.641,1.859 c -0.262,0.943 -0.697,1.757 -1.311,2.461 -0.883,1.04 -1.68,0.89 -2.377,-0.446 l -1.307,-2.486 c -0.148,-0.287 -0.254,-0.574 -0.328,-0.849 0.42,0.226 0.797,0.121 1.094,-0.302 l 1.125,-1.475 c 0.382,-0.483 0.319,-0.916 -0.161,-1.3 l 0,0 z"
         id="path375" />
      <path
         inkscape:connector-curvature="0"
         style="fill:none;stroke:#388e36;stroke-width:0.96619999;stroke-linecap:round;stroke-linejoin:round;stroke-miterlimit:10"
         d="m 693.223,84.942 c -0.035,-0.491 -0.189,-0.996 -0.439,-1.499 l -1.264,-2.527 c -0.668,-1.394 -1.42,-1.456 -2.258,-0.173 l -1.377,2.102 c -0.816,0.616 -1.455,1.304 -1.924,2.049 -0.709,1.094 -0.383,1.783 0.998,2.069 l 2.74,0.543 c 0.318,0.067 0.623,0.105 0.926,0.116 m 0,0.003 c -0.451,-0.387 -0.516,-0.805 -0.158,-1.288 l 1.107,-1.476 c 0.381,-0.481 0.816,-0.544 1.312,-0.176 l 0.336,0.255 m 1.155,0.871 -1.154,-0.869 m 1.154,0.869 0.219,0.156 c 0.48,0.384 0.543,0.817 0.162,1.3 l -1.125,1.475 c -0.297,0.423 -0.674,0.527 -1.094,0.302 m 0,-10e-4 c 0.074,0.275 0.18,0.562 0.328,0.849 l 1.307,2.486 c 0.697,1.333 1.494,1.482 2.377,0.446 0.613,-0.704 1.049,-1.518 1.311,-2.461 l 1.641,-1.859 c 1.023,-1.156 0.771,-1.889 -0.768,-2.174 l -2.783,-0.512 c -0.564,-0.095 -1.084,-0.102 -1.574,-0.008 m -3.753,1.815 c 0.014,-0.003 0.014,-0.003 0.029,0.012 l 1.695,1.279 c 0.07,0.042 0.133,0.084 0.189,0.126"
         id="path377" />
      <path
         inkscape:connector-curvature="0"
         style="fill:#82110c"
         d="m 675.668,110.199 c -5.49,3.268 -12.646,5.705 -21.479,7.283 -5.018,0.902 -9.99,1.388 -14.916,1.453 -4.941,0.067 -9.926,-0.288 -14.967,-1.059 -8.867,-1.345 -16.09,-3.592 -21.658,-6.713 11.441,7.96 23.662,11.718 36.641,11.303 13.016,0.072 25.129,-4.008 36.379,-12.267 l 0,0 z"
         id="path379" />
      <path
         inkscape:connector-curvature="0"
         style="fill:#ffffff"
         d="m 604.652,59.368 v 0.016 c -4.238,4.205 -6.328,9.25 -6.248,15.137 0.078,5.884 2.297,10.872 6.648,14.949 h 0.016 c 4.332,4.122 9.537,6.137 15.625,6.056 6.055,-0.079 11.203,-2.23 15.441,-6.466 1.086,-1.069 2.025,-2.196 2.822,-3.364 l -0.312,-23.408 c -0.824,-1.159 -1.791,-2.275 -2.906,-3.314 V 58.96 c -4.35,-4.093 -9.553,-6.092 -15.609,-6.013 -6.086,0.079 -11.236,2.216 -15.477,6.421 l 0,0 z"
         id="path381" />
      <path
         inkscape:connector-curvature="0"
         style="fill:#ffffff"
         d="m 641.377,58.883 v 0.015 c -1.068,1.069 -2.008,2.21 -2.816,3.391 l 0.309,23.407 c 0.84,1.146 1.809,2.245 2.906,3.288 4.352,4.121 9.568,6.134 15.623,6.055 6.074,-0.082 11.225,-2.23 15.461,-6.466 h 0.016 c 4.238,-4.192 6.312,-9.238 6.232,-15.122 -0.076,-5.885 -2.281,-10.873 -6.631,-14.967 l -0.002,-0.012 c -4.348,-4.093 -9.564,-6.093 -15.639,-6.013 -6.057,0.082 -11.221,2.218 -15.459,6.424 l 0,0 z"
         id="path383" />
      <path
         inkscape:connector-curvature="0"
         d="m 645.689,71.56 c 1.352,-1.768 3.117,-2.788 5.299,-3.065 2.191,-0.287 4.168,0.236 5.92,1.573 1.768,1.349 2.787,3.101 3.061,5.28 0.293,2.181 -0.234,4.154 -1.57,5.906 -1.352,1.768 -3.1,2.79 -5.281,3.065 -2.18,0.287 -4.15,-0.235 -5.904,-1.572 -1.766,-1.319 -2.791,-3.087 -3.062,-5.28 -0.306,-2.179 0.202,-4.155 1.537,-5.907 l 0,0 z"
         id="path385" />
      <path
         inkscape:connector-curvature="0"
         d="m 631.818,71.646 c -1.398,-1.73 -3.186,-2.706 -5.373,-2.924 -2.203,-0.23 -4.16,0.346 -5.875,1.728 -1.732,1.396 -2.709,3.174 -2.924,5.36 -0.23,2.186 0.342,4.146 1.725,5.864 1.396,1.73 3.174,2.704 5.361,2.921 2.188,0.232 4.145,-0.344 5.863,-1.726 1.732,-1.369 2.705,-3.159 2.92,-5.359 0.249,-2.188 -0.31,-4.146 -1.697,-5.864 l 0,0 z"
         id="path387" />
      <path
         inkscape:connector-curvature="0"
         style="fill:#5fc2cf"
         d="m 638.66,65.861 -0.002,-0.104 c 8.166,-9.028 17.578,-11.165 28.211,-6.402 9.779,4.353 13.486,11.348 11.139,20.995 0.738,-2.181 1.1,-4.499 1.066,-6.971 -0.078,-5.884 -2.299,-10.872 -6.65,-14.964 V 58.4 c -4.346,-4.095 -9.549,-6.092 -15.637,-6.011 -6.057,0.08 -11.207,2.217 -15.445,6.422 v 0.015 c -1.07,1.054 -1.994,2.166 -2.775,3.319 -0.826,-1.131 -1.779,-2.217 -2.877,-3.245 v -0.015 c -4.352,-4.092 -9.557,-6.092 -15.609,-6.01 -6.09,0.079 -11.24,2.215 -15.477,6.421 v 0.015 c -4.238,4.206 -6.328,9.253 -6.248,15.138 0.033,2.473 0.455,4.78 1.246,6.939 -2.598,-9.583 0.922,-16.672 10.582,-21.282 10.502,-5.042 19.971,-3.156 28.373,5.654 v 0.102 c 0.014,-0.015 0.043,-0.046 0.059,-0.06 0.015,0.013 0.029,0.044 0.044,0.059 l 0,0 z"
         id="path389" />
      <path
         inkscape:connector-curvature="0"
         style="fill:#ab6514"
         d="m 659.305,51.489 c -0.781,-1.248 -1.693,-1.324 -2.707,-0.225 l -4.777,5.052 -3.121,-4.052 c -0.896,-1.159 -1.732,-1.077 -2.539,0.235 l -1.613,2.652 c -1.303,0.857 -2.535,1.873 -3.719,3.031 -0.773,0.748 -1.541,1.552 -2.326,2.4 -0.016,-0.014 -0.031,-0.028 -0.045,-0.042 l 0.002,0.088 c -0.719,-0.845 -1.467,-1.645 -2.273,-2.387 -1.215,-1.124 -2.471,-2.106 -3.799,-2.929 l -1.684,-2.609 c -0.84,-1.29 -1.678,-1.352 -2.545,-0.169 l -3.012,4.132 -4.908,-4.923 c -1.039,-1.073 -1.951,-0.974 -2.701,0.297 l -2.814,4.765 -5.432,-2.748 c -1.367,-0.69 -2.217,-0.346 -2.529,1.017 l -1.326,5.815 -7.66,-0.607 c -1.316,-0.141 -1.584,0.411 -0.832,1.632 l 2.941,4.79 -7.326,2.266 c -1.254,0.378 -1.332,1.13 -0.219,2.245 l 4.469,4.454 -5.227,6.111 c -0.953,1.1 -0.658,1.673 0.922,1.725 l 8.129,0.297 c -0.619,-2.018 -0.949,-4.183 -0.982,-6.496 -0.068,-4.987 1.859,-9.265 5.76,-12.845 3.93,-3.594 8.732,-5.437 14.416,-5.513 3.646,-0.047 6.963,0.661 9.945,2.112 1.676,0.73 3.191,1.735 4.553,3.017 0.514,0.473 1.014,0.943 1.494,1.441 h 0.014 c 1.113,1.173 2.031,2.433 2.744,3.768 0.832,-1.414 1.77,-2.698 2.797,-3.839 h 0.016 c 0.469,-0.513 0.955,-0.998 1.455,-1.481 1.326,-1.319 2.816,-2.364 4.467,-3.139 2.943,-1.527 6.246,-2.324 9.889,-2.371 5.682,-0.077 10.537,1.638 14.559,5.125 3.994,3.476 6.029,7.701 6.098,12.69 0.029,2.314 -0.248,4.484 -0.812,6.517 l 8.119,-0.512 c 1.574,-0.094 1.857,-0.675 0.875,-1.748 L 680.658,74.558 685,69.99 c 1.084,-1.144 0.99,-1.894 -0.273,-2.237 l -7.391,-2.072 2.816,-4.868 c 0.719,-1.24 0.438,-1.784 -0.875,-1.608 l -7.641,0.809 -1.479,-5.777 c -0.352,-1.357 -1.209,-1.676 -2.555,-0.951 l -5.357,2.892 -2.941,-4.691 v 0.002 z"
         id="path391" />
      <path
         inkscape:connector-curvature="0"
         style="fill:#e7467d"
         d="m 648.557,92.211 c -0.025,-1.807 -1,-3.341 -2.926,-4.616 -1.881,-1.277 -4.158,-1.896 -6.834,-1.862 -2.691,0.035 -4.965,0.715 -6.842,2.043 -1.863,1.326 -2.781,2.886 -2.756,4.693 0.021,1.835 0.98,3.383 2.879,4.646 1.912,1.292 4.205,1.912 6.893,1.877 2.674,-0.038 4.936,-0.718 6.785,-2.058 1.889,-1.311 2.826,-2.885 2.801,-4.723 l 0,0 z"
         id="path393" />
      <path
         inkscape:connector-curvature="0"
         style="fill:#f18900"
         d="m 650.641,136.9 c -8.115,-1.562 -16.035,-1.049 -23.779,1.525 l 0.85,13.103 4.703,3.708 15.107,-0.978 3.971,-4.213 -0.852,-13.145 0,0 z"
         id="path395" />
      <path
         inkscape:connector-curvature="0"
         style="fill:#fbe000"
         d="m 621.93,143.864 c -0.088,-0.102 -0.178,-0.171 -0.242,-0.208 -0.271,-0.146 -0.465,0 -0.562,0.433 l -0.592,2.274 -2.488,1.082 c -0.492,0.23 -0.562,0.479 -0.223,0.743 0.039,0.024 0.082,0.057 0.129,0.091 l 0.236,0.154 c 0.018,0.017 0.045,0.033 0.074,0.06 0.1,0.054 0.209,0.116 0.309,0.19 0.322,0.201 0.633,0.414 0.959,0.634 0.045,0.034 0.1,0.067 0.152,0.086 l 0.469,0.309 0.275,2.379 c -0.004,0.232 0.029,0.396 0.104,0.493 0.119,0.094 0.318,0.059 0.59,-0.119 l 2.232,-1.854 0.035,0.003 c 0.469,0.077 0.93,0.156 1.402,0.232 l 1.275,0.188 0.17,0.025 c 0.523,0.014 0.664,-0.221 0.406,-0.691 l -1.055,-2.223 1.158,-2.352 c 0.139,-0.256 0.166,-0.438 0.084,-0.542 -0.096,-0.089 -0.279,-0.119 -0.535,-0.094 l -2.695,0.354 -0.043,-0.033 -1.625,-1.614 v 0 z"
         id="path397" />
      <path
         inkscape:connector-curvature="0"
         style="fill:#fbe000"
         d="m 626.199,151.058 c 0.012,0.008 0.023,0.004 0.035,0.003 l -0.17,-0.025 0.135,0.022 0,0 z"
         id="path399" />
      <path
         inkscape:connector-curvature="0"
         style="fill:none;stroke:#6b7d27;stroke-width:0.74290001;stroke-linecap:round;stroke-linejoin:round;stroke-miterlimit:10"
         d="m 621.93,143.864 1.625,1.616 0.043,0.033 2.695,-0.354 c 0.256,-0.025 0.439,0.004 0.535,0.094 0.082,0.104 0.055,0.285 -0.084,0.542 l -1.158,2.352 1.055,2.223 c 0.258,0.471 0.117,0.706 -0.406,0.691 l -0.17,-0.025 -1.275,-0.188 c -0.473,-0.076 -0.934,-0.155 -1.402,-0.232 l -0.035,-0.003 -2.232,1.854 c -0.271,0.178 -0.471,0.211 -0.59,0.117 -0.074,-0.094 -0.107,-0.259 -0.104,-0.491 l -0.275,-2.379 -0.469,-0.309 c -0.053,-0.023 -0.107,-0.052 -0.152,-0.086 -0.326,-0.22 -0.637,-0.433 -0.959,-0.634 -0.1,-0.075 -0.209,-0.136 -0.309,-0.19 -0.029,-0.027 -0.055,-0.042 -0.074,-0.06 l -0.236,-0.154 c -0.047,-0.034 -0.09,-0.069 -0.129,-0.091 -0.34,-0.263 -0.27,-0.515 0.223,-0.743 l 2.488,-1.084 0.592,-2.274 c 0.098,-0.431 0.291,-0.577 0.562,-0.431 0.063,0.035 0.153,0.105 0.241,0.206 l 0,0 z"
         id="path401" />
      <path
         inkscape:connector-curvature="0"
         style="fill:#fbe000"
         d="m 657.236,141.537 c 0.07,-0.111 0.148,-0.19 0.211,-0.238 0.25,-0.178 0.459,-0.059 0.613,0.356 l 0.881,2.181 2.609,0.753 c 0.518,0.164 0.615,0.401 0.312,0.706 -0.033,0.029 -0.072,0.068 -0.113,0.106 l -0.217,0.184 c -0.016,0.02 -0.039,0.039 -0.066,0.068 -0.088,0.066 -0.188,0.144 -0.279,0.231 -0.293,0.24 -0.576,0.489 -0.875,0.752 -0.035,0.04 -0.088,0.077 -0.135,0.104 l -0.422,0.367 0.027,2.396 c 0.035,0.23 0.025,0.397 -0.033,0.5 -0.109,0.109 -0.309,0.102 -0.604,-0.042 l -2.451,-1.55 -0.035,0.008 c -0.455,0.135 -0.904,0.274 -1.361,0.413 l -1.24,0.352 -0.162,0.045 c -0.518,0.081 -0.691,-0.134 -0.494,-0.633 l 0.758,-2.34 -1.449,-2.183 c -0.17,-0.238 -0.223,-0.413 -0.154,-0.527 0.084,-0.099 0.258,-0.153 0.52,-0.161 l 2.719,0.006 0.037,-0.041 1.403,-1.813 0,0 z"
         id="path403" />
      <path
         inkscape:connector-curvature="0"
         style="fill:#fbe000"
         d="m 653.93,149.221 c -0.012,0.01 -0.021,0.008 -0.033,0.008 l 0.162,-0.045 -0.129,0.037 0,0 z"
         id="path405" />
      <path
         inkscape:connector-curvature="0"
         style="fill:none;stroke:#6b7d27;stroke-width:0.74290001;stroke-linecap:round;stroke-linejoin:round;stroke-miterlimit:10"
         d="m 657.236,141.537 -1.404,1.812 -0.037,0.041 -2.719,-0.006 c -0.258,0.008 -0.436,0.062 -0.52,0.161 -0.068,0.115 -0.016,0.29 0.154,0.527 l 1.449,2.183 -0.758,2.34 c -0.197,0.499 -0.023,0.714 0.494,0.633 l 0.162,-0.045 1.24,-0.352 c 0.457,-0.139 0.906,-0.278 1.361,-0.413 l 0.035,-0.008 2.451,1.552 c 0.295,0.142 0.494,0.149 0.604,0.04 0.059,-0.103 0.068,-0.27 0.033,-0.5 l -0.027,-2.396 0.422,-0.367 c 0.047,-0.027 0.1,-0.064 0.135,-0.104 0.299,-0.261 0.582,-0.512 0.875,-0.752 0.092,-0.087 0.191,-0.165 0.279,-0.231 0.027,-0.029 0.051,-0.047 0.066,-0.068 l 0.217,-0.182 c 0.041,-0.04 0.08,-0.079 0.113,-0.106 0.303,-0.307 0.205,-0.544 -0.312,-0.708 l -2.609,-0.753 -0.881,-2.181 c -0.154,-0.415 -0.363,-0.534 -0.613,-0.356 -0.062,0.047 -0.141,0.126 -0.211,0.24 v -0.001 z"
         id="path407" />
      <path
         inkscape:connector-curvature="0"
         style="fill:#ce2120"
         d="m 629.59,150.305 c -0.049,-0.792 -0.365,-1.453 -0.953,-1.98 -0.596,-0.512 -1.309,-0.74 -2.102,-0.69 -0.791,0.051 -1.441,0.369 -1.953,0.953 -0.541,0.601 -0.785,1.296 -0.734,2.091 0.055,0.823 0.385,1.496 1,1.994 0.584,0.542 1.268,0.788 2.059,0.734 0.797,-0.052 1.469,-0.386 1.994,-0.999 0.515,-0.571 0.744,-1.279 0.689,-2.103 l 0,0 z"
         id="path409" />
      <path
         inkscape:connector-curvature="0"
         style="fill:none;stroke:#921113;stroke-width:0.96619999;stroke-linecap:round;stroke-linejoin:round;stroke-miterlimit:10"
         d="m 629.59,150.305 c 0.055,0.825 -0.174,1.532 -0.689,2.103 -0.525,0.613 -1.197,0.947 -1.994,0.999 -0.791,0.053 -1.475,-0.192 -2.059,-0.734 -0.615,-0.498 -0.945,-1.171 -1,-1.994 -0.051,-0.794 0.193,-1.49 0.734,-2.091 0.512,-0.584 1.162,-0.902 1.953,-0.953 0.793,-0.05 1.506,0.178 2.102,0.69 0.588,0.527 0.904,1.188 0.953,1.98 l 0,0 z"
         id="path411" />
      <path
         inkscape:connector-curvature="0"
         style="fill:#ce2120"
         d="m 655.943,148.533 c -0.053,-0.795 -0.371,-1.453 -0.955,-1.983 -0.6,-0.51 -1.309,-0.74 -2.102,-0.688 -0.795,0.052 -1.439,0.369 -1.953,0.95 -0.539,0.602 -0.783,1.297 -0.732,2.092 0.053,0.822 0.385,1.499 1,1.993 0.584,0.542 1.266,0.788 2.059,0.735 0.793,-0.052 1.469,-0.383 1.996,-0.998 0.51,-0.569 0.742,-1.28 0.687,-2.101 l 0,0 z"
         id="path413" />
      <path
         inkscape:connector-curvature="0"
         style="fill:none;stroke:#921113;stroke-width:0.96619999;stroke-linecap:round;stroke-linejoin:round;stroke-miterlimit:10"
         d="m 655.943,148.533 c 0.055,0.821 -0.178,1.532 -0.688,2.101 -0.527,0.614 -1.203,0.948 -1.996,0.998 -0.793,0.052 -1.475,-0.193 -2.059,-0.735 -0.615,-0.494 -0.947,-1.171 -1,-1.993 -0.051,-0.795 0.193,-1.49 0.732,-2.089 0.514,-0.584 1.158,-0.901 1.953,-0.953 0.793,-0.052 1.502,0.179 2.102,0.688 0.585,0.53 0.904,1.188 0.956,1.983 l 0,0 z"
         id="path415" />
      <path
         inkscape:connector-curvature="0"
         style="fill:#6f53a0"
         d="m 634.787,152.458 c -0.053,-0.792 -0.369,-1.453 -0.955,-1.979 -0.6,-0.512 -1.311,-0.741 -2.105,-0.691 -0.789,0.052 -1.438,0.369 -1.947,0.953 -0.545,0.602 -0.787,1.298 -0.738,2.092 0.055,0.822 0.391,1.495 1,1.993 0.584,0.542 1.268,0.787 2.064,0.735 0.793,-0.052 1.465,-0.387 1.988,-1 0.515,-0.57 0.744,-1.278 0.693,-2.103 l 0,0 z"
         id="path417" />
      <path
         inkscape:connector-curvature="0"
         style="fill:none;stroke:#352082;stroke-width:0.96619999;stroke-linecap:round;stroke-linejoin:round;stroke-miterlimit:10"
         d="m 634.787,152.458 c 0.051,0.825 -0.178,1.533 -0.693,2.103 -0.523,0.613 -1.195,0.948 -1.988,1 -0.797,0.052 -1.48,-0.193 -2.064,-0.735 -0.609,-0.498 -0.945,-1.171 -1,-1.993 -0.049,-0.794 0.193,-1.49 0.738,-2.092 0.51,-0.583 1.158,-0.9 1.947,-0.953 0.795,-0.049 1.506,0.179 2.105,0.691 0.586,0.526 0.902,1.187 0.955,1.979 l 0,0 z"
         id="path419" />
      <path
         inkscape:connector-curvature="0"
         style="fill:#9dc517"
         d="m 650.047,149.466 c -0.598,-0.512 -1.307,-0.743 -2.102,-0.691 -0.795,0.052 -1.439,0.369 -1.953,0.953 -0.539,0.599 -0.783,1.297 -0.732,2.089 0.055,0.822 0.385,1.499 1,1.993 0.584,0.542 1.268,0.788 2.061,0.735 0.791,-0.05 1.467,-0.383 1.994,-0.998 0.51,-0.57 0.742,-1.28 0.688,-2.102 -0.054,-0.793 -0.372,-1.455 -0.956,-1.979 l 0,0 z"
         id="path421" />
      <path
         inkscape:connector-curvature="0"
         style="fill:none;stroke:#388e36;stroke-width:0.96619999;stroke-linecap:round;stroke-linejoin:round;stroke-miterlimit:10"
         d="m 650.047,149.466 c 0.584,0.524 0.902,1.186 0.955,1.98 0.055,0.822 -0.178,1.532 -0.688,2.102 -0.527,0.614 -1.203,0.948 -1.994,0.998 -0.793,0.052 -1.477,-0.193 -2.061,-0.735 -0.615,-0.494 -0.945,-1.171 -1,-1.993 -0.051,-0.792 0.193,-1.49 0.732,-2.089 0.514,-0.584 1.158,-0.901 1.953,-0.953 0.796,-0.053 1.505,0.178 2.103,0.69 l 0,0 z"
         id="path423" />
      <path
         inkscape:connector-curvature="0"
         style="fill:#fbe000"
         d="m 640.525,149.74 c -0.078,-0.153 -0.172,-0.265 -0.252,-0.332 -0.307,-0.255 -0.59,-0.121 -0.826,0.401 l -1.361,2.741 -3.463,0.717 c -0.682,0.159 -0.834,0.46 -0.475,0.886 0.045,0.04 0.092,0.094 0.141,0.148 l 0.262,0.258 c 0.018,0.029 0.051,0.057 0.078,0.1 0.111,0.093 0.234,0.2 0.342,0.323 0.355,0.339 0.697,0.694 1.057,1.062 0.043,0.053 0.104,0.109 0.166,0.148 l 0.51,0.517 -0.275,3.104 c -0.068,0.295 -0.07,0.513 0,0.651 0.123,0.154 0.387,0.163 0.783,0.008 l 3.332,-1.765 0.043,0.01 c 0.582,0.224 1.148,0.447 1.727,0.672 l 1.572,0.577 0.207,0.075 c 0.662,0.161 0.906,-0.102 0.705,-0.77 l -0.75,-3.109 2.098,-2.688 c 0.244,-0.291 0.328,-0.513 0.25,-0.669 -0.1,-0.139 -0.324,-0.223 -0.658,-0.26 l -3.521,-0.265 -0.051,-0.054 -1.641,-2.486 0,0 z"
         id="path425" />
      <path
         inkscape:connector-curvature="0"
         style="fill:#fbe000"
         d="m 644.049,160.031 c 0.016,0.015 0.031,0.012 0.043,0.012 l -0.207,-0.075 0.164,0.063 0,0 z"
         id="path427" />
      <path
         inkscape:connector-curvature="0"
         style="fill:none;stroke:#6b7d27;stroke-width:0.96619999;stroke-linecap:round;stroke-linejoin:round;stroke-miterlimit:10"
         d="m 640.525,149.74 1.639,2.488 0.051,0.054 3.521,0.265 c 0.334,0.038 0.559,0.122 0.658,0.26 0.078,0.156 -0.006,0.378 -0.25,0.669 l -2.098,2.688 0.75,3.109 c 0.201,0.668 -0.043,0.931 -0.705,0.77 l -0.207,-0.075 -1.572,-0.577 c -0.578,-0.225 -1.145,-0.448 -1.727,-0.672 l -0.043,-0.01 -3.332,1.765 c -0.396,0.155 -0.66,0.146 -0.783,-0.008 -0.07,-0.139 -0.068,-0.356 0,-0.651 l 0.275,-3.104 -0.51,-0.517 c -0.062,-0.04 -0.123,-0.095 -0.166,-0.148 -0.359,-0.369 -0.701,-0.723 -1.057,-1.062 -0.107,-0.124 -0.23,-0.23 -0.342,-0.323 -0.027,-0.043 -0.061,-0.07 -0.078,-0.1 l -0.262,-0.258 c -0.049,-0.054 -0.096,-0.109 -0.141,-0.148 -0.359,-0.426 -0.207,-0.728 0.475,-0.886 l 3.463,-0.717 1.361,-2.741 c 0.236,-0.522 0.52,-0.656 0.826,-0.401 0.083,0.066 0.176,0.177 0.254,0.33 l 0,0 z"
         id="path429" />
      <path
         inkscape:connector-curvature="0"
         style="fill:#d04215"
         d="m 691.695,132.423 c 0.844,-0.898 2.131,-1.167 3.844,-0.817 1.408,0.537 2.24,1.467 2.471,2.799 0.168,1.696 -0.391,3.761 -1.701,6.218 l -1.322,0.512 c 0.227,0.688 1.02,1.045 2.35,1.084 4.436,-0.527 8.363,-0.617 11.775,-0.26 2.9,0.706 4.129,2.406 3.684,5.099 -0.377,1.038 -1.229,1.884 -2.596,2.533 -4.738,-1.845 -8.422,-2.553 -11.055,-2.099 -0.471,0.805 -0.605,1.186 -0.416,1.175 3.662,0.51 6.738,1.482 9.197,2.917 1.164,0.748 2.002,1.658 2.502,2.726 0.479,1.061 0.465,2.124 -0.055,3.159 -0.529,1.042 -1.174,1.614 -1.938,1.718 -0.951,0.012 -2.084,-0.275 -3.389,-0.85 -2.359,-2.453 -4.889,-3.928 -7.57,-4.433 l -0.416,1.423 c 3.4,1.698 5.387,3.119 5.955,4.277 0.719,1.409 0.787,2.644 0.215,3.699 -0.578,1.057 -1.408,1.638 -2.471,1.745 -2.016,-0.201 -4.592,-1.963 -7.727,-5.246 -4.85,-1.633 -7.623,-4.163 -8.311,-7.589 l -1.748,0.245 c 0.318,2.072 1.139,3.778 2.451,5.132 1.484,1.512 3.793,2.879 6.904,4.11 1.357,1.554 2.705,2.881 4.061,3.97 1.393,1.135 2.758,1.718 4.109,1.74 l 0.082,0.012 c 0.066,-0.029 0.1,-0.034 0.137,-0.007 l 0.051,-0.054 c 1.078,-0.064 1.955,-0.305 2.645,-0.733 0.721,-0.433 1.336,-1.142 1.865,-2.112 0.525,-1.002 0.779,-2.007 0.746,-3.018 0.863,0.286 1.646,0.382 2.322,0.305 1.658,-0.074 3,-1.08 4.025,-3.047 1.023,-1.987 1.074,-3.844 0.172,-5.565 -0.291,-0.575 -0.604,-1.062 -0.959,-1.428 0.068,-0.031 0.203,-0.092 0.4,-0.165 1.396,-0.582 2.418,-1.888 3.076,-3.914 l 0.004,-0.165 c 0.465,-2.171 0.23,-3.909 -0.713,-5.189 -0.926,-1.258 -2.59,-2.181 -4.977,-2.772 l -0.154,-0.015 c -1.688,-0.19 -3.285,-0.232 -4.777,-0.122 -1.57,0.119 -3.475,0.423 -5.697,0.924 0.725,-1.345 1.232,-2.441 1.518,-3.308 0.328,-1.002 0.438,-1.866 0.305,-2.591 -0.301,-2.37 -1.709,-4.045 -4.258,-5.038 l -0.336,-0.097 c -2.859,-0.596 -5.002,-0.012 -6.428,1.748 -0.672,0.718 -1.162,1.624 -1.467,2.681 -0.318,1.069 -0.469,2.443 -0.449,4.124 -0.865,0.998 -1.539,1.893 -2.004,2.708 -0.516,0.891 -0.744,1.589 -0.705,2.113 l 1.156,0.861 c 0.41,-1.188 1.771,-2.76 4.072,-4.685 0.147,-3.185 0.666,-5.327 1.545,-6.438 l 0,0 z"
         id="path431" />
      <path
         inkscape:connector-curvature="0"
         style="fill:#f18900"
         d="m 695.539,131.606 c -1.713,-0.35 -3,-0.082 -3.844,0.817 -0.879,1.111 -1.398,3.253 -1.543,6.441 -2.301,1.925 -3.662,3.497 -4.072,4.685 -0.58,1.937 -0.977,3.434 -1.18,4.491 -0.291,1.547 -0.352,2.946 -0.178,4.173 0.688,3.426 3.461,5.956 8.311,7.589 3.135,3.283 5.711,5.045 7.727,5.246 1.062,-0.107 1.893,-0.688 2.471,-1.745 0.572,-1.055 0.504,-2.288 -0.215,-3.699 -0.568,-1.159 -2.555,-2.579 -5.955,-4.277 l 0.416,-1.423 c 2.682,0.505 5.211,1.98 7.57,4.433 1.305,0.575 2.438,0.862 3.389,0.85 0.764,-0.104 1.408,-0.674 1.938,-1.716 0.52,-1.035 0.533,-2.1 0.055,-3.161 -0.5,-1.064 -1.338,-1.978 -2.502,-2.726 -2.459,-1.432 -5.535,-2.406 -9.197,-2.917 -0.189,0.013 -0.055,-0.371 0.416,-1.173 2.633,-0.456 6.316,0.252 11.055,2.097 1.367,-0.648 2.219,-1.495 2.596,-2.533 0.445,-2.693 -0.783,-4.392 -3.684,-5.099 -3.412,-0.357 -7.34,-0.264 -11.775,0.26 -1.33,-0.04 -2.123,-0.394 -2.35,-1.084 l 1.322,-0.509 c 1.311,-2.46 1.869,-4.522 1.701,-6.219 -0.232,-1.33 -1.064,-2.264 -2.472,-2.801 l 0,0 z"
         id="path433" />
      <path
         inkscape:connector-curvature="0"
         style="fill:#d04215"
         d="m 586.215,133.65 c -0.936,-0.804 -2.244,-0.938 -3.912,-0.411 -1.34,0.681 -2.072,1.696 -2.162,3.042 0.006,1.706 0.781,3.699 2.336,6.008 l 1.373,0.369 c -0.154,0.711 -0.906,1.149 -2.225,1.324 -4.465,-0.059 -8.379,0.26 -11.736,0.968 -2.812,1.005 -3.852,2.825 -3.131,5.456 0.48,0.993 1.418,1.745 2.844,2.248 4.52,-2.327 8.109,-3.417 10.771,-3.238 0.555,0.75 0.729,1.116 0.539,1.124 -3.594,0.891 -6.549,2.179 -8.848,3.862 -1.078,0.865 -1.812,1.857 -2.201,2.968 -0.365,1.106 -0.238,2.163 0.385,3.136 0.637,0.982 1.334,1.483 2.104,1.507 0.951,-0.089 2.047,-0.492 3.287,-1.198 2.092,-2.686 4.449,-4.416 7.062,-5.198 l 0.564,1.374 c -3.207,2.045 -5.037,3.662 -5.479,4.872 -0.562,1.478 -0.502,2.713 0.176,3.703 0.682,0.99 1.568,1.481 2.639,1.478 1.984,-0.41 4.359,-2.433 7.133,-6.022 4.654,-2.131 7.15,-4.936 7.477,-8.414 l 1.764,0.062 c -0.1,2.095 -0.738,3.876 -1.904,5.357 -1.318,1.66 -3.469,3.259 -6.438,4.807 -1.188,1.688 -2.393,3.146 -3.625,4.371 -1.264,1.276 -2.564,1.999 -3.906,2.162 l -0.078,0.019 c -0.07,-0.021 -0.105,-0.024 -0.137,0.006 l -0.059,-0.047 c -1.072,0.047 -1.975,-0.102 -2.703,-0.453 -0.768,-0.354 -1.447,-0.995 -2.074,-1.906 -0.627,-0.944 -0.984,-1.914 -1.059,-2.923 -0.834,0.374 -1.6,0.549 -2.277,0.545 -1.66,0.099 -3.1,-0.76 -4.318,-2.612 -1.227,-1.869 -1.477,-3.711 -0.758,-5.516 0.234,-0.602 0.496,-1.116 0.809,-1.52 -0.07,-0.025 -0.207,-0.072 -0.414,-0.122 -1.453,-0.433 -2.602,-1.624 -3.469,-3.572 l -0.023,-0.163 c -0.689,-2.112 -0.633,-3.865 0.172,-5.236 0.787,-1.347 2.348,-2.436 4.658,-3.277 l 0.154,-0.03 c 1.66,-0.364 3.244,-0.572 4.736,-0.617 1.576,-0.044 3.502,0.057 5.764,0.324 -0.861,-1.262 -1.479,-2.299 -1.855,-3.13 -0.43,-0.963 -0.627,-1.81 -0.574,-2.545 0.055,-2.387 1.279,-4.201 3.715,-5.456 l 0.324,-0.128 c 2.779,-0.892 4.973,-0.533 6.57,1.066 0.748,0.646 1.328,1.496 1.738,2.515 0.432,1.03 0.725,2.379 0.877,4.052 0.965,0.904 1.729,1.726 2.273,2.488 0.607,0.832 0.904,1.502 0.922,2.027 l -1.061,0.975 c -0.531,-1.136 -2.049,-2.557 -4.537,-4.235 -0.475,-3.153 -1.219,-5.23 -2.203,-6.246 l 0,0 z"
         id="path435" />
      <path
         inkscape:connector-curvature="0"
         style="fill:#f18900"
         d="m 582.303,133.239 c 1.668,-0.527 2.977,-0.393 3.912,0.411 0.984,1.015 1.729,3.092 2.203,6.246 2.488,1.678 4.006,3.099 4.537,4.235 0.781,1.864 1.336,3.314 1.643,4.341 0.453,1.511 0.658,2.895 0.613,4.135 -0.326,3.478 -2.822,6.282 -7.477,8.414 -2.773,3.591 -5.148,5.613 -7.133,6.022 -1.07,0.003 -1.957,-0.488 -2.639,-1.478 -0.678,-0.99 -0.738,-2.225 -0.176,-3.7 0.441,-1.213 2.271,-2.83 5.479,-4.875 l -0.564,-1.374 c -2.613,0.785 -4.971,2.512 -7.062,5.198 -1.24,0.706 -2.336,1.109 -3.287,1.198 -0.77,-0.024 -1.467,-0.525 -2.104,-1.505 -0.623,-0.976 -0.75,-2.032 -0.385,-3.136 0.389,-1.112 1.123,-2.106 2.201,-2.971 2.299,-1.683 5.254,-2.971 8.848,-3.859 0.189,-0.01 0.016,-0.376 -0.539,-1.126 -2.662,-0.178 -6.252,0.911 -10.771,3.238 -1.426,-0.502 -2.363,-1.255 -2.844,-2.248 -0.721,-2.631 0.318,-4.451 3.131,-5.456 3.357,-0.708 7.271,-1.027 11.736,-0.968 1.318,-0.175 2.07,-0.613 2.225,-1.322 l -1.373,-0.371 c -1.555,-2.31 -2.33,-4.302 -2.336,-6.008 0.089,-1.345 0.822,-2.36 2.162,-3.041 l 0,0 z"
         id="path437" />
    </g>
  </g>
</svg>
