<?xml version="1.0" encoding="UTF-8" standalone="no"?>
<!-- Created with Inkscape (http://www.inkscape.org/) -->

<svg
   xmlns:dc="http://purl.org/dc/elements/1.1/"
   xmlns:cc="http://creativecommons.org/ns#"
   xmlns:rdf="http://www.w3.org/1999/02/22-rdf-syntax-ns#"
   xmlns:svg="http://www.w3.org/2000/svg"
   xmlns="http://www.w3.org/2000/svg"
   xmlns:sodipodi="http://sodipodi.sourceforge.net/DTD/sodipodi-0.dtd"
   xmlns:inkscape="http://www.inkscape.org/namespaces/inkscape"
   width="191.9375"
   height="176.07167"
   id="svg5696"
   version="1.1"
   inkscape:version="0.48.4 r9939"
   sodipodi:docname="zoe4.svg">
  <defs
     id="defs5698">
    <clipPath
       id="SVGID_2_">
      <rect
         height="88.862999"
         width="111.498"
         y="518.96198"
         x="382.04999"
         id="use1087" />
    </clipPath>
    <clipPath
       id="SVGID_4_">
      <rect
         height="41.314999"
         width="49.584999"
         y="525.19397"
         x="389.84698"
         id="use1111" />
    </clipPath>
  </defs>
  <sodipodi:namedview
     id="base"
     pagecolor="#ffffff"
     bordercolor="#666666"
     borderopacity="1.0"
     inkscape:pageopacity="0.0"
     inkscape:pageshadow="2"
     inkscape:zoom="0.77472527"
     inkscape:cx="193.96837"
     inkscape:cy="143.15634"
     inkscape:current-layer="layer1"
     inkscape:document-units="px"
     showgrid="false"
     inkscape:window-width="763"
     inkscape:window-height="591"
     inkscape:window-x="592"
     inkscape:window-y="97"
     inkscape:window-maximized="0"
     fit-margin-top="0"
     fit-margin-left="0"
     fit-margin-right="0"
     fit-margin-bottom="0" />
  <metadata
     id="metadata5701">
    <rdf:RDF>
      <cc:Work
         rdf:about="">
        <dc:format>image/svg+xml</dc:format>
        <dc:type
           rdf:resource="http://purl.org/dc/dcmitype/StillImage" />
        <dc:title></dc:title>
      </cc:Work>
    </rdf:RDF>
  </metadata>
  <g
     id="layer1"
     inkscape:label="Layer 1"
     inkscape:groupmode="layer"
     transform="translate(-123.97493,-52.191035)">
    <g
       transform="translate(7.0686795,-246.23565)"
       id="g1585">
      <g
         id="g1587">
        <path
           inkscape:connector-curvature="0"
           style="fill:#d17d30"
           d="m 236.543,417.132 c -1.065,-2.922 -2.435,-6.757 -4.139,-11.475 -1.674,-4.718 -3.288,-7.944 -4.809,-9.679 -1.582,-1.705 -6.179,-2.222 -13.849,-1.492 -7.67,0.7 -12.509,1.918 -14.517,3.562 -2.041,1.674 -4.02,5.267 -5.966,10.775 -1.949,5.509 -3.379,10.073 -4.323,13.729 -2.434,7.425 -0.668,13.694 5.388,18.839 5.418,4.596 12.297,6.999 20.698,7.152 8.643,0.15 15.185,-2.253 19.569,-7.215 5.113,-5.782 5.783,-13.816 1.948,-24.196"
           id="path1589" />
        <path
           inkscape:connector-curvature="0"
           style="fill:none;stroke:#d04215;stroke-width:2.63960004;stroke-linecap:square;stroke-miterlimit:10"
           d="m 236.543,417.132 c 3.835,10.38 3.165,18.414 -1.948,24.196 -4.384,4.962 -10.926,7.365 -19.569,7.215 -8.401,-0.153 -15.28,-2.557 -20.698,-7.152 -6.056,-5.145 -7.821,-11.414 -5.388,-18.839 0.944,-3.655 2.375,-8.22 4.323,-13.729 1.946,-5.509 3.926,-9.102 5.966,-10.775 2.008,-1.644 6.847,-2.861 14.517,-3.562 7.669,-0.729 12.267,-0.213 13.849,1.492 1.521,1.734 3.135,4.961 4.809,9.679 1.704,4.718 3.074,8.553 4.139,11.475"
           id="path1591" />
        <path
           inkscape:connector-curvature="0"
           style="fill:#da5b00"
           d="m 191.468,398.383 c 2.13,-1.217 4.322,-2.252 6.542,-3.196 0.273,-0.151 0.579,-0.243 0.883,-0.364 l 1.4,1.947 c -0.306,0.122 -0.608,0.213 -0.915,0.335 -1.673,0.729 -3.346,1.49 -5.02,2.344 -2.313,1.158 -4.749,2.527 -7.276,4.11 -6.482,4.138 -11.322,8.492 -14.639,13.057 -0.244,0.365 -0.487,0.729 -0.67,1.065 -0.121,0.122 -0.182,0.242 -0.273,0.396 -0.183,-0.061 -0.396,-0.061 -0.609,-0.094 h -0.03 c -0.456,-0.028 -0.913,-0.06 -1.339,-0.06 0,-0.029 0.031,-0.058 0.031,-0.089 -0.457,0 -0.882,0.031 -1.309,0.031 h -0.395 c -5.419,0.242 -9.53,2.646 -12.359,7.303 -0.608,1.034 -1.125,2.069 -1.489,3.104 -0.184,0.549 -0.336,1.125 -0.457,1.705 v 0.031 c -0.093,0.425 -0.152,0.82 -0.185,1.216 -0.06,0.731 -0.06,1.341 0,1.797 0.092,0.791 0.427,1.31 0.944,1.461 0.152,0.062 0.304,0.091 0.457,0.15 0.609,0.153 1.218,0.185 1.706,0.094 0.944,-0.183 1.674,-0.763 2.191,-1.797 0.212,-0.791 0.425,-1.46 0.638,-2.038 -0.03,0 0,0 0,-0.031 0.152,-0.547 0.335,-0.974 0.458,-1.31 -0.062,0.273 -0.123,0.58 -0.184,0.945 0,0.122 -0.029,0.271 -0.06,0.396 0,0.031 -0.031,0.06 0,0.091 -0.184,1.308 -0.184,2.586 -0.062,3.866 0.214,2.219 0.823,3.772 1.827,4.685 0.578,0.549 1.309,0.883 2.16,0.944 0.152,0.031 0.244,0.031 0.336,0.031 0.853,0 1.46,-0.7 1.948,-2.069 0.122,-0.427 0.303,-0.914 0.396,-1.492 0.334,-2.983 0.607,-4.748 0.699,-5.296 0,1.797 0.061,3.378 0.151,4.658 0.152,1.46 0.367,2.647 0.608,3.53 0.306,1.036 0.731,1.794 1.279,2.403 0.762,0.822 1.795,1.156 3.073,1.064 0.184,-0.028 0.397,-0.06 0.611,-0.089 1.064,-0.244 1.857,-1.827 2.403,-4.842 0.457,-2.737 0.518,-4.564 0.154,-5.387 0.364,0.518 0.761,1.064 1.186,1.521 0.457,0.487 0.974,0.945 1.431,1.341 0.12,0.091 0.243,0.213 0.365,0.275 0.364,0.242 0.699,0.487 1.004,0.638 1.219,0.609 2.191,0.519 3.043,-0.213 0.03,-0.061 0.122,-0.153 0.152,-0.183 1.309,-1.4 1.188,-4.017 -0.427,-7.852 -0.577,-1.432 -1.277,-2.802 -2.099,-4.018 -0.186,-0.305 -0.367,-0.609 -0.518,-0.852 -0.182,-0.216 -0.333,-0.429 -0.457,-0.58 -0.09,-0.089 -0.152,-0.183 -0.212,-0.214 -0.123,-0.151 -0.245,-0.213 -0.335,-0.242 0.122,-0.183 0.243,-0.364 0.365,-0.578 0.062,-0.122 0.183,-0.275 0.244,-0.397 0,0 0.03,-0.029 0.062,-0.061 2.92,-4.473 7.577,-8.612 14,-12.447 0.061,-0.031 0.152,-0.091 0.212,-0.151 1.036,-0.609 2.099,-1.218 3.195,-1.796 2.345,-1.248 4.87,-2.497 7.549,-3.805 0.304,-0.122 0.608,-0.244 0.852,-0.396 l 1.369,1.947 c -0.244,0.092 -0.546,0.243 -0.821,0.365 -1.492,0.669 -2.922,1.369 -4.352,2.038 -4.322,2.102 -8.371,4.627 -12.235,7.612 -2.557,1.945 -5.023,4.442 -7.426,7.424 0.821,1.035 1.704,2.618 2.617,4.748 1.187,2.708 1.826,4.9 1.856,6.605 0.061,1.979 -0.396,3.439 -1.34,4.262 -0.882,0.911 -2.008,1.43 -3.347,1.612 h 0.031 c -1.522,0.213 -2.74,-0.183 -3.744,-1.31 -0.03,-0.061 -0.09,-0.151 -0.151,-0.214 -0.062,-0.06 -0.092,-0.151 -0.154,-0.242 -0.03,0.547 -0.09,1.127 -0.213,1.766 -0.485,3.561 -1.979,5.568 -4.442,5.995 -2.467,0.519 -4.383,-0.305 -5.722,-2.435 -0.305,-0.518 -0.579,-1.004 -0.792,-1.522 0,0.029 -0.03,0.061 -0.03,0.061 -0.761,1.127 -1.645,1.554 -2.68,1.249 -3.043,-0.183 -4.87,-2.221 -5.509,-6.087 -0.73,0.578 -1.796,0.606 -3.166,0.151 -2.586,-0.852 -3.773,-2.648 -3.53,-5.479 0.153,-1.613 0.549,-3.257 1.309,-4.899 0.305,-0.731 0.7,-1.4 1.125,-2.13 3.865,-6.363 9.558,-9.315 17.075,-8.948 0.123,-0.183 0.274,-0.367 0.427,-0.578 1.887,-2.588 4.109,-4.902 6.666,-7.03 4.354,-3.558 9.012,-6.723 13.943,-9.556"
           id="path1593" />
        <path
           inkscape:connector-curvature="0"
           style="fill:#f18900"
           d="m 194.359,399.448 c 1.734,-0.883 3.499,-1.704 5.234,-2.435 l 4.504,6.27 c -2.771,1.31 -5.388,2.619 -7.792,3.897 -1.096,0.578 -2.16,1.187 -3.194,1.796 -0.062,0.061 -0.153,0.12 -0.214,0.151 -6.423,3.835 -11.08,7.975 -14,12.447 -0.032,0.031 -0.062,0.061 -0.062,0.061 -0.062,0.122 -0.182,0.275 -0.244,0.397 -0.122,0.214 -0.243,0.396 -0.365,0.578 0.091,0.029 0.213,0.091 0.335,0.242 0.061,0.031 0.122,0.125 0.212,0.214 0.124,0.151 0.275,0.364 0.457,0.58 0.151,0.242 0.333,0.547 0.517,0.852 0.822,1.216 1.522,2.586 2.1,4.018 1.615,3.835 1.736,6.451 0.427,7.852 -0.03,0.029 -0.122,0.122 -0.152,0.183 -0.852,0.731 -1.824,0.822 -3.043,0.213 -0.305,-0.15 -0.64,-0.396 -1.004,-0.638 -0.123,-0.062 -0.246,-0.185 -0.365,-0.275 -0.458,-0.396 -0.975,-0.852 -1.43,-1.341 -0.427,-0.456 -0.824,-1.003 -1.188,-1.521 0.364,0.822 0.303,2.649 -0.154,5.387 -0.546,3.015 -1.339,4.598 -2.403,4.842 -0.214,0.029 -0.427,0.061 -0.611,0.089 -1.278,0.092 -2.312,-0.242 -3.073,-1.064 -0.547,-0.609 -0.973,-1.367 -1.279,-2.403 -0.242,-0.883 -0.456,-2.07 -0.608,-3.53 -0.09,-1.28 -0.151,-2.861 -0.151,-4.658 -0.092,0.548 -0.365,2.312 -0.699,5.296 -0.094,0.578 -0.275,1.065 -0.396,1.492 -0.488,1.369 -1.096,2.069 -1.948,2.069 -0.092,0 -0.184,0 -0.336,-0.031 -0.851,-0.062 -1.582,-0.396 -2.16,-0.944 -1.004,-0.912 -1.614,-2.466 -1.827,-4.685 -0.122,-1.28 -0.122,-2.559 0.062,-3.866 -0.031,-0.031 0,-0.06 0,-0.091 0.031,-0.124 0.06,-0.273 0.06,-0.396 0.061,-0.365 0.123,-0.672 0.184,-0.945 -0.123,0.336 -0.306,0.763 -0.458,1.31 0,0.031 -0.032,0.031 0,0.031 -0.213,0.578 -0.426,1.247 -0.638,2.038 -0.518,1.034 -1.247,1.614 -2.191,1.797 -0.487,0.091 -1.098,0.06 -1.706,-0.094 -0.153,-0.06 -0.305,-0.089 -0.457,-0.15 -0.518,-0.151 -0.853,-0.67 -0.944,-1.461 -0.06,-0.456 -0.06,-1.065 0,-1.797 0.032,-0.396 0.092,-0.791 0.185,-1.216 v -0.031 c 0.305,-1.613 0.973,-3.196 1.946,-4.809 2.83,-4.657 6.94,-7.061 12.359,-7.303 h 0.395 c 0.427,0 0.852,-0.031 1.309,-0.031 0,0.031 -0.031,0.06 -0.031,0.089 0.457,0 0.914,0.031 1.37,0.06 0.213,0.033 0.427,0.033 0.609,0.094 0.091,-0.153 0.152,-0.273 0.273,-0.396 0.183,-0.336 0.426,-0.7 0.67,-1.065 3.317,-4.564 8.157,-8.919 14.639,-13.057 2.527,-1.584 4.963,-2.954 7.276,-4.112"
           id="path1595" />
        <path
           inkscape:connector-curvature="0"
           style="fill:#da5b00"
           d="m 235.144,397.045 c -2.161,-1.188 -4.323,-2.254 -6.544,-3.229 -0.304,-0.088 -0.608,-0.211 -0.882,-0.334 l -1.4,1.918 c 0.304,0.152 0.607,0.242 0.881,0.395 1.704,0.701 3.379,1.462 5.023,2.345 2.311,1.126 4.746,2.496 7.271,4.109 6.516,4.108 11.356,8.462 14.643,13.026 0.244,0.364 0.487,0.7 0.698,1.066 0.091,0.12 0.152,0.242 0.245,0.394 0.212,-0.028 0.426,-0.06 0.608,-0.089 h 0.061 c 0.457,-0.062 0.914,-0.062 1.309,-0.062 0,-0.03 -0.031,-0.03 -0.031,-0.091 0.489,0 0.914,0.031 1.339,0.061 h 0.367 c 5.417,0.213 9.556,2.618 12.388,7.273 0.606,1.036 1.095,2.07 1.458,3.106 0.216,0.578 0.367,1.125 0.488,1.703 -0.031,0 -0.031,0 -0.031,0.03 0.123,0.396 0.154,0.823 0.213,1.219 0.061,0.731 0.061,1.308 0,1.796 -0.121,0.792 -0.455,1.308 -0.974,1.461 -0.153,0.06 -0.305,0.091 -0.456,0.151 -0.611,0.153 -1.188,0.185 -1.674,0.091 -0.944,-0.183 -1.705,-0.76 -2.221,-1.796 -0.213,-0.79 -0.427,-1.459 -0.61,-2.039 v -0.031 c -0.182,-0.547 -0.334,-0.942 -0.486,-1.307 0.06,0.273 0.121,0.578 0.182,0.944 0.03,0.12 0.061,0.24 0.061,0.394 0.031,0.031 0.031,0.062 0.031,0.092 0.152,1.309 0.182,2.587 0.06,3.865 -0.212,2.192 -0.821,3.775 -1.825,4.687 -0.61,0.55 -1.311,0.854 -2.192,0.914 -0.122,0.031 -0.214,0.06 -0.334,0.091 -0.822,-0.031 -1.429,-0.7 -1.948,-2.132 -0.122,-0.394 -0.274,-0.911 -0.396,-1.458 -0.335,-2.983 -0.579,-4.749 -0.702,-5.327 0,1.825 -0.061,3.377 -0.152,4.687 -0.121,1.492 -0.333,2.647 -0.607,3.53 -0.305,1.005 -0.731,1.827 -1.248,2.377 -0.792,0.849 -1.827,1.214 -3.074,1.062 -0.213,0 -0.397,-0.06 -0.609,-0.091 -1.066,-0.214 -1.886,-1.825 -2.404,-4.84 -0.487,-2.739 -0.549,-4.533 -0.153,-5.356 -0.396,0.519 -0.792,1.065 -1.186,1.523 -0.488,0.484 -0.973,0.942 -1.43,1.369 -0.153,0.061 -0.274,0.183 -0.367,0.242 -0.365,0.243 -0.699,0.487 -1.004,0.67 -1.217,0.547 -2.19,0.486 -3.042,-0.243 -0.062,-0.062 -0.124,-0.153 -0.155,-0.184 -1.308,-1.401 -1.185,-4.018 0.397,-7.851 0.609,-1.463 1.278,-2.801 2.099,-4.02 0.184,-0.305 0.396,-0.606 0.549,-0.822 0.182,-0.271 0.304,-0.456 0.456,-0.607 0.09,-0.093 0.152,-0.153 0.184,-0.213 0.121,-0.151 0.272,-0.214 0.364,-0.245 -0.151,-0.182 -0.243,-0.394 -0.364,-0.575 -0.094,-0.153 -0.184,-0.276 -0.245,-0.398 l -0.061,-0.06 c -2.922,-4.444 -7.609,-8.615 -14,-12.448 -0.091,-0.03 -0.153,-0.093 -0.245,-0.153 -1.003,-0.608 -2.068,-1.216 -3.196,-1.796 -2.342,-1.247 -4.868,-2.494 -7.548,-3.804 -0.305,-0.092 -0.577,-0.242 -0.853,-0.396 l -1.369,1.949 c 0.274,0.091 0.549,0.242 0.852,0.364 1.46,0.67 2.922,1.37 4.352,2.039 4.324,2.069 8.372,4.626 12.236,7.577 2.526,1.98 5.022,4.506 7.427,7.458 -0.823,1.036 -1.706,2.588 -2.617,4.718 -1.219,2.739 -1.857,4.962 -1.857,6.634 -0.062,2.01 0.396,3.41 1.309,4.293 0.913,0.852 2.04,1.398 3.379,1.583 h -0.032 c 1.491,0.242 2.739,-0.185 3.745,-1.28 0.028,-0.089 0.061,-0.151 0.121,-0.212 0.061,-0.091 0.121,-0.15 0.182,-0.244 0.03,0.547 0.091,1.096 0.182,1.705 0.519,3.622 2.011,5.601 4.444,5.996 2.496,0.547 4.414,-0.273 5.724,-2.435 0.303,-0.458 0.607,-0.976 0.82,-1.491 0,0.03 0,0.03 0.03,0.062 0.762,1.125 1.645,1.521 2.648,1.276 3.043,-0.211 4.871,-2.252 5.509,-6.116 0.729,0.578 1.796,0.639 3.195,0.151 2.588,-0.852 3.775,-2.647 3.5,-5.478 -0.123,-1.614 -0.548,-3.257 -1.278,-4.9 -0.335,-0.731 -0.7,-1.4 -1.156,-2.132 -3.834,-6.36 -9.558,-9.312 -17.076,-8.948 -0.091,-0.183 -0.273,-0.364 -0.395,-0.547 -1.887,-2.588 -4.108,-4.962 -6.666,-7.061 -4.348,-3.559 -9.004,-6.756 -13.935,-9.555"
           id="path1597" />
        <path
           inkscape:connector-curvature="0"
           style="fill:#f18900"
           d="m 232.222,398.14 c -1.735,-0.915 -3.47,-1.735 -5.235,-2.435 l -4.475,6.239 c 2.739,1.31 5.357,2.617 7.761,3.896 1.127,0.58 2.192,1.188 3.196,1.796 0.091,0.061 0.153,0.123 0.245,0.153 6.392,3.833 11.079,8.004 14,12.448 l 0.061,0.06 c 0.061,0.122 0.151,0.245 0.245,0.398 0.121,0.182 0.212,0.394 0.364,0.577 -0.091,0.029 -0.243,0.092 -0.364,0.243 -0.032,0.06 -0.094,0.12 -0.184,0.213 -0.151,0.151 -0.273,0.336 -0.456,0.607 -0.153,0.216 -0.366,0.518 -0.549,0.822 -0.821,1.219 -1.49,2.557 -2.099,4.02 -1.582,3.833 -1.705,6.449 -0.397,7.851 0.031,0.033 0.093,0.122 0.155,0.184 0.852,0.729 1.825,0.79 3.042,0.243 0.305,-0.183 0.639,-0.427 1.004,-0.67 0.092,-0.06 0.213,-0.182 0.367,-0.242 0.456,-0.427 0.942,-0.885 1.43,-1.369 0.395,-0.458 0.791,-1.005 1.186,-1.523 -0.396,0.823 -0.334,2.617 0.153,5.356 0.518,3.015 1.338,4.626 2.404,4.84 0.212,0.031 0.396,0.091 0.609,0.091 1.247,0.151 2.282,-0.214 3.074,-1.062 0.517,-0.55 0.943,-1.372 1.246,-2.377 0.275,-0.883 0.488,-2.038 0.608,-3.53 0.092,-1.31 0.152,-2.861 0.152,-4.687 0.123,0.578 0.366,2.344 0.702,5.327 0.121,0.547 0.273,1.064 0.396,1.458 0.519,1.432 1.126,2.101 1.948,2.132 0.12,-0.031 0.213,-0.06 0.334,-0.091 0.881,-0.061 1.582,-0.364 2.192,-0.914 1.003,-0.911 1.612,-2.494 1.825,-4.687 0.122,-1.278 0.093,-2.557 -0.06,-3.865 0,-0.029 0,-0.061 -0.031,-0.092 0,-0.153 -0.031,-0.273 -0.061,-0.394 -0.061,-0.366 -0.122,-0.671 -0.182,-0.944 0.152,0.364 0.304,0.76 0.486,1.307 v 0.031 c 0.183,0.58 0.397,1.249 0.61,2.039 0.515,1.036 1.277,1.613 2.221,1.796 0.486,0.094 1.063,0.062 1.674,-0.091 0.151,-0.061 0.302,-0.092 0.456,-0.151 0.519,-0.153 0.853,-0.669 0.974,-1.461 0.061,-0.488 0.061,-1.064 0,-1.796 -0.059,-0.396 -0.09,-0.822 -0.213,-1.219 0,-0.03 0,-0.03 0.031,-0.03 -0.333,-1.612 -1.004,-3.225 -1.946,-4.81 -2.833,-4.655 -6.971,-7.061 -12.388,-7.273 h -0.367 c -0.425,-0.029 -0.851,-0.061 -1.339,-0.061 0,0.061 0.031,0.061 0.031,0.091 -0.457,0 -0.914,0.031 -1.37,0.062 -0.182,0.029 -0.396,0.061 -0.609,0.089 -0.092,-0.151 -0.152,-0.273 -0.244,-0.394 -0.211,-0.366 -0.456,-0.702 -0.698,-1.066 -3.287,-4.564 -8.127,-8.918 -14.643,-13.026 -2.526,-1.613 -4.961,-2.983 -7.272,-4.109"
           id="path1599" />
        <path
           inkscape:connector-curvature="0"
           style="fill:#f18900"
           d="m 216.729,431.773 8.736,-0.609 1.949,24.226 c 8.186,-1.369 14.7,-1.185 19.477,0.519 4.78,1.705 7.215,4.504 7.246,8.433 0.03,3.924 -2.19,6.48 -6.728,7.729 -4.506,1.216 -14.73,0.609 -30.741,-1.827 -0.001,-22.22 0.031,-35.062 0.061,-38.471"
           id="path1601" />
        <path
           inkscape:connector-curvature="0"
           style="fill:none;stroke:#d04215;stroke-width:2.63960004;stroke-linecap:square;stroke-miterlimit:10"
           d="m 216.729,431.773 c -0.03,3.408 -0.061,16.251 -0.061,38.47 16.011,2.437 26.235,3.043 30.741,1.827 4.537,-1.249 6.758,-3.806 6.728,-7.729 -0.031,-3.929 -2.466,-6.728 -7.246,-8.433 -4.776,-1.703 -11.291,-1.888 -19.477,-0.519 l -1.949,-24.226 -8.736,0.61"
           id="path1603" />
        <path
           inkscape:connector-curvature="0"
           style="fill:#f18900"
           d="m 209.577,432.229 -8.706,-0.608 -1.947,24.228 c -8.218,-1.338 -14.7,-1.187 -19.509,0.517 -4.779,1.705 -7.184,4.506 -7.214,8.432 -0.06,3.927 2.191,6.483 6.726,7.73 4.474,1.216 14.732,0.609 30.712,-1.825 0,-22.221 0,-35.064 -0.062,-38.474"
           id="path1605" />
        <path
           inkscape:connector-curvature="0"
           style="fill:none;stroke:#d04215;stroke-width:2.63960004;stroke-linecap:square;stroke-miterlimit:10"
           d="m 209.577,432.229 c 0.062,3.41 0.062,16.254 0.062,38.473 -15.98,2.435 -26.238,3.041 -30.712,1.825 -4.535,-1.247 -6.786,-3.804 -6.726,-7.73 0.031,-3.926 2.436,-6.727 7.214,-8.432 4.809,-1.703 11.291,-1.854 19.509,-0.517 l 1.947,-24.228 8.706,0.609"
           id="path1607" />
        <path
           inkscape:connector-curvature="0"
           style="fill:#f28f12"
           d="m 211.312,399.356 c -5.082,2.192 -9.679,4.414 -13.787,6.605 -1.097,0.578 -2.164,1.188 -3.197,1.797 -0.062,0.062 -0.151,0.122 -0.214,0.153 -3.712,2.189 -6.814,4.532 -9.373,6.909 l -10.652,0.029 c 3.286,-4.385 8.004,-8.553 14.212,-12.51 2.526,-1.583 4.962,-2.953 7.275,-4.109 4.109,-2.132 8.43,-3.806 12.936,-4.962 l 4.686,1.705 1.127,3.073 c -1.006,0.46 -2.008,0.886 -3.013,1.31"
           id="path1609" />
        <path
           inkscape:connector-curvature="0"
           style="fill:#f28f12"
           d="m 216.485,399.234 c 5.114,2.194 9.68,4.415 13.788,6.605 1.127,0.58 2.192,1.188 3.196,1.796 0.091,0.061 0.153,0.123 0.245,0.153 3.683,2.222 6.817,4.533 9.344,6.938 h 10.651 c -3.254,-4.384 -8.002,-8.523 -14.214,-12.479 -2.525,-1.613 -4.96,-2.983 -7.271,-4.109 -4.108,-2.19 -8.432,-3.804 -12.937,-4.992 l -4.686,1.735 -1.096,3.045 c 1.003,0.427 1.975,0.883 2.98,1.308"
           id="path1611" />
        <path
           inkscape:connector-curvature="0"
           style="fill:#f18900"
           d="m 231.034,398.809 c -0.669,-2.678 -1.765,-4.139 -3.287,-4.353 -1.157,-0.609 -2.893,-1.125 -5.114,-1.582 -4.473,-1.005 -9.008,-1.278 -13.574,-0.853 -0.943,-0.029 -1.887,0.03 -2.861,0.184 -1.43,0.243 -2.587,0.516 -3.501,0.852 -1.61,0.365 -3.072,1.43 -4.35,3.137 -0.792,1.094 -1.43,2.281 -1.949,3.65 -0.304,0.822 -0.487,1.522 -0.548,2.132 -0.364,0.883 -0.668,1.795 -0.973,2.771 -0.152,0.669 -0.333,1.338 -0.487,1.977 -0.64,2.741 -1.43,5.418 -2.373,8.036 -0.915,2.708 -1.644,5.143 -2.223,7.212 -2.343,7.306 -0.64,13.484 5.235,18.506 5.237,4.505 11.93,6.848 20.086,7.032 6.911,0.091 12.42,-1.461 16.529,-4.749 1.946,-1.522 3.409,-3.379 4.412,-5.6 0.913,-2.041 1.494,-4.171 1.675,-6.394 0.213,-2.281 0.121,-4.564 -0.242,-6.846 -0.062,-0.396 -0.153,-0.792 -0.214,-1.219 l -2.282,-9.039 c -0.7,-2.801 -1.432,-5.571 -2.222,-8.309 -0.489,-1.673 -1.066,-3.865 -1.737,-6.545"
           id="path1613" />
        <path
           inkscape:connector-curvature="0"
           style="fill:#f18900"
           d="m 176.858,335.928 c 0.061,-0.212 0.091,-0.427 0.121,-0.638 1.583,-10.258 -1.917,-15.554 -10.532,-15.918 -8.582,-0.427 -14.122,-2.588 -16.587,-6.575 -1.188,5.904 0.913,11.17 6.24,15.797 -5.875,-2.01 -10.227,-1.278 -13.057,2.1 -3.988,4.749 -8.918,5.205 -14.853,1.37 0.15,6.606 5.021,9.709 14.608,9.252 -4.048,5.693 -11.352,8.675 -21.943,8.858 7.028,5.145 15.248,6.271 24.684,3.47 -2.224,2.131 -3.866,4.018 -4.871,5.722 -2.587,4.475 -7.03,6.756 -13.361,6.91 7.336,4.565 15.034,4.655 23.132,0.242 -2.314,5.6 -6.332,8.644 -11.993,9.193 5.265,5.022 12.479,5.569 21.58,1.582 5.356,-2.313 9.893,-2.892 13.604,-1.735 v -38.562 l 3.228,-1.068 z"
           id="path1615" />
        <path
           inkscape:connector-curvature="0"
           style="fill:none;stroke:#d04215;stroke-width:2.63960004;stroke-linecap:square;stroke-miterlimit:10"
           d="m 176.126,376.652 c -0.821,-0.487 -1.642,-0.854 -2.495,-1.096 -3.711,-1.156 -8.249,-0.578 -13.604,1.735 -9.101,3.987 -16.313,3.44 -21.578,-1.582 5.661,-0.549 9.677,-3.593 11.991,-9.193 -8.098,4.413 -15.796,4.323 -23.132,-0.242 6.332,-0.153 10.774,-2.435 13.361,-6.91 1.005,-1.705 2.649,-3.59 4.871,-5.722 -9.436,2.8 -17.655,1.673 -24.684,-3.47 10.591,-0.183 17.895,-3.165 21.943,-8.858 -9.587,0.458 -14.458,-2.646 -14.608,-9.252 5.936,3.835 10.865,3.379 14.853,-1.37 2.83,-3.378 7.182,-4.109 13.057,-2.1 -5.326,-4.626 -7.426,-9.893 -6.24,-15.797 2.465,3.987 8.005,6.148 16.588,6.575 8.613,0.364 12.113,5.66 10.53,15.918 -0.03,0.211 -0.061,0.426 -0.121,0.638 -0.184,1.218 -0.336,2.345 -0.427,3.257"
           id="path1617" />
        <path
           inkscape:connector-curvature="0"
           style="fill:#f18900"
           d="m 248.991,335.928 c -0.03,-0.183 -0.09,-0.427 -0.122,-0.638 -1.583,-10.228 1.947,-15.554 10.531,-15.918 8.585,-0.427 14.122,-2.618 16.589,-6.575 1.185,5.904 -0.914,11.17 -6.24,15.797 5.875,-2.01 10.227,-1.309 13.058,2.1 3.956,4.749 8.948,5.205 14.883,1.37 -0.183,6.606 -5.082,9.709 -14.67,9.252 4.079,5.723 11.384,8.645 21.975,8.858 -7.062,5.145 -15.279,6.302 -24.683,3.47 2.252,2.131 3.865,4.018 4.838,5.722 2.649,4.475 7.092,6.756 13.362,6.91 -7.304,4.565 -15.005,4.655 -23.101,0.242 2.314,5.6 6.331,8.644 11.991,9.193 -5.295,5.022 -12.479,5.538 -21.547,1.582 -5.388,-2.282 -9.893,-2.892 -13.605,-1.735 v -38.562 l -3.259,-1.068 z"
           id="path1619" />
        <path
           inkscape:connector-curvature="0"
           style="fill:none;stroke:#d04215;stroke-width:2.63960004;stroke-linecap:square;stroke-miterlimit:10"
           d="m 249.722,376.652 c 0.79,-0.487 1.642,-0.854 2.526,-1.096 3.682,-1.156 8.218,-0.578 13.604,1.735 9.071,3.987 16.254,3.44 21.549,-1.582 -5.661,-0.549 -9.647,-3.593 -11.991,-9.193 8.096,4.413 15.797,4.323 23.101,-0.242 -6.301,-0.153 -10.745,-2.435 -13.362,-6.91 -0.973,-1.705 -2.617,-3.59 -4.839,-5.722 9.405,2.8 17.522,1.621 24.583,-3.524 -10.593,-0.184 -17.795,-3.111 -21.875,-8.804 9.618,0.458 14.487,-2.646 14.67,-9.252 -5.935,3.835 -10.927,3.379 -14.883,-1.37 -2.831,-3.378 -7.182,-4.109 -13.058,-2.1 5.327,-4.626 7.425,-9.893 6.24,-15.797 -2.467,3.987 -8.005,6.148 -16.589,6.575 -8.613,0.364 -12.114,5.66 -10.531,15.918 0.031,0.211 0.061,0.426 0.122,0.638 0.152,1.218 0.306,2.345 0.427,3.257"
           id="path1621" />
        <path
           inkscape:connector-curvature="0"
           style="fill:#f18900"
           d="m 220.99,318.214 c -3.074,0 -5.418,-0.09 -7.03,-0.305 -0.214,0.184 -4.11,0.457 -11.689,0.883 -9.129,0.457 -20.118,4.991 -32.962,13.544 -12.874,8.492 -19.295,17.105 -19.266,25.778 v 0.427 0.396 c -0.029,8.705 3.562,16.071 10.806,22.127 7.518,6.27 18.017,9.922 31.53,10.836 5.542,0.365 11.323,0.548 17.349,0.548 h 3.196 3.196 c 5.996,0 11.779,-0.183 17.288,-0.548 13.544,-0.914 24.046,-4.566 31.562,-10.836 7.214,-6.056 10.836,-13.422 10.836,-22.127 v -0.396 -0.427 c 0,-8.672 -7.122,-17.499 -21.428,-26.447 -14.365,-8.979 -25.476,-13.453 -33.388,-13.453"
           id="path1623" />
        <path
           inkscape:connector-curvature="0"
           style="fill:none;stroke:#d04215;stroke-width:2.63960004;stroke-linecap:square;stroke-miterlimit:10"
           d="m 157.987,378.387 c 0.883,0.944 1.827,1.795 2.861,2.678 7.519,6.27 18.05,9.893 31.564,10.836 5.509,0.365 11.29,0.548 17.316,0.548 h 3.227 3.166 c 6.028,0 11.779,-0.183 17.318,-0.548 13.545,-0.943 24.016,-4.566 31.531,-10.836 0.915,-0.791 1.826,-1.582 2.618,-2.405 0.092,-0.089 0.184,-0.182 0.273,-0.272"
           id="path1625" />
        <path
           inkscape:connector-curvature="0"
           style="fill:#9dc517"
           d="m 267.344,333.371 -1.248,-2.586 c -0.669,-1.432 -1.459,-1.553 -2.404,-0.427 -0.031,0 -0.031,0 -0.062,0.06 l -1.246,2.283 -1.918,1.765 c 0,0 -0.031,0.062 -0.062,0.062 -0.852,1.216 -0.517,1.977 1.004,2.281 l 2.77,0.609 c 1.249,0.273 2.313,0.031 3.226,-0.699 0.52,-1.065 0.52,-2.19 -0.06,-3.348"
           id="path1627" />
        <path
           inkscape:connector-curvature="0"
           style="fill:none;stroke:#388e36;stroke-width:1.97969997;stroke-linecap:round;stroke-linejoin:round;stroke-miterlimit:10"
           d="m 266.096,330.785 c -0.669,-1.432 -1.459,-1.553 -2.404,-0.427 -0.031,0 -0.031,0 -0.062,0.06 l -1.246,2.283 -1.918,1.765 c 0,0 -0.031,0.061 -0.062,0.061 -0.852,1.217 -0.517,1.978 1.004,2.282 l 2.77,0.609 c 1.249,0.273 2.313,0.031 3.226,-0.701 0.519,-1.064 0.519,-2.191 -0.061,-3.348 l -1.247,-2.584"
           id="path1629" />
        <path
           inkscape:connector-curvature="0"
           style="fill:#9dc517"
           d="m 270.51,335.806 c -1.279,-0.274 -2.343,0 -3.256,0.762 -0.488,1.064 -0.458,2.161 0.09,3.287 l 1.279,2.526 c 0.668,1.371 1.521,1.521 2.434,0.396 0.03,-0.031 0.062,-0.031 0.062,-0.061 l 1.246,-2.313 1.918,-1.765 c 0,0 0.029,-0.031 0.029,-0.062 0.882,-1.156 0.549,-1.917 -1.004,-2.221 l -2.798,-0.549 z"
           id="path1631" />
        <path
           inkscape:connector-curvature="0"
           style="fill:none;stroke:#388e36;stroke-width:1.97969997;stroke-linecap:round;stroke-linejoin:round;stroke-miterlimit:10"
           d="m 270.51,335.806 2.8,0.548 c 1.553,0.304 1.886,1.065 1.004,2.221 0,0.031 -0.029,0.062 -0.029,0.062 l -1.918,1.765 -1.246,2.313 c 0,0.03 -0.032,0.03 -0.062,0.061 -0.913,1.125 -1.766,0.974 -2.434,-0.396 l -1.279,-2.526 c -0.548,-1.126 -0.578,-2.223 -0.09,-3.287 0.911,-0.761 1.975,-1.035 3.254,-0.761"
           id="path1633" />
        <path
           inkscape:connector-curvature="0"
           style="fill:#9dc517"
           d="m 269.292,337.237 c 0.366,-0.487 0.305,-0.942 -0.153,-1.309 l -1.734,-1.308 c -0.456,-0.396 -0.913,-0.335 -1.309,0.151 l -1.126,1.46 c -0.396,0.518 -0.304,0.914 0.152,1.311 l 1.706,1.337 c 0.486,0.366 0.944,0.305 1.309,-0.152 l 1.155,-1.49 z"
           id="path1635" />
        <path
           inkscape:connector-curvature="0"
           style="fill:none;stroke:#388e36;stroke-width:1.97969997;stroke-linecap:round;stroke-linejoin:round;stroke-miterlimit:10"
           d="m 269.139,335.928 -1.734,-1.308 c -0.456,-0.396 -0.913,-0.335 -1.309,0.151 l -1.126,1.46 c -0.396,0.518 -0.304,0.914 0.152,1.311 l 1.706,1.339 c 0.486,0.364 0.944,0.304 1.309,-0.153 l 1.156,-1.492 c 0.365,-0.486 0.304,-0.942 -0.154,-1.308"
           id="path1637" />
        <path
           inkscape:connector-curvature="0"
           style="fill:#ab61a3"
           d="m 164.441,333.371 c -0.031,0 -0.063,-0.061 -0.092,-0.061 l -1.917,-1.765 -1.218,-2.283 c -0.03,-0.062 -0.06,-0.062 -0.06,-0.062 -0.944,-1.125 -1.735,-0.972 -2.435,0.428 l -1.218,2.556 c -0.577,1.188 -0.577,2.314 -0.03,3.377 0.851,0.734 1.948,0.978 3.196,0.703 l 2.738,-0.579 c 1.521,-0.366 1.856,-1.096 1.036,-2.314"
           id="path1639" />
        <path
           inkscape:connector-curvature="0"
           style="fill:none;stroke:#633791;stroke-width:1.97969997;stroke-linecap:round;stroke-linejoin:round;stroke-miterlimit:10"
           d="m 164.441,333.371 c 0.82,1.218 0.485,1.948 -1.037,2.313 l -2.738,0.579 c -1.248,0.275 -2.346,0.031 -3.196,-0.703 -0.547,-1.062 -0.547,-2.189 0.03,-3.377 l 1.218,-2.556 c 0.7,-1.399 1.491,-1.553 2.435,-0.428 0,0 0.03,0 0.06,0.062 l 1.218,2.283 1.917,1.765 c 0.03,0.002 0.062,0.062 0.093,0.062"
           id="path1641" />
        <path
           inkscape:connector-curvature="0"
           style="fill:#ab61a3"
           d="m 151.535,335.197 c -1.523,0.304 -1.888,1.035 -1.035,2.222 0,0.031 0.029,0.061 0.062,0.092 l 1.886,1.734 1.248,2.313 0.06,0.062 c 0.944,1.126 1.767,0.975 2.466,-0.395 l 1.278,-2.498 c 0.579,-1.155 0.579,-2.282 0.092,-3.286 -0.914,-0.791 -2.008,-1.066 -3.257,-0.822 l -2.8,0.578 z"
           id="path1643" />
        <path
           inkscape:connector-curvature="0"
           style="fill:none;stroke:#633791;stroke-width:1.97969997;stroke-linecap:round;stroke-linejoin:round;stroke-miterlimit:10"
           d="m 150.5,337.419 c 0,0.031 0.029,0.062 0.062,0.092 l 1.886,1.734 1.248,2.313 0.06,0.062 c 0.944,1.126 1.767,0.973 2.466,-0.395 l 1.278,-2.497 c 0.579,-1.156 0.579,-2.283 0.092,-3.287 -0.914,-0.791 -2.008,-1.066 -3.257,-0.822 l -2.799,0.578 c -1.522,0.304 -1.889,1.035 -1.036,2.222"
           id="path1645" />
        <path
           inkscape:connector-curvature="0"
           style="fill:#ab61a3"
           d="m 157.411,333.462 -1.706,1.31 c -0.486,0.365 -0.517,0.822 -0.152,1.308 l 1.157,1.493 c 0.365,0.455 0.791,0.516 1.278,0.151 l 1.735,-1.308 c 0.486,-0.397 0.517,-0.822 0.154,-1.339 l -1.158,-1.461 c -0.365,-0.489 -0.794,-0.519 -1.308,-0.154"
           id="path1647" />
        <path
           inkscape:connector-curvature="0"
           style="fill:none;stroke:#633791;stroke-width:1.97969997;stroke-linecap:round;stroke-linejoin:round;stroke-miterlimit:10"
           d="m 157.411,333.462 c 0.515,-0.365 0.943,-0.334 1.307,0.153 l 1.158,1.461 c 0.363,0.518 0.333,0.942 -0.154,1.339 l -1.735,1.308 c -0.487,0.365 -0.913,0.304 -1.278,-0.151 l -1.157,-1.493 c -0.365,-0.486 -0.334,-0.943 0.152,-1.308 l 1.707,-1.309"
           id="path1649" />
        <path
           inkscape:connector-curvature="0"
           style="fill:#f18900"
           d="m 232.374,388.521 c 0,-0.852 -0.184,-1.551 -0.519,-2.13 -0.304,-0.487 -0.606,-0.761 -1.004,-0.731 -0.273,-0.272 -0.669,-0.395 -1.157,-0.395 -0.182,0 -0.578,0.091 -1.126,0.243 -0.577,0.183 -0.851,0.243 -0.883,0.243 -0.425,0 -0.85,-0.061 -1.277,-0.213 -0.395,-0.151 -0.701,-0.244 -0.884,-0.304 -0.577,-0.122 -1.246,0.212 -1.947,1.034 l -0.062,-0.031 c -0.03,-0.213 -0.03,-0.639 -0.03,-1.338 -0.122,-0.609 -0.517,-1.005 -1.186,-1.278 -0.427,0 -1.127,0.303 -2.101,0.882 -1.004,0.547 -1.552,0.853 -1.644,0.853 -0.153,0 -0.364,-0.062 -0.578,-0.214 -0.213,-0.152 -0.428,-0.243 -0.578,-0.243 -0.245,0 -0.915,0.366 -1.89,1.096 -0.911,0.669 -1.52,1.156 -1.825,1.49 -0.456,-0.516 -0.912,-0.762 -1.277,-0.762 -0.457,0 -0.853,-0.089 -1.127,-0.364 -0.273,-0.243 -0.669,-0.335 -1.124,-0.335 -0.518,0 -0.975,0.244 -1.432,0.73 -0.304,0.365 -0.518,0.73 -0.639,1.096 -0.061,-0.06 -0.275,-0.182 -0.579,-0.426 -0.303,-0.212 -0.578,-0.305 -0.79,-0.305 -0.581,0 -1.614,-0.15 -3.167,-0.396 -1.43,0 -2.282,0.365 -2.495,1.067 -0.031,0.364 -0.09,0.578 -0.152,0.699 -0.061,0.093 -0.092,0.184 -0.183,0.214 -0.64,-1.676 -1.43,-1.98 -2.345,-0.883 -0.212,-0.03 -0.546,-0.092 -1.003,-0.184 -0.732,-0.092 -1.188,-0.152 -1.4,-0.152 -0.974,0 -1.461,0.61 -1.461,1.826 0,0.456 0.032,1.005 0.092,1.523 0.06,0.973 0.242,1.977 0.486,3.104 0.64,2.861 1.613,4.384 2.922,4.443 -0.061,0.151 0.062,0.426 0.396,0.731 0.213,0.212 0.425,0.395 0.729,0.607 0.305,0.305 0.61,0.609 0.913,0.885 0.093,0.151 0.214,0.305 0.306,0.425 0.456,0.578 1.004,0.854 1.551,0.854 h 0.06 c 0.367,0.211 0.731,0.396 1.127,0.547 0,0.031 0.029,0.091 0.061,0.153 0.335,0.518 0.79,0.791 1.4,0.791 0.061,0 0.426,0.029 1.125,0.151 0.7,0.153 1.157,0.183 1.4,0.183 0.335,0 0.61,0.091 0.884,0.213 0.304,0.092 0.7,0.183 1.246,0.183 0.428,0 0.824,-0.091 1.157,-0.242 0.486,0.029 1.004,0.06 1.492,0.06 6.239,0 10.896,-1.064 14.001,-3.165 1.218,-0.7 2.374,-1.826 3.531,-3.439 1.492,-2.07 2.403,-4.232 2.799,-6.482 0.125,-0.761 0.187,-1.523 0.187,-2.314"
           id="path1651" />
        <path
           inkscape:connector-curvature="0"
           style="fill:#ffec00"
           d="m 194.114,393.361 c -0.393,-0.456 -0.668,-0.396 -0.851,0.153 l -0.731,2.28 -2.616,0.885 c -0.58,0.242 -0.61,0.517 -0.153,0.881 l 2.13,1.583 0.124,2.437 c -0.062,0.578 0.181,0.761 0.668,0.487 l 2.374,-1.705 2.924,0.669 c 0.547,0.031 0.729,-0.183 0.487,-0.7 l -0.884,-2.312 1.339,-2.283 c 0.306,-0.487 0.152,-0.761 -0.455,-0.761 l -2.74,0.182 -1.616,-1.796 z"
           id="path1653" />
        <path
           inkscape:connector-curvature="0"
           style="fill:none;stroke:#6b7d27;stroke-width:1.97979999;stroke-linecap:round;stroke-linejoin:round;stroke-miterlimit:10"
           d="m 193.263,393.514 -0.731,2.281 -2.616,0.885 c -0.58,0.242 -0.61,0.517 -0.153,0.881 l 2.13,1.583 0.124,2.437 c -0.062,0.578 0.181,0.761 0.668,0.487 l 2.374,-1.705 2.923,0.669 c 0.548,0.031 0.729,-0.183 0.488,-0.7 l -0.884,-2.312 1.339,-2.283 c 0.306,-0.487 0.152,-0.761 -0.455,-0.761 l -2.74,0.182 -1.615,-1.795 c -0.394,-0.458 -0.669,-0.398 -0.852,0.151"
           id="path1655" />
        <path
           inkscape:connector-curvature="0"
           style="fill:#ce2120"
           d="m 196.55,400.453 c 0,0.822 0.304,1.522 0.852,2.069 0.579,0.55 1.249,0.854 2.039,0.854 0.822,0 1.523,-0.304 2.069,-0.854 0.58,-0.547 0.853,-1.247 0.853,-2.069 0,-0.792 -0.273,-1.492 -0.853,-2.07 -0.545,-0.549 -1.247,-0.822 -2.069,-0.822 -0.791,0 -1.46,0.273 -2.039,0.822 -0.548,0.578 -0.852,1.278 -0.852,2.07"
           id="path1657" />
        <path
           inkscape:connector-curvature="0"
           style="fill:none;stroke:#9f3644;stroke-width:1.82599998;stroke-linecap:round;stroke-linejoin:round"
           d="m 196.55,400.453 c 0,-0.792 0.304,-1.492 0.852,-2.07 0.579,-0.549 1.249,-0.822 2.039,-0.822 0.822,0 1.523,0.273 2.069,0.822 0.58,0.578 0.853,1.278 0.853,2.07 0,0.822 -0.273,1.522 -0.853,2.069 -0.545,0.55 -1.247,0.854 -2.069,0.854 -0.791,0 -1.46,-0.304 -2.039,-0.854 -0.548,-0.546 -0.852,-1.247 -0.852,-2.069"
           id="path1659" />
        <path
           inkscape:connector-curvature="0"
           style="fill:#985aa1"
           d="m 202.577,400.939 c -0.578,0.578 -0.853,1.248 -0.853,2.072 0,0.82 0.274,1.519 0.853,2.039 0.577,0.578 1.217,0.882 2.039,0.882 0.792,0 1.491,-0.304 2.069,-0.882 0.547,-0.521 0.822,-1.219 0.822,-2.039 0,-0.824 -0.274,-1.494 -0.822,-2.072 -0.578,-0.577 -1.277,-0.822 -2.069,-0.822 -0.822,0 -1.462,0.245 -2.039,0.822"
           id="path1661" />
        <path
           inkscape:connector-curvature="0"
           style="fill:none;stroke:#664881;stroke-width:1.82599998;stroke-linecap:round;stroke-linejoin:round"
           d="m 202.577,400.939 c 0.577,-0.577 1.217,-0.822 2.039,-0.822 0.792,0 1.491,0.245 2.069,0.822 0.547,0.578 0.822,1.248 0.822,2.072 0,0.82 -0.274,1.519 -0.822,2.039 -0.578,0.578 -1.277,0.882 -2.069,0.882 -0.821,0 -1.461,-0.304 -2.039,-0.882 -0.578,-0.521 -0.853,-1.219 -0.853,-2.039 0.001,-0.823 0.275,-1.493 0.853,-2.072"
           id="path1663" />
        <path
           inkscape:connector-curvature="0"
           style="fill:#ffec00"
           d="m 233.074,393.879 c -0.185,-0.518 -0.457,-0.609 -0.823,-0.15 l -1.612,1.793 -2.74,-0.182 c -0.639,0 -0.792,0.243 -0.457,0.76 l 1.31,2.283 -0.853,2.283 c -0.275,0.55 -0.09,0.763 0.487,0.7 l 2.892,-0.64 2.374,1.705 c 0.517,0.273 0.729,0.122 0.7,-0.487 l 0.09,-2.436 2.132,-1.612 c 0.457,-0.336 0.395,-0.609 -0.153,-0.852 l -2.586,-0.885 -0.761,-2.28 z"
           id="path1665" />
        <path
           inkscape:connector-curvature="0"
           style="fill:none;stroke:#6b7d27;stroke-width:1.97979999;stroke-linecap:round;stroke-linejoin:round;stroke-miterlimit:10"
           d="m 233.074,393.879 0.761,2.281 2.586,0.885 c 0.547,0.242 0.609,0.516 0.153,0.852 l -2.132,1.612 -0.09,2.436 c 0.029,0.609 -0.184,0.761 -0.7,0.487 l -2.374,-1.705 -2.892,0.64 c -0.578,0.062 -0.762,-0.15 -0.487,-0.7 l 0.853,-2.283 -1.31,-2.283 c -0.334,-0.517 -0.182,-0.76 0.457,-0.76 l 2.74,0.182 1.612,-1.793 c 0.367,-0.46 0.638,-0.369 0.823,0.149"
           id="path1667" />
        <path
           inkscape:connector-curvature="0"
           style="fill:#ce2120"
           d="m 224.035,400.453 c 0,0.822 0.271,1.522 0.82,2.041 0.579,0.608 1.279,0.911 2.07,0.911 0.823,0 1.492,-0.303 2.041,-0.911 0.547,-0.519 0.85,-1.219 0.85,-2.041 0,-0.82 -0.303,-1.521 -0.85,-2.07 -0.549,-0.549 -1.218,-0.822 -2.041,-0.822 -0.791,0 -1.491,0.273 -2.07,0.822 -0.549,0.549 -0.82,1.25 -0.82,2.07"
           id="path1669" />
        <path
           inkscape:connector-curvature="0"
           style="fill:none;stroke:#9f3644;stroke-width:1.82599998;stroke-linecap:round;stroke-linejoin:round"
           d="m 224.854,402.494 c 0.579,0.608 1.279,0.911 2.07,0.911 0.823,0 1.492,-0.303 2.041,-0.911 0.547,-0.519 0.85,-1.219 0.85,-2.041 0,-0.82 -0.303,-1.521 -0.85,-2.07 -0.549,-0.549 -1.218,-0.822 -2.041,-0.822 -0.791,0 -1.491,0.273 -2.07,0.822 -0.547,0.549 -0.82,1.25 -0.82,2.07 0.001,0.822 0.274,1.523 0.82,2.041"
           id="path1671" />
        <path
           inkscape:connector-curvature="0"
           style="fill:#9dc517"
           d="m 221.811,400.117 c -0.821,0 -1.491,0.245 -2.07,0.822 -0.546,0.578 -0.821,1.25 -0.821,2.072 0,0.82 0.275,1.519 0.821,2.039 0.579,0.578 1.249,0.882 2.07,0.882 0.822,0 1.462,-0.304 2.039,-0.882 0.579,-0.521 0.853,-1.219 0.853,-2.039 0,-0.822 -0.273,-1.494 -0.853,-2.072 -0.577,-0.577 -1.217,-0.822 -2.039,-0.822"
           id="path1673" />
        <path
           inkscape:connector-curvature="0"
           style="fill:none;stroke:#388e36;stroke-width:1.97969997;stroke-linecap:round;stroke-linejoin:round;stroke-miterlimit:10"
           d="m 219.741,400.939 c -0.547,0.578 -0.821,1.248 -0.821,2.072 0,0.82 0.273,1.519 0.821,2.039 0.579,0.578 1.249,0.882 2.07,0.882 0.822,0 1.462,-0.304 2.038,-0.882 0.58,-0.521 0.854,-1.219 0.854,-2.039 0,-0.824 -0.273,-1.494 -0.854,-2.072 -0.576,-0.577 -1.216,-0.822 -2.038,-0.822 -0.821,0 -1.491,0.245 -2.07,0.822"
           id="path1675" />
        <path
           inkscape:connector-curvature="0"
           style="fill:#ffec00"
           d="m 218.769,403.741 -3.561,-0.519 -1.493,-2.616 c -0.364,-0.669 -0.73,-0.669 -1.096,0 l -1.551,2.616 -3.562,0.519 c -0.76,0.122 -0.913,0.486 -0.364,1.005 l 2.253,2.616 -0.458,3.135 c -0.213,0.7 0.031,0.945 0.761,0.729 l 3.469,-1.581 3.471,1.581 c 0.7,0.216 0.942,-0.029 0.761,-0.729 l -0.517,-3.166 2.281,-2.585 c 0.516,-0.518 0.367,-0.883 -0.394,-1.005"
           id="path1677" />
        <path
           inkscape:connector-curvature="0"
           style="fill:none;stroke:#6b7d27;stroke-width:1.97979999;stroke-linecap:round;stroke-linejoin:round;stroke-miterlimit:10"
           d="m 215.269,403.314 3.53,0.486 c 0.792,0.122 0.881,0.458 0.365,1.034 l -2.252,2.527 0.488,3.135 c 0.212,0.761 -0.061,1.005 -0.761,0.792 l -3.44,-1.583 -3.47,1.583 c -0.729,0.213 -1.003,-0.031 -0.759,-0.792 l 0.457,-3.104 -2.253,-2.559 c -0.517,-0.576 -0.364,-0.912 0.397,-1.034 l 3.53,-0.486 1.553,-2.679 c 0.363,-0.67 0.729,-0.67 1.095,0 l 1.52,2.68"
           id="path1679" />
        <path
           inkscape:connector-curvature="0"
           style="fill:#6eb2d4"
           d="m 216.151,306.984 c -4.2,4.077 -6.3,8.977 -6.3,14.76 0,5.753 2.101,10.653 6.3,14.702 4.201,4.11 9.314,6.147 15.249,6.147 5.935,0 11.048,-2.038 15.277,-6.147 4.2,-4.048 6.301,-8.948 6.301,-14.702 0,-5.783 -2.101,-10.683 -6.301,-14.76 -4.229,-4.048 -9.343,-6.118 -15.277,-6.118 -5.935,0 -11.048,2.07 -15.249,6.118"
           id="path1681" />
        <path
           inkscape:connector-curvature="0"
           style="fill:#7ccdf4"
           d="m 209.851,321.746 c 0,5.752 2.101,10.651 6.3,14.7 4.201,4.11 9.314,6.149 15.249,6.149 5.935,0 11.048,-2.04 15.277,-6.149 4.2,-4.048 6.301,-8.947 6.301,-14.7 0,-5.785 -2.101,-10.685 -6.301,-14.762 -4.229,-4.048 -9.343,-6.118 -15.277,-6.118 -5.935,0 -11.048,2.07 -15.249,6.118 -4.2,4.077 -6.3,8.977 -6.3,14.762"
           id="path1683" />
        <path
           inkscape:connector-curvature="0"
           style="fill:#5fc2cf"
           d="m 209.851,321.746 c 0,5.752 2.101,10.651 6.3,14.7 4.201,4.11 9.314,6.149 15.249,6.149 5.935,0 11.048,-2.04 15.277,-6.149 4.2,-4.048 6.301,-8.947 6.301,-14.7 0,-5.785 -2.101,-10.685 -6.301,-14.762 -4.229,-4.048 -9.343,-6.118 -15.277,-6.118 -5.935,0 -11.048,2.07 -15.249,6.118 -4.2,4.077 -6.3,8.977 -6.3,14.762"
           id="path1685" />
        <path
           inkscape:connector-curvature="0"
           style="fill:#6eb2d4"
           d="m 172.901,321.746 c 0,5.752 2.099,10.651 6.331,14.7 4.169,4.11 9.283,6.149 15.25,6.149 5.965,0 11.048,-2.04 15.247,-6.149 4.201,-4.048 6.301,-8.947 6.301,-14.7 0,-5.785 -2.1,-10.685 -6.301,-14.762 -4.198,-4.048 -9.281,-6.118 -15.247,-6.118 -5.967,0 -11.081,2.07 -15.25,6.118 -4.232,4.077 -6.331,8.977 -6.331,14.762"
           id="path1687" />
        <path
           inkscape:connector-curvature="0"
           style="fill:#7ccdf4"
           d="m 179.231,336.445 c 4.169,4.11 9.283,6.149 15.25,6.149 5.965,0 11.048,-2.04 15.247,-6.149 4.201,-4.048 6.301,-8.947 6.301,-14.7 0,-5.785 -2.1,-10.685 -6.301,-14.762 -4.198,-4.048 -9.281,-6.118 -15.247,-6.118 -5.967,0 -11.081,2.07 -15.25,6.118 -4.23,4.077 -6.331,8.977 -6.331,14.762 0.001,5.753 2.101,10.652 6.331,14.7"
           id="path1689" />
        <path
           inkscape:connector-curvature="0"
           style="fill:#5fc2cf"
           d="m 179.231,336.445 c 4.169,4.11 9.283,6.149 15.25,6.149 5.965,0 11.048,-2.04 15.247,-6.149 4.201,-4.048 6.301,-8.947 6.301,-14.7 0,-5.785 -2.1,-10.685 -6.301,-14.762 -4.198,-4.048 -9.281,-6.118 -15.247,-6.118 -5.967,0 -11.081,2.07 -15.25,6.118 -4.23,4.077 -6.331,8.977 -6.331,14.762 0.001,5.753 2.101,10.652 6.331,14.7"
           id="path1691" />
        <path
           inkscape:connector-curvature="0"
           style="fill:#ffffff"
           d="m 240.773,305.491 c -0.244,-0.09 -0.517,-0.182 -0.761,-0.244 -0.396,-0.12 -2.07,-0.365 -5.052,-0.729 -0.58,-0.123 -1.036,-0.245 -1.372,-0.396 -0.271,-0.031 -0.515,-0.06 -0.759,-0.06 -0.213,0 -0.366,-0.031 -0.519,-0.061 h -1.978 c -0.548,0.061 -2.739,0.364 -6.605,1.004 -1.886,0.304 -3.288,0.548 -4.291,0.7 -0.458,0.273 -1.036,0.609 -1.643,0.974 -1.31,0.883 -2.162,1.431 -2.587,1.674 -0.032,0.061 -0.06,0.091 -0.06,0.12 -1.067,1.493 -1.768,2.314 -2.164,2.467 2.042,3.166 3.044,6.787 3.044,10.805 0,4.017 -1.003,7.639 -3.074,10.834 0.882,1.401 1.95,2.649 3.166,3.866 4.232,4.11 9.345,6.147 15.31,6.147 5.934,0 11.019,-2.038 15.248,-6.147 3.076,-2.983 4.993,-6.392 5.845,-10.196 0.03,-0.517 0.122,-1.064 0.183,-1.613 0,-1.126 -0.093,-2.587 -0.304,-4.504 -0.06,-0.882 -0.123,-1.643 -0.152,-2.343 -0.275,-0.243 -0.427,-0.609 -0.518,-1.065 -0.152,-0.64 -0.243,-1.157 -0.367,-1.523 -0.06,-0.182 -0.089,-0.335 -0.152,-0.487 -0.029,-0.03 -0.091,-0.09 -0.12,-0.151 l -0.336,-0.549 c -1.37,-1.582 -2.434,-2.739 -3.195,-3.408 -1.614,-1.218 -3.135,-2.375 -4.505,-3.5 -0.639,-0.488 -1.218,-0.976 -1.705,-1.4 -0.21,-0.092 -0.393,-0.153 -0.577,-0.215"
           id="path1693" />
        <path
           inkscape:connector-curvature="0"
           style="fill:#ffffff"
           d="m 212.984,310.941 h -0.09 c -0.548,0 -1.278,-0.671 -2.191,-2.041 -1.064,-1.583 -1.675,-2.403 -1.765,-2.495 -0.426,-0.275 -1.369,-0.731 -2.802,-1.4 -0.182,-0.031 -0.334,-0.031 -0.456,-0.031 h -10.042 c -1.311,0.091 -2.832,0.244 -4.537,0.487 -1.218,0.153 -2.251,0.245 -3.074,0.273 -0.577,0.367 -1.429,0.763 -2.435,1.158 -2.893,1.248 -4.535,2.008 -4.96,2.343 -0.274,0.183 -1.096,1.278 -2.526,3.196 -1.31,1.825 -2.069,2.709 -2.344,2.709 H 175.7 c -0.243,0.213 -0.425,0.425 -0.577,0.609 0,0.03 -0.029,0.06 -0.089,0.151 -0.124,0.335 -0.244,0.638 -0.397,1.005 -0.517,1.188 -0.883,2.251 -1.186,3.164 -0.185,0.854 -0.275,1.767 -0.275,2.68 0,1.278 0.213,2.647 0.64,4.047 0.15,0.67 0.364,1.37 0.546,2.041 0,0.151 0,0.333 -0.029,0.486 1.034,2.618 2.648,4.99 4.899,7.122 4.202,4.11 9.283,6.147 15.25,6.147 5.965,0 11.048,-2.038 15.247,-6.147 1.25,-1.217 2.345,-2.464 3.227,-3.865 2.071,-3.196 3.074,-6.818 3.074,-10.835 -0.001,-4.017 -1.004,-7.638 -3.046,-10.804"
           id="path1695" />
        <path
           inkscape:connector-curvature="0"
           style="fill:none;stroke:#ffffff;stroke-width:1.21759999;stroke-linecap:round;stroke-linejoin:round"
           d="m 174.333,329.324 c 0.029,-0.152 0.029,-0.335 0.029,-0.486 -0.182,-0.671 -0.396,-1.371 -0.546,-2.041 -0.426,-1.4 -0.64,-2.769 -0.64,-4.047 0,-0.913 0.09,-1.826 0.275,-2.68 0.303,-0.913 0.669,-1.977 1.186,-3.164 0.153,-0.367 0.273,-0.67 0.397,-1.005 0.06,-0.091 0.089,-0.121 0.089,-0.151 0.152,-0.185 0.334,-0.396 0.577,-0.609 h 0.062 c 0.273,0 1.035,-0.884 2.344,-2.709 1.43,-1.917 2.252,-3.013 2.526,-3.196 0.426,-0.335 2.068,-1.096 4.96,-2.345 1.006,-0.394 1.857,-0.79 2.435,-1.156 0.822,-0.029 1.856,-0.12 3.074,-0.273 1.705,-0.243 3.226,-0.396 4.537,-0.487 h 10.042 c 0.122,0 0.274,0 0.456,0.031 1.433,0.669 2.376,1.125 2.802,1.4 0.09,0.091 0.701,0.912 1.765,2.495 0.914,1.37 1.643,2.041 2.191,2.041 h 0.09"
           id="path1697" />
        <path
           inkscape:connector-curvature="0"
           style="fill:none;stroke:#ffffff;stroke-width:1.21759999;stroke-linecap:round;stroke-linejoin:round"
           d="m 212.955,332.58 c 2.071,-3.195 3.074,-6.817 3.074,-10.834 0,-4.018 -1.003,-7.639 -3.044,-10.805"
           id="path1699" />
        <path
           inkscape:connector-curvature="0"
           style="fill:none;stroke:#ffffff;stroke-width:1.21759999;stroke-linecap:round;stroke-linejoin:round"
           d="m 252.522,326.249 c -0.852,3.805 -2.769,7.214 -5.845,10.196 -4.229,4.11 -9.313,6.149 -15.248,6.149 -5.965,0 -11.078,-2.04 -15.31,-6.149 -1.215,-1.217 -2.283,-2.465 -3.166,-3.866"
           id="path1701" />
        <path
           inkscape:connector-curvature="0"
           style="fill:none;stroke:#ffffff;stroke-width:1.21759999;stroke-linecap:round;stroke-linejoin:round"
           d="m 212.955,332.58 c -0.882,1.401 -1.977,2.649 -3.227,3.866 -4.198,4.11 -9.281,6.147 -15.247,6.147 -5.967,0 -11.048,-2.038 -15.25,-6.147 -2.252,-2.132 -3.865,-4.504 -4.899,-7.123"
           id="path1703" />
        <path
           inkscape:connector-curvature="0"
           style="fill:#ab6514"
           d="m 244.578,302.388 c -0.152,-1.4 -0.914,-1.704 -2.222,-0.853 l -5.539,2.648 -3.104,-4.657 c -0.639,-1.338 -1.431,-1.461 -2.375,-0.334 l -5.021,4.992 -3.197,-4.08 c -0.791,-1.216 -1.611,-1.216 -2.374,0.031 l -7.367,11.841 2.314,1.247 c 0.457,-0.487 0.945,-0.974 1.462,-1.46 4.016,-3.592 8.887,-5.387 14.609,-5.387 5.69,0 10.531,1.795 14.548,5.387 4.018,3.56 5.997,7.853 5.997,12.874 0,2.346 -0.426,4.505 -1.31,6.545 l 8.856,-0.427 c 1.431,-0.031 1.584,-0.518 0.548,-1.46 l -5.265,-6.332 4.2,-5.022 c 1.279,-0.821 1.279,-1.401 0,-1.704 l -7.394,-2.283 2.617,-5.173 c 0.943,-1.035 0.729,-1.462 -0.611,-1.217 l -7.701,0.608 -1.671,-5.784 z"
           id="path1705" />
        <path
           inkscape:connector-curvature="0"
           style="fill:#ab6514"
           d="m 202.729,300.104 -3.197,4.08 -5.022,-4.992 c -0.942,-1.126 -1.734,-1.004 -2.342,0.334 l -3.133,4.657 -5.542,-2.648 c -1.307,-0.852 -2.069,-0.547 -2.251,0.853 l -1.643,5.782 -7.701,-0.608 c -1.311,-0.243 -1.521,0.182 -0.61,1.217 l 2.649,5.174 -7.428,2.282 c -1.278,0.303 -1.278,0.883 -0.03,1.704 l 4.231,5.022 -5.266,6.332 c -1.034,0.943 -0.852,1.43 0.549,1.46 l 8.854,0.427 c -0.882,-2.04 -1.278,-4.201 -1.278,-6.545 0,-5.021 1.979,-9.314 5.966,-12.874 3.988,-3.592 8.858,-5.387 14.61,-5.387 5.69,0 10.531,1.795 14.579,5.387 0.486,0.487 1.003,0.974 1.461,1.46 l 2.311,-1.247 -7.333,-11.841 c -0.791,-1.246 -1.613,-1.246 -2.434,-0.029"
           id="path1707" />
        <path
           inkscape:connector-curvature="0"
           style="fill:#ab6514"
           d="m 221.751,301.444 c -2.374,1.035 -4.566,2.525 -6.543,4.443 -0.822,0.792 -1.583,1.615 -2.224,2.496 -0.729,-0.88 -1.521,-1.703 -2.341,-2.496 -2.072,-1.978 -4.323,-3.499 -6.728,-4.565 l -0.456,7.001 c 1.886,0.823 3.65,1.979 5.265,3.439 1.825,1.613 3.255,3.41 4.26,5.388 0.641,-1.399 1.553,-2.709 2.709,-3.927 0.457,-0.487 0.945,-0.974 1.462,-1.46 1.857,-1.674 3.896,-2.953 6.179,-3.835 l -1.583,-6.484 z"
           id="path1709" />
        <path
           inkscape:connector-curvature="0"
           d="m 193.356,319.432 c 1.368,-1.764 3.133,-2.739 5.324,-3.013 2.224,-0.274 4.201,0.273 5.966,1.643 1.767,1.399 2.77,3.166 3.014,5.357 0.271,2.223 -0.306,4.201 -1.676,5.935 -1.369,1.765 -3.134,2.74 -5.324,3.013 -2.225,0.274 -4.172,-0.272 -5.937,-1.643 -1.765,-1.37 -2.739,-3.166 -3.013,-5.387 -0.304,-2.191 0.275,-4.141 1.646,-5.905"
           id="path1711" />
        <path
           inkscape:connector-curvature="0"
           d="m 232.465,319.188 c -1.4,-1.735 -3.196,-2.769 -5.387,-3.012 -2.224,-0.245 -4.201,0.274 -5.936,1.673 -1.765,1.371 -2.741,3.136 -3.013,5.358 -0.275,2.191 0.272,4.168 1.645,5.905 1.399,1.765 3.194,2.768 5.386,3.012 2.191,0.273 4.169,-0.273 5.904,-1.674 1.735,-1.338 2.771,-3.135 3.014,-5.357 0.274,-2.191 -0.243,-4.17 -1.613,-5.905"
           id="path1713" />
        <path
           inkscape:connector-curvature="0"
           style="fill:#82110c"
           d="m 183.828,360.704 -5.296,-2.284 c 3.409,8.615 10.289,14.397 20.698,17.318 5.233,1.492 10.104,2.101 14.669,1.828 10.044,-0.549 18.505,-3.866 25.292,-10.043 3.409,-3.076 5.813,-6.119 7.213,-9.103 -15.765,6.696 -31.775,8.706 -48.089,6.027 -5.111,-0.852 -9.954,-2.071 -14.487,-3.743"
           id="path1715" />
        <path
           inkscape:connector-curvature="0"
           style="fill:#d50d18"
           d="m 223.029,364.904 c -6.847,0.882 -13.786,0.913 -20.758,0.12 0.61,2.132 1.339,3.684 2.162,4.78 1.737,2.251 4.444,3.377 8.157,3.377 3.774,0 6.513,-1.156 8.249,-3.377 0.821,-1.096 1.552,-2.739 2.19,-4.9"
           id="path1717" />
        <path
           inkscape:connector-curvature="0"
           style="fill:#e7467d"
           d="m 212.924,333.584 c -2.708,0 -5.021,0.669 -6.94,1.947 -1.886,1.311 -2.83,2.893 -2.83,4.718 0,1.827 0.944,3.439 2.83,4.717 1.919,1.31 4.231,1.98 6.94,1.98 2.709,0 4.96,-0.67 6.85,-1.98 1.946,-1.278 2.89,-2.89 2.89,-4.717 0,-1.825 -0.944,-3.407 -2.89,-4.718 -1.89,-1.278 -4.141,-1.947 -6.85,-1.947"
           id="path1719" />
      </g>
    </g>
  </g>
</svg>
