<?xml version="1.0" encoding="UTF-8" standalone="no"?>
<!-- Created with Inkscape (http://www.inkscape.org/) -->

<svg
   xmlns:dc="http://purl.org/dc/elements/1.1/"
   xmlns:cc="http://creativecommons.org/ns#"
   xmlns:rdf="http://www.w3.org/1999/02/22-rdf-syntax-ns#"
   xmlns:svg="http://www.w3.org/2000/svg"
   xmlns="http://www.w3.org/2000/svg"
   xmlns:sodipodi="http://sodipodi.sourceforge.net/DTD/sodipodi-0.dtd"
   xmlns:inkscape="http://www.inkscape.org/namespaces/inkscape"
   width="174.0625"
   height="180.25424"
   id="svg5696"
   version="1.1"
   inkscape:version="0.48.4 r9939"
   sodipodi:docname="zoe6.svg">
  <defs
     id="defs5698">
    <clipPath
       id="SVGID_2_">
      <rect
         height="88.862999"
         width="111.498"
         y="518.96198"
         x="382.04999"
         id="use1087" />
    </clipPath>
    <clipPath
       id="SVGID_4_">
      <rect
         height="41.314999"
         width="49.584999"
         y="525.19397"
         x="389.84698"
         id="use1111" />
    </clipPath>
  </defs>
  <sodipodi:namedview
     id="base"
     pagecolor="#ffffff"
     bordercolor="#666666"
     borderopacity="1.0"
     inkscape:pageopacity="0.0"
     inkscape:pageshadow="2"
     inkscape:zoom="0.77472527"
     inkscape:cx="117.88283"
     inkscape:cy="82.529735"
     inkscape:current-layer="layer1"
     inkscape:document-units="px"
     showgrid="false"
     inkscape:window-width="763"
     inkscape:window-height="591"
     inkscape:window-x="592"
     inkscape:window-y="97"
     inkscape:window-maximized="0"
     fit-margin-top="0"
     fit-margin-left="0"
     fit-margin-right="0"
     fit-margin-bottom="0" />
  <metadata
     id="metadata5701">
    <rdf:RDF>
      <cc:Work
         rdf:about="">
        <dc:format>image/svg+xml</dc:format>
        <dc:type
           rdf:resource="http://purl.org/dc/dcmitype/StillImage" />
        <dc:title></dc:title>
      </cc:Work>
    </rdf:RDF>
  </metadata>
  <g
     id="layer1"
     inkscape:label="Layer 1"
     inkscape:groupmode="layer"
     transform="translate(-200.06047,12.618132)">
    <g
       transform="translate(-351.65828,-306.51046)"
       id="g1299">
      <path
         inkscape:connector-curvature="0"
         style="fill:#eda1c1"
         d="m 629.836,430.957 8.723,-1.345 6.852,29.826 c -4.357,3.789 -8.223,4.152 -11.617,1.064 l -3.958,-29.545 0,0 z"
         id="path1301" />
      <path
         inkscape:connector-curvature="0"
         style="fill:none;stroke:#df5d91;stroke-width:2.68339992;stroke-linecap:round;stroke-miterlimit:10"
         d="m 638.559,429.612 6.852,29.826 c -4.357,3.789 -8.223,4.152 -11.617,1.064 l -3.957,-29.546 8.722,-1.344 0,0 z"
         id="path1303" />
      <path
         inkscape:connector-curvature="0"
         style="fill:#df5d91"
         d="m 612.691,452.968 c 1.602,-0.576 3.389,-0.988 5.396,-1.21 1.832,2.167 3.322,4.544 4.441,7.11 h 5.312 c -0.762,-1.754 -1.703,-3.408 -2.822,-4.986 -0.371,-0.532 -0.951,-1.297 -1.75,-2.3 3.117,0.058 6.26,0.338 9.432,0.839 1.361,1.934 2.557,4.071 3.607,6.447 h 7.314 c 0.168,2.7 0.348,5.562 0.539,8.584 -16.027,2.464 -26.359,3.083 -30.98,1.86 -4.635,-1.255 -7.07,-3.854 -7.289,-7.821 -0.217,-3.967 2.054,-6.811 6.8,-8.523 l 0,0 z"
         id="path1305" />
      <path
         inkscape:connector-curvature="0"
         style="fill:#eda1c1"
         d="m 618.088,451.758 c 1.746,-0.146 3.469,-0.205 5.182,-0.176 0.799,1.003 1.379,1.768 1.75,2.3 1.119,1.578 2.061,3.232 2.822,4.986 h -5.312 c -1.12,-2.566 -2.61,-4.943 -4.442,-7.11 l 0,0 z"
         id="path1307" />
      <path
         inkscape:connector-curvature="0"
         style="fill:none;stroke:#970f45;stroke-width:2.60100007;stroke-linecap:round;stroke-miterlimit:10"
         d="m 623.27,451.582 c 3.117,0.058 6.26,0.338 9.432,0.839 1.361,1.934 2.557,4.071 3.607,6.447 h 7.314 c 0.168,2.7 0.348,5.562 0.539,8.584 -16.027,2.464 -26.359,3.083 -30.98,1.86 -4.635,-1.253 -7.07,-3.854 -7.289,-7.821 -0.219,-3.965 2.053,-6.812 6.799,-8.523 1.602,-0.576 3.389,-0.988 5.396,-1.21 m 5.182,-0.176 c -1.713,-0.029 -3.436,0.029 -5.182,0.176 m 0,0 c 1.832,2.167 3.322,4.544 4.441,7.11 h 5.312 c -0.762,-1.754 -1.703,-3.408 -2.822,-4.986 -0.371,-0.532 -0.951,-1.297 -1.75,-2.3"
         id="path1309" />
      <path
         inkscape:connector-curvature="0"
         style="fill:#eda1c1"
         d="m 658.137,431.033 -8.883,0.39 -5.959,30.595 c 4.541,2.861 8.469,2.46 11.809,-1.234 l 3.033,-29.751 0,0 z"
         id="path1311" />
      <path
         inkscape:connector-curvature="0"
         style="fill:none;stroke:#df5d91;stroke-width:2.73189998;stroke-linecap:round;stroke-miterlimit:10"
         d="m 649.254,431.423 -5.959,30.595 c 4.541,2.861 8.469,2.46 11.805,-1.234 l 3.037,-29.75 -8.883,0.389 0,0 z"
         id="path1313" />
      <path
         inkscape:connector-curvature="0"
         style="fill:#df5d91"
         d="m 675.34,455.788 c -1.504,-0.576 -3.223,-0.988 -5.193,-1.21 -2.197,2.169 -4.086,4.541 -5.637,7.108 h -5.312 c 1.055,-1.755 2.279,-3.408 3.658,-4.987 0.465,-0.528 1.17,-1.297 2.139,-2.3 -3.123,0.061 -6.316,0.34 -9.576,0.844 -1.686,1.929 -3.24,4.066 -4.689,6.443 h -7.316 c -0.623,2.697 -1.285,5.557 -1.982,8.581 15.611,2.464 25.84,3.083 30.664,1.86 4.848,-1.255 7.721,-3.852 8.607,-7.816 0.885,-3.967 -0.904,-6.814 -5.363,-8.523 l 0,0 z"
         id="path1315" />
      <path
         inkscape:connector-curvature="0"
         style="fill:#eda1c1"
         d="m 670.146,454.578 c -1.723,-0.149 -3.432,-0.207 -5.152,-0.179 -0.969,1.003 -1.674,1.771 -2.139,2.3 -1.379,1.579 -2.604,3.232 -3.658,4.987 h 5.312 c 1.552,-2.567 3.44,-4.939 5.637,-7.108 l 0,0 z"
         id="path1317" />
      <path
         inkscape:connector-curvature="0"
         style="fill:none;stroke:#970f45;stroke-width:2.75370002;stroke-linecap:round;stroke-miterlimit:10"
         d="m 664.994,454.399 c -3.123,0.061 -6.316,0.34 -9.576,0.844 -1.686,1.929 -3.24,4.066 -4.689,6.443 h -7.316 c -0.623,2.697 -1.285,5.557 -1.982,8.581 15.611,2.464 25.84,3.083 30.664,1.86 4.848,-1.255 7.721,-3.852 8.607,-7.816 0.887,-3.968 -0.902,-6.814 -5.361,-8.523 -1.504,-0.576 -3.223,-0.988 -5.193,-1.21 m -5.154,-0.179 c 1.721,-0.028 3.43,0.029 5.152,0.179 m 0,0 c -2.197,2.169 -4.086,4.541 -5.641,7.108 h -5.309 c 1.055,-1.755 2.279,-3.408 3.658,-4.987 0.465,-0.528 1.17,-1.297 2.139,-2.3"
         id="path1319" />
      <path
         inkscape:connector-curvature="0"
         style="fill:#f18900"
         d="m 657.391,385.217 c -8.857,-2.803 -17.73,-3.113 -26.646,-0.932 l -0.461,13.224 5.537,5.344 15.432,0.538 5.68,-4.938 0.458,-13.236 0,0 z"
         id="path1321" />
      <path
         inkscape:connector-curvature="0"
         style="fill:none;stroke:#d04215;stroke-width:2.68319988;stroke-linecap:square;stroke-miterlimit:10"
         d="m 630.283,397.509 0.461,-13.221 c 8.916,-2.184 17.789,-1.874 26.646,0.929 l -0.459,13.235"
         id="path1323" />
      <path
         inkscape:connector-curvature="0"
         style="fill:#eda1c1"
         d="m 665.414,413.537 c -2.316,-5.992 -3.715,-11.725 -4.176,-17.227 -3.963,1.91 -8.443,3.245 -13.469,4.008 -5.039,0.761 -12.139,-0.033 -21.311,-2.404 -0.143,5.077 -1.232,10.601 -3.309,16.573 -0.871,2.767 -1.57,5.226 -2.1,7.339 -1.834,6.129 -0.859,11.397 2.932,15.829 13.658,4.63 27.533,4.321 41.613,-0.937 3.596,-4.596 4.34,-9.905 2.24,-15.943 -0.619,-2.089 -1.426,-4.511 -2.42,-7.238 l 0,0 z"
         id="path1325" />
      <path
         inkscape:connector-curvature="0"
         style="fill:none;stroke:#df5d91;stroke-width:2.68079996;stroke-linecap:square;stroke-miterlimit:10"
         d="m 661.238,396.311 c -3.963,1.91 -8.443,3.245 -13.469,4.008 -5.039,0.761 -12.139,-0.037 -21.311,-2.404 -0.143,5.077 -1.232,10.601 -3.309,16.573 -0.871,2.767 -1.57,5.226 -2.1,7.339 -1.834,6.129 -0.859,11.397 2.932,15.829 13.658,4.63 27.533,4.321 41.613,-0.937 3.596,-4.596 4.34,-9.905 2.24,-15.943 -0.621,-2.09 -1.428,-4.512 -2.422,-7.238 -2.314,-5.993 -3.713,-11.726 -4.174,-17.227 l 0,0 z"
         id="path1327" />
      <path
         inkscape:connector-curvature="0"
         style="fill:#f18900"
         d="m 634.037,404.914 -2.191,-10.436 c -12.662,8.917 -24.725,12.729 -36.145,11.442 -2.357,4.033 -2.037,7.805 0.973,11.302 11.881,0.405 24.332,-3.694 37.363,-12.308 l 0,0 z"
         id="path1329" />
      <path
         inkscape:connector-curvature="0"
         style="fill:none;stroke:#d04215;stroke-width:2.68359995;stroke-linecap:square;stroke-miterlimit:10"
         d="m 631.846,394.479 c -12.662,8.917 -24.725,12.729 -36.145,11.442 -2.357,4.033 -2.037,7.805 0.973,11.302 11.881,0.404 24.332,-3.694 37.363,-12.309 l -2.191,-10.435 0,0 z"
         id="path1331" />
      <path
         inkscape:connector-curvature="0"
         style="fill:#eda1c1"
         d="m 611.09,404.661 c -0.143,3.064 0.764,6.449 2.746,10.14 6.662,-2.047 13.385,-5.34 20.201,-9.887 l -2.191,-10.436 c -7.59,4.931 -14.506,8.323 -20.756,10.183 l 0,0 z"
         id="path1333" />
      <path
         inkscape:connector-curvature="0"
         style="fill:none;stroke:#df5d91;stroke-width:2.68359995;stroke-linecap:square;stroke-miterlimit:10"
         d="m 611.09,404.661 c 6.25,-1.86 13.166,-5.252 20.756,-10.183 l 2.191,10.436 c -6.816,4.547 -13.539,7.84 -20.201,9.887 -1.982,-3.691 -2.889,-7.075 -2.746,-10.14 l 0,0 z"
         id="path1335" />
      <polygon
         style="fill:#eda1c1"
         points="636.719,401.763 634.518,394.174 634.518,394.174 630.996,396.435 632.686,404.406 "
         id="polygon1337" />
      <path
         inkscape:connector-curvature="0"
         style="fill:#f18900"
         d="m 652.652,404.489 1.627,-10.538 c 13.121,8.226 25.371,11.385 36.705,9.487 2.57,3.903 2.451,7.685 -0.365,11.337 -11.84,1.04 -24.496,-2.384 -37.967,-10.286 l 0,0 z"
         id="path1339" />
      <path
         inkscape:connector-curvature="0"
         style="fill:none;stroke:#d04215;stroke-width:2.68350005;stroke-linecap:square;stroke-miterlimit:10"
         d="m 654.279,393.951 c 13.121,8.226 25.371,11.385 36.705,9.487 2.57,3.903 2.451,7.685 -0.365,11.337 -11.84,1.04 -24.496,-2.385 -37.967,-10.286 l 1.627,-10.538 0,0 z"
         id="path1341" />
      <path
         inkscape:connector-curvature="0"
         style="fill:#eda1c1"
         d="m 675.551,403.008 c 0.307,3.052 -0.418,6.479 -2.199,10.27 -6.764,-1.687 -13.652,-4.611 -20.699,-8.788 l 1.627,-10.538 c 7.843,4.515 14.929,7.53 21.271,9.056 l 0,0 z"
         id="path1343" />
      <path
         inkscape:connector-curvature="0"
         style="fill:none;stroke:#df5d91;stroke-width:2.68350005;stroke-linecap:square;stroke-miterlimit:10"
         d="m 675.551,403.008 c -6.342,-1.525 -13.428,-4.541 -21.271,-9.057 l -1.627,10.538 c 7.047,4.177 13.936,7.102 20.699,8.788 1.781,-3.791 2.505,-7.217 2.199,-10.269 l 0,0 z"
         id="path1345" />
      <polygon
         style="fill:#eda1c1"
         points="649.805,401.484 651.596,393.79 651.596,393.79 655.232,395.857 653.973,403.909 "
         id="polygon1347" />
      <path
         inkscape:connector-curvature="0"
         style="fill:#d04215"
         d="m 689.744,389.061 c 2.461,-1.196 4.693,-0.702 6.709,1.469 0.744,0.93 1.303,1.965 1.691,3.072 0.387,1.106 0.592,2.496 0.627,4.149 0.643,0.256 1.279,0.604 1.891,1.041 2.061,0.169 4.639,-0.503 7.752,-2.007 2.342,-0.862 4.219,-0.559 5.652,0.89 1.59,1.822 1.902,3.81 0.973,5.961 0.961,1.205 1.479,2.302 1.543,3.259 0.178,1.968 -0.787,3.689 -2.887,5.152 -0.91,2.741 -3.527,4.898 -7.85,6.473 -7.291,2.221 -13.951,1.312 -19.984,-2.702 l 1.629,-1.943 c 4.271,3.11 9.682,4.097 16.26,2.97 0.016,-0.015 0.031,-0.017 0.045,-0.003 3.547,-0.756 5.902,-2.165 7.045,-4.245 0.457,-1.798 -0.004,-3.078 -1.398,-3.833 -1.213,-0.358 -2.193,-0.054 -2.943,0.91 -1.209,1.98 -2.963,2.824 -5.234,2.54 l -0.34,-0.017 -0.332,-0.255 c -2.305,-1.687 -4.031,-2.387 -5.191,-2.097 -1.277,0.133 -2.354,0.549 -3.213,1.258 l -0.232,-1.016 1.041,-0.814 c 2.406,-2.241 5.344,-2.132 8.822,0.317 0.961,0.024 2.029,-0.449 3.207,-1.424 0.84,-0.764 1.895,-1.251 3.135,-1.458 1.26,-0.181 2.26,-0.039 2.998,0.445 0.766,0.471 1.363,1.266 1.826,2.379 1.164,-0.955 1.576,-2.01 1.26,-3.181 -0.473,-1.931 -1.867,-2.497 -4.209,-1.681 -3.557,1.2 -6.748,1.612 -9.564,1.213 l 0.486,-1.076 c 2.225,-0.141 5.049,-0.865 8.49,-2.173 1.377,-0.381 2.566,-0.493 3.555,-0.34 0.467,-1.312 0.262,-2.346 -0.584,-3.105 -1.217,-0.935 -2.564,-0.926 -4.039,0.012 -2.271,1.331 -5.273,1.89 -9.004,1.699 -1.656,-1.21 -3.232,-2.012 -4.746,-2.434 l -0.459,-1.057 c 0.635,-0.188 1.266,-0.268 1.904,-0.263 -0.041,-2.217 -0.646,-3.986 -1.834,-5.308 -1.172,-1.251 -2.477,-1.467 -3.906,-0.668 -1.166,0.913 -1.852,2.11 -2.037,3.604 l 1.459,2.6 c -0.006,-0.088 0.064,0.219 0.193,0.903 0.115,0.655 -0.363,1.66 -1.434,3.021 -1.059,1.347 -1.883,2.627 -2.477,3.861 -0.67,-0.403 -1.246,-0.725 -1.695,-0.97 0.646,-1.312 1.262,-2.459 1.848,-3.41 0.732,-1.183 1.039,-2.099 0.941,-2.758 l -1.566,-3.14 c 0.502,-2.657 1.895,-4.61 4.176,-5.82 l 0,0 z"
         id="path1349" />
      <path
         inkscape:connector-curvature="0"
         style="fill:#f18900"
         d="m 690.334,391.172 c 1.43,-0.799 2.734,-0.583 3.906,0.668 1.188,1.321 1.793,3.091 1.834,5.308 -0.639,-0.005 -1.27,0.074 -1.904,0.263 l 0.459,1.057 c 1.514,0.422 3.09,1.224 4.746,2.434 3.73,0.19 6.732,-0.368 9.004,-1.699 1.475,-0.938 2.822,-0.946 4.039,-0.012 0.846,0.76 1.051,1.794 0.584,3.105 -0.988,-0.153 -2.178,-0.041 -3.555,0.34 -3.441,1.308 -6.266,2.032 -8.49,2.173 l -0.486,1.076 c 2.816,0.399 6.008,-0.013 9.564,-1.213 2.342,-0.816 3.736,-0.25 4.209,1.681 0.316,1.171 -0.096,2.226 -1.26,3.181 -0.463,-1.113 -1.061,-1.908 -1.826,-2.377 -0.738,-0.486 -1.738,-0.628 -2.998,-0.447 -1.24,0.207 -2.295,0.694 -3.135,1.458 -1.178,0.975 -2.246,1.448 -3.207,1.424 -3.479,-2.449 -6.416,-2.559 -8.822,-0.317 l -1.041,0.814 0.232,1.016 c 0.859,-0.709 1.936,-1.125 3.213,-1.258 1.16,-0.29 2.887,0.41 5.191,2.099 l 0.332,0.253 0.34,0.017 c 2.271,0.284 4.025,-0.56 5.234,-2.54 0.75,-0.964 1.73,-1.269 2.943,-0.91 1.395,0.755 1.855,2.035 1.398,3.833 -1.143,2.08 -3.498,3.489 -7.045,4.245 -0.014,-0.014 -0.029,-0.012 -0.045,0.003 -6.578,1.127 -11.988,0.141 -16.26,-2.97 -1.275,-1.09 -2.213,-2.579 -2.801,-4.485 0.326,-1.581 0.773,-2.993 1.35,-4.227 0.594,-1.234 1.418,-2.515 2.477,-3.861 1.07,-1.361 1.549,-2.366 1.434,-3.021 -0.129,-0.685 -0.199,-0.991 -0.193,-0.899 l -1.459,-2.604 c 0.186,-1.498 0.872,-2.695 2.038,-3.608 l 0,0 z"
         id="path1351" />
      <path
         inkscape:connector-curvature="0"
         style="fill:#eda1c1"
         d="m 664.273,413.988 -0.016,-0.015 c -2.115,-5.494 -3.473,-10.757 -4.07,-15.817 -3.678,1.567 -7.748,2.705 -12.242,3.376 -4.879,0.744 -11.65,0.059 -20.314,-2.056 -0.297,4.756 -1.412,9.897 -3.316,15.424 l 0.012,-0.029 c -0.869,2.741 -1.557,5.152 -2.057,7.251 l -0.029,0.061 c -1.67,5.548 -0.838,10.369 2.488,14.426 13.166,4.378 26.523,4.078 40.092,-0.918 3.145,-4.201 3.748,-9.037 1.84,-14.509 l -0.014,-0.058 c -0.606,-2.074 -1.399,-4.453 -2.374,-7.136 l 0,0 z"
         id="path1353" />
      <path
         inkscape:connector-curvature="0"
         style="fill:#df5d91"
         d="m 639.209,445.514 c 0.311,0.261 0.652,0.51 1.02,0.731 3.418,2.21 6.693,1.943 9.854,-0.785 1.043,-0.995 1.674,-1.573 1.893,-1.749 0.955,-0.728 1.852,-1.103 2.664,-1.106 1.756,-0.008 3.322,0.634 4.713,1.939 0.729,0.689 1.277,1.146 1.676,1.363 0.709,0.396 1.553,0.599 2.51,0.595 0.871,-0.007 1.684,-0.23 2.432,-0.678 0.439,-0.281 1.045,-0.785 1.822,-1.513 0.748,-0.727 1.35,-1.23 1.805,-1.515 0.738,-0.46 1.533,-0.686 2.389,-0.689 1.254,-0.006 2.66,0.709 4.229,2.132 0.801,0.75 1.395,1.235 1.762,1.454 0.682,0.454 1.359,0.67 2.025,0.668 1.844,-0.011 3.184,-0.56 4.047,-1.642 0.322,-0.399 0.777,-1.258 1.375,-2.573 l -13.586,-12.503 c -18.863,0.932 -36.902,0.828 -54.123,-0.33 l -13.891,13.198 c 0.611,1.34 1.072,2.191 1.4,2.59 0.875,1.073 2.217,1.609 4.062,1.602 0.662,-0.005 1.34,-0.227 2.018,-0.69 0.367,-0.222 0.955,-0.711 1.748,-1.467 1.557,-1.439 2.953,-2.167 4.209,-2.176 0.838,-0.002 1.637,0.216 2.393,0.67 0.443,0.277 1.049,0.776 1.82,1.493 0.785,0.72 1.395,1.219 1.836,1.498 0.754,0.438 1.566,0.655 2.438,0.65 0.959,-0.002 1.801,-0.215 2.506,-0.617 0.381,-0.222 0.924,-0.682 1.645,-1.38 1.396,-1.317 2.957,-1.975 4.713,-1.982 0.811,-0.004 1.709,0.358 2.674,1.077 0.217,0.179 0.871,0.75 1.922,1.735 l 0,0 z"
         id="path1355" />
      <path
         inkscape:connector-curvature="0"
         style="fill:none;stroke:#970f45;stroke-width:2.68370008;stroke-linecap:round;stroke-miterlimit:10"
         d="m 639.209,445.514 c -1.051,-0.984 -1.705,-1.556 -1.926,-1.734 -0.965,-0.719 -1.863,-1.081 -2.674,-1.077 -1.756,0.008 -3.316,0.665 -4.713,1.982 -0.721,0.698 -1.264,1.158 -1.645,1.38 -0.705,0.402 -1.547,0.615 -2.506,0.617 -0.871,0.005 -1.684,-0.213 -2.438,-0.65 -0.441,-0.279 -1.051,-0.778 -1.836,-1.496 -0.771,-0.719 -1.377,-1.218 -1.82,-1.495 -0.756,-0.454 -1.555,-0.672 -2.393,-0.67 -1.256,0.009 -2.652,0.736 -4.209,2.176 -0.793,0.756 -1.381,1.245 -1.748,1.467 -0.678,0.464 -1.355,0.688 -2.018,0.69 -1.846,0.008 -3.188,-0.528 -4.062,-1.602 -0.328,-0.398 -0.789,-1.25 -1.4,-2.59 l 13.891,-13.198 c 17.221,1.158 35.26,1.262 54.123,0.33 l 13.586,12.503 c -0.598,1.315 -1.053,2.174 -1.375,2.573 -0.863,1.082 -2.203,1.631 -4.047,1.642 -0.666,0.002 -1.344,-0.214 -2.025,-0.668 -0.367,-0.219 -0.961,-0.704 -1.762,-1.454 -1.568,-1.423 -2.975,-2.138 -4.229,-2.132 -0.855,0.004 -1.65,0.229 -2.389,0.689 -0.455,0.284 -1.057,0.788 -1.805,1.515 -0.777,0.728 -1.383,1.231 -1.822,1.515 -0.748,0.445 -1.561,0.669 -2.432,0.676 -0.957,0.004 -1.801,-0.199 -2.51,-0.595 -0.398,-0.218 -0.947,-0.674 -1.676,-1.363 -1.391,-1.306 -2.957,-1.947 -4.713,-1.939 -0.812,0.004 -1.709,0.379 -2.664,1.106 -0.219,0.176 -0.85,0.754 -1.893,1.749 -3.16,2.729 -6.436,2.995 -9.854,0.785 -0.364,-0.223 -0.705,-0.47 -1.016,-0.732 l 0,0 z"
         id="path1357" />
      <path
         inkscape:connector-curvature="0"
         style="fill:#df5d91"
         d="m 650.135,432.642 c 0.941,-0.698 1.811,-1.055 2.623,-1.062 1.709,-0.008 3.262,0.62 4.639,1.867 0.711,0.659 1.26,1.083 1.645,1.305 0.697,0.378 1.521,0.566 2.467,0.562 0.842,-0.002 1.635,-0.228 2.371,-0.66 0.439,-0.268 1.043,-0.757 1.795,-1.455 0.748,-0.696 1.348,-1.185 1.775,-1.439 0.736,-0.445 1.516,-0.672 2.357,-0.676 1.225,-0.004 2.613,0.684 4.154,2.047 0.787,0.719 1.361,1.188 1.732,1.409 0.668,0.423 1.316,0.64 1.98,0.638 0.045,0 0.088,0 0.135,0 0.955,-0.021 1.781,-0.172 2.443,-0.484 0.574,-0.255 1.047,-0.624 1.412,-1.084 0.322,-0.385 0.775,-1.229 1.342,-2.515 l -14.754,-10.326 c -16.627,5.418 -32.543,5.453 -47.732,0.098 l -14.391,10.602 c 0.58,1.28 1.043,2.119 1.352,2.5 0.387,0.456 0.863,0.823 1.422,1.069 0.666,0.292 1.479,0.452 2.408,0.46 0.059,0 0.117,0 0.191,0 0.664,-0.002 1.312,-0.226 1.973,-0.656 0.367,-0.225 0.941,-0.701 1.721,-1.428 1.527,-1.376 2.91,-2.076 4.135,-2.085 0.842,-0.004 1.623,0.214 2.35,0.655 0.441,0.246 1.049,0.731 1.805,1.421 0.756,0.69 1.363,1.175 1.809,1.437 0.736,0.424 1.535,0.642 2.377,0.638 0.943,-0.004 1.768,-0.201 2.459,-0.586 0.385,-0.225 0.928,-0.655 1.631,-1.322 1.367,-1.26 2.912,-1.902 4.623,-1.91 0.812,-0.002 1.684,0.346 2.631,1.034 0.252,0.19 1.037,0.88 2.357,2.069 1.881,1.687 4.031,1.676 6.43,-0.031 1.305,-1.204 2.085,-1.902 2.333,-2.092 l 0,0 z"
         id="path1359" />
      <path
         inkscape:connector-curvature="0"
         style="fill:none;stroke:#970f45;stroke-width:2.68370008;stroke-linecap:round;stroke-miterlimit:10"
         d="m 650.135,432.642 c -0.248,0.19 -1.027,0.889 -2.334,2.09 -2.398,1.707 -4.549,1.718 -6.43,0.031 -1.32,-1.189 -2.105,-1.879 -2.357,-2.069 -0.947,-0.688 -1.818,-1.036 -2.631,-1.034 -1.711,0.008 -3.256,0.65 -4.623,1.91 -0.703,0.667 -1.246,1.098 -1.631,1.322 -0.691,0.385 -1.516,0.582 -2.459,0.586 -0.842,0.004 -1.641,-0.214 -2.377,-0.636 -0.445,-0.264 -1.053,-0.748 -1.809,-1.438 -0.756,-0.689 -1.363,-1.173 -1.805,-1.421 -0.727,-0.441 -1.508,-0.657 -2.35,-0.655 -1.225,0.009 -2.607,0.709 -4.135,2.085 -0.779,0.727 -1.354,1.203 -1.721,1.428 -0.66,0.431 -1.309,0.654 -1.973,0.656 -0.074,0 -0.133,0 -0.191,0 -0.93,-0.008 -1.742,-0.168 -2.408,-0.46 -0.559,-0.246 -1.035,-0.613 -1.422,-1.069 -0.309,-0.381 -0.771,-1.22 -1.352,-2.5 l 14.391,-10.602 c 15.189,5.355 31.105,5.32 47.732,-0.098 l 14.754,10.326 c -0.566,1.286 -1.02,2.13 -1.342,2.515 -0.365,0.46 -0.838,0.829 -1.412,1.084 -0.662,0.312 -1.488,0.464 -2.443,0.484 -0.047,0 -0.09,0 -0.135,0 -0.664,0.002 -1.312,-0.215 -1.98,-0.638 -0.371,-0.222 -0.945,-0.69 -1.732,-1.409 -1.541,-1.363 -2.93,-2.051 -4.154,-2.047 -0.842,0.004 -1.621,0.23 -2.357,0.676 -0.428,0.255 -1.027,0.743 -1.775,1.439 -0.752,0.698 -1.355,1.188 -1.795,1.455 -0.736,0.433 -1.529,0.658 -2.371,0.66 -0.943,0.005 -1.77,-0.184 -2.467,-0.562 -0.385,-0.222 -0.934,-0.644 -1.645,-1.305 -1.377,-1.247 -2.93,-1.875 -4.639,-1.867 -0.812,0.008 -1.681,0.364 -2.622,1.063 l 0,0 z"
         id="path1361" />
      <path
         inkscape:connector-curvature="0"
         style="fill:#d04215"
         d="m 595.715,391.474 c -2.545,-1.011 -4.734,-0.353 -6.582,1.961 -0.674,0.981 -1.156,2.056 -1.461,3.188 -0.305,1.134 -0.406,2.535 -0.318,4.188 -0.621,0.307 -1.23,0.696 -1.811,1.179 -2.037,0.321 -4.658,-0.159 -7.877,-1.428 -2.398,-0.686 -4.248,-0.246 -5.574,1.306 -1.447,1.935 -1.615,3.938 -0.527,6.013 -0.867,1.278 -1.305,2.411 -1.299,3.368 -0.033,1.975 1.061,3.624 3.26,4.927 1.113,2.665 3.883,4.623 8.311,5.874 7.436,1.672 14.012,0.273 19.73,-4.175 l -1.768,-1.814 c -4.029,3.414 -9.352,4.796 -16,4.16 -0.014,-0.015 -0.027,-0.015 -0.043,0 -3.596,-0.489 -6.047,-1.722 -7.342,-3.709 -0.59,-1.761 -0.223,-3.07 1.111,-3.928 1.186,-0.448 2.188,-0.22 3.004,0.689 1.357,1.886 3.164,2.596 5.41,2.145 l 0.338,-0.042 0.312,-0.277 c 2.172,-1.853 3.846,-2.679 5.023,-2.476 1.283,0.041 2.387,0.373 3.295,1.018 l 0.158,-1.032 -1.102,-0.731 c -2.562,-2.06 -5.486,-1.732 -8.77,0.97 -0.959,0.091 -2.062,-0.303 -3.307,-1.183 -0.896,-0.703 -1.984,-1.111 -3.236,-1.223 -1.27,-0.087 -2.258,0.126 -2.957,0.665 -0.727,0.521 -1.266,1.359 -1.643,2.507 -1.234,-0.866 -1.725,-1.888 -1.494,-3.081 0.328,-1.958 1.678,-2.627 4.074,-1.984 3.635,0.935 6.85,1.11 9.629,0.501 l -0.564,-1.038 c -2.229,0.025 -5.102,-0.488 -8.631,-1.539 -1.4,-0.277 -2.594,-0.303 -3.57,-0.074 -0.562,-1.276 -0.436,-2.323 0.354,-3.14 1.143,-1.023 2.486,-1.114 4.029,-0.29 2.365,1.158 5.4,1.496 9.107,1.026 1.561,-1.328 3.074,-2.244 4.553,-2.776 l 0.377,-1.088 c -0.646,-0.139 -1.281,-0.172 -1.912,-0.12 -0.129,-2.216 0.344,-4.023 1.434,-5.43 1.074,-1.334 2.359,-1.646 3.844,-0.954 1.232,0.821 2.004,1.964 2.299,3.441 l -1.264,2.704 c 0.002,-0.087 -0.047,0.22 -0.123,0.911 -0.068,0.667 0.486,1.631 1.652,2.907 1.154,1.266 2.074,2.484 2.756,3.671 0.637,-0.453 1.188,-0.816 1.619,-1.092 -0.744,-1.264 -1.441,-2.357 -2.096,-3.265 -0.816,-1.13 -1.193,-2.017 -1.143,-2.68 l 1.33,-3.25 c -0.699,-2.619 -2.228,-4.461 -4.595,-5.5 l 0,0 z"
         id="path1363" />
      <path
         inkscape:connector-curvature="0"
         style="fill:#f18900"
         d="m 595.281,393.624 c -1.484,-0.692 -2.77,-0.38 -3.844,0.954 -1.09,1.406 -1.562,3.214 -1.434,5.43 0.631,-0.052 1.266,-0.019 1.912,0.12 l -0.377,1.088 c -1.479,0.532 -2.992,1.448 -4.553,2.776 -3.707,0.47 -6.742,0.132 -9.107,-1.026 -1.543,-0.824 -2.887,-0.733 -4.029,0.29 -0.789,0.816 -0.916,1.863 -0.354,3.14 0.977,-0.229 2.17,-0.203 3.57,0.074 3.529,1.051 6.402,1.564 8.631,1.539 l 0.564,1.038 c -2.779,0.609 -5.994,0.434 -9.629,-0.501 -2.396,-0.643 -3.746,0.026 -4.074,1.984 -0.23,1.193 0.26,2.215 1.494,3.081 0.377,-1.147 0.916,-1.982 1.643,-2.507 0.699,-0.539 1.688,-0.752 2.957,-0.665 1.252,0.111 2.34,0.52 3.236,1.223 1.244,0.88 2.348,1.273 3.307,1.183 3.283,-2.702 6.207,-3.029 8.77,-0.97 l 1.102,0.731 -0.158,1.032 c -0.908,-0.645 -2.012,-0.977 -3.295,-1.018 -1.178,-0.203 -2.852,0.623 -5.023,2.476 l -0.312,0.277 -0.338,0.044 c -2.246,0.449 -4.053,-0.261 -5.41,-2.146 -0.816,-0.909 -1.818,-1.138 -3.004,-0.689 -1.334,0.857 -1.701,2.167 -1.111,3.928 1.295,1.987 3.746,3.22 7.342,3.709 0.016,-0.015 0.029,-0.015 0.043,0 6.648,0.636 11.971,-0.746 16,-4.16 1.189,-1.186 2.018,-2.739 2.463,-4.685 -0.445,-1.552 -0.992,-2.93 -1.66,-4.115 -0.682,-1.187 -1.602,-2.405 -2.756,-3.671 -1.166,-1.276 -1.721,-2.24 -1.652,-2.905 0.076,-0.693 0.125,-1 0.123,-0.913 l 1.264,-2.704 c -0.297,-1.478 -1.068,-2.621 -2.301,-3.442 l 0,0 z"
         id="path1365" />
      <path
         inkscape:connector-curvature="0"
         style="fill:#f18900"
         d="m 676.816,318.587 c -1.48,-0.36 -2.947,-0.69 -4.412,-0.978 -20.561,-4.083 -39.924,-2.411 -58.072,5.028 -2.803,-3.048 -7.404,-4.472 -13.791,-4.302 -8.365,0.223 -14.422,-1.608 -18.201,-5.458 -0.908,6.124 1.395,11.312 6.922,15.564 -6.512,-1.536 -11.018,-0.5 -13.488,3.112 -3.51,5.059 -8.295,5.862 -14.326,2.421 0.652,6.567 5.49,9.336 14.535,8.309 -3.518,6.006 -10.162,8.922 -19.939,8.722 7.08,5.022 14.912,6.161 23.52,3.412 -2.027,2.3 -3.463,4.333 -4.293,6.107 -2.188,4.69 -6.338,7.303 -12.453,7.87 7.441,4.086 14.918,3.633 22.422,-1.37 -1.828,5.761 -5.48,9.13 -10.936,10.086 4.996,4.239 11.252,4.639 18.754,1.201 8.848,6.208 19.955,10.085 33.352,11.619 1.832,0.235 3.891,0.354 6.184,0.389 10.172,0.092 20.484,-0.655 30.957,-2.209 4.15,-0.619 7.969,-1.529 11.434,-2.73 4.996,-1.744 9.281,-4.082 12.854,-7.019 1.213,-1.014 3.199,-2.974 5.979,-5.863 2.611,0.782 4.531,1.221 5.746,1.301 3.984,0.232 7.756,-1.312 11.307,-4.644 -4.482,-1.15 -7.559,-3.017 -9.229,-5.594 3.074,0.254 5.756,0.117 8.059,-0.397 2.816,-0.619 5.559,-2.028 8.258,-4.205 -5.15,-0.181 -9.158,-2.349 -12.006,-6.486 -0.984,-1.409 -1.979,-2.799 -2.986,-4.176 2.445,0.142 4.818,0.01 7.082,-0.401 4.508,-0.8 8.584,-3.159 12.234,-7.044 -9.463,1.111 -15.758,-0.984 -18.854,-6.321 3.773,-0.374 6.547,-1.284 8.326,-2.73 1.018,-0.811 1.742,-1.812 2.162,-2.989 0.039,-0.09 0.064,-0.18 0.107,-0.257 0.414,-1.308 0.502,-2.82 0.258,-4.536 -0.166,0.143 -0.336,0.288 -0.49,0.429 -0.805,0.651 -1.59,1.138 -2.369,1.492 -3.398,1.537 -6.682,0.439 -9.834,-3.33 -1.174,-1.411 -3.232,-2.771 -6.156,-4.068 2.033,-3.735 2.531,-7.781 1.473,-12.139 -2.801,4.264 -6.111,6.609 -9.93,7.045 -3.835,0.422 -7.21,2.137 -10.16,5.139 l 0,0 z"
         id="path1367" />
      <path
         inkscape:connector-curvature="0"
         style="fill:none;stroke:#d04215;stroke-width:2.68359995;stroke-linecap:square;stroke-miterlimit:10"
         d="m 672.404,317.61 c -20.561,-4.083 -39.924,-2.411 -58.072,5.028 -2.803,-3.048 -7.404,-4.472 -13.791,-4.302 -8.365,0.223 -14.422,-1.608 -18.201,-5.458 -0.908,6.124 1.395,11.312 6.922,15.564 -6.512,-1.536 -11.018,-0.5 -13.488,3.112 -3.51,5.059 -8.295,5.862 -14.326,2.421 0.652,6.567 5.49,9.336 14.535,8.309 -3.518,6.006 -10.162,8.922 -19.939,8.722 7.08,5.022 14.912,6.161 23.52,3.412 -2.027,2.3 -3.463,4.333 -4.293,6.107 -2.188,4.69 -6.338,7.303 -12.453,7.87 7.441,4.086 14.918,3.633 22.422,-1.37 -1.828,5.761 -5.48,9.13 -10.936,10.086 4.996,4.239 11.252,4.639 18.754,1.201 8.848,6.208 19.955,10.085 33.352,11.619 1.832,0.235 3.891,0.354 6.184,0.389 10.172,0.092 20.484,-0.655 30.957,-2.209 4.15,-0.619 7.969,-1.529 11.434,-2.73 4.996,-1.744 9.281,-4.082 12.854,-7.019 1.213,-1.014 3.199,-2.974 5.979,-5.863 2.611,0.782 4.529,1.221 5.746,1.301 3.984,0.232 7.756,-1.312 11.307,-4.644 -4.482,-1.15 -7.559,-3.017 -9.229,-5.594 3.074,0.254 5.756,0.117 8.059,-0.397 2.816,-0.619 5.559,-2.028 8.258,-4.205 -5.15,-0.181 -9.158,-2.349 -12.006,-6.486 -0.984,-1.409 -1.979,-2.799 -2.986,-4.176 2.445,0.142 4.818,0.01 7.082,-0.401 4.508,-0.8 8.584,-3.159 12.234,-7.044 -9.463,1.111 -15.758,-0.984 -18.854,-6.321 3.773,-0.374 6.547,-1.284 8.326,-2.73 1.018,-0.811 1.742,-1.812 2.162,-2.989 0.039,-0.09 0.064,-0.18 0.107,-0.257 0.414,-1.308 0.502,-2.82 0.258,-4.536 -0.166,0.143 -0.336,0.288 -0.49,0.429 -0.805,0.651 -1.59,1.138 -2.369,1.492 -3.398,1.537 -6.682,0.439 -9.834,-3.33 -1.174,-1.411 -3.232,-2.771 -6.156,-4.068 2.033,-3.735 2.531,-7.781 1.473,-12.139 -2.801,4.264 -6.111,6.609 -9.93,7.045 -3.832,0.423 -7.207,2.139 -10.156,5.141 -1.484,-0.362 -2.951,-0.693 -4.416,-0.98 l 0,0 z"
         id="path1369" />
      <path
         inkscape:connector-curvature="0"
         style="fill:#9dc517"
         d="m 692.754,324.317 1.141,2.537 c 0.225,0.504 0.373,1.013 0.424,1.511 l -0.285,-0.249 c -0.416,-0.363 -0.762,-0.282 -1.051,0.222 l -0.824,1.54 c -0.264,0.5 -0.195,0.924 0.189,1.303 -0.244,-0.002 -0.496,-0.031 -0.754,-0.09 l -2.236,-0.465 c -1.127,-0.248 -1.422,-0.939 -0.9,-2.077 0.342,-0.773 0.824,-1.495 1.457,-2.151 l 1.008,-2.184 c 0.616,-1.336 1.227,-1.297 1.831,0.103 l 0,0 z"
         id="path1371" />
      <path
         inkscape:connector-curvature="0"
         style="fill:#9dc517"
         d="m 692.158,329.878 0.824,-1.54 c 0.289,-0.504 0.635,-0.584 1.051,-0.222 l 0.285,0.249 0.971,0.847 0.188,0.151 c 0.404,0.376 0.477,0.814 0.189,1.319 l -0.836,1.539 c -0.221,0.442 -0.521,0.563 -0.871,0.345 -0.051,-0.042 -0.098,-0.083 -0.16,-0.122 l -1.426,-1.25 c -0.012,-0.015 -0.012,-0.015 -0.025,-0.013 -0.385,-0.379 -0.453,-0.803 -0.19,-1.303 l 0,0 z"
         id="path1373" />
      <path
         inkscape:connector-curvature="0"
         style="fill:#9dc517"
         d="m 695.477,329.363 -0.188,-0.151 c 0.391,-0.11 0.811,-0.12 1.273,-0.042 l 2.273,0.433 c 1.25,0.24 1.492,0.979 0.717,2.19 l -1.234,1.944 c -0.168,0.971 -0.482,1.816 -0.943,2.552 -0.666,1.086 -1.316,0.959 -1.939,-0.38 l -1.172,-2.488 c -0.133,-0.289 -0.23,-0.579 -0.305,-0.856 0.35,0.219 0.65,0.097 0.871,-0.345 l 0.836,-1.539 c 0.287,-0.503 0.215,-0.941 -0.189,-1.318 l 0,0 z"
         id="path1375" />
      <path
         inkscape:connector-curvature="0"
         style="fill:none;stroke:#388e36;stroke-width:2.01270008;stroke-linecap:round;stroke-linejoin:round;stroke-miterlimit:10"
         d="m 694.318,328.365 c -0.051,-0.498 -0.199,-1.007 -0.424,-1.511 l -1.139,-2.537 c -0.605,-1.4 -1.217,-1.439 -1.834,-0.104 l -1.008,2.184 c -0.629,0.657 -1.115,1.378 -1.457,2.151 -0.521,1.137 -0.227,1.829 0.9,2.077 l 2.236,0.465 c 0.262,0.059 0.51,0.087 0.754,0.09 m 0.002,10e-4 c -0.385,-0.379 -0.453,-0.803 -0.189,-1.303 l 0.826,-1.54 c 0.287,-0.504 0.635,-0.581 1.049,-0.222 l 0.285,0.249 m 0.97,0.847 -0.971,-0.847 m 0.971,0.847 0.188,0.151 c 0.404,0.376 0.477,0.814 0.189,1.319 l -0.836,1.539 c -0.221,0.442 -0.521,0.563 -0.867,0.345 m 0,0 c 0.07,0.277 0.168,0.568 0.301,0.856 l 1.172,2.488 c 0.623,1.339 1.273,1.466 1.939,0.38 0.461,-0.736 0.775,-1.581 0.943,-2.552 l 1.234,-1.944 c 0.775,-1.211 0.533,-1.95 -0.717,-2.19 l -2.273,-0.433 c -0.459,-0.079 -0.879,-0.069 -1.273,0.042 m -2.941,1.968 c 0.014,-0.002 0.014,-0.002 0.025,0.013 l 1.426,1.25 c 0.062,0.04 0.109,0.081 0.164,0.122"
         id="path1377" />
      <path
         inkscape:connector-curvature="0"
         style="fill:#ab61a3"
         d="m 599.018,329.259 -1.105,2.661 c -0.221,0.531 -0.338,1.055 -0.34,1.557 l 0.322,-0.284 c 0.479,-0.411 0.924,-0.376 1.35,0.085 l 1.234,1.424 c 0.396,0.465 0.359,0.896 -0.074,1.319 0.309,-0.031 0.613,-0.093 0.934,-0.186 l 2.75,-0.746 c 1.383,-0.389 1.666,-1.114 0.869,-2.177 -0.527,-0.724 -1.23,-1.378 -2.105,-1.949 l -1.549,-2.038 c -0.945,-1.25 -1.704,-1.133 -2.286,0.334 l 0,0 z"
         id="path1379" />
      <path
         inkscape:connector-curvature="0"
         style="fill:#ab61a3"
         d="m 600.479,334.702 -1.234,-1.424 c -0.426,-0.462 -0.871,-0.497 -1.35,-0.085 l -0.322,0.284 -1.113,0.963 -0.211,0.176 c -0.465,0.423 -0.498,0.869 -0.074,1.333 l 1.248,1.422 c 0.334,0.408 0.723,0.491 1.137,0.23 0.057,-0.047 0.113,-0.093 0.186,-0.143 l 1.631,-1.421 c 0.016,-0.017 0.016,-0.017 0.029,-0.017 0.432,-0.423 0.469,-0.853 0.073,-1.318 l 0,0 z"
         id="path1381" />
      <path
         inkscape:connector-curvature="0"
         style="fill:#ab61a3"
         d="m 596.248,334.616 0.211,-0.176 c -0.504,-0.059 -1.035,-0.015 -1.604,0.119 l -2.797,0.723 c -1.543,0.396 -1.75,1.161 -0.625,2.265 l 1.799,1.773 c 0.334,0.941 0.838,1.742 1.51,2.413 0.975,0.994 1.775,0.785 2.389,-0.624 l 1.154,-2.62 c 0.129,-0.304 0.217,-0.602 0.273,-0.888 -0.414,0.261 -0.803,0.178 -1.137,-0.23 l -1.248,-1.422 c -0.423,-0.465 -0.39,-0.91 0.075,-1.333 l 0,0 z"
         id="path1383" />
      <path
         inkscape:connector-curvature="0"
         style="fill:none;stroke:#633791;stroke-width:2.01270008;stroke-linecap:round;stroke-linejoin:round;stroke-miterlimit:10"
         d="m 597.572,333.477 c 0.002,-0.502 0.119,-1.025 0.34,-1.557 l 1.105,-2.661 c 0.582,-1.466 1.342,-1.583 2.285,-0.335 l 1.549,2.038 c 0.875,0.571 1.578,1.225 2.105,1.949 0.797,1.063 0.514,1.788 -0.869,2.177 l -2.75,0.746 c -0.32,0.093 -0.625,0.155 -0.934,0.186 m 10e-4,0.001 c 0.434,-0.423 0.471,-0.854 0.074,-1.319 l -1.234,-1.424 c -0.426,-0.462 -0.871,-0.497 -1.35,-0.085 l -0.322,0.284 m -1.113,0.963 1.113,-0.963 m -1.113,0.963 -0.211,0.176 c -0.465,0.423 -0.498,0.869 -0.074,1.333 l 1.248,1.422 c 0.334,0.408 0.723,0.491 1.137,0.23 m 0,0 c -0.057,0.287 -0.145,0.584 -0.273,0.888 l -1.154,2.62 c -0.613,1.409 -1.414,1.618 -2.389,0.624 -0.672,-0.67 -1.176,-1.471 -1.51,-2.413 l -1.799,-1.773 c -1.125,-1.104 -0.918,-1.869 0.625,-2.265 l 2.797,-0.723 c 0.568,-0.134 1.1,-0.178 1.604,-0.119 m 3.944,1.581 c -0.014,0 -0.014,0 -0.029,0.017 l -1.631,1.421 c -0.072,0.049 -0.129,0.095 -0.186,0.143"
         id="path1385" />
      <path
         inkscape:connector-curvature="0"
         style="fill:#82110c"
         d="m 688.898,354.425 c -5.115,3.554 -11.867,6.329 -20.26,8.296 -4.768,1.128 -9.512,1.825 -14.229,2.091 -4.736,0.267 -9.525,0.111 -14.391,-0.472 -8.561,-1.007 -15.582,-3.004 -21.064,-5.96 11.328,7.649 23.207,10.98 35.625,10.026 12.48,-0.455 23.911,-5.103 34.319,-13.981 l 0,0 z"
         id="path1387" />
      <path
         inkscape:connector-curvature="0"
         style="fill:#ffffff"
         d="m 650.074,303.376 c -4.289,-3.999 -9.312,-5.826 -15.07,-5.5 -5.744,0.324 -10.529,2.708 -14.34,7.163 -3.826,4.458 -5.57,9.68 -5.232,15.645 0.34,5.964 2.658,10.944 6.961,14.913 4.289,4.012 9.314,5.856 15.057,5.531 5.758,-0.325 10.543,-2.723 14.35,-7.194 3.828,-4.427 5.572,-9.637 5.236,-15.601 -0.337,-5.965 -2.659,-10.959 -6.962,-14.957 l 0,0 z"
         id="path1389" />
      <path
         inkscape:connector-curvature="0"
         style="fill:#ffffff"
         d="m 665.557,296.591 c -5.537,0.313 -10.146,2.642 -13.816,7.002 -3.668,4.356 -5.342,9.474 -5.014,15.321 0.332,5.861 2.572,10.728 6.707,14.619 4.139,3.944 8.982,5.755 14.518,5.442 5.539,-0.312 10.148,-2.655 13.832,-7.046 3.668,-4.33 5.346,-9.417 5.016,-15.28 -0.332,-5.846 -2.574,-10.742 -6.711,-14.661 -4.151,-3.916 -8.993,-5.71 -14.532,-5.397 l 0,0 z"
         id="path1391" />
      <path
         inkscape:connector-curvature="0"
         d="m 675.203,312.459 c -1.344,-1.622 -3.012,-2.498 -5.008,-2.623 -2.01,-0.14 -3.766,0.494 -5.268,1.898 -1.512,1.417 -2.32,3.176 -2.426,5.302 -0.117,2.125 0.488,4 1.82,5.609 1.344,1.622 2.998,2.498 4.994,2.623 1.996,0.139 3.752,-0.493 5.254,-1.896 1.516,-1.392 2.322,-3.164 2.428,-5.304 0.13,-2.126 -0.464,-4 -1.794,-5.609 l 0,0 z"
         id="path1393" />
      <path
         inkscape:connector-curvature="0"
         d="m 651.088,313.496 c -1.443,-1.705 -3.238,-2.621 -5.389,-2.752 -2.164,-0.144 -4.055,0.524 -5.674,2.004 -1.631,1.497 -2.506,3.349 -2.621,5.586 -0.127,2.237 0.523,4.21 1.953,5.903 1.441,1.704 3.225,2.624 5.375,2.753 2.148,0.146 4.039,-0.522 5.66,-2.002 1.633,-1.468 2.506,-3.334 2.621,-5.586 0.143,-2.238 -0.493,-4.213 -1.925,-5.906 l 0,0 z"
         id="path1395" />
      <path
         inkscape:connector-curvature="0"
         style="fill:#5fc2cf"
         d="m 672.107,297.284 c -2.072,-0.606 -4.275,-0.851 -6.588,-0.722 -5.535,0.313 -10.148,2.643 -13.814,7.001 -0.223,0.265 -0.428,0.526 -0.635,0.803 -0.33,-0.35 -0.674,-0.685 -1.035,-1.021 -4.287,-3.998 -9.311,-5.825 -15.068,-5.5 -5.742,0.325 -10.527,2.708 -14.338,7.163 -3.826,4.459 -5.568,9.684 -5.234,15.648 0.129,2.253 0.545,4.357 1.23,6.312 -1.74,-7.273 0.02,-13.771 5.281,-19.476 9.773,-6.917 19.922,-7.494 30.455,-1.72 6.852,-5.027 13.482,-6.922 19.902,-5.708 2.047,0.389 4.066,1.102 6.059,2.125 l -0.102,-1.78 c -1.896,-1.445 -3.933,-2.497 -6.113,-3.125 l 0,0 z"
         id="path1397" />
      <path
         inkscape:connector-curvature="0"
         style="fill:#5fc2cf"
         d="m 684.578,308.029 c -0.684,-1.381 -1.51,-2.679 -2.494,-3.892 l -0.986,0.054 c 1.381,1.223 2.535,2.502 3.48,3.838 l 0,0 z"
         id="path1399" />
      <path
         inkscape:connector-curvature="0"
         style="fill:#5fc2cf"
         d="m 681.098,304.191 0.986,-0.054 c -0.621,-0.75 -1.297,-1.478 -2.029,-2.176 -0.594,-0.559 -1.199,-1.072 -1.834,-1.551 l 0.102,1.78 c 0.307,0.145 0.609,0.307 0.916,0.48 0.663,0.495 1.281,1.006 1.859,1.521 l 0,0 z"
         id="path1401" />
      <path
         inkscape:connector-curvature="0"
         style="fill:#ab6514"
         d="m 669.105,294.617 c -0.143,-0.187 -0.314,-0.338 -0.486,-0.46 -0.598,-0.44 -1.186,-0.333 -1.725,0.333 l -4.176,5.038 -3.523,-4.072 c -0.049,-0.042 -0.109,-0.065 -0.168,-0.093 -0.623,-0.289 -1.238,0.057 -1.879,1.037 l -4.932,6.542 -7.279,-5.438 c -1.344,-1.003 -2.211,-1.426 -2.631,-1.284 -0.422,0.127 -0.719,0.353 -0.895,0.669 l -2.562,3.75 -6.406,-4.038 c -0.443,-0.272 -0.775,-0.446 -1.02,-0.534 -0.525,-0.179 -0.891,-0.127 -1.1,0.135 -0.053,0.078 -0.135,0.23 -0.225,0.442 l -2.072,4.918 -7.23,-1.941 c -0.572,-0.188 -0.963,-0.285 -1.168,-0.289 -0.945,0.011 -1.297,0.576 -1.072,1.701 l 1,4.893 -8.199,-0.024 c -0.711,0.013 -1.004,0.294 -0.898,0.849 0.021,0.118 0.072,0.262 0.145,0.421 l 3.123,5.659 -7.182,3.094 c -0.631,0.318 -0.576,0.745 0.176,1.277 l 6.914,4.411 -5.623,5.901 c -1.178,1.367 -1.162,2.166 0.051,2.404 0.164,0.038 0.355,0.055 0.592,0.057 l 9.186,-0.09 c -0.408,-1.219 -0.705,-2.576 -0.895,-4.057 -0.293,-2.304 -0.154,-4.543 0.418,-6.717 0.6,-2.206 1.531,-4.281 2.824,-6.217 1.27,-1.888 2.752,-3.598 4.467,-5.098 0.016,-0.015 0.031,-0.017 0.047,-0.032 1.729,-1.531 3.67,-2.734 5.82,-3.608 0.104,-0.036 0.189,-0.071 0.262,-0.105 2.055,-0.795 4.201,-1.226 6.426,-1.278 2.111,-0.045 4.219,0.131 6.299,0.559 0.193,0.035 0.371,0.084 0.553,0.118 2.258,0.492 4.281,1.25 6.082,2.285 0.367,0.203 0.701,0.389 0.992,0.565 0.566,0.338 1.041,0.607 1.404,0.807 0.238,-0.249 0.605,-0.564 1.084,-0.946 0.24,-0.206 0.525,-0.431 0.85,-0.67 1.586,-1.227 3.408,-2.203 5.477,-2.939 0.16,-0.054 0.334,-0.121 0.508,-0.176 1.912,-0.657 3.869,-1.062 5.854,-1.248 2.059,-0.19 4.078,-0.009 6.043,0.531 0.135,0.038 0.271,0.074 0.404,0.11 2.121,0.634 4.082,1.615 5.885,2.947 1.805,1.314 3.398,2.851 4.797,4.603 1.066,1.329 1.83,2.81 2.289,4.421 1.164,4.146 1.012,8.246 -0.443,12.288 l 6.582,-0.949 c 0.16,-0.021 0.291,-0.059 0.42,-0.112 0.85,-0.357 0.898,-1.099 0.139,-2.239 l -5.045,-5.135 4.92,-5.464 c 0.225,-0.441 0.195,-0.75 -0.111,-0.94 l -6.518,-2.348 c 0.451,-1.223 1.035,-2.897 1.74,-5.002 0.115,-0.349 0.24,-0.711 0.367,-1.087 0.016,-0.029 0.016,-0.059 0.025,-0.104 0.051,-0.166 0.086,-0.313 0.092,-0.434 0.098,-0.685 -0.271,-0.929 -1.076,-0.751 l -6.51,1.135 -0.314,-5.564 c -0.049,-0.869 -0.449,-1.202 -1.225,-0.996 -0.172,0.041 -0.361,0.11 -0.564,0.195 l -5.959,2.715 -3.146,-4.331 0,0 z"
         id="path1403" />
      <path
         inkscape:connector-curvature="0"
         style="fill:#e7467d"
         d="m 663.533,331.769 c -1.824,-1.167 -3.98,-1.681 -6.469,-1.539 -2.52,0.143 -4.617,0.895 -6.314,2.26 -1.678,1.383 -2.477,2.948 -2.377,4.7 0.1,1.784 1.068,3.264 2.896,4.434 1.838,1.181 4.008,1.693 6.529,1.551 2.486,-0.142 4.57,-0.896 6.252,-2.275 1.709,-1.367 2.508,-2.948 2.406,-4.729 -0.099,-1.756 -1.067,-3.221 -2.923,-4.402 l 0,0 z"
         id="path1405" />
      <path
         inkscape:connector-curvature="0"
         style="fill:#f18900"
         d="m 656.244,386.091 c -8.076,-2.406 -16.168,-2.69 -24.291,-0.864 l -0.467,13.383 4.398,4.243 15.43,0.538 4.459,-3.874 0.471,-13.428 v 0.002 z"
         id="path1407" />
      <path
         inkscape:connector-curvature="0"
         style="fill:#fbe000"
         d="m 626.26,389.939 c -0.074,-0.113 -0.158,-0.19 -0.225,-0.237 -0.258,-0.175 -0.467,-0.048 -0.611,0.382 l -0.832,2.25 -2.641,0.848 c -0.52,0.182 -0.615,0.43 -0.297,0.73 0.039,0.03 0.08,0.066 0.123,0.105 l 0.225,0.181 c 0.014,0.021 0.041,0.039 0.068,0.068 0.094,0.065 0.199,0.138 0.293,0.226 0.307,0.235 0.602,0.484 0.91,0.74 0.041,0.04 0.096,0.077 0.145,0.102 l 0.441,0.362 0.045,2.443 c -0.029,0.234 -0.012,0.404 0.051,0.509 0.111,0.107 0.316,0.096 0.613,-0.062 l 2.453,-1.653 0.035,0.004 c 0.471,0.126 0.932,0.256 1.4,0.38 l 1.275,0.321 0.168,0.038 c 0.531,0.071 0.699,-0.153 0.486,-0.657 l -0.848,-2.363 1.416,-2.271 c 0.164,-0.246 0.213,-0.428 0.135,-0.539 -0.086,-0.102 -0.268,-0.15 -0.531,-0.152 l -2.771,0.088 -0.037,-0.039 -1.489,-1.804 0,0 z"
         id="path1409" />
      <path
         inkscape:connector-curvature="0"
         style="fill:#fbe000"
         d="m 629.865,397.672 c 0.014,0.01 0.025,0.008 0.035,0.005 l -0.168,-0.038 0.133,0.033 0,0 z"
         id="path1411" />
      <path
         inkscape:connector-curvature="0"
         style="fill:none;stroke:#6b7d27;stroke-width:1.54760003;stroke-linecap:round;stroke-linejoin:round;stroke-miterlimit:10"
         d="m 626.26,389.939 1.49,1.803 0.037,0.039 2.771,-0.088 c 0.264,0 0.445,0.051 0.531,0.152 0.078,0.111 0.029,0.293 -0.135,0.539 l -1.416,2.271 0.848,2.363 c 0.213,0.504 0.045,0.729 -0.486,0.657 l -0.168,-0.038 -1.275,-0.321 c -0.469,-0.124 -0.93,-0.254 -1.4,-0.38 l -0.035,-0.004 -2.453,1.653 c -0.297,0.157 -0.5,0.169 -0.613,0.062 -0.062,-0.104 -0.08,-0.274 -0.051,-0.509 l -0.045,-2.443 -0.441,-0.362 c -0.049,-0.024 -0.104,-0.062 -0.145,-0.102 -0.309,-0.258 -0.604,-0.505 -0.91,-0.74 -0.094,-0.088 -0.199,-0.16 -0.293,-0.226 -0.027,-0.029 -0.055,-0.048 -0.068,-0.068 l -0.225,-0.181 c -0.043,-0.039 -0.084,-0.075 -0.123,-0.105 -0.318,-0.301 -0.223,-0.549 0.297,-0.73 l 2.641,-0.848 0.832,-2.25 c 0.145,-0.43 0.354,-0.557 0.611,-0.382 0.066,0.048 0.15,0.125 0.224,0.238 l 0,0 z"
         id="path1413" />
      <path
         inkscape:connector-curvature="0"
         style="fill:#fbe000"
         d="m 662.367,391.217 c 0.084,-0.107 0.172,-0.18 0.24,-0.221 0.271,-0.155 0.471,-0.013 0.584,0.424 l 0.674,2.301 2.576,1.028 c 0.508,0.22 0.584,0.472 0.246,0.751 -0.041,0.025 -0.084,0.061 -0.129,0.098 l -0.236,0.162 c -0.018,0.02 -0.045,0.037 -0.076,0.063 -0.096,0.058 -0.205,0.124 -0.305,0.206 -0.324,0.211 -0.637,0.439 -0.961,0.675 -0.045,0.036 -0.1,0.071 -0.152,0.093 l -0.465,0.328 -0.211,2.438 c 0.01,0.235 -0.018,0.403 -0.09,0.503 -0.119,0.102 -0.324,0.072 -0.605,-0.102 l -2.332,-1.822 -0.037,0.002 c -0.479,0.095 -0.945,0.188 -1.424,0.283 l -1.293,0.229 -0.174,0.029 c -0.531,0.031 -0.684,-0.204 -0.436,-0.692 l 1.006,-2.297 -1.254,-2.364 c -0.146,-0.259 -0.184,-0.442 -0.098,-0.55 0.092,-0.095 0.277,-0.13 0.541,-0.113 l 2.758,0.28 0.045,-0.035 1.608,-1.697 0,0 z"
         id="path1415" />
      <path
         inkscape:connector-curvature="0"
         style="fill:#fbe000"
         d="m 658.234,398.684 c -0.014,0.006 -0.023,0.004 -0.037,0.002 l 0.174,-0.029 -0.137,0.027 0,0 z"
         id="path1417" />
      <path
         inkscape:connector-curvature="0"
         style="fill:none;stroke:#6b7d27;stroke-width:1.54760003;stroke-linecap:round;stroke-linejoin:round;stroke-miterlimit:10"
         d="m 662.367,391.217 -1.607,1.697 -0.045,0.035 -2.758,-0.28 c -0.264,-0.017 -0.449,0.019 -0.541,0.113 -0.086,0.107 -0.049,0.291 0.098,0.55 l 1.254,2.364 -1.006,2.297 c -0.248,0.488 -0.096,0.724 0.436,0.692 l 0.174,-0.029 1.293,-0.229 c 0.479,-0.095 0.945,-0.188 1.424,-0.283 l 0.037,-0.004 2.332,1.824 c 0.281,0.174 0.486,0.199 0.605,0.102 0.072,-0.1 0.1,-0.268 0.09,-0.503 l 0.211,-2.438 0.465,-0.328 c 0.053,-0.021 0.107,-0.057 0.152,-0.093 0.324,-0.235 0.637,-0.464 0.961,-0.675 0.1,-0.082 0.209,-0.148 0.305,-0.206 0.031,-0.026 0.059,-0.044 0.076,-0.063 l 0.236,-0.162 c 0.045,-0.037 0.088,-0.072 0.129,-0.098 0.338,-0.279 0.262,-0.533 -0.246,-0.751 l -2.576,-1.028 -0.674,-2.301 c -0.113,-0.438 -0.312,-0.579 -0.584,-0.424 -0.069,0.041 -0.157,0.113 -0.241,0.221 l 0,0 z"
         id="path1419" />
      <path
         inkscape:connector-curvature="0"
         style="fill:#ce2120"
         d="m 633.432,397.382 c 0.029,-0.811 -0.227,-1.515 -0.77,-2.109 -0.555,-0.579 -1.254,-0.883 -2.062,-0.911 -0.812,-0.027 -1.5,0.229 -2.08,0.768 -0.607,0.555 -0.926,1.237 -0.955,2.05 -0.029,0.838 0.24,1.557 0.812,2.123 0.539,0.61 1.207,0.928 2.018,0.956 0.809,0.027 1.531,-0.242 2.123,-0.812 0.582,-0.527 0.882,-1.226 0.914,-2.065 l 0,0 z"
         id="path1421" />
      <path
         inkscape:connector-curvature="0"
         style="fill:none;stroke:#921113;stroke-width:2.01270008;stroke-linecap:round;stroke-linejoin:round;stroke-miterlimit:10"
         d="m 633.432,397.382 c -0.031,0.839 -0.332,1.538 -0.914,2.064 -0.592,0.569 -1.314,0.839 -2.123,0.812 -0.811,-0.028 -1.479,-0.346 -2.018,-0.956 -0.572,-0.566 -0.842,-1.285 -0.812,-2.123 0.029,-0.812 0.348,-1.495 0.955,-2.05 0.58,-0.538 1.268,-0.795 2.08,-0.768 0.809,0.028 1.508,0.332 2.062,0.911 0.543,0.595 0.799,1.299 0.77,2.11 l 0,0 z"
         id="path1423" />
      <path
         inkscape:connector-curvature="0"
         style="fill:#ce2120"
         d="m 660.352,398.257 c 0.027,-0.811 -0.229,-1.511 -0.768,-2.106 -0.557,-0.58 -1.254,-0.885 -2.066,-0.916 -0.809,-0.025 -1.498,0.232 -2.076,0.771 -0.611,0.557 -0.93,1.238 -0.957,2.049 -0.029,0.839 0.24,1.56 0.809,2.123 0.543,0.608 1.211,0.928 2.02,0.957 0.814,0.026 1.529,-0.242 2.127,-0.812 0.575,-0.527 0.881,-1.224 0.911,-2.066 l 0,0 z"
         id="path1425" />
      <path
         inkscape:connector-curvature="0"
         style="fill:none;stroke:#921113;stroke-width:2.01270008;stroke-linecap:round;stroke-linejoin:round;stroke-miterlimit:10"
         d="m 660.352,398.257 c -0.029,0.842 -0.336,1.539 -0.912,2.065 -0.598,0.57 -1.312,0.839 -2.127,0.812 -0.809,-0.029 -1.477,-0.349 -2.02,-0.957 -0.568,-0.563 -0.838,-1.281 -0.809,-2.123 0.027,-0.811 0.346,-1.492 0.957,-2.049 0.578,-0.539 1.268,-0.797 2.076,-0.768 0.812,0.027 1.51,0.332 2.066,0.912 0.54,0.597 0.796,1.297 0.769,2.108 l 0,0 z"
         id="path1427" />
      <path
         inkscape:connector-curvature="0"
         style="fill:#6f53a0"
         d="m 638.566,400.071 c 0.025,-0.809 -0.23,-1.511 -0.77,-2.104 -0.557,-0.581 -1.254,-0.887 -2.064,-0.914 -0.812,-0.028 -1.498,0.229 -2.078,0.771 -0.609,0.553 -0.928,1.236 -0.957,2.046 -0.031,0.841 0.242,1.56 0.812,2.123 0.539,0.611 1.209,0.929 2.018,0.957 0.812,0.027 1.529,-0.242 2.125,-0.812 0.578,-0.527 0.885,-1.223 0.914,-2.067 l 0,0 z"
         id="path1429" />
      <path
         inkscape:connector-curvature="0"
         style="fill:none;stroke:#352082;stroke-width:2.01270008;stroke-linecap:round;stroke-linejoin:round;stroke-miterlimit:10"
         d="m 638.566,400.071 c -0.029,0.844 -0.336,1.54 -0.914,2.066 -0.596,0.569 -1.312,0.839 -2.125,0.812 -0.809,-0.028 -1.479,-0.346 -2.018,-0.957 -0.57,-0.563 -0.844,-1.282 -0.812,-2.123 0.029,-0.81 0.348,-1.493 0.957,-2.046 0.58,-0.542 1.266,-0.799 2.078,-0.771 0.811,0.027 1.508,0.333 2.064,0.914 0.54,0.595 0.796,1.297 0.77,2.105 l 0,0 z"
         id="path1431" />
      <path
         inkscape:connector-curvature="0"
         style="fill:#9dc517"
         d="m 654.389,398.593 c -0.559,-0.58 -1.254,-0.886 -2.064,-0.916 -0.812,-0.027 -1.5,0.231 -2.078,0.771 -0.611,0.557 -0.93,1.239 -0.959,2.049 -0.027,0.84 0.24,1.559 0.812,2.124 0.541,0.609 1.207,0.926 2.018,0.955 0.812,0.027 1.527,-0.24 2.125,-0.812 0.578,-0.525 0.883,-1.222 0.912,-2.063 0.027,-0.811 -0.229,-1.513 -0.766,-2.108 l 0,0 z"
         id="path1433" />
      <path
         inkscape:connector-curvature="0"
         style="fill:none;stroke:#388e36;stroke-width:2.01270008;stroke-linecap:round;stroke-linejoin:round;stroke-miterlimit:10"
         d="m 654.389,398.593 c 0.537,0.595 0.793,1.297 0.766,2.106 -0.029,0.842 -0.334,1.538 -0.912,2.063 -0.598,0.572 -1.312,0.84 -2.125,0.812 -0.811,-0.029 -1.477,-0.346 -2.018,-0.955 -0.572,-0.565 -0.84,-1.282 -0.812,-2.124 0.029,-0.81 0.348,-1.492 0.959,-2.049 0.578,-0.539 1.266,-0.798 2.078,-0.768 0.81,0.029 1.505,0.335 2.064,0.915 l 0,0 z"
         id="path1435" />
      <path
         inkscape:connector-curvature="0"
         style="fill:#fbe000"
         d="m 644.475,397.93 c -0.068,-0.164 -0.152,-0.287 -0.223,-0.362 -0.287,-0.292 -0.586,-0.184 -0.883,0.322 l -1.656,2.646 -3.584,0.377 c -0.713,0.091 -0.898,0.381 -0.576,0.85 0.041,0.047 0.084,0.105 0.127,0.168 l 0.24,0.287 c 0.016,0.029 0.041,0.062 0.072,0.106 0.098,0.107 0.213,0.229 0.309,0.366 0.328,0.379 0.639,0.773 0.965,1.186 0.041,0.06 0.098,0.122 0.156,0.165 l 0.467,0.576 -0.596,3.125 c -0.1,0.292 -0.119,0.512 -0.066,0.662 0.113,0.164 0.377,0.203 0.793,0.088 l 3.564,-1.457 0.043,0.017 c 0.564,0.284 1.115,0.572 1.684,0.854 l 1.537,0.75 0.203,0.096 c 0.658,0.228 0.932,-0.013 0.793,-0.713 l -0.449,-3.23 2.404,-2.515 c 0.275,-0.273 0.387,-0.491 0.318,-0.655 -0.082,-0.15 -0.301,-0.261 -0.637,-0.331 l -3.551,-0.626 -0.043,-0.06 -1.411,-2.692 0,0 z"
         id="path1437" />
      <path
         inkscape:connector-curvature="0"
         style="fill:#fbe000"
         d="m 647.008,408.734 c 0.012,0.015 0.029,0.015 0.043,0.017 l -0.203,-0.096 0.16,0.079 0,0 z"
         id="path1439" />
      <path
         inkscape:connector-curvature="0"
         style="fill:none;stroke:#6b7d27;stroke-width:2.01270008;stroke-linecap:round;stroke-linejoin:round;stroke-miterlimit:10"
         d="m 644.475,397.93 1.412,2.691 0.043,0.06 3.551,0.626 c 0.336,0.07 0.555,0.181 0.637,0.331 0.068,0.164 -0.043,0.382 -0.318,0.655 l -2.404,2.515 0.449,3.23 c 0.139,0.7 -0.135,0.94 -0.793,0.713 l -0.203,-0.096 -1.537,-0.75 c -0.568,-0.281 -1.119,-0.569 -1.684,-0.854 l -0.043,-0.017 -3.564,1.457 c -0.416,0.115 -0.68,0.076 -0.793,-0.09 -0.053,-0.148 -0.033,-0.368 0.066,-0.66 l 0.596,-3.125 -0.467,-0.576 c -0.059,-0.043 -0.115,-0.105 -0.156,-0.165 -0.326,-0.412 -0.637,-0.807 -0.965,-1.186 -0.096,-0.137 -0.211,-0.259 -0.309,-0.366 -0.031,-0.044 -0.057,-0.077 -0.072,-0.106 l -0.24,-0.287 c -0.043,-0.062 -0.086,-0.121 -0.127,-0.168 -0.322,-0.469 -0.137,-0.759 0.576,-0.85 l 3.584,-0.377 1.656,-2.646 c 0.297,-0.506 0.596,-0.614 0.883,-0.322 0.069,0.076 0.153,0.199 0.222,0.363 l 0,0 z"
         id="path1441" />
    </g>
  </g>
</svg>
