<?xml version="1.0" encoding="UTF-8" standalone="no"?>
<!-- Created with Inkscape (http://www.inkscape.org/) -->

<svg
   xmlns:dc="http://purl.org/dc/elements/1.1/"
   xmlns:cc="http://creativecommons.org/ns#"
   xmlns:rdf="http://www.w3.org/1999/02/22-rdf-syntax-ns#"
   xmlns:svg="http://www.w3.org/2000/svg"
   xmlns="http://www.w3.org/2000/svg"
   xmlns:sodipodi="http://sodipodi.sourceforge.net/DTD/sodipodi-0.dtd"
   xmlns:inkscape="http://www.inkscape.org/namespaces/inkscape"
   width="247.51485"
   height="183.44876"
   id="svg5696"
   version="1.1"
   inkscape:version="0.48.4 r9939"
   sodipodi:docname="zoe8.svg">
  <defs
     id="defs5698">
    <clipPath
       id="SVGID_2_">
      <rect
         height="88.862999"
         width="111.498"
         y="518.96198"
         x="382.04999"
         id="use1087" />
    </clipPath>
    <clipPath
       id="SVGID_4_">
      <rect
         height="41.314999"
         width="49.584999"
         y="525.19397"
         x="389.84698"
         id="use1111" />
    </clipPath>
  </defs>
  <sodipodi:namedview
     id="base"
     pagecolor="#ffffff"
     bordercolor="#666666"
     borderopacity="1.0"
     inkscape:pageopacity="0.0"
     inkscape:pageshadow="2"
     inkscape:zoom="0.77472527"
     inkscape:cx="163.61594"
     inkscape:cy="154.98798"
     inkscape:current-layer="layer1"
     inkscape:document-units="px"
     showgrid="false"
     inkscape:window-width="763"
     inkscape:window-height="591"
     inkscape:window-x="592"
     inkscape:window-y="97"
     inkscape:window-maximized="0"
     fit-margin-top="0"
     fit-margin-left="0"
     fit-margin-right="0"
     fit-margin-bottom="0" />
  <metadata
     id="metadata5701">
    <rdf:RDF>
      <cc:Work
         rdf:about="">
        <dc:format>image/svg+xml</dc:format>
        <dc:type
           rdf:resource="http://purl.org/dc/dcmitype/StillImage" />
        <dc:title></dc:title>
      </cc:Work>
    </rdf:RDF>
  </metadata>
  <g
     id="layer1"
     inkscape:label="Layer 1"
     inkscape:groupmode="layer"
     transform="translate(-154.32736,-56.645593)">
    <g
       transform="translate(38.671108,-489.23543)"
       id="g1067">
      <path
         inkscape:connector-curvature="0"
         style="fill:#eda1c1"
         d="m 242.467,686.092 -8.981,2.442 5.878,29.327 c 5.792,1.539 9.671,0.255 11.654,-3.901 l -8.551,-27.868 0,0 z"
         id="path1069" />
      <path
         inkscape:connector-curvature="0"
         style="fill:none;stroke:#df5d91;stroke-width:2.07929993;stroke-linecap:round;stroke-miterlimit:10"
         d="m 233.486,688.534 5.878,29.327 c 5.792,1.539 9.671,0.255 11.654,-3.901 l -8.551,-27.868 -8.981,2.442 0,0 z"
         id="path1071" />
      <path
         inkscape:connector-curvature="0"
         style="fill:#df5d91"
         d="m 271.114,708.799 c -1.567,-0.536 -3.346,-0.898 -5.382,-1.057 -2.204,2.305 -4.087,4.81 -5.62,7.498 l -5.466,0.188 c 1.042,-1.84 2.254,-3.578 3.638,-5.25 0.46,-0.559 1.167,-1.371 2.143,-2.437 -3.219,0.17 -6.499,0.57 -9.839,1.2 -1.687,2.045 -3.232,4.295 -4.658,6.785 l -7.533,0.259 c -0.571,2.793 -1.177,5.754 -1.814,8.882 16.138,1.981 26.681,2.255 31.619,0.827 4.958,-1.457 7.849,-4.227 8.656,-8.331 0.809,-4.103 -1.11,-6.967 -5.744,-8.564 l 0,0 z"
         id="path1073" />
      <path
         inkscape:connector-curvature="0"
         style="fill:#eda1c1"
         d="m 265.732,707.742 c -1.777,-0.091 -3.542,-0.091 -5.306,0 -0.975,1.065 -1.682,1.878 -2.143,2.437 -1.384,1.672 -2.597,3.41 -3.638,5.25 l 5.466,-0.188 c 1.534,-2.689 3.417,-5.194 5.621,-7.499 l 0,0 z"
         id="path1075" />
      <path
         inkscape:connector-curvature="0"
         style="fill:none;stroke:#970f45;stroke-width:2.16050005;stroke-linecap:round;stroke-miterlimit:10"
         d="m 260.427,707.742 c -3.219,0.17 -6.499,0.57 -9.839,1.2 -1.687,2.045 -3.232,4.295 -4.658,6.785 l -7.533,0.259 c -0.571,2.793 -1.177,5.754 -1.819,8.882 16.142,1.981 26.686,2.255 31.623,0.827 4.958,-1.457 7.849,-4.227 8.656,-8.331 0.81,-4.104 -1.109,-6.968 -5.743,-8.565 -1.567,-0.536 -3.346,-0.898 -5.382,-1.057 m -5.305,0 c 1.764,-0.093 3.529,-0.091 5.306,0 m -10e-4,0 c -2.204,2.305 -4.087,4.81 -5.62,7.498 l -5.466,0.188 c 1.042,-1.84 2.254,-3.578 3.638,-5.25 0.46,-0.559 1.167,-1.371 2.143,-2.437"
         id="path1077" />
      <path
         inkscape:connector-curvature="0"
         style="fill:#eda1c1"
         d="m 202.237,685.226 c 0.023,0.066 0.069,0.406 0.175,1.007 1.445,4.965 1.013,9.38 -1.298,13.248 -0.768,1.321 -1.77,2.57 -2.994,3.733 -1.685,1.624 -3.846,3.118 -6.512,4.463 -0.636,4.092 0.408,6.401 3.118,6.926 1.119,0.228 2.527,0.137 4.214,-0.275 0.046,-0.013 0.082,-0.023 0.129,-0.037 1.465,-0.816 2.819,-1.693 4.084,-2.63 4.386,-3.25 7.293,-6.899 8.744,-10.968 1.632,-4.642 1.317,-9.709 -0.958,-15.222 -2.888,-0.079 -5.796,-0.162 -8.702,-0.245 l 0,0 z"
         id="path1079" />
      <path
         inkscape:connector-curvature="0"
         style="fill:none;stroke:#df5d91;stroke-width:2.25580001;stroke-linecap:round;stroke-miterlimit:10"
         d="m 202.412,686.232 c 1.445,4.965 1.013,9.38 -1.298,13.248 -0.768,1.321 -1.77,2.57 -2.994,3.733 -1.685,1.624 -3.846,3.118 -6.512,4.463 -0.636,4.092 0.408,6.401 3.118,6.922 1.119,0.231 2.527,0.141 4.214,-0.271 0.046,-0.013 0.082,-0.023 0.129,-0.037 1.465,-0.816 2.819,-1.693 4.084,-2.63 4.386,-3.25 7.293,-6.899 8.744,-10.968 1.632,-4.642 1.317,-9.709 -0.958,-15.222 -2.892,-0.081 -5.796,-0.162 -8.702,-0.245 0.023,0.067 0.069,0.407 0.175,1.007 l 0,0 z"
         id="path1081" />
      <path
         inkscape:connector-curvature="0"
         style="fill:#f18900"
         d="m 244.739,630.428 7.656,-7.77 c 3.57,16.396 12.378,23.911 26.397,22.575 -0.655,4.729 -1.913,8.596 -3.806,11.579 -15.178,1.122 -25.254,-7.667 -30.247,-26.384 l 0,0 z"
         id="path1083" />
      <path
         inkscape:connector-curvature="0"
         style="fill:none;stroke:#d04215;stroke-width:2.11129999;stroke-linecap:square;stroke-miterlimit:10"
         d="m 252.395,622.658 c 3.57,16.396 12.378,23.911 26.397,22.575 -0.655,4.729 -1.913,8.596 -3.806,11.579 -15.179,1.121 -25.254,-7.668 -30.247,-26.385 l 7.656,-7.769 0,0 z"
         id="path1085" />
      <path
         inkscape:connector-curvature="0"
         style="fill:#eda1c1"
         d="m 262.81,641.582 c -1.029,3.465 -3.481,6.477 -7.387,9.055 -4.955,-4.588 -8.507,-11.327 -10.684,-20.209 l 7.656,-7.77 c 2.398,9.148 5.86,15.45 10.415,18.924 l 0,0 z"
         id="path1087" />
      <path
         inkscape:connector-curvature="0"
         style="fill:none;stroke:#df5d91;stroke-width:2.11129999;stroke-linecap:square;stroke-miterlimit:10"
         d="m 255.423,650.637 c -4.955,-4.588 -8.507,-11.327 -10.684,-20.209 l 7.656,-7.77 c 2.398,9.147 5.86,15.45 10.415,18.924 -1.03,3.465 -3.482,6.477 -7.387,9.055 l 0,0 z"
         id="path1089" />
      <polygon
         style="fill:#eda1c1"
         points="244.866,626.802 250.827,621.402 250.827,621.402 251.808,625.097 246.104,630.84 "
         id="polygon1091" />
      <path
         inkscape:connector-curvature="0"
         style="fill:#d04215"
         d="m 284.78,661.472 -0.053,3.081 c -5.629,1.075 -10.249,-1.241 -13.845,-6.949 l 2.733,-0.974 c 2.929,4.712 6.659,6.319 11.165,4.842 l 0,0 z"
         id="path1093" />
      <path
         inkscape:connector-curvature="0"
         style="fill:#f18900"
         d="m 278.522,645.154 c 0.681,-1.21 1.027,-1.836 1.044,-1.853 l 15.718,3.537 -10.504,14.633 c -4.505,1.478 -8.236,-0.13 -11.165,-4.842 l -0.798,-1.547 c 3.1,-5.409 5.006,-8.722 5.705,-9.928 l 0,0 z"
         id="path1095" />
      <path
         inkscape:connector-curvature="0"
         style="fill:#f18900"
         d="m 278.474,644.104 0.402,-0.787 0.047,0.009 c -0.139,0.216 -0.287,0.482 -0.449,0.778 l 0,0 z"
         id="path1097" />
      <path
         inkscape:connector-curvature="0"
         style="fill:#d39300"
         d="m 301.814,620.041 c 0.413,-0.634 0.938,-0.743 1.585,-0.323 l 2.174,1.418 c 0.662,0.431 0.785,0.963 0.37,1.599 L 277.44,666.47 c -0.425,0.648 -0.962,0.752 -1.621,0.32 l -2.175,-1.415 c -0.647,-0.422 -0.758,-0.946 -0.334,-1.595 l 28.504,-43.739 0,0 z"
         id="path1099" />
      <path
         inkscape:connector-curvature="0"
         style="fill:none;stroke:#a15314;stroke-width:2.10380006;stroke-linecap:round;stroke-linejoin:round;stroke-miterlimit:10"
         d="M 301.814,620.041 273.31,663.78 c -0.424,0.648 -0.313,1.173 0.334,1.595 l 2.175,1.415 c 0.659,0.432 1.196,0.328 1.621,-0.32 l 28.502,-43.735 c 0.415,-0.636 0.292,-1.168 -0.37,-1.599 l -2.174,-1.418 c -0.647,-0.42 -1.171,-0.311 -1.584,0.323 l 0,0 z"
         id="path1101" />
      <path
         inkscape:connector-curvature="0"
         style="fill:#fbf8d4"
         d="m 291.166,616.237 4.396,-6.748 c 2.891,-4.438 6.566,-5.213 11.013,-2.312 l 9.167,5.971 c 4.435,2.893 5.208,6.565 2.317,11.002 l -4.396,6.747 c -2.892,4.437 -6.567,5.211 -11.003,2.318 l -9.163,-5.971 c -4.447,-2.897 -5.223,-6.573 -2.331,-11.007 l 0,0 z"
         id="path1103" />
      <path
         inkscape:connector-curvature="0"
         style="fill:none;stroke:#b5c639;stroke-width:2.10380006;stroke-linecap:round;stroke-linejoin:round;stroke-miterlimit:10"
         d="m 291.166,616.237 c -2.892,4.434 -2.116,8.109 2.331,11.008 l 9.163,5.971 c 4.436,2.893 8.111,2.118 11.003,-2.318 l 4.396,-6.747 c 2.891,-4.437 2.118,-8.109 -2.317,-11.002 l -9.167,-5.971 c -4.446,-2.901 -8.122,-2.126 -11.013,2.312 l -4.396,6.747 0,0 z"
         id="path1105" />
      <path
         inkscape:connector-curvature="0"
         style="fill:#efe589"
         d="m 304.876,612.788 c 0.24,-0.371 0.76,-0.502 1.562,-0.398 0.77,0.125 1.585,0.456 2.45,1.021 0.851,0.554 1.487,1.165 1.907,1.821 0.434,0.698 0.523,1.227 0.285,1.598 -0.256,0.392 -0.786,0.537 -1.584,0.397 -0.78,-0.109 -1.596,-0.443 -2.447,-0.996 -0.863,-0.565 -1.496,-1.175 -1.913,-1.844 -0.434,-0.664 -0.517,-1.207 -0.26,-1.599 l 0,0 z"
         id="path1107" />
      <path
         inkscape:connector-curvature="0"
         style="fill:none;stroke:#b5c639;stroke-width:2.10380006;stroke-linecap:round;stroke-linejoin:round;stroke-miterlimit:10"
         d="m 306.438,612.39 c 0.77,0.125 1.585,0.456 2.45,1.021 0.851,0.554 1.487,1.165 1.907,1.821 0.434,0.698 0.523,1.227 0.285,1.598 -0.256,0.392 -0.786,0.537 -1.584,0.397 -0.78,-0.109 -1.596,-0.443 -2.447,-0.996 -0.863,-0.565 -1.496,-1.175 -1.913,-1.844 -0.435,-0.665 -0.517,-1.208 -0.26,-1.6 0.241,-0.37 0.76,-0.501 1.562,-0.397 l 0,0 z"
         id="path1109" />
      <path
         inkscape:connector-curvature="0"
         style="fill:#d04215"
         d="m 284.28,666.649 -0.066,-0.022 -0.013,-0.017 c -3.583,-1.287 -5.401,-3.27 -5.462,-5.922 0.054,-0.758 0.212,-1.421 0.456,-2.02 0.577,-1.317 1.721,-2.277 3.404,-2.863 -0.745,-2.766 0.133,-4.811 2.64,-6.116 l 0.002,0.027 c 0.327,-0.193 0.668,-0.377 1.004,-0.524 -0.016,-1.059 0.33,-2.143 1.057,-3.249 L 287.28,645.9 c 1.152,-1.729 2.515,-2.764 4.075,-3.122 1.324,-0.064 2.488,0.072 3.514,0.429 1.037,0.321 1.645,0.53 1.814,0.634 0.027,-0.021 0.04,-0.021 0.063,0.008 5.993,2.885 8.049,6.317 6.202,10.31 l -0.036,-0.028 c -0.886,2.212 -2.364,3.433 -4.46,3.663 l -0.015,0.004 c -0.128,1.255 -0.786,2.517 -1.964,3.804 -1.407,1.286 -3.085,1.908 -5.052,1.844 l 0.057,-0.037 c -0.077,-0.006 -0.136,0.002 -0.188,-0.006 -1.477,3.193 -3.811,4.277 -7.01,3.246 l 0,0 z m -1.786,-6.731 -0.012,0.031 c -0.052,0.179 -0.061,0.332 -0.058,0.469 -0.081,1.479 0.841,2.566 2.784,3.259 1.205,0.333 2.16,0.01 2.854,-0.984 -1.764,-0.733 -3.191,-2.06 -4.258,-3.986 -0.654,0.254 -1.091,0.647 -1.31,1.211 l 0,0 z m 7.995,0.282 0.044,-0.009 0.097,0.035 c 0.314,0.066 0.657,0.098 1.007,0.098 1.184,0.044 2.185,-0.377 3,-1.266 0.417,-0.469 0.665,-1.003 0.742,-1.596 -1.093,-0.271 -2.287,-0.758 -3.583,-1.43 -0.034,-0.024 -0.052,-0.052 -0.071,-0.068 -2.082,-1.177 -3.564,-2.42 -4.441,-3.729 -0.179,0.021 -0.343,0.075 -0.496,0.173 l -0.042,0.037 c -1.247,0.76 -1.473,2.06 -0.7,3.87 l 0.032,0.01 0.008,0.046 c 0.005,0.044 0.012,0.107 0.018,0.151 l 0.007,0.046 c 0.012,-0.019 0.028,-0.019 0.033,0.024 l 0.051,0.025 c 0.965,2.015 2.393,3.206 4.294,3.583 l 0,0 z m 2.771,-6.868 -0.018,-0.027 c 1.688,0.862 3.145,1.345 4.331,1.422 0.183,-0.011 0.365,-0.019 0.55,-0.027 0.885,-0.133 1.53,-0.704 1.945,-1.742 l 0.029,0.015 c 0.793,-2.368 -0.787,-4.488 -4.736,-6.354 0,-0.017 -0.015,-0.017 -0.035,-0.029 -0.208,-0.079 -0.404,-0.174 -0.569,-0.277 -0.094,-0.002 -0.189,-0.035 -0.292,-0.1 -1.901,-0.729 -3.431,-0.268 -4.603,1.402 l 0.013,-0.004 c -0.385,0.569 -0.535,1.142 -0.462,1.73 0.047,0.238 0.113,0.49 0.223,0.737 0.583,1.066 1.797,2.164 3.624,3.254 l 0,0 z"
         id="path1111" />
      <path
         inkscape:connector-curvature="0"
         style="fill:#f18900"
         d="m 282.481,659.949 0.012,-0.031 c 0.219,-0.563 0.656,-0.957 1.31,-1.212 1.067,1.927 2.494,3.253 4.258,3.986 -0.695,0.994 -1.65,1.317 -2.854,0.984 -1.942,-0.692 -2.865,-1.78 -2.784,-3.259 -0.002,-0.136 0.006,-0.294 0.058,-0.468 l 0,0 z"
         id="path1113" />
      <path
         inkscape:connector-curvature="0"
         style="fill:#f18900"
         d="m 290.533,660.191 -0.044,0.009 c -1.901,-0.377 -3.329,-1.568 -4.294,-3.582 l -0.051,-0.025 c -0.005,-0.043 -0.021,-0.043 -0.033,-0.024 l -0.007,-0.046 c -0.006,-0.044 -0.012,-0.107 -0.018,-0.151 l -0.008,-0.046 -0.032,-0.01 c -0.773,-1.811 -0.547,-3.11 0.7,-3.87 l 0.042,-0.037 c 0.153,-0.098 0.317,-0.151 0.496,-0.173 0.877,1.31 2.359,2.553 4.441,3.729 0.019,0.017 0.037,0.044 0.071,0.068 1.296,0.672 2.49,1.158 3.583,1.43 -0.077,0.593 -0.325,1.127 -0.742,1.596 -0.814,0.889 -1.815,1.31 -3,1.266 -0.35,0 -0.693,-0.031 -1.007,-0.098 l -0.097,-0.036 0,0 z"
         id="path1115" />
      <path
         inkscape:connector-curvature="0"
         style="fill:#f18900"
         d="m 293.242,653.305 0.018,0.027 c -1.827,-1.09 -3.041,-2.188 -3.624,-3.255 -0.109,-0.247 -0.175,-0.499 -0.223,-0.737 -0.073,-0.589 0.077,-1.161 0.462,-1.73 l -0.013,0.004 c 1.172,-1.67 2.702,-2.132 4.603,-1.402 0.102,0.064 0.198,0.098 0.292,0.1 0.165,0.104 0.361,0.198 0.569,0.277 0.02,0.013 0.035,0.013 0.035,0.029 3.95,1.866 5.529,3.986 4.736,6.354 l -0.029,-0.015 c -0.415,1.038 -1.06,1.609 -1.945,1.742 -0.185,0.009 -0.367,0.017 -0.55,0.027 -1.186,-0.077 -2.642,-0.555 -4.331,-1.421 l 0,0 z"
         id="path1117" />
      <path
         inkscape:connector-curvature="0"
         style="fill:#f18900"
         d="m 282.232,647.205 -2.593,1.229 -5.044,4.213 2.521,-6.423 c 2.218,-5.601 5.382,-7.973 9.459,-7.101 l -0.029,0.019 c 2.997,0.802 4.396,2.697 4.194,5.708 l 0.011,0.091 c -0.021,0.537 -0.112,1.13 -0.256,1.778 -0.943,2.267 -2.472,2.985 -4.552,2.158 -1.079,-0.868 -1.14,-2.743 -0.201,-5.637 l -1.121,-1.291 c -1.372,2.032 -2.166,3.787 -2.389,5.256 l 0,0 z"
         id="path1119" />
      <path
         inkscape:connector-curvature="0"
         style="fill:#d04215"
         d="m 283.554,650.98 c -1.116,-0.924 -1.554,-2.184 -1.322,-3.775 0.223,-1.469 1.017,-3.224 2.389,-5.256 l 1.121,1.291 c -0.939,2.894 -0.878,4.769 0.201,5.637 2.08,0.827 3.609,0.108 4.552,-2.158 0.145,-0.648 0.236,-1.241 0.256,-1.778 l -0.011,-0.091 c 0.203,-3.011 -1.197,-4.906 -4.194,-5.708 l 0.029,-0.019 c -4.077,-0.872 -7.241,1.5 -9.459,7.103 l -2.448,-0.46 c 2.57,-7.958 6.782,-11.174 12.662,-9.648 l 0.002,0.045 c 4.137,1.063 6.306,3.504 6.518,7.316 0.04,3.238 -0.845,5.801 -2.63,7.703 -0.923,0.905 -2.189,1.284 -3.815,1.146 -1.41,-0.123 -2.691,-0.566 -3.851,-1.348 l 0,0 z"
         id="path1121" />
      <path
         inkscape:connector-curvature="0"
         style="fill:#eda1c1"
         d="m 239.68,668.526 c -3.016,-6.091 -6.29,-11.778 -9.788,-17.036 -1.813,1.446 -5.307,2.826 -10.505,4.144 -5.212,1.317 -11.629,0.312 -19.269,-3.023 -2.833,8.466 -4.76,17.279 -5.81,26.471 -1.081,6.822 0.699,12.209 5.303,16.177 14.433,3.135 28.751,1.305 42.93,-5.486 1.119,-8.072 0.156,-15.151 -2.861,-21.24 v -0.007 z"
         id="path1123" />
      <path
         inkscape:connector-curvature="0"
         style="fill:none;stroke:#df5d91;stroke-width:2.12249994;stroke-linecap:square;stroke-miterlimit:10"
         d="m 239.68,668.526 c 3.017,6.094 3.98,13.173 2.861,21.245 -14.178,6.791 -28.497,8.621 -42.93,5.486 -4.604,-3.968 -6.384,-9.354 -5.303,-16.177 1.05,-9.191 2.978,-18.005 5.81,-26.471 7.64,3.336 14.057,4.341 19.269,3.023 5.199,-1.317 8.692,-2.697 10.505,-4.144 3.498,5.26 6.772,10.948 9.788,17.038 l 0,0 z"
         id="path1125" />
      <path
         inkscape:connector-curvature="0"
         style="fill:#fbe000"
         d="m 233.854,645.341 c 0.077,-0.116 0.163,-0.199 0.228,-0.247 0.268,-0.18 0.483,-0.049 0.637,0.388 l 0.875,2.306 2.721,0.848 c 0.537,0.183 0.637,0.434 0.314,0.75 -0.042,0.027 -0.083,0.066 -0.125,0.108 l -0.23,0.186 c -0.016,0.023 -0.041,0.042 -0.072,0.073 -0.094,0.068 -0.199,0.143 -0.296,0.233 -0.312,0.245 -0.615,0.502 -0.932,0.77 -0.04,0.041 -0.094,0.082 -0.148,0.105 l -0.451,0.379 -0.018,2.513 c 0.031,0.243 0.013,0.415 -0.051,0.522 -0.114,0.112 -0.323,0.104 -0.63,-0.058 l -2.54,-1.677 -0.034,0.007 c -0.484,0.132 -0.958,0.27 -1.438,0.401 l -1.309,0.344 -0.173,0.04 c -0.543,0.078 -0.721,-0.151 -0.506,-0.672 l 0.849,-2.438 -1.475,-2.32 c -0.172,-0.255 -0.225,-0.441 -0.147,-0.555 0.087,-0.104 0.275,-0.158 0.547,-0.16 l 2.85,0.061 0.041,-0.037 1.513,-1.87 0,0 z"
         id="path1127" />
      <path
         inkscape:connector-curvature="0"
         style="fill:#fbe000"
         d="m 230.221,653.328 c -0.012,0.012 -0.025,0.008 -0.037,0.004 l 0.173,-0.04 -0.136,0.036 0,0 z"
         id="path1129" />
      <path
         inkscape:connector-curvature="0"
         style="fill:none;stroke:#6b7d27;stroke-width:1.21309996;stroke-linecap:round;stroke-linejoin:round;stroke-miterlimit:10"
         d="m 233.854,645.341 -1.512,1.869 -0.041,0.037 -2.85,-0.061 c -0.272,0.002 -0.46,0.057 -0.547,0.16 -0.078,0.118 -0.025,0.3 0.147,0.555 l 1.475,2.32 -0.849,2.438 c -0.215,0.521 -0.037,0.75 0.506,0.672 l 0.173,-0.04 1.309,-0.344 c 0.479,-0.132 0.953,-0.267 1.438,-0.401 l 0.034,-0.007 2.54,1.681 c 0.307,0.157 0.516,0.166 0.63,0.054 0.063,-0.107 0.082,-0.279 0.051,-0.522 l 0.018,-2.513 0.451,-0.379 c 0.054,-0.023 0.108,-0.064 0.148,-0.105 0.317,-0.266 0.62,-0.524 0.932,-0.77 0.098,-0.091 0.203,-0.165 0.296,-0.233 0.031,-0.031 0.056,-0.05 0.072,-0.073 l 0.23,-0.186 c 0.043,-0.042 0.084,-0.081 0.125,-0.108 0.323,-0.316 0.223,-0.567 -0.314,-0.75 l -2.721,-0.848 -0.875,-2.306 c -0.154,-0.437 -0.369,-0.567 -0.637,-0.388 -0.066,0.049 -0.152,0.132 -0.229,0.248 l 0,0 z"
         id="path1131" />
      <path
         inkscape:connector-curvature="0"
         style="fill:#f18900"
         d="m 230.409,639.842 c -9.309,-2.156 -18.433,-1.757 -27.399,1.206 l 0.445,10.121 c 6.438,3.8 13.815,6.183 22.102,7.138 l 5.423,-5.523 -0.571,-12.942 0,0 z"
         id="path1133" />
      <path
         inkscape:connector-curvature="0"
         style="fill:none;stroke:#d04215;stroke-width:2.10349989;stroke-linecap:square;stroke-miterlimit:10"
         d="m 203.455,651.169 -0.445,-10.121 c 8.966,-2.963 18.09,-3.362 27.399,-1.206 l 0.571,12.941"
         id="path1135" />
      <path
         inkscape:connector-curvature="0"
         style="fill:#eda1c1"
         d="m 229.54,653.195 c -2.079,1.245 -5.349,2.43 -9.829,3.582 -5.144,1.341 -11.415,0.495 -18.806,-2.546 -2.582,8.005 -4.376,16.323 -5.348,24.97 l -0.01,0.047 c -0.987,6.262 0.571,11.236 4.664,14.937 13.837,2.932 27.567,1.193 41.177,-5.184 0.938,-7.577 0.002,-14.228 -2.837,-19.971 -2.793,-5.645 -5.803,-10.925 -9.011,-15.835 l 0,0 z"
         id="path1137" />
      <path
         inkscape:connector-curvature="0"
         style="fill:#df5d91"
         d="m 199.859,689.947 c 0.479,0.197 1.162,0.613 2.023,1.212 0.863,0.602 1.543,1.014 2.025,1.227 0.815,0.34 1.652,0.469 2.523,0.375 0.979,-0.109 1.796,-0.392 2.462,-0.849 0.365,-0.262 0.884,-0.748 1.536,-1.486 1.264,-1.392 2.772,-2.198 4.527,-2.391 0.824,-0.091 1.769,0.162 2.833,0.739 0.29,0.16 1.165,0.761 2.665,1.793 2.15,1.465 4.357,1.22 6.622,-0.728 1.206,-1.33 1.917,-2.103 2.157,-2.322 0.895,-0.796 1.755,-1.243 2.578,-1.335 1.758,-0.192 3.417,0.26 4.987,1.345 0.812,0.576 1.439,0.938 1.854,1.11 0.763,0.305 1.626,0.4 2.605,0.293 0.87,-0.096 1.651,-0.402 2.363,-0.912 0.416,-0.311 0.982,-0.859 1.672,-1.633 0.513,-0.573 0.948,-1.007 1.304,-1.323 0.111,-0.104 0.242,-0.191 0.376,-0.268 0.338,-0.197 0.708,-0.386 1.085,-0.53 0.38,-0.116 0.763,-0.188 1.155,-0.232 0.265,-0.029 0.532,-0.013 0.794,0.062 0.305,0.041 0.598,0.114 0.878,0.229 0.265,0.102 0.532,0.234 0.802,0.369 0.337,0.185 0.627,0.358 0.887,0.551 0.363,0.245 0.739,0.497 1.118,0.767 0.364,0.24 0.772,0.479 1.223,0.709 0.169,0.072 0.331,0.124 0.479,0.185 0.346,0.107 0.684,0.174 1.02,0.211 0.144,0 0.302,0.013 0.462,0.027 2.6,-0.009 4.232,-1.208 4.899,-3.585 l -18.941,-9.453 c -6.962,5.805 -23.22,7.622 -48.781,5.45 l -13.165,11.312 c 1.383,1.515 3.082,2.767 5.106,3.711 0.66,0.118 1.286,0.199 1.869,0.209 2.688,-0.416 4.785,-1.473 6.278,-3.161 1.118,-1.262 2.185,-1.954 3.226,-2.07 0.858,-0.092 1.694,0.034 2.494,0.392 l 0,0 z"
         id="path1139" />
      <path
         inkscape:connector-curvature="0"
         style="fill:#df5d91"
         d="m 201.882,691.159 c -0.862,-0.599 -1.544,-1.015 -2.023,-1.212 -0.8,-0.358 -1.636,-0.484 -2.492,-0.392 -1.042,0.116 -2.108,0.809 -3.226,2.07 -1.493,1.688 -3.589,2.745 -6.278,3.161 -0.583,-0.01 -1.209,-0.091 -1.869,-0.209 l -6.903,7.664 c 1.259,1.506 2.112,2.432 2.579,2.776 1.191,0.95 2.922,1.307 5.175,1.061 0.821,-0.089 1.635,-0.404 2.405,-0.945 0.337,-0.215 0.838,-0.611 1.478,-1.185 0.139,-0.147 0.29,-0.313 0.443,-0.491 1.428,-1.591 2.798,-2.468 4.091,-2.61 0.87,-0.094 1.722,0.035 2.553,0.399 0.485,0.229 1.169,0.659 2.051,1.285 0.879,0.625 1.58,1.052 2.08,1.282 0.831,0.35 1.697,0.477 2.582,0.377 0.998,-0.107 1.842,-0.406 2.525,-0.881 0.361,-0.261 0.878,-0.778 1.528,-1.545 1.284,-1.457 2.838,-2.281 4.64,-2.477 0.842,-0.093 1.806,0.173 2.887,0.777 0.256,0.149 0.996,0.646 2.203,1.502 0.358,0.229 0.729,0.438 1.133,0.613 3.783,1.817 7.144,1.197 10.077,-1.844 0.456,-0.508 0.898,-1.018 1.357,-1.525 0.346,-0.381 0.718,-0.7 1.093,-0.963 0.764,-0.591 1.639,-0.874 2.619,-0.866 0.913,-0.024 1.78,0.116 2.608,0.439 0.778,0.311 1.489,0.723 2.135,1.214 0.298,0.247 0.642,0.477 1.013,0.688 0.26,0.16 0.541,0.297 0.854,0.392 0.994,0.28 1.988,0.301 3.019,0.085 0.812,-0.192 1.522,-0.567 2.115,-1.12 0.666,-0.622 1.282,-1.264 1.858,-1.95 0.354,-0.438 0.75,-0.808 1.199,-1.123 0.504,-0.379 1.085,-0.667 1.74,-0.855 0.389,-0.046 0.762,-0.056 1.146,-0.022 1.011,0.022 1.958,0.273 2.822,0.771 0.865,0.508 1.688,1.04 2.479,1.589 0.259,0.179 0.526,0.312 0.806,0.415 0.37,0.148 0.745,0.259 1.131,0.333 0.999,0.172 1.978,0.079 2.944,-0.279 0.947,-0.369 1.648,-0.966 2.126,-1.803 0.062,-0.124 0.113,-0.246 0.141,-0.383 0.12,-0.576 0.16,-1.14 0.107,-1.699 l -8.42,-6.558 c -0.336,-0.035 -0.674,-0.104 -1.02,-0.211 -0.149,-0.059 -0.314,-0.112 -0.479,-0.185 -0.456,-0.23 -0.859,-0.469 -1.223,-0.709 -0.379,-0.27 -0.755,-0.521 -1.118,-0.767 -0.259,-0.192 -0.55,-0.366 -0.887,-0.551 -0.27,-0.135 -0.538,-0.266 -0.802,-0.369 -0.28,-0.115 -0.573,-0.188 -0.878,-0.229 -0.262,-0.075 -0.529,-0.092 -0.794,-0.062 -0.393,0.044 -0.775,0.116 -1.155,0.232 -0.376,0.145 -0.747,0.333 -1.085,0.53 -0.134,0.076 -0.265,0.164 -0.376,0.268 -0.356,0.32 -0.792,0.75 -1.304,1.323 -0.69,0.773 -1.256,1.322 -1.672,1.633 -0.711,0.51 -1.493,0.816 -2.363,0.912 -0.979,0.107 -1.843,0.012 -2.605,-0.293 -0.415,-0.172 -1.042,-0.534 -1.854,-1.11 -1.57,-1.085 -3.229,-1.537 -4.987,-1.345 -0.823,0.092 -1.683,0.539 -2.578,1.335 -0.241,0.22 -0.951,0.992 -2.157,2.322 -2.265,1.947 -4.472,2.192 -6.622,0.729 -1.5,-1.034 -2.375,-1.635 -2.665,-1.795 -1.064,-0.577 -2.008,-0.83 -2.833,-0.737 -1.755,0.192 -3.263,0.997 -4.527,2.394 -0.652,0.733 -1.17,1.22 -1.536,1.481 -0.666,0.457 -1.483,0.739 -2.462,0.849 -0.871,0.096 -1.708,-0.035 -2.523,-0.375 -0.482,-0.213 -1.162,-0.625 -2.025,-1.225 v -10e-4 z"
         id="path1141" />
      <path
         inkscape:connector-curvature="0"
         style="fill:none;stroke:#970f45;stroke-width:2.11849999;stroke-linecap:round;stroke-miterlimit:10"
         d="m 256.414,687.115 c -0.336,-0.037 -0.674,-0.104 -1.02,-0.211 -0.149,-0.061 -0.31,-0.112 -0.479,-0.185 -0.451,-0.23 -0.859,-0.469 -1.223,-0.709 -0.379,-0.27 -0.755,-0.521 -1.118,-0.767 -0.259,-0.192 -0.55,-0.366 -0.887,-0.551 -0.27,-0.135 -0.538,-0.266 -0.802,-0.369 -0.28,-0.115 -0.573,-0.188 -0.878,-0.229 -0.262,-0.075 -0.529,-0.092 -0.794,-0.062 -0.393,0.044 -0.775,0.116 -1.155,0.232 -0.376,0.145 -0.747,0.333 -1.085,0.53 -0.134,0.076 -0.265,0.164 -0.376,0.268 -0.356,0.32 -0.792,0.75 -1.304,1.323 -0.69,0.773 -1.256,1.322 -1.672,1.633 -0.711,0.51 -1.493,0.816 -2.363,0.912 -0.979,0.107 -1.843,0.012 -2.605,-0.293 -0.415,-0.172 -1.042,-0.534 -1.854,-1.11 -1.57,-1.085 -3.229,-1.537 -4.987,-1.345 -0.823,0.092 -1.683,0.539 -2.578,1.335 -0.241,0.22 -0.951,0.992 -2.157,2.322 -2.265,1.947 -4.472,2.192 -6.622,0.728 -1.5,-1.032 -2.375,-1.633 -2.665,-1.793 -1.064,-0.577 -2.008,-0.83 -2.833,-0.739 -1.755,0.192 -3.263,0.999 -4.527,2.391 -0.652,0.738 -1.17,1.225 -1.536,1.486 -0.666,0.457 -1.483,0.739 -2.462,0.849 -0.871,0.096 -1.708,-0.035 -2.523,-0.375 -0.482,-0.213 -1.162,-0.625 -2.025,-1.227 -0.862,-0.599 -1.544,-1.015 -2.023,-1.212 -0.8,-0.354 -1.636,-0.484 -2.492,-0.392 -1.042,0.116 -2.108,0.809 -3.226,2.07 -1.493,1.688 -3.589,2.745 -6.278,3.161 -0.583,-0.01 -1.209,-0.091 -1.869,-0.209 m -0.002,10e-4 c -2.024,-0.944 -3.723,-2.196 -5.106,-3.711 l 13.165,-11.312 c 25.562,2.172 41.819,0.354 48.781,-5.45 l 18.941,9.453 c -0.667,2.377 -2.3,3.576 -4.899,3.585 -0.16,-0.015 -0.321,-0.027 -0.462,-0.027 m -70.42,7.462 -6.903,7.664 c 1.259,1.502 2.112,2.432 2.579,2.776 1.191,0.95 2.922,1.307 5.175,1.061 0.821,-0.089 1.635,-0.404 2.405,-0.945 0.337,-0.215 0.838,-0.611 1.478,-1.185 0.139,-0.147 0.29,-0.313 0.443,-0.491 1.428,-1.591 2.798,-2.468 4.091,-2.61 0.87,-0.094 1.722,0.035 2.553,0.399 0.485,0.229 1.169,0.659 2.051,1.285 0.879,0.625 1.58,1.052 2.08,1.282 0.831,0.35 1.697,0.477 2.582,0.377 0.998,-0.107 1.842,-0.406 2.525,-0.885 0.361,-0.257 0.878,-0.774 1.528,-1.541 1.284,-1.457 2.838,-2.281 4.64,-2.477 0.842,-0.093 1.806,0.173 2.887,0.777 0.256,0.149 0.996,0.646 2.203,1.502 0.358,0.229 0.729,0.438 1.133,0.613 3.783,1.817 7.144,1.197 10.077,-1.844 0.456,-0.512 0.898,-1.018 1.357,-1.525 0.346,-0.381 0.718,-0.7 1.093,-0.963 0.764,-0.591 1.639,-0.874 2.619,-0.866 0.913,-0.024 1.78,0.116 2.608,0.439 0.778,0.311 1.489,0.723 2.135,1.214 0.298,0.247 0.642,0.477 1.013,0.688 0.26,0.16 0.541,0.297 0.854,0.392 0.994,0.276 1.988,0.301 3.019,0.085 0.812,-0.192 1.522,-0.567 2.115,-1.12 0.666,-0.622 1.279,-1.264 1.858,-1.95 0.354,-0.438 0.75,-0.808 1.199,-1.123 0.504,-0.379 1.085,-0.667 1.74,-0.855 0.389,-0.046 0.762,-0.056 1.146,-0.022 1.011,0.022 1.958,0.273 2.822,0.771 0.865,0.508 1.688,1.04 2.479,1.589 0.259,0.179 0.526,0.312 0.806,0.415 0.367,0.148 0.745,0.259 1.131,0.333 0.999,0.172 1.978,0.079 2.944,-0.279 0.947,-0.369 1.648,-0.966 2.126,-1.803 0.062,-0.124 0.113,-0.246 0.141,-0.383 0.12,-0.576 0.16,-1.14 0.107,-1.699 l -8.42,-6.558"
         id="path1143" />
      <path
         inkscape:connector-curvature="0"
         style="fill:#f18900"
         d="m 235.83,569.368 c -1.564,-0.105 -3.105,-0.183 -4.64,-0.218 -21.534,-0.53 -40.85,4.555 -57.927,15.268 -3.372,-2.598 -8.281,-3.234 -14.72,-1.943 -8.431,1.688 -14.885,0.899 -19.388,-2.337 0.153,6.36 3.394,11.211 9.738,14.551 -6.863,-0.417 -11.246,1.421 -13.115,5.511 -2.668,5.739 -7.375,7.391 -14.081,4.964 1.81,6.535 7.196,8.493 16.171,5.866 -2.509,6.698 -8.726,10.814 -18.662,12.325 8.046,3.843 16.184,3.626 24.417,-0.667 -1.652,2.688 -2.749,4.997 -3.28,6.938 -1.393,5.132 -5.138,8.505 -11.23,10.152 8.249,2.832 15.746,1.064 22.468,-5.316 -0.845,6.155 -3.952,10.201 -9.309,12.132 5.799,3.417 12.208,2.725 19.201,-2.073 10.045,4.738 21.974,6.719 35.81,5.923 1.894,-0.08 4.001,-0.321 6.33,-0.689 10.312,-1.687 20.627,-4.252 30.961,-7.66 4.093,-1.353 7.8,-2.941 11.097,-4.767 4.756,-2.642 8.686,-5.762 11.786,-9.358 1.051,-1.241 2.722,-3.572 5.027,-6.984 2.784,0.333 4.8,0.441 6.046,0.309 4.078,-0.466 7.625,-2.688 10.637,-6.684 -4.742,-0.38 -8.182,-1.73 -10.324,-4.049 3.157,-0.279 5.847,-0.889 8.091,-1.812 2.748,-1.119 5.274,-3.029 7.626,-5.704 -5.247,0.717 -9.687,-0.774 -13.295,-4.467 -1.241,-1.254 -2.493,-2.488 -3.755,-3.704 2.502,-0.282 4.88,-0.833 7.102,-1.647 4.425,-1.598 8.139,-4.699 11.157,-9.275 -9.391,2.784 -16.133,1.763 -20.201,-3.1 3.755,-1.04 6.402,-2.449 7.953,-4.223 0.891,-1.001 1.449,-2.14 1.671,-3.406 0.023,-0.1 0.029,-0.192 0.058,-0.277 0.19,-1.4 0.02,-2.946 -0.529,-4.639 -0.147,0.176 -0.293,0.348 -0.424,0.52 -0.7,0.8 -1.412,1.43 -2.137,1.925 -3.173,2.153 -6.69,1.614 -10.542,-1.649 -1.438,-1.222 -3.761,-2.237 -6.948,-3.039 1.405,-4.14 1.199,-8.324 -0.636,-12.551 -2.091,4.809 -5.03,7.765 -8.821,8.875 -3.806,1.099 -6.924,3.424 -9.383,6.979 l 0,0 z"
         id="path1145" />
      <path
         inkscape:connector-curvature="0"
         style="fill:none;stroke:#d04215;stroke-width:2.102;stroke-linecap:square;stroke-miterlimit:10"
         d="m 231.19,569.15 c -21.534,-0.53 -40.85,4.555 -57.927,15.268 -3.372,-2.598 -8.281,-3.234 -14.72,-1.943 -8.431,1.688 -14.885,0.899 -19.388,-2.337 0.153,6.36 3.394,11.211 9.738,14.551 -6.863,-0.417 -11.246,1.421 -13.115,5.511 -2.668,5.739 -7.375,7.391 -14.081,4.964 1.81,6.535 7.196,8.493 16.171,5.866 -2.509,6.698 -8.726,10.814 -18.662,12.325 8.046,3.843 16.184,3.626 24.417,-0.667 -1.652,2.688 -2.749,4.997 -3.28,6.938 -1.393,5.132 -5.138,8.505 -11.23,10.152 8.249,2.832 15.746,1.064 22.468,-5.316 -0.845,6.155 -3.952,10.201 -9.309,12.132 5.799,3.417 12.208,2.725 19.201,-2.073 10.045,4.738 21.974,6.719 35.81,5.923 1.894,-0.08 4.001,-0.321 6.33,-0.689 10.312,-1.687 20.627,-4.252 30.961,-7.66 4.093,-1.353 7.8,-2.941 11.097,-4.767 4.756,-2.642 8.686,-5.762 11.786,-9.358 1.051,-1.241 2.722,-3.572 5.027,-6.984 2.784,0.333 4.8,0.441 6.046,0.309 4.078,-0.466 7.625,-2.688 10.637,-6.684 -4.742,-0.38 -8.182,-1.73 -10.324,-4.049 3.157,-0.279 5.847,-0.889 8.091,-1.812 2.748,-1.119 5.274,-3.029 7.626,-5.704 -5.247,0.717 -9.687,-0.774 -13.295,-4.467 -1.241,-1.254 -2.493,-2.488 -3.755,-3.704 2.502,-0.282 4.88,-0.833 7.102,-1.647 4.425,-1.598 8.139,-4.699 11.157,-9.275 -9.391,2.784 -16.133,1.763 -20.201,-3.1 3.755,-1.04 6.402,-2.449 7.953,-4.223 0.891,-1.001 1.449,-2.14 1.671,-3.406 0.023,-0.1 0.029,-0.192 0.058,-0.277 0.19,-1.4 0.02,-2.946 -0.529,-4.639 -0.147,0.176 -0.293,0.348 -0.424,0.52 -0.7,0.8 -1.412,1.43 -2.137,1.925 -3.173,2.153 -6.69,1.614 -10.542,-1.649 -1.438,-1.222 -3.761,-2.237 -6.948,-3.039 1.405,-4.14 1.199,-8.324 -0.636,-12.551 -2.091,4.809 -5.03,7.765 -8.821,8.875 -3.805,1.103 -6.923,3.428 -9.382,6.982 -1.564,-0.105 -3.105,-0.183 -4.64,-0.213 v -0.008 z"
         id="path1147" />
      <path
         inkscape:connector-curvature="0"
         style="fill:#9dc517"
         d="m 252.966,572.403 1.597,2.37 c 0.321,0.471 0.557,0.962 0.694,1.459 l -0.33,-0.205 c -0.488,-0.29 -0.823,-0.149 -1.026,0.41 l -0.567,1.703 c -0.176,0.555 -0.031,0.972 0.426,1.286 -0.25,0.04 -0.507,0.057 -0.781,0.04 l -2.348,-0.077 c -1.183,-0.054 -1.604,-0.702 -1.277,-1.945 0.211,-0.843 0.577,-1.657 1.101,-2.435 l 0.642,-2.389 c 0.385,-1.458 1.013,-1.523 1.869,-0.217 l 0,0 z"
         id="path1149" />
      <path
         inkscape:connector-curvature="0"
         style="fill:#9dc517"
         d="m 253.334,578.141 0.567,-1.703 c 0.204,-0.56 0.539,-0.7 1.026,-0.41 l 0.33,0.205 1.135,0.686 0.212,0.12 c 0.479,0.309 0.627,0.744 0.424,1.304 l -0.578,1.705 c -0.147,0.486 -0.426,0.658 -0.819,0.501 -0.056,-0.033 -0.117,-0.068 -0.185,-0.098 l -1.665,-1.015 c -0.016,-0.013 -0.016,-0.013 -0.022,-0.009 -0.456,-0.315 -0.601,-0.732 -0.425,-1.286 l 0,0 z"
         id="path1151" />
      <path
         inkscape:connector-curvature="0"
         style="fill:#9dc517"
         d="m 256.604,577.038 -0.212,-0.12 c 0.376,-0.18 0.801,-0.265 1.282,-0.265 l 2.374,0.041 c 1.312,0.021 1.683,0.729 1.114,2.091 l -0.911,2.188 c 0,1.011 -0.171,1.921 -0.507,2.745 -0.484,1.217 -1.164,1.204 -2.034,-0.041 l -1.62,-2.316 c -0.185,-0.27 -0.336,-0.543 -0.458,-0.812 0.393,0.157 0.671,-0.015 0.819,-0.501 l 0.578,-1.705 c 0.205,-0.561 0.054,-0.996 -0.425,-1.305 l 0,0 z"
         id="path1153" />
      <path
         inkscape:connector-curvature="0"
         style="fill:none;stroke:#388e36;stroke-width:1.57650006;stroke-linecap:round;stroke-linejoin:round;stroke-miterlimit:10"
         d="m 255.257,576.232 c -0.138,-0.497 -0.374,-0.988 -0.694,-1.459 l -1.597,-2.37 c -0.856,-1.307 -1.483,-1.241 -1.869,0.22 l -0.642,2.387 c -0.524,0.777 -0.89,1.592 -1.101,2.435 -0.328,1.243 0.094,1.892 1.277,1.945 l 2.348,0.077 c 0.274,0.017 0.531,0 0.781,-0.04 m 0,0 c -0.457,-0.314 -0.602,-0.731 -0.426,-1.286 l 0.567,-1.703 c 0.204,-0.56 0.539,-0.7 1.026,-0.41 l 0.33,0.205 m 1.135,0.685 -1.135,-0.686 m 1.135,0.686 0.212,0.12 c 0.479,0.309 0.63,0.744 0.426,1.304 l -0.579,1.705 c -0.147,0.486 -0.426,0.658 -0.819,0.501 m 0,0 c 0.122,0.27 0.273,0.543 0.458,0.812 l 1.62,2.316 c 0.87,1.245 1.55,1.258 2.034,0.041 0.34,-0.824 0.507,-1.734 0.507,-2.745 l 0.911,-2.188 c 0.569,-1.361 0.199,-2.07 -1.114,-2.091 l -2.374,-0.041 c -0.481,0 -0.906,0.085 -1.282,0.265 m -2.632,2.51 c 0.007,-0.004 0.007,-0.004 0.022,0.009 l 1.665,1.018 c 0.067,0.026 0.128,0.062 0.185,0.095"
         id="path1155" />
      <path
         inkscape:connector-curvature="0"
         style="fill:#ab61a3"
         d="m 158.92,593.887 -0.651,2.888 c -0.129,0.574 -0.158,1.127 -0.071,1.637 l 0.277,-0.346 c 0.413,-0.501 0.87,-0.547 1.382,-0.149 l 1.5,1.225 c 0.48,0.402 0.52,0.846 0.155,1.351 0.306,-0.089 0.606,-0.205 0.914,-0.354 l 2.655,-1.237 c 1.332,-0.634 1.49,-1.419 0.495,-2.355 -0.66,-0.643 -1.485,-1.182 -2.47,-1.605 l -1.927,-1.797 c -1.173,-1.098 -1.926,-0.845 -2.259,0.742 l 0,0 z"
         id="path1157" />
      <path
         inkscape:connector-curvature="0"
         style="fill:#ab61a3"
         d="m 161.355,599.141 -1.5,-1.225 c -0.512,-0.392 -0.969,-0.352 -1.382,0.149 l -0.277,0.346 -0.959,1.171 -0.185,0.214 c -0.393,0.512 -0.35,0.969 0.163,1.362 l 1.511,1.221 c 0.41,0.356 0.817,0.371 1.191,0.033 0.051,-0.054 0.098,-0.114 0.161,-0.176 l 1.407,-1.724 c 0.007,-0.02 0.007,-0.02 0.024,-0.021 0.366,-0.505 0.326,-0.948 -0.154,-1.35 l 0,0 z"
         id="path1159" />
      <path
         inkscape:connector-curvature="0"
         style="fill:#ab61a3"
         d="m 157.053,599.796 0.185,-0.214 c -0.521,0.027 -1.052,0.166 -1.603,0.404 l -2.705,1.216 c -1.493,0.674 -1.569,1.485 -0.237,2.405 l 2.134,1.479 c 0.503,0.897 1.154,1.618 1.952,2.18 1.16,0.835 1.933,0.486 2.311,-1.053 l 0.707,-2.853 c 0.079,-0.332 0.112,-0.648 0.122,-0.949 -0.374,0.338 -0.782,0.323 -1.191,-0.033 l -1.511,-1.221 c -0.514,-0.392 -0.556,-0.849 -0.164,-1.361 l 0,0 z"
         id="path1161" />
      <path
         inkscape:connector-curvature="0"
         style="fill:none;stroke:#633791;stroke-width:1.57650006;stroke-linecap:round;stroke-linejoin:round;stroke-miterlimit:10"
         d="m 158.197,598.411 c -0.087,-0.51 -0.058,-1.062 0.071,-1.637 l 0.651,-2.888 c 0.333,-1.587 1.086,-1.84 2.256,-0.744 l 1.927,1.797 c 0.985,0.424 1.81,0.963 2.47,1.605 0.995,0.937 0.837,1.722 -0.495,2.355 l -2.655,1.237 c -0.307,0.148 -0.608,0.265 -0.914,0.354 m 0.002,10e-4 c 0.365,-0.505 0.325,-0.948 -0.155,-1.351 l -1.5,-1.225 c -0.512,-0.392 -0.969,-0.352 -1.382,0.149 l -0.277,0.346 m -0.958,1.172 0.959,-1.171 m -0.959,1.171 -0.185,0.214 c -0.393,0.512 -0.35,0.969 0.163,1.362 l 1.511,1.221 c 0.41,0.356 0.817,0.371 1.191,0.033 m 0,0 c -0.01,0.301 -0.043,0.617 -0.122,0.949 l -0.707,2.853 c -0.378,1.539 -1.151,1.888 -2.311,1.053 -0.798,-0.562 -1.449,-1.282 -1.952,-2.18 l -2.134,-1.479 c -1.332,-0.92 -1.256,-1.731 0.237,-2.405 l 2.705,-1.216 c 0.551,-0.238 1.082,-0.377 1.603,-0.404 m 4.273,0.908 c -0.017,0.002 -0.017,0.002 -0.024,0.021 l -1.407,1.724 c -0.063,0.062 -0.11,0.122 -0.161,0.176"
         id="path1163" />
      <path
         inkscape:connector-curvature="0"
         style="fill:#82110c"
         d="m 257.252,602.046 1.035,-4.13 c -16.065,14.072 -33.983,21.587 -53.717,22.566 -6.155,0.307 -12.135,-0.066 -17.926,-1.135 -2.896,-0.495 -5.158,-1.047 -6.815,-1.646 6.142,8.774 15.455,13.644 27.976,14.604 3.914,0.29 7.91,0.172 11.986,-0.353 l 4.946,-0.852 c 12.473,-3.157 21.8,-9.627 27.997,-19.419 1.932,-3.06 3.425,-6.269 4.518,-9.635 l 0,0 z"
         id="path1165" />
      <path
         inkscape:connector-curvature="0"
         style="fill:#d50d18"
         d="m 222.313,625.176 c 3.629,-0.858 6.017,-2.484 7.181,-4.869 0.601,-1.243 0.979,-3.015 1.098,-5.294 -6.424,2.468 -13.069,4.132 -19.945,4.965 1.057,1.838 2.101,3.168 3.141,3.972 2.136,1.651 4.975,2.063 8.525,1.226 l 0,0 z"
         id="path1167" />
      <path
         inkscape:connector-curvature="0"
         style="fill:#ffffff"
         d="m 205.959,558.643 c -5.043,-3.299 -10.451,-4.271 -16.227,-2.934 -5.76,1.336 -10.186,4.587 -13.264,9.769 -3.091,5.18 -3.944,10.777 -2.557,16.757 1.385,5.981 4.607,10.616 9.661,13.884 5.045,3.311 10.456,4.297 16.217,2.96 5.771,-1.336 10.197,-4.604 13.272,-9.8 3.101,-5.15 3.954,-10.733 2.567,-16.715 -1.387,-5.978 -4.609,-10.631 -9.668,-13.925 v 0.004 z"
         id="path1169" />
      <path
         inkscape:connector-curvature="0"
         style="fill:#ffffff"
         d="m 220.449,549.056 c -5.553,1.289 -9.814,4.455 -12.766,9.51 -2.953,5.058 -3.75,10.531 -2.392,16.395 1.362,5.88 4.481,10.415 9.352,13.627 4.882,3.271 10.103,4.256 15.659,2.969 5.551,-1.289 9.808,-4.471 12.769,-9.56 2.957,-5.024 3.765,-10.473 2.403,-16.349 -1.359,-5.863 -4.487,-10.428 -9.363,-13.67 -4.891,-3.239 -10.111,-4.208 -15.662,-2.922 l 0,0 z"
         id="path1171" />
      <path
         inkscape:connector-curvature="0"
         d="m 231.395,576.881 c -1.578,-1.483 -3.389,-2.163 -5.439,-2.039 -2.068,0.112 -3.776,0.982 -5.128,2.603 -1.368,1.639 -1.969,3.534 -1.806,5.716 0.15,2.185 1.006,4.014 2.564,5.488 1.579,1.483 3.376,2.168 5.427,2.041 2.052,-0.109 3.767,-0.978 5.118,-2.6 1.368,-1.61 1.97,-3.521 1.8,-5.715 -0.136,-2.184 -0.978,-4.023 -2.536,-5.494 l 0,0 z"
         id="path1173" />
      <path
         inkscape:connector-curvature="0"
         d="m 210.66,580.453 c -1.69,-1.557 -3.637,-2.263 -5.847,-2.122 -2.228,0.126 -4.068,1.046 -5.533,2.76 -1.474,1.734 -2.132,3.735 -1.963,6.029 0.151,2.3 1.064,4.229 2.736,5.771 1.688,1.559 3.625,2.27 5.832,2.13 2.213,-0.126 4.053,-1.048 5.519,-2.764 1.481,-1.701 2.131,-3.713 1.966,-6.026 -0.14,-2.299 -1.041,-4.233 -2.71,-5.778 l 0,0 z"
         id="path1175" />
      <path
         inkscape:connector-curvature="0"
         style="fill:#5fc2cf"
         d="m 227.208,548.592 c -2.203,-0.249 -4.475,-0.111 -6.795,0.425 -5.55,1.289 -9.813,4.454 -12.766,9.51 -0.177,0.309 -0.341,0.611 -0.498,0.924 -0.395,-0.294 -0.804,-0.576 -1.226,-0.85 -5.042,-3.298 -10.449,-4.27 -16.225,-2.93 -5.757,1.335 -10.186,4.588 -13.266,9.765 -3.092,5.185 -3.943,10.778 -2.556,16.76 0.522,2.258 1.311,4.315 2.349,6.178 -3.039,-7.061 -2.393,-13.947 1.937,-20.646 8.684,-8.719 18.859,-11.078 30.539,-7.08 6.06,-6.29 12.438,-9.37 19.156,-9.263 2.139,0.031 4.311,0.402 6.508,1.088 l -0.415,-1.786 c -2.174,-1.127 -4.424,-1.836 -6.742,-2.095 l 0,0 z"
         id="path1177" />
      <path
         inkscape:connector-curvature="0"
         style="fill:#5fc2cf"
         d="m 241.722,557.289 c -0.935,-1.278 -1.999,-2.448 -3.211,-3.503 l -0.987,0.229 c 1.614,0.996 3.004,2.089 4.198,3.274 l 0,0 z"
         id="path1179" />
      <path
         inkscape:connector-curvature="0"
         style="fill:#5fc2cf"
         d="m 237.524,554.016 0.987,-0.229 c -0.758,-0.648 -1.568,-1.271 -2.436,-1.851 -0.696,-0.46 -1.398,-0.872 -2.125,-1.249 l 0.415,1.786 c 0.332,0.097 0.67,0.207 1.01,0.327 0.758,0.383 1.475,0.796 2.149,1.216 l 0,0 z"
         id="path1181" />
      <path
         inkscape:connector-curvature="0"
         style="fill:#ab6514"
         d="m 223.703,546.421 c -0.178,-0.162 -0.377,-0.288 -0.57,-0.384 -0.685,-0.338 -1.259,-0.128 -1.689,0.643 l -3.347,5.83 -4.283,-3.504 c -0.053,-0.033 -0.119,-0.05 -0.185,-0.063 -0.681,-0.185 -1.246,0.271 -1.721,1.377 l -3.849,7.49 -8.323,-4.23 c -1.539,-0.781 -2.488,-1.059 -2.891,-0.842 -0.402,0.203 -0.665,0.481 -0.784,0.837 l -1.942,4.248 -7.19,-2.972 c -0.5,-0.196 -0.866,-0.311 -1.129,-0.36 -0.564,-0.087 -0.927,0.027 -1.09,0.33 -0.041,0.087 -0.098,0.254 -0.15,0.486 l -1.237,5.346 -7.663,-0.698 c -0.612,-0.096 -1.022,-0.122 -1.232,-0.087 -0.957,0.174 -1.211,0.806 -0.784,1.908 l 1.87,4.779 -8.31,1.411 c -0.717,0.135 -0.964,0.473 -0.763,1.013 0.046,0.116 0.124,0.253 0.219,0.402 l 4.158,5.184 -6.731,4.393 c -0.584,0.433 -0.455,0.854 0.402,1.262 l 7.772,3.255 -4.659,6.963 c -0.954,1.59 -0.797,2.394 0.472,2.427 0.171,0.008 0.369,-0.009 0.61,-0.05 l 9.286,-1.701 c -0.627,-1.158 -1.166,-2.484 -1.62,-3.949 -0.698,-2.281 -0.95,-4.572 -0.75,-6.876 0.218,-2.337 0.797,-4.604 1.771,-6.792 0.953,-2.134 2.157,-4.123 3.632,-5.943 0.01,-0.02 0.025,-0.021 0.039,-0.04 1.483,-1.852 3.237,-3.41 5.263,-4.676 0.1,-0.052 0.178,-0.102 0.244,-0.149 1.941,-1.166 4.039,-1.979 6.286,-2.422 2.128,-0.414 4.295,-0.605 6.473,-0.537 0.203,0 0.393,0.02 0.581,0.023 2.375,0.102 4.556,0.518 6.56,1.249 0.406,0.137 0.779,0.271 1.104,0.396 0.633,0.245 1.158,0.434 1.563,0.574 0.197,-0.296 0.513,-0.68 0.932,-1.149 0.207,-0.253 0.455,-0.526 0.743,-0.827 1.39,-1.521 3.062,-2.826 5.033,-3.937 0.148,-0.081 0.313,-0.183 0.481,-0.268 1.821,-0.996 3.734,-1.75 5.708,-2.287 2.052,-0.555 4.127,-0.725 6.213,-0.524 0.143,0.017 0.287,0.029 0.43,0.042 2.257,0.271 4.416,0.922 6.476,1.954 2.054,1.019 3.937,2.293 5.663,3.822 1.308,1.158 2.341,2.523 3.092,4.075 1.905,3.992 2.469,8.171 1.705,12.521 l 6.496,-2.113 c 0.159,-0.055 0.284,-0.112 0.407,-0.187 0.8,-0.517 0.718,-1.272 -0.251,-2.294 l -6.009,-4.315 4.024,-6.396 c 0.152,-0.485 0.065,-0.792 -0.278,-0.931 l -7.01,-1.239 c 0.242,-1.313 0.541,-3.111 0.89,-5.372 0.052,-0.371 0.118,-0.758 0.18,-1.162 0.005,-0.031 0,-0.062 0.005,-0.11 0.023,-0.178 0.032,-0.333 0.02,-0.453 -0.025,-0.713 -0.444,-0.896 -1.223,-0.574 l -6.394,2.289 -1.294,-5.581 c -0.203,-0.868 -0.668,-1.134 -1.413,-0.792 -0.171,0.073 -0.348,0.175 -0.538,0.297 l -5.561,3.793 -3.94,-3.833 0,0 z"
         id="path1183" />
      <path
         inkscape:connector-curvature="0"
         style="fill:#e7467d"
         d="m 224.551,585.068 c -2.054,-0.863 -4.326,-1.007 -6.824,-0.427 -2.524,0.587 -4.517,1.718 -5.995,3.396 -1.458,1.692 -1.992,3.42 -1.587,5.177 0.415,1.786 1.657,3.118 3.708,3.979 2.071,0.874 4.358,1.013 6.883,0.427 2.495,-0.578 4.475,-1.705 5.938,-3.398 1.489,-1.682 2.02,-3.424 1.604,-5.21 -0.405,-1.757 -1.646,-3.074 -3.727,-3.944 l 0,0 z"
         id="path1185" />
      <path
         inkscape:connector-curvature="0"
         style="fill:#f18900"
         d="m 225.557,658.307 4.26,-4.333 -0.575,-13.139 c -8.478,-1.813 -16.797,-1.451 -24.979,1.081 l 0.438,9.974 c 6.148,3.387 13.09,5.528 20.856,6.417 l 0,0 z"
         id="path1187" />
      <path
         inkscape:connector-curvature="0"
         style="fill:#fbe000"
         d="m 200.558,646.81 c -0.087,-0.109 -0.182,-0.18 -0.25,-0.224 -0.281,-0.157 -0.486,-0.011 -0.599,0.441 l -0.671,2.372 -2.636,1.086 c -0.518,0.226 -0.597,0.486 -0.25,0.771 0.044,0.024 0.091,0.064 0.134,0.098 l 0.248,0.165 c 0.017,0.021 0.045,0.038 0.077,0.066 0.1,0.059 0.211,0.127 0.318,0.207 0.33,0.216 0.653,0.448 0.994,0.687 0.042,0.037 0.098,0.068 0.154,0.093 l 0.482,0.334 0.241,2.503 c -0.008,0.242 0.022,0.416 0.096,0.518 0.123,0.1 0.33,0.072 0.621,-0.112 l 2.379,-1.894 0.039,0.002 c 0.494,0.092 0.976,0.185 1.468,0.274 l 1.334,0.228 0.173,0.024 c 0.55,0.027 0.706,-0.215 0.444,-0.713 l -1.057,-2.355 1.266,-2.442 c 0.15,-0.266 0.186,-0.454 0.096,-0.565 -0.096,-0.096 -0.287,-0.133 -0.557,-0.11 l -2.834,0.315 -0.045,-0.037 -1.665,-1.732 0,0 z"
         id="path1189" />
      <path
         inkscape:connector-curvature="0"
         style="fill:#fbe000"
         d="m 204.878,654.448 c 0.017,0.007 0.025,0.005 0.036,0 l -0.173,-0.024 0.137,0.024 0,0 z"
         id="path1191" />
      <path
         inkscape:connector-curvature="0"
         style="fill:none;stroke:#6b7d27;stroke-width:1.21309996;stroke-linecap:round;stroke-linejoin:round;stroke-miterlimit:10"
         d="m 200.558,646.81 1.668,1.73 0.045,0.037 2.834,-0.315 c 0.27,-0.022 0.46,0.015 0.557,0.11 0.09,0.111 0.054,0.3 -0.096,0.565 l -1.266,2.442 1.057,2.355 c 0.258,0.498 0.106,0.74 -0.444,0.713 l -0.173,-0.024 -1.334,-0.228 c -0.493,-0.09 -0.975,-0.183 -1.468,-0.274 l -0.039,-0.002 -2.379,1.894 c -0.291,0.185 -0.498,0.212 -0.621,0.112 -0.074,-0.102 -0.104,-0.275 -0.096,-0.518 l -0.241,-2.503 -0.482,-0.336 c -0.056,-0.022 -0.112,-0.056 -0.154,-0.091 -0.341,-0.238 -0.665,-0.471 -0.994,-0.687 -0.107,-0.08 -0.219,-0.148 -0.318,-0.207 -0.032,-0.028 -0.061,-0.045 -0.077,-0.066 l -0.248,-0.165 c -0.043,-0.033 -0.09,-0.073 -0.134,-0.098 -0.348,-0.284 -0.269,-0.545 0.25,-0.771 l 2.636,-1.086 0.671,-2.372 c 0.112,-0.452 0.317,-0.599 0.599,-0.441 0.065,0.041 0.16,0.116 0.247,0.226 l 0,0 z"
         id="path1193" />
      <path
         inkscape:connector-curvature="0"
         style="fill:#ce2120"
         d="m 210.75,653.67 c -0.039,-0.833 -0.356,-1.533 -0.958,-2.097 -0.618,-0.554 -1.358,-0.809 -2.19,-0.771 -0.833,0.035 -1.518,0.354 -2.071,0.955 -0.579,0.618 -0.849,1.345 -0.812,2.176 0.036,0.866 0.371,1.579 1.002,2.115 0.603,0.578 1.312,0.85 2.145,0.816 0.835,-0.037 1.549,-0.375 2.112,-1.005 0.553,-0.584 0.808,-1.326 0.772,-2.189 l 0,0 z"
         id="path1195" />
      <path
         inkscape:connector-curvature="0"
         style="fill:none;stroke:#921113;stroke-width:1.5776;stroke-linecap:round;stroke-linejoin:round;stroke-miterlimit:10"
         d="m 210.75,653.67 c 0.036,0.863 -0.22,1.605 -0.772,2.189 -0.562,0.63 -1.276,0.968 -2.112,1.005 -0.833,0.033 -1.542,-0.238 -2.145,-0.816 -0.631,-0.536 -0.966,-1.249 -1.002,-2.115 -0.037,-0.831 0.233,-1.558 0.812,-2.176 0.553,-0.601 1.238,-0.92 2.071,-0.955 0.832,-0.037 1.573,0.218 2.19,0.771 0.603,0.564 0.92,1.264 0.958,2.097 l 0,0 z"
         id="path1197" />
      <path
         inkscape:connector-curvature="0"
         style="fill:#6f53a0"
         d="m 217.37,655.981 c -0.039,-0.833 -0.356,-1.533 -0.957,-2.099 -0.619,-0.551 -1.361,-0.806 -2.192,-0.769 -0.832,0.037 -1.519,0.356 -2.069,0.957 -0.58,0.617 -0.851,1.345 -0.813,2.176 0.036,0.861 0.37,1.576 1.004,2.113 0.603,0.58 1.311,0.854 2.144,0.816 0.835,-0.037 1.549,-0.371 2.113,-1.003 0.552,-0.585 0.807,-1.326 0.77,-2.191 l 0,0 z"
         id="path1199" />
      <path
         inkscape:connector-curvature="0"
         style="fill:none;stroke:#352082;stroke-width:1.5776;stroke-linecap:round;stroke-linejoin:round;stroke-miterlimit:10"
         d="m 217.37,655.981 c 0.037,0.864 -0.218,1.605 -0.771,2.192 -0.564,0.632 -1.278,0.966 -2.113,1.003 -0.833,0.033 -1.541,-0.236 -2.144,-0.816 -0.634,-0.537 -0.968,-1.252 -1.004,-2.113 -0.037,-0.831 0.233,-1.559 0.813,-2.176 0.55,-0.601 1.237,-0.92 2.069,-0.957 0.832,-0.037 1.573,0.218 2.192,0.769 0.602,0.565 0.919,1.265 0.958,2.098 l 0,0 z"
         id="path1201" />
      <path
         inkscape:connector-curvature="0"
         style="fill:#ce2120"
         d="m 235.792,652.553 c -0.037,-0.835 -0.356,-1.533 -0.957,-2.101 -0.618,-0.547 -1.357,-0.804 -2.19,-0.771 -0.833,0.039 -1.518,0.356 -2.069,0.959 -0.579,0.615 -0.852,1.343 -0.815,2.178 0.037,0.863 0.371,1.578 1.004,2.111 0.601,0.582 1.312,0.854 2.147,0.815 0.831,-0.033 1.547,-0.37 2.111,-1.005 0.553,-0.585 0.807,-1.322 0.769,-2.186 l 0,0 z"
         id="path1203" />
      <path
         inkscape:connector-curvature="0"
         style="fill:none;stroke:#921113;stroke-width:1.5776;stroke-linecap:round;stroke-linejoin:round;stroke-miterlimit:10"
         d="m 235.792,652.553 c 0.037,0.864 -0.217,1.602 -0.769,2.188 -0.564,0.635 -1.28,0.972 -2.111,1.005 -0.835,0.038 -1.547,-0.233 -2.147,-0.815 -0.633,-0.533 -0.967,-1.248 -1.004,-2.111 -0.037,-0.835 0.236,-1.562 0.815,-2.178 0.551,-0.603 1.237,-0.92 2.069,-0.959 0.833,-0.033 1.573,0.224 2.19,0.771 0.602,0.566 0.92,1.264 0.957,2.099 l 0,0 z"
         id="path1205" />
      <path
         inkscape:connector-curvature="0"
         style="fill:#9dc517"
         d="m 232.283,653.164 c -0.617,-0.549 -1.356,-0.804 -2.19,-0.767 -0.832,0.035 -1.518,0.353 -2.066,0.955 -0.582,0.619 -0.854,1.343 -0.817,2.178 0.039,0.861 0.375,1.576 1.003,2.109 0.603,0.584 1.314,0.854 2.147,0.818 0.833,-0.035 1.547,-0.373 2.111,-1.003 0.553,-0.589 0.807,-1.326 0.771,-2.19 -0.038,-0.834 -0.358,-1.533 -0.959,-2.1 l 0,0 z"
         id="path1207" />
      <path
         inkscape:connector-curvature="0"
         style="fill:none;stroke:#388e36;stroke-width:1.5776;stroke-linecap:round;stroke-linejoin:round;stroke-miterlimit:10"
         d="m 232.283,653.164 c 0.602,0.567 0.921,1.266 0.958,2.101 0.036,0.864 -0.218,1.602 -0.771,2.19 -0.563,0.63 -1.278,0.968 -2.111,1.003 -0.833,0.035 -1.545,-0.234 -2.147,-0.818 -0.628,-0.533 -0.965,-1.248 -1.003,-2.109 -0.037,-0.835 0.236,-1.559 0.817,-2.178 0.549,-0.603 1.235,-0.92 2.066,-0.955 0.834,-0.038 1.574,0.217 2.191,0.766 l 0,0 z"
         id="path1209" />
      <path
         inkscape:connector-curvature="0"
         style="fill:#fbe000"
         d="m 223.582,653.286 c -0.085,-0.161 -0.182,-0.279 -0.259,-0.353 -0.316,-0.273 -0.613,-0.139 -0.879,0.402 l -1.483,2.847 -3.646,0.676 c -0.722,0.151 -0.889,0.464 -0.522,0.915 0.048,0.044 0.098,0.102 0.143,0.164 l 0.272,0.275 c 0.017,0.029 0.045,0.061 0.081,0.104 0.107,0.1 0.237,0.216 0.349,0.349 0.364,0.362 0.719,0.741 1.081,1.135 0.051,0.059 0.115,0.118 0.175,0.164 l 0.526,0.551 -0.358,3.251 c -0.078,0.309 -0.083,0.534 -0.015,0.682 0.128,0.161 0.402,0.181 0.82,0.024 l 3.533,-1.779 0.048,0.017 c 0.603,0.244 1.191,0.491 1.795,0.737 l 1.636,0.643 0.219,0.085 c 0.689,0.181 0.951,-0.091 0.754,-0.796 l -0.725,-3.279 2.264,-2.772 c 0.264,-0.296 0.355,-0.528 0.276,-0.694 -0.098,-0.145 -0.333,-0.242 -0.684,-0.29 l -3.69,-0.352 -0.046,-0.059 -1.665,-2.647 0,0 z"
         id="path1211" />
      <path
         inkscape:connector-curvature="0"
         style="fill:#fbe000"
         d="m 227.051,664.157 c 0.014,0.017 0.029,0.017 0.047,0.013 l -0.219,-0.081 0.172,0.068 0,0 z"
         id="path1213" />
      <path
         inkscape:connector-curvature="0"
         style="fill:none;stroke:#6b7d27;stroke-width:1.5776;stroke-linecap:round;stroke-linejoin:round;stroke-miterlimit:10"
         d="m 223.582,653.286 1.665,2.646 0.046,0.059 3.69,0.352 c 0.351,0.048 0.586,0.146 0.684,0.29 0.083,0.164 -0.012,0.398 -0.276,0.694 l -2.264,2.772 0.725,3.279 c 0.197,0.705 -0.064,0.977 -0.754,0.792 l -0.219,-0.081 -1.636,-0.643 c -0.604,-0.246 -1.192,-0.493 -1.795,-0.737 l -0.048,-0.017 -3.533,1.779 c -0.418,0.156 -0.692,0.137 -0.82,-0.024 -0.069,-0.147 -0.063,-0.373 0.015,-0.682 l 0.358,-3.251 -0.526,-0.551 c -0.061,-0.046 -0.125,-0.105 -0.175,-0.164 -0.362,-0.394 -0.717,-0.772 -1.081,-1.135 -0.111,-0.133 -0.241,-0.249 -0.349,-0.349 -0.036,-0.043 -0.064,-0.074 -0.081,-0.104 l -0.272,-0.275 c -0.045,-0.062 -0.095,-0.12 -0.143,-0.164 -0.367,-0.451 -0.2,-0.764 0.522,-0.915 l 3.646,-0.676 1.483,-2.847 c 0.266,-0.541 0.562,-0.676 0.879,-0.402 0.077,0.075 0.173,0.193 0.259,0.354 l 0,0 z"
         id="path1215" />
      <path
         inkscape:connector-curvature="0"
         style="fill:#9b278a"
         d="m 214.157,647.392 c -2.822,-1.297 -5.773,-1.566 -8.86,-0.833 -4.141,1.026 -7.364,3.181 -9.648,6.471 0.032,0.554 0.153,0.974 0.333,1.245 0.25,0.388 0.687,0.563 1.305,0.547 0.748,-0.017 1.832,-0.482 3.272,-1.396 1.426,-0.909 2.749,-1.384 3.975,-1.413 2.403,-0.063 4.136,1.743 5.237,5.397 0.696,2.324 1.09,5.228 1.184,8.704 0.047,1.807 -0.042,4.519 -0.25,8.148 10e-4,0.043 10e-4,0.104 10e-4,0.147 l 0.017,0.58 c 4.504,-0.017 9.021,-0.164 13.533,-0.473 l -0.011,-0.464 c -0.023,-0.262 -0.029,-0.522 -0.051,-0.773 -0.221,-3.59 -0.389,-6.35 -0.505,-8.287 -0.116,-1.931 -0.365,-4.14 -0.732,-6.619 -0.383,-2.482 -1.866,-5.093 -4.454,-7.849 -1.228,-1.293 -2.674,-2.348 -4.348,-3.137 v 0.005 z"
         id="path1217" />
      <path
         inkscape:connector-curvature="0"
         style="fill:#9b278a"
         d="m 239.269,677.531 c -0.032,-1.15 -0.519,-2.111 -1.449,-2.9 -0.925,-0.765 -2.034,-1.13 -3.321,-1.095 -3.413,0.41 -6.827,0.733 -10.243,0.98 -4.512,0.309 -9.029,0.456 -13.533,0.473 -4.63,0.006 -9.25,-0.151 -13.893,-0.465 -1.286,0.033 -2.389,0.454 -3.274,1.264 -0.884,0.84 -1.305,1.828 -1.276,2.978 l 0.102,3.899 c 0.03,1.149 0.5,2.097 1.431,2.874 0.925,0.778 2.05,1.155 3.336,1.122 12.59,1.08 25.154,0.755 37.667,-0.99 1.292,-0.033 2.376,-0.47 3.262,-1.293 0.888,-0.824 1.322,-1.796 1.293,-2.943 l -0.102,-3.904 0,0 z"
         id="path1219" />
      <path
         inkscape:connector-curvature="0"
         style="fill:none;stroke:#242424;stroke-width:2.11470008;stroke-linecap:round;stroke-linejoin:round;stroke-miterlimit:10"
         d="m 224.246,674.053 c -0.023,-0.262 -0.029,-0.522 -0.051,-0.771 -0.221,-3.592 -0.389,-6.352 -0.505,-8.285 -0.116,-1.935 -0.365,-4.144 -0.732,-6.623 -0.383,-2.482 -1.866,-5.091 -4.454,-7.849 -1.228,-1.293 -2.674,-2.348 -4.348,-3.133 -2.822,-1.297 -5.773,-1.566 -8.86,-0.833 -4.141,1.026 -7.364,3.181 -9.648,6.471 0.032,0.556 0.153,0.974 0.333,1.245 0.25,0.388 0.687,0.563 1.305,0.547 0.748,-0.017 1.832,-0.482 3.272,-1.396 1.426,-0.909 2.749,-1.384 3.975,-1.413 2.403,-0.063 4.136,1.743 5.237,5.397 0.696,2.324 1.09,5.228 1.184,8.704 0.047,1.807 -0.042,4.519 -0.25,8.148 0,0.043 0.001,0.104 0.001,0.147 m 27.115,0.222 c -0.925,-0.765 -2.034,-1.13 -3.321,-1.095 -3.413,0.41 -6.827,0.733 -10.243,0.98 -4.512,0.309 -9.029,0.456 -13.533,0.473 -4.63,0.006 -9.25,-0.151 -13.893,-0.465 -1.286,0.033 -2.389,0.454 -3.274,1.264 -0.884,0.84 -1.305,1.828 -1.276,2.978 l 0.102,3.899 c 0.03,1.149 0.5,2.097 1.431,2.874 0.925,0.778 2.05,1.155 3.336,1.122 12.59,1.08 25.154,0.755 37.667,-0.99 1.292,-0.033 2.376,-0.47 3.262,-1.293 0.888,-0.824 1.322,-1.796 1.293,-2.943 l -0.102,-3.903 c -0.032,-1.151 -0.519,-2.112 -1.449,-2.901 l 0,0 z"
         id="path1221" />
      <path
         inkscape:connector-curvature="0"
         style="fill:#4cb459"
         d="m 312.027,586.749 c -1.526,-0.414 -3.067,-0.785 -4.622,-1.094 l -26.075,4.598 45.635,3.352 0.255,-0.656 c -2.093,-1.175 -4.276,-2.24 -6.545,-3.195 -2.792,-1.174 -5.669,-2.174 -8.648,-3.005 l 0,0 z"
         id="path1223" />
      <path
         inkscape:connector-curvature="0"
         style="fill:#fdd200"
         d="m 312.433,584.765 -0.406,1.984 c 2.979,0.831 5.856,1.831 8.649,3.004 2.269,0.955 4.453,2.021 6.545,3.195 0.015,0.017 0.047,0.026 0.062,0.043 0.415,0.23 0.847,0.477 1.278,0.724 4.358,2.571 8.338,5.637 11.919,9.196 5.354,5.29 9.519,11.323 12.486,18.121 0.24,0.521 0.467,1.061 0.679,1.615 0.082,0.197 0.163,0.378 0.228,0.56 0.066,0.164 0.132,0.33 0.182,0.493 2.213,5.826 3.402,11.815 3.562,17.969 0.21,7.93 -0.984,15.666 -3.56,23.24 l -0.738,2.008 -0.141,0.379 c -1.716,4.535 -3.949,9.009 -6.699,13.403 -2.372,3.808 -5.141,7.609 -8.301,11.44 l 1.109,-0.425 c 2.15,-0.8 4.205,-2.202 6.201,-4.21 5.277,-5.344 9.302,-11.377 12.084,-18.125 2.724,-6.638 4.213,-13.972 4.502,-21.988 0.293,-8.515 -0.839,-16.494 -3.384,-23.934 -2.301,-6.661 -5.739,-12.862 -10.317,-18.645 -3.247,-4.086 -6.735,-7.559 -10.496,-10.415 -2.726,-2.068 -5.59,-3.796 -8.586,-5.222 -5.222,-2.455 -10.84,-3.915 -16.858,-4.41 l 0,0 z"
         id="path1225" />
      <path
         inkscape:connector-curvature="0"
         style="fill:#4cb459"
         d="m 328.561,593.715 -1.595,-0.11 -11.701,22.302 0.427,0.686 37.131,5.928 0.143,-1.487 c -2.968,-6.798 -7.132,-12.831 -12.486,-18.121 -3.582,-3.561 -7.562,-6.627 -11.919,-9.198 l 0,0 z m -4.087,18.975 c -0.59,-0.636 -0.899,-1.388 -0.921,-2.25 -0.021,-0.864 0.247,-1.614 0.808,-2.235 0.558,-0.619 1.233,-0.929 2.039,-0.92 0.802,-0.004 1.492,0.311 2.087,0.947 0.591,0.636 0.901,1.388 0.92,2.25 0.024,0.863 -0.244,1.615 -0.805,2.237 -0.558,0.621 -1.235,0.928 -2.039,0.935 -0.803,-0.01 -1.494,-0.325 -2.089,-0.964 l 0,0 z"
         id="path1227" />
      <path
         inkscape:connector-curvature="0"
         style="fill:#fdd200"
         d="m 323.553,610.44 c 0.022,0.862 0.331,1.614 0.921,2.25 0.596,0.639 1.286,0.953 2.09,0.964 0.804,-0.007 1.48,-0.313 2.039,-0.935 0.561,-0.622 0.829,-1.374 0.805,-2.237 -0.019,-0.862 -0.33,-1.614 -0.92,-2.25 -0.596,-0.637 -1.285,-0.951 -2.087,-0.947 -0.805,-0.009 -1.48,0.301 -2.039,0.92 -0.562,0.621 -0.83,1.371 -0.809,2.235 l 0,0 z"
         id="path1229" />
      <path
         inkscape:connector-curvature="0"
         style="fill:#fdd200"
         d="m 315.692,616.592 -0.427,-0.686 c -0.365,-0.567 -0.729,-1.134 -1.107,-1.687 -2.194,-3.277 -4.656,-6.292 -7.411,-9.025 -2.693,-2.708 -5.64,-5.057 -8.799,-7.066 -2.792,-1.745 -5.698,-3.218 -8.715,-4.396 -3.232,-1.235 -6.548,-2.148 -9.93,-2.729 -0.38,-0.064 -0.765,-0.114 -1.145,-0.183 l -10.385,1.819 0.072,0.438 c 4.187,0.023 8.205,0.574 12.069,1.623 9.287,2.533 17.606,7.986 24.969,16.38 2.86,3.275 5.363,6.746 7.476,10.378 5.547,9.573 8.469,20.401 8.783,32.496 0.038,1.352 0.042,2.669 0.018,3.991 -0.004,0.47 -0.023,0.926 -0.057,1.379 -0.572,13.499 -4.691,25.242 -12.393,35.255 -0.514,0.65 -1.044,1.299 -1.586,1.952 -1.325,1.599 -2.68,3.072 -4.086,4.443 -4.289,4.165 -8.951,7.318 -13.991,9.5 l 16.747,-6.249 c 2.529,-2.37 4.877,-4.921 7.05,-7.661 1.865,-2.358 3.496,-4.854 4.932,-7.486 l -0.063,-0.012 0.119,-0.079 c 0.229,-0.449 0.46,-0.905 0.692,-1.384 1.587,-3.151 2.895,-6.445 3.927,-9.903 1.046,-3.469 1.893,-6.99 2.544,-10.573 0.623,-3.385 1.034,-6.806 1.261,-10.258 0.066,-1.062 0.096,-2.125 0.099,-3.2 0.004,-0.413 -0.005,-0.821 -0.002,-1.231 -0.006,-0.226 -0.013,-0.451 -0.015,-0.682 -0.005,-0.196 -0.012,-0.379 -0.015,-0.559 -0.07,-1.987 -0.241,-3.953 -0.523,-5.932 -0.507,-3.734 -1.282,-7.399 -2.332,-11.026 -0.954,-3.326 -2.145,-6.57 -3.579,-9.72 -1.241,-2.742 -2.644,-5.391 -4.197,-7.927 l 0,0 z"
         id="path1231" />
      <path
         inkscape:connector-curvature="0"
         style="fill:#9b278a"
         d="m 315.265,615.906 11.701,-22.302 -45.635,-3.352 -3.172,0.567 c 0.38,0.068 0.765,0.118 1.145,0.183 3.382,0.58 6.697,1.493 9.93,2.729 3.017,1.179 5.923,2.651 8.715,4.396 3.16,2.01 6.106,4.358 8.799,7.066 2.754,2.733 5.216,5.748 7.411,9.025 0.377,0.554 0.741,1.121 1.106,1.688 l 0,0 z m 3.226,-15.208 c -0.922,0.16 -1.743,0.077 -2.465,-0.267 -0.722,-0.362 -1.161,-0.866 -1.284,-1.515 -0.122,-0.648 0.09,-1.278 0.635,-1.853 0.545,-0.593 1.279,-0.976 2.187,-1.149 0.918,-0.174 1.724,-0.089 2.445,0.257 0.737,0.358 1.159,0.861 1.285,1.511 0.124,0.665 -0.088,1.292 -0.634,1.866 -0.533,0.594 -1.251,0.973 -2.169,1.15 l 0,0 z"
         id="path1233" />
      <path
         inkscape:connector-curvature="0"
         style="fill:#fdd200"
         d="m 316.026,600.432 c 0.723,0.344 1.543,0.427 2.465,0.267 0.917,-0.178 1.636,-0.557 2.168,-1.149 0.546,-0.574 0.758,-1.201 0.634,-1.866 -0.125,-0.649 -0.547,-1.152 -1.285,-1.511 -0.721,-0.346 -1.527,-0.431 -2.445,-0.257 -0.908,0.174 -1.641,0.557 -2.187,1.149 -0.545,0.574 -0.757,1.204 -0.635,1.853 0.124,0.647 0.563,1.151 1.285,1.514 l 0,0 z"
         id="path1235" />
      <path
         inkscape:connector-curvature="0"
         style="fill:#9b278a"
         d="m 323.466,634.24 c 1.05,3.627 1.825,7.292 2.332,11.023 0.282,1.981 0.453,3.947 0.523,5.935 0.002,0.18 0.009,0.362 0.015,0.559 0.002,0.227 0.009,0.454 0.015,0.682 -0.002,0.41 0.007,0.818 0.002,1.227 -0.002,1.08 -0.032,2.143 -0.099,3.205 -0.228,3.452 -0.638,6.873 -1.261,10.256 -0.651,3.578 -1.498,7.106 -2.544,10.575 -1.032,3.458 -2.34,6.752 -3.927,9.903 l 0.383,0.7 34.271,-21.009 0.141,-0.379 0.738,-2.008 -26.477,-12.562 26.475,-28.647 c -0.05,-0.168 -0.115,-0.329 -0.182,-0.493 -0.065,-0.182 -0.146,-0.362 -0.228,-0.56 l -0.821,-0.128 -37.131,-5.928 c 1.552,2.536 2.956,5.184 4.195,7.929 1.435,3.146 2.626,6.39 3.58,9.72 l 0,0 z m 13.47,-6.845 c -0.028,-1.016 0.27,-1.873 0.901,-2.571 0.637,-0.698 1.431,-1.053 2.356,-1.032 0.926,0.009 1.723,0.365 2.395,1.071 0.668,0.713 1.025,1.568 1.053,2.584 0.025,1.016 -0.283,1.873 -0.919,2.573 -0.634,0.696 -1.413,1.053 -2.338,1.046 -0.925,-0.021 -1.738,-0.379 -2.41,-1.092 -0.673,-0.708 -1.014,-1.562 -1.038,-2.579 l 0,0 z m 10.097,39.153 c -0.09,0.761 -0.393,1.405 -0.908,1.936 -0.517,0.514 -1.087,0.772 -1.708,0.772 -0.621,-0.017 -1.127,-0.288 -1.521,-0.826 -0.363,-0.535 -0.485,-1.184 -0.401,-1.93 0.102,-0.758 0.404,-1.404 0.907,-1.933 0.517,-0.532 1.099,-0.787 1.724,-0.774 0.619,0 1.126,0.273 1.492,0.81 0.377,0.535 0.513,1.185 0.415,1.945 l 0,0 z"
         id="path1237" />
      <path
         inkscape:connector-curvature="0"
         style="fill:#fdd200"
         d="m 337.837,624.823 c -0.631,0.698 -0.929,1.556 -0.901,2.571 0.024,1.018 0.365,1.871 1.038,2.579 0.671,0.713 1.484,1.071 2.41,1.092 0.925,0.007 1.704,-0.35 2.338,-1.046 0.637,-0.7 0.944,-1.558 0.919,-2.573 -0.028,-1.016 -0.385,-1.871 -1.053,-2.584 -0.671,-0.708 -1.468,-1.062 -2.395,-1.071 -0.925,-0.02 -1.719,0.334 -2.356,1.032 l 0,0 z"
         id="path1239" />
      <path
         inkscape:connector-curvature="0"
         style="fill:#fdd200"
         d="m 346.125,668.483 c 0.515,-0.53 0.818,-1.175 0.908,-1.936 0.098,-0.76 -0.039,-1.41 -0.417,-1.945 -0.366,-0.536 -0.873,-0.81 -1.492,-0.81 -0.625,-0.013 -1.207,0.242 -1.724,0.774 -0.503,0.528 -0.806,1.175 -0.907,1.933 -0.084,0.746 0.039,1.395 0.401,1.93 0.394,0.538 0.901,0.81 1.521,0.826 0.623,10e-4 1.193,-0.258 1.71,-0.772 l 0,0 z"
         id="path1241" />
      <path
         inkscape:connector-curvature="0"
         style="fill:#f0ebcb"
         d="m 312.359,621.459 c -2.112,-3.632 -4.611,-7.103 -7.476,-10.378 -7.363,-8.394 -15.682,-13.847 -24.969,-16.38 -3.864,-1.049 -7.882,-1.6 -12.069,-1.623 -0.94,-0.021 -1.881,0.005 -2.821,0.044 -1.651,0.072 -3.285,0.236 -4.871,0.491 -1.368,0.368 -2.709,0.816 -4.031,1.319 -1.438,0.552 -2.848,1.181 -4.225,1.9 -5.552,2.89 -10.628,7.075 -15.218,12.547 -9.794,11.706 -14.473,25.904 -14.036,42.591 0.438,16.688 5.862,30.984 16.276,42.862 9.208,10.511 19.918,16.419 32.146,17.752 1.597,0.153 3.225,0.246 4.876,0.267 1.562,0.002 3.108,-0.054 4.622,-0.17 l 5.237,-1.017 3.245,-1.189 c 5.04,-2.182 9.702,-5.335 13.991,-9.5 1.406,-1.371 2.761,-2.845 4.086,-4.443 0.545,-0.653 1.072,-1.302 1.586,-1.952 7.702,-10.013 11.821,-21.756 12.393,-35.255 0.033,-0.453 0.052,-0.909 0.057,-1.379 0.025,-1.322 0.021,-2.64 -0.018,-3.991 -0.311,-12.095 -3.234,-22.923 -8.781,-32.496 l 0,0 z m -39.725,-7.105 c 0.585,-0.242 1.128,-0.365 1.657,-0.377 l -1.657,0.377 0,0 z m -15.973,16.674 c 0.306,0.037 0.61,0.074 0.913,0.129 0.032,-0.061 0.058,-0.123 0.086,-0.17 l 0.998,0.475 -1.997,-0.434 0,0 z"
         id="path1243" />
      <path
         inkscape:connector-curvature="0"
         style="fill:#4cb459"
         d="m 357.616,641.669 c -0.16,-6.153 -1.349,-12.143 -3.562,-17.969 l -26.475,28.647 26.477,12.562 c 2.576,-7.574 3.77,-15.31 3.56,-23.24 l 0,0 z m -15.055,8.312 c 0.026,0.938 -0.259,1.736 -0.863,2.389 -0.573,0.668 -1.308,0.99 -2.188,0.984 -0.863,-0.008 -1.618,-0.353 -2.24,-1.02 -0.64,-0.669 -0.963,-1.477 -0.99,-2.415 -0.023,-0.958 0.261,-1.751 0.862,-2.418 0.593,-0.655 1.325,-0.977 2.192,-0.97 0.878,0.01 1.628,0.338 2.239,1.003 0.641,0.685 0.965,1.494 0.988,2.447 l 0,0 z"
         id="path1245" />
      <path
         inkscape:connector-curvature="0"
         style="fill:#fdd200"
         d="m 341.698,652.37 c 0.604,-0.652 0.889,-1.45 0.863,-2.389 -0.023,-0.953 -0.347,-1.763 -0.988,-2.446 -0.61,-0.665 -1.36,-0.993 -2.239,-1.003 -0.867,-0.007 -1.599,0.314 -2.192,0.97 -0.601,0.667 -0.885,1.46 -0.862,2.418 0.026,0.938 0.35,1.746 0.99,2.415 0.622,0.667 1.377,1.012 2.24,1.02 0.88,0.005 1.615,-0.317 2.188,-0.985 l 0,0 z"
         id="path1247" />
      <path
         inkscape:connector-curvature="0"
         style="fill:#4cb459"
         d="m 346.478,680.699 c 2.75,-4.395 4.983,-8.868 6.699,-13.399 l -34.271,21.005 -0.349,1.104 12.786,5.289 6.833,-2.559 c 3.161,-3.83 5.929,-7.632 8.302,-11.44 l 0,0 z m -12.469,6.967 c 0.02,0.729 -0.221,1.357 -0.722,1.871 -0.488,0.514 -1.103,0.757 -1.817,0.744 -0.728,0.004 -1.355,-0.268 -1.87,-0.785 -0.515,-0.517 -0.791,-1.146 -0.807,-1.871 -0.02,-0.742 0.22,-1.357 0.705,-1.871 0.491,-0.512 1.106,-0.758 1.835,-0.76 0.71,0.01 1.339,0.283 1.854,0.8 0.529,0.518 0.804,1.133 0.822,1.872 l 0,0 z"
         id="path1249" />
      <path
         inkscape:connector-curvature="0"
         style="fill:#fdd200"
         d="m 333.287,689.537 c 0.501,-0.514 0.742,-1.142 0.722,-1.871 -0.018,-0.739 -0.292,-1.354 -0.822,-1.872 -0.515,-0.517 -1.144,-0.79 -1.854,-0.8 -0.729,0.002 -1.344,0.248 -1.835,0.76 -0.485,0.514 -0.725,1.129 -0.705,1.871 0.016,0.726 0.292,1.354 0.807,1.871 0.515,0.518 1.142,0.789 1.87,0.785 0.714,0.013 1.329,-0.23 1.817,-0.744 l 0,0 z"
         id="path1251" />
      <path
         inkscape:connector-curvature="0"
         style="fill:#9b278a"
         d="m 312.843,696.565 c -2.173,2.74 -4.521,5.291 -7.05,7.661 l 25.549,-9.528 -12.786,-5.294 -0.782,-0.325 c -1.435,2.632 -3.066,5.128 -4.931,7.486 l 0,0 z"
         id="path1253" />
      <path
         inkscape:connector-curvature="0"
         style="fill:#dab400"
         d="m 251.898,596.833 -0.42,-0.945 c -7.376,2.772 -13.937,7.614 -19.716,14.545 -9.807,11.695 -14.485,25.892 -14.05,42.58 0.437,16.687 5.863,30.982 16.292,42.875 10.395,11.873 22.734,17.893 37.009,18.017 l 0.055,-1.319 c -12.229,-1.333 -22.938,-7.241 -32.146,-17.752 -10.415,-11.878 -15.838,-26.174 -16.276,-42.862 -0.437,-16.687 4.242,-30.885 14.036,-42.591 4.588,-5.473 9.664,-9.658 15.216,-12.548 l 0,0 z"
         id="path1255" />
      <path
         inkscape:connector-curvature="0"
         style="fill:none;stroke:#242424;stroke-width:1.05120003;stroke-linecap:round;stroke-linejoin:round;stroke-miterlimit:10"
         d="m 336.936,627.395 c 0.024,1.018 0.365,1.871 1.038,2.579 0.671,0.713 1.484,1.071 2.41,1.092 0.925,0.007 1.704,-0.35 2.338,-1.046 0.637,-0.7 0.944,-1.558 0.919,-2.573 -0.028,-1.016 -0.385,-1.871 -1.053,-2.584 -0.671,-0.708 -1.468,-1.062 -2.395,-1.071 -0.925,-0.021 -1.719,0.334 -2.356,1.032 -0.631,0.697 -0.929,1.555 -0.901,2.571 l 0,0 z m -2.927,60.271 c -0.018,-0.739 -0.292,-1.354 -0.822,-1.872 -0.515,-0.517 -1.144,-0.79 -1.854,-0.8 -0.729,0.002 -1.344,0.248 -1.835,0.76 -0.485,0.514 -0.725,1.129 -0.705,1.871 0.016,0.726 0.292,1.354 0.807,1.871 0.515,0.518 1.142,0.789 1.87,0.785 0.714,0.013 1.329,-0.23 1.817,-0.744 0.501,-0.514 0.741,-1.141 0.722,-1.871 l 0,0 z m -52.678,-97.413 45.635,3.352 -11.701,22.302 m 3.226,-15.209 c 0.917,-0.178 1.636,-0.557 2.168,-1.149 0.546,-0.574 0.758,-1.201 0.634,-1.866 -0.125,-0.649 -0.547,-1.152 -1.285,-1.511 -0.721,-0.346 -1.527,-0.431 -2.445,-0.257 -0.908,0.174 -1.641,0.557 -2.187,1.149 -0.545,0.574 -0.757,1.204 -0.635,1.853 0.124,0.648 0.562,1.152 1.284,1.515 0.724,0.343 1.544,0.426 2.466,0.266 l 0,0 z m -2.799,15.894 37.131,5.928 m -21.48,72.178 -12.786,-5.294 m 35.499,-24.495 -26.477,-12.562 26.475,-28.647 m -35.148,64.605 34.271,-21.009 m -10.616,-17.315 c -0.023,-0.953 -0.347,-1.763 -0.988,-2.446 -0.61,-0.665 -1.36,-0.993 -2.239,-1.003 -0.867,-0.007 -1.599,0.314 -2.192,0.97 -0.601,0.667 -0.885,1.46 -0.862,2.418 0.026,0.938 0.35,1.746 0.99,2.415 0.622,0.667 1.377,1.012 2.24,1.02 0.88,0.006 1.615,-0.316 2.188,-0.984 0.604,-0.653 0.889,-1.451 0.863,-2.39 l 0,0 z m 4.472,16.567 c 0.098,-0.76 -0.039,-1.41 -0.417,-1.945 -0.366,-0.536 -0.873,-0.81 -1.492,-0.81 -0.625,-0.013 -1.207,0.242 -1.724,0.774 -0.503,0.528 -0.806,1.175 -0.907,1.933 -0.084,0.746 0.039,1.395 0.401,1.93 0.394,0.538 0.901,0.81 1.521,0.826 0.622,0 1.191,-0.259 1.708,-0.772 0.517,-0.531 0.82,-1.175 0.91,-1.936 l 0,0 z M 324.474,612.69 c 0.596,0.639 1.286,0.953 2.09,0.964 0.804,-0.007 1.48,-0.313 2.039,-0.935 0.561,-0.622 0.829,-1.374 0.805,-2.237 -0.019,-0.862 -0.33,-1.614 -0.92,-2.25 -0.596,-0.637 -1.285,-0.951 -2.087,-0.947 -0.805,-0.009 -1.48,0.301 -2.039,0.92 -0.561,0.621 -0.829,1.371 -0.808,2.235 0.021,0.863 0.33,1.615 0.92,2.25 l 0,0 z"
         id="path1257" />
      <path
         inkscape:connector-curvature="0"
         style="fill:none;stroke:#242424;stroke-width:2.10240006;stroke-linecap:round;stroke-linejoin:round;stroke-miterlimit:10"
         d="m 317.831,688.986 -0.119,0.081 0.063,0.012 m -11.982,15.148 25.549,-9.528 6.833,-2.559 m -30.77,-106.485 -26.075,4.598 -3.172,0.567 m 10e-4,0 -10.385,1.819 -2.749,0.482 m -4.871,0.492 c -1.368,0.368 -2.709,0.816 -4.031,1.319 m 8.902,-1.81 c -1.651,0.072 -3.285,0.236 -4.871,0.491 m -8.676,2.275 4.646,-0.955 m -0.001,0 c -1.438,0.552 -2.848,1.181 -4.225,1.9 -5.552,2.89 -10.628,7.075 -15.218,12.547 -9.794,11.706 -14.473,25.904 -14.036,42.591 0.438,16.688 5.862,30.984 16.276,42.862 9.208,10.511 19.918,16.419 32.146,17.752 1.597,0.153 3.225,0.246 4.876,0.267 1.562,0.002 3.108,-0.054 4.622,-0.17 m -20.41,-119.069 c -3.004,0.458 -5.897,1.218 -8.676,2.274 m 0,0.001 c -7.376,2.772 -13.937,7.614 -19.716,14.545 -9.807,11.695 -14.485,25.892 -14.05,42.58 0.437,16.687 5.863,30.982 16.292,42.875 10.395,11.873 22.734,17.893 37.009,18.017 3.322,0.019 6.53,-0.261 9.623,-0.872 1.009,-0.209 2.021,-0.447 3.014,-0.717 m -10e-4,-10e-4 c 0.723,-0.203 1.446,-0.419 2.153,-0.65 m 0,0 3.245,-1.189 m -12.528,2.981 4.046,-0.775 m 0,0 c 1.043,-0.102 2.073,-0.22 3.083,-0.366 m 2.154,-0.651 -5.237,1.017 m 46.718,-119.691 c -0.015,-0.017 -0.046,-0.026 -0.062,-0.043 -2.093,-1.175 -4.276,-2.24 -6.545,-3.195 -2.793,-1.173 -5.669,-2.173 -8.649,-3.004 -1.526,-0.414 -3.067,-0.785 -4.622,-1.094 m -18.358,124.821 16.747,-6.249 m 1.611,-118.572 5.027,-0.891 c 6.019,0.495 11.637,1.955 16.857,4.412 2.996,1.426 5.86,3.153 8.586,5.222 3.76,2.856 7.249,6.333 10.496,10.415 4.578,5.782 8.016,11.983 10.317,18.645 2.545,7.439 3.678,15.419 3.384,23.934 -0.29,8.017 -1.779,15.351 -4.502,21.988 -2.782,6.748 -6.807,12.781 -12.084,18.125 -1.996,2.008 -4.05,3.414 -6.201,4.21 l -1.109,0.425 m -9.615,-98.425 -1.595,-0.11 0.317,-0.613 m 0,-10e-4 c 0.415,0.23 0.847,0.477 1.278,0.724 m -50.402,-2.895 c 0.38,0.068 0.765,0.118 1.145,0.183 3.382,0.58 6.697,1.493 9.93,2.729 3.017,1.179 5.923,2.651 8.715,4.396 3.16,2.01 6.106,4.358 8.799,7.066 2.754,2.733 5.216,5.748 7.411,9.025 0.378,0.553 0.742,1.119 1.107,1.687 m 0.426,0.686 c 1.552,2.536 2.956,5.186 4.195,7.929 1.434,3.146 2.625,6.394 3.579,9.72 1.05,3.627 1.825,7.292 2.332,11.023 0.282,1.981 0.453,3.947 0.523,5.935 0.002,0.18 0.009,0.362 0.015,0.559 0.002,0.227 0.009,0.454 0.015,0.682 -0.002,0.41 0.007,0.818 0.002,1.227 -0.002,1.08 -0.032,2.143 -0.099,3.205 -0.228,3.452 -0.638,6.873 -1.261,10.256 -0.651,3.578 -1.498,7.106 -2.544,10.575 -1.032,3.458 -2.34,6.752 -3.927,9.903 -0.231,0.475 -0.463,0.935 -0.692,1.382 m -28.783,21.488 c 5.04,-2.182 9.702,-5.335 13.991,-9.5 1.406,-1.371 2.761,-2.845 4.086,-4.443 0.545,-0.653 1.072,-1.302 1.586,-1.952 7.702,-10.013 11.821,-21.756 12.393,-35.255 0.033,-0.453 0.052,-0.909 0.057,-1.379 0.025,-1.322 0.021,-2.64 -0.018,-3.991 -0.313,-12.095 -3.236,-22.923 -8.783,-32.496 -2.112,-3.632 -4.611,-7.103 -7.476,-10.378 -7.363,-8.394 -15.682,-13.847 -24.969,-16.38 -3.864,-1.049 -7.882,-1.6 -12.069,-1.623 -0.94,-0.021 -1.881,0.005 -2.821,0.044 m 63.537,0.592 c 4.358,2.571 8.338,5.637 11.919,9.196 5.354,5.29 9.519,11.323 12.486,18.121 0.24,0.521 0.467,1.061 0.679,1.615 0.082,0.197 0.163,0.378 0.228,0.56 0.066,0.164 0.132,0.33 0.182,0.493 2.213,5.826 3.402,11.815 3.562,17.969 0.21,7.93 -0.984,15.666 -3.56,23.24 l -0.738,2.008 m -15.143,25.223 c 3.161,-3.831 5.929,-7.633 8.301,-11.44 2.75,-4.395 4.983,-8.868 6.699,-13.399 m -35.401,21.778 c -1.437,2.632 -3.067,5.128 -4.932,7.486 -2.173,2.74 -4.521,5.291 -7.05,7.661 m 12.038,-15.24 c -0.012,0.031 -0.044,0.062 -0.055,0.093"
         id="path1259" />
      <path
         inkscape:connector-curvature="0"
         style="fill:#fdd200"
         d="m 301.032,646.337 c -0.533,-1.759 -3.011,-3.636 -7.429,-5.658 -3.332,-1.537 -7.452,-3.037 -12.39,-4.528 -0.631,-2.7 -1.228,-5.139 -1.801,-7.341 -2.166,-10.349 -4.846,-15.436 -8.044,-15.271 -0.437,0.054 -0.963,0.205 -1.578,0.433 -2.884,2.29 -6.778,8.246 -11.695,17.87 -1.867,-0.011 -3.644,-0.054 -5.343,-0.149 -1.745,-0.044 -3.522,-0.089 -5.342,-0.129 -1.655,0.011 -3.409,0.208 -5.25,0.591 -0.495,0.209 -1.019,0.495 -1.54,0.829 -0.75,0.822 -1.014,1.724 -0.821,2.722 0.376,1.689 1.037,3.247 1.973,4.679 0.994,1.478 2.044,2.861 3.158,4.152 1.077,1.319 2.22,2.564 3.387,3.729 0.944,0.781 1.863,1.727 2.742,2.826 -2.047,4.622 -3.59,8.849 -4.611,12.665 -0.948,3.709 -1.488,6.864 -1.62,9.46 0.219,0.829 0.571,1.472 1.056,1.93 0.598,0.318 1.494,0.445 2.66,0.37 1.285,-0.231 3.812,-1.025 7.613,-2.415 3.531,-1.229 6.268,-2.211 8.232,-2.913 1.17,1.195 2.34,2.486 3.516,3.835 1.34,1.423 2.681,2.736 4.029,3.959 1.566,1.278 3.163,2.525 4.8,3.754 1.39,0.848 2.818,1.581 4.291,2.211 0.903,0.249 1.751,0.273 2.537,0.07 1.023,-0.358 1.796,-0.942 2.334,-1.742 0.219,-0.356 0.362,-0.726 0.428,-1.104 0.527,-1.879 0.735,-3.737 0.625,-5.598 0.055,-2.006 -0.011,-3.974 -0.229,-5.895 -0.088,-1.592 -0.16,-3.135 -0.212,-4.622 0.013,-1.88 0.008,-3.682 -0.021,-5.397 v -0.017 c 0.054,-0.29 0.048,-0.516 0,-0.65 0.625,-0.365 1.178,-0.698 1.639,-1.014 8.5,-4.941 12.812,-8.816 12.906,-11.642 l 0,0 z"
         id="path1261" />
      <path
         inkscape:connector-curvature="0"
         style="fill:none;stroke:#c98f05;stroke-width:2.10240006;stroke-linecap:round;stroke-linejoin:round;stroke-miterlimit:10"
         d="m 301.032,646.337 c -0.094,2.826 -4.406,6.701 -12.909,11.64 -0.46,0.315 -1.013,0.648 -1.639,1.014 0.048,0.135 0.054,0.36 0,0.65 v 0.017 c 0.03,1.716 0.034,3.518 0.021,5.397 0.052,1.487 0.125,3.03 0.212,4.622 0.218,1.921 0.284,3.889 0.229,5.895 0.11,1.86 -0.098,3.719 -0.625,5.598 -0.066,0.379 -0.209,0.748 -0.428,1.104 -0.538,0.8 -1.311,1.384 -2.334,1.742 -0.785,0.203 -1.634,0.179 -2.537,-0.07 -1.473,-0.63 -2.9,-1.363 -4.291,-2.211 -1.637,-1.229 -3.233,-2.476 -4.8,-3.754 -1.348,-1.223 -2.689,-2.536 -4.029,-3.959 -1.176,-1.349 -2.346,-2.64 -3.516,-3.835 -1.965,0.702 -4.701,1.685 -8.232,2.913 -3.801,1.39 -6.328,2.184 -7.613,2.415 -1.166,0.075 -2.062,-0.052 -2.66,-0.37 -0.485,-0.458 -0.837,-1.101 -1.056,-1.93 0.131,-2.596 0.671,-5.751 1.62,-9.46 1.021,-3.816 2.564,-8.043 4.611,-12.665 -0.878,-1.1 -1.798,-2.045 -2.742,-2.826 -1.167,-1.164 -2.31,-2.409 -3.387,-3.729 -1.114,-1.295 -2.164,-2.675 -3.158,-4.152 -0.936,-1.432 -1.596,-2.989 -1.973,-4.679 -0.193,-0.998 0.069,-1.899 0.821,-2.722 0.521,-0.334 1.045,-0.62 1.54,-0.829 1.84,-0.383 3.594,-0.58 5.25,-0.591 1.82,0.04 3.597,0.085 5.342,0.129 1.7,0.096 3.477,0.139 5.343,0.149 4.917,-9.624 8.811,-15.58 11.695,-17.87 0.615,-0.228 1.141,-0.379 1.578,-0.433 3.198,-0.164 5.878,4.923 8.044,15.271 0.573,2.202 1.17,4.641 1.801,7.341 4.938,1.491 9.059,2.991 12.39,4.528 4.421,2.024 6.9,3.901 7.432,5.66 l 0,0 z"
         id="path1263" />
      <path
         inkscape:connector-curvature="0"
         style="fill:#eda1c1"
         d="m 206.028,716.74 c 2.506,-2.762 5.504,-5.021 9.018,-6.756 -2.402,-0.257 -4.409,-0.247 -6.016,0.052 -2.86,1.564 -5.22,3.294 -7.086,5.211 l 4.084,1.493 0,0 z"
         id="path1265" />
      <path
         inkscape:connector-curvature="0"
         style="fill:#df5d91"
         d="m 215.046,709.984 c -3.514,1.734 -6.512,3.994 -9.018,6.756 l -4.084,-1.493 c 1.866,-1.917 4.227,-3.646 7.086,-5.211 l -0.083,0.041 -4.521,-2.531 c -3.384,2.006 -6.015,3.107 -7.885,3.312 l -4.639,-3.425 c -3.886,2.109 -6.219,4.898 -6.984,8.354 4.211,5.508 8.724,9.396 13.527,11.667 6.254,0.885 11.457,0.949 15.625,0.218 2.164,-0.388 4.019,-1.127 5.534,-2.207 1.659,-1.181 2.874,-2.725 3.666,-4.633 0.798,-1.92 0.975,-3.684 0.527,-5.287 -0.422,-1.524 -1.363,-2.791 -2.829,-3.816 -1.511,-0.935 -3.47,-1.512 -5.922,-1.745 l 0,0 z"
         id="path1267" />
      <path
         inkscape:connector-curvature="0"
         style="fill:none;stroke:#970f45;stroke-width:2.29500008;stroke-linecap:round;stroke-miterlimit:10"
         d="m 215.046,709.984 c -3.514,1.734 -6.512,3.994 -9.018,6.756 l -4.084,-1.493 c 1.866,-1.917 4.23,-3.646 7.086,-5.211 1.607,-0.299 3.614,-0.308 6.016,-0.052 l 0,0 z m -6.099,0.091 -4.521,-2.529 c -3.384,2.006 -6.015,3.107 -7.885,3.312 l -4.635,-3.425 c -3.891,2.109 -6.223,4.898 -6.989,8.354 4.211,5.508 8.724,9.396 13.527,11.667 6.254,0.885 11.457,0.949 15.625,0.218 2.164,-0.388 4.019,-1.127 5.534,-2.207 1.659,-1.181 2.874,-2.725 3.666,-4.633 0.798,-1.92 0.975,-3.684 0.527,-5.287 -0.422,-1.524 -1.363,-2.791 -2.829,-3.816 -1.506,-0.935 -3.468,-1.512 -5.92,-1.744"
         id="path1269" />
      <path
         inkscape:connector-curvature="0"
         style="fill:#f18900"
         d="m 200.637,668.626 1.417,-11.345 c 14.024,8.119 27.25,12.516 39.691,13.185 2.464,4.483 2.046,8.325 -1.264,11.518 -12.284,-1.167 -25.569,-5.618 -39.844,-13.358 l 0,0 z"
         id="path1271" />
      <path
         inkscape:connector-curvature="0"
         style="fill:none;stroke:#d04215;stroke-width:2.12140012;stroke-linecap:square;stroke-miterlimit:10"
         d="m 202.054,657.281 c 14.024,8.119 27.25,12.516 39.691,13.185 2.464,4.483 2.046,8.325 -1.264,11.518 -12.284,-1.166 -25.569,-5.617 -39.844,-13.357 l 1.417,-11.346 0,0 z"
         id="path1273" />
      <path
         inkscape:connector-curvature="0"
         style="fill:#eda1c1"
         d="m 224.707,667.335 c -2.17,3.057 -2.939,6.672 -2.311,10.801 -7.138,-2.269 -14.382,-5.446 -21.759,-9.51 l 1.417,-11.345 c 8.091,4.444 15.633,7.796 22.653,10.054 l 0,0 z"
         id="path1275" />
      <path
         inkscape:connector-curvature="0"
         style="fill:none;stroke:#df5d91;stroke-width:2.12140012;stroke-linecap:square;stroke-miterlimit:10"
         d="m 222.396,678.136 c -7.138,-2.269 -14.382,-5.446 -21.759,-9.51 l 1.417,-11.345 c 8.091,4.443 15.633,7.796 22.653,10.054 -2.17,3.057 -2.939,6.672 -2.311,10.801 l 0,0 z"
         id="path1277" />
      <polygon
         style="fill:#eda1c1"
         points="198.101,665.816 199.524,657.254 199.524,657.256 203.144,659.284 202.077,667.992 "
         id="polygon1279" />
      <path
         inkscape:connector-curvature="0"
         style="fill:#d39300"
         d="m 269.954,649.146 c 0.511,-0.562 1.046,-0.586 1.62,-0.066 l 1.921,1.747 c 0.582,0.528 0.619,1.075 0.108,1.637 l -35.12,38.632 c -0.52,0.569 -1.066,0.586 -1.648,0.056 l -1.92,-1.747 c -0.575,-0.518 -0.6,-1.054 -0.079,-1.626 l 35.118,-38.633 0,0 z"
         id="path1281" />
      <path
         inkscape:connector-curvature="0"
         style="fill:none;stroke:#a15314;stroke-width:2.10389996;stroke-linecap:round;stroke-linejoin:round;stroke-miterlimit:10"
         d="m 269.954,649.146 -35.118,38.632 c -0.521,0.572 -0.497,1.108 0.079,1.626 l 1.92,1.747 c 0.582,0.53 1.128,0.514 1.648,-0.056 l 35.12,-38.632 c 0.511,-0.562 0.474,-1.108 -0.108,-1.637 l -1.921,-1.747 c -0.574,-0.518 -1.109,-0.494 -1.62,0.067 l 0,0 z"
         id="path1283" />
      <path
         inkscape:connector-curvature="0"
         style="fill:#fbf8d4"
         d="m 260.047,643.689 5.42,-5.959 c 3.562,-3.922 7.313,-4.1 11.243,-0.525 l 8.093,7.356 c 3.917,3.563 4.094,7.312 0.535,11.229 l -5.417,5.965 c -3.564,3.918 -7.313,4.094 -11.231,0.534 l -8.095,-7.358 c -3.929,-3.572 -4.109,-7.326 -0.548,-11.242 l 0,0 z"
         id="path1285" />
      <path
         inkscape:connector-curvature="0"
         style="fill:none;stroke:#b5c639;stroke-width:2.10389996;stroke-linecap:round;stroke-linejoin:round;stroke-miterlimit:10"
         d="m 260.047,643.689 c -3.561,3.916 -3.382,7.67 0.549,11.242 l 8.095,7.358 c 3.917,3.56 7.667,3.384 11.231,-0.534 l 5.417,-5.965 c 3.56,-3.918 3.383,-7.666 -0.535,-11.229 l -8.093,-7.356 c -3.93,-3.574 -7.681,-3.396 -11.243,0.525 l -5.421,5.959 0,0 z"
         id="path1287" />
      <path
         inkscape:connector-curvature="0"
         style="fill:#efe589"
         d="m 274.134,642.469 c 0.298,-0.32 0.834,-0.368 1.606,-0.139 0.743,0.243 1.493,0.702 2.256,1.396 0.754,0.682 1.281,1.391 1.594,2.104 0.318,0.758 0.321,1.297 0.023,1.622 -0.317,0.348 -0.858,0.404 -1.625,0.143 -0.751,-0.234 -1.503,-0.691 -2.258,-1.373 -0.763,-0.696 -1.291,-1.401 -1.592,-2.13 -0.323,-0.724 -0.318,-1.273 -0.004,-1.623 l 0,0 z"
         id="path1289" />
      <path
         inkscape:connector-curvature="0"
         style="fill:none;stroke:#b5c639;stroke-width:2.10389996;stroke-linecap:round;stroke-linejoin:round;stroke-miterlimit:10"
         d="m 275.741,642.33 c 0.743,0.243 1.493,0.702 2.256,1.396 0.754,0.682 1.281,1.391 1.594,2.104 0.318,0.758 0.321,1.297 0.023,1.622 -0.317,0.348 -0.858,0.404 -1.625,0.143 -0.751,-0.234 -1.503,-0.691 -2.258,-1.373 -0.763,-0.696 -1.291,-1.401 -1.592,-2.126 -0.324,-0.728 -0.319,-1.276 -0.004,-1.627 0.297,-0.321 0.833,-0.368 1.606,-0.139 l 0,0 z"
         id="path1291" />
      <path
         inkscape:connector-curvature="0"
         style="fill:#d04215"
         d="m 245.139,691.997 c -1.979,-0.408 -4.191,-1.536 -6.672,-3.359 -2.48,-1.814 -4.17,-4.234 -5.04,-7.236 l 2.903,-0.521 c 0.678,2.145 1.869,3.941 3.543,5.387 1.509,1.291 3.126,2.083 4.846,2.375 3.172,0.553 5.866,-0.234 8.085,-2.368 l 0.299,-0.342 0.517,-0.046 c 4.183,-0.816 6.221,-2.486 6.099,-5.026 l 0.008,-1.289 0.983,-0.397 c 1.398,-0.578 2.333,-1.312 2.78,-2.194 0.311,-0.613 0.323,-1.599 0.076,-2.958 -0.647,-2.372 -5.083,-4.217 -13.332,-5.553 l -1.151,-0.066 -0.281,-0.719 3.48,-0.748 c 3.827,-0.586 8.041,0.632 12.614,3.667 2.493,2.335 2.977,5.006 1.417,7.979 -0.569,1.26 -1.666,2.305 -3.297,3.12 0.017,3.645 -2.775,6.05 -8.366,7.221 -2.992,2.747 -6.164,3.777 -9.511,3.073 l 0,0 z"
         id="path1293" />
      <path
         inkscape:connector-curvature="0"
         style="fill:#f18900"
         d="m 244.719,688.643 c -1.72,-0.292 -3.337,-1.084 -4.846,-2.375 -1.674,-1.445 -2.865,-3.242 -3.543,-5.387 l -0.59,-1.685 5.781,-8.182 3.21,-3.772 c 2.396,-2.555 5.187,-2.973 8.337,-1.227 l -0.786,0.92 -3.48,0.748 0.281,0.719 1.151,0.066 c 8.249,1.336 12.685,3.181 13.332,5.553 0.247,1.359 0.234,2.345 -0.076,2.958 -0.448,0.883 -1.382,1.616 -2.78,2.194 l -0.983,0.397 -0.008,1.289 c 0.123,2.54 -1.916,4.21 -6.099,5.026 l -0.517,0.046 -0.299,0.342 c -2.219,2.135 -4.912,2.922 -8.085,2.37 l 0,0 z"
         id="path1295" />
      <path
         inkscape:connector-curvature="0"
         style="fill:#d04215"
         d="m 244.732,667.242 -3.21,3.772 -2.511,-0.679 c 0.115,-0.347 0.766,-1.314 1.965,-2.933 0.601,-0.802 1.188,-1.572 1.756,-2.328 1.895,-1.98 3.78,-3.094 5.668,-3.327 1.904,-0.247 4.028,0.362 6.368,1.829 0.044,-0.017 0.148,0.066 0.311,0.238 l -2.01,2.2 c -3.151,-1.744 -5.941,-1.326 -8.337,1.228 l 0,0 z"
         id="path1297" />
    </g>
  </g>
</svg>
