<?xml version="1.0" encoding="UTF-8" standalone="no"?>
<!-- Created with Inkscape (http://www.inkscape.org/) -->

<svg
   xmlns:dc="http://purl.org/dc/elements/1.1/"
   xmlns:cc="http://creativecommons.org/ns#"
   xmlns:rdf="http://www.w3.org/1999/02/22-rdf-syntax-ns#"
   xmlns:svg="http://www.w3.org/2000/svg"
   xmlns="http://www.w3.org/2000/svg"
   xmlns:sodipodi="http://sodipodi.sourceforge.net/DTD/sodipodi-0.dtd"
   xmlns:inkscape="http://www.inkscape.org/namespaces/inkscape"
   width="141.41266"
   height="187.46184"
   id="svg5696"
   version="1.1"
   inkscape:version="0.48.4 r9939"
   sodipodi:docname="ernie6.svg">
  <defs
     id="defs5698">
    <clipPath
       id="SVGID_2_">
      <rect
         height="88.862999"
         width="111.498"
         y="518.96198"
         x="382.04999"
         id="use1087" />
    </clipPath>
    <clipPath
       id="SVGID_4_">
      <rect
         height="41.314999"
         width="49.584999"
         y="525.19397"
         x="389.84698"
         id="use1111" />
    </clipPath>
  </defs>
  <sodipodi:namedview
     id="base"
     pagecolor="#ffffff"
     bordercolor="#666666"
     borderopacity="1.0"
     inkscape:pageopacity="0.0"
     inkscape:pageshadow="2"
     inkscape:zoom="0.77472527"
     inkscape:cx="62.228967"
     inkscape:cy="127.82706"
     inkscape:current-layer="layer1"
     inkscape:document-units="px"
     showgrid="false"
     inkscape:window-width="763"
     inkscape:window-height="591"
     inkscape:window-x="592"
     inkscape:window-y="97"
     inkscape:window-maximized="0"
     fit-margin-top="0"
     fit-margin-left="0"
     fit-margin-right="0"
     fit-margin-bottom="0" />
  <metadata
     id="metadata5701">
    <rdf:RDF>
      <cc:Work
         rdf:about="">
        <dc:format>image/svg+xml</dc:format>
        <dc:type
           rdf:resource="http://purl.org/dc/dcmitype/StillImage" />
        <dc:title></dc:title>
      </cc:Work>
    </rdf:RDF>
  </metadata>
  <g
     id="layer1"
     inkscape:label="Layer 1"
     inkscape:groupmode="layer"
     transform="translate(-255.71432,-25.47159)">
    <g
       transform="translate(-8.6484027,-281.55941)"
       id="g417">
      <path
         inkscape:connector-curvature="0"
         style="fill:#f49c00"
         d="m 301.62,420.597 c 1.075,0.356 1.873,1.24 2.375,2.646 0.513,1.408 -1.123,3.704 -4.916,6.877 l -1.467,0.456 c -6.443,0.8 -10.388,-1.053 -11.843,-5.558 -2.499,-6.222 -0.319,-10.935 6.555,-14.146 l 9.296,9.725 z m -0.138,1.132 0.409,-0.64 -0.015,-0.036 c -0.116,0.197 -0.248,0.426 -0.394,0.676"
         id="path419" />
      <path
         inkscape:connector-curvature="0"
         style="fill:#f18900"
         d="m 301.891,421.09 -0.409,0.64 c 0.146,-0.25 0.278,-0.479 0.394,-0.676 l 0.015,0.036 z"
         id="path421" />
      <path
         inkscape:connector-curvature="0"
         style="fill:#e83434"
         d="m 297.612,430.575 -0.669,2.406 c -7.189,0.945 -11.682,-1.243 -13.473,-6.539 l 2.299,-1.425 c 1.455,4.505 5.4,6.358 11.843,5.558"
         id="path423" />
      <path
         inkscape:connector-curvature="0"
         style="fill:#e83434"
         d="m 291.177,424.979 c 0.006,0.025 0.003,0.036 0.002,0.046 0.393,1.182 0.239,2.266 -0.453,3.28 -0.957,1.222 -2.252,2.076 -3.895,2.561 -1.213,0.327 -2.371,0.39 -3.446,0.17 -1.733,-0.38 -3.167,-1.295 -4.293,-2.749 -0.645,-0.9 -0.984,-1.925 -1.008,-3.052 0.032,-0.636 0.118,-1.205 0.263,-1.709 0.917,-2.191 2.974,-3.474 6.166,-3.84 0.396,0.437 0.634,0.65 0.716,0.641 l -1.544,0.902 c -1.88,0.993 -2.93,2.289 -3.129,3.907 0.029,0.83 0.35,1.55 0.957,2.147 0.208,0.198 0.407,0.37 0.613,0.507 l 0.073,0.038 0.018,0.025 c 1.241,0.845 2.666,1.022 4.254,0.529 1.63,-0.6 2.41,-1.404 2.343,-2.414 -0.226,-1.472 -1.639,-2.383 -4.223,-2.75 l 0.01,-1.581 1.486,-0.108 c 2.7,-0.036 4.404,1.118 5.09,3.45 l 0,0 z"
         id="path425" />
      <polygon
         style="fill:#d04215"
         points="291.187,424.98 291.177,424.979 291.179,424.956 "
         id="polygon427" />
      <path
         inkscape:connector-curvature="0"
         style="fill:#0076bf"
         d="m 285.244,420.307 -0.015,0.02 0.015,-0.02 z"
         id="path429" />
      <path
         inkscape:connector-curvature="0"
         style="fill:#f49c00"
         d="m 285.229,420.326 0.015,-0.02 c 0.545,0.759 0.819,1.161 0.843,1.223 l -1.486,0.108 -0.01,1.581 c 2.584,0.367 3.997,1.278 4.223,2.75 0.067,1.01 -0.713,1.814 -2.343,2.414 -1.588,0.493 -3.013,0.315 -4.254,-0.529 l -0.018,-0.025 -0.073,-0.038 c -0.205,-0.137 -0.405,-0.309 -0.613,-0.507 -0.606,-0.598 -0.928,-1.317 -0.957,-2.147 0.199,-1.618 1.249,-2.914 3.129,-3.907 l 1.544,-0.903 z"
         id="path431" />
      <path
         inkscape:connector-curvature="0"
         style="fill:#e83434"
         d="m 288.833,413.614 -0.714,2.396 -1.843,-1.006 c -1.793,-1.032 -4.305,-2.155 -7.524,-3.354 -2.521,-0.929 -4.222,-0.443 -5.112,1.454 -0.523,1.365 -0.323,2.523 0.618,3.456 0.998,0.916 2.525,1.628 4.578,2.155 2.601,0.795 5.412,1.314 8.407,1.559 l -0.085,1.419 c -2.99,0.329 -5.729,0.256 -8.228,-0.21 -2.984,-0.643 -5.144,-1.612 -6.486,-2.934 -1.715,-1.684 -2.202,-3.833 -1.462,-6.454 l 0.032,-0.121 0.062,-0.083 c 1.656,-3.346 4.531,-4.259 8.634,-2.725 3.113,1.149 6.159,2.628 9.123,4.448"
         id="path433" />
      <path
         inkscape:connector-curvature="0"
         style="fill:#f49c00"
         d="m 287.243,420.274 c -2.995,-0.244 -5.806,-0.764 -8.407,-1.559 -2.053,-0.527 -3.58,-1.239 -4.578,-2.155 -0.941,-0.933 -1.141,-2.091 -0.618,-3.456 0.89,-1.897 2.591,-2.383 5.112,-1.454 3.219,1.199 5.731,2.322 7.524,3.354 l 1.843,1.006 -0.876,4.264 z"
         id="path435" />
      <path
         inkscape:connector-curvature="0"
         style="fill:#f49c00"
         d="m 279.961,404.398 c 1.302,-1.826 2.984,-2.533 5.055,-2.118 4.024,0.8 7.444,4.027 10.235,9.682 l -6.522,4.042 c -0.967,-2.427 -2.799,-4.164 -5.485,-5.203 -1.759,-0.499 -2.916,-1.365 -3.493,-2.6 -0.563,-1.186 -0.491,-2.458 0.21,-3.803"
         id="path437" />
      <path
         inkscape:connector-curvature="0"
         style="fill:none;stroke:#e83927;stroke-width:2.25900006;stroke-linecap:square;stroke-linejoin:round;stroke-miterlimit:10"
         d="m 295.251,411.962 c -2.791,-5.654 -6.211,-8.882 -10.235,-9.682 -2.071,-0.415 -3.753,0.292 -5.055,2.118 -0.702,1.345 -0.773,2.616 -0.21,3.803 0.577,1.234 1.734,2.101 3.493,2.6 2.686,1.039 4.518,2.776 5.485,5.203"
         id="path439" />
      <rect
         x="269.85901"
         y="374.16299"
         transform="matrix(-0.9972,-0.0753,0.0753,-0.9972,529.2876,782.3024)"
         style="fill:#ffffff"
         width="19.068001"
         height="14.018"
         id="rect441" />
      <path
         inkscape:connector-curvature="0"
         style="fill:#f39500"
         d="m 281.101,422.324 c 0.584,0.045 1.042,0.281 1.371,0.691 0.353,0.411 0.476,0.895 0.365,1.45 l -10e-4,0.022 c -0.109,0.558 -0.415,1.01 -0.916,1.355 -0.48,0.348 -1.011,0.511 -1.596,0.469 l -6.404,-0.484 c -0.584,-0.043 -1.041,-0.282 -1.394,-0.692 -0.331,-0.411 -0.43,-0.893 -0.321,-1.45 l 0.001,-0.021 c 0.111,-0.558 0.393,-1.011 0.871,-1.36 0.502,-0.346 1.035,-0.508 1.619,-0.464 l 6.405,0.484 z"
         id="path443" />
      <path
         inkscape:connector-curvature="0"
         style="fill:none;stroke:#c24616;stroke-width:1.57799995;stroke-linecap:round;stroke-linejoin:round;stroke-miterlimit:10"
         d="m 281.101,422.324 -6.405,-0.483 c -0.584,-0.044 -1.117,0.118 -1.619,0.464 -0.478,0.35 -0.76,0.803 -0.871,1.36 l -0.001,0.021 c -0.109,0.558 -0.01,1.039 0.321,1.45 0.353,0.41 0.81,0.649 1.394,0.692 l 6.404,0.484 c 0.585,0.042 1.116,-0.121 1.596,-0.469 0.501,-0.346 0.807,-0.798 0.916,-1.355 l 10e-4,-0.022 c 0.111,-0.556 -0.012,-1.039 -0.365,-1.45 -0.329,-0.411 -0.787,-0.647 -1.371,-0.692 z"
         id="path445" />
      <path
         inkscape:connector-curvature="0"
         style="fill:#f39500"
         d="m 278.607,422.724 c 0.592,-0.339 1.19,-0.499 1.797,-0.452 l 6.742,0.509 0.314,0.025 c 0.608,0.045 1.154,0.29 1.62,0.708 0.487,0.42 0.744,0.917 0.791,1.484 l 0.021,0.022 c 0.048,0.571 -0.122,1.032 -0.51,1.385 -0.367,0.357 -0.876,0.522 -1.485,0.478 l -9.056,-0.684 c -0.582,-0.066 -1.018,-0.278 -1.282,-0.684 -0.308,-0.409 -0.339,-0.887 -0.139,-1.436 0.221,-0.546 0.619,-1.014 1.187,-1.355"
         id="path447" />
      <path
         inkscape:connector-curvature="0"
         style="fill:none;stroke:#c24616;stroke-width:1.57799995;stroke-linecap:round;stroke-linejoin:round;stroke-miterlimit:10"
         d="m 287.146,422.78 -6.742,-0.509 c -0.607,-0.047 -1.205,0.113 -1.797,0.452 -0.568,0.342 -0.966,0.81 -1.187,1.356 -0.2,0.549 -0.169,1.026 0.139,1.436 0.264,0.405 0.7,0.617 1.282,0.684 l 9.056,0.684 c 0.609,0.045 1.118,-0.12 1.485,-0.478 0.388,-0.353 0.558,-0.813 0.51,-1.385 l -0.021,-0.022 c -0.047,-0.567 -0.304,-1.064 -0.791,-1.484 -0.466,-0.418 -1.012,-0.663 -1.62,-0.708"
         id="path449" />
      <path
         inkscape:connector-curvature="0"
         style="fill:#fdee00"
         d="m 275.788,369.937 c 0.238,-0.727 0.693,-1.372 1.387,-1.883 0.935,-0.721 2.043,-1.022 3.279,-0.928 1.236,0.094 2.286,0.557 3.104,1.409 0.61,0.611 0.963,1.317 1.064,2.07 3.16,0.939 5.063,2.688 5.683,5.267 0.895,3.705 1.624,7.219 2.209,10.541 0.586,3.299 -0.555,6.174 -3.452,8.599 -1.28,1.079 -2.629,1.881 -4.07,2.405 l -0.177,2.358 c 4.788,0.34 9.091,2.021 12.908,5.045 0.299,-0.07 0.58,-0.184 0.862,-0.32 2.873,-1.84 4.063,-0.53 3.57,3.886 -0.495,4.46 -2.452,8.246 -5.854,11.403 -3.377,3.11 -8.175,4.376 -14.388,3.75 -6.191,-0.627 -10.361,-2.568 -12.487,-5.826 -2.128,-3.279 -2.747,-6.738 -1.861,-10.402 0.861,-3.618 2.02,-6.108 3.48,-7.466 0.024,-0.021 0.073,-0.062 0.099,-0.128 l 0.254,-3.349 c -1.347,-0.735 -2.56,-1.73 -3.642,-2.967 -2.497,-2.831 -3.197,-5.846 -2.12,-9.019 1.077,-3.197 2.324,-6.561 3.768,-10.091 0.998,-2.454 3.119,-3.898 6.384,-4.354 -0.087,0.265 -0.132,0.556 -0.153,0.848 -0.084,1.102 0.297,2.056 1.114,2.91 0.819,0.83 1.868,1.292 3.104,1.388 0.697,0.051 1.358,-0.012 1.961,-0.215 -2.067,-1.67 -2.194,-2.969 -0.406,-3.918 -1.788,0.949 -1.661,2.248 0.406,3.918 -0.603,0.203 -1.264,0.266 -1.961,0.215 -1.236,-0.096 -2.285,-0.558 -3.104,-1.388 -0.817,-0.854 -1.198,-1.808 -1.114,-2.91 0.021,-0.292 0.066,-0.583 0.153,-0.848 m -0.212,6.109 c -1.078,-0.08 -2.041,0.389 -2.887,1.432 -0.77,0.915 -1.219,2.079 -1.371,3.468 -0.007,0.114 -0.016,0.225 -0.025,0.339 -0.115,1.528 0.146,2.859 0.808,3.97 0.602,1.017 1.346,1.64 2.258,1.82 l 0.787,0.06 c 0.908,-0.045 1.737,-0.547 2.461,-1.464 0.845,-0.999 1.325,-2.273 1.441,-3.801 0.007,-0.112 0.016,-0.226 0.003,-0.34 0.082,-1.394 -0.21,-2.615 -0.856,-3.636 -0.659,-1.156 -1.54,-1.764 -2.619,-1.848 m 8.361,0.633 c -1.078,-0.082 -2.041,0.387 -2.866,1.433 -0.769,0.914 -1.241,2.076 -1.413,3.464 -0.01,0.112 -0.019,0.226 -0.026,0.337 -0.116,1.528 0.167,2.861 0.852,3.975 0.578,1.016 1.323,1.637 2.236,1.818 l 0.765,0.059 c 0.929,-0.043 1.759,-0.546 2.506,-1.461 0.821,-1 1.302,-2.274 1.417,-3.803 0.008,-0.111 0.016,-0.225 0.025,-0.337 0.038,-1.398 -0.233,-2.618 -0.857,-3.636 -0.68,-1.159 -1.561,-1.767 -2.639,-1.849"
         id="path451" />
      <path
         inkscape:connector-curvature="0"
         style="fill:#cac200"
         d="m 272.689,377.478 c 0.846,-1.043 1.809,-1.512 2.887,-1.432 1.079,0.084 1.96,0.692 2.619,1.849 0.646,1.02 0.938,2.241 0.856,3.635 0.013,0.114 0.004,0.228 -0.003,0.34 -0.116,1.527 -0.596,2.802 -1.441,3.801 -0.724,0.917 -1.553,1.419 -2.461,1.464 l -0.787,-0.06 c -0.912,-0.181 -1.656,-0.804 -2.258,-1.82 -0.662,-1.11 -0.923,-2.441 -0.808,-3.97 0.009,-0.114 0.018,-0.225 0.025,-0.339 0.152,-1.389 0.601,-2.553 1.371,-3.468 m 5.82,4.35 c 0.007,-0.111 0.014,-0.201 -0.002,-0.293 0.068,-1.192 -0.191,-2.253 -0.736,-3.13 -0.579,-0.993 -1.33,-1.525 -2.253,-1.594 -0.921,-0.07 -1.764,0.341 -2.489,1.237 -0.669,0.785 -1.062,1.795 -1.197,2.982 -0.007,0.09 -0.013,0.18 -0.021,0.293 -0.1,1.326 0.132,2.45 0.713,3.422 0.5,0.873 1.16,1.397 1.939,1.569 l 0.334,0.049 0.339,0.002 c 0.796,-0.055 1.505,-0.474 2.13,-1.264 0.722,-0.871 1.142,-1.947 1.243,-3.273"
         id="path453" />
      <path
         inkscape:connector-curvature="0"
         style="fill:#cac200"
         d="m 281.071,378.112 c 0.825,-1.046 1.788,-1.515 2.866,-1.433 1.078,0.082 1.959,0.69 2.639,1.849 0.624,1.018 0.895,2.238 0.857,3.636 -0.009,0.112 -0.017,0.226 -0.025,0.337 -0.115,1.528 -0.596,2.803 -1.417,3.803 -0.748,0.915 -1.577,1.418 -2.506,1.461 l -0.765,-0.059 c -0.913,-0.182 -1.658,-0.803 -2.236,-1.818 -0.685,-1.113 -0.968,-2.446 -0.852,-3.975 0.007,-0.111 0.016,-0.225 0.026,-0.337 0.172,-1.388 0.644,-2.55 1.413,-3.464 m -0.877,3.551 c -0.009,0.089 -0.015,0.178 -0.023,0.291 -0.1,1.326 0.153,2.453 0.736,3.424 0.5,0.873 1.138,1.396 1.916,1.568 l 0.335,0.047 0.338,0.004 c 0.796,-0.053 1.506,-0.473 2.153,-1.262 0.72,-0.871 1.118,-1.949 1.219,-3.275 0.007,-0.113 0.015,-0.201 0.022,-0.293 0.044,-1.193 -0.191,-2.251 -0.734,-3.129 -0.583,-0.993 -1.355,-1.525 -2.276,-1.595 -0.923,-0.071 -1.744,0.343 -2.468,1.238 -0.669,0.786 -1.084,1.793 -1.218,2.982"
         id="path455" />
      <path
         inkscape:connector-curvature="0"
         style="fill:none;stroke:#daa700;stroke-width:1.57799995;stroke-linecap:round;stroke-linejoin:round;stroke-miterlimit:10"
         d="m 281.408,370.95 c -1.788,0.949 -1.661,2.248 0.406,3.918 -0.603,0.203 -1.264,0.266 -1.961,0.215 -1.236,-0.096 -2.285,-0.558 -3.104,-1.388 -0.817,-0.854 -1.198,-1.808 -1.114,-2.91 0.021,-0.292 0.066,-0.583 0.153,-0.848 0.238,-0.727 0.693,-1.372 1.387,-1.883 0.935,-0.721 2.043,-1.022 3.279,-0.928 1.236,0.094 2.286,0.557 3.104,1.409 0.61,0.611 0.963,1.317 1.064,2.07 3.16,0.939 5.063,2.688 5.683,5.267 0.895,3.705 1.624,7.219 2.209,10.541 0.586,3.299 -0.555,6.174 -3.452,8.599 -1.28,1.079 -2.629,1.881 -4.07,2.405 l -0.177,2.358 c 4.788,0.34 9.091,2.021 12.908,5.045 0.299,-0.07 0.58,-0.184 0.862,-0.32 2.873,-1.84 4.063,-0.53 3.57,3.886 -0.495,4.46 -2.452,8.246 -5.854,11.403 -3.377,3.11 -8.175,4.376 -14.388,3.75 -6.191,-0.627 -10.361,-2.568 -12.487,-5.826 -2.128,-3.279 -2.747,-6.738 -1.861,-10.402 0.861,-3.618 2.02,-6.108 3.48,-7.466 0.024,-0.021 0.073,-0.062 0.099,-0.128 l 0.254,-3.349 c -1.347,-0.735 -2.56,-1.73 -3.642,-2.967 -2.497,-2.831 -3.197,-5.846 -2.12,-9.019 1.077,-3.197 2.324,-6.561 3.768,-10.091 0.998,-2.455 3.119,-3.899 6.384,-4.355 l 5.62,1.014 z"
         id="path457" />
      <path
         inkscape:connector-curvature="0"
         d="m 286.609,379.909 c 0.229,0.854 0.259,1.647 0.05,2.331 -0.214,0.73 -0.585,1.154 -1.14,1.315 -0.553,0.162 -1.106,-0.016 -1.655,-0.508 -0.554,-0.472 -0.955,-1.158 -1.183,-2.012 -0.252,-0.855 -0.26,-1.624 -0.049,-2.332 0.189,-0.709 0.559,-1.133 1.114,-1.294 0.555,-0.161 1.107,0.016 1.682,0.489 0.527,0.492 0.928,1.157 1.181,2.011"
         id="path459" />
      <path
         inkscape:connector-curvature="0"
         d="m 278.226,379.274 c 0.229,0.856 0.259,1.649 0.049,2.334 -0.212,0.729 -0.584,1.153 -1.137,1.315 -0.556,0.162 -1.107,-0.016 -1.658,-0.51 -0.551,-0.471 -0.952,-1.155 -1.182,-2.01 -0.252,-0.854 -0.263,-1.625 -0.05,-2.332 0.19,-0.709 0.56,-1.133 1.115,-1.295 0.555,-0.161 1.107,0.018 1.681,0.489 0.528,0.492 0.929,1.156 1.182,2.009"
         id="path461" />
      <path
         inkscape:connector-curvature="0"
         style="fill:#f39500"
         d="m 282.002,387.042 c 0.449,0.328 0.879,0.632 1.31,0.913 0.287,0.089 0.553,0.153 0.794,0.239 0.334,0.071 0.711,0.191 1.126,0.357 0.178,0.037 0.333,0.094 0.437,0.215 0.405,0.323 0.549,0.81 0.477,1.459 -0.066,0.582 -0.196,1.092 -0.433,1.549 -0.234,0.39 -0.549,0.682 -0.926,0.881 -0.396,0.174 -0.792,0.302 -1.163,0.432 -0.392,0.105 -0.806,0.21 -1.223,0.336 -0.439,0.125 -0.876,0.229 -1.335,0.328 -0.251,0.05 -0.504,0.076 -0.756,0.125 -0.136,0.013 -0.274,0.047 -0.437,0.103 -0.388,0.062 -0.798,0.099 -1.183,0.091 -0.022,-10e-4 -0.066,-0.004 -0.112,-0.009 l -0.067,-0.003 c -0.045,-0.004 -0.09,-0.008 -0.135,-0.012 l -0.044,-0.002 c -0.046,-0.004 -0.09,-0.008 -0.136,-0.011 -0.022,-0.002 -0.044,-0.003 -0.066,-0.006 -0.046,-0.003 -0.09,-0.006 -0.115,-0.008 -0.401,-0.054 -0.779,-0.149 -1.153,-0.269 -0.153,-0.079 -0.306,-0.137 -0.441,-0.168 -0.241,-0.086 -0.462,-0.147 -0.703,-0.234 -0.462,-0.17 -0.879,-0.338 -1.294,-0.527 -0.394,-0.188 -0.765,-0.352 -1.136,-0.516 -0.371,-0.186 -0.719,-0.37 -1.087,-0.602 -0.364,-0.252 -0.609,-0.588 -0.782,-1.008 -0.167,-0.488 -0.24,-1.011 -0.218,-1.6 0.027,-0.653 0.265,-1.109 0.668,-1.373 0.121,-0.104 0.304,-0.135 0.509,-0.142 0.391,-0.106 0.78,-0.168 1.166,-0.184 0.252,-0.049 0.525,-0.074 0.801,-0.12 0.49,-0.212 0.96,-0.448 1.432,-0.706 0.4,-0.219 0.82,-0.391 1.213,-0.495 0.393,-0.13 0.806,-0.211 1.191,-0.227 0.16,-0.012 0.364,-0.019 0.568,-0.025 0.068,0.005 0.133,0.01 0.202,0.016 0.021,0 0.021,0 0.045,0.003 0.067,0.005 0.134,0.011 0.203,0.015 0.199,0.039 0.379,0.073 0.534,0.109 0.401,0.074 0.775,0.216 1.144,0.402 0.393,0.167 0.761,0.397 1.125,0.674"
         id="path463" />
      <path
         inkscape:connector-curvature="0"
         style="fill:none;stroke:#c24616;stroke-width:1.12699997;stroke-linecap:round;stroke-linejoin:round;stroke-miterlimit:10"
         d="m 282.002,387.042 c -0.364,-0.277 -0.732,-0.507 -1.125,-0.672 -0.369,-0.187 -0.743,-0.328 -1.144,-0.402 -0.155,-0.036 -0.335,-0.07 -0.534,-0.109 -0.069,-0.004 -0.136,-0.01 -0.203,-0.015 -0.024,-0.003 -0.024,-0.003 -0.045,-0.003 -0.069,-0.006 -0.134,-0.011 -0.202,-0.016 -0.204,0.007 -0.408,0.014 -0.568,0.025 -0.385,0.016 -0.798,0.097 -1.191,0.227 -0.393,0.104 -0.813,0.276 -1.213,0.495 -0.472,0.258 -0.942,0.494 -1.432,0.706 -0.276,0.046 -0.549,0.071 -0.801,0.12 -0.386,0.016 -0.775,0.077 -1.166,0.184 -0.205,0.007 -0.388,0.038 -0.509,0.142 -0.403,0.264 -0.641,0.72 -0.668,1.373 -0.022,0.589 0.051,1.111 0.218,1.6 0.173,0.42 0.418,0.756 0.782,1.008 0.368,0.231 0.715,0.416 1.087,0.602 0.37,0.164 0.742,0.327 1.136,0.516 0.415,0.189 0.831,0.357 1.293,0.527 0.242,0.087 0.462,0.148 0.704,0.234 0.135,0.031 0.288,0.089 0.441,0.168 0.374,0.119 0.752,0.215 1.153,0.269 0.025,0.002 0.069,0.005 0.115,0.008 0.022,0.003 0.044,0.004 0.066,0.006 0.046,0.003 0.09,0.007 0.136,0.011 l 0.044,0.002 c 0.045,0.004 0.09,0.008 0.135,0.012 l 0.067,0.003 c 0.046,0.005 0.09,0.008 0.112,0.009 0.385,0.008 0.795,-0.029 1.183,-0.091 0.163,-0.056 0.301,-0.09 0.437,-0.103 0.252,-0.049 0.502,-0.075 0.756,-0.125 0.459,-0.1 0.896,-0.203 1.335,-0.328 0.417,-0.126 0.831,-0.23 1.223,-0.336 0.371,-0.13 0.767,-0.258 1.163,-0.432 0.377,-0.199 0.692,-0.491 0.926,-0.881 0.237,-0.457 0.367,-0.967 0.433,-1.549 0.072,-0.649 -0.072,-1.136 -0.477,-1.459 -0.104,-0.121 -0.259,-0.178 -0.437,-0.215 -0.415,-0.166 -0.792,-0.286 -1.126,-0.357 -0.241,-0.086 -0.508,-0.15 -0.794,-0.239 -0.431,-0.283 -0.861,-0.587 -1.31,-0.915 z m 1.801,3.392 c -1.11,0.615 -2.247,1.007 -3.435,1.187 -0.526,0.074 -1.071,0.124 -1.612,0.104 -0.045,-0.002 -0.09,-0.006 -0.116,0.015 -0.111,-0.03 -0.221,-0.038 -0.335,-0.047 -0.536,-0.063 -1.07,-0.194 -1.578,-0.347 -1.148,-0.357 -2.215,-0.912 -3.218,-1.688"
         id="path465" />
      <path
         inkscape:connector-curvature="0"
         style="fill:none;stroke:#daa700;stroke-width:1.57799995;stroke-linecap:round;stroke-linejoin:round;stroke-miterlimit:10"
         d="m 294.77,412.214 c 0.125,-0.148 0.247,-0.275 0.346,-0.403 0.69,-0.741 0.918,-1.378 0.667,-1.938 -0.212,-0.49 -0.753,-0.78 -1.604,-0.913 -10e-4,0.023 -0.003,0.045 -0.029,0.089 -0.419,0.465 -0.949,0.876 -1.584,1.237 -0.214,0.118 -0.429,0.262 -0.664,0.4 m -3.599,-5.312 c 1.032,0.102 1.943,0.6 2.711,1.494 0.648,-0.201 1.266,-0.289 1.853,-0.291 1.019,-0.013 1.634,0.214 1.893,0.686 0.211,0.491 0.031,1.064 -0.581,1.696 m -0.632,4.18 c 0.474,-0.283 0.881,-0.59 1.223,-0.925 1.601,0.347 1.552,1.292 -0.125,2.86 -1.724,1.565 -3.738,2.497 -6.067,2.797 -2.345,0.253 -4.277,-0.21 -5.793,-1.387 -1.562,-1.18 -2.259,-2.727 -2.093,-4.609 0.103,-1.961 1.025,-3.699 2.745,-5.24 0.22,-0.189 0.458,-0.373 0.699,-0.56"
         id="path467" />
      <path
         inkscape:connector-curvature="0"
         style="fill:none;stroke:#fef481;stroke-width:1.352;stroke-linecap:round;stroke-linejoin:round;stroke-miterlimit:10"
         d="m 288.138,416.234 c -0.296,0.023 -0.567,0.023 -0.862,0.024 -1.375,-0.035 -2.537,-0.508 -3.485,-1.417 -0.975,-0.863 -1.441,-1.895 -1.42,-3.067 0.023,-0.88 0.31,-1.717 0.887,-2.466"
         id="path469" />
      <path
         inkscape:connector-curvature="0"
         style="fill:none;stroke:#fef7aa;stroke-width:1.352;stroke-linecap:round;stroke-linejoin:round;stroke-miterlimit:10"
         d="m 285.849,401.64 c 2.755,0.321 5.137,1.112 7.146,2.348"
         id="path471" />
      <path
         inkscape:connector-curvature="0"
         style="fill:none;stroke:#fef481;stroke-width:1.80299997;stroke-linecap:round;stroke-linejoin:round;stroke-miterlimit:10"
         d="m 269.317,411.354 c -0.229,-3.249 0.69,-6.435 2.712,-9.583"
         id="path473" />
      <path
         inkscape:connector-curvature="0"
         style="fill:none;stroke:#fffbd3;stroke-width:1.80299997;stroke-linecap:round;stroke-linejoin:round;stroke-miterlimit:10"
         d="m 298.288,406.919 1.908,-1.01 c -0.031,2.508 -0.269,4.162 -0.711,4.92"
         id="path475" />
      <path
         inkscape:connector-curvature="0"
         style="fill:none;stroke:#fef7aa;stroke-width:1.352;stroke-linecap:round;stroke-linejoin:round;stroke-miterlimit:10"
         d="m 266.893,386.873 c -0.074,2.481 1.22,4.815 3.924,7.011"
         id="path477" />
      <path
         inkscape:connector-curvature="0"
         style="fill:none;stroke:#fffbd3;stroke-width:1.352;stroke-linecap:round;stroke-linejoin:round;stroke-miterlimit:10"
         d="m 284.309,372.345 c 2.685,0.971 4.111,2.435 4.279,4.39"
         id="path479" />
      <path
         inkscape:connector-curvature="0"
         style="fill:none;stroke:#fffbd3;stroke-width:1.80299997;stroke-linecap:round;stroke-linejoin:round;stroke-miterlimit:10"
         d="m 277.664,370.849 c 0.242,-1.09 0.987,-1.69 2.214,-1.8"
         id="path481" />
      <path
         inkscape:connector-curvature="0"
         style="fill:#e83434"
         d="m 303.232,426.057 -1.488,-0.543 c 1.84,-4.6 2.032,-8.488 0.586,-11.662 -0.624,-1.229 -1.486,-2.078 -2.563,-2.541 -1.038,-0.432 -2.199,-0.483 -3.473,-0.142 l -0.08,0.008 c -0.455,0.105 -0.942,0.273 -1.451,0.495 -1.76,1.161 -2.126,2.543 -1.097,4.156 0.91,0.763 2.501,0.523 4.766,-0.713 l 1.262,0.723 c -0.416,0.421 -0.824,0.786 -1.213,1.108 -0.506,1.54 -0.685,3.297 -0.512,5.276 l -1.23,0.152 c -0.607,-0.93 -0.917,-2.186 -0.953,-3.765 l -0.585,0.198 c -0.05,0.025 -0.099,0.041 -0.155,0.043 -1.033,0.199 -1.946,-0.029 -2.758,-0.696 -0.841,-0.834 -1.426,-1.829 -1.751,-2.997 -0.363,-1.346 -0.237,-2.473 0.369,-3.387 1.297,-1.804 3.317,-2.945 6.049,-3.424 3.484,-0.324 6.046,1.298 7.703,4.899 1.668,4.611 1.191,8.886 -1.426,12.812"
         id="path483" />
      <path
         inkscape:connector-curvature="0"
         style="fill:#f49c00"
         d="m 301.744,425.514 -3.588,-1.321 -0.187,-1.97 c -0.173,-1.979 0.006,-3.736 0.512,-5.276 0.389,-0.322 0.797,-0.688 1.213,-1.108 l -1.262,-0.723 c -2.265,1.236 -3.856,1.476 -4.766,0.713 -1.029,-1.613 -0.663,-2.995 1.097,-4.156 0.509,-0.222 0.996,-0.39 1.451,-0.495 l 0.08,-0.008 c 1.274,-0.342 2.435,-0.29 3.472,0.142 1.078,0.463 1.94,1.312 2.564,2.541 1.446,3.172 1.254,7.061 -0.586,11.661"
         id="path485" />
      <path
         inkscape:connector-curvature="0"
         style="fill:#fedb00"
         d="m 309.092,420.362 c 3.283,0.366 6.04,-0.506 8.284,-2.617 l 0.13,0.119 6.973,17.28 c -4.132,2.948 -8.554,4.421 -13.301,4.432 l -2.186,-18.287 0.1,-0.927 z"
         id="path487" />
      <path
         inkscape:connector-curvature="0"
         style="fill:#e83827"
         d="m 309.092,420.362 -0.1,0.927 2.186,18.287 c -5.425,0.015 -11.248,-1.882 -17.465,-5.704 l 10.504,-14.797 c 1.737,0.696 3.367,1.126 4.875,1.287"
         id="path489" />
      <path
         inkscape:connector-curvature="0"
         style="fill:#0076bf"
         d="m 317.506,417.864 -0.13,-0.119 c 2.157,-2.024 3.829,-5.196 5.023,-9.498 9.256,0.481 13.566,5.373 12.913,14.683 -3.338,5.36 -6.946,9.443 -10.833,12.215 l -6.973,-17.281 z"
         id="path491" />
      <path
         inkscape:connector-curvature="0"
         style="fill:none;stroke:#fcdf00;stroke-width:0.26699999;stroke-linecap:square;stroke-linejoin:round;stroke-miterlimit:10"
         d="m 324.479,435.145 -6.973,-17.28 m -6.303,21.884 -0.025,-0.173 -2.186,-18.287"
         id="path493" />
      <path
         inkscape:connector-curvature="0"
         style="fill:none;stroke:#003c90;stroke-width:2.13800001;stroke-linecap:square;stroke-linejoin:round;stroke-miterlimit:10"
         d="m 322.399,408.247 c -1.194,4.302 -2.866,7.474 -5.023,9.498 -2.244,2.111 -5.001,2.983 -8.284,2.617 -1.508,-0.161 -3.138,-0.591 -4.875,-1.287 l -10.504,14.797 c 6.217,3.822 12.04,5.719 17.465,5.704 4.747,-0.011 9.169,-1.483 13.301,-4.432 3.887,-2.771 7.495,-6.854 10.833,-12.215"
         id="path495" />
      <path
         inkscape:connector-curvature="0"
         style="fill:#e83434"
         d="m 335.721,477.806 c -0.059,-0.301 -0.143,-0.522 -0.258,-0.678 -2.906,-3.01 -5.973,-6.732 -9.195,-11.142 -0.061,-0.067 -0.121,-0.135 -0.195,-0.226 -0.408,-0.364 -0.807,-0.781 -1.194,-1.252 -0.014,-0.021 -0.029,-0.043 -0.053,-0.057 -0.716,-0.717 -1.428,-1.421 -2.142,-2.109 -0.047,-0.046 -0.096,-0.075 -0.144,-0.124 -0.571,-0.472 -1.097,-0.942 -1.588,-1.405 -0.058,-0.04 -0.129,-0.102 -0.21,-0.157 -0.017,-0.002 -0.024,-0.015 -0.043,-0.017 -2.052,-1.644 -3.82,-2.688 -5.329,-3.13 -2.459,-1.066 -5.171,-0.52 -8.147,1.64 -0.014,0.025 -0.046,0.046 -0.093,0.092 -0.025,-0.016 -0.069,0.014 -0.147,0.082 -0.047,0.046 -0.084,0.085 -0.144,0.109 -0.711,0.822 -1.261,1.555 -1.669,2.224 -0.04,0.057 -0.215,0.357 -0.542,0.912 -0.337,0.545 -0.511,1.569 -0.533,3.064 -0.011,1.506 0.343,2.537 1.072,3.107 0.141,-0.046 0.3,-0.182 0.471,-0.434 l 0.313,-0.205 c 0.175,0.008 0.275,0.064 0.307,0.184 l -0.349,-1.561 c 0.028,-0.405 0.248,-0.656 0.624,-0.766 0.366,-0.102 0.945,-0.111 1.731,-0.042 7.133,1.111 12.729,8.754 16.781,22.937 -0.109,0.397 -0.091,0.568 0.061,0.516 0.4,0.139 1.396,-0.27 2.992,-1.243 2.522,-1.396 5.039,-4.562 7.541,-9.509 0.077,-0.282 0.113,-0.553 0.082,-0.81 m -7.262,0.333 c 0.026,-0.031 0.064,-0.043 0.104,-0.053 0.025,-0.031 0.057,-0.053 0.104,-0.101 0.347,-0.243 0.738,-0.237 1.191,0.005 0.445,0.231 0.802,0.659 1.075,1.284 0.265,0.61 0.352,1.262 0.262,1.972 -0.143,0.695 -0.456,1.227 -0.935,1.556 -0.054,0.035 -0.108,0.07 -0.141,0.093 -0.029,0.003 -0.05,0.018 -0.083,0.038 -0.009,0.007 -0.031,0.021 -0.045,0.047 -0.428,0.267 -0.832,0.237 -1.229,-0.088 -0.253,-0.22 -0.466,-0.496 -0.632,-0.864 l -0.112,-0.267 c -0.043,-0.109 -0.081,-0.239 -0.101,-0.365 -0.018,-0.003 -0.015,-0.021 -0.012,-0.038 0.005,-0.018 0.005,-0.018 -0.002,-0.029 -0.039,-0.129 -0.071,-0.246 -0.073,-0.369 l -0.031,-0.21 c -0.069,-0.479 -0.058,-0.935 0.022,-1.374 0.093,-0.633 0.301,-1.047 0.638,-1.237 m -2.697,-8.347 c -0.033,0.161 -0.134,0.148 -0.296,-0.052 -0.533,-0.716 -1.029,-1.331 -1.479,-1.852 -0.155,-1.147 -0.479,-2.416 -0.989,-3.824 0.515,0.526 1.052,1.084 1.602,1.662 0.146,0.197 0.298,0.358 0.449,0.492 0.562,1.867 0.791,3.058 0.713,3.574 m -10.23,-10.723 c 0.007,0.011 0.033,0.025 0.072,0.015 1.435,0.398 3.103,1.339 4.995,2.811 0.137,0.14 0.255,0.248 0.367,0.299 0.052,0.058 0.109,0.096 0.148,0.133 1.18,2.448 1.39,4.718 0.645,6.797 l 0.006,0.01 c -0.402,0.681 -0.723,1.248 -0.979,1.678 3.702,5.278 6.127,10.397 7.244,15.354 -0.651,0.537 -1.182,0.855 -1.594,0.957 -0.104,0.006 -0.186,-10e-4 -0.255,-0.034 l 0.005,-0.019 c -2.552,-8.056 -4.989,-13.382 -7.312,-15.974 -2.32,-2.593 -4.533,-4.361 -6.612,-5.294 -1.374,-0.608 -2.479,-1.023 -3.339,-1.229 -1.203,-0.303 -2.225,-0.312 -3.068,-0.019 l -0.111,-0.098 c -0.006,-0.01 -0.021,-0.033 -0.028,-0.041 -0.021,-0.035 -0.01,-0.088 0.01,-0.177 0.007,-0.622 0.372,-1.356 1.113,-2.199 0.372,-0.444 0.851,-0.913 1.429,-1.418 0.183,-0.12 0.326,-0.23 0.41,-0.314 2.292,-1.631 4.581,-2.041 6.854,-1.238"
         id="path497" />
      <path
         inkscape:connector-curvature="0"
         style="fill:#ffffff"
         d="m 328.667,477.985 c -0.047,0.048 -0.079,0.069 -0.104,0.101 -0.313,0.251 -0.537,0.662 -0.676,1.247 -0.115,0.461 -0.146,0.93 -0.088,1.416 l 0.031,0.21 c 0.002,0.123 0.034,0.24 0.073,0.369 0.007,0.012 0.007,0.012 0.002,0.029 -0.003,0.017 -0.006,0.035 0.012,0.038 0.02,0.126 0.058,0.256 0.101,0.367 l 0.112,0.265 c 0.177,0.361 0.411,0.624 0.707,0.815 0.386,0.238 0.78,0.272 1.199,0.09 0.033,-0.021 0.054,-0.035 0.083,-0.038 0.033,-0.022 0.087,-0.058 0.141,-0.093 0.479,-0.329 0.792,-0.86 0.935,-1.556 0.09,-0.71 0.003,-1.361 -0.262,-1.972 -0.273,-0.625 -0.63,-1.053 -1.075,-1.284 -0.453,-0.241 -0.844,-0.247 -1.191,-0.004"
         id="path499" />
      <path
         inkscape:connector-curvature="0"
         style="fill:#ffffff"
         d="m 325.466,469.74 c 0.162,0.2 0.263,0.213 0.296,0.052 0.078,-0.516 -0.151,-1.707 -0.715,-3.573 -0.149,-0.134 -0.301,-0.295 -0.447,-0.492 -0.55,-0.578 -1.087,-1.136 -1.602,-1.662 0.51,1.408 0.834,2.677 0.989,3.824 0.45,0.52 0.946,1.135 1.479,1.851"
         id="path501" />
      <path
         inkscape:connector-curvature="0"
         style="fill:#ffffff"
         d="m 315.604,459.084 c -0.039,0.011 -0.065,-0.004 -0.072,-0.015 -2.273,-0.804 -4.562,-0.394 -6.853,1.237 -0.083,0.084 -0.228,0.194 -0.411,0.314 -0.578,0.505 -1.057,0.974 -1.429,1.418 -0.741,0.843 -1.106,1.577 -1.113,2.199 -0.02,0.089 -0.031,0.142 -0.01,0.177 0.008,0.008 0.022,0.031 0.03,0.041 l 0.109,0.098 c 0.843,-0.293 1.865,-0.284 3.068,0.019 0.86,0.206 1.965,0.621 3.339,1.229 2.079,0.933 4.292,2.701 6.613,5.294 2.322,2.592 4.759,7.918 7.311,15.974 l -0.005,0.019 c 0.069,0.033 0.151,0.04 0.255,0.034 0.412,-0.102 0.943,-0.42 1.594,-0.957 -1.116,-4.957 -3.541,-10.076 -7.244,-15.354 0.256,-0.43 0.578,-0.997 0.979,-1.678 l -0.006,-0.01 c 0.745,-2.079 0.535,-4.349 -0.644,-6.797 -0.04,-0.037 -0.097,-0.075 -0.149,-0.133 -0.112,-0.051 -0.23,-0.159 -0.367,-0.299 -1.892,-1.471 -3.56,-2.412 -4.995,-2.81"
         id="path503" />
      <path
         inkscape:connector-curvature="0"
         style="fill:#b6b7b8"
         d="m 308.264,465.917 c -0.786,-0.069 -1.365,-0.06 -1.731,0.042 -0.376,0.109 -0.596,0.36 -0.624,0.766 l 0.349,1.561 c -0.032,-0.119 -0.132,-0.176 -0.307,-0.184 l -0.313,0.205 c 0.804,1.572 1.955,3.605 3.459,6.104 2.94,4.823 6.053,8.5 9.366,11.027 3.305,2.516 5.491,3.657 6.581,3.416 -4.051,-14.183 -9.647,-21.826 -16.78,-22.937"
         id="path505" />
      <path
         inkscape:connector-curvature="0"
         style="fill:none;stroke:#e83927;stroke-width:1.54700005;stroke-linecap:round;stroke-linejoin:round;stroke-miterlimit:10"
         d="m 325.044,488.854 c -1.09,0.241 -3.276,-0.9 -6.581,-3.416 -3.313,-2.527 -6.426,-6.204 -9.366,-11.027 -1.504,-2.498 -2.655,-4.531 -3.459,-6.104"
         id="path507" />
      <path
         inkscape:connector-curvature="0"
         style="fill:#e83434"
         d="m 340.837,415.053 c -0.116,-0.299 -0.165,-0.539 -0.148,-0.737 0.873,-4.258 1.49,-9.228 1.865,-14.884 0.014,-0.093 0.029,-0.187 0.044,-0.308 0.157,-0.546 0.273,-1.133 0.352,-1.76 0,-0.026 0,-0.054 0.013,-0.079 0.231,-1.027 0.462,-2.042 0.707,-3.041 0.014,-0.067 0.042,-0.12 0.057,-0.187 0.239,-0.732 0.438,-1.439 0.61,-2.119 0.028,-0.065 0.056,-0.158 0.098,-0.253 0.013,-0.013 0.013,-0.026 0.028,-0.039 0.885,-2.583 1.854,-4.481 2.93,-5.708 1.566,-2.303 4.247,-3.33 8.056,-3.093 0.028,0.015 0.067,0.015 0.135,0.029 0.013,-0.027 0.066,-0.026 0.174,-0.011 0.066,0.014 0.121,0.03 0.186,0.018 1.079,0.325 1.97,0.66 2.702,1.021 0.066,0.027 0.383,0.193 0.981,0.498 0.598,0.291 1.321,1.093 2.169,2.392 0.848,1.312 1.112,2.415 0.79,3.319 -0.148,0.037 -0.363,0.006 -0.656,-0.118 l -0.387,-0.007 c -0.15,0.104 -0.205,0.211 -0.165,0.332 l -0.563,-1.561 c -0.25,-0.34 -0.583,-0.438 -0.973,-0.326 -0.377,0.115 -0.89,0.428 -1.541,0.927 -5.638,4.939 -6.294,14.754 -1.958,29.442 0.315,0.285 0.393,0.448 0.232,0.486 -0.274,0.343 -1.375,0.538 -3.316,0.573 -2.988,0.178 -6.954,-1.199 -11.898,-4.145 -0.225,-0.203 -0.409,-0.419 -0.524,-0.661 m 6.553,-3.748 c -0.04,-0.015 -0.079,0 -0.119,0.012 -0.042,-0.014 -0.082,-0.016 -0.148,-0.029 -0.441,-0.021 -0.78,0.202 -1.042,0.665 -0.261,0.451 -0.337,1.026 -0.228,1.723 0.109,0.686 0.392,1.307 0.865,1.878 0.513,0.528 1.084,0.819 1.686,0.843 0.068,0.002 0.134,0.002 0.174,0.002 0.027,-0.013 0.054,-0.013 0.094,-0.011 0.013,0 0.04,0.001 0.066,0.014 0.522,-0.005 0.861,-0.254 1.03,-0.758 0.1,-0.336 0.134,-0.695 0.072,-1.111 l -0.049,-0.296 c -0.024,-0.121 -0.062,-0.255 -0.113,-0.376 0.014,-0.014 0,-0.025 -0.014,-0.041 -0.012,-0.014 -0.012,-0.014 -0.012,-0.026 -0.038,-0.134 -0.076,-0.255 -0.141,-0.363 l -0.09,-0.202 c -0.208,-0.459 -0.469,-0.853 -0.784,-1.19 -0.434,-0.507 -0.846,-0.754 -1.247,-0.734 m -2.276,-8.819 c 0.118,0.123 0.198,0.057 0.23,-0.21 0.069,-0.923 0.163,-1.738 0.27,-2.444 -0.507,-1.094 -0.927,-2.387 -1.263,-3.904 -0.159,0.748 -0.319,1.535 -0.481,2.349 -0.016,0.254 -0.061,0.481 -0.117,0.68 0.543,1.949 1.005,3.122 1.361,3.529 m 3.006,-15.09 c -10e-4,0.014 -0.015,0.039 -0.056,0.054 -1.035,1.146 -1.973,2.898 -2.817,5.239 -0.043,0.2 -0.085,0.36 -0.153,0.466 -0.017,0.08 -0.043,0.148 -0.058,0.201 0.33,2.802 1.406,4.908 3.216,6.317 v 0.012 c 0.729,0.375 1.326,0.691 1.79,0.928 -0.31,6.688 0.41,12.523 2.188,17.49 0.87,0.108 1.512,0.095 1.929,-0.049 0.095,-0.052 0.163,-0.101 0.203,-0.17 l -0.012,-0.013 c -2.243,-8.483 -3.067,-14.509 -2.473,-18.071 0.594,-3.564 1.55,-6.347 2.854,-8.319 0.865,-1.296 1.604,-2.275 2.245,-2.934 0.886,-0.938 1.778,-1.512 2.677,-1.723 l 0.044,-0.147 c 0,-0.013 0.002,-0.04 0.002,-0.054 0,-0.039 -0.04,-0.081 -0.107,-0.148 -0.351,-0.54 -1.08,-0.981 -2.199,-1.308 -0.572,-0.185 -1.253,-0.33 -2.041,-0.448 -0.228,-0.006 -0.416,-0.021 -0.535,-0.051 -2.915,-0.153 -5.153,0.76 -6.697,2.728"
         id="path509" />
      <path
         inkscape:connector-curvature="0"
         style="fill:#ffffff"
         d="m 347.123,411.287 c 0.066,0.014 0.106,0.016 0.148,0.029 0.412,0.048 0.837,0.282 1.286,0.718 0.355,0.34 0.642,0.733 0.864,1.192 l 0.09,0.202 c 0.065,0.108 0.103,0.229 0.141,0.363 0,0.013 0,0.013 0.012,0.026 0.014,0.016 0.028,0.027 0.014,0.041 0.051,0.121 0.089,0.255 0.113,0.376 l 0.049,0.296 c 0.047,0.416 -0.013,0.775 -0.165,1.109 -0.208,0.424 -0.533,0.672 -1.003,0.746 -0.04,-0.002 -0.067,-0.002 -0.094,0.011 -0.04,0 -0.106,0 -0.174,-0.002 -0.602,-0.023 -1.173,-0.314 -1.686,-0.843 -0.473,-0.571 -0.756,-1.192 -0.865,-1.878 -0.109,-0.696 -0.033,-1.271 0.228,-1.723 0.262,-0.461 0.601,-0.683 1.042,-0.663"
         id="path511" />
      <path
         inkscape:connector-curvature="0"
         style="fill:#ffffff"
         d="m 345.344,402.276 c -0.032,0.267 -0.112,0.333 -0.23,0.21 -0.356,-0.407 -0.818,-1.58 -1.361,-3.53 0.056,-0.198 0.101,-0.426 0.117,-0.68 0.162,-0.813 0.322,-1.601 0.481,-2.349 0.336,1.518 0.756,2.811 1.263,3.904 -0.107,0.707 -0.201,1.523 -0.27,2.445"
         id="path513" />
      <path
         inkscape:connector-curvature="0"
         style="fill:#ffffff"
         d="m 348.064,387.45 c 0.041,-0.015 0.055,-0.04 0.056,-0.054 1.544,-1.969 3.782,-2.882 6.697,-2.728 0.119,0.029 0.307,0.045 0.535,0.051 0.788,0.118 1.469,0.264 2.041,0.448 1.119,0.326 1.848,0.768 2.199,1.308 0.067,0.067 0.107,0.109 0.107,0.148 0,0.014 -0.002,0.041 -0.002,0.054 l -0.044,0.147 c -0.899,0.211 -1.791,0.785 -2.677,1.723 -0.641,0.658 -1.38,1.638 -2.245,2.934 -1.304,1.973 -2.26,4.755 -2.854,8.319 -0.593,3.562 0.23,9.588 2.473,18.071 l 0.012,0.013 c -0.04,0.069 -0.108,0.118 -0.203,0.17 -0.417,0.144 -1.059,0.157 -1.929,0.049 -1.778,-4.967 -2.498,-10.802 -2.188,-17.49 -0.464,-0.236 -1.061,-0.553 -1.79,-0.928 v -0.012 c -1.81,-1.409 -2.886,-3.516 -3.216,-6.317 0.015,-0.053 0.041,-0.121 0.058,-0.201 0.068,-0.105 0.11,-0.266 0.153,-0.466 0.844,-2.34 1.782,-4.092 2.817,-5.239"
         id="path515" />
      <path
         inkscape:connector-curvature="0"
         style="fill:#b6b7b8"
         d="m 358.301,389.359 c 0.651,-0.499 1.164,-0.812 1.541,-0.927 0.39,-0.112 0.723,-0.014 0.973,0.326 l 0.563,1.561 c -0.04,-0.121 0.015,-0.228 0.165,-0.332 l 0.387,0.007 c 0.172,1.823 0.293,4.248 0.364,7.273 0.102,5.866 -0.581,10.82 -2.079,14.878 -1.501,4.045 -2.782,6.259 -3.872,6.656 -4.336,-14.688 -3.68,-24.502 1.958,-29.442"
         id="path517" />
      <path
         inkscape:connector-curvature="0"
         style="fill:none;stroke:#e83927;stroke-width:1.60599995;stroke-linecap:round;stroke-linejoin:round;stroke-miterlimit:10"
         d="m 356.343,418.802 c 1.09,-0.397 2.371,-2.611 3.872,-6.656 1.498,-4.058 2.181,-9.012 2.079,-14.878 -0.071,-3.025 -0.191,-5.45 -0.364,-7.273"
         id="path519" />
      <path
         inkscape:connector-curvature="0"
         style="fill:#e83434"
         d="m 340.837,415.053 c -0.116,-0.299 -0.165,-0.539 -0.148,-0.737 0.873,-4.258 1.49,-9.228 1.865,-14.884 0.014,-0.093 0.029,-0.187 0.044,-0.308 0.157,-0.546 0.273,-1.133 0.352,-1.76 0,-0.026 0,-0.054 0.013,-0.079 0.231,-1.027 0.462,-2.042 0.707,-3.041 0.014,-0.067 0.042,-0.12 0.057,-0.187 0.239,-0.732 0.438,-1.439 0.61,-2.119 0.028,-0.065 0.056,-0.158 0.098,-0.253 0.013,-0.013 0.013,-0.026 0.028,-0.039 0.885,-2.583 1.854,-4.481 2.93,-5.708 1.566,-2.303 4.247,-3.33 8.056,-3.093 0.028,0.015 0.067,0.015 0.135,0.029 0.013,-0.027 0.066,-0.026 0.174,-0.011 0.066,0.014 0.121,0.03 0.186,0.018 1.079,0.325 1.97,0.66 2.702,1.021 0.066,0.027 0.383,0.193 0.981,0.498 0.598,0.291 1.321,1.093 2.169,2.392 0.848,1.312 1.112,2.415 0.79,3.319 -0.148,0.037 -0.363,0.006 -0.656,-0.118 l -0.387,-0.007 c -0.15,0.104 -0.205,0.211 -0.165,0.332 l -0.563,-1.561 c -0.25,-0.34 -0.583,-0.438 -0.973,-0.326 -0.377,0.115 -0.89,0.428 -1.541,0.927 -5.638,4.939 -6.294,14.754 -1.958,29.442 0.315,0.285 0.393,0.448 0.232,0.486 -0.274,0.343 -1.375,0.538 -3.316,0.573 -2.988,0.178 -6.954,-1.199 -11.898,-4.145 -0.225,-0.203 -0.409,-0.419 -0.524,-0.661 m 6.553,-3.748 c -0.04,-0.015 -0.079,0 -0.119,0.012 -0.042,-0.014 -0.082,-0.016 -0.148,-0.029 -0.441,-0.021 -0.78,0.202 -1.042,0.665 -0.261,0.451 -0.337,1.026 -0.228,1.723 0.109,0.686 0.392,1.307 0.865,1.878 0.513,0.528 1.084,0.819 1.686,0.843 0.068,0.002 0.134,0.002 0.174,0.002 0.027,-0.013 0.054,-0.013 0.094,-0.011 0.013,0 0.04,0.001 0.066,0.014 0.522,-0.005 0.861,-0.254 1.03,-0.758 0.1,-0.336 0.134,-0.695 0.072,-1.111 l -0.049,-0.296 c -0.024,-0.121 -0.062,-0.255 -0.113,-0.376 0.014,-0.014 0,-0.025 -0.014,-0.041 -0.012,-0.014 -0.012,-0.014 -0.012,-0.026 -0.038,-0.134 -0.076,-0.255 -0.141,-0.363 l -0.09,-0.202 c -0.208,-0.459 -0.469,-0.853 -0.784,-1.19 -0.434,-0.507 -0.846,-0.754 -1.247,-0.734 m -2.276,-8.819 c 0.118,0.123 0.198,0.057 0.23,-0.21 0.069,-0.923 0.163,-1.738 0.27,-2.444 -0.507,-1.094 -0.927,-2.387 -1.263,-3.904 -0.159,0.748 -0.319,1.535 -0.481,2.349 -0.016,0.254 -0.061,0.481 -0.117,0.68 0.543,1.949 1.005,3.122 1.361,3.529 m 3.006,-15.09 c -10e-4,0.014 -0.015,0.039 -0.056,0.054 -1.035,1.146 -1.973,2.898 -2.817,5.239 -0.043,0.2 -0.085,0.36 -0.153,0.466 -0.017,0.08 -0.043,0.148 -0.058,0.201 0.33,2.802 1.406,4.908 3.216,6.317 v 0.012 c 0.729,0.375 1.326,0.691 1.79,0.928 -0.31,6.688 0.41,12.523 2.188,17.49 0.87,0.108 1.512,0.095 1.929,-0.049 0.095,-0.052 0.163,-0.101 0.203,-0.17 l -0.012,-0.013 c -2.243,-8.483 -3.067,-14.509 -2.473,-18.071 0.594,-3.564 1.55,-6.347 2.854,-8.319 0.865,-1.296 1.604,-2.275 2.245,-2.934 0.886,-0.938 1.778,-1.512 2.677,-1.723 l 0.044,-0.147 c 0,-0.013 0.002,-0.04 0.002,-0.054 0,-0.039 -0.04,-0.081 -0.107,-0.148 -0.351,-0.54 -1.08,-0.981 -2.199,-1.308 -0.572,-0.185 -1.253,-0.33 -2.041,-0.448 -0.228,-0.006 -0.416,-0.021 -0.535,-0.051 -2.915,-0.153 -5.153,0.76 -6.697,2.728"
         id="path521" />
      <path
         inkscape:connector-curvature="0"
         style="fill:#ffffff"
         d="m 347.123,411.287 c 0.066,0.014 0.106,0.016 0.148,0.029 0.412,0.048 0.837,0.282 1.286,0.718 0.355,0.34 0.642,0.733 0.864,1.192 l 0.09,0.202 c 0.065,0.108 0.103,0.229 0.141,0.363 0,0.013 0,0.013 0.012,0.026 0.014,0.016 0.028,0.027 0.014,0.041 0.051,0.121 0.089,0.255 0.113,0.376 l 0.049,0.296 c 0.047,0.416 -0.013,0.775 -0.165,1.109 -0.208,0.424 -0.533,0.672 -1.003,0.746 -0.04,-0.002 -0.067,-0.002 -0.094,0.011 -0.04,0 -0.106,0 -0.174,-0.002 -0.602,-0.023 -1.173,-0.314 -1.686,-0.843 -0.473,-0.571 -0.756,-1.192 -0.865,-1.878 -0.109,-0.696 -0.033,-1.271 0.228,-1.723 0.262,-0.461 0.601,-0.683 1.042,-0.663"
         id="path523" />
      <path
         inkscape:connector-curvature="0"
         style="fill:#ffffff"
         d="m 345.344,402.276 c -0.032,0.267 -0.112,0.333 -0.23,0.21 -0.356,-0.407 -0.818,-1.58 -1.361,-3.53 0.056,-0.198 0.101,-0.426 0.117,-0.68 0.162,-0.813 0.322,-1.601 0.481,-2.349 0.336,1.518 0.756,2.811 1.263,3.904 -0.107,0.707 -0.201,1.523 -0.27,2.445"
         id="path525" />
      <path
         inkscape:connector-curvature="0"
         style="fill:#ffffff"
         d="m 348.064,387.45 c 0.041,-0.015 0.055,-0.04 0.056,-0.054 1.544,-1.969 3.782,-2.882 6.697,-2.728 0.119,0.029 0.307,0.045 0.535,0.051 0.788,0.118 1.469,0.264 2.041,0.448 1.119,0.326 1.848,0.768 2.199,1.308 0.067,0.067 0.107,0.109 0.107,0.148 0,0.014 -0.002,0.041 -0.002,0.054 l -0.044,0.147 c -0.899,0.211 -1.791,0.785 -2.677,1.723 -0.641,0.658 -1.38,1.638 -2.245,2.934 -1.304,1.973 -2.26,4.755 -2.854,8.319 -0.593,3.562 0.23,9.588 2.473,18.071 l 0.012,0.013 c -0.04,0.069 -0.108,0.118 -0.203,0.17 -0.417,0.144 -1.059,0.157 -1.929,0.049 -1.778,-4.967 -2.498,-10.802 -2.188,-17.49 -0.464,-0.236 -1.061,-0.553 -1.79,-0.928 v -0.012 c -1.81,-1.409 -2.886,-3.516 -3.216,-6.317 0.015,-0.053 0.041,-0.121 0.058,-0.201 0.068,-0.105 0.11,-0.266 0.153,-0.466 0.844,-2.34 1.782,-4.092 2.817,-5.239"
         id="path527" />
      <path
         inkscape:connector-curvature="0"
         style="fill:#b6b7b8"
         d="m 358.301,389.359 c 0.651,-0.499 1.164,-0.812 1.541,-0.927 0.39,-0.112 0.723,-0.014 0.973,0.326 l 0.563,1.561 c -0.04,-0.121 0.015,-0.228 0.165,-0.332 l 0.387,0.007 c 0.172,1.823 0.293,4.248 0.364,7.273 0.102,5.866 -0.581,10.82 -2.079,14.878 -1.501,4.045 -2.782,6.259 -3.872,6.656 -4.336,-14.688 -3.68,-24.502 1.958,-29.442"
         id="path529" />
      <path
         inkscape:connector-curvature="0"
         style="fill:none;stroke:#e83927;stroke-width:1.60599995;stroke-linecap:round;stroke-linejoin:round;stroke-miterlimit:10"
         d="m 356.343,418.802 c 1.09,-0.397 2.371,-2.611 3.872,-6.656 1.498,-4.058 2.181,-9.012 2.079,-14.878 -0.071,-3.025 -0.191,-5.45 -0.364,-7.273"
         id="path531" />
      <path
         inkscape:connector-curvature="0"
         style="fill:#003c90"
         d="m 351.935,442.805 0.153,-1.038 -32.611,-4.713 0.421,1.596 c 0.467,1.646 0.909,4.878 1.335,9.699 0.394,4.502 -0.049,8.381 -1.338,11.632 0.624,0.485 1.315,1.155 2.056,2.039 0.234,0.266 0.452,0.541 0.667,0.832 0.696,0.549 1.304,1.14 1.823,1.774 0.589,0.724 0.968,1.39 1.126,1.982 0.102,0.14 0.174,0.299 0.216,0.47 0.113,0.165 0.21,0.343 0.304,0.532 0.247,0.537 0.37,1.101 0.363,1.712 2.893,4.131 5.348,8.757 7.375,13.893 l 0.769,1.905 1.118,-1.7 c 9.175,-13.553 14.582,-27.082 16.223,-40.615 m -28.553,5.352 c -0.335,-3.774 -0.683,-6.611 -1.046,-8.513 l 27.323,3.945 c -1.402,10.305 -5.052,20.622 -10.929,30.941 -0.015,0.014 -0.021,0.04 -0.036,0.065 -1.13,1.969 -2.343,3.954 -3.636,5.942 -3.412,-8.057 -7.773,-14.713 -13.085,-19.971 0.393,-1.031 0.715,-2.125 0.964,-3.272 0.003,-0.014 0.007,-0.041 0.022,-0.052 0.57,-2.715 0.712,-5.74 0.423,-9.085"
         id="path533" />
      <path
         inkscape:connector-curvature="0"
         style="fill:#5390cd"
         d="m 322.336,439.645 c 0.363,1.901 0.711,4.738 1.046,8.513 0.289,3.345 0.147,6.37 -0.423,9.087 5.914,4.3 11.169,10.054 15.771,17.29 5.877,-10.322 9.526,-20.639 10.929,-30.944 l -27.323,-3.946 z"
         id="path535" />
      <path
         inkscape:connector-curvature="0"
         style="fill:#a4c6e9"
         d="m 322.959,457.244 c -0.015,0.011 -0.019,0.038 -0.022,0.052 -0.249,1.147 -0.571,2.241 -0.964,3.272 5.31,5.258 9.673,11.914 13.085,19.971 1.293,-1.988 2.506,-3.974 3.636,-5.942 0.016,-0.025 0.021,-0.052 0.036,-0.065 -4.602,-7.234 -9.857,-12.988 -15.771,-17.288"
         id="path537" />
      <path
         inkscape:connector-curvature="0"
         style="fill:#e83434"
         d="m 370.857,472.493 c 0.268,0.254 0.535,0.605 0.819,1.075 -0.284,-0.469 -0.551,-0.821 -0.819,-1.075 -0.469,-0.604 -1.294,-1.017 -2.453,-1.236 -1.935,0.281 -3.572,0.912 -4.901,1.882 -1.335,0.96 -2.158,1.606 -2.471,1.931 4.933,-1.521 8.856,-0.852 11.744,1.994 2.887,2.843 4.291,4.315 4.236,4.4 0.823,1.059 1.302,1.703 1.451,1.926 0.011,-0.008 0.028,-0.004 0.067,0.003 0.841,-0.354 1.353,-1.196 1.54,-2.527 0.115,-1.365 0.082,-2.807 -0.081,-4.322 -0.193,-1.513 -0.383,-2.879 -0.579,-4.085 -0.214,-1.255 -0.45,-2.496 -0.72,-3.717 -0.214,-1.159 -0.351,-2.082 -0.403,-2.785 -0.072,-0.711 0.166,-1.191 0.709,-1.44 -2.728,-0.685 -5.356,-1.08 -7.907,-1.188 0.634,0.301 -0.43,2.073 -3.214,5.339 -0.266,0.37 -0.36,0.998 -0.292,1.868 3.005,-0.531 4.962,-0.491 5.862,0.129 0.229,0.151 0.39,0.365 0.483,0.625 -0.14,0.705 -0.387,1.416 -0.739,2.139 -1.41,-0.783 -2.188,-1.08 -2.332,-0.936 m 3.904,-7.669 c 0.383,-0.078 0.846,0.013 1.395,0.256 0.538,0.253 0.992,0.687 1.379,1.314 0.278,0.634 0.398,1.244 0.344,1.812 -0.039,0.588 -0.249,0.874 -0.659,0.859 -0.491,-0.104 -0.981,-0.404 -1.486,-0.919 -0.492,-0.49 -0.877,-1.021 -1.165,-1.569 -0.308,-0.533 -0.452,-0.938 -0.432,-1.223 0.029,-0.292 0.229,-0.472 0.624,-0.53"
         id="path539" />
      <path
         inkscape:connector-curvature="0"
         style="fill:#ffffff"
         d="m 376.156,465.08 c -0.549,-0.243 -1.012,-0.334 -1.395,-0.256 -0.395,0.058 -0.595,0.238 -0.624,0.531 -0.02,0.285 0.124,0.69 0.432,1.223 0.288,0.548 0.673,1.079 1.165,1.569 0.505,0.515 0.995,0.815 1.486,0.919 0.41,0.015 0.62,-0.271 0.659,-0.859 0.054,-0.568 -0.066,-1.179 -0.344,-1.812 -0.387,-0.628 -0.841,-1.062 -1.379,-1.315"
         id="path541" />
      <path
         inkscape:connector-curvature="0"
         style="fill:#ffffff"
         d="m 370.857,472.493 c 0.144,-0.145 0.922,0.153 2.332,0.934 0.352,-0.723 0.599,-1.434 0.739,-2.139 -0.093,-0.26 -0.254,-0.474 -0.483,-0.625 -0.9,-0.62 -2.857,-0.66 -5.862,-0.129 -0.979,0.173 -0.706,0.41 0.821,0.723 1.159,0.22 1.984,0.633 2.453,1.236"
         id="path543" />
      <path
         inkscape:connector-curvature="0"
         style="fill:#ffffff"
         d="m 378.69,468.741 c 0.27,1.221 0.506,2.462 0.72,3.717 0.196,1.206 0.386,2.572 0.579,4.085 0.163,1.516 0.196,2.957 0.081,4.322 -0.187,1.331 -0.699,2.174 -1.54,2.527 -0.039,-0.007 -0.056,-0.011 -0.067,-0.003 -0.149,-0.223 -0.628,-0.867 -1.451,-1.924 0.055,-0.087 -1.349,-1.56 -4.236,-4.402 -2.888,-2.846 -6.811,-3.516 -11.744,-1.994 -1.364,1.541 -2.686,3.198 -3.934,4.983 -1.984,3.308 -2.122,6.198 -0.4,8.698 0.123,0.11 0.212,0.243 0.272,0.382 1.774,2.43 4.668,3.821 8.673,4.178 4.484,0.474 8.828,-0.507 13.017,-2.927 2.75,-1.633 3.974,-4.706 3.664,-9.18 -0.619,-4.959 -1.323,-9.875 -2.108,-14.771 0.158,-0.799 -0.085,-1.376 -0.754,-1.75 -0.144,-0.047 -0.307,-0.099 -0.466,-0.168 -0.543,0.249 -0.781,0.731 -0.709,1.44 0.053,0.705 0.189,1.628 0.403,2.787"
         id="path545" />
      <path
         inkscape:connector-curvature="0"
         style="fill:none;stroke:#e83927;stroke-width:2.13899994;stroke-linecap:round;stroke-linejoin:round;stroke-miterlimit:10"
         d="m 371.676,473.568 c -0.284,-0.47 -0.551,-0.821 -0.819,-1.075 -0.469,-0.604 -1.294,-1.017 -2.453,-1.236 -1.935,0.281 -3.572,0.912 -4.901,1.882 -1.335,0.96 -2.158,1.606 -2.471,1.931 -1.364,1.541 -2.686,3.198 -3.934,4.983 -1.984,3.308 -2.122,6.198 -0.4,8.698 0.123,0.11 0.212,0.243 0.272,0.382 1.774,2.43 4.668,3.821 8.673,4.178 4.484,0.474 8.828,-0.507 13.016,-2.927 2.751,-1.633 3.975,-4.706 3.665,-9.18 -0.619,-4.959 -1.323,-9.875 -2.108,-14.771 0.158,-0.799 -0.085,-1.376 -0.754,-1.75 -0.144,-0.047 -0.307,-0.099 -0.466,-0.168 -2.728,-0.686 -5.356,-1.08 -7.907,-1.188 0.634,0.301 -0.43,2.073 -3.214,5.339 -0.266,0.37 -0.36,0.998 -0.292,1.868"
         id="path547" />
      <path
         inkscape:connector-curvature="0"
         style="fill:#003c90"
         d="m 347.494,446.698 0.957,-0.067 c 9.892,-0.688 20.633,-1.213 32.209,-1.575 l 0.834,-0.028 0.229,0.769 c 1.669,4.94 0.942,9.476 -2.18,13.581 0.727,0.605 1.265,1.092 1.614,1.454 0.902,0.943 1.091,1.629 0.594,2.06 0.175,0.269 -1.333,2.328 -4.523,6.178 -3.23,3.891 -6.946,5.976 -11.145,6.26 -4.186,0.283 -6.932,0.269 -8.211,-0.041 -1.306,-0.296 -2.383,-0.727 -3.204,-1.292 -2.53,-0.969 -4.496,-2.732 -5.895,-5.303 -1.36,-2.423 -1.804,-9.437 -1.318,-21.026 l 0.039,-0.97 z m 31.47,15.021 c -0.013,-0.014 -0.04,-0.039 -0.054,-0.053 -0.229,-0.203 -0.484,-0.418 -0.767,-0.646 -0.606,0.633 -1.453,0.982 -2.57,1.036 l 2.126,-3.836 -0.067,0.066 c 2.598,-3.364 3.365,-7.053 2.274,-11.05 -10.863,0.35 -20.985,0.848 -30.339,1.48 -0.403,10.405 -0.04,16.719 1.104,18.951 1.157,2.114 2.786,3.568 4.873,4.349 l 0.12,0.054 0.123,0.081 c 0.659,0.443 1.507,0.794 2.557,1.036 h 0.013 c 0.538,0.121 1.346,0.175 2.408,0.188 0.094,0 0.473,0.054 1.132,0.147 0.659,0.095 2.436,-0.026 5.303,-0.392 2.881,-0.361 5.748,-2.206 8.588,-5.558 2.853,-3.352 4.105,-5.114 3.742,-5.315 -0.148,-0.16 -0.336,-0.336 -0.566,-0.538"
         id="path549" />
      <path
         inkscape:connector-curvature="0"
         style="fill:#a4c6e9"
         d="m 378.91,461.666 c 0.014,0.014 0.041,0.039 0.054,0.053 0.23,0.202 0.418,0.378 0.566,0.54 0.363,0.201 -0.889,1.964 -3.742,5.315 -2.84,3.352 -5.707,5.196 -8.588,5.558 -2.867,0.365 -4.644,0.486 -5.303,0.392 -0.659,-0.094 -1.038,-0.147 -1.132,-0.147 7.499,-1.912 13.541,-5.816 18.145,-11.711"
         id="path551" />
      <path
         inkscape:connector-curvature="0"
         style="fill:#5390cd"
         d="m 377.632,458.286 0.067,-0.066 -2.126,3.836 c 1.117,-0.054 1.964,-0.403 2.57,-1.036 0.283,0.229 0.538,0.443 0.767,0.646 -4.604,5.895 -10.646,9.799 -18.145,11.71 -1.062,-0.014 -1.87,-0.067 -2.408,-0.188 h -0.014 c -1.049,-0.242 -1.897,-0.593 -2.558,-1.036 l -0.121,-0.081 -0.12,-0.054 c -2.087,-0.78 -3.716,-2.234 -4.873,-4.349 -1.144,-2.232 -1.507,-8.546 -1.104,-18.951 9.354,-0.633 19.476,-1.131 30.339,-1.48 1.091,3.996 0.324,7.685 -2.274,11.049"
         id="path553" />
      <path
         inkscape:connector-curvature="0"
         style="fill:#5390cd"
         d="m 351.84,451.046 c -0.577,-0.415 -1.196,-0.604 -1.856,-0.579 -1.2,-0.699 -2.222,-1.009 -3.056,-0.927 -1.226,0.12 -1.845,1.115 -1.845,2.986 0,0.188 0.203,0.768 0.594,1.736 0.497,1.226 1.063,2.356 1.71,3.405 0.967,1.576 1.977,2.76 3.039,3.568 1.025,1.615 2.075,2.423 3.164,2.423 1.172,0 1.993,-0.474 2.49,-1.4 0.188,-0.35 0.324,-0.727 0.392,-1.145 0.026,-0.054 0.053,-0.107 0.066,-0.149 0.242,-0.55 0.364,-1.345 0.364,-2.354 0,-0.943 -0.619,-2.182 -1.846,-3.716 -0.496,-0.619 -1.022,-1.197 -1.573,-1.736 -0.417,-0.941 -0.97,-1.64 -1.643,-2.112"
         id="path555" />
      <path
         inkscape:connector-curvature="0"
         style="fill:#ffffff"
         d="m 320.58,415.427 c 0.013,-0.056 0.013,-0.109 0.027,-0.15 0.12,0.028 0.255,0.055 0.377,0.095 0,0.014 0,0.042 -0.014,0.067 -0.014,0.026 -0.014,0.053 -0.025,0.096 -0.689,3.458 -1.186,6.958 -1.468,10.472 -0.203,-0.041 -0.405,-0.095 -0.606,-0.135 0.363,-3.514 0.942,-6.986 1.709,-10.445"
         id="path557" />
      <path
         inkscape:connector-curvature="0"
         style="fill:#0076bf"
         d="m 320.945,415.534 c 0.011,-0.043 0.011,-0.069 0.025,-0.096 0.014,-0.025 0.014,-0.054 0.014,-0.067 0.956,-4.71 2.275,-9.381 3.97,-13.998 9.355,-2.167 18.361,-3.311 27.016,-3.446 h 0.079 c 8.655,0.136 17.661,1.279 27.029,3.446 1.67,4.401 3.002,8.856 3.998,13.339 -13.555,2.638 -25.777,3.931 -36.679,3.876 h -0.081 c -1.656,0.016 -3.271,-0.013 -4.846,-0.054 -7.78,-0.256 -14.617,-1.266 -20.525,-3"
         id="path559" />
      <path
         inkscape:connector-curvature="0"
         style="fill:#0076bf"
         d="m 320.984,415.371 c -0.122,-0.04 -0.257,-0.066 -0.377,-0.095 1.063,-4.725 2.504,-9.421 4.32,-14.064 9.368,-2.168 18.388,-3.312 27.043,-3.445 h 0.079 c 8.655,0.134 17.661,1.277 27.043,3.445 1.736,4.454 3.134,8.938 4.17,13.46 0.056,0.202 0.109,0.417 0.149,0.633 -0.066,0.013 -0.134,0.026 -0.201,0.04 -0.04,-0.216 -0.094,-0.43 -0.134,-0.633 -0.996,-4.482 -2.328,-8.938 -3.998,-13.339 -9.368,-2.167 -18.374,-3.311 -27.029,-3.446 h -0.079 c -8.655,0.136 -17.661,1.279 -27.016,3.446 -1.695,4.617 -3.014,9.288 -3.97,13.998"
         id="path561" />
      <path
         inkscape:connector-curvature="0"
         style="fill:#ffffff"
         d="m 341.47,418.534 c 1.575,0.041 3.19,0.069 4.846,0.054 h 0.081 c 10.902,0.055 23.124,-1.238 36.679,-3.876 0.04,0.203 0.094,0.417 0.134,0.633 0.013,0.04 0.013,0.082 0.027,0.12 0.713,3.325 1.225,6.662 1.548,10.042 -11.844,2.396 -22.708,3.769 -32.573,4.133 -1.978,0.065 -3.918,0.108 -5.815,0.094 h -0.081 c -10.511,0.067 -19.463,-1.118 -26.854,-3.526 0,-0.054 0,-0.108 0.015,-0.176 v -0.025 c 0.282,-3.514 0.779,-7.014 1.468,-10.472 5.908,1.733 12.745,2.743 20.525,2.999"
         id="path563" />
      <path
         inkscape:connector-curvature="0"
         style="fill:#e83827"
         d="m 346.316,429.733 h 0.081 c 1.897,0.015 3.836,-0.028 5.815,-0.094 9.865,-0.364 20.729,-1.736 32.573,-4.133 0.013,0.148 0.025,0.311 0.039,0.458 0.015,0.026 0.015,0.053 0.015,0.082 0.309,3.27 0.444,6.567 0.39,9.878 -11.442,2.329 -21.953,3.716 -31.55,4.159 -2.49,0.108 -4.914,0.162 -7.282,0.148 h -0.081 c -10.634,0.067 -19.666,-1.131 -27.096,-3.595 l 0.014,-0.066 h -0.014 v -0.027 c -0.122,-3.459 -0.04,-6.904 0.242,-10.337 7.391,2.409 16.343,3.595 26.854,3.527"
         id="path565" />
      <path
         inkscape:connector-curvature="0"
         style="fill:#fedb00"
         d="m 346.316,440.232 h 0.081 c 2.368,0.014 4.792,-0.04 7.282,-0.148 9.597,-0.443 20.108,-1.83 31.55,-4.159 0,0.188 0,0.377 -0.013,0.566 v 0.066 c -0.081,3.378 -0.338,6.798 -0.782,10.243 -0.175,0.04 -0.336,0.094 -0.512,0.147 -10.916,2.384 -20.956,3.797 -30.097,4.268 h -1.776 -0.079 c -10.823,0.067 -21.444,-1.358 -31.848,-4.268 -0.497,-3.998 -0.794,-7.429 -0.902,-10.311 7.43,2.466 16.462,3.664 27.096,3.596"
         id="path567" />
      <path
         inkscape:connector-curvature="0"
         style="fill:#e83827"
         d="m 318.858,426.006 c 0,-0.041 0,-0.095 0.013,-0.135 0.201,0.04 0.403,0.094 0.606,0.135 v 0.025 c -0.015,0.067 -0.015,0.122 -0.015,0.176 -0.282,3.433 -0.364,6.878 -0.242,10.337 v 0.027 c -0.174,-0.04 -0.362,-0.08 -0.538,-0.121 -0.094,-0.013 -0.201,-0.04 -0.31,-0.066 v -0.04 -0.042 c -0.026,-3.459 0.134,-6.891 0.486,-10.296"
         id="path569" />
      <path
         inkscape:connector-curvature="0"
         style="fill:#e83827"
         d="m 319.477,426.031 v -0.025 0.025 z"
         id="path571" />
      <path
         inkscape:connector-curvature="0"
         style="fill:#fedb00"
         d="m 318.682,436.45 c 0.176,0.041 0.364,0.081 0.538,0.121 v 0.066 c 0.108,2.882 0.405,6.312 0.902,10.311 -0.363,-0.094 -0.726,-0.2 -1.09,-0.309 -0.403,-3.432 -0.62,-6.853 -0.66,-10.256 0.109,0.027 0.216,0.055 0.31,0.067"
         id="path573" />
      <polygon
         style="fill:#fedb00"
         points="319.234,436.571 319.22,436.638 319.22,436.571 "
         id="polygon575" />
      <path
         inkscape:connector-curvature="0"
         style="fill:#ffffff"
         d="m 383.237,415.465 c -0.014,-0.038 -0.014,-0.08 -0.027,-0.12 0.067,-0.014 0.135,-0.027 0.201,-0.04 0.753,3.352 1.32,6.742 1.683,10.147 0.015,0.149 0.041,0.283 0.054,0.432 -0.107,0.027 -0.215,0.054 -0.324,0.081 -0.014,-0.147 -0.026,-0.31 -0.039,-0.458 -0.323,-3.38 -0.835,-6.717 -1.548,-10.042"
         id="path577" />
      <path
         inkscape:connector-curvature="0"
         style="fill:#e83827"
         d="m 384.824,425.965 c 0.109,-0.027 0.217,-0.054 0.324,-0.081 0.35,3.297 0.513,6.623 0.499,9.946 v 0.567 c -0.149,0.04 -0.283,0.064 -0.431,0.094 0.013,-0.189 0.013,-0.377 0.013,-0.566 0.054,-3.311 -0.081,-6.608 -0.39,-9.878 0,-0.029 0,-0.054 -0.015,-0.082"
         id="path579" />
      <path
         inkscape:connector-curvature="0"
         style="fill:#fedb00"
         d="m 385.216,436.491 c 0.148,-0.029 0.282,-0.054 0.431,-0.094 -0.04,3.39 -0.257,6.811 -0.66,10.242 -0.177,0.054 -0.362,0.108 -0.553,0.161 0.444,-3.445 0.701,-6.865 0.782,-10.243 v -0.066 z"
         id="path581" />
      <path
         inkscape:connector-curvature="0"
         style="fill:#fedb00"
         d="m 353.825,451.216 c 9.141,-0.471 19.181,-1.884 30.097,-4.268 -9.837,2.747 -19.879,4.174 -30.097,4.268"
         id="path583" />
      <path
         inkscape:connector-curvature="0"
         style="fill:none;stroke:#003c90;stroke-width:2.15400004;stroke-linecap:square;stroke-miterlimit:10"
         d="m 320.97,415.438 c 0.014,-0.025 0.014,-0.054 0.014,-0.067 0.956,-4.71 2.275,-9.381 3.97,-13.998 9.355,-2.167 18.361,-3.311 27.016,-3.446 h 0.079 c 8.655,0.136 17.661,1.279 27.029,3.446 1.67,4.401 3.002,8.856 3.998,13.339 0.04,0.203 0.092,0.417 0.134,0.633 0.013,0.04 0.013,0.082 0.027,0.12 0.713,3.325 1.225,6.662 1.548,10.042 0.013,0.148 0.025,0.311 0.039,0.458 0.015,0.028 0.015,0.053 0.015,0.082 0.309,3.27 0.444,6.567 0.39,9.878 0,0.188 0,0.377 -0.013,0.566 v 0.066 c -0.081,3.378 -0.338,6.798 -0.782,10.243 v 0.027 c -0.175,0.041 -0.336,0.08 -0.512,0.12 -10.916,2.384 -20.956,3.797 -30.097,4.268 -2.421,0.121 -4.79,0.175 -7.092,0.162 h -0.082 c -10.457,0.066 -19.287,-1.251 -26.461,-3.932 -0.014,-0.174 -0.041,-0.336 -0.068,-0.498 -0.498,-3.998 -0.794,-7.429 -0.902,-10.311 v -0.066 -0.027 c -0.122,-3.459 -0.04,-6.904 0.242,-10.337 0,-0.054 0,-0.108 0.015,-0.176 v -0.025 c 0.282,-3.514 0.779,-7.014 1.468,-10.472 0.011,-0.042 0.011,-0.068 0.025,-0.095 z"
         id="path585" />
      <path
         inkscape:connector-curvature="0"
         style="fill:#e83434"
         d="m 368.756,447.906 -2.145,0.455 c 0.884,3.542 -0.377,5.891 -3.776,7.044 -0.174,0.058 -0.334,0.147 -0.464,0.295 -2.654,2.521 -3.373,4.989 -2.173,7.389 0.114,0.981 -0.29,1.734 -1.197,2.282 -0.867,0.474 -1.679,0.316 -2.447,-0.475 -0.082,-0.098 -0.138,-0.184 -0.185,-0.271 l -0.015,-0.045 c -1.859,-2.107 -2.262,-4.961 -1.222,-8.545 -0.803,0.278 -1.388,0.796 -1.733,1.54 -0.878,2.207 -0.766,4.593 0.329,7.135 -0.612,0.254 -1.143,0.357 -1.582,0.305 -0.584,-0.171 -1.057,-0.674 -1.419,-1.482 l 0.008,-0.036 c -0.049,-0.123 -0.097,-0.245 -0.146,-0.369 l -10e-4,-0.01 c -0.922,-2.625 -1.01,-5.668 -0.258,-9.123 -1.095,0.373 -1.85,1.1 -2.255,2.193 -0.762,2.061 -0.762,4.38 0.021,6.95 -0.651,0 -1.168,-0.346 -1.562,-1.021 -0.002,-0.013 -0.002,-0.013 -0.014,-0.021 -1.933,-3.294 -1.813,-7.253 0.369,-11.895 3.151,-5.524 8.607,-8.072 16.388,-7.636 l -0.013,-2.34 c -8.838,-0.419 -14.997,2.567 -18.49,8.979 -0.009,0.023 -0.018,0.048 -0.028,0.072 -2.578,5.464 -2.674,10.124 -0.285,14.003 1.074,1.878 2.593,2.577 4.553,2.096 0.644,1.089 1.493,1.72 2.534,1.894 0.98,0.264 2.115,0.072 3.434,-0.573 1.622,1.587 3.379,1.799 5.248,0.651 1.869,-1.139 2.642,-2.755 2.303,-4.856 -0.022,-0.115 -0.058,-0.216 -0.105,-0.314 -0.685,-1.494 -0.217,-3.04 1.386,-4.657 4.636,-1.638 6.28,-4.842 4.942,-9.614"
         id="path587" />
      <path
         inkscape:connector-curvature="0"
         style="fill:#f49c00"
         d="m 355.132,456.036 c -1.04,3.584 -0.637,6.438 1.222,8.545 l 0.015,0.045 c 0.047,0.087 0.103,0.173 0.185,0.271 0.768,0.791 1.58,0.948 2.447,0.475 0.907,-0.548 1.311,-1.301 1.197,-2.282 -1.2,-2.399 -0.481,-4.868 2.173,-7.389 0.13,-0.147 0.29,-0.237 0.464,-0.295 3.399,-1.153 4.66,-3.502 3.776,-7.044 -0.736,-2.106 -1.84,-4.039 -3.335,-5.795 -7.78,-0.437 -13.236,2.111 -16.387,7.636 -2.182,4.642 -2.302,8.601 -0.369,11.895 0.012,0.009 0.012,0.009 0.014,0.021 0.394,0.675 0.911,1.021 1.562,1.021 -0.783,-2.57 -0.783,-4.89 -0.021,-6.95 0.405,-1.094 1.16,-1.82 2.255,-2.193 -0.752,3.455 -0.664,6.498 0.258,9.123 l 10e-4,0.01 c 0.049,0.124 0.097,0.246 0.146,0.369 l -0.008,0.036 c 0.362,0.809 0.835,1.312 1.419,1.482 0.439,0.053 0.97,-0.051 1.582,-0.305 -1.095,-2.542 -1.207,-4.928 -0.329,-7.135 0.345,-0.745 0.93,-1.263 1.733,-1.541"
         id="path589" />
      <path
         inkscape:connector-curvature="0"
         style="fill:#0076bf"
         d="m 370.285,407.312 c 0.941,-0.454 1.876,-0.726 2.783,-0.811 0.075,-0.011 0.151,-0.021 0.219,-0.018 0.556,0.098 1.086,0.207 1.586,0.332 9.054,2.126 12.429,7.858 10.138,17.227 -1.144,4.695 -2.861,9.225 -5.142,13.604 0.798,-2.264 1.425,-4.506 1.901,-6.731 l -18.793,-5.139 c 0.198,-1.333 0.287,-2.702 0.249,-4.083 -0.005,-0.21 -0.008,-0.419 -0.026,-0.638 0.018,0.219 0.021,0.428 0.026,0.638 -0.261,-0.037 -0.534,-0.168 -0.798,-0.376 -0.307,-0.239 -0.473,-0.613 -0.492,-1.108 2.082,-5.577 3.728,-9.001 4.948,-10.263 1.228,-1.27 2.359,-2.14 3.401,-2.634"
         id="path591" />
      <path
         inkscape:connector-curvature="0"
         style="fill:#0076bf"
         d="m 373.287,406.484 c 0.749,-0.041 1.278,0.07 1.586,0.332 -0.5,-0.125 -1.03,-0.234 -1.586,-0.332"
         id="path593" />
      <path
         inkscape:connector-curvature="0"
         style="fill:#fedb00"
         d="m 360.155,433.868 -0.485,-0.23 c 1.195,-2.529 2.077,-5.204 2.635,-8.05 l 0.672,0.188 c -0.405,2.829 -1.354,5.52 -2.822,8.092"
         id="path595" />
      <path
         inkscape:connector-curvature="0"
         style="fill:#e83827"
         d="m 359.331,435.235 c 0.301,-0.446 0.574,-0.897 0.824,-1.367 l 17.149,8.254 c -2.023,3.229 -4.371,6.371 -7.036,9.418 -2.235,0.099 -7.664,-3.254 -16.299,-10.066 2.067,-1.859 3.852,-3.939 5.362,-6.239"
         id="path597" />
      <path
         inkscape:connector-curvature="0"
         style="fill:#fedb00"
         d="m 360.155,433.868 c 1.468,-2.572 2.417,-5.263 2.822,-8.092 l 18.793,5.139 c -0.476,2.226 -1.103,4.468 -1.901,6.731 -0.789,1.517 -1.637,3.001 -2.565,4.476 l -17.149,-8.254 z"
         id="path599" />
      <path
         inkscape:connector-curvature="0"
         style="fill:#fedb00"
         d="m 377.304,442.122 c 0.928,-1.475 1.776,-2.959 2.565,-4.476 -0.513,1.494 -1.104,2.978 -1.752,4.469 -0.038,0.091 -0.085,0.189 -0.143,0.331 l -0.67,-0.324 z"
         id="path601" />
      <path
         inkscape:connector-curvature="0"
         style="fill:none;stroke:#003c90;stroke-width:2.14899993;stroke-linecap:square;stroke-miterlimit:10"
         d="m 363.2,421.056 c 0.018,0.219 0.021,0.428 0.026,0.638 0.038,1.381 -0.051,2.75 -0.249,4.083 -0.405,2.829 -1.354,5.52 -2.822,8.092 -0.25,0.47 -0.523,0.921 -0.824,1.367 -1.51,2.3 -3.295,4.38 -5.362,6.238 8.634,6.812 14.064,10.165 16.299,10.066 2.665,-3.047 5.013,-6.188 7.036,-9.418 0.928,-1.475 1.776,-2.959 2.565,-4.476 2.281,-4.379 3.998,-8.908 5.142,-13.604 2.291,-9.368 -1.084,-15.101 -10.138,-17.227 -0.5,-0.125 -1.03,-0.234 -1.586,-0.332"
         id="path603" />
      <path
         inkscape:connector-curvature="0"
         style="fill:#f9d300"
         d="m 378.593,396.509 c 1.507,0.713 2.597,1.83 3.282,3.351 0.58,1.32 0.889,2.721 0.903,4.187 0.014,1.494 -0.297,2.895 -0.957,4.228 l -0.227,0.43 c -0.256,0.403 -0.552,0.78 -0.916,1.144 -0.04,0.041 -0.093,0.095 -0.16,0.136 -1.091,0.901 -2.262,1.668 -3.514,2.314 -1.481,0.767 -3.001,1.455 -4.577,2.06 -1.655,0.617 -3.338,1.131 -5.033,1.521 -1.198,0.297 -2.382,0.553 -3.581,0.77 -1.252,0.226 -2.504,0.401 -3.757,0.523 -1.331,0.188 -2.65,0.337 -3.97,0.457 -1.063,0.054 -2.113,0.096 -3.149,0.109 h -0.982 -0.458 -0.915 c -0.243,-0.014 -0.485,-0.014 -0.741,-0.014 h -0.026 c -0.229,0 -0.444,0 -0.674,0.014 h -1.427 -0.013 c -0.552,0 -1.118,0 -1.683,-0.014 -0.793,-0.014 -1.588,-0.056 -2.395,-0.096 -1.253,-0.12 -2.477,-0.27 -3.702,-0.457 -1.171,-0.122 -2.315,-0.298 -3.433,-0.523 -1.064,-0.217 -2.114,-0.473 -3.122,-0.77 -1.466,-0.39 -2.84,-0.903 -4.118,-1.521 -1.213,-0.604 -2.33,-1.293 -3.366,-2.06 -0.862,-0.646 -1.575,-1.413 -2.14,-2.314 -0.322,-0.444 -0.605,-0.876 -0.848,-1.293 l -0.214,-0.416 c -0.662,-1.333 -0.97,-2.733 -0.957,-4.228 0.013,-1.466 0.323,-2.866 0.902,-4.187 0.686,-1.521 1.776,-2.638 3.283,-3.351 17.93,-1.845 35.495,-1.845 52.685,0"
         id="path605" />
      <path
         inkscape:connector-curvature="0"
         style="fill:#f9d300"
         d="m 349.841,417.723 c 0.256,0 0.498,0 0.741,0.014 h -0.459 -0.982 c 0.23,-0.014 0.445,-0.014 0.674,-0.014 h 0.026 z"
         id="path607" />
      <path
         inkscape:connector-curvature="0"
         style="fill:none;stroke:#e83927;stroke-width:2.15400004;stroke-linecap:round;stroke-linejoin:round;stroke-miterlimit:10"
         d="m 381.875,399.859 c 0.58,1.32 0.889,2.721 0.903,4.187 0.014,1.494 -0.297,2.895 -0.957,4.228 l -0.227,0.43 c -0.256,0.403 -0.552,0.78 -0.916,1.144 -0.04,0.041 -0.093,0.095 -0.16,0.136 -1.091,0.901 -2.262,1.668 -3.514,2.314 -1.481,0.767 -3.001,1.455 -4.577,2.06 -1.655,0.617 -3.338,1.131 -5.033,1.521 -1.198,0.297 -2.382,0.553 -3.581,0.77 -1.252,0.226 -2.504,0.401 -3.757,0.523 -1.331,0.188 -2.65,0.337 -3.97,0.457 -1.063,0.054 -2.113,0.096 -3.149,0.109 h -0.982 -0.458 -0.915 c -0.243,-0.014 -0.485,-0.014 -0.741,-0.014 h -0.026 c -0.229,0 -0.444,0 -0.674,0.014 h -1.427 -0.013 c -0.552,0 -1.118,0 -1.683,-0.014 -0.793,-0.014 -1.588,-0.056 -2.395,-0.096 -1.253,-0.12 -2.477,-0.27 -3.702,-0.457 -1.171,-0.122 -2.315,-0.298 -3.433,-0.523 -1.064,-0.217 -2.114,-0.473 -3.122,-0.77 -1.466,-0.39 -2.84,-0.903 -4.118,-1.521 -1.213,-0.604 -2.33,-1.293 -3.366,-2.06 -0.862,-0.646 -1.575,-1.413 -2.14,-2.314 -0.322,-0.444 -0.605,-0.876 -0.848,-1.293 l -0.214,-0.416 c -0.662,-1.333 -0.97,-2.733 -0.957,-4.228 0.013,-1.466 0.323,-2.866 0.902,-4.187 0.686,-1.521 1.776,-2.638 3.283,-3.351 17.93,-1.845 35.495,-1.845 52.685,0 1.507,0.714 2.597,1.831 3.282,3.351 z"
         id="path609" />
      <path
         inkscape:connector-curvature="0"
         style="fill:#e83434"
         d="m 349.465,400.668 2.125,-0.472 c 0.325,1.037 0.579,2.154 0.781,3.364 0.19,1.198 0.298,2.438 0.31,3.717 0.014,1.265 -0.16,2.422 -0.552,3.486 -0.39,1.049 -0.766,1.602 -1.157,1.654 -0.149,-0.162 -0.27,-1.466 -0.335,-3.917 -0.069,-2.461 -0.46,-5.072 -1.172,-7.832"
         id="path611" />
      <path
         inkscape:connector-curvature="0"
         style="fill:#e83434"
         d="m 339.315,399.779 c -0.497,2.626 -0.781,4.831 -0.862,6.609 -0.079,1.791 -0.12,2.92 -0.12,3.419 0.013,0.497 0,1.131 -0.04,1.898 -0.041,0.766 -0.149,1.452 -0.351,2.084 -0.188,0.62 -0.39,1.011 -0.619,1.173 -0.282,-0.229 -0.485,-0.513 -0.605,-0.82 -0.406,-0.93 -0.592,-1.992 -0.552,-3.19 -0.082,-4.228 0.283,-7.956 1.076,-11.173 h 2.073 z"
         id="path613" />
      <path
         inkscape:connector-curvature="0"
         style="fill:#e83434"
         d="m 327.632,404.398 c 0.12,-1.011 0.31,-2.008 0.58,-2.977 0.254,-0.956 0.576,-1.858 0.967,-2.693 l 1.859,0.378 c -0.862,2.207 -1.428,4.295 -1.684,6.273 -0.268,1.95 -0.47,3 -0.618,3.135 -0.35,-0.041 -0.646,-0.483 -0.901,-1.319 -0.271,-0.846 -0.337,-1.79 -0.203,-2.797"
         id="path615" />
      <path
         inkscape:connector-curvature="0"
         style="fill:#e83434"
         d="m 375.684,400.804 c 0.297,0.926 0.511,1.884 0.646,2.865 0.149,0.969 0.068,1.857 -0.228,2.666 -0.134,0.362 -0.283,0.659 -0.432,0.86 -0.175,0.255 -0.377,0.391 -0.576,0.404 -0.054,-0.027 -0.123,-0.161 -0.191,-0.404 -0.134,-0.471 -0.295,-1.346 -0.497,-2.597 -0.296,-1.885 -0.928,-3.889 -1.885,-6.018 l 2.073,-0.362 c 0.431,0.794 0.794,1.656 1.09,2.586"
         id="path617" />
      <path
         inkscape:connector-curvature="0"
         style="fill:#e83434"
         d="m 363.8,398.367 0.403,1.224 c 1.037,3.109 1.548,6.111 1.522,8.977 -0.014,2.868 -0.485,4.537 -1.413,5.021 -0.23,-0.31 -0.365,-1.196 -0.42,-2.691 -0.173,-4.133 -0.859,-7.913 -2.085,-11.347 l 1.993,-1.184 z"
         id="path619" />
      <path
         inkscape:connector-curvature="0"
         style="fill:#f49c00"
         d="m 307.539,379.698 c -3.125,-0.273 -5.769,-2.017 -7.92,-5.219 -2.139,-3.2 -3.163,-6.937 -3.063,-11.185 0.088,-4.247 1.289,-7.79 3.577,-10.604 2.285,-2.812 5.005,-4.088 8.129,-3.815 3.137,0.275 5.782,2.019 7.921,5.22 2.138,3.2 3.163,6.937 3.074,11.185 -0.101,4.248 -1.301,7.789 -3.588,10.604 -2.287,2.812 -4.993,4.089 -8.13,3.814"
         id="path621" />
      <path
         inkscape:connector-curvature="0"
         style="fill:none;stroke:#e83927;stroke-width:2.15400004;stroke-linecap:round;stroke-linejoin:round;stroke-miterlimit:10"
         d="m 307.539,379.698 c 3.137,0.275 5.843,-1.002 8.13,-3.814 2.287,-2.815 3.487,-6.356 3.588,-10.604 0.089,-4.248 -0.935,-7.985 -3.074,-11.185 -2.139,-3.201 -4.784,-4.945 -7.921,-5.22 -3.124,-0.273 -5.844,1.003 -8.129,3.815 -2.288,2.814 -3.489,6.357 -3.577,10.604 -0.1,4.248 0.924,7.985 3.063,11.185 2.151,3.202 4.795,4.946 7.92,5.219 z"
         id="path623" />
      <path
         inkscape:connector-curvature="0"
         style="fill:#f49c00"
         d="m 317.25,339.245 c 9.946,-6.657 21.498,-9.416 34.652,-8.266 13.139,1.149 24.037,5.873 32.701,14.157 8.639,8.295 12.501,17.739 11.574,28.332 -0.924,10.579 -6.369,19.209 -16.315,25.877 -9.974,6.668 -21.524,9.429 -34.663,8.278 -13.156,-1.151 -24.052,-5.873 -32.689,-14.168 -8.652,-8.297 -12.514,-17.74 -11.589,-28.32 0.928,-10.592 6.371,-19.222 16.329,-25.89"
         id="path625" />
      <path
         inkscape:connector-curvature="0"
         style="fill:none;stroke:#e83927;stroke-width:2.15400004;stroke-linecap:round;stroke-linejoin:round;stroke-miterlimit:10"
         d="m 351.902,330.979 c 13.139,1.149 24.037,5.873 32.701,14.157 8.639,8.295 12.501,17.739 11.574,28.332 -0.924,10.579 -6.369,19.209 -16.315,25.877 -9.974,6.668 -21.524,9.429 -34.663,8.278 -13.156,-1.151 -24.052,-5.873 -32.689,-14.168 -8.652,-8.297 -12.514,-17.74 -11.589,-28.32 0.928,-10.593 6.371,-19.223 16.329,-25.891 9.946,-6.656 21.498,-9.415 34.652,-8.265 z"
         id="path627" />
      <path
         inkscape:connector-curvature="0"
         style="fill:#f49c00"
         d="m 386.174,360.86 c 0.166,-0.201 0.346,-0.401 0.539,-0.588 2.662,-2.779 5.568,-4.039 8.706,-3.763 3.124,0.272 5.58,2.001 7.344,5.168 1.764,3.167 2.332,6.865 1.682,11.064 -0.639,4.201 -2.297,7.703 -4.958,10.484 -2.675,2.778 -5.581,4.037 -8.706,3.764 -2.642,-0.23 -4.789,-1.486 -6.454,-3.767 l -0.025,-0.948 1.872,-21.414 z"
         id="path629" />
      <path
         inkscape:connector-curvature="0"
         style="fill:none;stroke:#e83927;stroke-width:2.15400004;stroke-linecap:square;stroke-linejoin:round;stroke-miterlimit:10"
         d="m 384.327,383.223 c 1.665,2.28 3.812,3.536 6.454,3.767 3.125,0.273 6.031,-0.985 8.706,-3.764 2.661,-2.782 4.319,-6.284 4.958,-10.484 0.65,-4.199 0.082,-7.897 -1.682,-11.064 -1.764,-3.167 -4.22,-4.896 -7.344,-5.168 -3.138,-0.276 -6.044,0.984 -8.706,3.763 -0.193,0.187 -0.373,0.387 -0.539,0.588"
         id="path631" />
      <path
         inkscape:connector-curvature="0"
         style="fill:#080101"
         d="m 397.951,342.665 c -2.493,-0.691 -4.875,-1.736 -7.131,-3.137 3.888,-0.417 6.66,-1.687 8.292,-3.801 0.486,-0.619 0.87,-1.302 1.167,-2.074 -4.341,0.824 -8.35,0.459 -12.009,-1.104 l 0.86,-0.114 c 0.576,-0.098 1.179,-0.329 1.818,-0.692 0.555,-0.316 1.118,-0.74 1.718,-1.269 0.513,-0.454 1.045,-0.975 1.599,-1.589 1.032,-1.14 1.76,-2.062 2.185,-2.74 0.25,-0.398 0.387,-0.724 0.422,-0.976 -0.941,0.268 -1.975,0.516 -3.089,0.743 -0.676,0.144 -1.404,0.269 -2.157,0.392 -1.124,0.185 -2.191,0.321 -3.182,0.383 -2.403,0.142 -4.409,-0.102 -5.989,-0.726 -0.078,-0.034 -0.157,-0.068 -0.247,-0.103 0.094,-0.006 0.176,0.002 0.256,-0.005 0.895,-0.043 2.144,-0.407 3.731,-1.106 1.885,-0.848 3.208,-1.3 3.973,-1.381 -1.875,-0.205 -3.364,-0.335 -4.479,-0.392 -0.928,-0.041 -1.918,-0.02 -2.98,0.09 -1.269,0.133 -2.653,0.376 -4.131,0.719 1.213,-0.744 2.618,-1.351 4.228,-1.845 0.597,-0.177 1.221,-0.353 1.87,-0.5 0.977,-0.224 2.02,-0.403 3.128,-0.548 0.451,-0.071 -0.952,-0.395 -4.214,-0.963 -3.206,-0.565 -5.558,-0.703 -7.044,-0.401 -2.131,0.421 -3.915,1.198 -5.35,2.315 0.308,-1.365 0.975,-2.657 1.989,-3.906 0.679,-0.805 2.012,-1.837 4.025,-3.081 1.873,-1.146 2.949,-1.714 3.243,-1.689 -1.504,-0.414 -3.294,-0.503 -5.369,-0.252 -4.141,0.543 -7.366,2.503 -9.664,5.91 0.317,-2.849 -0.555,-5.251 -2.613,-7.201 -0.65,-0.611 -1.347,-1.117 -2.085,-1.506 -0.709,-0.373 -0.998,-0.48 -0.862,-0.319 1.082,2.919 0.097,5.995 -2.956,9.227 -1.004,-1.345 -1.136,-3.694 -0.424,-7.037 0.636,-2.969 1.214,-4.622 1.716,-4.956 -1.293,0.426 -2.643,1.187 -4.051,2.294 -2.219,1.738 -3.643,3.803 -4.272,6.193 -0.758,-0.431 -1.519,-0.849 -2.309,-1.256 -3.708,-1.933 -7.365,-2.901 -11,-2.908 0.241,0.345 0.968,1.288 2.198,2.84 0.132,0.187 0.541,1.075 1.229,2.634 -1.747,-1.815 -4.091,-3.288 -7.003,-4.423 -0.785,-0.312 -1.545,-0.58 -2.296,-0.795 -2.026,-0.623 -3.916,-0.936 -5.674,-0.941 0.848,0.978 2.297,2.322 4.333,4.054 0.349,0.34 0.673,0.667 0.981,1.004 1.195,1.32 1.997,2.647 2.407,3.993 -0.872,-0.698 -1.739,-1.287 -2.602,-1.78 -0.707,-0.401 -1.409,-0.718 -2.115,-0.984 -2.957,-1.108 -6.47,-1.092 -10.527,0.026 0.581,0.145 1.297,0.452 2.161,0.931 0.838,0.466 1.794,1.104 2.901,1.89 1.12,0.799 2.004,1.5 2.64,2.108 0.662,0.625 1.075,1.149 1.24,1.582 -2.794,-0.488 -5.702,-0.621 -8.721,-0.398 -1.414,0.105 -2.684,0.265 -3.826,0.49 -0.562,0.111 -1.087,0.242 -1.574,0.388 -1.899,0.55 -3.529,1.11 -4.888,1.667 1.557,-0.039 3.026,-0.004 4.437,0.091 2.364,0.154 4.647,0.623 6.863,1.398 2.217,0.775 3.477,1.344 3.755,1.72 -3.021,1.937 -5.764,2.873 -8.231,2.806 -2.467,-0.066 -4.226,-0.33 -5.27,-0.771 1.246,1.676 2.433,2.929 3.562,3.769 1.242,0.934 2.675,1.56 4.294,1.864 -0.618,0.431 -2.586,0.232 -5.891,-0.598 -0.962,-0.274 -1.737,-0.529 -2.337,-0.772 0.043,2.586 1.227,4.512 3.533,5.782 2.404,0.953 5.044,0.873 7.928,-0.266 -1.689,1.244 -3.114,2.092 -4.261,2.532 -1.133,0.441 -1.682,0.704 -1.651,0.802 0.032,0.096 0.466,0.082 1.274,-0.052 0.836,-0.13 1.931,-0.452 3.274,-0.969 2.93,-1.055 5.699,-2.745 8.322,-5.096 0.895,-0.8 1.84,-1.569 2.837,-2.305 0.534,-0.373 1.083,-0.648 1.626,-0.831 0.488,-0.161 0.982,-0.252 1.47,-0.276 1.968,-0.099 3.404,0.324 4.294,1.28 0.888,0.956 1.372,1.606 1.462,1.979 0.072,-0.062 0.158,-0.122 0.243,-0.167 0.955,-0.566 2.174,-1.067 3.63,-1.493 0.541,-0.156 1.106,-0.282 1.708,-0.379 2.475,-0.336 4.691,-0.332 6.646,0.014 1.253,0.219 2.392,0.453 3.426,0.692 0.797,0.151 1.561,0.393 2.301,0.727 0.275,0.106 0.549,0.224 0.819,0.357 1.707,0.892 4.065,2.503 7.066,4.82 0.946,0.744 1.955,1.414 3.001,1.978 0.981,0.519 1.982,0.971 2.99,1.342 0.04,0.018 0.104,0.05 0.17,0.068 0.249,0.09 0.512,0.168 0.791,0.233 0.461,0.135 0.922,0.257 1.384,0.391 0.635,0.15 1.259,0.287 1.867,0.433 0.158,0.027 0.317,0.069 0.476,0.096 0.787,0.137 1.587,0.261 2.385,0.398 0.922,0.121 1.832,0.228 2.728,0.32 0.844,0.087 1.729,0.165 2.629,0.229 0.899,0.066 1.829,0.093 2.774,0.109 0.663,-0.011 1.312,-0.021 1.964,-0.06 0.324,0.002 0.648,0.004 0.959,0.004 0.229,0.008 0.446,-0.002 0.677,-0.008 0.891,0.01 1.777,-0.074 2.667,-0.227 0.864,-0.14 1.731,-0.321 2.574,-0.531 0.954,-0.24 1.85,-0.607 2.691,-1.116 0.757,-0.46 1.474,-0.952 2.14,-1.448 0.044,-0.021 0.072,-0.047 0.116,-0.084 0.505,-0.373 1.198,-0.881 2.103,-1.491 -1.229,0.149 -2.464,0.055 -3.692,-0.269"
         id="path633" />
      <path
         inkscape:connector-curvature="0"
         style="fill:#e83434"
         d="m 309.352,380.148 -1.067,-3.465 c 12.369,10.394 25.482,14.887 39.313,13.493 4.315,-0.434 8.453,-1.431 12.399,-3.007 1.979,-0.773 3.509,-1.508 4.614,-2.199 -3.55,8.307 -9.636,13.591 -18.281,15.837 -2.703,0.699 -5.497,1.049 -8.381,1.061 l -3.517,-0.188 c -8.957,-1.312 -15.994,-5.877 -21.128,-13.676 -1.601,-2.432 -2.911,-5.06 -3.952,-7.856"
         id="path635" />
      <path
         inkscape:connector-curvature="0"
         style="fill:#f092b1"
         d="m 329,388.368 c 4.694,1.432 9.463,2.125 14.324,2.056 -0.584,1.718 -1.199,2.983 -1.861,3.811 -1.347,1.679 -3.294,2.361 -5.837,2.036 -2.602,-0.332 -4.4,-1.476 -5.407,-3.415 -0.526,-1.013 -0.935,-2.513 -1.219,-4.488"
         id="path637" />
      <path
         inkscape:connector-curvature="0"
         style="fill:#ffffff"
         d="m 327.737,347.252 c 2.081,1.845 2.981,4.233 2.709,7.182 -0.259,2.948 -1.625,5.586 -4.083,7.911 -2.476,2.338 -5.323,3.682 -8.525,4.011 -3.22,0.352 -5.869,-0.406 -7.951,-2.263 -2.093,-1.846 -2.993,-4.235 -2.721,-7.184 0.272,-2.947 1.65,-5.584 4.111,-7.908 2.458,-2.326 5.291,-3.659 8.51,-4.013 3.204,-0.327 5.856,0.418 7.95,2.264"
         id="path639" />
      <path
         inkscape:connector-curvature="0"
         style="fill:#ffffff"
         d="m 334.547,351.738 c 1.49,-2.694 4.011,-4.323 7.534,-4.881 3.518,-0.543 7.024,0.156 10.517,2.081 3.465,1.94 5.911,4.558 7.314,7.83 1.403,3.27 1.357,6.266 -0.137,8.987 -1.522,2.717 -4.04,4.334 -7.56,4.878 -3.522,0.555 -7.029,-0.144 -10.493,-2.08 -3.492,-1.927 -5.939,-4.534 -7.342,-7.804 -1.403,-3.298 -1.356,-6.293 0.167,-9.011"
         id="path641" />
      <path
         inkscape:connector-curvature="0"
         d="m 325.939,353.905 c -0.775,-1.227 -1.818,-1.96 -3.154,-2.197 -1.335,-0.236 -2.55,0.072 -3.671,0.925 -1.124,0.88 -1.804,2.048 -2.042,3.529 -0.237,1.482 0.019,2.823 0.77,4.05 0.773,1.242 1.814,1.987 3.149,2.224 1.334,0.237 2.551,-0.072 3.674,-0.952 1.138,-0.878 1.828,-2.044 2.068,-3.526 0.238,-1.482 -0.021,-2.822 -0.794,-4.053"
         id="path643" />
      <path
         inkscape:connector-curvature="0"
         d="m 344.767,355.054 c 1.093,-1.089 2.393,-1.629 3.926,-1.618 1.534,0.01 2.832,0.548 3.922,1.614 1.088,1.094 1.628,2.393 1.618,3.926 -0.012,1.532 -0.549,2.831 -1.615,3.921 -1.093,1.104 -2.394,1.657 -3.928,1.645 -1.532,-0.01 -2.83,-0.549 -3.92,-1.641 -1.103,-1.094 -1.656,-2.394 -1.645,-3.927 0.012,-1.534 0.549,-2.83 1.642,-3.92"
         id="path645" />
      <path
         inkscape:connector-curvature="0"
         style="fill:#e83827"
         d="m 321.327,362.187 c 2.379,-2.223 5.102,-3.202 8.165,-2.933 3.065,0.268 5.575,1.704 7.532,4.306 1.971,2.591 2.807,5.584 2.51,8.976 -0.296,3.392 -1.639,6.193 -4.029,8.402 -2.38,2.225 -5.101,3.202 -8.166,2.934 -3.064,-0.269 -5.575,-1.703 -7.532,-4.307 -1.969,-2.589 -2.807,-5.582 -2.508,-8.975 0.295,-3.392 1.639,-6.193 4.028,-8.403"
         id="path647" />
    </g>
  </g>
</svg>
