<?xml version="1.0" encoding="UTF-8" standalone="no"?>
<!-- Created with Inkscape (http://www.inkscape.org/) -->

<svg
   xmlns:dc="http://purl.org/dc/elements/1.1/"
   xmlns:cc="http://creativecommons.org/ns#"
   xmlns:rdf="http://www.w3.org/1999/02/22-rdf-syntax-ns#"
   xmlns:svg="http://www.w3.org/2000/svg"
   xmlns="http://www.w3.org/2000/svg"
   xmlns:sodipodi="http://sodipodi.sourceforge.net/DTD/sodipodi-0.dtd"
   xmlns:inkscape="http://www.inkscape.org/namespaces/inkscape"
   width="166.42506"
   height="183.54059"
   id="svg5696"
   version="1.1"
   inkscape:version="0.48.4 r9939"
   sodipodi:docname="ernie1.svg">
  <defs
     id="defs5698">
    <clipPath
       id="SVGID_2_">
      <rect
         height="88.862999"
         width="111.498"
         y="518.96198"
         x="382.04999"
         id="use1087" />
    </clipPath>
    <clipPath
       id="SVGID_4_">
      <rect
         height="41.314999"
         width="49.584999"
         y="525.19397"
         x="389.84698"
         id="use1111" />
    </clipPath>
  </defs>
  <sodipodi:namedview
     id="base"
     pagecolor="#ffffff"
     bordercolor="#666666"
     borderopacity="1.0"
     inkscape:pageopacity="0.0"
     inkscape:pageshadow="2"
     inkscape:zoom="0.77472527"
     inkscape:cx="-78.966273"
     inkscape:cy="111.98875"
     inkscape:current-layer="layer1"
     inkscape:document-units="px"
     showgrid="false"
     inkscape:window-width="763"
     inkscape:window-height="591"
     inkscape:window-x="592"
     inkscape:window-y="97"
     inkscape:window-maximized="0"
     fit-margin-top="0"
     fit-margin-left="0"
     fit-margin-right="0"
     fit-margin-bottom="0" />
  <metadata
     id="metadata5701">
    <rdf:RDF>
      <cc:Work
         rdf:about="">
        <dc:format>image/svg+xml</dc:format>
        <dc:type
           rdf:resource="http://purl.org/dc/dcmitype/StillImage" />
        <dc:title></dc:title>
      </cc:Work>
    </rdf:RDF>
  </metadata>
  <g
     id="layer1"
     inkscape:label="Layer 1"
     inkscape:groupmode="layer"
     transform="translate(-396.90957,-13.554514)">
    <g
       transform="translate(153.34177,-59.951486)"
       id="g2169">
      <path
         inkscape:connector-curvature="0"
         style="fill:#e83434"
         d="m 332.259,229.189 c 1.895,-0.107 3.187,-0.164 3.888,-0.168 3.917,-0.406 7.466,-0.414 10.642,-0.024 5.381,0.587 9.372,2.226 11.943,4.912 2.397,2.516 2.824,4.99 1.28,7.397 -1.657,2.587 -5.093,4.023 -10.313,4.309 -6.173,0.335 -13.776,-1.117 -22.81,-4.355 -0.214,-0.083 -0.351,-0.268 -0.401,-0.567 -0.063,-0.3 -0.063,-0.764 0.025,-1.406 0.087,-0.605 0.287,-1.826 0.625,-3.679 0.465,-2.584 0.842,-4.687 1.104,-6.299 0.916,0.016 2.26,-0.029 4.017,-0.12"
         id="path2171" />
      <path
         inkscape:connector-curvature="0"
         style="fill:none;stroke:#e83927;stroke-width:4.27600002;stroke-miterlimit:10"
         d="m 332.259,229.189 c -1.757,0.091 -3.101,0.136 -4.017,0.12 -0.262,1.612 -0.639,3.715 -1.104,6.299 -0.338,1.853 -0.538,3.074 -0.625,3.679 -0.088,0.642 -0.088,1.106 -0.025,1.406 0.05,0.299 0.187,0.484 0.401,0.567 9.034,3.238 16.637,4.69 22.81,4.355 5.22,-0.286 8.656,-1.722 10.313,-4.309 1.544,-2.407 1.117,-4.881 -1.28,-7.397 -2.571,-2.686 -6.562,-4.325 -11.943,-4.912 -3.176,-0.39 -6.725,-0.382 -10.642,0.024 -0.701,0.004 -1.993,0.061 -3.888,0.168 z"
         id="path2173" />
      <path
         inkscape:connector-curvature="0"
         style="fill:#e83434"
         d="m 336.147,220.497 c 2.322,-0.245 4.681,-0.326 7.052,-0.268 2.823,0.071 5.282,0.339 7.353,0.831 -1.907,1.035 -3.398,3.479 -4.467,7.357 -0.263,0.96 -0.59,2.247 -0.954,3.862 -0.3,1.174 -0.577,1.82 -0.827,1.927 -1.205,0.542 -4.152,0.298 -8.834,-0.746 -4.228,-0.954 -7.215,-1.85 -8.957,-2.699 0.087,-0.605 0.287,-1.826 0.625,-3.679 0.465,-2.583 0.842,-4.687 1.104,-6.299 0.916,0.016 2.26,-0.028 4.017,-0.12 1.895,-0.108 3.187,-0.164 3.888,-0.168 v 0.002 z"
         id="path2175" />
      <path
         inkscape:connector-curvature="0"
         style="fill:#f3f3f3"
         d="m 326.475,240.731 c -0.062,-0.299 -0.062,-0.763 0.026,-1.406 0.286,0.131 0.588,0.275 0.903,0.405 l 1.355,0.507 c 1.418,0.519 3.023,0.995 4.842,1.429 0.867,0.193 1.656,0.351 2.371,0.471 4.38,0.951 7.152,1.162 8.32,0.632 0.25,-0.106 0.527,-0.752 0.827,-1.927 0.364,-1.615 0.69,-2.902 0.953,-3.861 1.068,-3.827 2.536,-6.271 4.406,-7.318 3.537,0.831 6.272,2.26 8.218,4.285 2.42,2.515 2.86,4.988 1.304,7.395 -1.657,2.588 -5.081,4.024 -10.288,4.309 -6.173,0.335 -13.789,-1.117 -22.835,-4.353 -0.215,-0.084 -0.352,-0.268 -0.402,-0.568"
         id="path2177" />
      <path
         inkscape:connector-curvature="0"
         style="fill:#f3f3f3"
         d="m 329.612,234.132 c 0.552,-0.614 1.217,-0.932 2.007,-0.95 0.79,-0.02 1.468,0.265 2.033,0.855 0.551,0.589 0.828,1.298 0.828,2.138 0,0.854 -0.277,1.588 -0.828,2.202 -0.565,0.617 -1.243,0.934 -2.033,0.952 -0.79,0.019 -1.455,-0.266 -2.007,-0.856 -0.554,-0.588 -0.828,-1.31 -0.828,-2.163 0,-0.841 0.274,-1.562 0.828,-2.178"
         id="path2179" />
      <path
         inkscape:connector-curvature="0"
         style="fill:#f3f3f3"
         d="m 348.933,228.381 c 0.038,-0.013 0.065,-0.039 0.102,-0.052 l -0.025,0.075 c -0.012,-0.011 -0.039,-0.023 -0.077,-0.023"
         id="path2181" />
      <path
         inkscape:connector-curvature="0"
         style="fill:#f3f3f3"
         d="m 347.403,228.04 c 0.602,0.05 1.118,0.164 1.53,0.341 -0.916,0.436 -1.817,1.185 -2.683,2.221 -0.804,0.935 -1.833,2.441 -3.089,4.491 -0.339,-0.055 -0.764,-0.145 -1.305,-0.247 -0.464,-0.088 -0.839,-0.181 -1.128,-0.273 0.012,-0.692 0.627,-1.809 1.832,-3.356 1.241,-1.573 2.322,-2.577 3.237,-3.038 0.363,-0.171 0.904,-0.221 1.606,-0.139"
         id="path2183" />
      <path
         inkscape:connector-curvature="0"
         style="fill:#e83434"
         d="m 293.897,238.431 c -1.914,-0.061 -3.222,-0.086 -3.932,-0.075 -3.959,-0.307 -7.551,-0.233 -10.761,0.222 -5.443,0.699 -9.478,2.392 -12.08,5.078 -2.423,2.515 -2.854,4.944 -1.293,7.262 1.674,2.491 5.151,3.817 10.428,3.976 6.244,0.183 13.932,-1.411 23.07,-4.785 0.215,-0.087 0.354,-0.27 0.407,-0.564 0.062,-0.295 0.062,-0.749 -0.025,-1.374 -0.091,-0.59 -0.295,-1.778 -0.636,-3.583 -0.47,-2.514 -0.852,-4.563 -1.118,-6.132 -0.925,0.035 -2.284,0.024 -4.06,-0.025"
         id="path2185" />
      <path
         inkscape:connector-curvature="0"
         style="fill:none;stroke:#e83927;stroke-width:4.27600002;stroke-miterlimit:10"
         d="m 293.897,238.431 c 1.776,0.049 3.135,0.06 4.06,0.025 0.266,1.569 0.648,3.618 1.118,6.132 0.341,1.805 0.545,2.993 0.636,3.583 0.087,0.625 0.087,1.079 0.025,1.374 -0.053,0.294 -0.192,0.477 -0.407,0.564 -9.138,3.374 -16.826,4.968 -23.07,4.785 -5.277,-0.159 -8.754,-1.485 -10.428,-3.976 -1.562,-2.318 -1.13,-4.747 1.293,-7.262 2.602,-2.686 6.637,-4.379 12.08,-5.078 3.21,-0.455 6.802,-0.529 10.761,-0.222 0.71,-0.011 2.018,0.014 3.932,0.075 z"
         id="path2187" />
      <path
         inkscape:connector-curvature="0"
         style="fill:#e83434"
         d="m 289.965,238.381 c -2.349,-0.184 -4.734,-0.208 -7.131,-0.098 -2.856,0.135 -5.343,0.454 -7.436,0.981 1.927,0.97 3.439,3.325 4.517,7.092 0.267,0.932 0.595,2.182 0.964,3.753 0.304,1.141 0.583,1.767 0.837,1.864 1.218,0.504 4.201,0.197 8.934,-0.931 4.276,-1.031 7.295,-1.975 9.061,-2.847 -0.091,-0.589 -0.295,-1.778 -0.636,-3.583 -0.47,-2.513 -0.852,-4.562 -1.118,-6.132 -0.925,0.036 -2.284,0.024 -4.06,-0.024 -1.914,-0.062 -3.222,-0.086 -3.932,-0.075"
         id="path2189" />
      <path
         inkscape:connector-curvature="0"
         style="fill:#f3f3f3"
         d="m 299.748,249.582 c 0.062,-0.295 0.062,-0.749 -0.026,-1.374 -0.293,0.135 -0.597,0.281 -0.914,0.416 l -1.369,0.529 c -1.434,0.539 -3.058,1.042 -4.899,1.508 -0.877,0.209 -1.674,0.381 -2.398,0.516 -4.429,1.03 -7.233,1.3 -8.413,0.809 -0.255,-0.098 -0.533,-0.724 -0.837,-1.864 -0.369,-1.571 -0.698,-2.822 -0.965,-3.755 -1.078,-3.717 -2.562,-6.072 -4.453,-7.054 -3.579,0.895 -6.345,2.356 -8.31,4.38 -2.451,2.515 -2.895,4.945 -1.32,7.262 1.674,2.49 5.138,3.816 10.402,3.974 6.244,0.185 13.945,-1.41 23.095,-4.783 0.215,-0.086 0.355,-0.271 0.407,-0.564"
         id="path2191" />
      <path
         inkscape:connector-curvature="0"
         style="fill:#f3f3f3"
         d="m 296.575,243.202 c -0.558,-0.589 -1.231,-0.884 -2.03,-0.884 -0.8,0 -1.485,0.295 -2.055,0.884 -0.561,0.59 -0.839,1.288 -0.839,2.11 0,0.834 0.278,1.546 0.839,2.135 0.57,0.589 1.255,0.884 2.055,0.884 0.799,0 1.472,-0.295 2.03,-0.884 0.558,-0.589 0.837,-1.301 0.837,-2.135 0,-0.822 -0.279,-1.52 -0.837,-2.11"
         id="path2193" />
      <path
         inkscape:connector-curvature="0"
         style="fill:#f3f3f3"
         d="m 277.034,238.026 c -0.038,-0.012 -0.063,-0.038 -0.1,-0.049 l 0.025,0.072 c 0.012,-0.012 0.037,-0.023 0.075,-0.023"
         id="path2195" />
      <path
         inkscape:connector-curvature="0"
         style="fill:#f3f3f3"
         d="m 278.583,237.658 c -0.61,0.061 -1.131,0.184 -1.549,0.368 0.926,0.405 1.84,1.116 2.716,2.11 0.813,0.895 1.852,2.342 3.121,4.318 0.343,-0.061 0.775,-0.16 1.32,-0.27 0.469,-0.098 0.849,-0.197 1.141,-0.294 -0.012,-0.675 -0.634,-1.754 -1.853,-3.239 -1.255,-1.509 -2.346,-2.466 -3.272,-2.896 -0.369,-0.158 -0.914,-0.195 -1.624,-0.097"
         id="path2197" />
      <polygon
         style="fill:#5390cd"
         points="315.458,218.03 315.458,200.702 332.923,200.702 332.923,217.93 "
         id="polygon2199" />
      <line
         style="fill:none;stroke:#00398a;stroke-width:3.84800005;stroke-miterlimit:10"
         x1="315.45801"
         y1="218.03"
         x2="332.923"
         y2="217.92999"
         id="line2201" />
      <path
         inkscape:connector-curvature="0"
         style="fill:#5390cd"
         d="m 329.679,222.776 -1.255,0.063 -0.138,-32.404 c 6.274,2.102 15.044,4.189 26.311,6.288 -0.84,7.917 -2.131,15.9 -3.888,23.972 -7.164,1.011 -14.165,1.704 -21.03,2.081"
         id="path2203" />
      <path
         inkscape:connector-curvature="0"
         style="fill:none;stroke:#00398a;stroke-width:4.27600002;stroke-miterlimit:10"
         d="m 329.679,222.776 c 6.865,-0.377 13.866,-1.07 21.03,-2.081 1.757,-8.072 3.048,-16.055 3.888,-23.972 -11.267,-2.099 -20.037,-4.186 -26.311,-6.288 l 0.138,32.404 1.255,-0.063 z"
         id="path2205" />
      <path
         inkscape:connector-curvature="0"
         style="fill:#a4c6e9"
         d="m 328.399,227.232 0.025,-4.393 c 7.266,-0.362 14.694,-1.069 22.285,-2.144 l -1.157,5.029 -7.677,1.115 c -5.771,0.681 -10.264,0.808 -13.476,0.393"
         id="path2207" />
      <path
         inkscape:connector-curvature="0"
         style="fill:none;stroke:#00398a;stroke-width:4.27600002;stroke-miterlimit:10"
         d="m 328.399,227.232 c 3.212,0.415 7.705,0.288 13.476,-0.393 l 7.677,-1.115 1.157,-5.029 c -7.591,1.075 -15.019,1.782 -22.285,2.144 l -0.025,4.393 z"
         id="path2209" />
      <path
         inkscape:connector-curvature="0"
         style="fill:#a4c6e9"
         d="m 328.399,227.232 0.025,-4.393 c 7.266,-0.362 14.694,-1.069 22.285,-2.144 l -1.157,5.029 -7.677,1.115 c -5.771,0.681 -10.264,0.808 -13.476,0.393"
         id="path2211" />
      <path
         inkscape:connector-curvature="0"
         style="fill:#5390cd"
         d="m 329.679,222.776 -1.255,0.063 -0.138,-32.404 c 6.274,2.102 15.044,4.189 26.311,6.288 -0.84,7.917 -2.131,15.9 -3.888,23.972 -7.164,1.011 -14.165,1.704 -21.03,2.081"
         id="path2213" />
      <path
         inkscape:connector-curvature="0"
         style="fill:#a4c6e9"
         d="m 328.399,227.232 0.025,-4.393 c 7.266,-0.362 14.694,-1.069 22.285,-2.144 l -1.157,5.029 -7.677,1.115 c -5.771,0.681 -10.264,0.808 -13.476,0.393"
         id="path2215" />
      <path
         inkscape:connector-curvature="0"
         style="fill:#5390cd"
         d="m 300.397,241.966 c -7.491,1.192 -14.178,-1.256 -20.036,-7.316 l 20.223,-39.058 27.505,2.622 -27.692,43.752 z"
         id="path2217" />
      <path
         inkscape:connector-curvature="0"
         style="fill:none;stroke:#00398a;stroke-width:3.84800005;stroke-miterlimit:10"
         d="m 300.397,241.966 27.692,-43.752 -27.505,-2.622 -20.223,39.058 c 5.858,6.06 12.545,8.508 20.036,7.316 z"
         id="path2219" />
      <path
         inkscape:connector-curvature="0"
         style="fill:#a4c6e9"
         d="m 302.304,238.941 -1.907,3.025 c -7.491,1.192 -14.178,-1.256 -20.036,-7.316 l 1.982,-3.84 c 6.136,4.518 12.797,7.229 19.961,8.131"
         id="path2221" />
      <path
         inkscape:connector-curvature="0"
         style="fill:#5390cd"
         d="m 282.343,230.81 18.241,-35.218 27.505,2.622 -25.785,40.727 c -7.164,-0.902 -13.825,-3.613 -19.961,-8.131"
         id="path2223" />
      <polygon
         style="fill:#5390cd"
         points="315.351,218.191 315.351,200.862 332.817,200.862 332.817,218.089 "
         id="polygon2225" />
      <path
         inkscape:connector-curvature="0"
         style="fill:#00398a"
         d="m 348.67,155.328 -0.224,-4.995 -46.725,1.03 -0.477,4.617 c -5.609,16.663 -7.541,32.258 -5.798,46.775 5.861,1.569 12.661,2.597 20.403,3.086 12.558,0.791 25.495,-0.113 38.794,-2.684 1.845,-14.818 -0.149,-30.765 -5.973,-47.829"
         id="path2227" />
      <path
         inkscape:connector-curvature="0"
         style="fill:none;stroke:#00398a;stroke-width:3.84800005;stroke-miterlimit:10"
         d="m 348.67,155.328 c 5.824,17.064 7.818,33.011 5.973,47.829 -13.299,2.571 -26.236,3.475 -38.794,2.684 -7.742,-0.489 -14.542,-1.517 -20.403,-3.086 -1.743,-14.517 0.189,-30.112 5.798,-46.775 l 0.477,-4.617 46.725,-1.03 0.224,4.995 z"
         id="path2229" />
      <path
         inkscape:connector-curvature="0"
         style="fill:#fedb00"
         d="m 379.029,209.103 c -0.999,1.458 -1.622,2.588 -1.884,3.378 -0.381,1.136 -0.19,1.973 0.574,2.513 0.62,0.415 1.887,0.211 3.8,-0.63 1.832,-0.799 2.933,-1.517 3.294,-2.147 0.619,1.413 1.227,2.738 1.834,3.982 1.193,2.429 2.161,3.792 2.885,4.096 2.313,0.996 3.598,0.178 3.856,-2.466 0.133,-1.318 -0.002,-3.089 -0.429,-5.316 0.552,0.693 1.772,1.651 3.659,2.874 1.979,1.255 3.269,1.86 3.882,1.809 2.382,-0.199 2.8,-1.655 1.243,-4.35 -0.452,-0.783 -1.608,-2.295 -3.456,-4.531 0.7,0.634 2.106,1.075 4.224,1.307 2.619,0.285 4.224,-0.136 4.808,-1.264 1.612,-3.16 -0.809,-5.388 -7.284,-6.686 -3.235,-0.635 -6.628,-0.959 -10.191,-0.984 l -4.484,-3.484 c -3.838,-2.754 -7.832,-5.249 -11.994,-7.482 -6.175,-3.325 -12.174,-5.791 -17.992,-7.398 l 3.405,8.107 c 1.775,0.592 3.562,1.258 5.354,1.999 3.936,1.625 7.486,3.449 10.651,5.474 2.958,1.895 5.172,3.702 6.641,5.423 0.419,0.487 0.339,1.305 -0.243,2.434 -0.244,0.466 -0.962,1.571 -2.153,3.342"
         id="path2231" />
      <path
         inkscape:connector-curvature="0"
         style="fill:none;stroke:#e83927;stroke-width:4.38600016;stroke-miterlimit:10"
         d="m 379.029,209.103 c 1.191,-1.771 1.909,-2.876 2.153,-3.342 0.582,-1.129 0.662,-1.947 0.243,-2.434 -1.469,-1.721 -3.683,-3.528 -6.641,-5.423 -3.165,-2.025 -6.715,-3.849 -10.651,-5.474 -1.792,-0.741 -3.579,-1.407 -5.354,-1.999 l -3.405,-8.107 c 5.818,1.607 11.817,4.073 17.992,7.398 4.162,2.233 8.156,4.728 11.994,7.482 l 4.484,3.484 c 3.563,0.025 6.956,0.349 10.191,0.984 6.475,1.298 8.896,3.526 7.284,6.686 -0.584,1.128 -2.189,1.549 -4.808,1.264 -2.118,-0.232 -3.524,-0.673 -4.224,-1.307 1.848,2.236 3.004,3.748 3.456,4.531 1.557,2.695 1.139,4.151 -1.243,4.35 -0.613,0.051 -1.903,-0.554 -3.882,-1.809 -1.887,-1.223 -3.107,-2.181 -3.659,-2.874 0.427,2.227 0.562,3.998 0.429,5.316 -0.258,2.644 -1.543,3.462 -3.856,2.466 -0.724,-0.304 -1.692,-1.667 -2.885,-4.096 -0.607,-1.244 -1.215,-2.569 -1.834,-3.982 -0.361,0.63 -1.462,1.348 -3.294,2.147 -1.913,0.841 -3.18,1.045 -3.8,0.63 -0.764,-0.538 -0.955,-1.377 -0.574,-2.513 0.262,-0.79 0.885,-1.92 1.884,-3.378 z"
         id="path2233" />
      <path
         inkscape:connector-curvature="0"
         style="fill:#f49c00"
         d="m 378.951,209.032 c -0.999,1.457 -1.621,2.587 -1.883,3.377 -0.379,1.135 -0.187,1.974 0.574,2.513 0.619,0.414 1.889,0.211 3.803,-0.63 1.832,-0.8 2.931,-1.517 3.291,-2.148 0.618,1.413 1.228,2.739 1.836,3.983 1.192,2.429 2.161,3.792 2.883,4.096 2.313,0.995 3.599,0.178 3.858,-2.466 0.131,-1.319 -0.004,-3.089 -0.429,-5.316 0.552,0.693 1.772,1.651 3.661,2.874 1.975,1.254 3.266,1.86 3.879,1.809 2.38,-0.199 2.801,-1.655 1.244,-4.35 -0.453,-0.784 -1.608,-2.297 -3.456,-4.532 0.697,0.635 2.107,1.075 4.224,1.308 2.617,0.286 4.224,-0.136 4.807,-1.265 1.614,-3.16 -0.807,-5.386 -7.284,-6.686 -3.234,-0.633 -6.629,-0.959 -10.191,-0.982 l -4.485,-3.485 c -3.838,-2.755 -7.832,-5.249 -11.994,-7.481 -6.173,-3.326 -12.175,-5.792 -17.991,-7.4 l 3.403,8.108 c 1.778,0.593 3.563,1.258 5.356,1.998 3.935,1.626 7.485,3.451 10.65,5.475 2.958,1.895 5.173,3.701 6.643,5.422 0.419,0.488 0.339,1.306 -0.243,2.434 -0.244,0.465 -0.962,1.572 -2.156,3.344"
         id="path2235" />
      <path
         inkscape:connector-curvature="0"
         style="fill:#003e93"
         d="m 374.003,205.878 c 3.382,-5.407 6.754,-10.821 10.122,-16.254 l -37.209,-27.875 c -5.357,3.577 -8.631,7.617 -9.81,12.131 l 36.897,31.998 z"
         id="path2237" />
      <path
         inkscape:connector-curvature="0"
         style="fill:none;stroke:#003e93;stroke-width:4.27600002;stroke-linecap:round;stroke-linejoin:round;stroke-miterlimit:10"
         d="M 374.003,205.878 337.106,173.88 c 1.179,-4.514 4.453,-8.554 9.81,-12.131 l 37.209,27.875 c -3.368,5.433 -6.74,10.847 -10.122,16.254 z"
         id="path2239" />
      <path
         inkscape:connector-curvature="0"
         style="fill:#e83434"
         d="m 355.193,167.937 -8.277,-6.188 c -5.357,3.577 -8.631,7.617 -9.81,12.131 l 7.49,6.482 10.597,-12.425 z"
         id="path2241" />
      <polygon
         style="fill:#f3f3f3"
         points="362.357,173.324 355.193,167.937 344.596,180.362 351.142,186.06 "
         id="polygon2243" />
      <path
         inkscape:connector-curvature="0"
         style="fill:#e83434"
         d="m 384.125,189.624 -6.72,-5.035 -11.12,14.591 7.718,6.698 c 3.382,-5.407 6.754,-10.821 10.122,-16.254"
         id="path2245" />
      <polygon
         style="fill:#fedb00"
         points="377.405,184.589 369.39,178.596 358.349,192.294 366.285,199.18 "
         id="polygon2247" />
      <polygon
         style="fill:#0076bf"
         points="369.39,178.596 362.357,173.324 351.142,186.06 358.349,192.294 "
         id="polygon2249" />
      <path
         inkscape:connector-curvature="0"
         style="fill:#fedb00"
         d="m 274.627,212.203 c 1.061,1.412 1.734,2.514 2.029,3.291 0.43,1.118 0.274,1.964 -0.465,2.534 -0.599,0.443 -1.876,0.294 -3.823,-0.464 -1.865,-0.716 -2.996,-1.387 -3.382,-2 -0.557,1.437 -1.108,2.789 -1.661,4.057 -1.086,2.48 -1.993,3.882 -2.702,4.217 -2.267,1.095 -3.587,0.335 -3.959,-2.295 -0.192,-1.313 -0.132,-3.087 0.195,-5.33 -0.52,0.717 -1.696,1.726 -3.531,3.031 -1.919,1.339 -3.183,1.999 -3.796,1.976 -2.386,-0.097 -2.87,-1.532 -1.431,-4.293 0.418,-0.801 1.505,-2.363 3.256,-4.675 -0.67,0.664 -2.059,1.164 -4.164,1.489 -2.602,0.399 -4.226,0.048 -4.857,-1.054 -1.749,-3.087 0.575,-5.416 6.986,-6.996 3.203,-0.773 6.58,-1.245 10.136,-1.423 l 4.33,-3.677 c 3.715,-2.918 7.595,-5.583 11.655,-7.994 6.021,-3.59 11.91,-6.313 17.65,-8.172 l -3.048,8.246 c -1.748,0.668 -3.503,1.412 -5.263,2.229 -3.861,1.794 -7.328,3.771 -10.401,5.931 -2.872,2.022 -5.005,3.924 -6.4,5.705 -0.396,0.506 -0.281,1.319 0.35,2.421 0.264,0.455 1.029,1.527 2.296,3.246"
         id="path2251" />
      <path
         inkscape:connector-curvature="0"
         style="fill:none;stroke:#e83927;stroke-width:4.38500023;stroke-miterlimit:10"
         d="m 274.627,212.203 c -1.267,-1.719 -2.032,-2.791 -2.296,-3.246 -0.631,-1.102 -0.746,-1.915 -0.35,-2.421 1.395,-1.781 3.528,-3.683 6.4,-5.705 3.073,-2.16 6.54,-4.137 10.401,-5.931 1.76,-0.817 3.515,-1.561 5.263,-2.229 l 3.048,-8.246 c -5.74,1.859 -11.629,4.582 -17.65,8.172 -4.06,2.411 -7.94,5.076 -11.655,7.994 l -4.33,3.677 c -3.556,0.178 -6.933,0.65 -10.136,1.423 -6.411,1.58 -8.735,3.909 -6.986,6.996 0.631,1.102 2.255,1.453 4.857,1.054 2.105,-0.325 3.494,-0.825 4.164,-1.489 -1.751,2.312 -2.838,3.874 -3.256,4.675 -1.439,2.761 -0.955,4.196 1.431,4.293 0.613,0.023 1.877,-0.637 3.796,-1.976 1.835,-1.304 3.011,-2.314 3.531,-3.031 -0.327,2.243 -0.387,4.017 -0.195,5.33 0.372,2.63 1.692,3.39 3.959,2.296 0.709,-0.336 1.616,-1.738 2.702,-4.218 0.553,-1.268 1.104,-2.62 1.661,-4.057 0.386,0.615 1.517,1.284 3.382,2.002 1.947,0.756 3.224,0.905 3.823,0.462 0.739,-0.57 0.895,-1.415 0.465,-2.534 -0.295,-0.777 -0.968,-1.879 -2.029,-3.291 l 0,0 z"
         id="path2253" />
      <path
         inkscape:connector-curvature="0"
         style="fill:#f49c00"
         d="m 274.699,212.128 c 1.063,1.412 1.736,2.514 2.031,3.291 0.428,1.118 0.273,1.963 -0.466,2.535 -0.6,0.442 -1.877,0.293 -3.823,-0.464 -1.866,-0.718 -2.994,-1.388 -3.383,-2.002 -0.556,1.438 -1.107,2.789 -1.659,4.059 -1.087,2.477 -1.994,3.88 -2.702,4.215 -2.268,1.095 -3.588,0.335 -3.96,-2.295 -0.192,-1.312 -0.131,-3.085 0.196,-5.328 -0.521,0.715 -1.697,1.726 -3.532,3.029 -1.919,1.339 -3.183,1.999 -3.795,1.976 -2.388,-0.095 -2.87,-1.531 -1.432,-4.292 0.418,-0.801 1.505,-2.362 3.256,-4.677 -0.671,0.666 -2.06,1.167 -4.164,1.49 -2.602,0.4 -4.224,0.047 -4.858,-1.054 -1.748,-3.086 0.576,-5.415 6.988,-6.996 3.202,-0.772 6.579,-1.244 10.135,-1.423 l 4.33,-3.677 c 3.713,-2.918 7.595,-5.582 11.654,-7.994 6.021,-3.588 11.911,-6.313 17.65,-8.17 l -3.047,8.244 c -1.749,0.67 -3.504,1.412 -5.263,2.229 -3.862,1.796 -7.328,3.773 -10.401,5.931 -2.874,2.022 -5.005,3.924 -6.4,5.706 -0.396,0.505 -0.281,1.318 0.35,2.421 0.264,0.455 1.028,1.527 2.295,3.246"
         id="path2255" />
      <path
         inkscape:connector-curvature="0"
         style="fill:#003e93"
         d="m 279.505,208.798 c -3.612,-5.255 -7.213,-10.514 -10.817,-15.795 l 35.956,-29.462 c 5.507,3.339 8.952,7.231 10.326,11.689 l -35.465,33.568 z"
         id="path2257" />
      <path
         inkscape:connector-curvature="0"
         style="fill:none;stroke:#003e93;stroke-width:4.27600002;stroke-linecap:round;stroke-linejoin:round;stroke-miterlimit:10"
         d="M 279.505,208.798 314.97,175.23 c -1.374,-4.458 -4.819,-8.35 -10.326,-11.689 l -35.956,29.462 c 3.604,5.281 7.205,10.54 10.817,15.795 z"
         id="path2259" />
      <path
         inkscape:connector-curvature="0"
         style="fill:#e83434"
         d="m 296.646,170.081 7.998,-6.54 c 5.507,3.339 8.952,7.231 10.326,11.689 l -7.198,6.801 -11.126,-11.95 z"
         id="path2261" />
      <polygon
         style="fill:#f3f3f3"
         points="289.723,175.773 296.646,170.081 307.772,182.031 301.479,188.007 "
         id="polygon2263" />
      <path
         inkscape:connector-curvature="0"
         style="fill:#e83434"
         d="m 268.688,193.003 6.495,-5.323 11.742,14.092 -7.42,7.026 c -3.612,-5.255 -7.213,-10.514 -10.817,-15.795"
         id="path2265" />
      <polygon
         style="fill:#fedb00"
         points="275.183,187.68 282.927,181.346 294.553,194.549 286.925,201.772 "
         id="polygon2267" />
      <polygon
         style="fill:#0076bf"
         points="282.927,181.346 289.723,175.773 301.479,188.007 294.553,194.549 "
         id="polygon2269" />
      <path
         inkscape:connector-curvature="0"
         style="fill:#fedb00"
         d="m 294.896,196.105 c 0.1,2.247 0.277,4.455 0.527,6.65 5.86,1.569 12.66,2.597 20.402,3.086 12.583,0.791 25.52,-0.113 38.819,-2.684 0.39,-3.213 0.602,-6.337 0.652,-9.361 -13.889,2.058 -26.826,3.161 -38.819,3.313 -8.131,0.099 -15.322,-0.238 -21.581,-1.004"
         id="path2271" />
      <path
         inkscape:connector-curvature="0"
         style="fill:#fedb00"
         d="m 319.312,157.761 c -6.787,0.063 -12.936,-0.176 -18.42,-0.727 -0.94,2.824 -1.794,5.733 -2.56,8.708 5.911,0.613 12.559,0.878 19.95,0.777 10.289,-0.15 21.305,-0.991 33.049,-2.535 -0.664,-2.471 -1.505,-5.219 -2.508,-8.231 -10.454,1.244 -20.289,1.909 -29.511,2.008"
         id="path2273" />
      <path
         inkscape:connector-curvature="0"
         style="fill:#e83434"
         d="m 300.892,157.034 c 5.484,0.551 11.633,0.79 18.42,0.727 9.222,-0.099 19.057,-0.764 29.511,-2.008 l -0.153,-0.425 -0.224,-4.995 -46.725,1.03 -0.502,4.617 -0.327,1.054 z"
         id="path2275" />
      <path
         inkscape:connector-curvature="0"
         style="fill:#f3f3f3"
         d="m 296.225,175.805 c -0.602,3.511 -1.004,7.064 -1.206,10.664 6.263,0.753 13.465,1.066 21.607,0.929 11.843,-0.164 24.618,-1.268 38.32,-3.288 -0.251,-3.174 -0.704,-6.561 -1.356,-10.138 -13.199,1.82 -25.483,2.773 -36.837,2.861 -7.781,0.05 -14.617,-0.288 -20.528,-1.028"
         id="path2277" />
      <path
         inkscape:connector-curvature="0"
         style="fill:#0076bf"
         d="m 298.332,165.742 c -0.902,3.576 -1.604,6.938 -2.107,10.063 5.911,0.74 12.747,1.078 20.528,1.028 11.354,-0.088 23.638,-1.041 36.837,-2.861 -0.642,-3.4 -1.393,-6.725 -2.259,-9.988 -11.744,1.544 -22.76,2.385 -33.049,2.535 -7.391,0.101 -14.039,-0.164 -19.95,-0.777"
         id="path2279" />
      <path
         inkscape:connector-curvature="0"
         style="fill:#e83827"
         d="m 294.896,196.105 c 6.26,0.766 13.451,1.103 21.581,1.004 11.993,-0.152 24.93,-1.255 38.819,-3.313 0.05,-3.161 -0.062,-6.385 -0.349,-9.686 -13.702,2.02 -26.477,3.124 -38.32,3.288 -8.142,0.137 -15.344,-0.176 -21.607,-0.929 -0.2,3.263 -0.238,6.474 -0.124,9.636"
         id="path2281" />
      <path
         inkscape:connector-curvature="0"
         style="fill:#e83434"
         d="m 344.923,159.794 c -3.802,1.468 -9.799,2.308 -18.004,2.534 -8.195,0.227 -14.542,-0.501 -19.048,-2.195 -5.809,-2.234 -9.208,-3.049 -10.212,-2.447 -1.984,0.313 -2.949,1.882 -2.913,4.705 0,0.69 0.14,1.72 0.415,3.061 v 0.013 0.013 c 0.691,3.287 1.744,5.32 3.15,6.097 l 0.012,0.012 c 2.547,1.796 6.261,3.514 11.156,5.145 4.791,1.594 10.286,2.334 16.486,2.234 h 0.05 c 5.407,0.201 10.664,-0.528 15.771,-2.171 5.157,-1.669 8.995,-3.412 11.531,-5.208 l 0.025,-0.012 c 1.393,-0.777 2.447,-2.81 3.136,-6.098 v -0.012 l 0.012,-0.013 c 0.265,-1.329 0.401,-2.334 0.414,-3.024 v -0.062 c 0.026,-2.823 -0.953,-4.392 -2.923,-4.68 -1.04,-0.602 -4.066,0.1 -9.058,2.108 m -18.746,13.4 h -0.162 c -5.533,0.1 -10.453,-0.551 -14.732,-1.944 h 0.013 c -4.214,-1.406 -7.427,-2.861 -9.635,-4.38 -0.29,-0.414 -0.577,-1.28 -0.854,-2.585 l 0.013,0.013 c -0.063,-0.252 -0.1,-0.49 -0.138,-0.703 1.067,0.377 2.773,1.017 5.119,1.92 5.031,1.97 12.119,2.824 21.267,2.585 h 0.013 c 9.121,-0.264 15.77,-1.242 19.973,-2.949 h 0.013 c 1.708,-0.69 3,-1.204 3.891,-1.53 -0.036,0.213 -0.089,0.438 -0.126,0.677 v -0.013 c -0.275,1.305 -0.552,2.171 -0.839,2.585 -2.222,1.519 -5.547,2.987 -9.989,4.429 h 0.012 c -4.478,1.443 -9.095,2.084 -13.839,1.895"
         id="path2283" />
      <path
         inkscape:connector-curvature="0"
         style="fill:#fdd100"
         d="m 326.015,173.194 h 0.162 c 4.744,0.189 9.361,-0.452 13.839,-1.895 h -0.012 c 4.442,-1.442 7.767,-2.91 9.989,-4.429 0.287,-0.414 0.564,-1.28 0.839,-2.585 v 0.013 c 0.037,-0.239 0.09,-0.464 0.126,-0.677 -0.891,0.326 -2.183,0.84 -3.891,1.53 h -0.013 c -4.203,1.707 -10.852,2.685 -19.973,2.949 h -0.013 c -9.148,0.239 -16.236,-0.615 -21.267,-2.585 -2.346,-0.903 -4.052,-1.543 -5.119,-1.92 0.038,0.213 0.075,0.451 0.138,0.703 l -0.013,-0.013 c 0.277,1.305 0.564,2.171 0.854,2.585 2.208,1.519 5.421,2.974 9.635,4.38 h -0.013 c 4.279,1.393 9.199,2.044 14.732,1.944"
         id="path2285" />
      <path
         inkscape:connector-curvature="0"
         style="fill:#fdd100"
         d="m 346.496,163.322 c -4.174,1.593 -10.773,2.509 -19.818,2.747 -9.046,0.239 -16.049,-0.564 -21.036,-2.396 -4.987,-1.832 -7.867,-2.622 -8.653,-2.384 -0.641,0.188 -0.956,0.827 -0.943,1.907 0.015,0.577 0.132,1.418 0.367,2.534 0.511,2.297 1.205,3.74 2.081,4.342 2.473,1.668 6.101,3.25 10.852,4.767 4.751,1.506 10.21,2.209 16.363,2.096 5.302,0.188 10.459,-0.49 15.472,-2.033 5.014,-1.556 8.757,-3.162 11.232,-4.83 0.878,-0.602 1.571,-2.046 2.081,-4.342 0.237,-1.116 0.367,-1.957 0.379,-2.534 0.014,-1.08 -0.299,-1.719 -0.941,-1.907 -0.798,-0.238 -3.272,0.438 -7.436,2.033"
         id="path2287" />
      <path
         inkscape:connector-curvature="0"
         style="fill:#e83434"
         d="m 303.731,161.4 c -0.088,0.276 -0.187,0.627 -0.3,1.067 -0.352,0.915 -0.602,1.856 -0.754,2.835 -0.15,0.79 -0.212,1.431 -0.174,1.92 0.061,0.74 0.339,1.279 0.828,1.619 0.564,-0.791 0.953,-1.807 1.153,-3.074 0.062,-0.44 0.187,-0.968 0.377,-1.582 0.237,-0.677 0.401,-1.192 0.502,-1.543 0.161,-0.564 0.262,-0.979 0.301,-1.217 0.088,-0.565 0.026,-0.967 -0.177,-1.229 -0.237,-0.313 -0.514,-0.401 -0.853,-0.288 -0.3,0.088 -0.565,0.301 -0.777,0.627 l 0.402,-0.076 c -0.202,0.126 -0.377,0.439 -0.528,0.941"
         id="path2289" />
      <path
         inkscape:connector-curvature="0"
         style="fill:#e83434"
         d="m 313.14,164.31 0.402,-0.05 c -0.2,0.139 -0.377,0.452 -0.527,0.954 -0.062,0.264 -0.161,0.615 -0.301,1.067 -0.288,0.728 -0.54,1.669 -0.752,2.836 -0.152,0.764 -0.214,1.392 -0.177,1.881 0.065,0.741 0.34,1.292 0.829,1.657 0.601,-0.816 0.991,-1.845 1.155,-3.112 0.062,-0.439 0.188,-0.953 0.375,-1.543 0.24,-0.678 0.402,-1.192 0.504,-1.557 0.399,-1.229 0.437,-2.044 0.125,-2.446 -0.24,-0.313 -0.515,-0.402 -0.854,-0.289 -0.302,0.088 -0.564,0.289 -0.779,0.602"
         id="path2291" />
      <path
         inkscape:connector-curvature="0"
         style="fill:#e83434"
         d="m 327.093,170.421 c 0.051,-1.004 0.026,-1.983 -0.074,-2.936 -0.013,-0.464 -0.038,-0.841 -0.051,-1.117 -0.049,-0.514 -0.151,-0.853 -0.301,-1.016 l 0.377,0.125 c -0.137,-0.338 -0.34,-0.589 -0.602,-0.752 -0.315,-0.177 -0.616,-0.138 -0.903,0.101 -0.403,0.338 -0.554,1.128 -0.452,2.396 0.012,0.363 0.062,0.903 0.125,1.619 0.038,0.638 0.038,1.166 0,1.605 -0.113,1.267 0.025,2.359 0.426,3.275 0.552,-0.239 0.941,-0.716 1.179,-1.406 0.151,-0.464 0.239,-1.09 0.276,-1.894"
         id="path2293" />
      <path
         inkscape:connector-curvature="0"
         style="fill:#e83434"
         d="m 337.482,163.105 c -0.339,-0.112 -0.614,-0.024 -0.852,0.289 -0.289,0.364 -0.239,1.181 0.124,2.447 0.101,0.352 0.264,0.867 0.504,1.543 0.187,0.604 0.311,1.117 0.375,1.556 0.201,1.281 0.59,2.31 1.154,3.099 0.49,-0.337 0.764,-0.877 0.829,-1.618 0.037,-0.489 -0.027,-1.129 -0.177,-1.92 -0.2,-1.117 -0.452,-2.058 -0.752,-2.835 -0.114,-0.452 -0.214,-0.803 -0.301,-1.066 -0.15,-0.502 -0.327,-0.817 -0.527,-0.941 l 0.401,0.074 c -0.214,-0.325 -0.476,-0.539 -0.778,-0.628"
         id="path2295" />
      <path
         inkscape:connector-curvature="0"
         style="fill:#e83434"
         d="m 348.122,162.177 c -0.113,-0.452 -0.213,-0.802 -0.301,-1.065 -0.149,-0.502 -0.314,-0.817 -0.502,-0.942 l 0.377,0.076 c -0.202,-0.326 -0.451,-0.539 -0.753,-0.641 -0.341,-0.112 -0.615,-0.012 -0.854,0.302 -0.287,0.388 -0.25,1.205 0.1,2.446 0.102,0.352 0.265,0.866 0.503,1.544 0.187,0.614 0.313,1.141 0.375,1.58 0.202,1.268 0.591,2.285 1.155,3.074 0.503,-0.338 0.777,-0.877 0.829,-1.617 0.051,-0.44 0,-1.08 -0.151,-1.921 -0.188,-1.029 -0.44,-1.97 -0.778,-2.836"
         id="path2297" />
      <path
         inkscape:connector-curvature="0"
         style="fill:#f49c00"
         d="m 380.05,130.369 c 0,-3.625 -0.967,-6.725 -2.911,-9.271 -1.944,-2.56 -4.303,-3.84 -7.052,-3.84 -2.748,0 -5.094,1.28 -7.039,3.84 -1.97,2.546 -2.948,5.646 -2.948,9.271 0,3.602 0.978,6.701 2.948,9.272 1.945,2.561 4.291,3.84 7.039,3.84 2.749,0 5.108,-1.279 7.052,-3.84 1.944,-2.546 2.911,-5.645 2.911,-9.272"
         id="path2299" />
      <path
         inkscape:connector-curvature="0"
         style="fill:none;stroke:#e83927;stroke-width:3.84800005;stroke-miterlimit:10"
         d="m 380.05,130.369 c 0,3.627 -0.967,6.726 -2.911,9.272 -1.944,2.561 -4.303,3.84 -7.052,3.84 -2.748,0 -5.094,-1.279 -7.039,-3.84 -1.97,-2.571 -2.948,-5.67 -2.948,-9.272 0,-3.625 0.978,-6.725 2.948,-9.271 1.945,-2.56 4.291,-3.84 7.039,-3.84 2.749,0 5.108,1.28 7.052,3.84 1.944,2.546 2.911,5.646 2.911,9.271 z"
         id="path2301" />
      <path
         inkscape:connector-curvature="0"
         style="fill:#f49c00"
         d="m 380.05,130.369 c 0,-3.625 -0.967,-6.725 -2.911,-9.271 -1.944,-2.56 -4.303,-3.84 -7.052,-3.84 -2.748,0 -5.094,1.28 -7.039,3.84 -1.97,2.546 -2.948,5.646 -2.948,9.271 0,3.602 0.978,6.701 2.948,9.272 1.945,2.561 4.291,3.84 7.039,3.84 2.749,0 5.108,-1.279 7.052,-3.84 1.944,-2.546 2.911,-5.645 2.911,-9.272"
         id="path2303" />
      <path
         inkscape:connector-curvature="0"
         style="fill:#f49c00"
         d="m 271.369,130.369 c 0,-3.625 0.967,-6.724 2.911,-9.271 1.944,-2.56 4.303,-3.84 7.051,-3.84 2.749,0 5.094,1.28 7.039,3.84 1.969,2.546 2.948,5.646 2.948,9.271 0,3.602 -0.979,6.701 -2.948,9.272 -1.945,2.561 -4.29,3.84 -7.039,3.84 -2.748,0 -5.107,-1.279 -7.051,-3.84 -1.944,-2.546 -2.911,-5.645 -2.911,-9.272"
         id="path2305" />
      <path
         inkscape:connector-curvature="0"
         style="fill:none;stroke:#e83927;stroke-width:3.84800005;stroke-miterlimit:10"
         d="m 271.369,130.369 c 0,3.627 0.967,6.726 2.911,9.272 1.944,2.561 4.303,3.84 7.051,3.84 2.749,0 5.094,-1.279 7.039,-3.84 1.969,-2.571 2.948,-5.67 2.948,-9.272 0,-3.625 -0.979,-6.725 -2.948,-9.271 -1.945,-2.56 -4.29,-3.84 -7.039,-3.84 -2.748,0 -5.107,1.28 -7.051,3.84 -1.944,2.547 -2.911,5.646 -2.911,9.271 z"
         id="path2307" />
      <path
         inkscape:connector-curvature="0"
         style="fill:#f49c00"
         d="m 271.369,130.369 c 0,-3.625 0.967,-6.724 2.911,-9.271 1.944,-2.56 4.303,-3.84 7.051,-3.84 2.749,0 5.094,1.28 7.039,3.84 1.969,2.546 2.948,5.646 2.948,9.271 0,3.602 -0.979,6.701 -2.948,9.272 -1.945,2.561 -4.29,3.84 -7.039,3.84 -2.748,0 -5.107,-1.279 -7.051,-3.84 -1.944,-2.546 -2.911,-5.645 -2.911,-9.272"
         id="path2309" />
      <path
         inkscape:connector-curvature="0"
         style="fill:#f49c00"
         d="m 358.06,107.729 c -4.229,-3.225 -9.098,-5.721 -14.58,-7.478 -5.672,-1.845 -11.607,-2.76 -17.818,-2.76 -6.21,0 -12.145,0.915 -17.817,2.76 -5.481,1.757 -10.337,4.253 -14.554,7.478 -4.228,3.225 -7.515,6.938 -9.837,11.116 -2.396,4.318 -3.587,8.846 -3.587,13.577 0,4.73 1.191,9.271 3.587,13.6 2.322,4.179 5.609,7.88 9.837,11.092 4.217,3.224 9.073,5.734 14.554,7.504 5.672,1.818 11.607,2.734 17.817,2.734 6.211,0 12.146,-0.916 17.818,-2.734 5.482,-1.77 10.351,-4.28 14.58,-7.504 4.216,-3.212 7.491,-6.913 9.812,-11.092 2.395,-4.329 3.587,-8.87 3.587,-13.6 0,-4.731 -1.192,-9.26 -3.587,-13.577 -2.321,-4.178 -5.596,-7.891 -9.812,-11.116"
         id="path2311" />
      <path
         inkscape:connector-curvature="0"
         style="fill:none;stroke:#e83927;stroke-width:3.84800005;stroke-miterlimit:10"
         d="m 343.48,100.251 c -5.672,-1.845 -11.607,-2.76 -17.818,-2.76 -6.21,0 -12.145,0.915 -17.817,2.76 -5.481,1.757 -10.337,4.253 -14.554,7.478 -4.228,3.225 -7.515,6.938 -9.837,11.116 -2.396,4.318 -3.587,8.846 -3.587,13.577 0,4.73 1.191,9.271 3.587,13.6 2.322,4.179 5.609,7.88 9.837,11.092 4.217,3.224 9.073,5.734 14.554,7.504 5.672,1.818 11.607,2.734 17.817,2.734 6.211,0 12.146,-0.916 17.818,-2.734 5.482,-1.77 10.351,-4.28 14.58,-7.504 4.216,-3.212 7.491,-6.913 9.812,-11.092 2.395,-4.329 3.587,-8.87 3.587,-13.6 0,-4.731 -1.192,-9.26 -3.587,-13.577 -2.321,-4.178 -5.596,-7.891 -9.812,-11.116 -4.229,-3.225 -9.098,-5.721 -14.58,-7.478 z"
         id="path2313" />
      <path
         inkscape:connector-curvature="0"
         style="fill:#f49c00"
         d="m 325.662,97.491 c -6.21,0 -12.145,0.915 -17.817,2.76 -5.481,1.757 -10.337,4.253 -14.554,7.478 -4.228,3.225 -7.515,6.938 -9.837,11.116 -2.396,4.318 -3.587,8.846 -3.587,13.577 0,4.73 1.191,9.271 3.587,13.6 2.322,4.179 5.609,7.88 9.837,11.092 4.217,3.224 9.073,5.734 14.554,7.504 5.672,1.818 11.607,2.734 17.817,2.734 6.211,0 12.146,-0.916 17.818,-2.734 5.482,-1.77 10.351,-4.28 14.58,-7.504 4.216,-3.212 7.491,-6.913 9.812,-11.092 2.395,-4.329 3.587,-8.87 3.587,-13.6 0,-4.731 -1.192,-9.26 -3.587,-13.577 -2.321,-4.178 -5.596,-7.891 -9.812,-11.116 -4.229,-3.225 -9.098,-5.721 -14.58,-7.478 -5.672,-1.845 -11.607,-2.76 -17.818,-2.76"
         id="path2315" />
      <path
         inkscape:connector-curvature="0"
         style="fill:#e83434"
         d="m 360.724,144.29 1.734,-3.764 c -16.827,10.013 -33.915,13.275 -51.293,9.786 -5.419,-1.078 -10.552,-2.784 -15.382,-5.106 -2.423,-1.142 -4.277,-2.171 -5.595,-3.111 3.574,9.861 10.7,16.661 21.39,20.388 3.35,1.167 6.865,1.945 10.515,2.359 l 4.467,0.276 c 11.493,-0.238 20.916,-4.416 28.282,-12.509 2.295,-2.522 4.266,-5.295 5.882,-8.319"
         id="path2317" />
      <path
         inkscape:connector-curvature="0"
         style="fill:#f092b1"
         d="m 325.972,150.523 h -0.23 -0.06 -0.061 -0.229 c -2.602,0 -5.648,-0.152 -9.133,-0.458 0.608,2.583 1.356,4.48 2.224,5.673 1.522,2.079 3.912,3.119 7.168,3.103 3.335,-0.015 5.74,-1.055 7.23,-3.103 0.868,-1.193 1.615,-3.09 2.224,-5.673 -3.486,0.306 -6.531,0.458 -9.133,0.458"
         id="path2319" />
      <path
         inkscape:connector-curvature="0"
         style="fill:#f49c00"
         d="m 349.182,147 -2.533,-6.336 h -37.453 l -7.077,7.165 c 2.911,1.041 5.923,1.87 9.046,2.483 12.823,2.573 25.495,1.469 38.017,-3.312"
         id="path2321" />
      <path
         inkscape:connector-curvature="0"
         style="fill:#f3f3f3"
         d="m 299.431,119.461 c 1.558,-2.924 4.029,-5.157 7.428,-6.675 3.4,-1.506 6.712,-1.87 9.938,-1.08 3.225,0.804 5.433,2.523 6.598,5.146 1.169,2.646 0.98,5.432 -0.575,8.381 -1.556,2.922 -4.029,5.144 -7.429,6.65 -3.4,1.517 -6.712,1.894 -9.937,1.104 -3.225,-0.803 -5.432,-2.522 -6.6,-5.17 -1.193,-2.621 -0.99,-5.407 0.577,-8.356"
         id="path2323" />
      <path
         inkscape:connector-curvature="0"
         style="fill:#f3f3f3"
         d="m 352.039,119.354 c -1.555,-2.924 -4.029,-5.157 -7.428,-6.675 -3.401,-1.505 -6.713,-1.869 -9.937,-1.078 -3.226,0.802 -5.432,2.522 -6.6,5.144 -1.165,2.647 -0.979,5.433 0.577,8.38 1.557,2.925 4.028,5.145 7.428,6.651 3.399,1.518 6.712,1.895 9.936,1.104 3.226,-0.803 5.435,-2.522 6.6,-5.17 1.194,-2.622 0.992,-5.408 -0.576,-8.356"
         id="path2325" />
      <path
         inkscape:connector-curvature="0"
         d="m 341.489,117.956 c -1.04,-1.016 -2.27,-1.531 -3.713,-1.531 -1.443,0 -2.674,0.515 -3.714,1.531 -1.016,1.042 -1.532,2.283 -1.532,3.739 0,1.455 0.516,2.698 1.532,3.714 1.04,1.041 2.271,1.557 3.714,1.557 1.443,0 2.673,-0.516 3.713,-1.557 1.017,-1.016 1.531,-2.259 1.531,-3.714 0.001,-1.456 -0.514,-2.697 -1.531,-3.739"
         id="path2327" />
      <path
         inkscape:connector-curvature="0"
         d="m 317.515,117.956 c -1.041,-1.016 -2.27,-1.531 -3.714,-1.531 -1.443,0 -2.672,0.515 -3.712,1.531 -1.018,1.042 -1.533,2.283 -1.533,3.739 0,1.455 0.515,2.698 1.533,3.714 1.04,1.041 2.269,1.557 3.712,1.557 1.444,0 2.673,-0.516 3.714,-1.557 1.017,-1.016 1.532,-2.259 1.532,-3.714 0,-1.456 -0.515,-2.697 -1.532,-3.739"
         id="path2329" />
      <path
         inkscape:connector-curvature="0"
         style="fill:#e83827"
         d="m 325.584,124.46 c -3.173,0 -5.884,1.13 -8.13,3.388 -2.258,2.246 -3.387,4.955 -3.387,8.131 0,3.173 1.129,5.897 3.387,8.155 2.246,2.259 4.957,3.387 8.13,3.387 3.2,0 5.911,-1.129 8.157,-3.387 2.257,-2.246 3.387,-4.957 3.387,-8.156 0,-3.175 -1.13,-5.884 -3.387,-8.13 -2.259,-2.258 -4.982,-3.388 -8.157,-3.388"
         id="path2331" />
      <path
         inkscape:connector-curvature="0"
         d="m 344.23,77.371 c -1.518,-0.251 -3.3,-0.176 -5.319,0.226 -4.054,0.84 -7.064,2.923 -9.035,6.273 0.049,-2.673 -1.017,-4.83 -3.186,-6.474 -0.704,-0.515 -1.443,-0.929 -2.209,-1.231 -0.716,-0.288 -1.004,-0.363 -0.853,-0.225 1.304,2.622 0.589,5.558 -2.158,8.808 -1.093,-1.167 -1.432,-3.351 -1.031,-6.524 0.365,-2.824 0.791,-4.405 1.281,-4.718 -1.255,0.501 -2.521,1.317 -3.814,2.459 -2.573,2.271 -3.852,4.944 -3.839,8.005 -1.393,-1.894 -3.477,-3.161 -6.273,-3.814 -0.089,-0.013 0.715,0.916 2.409,2.785 1.845,2.209 2.948,3.978 3.312,5.32 -1.118,-1.555 -2.536,-2.948 -4.24,-4.191 -1.62,-1.141 -3.415,-1.756 -5.372,-1.857 -1.567,-0.088 -3.462,0.188 -5.671,0.803 -0.15,0.039 0.916,0.151 3.188,0.352 1.706,0.401 2.947,1.28 3.713,2.635 0.262,0.489 0.742,1.831 1.405,4.04 -0.451,-0.515 -0.966,-1.016 -1.554,-1.481 -1.068,-0.866 -2.222,-1.481 -3.465,-1.832 -1.165,-0.313 -2.495,-0.439 -3.964,-0.351 -0.05,0.013 0.866,0.64 2.761,1.882 1.957,1.418 3.073,2.509 3.363,3.262 -1.092,-0.314 -2.11,-0.515 -3.064,-0.602 -0.651,-0.05 -1.604,-0.05 -2.86,0 -2.823,0.062 -5.157,0.364 -6.976,0.879 -2.546,0.715 -4.628,1.945 -6.248,3.689 -0.113,0.112 0.439,-0.013 1.657,-0.377 0.689,-0.201 1.693,-0.515 3.01,-0.928 2.711,-0.189 4.129,-0.276 4.266,-0.276 1.607,-0.038 2.974,0.137 4.116,0.526 0.991,0.338 1.845,0.678 2.559,1.029 0.653,0.314 0.891,0.49 0.728,0.502 -1.694,-0.702 -4.73,-0.264 -9.108,1.33 -4.016,1.706 -5.986,2.547 -5.898,2.535 1.418,-0.315 3.048,-0.478 4.869,-0.478 1.204,0.013 2.846,0.114 4.918,0.277 -1.694,1.618 -4.303,2.484 -7.83,2.584 -3.162,-0.213 -4.73,-0.314 -4.717,-0.276 2.059,2.046 3.814,3.476 5.269,4.29 1.996,1.118 4.228,1.67 6.701,1.632 1.693,-0.012 3.388,-0.301 5.093,-0.853 1.405,-0.463 2.925,-1.166 4.542,-2.082 l -0.953,0.852 c -2.458,2.197 -5.206,3.978 -8.257,5.346 -0.112,0.05 -0.15,0.126 -0.099,0.226 0.049,0.113 0.138,0.163 0.276,0.15 2.107,-0.263 4.266,-1.042 6.475,-2.333 1.141,-0.666 2.985,-1.971 5.544,-3.915 1.493,-1.118 2.698,-1.97 3.639,-2.535 1.406,-0.816 2.773,-1.418 4.092,-1.781 1.567,-0.439 3.324,-0.352 5.244,0.251 1.555,0.49 3.098,1.267 4.642,2.334 0.188,0.136 0.338,0.226 0.427,0.25 3.649,-1.492 5.809,-2.32 6.473,-2.509 2.246,-0.602 4.265,-0.59 6.073,0.024 1.206,0.415 2.56,1.193 4.066,2.31 0.841,0.614 2.057,1.568 3.663,2.835 2.709,1.869 5.771,2.76 9.185,2.66 0.69,0.753 2.508,0.741 5.471,-0.026 1.016,-0.25 1.819,-0.501 2.409,-0.753 0.563,-0.262 0.501,-0.337 -0.203,-0.2 -0.94,0.188 -1.869,0.251 -2.81,0.2 1.168,-0.312 2.875,-0.965 5.094,-1.932 2.661,-1.192 4.228,-2.119 4.692,-2.784 -1.115,0.011 -2.371,-0.038 -3.764,-0.151 -2.797,-0.238 -4.879,-0.702 -6.247,-1.405 -0.892,-0.451 -1.87,-0.791 -2.96,-1.004 l 2.533,-0.552 c 1.143,-0.263 2.522,-1.041 4.141,-2.309 1.406,-1.091 2.107,-1.706 2.107,-1.857 0.554,-0.464 0.978,-0.966 1.28,-1.505 0.013,-0.039 -1.568,0.062 -4.743,0.301 -3.576,0.263 -6.009,0.251 -7.301,-0.051 l -1.255,-0.275 0.854,-0.201 c 1.467,-0.351 3.048,-1.593 4.743,-3.714 1.455,-1.819 2.206,-3.05 2.258,-3.664 -1.445,0.515 -3.125,1.017 -5.069,1.481 -3.904,0.953 -7.014,1.066 -9.36,0.351 0.902,-0.051 2.183,-0.502 3.839,-1.355 1.794,-0.941 3.061,-1.467 3.813,-1.606 -1.857,-0.038 -3.336,-0.038 -4.44,0 -1.996,0.063 -4.304,0.514 -6.952,1.33 2.159,-1.518 5.107,-2.672 8.859,-3.438 -5.232,-0.866 -8.996,-0.991 -11.267,-0.351 -2.059,0.565 -3.752,1.43 -5.07,2.585 0.187,-1.268 0.717,-2.536 1.605,-3.79 0.591,-0.803 1.82,-1.869 3.714,-3.187 1.744,-1.217 2.761,-1.844 3.063,-1.856"
         id="path2333" />
      <path
         inkscape:connector-curvature="0"
         d="m 325.824,103.757 c 0.037,-0.025 0.074,-0.05 0.112,-0.063 l -0.188,0.075 c 0.038,0 0.064,0 0.076,-0.012"
         id="path2335" />
    </g>
  </g>
</svg>
