<?xml version="1.0" encoding="UTF-8" standalone="no"?>
<!-- Created with Inkscape (http://www.inkscape.org/) -->

<svg
   xmlns:dc="http://purl.org/dc/elements/1.1/"
   xmlns:cc="http://creativecommons.org/ns#"
   xmlns:rdf="http://www.w3.org/1999/02/22-rdf-syntax-ns#"
   xmlns:svg="http://www.w3.org/2000/svg"
   xmlns="http://www.w3.org/2000/svg"
   xmlns:sodipodi="http://sodipodi.sourceforge.net/DTD/sodipodi-0.dtd"
   xmlns:inkscape="http://www.inkscape.org/namespaces/inkscape"
   width="116.22089"
   height="179.63129"
   id="svg5696"
   version="1.1"
   inkscape:version="0.48.4 r9939"
   sodipodi:docname="ernie14.svg">
  <defs
     id="defs5698">
    <clipPath
       id="SVGID_2_">
      <rect
         height="88.862999"
         width="111.498"
         y="518.96198"
         x="382.04999"
         id="use1087" />
    </clipPath>
    <clipPath
       id="SVGID_4_">
      <rect
         height="41.314999"
         width="49.584999"
         y="525.19397"
         x="389.84698"
         id="use1111" />
    </clipPath>
  </defs>
  <sodipodi:namedview
     id="base"
     pagecolor="#ffffff"
     bordercolor="#666666"
     borderopacity="1.0"
     inkscape:pageopacity="0.0"
     inkscape:pageshadow="2"
     inkscape:zoom="0.77472527"
     inkscape:cx="29.149032"
     inkscape:cy="128.29606"
     inkscape:current-layer="layer1"
     inkscape:document-units="px"
     showgrid="false"
     inkscape:window-width="763"
     inkscape:window-height="591"
     inkscape:window-x="592"
     inkscape:window-y="97"
     inkscape:window-maximized="0"
     fit-margin-top="0"
     fit-margin-left="0"
     fit-margin-right="0"
     fit-margin-bottom="0" />
  <metadata
     id="metadata5701">
    <rdf:RDF>
      <cc:Work
         rdf:about="">
        <dc:format>image/svg+xml</dc:format>
        <dc:type
           rdf:resource="http://purl.org/dc/dcmitype/StillImage" />
        <dc:title></dc:title>
      </cc:Work>
    </rdf:RDF>
  </metadata>
  <g
     id="layer1"
     inkscape:label="Layer 1"
     inkscape:groupmode="layer"
     transform="translate(-288.79426,-33.77116)">
    <g
       transform="translate(-543.8108,-506.52284)"
       id="g2549">
      <path
         inkscape:connector-curvature="0"
         style="fill:#e78c00"
         d="m 889.326,695.942 15.905,3.154 c 2.669,3.762 6.021,7.188 10.068,10.255 -0.362,-0.075 -0.734,-0.112 -1.145,-0.112 -0.136,0 -0.546,0.048 -1.203,0.149 -0.335,-0.149 -0.706,-0.223 -1.092,-0.223 -0.261,0 -0.521,0.024 -0.807,0.086 -0.062,-0.086 -0.138,-0.161 -0.198,-0.247 -0.374,-0.436 -0.809,-0.809 -1.293,-1.105 -0.234,-0.138 -0.472,-0.262 -0.707,-0.348 -0.646,-0.262 -1.328,-0.398 -2.048,-0.386 -0.088,0 -0.162,0 -0.248,0.013 -1.143,0.087 -1.975,0.621 -2.51,1.626 l 0.163,0.013 c 2.085,-0.062 3.637,0.273 4.643,1.03 0.409,0.311 0.745,0.684 0.981,1.13 l 0.037,-0.197 c 0.062,-0.013 0.137,-0.037 0.197,-0.05 0.251,-0.015 0.473,-0.063 0.66,-0.162 0.111,0.199 0.21,0.409 0.297,0.622 0.746,1.762 0.41,3.264 -1.018,4.505 -0.336,0.287 -0.683,0.497 -1.056,0.658 -0.037,0.013 -0.062,0.024 -0.1,0.037 -0.397,0.149 -0.818,0.236 -1.254,0.249 -1.204,0.024 -2.396,-0.112 -3.574,-0.41 -7.017,0.509 -12.293,0.148 -15.808,-1.093 -1.724,-0.608 -2.519,-1.949 -2.407,-4.021 0.662,-5.315 1.841,-10.368 3.517,-15.173"
         id="path2551" />
      <path
         inkscape:connector-curvature="0"
         style="fill:#d82629"
         d="m 904.213,708.817 -0.163,-0.013 c 0.535,-1.005 1.367,-1.539 2.51,-1.626 0.086,-0.013 0.16,-0.013 0.248,-0.013 0.72,-0.013 1.403,0.124 2.048,0.386 0.235,0.086 0.473,0.21 0.707,0.348 0.484,0.297 0.919,0.67 1.293,1.105 0.061,0.086 0.136,0.16 0.198,0.247 0.21,0.436 0.161,0.832 -0.175,1.18 -0.036,0.05 -0.087,0.1 -0.147,0.137 -0.188,0.099 -0.409,0.147 -0.66,0.162 -0.061,0.013 -0.136,0.037 -0.197,0.05 l -0.037,0.197 c -0.236,-0.446 -0.572,-0.819 -0.981,-1.13 -1.007,-0.756 -2.559,-1.092 -4.644,-1.03"
         id="path2553" />
      <path
         inkscape:connector-curvature="0"
         style="fill:#e78c00"
         d="m 908.955,716.354 c 0.373,-0.161 0.72,-0.371 1.056,-0.658 1.428,-1.241 1.764,-2.743 1.018,-4.505 -0.087,-0.213 -0.186,-0.423 -0.297,-0.622 0.061,-0.037 0.111,-0.087 0.147,-0.137 0.336,-0.348 0.385,-0.744 0.175,-1.18 0.285,-0.062 0.546,-0.086 0.807,-0.086 0.386,0 0.757,0.073 1.092,0.223 0.497,0.225 0.945,0.608 1.342,1.143 0.583,0.808 0.882,1.639 0.882,2.519 0,1.169 -0.312,2.062 -0.944,2.672 -0.212,0.209 -0.46,0.371 -0.732,0.508 -0.483,0.235 -1.067,0.348 -1.751,0.348 -0.211,0 -0.596,-0.062 -1.142,-0.187 -0.561,-0.125 -1.121,-0.137 -1.653,-0.038"
         id="path2555" />
      <path
         inkscape:connector-curvature="0"
         style="fill:#e78c00"
         d="m 912.952,709.389 c 0.657,-0.099 1.067,-0.149 1.205,-0.149 0.408,0 0.78,0.037 1.143,0.112 0.671,0.138 1.254,0.41 1.737,0.819 0.82,0.684 1.229,1.602 1.229,2.768 0,0.336 -0.038,0.646 -0.099,0.933 -0.113,0.533 -0.336,0.943 -0.672,1.253 -0.67,0.62 -2,0.993 -3.997,1.105 0.272,-0.137 0.521,-0.299 0.732,-0.508 0.632,-0.609 0.944,-1.503 0.944,-2.672 0,-0.88 -0.299,-1.711 -0.882,-2.519 -0.395,-0.534 -0.843,-0.918 -1.34,-1.142"
         id="path2557" />
      <path
         inkscape:connector-curvature="0"
         style="fill:#e78c00"
         d="m 917.037,710.171 c -0.483,-0.409 -1.066,-0.682 -1.737,-0.819 1.538,-0.484 2.693,-0.534 3.463,-0.175 0.845,0.422 1.428,1.081 1.751,1.961 0.175,0.475 0.123,0.933 -0.137,1.368 -0.497,0.831 -1.229,1.277 -2.209,1.365 0.061,-0.286 0.099,-0.597 0.099,-0.933 0,-1.166 -0.41,-2.084 -1.23,-2.767"
         id="path2559" />
      <path
         inkscape:connector-curvature="0"
         style="fill:none;stroke:#d82629;stroke-width:1.98599994;stroke-linecap:round;stroke-linejoin:round;stroke-miterlimit:10"
         d="m 908.955,716.354 c 0.532,-0.099 1.092,-0.087 1.651,0.037 0.546,0.124 0.931,0.187 1.142,0.187 0.684,0 1.268,-0.112 1.751,-0.348 m -4.544,0.124 c 0.373,-0.161 0.72,-0.371 1.056,-0.658 1.428,-1.241 1.764,-2.743 1.018,-4.505 -0.087,-0.213 -0.186,-0.423 -0.297,-0.622 m 0.322,-1.317 c 0.285,-0.062 0.546,-0.086 0.807,-0.086 0.386,0 0.757,0.073 1.092,0.223 0.657,-0.099 1.067,-0.149 1.205,-0.149 0.408,0 0.783,0.037 1.143,0.112 m -1.802,6.877 c 0.272,-0.137 0.521,-0.299 0.732,-0.508 0.632,-0.609 0.944,-1.503 0.944,-2.672 0,-0.88 -0.299,-1.711 -0.882,-2.519 -0.396,-0.534 -0.845,-0.918 -1.342,-1.143 m 2.349,-0.035 c 1.538,-0.484 2.693,-0.534 3.463,-0.175 0.845,0.422 1.43,1.081 1.751,1.961 0.175,0.475 0.123,0.933 -0.137,1.368 -0.497,0.831 -1.229,1.277 -2.209,1.365 0.062,-0.286 0.099,-0.597 0.099,-0.933 0,-1.166 -0.409,-2.084 -1.229,-2.768 -0.484,-0.408 -1.067,-0.681 -1.738,-0.818 m 2.868,4.519 c -0.113,0.533 -0.336,0.943 -0.672,1.253 -0.67,0.62 -2,0.993 -3.997,1.105 m 1.801,-6.877 c -4.047,-3.066 -7.399,-6.493 -10.068,-10.255 l -15.905,-3.154 c -1.676,4.805 -2.855,9.857 -3.514,15.173 -0.111,2.072 0.684,3.413 2.407,4.021 3.515,1.241 8.791,1.602 15.808,1.093 1.178,0.298 2.37,0.435 3.574,0.41 0.436,-0.013 0.856,-0.1 1.254,-0.249 0.037,-0.013 0.062,-0.024 0.1,-0.037"
         id="path2561" />
      <path
         inkscape:connector-curvature="0"
         style="fill:#e78c00"
         d="m 864.021,712.896 c -0.118,2.182 0.731,3.674 2.562,4.497 2.705,1.188 7.619,1.632 14.729,1.358 1.007,-0.091 1.777,-0.183 2.313,-0.274 1.125,-0.091 1.908,-0.184 2.34,-0.286 1.15,-0.381 1.711,-1.19 1.698,-2.433 -0.117,0 -0.248,-0.013 -0.365,-0.052 -0.145,-0.026 -0.287,-0.066 -0.419,-0.118 l -0.234,0.394 c -0.039,-0.172 -0.066,-0.328 -0.092,-0.499 -0.104,-0.731 -0.459,-1.319 -1.058,-1.775 -0.837,-0.615 -1.792,-0.955 -2.875,-1.021 0.182,-0.561 0.561,-0.888 1.136,-0.992 0.782,-0.17 1.568,-0.143 2.366,0.104 0.679,0.223 1.228,0.627 1.659,1.202 0.626,0.851 0.927,1.804 0.901,2.876 -0.065,-0.209 -0.143,-0.418 -0.208,-0.628 -0.054,0.065 -0.119,0.118 -0.182,0.183 -0.171,0.171 -0.38,0.275 -0.63,0.327 0.013,1.242 -0.549,2.052 -1.698,2.433 1.659,0.769 3.358,0.939 5.084,0.508 1.464,-1.397 1.895,-2.77 1.282,-4.117 l -0.877,0.262 v 0.379 c -0.251,-0.692 -0.666,-1.346 -1.255,-1.96 -0.588,-0.614 -1.137,-1.006 -1.646,-1.203 -0.51,-0.195 -0.915,-0.339 -1.242,-0.417 0.536,-0.327 1.11,-0.523 1.725,-0.588 0.602,0.013 1.164,0.183 1.688,0.483 0.979,0.6 1.79,1.398 2.403,2.379 0.092,0.144 0.172,0.3 0.262,0.457 l -0.562,-0.576 c -0.078,0.184 -0.169,0.354 -0.274,0.523 -0.064,0.091 -0.131,0.185 -0.22,0.261 0.612,1.348 0.182,2.72 -1.282,4.117 2.054,0.444 3.555,0.289 4.483,-0.482 0.442,-0.393 0.782,-0.864 1.018,-1.4 0.433,-1.006 0.445,-2.012 0.04,-3.019 -0.169,-0.392 -0.354,-0.744 -0.575,-1.059 -0.091,0.066 -0.195,0.118 -0.313,0.157 -0.104,0.04 -0.209,0.093 -0.313,0.145 -0.066,0.013 -0.117,0.039 -0.182,0.079 v 0.286 c -0.366,-0.483 -0.786,-0.876 -1.256,-1.202 -0.494,-0.353 -1.032,-0.64 -1.593,-0.837 -0.629,-0.222 -1.271,-0.392 -1.924,-0.51 0.119,-0.104 0.236,-0.196 0.354,-0.287 0.144,-0.091 0.287,-0.144 0.43,-0.183 0.59,-0.183 1.178,-0.211 1.779,-0.078 0.405,0.091 0.797,0.17 1.201,0.261 1.072,0.249 1.987,0.784 2.731,1.634 -0.092,-0.066 -0.17,-0.145 -0.262,-0.209 -0.066,-0.04 -0.118,-0.079 -0.183,-0.117 -0.052,-0.014 -0.091,-0.026 -0.129,-0.014 v 0.025 c 0.011,0.327 -0.094,0.616 -0.342,0.85 0.222,0.314 0.406,0.667 0.575,1.059 0.405,1.007 0.393,2.013 -0.04,3.019 -0.235,0.536 -0.575,1.008 -1.018,1.4 1.581,0.326 2.951,-0.249 4.09,-1.727 1.137,-1.476 1.319,-3.108 0.536,-4.887 -0.483,-1.085 -1.504,-1.831 -3.072,-2.248 -1.019,-0.275 -2.274,-0.406 -3.75,-0.406 -4.667,-2.809 -7.725,-6.116 -9.161,-9.933 l -16.455,-2.09 c -1.764,5.058 -3.005,10.375 -3.698,15.969"
         id="path2563" />
      <path
         inkscape:connector-curvature="0"
         style="fill:#d82629"
         d="m 896.341,711.864 h 0.015 c 0.038,-0.013 0.077,0 0.129,0.014 0.064,0.038 0.116,0.077 0.183,0.117 0.092,0.064 0.17,0.143 0.262,0.209 -0.744,-0.85 -1.659,-1.385 -2.731,-1.634 -0.404,-0.091 -0.796,-0.17 -1.201,-0.261 -0.602,-0.133 -1.189,-0.104 -1.778,0.078 -0.144,0.039 -0.288,0.092 -0.431,0.183 -0.118,0.091 -0.235,0.183 -0.354,0.287 0.655,0.118 1.295,0.288 1.924,0.51 0.561,0.197 1.099,0.484 1.593,0.837 0.47,0.326 0.89,0.719 1.256,1.202 v -0.286 c 0.064,-0.04 0.115,-0.066 0.182,-0.079 0.104,-0.052 0.209,-0.104 0.313,-0.145 0.118,-0.039 0.223,-0.091 0.313,-0.157 0.248,-0.233 0.353,-0.522 0.342,-0.85 -0.003,-0.011 -0.003,-0.011 -0.017,-0.025"
         id="path2565" />
      <path
         inkscape:connector-curvature="0"
         style="fill:#d82629"
         d="m 892.55,714.321 c 0.105,-0.169 0.196,-0.34 0.274,-0.523 l 0.562,0.576 c -0.09,-0.157 -0.17,-0.313 -0.262,-0.457 -0.614,-0.98 -1.424,-1.779 -2.403,-2.379 -0.523,-0.301 -1.086,-0.471 -1.688,-0.483 -0.614,0.064 -1.188,0.261 -1.725,0.588 0.327,0.078 0.732,0.222 1.242,0.417 0.51,0.197 1.059,0.589 1.646,1.203 0.589,0.614 1.007,1.268 1.255,1.96 v -0.379 l 0.877,-0.262 c 0.091,-0.076 0.157,-0.17 0.222,-0.261"
         id="path2567" />
      <path
         inkscape:connector-curvature="0"
         style="fill:#d82629"
         d="m 887.78,713.001 c -0.432,-0.575 -0.98,-0.979 -1.659,-1.202 -0.798,-0.247 -1.584,-0.274 -2.366,-0.104 -0.575,0.104 -0.954,0.432 -1.136,0.992 1.083,0.066 2.038,0.406 2.874,1.021 0.6,0.456 0.954,1.044 1.059,1.775 0.025,0.171 0.053,0.327 0.092,0.499 l 0.234,-0.394 c 0.131,0.052 0.274,0.092 0.419,0.118 0.117,0.039 0.248,0.052 0.365,0.052 0.25,-0.052 0.459,-0.156 0.63,-0.327 0.062,-0.064 0.128,-0.117 0.182,-0.183 0.065,0.21 0.143,0.419 0.208,0.628 0.025,-1.071 -0.276,-2.024 -0.902,-2.875"
         id="path2569" />
      <path
         inkscape:connector-curvature="0"
         style="fill:none;stroke:#d82629;stroke-width:2.09100008;stroke-linecap:round;stroke-linejoin:round;stroke-miterlimit:10"
         d="m 895.531,718.217 c 1.581,0.326 2.951,-0.249 4.09,-1.727 1.137,-1.476 1.319,-3.108 0.536,-4.887 -0.483,-1.085 -1.504,-1.831 -3.072,-2.248 -1.019,-0.275 -2.274,-0.406 -3.75,-0.406 -4.665,-2.809 -7.725,-6.116 -9.161,-9.933 l -16.455,-2.09 c -1.764,5.059 -3.005,10.375 -3.698,15.97 -0.117,2.182 0.731,3.674 2.562,4.497 2.705,1.188 7.619,1.632 14.729,1.358 1.007,-0.091 1.777,-0.183 2.313,-0.275 1.125,-0.09 1.907,-0.183 2.34,-0.287 m 9.566,0.028 c 0.442,-0.393 0.782,-0.864 1.018,-1.4 0.433,-1.006 0.445,-2.012 0.04,-3.018 -0.169,-0.393 -0.354,-0.745 -0.575,-1.06 m -4.966,5.96 c 1.463,-1.397 1.895,-2.77 1.282,-4.116 m -1.282,4.116 c 2.052,0.444 3.555,0.289 4.483,-0.482 m -9.567,-0.026 c 1.15,-0.381 1.711,-1.19 1.698,-2.433 m -1.698,2.433 c 1.657,0.769 3.357,0.939 5.084,0.508"
         id="path2571" />
      <path
         inkscape:connector-curvature="0"
         style="fill:#e60412"
         d="m 885.042,672.415 h 27.551 v 18.798 c -8.455,2.793 -17.644,3.065 -27.551,0.807 v -19.605 z"
         id="path2573" />
      <path
         inkscape:connector-curvature="0"
         style="fill:#76878a"
         d="m 885.042,694.478 v -2.458 c 9.907,2.259 19.096,1.986 27.551,-0.807 v 2.458 c -8.071,2.781 -17.258,3.053 -27.551,0.807"
         id="path2575" />
      <path
         inkscape:connector-curvature="0"
         style="fill:#f5f0de"
         d="m 885.042,701.07 v -6.593 c 10.293,2.246 19.48,1.975 27.551,-0.807 v 7.399 c -10.89,3.887 -20.078,3.887 -27.551,0.001"
         id="path2577" />
      <path
         inkscape:connector-curvature="0"
         style="fill:none;stroke:#060f31;stroke-width:0.99299997;stroke-linecap:round;stroke-linejoin:round;stroke-miterlimit:10"
         d="m 884.795,694.44 c 0.085,0.014 0.16,0.023 0.247,0.037 m -0.247,-2.495 c 0.085,0.013 0.16,0.023 0.247,0.037"
         id="path2579" />
      <path
         inkscape:connector-curvature="0"
         style="fill:none;stroke:#a10e15;stroke-width:1.98599994;stroke-linecap:square;stroke-linejoin:round;stroke-miterlimit:10"
         d="m 912.593,672.415 v 18.798 2.458 7.399 c -10.89,3.886 -20.078,3.886 -27.551,0 v -6.593 -2.458 -19.604 h 27.551 z"
         id="path2581" />
      <path
         inkscape:connector-curvature="0"
         style="fill:#76878a"
         d="m 860.492,692.13 v 2.587 c 8.495,2.929 18.165,3.215 29.001,0.851 v -2.589 c -10.43,2.379 -20.101,2.091 -29.001,-0.849"
         id="path2583" />
      <path
         inkscape:connector-curvature="0"
         style="fill:#f5f0de"
         d="m 860.492,694.717 v 7.79 c 11.463,4.09 21.134,4.09 29.001,0 v -6.939 c -10.836,2.364 -20.506,2.078 -29.001,-0.851"
         id="path2585" />
      <path
         inkscape:connector-curvature="0"
         style="fill:#e60412"
         d="m 860.492,692.13 c 8.899,2.94 18.571,3.229 29.001,0.849 v -20.635 h -29.001 v 19.786 z"
         id="path2587" />
      <path
         inkscape:connector-curvature="0"
         style="fill:none;stroke:#060f31;stroke-width:1.04499996;stroke-linecap:round;stroke-linejoin:round;stroke-miterlimit:10"
         d="m 889.754,695.529 c -0.092,0.012 -0.17,0.024 -0.261,0.038 m 0.261,-2.628 c -0.092,0.013 -0.17,0.027 -0.261,0.039"
         id="path2589" />
      <path
         inkscape:connector-curvature="0"
         style="fill:none;stroke:#a10e15;stroke-width:2.09100008;stroke-linecap:square;stroke-linejoin:round;stroke-miterlimit:10"
         d="m 860.492,694.717 v 7.79 c 11.463,4.09 21.134,4.09 29.001,0 v -6.939 -2.589 -20.635 h -29.001 v 19.786 2.587 z"
         id="path2591" />
      <path
         inkscape:connector-curvature="0"
         style="fill:#a10e15"
         d="m 888.42,692.85 v 1.738 c 0.185,-0.065 0.38,-0.081 0.576,-0.04 0.222,0.052 0.443,0.104 0.666,0.144 1.633,0.301 3.255,0.275 4.863,-0.078 1.031,-0.224 1.971,-0.602 2.822,-1.11 0.482,-0.289 0.928,-0.615 1.346,-0.994 0.144,-0.13 0.288,-0.274 0.432,-0.418 -2.994,0.875 -6.562,1.122 -10.705,0.758"
         id="path2593" />
      <path
         inkscape:connector-curvature="0"
         style="fill:#e60412"
         d="m 888.42,692.85 c 4.144,0.364 7.711,0.117 10.705,-0.759 l -0.432,-10.26 H 888.42 v 11.019 z"
         id="path2595" />
      <path
         inkscape:connector-curvature="0"
         style="fill:#f5f0de"
         d="m 905.656,634.566 c 3.641,0.829 7.213,1.362 10.705,1.586 -2.089,7.109 -2.199,14.022 -0.343,20.729 -3.831,-0.415 -8.016,-1.138 -12.559,-2.183 0.035,-6.635 0.758,-13.344 2.197,-20.132"
         id="path2597" />
      <path
         inkscape:connector-curvature="0"
         style="fill:#f5f0de"
         d="m 939.52,644.704 c -0.965,-3.442 -1.604,-7.177 -1.908,-11.23 l 0.012,-0.015 c 1.352,-0.447 2.687,-0.95 4.003,-1.517 l -2.107,12.762 z"
         id="path2599" />
      <path
         inkscape:connector-curvature="0"
         style="fill:#76878a"
         d="m 937.611,633.474 c 0.304,4.054 0.943,7.788 1.908,11.23 l -0.705,4.302 c -1.625,-4.835 -2.62,-9.819 -2.979,-14.968 0.605,-0.176 1.197,-0.363 1.776,-0.564"
         id="path2601" />
      <path
         inkscape:connector-curvature="0"
         style="fill:#76878a"
         d="m 921.587,636.259 c 0.614,-0.018 1.241,-0.038 1.854,-0.069 -0.198,6.694 0.716,13.699 2.73,20.985 -0.69,0.05 -1.396,0.074 -2.114,0.087 -0.013,0 -0.013,0 -0.026,0 -2.281,-7.615 -3.092,-14.623 -2.444,-21.003"
         id="path2603" />
      <path
         inkscape:connector-curvature="0"
         style="fill:#f5f0de"
         d="m 923.44,636.189 c 2.336,-0.135 4.623,-0.411 6.879,-0.831 -0.842,7.698 0.492,14.457 3.975,20.281 -2.35,0.815 -5.059,1.323 -8.123,1.535 -2.015,-7.285 -2.929,-14.29 -2.731,-20.985"
         id="path2605" />
      <path
         inkscape:connector-curvature="0"
         style="fill:#e60412"
         d="m 930.319,635.358 c 1.864,-0.346 3.7,-0.781 5.517,-1.32 0.358,5.148 1.354,10.133 2.979,14.968 l -0.813,4.935 c -1.118,0.661 -2.357,1.224 -3.707,1.699 -3.483,-5.825 -4.817,-12.583 -3.976,-20.282"
         id="path2607" />
      <path
         inkscape:connector-curvature="0"
         style="fill:#e60412"
         d="m 916.019,656.881 c -1.856,-6.706 -1.746,-13.619 0.343,-20.729 1.772,0.105 3.513,0.145 5.226,0.106 -0.647,6.38 0.163,13.389 2.443,21.003 -2.469,0.05 -5.134,-0.073 -8.012,-0.38"
         id="path2609" />
      <path
         inkscape:connector-curvature="0"
         style="fill:none;stroke:#a10e15;stroke-width:2.08999991;stroke-linecap:square;stroke-linejoin:round;stroke-miterlimit:10"
         d="m 924.03,657.262 c -2.469,0.049 -5.133,-0.073 -8.012,-0.381 -3.831,-0.415 -8.016,-1.138 -12.559,-2.183 0.034,-6.635 0.757,-13.345 2.196,-20.132 3.641,0.829 7.213,1.362 10.705,1.586 1.772,0.105 3.515,0.145 5.226,0.106 0.614,-0.018 1.241,-0.038 1.854,-0.069 2.336,-0.135 4.623,-0.411 6.879,-0.831 1.864,-0.346 3.7,-0.781 5.517,-1.32 0.604,-0.176 1.196,-0.363 1.775,-0.564 m 0.012,-0.015 c 1.352,-0.447 2.687,-0.95 4.003,-1.517 l -2.106,12.762 -0.705,4.302 -0.813,4.935 c -1.118,0.661 -2.357,1.224 -3.707,1.699 -2.35,0.815 -5.059,1.323 -8.121,1.535 -0.692,0.05 -1.397,0.074 -2.116,0.087"
         id="path2611" />
      <path
         inkscape:connector-curvature="0"
         style="fill:#f5f0de"
         d="m 916.322,648.204 c -0.169,-1.41 -0.352,-2.823 -0.548,-4.247 l -10.377,-14.441 c -15.029,-3.646 -27.483,-4.013 -37.353,-1.125 -5.292,2.76 -9.617,6.182 -12.978,10.286 l -0.274,9.018 c 6.901,0.771 13.684,1.295 20.363,1.543 8.456,0.365 16.31,0.444 23.577,0.221 -0.393,-4.023 -0.903,-8.076 -1.544,-12.153 0.641,4.077 1.151,8.13 1.544,12.153 6.312,-0.196 12.18,-0.615 17.59,-1.255"
         id="path2613" />
      <path
         inkscape:connector-curvature="0"
         style="fill:#76878a"
         d="m 899.478,660.502 c -0.04,-0.73 -0.065,-1.463 -0.104,-2.195 -7.502,0.262 -15.605,0.196 -24.322,-0.183 -6.652,-0.275 -13.486,-0.823 -20.506,-1.633 l -0.065,2.143 c 7.672,0.953 15.004,1.555 21.997,1.777 8.217,0.327 15.89,0.365 23,0.091"
         id="path2615" />
      <path
         inkscape:connector-curvature="0"
         style="fill:#76878a"
         d="m 899.373,658.307 c 0.039,0.732 0.064,1.465 0.104,2.195 6.392,-0.248 12.325,-0.744 17.799,-1.463 -0.038,-0.706 -0.09,-1.399 -0.129,-2.092 -5.501,0.68 -11.423,1.137 -17.774,1.36"
         id="path2617" />
      <path
         inkscape:connector-curvature="0"
         style="fill:#f5f0de"
         d="m 899.606,669.861 c 0.041,-3.113 -0.011,-6.235 -0.129,-9.359 -7.109,0.274 -14.782,0.236 -23.001,-0.091 -6.993,-0.223 -14.325,-0.824 -21.997,-1.777 l -0.286,9.527 c 6.651,0.928 13.396,1.438 20.217,1.53 8.952,0.391 17.344,0.444 25.196,0.17"
         id="path2619" />
      <path
         inkscape:connector-curvature="0"
         style="fill:#f5f0de"
         d="m 899.478,660.502 c 0.118,3.124 0.17,6.246 0.129,9.359 6.365,-0.224 12.365,-0.681 18.012,-1.348 -0.041,-3.15 -0.145,-6.3 -0.342,-9.475 -5.474,0.72 -11.408,1.216 -17.799,1.464"
         id="path2621" />
      <path
         inkscape:connector-curvature="0"
         style="fill:#e60412"
         d="m 917.617,668.514 c -5.646,0.667 -11.646,1.124 -18.011,1.348 -0.037,2.965 -0.142,5.905 -0.312,8.846 6.574,-0.326 12.637,-0.993 18.218,-1.986 0.092,-2.733 0.131,-5.463 0.105,-8.208"
         id="path2623" />
      <path
         inkscape:connector-curvature="0"
         style="fill:#e60412"
         d="m 916.322,648.204 c -5.41,0.64 -11.278,1.059 -17.589,1.254 0.273,2.969 0.495,5.908 0.64,8.849 6.351,-0.223 12.272,-0.68 17.774,-1.359 -0.21,-2.902 -0.485,-5.816 -0.825,-8.744"
         id="path2625" />
      <path
         inkscape:connector-curvature="0"
         style="fill:#e60412"
         d="m 899.373,658.307 c -0.145,-2.94 -0.366,-5.88 -0.64,-8.849 -7.268,0.224 -15.121,0.145 -23.577,-0.221 -6.68,-0.248 -13.462,-0.771 -20.363,-1.543 l -0.248,8.797 c 7.02,0.81 13.854,1.357 20.506,1.633 8.717,0.379 16.82,0.444 24.322,0.183"
         id="path2627" />
      <path
         inkscape:connector-curvature="0"
         style="fill:#f5f0de"
         d="m 917.096,684.157 c 0.012,-0.209 0.039,-0.417 0.052,-0.614 0.103,-1.489 0.195,-2.979 0.261,-4.469 -5.658,1.058 -11.762,1.749 -18.283,2.077 -0.17,2.327 -0.392,4.64 -0.653,6.953 0.262,-2.313 0.483,-4.626 0.653,-6.953 -7.542,0.38 -15.657,0.248 -24.348,-0.365 -7.386,-0.379 -14.351,-1.073 -20.898,-2.091 l -0.17,5.882 c 3.542,0.796 7.109,1.449 10.69,1.972 3.542,0.484 7.069,0.876 10.612,1.19 3.333,0.326 6.679,0.535 10.038,0.627 3.502,0.144 7.019,0.144 10.546,0 3.777,-0.145 7.516,-0.536 11.213,-1.203 2.432,-0.405 5.855,-1.411 10.287,-3.006"
         id="path2629" />
      <path
         inkscape:connector-curvature="0"
         style="fill:#76878a"
         d="m 917.408,679.074 c 0.04,-0.783 0.065,-1.568 0.104,-2.354 -5.581,0.993 -11.644,1.66 -18.218,1.986 -0.052,0.812 -0.104,1.622 -0.17,2.444 6.522,-0.327 12.626,-1.018 18.284,-2.076"
         id="path2631" />
      <path
         inkscape:connector-curvature="0"
         style="fill:#76878a"
         d="m 899.125,681.151 c 0.065,-0.822 0.118,-1.633 0.17,-2.444 -7.358,0.354 -15.343,0.301 -23.956,-0.17 -6.914,-0.326 -14.037,-1.084 -21.382,-2.272 l -0.079,2.431 c 6.549,1.018 13.515,1.712 20.899,2.091 8.691,0.612 16.806,0.744 24.348,0.364"
         id="path2633" />
      <path
         inkscape:connector-curvature="0"
         style="fill:#e60412"
         d="m 899.295,678.707 c 0.17,-2.94 0.274,-5.881 0.312,-8.846 -7.853,0.273 -16.244,0.221 -25.196,-0.17 -6.821,-0.093 -13.565,-0.603 -20.219,-1.53 l -0.234,8.104 c 7.346,1.188 14.468,1.946 21.382,2.272 8.612,0.471 16.597,0.524 23.955,0.17"
         id="path2635" />
      <path
         inkscape:connector-curvature="0"
         style="fill:none;stroke:#a10e15;stroke-width:1.30700004;stroke-linecap:square;stroke-miterlimit:10"
         d="m 897.189,637.305 c 0.641,4.077 1.151,8.13 1.544,12.153 0.273,2.969 0.495,5.908 0.64,8.849 0.039,0.732 0.064,1.465 0.104,2.195 0.118,3.124 0.17,6.246 0.129,9.359 -0.037,2.965 -0.142,5.905 -0.312,8.846 -0.052,0.812 -0.104,1.622 -0.17,2.444 -0.17,2.327 -0.392,4.64 -0.653,6.953"
         id="path2637" />
      <path
         inkscape:connector-curvature="0"
         style="fill:none;stroke:#a10e15;stroke-width:2.09100008;stroke-linecap:square;stroke-linejoin:round;stroke-miterlimit:10"
         d="m 905.397,629.516 c -15.029,-3.648 -27.485,-4.013 -37.353,-1.125 -5.292,2.759 -9.617,6.182 -12.978,10.286 l -0.274,9.018 -0.248,8.797 -0.065,2.143 -0.288,9.527 -0.234,8.104 -0.078,2.431 -0.17,5.882 c 3.542,0.796 7.109,1.449 10.689,1.972 3.543,0.484 7.07,0.876 10.613,1.19 3.332,0.326 6.677,0.535 10.038,0.627 3.502,0.144 7.019,0.144 10.546,0 3.777,-0.145 7.516,-0.536 11.213,-1.204 2.433,-0.404 5.855,-1.41 10.287,-3.005 0.012,-0.209 0.039,-0.417 0.052,-0.614 0.103,-1.489 0.195,-2.979 0.261,-4.469 0.04,-0.783 0.065,-1.568 0.104,-2.354 0.091,-2.731 0.13,-5.462 0.104,-8.207 -0.04,-3.15 -0.144,-6.3 -0.341,-9.475 -0.038,-0.706 -0.09,-1.399 -0.129,-2.092 -0.211,-2.901 -0.485,-5.815 -0.825,-8.743 -0.169,-1.41 -0.352,-2.823 -0.548,-4.247"
         id="path2639" />
      <path
         inkscape:connector-curvature="0"
         style="fill:#121924"
         d="m 903.437,648.558 c -0.294,-0.381 -0.646,-0.575 -1.061,-0.575 -0.425,0 -0.788,0.194 -1.081,0.575 -0.292,0.379 -0.435,0.836 -0.435,1.385 0,0.536 0.143,1.006 0.435,1.386 0.293,0.38 0.656,0.562 1.081,0.562 0.414,0 0.767,-0.183 1.061,-0.562 0.293,-0.38 0.443,-0.85 0.443,-1.386 0,-0.549 -0.151,-1.006 -0.443,-1.385"
         id="path2641" />
      <path
         inkscape:connector-curvature="0"
         style="fill:none;stroke:#385174;stroke-width:0.653;stroke-linecap:square;stroke-miterlimit:10"
         d="m 902.376,647.982 c -0.425,0 -0.788,0.194 -1.081,0.575 -0.292,0.379 -0.435,0.836 -0.435,1.385 0,0.536 0.143,1.006 0.435,1.386 0.293,0.38 0.656,0.562 1.081,0.562 0.414,0 0.767,-0.183 1.061,-0.562 0.293,-0.38 0.443,-0.85 0.443,-1.386 0,-0.549 -0.15,-1.006 -0.443,-1.385 -0.294,-0.38 -0.647,-0.575 -1.061,-0.575 z"
         id="path2643" />
      <path
         inkscape:connector-curvature="0"
         style="fill:#121924"
         d="m 904.116,663.69 c -0.294,-0.379 -0.646,-0.575 -1.062,-0.575 -0.423,0 -0.788,0.196 -1.078,0.575 -0.295,0.378 -0.436,0.837 -0.436,1.386 0,0.537 0.141,1.007 0.436,1.386 0.29,0.378 0.655,0.562 1.078,0.562 0.415,0 0.768,-0.184 1.062,-0.562 0.292,-0.379 0.443,-0.849 0.443,-1.386 10e-4,-0.549 -0.151,-1.008 -0.443,-1.386"
         id="path2645" />
      <path
         inkscape:connector-curvature="0"
         style="fill:none;stroke:#385174;stroke-width:0.653;stroke-linecap:square;stroke-miterlimit:10"
         d="m 903.055,663.115 c -0.423,0 -0.788,0.196 -1.078,0.575 -0.295,0.378 -0.436,0.837 -0.436,1.386 0,0.537 0.141,1.007 0.436,1.386 0.29,0.378 0.655,0.562 1.078,0.562 0.415,0 0.768,-0.184 1.062,-0.562 0.292,-0.379 0.443,-0.849 0.443,-1.386 0,-0.549 -0.151,-1.008 -0.443,-1.386 -0.295,-0.378 -0.647,-0.575 -1.062,-0.575 z"
         id="path2647" />
      <path
         inkscape:connector-curvature="0"
         style="fill:#121924"
         d="m 904.037,678.537 c -0.293,-0.379 -0.646,-0.573 -1.061,-0.573 -0.425,0 -0.787,0.194 -1.08,0.573 -0.293,0.38 -0.434,0.837 -0.434,1.385 0,0.537 0.141,1.007 0.434,1.386 0.293,0.379 0.655,0.562 1.08,0.562 0.414,0 0.768,-0.184 1.061,-0.562 0.293,-0.378 0.443,-0.849 0.443,-1.386 0,-0.548 -0.15,-1.005 -0.443,-1.385"
         id="path2649" />
      <path
         inkscape:connector-curvature="0"
         style="fill:none;stroke:#385174;stroke-width:0.653;stroke-linecap:square;stroke-miterlimit:10"
         d="m 902.977,677.964 c -0.425,0 -0.788,0.194 -1.08,0.573 -0.293,0.38 -0.434,0.837 -0.434,1.385 0,0.537 0.141,1.007 0.434,1.386 0.292,0.38 0.655,0.562 1.08,0.562 0.414,0 0.768,-0.183 1.061,-0.562 0.293,-0.379 0.443,-0.849 0.443,-1.386 0,-0.548 -0.15,-1.005 -0.443,-1.385 -0.294,-0.379 -0.647,-0.573 -1.061,-0.573 z"
         id="path2651" />
      <path
         inkscape:connector-curvature="0"
         style="fill:#f5f0de"
         d="m 869.708,646.482 -10.605,-13.946 c -8.352,5.874 -12.767,12.603 -13.25,20.183 6.244,-6.24 14.108,-8.156 23.617,-5.733 0.072,-0.169 0.155,-0.335 0.238,-0.504"
         id="path2653" />
      <path
         inkscape:connector-curvature="0"
         style="fill:#76878a"
         d="m 847.646,664.137 c 0.011,0.039 0.024,0.078 0.035,0.117 0.302,0.848 0.669,1.669 1.088,2.479 4.576,-8.083 11.191,-13.214 19.849,-15.419 -0.074,-0.565 -0.055,-1.165 0.041,-1.777 -9.337,1.792 -16.337,6.651 -21.013,14.6"
         id="path2655" />
      <path
         inkscape:connector-curvature="0"
         style="fill:#e60412"
         d="m 845.853,652.719 c -0.227,3.577 0.361,7.386 1.794,11.418 4.676,-7.949 11.676,-12.808 21.013,-14.601 0,-0.013 10e-4,-0.026 10e-4,-0.04 0.13,-0.793 0.403,-1.621 0.811,-2.511 -9.51,-2.423 -17.375,-0.506 -23.619,5.734"
         id="path2657" />
      <path
         inkscape:connector-curvature="0"
         style="fill:#e60412"
         d="m 872.432,656.15 c -1.4,-0.789 -2.407,-1.695 -3.042,-2.724 -6.429,3.295 -11.278,10.115 -14.564,20.473 2.069,1.646 4.521,3.12 7.368,4.423 1.744,-10.405 5.149,-17.792 10.238,-22.172"
         id="path2659" />
      <path
         inkscape:connector-curvature="0"
         style="fill:#f5f0de"
         d="m 869.39,653.427 c -0.41,-0.651 -0.677,-1.366 -0.771,-2.113 -8.657,2.205 -15.272,7.336 -19.849,15.419 1.382,2.671 3.402,5.059 6.056,7.167 3.285,-10.358 8.135,-17.178 14.564,-20.473"
         id="path2661" />
      <path
         inkscape:connector-curvature="0"
         style="fill:#f5f0de"
         d="m 877.082,657.965 c -0.997,-0.277 -1.904,-0.567 -2.718,-0.894 -5.126,4.328 -8.568,11.673 -10.337,22.04 1.315,0.549 2.712,1.051 4.178,1.527 0.721,-9.521 3.672,-17.079 8.877,-22.673"
         id="path2663" />
      <path
         inkscape:connector-curvature="0"
         style="fill:#76878a"
         d="m 874.364,657.071 c -0.71,-0.295 -1.354,-0.604 -1.933,-0.921 -5.091,4.38 -8.493,11.767 -10.238,22.172 0.594,0.267 1.2,0.535 1.834,0.789 1.77,-10.367 5.211,-17.712 10.337,-22.04"
         id="path2665" />
      <path
         inkscape:connector-curvature="0"
         style="fill:none;stroke:#a10e15;stroke-width:2.09100008;stroke-linecap:square;stroke-linejoin:round;stroke-miterlimit:10"
         d="m 859.103,632.534 c -8.352,5.876 -12.767,12.604 -13.25,20.185 -0.227,3.577 0.361,7.386 1.794,11.418 0.011,0.039 0.024,0.078 0.035,0.117 0.302,0.848 0.669,1.669 1.088,2.479 1.383,2.671 3.401,5.059 6.056,7.167 2.068,1.646 4.52,3.12 7.368,4.423 0.594,0.267 1.2,0.535 1.834,0.789 1.315,0.549 2.712,1.051 4.176,1.527 0.723,-9.521 3.674,-17.08 8.879,-22.674 -0.997,-0.277 -1.903,-0.567 -2.718,-0.894 -0.71,-0.295 -1.354,-0.604 -1.933,-0.921 -1.4,-0.789 -2.405,-1.695 -3.042,-2.724 -0.41,-0.651 -0.677,-1.366 -0.771,-2.113 -0.074,-0.565 -0.055,-1.165 0.041,-1.777 m 0.002,-0.04 c 0.128,-0.793 0.401,-1.621 0.808,-2.511 0.072,-0.168 0.155,-0.334 0.238,-0.503"
         id="path2667" />
      <path
         inkscape:connector-curvature="0"
         style="fill:#f5f0de"
         d="m 897.334,638.742 c 5.242,3.007 8.925,6.481 11.031,10.441 5.555,-5.998 6.09,-13.055 1.634,-21.171 -18.584,-7.255 -35.888,-7.475 -51.898,-0.654 2.262,11.148 12.273,18.715 30.059,22.676 1.961,-4.196 5.018,-7.96 9.174,-11.292"
         id="path2669" />
      <path
         inkscape:connector-curvature="0"
         style="fill:none;stroke:#a10e15;stroke-width:2.09100008;stroke-linecap:square;stroke-linejoin:round;stroke-miterlimit:10"
         d="m 897.334,638.742 c -4.156,3.332 -7.213,7.096 -9.175,11.292 -17.785,-3.961 -27.797,-11.527 -30.059,-22.676 16.011,-6.82 33.314,-6.601 51.898,0.654 4.456,8.116 3.921,15.173 -1.634,21.171 -2.105,-3.959 -5.788,-7.434 -11.03,-10.441 z"
         id="path2671" />
      <path
         inkscape:connector-curvature="0"
         style="fill:#e78c00"
         d="m 926.857,614.864 c 3.044,0 5.75,-1.463 8.104,-4.377 2.338,-2.914 3.646,-6.444 3.907,-10.561 0.274,-4.116 -0.589,-7.646 -2.562,-10.56 -1.973,-2.915 -4.496,-4.38 -7.541,-4.38 -3.058,0 -5.765,1.465 -8.104,4.38 -2.34,2.914 -3.647,6.443 -3.92,10.56 -0.262,4.116 0.601,7.646 2.575,10.561 1.974,2.914 4.483,4.377 7.541,4.377"
         id="path2673" />
      <path
         inkscape:connector-curvature="0"
         style="fill:none;stroke:#d82629;stroke-width:2.09100008;stroke-linecap:round;stroke-linejoin:round;stroke-miterlimit:10"
         d="m 926.857,614.864 c -3.059,0 -5.567,-1.463 -7.54,-4.377 -1.975,-2.914 -2.837,-6.444 -2.575,-10.561 0.272,-4.116 1.58,-7.646 3.92,-10.56 2.339,-2.915 5.046,-4.38 8.104,-4.38 3.045,0 5.568,1.465 7.541,4.38 1.973,2.914 2.836,6.443 2.562,10.56 -0.262,4.116 -1.569,7.646 -3.907,10.561 -2.355,2.914 -5.061,4.377 -8.105,4.377 z"
         id="path2675" />
      <path
         inkscape:connector-curvature="0"
         style="fill:#e78c00"
         d="m 920.885,574.912 c -9.058,-7.279 -19.996,-10.927 -32.817,-10.927 -12.808,0 -23.747,3.647 -32.829,10.927 -9.057,7.293 -13.593,16.101 -13.593,26.425 0,10.313 4.536,19.12 13.593,26.414 9.082,7.292 20.021,10.938 32.829,10.938 12.821,0 23.76,-3.646 32.817,-10.938 9.07,-7.294 13.605,-16.101 13.605,-26.414 0,-10.324 -4.535,-19.132 -13.605,-26.425"
         id="path2677" />
      <path
         inkscape:connector-curvature="0"
         style="fill:none;stroke:#d82629;stroke-width:2.09100008;stroke-linecap:round;stroke-linejoin:round;stroke-miterlimit:10"
         d="m 888.068,563.985 c -12.809,0 -23.748,3.647 -32.83,10.927 -9.057,7.293 -13.593,16.101 -13.593,26.425 0,10.313 4.536,19.12 13.593,26.414 9.082,7.292 20.021,10.938 32.83,10.938 12.82,0 23.759,-3.646 32.816,-10.938 9.07,-7.294 13.605,-16.101 13.605,-26.414 0,-10.324 -4.535,-19.132 -13.605,-26.425 -9.057,-7.279 -19.995,-10.927 -32.816,-10.927 z"
         id="path2679" />
      <path
         inkscape:connector-curvature="0"
         style="fill:#e78c00"
         d="m 852.39,589.994 c -0.144,-0.209 -0.301,-0.419 -0.471,-0.614 -2.339,-2.915 -5.045,-4.379 -8.104,-4.379 -3.045,0 -5.566,1.464 -7.54,4.379 -1.974,2.914 -2.836,6.442 -2.562,10.56 0.262,4.117 1.568,7.646 3.908,10.561 2.352,2.913 5.058,4.378 8.103,4.378 2.574,0 4.757,-1.034 6.561,-3.097 l 0.105,-0.916 v -20.872 z"
         id="path2681" />
      <path
         inkscape:connector-curvature="0"
         style="fill:none;stroke:#d82629;stroke-width:2.09100008;stroke-linecap:square;stroke-linejoin:round;stroke-miterlimit:10"
         d="m 852.284,611.781 c -1.804,2.062 -3.986,3.097 -6.561,3.097 -3.045,0 -5.751,-1.465 -8.103,-4.378 -2.34,-2.915 -3.646,-6.443 -3.908,-10.561 -0.275,-4.117 0.588,-7.646 2.562,-10.561 1.974,-2.914 4.495,-4.378 7.541,-4.378 3.058,0 5.765,1.464 8.104,4.378 0.17,0.196 0.327,0.405 0.471,0.615"
         id="path2683" />
      <path
         inkscape:connector-curvature="0"
         d="m 930.412,554.563 c -1.518,0.549 -3.293,1.046 -5.332,1.542 -4.104,0.992 -7.397,1.123 -9.827,0.366 0.939,-0.054 2.273,-0.523 4.023,-1.412 1.884,-0.968 3.217,-1.543 4,-1.673 -1.96,-0.025 -3.503,-0.025 -4.679,0 -2.091,0.079 -4.522,0.522 -7.293,1.386 2.275,-1.596 5.385,-2.77 9.306,-3.581 0.443,-0.104 -1.045,-0.288 -4.47,-0.573 -3.372,-0.29 -5.829,-0.21 -7.345,0.207 -2.17,0.601 -3.947,1.49 -5.334,2.691 0.185,-1.331 0.759,-2.664 1.7,-3.946 0.628,-0.837 1.935,-1.934 3.895,-3.319 1.83,-1.282 2.9,-1.907 3.215,-1.907 -1.594,-0.289 -3.476,-0.209 -5.594,0.208 -4.259,0.862 -7.422,3.06 -9.488,6.536 0.053,-2.798 -1.07,-5.046 -3.371,-6.744 -0.731,-0.55 -1.488,-0.968 -2.3,-1.28 -0.758,-0.289 -1.071,-0.367 -0.916,-0.235 1.386,2.744 0.628,5.802 -2.248,9.175 -1.149,-1.23 -1.515,-3.478 -1.07,-6.771 0.393,-2.928 0.837,-4.573 1.332,-4.939 -1.307,0.522 -2.64,1.385 -3.998,2.561 -2.145,1.857 -3.424,3.975 -3.868,6.352 -0.811,-0.339 -1.647,-0.679 -2.511,-1.019 -4.024,-1.542 -7.919,-2.169 -11.683,-1.882 0.286,0.312 1.123,1.177 2.535,2.562 0.154,0.183 0.313,0.339 0.445,0.497 -0.812,-0.026 -1.648,0.051 -2.562,0.184 -1.411,-0.681 -2.823,-1.256 -4.235,-1.727 -3.007,-0.992 -5.751,-1.385 -8.233,-1.203 0.968,0.864 2.588,2.066 4.863,3.556 1.958,1.438 3.266,2.952 3.972,4.547 -1.725,-1.07 -3.45,-1.828 -5.149,-2.271 -3.161,-0.811 -6.822,-0.525 -10.925,0.914 1.228,0.183 3.057,0.94 5.516,2.3 2.535,1.386 3.998,2.482 4.39,3.294 -2.17,-0.132 -4.051,-0.132 -5.595,-0.028 -2.795,0.21 -6.351,1.204 -10.638,2.979 1.125,0.264 2.902,0.971 5.384,2.119 2.562,1.203 4.288,2.17 5.177,2.875 -1.62,0.498 -3.607,0.862 -5.985,1.15 -3.162,0.366 -5.123,0.183 -5.828,-0.521 1.438,1.515 2.795,2.639 4.052,3.345 1.385,0.811 2.924,1.28 4.651,1.437 -0.576,0.551 -2.641,0.785 -6.194,0.707 -3.713,-0.209 -5.829,-0.314 -6.379,-0.341 2.693,3.896 6.379,6.377 11.005,7.475 2.353,0.551 4.496,0.891 6.403,0.995 9.07,0.498 15.345,-1.229 18.846,-5.202 0.237,-0.34 0.498,-0.654 0.76,-0.941 0.416,-0.522 0.836,-0.967 1.228,-1.359 3.32,-3.215 8.416,-4.992 15.265,-5.332 0.706,0.026 1.438,0.052 2.196,0.079 4.495,0.235 7.841,1.333 10.011,3.242 0.131,-0.34 0.706,-0.943 1.752,-1.806 1.044,-0.861 2.299,-1.201 3.737,-0.967 1.437,0.21 2.822,0.576 4.104,1.071 2.116,0.916 4.286,2.25 6.48,4.054 1.281,0.809 2.876,1.411 4.783,1.826 0.55,0.185 1.099,0.342 1.7,0.473 2.798,0.681 5.384,0.705 7.763,0.052 2.012,-0.548 3.634,-1.28 4.913,-2.194 0.915,-0.653 1.7,-1.49 2.406,-2.509 -1.177,0.023 -2.483,-0.054 -3.947,-0.184 -2.954,-0.235 -5.123,-0.733 -6.56,-1.438 -0.916,-0.472 -1.961,-0.811 -3.139,-1.046 l 2.693,-0.575 c 1.202,-0.289 2.64,-1.072 4.339,-2.405 1.49,-1.124 2.222,-1.777 2.222,-1.934 0.575,-0.497 1.019,-1.021 1.333,-1.568 0.025,-0.025 -1.646,0.078 -4.967,0.313 -3.79,0.287 -6.353,0.262 -7.685,-0.053 l -1.306,-0.313 0.889,-0.182 c 1.542,-0.367 3.188,-1.646 4.992,-3.87 1.54,-1.911 2.352,-3.166 2.378,-3.82"
         id="path2685" />
      <path
         inkscape:connector-curvature="0"
         style="fill:#d82629"
         d="m 925.069,615.148 1.325,-3.262 c -12.844,9.006 -25.907,12.243 -39.168,9.725 -4.137,-0.784 -8.056,-2.1 -11.739,-3.958 -1.848,-0.916 -3.266,-1.755 -4.277,-2.517 2.731,8.334 8.172,13.961 16.342,16.866 2.558,0.904 5.23,1.478 8.02,1.734 l 3.417,0.116 c 8.774,-0.514 15.97,-4.332 21.594,-11.44 1.755,-2.216 3.242,-4.646 4.486,-7.264"
         id="path2687" />
      <path
         inkscape:connector-curvature="0"
         style="fill:#e27c9f"
         d="m 905.367,621.438 c -4.658,0.984 -9.33,1.251 -14.027,0.774 0.419,1.711 0.906,2.987 1.477,3.844 1.163,1.735 2.987,2.562 5.475,2.462 2.545,-0.101 4.382,-1.054 5.521,-2.845 0.591,-0.933 1.115,-2.351 1.554,-4.235"
         id="path2689" />
      <path
         inkscape:connector-curvature="0"
         style="fill:#ffffff"
         d="m 910.05,581.787 c -2.17,1.606 -3.241,3.842 -3.227,6.717 0,2.876 1.098,5.543 3.279,7.999 2.195,2.47 4.835,4.012 7.906,4.6 3.085,0.615 5.712,0.105 7.882,-1.516 2.182,-1.608 3.253,-3.844 3.24,-6.718 -0.013,-2.875 -1.123,-5.541 -3.306,-7.998 -2.183,-2.456 -4.812,-3.988 -7.896,-4.601 -3.068,-0.587 -5.695,-0.093 -7.878,1.517"
         id="path2691" />
      <path
         inkscape:connector-curvature="0"
         style="fill:#ffffff"
         d="m 903.084,585.551 c -1.217,-2.731 -3.515,-4.521 -6.876,-5.357 -3.357,-0.824 -6.807,-0.446 -10.349,1.121 -3.516,1.583 -6.103,3.908 -7.738,6.954 -1.632,3.045 -1.841,5.946 -0.625,8.704 1.24,2.758 3.541,4.535 6.899,5.359 3.359,0.837 6.81,0.456 10.323,-1.124 3.544,-1.568 6.131,-3.881 7.765,-6.927 1.633,-3.071 1.842,-5.973 0.601,-8.73"
         id="path2693" />
      <path
         inkscape:connector-curvature="0"
         d="m 920.771,591.907 c -0.854,-1.122 -1.924,-1.742 -3.236,-1.858 -1.31,-0.117 -2.46,0.286 -3.471,1.205 -1.015,0.946 -1.573,2.133 -1.679,3.586 -0.105,1.454 0.257,2.729 1.088,3.852 0.853,1.137 1.923,1.769 3.233,1.886 1.311,0.115 2.462,-0.286 3.474,-1.233 1.026,-0.942 1.598,-2.132 1.701,-3.584 0.107,-1.455 -0.256,-2.73 -1.11,-3.854"
         id="path2695" />
      <path
         inkscape:connector-curvature="0"
         d="m 898.481,591.915 c -0.964,-1.145 -2.175,-1.777 -3.658,-1.896 -1.483,-0.119 -2.786,0.291 -3.931,1.23 -1.146,0.964 -1.777,2.177 -1.896,3.659 -0.12,1.484 0.291,2.784 1.229,3.93 0.965,1.16 2.177,1.805 3.659,1.925 1.484,0.118 2.784,-0.292 3.931,-1.258 1.16,-0.966 1.806,-2.176 1.925,-3.658 0.119,-1.483 -0.292,-2.785 -1.259,-3.932"
         id="path2697" />
      <path
         inkscape:connector-curvature="0"
         style="fill:#d82d1b"
         d="m 915.008,596.751 c -2.113,-2.354 -4.663,-3.53 -7.65,-3.53 -2.986,0 -5.536,1.177 -7.648,3.53 -2.126,2.339 -3.188,5.163 -3.188,8.47 0,3.304 1.062,6.128 3.188,8.468 2.112,2.352 4.662,3.528 7.648,3.528 2.987,0 5.537,-1.177 7.65,-3.528 2.125,-2.34 3.187,-5.164 3.187,-8.468 -0.001,-3.307 -1.062,-6.131 -3.187,-8.47"
         id="path2699" />
      <path
         inkscape:connector-curvature="0"
         style="fill:#e78c00"
         d="m 947.767,644.649 c -0.051,-0.993 -0.233,-1.935 -0.547,-2.824 -0.196,-0.561 -0.474,-1.044 -0.851,-1.476 -0.052,0.223 -0.104,0.432 -0.169,0.653 -0.681,2.444 -2.25,3.517 -4.704,3.216 -0.133,-0.014 -0.25,-0.04 -0.367,-0.078 -1.006,1.305 -1.633,2.312 -1.896,3.032 -0.351,0.914 -0.195,1.75 0.446,2.521 0.053,0.066 0.116,0.132 0.183,0.195 0.626,0.617 1.489,0.903 2.587,0.837 0.914,-0.024 1.738,-0.247 2.47,-0.679 0.159,-0.093 0.314,-0.195 0.472,-0.314 0.745,-0.562 1.334,-1.253 1.751,-2.064 0.483,-0.954 0.692,-1.961 0.625,-3.019"
         id="path2701" />
      <path
         inkscape:connector-curvature="0"
         style="fill:#e78c00"
         d="m 939.718,643.081 c 0.379,0.548 0.849,0.902 1.411,1.06 0.117,0.038 0.234,0.064 0.367,0.078 2.454,0.301 4.023,-0.771 4.705,-3.216 0.063,-0.222 0.116,-0.431 0.168,-0.653 0.354,-1.687 0.288,-3.358 -0.196,-5.032 -0.601,-2.038 -1.881,-3.215 -3.855,-3.542 -1.934,1.372 -2.495,3.085 -1.698,5.163 0.51,-0.613 1.124,-1.189 1.856,-1.737 -0.732,0.548 -1.347,1.124 -1.856,1.737 -0.979,1.189 -1.542,2.51 -1.673,3.948 0.037,0.795 0.299,1.527 0.771,2.194"
         id="path2703" />
      <path
         inkscape:connector-curvature="0"
         style="fill:#e78c00"
         d="m 944.918,650.047 c -0.731,0.432 -1.556,0.654 -2.47,0.679 -1.098,0.066 -1.961,-0.22 -2.587,-0.837 -1.124,1.112 -1.687,2.223 -1.687,3.335 0,1.307 0.693,1.96 2.064,1.96 1.543,0 2.693,-0.471 3.463,-1.411 0.695,-0.85 1.101,-2.093 1.217,-3.726"
         id="path2705" />
      <path
         inkscape:connector-curvature="0"
         style="fill:none;stroke:#d82629;stroke-width:2.09100008;stroke-linecap:round;stroke-linejoin:round;stroke-miterlimit:10"
         d="m 939.861,649.889 c -1.124,1.112 -1.687,2.223 -1.687,3.335 0,1.307 0.693,1.96 2.064,1.96 1.543,0 2.693,-0.471 3.463,-1.411 0.694,-0.85 1.1,-2.093 1.216,-3.726 m -3.788,-5.906 c -0.562,-0.157 -1.032,-0.512 -1.411,-1.06 -0.472,-0.667 -0.733,-1.399 -0.771,-2.194 0.131,-1.438 0.693,-2.759 1.673,-3.948 m -10e-4,-10e-4 c 0.51,-0.613 1.124,-1.189 1.856,-1.737 m -1.346,8.94 c 0.117,0.038 0.234,0.064 0.367,0.077 2.454,0.302 4.023,-0.771 4.704,-3.215 0.064,-0.222 0.117,-0.431 0.169,-0.653 m 0,0 c 0.354,-1.687 0.288,-3.358 -0.196,-5.032 -0.601,-2.039 -1.881,-3.215 -3.855,-3.542 -1.934,1.372 -2.495,3.085 -1.698,5.163 m 4.298,13.108 c -0.731,0.432 -1.556,0.654 -2.47,0.679 -1.098,0.066 -1.961,-0.22 -2.587,-0.837 m 0,0 c -0.066,-0.063 -0.13,-0.129 -0.183,-0.195 -0.642,-0.771 -0.797,-1.606 -0.446,-2.521 0.264,-0.721 0.891,-1.728 1.896,-3.032 m 5.241,-3.791 c 0.377,0.432 0.654,0.915 0.851,1.476 0.313,0.89 0.496,1.831 0.547,2.824 0.067,1.058 -0.142,2.064 -0.626,3.019 -0.417,0.812 -1.006,1.503 -1.751,2.064 -0.157,0.119 -0.312,0.222 -0.472,0.314"
         id="path2707" />
      <path
         inkscape:connector-curvature="0"
         style="fill:#ffffff"
         d="m 940.632,623.254 c -1.633,-0.651 -2.862,-0.207 -3.671,1.321 -3.699,7.017 -6.457,14.638 -8.247,22.884 l 2.966,1.503 8.952,-25.708 z"
         id="path2709" />
      <path
         inkscape:connector-curvature="0"
         style="fill:none;stroke:#000000;stroke-width:0.78399998;stroke-linecap:round;stroke-linejoin:round;stroke-miterlimit:10"
         d="m 936.961,624.575 c -3.699,7.017 -6.457,14.638 -8.247,22.884 l 2.966,1.503 8.951,-25.708 c -1.632,-0.651 -2.861,-0.207 -3.67,1.321 z"
         id="path2711" />
      <path
         inkscape:connector-curvature="0"
         style="fill:#ffffff"
         d="m 941.834,622.798 c -1.634,-0.655 -2.821,-0.183 -3.555,1.397 -3.384,7.294 -6.181,14.898 -8.363,22.806 l 2.968,1.505 8.95,-25.708 z"
         id="path2713" />
      <path
         inkscape:connector-curvature="0"
         style="fill:none;stroke:#000000;stroke-width:0.78399998;stroke-linecap:round;stroke-linejoin:round;stroke-miterlimit:10"
         d="m 938.279,624.195 c -3.384,7.294 -6.181,14.898 -8.363,22.806 l 2.968,1.503 8.95,-25.706 c -1.634,-0.655 -2.821,-0.183 -3.555,1.397 z"
         id="path2715" />
      <path
         inkscape:connector-curvature="0"
         style="fill:#ffffff"
         d="m 943.3,622.575 c -1.635,-0.652 -2.878,-0.104 -3.7,1.646 -3.398,7.201 -6.142,14.729 -8.22,22.559 l 2.966,1.503 8.954,-25.708 z"
         id="path2717" />
      <path
         inkscape:connector-curvature="0"
         style="fill:none;stroke:#000000;stroke-width:0.78399998;stroke-linecap:round;stroke-linejoin:round;stroke-miterlimit:10"
         d="m 939.6,624.222 c -3.398,7.202 -6.142,14.729 -8.22,22.559 l 2.966,1.503 8.954,-25.708 c -1.635,-0.653 -2.878,-0.104 -3.7,1.646 z"
         id="path2719" />
      <path
         inkscape:connector-curvature="0"
         style="fill:#ffffff"
         d="m 933.131,647.263 c -1.086,-2.169 -3.059,-3.384 -5.945,-3.658 l -37.654,-1.178 c -1.516,-0.064 -2.443,0.707 -2.782,2.34 l -10.456,43.142 c -0.458,1.635 0.078,2.458 1.607,2.458 l 37.992,1.083 c 1.423,0.014 2.301,-0.77 2.627,-2.352 l 14.611,-41.835 z"
         id="path2721" />
      <path
         inkscape:connector-curvature="0"
         style="fill:none;stroke:#000000;stroke-width:0.78399998;stroke-linecap:round;stroke-linejoin:round;stroke-miterlimit:10"
         d="m 927.186,643.604 -37.654,-1.178 c -1.516,-0.064 -2.443,0.707 -2.782,2.34 l -10.456,43.142 c -0.458,1.635 0.078,2.458 1.607,2.458 l 37.992,1.083 c 1.423,0.014 2.3,-0.77 2.626,-2.352 l 14.612,-41.835 c -1.086,-2.168 -3.06,-3.383 -5.945,-3.658 z"
         id="path2723" />
      <path
         inkscape:connector-curvature="0"
         style="fill:#ffffff"
         d="m 931.967,648.375 c -1.084,-2.17 -3.058,-3.385 -5.946,-3.66 l -37.652,-1.177 c -1.517,-0.064 -2.444,0.706 -2.784,2.34 L 875.13,689.02 c -0.457,1.634 0.079,2.457 1.608,2.457 l 37.99,1.084 c 1.426,0.014 2.302,-0.771 2.629,-2.352 l 14.61,-41.834 z"
         id="path2725" />
      <path
         inkscape:connector-curvature="0"
         style="fill:none;stroke:#000000;stroke-width:0.78399998;stroke-linecap:round;stroke-linejoin:round;stroke-miterlimit:10"
         d="m 926.021,644.715 -37.652,-1.177 c -1.517,-0.064 -2.444,0.706 -2.784,2.34 L 875.13,689.02 c -0.457,1.634 0.079,2.457 1.608,2.457 l 37.99,1.084 c 1.426,0.014 2.302,-0.771 2.629,-2.352 l 14.61,-41.834 c -1.084,-2.17 -3.058,-3.385 -5.946,-3.66 z"
         id="path2727" />
      <path
         inkscape:connector-curvature="0"
         style="fill:#ffffff"
         d="m 931.001,649.472 c -1.085,-2.17 -3.059,-3.384 -5.946,-3.659 l -37.653,-1.176 c -1.517,-0.065 -2.444,0.706 -2.783,2.339 l -10.456,43.141 c -0.457,1.635 0.077,2.458 1.607,2.458 l 37.993,1.084 c 1.425,0.015 2.299,-0.771 2.626,-2.352 l 14.612,-41.835 z"
         id="path2729" />
      <path
         inkscape:connector-curvature="0"
         style="fill:none;stroke:#000000;stroke-width:0.78399998;stroke-linecap:round;stroke-linejoin:round;stroke-miterlimit:10"
         d="m 925.055,645.812 -37.653,-1.176 c -1.517,-0.065 -2.444,0.706 -2.783,2.339 l -10.456,43.141 c -0.457,1.635 0.077,2.458 1.607,2.458 l 37.993,1.084 c 1.425,0.015 2.299,-0.771 2.626,-2.352 l 14.612,-41.835 c -1.085,-2.169 -3.059,-3.383 -5.946,-3.659 z"
         id="path2731" />
      <path
         inkscape:connector-curvature="0"
         style="fill:#b21b19"
         d="m 886.095,646.675 c -1.399,0 -2.26,0.693 -2.588,2.093 l -10.052,42.396 c -0.325,1.397 0.197,2.091 1.596,2.091 l 45.599,1.008 8.849,-46.634 -43.404,-0.954 z"
         id="path2733" />
      <path
         inkscape:connector-curvature="0"
         style="fill:none;stroke:#000000;stroke-width:2.09100008;stroke-linecap:round;stroke-linejoin:round;stroke-miterlimit:10"
         d="m 886.095,646.675 43.403,0.953 -8.849,46.634 -45.599,-1.008 c -1.398,0 -1.921,-0.693 -1.596,-2.091 l 10.052,-42.396 c 0.329,-1.399 1.189,-2.092 2.589,-2.092 z"
         id="path2735" />
      <path
         inkscape:connector-curvature="0"
         style="fill:#b21b19"
         d="m 943.978,624.588 c 0.144,-0.731 0.156,-1.307 0.054,-1.725 -0.092,-0.352 -0.314,-0.588 -0.693,-0.721 -0.157,0.015 -0.301,0.067 -0.432,0.146 -0.352,0.184 -0.626,0.418 -0.837,0.72 -3.829,8.977 -7.292,18.296 -10.364,27.968 l -8.206,42.488 c 3.254,-4.288 7.188,-11.697 11.788,-22.245 l 8.69,-46.631 z"
         id="path2737" />
      <path
         inkscape:connector-curvature="0"
         style="fill:none;stroke:#000000;stroke-width:2.09100008;stroke-linecap:round;stroke-linejoin:round;stroke-miterlimit:10"
         d="m 934.947,672.278 c 0.144,-0.301 0.261,-0.653 0.34,-1.06 l 8.69,-46.631 c 0.144,-0.731 0.156,-1.307 0.054,-1.725 -0.092,-0.352 -0.314,-0.588 -0.693,-0.72 -0.157,0.013 -0.301,0.066 -0.432,0.145 -0.352,0.184 -0.626,0.418 -0.837,0.72 -3.829,8.977 -7.292,18.296 -10.364,27.968 l -8.206,42.488 c 3.254,-4.288 7.188,-11.697 11.788,-22.245 l -0.34,1.06 z"
         id="path2739" />
      <path
         inkscape:connector-curvature="0"
         style="fill:#b21b19"
         d="m 932.607,645.812 c -0.249,-0.025 -0.744,-0.039 -1.49,-0.039 -2.155,-0.039 -3.358,0.784 -3.631,2.442 l -1.844,8.602 c 2.312,0.34 4.626,0.288 6.938,-0.144 l 0.63,-2.928 0.013,-0.013 0.051,-0.211 c -0.012,0.015 -0.012,0.015 -0.012,0.028 -0.016,0.038 -0.027,0.077 -0.039,0.142 v -0.078 c 0.012,-0.011 0.012,-0.025 0.023,-0.039 l 1.152,-5.359 c 0.368,-1.421 -0.236,-2.233 -1.791,-2.403"
         id="path2741" />
      <path
         inkscape:connector-curvature="0"
         style="fill:#fee700"
         d="m 932.58,656.674 c -2.312,0.432 -4.625,0.483 -6.938,0.144 l -0.615,2.861 c 2.312,0.326 4.64,0.263 6.953,-0.196 l 0.6,-2.809 z"
         id="path2743" />
      <path
         inkscape:connector-curvature="0"
         style="fill:#fee700"
         d="m 931.365,662.371 0.484,-2.3 c -2.312,0.457 -4.639,0.535 -6.952,0.209 l -0.498,2.287 c 2.327,0.327 4.655,0.261 6.966,-0.196"
         id="path2745" />
      <path
         inkscape:connector-curvature="0"
         style="fill:#b21b19"
         d="m 931.85,660.071 0.131,-0.589 c -2.313,0.459 -4.641,0.522 -6.953,0.196 l -0.13,0.602 c 2.313,0.326 4.639,0.248 6.952,-0.209"
         id="path2747" />
      <path
         inkscape:connector-curvature="0"
         style="fill:#b21b19"
         d="m 918.897,688.197 -0.026,0.155 -0.013,0.091 -0.939,4.47 c -0.445,1.66 0.417,2.483 2.573,2.445 0.745,0 1.241,-0.015 1.504,-0.039 1.633,-0.17 2.574,-0.982 2.822,-2.406 l 1.347,-6.259 c -2.34,0.575 -4.691,0.745 -7.044,0.509 l -0.224,1.034 z"
         id="path2749" />
      <polygon
         style="fill:#b21b19"
         points="918.871,688.274 918.871,688.353 918.897,688.197 "
         id="polygon2751" />
      <path
         inkscape:connector-curvature="0"
         style="fill:#fee700"
         d="m 919.616,684.876 -0.495,2.287 c 2.353,0.236 4.704,0.066 7.044,-0.509 l 0.482,-2.301 c -2.337,0.577 -4.692,0.746 -7.031,0.523"
         id="path2753" />
      <path
         inkscape:connector-curvature="0"
         style="fill:#b21b19"
         d="m 919.748,684.274 -0.132,0.602 c 2.339,0.223 4.693,0.054 7.031,-0.522 l 0.131,-0.601 c -2.338,0.575 -4.691,0.744 -7.03,0.521"
         id="path2755" />
      <path
         inkscape:connector-curvature="0"
         style="fill:#fee700"
         d="m 920.362,681.414 -0.614,2.86 c 2.339,0.223 4.692,0.054 7.03,-0.521 l 0.603,-2.797 c -2.341,0.549 -4.679,0.704 -7.019,0.458"
         id="path2757" />
      <path
         inkscape:connector-curvature="0"
         style="fill:#b21b19"
         d="m 931.365,662.371 c -2.312,0.457 -4.64,0.522 -6.966,0.196 l -4.037,18.847 c 2.34,0.246 4.678,0.091 7.019,-0.458 l 3.984,-18.585 z"
         id="path2759" />
      <path
         inkscape:connector-curvature="0"
         style="fill:none;stroke:#000000;stroke-width:2.09100008;stroke-linecap:round;stroke-linejoin:round;stroke-miterlimit:10"
         d="m 933.246,653.575 1.152,-5.359 c 0.367,-1.422 -0.236,-2.233 -1.791,-2.403 -0.249,-0.025 -0.744,-0.039 -1.49,-0.039 -2.155,-0.039 -3.358,0.784 -3.631,2.442 l -1.844,8.602 -0.615,2.861 -0.13,0.602 -0.497,2.287 -4.038,18.847 -0.614,2.86 -0.132,0.602 -0.495,2.287 -0.224,1.034 m -0.039,0.245 -0.939,4.47 c -0.445,1.66 0.417,2.483 2.573,2.445 0.745,0 1.241,-0.015 1.504,-0.039 1.633,-0.17 2.574,-0.982 2.822,-2.406 l 1.347,-6.259 0.482,-2.301 0.131,-0.601 0.603,-2.797 3.984,-18.585 0.484,-2.3 0.131,-0.589 0.6,-2.809 0.63,-2.928 m -14.313,34.453 -0.026,0.077 -0.013,0.169 0.013,-0.091 0.026,-0.155"
         id="path2761" />
      <path
         inkscape:connector-curvature="0"
         style="fill:#d82629"
         d="m 888.695,670.566 c 0.287,-0.066 0.574,-0.171 0.862,-0.302 0.051,-0.025 0.104,-0.053 0.157,-0.091 2.392,-1.556 2.718,-3.804 0.954,-6.718 -1.543,-2.575 -3.961,-4.168 -7.241,-4.757 -3.084,-0.562 -6.468,-0.55 -10.155,0.052 -0.195,0.039 -0.366,0.117 -0.51,0.247 -3.41,2.903 -6.325,8.131 -8.742,15.698 -0.065,0.208 -0.065,0.418 0,0.626 0.066,0.209 0.185,0.38 0.367,0.523 3.829,2.928 8.036,4.26 12.623,3.985 0.315,0.25 0.614,0.522 0.915,0.812 l 0.014,0.013 c 1.934,1.843 3.959,2.078 6.064,0.68 0.979,-0.654 1.503,-1.569 1.554,-2.732 0.026,-0.536 0.014,-1.031 -0.051,-1.489 0.077,0 0.155,0 0.223,-0.014 0.614,-0.038 1.175,-0.143 1.685,-0.34 h 0.015 c 0.664,-0.234 1.176,-0.758 1.529,-1.58 l -0.015,0.024 c 0.209,-0.482 0.303,-0.978 0.262,-1.502 -0.039,-0.432 -0.079,-0.876 -0.119,-1.32 -0.063,-0.627 -0.194,-1.227 -0.391,-1.815 m -1.477,-2.719 c -0.301,-0.484 -0.914,-1.032 -1.828,-1.633 -0.915,-0.615 -1.805,-0.993 -2.654,-1.15 -0.849,-0.171 -1.659,-0.065 -2.456,0.313 2.756,1.032 4.771,2.693 6.036,4.979 0.382,0.666 0.63,1.281 0.746,1.83 0.104,0.536 0.13,1.1 0.066,1.686 l -0.015,-0.014 c 0.015,0.17 -0.014,0.341 -0.078,0.497 v 0.014 c -0.09,0.21 -0.209,0.353 -0.352,0.444 V 674.8 c -0.328,0.118 -0.68,0.196 -1.06,0.21 -0.234,0.014 -0.484,-0.014 -0.758,-0.052 -2.34,-2.746 -4.495,-3.569 -6.47,-2.485 1.766,0.381 3.202,1.399 4.339,3.033 0.158,0.223 0.287,0.471 0.405,0.731 v 0.014 c 0.248,0.653 0.366,1.41 0.327,2.261 -0.013,0.457 -0.222,0.823 -0.615,1.071 h 0.014 c -1.216,0.771 -2.364,0.629 -3.477,-0.432 -0.013,0 -0.013,0 -0.013,-0.013 -0.445,-0.432 -0.915,-0.835 -1.411,-1.217 -0.21,-0.155 -0.445,-0.221 -0.707,-0.193 -3.986,0.299 -7.658,-0.732 -11.016,-3.111 2.155,-6.547 4.704,-11.161 7.669,-13.841 3.309,-0.523 6.354,-0.535 9.137,-0.026 2.628,0.483 4.574,1.739 5.83,3.79 1.006,1.66 0.914,2.94 -0.274,3.856 -0.303,0.117 -0.614,0.183 -0.915,0.195 -0.011,-0.012 -0.168,-0.26 -0.47,-0.744"
         id="path2763" />
      <path
         inkscape:connector-curvature="0"
         style="fill:#e78c00"
         d="m 885.39,666.214 c 0.914,0.601 1.527,1.148 1.828,1.633 0.302,0.484 0.457,0.732 0.472,0.745 0.301,-0.013 0.613,-0.078 0.914,-0.195 1.189,-0.916 1.282,-2.196 0.275,-3.856 -1.256,-2.051 -3.202,-3.307 -5.829,-3.79 -2.784,-0.509 -5.829,-0.497 -9.138,0.026 -2.965,2.68 -5.514,7.294 -7.669,13.841 3.357,2.379 7.031,3.41 11.016,3.111 0.262,-0.027 0.497,0.038 0.708,0.193 0.495,0.382 0.966,0.785 1.41,1.217 0,0.013 0,0.013 0.013,0.013 1.112,1.061 2.261,1.202 3.477,0.432 h -0.014 c 0.392,-0.248 0.603,-0.614 0.615,-1.071 0.039,-0.851 -0.079,-1.607 -0.327,-2.261 v -0.014 c -0.118,-0.261 -0.247,-0.509 -0.404,-0.731 -1.138,-1.634 -2.574,-2.652 -4.34,-3.033 1.975,-1.084 4.13,-0.261 6.47,2.485 0.275,0.038 0.523,0.065 0.758,0.052 0.38,-0.014 0.731,-0.092 1.06,-0.21 v 0.014 c 0.144,-0.092 0.262,-0.234 0.354,-0.444 v -0.014 c 0.062,-0.156 0.091,-0.327 0.077,-0.497 l 0.014,0.014 c 0.063,-0.586 0.038,-1.149 -0.065,-1.686 -0.117,-0.549 -0.365,-1.164 -0.747,-1.83 -1.266,-2.286 -3.28,-3.947 -6.036,-4.979 0.796,-0.379 1.607,-0.484 2.457,-0.313 0.845,0.155 1.736,0.533 2.651,1.148"
         id="path2765" />
      <path
         inkscape:connector-curvature="0"
         style="fill:#e60412"
         d="m 872.432,656.15 c -1.4,-0.789 -2.407,-1.695 -3.042,-2.724 -6.429,3.295 -11.278,10.115 -14.564,20.473 2.069,1.646 4.521,3.12 7.368,4.423 1.744,-10.405 5.149,-17.792 10.238,-22.172"
         id="path2767" />
      <path
         inkscape:connector-curvature="0"
         style="fill:#f5f0de"
         d="m 869.39,653.427 c -0.21,-0.346 -0.384,-0.702 -0.516,-1.073 -0.848,0.38 -1.669,0.785 -2.47,1.219 -1.555,0.828 -2.999,1.854 -4.304,3.11 -1.979,1.875 -3.682,4.057 -5.079,6.563 -1.286,2.301 -2.624,4.588 -4.015,6.847 -0.289,0.474 -0.627,0.855 -1.041,1.171 0.846,0.928 1.8,1.807 2.859,2.636 3.287,-10.358 8.137,-17.178 14.566,-20.473"
         id="path2769" />
      <path
         inkscape:connector-curvature="0"
         style="fill:#f5f0de"
         d="m 877.082,657.965 c -0.997,-0.277 -1.904,-0.567 -2.718,-0.894 -5.126,4.328 -8.568,11.673 -10.337,22.04 1.315,0.549 2.712,1.051 4.178,1.527 0.721,-9.521 3.672,-17.079 8.877,-22.673"
         id="path2771" />
      <path
         inkscape:connector-curvature="0"
         style="fill:#76878a"
         d="m 874.364,657.071 c -0.71,-0.295 -1.354,-0.604 -1.933,-0.921 -5.091,4.38 -8.493,11.767 -10.238,22.172 0.594,0.267 1.2,0.535 1.834,0.789 1.77,-10.367 5.211,-17.712 10.337,-22.04"
         id="path2773" />
      <path
         inkscape:connector-curvature="0"
         style="fill:none;stroke:#a10e15;stroke-width:2.09100008;stroke-linecap:square;stroke-linejoin:round;stroke-miterlimit:10"
         d="m 851.966,671.264 c 0.846,0.928 1.799,1.807 2.859,2.636 2.068,1.646 4.52,3.12 7.369,4.423 0.593,0.267 1.201,0.535 1.833,0.789 1.315,0.549 2.711,1.051 4.176,1.527 0.723,-9.521 3.674,-17.08 8.879,-22.674 -0.997,-0.277 -1.904,-0.567 -2.718,-0.894 -0.71,-0.295 -1.354,-0.604 -1.933,-0.921 -1.4,-0.789 -2.405,-1.695 -3.042,-2.724 -0.21,-0.346 -0.384,-0.702 -0.516,-1.073"
         id="path2775" />
      <path
         inkscape:connector-curvature="0"
         style="fill:#e78c00"
         d="m 947.767,644.649 c -0.051,-0.993 -0.233,-1.935 -0.547,-2.824 -0.196,-0.561 -0.474,-1.044 -0.851,-1.476 -0.052,0.223 -0.104,0.432 -0.169,0.653 -0.681,2.444 -2.25,3.517 -4.704,3.216 -0.133,-0.014 -0.25,-0.04 -0.367,-0.078 -1.006,1.305 -1.633,2.312 -1.896,3.032 -0.351,0.914 -0.195,1.75 0.446,2.521 0.053,0.066 0.116,0.132 0.183,0.195 0.626,0.617 1.489,0.903 2.587,0.837 0.914,-0.024 1.738,-0.247 2.47,-0.679 0.159,-0.093 0.314,-0.195 0.472,-0.314 0.745,-0.562 1.334,-1.253 1.751,-2.064 0.483,-0.954 0.692,-1.961 0.625,-3.019"
         id="path2777" />
      <path
         inkscape:connector-curvature="0"
         style="fill:#e78c00"
         d="m 943.063,635.972 c -0.849,0.092 -1.478,0.208 -1.883,0.354 -0.195,0.195 -0.394,0.404 -0.562,0.613 -0.979,1.189 -1.542,2.51 -1.673,3.948 0.038,0.795 0.3,1.527 0.771,2.194 0.379,0.548 0.849,0.902 1.411,1.06 0.117,0.038 0.234,0.064 0.367,0.078 2.454,0.301 4.023,-0.771 4.704,-3.216 0.064,-0.222 0.117,-0.431 0.169,-0.653 0.354,-1.687 0.288,-3.358 -0.196,-5.032 -0.273,-0.953 -0.718,-1.724 -1.308,-2.313 -0.625,0.417 -1.225,1.411 -1.8,2.967"
         id="path2779" />
      <path
         inkscape:connector-curvature="0"
         style="fill:#e78c00"
         d="m 940.619,636.938 c 0.168,-0.209 0.366,-0.418 0.562,-0.613 -0.47,0.169 -0.654,0.366 -0.562,0.613"
         id="path2781" />
      <path
         inkscape:connector-curvature="0"
         style="fill:#e78c00"
         d="m 944.918,650.047 c -0.731,0.432 -1.556,0.654 -2.47,0.679 -1.098,0.066 -1.961,-0.22 -2.587,-0.837 -1.124,1.112 -1.687,2.223 -1.687,3.335 0,1.307 0.693,1.96 2.064,1.96 1.543,0 2.693,-0.471 3.463,-1.411 0.695,-0.85 1.101,-2.093 1.217,-3.726"
         id="path2783" />
      <path
         inkscape:connector-curvature="0"
         style="fill:none;stroke:#d82629;stroke-width:2.09100008;stroke-linecap:round;stroke-linejoin:round;stroke-miterlimit:10"
         d="m 941.129,644.141 c 0.117,0.038 0.234,0.064 0.367,0.078 2.454,0.3 4.023,-0.771 4.704,-3.216 0.064,-0.222 0.117,-0.431 0.169,-0.653 m -5.24,3.791 c -0.562,-0.157 -1.032,-0.512 -1.411,-1.06 -0.472,-0.667 -0.733,-1.399 -0.771,-2.194 0.131,-1.438 0.693,-2.759 1.673,-3.948 0.168,-0.209 0.366,-0.418 0.562,-0.613 0.381,-0.393 0.94,-0.824 1.688,-1.308 m 3.499,5.332 c 0.354,-1.687 0.288,-3.358 -0.196,-5.032 -0.273,-0.955 -0.718,-1.724 -1.308,-2.313 m 1.504,7.345 c 0.377,0.432 0.654,0.915 0.851,1.476 0.313,0.89 0.496,1.831 0.547,2.824 0.067,1.058 -0.142,2.064 -0.626,3.019 -0.417,0.812 -1.006,1.503 -1.751,2.064 -0.156,0.119 -0.312,0.222 -0.472,0.314 m 0,0 c -0.731,0.432 -1.556,0.654 -2.47,0.679 -1.098,0.066 -1.961,-0.22 -2.587,-0.837 m 0,0 c -0.066,-0.063 -0.13,-0.129 -0.183,-0.195 -0.642,-0.771 -0.797,-1.606 -0.446,-2.521 0.264,-0.721 0.891,-1.728 1.896,-3.032 m -1.267,5.748 c -1.124,1.112 -1.687,2.223 -1.687,3.335 0,1.307 0.693,1.96 2.064,1.96 1.543,0 2.693,-0.471 3.463,-1.411 0.694,-0.85 1.1,-2.093 1.216,-3.726"
         id="path2785" />
    </g>
  </g>
</svg>
