<?xml version="1.0" encoding="UTF-8" standalone="no"?>
<!-- Created with Inkscape (http://www.inkscape.org/) -->

<svg
   xmlns:dc="http://purl.org/dc/elements/1.1/"
   xmlns:cc="http://creativecommons.org/ns#"
   xmlns:rdf="http://www.w3.org/1999/02/22-rdf-syntax-ns#"
   xmlns:svg="http://www.w3.org/2000/svg"
   xmlns="http://www.w3.org/2000/svg"
   xmlns:sodipodi="http://sodipodi.sourceforge.net/DTD/sodipodi-0.dtd"
   xmlns:inkscape="http://www.inkscape.org/namespaces/inkscape"
   width="154.32671"
   height="184.94556"
   id="svg5696"
   version="1.1"
   inkscape:version="0.48.4 r9939"
   sodipodi:docname="ernie3.svg">
  <defs
     id="defs5698">
    <clipPath
       id="SVGID_2_">
      <rect
         height="88.862999"
         width="111.498"
         y="518.96198"
         x="382.04999"
         id="use1087" />
    </clipPath>
    <clipPath
       id="SVGID_4_">
      <rect
         height="41.314999"
         width="49.584999"
         y="525.19397"
         x="389.84698"
         id="use1111" />
    </clipPath>
  </defs>
  <sodipodi:namedview
     id="base"
     pagecolor="#ffffff"
     bordercolor="#666666"
     borderopacity="1.0"
     inkscape:pageopacity="0.0"
     inkscape:pageshadow="2"
     inkscape:zoom="0.77472527"
     inkscape:cx="-20.750023"
     inkscape:cy="143.20391"
     inkscape:current-layer="layer1"
     inkscape:document-units="px"
     showgrid="false"
     inkscape:window-width="763"
     inkscape:window-height="591"
     inkscape:window-x="592"
     inkscape:window-y="97"
     inkscape:window-maximized="0"
     fit-margin-top="0"
     fit-margin-left="0"
     fit-margin-right="0"
     fit-margin-bottom="0" />
  <metadata
     id="metadata5701">
    <rdf:RDF>
      <cc:Work
         rdf:about="">
        <dc:format>image/svg+xml</dc:format>
        <dc:type
           rdf:resource="http://purl.org/dc/dcmitype/StillImage" />
        <dc:title></dc:title>
      </cc:Work>
    </rdf:RDF>
  </metadata>
  <g
     id="layer1"
     inkscape:label="Layer 1"
     inkscape:groupmode="layer"
     transform="translate(-338.69332,-43.364716)">
    <g
       transform="translate(-270.15152,-27.582284)"
       id="g1373">
      <path
         inkscape:connector-curvature="0"
         style="fill:#e83827"
         d="m 696.823,238.014 c 2.078,-0.306 3.403,-0.476 4.004,-0.542 4.035,-0.73 7.743,-1.08 11.154,-1.005 l -0.072,0.062 c 5.688,0.145 10.001,1.494 12.998,4.043 2.794,2.413 3.516,4.919 2.196,7.57 -1.459,2.823 -4.882,4.594 -10.257,5.364 -6.394,0.883 -14.477,0.049 -24.252,-2.501 -0.243,-0.052 -0.392,-0.219 -0.508,-0.55 -0.088,-0.307 -0.115,-0.806 -0.107,-1.466 0.014,-0.609 0.081,-1.909 0.214,-3.847 0.212,-2.663 0.336,-4.892 0.432,-6.669 1.023,-0.06 2.405,-0.21 4.198,-0.459"
         id="path1375" />
      <path
         inkscape:connector-curvature="0"
         style="fill:none;stroke:#e83927;stroke-width:4.09100008;stroke-linecap:round;stroke-linejoin:round;stroke-miterlimit:10"
         d="m 696.823,238.014 c -1.793,0.249 -3.175,0.399 -4.198,0.458 -0.096,1.777 -0.22,4.006 -0.432,6.669 -0.133,1.938 -0.2,3.238 -0.214,3.847 -0.008,0.66 0.02,1.159 0.107,1.466 0.116,0.331 0.265,0.498 0.508,0.55 9.775,2.55 17.858,3.384 24.252,2.501 5.375,-0.77 8.798,-2.541 10.257,-5.364 1.319,-2.651 0.598,-5.157 -2.196,-7.57 -2.997,-2.549 -7.311,-3.898 -12.998,-4.043 l 0.072,-0.062 c -3.411,-0.075 -7.119,0.275 -11.154,1.005 -0.6,0.067 -1.926,0.237 -4.004,0.543 z"
         id="path1377" />
      <path
         inkscape:connector-curvature="0"
         style="fill:#ffffff"
         d="m 727.104,248.141 c -1.433,2.819 -4.854,4.617 -10.229,5.388 -6.389,0.907 -14.473,0.073 -24.278,-2.498 -0.243,-0.054 -0.392,-0.221 -0.508,-0.551 -0.085,-0.309 -0.112,-0.805 -0.107,-1.465 2.034,0.754 4.582,1.373 7.667,1.829 3.617,0.528 6.062,0.446 7.281,-0.214 0.25,-0.133 0.418,-0.784 0.527,-1.957 0.23,-2.478 0.326,-3.781 0.342,-3.889 0.516,-3.96 1.881,-6.694 4.061,-8.224 5.685,0.119 10.051,1.462 13.05,4.037 2.791,2.387 3.513,4.893 2.194,7.544"
         id="path1379" />
      <path
         inkscape:connector-curvature="0"
         style="fill:#e83434"
         d="m 711.525,248.969 c -0.18,1.259 -0.396,1.942 -0.644,2.074 -1.192,0.685 -4.28,0.678 -9.261,0.006 -4.524,-0.614 -7.739,-1.292 -9.64,-2.034 0.014,-0.609 0.082,-1.909 0.216,-3.849 0.21,-2.661 0.336,-4.891 0.434,-6.669 1.021,-0.058 2.404,-0.209 4.196,-0.456 2.074,-0.306 3.403,-0.478 4.002,-0.544 2.456,-0.451 4.878,-0.742 7.315,-0.902 2.987,-0.193 5.582,-0.106 7.777,0.208 -1.87,1.232 -3.133,3.929 -3.818,8.04 -0.178,1.022 -0.371,2.387 -0.577,4.126"
         id="path1381" />
      <path
         inkscape:connector-curvature="0"
         style="fill:#ffffff"
         d="m 693.996,245.708 c -0.097,-0.885 0.109,-1.672 0.611,-2.362 0.531,-0.69 1.203,-1.08 2.012,-1.168 0.808,-0.088 1.545,0.147 2.212,0.708 0.642,0.564 1.012,1.288 1.109,2.174 0.096,0.887 -0.108,1.674 -0.615,2.362 -0.532,0.664 -1.201,1.055 -2.011,1.143 -0.809,0.088 -1.547,-0.148 -2.21,-0.682 -0.641,-0.564 -1.012,-1.288 -1.108,-2.175"
         id="path1383" />
      <path
         inkscape:connector-curvature="0"
         style="fill:#ffffff"
         d="m 712.449,235.44 c 0.661,0.007 1.223,0.078 1.662,0.241 -0.917,0.522 -1.776,1.355 -2.573,2.523 -0.706,1.027 -1.607,2.681 -2.706,4.937 -1.494,-0.153 -2.35,-0.244 -2.564,-0.301 -0.077,-0.703 0.423,-1.918 1.527,-3.648 1.1,-1.755 2.086,-2.892 3.001,-3.44 0.372,-0.226 0.916,-0.31 1.653,-0.312"
         id="path1385" />
      <path
         inkscape:connector-curvature="0"
         style="fill:#e83827"
         d="m 649.901,231.647 c -2.094,-0.003 -3.429,0.018 -4.03,0.041 -4.09,-0.141 -7.801,0.043 -11.157,0.61 l 0.08,0.05 c -5.596,0.959 -9.662,2.912 -12.253,5.858 -2.412,2.784 -2.766,5.362 -1.081,7.789 1.846,2.579 5.479,3.835 10.897,3.823 6.44,-0.047 14.302,-2.031 23.583,-5.951 0.235,-0.087 0.357,-0.275 0.426,-0.618 0.04,-0.316 -0.004,-0.811 -0.104,-1.462 -0.1,-0.599 -0.357,-1.873 -0.765,-3.769 -0.59,-2.597 -1.035,-4.781 -1.387,-6.521 -1.017,0.088 -2.404,0.139 -4.209,0.15"
         id="path1387" />
      <path
         inkscape:connector-curvature="0"
         style="fill:none;stroke:#e83927;stroke-width:4.08199978;stroke-linecap:round;stroke-linejoin:round;stroke-miterlimit:10"
         d="m 649.901,231.647 c 1.805,-0.011 3.191,-0.062 4.209,-0.15 0.352,1.74 0.797,3.924 1.387,6.521 0.407,1.896 0.665,3.17 0.765,3.769 0.101,0.651 0.145,1.146 0.104,1.462 -0.068,0.343 -0.19,0.531 -0.426,0.618 -9.281,3.92 -17.143,5.904 -23.583,5.951 -5.419,0.012 -9.052,-1.244 -10.897,-3.823 -1.685,-2.427 -1.331,-5.005 1.081,-7.789 2.591,-2.946 6.657,-4.899 12.253,-5.858 l -0.08,-0.05 c 3.356,-0.567 7.067,-0.751 11.157,-0.61 0.602,-0.023 1.937,-0.044 4.03,-0.041 z"
         id="path1389" />
      <path
         inkscape:connector-curvature="0"
         style="fill:#ffffff"
         d="m 621.46,245.995 c 1.82,2.579 5.453,3.862 10.872,3.851 6.439,-0.021 14.303,-2.006 23.612,-5.953 0.233,-0.086 0.357,-0.275 0.424,-0.618 0.04,-0.316 -0.004,-0.81 -0.104,-1.462 -1.902,1.038 -4.328,2.015 -7.307,2.907 -3.497,1.042 -5.923,1.311 -7.222,0.834 -0.266,-0.094 -0.523,-0.714 -0.802,-1.855 -0.582,-2.414 -0.863,-3.686 -0.895,-3.791 -1.079,-3.836 -2.819,-6.34 -5.193,-7.536 -5.595,0.934 -9.714,2.888 -12.303,5.861 -2.413,2.757 -2.767,5.335 -1.082,7.762"
         id="path1391" />
      <path
         inkscape:connector-curvature="0"
         style="fill:#e83434"
         d="m 636.96,244.575 c 0.357,1.217 0.669,1.86 0.935,1.955 1.275,0.504 4.324,0.055 9.144,-1.322 4.378,-1.257 7.453,-2.388 9.226,-3.395 -0.102,-0.599 -0.355,-1.873 -0.765,-3.769 -0.592,-2.597 -1.037,-4.78 -1.387,-6.522 -1.018,0.09 -2.404,0.139 -4.209,0.151 -2.096,-0.003 -3.431,0.019 -4.032,0.041 -2.489,-0.094 -4.923,-0.033 -7.354,0.158 -2.975,0.239 -5.522,0.697 -7.646,1.323 2.024,0.949 3.658,3.429 4.924,7.39 0.324,0.983 0.712,2.304 1.164,3.99"
         id="path1393" />
      <path
         inkscape:connector-curvature="0"
         style="fill:#ffffff"
         d="m 653.8,238.838 c -0.032,-0.888 -0.348,-1.637 -0.946,-2.245 -0.624,-0.604 -1.343,-0.892 -2.152,-0.864 -0.809,0.029 -1.505,0.369 -2.084,1.018 -0.552,0.649 -0.812,1.416 -0.781,2.306 0.033,0.888 0.348,1.636 0.944,2.243 0.624,0.58 1.341,0.869 2.152,0.84 0.81,-0.03 1.505,-0.368 2.085,-0.992 0.552,-0.649 0.812,-1.417 0.782,-2.306 l 0,0 z"
         id="path1395" />
      <path
         inkscape:connector-curvature="0"
         style="fill:#ffffff"
         d="m 634.102,231.351 c -0.65,0.102 -1.194,0.253 -1.604,0.477 0.983,0.382 1.949,1.082 2.902,2.121 0.845,0.912 1.972,2.416 3.383,4.487 1.454,-0.367 2.281,-0.581 2.489,-0.667 -0.025,-0.705 -0.695,-1.834 -2.032,-3.382 -1.339,-1.577 -2.474,-2.555 -3.457,-2.965 -0.4,-0.17 -0.95,-0.175 -1.681,-0.071"
         id="path1397" />
      <path
         inkscape:connector-curvature="0"
         style="fill:#003c90"
         d="m 719.704,206.377 c -0.445,-0.184 -0.894,-0.236 -1.339,-0.105 -3.253,0.84 -6.901,1.548 -10.943,2.1 -6.219,0.865 -12.699,1.286 -19.419,1.312 h -0.052 -0.052 -0.054 c -6.744,-0.026 -13.198,-0.447 -19.419,-1.312 -4.04,-0.552 -7.688,-1.26 -10.941,-2.1 -0.446,-0.131 -0.894,-0.079 -1.341,0.105 -0.444,0.183 -0.76,0.473 -0.997,0.892 -0.236,0.395 -0.34,0.84 -0.262,1.312 l 0.079,0.788 c 0.604,4.645 1.681,10.548 3.228,17.713 0.025,0.184 0.078,0.367 0.13,0.552 0.029,0.13 0.054,0.262 0.082,0.392 h 27.893 v 0.027 c 0.447,-0.027 0.945,-0.027 1.549,-0.027 h 0.054 0.052 c 0,0 1.103,0 1.522,0.027 0.078,-0.053 0.13,-0.106 0.21,-0.157 l 27.711,0.315 c 0.026,-0.185 0.078,-0.395 0.13,-0.577 0.028,-0.185 0.08,-0.368 0.105,-0.552 1.601,-7.268 2.678,-13.173 3.255,-17.713 l 0.106,-0.788 c 0.052,-0.472 -0.028,-0.917 -0.265,-1.312 -0.235,-0.419 -0.577,-0.709 -1.022,-0.892"
         id="path1399" />
      <path
         inkscape:connector-curvature="0"
         style="fill:#003c90"
         d="m 690.001,211.787 c -0.08,-0.027 -0.132,-0.027 -0.212,0 v -1.917 l 0.08,-0.182 v 0.182 c 0.026,0.5 0.052,0.972 0.078,1.471 0.025,0.131 0.025,0.289 0.054,0.446"
         id="path1401" />
      <path
         inkscape:connector-curvature="0"
         style="fill:#5390cd"
         d="m 689.789,211.787 c 0.08,-0.027 0.132,-0.027 0.212,0 -0.029,-0.157 -0.029,-0.315 -0.054,-0.446 -0.026,-0.499 -0.052,-0.971 -0.078,-1.471 v -0.182 c 0.76,-0.578 1.521,-1.129 2.282,-1.654 8.345,-5.537 17.11,-6.218 26.318,-2.047 0.341,0.132 0.577,0.21 0.659,0.236 0.024,-0.026 0.024,-0.026 0.052,0 l -0.499,2.153 c 0.079,-0.027 0.184,-0.053 0.262,-0.079 l -0.078,0.787 c -0.655,5.117 -1.916,11.782 -3.753,19.996 -8.162,0.865 -15.927,1.365 -23.276,1.522 0,-1.864 -0.104,-6.928 -0.314,-15.194 -1.024,-0.341 -1.682,-0.105 -1.97,0.682 l 0.237,-4.303 z"
         id="path1403" />
      <path
         inkscape:connector-curvature="0"
         style="fill:#003c90"
         d="m 689.552,216.09 c 0.288,-0.787 0.945,-1.023 1.97,-0.682 0.21,8.266 0.314,13.33 0.314,15.194 l -0.025,4.592 c 3.358,0.526 8.056,0.526 14.091,0.027 l 8.03,-0.946 c 0.34,-1.391 0.735,-3.123 1.181,-5.195 1.837,-8.214 3.098,-14.879 3.753,-19.996 l 0.078,-0.787 c -0.078,0.026 -0.183,0.052 -0.262,0.079 l 0.499,-2.153 c 0.024,-0.026 0.024,-0.026 0.024,0 0.184,0.026 0.369,0.079 0.554,0.158 0.445,0.183 0.759,0.472 0.996,0.893 0.236,0.392 0.342,0.839 0.263,1.311 l -0.08,0.787 c -0.655,5.118 -1.915,11.784 -3.752,20.023 -0.025,0.105 -0.051,0.208 -0.079,0.315 -0.445,2.02 -0.812,3.7 -1.13,5.064 -0.103,0.42 -0.312,0.788 -0.656,1.077 -0.34,0.288 -0.707,0.446 -1.153,0.524 l -8.03,0.945 c -0.024,-0.027 -0.052,-0.027 -0.076,0 -6.248,0.525 -11.102,0.498 -14.591,-0.052 -0.499,-0.08 -0.921,-0.315 -1.261,-0.709 -0.184,-0.237 -0.34,-0.499 -0.42,-0.787 l -0.238,-19.682 z"
         id="path1405" />
      <path
         inkscape:connector-curvature="0"
         style="fill:#a4c6e9"
         d="m 713.932,234.275 -8.03,0.946 c -6.035,0.499 -10.732,0.499 -14.091,-0.027 l 0.025,-4.592 c 7.35,-0.157 15.114,-0.657 23.276,-1.522 -0.445,2.072 -0.841,3.804 -1.18,5.195"
         id="path1407" />
      <path
         inkscape:connector-curvature="0"
         style="fill:#5390cd"
         d="m 661.575,202.418 c 0,-0.025 0,-0.053 -0.028,-0.053 l -1.286,1.785 c -0.024,-0.078 -0.078,-0.184 -0.13,-0.262 l -0.552,0.578 c -3.387,3.857 -7.585,9.184 -12.543,15.954 4.724,6.692 9.422,12.858 14.119,18.474 1.362,-1.181 7.006,-5.616 16.951,-13.33 -0.078,-0.578 -0.132,-1.155 -0.21,-1.705 -1.312,-9.895 -6.562,-16.926 -15.72,-21.1 -0.341,-0.183 -0.523,-0.288 -0.601,-0.341"
         id="path1409" />
      <path
         inkscape:connector-curvature="0"
         style="fill:#003c90"
         d="m 661.521,202.365 c -0.132,-0.157 -0.288,-0.261 -0.472,-0.314 -0.422,-0.235 -0.867,-0.288 -1.339,-0.184 -0.447,0.079 -0.839,0.315 -1.127,0.683 l -0.554,0.551 c -3.385,3.857 -7.583,9.184 -12.595,15.955 -0.054,0.079 -0.105,0.183 -0.186,0.288 -1.205,1.627 -2.229,3.019 -3.043,4.174 -0.234,0.341 -0.366,0.733 -0.396,1.179 0.03,0.447 0.135,0.84 0.37,1.234 l 4.566,6.639 c 0.027,0 0.027,0.026 0.052,0.053 3.702,5.039 6.93,8.686 9.631,10.942 0.368,0.315 0.815,0.474 1.338,0.474 0.291,-0.028 0.58,-0.08 0.868,-0.185 l 14.931,-12.78 4.54,-4.225 1.024,-0.76 c -0.657,0.078 -0.971,-0.028 -0.997,-0.315 0.234,-0.29 0.496,-0.579 0.785,-0.867 -0.289,0.211 -0.551,0.42 -0.812,0.657 -9.945,7.714 -15.589,12.149 -16.951,13.33 l -3.413,3.043 c -2.598,-2.177 -5.694,-5.692 -9.263,-10.573 l -4.566,-6.64 c 0.813,-1.181 1.864,-2.598 3.123,-4.304 4.958,-6.77 9.156,-12.097 12.543,-15.954 l 0.552,-0.578 c 0.052,0.078 0.105,0.184 0.13,0.262 l 1.286,-1.785 c 10e-4,-0.025 10e-4,-0.025 -0.025,0"
         id="path1411" />
      <path
         inkscape:connector-curvature="0"
         style="fill:#a4c6e9"
         d="m 647.036,220.42 c -1.259,1.706 -2.31,3.123 -3.123,4.304 l 4.566,6.64 c 3.568,4.881 6.665,8.396 9.263,10.573 l 3.413,-3.043 c -4.697,-5.616 -9.395,-11.782 -14.119,-18.474"
         id="path1413" />
      <path
         inkscape:connector-curvature="0"
         style="fill:#5390cd"
         d="m 715.74,225.874 c 0.159,-0.708 0.317,-1.416 0.474,-2.125 1.234,-5.904 2.072,-10.786 2.571,-14.669 l 0.105,-0.787 c -3.333,0.866 -7.06,1.575 -11.18,2.152 -6.324,0.865 -12.912,1.312 -19.76,1.338 h -0.052 c -6.85,-0.026 -13.438,-0.473 -19.762,-1.338 -4.12,-0.577 -7.846,-1.286 -11.179,-2.152 l 0.08,0.787 c 0.498,3.962 1.365,8.843 2.596,14.669 0.133,0.709 0.29,1.417 0.448,2.125 h 55.659 z"
         id="path1415" />
      <path
         inkscape:connector-curvature="0"
         style="fill:#f49c00"
         d="m 662.32,179.104 c 0.229,-1.337 0.534,-2.657 0.939,-3.954 l -1.171,-1.071 -1.497,-1.388 c -4.813,0.814 -10.316,2.995 -16.511,6.566 -6.475,3.72 -11.361,7.754 -14.661,12.098 -0.268,0.341 -0.501,0.662 -0.743,1.006 -6.813,-1.17 -11.957,0.853 -15.434,6.066 -1.261,1.876 -2.015,3.76 -2.272,5.679 -0.257,1.811 -0.014,2.857 0.748,3.141 1.928,0.685 3.335,0.261 4.21,-1.33 0.462,-1.31 0.854,-2.315 1.171,-2.992 -0.102,0.326 -0.216,0.7 -0.302,1.189 -0.198,1.21 -0.296,2.445 -0.229,3.663 0.208,3.39 1.391,5.212 3.595,5.507 1.133,0.314 2.022,-0.764 2.651,-3.265 0.487,-2.803 0.785,-4.444 0.935,-4.971 -0.167,3.624 -0.069,6.213 0.338,7.804 0.676,2.643 2.181,3.765 4.536,3.399 1.029,-0.164 1.88,-1.652 2.504,-4.476 0.571,-2.595 0.699,-4.304 0.378,-5.127 0.803,1.282 1.687,2.315 2.681,3.105 1.509,1.231 2.774,1.416 3.827,0.562 1.482,-1.208 1.532,-3.737 0.126,-7.617 -0.504,-1.4 -1.111,-2.717 -1.822,-3.924 -0.672,-1.144 -1.125,-1.728 -1.397,-1.818 0.208,-0.326 0.442,-0.646 0.676,-0.967 2.953,-4.105 7.529,-7.836 13.768,-11.236 3.757,-2.047 8.097,-3.935 12.956,-5.649"
         id="path1417" />
      <path
         inkscape:connector-curvature="0"
         style="fill:#e83434"
         d="m 662.089,174.079 c 0.042,-0.071 0.111,-0.135 0.155,-0.204 0.318,-0.462 0.436,-0.97 0.351,-1.525 -0.112,-0.56 -0.386,-0.998 -0.821,-1.311 -0.46,-0.321 -0.968,-0.437 -1.521,-0.352 -5.035,0.845 -10.744,3.112 -17.186,6.812 -6.752,3.896 -11.87,8.118 -15.301,12.675 -0.025,-0.006 -0.052,-0.012 -0.08,0.007 -7.051,-0.85 -12.418,1.55 -16.137,7.134 -1.427,2.131 -2.304,4.308 -2.572,6.519 -0.441,3.186 0.218,4.969 2.032,5.333 l 0.024,0.006 c 1.406,0.512 2.64,0.61 3.69,0.344 0.538,3.573 2.23,5.514 5.029,5.784 1.029,0.292 1.956,0.104 2.808,-0.582 1.146,2.912 3.279,4.099 6.375,3.555 l 0.029,-0.019 c 1.846,-0.004 3.243,-2.007 4.141,-6.022 l 0.006,-0.027 c 0.048,-0.203 0.096,-0.406 0.136,-0.583 2.34,1.795 4.352,1.884 6.059,0.272 2.312,-1.552 2.56,-4.835 0.755,-9.877 -0.493,-1.343 -1.059,-2.597 -1.725,-3.766 -0.098,-0.157 -0.165,-0.333 -0.264,-0.489 -0.214,-0.343 -0.382,-0.65 -0.56,-0.931 2.812,-3.736 7.078,-7.163 12.824,-10.276 3.422,-1.86 7.296,-3.586 11.646,-5.176 -0.014,-0.058 -0.002,-0.108 0.009,-0.159 0.084,-0.703 0.197,-1.425 0.329,-2.117 -4.859,1.714 -9.199,3.602 -12.958,5.649 -6.238,3.4 -10.814,7.131 -13.768,11.236 -0.235,0.321 -0.468,0.641 -0.676,0.967 0.272,0.09 0.726,0.674 1.397,1.818 0.711,1.207 1.318,2.524 1.822,3.924 1.406,3.88 1.356,6.409 -0.126,7.617 -1.053,0.854 -2.318,0.669 -3.827,-0.562 -0.994,-0.79 -1.878,-1.823 -2.681,-3.105 0.321,0.823 0.193,2.532 -0.378,5.127 -0.624,2.824 -1.475,4.312 -2.504,4.476 -2.355,0.366 -3.86,-0.756 -4.536,-3.399 -0.407,-1.591 -0.505,-4.18 -0.338,-7.804 -0.149,0.527 -0.447,2.168 -0.935,4.971 -0.629,2.501 -1.519,3.579 -2.651,3.265 -2.204,-0.295 -3.387,-2.117 -3.595,-5.507 -0.066,-1.218 0.031,-2.453 0.229,-3.663 0.086,-0.489 0.2,-0.863 0.302,-1.189 -0.317,0.677 -0.709,1.682 -1.171,2.992 -0.875,1.591 -2.282,2.015 -4.21,1.33 -0.762,-0.284 -1.005,-1.33 -0.748,-3.141 0.258,-1.919 1.012,-3.803 2.272,-5.679 3.477,-5.213 8.62,-7.236 15.434,-6.066 0.242,-0.344 0.476,-0.665 0.743,-1.006 3.3,-4.344 8.187,-8.378 14.661,-12.098 6.194,-3.571 11.697,-5.752 16.511,-6.566 l 1.5,1.388 z"
         id="path1419" />
      <path
         inkscape:connector-curvature="0"
         style="fill:#003c90"
         d="m 667.143,162.598 c -0.402,-0.226 -0.81,-0.319 -1.275,-0.267 -4.598,0.464 -9.787,1.753 -15.571,3.869 -11.598,4.276 -20.33,10.605 -26.143,18.997 -0.231,0.32 -0.364,0.663 -0.376,1.062 -0.012,0.398 0.062,0.763 0.248,1.126 0.162,0.333 0.426,0.581 0.779,0.795 l 6.963,4.119 -0.025,-0.005 c 4.334,2.655 6.842,4.411 7.484,5.226 0.278,0.414 0.668,0.69 1.147,0.826 0.476,0.138 0.928,0.135 1.375,-0.056 0.445,-0.191 0.813,-0.509 1.045,-0.935 0.128,-0.211 0.338,-0.536 0.67,-0.942 0.761,-0.975 1.758,-2.054 3.007,-3.184 4.057,-3.795 9.707,-7.653 16.896,-11.584 0.272,-0.15 0.478,-0.343 0.664,-0.568 0.186,-0.225 0.3,-0.493 0.365,-0.771 l 3.717,-15.425 c 0.1,-0.432 0.065,-0.867 -0.1,-1.306 -0.196,-0.421 -0.469,-0.75 -0.87,-0.977 m -1.054,1.789 -3.719,15.424 c -1.131,0.622 -2.082,1.151 -2.855,1.614 -2.897,1.658 -5.435,3.267 -7.574,4.779 -2.606,1.803 -4.794,3.519 -6.564,5.169 -1.423,1.303 -2.582,2.506 -3.491,3.661 -0.451,0.564 -0.765,1 -0.917,1.311 -0.655,-0.98 -3.366,-2.914 -8.146,-5.835 l -6.964,-4.12 c 1.835,-2.623 3.996,-5.039 6.466,-7.278 2.864,-2.574 6.091,-4.852 9.68,-6.858 3.461,-1.901 7.291,-3.559 11.433,-4.929 3.008,-0.991 6.02,-1.767 9.019,-2.358 1.506,-0.294 2.731,-0.494 3.632,-0.58"
         id="path1421" />
      <path
         inkscape:connector-curvature="0"
         style="fill:#ffffff"
         d="m 662.37,179.811 3.719,-15.424 c -0.901,0.086 -2.126,0.286 -3.635,0.58 -2.999,0.591 -6.011,1.367 -9.019,2.358 l 6.079,14.1 c 0.774,-0.463 1.725,-0.992 2.856,-1.614"
         id="path1423" />
      <path
         inkscape:connector-curvature="0"
         style="fill:#0076bf"
         d="m 653.436,167.325 c -4.142,1.37 -7.972,3.028 -11.433,4.929 l 9.938,13.95 c 2.14,-1.512 4.677,-3.121 7.574,-4.779 l -6.079,-14.1 z"
         id="path1425" />
      <path
         inkscape:connector-curvature="0"
         style="fill:#fedb00"
         d="m 651.94,186.204 -9.938,-13.95 c -3.589,2.006 -6.815,4.284 -9.68,6.858 l 13.053,12.261 c 1.771,-1.65 3.959,-3.366 6.565,-5.169"
         id="path1427" />
      <path
         inkscape:connector-curvature="0"
         style="fill:#e83827"
         d="m 625.857,186.39 6.964,4.12 c 4.78,2.921 7.491,4.855 8.146,5.835 0.152,-0.311 0.466,-0.747 0.917,-1.311 0.909,-1.155 2.068,-2.358 3.491,-3.661 l -13.053,-12.261 c -2.468,2.239 -4.63,4.655 -6.465,7.278"
         id="path1429" />
      <path
         inkscape:connector-curvature="0"
         style="fill:#003c90"
         d="m 732.794,142.167 c -0.079,0.184 -0.104,0.393 -0.052,0.603 0.443,2.284 0.76,4.383 0.943,6.326 0.317,3.227 0.237,5.93 -0.209,8.133 -0.446,1.864 -1.155,3.36 -2.125,4.488 -0.919,0.919 -2.046,1.549 -3.438,1.889 -3.018,0.71 -7.138,0.054 -12.359,-1.968 -0.235,-0.13 -0.472,-0.13 -0.709,-0.052 -0.236,0.079 -0.418,0.237 -0.577,0.446 -0.132,0.21 -0.158,0.447 -0.132,0.708 L 716,179.614 c 0,0.185 0.079,0.394 0.21,0.577 0.131,0.159 0.315,0.263 0.523,0.316 2.809,0.788 5.459,1.365 7.952,1.706 4.486,0.602 8.5,0.523 11.993,-0.289 3.882,-0.918 7.164,-2.703 9.813,-5.406 2.546,-2.546 4.54,-5.905 5.931,-10.077 1.47,-4.382 2.31,-9.683 2.493,-15.85 0.08,-2.546 0.026,-11.312 -0.13,-14.173 0,-0.289 -0.107,-0.498 -0.315,-0.682 -0.21,-0.184 -0.447,-0.288 -0.735,-0.315 l -19.97,6.09 c -0.21,-0.026 -0.394,0.051 -0.58,0.184 -0.181,0.105 -0.311,0.262 -0.391,0.472 m 2.65,16.009 c 0.577,-2.415 0.709,-5.407 0.394,-8.949 -0.158,-1.759 -0.42,-3.622 -0.787,-5.616 l 17.688,-6.091 c 0.078,2.415 0.104,10.761 0.054,12.94 -0.186,5.85 -0.945,10.865 -2.312,15.036 -1.283,3.936 -3.121,7.112 -5.483,9.552 -2.493,2.467 -5.564,4.095 -9.264,4.881 -2.913,0.603 -6.168,0.708 -9.789,0.315 -2.491,-0.289 -5.143,-0.813 -7.977,-1.575 l -1.575,-14.512 c 5.196,1.864 9.368,2.336 12.491,1.47 1.603,-0.445 2.939,-1.285 4.017,-2.493 1.18,-1.232 2.018,-2.886 2.543,-4.958"
         id="path1431" />
      <path
         inkscape:connector-curvature="0"
         style="fill:#fedb00"
         d="m 735.838,149.227 c 0.315,3.542 0.184,6.534 -0.394,8.949 l 15.036,7.32 c 1.366,-4.171 2.126,-9.186 2.312,-15.036 l -16.954,-1.233 z"
         id="path1433" />
      <path
         inkscape:connector-curvature="0"
         style="fill:#0076bf"
         d="m 735.444,158.176 c -0.525,2.072 -1.363,3.726 -2.544,4.958 -1.077,1.208 -2.414,2.048 -4.017,2.493 l 6.85,14.302 c 3.699,-0.786 6.771,-2.414 9.264,-4.881 2.362,-2.44 4.2,-5.616 5.483,-9.552 l -15.036,-7.32 z"
         id="path1435" />
      <path
         inkscape:connector-curvature="0"
         style="fill:#e83827"
         d="m 735.051,143.611 c 0.367,1.994 0.629,3.857 0.787,5.616 l 16.954,1.233 c 0.05,-2.179 0.024,-10.525 -0.054,-12.94 l -17.687,6.091 z"
         id="path1437" />
      <path
         inkscape:connector-curvature="0"
         style="fill:#ffffff"
         d="m 728.884,165.627 c -3.123,0.866 -7.295,0.394 -12.491,-1.47 l 1.575,14.512 c 2.834,0.762 5.485,1.286 7.977,1.575 3.621,0.393 6.876,0.288 9.789,-0.315 l -6.85,-14.302 z"
         id="path1439" />
      <path
         inkscape:connector-curvature="0"
         style="fill:#003c90"
         d="m 719.486,211.976 c 3.146,-15.296 2.334,-32.032 -2.385,-50.204 l 0.171,-5.211 -49.369,-2.811 -0.879,4.737 c -7.266,16.886 -10.58,32.93 -9.943,48.182 6.114,2.136 13.2,3.771 21.257,4.903 13.188,1.853 26.913,1.988 41.148,0.404"
         id="path1441" />
      <path
         inkscape:connector-curvature="0"
         style="fill:none;stroke:#003c90;stroke-width:4.1880002;stroke-linecap:round;stroke-linejoin:round;stroke-miterlimit:10"
         d="m 719.486,211.976 c -14.235,1.584 -27.96,1.449 -41.148,-0.404 -8.057,-1.132 -15.143,-2.767 -21.257,-4.903 -0.637,-15.252 2.678,-31.296 9.943,-48.182 l 0.879,-4.737 49.369,2.811 -0.171,5.211 c 4.719,18.172 5.531,34.908 2.385,50.204 z"
         id="path1443" />
      <path
         inkscape:connector-curvature="0"
         style="fill:#fedb00"
         d="m 719.486,211.976 c 0.646,-3.153 1.111,-6.372 1.423,-9.655 -14.82,0.96 -28.536,1.035 -41.169,0.198 -8.605,-0.572 -16.171,-1.509 -22.671,-2.807 -0.072,2.619 -0.066,4.93 0.012,6.957 6.114,2.136 13.2,3.771 21.257,4.903 13.188,1.853 26.913,1.988 41.148,0.404"
         id="path1445" />
      <path
         inkscape:connector-curvature="0"
         style="fill:#fedb00"
         d="m 719.171,170.993 c -0.578,-3.118 -1.253,-6.059 -1.969,-8.794 -11.105,0.413 -21.532,0.301 -31.249,-0.358 -7.124,-0.482 -13.584,-1.254 -19.389,-2.262 -1.245,2.974 -2.384,5.93 -3.383,8.844 6.164,1.141 13.154,1.955 20.939,2.462 10.862,0.697 22.546,0.726 35.051,0.108"
         id="path1447" />
      <path
         inkscape:connector-curvature="0"
         style="fill:#e83827"
         d="m 717.202,162.199 -0.101,-0.427 0.171,-5.211 -49.369,-2.811 -0.879,4.737 -0.46,1.092 c 5.805,1.008 12.265,1.78 19.389,2.262 9.717,0.659 20.144,0.771 31.249,0.358"
         id="path1449" />
      <path
         inkscape:connector-curvature="0"
         style="fill:#ffffff"
         d="m 721.36,192.222 c -0.031,-3.678 -0.229,-7.238 -0.627,-10.657 -14.063,0.81 -27.077,0.757 -39.068,-0.108 -8.179,-0.591 -15.372,-1.525 -21.557,-2.774 -0.896,3.63 -1.612,7.304 -2.144,11.016 6.579,1.279 14.173,2.219 22.729,2.761 12.501,0.8 26.057,0.712 40.667,-0.238"
         id="path1451" />
      <path
         inkscape:connector-curvature="0"
         style="fill:#0076bf"
         d="m 720.733,181.565 c -0.354,-3.599 -0.875,-7.131 -1.562,-10.572 -12.505,0.618 -24.188,0.589 -35.05,-0.108 -7.785,-0.507 -14.775,-1.321 -20.939,-2.462 -1.141,3.297 -2.18,6.707 -3.073,10.26 6.185,1.249 13.378,2.183 21.557,2.774 11.99,0.865 25.004,0.918 39.067,0.108"
         id="path1453" />
      <path
         inkscape:connector-curvature="0"
         style="fill:#e83827"
         d="m 720.909,202.321 c 0.306,-3.179 0.464,-6.554 0.451,-10.099 -14.61,0.95 -28.166,1.038 -40.667,0.238 -8.556,-0.542 -16.149,-1.482 -22.729,-2.761 -0.468,3.22 -0.756,6.558 -0.896,10.013 6.5,1.298 14.065,2.235 22.671,2.807 12.634,0.837 26.35,0.762 41.17,-0.198"
         id="path1455" />
      <path
         inkscape:connector-curvature="0"
         style="fill:#e83827"
         d="m 719.763,170.313 c 0.262,-1.636 -0.114,-3.218 -1.069,-4.793 -0.676,-1.105 -4.194,-0.83 -10.503,0.805 -3.389,0.942 -5.839,1.618 -7.341,2.025 -2.605,0.689 -4.373,1.077 -5.323,1.133 -2.25,0.164 -4.896,0.035 -7.893,-0.332 -3.151,-0.38 -5.711,-0.95 -7.651,-1.681 -0.407,-0.162 -3.375,-1.555 -8.874,-4.224 -3.853,-1.853 -6.179,-2.694 -6.953,-2.545 l -0.028,0.024 c -0.439,0.255 -0.831,1.197 -1.169,2.827 -0.3,1.475 -0.443,2.621 -0.405,3.467 0.027,0.659 0.385,1.476 1.039,2.501 0.959,1.521 2.35,2.895 4.224,4.172 5.563,3.805 14.1,5.977 25.631,6.517 2.254,0.098 6.324,-0.503 12.243,-1.851 6.186,-1.406 10.051,-2.707 11.562,-3.876 1.429,-1.125 2.248,-2.506 2.51,-4.169"
         id="path1457" />
      <path
         inkscape:connector-curvature="0"
         style="fill:none;stroke:#e83927;stroke-width:4.09000015;stroke-linecap:round;stroke-linejoin:round;stroke-miterlimit:10"
         d="m 719.763,170.313 c -0.262,1.663 -1.081,3.044 -2.512,4.169 -1.511,1.169 -5.376,2.47 -11.562,3.876 -5.919,1.348 -9.989,1.949 -12.243,1.851 -11.531,-0.54 -20.067,-2.712 -25.631,-6.517 -1.874,-1.277 -3.265,-2.651 -4.224,-4.172 -0.654,-1.025 -1.012,-1.842 -1.039,-2.501 -0.038,-0.846 0.105,-1.992 0.405,-3.467 0.342,-1.657 0.729,-2.598 1.197,-2.851 0.774,-0.149 3.101,0.692 6.953,2.545 5.499,2.669 8.467,4.062 8.874,4.224 1.94,0.731 4.5,1.301 7.651,1.681 2.997,0.367 5.643,0.496 7.893,0.332 0.95,-0.056 2.718,-0.444 5.323,-1.133 1.502,-0.407 3.952,-1.083 7.341,-2.025 6.309,-1.635 9.827,-1.91 10.503,-0.805 0.956,1.575 1.332,3.157 1.071,4.793 z"
         id="path1459" />
      <path
         inkscape:connector-curvature="0"
         style="fill:#f9d300"
         d="m 719.771,170.209 c 0.26,-1.637 -0.112,-3.219 -1.069,-4.791 -0.675,-1.107 -4.194,-0.832 -10.503,0.803 -3.388,0.942 -5.838,1.618 -7.341,2.025 -2.605,0.689 -4.37,1.076 -5.323,1.133 -2.25,0.164 -4.896,0.035 -7.892,-0.333 -3.152,-0.379 -5.71,-0.949 -7.652,-1.68 -0.409,-0.164 -3.375,-1.555 -8.872,-4.224 -3.853,-1.854 -6.18,-2.695 -6.953,-2.546 l -0.028,0.024 c -0.443,0.255 -0.833,1.196 -1.171,2.827 -0.3,1.476 -0.443,2.623 -0.405,3.468 0.029,0.659 0.384,1.477 1.041,2.5 0.957,1.522 2.35,2.895 4.22,4.173 5.565,3.805 14.102,5.974 25.633,6.515 2.254,0.099 6.324,-0.501 12.243,-1.85 6.187,-1.406 10.051,-2.707 11.562,-3.877 1.428,-1.123 2.248,-2.505 2.51,-4.167"
         id="path1461" />
      <path
         inkscape:connector-curvature="0"
         style="fill:#e83827"
         d="m 667.783,162.406 0.422,-0.019 c -0.193,0.116 -0.403,0.441 -0.604,0.978 -0.102,0.281 -0.26,0.638 -0.43,1.124 -0.386,0.891 -0.728,1.889 -1.026,2.997 -0.225,0.876 -0.332,1.552 -0.318,2.027 -0.01,0.813 0.233,1.412 0.724,1.845 0.671,-0.816 1.176,-1.881 1.467,-3.252 0.115,-0.463 0.289,-1.003 0.523,-1.641 0.292,-0.715 0.52,-1.248 0.653,-1.633 0.474,-1.331 0.571,-2.217 0.313,-2.632 -0.208,-0.358 -0.514,-0.487 -0.863,-0.384 -0.323,0.08 -0.599,0.269 -0.861,0.59"
         id="path1463" />
      <path
         inkscape:connector-curvature="0"
         style="fill:#e83827"
         d="m 678.651,167.024 c -0.208,-0.359 -0.489,-0.486 -0.865,-0.384 -0.323,0.08 -0.601,0.295 -0.839,0.618 l 0.399,-0.048 c -0.193,0.116 -0.405,0.442 -0.604,0.978 -0.101,0.281 -0.235,0.665 -0.403,1.126 -0.414,0.888 -0.754,1.887 -1.053,2.995 -0.229,0.902 -0.336,1.578 -0.32,2.052 -0.012,0.814 0.232,1.412 0.726,1.82 0.671,-0.816 1.148,-1.883 1.463,-3.225 0.119,-0.465 0.293,-1.03 0.525,-1.669 0.294,-0.712 0.521,-1.248 0.657,-1.631 0.498,-1.303 0.593,-2.19 0.314,-2.632"
         id="path1465" />
      <path
         inkscape:connector-curvature="0"
         style="fill:#e83827"
         d="m 702.752,168.58 0.413,0.084 c -0.209,-0.358 -0.453,-0.588 -0.761,-0.716 -0.326,-0.158 -0.649,-0.079 -0.911,0.216 -0.316,0.396 -0.36,1.287 -0.103,2.675 0.101,0.377 0.216,0.938 0.392,1.688 0.132,0.669 0.22,1.227 0.26,1.73 0.099,1.402 0.404,2.531 0.941,3.414 0.55,-0.325 0.881,-0.877 0.999,-1.684 0.09,-0.466 0.09,-1.15 0.004,-2.051 -0.098,-1.086 -0.277,-2.151 -0.543,-3.145 -0.092,-0.481 -0.19,-0.883 -0.248,-1.178 -0.114,-0.534 -0.271,-0.889 -0.443,-1.033"
         id="path1467" />
      <path
         inkscape:connector-curvature="0"
         style="fill:#e83827"
         d="m 714.343,173.017 c 0.068,-0.521 0.068,-1.205 -0.021,-2.053 -0.114,-1.246 -0.294,-2.286 -0.544,-3.12 -0.092,-0.508 -0.168,-0.882 -0.224,-1.177 -0.118,-0.56 -0.27,-0.915 -0.468,-1.063 l 0.412,0.086 c -0.208,-0.358 -0.452,-0.588 -0.756,-0.716 -0.333,-0.159 -0.651,-0.078 -0.915,0.243 -0.351,0.42 -0.365,1.286 -0.077,2.65 0.073,0.401 0.213,0.964 0.393,1.715 0.129,0.667 0.217,1.226 0.259,1.704 0.077,1.373 0.381,2.527 0.938,3.441 0.527,-0.354 0.859,-0.906 1.003,-1.71"
         id="path1469" />
      <path
         inkscape:connector-curvature="0"
         style="fill:#e83827"
         d="m 691.786,169.53 0.381,0.189 c -0.126,-0.405 -0.313,-0.682 -0.563,-0.86 -0.325,-0.21 -0.641,-0.209 -0.947,0.004 -0.281,0.215 -0.469,0.594 -0.596,1.19 -0.047,0.286 -0.081,0.729 -0.107,1.384 -0.002,0.395 0.004,0.974 0.021,1.738 -0.002,0.684 -0.046,1.259 -0.136,1.752 -0.212,1.351 -0.175,2.538 0.142,3.535 0.619,-0.187 1.079,-0.677 1.372,-1.417 0.168,-0.434 0.326,-1.106 0.45,-2.016 0.142,-1.12 0.197,-2.168 0.144,-3.172 0.04,-0.496 0.048,-0.917 0.044,-1.206 0.015,-0.55 -0.061,-0.925 -0.205,-1.121"
         id="path1471" />
      <path
         inkscape:connector-curvature="0"
         style="fill:#e83434"
         d="m 728.902,104.223 h 0.027 c -4.626,-3.454 -9.948,-6.114 -15.917,-7.955 -6.127,-1.89 -12.557,-2.808 -19.286,-2.727 -6.704,0.082 -13.11,1.155 -19.189,3.194 -1.227,0.407 -2.424,0.867 -3.572,1.353 l -3.178,1.4 -4.688,2.572 c -1.61,0.961 -3.145,2.028 -4.594,3.173 v 0.025 c -3.945,3.06 -7.1,6.478 -9.488,10.304 -0.213,-0.048 -0.421,-0.099 -0.606,-0.122 -3.547,-0.77 -6.676,0.289 -9.34,3.126 -2.481,2.57 -3.828,6.044 -4.038,10.369 -0.186,4.193 0.751,8.006 2.81,11.439 2.192,3.64 4.995,5.782 8.381,6.421 0.553,0.124 1.128,0.196 1.68,0.215 0.106,0.182 0.216,0.391 0.32,0.6 2.598,4.551 6.26,8.568 10.939,12.048 0.819,0.618 1.665,1.211 2.536,1.776 l 2.321,1.413 6.721,3.271 c 1.5,0.611 3.053,1.168 4.657,1.672 v 0.027 c 6.125,1.891 12.553,2.782 19.259,2.7 6.731,-0.082 13.138,-1.128 19.213,-3.165 v -0.027 c 5.924,-1.985 11.18,-4.772 15.722,-8.31 4.594,-3.593 8.158,-7.723 10.644,-12.363 l 0.026,-0.026 c 0.128,-0.237 0.256,-0.501 0.384,-0.738 0.551,-0.034 1.099,-0.119 1.674,-0.256 3.342,-0.721 6.068,-2.929 8.198,-6.622 h -0.027 c 2,-3.481 2.844,-7.316 2.56,-11.504 v -0.027 c -0.342,-4.317 -1.771,-7.731 -4.29,-10.243 -2.733,-2.769 -5.862,-3.753 -9.388,-2.898 -0.209,0.029 -0.417,0.084 -0.599,0.164 -2.512,-3.846 -5.799,-7.264 -9.872,-10.279 m 10.994,12.205 c -0.025,-0.027 -0.027,-0.078 -0.052,-0.105 2.794,-0.636 5.264,0.146 7.467,2.346 2.175,2.2 3.416,5.198 3.697,8.967 0.28,3.767 -0.49,7.209 -2.286,10.348 -1.767,3.139 -4.079,5.027 -6.873,5.661 -0.078,0.029 -0.156,0.03 -0.234,0.058 1.705,-3.978 2.521,-8.073 2.472,-12.316 -0.065,-5.239 -1.461,-10.225 -4.191,-14.959 M 727.747,106.07 c 4.441,3.272 7.893,7.083 10.328,11.402 2.542,4.396 3.856,9.043 3.915,13.939 0.06,4.899 -1.142,9.576 -3.575,14.085 -2.332,4.35 -5.69,8.242 -10.049,11.648 -4.386,3.43 -9.434,6.112 -15.148,8.041 -5.948,1.983 -12.198,3.003 -18.719,3.082 -6.522,0.078 -12.792,-0.789 -18.761,-2.629 h 0.024 c -5.783,-1.789 -10.896,-4.347 -15.335,-7.673 l -0.027,0.001 c -0.212,-0.155 -0.424,-0.31 -0.609,-0.466 l -0.607,-0.462 -5.034,-4.811 c -1.594,-1.789 -2.951,-3.658 -4.104,-5.662 -0.294,-0.546 -0.59,-1.093 -0.857,-1.639 -1.962,-3.932 -2.955,-8.06 -3.007,-12.353 -0.057,-4.899 1.116,-9.576 3.524,-14.032 0.078,-0.158 0.18,-0.317 0.258,-0.449 2.332,-4.193 5.614,-7.926 9.817,-11.198 l 0.025,-0.001 c 0.571,-0.453 1.17,-0.905 1.767,-1.331 l 1.507,-1.041 5.618,-3.185 c 1.98,-0.94 4.066,-1.751 6.232,-2.484 h 0.024 c 5.923,-1.984 12.145,-3.029 18.667,-3.109 6.521,-0.077 12.767,0.816 18.787,2.653 5.758,1.791 10.871,4.35 15.339,7.674 m -79.809,11.366 c -0.024,0.027 -0.052,0.053 -0.076,0.105 -2.589,4.799 -3.836,9.818 -3.774,15.057 0.052,4.243 0.967,8.317 2.743,12.252 -0.079,-0.026 -0.13,-0.026 -0.213,-0.051 -2.836,-0.568 -5.188,-2.398 -7.03,-5.494 -1.848,-3.095 -2.701,-6.515 -2.51,-10.291 0.19,-3.775 1.331,-6.801 3.478,-9.053 2.119,-2.253 4.574,-3.094 7.382,-2.525"
         id="path1473" />
      <path
         inkscape:connector-curvature="0"
         style="fill:#f49c00"
         d="m 739.844,116.323 c 0.024,0.027 0.026,0.078 0.052,0.105 2.73,4.734 4.127,9.72 4.19,14.959 0.05,4.243 -0.767,8.338 -2.472,12.316 0.078,-0.028 0.156,-0.029 0.234,-0.058 2.794,-0.634 5.106,-2.522 6.873,-5.661 1.796,-3.139 2.566,-6.581 2.286,-10.348 -0.281,-3.769 -1.522,-6.767 -3.697,-8.967 -2.203,-2.2 -4.672,-2.982 -7.466,-2.346"
         id="path1475" />
      <path
         inkscape:connector-curvature="0"
         style="fill:#f49c00"
         d="m 727.747,106.07 c -4.468,-3.324 -9.581,-5.883 -15.338,-7.674 -6.021,-1.837 -12.267,-2.73 -18.787,-2.653 -6.522,0.08 -12.744,1.125 -18.667,3.109 h -0.024 c -2.166,0.733 -4.252,1.544 -6.232,2.484 l -5.618,3.185 -1.507,1.041 c -0.597,0.426 -1.195,0.878 -1.767,1.331 l -0.025,0.001 c -4.203,3.272 -7.485,7.005 -9.817,11.198 -0.078,0.132 -0.18,0.291 -0.258,0.449 -2.408,4.456 -3.581,9.133 -3.524,14.032 0.052,4.293 1.045,8.421 3.007,12.353 0.268,0.546 0.563,1.093 0.857,1.639 1.152,2.004 2.51,3.873 4.104,5.662 l 5.034,4.811 0.607,0.462 c 0.186,0.156 0.397,0.311 0.609,0.466 l 0.027,-0.001 c 4.438,3.326 9.552,5.884 15.335,7.673 h -0.024 c 5.969,1.84 12.238,2.707 18.761,2.629 6.521,-0.079 12.771,-1.099 18.719,-3.082 5.715,-1.929 10.763,-4.611 15.148,-8.041 4.358,-3.406 7.717,-7.298 10.049,-11.648 2.434,-4.509 3.635,-9.186 3.575,-14.085 -0.059,-4.896 -1.373,-9.543 -3.915,-13.939 -2.436,-4.319 -5.888,-8.129 -10.329,-11.402"
         id="path1477" />
      <path
         inkscape:connector-curvature="0"
         style="fill:#f49c00"
         d="m 647.861,117.541 c 0.024,-0.052 0.052,-0.078 0.076,-0.105 -2.808,-0.569 -5.263,0.272 -7.383,2.525 -2.146,2.252 -3.287,5.278 -3.478,9.053 -0.191,3.776 0.662,7.196 2.51,10.291 1.843,3.096 4.194,4.926 7.03,5.494 0.083,0.025 0.134,0.025 0.213,0.051 -1.776,-3.935 -2.691,-8.009 -2.743,-12.252 -0.061,-5.239 1.186,-10.258 3.775,-15.057"
         id="path1479" />
      <path
         inkscape:connector-curvature="0"
         style="fill:#ffffff"
         d="m 691.04,116.155 c -1.265,-2.736 -3.593,-4.514 -6.979,-5.286 -3.391,-0.797 -6.842,-0.389 -10.36,1.252 -3.515,1.614 -6.053,3.976 -7.667,7.061 -1.585,3.084 -1.761,5.993 -0.496,8.728 1.264,2.736 3.591,4.516 6.979,5.286 3.389,0.797 6.815,0.389 10.334,-1.252 3.515,-1.639 6.079,-3.977 7.693,-7.06 1.585,-3.085 1.76,-5.994 0.496,-8.729"
         id="path1481" />
      <path
         inkscape:connector-curvature="0"
         style="fill:#ffffff"
         d="m 720.643,118.521 c -1.688,-3.044 -4.31,-5.345 -7.864,-6.873 -3.555,-1.554 -6.989,-1.88 -10.358,-1.002 -3.369,0.853 -5.652,2.689 -6.85,5.454 -1.198,2.765 -0.953,5.669 0.709,8.714 1.685,3.044 4.307,5.317 7.863,6.873 3.555,1.554 7.016,1.879 10.385,1 3.343,-0.853 5.624,-2.687 6.824,-5.453 1.196,-2.763 0.976,-5.67 -0.709,-8.713"
         id="path1483" />
      <path
         inkscape:connector-curvature="0"
         style="fill:#e83434"
         d="m 724.36,145.925 1.452,-3.419 c -14.36,9.221 -29.045,12.337 -44.027,9.376 -4.67,-0.924 -9.103,-2.407 -13.28,-4.465 -2.094,-0.995 -3.703,-1.914 -4.854,-2.757 3.185,8.871 9.388,14.945 18.635,18.207 2.896,1.012 5.915,1.683 9.063,2.013 l 3.853,0.211 c 9.884,-0.35 17.944,-4.216 24.196,-11.597 1.949,-2.309 3.593,-4.832 4.962,-7.569"
         id="path1485" />
      <path
         inkscape:connector-curvature="0"
         style="fill:#f092b1"
         d="m 694.348,159.429 c 2.867,-0.048 4.925,-1.011 6.187,-2.877 0.655,-0.974 1.227,-2.45 1.688,-4.427 -5.229,0.919 -10.49,1.091 -15.789,0.489 0.495,1.817 1.061,3.184 1.712,4.088 1.331,1.86 3.398,2.774 6.202,2.727"
         id="path1487" />
      <path
         inkscape:connector-curvature="0"
         d="m 714.297,113.314 c -1.007,-1.046 -2.264,-1.613 -3.794,-1.705 -1.529,-0.091 -2.865,0.305 -4.037,1.184 -1.171,0.905 -1.81,2.03 -1.914,3.4 -0.105,1.371 0.332,2.567 1.312,3.612 1.007,1.057 2.264,1.638 3.792,1.729 1.53,0.091 2.869,-0.304 4.041,-1.208 1.183,-0.906 1.834,-2.03 1.941,-3.401 0.104,-1.371 -0.333,-2.564 -1.341,-3.611"
         id="path1489" />
      <path
         inkscape:connector-curvature="0"
         d="m 683.643,113.905 c -1.028,-1.011 -2.312,-1.558 -3.878,-1.645 -1.566,-0.087 -2.936,0.295 -4.134,1.147 -1.199,0.874 -1.851,1.962 -1.959,3.286 -0.111,1.325 0.336,2.478 1.337,3.488 1.031,1.022 2.316,1.581 3.881,1.668 1.566,0.087 2.934,-0.296 4.132,-1.169 1.215,-0.876 1.881,-1.963 1.99,-3.288 0.11,-1.324 -0.336,-2.479 -1.369,-3.487"
         id="path1491" />
      <path
         inkscape:connector-curvature="0"
         style="fill:#191515"
         d="m 691.311,114.605 c -0.034,-0.549 -0.434,-0.99 -1.146,-1.269 l -1.049,-0.301 -26.242,0.475 c -0.447,-0.022 -0.915,0.037 -1.36,0.121 -0.916,0.221 -1.331,0.591 -1.297,1.142 0.396,4.579 1.225,8.132 2.487,10.604 2.522,5.026 6.848,7.488 12.95,7.388 6.521,-0.106 11.048,-2.675 13.632,-7.736 1.664,-3.294 2.354,-6.76 2.025,-10.424"
         id="path1493" />
      <path
         inkscape:connector-curvature="0"
         style="fill:none;stroke:#1c1616;stroke-width:3.40499997;stroke-miterlimit:10"
         d="m 690.165,113.336 -1.049,-0.301 -26.242,0.475 c -0.447,-0.022 -0.915,0.037 -1.36,0.121 -0.916,0.221 -1.331,0.591 -1.297,1.142 0.396,4.579 1.225,8.132 2.487,10.604 2.522,5.026 6.848,7.488 12.95,7.388 6.521,-0.106 11.048,-2.675 13.632,-7.736 1.664,-3.294 2.354,-6.76 2.024,-10.424 -0.034,-0.549 -0.433,-0.99 -1.145,-1.269 z"
         id="path1495" />
      <path
         inkscape:connector-curvature="0"
         style="fill:#191515"
         d="m 726.64,114.101 c -0.035,-0.551 -0.432,-0.992 -1.143,-1.271 l -1.051,-0.302 -26.215,0.475 c -0.445,-0.02 -0.917,0.037 -1.362,0.122 -0.913,0.219 -1.329,0.591 -1.295,1.141 0.396,4.579 1.225,8.131 2.486,10.605 2.521,5.024 6.848,7.487 12.95,7.387 6.521,-0.078 11.046,-2.648 13.607,-7.735 1.663,-3.295 2.357,-6.761 2.023,-10.422"
         id="path1497" />
      <path
         inkscape:connector-curvature="0"
         style="fill:none;stroke:#1c1616;stroke-width:3.40499997;stroke-miterlimit:10"
         d="m 725.497,112.83 -1.051,-0.302 -26.215,0.475 c -0.445,-0.02 -0.917,0.037 -1.362,0.122 -0.913,0.219 -1.329,0.591 -1.295,1.141 0.396,4.579 1.225,8.131 2.486,10.605 2.521,5.024 6.848,7.487 12.95,7.387 6.521,-0.078 11.046,-2.648 13.607,-7.735 1.662,-3.295 2.355,-6.761 2.021,-10.422 -0.034,-0.551 -0.43,-0.992 -1.141,-1.271 z"
         id="path1499" />
      <path
         inkscape:connector-curvature="0"
         style="fill:none;stroke:#1c1616;stroke-width:4.19099998;stroke-linecap:round;stroke-linejoin:round;stroke-miterlimit:10"
         d="m 695.242,117.204 -2.487,0.029 m -44.676,-0.605 12.553,6.28 m 79.614,-5.558 -12.887,4.398"
         id="path1501" />
      <path
         inkscape:connector-curvature="0"
         style="fill:#515151"
         d="m 723.359,117.885 c 0.136,-1.625 0.048,-2.463 -0.24,-2.485 -1.704,-0.059 -3.434,-0.037 -5.213,0.062 l -2.173,0.132 0.508,0.595 c 0.37,0.547 0.668,1.25 0.915,2.059 0.762,2.558 0.748,5.833 -0.065,9.824 2.496,-1.392 4.306,-3.483 5.398,-6.247 0.407,-0.974 0.706,-2.288 0.87,-3.94"
         id="path1503" />
      <path
         inkscape:connector-curvature="0"
         style="fill:#e83827"
         d="m 693.666,123.875 c -3.325,0.041 -6.141,1.254 -8.442,3.639 -2.331,2.359 -3.473,5.203 -3.433,8.529 0.038,3.327 1.253,6.141 3.637,8.442 2.361,2.33 5.203,3.474 8.53,3.433 3.324,-0.039 6.14,-1.251 8.444,-3.637 2.327,-2.361 3.471,-5.202 3.431,-8.529 -0.04,-3.326 -1.253,-6.141 -3.639,-8.443 -2.358,-2.33 -5.201,-3.473 -8.528,-3.434"
         id="path1505" />
      <path
         inkscape:connector-curvature="0"
         d="m 712.327,74.697 c -1.601,-0.268 -3.433,-0.168 -5.549,0.302 -4.232,0.916 -7.35,3.128 -9.35,6.663 0.018,-2.804 -1.135,-5.068 -3.435,-6.744 -0.714,-0.542 -1.477,-0.951 -2.294,-1.255 -0.788,-0.279 -1.104,-0.354 -0.918,-0.225 1.394,2.734 0.697,5.808 -2.115,9.221 -1.142,-1.219 -1.535,-3.466 -1.157,-6.77 0.359,-2.966 0.781,-4.595 1.278,-4.942 -1.305,0.541 -2.631,1.421 -3.952,2.615 -2.668,2.415 -3.996,5.209 -3.933,8.377 -1.465,-1.946 -3.654,-3.255 -6.569,-3.875 -0.078,-0.024 0.772,0.933 2.551,2.877 1.938,2.255 3.113,4.1 3.523,5.484 -1.251,-1.687 -2.764,-3.109 -4.506,-4.293 -1.717,-1.184 -3.585,-1.817 -5.602,-1.897 -1.652,-0.058 -3.612,0.226 -5.935,0.909 -0.157,0.055 0.97,0.172 3.355,0.328 1.761,0.396 3.055,1.298 3.885,2.729 0.293,0.493 0.809,1.902 1.517,4.2 -0.584,-0.65 -1.14,-1.167 -1.643,-1.553 -2.141,-1.677 -4.744,-2.406 -7.754,-2.159 -0.052,0.001 0.899,0.643 2.878,1.903 2.061,1.468 3.255,2.581 3.553,3.389 -1.106,-0.327 -2.181,-0.523 -3.203,-0.59 -0.603,-0.044 -1.597,-0.033 -2.987,0.009 -2.959,0.116 -5.363,0.458 -7.27,1.032 -2.634,0.792 -4.795,2.102 -6.476,3.929 -0.101,0.106 0.474,-0.031 1.752,-0.441 0.703,-0.217 1.747,-0.545 3.13,-0.981 2.591,-0.24 4.082,-0.362 4.449,-0.368 1.677,-0.045 3.119,0.12 4.303,0.525 1.026,0.328 1.896,0.685 2.659,1.042 0.684,0.332 0.947,0.486 0.793,0.513 -1.768,-0.711 -4.929,-0.228 -9.493,1.478 -4.17,1.832 -6.2,2.747 -6.124,2.72 1.49,-0.359 3.165,-0.537 5.075,-0.533 1.311,-0.016 3.016,0.069 5.138,0.225 -1.759,1.725 -4.473,2.649 -8.165,2.799 -3.303,-0.197 -4.928,-0.282 -4.901,-0.256 2.174,2.096 4.024,3.566 5.529,4.412 2.082,1.154 4.447,1.701 7.039,1.644 3.144,-0.065 6.484,-1.126 9.995,-3.187 l -0.985,0.903 c -2.565,2.363 -5.425,4.231 -8.522,5.657 -0.132,0.08 -0.157,0.159 -0.104,0.263 0.056,0.13 0.134,0.156 0.266,0.127 2.194,-0.315 4.438,-1.127 6.728,-2.49 1.171,-0.721 3.092,-2.107 5.737,-4.156 1.532,-1.197 2.806,-2.077 3.767,-2.692 1.456,-0.882 2.89,-1.527 4.274,-1.937 1.644,-0.465 3.45,-0.382 5.45,0.197 1.629,0.477 3.262,1.269 4.874,2.377 0.29,0.205 0.577,0.174 0.837,-0.09 0.104,0.024 0.21,0.024 0.339,-0.03 3.286,-1.35 5.294,-2.134 6.023,-2.326 2.324,-0.632 4.42,-0.655 6.339,-0.051 1.261,0.403 2.688,1.199 4.271,2.358 0.873,0.646 2.168,1.625 3.86,2.913 2.825,1.931 6.033,2.835 9.619,2.661 0.719,0.778 2.63,0.754 5.711,-0.069 1.071,-0.276 1.879,-0.547 2.478,-0.842 0.6,-0.27 0.52,-0.321 -0.213,-0.181 -0.966,0.195 -1.935,0.259 -2.93,0.245 1.227,-0.355 2.974,-1.032 5.293,-2.081 2.76,-1.264 4.374,-2.252 4.861,-2.967 -1.152,0.041 -2.463,-0.021 -3.93,-0.134 -2.908,-0.202 -5.093,-0.673 -6.513,-1.362 -0.925,-0.461 -1.95,-0.816 -3.129,-1.036 0.913,-0.17 1.803,-0.363 2.638,-0.583 1.173,-0.303 2.605,-1.106 4.292,-2.461 0.855,-0.666 1.578,-1.33 2.176,-1.966 0.546,-0.452 0.984,-0.98 1.343,-1.587 0.026,-0.027 -1.622,0.071 -4.947,0.347 -3.74,0.333 -6.282,0.338 -7.621,0.041 l -1.314,-0.273 0.863,-0.194 c 1.542,-0.385 3.177,-1.715 4.929,-3.962 1.523,-1.931 2.294,-3.198 2.311,-3.853 -1.511,0.569 -3.261,1.112 -5.27,1.635 -4.076,1.045 -7.321,1.216 -9.766,0.486 0.914,-0.064 2.245,-0.551 3.987,-1.489 1.852,-0.992 3.152,-1.558 3.964,-1.699 -1.938,-0.002 -3.484,0.016 -4.663,0.056 -2.068,0.103 -4.5,0.58 -7.238,1.477 2.261,-1.625 5.31,-2.868 9.202,-3.7 -5.459,-0.851 -9.363,-0.935 -11.737,-0.251 -2.192,0.655 -3.937,1.566 -5.258,2.762 0.168,-1.391 0.726,-2.707 1.629,-3.95 0.592,-0.845 1.86,-1.961 3.811,-3.372 1.818,-1.305 2.884,-1.974 3.197,-1.977"
         id="path1507" />
      <path
         inkscape:connector-curvature="0"
         style="fill:#e83434"
         d="m 744.222,115.21 0.185,0.041 c -0.093,0.179 -0.185,0.359 -0.218,0.539 -0.183,0.44 -0.34,0.88 -0.494,1.34 0,0.021 0,0.061 -0.029,0.101 v 0.061 l -0.586,2.12 c -1.361,-0.02 -2.905,0.22 -4.664,0.72 -1.641,0.481 -2.905,0.661 -3.862,0.54 -1.022,-0.179 -1.763,-0.579 -2.194,-1.159 -0.463,-0.621 -0.557,-1.282 -0.249,-1.982 0.403,-0.861 1.484,-1.68 3.307,-2.501 2.008,-0.9 3.925,-1.2 5.747,-0.9 1.143,0.18 2.1,0.4 2.843,0.66 0.061,0.04 0.124,0.079 0.154,0.101 0.094,0.019 0.153,0.059 0.246,0.099 l -0.186,0.22 z"
         id="path1509" />
      <path
         inkscape:connector-curvature="0"
         style="fill:#e83434"
         d="m 755.806,125.575 -2.472,-0.14 c -2.068,4.382 -3.646,9.304 -4.662,14.767 l -9.023,-0.98 2.193,-7.504 v -0.02 l 1.051,-3.381 c 0.032,-0.061 0.032,-0.101 0.032,-0.16 l 0.987,-3.263 -2.441,-0.139 -0.741,2.521 c -0.092,-0.021 -0.185,-0.04 -0.278,-0.04 -1.205,-0.26 -2.07,-1.001 -2.655,-2.221 -0.094,-0.181 -0.153,-0.341 -0.248,-0.481 l -2.78,-0.16 c 0.247,0.3 0.463,0.661 0.679,1.081 0.864,1.901 2.317,3.002 4.357,3.302 0.154,0.019 0.278,0.04 0.432,0.059 l -0.647,2.221 c -0.649,0.22 -1.207,0.401 -1.73,0.521 h 0.03 l -0.03,0.02 c -0.835,0.16 -1.762,0.14 -2.781,-0.04 -2.563,-0.42 -4.386,-1.16 -5.469,-2.261 -1.051,-1.021 -1.299,-2.202 -0.771,-3.502 0.277,-0.66 0.71,-1.22 1.266,-1.681 l -2.811,-0.159 c -0.341,0.419 -0.648,0.899 -0.865,1.42 -0.711,1.761 -0.341,3.362 1.081,4.782 1.391,1.421 3.707,2.422 6.92,2.961 1.484,0.26 2.905,0.26 4.232,-0.019 0.124,-0.021 0.216,-0.04 0.31,-0.06 l -2.038,6.703 c -0.032,0.14 -0.032,0.281 0.062,0.42 0.061,0.14 0.185,0.241 0.37,0.34 0.186,0.1 0.372,0.18 0.585,0.201 l 11.588,1.26 c 0.216,0.02 0.432,0 0.647,-0.081 0.218,-0.04 0.372,-0.119 0.525,-0.219 0.156,-0.141 0.248,-0.281 0.278,-0.42 1.018,-5.863 2.624,-11.065 4.817,-15.648"
         id="path1511" />
      <path
         inkscape:connector-curvature="0"
         style="fill:#e83434"
         d="m 762.449,110.707 c -0.31,-0.219 -0.587,-0.419 -0.805,-0.6 -0.214,-0.119 -0.462,-0.239 -0.739,-0.379 -0.34,-0.121 -0.773,-0.24 -1.237,-0.381 -0.338,-0.1 -0.587,-0.179 -0.771,-0.2 -0.342,-0.08 -0.586,-0.12 -0.805,-0.14 -1.268,-0.1 -2.44,-0.685 -3.52,-0.066 -0.31,-0.061 -0.621,-0.12 -0.959,-0.14 -1.854,-0.199 -3.459,0.062 -4.789,0.801 -0.649,0.34 -1.268,0.8 -1.885,1.4 -0.122,0.1 -0.246,0.221 -0.371,0.341 l -1.39,2.206 0.061,-0.1 0.032,-0.019 h -0.093 v -0.02 c -0.123,-0.02 -0.247,-0.061 -0.368,-0.121 -0.774,-0.26 -1.793,-0.5 -3.03,-0.701 -0.865,-0.159 -1.759,-0.22 -2.657,-0.199 -1.669,0.101 -3.367,0.54 -5.13,1.34 -2.409,1.061 -3.828,2.201 -4.292,3.422 -0.464,1.1 -0.309,2.121 0.43,3.102 0.464,0.54 1.053,1 1.824,1.36 -1.049,0.041 -2.068,0.36 -3.058,0.941 -0.65,0.4 -1.175,0.861 -1.606,1.381 l 2.811,0.159 c 0.153,-0.12 0.341,-0.24 0.526,-0.34 0.708,-0.46 1.481,-0.62 2.256,-0.48 0.71,0.16 1.357,0.52 1.884,1.1 l 2.78,0.16 c -0.587,-1 -1.297,-1.74 -2.162,-2.2 1.142,-0.061 2.502,-0.32 4.078,-0.781 h -0.033 c 1.207,-0.34 2.258,-0.52 3.152,-0.54 l -1.112,3.742 2.441,0.139 1.327,-4.442 v -0.04 l 0.837,-2.82 c 0.028,-0.021 0.028,-0.061 0.061,-0.081 v -0.04 c 0.153,-0.44 0.308,-0.86 0.465,-1.281 0.092,-0.26 0.185,-0.52 0.31,-0.78 -0.033,-0.02 -0.033,-0.02 -0.033,-0.04 l 0.679,-0.84 c 0.154,-0.22 0.311,-0.421 0.466,-0.6 0.338,-0.461 0.678,-0.861 1.049,-1.221 0.402,-0.44 0.832,-0.781 1.266,-1.021 0.835,-0.419 1.792,-0.56 2.875,-0.44 1.019,0.102 1.73,0.42 2.192,0.981 0.033,0.019 0.063,0.04 0.094,0.06 0.153,0.299 0.029,0.98 -0.372,2.041 -0.124,0.26 -0.214,0.5 -0.306,0.759 -0.59,1.242 -1.456,2.863 -2.596,4.864 l 0.184,-0.241 c -0.124,0.28 -0.279,0.561 -0.43,0.861 -0.281,0.64 -0.527,1.221 -0.807,1.74 1.236,-1.74 2.411,-3.321 3.553,-4.702 0.032,-0.06 0.096,-0.12 0.155,-0.18 v -0.019 l 0.34,-0.381 c 0.061,-0.04 0.124,-0.06 0.152,-0.08 v -0.02 c 0.466,-0.541 0.897,-1.061 1.271,-1.521 0.092,-0.139 0.182,-0.261 0.244,-0.36 0.218,-0.28 0.403,-0.56 0.558,-0.82 0.029,-0.021 0.029,-0.06 0.029,-0.081 0.034,-0.019 0.034,-0.019 0.062,-0.019 0.589,-1.141 0.649,-2.001 0.188,-2.541 -0.155,-0.181 -0.312,-0.341 -0.495,-0.481 -0.094,-0.08 -0.154,-0.16 -0.248,-0.221 -0.032,-0.018 -0.094,-0.058 -0.156,-0.118 h 0.124 c 0.62,-0.142 1.267,-0.101 1.979,0.118 0.094,0.022 0.154,0.061 0.218,0.081 0.062,0.021 0.123,0.041 0.153,0.061 0.37,0.16 0.679,0.322 0.894,0.48 0.032,0.02 0.032,0.039 0.032,0.06 0.032,0 0.032,0 0.032,0.02 0.031,0.019 0.031,0.019 0.031,0.039 0.03,0.06 0.061,0.081 0.094,0.1 0.152,0.141 0.248,0.281 0.248,0.401 0.09,0.119 0.15,0.239 0.184,0.379 0.061,0.241 0.028,0.501 -0.063,0.781 -0.062,0.16 -0.184,0.401 -0.34,0.74 -0.218,0.62 -0.493,1.141 -0.803,1.561 -0.061,0.099 -0.124,0.2 -0.185,0.301 -0.465,0.679 -1.081,1.419 -1.792,2.2 -0.122,0.14 -0.246,0.302 -0.37,0.441 -0.031,0.02 -0.031,0.04 -0.063,0.06 -0.152,0.18 -0.277,0.4 -0.403,0.62 -1.295,1.941 -2.438,4.001 -3.459,6.223 l 2.472,0.14 c 0.987,-2.021 2.07,-3.942 3.275,-5.723 v -0.02 c 0.063,-0.18 0.155,-0.34 0.277,-0.48 v -0.039 c 0.032,-0.022 0.032,-0.041 0.063,-0.041 0.218,-0.26 0.434,-0.52 0.649,-0.74 0.708,-0.8 1.297,-1.541 1.761,-2.221 1.173,-1.801 1.576,-3.283 1.203,-4.442 -0.03,-0.241 -0.061,-0.421 -0.154,-0.56 -0.064,-0.22 -0.218,-0.422 -0.434,-0.602"
         id="path1513" />
      <path
         inkscape:connector-curvature="0"
         style="fill:#f49c00"
         d="m 756.948,110.769 0.032,0.118 c 0.092,0.061 0.154,0.141 0.248,0.221 0.184,0.14 0.34,0.3 0.495,0.481 0.462,0.54 0.401,1.4 -0.188,2.541 -0.028,0 -0.028,0 -0.062,0.019 0,0.021 0,0.06 -0.029,0.081 -0.093,0.18 -0.185,0.36 -0.278,0.56 -0.031,-0.02 -0.031,0 -0.062,0.02 -0.124,0.201 -0.246,0.4 -0.401,0.62 -0.34,0.44 -0.742,0.901 -1.235,1.381 -0.03,0.041 -0.063,0.08 -0.096,0.12 v 0.02 c -0.028,0.02 -0.092,0.04 -0.152,0.08 l -0.34,0.381 v 0.019 c -0.06,0.06 -0.123,0.12 -0.155,0.18 -1.142,1.381 -2.316,2.962 -3.553,4.702 0.279,-0.519 0.525,-1.1 0.807,-1.74 0.15,-0.3 0.306,-0.581 0.43,-0.861 l -0.184,0.241 c 1.14,-2.001 2.006,-3.622 2.596,-4.864 0.092,-0.259 0.182,-0.499 0.306,-0.759 0.401,-1.061 0.525,-1.742 0.372,-2.041 -0.03,-0.02 -0.061,-0.041 -0.094,-0.06 -0.462,-0.561 -1.174,-1.746 -2.192,-1.847 -1.083,-0.12 -2.04,0.02 -2.875,0.44 -0.434,0.239 -0.863,0.581 -1.266,1.021 -0.371,0.36 -0.711,0.76 -1.049,1.221 -0.155,0.179 -0.312,0.379 -0.466,0.6 l -0.679,0.84 c 0,0.019 0,0.019 0.033,0.039 -0.125,0.261 -0.218,0.521 -0.31,0.781 -0.157,0.421 -0.312,1.707 -0.465,2.147 v 0.04 c -0.032,0.02 -0.032,0.06 -0.061,0.081 l -0.837,2.82 v 0.04 l -2.314,7.705 c 0,0.059 0,0.099 -0.032,0.16 l -1.051,3.381 v 0.02 l -2.193,7.504 9.023,0.98 c 1.572,-8.244 4.261,-15.247 8.121,-20.99 0.126,-0.22 0.251,-0.44 0.403,-0.62 0.032,-0.02 0.032,-0.04 0.063,-0.06 0.124,-0.139 0.248,-0.301 0.37,-0.441 0.711,-0.781 1.327,-1.521 1.792,-2.2 0.061,-0.101 0.124,-0.202 0.185,-0.301 0.31,-0.42 0.585,-0.941 0.803,-1.561 0.156,-0.339 0.278,-0.58 0.34,-0.74 0.092,-0.28 0.124,-0.54 0.063,-0.781 -0.033,-0.14 -0.094,-0.26 -0.184,-0.379 0,-0.12 -0.096,-0.26 -0.248,-0.401 -0.033,-0.019 -0.063,-0.04 -0.094,-0.1 0,-0.02 0,-0.02 -0.031,-0.039 0,-0.02 0,-0.02 -0.032,-0.02 0,-0.021 0,-0.041 -0.032,-0.06 -0.215,-0.159 -0.523,-0.321 -0.894,-0.48 -0.03,-0.02 -0.092,-0.04 -0.153,-0.061 -0.063,-0.02 -0.127,-0.059 -0.218,-0.081 -0.71,-0.219 -1.357,-0.26 -1.977,-0.118"
         id="path1515" />
      <path
         inkscape:connector-curvature="0"
         style="fill:#f49c00"
         d="m 735.416,115.03 c -1.822,0.821 -2.903,1.64 -3.307,2.501 -0.308,0.7 -0.214,1.361 0.249,1.982 0.432,0.58 1.172,0.98 2.194,1.159 0.957,0.121 2.222,-0.059 3.862,-0.54 1.759,-0.5 3.303,-0.74 4.664,-0.72 l 0.586,-2.12 v -0.061 c 0.029,-0.04 0.029,-0.08 0.029,-0.101 0.154,-0.46 0.312,-0.9 0.494,-1.34 0.033,-0.18 0.125,-0.36 0.218,-0.539 l -0.185,-0.041 0.185,-0.22 c -0.093,-0.04 -0.152,-0.08 -0.246,-0.099 -0.03,-0.022 -0.094,-0.061 -0.154,-0.101 -0.743,-0.26 -1.7,-0.48 -2.845,-0.66 -1.819,-0.3 -3.736,0 -5.744,0.9"
         id="path1517" />
      <path
         inkscape:connector-curvature="0"
         style="fill:#f49c00"
         d="m 740.235,128.816 c -0.153,-0.02 -0.277,-0.04 -0.432,-0.059 -2.04,-0.3 -3.493,-1.401 -4.357,-3.302 -0.586,-1.201 -1.453,-1.921 -2.562,-2.181 -0.774,-0.14 -1.548,0.02 -2.256,0.48 -0.835,0.481 -1.422,1.161 -1.792,2.021 -0.527,1.3 -0.279,2.481 0.771,3.502 1.083,1.101 2.905,1.841 5.469,2.261 1.02,0.18 1.946,0.2 2.781,0.04 v -0.02 c 0.523,-0.12 1.081,-0.301 1.73,-0.521 l 0.648,-2.221 z"
         id="path1519" />
      <polygon
         style="fill:#fedb00"
         points="737.15,133.429 737.177,133.402 737.15,133.402 "
         id="polygon1521" />
      <path
         inkscape:connector-curvature="0"
         style="fill:#003c90"
         d="m 732.794,136.104 c -0.079,0.184 -0.104,0.393 -0.079,0.603 0.447,2.284 0.787,10.446 0.971,12.389 0.317,3.227 0.237,5.93 -0.235,8.133 -0.42,1.864 -1.129,3.36 -2.126,4.488 -0.918,0.919 -2.047,1.549 -3.411,1.889 -0.42,0.105 -0.865,0.184 -1.312,0.237 l -0.052,2.178 c 0.813,-0.08 1.599,-0.21 2.307,-0.394 1.63,-0.445 2.967,-1.285 4.018,-2.493 1.18,-1.232 2.045,-2.886 2.57,-4.958 0.577,-2.415 0.709,-5.407 0.394,-8.949 -0.183,-1.759 -0.445,-9.686 -0.787,-11.68 l 17.688,-0.027 c 0.078,2.415 0.104,10.761 0.026,12.94 -0.158,5.85 -0.918,10.865 -2.284,15.036 -1.283,3.936 -3.121,7.112 -5.483,9.552 -2.493,2.467 -5.589,4.095 -9.289,4.881 -2.808,0.603 -5.986,0.708 -9.474,0.341 l -0.054,2.124 c 3.912,0.396 7.399,0.238 10.498,-0.47 3.882,-0.918 7.138,-2.703 9.787,-5.406 2.572,-2.546 4.566,-5.905 5.957,-10.077 1.444,-4.382 2.285,-9.683 2.468,-15.85 0.077,-2.546 0.025,-11.312 -0.104,-14.173 -0.027,-0.289 -0.132,-0.498 -0.315,-0.682 -0.21,-0.184 -0.447,-0.288 -0.735,-0.315 l -19.996,0.027 c -0.21,-0.027 -0.394,0.051 -0.577,0.183 -0.186,0.105 -0.291,0.262 -0.371,0.473"
         id="path1523" />
      <path
         inkscape:connector-curvature="0"
         style="fill:#fedb00"
         d="m 735.838,149.227 c 0.315,3.542 0.184,6.534 -0.394,8.949 l 15.036,7.32 c 1.366,-4.171 2.126,-9.186 2.284,-15.036 l -16.926,-1.233 z"
         id="path1525" />
      <path
         inkscape:connector-curvature="0"
         style="fill:#0076bf"
         d="m 732.874,163.134 c -1.051,1.208 -2.388,2.048 -4.018,2.493 l 6.852,14.302 c 3.7,-0.786 6.796,-2.414 9.289,-4.881 2.362,-2.44 4.2,-5.616 5.483,-9.552 l -15.036,-7.32 c -0.525,2.072 -1.39,3.726 -2.57,4.958"
         id="path1527" />
      <path
         inkscape:connector-curvature="0"
         style="fill:#ffffff"
         d="m 728.856,165.627 c -0.708,0.184 -1.493,0.314 -2.307,0.394 l -0.315,14.249 c 3.487,0.367 6.666,0.262 9.474,-0.341 l -6.852,-14.302 z"
         id="path1529" />
      <path
         inkscape:connector-curvature="0"
         style="fill:#e83827"
         d="m 735.051,137.547 c 0.342,1.994 0.604,9.921 0.787,11.68 l 16.927,1.233 c 0.077,-2.179 0.052,-10.525 -0.026,-12.94 l -14.495,-0.042 -3.193,0.069 z"
         id="path1531" />
    </g>
  </g>
</svg>
