<?xml version="1.0" encoding="UTF-8" standalone="no"?>
<!-- Created with Inkscape (http://www.inkscape.org/) -->

<svg
   xmlns:dc="http://purl.org/dc/elements/1.1/"
   xmlns:cc="http://creativecommons.org/ns#"
   xmlns:rdf="http://www.w3.org/1999/02/22-rdf-syntax-ns#"
   xmlns:svg="http://www.w3.org/2000/svg"
   xmlns="http://www.w3.org/2000/svg"
   version="1.1"
   width="155.09"
   height="205"
   id="svg4991">
  <defs
     id="defs4993" />
  <metadata
     id="metadata4996">
    <rdf:RDF>
      <cc:Work
         rdf:about="">
        <dc:format>image/svg+xml</dc:format>
        <dc:type
           rdf:resource="http://purl.org/dc/dcmitype/StillImage" />
        <dc:title></dc:title>
      </cc:Work>
    </rdf:RDF>
  </metadata>
  <g
     transform="translate(0,-847.36218)"
     id="layer1">
    <g
       transform="translate(-75.3557,782.52411)"
       id="g15960">
      <path
         d="m 183.611,251.841 c -1.721,2.594 -5.239,3.955 -10.557,4.135 -6.318,0.18 -14.102,-1.49 -23.349,-5.008 -0.231,-0.079 -0.359,-0.257 -0.437,-0.591 -0.052,-0.309 -0.026,-0.798 0.052,-1.439 0.076,-0.59 0.282,-1.848 0.616,-3.724 0.487,-2.568 0.847,-4.726 1.131,-6.449 1.002,0.052 2.362,0.052 4.134,0 2.056,-0.076 3.366,-0.102 3.956,-0.102 4.008,-0.282 7.655,-0.232 10.969,0.206 l -0.077,0.051 c 5.522,0.745 9.582,2.518 12.227,5.317 2.465,2.646 2.902,5.164 1.335,7.604"
         id="path15962"
         style="fill:#e83827" />
      <path
         d="m 183.611,251.841 c 1.567,-2.44 1.13,-4.958 -1.335,-7.604 -2.645,-2.799 -6.705,-4.572 -12.227,-5.317 l 0.077,-0.051 c -3.314,-0.438 -6.961,-0.488 -10.969,-0.206 -0.59,0 -1.9,0.026 -3.956,0.102 -1.772,0.052 -3.132,0.052 -4.134,0 -0.284,1.723 -0.644,3.881 -1.131,6.449 -0.334,1.876 -0.54,3.134 -0.616,3.724 -0.078,0.641 -0.104,1.13 -0.052,1.439 0.078,0.334 0.206,0.512 0.437,0.591 9.247,3.518 17.031,5.188 23.349,5.008 5.318,-0.18 8.836,-1.541 10.557,-4.135 z"
         id="path15964"
         style="fill:none;stroke:#e83927;stroke-width:4.00699997;stroke-linecap:round;stroke-linejoin:round;stroke-miterlimit:10" />
      <path
         d="m 183.611,251.841 c -1.695,2.594 -5.214,3.981 -10.531,4.162 -6.32,0.204 -14.102,-1.465 -23.375,-5.01 -0.231,-0.077 -0.359,-0.256 -0.437,-0.592 -0.052,-0.307 -0.026,-0.795 0.052,-1.437 1.9,0.95 4.314,1.824 7.269,2.594 3.468,0.9 5.856,1.079 7.115,0.565 0.258,-0.102 0.488,-0.72 0.719,-1.848 0.489,-2.391 0.721,-3.649 0.746,-3.752 0.924,-3.801 2.542,-6.319 4.829,-7.578 5.523,0.72 9.633,2.493 12.278,5.317 2.465,2.621 2.902,5.139 1.335,7.579"
         id="path15966"
         style="fill:#ffffff" />
      <path
         d="m 168.354,250.993 c -0.308,1.207 -0.591,1.851 -0.848,1.953 -1.232,0.539 -4.238,0.204 -9.016,-0.977 -4.341,-1.08 -7.398,-2.081 -9.17,-3.005 0.076,-0.592 0.282,-1.849 0.616,-3.725 0.487,-2.568 0.847,-4.726 1.131,-6.447 1.002,0.051 2.362,0.051 4.134,0 2.056,-0.077 3.366,-0.103 3.956,-0.103 2.441,-0.18 4.829,-0.206 7.219,-0.103 2.929,0.129 5.446,0.488 7.552,1.028 -1.953,1.001 -3.468,3.493 -4.574,7.424 -0.281,0.976 -0.615,2.285 -1,3.955"
         id="path15968"
         style="fill:#e83434" />
      <path
         d="m 151.632,245.958 c 0,-0.873 0.282,-1.618 0.847,-2.235 0.591,-0.616 1.284,-0.923 2.081,-0.923 0.796,0 1.49,0.307 2.08,0.923 0.566,0.617 0.847,1.362 0.847,2.235 0,0.874 -0.281,1.619 -0.847,2.235 -0.59,0.591 -1.284,0.899 -2.08,0.899 -0.797,0 -1.49,-0.308 -2.081,-0.899 -0.565,-0.616 -0.847,-1.361 -0.847,-2.235"
         id="path15970"
         style="fill:#ffffff" />
      <path
         d="m 170.692,237.918 c 0.642,0.077 1.181,0.206 1.591,0.413 -0.949,0.409 -1.874,1.128 -2.773,2.182 -0.797,0.925 -1.849,2.439 -3.16,4.52 -1.438,-0.307 -2.26,-0.488 -2.466,-0.564 0,-0.694 0.616,-1.823 1.874,-3.391 1.26,-1.592 2.339,-2.595 3.29,-3.032 0.385,-0.179 0.924,-0.204 1.644,-0.128"
         id="path15972"
         style="fill:#ffffff" />
      <path
         d="m 160.979,253.694 c -1.722,2.595 -5.24,3.955 -10.557,4.136 -6.318,0.181 -14.103,-1.491 -23.35,-5.01 -0.232,-0.077 -0.359,-0.256 -0.437,-0.591 -0.051,-0.308 -0.025,-0.796 0.051,-1.438 0.078,-0.591 0.283,-1.85 0.616,-3.724 0.489,-2.568 0.849,-4.726 1.131,-6.448 1.002,0.052 2.364,0.052 4.135,0 2.056,-0.077 3.366,-0.102 3.957,-0.102 4.007,-0.284 7.654,-0.231 10.969,0.205 l -0.078,0.052 c 5.523,0.745 9.582,2.517 12.228,5.317 2.465,2.644 2.902,5.164 1.335,7.603"
         id="path15974"
         style="fill:#e83827" />
      <path
         d="m 160.979,253.694 c 1.567,-2.439 1.13,-4.959 -1.335,-7.603 -2.646,-2.8 -6.705,-4.572 -12.228,-5.317 l 0.078,-0.052 c -3.315,-0.436 -6.962,-0.489 -10.969,-0.205 -0.591,0 -1.901,0.025 -3.957,0.102 -1.771,0.052 -3.133,0.052 -4.135,0 -0.282,1.722 -0.642,3.88 -1.131,6.448 -0.333,1.874 -0.538,3.133 -0.616,3.724 -0.076,0.642 -0.102,1.13 -0.051,1.438 0.078,0.335 0.205,0.514 0.437,0.591 9.247,3.519 17.032,5.191 23.35,5.01 5.317,-0.181 8.835,-1.541 10.557,-4.136 z"
         id="path15976"
         style="fill:none;stroke:#e83927;stroke-width:4.00699997;stroke-linecap:round;stroke-linejoin:round;stroke-miterlimit:10" />
      <path
         d="m 160.979,253.694 c -1.696,2.595 -5.214,3.982 -10.531,4.162 -6.32,0.206 -14.104,-1.466 -23.376,-5.01 -0.232,-0.076 -0.359,-0.256 -0.437,-0.591 -0.051,-0.307 -0.025,-0.796 0.051,-1.437 1.901,0.951 4.316,1.823 7.27,2.594 3.468,0.898 5.857,1.078 7.116,0.565 0.257,-0.104 0.488,-0.72 0.719,-1.85 0.488,-2.389 0.718,-3.648 0.745,-3.75 0.924,-3.802 2.542,-6.32 4.828,-7.578 5.523,0.72 9.634,2.492 12.28,5.317 2.465,2.621 2.902,5.139 1.335,7.578"
         id="path15978"
         style="fill:#ffffff" />
      <path
         d="m 145.721,252.846 c -0.307,1.207 -0.591,1.849 -0.848,1.954 -1.233,0.538 -4.238,0.204 -9.016,-0.978 -4.341,-1.079 -7.397,-2.081 -9.171,-3.004 0.078,-0.591 0.283,-1.851 0.616,-3.725 0.489,-2.57 0.849,-4.726 1.131,-6.447 1.003,0.052 2.364,0.052 4.135,0 2.056,-0.077 3.366,-0.104 3.957,-0.104 2.44,-0.181 4.83,-0.204 7.217,-0.101 2.929,0.128 5.446,0.486 7.552,1.027 -1.951,1.002 -3.466,3.492 -4.572,7.422 -0.282,0.978 -0.615,2.287 -1.001,3.956"
         id="path15980"
         style="fill:#e83434" />
      <path
         d="m 128.999,247.812 c 0,-0.873 0.282,-1.618 0.847,-2.235 0.591,-0.617 1.285,-0.924 2.08,-0.924 0.797,0 1.491,0.307 2.081,0.924 0.565,0.617 0.848,1.362 0.848,2.235 0,0.874 -0.283,1.618 -0.848,2.234 -0.59,0.591 -1.284,0.901 -2.081,0.901 -0.795,0 -1.489,-0.31 -2.08,-0.901 -0.565,-0.616 -0.847,-1.36 -0.847,-2.234"
         id="path15982"
         style="fill:#ffffff" />
      <path
         d="m 148.057,239.772 c 0.643,0.076 1.182,0.204 1.594,0.411 -0.951,0.411 -1.875,1.13 -2.774,2.184 -0.797,0.924 -1.85,2.439 -3.161,4.52 -1.437,-0.309 -2.26,-0.488 -2.466,-0.565 0,-0.694 0.617,-1.823 1.877,-3.391 1.258,-1.593 2.336,-2.593 3.287,-3.031 0.386,-0.18 0.925,-0.205 1.643,-0.128"
         id="path15984"
         style="fill:#ffffff" />
      <path
         d="m 207.048,152.086 -0.001,0.026 0.05,0.005 c 0.73,0.155 1.375,0.378 1.908,0.691 0.702,0.411 1.267,0.908 1.668,1.492 l 0.025,0.002 0.023,0.028 c 0.154,0.248 0.305,0.522 0.453,0.82 l 0.022,0.028 c 0.026,0.003 0.026,0.003 0.049,0.031 0.224,0.076 0.494,0.182 0.792,0.291 0.566,0.24 1.009,0.442 1.278,0.573 l -0.006,0.051 c 1.717,1.032 2.791,2.304 3.199,3.789 l -0.003,0.026 c 0.023,0.028 0.02,0.053 0.042,0.082 0.021,0.053 0.041,0.107 0.089,0.137 0.052,0.237 0.146,0.556 0.227,1.003 0.014,0.104 0.058,0.185 0.075,0.266 0.727,0.668 1.307,1.501 1.69,2.495 l -0.03,0.022 c 0.11,0.193 0.19,0.407 0.241,0.644 0.075,0.265 0.148,0.555 0.194,0.843 0.305,0.522 0.558,1.038 0.732,1.571 0.068,0.342 0.137,0.658 0.181,0.972 0.04,0.339 0.059,0.65 0.078,0.96 l -2.291,-0.244 c -0.03,-0.441 -0.108,-0.912 -0.234,-1.415 -0.001,-0.231 -0.055,-0.469 -0.137,-0.657 -0.111,-0.399 -0.273,-0.57 -0.454,-0.564 0.002,-0.024 0.006,-0.05 -0.017,-0.079 -0.029,0.023 -0.029,0.023 -0.006,0.051 -0.024,-0.002 -0.024,-0.002 -0.054,0.021 -0.023,-0.029 -0.036,0.099 -0.063,0.353 -0.259,0.743 -0.614,1.427 -1.12,2.067 l -2.621,-0.279 c 0.594,-0.503 1.077,-1.171 1.477,-2.03 1.092,-2.276 0.89,-4.485 -0.632,-6.628 -0.421,-0.638 -0.934,-1.13 -1.566,-1.48 -0.025,-0.003 -0.025,-0.003 -0.05,-0.006 l -0.003,0.026 c 0.149,0.531 0.216,1.105 0.205,1.695 0.007,1.621 -0.342,3.205 -0.99,4.706 -0.07,0.172 -0.138,0.32 -0.233,0.49 -0.514,0.948 -1.167,1.779 -1.939,2.495 -0.112,0.09 -0.226,0.182 -0.365,0.295 l -2.825,-0.3 c 1.034,-0.766 1.883,-1.731 2.599,-2.888 0.027,-0.023 0.056,-0.046 0.057,-0.072 l 0.027,0.003 c 0.496,-0.796 0.823,-1.688 1.006,-2.672 0.273,-1.36 0.264,-2.725 0.026,-4.114 -0.096,-0.551 -0.254,-1.005 -0.501,-1.34 -0.098,-0.294 -0.226,-0.539 -0.382,-0.761 l -0.025,-0.003 c 0.002,-0.025 0.002,-0.025 -0.023,-0.028 -0.247,-0.336 -0.599,-0.656 -1.032,-0.934 -0.318,-0.162 -0.689,-0.305 -1.144,-0.379 -0.555,-0.11 -1.094,-0.116 -1.619,-0.018 l -0.026,-0.003 c -1.368,0.291 -2.458,1.102 -3.272,2.456 l -0.028,0.023 c -0.625,1.04 -1.085,2.457 -1.355,4.257 l -0.004,0.049 c -0.014,0.128 -0.055,0.509 -0.149,1.143 l -0.004,0.051 c -0.004,0.025 -0.006,0.051 0.017,0.08 -0.003,0.024 0.02,0.053 0.043,0.081 0.023,0.028 0.067,0.084 0.09,0.112 0.371,0.143 0.784,0.367 1.238,0.699 0.74,0.541 1.345,1.146 1.862,1.844 0.557,0.807 0.939,1.336 1.137,1.64 0.109,0.191 0.215,0.409 0.318,0.651 l -2.265,-0.24 c -0.279,-0.52 -0.665,-0.999 -1.114,-1.381 -0.919,-0.793 -2.275,-1.349 -4.068,-1.668 -0.076,-0.009 -0.178,-0.021 -0.254,-0.028 -0.362,0.013 -0.699,0.029 -1.036,0.07 -0.029,0.023 -0.054,0.019 -0.077,-0.008 -0.523,0.073 -0.972,0.18 -1.347,0.32 -0.538,0.225 -0.956,0.515 -1.23,0.923 l 0.019,0.054 -0.024,-0.003 c -0.155,0.241 -0.258,0.488 -0.359,0.708 l -2.24,-0.238 c 0.159,-0.524 0.397,-1.064 0.715,-1.623 0.027,-0.022 0.053,-0.02 0.056,-0.045 0.728,-1.286 2.145,-2.036 4.203,-2.254 0.024,0.002 0.024,0.002 0.053,-0.021 0.624,-0.061 1.291,-0.042 1.981,0.006 l 0.025,0.003 c 0.025,0.003 0.025,0.003 0.028,-0.023 l 0.028,-0.023 c 0.029,-0.022 0.029,-0.022 0.057,-0.045 0.067,-0.635 0.104,-0.992 0.145,-1.116 l -0.021,-0.054 0.029,-0.023 c 0.302,-2.104 0.867,-3.793 1.644,-5.048 1.216,-1.98 2.806,-3.149 4.771,-3.48 l 0.026,0.003 c 0.759,-0.125 1.556,-0.117 2.341,-0.008"
         id="path15986"
         style="fill:#e83434" />
      <path
         d="m 208.931,167.751 c -0.085,0.07 -0.147,0.164 -0.232,0.234 -0.056,0.045 -0.112,0.089 -0.171,0.161 -0.278,0.202 -0.555,0.378 -0.834,0.581 -0.025,-0.004 -0.025,-0.004 -0.054,0.019 0.072,0.06 0.12,0.09 0.168,0.12 0.317,0.163 0.639,0.275 0.937,0.384 1.747,0.262 3.173,-0.074 4.282,-1.062 l 2.621,0.279 c -0.689,0.905 -1.646,1.677 -2.824,2.349 0.021,0.029 0.016,0.081 -0.011,0.104 -0.167,0.11 -0.276,0.174 -0.311,0.248 -0.305,0.456 -0.451,0.853 -0.434,1.19 0.011,0.13 0.021,0.284 0.055,0.443 0.066,0.111 0.123,0.296 0.175,0.533 0.21,0.922 0.635,1.534 1.25,1.779 0.148,0.068 0.299,0.11 0.478,0.103 0.023,0.029 0.048,0.032 0.071,0.059 0.03,-0.023 0.03,-0.023 0.007,-0.049 0.435,0.02 0.861,-0.115 1.253,-0.408 0.576,-0.351 1.016,-0.845 1.318,-1.507 0.388,-0.499 0.682,-1.085 0.856,-1.761 0.248,-0.874 0.326,-1.843 0.202,-2.86 l 2.291,0.244 c 0.066,2.04 -0.5,3.962 -1.746,5.758 -0.427,0.622 -0.945,1.134 -1.55,1.507 -0.111,0.065 -0.218,0.106 -0.327,0.172 -0.224,0.156 -0.442,0.286 -0.657,0.367 -0.83,1.018 -1.843,1.837 -3.072,2.502 -0.683,0.366 -1.384,0.676 -2.132,0.932 l -0.003,0.025 c -0.077,-0.008 -0.128,-0.014 -0.18,0.007 -0.078,-0.009 -0.13,0.012 -0.209,0.029 -1.456,0.384 -2.609,0.571 -3.456,0.558 l -0.191,0.34 c -0.23,0.463 -0.488,0.951 -0.768,1.41 l -0.054,0.019 c -0.752,0.049 -1.525,0.07 -2.321,0.061 0.375,-0.627 0.751,-1.256 1.101,-1.889 0.312,-0.507 0.62,-0.988 0.932,-1.495 0.162,-0.317 0.321,-0.608 0.431,-0.907 l 0.028,-0.023 c 0.224,0.075 0.374,0.119 0.475,0.128 0.126,0.014 0.228,0.024 0.331,0.037 0.969,0.077 2.037,-0.041 3.18,-0.382 0.185,-0.058 0.372,-0.115 0.533,-0.176 0.426,-0.134 0.834,-0.348 1.246,-0.588 l 0.025,0.004 0.028,-0.024 c 0.274,-0.149 0.547,-0.301 0.798,-0.479 -0.62,-0.221 -1.141,-0.638 -1.565,-1.249 -0.558,-0.806 -0.901,-1.692 -1.035,-2.606 -0.022,-0.028 -0.017,-0.079 -0.015,-0.104 -0.016,-0.079 -0.034,-0.159 -0.02,-0.286 -0.012,-0.131 0.004,-0.283 0.02,-0.436 0.005,-0.282 0.032,-0.536 0.079,-0.737 0.027,-0.023 0.027,-0.023 0.031,-0.047 -0.029,0.021 -0.079,0.016 -0.107,0.039 -0.693,-0.022 -1.374,-0.145 -2.045,-0.373 -0.643,-0.249 -1.31,-0.499 -1.976,-0.776 -0.025,-0.002 -0.025,-0.002 -0.051,-0.006 -0.079,0.018 -0.158,0.036 -0.237,0.052 -0.051,0.227 -0.127,0.474 -0.282,0.717 -0.291,0.559 -0.654,1.062 -1.132,1.448 -0.991,0.846 -2.127,1.369 -3.415,1.618 l -0.002,0.024 c -0.313,0.044 -0.627,0.088 -0.96,0.079 -0.102,-0.012 -0.179,-0.018 -0.259,-0.002 -0.038,0.124 -0.1,0.222 -0.139,0.346 -0.802,1.74 -1.646,3.375 -2.558,4.925 -0.392,-0.427 -0.729,-0.875 -1.011,-1.369 -0.089,-0.137 -0.199,-0.304 -0.313,-0.445 0.725,-1.261 1.407,-2.578 2.044,-3.976 -1.123,-0.557 -1.883,-0.922 -2.245,-1.14 -0.49,-0.233 -0.926,-0.485 -1.338,-0.736 -0.6,-0.397 -1.079,-0.73 -1.38,-1.047 -0.442,-0.432 -0.83,-0.911 -1.161,-1.41 -0.112,-0.166 -0.241,-0.412 -0.408,-0.764 -0.267,-0.878 -0.271,-1.804 -0.018,-2.729 l 2.239,0.238 c -0.288,0.767 -0.264,1.515 0.044,2.243 l -0.003,0.026 c 0.308,0.729 0.91,1.358 1.778,1.913 1.369,0.919 2.879,1.464 4.51,1.614 0.176,0.045 0.381,0.066 0.611,0.065 0.337,-0.017 0.65,-0.06 0.943,-0.157 1.623,-0.496 2.347,-1.499 2.171,-2.984 -0.005,-0.182 -0.045,-0.315 -0.055,-0.445 -0.134,-0.451 -0.293,-0.88 -0.509,-1.262 l 2.265,0.24 c 0.102,0.243 0.179,0.484 0.256,0.723 0.305,-0.199 0.609,-0.399 0.888,-0.6 l 2.825,0.3 z"
         id="path15988"
         style="fill:#e83434" />
      <path
         d="m 201.797,156.698 c 0.814,-1.354 1.904,-2.165 3.272,-2.456 l 0.026,0.003 c 0.525,-0.098 1.064,-0.092 1.619,0.018 0.455,0.074 0.826,0.217 1.144,0.379 0.433,0.278 0.785,0.598 1.032,0.934 0.025,0.003 0.025,0.003 0.023,0.028 l 0.025,0.003 c 0.156,0.222 0.284,0.467 0.382,0.761 0.248,0.335 0.405,0.789 0.501,1.34 0.238,1.389 0.247,2.754 -0.026,4.114 -0.183,0.984 -0.51,1.876 -1.006,2.672 l -0.027,-0.003 c -0.001,0.026 -0.03,0.049 -0.057,0.072 -0.907,1.497 -2.086,2.658 -3.487,3.488 -0.126,-0.503 -0.334,-0.963 -0.574,-1.374 -0.198,-0.304 -0.579,-0.834 -1.137,-1.64 -0.517,-0.698 -1.122,-1.303 -1.862,-1.846 -0.453,-0.33 -0.867,-0.554 -1.238,-0.697 -0.023,-0.028 -0.067,-0.084 -0.09,-0.112 -0.023,-0.028 -0.045,-0.057 -0.043,-0.081 -0.023,-0.029 -0.021,-0.055 -0.017,-0.08 l 0.004,-0.051 c 0.094,-0.634 0.135,-1.015 0.149,-1.143 l 0.004,-0.049 c 0.27,-1.8 0.73,-3.217 1.355,-4.257 l 0.028,-0.023 z"
         id="path15990"
         style="fill:#f49c00" />
      <path
         d="m 197.261,164.011 c 0.076,0.007 0.178,0.019 0.254,0.028 1.793,0.319 3.149,0.875 4.068,1.668 0.777,0.676 1.326,1.556 1.623,2.643 0.01,0.13 0.048,0.263 0.055,0.444 0.176,1.486 -0.548,2.489 -2.171,2.985 -0.293,0.096 -0.606,0.14 -0.943,0.157 -0.23,0.001 -0.435,-0.02 -0.611,-0.065 -1.631,-0.15 -3.141,-0.695 -4.51,-1.614 -0.868,-0.555 -1.47,-1.184 -1.778,-1.913 l 0.003,-0.026 c -0.414,-0.945 -0.308,-1.937 0.315,-2.951 l 0.024,0.003 -0.019,-0.054 c 0.274,-0.408 0.692,-0.698 1.23,-0.923 0.375,-0.14 0.824,-0.247 1.347,-0.32 0.023,0.027 0.048,0.031 0.077,0.008 0.337,-0.042 0.674,-0.057 1.036,-0.07 z"
         id="path15992"
         style="fill:#f49c00" />
      <path
         d="m 212.253,158.07 0.053,-0.02 c 0.632,0.35 1.145,0.842 1.566,1.479 1.522,2.144 1.724,4.353 0.632,6.629 -1.164,2.475 -3.101,3.503 -5.759,3.092 -0.298,-0.109 -0.62,-0.221 -0.937,-0.384 l -0.114,-0.139 c 0.279,-0.203 0.556,-0.379 0.834,-0.581 0.059,-0.072 0.115,-0.116 0.171,-0.161 0.201,-0.186 0.401,-0.37 0.597,-0.529 0.772,-0.716 1.427,-1.547 1.939,-2.495 0.095,-0.17 0.163,-0.318 0.233,-0.49 0.648,-1.501 0.997,-3.085 0.99,-4.706 0.011,-0.59 -0.056,-1.164 -0.205,-1.695"
         id="path15994"
         style="fill:#f49c00" />
      <path
         d="m 212.306,158.05 -0.053,0.02 0.003,-0.026 c 0.025,0.003 0.025,0.003 0.05,0.006"
         id="path15996"
         style="fill:#e83827" />
      <path
         d="m 207.694,168.727 0.114,0.139 c -0.048,-0.03 -0.096,-0.06 -0.168,-0.12 0.029,-0.023 0.029,-0.023 0.054,-0.019"
         id="path15998"
         style="fill:#e83827" />
      <path
         d="m 212.123,172.801 c -0.034,-0.159 -0.044,-0.313 -0.055,-0.443 -0.017,-0.338 0.129,-0.734 0.434,-1.189 0.035,-0.075 0.144,-0.139 0.311,-0.249 0.027,-0.023 0.032,-0.075 0.011,-0.104 2.024,-1.122 3.34,-2.602 3.944,-4.416 0.027,-0.254 0.04,-0.382 0.063,-0.353 0.03,-0.023 0.03,-0.023 0.054,-0.021 -0.023,-0.028 -0.023,-0.028 0.006,-0.051 0.023,0.029 0.019,0.055 0.017,0.079 0.181,-0.006 0.343,0.165 0.454,0.564 0.082,0.188 0.136,0.426 0.137,0.657 0.374,1.559 0.4,3.002 0.032,4.275 -0.175,0.676 -0.468,1.262 -0.856,1.761 -0.302,0.662 -0.742,1.156 -1.318,1.507 -0.392,0.293 -0.818,0.428 -1.253,0.408 l -0.078,-0.01 c -0.179,0.007 -0.33,-0.035 -0.478,-0.103 -0.615,-0.245 -1.04,-0.857 -1.25,-1.779 -0.052,-0.237 -0.109,-0.422 -0.175,-0.533"
         id="path16000"
         style="fill:#f49c00" />
      <path
         d="m 214.097,175.275 c -0.023,-0.027 -0.048,-0.03 -0.071,-0.059 l 0.078,0.01 c 0.023,0.026 0.023,0.026 -0.007,0.049"
         id="path16002"
         style="fill:#e83827" />
      <path
         d="m 205.782,170.246 c 0.026,0.004 0.026,0.004 0.051,0.006 0.666,0.277 1.333,0.527 1.976,0.776 0.671,0.228 1.352,0.351 2.045,0.373 l 0.076,0.008 c -0.047,0.201 -0.074,0.455 -0.079,0.737 -0.016,0.153 -0.032,0.305 -0.02,0.436 -0.014,0.127 0.004,0.207 0.02,0.286 -0.002,0.025 -0.007,0.076 0.015,0.104 0.134,0.915 0.477,1.8 1.035,2.606 0.424,0.611 0.945,1.028 1.565,1.249 -0.251,0.178 -0.524,0.33 -0.798,0.479 l -0.053,0.02 c -0.412,0.24 -0.82,0.454 -1.246,0.588 -0.161,0.061 -0.348,0.118 -0.533,0.176 -1.143,0.341 -2.211,0.459 -3.18,0.382 -0.103,-0.013 -0.205,-0.023 -0.331,-0.037 -0.101,-0.009 -0.251,-0.053 -0.475,-0.128 l -0.028,0.023 c -0.11,0.299 -0.269,0.59 -0.431,0.907 -0.312,0.507 -0.62,0.988 -0.932,1.495 -0.35,0.633 -0.726,1.262 -1.101,1.889 -0.027,-0.002 -0.053,-0.005 -0.078,-0.007 -1.735,-0.365 -3.391,-1.006 -4.999,-1.871 -0.549,-0.394 -1.045,-0.806 -1.483,-1.29 0.912,-1.55 1.756,-3.185 2.558,-4.925 0.04,-0.124 0.101,-0.222 0.139,-0.346 0.08,-0.016 0.157,-0.01 0.259,0.002 0.333,0.009 0.647,-0.035 0.96,-0.079 l 0.002,-0.024 c 1.288,-0.249 2.424,-0.772 3.415,-1.618 0.478,-0.386 0.841,-0.889 1.132,-1.448 0.155,-0.241 0.233,-0.49 0.282,-0.717 0.079,-0.016 0.158,-0.034 0.237,-0.052"
         id="path16004"
         style="fill:#f49c00" />
      <path
         d="m 209.961,171.362 c -0.004,0.024 -0.004,0.024 -0.031,0.047 l -0.076,-0.008 c 0.028,-0.023 0.078,-0.018 0.107,-0.039"
         id="path16006"
         style="fill:#ffffff" />
      <polygon
         points="211.668,177.306 211.64,177.33 211.615,177.326 "
         id="polygon16008"
         style="fill:#e83827" />
      <polygon
         points="216.531,159.94 216.505,159.939 216.508,159.913 "
         id="polygon16010"
         style="fill:#9e0c28" />
      <path
         d="m 195.444,173.082 c 0.181,-0.007 0.354,0.063 0.521,0.183 l 14.879,9.846 c 0.215,0.151 0.374,0.35 0.424,0.611 0.076,0.239 0.051,0.495 -0.103,0.736 -2.407,4.22 -4.606,7.227 -6.624,9.02 -0.14,0.116 -0.256,0.23 -0.397,0.345 -4.206,3.488 -9.155,5.507 -14.895,6.003 -0.856,0.063 -1.761,0.096 -2.664,0.128 -6.824,0.044 -12.994,-2.183 -18.512,-6.657 -0.589,-0.5 -1.156,-0.998 -1.694,-1.493 -4.299,-4.086 -6.867,-8.966 -7.725,-14.668 -0.053,-0.236 -0.076,-0.497 -0.101,-0.756 -0.045,-0.288 0.033,-0.538 0.209,-0.749 0.177,-0.213 0.398,-0.345 0.685,-0.39 0.289,-0.048 0.538,0.031 0.749,0.209 0.213,0.175 0.345,0.395 0.391,0.683 0.02,0.054 0.015,0.105 0.007,0.182 0.725,5.506 3.159,10.191 7.296,14.106 0.468,0.436 0.965,0.849 1.483,1.291 5.14,4.175 10.862,6.253 17.196,6.207 0.801,-0.018 1.603,-0.06 2.38,-0.106 5.35,-0.46 9.973,-2.309 13.897,-5.572 0.14,-0.111 0.253,-0.203 0.393,-0.316 1.741,-1.59 3.631,-4.117 5.677,-7.629 l -13.194,-8.74 c -0.894,1.371 -1.989,2.489 -3.296,3.406 -1.198,0.849 -2.58,1.5 -4.121,1.953 -0.609,0.167 -1.24,0.305 -1.896,0.416 -1.121,0.137 -2.281,0.141 -3.423,-0.004 -0.025,-0.004 -0.05,-0.005 -0.076,-0.009 -1.435,-0.283 -2.701,-0.727 -3.796,-1.332 -3.081,-1.744 -4.776,-4.91 -5.091,-9.446 -0.015,-0.104 -0.004,-0.207 -0.018,-0.31 0.004,-0.282 0.083,-0.531 0.259,-0.745 0.203,-0.21 0.448,-0.337 0.731,-0.332 0.286,-0.022 0.509,0.053 0.719,0.255 0.118,0.09 0.188,0.174 0.251,0.31 0.064,0.111 0.076,0.239 0.086,0.396 0.227,4.142 1.807,6.933 4.718,8.35 0.759,0.364 1.603,0.66 2.537,0.838 0.938,0.125 1.89,0.123 2.805,-0.011 0.548,-0.07 1.102,-0.191 1.632,-0.34 1.247,-0.356 2.383,-0.878 3.383,-1.57 1.39,-0.958 2.525,-2.2 3.388,-3.781 0.097,-0.17 0.237,-0.283 0.401,-0.369 0.165,-0.111 0.349,-0.144 0.529,-0.149"
         id="path16012"
         style="fill:#003c90" />
      <path
         d="m 169.373,191.712 c -0.518,-0.442 -1.015,-0.855 -1.483,-1.291 l 11.224,-10.435 c 1.095,0.605 2.361,1.049 3.796,1.332 0.026,0.004 0.051,0.005 0.076,0.009 1.142,0.145 2.302,0.141 3.423,0.004 l 2.54,16.482 c -0.777,0.046 -1.579,0.088 -2.38,0.106 -6.334,0.046 -12.056,-2.032 -17.196,-6.207"
         id="path16014"
         style="fill:#0076bf" />
      <path
         d="m 167.89,190.421 c -4.137,-3.915 -6.571,-8.6 -7.296,-14.106 l 13.429,-5.775 c 0.315,4.536 2.01,7.702 5.091,9.446 l -11.224,10.435 z"
         id="path16016"
         style="fill:#ffffff" />
      <path
         d="m 186.409,181.331 c 0.656,-0.111 1.287,-0.249 1.896,-0.416 1.541,-0.453 2.923,-1.104 4.121,-1.953 l 10.813,12.963 c -0.14,0.113 -0.253,0.205 -0.393,0.316 -3.924,3.263 -8.547,5.112 -13.897,5.572 l -2.54,-16.482 z"
         id="path16018"
         style="fill:#fedb00" />
      <path
         d="m 203.239,191.925 -10.813,-12.963 c 1.307,-0.917 2.402,-2.035 3.296,-3.406 l 13.194,8.74 c -2.046,3.512 -3.936,6.039 -5.677,7.629"
         id="path16020"
         style="fill:#e83827" />
      <path
         d="m 175.444,211.311 c -0.193,-0.411 -0.468,-0.692 -0.83,-0.873 -0.36,-0.179 -0.722,-0.231 -1.084,-0.104 -2.637,0.822 -5.593,1.515 -8.868,2.055 -5.04,0.849 -10.292,1.259 -15.735,1.284 h -0.043 -0.043 -0.041 c -5.467,-0.025 -10.698,-0.435 -15.738,-1.284 -3.274,-0.54 -6.231,-1.233 -8.868,-2.055 -0.36,-0.128 -0.721,-0.076 -1.083,0.104 -0.363,0.181 -0.617,0.462 -0.808,0.873 -0.192,0.386 -0.277,0.824 -0.213,1.285 l 0.064,0.77 c 0.49,4.649 1.403,10.61 2.722,17.88 0.022,0.128 0.042,0.257 0.063,0.385 h 22.606 v 0.025 c 0.361,-0.025 0.764,-0.025 1.255,-0.025 h 0.041 0.043 0.043 c 0.445,0 0.851,0 1.19,0.025 0.064,-0.051 0.107,-0.103 0.171,-0.153 l 22.456,0.306 c 0.02,-0.178 0.064,-0.384 0.106,-0.565 1.339,-7.372 2.232,-13.332 2.721,-17.878 l 0.086,-0.77 c 0.042,-0.461 -0.022,-0.899 -0.213,-1.285"
         id="path16022"
         style="fill:#003c90" />
      <path
         d="m 148.028,215.482 c -0.078,-0.026 -0.13,-0.026 -0.207,0 v -1.877 l 0.077,-0.178 v 0.178 c 0.026,0.489 0.052,0.951 0.079,1.441 0.024,0.129 0.024,0.282 0.051,0.436"
         id="path16024"
         style="fill:#003c90" />
      <path
         d="m 147.821,215.482 c 0.077,-0.026 0.129,-0.026 0.207,0 -0.027,-0.154 -0.027,-0.307 -0.051,-0.436 -0.027,-0.49 -0.053,-0.952 -0.079,-1.441 v -0.178 c 0.745,-0.565 1.491,-1.104 2.236,-1.618 8.169,-5.419 16.747,-6.089 25.763,-2.004 0.335,0.129 0.566,0.206 0.644,0.232 0.025,-0.026 0.025,-0.026 0.049,0 l -0.486,2.106 c 0.076,-0.026 0.178,-0.051 0.257,-0.077 l -0.079,0.77 c -0.642,5.009 -1.874,11.533 -3.672,19.573 -7.989,0.849 -15.593,1.337 -22.786,1.492 0,-1.825 -0.102,-6.782 -0.307,-14.875 -1.001,-0.332 -1.644,-0.101 -1.926,0.669 l 0.23,-4.213 z"
         id="path16026"
         style="fill:#5390cd" />
      <path
         d="m 147.591,219.695 c 0.282,-0.77 0.925,-1.001 1.926,-0.667 0.205,8.091 0.307,13.048 0.307,14.873 l -0.024,4.496 c 3.288,0.512 7.886,0.512 13.793,0.024 l 7.861,-0.926 c 0.333,-1.359 0.719,-3.055 1.156,-5.086 1.798,-8.04 3.03,-14.564 3.672,-19.573 l 0.079,-0.77 c -0.079,0.026 -0.181,0.051 -0.257,0.077 l 0.486,-2.106 c 0.027,-0.026 0.027,-0.026 0.027,0 0.181,0.025 0.36,0.077 0.539,0.154 0.437,0.181 0.745,0.463 0.976,0.874 0.232,0.384 0.334,0.821 0.257,1.283 l -0.076,0.771 c -0.642,5.009 -1.876,11.534 -3.674,19.6 -0.026,0.103 -0.051,0.206 -0.077,0.308 -0.437,1.978 -0.796,3.622 -1.104,4.956 -0.102,0.414 -0.309,0.772 -0.643,1.054 -0.333,0.283 -0.694,0.437 -1.131,0.515 l -7.86,0.925 c -0.026,-0.027 -0.05,-0.027 -0.077,0 -6.112,0.513 -10.865,0.487 -14.282,-0.051 -0.488,-0.079 -0.898,-0.309 -1.232,-0.695 -0.18,-0.231 -0.335,-0.488 -0.412,-0.771 l -0.23,-19.265 z"
         id="path16028"
         style="fill:#003c90" />
      <path
         d="m 171.454,237.495 -7.861,0.926 c -5.907,0.488 -10.505,0.488 -13.793,-0.024 l 0.024,-4.496 c 7.193,-0.155 14.797,-0.643 22.786,-1.492 -0.437,2.031 -0.823,3.727 -1.156,5.086"
         id="path16030"
         style="fill:#a4c6e9" />
      <path
         d="m 150.227,215.482 c 0.075,-0.026 0.128,-0.026 0.205,0 v -1.877 l -0.077,-0.178 v 0.178 c -0.026,0.489 -0.053,0.951 -0.077,1.441 -0.025,0.129 -0.025,0.282 -0.051,0.436"
         id="path16032"
         style="fill:#003c90" />
      <path
         d="m 150.432,215.482 c -0.077,-0.026 -0.13,-0.026 -0.205,0 0.026,-0.154 0.026,-0.307 0.051,-0.436 0.024,-0.49 0.051,-0.952 0.077,-1.441 v -0.178 c -0.746,-0.565 -1.49,-1.104 -2.235,-1.618 -8.169,-5.419 -16.748,-6.089 -25.764,-2.004 -0.334,0.129 -0.566,0.206 -0.642,0.232 -0.025,-0.026 -0.025,-0.026 -0.051,0 l 0.488,2.106 c -0.079,-0.026 -0.18,-0.051 -0.257,-0.077 l 0.077,0.77 c 0.641,5.009 1.874,11.533 3.672,19.573 7.989,0.849 15.593,1.337 22.785,1.492 0,-1.825 0.103,-6.782 0.308,-14.875 1.002,-0.332 1.645,-0.101 1.927,0.669 l -0.231,-4.213 z"
         id="path16034"
         style="fill:#5390cd" />
      <path
         d="m 150.663,219.695 c -0.282,-0.77 -0.925,-1.001 -1.927,-0.667 -0.205,8.091 -0.308,13.048 -0.308,14.873 l 0.026,4.496 c -3.288,0.512 -7.885,0.512 -13.794,0.024 l -7.86,-0.926 c -0.334,-1.359 -0.72,-3.055 -1.157,-5.086 -1.798,-8.04 -3.031,-14.564 -3.672,-19.573 l -0.077,-0.77 c 0.077,0.026 0.178,0.051 0.257,0.077 l -0.488,-2.106 c -0.026,-0.026 -0.026,-0.026 -0.026,0 -0.18,0.025 -0.36,0.077 -0.54,0.154 -0.437,0.181 -0.745,0.463 -0.976,0.874 -0.231,0.384 -0.333,0.821 -0.257,1.283 l 0.078,0.771 c 0.642,5.009 1.874,11.534 3.672,19.6 0.026,0.103 0.052,0.206 0.078,0.308 0.437,1.978 0.795,3.622 1.104,4.956 0.103,0.414 0.309,0.772 0.643,1.054 0.334,0.283 0.693,0.437 1.13,0.515 l 7.859,0.925 c 0.027,-0.027 0.052,-0.027 0.078,0 6.114,0.513 10.865,0.487 14.282,-0.051 0.488,-0.079 0.9,-0.309 1.233,-0.695 0.18,-0.231 0.334,-0.488 0.411,-0.771 l 0.231,-19.265 z"
         id="path16036"
         style="fill:#003c90" />
      <path
         d="m 126.8,237.495 7.86,0.926 c 5.909,0.488 10.506,0.488 13.794,-0.024 l -0.026,-4.496 c -7.192,-0.155 -14.796,-0.643 -22.785,-1.492 0.437,2.031 0.823,3.727 1.157,5.086"
         id="path16038"
         style="fill:#a4c6e9" />
      <path
         d="m 172.928,229.299 c 0.135,-0.694 0.27,-1.387 0.406,-2.08 1.059,-5.781 1.78,-10.559 2.209,-14.358 l 0.089,-0.772 c -2.862,0.848 -6.064,1.541 -9.604,2.106 -5.434,0.849 -11.094,1.284 -16.978,1.31 h -0.044 c -5.887,-0.026 -11.546,-0.461 -16.978,-1.31 -3.54,-0.565 -6.742,-1.258 -9.606,-2.106 l 0.068,0.772 c 0.428,3.877 1.172,8.656 2.232,14.358 0.112,0.693 0.247,1.386 0.384,2.08 h 47.822 z"
         id="path16040"
         style="fill:#5390cd" />
      <path
         d="m 151.343,222.082 c -0.137,0.232 -0.181,0.489 -0.137,0.772 0.294,1.54 0.158,3.032 -0.383,4.442 -0.451,1.158 -1.082,1.876 -1.893,2.108 -0.068,0.718 -0.158,1.413 -0.272,2.08 v 0.025 h 0.046 c 1.691,-0.077 2.932,-1.206 3.766,-3.39 0.698,-1.824 0.856,-3.725 0.496,-5.677 -0.045,-0.283 -0.181,-0.489 -0.384,-0.642 -0.202,-0.155 -0.429,-0.205 -0.676,-0.155 -0.249,0.052 -0.428,0.208 -0.563,0.437"
         id="path16042"
         style="fill:#003c90" />
      <path
         d="m 176.1,212.589 c 2.638,-15.113 1.763,-31.46 -2.577,-49.038 l 0.102,-5.109 -43.654,-0.554 -0.732,4.676 c -6.263,16.853 -9.038,32.706 -8.333,47.609 5.422,1.817 11.699,3.102 18.829,3.853 11.673,1.224 23.802,0.745 36.365,-1.437"
         id="path16044"
         style="fill:#003c90" />
      <path
         d="m 176.1,212.589 c -12.563,2.182 -24.691,2.661 -36.365,1.437 -7.13,-0.751 -13.407,-2.036 -18.829,-3.853 -0.705,-14.903 2.07,-30.756 8.333,-47.609 l 0.732,-4.676 43.654,0.554 -0.101,5.109 c 4.339,17.578 5.214,33.925 2.576,49.038 z"
         id="path16046"
         style="fill:none;stroke:#003c90;stroke-width:4.10900021;stroke-linecap:round;stroke-linejoin:round;stroke-miterlimit:10" />
      <path
         d="m 176.1,212.589 c 0.544,-3.115 0.925,-6.287 1.169,-9.514 -13.09,1.598 -25.208,2.283 -36.377,2.026 -7.612,-0.178 -14.305,-0.757 -20.062,-1.74 -0.04,2.568 -0.014,4.829 0.076,6.812 5.422,1.817 11.699,3.102 18.829,3.853 11.673,1.224 23.802,0.745 36.365,-1.437"
         id="path16048"
         style="fill:#fedb00" />
      <path
         d="m 175.439,172.485 c -0.543,-3.025 -1.165,-5.875 -1.824,-8.52 -9.81,0.898 -19.025,1.253 -27.618,1.039 -6.3,-0.155 -12.015,-0.622 -17.153,-1.35 -1.072,2.967 -2.051,5.911 -2.908,8.808 5.46,0.842 11.644,1.328 18.529,1.477 9.603,0.201 19.928,-0.293 30.974,-1.454"
         id="path16050"
         style="fill:#fedb00" />
      <path
         d="m 173.615,163.965 -0.092,-0.414 0.102,-5.109 -43.654,-0.554 -0.732,4.676 -0.395,1.09 c 5.138,0.728 10.853,1.195 17.153,1.35 8.593,0.214 17.808,-0.141 27.618,-1.039"
         id="path16052"
         style="fill:#e83827" />
      <path
         d="m 177.571,193.168 c -0.061,-3.599 -0.27,-7.076 -0.652,-10.403 -12.422,1.418 -23.921,1.946 -34.525,1.633 -7.232,-0.215 -13.599,-0.809 -19.075,-1.756 -0.759,3.594 -1.356,7.223 -1.792,10.879 5.828,0.959 12.546,1.541 20.111,1.691 11.055,0.226 23.033,-0.464 35.933,-2.044"
         id="path16054"
         style="fill:#ffffff" />
      <path
         d="m 176.919,182.765 c -0.348,-3.507 -0.841,-6.942 -1.48,-10.28 -11.046,1.161 -21.371,1.655 -30.974,1.454 -6.885,-0.149 -13.069,-0.635 -18.529,-1.477 -0.975,3.278 -1.862,6.662 -2.617,10.18 5.476,0.947 11.843,1.541 19.075,1.756 10.604,0.313 22.103,-0.215 34.525,-1.633"
         id="path16056"
         style="fill:#0076bf" />
      <path
         d="m 177.269,203.075 c 0.239,-3.127 0.348,-6.437 0.302,-9.907 -12.9,1.58 -24.878,2.271 -35.933,2.044 -7.565,-0.15 -14.283,-0.732 -20.111,-1.691 -0.381,3.171 -0.607,6.452 -0.697,9.84 5.757,0.983 12.45,1.562 20.062,1.74 11.169,0.257 23.287,-0.428 36.377,-2.026"
         id="path16058"
         style="fill:#e83827" />
      <path
         d="m 149.117,202.027 c 0.003,-0.025 0.003,-0.025 -0.023,-0.028 -1.326,-1.097 -2.704,-1.506 -4.129,-1.281 l -0.025,-0.002 c -0.316,0.106 -0.553,0.19 -0.738,0.279 -0.506,0.245 -1.014,0.541 -1.503,0.913 -0.352,0.256 -0.767,0.659 -1.191,1.192 -0.333,0.358 -0.645,0.771 -0.933,1.184 -0.284,0.389 -0.803,1.171 -1.581,2.342 -0.376,0.562 -0.695,1.074 -1.01,1.513 -0.32,-0.153 -0.614,-0.329 -0.911,-0.478 -0.395,-0.208 -0.786,-0.443 -1.178,-0.676 l -0.026,-0.003 c -0.525,0.5 -1.048,0.999 -1.572,1.497 l 0.048,0.053 c 0.808,0.497 1.618,0.967 2.432,1.387 0.568,0.272 1.113,0.542 1.685,0.764 l 0.199,0.067 c 0.156,-0.373 0.361,-0.717 0.563,-1.034 0.204,-0.318 0.435,-0.659 0.64,-1.027 0.179,-0.321 0.357,-0.665 0.56,-0.984 0.203,-0.319 0.407,-0.635 0.609,-0.953 0.205,-0.344 0.408,-0.661 0.586,-0.982 0.228,-0.315 0.456,-0.63 0.708,-0.92 0.249,-0.262 0.499,-0.501 0.748,-0.763 0.137,-0.118 0.272,-0.236 0.41,-0.355 0.275,-0.261 0.573,-0.47 0.918,-0.622 0.185,-0.088 0.344,-0.154 0.501,-0.193 0.001,-0.025 0.001,-0.025 0.026,-0.023 0.966,-0.236 1.894,0.011 2.814,0.744 l 0.024,0.002 -0.001,0.027 c -0.002,0.025 -0.002,0.025 0.023,0.027 0.336,0.308 0.586,0.735 0.727,1.258 0.098,0.392 0.14,0.855 0.126,1.392 -0.001,0.026 -0.001,0.026 -0.029,0.049 0.003,0.307 -0.023,0.64 -0.073,0.993 -0.047,0.28 -0.117,0.53 -0.214,0.804 0.022,0.027 0.022,0.027 0.022,0.053 -0.01,0.127 0.038,0.516 0.118,1.162 0.074,0.39 0.166,0.857 0.278,1.429 -0.028,0.023 -0.029,0.05 -0.006,0.076 0.025,0.002 0.052,0.004 0.076,0.006 0.026,0.002 0.051,0.004 0.077,0.006 0.319,-0.157 0.583,-0.265 0.794,-0.352 0.027,-0.023 0.079,-0.02 0.105,-0.042 0.029,-0.025 0.052,-0.023 0.077,0.004 l 0.026,0.003 c 0.653,0.177 1.029,0.282 1.129,0.314 l 0.025,0.002 c 1.678,0.509 2.988,1.145 3.956,1.907 0.002,-0.024 0.002,-0.024 0.027,-0.023 0.916,0.759 1.491,1.648 1.752,2.615 l 2.215,0.164 c -0.205,-1.705 -1.095,-3.181 -2.641,-4.421 -1.135,-0.93 -2.692,-1.686 -4.669,-2.293 l -0.052,-0.005 c -0.1,-0.034 -0.451,-0.11 -1.028,-0.282 -0.026,-0.002 -0.074,-0.028 -0.099,-0.057 l -0.023,-0.027 c 0.001,-0.027 0.001,-0.027 0.003,-0.051 l 0.027,0.002 c 0.152,-0.681 0.224,-1.316 0.247,-1.954 l -0.024,-0.027 c 0.075,-2.044 -0.457,-3.492 -1.622,-4.372"
         id="path16060"
         style="fill:#e83434" />
      <path
         d="m 158.998,215.514 -2.215,-0.164 c 0.056,0.286 0.109,0.597 0.112,0.904 -0.002,0.028 -0.002,0.028 0.024,0.028 0.038,0.515 -0.053,1.046 -0.246,1.569 -0.131,0.401 -0.311,0.745 -0.511,1.037 -0.026,-0.002 -0.026,-0.002 -0.028,0.023 -0.311,0.388 -0.641,0.696 -1.014,0.9 l -0.054,0.02 c -0.266,0.134 -0.552,0.216 -0.89,0.267 -0.078,0.019 -0.154,0.014 -0.232,0.034 l -0.027,-0.002 c -0.489,0.04 -1.285,0.083 -2.342,0.158 -0.025,-0.001 -0.025,-0.001 -0.049,-0.003 -0.747,0.048 -1.748,0.074 -3.003,0.084 -0.359,0 -0.743,-0.004 -1.153,-0.01 -0.026,0 -0.049,-0.003 -0.076,-0.006 -0.027,0.025 -0.057,0.073 -0.033,0.101 -0.027,0.024 -0.028,0.05 -0.031,0.075 0.025,0.027 0.049,0.029 0.073,0.058 0.632,0.456 1.097,0.745 1.394,0.871 0.075,0.03 0.127,0.034 0.201,0.066 l 0.023,0.027 c 0.806,0.163 1.487,0.315 2.068,0.435 0.252,0.045 0.507,0.064 0.734,0.106 l 0.026,0.002 c 0.227,0.042 0.455,0.085 0.71,0.104 0.025,0.002 0.025,0.002 0.048,0.029 l -0.001,0.026 c 0.022,0.027 0.022,0.027 0.046,0.054 l -0.002,0.025 c -0.002,0.027 -0.002,0.027 -0.028,0.05 l -0.002,0.025 c -0.057,0.072 -0.114,0.147 -0.145,0.22 h -0.026 c -0.027,0.022 -0.03,0.047 -0.03,0.074 -0.026,-0.002 -0.026,-0.002 -0.028,0.023 l 0.002,-0.025 c -0.31,0.386 -0.642,0.719 -0.995,0.975 -0.406,0.302 -0.834,0.552 -1.283,0.725 -0.45,0.197 -0.919,0.314 -1.41,0.381 -0.338,0.052 -0.67,0.053 -1.002,0.027 -0.384,-0.002 -0.845,-0.011 -1.327,-0.047 -0.539,-0.014 -1.095,-0.081 -1.706,-0.152 -0.025,-0.003 -0.051,-0.004 -0.075,-0.006 -0.028,0.022 -0.055,0.022 -0.055,0.046 -0.03,0.051 -0.032,0.076 -0.009,0.103 -0.001,0.026 0.023,0.052 0.049,0.055 0.484,0.369 0.823,0.624 1.018,0.767 0.049,0.029 0.097,0.058 0.123,0.06 l -0.001,0.027 c 0.024,0.001 0.047,0.029 0.072,0.056 l -0.002,0.025 c -0.001,0.025 -0.004,0.05 -0.032,0.075 -10e-4,0.024 -0.028,0.047 -0.056,0.073 -0.103,0.017 -0.209,0.061 -0.313,0.078 l -0.075,-0.005 c -0.86,0.192 -1.834,0.196 -2.869,-0.01 -0.529,-0.115 -1.055,-0.257 -1.604,-0.451 -0.525,-0.193 -1.069,-0.438 -1.637,-0.712 -0.766,-0.388 -1.476,-0.825 -2.158,-1.313 -0.292,-0.199 -0.581,-0.425 -0.873,-0.653 0.001,-0.025 0.001,-0.025 -0.022,-0.052 -0.266,-0.2 -0.504,-0.422 -0.744,-0.67 -0.449,-0.494 -0.842,-1.062 -1.182,-1.675 -0.065,-0.135 -0.131,-0.292 -0.196,-0.451 -0.153,-0.343 -0.279,-0.712 -0.43,-1.108 -0.099,-0.392 -0.199,-0.757 -0.299,-1.124 -0.1,-0.39 -0.15,-0.753 -0.095,-1.132 0,-0.359 0.026,-0.716 0.077,-1.044 l -0.397,-0.183 c -0.466,-0.266 -0.91,-0.505 -1.376,-0.768 -0.124,-0.062 -0.273,-0.124 -0.395,-0.209 -0.073,-0.057 -0.171,-0.115 -0.245,-0.147 -0.232,0.7 -0.387,1.431 -0.468,2.168 0.049,0.027 0.1,0.034 0.149,0.062 l 0.592,0.299 c -0.006,0.077 0.005,0.283 0.009,0.566 0.005,0.281 0.031,0.616 0.107,0.955 0.079,0.338 0.154,0.702 0.258,1.043 0.101,0.34 0.183,0.628 0.267,0.865 0.667,1.714 1.664,3.12 3.015,4.22 1.088,0.874 2.211,1.623 3.42,2.224 1.308,0.661 2.555,1.112 3.764,1.382 0.026,0.002 0.026,0.002 0.051,0.003 0.151,0.038 0.304,0.049 0.43,0.084 0.962,0.148 1.856,0.164 2.685,0.046 0.236,-0.058 0.468,-0.093 0.703,-0.153 l 0.026,0.002 c 1.068,-0.253 1.971,-0.698 2.766,-1.381 0.002,-0.027 0.002,-0.027 0.026,-0.023 0.026,0 0.051,0.002 0.079,-0.021 0.432,0.032 0.817,0.035 1.205,-0.013 l 0.05,0.004 c 1.477,-0.224 2.846,-1.094 4.114,-2.613 0.196,-0.242 0.428,-0.61 0.748,-1.123 0.148,-0.27 0.295,-0.515 0.388,-0.74 0.028,-0.022 0.028,-0.022 0.055,-0.047 0.025,0.003 0.028,-0.023 0.028,-0.049 l 0.024,0.028 c 0.291,-0.107 0.554,-0.214 0.818,-0.324 0.025,0.002 0.025,0.002 0.028,-0.024 l 0.025,0.003 c 0.561,-0.318 1.135,-0.786 1.695,-1.437 0.367,-0.459 0.667,-1.051 0.898,-1.752 l 0.004,-0.049 c 0.233,-0.725 0.34,-1.486 0.321,-2.255 l 0.001,-0.028 c -0.006,-0.229 -0.019,-0.436 -0.052,-0.668"
         id="path16062"
         style="fill:#e83434" />
      <path
         d="m 144.93,202.894 c -0.025,-0.002 -0.025,-0.002 -0.026,0.023 -0.158,0.039 -0.316,0.105 -0.501,0.193 -0.345,0.152 -0.643,0.361 -0.918,0.622 -0.138,0.119 -0.273,0.237 -0.41,0.355 -0.249,0.262 -0.499,0.501 -0.748,0.763 -0.252,0.29 -0.48,0.605 -0.708,0.92 -0.178,0.321 -0.381,0.638 -0.586,0.982 -0.202,0.318 -0.406,0.634 -0.609,0.953 -0.203,0.319 -0.381,0.663 -0.56,0.984 -0.205,0.368 -0.436,0.709 -0.64,1.027 -0.202,0.317 -0.407,0.661 -0.563,1.034 l -0.199,-0.067 c -0.572,-0.222 -1.117,-0.492 -1.685,-0.764 -0.814,-0.42 -1.624,-0.89 -2.432,-1.387 -0.024,-0.025 -0.024,-0.025 -0.049,-0.028 -0.054,0.023 -0.108,0.069 -0.137,0.118 -1.638,1.698 -2.774,3.558 -3.39,5.638 0.074,0.032 0.172,0.09 0.245,0.147 0.121,0.085 0.271,0.147 0.395,0.209 0.466,0.265 0.91,0.502 1.376,0.768 l 0.397,0.183 c -0.051,0.328 -0.077,0.685 -0.079,1.044 -0.053,0.379 -0.003,0.742 0.096,1.133 0.101,0.366 0.201,0.733 0.3,1.123 0.151,0.396 0.277,0.765 0.43,1.108 0.065,0.159 0.131,0.317 0.196,0.451 0.34,0.613 0.733,1.181 1.182,1.675 0.24,0.248 0.478,0.47 0.744,0.67 0.023,0.027 0.023,0.027 0.022,0.052 0.292,0.228 0.581,0.454 0.873,0.653 0.682,0.488 1.392,0.925 2.158,1.313 0.568,0.274 1.112,0.519 1.637,0.712 0.549,0.194 1.075,0.336 1.604,0.451 1.035,0.206 2.009,0.202 2.869,0.01 l 0.075,0.005 c 0.104,-0.017 0.21,-0.061 0.313,-0.078 0.028,-0.024 0.055,-0.049 0.056,-0.073 0.028,-0.025 0.029,-0.05 0.032,-0.075 l 0.002,-0.025 c -0.025,-0.027 -0.048,-0.055 -0.072,-0.056 l 0.001,-0.027 c -0.026,-0.002 -0.074,-0.031 -0.123,-0.06 -0.195,-0.143 -0.534,-0.398 -1.018,-0.767 -0.026,-0.003 -0.05,-0.029 -0.049,-0.055 -0.023,-0.027 -0.021,-0.052 0.009,-0.103 0,-0.024 0.027,-0.023 0.054,-0.046 0.025,0.002 0.051,0.004 0.076,0.006 0.611,0.071 1.167,0.138 1.706,0.152 0.482,0.036 0.943,0.045 1.327,0.047 0.332,0.026 0.664,0.025 1.002,-0.027 0.491,-0.067 0.96,-0.184 1.41,-0.381 0.449,-0.173 0.877,-0.423 1.283,-0.725 0.353,-0.256 0.684,-0.589 0.994,-0.975 l 0.027,0.002 c 0,-0.027 0.003,-0.052 0.03,-0.074 l 0.026,0.002 c 0.031,-0.075 0.088,-0.15 0.145,-0.222 l 0.002,-0.025 c 0.026,-0.023 0.026,-0.023 0.028,-0.05 l 0.002,-0.025 c -0.024,-0.027 -0.024,-0.027 -0.046,-0.054 l 0.001,-0.026 c -0.023,-0.027 -0.023,-0.027 -0.048,-0.029 -0.255,-0.019 -0.483,-0.062 -0.71,-0.104 l -0.026,-0.002 c -0.227,-0.042 -0.482,-0.061 -0.734,-0.106 -0.581,-0.12 -1.262,-0.272 -2.069,-0.435 l -0.022,-0.027 c -0.074,-0.032 -0.126,-0.036 -0.201,-0.066 -0.297,-0.126 -0.762,-0.415 -1.394,-0.871 -0.024,-0.029 -0.05,-0.031 -0.073,-0.058 0.003,-0.025 0.004,-0.051 0.031,-0.075 -0.024,-0.028 0.006,-0.076 0.033,-0.101 0.027,0.003 0.05,0.006 0.076,0.006 0.41,0.006 0.794,0.01 1.153,0.011 1.255,-0.011 2.256,-0.037 3.002,-0.085 0.025,0.002 0.025,0.002 0.05,0.003 1.057,-0.075 1.853,-0.117 2.342,-0.158 l 0.027,0.002 c 0.078,-0.02 0.153,-0.014 0.232,-0.034 0.338,-0.051 0.624,-0.132 0.89,-0.266 l 0.027,-0.025 0.026,0.004 c 0.374,-0.204 0.704,-0.512 1.015,-0.9 0.001,-0.025 0.001,-0.025 0.028,-0.023 0.2,-0.292 0.38,-0.636 0.511,-1.037 0.193,-0.523 0.284,-1.054 0.246,-1.569 -0.026,0 -0.026,0 -0.024,-0.027 -0.055,-1.336 -0.684,-2.51 -1.864,-3.52 -0.025,-0.001 -0.025,-0.001 -0.027,0.023 -0.968,-0.762 -2.278,-1.398 -3.956,-1.907 l -0.025,-0.002 c -0.1,-0.032 -0.476,-0.137 -1.129,-0.314 l -0.026,-0.003 c -0.025,-0.027 -0.049,-0.029 -0.077,-0.004 -0.026,0.022 -0.078,0.019 -0.105,0.042 -0.211,0.087 -0.475,0.195 -0.794,0.352 -0.026,-0.002 -0.051,-0.004 -0.077,-0.006 -0.024,-0.002 -0.051,-0.004 -0.076,-0.006 -0.023,-0.026 -0.022,-0.053 0.006,-0.076 -0.112,-0.572 -0.204,-1.039 -0.278,-1.429 -0.08,-0.646 -0.128,-1.035 -0.118,-1.162 0,-0.026 0,-0.026 -0.022,-0.053 0.097,-0.274 0.167,-0.524 0.214,-0.804 0.05,-0.353 0.076,-0.686 0.073,-0.993 0.028,-0.023 0.028,-0.023 0.029,-0.049 0.014,-0.537 -0.028,-1 -0.126,-1.392 -0.141,-0.523 -0.391,-0.95 -0.727,-1.258 -0.025,-0.002 -0.025,-0.002 -0.023,-0.027 l 0.001,-0.027 -0.024,-0.002 c -0.92,-0.733 -1.848,-0.98 -2.814,-0.744 m 3.809,8.708 c 0.023,0.028 0.023,0.028 -0.003,0.051 0.001,-0.025 0.001,-0.025 -0.022,-0.053 l 0.025,0.002 z"
         id="path16064"
         style="fill:#f49c00" />
      <path
         d="m 148.736,211.653 c 0.026,-0.023 0.026,-0.023 0.003,-0.051 l -0.025,-0.002 c 0.023,0.028 0.023,0.028 0.022,0.053"
         id="path16066"
         style="fill:#9e0c28" />
      <path
         d="m 134.297,208.479 -0.001,0.025 c 0.025,0.003 0.025,0.003 0.049,0.028 l -0.048,-0.053 z"
         id="path16068"
         style="fill:#9e0c28" />
      <polygon
         points="155.093,219.807 155.066,219.831 155.12,219.811 "
         id="polygon16070"
         style="fill:#9e0c28" />
      <path
         d="m 152.319,222.701 -0.027,-0.002 -0.001,0.025 c 0.001,-0.025 0.001,-0.025 0.028,-0.023"
         id="path16072"
         style="fill:#e83827" />
      <path
         d="m 132.866,168.834 c -0.26,0.057 -0.518,0.09 -0.753,0.149 -5.605,1.323 -10.229,4.283 -13.902,8.903 -0.454,0.605 -0.91,1.211 -1.339,1.82 -3.994,5.848 -5.666,12.151 -5.07,18.93 0.112,0.907 0.226,1.785 0.368,2.64 0.964,5.629 3.35,10.391 7.183,14.285 0.119,0.139 0.263,0.25 0.384,0.363 1.937,1.834 5.121,3.786 9.528,5.83 0.246,0.122 0.502,0.14 0.74,0.029 0.234,-0.06 0.4,-0.226 0.546,-0.471 l 8.561,-15.599 c 0.09,-0.173 0.129,-0.349 0.117,-0.53 -0.013,-0.18 -0.075,-0.364 -0.194,-0.5 -0.089,-0.16 -0.208,-0.297 -0.381,-0.387 -1.637,-0.712 -2.994,-1.735 -4.05,-3.041 -0.776,-0.929 -1.388,-1.998 -1.861,-3.213 -0.191,-0.525 -0.331,-1.048 -0.469,-1.595 -0.215,-0.914 -0.298,-1.867 -0.252,-2.811 0.094,-0.94 0.312,-1.795 0.625,-2.565 0.153,-0.347 0.308,-0.696 0.484,-1.015 0.797,-1.4 1.81,-2.631 3.014,-3.667 1.291,-1.159 2.667,-2.108 4.108,-2.896 0.294,-0.158 0.56,-0.292 0.852,-0.449 0.028,-0.023 0.054,-0.021 0.079,-0.021 0.028,-0.022 0.057,-0.072 0.084,-0.095 0.087,-0.122 0.172,-0.243 0.207,-0.369 0.095,-0.249 0.061,-0.483 -0.05,-0.72 -0.106,-0.29 -0.296,-0.483 -0.57,-0.581 -0.251,-0.095 -0.506,-0.088 -0.77,0.02 -0.081,0.045 -0.186,0.087 -0.293,0.157 -0.882,0.473 -1.765,0.996 -2.602,1.573 -1.293,0.852 -2.468,1.84 -3.552,2.988 -1.027,1.077 -1.908,2.266 -2.646,3.569 -0.494,1.142 -0.82,2.422 -0.979,3.87 -0.003,0.025 -0.004,0.052 -0.006,0.076 -0.034,1.15 0.062,2.285 0.285,3.402 0.158,0.627 0.342,1.255 0.552,1.86 0.582,1.477 1.331,2.787 2.296,3.91 1.01,1.226 2.217,2.213 3.671,2.986 l -7.583,13.829 c -3.661,-1.733 -6.355,-3.392 -8.055,-4.979 -0.119,-0.136 -0.213,-0.245 -0.332,-0.382 -3.571,-3.62 -5.801,-8.063 -6.716,-13.33 -0.123,-0.752 -0.243,-1.555 -0.311,-2.353 -0.582,-6.291 1.007,-12.166 4.741,-17.6 0.372,-0.56 0.77,-1.068 1.166,-1.576 0.475,-0.529 0.924,-1.06 1.397,-1.562 0.917,-0.981 1.931,-1.879 3.016,-2.694 1.329,-1.004 2.748,-1.819 4.233,-2.503 1.536,-0.68 3.114,-1.254 4.734,-1.672 0.076,0.006 0.127,0.009 0.179,-0.012 0.287,-0.054 0.503,-0.217 0.648,-0.437 0.146,-0.245 0.192,-0.498 0.135,-0.785 -0.058,-0.26 -0.221,-0.477 -0.438,-0.645 -0.22,-0.146 -0.472,-0.19 -0.759,-0.134"
         id="path16074"
         style="fill:#003c90" />
      <path
         d="m 136.802,175.143 c -0.623,-0.917 -1.494,-1.954 -2.609,-3.138 -0.356,-0.385 -0.737,-0.772 -1.092,-1.158 -1.619,0.418 -3.198,0.992 -4.734,1.672 -1.485,0.684 -2.903,1.499 -4.231,2.503 -1.087,0.815 -2.101,1.713 -3.018,2.694 -0.473,0.502 -0.922,1.033 -1.397,1.562 l 11.271,10.287 c 0.738,-1.303 1.619,-2.492 2.646,-3.569 1.084,-1.148 2.259,-2.136 3.552,-2.988 0.837,-0.577 1.72,-1.1 2.602,-1.573 -0.493,-1.29 -0.948,-2.426 -1.384,-3.431 -0.464,-1.009 -0.981,-1.968 -1.606,-2.861 z"
         id="path16076"
         style="fill:#ffffff" />
      <path
         d="m 136.811,205.669 c -1.453,-0.773 -2.661,-1.76 -3.671,-2.986 l -11.967,11.836 c 1.7,1.587 4.394,3.246 8.055,4.979 l 7.583,-13.829 z"
         id="path16078"
         style="fill:#e83827" />
      <path
         d="m 119.721,179.278 c -0.396,0.508 -0.793,1.016 -1.166,1.576 -3.734,5.434 -5.322,11.309 -4.741,17.6 0.068,0.798 0.188,1.601 0.311,2.353 l 16.167,-3.894 c -0.223,-1.117 -0.319,-2.252 -0.285,-3.402 0.002,-0.024 0.003,-0.051 0.006,-0.076 0.159,-1.448 0.485,-2.728 0.979,-3.87 l -11.271,-10.287 z"
         id="path16080"
         style="fill:#0076bf" />
      <path
         d="m 130.844,198.773 c -0.21,-0.605 -0.394,-1.233 -0.552,-1.86 l -16.167,3.894 c 0.915,5.267 3.145,9.71 6.717,13.33 0.118,0.137 0.212,0.246 0.331,0.382 l 11.967,-11.836 c -0.965,-1.123 -1.714,-2.433 -2.296,-3.91"
         id="path16082"
         style="fill:#fedb00" />
      <path
         d="m 176.273,168.647 c 0.031,-1.624 -0.499,-3.099 -1.551,-4.483 -0.744,-0.971 -3.871,-0.182 -9.334,2.34 -2.925,1.417 -5.039,2.435 -6.34,3.053 -2.254,1.055 -3.793,1.693 -4.64,1.888 -1.999,0.494 -4.39,0.762 -7.125,0.853 -2.877,0.099 -5.245,-0.072 -7.08,-0.492 -0.386,-0.1 -3.222,-1.005 -8.487,-2.774 -3.688,-1.226 -5.882,-1.694 -6.558,-1.434 l -0.022,0.028 c -0.366,0.312 -0.599,1.282 -0.702,2.913 -0.088,1.475 -0.075,2.606 0.065,3.418 0.107,0.636 0.527,1.375 1.242,2.27 1.048,1.334 2.467,2.456 4.305,3.417 5.466,2.858 13.398,3.695 23.818,2.503 2.037,-0.239 5.618,-1.425 10.766,-3.613 5.382,-2.283 8.689,-4.115 9.903,-5.474 1.144,-1.3 1.71,-2.762 1.74,-4.413"
         id="path16084"
         style="fill:#e83827" />
      <path
         d="m 176.273,168.647 c -0.03,1.651 -0.596,3.113 -1.74,4.413 -1.214,1.359 -4.521,3.191 -9.903,5.474 -5.148,2.188 -8.729,3.374 -10.766,3.613 -10.42,1.192 -18.352,0.355 -23.818,-2.503 -1.838,-0.961 -3.257,-2.083 -4.305,-3.417 -0.715,-0.895 -1.135,-1.634 -1.242,-2.27 -0.14,-0.812 -0.153,-1.943 -0.065,-3.418 0.101,-1.655 0.335,-2.626 0.724,-2.941 0.676,-0.26 2.87,0.208 6.558,1.434 5.265,1.769 8.101,2.674 8.487,2.774 1.835,0.42 4.203,0.591 7.08,0.492 2.735,-0.091 5.126,-0.359 7.125,-0.853 0.847,-0.195 2.386,-0.833 4.64,-1.888 1.301,-0.618 3.415,-1.636 6.34,-3.053 5.463,-2.522 8.59,-3.311 9.334,-2.34 1.052,1.384 1.582,2.859 1.551,4.483 z"
         id="path16086"
         style="fill:none;stroke:#e83927;stroke-width:4.00500011;stroke-linecap:round;stroke-linejoin:round;stroke-miterlimit:10" />
      <path
         d="m 176.268,168.545 c 0.031,-1.623 -0.501,-3.101 -1.552,-4.485 -0.744,-0.97 -3.87,-0.18 -9.334,2.34 -2.925,1.418 -5.039,2.436 -6.338,3.054 -2.256,1.055 -3.794,1.693 -4.641,1.89 -1.999,0.494 -4.391,0.762 -7.127,0.851 -2.876,0.101 -5.246,-0.072 -7.078,-0.493 -0.385,-0.097 -3.223,-1.004 -8.489,-2.773 -3.686,-1.225 -5.88,-1.694 -6.557,-1.434 l -0.022,0.027 c -0.364,0.312 -0.598,1.285 -0.701,2.914 -0.088,1.475 -0.074,2.606 0.064,3.419 0.105,0.635 0.527,1.373 1.243,2.269 1.048,1.334 2.466,2.456 4.306,3.416 5.467,2.861 13.398,3.696 23.817,2.505 2.036,-0.239 5.618,-1.424 10.766,-3.613 5.38,-2.282 8.69,-4.116 9.903,-5.475 1.145,-1.3 1.709,-2.761 1.74,-4.412"
         id="path16088"
         style="fill:#f9d300" />
      <path
         d="m 128.624,168.713 0.377,-0.084 c -0.159,0.143 -0.307,0.489 -0.42,1.039 -0.056,0.287 -0.155,0.656 -0.248,1.152 -0.235,0.92 -0.42,1.939 -0.55,3.056 -0.096,0.885 -0.108,1.553 -0.034,2.011 0.09,0.791 0.381,1.333 0.875,1.681 0.499,-0.89 0.822,-1.996 0.915,-3.368 0.047,-0.468 0.136,-1.015 0.267,-1.669 0.177,-0.735 0.312,-1.287 0.387,-1.678 0.26,-1.361 0.237,-2.233 -0.044,-2.598 -0.231,-0.315 -0.522,-0.395 -0.823,-0.243 -0.28,0.124 -0.506,0.35 -0.702,0.701"
         id="path16090"
         style="fill:#e83827" />
      <path
         d="m 138.952,171.571 c -0.232,-0.317 -0.499,-0.398 -0.823,-0.244 -0.279,0.125 -0.505,0.374 -0.675,0.723 l 0.35,-0.105 c -0.158,0.142 -0.307,0.488 -0.42,1.037 -0.056,0.289 -0.13,0.681 -0.224,1.152 -0.26,0.921 -0.444,1.94 -0.574,3.056 -0.095,0.911 -0.105,1.581 -0.033,2.038 0.09,0.789 0.381,1.333 0.875,1.654 0.5,-0.889 0.798,-1.995 0.916,-3.341 0.046,-0.468 0.134,-1.04 0.265,-1.696 0.176,-0.734 0.314,-1.286 0.387,-1.678 0.286,-1.336 0.263,-2.208 -0.044,-2.596"
         id="path16092"
         style="fill:#e83827" />
      <path
         d="m 160.784,169.496 0.383,0.02 c -0.232,-0.316 -0.48,-0.501 -0.77,-0.581 -0.315,-0.104 -0.595,0.022 -0.792,0.346 -0.239,0.431 -0.167,1.301 0.236,2.607 0.137,0.35 0.31,0.876 0.561,1.578 0.201,0.628 0.349,1.157 0.445,1.636 0.263,1.345 0.677,2.394 1.266,3.171 0.456,-0.398 0.686,-0.983 0.692,-1.781 0.021,-0.465 -0.061,-1.129 -0.25,-1.987 -0.223,-1.039 -0.515,-2.045 -0.875,-2.97 -0.144,-0.451 -0.283,-0.827 -0.369,-1.103 -0.169,-0.5 -0.355,-0.821 -0.527,-0.936"
         id="path16094"
         style="fill:#e83827" />
      <path
         d="m 171.739,172.073 c -0.003,-0.514 -0.086,-1.176 -0.273,-1.986 -0.254,-1.19 -0.545,-2.172 -0.874,-2.944 -0.145,-0.476 -0.258,-0.827 -0.344,-1.104 -0.171,-0.528 -0.355,-0.847 -0.551,-0.961 l 0.381,0.021 c -0.232,-0.315 -0.479,-0.502 -0.77,-0.582 -0.316,-0.103 -0.594,0.022 -0.791,0.372 -0.26,0.459 -0.167,1.301 0.259,2.58 0.116,0.377 0.312,0.902 0.563,1.604 0.2,0.626 0.348,1.155 0.444,1.611 0.239,1.32 0.653,2.393 1.267,3.194 0.43,-0.419 0.661,-1.006 0.689,-1.805"
         id="path16096"
         style="fill:#e83827" />
      <path
         d="m 151.058,172.047 0.365,0.126 c -0.164,-0.373 -0.368,-0.614 -0.613,-0.749 -0.318,-0.155 -0.601,-0.107 -0.851,0.145 -0.224,0.249 -0.345,0.646 -0.385,1.24 -0.009,0.284 0.014,0.722 0.073,1.36 0.044,0.382 0.122,0.942 0.232,1.68 0.084,0.661 0.114,1.226 0.094,1.717 -0.024,1.34 0.157,2.486 0.563,3.404 0.534,-0.274 0.887,-0.815 1.06,-1.577 0.095,-0.445 0.154,-1.119 0.153,-2.019 -0.013,-1.107 -0.09,-2.13 -0.262,-3.095 -0.026,-0.487 -0.071,-0.895 -0.111,-1.175 -0.053,-0.536 -0.167,-0.888 -0.318,-1.057"
         id="path16098"
         style="fill:#e83827" />
      <path
         d="m 149.117,202.027 c 0.003,-0.025 0.003,-0.025 -0.023,-0.028 -1.326,-1.097 -2.704,-1.506 -4.129,-1.281 l -0.025,-0.002 c -0.316,0.106 -0.553,0.19 -0.738,0.279 -0.506,0.245 -1.014,0.541 -1.503,0.913 -0.352,0.256 -0.767,0.659 -1.191,1.192 -0.333,0.358 -0.645,0.771 -0.933,1.184 -0.284,0.389 -0.803,1.171 -1.581,2.342 -0.345,0.511 -0.664,1 -0.925,1.416 -0.331,0.667 -0.638,1.335 -0.921,2.057 0.419,0.211 0.866,0.399 1.314,0.584 l 0.199,0.067 c 0.156,-0.373 0.361,-0.717 0.563,-1.034 0.204,-0.318 0.435,-0.659 0.64,-1.027 0.179,-0.321 0.357,-0.665 0.56,-0.984 0.203,-0.319 0.407,-0.635 0.609,-0.953 0.205,-0.344 0.408,-0.661 0.586,-0.982 0.228,-0.315 0.456,-0.63 0.708,-0.92 0.249,-0.262 0.499,-0.501 0.748,-0.763 0.137,-0.118 0.272,-0.236 0.41,-0.355 0.275,-0.261 0.573,-0.47 0.918,-0.622 0.185,-0.088 0.343,-0.154 0.501,-0.193 0.001,-0.025 0.001,-0.025 0.026,-0.023 0.966,-0.236 1.894,0.011 2.814,0.744 l 0.024,0.002 -0.001,0.027 c -0.002,0.025 -0.002,0.025 0.023,0.027 0.336,0.308 0.586,0.735 0.727,1.258 0.098,0.392 0.14,0.855 0.126,1.392 -0.001,0.026 -0.001,0.026 -0.029,0.049 0.003,0.307 -0.023,0.64 -0.073,0.993 -0.047,0.28 -0.117,0.53 -0.214,0.804 0.022,0.027 0.022,0.027 0.022,0.053 -0.01,0.127 0.038,0.516 0.118,1.162 0.074,0.39 0.166,0.857 0.278,1.429 -0.028,0.023 -0.029,0.05 -0.006,0.076 0.025,0.002 0.052,0.004 0.076,0.006 0.026,0.002 0.051,0.004 0.077,0.006 0.319,-0.157 0.583,-0.265 0.794,-0.352 0.027,-0.023 0.079,-0.02 0.105,-0.042 0.029,-0.025 0.052,-0.023 0.077,0.004 l 0.026,0.003 c 0.653,0.177 1.029,0.282 1.129,0.314 l 0.025,0.002 c 1.678,0.509 2.988,1.145 3.956,1.907 0.002,-0.024 0.002,-0.024 0.027,-0.023 0.916,0.759 1.491,1.648 1.752,2.615 l 2.215,0.164 c -0.205,-1.705 -1.095,-3.181 -2.641,-4.421 -1.135,-0.93 -2.692,-1.686 -4.669,-2.293 l -0.052,-0.005 c -0.1,-0.034 -0.451,-0.11 -1.028,-0.282 -0.026,-0.002 -0.074,-0.028 -0.099,-0.057 l -0.024,-0.027 c 0.002,-0.027 0.002,-0.027 0.004,-0.051 l 0.027,0.002 c 0.152,-0.681 0.224,-1.316 0.247,-1.954 l -0.024,-0.027 c 0.075,-2.044 -0.457,-3.492 -1.622,-4.372"
         id="path16100"
         style="fill:#e83434" />
      <path
         d="m 158.998,215.514 -2.215,-0.164 c 0.056,0.286 0.109,0.597 0.112,0.904 -0.002,0.028 -0.002,0.028 0.024,0.028 0.038,0.515 -0.053,1.046 -0.246,1.569 -0.131,0.401 -0.311,0.745 -0.511,1.037 -0.026,-0.002 -0.026,-0.002 -0.028,0.023 -0.311,0.388 -0.641,0.696 -1.014,0.9 l -0.054,0.02 c -0.266,0.134 -0.552,0.216 -0.89,0.267 -0.078,0.019 -0.154,0.014 -0.232,0.034 l -0.027,-0.002 c -0.489,0.04 -1.285,0.083 -2.342,0.158 -0.025,-0.001 -0.025,-0.001 -0.049,-0.003 -0.747,0.048 -1.748,0.074 -3.003,0.084 -0.359,0 -0.743,-0.004 -1.153,-0.01 -0.026,0 -0.049,-0.003 -0.076,-0.006 -0.027,0.025 -0.057,0.073 -0.033,0.101 -0.027,0.024 -0.028,0.05 -0.031,0.075 0.025,0.027 0.049,0.029 0.073,0.058 0.632,0.456 1.097,0.745 1.394,0.871 0.075,0.03 0.127,0.034 0.201,0.066 l 0.023,0.027 c 0.806,0.163 1.487,0.315 2.068,0.435 0.252,0.045 0.507,0.064 0.734,0.106 l 0.026,0.002 c 0.227,0.042 0.455,0.085 0.71,0.104 0.025,0.002 0.025,0.002 0.048,0.029 l -0.001,0.026 c 0.022,0.027 0.022,0.027 0.046,0.054 l -0.002,0.025 c -0.002,0.027 -0.002,0.027 -0.028,0.05 l -0.002,0.025 c -0.057,0.072 -0.114,0.147 -0.145,0.22 h -0.026 c -0.027,0.022 -0.03,0.047 -0.03,0.074 -0.026,-0.002 -0.026,-0.002 -0.028,0.023 l 0.002,-0.025 c -0.31,0.386 -0.642,0.719 -0.995,0.975 -0.406,0.302 -0.834,0.552 -1.283,0.725 -0.45,0.197 -0.919,0.314 -1.41,0.381 -0.338,0.052 -0.67,0.053 -1.002,0.027 -0.384,-0.002 -0.845,-0.011 -1.327,-0.047 -0.539,-0.014 -1.095,-0.081 -1.706,-0.152 -0.025,-0.003 -0.051,-0.004 -0.075,-0.006 -0.028,0.022 -0.055,0.022 -0.055,0.046 -0.03,0.051 -0.032,0.076 -0.009,0.103 -0.001,0.026 0.023,0.052 0.049,0.055 0.484,0.369 0.823,0.624 1.018,0.767 0.049,0.029 0.097,0.058 0.123,0.06 l -0.001,0.027 c 0.024,0.001 0.047,0.029 0.072,0.056 l -0.002,0.025 c -0.001,0.025 -0.004,0.05 -0.032,0.075 -10e-4,0.024 -0.028,0.047 -0.056,0.073 -0.103,0.017 -0.209,0.061 -0.313,0.078 l -0.075,-0.005 c -0.86,0.192 -1.834,0.196 -2.869,-0.01 -0.529,-0.115 -1.055,-0.257 -1.604,-0.451 -0.525,-0.193 -1.069,-0.438 -1.637,-0.712 -0.766,-0.388 -1.476,-0.825 -2.158,-1.313 -0.292,-0.199 -0.581,-0.425 -0.873,-0.653 0.001,-0.025 0.001,-0.025 -0.022,-0.052 -0.266,-0.2 -0.504,-0.422 -0.744,-0.67 -0.378,-0.412 -0.703,-0.872 -0.997,-1.381 -0.105,1.068 -0.16,2.14 -0.139,3.242 0.167,0.166 0.334,0.333 0.527,0.476 1.088,0.874 2.211,1.623 3.42,2.224 1.308,0.661 2.555,1.112 3.764,1.382 0.026,0.002 0.026,0.002 0.051,0.003 0.151,0.038 0.304,0.049 0.43,0.084 0.962,0.148 1.856,0.164 2.685,0.046 0.236,-0.058 0.468,-0.093 0.703,-0.153 l 0.026,0.002 c 1.068,-0.253 1.971,-0.698 2.766,-1.381 0.002,-0.027 0.002,-0.027 0.026,-0.023 0.026,0 0.051,0.002 0.079,-0.021 0.432,0.032 0.817,0.035 1.205,-0.013 l 0.05,0.004 c 1.477,-0.224 2.846,-1.094 4.114,-2.613 0.196,-0.242 0.428,-0.61 0.748,-1.123 0.148,-0.27 0.295,-0.515 0.388,-0.74 0.028,-0.022 0.028,-0.022 0.055,-0.047 0.025,0.003 0.028,-0.023 0.028,-0.049 l 0.024,0.028 c 0.291,-0.107 0.554,-0.214 0.818,-0.324 0.025,0.002 0.025,0.002 0.028,-0.024 l 0.025,0.003 c 0.561,-0.318 1.135,-0.786 1.695,-1.437 0.367,-0.459 0.667,-1.051 0.898,-1.752 l 0.004,-0.049 c 0.233,-0.725 0.34,-1.486 0.321,-2.255 l 0.001,-0.028 c -0.006,-0.229 -0.019,-0.436 -0.052,-0.668"
         id="path16102"
         style="fill:#e83434" />
      <path
         d="m 144.93,202.894 c -0.025,-0.002 -0.025,-0.002 -0.026,0.023 -0.158,0.039 -0.316,0.105 -0.501,0.193 -0.345,0.152 -0.643,0.361 -0.918,0.622 -0.138,0.119 -0.273,0.237 -0.41,0.355 -0.249,0.262 -0.499,0.501 -0.748,0.763 -0.252,0.29 -0.48,0.605 -0.708,0.92 -0.178,0.321 -0.381,0.638 -0.586,0.982 -0.202,0.318 -0.406,0.634 -0.609,0.953 -0.203,0.319 -0.381,0.663 -0.56,0.984 -0.205,0.368 -0.436,0.709 -0.64,1.027 -0.202,0.317 -0.407,0.661 -0.563,1.034 l -0.199,-0.067 c -0.448,-0.185 -0.895,-0.373 -1.314,-0.584 -0.593,1.417 -1.14,2.912 -1.639,4.487 -0.608,1.979 -1.017,4.022 -1.199,6.134 0.294,0.509 0.619,0.969 0.997,1.381 0.24,0.248 0.478,0.47 0.744,0.67 0.023,0.027 0.023,0.027 0.022,0.052 0.292,0.228 0.581,0.454 0.873,0.653 0.682,0.488 1.392,0.925 2.158,1.313 0.568,0.274 1.112,0.519 1.637,0.712 0.549,0.194 1.075,0.336 1.604,0.451 1.035,0.206 2.009,0.202 2.869,0.01 l 0.075,0.005 c 0.104,-0.017 0.21,-0.061 0.313,-0.078 0.028,-0.024 0.055,-0.049 0.056,-0.073 0.028,-0.025 0.029,-0.05 0.032,-0.075 l 0.002,-0.025 c -0.025,-0.027 -0.048,-0.055 -0.072,-0.056 l 0.001,-0.027 c -0.026,-0.002 -0.074,-0.031 -0.123,-0.06 -0.195,-0.143 -0.534,-0.398 -1.018,-0.767 -0.026,-0.003 -0.05,-0.029 -0.049,-0.055 -0.023,-0.027 -0.021,-0.052 0.009,-0.103 0,-0.024 0.027,-0.023 0.055,-0.046 0.024,0.002 0.05,0.004 0.075,0.006 0.611,0.071 1.167,0.138 1.706,0.152 0.482,0.036 0.943,0.045 1.327,0.047 0.332,0.026 0.664,0.025 1.002,-0.027 0.491,-0.067 0.96,-0.184 1.41,-0.381 0.449,-0.173 0.877,-0.423 1.283,-0.725 0.353,-0.256 0.685,-0.589 0.994,-0.975 l 0.027,0.002 c 0,-0.027 0.003,-0.052 0.03,-0.074 l 0.026,0.002 c 0.031,-0.075 0.088,-0.15 0.145,-0.222 l 0.002,-0.025 c 0.026,-0.023 0.026,-0.023 0.028,-0.05 l 0.002,-0.025 c -0.024,-0.027 -0.024,-0.027 -0.046,-0.054 l 0.001,-0.026 c -0.023,-0.027 -0.023,-0.027 -0.048,-0.029 -0.255,-0.019 -0.483,-0.062 -0.71,-0.104 l -0.026,-0.002 c -0.227,-0.042 -0.482,-0.061 -0.734,-0.106 -0.581,-0.12 -1.262,-0.272 -2.068,-0.435 l -0.023,-0.027 c -0.074,-0.032 -0.126,-0.036 -0.201,-0.066 -0.297,-0.126 -0.762,-0.415 -1.394,-0.871 -0.024,-0.029 -0.05,-0.031 -0.073,-0.058 0.003,-0.025 0.004,-0.051 0.031,-0.075 -0.024,-0.028 0.006,-0.076 0.033,-0.101 0.027,0.003 0.05,0.006 0.076,0.008 0.41,0.004 0.794,0.008 1.153,0.009 1.255,-0.011 2.256,-0.037 3.003,-0.085 0.024,0.002 0.024,0.002 0.049,0.003 1.057,-0.075 1.853,-0.117 2.342,-0.158 l 0.027,0.002 c 0.078,-0.02 0.153,-0.014 0.232,-0.034 0.338,-0.051 0.624,-0.132 0.89,-0.266 l 0.027,-0.025 0.027,0.004 c 0.373,-0.204 0.703,-0.512 1.014,-0.9 0.002,-0.025 0.002,-0.025 0.028,-0.023 0.2,-0.292 0.38,-0.636 0.511,-1.037 0.193,-0.523 0.284,-1.054 0.246,-1.569 -0.026,0 -0.026,0 -0.024,-0.027 -0.055,-1.336 -0.684,-2.51 -1.864,-3.52 -0.025,-0.001 -0.025,-0.001 -0.027,0.023 -0.968,-0.762 -2.278,-1.398 -3.956,-1.907 l -0.025,-0.002 c -0.1,-0.032 -0.476,-0.137 -1.129,-0.314 l -0.026,-0.003 c -0.025,-0.027 -0.048,-0.029 -0.077,-0.004 -0.026,0.022 -0.078,0.019 -0.105,0.042 -0.211,0.087 -0.475,0.195 -0.794,0.352 -0.026,-0.002 -0.051,-0.004 -0.077,-0.006 -0.024,-0.002 -0.051,-0.004 -0.076,-0.006 -0.023,-0.026 -0.022,-0.052 0.006,-0.076 -0.112,-0.572 -0.204,-1.039 -0.278,-1.429 -0.08,-0.646 -0.128,-1.033 -0.118,-1.162 0,-0.026 0,-0.026 -0.022,-0.053 0.097,-0.274 0.167,-0.524 0.214,-0.804 0.05,-0.353 0.076,-0.686 0.073,-0.993 0.028,-0.023 0.028,-0.023 0.029,-0.049 0.014,-0.537 -0.028,-1 -0.126,-1.392 -0.141,-0.523 -0.391,-0.95 -0.727,-1.258 -0.025,-0.002 -0.025,-0.002 -0.023,-0.027 l 0.001,-0.027 -0.024,-0.002 c -0.92,-0.733 -1.848,-0.98 -2.814,-0.744 m 3.784,8.706 0.025,0.002 c 0.023,0.028 0.023,0.028 -0.003,0.051 0.001,-0.025 0.001,-0.025 -0.022,-0.053"
         id="path16104"
         style="fill:#f49c00" />
      <path
         d="m 148.739,211.602 -0.025,-0.002 c 0.023,0.028 0.023,0.028 0.022,0.053 0.026,-0.023 0.026,-0.023 0.003,-0.051"
         id="path16106"
         style="fill:#9e0c28" />
      <polygon
         points="155.093,219.807 155.066,219.831 155.12,219.811 "
         id="polygon16108"
         style="fill:#9e0c28" />
      <path
         d="m 152.319,222.701 -0.027,-0.002 -0.001,0.025 c 0.001,-0.025 0.001,-0.025 0.028,-0.023"
         id="path16110"
         style="fill:#e83827" />
      <path
         d="m 107.677,154.109 c -3.247,5.382 -9.929,5.452 -14.926,0.154 -4.994,-5.294 -6.416,-13.95 -3.169,-19.332 3.244,-5.382 9.928,-5.452 14.922,-0.156 4.998,5.297 6.417,13.954 3.173,19.334"
         id="path16112"
         style="fill:#e83434" />
      <path
         d="m 107.677,154.109 c -3.247,5.382 -9.929,5.452 -14.926,0.154 -4.994,-5.294 -6.416,-13.95 -3.169,-19.332 3.244,-5.382 9.928,-5.452 14.922,-0.156 4.998,5.297 6.417,13.954 3.173,19.334 z"
         id="path16114"
         style="fill:none;stroke:#e83434;stroke-width:4.13399982" />
      <path
         d="m 107.677,154.109 c -3.247,5.382 -9.929,5.452 -14.926,0.154 -4.994,-5.294 -6.416,-13.95 -3.169,-19.332 3.244,-5.382 9.928,-5.452 14.922,-0.156 4.998,5.297 6.417,13.954 3.173,19.334"
         id="path16116"
         style="fill:#e83434" />
      <path
         d="m 107.677,154.109 c -3.247,5.382 -9.929,5.452 -14.926,0.154 -4.994,-5.294 -6.416,-13.95 -3.169,-19.332 3.244,-5.382 9.928,-5.452 14.922,-0.156 4.998,5.297 6.417,13.954 3.173,19.334 z"
         id="path16118"
         style="fill:none;stroke:#e83434;stroke-width:4.13399982" />
      <path
         d="m 107.677,154.109 c -3.247,5.382 -9.929,5.452 -14.926,0.154 -4.994,-5.294 -6.416,-13.95 -3.169,-19.332 3.244,-5.382 9.928,-5.452 14.922,-0.156 4.998,5.297 6.417,13.954 3.173,19.334"
         id="path16120"
         style="fill:#e83827" />
      <path
         d="m 107.677,154.109 c -3.247,5.382 -9.929,5.452 -14.926,0.154 -4.994,-5.294 -6.416,-13.95 -3.169,-19.332 3.244,-5.382 9.928,-5.452 14.922,-0.156 4.998,5.297 6.417,13.954 3.173,19.334 z"
         id="path16122"
         style="fill:none;stroke:#e83434;stroke-width:4.13399982;stroke-linecap:round;stroke-linejoin:round" />
      <path
         d="m 107.677,154.109 c -3.247,5.382 -9.929,5.452 -14.926,0.154 -4.994,-5.294 -6.416,-13.95 -3.169,-19.332 3.244,-5.382 9.928,-5.452 14.922,-0.156 4.998,5.297 6.417,13.954 3.173,19.334"
         id="path16124"
         style="fill:#f49c00" />
      <path
         d="m 107.677,154.109 c -3.247,5.382 -9.929,5.452 -14.926,0.154 -4.994,-5.294 -6.416,-13.95 -3.169,-19.332 3.244,-5.382 9.928,-5.452 14.922,-0.156 4.998,5.297 6.417,13.954 3.173,19.334 z"
         id="path16126"
         style="fill:none;stroke:#e83434;stroke-width:4.13399982" />
      <path
         d="m 107.677,154.109 c -3.247,5.382 -9.929,5.452 -14.926,0.154 -4.994,-5.294 -6.416,-13.95 -3.169,-19.332 3.244,-5.382 9.928,-5.452 14.922,-0.156 4.998,5.297 6.417,13.954 3.173,19.334"
         id="path16128"
         style="fill:#e83434" />
      <path
         d="m 107.677,154.109 c -3.247,5.382 -9.929,5.452 -14.926,0.154 -4.994,-5.294 -6.416,-13.95 -3.169,-19.332 3.244,-5.382 9.928,-5.452 14.922,-0.156 4.998,5.297 6.417,13.954 3.173,19.334 z"
         id="path16130"
         style="fill:none;stroke:#e83434;stroke-width:4.13399982" />
      <path
         d="m 107.677,154.109 c -3.247,5.382 -9.929,5.452 -14.926,0.154 -4.994,-5.294 -6.416,-13.95 -3.169,-19.332 3.244,-5.382 9.928,-5.452 14.922,-0.156 4.998,5.297 6.417,13.954 3.173,19.334"
         id="path16132"
         style="fill:#e83434" />
      <path
         d="m 107.677,154.109 c -3.247,5.382 -9.929,5.452 -14.926,0.154 -4.994,-5.294 -6.416,-13.95 -3.169,-19.332 3.244,-5.382 9.928,-5.452 14.922,-0.156 4.998,5.297 6.417,13.954 3.173,19.334 z"
         id="path16134"
         style="fill:none;stroke:#e83434;stroke-width:4.13399982" />
      <path
         d="m 107.677,154.109 c -3.247,5.382 -9.929,5.452 -14.926,0.154 -4.994,-5.294 -6.416,-13.95 -3.169,-19.332 3.244,-5.382 9.928,-5.452 14.922,-0.156 4.998,5.297 6.417,13.954 3.173,19.334"
         id="path16136"
         style="fill:#e83827" />
      <path
         d="m 107.677,154.109 c -3.247,5.382 -9.929,5.452 -14.926,0.154 -4.994,-5.294 -6.416,-13.95 -3.169,-19.332 3.244,-5.382 9.928,-5.452 14.922,-0.156 4.998,5.297 6.417,13.954 3.173,19.334 z"
         id="path16138"
         style="fill:none;stroke:#e83434;stroke-width:4.13399982;stroke-linecap:round;stroke-linejoin:round" />
      <path
         d="m 107.677,154.109 c -3.247,5.382 -9.929,5.452 -14.926,0.154 -4.994,-5.294 -6.416,-13.95 -3.169,-19.332 3.244,-5.382 9.928,-5.452 14.922,-0.156 4.998,5.297 6.417,13.954 3.173,19.334"
         id="path16140"
         style="fill:#f49c00" />
      <path
         d="m 194.864,110.867 c -5.26,-3.437 -11.309,-0.598 -13.509,6.345 -2.2,6.939 0.283,15.355 5.544,18.789 5.261,3.44 11.308,0.598 13.51,-6.342 2.201,-6.94 -0.283,-15.355 -5.545,-18.792"
         id="path16142"
         style="fill:#e83434" />
      <path
         d="m 194.864,110.867 c -5.26,-3.437 -11.309,-0.598 -13.509,6.345 -2.2,6.939 0.283,15.355 5.544,18.789 5.261,3.44 11.308,0.598 13.51,-6.342 2.201,-6.94 -0.283,-15.355 -5.545,-18.792 z"
         id="path16144"
         style="fill:none;stroke:#e83434;stroke-width:4.13399982" />
      <path
         d="m 194.864,110.867 c -5.26,-3.437 -11.309,-0.598 -13.509,6.345 -2.2,6.939 0.283,15.355 5.544,18.789 5.261,3.44 11.308,0.598 13.51,-6.342 2.201,-6.94 -0.283,-15.355 -5.545,-18.792"
         id="path16146"
         style="fill:#e83434" />
      <path
         d="m 194.864,110.867 c -5.26,-3.437 -11.309,-0.598 -13.509,6.345 -2.2,6.939 0.283,15.355 5.544,18.789 5.261,3.44 11.308,0.598 13.51,-6.342 2.201,-6.94 -0.283,-15.355 -5.545,-18.792 z"
         id="path16148"
         style="fill:none;stroke:#e83434;stroke-width:4.13399982" />
      <path
         d="m 194.864,110.867 c -5.26,-3.437 -11.309,-0.598 -13.509,6.345 -2.2,6.939 0.283,15.355 5.544,18.789 5.261,3.44 11.308,0.598 13.51,-6.342 2.201,-6.94 -0.283,-15.355 -5.545,-18.792"
         id="path16150"
         style="fill:#e83827" />
      <path
         d="m 194.864,110.867 c -5.26,-3.437 -11.309,-0.598 -13.509,6.345 -2.2,6.939 0.283,15.355 5.544,18.789 5.261,3.44 11.308,0.598 13.51,-6.342 2.201,-6.94 -0.283,-15.355 -5.545,-18.792 z"
         id="path16152"
         style="fill:none;stroke:#e83434;stroke-width:4.13399982;stroke-linecap:round;stroke-linejoin:round" />
      <path
         d="m 194.864,110.867 c -5.26,-3.437 -11.309,-0.598 -13.509,6.345 -2.2,6.939 0.283,15.355 5.544,18.789 5.261,3.44 11.308,0.598 13.51,-6.342 2.201,-6.94 -0.283,-15.355 -5.545,-18.792"
         id="path16154"
         style="fill:#f49c00" />
      <path
         d="m 194.864,110.867 c -5.26,-3.437 -11.309,-0.598 -13.509,6.345 -2.2,6.939 0.283,15.355 5.544,18.789 5.261,3.44 11.308,0.598 13.51,-6.342 2.201,-6.94 -0.283,-15.355 -5.545,-18.792 z"
         id="path16156"
         style="fill:none;stroke:#e83434;stroke-width:4.13399982" />
      <path
         d="m 194.864,110.867 c -5.26,-3.437 -11.309,-0.598 -13.509,6.345 -2.2,6.939 0.283,15.355 5.544,18.789 5.261,3.44 11.308,0.598 13.51,-6.342 2.201,-6.94 -0.283,-15.355 -5.545,-18.792"
         id="path16158"
         style="fill:#e83434" />
      <path
         d="m 194.864,110.867 c -5.26,-3.437 -11.309,-0.598 -13.509,6.345 -2.2,6.939 0.283,15.355 5.544,18.789 5.261,3.44 11.308,0.598 13.51,-6.342 2.201,-6.94 -0.283,-15.355 -5.545,-18.792 z"
         id="path16160"
         style="fill:none;stroke:#e83434;stroke-width:4.13399982" />
      <path
         d="m 194.864,110.867 c -5.26,-3.437 -11.309,-0.598 -13.509,6.345 -2.2,6.939 0.283,15.355 5.544,18.789 5.261,3.44 11.308,0.598 13.51,-6.342 2.201,-6.94 -0.283,-15.355 -5.545,-18.792"
         id="path16162"
         style="fill:#e83434" />
      <path
         d="m 194.864,110.867 c -5.26,-3.437 -11.309,-0.598 -13.509,6.345 -2.2,6.939 0.283,15.355 5.544,18.789 5.261,3.44 11.308,0.598 13.51,-6.342 2.201,-6.94 -0.283,-15.355 -5.545,-18.792 z"
         id="path16164"
         style="fill:none;stroke:#e83434;stroke-width:4.13399982" />
      <path
         d="m 194.864,110.867 c -5.26,-3.437 -11.309,-0.598 -13.509,6.345 -2.2,6.939 0.283,15.355 5.544,18.789 5.261,3.44 11.308,0.598 13.51,-6.342 2.201,-6.94 -0.283,-15.355 -5.545,-18.792"
         id="path16166"
         style="fill:#e83827" />
      <path
         d="m 194.864,110.867 c -5.26,-3.437 -11.309,-0.598 -13.509,6.345 -2.2,6.939 0.283,15.355 5.544,18.789 5.261,3.44 11.308,0.598 13.51,-6.342 2.201,-6.94 -0.283,-15.355 -5.545,-18.792 z"
         id="path16168"
         style="fill:none;stroke:#e83434;stroke-width:4.13399982;stroke-linecap:round;stroke-linejoin:round" />
      <path
         d="m 194.864,110.867 c -5.26,-3.437 -11.309,-0.598 -13.509,6.345 -2.2,6.939 0.283,15.355 5.544,18.789 5.261,3.44 11.308,0.598 13.51,-6.342 2.201,-6.94 -0.283,-15.355 -5.545,-18.792"
         id="path16170"
         style="fill:#f49c00" />
      <path
         d="m 192.363,124.633 c 4.537,19.855 -12.897,40.778 -38.935,46.73 -26.043,5.953 -50.833,-5.321 -55.373,-25.176 -4.535,-19.855 12.895,-40.779 38.938,-46.731 26.04,-5.952 50.831,5.321 55.37,25.177"
         id="path16172"
         style="fill:#f49c00" />
      <path
         d="m 192.363,124.633 c 4.537,19.855 -12.897,40.778 -38.935,46.73 -26.043,5.953 -50.833,-5.321 -55.373,-25.176 -4.535,-19.855 12.895,-40.779 38.938,-46.731 26.04,-5.952 50.831,5.321 55.37,25.177 z"
         id="path16174"
         style="fill:none;stroke:#e83434;stroke-width:4.13399982;stroke-linecap:round;stroke-linejoin:round" />
      <path
         d="m 192.363,124.633 c 4.537,19.855 -12.897,40.778 -38.935,46.73 -26.043,5.953 -50.833,-5.321 -55.373,-25.176 -4.535,-19.855 12.895,-40.779 38.938,-46.731 26.04,-5.952 50.831,5.321 55.37,25.177"
         id="path16176"
         style="fill:#f49c00" />
      <path
         d="m 135.233,129.618 c -1.109,2.825 -4.301,4.215 -7.127,3.105 -2.825,-1.111 -4.215,-4.302 -3.109,-7.129 1.112,-2.824 4.305,-4.216 7.13,-3.106 2.827,1.111 4.217,4.3 3.106,7.13"
         id="path16178"
         style="fill:#e83434" />
      <path
         d="m 135.233,129.618 c -1.109,2.825 -4.301,4.215 -7.127,3.105 -2.825,-1.111 -4.215,-4.302 -3.109,-7.129 1.112,-2.824 4.305,-4.216 7.13,-3.106 2.827,1.111 4.217,4.3 3.106,7.13 z"
         id="path16180"
         style="fill:none;stroke:#e83434;stroke-width:0.57200003" />
      <path
         d="m 148.448,119.598 c -1.109,2.827 0.282,6.02 3.106,7.128 2.827,1.109 6.02,-0.283 7.131,-3.107 1.11,-2.826 -0.282,-6.018 -3.109,-7.13 -2.827,-1.109 -6.019,0.282 -7.128,3.109"
         id="path16182"
         style="fill:#e83434" />
      <circle
         cx="153.56599"
         cy="121.609"
         r="5.4990001"
         id="circle16184"
         style="fill:none;stroke:#e83434;stroke-width:0.57200003" />
      <path
         d="m 171.024,124.866 c -1.182,5.981 -8.377,9.6 -16.072,8.079 -7.694,-1.52 -12.973,-7.605 -11.792,-13.587 1.186,-5.984 8.381,-9.602 16.075,-8.081 7.695,1.517 12.974,7.604 11.789,13.589"
         id="path16186"
         style="fill:#ffffff" />
      <path
         d="m 115.978,137.447 c 3.664,4.875 11.718,5.007 17.988,0.294 6.266,-4.712 8.381,-12.486 4.716,-17.359 -3.663,-4.875 -11.717,-5.009 -17.986,-0.298 -6.272,4.713 -8.379,12.487 -4.718,17.363"
         id="path16188"
         style="fill:#ffffff" />
      <path
         d="m 135.233,129.618 c -1.109,2.825 -4.301,4.215 -7.127,3.105 -2.825,-1.111 -4.215,-4.302 -3.109,-7.129 1.112,-2.824 4.305,-4.216 7.13,-3.106 2.827,1.111 4.217,4.3 3.106,7.13"
         id="path16190" />
      <path
         d="m 148.448,119.598 c -1.109,2.827 0.282,6.02 3.106,7.128 2.827,1.109 6.02,-0.283 7.131,-3.107 1.11,-2.826 -0.282,-6.018 -3.109,-7.13 -2.827,-1.109 -6.019,0.282 -7.128,3.109"
         id="path16192" />
      <path
         d="m 177.308,102.093 c -0.994,0.428 -1.928,0.693 -2.856,0.871 1.547,-0.82 8.248,-5.345 8.971,-7.163 0.01,-0.036 -6.9,1.69 -10.656,0.749 -1.074,-0.269 -2.187,-0.374 -3.311,-0.342 0.833,-0.372 1.667,-0.75 2.488,-1.154 2.646,-1.298 5.458,-5.723 5.45,-5.759 0.428,-0.557 0.763,-1.178 0.975,-1.858 0.109,-0.346 -8.817,3.095 -12.345,3.081 -0.45,-0.001 -0.901,0.001 -1.352,0.004 0.276,-0.122 0.55,-0.254 0.824,-0.388 3.284,-1.651 5.597,-8.485 5.483,-9.255 -0.037,-0.255 -8.167,5.765 -14.419,5.288 2.551,-0.743 4.702,-3.807 7.176,-4.843 0.099,-0.041 0.104,-0.031 0,0 -3.133,0.933 -5.31,0.506 -11.426,4.047 2.094,-2.336 4.982,-4.11 8.302,-5.616 0.228,-0.103 -8.372,0.496 -11.661,2.273 -1.603,0.865 -3.452,2.238 -4.62,3.855 -0.113,-1.359 0.088,-2.69 0.77,-4.273 0.933,-2.166 5.316,-6.663 5.782,-6.778 0.238,-0.054 -10.277,0.64 -13.239,10.068 -1.419,-6.647 -8.685,-6.912 -8.322,-6.703 2.311,2.808 1.501,6.39 -0.129,9.567 -3.251,-2.21 -2.853,-11.128 -2.384,-11.621 0.072,-0.074 -7.196,5.016 -5.433,12.565 -1.949,-1.686 -4.336,-2.431 -7.347,-2.442 -0.289,-0.003 6.096,3.795 7.803,6.986 -1.564,-1.366 -3.401,-2.478 -5.37,-3.296 -4.164,-1.726 -7.82,-0.55 -11.605,1.499 -0.221,0.12 2.262,-0.285 3.367,-0.395 4.232,0.028 5.32,3.021 6.829,5.684 -0.651,-0.475 -1.333,-0.875 -1.95,-1.176 -2.673,-1.303 -5.256,-1.344 -8.148,-0.484 -0.165,0.049 6.366,2.089 7.504,3.851 -2.61,-0.173 -4.091,0.21 -6.242,0.762 -4.706,1.204 -9.752,3.009 -12.542,7.828 -0.195,0.34 3.057,-1.634 4.523,-2.449 2.875,-0.878 5.753,-2.029 8.686,-1.713 2.365,0.255 4.005,0.719 3.741,0.814 -4.562,-0.778 -14.792,7.603 -14.55,7.489 3.107,-1.468 6.606,-2.021 10.044,-2.493 -3.306,4.995 -12.499,5.233 -12.38,5.308 4.403,2.752 8.138,4.642 13.723,3.301 3.692,-0.886 6.608,-2.908 9.211,-5.284 -0.266,0.366 -0.526,0.733 -0.786,1.095 -2.031,2.858 -4.347,5.264 -7.222,7.435 -0.221,0.167 0.006,0.439 0.247,0.351 4.796,-1.768 7.851,-5.618 10.912,-9.253 2.011,-2.386 4.078,-4.741 6.956,-6.276 3.309,-1.773 7.589,-0.955 10.772,0.336 0.342,0.138 0.637,-0.022 0.786,-0.268 0.115,0.003 0.234,-0.024 0.342,-0.101 3.532,-2.434 7.062,-5.457 11.706,-4.984 3.29,0.339 6.239,2.278 9.175,3.473 3.428,1.395 6.825,1.429 10.069,0.579 2.08,1.447 10.414,-3.967 7.678,-2.792"
         id="path16194" />
      <path
         d="m 157.513,136.595 c 1.496,6.541 -2.609,13.081 -9.15,14.576 -6.543,1.494 -13.081,-2.613 -14.577,-9.153 -1.494,-6.543 2.613,-13.079 9.154,-14.575 6.539,-1.495 13.078,2.61 14.573,9.152"
         id="path16196"
         style="fill:#e83827" />
      <path
         d="m 148.477,160.141 c -0.016,0.142 -0.04,0.283 -0.073,0.428 -0.668,2.926 -4.222,4.846 -7.94,4.287 -3.716,-0.56 -6.187,-3.386 -5.52,-6.313 0.144,-0.62 0.415,-1.195 0.79,-1.714 -1.498,0.866 -2.581,2.143 -2.93,3.672 -0.753,3.294 2.195,6.499 6.582,7.16 4.388,0.658 8.553,-1.477 9.305,-4.772 0.217,-0.943 0.127,-1.878 -0.214,-2.748"
         id="path16198"
         style="fill:#e83434" />
      <path
         d="m 140.607,161.697 c 1.767,0.373 3.463,-0.157 3.787,-1.187 0.328,-1.03 -0.838,-2.167 -2.602,-2.543 -1.768,-0.374 -3.465,0.16 -3.788,1.187 -0.327,1.03 0.838,2.169 2.603,2.543"
         id="path16200"
         style="fill:#e83434" />
    </g>
  </g>
</svg>
