<?xml version="1.0" encoding="UTF-8" standalone="no"?>
<!-- Created with Inkscape (http://www.inkscape.org/) -->

<svg
   xmlns:dc="http://purl.org/dc/elements/1.1/"
   xmlns:cc="http://creativecommons.org/ns#"
   xmlns:rdf="http://www.w3.org/1999/02/22-rdf-syntax-ns#"
   xmlns:svg="http://www.w3.org/2000/svg"
   xmlns="http://www.w3.org/2000/svg"
   xmlns:sodipodi="http://sodipodi.sourceforge.net/DTD/sodipodi-0.dtd"
   xmlns:inkscape="http://www.inkscape.org/namespaces/inkscape"
   width="159.37772"
   height="188.3325"
   id="svg5696"
   version="1.1"
   inkscape:version="0.48.4 r9939"
   sodipodi:docname="ernie11.svg">
  <defs
     id="defs5698">
    <clipPath
       id="SVGID_2_">
      <rect
         height="88.862999"
         width="111.498"
         y="518.96198"
         x="382.04999"
         id="use1087" />
    </clipPath>
    <clipPath
       id="SVGID_4_">
      <rect
         height="41.314999"
         width="49.584999"
         y="525.19397"
         x="389.84698"
         id="use1111" />
    </clipPath>
  </defs>
  <sodipodi:namedview
     id="base"
     pagecolor="#ffffff"
     bordercolor="#666666"
     borderopacity="1.0"
     inkscape:pageopacity="0.0"
     inkscape:pageshadow="2"
     inkscape:zoom="0.77472527"
     inkscape:cx="11.826168"
     inkscape:cy="92.179401"
     inkscape:current-layer="layer1"
     inkscape:document-units="px"
     showgrid="false"
     inkscape:window-width="763"
     inkscape:window-height="591"
     inkscape:window-x="592"
     inkscape:window-y="97"
     inkscape:window-maximized="0"
     fit-margin-top="0"
     fit-margin-left="0"
     fit-margin-right="0"
     fit-margin-bottom="0" />
  <metadata
     id="metadata5701">
    <rdf:RDF>
      <cc:Work
         rdf:about="">
        <dc:format>image/svg+xml</dc:format>
        <dc:type
           rdf:resource="http://purl.org/dc/dcmitype/StillImage" />
        <dc:title></dc:title>
      </cc:Work>
    </rdf:RDF>
  </metadata>
  <g
     id="layer1"
     inkscape:label="Layer 1"
     inkscape:groupmode="layer"
     transform="translate(-306.11712,11.04673)">
    <g
       transform="translate(-1.6835692,-550.12573)"
       id="g981">
      <path
         inkscape:connector-curvature="0"
         style="fill:#e83434"
         d="m 351.38,706.643 c -0.883,0.226 -1.712,0.453 -2.502,0.708 -0.093,0.026 -0.187,0.054 -0.281,0.095 2.943,1.777 5.042,5.241 6.288,10.377 l 0.078,0.374 c 0.228,1.485 0.483,2.475 0.775,2.971 0.296,0.493 0.47,0.749 0.537,0.749 l 0.386,0.093 c 1.111,0.228 2.276,0.254 3.465,0.081 1.284,-0.148 2.568,-0.376 3.854,-0.683 1.055,-0.228 2.085,-0.481 3.115,-0.736 1.057,-0.267 2.086,-0.562 3.116,-0.882 1.259,-0.416 2.501,-0.883 3.744,-1.404 0.563,-0.254 1.285,-0.562 2.168,-0.938 l -1.471,-11.421 -17.948,-0.535 c -0.697,0.121 -1.365,0.255 -2.021,0.389 2.703,2.634 4.428,4.774 5.164,6.446 0.158,0.347 0.158,0.643 0.013,0.896 l -2.461,0.749 c -1.645,-3.185 -3.653,-5.632 -6.019,-7.329 m 20.543,5.882 c 0.615,0.615 0.923,1.352 0.923,2.221 0,0.871 -0.308,1.605 -0.923,2.206 -0.601,0.615 -1.339,0.925 -2.208,0.925 -0.868,0 -1.605,-0.31 -2.22,-0.925 -0.614,-0.601 -0.923,-1.335 -0.923,-2.206 0,-0.869 0.309,-1.605 0.923,-2.221 0.615,-0.614 1.352,-0.921 2.22,-0.921 0.869,0 1.607,0.307 2.208,0.921"
         id="path983" />
      <path
         inkscape:connector-curvature="0"
         style="fill:#ffffff"
         d="m 372.846,714.746 c 0,-0.869 -0.308,-1.605 -0.923,-2.221 -0.601,-0.614 -1.339,-0.921 -2.208,-0.921 -0.868,0 -1.605,0.307 -2.22,0.921 -0.614,0.615 -0.923,1.352 -0.923,2.221 0,0.871 0.309,1.605 0.923,2.206 0.615,0.615 1.352,0.925 2.22,0.925 0.869,0 1.607,-0.31 2.208,-0.925 0.615,-0.6 0.923,-1.335 0.923,-2.206"
         id="path985" />
      <path
         inkscape:connector-curvature="0"
         style="fill:#ffffff"
         d="m 354.683,705.88 c -1.164,0.24 -2.273,0.494 -3.303,0.763 2.366,1.697 4.374,4.145 6.019,7.328 l 2.461,-0.75 c 0.145,-0.252 0.145,-0.548 -0.013,-0.895 -0.736,-1.672 -2.461,-3.812 -5.164,-6.446"
         id="path987" />
      <path
         inkscape:connector-curvature="0"
         style="fill:#ffffff"
         d="m 348.597,707.445 c -2.901,0.921 -5.164,2.004 -6.781,3.222 -2.928,2.194 -4.386,4.601 -4.386,7.235 0,0.121 0,0.255 0.013,0.375 0.134,2.474 1.592,4.494 4.373,6.058 2.903,1.632 6.647,2.274 11.235,1.915 6.433,-0.229 13.723,-1.942 21.88,-5.152 1.044,-0.532 1.471,-1.51 1.285,-2.927 l -0.093,-0.724 c -0.883,0.375 -1.605,0.684 -2.168,0.938 -1.243,0.521 -2.485,0.988 -3.744,1.404 -1.03,0.32 -2.059,0.615 -3.116,0.882 -1.03,0.255 -2.06,0.509 -3.115,0.736 -1.286,0.307 -2.57,0.534 -3.854,0.683 -1.189,0.173 -2.354,0.146 -3.465,-0.081 l -0.386,-0.093 c -0.067,0 -0.241,-0.256 -0.537,-0.749 -0.292,-0.496 -0.547,-1.485 -0.775,-2.971 l -0.078,-0.374 c -1.246,-5.135 -3.345,-8.599 -6.288,-10.377"
         id="path989" />
      <path
         inkscape:connector-curvature="0"
         style="fill:none;stroke:#e83927;stroke-width:2.1400001;stroke-linecap:round;stroke-linejoin:round;stroke-miterlimit:10"
         d="m 348.878,707.351 c -0.093,0.026 -0.187,0.054 -0.281,0.095 -2.901,0.921 -5.164,2.004 -6.781,3.222 -2.928,2.194 -4.386,4.601 -4.386,7.235 0,0.121 0,0.255 0.013,0.375 0.134,2.474 1.592,4.494 4.373,6.058 2.903,1.632 6.647,2.274 11.235,1.915 6.433,-0.229 13.723,-1.942 21.88,-5.152 1.044,-0.532 1.471,-1.51 1.285,-2.927 l -0.093,-0.724 -1.471,-11.421 -17.948,-0.535 c -0.697,0.121 -1.365,0.255 -2.021,0.389 -1.164,0.24 -2.273,0.494 -3.303,0.763 -0.883,0.224 -1.712,0.452 -2.502,0.707 z"
         id="path991" />
      <path
         inkscape:connector-curvature="0"
         style="fill:#e83434"
         d="m 455.916,611.427 c -0.095,-0.009 -0.186,-0.021 -0.27,-0.015 -3.124,0.095 -6.593,2.368 -10.385,6.854 -0.305,-2.118 -1.211,-3.681 -2.695,-4.681 -0.049,-0.026 -0.097,-0.054 -0.145,-0.079 -2.141,-1.119 -3.972,-0.546 -5.468,1.714 -1.236,1.861 -1.919,4.118 -2.023,6.748 -0.109,2.324 0.201,5.202 0.917,8.628 l -4.876,3.372 c 0.462,4.13 2.544,7.699 6.223,10.697 l 5.056,-2.703 c 4.2,0.825 7.459,0.478 9.758,-1.072 7.56,0.614 11.766,-0.761 12.603,-4.117 0.054,-0.152 0.07,-0.313 0.042,-0.472 -0.311,-2.465 -1.745,-4.167 -4.296,-5.134 0.651,-0.228 1.506,-0.798 2.564,-1.729 1.653,-1.144 2.928,-2.622 3.81,-4.44 0.795,-1.593 0.53,-2.985 -0.791,-4.175 l -0.009,-0.018 c -1.647,-1.522 -3.625,-2.008 -5.939,-1.438 -0.895,0.216 -1.779,0.479 -2.663,0.752 0.677,-0.949 1.203,-1.841 1.603,-2.672 0.759,-1.615 0.855,-2.912 0.291,-3.901 -0.453,-1.041 -1.559,-1.749 -3.307,-2.119 m -0.303,2.125 c 0.858,0.187 1.425,0.5 1.704,0.948 0.188,0.49 0.161,1.103 -0.088,1.836 -1.079,3.184 -2.667,5.9 -4.791,8.145 0.706,0.091 1.533,-0.335 2.481,-1.256 0.258,-0.096 0.444,-0.171 0.562,-0.208 l 0.018,-0.008 c 1.64,-0.625 3.306,-1.147 5.004,-1.578 1.548,-0.387 2.883,-0.074 3.988,0.95 l 0.014,0.003 c 0.33,0.308 0.492,0.639 0.489,1.011 -0.006,0.177 -0.042,0.36 -0.134,0.556 -0.314,1.13 -0.944,2.104 -1.896,2.938 -1.923,1.9 -4.409,3.538 -7.453,4.893 0.71,0.285 1.318,0.433 1.835,0.447 1.244,0.452 2.439,1.087 3.605,1.879 0.79,0.608 1.292,1.361 1.533,2.266 -0.989,2.118 -4.542,2.897 -10.678,2.355 -0.267,-0.029 -0.505,0.045 -0.728,0.208 -2.031,1.43 -5.006,1.686 -8.915,0.8 l -4.484,2.679 c -2.566,-2.264 -4.035,-4.87 -4.405,-7.834 l 4.926,-3.154 c -0.177,-0.886 -0.295,-1.427 -0.337,-1.63 -0.644,-2.815 -0.91,-5.393 -0.812,-7.734 0.093,-2.219 0.65,-4.108 1.683,-5.666 0.753,-1.122 1.642,-1.465 2.677,-1.01 0.439,0.322 0.797,0.734 1.067,1.219 0.124,0.211 0.229,0.432 0.319,0.663 0.173,0.391 0.295,0.807 0.377,1.229 0.175,0.844 0.266,1.694 0.282,2.566 0.019,0.914 0.105,1.832 0.264,2.742 0.168,0.772 0.431,1.587 0.797,2.442 l 0.453,0.945 c 0.573,-0.399 0.7,-1.55 0.375,-3.439 -0.062,-0.65 -0.065,-1.311 -0.007,-1.998 0.004,-0.067 -0.007,-0.126 -0.007,-0.18 3.86,-5.049 7.283,-7.72 10.282,-8.025"
         id="path993" />
      <path
         inkscape:connector-curvature="0"
         style="fill:#f49c00"
         d="m 457.317,614.5 c -0.279,-0.448 -0.846,-0.762 -1.704,-0.948 -2.999,0.306 -6.422,2.977 -10.28,8.025 0,0.054 0.011,0.112 0.007,0.18 -0.059,0.688 -0.055,1.349 0.007,1.998 0.325,1.89 0.198,3.04 -0.375,3.439 l -0.453,-0.945 c -0.366,-0.855 -0.629,-1.67 -0.797,-2.442 -0.158,-0.91 -0.245,-1.828 -0.264,-2.742 -0.017,-0.872 -0.107,-1.723 -0.282,-2.566 -0.082,-0.423 -0.204,-0.839 -0.377,-1.229 -0.09,-0.231 -0.195,-0.452 -0.319,-0.663 -0.271,-0.484 -0.628,-0.896 -1.067,-1.219 -1.035,-0.455 -1.924,-0.112 -2.677,1.01 -1.032,1.558 -1.59,3.447 -1.683,5.666 -0.099,2.342 0.168,4.919 0.812,7.734 0.042,0.203 0.16,0.744 0.337,1.63 l -4.926,3.154 c 0.37,2.964 1.839,5.57 4.405,7.834 l 4.484,-2.679 c 3.909,0.886 6.884,0.63 8.915,-0.8 0.223,-0.163 0.461,-0.237 0.728,-0.208 6.136,0.542 9.688,-0.237 10.678,-2.355 -0.241,-0.904 -0.743,-1.657 -1.533,-2.266 -1.166,-0.792 -2.361,-1.427 -3.605,-1.879 -0.517,-0.015 -1.125,-0.162 -1.835,-0.447 3.044,-1.354 5.53,-2.992 7.453,-4.893 0.952,-0.834 1.582,-1.809 1.896,-2.938 0.092,-0.195 0.128,-0.379 0.134,-0.556 0.003,-0.372 -0.159,-0.703 -0.489,-1.011 l -0.014,-0.003 c -1.105,-1.024 -2.44,-1.337 -3.988,-0.95 -1.698,0.431 -3.364,0.953 -5.004,1.578 l -0.018,0.008 c -0.118,0.037 -0.305,0.112 -0.562,0.208 -0.948,0.921 -1.775,1.347 -2.481,1.256 2.124,-2.244 3.712,-4.961 4.791,-8.145 0.248,-0.733 0.275,-1.346 0.086,-1.836"
         id="path995" />
      <path
         inkscape:connector-curvature="0"
         style="fill:#0076bf"
         d="m 403.214,641.19 c 5.603,-0.401 10.82,-1.5 15.662,-3.277 l 7.409,19.192 c -5.552,1.631 -11.583,2.528 -18.069,2.703 l -5.002,-18.618 z"
         id="path997" />
      <path
         inkscape:connector-curvature="0"
         style="fill:#e83827"
         d="m 438.002,652.211 c 0,-0.015 0,-0.015 0,0 L 427.1,634.008 c 2.489,-1.471 4.856,-3.17 7.102,-5.082 5.417,5.017 9.683,10.659 12.812,16.905 -2.792,2.447 -5.804,4.574 -9.012,6.38"
         id="path999" />
      <path
         inkscape:connector-curvature="0"
         style="fill:#fedb00"
         d="m 427.1,634.008 10.902,18.203 c -3.639,2.046 -7.546,3.678 -11.717,4.895 l -7.409,-19.192 c 2.874,-1.057 5.617,-2.369 8.224,-3.906"
         id="path1001" />
      <path
         inkscape:connector-curvature="0"
         style="fill:none;stroke:#003c90;stroke-width:2.1400001;stroke-linecap:square;stroke-miterlimit:10"
         d="m 438.002,652.211 c -3.639,2.046 -7.546,3.678 -11.717,4.895 -5.552,1.631 -11.583,2.528 -18.069,2.703 l -5.002,-18.618 c 5.603,-0.401 10.82,-1.5 15.662,-3.277 2.874,-1.056 5.617,-2.368 8.224,-3.905 2.489,-1.471 4.856,-3.17 7.102,-5.082 5.417,5.017 9.683,10.659 12.812,16.905 -2.792,2.446 -5.804,4.573 -9.012,6.379 z"
         id="path1003" />
      <path
         inkscape:connector-curvature="0"
         style="fill:#e83434"
         d="m 323.929,667.817 0.696,0.675 0.97,0.449 c -0.445,1.3 -0.868,2.632 -1.251,3.999 -0.358,-0.002 -0.733,0.016 -1.087,0.051 0.019,0 0.036,-0.02 0.033,-0.039 -0.009,0.01 -0.009,0.01 -0.018,0.002 -0.012,-0.009 -0.012,-0.009 -0.02,0 -0.129,0.015 -0.28,0.029 -0.421,0.034 -0.251,0.035 -0.502,0.069 -0.753,0.104 -0.13,0.014 -0.251,0.035 -0.352,0.054 -4.866,0.732 -8.339,3.339 -10.416,7.826 -0.722,1.552 -1.145,3.073 -1.289,4.567 l 0.012,0.008 c -0.027,0.392 -0.047,0.771 -0.047,1.146 0.008,0.641 0.06,1.163 0.159,1.604 0.186,0.717 0.538,1.125 1.029,1.235 0.153,0.023 0.287,0.048 0.423,0.072 0.58,0.065 1.105,0.031 1.565,-0.091 0.832,-0.243 1.432,-0.85 1.776,-1.836 0.134,-0.73 0.252,-1.354 0.367,-1.894 0,-0.02 0.015,-0.04 0.013,-0.059 0.035,-0.126 0.062,-0.241 0.077,-0.365 l 0.134,0.025 c -0.008,0.112 -0.003,0.235 0.01,0.365 -0.008,0.03 -0.013,0.059 -0.012,0.078 -0.033,1.189 0.086,2.365 0.341,3.5 0.422,1.974 1.122,3.318 2.099,4.051 0.601,0.438 1.281,0.653 2.072,0.631 0.113,0.008 0.217,0.008 0.319,0.006 0.738,-0.081 1.244,-0.783 1.517,-2.084 0.094,-0.386 0.171,-0.854 0.212,-1.386 0.021,-2.727 0.074,-4.345 0.137,-4.859 0.163,1.624 0.367,3.026 0.588,4.202 0.281,1.31 0.575,2.355 0.917,3.131 0.372,0.886 0.826,1.568 1.36,2.024 0.795,0.684 1.76,0.907 2.893,0.652 0.186,-0.037 0.359,-0.083 0.533,-0.148 0.951,-0.302 1.511,-1.847 1.689,-4.597 0.142,-2.541 0.008,-4.177 -0.404,-4.908 0.387,0.469 0.804,0.899 1.239,1.272 0.474,0.403 0.952,0.762 1.437,1.071 0.121,0.082 0.239,0.146 0.359,0.21 0.332,0.2 0.659,0.367 0.964,0.495 1.133,0.416 2.032,0.241 2.71,-0.524 0.05,-0.061 0.1,-0.123 0.141,-0.173 1.048,-1.407 0.662,-3.762 -1.166,-7.057 -0.647,-1.199 -1.388,-2.303 -2.197,-3.306 -0.214,-0.262 -0.445,-0.521 -0.672,-0.791 -0.407,-0.404 -0.816,-0.805 -1.221,-1.208 l 0.461,-2.447 c 0.214,-1.164 0.521,-2.335 0.91,-3.542 0.852,0.047 1.684,0.057 2.51,0.033 -0.501,1.491 -1.003,3.17 -1.505,5.041 1.502,1.829 2.632,3.405 3.385,4.724 1.368,2.371 2.153,4.299 2.343,5.808 0.244,1.796 -0.028,3.132 -0.789,4 -0.705,0.88 -1.655,1.476 -2.867,1.783 l -0.009,0.012 c -1.312,0.348 -2.473,0.068 -3.482,-0.812 -0.044,-0.052 -0.105,-0.104 -0.148,-0.155 -0.064,-0.069 -0.109,-0.14 -0.153,-0.213 0.006,0.058 0.012,0.115 0,0.19 0.004,0.434 0.004,0.896 -0.011,1.396 -0.106,3.29 -1.258,5.243 -3.43,5.864 -2.19,0.729 -3.989,0.183 -5.422,-1.625 -0.314,-0.394 -0.589,-0.809 -0.831,-1.246 -0.019,0.002 -0.029,-0.007 -0.032,-0.026 -0.006,0.03 -0.023,0.05 -0.039,0.071 -0.57,1.093 -1.35,1.586 -2.352,1.469 -2.697,0.071 -4.533,-1.601 -5.508,-5.039 -0.609,0.597 -1.574,0.75 -2.867,0.465 -2.406,-0.514 -3.661,-2.038 -3.755,-4.583 -0.041,-2.126 0.463,-4.336 1.508,-6.616 2.714,-5.832 7.236,-9.074 13.555,-9.714 0.245,-1.033 0.538,-2.061 0.871,-3.074 l 0.192,0.022 z m 9.131,6.686 c -0.023,-0.035 -0.044,-0.051 -0.075,-0.077 0.031,0.026 0.052,0.042 0.075,0.077"
         id="path1005" />
      <path
         inkscape:connector-curvature="0"
         style="fill:#f49c00"
         d="m 325.595,668.941 0.265,0.116 c 2.383,0.545 4.687,0.869 6.905,0.988 -0.389,1.207 -0.696,2.378 -0.91,3.542 l -0.461,2.447 c 0.405,0.403 0.814,0.804 1.221,1.208 0.227,0.271 0.458,0.529 0.672,0.791 0.809,1.003 1.55,2.106 2.197,3.306 1.828,3.295 2.214,5.649 1.166,7.057 -0.041,0.05 -0.091,0.112 -0.141,0.173 -0.678,0.767 -1.577,0.94 -2.71,0.524 -0.305,-0.128 -0.632,-0.295 -0.964,-0.495 -0.12,-0.064 -0.238,-0.128 -0.359,-0.21 -0.485,-0.31 -0.963,-0.668 -1.437,-1.071 -0.435,-0.373 -0.852,-0.804 -1.239,-1.272 0.412,0.731 0.546,2.367 0.404,4.908 -0.178,2.75 -0.738,4.295 -1.689,4.597 -0.174,0.066 -0.347,0.111 -0.533,0.148 -1.133,0.255 -2.098,0.031 -2.893,-0.652 -0.534,-0.456 -0.988,-1.139 -1.36,-2.024 -0.342,-0.775 -0.636,-1.821 -0.917,-3.131 -0.221,-1.176 -0.425,-2.578 -0.588,-4.202 -0.063,0.515 -0.117,2.133 -0.137,4.859 -0.041,0.531 -0.118,1 -0.212,1.386 -0.273,1.301 -0.779,2.003 -1.517,2.084 -0.102,0.002 -0.206,0.002 -0.319,-0.006 -0.791,0.022 -1.471,-0.192 -2.072,-0.631 -0.977,-0.732 -1.677,-2.077 -2.099,-4.051 -0.255,-1.135 -0.374,-2.311 -0.341,-3.5 -10e-4,-0.02 0.004,-0.048 0.012,-0.078 -0.013,-0.13 -0.018,-0.253 -0.01,-0.365 l -0.002,-0.018 c 0.037,-0.317 0.053,-0.609 0.075,-0.866 -0.05,0.249 -0.127,0.53 -0.217,0.85 l 0.01,0.009 c -0.015,0.124 -0.042,0.239 -0.077,0.365 0.002,0.019 -0.013,0.039 -0.013,0.059 -0.115,0.539 -0.233,1.163 -0.367,1.894 -0.344,0.986 -0.944,1.593 -1.776,1.836 -0.46,0.122 -0.985,0.156 -1.565,0.091 -0.136,-0.024 -0.27,-0.049 -0.423,-0.072 -0.491,-0.11 -0.843,-0.519 -1.029,-1.235 -0.099,-0.441 -0.151,-0.964 -0.159,-1.604 0,-0.376 0.02,-0.755 0.047,-1.146 l -0.012,-0.008 c 0.144,-1.494 0.567,-3.016 1.289,-4.567 2.077,-4.487 5.55,-7.094 10.416,-7.826 0.101,-0.019 0.222,-0.04 0.352,-0.054 0.251,-0.034 0.502,-0.068 0.753,-0.104 0.141,-0.005 0.292,-0.02 0.421,-0.034 l 0.005,0.037 c 0.354,-0.035 0.729,-0.053 1.087,-0.051 0.383,-1.37 0.806,-2.702 1.251,-4.002 m 3.344,6.031 -0.007,0.028 0.007,-0.028 z"
         id="path1007" />
      <polygon
         style="fill:#9e0c28"
         points="335.842,691.435 335.852,691.444 335.833,691.446 "
         id="polygon1009" />
      <path
         inkscape:connector-curvature="0"
         style="fill:#e83827"
         d="m 318.133,668.213 c -0.481,1.003 -0.949,2.019 -1.417,3.076 6.607,2.887 13.268,4.976 19.996,6.26 0.776,-2.328 1.777,-4.521 3.009,-6.568 l -17.388,-10.312 c -1.497,2.341 -2.901,4.855 -4.2,7.544"
         id="path1011" />
      <path
         inkscape:connector-curvature="0"
         style="fill:#0076bf"
         d="m 351.169,643.201 -3.625,-3.384 c -5.241,1.806 -10.003,4.508 -14.283,8.133 -1.192,0.989 -2.342,2.06 -3.451,3.195 v 0.015 l 15.154,13.187 c 1.818,-1.805 3.891,-3.45 6.205,-4.96 v -16.186 z"
         id="path1013" />
      <path
         inkscape:connector-curvature="0"
         style="fill:#fedb00"
         d="m 329.81,651.16 v -0.015 c -2.635,2.688 -5.07,5.752 -7.289,9.217 -0.067,0.094 -0.121,0.2 -0.188,0.307 l 17.388,10.312 c 1.43,-2.394 3.182,-4.614 5.243,-6.634 L 329.81,651.16 z"
         id="path1015" />
      <path
         inkscape:connector-curvature="0"
         style="fill:none;stroke:#003c90;stroke-width:2.1400001;stroke-linecap:square;stroke-miterlimit:10"
         d="m 351.169,659.387 c -2.314,1.51 -4.387,3.155 -6.205,4.96 -2.061,2.02 -3.813,4.24 -5.243,6.634 -1.232,2.047 -2.233,4.24 -3.009,6.568 -6.728,-1.284 -13.389,-3.373 -19.996,-6.26 0.468,-1.058 0.936,-2.073 1.417,-3.076 1.299,-2.688 2.703,-5.203 4.2,-7.544 0.067,-0.106 0.121,-0.213 0.188,-0.307 2.219,-3.465 4.654,-6.528 7.289,-9.217 1.109,-1.136 2.259,-2.206 3.451,-3.195 4.28,-3.625 9.042,-6.327 14.283,-8.133 0.094,-0.039 0.201,-0.065 0.295,-0.105"
         id="path1017" />
      <path
         inkscape:connector-curvature="0"
         style="fill:#e83434"
         d="m 404.545,706.643 c 0.881,0.226 1.712,0.453 2.501,0.708 0.092,0.026 0.185,0.054 0.28,0.095 -2.942,1.777 -5.043,5.241 -6.286,10.377 l -0.081,0.374 c -0.227,1.485 -0.482,2.475 -0.775,2.971 -0.295,0.493 -0.469,0.749 -0.536,0.749 l -0.387,0.093 c -1.111,0.228 -2.273,0.254 -3.465,0.081 -1.282,-0.148 -2.568,-0.376 -3.851,-0.683 -1.057,-0.228 -2.085,-0.481 -3.115,-0.736 -1.058,-0.267 -2.088,-0.562 -3.118,-0.882 -1.257,-0.416 -2.499,-0.883 -3.744,-1.404 -0.561,-0.254 -1.285,-0.562 -2.167,-0.938 l 1.472,-11.421 17.948,-0.535 c 0.695,0.121 1.364,0.255 2.021,0.389 -2.703,2.634 -4.429,4.774 -5.164,6.446 -0.161,0.347 -0.161,0.643 -0.013,0.896 l 2.461,0.749 c 1.644,-3.185 3.65,-5.632 6.019,-7.329 M 384,712.525 c -0.615,0.615 -0.922,1.352 -0.922,2.221 0,0.871 0.307,1.605 0.922,2.206 0.602,0.615 1.338,0.925 2.208,0.925 0.869,0 1.604,-0.31 2.22,-0.925 0.614,-0.601 0.922,-1.335 0.922,-2.206 0,-0.869 -0.308,-1.605 -0.922,-2.221 -0.616,-0.614 -1.351,-0.921 -2.22,-0.921 -0.87,0 -1.606,0.307 -2.208,0.921"
         id="path1019" />
      <path
         inkscape:connector-curvature="0"
         style="fill:#ffffff"
         d="m 383.078,714.746 c 0,-0.869 0.307,-1.605 0.922,-2.221 0.602,-0.614 1.338,-0.921 2.208,-0.921 0.869,0 1.604,0.307 2.22,0.921 0.614,0.615 0.922,1.352 0.922,2.221 0,0.871 -0.308,1.605 -0.922,2.206 -0.616,0.615 -1.351,0.925 -2.22,0.925 -0.87,0 -1.606,-0.31 -2.208,-0.925 -0.615,-0.6 -0.922,-1.335 -0.922,-2.206"
         id="path1021" />
      <path
         inkscape:connector-curvature="0"
         style="fill:#ffffff"
         d="m 401.242,705.88 c 1.162,0.24 2.272,0.494 3.303,0.763 -2.369,1.697 -4.375,4.145 -6.019,7.328 l -2.461,-0.75 c -0.148,-0.252 -0.148,-0.548 0.013,-0.895 0.735,-1.672 2.461,-3.812 5.164,-6.446"
         id="path1023" />
      <path
         inkscape:connector-curvature="0"
         style="fill:#ffffff"
         d="m 407.326,707.445 c 2.901,0.921 5.163,2.004 6.781,3.222 2.928,2.194 4.385,4.601 4.385,7.235 0,0.121 0,0.255 -0.01,0.375 -0.135,2.474 -1.594,4.494 -4.375,6.058 -2.901,1.632 -6.647,2.274 -11.234,1.915 -6.435,-0.229 -13.724,-1.942 -21.882,-5.152 -1.042,-0.532 -1.471,-1.51 -1.283,-2.927 l 0.093,-0.724 c 0.882,0.375 1.606,0.684 2.167,0.938 1.245,0.521 2.487,0.988 3.744,1.404 1.03,0.32 2.06,0.615 3.118,0.882 1.028,0.255 2.058,0.509 3.115,0.736 1.283,0.307 2.569,0.534 3.851,0.683 1.192,0.173 2.354,0.146 3.465,-0.081 l 0.387,-0.093 c 0.067,0 0.241,-0.256 0.536,-0.749 0.293,-0.496 0.548,-1.485 0.775,-2.971 l 0.081,-0.374 c 1.243,-5.135 3.344,-8.599 6.286,-10.377"
         id="path1025" />
      <path
         inkscape:connector-curvature="0"
         style="fill:none;stroke:#e83927;stroke-width:2.1400001;stroke-linecap:round;stroke-linejoin:round;stroke-miterlimit:10"
         d="m 407.046,707.351 c 0.092,0.026 0.185,0.054 0.28,0.095 2.901,0.921 5.163,2.004 6.781,3.222 2.928,2.194 4.385,4.601 4.385,7.235 0,0.121 0,0.255 -0.01,0.375 -0.135,2.474 -1.594,4.494 -4.375,6.058 -2.901,1.632 -6.647,2.274 -11.234,1.915 -6.435,-0.229 -13.724,-1.942 -21.882,-5.152 -1.042,-0.532 -1.471,-1.51 -1.283,-2.927 l 0.093,-0.724 1.472,-11.421 17.948,-0.535 c 0.695,0.121 1.364,0.255 2.019,0.389 1.164,0.24 2.274,0.494 3.305,0.763 0.881,0.224 1.712,0.452 2.501,0.707 z"
         id="path1027" />
      <path
         inkscape:connector-curvature="0"
         style="fill:#a4c6e9"
         d="m 406.878,698.736 c -0.521,2.099 -1.11,4.174 -1.766,6.232 -10.016,2.073 -18.123,2.407 -24.341,0.99 l -0.094,-5.845 c 9.108,0.388 17.841,-0.065 26.201,-1.377"
         id="path1029" />
      <path
         inkscape:connector-curvature="0"
         style="fill:#5390cd"
         d="m 406.878,698.736 c -8.36,1.312 -17.093,1.765 -26.201,1.378 l -0.401,-24.034 30.052,-0.496 c -0.4,7.945 -1.55,15.662 -3.45,23.152"
         id="path1031" />
      <path
         inkscape:connector-curvature="0"
         style="fill:none;stroke:#003c90;stroke-width:2.1400001;stroke-linecap:square;stroke-miterlimit:10"
         d="m 405.112,704.969 c -10.016,2.073 -18.123,2.407 -24.341,0.99 l -0.094,-5.845 -0.401,-24.034 30.052,-0.496 c -0.4,7.945 -1.55,15.662 -3.45,23.152 -0.521,2.099 -1.11,4.174 -1.766,6.233 z"
         id="path1033" />
      <path
         inkscape:connector-curvature="0"
         style="fill:#a4c6e9"
         d="m 349.275,698.736 c 0.522,2.099 1.111,4.174 1.765,6.232 10.018,2.073 18.123,2.407 24.342,0.99 l 0.093,-5.845 c -9.108,0.388 -17.841,-0.065 -26.2,-1.377"
         id="path1035" />
      <path
         inkscape:connector-curvature="0"
         style="fill:#5390cd"
         d="m 349.275,698.736 c 8.359,1.312 17.092,1.765 26.2,1.378 l 0.402,-24.034 -30.054,-0.496 c 0.404,7.945 1.552,15.662 3.452,23.152"
         id="path1037" />
      <path
         inkscape:connector-curvature="0"
         style="fill:none;stroke:#003c90;stroke-width:2.1400001;stroke-linecap:square;stroke-miterlimit:10"
         d="m 351.04,704.969 c 10.018,2.073 18.123,2.407 24.342,0.99 l 0.093,-5.845 0.402,-24.034 -30.054,-0.496 c 0.404,7.945 1.552,15.662 3.452,23.152 0.522,2.099 1.111,4.174 1.765,6.233 z"
         id="path1039" />
      <path
         inkscape:connector-curvature="0"
         style="fill:#5390cd"
         d="m 381.455,695.573 1.443,-0.013 c 0.604,-0.228 1.485,-0.495 2.677,-0.79 v -12.892 h -14.9 l 0.08,13.187 c 1.202,0.294 2.474,0.469 3.811,0.522 l 6.875,-0.015 v -0.013 l 0.014,0.014 z"
         id="path1041" />
      <polygon
         style="fill:#003c90"
         points="381.441,695.573 374.566,695.588 374.74,697.714 381.468,697.647 "
         id="polygon1043" />
      <path
         inkscape:connector-curvature="0"
         style="fill:#0076bf"
         d="m 409.225,647.071 c -1.057,-4.695 -2.488,-9.361 -4.294,-13.978 -9.308,-2.151 -18.27,-3.288 -26.868,-3.422 h -0.081 c -8.6,0.134 -17.548,1.271 -26.871,3.422 -1.804,4.63 -3.236,9.297 -4.292,14.004 20.343,4.856 41.141,4.856 62.406,-0.026"
         id="path1045" />
      <path
         inkscape:connector-curvature="0"
         style="fill:#fedb00"
         d="m 410.79,678.233 c 0.402,-3.408 0.615,-6.808 0.654,-10.189 -22.776,4.894 -45.057,4.894 -66.846,0.013 0.041,3.369 0.255,6.769 0.655,10.177 10.688,3.09 21.6,4.615 32.729,4.548 h 0.081 c 11.126,0.067 22.041,-1.459 32.727,-4.549"
         id="path1047" />
      <path
         inkscape:connector-curvature="0"
         style="fill:#e83827"
         d="m 411.444,668.044 c 0.041,-3.504 -0.133,-6.982 -0.493,-10.447 -22.457,4.989 -44.404,5.004 -65.856,0.014 -0.363,3.464 -0.537,6.941 -0.497,10.446 21.789,4.881 44.07,4.881 66.846,-0.013"
         id="path1049" />
      <path
         inkscape:connector-curvature="0"
         style="fill:#ffffff"
         d="m 410.951,657.597 c -0.362,-3.53 -0.937,-7.034 -1.726,-10.525 -21.265,4.882 -42.063,4.882 -62.406,0.026 -0.788,3.478 -1.365,6.981 -1.724,10.513 21.452,4.99 43.399,4.975 65.856,-0.014"
         id="path1051" />
      <path
         inkscape:connector-curvature="0"
         style="fill:none;stroke:#003c90;stroke-width:2.1400001;stroke-linecap:square;stroke-miterlimit:10"
         d="m 404.931,633.094 c -9.308,-2.151 -18.27,-3.288 -26.868,-3.422 h -0.081 c -8.6,0.134 -17.548,1.271 -26.871,3.422 -1.804,4.63 -3.236,9.297 -4.292,14.004 -0.788,3.478 -1.365,6.981 -1.724,10.513 -0.363,3.464 -0.537,6.941 -0.497,10.446 0.041,3.369 0.255,6.769 0.655,10.177 10.688,3.09 21.6,4.615 32.729,4.548 h 0.081 c 11.126,0.067 22.041,-1.458 32.727,-4.548 0.402,-3.408 0.615,-6.808 0.654,-10.189 0.041,-3.504 -0.133,-6.982 -0.493,-10.447 -0.362,-3.53 -0.937,-7.034 -1.726,-10.525 -1.057,-4.697 -2.488,-9.363 -4.294,-13.979 z"
         id="path1053" />
      <path
         inkscape:connector-curvature="0"
         style="fill:#f9d300"
         d="m 407.39,631.77 c -0.681,-1.511 -1.763,-2.62 -3.263,-3.33 -17.815,-1.832 -35.268,-1.832 -52.347,0 -1.498,0.71 -2.582,1.819 -3.264,3.33 -0.574,1.312 -0.882,2.703 -0.896,4.161 -0.013,1.482 0.295,2.875 0.95,4.199 0.308,0.628 0.709,1.189 1.178,1.698 0.815,0.896 1.75,1.658 2.808,2.301 1.245,0.761 2.568,1.442 3.944,2.046 1.46,0.613 2.984,1.124 4.549,1.512 1.097,0.294 2.206,0.548 3.33,0.763 1.177,0.228 2.367,0.4 3.572,0.521 1.27,0.188 2.54,0.334 3.811,0.453 1.377,0.067 2.741,0.107 4.079,0.107 0.695,0 1.39,0 2.1,-0.014 h 0.026 c 0.709,0.014 1.406,0.014 2.101,0.014 1.337,0 2.699,-0.04 4.079,-0.107 1.27,-0.119 2.541,-0.266 3.811,-0.453 1.203,-0.121 2.394,-0.294 3.572,-0.521 1.122,-0.215 2.232,-0.469 3.33,-0.763 1.565,-0.388 3.09,-0.898 4.547,-1.512 1.377,-0.604 2.702,-1.285 3.945,-2.046 1.057,-0.643 1.994,-1.404 2.809,-2.301 0.47,-0.509 0.87,-1.07 1.177,-1.698 0.656,-1.324 0.963,-2.717 0.949,-4.199 -0.014,-1.458 -0.32,-2.85 -0.897,-4.161"
         id="path1055" />
      <path
         inkscape:connector-curvature="0"
         style="fill:none;stroke:#e83927;stroke-width:2.1400001;stroke-linecap:round;stroke-linejoin:round;stroke-miterlimit:10"
         d="m 404.127,628.439 c -17.815,-1.832 -35.268,-1.832 -52.347,0 -1.498,0.71 -2.582,1.819 -3.264,3.33 -0.574,1.312 -0.882,2.703 -0.896,4.161 -0.013,1.482 0.295,2.875 0.95,4.199 0.308,0.628 0.709,1.189 1.178,1.698 0.815,0.896 1.75,1.658 2.808,2.301 1.245,0.761 2.568,1.442 3.944,2.046 1.46,0.613 2.984,1.124 4.549,1.512 1.097,0.294 2.206,0.548 3.33,0.763 1.177,0.228 2.367,0.4 3.572,0.521 1.27,0.188 2.54,0.334 3.811,0.453 1.377,0.067 2.741,0.107 4.079,0.107 0.695,0 1.39,0 2.1,-0.014 h 0.026 c 0.709,0.014 1.406,0.014 2.101,0.014 1.337,0 2.699,-0.04 4.079,-0.107 1.27,-0.119 2.541,-0.266 3.811,-0.453 1.203,-0.121 2.394,-0.294 3.572,-0.521 1.122,-0.215 2.232,-0.469 3.33,-0.763 1.565,-0.388 3.09,-0.898 4.547,-1.512 1.377,-0.604 2.702,-1.285 3.945,-2.046 1.057,-0.643 1.994,-1.404 2.809,-2.301 0.47,-0.509 0.87,-1.07 1.177,-1.698 0.656,-1.324 0.963,-2.717 0.949,-4.199 -0.014,-1.458 -0.32,-2.85 -0.897,-4.161 -0.681,-1.51 -1.763,-2.62 -3.263,-3.33 z"
         id="path1057" />
      <path
         inkscape:connector-curvature="0"
         style="fill:#e83434"
         d="m 390.432,635.329 c -0.294,-1.059 -0.655,-2.048 -1.084,-2.958 l -2.059,0.416 c 0.95,2.421 1.579,4.721 1.872,6.888 0.295,2.153 0.523,3.303 0.684,3.45 0.388,-0.04 0.722,-0.534 1.002,-1.457 0.293,-0.924 0.375,-1.953 0.227,-3.063 -0.134,-1.125 -0.347,-2.22 -0.642,-3.276"
         id="path1059" />
      <path
         inkscape:connector-curvature="0"
         style="fill:#e83434"
         d="m 399.26,630.286 -1.939,0.963 c 1.337,2.822 2.166,5.91 2.487,9.281 0.106,1.218 0.28,1.954 0.509,2.208 0.909,-0.389 1.322,-1.767 1.229,-4.106 -0.079,-2.34 -0.695,-4.79 -1.831,-7.344 l -0.455,-1.002 z"
         id="path1061" />
      <path
         inkscape:connector-curvature="0"
         style="fill:#e83434"
         d="m 378.715,646.416 c 0.068,-0.241 0.122,-0.481 0.161,-0.711 0.068,-0.28 0.108,-0.561 0.121,-0.841 0.028,-0.281 0.04,-0.549 0.04,-0.829 v -11.423 h -2.139 v 10.513 c 0,0.629 0.014,1.244 0.052,1.872 0.013,0.31 0.055,0.628 0.107,0.938 0.215,1.002 0.51,1.63 0.87,1.858 0.322,-0.28 0.589,-0.736 0.788,-1.377"
         id="path1063" />
      <path
         inkscape:connector-curvature="0"
         style="fill:#e83434"
         d="m 366.239,632.371 c -0.429,0.91 -0.791,1.899 -1.084,2.958 -0.295,1.056 -0.51,2.151 -0.642,3.275 -0.147,1.11 -0.067,2.14 0.227,3.063 0.281,0.923 0.613,1.417 1.003,1.457 0.161,-0.147 0.388,-1.297 0.682,-3.45 0.295,-2.167 0.923,-4.467 1.873,-6.888 l -2.059,-0.415 z"
         id="path1065" />
      <path
         inkscape:connector-curvature="0"
         style="fill:#e83434"
         d="m 358.266,631.249 -1.938,-0.963 -0.456,1.002 c -1.134,2.554 -1.752,5.004 -1.831,7.344 -0.093,2.34 0.321,3.718 1.23,4.106 0.228,-0.254 0.401,-0.99 0.508,-2.208 0.321,-3.371 1.15,-6.459 2.487,-9.281"
         id="path1067" />
      <path
         inkscape:connector-curvature="0"
         style="fill:#f49c00"
         d="m 435.094,589.301 c -2.021,-2.983 -4.601,-4.48 -7.718,-4.48 -3.131,0 -5.899,1.497 -8.292,4.48 -2.395,2.982 -3.733,6.595 -4.014,10.807 -0.266,4.213 0.617,7.823 2.635,10.807 2.021,2.98 4.589,4.479 7.718,4.479 3.115,0 5.885,-1.499 8.293,-4.479 2.393,-2.983 3.729,-6.594 3.999,-10.807 0.279,-4.212 -0.602,-7.825 -2.621,-10.807"
         id="path1069" />
      <path
         inkscape:connector-curvature="0"
         style="fill:none;stroke:#e83927;stroke-width:2.1400001;stroke-linecap:round;stroke-linejoin:round;stroke-miterlimit:10"
         d="m 435.094,589.301 c 2.02,2.982 2.9,6.595 2.622,10.807 -0.27,4.213 -1.606,7.823 -3.999,10.807 -2.408,2.98 -5.179,4.479 -8.293,4.479 -3.129,0 -5.697,-1.499 -7.718,-4.479 -2.018,-2.983 -2.901,-6.594 -2.635,-10.807 0.281,-4.212 1.619,-7.824 4.014,-10.807 2.393,-2.983 5.161,-4.48 8.292,-4.48 3.116,-10e-4 5.695,1.496 7.717,4.48 z"
         id="path1071" />
      <path
         inkscape:connector-curvature="0"
         style="fill:#f49c00"
         d="m 329.768,584.82 c -3.116,0 -5.698,1.497 -7.716,4.48 -2.021,2.982 -2.904,6.595 -2.622,10.807 0.266,4.213 1.605,7.823 3.999,10.807 2.406,2.98 5.176,4.479 8.292,4.479 3.128,0 5.698,-1.499 7.718,-4.479 2.018,-2.983 2.901,-6.594 2.634,-10.807 -0.28,-4.212 -1.619,-7.824 -4.013,-10.807 -2.395,-2.983 -5.164,-4.48 -8.292,-4.48"
         id="path1073" />
      <path
         inkscape:connector-curvature="0"
         style="fill:none;stroke:#e83927;stroke-width:2.1400001;stroke-linecap:round;stroke-linejoin:round;stroke-miterlimit:10"
         d="m 322.052,589.301 c -2.021,2.982 -2.904,6.595 -2.622,10.807 0.266,4.213 1.605,7.823 3.999,10.807 2.406,2.98 5.176,4.479 8.292,4.479 3.128,0 5.698,-1.499 7.718,-4.479 2.018,-2.983 2.901,-6.594 2.634,-10.807 -0.28,-4.212 -1.619,-7.824 -4.013,-10.807 -2.395,-2.983 -5.164,-4.48 -8.292,-4.48 -3.116,-10e-4 -5.698,1.496 -7.716,4.48 z"
         id="path1075" />
      <path
         inkscape:connector-curvature="0"
         style="fill:#f49c00"
         d="m 378.492,563.328 c -13.815,0 -25.613,3.729 -35.39,11.181 -9.776,7.462 -14.657,16.477 -14.657,27.043 0,10.551 4.881,19.567 14.657,27.029 9.777,7.465 21.575,11.195 35.39,11.195 13.815,0 25.612,-3.73 35.376,-11.195 9.776,-7.462 14.67,-16.479 14.67,-27.029 0,-10.566 -4.894,-19.581 -14.67,-27.043 -9.764,-7.451 -21.561,-11.181 -35.376,-11.181"
         id="path1077" />
      <path
         inkscape:connector-curvature="0"
         style="fill:none;stroke:#e83927;stroke-width:2.1400001;stroke-linecap:round;stroke-linejoin:round;stroke-miterlimit:10"
         d="m 343.102,574.509 c -9.776,7.462 -14.657,16.477 -14.657,27.043 0,10.551 4.881,19.567 14.657,27.029 9.777,7.465 21.575,11.195 35.39,11.195 13.815,0 25.612,-3.73 35.376,-11.195 9.776,-7.462 14.67,-16.479 14.67,-27.029 0,-10.566 -4.894,-19.581 -14.67,-27.043 -9.764,-7.451 -21.561,-11.181 -35.376,-11.181 -13.815,0 -25.613,3.73 -35.39,11.181 z"
         id="path1079" />
      <path
         inkscape:connector-curvature="0"
         d="m 400.881,555.638 c 0.948,-0.055 2.314,-0.549 4.093,-1.472 1.884,-0.977 3.249,-1.538 4.065,-1.687 -1.98,-0.04 -3.571,-0.04 -4.76,0 -2.128,0.068 -4.589,0.549 -7.411,1.419 2.314,-1.646 5.471,-2.863 9.442,-3.665 -5.563,-0.923 -9.562,-1.057 -11.982,-0.4 -2.249,0.641 -4.055,1.563 -5.405,2.754 0.202,-1.403 0.762,-2.741 1.713,-4.012 0.627,-0.856 1.94,-1.993 3.931,-3.398 1.873,-1.323 2.971,-1.979 3.29,-1.979 -1.618,-0.28 -3.515,-0.2 -5.671,0.241 -4.331,0.87 -7.543,3.103 -9.629,6.686 0.054,-2.874 -1.084,-5.175 -3.424,-6.927 -0.735,-0.548 -1.511,-0.988 -2.327,-1.31 -0.801,-0.31 -1.111,-0.389 -0.936,-0.242 1.392,2.822 0.628,5.952 -2.273,9.389 -1.165,-1.243 -1.525,-3.557 -1.098,-6.928 0.389,-3.01 0.844,-4.693 1.366,-5.028 -1.339,0.535 -2.688,1.402 -4.068,2.621 -2.767,2.421 -4.131,5.256 -4.119,8.507 -1.484,-2.021 -3.705,-3.357 -6.659,-4.039 -0.094,-0.014 0.762,0.976 2.568,2.969 1.965,2.341 3.143,4.214 3.53,5.645 -1.27,-1.726 -2.781,-3.21 -4.547,-4.441 -1.725,-1.231 -3.625,-1.899 -5.697,-2.006 -1.672,-0.093 -3.706,0.2 -6.073,0.855 -0.161,0.056 0.977,0.175 3.424,0.375 1.807,0.429 3.116,1.379 3.932,2.836 0.308,0.521 0.802,1.952 1.498,4.306 -0.589,-0.682 -1.136,-1.216 -1.659,-1.604 -2.179,-1.751 -4.801,-2.515 -7.89,-2.3 -0.054,0 0.922,0.655 2.915,1.979 2.087,1.511 3.279,2.688 3.585,3.503 -1.125,-0.361 -2.206,-0.575 -3.263,-0.641 -0.628,-0.055 -1.646,-0.067 -3.05,-0.028 -3.01,0.094 -5.496,0.416 -7.436,0.963 -2.716,0.764 -4.935,2.074 -6.661,3.934 -0.107,0.106 0.494,-0.041 1.793,-0.43 0.709,-0.213 1.793,-0.439 3.236,-0.695 2.633,-0.387 4.146,-0.587 4.52,-0.587 1.712,-0.04 3.17,0.16 4.388,0.587 1.029,0.362 1.938,0.724 2.701,1.098 0.696,0.335 0.962,0.522 0.803,0.536 -1.806,-0.749 -5.042,-0.281 -9.709,1.391 -4.281,1.818 -6.381,2.715 -6.288,2.7 1.511,-0.335 3.25,-0.494 5.19,-0.481 1.336,0 3.089,0.095 5.243,0.295 -1.818,1.726 -4.615,2.647 -8.374,2.754 -3.369,-0.253 -5.161,-0.36 -5.376,-0.348 1.592,2.702 3.237,4.668 4.909,5.913 1.672,1.23 3.998,1.818 6.982,1.752 2.969,-0.066 6.794,-1.551 11.489,-4.429 l -1.017,0.911 c -2.662,2.368 -5.577,4.266 -8.775,5.67 -0.119,0.068 -0.159,0.161 -0.105,0.268 0.053,0.121 0.147,0.174 0.267,0.135 2.247,-0.281 4.547,-1.11 6.901,-2.46 1.216,-0.71 3.183,-2.102 5.912,-4.175 1.591,-1.19 3.008,-2.166 4.251,-2.901 1.245,-0.735 2.649,-1.271 4.2,-1.605 1.553,-0.333 3.253,-0.255 5.096,0.213 0.201,0.055 0.389,0.108 0.588,0.162 1.016,0.307 1.981,0.722 2.877,1.23 0.51,0.308 0.99,0.629 1.456,0.977 0.041,0.027 0.095,0.052 0.136,0.08 0.227,0.121 0.428,0.16 0.629,0.094 0.105,-0.014 0.213,-0.04 0.307,-0.067 0.681,-0.334 1.404,-0.642 2.152,-0.924 0.791,-0.306 1.58,-0.602 2.396,-0.881 0.119,-0.042 0.253,-0.095 0.374,-0.134 0.708,-0.229 1.271,-0.401 1.698,-0.522 2.367,-0.628 4.533,-0.614 6.473,0.026 1.286,0.428 2.729,1.245 4.335,2.462 0.895,0.682 2.193,1.686 3.904,3.021 2.514,1.78 5.351,2.715 8.507,2.836 0.415,0.014 0.843,0.014 1.283,0 1.833,-0.014 3.545,-0.28 5.163,-0.803 0.376,-0.106 0.803,-0.24 1.297,-0.401 1.111,-0.387 2.487,-0.936 4.133,-1.658 2.835,-1.27 4.507,-2.259 5.002,-2.969 -1.176,0.014 -2.515,-0.041 -4.012,-0.188 -2.983,-0.254 -5.191,-0.733 -6.634,-1.47 -0.923,-0.481 -1.994,-0.843 -3.183,-1.096 0.95,-0.162 1.846,-0.35 2.701,-0.562 1.217,-0.281 2.69,-1.11 4.413,-2.462 0.87,-0.682 1.753,-1.418 2.622,-2.233 0.309,-0.281 0.642,-0.723 1.017,-1.351 0.014,-0.04 -1.673,0.067 -5.056,0.293 -3.838,0.283 -6.433,0.268 -7.785,-0.052 l -1.336,-0.296 0.882,-0.186 c 1.566,-0.375 3.264,-1.699 5.083,-3.986 1.564,-1.939 2.367,-3.249 2.408,-3.905 -1.552,0.575 -3.358,1.109 -5.405,1.605 -4.173,1.012 -7.503,1.134 -9.976,0.373"
         id="path1081" />
      <path
         inkscape:connector-curvature="0"
         style="fill:#e83434"
         d="m 406.692,617.062 c -4.278,2.874 -9.108,4.854 -14.47,5.924 -5.363,1.058 -9.965,1.592 -13.776,1.592 -3.827,0 -8.427,-0.534 -13.789,-1.592 -5.365,-1.069 -10.192,-3.05 -14.472,-5.924 8.775,7.275 18.189,10.792 28.234,10.565 10.072,0.227 19.486,-3.29 28.273,-10.565"
         id="path1083" />
      <path
         inkscape:connector-curvature="0"
         style="fill:#ffffff"
         d="m 387.286,579.791 c -3.438,0.842 -5.792,2.661 -7.063,5.483 -1.243,2.822 -1.042,5.79 0.616,8.907 1.673,3.116 4.321,5.497 7.945,7.115 3.598,1.617 7.127,2.007 10.592,1.149 3.425,-0.843 5.764,-2.66 7.036,-5.482 1.27,-2.823 1.056,-5.792 -0.617,-8.908 -1.672,-3.144 -4.32,-5.51 -7.943,-7.114 -3.599,-1.619 -7.129,-2.005 -10.566,-1.15"
         id="path1085" />
      <path
         inkscape:connector-curvature="0"
         style="fill:#ffffff"
         d="m 375.596,585.274 c -1.27,-2.822 -3.623,-4.642 -7.062,-5.483 -3.437,-0.855 -6.968,-0.469 -10.593,1.15 -3.597,1.604 -6.246,3.971 -7.917,7.114 -1.658,3.116 -1.858,6.085 -0.615,8.908 1.27,2.822 3.626,4.64 7.062,5.482 3.437,0.857 6.968,0.468 10.566,-1.149 3.624,-1.618 6.273,-3.999 7.945,-7.115 1.658,-3.142 1.859,-6.112 0.614,-8.907"
         id="path1087" />
      <path
         inkscape:connector-curvature="0"
         d="m 385.725,586.935 c 0.986,-1.171 2.228,-1.818 3.746,-1.94 1.517,-0.122 2.848,0.298 4.02,1.259 1.174,0.987 1.821,2.227 1.941,3.745 0.122,1.518 -0.298,2.851 -1.258,4.021 -0.988,1.186 -2.227,1.847 -3.745,1.968 -1.518,0.123 -2.849,-0.297 -4.022,-1.286 -1.187,-0.987 -1.846,-2.225 -1.968,-3.744 -0.121,-1.518 0.298,-2.85 1.286,-4.023"
         id="path1089" />
      <path
         inkscape:connector-curvature="0"
         d="m 369.755,586.935 c -0.988,-1.171 -2.227,-1.818 -3.746,-1.94 -1.516,-0.122 -2.85,0.298 -4.021,1.259 -1.173,0.987 -1.82,2.227 -1.941,3.745 -0.122,1.518 0.297,2.851 1.258,4.021 0.987,1.186 2.227,1.847 3.744,1.968 1.519,0.123 2.85,-0.297 4.024,-1.286 1.186,-0.987 1.846,-2.225 1.969,-3.744 0.12,-1.518 -0.299,-2.85 -1.287,-4.023"
         id="path1091" />
      <path
         inkscape:connector-curvature="0"
         style="fill:#e83827"
         d="m 386.864,596.807 c -2.393,-2.409 -5.282,-3.611 -8.665,-3.611 -3.385,0 -6.272,1.202 -8.666,3.611 -2.41,2.395 -3.612,5.283 -3.612,8.666 0,3.384 1.202,6.273 3.612,8.667 2.394,2.407 5.281,3.61 8.666,3.61 3.383,0 6.272,-1.203 8.665,-3.61 2.41,-2.394 3.613,-5.283 3.613,-8.667 0,-3.383 -1.203,-6.272 -3.613,-8.666"
         id="path1093" />
    </g>
  </g>
</svg>
