<?xml version="1.0" encoding="UTF-8" standalone="no"?>
<!-- Created with Inkscape (http://www.inkscape.org/) -->

<svg
   xmlns:dc="http://purl.org/dc/elements/1.1/"
   xmlns:cc="http://creativecommons.org/ns#"
   xmlns:rdf="http://www.w3.org/1999/02/22-rdf-syntax-ns#"
   xmlns:svg="http://www.w3.org/2000/svg"
   xmlns="http://www.w3.org/2000/svg"
   xmlns:sodipodi="http://sodipodi.sourceforge.net/DTD/sodipodi-0.dtd"
   xmlns:inkscape="http://www.inkscape.org/namespaces/inkscape"
   width="135.61905"
   height="183.07397"
   id="svg5696"
   version="1.1"
   inkscape:version="0.48.4 r9939"
   sodipodi:docname="ernie5.svg">
  <defs
     id="defs5698">
    <clipPath
       id="SVGID_2_">
      <rect
         height="88.862999"
         width="111.498"
         y="518.96198"
         x="382.04999"
         id="use1087" />
    </clipPath>
    <clipPath
       id="SVGID_4_">
      <rect
         height="41.314999"
         width="49.584999"
         y="525.19397"
         x="389.84698"
         id="use1111" />
    </clipPath>
  </defs>
  <sodipodi:namedview
     id="base"
     pagecolor="#ffffff"
     bordercolor="#666666"
     borderopacity="1.0"
     inkscape:pageopacity="0.0"
     inkscape:pageshadow="2"
     inkscape:zoom="0.77472527"
     inkscape:cx="34.117152"
     inkscape:cy="213.51635"
     inkscape:current-layer="layer1"
     inkscape:document-units="px"
     showgrid="false"
     inkscape:window-width="763"
     inkscape:window-height="591"
     inkscape:window-x="592"
     inkscape:window-y="97"
     inkscape:window-maximized="0"
     fit-margin-top="0"
     fit-margin-left="0"
     fit-margin-right="0"
     fit-margin-bottom="0" />
  <metadata
     id="metadata5701">
    <rdf:RDF>
      <cc:Work
         rdf:about="">
        <dc:format>image/svg+xml</dc:format>
        <dc:type
           rdf:resource="http://purl.org/dc/dcmitype/StillImage" />
        <dc:title></dc:title>
      </cc:Work>
    </rdf:RDF>
  </metadata>
  <g
     id="layer1"
     inkscape:label="Layer 1"
     inkscape:groupmode="layer"
     transform="translate(-283.82614,-115.54875)">
    <g
       transform="translate(187.68439,-195.36525)"
       id="g269">
      <path
         inkscape:connector-curvature="0"
         style="fill:#e83434"
         d="m 122.384,416.829 c 0.187,0.196 0.421,0.3 0.689,0.306 0.28,0.014 0.52,-0.064 0.721,-0.235 l 7.97,-6.832 c 0.191,-0.176 0.311,-0.388 0.342,-0.644 0.04,-0.253 -0.016,-0.481 -0.162,-0.699 l -6.006,-9.128 c 0.242,-1.551 0.216,-3.168 -0.101,-4.832 l 0.012,0.005 c -0.691,-3.786 -2.577,-6.788 -5.669,-8.999 -0.198,-0.143 -0.415,-0.281 -0.62,-0.414 l -0.999,1.971 c 0.405,0.249 0.843,0.543 1.31,0.864 2.056,1.399 3.375,3.715 3.958,6.945 0.307,1.63 0.311,3.207 -0.005,4.709 -0.042,0.222 -0.021,0.434 0.065,0.634 0.084,0.199 0.238,0.351 0.426,0.459 0.034,0.018 0.057,0.03 0.091,0.047 l 5.341,8.116 -6.553,5.618 -5.98,-6.207 c -0.13,-0.138 -0.284,-0.229 -0.472,-0.281 -0.177,-0.048 -0.36,-0.055 -0.548,0.008 -1.288,0.364 -2.666,0.569 -4.135,0.614 l 0.012,0.005 c -1.274,0.028 -2.386,-0.378 -3.319,-1.222 l 0.011,0.006 c -0.108,-0.099 -0.227,-0.202 -0.342,-0.288 l -0.952,1.882 c 1.32,1.153 2.871,1.711 4.654,1.668 l 0.006,-0.012 c 1.422,-0.039 2.773,-0.214 4.036,-0.533 l 6.219,6.469 z"
         id="path271" />
      <path
         inkscape:connector-curvature="0"
         style="fill:#e83434"
         d="m 115.207,395.254 c -0.108,0.101 -0.366,0.186 -0.783,0.248 l -3.341,6.599 c 2.256,-2.137 3.057,-3.636 2.393,-4.502 0.074,-0.005 0.143,-0.028 0.206,-0.038 1.043,-0.676 1.767,-1.513 2.178,-2.492 -0.182,-0.093 -0.4,-0.031 -0.653,0.185"
         id="path273" />
      <path
         inkscape:connector-curvature="0"
         style="fill:#e83434"
         d="m 111.083,402.101 3.341,-6.599 c -0.498,0.076 -1.229,0.136 -2.172,0.159 -1.252,0.068 -2.405,-0.201 -3.482,-0.789 l -0.011,-0.006 c -1.27,-0.715 -2.037,-1.719 -2.287,-3.004 -0.161,-0.957 -0.019,-1.858 0.453,-2.707 l 0.029,-0.057 c 0.161,-0.291 0.358,-0.564 0.581,-0.837 l 0.018,-0.005 c 1.005,-1.196 2.34,-1.938 4.016,-2.248 0.555,-0.107 1.086,-0.139 1.594,-0.125 0.012,0.006 0.023,0.013 0.041,0.006 0.04,0.007 0.068,0.007 0.096,0.007 0.635,0.021 0.983,-0.019 1.064,-0.091 0.08,-0.074 0.509,-0.044 1.285,0.092 0.593,0.1 1.567,0.578 2.912,1.43 l 0.999,-1.971 c -1.259,-0.796 -2.61,-1.321 -4.043,-1.574 -0.474,0.117 -0.995,0.155 -1.573,0.105 -0.318,-0.047 -0.533,-0.584 -0.653,-1.618 -0.103,-1.042 -0.664,-3.244 -1.67,-6.603 -1.431,-2.916 -3.429,-4.199 -6.008,-3.83 l 0.011,0.006 c -2.452,0.291 -4.188,1.144 -5.217,2.556 l -0.007,0.01 c -1.143,1.383 -1.127,3.756 0.027,7.104 0.873,2.489 2.021,4.802 3.434,6.908 -1.253,0.41 -2.376,1.045 -3.38,1.925 -1.401,1.21 -2.009,2.806 -1.819,4.778 0.006,0.018 0,0.028 -0.006,0.04 -0.018,0.035 -0.041,0.08 -0.052,0.132 -0.373,0.341 -0.793,0.831 -1.265,1.449 -1.271,1.69 -1.525,3.496 -0.786,5.431 0.761,1.918 1.537,3.213 2.34,3.863 0.813,0.655 1.234,0.981 1.246,0.989 0.012,0.005 0.023,0.012 0.034,0.016 0.012,0.006 0.035,0.019 0.046,0.024 l 0.022,0.012 c 0.012,0.005 0.035,0.016 0.046,0.021 l 0.012,0.007 c 1.282,0.664 2.623,0.955 4.007,0.854 0.016,-0.006 0.027,0 0.039,0.006 0.103,-0.006 0.195,-0.016 0.268,-0.021 l 0.018,-0.006 c 0.017,-0.006 0.028,0 0.04,0.006 l 0.017,-0.006 c 0.908,-0.014 1.809,0.386 2.685,1.203 0.029,0.026 0.069,0.062 0.096,0.092 l 0.952,-1.882 c -0.164,-0.155 -0.352,-0.292 -0.535,-0.414 0.384,-0.191 0.746,-0.424 1.084,-0.669 l 1.287,-2.542 c 0.053,-0.302 0.083,-0.616 0.102,-0.966 0.258,-0.224 0.5,-0.446 0.724,-0.661 m 0.737,-18.2 c -0.201,0.027 -0.4,0.054 -0.606,0.094 l -0.018,0.006 c -2.167,0.405 -3.909,1.385 -5.214,2.945 l 0.006,-0.011 c -0.086,0.111 -0.167,0.215 -0.264,0.321 -0.086,-0.028 -0.16,-0.051 -0.234,-0.074 -1.293,-1.943 -2.328,-4.057 -3.133,-6.342 -0.856,-2.466 -0.951,-4.203 -0.312,-5.211 l -0.011,-0.006 c 0.777,-0.967 2.048,-1.555 3.826,-1.758 1.664,-0.146 2.972,0.746 3.928,2.705 l -0.011,-0.006 c 0.928,2.834 1.462,4.664 1.589,5.518 0.139,0.829 0.289,1.435 0.454,1.819 m -7.584,22.022 c -0.018,0.005 -0.018,0.005 -0.035,0.011 -1.023,0.069 -2.016,-0.147 -2.968,-0.645 l -0.011,-0.005 c -0.012,-0.007 -0.033,-0.018 -0.057,-0.029 -0.012,-0.004 -0.012,-0.004 -0.022,-0.012 -0.013,-0.006 -0.035,-0.018 -0.047,-0.021 -1.444,-1.361 -2.386,-2.641 -2.802,-3.825 -0.412,-1.196 -0.206,-2.311 0.628,-3.362 l 0.264,-0.382 0.326,0.008 0.611,1.282 c 0.37,1.162 0.851,2.05 1.443,2.664 0.591,0.615 1.456,1.167 2.603,1.646 1.157,0.487 2.271,0.607 3.329,0.355 0.097,-0.023 0.195,-0.046 0.275,-0.062 -0.011,0.953 -0.672,1.635 -1.976,2.063 -0.458,0.141 -0.898,0.247 -1.339,0.296 -0.016,0.006 -0.045,0.006 -0.063,0.011 -0.045,0.007 -0.103,0.007 -0.159,0.007 m 2.307,-4.33 c -1.098,0.044 -1.999,-0.241 -2.699,-0.867 -0.699,-0.626 -1.137,-1.146 -1.322,-1.569 -0.788,-1.418 -1.34,-2.985 -1.662,-4.694 -0.082,-0.887 0.202,-1.674 0.862,-2.328 0.839,-0.835 1.722,-1.42 2.677,-1.752 -0.066,0.611 -0.046,1.223 0.066,1.852 0.344,1.893 1.433,3.361 3.291,4.416 l 0.011,0.006 c 0.245,0.139 0.496,0.265 0.741,0.376 l 0.633,0.249 c 0.674,0.227 1.375,0.366 2.106,0.421 0.096,0.291 0.243,0.596 0.458,0.936 0.05,0.267 -0.192,0.689 -0.709,1.286 -0.12,0.097 -0.235,0.182 -0.361,0.261 -0.487,0.283 -0.986,0.562 -1.472,0.815 -0.648,0.344 -1.517,0.533 -2.62,0.592"
         id="path275" />
      <path
         inkscape:connector-curvature="0"
         style="fill:#e83434"
         d="m 108.97,406.271 0.017,-0.006 c 0.66,-0.453 1.086,-1.298 1.27,-2.536 l -1.287,2.542 z"
         id="path277" />
      <path
         inkscape:connector-curvature="0"
         style="fill:#f49c00"
         d="m 123.194,414.72 6.553,-5.618 -5.341,-8.116 c -0.034,-0.017 -0.057,-0.029 -0.091,-0.047 -0.188,-0.108 -0.342,-0.26 -0.426,-0.459 -0.086,-0.2 -0.107,-0.412 -0.065,-0.634 0.316,-1.502 0.312,-3.079 0.005,-4.709 -0.583,-3.23 -1.902,-5.546 -3.958,-6.945 -2.044,-1.392 -3.446,-2.159 -4.222,-2.294 -0.776,-0.136 -1.205,-0.166 -1.285,-0.092 -0.081,0.072 -0.429,0.111 -1.064,0.091 -0.028,0 -0.056,0 -0.096,-0.007 -0.018,0.007 -0.029,0 -0.041,-0.006 -0.508,-0.014 -1.039,0.018 -1.594,0.125 -1.676,0.311 -3.011,1.052 -4.016,2.248 l -0.018,0.005 c -0.223,0.272 -0.42,0.546 -0.581,0.837 l -0.029,0.057 c -0.472,0.849 -0.614,1.75 -0.453,2.707 0.25,1.285 1.017,2.289 2.287,3.004 l 0.011,0.006 c 1.077,0.588 2.23,0.857 3.482,0.789 1.732,-0.053 2.714,-0.186 2.955,-0.407 0.253,-0.216 0.471,-0.278 0.653,-0.186 -0.411,0.979 -1.135,1.816 -2.178,2.492 -0.063,0.01 -0.131,0.033 -0.206,0.038 0.721,0.952 -0.322,2.672 -3.117,5.165 -0.106,1.767 -0.551,2.93 -1.372,3.502 -0.338,0.245 -0.711,0.472 -1.101,0.675 0.303,0.194 0.599,0.432 0.877,0.702 l -0.011,-0.006 c 0.933,0.844 2.045,1.25 3.319,1.222 l -0.012,-0.005 c 1.469,-0.045 2.847,-0.25 4.135,-0.614 0.188,-0.062 0.371,-0.056 0.548,-0.008 0.188,0.052 0.342,0.144 0.472,0.281 l 5.98,6.207 z"
         id="path279" />
      <path
         inkscape:connector-curvature="0"
         style="fill:#f49c00"
         d="m 101.096,405.222 c 0.012,0.004 0.034,0.016 0.047,0.021 0.01,0.008 0.01,0.008 0.022,0.012 0.024,0.012 0.045,0.022 0.057,0.029 l 0.011,0.005 c 0.952,0.497 1.945,0.714 2.968,0.645 0.017,-0.006 0.017,-0.006 0.035,-0.011 0.056,0 0.114,0 0.159,-0.006 0.018,-0.005 0.047,-0.005 0.063,-0.011 0.441,-0.049 0.881,-0.155 1.339,-0.296 1.304,-0.429 1.965,-1.11 1.976,-2.063 -0.08,0.016 -0.178,0.038 -0.275,0.062 -1.058,0.252 -2.172,0.132 -3.329,-0.355 -1.147,-0.479 -2.012,-1.031 -2.603,-1.646 -0.592,-0.614 -1.073,-1.502 -1.443,-2.664 l -0.611,-1.282 -0.326,-0.008 -0.264,0.382 c -0.834,1.052 -1.04,2.166 -0.628,3.362 0.416,1.183 1.358,2.462 2.802,3.824"
         id="path281" />
      <path
         inkscape:connector-curvature="0"
         style="fill:#f49c00"
         d="m 106.543,401.593 c 1.103,-0.059 1.972,-0.248 2.62,-0.594 0.486,-0.254 0.985,-0.532 1.472,-0.815 0.126,-0.079 0.241,-0.164 0.361,-0.261 0.517,-0.597 0.759,-1.02 0.709,-1.286 -0.215,-0.34 -0.362,-0.645 -0.458,-0.936 -0.731,-0.055 -1.432,-0.194 -2.106,-0.421 l -0.633,-0.249 c -0.245,-0.111 -0.496,-0.237 -0.741,-0.376 l -0.011,-0.006 c -1.858,-1.055 -2.947,-2.523 -3.291,-4.416 -0.112,-0.629 -0.132,-1.24 -0.066,-1.852 -0.955,0.332 -1.838,0.917 -2.677,1.752 -0.66,0.654 -0.944,1.441 -0.862,2.328 0.322,1.709 0.874,3.276 1.662,4.694 0.185,0.423 0.623,0.943 1.322,1.569 0.7,0.628 1.601,0.913 2.699,0.869"
         id="path283" />
      <path
         inkscape:connector-curvature="0"
         style="fill:#f49c00"
         d="m 111.82,383.901 c -0.165,-0.385 -0.315,-0.99 -0.454,-1.818 -0.127,-0.854 -0.661,-2.684 -1.589,-5.518 l 0.011,0.006 c -0.956,-1.959 -2.264,-2.851 -3.928,-2.705 -1.778,0.203 -3.049,0.791 -3.826,1.758 l 0.011,0.006 c -0.639,1.008 -0.544,2.745 0.312,5.211 0.805,2.285 1.84,4.398 3.133,6.342 0.074,0.023 0.148,0.046 0.234,0.074 0.097,-0.106 0.178,-0.21 0.264,-0.321 l -0.006,0.011 c 1.305,-1.561 3.047,-2.54 5.214,-2.945 l 0.018,-0.006 c 0.206,-0.041 0.405,-0.067 0.606,-0.095"
         id="path285" />
      <path
         inkscape:connector-curvature="0"
         style="fill:#003c90"
         d="m 111.649,412.006 c -0.029,0.246 0.03,0.464 0.167,0.667 9.879,14.86 22.258,21.03 37.159,18.495 0.193,-0.046 0.371,-0.13 0.534,-0.277 0.15,-0.148 0.248,-0.319 0.292,-0.514 l 4.222,-18.054 c 0.058,-0.209 0.037,-0.415 -0.047,-0.619 -0.085,-0.216 -0.221,-0.379 -0.407,-0.489 -0.184,-0.11 -0.38,-0.168 -0.6,-0.16 -11.97,0.58 -19.99,-3.791 -24.085,-13.102 -0.098,-0.203 -0.232,-0.354 -0.417,-0.463 -0.186,-0.122 -0.382,-0.18 -0.601,-0.16 -0.219,0.021 -0.41,0.092 -0.573,0.228 -5.549,4.375 -10.677,8.981 -15.355,13.831 -0.175,0.172 -0.271,0.371 -0.289,0.617 m 19.899,-6.089 c 0.013,0.014 0.013,0.014 0.026,0.026 0.014,0.012 0.028,0.037 0.041,0.049 0.202,0.227 0.416,0.439 0.644,0.65 1.595,1.561 3.425,2.854 5.479,3.854 0.263,0.134 0.526,0.253 0.802,0.372 l 0.013,0.013 c 0.014,0.013 0.04,0.013 0.066,0.023 3.679,1.616 8.039,2.367 13.093,2.264 l -3.762,16.057 c -5.958,0.871 -11.477,0.265 -16.583,-1.817 -0.013,-0.012 -0.04,-0.024 -0.052,-0.022 -4.149,-1.716 -8.009,-4.411 -11.58,-8.088 -0.013,-0.011 -0.04,-0.024 -0.054,-0.036 -1.974,-2.051 -3.868,-4.402 -5.682,-7.043 4.181,-4.262 8.693,-8.341 13.548,-12.226 1.102,2.265 2.427,4.234 4.001,5.924"
         id="path287" />
      <path
         inkscape:connector-curvature="0"
         style="fill:#fedb00"
         d="m 131.574,405.943 c -0.013,-0.013 -0.013,-0.013 -0.026,-0.026 -0.025,0.041 -0.037,0.08 -0.048,0.119 l -11.819,13.226 c 0.014,0.012 0.041,0.025 0.054,0.036 3.571,3.677 7.431,6.372 11.58,8.088 0.012,-0.002 0.038,0.011 0.052,0.022 l 2.369,-5.399 c 0.05,-0.054 0.087,-0.106 0.111,-0.172 0.01,-0.052 0.009,-0.091 0.02,-0.131 l 4.752,-10.801 c -0.026,-0.011 -0.052,-0.011 -0.066,-0.023 l -0.012,0.025 c 0,-0.013 0,-0.025 -0.001,-0.038 -0.276,-0.119 -0.539,-0.238 -0.802,-0.372 -2.054,-1.001 -3.884,-2.294 -5.479,-3.854 -0.228,-0.211 -0.442,-0.424 -0.644,-0.65 -0.013,-0.013 -0.027,-0.038 -0.041,-0.05 m -7.012,7.984 -0.013,-0.013 0.013,-0.025 c 0,0.012 0,0.025 0,0.038 m 6.906,-7.684 -0.04,-0.036 0.05,-0.054 c -0.012,0.027 -0.011,0.052 -0.01,0.09 m 6.798,5.295 -0.223,-0.096 c 0.116,-0.004 0.218,-0.032 0.307,-0.101 l -0.084,0.197 z m -4.691,10.684 -0.196,-0.084 c 0.103,-0.004 0.192,-0.02 0.255,-0.062 l -0.059,0.146 z"
         id="path289" />
      <path
         inkscape:connector-curvature="0"
         style="fill:#e83827"
         d="m 131.5,406.036 c 0.011,-0.039 0.023,-0.078 0.048,-0.119 -1.574,-1.69 -2.899,-3.659 -4.001,-5.924 -4.855,3.885 -9.367,7.964 -13.548,12.226 1.814,2.641 3.708,4.992 5.682,7.043 L 131.5,406.036 z"
         id="path291" />
      <path
         inkscape:connector-curvature="0"
         style="fill:#0076bf"
         d="m 151.712,413.169 c -5.054,0.104 -9.414,-0.647 -13.093,-2.264 l -4.752,10.801 c -0.011,0.04 -0.01,0.079 -0.02,0.131 -0.024,0.065 -0.061,0.118 -0.111,0.172 l -2.369,5.399 c 5.106,2.082 10.625,2.688 16.583,1.817 l 3.762,-16.056 z"
         id="path293" />
      <path
         inkscape:connector-curvature="0"
         style="fill:#e83434"
         d="m 149.487,469.383 c -0.676,0.116 -1.326,0.246 -1.963,0.376 2.627,2.562 4.306,4.645 5.021,6.271 0.156,0.338 0.156,0.624 0.013,0.87 l -2.394,0.729 c -1.599,-3.096 -3.55,-5.477 -5.852,-7.128 -0.859,0.222 -1.666,0.442 -2.434,0.689 -0.09,0.025 -0.182,0.052 -0.272,0.091 2.861,1.729 4.903,5.099 6.114,10.093 l 0.078,0.365 c 0.221,1.442 0.467,2.405 0.753,2.887 0.287,0.481 0.456,0.729 0.521,0.729 l 0.377,0.092 c 1.079,0.22 2.211,0.245 3.369,0.076 1.248,-0.143 2.497,-0.363 3.746,-0.662 1.027,-0.222 2.028,-0.469 3.03,-0.717 1.028,-0.26 2.029,-0.545 3.031,-0.857 1.223,-0.403 2.433,-0.859 3.642,-1.366 0.546,-0.247 1.248,-0.547 2.107,-0.91 l -1.431,-11.107 -17.456,-0.521 z m 14.803,6.842 c 0.598,0.597 0.897,1.313 0.897,2.158 0,0.846 -0.299,1.562 -0.897,2.146 -0.585,0.599 -1.301,0.897 -2.147,0.897 -0.845,0 -1.561,-0.299 -2.158,-0.897 -0.599,-0.585 -0.898,-1.301 -0.898,-2.146 0,-0.845 0.299,-1.562 0.898,-2.158 0.597,-0.599 1.313,-0.898 2.158,-0.898 0.846,-10e-4 1.562,0.299 2.147,0.898"
         id="path295" />
      <path
         inkscape:connector-curvature="0"
         style="fill:#ffffff"
         d="m 165.187,478.383 c 0,-0.845 -0.299,-1.562 -0.897,-2.158 -0.585,-0.599 -1.301,-0.898 -2.147,-0.898 -0.845,0 -1.561,0.3 -2.158,0.898 -0.599,0.597 -0.898,1.313 -0.898,2.158 0,0.846 0.299,1.562 0.898,2.146 0.597,0.599 1.313,0.897 2.158,0.897 0.846,0 1.562,-0.299 2.147,-0.897 0.598,-0.585 0.897,-1.3 0.897,-2.146"
         id="path297" />
      <path
         inkscape:connector-curvature="0"
         style="fill:#ffffff"
         d="m 147.524,469.759 c -1.132,0.235 -2.211,0.482 -3.212,0.742 2.302,1.651 4.253,4.032 5.852,7.128 l 2.394,-0.729 c 0.143,-0.246 0.143,-0.532 -0.013,-0.87 -0.715,-1.627 -2.394,-3.709 -5.021,-6.271"
         id="path299" />
      <path
         inkscape:connector-curvature="0"
         style="fill:#ffffff"
         d="m 141.606,471.281 c -2.823,0.896 -5.02,1.951 -6.595,3.135 -2.849,2.134 -4.266,4.475 -4.266,7.036 0,0.118 0,0.248 0.013,0.365 0.13,2.405 1.547,4.37 4.253,5.892 2.823,1.587 6.464,2.212 10.926,1.86 6.257,-0.222 13.345,-1.887 21.279,-5.009 1.015,-0.519 1.431,-1.469 1.249,-2.848 l -0.091,-0.702 c -0.859,0.363 -1.561,0.663 -2.107,0.91 -1.209,0.507 -2.419,0.963 -3.642,1.366 -1.002,0.312 -2.003,0.598 -3.031,0.857 -1.002,0.248 -2.003,0.495 -3.03,0.717 -1.249,0.299 -2.498,0.52 -3.746,0.662 -1.158,0.169 -2.289,0.144 -3.369,-0.076 l -0.377,-0.092 c -0.065,0 -0.234,-0.248 -0.521,-0.729 -0.286,-0.481 -0.532,-1.444 -0.753,-2.887 l -0.078,-0.365 c -1.211,-4.993 -3.253,-8.362 -6.114,-10.092"
         id="path301" />
      <path
         inkscape:connector-curvature="0"
         style="fill:none;stroke:#e83927;stroke-width:2.08100009;stroke-linecap:round;stroke-linejoin:round;stroke-miterlimit:10"
         d="m 147.524,469.759 c -1.132,0.235 -2.211,0.482 -3.212,0.742 -0.859,0.222 -1.666,0.442 -2.434,0.689 -0.09,0.025 -0.182,0.052 -0.272,0.091 -2.823,0.896 -5.02,1.951 -6.595,3.135 -2.849,2.134 -4.266,4.475 -4.266,7.036 0,0.118 0,0.248 0.013,0.365 0.13,2.405 1.547,4.37 4.253,5.892 2.823,1.587 6.464,2.212 10.926,1.86 6.257,-0.222 13.345,-1.887 21.279,-5.009 1.015,-0.519 1.431,-1.469 1.249,-2.848 l -0.091,-0.702 -1.431,-11.107 -17.456,-0.521 c -0.676,0.117 -1.326,0.247 -1.963,0.377 z"
         id="path303" />
      <path
         inkscape:connector-curvature="0"
         style="fill:#a4c6e9"
         d="m 142.596,464.633 c 0.309,2.081 0.685,4.142 1.126,6.195 9.5,2.942 17.312,4.022 23.463,3.23 l 0.635,-5.647 c -8.849,-0.475 -17.257,-1.73 -25.224,-3.778"
         id="path305" />
      <path
         inkscape:connector-curvature="0"
         style="fill:#5390cd"
         d="m 142.596,464.633 c 7.967,2.048 16.375,3.303 25.224,3.778 l 2.633,-23.218 -29.034,-3.286 c -0.353,7.726 0.039,15.302 1.177,22.726"
         id="path307" />
      <path
         inkscape:connector-curvature="0"
         style="fill:none;stroke:#003c90;stroke-width:2.07999992;stroke-linecap:square;stroke-miterlimit:10"
         d="m 143.722,470.828 c 9.5,2.942 17.312,4.022 23.463,3.23 l 0.635,-5.647 2.633,-23.218 -29.034,-3.286 c -0.353,7.726 0.039,15.302 1.177,22.726 0.309,2.081 0.685,4.141 1.126,6.195 z"
         id="path309" />
      <path
         inkscape:connector-curvature="0"
         style="fill:#e83434"
         d="m 176.728,472.83 c -0.684,0.104 -1.343,0.219 -1.988,0.335 2.447,2.611 3.977,4.725 4.58,6.361 0.132,0.341 0.112,0.626 -0.048,0.869 l -2.439,0.675 c -1.385,-3.121 -3.167,-5.538 -5.352,-7.234 -0.872,0.201 -1.693,0.405 -2.476,0.634 -0.093,0.023 -0.185,0.048 -0.28,0.086 2.739,1.786 4.545,5.191 5.407,10.198 l 0.053,0.366 c 0.121,1.444 0.301,2.409 0.554,2.896 0.252,0.486 0.404,0.735 0.468,0.737 l 0.371,0.098 c 1.063,0.245 2.191,0.296 3.358,0.152 1.258,-0.116 2.52,-0.311 3.786,-0.583 1.041,-0.196 2.059,-0.423 3.076,-0.647 1.044,-0.237 2.064,-0.502 3.085,-0.79 1.249,-0.377 2.488,-0.805 3.731,-1.285 0.563,-0.234 1.285,-0.519 2.167,-0.862 l -0.66,-11.11 -17.393,-0.896 z m 14.306,-1.519 c 0.556,0.609 0.805,1.33 0.747,2.174 -0.059,0.844 -0.407,1.55 -1.045,2.12 -0.626,0.585 -1.36,0.868 -2.205,0.851 -0.844,-0.02 -1.537,-0.332 -2.093,-0.942 -0.558,-0.597 -0.806,-1.316 -0.748,-2.159 0.058,-0.844 0.406,-1.552 1.046,-2.134 0.638,-0.585 1.373,-0.868 2.217,-0.851 0.844,0.018 1.537,0.332 2.081,0.941"
         id="path311" />
      <path
         inkscape:connector-curvature="0"
         style="fill:#ffffff"
         d="m 191.781,482.146 c 0.058,-0.844 -0.191,-1.564 -0.747,-2.174 -0.544,-0.608 -1.237,-0.923 -2.081,-0.941 -0.844,-0.018 -1.579,0.266 -2.217,0.851 -0.64,0.582 -0.988,1.29 -1.046,2.134 -0.058,0.844 0.19,1.562 0.748,2.159 0.556,0.61 1.249,0.924 2.093,0.942 0.845,0.018 1.579,-0.266 2.205,-0.851 0.638,-0.57 0.986,-1.276 1.045,-2.12"
         id="path313" />
      <path
         inkscape:connector-curvature="0"
         style="fill:#ffffff"
         d="m 174.74,473.165 c -1.146,0.209 -2.241,0.433 -3.259,0.671 2.185,1.696 3.968,4.113 5.352,7.234 l 2.439,-0.675 c 0.16,-0.243 0.18,-0.528 0.048,-0.869 -0.603,-1.636 -2.133,-3.75 -4.58,-6.361"
         id="path315" />
      <path
         inkscape:connector-curvature="0"
         style="fill:#ffffff"
         d="m 168.725,474.556 c -2.88,0.833 -5.147,1.839 -6.8,2.985 -2.992,2.066 -4.569,4.371 -4.746,6.927 -0.009,0.116 -0.017,0.247 -0.013,0.364 -0.036,2.403 1.244,4.392 3.84,5.968 2.709,1.644 6.302,2.345 10.78,2.09 6.263,-0.086 13.456,-1.594 21.594,-4.538 1.049,-0.496 1.53,-1.435 1.443,-2.812 l -0.042,-0.703 c -0.882,0.344 -1.604,0.628 -2.167,0.862 -1.243,0.48 -2.482,0.908 -3.731,1.285 -1.021,0.288 -2.041,0.553 -3.085,0.79 -1.017,0.225 -2.035,0.451 -3.076,0.647 -1.266,0.272 -2.528,0.467 -3.786,0.583 -1.167,0.144 -2.295,0.093 -3.358,-0.152 l -0.37,-0.098 c -0.065,-0.002 -0.217,-0.251 -0.469,-0.737 -0.253,-0.487 -0.433,-1.452 -0.554,-2.896 l -0.053,-0.366 c -0.862,-5.008 -2.668,-8.413 -5.407,-10.199"
         id="path317" />
      <path
         inkscape:connector-curvature="0"
         style="fill:none;stroke:#e83927;stroke-width:2.08100009;stroke-linecap:round;stroke-linejoin:round;stroke-miterlimit:10"
         d="m 174.74,473.165 c -1.146,0.209 -2.241,0.433 -3.259,0.671 -0.872,0.201 -1.693,0.405 -2.476,0.634 -0.093,0.023 -0.185,0.048 -0.28,0.086 -2.88,0.833 -5.147,1.839 -6.8,2.985 -2.992,2.066 -4.569,4.371 -4.746,6.927 -0.009,0.116 -0.017,0.247 -0.013,0.364 -0.036,2.403 1.244,4.392 3.84,5.968 2.709,1.644 6.302,2.345 10.78,2.09 6.263,-0.086 13.456,-1.594 21.594,-4.538 1.049,-0.496 1.53,-1.435 1.443,-2.812 l -0.042,-0.703 -0.66,-11.11 -17.393,-0.896 c -0.684,0.103 -1.343,0.218 -1.988,0.334 z"
         id="path319" />
      <path
         inkscape:connector-curvature="0"
         style="fill:#5390cd"
         d="m 168.85,446.285 31.842,-0.481 c -0.43,7.727 -1.64,15.231 -3.656,22.517 -8.857,1.273 -18.117,1.715 -27.769,1.34 l -0.417,-23.376 z"
         id="path321" />
      <path
         inkscape:connector-curvature="0"
         style="fill:#a4c6e9"
         d="m 169.267,474.821 v -5.161 c 9.652,0.375 18.912,-0.066 27.769,-1.34 -0.559,2.04 -1.183,4.057 -1.873,6.061 -9.247,2.237 -17.884,2.38 -25.896,0.44"
         id="path323" />
      <path
         inkscape:connector-curvature="0"
         style="fill:none;stroke:#003c90;stroke-width:2.08100009;stroke-linecap:square;stroke-miterlimit:10"
         d="m 200.692,445.804 c -0.43,7.727 -1.64,15.231 -3.656,22.517 -0.559,2.04 -1.183,4.057 -1.873,6.061 -9.247,2.237 -17.884,2.38 -25.896,0.44 v -5.161 l -0.417,-23.375 31.842,-0.482 z"
         id="path325" />
      <path
         inkscape:connector-curvature="0"
         style="fill:#5390cd"
         d="m 158.314,448.528 h 14.489 l -0.078,12.823 c -1.17,0.289 -2.406,0.457 -3.706,0.509 -2.16,0.247 -4.358,0.194 -6.582,-0.156 l -1.522,0.13 c -0.585,-0.222 -1.444,-0.482 -2.601,-0.767 v -12.539 z"
         id="path327" />
      <path
         inkscape:connector-curvature="0"
         style="fill:#003c90"
         d="m 169.019,461.86 -0.169,2.068 c -3.265,-0.013 -5.411,-0.755 -6.413,-2.225 2.224,0.352 4.422,0.404 6.582,0.157"
         id="path329" />
      <path
         inkscape:connector-curvature="0"
         style="fill:#ffffff"
         d="m 141.375,416.117 c -0.013,0.025 -0.013,0.052 -0.026,0.093 -0.664,3.342 -1.144,6.724 -1.418,10.117 -0.195,-0.038 -0.389,-0.091 -0.586,-0.13 0.352,-3.394 0.911,-6.75 1.653,-10.093 0.013,-0.053 0.013,-0.104 0.026,-0.143 0.117,0.025 0.247,0.051 0.365,0.09 0,0.014 0,0.041 -0.014,0.066"
         id="path331" />
      <path
         inkscape:connector-curvature="0"
         style="fill:#0076bf"
         d="m 141.349,416.21 c 0.013,-0.041 0.013,-0.067 0.026,-0.093 0.014,-0.025 0.014,-0.052 0.014,-0.065 0.923,-4.552 2.197,-9.065 3.836,-13.526 9.04,-2.094 17.742,-3.199 26.105,-3.329 h 0.079 c 8.363,0.13 17.064,1.235 26.117,3.329 1.613,4.253 2.9,8.558 3.863,12.89 -13.098,2.55 -24.908,3.798 -35.444,3.746 h -0.078 c -1.6,0.013 -3.161,-0.013 -4.682,-0.052 -7.518,-0.249 -14.126,-1.223 -19.836,-2.9"
         id="path333" />
      <path
         inkscape:connector-curvature="0"
         style="fill:#0076bf"
         d="m 141.389,416.052 c -0.118,-0.039 -0.248,-0.064 -0.365,-0.09 1.027,-4.566 2.419,-9.104 4.175,-13.594 9.053,-2.093 17.768,-3.199 26.131,-3.329 h 0.079 c 8.363,0.13 17.064,1.236 26.13,3.329 1.678,4.307 3.031,8.639 4.032,13.009 0.052,0.193 0.104,0.403 0.143,0.61 -0.065,0.014 -0.13,0.025 -0.195,0.039 -0.039,-0.208 -0.091,-0.416 -0.13,-0.611 -0.963,-4.332 -2.25,-8.637 -3.863,-12.89 -9.053,-2.094 -17.754,-3.199 -26.117,-3.329 h -0.079 c -8.363,0.13 -17.065,1.235 -26.105,3.329 -1.639,4.461 -2.913,8.975 -3.836,13.527"
         id="path335" />
      <path
         inkscape:connector-curvature="0"
         style="fill:#ffffff"
         d="m 161.185,419.109 c 1.521,0.039 3.082,0.064 4.682,0.052 h 0.078 c 10.536,0.052 22.346,-1.196 35.444,-3.746 0.039,0.195 0.091,0.403 0.13,0.611 0.013,0.039 0.013,0.078 0.026,0.116 0.689,3.213 1.185,6.439 1.496,9.704 -11.447,2.316 -21.943,3.642 -31.477,3.993 -1.911,0.065 -3.785,0.104 -5.619,0.091 h -0.078 c -10.158,0.065 -18.808,-1.079 -25.948,-3.408 0,-0.052 0,-0.104 0.012,-0.168 v -0.027 c 0.274,-3.394 0.754,-6.775 1.418,-10.117 5.71,1.677 12.318,2.651 19.836,2.899"
         id="path337" />
      <path
         inkscape:connector-curvature="0"
         style="fill:#e83827"
         d="m 165.867,429.931 h 0.078 c 1.834,0.013 3.708,-0.025 5.619,-0.091 9.534,-0.352 20.03,-1.677 31.477,-3.993 0.013,0.143 0.026,0.3 0.039,0.442 0.013,0.024 0.013,0.052 0.013,0.078 0.299,3.159 0.429,6.348 0.377,9.547 -11.055,2.25 -21.214,3.589 -30.488,4.021 -2.406,0.102 -4.747,0.153 -7.037,0.141 h -0.078 c -10.275,0.064 -19.003,-1.093 -26.182,-3.475 l 0.012,-0.063 h -0.012 v -0.026 c -0.118,-3.343 -0.04,-6.672 0.234,-9.989 7.14,2.329 15.79,3.473 25.948,3.408"
         id="path339" />
      <path
         inkscape:connector-curvature="0"
         style="fill:#fedb00"
         d="m 165.867,440.076 h 0.078 c 2.29,0.013 4.631,-0.039 7.037,-0.144 9.274,-0.43 19.433,-1.769 30.488,-4.019 0,0.183 0,0.363 -0.013,0.546 v 0.065 c -0.078,3.265 -0.325,6.568 -0.754,9.897 -0.169,0.039 -0.325,0.092 -0.495,0.144 -10.548,2.304 -20.251,3.668 -29.083,4.124 h -1.716 -0.079 c -10.457,0.064 -20.719,-1.313 -30.774,-4.124 -0.482,-3.862 -0.767,-7.18 -0.871,-9.965 7.179,2.383 15.907,3.541 26.182,3.476"
         id="path341" />
      <path
         inkscape:connector-curvature="0"
         style="fill:#e83827"
         d="m 139.333,426.327 c 0,-0.038 0,-0.091 0.012,-0.13 0.197,0.039 0.391,0.092 0.586,0.13 v 0.027 c -0.012,0.064 -0.012,0.116 -0.012,0.168 -0.274,3.317 -0.352,6.646 -0.234,9.989 v 0.026 c -0.17,-0.04 -0.352,-0.078 -0.521,-0.116 -0.091,-0.014 -0.195,-0.04 -0.299,-0.064 v -0.04 -0.04 c -0.026,-3.341 0.13,-6.659 0.468,-9.95"
         id="path343" />
      <path
         inkscape:connector-curvature="0"
         style="fill:#e83827"
         d="m 139.931,426.354 v -0.027 0.027 z"
         id="path345" />
      <path
         inkscape:connector-curvature="0"
         style="fill:#fedb00"
         d="m 139.164,436.422 c 0.169,0.038 0.351,0.076 0.521,0.116 v 0.063 c 0.104,2.785 0.389,6.103 0.871,9.965 -0.351,-0.09 -0.703,-0.196 -1.054,-0.3 -0.39,-3.315 -0.598,-6.619 -0.637,-9.909 0.104,0.025 0.208,0.051 0.299,0.065"
         id="path347" />
      <polygon
         style="fill:#fedb00"
         points="139.697,436.538 139.685,436.602 139.685,436.538 "
         id="polygon349" />
      <path
         inkscape:connector-curvature="0"
         style="fill:#ffffff"
         d="m 201.545,416.143 c -0.013,-0.038 -0.013,-0.077 -0.026,-0.116 0.065,-0.014 0.13,-0.025 0.195,-0.039 0.729,3.238 1.274,6.516 1.626,9.807 0.013,0.144 0.039,0.273 0.052,0.417 -0.104,0.025 -0.208,0.053 -0.312,0.078 -0.013,-0.143 -0.026,-0.3 -0.039,-0.442 -0.311,-3.266 -0.807,-6.493 -1.496,-9.705"
         id="path351" />
      <path
         inkscape:connector-curvature="0"
         style="fill:#e83827"
         d="m 203.08,426.289 c 0.104,-0.025 0.208,-0.053 0.312,-0.078 0.338,3.187 0.495,6.4 0.482,9.612 v 0.545 c -0.144,0.04 -0.273,0.067 -0.417,0.092 0.013,-0.183 0.013,-0.363 0.013,-0.546 0.052,-3.199 -0.078,-6.388 -0.377,-9.547 0,-0.026 0,-0.054 -0.013,-0.078"
         id="path353" />
      <path
         inkscape:connector-curvature="0"
         style="fill:#fedb00"
         d="m 203.457,436.46 c 0.144,-0.024 0.273,-0.052 0.417,-0.092 -0.039,3.279 -0.247,6.583 -0.638,9.898 -0.169,0.054 -0.351,0.104 -0.533,0.156 0.429,-3.329 0.676,-6.633 0.754,-9.897 v -0.065 z"
         id="path355" />
      <path
         inkscape:connector-curvature="0"
         style="fill:#fedb00"
         d="m 173.125,450.69 c 8.832,-0.456 18.535,-1.82 29.083,-4.124 -9.507,2.654 -19.211,4.033 -29.083,4.124"
         id="path357" />
      <path
         inkscape:connector-curvature="0"
         style="fill:none;stroke:#003c90;stroke-width:2.08100009;stroke-linecap:square;stroke-miterlimit:10"
         d="m 141.375,416.117 c 0.014,-0.025 0.014,-0.052 0.014,-0.065 0.923,-4.552 2.197,-9.065 3.836,-13.526 9.04,-2.094 17.742,-3.199 26.105,-3.329 h 0.079 c 8.363,0.13 17.064,1.235 26.117,3.329 1.613,4.253 2.9,8.558 3.863,12.89 0.039,0.195 0.091,0.403 0.13,0.611 0.013,0.039 0.013,0.078 0.026,0.116 0.689,3.213 1.185,6.439 1.496,9.704 0.013,0.143 0.026,0.3 0.039,0.442 0.013,0.024 0.013,0.052 0.013,0.078 0.299,3.159 0.429,6.348 0.377,9.547 0,0.183 0,0.363 -0.013,0.546 v 0.065 c -0.078,3.265 -0.325,6.568 -0.754,9.897 v 0.027 c -0.169,0.038 -0.325,0.078 -0.495,0.116 -10.548,2.304 -20.251,3.668 -29.083,4.124 -2.341,0.116 -4.631,0.169 -6.855,0.156 h -0.078 c -10.106,0.064 -18.639,-1.211 -25.572,-3.799 -0.012,-0.168 -0.038,-0.325 -0.064,-0.481 -0.482,-3.862 -0.767,-7.18 -0.871,-9.965 v -0.063 -0.026 c -0.118,-3.343 -0.04,-6.672 0.234,-9.989 0,-0.052 0,-0.104 0.012,-0.168 v -0.027 c 0.274,-3.394 0.754,-6.775 1.418,-10.117 0.013,-0.041 0.013,-0.067 0.026,-0.093 z"
         id="path359" />
      <path
         inkscape:connector-curvature="0"
         style="fill:#e83434"
         d="m 212.412,470.116 c -0.086,-0.033 -0.171,-0.067 -0.241,-0.11 -2.64,-1.527 -4.565,-5.088 -5.746,-10.7 -1.244,1.68 -2.748,2.602 -4.484,2.773 -0.054,0 -0.107,10e-4 -0.161,10e-4 -2.357,-0.031 -3.666,-1.372 -3.904,-4.008 -0.201,-2.172 0.259,-4.426 1.387,-6.732 0.985,-2.05 2.36,-4.111 4.132,-6.212 l -2.242,-4.639 c -0.08,-0.167 -0.107,-0.333 -0.103,-0.519 0.017,-0.184 0.072,-0.357 0.175,-0.506 2.365,-3.574 5.967,-5.784 10.807,-6.643 0.208,-0.029 0.416,-0.007 0.622,0.082 0.193,0.087 0.346,0.23 0.448,0.415 l 2.41,3.996 c 3.527,1.393 5.933,3.278 7.189,5.677 6.783,2.974 9.759,6.103 8.922,9.377 -0.023,0.154 -0.085,0.3 -0.182,0.424 -1.407,1.974 -3.429,2.771 -6.07,2.42 0.456,0.497 0.925,1.385 1.405,2.674 0.889,1.749 1.299,3.611 1.214,5.582 -0.055,1.735 -0.927,2.81 -2.614,3.22 l -0.016,0.011 c -2.121,0.547 -4.046,0.046 -5.77,-1.517 -0.67,-0.601 -1.306,-1.235 -1.939,-1.881 0.144,1.131 0.181,2.142 0.14,3.039 -0.096,1.742 -0.614,2.898 -1.556,3.489 -0.873,0.687 -2.151,0.78 -3.823,0.287 m 0.724,-1.965 c 0.825,0.239 1.454,0.229 1.903,-0.024 0.387,-0.334 0.65,-0.873 0.775,-1.617 0.547,-3.235 0.441,-6.306 -0.344,-9.22 0.649,0.249 1.163,1 1.551,2.228 0.178,0.204 0.302,0.354 0.389,0.442 l 0.01,0.013 c 1.118,1.298 2.308,2.519 3.567,3.675 1.151,1.051 2.444,1.4 3.868,1.034 l 0.012,10e-4 c 0.428,-0.11 0.719,-0.321 0.889,-0.642 0.077,-0.155 0.132,-0.329 0.143,-0.54 0.253,-1.115 0.163,-2.244 -0.267,-3.404 -0.772,-2.521 -2.15,-5.082 -4.139,-7.655 0.742,0.084 1.333,0.238 1.786,0.468 1.278,0.186 2.598,0.194 3.967,0.054 0.96,-0.156 1.74,-0.571 2.367,-1.236 0.131,-2.279 -2.56,-4.593 -8.082,-6.971 -0.244,-0.1 -0.415,-0.273 -0.531,-0.515 -1.084,-2.169 -3.268,-3.869 -6.564,-5.112 -0.234,-0.083 -0.399,-0.229 -0.524,-0.433 l -2.205,-3.681 c -3.657,0.769 -6.456,2.474 -8.411,5.119 l 2.267,4.697 c 0.087,0.194 0.121,0.39 0.098,0.598 -0.036,0.205 -0.12,0.386 -0.251,0.541 -1.856,2.12 -3.279,4.212 -4.279,6.269 -0.948,1.95 -1.345,3.833 -1.179,5.648 0.126,1.313 0.731,2.021 1.832,2.11 0.526,-0.075 1.025,-0.263 1.482,-0.555 0.204,-0.126 0.397,-0.265 0.582,-0.422 0.328,-0.254 0.627,-0.557 0.892,-0.88 0.542,-0.646 1.014,-1.335 1.433,-2.076 0.309,-0.566 0.666,-1.11 1.048,-1.646 0.546,1.347 0.821,2.04 0.799,2.075 0.978,6.125 2.68,10.007 5.116,11.657"
         id="path361" />
      <path
         inkscape:connector-curvature="0"
         style="fill:#f49c00"
         d="m 215.039,468.127 c -0.449,0.253 -1.078,0.264 -1.903,0.024 -2.436,-1.65 -4.138,-5.532 -5.116,-11.657 0.022,-0.035 -0.253,-0.729 -0.799,-2.075 -0.382,0.536 -0.739,1.08 -1.048,1.646 -0.419,0.741 -0.891,1.43 -1.433,2.076 -0.265,0.323 -0.564,0.626 -0.892,0.88 -0.185,0.157 -0.378,0.296 -0.582,0.422 -0.457,0.292 -0.956,0.479 -1.482,0.555 -1.101,-0.09 -1.706,-0.797 -1.832,-2.11 -0.166,-1.815 0.231,-3.698 1.179,-5.648 1,-2.057 2.423,-4.148 4.279,-6.269 0.131,-0.155 0.215,-0.336 0.251,-0.541 0.023,-0.208 -0.011,-0.403 -0.098,-0.598 l -2.267,-4.697 c 1.955,-2.646 4.754,-4.351 8.411,-5.119 l 2.205,3.681 c 0.125,0.203 0.29,0.35 0.524,0.433 3.296,1.243 5.48,2.943 6.564,5.112 0.115,0.241 0.287,0.415 0.531,0.515 5.522,2.378 8.213,4.691 8.082,6.971 -0.627,0.665 -1.407,1.08 -2.367,1.236 -1.369,0.141 -2.689,0.132 -3.967,-0.054 -0.453,-0.229 -1.044,-0.384 -1.786,-0.468 1.989,2.573 3.367,5.135 4.138,7.655 0.431,1.16 0.521,2.289 0.268,3.404 -0.011,0.211 -0.066,0.385 -0.143,0.54 -0.17,0.32 -0.461,0.531 -0.889,0.642 l -0.012,-10e-4 c -1.424,0.366 -2.717,0.017 -3.868,-1.034 -1.259,-1.156 -2.449,-2.377 -3.567,-3.675 l -0.01,-0.013 c -0.087,-0.088 -0.211,-0.238 -0.389,-0.442 -0.388,-1.228 -0.902,-1.979 -1.551,-2.228 0.785,2.914 0.891,5.984 0.344,9.22 -0.125,0.744 -0.388,1.283 -0.775,1.617"
         id="path363" />
      <path
         inkscape:connector-curvature="0"
         style="fill:#e83827"
         d="m 220.196,436.597 c 0.416,0.998 0.819,2.011 1.219,3.06 -6.565,2.465 -13.139,4.148 -19.738,5.047 -0.632,-2.299 -1.494,-4.48 -2.583,-6.53 l 17.414,-9.116 c 1.334,2.347 2.568,4.862 3.688,7.539"
         id="path365" />
      <path
         inkscape:connector-curvature="0"
         style="fill:#0076bf"
         d="m 206.553,416.143 c 1.105,1.022 2.167,2.12 3.186,3.282 l -15.394,12.036 c -1.587,-1.738 -3.389,-3.371 -5.418,-4.886 -0.087,-0.069 -0.189,-0.14 -0.288,-0.21 -2.489,-9.287 1.008,-14.571 10.503,-15.839 2.639,1.585 5.117,3.451 7.411,5.617"
         id="path367" />
      <path
         inkscape:connector-curvature="0"
         style="fill:#fedb00"
         d="m 216.342,428.747 c 0.036,0.068 0.095,0.175 0.166,0.31 l -17.414,9.116 c -1.266,-2.398 -2.852,-4.646 -4.749,-6.712 l 15.394,-12.036 c 2.433,2.759 4.638,5.871 6.603,9.322"
         id="path369" />
      <path
         inkscape:connector-curvature="0"
         style="fill:none;stroke:#003c90;stroke-width:2.08100009;stroke-linecap:square;stroke-miterlimit:10"
         d="m 188.639,426.365 c 0.099,0.07 0.201,0.141 0.288,0.21 2.029,1.515 3.831,3.147 5.418,4.886 1.897,2.066 3.483,4.313 4.749,6.712 1.089,2.05 1.951,4.231 2.583,6.53 6.599,-0.898 13.173,-2.582 19.738,-5.047 -0.4,-1.049 -0.803,-2.062 -1.219,-3.06 -1.12,-2.677 -2.354,-5.191 -3.688,-7.54 -0.071,-0.135 -0.13,-0.241 -0.166,-0.31 -1.965,-3.451 -4.17,-6.563 -6.603,-9.322 -1.019,-1.162 -2.081,-2.26 -3.186,-3.282 -2.294,-2.166 -4.772,-4.031 -7.411,-5.616"
         id="path371" />
      <path
         inkscape:connector-curvature="0"
         style="fill:#f9d300"
         d="m 196.875,397.842 c 1.456,0.689 2.511,1.769 3.173,3.237 0.56,1.276 0.859,2.629 0.873,4.046 0.012,1.444 -0.287,2.797 -0.924,4.084 l -0.221,0.418 c -0.248,0.389 -0.534,0.753 -0.886,1.104 -0.038,0.04 -0.09,0.091 -0.155,0.13 -1.054,0.872 -2.186,1.613 -3.395,2.238 -1.431,0.741 -2.9,1.404 -4.423,1.989 -1.599,0.599 -3.225,1.093 -4.863,1.47 -1.158,0.287 -2.302,0.533 -3.461,0.742 -1.21,0.222 -2.419,0.39 -3.628,0.506 -1.288,0.184 -2.562,0.326 -3.838,0.443 -1.027,0.052 -2.042,0.091 -3.043,0.104 h -0.95 -0.441 -0.885 c -0.235,-0.014 -0.468,-0.014 -0.715,-0.014 h -0.026 c -0.221,0 -0.43,0 -0.65,0.014 h -1.38 -0.013 c -0.533,0 -1.08,0 -1.626,-0.014 -0.767,-0.013 -1.535,-0.052 -2.315,-0.091 -1.209,-0.117 -2.392,-0.26 -3.577,-0.443 -1.132,-0.116 -2.237,-0.284 -3.317,-0.506 -1.027,-0.209 -2.042,-0.455 -3.018,-0.742 -1.417,-0.377 -2.744,-0.871 -3.979,-1.47 -1.171,-0.585 -2.251,-1.248 -3.252,-1.989 -0.833,-0.625 -1.522,-1.366 -2.068,-2.238 -0.312,-0.43 -0.586,-0.846 -0.821,-1.249 l -0.207,-0.403 c -0.637,-1.287 -0.937,-2.64 -0.924,-4.084 0.014,-1.417 0.313,-2.77 0.872,-4.046 0.663,-1.469 1.717,-2.548 3.173,-3.237 17.326,-1.78 34.3,-1.78 50.91,10e-4"
         id="path373" />
      <path
         inkscape:connector-curvature="0"
         style="fill:#f9d300"
         d="m 169.093,418.341 c 0.247,0 0.48,0 0.715,0.014 h -0.443 -0.948 c 0.22,-0.014 0.429,-0.014 0.65,-0.014 h 0.026 z"
         id="path375" />
      <path
         inkscape:connector-curvature="0"
         style="fill:none;stroke:#e83927;stroke-width:2.08100009;stroke-linecap:round;stroke-linejoin:round;stroke-miterlimit:10"
         d="m 200.048,401.079 c 0.56,1.276 0.859,2.629 0.873,4.046 0.012,1.444 -0.287,2.797 -0.924,4.084 l -0.221,0.418 c -0.248,0.389 -0.534,0.753 -0.886,1.104 -0.038,0.04 -0.09,0.091 -0.155,0.13 -1.054,0.872 -2.186,1.613 -3.395,2.238 -1.431,0.741 -2.9,1.404 -4.423,1.989 -1.599,0.599 -3.225,1.093 -4.863,1.47 -1.158,0.287 -2.302,0.533 -3.461,0.742 -1.21,0.222 -2.419,0.39 -3.628,0.506 -1.288,0.184 -2.562,0.326 -3.838,0.443 -1.027,0.052 -2.042,0.091 -3.043,0.104 h -0.95 -0.441 -0.885 c -0.235,-0.014 -0.468,-0.014 -0.715,-0.014 h -0.026 c -0.221,0 -0.43,0 -0.65,0.014 h -1.38 -0.013 c -0.533,0 -1.08,0 -1.626,-0.014 -0.767,-0.013 -1.535,-0.052 -2.315,-0.091 -1.209,-0.117 -2.392,-0.26 -3.577,-0.443 -1.132,-0.116 -2.237,-0.284 -3.317,-0.506 -1.027,-0.209 -2.042,-0.455 -3.018,-0.742 -1.417,-0.377 -2.744,-0.871 -3.979,-1.47 -1.171,-0.585 -2.251,-1.248 -3.252,-1.989 -0.833,-0.625 -1.522,-1.366 -2.068,-2.238 -0.312,-0.43 -0.586,-0.846 -0.821,-1.249 l -0.207,-0.403 c -0.637,-1.287 -0.937,-2.64 -0.924,-4.084 0.014,-1.417 0.313,-2.77 0.872,-4.046 0.663,-1.469 1.717,-2.548 3.173,-3.237 17.326,-1.781 34.3,-1.781 50.91,0 1.456,0.69 2.511,1.769 3.173,3.238 z"
         id="path377" />
      <path
         inkscape:connector-curvature="0"
         style="fill:#e83434"
         d="m 168.727,401.861 2.056,-0.455 c 0.312,1.001 0.559,2.08 0.755,3.251 0.181,1.158 0.285,2.354 0.299,3.59 0.013,1.223 -0.157,2.342 -0.534,3.369 -0.377,1.014 -0.74,1.548 -1.119,1.6 -0.142,-0.155 -0.259,-1.416 -0.324,-3.785 -0.065,-2.38 -0.442,-4.904 -1.133,-7.57"
         id="path379" />
      <path
         inkscape:connector-curvature="0"
         style="fill:#e83434"
         d="m 158.92,401.003 c -0.481,2.536 -0.754,4.668 -0.832,6.387 -0.078,1.73 -0.117,2.821 -0.117,3.304 0.013,0.481 0,1.092 -0.039,1.834 -0.039,0.742 -0.142,1.403 -0.338,2.016 -0.182,0.599 -0.378,0.975 -0.599,1.132 -0.272,-0.222 -0.467,-0.494 -0.585,-0.795 -0.39,-0.897 -0.572,-1.923 -0.533,-3.08 -0.079,-4.086 0.273,-7.689 1.041,-10.797 h 2.002 z"
         id="path381" />
      <path
         inkscape:connector-curvature="0"
         style="fill:#e83434"
         d="m 147.632,405.463 c 0.115,-0.975 0.298,-1.937 0.558,-2.873 0.247,-0.924 0.559,-1.795 0.937,-2.602 l 1.795,0.363 c -0.832,2.134 -1.38,4.149 -1.627,6.062 -0.26,1.887 -0.455,2.899 -0.598,3.031 -0.337,-0.04 -0.624,-0.469 -0.871,-1.274 -0.26,-0.82 -0.325,-1.732 -0.194,-2.707"
         id="path383" />
      <path
         inkscape:connector-curvature="0"
         style="fill:#e83434"
         d="m 194.066,401.99 c 0.285,0.897 0.494,1.82 0.623,2.771 0.144,0.938 0.066,1.796 -0.22,2.576 -0.13,0.352 -0.274,0.638 -0.417,0.833 -0.169,0.247 -0.363,0.377 -0.559,0.389 -0.052,-0.025 -0.117,-0.155 -0.182,-0.389 -0.13,-0.456 -0.286,-1.302 -0.481,-2.512 -0.286,-1.821 -0.898,-3.759 -1.822,-5.812 l 2.004,-0.352 c 0.416,0.767 0.767,1.599 1.054,2.496"
         id="path385" />
      <path
         inkscape:connector-curvature="0"
         style="fill:#e83434"
         d="m 182.581,399.636 0.389,1.185 c 1.001,3.006 1.496,5.905 1.47,8.676 -0.013,2.771 -0.469,4.384 -1.366,4.852 -0.22,-0.3 -0.351,-1.157 -0.403,-2.602 -0.168,-3.994 -0.832,-7.648 -2.016,-10.965 l 1.926,-1.146 z"
         id="path387" />
      <path
         inkscape:connector-curvature="0"
         style="fill:#f49c00"
         d="m 129.725,385.132 c -3.031,0 -5.723,-1.457 -8.065,-4.358 -2.328,-2.9 -3.629,-6.413 -3.889,-10.51 -0.273,-4.097 0.586,-7.609 2.55,-10.509 1.964,-2.902 4.474,-4.358 7.504,-4.358 3.045,0 5.736,1.456 8.064,4.358 2.328,2.9 3.63,6.412 3.903,10.509 0.261,4.097 -0.598,7.61 -2.562,10.51 -1.965,2.901 -4.462,4.358 -7.505,4.358"
         id="path389" />
      <path
         inkscape:connector-curvature="0"
         style="fill:none;stroke:#e83927;stroke-width:2.08100009;stroke-linecap:round;stroke-linejoin:round;stroke-miterlimit:10"
         d="m 129.725,385.132 c 3.043,0 5.54,-1.457 7.505,-4.358 1.964,-2.9 2.823,-6.413 2.562,-10.51 -0.273,-4.097 -1.575,-7.609 -3.903,-10.509 -2.328,-2.902 -5.019,-4.358 -8.064,-4.358 -3.03,0 -5.54,1.456 -7.504,4.358 -1.964,2.9 -2.823,6.412 -2.55,10.509 0.26,4.097 1.561,7.61 3.889,10.51 2.342,2.901 5.034,4.358 8.065,4.358 z"
         id="path391" />
      <path
         inkscape:connector-curvature="0"
         style="fill:#f49c00"
         d="m 135.669,345.368 c 9.013,-7.244 19.9,-10.873 32.66,-10.873 12.747,0 23.634,3.629 32.674,10.873 9.014,7.259 13.526,16.026 13.526,26.301 0,10.263 -4.512,19.03 -13.526,26.287 -9.04,7.258 -19.927,10.887 -32.674,10.887 -12.76,0 -23.647,-3.629 -32.66,-10.887 -9.027,-7.257 -13.54,-16.024 -13.54,-26.287 0,-10.275 4.513,-19.042 13.54,-26.301"
         id="path393" />
      <path
         inkscape:connector-curvature="0"
         style="fill:none;stroke:#e83927;stroke-width:2.08100009;stroke-linecap:round;stroke-linejoin:round;stroke-miterlimit:10"
         d="m 168.329,334.495 c 12.747,0 23.634,3.629 32.674,10.873 9.014,7.259 13.526,16.026 13.526,26.301 0,10.263 -4.512,19.03 -13.526,26.287 -9.04,7.258 -19.927,10.887 -32.674,10.887 -12.76,0 -23.647,-3.629 -32.66,-10.887 -9.027,-7.257 -13.54,-16.024 -13.54,-26.287 0,-10.275 4.513,-19.042 13.54,-26.301 9.013,-7.244 19.9,-10.873 32.66,-10.873 z"
         id="path395" />
      <path
         inkscape:connector-curvature="0"
         style="fill:#f49c00"
         d="m 203.836,360.37 c 0.143,-0.209 0.298,-0.417 0.467,-0.612 2.329,-2.901 5.022,-4.357 8.065,-4.357 3.031,0 5.542,1.456 7.505,4.357 1.965,2.901 2.823,6.413 2.55,10.509 -0.26,4.097 -1.561,7.61 -3.889,10.51 -2.342,2.902 -5.034,4.358 -8.065,4.358 -2.562,0 -4.734,-1.028 -6.529,-3.083 l -0.104,-0.91 V 360.37 z"
         id="path397" />
      <path
         inkscape:connector-curvature="0"
         style="fill:none;stroke:#e83927;stroke-width:2.08100009;stroke-linecap:square;stroke-linejoin:round;stroke-miterlimit:10"
         d="m 203.94,382.052 c 1.795,2.055 3.967,3.083 6.529,3.083 3.031,0 5.723,-1.456 8.065,-4.358 2.328,-2.9 3.629,-6.413 3.889,-10.51 0.273,-4.096 -0.585,-7.608 -2.55,-10.509 -1.963,-2.901 -4.474,-4.357 -7.505,-4.357 -3.043,0 -5.736,1.456 -8.065,4.357 -0.169,0.195 -0.324,0.403 -0.467,0.612"
         id="path399" />
      <path
         inkscape:connector-curvature="0"
         d="m 153.312,320.151 c -0.559,-0.833 -1.73,-1.939 -3.486,-3.304 -1.639,-1.264 -2.601,-1.901 -2.874,-1.901 1.431,-0.271 3.096,-0.207 5.008,0.209 3.798,0.872 6.62,3.031 8.481,6.503 -0.053,-2.77 0.948,-5.007 3.017,-6.712 0.65,-0.533 1.34,-0.961 2.055,-1.273 0.689,-0.301 0.962,-0.378 0.819,-0.235 -1.236,2.719 -0.559,5.762 2.003,9.131 1.028,-1.21 1.353,-3.461 0.963,-6.738 -0.352,-2.912 -0.742,-4.551 -1.197,-4.917 1.171,0.521 2.367,1.367 3.577,2.551 1.912,1.859 3.069,3.966 3.46,6.321 0.741,-0.351 1.483,-0.689 2.25,-1.015 3.603,-1.547 7.076,-2.172 10.444,-1.874 -0.247,0.313 -1.001,1.159 -2.263,2.551 -0.142,0.168 -0.598,0.988 -1.365,2.432 1.782,-1.6 4.072,-2.822 6.867,-3.668 2.797,-0.858 5.307,-1.196 7.531,-1.002 -0.871,0.872 -2.314,2.042 -4.344,3.538 -1.742,1.444 -2.926,2.953 -3.55,4.526 1.547,-1.079 3.082,-1.834 4.604,-2.262 2.835,-0.82 6.087,-0.508 9.768,0.91 -0.56,0.091 -1.248,0.325 -2.08,0.716 -0.821,0.376 -1.771,0.91 -2.849,1.574 -2.277,1.39 -3.578,2.484 -3.929,3.277 1.951,-0.117 4.084,-0.143 6.387,-0.053 2.301,0.079 4.305,0.456 5.996,1.12 1.692,0.663 3.265,1.691 4.708,3.083 -3.005,-0.794 -6.048,-0.937 -9.131,-0.431 -3.082,0.508 -4.89,1.275 -5.45,2.316 4.059,-0.13 7.233,0.208 9.522,1.028 2.289,0.82 3.746,1.534 4.357,2.172 -1.249,-0.195 -2.614,-0.273 -4.084,-0.235 -1.47,0.04 -3.578,0.416 -6.334,1.132 4.305,2.692 8.805,3.396 13.526,2.081 -0.571,0.624 -1.144,1.197 -1.73,1.731 -0.624,0.572 -1.3,1.13 -2.042,1.664 -0.768,0.559 -1.599,0.99 -2.497,1.301 -0.793,0.273 -1.613,0.521 -2.432,0.729 -0.845,0.222 -1.691,0.376 -2.549,0.441 -8.807,0.911 -16.155,-0.169 -22.022,-3.237 1.939,2.393 4.046,4.317 6.335,5.762 0.091,0.064 0.118,0.168 0.079,0.285 -0.04,0.13 -0.105,0.17 -0.196,0.13 -2.302,-0.612 -4.331,-1.703 -6.101,-3.264 -1.52,-1.34 -2.9,-2.809 -4.122,-4.411 -1.64,-1.65 -3.513,-2.691 -5.62,-3.107 -1.156,-0.249 -2.419,-0.391 -3.811,-0.456 -1.417,-0.065 -2.835,-0.091 -4.239,-0.079 -0.17,0 -0.352,0.014 -0.547,0.027 -2.081,0.092 -3.876,0.403 -5.385,0.963 -1.496,0.533 -2.718,1.118 -3.668,1.742 -0.09,0.053 -0.169,0.118 -0.234,0.182 -0.117,-0.35 -0.702,-0.949 -1.743,-1.794 -1.001,-0.834 -2.185,-1.158 -3.538,-0.99 -3.525,0.469 -6.582,1.848 -9.183,4.137 -0.338,0.311 -0.689,0.611 -1.053,0.885 -0.599,0.48 -1.21,0.937 -1.847,1.392 -0.637,0.481 -1.327,0.897 -2.042,1.26 -0.507,0.274 -1.054,0.494 -1.626,0.678 -0.989,0.35 -1.99,0.363 -2.991,0.025 -0.859,-0.286 -1.652,-0.703 -2.368,-1.248 -0.248,-0.195 -0.508,-0.43 -0.793,-0.703 -0.534,-0.508 -1.015,-1.053 -1.444,-1.639 -0.482,-0.609 -0.897,-1.275 -1.222,-2.003 0.65,0.013 1.352,-0.012 2.106,-0.078 0.26,-0.04 0.534,-0.064 0.807,-0.104 1.769,-0.195 3.173,-0.545 4.201,-1.053 0.234,-0.117 0.455,-0.248 0.65,-0.377 0.677,-0.456 1.431,-0.793 2.25,-1.016 0.027,-0.011 0.052,-0.011 0.079,-0.025 -4.617,-0.95 -7.376,-3.096 -8.299,-6.452 3.967,1.159 7.714,1.145 11.238,-0.051 l -0.793,-0.182 c -1.366,-0.364 -2.862,-1.653 -4.475,-3.85 -0.871,-1.184 -1.47,-2.133 -1.807,-2.822 -0.196,-0.405 -0.3,-0.729 -0.312,-0.977 0.844,0.34 1.781,0.664 2.808,0.977 0.612,0.195 1.275,0.376 1.965,0.558 1.027,0.274 2.003,0.494 2.926,0.637 2.342,0.353 4.293,0.261 5.853,-0.271 -0.845,-0.054 -2.042,-0.522 -3.603,-1.407 -1.677,-0.974 -2.874,-1.521 -3.576,-1.665 1.756,-0.038 3.147,-0.038 4.188,0 1.873,0.066 4.045,0.534 6.53,1.379 -2.043,-1.573 -4.826,-2.769 -8.325,-3.563 -0.403,-0.105 0.924,-0.299 3.993,-0.572 3.031,-0.274 5.216,-0.208 6.568,0.208 1.951,0.584 3.538,1.483 4.774,2.678 -0.169,-1.339 -0.676,-2.641 -1.522,-3.926"
         id="path401" />
      <path
         inkscape:connector-curvature="0"
         style="fill:#e83434"
         d="m 178.452,389.04 3.828,-1.672 c -2.44,6.788 -7.412,11.215 -14.941,13.293 -3.769,1.051 -7.297,1.422 -10.581,1.088 -7.274,-0.682 -13.357,-3.556 -18.26,-8.65 -2.464,-2.542 -4.198,-5.018 -5.204,-7.431 11.357,5.735 22.932,7.733 34.728,6.013 3.689,-0.535 7.157,-1.415 10.43,-2.641"
         id="path403" />
      <path
         inkscape:connector-curvature="0"
         style="fill:#f092b1"
         d="m 151.207,391.448 c 4.58,0.873 9.194,1.071 13.842,0.584 -0.404,1.662 -0.89,2.918 -1.434,3.756 -1.156,1.767 -2.971,2.601 -5.447,2.501 -2.532,-0.101 -4.359,-1.061 -5.492,-2.88 -0.556,-0.889 -1.042,-2.219 -1.469,-3.961"
         id="path405" />
      <path
         inkscape:connector-curvature="0"
         style="fill:#ffffff"
         d="m 146.46,352.194 c 2.157,1.6 3.225,3.825 3.211,6.685 0,2.862 -1.092,5.515 -3.264,7.961 -2.186,2.458 -4.813,3.993 -7.869,4.578 -3.07,0.611 -5.684,0.104 -7.844,-1.51 -2.171,-1.598 -3.238,-3.822 -3.226,-6.684 0.014,-2.862 1.119,-5.516 3.292,-7.961 2.172,-2.445 4.787,-3.967 7.855,-4.578 3.058,-0.584 5.672,-0.091 7.845,1.509"
         id="path407" />
      <path
         inkscape:connector-curvature="0"
         style="fill:#ffffff"
         d="m 153.392,355.94 c 1.209,-2.718 3.499,-4.502 6.841,-5.334 3.343,-0.819 6.777,-0.441 10.302,1.12 3.499,1.574 6.074,3.888 7.7,6.919 1.626,3.031 1.834,5.918 0.624,8.663 -1.235,2.744 -3.524,4.513 -6.867,5.334 -3.343,0.832 -6.777,0.455 -10.276,-1.12 -3.525,-1.561 -6.1,-3.863 -7.726,-6.893 -1.626,-3.058 -1.834,-5.944 -0.598,-8.689"
         id="path409" />
      <path
         inkscape:connector-curvature="0"
         d="m 139.651,356.028 c -0.85,-1.117 -1.914,-1.733 -3.219,-1.849 -1.306,-0.116 -2.45,0.284 -3.457,1.199 -1.009,0.942 -1.565,2.123 -1.669,3.57 -0.105,1.447 0.257,2.716 1.082,3.832 0.848,1.131 1.914,1.761 3.218,1.877 1.305,0.115 2.45,-0.284 3.458,-1.226 1.021,-0.941 1.589,-2.121 1.692,-3.568 0.105,-1.447 -0.255,-2.717 -1.105,-3.835"
         id="path411" />
      <path
         inkscape:connector-curvature="0"
         d="m 154.6,356.05 c 0.961,-1.142 2.166,-1.77 3.642,-1.89 1.477,-0.117 2.772,0.291 3.912,1.226 1.14,0.96 1.769,2.166 1.887,3.64 0.119,1.479 -0.29,2.773 -1.223,3.912 -0.96,1.155 -2.165,1.797 -3.642,1.914 -1.476,0.12 -2.771,-0.289 -3.912,-1.25 -1.154,-0.959 -1.796,-2.165 -1.914,-3.642 -0.118,-1.476 0.29,-2.771 1.25,-3.91"
         id="path413" />
      <path
         inkscape:connector-curvature="0"
         style="fill:#e83827"
         d="m 141.528,367.106 c 2.104,-2.34 4.641,-3.51 7.614,-3.51 2.973,0 5.51,1.17 7.613,3.51 2.115,2.329 3.172,5.139 3.172,8.43 0,3.29 -1.057,6.1 -3.172,8.429 -2.103,2.341 -4.64,3.512 -7.613,3.512 -2.973,0 -5.51,-1.171 -7.614,-3.512 -2.115,-2.329 -3.172,-5.139 -3.172,-8.429 0,-3.291 1.057,-6.101 3.172,-8.43"
         id="path415" />
    </g>
  </g>
</svg>
