<?xml version="1.0" encoding="UTF-8" standalone="no"?>
<!-- Created with Inkscape (http://www.inkscape.org/) -->

<svg
   xmlns:dc="http://purl.org/dc/elements/1.1/"
   xmlns:cc="http://creativecommons.org/ns#"
   xmlns:rdf="http://www.w3.org/1999/02/22-rdf-syntax-ns#"
   xmlns:svg="http://www.w3.org/2000/svg"
   xmlns="http://www.w3.org/2000/svg"
   xmlns:sodipodi="http://sodipodi.sourceforge.net/DTD/sodipodi-0.dtd"
   xmlns:inkscape="http://www.inkscape.org/namespaces/inkscape"
   width="185.62482"
   height="262.03842"
   id="svg5696"
   version="1.1"
   inkscape:version="0.48.4 r9939"
   sodipodi:docname="ernie4.svg">
  <defs
     id="defs5698">
    <clipPath
       id="SVGID_2_">
      <rect
         height="88.862999"
         width="111.498"
         y="518.96198"
         x="382.04999"
         id="use1087" />
    </clipPath>
    <clipPath
       id="SVGID_4_">
      <rect
         height="41.314999"
         width="49.584999"
         y="525.19397"
         x="389.84698"
         id="use1111" />
    </clipPath>
  </defs>
  <sodipodi:namedview
     id="base"
     pagecolor="#ffffff"
     bordercolor="#666666"
     borderopacity="1.0"
     inkscape:pageopacity="0.0"
     inkscape:pageshadow="2"
     inkscape:zoom="0.77472527"
     inkscape:cx="92.804082"
     inkscape:cy="131.0116"
     inkscape:current-layer="layer1"
     inkscape:document-units="px"
     showgrid="false"
     inkscape:window-width="763"
     inkscape:window-height="591"
     inkscape:window-x="592"
     inkscape:window-y="97"
     inkscape:window-maximized="0"
     fit-margin-top="0"
     fit-margin-left="0"
     fit-margin-right="0"
     fit-margin-bottom="0" />
  <metadata
     id="metadata5701">
    <rdf:RDF>
      <cc:Work
         rdf:about="">
        <dc:format>image/svg+xml</dc:format>
        <dc:type
           rdf:resource="http://purl.org/dc/dcmitype/StillImage" />
        <dc:title></dc:title>
      </cc:Work>
    </rdf:RDF>
  </metadata>
  <g
     id="layer1"
     inkscape:label="Layer 1"
     inkscape:groupmode="layer"
     transform="translate(-225.13921,45.920441)">
    <g
       transform="translate(-570.7745,-59.357941)"
       id="g2337">
      <path
         inkscape:connector-curvature="0"
         style="fill:#e83434"
         d="m 819.751,197.678 0.377,0.872 0.722,0.804 c -0.966,0.886 -1.928,1.811 -2.861,2.782 -0.338,-0.16 -0.699,-0.311 -1.049,-0.438 0.02,0.007 0.042,-0.004 0.05,-0.019 -0.014,0.005 -0.014,0.005 -0.019,-0.008 -0.006,-0.011 -0.006,-0.011 -0.02,-0.006 -0.128,-0.046 -0.276,-0.101 -0.409,-0.16 -0.252,-0.082 -0.504,-0.164 -0.754,-0.247 -0.128,-0.046 -0.25,-0.082 -0.355,-0.11 -4.894,-1.546 -9.266,-0.907 -13.114,1.915 -1.333,0.975 -2.374,2.058 -3.139,3.242 l 0.008,0.01 c -0.191,0.313 -0.366,0.621 -0.525,0.935 -0.264,0.537 -0.436,0.997 -0.525,1.41 -0.128,0.679 0.031,1.176 0.449,1.486 0.134,0.087 0.25,0.167 0.367,0.247 0.521,0.311 1.029,0.516 1.513,0.617 0.888,0.167 1.709,-0.074 2.448,-0.744 0.436,-0.55 0.806,-1.018 1.145,-1.417 0.006,-0.017 0.03,-0.027 0.036,-0.042 0.086,-0.091 0.16,-0.176 0.226,-0.272 l 0.116,0.08 c -0.056,0.091 -0.102,0.194 -0.146,0.309 -0.019,0.021 -0.036,0.042 -0.044,0.058 -0.529,0.98 -0.915,2.013 -1.154,3.072 -0.431,1.835 -0.337,3.265 0.276,4.309 0.38,0.633 0.931,1.114 1.685,1.445 0.104,0.056 0.202,0.102 0.302,0.146 0.728,0.258 1.499,-0.103 2.307,-1.066 0.251,-0.281 0.52,-0.639 0.781,-1.065 1.167,-2.265 1.899,-3.589 2.176,-3.992 -0.531,1.427 -0.926,2.688 -1.213,3.767 -0.288,1.217 -0.452,2.218 -0.456,3.017 -0.025,0.905 0.118,1.673 0.432,2.291 0.461,0.922 1.275,1.537 2.452,1.827 0.189,0.05 0.371,0.089 0.563,0.112 1.021,0.168 2.202,-0.872 3.527,-3.088 1.204,-2.056 1.768,-3.48 1.686,-4.274 0.166,0.564 0.382,1.109 0.632,1.609 0.277,0.549 0.577,1.059 0.901,1.531 0.082,0.122 0.166,0.229 0.252,0.333 0.228,0.317 0.467,0.6 0.699,0.843 0.895,0.848 1.814,1.1 2.775,0.762 0.073,-0.029 0.146,-0.058 0.208,-0.082 1.58,-0.709 2.208,-2.845 1.872,-6.403 -0.104,-1.286 -0.34,-2.536 -0.678,-3.731 -0.092,-0.313 -0.202,-0.633 -0.3,-0.957 -0.216,-0.516 -0.43,-1.032 -0.646,-1.548 l 1.469,-1.839 c 0.691,-0.875 1.473,-1.716 2.348,-2.551 0.781,0.416 1.562,0.794 2.353,1.138 -1.102,1.023 -2.282,2.202 -3.541,3.541 0.646,2.191 1.045,4.004 1.199,5.438 0.291,2.585 0.22,4.542 -0.236,5.883 -0.525,1.605 -1.345,2.601 -2.428,2.986 -1.035,0.425 -2.18,0.499 -3.453,0.221 l -0.014,0.005 c -1.383,-0.292 -2.359,-1.039 -2.941,-2.22 -0.02,-0.062 -0.056,-0.132 -0.073,-0.194 -0.032,-0.086 -0.044,-0.165 -0.057,-0.244 -0.018,0.049 -0.036,0.098 -0.078,0.158 -0.178,0.363 -0.375,0.747 -0.601,1.158 -1.483,2.699 -3.394,3.818 -5.703,3.375 -2.37,-0.364 -3.833,-1.614 -4.426,-3.758 -0.13,-0.466 -0.214,-0.936 -0.258,-1.407 -0.017,-0.008 -0.024,-0.019 -0.017,-0.035 -0.02,0.022 -0.044,0.031 -0.07,0.04 -0.996,0.66 -1.903,0.711 -2.735,0.146 -2.646,-1.105 -3.696,-3.305 -3.167,-6.604 -0.827,0.229 -1.802,-0.071 -2.897,-0.882 -2.054,-1.495 -2.595,-3.322 -1.61,-5.487 0.855,-1.791 2.261,-3.41 4.206,-4.851 5.018,-3.663 10.645,-4.364 16.867,-2.101 0.667,-0.753 1.377,-1.481 2.118,-2.179 l 0.169,0.101 z m 5.755,9.524 c 0.02,0.033 0.031,0.058 0.037,0.096 -0.006,-0.038 -0.018,-0.063 -0.037,-0.096"
         id="path2339" />
      <path
         inkscape:connector-curvature="0"
         style="fill:#f49c00"
         d="m 820.85,199.354 0.202,0.214 c 2.018,1.509 4.052,2.802 6.092,3.882 -0.875,0.835 -1.656,1.676 -2.348,2.551 l -1.469,1.839 c 0.216,0.516 0.43,1.032 0.646,1.548 0.098,0.324 0.208,0.644 0.3,0.957 0.338,1.195 0.573,2.445 0.678,3.731 0.336,3.558 -0.292,5.694 -1.872,6.403 -0.061,0.024 -0.135,0.053 -0.208,0.082 -0.961,0.338 -1.881,0.086 -2.775,-0.762 -0.232,-0.243 -0.472,-0.526 -0.699,-0.843 -0.086,-0.104 -0.17,-0.211 -0.252,-0.333 -0.324,-0.472 -0.624,-0.982 -0.901,-1.531 -0.25,-0.5 -0.466,-1.045 -0.632,-1.609 0.082,0.794 -0.481,2.218 -1.686,4.274 -1.325,2.216 -2.506,3.256 -3.527,3.088 -0.192,-0.023 -0.374,-0.062 -0.563,-0.112 -1.177,-0.29 -1.991,-0.905 -2.452,-1.827 -0.313,-0.618 -0.457,-1.386 -0.432,-2.291 0.004,-0.799 0.168,-1.8 0.456,-3.017 0.287,-1.079 0.682,-2.34 1.213,-3.767 -0.276,0.403 -1.009,1.727 -2.176,3.992 -0.262,0.426 -0.53,0.784 -0.781,1.065 -0.808,0.963 -1.579,1.324 -2.307,1.066 -0.097,-0.044 -0.197,-0.09 -0.302,-0.146 -0.754,-0.331 -1.305,-0.812 -1.685,-1.445 -0.613,-1.044 -0.707,-2.474 -0.276,-4.309 0.239,-1.059 0.625,-2.092 1.154,-3.071 0.008,-0.017 0.025,-0.038 0.044,-0.059 0.044,-0.114 0.09,-0.218 0.146,-0.309 l 0.008,-0.016 c 0.164,-0.248 0.306,-0.485 0.434,-0.69 -0.153,0.186 -0.344,0.388 -0.563,0.614 l 0.006,0.012 c -0.065,0.096 -0.14,0.181 -0.226,0.272 -0.006,0.015 -0.03,0.025 -0.036,0.042 -0.339,0.399 -0.709,0.867 -1.145,1.417 -0.739,0.67 -1.561,0.911 -2.448,0.744 -0.483,-0.101 -0.991,-0.306 -1.513,-0.617 -0.117,-0.08 -0.233,-0.16 -0.367,-0.247 -0.418,-0.31 -0.577,-0.807 -0.449,-1.486 0.09,-0.413 0.262,-0.873 0.525,-1.41 0.159,-0.314 0.334,-0.622 0.525,-0.935 l -0.008,-0.01 c 0.765,-1.184 1.806,-2.267 3.139,-3.242 3.849,-2.822 8.221,-3.461 13.114,-1.915 0.105,0.028 0.228,0.064 0.355,0.11 0.25,0.083 0.502,0.165 0.754,0.247 0.133,0.059 0.281,0.114 0.409,0.16 l -0.012,0.033 c 0.35,0.127 0.711,0.278 1.049,0.438 0.933,-0.971 1.895,-1.896 2.861,-2.782 m 0.613,6.511 -0.018,0.021 0.018,-0.021 z"
         id="path2341" />
      <path
         inkscape:connector-curvature="0"
         style="fill:#e83827"
         d="m 816.939,201.698 0.012,-0.033 c 0.014,-0.005 0.014,-0.005 0.02,0.006 0.005,0.013 0.005,0.013 0.019,0.008 -0.009,0.015 -0.031,0.026 -0.051,0.019"
         id="path2343" />
      <polygon
         style="fill:#9e0c28"
         points="821.023,222.662 821.037,222.657 821.041,222.669 "
         id="polygon2345" />
      <path
         inkscape:connector-curvature="0"
         style="fill:#ffffff"
         d="m 810.839,192.768 c -0.46,0.076 -0.879,0.282 -1.255,0.594 -1.763,1.528 -2.3,3.505 -1.603,5.918 0.198,0.682 0.541,1.281 1.039,1.785 1.281,1.319 2.785,1.894 4.521,1.712 -0.717,0.978 -1.035,2.159 -0.953,3.543 0.04,0.713 0.238,1.367 0.609,1.979 1.297,2.15 3.124,3.089 5.455,2.828 0.474,-0.063 0.905,-0.242 1.281,-0.528 0.703,-0.49 1.324,-1.057 1.865,-1.688 0.043,1.49 0.677,2.783 1.901,3.865 0.523,0.477 1.137,0.794 1.828,0.964 1.484,0.364 2.788,0.272 3.925,-0.266 0.719,-0.346 1.354,-0.873 1.92,-1.585 0.294,-0.389 0.483,-0.815 0.54,-1.277 0.224,-1.233 0.213,-2.432 -0.036,-3.628 -1.751,0.196 -3.509,0.047 -5.287,-0.457 -1.992,-0.577 -4.005,-1.577 -6.055,-3.026 -0.012,-0.012 -0.012,-0.012 -0.027,-0.012 -2.087,-1.487 -3.514,-3.435 -4.276,-5.86 0,-0.013 0,-0.013 -0.015,-0.027 -0.497,-1.625 -0.766,-3.203 -0.785,-4.745 -1.525,-0.404 -3.056,-0.424 -4.592,-0.089"
         id="path2347" />
      <path
         inkscape:connector-curvature="0"
         style="fill:none;stroke:#a0a0a1;stroke-width:2.1099999;stroke-linecap:round;stroke-linejoin:round;stroke-miterlimit:10"
         d="m 815.433,192.857 c -1.526,-0.404 -3.058,-0.425 -4.594,-0.089 -0.46,0.076 -0.879,0.282 -1.255,0.594 -1.763,1.528 -2.3,3.505 -1.603,5.918 0.198,0.682 0.541,1.281 1.039,1.785 1.281,1.319 2.785,1.894 4.521,1.712 -0.717,0.978 -1.035,2.159 -0.953,3.543 0.04,0.713 0.238,1.367 0.609,1.979 1.297,2.15 3.124,3.089 5.455,2.828 0.474,-0.063 0.905,-0.242 1.281,-0.528 0.703,-0.49 1.324,-1.057 1.865,-1.688 0.043,1.49 0.677,2.783 1.901,3.865 0.523,0.477 1.137,0.794 1.828,0.964 1.484,0.364 2.788,0.272 3.925,-0.266 0.719,-0.346 1.354,-0.873 1.92,-1.585 0.294,-0.389 0.483,-0.815 0.54,-1.277 0.224,-1.233 0.213,-2.432 -0.036,-3.628"
         id="path2349" />
      <path
         inkscape:connector-curvature="0"
         style="fill:#ede700"
         d="m 850.153,167.588 c -1.009,-0.336 -2.162,-0.562 -3.443,-0.694 -5.029,1.123 -9.742,2.857 -14.111,5.232 -0.054,0.028 -0.105,0.055 -0.146,0.081 -0.17,1.363 -0.737,2.576 -1.706,3.624 -1.199,1.306 -2.674,1.983 -4.416,2.021 -0.672,0.013 -1.308,-0.066 -1.904,-0.251 -0.362,0.297 -0.726,0.596 -1.091,0.907 -0.194,0.162 -0.374,0.324 -0.568,0.499 -0.415,0.366 -0.829,0.73 -1.23,1.108 -1.526,1.431 -2.775,2.909 -3.734,4.433 0.144,0.538 0.222,1.09 0.235,1.683 0.036,1.807 -0.55,3.376 -1.75,4.681 -0.271,0.283 -0.542,0.552 -0.84,0.783 -0.02,0.383 -0.023,0.766 -0.016,1.162 0.02,1.542 0.288,3.12 0.785,4.745 0.015,0.014 0.015,0.014 0.015,0.027 0.763,2.425 2.189,4.373 4.276,5.86 0.016,0 0.016,0 0.027,0.012 0.256,0.18 0.523,0.359 0.777,0.525 -0.508,-0.913 -0.766,-1.937 -0.791,-3.07 -0.038,-1.808 0.551,-3.376 1.75,-4.682 1.199,-1.304 2.676,-1.982 4.402,-2.018 1.74,-0.036 3.245,0.578 4.5,1.832 1.253,1.253 1.905,2.797 1.941,4.603 0.038,1.807 -0.549,3.376 -1.748,4.681 -0.682,0.753 -1.463,1.297 -2.326,1.632 0.951,0.099 1.9,0.092 2.836,-0.02 0.21,-0.017 0.422,-0.048 0.631,-0.08 2.775,-0.453 5.489,-1.803 8.161,-4.062 0.583,-0.501 1.179,-1.04 1.772,-1.621 0.296,-0.309 0.607,-0.619 0.903,-0.955 1.588,-1.736 3.038,-3.534 4.346,-5.409 1.41,-2.035 2.657,-4.159 3.746,-6.359 1.365,-2.785 2.466,-5.725 3.312,-8.791 0.231,-0.874 0.413,-1.71 0.541,-2.491 -1.492,-0.1 -2.785,-0.706 -3.904,-1.818 -1.252,-1.253 -1.904,-2.796 -1.942,-4.603 -0.025,-1.173 0.216,-2.247 0.71,-3.207 m -2.576,18.022 c 0.038,1.807 -0.549,3.376 -1.748,4.681 -1.201,1.305 -2.678,1.983 -4.418,2.019 -1.727,0.037 -3.229,-0.578 -4.484,-1.832 -1.252,-1.252 -1.906,-2.795 -1.942,-4.602 -0.039,-1.807 0.548,-3.376 1.747,-4.681 1.199,-1.305 2.676,-1.983 4.404,-2.021 1.74,-0.036 3.244,0.579 4.498,1.832 1.254,1.255 1.905,2.799 1.943,4.604"
         id="path2351" />
      <path
         inkscape:connector-curvature="0"
         style="fill:#e50012"
         d="m 845.829,190.291 c 1.199,-1.305 1.786,-2.874 1.748,-4.681 -0.038,-1.805 -0.689,-3.349 -1.943,-4.603 -1.254,-1.253 -2.758,-1.868 -4.498,-1.832 -1.729,0.037 -3.205,0.715 -4.404,2.021 -1.199,1.305 -1.786,2.874 -1.747,4.681 0.036,1.807 0.69,3.35 1.942,4.602 1.255,1.254 2.758,1.869 4.484,1.832 1.74,-0.037 3.217,-0.715 4.418,-2.02"
         id="path2353" />
      <path
         inkscape:connector-curvature="0"
         style="fill:#e50012"
         d="m 849.443,170.795 c 0.038,1.807 0.69,3.35 1.942,4.603 1.119,1.112 2.412,1.718 3.904,1.818 0.752,-5.016 -0.951,-8.226 -5.137,-9.628 -0.493,0.96 -0.734,2.034 -0.709,3.207"
         id="path2355" />
      <path
         inkscape:connector-curvature="0"
         style="fill:#e50012"
         d="m 827.166,175.524 c -0.936,0.666 -1.845,1.358 -2.741,2.077 0.599,0.185 1.234,0.264 1.906,0.251 1.74,-0.038 3.217,-0.715 4.416,-2.021 0.969,-1.048 1.536,-2.261 1.706,-3.624 -1.826,1.002 -3.583,2.107 -5.287,3.317"
         id="path2357" />
      <path
         inkscape:connector-curvature="0"
         style="fill:#e50012"
         d="m 817.612,184.868 c -1.299,2.177 -2.016,4.449 -2.164,6.827 0.298,-0.231 0.569,-0.5 0.84,-0.783 1.2,-1.305 1.786,-2.874 1.75,-4.681 -0.014,-0.593 -0.092,-1.145 -0.235,-1.683 -0.063,0.106 -0.126,0.213 -0.191,0.32"
         id="path2359" />
      <path
         inkscape:connector-curvature="0"
         style="fill:#e50012"
         d="m 822.272,196.274 c -1.199,1.306 -1.788,2.874 -1.75,4.682 0.025,1.133 0.283,2.157 0.791,3.07 1.779,1.164 3.539,1.997 5.277,2.501 0.823,0.234 1.645,0.388 2.451,0.477 0.863,-0.335 1.645,-0.879 2.326,-1.632 1.199,-1.305 1.786,-2.874 1.75,-4.681 -0.038,-1.806 -0.69,-3.35 -1.943,-4.603 -1.255,-1.254 -2.76,-1.868 -4.5,-1.832 -1.726,0.036 -3.202,0.714 -4.402,2.018"
         id="path2361" />
      <path
         inkscape:connector-curvature="0"
         style="fill:none;stroke:#7b7b22;stroke-width:2.1099999;stroke-linecap:round;stroke-linejoin:round;stroke-miterlimit:10"
         d="m 850.153,167.588 c 4.186,1.402 5.889,4.612 5.137,9.628 -0.128,0.781 -0.308,1.617 -0.541,2.491 -0.846,3.066 -1.946,6.006 -3.312,8.791 -1.089,2.2 -2.336,4.324 -3.746,6.359 -1.308,1.875 -2.758,3.673 -4.346,5.409 -0.296,0.336 -0.607,0.646 -0.903,0.955 -0.594,0.581 -1.189,1.12 -1.772,1.621 -2.672,2.259 -5.386,3.609 -8.161,4.062 -0.209,0.032 -0.421,0.062 -0.631,0.08 -0.936,0.112 -1.885,0.119 -2.836,0.02 -0.807,-0.089 -1.628,-0.243 -2.451,-0.477 -1.738,-0.504 -3.498,-1.337 -5.277,-2.501 -0.254,-0.166 -0.521,-0.345 -0.777,-0.525 -0.012,-0.012 -0.012,-0.012 -0.027,-0.012 -2.087,-1.487 -3.514,-3.435 -4.276,-5.86 0,-0.013 0,-0.013 -0.015,-0.027 -0.497,-1.625 -0.766,-3.203 -0.785,-4.745 -0.008,-0.396 -0.004,-0.779 0.016,-1.162 0.148,-2.378 0.865,-4.65 2.164,-6.827 0.064,-0.107 0.128,-0.214 0.19,-0.32 0.959,-1.524 2.208,-3.002 3.734,-4.433 0.401,-0.378 0.815,-0.742 1.23,-1.106 0.194,-0.177 0.374,-0.339 0.568,-0.501 0.365,-0.311 0.729,-0.61 1.091,-0.907 0.895,-0.719 1.804,-1.411 2.739,-2.077 1.704,-1.21 3.461,-2.315 5.287,-3.317 0.04,-0.026 0.092,-0.053 0.146,-0.081 4.369,-2.375 9.082,-4.109 14.111,-5.232 1.281,0.132 2.435,0.358 3.443,0.694 z"
         id="path2363" />
      <path
         inkscape:connector-curvature="0"
         style="fill:#f49c00"
         d="m 953.09,199.06 c 0.455,-0.925 0.445,-1.858 0.006,-2.806 -0.607,-1.235 -1.457,-2.268 -2.532,-3.122 -0.377,-0.288 -0.747,-0.587 -1.114,-0.867 l -1.479,-0.902 -2.455,6.732 c 0.306,0.367 0.649,0.678 1.007,0.951 0.1,0.087 0.191,0.185 0.29,0.273 1.496,1.288 3.177,1.572 5.035,0.861 0.57,-0.206 0.98,-0.577 1.242,-1.12"
         id="path2365" />
      <path
         inkscape:connector-curvature="0"
         style="fill:#f49c00"
         d="m 948.064,202.773 c -0.462,-0.691 -1.186,-1.423 -2.152,-2.182 l -5.607,3.098 c 1.734,3.847 4.079,4.967 7.026,3.332 1.752,-0.965 1.992,-2.385 0.733,-4.248"
         id="path2367" />
      <path
         inkscape:connector-curvature="0"
         style="fill:#f49c00"
         d="m 933.168,209.815 c 0.589,0.765 1.288,1.397 2.098,1.899 0.987,0.612 1.95,0.721 2.882,0.303 0.935,-0.416 1.57,-0.87 1.916,-1.352 0.336,-0.489 0.407,-0.992 0.224,-1.529 l -0.294,-0.813 c -0.289,-0.841 -0.713,-1.584 -1.255,-2.252 -0.084,-0.11 -0.178,-0.207 -0.268,-0.305 l -5.828,1.527 c -0.17,0.756 -0.082,1.469 0.275,2.147 0.068,0.132 0.154,0.259 0.25,0.375"
         id="path2369" />
      <path
         inkscape:connector-curvature="0"
         style="fill:none;stroke:#e83927;stroke-width:2.1099999;stroke-linecap:round;stroke-linejoin:round;stroke-miterlimit:10"
         d="m 953.09,199.06 c -0.262,0.543 -0.672,0.914 -1.243,1.12 -1.858,0.711 -3.539,0.427 -5.035,-0.861 -0.099,-0.088 -0.19,-0.186 -0.29,-0.273 -0.357,-0.273 -0.701,-0.584 -1.007,-0.951 l 2.455,-6.732 1.479,0.902 c 0.367,0.28 0.737,0.579 1.114,0.867 1.075,0.854 1.925,1.887 2.532,3.122 0.44,0.948 0.45,1.881 -0.005,2.806 z m -5.026,3.713 c 1.259,1.863 1.019,3.282 -0.733,4.248 -2.947,1.635 -5.292,0.515 -7.026,-3.332 l 5.607,-3.098 c 0.967,0.759 1.691,1.491 2.152,2.182 z m -14.896,7.042 c -0.096,-0.116 -0.182,-0.243 -0.25,-0.375 -0.357,-0.678 -0.445,-1.391 -0.275,-2.147 l 5.828,-1.527 c 0.09,0.098 0.184,0.195 0.268,0.305 0.542,0.668 0.966,1.411 1.255,2.252 l 0.294,0.813 c 0.184,0.537 0.112,1.04 -0.224,1.529 -0.346,0.482 -0.981,0.936 -1.916,1.352 -0.932,0.418 -1.895,0.309 -2.882,-0.303 -0.81,-0.502 -1.509,-1.134 -2.098,-1.899 z"
         id="path2371" />
      <path
         inkscape:connector-curvature="0"
         style="fill:#b5b5b6"
         d="m 971.025,169.778 c 2.797,-1.675 5.615,-3.109 8.45,-4.271 -0.947,0.211 -2.567,-0.157 -4.821,-1.113 -2.932,-1.231 -6.159,-3.115 -9.661,-5.633 -3.629,-2.611 -6.505,-5.118 -8.606,-7.507 -1.621,-1.832 -2.476,-3.242 -2.565,-4.202 -0.222,3.042 -0.686,6.17 -1.385,9.355 -1.923,8.819 -5.553,17.679 -10.879,26.601 l -0.006,0.03 c 0.017,-0.004 0.028,0.004 0.048,10e-4 l 0.007,-0.011 c 1.736,0.047 3.333,0.562 4.77,1.546 0.861,0.654 1.576,1.379 2.142,2.174 l 0.16,-0.224 1.467,1.055 c 6.497,-7.429 13.466,-13.367 20.879,-17.801"
         id="path2373" />
      <path
         inkscape:connector-curvature="0"
         style="fill:#858585"
         d="m 980.381,164.812 c 0.355,-0.899 -0.403,-2.419 -2.27,-4.591 -2.045,-2.397 -4.83,-4.872 -8.357,-7.443 l -0.289,-0.207 c -3.872,-2.771 -7.285,-4.737 -10.219,-5.921 -2.653,-1.08 -4.336,-1.316 -5.063,-0.686 l -0.361,1.089 c 0.09,0.96 0.944,2.37 2.565,4.202 2.102,2.389 4.978,4.896 8.606,7.507 3.502,2.518 6.729,4.402 9.661,5.633 2.254,0.956 3.874,1.324 4.821,1.113 l 0.908,-0.696 h -0.002 z"
         id="path2375" />
      <path
         inkscape:connector-curvature="0"
         style="fill:#e60b11"
         d="m 949.461,188.372 c -0.275,-0.588 -0.6,-1.131 -0.943,-1.623 -0.565,-0.795 -1.28,-1.52 -2.142,-2.174 -1.437,-0.984 -3.033,-1.499 -4.77,-1.546 l -0.007,0.011 c -0.02,0.003 -0.031,-0.005 -0.048,-0.001 l -0.01,-0.009 c -0.722,-0.013 -1.467,0.051 -2.236,0.195 -0.461,0.076 -0.922,0.199 -1.393,0.332 -3.325,0.988 -6.128,3.05 -8.398,6.209 -2.271,3.159 -3.337,6.471 -3.217,9.937 0.11,3.167 1.191,5.617 3.233,7.362 0.151,0.109 0.3,0.217 0.447,0.306 2.688,1.706 5.581,2.113 8.655,1.205 3.324,-0.987 6.125,-3.051 8.397,-6.21 2.273,-3.159 3.337,-6.47 3.217,-9.937 -0.021,-0.422 -0.052,-0.833 -0.1,-1.24 -0.008,-0.056 -0.021,-0.129 -0.03,-0.184 -0.134,-0.943 -0.37,-1.81 -0.689,-2.61 0.01,-0.01 0.016,-0.02 0.034,-0.023"
         id="path2377" />
      <path
         inkscape:connector-curvature="0"
         style="fill:none;stroke:#626060;stroke-width:2.1099999;stroke-linecap:round;stroke-linejoin:round;stroke-miterlimit:10"
         d="m 949.429,188.395 c 0.008,-0.01 0.015,-0.02 0.032,-0.023 0.231,-0.275 0.459,-0.548 0.684,-0.792 6.498,-7.43 13.468,-13.368 20.881,-17.802 2.797,-1.675 5.615,-3.109 8.45,-4.271 m 0,0.001 c -0.947,0.211 -2.567,-0.157 -4.821,-1.113 -2.932,-1.231 -6.159,-3.115 -9.661,-5.633 -3.629,-2.611 -6.505,-5.118 -8.606,-7.507 -1.621,-1.832 -2.476,-3.242 -2.565,-4.202 l 0.361,-1.089 c 0.728,-0.628 2.41,-0.393 5.063,0.686 2.934,1.184 6.347,3.151 10.219,5.921 l 0.289,0.207 c 3.527,2.571 6.312,5.046 8.357,7.443 1.866,2.172 2.625,3.692 2.27,4.591 l -0.906,0.696 m -25.655,-18.455 c -0.222,3.042 -0.686,6.17 -1.385,9.355 -1.923,8.819 -5.553,17.679 -10.879,26.601"
         id="path2379" />
      <path
         inkscape:connector-curvature="0"
         style="fill:none;stroke:#493857;stroke-width:2.1099999;stroke-linecap:round;stroke-linejoin:round;stroke-miterlimit:10"
         d="m 941.558,183.009 c -0.02,0.004 -0.02,0.004 -0.016,0.021"
         id="path2381" />
      <path
         inkscape:connector-curvature="0"
         style="fill:none;stroke:#7f040b;stroke-width:2.1099999;stroke-linecap:round;stroke-linejoin:round;stroke-miterlimit:10"
         d="m 949.461,188.372 c -0.275,-0.588 -0.6,-1.131 -0.943,-1.623 -0.565,-0.795 -1.28,-1.52 -2.142,-2.174 -1.437,-0.984 -3.033,-1.499 -4.77,-1.546 l -0.007,0.011 c -0.02,0.003 -0.031,-0.005 -0.048,-0.001 l -0.01,-0.009 c -0.722,-0.013 -1.467,0.051 -2.236,0.195 -0.461,0.076 -0.922,0.199 -1.393,0.332 -3.325,0.988 -6.128,3.05 -8.398,6.209 -2.271,3.159 -3.337,6.471 -3.217,9.937 0.11,3.167 1.191,5.617 3.233,7.362 0.151,0.109 0.3,0.217 0.447,0.306 2.688,1.706 5.581,2.113 8.655,1.205 3.324,-0.987 6.125,-3.051 8.397,-6.21 2.273,-3.159 3.337,-6.47 3.217,-9.937 -0.021,-0.422 -0.052,-0.833 -0.1,-1.24 -0.008,-0.056 -0.021,-0.129 -0.03,-0.184 -0.134,-0.943 -0.37,-1.81 -0.689,-2.61"
         id="path2383" />
      <path
         inkscape:connector-curvature="0"
         style="fill:#f49c00"
         d="m 941.784,192.253 c -0.322,-1.224 -0.882,-2.342 -1.697,-3.334 -1.242,-1.593 -2.725,-2.919 -4.428,-3.963 -1.612,-0.966 -3.289,-1.458 -5.02,-1.469 -1.57,-0.008 -3.077,0.257 -4.535,0.817 l -3.382,13.669 c 3.905,1.233 7.248,0.403 10.025,-2.487 0.104,-0.122 0.218,-0.235 0.313,-0.345 l -0.012,-0.007 c -1.446,-1.447 -2.041,-3.598 -1.801,-6.464 -0.24,2.866 0.354,5.017 1.801,6.464 l 0.012,0.007 c 0.794,0.815 1.648,1.479 2.586,2.006 0.804,0.531 1.629,0.783 2.439,0.765 0.817,-0.03 1.422,-0.213 1.791,-0.549 0.847,-0.722 1.465,-1.627 1.852,-2.73 0.274,-0.763 0.286,-1.549 0.056,-2.38"
         id="path2385" />
      <path
         inkscape:connector-curvature="0"
         style="fill:none;stroke:#e83927;stroke-width:2.1099999;stroke-linecap:round;stroke-miterlimit:10"
         d="m 931.249,188.67 c -0.24,2.866 0.354,5.017 1.801,6.464 l 0.012,0.007 c -0.096,0.11 -0.21,0.223 -0.313,0.345 -2.777,2.89 -6.12,3.72 -10.025,2.487 l 3.382,-13.669 c 1.458,-0.56 2.965,-0.825 4.535,-0.817 1.73,0.011 3.407,0.503 5.02,1.469 1.703,1.044 3.186,2.37 4.428,3.963 0.815,0.992 1.375,2.11 1.697,3.334 0.229,0.831 0.218,1.617 -0.055,2.38 -0.387,1.103 -1.005,2.008 -1.852,2.73 -0.369,0.336 -0.974,0.519 -1.791,0.549 -0.811,0.018 -1.636,-0.234 -2.439,-0.765 -0.938,-0.527 -1.792,-1.191 -2.586,-2.006 l -1.814,-6.471 z"
         id="path2387" />
      <path
         inkscape:connector-curvature="0"
         style="fill:#ffffff"
         d="m 931.287,177.595 c 0.431,-0.181 0.888,-0.243 1.363,-0.173 2.31,0.375 3.807,1.77 4.493,4.183 0.188,0.683 0.19,1.363 0.036,2.053 -0.373,1.787 -1.345,3.074 -2.909,3.834 1.123,0.467 2.011,1.297 2.66,2.506 0.331,0.619 0.52,1.282 0.533,1.991 0.023,2.509 -1.02,4.272 -3.147,5.268 -0.422,0.212 -0.879,0.29 -1.354,0.24 -0.846,-0.056 -1.675,-0.203 -2.466,-0.462 0.733,1.293 0.879,2.723 0.416,4.284 -0.194,0.689 -0.544,1.274 -1.044,1.782 -1.742,1.783 -3.724,2.287 -5.928,1.511 -0.444,-0.173 -0.834,-0.438 -1.13,-0.794 -0.839,-0.932 -1.464,-1.964 -1.882,-3.106 2.615,-1.234 4.77,-3.313 6.458,-6.243 0.483,-0.826 0.93,-1.709 1.331,-2.675 0.677,-1.606 0.981,-3.235 0.903,-4.879 l 0.002,-0.018 c -0.03,-0.784 -0.155,-1.567 -0.352,-2.354 -0.424,-1.655 -1.033,-3.144 -1.833,-4.466 1.086,-1.138 2.363,-1.965 3.85,-2.482 z"
         id="path2389" />
      <path
         inkscape:connector-curvature="0"
         style="fill:none;stroke:#a0a0a1;stroke-width:2.1099999;stroke-linecap:round;stroke-linejoin:round;stroke-miterlimit:10"
         d="m 927.438,180.077 c 1.085,-1.138 2.361,-1.965 3.849,-2.482 0.431,-0.181 0.888,-0.243 1.363,-0.173 2.31,0.375 3.807,1.77 4.493,4.183 0.188,0.683 0.19,1.363 0.036,2.053 -0.373,1.787 -1.345,3.074 -2.909,3.834 1.123,0.467 2.011,1.297 2.66,2.506 0.331,0.619 0.52,1.282 0.533,1.991 0.023,2.509 -1.02,4.272 -3.147,5.268 -0.422,0.212 -0.879,0.29 -1.354,0.24 -0.846,-0.056 -1.675,-0.203 -2.466,-0.462 0.733,1.293 0.879,2.723 0.416,4.284 -0.194,0.689 -0.544,1.274 -1.044,1.782 -1.742,1.783 -3.724,2.287 -5.928,1.511 -0.444,-0.173 -0.834,-0.438 -1.13,-0.794 -0.839,-0.932 -1.464,-1.964 -1.882,-3.106"
         id="path2391" />
      <path
         inkscape:connector-curvature="0"
         style="fill:#ede700"
         d="m 928.718,191.794 c -0.401,0.966 -0.848,1.849 -1.331,2.675 -1.688,2.93 -3.843,5.009 -6.458,6.243 -0.836,0.394 -1.714,0.703 -2.64,0.927 -1.205,0.296 -2.485,0.442 -3.856,0.439 0.021,-0.205 0.032,-0.42 0.046,-0.634 0.054,-1.772 -0.529,-3.289 -1.74,-4.522 -1.221,-1.243 -2.724,-1.855 -4.496,-1.832 -1.772,0.02 -3.317,0.667 -4.608,1.932 -0.666,0.656 -1.168,1.37 -1.512,2.15 -4.032,-1.642 -7.799,-3.786 -11.27,-6.44 -1.26,-0.963 -2.48,-2 -3.665,-3.093 -0.749,-0.689 -1.395,-1.367 -1.956,-2.053 -0.389,-0.47 -0.729,-0.93 -1.023,-1.4 0.873,0.457 1.868,0.681 2.951,0.673 1.771,-0.022 3.315,-0.67 4.606,-1.935 1.29,-1.264 1.966,-2.798 2.021,-4.57 0.053,-1.772 -0.528,-3.287 -1.737,-4.521 -0.962,-0.98 -2.095,-1.568 -3.418,-1.768 0.636,-0.197 1.281,-0.388 1.927,-0.578 8.194,-2.328 16.524,-2.651 25.005,-0.993 3.687,0.724 6.678,2.077 8.935,4.057 -1.151,1.221 -1.741,2.669 -1.795,4.348 -0.056,1.772 0.527,3.288 1.746,4.532 1.211,1.234 2.716,1.844 4.488,1.824 0.242,0.001 0.468,-0.014 0.699,-0.041 0.022,1.549 -0.272,3.075 -0.919,4.58 m -24.884,-15.663 c -1.291,1.266 -1.968,2.799 -2.021,4.571 -0.053,1.772 0.527,3.288 1.748,4.53 1.211,1.234 2.714,1.845 4.486,1.824 1.772,-0.02 3.318,-0.667 4.607,-1.933 1.289,-1.267 1.966,-2.798 2.021,-4.569 0.056,-1.773 -0.528,-3.289 -1.737,-4.523 -1.22,-1.242 -2.725,-1.854 -4.497,-1.834 -1.773,0.02 -3.318,0.669 -4.607,1.934"
         id="path2393" />
      <path
         inkscape:connector-curvature="0"
         style="fill:#e50012"
         d="m 901.812,180.702 c 0.054,-1.772 0.73,-3.305 2.021,-4.571 1.289,-1.265 2.834,-1.914 4.606,-1.934 1.772,-0.02 3.277,0.592 4.497,1.834 1.209,1.234 1.793,2.75 1.737,4.523 -0.055,1.771 -0.731,3.302 -2.021,4.569 -1.289,1.266 -2.835,1.913 -4.607,1.933 -1.772,0.021 -3.275,-0.59 -4.486,-1.824 -1.219,-1.242 -1.8,-2.758 -1.747,-4.53"
         id="path2395" />
      <path
         inkscape:connector-curvature="0"
         style="fill:#e50012"
         d="m 888.632,174.065 c 1.323,0.2 2.456,0.788 3.418,1.768 1.209,1.234 1.79,2.749 1.737,4.521 -0.056,1.772 -0.731,3.306 -2.021,4.57 -1.291,1.265 -2.836,1.913 -4.606,1.935 -1.083,0.008 -2.078,-0.216 -2.951,-0.673 -1.847,-2.88 -1.924,-5.632 -0.248,-8.237 0.748,-1.159 1.84,-2.305 3.287,-3.411 0.457,-0.155 0.925,-0.317 1.384,-0.473"
         id="path2397" />
      <path
         inkscape:connector-curvature="0"
         style="fill:#e50012"
         d="m 927.438,180.077 c 0.8,1.322 1.409,2.811 1.833,4.466 0.196,0.787 0.321,1.57 0.35,2.354 v 0.018 c 0.008,0.103 0.018,0.206 0.016,0.299 -0.231,0.027 -0.457,0.042 -0.699,0.041 -1.772,0.02 -3.277,-0.59 -4.488,-1.824 -1.219,-1.244 -1.802,-2.76 -1.746,-4.532 0.054,-1.679 0.644,-3.127 1.795,-4.348 1.165,1.019 2.141,2.185 2.939,3.526"
         id="path2399" />
      <path
         inkscape:connector-curvature="0"
         style="fill:#e50012"
         d="m 902.122,199.172 c 0.344,-0.78 0.846,-1.494 1.512,-2.15 1.291,-1.265 2.836,-1.912 4.608,-1.932 1.772,-0.023 3.275,0.59 4.496,1.832 1.211,1.233 1.794,2.75 1.74,4.522 -0.014,0.214 -0.025,0.429 -0.046,0.634 -0.661,0.003 -1.343,-0.031 -2.04,-0.104 -1.482,-0.154 -3.045,-0.449 -4.702,-0.911 -1.904,-0.531 -3.765,-1.165 -5.568,-1.891"
         id="path2401" />
      <path
         inkscape:connector-curvature="0"
         style="fill:none;stroke:#7b7b22;stroke-width:2.1099999;stroke-linecap:round;stroke-linejoin:round;stroke-miterlimit:10"
         d="m 928.718,191.794 c 0.647,-1.505 0.941,-3.031 0.919,-4.58 0.002,-0.093 -0.008,-0.196 -0.016,-0.299 l 0.002,-0.018 c -0.03,-0.784 -0.155,-1.567 -0.352,-2.354 -0.424,-1.655 -1.033,-3.144 -1.833,-4.466 -0.797,-1.341 -1.774,-2.507 -2.94,-3.526 -2.257,-1.979 -5.248,-3.333 -8.935,-4.057 -8.48,-1.658 -16.811,-1.335 -25.005,0.993 -0.646,0.19 -1.291,0.381 -1.927,0.578 -0.459,0.156 -0.927,0.318 -1.385,0.473 -1.447,1.106 -2.539,2.252 -3.287,3.411 -1.676,2.605 -1.599,5.357 0.248,8.237 0.294,0.47 0.635,0.93 1.023,1.4 0.562,0.686 1.207,1.364 1.956,2.053 1.185,1.093 2.405,2.13 3.665,3.093 3.471,2.654 7.237,4.798 11.27,6.44 1.803,0.726 3.664,1.36 5.568,1.89 1.657,0.463 3.22,0.758 4.702,0.912 0.7,0.073 1.379,0.107 2.04,0.104 1.371,0.003 2.651,-0.143 3.856,-0.439 0.926,-0.224 1.804,-0.533 2.64,-0.927 2.615,-1.234 4.77,-3.313 6.458,-6.243 0.485,-0.826 0.931,-1.709 1.333,-2.675 z"
         id="path2403" />
      <path
         inkscape:connector-curvature="0"
         style="fill:#e60b11"
         d="m 863.811,249.652 c 0.609,2.052 1.96,3.273 4.042,3.681 4.984,-1.588 6.796,-4.85 5.438,-9.773 -1.393,-5.027 -7.117,-8.988 -17.164,-11.872 -2.196,3.059 -4.387,6.146 -6.562,9.238 -3.239,4.655 -6.172,9.69 -8.758,15.111 -8.638,0.055 -13.706,3.678 -15.213,10.874 -0.529,2.438 0.274,4.33 2.427,5.668 3.786,2.342 7.823,2.475 12.112,0.398 9.038,-4.341 16.164,-10.649 21.387,-18.961 0.876,-1.393 1.635,-2.848 2.291,-4.364"
         id="path2405" />
      <path
         inkscape:connector-curvature="0"
         style="fill:none;stroke:#7f040b;stroke-width:2.10700011;stroke-linecap:round;stroke-linejoin:round;stroke-miterlimit:10"
         d="m 863.811,249.652 c -0.655,1.516 -1.415,2.971 -2.292,4.364 -5.223,8.312 -12.349,14.62 -21.387,18.961 -4.289,2.077 -8.326,1.944 -12.112,-0.398 -2.152,-1.338 -2.956,-3.23 -2.427,-5.668 1.507,-7.196 6.575,-10.819 15.213,-10.874 2.586,-5.421 5.519,-10.456 8.758,-15.111 2.176,-3.092 4.366,-6.179 6.562,-9.238 10.047,2.884 15.771,6.845 17.164,11.872 1.358,4.923 -0.453,8.185 -5.438,9.773 -2.081,-0.408 -3.432,-1.629 -4.041,-3.681 z"
         id="path2407" />
      <path
         inkscape:connector-curvature="0"
         style="fill:#e60b11"
         d="m 897.017,249.414 c 0.955,1.92 0.806,3.742 -0.43,5.472 -4.706,2.26 -8.242,1.114 -10.606,-3.426 -2.408,-4.639 -0.945,-11.471 4.393,-20.486 3.68,0.732 7.373,1.49 11.06,2.262 5.524,1.184 11.082,2.859 16.65,5.053 6.316,-5.891 12.467,-6.718 18.46,-2.481 2.046,1.421 2.749,3.361 2.096,5.819 -1.155,4.315 -4,7.184 -8.53,8.611 -9.527,3.028 -18.999,3.3 -28.454,0.798 -1.587,-0.418 -3.131,-0.965 -4.639,-1.622"
         id="path2409" />
      <path
         inkscape:connector-curvature="0"
         style="fill:none;stroke:#7f040b;stroke-width:2.1099999;stroke-linecap:round;stroke-linejoin:round;stroke-miterlimit:10"
         d="m 897.017,249.414 c 1.509,0.657 3.053,1.204 4.638,1.622 9.455,2.502 18.927,2.23 28.454,-0.798 4.53,-1.427 7.375,-4.296 8.53,-8.611 0.653,-2.458 -0.05,-4.398 -2.096,-5.819 -5.993,-4.237 -12.144,-3.41 -18.458,2.481 -5.57,-2.194 -11.128,-3.869 -16.652,-5.053 -3.687,-0.772 -7.38,-1.53 -11.06,-2.262 -5.338,9.015 -6.801,15.847 -4.393,20.486 2.364,4.54 5.9,5.686 10.606,3.426 1.236,-1.731 1.386,-3.552 0.431,-5.472 z"
         id="path2411" />
      <path
         inkscape:connector-curvature="0"
         style="fill:#ffffff"
         d="m 846.561,234.716 c -1.319,0.824 -2.392,1.886 -3.197,3.198 -0.262,0.377 -0.39,0.786 -0.412,1.257 -0.111,2.234 0.939,3.884 3.153,4.938 0.622,0.308 1.275,0.451 1.986,0.436 1.82,-0.055 3.273,-0.755 4.326,-2.107 0.229,1.149 0.865,2.135 1.908,2.972 0.531,0.43 1.149,0.699 1.843,0.836 2.422,0.456 4.341,-0.216 5.748,-2.043 0.286,-0.383 0.442,-0.796 0.496,-1.245 0.134,-0.81 0.146,-1.599 0.058,-2.398 1.113,0.918 2.476,1.301 4.084,1.136 0.705,-0.067 1.337,-0.294 1.933,-0.675 2.088,-1.341 2.974,-3.107 2.658,-5.309 -0.076,-0.468 -0.254,-0.877 -0.548,-1.215 -0.726,-0.944 -1.606,-1.716 -2.64,-2.314 -2.216,2.883 -5.635,4.812 -10.255,5.795 -2.502,0.518 -4.878,0.266 -7.155,-0.749 -1.525,-0.702 -2.85,-1.545 -3.986,-2.513"
         id="path2413" />
      <path
         inkscape:connector-curvature="0"
         style="fill:none;stroke:#a0a0a1;stroke-width:2.1500001;stroke-linecap:round;stroke-linejoin:round;stroke-miterlimit:10"
         d="m 846.561,234.716 c -1.319,0.824 -2.392,1.886 -3.197,3.198 -0.262,0.377 -0.39,0.786 -0.412,1.257 -0.111,2.234 0.939,3.884 3.153,4.938 0.622,0.308 1.275,0.451 1.986,0.436 1.82,-0.055 3.273,-0.755 4.326,-2.107 0.229,1.149 0.865,2.135 1.908,2.972 0.531,0.43 1.149,0.699 1.843,0.836 2.422,0.456 4.341,-0.216 5.748,-2.043 0.286,-0.383 0.442,-0.796 0.496,-1.245 0.134,-0.81 0.146,-1.599 0.058,-2.398 1.113,0.918 2.476,1.301 4.084,1.136 0.705,-0.067 1.337,-0.294 1.933,-0.675 2.088,-1.341 2.974,-3.107 2.658,-5.309 -0.076,-0.468 -0.254,-0.877 -0.548,-1.215 -0.726,-0.944 -1.606,-1.716 -2.64,-2.314"
         id="path2415" />
      <path
         inkscape:connector-curvature="0"
         style="fill:#ede700"
         d="m 841.629,220.552 c -0.02,0.058 -0.024,0.112 -0.03,0.165 -0.016,0.496 -0.036,0.981 -0.04,1.474 -0.042,4.292 0.991,7.8 3.096,10.512 0.551,0.721 1.192,1.4 1.906,2.013 1.137,0.968 2.462,1.811 3.986,2.513 1.706,0.766 3.479,1.092 5.309,0.995 0.609,-0.036 1.222,-0.126 1.847,-0.246 1.932,-0.407 3.643,-0.978 5.159,-1.715 2.108,-1.039 3.805,-2.393 5.096,-4.08 1.327,-1.72 2.222,-3.78 2.682,-6.194 0.26,-1.324 0.392,-2.749 0.382,-4.267 -0.005,-0.641 -0.028,-1.304 -0.07,-1.977 -0.09,-1.333 -0.248,-2.655 -0.449,-3.967 l -28.874,4.774 z"
         id="path2417" />
      <path
         inkscape:connector-curvature="0"
         style="fill:#ede700"
         d="m 871.021,221.722 c 0.01,1.518 -0.122,2.943 -0.382,4.267 0.012,-0.014 0.012,-0.014 0.023,-0.031 0.689,-0.917 0.945,-1.92 0.768,-3.012 -0.071,-0.442 -0.206,-0.846 -0.409,-1.224"
         id="path2419" />
      <path
         inkscape:connector-curvature="0"
         style="fill:none;stroke:#7b7b22;stroke-width:2.1500001;stroke-linecap:round;stroke-linejoin:round;stroke-miterlimit:10"
         d="m 841.599,220.717 c -0.016,0.496 -0.036,0.981 -0.04,1.474 -0.042,4.292 0.991,7.8 3.096,10.512 0.551,0.721 1.192,1.4 1.906,2.013 1.137,0.968 2.462,1.811 3.986,2.513 1.706,0.766 3.479,1.092 5.309,0.995 0.609,-0.036 1.222,-0.126 1.847,-0.246 1.932,-0.407 3.643,-0.978 5.159,-1.715 2.108,-1.039 3.805,-2.393 5.096,-4.08 1.327,-1.72 2.222,-3.78 2.682,-6.194 0.26,-1.324 0.392,-2.749 0.382,-4.267 -0.005,-0.641 -0.028,-1.304 -0.07,-1.977 -0.09,-1.333 -0.248,-2.655 -0.449,-3.967"
         id="path2421" />
      <path
         inkscape:connector-curvature="0"
         style="fill:#e50012"
         d="m 858.833,223.707 c -1.469,-1.045 -3.111,-1.421 -4.908,-1.116 -1.781,0.302 -3.216,1.199 -4.275,2.673 -1.059,1.475 -1.45,3.114 -1.159,4.894 0.288,1.78 1.176,3.203 2.648,4.249 1.47,1.045 3.11,1.422 4.893,1.118 1.795,-0.303 3.229,-1.201 4.289,-2.674 1.061,-1.475 1.45,-3.116 1.162,-4.895 -0.292,-1.78 -1.179,-3.203 -2.65,-4.249"
         id="path2423" />
      <path
         inkscape:connector-curvature="0"
         style="fill:#ffffff"
         d="m 903.027,229.998 c 1.601,0.216 3.093,0.742 4.466,1.594 0.421,0.235 0.737,0.548 0.987,0.959 1.194,1.946 1.047,3.827 -0.446,5.633 -0.415,0.518 -0.937,0.902 -1.59,1.168 -1.681,0.665 -3.34,0.61 -4.956,-0.181 0.354,1.113 0.26,2.242 -0.279,3.396 -0.272,0.591 -0.7,1.073 -1.264,1.466 -1.976,1.357 -4.044,1.511 -6.216,0.435 -0.449,-0.227 -0.793,-0.534 -1.06,-0.914 -0.517,-0.669 -0.913,-1.368 -1.225,-2.114 -0.562,1.255 -1.612,2.131 -3.153,2.614 -0.669,0.216 -1.354,0.262 -2.08,0.157 -2.552,-0.378 -4.222,-1.601 -5.011,-3.687 -0.16,-0.446 -0.198,-0.881 -0.097,-1.296 0.198,-1.126 0.618,-2.158 1.266,-3.097 3.419,1.7 7.465,2.076 12.141,1.141 2.523,-0.521 4.556,-1.676 6.126,-3.472 1.042,-1.224 1.834,-2.494 2.391,-3.802"
         id="path2425" />
      <path
         inkscape:connector-curvature="0"
         style="fill:none;stroke:#a0a0a1;stroke-width:2.10599995;stroke-linecap:round;stroke-linejoin:round;stroke-miterlimit:10"
         d="m 903.027,229.998 c 1.601,0.216 3.093,0.742 4.466,1.594 0.421,0.235 0.737,0.548 0.987,0.959 1.194,1.946 1.047,3.827 -0.446,5.633 -0.415,0.518 -0.937,0.902 -1.59,1.168 -1.681,0.665 -3.34,0.61 -4.956,-0.181 0.354,1.113 0.26,2.242 -0.279,3.396 -0.272,0.591 -0.7,1.073 -1.264,1.466 -1.976,1.357 -4.044,1.511 -6.216,0.435 -0.449,-0.227 -0.793,-0.534 -1.06,-0.914 -0.517,-0.669 -0.913,-1.368 -1.225,-2.114 -0.562,1.255 -1.612,2.131 -3.153,2.614 -0.669,0.216 -1.354,0.262 -2.08,0.157 -2.552,-0.378 -4.222,-1.601 -5.011,-3.687 -0.16,-0.446 -0.198,-0.881 -0.097,-1.296 0.198,-1.126 0.618,-2.158 1.266,-3.097"
         id="path2427" />
      <path
         inkscape:connector-curvature="0"
         style="fill:#ede700"
         d="m 900.579,215.449 c 0.046,0.043 0.076,0.09 0.106,0.136 0.258,0.436 0.513,0.859 0.757,1.297 2.138,3.805 2.917,7.335 2.332,10.576 -0.147,0.858 -0.399,1.714 -0.747,2.54 -0.558,1.308 -1.35,2.579 -2.391,3.802 -1.173,1.349 -2.623,2.336 -4.329,2.967 -0.57,0.206 -1.174,0.366 -1.797,0.505 -1.954,0.394 -3.786,0.558 -5.522,0.495 -2.422,-0.099 -4.622,-0.64 -6.618,-1.636 -2.045,-1.011 -3.865,-2.495 -5.463,-4.464 -0.884,-1.079 -1.699,-2.295 -2.435,-3.652 -0.306,-0.572 -0.609,-1.172 -0.902,-1.788 -0.568,-1.222 -1.069,-2.46 -1.531,-3.71 l 28.54,-7.068 z"
         id="path2429" />
      <path
         inkscape:connector-curvature="0"
         style="fill:#ede700"
         d="m 874.473,228.015 c 0.735,1.357 1.551,2.573 2.435,3.652 -0.019,-0.008 -0.019,-0.008 -0.036,-0.018 -1.075,-0.547 -1.799,-1.342 -2.17,-2.382 -0.152,-0.421 -0.225,-0.834 -0.229,-1.252"
         id="path2431" />
      <path
         inkscape:connector-curvature="0"
         style="fill:none;stroke:#7b7b22;stroke-width:2.10599995;stroke-linecap:round;stroke-linejoin:round;stroke-miterlimit:10"
         d="m 900.686,215.585 c 0.258,0.436 0.513,0.859 0.757,1.297 2.138,3.805 2.917,7.335 2.332,10.576 -0.147,0.858 -0.399,1.714 -0.747,2.54 -0.558,1.308 -1.35,2.579 -2.391,3.802 -1.173,1.349 -2.623,2.336 -4.329,2.967 -0.57,0.206 -1.174,0.366 -1.797,0.505 -1.954,0.394 -3.786,0.558 -5.522,0.495 -2.422,-0.099 -4.622,-0.64 -6.618,-1.636 -2.045,-1.011 -3.865,-2.495 -5.463,-4.464 -0.884,-1.079 -1.699,-2.295 -2.435,-3.652 -0.306,-0.572 -0.609,-1.172 -0.902,-1.788 -0.568,-1.222 -1.069,-2.46 -1.531,-3.71"
         id="path2433" />
      <path
         inkscape:connector-curvature="0"
         style="fill:#e50012"
         d="m 886.506,225.005 c 0.825,-1.507 2.13,-2.485 3.908,-2.918 1.765,-0.43 3.505,-0.193 5.188,0.705 1.685,0.897 2.84,2.205 3.448,3.903 0.606,1.699 0.496,3.315 -0.327,4.822 -0.823,1.507 -2.128,2.485 -3.895,2.915 -1.778,0.433 -3.519,0.197 -5.201,-0.701 -1.683,-0.896 -2.841,-2.206 -3.448,-3.904 -0.606,-1.697 -0.496,-3.315 0.327,-4.822"
         id="path2435" />
      <path
         inkscape:connector-curvature="0"
         style="fill:#e50012"
         d="m 894.579,179.539 c -0.594,0.184 -1.201,0.302 -1.847,0.356 -0.382,0.844 -0.567,1.767 -0.567,2.77 0,1.807 0.619,3.363 1.847,4.643 1.227,1.278 2.717,1.925 4.445,1.925 1.74,0 3.231,-0.647 4.458,-1.925 0.726,-0.751 1.229,-1.582 1.53,-2.506 l -0.054,-0.119 -0.197,-0.449 c -0.013,-0.026 -0.024,-0.053 -0.04,-0.065 -0.382,0.143 -0.724,0.343 -1.054,0.619 -0.014,-0.013 -0.014,-0.013 -0.027,-0.013 -0.172,-0.119 -0.33,-0.317 -0.474,-0.594 -0.212,-0.382 -0.436,-0.699 -0.686,-0.936 -0.304,-0.29 -0.527,-0.621 -0.688,-0.976 -0.118,-0.278 -0.461,-1.042 -1.001,-2.295 -0.212,-0.462 -0.556,-1.267 -1.029,-2.441 -0.146,-0.343 -0.29,-0.712 -0.449,-1.119 -0.04,0.051 -0.066,0.105 -0.104,0.143 -0.253,0.343 -0.541,0.673 -0.845,0.976 -0.252,0.251 -0.502,0.475 -0.766,0.688 -0.014,0.011 -0.025,0.011 -0.04,0.025 -0.012,0.013 -0.012,0.013 -0.024,0.026 l -1.386,0.858 c -0.106,0.053 -0.212,0.106 -0.33,0.158 l -0.672,0.251 z"
         id="path2437" />
      <path
         inkscape:connector-curvature="0"
         style="fill:#ede700"
         d="m 891.348,179.882 c -0.092,-0.014 -0.186,-0.014 -0.277,-0.027 h -0.04 l -1.898,-0.461 c -0.08,-0.027 -0.158,-0.054 -0.226,-0.079 -0.118,-0.053 -0.223,-0.107 -0.328,-0.159 l -2.15,-1.491 c -0.012,-0.013 -0.012,-0.013 -0.027,-0.027 -0.304,1.532 -1.043,2.877 -2.202,4.037 -1.583,1.583 -3.495,2.375 -5.749,2.375 l -0.739,-0.027 c -0.04,-0.013 -0.092,-0.013 -0.134,-0.013 -0.855,-0.079 -1.648,-0.278 -2.386,-0.607 -0.146,1.491 -0.753,2.796 -1.822,3.905 -1.225,1.278 -2.716,1.925 -4.458,1.925 -1.727,0 -3.217,-0.647 -4.444,-1.925 -1.068,-1.122 -1.662,-2.427 -1.808,-3.931 -1.581,-0.225 -2.979,-0.897 -4.181,-2.004 -0.092,-0.094 -0.198,-0.186 -0.29,-0.278 -0.673,-0.674 -1.213,-1.411 -1.595,-2.217 -0.277,-0.58 -0.478,-1.185 -0.607,-1.82 -1.122,1.096 -2.415,1.794 -3.866,2.098 -0.197,0.04 -0.38,0.066 -0.579,0.092 -0.396,0.054 -0.792,0.079 -1.201,0.079 -1.78,0 -3.363,-0.501 -4.722,-1.49 -0.355,-0.264 -0.699,-0.554 -1.029,-0.884 -0.079,-0.079 -0.157,-0.159 -0.237,-0.237 -0.013,0.053 -0.026,0.105 -0.038,0.158 -0.146,0.489 -0.29,0.896 -0.408,1.241 1.172,1.265 1.767,2.783 1.767,4.55 0,1.807 -0.621,3.363 -1.848,4.643 -1.228,1.278 -2.718,1.925 -4.458,1.925 -0.54,0 -1.054,-0.067 -1.543,-0.185 l -1.121,3.628 c -0.014,0.066 -0.026,0.118 -0.04,0.185 -0.012,0.026 -0.012,0.052 -0.012,0.078 -0.094,0.371 -0.172,0.74 -0.252,1.109 -0.014,0.039 -0.014,0.065 -0.014,0.105 -0.459,2.27 -0.726,4.538 -0.777,6.805 h 13.202 c -0.646,-1.04 -0.963,-2.215 -0.963,-3.521 0,-1.807 0.622,-3.362 1.848,-4.643 1.227,-1.279 2.716,-1.925 4.444,-1.925 1.74,0 3.232,0.646 4.458,1.925 1.227,1.281 1.848,2.836 1.848,4.643 0,1.306 -0.315,2.481 -0.963,3.521 h 18.875 c -0.646,-1.04 -0.963,-2.215 -0.963,-3.521 0,-1.807 0.619,-3.362 1.848,-4.643 1.226,-1.279 2.716,-1.925 4.444,-1.925 1.74,0 3.231,0.646 4.456,1.925 1.23,1.281 1.849,2.836 1.849,4.643 0,1.306 -0.316,2.481 -0.964,3.521 h 19.179 c -0.065,-2.65 -0.396,-5.314 -1.015,-7.979 -0.094,-0.408 -0.198,-0.804 -0.304,-1.2 -0.013,-0.066 -0.026,-0.118 -0.04,-0.172 -0.514,-1.952 -1.186,-3.903 -2.006,-5.869 -0.064,-0.172 -0.143,-0.33 -0.21,-0.502 -0.013,-0.039 -0.04,-0.091 -0.053,-0.131 -0.012,-0.026 -0.012,-0.053 -0.027,-0.066 -0.038,-0.066 -0.066,-0.119 -0.078,-0.185 l -0.026,-0.052 c -0.302,0.924 -0.805,1.755 -1.53,2.506 -1.227,1.278 -2.718,1.925 -4.458,1.925 -1.729,0 -3.219,-0.647 -4.445,-1.925 -1.228,-1.28 -1.847,-2.836 -1.847,-4.643 0,-1.003 0.186,-1.926 0.567,-2.77 -0.094,0 -0.196,0 -0.29,0.013 h -0.052 -0.066 -0.092 -0.079 -0.066 -0.04 c -0.242,0 -0.479,-0.013 -0.702,-0.026"
         id="path2439" />
      <path
         inkscape:connector-curvature="0"
         style="fill:#ede700"
         d="m 859.48,200.958 c -0.25,0.396 -0.541,0.766 -0.885,1.123 -1.226,1.278 -2.718,1.925 -4.458,1.925 -1.729,0 -3.218,-0.647 -4.444,-1.925 -0.342,-0.357 -0.635,-0.727 -0.885,-1.123 h -13.202 c -0.014,0.41 -0.014,0.806 0,1.215 v 0.263 c 0.014,1.029 0.065,2.059 0.17,3.1 0.04,0.396 0.08,0.792 0.134,1.188 1.015,-0.727 2.162,-1.082 3.455,-1.082 1.74,0 3.23,0.646 4.458,1.925 1.227,1.28 1.848,2.836 1.848,4.643 0,1.807 -0.621,3.363 -1.848,4.643 -1.096,1.147 -2.4,1.794 -3.903,1.913 0.618,0.962 1.304,1.887 2.07,2.744 0.618,-0.225 1.185,-0.422 1.701,-0.581 0.515,-0.17 0.977,-0.316 1.372,-0.422 1.345,-0.356 2.691,-0.541 4.036,-0.541 0.131,0 0.264,0 0.409,0.013 l 2.757,0.291 c 2.821,0.514 6.08,1.662 9.787,3.443 0.275,0.144 0.619,0.316 1.03,0.514 0.156,0.066 0.314,0.145 0.486,0.237 1.517,0.356 3.087,0.594 4.695,0.685 0.621,0.027 1.239,0.04 1.874,0.04 h 0.172 c 0.17,0 0.342,0 0.512,-0.013 1.123,-0.039 2.282,-0.132 3.457,-0.29 1.543,-0.211 3.125,-0.527 4.748,-0.936 0.172,-0.093 0.345,-0.172 0.489,-0.237 3.522,-1.703 6.634,-2.822 9.365,-3.364 1.199,-0.238 2.32,-0.37 3.363,-0.383 h 0.157 0.065 c 0.278,0 0.568,0.013 0.858,0.026 0.567,0.304 1.187,0.462 1.886,0.462 0.276,0 0.54,-0.026 0.792,-0.066 0.171,0.04 0.329,0.08 0.501,0.119 0.33,0.092 0.699,0.197 1.121,0.329 0.963,0.305 2.176,0.74 3.641,1.293 2.678,-2.809 4.565,-6.265 5.646,-10.341 0.17,-0.646 0.314,-1.279 0.46,-1.925 0.238,-1.122 0.422,-2.23 0.567,-3.351 0.132,-1.134 0.226,-2.268 0.264,-3.416 0.014,-0.712 0.014,-1.425 0,-2.138 h -19.179 c -0.249,0.396 -0.539,0.766 -0.885,1.123 -1.225,1.278 -2.716,1.925 -4.456,1.925 -1.729,0 -3.219,-0.647 -4.444,-1.925 -0.344,-0.357 -0.635,-0.727 -0.885,-1.123 H 859.48 z m 3.138,11.252 c 0,-1.807 0.621,-3.363 1.848,-4.642 1.228,-1.28 2.718,-1.926 4.444,-1.926 1.742,0 3.233,0.646 4.458,1.926 0.543,0.567 0.965,1.173 1.266,1.846 0.385,0.856 0.581,1.781 0.581,2.796 0,1.807 -0.618,3.365 -1.847,4.643 -1.225,1.28 -2.716,1.926 -4.458,1.926 -1.727,0 -3.217,-0.646 -4.444,-1.926 -0.315,-0.329 -0.595,-0.685 -0.832,-1.042 -0.672,-1.055 -1.016,-2.254 -1.016,-3.601 m 29.547,0 c 0,-1.807 0.619,-3.363 1.847,-4.642 1.227,-1.28 2.717,-1.926 4.445,-1.926 1.74,0 3.231,0.646 4.458,1.926 1.229,1.279 1.847,2.835 1.847,4.642 0,1.807 -0.618,3.365 -1.847,4.643 -1.227,1.28 -2.718,1.926 -4.458,1.926 -1.729,0 -3.219,-0.646 -4.445,-1.926 -1.228,-1.278 -1.847,-2.836 -1.847,-4.643"
         id="path2441" />
      <path
         inkscape:connector-curvature="0"
         style="fill:#e50012"
         d="m 888.141,192.794 c -1.225,-1.279 -2.716,-1.925 -4.456,-1.925 -1.729,0 -3.219,0.646 -4.444,1.925 -1.229,1.281 -1.848,2.836 -1.848,4.643 0,1.808 0.619,3.364 1.848,4.644 1.226,1.278 2.716,1.925 4.444,1.925 1.74,0 3.231,-0.647 4.456,-1.925 1.23,-1.28 1.849,-2.836 1.849,-4.644 -10e-4,-1.807 -0.619,-3.362 -1.849,-4.643"
         id="path2443" />
      <path
         inkscape:connector-curvature="0"
         style="fill:#e50012"
         d="m 898.457,218.779 c 1.74,0 3.231,-0.646 4.458,-1.926 1.229,-1.278 1.847,-2.836 1.847,-4.643 0,-1.807 -0.618,-3.363 -1.847,-4.642 -1.227,-1.28 -2.718,-1.926 -4.458,-1.926 -1.729,0 -3.219,0.646 -4.445,1.926 -1.228,1.279 -1.847,2.835 -1.847,4.642 0,1.807 0.619,3.365 1.847,4.643 1.226,1.28 2.717,1.926 4.445,1.926"
         id="path2445" />
      <path
         inkscape:connector-curvature="0"
         style="fill:#e50012"
         d="m 875.215,212.21 c 0,-1.015 -0.196,-1.94 -0.581,-2.796 -0.301,-0.673 -0.723,-1.279 -1.266,-1.846 -1.225,-1.28 -2.716,-1.926 -4.458,-1.926 -1.727,0 -3.217,0.646 -4.444,1.926 -1.227,1.279 -1.848,2.835 -1.848,4.642 0,1.347 0.344,2.546 1.016,3.601 0.239,0.357 0.517,0.713 0.832,1.042 1.228,1.28 2.718,1.926 4.444,1.926 1.742,0 3.233,-0.646 4.458,-1.926 1.229,-1.278 1.847,-2.836 1.847,-4.643"
         id="path2447" />
      <path
         inkscape:connector-curvature="0"
         style="fill:#e50012"
         d="m 847.846,197.437 c 0,1.808 0.622,3.364 1.848,4.644 1.227,1.278 2.716,1.925 4.444,1.925 1.74,0 3.232,-0.647 4.458,-1.925 1.227,-1.28 1.848,-2.836 1.848,-4.644 0,-1.807 -0.621,-3.362 -1.848,-4.643 -1.226,-1.279 -2.718,-1.925 -4.458,-1.925 -1.729,0 -3.218,0.646 -4.444,1.925 -1.226,1.281 -1.848,2.836 -1.848,4.643"
         id="path2449" />
      <path
         inkscape:connector-curvature="0"
         style="fill:#e50012"
         d="m 872.736,181.715 c -0.014,-0.013 -0.027,-0.027 -0.04,-0.04 -0.713,-0.712 -1.265,-1.49 -1.648,-2.335 -0.355,0.62 -0.817,1.214 -1.358,1.755 -1.583,1.584 -3.495,2.373 -5.751,2.373 h -0.25 c -0.357,-0.012 -0.699,-0.052 -1.03,-0.091 0.146,1.504 0.739,2.809 1.808,3.931 1.228,1.278 2.718,1.925 4.444,1.925 1.742,0 3.233,-0.647 4.458,-1.925 1.069,-1.109 1.677,-2.414 1.822,-3.905 -0.712,-0.317 -1.373,-0.738 -1.979,-1.253 -0.014,-0.013 -0.027,-0.013 -0.04,-0.027 -0.014,-0.011 -0.014,-0.011 -0.027,-0.024 -0.04,-0.042 -0.064,-0.068 -0.092,-0.08 -0.026,-0.027 -0.053,-0.053 -0.066,-0.066 -0.026,-0.014 -0.052,-0.04 -0.064,-0.054 -0.014,-0.012 -0.014,-0.026 -0.027,-0.039 -0.026,-0.013 -0.054,-0.04 -0.08,-0.066 -0.012,-0.014 -0.012,-0.014 -0.024,-0.026 -0.016,-0.014 -0.043,-0.04 -0.056,-0.053"
         id="path2451" />
      <polygon
         style="fill:#ede700"
         points="904.445,184.802 904.472,184.854 904.392,184.683 "
         id="polygon2453" />
      <path
         inkscape:connector-curvature="0"
         style="fill:#e50012"
         d="m 843.613,178.813 c -0.013,0.039 -0.042,0.065 -0.053,0.106 -0.423,0.79 -0.937,1.939 -1.544,3.455 -0.33,0.806 -0.766,1.438 -1.307,1.925 -0.011,0.013 -0.04,0.041 -0.054,0.054 -0.248,0.224 -0.618,0.62 -1.132,1.174 -0.253,0.25 -0.503,0.488 -0.753,0.713 -0.026,0.038 -0.054,0.092 -0.064,0.144 -0.029,0.066 -0.054,0.132 -0.081,0.198 -0.066,0.171 -0.117,0.33 -0.185,0.488 l -0.619,1.978 c 0.489,0.118 1.003,0.185 1.543,0.185 1.74,0 3.23,-0.647 4.458,-1.925 1.227,-1.28 1.848,-2.836 1.848,-4.643 0,-1.767 -0.595,-3.285 -1.767,-4.551 -0.106,0.29 -0.198,0.528 -0.29,0.699"
         id="path2455" />
      <path
         inkscape:connector-curvature="0"
         style="fill:#e50012"
         d="m 835.91,206.724 v 0.039 c 0.224,1.674 0.554,3.351 0.987,5.025 0.687,2.573 1.688,4.907 3.022,6.978 1.503,-0.119 2.808,-0.766 3.903,-1.913 1.227,-1.278 1.848,-2.836 1.848,-4.643 0,-1.807 -0.621,-3.363 -1.848,-4.642 -1.228,-1.28 -2.718,-1.926 -4.458,-1.926 -1.292,0 -2.439,0.355 -3.454,1.082"
         id="path2457" />
      <path
         inkscape:connector-curvature="0"
         style="fill:none;stroke:#7b7b22;stroke-width:2.1099999;stroke-linecap:round;stroke-linejoin:round;stroke-miterlimit:10"
         d="m 906.846,191.607 c -0.514,-1.952 -1.186,-3.903 -2.006,-5.869 -0.064,-0.172 -0.143,-0.33 -0.21,-0.502 -0.013,-0.039 -0.04,-0.091 -0.053,-0.131 -0.012,-0.026 -0.012,-0.053 -0.027,-0.066 -0.038,-0.066 -0.066,-0.119 -0.078,-0.185 l -0.026,-0.052 -0.054,-0.119 -0.197,-0.449 c -0.118,-0.264 -0.25,-0.528 -0.37,-0.791 m 3.061,8.336 c 0.105,0.396 0.21,0.792 0.304,1.2 0.778,3.39 1.108,6.753 1.015,10.117 -0.038,1.148 -0.132,2.282 -0.264,3.416 -0.146,1.121 -0.329,2.229 -0.567,3.351 -0.146,0.646 -0.29,1.279 -0.462,1.925 -1.079,4.076 -2.967,7.532 -5.645,10.341 -0.279,0.277 -0.554,0.541 -0.831,0.806 m -21.409,1.015 c -1.623,0.409 -3.205,0.725 -4.748,0.936 -1.175,0.158 -2.334,0.251 -3.457,0.29 -0.17,0.013 -0.342,0.013 -0.512,0.013 h -0.172 c -0.635,0 -1.253,-0.013 -1.874,-0.04 -1.61,-0.091 -3.181,-0.329 -4.695,-0.685 -0.172,-0.092 -0.33,-0.171 -0.488,-0.237 m -19.68,-1.266 c -0.489,-0.462 -0.963,-0.951 -1.411,-1.451 -0.767,-0.857 -1.452,-1.782 -2.07,-2.744 -1.334,-2.071 -2.336,-4.405 -3.022,-6.978 -0.434,-1.674 -0.764,-3.351 -0.987,-5.025 v -0.039 c -0.054,-0.396 -0.094,-0.792 -0.134,-1.188 -0.104,-1.041 -0.156,-2.071 -0.17,-3.1 v -0.263 c -0.026,-2.664 0.236,-5.342 0.777,-8.02 0,-0.04 0,-0.066 0.014,-0.105 0.08,-0.369 0.158,-0.738 0.25,-1.109 0,-0.026 0,-0.052 0.014,-0.078 0.014,-0.067 0.026,-0.119 0.04,-0.185 l 1.121,-3.628 0.619,-1.978 c 0.067,-0.158 0.118,-0.317 0.185,-0.488 0.027,-0.066 0.052,-0.132 0.081,-0.198 0.011,-0.052 0.038,-0.105 0.064,-0.144 0.371,-0.937 0.778,-1.861 1.213,-2.797"
         id="path2459" />
      <path
         inkscape:connector-curvature="0"
         style="fill:#ffffff"
         d="m 907.531,164.99 c 0,-2.256 -0.79,-4.169 -2.374,-5.751 -1.583,-1.583 -3.495,-2.374 -5.751,-2.374 -2.256,0 -4.168,0.791 -5.749,2.374 -28.81,0.752 -43.778,0.567 -44.927,-0.58 -1.583,-1.583 -3.495,-2.374 -5.751,-2.374 -2.256,0 -4.168,0.791 -5.751,2.374 -1.582,1.583 -2.375,3.494 -2.375,5.751 0,2.255 0.793,4.167 2.375,5.751 1.425,1.424 3.114,2.202 5.078,2.348 0.237,1.595 0.923,2.993 2.044,4.207 0.08,0.078 0.158,0.158 0.237,0.237 0.33,0.33 0.671,0.62 1.029,0.884 1.358,0.989 2.941,1.49 4.722,1.49 0.409,0 0.804,-0.025 1.201,-0.079 0.199,-0.026 0.382,-0.052 0.579,-0.092 1.451,-0.304 2.744,-1.002 3.866,-2.098 0.13,0.635 0.33,1.24 0.607,1.82 0.382,0.806 0.922,1.543 1.595,2.217 0.092,0.092 0.198,0.184 0.29,0.278 1.201,1.107 2.6,1.779 4.181,2.004 0.331,0.039 0.673,0.079 1.03,0.091 h 0.25 c 2.256,0 4.168,-0.789 5.751,-2.373 0.541,-0.541 1.003,-1.135 1.358,-1.755 0.384,0.845 0.936,1.623 1.648,2.335 0.013,0.013 0.026,0.027 0.04,0.04 0.013,0.013 0.04,0.039 0.054,0.053 0.013,0.012 0.013,0.012 0.024,0.026 0.026,0.026 0.054,0.053 0.08,0.066 0.014,0.013 0.014,0.027 0.027,0.039 0.013,0.014 0.038,0.04 0.064,0.054 0.014,0.013 0.04,0.038 0.066,0.066 0.025,0.012 0.052,0.038 0.092,0.08 0.014,0.011 0.014,0.011 0.027,0.024 0.013,0.014 0.026,0.014 0.04,0.027 0.605,0.515 1.267,0.936 1.979,1.253 0.737,0.329 1.527,0.528 2.386,0.607 0.042,0 0.094,0 0.134,0.013 l 0.739,0.027 c 2.254,0 4.166,-0.792 5.749,-2.375 1.159,-1.16 1.898,-2.505 2.202,-4.037 0.016,0.014 0.016,0.014 0.027,0.027 l 2.15,1.491 c 0.105,0.052 0.21,0.106 0.328,0.159 0.067,0.025 0.146,0.052 0.226,0.079 l 1.898,0.461 h 0.04 c 0.092,0.013 0.186,0.013 0.277,0.027 0.224,0.013 0.46,0.026 0.699,0.026 h 0.04 0.066 0.079 0.092 0.066 0.052 c 0.094,-0.013 0.196,-0.013 0.29,-0.013 0.646,-0.054 1.253,-0.172 1.847,-0.356 l 0.673,-0.251 c 0.118,-0.052 0.224,-0.105 0.33,-0.158 l 1.386,-0.858 c 0.013,-0.013 0.013,-0.013 0.024,-0.026 0.015,-0.014 0.026,-0.014 0.04,-0.025 0.264,-0.213 0.514,-0.437 0.766,-0.688 0.304,-0.303 0.592,-0.633 0.845,-0.976 0.038,-0.038 0.064,-0.092 0.104,-0.143 0.067,-0.094 0.146,-0.199 0.212,-0.291 0.579,-0.923 0.949,-1.939 1.119,-3.034 1.968,-0.146 3.654,-0.924 5.079,-2.348 1.589,-1.584 2.379,-3.496 2.379,-5.751"
         id="path2461" />
      <path
         inkscape:connector-curvature="0"
         style="fill:none;stroke:#a0a0a1;stroke-width:2.1099999;stroke-linecap:round;stroke-linejoin:round;stroke-miterlimit:10"
         d="m 907.531,164.99 c 0,2.255 -0.79,4.167 -2.374,5.751 -1.425,1.424 -3.111,2.202 -5.079,2.348 -0.17,1.095 -0.54,2.111 -1.119,3.034 -0.066,0.092 -0.145,0.197 -0.212,0.291 -0.04,0.051 -0.066,0.105 -0.104,0.143 -0.253,0.343 -0.541,0.673 -0.845,0.976 -0.252,0.251 -0.502,0.475 -0.766,0.688 -0.014,0.011 -0.025,0.011 -0.04,0.025 -0.012,0.013 -0.012,0.013 -0.024,0.026 l -1.386,0.858 c -0.106,0.053 -0.212,0.106 -0.33,0.158 l -0.673,0.251 c -0.594,0.184 -1.201,0.302 -1.847,0.356 -0.094,0 -0.198,0 -0.29,0.013 h -0.052 -0.066 -0.092 -0.079 -0.066 -0.04 c -0.239,0 -0.476,-0.013 -0.699,-0.026 -0.092,-0.014 -0.186,-0.014 -0.277,-0.027 h -0.04 l -1.898,-0.461 c -0.08,-0.027 -0.158,-0.054 -0.226,-0.079 -0.118,-0.053 -0.223,-0.107 -0.328,-0.159 l -2.15,-1.491 c -0.012,-0.013 -0.012,-0.013 -0.027,-0.027 -0.304,1.532 -1.043,2.877 -2.202,4.037 -1.583,1.583 -3.495,2.375 -5.749,2.375 l -0.739,-0.027 c -0.04,-0.013 -0.092,-0.013 -0.134,-0.013 -0.858,-0.079 -1.648,-0.278 -2.386,-0.607 -0.712,-0.317 -1.373,-0.738 -1.979,-1.253 -0.014,-0.013 -0.027,-0.013 -0.04,-0.027 -0.014,-0.011 -0.014,-0.011 -0.027,-0.024 -0.04,-0.042 -0.066,-0.068 -0.092,-0.08 -0.026,-0.027 -0.053,-0.053 -0.066,-0.066 -0.026,-0.014 -0.052,-0.04 -0.064,-0.054 -0.014,-0.012 -0.014,-0.026 -0.027,-0.039 -0.026,-0.013 -0.054,-0.04 -0.08,-0.066 -0.012,-0.014 -0.012,-0.014 -0.024,-0.026 -0.014,-0.014 -0.041,-0.04 -0.054,-0.053 -0.014,-0.013 -0.027,-0.027 -0.04,-0.04 -0.713,-0.712 -1.265,-1.49 -1.648,-2.335 -0.355,0.62 -0.817,1.214 -1.358,1.755 -1.583,1.584 -3.495,2.373 -5.751,2.373 h -0.25 c -0.357,-0.012 -0.699,-0.052 -1.03,-0.091 -1.581,-0.225 -2.979,-0.897 -4.181,-2.004 -0.092,-0.094 -0.198,-0.186 -0.29,-0.278 -0.673,-0.674 -1.213,-1.411 -1.595,-2.217 -0.277,-0.58 -0.478,-1.185 -0.607,-1.82 -1.122,1.096 -2.415,1.794 -3.866,2.098 -0.197,0.04 -0.38,0.066 -0.579,0.092 -0.397,0.054 -0.792,0.081 -1.201,0.081 -1.78,0 -3.363,-0.503 -4.722,-1.492 -0.358,-0.264 -0.699,-0.554 -1.029,-0.884 -0.079,-0.079 -0.157,-0.159 -0.237,-0.237 -1.121,-1.214 -1.807,-2.612 -2.044,-4.207 -1.964,-0.146 -3.653,-0.924 -5.078,-2.348 -1.582,-1.584 -2.375,-3.496 -2.375,-5.751 0,-2.257 0.793,-4.168 2.375,-5.751 1.583,-1.583 3.495,-2.374 5.751,-2.374 2.256,0 4.168,0.791 5.751,2.374 1.148,1.147 16.117,1.332 44.927,0.58 1.581,-1.583 3.493,-2.374 5.749,-2.374 2.256,0 4.168,0.791 5.751,2.374 1.579,1.582 2.369,3.495 2.369,5.751 z"
         id="path2463" />
      <path
         inkscape:connector-curvature="0"
         style="fill:#39459a"
         d="m 877.656,186.977 c -1.729,-1.727 -3.826,-2.598 -6.265,-2.598 -2.441,0 -4.538,0.871 -6.265,2.598 -1.729,1.729 -2.6,3.826 -2.6,6.266 0,2.441 0.87,4.537 2.6,6.266 1.727,1.727 3.823,2.598 6.265,2.598 2.438,0 4.538,-0.871 6.265,-2.598 1.728,-1.729 2.598,-3.825 2.598,-6.266 0,-2.44 -0.87,-4.537 -2.598,-6.266 m -4.866,6.108 c 0,-0.37 0.132,-0.685 0.395,-0.949 0.264,-0.264 0.581,-0.397 0.949,-0.397 0.369,0 0.687,0.133 0.95,0.397 0.264,0.264 0.395,0.579 0.395,0.949 0,0.369 -0.131,0.685 -0.395,0.949 -0.264,0.264 -0.581,0.396 -0.95,0.396 -0.368,0 -0.686,-0.132 -0.949,-0.396 -0.263,-0.264 -0.395,-0.58 -0.395,-0.949 m -5.805,0 c 0,-0.37 0.132,-0.685 0.395,-0.949 0.264,-0.264 0.581,-0.397 0.952,-0.397 0.052,0 0.104,0 0.156,0.014 0.054,-0.014 0.106,-0.014 0.16,-0.014 0.367,0 0.684,0.133 0.949,0.397 0.264,0.264 0.394,0.579 0.394,0.949 0,0.369 -0.13,0.685 -0.394,0.949 -0.266,0.264 -0.582,0.396 -0.949,0.396 h -0.16 -0.156 c -0.371,0 -0.688,-0.132 -0.952,-0.396 -0.263,-0.264 -0.395,-0.58 -0.395,-0.949"
         id="path2465" />
      <path
         inkscape:connector-curvature="0"
         style="fill:#39459a"
         d="m 873.185,192.136 c -0.263,0.264 -0.395,0.579 -0.395,0.949 0,0.369 0.132,0.685 0.395,0.949 0.264,0.264 0.581,0.396 0.949,0.396 0.369,0 0.687,-0.132 0.95,-0.396 0.264,-0.264 0.395,-0.58 0.395,-0.949 0,-0.37 -0.131,-0.685 -0.395,-0.949 -0.264,-0.264 -0.581,-0.397 -0.95,-0.397 -0.368,0 -0.686,0.133 -0.949,0.397"
         id="path2467" />
      <path
         inkscape:connector-curvature="0"
         style="fill:#39459a"
         d="m 868.648,191.739 c -0.054,0 -0.106,0 -0.16,0.014 -0.304,0.026 -0.567,0.158 -0.791,0.383 -0.264,0.264 -0.396,0.579 -0.396,0.949 0,0.369 0.132,0.685 0.396,0.949 0.224,0.224 0.487,0.357 0.791,0.396 h 0.16 c 0.367,0 0.684,-0.132 0.949,-0.396 0.264,-0.264 0.394,-0.58 0.394,-0.949 0,-0.37 -0.13,-0.685 -0.394,-0.949 -0.265,-0.264 -0.581,-0.397 -0.949,-0.397"
         id="path2469" />
      <path
         inkscape:connector-curvature="0"
         style="fill:#39459a"
         d="m 877.656,219.821 c 1.728,-1.727 2.598,-3.825 2.598,-6.264 0,-2.442 -0.87,-4.538 -2.598,-6.267 -1.729,-1.728 -3.826,-2.598 -6.265,-2.598 -2.441,0 -4.538,0.87 -6.265,2.598 -1.729,1.729 -2.6,3.825 -2.6,6.267 0,2.439 0.87,4.537 2.6,6.264 1.727,1.728 3.823,2.599 6.265,2.599 2.439,0 4.537,-0.871 6.265,-2.599 m -3.522,-7.927 c 0.369,0 0.687,0.132 0.95,0.396 0.264,0.263 0.395,0.58 0.395,0.95 0,0.369 -0.131,0.685 -0.395,0.949 -0.264,0.264 -0.581,0.396 -0.95,0.396 -0.368,0 -0.686,-0.132 -0.949,-0.396 -0.263,-0.264 -0.395,-0.58 -0.395,-0.949 0,-0.37 0.132,-0.687 0.395,-0.95 0.263,-0.264 0.581,-0.396 0.949,-0.396 m -5.646,0.013 c 0.054,-0.013 0.106,-0.013 0.16,-0.013 0.367,0 0.684,0.132 0.949,0.396 0.264,0.263 0.394,0.58 0.394,0.95 0,0.369 -0.13,0.685 -0.394,0.949 -0.266,0.264 -0.582,0.396 -0.949,0.396 h -0.16 c -0.304,-0.04 -0.567,-0.172 -0.791,-0.396 -0.264,-0.264 -0.396,-0.58 -0.396,-0.949 0,-0.37 0.132,-0.687 0.396,-0.95 0.224,-0.225 0.488,-0.356 0.791,-0.383"
         id="path2471" />
      <path
         inkscape:connector-curvature="0"
         style="fill:#39459a"
         d="m 875.084,212.29 c -0.264,-0.264 -0.581,-0.396 -0.95,-0.396 -0.368,0 -0.686,0.132 -0.949,0.396 -0.263,0.263 -0.395,0.58 -0.395,0.95 0,0.369 0.132,0.685 0.395,0.949 0.264,0.264 0.581,0.396 0.949,0.396 0.369,0 0.687,-0.132 0.95,-0.396 0.263,-0.264 0.395,-0.58 0.395,-0.949 0,-0.37 -0.131,-0.687 -0.395,-0.95"
         id="path2473" />
      <path
         inkscape:connector-curvature="0"
         style="fill:#39459a"
         d="m 868.648,211.894 c -0.054,0 -0.106,0 -0.16,0.013 -0.304,0.027 -0.567,0.158 -0.791,0.383 -0.264,0.263 -0.396,0.58 -0.396,0.95 0,0.369 0.132,0.685 0.396,0.949 0.224,0.224 0.487,0.356 0.791,0.396 h 0.16 c 0.367,0 0.684,-0.132 0.949,-0.396 0.264,-0.264 0.394,-0.58 0.394,-0.949 0,-0.37 -0.13,-0.687 -0.394,-0.95 -0.265,-0.264 -0.581,-0.396 -0.949,-0.396"
         id="path2475" />
      <path
         inkscape:connector-curvature="0"
         style="fill:none;stroke:#17206c;stroke-width:2.1099999;stroke-linecap:round;stroke-linejoin:round;stroke-miterlimit:10"
         d="m 872.79,193.085 c 0,0.369 0.132,0.685 0.395,0.949 0.264,0.264 0.581,0.396 0.949,0.396 0.369,0 0.687,-0.132 0.95,-0.396 0.264,-0.264 0.395,-0.58 0.395,-0.949 0,-0.37 -0.131,-0.685 -0.395,-0.949 -0.264,-0.264 -0.581,-0.397 -0.95,-0.397 -0.368,0 -0.686,0.133 -0.949,0.397 -0.263,0.264 -0.395,0.579 -0.395,0.949 z m -1.398,-8.706 c -2.441,0 -4.538,0.871 -6.265,2.598 -1.729,1.729 -2.6,3.826 -2.6,6.266 0,2.441 0.87,4.537 2.6,6.266 1.727,1.727 3.823,2.598 6.265,2.598 2.438,0 4.538,-0.871 6.265,-2.598 1.728,-1.729 2.598,-3.825 2.598,-6.266 0,-2.44 -0.87,-4.537 -2.598,-6.266 -1.727,-1.727 -3.827,-2.598 -6.265,-2.598 z m 2.742,27.515 c -0.368,0 -0.686,0.132 -0.949,0.396 -0.263,0.263 -0.395,0.58 -0.395,0.95 0,0.369 0.132,0.685 0.395,0.949 0.264,0.264 0.581,0.396 0.949,0.396 0.369,0 0.687,-0.132 0.95,-0.396 0.263,-0.264 0.395,-0.58 0.395,-0.949 0,-0.37 -0.131,-0.687 -0.395,-0.95 -0.264,-0.264 -0.581,-0.396 -0.95,-0.396 z m 6.12,1.663 c 0,-2.442 -0.87,-4.538 -2.598,-6.267 -1.727,-1.728 -3.826,-2.598 -6.265,-2.598 -2.441,0 -4.538,0.87 -6.265,2.598 -1.729,1.729 -2.6,3.825 -2.6,6.267 0,2.439 0.87,4.537 2.6,6.264 1.727,1.728 3.823,2.599 6.265,2.599 2.438,0 4.538,-0.871 6.265,-2.599 1.728,-1.727 2.598,-3.825 2.598,-6.264 z m -11.766,-21.804 c -0.304,0.026 -0.567,0.158 -0.791,0.383 -0.264,0.264 -0.396,0.579 -0.396,0.949 0,0.369 0.132,0.685 0.396,0.949 0.224,0.224 0.487,0.357 0.791,0.396 h 0.16 c 0.367,0 0.684,-0.132 0.949,-0.396 0.264,-0.264 0.394,-0.58 0.394,-0.949 0,-0.37 -0.13,-0.685 -0.394,-0.949 -0.266,-0.264 -0.582,-0.397 -0.949,-0.397 -0.053,0 -0.106,0 -0.16,0.014 z m 0,20.154 c -0.304,0.027 -0.567,0.158 -0.791,0.383 -0.264,0.263 -0.396,0.58 -0.396,0.95 0,0.369 0.132,0.685 0.396,0.949 0.224,0.224 0.487,0.356 0.791,0.396 h 0.16 c 0.367,0 0.684,-0.132 0.949,-0.396 0.264,-0.264 0.394,-0.58 0.394,-0.949 0,-0.37 -0.13,-0.687 -0.394,-0.95 -0.266,-0.264 -0.582,-0.396 -0.949,-0.396 -0.053,0 -0.106,0 -0.16,0.013 z"
         id="path2477" />
      <polygon
         style="fill:#ede700"
         points="887.645,73.74 887.735,73.912 887.563,73.556 "
         id="polygon2479" />
      <path
         inkscape:connector-curvature="0"
         style="fill:#ede700"
         d="m 887.735,73.912 -0.091,-0.172 c -0.938,0.607 -2.006,0.91 -3.207,0.91 -1.728,0 -3.23,-0.646 -4.499,-1.925 -1.251,-1.28 -1.909,-2.836 -1.963,-4.643 -0.04,-1.808 0.527,-3.364 1.727,-4.644 0.726,-0.778 1.545,-1.305 2.454,-1.608 l -9.392,-20.379 c -0.436,0.131 -0.911,0.198 -1.411,0.198 -1.36,0 -2.531,-0.489 -3.522,-1.451 -0.064,-0.053 -0.118,-0.105 -0.172,-0.171 -0.592,0.567 -1.279,0.935 -2.044,1.12 l -8.836,20.762 c 0.831,0.317 1.595,0.831 2.281,1.529 1.266,1.28 1.925,2.836 1.965,4.644 0.052,1.807 -0.527,3.363 -1.726,4.643 -1.202,1.279 -2.666,1.925 -4.407,1.925 -0.807,0 -1.544,-0.131 -2.242,-0.409 -0.186,0.343 -0.423,0.66 -0.699,0.95 -0.355,0.369 -0.753,0.66 -1.175,0.857 l -7.518,17.662 h 53.605 L 887.735,73.912 z M 869.281,59.877 c -1.726,0 -3.231,-0.646 -4.497,-1.925 -0.33,-0.33 -0.605,-0.686 -0.857,-1.042 -0.697,-1.055 -1.067,-2.256 -1.107,-3.601 -0.038,-1.808 0.529,-3.363 1.729,-4.644 1.201,-1.278 2.662,-1.925 4.393,-1.925 1.74,0 3.243,0.647 4.51,1.925 0.567,0.568 1.003,1.175 1.32,1.848 0.408,0.857 0.618,1.78 0.646,2.796 0.04,1.807 -0.527,3.363 -1.729,4.643 -1.201,1.279 -2.667,1.925 -4.408,1.925 m -3.969,18.335 c 1.201,-1.279 2.665,-1.926 4.394,-1.926 1.742,0 3.245,0.647 4.513,1.926 0.565,0.567 1,1.174 1.316,1.846 0.409,0.857 0.621,1.781 0.646,2.797 0.054,1.807 -0.514,3.363 -1.712,4.642 -1.202,1.28 -2.679,1.926 -4.421,1.926 -1.727,0 -3.232,-0.646 -4.483,-1.926 -0.33,-0.329 -0.607,-0.686 -0.857,-1.042 -0.712,-1.055 -1.083,-2.254 -1.121,-3.6 -0.042,-1.808 0.525,-3.364 1.725,-4.643"
         id="path2481" />
      <path
         inkscape:connector-curvature="0"
         style="fill:#e50012"
         d="m 864.784,57.952 c 1.266,1.279 2.771,1.925 4.497,1.925 1.741,0 3.207,-0.646 4.406,-1.925 1.201,-1.28 1.769,-2.836 1.729,-4.643 -0.027,-1.016 -0.237,-1.939 -0.646,-2.796 -0.317,-0.673 -0.753,-1.28 -1.32,-1.848 -1.267,-1.278 -2.77,-1.925 -4.51,-1.925 -1.73,0 -3.191,0.647 -4.393,1.925 -1.199,1.281 -1.767,2.836 -1.729,4.644 0.04,1.345 0.41,2.546 1.107,3.601 0.254,0.356 0.529,0.712 0.859,1.042"
         id="path2483" />
      <path
         inkscape:connector-curvature="0"
         style="fill:#e50012"
         d="m 869.705,76.286 c -1.729,0 -3.192,0.647 -4.394,1.926 -1.199,1.279 -1.767,2.835 -1.727,4.643 0.038,1.346 0.409,2.545 1.121,3.6 0.25,0.356 0.527,0.713 0.857,1.042 1.251,1.28 2.757,1.926 4.483,1.926 1.742,0 3.219,-0.646 4.421,-1.926 1.198,-1.279 1.766,-2.835 1.714,-4.642 -0.026,-1.016 -0.238,-1.94 -0.647,-2.797 -0.316,-0.672 -0.751,-1.279 -1.316,-1.846 -1.267,-1.279 -2.77,-1.926 -4.512,-1.926"
         id="path2485" />
      <path
         inkscape:connector-curvature="0"
         style="fill:#e50012"
         d="m 887.645,73.74 -0.081,-0.184 -5.407,-11.726 c -0.909,0.303 -1.729,0.83 -2.454,1.608 -1.199,1.28 -1.765,2.836 -1.727,4.644 0.054,1.807 0.712,3.363 1.965,4.643 1.267,1.279 2.77,1.925 4.497,1.925 1.201,0 2.268,-0.303 3.207,-0.91"
         id="path2487" />
      <path
         inkscape:connector-curvature="0"
         style="fill:#e50012"
         d="m 856.779,61.909 -3.919,9.219 c 0.12,0.383 0.198,0.779 0.212,1.214 0.014,0.699 -0.118,1.332 -0.422,1.899 0.698,0.278 1.436,0.409 2.242,0.409 1.741,0 3.205,-0.646 4.407,-1.925 1.198,-1.28 1.777,-2.836 1.726,-4.643 -0.04,-1.808 -0.699,-3.364 -1.965,-4.644 -0.686,-0.698 -1.45,-1.212 -2.281,-1.529"
         id="path2489" />
      <path
         inkscape:connector-curvature="0"
         style="fill:#e60b11"
         d="m 853.072,72.342 c -0.014,-0.435 -0.092,-0.831 -0.212,-1.213 l -2.084,4.919 c 0.422,-0.197 0.819,-0.488 1.175,-0.857 0.276,-0.29 0.514,-0.607 0.699,-0.95 0.304,-0.567 0.436,-1.2 0.422,-1.899"
         id="path2491" />
      <path
         inkscape:connector-curvature="0"
         style="fill:none;stroke:#7b7b22;stroke-width:2.1099999;stroke-linecap:round;stroke-linejoin:round;stroke-miterlimit:10"
         d="m 887.735,73.912 -0.091,-0.172 -0.081,-0.184 0.172,0.356 m 0,0 9.129,19.798 h -53.605 l 7.518,-17.662 2.084,-4.92 3.919,-9.219 8.836,-20.762 m 7.149,0.304 9.392,20.379 5.407,11.726"
         id="path2493" />
      <path
         inkscape:connector-curvature="0"
         style="fill:#e60b11"
         d="m 860.604,19.16 c -1.386,0 -2.546,0.474 -3.495,1.437 -0.963,0.963 -1.437,2.124 -1.437,3.496 0,1.279 0.421,2.374 1.279,3.297 -0.094,0.066 -0.172,0.145 -0.252,0.224 -0.963,0.963 -1.451,2.124 -1.451,3.483 0,1.359 0.488,2.519 1.451,3.481 0.897,0.898 1.966,1.386 3.205,1.451 v 0.317 c 0,1.385 0.476,2.546 1.438,3.508 0.963,0.964 2.125,1.438 3.495,1.438 0.436,0 0.845,-0.052 1.227,-0.145 0.766,-0.185 1.451,-0.553 2.069,-1.12 0.053,0.066 0.106,0.118 0.173,0.171 0.963,0.962 2.124,1.451 3.482,1.451 0.5,0 0.976,-0.067 1.411,-0.198 0.764,-0.224 1.452,-0.633 2.07,-1.253 0.885,-0.884 1.372,-1.939 1.452,-3.153 h 0.304 c 1.369,0 2.532,-0.475 3.495,-1.424 0.963,-0.963 1.437,-2.124 1.437,-3.509 0,-1.253 -0.408,-2.347 -1.227,-3.258 0.065,-0.065 0.146,-0.145 0.226,-0.224 0.976,-0.963 1.463,-2.124 1.463,-3.483 0,-1.358 -0.487,-2.518 -1.463,-3.481 -0.911,-0.911 -1.979,-1.398 -3.233,-1.439 v -0.369 c 0,-1.371 -0.474,-2.532 -1.437,-3.495 -0.963,-0.963 -2.124,-1.438 -3.496,-1.438 -1.266,0 -2.347,0.408 -3.258,1.239 -0.067,-0.079 -0.146,-0.158 -0.21,-0.224 -0.965,-0.963 -2.124,-1.451 -3.484,-1.451 -1.358,0 -2.518,0.488 -3.482,1.451 -0.909,0.91 -1.397,1.979 -1.436,3.219 h -0.316 z"
         id="path2495" />
      <path
         inkscape:connector-curvature="0"
         style="fill:none;stroke:#7f040b;stroke-width:2.1099999;stroke-linecap:round;stroke-linejoin:round;stroke-miterlimit:10"
         d="m 857.108,20.597 c -0.963,0.963 -1.437,2.124 -1.437,3.496 0,1.279 0.421,2.374 1.279,3.297 -0.094,0.066 -0.172,0.145 -0.252,0.224 -0.963,0.963 -1.451,2.124 -1.451,3.483 0,1.359 0.488,2.519 1.451,3.481 0.897,0.898 1.966,1.386 3.205,1.451 v 0.317 c 0,1.385 0.476,2.546 1.438,3.508 0.963,0.964 2.125,1.438 3.495,1.438 0.436,0 0.845,-0.052 1.227,-0.145 0.766,-0.185 1.451,-0.553 2.069,-1.12 0.053,0.066 0.106,0.118 0.173,0.171 0.963,0.962 2.124,1.451 3.482,1.451 0.5,0 0.976,-0.067 1.411,-0.198 0.764,-0.224 1.452,-0.633 2.07,-1.253 0.885,-0.884 1.372,-1.939 1.452,-3.153 h 0.304 c 1.369,0 2.532,-0.475 3.495,-1.424 0.963,-0.963 1.437,-2.124 1.437,-3.509 0,-1.253 -0.408,-2.347 -1.227,-3.258 0.065,-0.065 0.146,-0.145 0.226,-0.224 0.976,-0.963 1.463,-2.124 1.463,-3.483 0,-1.358 -0.487,-2.518 -1.463,-3.481 -0.911,-0.911 -1.979,-1.398 -3.233,-1.439 v -0.369 c 0,-1.371 -0.474,-2.532 -1.437,-3.495 -0.963,-0.963 -2.124,-1.438 -3.496,-1.438 -1.266,0 -2.347,0.408 -3.258,1.239 -0.067,-0.079 -0.146,-0.158 -0.21,-0.224 -0.965,-0.963 -2.124,-1.451 -3.484,-1.451 -1.358,0 -2.518,0.488 -3.482,1.451 -0.909,0.91 -1.397,1.979 -1.436,3.219 h -0.317 c -1.384,0.001 -2.544,0.475 -3.494,1.438 z"
         id="path2497" />
      <path
         inkscape:connector-curvature="0"
         style="fill:#f49c00"
         d="m 926.076,119.271 c -1.992,-2.941 -4.538,-4.418 -7.611,-4.418 -3.085,0 -5.814,1.477 -8.177,4.418 -2.361,2.941 -3.679,6.504 -3.956,10.659 -0.264,4.154 0.605,7.715 2.598,10.657 1.992,2.941 4.523,4.418 7.609,4.418 3.073,0 5.804,-1.477 8.179,-4.418 2.361,-2.942 3.681,-6.503 3.944,-10.657 0.277,-4.155 -0.594,-7.718 -2.586,-10.659"
         id="path2499" />
      <path
         inkscape:connector-curvature="0"
         style="fill:none;stroke:#e83927;stroke-width:2.1099999;stroke-linecap:round;stroke-linejoin:round;stroke-miterlimit:10"
         d="m 926.076,119.271 c 1.992,2.941 2.863,6.504 2.586,10.659 -0.264,4.154 -1.583,7.715 -3.944,10.657 -2.375,2.941 -5.105,4.418 -8.179,4.418 -3.086,0 -5.617,-1.477 -7.609,-4.418 -1.992,-2.942 -2.861,-6.503 -2.598,-10.657 0.277,-4.155 1.595,-7.718 3.956,-10.659 2.362,-2.941 5.092,-4.418 8.177,-4.418 3.073,0 5.619,1.477 7.611,4.418 z"
         id="path2501" />
      <path
         inkscape:connector-curvature="0"
         style="fill:#f49c00"
         d="m 822.204,114.853 c -3.073,0 -5.62,1.477 -7.611,4.418 -1.991,2.941 -2.862,6.504 -2.584,10.659 0.263,4.154 1.584,7.715 3.943,10.657 2.374,2.941 5.104,4.418 8.177,4.418 3.089,0 5.619,-1.477 7.611,-4.418 1.992,-2.942 2.861,-6.503 2.598,-10.657 -0.274,-4.155 -1.595,-7.718 -3.954,-10.659 -2.363,-2.941 -5.094,-4.418 -8.18,-4.418"
         id="path2503" />
      <path
         inkscape:connector-curvature="0"
         style="fill:none;stroke:#e83927;stroke-width:2.1099999;stroke-linecap:round;stroke-linejoin:round;stroke-miterlimit:10"
         d="m 814.593,119.271 c -1.991,2.941 -2.862,6.504 -2.584,10.659 0.263,4.154 1.584,7.715 3.943,10.657 2.374,2.941 5.104,4.418 8.177,4.418 3.089,0 5.619,-1.477 7.611,-4.418 1.992,-2.942 2.861,-6.503 2.598,-10.657 -0.274,-4.155 -1.595,-7.718 -3.954,-10.659 -2.362,-2.941 -5.094,-4.418 -8.18,-4.418 -3.073,0 -5.62,1.477 -7.611,4.418 z"
         id="path2505" />
      <path
         inkscape:connector-curvature="0"
         style="fill:#f49c00"
         d="m 870.257,93.656 c -13.626,0 -25.261,3.681 -34.902,11.028 -9.642,7.359 -14.455,16.25 -14.455,26.67 0,10.407 4.813,19.297 14.455,26.657 9.642,7.36 21.276,11.04 34.902,11.04 13.624,0 25.259,-3.68 34.886,-11.04 9.644,-7.36 14.47,-16.25 14.47,-26.657 0,-10.42 -4.826,-19.311 -14.47,-26.67 -9.627,-7.347 -21.262,-11.028 -34.886,-11.028"
         id="path2507" />
      <path
         inkscape:connector-curvature="0"
         style="fill:none;stroke:#e83927;stroke-width:2.1099999;stroke-linecap:round;stroke-linejoin:round;stroke-miterlimit:10"
         d="m 835.354,104.684 c -9.642,7.359 -14.455,16.25 -14.455,26.67 0,10.407 4.813,19.297 14.455,26.657 9.642,7.36 21.276,11.04 34.902,11.04 13.624,0 25.259,-3.68 34.886,-11.04 9.644,-7.36 14.47,-16.25 14.47,-26.657 0,-10.42 -4.826,-19.311 -14.47,-26.67 -9.627,-7.347 -21.262,-11.028 -34.886,-11.028 -13.625,0 -25.26,3.681 -34.902,11.028 z"
         id="path2509" />
      <path
         inkscape:connector-curvature="0"
         d="m 902.175,85.703 c -4.113,1.002 -7.398,1.121 -9.84,0.369 0.938,-0.053 2.284,-0.541 4.038,-1.45 1.86,-0.964 3.203,-1.518 4.009,-1.663 -1.952,-0.039 -3.521,-0.039 -4.694,0 -2.098,0.066 -4.525,0.541 -7.308,1.398 2.28,-1.622 5.394,-2.822 9.312,-3.614 -5.488,-0.91 -9.431,-1.042 -11.818,-0.395 -2.217,0.632 -3.997,1.543 -5.329,2.716 0.199,-1.384 0.751,-2.703 1.688,-3.956 0.619,-0.845 1.912,-1.965 3.878,-3.35 1.847,-1.306 2.928,-1.953 3.245,-1.953 -1.597,-0.277 -3.469,-0.198 -5.593,0.237 -4.274,0.858 -7.439,3.06 -9.499,6.596 0.054,-2.836 -1.065,-5.105 -3.375,-6.833 -0.726,-0.54 -1.489,-0.976 -2.296,-1.293 -0.79,-0.304 -1.094,-0.382 -0.922,-0.237 1.373,2.783 0.618,5.869 -2.243,9.26 -1.146,-1.227 -1.503,-3.509 -1.08,-6.833 0.382,-2.968 0.83,-4.63 1.344,-4.96 -1.319,0.528 -2.65,1.385 -4.009,2.586 -2.731,2.387 -4.076,5.184 -4.062,8.389 -1.465,-1.992 -3.654,-3.311 -6.57,-3.984 -0.09,-0.013 0.752,0.963 2.534,2.928 1.938,2.309 3.098,4.155 3.482,5.566 -1.253,-1.701 -2.743,-3.165 -4.485,-4.378 -1.702,-1.214 -3.572,-1.873 -5.617,-1.979 -1.65,-0.092 -3.656,0.198 -5.99,0.845 -0.158,0.052 0.963,0.171 3.377,0.368 1.78,0.422 3.071,1.359 3.878,2.797 0.304,0.514 0.79,1.926 1.477,4.247 -0.579,-0.673 -1.12,-1.2 -1.636,-1.583 -2.15,-1.728 -4.734,-2.48 -7.781,-2.269 -0.054,0 0.909,0.647 2.877,1.952 2.057,1.491 3.229,2.652 3.533,3.457 -1.107,-0.356 -2.178,-0.567 -3.219,-0.633 -0.62,-0.053 -1.623,-0.067 -3.006,-0.027 -2.969,0.093 -5.424,0.409 -7.335,0.95 -2.678,0.752 -4.867,2.045 -6.568,3.878 -0.105,0.105 0.487,-0.04 1.767,-0.422 0.699,-0.212 1.767,-0.435 3.193,-0.686 2.598,-0.383 4.088,-0.58 4.458,-0.58 1.688,-0.041 3.125,0.158 4.324,0.58 1.017,0.356 1.914,0.712 2.667,1.081 0.684,0.33 0.947,0.515 0.791,0.527 -1.78,-0.737 -4.974,-0.276 -9.575,1.373 -4.222,1.794 -6.292,2.678 -6.2,2.664 1.489,-0.33 3.203,-0.488 5.117,-0.474 1.319,0 3.048,0.091 5.17,0.29 -1.793,1.701 -4.55,2.611 -8.257,2.717 -3.323,-0.251 -4.972,-0.357 -4.933,-0.317 2.163,2.15 3.997,3.654 5.514,4.511 2.097,1.174 4.443,1.754 7.07,1.741 3.166,-0.039 6.529,-1.068 10.103,-3.086 l -1.001,0.897 c -2.626,2.334 -5.501,4.207 -8.654,5.592 -0.118,0.066 -0.156,0.158 -0.105,0.264 0.054,0.12 0.146,0.171 0.264,0.132 2.216,-0.277 4.485,-1.095 6.808,-2.427 1.199,-0.699 3.139,-2.07 5.83,-4.116 1.567,-1.174 2.834,-2.07 3.823,-2.664 1.479,-0.884 2.915,-1.517 4.328,-1.899 1.648,-0.435 3.482,-0.356 5.486,0.263 1.637,0.515 3.258,1.333 4.88,2.454 0.29,0.198 0.739,0.146 1.333,-0.158 3.23,-1.279 5.223,-2.018 5.947,-2.216 2.337,-0.62 4.473,-0.607 6.386,0.026 1.267,0.422 2.689,1.227 4.273,2.427 0.884,0.673 2.164,1.662 3.851,2.981 2.481,1.754 5.277,2.678 8.391,2.796 0.407,0.013 0.829,0.013 1.266,0 1.808,-0.013 3.496,-0.276 5.091,-0.791 0.368,-0.106 0.791,-0.237 1.28,-0.396 1.094,-0.382 2.452,-0.923 4.074,-1.635 2.798,-1.254 4.446,-2.229 4.936,-2.928 -1.162,0.013 -2.481,-0.04 -3.96,-0.186 -2.939,-0.25 -5.117,-0.725 -6.542,-1.45 -0.909,-0.475 -1.963,-0.831 -3.138,-1.082 0.936,-0.158 1.82,-0.342 2.664,-0.553 1.201,-0.277 2.651,-1.096 4.354,-2.428 0.855,-0.673 1.727,-1.398 2.584,-2.202 0.304,-0.278 0.634,-0.713 1.003,-1.333 0.013,-0.039 -1.648,0.066 -4.985,0.291 -3.786,0.276 -6.346,0.263 -7.679,-0.053 l -1.317,-0.291 0.871,-0.184 c 1.543,-0.369 3.216,-1.675 5.012,-3.93 1.544,-1.913 2.337,-3.205 2.374,-3.852 -1.534,0.567 -3.315,1.095 -5.334,1.583"
         id="path2511" />
      <path
         inkscape:connector-curvature="0"
         style="fill:#e83434"
         d="m 904.19,134.3 c 0,1.464 0.515,2.704 1.556,3.746 1.042,1.042 2.282,1.556 3.747,1.556 1.463,0 2.703,-0.514 3.745,-1.556 1.041,-1.042 1.558,-2.282 1.558,-3.746 0,-1.464 -0.517,-2.704 -1.558,-3.746 -1.042,-1.041 -2.282,-1.556 -3.745,-1.556 -1.465,0 -2.705,0.515 -3.747,1.556 -1.041,1.042 -1.556,2.282 -1.556,3.746"
         id="path2513" />
      <path
         inkscape:connector-curvature="0"
         style="fill:#e83434"
         d="m 827.266,130.554 c -1.043,1.042 -1.557,2.282 -1.557,3.746 0,1.464 0.514,2.704 1.557,3.746 1.041,1.042 2.282,1.556 3.745,1.556 1.463,0 2.705,-0.514 3.746,-1.556 1.043,-1.042 1.557,-2.282 1.557,-3.746 0,-1.464 -0.514,-2.704 -1.557,-3.746 -1.041,-1.041 -2.283,-1.556 -3.746,-1.556 -1.463,0 -2.704,0.515 -3.745,1.556"
         id="path2515" />
      <path
         inkscape:connector-curvature="0"
         style="fill:#f5f5f5"
         d="m 902.411,137.703 c -1.756,-0.014 -3.245,0.435 -4.474,1.332 -7.345,5.712 -16.619,8.785 -27.818,9.22 -0.038,0 -0.092,0.014 -0.132,0.027 -0.052,-0.013 -0.104,-0.027 -0.145,-0.027 -11.199,-0.382 -20.471,-3.403 -27.818,-9.088 -1.227,-0.898 -2.716,-1.346 -4.472,-1.332 -1.753,0.013 -3.125,0.738 -4.087,2.149 -0.979,1.413 -1.492,2.929 -1.558,4.525 -0.065,1.583 0.146,2.916 0.606,3.997 0.462,1.095 1.069,2.203 1.847,3.35 0.766,1.135 1.9,2.388 3.415,3.746 8.127,7.703 18.705,11.765 31.751,12.202 0.078,-0.014 0.156,-0.027 0.224,-0.027 13.492,-0.475 24.309,-4.577 32.447,-12.307 1.504,-1.385 2.639,-2.638 3.402,-3.785 0.779,-1.148 1.385,-2.256 1.847,-3.337 0.463,-1.096 0.675,-2.428 0.607,-4.011 -0.054,-1.595 -0.567,-3.099 -1.557,-4.509 -0.961,-1.413 -2.332,-2.125 -4.085,-2.125"
         id="path2517" />
      <path
         inkscape:connector-curvature="0"
         style="fill:#e83434"
         d="m 900.615,145.947 1.505,-3.298 c -14.575,8.772 -29.402,11.621 -44.452,8.574 -4.695,-0.95 -9.14,-2.44 -13.323,-4.485 -2.097,-0.989 -3.705,-1.899 -4.854,-2.73 3.102,8.639 9.273,14.602 18.547,17.873 2.901,1.015 5.935,1.701 9.1,2.057 l 3.879,0.251 c 9.96,-0.225 18.123,-3.878 24.507,-10.961 1.992,-2.216 3.68,-4.644 5.091,-7.281"
         id="path2519" />
      <path
         inkscape:connector-curvature="0"
         style="fill:#f092b1"
         d="m 870.227,158.688 c 2.888,-0.013 4.972,-0.922 6.265,-2.717 0.673,-0.936 1.268,-2.36 1.754,-4.273 -5.277,0.831 -10.578,0.937 -15.907,0.29 0.474,1.768 1.029,3.1 1.675,3.983 1.317,1.82 3.387,2.731 6.213,2.717"
         id="path2521" />
      <path
         inkscape:connector-curvature="0"
         style="fill:#ffffff"
         d="m 878.913,109.88 c -3.391,0.83 -5.711,2.624 -6.966,5.407 -1.225,2.783 -1.027,5.711 0.607,8.785 1.648,3.072 4.262,5.421 7.835,7.017 3.549,1.596 7.031,1.978 10.446,1.134 3.377,-0.831 5.686,-2.624 6.939,-5.408 1.253,-2.783 1.043,-5.712 -0.607,-8.785 -1.648,-3.099 -4.26,-5.433 -7.835,-7.017 -3.547,-1.596 -7.028,-1.978 -10.419,-1.133"
         id="path2523" />
      <path
         inkscape:connector-curvature="0"
         style="fill:#ffffff"
         d="m 867.386,115.287 c -1.255,-2.783 -3.575,-4.577 -6.966,-5.407 -3.391,-0.845 -6.872,-0.463 -10.446,1.133 -3.549,1.584 -6.159,3.918 -7.808,7.017 -1.636,3.073 -1.834,6.002 -0.607,8.785 1.253,2.784 3.573,4.577 6.966,5.408 3.389,0.844 6.87,0.462 10.419,-1.134 3.574,-1.596 6.187,-3.945 7.835,-7.017 1.635,-3.1 1.831,-6.028 0.607,-8.785"
         id="path2525" />
      <path
         inkscape:connector-curvature="0"
         d="m 886.48,117.861 c -0.974,-1.157 -2.196,-1.794 -3.693,-1.914 -1.498,-0.12 -2.81,0.294 -3.966,1.241 -1.157,0.974 -1.795,2.197 -1.914,3.694 -0.12,1.497 0.295,2.81 1.242,3.966 0.972,1.17 2.193,1.822 3.69,1.942 1.499,0.119 2.812,-0.294 3.969,-1.269 1.169,-0.973 1.822,-2.195 1.94,-3.692 0.121,-1.498 -0.293,-2.811 -1.268,-3.968"
         id="path2527" />
      <path
         inkscape:connector-curvature="0"
         d="m 862.454,117.861 c -0.974,-1.157 -2.195,-1.794 -3.695,-1.914 -1.496,-0.12 -2.809,0.294 -3.964,1.241 -1.157,0.974 -1.795,2.197 -1.916,3.694 -0.118,1.497 0.296,2.81 1.242,3.966 0.974,1.17 2.196,1.822 3.693,1.942 1.498,0.119 2.81,-0.294 3.968,-1.269 1.169,-0.973 1.82,-2.195 1.94,-3.692 0.121,-1.498 -0.293,-2.811 -1.268,-3.968"
         id="path2529" />
      <path
         inkscape:connector-curvature="0"
         style="fill:#e83827"
         d="m 878.501,126.693 c -2.363,-2.374 -5.211,-3.561 -8.55,-3.561 -3.337,0 -6.187,1.187 -8.548,3.561 -2.374,2.361 -3.561,5.21 -3.561,8.548 0,3.336 1.187,6.186 3.561,8.547 2.361,2.374 5.211,3.561 8.548,3.561 3.339,0 6.187,-1.187 8.55,-3.561 2.372,-2.361 3.56,-5.211 3.56,-8.547 0,-3.338 -1.188,-6.187 -3.56,-8.548"
         id="path2531" />
      <path
         inkscape:connector-curvature="0"
         style="fill:#c8368e"
         d="m 905.531,179.228 c -0.83,0.568 -1.583,1.148 -2.271,1.754 -0.539,2.413 -1.437,4.498 -2.663,6.252 0.595,0.317 1.148,0.726 1.661,1.241 1.294,1.292 1.967,2.835 2.031,4.642 v 0.264 c 0,0.383 -0.024,0.739 -0.078,1.096 2.07,0.579 4.326,0.711 6.78,0.408 0.067,-0.013 0.119,-0.013 0.186,-0.027 2.716,-0.381 4.76,-1.424 6.12,-3.152 1.357,-1.728 1.449,-4.273 0.25,-7.65 -1.175,-3.389 -2.89,-5.434 -5.119,-6.147 -2.228,-0.699 -4.535,-0.264 -6.897,1.319"
         id="path2533" />
      <path
         inkscape:connector-curvature="0"
         style="fill:#c8368e"
         d="m 903.261,180.982 c 0.596,-2.677 0.319,-4.96 -0.829,-6.846 -1.147,-1.886 -3.509,-2.848 -7.109,-2.901 -3.589,-0.066 -6.108,0.83 -7.545,2.678 -1.435,1.859 -1.82,4.168 -1.147,6.938 0.422,1.753 1.001,3.336 1.74,4.722 1.479,0.949 2.718,2.044 3.721,3.284 0.118,-0.132 0.236,-0.264 0.355,-0.382 1.359,-1.359 2.995,-2.032 4.906,-2.032 0.647,0 1.267,0.079 1.86,0.238 0.487,0.132 0.951,0.316 1.385,0.553 1.226,-1.754 2.124,-3.839 2.663,-6.252"
         id="path2535" />
      <path
         inkscape:connector-curvature="0"
         style="fill:#c8368e"
         d="m 913.59,196.534 c -0.872,-0.634 -1.739,-1.188 -2.598,-1.649 -2.454,0.303 -4.71,0.171 -6.78,-0.408 -0.21,1.45 -0.857,2.715 -1.953,3.811 -0.658,0.659 -1.384,1.161 -2.161,1.491 0.396,0.739 0.659,1.596 0.804,2.572 0.224,1.516 0.197,3.126 -0.053,4.827 1.253,2.387 2.914,3.93 4.985,4.631 2.099,0.698 4.524,-0.093 7.296,-2.349 2.783,-2.255 4.114,-4.564 4.022,-6.899 -0.093,-2.335 -1.279,-4.352 -3.562,-6.027"
         id="path2537" />
      <path
         inkscape:connector-curvature="0"
         style="fill:#c8368e"
         d="m 892.091,188.857 c -1.003,-1.24 -2.242,-2.335 -3.721,-3.284 -0.527,-0.357 -1.081,-0.686 -1.674,-0.99 -2.414,-1.252 -4.683,-1.583 -6.794,-0.976 -2.097,0.62 -3.641,2.638 -4.63,6.081 -0.989,3.429 -0.777,6.08 0.635,7.941 1.411,1.859 3.52,2.835 6.356,2.915 1.887,0.039 3.627,-0.131 5.21,-0.515 1.305,-1.161 2.703,-2.058 4.17,-2.691 -0.819,-1.148 -1.229,-2.466 -1.229,-3.957 0,-1.464 0.396,-2.757 1.176,-3.878 0.143,-0.225 0.317,-0.435 0.501,-0.646"
         id="path2539" />
      <path
         inkscape:connector-curvature="0"
         style="fill:#c8368e"
         d="m 892.446,198.288 c -0.144,-0.145 -0.277,-0.29 -0.409,-0.436 -0.146,-0.171 -0.275,-0.342 -0.394,-0.514 -1.467,0.633 -2.865,1.53 -4.17,2.691 -0.54,0.475 -1.067,1.003 -1.583,1.57 -1.834,2.018 -2.716,4.128 -2.651,6.318 0.067,2.203 1.65,4.221 4.724,6.028 3.087,1.82 5.709,2.281 7.86,1.385 2.164,-0.897 3.641,-2.704 4.418,-5.435 0.265,-0.936 0.462,-1.834 0.607,-2.717 0.25,-1.701 0.276,-3.311 0.053,-4.827 -0.145,-0.976 -0.408,-1.833 -0.804,-2.572 -0.411,0.171 -0.845,0.315 -1.293,0.408 -0.462,0.094 -0.949,0.132 -1.452,0.132 -1.911,0 -3.546,-0.672 -4.906,-2.031"
         id="path2541" />
      <path
         inkscape:connector-curvature="0"
         style="fill:none;stroke:#7b1663;stroke-width:2.1099999;stroke-linecap:round;stroke-linejoin:round;stroke-miterlimit:10"
         d="m 891.644,197.338 c -1.467,0.633 -2.865,1.53 -4.17,2.691 m 15.787,-19.047 c 0.596,-2.677 0.319,-4.96 -0.829,-6.846 -1.147,-1.886 -3.509,-2.848 -7.109,-2.901 -3.589,-0.066 -6.108,0.83 -7.545,2.678 -1.435,1.859 -1.82,4.168 -1.147,6.938 0.422,1.753 1.001,3.336 1.74,4.722 m 12.478,21.605 c 1.253,2.387 2.914,3.93 4.985,4.631 2.099,0.698 4.524,-0.093 7.296,-2.349 2.783,-2.255 4.114,-4.564 4.022,-6.899 -0.094,-2.335 -1.281,-4.352 -3.562,-6.027 -0.872,-0.634 -1.739,-1.188 -2.598,-1.649 m -10.394,-7.651 c 1.227,-1.754 2.124,-3.839 2.663,-6.252 m 0.951,13.495 c 2.07,0.579 4.326,0.711 6.78,0.408 m -22.622,-9.312 c 1.479,0.949 2.718,2.044 3.721,3.284 m -3.721,-3.284 c -0.527,-0.357 -1.081,-0.686 -1.674,-0.99 -2.414,-1.252 -4.683,-1.583 -6.794,-0.976 -2.097,0.62 -3.641,2.638 -4.63,6.081 -0.989,3.429 -0.777,6.08 0.635,7.941 1.411,1.859 3.52,2.835 6.356,2.915 1.887,0.039 3.627,-0.131 5.21,-0.515 m 0.001,0 c -0.54,0.475 -1.067,1.003 -1.583,1.57 -1.834,2.018 -2.716,4.128 -2.651,6.318 0.067,2.203 1.65,4.221 4.724,6.028 3.087,1.82 5.709,2.281 7.86,1.385 2.164,-0.897 3.641,-2.704 4.418,-5.435 0.265,-0.936 0.462,-1.833 0.607,-2.717 m -0.751,-7.399 c 0.396,0.739 0.659,1.596 0.804,2.572 0.224,1.516 0.197,3.126 -0.053,4.827 m 10.143,-12.293 c 0.067,-0.013 0.119,-0.013 0.186,-0.027 2.716,-0.381 4.76,-1.424 6.12,-3.152 1.357,-1.728 1.449,-4.273 0.25,-7.65 -1.175,-3.389 -2.89,-5.434 -5.119,-6.147 -2.229,-0.699 -4.536,-0.264 -6.897,1.319 -0.83,0.568 -1.583,1.148 -2.271,1.754"
         id="path2543" />
      <path
         inkscape:connector-curvature="0"
         style="fill:#ede700"
         d="m 902.259,188.475 c -0.513,-0.515 -1.066,-0.924 -1.661,-1.241 -0.434,-0.237 -0.897,-0.421 -1.385,-0.553 -0.594,-0.159 -1.213,-0.238 -1.86,-0.238 -1.911,0 -3.547,0.673 -4.906,2.032 -0.119,0.118 -0.237,0.25 -0.355,0.382 -0.184,0.211 -0.357,0.423 -0.501,0.646 -0.779,1.121 -1.176,2.414 -1.176,3.878 0,1.491 0.41,2.809 1.229,3.957 0.118,0.172 0.248,0.343 0.394,0.514 0.132,0.146 0.266,0.291 0.409,0.436 1.359,1.359 2.995,2.031 4.906,2.031 0.503,0 0.99,-0.038 1.452,-0.132 0.448,-0.093 0.882,-0.237 1.293,-0.408 0.777,-0.33 1.503,-0.832 2.161,-1.491 1.096,-1.096 1.743,-2.361 1.953,-3.811 0.054,-0.357 0.078,-0.713 0.078,-1.096 v -0.264 c -0.064,-1.807 -0.737,-3.35 -2.031,-4.642"
         id="path2545" />
      <path
         inkscape:connector-curvature="0"
         style="fill:none;stroke:#e06a06;stroke-width:2.1099999;stroke-linecap:round;stroke-linejoin:round;stroke-miterlimit:10"
         d="m 900.598,187.234 c -0.434,-0.237 -0.897,-0.421 -1.385,-0.553 -0.594,-0.159 -1.213,-0.238 -1.86,-0.238 -1.911,0 -3.547,0.673 -4.906,2.032 -0.119,0.118 -0.237,0.25 -0.355,0.382 -0.184,0.211 -0.357,0.423 -0.501,0.646 -0.779,1.121 -1.176,2.414 -1.176,3.878 0,1.491 0.41,2.809 1.229,3.957 0.118,0.172 0.248,0.343 0.394,0.514 0.132,0.146 0.266,0.291 0.409,0.436 1.359,1.359 2.995,2.031 4.906,2.031 0.503,0 0.99,-0.038 1.452,-0.132 0.448,-0.093 0.882,-0.237 1.293,-0.408 0.777,-0.33 1.503,-0.832 2.161,-1.491 1.096,-1.096 1.743,-2.361 1.953,-3.811 0.054,-0.357 0.078,-0.713 0.078,-1.096 v -0.264 c -0.064,-1.807 -0.737,-3.35 -2.031,-4.642 -0.513,-0.515 -1.067,-0.924 -1.661,-1.241 z"
         id="path2547" />
    </g>
  </g>
</svg>
