<?xml version="1.0" encoding="UTF-8" standalone="no"?>
<!-- Created with Inkscape (http://www.inkscape.org/) -->

<svg
   xmlns:dc="http://purl.org/dc/elements/1.1/"
   xmlns:cc="http://creativecommons.org/ns#"
   xmlns:rdf="http://www.w3.org/1999/02/22-rdf-syntax-ns#"
   xmlns:svg="http://www.w3.org/2000/svg"
   xmlns="http://www.w3.org/2000/svg"
   xmlns:sodipodi="http://sodipodi.sourceforge.net/DTD/sodipodi-0.dtd"
   xmlns:inkscape="http://www.inkscape.org/namespaces/inkscape"
   width="196.07585"
   height="184.98088"
   id="svg5696"
   version="1.1"
   inkscape:version="0.48.4 r9939"
   sodipodi:docname="ernie10.svg">
  <defs
     id="defs5698">
    <clipPath
       id="SVGID_2_">
      <rect
         height="88.862999"
         width="111.498"
         y="518.96198"
         x="382.04999"
         id="use1087" />
    </clipPath>
    <clipPath
       id="SVGID_4_">
      <rect
         height="41.314999"
         width="49.584999"
         y="525.19397"
         x="389.84698"
         id="use1111" />
    </clipPath>
  </defs>
  <sodipodi:namedview
     id="base"
     pagecolor="#ffffff"
     bordercolor="#666666"
     borderopacity="1.0"
     inkscape:pageopacity="0.0"
     inkscape:pageshadow="2"
     inkscape:zoom="0.77472527"
     inkscape:cx="47.016746"
     inkscape:cy="125.80345"
     inkscape:current-layer="layer1"
     inkscape:document-units="px"
     showgrid="false"
     inkscape:window-width="763"
     inkscape:window-height="591"
     inkscape:window-x="592"
     inkscape:window-y="97"
     inkscape:window-maximized="0"
     fit-margin-top="0"
     fit-margin-left="0"
     fit-margin-right="0"
     fit-margin-bottom="0" />
  <metadata
     id="metadata5701">
    <rdf:RDF>
      <cc:Work
         rdf:about="">
        <dc:format>image/svg+xml</dc:format>
        <dc:type
           rdf:resource="http://purl.org/dc/dcmitype/StillImage" />
        <dc:title></dc:title>
      </cc:Work>
    </rdf:RDF>
  </metadata>
  <g
     id="layer1"
     inkscape:label="Layer 1"
     inkscape:groupmode="layer"
     transform="translate(-270.92654,-25.92894)">
    <g
       transform="translate(183.08326,-518.97206)"
       id="g1995">
      <path
         inkscape:connector-curvature="0"
         style="fill:#e83434"
         d="m 156.928,713.135 c -1.662,-1.058 -2.806,-1.764 -3.442,-2.123 -3.337,-2.354 -6.557,-4.164 -9.644,-5.43 -5.196,-2.207 -9.685,-2.768 -13.441,-1.671 -3.507,1.035 -5.203,3.033 -5.076,5.972 0.134,3.158 2.495,6.19 7.081,9.097 5.427,3.437 13.096,5.999 23.009,7.691 0.237,0.033 0.461,-0.062 0.665,-0.304 0.216,-0.236 0.461,-0.653 0.721,-1.273 0.24,-0.584 0.706,-1.781 1.378,-3.609 0.945,-2.549 1.717,-4.625 2.33,-6.201 -0.838,-0.453 -2.035,-1.174 -3.581,-2.149"
         id="path1997" />
      <path
         inkscape:connector-curvature="0"
         style="fill:none;stroke:#e83927;stroke-width:4.33099985;stroke-miterlimit:10"
         d="m 156.928,713.135 c 1.546,0.976 2.743,1.696 3.581,2.148 -0.613,1.576 -1.385,3.652 -2.33,6.201 -0.672,1.828 -1.138,3.025 -1.378,3.609 -0.26,0.62 -0.505,1.037 -0.721,1.273 -0.204,0.241 -0.428,0.337 -0.665,0.304 -9.913,-1.692 -17.582,-4.255 -23.009,-7.691 -4.586,-2.906 -6.947,-5.938 -7.081,-9.097 -0.127,-2.938 1.569,-4.937 5.076,-5.972 3.756,-1.097 8.245,-0.536 13.441,1.671 3.087,1.266 6.307,3.076 9.644,5.43 0.636,0.36 1.78,1.066 3.442,2.124 z"
         id="path1999" />
      <path
         inkscape:connector-curvature="0"
         style="fill:#e83434"
         d="m 153.474,711.033 c -1.98,-1.396 -4.077,-2.667 -6.259,-3.822 -2.601,-1.368 -4.976,-2.381 -7.114,-2.992 1.182,1.897 1.245,4.844 0.161,8.857 -0.27,0.992 -0.654,2.311 -1.178,3.942 -0.349,1.203 -0.439,1.921 -0.268,2.145 0.806,1.097 3.611,2.377 8.412,3.819 4.342,1.294 7.528,2.011 9.56,2.135 0.24,-0.584 0.704,-1.781 1.377,-3.612 0.946,-2.547 1.718,-4.622 2.332,-6.2 -0.84,-0.449 -2.036,-1.173 -3.581,-2.146 -1.663,-1.058 -2.807,-1.765 -3.442,-2.126"
         id="path2001" />
      <path
         inkscape:connector-curvature="0"
         style="fill:#f3f3f3"
         d="m 156.071,726.406 c 0.216,-0.236 0.462,-0.651 0.722,-1.27 -0.331,-0.031 -0.681,-0.056 -1.036,-0.099 l -1.498,-0.232 c -1.562,-0.257 -3.271,-0.645 -5.151,-1.183 -0.888,-0.267 -1.69,-0.527 -2.403,-0.782 -4.477,-1.373 -7.105,-2.595 -7.884,-3.66 -0.172,-0.223 -0.081,-0.941 0.268,-2.146 0.524,-1.632 0.909,-2.948 1.177,-3.942 1.058,-3.968 1.017,-6.9 -0.124,-8.788 -3.653,-1.053 -6.89,-1.163 -9.727,-0.34 -3.53,1.022 -5.238,3.014 -5.099,5.96 0.134,3.156 2.484,6.182 7.059,9.084 5.426,3.436 13.108,6.003 23.032,7.702 0.237,0.036 0.46,-0.061 0.664,-0.304"
         id="path2003" />
      <path
         inkscape:connector-curvature="0"
         style="fill:#f3f3f3"
         d="m 156.716,718.905 c -0.176,-0.832 -0.612,-1.452 -1.319,-1.87 -0.708,-0.417 -1.474,-0.508 -2.298,-0.269 -0.813,0.25 -1.438,0.742 -1.883,1.495 -0.452,0.764 -0.589,1.562 -0.415,2.394 0.189,0.836 0.635,1.466 1.343,1.883 0.708,0.419 1.462,0.501 2.275,0.253 0.813,-0.245 1.444,-0.751 1.896,-1.515 0.446,-0.753 0.576,-1.538 0.401,-2.371"
         id="path2005" />
      <path
         inkscape:connector-curvature="0"
         style="fill:#f3f3f3"
         d="m 142.22,703.941 c -0.026,-0.031 -0.036,-0.067 -0.064,-0.099 l -0.017,0.082 c 0.018,-0.003 0.048,-0.003 0.081,0.017"
         id="path2007" />
      <path
         inkscape:connector-curvature="0"
         style="fill:#f3f3f3"
         d="m 143.79,704.415 c -0.573,-0.263 -1.1,-0.423 -1.57,-0.474 0.601,0.855 1.025,1.985 1.263,3.354 0.233,1.244 0.372,3.113 0.425,5.587 0.336,0.122 0.772,0.258 1.314,0.443 0.468,0.154 0.859,0.265 1.17,0.327 0.355,-0.625 0.39,-1.938 0.114,-3.935 -0.295,-2.038 -0.744,-3.485 -1.332,-4.364 -0.239,-0.337 -0.702,-0.657 -1.384,-0.938"
         id="path2009" />
      <path
         inkscape:connector-curvature="0"
         style="fill:#e83434"
         d="m 220.491,714.578 c 1.475,-1.305 2.494,-2.183 3.065,-2.639 2.925,-2.847 5.819,-5.141 8.667,-6.872 4.785,-2.998 9.126,-4.256 13.005,-3.762 3.626,0.473 5.615,2.177 5.951,5.1 0.364,3.136 -1.492,6.502 -5.562,10.092 -4.817,4.244 -11.987,7.979 -21.506,11.206 -0.229,0.069 -0.465,0.011 -0.707,-0.196 -0.248,-0.199 -0.556,-0.571 -0.909,-1.143 -0.33,-0.541 -0.976,-1.648 -1.928,-3.35 -1.332,-2.367 -2.419,-4.294 -3.274,-5.753 0.759,-0.576 1.824,-1.478 3.198,-2.683"
         id="path2011" />
      <path
         inkscape:connector-curvature="0"
         style="fill:none;stroke:#e83927;stroke-width:4.33099985;stroke-miterlimit:10"
         d="m 220.491,714.578 c -1.374,1.205 -2.439,2.106 -3.198,2.684 0.855,1.459 1.942,3.386 3.274,5.753 0.952,1.701 1.598,2.809 1.928,3.35 0.353,0.571 0.661,0.943 0.909,1.143 0.242,0.207 0.478,0.266 0.707,0.196 9.519,-3.228 16.689,-6.962 21.506,-11.206 4.07,-3.59 5.926,-6.956 5.562,-10.092 -0.336,-2.923 -2.325,-4.627 -5.951,-5.1 -3.879,-0.494 -8.22,0.764 -13.005,3.762 -2.848,1.731 -5.742,4.025 -8.667,6.872 -0.571,0.456 -1.59,1.333 -3.065,2.638 z"
         id="path2013" />
      <path
         inkscape:connector-curvature="0"
         style="fill:#e83434"
         d="m 223.572,711.96 c 1.732,-1.689 3.606,-3.273 5.579,-4.756 2.352,-1.76 4.538,-3.129 6.551,-4.07 -0.869,2.059 -0.467,4.976 1.231,8.768 0.422,0.938 1.009,2.179 1.783,3.706 0.534,1.133 0.735,1.829 0.601,2.076 -0.623,1.21 -3.192,2.914 -7.704,5.092 -4.084,1.96 -7.114,3.167 -9.101,3.609 -0.329,-0.541 -0.976,-1.648 -1.928,-3.349 -1.333,-2.369 -2.421,-4.295 -3.276,-5.755 0.759,-0.577 1.826,-1.478 3.198,-2.682 1.477,-1.305 2.494,-2.184 3.066,-2.639"
         id="path2015" />
      <path
         inkscape:connector-curvature="0"
         style="fill:#f3f3f3"
         d="m 223.421,727.545 c -0.249,-0.199 -0.558,-0.572 -0.912,-1.142 0.324,-0.082 0.664,-0.159 1.007,-0.257 l 1.442,-0.47 c 1.502,-0.496 3.129,-1.148 4.902,-1.973 0.834,-0.403 1.583,-0.786 2.247,-1.152 4.205,-2.058 6.607,-3.675 7.21,-4.851 0.134,-0.245 -0.069,-0.941 -0.603,-2.075 -0.773,-1.526 -1.359,-2.768 -1.781,-3.706 -1.666,-3.751 -2.088,-6.653 -1.256,-8.695 3.437,-1.613 6.618,-2.23 9.548,-1.864 3.644,0.456 5.644,2.153 5.969,5.084 0.362,3.137 -1.481,6.493 -5.541,10.075 -4.818,4.243 -11.997,7.986 -21.528,11.221 -0.229,0.072 -0.464,0.013 -0.704,-0.195"
         id="path2017" />
      <path
         inkscape:connector-curvature="0"
         style="fill:#f3f3f3"
         d="m 221.609,720.241 c 0.04,-0.849 0.374,-1.53 1.007,-2.053 0.633,-0.524 1.374,-0.732 2.227,-0.624 0.841,0.115 1.535,0.505 2.092,1.179 0.566,0.681 0.828,1.446 0.784,2.296 -0.051,0.857 -0.394,1.547 -1.027,2.071 -0.633,0.522 -1.366,0.723 -2.207,0.607 -0.841,-0.117 -1.543,-0.517 -2.109,-1.198 -0.557,-0.673 -0.811,-1.428 -0.767,-2.278"
         id="path2019" />
      <path
         inkscape:connector-curvature="0"
         style="fill:#f3f3f3"
         d="m 233.568,703.192 c 0.021,-0.034 0.023,-0.071 0.045,-0.108 l 0.03,0.079 c -0.017,-10e-4 -0.045,0.004 -0.075,0.029"
         id="path2021" />
      <path
         inkscape:connector-curvature="0"
         style="fill:#f3f3f3"
         d="m 232.09,703.905 c 0.526,-0.349 1.02,-0.589 1.478,-0.713 -0.46,0.938 -0.7,2.121 -0.721,3.508 -0.034,1.267 0.124,3.134 0.458,5.581 -0.312,0.175 -0.722,0.378 -1.227,0.645 -0.44,0.229 -0.806,0.397 -1.104,0.508 -0.449,-0.562 -0.687,-1.852 -0.731,-3.865 -0.028,-2.059 0.187,-3.557 0.629,-4.518 0.185,-0.372 0.59,-0.759 1.218,-1.146"
         id="path2023" />
      <polygon
         style="fill:#5390cd"
         points="203.575,700.8 203.575,690.703 172.654,690.703 172.654,700.742 "
         id="polygon2025" />
      <line
         style="fill:none;stroke:#00398a;stroke-width:3.36299992;stroke-miterlimit:10"
         x1="203.575"
         y1="700.79999"
         x2="172.65401"
         y2="700.742"
         id="line2027" />
      <path
         inkscape:connector-curvature="0"
         style="fill:#5390cd"
         d="m 164.223,713.752 0.997,0.845 21.365,-26.059 c -6.568,-2.263 -15.189,-6.111 -25.885,-11.525 -4.497,6.919 -8.664,14.175 -12.504,21.795 5.262,5.336 10.599,10.311 16.027,14.944"
         id="path2029" />
      <path
         inkscape:connector-curvature="0"
         style="fill:none;stroke:#00398a;stroke-width:6.00099993;stroke-miterlimit:10"
         d="m 164.223,713.752 c -5.428,-4.633 -10.765,-9.608 -16.027,-14.944 3.84,-7.62 8.007,-14.876 12.504,-21.795 10.696,5.414 19.317,9.263 25.885,11.525 l -21.365,26.059 -0.997,-0.845 z"
         id="path2031" />
      <path
         inkscape:connector-curvature="0"
         style="fill:#a4c6e9"
         d="m 162.361,718.154 2.859,-3.558 c -5.771,-4.878 -11.451,-10.132 -17.024,-15.789 l -2.342,4.786 5.617,5.744 c 4.328,4.191 7.961,7.127 10.89,8.817"
         id="path2033" />
      <path
         inkscape:connector-curvature="0"
         style="fill:none;stroke:#00398a;stroke-width:6.00099993;stroke-miterlimit:10"
         d="m 162.361,718.154 c -2.929,-1.69 -6.562,-4.626 -10.89,-8.816 l -5.617,-5.744 2.342,-4.786 c 5.573,5.657 11.253,10.911 17.024,15.789 l -2.859,3.557 z"
         id="path2035" />
      <path
         inkscape:connector-curvature="0"
         style="fill:#a4c6e9"
         d="m 162.361,718.154 2.859,-3.558 c -5.771,-4.878 -11.451,-10.132 -17.024,-15.789 l -2.342,4.786 5.617,5.744 c 4.328,4.191 7.961,7.127 10.89,8.817"
         id="path2037" />
      <path
         inkscape:connector-curvature="0"
         style="fill:#5390cd"
         d="m 164.223,713.752 0.997,0.845 21.365,-26.059 c -6.568,-2.263 -15.189,-6.111 -25.885,-11.525 -4.497,6.919 -8.664,14.175 -12.504,21.795 5.262,5.336 10.599,10.311 16.027,14.944"
         id="path2039" />
      <path
         inkscape:connector-curvature="0"
         style="fill:#a4c6e9"
         d="m 162.361,718.154 2.859,-3.558 c -5.771,-4.878 -11.451,-10.132 -17.024,-15.789 l -2.342,4.786 5.617,5.744 c 4.328,4.191 7.961,7.127 10.89,8.817"
         id="path2041" />
      <path
         inkscape:connector-curvature="0"
         style="fill:#5390cd"
         d="m 216.353,714.774 -0.863,0.976 -24.864,-22.709 c 6.17,-3.176 14.148,-8.219 23.946,-15.106 5.441,6.197 10.6,12.775 15.492,19.763 -4.44,6.03 -9.004,11.715 -13.711,17.076"
         id="path2043" />
      <path
         inkscape:connector-curvature="0"
         style="fill:none;stroke:#00398a;stroke-width:5.99700022;stroke-miterlimit:10"
         d="m 216.353,714.774 c 4.707,-5.361 9.271,-11.047 13.711,-17.077 -4.892,-6.987 -10.051,-13.565 -15.492,-19.763 -9.798,6.888 -17.776,11.931 -23.946,15.106 l 24.864,22.709 0.863,-0.975 z"
         id="path2045" />
      <path
         inkscape:connector-curvature="0"
         style="fill:#a4c6e9"
         d="m 218.827,718.86 -3.337,-3.11 c 5.008,-5.649 9.872,-11.661 14.574,-18.053 l 3.002,4.395 -4.735,6.489 c -3.678,4.763 -6.849,8.186 -9.504,10.279"
         id="path2047" />
      <path
         inkscape:connector-curvature="0"
         style="fill:none;stroke:#00398a;stroke-width:5.99700022;stroke-miterlimit:10"
         d="m 218.827,718.86 c 2.655,-2.094 5.826,-5.517 9.504,-10.279 l 4.735,-6.489 -3.002,-4.395 c -4.702,6.392 -9.566,12.403 -14.574,18.053 l 3.337,3.11 z"
         id="path2049" />
      <path
         inkscape:connector-curvature="0"
         style="fill:#a4c6e9"
         d="m 218.827,718.86 -3.337,-3.11 c 5.008,-5.649 9.872,-11.661 14.574,-18.053 l 3.002,4.395 -4.735,6.489 c -3.678,4.763 -6.849,8.186 -9.504,10.279"
         id="path2051" />
      <path
         inkscape:connector-curvature="0"
         style="fill:#5390cd"
         d="m 216.353,714.774 -0.863,0.976 -24.864,-22.709 c 6.17,-3.176 14.148,-8.219 23.946,-15.106 5.441,6.197 10.6,12.775 15.492,19.763 -4.44,6.03 -9.004,11.715 -13.711,17.076"
         id="path2053" />
      <path
         inkscape:connector-curvature="0"
         style="fill:#a4c6e9"
         d="m 218.827,718.86 -3.337,-3.11 c 5.008,-5.649 9.872,-11.661 14.574,-18.053 l 3.002,4.395 -4.735,6.489 c -3.678,4.763 -6.849,8.186 -9.504,10.279"
         id="path2055" />
      <polygon
         style="fill:#5390cd"
         points="203.742,700.896 203.742,683.436 172.819,683.436 172.819,700.796 "
         id="polygon2057" />
      <path
         inkscape:connector-curvature="0"
         style="fill:#00398a"
         d="m 212.222,632.354 -0.236,-5.2 -48.658,1.071 -0.496,4.809 c -5.842,17.353 -7.854,33.593 -6.037,48.71 6.102,1.634 13.184,2.706 21.246,3.215 13.08,0.823 26.549,-0.116 40.4,-2.795 1.92,-15.432 -0.157,-32.04 -6.219,-49.81"
         id="path2059" />
      <path
         inkscape:connector-curvature="0"
         style="fill:none;stroke:#00398a;stroke-width:4.33099985;stroke-miterlimit:10"
         d="m 212.222,632.354 c 6.062,17.77 8.139,34.378 6.219,49.81 -13.851,2.679 -27.32,3.618 -40.4,2.795 -8.062,-0.509 -15.144,-1.581 -21.246,-3.215 -1.817,-15.117 0.195,-31.357 6.037,-48.71 l 0.496,-4.809 48.658,-1.071 0.236,5.2 z"
         id="path2061" />
      <path
         inkscape:connector-curvature="0"
         style="fill:#fedb00"
         d="m 253.518,627.839 c -0.58,-1.741 -0.879,-3.048 -0.913,-3.912 -0.052,-1.244 0.379,-2.025 1.297,-2.344 0.736,-0.237 1.944,0.33 3.613,1.721 1.602,1.324 2.492,2.355 2.672,3.088 1.023,-1.231 2.011,-2.38 2.976,-3.448 1.889,-2.083 3.248,-3.166 4.057,-3.262 2.595,-0.33 3.644,0.856 3.144,3.571 -0.247,1.354 -0.891,3.082 -1.956,5.185 0.75,-0.535 2.245,-1.14 4.481,-1.817 2.334,-0.687 3.797,-0.919 4.393,-0.694 2.322,0.885 2.322,2.457 -0.006,4.701 -0.679,0.653 -2.267,1.832 -4.752,3.533 0.88,-0.433 2.41,-0.468 4.591,-0.091 2.697,0.466 4.181,1.349 4.438,2.644 0.703,3.618 -2.354,5.146 -9.194,4.584 -3.411,-0.297 -6.895,-0.947 -10.459,-1.946 l -5.479,2.191 c -4.625,1.649 -9.33,2.991 -14.128,4.027 -7.119,1.546 -13.821,2.283 -20.091,2.217 l 5.727,-7.117 c 1.946,-0.081 3.918,-0.232 5.924,-0.456 4.398,-0.492 8.466,-1.295 12.206,-2.408 3.499,-1.042 6.232,-2.211 8.192,-3.506 0.558,-0.368 0.715,-1.207 0.457,-2.502 -0.11,-0.534 -0.509,-1.845 -1.19,-3.959"
         id="path2063" />
      <path
         inkscape:connector-curvature="0"
         style="fill:none;stroke:#e83927;stroke-width:4.55700016;stroke-miterlimit:10"
         d="m 253.518,627.839 c 0.681,2.114 1.08,3.425 1.19,3.958 0.258,1.295 0.101,2.134 -0.457,2.502 -1.96,1.295 -4.693,2.464 -8.192,3.506 -3.74,1.113 -7.808,1.916 -12.206,2.408 -2.006,0.224 -3.978,0.375 -5.924,0.456 l -5.727,7.117 c 6.27,0.066 12.972,-0.671 20.091,-2.217 4.798,-1.036 9.503,-2.378 14.128,-4.027 l 5.479,-2.191 c 3.564,0.999 7.048,1.649 10.459,1.946 6.84,0.562 9.897,-0.966 9.194,-4.584 -0.257,-1.295 -1.741,-2.178 -4.438,-2.644 -2.181,-0.377 -3.714,-0.342 -4.591,0.091 2.485,-1.701 4.073,-2.88 4.752,-3.533 2.328,-2.244 2.328,-3.816 0.006,-4.701 -0.596,-0.225 -2.059,0.008 -4.393,0.694 -2.236,0.678 -3.731,1.282 -4.481,1.817 1.065,-2.103 1.709,-3.83 1.956,-5.185 0.5,-2.715 -0.549,-3.901 -3.144,-3.571 -0.809,0.096 -2.168,1.179 -4.057,3.262 -0.965,1.068 -1.953,2.217 -2.976,3.448 -0.18,-0.732 -1.07,-1.764 -2.672,-3.088 -1.669,-1.391 -2.877,-1.958 -3.613,-1.721 -0.918,0.318 -1.349,1.1 -1.297,2.344 0.034,0.865 0.333,2.172 0.913,3.913 z"
         id="path2065" />
      <path
         inkscape:connector-curvature="0"
         style="fill:#f49c00"
         d="m 253.42,627.889 c -0.578,-1.741 -0.876,-3.05 -0.91,-3.911 -0.055,-1.244 0.377,-2.026 1.294,-2.347 0.737,-0.234 1.947,0.333 3.614,1.723 1.601,1.323 2.493,2.356 2.671,3.09 1.024,-1.233 2.014,-2.382 2.978,-3.45 1.889,-2.082 3.248,-3.166 4.055,-3.262 2.598,-0.33 3.647,0.855 3.144,3.57 -0.245,1.355 -0.891,3.083 -1.953,5.186 0.748,-0.534 2.242,-1.14 4.479,-1.817 2.333,-0.686 3.796,-0.919 4.395,-0.693 2.32,0.885 2.32,2.457 -0.009,4.7 -0.677,0.653 -2.263,1.832 -4.753,3.534 0.881,-0.434 2.413,-0.467 4.595,-0.092 2.695,0.466 4.179,1.35 4.435,2.644 0.705,3.617 -2.353,5.147 -9.194,4.585 -3.411,-0.298 -6.895,-0.948 -10.457,-1.946 l -5.481,2.191 c -4.624,1.647 -9.329,2.991 -14.125,4.025 -7.12,1.548 -13.824,2.285 -20.094,2.22 l 5.731,-7.119 c 1.942,-0.08 3.918,-0.233 5.92,-0.456 4.397,-0.493 8.467,-1.295 12.209,-2.407 3.5,-1.043 6.229,-2.211 8.191,-3.507 0.558,-0.367 0.713,-1.207 0.456,-2.502 -0.109,-0.535 -0.51,-1.845 -1.191,-3.959"
         id="path2067" />
      <path
         inkscape:connector-curvature="0"
         style="fill:#003e93"
         d="m 247.539,629.588 c 1.822,6.369 3.636,12.745 5.441,19.137 l -45.162,17.152 c -4.322,-5.107 -6.432,-10.083 -6.313,-14.931 l 46.034,-21.358 z"
         id="path2069" />
      <path
         inkscape:connector-curvature="0"
         style="fill:none;stroke:#003e93;stroke-width:4.33099985;stroke-linecap:round;stroke-linejoin:round;stroke-miterlimit:10"
         d="m 247.539,629.588 -46.034,21.358 c -0.119,4.848 1.991,9.823 6.313,14.931 l 45.162,-17.152 c -1.805,-6.392 -3.619,-12.768 -5.441,-19.137 z"
         id="path2071" />
      <path
         inkscape:connector-curvature="0"
         style="fill:#e83434"
         d="m 217.861,662.074 -10.043,3.803 c -4.322,-5.108 -6.432,-10.083 -6.313,-14.931 l 9.34,-4.322 7.016,15.45 z"
         id="path2073" />
      <polygon
         style="fill:#f3f3f3"
         points="226.561,658.752 217.861,662.074 210.845,646.624 219.019,642.814 "
         id="polygon2075" />
      <path
         inkscape:connector-curvature="0"
         style="fill:#e83827"
         d="m 252.98,648.725 -8.159,3.101 -6.914,-17.767 9.632,-4.471 c 1.822,6.369 3.636,12.745 5.441,19.137"
         id="path2077" />
      <polygon
         style="fill:#fedb00"
         points="244.821,651.825 235.098,655.507 228.006,638.657 237.907,634.059 "
         id="polygon2079" />
      <polygon
         style="fill:#0076bf"
         points="235.098,655.507 226.561,658.752 219.019,642.814 228.006,638.657 "
         id="polygon2081" />
      <path
         inkscape:connector-curvature="0"
         style="fill:#fedb00"
         d="m 118.569,626.084 c 0.636,-1.722 0.977,-3.018 1.042,-3.88 0.093,-1.242 -0.313,-2.039 -1.219,-2.388 -0.727,-0.262 -1.956,0.267 -3.67,1.601 -1.644,1.271 -2.569,2.273 -2.772,2.999 -0.984,-1.267 -1.932,-2.447 -2.86,-3.547 -1.82,-2.146 -3.143,-3.273 -3.949,-3.396 -2.585,-0.415 -3.673,0.735 -3.26,3.465 0.2,1.363 0.787,3.113 1.781,5.248 -0.731,-0.557 -2.205,-1.214 -4.418,-1.965 -2.31,-0.763 -3.765,-1.045 -4.369,-0.839 -2.349,0.807 -2.403,2.379 -0.15,4.7 0.657,0.675 2.204,1.907 4.635,3.69 -0.866,-0.463 -2.397,-0.548 -4.589,-0.245 -2.71,0.375 -4.223,1.209 -4.525,2.494 -0.822,3.595 2.183,5.224 9.04,4.889 3.421,-0.184 6.924,-0.717 10.519,-1.599 l 5.407,2.373 c 4.567,1.803 9.226,3.301 13.987,4.495 7.067,1.781 13.742,2.743 20.013,2.886 l -5.491,-7.307 c -1.942,-0.145 -3.909,-0.362 -5.905,-0.652 -4.38,-0.64 -8.421,-1.576 -12.123,-2.812 -3.463,-1.158 -6.154,-2.418 -8.072,-3.779 -0.546,-0.385 -0.675,-1.229 -0.373,-2.513 0.127,-0.533 0.57,-1.828 1.321,-3.918"
         id="path2083" />
      <path
         inkscape:connector-curvature="0"
         style="fill:none;stroke:#e83927;stroke-width:4.55800009;stroke-miterlimit:10"
         d="m 118.569,626.084 c -0.751,2.09 -1.194,3.385 -1.321,3.919 -0.302,1.284 -0.173,2.128 0.373,2.513 1.918,1.361 4.609,2.621 8.072,3.779 3.702,1.236 7.743,2.173 12.123,2.812 1.996,0.29 3.964,0.508 5.905,0.652 l 5.491,7.307 c -6.271,-0.143 -12.946,-1.104 -20.013,-2.886 -4.761,-1.194 -9.42,-2.692 -13.987,-4.494 l -5.407,-2.374 c -3.595,0.882 -7.098,1.415 -10.519,1.599 -6.857,0.336 -9.862,-1.294 -9.04,-4.889 0.302,-1.285 1.815,-2.119 4.525,-2.494 2.192,-0.303 3.723,-0.218 4.589,0.245 -2.431,-1.783 -3.978,-3.016 -4.634,-3.69 -2.254,-2.321 -2.2,-3.894 0.149,-4.7 0.604,-0.206 2.059,0.076 4.369,0.839 2.213,0.751 3.687,1.408 4.418,1.965 -0.994,-2.135 -1.581,-3.885 -1.781,-5.248 -0.413,-2.729 0.675,-3.88 3.26,-3.465 0.806,0.122 2.129,1.249 3.949,3.396 0.928,1.1 1.876,2.28 2.86,3.548 0.203,-0.727 1.128,-1.729 2.774,-3 1.712,-1.334 2.941,-1.862 3.668,-1.601 0.906,0.349 1.312,1.146 1.219,2.388 -0.065,0.861 -0.406,2.158 -1.042,3.879 l 0,0 z"
         id="path2085" />
      <path
         inkscape:connector-curvature="0"
         style="fill:#f49c00"
         d="m 118.664,626.138 c 0.636,-1.722 0.978,-3.019 1.041,-3.88 0.094,-1.242 -0.311,-2.039 -1.218,-2.388 -0.728,-0.262 -1.955,0.267 -3.669,1.599 -1.644,1.272 -2.57,2.275 -2.774,3.002 -0.982,-1.268 -1.933,-2.448 -2.861,-3.548 -1.819,-2.146 -3.14,-3.273 -3.947,-3.396 -2.584,-0.414 -3.672,0.734 -3.261,3.465 0.202,1.363 0.789,3.111 1.782,5.248 -0.732,-0.558 -2.204,-1.214 -4.418,-1.967 -2.311,-0.761 -3.766,-1.044 -4.37,-0.836 -2.348,0.806 -2.402,2.378 -0.148,4.699 0.656,0.675 2.203,1.905 4.634,3.689 -0.865,-0.463 -2.397,-0.548 -4.589,-0.245 -2.711,0.378 -4.223,1.21 -4.525,2.495 -0.822,3.595 2.185,5.223 9.041,4.89 3.419,-0.186 6.923,-0.718 10.519,-1.6 l 5.405,2.375 c 4.569,1.801 9.226,3.299 13.987,4.493 7.068,1.78 13.742,2.742 20.014,2.885 l -5.492,-7.305 c -1.94,-0.146 -3.909,-0.365 -5.903,-0.653 -4.379,-0.64 -8.422,-1.576 -12.125,-2.814 -3.463,-1.156 -6.154,-2.417 -8.072,-3.776 -0.546,-0.385 -0.674,-1.231 -0.372,-2.516 0.126,-0.531 0.57,-1.827 1.321,-3.916"
         id="path2087" />
      <path
         inkscape:connector-curvature="0"
         style="fill:#003e93"
         d="m 124.511,628.091 c -2.035,6.308 -4.058,12.622 -6.076,18.953 l 44.585,18.645 c 4.49,-4.964 6.764,-9.868 6.808,-14.716 l -45.317,-22.882 z"
         id="path2089" />
      <path
         inkscape:connector-curvature="0"
         style="fill:none;stroke:#003e93;stroke-width:4.33099985;stroke-linecap:round;stroke-linejoin:round;stroke-miterlimit:10"
         d="m 124.511,628.091 45.317,22.882 c -0.044,4.848 -2.318,9.752 -6.808,14.716 l -44.585,-18.645 c 2.018,-6.331 4.042,-12.646 6.076,-18.953 z"
         id="path2091" />
      <path
         inkscape:connector-curvature="0"
         style="fill:#e83434"
         d="m 153.105,661.555 9.915,4.134 c 4.49,-4.964 6.764,-9.868 6.808,-14.716 l -9.196,-4.633 -7.527,15.215 z"
         id="path2093" />
      <polygon
         style="fill:#f3f3f3"
         points="144.517,657.944 153.105,661.555 160.632,646.34 152.586,642.26 "
         id="polygon2095" />
      <path
         inkscape:connector-curvature="0"
         style="fill:#e83827"
         d="m 118.435,647.044 8.055,3.369 7.502,-17.531 -9.481,-4.791 c -2.035,6.307 -4.058,12.622 -6.076,18.953"
         id="path2097" />
      <polygon
         style="fill:#fedb00"
         points="126.49,650.413 136.09,654.417 143.739,637.805 133.992,632.882 "
         id="polygon2099" />
      <polygon
         style="fill:#0076bf"
         points="136.09,654.417 144.517,657.944 152.586,642.26 143.739,637.805 "
         id="polygon2101" />
      <path
         inkscape:connector-curvature="0"
         style="fill:#fedb00"
         d="m 156.22,674.82 c 0.105,2.338 0.287,4.638 0.55,6.924 6.101,1.634 13.182,2.706 21.244,3.215 13.107,0.823 26.576,-0.116 40.427,-2.795 0.405,-3.346 0.628,-6.599 0.68,-9.748 -14.466,2.143 -27.935,3.291 -40.427,3.449 -8.467,0.106 -15.954,-0.247 -22.474,-1.045"
         id="path2103" />
      <path
         inkscape:connector-curvature="0"
         style="fill:#fedb00"
         d="m 181.648,634.89 c -7.07,0.064 -13.472,-0.184 -19.183,-0.759 -0.979,2.94 -1.868,5.973 -2.664,9.069 6.153,0.64 13.079,0.913 20.774,0.809 10.715,-0.156 22.187,-1.031 34.417,-2.639 -0.693,-2.574 -1.569,-5.437 -2.613,-8.571 -10.884,1.294 -21.129,1.987 -30.731,2.091"
         id="path2105" />
      <path
         inkscape:connector-curvature="0"
         style="fill:#e83434"
         d="m 162.465,634.131 c 5.711,0.575 12.113,0.823 19.183,0.759 9.602,-0.104 19.847,-0.797 30.731,-2.091 l -0.157,-0.444 -0.236,-5.2 -48.658,1.071 -0.523,4.809 -0.34,1.096 z"
         id="path2107" />
      <path
         inkscape:connector-curvature="0"
         style="fill:#f3f3f3"
         d="m 157.606,653.679 c -0.629,3.658 -1.048,7.355 -1.255,11.106 6.521,0.785 14.021,1.11 22.5,0.966 12.335,-0.169 25.635,-1.319 39.904,-3.423 -0.263,-3.306 -0.733,-6.835 -1.412,-10.557 -13.745,1.895 -26.537,2.888 -38.362,2.979 -8.1,0.052 -15.222,-0.302 -21.375,-1.071"
         id="path2109" />
      <path
         inkscape:connector-curvature="0"
         style="fill:#0076bf"
         d="m 159.801,643.2 c -0.941,3.724 -1.673,7.225 -2.195,10.479 6.153,0.77 13.275,1.123 21.375,1.072 11.825,-0.092 24.617,-1.085 38.362,-2.979 -0.665,-3.543 -1.45,-7.004 -2.351,-10.401 -12.23,1.607 -23.702,2.482 -34.417,2.639 -7.695,0.103 -14.621,-0.17 -20.774,-0.81"
         id="path2111" />
      <path
         inkscape:connector-curvature="0"
         style="fill:#e83827"
         d="m 156.22,674.82 c 6.52,0.798 14.007,1.15 22.474,1.045 12.492,-0.158 25.961,-1.307 40.427,-3.449 0.052,-3.292 -0.065,-6.651 -0.366,-10.088 -14.269,2.104 -27.569,3.254 -39.904,3.423 -8.479,0.145 -15.979,-0.181 -22.5,-0.966 -0.209,3.399 -0.25,6.741 -0.131,10.035"
         id="path2113" />
      <path
         inkscape:connector-curvature="0"
         style="fill:#e83434"
         d="m 208.264,634.841 c -3.961,1.529 -10.205,2.406 -18.751,2.641 -8.532,0.235 -15.144,-0.523 -19.835,-2.286 -6.048,-2.326 -9.59,-3.177 -10.637,-2.549 -2.064,0.327 -3.07,1.96 -3.03,4.899 0,0.719 0.144,1.79 0.431,3.188 v 0.013 0.013 c 0.719,3.424 1.816,5.542 3.28,6.351 l 0.014,0.015 c 2.65,1.867 6.52,3.657 11.615,5.355 4.991,1.661 10.713,2.431 17.169,2.326 h 0.052 c 5.632,0.21 11.106,-0.548 16.424,-2.261 5.37,-1.737 9.368,-3.554 12.007,-5.421 l 0.026,-0.015 c 1.451,-0.809 2.549,-2.927 3.267,-6.351 v -0.013 l 0.013,-0.013 c 0.275,-1.385 0.419,-2.43 0.432,-3.149 v -0.064 c 0.026,-2.939 -0.994,-4.573 -3.044,-4.874 -1.084,-0.627 -4.234,0.106 -9.433,2.195 m -19.522,13.956 h -0.17 c -5.762,0.105 -10.885,-0.576 -15.341,-2.025 h 0.014 c -4.391,-1.463 -7.735,-2.979 -10.034,-4.562 -0.302,-0.431 -0.602,-1.331 -0.89,-2.691 l 0.014,0.014 c -0.065,-0.261 -0.105,-0.508 -0.143,-0.731 1.109,0.393 2.886,1.058 5.331,2.001 5.238,2.05 12.621,2.938 22.146,2.69 h 0.015 c 9.497,-0.275 16.423,-1.294 20.8,-3.072 h 0.012 c 1.779,-0.717 3.124,-1.252 4.05,-1.595 -0.039,0.224 -0.091,0.458 -0.129,0.707 v -0.014 c -0.287,1.36 -0.575,2.261 -0.875,2.691 -2.312,1.583 -5.776,3.11 -10.402,4.614 h 0.013 c -4.663,1.502 -9.471,2.168 -14.411,1.973"
         id="path2115" />
      <path
         inkscape:connector-curvature="0"
         style="fill:#fdd100"
         d="m 188.572,648.797 h 0.17 c 4.94,0.195 9.748,-0.471 14.411,-1.973 h -0.013 c 4.626,-1.504 8.09,-3.031 10.402,-4.614 0.3,-0.431 0.588,-1.331 0.875,-2.691 v 0.014 c 0.038,-0.249 0.09,-0.483 0.129,-0.707 -0.926,0.343 -2.271,0.878 -4.05,1.595 h -0.012 c -4.377,1.778 -11.303,2.797 -20.8,3.072 h -0.015 c -9.525,0.248 -16.908,-0.641 -22.146,-2.69 -2.445,-0.943 -4.222,-1.608 -5.331,-2.001 0.038,0.224 0.078,0.471 0.143,0.731 l -0.014,-0.014 c 0.288,1.36 0.588,2.261 0.89,2.691 2.299,1.583 5.643,3.099 10.034,4.562 h -0.014 c 4.456,1.449 9.579,2.13 15.341,2.025"
         id="path2117" />
      <path
         inkscape:connector-curvature="0"
         style="fill:#fdd100"
         d="m 209.373,637.625 c -4.167,1.658 -10.752,2.613 -19.782,2.86 -9.03,0.249 -16.019,-0.588 -20.997,-2.494 -4.979,-1.908 -7.853,-2.729 -8.637,-2.483 -0.64,0.197 -0.954,0.862 -0.941,1.986 0.012,0.603 0.131,1.477 0.366,2.641 0.509,2.392 1.202,3.894 2.077,4.52 2.47,1.738 6.09,3.385 10.831,4.966 4.744,1.567 10.193,2.299 16.334,2.182 5.292,0.195 10.44,-0.51 15.444,-2.116 5.004,-1.62 8.742,-3.293 11.211,-5.031 0.876,-0.626 1.568,-2.128 2.078,-4.52 0.236,-1.164 0.366,-2.038 0.378,-2.641 0.013,-1.124 -0.3,-1.789 -0.94,-1.986 -0.798,-0.247 -3.267,0.457 -7.422,2.116"
         id="path2119" />
      <path
         inkscape:connector-curvature="0"
         style="fill:#e83434"
         d="m 165.366,636.516 c -0.092,0.286 -0.195,0.653 -0.314,1.109 -0.365,0.955 -0.627,1.935 -0.784,2.953 -0.156,0.823 -0.221,1.488 -0.183,2 0.067,0.771 0.353,1.331 0.863,1.686 0.588,-0.824 0.993,-1.882 1.203,-3.201 0.064,-0.458 0.195,-1.006 0.391,-1.646 0.248,-0.706 0.419,-1.242 0.524,-1.607 0.169,-0.59 0.273,-1.021 0.313,-1.269 0.091,-0.587 0.026,-1.006 -0.184,-1.278 -0.248,-0.327 -0.535,-0.421 -0.888,-0.303 -0.313,0.091 -0.588,0.313 -0.811,0.653 l 0.418,-0.078 c -0.208,0.131 -0.391,0.457 -0.548,0.981"
         id="path2121" />
      <path
         inkscape:connector-curvature="0"
         style="fill:#e83434"
         d="m 175.165,639.546 0.419,-0.052 c -0.21,0.144 -0.392,0.47 -0.548,0.991 -0.066,0.274 -0.171,0.642 -0.315,1.111 -0.299,0.759 -0.561,1.738 -0.782,2.953 -0.158,0.798 -0.224,1.451 -0.185,1.96 0.066,0.771 0.354,1.346 0.863,1.726 0.627,-0.851 1.032,-1.921 1.202,-3.241 0.066,-0.457 0.196,-0.992 0.392,-1.606 0.249,-0.706 0.418,-1.241 0.524,-1.622 0.417,-1.28 0.456,-2.128 0.13,-2.547 -0.249,-0.327 -0.537,-0.418 -0.889,-0.3 -0.314,0.09 -0.587,0.3 -0.811,0.627"
         id="path2123" />
      <path
         inkscape:connector-curvature="0"
         style="fill:#e83434"
         d="m 189.695,645.909 c 0.053,-1.046 0.027,-2.065 -0.077,-3.058 -0.014,-0.484 -0.04,-0.876 -0.053,-1.162 -0.052,-0.536 -0.158,-0.888 -0.313,-1.059 l 0.392,0.129 c -0.145,-0.351 -0.354,-0.612 -0.628,-0.783 -0.326,-0.183 -0.64,-0.143 -0.942,0.105 -0.416,0.352 -0.575,1.174 -0.469,2.496 0.013,0.378 0.066,0.939 0.131,1.686 0.039,0.663 0.039,1.215 0,1.671 -0.118,1.32 0.026,2.457 0.444,3.409 0.574,-0.247 0.981,-0.743 1.227,-1.463 0.158,-0.482 0.251,-1.135 0.288,-1.971"
         id="path2125" />
      <path
         inkscape:connector-curvature="0"
         style="fill:#e83434"
         d="m 200.514,638.292 c -0.353,-0.118 -0.639,-0.027 -0.889,0.302 -0.299,0.377 -0.247,1.228 0.131,2.548 0.105,0.363 0.276,0.9 0.523,1.605 0.197,0.626 0.327,1.162 0.391,1.619 0.21,1.334 0.616,2.405 1.204,3.228 0.51,-0.352 0.796,-0.913 0.862,-1.685 0.039,-0.51 -0.027,-1.176 -0.184,-2 -0.209,-1.162 -0.47,-2.144 -0.784,-2.952 -0.117,-0.472 -0.22,-0.836 -0.313,-1.111 -0.157,-0.521 -0.339,-0.85 -0.549,-0.979 l 0.418,0.077 c -0.222,-0.34 -0.496,-0.562 -0.81,-0.652"
         id="path2127" />
      <path
         inkscape:connector-curvature="0"
         style="fill:#e83434"
         d="m 211.594,637.324 c -0.118,-0.471 -0.221,-0.836 -0.313,-1.109 -0.157,-0.522 -0.327,-0.851 -0.522,-0.98 l 0.391,0.077 c -0.209,-0.339 -0.47,-0.561 -0.784,-0.666 -0.353,-0.117 -0.639,-0.013 -0.889,0.313 -0.3,0.405 -0.26,1.256 0.106,2.548 0.104,0.366 0.275,0.902 0.522,1.607 0.196,0.64 0.326,1.189 0.391,1.646 0.211,1.321 0.615,2.38 1.204,3.201 0.522,-0.351 0.809,-0.913 0.862,-1.685 0.051,-0.458 0,-1.123 -0.158,-1.999 -0.195,-1.072 -0.458,-2.051 -0.81,-2.953"
         id="path2129" />
      <path
         inkscape:connector-curvature="0"
         style="fill:#f49c00"
         d="m 244.826,603.221 c -0.052,-3.772 -1.102,-6.984 -3.161,-9.606 -2.06,-2.635 -4.532,-3.935 -7.391,-3.896 -2.86,0.039 -5.281,1.404 -7.27,4.096 -2.012,2.677 -2.987,5.916 -2.935,9.688 0.049,3.747 1.112,6.958 3.198,9.604 2.059,2.637 4.521,3.936 7.377,3.896 2.86,-0.038 5.298,-1.403 7.284,-4.094 1.987,-2.678 2.948,-5.915 2.898,-9.688"
         id="path2131" />
      <path
         inkscape:connector-curvature="0"
         style="fill:none;stroke:#e83927;stroke-width:4.33099985;stroke-miterlimit:10"
         d="m 244.826,603.221 c 0.05,3.773 -0.911,7.011 -2.898,9.688 -1.986,2.69 -4.424,4.056 -7.284,4.094 -2.856,0.04 -5.318,-1.259 -7.377,-3.896 -2.086,-2.646 -3.149,-5.857 -3.198,-9.604 -0.052,-3.772 0.923,-7.012 2.935,-9.688 1.989,-2.691 4.41,-4.057 7.27,-4.096 2.859,-0.039 5.331,1.261 7.391,3.896 2.059,2.621 3.109,5.833 3.161,9.606 z"
         id="path2133" />
      <path
         inkscape:connector-curvature="0"
         style="fill:#f49c00"
         d="m 244.826,603.221 c -0.052,-3.772 -1.102,-6.984 -3.161,-9.606 -2.06,-2.635 -4.532,-3.935 -7.391,-3.896 -2.86,0.039 -5.281,1.404 -7.27,4.096 -2.012,2.677 -2.987,5.916 -2.935,9.688 0.049,3.747 1.112,6.958 3.198,9.604 2.059,2.637 4.521,3.936 7.377,3.896 2.86,-0.038 5.298,-1.403 7.284,-4.094 1.987,-2.678 2.948,-5.915 2.898,-9.688"
         id="path2135" />
      <path
         inkscape:connector-curvature="0"
         style="fill:#f49c00"
         d="m 131.735,604.734 c -0.05,-3.771 0.91,-7.011 2.898,-9.688 1.986,-2.691 4.423,-4.056 7.282,-4.095 2.859,-0.039 5.319,1.261 7.379,3.896 2.085,2.62 3.147,5.832 3.197,9.604 0.053,3.747 -0.923,6.986 -2.935,9.689 -1.988,2.69 -4.411,4.057 -7.27,4.096 -2.859,0.039 -5.33,-1.259 -7.39,-3.896 -2.06,-2.622 -3.11,-5.834 -3.161,-9.606"
         id="path2137" />
      <path
         inkscape:connector-curvature="0"
         style="fill:none;stroke:#e83927;stroke-width:4.33099985;stroke-miterlimit:10"
         d="m 131.735,604.734 c 0.051,3.771 1.101,6.983 3.161,9.606 2.06,2.637 4.531,3.935 7.39,3.896 2.859,-0.039 5.282,-1.405 7.27,-4.096 2.012,-2.703 2.988,-5.942 2.935,-9.689 -0.05,-3.771 -1.112,-6.983 -3.197,-9.604 -2.06,-2.636 -4.52,-3.936 -7.379,-3.896 -2.859,0.039 -5.295,1.403 -7.282,4.095 -1.988,2.678 -2.948,5.917 -2.898,9.688 z"
         id="path2139" />
      <path
         inkscape:connector-curvature="0"
         style="fill:#f49c00"
         d="m 131.735,604.734 c -0.05,-3.771 0.91,-7.011 2.898,-9.688 1.986,-2.691 4.423,-4.056 7.282,-4.095 2.859,-0.039 5.319,1.261 7.379,3.896 2.085,2.62 3.147,5.832 3.197,9.604 0.053,3.747 -0.923,6.986 -2.935,9.689 -1.988,2.69 -4.411,4.057 -7.27,4.096 -2.859,0.039 -5.33,-1.259 -7.39,-3.896 -2.06,-2.622 -3.11,-5.834 -3.161,-9.606"
         id="path2141" />
      <path
         inkscape:connector-curvature="0"
         style="fill:#f49c00"
         d="m 221.628,580 c -4.445,-3.297 -9.547,-5.826 -15.275,-7.575 -5.927,-1.84 -12.116,-2.709 -18.578,-2.62 -6.462,0.088 -12.623,1.125 -18.498,3.124 -5.681,1.905 -10.697,4.571 -15.038,7.986 -4.353,3.415 -7.72,7.326 -10.076,11.705 -2.433,4.525 -3.609,9.255 -3.543,14.177 0.067,4.921 1.372,9.629 3.926,14.1 2.475,4.314 5.947,8.12 10.393,11.402 4.431,3.295 9.518,5.836 15.249,7.599 5.926,1.813 12.114,2.684 18.576,2.596 6.463,-0.088 12.624,-1.125 18.499,-3.099 5.679,-1.919 10.709,-4.598 15.062,-8.013 4.342,-3.401 7.697,-7.299 10.051,-11.679 2.433,-4.538 3.611,-9.28 3.543,-14.202 -0.067,-4.922 -1.373,-9.617 -3.926,-14.074 -2.473,-4.315 -5.934,-8.133 -10.365,-11.427"
         id="path2143" />
      <path
         inkscape:connector-curvature="0"
         style="fill:none;stroke:#e83927;stroke-width:4.33099985;stroke-miterlimit:10"
         d="m 206.353,572.425 c -5.927,-1.84 -12.116,-2.709 -18.578,-2.62 -6.462,0.088 -12.623,1.125 -18.498,3.124 -5.681,1.905 -10.697,4.571 -15.038,7.986 -4.353,3.415 -7.72,7.326 -10.076,11.705 -2.433,4.525 -3.609,9.255 -3.543,14.177 0.067,4.921 1.372,9.629 3.926,14.1 2.475,4.314 5.947,8.12 10.393,11.402 4.431,3.295 9.518,5.836 15.249,7.599 5.926,1.813 12.114,2.684 18.576,2.596 6.463,-0.088 12.624,-1.125 18.499,-3.099 5.679,-1.919 10.709,-4.598 15.062,-8.013 4.342,-3.401 7.697,-7.299 10.051,-11.679 2.433,-4.538 3.611,-9.28 3.543,-14.202 -0.067,-4.922 -1.373,-9.617 -3.926,-14.074 -2.473,-4.314 -5.934,-8.133 -10.365,-11.427 -4.445,-3.297 -9.547,-5.826 -15.275,-7.575 z"
         id="path2145" />
      <path
         inkscape:connector-curvature="0"
         style="fill:#f49c00"
         d="m 187.775,569.805 c -6.462,0.088 -12.623,1.125 -18.498,3.124 -5.681,1.905 -10.697,4.571 -15.038,7.986 -4.353,3.415 -7.72,7.326 -10.076,11.705 -2.433,4.525 -3.609,9.255 -3.543,14.177 0.067,4.921 1.372,9.629 3.926,14.1 2.475,4.314 5.947,8.12 10.393,11.402 4.431,3.295 9.518,5.836 15.249,7.599 5.926,1.813 12.114,2.684 18.576,2.596 6.463,-0.088 12.624,-1.125 18.499,-3.099 5.679,-1.919 10.709,-4.598 15.062,-8.013 4.342,-3.401 7.697,-7.299 10.051,-11.679 2.433,-4.538 3.611,-9.28 3.543,-14.202 -0.067,-4.922 -1.373,-9.617 -3.926,-14.074 -2.473,-4.314 -5.934,-8.133 -10.365,-11.427 -4.445,-3.297 -9.547,-5.826 -15.275,-7.575 -5.927,-1.84 -12.116,-2.709 -18.578,-2.62"
         id="path2147" />
      <path
         inkscape:connector-curvature="0"
         style="fill:#e83434"
         d="m 224.938,617.987 1.75,-3.939 c -17.364,10.654 -35.099,14.291 -53.229,10.907 -5.655,-1.045 -11.018,-2.748 -16.077,-5.096 -2.536,-1.154 -4.483,-2.198 -5.868,-3.158 3.861,10.21 11.372,17.186 22.548,20.911 3.501,1.167 7.169,1.926 10.972,2.307 l 4.652,0.223 c 11.955,-0.409 21.699,-4.891 29.249,-13.415 2.352,-2.657 4.362,-5.57 6.003,-8.74"
         id="path2149" />
      <path
         inkscape:connector-curvature="0"
         style="fill:#f092b1"
         d="m 188.856,624.962 c -0.079,0 -0.159,10e-4 -0.237,10e-4 -0.016,0 -0.049,0.003 -0.063,0.003 -0.017,0 -0.049,0.002 -0.064,0.002 -0.079,0 -0.158,0.001 -0.237,0.003 -2.709,0.035 -5.879,-0.08 -9.51,-0.35 0.671,2.681 1.472,4.643 2.392,5.873 1.614,2.141 4.114,3.188 7.505,3.126 3.468,-0.062 5.956,-1.179 7.478,-3.331 0.887,-1.254 1.635,-3.237 2.232,-5.935 -3.622,0.37 -6.787,0.571 -9.496,0.608"
         id="path2151" />
      <path
         inkscape:connector-curvature="0"
         style="fill:#f49c00"
         d="m 212.967,620.972 -2.726,-6.559 -38.968,0.531 -7.262,7.554 c 3.044,1.043 6.188,1.862 9.448,2.457 13.377,2.496 26.548,1.169 39.508,-3.983"
         id="path2153" />
      <path
         inkscape:connector-curvature="0"
         style="fill:#f3f3f3"
         d="m 160.858,593.062 c 1.579,-3.062 4.119,-5.421 7.634,-7.05 3.516,-1.613 6.959,-2.04 10.325,-1.263 3.367,0.79 5.689,2.548 6.939,5.259 1.251,2.738 1.096,5.639 -0.482,8.728 -1.577,3.064 -4.118,5.41 -7.634,7.025 -3.517,1.628 -6.957,2.065 -10.322,1.289 -3.368,-0.789 -5.69,-2.547 -6.941,-5.286 -1.277,-2.71 -1.108,-5.611 0.481,-8.702"
         id="path2155" />
      <path
         inkscape:connector-curvature="0"
         style="fill:#f3f3f3"
         d="m 215.565,592.177 c -1.658,-3.019 -4.262,-5.308 -7.821,-6.839 -3.558,-1.52 -7.01,-1.85 -10.355,-0.983 -3.344,0.883 -5.616,2.702 -6.793,5.446 -1.176,2.771 -0.942,5.666 0.718,8.713 1.66,3.02 4.263,5.296 7.823,6.814 3.559,1.529 7.01,1.874 10.356,1.007 3.343,-0.881 5.615,-2.7 6.792,-5.472 1.203,-2.744 0.954,-5.639 -0.72,-8.686"
         id="path2157" />
      <path
         inkscape:connector-curvature="0"
         d="m 204.52,590.891 c -1.098,-1.043 -2.385,-1.562 -3.886,-1.541 -1.501,0.021 -2.773,0.573 -3.842,1.646 -1.042,1.098 -1.561,2.396 -1.539,3.911 0.02,1.515 0.573,2.799 1.644,3.843 1.099,1.069 2.385,1.587 3.887,1.565 1.501,-0.021 2.772,-0.573 3.842,-1.671 1.042,-1.072 1.56,-2.37 1.54,-3.885 -0.021,-1.514 -0.574,-2.8 -1.646,-3.868"
         id="path2159" />
      <path
         inkscape:connector-curvature="0"
         d="m 179.61,591.224 c -1.099,-1.043 -2.385,-1.561 -3.886,-1.54 -1.501,0.021 -2.774,0.573 -3.843,1.646 -1.042,1.098 -1.56,2.397 -1.54,3.911 0.021,1.516 0.573,2.798 1.646,3.843 1.097,1.066 2.385,1.587 3.886,1.566 1.501,-0.021 2.772,-0.572 3.841,-1.673 1.044,-1.069 1.561,-2.37 1.542,-3.885 -0.022,-1.515 -0.575,-2.8 -1.646,-3.868"
         id="path2161" />
      <path
         inkscape:connector-curvature="0"
         style="fill:#e83827"
         d="m 188.053,597.888 c -3.303,0.044 -6.108,1.257 -8.412,3.639 -2.319,2.37 -3.454,5.204 -3.409,8.508 0.044,3.303 1.258,6.118 3.64,8.437 2.368,2.319 5.203,3.455 8.507,3.41 3.329,-0.045 6.132,-1.259 8.437,-3.64 2.317,-2.369 3.456,-5.206 3.41,-8.534 -0.045,-3.302 -1.259,-6.106 -3.64,-8.41 -2.382,-2.319 -5.232,-3.456 -8.533,-3.41"
         id="path2163" />
      <path
         inkscape:connector-curvature="0"
         d="m 206.819,548.604 c -1.582,-0.24 -3.435,-0.137 -5.531,0.309 -4.205,0.933 -7.307,3.143 -9.311,6.656 0.015,-2.782 -1.125,-5.012 -3.407,-6.69 -0.738,-0.526 -1.515,-0.948 -2.315,-1.251 -0.748,-0.289 -1.049,-0.363 -0.891,-0.222 1.394,2.711 0.691,5.775 -2.12,9.195 -1.154,-1.199 -1.536,-3.465 -1.163,-6.774 0.339,-2.94 0.76,-4.593 1.264,-4.926 -1.299,0.54 -2.605,1.407 -3.933,2.613 -2.644,2.398 -3.938,5.197 -3.883,8.383 -1.475,-1.953 -3.66,-3.241 -6.581,-3.88 -0.09,-0.013 0.759,0.941 2.548,2.864 1.949,2.271 3.123,4.097 3.52,5.487 -1.184,-1.604 -2.677,-3.032 -4.471,-4.3 -1.701,-1.166 -3.576,-1.78 -5.614,-1.857 -1.633,-0.068 -3.6,0.246 -5.89,0.917 -0.156,0.041 0.956,0.145 3.322,0.32 1.78,0.393 3.085,1.29 3.9,2.688 0.283,0.508 0.797,1.897 1.52,4.186 -0.477,-0.529 -1.02,-1.044 -1.639,-1.519 -1.122,-0.887 -2.333,-1.509 -3.629,-1.856 -1.218,-0.31 -2.604,-0.423 -4.131,-0.31 -0.051,0.014 0.91,0.652 2.899,1.918 2.057,1.448 3.235,2.567 3.545,3.347 -1.141,-0.311 -2.201,-0.504 -3.194,-0.583 -0.681,-0.043 -1.671,-0.029 -2.977,0.04 -2.936,0.106 -5.36,0.452 -7.245,1.014 -2.64,0.78 -4.79,2.089 -6.449,3.927 -0.116,0.119 0.457,-0.021 1.718,-0.417 0.715,-0.219 1.755,-0.559 3.12,-1.008 2.816,-0.234 4.291,-0.345 4.434,-0.347 1.67,-0.063 3.096,0.101 4.29,0.488 1.036,0.34 1.928,0.681 2.676,1.035 0.685,0.317 0.934,0.496 0.765,0.513 -1.772,-0.707 -4.926,-0.209 -9.459,1.512 -4.153,1.832 -6.19,2.735 -6.099,2.72 1.47,-0.345 3.165,-0.54 5.059,-0.563 1.252,-0.004 2.964,0.077 5.12,0.218 -1.739,1.708 -4.442,2.644 -8.108,2.799 -3.294,-0.177 -4.927,-0.26 -4.913,-0.221 2.17,2.1 4.017,3.563 5.543,4.392 2.092,1.134 4.423,1.676 6.995,1.603 1.762,-0.037 3.52,-0.362 5.288,-0.961 1.455,-0.502 3.024,-1.254 4.696,-2.231 l -0.98,0.902 c -2.528,2.317 -5.362,4.212 -8.514,5.678 -0.117,0.054 -0.155,0.132 -0.102,0.236 0.054,0.116 0.146,0.167 0.29,0.153 2.19,-0.305 4.423,-1.145 6.703,-2.52 1.179,-0.71 3.078,-2.094 5.713,-4.152 1.539,-1.184 2.78,-2.088 3.752,-2.688 1.451,-0.869 2.864,-1.514 4.229,-1.913 1.627,-0.478 3.455,-0.411 5.462,0.188 1.625,0.488 3.241,1.274 4.862,2.362 0.197,0.142 0.357,0.231 0.447,0.255 3.778,-1.604 6.013,-2.497 6.702,-2.701 2.328,-0.659 4.429,-0.676 6.317,-0.061 1.261,0.415 2.682,1.204 4.264,2.345 0.884,0.628 2.164,1.603 3.852,2.898 2.847,1.906 6.045,2.791 9.594,2.639 0.727,0.771 2.621,0.733 5.692,-0.104 1.053,-0.274 1.885,-0.548 2.495,-0.818 0.583,-0.281 0.518,-0.358 -0.213,-0.206 -0.976,0.21 -1.94,0.288 -2.92,0.248 1.209,-0.341 2.974,-1.043 5.273,-2.081 2.751,-1.277 4.368,-2.265 4.843,-2.963 -1.161,0.027 -2.469,-0.008 -3.92,-0.106 -2.914,-0.208 -5.089,-0.66 -6.519,-1.372 -0.935,-0.457 -1.959,-0.796 -3.097,-1.002 l 2.631,-0.611 c 1.183,-0.29 2.608,-1.12 4.275,-2.46 1.446,-1.155 2.169,-1.806 2.165,-1.963 0.568,-0.49 1.004,-1.018 1.31,-1.585 0.014,-0.038 -1.63,0.089 -4.931,0.382 -3.715,0.324 -6.247,0.345 -7.595,0.051 l -1.31,-0.27 0.884,-0.222 c 1.522,-0.385 3.151,-1.701 4.882,-3.931 1.488,-1.913 2.253,-3.203 2.299,-3.844 -1.496,0.556 -3.237,1.103 -5.253,1.614 -4.047,1.045 -7.284,1.207 -9.735,0.496 0.941,-0.065 2.264,-0.554 3.977,-1.465 1.853,-1.005 3.163,-1.571 3.945,-1.724 -1.934,-0.013 -3.473,0.007 -4.622,0.062 -2.075,0.095 -4.472,0.597 -7.213,1.482 2.224,-1.61 5.276,-2.853 9.168,-3.701 -5.457,-0.829 -9.374,-0.904 -11.728,-0.208 -2.133,0.617 -3.883,1.542 -5.237,2.763 0.178,-1.322 0.707,-2.647 1.617,-3.966 0.602,-0.844 1.866,-1.971 3.818,-3.368 1.798,-1.293 2.847,-1.961 3.159,-1.977"
         id="path2165" />
      <path
         inkscape:connector-curvature="0"
         d="m 188.042,576.318 c 0.039,-0.027 0.078,-0.054 0.116,-0.068 l -0.195,0.081 c 0.04,-10e-4 0.065,-10e-4 0.079,-0.013"
         id="path2167" />
    </g>
  </g>
</svg>
