<?xml version="1.0" encoding="UTF-8" standalone="no"?>
<!-- Created with Inkscape (http://www.inkscape.org/) -->

<svg
   xmlns:dc="http://purl.org/dc/elements/1.1/"
   xmlns:cc="http://creativecommons.org/ns#"
   xmlns:rdf="http://www.w3.org/1999/02/22-rdf-syntax-ns#"
   xmlns:svg="http://www.w3.org/2000/svg"
   xmlns="http://www.w3.org/2000/svg"
   version="1.1"
   width="290"
   height="256"
   id="svg5089">
  <defs
     id="defs5091" />
  <metadata
     id="metadata5094">
    <rdf:RDF>
      <cc:Work
         rdf:about="">
        <dc:format>image/svg+xml</dc:format>
        <dc:type
           rdf:resource="http://purl.org/dc/dcmitype/StillImage" />
        <dc:title></dc:title>
      </cc:Work>
    </rdf:RDF>
  </metadata>
  <g
     transform="translate(0,-224)"
     id="layer1">
    <g
       transform="translate(-520.48235,-271.74985)"
       id="g203">
      <path
         d="m 687.804,665.992 c 0.036,-0.01 0.069,-0.003 0.105,-0.014 0.196,-1.534 0.827,-3.537 1.912,-5.988 1.385,-3.204 2.781,-5.49 4.203,-6.839 1.648,-1.631 3.229,-2.377 4.707,-2.245 1.441,0.057 2.788,0.596 4.026,1.599 l -0.012,-0.02 c 1.358,1.095 1.984,2.496 1.839,4.213 -0.019,0.101 -0.038,0.199 -0.054,0.283 -0.04,0.113 -0.06,0.214 -0.1,0.326 0.508,-0.385 1.052,-0.78 1.651,-1.198 3.46,-2.404 6.356,-2.721 8.658,-0.958 2.4,1.696 3.216,3.981 2.438,6.821 -0.177,0.64 -0.388,1.272 -0.643,1.879 0.019,-0.013 0.055,-0.023 0.088,-0.017 1.552,-0.251 2.61,0.18 3.175,1.275 2.229,2.751 1.955,5.93 -0.839,9.534 1.055,0.172 1.941,1.035 2.637,2.606 1.325,2.868 0.707,5.323 -1.845,7.332 -0.671,0.51 -1.365,0.979 -2.123,1.402 -1.705,0.945 -3.655,1.638 -5.836,2.094 -3.348,0.678 -6.482,0.706 -9.387,0.088 -4.46,-0.974 -8.376,-3.5 -11.782,-7.57 -0.054,0.008 -0.09,0.018 -0.126,0.027 -0.038,-0.076 -0.075,-0.152 -0.145,-0.234 -0.087,-0.174 -0.194,-0.334 -0.316,-0.512 -0.057,-0.062 -0.109,-0.144 -0.149,-0.203 -0.141,-0.252 -0.266,-0.501 -0.388,-0.766 -0.134,-0.286 -0.271,-0.555 -0.379,-0.802 -0.571,-1.233 -0.896,-2.231 -0.977,-2.972 -0.052,-0.356 -0.137,-0.892 -0.271,-1.627 -0.046,-0.199 -0.078,-0.396 -0.115,-0.558 -0.021,-0.16 -0.027,-0.299 -0.052,-0.443 -0.108,-0.781 -0.151,-1.532 -0.127,-2.271 -0.013,-0.295 -0.024,-0.593 -0.035,-0.888 -0.002,-0.174 -0.002,-0.347 0.011,-0.501 0.012,-0.411 0.04,-0.82 0.085,-1.228 0.047,-0.422 0.085,-0.795 0.098,-1.12 10e-4,-0.018 10e-4,-0.018 0.007,-0.034 0.035,-0.184 0.051,-0.354 0.056,-0.474 h 0.005 z m 3.041,-0.444 c -0.098,0.413 -0.188,0.794 -0.271,1.124 -0.067,0.35 -0.105,0.636 -0.134,0.872 -0.007,0.12 -0.029,0.237 -0.027,0.322 -0.01,0.224 0.01,0.384 0.061,0.48 -0.019,0.011 -0.053,0.006 -0.073,0.02 -0.025,0.134 -0.065,0.332 -0.104,0.619 0.012,0.122 0.015,0.279 0.019,0.437 0.079,2.521 0.116,3.929 0.146,4.211 0.029,0.473 0.313,1.411 0.847,2.845 0.1,0.279 0.188,0.539 0.293,0.8 0.07,0.17 0.146,0.323 0.205,0.456 0.036,-0.012 0.073,-0.021 0.109,-0.03 0.054,0.079 0.107,0.159 0.164,0.222 0.219,0.302 0.439,0.587 0.66,0.873 0.194,0.245 0.388,0.49 0.602,0.722 -0.017,-0.004 -0.049,-0.01 -0.069,0.004 0.355,0.396 0.715,0.762 1.077,1.125 0.274,0.279 0.564,0.562 0.855,0.841 4.346,4.046 9.497,5.466 15.456,4.242 2.142,-0.429 4.027,-1.151 5.675,-2.144 0.002,-0.017 0.002,-0.017 0.019,-0.014 0.416,-0.265 0.813,-0.532 1.198,-0.82 0.669,-0.51 1.176,-0.981 1.538,-1.411 0.594,-0.748 0.757,-1.408 0.488,-1.979 -0.087,-0.174 -0.157,-0.344 -0.25,-0.499 -0.371,-0.66 -0.79,-1.174 -1.272,-1.527 -0.891,-0.675 -1.982,-0.836 -3.264,-0.464 -0.847,0.439 -1.591,0.796 -2.218,1.089 -0.02,0.013 -0.036,0.011 -0.057,0.023 -0.588,0.266 -1.078,0.481 -1.488,0.626 0.272,-0.153 0.587,-0.352 0.962,-0.591 0.12,-0.081 0.238,-0.161 0.362,-0.257 0.036,-0.011 0.076,-0.038 0.1,-0.067 1.261,-0.878 2.37,-1.871 3.354,-3.011 1.706,-1.933 2.566,-3.684 2.564,-5.257 -0.007,-0.951 -0.319,-1.825 -0.943,-2.62 -0.062,-0.116 -0.147,-0.219 -0.231,-0.322 -0.642,-0.695 -1.732,-0.685 -3.304,0.013 -0.471,0.201 -1.01,0.478 -1.579,0.832 -2.822,2.061 -4.524,3.249 -5.108,3.586 1.539,-1.411 2.844,-2.696 3.876,-3.826 1.147,-1.28 1.984,-2.378 2.529,-3.31 0.623,-1.069 0.972,-2.058 1.045,-2.958 0.105,-1.348 -0.413,-2.502 -1.534,-3.481 -0.179,-0.154 -0.357,-0.295 -0.556,-0.438 -1.048,-0.739 -3.045,-0.16 -6.028,1.764 -2.719,1.786 -4.302,3.172 -4.72,4.162 0.169,-0.78 0.295,-1.516 0.348,-2.231 0.07,-0.8 0.066,-1.577 0.02,-2.312 -0.019,-0.177 -0.035,-0.352 -0.056,-0.512 -0.057,-0.512 -0.138,-0.979 -0.25,-1.381 -0.438,-1.484 -1.301,-2.275 -2.591,-2.407 -0.103,-0.002 -0.207,-0.004 -0.292,-0.004 -2.23,-0.004 -4.353,2.194 -6.367,6.589 -0.771,1.647 -1.372,3.311 -1.784,4.978 v -0.004 z m 8.13,-11.899 c -0.12,-0.005 -0.237,-0.027 -0.355,-0.033 -0.175,10e-4 -0.354,0.033 -0.536,0.086 0.302,-0.046 0.597,-0.057 0.891,-0.053"
         id="path205"
         style="fill:#9e0c27" />
      <path
         d="m 690.573,666.672 c 0.083,-0.33 0.174,-0.711 0.271,-1.124 0.413,-1.665 1.014,-3.328 1.785,-4.976 2.015,-4.395 4.137,-6.593 6.366,-6.588 0.086,0 0.19,10e-4 0.293,0.003 1.289,0.132 2.153,0.923 2.591,2.407 0.112,0.402 0.193,0.866 0.25,1.382 0.021,0.159 0.037,0.334 0.056,0.511 0.047,0.735 0.051,1.513 -0.02,2.312 -0.053,0.716 -0.179,1.451 -0.348,2.231 0.418,-0.99 2.001,-2.376 4.717,-4.162 2.986,-1.924 4.983,-2.503 6.031,-1.764 0.198,0.143 0.377,0.281 0.555,0.438 1.122,0.979 1.642,2.134 1.535,3.479 -0.073,0.902 -0.422,1.889 -1.045,2.96 -0.545,0.932 -1.382,2.029 -2.529,3.31 -1.032,1.13 -2.338,2.414 -3.876,3.826 0.584,-0.337 2.286,-1.525 5.108,-3.586 0.569,-0.354 1.108,-0.631 1.579,-0.832 1.571,-0.697 2.662,-0.708 3.304,-0.013 0.084,0.104 0.169,0.206 0.231,0.322 0.625,0.795 0.937,1.669 0.942,2.62 0.003,1.573 -0.857,3.325 -2.563,5.256 -0.983,1.141 -2.093,2.134 -3.354,3.012 -0.022,0.029 -0.062,0.058 -0.099,0.067 -0.124,0.096 -0.242,0.176 -0.362,0.257 -0.375,0.239 -0.688,0.438 -0.962,0.591 0.41,-0.145 0.9,-0.36 1.488,-0.626 0.02,-0.013 0.037,-0.011 0.057,-0.023 0.627,-0.293 1.371,-0.649 2.218,-1.089 1.281,-0.372 2.373,-0.211 3.264,0.464 0.482,0.354 0.901,0.867 1.273,1.527 0.092,0.155 0.162,0.325 0.249,0.499 0.269,0.57 0.105,1.23 -0.488,1.979 -0.362,0.43 -0.869,0.901 -1.537,1.412 -0.386,0.287 -0.783,0.555 -1.199,0.819 -0.017,-0.003 -0.017,-0.003 -0.019,0.013 -1.647,0.993 -3.532,1.716 -5.675,2.145 -5.959,1.224 -11.11,-0.196 -15.457,-4.242 -0.29,-0.279 -0.58,-0.562 -0.854,-0.841 -0.362,-0.363 -0.722,-0.729 -1.077,-1.125 0.021,-0.014 0.053,-0.008 0.069,-0.004 -0.214,-0.231 -0.407,-0.477 -0.602,-0.722 -0.221,-0.286 -0.441,-0.571 -0.66,-0.873 -0.057,-0.062 -0.11,-0.143 -0.164,-0.222 -0.036,0.01 -0.073,0.019 -0.109,0.031 -0.061,-0.134 -0.135,-0.287 -0.205,-0.457 -0.104,-0.261 -0.193,-0.521 -0.293,-0.8 -0.533,-1.434 -0.817,-2.372 -0.847,-2.845 -0.03,-0.282 -0.067,-1.689 -0.146,-4.211 -0.004,-0.157 -0.007,-0.314 -0.019,-0.437 0.038,-0.287 0.078,-0.485 0.104,-0.619 0.021,-0.014 0.054,-0.009 0.073,-0.02 -0.051,-0.097 -0.07,-0.257 -0.062,-0.48 -10e-4,-0.086 0.021,-0.202 0.028,-0.322 0.029,-0.234 0.067,-0.521 0.134,-0.87"
         id="path207"
         style="fill:#d82d1c" />
      <path
         d="m 668.19,653.13 c 0.068,0.395 0.155,0.771 0.24,1.166 0.067,0.308 0.137,0.617 0.223,0.942 1.61,6.568 4.631,11.097 9.072,13.584 h -0.018 c 3.517,2.04 7.753,2.709 12.744,1.972 0,-0.309 0,-0.601 0.017,-0.875 0.017,-0.308 0.017,-0.6 0.033,-0.858 0.018,-0.395 0.053,-0.736 0.087,-1.062 -4.512,0.736 -8.354,0.206 -11.508,-1.562 -4.202,-2.452 -6.928,-7.064 -8.198,-13.822 l -0.257,-1.339 -2.692,0.515 0.257,1.339 z"
         id="path209"
         style="fill:#9e0c27" />
      <path
         d="m 668.653,655.238 c -0.086,-0.325 -0.155,-0.635 -0.223,-0.942 -0.532,0.617 -1.338,1.816 -2.385,3.584 -1.251,2.127 -2.144,3.841 -2.675,5.146 l 0.188,1.097 c 0.052,0.31 0.119,0.617 0.189,0.927 0.565,2.469 1.628,4.802 3.224,7.015 1.87,2.588 4.22,4.664 7.049,6.226 3.053,1.697 6.397,2.606 10.016,2.727 3.121,0.119 6.311,-0.36 9.587,-1.423 0.154,0.17 0.36,0.377 0.601,0.634 0.017,0.017 0.052,0.052 0.085,0.086 0.155,0.171 0.395,0.412 0.755,0.738 0.549,-0.311 1.028,-0.858 1.423,-1.665 0.327,-0.634 0.55,-1.304 0.67,-2.006 0,-0.155 -0.103,-0.944 -0.31,-2.367 -0.258,-1.663 -0.395,-2.642 -0.428,-2.933 -0.052,-0.395 -0.344,-0.858 -0.892,-1.355 -0.602,-0.547 -1.235,-0.892 -1.939,-1.046 -1.184,-0.29 -1.921,-0.446 -2.195,-0.497 -0.342,-0.052 -0.634,-0.103 -0.892,-0.121 -0.017,0.259 -0.017,0.551 -0.033,0.858 -0.017,0.274 -0.017,0.566 -0.017,0.875 -4.991,0.737 -9.228,0.068 -12.744,-1.972 h 0.018 c -4.441,-2.489 -7.459,-7.017 -9.072,-13.586"
         id="path211"
         style="fill:#d82d1c" />
      <path
         d="m 695.511,681.444 c -0.154,-0.154 -0.31,-0.274 -0.446,-0.396 -0.36,-0.324 -0.6,-0.565 -0.755,-0.736 -0.033,-0.034 -0.068,-0.069 -0.085,-0.086 -0.24,-0.259 -0.446,-0.464 -0.601,-0.636 -3.276,1.064 -6.466,1.544 -9.587,1.425 -3.618,-0.12 -6.963,-1.029 -10.016,-2.727 -2.829,-1.562 -5.179,-3.638 -7.049,-6.226 -1.596,-2.213 -2.658,-4.546 -3.224,-7.016 -0.07,-0.309 -0.138,-0.616 -0.189,-0.926 l -0.188,-1.097 -0.034,-0.258 -2.71,0.463 0.223,1.354 c 0.55,3.206 1.852,6.242 3.894,9.089 2.109,2.916 4.767,5.249 7.957,7.017 3.431,1.902 7.169,2.914 11.234,3.069 3.858,0.153 7.819,-0.532 11.866,-2.023 -0.085,-0.085 -0.188,-0.187 -0.29,-0.29"
         id="path213"
         style="fill:#9e0c27" />
      <path
         d="m 628.093,684.154 h -0.017 c -3.242,-1.424 -7.066,-1.236 -11.508,0.6 -4.511,1.835 -8.747,5.077 -12.708,9.707 -3.603,4.201 -6.174,8.37 -7.719,12.468 -2.04,5.368 -1.92,9.725 0.327,13.086 1.405,2.247 3.687,3.43 6.859,3.55 2.692,0.12 5.712,-0.617 9.038,-2.229 3.275,-1.596 6.328,-3.79 9.192,-6.62 2.829,-2.795 5.128,-5.883 6.895,-9.261 1.201,1.012 2.417,1.818 3.671,2.4 v 0.019 c 3.068,1.456 6.276,1.681 9.638,0.669 h 0.017 c 4.94,-1.391 8.422,-6.278 10.428,-14.664 -0.034,-1.27 -0.154,-2.47 -0.36,-3.62 -0.052,-0.239 -0.085,-0.462 -0.103,-0.668 l -0.687,-0.137 c -0.257,0.754 -0.497,1.476 -0.737,2.144 -0.153,0.445 -0.325,0.875 -0.479,1.286 -0.207,0.532 -0.412,1.047 -0.602,1.51 -1.748,6.414 -4.51,10.255 -8.266,11.524 -2.676,0.789 -5.23,0.617 -7.683,-0.531 h 0.017 c -2.11,-1.013 -4.185,-2.761 -6.208,-5.23 l -0.875,-1.062 -2.11,1.73 0.858,1.063 c 0.463,0.566 0.927,1.098 1.406,1.595 -1.682,3.413 -3.928,6.5 -6.74,9.279 -2.623,2.589 -5.453,4.63 -8.472,6.104 -2.847,1.391 -5.419,2.041 -7.719,1.955 h -0.017 c -2.126,-0.067 -3.669,-0.839 -4.647,-2.297 h -0.018 c -1.68,-2.728 -1.697,-6.277 -0.051,-10.615 1.457,-3.843 3.859,-7.736 7.237,-11.664 3.636,-4.27 7.529,-7.254 11.661,-8.951 3.618,-1.492 6.757,-1.698 9.399,-0.617 3.292,1.438 6.499,4.491 9.621,9.175 0.188,0.258 0.429,0.446 0.755,0.548 0.308,0.086 0.617,0.069 0.926,-0.051 0.292,-0.137 0.531,-0.36 0.687,-0.652 0.908,-1.835 1.853,-3.858 2.795,-6.07 0.052,-0.273 0.086,-0.532 0.104,-0.789 0.067,-0.566 0.12,-1.099 0.153,-1.561 0.017,-0.223 0.017,-0.412 0.017,-0.6 0.07,-0.704 0.139,-1.322 0.189,-1.87 l -0.601,-0.241 c -0.24,0.464 -0.515,0.979 -0.822,1.562 -0.687,1.286 -1.253,2.213 -1.716,2.795 -0.531,1.219 -1.063,2.367 -1.561,3.466 -3.069,-4.137 -6.222,-6.879 -9.464,-8.235"
         id="path215"
         style="fill:#9e0c27" />
      <path
         d="m 641.899,688.836 c -0.018,0.257 -0.052,0.516 -0.103,0.789 -0.943,2.212 -1.888,4.235 -2.796,6.07 -0.155,0.292 -0.395,0.516 -0.687,0.652 -0.309,0.12 -0.617,0.137 -0.926,0.051 -0.326,-0.102 -0.565,-0.291 -0.755,-0.548 -3.122,-4.684 -6.329,-7.736 -9.621,-9.175 -2.641,-1.081 -5.781,-0.875 -9.398,0.617 -4.133,1.697 -8.026,4.682 -11.662,8.951 -3.378,3.928 -5.779,7.82 -7.236,11.664 -1.646,4.338 -1.629,7.888 0.051,10.615 h 0.017 c 0.979,1.458 2.521,2.229 4.647,2.297 h 0.018 c 2.299,0.086 4.871,-0.566 7.718,-1.955 3.019,-1.475 5.849,-3.516 8.472,-6.104 2.812,-2.779 5.06,-5.866 6.741,-9.279 -0.48,-0.497 -0.944,-1.028 -1.407,-1.595 l -0.857,-1.063 2.109,-1.731 0.875,1.063 c 2.023,2.47 4.099,4.218 6.208,5.23 h -0.017 c 2.452,1.148 5.008,1.32 7.683,0.531 3.756,-1.27 6.518,-5.11 8.267,-11.524 0.188,-0.463 0.394,-0.978 0.601,-1.509 0.155,-0.412 0.326,-0.842 0.479,-1.287 -0.257,-0.24 -0.616,-0.532 -1.08,-0.856 -1.012,-0.722 -2.144,-1.407 -3.396,-2.042 -1.697,-0.874 -2.968,-1.338 -3.79,-1.423 -0.034,0.462 -0.087,0.995 -0.155,1.561"
         id="path217"
         style="fill:#d82d1c" />
      <path
         d="m 659.454,639.523 c -7.932,-2.85 -13.758,-3.091 -17.464,-0.759 -3.621,2.146 -7.056,5.395 -10.307,9.764 -3.128,4.176 -5.836,7.992 -8.104,11.44 -5.487,7.371 -6.116,15.042 -1.884,23.009 l 0.01,0.022 c 3.736,7.01 9.844,12.118 18.327,15.31 8.848,3.342 16.51,3.076 22.968,-0.804 7.594,-4.401 11.453,-12.974 11.582,-25.714 0.04,-3.425 -0.152,-7.166 -0.586,-11.195 -0.565,-5.605 -1.14,-9.702 -1.714,-12.272 -0.483,-2.972 -4.751,-5.898 -12.828,-8.801"
         id="path219"
         style="fill:#9e0c27" />
      <path
         d="m 736.076,598.876 c -1.576,-6.7 -4.75,-13.214 -9.559,-19.538 -2.675,-3.531 -5.977,-6.801 -9.926,-9.852 0.704,-0.162 1.157,-0.301 1.34,-0.404 4.471,-2.44 7.512,-6.153 9.112,-11.142 1.627,-4.96 1.357,-9.728 -0.8,-14.318 -2.165,-4.576 -5.568,-7.603 -10.231,-9.127 -4.676,-1.491 -9.242,-1.006 -13.697,1.459 -1.578,0.876 -2.989,1.901 -4.211,3.085 -0.352,-1.601 -0.945,-3.191 -1.771,-4.752 -2.461,-4.679 -6.243,-7.838 -11.32,-9.505 -5.086,-1.635 -9.999,-1.269 -14.735,1.099 -4.749,2.345 -7.94,6.006 -9.573,10.981 -0.957,2.976 -1.191,5.888 -0.691,8.758 -1.278,-0.092 -2.547,-0.162 -3.811,-0.193 -8.771,-0.232 -16.964,0.807 -24.55,3.129 -7.602,2.314 -13.908,5.689 -18.926,10.141 -5.016,4.451 -8.62,9.889 -10.827,16.311 -2.208,6.422 -2.581,13.092 -1.107,19.978 1.474,6.886 4.598,13.493 9.375,19.806 4.805,6.34 10.82,12.011 18.076,16.982 7.513,5.137 15.821,9.201 24.906,12.146 9.102,2.953 18.21,4.557 27.333,4.784 8.802,0.241 16.996,-0.797 24.581,-3.119 7.586,-2.322 13.98,-5.738 19.214,-10.226 5.383,-4.656 9.103,-10.165 11.162,-16.528 2.057,-6.363 2.275,-13.015 0.636,-19.955"
         id="path221"
         style="fill:#d82d1c" />
      <path
         d="m 726.518,579.338 c -2.675,-3.531 -5.977,-6.801 -9.926,-9.852 0.704,-0.162 1.156,-0.301 1.341,-0.404 4.47,-2.44 7.511,-6.153 9.111,-11.14 1.627,-4.962 1.357,-9.729 -0.8,-14.32 -2.165,-4.576 -5.568,-7.603 -10.23,-9.127 -4.677,-1.491 -9.243,-1.006 -13.698,1.459 -1.578,0.876 -2.989,1.901 -4.211,3.085 -0.352,-1.601 -0.945,-3.191 -1.772,-4.752 -2.461,-4.678 -6.242,-7.838 -11.318,-9.505 -5.087,-1.635 -9.999,-1.269 -14.736,1.099 -4.749,2.345 -7.94,6.006 -9.573,10.981 -0.958,2.976 -1.19,5.888 -0.69,8.758 -1.279,-0.092 -2.548,-0.162 -3.812,-0.193 -8.77,-0.232 -16.964,0.808 -24.55,3.129 -7.602,2.315 -13.908,5.689 -18.926,10.141 -5.016,4.45 -8.62,9.889 -10.827,16.311 -2.208,6.422 -2.581,13.093 -1.108,19.978 1.476,6.886 4.6,13.493 9.375,19.806 4.806,6.34 10.821,12.011 18.077,16.983 7.513,5.136 15.821,9.2 24.906,12.146 9.102,2.953 18.21,4.557 27.333,4.784 8.802,0.241 16.996,-0.797 24.581,-3.117 7.586,-2.322 13.98,-5.74 19.214,-10.227 5.383,-4.657 9.103,-10.166 11.162,-16.529 2.057,-6.362 2.275,-13.013 0.637,-19.954 -1.578,-6.702 -4.752,-13.216 -9.56,-19.54 z"
         id="path223"
         style="fill:none;stroke:#9e0c27;stroke-width:2.79299998;stroke-miterlimit:10" />
      <path
         d="m 717.244,567.976 c 4.164,-2.251 7.021,-5.695 8.594,-10.342 1.519,-4.646 1.329,-9.109 -0.568,-13.39 -1.937,-4.273 -5.016,-7.115 -9.265,-8.552 -4.279,-1.464 -8.451,-1.101 -12.558,1.098 -2.646,1.393 -4.781,3.294 -6.385,5.676 -0.067,-2.519 -0.685,-5.005 -1.875,-7.432 -2.16,-4.426 -5.586,-7.442 -10.27,-9.066 -4.686,-1.624 -9.242,-1.375 -13.696,0.759 -4.437,2.138 -7.465,5.541 -9.076,10.192 -1.614,4.651 -1.336,9.181 0.824,13.607 2.178,4.432 5.598,7.465 10.281,9.089 4.603,1.595 9.076,1.373 13.44,-0.66 3.334,1.043 6.277,1.769 8.851,2.182 1.881,3.902 4.874,6.565 8.959,8.001 4.294,1.47 8.545,1.094 12.744,-1.162"
         id="path225"
         style="fill:#ffffff" />
      <path
         d="m 695.524,544.426 c -0.818,-2.584 -2.388,-4.432 -4.711,-5.582 -2.341,-1.155 -4.753,-1.267 -7.249,-0.34 -2.504,0.944 -4.328,2.648 -5.509,5.118 -1.183,2.47 -1.366,4.979 -0.565,7.556 0.818,2.585 2.389,4.433 4.713,5.583 2.325,1.149 4.721,1.255 7.218,0.328 2.499,-0.928 4.321,-2.632 5.508,-5.118 1.198,-2.465 1.397,-4.967 0.595,-7.545"
         id="path227"
         style="fill:#282525" />
      <path
         d="m 721.509,551.438 c -0.769,-2.566 -2.275,-4.394 -4.521,-5.517 -2.264,-1.129 -4.604,-1.216 -7.041,-0.267 -2.44,0.965 -4.229,2.682 -5.401,5.154 -1.173,2.474 -1.377,4.974 -0.623,7.536 0.77,2.566 2.275,4.394 4.523,5.516 2.248,1.125 4.574,1.206 7.01,0.257 2.436,-0.948 4.224,-2.664 5.401,-5.154 1.187,-2.468 1.406,-4.962 0.652,-7.525"
         id="path229"
         style="fill:#282525" />
      <path
         d="m 702.583,608.421 c -5.553,-1.026 -11.067,-2.291 -16.506,-3.817 -5.437,-1.525 -10.837,-3.325 -16.216,-5.439 -5.379,-2.113 -10.758,-5.098 -16.121,-8.964 l -6.182,-5.095 c -3.145,18.909 1.993,32.553 15.417,40.965 3.922,2.481 8.389,4.354 13.369,5.607 0.04,0.012 0.066,0.02 0.093,0.026 4.882,1.547 9.729,2.319 14.514,2.311 16.326,0.038 29.155,-8.504 38.509,-25.651 l -8.288,0.985 c -6.843,0.401 -13.036,0.098 -18.589,-0.928"
         id="path231"
         style="fill:#282525" />
      <path
         d="m 686.097,603.26 -0.012,0.032 c 0.099,0.01 0.156,0.008 0.168,0.013 l -0.156,-0.045 z"
         id="path233"
         style="fill:#282525" />
      <path
         d="m 679.063,565.767 c -2.465,4.652 -2.982,9.598 -1.595,14.843 1.42,5.255 4.354,9.278 8.817,12.075 4.453,2.776 9.11,3.502 13.992,2.169 4.885,-1.293 8.562,-4.273 11.027,-8.928 2.463,-4.65 2.986,-9.613 1.574,-14.885 -1.389,-5.245 -4.328,-9.254 -8.798,-12.032 -4.447,-2.792 -9.114,-3.541 -14.011,-2.214 -4.88,1.333 -8.542,4.319 -11.006,8.972"
         id="path235"
         style="fill:#e78c00" />
      <path
         d="m 651.148,638.178 c -0.987,0.067 -1.935,0.274 -2.831,0.646 -0.956,0.386 -1.968,0.824 -3.04,1.333 -0.637,0.301 -1.167,0.566 -1.556,0.791 -0.11,0.052 -0.219,0.104 -0.335,0.172 -3.331,1.993 -6.499,5.011 -9.505,9.048 -3.123,4.161 -5.803,7.951 -8.059,11.366 -0.022,0.01 -0.034,0.042 -0.045,0.074 -4.791,6.439 -5.344,13.136 -1.661,20.089 3.456,6.418 9.08,11.1 16.886,14.05 7.934,2.996 14.809,2.795 20.602,-0.595 6.707,-4.062 10.128,-11.863 10.243,-23.391 0.041,-3.331 -0.151,-6.966 -0.572,-10.882 -0.452,-4.289 -0.878,-7.68 -1.307,-10.144 0.021,-0.52 -0.052,-1.235 -0.216,-2.15 -0.29,-1.377 -0.448,-2.161 -0.466,-2.366 -0.112,-0.55 -0.217,-0.97 -0.319,-1.243 -0.169,-0.496 -0.56,-0.98 -1.146,-1.428 -1.578,-1.235 -5.31,-2.913 -11.235,-5.01 -2.316,-0.338 -4.129,-0.456 -5.438,-0.36 m 3.387,1.063 0.286,0.012 -0.028,0.081 c -0.08,-0.029 -0.177,-0.063 -0.258,-0.093"
         id="path237"
         style="fill:#d82d1c" />
      <path
         d="m 638.092,686.641 c -1.973,0.43 -3.653,1.029 -5.043,1.783 -1.045,0.564 -1.749,1.132 -2.074,1.698 l 0.034,0.034 c 0.206,0.206 0.429,0.429 0.651,0.67 0.789,0.771 1.766,1.697 2.916,2.76 0.634,0.634 1.972,2.075 4.047,4.322 0.086,0.104 0.188,0.206 0.292,0.292 1.749,1.955 3.738,4.219 5.969,6.774 6.79,7.82 10.411,11.954 10.872,12.416 0.31,0.31 0.979,1.03 2.007,2.144 0.635,0.687 1.167,1.201 1.578,1.544 h 0.017 c 1.047,0.823 2.366,1.252 3.997,1.286 h 0.017 c 2.229,0.051 4.99,-0.704 8.283,-2.246 3.704,-1.768 7.254,-4.169 10.651,-7.204 4.029,-3.617 6.878,-7.752 8.506,-12.364 v -0.018 c 0.737,-2.075 1.046,-3.927 0.942,-5.558 v -0.016 c -0.086,-1.493 -0.565,-2.659 -1.439,-3.464 -1.423,-1.253 -3.328,-1.836 -5.678,-1.749 -2.487,0.085 -5.127,0.857 -7.923,2.295 -2.967,1.512 -5.693,3.568 -8.181,6.159 -0.428,0.429 -0.84,0.874 -1.234,1.32 -0.979,0.926 -1.854,1.853 -2.642,2.761 -0.721,0.841 -1.167,1.457 -1.321,1.852 -0.359,0.43 -0.686,0.858 -1.012,1.286 -0.874,1.185 -1.475,2.18 -1.8,2.986 l -0.532,-0.24 c 0.034,-0.292 0.051,-0.549 0.051,-0.772 0,-0.515 -0.068,-0.858 -0.222,-1.029 -0.053,-0.052 -0.086,-0.087 -0.138,-0.103 0.018,-0.052 0.052,-0.086 0.068,-0.138 l -0.171,-0.24 c -0.43,-0.601 -2.762,-3.259 -6.964,-7.94 -2.109,-2.349 -3.841,-4.27 -5.196,-5.796 -0.909,-1.631 -1.542,-2.795 -1.868,-3.5 -0.069,-0.12 -0.138,-0.257 -0.207,-0.377 -0.359,-0.635 -0.703,-1.234 -0.994,-1.766 -0.326,-0.138 -0.737,-0.24 -1.235,-0.292 -1.354,-0.153 -3.018,-0.016 -5.024,0.43 m 4.973,0.463 0.085,0.189 -0.137,-0.155 0.052,-0.034 z"
         id="path239"
         style="fill:#d82d1c" />
      <polygon
         points="643.014,687.138 643.15,687.293 643.065,687.104 "
         id="polygon241"
         style="fill:#9e0c27" />
      <path
         d="m 628.521,691.408 1.013,0.926 c 2.418,2.246 6.843,7.05 13.275,14.441 6.876,7.905 10.547,12.09 11.01,12.554 0.292,0.291 0.943,0.978 1.92,2.058 l 0.018,0.016 c 0.737,0.808 1.372,1.406 1.87,1.803 v 0.017 c 1.458,1.201 3.344,1.836 5.658,1.887 2.592,0.086 5.764,-0.738 9.536,-2.504 3.928,-1.869 7.701,-4.408 11.319,-7.649 4.391,-3.963 7.477,-8.455 9.262,-13.497 0.875,-2.486 1.253,-4.699 1.099,-6.672 -0.139,-2.314 -0.928,-4.099 -2.368,-5.333 h 0.017 c -1.903,-1.749 -4.424,-2.572 -7.597,-2.452 -2.864,0.085 -5.883,0.961 -9.09,2.606 -3.224,1.647 -6.192,3.876 -8.901,6.689 -2.126,2.178 -3.927,4.562 -5.419,7.151 -1.063,-1.252 -3.224,-3.705 -6.483,-7.341 -2.144,-2.385 -3.894,-4.339 -5.247,-5.865 -0.36,-0.224 -0.978,-0.738 -1.887,-1.562 -1.013,-0.943 -1.783,-1.697 -2.281,-2.246 -0.24,-0.223 -0.462,-0.446 -0.687,-0.634 l -0.41,0.36 c 0.067,0.12 0.136,0.223 0.205,0.343 0.291,0.531 0.635,1.131 0.994,1.766 0.07,0.12 0.138,0.257 0.206,0.377 0.326,0.705 0.96,1.869 1.869,3.5 1.355,1.526 3.087,3.447 5.196,5.796 4.202,4.683 6.534,7.34 6.965,7.94 l 0.17,0.24 c -0.017,0.052 -0.051,0.086 -0.068,0.138 0.052,0.016 0.085,0.051 0.138,0.103 0.153,0.171 0.222,0.515 0.222,1.029 0,0.224 -0.017,0.48 -0.051,0.772 l 0.532,0.24 c 0.325,-0.807 0.926,-1.802 1.8,-2.986 0.326,-0.428 0.652,-0.856 1.013,-1.286 0.153,-0.395 0.6,-1.011 1.32,-1.852 0.788,-0.908 1.663,-1.835 2.642,-2.761 0.395,-0.446 0.805,-0.892 1.234,-1.32 2.487,-2.591 5.214,-4.647 8.181,-6.158 2.796,-1.438 5.436,-2.211 7.923,-2.296 2.35,-0.087 4.255,0.496 5.678,1.749 0.874,0.805 1.354,1.971 1.439,3.464 v 0.016 c 0.104,1.631 -0.205,3.482 -0.942,5.558 v 0.018 c -1.628,4.612 -4.477,8.747 -8.506,12.364 -3.397,3.035 -6.947,5.437 -10.651,7.204 -3.293,1.542 -6.054,2.297 -8.283,2.246 h -0.017 c -1.631,-0.034 -2.95,-0.463 -3.997,-1.286 h -0.017 c -0.411,-0.343 -0.943,-0.856 -1.578,-1.544 -1.029,-1.113 -1.697,-1.834 -2.007,-2.144 -0.462,-0.461 -4.082,-4.596 -10.872,-12.416 -2.23,-2.556 -4.22,-4.819 -5.968,-6.774 -0.104,-0.086 -0.207,-0.188 -0.294,-0.292 -2.074,-2.247 -3.412,-3.688 -4.046,-4.322 -1.15,-1.062 -2.128,-1.989 -2.916,-2.76 -0.223,-0.241 -0.445,-0.464 -0.651,-0.67 -0.019,-0.017 -0.019,-0.017 -0.034,-0.034 -0.224,-0.24 -0.446,-0.463 -0.635,-0.686 l -1.821,1.971 z"
         id="path243"
         style="fill:#9e0c27" />
      <path
         d="m 629.634,658.114 c -0.023,0.029 -0.055,0.044 -0.079,0.072 0.716,1.372 1.34,3.379 1.852,6.011 0.693,3.424 0.852,6.101 0.454,8.019 -0.422,2.283 -1.294,3.798 -2.584,4.534 -1.217,0.777 -2.631,1.103 -4.221,0.989 l 0.022,0.007 c -1.743,-0.122 -3.058,-0.916 -3.919,-2.409 -0.042,-0.094 -0.084,-0.187 -0.117,-0.264 -0.032,-0.115 -0.073,-0.209 -0.105,-0.325 -0.196,0.606 -0.418,1.243 -0.672,1.93 -1.469,3.949 -3.668,5.864 -6.564,5.731 -2.941,-0.021 -4.917,-1.433 -5.898,-4.209 -0.221,-0.626 -0.41,-1.268 -0.547,-1.911 -0.008,0.021 -0.032,0.051 -0.063,0.065 -1.132,1.094 -2.245,1.341 -3.335,0.765 -3.403,-0.986 -4.995,-3.754 -4.758,-8.312 -0.965,0.463 -2.187,0.259 -3.655,-0.634 -2.728,-1.599 -3.622,-3.97 -2.675,-7.076 0.259,-0.802 0.563,-1.584 0.943,-2.363 0.861,-1.753 2.068,-3.436 3.598,-5.055 2.362,-2.472 4.921,-4.284 7.66,-5.437 4.221,-1.748 8.879,-1.91 14.003,-0.513 0.039,-0.036 0.064,-0.066 0.088,-0.094 0.073,0.04 0.147,0.082 0.253,0.111 0.17,0.091 0.35,0.159 0.552,0.238 0.081,0.021 0.171,0.055 0.239,0.08 0.26,0.126 0.504,0.26 0.756,0.409 0.272,0.157 0.539,0.3 0.768,0.44 1.176,0.688 2.012,1.323 2.501,1.885 0.245,0.263 0.622,0.654 1.151,1.181 0.152,0.137 0.291,0.28 0.415,0.392 0.107,0.121 0.192,0.23 0.294,0.335 0.535,0.581 1,1.173 1.402,1.793 0.18,0.238 0.357,0.474 0.537,0.71 0.099,0.142 0.197,0.283 0.275,0.417 0.227,0.346 0.438,0.697 0.633,1.057 0.201,0.375 0.385,0.702 0.562,0.977 0.007,0.018 0.007,0.018 0.013,0.031 0.075,0.173 0.158,0.322 0.221,0.423 m -2.246,2.104 c -0.154,-0.395 -0.297,-0.76 -0.418,-1.078 -0.145,-0.325 -0.274,-0.582 -0.388,-0.794 -0.063,-0.102 -0.111,-0.21 -0.161,-0.28 -0.119,-0.189 -0.229,-0.309 -0.324,-0.357 0.008,-0.022 0.039,-0.037 0.049,-0.06 -0.055,-0.124 -0.138,-0.311 -0.27,-0.568 -0.078,-0.096 -0.172,-0.221 -0.265,-0.348 -1.505,-2.026 -2.339,-3.16 -2.526,-3.375 -0.294,-0.371 -1.062,-0.979 -2.32,-1.854 -0.242,-0.172 -0.463,-0.334 -0.697,-0.489 -0.154,-0.099 -0.303,-0.182 -0.43,-0.257 -0.023,0.028 -0.048,0.06 -0.071,0.087 -0.09,-0.035 -0.179,-0.069 -0.262,-0.087 -0.351,-0.125 -0.695,-0.232 -1.041,-0.341 -0.299,-0.09 -0.599,-0.181 -0.907,-0.248 0.016,-0.008 0.048,-0.021 0.056,-0.044 -0.519,-0.124 -1.022,-0.216 -1.528,-0.311 -0.383,-0.071 -0.783,-0.136 -1.184,-0.201 -5.88,-0.84 -10.921,0.936 -15.119,5.345 -1.514,1.578 -2.651,3.248 -3.436,5.003 0.007,0.017 0.007,0.017 -0.009,0.021 -0.189,0.456 -0.363,0.904 -0.515,1.36 -0.259,0.8 -0.405,1.478 -0.455,2.038 -0.062,0.954 0.181,1.589 0.728,1.904 0.171,0.092 0.325,0.19 0.489,0.267 0.683,0.33 1.32,0.512 1.92,0.527 1.116,0.046 2.104,-0.445 2.946,-1.484 0.442,-0.845 0.851,-1.562 1.198,-2.161 0.009,-0.022 0.023,-0.03 0.032,-0.053 0.332,-0.554 0.612,-1.011 0.865,-1.363 -0.136,0.282 -0.282,0.627 -0.454,1.035 -0.052,0.134 -0.104,0.27 -0.149,0.418 -0.023,0.03 -0.041,0.074 -0.043,0.112 -0.533,1.441 -0.877,2.892 -1.034,4.389 -0.299,2.562 -0.005,4.492 0.898,5.781 0.547,0.779 1.304,1.319 2.27,1.616 0.118,0.06 0.247,0.096 0.374,0.132 0.925,0.205 1.814,-0.429 2.706,-1.897 0.272,-0.436 0.557,-0.968 0.822,-1.587 1.141,-3.304 1.859,-5.254 2.147,-5.86 -0.456,2.035 -0.794,3.836 -0.997,5.354 -0.213,1.708 -0.271,3.089 -0.188,4.165 0.101,1.235 0.379,2.244 0.835,3.026 0.681,1.167 1.766,1.819 3.248,1.982 0.234,0.026 0.462,0.038 0.704,0.041 1.284,0.01 2.594,-1.606 3.948,-4.893 1.209,-3.021 1.719,-5.062 1.498,-6.115 0.306,0.737 0.621,1.415 0.988,2.033 0.398,0.694 0.847,1.333 1.305,1.909 0.115,0.135 0.23,0.27 0.338,0.39 0.339,0.389 0.672,0.724 0.994,0.991 1.206,0.971 2.369,1.125 3.502,0.497 0.087,-0.057 0.173,-0.114 0.243,-0.163 1.834,-1.271 2.322,-4.289 1.466,-9.051 -0.307,-1.791 -0.763,-3.503 -1.378,-5.104 m 0.121,14.417 c 0.102,-0.062 0.211,-0.11 0.313,-0.175 0.141,-0.1 0.269,-0.23 0.39,-0.377 -0.223,0.21 -0.459,0.389 -0.703,0.552"
         id="path245"
         style="fill:#9e0c27" />
      <path
         d="m 626.97,659.14 c 0.121,0.318 0.264,0.684 0.418,1.078 0.613,1.602 1.071,3.312 1.379,5.105 0.856,4.762 0.368,7.779 -1.466,9.051 -0.07,0.049 -0.156,0.106 -0.243,0.162 -1.133,0.629 -2.296,0.475 -3.502,-0.496 -0.322,-0.268 -0.655,-0.603 -0.994,-0.991 -0.107,-0.12 -0.223,-0.255 -0.338,-0.39 -0.458,-0.576 -0.906,-1.215 -1.307,-1.909 -0.365,-0.618 -0.681,-1.297 -0.986,-2.033 0.221,1.053 -0.289,3.095 -1.498,6.115 -1.354,3.286 -2.664,4.902 -3.948,4.894 -0.242,-0.004 -0.47,-0.016 -0.704,-0.042 -1.482,-0.163 -2.567,-0.815 -3.249,-1.982 -0.455,-0.782 -0.733,-1.791 -0.834,-3.026 -0.083,-1.076 -0.024,-2.457 0.188,-4.165 0.203,-1.518 0.541,-3.318 0.997,-5.354 -0.288,0.607 -1.007,2.558 -2.147,5.861 -0.267,0.619 -0.55,1.151 -0.822,1.587 -0.892,1.47 -1.781,2.103 -2.706,1.897 -0.127,-0.036 -0.256,-0.072 -0.374,-0.133 -0.966,-0.296 -1.723,-0.836 -2.27,-1.615 -0.903,-1.289 -1.198,-3.219 -0.898,-5.781 0.157,-1.497 0.5,-2.947 1.034,-4.389 0.002,-0.038 0.02,-0.082 0.043,-0.112 0.046,-0.149 0.098,-0.284 0.149,-0.418 0.172,-0.408 0.318,-0.753 0.454,-1.035 -0.253,0.354 -0.534,0.81 -0.865,1.363 -0.009,0.022 -0.023,0.029 -0.031,0.053 -0.349,0.6 -0.757,1.316 -1.199,2.161 -0.842,1.039 -1.831,1.53 -2.946,1.483 -0.6,-0.013 -1.237,-0.196 -1.92,-0.526 -0.164,-0.076 -0.318,-0.175 -0.489,-0.267 -0.547,-0.315 -0.79,-0.95 -0.728,-1.904 0.05,-0.561 0.196,-1.238 0.455,-2.038 0.151,-0.456 0.325,-0.904 0.515,-1.36 0.016,-0.005 0.016,-0.005 0.009,-0.021 0.784,-1.755 1.922,-3.426 3.436,-5.001 4.197,-4.411 9.238,-6.187 15.119,-5.348 0.4,0.066 0.801,0.131 1.184,0.202 0.506,0.095 1.01,0.187 1.528,0.311 -0.009,0.022 -0.04,0.035 -0.056,0.044 0.309,0.067 0.608,0.157 0.907,0.248 0.346,0.108 0.69,0.216 1.041,0.341 0.083,0.018 0.172,0.052 0.262,0.087 0.023,-0.027 0.048,-0.06 0.071,-0.087 0.127,0.075 0.275,0.158 0.43,0.257 0.234,0.155 0.455,0.317 0.697,0.489 1.258,0.875 2.026,1.482 2.32,1.854 0.188,0.214 1.021,1.349 2.526,3.375 0.093,0.127 0.187,0.252 0.265,0.348 0.132,0.258 0.215,0.444 0.27,0.568 -0.01,0.022 -0.041,0.037 -0.049,0.06 0.096,0.049 0.205,0.168 0.324,0.357 0.049,0.07 0.098,0.178 0.161,0.28 0.111,0.21 0.242,0.466 0.387,0.792 l 0,0 z"
         id="path247"
         style="fill:#d82d1c" />
      <path
         d="m 693.371,646.686 1.676,-4.835 -73.132,-25.354 -2.314,6.678 c 2.853,2.639 5.979,5.116 9.387,7.457 7.408,5.068 15.587,9.062 24.557,11.974 8.972,2.909 17.953,4.483 26.944,4.722 4.451,0.112 8.746,-0.101 12.882,-0.642"
         id="path249"
         style="fill:#d82d1c" />
      <path
         d="m 611.44,649.442 c -0.189,0.018 -0.377,0.033 -0.601,0.067 -0.034,0.258 -0.052,0.566 -0.052,0.909 0,1.099 0.309,2.179 0.943,3.259 1.081,1.888 2.881,2.829 5.402,2.829 0.961,0 2.145,-0.617 3.567,-1.851 0.702,-0.618 1.235,-1.149 1.578,-1.597 -0.31,-0.29 -0.565,-0.531 -0.755,-0.753 -0.086,-0.104 -0.172,-0.188 -0.223,-0.275 1.697,-5.247 3.979,-8.267 6.809,-9.072 2.487,-0.909 5.969,-0.154 10.461,2.264 0.224,0.241 0.497,0.516 0.824,0.839 0.444,0.431 0.942,0.91 1.492,1.426 0.033,0.034 0.068,0.068 0.119,0.103 0.12,0.154 0.429,0.601 0.926,1.371 l -0.033,0.034 c 0.428,0.12 0.942,0.189 1.525,0.189 2.351,0 4.065,-0.359 5.146,-1.08 1.543,-1.029 2.314,-2.95 2.314,-5.763 0,-1.319 -0.755,-2.659 -2.246,-3.979 -0.6,-0.515 -1.114,-0.842 -1.561,-0.994 -0.12,-0.035 -0.205,-0.053 -0.292,-0.053 0.259,0.36 0.635,0.892 1.099,1.611 l -0.292,0.464 c -0.736,-0.464 -1.817,-1.028 -3.206,-1.663 -0.91,-0.412 -1.665,-0.72 -2.301,-0.943 -6.618,-3.379 -12.449,-4.235 -17.491,-2.539 -5.66,2.007 -9.74,7.1 -12.263,15.281 -0.254,-0.066 -0.547,-0.101 -0.889,-0.084"
         id="path251"
         style="fill:#d82d1c" />
      <path
         d="m 610.84,649.51 c 0.224,-0.034 0.411,-0.05 0.601,-0.067 0.342,-0.018 0.635,0.018 0.892,0.085 2.522,-8.182 6.603,-13.274 12.263,-15.281 5.042,-1.696 10.873,-0.84 17.492,2.539 0.635,0.224 1.39,0.531 2.3,0.943 1.389,0.636 2.47,1.199 3.206,1.663 l 0.292,-0.464 c -0.464,-0.72 -0.841,-1.251 -1.099,-1.611 -0.119,-0.172 -0.223,-0.292 -0.308,-0.378 -0.12,-0.119 -0.979,-0.891 -2.573,-2.314 -7.666,-4.064 -14.389,-5.042 -20.203,-2.966 -6.757,2.245 -11.525,8.299 -14.304,18.161 0.207,-0.069 0.464,-0.138 0.789,-0.206 0.223,-0.052 0.446,-0.087 0.652,-0.104"
         id="path253"
         style="fill:#9e0c27" />
      <path
         d="m 621.524,652.307 c 0.189,0.222 0.446,0.463 0.755,0.753 0.24,0.224 0.516,0.48 0.84,0.755 0.155,0.12 0.274,0.258 0.395,0.395 1.389,-4.904 3.208,-7.786 5.454,-8.644 2.436,-0.669 6.14,0.567 11.113,3.739 l 0.103,0.051 c 0.428,0.223 0.806,0.412 1.114,0.584 l 0.602,-0.945 0.033,-0.031 c -0.497,-0.772 -0.806,-1.22 -0.926,-1.373 -0.051,-0.034 -0.086,-0.068 -0.119,-0.103 -0.55,-0.516 -1.048,-0.995 -1.492,-1.426 -0.327,-0.323 -0.6,-0.599 -0.824,-0.839 -4.492,-2.418 -7.974,-3.173 -10.461,-2.264 -2.83,0.806 -5.111,3.825 -6.809,9.072 0.051,0.087 0.136,0.171 0.222,0.276"
         id="path255"
         style="fill:#9e0c27" />
    </g>
  </g>
</svg>
