<?xml version="1.0" encoding="UTF-8" standalone="no"?>
<!-- Created with Inkscape (http://www.inkscape.org/) -->

<svg
   xmlns:dc="http://purl.org/dc/elements/1.1/"
   xmlns:cc="http://creativecommons.org/ns#"
   xmlns:rdf="http://www.w3.org/1999/02/22-rdf-syntax-ns#"
   xmlns:svg="http://www.w3.org/2000/svg"
   xmlns="http://www.w3.org/2000/svg"
   xmlns:sodipodi="http://sodipodi.sourceforge.net/DTD/sodipodi-0.dtd"
   xmlns:inkscape="http://www.inkscape.org/namespaces/inkscape"
   width="150.8071"
   height="179.5645"
   id="svg5696"
   version="1.1"
   inkscape:version="0.48.4 r9939"
   sodipodi:docname="grover5.svg">
  <defs
     id="defs5698">
    <clipPath
       id="SVGID_2_">
      <rect
         height="88.862999"
         width="111.498"
         y="518.96198"
         x="382.04999"
         id="use1087" />
    </clipPath>
    <clipPath
       id="SVGID_4_">
      <rect
         height="41.314999"
         width="49.584999"
         y="525.19397"
         x="389.84698"
         id="use1111" />
    </clipPath>
  </defs>
  <sodipodi:namedview
     id="base"
     pagecolor="#ffffff"
     bordercolor="#666666"
     borderopacity="1.0"
     inkscape:pageopacity="0.0"
     inkscape:pageshadow="2"
     inkscape:zoom="0.77472527"
     inkscape:cx="111.37917"
     inkscape:cy="37.613006"
     inkscape:current-layer="layer1"
     inkscape:document-units="px"
     showgrid="false"
     inkscape:window-width="763"
     inkscape:window-height="591"
     inkscape:window-x="592"
     inkscape:window-y="97"
     inkscape:window-maximized="0"
     fit-margin-top="0"
     fit-margin-left="0"
     fit-margin-right="0"
     fit-margin-bottom="0" />
  <metadata
     id="metadata5701">
    <rdf:RDF>
      <cc:Work
         rdf:about="">
        <dc:format>image/svg+xml</dc:format>
        <dc:type
           rdf:resource="http://purl.org/dc/dcmitype/StillImage" />
        <dc:title></dc:title>
      </cc:Work>
    </rdf:RDF>
  </metadata>
  <g
     id="layer1"
     inkscape:label="Layer 1"
     inkscape:groupmode="layer"
     transform="translate(-206.56413,56.8451)">
    <g
       transform="translate(112.30539,-351.5326)"
       id="g329">
      <path
         inkscape:connector-curvature="0"
         style="fill:#0160ad"
         d="m 154.994,431.838 -2.962,-4.832 c -10.555,4.405 -19.061,13.812 -25.491,28.208 -12.139,0.26 -20.463,1.585 -24.961,3.968 -1.907,1.02 -3.208,2.155 -3.891,3.43 -0.657,1.235 -0.684,2.448 -0.078,3.633 1.34,2.643 4.897,4.253 10.67,4.819 6.766,0.659 14.884,-0.475 24.355,-3.376 0.117,-0.039 0.245,-0.182 0.387,-0.438 5.181,-19.612 12.499,-31.417 21.971,-35.412"
         id="path331" />
      <path
         inkscape:connector-curvature="0"
         style="fill:none;stroke:#043889;stroke-width:5.92789984;stroke-miterlimit:10"
         d="m 154.994,431.838 c -9.472,3.995 -16.791,15.8 -21.971,35.411 -0.142,0.257 -0.271,0.399 -0.387,0.438 -9.471,2.901 -17.59,4.035 -24.355,3.376 -5.773,-0.566 -9.33,-2.177 -10.67,-4.819 -0.606,-1.185 -0.58,-2.397 0.078,-3.633 0.683,-1.274 1.984,-2.41 3.891,-3.43 4.498,-2.383 12.823,-3.708 24.961,-3.968 6.43,-14.396 14.936,-23.803 25.491,-28.208 l 2.962,4.833 z"
         id="path333" />
      <path
         inkscape:connector-curvature="0"
         style="fill:#0160ad"
         d="m 191.392,440.983 c -2.526,-4.495 -6.792,-7.988 -12.81,-10.476 l -2.615,4.845 c 12.125,3.854 12.628,14.614 1.481,32.309 9.91,2.948 18.209,4.108 24.897,3.464 5.773,-0.566 9.33,-2.176 10.67,-4.817 0.605,-1.187 0.58,-2.397 -0.077,-3.636 -0.684,-1.276 -1.985,-2.409 -3.892,-3.429 -3.827,-2.033 -9.163,-3.142 -15.992,-3.31 -0.103,-0.014 -0.205,-0.014 -0.309,-0.014 h -0.194 c 1.096,-6.648 0.709,-11.622 -1.159,-14.936"
         id="path335" />
      <path
         inkscape:connector-curvature="0"
         style="fill:none;stroke:#043889;stroke-width:5.92789984;stroke-miterlimit:10"
         d="m 178.582,430.508 -2.615,4.845 c 12.125,3.854 12.628,14.614 1.481,32.309 9.91,2.948 18.209,4.108 24.897,3.464 5.773,-0.566 9.33,-2.176 10.669,-4.817 0.605,-1.187 0.581,-2.397 -0.078,-3.636 -0.683,-1.276 -1.984,-2.409 -3.891,-3.429 -3.828,-2.035 -9.163,-3.142 -15.992,-3.31 -0.104,-0.014 -0.206,-0.014 -0.309,-0.014 h -0.194 c 1.095,-6.648 0.709,-11.623 -1.159,-14.937 -2.525,-4.495 -6.791,-7.988 -12.809,-10.475 z m -21.257,-28.529 c -10.284,-4.227 -15.078,-8.273 -14.395,-12.139 0.669,-3.866 5.219,-6.778 13.635,-8.737 l 0.721,-8.221 c -9.137,1.378 -15.993,4.214 -20.567,8.504 -4.587,4.278 -5.555,9.574 -2.887,15.901 2.668,6.326 9.652,11.354 20.98,15.079"
         id="path337" />
      <path
         inkscape:connector-curvature="0"
         style="fill:#0160ad"
         d="m 156.565,381.104 0.721,-8.221 c -9.137,1.378 -15.992,4.214 -20.58,8.504 -4.574,4.291 -5.542,9.588 -2.874,15.901 2.655,6.302 9.614,11.327 20.889,15.051 0.323,-2.345 0.992,-5.837 1.997,-10.476 -9.87,-4.137 -14.471,-8.144 -13.788,-12.022 0.683,-3.881 5.219,-6.791 13.635,-8.737"
         id="path339" />
      <path
         inkscape:connector-curvature="0"
         style="fill:#043889"
         d="m 150.924,412.446 2.016,-0.744 c 0.301,1.619 1.02,3.032 2.159,4.241 1.414,1.723 3.123,2.945 5.143,3.641 1.809,0.637 3.521,0.761 5.142,0.396 2.979,-0.681 5.051,-2.422 6.191,-5.209 l 0.132,-0.434 0.438,-0.227 c 3.359,-2.312 4.516,-4.626 3.452,-6.922 l -0.474,-1.185 0.703,-0.74 c 1.012,-1.059 1.55,-2.088 1.616,-3.059 0.027,-0.674 -0.319,-1.596 -1.051,-2.752 -1.354,-1.816 -5.623,-2.1 -12.805,-0.852 l -0.232,-1.01 c 0.999,-0.63 2.055,-1.142 3.167,-1.504 -1.375,-0.691 -2.714,-0.861 -4.03,-0.504 -2.52,0.475 -4.247,2.023 -5.156,4.636 l -0.241,0.787 -2.794,-0.858 0.164,-0.532 c 0.335,-0.962 0.705,-1.798 1.106,-2.518 0.792,-1.538 1.761,-2.637 2.903,-3.307 1.391,-0.839 3.021,-1.179 4.889,-1.031 2.597,0.371 4.547,1.275 5.873,2.692 2.154,-0.302 4.506,-0.191 7.027,0.336 3.08,1.229 4.502,3.512 4.263,6.836 -0.02,1.379 -0.592,2.742 -1.715,4.115 1.383,3.355 -0.158,6.611 -4.618,9.775 -1.589,3.67 -3.98,5.803 -7.18,6.4 -1.881,0.353 -4.254,0.148 -7.118,-0.612 -2.67,-0.709 -4.96,-2.232 -6.858,-4.566 -1.317,-1.928 -2.019,-3.688 -2.112,-5.289"
         id="path341" />
      <path
         inkscape:connector-curvature="0"
         style="fill:#0160ad"
         d="m 152.94,411.702 -0.458,-3.108 2.127,-1.269 2.484,-6.318 0.241,-0.787 c 0.909,-2.614 2.637,-4.161 5.156,-4.636 1.316,-0.357 2.656,-0.188 4.03,0.504 -1.112,0.362 -2.168,0.874 -3.167,1.504 l 0.233,1.01 c 7.182,-1.248 11.451,-0.965 12.805,0.852 0.731,1.156 1.077,2.078 1.049,2.752 -0.065,0.971 -0.603,2 -1.614,3.059 l -0.703,0.74 0.472,1.185 c 1.065,2.296 -0.092,4.609 -3.451,6.922 l -0.438,0.227 -0.132,0.434 c -1.14,2.787 -3.212,4.528 -6.19,5.209 -1.621,0.363 -3.333,0.241 -5.142,-0.396 -2.02,-0.695 -3.73,-1.918 -5.143,-3.641 -1.139,-1.211 -1.858,-2.624 -2.159,-4.243"
         id="path343" />
      <path
         inkscape:connector-curvature="0"
         style="fill:none;stroke:#043889;stroke-width:5.92789984;stroke-miterlimit:10"
         d="m 228.379,358.35 c -2.062,17.604 -9.395,27.667 -22.01,30.18 -12.615,2.513 -23.66,-0.799 -33.131,-9.935 l 3.711,-6.249 c 23.119,14.6 37.023,9.857 41.727,-14.24"
         id="path345" />
      <path
         inkscape:connector-curvature="0"
         style="fill:#0160ad"
         d="m 176.686,367.728 c -2.59,-7.473 -4.433,-11.635 -5.515,-12.474 -1.804,-1.444 -4.419,-1.598 -7.86,-0.463 -0.889,0.424 -1.56,0.747 -2.01,0.953 0.295,0.257 -0.039,1.817 -0.979,4.691 -0.723,2.216 -2.319,6.791 -4.794,13.711 -5.463,15.773 -8.453,27.86 -8.969,36.261 -0.58,9.497 1.907,17.049 7.475,22.653 2.41,2.425 5.18,4.178 8.326,5.261 3.053,1.043 6.133,1.352 9.226,0.9 3.157,-0.477 5.992,-1.714 8.505,-3.71 2.679,-2.127 4.743,-4.975 6.185,-8.53 3.391,-8.312 3.028,-19.163 -1.056,-32.527 -3.728,-12.203 -6.575,-21.106 -8.534,-26.726"
         id="path347" />
      <path
         inkscape:connector-curvature="0"
         style="fill:#0160ad"
         d="m 160.99,355.771 c -0.618,0.359 -0.515,0.347 0.31,-0.027 -0.091,-0.052 -0.194,-0.038 -0.31,0.027"
         id="path349" />
      <path
         inkscape:connector-curvature="0"
         style="fill:none;stroke:#043889;stroke-width:5.92789984;stroke-miterlimit:10"
         d="m 176.686,367.728 c 1.959,5.619 4.806,14.523 8.532,26.727 4.084,13.364 4.446,24.215 1.056,32.527 -1.442,3.556 -3.505,6.403 -6.185,8.53 -2.513,1.996 -5.348,3.233 -8.505,3.71 -3.093,0.451 -6.173,0.143 -9.226,-0.9 -3.146,-1.083 -5.916,-2.836 -8.326,-5.261 -5.568,-5.604 -8.055,-13.156 -7.475,-22.653 0.516,-8.401 3.506,-20.488 8.969,-36.261 2.475,-6.921 4.072,-11.495 4.794,-13.711 0.941,-2.874 1.275,-4.434 0.979,-4.691 0.45,-0.207 1.121,-0.529 2.01,-0.953 3.441,-1.135 6.057,-0.98 7.86,0.463 1.083,0.838 2.927,5 5.517,12.473 z"
         id="path351" />
      <path
         inkscape:connector-curvature="0"
         style="fill:#0160ad"
         d="m 154.994,431.838 -2.962,-4.832 c -10.555,4.405 -19.061,13.812 -25.491,28.208 -12.139,0.26 -20.463,1.585 -24.961,3.968 -1.907,1.02 -3.208,2.155 -3.891,3.43 -0.657,1.235 -0.684,2.448 -0.078,3.633 1.34,2.643 4.897,4.253 10.67,4.819 6.766,0.659 14.884,-0.475 24.355,-3.376 0.117,-0.039 0.245,-0.182 0.387,-0.438 5.181,-19.612 12.499,-31.417 21.971,-35.412"
         id="path353" />
      <path
         inkscape:connector-curvature="0"
         style="fill:#0160ad"
         d="m 178.582,430.508 -2.615,4.845 c 12.125,3.854 12.628,14.614 1.481,32.309 9.91,2.948 18.209,4.108 24.897,3.464 5.773,-0.566 9.329,-2.176 10.669,-4.817 0.606,-1.187 0.581,-2.397 -0.077,-3.636 -0.683,-1.276 -1.984,-2.409 -3.891,-3.429 -3.828,-2.035 -9.163,-3.142 -15.992,-3.31 -0.104,-0.014 -0.206,-0.014 -0.309,-0.014 h -0.194 c 1.096,-6.648 0.709,-11.623 -1.16,-14.937 -2.526,-4.495 -6.791,-7.988 -12.809,-10.475"
         id="path355" />
      <path
         inkscape:connector-curvature="0"
         style="fill:#0160ad"
         d="m 202.819,321.222 c -2.029,-4.626 -4.864,-8.725 -8.518,-12.268 -3.653,-3.57 -7.849,-6.34 -12.599,-8.299 -4.913,-2.023 -10.054,-3.028 -15.435,-3.028 -5.379,0 -10.52,1.005 -15.421,3.028 -4.75,1.958 -8.945,4.729 -12.611,8.299 -3.653,3.543 -6.489,7.642 -8.493,12.268 -2.065,4.781 -3.099,9.794 -3.099,15.038 0,5.232 1.034,10.231 3.099,15.014 2.004,4.625 4.839,8.737 8.493,12.306 3.666,3.543 7.861,6.302 12.611,8.272 4.901,2.011 10.042,3.016 15.421,3.016 5.38,0 10.521,-1.005 15.435,-3.016 4.75,-1.971 8.946,-4.729 12.599,-8.272 3.654,-3.569 6.489,-7.681 8.518,-12.306 2.065,-4.755 3.099,-9.769 3.099,-15.014 0,-5.244 -1.034,-10.258 -3.099,-15.038"
         id="path357" />
      <path
         inkscape:connector-curvature="0"
         style="fill:none;stroke:#043889;stroke-width:5.86159992;stroke-miterlimit:10"
         d="m 194.301,308.954 c -3.654,-3.569 -7.849,-6.34 -12.598,-8.299 -4.915,-2.023 -10.054,-3.028 -15.436,-3.028 -5.379,0 -10.519,1.005 -15.421,3.028 -4.75,1.958 -8.945,4.729 -12.611,8.299 -3.654,3.543 -6.489,7.642 -8.493,12.268 -2.065,4.781 -3.099,9.794 -3.099,15.038 0,5.232 1.034,10.231 3.099,15.014 2.004,4.625 4.839,8.737 8.493,12.306 3.666,3.543 7.862,6.302 12.611,8.272 4.902,2.011 10.042,3.016 15.421,3.016 5.381,0 10.521,-1.005 15.436,-3.016 4.749,-1.971 8.944,-4.729 12.598,-8.272 3.655,-3.569 6.489,-7.681 8.518,-12.306 2.065,-4.755 3.099,-9.769 3.099,-15.014 0,-5.244 -1.034,-10.257 -3.099,-15.038 -2.029,-4.626 -4.863,-8.725 -8.518,-12.268 z"
         id="path359" />
      <path
         inkscape:connector-curvature="0"
         style="fill:#0160ad"
         d="m 202.819,321.222 c -2.029,-4.626 -4.864,-8.725 -8.518,-12.268 -3.653,-3.57 -7.849,-6.34 -12.599,-8.299 -4.913,-2.023 -10.054,-3.028 -15.435,-3.028 -5.379,0 -10.52,1.005 -15.421,3.028 -4.75,1.958 -8.945,4.729 -12.611,8.299 -3.653,3.543 -6.489,7.642 -8.493,12.268 -2.065,4.781 -3.099,9.794 -3.099,15.038 0,5.232 1.034,10.231 3.099,15.014 2.004,4.625 4.839,8.737 8.493,12.306 3.666,3.543 7.861,6.302 12.611,8.272 4.901,2.011 10.042,3.016 15.421,3.016 5.38,0 10.521,-1.005 15.435,-3.016 4.75,-1.971 8.946,-4.729 12.599,-8.272 3.654,-3.569 6.489,-7.681 8.518,-12.306 2.065,-4.755 3.099,-9.769 3.099,-15.014 0,-5.244 -1.034,-10.258 -3.099,-15.038"
         id="path361" />
      <path
         inkscape:connector-curvature="0"
         style="fill:#e42126"
         d="m 201.633,335.369 c 0,-4.987 -3.377,-9.253 -10.142,-12.783 -6.753,-3.544 -14.897,-5.31 -24.446,-5.31 -9.549,0 -17.706,1.766 -24.459,5.31 -6.752,3.53 -10.127,7.796 -10.127,12.783 0,5 3.375,9.267 10.127,12.797 6.753,3.529 14.91,5.296 24.459,5.296 9.549,0 17.693,-1.767 24.446,-5.296 6.765,-3.531 10.142,-7.797 10.142,-12.797 m -12.475,-11.043 c 6.044,3.054 9.073,6.726 9.073,11.043 0,4.318 -3.028,7.99 -9.073,11.044 -6.056,3.053 -13.363,4.575 -21.919,4.575 -8.557,0 -15.862,-1.522 -21.92,-4.575 -6.043,-3.054 -9.072,-6.726 -9.072,-11.044 0,-4.317 3.028,-7.989 9.072,-11.043 6.058,-3.055 13.363,-4.576 21.92,-4.576 8.556,0 15.864,1.521 21.919,4.576"
         id="path363" />
      <path
         inkscape:connector-curvature="0"
         style="fill:#282525"
         d="m 198.231,335.369 c 0,-4.316 -3.029,-7.989 -9.073,-11.043 -6.055,-3.055 -13.364,-4.575 -21.919,-4.575 -8.557,0 -15.863,1.521 -21.92,4.575 -6.043,3.054 -9.072,6.727 -9.072,11.043 0,4.317 3.029,7.99 9.072,11.043 6.057,3.055 13.364,4.575 21.92,4.575 8.555,0 15.864,-1.52 21.919,-4.575 6.044,-3.054 9.073,-6.726 9.073,-11.043"
         id="path365" />
      <path
         inkscape:connector-curvature="0"
         style="fill:#0160ad"
         d="m 202.002,336.748 c -0.693,-10.656 -4.888,-19.704 -12.586,-27.165 -7.119,-6.044 -14.854,-9.381 -23.232,-10.04 -9.096,2.204 -16.771,5.49 -23.007,9.833 -8.63,6.468 -12.523,15.592 -11.679,27.371 5.091,3.969 10.924,7.049 17.514,9.227 5.77,1.908 11.628,2.977 17.588,3.209 6.162,-0.232 12.121,-1.301 17.89,-3.209 6.59,-2.178 12.422,-5.257 17.512,-9.226"
         id="path367" />
      <path
         inkscape:connector-curvature="0"
         style="fill:#f3f3f3"
         d="m 138.711,328.988 c -0.619,-2.616 0.038,-5.116 1.958,-7.525 1.919,-2.423 4.574,-4.033 7.937,-4.846 3.364,-0.786 6.458,-0.554 9.279,0.722 2.822,1.289 4.535,3.234 5.154,5.825 0.631,2.615 -0.013,5.128 -1.958,7.551 -1.92,2.422 -4.574,4.033 -7.938,4.819 -3.363,0.812 -6.456,0.579 -9.278,-0.696 -2.796,-1.287 -4.523,-3.233 -5.154,-5.85"
         id="path369" />
      <path
         inkscape:connector-curvature="0"
         style="fill:#f3f3f3"
         d="m 195.355,328.988 c 0.62,-2.616 -0.039,-5.116 -1.958,-7.525 -1.92,-2.423 -4.574,-4.033 -7.938,-4.846 -3.364,-0.786 -6.456,-0.554 -9.278,0.722 -2.823,1.289 -4.536,3.234 -5.154,5.825 -0.632,2.615 0.012,5.128 1.958,7.551 1.92,2.422 4.574,4.033 7.938,4.819 3.364,0.812 6.457,0.579 9.278,-0.696 2.797,-1.287 4.524,-3.233 5.154,-5.85"
         id="path371" />
      <path
         inkscape:connector-curvature="0"
         style="fill:#282525"
         d="m 148.984,321.64 c 1.096,-1.404 2.539,-2.229 4.33,-2.449 1.765,-0.219 3.364,0.219 4.769,1.34 1.404,1.122 2.215,2.565 2.422,4.33 0.219,1.792 -0.219,3.377 -1.314,4.768 -1.121,1.405 -2.564,2.217 -4.329,2.423 -1.766,0.22 -3.363,-0.219 -4.768,-1.314 -1.405,-1.097 -2.229,-2.539 -2.45,-4.331 -0.22,-1.764 0.219,-3.362 1.34,-4.767"
         id="path373" />
      <path
         inkscape:connector-curvature="0"
         style="fill:#282525"
         d="m 185.06,321.64 c -1.096,-1.404 -2.54,-2.229 -4.33,-2.449 -1.765,-0.219 -3.363,0.219 -4.769,1.34 -1.403,1.122 -2.215,2.565 -2.423,4.33 -0.217,1.792 0.22,3.377 1.316,4.768 1.121,1.405 2.564,2.217 4.33,2.423 1.766,0.22 3.363,-0.219 4.768,-1.314 1.405,-1.097 2.23,-2.539 2.448,-4.331 0.219,-1.764 -0.219,-3.362 -1.34,-4.767"
         id="path375" />
      <path
         inkscape:connector-curvature="0"
         style="fill:#e97ca0"
         d="m 174.076,330.277 c -1.997,-2.203 -4.394,-3.298 -7.216,-3.298 -2.822,0 -5.232,1.096 -7.242,3.298 -1.998,2.217 -3.002,4.884 -3.002,7.99 0,3.132 1.004,5.799 3.002,8.015 1.997,2.203 4.407,3.299 7.242,3.299 2.834,0 5.245,-1.096 7.216,-3.299 1.997,-2.216 3.003,-4.883 3.003,-8.015 0,-3.131 -1.006,-5.787 -3.003,-7.99"
         id="path377" />
      <path
         inkscape:connector-curvature="0"
         style="fill:#0160ad"
         d="m 180.088,435.512 c 2.68,-2.127 4.743,-4.975 6.186,-8.53 3.39,-8.312 3.029,-19.163 -1.057,-32.527 -2.977,-9.729 -5.387,-17.357 -7.23,-22.899 h -21.533 c -0.296,0.824 -0.606,1.688 -0.927,2.591 -5.464,15.773 -8.454,27.86 -8.97,36.261 -0.58,9.497 1.907,17.049 7.474,22.655 2.409,2.423 5.181,4.176 8.326,5.259 3.053,1.043 6.133,1.352 9.226,0.9 3.157,-0.477 5.992,-1.714 8.505,-3.71"
         id="path379" />
      <path
         inkscape:connector-curvature="0"
         style="fill:none;stroke:#043889;stroke-width:5.92789984;stroke-miterlimit:10"
         d="m 158.227,402.25 c -10.876,-4.395 -15.979,-8.53 -15.296,-12.409 0.038,-0.271 0.103,-0.528 0.194,-0.787 m -10.645,0 c -0.349,2.514 0.103,5.258 1.352,8.234 2.667,6.326 9.652,11.354 20.966,15.079"
         id="path381" />
      <path
         inkscape:connector-curvature="0"
         style="fill:#0160ad"
         d="m 156.565,381.104 0.721,-8.221 c -9.137,1.378 -15.992,4.214 -20.58,8.504 -4.574,4.291 -5.542,9.588 -2.874,15.901 2.655,6.302 9.627,11.327 20.902,15.051 0.424,-2.513 1.122,-6.005 2.086,-10.476 -9.934,-4.137 -14.573,-8.144 -13.89,-12.022 0.683,-3.881 5.219,-6.791 13.635,-8.737"
         id="path383" />
      <path
         inkscape:connector-curvature="0"
         style="fill:#043889"
         d="m 150.924,412.446 2.016,-0.744 c 0.301,1.619 1.02,3.032 2.159,4.241 1.414,1.723 3.123,2.945 5.143,3.641 1.809,0.637 3.521,0.761 5.142,0.396 2.979,-0.681 5.051,-2.422 6.191,-5.209 l 0.132,-0.434 0.438,-0.227 c 3.359,-2.312 4.516,-4.626 3.452,-6.922 l -0.474,-1.185 0.703,-0.74 c 1.012,-1.059 1.55,-2.088 1.616,-3.059 0.027,-0.674 -0.319,-1.596 -1.051,-2.752 -1.354,-1.816 -5.623,-2.1 -12.805,-0.852 l -0.232,-1.01 c 0.999,-0.63 2.055,-1.142 3.167,-1.504 -1.375,-0.691 -2.714,-0.861 -4.03,-0.504 -2.52,0.475 -4.247,2.023 -5.156,4.636 l -0.241,0.787 -2.794,-0.858 0.164,-0.532 c 0.335,-0.962 0.705,-1.798 1.106,-2.518 0.792,-1.538 1.761,-2.637 2.903,-3.307 1.391,-0.839 3.021,-1.179 4.889,-1.031 2.597,0.371 4.547,1.275 5.873,2.692 2.154,-0.302 4.506,-0.191 7.027,0.336 3.08,1.229 4.502,3.512 4.263,6.836 -0.02,1.379 -0.592,2.742 -1.715,4.115 1.383,3.355 -0.158,6.611 -4.618,9.775 -1.589,3.67 -3.98,5.803 -7.18,6.4 -1.881,0.353 -4.254,0.148 -7.118,-0.612 -2.67,-0.709 -4.96,-2.232 -6.858,-4.566 -1.317,-1.928 -2.019,-3.688 -2.112,-5.289"
         id="path385" />
      <path
         inkscape:connector-curvature="0"
         style="fill:#0160ad"
         d="m 152.94,411.702 -0.458,-3.108 2.127,-1.269 2.484,-6.318 0.241,-0.787 c 0.909,-2.614 2.637,-4.161 5.156,-4.636 1.316,-0.357 2.656,-0.188 4.03,0.504 -1.112,0.362 -2.168,0.874 -3.167,1.504 l 0.233,1.01 c 7.182,-1.248 11.451,-0.965 12.805,0.852 0.731,1.156 1.077,2.078 1.049,2.752 -0.065,0.971 -0.603,2 -1.614,3.059 l -0.703,0.74 0.472,1.185 c 1.065,2.296 -0.092,4.609 -3.451,6.922 l -0.438,0.227 -0.132,0.434 c -1.14,2.787 -3.212,4.528 -6.19,5.209 -1.621,0.363 -3.333,0.241 -5.142,-0.396 -2.02,-0.695 -3.73,-1.918 -5.143,-3.641 -1.139,-1.211 -1.858,-2.624 -2.159,-4.243"
         id="path387" />
      <path
         inkscape:connector-curvature="0"
         style="fill:#0160ad"
         d="m 228.147,358.235 c -2.589,0.503 -5.863,1.043 -9.819,1.649 -4.473,22.912 -18.26,27.062 -41.38,12.463 l -3.709,6.248 c 9.472,9.137 20.515,12.448 33.131,9.935 12.318,-2.462 19.574,-12.564 21.777,-30.295"
         id="path389" />
      <path
         inkscape:connector-curvature="0"
         style="fill:#043889"
         d="m 217.897,361.323 c -1.062,-0.246 -2.25,-0.874 -3.561,-1.884 -1.849,-1.232 -3.235,-2.809 -4.125,-4.745 -0.81,-1.733 -1.185,-3.611 -1.149,-5.639 0.035,-2.028 0.489,-3.802 1.339,-5.327 0.861,-1.522 2.264,-2.304 4.196,-2.346 1.934,-2.923 4.068,-3.976 6.401,-3.16 l 1.225,0.352 0.664,-0.769 c 0.95,-1.111 1.919,-1.749 2.877,-1.908 0.667,-0.094 1.619,0.158 2.837,0.769 1.936,1.165 2.64,5.375 2.112,12.63 l 1.026,0.13 c 0.463,-0.927 0.812,-1.886 1.073,-2.867 l 0.606,-0.267 c 1.343,-0.562 2.686,-0.789 4.031,-0.677 1.046,0.109 1.944,0.402 2.705,0.902 l 0.003,-0.011 c 1.203,0.813 1.736,1.929 1.612,3.349 -0.088,1.144 -0.73,1.738 -1.919,1.798 l -2.267,0.213 -0.042,0.001 c -0.323,0.032 -0.67,0.107 -1.044,0.229 -1.695,0.651 -3.022,1.841 -3.988,3.594 -1.021,1.558 -2.512,2.653 -4.478,3.298 l 1.434,3.014 c 1.928,-0.756 3.453,-2.025 4.592,-3.809 1.137,-1.774 2.458,-2.85 3.951,-3.216 l 2.11,-0.191 c 3.03,-0.166 4.675,-1.712 4.922,-4.645 0.204,-2.63 -0.8,-4.701 -3.026,-6.189 l -0.013,-0.003 c -1.194,-0.799 -2.612,-1.28 -4.255,-1.446 l -0.013,-0.004 c -1.472,-0.145 -2.948,0.02 -4.44,0.479 0.03,-2.056 -0.315,-4.235 -1.046,-6.545 -1.521,-2.936 -3.93,-4.123 -7.208,-3.555 -1.365,0.155 -2.666,0.859 -3.914,2.109 -3.469,-1.041 -6.283,0.156 -8.461,3.611 -2.212,0.072 -3.898,1.18 -5.023,3.306 -1.126,2.127 -1.694,4.207 -1.671,6.225 0.023,2.016 0.538,4.412 1.578,7.18 0.968,2.58 2.705,4.704 5.213,6.358 2.044,1.116 3.491,1.748 4.334,1.895 l 0.802,-2.239 z"
         id="path391" />
      <path
         inkscape:connector-curvature="0"
         style="fill:#0160ad"
         d="m 214.337,359.438 c 1.311,1.011 2.499,1.638 3.561,1.884 l 5.804,0.197 1.312,-2.454 3.019,-0.078 c 1.966,-0.646 3.456,-1.739 4.478,-3.298 0.967,-1.753 2.293,-2.943 3.988,-3.595 0.375,-0.121 0.723,-0.196 1.045,-0.228 l 0.041,-10e-4 2.268,-0.214 c 1.188,-0.06 1.831,-0.654 1.918,-1.798 0.125,-1.419 -0.409,-2.535 -1.612,-3.349 l -0.003,0.012 c -0.76,-0.5 -1.659,-0.793 -2.706,-0.903 -1.345,-0.111 -2.688,0.115 -4.031,0.678 l -0.606,0.267 c -0.26,0.981 -0.61,1.939 -1.074,2.868 l -1.025,-0.131 c 0.528,-7.256 -0.176,-11.465 -2.113,-12.629 -1.218,-0.61 -2.169,-0.864 -2.837,-0.77 -0.957,0.161 -1.926,0.798 -2.875,1.907 l -0.664,0.77 -1.225,-0.352 c -2.333,-0.815 -4.466,0.237 -6.4,3.161 -1.933,0.043 -3.337,0.824 -4.197,2.346 -0.85,1.524 -1.304,3.298 -1.339,5.326 -0.035,2.028 0.339,3.905 1.15,5.639 0.888,1.937 2.274,3.514 4.123,4.745"
         id="path393" />
    </g>
  </g>
</svg>
