<?xml version="1.0" encoding="UTF-8" standalone="no"?>
<!-- Created with Inkscape (http://www.inkscape.org/) -->

<svg
   xmlns:dc="http://purl.org/dc/elements/1.1/"
   xmlns:cc="http://creativecommons.org/ns#"
   xmlns:rdf="http://www.w3.org/1999/02/22-rdf-syntax-ns#"
   xmlns:svg="http://www.w3.org/2000/svg"
   xmlns="http://www.w3.org/2000/svg"
   xmlns:sodipodi="http://sodipodi.sourceforge.net/DTD/sodipodi-0.dtd"
   xmlns:inkscape="http://www.inkscape.org/namespaces/inkscape"
   width="194.64856"
   height="221.72951"
   id="svg5696"
   version="1.1"
   inkscape:version="0.48.4 r9939"
   sodipodi:docname="grover9.svg">
  <defs
     id="defs5698">
    <clipPath
       id="SVGID_2_">
      <rect
         height="88.862999"
         width="111.498"
         y="518.96198"
         x="382.04999"
         id="use1087" />
    </clipPath>
    <clipPath
       id="SVGID_4_">
      <rect
         height="41.314999"
         width="49.584999"
         y="525.19397"
         x="389.84698"
         id="use1111" />
    </clipPath>
  </defs>
  <sodipodi:namedview
     id="base"
     pagecolor="#ffffff"
     bordercolor="#666666"
     borderopacity="1.0"
     inkscape:pageopacity="0.0"
     inkscape:pageshadow="2"
     inkscape:zoom="0.77472527"
     inkscape:cx="77.616096"
     inkscape:cy="116.57307"
     inkscape:current-layer="layer1"
     inkscape:document-units="px"
     showgrid="false"
     inkscape:window-width="763"
     inkscape:window-height="591"
     inkscape:window-x="592"
     inkscape:window-y="97"
     inkscape:window-maximized="0"
     fit-margin-top="0"
     fit-margin-left="0"
     fit-margin-right="0"
     fit-margin-bottom="0" />
  <metadata
     id="metadata5701">
    <rdf:RDF>
      <cc:Work
         rdf:about="">
        <dc:format>image/svg+xml</dc:format>
        <dc:type
           rdf:resource="http://purl.org/dc/dcmitype/StillImage" />
        <dc:title></dc:title>
      </cc:Work>
    </rdf:RDF>
  </metadata>
  <g
     id="layer1"
     inkscape:label="Layer 1"
     inkscape:groupmode="layer"
     transform="translate(-240.3272,20.050057)">
    <g
       transform="translate(-555.64666,-277.1242)"
       id="g1157">
      <path
         inkscape:connector-curvature="0"
         style="fill:#043689"
         d="m 935.506,375.611 c -4.791,-7.542 -10.873,-13.808 -18.306,-18.838 -7.868,-5.31 -16.319,-9.301 -25.337,-11.923 l -15.935,16.592 c 2.21,1.578 4.22,3.236 6.047,4.939 7.509,6.625 11.656,14.915 12.394,24.885 0.076,0.842 0.153,1.686 0.229,2.529 0.789,4.724 2.628,9.093 5.513,13.089 0.856,1.17 1.766,2.33 2.72,3.449 1.525,1.507 3.252,2.815 5.12,3.925 3.181,1.888 6.607,2.989 10.218,3.291 3.52,0.269 6.865,-0.251 10.011,-1.556 3.111,-1.325 5.696,-3.293 7.784,-5.911 0.06,-0.1 0.148,-0.179 0.234,-0.283 2.273,-2.972 3.674,-6.532 4.229,-10.681 0.145,-0.955 0.225,-1.949 0.273,-2.963 0.028,-0.76 0.03,-1.511 0.026,-2.289 0.006,-2.7 -0.281,-5.354 -0.891,-7.952 -0.86,-3.702 -2.324,-7.142 -4.329,-10.303"
         id="path1159" />
      <path
         inkscape:connector-curvature="0"
         style="fill:none;stroke:#043689;stroke-width:2.1566;stroke-linecap:round;stroke-linejoin:round;stroke-miterlimit:10"
         d="m 917.2,356.773 c -7.87,-5.31 -16.319,-9.301 -25.337,-11.923 l -15.935,16.593 c 2.21,1.578 4.22,3.236 6.047,4.939 7.509,6.625 11.656,14.916 12.394,24.885 0.076,0.842 0.153,1.686 0.229,2.529 0.789,4.724 2.628,9.093 5.513,13.089 0.856,1.17 1.766,2.33 2.72,3.449 1.525,1.505 3.252,2.815 5.12,3.925 3.181,1.888 6.607,2.989 10.218,3.291 3.52,0.269 6.865,-0.251 10.011,-1.556 3.111,-1.325 5.696,-3.291 7.784,-5.911 0.06,-0.1 0.148,-0.179 0.234,-0.283 2.273,-2.972 3.674,-6.532 4.229,-10.681 0.145,-0.955 0.225,-1.949 0.273,-2.963 0.028,-0.76 0.03,-1.511 0.026,-2.289 0.006,-2.7 -0.281,-5.354 -0.891,-7.952 -0.86,-3.704 -2.324,-7.143 -4.329,-10.304 -4.791,-7.542 -10.873,-13.808 -18.306,-18.838 z"
         id="path1161" />
      <path
         inkscape:connector-curvature="0"
         style="fill:#043689"
         d="m 907.416,356.893 c 0.047,0.125 0.092,0.253 0.161,0.35 0.098,0.118 0.218,0.208 0.364,0.292 0.234,0.125 0.504,0.138 0.785,0.067 0.281,-0.096 0.469,-0.259 0.618,-0.521 10.379,-19.078 18.11,-39.569 23.195,-61.476 0.124,-0.581 0.255,-1.135 0.405,-1.721 0.457,-1.914 1.057,-3.771 1.771,-5.566 0.019,-0.056 0.062,-0.116 0.08,-0.172 l 1.863,-0.23 c 2.306,-0.486 4.479,-1.326 6.534,-2.576 2.977,-1.711 4.771,-3.269 5.441,-4.655 0.765,-1.481 1.097,-2.628 0.999,-3.442 0.037,-0.808 -0.66,-1.879 -2.092,-3.185 -0.44,-0.44 -0.997,-0.757 -1.661,-0.896 1.521,-1.436 2.349,-3.194 2.52,-5.226 0.015,-0.083 0.028,-0.165 0.017,-0.244 -0.2,-1.493 -0.948,-2.529 -2.27,-3.13 -2.958,-1.849 -5.807,-1.762 -8.573,0.266 0.045,-0.061 0.09,-0.121 0.11,-0.151 0.478,-1.972 0.285,-3.575 -0.568,-4.781 -0.832,-1.425 -2.412,-2.307 -4.794,-2.666 -3.665,-0.885 -6.087,1.999 -7.266,8.651 -0.394,2.147 -0.5,4.249 -0.375,6.29 0.038,0.609 0.1,1.188 0.179,1.71 -0.508,-0.002 -0.96,0.014 -1.359,0.022 l -0.028,0.003 c -3.317,0.159 -5.24,1.763 -5.746,4.756 -0.403,1.907 -0.36,3.425 0.127,4.501 0.557,1.546 1.688,2.47 3.387,2.746 l 0.053,-0.008 c 0.246,0.043 0.733,0.077 1.398,0.055 l 0.683,0.27 -1.005,5.156 c 0.009,0.051 -0.008,0.108 -0.026,0.164 -4.532,21.127 -11.931,40.818 -22.2,59.049 -0.149,0.263 -0.192,0.51 -0.067,0.786 0.069,0.284 0.206,0.477 0.469,0.623 0.062,0.044 0.12,0.088 0.202,0.103 0.087,0.041 0.195,0.051 0.277,0.064 0.132,-0.02 0.236,-0.036 0.34,-0.052 0.18,-0.054 0.328,-0.13 0.465,-0.284 0.071,-0.064 0.11,-0.151 0.151,-0.237 0.019,-0.057 0.062,-0.117 0.086,-0.147 10.328,-18.373 17.784,-38.208 22.392,-59.533 0.27,-1.218 0.538,-2.436 0.754,-3.645 0.019,-0.404 0.082,-0.869 0.172,-1.337 0.191,-1.019 0.336,-2.004 0.475,-3.015 l -0.026,0.004 c -0.418,-0.123 -1.035,-0.136 -1.807,-0.099 -0.051,0.008 -0.104,0.016 -0.161,-0.002 -1.14,0.067 -1.912,0.078 -2.295,0.03 -1.809,-0.286 -2.429,-1.903 -1.855,-4.799 0.396,-1.959 1.68,-3.012 3.833,-3.099 1.117,-0.037 2.495,0.047 4.126,0.226 -0.521,-0.803 -0.813,-2.176 -0.925,-4.138 -0.127,-1.88 0.004,-3.826 0.37,-5.808 0.839,-5.022 2.461,-7.356 4.869,-7.002 3.291,0.515 4.481,2.366 3.58,5.58 -0.032,0.138 -0.135,0.341 -0.281,0.604 -0.229,0.784 -0.487,1.545 -0.774,2.285 -0.359,0.804 -0.605,1.644 -0.77,2.498 -0.079,0.359 -0.132,0.715 -0.154,1.092 0.418,-0.598 0.891,-1.178 1.391,-1.762 0.568,-0.649 1.176,-1.223 1.869,-1.757 0.455,-0.364 0.913,-0.675 1.428,-0.993 0.681,-0.453 1.402,-0.803 2.148,-0.998 0.075,-0.038 0.126,-0.046 0.184,-0.028 1.453,-0.462 2.928,-0.26 4.426,0.608 0.029,0.022 0.084,0.041 0.141,0.059 0.659,0.273 1.023,0.753 1.16,1.455 -0.073,0.412 -0.193,0.832 -0.345,1.256 -0.04,0.087 -0.075,0.199 -0.113,0.312 -0.058,0.142 -0.116,0.285 -0.182,0.375 -0.123,0.26 -0.273,0.497 -0.427,0.708 -0.244,0.332 -0.489,0.663 -0.784,1.001 -0.118,0.1 -0.208,0.219 -0.296,0.34 -0.092,0.094 -0.186,0.188 -0.253,0.279 -0.118,0.097 -0.24,0.17 -0.334,0.264 -0.116,0.099 -0.215,0.167 -0.306,0.261 -0.119,0.099 -0.241,0.172 -0.361,0.269 -0.148,0.077 -0.294,0.178 -0.438,0.281 -0.148,0.076 -0.294,0.179 -0.412,0.277 -0.287,0.23 -0.572,0.462 -0.831,0.688 -0.457,0.337 -0.832,0.688 -1.117,1.08 -0.343,0.4 -0.657,0.795 -0.94,1.214 -0.067,0.09 -0.133,0.18 -0.22,0.301 0.189,-0.163 0.381,-0.299 0.604,-0.414 0.793,-0.416 1.618,-0.782 2.505,-1.105 1.02,-0.343 2.029,-0.39 2.999,-0.164 0.851,0.138 1.497,0.521 1.998,1.167 0.166,0.215 0.307,0.434 0.425,0.684 0.053,0.179 0.081,0.361 0.079,0.522 -0.026,0.003 -0.026,0.003 -0.047,0.034 -0.002,0.508 -0.267,1.244 -0.736,2.198 -0.634,1.087 -2.179,2.366 -4.658,3.814 -2.041,1.194 -4.184,2.029 -6.491,2.516 -0.598,0.118 -1.177,0.179 -1.764,0.189 l -1.04,0.024 -2.249,8.395 c -5.016,21.814 -12.681,42.216 -22.985,61.254 -0.067,0.09 -0.086,0.147 -0.104,0.204 -0.151,0.265 -0.166,0.508 -0.097,0.792"
         id="path1163" />
      <path
         inkscape:connector-curvature="0"
         style="fill:#0e5cab"
         d="m 907.577,357.243 c -0.067,-0.098 -0.114,-0.224 -0.161,-0.351 -0.069,-0.284 -0.054,-0.526 0.094,-0.79 0.018,-0.057 0.036,-0.113 0.104,-0.203 10.305,-19.039 17.97,-39.44 22.985,-61.255 l 2.249,-8.395 1.04,-0.025 c 0.587,-0.009 1.166,-0.07 1.764,-0.188 2.308,-0.487 4.452,-1.322 6.491,-2.516 2.479,-1.448 4.024,-2.728 4.658,-3.814 0.47,-0.954 0.734,-1.689 0.736,-2.198 0.021,-0.03 0.021,-0.03 0.047,-0.034 0.002,-0.161 -0.026,-0.343 -0.079,-0.522 -0.118,-0.25 -0.259,-0.469 -0.425,-0.684 -0.501,-0.646 -1.147,-1.028 -1.998,-1.166 -0.97,-0.226 -1.979,-0.179 -2.999,0.163 -0.887,0.322 -1.712,0.69 -2.505,1.104 -0.223,0.114 -0.414,0.251 -0.604,0.414 0.087,-0.121 0.152,-0.211 0.22,-0.301 0.285,-0.417 0.598,-0.813 0.94,-1.213 0.285,-0.392 0.66,-0.743 1.117,-1.081 0.259,-0.227 0.544,-0.458 0.831,-0.688 0.118,-0.098 0.266,-0.201 0.412,-0.277 0.145,-0.102 0.29,-0.205 0.438,-0.28 0.12,-0.098 0.242,-0.171 0.361,-0.269 0.091,-0.094 0.189,-0.163 0.306,-0.261 0.094,-0.095 0.216,-0.167 0.334,-0.265 0.067,-0.09 0.161,-0.185 0.253,-0.279 0.088,-0.121 0.178,-0.241 0.296,-0.339 0.295,-0.34 0.54,-0.671 0.784,-1.002 0.153,-0.211 0.304,-0.448 0.427,-0.708 0.065,-0.089 0.124,-0.232 0.182,-0.375 0.038,-0.112 0.073,-0.225 0.113,-0.312 0.151,-0.424 0.271,-0.844 0.345,-1.256 -0.137,-0.701 -0.501,-1.18 -1.16,-1.455 -0.057,-0.018 -0.111,-0.037 -0.141,-0.058 -1.498,-0.869 -2.973,-1.072 -4.426,-0.608 -0.058,-0.019 -0.108,-0.011 -0.184,0.028 -0.746,0.194 -1.468,0.545 -2.148,0.997 -0.515,0.319 -0.973,0.629 -1.428,0.993 -0.693,0.534 -1.301,1.109 -1.869,1.757 -0.5,0.585 -0.973,1.165 -1.391,1.763 0.022,-0.377 0.075,-0.734 0.154,-1.093 0.164,-0.854 0.41,-1.694 0.77,-2.498 0.289,-0.74 0.546,-1.501 0.774,-2.285 0.146,-0.263 0.249,-0.466 0.283,-0.604 0.899,-3.215 -0.291,-5.065 -3.582,-5.581 -2.408,-0.354 -4.03,1.98 -4.869,7.002 -0.366,1.981 -0.497,3.927 -0.37,5.808 0.111,1.963 0.403,3.335 0.925,4.138 -1.631,-0.179 -3.009,-0.262 -4.126,-0.226 -2.153,0.088 -3.438,1.14 -3.833,3.099 -0.573,2.897 0.047,4.514 1.855,4.799 0.383,0.048 1.155,0.037 2.295,-0.029 0.058,0.017 0.11,0.01 0.161,10e-4 0.771,-0.038 1.389,-0.025 1.807,0.099 l 0.028,-0.004 c -0.141,1.011 -0.285,1.996 -0.475,3.015 -0.09,0.468 -0.153,0.933 -0.174,1.337 -0.216,1.209 -0.484,2.427 -0.754,3.645 -4.607,21.325 -12.063,41.16 -22.392,59.534 -0.023,0.03 -0.067,0.09 -0.086,0.147 -0.041,0.086 -0.08,0.173 -0.151,0.237 -0.137,0.155 -0.285,0.23 -0.465,0.285 -0.104,0.016 -0.208,0.032 -0.34,0.052 -0.082,-0.014 -0.19,-0.024 -0.277,-0.064 0.143,0.406 0.385,0.77 0.76,1.114 0.037,0.074 0.099,0.119 0.155,0.137 0.1,0.145 0.257,0.282 0.412,0.419 1.084,0.984 2.212,1.882 3.432,2.686 0.777,0.522 1.46,0.792 2.074,0.779 m 25.884,-74.697 -0.026,0.003 0.026,-0.003 z"
         id="path1165" />
      <path
         inkscape:connector-curvature="0"
         style="fill:#043689"
         d="m 936.385,400.973 1.649,-2.365 c 1.346,0.748 2.659,1.588 3.89,2.495 0.388,0.273 0.794,0.569 1.183,0.843 4.843,3.483 9.116,7.11 12.824,10.846 0.155,0.148 0.288,0.32 0.459,0.493 1.812,1.812 3.464,3.685 4.999,5.58 0.017,0.022 0.017,0.022 0.035,0.043 0.817,1.164 1.641,2.292 2.46,3.454 l 4.877,8.108 c 2.414,0.93 4.744,2.059 6.961,3.35 l -0.017,-0.021 c 3.272,1.886 6.189,4.23 8.759,7.087 1.694,1.839 3.254,4.024 4.667,6.632 0.609,1.158 1.035,2.259 1.271,3.338 -0.004,0.036 0.015,0.057 0.011,0.094 0.034,0.349 0.092,0.681 0.128,1.027 0.437,3.45 -0.885,5.797 -3.969,7.04 -0.06,0.013 -0.116,0.024 -0.178,0.037 -0.037,-0.005 -0.079,0.03 -0.116,0.024 -2.74,0.905 -5.937,0.493 -9.533,-1.244 -3.473,-1.661 -6.59,-3.572 -9.354,-5.725 -2.152,-1.683 -4.216,-3.468 -6.171,-5.374 -0.512,-0.521 -1.04,-1.059 -1.587,-1.617 l -0.016,-0.022 c -1.745,-1.902 -2.744,-4.804 -2.959,-8.703 -4.87,-9.652 -11.333,-18.421 -19.443,-26.295 l -4.145,-3.592 1.131,-2.027 -0.026,0.398 c 1.941,1.371 3.715,2.838 5.287,4.434 7.996,7.895 14.397,16.678 19.211,26.342 0.063,0.122 0.101,0.298 0.118,0.454 0.163,3.358 0.959,5.874 2.39,7.511 0.514,0.519 1.021,1.075 1.535,1.591 1.904,1.845 3.896,3.586 5.998,5.203 2.661,2.065 5.653,3.904 8.963,5.49 3.054,1.482 5.741,1.852 8.039,1.125 0.043,-0.032 0.083,-0.064 0.122,-0.061 l 0.037,0.004 c 1.967,-0.84 2.821,-2.438 2.538,-4.744 l -0.006,0.038 c -0.037,-0.349 -0.076,-0.658 -0.116,-0.968 -0.184,-0.881 -0.534,-1.801 -1.036,-2.736 -1.319,-2.442 -2.779,-4.502 -4.373,-6.216 l -0.019,-0.021 c -2.397,-2.686 -5.138,-4.894 -8.214,-6.665 -1.772,-1.025 -3.576,-1.923 -5.45,-2.693 l -1.929,-0.836 -3.409,-5.646 c -1.035,-1.743 -2.158,-3.421 -3.331,-4.988 -1.584,-2.131 -3.278,-4.142 -5.074,-6.106 -4.103,-4.275 -8.931,-8.388 -14.468,-12.314 l -3.974,-2.602 -0.255,0.067 -0.374,0.433 z"
         id="path1167" />
      <path
         inkscape:connector-curvature="0"
         style="fill:#0e5cab"
         d="m 937.015,400.473 3.974,2.602 c 5.537,3.927 10.365,8.039 14.468,12.314 1.796,1.965 3.49,3.976 5.074,6.106 1.173,1.567 2.296,3.245 3.331,4.988 l 3.409,5.646 1.929,0.836 c 1.874,0.771 3.678,1.668 5.45,2.693 3.076,1.771 5.816,3.979 8.216,6.665 l 0.017,0.021 c 1.594,1.712 3.054,3.773 4.373,6.216 0.502,0.936 0.853,1.855 1.036,2.736 0.04,0.31 0.079,0.619 0.118,0.968 l 0.004,-0.038 c 0.283,2.306 -0.571,3.904 -2.538,4.744 l -0.037,-0.004 c -0.039,-0.004 -0.079,0.028 -0.122,0.061 -2.298,0.727 -4.985,0.357 -8.039,-1.125 -3.31,-1.586 -6.302,-3.425 -8.963,-5.49 -2.102,-1.617 -4.094,-3.358 -5.998,-5.203 -0.512,-0.516 -1.021,-1.072 -1.535,-1.591 -1.431,-1.637 -2.227,-4.152 -2.39,-7.511 -0.018,-0.156 -0.055,-0.332 -0.118,-0.454 -4.813,-9.664 -11.215,-18.447 -19.209,-26.342 -1.574,-1.596 -3.348,-3.062 -5.289,-4.434 l 0.026,-0.398 0.641,-1.225 c 0.232,-0.354 0.446,-0.73 0.662,-1.105 l 0.881,-1.176 0.375,-0.435 0.254,-0.065 z"
         id="path1169" />
      <path
         inkscape:connector-curvature="0"
         style="fill:#0e5cab"
         d="m 911.622,408.767 c -0.005,0.173 -0.011,0.343 -0.015,0.514 -0.44,18.714 -4.308,36.056 -11.603,52.064 l -0.161,0.354 0.105,0.371 c 0.787,2.952 0.479,5.006 -0.887,6.159 -0.071,0.043 -0.141,0.125 -0.23,0.19 -1.606,1.019 -3.237,1.948 -4.879,2.765 l 0.019,-0.021 c -3.072,1.425 -6.198,2.626 -9.421,3.569 -3.224,0.942 -6.661,1.562 -10.335,1.88 -3.354,0.27 -5.966,-0.373 -7.829,-1.851 l -0.022,-0.019 -0.002,-0.037 -0.081,-0.069 -0.058,-0.014 c -1.563,-1.505 -1.781,-3.271 -0.656,-5.295 l 0.034,-0.041 c 0.129,-0.277 0.26,-0.553 0.429,-0.793 l 0.034,-0.043 c 0.492,-0.74 1.15,-1.476 1.949,-2.167 2.447,-2.094 4.938,-3.66 7.415,-4.677 2.604,-1.12 5.274,-2.078 7.999,-2.886 l 0.055,-0.024 c 0.202,-0.071 0.387,-0.124 0.572,-0.177 0.147,-0.051 0.275,-0.118 0.406,-0.147 0.105,-0.085 0.216,-0.132 0.326,-0.177 0.055,-0.024 0.11,-0.047 0.165,-0.071 0.017,-0.021 0.017,-0.021 -0.004,-0.037 0.553,-0.197 1.107,-0.394 1.666,-0.514 11.243,-9.387 18.114,-25.267 20.646,-47.639 0.024,-0.154 0.032,-0.287 0.041,-0.422 0.01,-0.133 0,-0.247 -0.011,-0.358 0.543,-0.101 1.085,-0.202 1.609,-0.281 0.88,-0.129 1.761,-0.258 2.642,-0.384 0.039,-0.004 0.075,-0.009 0.114,-0.011 -0.03,0.081 -0.041,0.176 -0.032,0.289"
         id="path1171" />
      <path
         inkscape:connector-curvature="0"
         style="fill:#043689"
         d="m 911.607,409.28 c 0.004,-0.171 0.01,-0.343 0.015,-0.514 -0.009,-0.112 0.002,-0.208 0.034,-0.286 0.06,-0.195 0.159,-0.354 0.302,-0.48 0.21,-0.206 0.469,-0.304 0.772,-0.289 0.307,0.012 0.541,0.107 0.749,0.317 0.205,0.212 0.302,0.472 0.289,0.774 -0.392,19.071 -4.27,36.756 -11.653,53.074 1.062,4.236 0.285,7.05 -2.275,8.453 -0.056,0.022 -0.11,0.045 -0.165,0.069 -1.57,0.98 -3.148,1.884 -4.753,2.66 l -0.053,0.062 c -3.181,1.47 -6.42,2.681 -9.735,3.651 -3.354,0.973 -6.942,1.642 -10.727,1.968 -3.978,0.302 -7.054,-0.455 -9.248,-2.249 -0.02,-0.019 -0.04,-0.035 -0.061,-0.053 l -0.021,-0.017 c -0.082,-0.069 -0.143,-0.12 -0.221,-0.153 l 0.019,-0.02 c -2.44,-2.249 -2.823,-4.892 -1.155,-7.966 0.163,-0.318 0.33,-0.596 0.477,-0.892 l 0.03,-0.079 c 0.608,-0.922 1.411,-1.782 2.402,-2.658 2.626,-2.225 5.299,-3.882 7.978,-5.008 2.693,-1.147 5.421,-2.126 8.198,-2.958 0.313,-0.12 0.646,-0.225 0.979,-0.326 l 0.061,0.053 c 0.074,-0.045 0.129,-0.069 0.184,-0.092 0.241,-0.075 0.5,-0.137 0.759,-0.232 0.146,-0.049 0.277,-0.079 0.41,-0.107 10.896,-9.189 17.566,-24.747 19.981,-46.695 0.033,-0.287 0.166,-0.526 0.378,-0.731 0.25,-0.172 0.51,-0.27 0.795,-0.234 0.287,0.032 0.525,0.165 0.716,0.397 0.124,0.141 0.193,0.267 0.224,0.437 0.011,0.111 0.021,0.226 0.011,0.358 -0.009,0.135 -0.017,0.268 -0.041,0.422 -2.532,22.372 -9.403,38.252 -20.646,47.639 -0.559,0.12 -1.113,0.316 -1.664,0.514 0.019,0.017 0.019,0.017 0.002,0.037 -0.055,0.024 -0.11,0.047 -0.165,0.069 -0.11,0.047 -0.221,0.094 -0.326,0.179 -0.131,0.031 -0.259,0.097 -0.406,0.147 -0.186,0.053 -0.37,0.105 -0.572,0.177 l -0.055,0.024 c -2.725,0.808 -5.396,1.766 -7.999,2.886 -2.477,1.017 -4.968,2.583 -7.415,4.677 -0.799,0.691 -1.457,1.427 -1.949,2.167 l -0.034,0.043 c -0.171,0.24 -0.3,0.516 -0.429,0.793 l -0.034,0.041 c -1.125,2.024 -0.907,3.79 0.656,5.295 l 0.058,0.014 0.081,0.069 0.002,0.037 0.024,0.055 -0.002,-0.036 c 1.863,1.478 4.476,2.12 7.829,1.851 3.674,-0.317 7.111,-0.938 10.335,-1.88 3.223,-0.943 6.351,-2.145 9.421,-3.569 l -0.019,0.021 c 1.642,-0.816 3.272,-1.746 4.879,-2.765 0.09,-0.065 0.159,-0.147 0.23,-0.19 1.366,-1.153 1.674,-3.207 0.887,-6.159 l -0.105,-0.371 0.161,-0.354 c 7.293,-16.011 11.16,-33.353 11.6,-52.067"
         id="path1173" />
      <path
         inkscape:connector-curvature="0"
         style="fill:#043689"
         d="m 905.501,285.189 c -3.908,-3.708 -8.324,-6.499 -13.194,-8.376 l -0.027,0.001 c -5.086,-1.916 -10.32,-2.723 -15.751,-2.389 -5.434,0.334 -10.528,1.776 -15.345,4.302 -4.63,2.46 -8.671,5.771 -12.12,9.931 -3.428,4.106 -5.962,8.775 -7.656,14.009 -1.765,5.347 -2.471,10.897 -2.118,16.651 0.354,5.727 1.733,11.148 4.144,16.265 2.317,4.934 5.404,9.257 9.312,12.966 v 0.026 c 3.936,3.68 8.349,6.443 13.246,8.318 5.087,1.917 10.32,2.723 15.754,2.389 5.432,-0.333 10.526,-1.775 15.342,-4.301 l 0.026,-10e-4 c 4.604,-2.459 8.645,-5.743 12.072,-9.875 l -0.002,-0.027 c 3.425,-4.16 5.985,-8.83 7.68,-14.011 1.741,-5.346 2.446,-10.896 2.094,-16.649 -0.354,-5.754 -1.734,-11.175 -4.116,-16.266 -2.323,-4.987 -5.437,-9.308 -9.341,-12.963 m -13.959,-6.421 c 4.648,1.783 8.813,4.427 12.52,7.933 3.709,3.506 6.673,7.594 8.871,12.322 2.288,4.883 3.599,10.04 3.935,15.526 0.339,5.486 -0.33,10.765 -2.004,15.864 -1.603,4.96 -4.041,9.408 -7.293,13.342 -3.25,3.933 -7.06,7.042 -11.458,9.381 -4.553,2.402 -9.384,3.747 -14.495,4.062 -5.113,0.313 -10.074,-0.429 -14.888,-2.255 -4.648,-1.783 -8.812,-4.401 -12.547,-7.905 -3.706,-3.506 -6.673,-7.621 -8.871,-12.348 -2.289,-4.882 -3.601,-10.04 -3.935,-15.5 -0.336,-5.486 0.33,-10.765 2.004,-15.891 1.603,-4.96 4.043,-9.382 7.295,-13.315 3.276,-3.936 7.087,-7.07 11.482,-9.409 4.553,-2.402 9.385,-3.747 14.498,-4.062 5.112,-0.315 10.073,0.428 14.886,2.255"
         id="path1175" />
      <path
         inkscape:connector-curvature="0"
         style="fill:#0e5cab"
         d="m 904.062,286.701 c -3.706,-3.506 -7.871,-6.15 -12.52,-7.933 -4.813,-1.826 -9.774,-2.569 -14.886,-2.255 -5.113,0.314 -9.945,1.66 -14.498,4.061 -4.396,2.339 -8.206,5.474 -11.482,9.41 -3.252,3.933 -5.692,8.354 -7.295,13.314 -1.674,5.127 -2.34,10.406 -2.004,15.892 0.334,5.46 1.646,10.617 3.935,15.5 2.198,4.727 5.165,8.842 8.871,12.348 3.735,3.504 7.898,6.123 12.547,7.905 4.813,1.826 9.774,2.568 14.888,2.255 5.111,-0.315 9.945,-1.66 14.495,-4.062 4.396,-2.338 8.208,-5.447 11.458,-9.381 3.252,-3.934 5.69,-8.38 7.293,-13.342 1.674,-5.099 2.343,-10.378 2.006,-15.864 -0.338,-5.486 -1.648,-10.643 -3.937,-15.526 -2.199,-4.727 -5.162,-8.816 -8.871,-12.322"
         id="path1177" />
      <path
         inkscape:connector-curvature="0"
         style="fill:#ffffff"
         d="m 904.818,294.176 c -2.675,-0.669 -5.068,-0.28 -7.207,1.195 -2.114,1.447 -3.325,3.563 -3.668,6.297 -0.316,2.732 0.354,5.324 2.035,7.745 1.651,2.423 3.814,3.956 6.516,4.622 2.673,0.669 5.066,0.28 7.205,-1.194 2.114,-1.447 3.327,-3.563 3.67,-6.296 0.315,-2.733 -0.354,-5.324 -2.033,-7.72 -1.653,-2.423 -3.818,-3.982 -6.518,-4.649"
         id="path1179" />
      <path
         inkscape:connector-curvature="0"
         style="fill:#ffffff"
         d="m 885.846,311.083 c 1.655,-2.788 2.1,-5.608 1.331,-8.49 -0.767,-2.88 -2.53,-4.922 -5.269,-6.176 -2.736,-1.256 -5.644,-1.346 -8.772,-0.267 -3.132,1.078 -5.509,3.025 -7.163,5.84 -1.655,2.788 -2.1,5.608 -1.331,8.489 0.769,2.88 2.532,4.948 5.271,6.204 2.736,1.256 5.668,1.317 8.8,0.238 3.099,-1.077 5.478,-3.023 7.133,-5.838"
         id="path1181" />
      <path
         inkscape:connector-curvature="0"
         style="fill:#282525"
         d="m 894.219,323.438 c -0.078,0.022 -0.157,0.029 -0.236,0.051 -2.863,0.728 -5.885,1.303 -9.064,1.694 0.263,-0.085 -0.472,-0.033 -2.19,0.166 -0.415,0.053 -0.862,0.093 -1.337,0.12 -1.517,0.091 -3.35,0.103 -5.505,0.038 -1.248,-0.055 -2.487,-0.142 -3.721,-0.289 -1.565,-0.194 -3.117,-0.482 -4.652,-0.845 -0.082,-0.024 -0.163,-0.046 -0.243,-0.055 -0.98,-0.231 -1.961,-0.493 -2.928,-0.802 0.771,0.372 1.56,0.727 2.355,1.035 1.307,0.522 2.628,0.966 3.965,1.332 0.628,0.172 1.254,0.33 1.891,0.469 0.636,0.14 1.28,0.251 1.922,0.345 0.885,0.133 1.768,0.222 2.657,0.279 2.23,0.15 4.049,0.123 5.462,-0.064 1.402,-0.188 2.373,-0.305 2.915,-0.368 0.532,-0.063 1.346,-0.136 2.444,-0.22 1.102,-0.083 2.732,-0.442 4.894,-1.077 2.114,-0.6 4.193,-1.425 6.24,-2.475 1.574,-0.794 3.102,-1.707 4.581,-2.737 0.459,-0.314 0.918,-0.644 1.364,-0.973 -0.501,0.272 -1.001,0.545 -1.494,0.803 -0.512,0.243 -1.023,0.487 -1.537,0.731 -2.546,1.201 -5.137,2.148 -7.783,2.842"
         id="path1183" />
      <path
         inkscape:connector-curvature="0"
         style="fill:#d8272a"
         d="m 899.087,322.772 c -2.047,1.05 -4.126,1.875 -6.24,2.475 -2.161,0.635 -3.792,0.994 -4.894,1.078 -1.099,0.083 -1.912,0.156 -2.444,0.219 -0.542,0.063 -1.513,0.181 -2.913,0.367 -1.415,0.188 -3.236,0.215 -5.464,0.065 -0.89,-0.057 -1.772,-0.146 -2.657,-0.279 -0.642,-0.094 -1.286,-0.205 -1.922,-0.345 -0.637,-0.14 -1.265,-0.297 -1.891,-0.469 -1.337,-0.366 -2.658,-0.81 -3.965,-1.332 -0.796,-0.308 -1.585,-0.663 -2.355,-1.035 -1.084,-0.343 -2.173,-0.716 -3.256,-1.152 -0.685,-0.289 -1.37,-0.576 -2.047,-0.896 -0.893,-0.421 -1.784,-0.843 -2.669,-1.295 0.493,0.396 0.995,0.792 1.505,1.157 0.197,0.149 0.396,0.284 0.605,0.432 1.166,0.823 2.357,1.583 3.563,2.28 0.549,0.315 1.105,0.615 1.67,0.899 0.751,0.373 1.499,0.731 2.266,1.059 0.613,0.264 1.235,0.512 1.867,0.745 0.969,0.353 1.943,0.662 2.924,0.922 0.375,0.103 0.74,0.192 1.115,0.296 0.787,0.188 1.584,0.345 2.377,0.471 0.082,0.008 0.161,0.031 0.253,0.039 0.905,0.146 1.816,0.233 2.726,0.288 2.23,0.149 4.05,0.123 5.462,-0.065 1.403,-0.186 2.371,-0.303 2.916,-0.368 0.532,-0.062 1.344,-0.135 2.444,-0.219 0.18,-0.015 0.377,-0.033 0.593,-0.068 1.057,-0.14 2.49,-0.482 4.301,-1.009 0.98,-0.27 1.944,-0.6 2.907,-0.975 1.117,-0.435 2.232,-0.931 3.333,-1.5 0.849,-0.426 1.687,-0.896 2.504,-1.395 0.036,-0.019 0.075,-0.053 0.124,-0.072 0.748,-0.447 1.484,-0.938 2.221,-1.446 0.602,-0.419 1.192,-0.852 1.771,-1.314 1.871,-1.46 3.664,-3.094 5.374,-4.905 l -0.564,0.37 c -0.324,0.089 -0.626,0.193 -0.907,0.294 -0.545,0.383 -1.091,0.766 -1.633,1.134 -0.738,0.477 -1.467,0.937 -2.208,1.369 -0.277,0.162 -0.567,0.309 -0.847,0.471 -0.446,0.329 -0.905,0.659 -1.364,0.974 -1.48,1.028 -3.007,1.941 -4.581,2.735"
         id="path1185" />
      <path
         inkscape:connector-curvature="0"
         style="fill:#282525"
         d="m 909.613,300.671 c -1.033,-1.324 -2.306,-2.033 -3.826,-2.146 -1.531,-0.114 -2.863,0.404 -4.001,1.557 -1.14,1.164 -1.734,2.61 -1.808,4.353 -0.076,1.743 0.399,3.266 1.423,4.591 1.035,1.325 2.308,2.034 3.829,2.148 1.521,0.114 2.842,-0.404 3.981,-1.557 1.138,-1.152 1.735,-2.599 1.809,-4.352 0.084,-1.744 -0.379,-3.268 -1.407,-4.594"
         id="path1187" />
      <path
         inkscape:connector-curvature="0"
         style="fill:#282525"
         d="m 885.395,302.066 c -1.129,-1.334 -2.526,-2.043 -4.197,-2.151 -1.683,-0.106 -3.148,0.426 -4.408,1.598 -1.258,1.183 -1.923,2.649 -2.013,4.411 -0.092,1.763 0.422,3.3 1.542,4.635 1.129,1.334 2.525,2.044 4.197,2.151 1.674,0.107 3.13,-0.425 4.388,-1.595 1.26,-1.172 1.923,-2.639 2.015,-4.412 0.099,-1.764 -0.405,-3.302 -1.524,-4.637"
         id="path1189" />
      <path
         inkscape:connector-curvature="0"
         style="fill:#db5284"
         d="m 886.869,311.721 c -1.941,2.349 -2.828,5.09 -2.635,8.221 0.191,3.13 1.411,5.769 3.623,7.862 2.214,2.093 4.822,3.034 7.771,2.853 2.948,-0.181 5.396,-1.432 7.336,-3.782 1.941,-2.348 2.826,-5.116 2.635,-8.247 -0.192,-3.13 -1.409,-5.743 -3.623,-7.835 -2.215,-2.094 -4.796,-3.036 -7.744,-2.854 -2.949,0.18 -5.396,1.432 -7.363,3.782"
         id="path1191" />
      <path
         inkscape:connector-curvature="0"
         style="fill:#043689"
         d="m 890.628,362.839 c 0.133,-0.026 0.268,-0.052 0.373,-0.105 0.135,-0.08 0.243,-0.187 0.351,-0.319 0.161,-0.214 0.217,-0.481 0.19,-0.775 -0.052,-0.294 -0.184,-0.509 -0.425,-0.698 -18.958,-14.531 -40.068,-26.208 -63.359,-35.005 0.161,-0.107 0.322,-0.213 0.457,-0.32 0.269,-0.186 0.483,-0.373 0.617,-0.505 1.315,-1.171 1.805,-2.561 1.438,-4.168 -0.184,-1.205 -0.952,-2.492 -2.365,-3.916 -2.077,-2.284 -4.562,-2.588 -7.46,-0.943 l -0.053,0.026 c -0.377,0.239 -0.752,0.479 -1.153,0.744 -0.239,-0.51 -0.478,-1.019 -0.77,-1.555 -1.035,-1.797 -2.313,-3.515 -3.777,-5.153 -4.632,-5.077 -8.266,-6.216 -10.899,-3.419 -1.801,1.571 -2.663,3.199 -2.592,4.858 -0.085,1.631 0.789,3.268 2.628,4.908 0.027,0 0.027,0.027 0.054,0.054 -0.402,0.025 -0.775,0.077 -1.15,0.155 -4.821,0.942 -7.054,3.928 -6.728,8.933 0.169,3.934 2.463,5.897 6.851,5.89 0.962,-0.022 1.873,-0.152 2.756,-0.389 0.448,1.366 1.087,2.494 1.91,3.379 2.557,3.035 6.435,3.079 11.638,0.158 l 0.216,-0.105 c 0.853,0.405 1.762,0.729 2.697,1.001 22.625,8.046 42.988,19.239 61.117,33.552 0.241,0.188 0.481,0.269 0.775,0.19 0.295,-0.024 0.509,-0.13 0.697,-0.371 0.055,-0.053 0.107,-0.107 0.134,-0.186 0.056,-0.081 0.082,-0.188 0.108,-0.267 0,-0.134 0.002,-0.241 0.002,-0.35 -0.026,-0.187 -0.079,-0.347 -0.212,-0.508 -0.051,-0.08 -0.133,-0.134 -0.212,-0.188 -0.053,-0.027 -0.108,-0.081 -0.133,-0.108 -16.744,-13.209 -35.399,-23.779 -55.991,-31.736 -1.603,-0.649 -3.231,-1.245 -4.86,-1.814 -1.629,-0.542 -3.261,-0.951 -4.892,-1.225 -4.318,2.521 -7.502,2.723 -9.552,0.546 -0.746,-0.833 -1.276,-1.853 -1.565,-3.058 -0.184,-0.884 -0.261,-1.552 -0.18,-1.953 -0.081,0.267 -0.536,0.533 -1.366,0.796 -0.992,0.343 -2.01,0.527 -3.08,0.575 -2.995,-0.013 -4.569,-1.331 -4.744,-3.954 -0.277,-3.8 1.417,-6.04 5.031,-6.747 2.677,-0.55 5.085,-0.352 7.222,0.594 -0.106,-0.481 -0.744,-1.154 -1.945,-1.988 -1.841,-1.373 -2.932,-2.18 -3.225,-2.476 -2.532,-2.205 -2.549,-4.425 -0.025,-6.635 1.855,-1.597 4.524,-0.488 8.013,3.3 1.358,1.504 2.5,3.088 3.43,4.724 0.982,1.743 1.484,3.083 1.453,4.019 1.289,-1.039 2.416,-1.835 3.409,-2.42 1.904,-1.061 3.562,-0.867 4.975,0.584 2.075,2.176 2.416,3.862 1.02,5.088 -0.322,0.238 -1.02,0.691 -2.118,1.328 -0.94,0.531 -1.505,0.983 -1.745,1.356 0.053,0.027 0.105,0.081 0.158,0.108 0.402,0.295 0.828,0.539 1.283,0.728 0.267,0.135 0.532,0.27 0.827,0.405 23.424,8.745 44.694,20.423 63.786,35.008 0.079,0.081 0.133,0.108 0.186,0.134 0.238,0.189 0.479,0.244 0.774,0.218"
         id="path1193" />
      <path
         inkscape:connector-curvature="0"
         style="fill:#0e5cab"
         d="m 891.001,362.734 c -0.105,0.054 -0.24,0.079 -0.373,0.105 -0.295,0.027 -0.536,-0.028 -0.776,-0.217 -0.053,-0.026 -0.106,-0.054 -0.186,-0.135 -19.092,-14.584 -40.362,-26.263 -63.786,-35.008 -0.295,-0.134 -0.561,-0.27 -0.827,-0.404 -0.455,-0.189 -0.881,-0.432 -1.283,-0.728 -0.053,-0.028 -0.105,-0.081 -0.158,-0.107 0.24,-0.374 0.805,-0.826 1.745,-1.356 1.099,-0.638 1.796,-1.09 2.118,-1.329 1.396,-1.225 1.056,-2.912 -1.02,-5.088 -1.413,-1.451 -3.07,-1.646 -4.975,-0.584 -0.993,0.584 -2.12,1.381 -3.409,2.42 0.031,-0.937 -0.471,-2.276 -1.453,-4.021 -0.93,-1.636 -2.071,-3.219 -3.43,-4.724 -3.488,-3.788 -6.159,-4.896 -8.013,-3.299 -2.523,2.209 -2.507,4.431 0.025,6.635 0.293,0.295 1.384,1.104 3.225,2.476 1.201,0.835 1.839,1.507 1.945,1.989 -2.137,-0.946 -4.545,-1.144 -7.222,-0.594 -3.614,0.707 -5.311,2.947 -5.031,6.747 0.175,2.623 1.749,3.941 4.744,3.954 1.07,-0.048 2.088,-0.231 3.08,-0.575 0.83,-0.264 1.285,-0.529 1.366,-0.796 -0.081,0.401 -0.004,1.07 0.18,1.953 0.289,1.206 0.819,2.225 1.563,3.057 2.052,2.176 5.235,1.976 9.554,-0.546 1.631,0.275 3.263,0.684 4.892,1.226 1.629,0.569 3.258,1.165 4.86,1.813 20.592,7.957 39.247,18.527 55.991,31.737 0.024,0.026 0.08,0.081 0.133,0.107 0.081,0.054 0.161,0.108 0.212,0.188 0.133,0.161 0.186,0.322 0.212,0.509 0,0.107 -0.002,0.215 -0.002,0.349 -0.026,0.08 -0.053,0.186 -0.108,0.267 0.429,-0.079 0.832,-0.264 1.233,-0.584 0.082,-0.025 0.135,-0.08 0.161,-0.132 0.161,-0.081 0.322,-0.214 0.485,-0.347 1.152,-0.931 2.227,-1.916 3.222,-3.009 0.648,-0.694 1.025,-1.334 1.106,-1.949"
         id="path1195" />
      <path
         inkscape:connector-curvature="0"
         style="fill:#0e5cab"
         d="m 934.836,376.033 c -4.555,-7.269 -10.37,-13.353 -17.463,-18.247 -7.492,-5.153 -15.556,-9.048 -24.206,-11.653 l -15.444,15.798 c 2.094,1.552 4.03,3.144 5.76,4.79 7.152,6.438 11.064,14.454 11.694,24.004 0.063,0.79 0.133,1.606 0.21,2.451 0.716,4.547 2.457,8.75 5.197,12.614 0.815,1.125 1.659,2.247 2.572,3.323 1.46,1.462 3.096,2.742 4.873,3.818 3.062,1.861 6.339,2.915 9.811,3.226 3.389,0.304 6.586,-0.151 9.607,-1.396 3.021,-1.244 5.522,-3.107 7.524,-5.623 0.084,-0.104 0.176,-0.184 0.239,-0.255 2.197,-2.842 3.578,-6.258 4.146,-10.241 0.153,-0.93 0.245,-1.872 0.273,-2.853 0.069,-0.713 0.077,-1.438 0.053,-2.185 0.035,-2.596 -0.229,-5.146 -0.783,-7.646 -0.82,-3.547 -2.17,-6.875 -4.063,-9.925"
         id="path1197" />
    </g>
  </g>
</svg>
