<?xml version="1.0" encoding="UTF-8" standalone="no"?>
<!-- Created with Inkscape (http://www.inkscape.org/) -->

<svg
   xmlns:dc="http://purl.org/dc/elements/1.1/"
   xmlns:cc="http://creativecommons.org/ns#"
   xmlns:rdf="http://www.w3.org/1999/02/22-rdf-syntax-ns#"
   xmlns:svg="http://www.w3.org/2000/svg"
   xmlns="http://www.w3.org/2000/svg"
   xmlns:sodipodi="http://sodipodi.sourceforge.net/DTD/sodipodi-0.dtd"
   xmlns:inkscape="http://www.inkscape.org/namespaces/inkscape"
   width="162.89905"
   height="200.33708"
   id="svg5696"
   version="1.1"
   inkscape:version="0.48.4 r9939"
   sodipodi:docname="grover2.svg">
  <defs
     id="defs5698">
    <clipPath
       id="SVGID_2_">
      <rect
         height="88.862999"
         width="111.498"
         y="518.96198"
         x="382.04999"
         id="use1087" />
    </clipPath>
    <clipPath
       id="SVGID_4_">
      <rect
         height="41.314999"
         width="49.584999"
         y="525.19397"
         x="389.84698"
         id="use1111" />
    </clipPath>
  </defs>
  <sodipodi:namedview
     id="base"
     pagecolor="#ffffff"
     bordercolor="#666666"
     borderopacity="1.0"
     inkscape:pageopacity="0.0"
     inkscape:pageshadow="2"
     inkscape:zoom="0.77472527"
     inkscape:cx="-40.114782"
     inkscape:cy="187.37569"
     inkscape:current-layer="layer1"
     inkscape:document-units="px"
     showgrid="false"
     inkscape:window-width="763"
     inkscape:window-height="591"
     inkscape:window-x="592"
     inkscape:window-y="97"
     inkscape:window-maximized="0"
     fit-margin-top="0"
     fit-margin-left="0"
     fit-margin-right="0"
     fit-margin-bottom="0" />
  <metadata
     id="metadata5701">
    <rdf:RDF>
      <cc:Work
         rdf:about="">
        <dc:format>image/svg+xml</dc:format>
        <dc:type
           rdf:resource="http://purl.org/dc/dcmitype/StillImage" />
        <dc:title></dc:title>
      </cc:Work>
    </rdf:RDF>
  </metadata>
  <g
     id="layer1"
     inkscape:label="Layer 1"
     inkscape:groupmode="layer"
     transform="translate(-358.05808,-72.145001)">
    <g
       transform="translate(-93.465293,35.924061)"
       id="g517">
      <path
         inkscape:connector-curvature="0"
         style="fill:#0160ad"
         d="m 491.952,229.714 c 2.025,-14.032 9.802,-30.143 23.312,-48.363 l -4.75,-4.366 c -10.719,10.17 -20.138,23.49 -28.254,39.984 -10.677,-0.026 -18.33,1.192 -22.971,3.643 -2.025,1.082 -3.407,2.286 -4.132,3.641 -0.7,1.314 -0.726,2.602 -0.082,3.86 1.424,2.806 5.2,4.517 11.333,5.12 6.544,0.628 15.06,-0.549 25.544,-3.519"
         id="path519" />
      <path
         inkscape:connector-curvature="0"
         style="fill:none;stroke:#043889;stroke-width:6.29699993;stroke-miterlimit:10"
         d="m 491.952,229.714 c -10.484,2.97 -19,4.147 -25.543,3.517 -6.133,-0.603 -9.909,-2.313 -11.333,-5.12 -0.644,-1.258 -0.618,-2.546 0.082,-3.86 0.725,-1.355 2.106,-2.559 4.132,-3.641 4.641,-2.451 12.294,-3.669 22.971,-3.643 8.116,-16.494 17.535,-29.813 28.254,-39.984 l 4.75,4.366 c -13.511,18.222 -21.287,34.334 -23.313,48.365 z"
         id="path521" />
      <path
         inkscape:connector-curvature="0"
         style="fill:#043889"
         d="m 533.838,178.765 -15.181,4.75 3.642,3.709 c 9.129,8.965 12.086,16.795 8.883,23.489 V 210.7 c -3.97,7.487 -8.61,14.496 -13.936,21.025 l 3.656,1.027 c 10.964,3.107 19.861,4.312 26.706,3.614 7.61,-0.754 12.223,-3.026 13.839,-6.832 1.136,-2.203 1.107,-4.462 -0.11,-6.749 l -0.014,-0.026 c -0.916,-1.848 -2.724,-3.492 -5.421,-4.929 h -0.013 c -2.478,-1.354 -5.778,-2.368 -9.882,-3.039 4.489,-12.032 0.86,-23.613 -10.883,-34.741 l -1.286,-1.285 z m -1.739,7.144 c 9.487,9.638 11.647,19.658 6.517,30.047 l -1.848,4.107 4.339,0.452 c 5.132,0.506 9.074,1.464 11.839,2.887 v -0.013 c 1.356,0.726 2.3,1.506 2.834,2.369 0.165,0.314 0.18,0.629 0.056,0.932 -1.218,1.82 -4.161,2.955 -8.828,3.407 h -0.015 c -5.174,0.465 -11.649,-0.232 -19.411,-2.107 2.999,-3.71 6.051,-8.487 9.158,-14.333 4.573,-8.035 2.422,-17.097 -6.461,-27.185 l 1.82,-0.563 z"
         id="path523" />
      <path
         inkscape:connector-curvature="0"
         style="fill:#0160ad"
         d="m 530.278,186.472 1.82,-0.562 c 9.487,9.638 11.647,19.658 6.517,30.047 l -1.848,4.107 4.337,0.451 c 5.134,0.506 9.076,1.464 11.841,2.888 v -0.013 c 1.356,0.726 2.3,1.506 2.834,2.369 0.165,0.314 0.18,0.629 0.056,0.931 -1.218,1.821 -4.161,2.956 -8.828,3.408 h -0.015 c -5.174,0.465 -11.649,-0.232 -19.409,-2.107 2.997,-3.711 6.049,-8.487 9.156,-14.333 4.573,-8.036 2.42,-17.098 -6.461,-27.186"
         id="path525" />
      <polyline
         style="fill:none;stroke:#043889;stroke-width:6.21350002;stroke-miterlimit:10"
         points="585.975,87.822 531.915,118.243    535.689,125.759 590.227,95.117  "
         id="polyline527" />
      <path
         inkscape:connector-curvature="0"
         style="fill:#0160ad"
         d="m 505.839,118.799 c -5.035,1.288 -9.882,3.082 -14.562,5.397 -4.689,2.303 -8.606,5.848 -11.784,10.627 -3.169,4.773 -3.891,9.865 -2.165,15.277 1.653,5.185 5.617,10.035 11.889,14.53 0.751,-1.395 1.431,-4.175 2.08,-8.336 -3.914,-2.562 -5.965,-5.614 -6.177,-9.167 -1.676,-14.379 7.855,-23.051 49.808,-26.02 2.326,-2.446 2.866,-5.245 1.612,-8.397 -12.12,1.202 -10.092,2.173 -15.13,2.921 -5.362,0.833 -10.556,1.879 -15.571,3.168"
         id="path529" />
      <path
         inkscape:connector-curvature="0"
         style="fill:none;stroke:#043889;stroke-width:6.25990009;stroke-miterlimit:10"
         d="m 505.839,118.799 c 5.016,-1.289 10.209,-2.335 15.57,-3.167 5.038,-0.748 9.642,-1.719 21.761,-2.921 1.249,3.152 0.713,5.951 -1.613,8.397 -41.954,2.969 -58.113,11.641 -56.438,26.02 0.212,3.553 2.263,6.605 6.177,9.167 -0.649,4.161 -1.329,6.941 -2.08,8.336 -6.271,-4.496 -10.235,-9.346 -11.889,-14.53 -1.726,-5.412 -1.004,-10.504 2.165,-15.277 3.178,-4.779 7.095,-8.324 11.784,-10.627 4.681,-2.317 9.528,-4.11 14.563,-5.398 z"
         id="path531" />
      <path
         inkscape:connector-curvature="0"
         style="fill:#0160ad"
         d="m 505.839,118.799 c -5.035,1.288 -9.882,3.082 -14.562,5.397 -4.689,2.303 -8.606,5.848 -11.784,10.627 -3.169,4.773 -3.891,9.865 -2.165,15.277 1.653,5.185 5.617,10.035 11.889,14.53 0.751,-1.395 1.431,-4.175 2.08,-8.336 -3.914,-2.562 -5.965,-5.614 -6.177,-9.167 -1.676,-14.379 14.483,-23.051 56.438,-26.02 2.326,-2.446 2.862,-5.245 1.613,-8.397 -12.119,1.202 -16.723,2.173 -21.761,2.921 -5.362,0.833 -10.556,1.879 -15.571,3.168"
         id="path533" />
      <path
         inkscape:connector-curvature="0"
         style="fill:#0160ad"
         d="m 534.64,115.223 c -1.611,-8.238 -2.928,-12.885 -3.939,-13.926 -1.68,-1.785 -4.405,-2.336 -8.189,-1.659 -0.997,0.314 -1.75,0.553 -2.253,0.703 0.271,0.315 -0.312,1.902 -1.727,4.782 -1.089,2.221 -3.45,6.789 -7.079,13.69 -8.09,15.758 -13.03,28.011 -14.824,36.762 -2.022,9.892 -0.534,18.195 4.479,24.914 2.171,2.903 4.821,5.157 7.963,6.762 3.055,1.551 6.245,2.334 9.561,2.322 3.387,-0.03 6.551,-0.908 9.488,-2.632 3.132,-1.835 5.721,-4.52 7.768,-8.041 4.798,-8.229 6.035,-19.682 3.733,-34.329 -2.097,-13.375 -3.763,-23.154 -4.981,-29.348"
         id="path535" />
      <path
         inkscape:connector-curvature="0"
         style="fill:#0160ad"
         d="m 519.928,100.322 c -0.704,0.287 -0.594,0.29 0.33,0.02 -0.088,-0.067 -0.198,-0.07 -0.33,-0.02"
         id="path537" />
      <path
         inkscape:connector-curvature="0"
         style="fill:none;stroke:#043889;stroke-width:6.28989983;stroke-miterlimit:10"
         d="m 534.64,115.223 c 1.219,6.195 2.885,15.973 4.98,29.349 2.302,14.647 1.064,26.101 -3.733,34.329 -2.047,3.521 -4.636,6.206 -7.768,8.041 -2.938,1.725 -6.102,2.602 -9.488,2.632 -3.315,0.013 -6.506,-0.771 -9.561,-2.322 -3.142,-1.605 -5.792,-3.859 -7.963,-6.762 -5.014,-6.718 -6.502,-15.022 -4.479,-24.914 1.794,-8.751 6.734,-21.004 14.824,-36.762 3.629,-6.901 5.99,-11.469 7.079,-13.69 1.414,-2.88 1.997,-4.467 1.727,-4.782 0.503,-0.15 1.256,-0.389 2.253,-0.703 3.784,-0.678 6.51,-0.126 8.189,1.659 1.012,1.039 2.328,5.686 3.94,13.925 z"
         id="path539" />
      <path
         inkscape:connector-curvature="0"
         style="fill:#0160ad"
         d="m 491.952,229.714 c 2.025,-14.032 9.802,-30.143 23.312,-48.363 l -4.75,-4.366 c -10.719,10.17 -20.138,23.49 -28.254,39.984 -10.677,-0.026 -18.33,1.192 -22.971,3.643 -2.025,1.082 -3.407,2.286 -4.132,3.641 -0.7,1.314 -0.726,2.602 -0.082,3.86 1.424,2.806 5.2,4.517 11.333,5.12 6.544,0.628 15.06,-0.549 25.544,-3.519"
         id="path541" />
      <path
         inkscape:connector-curvature="0"
         style="fill:#0160ad"
         d="m 558.561,224.252 c 0.697,1.314 0.724,2.602 0.079,3.86 -1.423,2.806 -5.2,4.517 -11.333,5.12 -6.543,0.628 -14.743,-0.479 -24.586,-3.312 3.327,-3.985 7.076,-9.897 11.239,-17.741 4.161,-7.844 1.014,-16.919 -9.445,-27.2 l 8.446,-2.642 c 11.813,11.197 14.633,22.874 8.459,35.043 5.627,0.547 9.966,1.629 13.004,3.23 2.028,1.083 3.409,2.287 4.137,3.642"
         id="path543" />
      <polygon
         style="fill:#0160ad"
         points="586.897,87.37 531.915,118.243 534.315,126.538 588.515,95.9 "
         id="polygon545" />
      <path
         inkscape:connector-curvature="0"
         style="fill:#043889"
         d="m 583.01,88.912 c -1.209,-3.801 -1.484,-6.936 -0.817,-9.405 0.66,-2.458 2.218,-4.431 4.685,-5.9 l 0.019,-0.009 0.009,0.016 c 1.894,-1.006 3.533,-1.423 4.905,-1.277 1.357,0.141 2.72,0.886 4.102,2.228 1.398,-1.166 2.779,-2.227 4.11,-3.176 0.75,-0.545 1.743,-1.24 2.96,-2.099 l 0.035,-0.016 c 2.062,-1.349 3.886,-2 5.484,-1.95 1.659,0.041 3.127,0.807 4.43,2.304 l 0.09,0.115 c 0.734,0.952 1.183,1.882 1.336,2.761 0.143,0.818 0.047,1.687 -0.279,2.578 -0.422,1.621 -1.827,3.108 -4.192,4.443 l -0.026,-0.009 -3.666,2.322 c 0.81,0.583 1.426,1.383 1.844,2.403 l 0.008,0.018 c 0.944,1.959 0.946,3.925 0.013,5.917 l -0.024,-0.01 -0.088,0.184 c 1.174,1.289 1.755,2.543 1.749,3.749 -0.022,1.159 -0.591,2.409 -1.729,3.716 l -0.078,0.032 c -1.266,1.406 -2.479,2.211 -3.639,2.414 -1.064,0.206 -2.29,-0.087 -3.653,-0.877 -4.669,3.308 -9.55,2.978 -14.668,-0.994 l 1.493,-1.46 c 4.047,2.492 7.734,2.691 11.08,0.576 -0.389,-0.758 -0.31,-1.574 0.262,-2.473 -3.087,-0.934 -4.867,-2.614 -5.312,-5.033 -0.21,-1.148 -0.03,-2.271 0.498,-3.352 -2.682,-0.269 -4.481,-2.757 -5.391,-7.46 l 1.708,0.197 c 1.301,2.777 2.635,4.132 4.022,4.057 2.114,-0.811 2.742,-2.378 1.891,-4.717 -0.322,-0.567 -0.667,-1.071 -1.02,-1.506 l -0.056,-0.046 c -1.888,-2.389 -4.23,-2.845 -7.02,-1.367 l 0.024,-0.034 c -0.018,0.009 -0.018,0.009 -0.032,0.018 -3.599,2.147 -4.583,6.313 -2.934,12.475 l -2.133,0.647 0,0 z M 604.839,71.29 c -1.492,1.024 -3.859,2.891 -7.113,5.585 0.339,0.571 0.51,0.866 0.526,0.898 l 0.051,0.115 0.079,0.096 c 0.547,1.58 0.771,2.944 0.648,4.07 l 0.264,-0.168 0.026,-0.035 2.613,-1.408 7.642,-4.208 c 0.673,-0.389 1.14,-0.745 1.411,-1.065 0.199,-0.231 0.394,-0.619 0.591,-1.145 0.171,-0.844 -0.1,-1.747 -0.834,-2.698 0.015,-0.009 0.015,-0.009 0.007,-0.025 -1.52,-1.527 -3.499,-1.529 -5.917,0.013 l 0.063,-0.064 c -0.018,0.009 -0.037,0.031 -0.057,0.039 m -8.302,18.408 c 0.247,1.469 1.352,2.188 3.329,2.189 l 0.033,-0.017 h 0.042 c 0.043,-0.001 0.08,0.012 0.137,0.015 l 0.013,0.004 c 0.019,-0.008 0.045,-0.013 0.088,-0.014 l 0.038,0.011 c 2.229,-0.113 3.896,-0.982 5.014,-2.621 l 0.019,-0.02 c 0.019,-0.009 0.019,-0.009 0.022,-0.023 l 0.012,-0.037 c 0.208,-0.257 0.357,-0.545 0.474,-0.86 l 0.008,-0.024 c 0.549,-1.102 0.559,-2.181 0.045,-3.258 -0.471,-1.023 -1.299,-1.639 -2.481,-1.85 l -1.812,1.005 c -3.38,1.74 -5.042,3.554 -5.009,5.46 l 0.028,0.04 z m 10.084,2.811 c -1.405,1.361 -3.213,2.171 -5.387,2.431 -0.061,0.668 0.129,1.22 0.564,1.655 0.013,0.003 0.021,0.021 0.035,0.067 0.118,0.066 0.246,0.15 0.388,0.237 1.352,0.645 2.737,0.217 4.159,-1.279 0.769,-1.031 0.845,-2.06 0.241,-3.111"
         id="path547" />
      <path
         inkscape:connector-curvature="0"
         style="fill:#f18900"
         d="m 604.839,71.29 -0.006,0.026 0.063,-0.064 c -0.018,0.008 -0.037,0.03 -0.057,0.038"
         id="path549" />
      <path
         inkscape:connector-curvature="0"
         style="fill:#0160ad"
         d="m 604.833,71.316 0.006,-0.026 c -1.492,1.024 -3.859,2.891 -7.113,5.585 0.339,0.571 0.51,0.866 0.526,0.898 l 0.051,0.115 0.079,0.096 c 0.547,1.58 0.771,2.944 0.648,4.07 l 0.264,-0.168 0.026,-0.035 2.613,-1.408 7.642,-4.208 c 0.673,-0.389 1.14,-0.745 1.411,-1.065 0.199,-0.231 0.394,-0.619 0.591,-1.145 0.171,-0.844 -0.1,-1.747 -0.834,-2.698 0.015,-0.009 0.015,-0.009 0.007,-0.025 -1.52,-1.526 -3.499,-1.528 -5.917,0.014"
         id="path551" />
      <path
         inkscape:connector-curvature="0"
         style="fill:#0160ad"
         d="m 596.507,89.659 0.03,0.039 c 0.247,1.468 1.352,2.188 3.329,2.19 l 0.033,-0.017 h 0.042 c 0.043,-0.002 0.08,0.012 0.137,0.015 l 0.013,0.004 c 0.019,-0.009 0.045,-0.013 0.088,-0.013 l 0.038,0.011 c 2.229,-0.114 3.896,-0.982 5.014,-2.62 l 0.019,-0.021 0.034,-0.061 c 0.208,-0.255 0.357,-0.546 0.474,-0.86 l 0.008,-0.024 c 0.549,-1.102 0.559,-2.181 0.045,-3.258 -0.471,-1.023 -1.299,-1.64 -2.481,-1.851 l -1.812,1.006 c -3.382,1.74 -5.044,3.554 -5.011,5.46"
         id="path553" />
      <path
         inkscape:connector-curvature="0"
         style="fill:#f18900"
         d="m 605.271,89.224 0.012,-0.038 -0.034,0.061 c 0.019,-0.009 0.019,-0.009 0.022,-0.023"
         id="path555" />
      <path
         inkscape:connector-curvature="0"
         style="fill:#0160ad"
         d="m 606.381,95.621 c 0.769,-1.032 0.844,-2.062 0.24,-3.111 -1.405,1.361 -3.213,2.172 -5.387,2.431 -0.061,0.668 0.129,1.22 0.564,1.655 0.013,0.003 0.021,0.021 0.035,0.067 0.118,0.066 0.246,0.15 0.388,0.237 1.352,0.643 2.738,0.216 4.16,-1.279"
         id="path557" />
      <path
         inkscape:connector-curvature="0"
         style="fill:#f18900"
         d="m 588.076,75.788 0.008,0.017 0.024,-0.034 c -0.017,0.009 -0.017,0.009 -0.032,0.017"
         id="path559" />
      <path
         inkscape:connector-curvature="0"
         style="fill:#0160ad"
         d="m 588.084,75.805 -0.008,-0.017 c -3.599,2.147 -4.583,6.313 -2.934,12.475 l 0.938,3.91 -1.82,0.596 c 0.589,1.622 1.633,3.01 3.16,4.159 4.047,2.492 7.732,2.691 11.08,0.575 -0.389,-0.757 -0.31,-1.573 0.262,-2.472 -3.087,-0.934 -4.867,-2.614 -5.312,-5.033 -0.21,-1.148 -0.03,-2.271 0.498,-3.352 -2.682,-0.269 -4.481,-2.757 -5.391,-7.46 l 1.708,0.197 c 1.301,2.777 2.637,4.132 4.022,4.057 2.114,-0.811 2.742,-2.378 1.891,-4.717 -0.322,-0.567 -0.667,-1.071 -1.02,-1.506 l -0.056,-0.046 c -1.888,-2.389 -4.229,-2.844 -7.018,-1.366"
         id="path561" />
      <path
         inkscape:connector-curvature="0"
         style="fill:#d04315"
         d="m 608.027,90.221 c 0.009,-0.025 0.013,-0.038 0.029,-0.046 l -0.024,-0.009 -0.005,0.055 z"
         id="path563" />
      <path
         inkscape:connector-curvature="0"
         style="fill:#3692d1"
         d="m 557.618,62.735 c -2.199,-4.88 -5.228,-9.152 -9.082,-12.796 -3.86,-3.687 -8.223,-6.479 -13.116,-8.396 -5.074,-1.975 -10.356,-2.873 -15.827,-2.674 -5.466,0.199 -10.654,1.478 -15.58,3.817 -4.753,2.267 -8.938,5.37 -12.535,9.328 -3.603,3.916 -6.332,8.398 -8.195,13.426 -1.949,5.18 -2.839,10.558 -2.648,16.174 0.188,5.573 1.44,10.894 3.735,15.92 2.199,4.86 5.227,9.133 9.084,12.819 3.855,3.644 8.241,6.435 13.137,8.374 5.072,1.976 10.332,2.853 15.801,2.653 5.47,-0.199 10.679,-1.458 15.606,-3.796 4.751,-2.289 8.916,-5.39 12.515,-9.306 3.598,-3.958 6.33,-8.44 8.193,-13.448 1.947,-5.18 2.817,-10.557 2.628,-16.151 -0.192,-5.617 -1.424,-10.918 -3.716,-15.944"
         id="path565" />
      <path
         inkscape:connector-curvature="0"
         style="fill:none;stroke:#063589;stroke-width:5.2434001;stroke-miterlimit:10"
         d="m 548.536,49.938 c -3.857,-3.687 -8.225,-6.479 -13.116,-8.396 -5.074,-1.975 -10.356,-2.874 -15.827,-2.674 -5.468,0.2 -10.654,1.479 -15.582,3.817 -4.751,2.268 -8.937,5.37 -12.533,9.329 -3.603,3.916 -6.332,8.398 -8.195,13.426 -1.949,5.181 -2.84,10.558 -2.65,16.175 0.189,5.572 1.441,10.893 3.737,15.919 2.198,4.86 5.227,9.132 9.084,12.819 3.855,3.645 8.241,6.436 13.135,8.374 5.074,1.976 10.334,2.853 15.803,2.654 5.47,-0.199 10.681,-1.458 15.608,-3.797 4.749,-2.287 8.914,-5.39 12.513,-9.306 3.598,-3.958 6.33,-8.44 8.193,-13.448 1.947,-5.18 2.817,-10.556 2.628,-16.151 -0.191,-5.616 -1.423,-10.917 -3.715,-15.944 -2.2,-4.881 -5.228,-9.152 -9.083,-12.797 z"
         id="path567" />
      <path
         inkscape:connector-curvature="0"
         style="fill:#0160ad"
         d="m 557.618,62.735 c -2.199,-4.88 -5.228,-9.152 -9.082,-12.796 -3.86,-3.687 -8.223,-6.479 -13.116,-8.396 -5.074,-1.975 -10.356,-2.873 -15.827,-2.674 -5.466,0.199 -10.654,1.478 -15.58,3.817 -4.753,2.267 -8.938,5.37 -12.535,9.328 -3.603,3.916 -6.332,8.398 -8.195,13.426 -1.949,5.18 -2.839,10.558 -2.648,16.174 0.188,5.573 1.44,10.894 3.735,15.92 2.199,4.86 5.227,9.133 9.084,12.819 3.855,3.644 8.241,6.435 13.137,8.374 5.072,1.976 10.332,2.853 15.801,2.653 5.47,-0.199 10.679,-1.458 15.606,-3.796 4.751,-2.289 8.916,-5.39 12.515,-9.306 3.598,-3.958 6.33,-8.44 8.193,-13.448 1.947,-5.18 2.817,-10.557 2.628,-16.151 -0.192,-5.617 -1.424,-10.918 -3.716,-15.944"
         id="path569" />
      <path
         inkscape:connector-curvature="0"
         style="fill:#e42126"
         d="m 522.018,66.751 c 8.769,-1.281 16.469,-0.819 23.109,1.396 6.636,2.188 10.259,5.493 10.856,9.885 0.6,4.393 -2.004,8.605 -7.794,12.622 -5.797,4.004 -13.071,6.65 -21.842,7.93 -8.781,1.283 -16.492,0.822 -23.128,-1.365 -6.639,-2.202 -10.251,-5.506 -10.85,-9.9 -0.597,-4.394 1.995,-8.604 7.787,-12.607 5.793,-4.029 13.08,-6.679 21.862,-7.961 m -19.141,9.123 c -5.203,3.502 -7.542,7.138 -7.025,10.938 0.518,3.797 3.734,6.622 9.67,8.5 5.931,1.861 12.842,2.219 20.708,1.071 7.865,-1.148 14.399,-3.468 19.606,-6.957 5.201,-3.502 7.542,-7.139 7.024,-10.937 -0.517,-3.799 -3.735,-6.624 -9.668,-8.502 -5.934,-1.876 -12.835,-2.233 -20.7,-1.085 -7.865,1.148 -14.414,3.469 -19.615,6.972"
         id="path571" />
      <path
         inkscape:connector-curvature="0"
         style="fill:#282525"
         d="m 522.492,68.902 c -7.865,1.148 -14.414,3.468 -19.615,6.972 -5.203,3.502 -7.542,7.138 -7.025,10.937 0.518,3.799 3.734,6.624 9.67,8.5 5.931,1.862 12.842,2.219 20.708,1.071 7.865,-1.148 14.401,-3.466 19.606,-6.957 5.201,-3.502 7.542,-7.138 7.024,-10.936 -0.517,-3.799 -3.735,-6.625 -9.668,-8.502 -5.933,-1.877 -12.835,-2.233 -20.7,-1.085"
         id="path573" />
      <path
         inkscape:connector-curvature="0"
         style="fill:#0160ad"
         d="m 557.443,79.046 c -1.933,-9.271 -6.959,-16.671 -15.092,-22.184 -7.419,-4.333 -15.103,-6.205 -23.048,-5.637 -8.294,3.196 -15.122,7.129 -20.472,11.812 -7.338,6.875 -9.906,15.438 -7.705,25.691 5.263,2.788 11.118,4.69 17.575,5.706 5.663,0.896 11.301,1.024 16.932,0.408 5.762,-1.048 11.238,-2.797 16.441,-5.281 5.934,-2.823 11.055,-6.328 15.369,-10.515"
         id="path575" />
      <path
         inkscape:connector-curvature="0"
         style="fill:#f3f3f3"
         d="m 503.405,76.388 c -1.014,-2.91 -0.787,-5.859 0.662,-8.876 1.447,-3.031 3.729,-5.232 6.817,-6.615 3.094,-1.353 6.093,-1.504 9,-0.425 2.911,1.094 4.864,3.089 5.873,5.968 1.026,2.909 0.816,5.872 -0.656,8.907 -1.449,3.032 -3.73,5.233 -6.823,6.586 -3.089,1.383 -6.086,1.534 -8.993,0.455 -2.888,-1.098 -4.854,-3.091 -5.88,-6"
         id="path577" />
      <path
         inkscape:connector-curvature="0"
         style="fill:#f3f3f3"
         d="m 542.688,56.978 c -2.769,-0.478 -5.181,0.109 -7.224,1.762 -2.026,1.665 -3.103,3.899 -3.217,6.713 -0.101,2.813 0.797,5.361 2.681,7.675 1.872,2.326 4.206,3.72 6.987,4.196 2.825,0.472 5.425,-0.143 7.796,-1.814 2.416,-1.731 3.672,-3.977 3.766,-6.734 0.112,-2.731 -0.964,-5.283 -3.229,-7.65 -2.154,-2.29 -4.679,-3.672 -7.56,-4.148"
         id="path579" />
      <path
         inkscape:connector-curvature="0"
         style="fill:#282525"
         d="m 510.806,67.535 c 0.838,-1.573 2.09,-2.603 3.76,-3.064 1.644,-0.46 3.222,-0.228 4.716,0.723 1.494,0.951 2.471,2.307 2.919,4.074 0.463,1.789 0.273,3.458 -0.566,5.018 -0.862,1.578 -2.114,2.594 -3.764,3.04 -1.642,0.459 -3.222,0.227 -4.712,-0.697 -1.488,-0.925 -2.477,-2.28 -2.941,-4.071 -0.462,-1.765 -0.275,-3.446 0.588,-5.023"
         id="path581" />
      <path
         inkscape:connector-curvature="0"
         style="fill:#282525"
         d="m 542.984,62.838 c -1.14,-1.248 -2.478,-1.886 -4.009,-1.89 -1.509,-0.006 -2.774,0.61 -3.77,1.875 -0.995,1.264 -1.441,2.774 -1.333,4.527 0.104,1.782 0.724,3.284 1.861,4.521 1.16,1.244 2.495,1.868 4.004,1.863 1.509,0.006 2.771,-0.61 3.771,-1.85 0.999,-1.238 1.458,-2.75 1.354,-4.531 -0.096,-1.756 -0.717,-3.27 -1.878,-4.515"
         id="path583" />
      <path
         inkscape:connector-curvature="0"
         style="fill:#e97ca0"
         d="m 541.037,71.198 c -2.42,-2.017 -5.1,-2.811 -8.06,-2.394 -2.958,0.417 -5.325,1.923 -7.107,4.53 -1.768,2.621 -2.428,5.568 -1.969,8.825 0.462,3.285 1.912,5.935 4.332,7.963 2.422,2.017 5.113,2.81 8.086,2.391 2.975,-0.419 5.342,-1.924 7.083,-4.527 1.768,-2.621 2.426,-5.568 1.965,-8.852 -0.463,-3.283 -1.91,-5.92 -4.33,-7.936"
         id="path585" />
      <path
         inkscape:connector-curvature="0"
         style="fill:#0160ad"
         d="m 505.839,118.799 c -5.035,1.288 -9.882,3.082 -14.562,5.397 -4.689,2.303 -8.606,5.848 -11.784,10.627 -3.169,4.773 -3.891,9.865 -2.165,15.277 1.653,5.185 5.617,10.035 11.889,14.53 0.751,-1.395 1.431,-4.175 2.08,-8.336 -3.914,-2.562 -5.965,-5.614 -6.177,-9.167 -1.676,-14.379 6.397,-22.561 48.352,-25.527 2.326,-2.447 -0.295,-5.545 -1.547,-8.697 -12.121,1.202 -5.477,1.981 -10.515,2.729 -5.362,0.832 -10.556,1.878 -15.571,3.167"
         id="path587" />
      <path
         inkscape:connector-curvature="0"
         style="fill:#043889"
         d="m 485.674,163.622 2.229,-1.124 c 0.84,4.326 3.129,5.817 6.86,4.48 0.191,-0.07 0.383,-0.096 0.575,-0.041 3.678,0.636 5.515,2.654 5.522,6.034 0.354,1.102 1.089,1.581 2.196,1.472 1.035,-0.157 1.725,-0.921 2.071,-2.316 0.03,-0.16 0.045,-0.292 0.045,-0.416 l -0.004,-0.06 c 0.748,-3.565 -0.221,-6.82 -2.886,-9.758 0.885,-0.312 1.679,-0.21 2.352,0.305 1.865,1.63 2.885,4.186 3.056,7.635 0.693,-0.195 1.239,-0.485 1.627,-0.863 0.467,-0.615 0.675,-1.487 0.63,-2.593 l -0.024,-0.032 c -0.01,-0.164 -0.022,-0.326 -0.034,-0.49 l -0.007,-0.014 c -0.371,-3.402 -1.727,-6.62 -4.059,-9.639 1.2,-0.43 2.253,-0.239 3.147,0.591 1.688,1.569 2.781,3.969 3.258,7.214 0.61,-0.483 0.934,-1.227 0.985,-2.221 -0.005,-0.013 -0.005,-0.013 0.004,-0.032 0.257,-4.848 -1.723,-8.86 -5.957,-12.042 -5.559,-3.375 -11.879,-1.95 -18.966,4.296 l -1.09,-2.433 c 8.088,-7.018 15.272,-8.51 21.568,-4.473 0.02,0.019 0.043,0.038 0.061,0.056 4.995,3.737 7.283,8.492 6.871,14.287 -0.122,2.746 -1.215,4.598 -3.282,5.562 -0.088,1.607 -0.588,2.892 -1.482,3.847 -0.793,1.002 -1.947,1.652 -3.488,1.964 -0.772,2.852 -2.32,4.379 -4.614,4.583 -2.289,0.214 -3.777,-0.889 -4.45,-3.314 -0.031,-0.135 -0.045,-0.266 -0.049,-0.402 -0.063,-2.06 -1.228,-3.312 -3.495,-3.793 -5.121,1.761 -8.173,-0.332 -9.17,-6.27"
         id="path589" />
      <path
         inkscape:connector-curvature="0"
         style="fill:#0160ad"
         d="m 502.283,161.895 c 2.665,2.938 3.634,6.193 2.886,9.758 l 0.004,0.059 c 0,0.125 -0.015,0.257 -0.045,0.417 -0.347,1.395 -1.036,2.159 -2.071,2.316 -1.107,0.109 -1.842,-0.371 -2.196,-1.472 -0.008,-3.38 -1.847,-5.398 -5.522,-6.035 -0.192,-0.054 -0.384,-0.029 -0.575,0.042 -3.731,1.337 -6.021,-0.154 -6.86,-4.48 -0.305,-2.732 -0.181,-5.557 0.393,-8.487 7.087,-6.246 13.407,-7.672 18.966,-4.297 4.234,3.182 6.214,7.195 5.957,12.042 -0.009,0.019 -0.009,0.019 -0.004,0.032 -0.052,0.994 -0.375,1.737 -0.985,2.221 -0.477,-3.246 -1.569,-5.646 -3.258,-7.214 -0.895,-0.83 -1.947,-1.021 -3.147,-0.59 2.332,3.018 3.688,6.236 4.059,9.638 l 0.007,0.014 c 0.012,0.164 0.024,0.326 0.034,0.49 l 0.024,0.032 c 0.045,1.106 -0.163,1.979 -0.63,2.593 -0.388,0.378 -0.934,0.668 -1.627,0.863 -0.171,-3.449 -1.19,-6.004 -3.056,-7.635 -0.675,-0.517 -1.469,-0.619 -2.354,-0.307"
         id="path591" />
      <path
         inkscape:connector-curvature="0"
         style="fill:#0160ad"
         d="m 528.119,186.941 c 3.132,-1.835 5.723,-4.52 7.768,-8.042 4.8,-8.228 6.035,-19.68 3.733,-34.329 -1.981,-12.614 -3.574,-22.037 -4.777,-28.27 -7.321,1.767 -14.665,1.748 -22.028,-0.083 -0.435,0.823 -0.888,1.684 -1.362,2.596 -8.09,15.759 -13.03,28.011 -14.822,36.762 -2.024,9.891 -0.534,18.195 4.479,24.913 2.169,2.903 4.819,5.158 7.961,6.763 3.055,1.55 6.245,2.334 9.561,2.322 3.386,-0.029 6.55,-0.907 9.487,-2.632"
         id="path593" />
      <path
         inkscape:connector-curvature="0"
         style="fill:#0160ad"
         d="m 505.839,118.799 c -5.035,1.288 -9.882,3.082 -14.562,5.397 -4.689,2.303 -8.606,5.848 -11.784,10.627 -3.169,4.773 -3.891,9.865 -2.165,15.277 1.653,5.185 5.617,10.035 11.889,14.53 0.751,-1.395 1.431,-4.175 2.08,-8.336 -3.914,-2.562 -5.965,-5.614 -6.177,-9.167 -1.676,-14.379 8.006,-21.844 49.961,-24.813 0.418,-2.561 -0.689,-7.845 -0.928,-8.738 -12.119,1.203 -7.705,1.308 -12.743,2.055 -5.362,0.833 -10.556,1.879 -15.571,3.168"
         id="path595" />
      <path
         inkscape:connector-curvature="0"
         style="fill:#043889"
         d="m 485.674,163.622 2.229,-1.124 c 0.84,4.326 3.129,5.817 6.86,4.48 0.191,-0.07 0.383,-0.096 0.575,-0.041 3.678,0.636 5.515,2.654 5.522,6.034 0.354,1.102 1.089,1.581 2.196,1.472 1.035,-0.157 1.725,-0.921 2.071,-2.316 0.03,-0.16 0.045,-0.292 0.045,-0.416 l -0.004,-0.06 c 0.748,-3.565 -0.221,-6.82 -2.886,-9.758 0.885,-0.312 1.679,-0.21 2.352,0.305 1.865,1.63 2.885,4.186 3.056,7.635 0.693,-0.195 1.239,-0.485 1.627,-0.863 0.467,-0.615 0.675,-1.487 0.63,-2.593 l -0.024,-0.032 c -0.01,-0.164 -0.022,-0.326 -0.034,-0.49 l -0.007,-0.014 c -0.371,-3.402 -1.727,-6.62 -4.059,-9.639 1.2,-0.43 2.253,-0.239 3.147,0.591 1.688,1.569 2.781,3.969 3.258,7.214 0.61,-0.483 0.934,-1.227 0.985,-2.221 -0.005,-0.013 -0.005,-0.013 0.004,-0.032 0.257,-4.848 -1.723,-8.86 -5.957,-12.042 -5.559,-3.375 -11.879,-1.95 -18.966,4.296 l -1.09,-2.433 c 8.088,-7.018 15.272,-8.51 21.568,-4.473 0.02,0.019 0.043,0.038 0.061,0.056 4.995,3.737 7.283,8.492 6.871,14.287 -0.122,2.746 -1.215,4.598 -3.282,5.562 -0.088,1.607 -0.588,2.892 -1.482,3.847 -0.793,1.002 -1.947,1.652 -3.488,1.964 -0.772,2.852 -2.32,4.379 -4.614,4.583 -2.289,0.214 -3.777,-0.889 -4.45,-3.314 -0.031,-0.135 -0.045,-0.266 -0.049,-0.402 -0.063,-2.06 -1.228,-3.312 -3.495,-3.793 -5.121,1.761 -8.173,-0.332 -9.17,-6.27"
         id="path597" />
      <path
         inkscape:connector-curvature="0"
         style="fill:#0160ad"
         d="m 502.283,161.895 c 2.665,2.938 3.634,6.193 2.886,9.758 l 0.004,0.059 c 0,0.125 -0.015,0.257 -0.045,0.417 -0.347,1.395 -1.036,2.159 -2.071,2.316 -1.107,0.109 -1.842,-0.371 -2.196,-1.472 -0.008,-3.38 -1.847,-5.398 -5.522,-6.035 -0.192,-0.054 -0.384,-0.029 -0.575,0.042 -3.731,1.337 -6.021,-0.154 -6.86,-4.48 -0.305,-2.732 -0.181,-5.557 0.393,-8.487 7.087,-6.246 13.407,-7.672 18.966,-4.297 4.234,3.182 6.214,7.195 5.957,12.042 -0.009,0.019 -0.009,0.019 -0.004,0.032 -0.052,0.994 -0.375,1.737 -0.985,2.221 -0.477,-3.246 -1.569,-5.646 -3.258,-7.214 -0.895,-0.83 -1.947,-1.021 -3.147,-0.59 2.332,3.018 3.688,6.236 4.059,9.638 l 0.007,0.014 c 0.012,0.164 0.024,0.326 0.034,0.49 l 0.024,0.032 c 0.045,1.106 -0.163,1.979 -0.63,2.593 -0.388,0.378 -0.934,0.668 -1.627,0.863 -0.171,-3.449 -1.19,-6.004 -3.056,-7.635 -0.675,-0.517 -1.469,-0.619 -2.354,-0.307"
         id="path599" />
      <path
         inkscape:connector-curvature="0"
         style="fill:#0160ad"
         d="m 501.064,128.152 c 0,0 3.097,-1.19 7.981,-1.906 5.272,-0.771 2.562,-3.515 2.562,-3.515 l -14.297,2.323 3.754,3.098 z"
         id="path601" />
    </g>
  </g>
</svg>
