<?xml version="1.0" encoding="UTF-8" standalone="no"?>
<!-- Created with Inkscape (http://www.inkscape.org/) -->

<svg
   xmlns:dc="http://purl.org/dc/elements/1.1/"
   xmlns:cc="http://creativecommons.org/ns#"
   xmlns:rdf="http://www.w3.org/1999/02/22-rdf-syntax-ns#"
   xmlns:svg="http://www.w3.org/2000/svg"
   xmlns="http://www.w3.org/2000/svg"
   xmlns:sodipodi="http://sodipodi.sourceforge.net/DTD/sodipodi-0.dtd"
   xmlns:inkscape="http://www.inkscape.org/namespaces/inkscape"
   width="154.18315"
   height="200.1223"
   id="svg5696"
   version="1.1"
   inkscape:version="0.48.4 r9939"
   sodipodi:docname="grover1.svg">
  <defs
     id="defs5698">
    <clipPath
       id="SVGID_2_">
      <rect
         height="88.862999"
         width="111.498"
         y="518.96198"
         x="382.04999"
         id="use1087" />
    </clipPath>
    <clipPath
       id="SVGID_4_">
      <rect
         height="41.314999"
         width="49.584999"
         y="525.19397"
         x="389.84698"
         id="use1111" />
    </clipPath>
  </defs>
  <sodipodi:namedview
     id="base"
     pagecolor="#ffffff"
     bordercolor="#666666"
     borderopacity="1.0"
     inkscape:pageopacity="0.0"
     inkscape:pageshadow="2"
     inkscape:zoom="0.77472527"
     inkscape:cx="-59.577013"
     inkscape:cy="202.08561"
     inkscape:current-layer="layer1"
     inkscape:document-units="px"
     showgrid="false"
     inkscape:window-width="763"
     inkscape:window-height="591"
     inkscape:window-x="592"
     inkscape:window-y="97"
     inkscape:window-maximized="0"
     fit-margin-top="0"
     fit-margin-left="0"
     fit-margin-right="0"
     fit-margin-bottom="0" />
  <metadata
     id="metadata5701">
    <rdf:RDF>
      <cc:Work
         rdf:about="">
        <dc:format>image/svg+xml</dc:format>
        <dc:type
           rdf:resource="http://purl.org/dc/dcmitype/StillImage" />
        <dc:title></dc:title>
      </cc:Work>
    </rdf:RDF>
  </metadata>
  <g
     id="layer1"
     inkscape:label="Layer 1"
     inkscape:groupmode="layer"
     transform="translate(-377.52031,-87.069698)">
    <g
       transform="translate(114.42503,47.657735)"
       id="g603">
      <path
         inkscape:connector-curvature="0"
         style="fill:#115dab"
         d="m 361.772,140.149 c -10.43,-20.334 -18.919,-36.336 -21.701,-37.83 -5.256,-2.825 -13.114,4.627 -10.391,2.417 3.071,-2.488 -7.477,36.024 -4.815,58.977 4.872,42.02 65.751,32.681 36.907,-23.564"
         id="path605" />
      <path
         inkscape:connector-curvature="0"
         style="fill:none;stroke:#043889;stroke-width:4.20900011"
         d="m 361.772,140.149 c -10.43,-20.334 -18.919,-36.336 -21.701,-37.83 -5.256,-2.825 -13.114,4.627 -10.391,2.417 3.071,-2.488 -7.477,36.024 -4.815,58.977 4.872,42.02 65.751,32.681 36.907,-23.564"
         id="path607" />
      <path
         inkscape:connector-curvature="0"
         style="fill:#115dab"
         d="m 338.361,184.947 c -5.264,12.515 -5.042,30.643 -3.185,36.391 -38.897,-0.747 -31.148,25.599 11.896,12.383 2.207,-0.679 -8.478,-18.6 -3.8,-47.722"
         id="path609" />
      <path
         inkscape:connector-curvature="0"
         style="fill:none;stroke:#043889;stroke-width:4.20900011"
         d="m 338.361,184.947 c -5.264,12.515 -5.042,30.643 -3.185,36.391 -38.897,-0.747 -31.148,25.599 11.896,12.383 2.207,-0.679 -8.478,-18.6 -3.8,-47.722"
         id="path611" />
      <path
         inkscape:connector-curvature="0"
         style="fill:#115dab"
         d="m 365.498,174.564 c 11.369,7.422 21.335,22.567 23.013,28.371 31.811,-22.396 40.141,3.774 -2.922,16.921 -2.211,0.673 -3.389,-20.157 -23.57,-41.668"
         id="path613" />
      <path
         inkscape:connector-curvature="0"
         style="fill:none;stroke:#043889;stroke-width:4.20900011"
         d="m 365.498,174.564 c 11.369,7.422 21.335,22.567 23.013,28.371 31.811,-22.396 40.141,3.774 -2.922,16.921 -2.211,0.673 -3.389,-20.157 -23.57,-41.668"
         id="path615" />
      <path
         inkscape:connector-curvature="0"
         style="fill:#115dab"
         d="m 303.182,165.091 c 0.738,0.81 6.898,12.75 4.074,16.107 -1.989,2.369 -5.254,-2.709 -6.215,-4.446 0.547,1.496 0.411,11.108 -1.646,11.552 -4.722,1.017 -5.23,-7.461 -5.473,-13.513 -0.246,1.879 0.111,10.838 -2.439,9.937 -4.622,-0.824 -4.25,-12.45 -3.468,-13.496 -0.845,1.988 -0.382,8.231 -4.709,6.182 -2.649,-1.252 -0.556,-21.127 13.838,-17.873 0.226,0.05 8.497,-28.626 40.745,-42.38 0.954,-0.407 3.481,5.898 1.866,6.75 -28.03,14.792 -30.708,27.776 -36.573,41.18"
         id="path617" />
      <path
         inkscape:connector-curvature="0"
         style="fill:none;stroke:#043889;stroke-width:4.20900011"
         d="m 303.182,165.091 c 0.738,0.81 6.898,12.75 4.074,16.107 -1.989,2.369 -5.254,-2.709 -6.215,-4.446 0.547,1.496 0.411,11.108 -1.646,11.552 -4.722,1.017 -5.23,-7.461 -5.473,-13.513 -0.246,1.879 0.111,10.838 -2.439,9.937 -4.622,-0.824 -4.25,-12.45 -3.468,-13.496 -0.845,1.988 -0.382,8.231 -4.709,6.182 -2.649,-1.252 -0.556,-21.127 13.838,-17.873 0.226,0.05 8.497,-28.626 40.745,-42.38 0.954,-0.407 3.481,5.898 1.866,6.75 -28.03,14.792 -30.708,27.776 -36.573,41.18"
         id="path619" />
      <path
         inkscape:connector-curvature="0"
         style="fill:#115dab"
         d="m 384.195,88.212 c -2.726,22.214 -22.92,37.506 -45.104,34.154 -22.185,-3.354 -37.957,-24.079 -35.23,-46.292 2.728,-22.213 22.918,-37.504 45.104,-34.153 22.184,3.352 37.956,24.078 35.23,46.291"
         id="path621" />
      <path
         inkscape:connector-curvature="0"
         style="fill:none;stroke:#043889;stroke-width:4.09759998"
         d="m 384.195,88.212 c -2.726,22.214 -22.92,37.506 -45.104,34.154 -22.185,-3.354 -37.957,-24.079 -35.23,-46.292 2.728,-22.213 22.918,-37.504 45.104,-34.153 22.184,3.352 37.956,24.078 35.23,46.291 z"
         id="path623" />
      <path
         inkscape:connector-curvature="0"
         style="fill:#0e5cab"
         d="m 361.772,140.149 c -10.43,-20.334 -18.919,-36.336 -21.701,-37.83 -5.256,-2.825 -13.114,4.627 -10.391,2.417 3.071,-2.488 -7.477,36.024 -4.815,58.977 4.872,42.02 65.751,32.681 36.907,-23.564"
         id="path625" />
      <path
         inkscape:connector-curvature="0"
         style="fill:#0e5cab"
         d="m 338.361,184.947 c -5.264,12.515 -5.042,30.643 -3.185,36.391 -38.897,-0.747 -31.148,25.599 11.896,12.383 2.207,-0.679 -8.478,-18.6 -3.8,-47.722"
         id="path627" />
      <path
         inkscape:connector-curvature="0"
         style="fill:#0e5cab"
         d="m 365.498,174.564 c 11.369,7.422 21.335,22.567 23.013,28.371 31.811,-22.396 40.141,3.774 -2.922,16.921 -2.211,0.673 -3.389,-20.157 -23.57,-41.668"
         id="path629" />
      <path
         inkscape:connector-curvature="0"
         style="fill:#0e5cab"
         d="m 303.182,165.091 c 0.738,0.81 6.898,12.75 4.074,16.107 -1.989,2.369 -5.254,-2.709 -6.215,-4.446 0.547,1.496 0.411,11.108 -1.646,11.552 -4.722,1.017 -5.23,-7.461 -5.473,-13.513 -0.246,1.879 0.111,10.838 -2.439,9.937 -4.622,-0.824 -4.25,-12.45 -3.468,-13.496 -0.845,1.988 -0.382,8.231 -4.709,6.182 -2.649,-1.252 -0.556,-21.127 13.838,-17.873 0.226,0.05 8.497,-28.626 40.745,-42.38 0.954,-0.407 3.481,5.898 1.866,6.75 -28.03,14.792 -30.708,27.776 -36.573,41.18"
         id="path631" />
      <path
         inkscape:connector-curvature="0"
         style="fill:#115dab"
         d="m 347.787,121.89 c -2.142,1.094 -28.174,37.662 -57.171,5.125 1.79,-1.897 8.313,-1.231 4.075,-7.353 -2.857,-4.131 -7.251,0.37 -8.659,0.515 0.668,-3.768 -6.361,-16.996 -10.988,-14.074 -7.15,4.51 3.211,9.292 3.428,11.903 -2.152,-1.37 -12.427,-4.693 -13.25,4.198 -0.571,6.167 8.687,5.006 8.906,3.945 -0.617,1.003 -0.944,11.395 11.505,5.979 34.929,35.499 62.276,-1.032 63.266,-1.117"
         id="path633" />
      <path
         inkscape:connector-curvature="0"
         style="fill:none;stroke:#043889;stroke-width:4.20900011"
         d="m 347.787,121.89 c -2.142,1.094 -28.174,37.662 -57.171,5.125 1.79,-1.897 8.313,-1.231 4.075,-7.353 -2.857,-4.131 -7.251,0.37 -8.659,0.515 0.668,-3.768 -6.361,-16.996 -10.988,-14.074 -7.15,4.51 3.211,9.292 3.428,11.903 -2.152,-1.37 -12.427,-4.693 -13.25,4.198 -0.571,6.167 8.687,5.006 8.906,3.945 -0.617,1.003 -0.944,11.395 11.505,5.979 34.929,35.499 62.276,-1.032 63.266,-1.117"
         id="path635" />
      <path
         inkscape:connector-curvature="0"
         style="fill:#0e5cab"
         d="m 351.031,119.104 c -6.053,4.4 -31.418,40.448 -60.415,7.911 1.79,-1.897 8.312,-1.231 4.075,-7.353 -2.857,-4.131 -7.251,0.37 -8.66,0.515 0.67,-3.767 -6.36,-16.996 -10.988,-14.074 -7.15,4.51 3.212,9.293 3.429,11.903 -2.153,-1.37 -12.428,-4.693 -13.251,4.197 -0.571,6.167 8.687,5.007 8.906,3.945 -0.617,1.002 -0.943,11.395 11.507,5.979 34.928,35.5 62.276,-1.032 63.265,-1.117"
         id="path637" />
      <path
         inkscape:connector-curvature="0"
         style="fill:#0e5cab"
         d="m 384.195,88.212 c -2.726,22.214 -22.92,37.506 -45.104,34.154 -22.185,-3.354 -37.957,-24.079 -35.23,-46.292 2.728,-22.213 22.918,-37.504 45.104,-34.153 22.184,3.352 37.956,24.078 35.23,46.291"
         id="path639" />
      <path
         inkscape:connector-curvature="0"
         style="fill:#e83434"
         d="m 380.382,84.993 c -0.568,11.708 -11.977,32.696 -36.165,31.949 -26.107,-0.808 -35.899,-20.862 -36.236,-32.646 -0.335,-11.696 3.229,-23.642 37.224,-14.08 18.492,5.199 35.742,3.065 35.177,14.777"
         id="path641" />
      <path
         inkscape:connector-curvature="0"
         style="fill:#231c1d"
         d="m 377.344,83.734 c -0.462,9.572 -12.131,28.347 -33.792,26.481 -24.193,-2.085 -30.473,-21.202 -30.011,-30.773 0.462,-9.567 21.985,-7.208 30.496,-6.488 16.514,1.397 33.77,1.215 33.307,10.78"
         id="path643" />
      <path
         inkscape:connector-curvature="0"
         style="fill:#0e5cab"
         d="m 307.819,76.173 c 13.084,19.401 50.269,23.726 75.407,10.046 l -10.661,-29.063 -53.49,-1.484 c -10e-4,0 -18.869,16.289 -11.256,20.501"
         id="path645" />
      <path
         inkscape:connector-curvature="0"
         style="fill:#ffffff"
         d="m 342.734,68.082 c 0.56,5.595 -4.824,10.711 -12.019,11.429 -7.196,0.717 -13.485,-3.233 -14.043,-8.828 -0.559,-5.595 4.826,-10.71 12.021,-11.43 7.198,-0.719 13.482,3.235 14.041,8.829"
         id="path647" />
      <path
         inkscape:connector-curvature="0"
         style="fill:#ffffff"
         d="m 351.109,69.226 c -2.041,5.24 1.772,11.612 8.512,14.233 6.742,2.62 13.858,0.5 15.896,-4.739 2.038,-5.24 -1.773,-11.611 -8.516,-14.235 -6.74,-2.623 -13.855,-0.499 -15.892,4.741"
         id="path649" />
      <path
         inkscape:connector-curvature="0"
         style="fill:#231c1d"
         d="m 339.658,71.517 c -0.95,3.622 -4.656,5.795 -8.282,4.846 -3.623,-0.948 -5.796,-4.651 -4.847,-8.28 0.947,-3.624 4.653,-5.793 8.279,-4.848 3.625,0.948 5.796,4.655 4.85,8.282"
         id="path651" />
      <path
         inkscape:connector-curvature="0"
         style="fill:#231c1d"
         d="m 366.597,74.892 c -0.945,3.626 -4.653,5.797 -8.278,4.85 -3.625,-0.948 -5.796,-4.652 -4.848,-8.28 0.946,-3.622 4.652,-5.794 8.278,-4.847 3.626,0.946 5.797,4.654 4.848,8.277"
         id="path653" />
      <path
         inkscape:connector-curvature="0"
         style="fill:#eb6897"
         d="m 355.792,85.802 c -0.857,6.275 -6.534,10.68 -12.682,9.839 -6.148,-0.839 -10.439,-6.605 -9.583,-12.878 0.856,-6.273 6.538,-10.679 12.685,-9.839 6.147,0.842 10.436,6.607 9.58,12.878"
         id="path655" />
    </g>
  </g>
</svg>
