<?xml version="1.0" encoding="UTF-8" standalone="no"?>
<!-- Created with Inkscape (http://www.inkscape.org/) -->

<svg
   xmlns:dc="http://purl.org/dc/elements/1.1/"
   xmlns:cc="http://creativecommons.org/ns#"
   xmlns:rdf="http://www.w3.org/1999/02/22-rdf-syntax-ns#"
   xmlns:svg="http://www.w3.org/2000/svg"
   xmlns="http://www.w3.org/2000/svg"
   xmlns:sodipodi="http://sodipodi.sourceforge.net/DTD/sodipodi-0.dtd"
   xmlns:inkscape="http://www.inkscape.org/namespaces/inkscape"
   width="129.96465"
   height="202.7742"
   id="svg5696"
   version="1.1"
   inkscape:version="0.48.4 r9939"
   sodipodi:docname="grover7.svg">
  <defs
     id="defs5698">
    <clipPath
       id="SVGID_2_">
      <rect
         height="88.862999"
         width="111.498"
         y="518.96198"
         x="382.04999"
         id="use1087" />
    </clipPath>
    <clipPath
       id="SVGID_4_">
      <rect
         height="41.314999"
         width="49.584999"
         y="525.19397"
         x="389.84698"
         id="use1111" />
    </clipPath>
  </defs>
  <sodipodi:namedview
     id="base"
     pagecolor="#ffffff"
     bordercolor="#666666"
     borderopacity="1.0"
     inkscape:pageopacity="0.0"
     inkscape:pageshadow="2"
     inkscape:zoom="0.77472527"
     inkscape:cx="3.7203359"
     inkscape:cy="90.283063"
     inkscape:current-layer="layer1"
     inkscape:document-units="px"
     showgrid="false"
     inkscape:window-width="763"
     inkscape:window-height="591"
     inkscape:window-x="592"
     inkscape:window-y="97"
     inkscape:window-maximized="0"
     fit-margin-top="0"
     fit-margin-left="0"
     fit-margin-right="0"
     fit-margin-bottom="0" />
  <metadata
     id="metadata5701">
    <rdf:RDF>
      <cc:Work
         rdf:about="">
        <dc:format>image/svg+xml</dc:format>
        <dc:type
           rdf:resource="http://purl.org/dc/dcmitype/StillImage" />
        <dc:title></dc:title>
      </cc:Work>
    </rdf:RDF>
  </metadata>
  <g
     id="layer1"
     inkscape:label="Layer 1"
     inkscape:groupmode="layer"
     transform="translate(-314.22296,27.38475)">
    <g
       transform="translate(-153.12507,-300.44725)"
       id="g395">
      <path
         inkscape:connector-curvature="0"
         style="fill:#0160ad"
         d="m 526.027,418.243 -4.936,-1.061 c -5.984,13.88 -9.878,26.959 -11.654,39.238 -10.581,-0.028 -18.165,1.179 -22.765,3.607 -2.008,1.072 -3.379,2.267 -4.098,3.608 -0.691,1.301 -0.718,2.577 -0.082,3.824 1.412,2.783 5.156,4.479 11.235,5.075 6.483,0.624 14.92,-0.543 25.314,-3.484 -0.541,-16.17 1.794,-33.103 6.986,-50.807"
         id="path397" />
      <path
         inkscape:connector-curvature="0"
         style="fill:none;stroke:#043889;stroke-width:6.24060011;stroke-miterlimit:10"
         d="m 526.027,418.243 c -5.192,17.704 -7.527,34.637 -6.984,50.809 -10.395,2.941 -18.831,4.108 -25.314,3.484 -6.079,-0.596 -9.823,-2.292 -11.235,-5.075 -0.636,-1.247 -0.609,-2.523 0.082,-3.824 0.719,-1.342 2.09,-2.536 4.098,-3.608 4.6,-2.429 12.184,-3.636 22.765,-3.607 1.776,-12.279 5.67,-25.358 11.654,-39.238 l 4.934,1.059 z"
         id="path399" />
      <path
         inkscape:connector-curvature="0"
         style="fill:#0160ad"
         d="m 541.598,418.243 4.936,-1.061 c 5.984,13.88 9.878,26.959 11.654,39.238 10.583,-0.028 18.166,1.179 22.768,3.607 2.006,1.072 3.376,2.267 4.096,3.608 0.691,1.301 0.718,2.577 0.081,3.824 -1.41,2.783 -5.153,4.479 -11.231,5.075 -6.485,0.624 -14.924,-0.543 -25.315,-3.484 0.54,-16.17 -1.794,-33.103 -6.989,-50.807"
         id="path401" />
      <path
         inkscape:connector-curvature="0"
         style="fill:none;stroke:#043889;stroke-width:6.24060011;stroke-miterlimit:10"
         d="m 541.598,418.243 c 5.195,17.704 7.529,34.637 6.987,50.809 10.392,2.941 18.83,4.108 25.315,3.484 6.078,-0.596 9.821,-2.292 11.231,-5.075 0.637,-1.247 0.61,-2.523 -0.081,-3.824 -0.72,-1.342 -2.09,-2.536 -4.096,-3.608 -4.602,-2.429 -12.185,-3.636 -22.768,-3.607 -1.776,-12.279 -5.67,-25.358 -11.654,-39.238 l -4.934,1.059 z"
         id="path403" />
      <path
         inkscape:connector-curvature="0"
         style="fill:#0160ad"
         d="m 488.732,344.761 c -4.104,-3.096 -7.846,-6.58 -11.237,-10.479 -3.403,-3.892 -5.628,-8.619 -6.708,-14.196 -1.073,-5.563 0.207,-10.487 3.847,-14.77 3.554,-4.183 8.008,-6.84 13.355,-7.959 -0.018,2.034 0.268,4.385 0.835,7.032 -20.346,12.377 -8.007,30.178 37.03,53.395 l -1.729,8.281 c -10.605,-5.718 -18.069,-9.875 -22.384,-12.479 -4.579,-2.801 -8.92,-5.735 -13.009,-8.825"
         id="path405" />
      <path
         inkscape:connector-curvature="0"
         style="fill:none;stroke:#043889;stroke-width:6.19350004;stroke-miterlimit:10"
         d="m 488.193,297.317 c -0.067,0.018 -0.139,0.024 -0.204,0.041 -5.348,1.119 -9.801,3.777 -13.355,7.959 -3.64,4.283 -4.92,9.207 -3.847,14.77 1.08,5.577 3.305,10.304 6.708,14.197 3.392,3.898 7.133,7.382 11.237,10.478 4.089,3.089 8.43,6.023 13.009,8.827 4.314,2.604 11.778,6.761 22.384,12.479 m 1.729,-8.284 c -45.037,-23.216 -57.376,-41.018 -37.03,-53.394"
         id="path407" />
      <path
         inkscape:connector-curvature="0"
         style="fill:#0160ad"
         d="m 488.732,344.761 c -4.104,-3.096 -7.846,-6.58 -11.237,-10.479 -3.403,-3.892 -5.628,-8.619 -6.708,-14.196 -1.073,-5.563 0.207,-10.487 3.847,-14.77 3.56,-4.2 8.032,-6.854 13.408,-7.97 -0.034,2.704 -0.261,5.351 -0.692,7.979 -18.215,12.349 -5.387,29.833 38.505,52.458 1.19,3.12 0.613,5.88 -1.729,8.281 -10.605,-5.718 -18.069,-9.875 -22.384,-12.479 -4.58,-2.8 -8.921,-5.734 -13.01,-8.824"
         id="path409" />
      <path
         inkscape:connector-curvature="0"
         style="fill:#f18900"
         d="m 488.012,311.716 -0.253,-0.854 c 0.112,0.326 0.208,0.611 0.3,0.867 l -0.047,-0.013 z"
         id="path411" />
      <path
         inkscape:connector-curvature="0"
         style="fill:#0160ad"
         d="m 488.683,311.876 c 0.002,-0.019 -0.229,-0.7 -0.659,-2.047 -0.452,-1.349 -1.671,-5.021 -3.674,-11.039 l 1.095,-1.37 c 3.875,-4.097 7.913,-4.956 12.087,-2.572 7.676,2.733 10.18,8.283 7.513,16.671 l -16.362,0.357 z"
         id="path413" />
      <path
         inkscape:connector-curvature="0"
         style="fill:#043889"
         d="m 485.444,297.42 -2.511,-1.529 c 4.729,-4.958 9.788,-6.329 15.171,-4.123 l -0.573,3.081 c -4.174,-2.385 -8.212,-1.526 -12.087,2.571"
         id="path415" />
      <path
         inkscape:connector-curvature="0"
         style="fill:#043889"
         d="m 502.628,297.028 c -0.697,0.018 -1.072,0.069 -1.129,0.148 l 0.383,-2.089 c 0.562,-2.462 0.206,-4.412 -1.093,-5.843 -0.771,-0.618 -1.67,-0.885 -2.679,-0.802 -0.339,0.034 -0.645,0.08 -0.93,0.158 l -0.09,0.039 -0.039,-0.003 c -1.723,0.463 -2.984,1.609 -3.77,3.42 -0.72,1.932 -0.602,3.258 0.359,3.98 1.502,0.936 3.415,0.367 5.747,-1.676 l 1.415,1.232 -1.053,1.423 c -2.057,2.461 -4.416,3.101 -7.046,1.914 -0.026,-0.014 -0.036,-0.023 -0.045,-0.034 -1.365,-0.561 -2.225,-1.54 -2.604,-2.948 -0.358,-1.808 -0.126,-3.635 0.71,-5.489 0.645,-1.348 1.484,-2.44 2.516,-3.235 1.685,-1.268 3.619,-1.853 5.799,-1.738 1.314,0.117 2.497,0.603 3.53,1.456 0.549,0.52 0.995,1.039 1.336,1.559 1.264,2.524 0.828,5.37 -1.317,8.528"
         id="path417" />
      <path
         inkscape:connector-curvature="0"
         style="fill:#0160ad"
         d="m 501.499,297.176 0.008,0.028 c -1.107,-0.097 -1.68,-0.161 -1.756,-0.188 l 1.053,-1.423 -1.415,-1.232 c -2.332,2.042 -4.245,2.611 -5.747,1.676 -0.961,-0.722 -1.079,-2.048 -0.359,-3.98 0.785,-1.812 2.047,-2.957 3.77,-3.42 l 0.039,0.003 0.09,-0.039 c 0.285,-0.078 0.591,-0.124 0.93,-0.158 1.009,-0.083 1.908,0.184 2.679,0.802 1.299,1.431 1.655,3.381 1.093,5.843 l -0.385,2.088 z"
         id="path419" />
      <polygon
         style="fill:#d04315"
         points="492.693,298.938 492.705,298.93 492.722,298.95 "
         id="polygon421" />
      <path
         inkscape:connector-curvature="0"
         style="fill:#043889"
         d="m 504.755,305.62 -1.606,-2.5 2.334,-0.88 c 2.318,-0.816 5.272,-2.209 8.847,-4.179 2.789,-1.552 3.67,-3.46 2.65,-5.73 -0.826,-1.528 -2.024,-2.246 -3.591,-2.119 -1.601,0.188 -3.423,1.013 -5.488,2.454 -2.729,1.729 -5.374,3.856 -7.914,6.366 l -1.209,-1.174 c 2.016,-2.95 4.205,-5.36 6.559,-7.25 2.889,-2.189 5.436,-3.383 7.664,-3.569 2.844,-0.24 5.155,0.984 6.945,3.682 l 0.084,0.123 0.028,0.117 c 1.729,4.084 0.326,7.379 -4.234,9.886 -3.444,1.915 -7.135,3.513 -11.069,4.773"
         id="path423" />
      <path
         inkscape:connector-curvature="0"
         style="fill:#0160ad"
         d="m 499.986,299.031 c 2.54,-2.51 5.185,-4.637 7.914,-6.366 2.065,-1.441 3.888,-2.265 5.488,-2.454 1.566,-0.126 2.765,0.591 3.591,2.119 1.02,2.27 0.141,4.178 -2.648,5.73 -3.576,1.97 -6.532,3.363 -8.851,4.179 l -2.332,0.88 -3.162,-4.088 z"
         id="path425" />
      <path
         inkscape:connector-curvature="0"
         style="fill:#043889"
         d="m 518.015,314.685 c 0.671,-1.612 0.461,-2.987 -0.632,-4.121 -1.168,-1.123 -2.969,-2.021 -5.383,-2.692 l -10.227,-2.664 -0.018,-0.001 0.008,0.01 -0.008,-0.01 -0.172,-2.381 c 3.731,0.332 7.185,0.913 10.363,1.752 3.539,0.837 6.092,2.056 7.644,3.664 1.996,2.041 2.518,4.617 1.562,7.718 l -0.034,0.15 -0.075,0.097 c -2.058,3.938 -5.509,4.939 -10.335,3.007 -3.69,-1.462 -7.269,-3.312 -10.769,-5.556 l 0.921,-2.829 2.186,1.259 c 2.096,1.279 5.059,2.68 8.86,4.19 2.965,1.173 4.998,0.645 6.109,-1.593"
         id="path427" />
      <path
         inkscape:connector-curvature="0"
         style="fill:#0160ad"
         d="m 517.383,310.564 c 1.093,1.134 1.303,2.51 0.632,4.121 -1.108,2.239 -3.144,2.766 -6.108,1.593 -3.802,-1.51 -6.765,-2.911 -8.86,-4.189 l -2.186,-1.259 0.903,-5.614 -0.01,-0.009 0.02,0.001 10.226,2.664 c 2.414,0.671 4.215,1.569 5.383,2.692"
         id="path429" />
      <path
         inkscape:connector-curvature="0"
         style="fill:#0160ad"
         d="m 485.625,301.583 1.223,6.885 c 1.068,6.022 3.725,9.014 7.96,8.983 l -0.007,-0.029 c 3.152,-0.182 4.92,-1.794 5.317,-4.833 l 0.028,-0.093 c 0.09,-0.545 0.131,-1.15 0.106,-1.811 -0.485,-2.468 -1.845,-3.486 -4.096,-3.075 -1.246,0.664 -1.69,2.508 -1.338,5.572 l -1.37,1.059 c -2.007,-4.796 -1.749,-7.86 0.763,-9.2 l -8.586,-3.458 z"
         id="path431" />
      <path
         inkscape:connector-curvature="0"
         style="fill:#043889"
         d="m 486.848,308.468 -2.532,-0.035 c 0.95,8.431 4.497,12.48 10.646,12.159 l 0.013,-0.045 c 4.332,-0.231 6.984,-2.225 7.953,-5.962 0.701,-3.221 0.357,-5.96 -1.05,-8.193 -0.734,-1.081 -1.927,-1.73 -3.568,-1.927 -1.433,-0.158 -2.795,0.026 -4.098,0.577 -2.512,1.34 -2.769,4.403 -0.763,9.2 l 1.37,-1.059 c -0.353,-3.064 0.092,-4.908 1.338,-5.572 2.251,-0.411 3.61,0.607 4.096,3.075 0.024,0.661 -0.017,1.266 -0.106,1.811 l -0.028,0.093 c -0.397,3.04 -2.163,4.652 -5.317,4.833 l 0.027,0.031 -0.021,-0.002 c -4.236,0.029 -6.892,-2.962 -7.96,-8.984"
         id="path433" />
      <polygon
         style="fill:#f18900"
         points="494.808,317.451 494.828,317.454 494.801,317.422 "
         id="polygon435" />
      <path
         inkscape:connector-curvature="0"
         style="fill:#0160ad"
         d="m 541.429,360.715 c -0.679,-0.499 -0.512,-1.768 0.489,-3.833 1.044,-2.041 1.812,-2.909 2.315,-2.613 12.539,7.489 22.062,17.671 28.582,30.573 2.002,3.98 3.625,8.011 4.851,12.127 0.553,1.855 1.329,4.146 2.32,6.901 -2.496,2.307 -5.025,3.548 -7.564,3.737 -1.37,-5.372 -2.394,-9.226 -3.086,-11.554 -1.226,-4.056 -2.665,-7.649 -4.329,-10.771 -4.471,-8.326 -12.32,-16.519 -23.578,-24.567"
         id="path437" />
      <path
         inkscape:connector-curvature="0"
         style="fill:none;stroke:#043889;stroke-width:6.23129988;stroke-miterlimit:10"
         d="m 572.422,407.606 c -1.37,-5.372 -2.396,-9.226 -3.086,-11.554 -1.226,-4.056 -2.665,-7.649 -4.329,-10.771 -4.471,-8.326 -12.32,-16.518 -23.578,-24.566 -0.679,-0.499 -0.512,-1.769 0.489,-3.833 1.044,-2.041 1.812,-2.91 2.315,-2.613 12.539,7.488 22.062,17.671 28.582,30.573 2.002,3.98 3.625,8.011 4.851,12.127 0.553,1.855 1.329,4.146 2.32,6.901"
         id="path439" />
      <path
         inkscape:connector-curvature="0"
         style="fill:#0160ad"
         d="m 523.658,349.983 c 2.726,-7.869 4.667,-12.251 5.807,-13.133 1.898,-1.52 4.652,-1.682 8.273,-0.488 0.938,0.447 1.642,0.786 2.118,1.003 -0.312,0.273 0.039,1.914 1.032,4.939 0.758,2.333 2.442,7.149 5.046,14.434 5.751,16.606 8.899,29.332 9.441,38.177 0.611,10 -2.009,17.949 -7.868,23.85 -2.538,2.549 -5.455,4.397 -8.765,5.535 -3.215,1.1 -6.457,1.426 -9.715,0.95 -3.323,-0.501 -6.308,-1.805 -8.954,-3.908 -2.822,-2.236 -4.991,-5.235 -6.512,-8.979 -3.568,-8.753 -3.187,-20.174 1.113,-34.244 3.922,-12.847 6.921,-22.222 8.984,-28.136"
         id="path441" />
      <path
         inkscape:connector-curvature="0"
         style="fill:#0160ad"
         d="m 540.181,337.392 c 0.65,0.38 0.544,0.367 -0.324,-0.027 0.093,-0.053 0.202,-0.04 0.324,0.027"
         id="path443" />
      <path
         inkscape:connector-curvature="0"
         style="fill:none;stroke:#043889;stroke-width:6.24060011;stroke-miterlimit:10"
         d="m 523.658,349.983 c -2.063,5.915 -5.062,15.289 -8.982,28.136 -4.3,14.07 -4.682,25.491 -1.113,34.244 1.521,3.743 3.689,6.742 6.512,8.979 2.646,2.104 5.631,3.407 8.954,3.908 3.258,0.476 6.5,0.149 9.715,-0.95 3.31,-1.138 6.227,-2.986 8.765,-5.535 5.859,-5.9 8.479,-13.85 7.868,-23.85 -0.542,-8.845 -3.69,-21.571 -9.441,-38.177 -2.604,-7.285 -4.288,-12.101 -5.046,-14.434 -0.993,-3.025 -1.344,-4.667 -1.032,-4.939 -0.477,-0.217 -1.181,-0.556 -2.118,-1.003 -3.621,-1.193 -6.375,-1.031 -8.273,0.488 -1.142,0.882 -3.083,5.264 -5.809,13.133 z"
         id="path445" />
      <path
         inkscape:connector-curvature="0"
         style="fill:#0160ad"
         d="m 526.027,418.243 -4.936,-1.061 c -5.984,13.88 -9.878,26.959 -11.654,39.238 -10.581,-0.028 -18.165,1.179 -22.765,3.607 -2.008,1.072 -3.379,2.267 -4.098,3.608 -0.691,1.301 -0.718,2.577 -0.082,3.824 1.412,2.783 5.156,4.479 11.235,5.075 6.483,0.624 14.92,-0.543 25.314,-3.484 -0.541,-16.17 1.794,-33.103 6.986,-50.807"
         id="path447" />
      <path
         inkscape:connector-curvature="0"
         style="fill:#0160ad"
         d="m 541.598,418.243 4.936,-1.061 c 5.984,13.88 9.878,26.959 11.654,39.238 10.583,-0.028 18.166,1.179 22.768,3.607 2.006,1.072 3.376,2.267 4.096,3.608 0.691,1.301 0.718,2.577 0.081,3.824 -1.41,2.783 -5.153,4.479 -11.231,5.075 -6.485,0.624 -14.924,-0.543 -25.315,-3.484 0.54,-16.17 -1.794,-33.103 -6.989,-50.807"
         id="path449" />
      <path
         inkscape:connector-curvature="0"
         style="fill:#0160ad"
         d="m 496.93,300.926 c 2.039,-4.87 4.894,-9.185 8.565,-12.915 3.674,-3.759 7.892,-6.675 12.669,-8.738 4.941,-2.129 10.11,-3.188 15.52,-3.188 5.41,0 10.579,1.059 15.507,3.188 4.776,2.062 8.995,4.979 12.686,8.738 3.672,3.73 6.521,8.045 8.538,12.915 2.077,5.033 3.115,10.311 3.115,15.833 0,5.507 -1.038,10.771 -3.115,15.804 -2.017,4.871 -4.866,9.199 -8.538,12.958 -3.69,3.729 -7.909,6.633 -12.686,8.708 -4.928,2.117 -10.097,3.175 -15.507,3.175 -5.409,0 -10.578,-1.059 -15.52,-3.175 -4.777,-2.075 -8.995,-4.979 -12.669,-8.708 -3.672,-3.758 -6.526,-8.087 -8.565,-12.957 -2.077,-5.006 -3.115,-10.284 -3.115,-15.805 -10e-4,-5.522 1.038,-10.8 3.115,-15.833"
         id="path451" />
      <path
         inkscape:connector-curvature="0"
         style="fill:none;stroke:#043889;stroke-width:6.03070021;stroke-miterlimit:10"
         d="m 505.495,288.012 c 3.674,-3.759 7.892,-6.676 12.669,-8.737 4.941,-2.13 10.11,-3.188 15.52,-3.188 5.41,0 10.579,1.059 15.507,3.188 4.776,2.062 8.995,4.979 12.686,8.737 3.672,3.73 6.521,8.045 8.538,12.914 2.077,5.034 3.115,10.312 3.115,15.833 0,5.507 -1.038,10.771 -3.115,15.805 -2.017,4.87 -4.866,9.198 -8.538,12.957 -3.69,3.73 -7.909,6.634 -12.686,8.708 -4.928,2.117 -10.097,3.176 -15.507,3.176 -5.409,0 -10.578,-1.059 -15.52,-3.176 -4.777,-2.075 -8.995,-4.979 -12.669,-8.708 -3.672,-3.758 -6.526,-8.087 -8.565,-12.957 -2.077,-5.007 -3.115,-10.285 -3.115,-15.805 0,-5.521 1.038,-10.8 3.115,-15.833 2.039,-4.869 4.893,-9.184 8.565,-12.914 z"
         id="path453" />
      <path
         inkscape:connector-curvature="0"
         style="fill:#0160ad"
         d="m 496.93,300.926 c 2.039,-4.87 4.894,-9.185 8.565,-12.915 3.674,-3.759 7.892,-6.675 12.669,-8.738 4.941,-2.129 10.11,-3.188 15.52,-3.188 5.41,0 10.579,1.059 15.507,3.188 4.776,2.062 8.995,4.979 12.686,8.738 3.672,3.73 6.521,8.045 8.538,12.915 2.077,5.033 3.115,10.311 3.115,15.833 0,5.507 -1.038,10.771 -3.115,15.804 -2.017,4.871 -4.866,9.199 -8.538,12.958 -3.69,3.729 -7.909,6.633 -12.686,8.708 -4.928,2.117 -10.097,3.175 -15.507,3.175 -5.409,0 -10.578,-1.059 -15.52,-3.175 -4.777,-2.075 -8.995,-4.979 -12.669,-8.708 -3.672,-3.758 -6.526,-8.087 -8.565,-12.957 -2.077,-5.006 -3.115,-10.284 -3.115,-15.805 -10e-4,-5.522 1.038,-10.8 3.115,-15.833"
         id="path455" />
      <path
         inkscape:connector-curvature="0"
         style="fill:#e42126"
         d="m 497.535,315.835 c 0,-5.25 3.556,-9.741 10.68,-13.458 7.106,-3.73 15.68,-5.589 25.735,-5.589 10.051,0 18.639,1.859 25.748,5.589 7.109,3.718 10.663,8.208 10.663,13.458 0,5.264 -3.554,9.755 -10.663,13.473 -7.109,3.717 -15.697,5.574 -25.748,5.574 -10.056,0 -18.629,-1.857 -25.735,-5.574 -7.124,-3.718 -10.68,-8.208 -10.68,-13.473 m 13.134,-11.626 c -6.363,3.215 -9.55,7.082 -9.55,11.626 0,4.544 3.187,8.411 9.55,11.627 6.376,3.216 14.068,4.815 23.075,4.815 9.01,0 16.702,-1.599 23.079,-4.815 6.363,-3.216 9.55,-7.082 9.55,-11.627 0,-4.545 -3.187,-8.412 -9.55,-11.626 -6.377,-3.215 -14.069,-4.817 -23.079,-4.817 -9.007,0 -16.699,1.602 -23.075,4.817"
         id="path457" />
      <path
         inkscape:connector-curvature="0"
         style="fill:#282525"
         d="m 501.119,315.835 c 0,-4.545 3.187,-8.412 9.55,-11.626 6.376,-3.215 14.068,-4.817 23.077,-4.817 9.008,0 16.7,1.602 23.077,4.817 6.363,3.215 9.55,7.082 9.55,11.626 0,4.545 -3.187,8.411 -9.55,11.627 -6.377,3.216 -14.069,4.815 -23.077,4.815 -9.009,0 -16.701,-1.599 -23.077,-4.815 -6.363,-3.216 -9.55,-7.081 -9.55,-11.627"
         id="path459" />
      <path
         inkscape:connector-curvature="0"
         style="fill:#0160ad"
         d="m 497.076,317.288 c 0.729,-11.22 5.145,-20.745 13.242,-28.599 7.486,-6.363 15.625,-9.876 24.439,-10.569 9.567,2.32 17.64,5.78 24.2,10.352 9.081,6.81 13.173,16.416 12.284,28.816 -5.353,4.179 -11.489,7.421 -18.419,9.713 -6.073,2.007 -12.234,3.134 -18.504,3.378 -6.481,-0.245 -12.751,-1.371 -18.82,-3.378 -6.929,-2.292 -13.065,-5.535 -18.422,-9.713"
         id="path461" />
      <path
         inkscape:connector-curvature="0"
         style="fill:#f3f3f3"
         d="m 563.773,309.119 c 0.652,-2.755 -0.038,-5.386 -2.059,-7.923 -2.022,-2.551 -4.82,-4.247 -8.359,-5.102 -3.541,-0.827 -6.795,-0.583 -9.768,0.76 -2.971,1.357 -4.775,3.406 -5.428,6.133 -0.664,2.754 0.015,5.4 2.063,7.95 2.021,2.551 4.815,4.247 8.356,5.074 3.542,0.855 6.796,0.61 9.769,-0.733 2.943,-1.357 4.762,-3.405 5.426,-6.159"
         id="path463" />
      <path
         inkscape:connector-curvature="0"
         style="fill:#f3f3f3"
         d="m 504.141,309.119 c -0.65,-2.755 0.041,-5.386 2.062,-7.923 2.022,-2.551 4.815,-4.247 8.357,-5.102 3.543,-0.827 6.797,-0.583 9.768,0.76 2.973,1.357 4.776,3.406 5.427,6.133 0.665,2.754 -0.012,5.4 -2.062,7.95 -2.021,2.551 -4.816,4.247 -8.355,5.074 -3.541,0.855 -6.797,0.61 -9.768,-0.733 -2.946,-1.357 -4.764,-3.405 -5.429,-6.159"
         id="path465" />
      <path
         inkscape:connector-curvature="0"
         style="fill:#282525"
         d="m 552.943,301.364 c -1.153,-1.478 -2.673,-2.347 -4.559,-2.578 -1.859,-0.231 -3.541,0.231 -5.02,1.411 -1.48,1.181 -2.334,2.7 -2.551,4.559 -0.23,1.886 0.23,3.555 1.385,5.02 1.181,1.478 2.699,2.333 4.557,2.549 1.859,0.232 3.543,-0.23 5.02,-1.383 1.48,-1.152 2.349,-2.673 2.579,-4.558 0.231,-1.859 -0.23,-3.542 -1.411,-5.02"
         id="path467" />
      <path
         inkscape:connector-curvature="0"
         style="fill:#282525"
         d="m 514.955,301.364 c 1.153,-1.478 2.673,-2.347 4.559,-2.578 1.857,-0.231 3.541,0.231 5.02,1.411 1.479,1.181 2.334,2.7 2.548,4.559 0.232,1.886 -0.228,3.555 -1.38,5.02 -1.183,1.478 -2.701,2.333 -4.559,2.549 -1.859,0.232 -3.544,-0.23 -5.02,-1.383 -1.482,-1.152 -2.349,-2.673 -2.579,-4.558 -0.231,-1.859 0.23,-3.542 1.411,-5.02"
         id="path469" />
      <path
         inkscape:connector-curvature="0"
         style="fill:#e97ca0"
         d="m 526.527,310.471 c 2.1,-2.32 4.623,-3.474 7.596,-3.474 2.971,0 5.507,1.154 7.625,3.474 2.101,2.333 3.16,5.141 3.16,8.412 0,3.295 -1.06,6.104 -3.16,8.438 -2.104,2.319 -4.642,3.473 -7.625,3.473 -2.986,0 -5.522,-1.153 -7.596,-3.473 -2.104,-2.334 -3.165,-5.143 -3.165,-8.438 0,-3.297 1.061,-6.092 3.165,-8.412"
         id="path471" />
      <path
         inkscape:connector-curvature="0"
         style="fill:#0160ad"
         d="m 541.429,360.715 c -0.679,-0.499 -0.512,-1.768 0.489,-3.833 1.044,-2.041 1.812,-2.909 2.315,-2.613 12.539,7.489 22.062,17.671 28.582,30.573 2.002,3.98 3.625,8.011 4.851,12.127 0.553,1.855 0.958,3.374 1.224,4.573 -1.764,3.85 -3.929,5.876 -6.468,6.065 -1.37,-5.372 -2.394,-9.226 -3.086,-11.554 -1.226,-4.056 -2.665,-7.649 -4.329,-10.771 -4.471,-8.326 -12.32,-16.519 -23.578,-24.567"
         id="path473" />
      <path
         inkscape:connector-curvature="0"
         style="fill:#043889"
         d="m 580.355,399.121 -0.557,2.621 c 5.35,0.652 9.374,2.83 12.09,6.521 1.73,2.418 2.645,4.722 2.736,6.922 0.083,2.337 -0.288,4.221 -1.115,5.653 l -0.022,0.054 c -0.137,0.222 -0.302,0.454 -0.506,0.679 -0.27,-4.331 -1.458,-7.014 -3.584,-8.033 1.146,4.639 1.207,8.192 0.21,10.667 -1.001,2.485 -2.414,3.805 -4.212,3.955 0.229,-0.454 0.418,-0.97 0.589,-1.545 1.235,-5.315 0.273,-9.057 -2.881,-11.189 1.188,3.01 1.464,6.121 0.842,9.349 -0.862,3.254 -2.557,4.769 -5.085,4.544 -0.864,-0.083 -1.519,-0.585 -1.948,-1.484 v -0.014 c -0.608,-1.301 -0.983,-3.22 -1.111,-5.771 l -0.009,-0.028 -0.004,-0.057 c -0.212,-2.467 -0.613,-4.404 -1.226,-5.846 l -1.333,-2.336 -1.517,2 c -1.702,2.42 -3.215,3.91 -4.524,4.477 -0.84,0.251 -1.61,-0.049 -2.294,-0.925 -1.6,-2.466 0.608,-6.498 6.637,-12.125 l -1.38,-1.986 c -4.135,3.514 -6.8,6.562 -7.979,9.128 -1.17,2.514 -0.962,4.691 0.596,6.532 0.939,1.059 1.9,1.762 2.885,2.086 1.001,0.326 2.053,0.279 3.179,-0.112 0.613,-0.21 1.201,-0.585 1.751,-1.121 0.549,-0.549 1.211,-1.421 2.007,-2.587 l 0.145,5.423 -0.002,0.014 c 0.24,1.98 0.652,3.548 1.233,4.693 l -0.004,0.015 c 1.121,2.298 2.852,3.383 5.19,3.286 1.527,-0.018 2.858,-0.484 3.976,-1.372 3.933,0.047 6.928,-1.761 9.001,-5.421 4.378,-3.337 5.986,-7.64 4.812,-12.899 -2.082,-8.086 -7.607,-12.669 -16.586,-13.768"
         id="path475" />
      <path
         inkscape:connector-curvature="0"
         style="fill:#0160ad"
         d="m 594.625,415.185 c -0.092,-2.2 -1.006,-4.504 -2.736,-6.922 -2.716,-3.69 -6.74,-5.868 -12.09,-6.521 -2.371,-0.115 -3.723,0.553 -4.063,2.02 l -4.204,3.447 c -6.028,5.627 -8.236,9.659 -6.637,12.125 0.684,0.876 1.454,1.176 2.294,0.925 1.31,-0.566 2.822,-2.057 4.524,-4.477 l 1.517,-2 1.333,2.336 c 0.612,1.441 1.014,3.379 1.226,5.846 l 0.004,0.057 0.009,0.028 c 0.128,2.551 0.503,4.47 1.111,5.771 v 0.014 c 0.43,0.899 1.084,1.401 1.948,1.484 2.528,0.225 4.223,-1.29 5.085,-4.544 0.622,-3.228 0.347,-6.339 -0.842,-9.349 3.154,2.133 4.116,5.874 2.881,11.189 -0.171,0.575 -0.359,1.091 -0.589,1.545 1.798,-0.15 3.211,-1.47 4.212,-3.955 0.997,-2.475 0.936,-6.028 -0.21,-10.667 2.126,1.02 3.317,3.702 3.584,8.033 0.204,-0.225 0.369,-0.457 0.506,-0.679 l 0.022,-0.054 c 0.827,-1.432 1.198,-3.318 1.115,-5.652"
         id="path477" />
      <path
         inkscape:connector-curvature="0"
         style="fill:#d04315"
         d="m 572.732,424.585 0.002,-0.014 -0.206,-2.343 c 0.043,0.847 0.111,1.626 0.204,2.357"
         id="path479" />
      <path
         inkscape:connector-curvature="0"
         style="fill:#0160ad"
         d="m 488.732,344.761 c -4.104,-3.096 -7.846,-6.58 -11.237,-10.479 -3.403,-3.892 -5.628,-8.619 -6.708,-14.196 -1.073,-5.563 0.207,-10.487 3.847,-14.77 3.56,-4.2 8.032,-6.854 13.408,-7.97 -0.034,2.704 -0.261,5.351 -0.692,7.979 -18.215,12.349 -5.387,29.833 38.505,52.458 1.19,3.12 0.613,5.88 -1.729,8.281 -10.605,-5.718 -18.069,-9.875 -22.384,-12.479 -4.58,-2.8 -8.921,-5.734 -13.01,-8.824"
         id="path481" />
      <path
         inkscape:connector-curvature="0"
         style="fill:#f18900"
         d="m 488.012,311.716 -0.253,-0.854 c 0.112,0.326 0.208,0.611 0.3,0.867 l -0.047,-0.013 z"
         id="path483" />
      <path
         inkscape:connector-curvature="0"
         style="fill:#0160ad"
         d="m 488.683,311.876 c 0.002,-0.019 -0.229,-0.7 -0.659,-2.047 -0.452,-1.349 -1.671,-5.021 -3.674,-11.039 l 1.095,-1.37 c 3.875,-4.097 7.913,-4.956 12.087,-2.572 7.676,2.733 10.18,8.283 7.513,16.671 l -16.362,0.357 z"
         id="path485" />
      <path
         inkscape:connector-curvature="0"
         style="fill:#043889"
         d="m 485.444,297.42 -2.511,-1.529 c 4.729,-4.958 9.788,-6.329 15.171,-4.123 l -0.573,3.081 c -4.174,-2.385 -8.212,-1.526 -12.087,2.571"
         id="path487" />
      <path
         inkscape:connector-curvature="0"
         style="fill:#043889"
         d="m 502.628,297.028 c -0.697,0.018 -1.072,0.069 -1.129,0.148 l 0.383,-2.089 c 0.562,-2.462 0.206,-4.412 -1.093,-5.843 -0.771,-0.618 -1.67,-0.885 -2.679,-0.802 -0.339,0.034 -0.645,0.08 -0.93,0.158 l -0.09,0.039 -0.039,-0.003 c -1.723,0.463 -2.984,1.609 -3.77,3.42 -0.72,1.932 -0.602,3.258 0.359,3.98 1.502,0.936 3.415,0.367 5.747,-1.676 l 1.415,1.232 -1.053,1.423 c -2.057,2.461 -4.416,3.101 -7.046,1.914 -0.026,-0.014 -0.036,-0.023 -0.045,-0.034 -1.365,-0.561 -2.225,-1.54 -2.604,-2.948 -0.358,-1.808 -0.126,-3.635 0.71,-5.489 0.645,-1.348 1.484,-2.44 2.516,-3.235 1.685,-1.268 3.619,-1.853 5.799,-1.738 1.314,0.117 2.497,0.603 3.53,1.456 0.549,0.52 0.995,1.039 1.336,1.559 1.264,2.524 0.828,5.37 -1.317,8.528"
         id="path489" />
      <path
         inkscape:connector-curvature="0"
         style="fill:#0160ad"
         d="m 501.499,297.176 0.008,0.028 c -1.107,-0.097 -1.68,-0.161 -1.756,-0.188 l 1.053,-1.423 -1.415,-1.232 c -2.332,2.042 -4.245,2.611 -5.747,1.676 -0.961,-0.722 -1.079,-2.048 -0.359,-3.98 0.785,-1.812 2.047,-2.957 3.77,-3.42 l 0.039,0.003 0.09,-0.039 c 0.285,-0.078 0.591,-0.124 0.93,-0.158 1.009,-0.083 1.908,0.184 2.679,0.802 1.299,1.431 1.655,3.381 1.093,5.843 l -0.385,2.088 z"
         id="path491" />
      <polygon
         style="fill:#d04315"
         points="492.693,298.938 492.705,298.93 492.722,298.95 "
         id="polygon493" />
      <path
         inkscape:connector-curvature="0"
         style="fill:#043889"
         d="m 504.755,305.62 -1.606,-2.5 2.334,-0.88 c 2.318,-0.816 5.272,-2.209 8.847,-4.179 2.789,-1.552 3.67,-3.46 2.65,-5.73 -0.826,-1.528 -2.024,-2.246 -3.591,-2.119 -1.601,0.188 -3.423,1.013 -5.488,2.454 -2.729,1.729 -5.374,3.856 -7.914,6.366 l -1.209,-1.174 c 2.016,-2.95 4.205,-5.36 6.559,-7.25 2.889,-2.189 5.436,-3.383 7.664,-3.569 2.844,-0.24 5.155,0.984 6.945,3.682 l 0.084,0.123 0.028,0.117 c 1.729,4.084 0.326,7.379 -4.234,9.886 -3.444,1.915 -7.135,3.513 -11.069,4.773"
         id="path495" />
      <path
         inkscape:connector-curvature="0"
         style="fill:#0160ad"
         d="m 499.986,299.031 c 2.54,-2.51 5.185,-4.637 7.914,-6.366 2.065,-1.441 3.888,-2.265 5.488,-2.454 1.566,-0.126 2.765,0.591 3.591,2.119 1.02,2.27 0.141,4.178 -2.648,5.73 -3.576,1.97 -6.532,3.363 -8.851,4.179 l -2.332,0.88 -3.162,-4.088 z"
         id="path497" />
      <path
         inkscape:connector-curvature="0"
         style="fill:#043889"
         d="m 518.015,314.685 c 0.671,-1.612 0.461,-2.987 -0.632,-4.121 -1.168,-1.123 -2.969,-2.021 -5.383,-2.692 l -10.227,-2.664 -0.018,-0.001 0.008,0.01 -0.008,-0.01 -0.172,-2.381 c 3.731,0.332 7.185,0.913 10.363,1.752 3.539,0.837 6.092,2.056 7.644,3.664 1.996,2.041 2.518,4.617 1.562,7.718 l -0.034,0.15 -0.075,0.097 c -2.058,3.938 -5.509,4.939 -10.335,3.007 -3.69,-1.462 -7.269,-3.312 -10.769,-5.556 l 0.921,-2.829 2.186,1.259 c 2.096,1.279 5.059,2.68 8.86,4.19 2.965,1.173 4.998,0.645 6.109,-1.593"
         id="path499" />
      <path
         inkscape:connector-curvature="0"
         style="fill:#0160ad"
         d="m 517.383,310.564 c 1.093,1.134 1.303,2.51 0.632,4.121 -1.108,2.239 -3.144,2.766 -6.108,1.593 -3.802,-1.51 -6.765,-2.911 -8.86,-4.189 l -2.186,-1.259 0.903,-5.614 -0.01,-0.009 0.02,0.001 10.226,2.664 c 2.414,0.671 4.215,1.569 5.383,2.692"
         id="path501" />
      <path
         inkscape:connector-curvature="0"
         style="fill:#0160ad"
         d="m 485.625,301.583 1.223,6.885 c 1.068,6.022 3.725,9.014 7.96,8.983 l -0.007,-0.029 c 3.152,-0.182 4.92,-1.794 5.317,-4.833 l 0.028,-0.093 c 0.09,-0.545 0.131,-1.15 0.106,-1.811 -0.485,-2.468 -1.845,-3.486 -4.096,-3.075 -1.246,0.664 -1.69,2.508 -1.338,5.572 l -1.37,1.059 c -2.007,-4.796 -1.749,-7.86 0.763,-9.2 l -8.586,-3.458 z"
         id="path503" />
      <path
         inkscape:connector-curvature="0"
         style="fill:#043889"
         d="m 486.848,308.468 -2.532,-0.035 c 0.95,8.431 4.497,12.48 10.646,12.159 l 0.013,-0.045 c 4.332,-0.231 6.984,-2.225 7.953,-5.962 0.701,-3.221 0.357,-5.96 -1.05,-8.193 -0.734,-1.081 -1.927,-1.73 -3.568,-1.927 -1.433,-0.158 -2.795,0.026 -4.098,0.577 -2.512,1.34 -2.769,4.403 -0.763,9.2 l 1.37,-1.059 c -0.353,-3.064 0.092,-4.908 1.338,-5.572 2.251,-0.411 3.61,0.607 4.096,3.075 0.024,0.661 -0.017,1.266 -0.106,1.811 l -0.028,0.093 c -0.397,3.04 -2.163,4.652 -5.317,4.833 l 0.027,0.031 -0.021,-0.002 c -4.236,0.029 -6.892,-2.962 -7.96,-8.984"
         id="path505" />
      <polygon
         style="fill:#f18900"
         points="494.808,317.451 494.828,317.454 494.801,317.422 "
         id="polygon507" />
      <path
         inkscape:connector-curvature="0"
         style="fill:#043889"
         d="m 518.922,351.323 h 0.013 c 4.622,1.967 9.447,2.945 14.504,2.945 5.052,0 9.878,-0.978 14.476,-2.945 h 0.012 c 4.445,-1.926 8.39,-4.612 11.817,-8.072 0.012,0 0.012,0 0.012,-0.013 2.559,-2.619 4.688,-5.51 6.38,-8.697 l 6.636,-0.135 c -2.167,5.005 -5.16,9.456 -8.979,13.349 l -0.013,0.014 c -3.959,4.002 -8.518,7.123 -13.661,9.334 v 0.013 h -0.015 c -5.297,2.266 -10.847,3.393 -16.665,3.393 -5.821,0 -11.383,-1.127 -16.695,-3.393 l -0.011,-0.013 c -5.132,-2.211 -9.692,-5.332 -13.651,-9.334 v -0.014 c -3.424,-3.499 -6.202,-7.448 -8.314,-11.83 l 6.659,-0.122 c 1.579,2.699 3.476,5.184 5.704,7.448 l -0.013,-0.013 c 3.425,3.459 7.36,6.158 11.804,8.085"
         id="path509" />
      <path
         inkscape:connector-curvature="0"
         style="fill:#0160ad"
         d="m 519.018,351.323 h -0.012 c -4.734,-1.926 -8.926,-4.625 -12.575,-8.084 l 0.012,0.013 c -2.373,-2.265 -4.396,-4.749 -6.077,-7.448 l 1.288,-0.028 c 1.587,2.47 3.475,4.75 5.658,6.839 3.541,3.364 7.612,5.982 12.208,7.841 4.765,1.913 9.743,2.862 14.952,2.862 5.21,0 10.188,-0.949 14.949,-2.862 4.602,-1.858 8.673,-4.477 12.227,-7.841 2.534,-2.429 4.667,-5.115 6.375,-8.059 l 1.288,-0.014 c -1.806,3.188 -4.071,6.078 -6.797,8.697 0,0.013 0,0.013 -0.015,0.013 -3.647,3.459 -7.853,6.146 -12.589,8.072 h -0.013 c -4.899,1.967 -10.041,2.945 -15.426,2.945 -5.385,-0.001 -10.528,-0.979 -15.453,-2.946"
         id="path511" />
      <path
         inkscape:connector-curvature="0"
         style="fill:#0160ad"
         d="m 502.637,335.775 c 1.488,2.47 3.26,4.749 5.309,6.839 3.323,3.363 7.144,5.981 11.458,7.84 4.471,1.914 9.144,2.864 14.033,2.864 4.891,0 9.563,-0.95 14.031,-2.864 4.317,-1.858 8.139,-4.477 11.474,-7.84 2.38,-2.429 4.367,-5.102 5.984,-8.046 l 4.559,-0.094 c -1.949,4.096 -4.521,7.773 -7.717,11.029 -3.705,3.732 -7.945,6.635 -12.747,8.71 -4.952,2.117 -10.146,3.174 -15.584,3.174 -5.436,0 -10.633,-1.058 -15.599,-3.174 -4.798,-2.075 -9.038,-4.978 -12.732,-8.71 -2.84,-2.889 -5.183,-6.104 -7.055,-9.646 l 4.586,-0.082 z"
         id="path513" />
      <path
         inkscape:connector-curvature="0"
         style="fill:#0160ad"
         d="m 520.076,421.342 c -2.821,-2.236 -4.993,-5.235 -6.512,-8.979 -3.568,-8.753 -3.188,-20.174 1.113,-34.244 3.131,-10.243 5.67,-18.273 7.608,-24.107 h 22.672 c 0.312,0.868 0.638,1.776 0.977,2.727 5.751,16.605 8.899,29.332 9.441,38.176 0.611,10 -2.009,17.949 -7.868,23.85 -2.538,2.549 -5.453,4.397 -8.765,5.535 -3.215,1.1 -6.459,1.426 -9.715,0.95 -3.322,-0.501 -6.306,-1.805 -8.951,-3.908"
         id="path515" />
    </g>
  </g>
</svg>
