<?xml version="1.0" encoding="UTF-8" standalone="no"?>
<!-- Created with Inkscape (http://www.inkscape.org/) -->

<svg
   xmlns:dc="http://purl.org/dc/elements/1.1/"
   xmlns:cc="http://creativecommons.org/ns#"
   xmlns:rdf="http://www.w3.org/1999/02/22-rdf-syntax-ns#"
   xmlns:svg="http://www.w3.org/2000/svg"
   xmlns="http://www.w3.org/2000/svg"
   xmlns:sodipodi="http://sodipodi.sourceforge.net/DTD/sodipodi-0.dtd"
   xmlns:inkscape="http://www.inkscape.org/namespaces/inkscape"
   width="197.05841"
   height="229.10965"
   id="svg5696"
   version="1.1"
   inkscape:version="0.48.4 r9939"
   sodipodi:docname="grover10.svg">
  <defs
     id="defs5698">
    <clipPath
       id="SVGID_2_">
      <rect
         height="88.862999"
         width="111.498"
         y="518.96198"
         x="382.04999"
         id="use1087" />
    </clipPath>
    <clipPath
       id="SVGID_4_">
      <rect
         height="41.314999"
         width="49.584999"
         y="525.19397"
         x="389.84698"
         id="use1111" />
    </clipPath>
  </defs>
  <sodipodi:namedview
     id="base"
     pagecolor="#ffffff"
     bordercolor="#666666"
     borderopacity="1.0"
     inkscape:pageopacity="0.0"
     inkscape:pageshadow="2"
     inkscape:zoom="0.77472527"
     inkscape:cx="99.998132"
     inkscape:cy="191.11463"
     inkscape:current-layer="layer1"
     inkscape:document-units="px"
     showgrid="false"
     inkscape:window-width="763"
     inkscape:window-height="591"
     inkscape:window-x="592"
     inkscape:window-y="97"
     inkscape:window-maximized="0"
     fit-margin-top="0"
     fit-margin-left="0"
     fit-margin-right="0"
     fit-margin-bottom="0" />
  <metadata
     id="metadata5701">
    <rdf:RDF>
      <cc:Work
         rdf:about="">
        <dc:format>image/svg+xml</dc:format>
        <dc:type
           rdf:resource="http://purl.org/dc/dcmitype/StillImage" />
        <dc:title></dc:title>
      </cc:Work>
    </rdf:RDF>
  </metadata>
  <g
     id="layer1"
     inkscape:label="Layer 1"
     inkscape:groupmode="layer"
     transform="translate(-217.94516,-47.111363)">
    <g
       transform="translate(118.05073,-457.26163)"
       id="g1059">
      <path
         inkscape:connector-curvature="0"
         style="fill:#bdb9c3"
         d="m 169.555,642.076 c -2.221,1.894 -4.239,4.012 -6.057,6.361 -0.933,1.209 -1.843,2.471 -2.7,3.759 -0.63,1.036 -1.261,2.094 -1.867,3.154 -0.833,1.413 -1.515,2.877 -2.069,4.392 -0.605,1.692 -1.161,3.382 -1.666,5.123 -0.53,1.895 -1.162,3.76 -1.894,5.552 -0.808,2.271 -1.716,4.492 -2.725,6.688 -1.186,2.549 -2.474,5.048 -3.861,7.546 -1.389,2.523 -2.878,4.999 -4.417,7.421 -1.59,2.498 -3.105,5.021 -4.568,7.621 -1.463,2.549 -2.826,5.175 -4.113,7.874 -0.606,1.286 -1.187,2.6 -1.766,3.912 -0.304,0.732 -0.583,1.488 -0.859,2.245 -0.58,1.665 -0.833,3.382 -0.808,5.174 0.025,0.757 0.278,1.387 0.757,1.868 1.312,1.361 3.028,2.019 5.147,1.969 0.051,0.022 0.101,0.022 0.152,0.022 0.682,0.129 1.389,0.204 2.094,0.279 1.743,0.277 3.535,0.579 5.352,0.933 2.801,0.634 5.527,1.441 8.201,2.424 2.045,0.731 4.189,1.084 6.385,1.084 2.828,-0.15 5.629,-0.175 8.43,-0.075 2.979,0.328 5.956,0.38 8.935,0.178 2.65,-0.227 5.324,-0.354 8,-0.354 3.054,0 5.931,0.581 8.681,1.743 2.65,1.185 5.401,1.942 8.253,2.271 2.751,0.354 5.527,0.581 8.277,0.708 2.803,0.124 5.603,0.199 8.43,0.251 3.004,0.075 5.98,-0.151 8.958,-0.657 2.852,-0.454 5.678,-0.982 8.506,-1.614 2.422,-0.581 4.871,-1.136 7.343,-1.692 2.726,-0.628 5.426,-1.233 8.076,-1.766 2.346,-0.528 4.744,-0.984 7.142,-1.413 2.599,-0.479 5.149,-0.883 7.672,-1.26 2.675,-0.381 5.325,-0.683 7.975,-0.936 2.751,-0.302 5.502,-0.555 8.277,-0.783 1.741,-0.1 3.457,-0.202 5.199,-0.277 0.504,-0.026 1.009,-0.026 1.515,-0.026 1.665,0.026 3.28,-0.176 4.82,-0.555 1.034,-0.199 1.766,-0.78 2.247,-1.741 0.782,-1.563 0.909,-3.181 0.377,-4.868 -0.429,-1.391 -0.833,-2.804 -1.211,-4.19 -0.253,-0.909 -0.505,-1.816 -0.732,-2.724 -0.758,-2.778 -1.514,-5.556 -2.297,-8.354 -0.428,-1.515 -0.908,-2.979 -1.438,-4.418 l -3.457,-8.2 c -0.682,-1.566 -1.338,-2.954 -2.019,-4.192 -1.186,-2.118 -2.55,-4.087 -4.114,-5.929 -1.842,-2.197 -3.937,-4.139 -6.233,-5.831 -2.449,-1.74 -4.947,-3.355 -7.522,-4.793 -0.478,-0.281 -0.983,-0.53 -1.489,-0.81 -1.336,-0.705 -2.724,-1.412 -4.139,-2.094 -1.337,-0.656 -2.497,-1.515 -3.531,-2.548 -0.506,-0.479 -1.011,-0.961 -1.49,-1.439 -1.337,-1.464 -2.297,-2.952 -2.828,-4.468 -0.528,-1.488 -1.084,-2.952 -1.665,-4.364 -1.009,-2.397 -2.169,-4.718 -3.483,-6.967 -1.362,-2.32 -3.129,-4.238 -5.273,-5.778 -1.641,-1.187 -3.459,-2.021 -5.502,-2.499 -1.337,-0.277 -2.625,-0.479 -3.811,-0.657 -1.489,-0.177 -3.003,-0.301 -4.492,-0.328 -1.439,-0.024 -2.903,0.078 -4.366,0.355 -1.388,0.277 -2.777,0.503 -4.19,0.681 -0.783,0.075 -1.564,0.102 -2.347,0.126 -2.927,0.076 -5.829,0.076 -8.731,0.052 -1.741,-0.076 -3.483,-0.202 -5.225,-0.38 -1.187,-0.102 -2.371,-0.201 -3.558,-0.304 -1.59,-0.227 -3.229,-0.328 -4.871,-0.302 -0.58,0 -1.135,0.024 -1.716,0.075 -1.591,0.227 -3.206,0.479 -4.795,0.783 -1.943,0.326 -3.887,0.656 -5.856,0.982 -1.868,0.279 -3.709,0.783 -5.527,1.464 -1.741,0.633 -3.432,1.439 -5.072,2.398 -0.983,0.63 -1.942,1.335 -2.851,2.118 m 49.489,26.07 c 1.768,3.003 2.929,4.895 3.458,5.678 1.337,1.994 2.499,3.307 3.483,3.937 0.581,0.38 1.414,0.657 2.473,0.883 1.792,0.33 3.786,0.885 6.031,1.615 2.07,0.683 4.618,1.616 7.622,2.852 3.205,1.315 5.173,2.221 5.856,2.729 -0.683,-0.508 -2.651,-1.413 -5.856,-2.729 -3.003,-1.235 -5.551,-2.169 -7.622,-2.852 -2.246,-0.73 -4.239,-1.285 -6.031,-1.615 -1.06,-0.226 -1.893,-0.503 -2.473,-0.883 -0.984,-0.63 -2.146,-1.942 -3.483,-3.937 -0.529,-0.783 -1.69,-2.675 -3.458,-5.678 -1.791,-3.055 -3.911,-5.274 -6.309,-6.689 -2.346,-0.983 -3.811,-1.666 -4.441,-2.041 0.631,0.375 2.095,1.058 4.441,2.041 2.398,1.415 4.519,3.635 6.309,6.689"
         id="path1061" />
      <path
         inkscape:connector-curvature="0"
         style="fill:none;stroke:#545268;stroke-width:2.52349997;stroke-linecap:round;stroke-linejoin:round;stroke-miterlimit:10"
         d="m 163.499,648.438 c -0.934,1.209 -1.844,2.471 -2.7,3.759 -0.631,1.036 -1.262,2.094 -1.868,3.154 -0.833,1.413 -1.515,2.877 -2.07,4.392 -0.605,1.692 -1.161,3.382 -1.666,5.123 -0.53,1.895 -1.162,3.76 -1.893,5.552 -0.808,2.271 -1.716,4.492 -2.725,6.688 -1.187,2.549 -2.475,5.048 -3.862,7.546 -1.389,2.523 -2.878,4.999 -4.417,7.421 -1.59,2.498 -3.105,5.021 -4.567,7.621 -1.465,2.549 -2.827,5.173 -4.114,7.874 -0.606,1.286 -1.187,2.6 -1.767,3.912 -0.303,0.732 -0.582,1.488 -0.858,2.245 -0.581,1.665 -0.833,3.382 -0.807,5.174 0.024,0.757 0.277,1.387 0.756,1.868 1.313,1.361 3.028,2.019 5.148,1.969 0.051,0.022 0.101,0.022 0.152,0.022 0.682,0.129 1.388,0.204 2.094,0.279 1.742,0.277 3.534,0.579 5.351,0.933 2.801,0.634 5.527,1.441 8.202,2.424 2.044,0.731 4.189,1.084 6.384,1.084 2.828,-0.15 5.63,-0.175 8.43,-0.075 2.978,0.328 5.956,0.38 8.935,0.178 2.65,-0.229 5.325,-0.354 8,-0.354 3.054,0 5.931,0.581 8.682,1.743 2.649,1.185 5.4,1.942 8.252,2.271 2.751,0.354 5.528,0.581 8.277,0.708 2.802,0.124 5.603,0.199 8.43,0.251 3.003,0.075 5.981,-0.151 8.959,-0.657 2.851,-0.454 5.678,-0.982 8.506,-1.614 2.422,-0.581 4.87,-1.136 7.343,-1.692 2.727,-0.628 5.426,-1.233 8.077,-1.766 2.346,-0.528 4.743,-0.984 7.142,-1.413 2.599,-0.479 5.148,-0.883 7.672,-1.26 2.674,-0.381 5.324,-0.683 7.974,-0.936 2.751,-0.302 5.502,-0.555 8.278,-0.783 1.74,-0.1 3.457,-0.202 5.198,-0.277 0.504,-0.026 1.01,-0.026 1.515,-0.026 1.665,0.026 3.281,-0.176 4.82,-0.553 1.034,-0.204 1.766,-0.782 2.246,-1.743 0.783,-1.563 0.909,-3.181 0.378,-4.868 -0.429,-1.391 -0.833,-2.804 -1.212,-4.19 -0.253,-0.909 -0.505,-1.816 -0.731,-2.724 -0.758,-2.778 -1.515,-5.556 -2.297,-8.354 -0.429,-1.515 -0.909,-2.979 -1.438,-4.418 l -3.458,-8.2 c -0.681,-1.566 -1.338,-2.954 -2.019,-4.192 -1.186,-2.118 -2.55,-4.087 -4.114,-5.929 -1.843,-2.197 -3.937,-4.139 -6.233,-5.828 -2.449,-1.743 -4.948,-3.358 -7.522,-4.796 -0.479,-0.281 -0.984,-0.53 -1.489,-0.81 -1.337,-0.705 -2.724,-1.412 -4.14,-2.094 -1.336,-0.656 -2.496,-1.515 -3.531,-2.548 -0.506,-0.479 -1.011,-0.961 -1.49,-1.439 -1.337,-1.464 -2.297,-2.952 -2.827,-4.468 -0.529,-1.488 -1.085,-2.952 -1.665,-4.364 -1.01,-2.397 -2.17,-4.718 -3.483,-6.967 -1.363,-2.32 -3.129,-4.238 -5.273,-5.778 -1.641,-1.187 -3.458,-2.021 -5.503,-2.499 -1.337,-0.277 -2.625,-0.479 -3.81,-0.657 -1.489,-0.177 -3.003,-0.301 -4.492,-0.328 -1.439,-0.024 -2.902,0.078 -4.366,0.355 -1.388,0.277 -2.776,0.503 -4.19,0.681 -0.782,0.075 -1.563,0.102 -2.346,0.126 -2.928,0.076 -5.829,0.076 -8.731,0.052 -1.742,-0.076 -3.483,-0.202 -5.226,-0.38 -1.186,-0.102 -2.371,-0.201 -3.558,-0.304 -1.59,-0.227 -3.229,-0.328 -4.87,-0.302 -0.582,0 -1.136,0.024 -1.717,0.075 -1.59,0.227 -3.205,0.479 -4.794,0.783 -1.944,0.326 -3.887,0.656 -5.856,0.982 -1.867,0.279 -3.708,0.783 -5.526,1.464 -1.741,0.633 -3.431,1.439 -5.073,2.4 -0.984,0.63 -1.942,1.335 -2.851,2.118 -2.221,1.891 -4.239,4.009 -6.056,6.359 z m 84.468,37.401 c -0.683,-0.508 -2.65,-1.413 -5.856,-2.729 -3.003,-1.235 -5.551,-2.169 -7.621,-2.852 -2.246,-0.73 -4.24,-1.285 -6.032,-1.615 -1.059,-0.226 -1.893,-0.503 -2.473,-0.881 -0.984,-0.632 -2.145,-1.944 -3.483,-3.938 -0.53,-0.783 -1.69,-2.675 -3.458,-5.678 -1.791,-3.055 -3.912,-5.274 -6.309,-6.689 -2.347,-0.983 -3.811,-1.666 -4.441,-2.043"
         id="path1063" />
      <path
         inkscape:connector-curvature="0"
         style="fill:#0e5cab"
         d="m 145.631,588.978 c -0.026,-0.024 -0.026,-0.049 -0.026,-0.075 -0.807,-0.328 -1.615,-0.605 -2.448,-0.858 -0.934,-0.277 -1.892,-0.431 -2.852,-0.431 -0.707,0 -1.414,0.027 -2.12,0.052 -0.782,0.15 -1.59,0.304 -2.373,0.48 -0.429,0.225 -0.882,0.429 -1.363,0.657 -0.984,0.428 -1.917,0.882 -2.751,1.41 -2.346,1.466 -4.011,3.156 -4.945,5.1 -0.304,0.63 -0.556,1.262 -0.732,1.892 -0.228,0.759 -0.328,1.541 -0.303,2.349 0.025,0.176 0.025,0.326 0.051,0.504 1.034,3.837 2.044,6.789 3.053,8.883 3.508,7.47 7.597,13.301 12.29,17.516 3.028,1.237 6.814,0.15 11.381,-3.205 0.834,-0.632 1.389,-1.211 1.667,-1.766 3.331,-6.74 5.728,-16.153 7.191,-28.217 0.076,-0.528 0.176,-0.959 0.253,-1.261 -0.909,-5.198 -4.315,-7.773 -10.221,-7.723 -0.682,0 -1.993,0.856 -3.937,2.6 -0.278,0.251 -0.883,0.932 -1.767,2.069 l -0.048,0.024 0.024,0.024 c 2.751,1.515 4.518,3.005 5.3,4.442 0.455,0.961 0.731,2.045 0.833,3.256 0.227,1.085 0.277,2.121 0.202,3.104 -0.075,1.337 -0.757,2.6 -1.994,3.735 -0.202,0.177 -0.429,0.354 -0.656,0.529 -0.681,2.398 -1.111,3.938 -1.313,4.569 -0.808,2.446 -1.691,4.669 -2.675,6.663 0.076,0.126 0.177,0.25 0.278,0.377 0.076,0.102 0.127,0.202 0.202,0.279 0.024,0.075 0.075,0.126 0.125,0.178 -0.051,-0.052 -0.102,-0.103 -0.125,-0.178 -0.075,-0.077 -0.126,-0.178 -0.202,-0.279 -0.101,-0.127 -0.203,-0.251 -0.278,-0.377 -1.791,-2.5 -3.432,-5.1 -4.972,-7.85 -0.1,-0.178 -0.202,-0.328 -0.277,-0.479 -0.68,-1.211 -1.338,-2.523 -1.993,-3.937 -0.05,0 -0.101,0 -0.126,0.024 -1.388,0.277 -2.776,0.53 -4.188,0.731 1.412,-0.201 2.801,-0.454 4.188,-0.731 0.025,-0.024 0.077,-0.024 0.126,-0.024 0.908,-0.229 1.792,-0.53 2.675,-0.885 0.203,-0.075 0.404,-0.176 0.631,-0.251 0.153,-0.051 0.303,-0.102 0.455,-0.178 0.126,-0.075 0.278,-0.15 0.429,-0.226 0.177,-0.101 0.353,-0.204 0.529,-0.277 0.126,-0.078 0.278,-0.178 0.404,-0.253 0.152,-0.075 0.302,-0.176 0.454,-0.253 0.126,-0.102 0.252,-0.202 0.379,-0.277 0.152,-0.102 0.302,-0.202 0.479,-0.304 0.125,-0.1 0.253,-0.2 0.404,-0.304 0.127,-0.126 0.304,-0.251 0.479,-0.377 0.05,-0.051 0.102,-0.101 0.177,-0.125 0.228,-0.177 0.455,-0.381 0.732,-0.607 0.076,-0.075 0.176,-0.148 0.253,-0.227 0.529,-0.505 1.034,-1.035 1.513,-1.565 -0.479,0.53 -0.984,1.061 -1.513,1.565 -0.077,0.078 -0.177,0.151 -0.253,0.227 -0.277,0.227 -0.504,0.431 -0.732,0.607 0.278,-0.075 0.53,-0.102 0.783,-0.075 0.833,0 1.615,0.275 2.322,0.856 -0.707,-0.581 -1.489,-0.856 -2.322,-0.856 -0.252,-0.026 -0.504,0 -0.783,0.075 -0.075,0.024 -0.126,0.074 -0.177,0.125 -0.176,0.126 -0.353,0.251 -0.479,0.377 -0.151,0.104 -0.278,0.204 -0.404,0.304 -0.177,0.102 -0.327,0.202 -0.479,0.304 -0.126,0.075 -0.252,0.176 -0.379,0.277 -0.151,0.077 -0.302,0.178 -0.454,0.253 -0.126,0.075 -0.278,0.175 -0.404,0.253 -0.176,0.073 -0.353,0.177 -0.529,0.277 -0.151,0.075 -0.303,0.15 -0.429,0.226 0.025,0.53 0.025,0.808 0.025,0.858 v 0.101 c 0.025,0.607 0.201,1.213 0.479,1.845 0.127,0.275 0.278,0.504 0.454,0.679 0.556,0.581 1.237,0.86 2.07,0.832 0.177,-0.024 0.354,-0.049 0.529,-0.073 0.026,-0.026 0.076,-0.026 0.102,-0.026 0.151,-0.026 0.303,-0.075 0.455,-0.103 0.025,-0.024 0.076,-0.024 0.1,-0.024 0.732,-0.201 1.464,-0.555 2.221,-1.033 0.076,-0.026 0.125,-0.075 0.202,-0.127 0.228,-0.15 0.456,-0.302 0.656,-0.454 0.076,-0.051 0.126,-0.1 0.178,-0.127 0.227,-0.175 0.454,-0.353 0.656,-0.529 1.237,-1.136 1.918,-2.398 1.994,-3.735 0.075,-0.982 0.024,-2.019 -0.202,-3.104 -0.102,-1.211 -0.378,-2.295 -0.833,-3.256 -0.782,-1.438 -2.549,-2.928 -5.3,-4.442 l -0.026,-0.024 z"
         id="path1065" />
      <path
         inkscape:connector-curvature="0"
         style="fill:none;stroke:#043689;stroke-width:2.27150011;stroke-linecap:round;stroke-linejoin:round;stroke-miterlimit:10"
         d="m 145.959,616.135 c -0.051,-0.052 -0.101,-0.103 -0.126,-0.178 -0.075,-0.077 -0.126,-0.178 -0.202,-0.279 -0.101,-0.127 -0.203,-0.251 -0.278,-0.377 m 0.252,-26.399 c -0.807,-0.328 -1.615,-0.605 -2.448,-0.858 -0.934,-0.277 -1.892,-0.431 -2.852,-0.431 -0.706,0 -1.414,0.027 -2.118,0.054 -0.784,0.148 -1.591,0.302 -2.374,0.479 -0.429,0.225 -0.882,0.429 -1.362,0.657 -0.985,0.428 -1.918,0.882 -2.751,1.41 -2.347,1.466 -4.012,3.156 -4.946,5.1 -0.303,0.63 -0.555,1.262 -0.732,1.892 -0.228,0.759 -0.328,1.541 -0.303,2.349 0.025,0.176 0.025,0.326 0.05,0.504 1.035,3.837 2.045,6.789 3.053,8.883 3.508,7.47 7.597,13.301 12.291,17.516 3.028,1.237 6.814,0.15 11.381,-3.205 0.834,-0.632 1.389,-1.211 1.667,-1.766 3.332,-6.74 5.729,-16.153 7.192,-28.217 0.076,-0.528 0.176,-0.959 0.252,-1.261 -0.909,-5.198 -4.315,-7.773 -10.222,-7.723 -0.681,0 -1.993,0.856 -3.937,2.6 -0.278,0.251 -0.883,0.932 -1.767,2.069 -0.023,-0.025 -0.048,-0.025 -0.074,-0.052 z m -3.734,12.82 c 0.125,-0.075 0.278,-0.15 0.429,-0.226 0.176,-0.101 0.353,-0.204 0.529,-0.277 0.127,-0.078 0.279,-0.178 0.404,-0.253 0.152,-0.075 0.304,-0.176 0.456,-0.253 0.125,-0.102 0.251,-0.202 0.377,-0.277 0.153,-0.102 0.303,-0.202 0.48,-0.304 0.126,-0.1 0.253,-0.2 0.405,-0.304 0.125,-0.126 0.302,-0.251 0.479,-0.377 0.05,-0.051 0.102,-0.101 0.177,-0.125 m -3.736,2.396 c -0.152,0.076 -0.303,0.127 -0.456,0.178 -0.226,0.075 -0.428,0.176 -0.63,0.251 -0.883,0.354 -1.767,0.656 -2.674,0.885 m 11.23,1.032 c -0.052,0.027 -0.102,0.076 -0.178,0.127 -0.201,0.152 -0.429,0.304 -0.656,0.454 -0.076,0.052 -0.126,0.101 -0.203,0.127 -0.756,0.479 -1.489,0.832 -2.22,1.033 -0.024,0 -0.075,0 -0.101,0.026 -0.151,0.025 -0.303,0.074 -0.454,0.101 -0.026,0 -0.076,0 -0.102,0.026 -0.176,0.024 -0.354,0.049 -0.53,0.073 -0.833,0.028 -1.514,-0.251 -2.07,-0.832 -0.176,-0.175 -0.327,-0.403 -0.454,-0.679 -0.278,-0.632 -0.454,-1.237 -0.479,-1.845 v -0.101 c 0,-0.051 0,-0.328 -0.025,-0.858 m 3.736,-2.394 c 0.228,-0.177 0.455,-0.381 0.732,-0.607 0.076,-0.075 0.177,-0.148 0.253,-0.227 0.529,-0.505 1.035,-1.035 1.513,-1.565 m -2.498,2.399 c 0.278,-0.075 0.53,-0.102 0.782,-0.075 0.833,0 1.615,0.275 2.322,0.856 m -3.356,15.194 c 0.984,-1.994 1.868,-4.217 2.676,-6.663 0.201,-0.632 0.631,-2.171 1.312,-4.569 m -3.988,11.232 c -1.791,-2.5 -3.432,-5.1 -4.972,-7.85 -0.1,-0.178 -0.201,-0.328 -0.276,-0.479 -0.682,-1.211 -1.338,-2.523 -1.994,-3.937 m -4.316,0.756 c 1.412,-0.201 2.801,-0.454 4.188,-0.731 0.025,-0.024 0.077,-0.024 0.127,-0.024 m 11.231,1.032 c 0.227,-0.175 0.454,-0.353 0.656,-0.529 1.237,-1.136 1.918,-2.398 1.993,-3.735 0.075,-0.982 0.026,-2.019 -0.202,-3.104 -0.102,-1.211 -0.378,-2.295 -0.833,-3.256 -0.782,-1.438 -2.549,-2.928 -5.3,-4.442 l -0.025,-0.024 c -0.026,-0.024 -0.026,-0.049 -0.026,-0.075"
         id="path1067" />
      <path
         inkscape:connector-curvature="0"
         style="fill:#0e5cab"
         d="m 154.969,581.405 v 2.626 c 1.488,1.49 2.875,3.105 4.139,4.82 0.53,0.733 1.035,1.464 1.514,2.222 4.593,7.091 7.319,15.697 8.177,25.868 0.681,8.101 3.053,14.435 7.116,19.002 7.395,8.277 16.757,9.792 28.14,4.518 8.05,-4.367 11.583,-12.467 10.625,-24.302 -0.732,-9.413 -3.685,-17.188 -8.859,-23.32 -8.403,-9.97 -18.397,-17.187 -30.03,-21.603 -1.969,-0.757 -3.988,-1.438 -6.033,-2.019 l -14.789,12.188 z"
         id="path1069" />
      <path
         inkscape:connector-curvature="0"
         style="fill:none;stroke:#043689;stroke-width:2.27150011;stroke-linecap:round;stroke-linejoin:round;stroke-miterlimit:10"
         d="m 159.108,588.852 c 0.53,0.733 1.034,1.464 1.514,2.222 4.594,7.091 7.319,15.697 8.177,25.868 0.681,8.101 3.053,14.435 7.116,19.002 7.395,8.277 16.758,9.792 28.14,4.518 8.05,-4.367 11.583,-12.467 10.625,-24.302 -0.732,-9.413 -3.685,-17.188 -8.859,-23.32 -8.403,-9.97 -18.397,-17.187 -30.031,-21.603 -1.969,-0.757 -3.988,-1.438 -6.033,-2.019 l -14.788,12.188 -1.464,1.188 c 0.253,0.227 0.505,0.478 0.757,0.73 0.229,0.229 0.48,0.454 0.708,0.707 1.487,1.49 2.875,3.104 4.138,4.821 z"
         id="path1071" />
      <path
         inkscape:connector-curvature="0"
         style="fill:#0e5cab"
         d="m 102.326,535.824 c 2.764,-11.146 9.02,-19.505 18.757,-25.075 9.607,-5.494 19.817,-6.693 30.631,-3.599 1.668,0.536 3.301,1.121 4.919,1.764 2.362,0.946 4.602,2.12 6.742,3.507 2.155,1.415 4.164,2.991 6.005,4.74 1.897,1.796 3.633,3.749 5.209,5.874 1.028,1.406 1.993,2.896 2.893,4.473 5.837,10.204 7.362,20.875 4.605,32.033 -2.763,11.146 -9.007,19.499 -18.757,25.075 -9.738,5.57 -20.117,6.725 -31.125,3.454 -11.014,-3.282 -19.439,-10.011 -25.273,-20.213 -5.836,-10.202 -7.362,-20.875 -4.606,-32.033"
         id="path1073" />
      <path
         inkscape:connector-curvature="0"
         style="fill:none;stroke:#043689;stroke-width:2.19939995;stroke-linecap:round;stroke-linejoin:round;stroke-miterlimit:10"
         d="m 121.083,510.749 c 9.607,-5.494 19.816,-6.693 30.63,-3.599 1.667,0.536 3.301,1.121 4.919,1.764 2.362,0.946 4.602,2.12 6.743,3.507 2.155,1.415 4.164,2.991 6.004,4.74 1.897,1.796 3.633,3.749 5.209,5.874 1.028,1.406 1.992,2.896 2.894,4.473 5.836,10.204 7.362,20.875 4.605,32.033 -2.764,11.146 -9.008,19.499 -18.757,25.075 -9.737,5.57 -20.118,6.725 -31.125,3.452 -11.015,-3.28 -19.439,-10.009 -25.275,-20.211 -5.835,-10.202 -7.362,-20.875 -4.605,-32.033 2.764,-11.146 9.02,-19.505 18.758,-25.075 z"
         id="path1075" />
      <path
         inkscape:connector-curvature="0"
         style="fill:#282525"
         d="m 157.587,554.055 c -1.55,1.501 -3.182,2.897 -4.911,4.166 -2.409,1.781 -5.031,3.498 -7.875,5.14 0.211,-0.188 -0.454,0.167 -1.998,1.04 -0.497,0.279 -1.053,0.562 -1.661,0.872 -1.204,0.585 -2.628,1.215 -4.275,1.886 -0.151,0.067 -0.308,0.12 -0.458,0.186 -2.725,1.087 -5.511,1.925 -8.358,2.508 -1.272,0.279 -2.578,0.5 -3.895,0.683 2.545,-0.004 5.055,-0.216 7.517,-0.654 0.95,-0.165 1.886,-0.354 2.798,-0.587 1.28,-0.328 2.527,-0.714 3.746,-1.172 0.193,-0.074 0.386,-0.147 0.577,-0.221 1.887,-0.726 3.404,-1.419 4.546,-2.09 1.25,-0.729 2.118,-1.223 2.607,-1.5 0.479,-0.271 1.215,-0.665 2.22,-1.188 1.004,-0.522 2.399,-1.493 4.184,-2.908 1.758,-1.359 3.388,-2.902 4.896,-4.619 0.308,-0.345 0.599,-0.695 0.902,-1.051 1.256,-1.519 2.409,-3.138 3.453,-4.844 0.022,-0.043 0.045,-0.084 0.066,-0.108 -0.021,0.024 -0.032,0.047 -0.052,0.071 -0.82,0.991 -1.659,1.947 -2.532,2.861 -0.492,0.516 -0.993,1.036 -1.497,1.529"
         id="path1077" />
      <path
         inkscape:connector-curvature="0"
         style="fill:#d8272a"
         d="m 158.148,554.544 c -0.302,0.355 -0.594,0.706 -0.903,1.051 -1.507,1.717 -3.137,3.26 -4.896,4.619 -1.784,1.415 -3.179,2.386 -4.183,2.908 -1.005,0.523 -1.741,0.917 -2.22,1.188 -0.488,0.277 -1.357,0.771 -2.607,1.5 -1.142,0.671 -2.659,1.364 -4.546,2.09 -0.191,0.073 -0.385,0.146 -0.578,0.221 -1.217,0.458 -2.466,0.844 -3.745,1.172 -0.912,0.232 -1.848,0.422 -2.797,0.587 -2.462,0.438 -4.972,0.65 -7.517,0.654 -0.757,0.092 -1.529,0.18 -2.3,0.249 -0.225,0.017 -0.451,0.031 -0.677,0.049 -1.774,0.103 -3.547,0.139 -5.329,0.125 1.923,0.387 3.833,0.646 5.735,0.791 1.044,0.079 2.079,0.124 3.109,0.139 2.169,0.016 4.305,-0.129 6.399,-0.431 0.456,-0.063 0.905,-0.141 1.354,-0.218 0.476,-0.092 0.943,-0.178 1.42,-0.268 0.494,-0.102 0.975,-0.226 1.456,-0.349 1.255,-0.313 2.478,-0.699 3.667,-1.142 2.163,-0.799 3.871,-1.567 5.125,-2.312 0.027,-0.015 0.063,-0.035 0.09,-0.047 0.997,-0.579 1.738,-1.006 2.243,-1.293 0.093,-0.063 0.192,-0.116 0.272,-0.159 0.479,-0.271 1.217,-0.664 2.22,-1.188 1.004,-0.521 2.398,-1.494 4.183,-2.911 1.759,-1.358 3.389,-2.901 4.897,-4.618 0.102,-0.128 0.22,-0.251 0.336,-0.375 0.432,-0.497 0.847,-1.005 1.256,-1.521 0.248,-0.326 0.486,-0.646 0.734,-0.974 0.792,-1.079 1.54,-2.194 2.228,-3.353 1.481,-2.479 2.733,-5.115 3.748,-7.938 -0.899,1.509 -1.85,2.986 -2.853,4.432 -0.579,0.816 -1.185,1.604 -1.804,2.369 -0.021,0.024 -0.044,0.065 -0.067,0.108 -1.04,1.707 -2.195,3.326 -3.45,4.845"
         id="path1079" />
      <path
         inkscape:connector-curvature="0"
         style="fill:#ffffff"
         d="m 114.901,540.232 c 2.632,0.062 4.861,1.164 6.689,3.333 1.815,2.178 2.681,4.771 2.616,7.786 -0.054,3.007 -1.05,5.556 -2.985,7.629 -1.91,2.09 -4.199,3.098 -6.851,3.032 -2.632,-0.063 -4.86,-1.164 -6.689,-3.334 -1.814,-2.177 -2.672,-4.758 -2.6,-7.762 0.052,-3.007 1.049,-5.558 2.97,-7.653 1.909,-2.089 4.199,-3.096 6.85,-3.031"
         id="path1081" />
      <path
         inkscape:connector-curvature="0"
         style="fill:#ffffff"
         d="m 127.652,540.098 c -0.861,-2.722 -0.447,-5.348 1.252,-7.891 1.676,-2.525 4.153,-4.227 7.398,-5.115 3.251,-0.881 6.336,-0.664 9.249,0.663 2.899,1.303 4.779,3.316 5.64,6.039 0.86,2.724 0.453,5.361 -1.239,7.914 -1.7,2.54 -4.177,4.243 -7.436,5.109 -3.239,0.87 -6.312,0.648 -9.225,-0.679 -2.899,-1.302 -4.778,-3.315 -5.639,-6.04"
         id="path1083" />
      <path
         inkscape:connector-curvature="0"
         style="fill:#282525"
         d="m 112.391,545.56 c 0.05,-1.756 0.652,-3.083 1.809,-3.996 1.155,-0.915 2.534,-1.162 4.121,-0.726 1.594,0.452 2.925,1.447 4.006,2.999 1.076,1.539 1.602,3.187 1.561,4.936 -0.05,1.756 -0.653,3.081 -1.808,3.994 -1.148,0.911 -2.517,1.154 -4.103,0.716 -1.587,-0.438 -2.917,-1.436 -4.006,-2.999 -1.087,-1.532 -1.622,-3.175 -1.58,-4.924"
         id="path1085" />
      <path
         inkscape:connector-curvature="0"
         style="fill:#282525"
         d="m 144.957,526.589 c -1.706,-0.751 -3.37,-0.783 -5.008,-0.097 -1.64,0.684 -2.792,1.882 -3.43,3.593 -0.631,1.723 -0.566,3.441 0.19,5.181 0.751,1.725 1.969,2.975 3.663,3.733 1.704,0.752 3.367,0.782 5.007,0.098 1.628,-0.679 2.77,-1.87 3.408,-3.58 0.637,-1.713 0.571,-3.432 -0.192,-5.181 -0.737,-1.732 -1.946,-2.991 -3.638,-3.747"
         id="path1087" />
      <path
         inkscape:connector-curvature="0"
         style="fill:#db5284"
         d="m 119.429,553.857 c 0.725,-3.027 2.4,-5.301 5.026,-6.802 2.625,-1.502 5.448,-1.802 8.447,-0.903 2.99,0.935 5.285,2.787 6.875,5.568 1.604,2.806 2.038,5.723 1.329,8.775 -0.736,3.033 -2.426,5.312 -5.062,6.823 -2.637,1.507 -5.448,1.799 -8.41,0.881 -3.001,-0.928 -5.298,-2.783 -6.901,-5.586 -1.605,-2.804 -2.04,-5.722 -1.304,-8.756"
         id="path1089" />
      <path
         inkscape:connector-curvature="0"
         style="fill:#0e5cab"
         d="m 166.653,626.127 h -0.403 c -0.607,0 -1.212,0 -1.792,0.026 -1.539,0.024 -3.079,0.124 -4.619,0.25 -1.691,0.151 -3.332,0.38 -4.971,0.682 -1.413,0.353 -2.776,0.834 -4.088,1.413 -0.708,0.354 -1.312,0.756 -1.816,1.213 -0.783,0.681 -1.313,1.439 -1.566,2.271 -0.176,0.732 -0.278,1.16 -0.278,1.236 -0.025,0.077 -0.025,0.152 -0.05,0.228 -0.025,0.277 -0.025,0.555 0,0.858 0.025,0.53 0.076,1.083 0.176,1.666 0.43,2.598 1.666,5.829 3.685,9.717 2.398,4.667 4.997,9.285 7.748,13.854 0.075,0.125 0.15,0.277 0.227,0.404 -3.432,1.993 -6.006,3.684 -7.748,5.072 -4.719,3.708 -7.925,7.696 -9.665,11.91 -1.894,4.62 -1.943,8.431 -0.152,11.482 0.279,0.481 0.63,0.961 1.01,1.415 0.025,0.024 0.05,0.049 0.075,0.076 3.256,3.686 9.415,3.052 18.525,-1.893 8.201,-4.467 14.46,-11.509 18.776,-21.073 0.126,-0.354 0.277,-0.707 0.429,-1.033 -1.666,-3.258 -4.266,-6.538 -7.798,-9.819 -1.59,-2.118 -3.28,-4.692 -5.072,-7.723 -1.49,-2.548 -2.979,-5.172 -4.468,-7.874 -0.025,-0.051 -0.05,-0.15 -0.101,-0.274 l -0.025,-0.029 c -0.024,-0.075 -0.075,-0.15 -0.101,-0.25 -0.025,-0.025 -0.025,-0.052 -0.05,-0.076 -0.329,-0.731 -0.858,-2.045 -1.641,-3.937 0.783,1.892 1.312,3.205 1.641,3.937 0.025,0.024 0.025,0.051 0.05,0.076 0.026,0.1 0.077,0.175 0.101,0.25 l 0.025,0.029 c 2.247,-0.029 3.559,-0.052 3.937,-0.029 0.43,0.029 0.883,0.029 1.339,0.052 4.416,0.201 8.782,0.683 13.072,1.466 2.17,0.377 4.315,0.855 6.461,1.386 l 0.327,-14.308 c -2.295,-0.53 -4.542,-0.987 -6.788,-1.362 -4.973,-0.835 -9.769,-1.263 -14.412,-1.289"
         id="path1091" />
      <path
         inkscape:connector-curvature="0"
         style="fill:#0e5cab"
         d="m 147.246,635.97 c -0.101,-0.583 -0.151,-1.136 -0.176,-1.666 -0.026,-0.304 -0.026,-0.581 0,-0.858 0.025,-0.075 0.025,-0.15 0.05,-0.228 0,-0.076 0.102,-0.504 0.278,-1.236 -4.618,0.076 -7.848,3.685 -9.69,10.877 0.228,0.429 0.48,0.858 0.731,1.287 2.8,5.072 5.477,9.715 8,13.906 -0.808,0.504 -1.59,1.01 -2.322,1.488 -7.874,5.175 -12.82,10.221 -14.815,15.143 -2.145,5.274 -1.868,9.488 0.834,12.645 2.245,2.622 5.98,2.977 11.205,1.082 -1.791,-3.052 -1.741,-6.862 0.152,-11.482 1.74,-4.214 4.946,-8.202 9.665,-11.91 1.742,-1.389 4.316,-3.079 7.748,-5.072 -0.077,-0.127 -0.151,-0.279 -0.227,-0.404 -2.751,-4.568 -5.35,-9.187 -7.748,-13.854 -2.02,-3.889 -3.256,-7.121 -3.685,-9.718"
         id="path1093" />
      <path
         inkscape:connector-curvature="0"
         style="fill:none;stroke:#043689;stroke-width:2.27150011;stroke-linecap:round;stroke-linejoin:round;stroke-miterlimit:10"
         d="m 187.852,628.777 c -2.296,-0.53 -4.542,-0.987 -6.788,-1.362 -4.971,-0.834 -9.768,-1.262 -14.411,-1.288 h -0.403 c -0.607,0 -1.212,0 -1.792,0.026 -1.539,0.024 -3.079,0.124 -4.618,0.25 -1.691,0.151 -3.332,0.38 -4.972,0.682 -1.412,0.353 -2.775,0.834 -4.088,1.413 -0.707,0.354 -1.312,0.756 -1.816,1.213 -0.783,0.681 -1.313,1.439 -1.566,2.271 m -0.001,-10e-4 c -0.177,0.732 -0.277,1.16 -0.277,1.236 -0.025,0.077 -0.025,0.152 -0.05,0.228 -0.025,0.277 -0.025,0.555 0,0.858 0.025,0.53 0.075,1.083 0.176,1.666 0.43,2.598 1.667,5.829 3.686,9.717 2.398,4.667 4.997,9.285 7.749,13.854 0.075,0.125 0.15,0.277 0.226,0.404 -3.432,1.993 -6.006,3.684 -7.748,5.072 -4.718,3.708 -7.924,7.696 -9.665,11.91 -1.893,4.62 -1.942,8.431 -0.152,11.482 m 6.055,-56.427 c -4.618,0.076 -7.847,3.685 -9.69,10.877 0.228,0.429 0.48,0.858 0.732,1.287 2.8,5.072 5.476,9.715 8,13.906 -0.807,0.504 -1.591,1.01 -2.322,1.488 -7.875,5.175 -12.82,10.221 -14.814,15.145 -2.145,5.272 -1.868,9.486 0.833,12.643 2.246,2.622 5.981,2.977 11.205,1.082 m 19.557,-52.49 c 0.783,1.892 1.312,3.205 1.641,3.937 0.025,0.024 0.025,0.051 0.05,0.076 0.026,0.1 0.076,0.175 0.101,0.25 l 0.025,0.029 m 0.001,0 c 2.246,-0.029 3.559,-0.052 3.937,-0.029 0.431,0.029 0.884,0.029 1.339,0.052 4.416,0.201 8.783,0.683 13.072,1.466 2.17,0.377 4.315,0.855 6.461,1.386 m -46.185,45.323 c 0.278,0.481 0.63,0.961 1.01,1.415 0.025,0.024 0.049,0.049 0.075,0.076 3.256,3.686 9.414,3.052 18.525,-1.893 8.2,-4.467 14.46,-11.509 18.775,-21.073 0.126,-0.354 0.278,-0.707 0.429,-1.033 -1.666,-3.258 -4.266,-6.538 -7.798,-9.819 -1.59,-2.118 -3.281,-4.692 -5.072,-7.723 -1.491,-2.548 -2.979,-5.172 -4.467,-7.874 -0.026,-0.051 -0.051,-0.15 -0.102,-0.274"
         id="path1095" />
      <path
         inkscape:connector-curvature="0"
         style="fill:#0e5cab"
         d="m 161.025,614.593 c -0.025,0.076 -0.05,0.176 -0.075,0.253 0.026,-0.077 0.05,-0.177 0.075,-0.253 0.025,-0.075 0.05,-0.177 0.076,-0.253 0.151,-0.581 0.303,-1.187 0.429,-1.766 0.025,-0.177 0.075,-0.328 0.125,-0.479 -5.374,2.979 -10.372,5.374 -15.015,7.215 -1.187,0.481 -2.348,0.911 -3.483,1.313 -1.009,0.353 -1.994,0.683 -2.979,1.009 -0.176,0.078 -0.378,0.178 -0.555,0.279 -0.479,0.253 -0.908,0.53 -1.312,0.808 -2.095,1.413 -3.281,3.205 -3.609,5.4 -0.126,1.387 -0.201,2.751 -0.278,4.139 l 0.101,5.552 c 0.101,1.743 0.252,3.482 0.455,5.224 0.479,1.845 2.069,3.105 4.769,3.735 0.53,0.126 1.11,0.229 1.742,0.306 1.489,0.2 3.205,0.251 5.173,0.148 0.378,-0.075 0.707,-0.177 1.034,-0.277 0.227,-0.102 0.455,-0.201 0.656,-0.304 1.691,-0.831 2.726,-2.32 3.154,-4.516 0.051,-0.428 0.102,-0.909 0.126,-1.439 0.076,-1.94 -0.328,-3.456 -1.261,-4.518 -0.405,-0.478 -0.884,-0.856 -1.44,-1.134 -0.176,-0.102 -0.353,-0.178 -0.528,-0.253 -0.228,-0.077 -0.456,-0.153 -0.708,-0.229 -0.479,-0.126 -1.161,-0.227 -2.068,-0.277 0.024,0.151 0.024,0.304 0.024,0.455 v 0.506 c -0.075,1.588 -0.429,3.103 -1.085,4.566 0.076,0.151 0.176,0.326 0.303,0.555 0.555,0.632 1.336,0.934 2.347,0.909 -1.01,0.024 -1.792,-0.277 -2.347,-0.909 -0.126,-0.229 -0.227,-0.403 -0.303,-0.555 -0.05,0.075 -0.101,0.176 -0.126,0.251 -0.455,0.96 -1.035,1.894 -1.766,2.828 0.731,-0.935 1.312,-1.868 1.766,-2.828 0.026,-0.075 0.077,-0.176 0.126,-0.251 0.656,-1.464 1.01,-2.979 1.085,-4.566 v -0.506 c 0,-0.151 0,-0.304 -0.024,-0.455 -0.027,-0.201 -0.05,-0.403 -0.077,-0.605 -0.126,-0.858 -0.404,-1.717 -0.808,-2.548 -0.277,-0.682 -0.606,-1.389 -0.985,-2.121 0.379,0.732 0.708,1.439 0.985,2.121 0.428,-0.127 0.857,-0.279 1.287,-0.404 0.354,-0.1 0.708,-0.202 1.06,-0.328 0.532,-0.178 1.086,-0.328 1.641,-0.504 7.093,-2.222 13.3,-4.544 18.625,-6.939 2.702,-1.213 4.518,-3.231 5.451,-6.082 0.126,-0.381 0.253,-0.909 0.38,-1.617 0.53,-2.244 1.008,-4.542 1.438,-6.889 1.059,-5.88 1.766,-12.039 2.145,-18.474 L 165.01,587.16 c -0.278,6.787 -1.136,13.855 -2.574,21.199 -0.228,1.185 -0.48,2.397 -0.757,3.582 -0.026,0.051 -0.026,0.103 -0.026,0.153 -0.05,0.15 -0.1,0.302 -0.125,0.479 -0.125,0.579 -0.278,1.185 -0.429,1.766 -0.023,0.077 -0.048,0.179 -0.074,0.254"
         id="path1097" />
      <path
         inkscape:connector-curvature="0"
         style="fill:none;stroke:#043689;stroke-width:2.27150011;stroke-linecap:round;stroke-linejoin:round;stroke-miterlimit:10"
         d="m 147.221,641.269 c -1.01,0.024 -1.792,-0.277 -2.347,-0.909 -0.125,-0.229 -0.226,-0.403 -0.302,-0.555 m 17.083,-27.709 c 0,-0.051 0,-0.103 0.026,-0.153 0.278,-1.185 0.531,-2.397 0.758,-3.582 1.439,-7.344 2.296,-14.412 2.575,-21.199 m -19.383,47.115 c 0.908,0.051 1.589,0.151 2.068,0.277 0.253,0.075 0.48,0.151 0.708,0.229 0.176,0.075 0.354,0.151 0.529,0.253 0.556,0.277 1.035,0.656 1.44,1.134 0.933,1.062 1.337,2.574 1.261,4.518 -0.026,0.53 -0.076,1.012 -0.127,1.439 -0.429,2.195 -1.464,3.685 -3.155,4.516 -0.2,0.103 -0.429,0.202 -0.656,0.304 -0.328,0.101 -0.656,0.202 -1.035,0.277 -1.968,0.103 -3.684,0.052 -5.172,-0.148 -0.632,-0.077 -1.212,-0.18 -1.742,-0.306 -2.7,-0.63 -4.29,-1.891 -4.769,-3.735 -0.204,-1.741 -0.354,-3.48 -0.456,-5.224 l -0.101,-5.552 c 0.076,-1.388 0.152,-2.752 0.277,-4.139 0.328,-2.195 1.514,-3.987 3.609,-5.4 0.403,-0.277 0.833,-0.555 1.312,-0.808 0.177,-0.102 0.378,-0.201 0.555,-0.279 0.985,-0.326 1.97,-0.656 2.978,-1.009 1.136,-0.402 2.297,-0.832 3.483,-1.313 4.644,-1.841 9.641,-4.236 15.014,-7.215 m 15.121,-22.209 c -0.379,6.435 -1.085,12.594 -2.145,18.474 -0.43,2.347 -0.909,4.645 -1.438,6.889 -0.127,0.708 -0.253,1.236 -0.379,1.617 -0.934,2.851 -2.75,4.869 -5.451,6.082 -5.325,2.396 -11.533,4.718 -18.625,6.939 -0.555,0.176 -1.111,0.326 -1.641,0.504 -0.353,0.126 -0.706,0.229 -1.061,0.328 -0.428,0.125 -0.858,0.277 -1.286,0.404 m -0.984,-2.121 c 0.378,0.732 0.708,1.439 0.985,2.121 m 0.883,3.153 c -0.026,-0.201 -0.051,-0.403 -0.076,-0.605 -0.127,-0.858 -0.404,-1.717 -0.808,-2.548 m -2.068,11.76 c 0.731,-0.935 1.312,-1.868 1.767,-2.828 0.025,-0.075 0.076,-0.176 0.126,-0.251 m 0,0 c 0.656,-1.464 1.009,-2.979 1.085,-4.566 v -0.506 c 0,-0.151 0,-0.304 -0.026,-0.455 m 15.319,-19.432 c 0.025,-0.077 0.05,-0.177 0.075,-0.253 0.026,-0.075 0.051,-0.177 0.077,-0.253 0.151,-0.581 0.303,-1.187 0.428,-1.766 0.026,-0.177 0.077,-0.328 0.125,-0.479"
         id="path1099" />
      <path
         inkscape:connector-curvature="0"
         style="fill:#0e5cab"
         d="m 159.99,588.146 c 2.272,-0.936 5.2,-2.675 8.783,-5.25 3.583,-2.574 6.637,-5.779 9.161,-9.59 -1.564,-0.63 -2.422,-0.959 -2.548,-1.01 -1.768,-0.681 -3.558,-1.286 -5.376,-1.816 l -14.788,12.19 c 1.715,1.689 3.304,3.507 4.768,5.476"
         id="path1101" />
    </g>
  </g>
</svg>
