<?xml version="1.0" encoding="UTF-8" standalone="no"?>
<!-- Created with Inkscape (http://www.inkscape.org/) -->

<svg
   xmlns:dc="http://purl.org/dc/elements/1.1/"
   xmlns:cc="http://creativecommons.org/ns#"
   xmlns:rdf="http://www.w3.org/1999/02/22-rdf-syntax-ns#"
   xmlns:svg="http://www.w3.org/2000/svg"
   xmlns="http://www.w3.org/2000/svg"
   xmlns:sodipodi="http://sodipodi.sourceforge.net/DTD/sodipodi-0.dtd"
   xmlns:inkscape="http://www.inkscape.org/namespaces/inkscape"
   width="182.15454"
   height="197.70737"
   id="svg5696"
   version="1.1"
   inkscape:version="0.48.4 r9939"
   sodipodi:docname="grover11.svg">
  <defs
     id="defs5698">
    <clipPath
       id="SVGID_2_">
      <rect
         height="88.862999"
         width="111.498"
         y="518.96198"
         x="382.04999"
         id="use1087" />
    </clipPath>
    <clipPath
       id="SVGID_4_">
      <rect
         height="41.314999"
         width="49.584999"
         y="525.19397"
         x="389.84698"
         id="use1111" />
    </clipPath>
  </defs>
  <sodipodi:namedview
     id="base"
     pagecolor="#ffffff"
     bordercolor="#666666"
     borderopacity="1.0"
     inkscape:pageopacity="0.0"
     inkscape:pageshadow="2"
     inkscape:zoom="0.77472527"
     inkscape:cx="-70.950011"
     inkscape:cy="202.18836"
     inkscape:current-layer="layer1"
     inkscape:document-units="px"
     showgrid="false"
     inkscape:window-width="763"
     inkscape:window-height="591"
     inkscape:window-x="592"
     inkscape:window-y="97"
     inkscape:window-maximized="0"
     fit-margin-top="0"
     fit-margin-left="0"
     fit-margin-right="0"
     fit-margin-bottom="0" />
  <metadata
     id="metadata5701">
    <rdf:RDF>
      <cc:Work
         rdf:about="">
        <dc:format>image/svg+xml</dc:format>
        <dc:type
           rdf:resource="http://purl.org/dc/dcmitype/StillImage" />
        <dc:title></dc:title>
      </cc:Work>
    </rdf:RDF>
  </metadata>
  <g
     id="layer1"
     inkscape:label="Layer 1"
     inkscape:groupmode="layer"
     transform="translate(-388.89331,-89.587367)">
    <g
       transform="translate(40.124605,-435.67957)"
       id="g811">
      <path
         inkscape:connector-curvature="0"
         style="fill:#0e5cab"
         d="m 460.216,668.797 -11.179,1.843 c -4.103,2.094 -7.628,6.004 -10.519,11.731 -2.341,4.681 -2.479,9.307 -0.386,13.852 0.496,1.072 1.128,2.118 1.871,3.194 -0.743,-1.076 -1.375,-2.122 -1.871,-3.194 -7.131,0.467 -12.227,2.807 -15.282,7.048 -2.231,3.387 0.33,6.223 7.655,8.508 7.324,2.287 15.172,1.902 23.517,-1.128 4.458,-1.459 5.368,-3.854 2.753,-7.215 -4.323,-5.423 -7.352,-10.243 -9.142,-14.483 -1.79,-4.242 2.423,-10.96 12.583,-20.156"
         id="path813" />
      <path
         inkscape:connector-curvature="0"
         style="fill:none;stroke:#043889;stroke-width:2.20300007;stroke-linecap:round;stroke-linejoin:round;stroke-miterlimit:10"
         d="m 438.133,696.223 c -2.093,-4.545 -1.955,-9.171 0.386,-13.852 2.891,-5.728 6.416,-9.638 10.519,-11.731 l 11.18,-1.843 c -10.161,9.196 -14.374,15.914 -12.584,20.155 1.79,4.24 4.818,9.061 9.142,14.483 2.616,3.36 1.707,5.756 -2.753,7.215 -8.344,3.03 -16.19,3.415 -23.516,1.128 -7.324,-2.285 -9.886,-5.121 -7.655,-8.508 3.054,-4.241 8.149,-6.581 15.281,-7.047 z m 1.872,3.194 c -0.743,-1.076 -1.377,-2.122 -1.872,-3.194"
         id="path815" />
      <path
         inkscape:connector-curvature="0"
         style="fill:#0e5cab"
         d="m 427.798,611.987 c 0.604,2.06 0.967,3.342 1.117,3.857 1.13,5.263 1.499,10.182 1.142,14.734 -1.179,14.655 -9.892,24.258 -26.169,28.802 -0.064,0.013 -0.099,0.033 -0.164,0.043 0.125,4.952 -1.079,7.482 -3.615,7.587 -0.86,0.032 -1.795,-0.204 -2.769,-0.736 -0.723,-0.397 -1.198,-0.742 -1.444,-1.025 0.144,0.232 0.128,0.675 -0.014,1.368 -0.166,0.852 -0.481,1.653 -0.915,2.381 -1.256,1.981 -2.835,2.281 -4.734,0.871 -2.733,-2.029 -3.588,-4.457 -2.553,-7.257 0.733,-2.096 1.889,-3.582 3.452,-4.45 -0.385,-0.2 -1.139,-0.143 -2.225,0.145 -1.709,0.438 -2.739,0.663 -3.046,0.706 -2.592,0.399 -4.146,-0.875 -4.623,-3.85 -0.354,-2.155 1.528,-3.278 5.619,-3.378 1.622,-0.039 3.218,0.113 4.772,0.465 1.601,0.351 2.726,0.819 3.378,1.374 -0.163,-1.462 -0.25,-2.682 -0.257,-3.66 0.041,-1.902 0.876,-2.903 2.474,-2.984 2.392,-0.104 3.699,0.658 3.966,2.287 0.047,0.347 0.073,1.083 0.05,2.165 0.006,0.084 -0.003,0.149 0,0.232 0.134,0.873 0.359,1.312 0.653,1.364 0.251,0.021 0.64,-0.045 1.165,-0.163 13.802,-3.494 20.822,-11.978 21.062,-25.448 0.05,-3.584 -0.772,-9.008 -2.494,-16.307 l 0.033,0.324 c -0.033,-0.096 -0.051,-0.199 -0.1,-0.313 -0.254,-1.029 -0.535,-2.103 -0.859,-3.205 0.044,-0.433 0.065,-0.819 0.096,-1.156 0.42,-0.518 0.823,-0.909 1.213,-1.205 2.092,-1.594 3.812,-0.394 5.165,3.607 -0.015,0.094 0.188,1.039 0.624,2.825"
         id="path817" />
      <path
         inkscape:connector-curvature="0"
         style="fill:#023989"
         d="m 428.915,615.845 c -0.15,-0.516 -0.513,-1.798 -1.117,-3.857 0.947,-0.088 1.528,-0.15 1.727,-0.216 l 0.492,1.26 0.578,2.479 c 1.194,5.484 1.585,10.594 1.18,15.378 -1.148,15.126 -9.918,25.141 -26.309,30.044 -0.018,0.009 -0.018,0.009 -0.034,0.019 -0.086,5.346 -1.762,7.957 -5.004,7.888 -0.956,0.035 -2.002,-0.191 -3.124,-0.69 -0.196,0.724 -0.511,1.408 -0.915,2.03 -1.814,2.932 -4.135,3.309 -6.928,1.144 -3.612,-2.677 -4.739,-5.89 -3.381,-9.64 0.103,-0.293 0.22,-0.568 0.354,-0.852 -0.03,-0.011 -0.046,0 -0.065,0.01 -1.896,0.292 -3.384,-0.071 -4.495,-1.097 -1.19,-0.92 -1.95,-2.422 -2.29,-4.555 -0.808,-3.352 1.513,-5.115 6.939,-5.254 1.766,-0.037 3.471,0.135 5.163,0.514 0.506,0.127 0.964,0.251 1.405,0.386 -0.021,-0.422 -0.03,-0.82 -0.024,-1.199 l 0.004,-0.03 c 0.049,-2.894 1.33,-4.369 3.797,-4.433 1.567,-0.09 2.786,0.145 3.691,0.722 1.267,0.699 2.033,1.82 2.296,3.366 l -0.004,0.03 c 0.047,0.579 0.063,1.03 0.049,1.356 12.731,-3.762 19.243,-11.559 19.524,-23.379 0.033,-3.344 -0.729,-8.747 -2.296,-16.26 l 1.428,0.112 c 0.049,0.114 0.066,0.218 0.1,0.313 l -0.033,-0.326 c 1.721,7.301 2.544,12.725 2.494,16.309 -0.239,13.471 -7.26,21.954 -21.062,25.448 -0.524,0.118 -0.913,0.184 -1.165,0.163 -0.294,-0.053 -0.52,-0.491 -0.653,-1.364 -0.003,-0.083 0.005,-0.148 0,-0.232 0.023,-1.082 -0.002,-1.818 -0.05,-2.165 -0.267,-1.629 -1.574,-2.392 -3.966,-2.287 -1.597,0.081 -2.434,1.082 -2.474,2.984 0.008,0.979 0.094,2.198 0.257,3.66 -0.652,-0.555 -1.777,-1.023 -3.378,-1.374 -1.555,-0.352 -3.15,-0.504 -4.772,-0.465 -4.091,0.1 -5.974,1.223 -5.619,3.378 0.478,2.973 2.031,4.249 4.623,3.85 0.307,-0.043 1.337,-0.268 3.047,-0.706 1.085,-0.287 1.839,-0.345 2.224,-0.145 -1.563,0.868 -2.719,2.354 -3.452,4.45 -1.035,2.8 -0.18,5.228 2.553,7.257 1.899,1.41 3.479,1.11 4.734,-0.871 0.434,-0.728 0.75,-1.529 0.916,-2.381 0.142,-0.693 0.157,-1.136 0.014,-1.368 0.247,0.283 0.721,0.628 1.445,1.025 0.972,0.532 1.907,0.769 2.768,0.736 2.536,-0.104 3.74,-2.635 3.615,-7.587 0.065,-0.01 0.1,-0.03 0.164,-0.043 16.278,-4.544 24.991,-14.146 26.169,-28.802 0.359,-4.552 -0.01,-9.471 -1.14,-14.733"
         id="path819" />
      <path
         inkscape:connector-curvature="0"
         style="fill:#00499d"
         d="m 421.418,634.239 c 1.268,-9.72 -0.991,-18.449 -6.773,-26.187 l 15.226,-12.337 c 8.676,4.71 16.55,11.207 23.6,19.442 16.163,17.264 20.872,32.71 14.154,46.284 -4.765,10.08 -13.163,14.211 -25.225,12.365 -8.453,-1.571 -14.317,-6.086 -17.539,-13.576 -3.085,-6.963 -4.241,-15.61 -3.443,-25.991"
         id="path821" />
      <path
         inkscape:connector-curvature="0"
         style="fill:none;stroke:#043889;stroke-width:2.20300007;stroke-linecap:round;stroke-linejoin:round;stroke-miterlimit:10"
         d="m 421.418,634.239 c -0.798,10.381 0.358,19.027 3.443,25.992 3.222,7.49 9.086,12.005 17.539,13.576 12.062,1.846 20.46,-2.285 25.225,-12.365 6.718,-13.574 2.009,-29.021 -14.154,-46.284 -7.05,-8.235 -14.924,-14.732 -23.6,-19.442 l -15.226,12.337 c 5.782,7.737 8.041,16.467 6.773,26.186 z"
         id="path823" />
      <path
         inkscape:connector-curvature="0"
         style="fill:#0e5cab"
         d="m 435.6,667.392 c -1.624,-0.577 -2.919,-1.185 -3.882,-1.816 -4.655,2.396 -9.609,6.332 -14.815,11.812 -2.01,2.616 -2.918,5.231 -2.781,7.848 0.689,5.727 2.286,10.987 4.736,15.805 0.358,0.771 0.772,1.515 1.212,2.257 -0.44,-0.742 -0.854,-1.486 -1.212,-2.257 -6.938,-1.541 -13.023,-0.744 -18.284,2.369 -4.818,4.157 -5.81,8.426 -3.001,12.858 3.552,2.422 10.685,3.25 21.34,2.506 10.658,-0.772 17.101,-2.479 19.303,-5.121 -0.138,-2.341 -0.881,-4.545 -2.231,-6.61 -0.99,-1.623 -2.394,-4.019 -4.24,-7.187 -1.844,-3.192 -3.496,-6.689 -4.929,-10.519 -1.459,-3.826 -0.963,-7.215 1.487,-10.104 2.423,-2.92 5.039,-5.426 7.819,-7.546 1.626,-1.239 2.892,-2.23 3.856,-2.946 -2.506,-0.742 -3.964,-1.213 -4.378,-1.349"
         id="path825" />
      <path
         inkscape:connector-curvature="0"
         style="fill:none;stroke:#043889;stroke-width:2.20300007;stroke-linecap:round;stroke-linejoin:round;stroke-miterlimit:10"
         d="m 418.857,701.04 c -2.45,-4.817 -4.047,-10.078 -4.736,-15.805 -0.137,-2.616 0.771,-5.231 2.781,-7.848 5.205,-5.48 10.16,-9.417 14.814,-11.812 0.964,0.632 2.259,1.239 3.882,1.816 0.415,0.139 1.873,0.607 4.38,1.35 -0.964,0.716 -2.23,1.707 -3.855,2.946 -2.78,2.12 -5.396,4.626 -7.82,7.546 -2.451,2.889 -2.946,6.277 -1.486,10.104 1.431,3.829 3.083,7.326 4.928,10.519 1.846,3.168 3.25,5.563 4.24,7.187 1.35,2.065 2.093,4.27 2.23,6.61 -2.201,2.642 -8.646,4.349 -19.302,5.121 -10.656,0.744 -17.788,-0.082 -21.339,-2.506 -2.809,-4.433 -1.818,-8.701 3,-12.858 5.26,-3.114 11.345,-3.911 18.283,-2.37 z m 1.212,2.257 c -0.44,-0.742 -0.853,-1.486 -1.211,-2.257"
         id="path827" />
      <path
         inkscape:connector-curvature="0"
         style="fill:#023989"
         d="m 376.476,544.591 c 2.865,-4.728 6.481,-8.688 10.794,-11.863 l 0.027,-0.007 c 4.518,-3.273 9.48,-5.488 14.949,-6.628 5.469,-1.142 10.903,-1.093 16.353,0.104 5.25,1.185 10.146,3.366 14.689,6.551 4.506,3.136 8.277,7.072 11.369,11.796 3.197,4.813 5.398,10.119 6.606,15.911 1.201,5.764 1.302,11.505 0.301,17.224 -0.958,5.511 -2.844,10.626 -5.708,15.356 l 0.005,0.026 c -2.897,4.707 -6.52,8.641 -10.858,11.82 -4.519,3.274 -9.481,5.491 -14.949,6.631 -5.47,1.14 -10.904,1.093 -16.354,-0.106 l -0.026,0.008 c -5.224,-1.188 -10.114,-3.345 -14.625,-6.51 l -0.005,-0.026 c -4.517,-3.19 -8.315,-7.121 -11.397,-11.79 -3.17,-4.822 -5.371,-10.125 -6.578,-15.917 -1.207,-5.792 -1.308,-11.531 -0.328,-17.22 0.946,-5.563 2.859,-10.685 5.735,-15.36 m 12.082,-10.137 c -4.12,3.023 -7.527,6.771 -10.248,11.244 -2.721,4.475 -4.55,9.325 -5.446,14.598 -0.944,5.454 -0.844,10.916 0.307,16.437 1.151,5.523 3.242,10.567 6.281,15.165 2.928,4.475 6.548,8.22 10.83,11.233 4.283,3.014 8.897,5.061 13.882,6.184 5.159,1.148 10.307,1.168 15.452,0.096 5.145,-1.072 9.856,-3.149 14.126,-6.261 4.121,-3.023 7.534,-6.742 10.281,-11.222 2.723,-4.476 4.545,-9.352 5.44,-14.626 0.943,-5.454 0.845,-10.914 -0.301,-16.41 -1.151,-5.523 -3.243,-10.567 -6.286,-15.188 -2.93,-4.479 -6.543,-8.193 -10.825,-11.209 -4.31,-3.008 -8.93,-5.081 -13.916,-6.206 -5.157,-1.146 -10.306,-1.169 -15.449,-0.096 -5.146,1.071 -9.858,3.152 -14.128,6.261"
         id="path829" />
      <path
         inkscape:connector-curvature="0"
         style="fill:#0e5cab"
         d="m 378.31,545.698 c 2.721,-4.474 6.127,-8.221 10.248,-11.244 4.27,-3.109 8.982,-5.19 14.128,-6.261 5.144,-1.073 10.292,-1.051 15.449,0.096 4.986,1.125 9.606,3.198 13.916,6.206 4.282,3.016 7.896,6.729 10.825,11.209 3.043,4.62 5.135,9.664 6.285,15.188 1.146,5.496 1.245,10.956 0.302,16.41 -0.896,5.274 -2.719,10.15 -5.44,14.626 -2.747,4.479 -6.16,8.198 -10.281,11.222 -4.271,3.111 -8.981,5.188 -14.126,6.261 -5.145,1.072 -10.292,1.053 -15.452,-0.096 -4.985,-1.123 -9.6,-3.17 -13.882,-6.184 -4.281,-3.014 -7.901,-6.759 -10.83,-11.233 -3.039,-4.598 -5.13,-9.642 -6.281,-15.165 -1.152,-5.521 -1.251,-10.982 -0.307,-16.437 0.895,-5.273 2.724,-10.123 5.446,-14.598"
         id="path831" />
      <path
         inkscape:connector-curvature="0"
         style="fill:#ffffff"
         d="m 379.584,553.303 c 2.466,-1.387 4.941,-1.649 7.459,-0.767 2.482,0.858 4.257,2.626 5.336,5.24 1.051,2.621 1.09,5.365 0.083,8.218 -0.981,2.847 -2.708,4.948 -5.2,6.339 -2.467,1.387 -4.941,1.649 -7.458,0.769 -2.484,-0.86 -4.258,-2.626 -5.337,-5.24 -1.052,-2.619 -1.09,-5.365 -0.077,-8.191 0.982,-2.847 2.701,-4.976 5.194,-6.368"
         id="path833" />
      <path
         inkscape:connector-curvature="0"
         style="fill:#ffffff"
         d="m 402.944,564.903 c -2.394,-2.312 -3.597,-4.982 -3.616,-8.043 -0.019,-3.058 1.175,-5.558 3.544,-7.541 2.369,-1.984 5.221,-2.858 8.612,-2.639 3.393,0.221 6.273,1.505 8.671,3.841 2.394,2.312 3.598,4.985 3.618,8.046 0.02,3.06 -1.169,5.586 -3.538,7.567 -2.37,1.984 -5.255,2.838 -8.646,2.618 -3.364,-0.226 -6.245,-1.508 -8.645,-3.849"
         id="path835" />
      <path
         inkscape:connector-curvature="0"
         style="fill:#282525"
         d="m 394.082,578.989 c 4.229,-0.253 8.442,-0.742 12.627,-1.46 4.17,-0.731 8.338,-1.732 12.498,-3.015 4.106,-1.258 8.253,-3.297 12.445,-6.133 -0.226,11.662 -4.384,19.701 -12.47,24.103 -2.664,1.458 -5.62,2.428 -8.876,2.901 -0.02,0.006 -0.04,0.008 -0.061,0.012 -3.212,0.688 -6.344,0.808 -9.403,0.378 -9.378,-1.301 -16.527,-7.456 -21.434,-18.447 l 0.659,0.212 c 5.12,1.215 9.785,1.704 14.015,1.449"
         id="path837" />
      <path
         inkscape:connector-curvature="0"
         style="fill:#d82629"
         d="m 373.897,575.585 5.512,1.743 c 4.906,10.991 12.055,17.146 21.433,18.447 3.06,0.43 6.191,0.31 9.403,-0.378 0.021,-0.004 0.041,-0.008 0.061,-0.012 3.256,-0.474 6.211,-1.443 8.875,-2.901 8.087,-4.401 12.245,-12.44 12.471,-24.103 0.064,-0.043 0.129,-0.086 0.192,-0.129 l 4.938,-3.951 c 1.254,17.854 -3.411,29.821 -13.987,35.916 -3.094,1.802 -6.562,2.962 -10.377,3.504 -0.029,0.007 -0.05,0.011 -0.071,0.013 -3.757,0.817 -7.44,0.942 -11.037,0.339 -12.263,-1.998 -21.4,-11.489 -27.413,-28.488"
         id="path839" />
      <path
         inkscape:connector-curvature="0"
         style="fill:#282525"
         d="m 382.621,562.433 c 0.666,-1.591 1.732,-2.637 3.207,-3.16 1.486,-0.528 2.943,-0.373 4.382,0.459 1.442,0.842 2.425,2.114 2.969,3.818 0.544,1.706 0.488,3.342 -0.168,4.932 -0.665,1.591 -1.732,2.637 -3.208,3.162 -1.475,0.524 -2.923,0.367 -4.362,-0.465 -1.439,-0.832 -2.422,-2.102 -2.969,-3.818 -0.555,-1.703 -0.506,-3.339 0.149,-4.928"
         id="path841" />
      <path
         inkscape:connector-curvature="0"
         style="fill:#282525"
         d="m 409.295,557.801 c 0.758,-1.625 1.947,-2.708 3.574,-3.265 1.637,-0.562 3.232,-0.432 4.795,0.388 1.566,0.829 2.62,2.1 3.188,3.82 0.566,1.723 0.474,3.385 -0.272,5.008 -0.758,1.627 -1.948,2.707 -3.575,3.266 -1.627,0.559 -3.21,0.427 -4.774,-0.392 -1.563,-0.819 -2.618,-2.092 -3.187,-3.822 -0.579,-1.719 -0.495,-3.379 0.251,-5.003"
         id="path843" />
      <path
         inkscape:connector-curvature="0"
         style="fill:#db5284"
         d="m 402.113,565.816 c 2.558,1.803 4.178,4.273 4.835,7.426 0.656,3.152 0.165,6.094 -1.459,8.765 -1.625,2.671 -3.951,4.308 -6.921,4.928 -2.968,0.62 -5.729,0.043 -8.287,-1.757 -2.557,-1.801 -4.182,-4.3 -4.839,-7.452 -0.657,-3.152 -0.161,-6.065 1.465,-8.738 1.625,-2.673 3.924,-4.304 6.894,-4.924 2.97,-0.619 5.729,-0.042 8.312,1.752"
         id="path845" />
      <path
         inkscape:connector-curvature="0"
         style="fill:#0e5cab"
         d="m 423.021,605.151 5.616,13.454 c -14.083,20.775 -30.539,26.333 -49.328,16.628 -0.516,-0.265 -1.055,-0.561 -1.593,-0.854 -0.334,-0.186 -0.668,-0.369 -1,-0.553 0.047,-0.127 0.067,-0.255 0.086,-0.386 -0.003,-0.161 0.02,-0.315 0.013,-0.45 -0.136,-0.021 -0.4,0.071 -0.824,0.3 -0.21,0.1 -0.194,-0.004 0.047,-0.314 -0.845,0.616 -1.437,1.03 -1.798,1.213 -1.798,1.028 -3.908,1.185 -6.279,0.502 -3.003,-0.911 -4.953,-1.981 -5.815,-3.256 -0.085,-0.171 -0.205,-0.298 -0.387,-0.377 -2.146,0.387 -4.207,0.765 -6.176,1.101 -1.999,0.33 -3.375,-0.306 -4.134,-1.884 -0.18,-1.912 0.929,-3.525 3.276,-4.864 2.132,-1.216 3.433,-1.895 3.867,-2.013 -1.561,-0.159 -2.878,-0.096 -3.955,0.219 -1.072,0.287 -2.178,0.782 -3.342,1.481 -0.14,-1.086 0.038,-2.067 0.565,-2.971 1.017,-1.73 2.516,-2.988 4.48,-3.83 1.782,-0.736 3.113,-1.252 4.015,-1.511 -1.734,-0.479 -3.448,-0.369 -5.195,0.319 -0.259,0.067 -0.498,0.163 -0.762,0.255 0.913,-1.429 2.258,-2.392 4.003,-2.895 3.316,-0.952 6.475,-0.681 9.471,0.813 0.775,0.383 1.517,0.815 2.248,1.301 l 0.144,-0.031 c 0.017,-0.291 0.03,-0.554 -0.016,-0.801 0,-0.184 -0.03,-0.349 -0.088,-0.516 -0.1,-0.257 -0.223,-0.54 -0.324,-0.795 0.268,0.066 0.504,0.156 0.745,0.22 1.759,0.51 3.24,1.374 4.461,2.65 0.171,0.159 0.311,0.339 0.445,0.547 0.437,0.782 0.811,1.612 1.098,2.452 0.309,0.899 0.531,1.809 0.64,2.729 0.012,0.107 0.135,0.581 0.346,1.382 -0.047,-0.247 -0.027,-0.191 0.065,0.116 -0.035,-0.322 0.004,-0.399 0.117,-0.223 l 0.125,-0.085 c 0.172,-0.214 0.408,0.061 0.712,0.799 -0.11,-0.733 -0.14,-1.085 -0.055,-1.097 1.349,0.817 2.63,1.543 3.894,2.188 16.665,8.323 30.196,1.333 40.592,-20.963"
         id="path847" />
      <path
         inkscape:connector-curvature="0"
         style="fill:#023989"
         d="m 359.884,611.691 c 2.752,-0.163 5.128,0.121 7.107,0.824 2.583,-0.351 4.796,-0.09 6.611,0.772 1.927,0.854 3.456,2.311 4.56,4.365 0.456,0.84 0.868,1.78 1.183,2.812 0.093,0.306 0.356,1.49 0.761,3.57 -0.625,-0.097 -1.021,-0.235 -1.132,-0.412 -0.109,-0.204 -0.214,-0.245 -0.334,-0.184 -0.058,0.017 -0.085,0.197 -0.103,0.489 -0.084,0.012 -0.054,0.363 0.055,1.097 -0.305,-0.738 -0.54,-1.013 -0.712,-0.799 l -0.124,0.085 c -0.114,-0.177 -0.152,-0.1 -0.117,0.223 -0.092,-0.308 -0.112,-0.363 -0.065,-0.116 -0.211,-0.801 -0.333,-1.274 -0.346,-1.382 -0.109,-0.92 -0.331,-1.829 -0.64,-2.729 -0.288,-0.84 -0.661,-1.67 -1.098,-2.452 -0.134,-0.208 -0.274,-0.388 -0.445,-0.547 -1.222,-1.276 -2.703,-2.141 -4.461,-2.65 -0.241,-0.063 -0.477,-0.153 -0.745,-0.22 0.1,0.255 0.224,0.538 0.324,0.795 0.058,0.167 0.088,0.332 0.088,0.516 0.045,0.247 0.033,0.51 0.016,0.801 l -0.144,0.031 c -0.732,-0.485 -1.473,-0.918 -2.249,-1.301 -2.998,-1.494 -6.155,-1.766 -9.471,-0.813 -1.746,0.503 -3.09,1.466 -4.003,2.895 0.264,-0.092 0.502,-0.188 0.762,-0.255 1.747,-0.688 3.461,-0.799 5.195,-0.319 -0.903,0.259 -2.232,0.774 -4.015,1.511 -1.964,0.842 -3.463,2.1 -4.479,3.83 -0.528,0.903 -0.707,1.885 -0.566,2.971 1.164,-0.699 2.27,-1.194 3.342,-1.481 1.076,-0.314 2.394,-0.378 3.955,-0.219 -0.435,0.118 -1.734,0.797 -3.867,2.013 -2.348,1.339 -3.456,2.952 -3.276,4.864 0.759,1.578 2.135,2.214 4.134,1.884 1.969,-0.336 4.03,-0.714 6.175,-1.101 0.183,0.079 0.303,0.206 0.388,0.377 0.862,1.274 2.811,2.345 5.815,3.256 2.372,0.683 4.481,0.526 6.279,-0.502 0.362,-0.183 0.954,-0.597 1.798,-1.213 -0.241,0.311 -0.257,0.414 -0.047,0.314 0.424,-0.229 0.688,-0.32 0.825,-0.3 0.006,0.135 -0.017,0.289 -0.013,0.45 -0.02,0.131 -0.04,0.259 -0.087,0.386 -0.111,0.54 -0.008,0.954 0.302,1.295 0.046,0.061 0.091,0.12 0.17,0.158 -0.904,0.633 -1.876,1.175 -2.97,1.591 -2.093,0.771 -4.4,0.763 -6.929,0.028 -3.248,-0.948 -5.458,-2.139 -6.665,-3.519 -4.86,1.406 -7.976,1.41 -9.319,0.01 0.004,-0.026 0.009,-0.053 -0.019,-0.057 -0.704,-0.665 -1.218,-1.303 -1.589,-1.972 0.004,-0.024 0.008,-0.051 -0.019,-0.056 -0.401,-0.831 -0.5,-1.645 -0.353,-2.42 0.007,-0.051 0.015,-0.102 0.024,-0.154 l 0.326,-1.04 c -0.02,-0.058 -0.04,-0.112 -0.058,-0.167 -0.107,-0.202 -0.193,-0.375 -0.278,-0.549 -0.023,-0.03 -0.023,-0.03 -0.046,-0.059 -1.036,-2.869 -0.546,-5.346 1.501,-7.45 1.542,-4.997 4.582,-7.586 9.088,-7.775"
         id="path849" />
      <path
         inkscape:connector-curvature="0"
         style="fill:none;stroke:#043889;stroke-width:2.10159993;stroke-linecap:round;stroke-linejoin:round;stroke-miterlimit:10"
         d="m 378.536,623.929 c 1.349,0.817 2.63,1.543 3.894,2.188 16.665,8.32 30.195,1.331 40.591,-20.965 l 5.615,13.454 c -14.083,20.775 -30.539,26.333 -49.327,16.628 -0.518,-0.265 -1.055,-0.561 -1.593,-0.854 -0.334,-0.186 -0.668,-0.369 -1,-0.553"
         id="path851" />
      <path
         inkscape:connector-curvature="0"
         style="fill:#0e5cab"
         d="m 422.521,634.32 -0.028,0.058 c 1.267,-9.666 -0.853,-18.368 -6.36,-26.132 l 13.851,-11.207 c 8.316,4.626 15.859,10.905 22.635,18.834 0.027,0.026 0.027,0.026 0.054,0.056 15.725,16.824 20.378,31.831 13.962,45.047 -4.544,9.582 -12.585,13.493 -24.066,11.758 h 0.027 c -8.068,-1.513 -13.63,-5.811 -16.741,-12.942 -3.004,-6.803 -4.106,-15.311 -3.334,-25.472"
         id="path853" />
      <path
         inkscape:connector-curvature="0"
         style="fill:#7c7663"
         d="m 477.51,709.772 h 1.883 l -0.967,3.453 c -0.575,0.208 -1.256,0.208 -2.067,0 l 1.151,-3.453 z"
         id="path855" />
      <path
         inkscape:connector-curvature="0"
         style="fill:none;stroke:#595446;stroke-width:1.43840003;stroke-linecap:round;stroke-linejoin:round;stroke-miterlimit:10"
         d="m 477.51,709.772 -1.151,3.453 c 0.812,0.208 1.492,0.208 2.067,0 l 0.967,-3.453 h -1.883 z"
         id="path857" />
      <path
         inkscape:connector-curvature="0"
         style="fill:#eae6cb"
         d="m 480.65,713.407 c 0.706,0.184 1.125,0.446 1.229,0.761 -0.104,0.287 -0.575,0.495 -1.438,0.575 -0.864,0.079 -1.858,0.104 -3.036,0.13 -1.178,0.026 -2.17,-0.026 -3.008,-0.157 -0.811,-0.13 -1.282,-0.312 -1.387,-0.601 0.104,-0.314 0.576,-0.575 1.387,-0.785 0.653,-0.184 1.412,-0.261 2.276,-0.288 0.234,-0.026 0.443,-0.026 0.679,-0.026 0.498,0 0.942,0.026 1.361,0.054 0.601,0.026 1.256,0.156 1.937,0.337"
         id="path859" />
      <path
         inkscape:connector-curvature="0"
         style="fill:none;stroke:#7b7662;stroke-width:1.56980002;stroke-linecap:round;stroke-linejoin:round;stroke-miterlimit:10"
         d="m 480.65,713.407 c -0.682,-0.182 -1.336,-0.312 -1.937,-0.338 -0.419,-0.027 -0.863,-0.054 -1.361,-0.054 -0.235,0 -0.444,0 -0.679,0.026 -0.864,0.027 -1.623,0.104 -2.276,0.288 -0.811,0.21 -1.282,0.471 -1.387,0.785 0.104,0.289 0.576,0.471 1.387,0.601 0.838,0.131 1.83,0.184 3.008,0.157 1.178,-0.027 2.172,-0.051 3.036,-0.13 0.862,-0.08 1.334,-0.288 1.438,-0.575 -0.104,-0.313 -0.523,-0.576 -1.229,-0.76 z"
         id="path861" />
      <path
         inkscape:connector-curvature="0"
         style="fill:#bebaa0"
         d="m 485.254,676.081 c 0.13,-0.026 0.235,-0.026 0.34,-0.026 0.785,-0.053 1.936,-0.263 3.452,-0.628 l -9.026,35.34 -3.426,-1.046 8.66,-33.64 z"
         id="path863" />
      <path
         inkscape:connector-curvature="0"
         style="fill:none;stroke:#645f50;stroke-width:1.56980002;stroke-linecap:round;stroke-linejoin:round;stroke-miterlimit:10"
         d="m 485.254,676.081 -8.66,33.64 3.426,1.046 9.026,-35.34 c -1.517,0.365 -2.667,0.575 -3.452,0.628 -0.105,0 -0.21,0 -0.34,0.026 z"
         id="path865" />
      <path
         inkscape:connector-curvature="0"
         style="fill:#7c7663"
         d="m 507.855,709.772 h 1.884 l 0.602,3.453 c -0.838,0.208 -1.517,0.208 -2.065,0 l -0.421,-3.453 z"
         id="path867" />
      <path
         inkscape:connector-curvature="0"
         style="fill:none;stroke:#595446;stroke-width:1.43840003;stroke-linecap:round;stroke-linejoin:round;stroke-miterlimit:10"
         d="m 509.739,709.772 0.602,3.453 c -0.838,0.208 -1.517,0.208 -2.065,0 l -0.42,-3.453 h 1.883 z"
         id="path869" />
      <path
         inkscape:connector-curvature="0"
         style="fill:#eae6cb"
         d="m 506.155,713.407 c -0.707,0.184 -1.125,0.446 -1.229,0.761 0.104,0.287 0.575,0.495 1.439,0.575 0.862,0.079 1.857,0.104 3.034,0.13 1.176,0.026 2.171,-0.026 3.009,-0.157 0.81,-0.13 1.28,-0.312 1.385,-0.601 -0.104,-0.314 -0.575,-0.575 -1.385,-0.785 -0.656,-0.184 -1.413,-0.261 -2.277,-0.288 -0.234,-0.026 -0.444,-0.026 -0.679,-0.026 -0.498,0 -0.944,0.026 -1.362,0.054 -0.6,0.026 -1.254,0.156 -1.935,0.337"
         id="path871" />
      <path
         inkscape:connector-curvature="0"
         style="fill:none;stroke:#7b7662;stroke-width:1.56980002;stroke-linecap:round;stroke-linejoin:round;stroke-miterlimit:10"
         d="m 506.155,713.407 c 0.681,-0.182 1.335,-0.312 1.935,-0.338 0.418,-0.027 0.864,-0.054 1.362,-0.054 0.234,0 0.444,0 0.679,0.026 0.864,0.027 1.621,0.104 2.277,0.288 0.81,0.21 1.28,0.471 1.385,0.785 -0.104,0.289 -0.575,0.471 -1.385,0.601 -0.838,0.131 -1.833,0.184 -3.009,0.157 -1.177,-0.026 -2.172,-0.051 -3.034,-0.13 -0.864,-0.08 -1.335,-0.288 -1.439,-0.575 0.104,-0.313 0.522,-0.576 1.229,-0.76 z"
         id="path873" />
      <path
         inkscape:connector-curvature="0"
         style="fill:#bebaa0"
         d="m 502.18,675.27 c 1.49,0.367 2.615,0.575 3.374,0.628 0.131,0 0.234,0 0.341,0.026 l 4.681,33.641 -3.556,1.046 -4.84,-35.341 z"
         id="path875" />
      <path
         inkscape:connector-curvature="0"
         style="fill:none;stroke:#645f50;stroke-width:1.56980002;stroke-linecap:round;stroke-linejoin:round;stroke-miterlimit:10"
         d="m 505.554,675.897 c 0.131,0 0.234,0 0.341,0.026 l 4.683,33.641 -3.558,1.046 -4.842,-35.341 c 1.492,0.368 2.617,0.576 3.376,0.628 z"
         id="path877" />
      <path
         inkscape:connector-curvature="0"
         style="fill:#7c7663"
         d="m 465.059,716.233 h 2.197 l -1.335,4.028 c -0.705,0.236 -1.49,0.263 -2.406,0.026 l 1.544,-4.054 z"
         id="path879" />
      <path
         inkscape:connector-curvature="0"
         style="fill:none;stroke:#595446;stroke-width:1.43840003;stroke-linecap:round;stroke-linejoin:round;stroke-miterlimit:10"
         d="m 465.059,716.233 -1.544,4.055 c 0.916,0.236 1.701,0.21 2.406,-0.026 l 1.335,-4.028 h -2.197 z"
         id="path881" />
      <path
         inkscape:connector-curvature="0"
         style="fill:#eae6cb"
         d="m 468.433,720.498 c 0.811,0.234 1.282,0.522 1.413,0.862 -0.131,0.341 -0.682,0.575 -1.674,0.682 -0.996,0.077 -2.172,0.13 -3.532,0.156 -1.361,0.027 -2.538,-0.053 -3.505,-0.184 -0.968,-0.13 -1.492,-0.366 -1.623,-0.707 0.131,-0.365 0.655,-0.679 1.623,-0.915 0.759,-0.184 1.621,-0.314 2.641,-0.341 0.262,-0.024 0.524,-0.024 0.812,-0.024 0.55,0 1.073,0.024 1.57,0.051 0.705,0.053 1.463,0.184 2.275,0.42"
         id="path883" />
      <path
         inkscape:connector-curvature="0"
         style="fill:none;stroke:#7b7662;stroke-width:1.56980002;stroke-linecap:round;stroke-linejoin:round;stroke-miterlimit:10"
         d="m 468.433,720.498 c -0.812,-0.236 -1.569,-0.367 -2.275,-0.42 -0.497,-0.026 -1.021,-0.051 -1.57,-0.051 -0.287,0 -0.55,0 -0.812,0.026 -1.02,0.024 -1.882,0.155 -2.641,0.339 -0.968,0.236 -1.492,0.55 -1.623,0.915 0.131,0.341 0.655,0.577 1.623,0.707 0.967,0.131 2.144,0.211 3.505,0.184 1.36,-0.026 2.536,-0.079 3.532,-0.156 0.992,-0.106 1.543,-0.341 1.674,-0.682 -0.131,-0.339 -0.603,-0.628 -1.413,-0.862 z"
         id="path885" />
      <path
         inkscape:connector-curvature="0"
         style="fill:#bebaa0"
         d="m 476.646,677.573 h 0.393 c 0.916,0 2.275,-0.159 4.082,-0.446 l -13.289,40.572 -3.898,-1.492 12.712,-38.634 z"
         id="path887" />
      <path
         inkscape:connector-curvature="0"
         style="fill:none;stroke:#645f50;stroke-width:1.56980002;stroke-linecap:round;stroke-linejoin:round;stroke-miterlimit:10"
         d="m 476.646,677.573 -12.713,38.634 3.898,1.492 13.289,-40.572 c -1.807,0.287 -3.166,0.446 -4.082,0.446 h -0.392 z"
         id="path889" />
      <path
         inkscape:connector-curvature="0"
         style="fill:#7c7663"
         d="m 521.459,716.233 h -2.198 l 1.125,4.028 c 0.68,0.236 1.49,0.263 2.406,0.026 l -1.333,-4.054 z"
         id="path891" />
      <path
         inkscape:connector-curvature="0"
         style="fill:none;stroke:#595446;stroke-width:1.43840003;stroke-linecap:round;stroke-linejoin:round;stroke-miterlimit:10"
         d="m 521.459,716.233 1.333,4.055 c -0.916,0.236 -1.727,0.21 -2.406,-0.026 l -1.125,-4.028 h 2.198 z"
         id="path893" />
      <path
         inkscape:connector-curvature="0"
         style="fill:#eae6cb"
         d="m 517.876,720.498 c -0.838,0.234 -1.335,0.522 -1.466,0.862 0.104,0.341 0.654,0.575 1.623,0.682 0.993,0.077 2.169,0.13 3.529,0.156 1.362,0.027 2.538,-0.053 3.507,-0.184 0.966,-0.13 1.541,-0.366 1.674,-0.707 -0.104,-0.365 -0.628,-0.679 -1.57,-0.915 -0.758,-0.184 -1.62,-0.314 -2.642,-0.341 -0.234,-0.024 -0.496,-0.024 -0.783,-0.024 -0.553,0 -1.099,0.024 -1.597,0.051 -0.707,0.053 -1.465,0.184 -2.275,0.42"
         id="path895" />
      <path
         inkscape:connector-curvature="0"
         style="fill:none;stroke:#7b7662;stroke-width:1.56980002;stroke-linecap:round;stroke-linejoin:round;stroke-miterlimit:10"
         d="m 517.876,720.498 c 0.81,-0.236 1.568,-0.367 2.275,-0.42 0.498,-0.026 1.044,-0.051 1.597,-0.051 0.287,0 0.549,0 0.783,0.026 1.021,0.024 1.884,0.155 2.642,0.339 0.942,0.236 1.466,0.55 1.57,0.915 -0.133,0.341 -0.708,0.577 -1.674,0.707 -0.969,0.131 -2.145,0.211 -3.507,0.184 -1.36,-0.026 -2.536,-0.079 -3.529,-0.156 -0.969,-0.106 -1.519,-0.341 -1.623,-0.682 0.131,-0.339 0.628,-0.628 1.466,-0.862 z"
         id="path897" />
      <path
         inkscape:connector-curvature="0"
         style="fill:#bebaa0"
         d="m 514.343,677.571 h 0.392 l 7.902,38.636 -4.081,1.492 -8.241,-40.572 c 1.78,0.287 3.113,0.444 4.028,0.444"
         id="path899" />
      <path
         inkscape:connector-curvature="0"
         style="fill:none;stroke:#645f50;stroke-width:1.56980002;stroke-linecap:round;stroke-linejoin:round;stroke-miterlimit:10"
         d="m 514.734,677.571 7.9,38.636 -4.079,1.492 -8.239,-40.572 c 1.778,0.287 3.111,0.444 4.026,0.444 h 0.392 z"
         id="path901" />
      <path
         inkscape:connector-curvature="0"
         style="fill:#f2ea00"
         d="m 527.605,605.504 c 0.891,0.21 1.649,0.969 2.277,2.251 -0.21,1.125 -0.394,2.249 -0.551,3.348 -0.053,0.339 -0.104,0.705 -0.156,1.046 -2.433,17.737 -4.187,35.785 -5.205,54.175 -0.131,2.51 -0.237,5.023 -0.341,7.533 -0.236,4.367 -7.533,7.115 -21.896,8.266 -14.388,1.127 -27.649,0.891 -39.788,-0.732 -0.183,-0.13 -0.34,-0.287 -0.472,-0.442 -1.699,-1.651 -1.752,-3.374 -0.104,-5.181 2.118,-1.125 6.121,-1.676 11.981,-1.648 1.805,0 3.766,0.053 5.886,0.183 1.909,0.054 3.818,0.054 5.728,0 5.023,-0.13 10.152,-0.652 15.355,-1.517 5.076,-0.862 8.712,-3.009 10.883,-6.461 0.892,-1.439 1.544,-3.113 1.964,-5.021 2.642,-9.183 4.42,-19.489 5.335,-30.972 0.628,-7.9 1.91,-14.308 3.846,-19.228 0.891,-2.223 1.596,-3.715 2.145,-4.473 0.734,-0.602 1.413,-0.995 2.067,-1.126 0.368,-0.08 0.708,-0.08 1.046,-10e-4"
         id="path903" />
      <path
         inkscape:connector-curvature="0"
         style="fill:none;stroke:#9aa11e;stroke-width:2.09229994;stroke-linecap:round;stroke-linejoin:round;stroke-miterlimit:10"
         d="m 529.883,607.755 c -0.21,1.125 -0.394,2.249 -0.551,3.348 -0.053,0.339 -0.104,0.705 -0.156,1.046 -2.433,17.737 -4.187,35.785 -5.205,54.175 -0.131,2.51 -0.237,5.023 -0.341,7.533 -0.236,4.367 -7.533,7.115 -21.896,8.266 -14.388,1.127 -27.649,0.891 -39.788,-0.732 -0.183,-0.13 -0.34,-0.287 -0.471,-0.442 -1.7,-1.651 -1.753,-3.374 -0.104,-5.181 2.119,-1.125 6.121,-1.676 11.98,-1.648 1.805,0 3.767,0.053 5.887,0.183 1.908,0.054 3.818,0.054 5.729,0 5.021,-0.13 10.149,-0.652 15.356,-1.517 5.074,-0.862 8.71,-3.009 10.881,-6.461 0.892,-1.439 1.544,-3.113 1.964,-5.021 2.64,-9.185 4.42,-19.489 5.335,-30.972 0.628,-7.9 1.91,-14.308 3.848,-19.228 0.889,-2.223 1.594,-3.715 2.143,-4.473 0.734,-0.602 1.413,-0.995 2.067,-1.126 0.367,-0.079 0.707,-0.079 1.046,0 0.889,0.209 1.648,0.968 2.276,2.25 z"
         id="path905" />
      <path
         inkscape:connector-curvature="0"
         style="fill:#e72f15"
         d="m 503.771,620.157 c -0.715,-0.483 -1.504,-0.667 -2.366,-0.524 h 0.026 l -4.785,0.718 c -4.165,-18.633 -13.152,-30.181 -26.959,-34.646 -1.433,-0.495 -2.846,-0.409 -4.206,0.257 -1.362,0.665 -2.277,1.715 -2.774,3.146 -0.496,1.433 -0.412,2.846 0.255,4.208 0.665,1.361 1.741,2.306 3.175,2.801 9.829,3.629 16.365,12.223 19.58,25.838 l -4.98,0.732 c -0.027,0 -0.027,0 -0.029,0.026 -0.75,0.122 -1.434,0.497 -1.994,1.127 -0.028,0.026 -0.028,0.026 -0.058,0.049 -0.533,0.635 -0.796,1.362 -0.791,2.219 -0.001,0.026 -0.002,0.055 0.024,0.083 0.061,0.86 0.406,1.568 1.004,2.182 l -0.002,0.028 12.366,12.239 c 0.47,0.469 1.06,0.779 1.738,0.954 0.028,0.002 0.083,0.006 0.109,0.006 0.71,0.125 1.407,-0.002 2.09,-0.373 0.596,-0.297 1.036,-0.742 1.348,-1.357 l 8.327,-15.293 c 0.002,-0.028 0.002,-0.028 0.03,-0.056 0.373,-0.722 0.473,-1.517 0.273,-2.354 l 0.002,-0.026 c -0.199,-0.84 -0.685,-1.503 -1.403,-1.984"
         id="path907" />
      <path
         inkscape:connector-curvature="0"
         style="fill:none;stroke:#910a11;stroke-width:2.47779989;stroke-linecap:round;stroke-linejoin:round;stroke-miterlimit:10"
         d="m 503.771,620.157 c 0.718,0.48 1.203,1.144 1.403,1.983 l -0.002,0.026 c 0.199,0.838 0.1,1.633 -0.273,2.354 -0.028,0.027 -0.028,0.027 -0.03,0.056 l -8.327,15.293 c -0.312,0.615 -0.752,1.061 -1.348,1.357 -0.683,0.371 -1.38,0.498 -2.09,0.373 -0.026,0 -0.081,-0.004 -0.109,-0.006 -0.679,-0.175 -1.269,-0.485 -1.738,-0.954 l -12.366,-12.239 0.002,-0.028 c -0.598,-0.613 -0.943,-1.321 -1.004,-2.182 -0.026,-0.028 -0.025,-0.057 -0.024,-0.083 -0.005,-0.856 0.258,-1.584 0.791,-2.219 0.029,-0.022 0.029,-0.022 0.058,-0.049 0.561,-0.63 1.244,-1.005 1.994,-1.127 0.002,-0.026 0.002,-0.026 0.029,-0.026 l 4.98,-0.732 c -3.215,-13.615 -9.751,-22.209 -19.58,-25.838 -1.434,-0.495 -2.51,-1.439 -3.175,-2.801 -0.667,-1.362 -0.751,-2.775 -0.255,-4.208 0.497,-1.432 1.412,-2.481 2.774,-3.146 1.36,-0.666 2.773,-0.752 4.206,-0.257 13.807,4.465 22.794,16.013 26.959,34.646 l 4.785,-0.718 h -0.026 c 0.863,-0.142 1.652,0.042 2.366,0.525 z"
         id="path909" />
    </g>
  </g>
</svg>
