<?xml version="1.0" encoding="UTF-8" standalone="no"?>
<!-- Created with Inkscape (http://www.inkscape.org/) -->

<svg
   xmlns:dc="http://purl.org/dc/elements/1.1/"
   xmlns:cc="http://creativecommons.org/ns#"
   xmlns:rdf="http://www.w3.org/1999/02/22-rdf-syntax-ns#"
   xmlns:svg="http://www.w3.org/2000/svg"
   xmlns="http://www.w3.org/2000/svg"
   version="1.1"
   width="195"
   height="235"
   id="svg4502">
  <defs
     id="defs4504" />
  <metadata
     id="metadata4507">
    <rdf:RDF>
      <cc:Work
         rdf:about="">
        <dc:format>image/svg+xml</dc:format>
        <dc:type
           rdf:resource="http://purl.org/dc/dcmitype/StillImage" />
        <dc:title></dc:title>
      </cc:Work>
    </rdf:RDF>
  </metadata>
  <g
     transform="translate(0,-245)"
     id="layer1">
    <g
       transform="translate(-92.661427,-265.66611)"
       id="g803">
      <path
         d="m 145.009,559.661 -0.163,-0.165 0.163,0.165 z"
         id="path805"
         style="fill:#d56e45" />
      <path
         d="m 233.33,688.133 c 13.308,-7.902 19.284,-19.893 17.916,-35.99 -1.071,-12.65 -6.287,-26.256 -15.618,-40.816 -3.706,-5.758 -7.578,-10.83 -11.592,-15.232 -1.408,-1.535 -2.349,-2.709 -2.841,-3.496 -15.244,8.402 -27.339,9.641 -36.298,3.729 -9.256,-6.092 -15.426,-8.094 -18.536,-6.002 -1.615,1.084 -3.228,2.453 -4.842,4.117 -1.614,1.666 -4.789,5.924 -9.501,12.793 -4.712,6.867 -10.081,13.939 -16.096,21.223 -6.03,7.268 -9.966,14.883 -11.838,22.821 -1.729,7.397 -1.599,14.497 0.402,21.323 1.947,6.703 5.434,12.211 10.443,16.564 5.227,4.529 11.461,7.15 18.676,7.861 36.881,3.728 63.447,0.761 79.725,-8.895"
         id="path807"
         style="fill:#043689" />
      <path
         d="m 251.246,652.143 c -1.07,-12.65 -6.286,-26.256 -15.618,-40.816 -3.705,-5.758 -7.577,-10.829 -11.591,-15.232 -1.409,-1.535 -2.35,-2.709 -2.841,-3.496 -15.244,8.402 -27.34,9.641 -36.298,3.729 -9.256,-6.092 -15.426,-8.094 -18.536,-6.002 -1.616,1.084 -3.229,2.453 -4.842,4.117 -1.615,1.666 -4.79,5.924 -9.502,12.793 -4.712,6.867 -10.081,13.939 -16.095,21.223 -6.03,7.268 -9.966,14.883 -11.838,22.822 -1.729,7.396 -1.599,14.496 0.401,21.322 1.947,6.703 5.434,12.211 10.443,16.564 5.227,4.529 11.461,7.15 18.677,7.861 36.881,3.729 63.447,0.762 79.724,-8.895 13.308,-7.903 19.285,-19.893 17.916,-35.99 z"
         id="path809"
         style="fill:none;stroke:#043689;stroke-width:2.06500006;stroke-linecap:square;stroke-miterlimit:10" />
      <path
         d="m 112.359,681.936 0.017,-0.086 c 4.956,1.143 10.018,2.176 15.176,3.076 5.172,0.898 10.485,0.609 15.962,-0.846 5.1,-1.367 9.088,-4.165 11.969,-8.383 l 13.939,17.418 c -6.756,14.314 -17.674,19.846 -32.728,16.588 -0.426,-0.098 -0.845,-0.209 -1.265,-0.334 -0.423,0.848 -0.21,2.311 0.63,4.406 0.518,0.338 0.858,0.553 1.005,0.646 5.43,3.271 9.011,7.977 10.748,14.139 1.306,4.637 -0.34,6.914 -4.912,6.84 -0.63,-0.002 -1.27,0 -1.909,0 -1.903,-0.026 -3.78,-0.195 -5.626,-0.506 -7.807,-1.164 -13.448,-3.68 -16.945,-7.547 -0.649,-0.715 -1.274,-1.439 -1.863,-2.174 -8.94,-10.695 -12.927,-22.994 -11.934,-36.91 1.127,-2.67 2.235,-4.279 3.319,-4.855 1.404,-0.771 2.668,-1.223 3.791,-1.369 0.165,-0.031 0.38,-0.076 0.626,-0.103"
         id="path811"
         style="fill:#00a0e9" />
      <path
         d="m 112.358,681.936 c -0.246,0.027 -0.461,0.072 -0.626,0.104 -1.122,0.146 -2.386,0.597 -3.791,1.369 -1.084,0.576 -2.192,2.186 -3.319,4.855 -0.993,13.916 2.994,26.215 11.934,36.91 0.589,0.734 1.214,1.459 1.863,2.174 3.497,3.867 9.138,6.383 16.946,7.547 1.845,0.311 3.722,0.48 5.626,0.506 0.639,0 1.278,-0.002 1.908,0 4.572,0.074 6.218,-2.203 4.912,-6.84 -1.737,-6.162 -5.318,-10.867 -10.748,-14.139 -0.147,-0.094 -0.486,-0.309 -1.005,-0.646 -0.84,-2.096 -1.053,-3.559 -0.63,-4.406 0.42,0.125 0.84,0.236 1.266,0.334 15.053,3.258 25.971,-2.273 32.728,-16.588 0.115,-0.256 0.236,-0.504 0.352,-0.762 M 156.102,674.74 c -0.202,0.336 -0.411,0.645 -0.619,0.957 -2.881,4.219 -6.868,7.016 -11.969,8.383 -5.476,1.455 -10.789,1.744 -15.961,0.846 -5.159,-0.9 -10.221,-1.934 -15.177,-3.076"
         id="path813"
         style="fill:none;stroke:#043689;stroke-width:2.05999994;stroke-linecap:round;stroke-miterlimit:10" />
      <path
         d="m 232.044,706.283 c 0.73,-0.504 1.208,-0.863 1.413,-1.039 1.438,-1.234 2.941,-2.432 4.5,-3.566 3.437,-2.42 7.066,-4.479 10.913,-6.184 3.747,-1.623 7.633,-2.549 11.665,-2.797 2.033,-0.129 4.173,0.326 6.399,1.389 1.176,0.547 1.822,1.398 1.91,2.549 -2.166,6.584 -5.744,12.303 -10.739,17.137 -5.502,5.32 -11.57,9.885 -18.214,13.703 -4.535,2.615 -9.115,4.906 -13.714,6.883 -3.496,0.887 -6.431,0.701 -8.798,-0.535 -13.284,-11.004 -21.459,-25.736 -24.54,-44.213 l 26.851,-1.15 c -0.232,9.659 3.89,15.61 12.354,17.823"
         id="path815"
         style="fill:#00a0e9" />
      <path
         d="m 219.731,687.539 c -0.007,0.309 -0.033,0.609 -0.041,0.92 -0.232,9.66 3.89,15.611 12.354,17.824 0.731,-0.504 1.208,-0.863 1.413,-1.039 1.439,-1.234 2.941,-2.432 4.501,-3.566 3.437,-2.42 7.066,-4.479 10.913,-6.184 3.746,-1.623 7.632,-2.549 11.664,-2.797 2.034,-0.129 4.173,0.326 6.4,1.389 1.176,0.547 1.821,1.398 1.91,2.549 -2.166,6.584 -5.745,12.303 -10.74,17.137 -5.501,5.32 -11.569,9.885 -18.214,13.704 -4.535,2.614 -9.115,4.905 -13.714,6.882 -3.495,0.887 -6.43,0.702 -8.798,-0.535 -13.283,-11.004 -21.459,-25.736 -24.54,-44.213 -0.113,-0.463 -0.23,-0.936 -0.346,-1.412"
         id="path817"
         style="fill:none;stroke:#043689;stroke-width:2.05999994;stroke-linecap:round;stroke-linejoin:round;stroke-miterlimit:10" />
      <path
         d="m 203.615,525.01 c -1.252,1.244 -2.225,2.623 -2.903,4.105 -0.622,-0.895 -1.215,-1.623 -1.8,-2.172 -2.692,-2.502 -5.958,-3.756 -9.77,-3.74 -3.813,0.018 -7.067,1.279 -9.773,3.791 -2.694,2.521 -4.048,5.564 -4.063,9.117 0,1.447 0.224,2.809 0.659,4.072 -0.126,0.018 -0.251,0.047 -0.363,0.064 -0.651,0.1 -1.264,0.2 -1.827,0.309 -1.163,0.209 -2.274,0.455 -3.348,0.711 -4.656,1.08 -8.497,2.492 -11.519,4.227 -8.935,5.076 -12.751,14.342 -11.465,27.77 0.434,4.531 2.093,8.76 4.974,12.678 2.788,3.791 6.513,7.018 11.186,9.684 9.927,5.672 21.533,7.902 34.794,6.689 8.37,-0.77 15.398,-2.373 21.092,-4.779 5.096,-2.18 9.635,-5.18 13.63,-9.014 0.401,-0.389 0.804,-0.791 1.203,-1.189 0.183,-0.201 0.376,-0.416 0.57,-0.615 2.997,-3.217 5.311,-6.877 6.942,-11.002 0.713,-1.91 1.173,-3.891 1.391,-5.951 0.199,-1.828 0.197,-3.715 0.004,-5.645 -0.421,-4.133 -1.162,-7.67 -2.233,-10.63 -0.224,-0.612 -0.459,-1.209 -0.719,-1.782 -2.391,-5.367 -6.299,-9.197 -11.74,-11.5 l -1.887,-0.695 c 0.417,-0.674 0.655,-1.418 0.74,-2.234 0.073,-0.416 0.137,-0.768 0.163,-1.064 0.046,-0.494 0.07,-0.933 0.069,-1.307 0.003,-3.863 -1.371,-7.16 -4.122,-9.893 -2.739,-2.732 -6.047,-4.09 -9.934,-4.096 -3.89,-0.009 -7.203,1.36 -9.951,4.091"
         id="path819"
         style="fill:#00a0e9" />
      <path
         d="m 200.712,529.115 c -0.623,-0.896 -1.215,-1.623 -1.8,-2.172 -2.692,-2.502 -5.958,-3.756 -9.77,-3.74 -3.813,0.018 -7.067,1.279 -9.773,3.791 -2.694,2.521 -4.049,5.564 -4.063,9.117 0,1.447 0.224,2.809 0.659,4.072 -0.126,0.018 -0.251,0.047 -0.363,0.064 -0.651,0.1 -1.265,0.199 -1.828,0.309 -1.162,0.209 -2.273,0.454 -3.347,0.711 -4.656,1.08 -8.497,2.492 -11.519,4.227 -8.935,5.076 -12.751,14.342 -11.465,27.77 0.434,4.531 2.093,8.76 4.974,12.678 2.788,3.791 6.513,7.018 11.186,9.684 9.927,5.672 21.533,7.902 34.794,6.689 8.37,-0.77 15.398,-2.373 21.091,-4.779 5.097,-2.18 9.636,-5.18 13.631,-9.014 0.401,-0.389 0.803,-0.791 1.203,-1.189 0.183,-0.201 0.376,-0.416 0.57,-0.615 2.997,-3.217 5.311,-6.877 6.942,-11.002 0.713,-1.91 1.173,-3.891 1.391,-5.951 0.199,-1.828 0.196,-3.715 0.004,-5.645 -0.421,-4.133 -1.162,-7.67 -2.233,-10.631 -0.224,-0.611 -0.459,-1.209 -0.719,-1.781 -2.391,-5.367 -6.299,-9.197 -11.74,-11.5 l -1.887,-0.696 c 0.416,-0.673 0.655,-1.417 0.74,-2.233 0.072,-0.416 0.137,-0.768 0.163,-1.064 0.046,-0.494 0.07,-0.934 0.069,-1.307 0.003,-3.863 -1.371,-7.16 -4.122,-9.893 -2.739,-2.732 -6.047,-4.09 -9.934,-4.096 -3.89,-0.008 -7.204,1.361 -9.951,4.092 -1.253,1.243 -2.224,2.622 -2.903,4.104 z"
         id="path821"
         style="fill:none;stroke:#00489c;stroke-width:2.03900003;stroke-linecap:round;stroke-miterlimit:10" />
      <path
         d="m 203.539,526.459 c -1.173,1.346 -2.03,2.783 -2.542,4.313 -0.768,-1.446 -1.846,-2.739 -3.244,-3.88 -2.77,-2.213 -5.95,-3.174 -9.54,-2.855 -3.6,0.344 -6.569,1.855 -8.878,4.533 -2.336,2.678 -3.346,5.762 -3.063,9.238 0.311,3.477 1.845,6.328 4.603,8.557 2.747,2.219 5.925,3.166 9.538,2.832 3.588,-0.318 6.543,-1.83 8.867,-4.506 1.162,-1.346 1.992,-2.783 2.505,-4.312 0.768,1.447 1.869,2.738 3.282,3.865 2.797,2.227 6.013,3.174 9.652,2.852 3.626,-0.32 6.62,-1.832 8.966,-4.523 2.362,-2.678 3.387,-5.762 3.076,-9.238 -0.297,-3.451 -1.843,-6.303 -4.64,-8.543 -2.783,-2.217 -5.988,-3.162 -9.614,-2.842 -3.626,0.333 -6.619,1.831 -8.968,4.509"
         id="path823"
         style="fill:#f3f3f3" />
      <path
         d="m 197.097,535.875 c -0.89,-1.137 -2.036,-1.787 -3.46,-1.949 -1.427,-0.166 -2.691,0.188 -3.827,1.051 -1.137,0.893 -1.785,2.037 -1.951,3.463 -0.164,1.424 0.188,2.691 1.054,3.824 0.889,1.15 2.034,1.812 3.458,1.977 1.425,0.164 2.693,-0.186 3.829,-1.078 1.149,-0.891 1.812,-2.033 1.975,-3.459 0.165,-1.425 -0.186,-2.692 -1.078,-3.829"
         id="path825" />
      <path
         d="m 214.143,527.775 c -0.891,-1.135 -2.036,-1.785 -3.46,-1.949 -1.427,-0.166 -2.691,0.186 -3.826,1.054 -1.137,0.89 -1.786,2.034 -1.951,3.46 -0.164,1.424 0.189,2.691 1.052,3.826 0.892,1.146 2.036,1.811 3.461,1.977 1.424,0.162 2.691,-0.189 3.828,-1.08 1.148,-0.889 1.81,-2.033 1.974,-3.459 0.164,-1.424 -0.187,-2.692 -1.078,-3.829"
         id="path827" />
      <path
         d="m 234.698,566.379 c 1.049,-2.865 1.661,-5.912 1.842,-9.127 l -0.084,-3.949 c -9.808,6.932 -23.454,9.629 -40.957,8.119 -5.477,-0.465 -11.009,-1.33 -16.614,-2.594 l -6.731,-1.756 c 2.23,14.598 9.679,23.441 22.359,26.5 3.955,0.969 8.19,1.291 12.723,0.98 2.261,-0.141 4.138,-0.4 5.616,-0.748 11.148,-2.413 18.426,-8.222 21.846,-17.425"
         id="path829" />
      <path
         d="m 239.487,619.213 c -3.64,-6.223 -7.15,-11.502 -10.534,-15.838 -3.394,-4.352 -6.376,-7.887 -8.944,-10.623 l -5.035,2.607 c -12.25,5.77 -22.24,6.066 -29.999,0.902 -9.075,-6.041 -15.129,-8.029 -18.175,-5.951 -1.575,1.072 -3.203,2.66 -4.894,4.75 -1.136,1.383 -2.967,3.912 -5.499,7.578 -6.867,9.85 -13.45,18.535 -19.763,26.062 -5.693,6.803 -9.461,14.135 -11.294,21.996 -1.704,7.32 -1.575,14.367 0.386,21.131 1.923,6.635 5.332,12.107 10.237,16.408 5.126,4.48 11.231,7.086 18.317,7.797 36.157,3.68 62.221,0.746 78.175,-8.816 13.05,-7.836 18.911,-19.711 17.568,-35.654 -0.852,-10.158 -4.362,-20.951 -10.546,-32.349"
         id="path831"
         style="fill:#00a0e9" />
      <path
         d="m 174.896,612.355 c 0.042,0.15 0.092,0.289 0.151,0.436 1.924,5.332 5.129,10.883 9.632,16.669 4.645,5.997 11.175,10.3 19.605,12.901 8.382,2.599 16.58,2.891 24.587,0.89 6.922,-1.726 13.69,-4.733 20.295,-9.038 l -0.054,-0.076 c 0.031,0.023 0.05,0.041 0.072,0.074 0.027,0.025 0.057,0.049 0.08,0.084 0.033,-0.021 0.057,-0.053 0.108,-0.094 2.181,0.881 4.846,1.553 7.977,2.018 3.506,0.543 6.996,-0.025 10.443,-1.715 3.438,-1.68 6.039,-3.719 7.772,-6.117 l 0.002,0.02 c 2.028,-2.779 1.709,-5.258 -0.968,-7.449 -2.077,-1.682 -3.788,-2.354 -5.16,-2.025 1.895,-4.904 1.166,-8.656 -2.187,-11.262 -1.675,-1.529 -3.426,-1.758 -5.252,-0.701 0.111,-0.551 0.184,-1.098 0.221,-1.641 v -0.018 c 0.272,-3.717 -1.283,-6.33 -4.666,-7.84 -3.441,-1.541 -6.342,-0.83 -8.707,2.096 -0.973,1.219 -1.776,2.312 -2.414,3.264 -0.296,-1.016 -0.75,-2.096 -1.361,-3.207 -1.383,-2.523 -3.589,-3.732 -6.611,-3.631 -3.156,0.023 -5.041,2.509 -5.647,7.459 -0.529,4.406 -0.642,7.729 -0.327,9.977 0.007,0.088 0.016,0.178 0.041,0.246 0.002,0.02 -0.006,0.027 -0.004,0.047 0.04,0.049 0.072,0.092 0.112,0.141 -1.202,0.881 -2.812,1.818 -4.841,2.805 -5.589,2.695 -12.043,2.875 -19.338,0.551 -7.185,-2.298 -12.078,-7.334 -14.657,-15.096 -0.026,-0.068 -0.05,-0.156 -0.077,-0.245 l -0.308,-0.96 -1.929,0.625 0.308,0.961 c 0.065,0.219 0.141,0.428 0.214,0.637 2.843,8.24 8.122,13.562 15.843,16.01 7.86,2.492 14.804,2.275 20.821,-0.658 2.14,-1.043 3.879,-2.057 5.231,-3.059 0.04,0.051 0.082,0.102 0.123,0.153 0.106,-0.112 0.23,-0.222 0.363,-0.343 l 0.345,-0.34 c -0.013,-0.043 -0.017,-0.078 -0.02,-0.115 -0.074,-0.389 -0.152,-0.83 -0.226,-1.318 -0.056,-0.391 -0.094,-0.783 -0.122,-1.186 -0.164,-1.693 -0.202,-3.4 -0.13,-5.098 0.139,-2.777 0.562,-4.922 1.264,-6.43 0.638,-1.689 1.657,-2.605 3.04,-2.73 l 0.01,-0.008 c 0.107,0.008 0.214,-0.004 0.314,-0.004 0.016,-0.002 0.016,-0.002 0.034,-0.004 0.769,-0.074 1.483,0.075 2.175,0.432 0.921,0.414 1.674,1.135 2.23,2.152 0.036,0.078 0.077,0.145 0.109,0.205 0.193,0.322 0.39,0.664 0.575,1.014 0.916,1.758 1.566,3.756 1.963,6.004 0.029,-1.271 1.217,-3.248 3.562,-5.912 0.169,-0.205 0.349,-0.402 0.537,-0.592 0.111,-0.154 0.24,-0.311 0.376,-0.494 0.659,-0.817 1.385,-1.402 2.18,-1.748 1.189,-0.744 2.205,-0.939 3.067,-0.574 1.63,0.674 2.828,1.609 3.587,2.779 0.708,0.994 1.033,2.232 0.956,3.697 -0.009,0.451 -0.054,0.922 -0.134,1.398 -0.358,2.283 -1.719,5.525 -4.096,9.742 0.501,-0.508 1.914,-2.281 4.252,-5.295 2.35,-2.512 4.237,-3.107 5.677,-1.805 2.94,2.148 3.546,5.373 1.826,9.686 -0.615,1.545 -1.443,2.945 -2.498,4.227 -0.288,0.387 -0.572,0.711 -0.85,0.993 0.233,-0.187 0.474,-0.399 0.732,-0.632 0.992,-0.904 1.807,-1.512 2.432,-1.834 2.208,-1.184 4.452,-0.58 6.737,1.846 0.461,0.496 0.622,1.121 0.458,1.873 -0.045,0.652 -0.322,1.326 -0.822,2.031 -0.175,0.232 -0.343,0.455 -0.512,0.66 -1.513,2.056 -3.685,3.693 -6.519,4.92 -0.639,0.275 -1.275,0.508 -1.93,0.705 -1.975,0.703 -3.971,0.994 -5.963,0.877 -1.027,-0.008 -2.096,-0.104 -3.192,-0.268 -1.569,-0.229 -3.139,-0.635 -4.703,-1.188 -0.747,-0.27 -1.496,-0.575 -2.247,-0.918 -0.019,0.002 -0.019,0.002 -0.028,-0.006 l -0.333,0.283 c -0.167,0.143 -0.314,0.283 -0.481,0.426 -0.022,-0.035 -0.053,-0.078 -0.072,-0.11 -6.372,4.136 -12.896,7.03 -19.575,8.698 -7.664,1.904 -15.49,1.621 -23.495,-0.859 -7.983,-2.464 -14.184,-6.531 -18.598,-12.207 -4.445,-5.719 -7.598,-11.193 -9.443,-16.441 -0.021,-0.035 -0.024,-0.072 -0.026,-0.088 l -0.344,-0.957 -1.915,0.668 0.343,0.956 z"
         id="path833"
         style="fill:#043689" />
      <path
         d="m 186.28,628.217 c 4.414,5.676 10.615,9.742 18.599,12.207 8.004,2.481 15.83,2.764 23.494,0.859 6.679,-1.668 13.203,-4.562 19.575,-8.699 0.02,0.033 0.05,0.076 0.072,0.111 0.167,-0.143 0.314,-0.283 0.482,-0.426 l 0.332,-0.283 c 0.009,0.008 0.009,0.008 0.028,0.006 0.751,0.342 1.501,0.648 2.248,0.918 1.564,0.553 3.133,0.959 4.703,1.188 1.095,0.164 2.164,0.26 3.191,0.268 1.992,0.117 3.988,-0.174 5.963,-0.877 0.655,-0.197 1.292,-0.43 1.93,-0.705 2.835,-1.227 5.006,-2.865 6.52,-4.92 0.168,-0.205 0.336,-0.428 0.511,-0.66 0.5,-0.705 0.777,-1.379 0.822,-2.031 0.164,-0.752 0.003,-1.377 -0.458,-1.873 -2.284,-2.426 -4.529,-3.029 -6.737,-1.846 -0.625,0.322 -1.44,0.93 -2.432,1.834 -0.258,0.232 -0.498,0.445 -0.732,0.631 0.279,-0.281 0.562,-0.605 0.85,-0.992 1.056,-1.281 1.884,-2.682 2.498,-4.227 1.72,-4.312 1.115,-7.537 -1.826,-9.686 -1.44,-1.303 -3.327,-0.707 -5.677,1.805 -2.337,3.014 -3.75,4.787 -4.251,5.295 2.376,-4.217 3.737,-7.46 4.095,-9.742 0.08,-0.477 0.125,-0.947 0.135,-1.398 0.077,-1.465 -0.248,-2.703 -0.957,-3.697 -0.759,-1.17 -1.957,-2.105 -3.587,-2.779 -0.862,-0.365 -1.877,-0.17 -3.067,0.574 -0.795,0.346 -1.521,0.93 -2.18,1.748 -0.136,0.184 -0.265,0.34 -0.375,0.494 -0.189,0.189 -0.369,0.387 -0.538,0.591 -2.344,2.665 -3.532,4.642 -3.562,5.913 -0.397,-2.248 -1.046,-4.246 -1.962,-6.004 -0.186,-0.35 -0.382,-0.691 -0.576,-1.014 -0.032,-0.061 -0.073,-0.127 -0.109,-0.205 -0.556,-1.018 -1.309,-1.738 -2.23,-2.152 -0.691,-0.357 -1.406,-0.506 -2.174,-0.432 -0.018,0.002 -0.018,0.002 -0.035,0.004 -0.1,0 -0.207,0.012 -0.314,0.004 l -0.01,0.008 c -1.383,0.125 -2.402,1.041 -3.039,2.73 -0.702,1.508 -1.125,3.652 -1.264,6.43 -0.073,1.697 -0.035,3.404 0.129,5.098 0.028,0.402 0.066,0.795 0.122,1.186 0.074,0.488 0.152,0.93 0.227,1.318 0.003,0.037 0.006,0.072 0.02,0.115 l -0.346,0.34 c -0.133,0.121 -0.256,0.23 -0.362,0.342 -0.042,-0.051 -0.084,-0.102 -0.124,-0.152 -1.352,1.002 -3.091,2.016 -5.23,3.059 -6.018,2.934 -12.962,3.15 -20.822,0.658 -7.721,-2.447 -13,-7.77 -15.842,-16.01 l -15.171,8.637 c 1.845,5.245 4.998,10.72 9.443,16.439"
         id="path835"
         style="fill:#00a0e9" />
      <path
         d="m 249.111,634.137 0.054,0.076 0.018,-0.002 c -0.022,-0.033 -0.04,-0.051 -0.072,-0.074"
         id="path837"
         style="fill:#66b72e" />
      <path
         d="m 165.236,593.184 c -1.845,4.387 -2.089,7.531 -0.739,9.422 1.1,1.535 2.715,3.111 4.828,4.74 1.398,1.092 3.951,2.852 7.645,5.276 3.828,2.534 7.486,5.034 10.977,7.485 0.379,-0.303 0.756,-0.605 1.131,-0.936 -0.144,-7.246 -3.589,-13.057 -10.342,-17.432 -4.45,-2.878 -8.95,-5.729 -13.5,-8.555"
         id="path839"
         style="fill:#00a0e9" />
    </g>
  </g>
</svg>
