<?xml version="1.0" encoding="UTF-8" standalone="no"?>
<!-- Created with Inkscape (http://www.inkscape.org/) -->

<svg
   xmlns:dc="http://purl.org/dc/elements/1.1/"
   xmlns:cc="http://creativecommons.org/ns#"
   xmlns:rdf="http://www.w3.org/1999/02/22-rdf-syntax-ns#"
   xmlns:svg="http://www.w3.org/2000/svg"
   xmlns="http://www.w3.org/2000/svg"
   xmlns:sodipodi="http://sodipodi.sourceforge.net/DTD/sodipodi-0.dtd"
   xmlns:inkscape="http://www.inkscape.org/namespaces/inkscape"
   width="90.073051"
   height="210.16901"
   id="svg5696"
   version="1.1"
   inkscape:version="0.48.4 r9939"
   sodipodi:docname="bert8.svg">
  <defs
     id="defs5698" />
  <sodipodi:namedview
     id="base"
     pagecolor="#ffffff"
     bordercolor="#666666"
     borderopacity="1.0"
     inkscape:pageopacity="0.0"
     inkscape:pageshadow="2"
     inkscape:zoom="0.77472527"
     inkscape:cx="3.637834"
     inkscape:cy="88.527322"
     inkscape:current-layer="layer1"
     inkscape:document-units="px"
     showgrid="false"
     inkscape:window-width="942"
     inkscape:window-height="591"
     inkscape:window-x="412"
     inkscape:window-y="91"
     inkscape:window-maximized="0"
     fit-margin-top="0"
     fit-margin-left="0"
     fit-margin-right="0"
     fit-margin-bottom="0" />
  <metadata
     id="metadata5701">
    <rdf:RDF>
      <cc:Work
         rdf:about="">
        <dc:format>image/svg+xml</dc:format>
        <dc:type
           rdf:resource="http://purl.org/dc/dcmitype/StillImage" />
        <dc:title></dc:title>
      </cc:Work>
    </rdf:RDF>
  </metadata>
  <g
     id="layer1"
     inkscape:label="Layer 1"
     inkscape:groupmode="layer"
     transform="translate(-227.99194,36.535332)">
    <g
       transform="translate(-366.40423,-313.49222)"
       id="g1111">
      <path
         inkscape:connector-curvature="0"
         style="fill:#e06a06"
         d="m 673.895,446.607 c 0.059,-0.057 0.115,-0.113 0.156,-0.174 1.6,-2.139 1.924,-5.67 0.941,-10.596 1.579,0.924 3.107,1.148 4.567,0.689 0.042,-0.02 0.086,-0.037 0.128,-0.055 1.889,-0.838 2.48,-2.369 1.763,-4.572 -0.585,-1.816 -1.733,-3.475 -3.436,-4.945 -1.498,-1.311 -3.315,-2.498 -5.466,-3.578 l 0.207,-4.508 c 0.007,-0.162 -0.027,-0.305 -0.096,-0.453 -0.077,-0.141 -0.182,-0.262 -0.314,-0.348 -3.137,-2.062 -6.799,-2.602 -10.99,-1.627 -0.178,0.047 -0.339,0.139 -0.473,0.281 -0.126,0.137 -0.199,0.305 -0.219,0.488 l -0.562,4.049 c -2.361,2.336 -3.649,4.684 -3.835,7.047 -4.437,4.732 -5.756,8.279 -3.955,10.627 0.073,0.115 0.173,0.211 0.294,0.277 1.812,1.105 3.716,1.053 5.722,-0.141 -0.196,0.555 -0.27,1.432 -0.21,2.637 -0.113,1.715 0.198,3.355 0.944,4.912 0.642,1.379 1.714,1.943 3.214,1.693 l 0.017,0.002 c 1.896,-0.289 3.273,-1.355 4.124,-3.207 0.331,-0.717 0.627,-1.445 0.914,-2.184 0.274,0.959 0.591,1.787 0.934,2.494 0.678,1.371 1.493,2.125 2.455,2.275 0.938,0.253 2.001,-0.11 3.176,-1.083 m -1.259,-1.334 c -0.582,0.477 -1.093,0.688 -1.541,0.637 -0.428,-0.137 -0.824,-0.479 -1.181,-1.035 -1.556,-2.418 -2.527,-4.928 -2.899,-7.543 -0.437,0.424 -0.592,1.205 -0.48,2.326 -0.074,0.227 -0.123,0.391 -0.163,0.49 l -10e-4,0.016 c -0.454,1.43 -0.992,2.822 -1.608,4.188 -0.564,1.242 -1.484,1.969 -2.758,2.164 l -0.009,0.008 c -0.383,0.057 -0.689,-0.014 -0.936,-0.213 -0.117,-0.098 -0.221,-0.219 -0.303,-0.385 -0.588,-0.811 -0.905,-1.752 -0.958,-2.832 -0.246,-2.299 -0.02,-4.836 0.695,-7.592 -0.569,0.322 -0.99,0.65 -1.276,0.99 -0.965,0.59 -2.025,1.053 -3.176,1.412 -0.828,0.203 -1.598,0.139 -2.331,-0.182 -0.894,-1.789 0.479,-4.58 4.104,-8.398 0.163,-0.164 0.241,-0.363 0.25,-0.598 0.127,-2.119 1.301,-4.24 3.526,-6.377 0.16,-0.148 0.242,-0.322 0.273,-0.529 l 0.507,-3.723 c 3.209,-0.643 6.052,-0.232 8.537,1.223 l -0.209,4.564 c -0.002,0.188 0.038,0.355 0.128,0.516 0.1,0.152 0.229,0.27 0.388,0.348 2.225,1.07 4.091,2.264 5.604,3.576 1.437,1.244 2.404,2.623 2.896,4.143 0.352,1.102 0.106,1.877 -0.748,2.33 -0.45,0.121 -0.916,0.143 -1.385,0.064 -0.206,-0.029 -0.411,-0.078 -0.614,-0.141 -0.352,-0.09 -0.697,-0.232 -1.022,-0.4 -0.657,-0.334 -1.274,-0.725 -1.866,-1.178 -0.622,-0.475 -1.282,-0.906 -1.975,-1.283 -0.606,-0.301 -1.293,-0.557 -2.06,-0.768 l -0.872,-0.201 c -0.04,0.596 0.664,1.293 2.101,2.082 0.468,0.305 0.911,0.654 1.34,1.059 0.044,0.039 0.09,0.062 0.127,0.092 1.321,5.27 1.287,8.981 -0.105,11.15"
         id="path1113" />
      <path
         inkscape:connector-curvature="0"
         style="fill:#fcdf00"
         d="m 671.095,445.91 c 0.448,0.051 0.959,-0.16 1.541,-0.637 1.393,-2.17 1.427,-5.881 0.105,-11.15 -0.037,-0.029 -0.083,-0.053 -0.127,-0.092 -0.429,-0.404 -0.872,-0.754 -1.34,-1.059 -1.437,-0.789 -2.141,-1.486 -2.101,-2.082 l 0.872,0.201 c 0.768,0.211 1.453,0.467 2.06,0.768 0.692,0.377 1.353,0.809 1.975,1.283 0.592,0.453 1.209,0.844 1.866,1.178 0.325,0.168 0.671,0.311 1.022,0.4 0.203,0.062 0.408,0.111 0.614,0.141 0.469,0.078 0.935,0.057 1.385,-0.064 0.854,-0.451 1.101,-1.229 0.749,-2.33 -0.492,-1.52 -1.46,-2.898 -2.896,-4.143 -1.513,-1.312 -3.379,-2.506 -5.604,-3.576 -0.159,-0.078 -0.288,-0.195 -0.388,-0.348 -0.09,-0.16 -0.13,-0.328 -0.128,-0.516 l 0.209,-4.564 c -2.485,-1.455 -5.328,-1.865 -8.537,-1.223 l -0.507,3.723 c -0.031,0.207 -0.113,0.381 -0.273,0.529 -2.226,2.137 -3.399,4.258 -3.524,6.377 -0.011,0.234 -0.089,0.434 -0.252,0.598 -3.626,3.818 -4.998,6.607 -4.104,8.398 0.733,0.32 1.503,0.385 2.331,0.182 1.15,-0.359 2.211,-0.822 3.176,-1.412 0.286,-0.34 0.707,-0.668 1.276,-0.99 -0.715,2.756 -0.941,5.293 -0.695,7.592 0.053,1.08 0.37,2.021 0.958,2.832 0.082,0.166 0.186,0.287 0.303,0.385 0.246,0.199 0.553,0.27 0.936,0.213 l 0.009,-0.008 c 1.273,-0.195 2.193,-0.922 2.758,-2.164 0.616,-1.365 1.154,-2.758 1.608,-4.188 l 0.001,-0.016 c 0.04,-0.1 0.088,-0.264 0.163,-0.49 -0.111,-1.121 0.044,-1.902 0.48,-2.326 0.372,2.615 1.344,5.125 2.899,7.543 0.356,0.557 0.752,0.898 1.18,1.035"
         id="path1115" />
      <path
         inkscape:connector-curvature="0"
         style="fill:#30479b"
         d="m 659.048,446.602 c 0.006,0.01 0.006,0.01 0.014,0.018 l -0.014,-0.018 z"
         id="path1117" />
      <path
         inkscape:connector-curvature="0"
         style="fill:#df6513"
         d="m 650.665,401.68 -0.525,-1.816 c -1.895,-3.996 -1.02,-8.977 2.622,-14.932 4.19,3.045 7.867,6.307 11.019,9.807 l -12.112,10.447 c -0.457,-0.76 -0.938,-1.516 -1.446,-2.27 l 0.442,-1.236 z"
         id="path1119" />
      <path
         inkscape:connector-curvature="0"
         style="fill:#0e5cab"
         d="m 656.655,416.604 c -0.54,-1.943 -1.231,-3.879 -2.074,-5.797 l 14.758,-8.914 c 1.813,2.764 3.344,5.643 4.614,8.637 l -17.298,6.074 z"
         id="path1121" />
      <path
         inkscape:connector-curvature="0"
         style="fill:#9ac843"
         d="m 654.581,410.807 c -0.818,-1.883 -1.796,-3.764 -2.914,-5.621 l 12.113,-10.447 c 2.082,2.289 3.934,4.676 5.559,7.154 l -14.758,8.914 z"
         id="path1123" />
      <path
         inkscape:connector-curvature="0"
         style="fill:#9ac843"
         d="m 657.74,421.74 c -0.244,-1.727 -0.604,-3.434 -1.085,-5.137 l 17.298,-6.074 c 1.091,2.578 1.98,5.242 2.659,7.986 l -18.872,3.225 z"
         id="path1125" />
      <path
         inkscape:connector-curvature="0"
         style="fill:#df6513"
         d="m 676.612,418.516 c 0.667,2.68 1.147,5.438 1.43,8.271 -6.014,1.633 -12.651,1.961 -19.89,0.979 0.011,-2.023 -0.117,-4.037 -0.412,-6.025 l 18.872,-3.225 z"
         id="path1127" />
      <path
         inkscape:connector-curvature="0"
         style="fill:none;stroke:#003c90;stroke-width:1.82869995;stroke-linecap:square;stroke-linejoin:round;stroke-miterlimit:10"
         d="m 650.222,402.916 c 0.508,0.754 0.989,1.51 1.445,2.27 1.117,1.857 2.096,3.738 2.914,5.621 0.843,1.918 1.534,3.854 2.074,5.797 0.481,1.703 0.841,3.41 1.085,5.137 0.295,1.988 0.423,4.002 0.412,6.025 7.238,0.982 13.876,0.654 19.89,-0.979 -0.282,-2.834 -0.763,-5.592 -1.43,-8.271 -0.679,-2.744 -1.568,-5.408 -2.659,-7.986 -1.271,-2.994 -2.801,-5.873 -4.614,-8.637 -1.625,-2.479 -3.477,-4.865 -5.559,-7.154 -3.151,-3.5 -6.828,-6.762 -11.019,-9.807"
         id="path1129" />
      <path
         inkscape:connector-curvature="0"
         style="fill:#004498"
         d="m 645.643,467.812 c 0.291,-1.207 0.615,-2.412 0.985,-3.631 3.547,1.275 7.422,2.178 11.598,2.684 0.346,0.047 0.694,0.092 1.019,0.135 2.854,0.08 5.529,0.689 8.025,1.816 l -0.012,0.023 c -1.107,0.529 -2.127,1.16 -3.044,1.906 -0.627,0.506 -1.199,1.094 -1.724,1.746 -1.926,2.402 -3.112,5.75 -3.561,10.037 -3.134,-0.338 -6.313,-1.061 -9.549,-2.166 1.377,-6.053 0.135,-10.237 -3.737,-12.55 m 10.914,3.18 c -0.189,0.17 -0.213,0.373 -0.056,0.6 0.313,0.225 0.627,0.371 0.951,0.449 0.214,0.047 0.493,-0.057 0.828,-0.303 1.579,-1.184 3.629,-2.436 6.124,-3.744 l -2.172,-0.316 c -2.428,1.15 -4.322,2.256 -5.675,3.314"
         id="path1131" />
      <path
         inkscape:connector-curvature="0"
         style="fill:#ffffff"
         d="m 656.501,471.592 c -0.157,-0.227 -0.134,-0.43 0.056,-0.6 1.354,-1.059 3.247,-2.164 5.676,-3.314 l 2.172,0.316 c -2.495,1.309 -4.545,2.561 -6.124,3.744 -0.335,0.246 -0.614,0.35 -0.828,0.303 -0.325,-0.078 -0.639,-0.225 -0.952,-0.449"
         id="path1133" />
      <path
         inkscape:connector-curvature="0"
         style="fill:#ffffff"
         d="m 649.381,480.363 c -1.265,-0.439 -2.541,-0.936 -3.817,-1.488 -1.152,-0.508 -1.579,-1.467 -1.286,-2.887 0.234,-2.684 0.694,-5.412 1.365,-8.176 3.872,2.313 5.114,6.497 3.738,12.551"
         id="path1135" />
      <path
         inkscape:connector-curvature="0"
         style="fill:#ffffff"
         d="m 668.099,469.223 0.279,0.137 c 0.033,0.01 0.078,0.031 0.112,0.055 0.077,0.045 0.168,0.092 0.245,0.137 l 0.09,0.045 c 0.135,0.078 0.269,0.158 0.404,0.236 0.86,0.529 1.645,1.16 2.35,1.895 0.123,0.123 0.235,0.258 0.359,0.395 1.308,1.521 1.812,3.123 1.533,4.803 -0.336,1.975 -1.68,3.486 -4.019,4.523 -2.037,0.891 -4.3,1.33 -6.785,1.307 -1.241,-0.012 -2.484,-0.09 -3.739,-0.225 0.449,-4.287 1.636,-7.635 3.561,-10.037 0.526,-0.652 1.098,-1.24 1.725,-1.746 0.917,-0.746 1.937,-1.377 3.044,-1.906 0.291,0.121 0.572,0.246 0.841,0.381"
         id="path1137" />
      <path
         inkscape:connector-curvature="0"
         style="fill:none;stroke:#003c90;stroke-width:1.79750001;stroke-linecap:round;stroke-linejoin:round;stroke-miterlimit:10"
         d="m 646.628,464.182 c 3.546,1.275 7.422,2.178 11.598,2.684 0.346,0.047 0.694,0.092 1.019,0.135 2.854,0.08 5.529,0.689 8.025,1.816 0.28,0.125 0.561,0.26 0.829,0.406 l 0.278,0.137 c 0.034,0.01 0.079,0.031 0.113,0.055 0.078,0.045 0.168,0.092 0.246,0.137 l 0.089,0.045 c 0.135,0.078 0.269,0.158 0.404,0.236 0.86,0.529 1.645,1.16 2.35,1.895 0.124,0.123 0.235,0.258 0.358,0.395 1.309,1.521 1.813,3.123 1.534,4.803 -0.336,1.975 -1.68,3.486 -4.019,4.521 -2.039,0.893 -4.3,1.332 -6.785,1.309 -1.241,-0.012 -2.484,-0.09 -3.738,-0.225 -3.134,-0.338 -6.313,-1.061 -9.549,-2.166 -1.265,-0.439 -2.541,-0.936 -3.817,-1.488 -1.153,-0.508 -1.579,-1.467 -1.286,-2.887 0.234,-2.684 0.694,-5.412 1.365,-8.174 0.292,-1.211 0.616,-2.416 0.986,-3.634 z"
         id="path1139" />
      <path
         inkscape:connector-curvature="0"
         style="fill:#4daa34"
         d="m 663.142,468.465 v -29.717 l -24.114,-0.844 c 1.089,10.488 2.572,20.488 4.449,29.982 5.109,1.563 11.657,1.749 19.665,0.579"
         id="path1141" />
      <path
         inkscape:connector-curvature="0"
         style="fill:none;stroke:#2e6d2d;stroke-width:1.85450006;stroke-linecap:square;stroke-miterlimit:10"
         d="m 663.142,438.748 -24.114,-0.844 c 1.089,10.488 2.572,20.488 4.449,29.98 5.109,1.564 11.657,1.75 19.665,0.58 v -29.716 z"
         id="path1143" />
      <path
         inkscape:connector-curvature="0"
         style="fill:#004498"
         d="m 626.072,470.568 c 0.299,-1.262 0.634,-2.523 1.015,-3.797 3.655,1.334 7.645,2.275 11.945,2.807 0.357,0.047 0.715,0.094 1.048,0.141 2.942,0.084 5.697,0.719 8.269,1.898 l -0.011,0.023 c -1.143,0.553 -2.192,1.213 -3.137,1.99 -0.646,0.531 -1.234,1.145 -1.775,1.828 -1.983,2.51 -3.206,6.01 -3.668,10.488 -3.228,-0.354 -6.503,-1.107 -9.835,-2.262 1.418,-6.327 0.139,-10.7 -3.851,-13.116 m 11.242,3.323 c -0.196,0.178 -0.22,0.389 -0.058,0.625 0.322,0.234 0.646,0.389 0.979,0.471 0.22,0.047 0.507,-0.059 0.854,-0.316 1.626,-1.238 3.735,-2.547 6.307,-3.914 l -2.235,-0.33 c -2.504,1.202 -4.452,2.356 -5.847,3.464"
         id="path1145" />
      <path
         inkscape:connector-curvature="0"
         style="fill:#ffffff"
         d="m 637.257,474.516 c -0.162,-0.236 -0.139,-0.447 0.058,-0.625 1.395,-1.107 3.343,-2.262 5.847,-3.465 l 2.235,0.33 c -2.571,1.367 -4.681,2.676 -6.307,3.914 -0.347,0.258 -0.634,0.363 -0.854,0.316 -0.334,-0.082 -0.657,-0.236 -0.979,-0.47"
         id="path1147" />
      <path
         inkscape:connector-curvature="0"
         style="fill:#ffffff"
         d="m 629.923,483.686 c -1.303,-0.461 -2.616,-0.979 -3.932,-1.557 -1.188,-0.529 -1.626,-1.531 -1.326,-3.016 0.242,-2.807 0.715,-5.658 1.407,-8.545 3.99,2.416 5.269,6.789 3.851,13.118"
         id="path1149" />
      <path
         inkscape:connector-curvature="0"
         style="fill:#ffffff"
         d="m 649.201,472.041 0.289,0.141 c 0.035,0.012 0.081,0.037 0.114,0.059 0.081,0.047 0.175,0.096 0.255,0.143 l 0.092,0.047 c 0.139,0.082 0.276,0.164 0.414,0.248 0.89,0.553 1.695,1.213 2.423,1.98 0.127,0.129 0.242,0.27 0.368,0.412 1.349,1.592 1.869,3.264 1.58,5.021 -0.346,2.061 -1.73,3.641 -4.139,4.725 -2.1,0.932 -4.428,1.391 -6.988,1.367 -1.279,-0.012 -2.56,-0.094 -3.851,-0.236 0.461,-4.479 1.685,-7.979 3.667,-10.488 0.541,-0.684 1.129,-1.297 1.775,-1.828 0.944,-0.777 1.994,-1.438 3.138,-1.99 0.3,0.128 0.587,0.256 0.863,0.399"
         id="path1151" />
      <path
         inkscape:connector-curvature="0"
         style="fill:none;stroke:#003c90;stroke-width:1.86539996;stroke-linecap:round;stroke-linejoin:round;stroke-miterlimit:10"
         d="m 627.087,466.771 c 3.655,1.334 7.645,2.275 11.945,2.807 0.357,0.047 0.715,0.094 1.048,0.141 2.942,0.084 5.697,0.719 8.269,1.898 0.289,0.129 0.576,0.27 0.853,0.424 l 0.289,0.141 c 0.034,0.012 0.079,0.037 0.114,0.061 0.081,0.045 0.174,0.094 0.255,0.141 l 0.092,0.047 c 0.139,0.082 0.276,0.164 0.414,0.248 0.89,0.553 1.695,1.213 2.423,1.98 0.127,0.129 0.242,0.27 0.368,0.412 1.349,1.59 1.869,3.264 1.58,5.021 -0.346,2.061 -1.73,3.641 -4.139,4.727 -2.1,0.93 -4.428,1.389 -6.988,1.365 -1.279,-0.012 -2.56,-0.094 -3.851,-0.234 -3.229,-0.355 -6.504,-1.109 -9.836,-2.264 -1.303,-0.461 -2.618,-0.979 -3.932,-1.557 -1.188,-0.529 -1.626,-1.531 -1.326,-3.016 0.242,-2.807 0.715,-5.658 1.407,-8.545 0.299,-1.261 0.633,-2.523 1.015,-3.797 z"
         id="path1153" />
      <path
         inkscape:connector-curvature="0"
         style="fill:#4daa34"
         d="m 648.341,470.18 3.38,-43.553 -29.001,2.361 c 0.071,14.779 0.648,28.832 1.713,42.127 5.586,1.75 13.549,1.428 23.908,-0.935"
         id="path1155" />
      <path
         inkscape:connector-curvature="0"
         style="fill:none;stroke:#2e6d2d;stroke-width:2.63860011;stroke-linecap:square;stroke-miterlimit:10"
         d="m 651.721,426.627 -29.001,2.361 c 0.071,14.779 0.648,28.832 1.713,42.127 5.586,1.75 13.551,1.428 23.908,-0.936 l 3.38,-43.552 z"
         id="path1157" />
      <path
         inkscape:connector-curvature="0"
         style="fill:#4daa34"
         d="m 648.949,438.594 c -0.058,0.186 -0.116,0.406 -0.174,0.672 -0.197,0.811 -0.358,1.6 -0.475,2.354 -0.545,-0.648 -1.101,-1.217 -1.668,-1.715 -0.661,-0.568 -1.218,-0.916 -1.658,-1.066 -0.243,-0.07 -0.452,-0.082 -0.637,-0.045 -0.082,0.021 -0.162,0.057 -0.221,0.104 -0.476,0.289 -0.66,1.123 -0.533,2.49 0.012,0.105 0.174,0.463 0.488,1.102 0.37,0.754 0.764,1.461 1.192,2.121 0.405,0.66 0.799,1.217 1.171,1.656 -0.011,0.129 0,0.256 0.013,0.406 0.033,0.359 0.185,0.707 0.429,1.055 0.439,0.615 1.064,0.869 1.888,0.789 0.312,-0.035 0.602,-0.117 0.857,-0.256 0.267,0.115 0.545,0.197 0.834,0.244 l -0.013,-0.232 c 0.823,-0.047 1.797,-0.162 2.922,-0.336 0.324,-0.186 0.568,-0.406 0.718,-0.672 0.198,-0.359 0.313,-0.754 0.325,-1.184 -0.012,-0.752 -0.418,-1.344 -1.194,-1.785 -0.383,-0.23 -0.717,-0.404 -1.008,-0.52 0.416,-0.801 0.649,-1.855 0.707,-3.141 0.046,-0.824 0.012,-1.588 -0.104,-2.283 -0.034,-0.15 -0.058,-0.291 -0.093,-0.43 h -0.591 c -0.013,-0.059 -0.035,-0.127 -0.047,-0.186 -0.288,-1.008 -0.706,-1.541 -1.239,-1.611 -0.638,-0.057 -1.356,0.568 -2.156,1.879 -0.013,0.035 -0.034,0.092 -0.059,0.172 l 0.431,0.012 c -0.034,0.117 -0.071,0.255 -0.105,0.406"
         id="path1159" />
      <path
         inkscape:connector-curvature="0"
         style="fill:#2e6d2d"
         d="m 650.443,448.271 0.013,0.232 0.162,1.506 0.776,-0.023 c 1.078,-0.035 2.099,-0.221 3.048,-0.557 1.299,-0.637 2.063,-1.355 2.307,-2.154 -1.24,0.279 -2.376,0.498 -3.384,0.66 -1.125,0.174 -2.098,0.29 -2.922,0.336"
         id="path1161" />
      <path
         inkscape:connector-curvature="0"
         style="fill:#9ac843"
         d="m 658.521,385.656 -0.14,-5.4 -5.273,0.004 c 3.825,20.812 5.915,40.992 6.28,60.537 0.31,-0.08 0.606,-0.174 0.916,-0.266 1.661,-0.486 3.121,-1.088 4.361,-1.793 1.101,-18.174 -0.947,-35.859 -6.144,-53.082"
         id="path1163" />
      <path
         inkscape:connector-curvature="0"
         style="fill:#df6513"
         d="m 653.108,380.26 -6.76,0.004 c 3.282,23.088 4.854,43.762 4.712,62.027 0.69,-0.07 1.37,-0.15 2.037,-0.244 2.208,-0.303 4.309,-0.719 6.291,-1.25 -0.365,-19.545 -2.454,-39.725 -6.28,-60.537"
         id="path1165" />
      <path
         inkscape:connector-curvature="0"
         style="fill:#0e5cab"
         d="m 641.435,442.527 c 0.416,0.012 0.831,0.033 1.234,0.045 0.682,0.012 1.363,0.023 2.044,0.023 h 0.393 c 2.064,-0.014 4.047,-0.119 5.955,-0.305 0.142,-18.266 -1.43,-38.939 -4.712,-62.027 l -6.946,0.004 2.032,62.26 z"
         id="path1167" />
      <path
         inkscape:connector-curvature="0"
         style="fill:#9ac843"
         d="m 639.402,380.269 -7.015,0.004 c -2.088,22.907 -2.112,43.386 -0.078,61.454 1.008,0.125 2.015,0.252 2.997,0.355 1.957,0.207 3.852,0.355 5.7,0.434 0.138,0 0.275,0 0.428,0.012 l -2.032,-62.259 z"
         id="path1169" />
      <path
         inkscape:connector-curvature="0"
         style="fill:#df6513"
         d="m 632.388,380.272 -6.763,0.005 c -2.69,20.471 -3.352,40.457 -1.985,59.953 h -0.045 c 0.592,0.127 1.172,0.244 1.739,0.348 2.285,0.436 4.51,0.803 6.687,1.104 0.094,0.01 0.185,0.033 0.289,0.045 -2.035,-18.069 -2.01,-38.547 0.078,-61.455"
         id="path1171" />
      <path
         inkscape:connector-curvature="0"
         style="fill:#0e5cab"
         d="m 620.135,380.281 0.136,5.227 c -3.528,18.959 -4.568,36.717 -3.128,53.285 2.241,0.541 4.33,1.002 6.244,1.393 0.057,0.012 0.15,0.035 0.254,0.045 -1.367,-19.496 -0.706,-39.482 1.984,-59.953 l -5.49,0.003 z"
         id="path1173" />
      <path
         inkscape:connector-curvature="0"
         style="fill:none;stroke:#003c90;stroke-width:1.84640002;stroke-linecap:square;stroke-miterlimit:10"
         d="m 623.595,440.23 c 0.592,0.127 1.173,0.244 1.739,0.348 2.285,0.436 4.51,0.803 6.687,1.104 0.094,0.01 0.185,0.033 0.289,0.045 1.008,0.125 2.015,0.252 2.997,0.355 1.957,0.207 3.852,0.355 5.7,0.434 0.138,0 0.276,0 0.428,0.012 0.416,0.012 0.831,0.033 1.234,0.045 0.682,0.012 1.363,0.023 2.044,0.023 h 0.393 c 2.064,-0.014 4.047,-0.119 5.955,-0.305 0.69,-0.07 1.37,-0.152 2.037,-0.244 2.208,-0.303 4.309,-0.719 6.291,-1.25 0.31,-0.08 0.606,-0.174 0.916,-0.266 1.661,-0.486 3.121,-1.088 4.361,-1.793 1.1,-18.174 -0.948,-35.859 -6.145,-53.082 l -0.14,-5.4 -5.273,0.004 -6.76,0.004 -6.946,0.005 -7.015,0.004 -6.763,0.004 -5.49,0.005 0.136,5.227 c -3.528,18.959 -4.568,36.717 -3.128,53.285 2.241,0.541 4.33,1.002 6.244,1.393 0.057,0.012 0.15,0.035 0.254,0.045"
         id="path1175" />
      <path
         inkscape:connector-curvature="0"
         style="fill:#ffffff"
         d="m 649.347,405.75 c 3.416,-6.209 6.12,-12.811 8.12,-19.805 l -20.953,2.24 c 5.048,5.651 9.332,11.51 12.833,17.565"
         id="path1177" />
      <path
         inkscape:connector-curvature="0"
         style="fill:#e06a06"
         d="m 614.061,448.715 c 0.068,-0.043 0.135,-0.084 0.188,-0.133 2.021,-1.732 3.105,-5.094 3.222,-10.098 1.336,1.242 2.772,1.793 4.289,1.664 0.047,-0.01 0.093,-0.018 0.139,-0.025 2.017,-0.402 2.927,-1.762 2.709,-4.061 -0.174,-1.895 -0.93,-3.756 -2.264,-5.557 -1.172,-1.6 -2.681,-3.148 -4.538,-4.668 l 1.185,-4.336 c 0.042,-0.158 0.04,-0.305 0.006,-0.463 -0.044,-0.154 -0.118,-0.295 -0.231,-0.406 -2.599,-2.689 -6.042,-4.01 -10.332,-3.973 -0.184,0.006 -0.358,0.059 -0.521,0.168 -0.151,0.105 -0.258,0.254 -0.317,0.43 l -1.43,3.812 c -2.804,1.758 -4.567,3.76 -5.262,6.018 -5.345,3.633 -7.397,6.795 -6.158,9.469 0.045,0.127 0.122,0.244 0.224,0.334 1.524,1.469 3.385,1.832 5.594,1.107 -0.312,0.5 -0.571,1.336 -0.776,2.518 -0.483,1.643 -0.539,3.307 -0.152,4.982 0.325,1.482 1.244,2.264 2.759,2.346 l 0.015,0.008 c 1.907,0.129 3.479,-0.607 4.707,-2.223 0.479,-0.623 0.924,-1.268 1.364,-1.924 0.057,0.992 0.186,1.867 0.364,2.631 0.361,1.477 0.99,2.389 1.894,2.742 0.855,0.452 1.965,0.329 3.322,-0.362 m -0.936,-1.57 c -0.67,0.338 -1.213,0.43 -1.636,0.283 -0.387,-0.225 -0.697,-0.645 -0.924,-1.264 -0.985,-2.688 -1.385,-5.34 -1.178,-7.963 -0.517,0.316 -0.837,1.041 -0.975,2.156 -0.12,0.203 -0.203,0.352 -0.262,0.441 l -0.006,0.016 c -0.753,1.289 -1.579,2.527 -2.476,3.719 -0.819,1.086 -1.872,1.592 -3.151,1.504 l -0.012,0.006 c -0.385,-0.027 -0.666,-0.162 -0.864,-0.408 -0.091,-0.121 -0.167,-0.262 -0.209,-0.441 -0.396,-0.916 -0.498,-1.9 -0.315,-2.963 0.261,-2.287 1.033,-4.705 2.329,-7.229 -0.623,0.189 -1.105,0.416 -1.457,0.686 -1.067,0.363 -2.198,0.582 -3.396,0.68 -0.849,0.02 -1.584,-0.213 -2.228,-0.682 -0.477,-1.936 1.463,-4.352 5.82,-7.271 0.193,-0.123 0.312,-0.301 0.375,-0.527 0.582,-2.033 2.186,-3.84 4.813,-5.432 0.188,-0.109 0.307,-0.262 0.381,-0.457 l 1.303,-3.508 c 3.261,0.074 5.936,1.092 8.035,3.047 l -1.195,4.393 c -0.044,0.18 -0.042,0.354 0.011,0.529 0.064,0.17 0.164,0.311 0.301,0.424 1.932,1.521 3.486,3.088 4.674,4.695 1.123,1.521 1.765,3.072 1.912,4.658 0.101,1.145 -0.306,1.848 -1.236,2.102 -0.462,0.02 -0.92,-0.062 -1.358,-0.238 -0.195,-0.076 -0.383,-0.164 -0.567,-0.27 -0.322,-0.166 -0.626,-0.379 -0.906,-0.615 -0.566,-0.467 -1.082,-0.98 -1.559,-1.551 -0.355,-0.436 -0.749,-0.844 -1.164,-1.244 -0.252,1.242 -0.378,1.881 -0.354,1.908 0.141,5.409 -0.7,9.011 -2.526,10.816"
         id="path1179" />
      <path
         inkscape:connector-curvature="0"
         style="fill:#fcdf00"
         d="m 611.489,447.428 c 0.423,0.146 0.966,0.055 1.636,-0.283 1.826,-1.805 2.667,-5.406 2.527,-10.816 -0.024,-0.027 0.102,-0.666 0.354,-1.908 0.414,0.4 0.809,0.809 1.164,1.244 0.477,0.57 0.992,1.084 1.559,1.551 0.28,0.236 0.584,0.447 0.906,0.615 0.185,0.105 0.372,0.193 0.567,0.27 0.438,0.176 0.896,0.258 1.358,0.238 0.931,-0.254 1.337,-0.957 1.236,-2.102 -0.147,-1.586 -0.789,-3.137 -1.912,-4.658 -1.188,-1.607 -2.742,-3.174 -4.674,-4.695 -0.137,-0.113 -0.236,-0.254 -0.301,-0.424 -0.053,-0.176 -0.055,-0.35 -0.011,-0.529 l 1.195,-4.393 c -2.1,-1.955 -4.774,-2.973 -8.035,-3.047 l -1.303,3.508 c -0.074,0.195 -0.193,0.348 -0.381,0.457 -2.628,1.592 -4.231,3.398 -4.813,5.432 -0.062,0.227 -0.182,0.404 -0.375,0.527 -4.357,2.92 -6.297,5.336 -5.82,7.27 0.644,0.471 1.379,0.703 2.228,0.684 1.197,-0.098 2.328,-0.316 3.396,-0.68 0.352,-0.27 0.834,-0.496 1.457,-0.686 -1.296,2.523 -2.068,4.941 -2.329,7.229 -0.183,1.062 -0.08,2.045 0.315,2.963 0.042,0.18 0.118,0.32 0.209,0.441 0.198,0.246 0.479,0.381 0.864,0.408 l 0.012,-0.006 c 1.279,0.088 2.332,-0.418 3.151,-1.504 0.896,-1.191 1.723,-2.43 2.476,-3.719 l 0.006,-0.016 c 0.059,-0.09 0.142,-0.238 0.262,-0.441 0.138,-1.115 0.458,-1.84 0.975,-2.156 -0.207,2.623 0.192,5.275 1.178,7.963 0.226,0.618 0.537,1.038 0.923,1.263"
         id="path1181" />
      <path
         inkscape:connector-curvature="0"
         style="fill:#30479b"
         d="m 599.625,445.477 c 0.004,0.012 0.004,0.012 0.008,0.021 l -0.008,-0.021 z"
         id="path1183" />
      <path
         inkscape:connector-curvature="0"
         style="fill:#df6513"
         d="m 627.928,401.711 0.507,-1.826 c 1.854,-4.023 0.921,-9.006 -2.795,-14.936 -4.166,3.098 -7.812,6.409 -10.935,9.952 l 12.258,10.334 c 0.448,-0.766 0.923,-1.529 1.423,-2.289 l -0.458,-1.235 z"
         id="path1185" />
      <path
         inkscape:connector-curvature="0"
         style="fill:#0e5cab"
         d="m 622.09,416.736 c 0.522,-1.953 1.191,-3.902 2.015,-5.832 l -14.891,-8.771 c -1.786,2.789 -3.286,5.693 -4.526,8.709 l 17.402,5.894 z"
         id="path1187" />
      <path
         inkscape:connector-curvature="0"
         style="fill:#9ac843"
         d="m 624.104,410.904 c 0.799,-1.898 1.757,-3.795 2.858,-5.67 L 614.705,394.9 c -2.061,2.316 -3.89,4.732 -5.491,7.232 l 14.89,8.772 z"
         id="path1189" />
      <path
         inkscape:connector-curvature="0"
         style="fill:#9ac843"
         d="m 621.062,421.896 c 0.223,-1.734 0.563,-3.449 1.027,-5.16 l -17.402,-5.895 c -1.065,2.594 -1.93,5.275 -2.578,8.033 l 18.953,3.022 z"
         id="path1191" />
      <path
         inkscape:connector-curvature="0"
         style="fill:#df6513"
         d="m 602.109,418.875 c -0.637,2.693 -1.088,5.463 -1.341,8.307 6.047,1.568 12.702,1.822 19.945,0.758 -0.031,-2.027 0.074,-4.047 0.349,-6.043 l -18.953,-3.022 z"
         id="path1193" />
      <path
         inkscape:connector-curvature="0"
         style="fill:none;stroke:#003c90;stroke-width:1.83350003;stroke-linecap:square;stroke-linejoin:round;stroke-miterlimit:10"
         d="m 628.386,402.945 c -0.5,0.762 -0.976,1.523 -1.423,2.289 -1.102,1.875 -2.06,3.771 -2.858,5.67 -0.823,1.93 -1.492,3.879 -2.015,5.832 -0.464,1.711 -0.805,3.426 -1.027,5.16 -0.274,1.996 -0.38,4.016 -0.349,6.043 -7.243,1.064 -13.899,0.811 -19.945,-0.758 0.253,-2.844 0.704,-5.613 1.341,-8.307 0.648,-2.758 1.513,-5.439 2.578,-8.033 1.24,-3.016 2.74,-5.92 4.526,-8.709 1.602,-2.5 3.43,-4.916 5.491,-7.232 3.122,-3.543 6.769,-6.854 10.935,-9.952"
         id="path1195" />
      <path
         inkscape:connector-curvature="0"
         style="fill:#ffffff"
         d="m 656.713,391.211 c 0.52,-0.219 1.015,-0.439 1.513,-0.658 0.519,-0.232 1.025,-0.498 1.498,-0.799 0.347,-0.207 0.669,-0.438 0.969,-0.705 0.046,-0.057 0.092,-0.113 0.149,-0.172 0.496,-0.496 0.888,-1.062 1.199,-1.674 0.196,-0.381 0.379,-0.75 0.541,-1.131 v -0.012 c 0.207,-0.748 0.333,-1.616 0.392,-2.594 0.251,-2.459 0.192,-4.733 -0.178,-6.833 l -43.508,0.028 c -0.034,0.289 -0.058,0.578 -0.069,0.866 -0.126,2.331 0.142,4.87 0.825,7.614 0.611,1.881 1.489,3.148 2.655,3.807 0.771,0.449 1.453,0.818 2.02,1.117 0.382,0.186 0.773,0.359 1.165,0.529 0.924,0.393 1.883,0.738 2.874,1.025 1.062,0.312 2.123,0.588 3.196,0.818 1.05,0.24 2.123,0.426 3.196,0.562 2.041,0.299 4.084,0.482 6.127,0.561 0.82,0.023 1.627,0.033 2.447,0.023 0.299,-0.012 0.599,-0.012 0.91,-0.014 0.843,-0.045 1.696,-0.094 2.55,-0.129 1.165,-0.08 2.341,-0.232 3.507,-0.463 0.381,-0.082 0.762,-0.174 1.142,-0.256 1.649,-0.377 3.277,-0.873 4.88,-1.51"
         id="path1197" />
      <path
         inkscape:connector-curvature="0"
         style="fill:none;stroke:#003c90;stroke-width:1.84640002;stroke-linecap:round;stroke-linejoin:round;stroke-miterlimit:10"
         d="m 662.582,386.072 v -0.012 c 0.207,-0.748 0.333,-1.616 0.392,-2.596 0.251,-2.458 0.192,-4.731 -0.178,-6.831 l -43.508,0.028 c -0.034,0.289 -0.058,0.577 -0.069,0.867 -0.126,2.329 0.142,4.869 0.825,7.613 0.611,1.881 1.489,3.148 2.655,3.807 0.771,0.449 1.453,0.818 2.02,1.117 0.381,0.186 0.773,0.359 1.165,0.529 0.924,0.393 1.883,0.738 2.874,1.025 1.062,0.312 2.123,0.588 3.196,0.818 1.05,0.24 2.123,0.426 3.196,0.562 2.041,0.299 4.084,0.482 6.127,0.561 0.82,0.023 1.627,0.033 2.447,0.023 0.299,-0.012 0.599,-0.012 0.91,-0.014 0.843,-0.045 1.696,-0.094 2.55,-0.129 1.165,-0.08 2.341,-0.232 3.507,-0.463 0.381,-0.082 0.762,-0.174 1.142,-0.254 1.649,-0.383 3.278,-0.879 4.88,-1.516 0.52,-0.219 1.015,-0.439 1.513,-0.658 0.519,-0.232 1.025,-0.498 1.498,-0.797 0.347,-0.209 0.669,-0.439 0.969,-0.705 m -10e-4,0.004 c 0.046,-0.059 0.092,-0.115 0.149,-0.174 0.496,-0.496 0.888,-1.062 1.198,-1.674 0.197,-0.381 0.38,-0.75 0.542,-1.131 m -1.889,2.979 c 0.22,-0.174 0.427,-0.369 0.623,-0.576 0.564,-0.59 0.979,-1.398 1.267,-2.402"
         id="path1199" />
      <path
         inkscape:connector-curvature="0"
         style="fill:#fcdf00"
         d="m 647.289,302.62 -0.013,0.092 c -0.082,-0.037 -0.149,-0.086 -0.229,-0.123 -0.536,-0.259 -1.169,-0.395 -1.91,-0.383 -0.719,0 -1.349,0.131 -1.901,0.392 l -0.054,-0.175 c -6.76,0.196 -12.883,3.793 -18.348,10.782 -0.035,0.034 -0.061,0.08 -0.096,0.113 -4.726,5.566 -8.193,12.013 -10.414,19.324 -0.271,0.954 -0.546,1.907 -0.795,2.861 -0.092,0.355 -0.184,0.712 -0.276,1.069 -0.331,1.345 -0.64,2.69 -0.912,4.026 -0.055,0.253 -0.109,0.506 -0.152,0.771 -0.749,4.009 -1.152,7.981 -1.205,11.917 0.069,2.632 0.323,5.294 0.771,7.995 0.136,0.862 0.306,1.713 0.513,2.542 0.019,0.104 0.039,0.198 0.071,0.303 1.231,4.73 3.602,8.963 7.089,12.675 5.422,5.578 13.095,8.436 23.03,8.559 9.678,0.486 17.389,-1.891 23.146,-7.124 3.21,-3.015 5.588,-6.451 7.156,-10.307 -1.768,-0.564 -3.302,-1.898 -4.603,-3.991 v -0.01 l 1.01,-0.062 c 1.059,1.365 2.77,2.206 5.135,2.522 0.011,0.002 0.011,0.002 0.021,0.002 0.014,0 0.014,0 0.024,0 0.15,0.018 0.289,0.021 0.439,0.025 2.002,0.027 3.761,-1.019 5.252,-3.139 1.612,-2.301 2.464,-5.102 2.566,-8.4 0.103,-3.297 -0.573,-6.146 -2.041,-8.544 -1.354,-2.208 -3.044,-3.361 -5.045,-3.458 -0.197,-0.007 -0.394,-0.002 -0.592,0.027 h -0.013 c -1.728,0.085 -3.117,0.448 -4.146,1.087 -0.093,-0.709 1.223,-1.688 3.938,-2.936 -0.123,-0.861 -0.271,-1.723 -0.44,-2.585 -0.071,-0.362 -0.141,-0.724 -0.21,-1.085 -0.19,-0.967 -0.403,-1.936 -0.629,-2.903 -1.937,-7.022 -4.996,-13.675 -9.18,-19.933 -0.033,-0.036 -0.056,-0.083 -0.09,-0.119 -4.828,-7.031 -10.453,-10.971 -16.867,-11.807"
         id="path1201" />
      <path
         inkscape:connector-curvature="0"
         style="fill:#e06a06"
         d="m 684.458,354.933 c 0.115,-3.704 -0.654,-6.891 -2.31,-9.571 -1.753,-2.847 -3.944,-4.292 -6.572,-4.34 -0.277,-0.009 -0.557,0.005 -0.835,0.032 -0.011,0 -0.022,0 -0.034,-10e-4 -2.715,1.248 -4.03,2.227 -3.938,2.936 1.028,-0.64 2.418,-1.002 4.146,-1.087 h 0.013 c 0.198,-0.03 0.395,-0.034 0.592,-0.027 1.999,0.097 3.69,1.25 5.045,3.458 1.468,2.398 2.144,5.246 2.041,8.544 -0.103,3.298 -0.954,6.099 -2.566,8.4 -1.491,2.12 -3.25,3.166 -5.252,3.139 -0.151,-0.005 -0.289,-0.008 -0.439,-0.025 -0.011,0 -0.011,0 -0.024,0 -0.011,0 -0.011,0 -0.021,-0.002 -2.365,-0.316 -4.077,-1.157 -5.135,-2.522 l -1.01,0.062 v 0.01 c 1.301,2.093 2.834,3.427 4.603,3.991 h 0.011 c 0.011,0.012 0.023,0.013 0.034,0.013 0.608,0.192 1.253,0.305 1.925,0.326 2.625,0.117 4.903,-1.19 6.83,-3.923 1.813,-2.576 2.78,-5.709 2.896,-9.413"
         id="path1203" />
      <path
         inkscape:connector-curvature="0"
         style="fill:#fcdf00"
         d="m 609.294,343.941 c -1.703,2.264 -2.612,5.028 -2.713,8.292 -0.103,3.264 0.634,6.08 2.193,8.444 1.005,1.526 2.178,2.57 3.493,3.145 -0.207,-0.83 -0.377,-1.68 -0.513,-2.542 -0.448,-2.7 -0.702,-5.362 -0.771,-7.994 0.053,-3.937 0.456,-7.91 1.205,-11.918 -1.047,0.547 -2.012,1.408 -2.894,2.573"
         id="path1205" />
      <path
         inkscape:connector-curvature="0"
         style="fill:none;stroke:#e06a06;stroke-width:1.85249996;stroke-linecap:round;stroke-linejoin:round;stroke-miterlimit:10"
         d="m 647.047,302.589 c 0.081,0.014 0.161,0.016 0.242,0.029 6.414,0.837 12.039,4.778 16.869,11.808 0.034,0.036 0.057,0.083 0.09,0.12 4.184,6.258 7.243,12.911 9.18,19.933 0.226,0.968 0.438,1.938 0.629,2.904 0.069,0.36 0.139,0.722 0.209,1.084 0.17,0.862 0.318,1.724 0.441,2.584 m -62.439,22.77 c 0.019,0.104 0.039,0.198 0.071,0.303 1.231,4.73 3.602,8.963 7.089,12.675 5.422,5.577 13.095,8.436 23.03,8.559 9.679,0.486 17.389,-1.891 23.146,-7.123 3.21,-3.017 5.588,-6.452 7.156,-10.308 m -29.578,-65.504 c -6.76,0.194 -12.883,3.792 -18.348,10.781 -0.035,0.034 -0.061,0.08 -0.096,0.113 -4.726,5.565 -8.193,12.013 -10.414,19.324 -0.271,0.954 -0.546,1.907 -0.793,2.861 -0.094,0.355 -0.186,0.712 -0.278,1.069 -0.331,1.344 -0.64,2.69 -0.912,4.025 -0.055,0.253 -0.11,0.507 -0.152,0.771 m -10e-4,0 c -1.048,0.547 -2.013,1.409 -2.895,2.574 -1.703,2.264 -2.612,5.028 -2.713,8.292 -0.103,3.264 0.634,6.079 2.193,8.444 1.005,1.526 2.178,2.57 3.493,3.145 m -0.078,-22.455 c -0.749,4.008 -1.152,7.981 -1.205,11.918 0.069,2.633 0.323,5.294 0.771,7.994 0.136,0.862 0.308,1.712 0.513,2.542"
         id="path1207" />
      <path
         inkscape:connector-curvature="0"
         style="fill:#282525"
         d="m 650.702,281.896 c -1.801,0.917 -3.127,1.849 -3.967,2.796 -0.325,0.418 -0.629,0.826 -0.885,1.201 -0.468,-0.583 -1.01,-1.387 -1.615,-2.414 -0.805,-1.356 -1.359,-2.857 -1.644,-4.522 -0.132,-1.349 -0.204,-2.01 -0.239,-2 -0.83,0.252 -1.623,0.796 -2.402,1.618 -1.558,1.631 -2.301,3.948 -2.22,6.951 0.012,1.483 0.185,2.983 0.509,4.487 -1.157,-0.406 -2.069,-0.84 -2.728,-1.312 -0.826,-0.616 -1.667,-1.871 -2.534,-3.785 -0.706,-1.517 -1.08,-2.537 -1.145,-3.048 -0.03,-0.14 -0.214,0.178 -0.551,0.956 -0.387,0.869 -0.671,1.798 -0.83,2.801 -0.478,3.101 0.337,5.942 2.424,8.509 0.19,0.227 0.445,0.582 0.767,1.066 -3.352,-0.66 -5.891,-2.048 -7.645,-4.175 -0.12,-0.224 -0.231,-0.008 -0.32,0.638 -0.08,0.693 -0.06,1.493 0.052,2.412 0.299,2.696 1.22,4.764 2.762,6.202 l 0.395,0.337 c -1.301,0.145 -2.609,0.116 -3.936,-0.076 -0.843,-0.108 -1.683,-0.32 -2.516,-0.658 -0.607,-0.25 -1.429,-0.647 -2.453,-1.188 -0.126,-0.097 0.56,0.957 2.043,3.146 1.198,1.739 2.143,3.008 2.837,3.794 0.035,-0.01 0.058,-0.009 0.092,-0.02 0,0.023 0,0.047 0.011,0.082 1.005,0.807 1.695,1.35 2.079,1.651 0.374,0.302 1.086,0.521 2.135,0.669 1.049,0.148 2.192,0.3 3.438,0.455 0.897,0.191 1.836,0.196 2.802,0.017 0.968,-0.189 1.883,-0.543 2.768,-1.049 0.407,0.719 1.05,1.295 1.927,1.729 0.765,0.382 1.649,0.619 2.677,0.709 0.819,0.118 1.644,0.085 2.473,-0.109 0.827,-0.195 1.648,-0.494 2.459,-0.896 2.957,1.761 6.009,2.365 9.153,1.814 2.154,-0.361 4.039,-0.999 5.655,-1.921 1.134,-0.347 2.836,-0.676 5.104,-0.965 2.268,-0.265 3.385,-0.416 3.34,-0.451 -0.868,-0.78 -1.86,-1.322 -2.998,-1.6 -0.942,-0.249 -2.097,-0.355 -3.478,-0.317 -0.602,-0.007 -1.229,0.066 -1.895,0.196 0.648,-0.35 1.253,-0.76 1.8,-1.241 1.202,-1.029 2.145,-2.286 2.841,-3.781 0.384,-0.811 0.904,-2.301 1.563,-4.493 -0.928,0.771 -1.983,1.606 -3.171,2.496 -2.406,1.791 -4.209,2.8 -5.41,3.029 -0.338,0.071 -0.896,0.134 -1.651,0.205 0.921,-2.046 1.646,-3.448 2.17,-4.22 0.569,-0.816 1.777,-2.03 3.611,-3.641 l 2.476,-2.147 c -0.83,-0.478 -1.876,-0.707 -3.129,-0.7 -1.123,0.011 -2.334,0.217 -3.609,0.629 0.575,-0.99 0.808,-2.558 0.68,-4.729 -0.13,-2.182 -0.25,-3.148 -0.385,-2.885 -0.509,1.062 -1.224,2.059 -2.121,2.993 -0.897,0.911 -1.895,1.667 -2.966,2.248 -0.778,0.439 -1.799,0.859 -3.076,1.271 0.033,-1.378 0.186,-2.578 0.484,-3.6 0.632,-2.077 1.597,-4.109 2.923,-6.095 0.324,-0.372 0.579,-0.747 0.765,-1.112 0.062,-0.102 -0.652,0.108 -2.164,0.628 -1.559,0.539 -2.732,1.011 -3.532,1.415"
         id="path1209" />
      <path
         inkscape:connector-curvature="0"
         style="fill:#d8272a"
         d="m 629.547,373.112 c -0.744,-0.036 -1.488,-0.062 -2.231,-0.087 -0.679,-0.022 -1.358,-0.055 -2.047,-0.089 -0.271,-0.002 -0.552,-0.005 -0.821,-0.018 0.267,-0.312 0.603,-0.527 1.01,-0.646 1.199,-0.37 2.447,-0.471 3.744,-0.302 1.025,0.027 2.051,0.054 3.087,0.082 1.315,0.042 2.63,0.096 3.945,0.149 0.992,0.037 1.974,0.074 2.954,0.1 0.885,0.033 1.769,0.075 2.649,0.131 0.98,0.06 1.972,0.12 2.951,0.181 0.722,0.047 1.444,0.083 2.154,0.13 1.013,0.062 2.012,0.135 3.013,0.206 0.421,0.021 0.829,0.053 1.249,0.097 0.902,0.058 1.806,0.147 2.704,0.285 1.045,0.063 1.888,0.453 2.537,1.168 -0.755,-0.037 -1.508,-0.086 -2.261,-0.135 -0.905,-0.056 -1.809,-0.112 -2.723,-0.181 -0.873,-0.055 -1.734,-0.109 -2.585,-0.163 -1.517,-0.109 -3.035,-0.196 -4.544,-0.259 -1.078,-0.043 -2.145,-0.095 -3.199,-0.17 -0.905,-0.045 -1.821,-0.09 -2.748,-0.137 -0.98,-0.036 -1.973,-0.074 -2.977,-0.111 -0.914,-0.046 -1.841,-0.091 -2.777,-0.125 -1.034,-0.028 -2.06,-0.067 -3.084,-0.106"
         id="path1211" />
      <path
         inkscape:connector-curvature="0"
         style="fill:#ffffff"
         d="m 618.84,338.194 c 0.09,-2.869 1.127,-5.282 3.099,-7.248 1.996,-1.965 4.342,-2.9 7.062,-2.815 2.72,0.084 5.003,1.163 6.873,3.248 1.847,2.084 2.731,4.557 2.642,7.427 -0.09,2.858 -1.125,5.27 -3.098,7.248 -1.997,1.966 -4.342,2.9 -7.062,2.815 -2.72,-0.084 -5.004,-1.163 -6.873,-3.248 -1.846,-2.095 -2.732,-4.567 -2.643,-7.427"
         id="path1213" />
      <path
         inkscape:connector-curvature="0"
         style="fill:#ffffff"
         d="m 642.564,338.933 c 0.09,-2.87 1.127,-5.282 3.1,-7.248 1.995,-1.966 4.341,-2.899 7.062,-2.816 2.719,0.084 5.002,1.164 6.872,3.249 1.87,2.085 2.754,4.557 2.664,7.427 -0.089,2.86 -1.126,5.271 -3.12,7.249 -1.997,1.965 -4.343,2.9 -7.062,2.815 -2.72,-0.084 -5.003,-1.163 -6.871,-3.248 -1.848,-2.097 -2.732,-4.57 -2.645,-7.428"
         id="path1215" />
      <path
         inkscape:connector-curvature="0"
         style="fill:#1c1616"
         d="m 652.634,336.812 c -0.913,-1.045 -2.021,-1.618 -3.35,-1.705 -1.328,-0.088 -2.486,0.335 -3.493,1.253 -0.986,0.944 -1.52,2.114 -1.587,3.513 -0.066,1.398 0.348,2.633 1.236,3.677 0.912,1.068 2.02,1.64 3.349,1.729 1.33,0.087 2.487,-0.334 3.495,-1.277 0.984,-0.92 1.517,-2.09 1.585,-3.49 0.068,-1.399 -0.348,-2.632 -1.235,-3.7"
         id="path1217" />
      <path
         inkscape:connector-curvature="0"
         style="fill:#1c1616"
         d="m 624.876,335.371 c 0.839,-0.973 1.828,-1.47 2.989,-1.48 1.162,-0.009 2.151,0.472 2.989,1.431 0.818,0.982 1.231,2.162 1.231,3.537 0,1.375 -0.413,2.561 -1.231,3.535 -0.838,0.996 -1.829,1.493 -2.99,1.502 -1.16,0.01 -2.15,-0.471 -2.988,-1.454 -0.817,-0.958 -1.23,-2.138 -1.23,-3.514 0,-1.376 0.413,-2.563 1.23,-3.557"
         id="path1219" />
      <path
         inkscape:connector-curvature="0"
         style="fill:none;stroke:#282525;stroke-width:4.66610003;stroke-linecap:round;stroke-miterlimit:10"
         d="m 661.304,324.943 c -14.408,-5.34 -26.893,-6.222 -37.474,-2.645"
         id="path1221" />
      <path
         inkscape:connector-curvature="0"
         style="fill:#e48300"
         d="m 627.442,366.235 c -2.142,-3.022 -3.154,-6.61 -3.024,-10.776 0.129,-4.166 1.363,-7.685 3.688,-10.543 2.349,-2.881 5.102,-4.267 8.284,-4.167 3.184,0.098 5.845,1.652 7.988,4.673 2.142,2.997 3.154,6.584 3.024,10.751 -0.13,4.167 -1.362,7.685 -3.688,10.565 -2.324,2.859 -5.08,4.245 -8.262,4.146 -3.182,-0.099 -5.843,-1.653 -8.01,-4.649"
         id="path1223" />
    </g>
  </g>
</svg>
