<?xml version="1.0" encoding="UTF-8" standalone="no"?>
<!-- Created with Inkscape (http://www.inkscape.org/) -->

<svg
   xmlns:dc="http://purl.org/dc/elements/1.1/"
   xmlns:cc="http://creativecommons.org/ns#"
   xmlns:rdf="http://www.w3.org/1999/02/22-rdf-syntax-ns#"
   xmlns:svg="http://www.w3.org/2000/svg"
   xmlns="http://www.w3.org/2000/svg"
   xmlns:sodipodi="http://sodipodi.sourceforge.net/DTD/sodipodi-0.dtd"
   xmlns:inkscape="http://www.inkscape.org/namespaces/inkscape"
   width="135.19504"
   height="231.08974"
   id="svg5696"
   version="1.1"
   inkscape:version="0.48.4 r9939"
   sodipodi:docname="bert7.svg">
  <defs
     id="defs5698" />
  <sodipodi:namedview
     id="base"
     pagecolor="#ffffff"
     bordercolor="#666666"
     borderopacity="1.0"
     inkscape:pageopacity="0.0"
     inkscape:pageshadow="2"
     inkscape:zoom="0.77472527"
     inkscape:cx="19.267972"
     inkscape:cy="107.35357"
     inkscape:current-layer="layer1"
     inkscape:document-units="px"
     showgrid="false"
     inkscape:window-width="942"
     inkscape:window-height="591"
     inkscape:window-x="412"
     inkscape:window-y="91"
     inkscape:window-maximized="0"
     fit-margin-top="0"
     fit-margin-left="0"
     fit-margin-right="0"
     fit-margin-bottom="0" />
  <metadata
     id="metadata5701">
    <rdf:RDF>
      <cc:Work
         rdf:about="">
        <dc:format>image/svg+xml</dc:format>
        <dc:type
           rdf:resource="http://purl.org/dc/dcmitype/StillImage" />
        <dc:title></dc:title>
      </cc:Work>
    </rdf:RDF>
  </metadata>
  <g
     id="layer1"
     inkscape:label="Layer 1"
     inkscape:groupmode="layer"
     transform="translate(-212.3618,38.629823)">
    <g
       transform="translate(-196.90467,-297.94625)"
       id="g2499">
      <path
         inkscape:connector-curvature="0"
         style="fill:#e60512"
         d="m 459.854,465.906 c -3.066,1.172 -6.145,2.367 -9.209,3.574 -4.595,1.838 -9.144,4.1 -13.625,6.814 -6.317,-4.156 -11.745,-3.965 -16.295,0.574 -1.556,1.525 -1.876,3.305 -0.949,5.328 1.631,3.555 4.508,5.611 8.625,6.176 8.665,1.213 16.881,0.053 24.67,-3.498 1.309,-0.594 2.559,-1.291 3.763,-2.082 -0.54,1.799 -0.145,3.348 1.177,4.66 4.393,1.258 7.275,-0.252 8.648,-4.516 1.397,-4.356 -0.872,-10.038 -6.805,-17.03"
         id="path2501" />
      <path
         inkscape:connector-curvature="0"
         style="fill:none;stroke:#3c3837;stroke-width:1.847;stroke-linecap:round;stroke-linejoin:round;stroke-miterlimit:10"
         d="m 457.746,487.369 c 0.092,0.037 0.184,0.061 0.265,0.084"
         id="path2503" />
      <path
         inkscape:connector-curvature="0"
         style="fill:none;stroke:#7f040b;stroke-width:1.847;stroke-linecap:round;stroke-linejoin:round;stroke-miterlimit:10"
         d="m 450.646,469.48 c -4.594,1.838 -9.144,4.1 -13.625,6.814 -6.317,-4.156 -11.745,-3.965 -16.294,0.574 -1.557,1.525 -1.877,3.305 -0.95,5.328 1.631,3.555 4.508,5.611 8.625,6.176 8.665,1.213 16.88,0.053 24.67,-3.498 1.309,-0.594 2.559,-1.291 3.763,-2.082 -0.54,1.799 -0.145,3.348 1.177,4.66 4.393,1.258 7.275,-0.252 8.647,-4.516 1.397,-4.357 -0.871,-10.039 -6.804,-17.031 -3.067,1.173 -6.143,2.368 -9.209,3.575 z"
         id="path2505" />
      <path
         inkscape:connector-curvature="0"
         style="fill:#9f2388"
         d="m 415.417,469.67 c -0.639,0.635 -0.966,1.404 -0.97,2.295 -0.005,0.889 0.314,1.664 0.946,2.299 0.586,0.594 1.287,0.924 2.107,0.971 0,0.07 0,0.141 0,0.207 -0.006,0.914 0.303,1.68 0.934,2.314 0.631,0.639 1.393,0.957 2.306,0.961 0.842,0.004 1.56,-0.268 2.173,-0.822 0.036,0.035 0.081,0.082 0.116,0.117 0.632,0.639 1.403,0.969 2.293,0.969 0.888,0.006 1.663,-0.312 2.303,-0.943 0.591,-0.588 0.906,-1.279 0.968,-2.074 0.059,-0.002 0.128,0.002 0.196,0.002 0.913,0.004 1.677,-0.305 2.314,-0.936 0.638,-0.633 0.955,-1.393 0.96,-2.305 0.003,-0.83 -0.259,-1.549 -0.798,-2.15 0.047,-0.047 0.093,-0.092 0.15,-0.15 0.638,-0.633 0.965,-1.402 0.971,-2.291 0.004,-0.893 -0.315,-1.666 -0.946,-2.303 -0.599,-0.605 -1.313,-0.922 -2.133,-0.959 0,-0.082 0,-0.162 10e-4,-0.244 0.005,-0.912 -0.303,-1.674 -0.934,-2.312 -0.632,-0.639 -1.392,-0.955 -2.305,-0.959 -0.831,-0.006 -1.548,0.27 -2.151,0.809 -0.046,-0.059 -0.092,-0.105 -0.138,-0.15 -0.633,-0.639 -1.402,-0.967 -2.292,-0.971 -0.89,-0.004 -1.666,0.314 -2.304,0.947 -0.604,0.598 -0.918,1.301 -0.957,2.119 h -0.209 c -0.911,-0.006 -1.675,0.301 -2.312,0.934 -0.639,0.633 -0.954,1.393 -0.96,2.303 -0.003,0.844 0.271,1.561 0.833,2.178 -0.058,0.042 -0.103,0.087 -0.162,0.144"
         id="path2507" />
      <path
         inkscape:connector-curvature="0"
         style="fill:none;stroke:#59155b;stroke-width:1.847;stroke-linecap:round;stroke-linejoin:round;stroke-miterlimit:10"
         d="m 414.447,471.965 c -0.005,0.889 0.314,1.664 0.946,2.299 0.586,0.594 1.287,0.924 2.107,0.971 0,0.07 0,0.141 0,0.207 -0.006,0.914 0.303,1.68 0.935,2.314 0.632,0.639 1.392,0.957 2.304,0.961 0.844,0.004 1.561,-0.268 2.174,-0.822 0.036,0.035 0.082,0.082 0.116,0.117 0.632,0.639 1.403,0.969 2.293,0.969 0.888,0.006 1.663,-0.312 2.302,-0.943 0.592,-0.588 0.908,-1.279 0.969,-2.074 0.059,-0.002 0.128,0.002 0.196,0.002 0.913,0.004 1.677,-0.305 2.314,-0.936 0.638,-0.633 0.954,-1.393 0.96,-2.305 0.003,-0.83 -0.26,-1.549 -0.798,-2.15 0.046,-0.047 0.093,-0.092 0.15,-0.15 0.639,-0.633 0.965,-1.402 0.97,-2.291 0.005,-0.893 -0.314,-1.666 -0.946,-2.303 -0.598,-0.605 -1.311,-0.922 -2.132,-0.959 0,-0.082 0.002,-0.162 0.002,-0.244 0.005,-0.912 -0.304,-1.674 -0.935,-2.312 -0.632,-0.639 -1.392,-0.955 -2.305,-0.959 -0.831,-0.006 -1.547,0.27 -2.151,0.809 -0.046,-0.059 -0.092,-0.105 -0.138,-0.15 -0.632,-0.639 -1.403,-0.967 -2.292,-0.971 -0.89,-0.004 -1.666,0.314 -2.304,0.947 -0.604,0.598 -0.919,1.301 -0.957,2.119 h -0.208 c -0.913,-0.006 -1.676,0.301 -2.314,0.934 -0.638,0.633 -0.953,1.393 -0.959,2.303 -0.003,0.844 0.271,1.561 0.833,2.178 -0.059,0.045 -0.104,0.09 -0.163,0.146 -0.638,0.633 -0.965,1.402 -0.969,2.293 z"
         id="path2509" />
      <path
         inkscape:connector-curvature="0"
         style="fill:#42b035"
         d="m 453.927,452.412 c -0.184,-0.09 -0.368,-0.184 -0.553,-0.289 -0.725,-0.385 -1.393,-0.734 -1.992,-1.051 -0.141,0.473 -0.293,0.945 -0.469,1.42 -1.02,2.824 -2.325,5.424 -3.944,7.807 -0.476,0.68 -0.964,1.346 -1.477,2.002 -0.545,0.678 -1.114,1.344 -1.718,1.988 -0.104,0.102 -0.22,0.217 -0.324,0.334 -0.917,0.951 -1.903,1.871 -2.959,2.732 -0.313,0.264 -0.639,0.516 -0.974,0.779 0.413,0.477 0.838,0.941 1.275,1.367 0.286,0.281 0.574,0.547 0.861,0.814 0.747,0.674 1.529,1.277 2.346,1.822 0.081,0.059 0.149,0.107 0.23,0.166 0.079,0.059 0.171,0.105 0.265,0.162 2.323,1.455 4.916,2.439 7.767,2.926 3.114,0.549 6.14,0.658 9.061,0.312 2.312,-0.275 4.565,-0.83 6.752,-1.66 0.15,-0.057 0.312,-0.125 0.464,-0.184 0.219,-0.08 0.438,-0.17 0.659,-0.262 0.046,-0.037 0.092,-0.059 0.15,-0.066 0.08,-0.037 0.161,-0.082 0.242,-0.115 l 0.078,-15.137 c -2.607,-0.256 -5.501,-1.057 -8.67,-2.377 -0.414,-0.176 -0.841,-0.365 -1.269,-0.561 -1.415,-0.642 -3.348,-1.62 -5.801,-2.929 l 0,0 z m 2.882,5.42 c 0.769,0.779 1.157,1.727 1.151,2.838 -10e-4,0.346 -0.038,0.68 -0.12,0.99 -0.176,0.691 -0.526,1.303 -1.06,1.83 -0.777,0.77 -1.727,1.156 -2.835,1.15 -1.109,-0.006 -2.054,-0.398 -2.823,-1.18 -0.242,-0.242 -0.437,-0.496 -0.598,-0.766 -0.377,-0.613 -0.559,-1.295 -0.555,-2.068 0.008,-1.107 0.403,-2.053 1.182,-2.822 0.777,-0.77 1.726,-1.158 2.834,-1.154 1.11,0.01 2.054,0.405 2.824,1.182 m -7.995,9.949 c 0.126,-0.129 0.254,-0.23 0.383,-0.336 0.706,-0.549 1.517,-0.82 2.452,-0.816 1.107,0.004 2.051,0.4 2.821,1.18 0.7,0.707 1.089,1.564 1.152,2.557 v 0.277 c -0.007,1.107 -0.403,2.053 -1.182,2.822 -0.777,0.77 -1.727,1.158 -2.834,1.148 -1.11,-0.004 -2.053,-0.4 -2.822,-1.178 -0.771,-0.777 -1.158,-1.725 -1.152,-2.834 0.007,-1.107 0.403,-2.054 1.182,-2.82 m 11.626,-4.513 c 0.707,-0.586 1.552,-0.869 2.511,-0.865 1.107,0.004 2.053,0.404 2.822,1.18 0.77,0.779 1.157,1.727 1.15,2.834 -0.006,1.111 -0.402,2.055 -1.18,2.824 -0.778,0.769 -1.728,1.156 -2.836,1.152 -1.106,-0.006 -2.051,-0.404 -2.821,-1.182 -0.621,-0.627 -0.986,-1.357 -1.107,-2.186 -0.035,-0.211 -0.047,-0.43 -0.045,-0.648 0.008,-1.109 0.405,-2.053 1.182,-2.824 0.104,-0.102 0.207,-0.194 0.324,-0.285"
         id="path2511" />
      <path
         inkscape:connector-curvature="0"
         style="fill:#ece700"
         d="m 457.96,460.67 c 0.006,-1.111 -0.383,-2.059 -1.151,-2.838 -0.77,-0.777 -1.715,-1.172 -2.823,-1.182 -1.108,-0.004 -2.057,0.385 -2.834,1.154 -0.778,0.77 -1.175,1.715 -1.181,2.822 -0.005,0.773 0.177,1.455 0.554,2.068 0.161,0.27 0.355,0.523 0.598,0.766 0.77,0.779 1.713,1.174 2.824,1.18 1.107,0.006 2.057,-0.381 2.834,-1.15 0.533,-0.527 0.884,-1.139 1.06,-1.83 0.081,-0.31 0.118,-0.644 0.119,-0.99"
         id="path2513" />
      <path
         inkscape:connector-curvature="0"
         style="fill:#ece700"
         d="m 449.197,467.445 c -0.129,0.105 -0.257,0.207 -0.383,0.336 -0.779,0.766 -1.176,1.713 -1.182,2.82 -0.006,1.109 0.381,2.057 1.152,2.834 0.77,0.777 1.712,1.174 2.822,1.18 1.108,0.008 2.057,-0.381 2.834,-1.15 0.778,-0.77 1.175,-1.715 1.182,-2.822 v -0.277 c -0.063,-0.992 -0.452,-1.846 -1.152,-2.555 -0.769,-0.781 -1.714,-1.178 -2.821,-1.182 -0.935,-0.004 -1.746,0.266 -2.452,0.816"
         id="path2515" />
      <path
         inkscape:connector-curvature="0"
         style="fill:#ece700"
         d="m 462.95,462.402 c -0.958,-0.004 -1.803,0.279 -2.51,0.865 -0.117,0.092 -0.221,0.182 -0.324,0.285 -0.777,0.771 -1.175,1.715 -1.182,2.824 0,0.219 0.01,0.438 0.043,0.648 0.124,0.828 0.488,1.559 1.109,2.186 0.77,0.777 1.715,1.176 2.821,1.182 1.108,0.004 2.06,-0.383 2.836,-1.152 0.777,-0.77 1.174,-1.713 1.18,-2.824 0.006,-1.107 -0.381,-2.055 -1.15,-2.834 -0.769,-0.775 -1.714,-1.176 -2.823,-1.18"
         id="path2517" />
      <path
         inkscape:connector-curvature="0"
         style="fill:none;stroke:#10491d;stroke-width:1.847;stroke-linecap:round;stroke-linejoin:round;stroke-miterlimit:10"
         d="m 453.374,452.123 c -0.725,-0.385 -1.393,-0.734 -1.992,-1.051 -0.142,0.473 -0.295,0.945 -0.469,1.42 -1.02,2.824 -2.325,5.424 -3.944,7.807 -0.476,0.68 -0.963,1.346 -1.477,2.002 -0.545,0.678 -1.114,1.344 -1.718,1.988 -0.104,0.102 -0.221,0.217 -0.325,0.334 -0.916,0.951 -1.903,1.873 -2.958,2.732 -0.313,0.264 -0.638,0.516 -0.974,0.779 0.413,0.477 0.838,0.941 1.274,1.367 0.287,0.281 0.574,0.547 0.862,0.814 0.747,0.674 1.529,1.277 2.345,1.822 0.081,0.059 0.149,0.107 0.231,0.166 0.079,0.059 0.172,0.105 0.265,0.162 2.324,1.455 4.917,2.439 7.767,2.926 3.114,0.549 6.14,0.658 9.061,0.312 2.312,-0.275 4.566,-0.83 6.752,-1.66 0.15,-0.057 0.312,-0.125 0.463,-0.184 0.221,-0.08 0.439,-0.17 0.66,-0.262 0.046,-0.037 0.093,-0.059 0.149,-0.066 0.081,-0.037 0.162,-0.082 0.242,-0.115 l 0.079,-15.137 c -2.607,-0.258 -5.501,-1.057 -8.67,-2.377 -0.414,-0.176 -0.841,-0.365 -1.269,-0.561 -1.416,-0.645 -3.351,-1.623 -5.803,-2.932 -0.182,-0.087 -0.366,-0.18 -0.551,-0.286 z"
         id="path2519" />
      <path
         inkscape:connector-curvature="0"
         style="fill:#e60512"
         d="m 477.88,466.305 c 3.055,1.205 6.12,2.434 9.175,3.674 4.572,1.883 9.098,4.189 13.55,6.951 6.36,-4.09 11.786,-3.84 16.288,0.742 1.54,1.541 1.841,3.32 0.895,5.338 -1.668,3.535 -4.564,5.562 -8.689,6.09 -8.676,1.119 -16.879,-0.125 -24.63,-3.758 -1.303,-0.607 -2.546,-1.316 -3.741,-2.119 0.519,1.805 0.108,3.35 -1.224,4.645 -4.407,1.215 -7.274,-0.326 -8.603,-4.604 -1.352,-4.371 0.974,-10.028 6.979,-16.959"
         id="path2521" />
      <path
         inkscape:connector-curvature="0"
         style="fill:none;stroke:#3c3837;stroke-width:1.847;stroke-linecap:round;stroke-linejoin:round;stroke-miterlimit:10"
         d="m 479.768,487.789 c -0.092,0.035 -0.184,0.059 -0.266,0.078"
         id="path2523" />
      <path
         inkscape:connector-curvature="0"
         style="fill:none;stroke:#7f040b;stroke-width:1.847;stroke-linecap:round;stroke-linejoin:round;stroke-miterlimit:10"
         d="m 487.055,469.979 c 4.572,1.883 9.098,4.189 13.55,6.951 6.36,-4.09 11.786,-3.84 16.288,0.742 1.54,1.541 1.842,3.32 0.895,5.338 -1.668,3.535 -4.563,5.562 -8.689,6.088 -8.676,1.121 -16.879,-0.123 -24.63,-3.756 -1.301,-0.607 -2.546,-1.316 -3.741,-2.119 0.519,1.805 0.108,3.35 -1.224,4.645 -4.407,1.215 -7.274,-0.326 -8.603,-4.604 -1.352,-4.371 0.975,-10.027 6.979,-16.959 3.055,1.205 6.12,2.433 9.175,3.674 z"
         id="path2525" />
      <path
         inkscape:connector-curvature="0"
         style="fill:#9f2388"
         d="m 522.273,470.529 c 0.633,0.637 0.953,1.412 0.949,2.303 -0.006,0.889 -0.332,1.66 -0.971,2.293 -0.59,0.584 -1.299,0.902 -2.118,0.945 v 0.211 c -0.005,0.91 -0.32,1.668 -0.96,2.301 -0.639,0.633 -1.402,0.941 -2.314,0.936 -0.844,-0.004 -1.558,-0.287 -2.165,-0.842 -0.034,0.035 -0.082,0.082 -0.116,0.115 -0.641,0.631 -1.412,0.949 -2.302,0.945 -0.891,-0.002 -1.661,-0.33 -2.293,-0.969 -0.587,-0.594 -0.896,-1.287 -0.947,-2.082 -0.058,-0.004 -0.126,-0.004 -0.196,-0.004 -0.91,-0.002 -1.673,-0.318 -2.304,-0.959 -0.633,-0.637 -0.939,-1.4 -0.936,-2.314 0.006,-0.83 0.274,-1.545 0.82,-2.143 -0.045,-0.047 -0.092,-0.092 -0.148,-0.15 -0.634,-0.639 -0.954,-1.414 -0.947,-2.303 0.004,-0.889 0.332,-1.66 0.969,-2.293 0.606,-0.596 1.322,-0.906 2.143,-0.936 -0.003,-0.078 0,-0.16 0,-0.242 0.004,-0.91 0.32,-1.672 0.958,-2.303 0.641,-0.633 1.4,-0.941 2.313,-0.936 0.833,0.004 1.546,0.283 2.145,0.83 0.046,-0.057 0.09,-0.102 0.14,-0.152 0.639,-0.629 1.414,-0.947 2.301,-0.943 0.889,0.004 1.661,0.332 2.293,0.971 0.597,0.602 0.904,1.309 0.938,2.127 0.068,0 0.138,0.002 0.206,0.002 0.912,0.006 1.671,0.322 2.305,0.957 0.632,0.641 0.939,1.402 0.936,2.316 -0.005,0.842 -0.287,1.557 -0.855,2.166 0.054,0.048 0.102,0.095 0.156,0.153"
         id="path2527" />
      <path
         inkscape:connector-curvature="0"
         style="fill:none;stroke:#59155b;stroke-width:1.847;stroke-linecap:round;stroke-linejoin:round;stroke-miterlimit:10"
         d="m 523.223,472.832 c -0.006,0.889 -0.332,1.66 -0.971,2.293 -0.59,0.584 -1.299,0.902 -2.118,0.945 v 0.211 c -0.005,0.91 -0.32,1.668 -0.958,2.303 -0.641,0.633 -1.404,0.941 -2.316,0.934 -0.844,-0.004 -1.558,-0.287 -2.165,-0.842 -0.034,0.035 -0.082,0.082 -0.116,0.115 -0.638,0.631 -1.412,0.949 -2.302,0.945 -0.891,-0.002 -1.661,-0.33 -2.293,-0.969 -0.587,-0.592 -0.896,-1.287 -0.946,-2.082 -0.059,0 -0.127,-0.004 -0.197,-0.004 -0.911,-0.002 -1.673,-0.318 -2.304,-0.959 -0.633,-0.637 -0.939,-1.4 -0.936,-2.314 0.005,-0.83 0.274,-1.545 0.82,-2.143 -0.046,-0.047 -0.092,-0.092 -0.148,-0.15 -0.634,-0.639 -0.954,-1.414 -0.947,-2.303 0.003,-0.889 0.332,-1.66 0.969,-2.293 0.606,-0.598 1.321,-0.906 2.142,-0.936 -0.002,-0.078 0,-0.16 0,-0.242 0.006,-0.91 0.321,-1.672 0.959,-2.303 0.641,-0.633 1.4,-0.941 2.313,-0.936 0.833,0.002 1.546,0.283 2.145,0.83 0.046,-0.057 0.09,-0.102 0.14,-0.152 0.639,-0.629 1.414,-0.947 2.301,-0.943 0.889,0.004 1.661,0.332 2.293,0.971 0.597,0.602 0.905,1.309 0.938,2.127 0.067,0 0.138,0.002 0.206,0.002 0.912,0.006 1.671,0.322 2.305,0.957 0.632,0.641 0.939,1.402 0.936,2.316 -0.005,0.842 -0.287,1.557 -0.855,2.166 0.057,0.047 0.104,0.094 0.159,0.152 0.629,0.638 0.95,1.413 0.946,2.304 z"
         id="path2529" />
      <path
         inkscape:connector-curvature="0"
         style="fill:#42b035"
         d="m 487.258,452.555 c 0.186,-0.092 0.371,-0.184 0.556,-0.289 0.729,-0.375 1.4,-0.717 2.003,-1.027 0.134,0.477 0.282,0.949 0.455,1.424 0.987,2.832 2.27,5.451 3.859,7.848 0.473,0.684 0.952,1.357 1.458,2.016 0.539,0.684 1.1,1.355 1.698,2.006 0.103,0.105 0.218,0.223 0.322,0.338 0.907,0.963 1.882,1.893 2.931,2.764 0.31,0.266 0.631,0.521 0.962,0.791 -0.416,0.471 -0.846,0.93 -1.286,1.354 -0.291,0.277 -0.578,0.539 -0.87,0.803 -0.754,0.668 -1.544,1.262 -2.364,1.801 -0.081,0.059 -0.15,0.105 -0.231,0.162 -0.084,0.057 -0.174,0.104 -0.268,0.158 -2.341,1.434 -4.941,2.389 -7.796,2.846 -3.121,0.518 -6.146,0.596 -9.064,0.221 -2.308,-0.301 -4.558,-0.879 -6.734,-1.73 -0.151,-0.059 -0.312,-0.131 -0.462,-0.189 -0.217,-0.082 -0.438,-0.174 -0.655,-0.268 -0.047,-0.035 -0.093,-0.057 -0.151,-0.07 -0.08,-0.035 -0.16,-0.082 -0.241,-0.117 l 0.079,-15.137 c 2.611,-0.227 5.511,-1 8.695,-2.287 0.415,-0.17 0.844,-0.354 1.271,-0.549 1.423,-0.631 3.369,-1.59 5.833,-2.869 m -2.939,5.386 c -0.776,0.77 -1.174,1.715 -1.182,2.822 0,0.348 0.033,0.68 0.112,0.996 0.17,0.691 0.515,1.307 1.042,1.84 0.77,0.777 1.715,1.176 2.822,1.182 1.107,0.006 2.057,-0.383 2.834,-1.152 0.244,-0.242 0.442,-0.494 0.604,-0.76 0.383,-0.609 0.57,-1.289 0.575,-2.064 0.006,-1.107 -0.38,-2.057 -1.151,-2.834 -0.77,-0.775 -1.713,-1.172 -2.821,-1.18 -1.107,-0.006 -2.057,0.383 -2.835,1.15 m 7.892,10.028 c -0.126,-0.127 -0.251,-0.23 -0.377,-0.334 -0.704,-0.559 -1.508,-0.84 -2.444,-0.844 -1.108,-0.008 -2.059,0.381 -2.835,1.15 -0.709,0.699 -1.106,1.553 -1.181,2.545 -0.001,0.092 -0.001,0.184 -0.001,0.277 -0.006,1.107 0.381,2.055 1.153,2.836 0.77,0.777 1.711,1.176 2.82,1.18 1.111,0.008 2.058,-0.381 2.839,-1.152 0.774,-0.77 1.172,-1.713 1.176,-2.822 0.009,-1.11 -0.379,-2.057 -1.15,-2.836 m -11.579,-4.627 c -0.702,-0.598 -1.542,-0.891 -2.5,-0.896 -1.108,-0.002 -2.058,0.387 -2.835,1.154 -0.778,0.768 -1.176,1.715 -1.181,2.822 -0.006,1.109 0.383,2.057 1.151,2.834 0.77,0.777 1.712,1.176 2.821,1.182 1.108,0.004 2.06,-0.383 2.838,-1.15 0.626,-0.619 0.996,-1.346 1.132,-2.178 0.033,-0.209 0.046,-0.426 0.047,-0.646 0.005,-1.107 -0.382,-2.059 -1.15,-2.834 -0.103,-0.105 -0.208,-0.2 -0.323,-0.288"
         id="path2531" />
      <path
         inkscape:connector-curvature="0"
         style="fill:#ece700"
         d="m 483.138,460.764 c 0.008,-1.107 0.405,-2.053 1.182,-2.822 0.778,-0.768 1.728,-1.156 2.834,-1.15 1.11,0.006 2.054,0.404 2.823,1.18 0.769,0.777 1.157,1.727 1.151,2.834 -0.005,0.775 -0.192,1.455 -0.575,2.064 -0.164,0.266 -0.36,0.518 -0.604,0.76 -0.776,0.77 -1.726,1.158 -2.834,1.152 -1.107,-0.006 -2.053,-0.404 -2.823,-1.182 -0.528,-0.533 -0.871,-1.148 -1.041,-1.84 -0.08,-0.317 -0.113,-0.649 -0.113,-0.996"
         id="path2533" />
      <path
         inkscape:connector-curvature="0"
         style="fill:#ece700"
         d="m 491.834,467.635 c 0.126,0.102 0.251,0.207 0.377,0.334 0.771,0.779 1.159,1.727 1.15,2.836 -0.004,1.109 -0.401,2.053 -1.176,2.822 -0.781,0.771 -1.728,1.16 -2.839,1.152 -1.108,-0.004 -2.051,-0.404 -2.82,-1.18 -0.772,-0.781 -1.159,-1.729 -1.153,-2.836 0,-0.094 0,-0.186 0.001,-0.277 0.074,-0.992 0.472,-1.846 1.181,-2.545 0.776,-0.77 1.727,-1.158 2.835,-1.15 0.936,0.004 1.74,0.285 2.444,0.844"
         id="path2535" />
      <path
         inkscape:connector-curvature="0"
         style="fill:#ece700"
         d="m 478.132,462.445 c 0.958,0.006 1.798,0.299 2.501,0.893 0.115,0.092 0.219,0.188 0.322,0.291 0.769,0.775 1.155,1.725 1.15,2.834 -0.001,0.221 -0.014,0.438 -0.048,0.646 -0.134,0.832 -0.505,1.559 -1.136,2.178 -0.773,0.768 -1.725,1.154 -2.833,1.15 -1.109,-0.006 -2.053,-0.404 -2.821,-1.182 -0.768,-0.778 -1.158,-1.725 -1.151,-2.834 0.005,-1.107 0.402,-2.055 1.181,-2.822 0.777,-0.767 1.726,-1.156 2.835,-1.154"
         id="path2537" />
      <path
         inkscape:connector-curvature="0"
         style="fill:none;stroke:#10491d;stroke-width:1.847;stroke-linecap:round;stroke-linejoin:round;stroke-miterlimit:10"
         d="m 487.813,452.266 c 0.729,-0.375 1.4,-0.717 2.003,-1.027 0.134,0.477 0.282,0.949 0.455,1.424 0.987,2.832 2.27,5.451 3.859,7.848 0.473,0.684 0.952,1.357 1.458,2.016 0.539,0.684 1.1,1.355 1.698,2.006 0.103,0.105 0.218,0.223 0.322,0.338 0.906,0.963 1.881,1.893 2.931,2.764 0.31,0.266 0.631,0.521 0.962,0.791 -0.416,0.469 -0.846,0.93 -1.286,1.354 -0.291,0.275 -0.578,0.539 -0.87,0.803 -0.754,0.668 -1.544,1.262 -2.364,1.801 -0.081,0.059 -0.15,0.105 -0.233,0.162 -0.082,0.057 -0.172,0.104 -0.266,0.158 -2.341,1.434 -4.941,2.389 -7.796,2.846 -3.12,0.518 -6.146,0.596 -9.064,0.221 -2.308,-0.301 -4.558,-0.879 -6.734,-1.73 -0.151,-0.059 -0.312,-0.131 -0.462,-0.189 -0.217,-0.082 -0.438,-0.172 -0.655,-0.268 -0.048,-0.035 -0.093,-0.057 -0.151,-0.07 -0.081,-0.035 -0.16,-0.082 -0.241,-0.117 l 0.079,-15.137 c 2.61,-0.227 5.511,-1 8.695,-2.287 0.415,-0.17 0.844,-0.354 1.271,-0.549 1.425,-0.627 3.371,-1.586 5.835,-2.865 0.184,-0.096 0.37,-0.188 0.554,-0.293 z"
         id="path2539" />
      <rect
         x="464.164"
         y="442.742"
         transform="matrix(1,0.0052,-0.0052,1,2.3187,-2.4236)"
         style="fill:#4b9ad5"
         width="12.862"
         height="10.313"
         id="rect2541" />
      <path
         inkscape:connector-curvature="0"
         style="fill:#00416e"
         d="m 472.999,454.047 c 1.745,-0.35 3.215,-1.08 4.423,-2.207 -4.728,1.008 -9.139,1.074 -13.211,0.234 0.517,0.867 1.68,1.498 3.488,1.887 1.788,0.393 3.557,0.424 5.3,0.086"
         id="path2543" />
      <path
         inkscape:connector-curvature="0"
         style="fill:#e06906"
         d="m 534.091,364.821 c -0.08,-0.006 -0.161,-0.009 -0.237,0 -2.693,0.243 -5.575,2.393 -8.622,6.473 -0.377,-1.817 -1.242,-3.122 -2.578,-3.909 -0.043,-0.019 -0.086,-0.041 -0.127,-0.062 -1.912,-0.855 -3.467,-0.263 -4.64,1.771 -0.977,1.675 -1.445,3.663 -1.399,5.941 0.028,2.018 0.366,4.191 1.009,6.545 l -3.537,2.9 c -0.127,0.104 -0.213,0.227 -0.278,0.379 -0.055,0.155 -0.075,0.315 -0.048,0.471 0.571,3.764 2.646,6.891 6.225,9.387 0.156,0.105 0.332,0.162 0.532,0.17 0.187,0 0.363,-0.059 0.516,-0.17 l 3.434,-2.32 c 3.359,0.197 6.004,-0.424 7.909,-1.885 6.575,0.139 10.142,-1.273 10.689,-4.225 0.038,-0.131 0.044,-0.271 0.011,-0.404 -0.396,-2.12 -1.724,-3.517 -3.986,-4.219 0.556,-0.231 1.263,-0.769 2.133,-1.63 1.368,-1.073 2.394,-2.424 3.062,-4.041 0.604,-1.42 0.304,-2.609 -0.904,-3.571 l -0.006,-0.014 c -1.505,-1.231 -3.243,-1.548 -5.215,-0.932 -0.764,0.231 -1.514,0.504 -2.265,0.789 0.535,-0.856 0.944,-1.657 1.248,-2.396 0.571,-1.438 0.586,-2.563 0.048,-3.391 -0.448,-0.877 -1.444,-1.43 -2.974,-1.657 m -0.151,1.852 c 0.754,0.117 1.257,0.36 1.524,0.73 0.188,0.416 0.196,0.947 0.02,1.594 -0.767,2.81 -2.001,5.242 -3.722,7.297 0.615,0.041 1.311,-0.371 2.083,-1.218 0.219,-0.095 0.374,-0.169 0.477,-0.208 l 0.015,-0.01 c 1.385,-0.624 2.798,-1.165 4.246,-1.625 1.318,-0.417 2.489,-0.217 3.501,0.612 l 0.009,0.002 c 0.303,0.25 0.46,0.528 0.479,0.849 10e-4,0.155 -0.019,0.314 -0.089,0.488 -0.211,0.993 -0.707,1.87 -1.484,2.644 -1.563,1.742 -3.63,3.289 -6.19,4.621 0.626,0.209 1.159,0.305 1.61,0.291 1.099,0.326 2.167,0.811 3.217,1.436 0.712,0.486 1.187,1.112 1.442,1.881 -0.744,1.885 -3.773,2.744 -9.112,2.598 -0.233,-0.014 -0.435,0.064 -0.618,0.215 -1.686,1.344 -4.077,1.895 -7.199,1.666 -0.218,-0.02 -0.405,0.037 -0.581,0.154 l -3.151,2.143 c -2.658,-1.986 -4.275,-4.406 -4.862,-7.268 l 3.578,-2.936 c 0.143,-0.123 0.243,-0.267 0.304,-0.445 0.048,-0.178 0.046,-0.356 -0.002,-0.529 -0.703,-2.401 -1.066,-4.617 -1.108,-6.646 -0.032,-1.928 0.354,-3.589 1.162,-4.99 0.594,-1.01 1.344,-1.352 2.268,-1.014 0.394,0.256 0.724,0.594 0.985,0.999 0.117,0.176 0.221,0.361 0.312,0.557 0.168,0.327 0.297,0.685 0.387,1.043 0.196,0.723 0.32,1.452 0.381,2.205 0.063,0.789 0.187,1.577 0.371,2.359 0.186,0.658 0.457,1.35 0.817,2.068 l 0.439,0.795 c 0.476,-0.374 0.526,-1.375 0.146,-2.994 -0.089,-0.558 -0.124,-1.131 -0.11,-1.728 0.002,-0.059 -0.011,-0.109 -0.015,-0.157 3.071,-4.567 5.889,-7.057 8.47,-7.479"
         id="path2545" />
      <path
         inkscape:connector-curvature="0"
         style="fill:#fcdf00"
         d="m 535.465,367.403 c -0.267,-0.37 -0.771,-0.612 -1.524,-0.73 -2.581,0.422 -5.399,2.912 -8.474,7.479 0.004,0.049 0.017,0.1 0.015,0.157 -0.014,0.597 0.021,1.17 0.11,1.728 0.381,1.618 0.33,2.62 -0.146,2.994 l -0.439,-0.795 c -0.36,-0.719 -0.632,-1.41 -0.817,-2.068 -0.185,-0.781 -0.308,-1.57 -0.371,-2.36 -0.061,-0.752 -0.185,-1.481 -0.381,-2.204 -0.09,-0.358 -0.219,-0.715 -0.387,-1.043 -0.09,-0.196 -0.194,-0.381 -0.312,-0.557 -0.262,-0.405 -0.592,-0.744 -0.985,-1 -0.922,-0.339 -1.674,0.005 -2.268,1.015 -0.809,1.401 -1.194,3.064 -1.158,4.989 0.038,2.03 0.401,4.246 1.104,6.647 0.048,0.174 0.05,0.352 0.002,0.53 -0.061,0.177 -0.161,0.321 -0.304,0.444 l -3.578,2.936 c 0.587,2.861 2.204,5.281 4.861,7.266 l 3.152,-2.141 c 0.176,-0.117 0.363,-0.174 0.581,-0.154 3.122,0.229 5.514,-0.324 7.199,-1.666 0.184,-0.15 0.385,-0.229 0.618,-0.215 5.339,0.146 8.368,-0.713 9.113,-2.598 -0.257,-0.77 -0.731,-1.395 -1.442,-1.881 -1.051,-0.625 -2.119,-1.109 -3.218,-1.436 -0.451,0.014 -0.984,-0.082 -1.61,-0.291 2.561,-1.332 4.627,-2.878 6.19,-4.621 0.777,-0.774 1.273,-1.649 1.484,-2.644 0.07,-0.173 0.09,-0.334 0.089,-0.489 -0.019,-0.32 -0.176,-0.598 -0.479,-0.848 l -0.009,-0.002 c -1.012,-0.829 -2.183,-1.029 -3.501,-0.612 -1.448,0.46 -2.861,1.001 -4.246,1.626 l -0.015,0.008 c -0.103,0.04 -0.258,0.114 -0.477,0.21 -0.772,0.846 -1.468,1.257 -2.083,1.217 1.721,-2.055 2.953,-4.487 3.722,-7.297 0.18,-0.646 0.171,-1.18 -0.016,-1.594"
         id="path2547" />
      <path
         inkscape:connector-curvature="0"
         style="fill:#ffffff"
         d="m 521.021,380.955 c 0.209,-0.261 0.395,-0.479 0.547,-0.641 1.878,-1.919 3.83,-1.899 5.853,0.076 0.356,0.349 0.585,0.754 0.685,1.215 0.081,0.347 0.104,0.728 0.042,1.144 -0.109,0.877 -0.553,1.762 -1.33,2.672 -0.267,0.311 -0.57,0.631 -0.918,0.953 0.324,-0.01 0.624,-0.01 0.913,0.016 1.211,0.088 2.171,0.404 2.88,0.951 0.783,0.592 1.174,1.311 1.168,2.174 -0.002,0.129 -0.002,0.244 -0.014,0.371 -0.13,2.586 -1.486,3.873 -4.062,3.859 -0.473,-0.004 -1.188,-0.086 -2.133,-0.266 -0.083,-0.012 -0.174,-0.035 -0.255,-0.047 -0.009,-0.301 -0.031,-0.6 -0.076,-0.914 -0.014,-0.115 -0.021,-0.23 -0.043,-0.334 -0.492,-3.291 -1.738,-5.805 -3.728,-7.536 -0.285,-0.256 -0.597,-0.488 -0.931,-0.709 -0.128,-0.105 -0.264,-0.197 -0.415,-0.279 -0.713,-0.432 -1.495,-0.793 -2.352,-1.074 -0.988,-0.342 -1.97,-0.541 -2.948,-0.627 -0.169,-0.948 -0.246,-1.665 -0.245,-2.138 0.015,-2.701 1.441,-4.045 4.271,-4.031 0.866,0.006 1.579,0.402 2.161,1.19 0.701,0.926 1.008,2.256 0.93,3.975"
         id="path2549" />
      <path
         inkscape:connector-curvature="0"
         style="fill:none;stroke:#a0a0a1;stroke-width:1.847;stroke-linecap:round;stroke-linejoin:round;stroke-miterlimit:10"
         d="m 524.396,393.434 c 0.081,0.012 0.173,0.035 0.255,0.047 0.945,0.18 1.66,0.262 2.133,0.266 2.575,0.012 3.932,-1.273 4.062,-3.861 0.012,-0.125 0.012,-0.24 0.012,-0.369 0.008,-0.863 -0.383,-1.582 -1.166,-2.174 -0.709,-0.547 -1.669,-0.863 -2.88,-0.951 -0.289,-0.025 -0.589,-0.025 -0.912,-0.016 0.347,-0.322 0.65,-0.643 0.917,-0.953 0.777,-0.911 1.221,-1.795 1.33,-2.672 0.062,-0.417 0.039,-0.797 -0.042,-1.144 -0.1,-0.461 -0.328,-0.866 -0.685,-1.216 -2.022,-1.975 -3.975,-1.994 -5.855,-0.075 -0.149,0.159 -0.335,0.38 -0.544,0.641 0.078,-1.719 -0.229,-3.049 -0.929,-3.974 -0.582,-0.789 -1.297,-1.185 -2.161,-1.19 -2.829,-0.014 -4.257,1.33 -4.271,4.031 -0.002,0.473 0.075,1.189 0.244,2.138"
         id="path2551" />
      <path
         inkscape:connector-curvature="0"
         style="fill:#38449a"
         d="m 490.267,391.549 c 0.321,-0.08 0.656,-0.148 0.992,-0.215 5.098,-1.07 9.587,-3.15 13.473,-6.232 1.984,-1.575 3.996,-2.569 6.063,-2.972 1.029,-0.204 2.058,-0.256 3.109,-0.17 0.979,0.088 1.96,0.285 2.949,0.627 0.855,0.281 1.638,0.643 2.351,1.074 0.151,0.082 0.286,0.174 0.415,0.279 0.334,0.221 0.646,0.453 0.931,0.709 l -38.273,15.436 -0.067,-0.176 c 0.257,-4.893 2.788,-7.66 7.592,-8.307 0.152,-0.02 0.313,-0.047 0.465,-0.053"
         id="path2553" />
      <path
         inkscape:connector-curvature="0"
         style="fill:#54c1dd"
         d="m 482.207,400.119 0.069,-0.033 38.273,-15.436 c 1.989,1.731 3.235,4.245 3.728,7.536 0.022,0.104 0.029,0.219 0.042,0.334 l -36.722,14.809 c -0.254,-0.068 -0.508,-0.139 -0.75,-0.223 -3.099,-1.02 -4.646,-3.35 -4.64,-6.987"
         id="path2555" />
      <path
         inkscape:connector-curvature="0"
         style="fill:#ffffff"
         d="m 482.276,400.086 -0.069,0.033 c 0.002,-0.012 0,-0.023 0,-0.033 0.002,-0.059 0.004,-0.117 0.002,-0.176 l 0.067,0.176 z"
         id="path2557" />
      <path
         inkscape:connector-curvature="0"
         style="fill:#38449a"
         d="m 499.159,408.764 c -4.652,-0.072 -8.507,-0.555 -11.562,-1.436 l 36.723,-14.809 c 0.045,0.314 0.067,0.613 0.076,0.914 0.029,0.855 -0.054,1.674 -0.244,2.469 -0.79,3.311 -3.492,6.088 -8.089,8.363 -6.216,3.063 -11.858,4.557 -16.904,4.499"
         id="path2559" />
      <path
         inkscape:connector-curvature="0"
         style="fill:none;stroke:#181f6c;stroke-width:1.847;stroke-linecap:round;stroke-linejoin:round;stroke-miterlimit:10"
         d="m 490.267,391.549 c -0.151,0.006 -0.312,0.033 -0.466,0.055 -4.804,0.646 -7.335,3.414 -7.592,8.307 0.002,0.059 0,0.117 -0.002,0.176 0,0.012 0.002,0.021 0,0.033 -0.006,3.637 1.541,5.967 4.641,6.986 0.242,0.084 0.496,0.154 0.75,0.223 3.055,0.881 6.908,1.363 11.562,1.436 5.046,0.059 10.688,-1.436 16.904,-4.498 4.597,-2.275 7.299,-5.053 8.089,-8.363 0.19,-0.795 0.273,-1.613 0.244,-2.469 -0.009,-0.301 -0.031,-0.6 -0.076,-0.914 -0.014,-0.115 -0.021,-0.23 -0.044,-0.334 -0.491,-3.291 -1.737,-5.805 -3.727,-7.536 -0.285,-0.256 -0.597,-0.488 -0.931,-0.709 -0.129,-0.105 -0.264,-0.197 -0.415,-0.279 -0.713,-0.432 -1.495,-0.793 -2.351,-1.074 -0.989,-0.342 -1.97,-0.54 -2.949,-0.627 -1.052,-0.086 -2.08,-0.034 -3.109,0.17 -2.067,0.403 -4.079,1.397 -6.063,2.972 -3.886,3.082 -8.375,5.162 -13.473,6.232 -0.336,0.064 -0.671,0.133 -0.992,0.213 z"
         id="path2561" />
      <path
         inkscape:connector-curvature="0"
         style="fill:#e06906"
         d="m 426.646,417.799 0.459,0.695 0.729,0.566 c -0.621,1.008 -1.231,2.051 -1.813,3.129 -0.302,-0.068 -0.622,-0.127 -0.927,-0.164 0.017,0.002 0.034,-0.012 0.035,-0.027 -0.009,0.006 -0.009,0.006 -0.016,-0.002 -0.007,-0.01 -0.007,-0.01 -0.016,-0.002 -0.113,-0.016 -0.241,-0.029 -0.359,-0.053 -0.22,-0.02 -0.438,-0.039 -0.655,-0.057 -0.112,-0.016 -0.218,-0.02 -0.308,-0.023 -4.236,-0.311 -7.656,1.225 -10.262,4.605 -0.904,1.17 -1.549,2.369 -1.956,3.6 l 0.007,0.01 c -0.096,0.322 -0.185,0.639 -0.258,0.957 -0.115,0.541 -0.171,0.988 -0.169,1.383 0.018,0.637 0.237,1.049 0.63,1.234 0.124,0.047 0.233,0.094 0.342,0.141 0.477,0.166 0.925,0.236 1.333,0.223 0.749,-0.047 1.37,-0.443 1.848,-1.207 0.253,-0.59 0.47,-1.094 0.67,-1.523 0.003,-0.018 0.021,-0.031 0.022,-0.049 0.054,-0.098 0.098,-0.191 0.135,-0.293 l -0.008,-0.01 c 0.137,-0.25 0.255,-0.473 0.344,-0.674 -0.066,0.213 -0.137,0.457 -0.226,0.717 l -0.002,0.014 c -0.029,0.094 -0.05,0.197 -0.062,0.309 -0.012,0.023 -0.022,0.047 -0.025,0.062 -0.255,0.998 -0.379,2.012 -0.381,3.014 -0.02,1.742 0.313,3.008 0.997,3.811 0.42,0.486 0.953,0.795 1.623,0.93 0.095,0.025 0.182,0.045 0.27,0.064 0.637,0.07 1.193,-0.424 1.675,-1.465 0.151,-0.309 0.305,-0.689 0.44,-1.129 0.537,-2.291 0.892,-3.645 1.043,-4.064 -0.174,1.398 -0.268,2.619 -0.307,3.648 -0.012,1.158 0.035,2.094 0.176,2.812 0.144,0.816 0.396,1.477 0.759,1.963 0.539,0.727 1.308,1.1 2.312,1.102 0.163,0.004 0.319,-0.002 0.478,-0.021 0.856,-0.074 1.625,-1.268 2.299,-3.553 0.604,-2.111 0.802,-3.514 0.596,-4.209 0.234,0.471 0.506,0.912 0.801,1.307 0.32,0.434 0.656,0.822 1.003,1.178 0.088,0.094 0.178,0.17 0.265,0.244 0.241,0.234 0.485,0.436 0.718,0.604 0.876,0.564 1.664,0.588 2.381,0.074 0.054,-0.041 0.108,-0.084 0.152,-0.121 1.151,-0.982 1.273,-3.037 0.364,-6.162 -0.316,-1.133 -0.73,-2.203 -1.219,-3.201 -0.131,-0.262 -0.278,-0.525 -0.417,-0.795 -0.267,-0.416 -0.534,-0.834 -0.8,-1.248 l 0.856,-1.977 c 0.402,-0.936 0.884,-1.865 1.441,-2.809 0.709,0.205 1.406,0.369 2.107,0.506 -0.707,1.162 -1.448,2.482 -2.228,3.961 0.915,1.826 1.564,3.367 1.948,4.621 0.7,2.256 0.995,4.031 0.866,5.336 -0.137,1.561 -0.62,2.633 -1.427,3.219 -0.761,0.605 -1.675,0.93 -2.754,0.957 l -0.009,0.008 c -1.173,0.041 -2.095,-0.414 -2.778,-1.348 -0.027,-0.055 -0.068,-0.107 -0.096,-0.16 -0.04,-0.07 -0.064,-0.139 -0.088,-0.209 -0.006,0.051 -0.012,0.1 -0.037,0.164 -0.078,0.363 -0.166,0.752 -0.274,1.17 -0.716,2.752 -2.059,4.178 -4.006,4.287 -1.982,0.193 -3.394,-0.607 -4.255,-2.406 -0.189,-0.389 -0.344,-0.793 -0.463,-1.205 -0.017,-0.002 -0.023,-0.012 -0.021,-0.027 -0.011,0.023 -0.028,0.039 -0.047,0.051 -0.688,0.812 -1.412,1.057 -2.188,0.734 -2.34,-0.412 -3.584,-2.16 -3.749,-5.238 -0.626,0.387 -1.469,0.332 -2.502,-0.154 -1.93,-0.893 -2.696,-2.414 -2.29,-4.574 0.371,-1.799 1.217,-3.564 2.531,-5.285 3.399,-4.393 7.824,-6.262 13.266,-5.596 0.404,-0.82 0.846,-1.631 1.32,-2.424 l 0.157,0.054 0,0 z m 6.365,7.287 c 0.022,0.025 0.037,0.045 0.048,0.078 -0.011,-0.033 -0.026,-0.053 -0.048,-0.078"
         id="path2563" />
      <path
         inkscape:connector-curvature="0"
         style="fill:#fcdf00"
         d="m 427.834,419.061 0.203,0.148 c 1.902,0.914 3.779,1.625 5.623,2.146 -0.557,0.943 -1.037,1.871 -1.44,2.809 l -0.855,1.975 c 0.267,0.416 0.533,0.834 0.8,1.25 0.139,0.27 0.285,0.531 0.417,0.795 0.487,0.998 0.902,2.068 1.219,3.201 0.91,3.125 0.785,5.18 -0.364,6.162 -0.045,0.037 -0.099,0.08 -0.154,0.121 -0.715,0.516 -1.503,0.49 -2.38,-0.074 -0.232,-0.168 -0.476,-0.369 -0.717,-0.604 -0.089,-0.074 -0.177,-0.15 -0.265,-0.244 -0.347,-0.355 -0.683,-0.744 -1.005,-1.178 -0.293,-0.395 -0.563,-0.836 -0.8,-1.307 0.207,0.695 0.01,2.098 -0.595,4.209 -0.674,2.285 -1.441,3.479 -2.3,3.551 -0.157,0.021 -0.313,0.027 -0.477,0.023 -1.004,-0.002 -1.772,-0.375 -2.312,-1.102 -0.363,-0.486 -0.616,-1.146 -0.76,-1.963 -0.14,-0.719 -0.188,-1.654 -0.175,-2.812 0.039,-1.029 0.132,-2.25 0.307,-3.648 -0.151,0.42 -0.505,1.773 -1.042,4.064 -0.137,0.439 -0.29,0.82 -0.442,1.129 -0.48,1.041 -1.038,1.535 -1.674,1.465 -0.087,-0.02 -0.175,-0.039 -0.27,-0.064 -0.67,-0.135 -1.202,-0.443 -1.623,-0.93 -0.684,-0.803 -1.017,-2.068 -0.997,-3.811 0.002,-1.002 0.126,-2.016 0.381,-3.014 0.003,-0.016 0.014,-0.039 0.025,-0.062 0.013,-0.111 0.033,-0.215 0.062,-0.309 l 0.002,-0.016 c 0.089,-0.258 0.159,-0.502 0.226,-0.717 -0.089,0.203 -0.207,0.424 -0.344,0.676 l 0.008,0.01 c -0.037,0.102 -0.082,0.195 -0.135,0.293 -0.003,0.018 -0.02,0.031 -0.022,0.049 -0.199,0.43 -0.417,0.934 -0.67,1.523 -0.478,0.764 -1.099,1.16 -1.847,1.207 -0.409,0.014 -0.857,-0.057 -1.334,-0.223 -0.108,-0.047 -0.218,-0.094 -0.343,-0.141 -0.393,-0.186 -0.61,-0.598 -0.631,-1.236 0,-0.393 0.056,-0.842 0.172,-1.381 0.072,-0.318 0.161,-0.635 0.257,-0.957 l -0.007,-0.01 c 0.407,-1.23 1.052,-2.43 1.955,-3.6 2.606,-3.381 6.026,-4.916 10.263,-4.605 0.089,0.004 0.195,0.008 0.308,0.023 0.218,0.02 0.436,0.037 0.654,0.057 0.119,0.023 0.247,0.037 0.36,0.053 l -0.004,0.031 c 0.305,0.037 0.624,0.096 0.927,0.164 0.584,-1.074 1.194,-2.119 1.815,-3.126 m 1.668,5.712 -0.011,0.023 0.011,-0.023 z"
         id="path2565" />
      <path
         inkscape:connector-curvature="0"
         style="fill:#d82d1b"
         d="m 425.094,422.025 0.004,-0.031 c 0.009,-0.008 0.009,-0.008 0.016,0.002 0.007,0.008 0.007,0.008 0.016,0.002 -0.002,0.016 -0.021,0.029 -0.036,0.027"
         id="path2567" />
      <path
         inkscape:connector-curvature="0"
         style="fill:#d82629"
         d="m 432.176,439.955 -0.009,0.008 0.009,-0.008 z"
         id="path2569" />
      <polygon
         style="fill:#9e0c27"
         points="432.183,439.965 432.167,439.963 432.176,439.955 "
         id="polygon2571" />
      <path
         inkscape:connector-curvature="0"
         style="fill:#ffffff"
         d="m 421.178,417.1 c -0.913,0.283 -1.584,0.521 -2.013,0.74 -2.396,1.225 -2.959,3.102 -1.68,5.611 0.389,0.766 1.067,1.23 2.037,1.387 0.876,0.166 1.87,0.01 2.98,-0.471 0.267,-0.111 0.532,-0.252 0.81,-0.396 -0.151,0.436 -0.28,0.852 -0.375,1.254 -0.271,1.166 -0.254,2.158 0.043,2.979 0.33,0.916 0.916,1.496 1.732,1.754 2.687,0.822 4.424,-0.045 5.211,-2.605 0.07,-0.217 0.141,-0.482 0.2,-0.818 0.72,1.562 1.592,2.592 2.628,3.098 0.876,0.441 1.694,0.469 2.459,0.068 2.512,-1.279 3.169,-3.125 1.945,-5.521 -0.217,-0.428 -0.607,-1.018 -1.192,-1.783 -0.902,0.377 -1.872,0.637 -2.901,0.791 -0.89,0.146 -1.744,0.189 -2.576,0.125 -0.172,-0.008 -0.333,-0.023 -0.495,-0.059 -0.728,-0.084 -1.442,-0.262 -2.121,-0.506 -2.155,-0.785 -4.088,-2.344 -5.773,-4.674 -0.252,-0.334 -0.469,-0.684 -0.665,-1.041 -0.046,0.012 -0.092,0.035 -0.138,0.047 -0.034,0.008 -0.081,0.01 -0.116,0.02 l 0,0 z"
         id="path2573" />
      <path
         inkscape:connector-curvature="0"
         style="fill:none;stroke:#a0a0a1;stroke-width:1.847;stroke-linecap:round;stroke-linejoin:round;stroke-miterlimit:10"
         d="m 435.964,422.395 c 0.585,0.766 0.976,1.355 1.192,1.783 1.224,2.396 0.566,4.242 -1.944,5.521 -0.766,0.4 -1.584,0.373 -2.46,-0.068 -1.037,-0.502 -1.908,-1.535 -2.628,-3.098 -0.06,0.336 -0.13,0.602 -0.2,0.818 -0.786,2.561 -2.524,3.428 -5.21,2.605 -0.817,-0.258 -1.403,-0.838 -1.734,-1.756 -0.296,-0.818 -0.313,-1.811 -0.043,-2.975 0.096,-0.404 0.225,-0.82 0.376,-1.256 -0.277,0.145 -0.544,0.285 -0.81,0.396 -1.11,0.48 -2.105,0.637 -2.98,0.471 -0.97,-0.156 -1.648,-0.621 -2.037,-1.387 -1.279,-2.51 -0.716,-4.387 1.68,-5.611 0.429,-0.219 1.1,-0.457 2.013,-0.74 0.035,-0.01 0.081,-0.012 0.116,-0.021 0.046,-0.012 0.092,-0.035 0.139,-0.047"
         id="path2575" />
      <path
         inkscape:connector-curvature="0"
         style="fill:#38449a"
         d="m 436.78,391.918 c -4.503,2.252 -8.807,6.143 -12.912,11.699 -3.034,4.115 -4.16,7.816 -3.358,11.111 0.191,0.754 0.477,1.492 0.876,2.223 l 22.603,-28.055 c -2.197,0.715 -4.604,1.729 -7.209,3.022"
         id="path2577" />
      <path
         inkscape:connector-curvature="0"
         style="fill:#38449a"
         d="m 455.843,392.016 c -0.425,-0.867 -0.904,-1.598 -1.444,-2.199 l -26.528,32.93 c 0.679,0.244 1.394,0.422 2.121,0.506 0.162,0.037 0.323,0.051 0.495,0.059 0.831,0.064 1.687,0.023 2.576,-0.123 1.028,-0.156 1.999,-0.416 2.9,-0.793 0.974,-0.398 1.865,-0.924 2.677,-1.557 1.646,-1.307 2.983,-3.111 4.022,-5.418 2.02,-4.502 5.055,-8.391 9.077,-11.66 0.268,-0.217 0.534,-0.434 0.789,-0.652 0.127,-0.082 0.256,-0.174 0.384,-0.264 2.096,-1.469 3.364,-3.17 3.789,-5.096 0.366,-1.722 0.089,-3.64 -0.858,-5.733"
         id="path2579" />
      <path
         inkscape:connector-curvature="0"
         style="fill:#54c1dd"
         d="m 454.397,389.816 c -1.365,-1.545 -3.059,-2.256 -5.104,-2.141 -0.275,0.012 -0.565,0.043 -0.854,0.086 -1.375,0.225 -2.866,0.602 -4.451,1.135 l -22.603,28.055 c 0.013,0.023 0.036,0.045 0.046,0.08 0.195,0.357 0.414,0.707 0.665,1.041 1.686,2.33 3.618,3.889 5.773,4.674 l 26.528,-32.93 z"
         id="path2581" />
      <path
         inkscape:connector-curvature="0"
         style="fill:none;stroke:#181f6c;stroke-width:1.847;stroke-linecap:round;stroke-linejoin:round;stroke-miterlimit:10"
         d="m 423.869,403.617 c -3.035,4.115 -4.162,7.816 -3.359,11.111 0.191,0.754 0.477,1.492 0.876,2.223 0.012,0.023 0.036,0.045 0.047,0.08 0.194,0.357 0.413,0.707 0.664,1.043 1.686,2.328 3.618,3.887 5.773,4.672 0.678,0.244 1.394,0.422 2.121,0.506 0.162,0.035 0.323,0.049 0.495,0.059 0.831,0.064 1.687,0.023 2.576,-0.123 1.028,-0.156 1.999,-0.416 2.901,-0.793 0.974,-0.398 1.864,-0.924 2.676,-1.557 1.646,-1.309 2.983,-3.111 4.023,-5.418 2.021,-4.502 5.054,-8.391 9.076,-11.66 0.268,-0.217 0.533,-0.434 0.789,-0.652 0.127,-0.082 0.256,-0.174 0.383,-0.264 2.098,-1.469 3.365,-3.172 3.789,-5.096 0.366,-1.721 0.09,-3.639 -0.857,-5.732 -0.423,-0.867 -0.904,-1.598 -1.445,-2.199 -1.365,-1.545 -3.059,-2.256 -5.104,-2.141 -0.275,0.012 -0.565,0.043 -0.854,0.086 -1.376,0.225 -2.867,0.602 -4.452,1.135 -2.197,0.715 -4.604,1.729 -7.208,3.021 -4.502,2.252 -8.805,6.143 -12.91,11.699 z"
         id="path2583" />
      <path
         inkscape:connector-curvature="0"
         style="fill:#54c1dd"
         d="m 491.048,382.449 c -0.196,-0.172 -0.38,-0.333 -0.577,-0.487 l -0.437,-0.014 -10.669,9.171 -0.371,71.676 c 3.951,-0.453 7.835,-1.24 11.652,-2.363 l 0.402,-77.983 z"
         id="path2585" />
      <path
         inkscape:connector-curvature="0"
         style="fill:#38449a"
         d="m 497.516,413.449 c -0.586,-5.451 -1.015,-11.516 -1.292,-18.189 -0.237,-5.682 -1.958,-9.953 -5.176,-12.811 l -0.401,77.983 c 0.311,-0.094 0.623,-0.184 0.936,-0.285 2.348,-0.727 4.511,-1.732 6.517,-3.002 1.98,-1.262 3.788,-2.787 5.426,-4.58 -0.271,-1.113 -0.529,-2.221 -0.767,-3.33 -1.229,-5.811 -2.252,-11.66 -3.051,-17.564 -0.823,-6.067 -1.555,-12.132 -2.192,-18.222"
         id="path2587" />
      <polygon
         style="fill:#ffffff"
         points="461.216,390.91 470.155,399.037 479.365,391.119 490.035,381.947 450.839,381.471 "
         id="polygon2589" />
      <path
         inkscape:connector-curvature="0"
         style="fill:#38449a"
         d="m 472.757,463.225 c 2.09,-0.047 4.169,-0.199 6.237,-0.43 l 0.372,-71.676 -9.211,7.918 -8.94,-8.127 -0.371,71.732 c 0.693,0.084 1.386,0.156 2.078,0.23 3.266,0.319 6.545,0.439 9.835,0.353"
         id="path2591" />
      <path
         inkscape:connector-curvature="0"
         style="fill:#54c1dd"
         d="m 450.839,381.471 -1.085,-0.019 c 0.053,0.853 0.026,1.338 -0.089,1.456 -0.012,0.01 -0.036,0.031 -0.046,0.045 l -0.399,77.17 c 1.338,0.492 2.721,0.902 4.151,1.223 0.103,0.023 0.206,0.047 0.31,0.068 2.375,0.512 4.765,0.93 7.163,1.229 l 0.372,-71.732 -10.377,-9.44 z"
         id="path2593" />
      <path
         inkscape:connector-curvature="0"
         style="fill:#38449a"
         d="m 445.075,394.994 c -0.344,6.67 -0.838,12.732 -1.479,18.176 -0.701,6.08 -1.494,12.141 -2.38,18.197 -0.861,5.896 -1.943,11.732 -3.231,17.531 -0.248,1.107 -0.519,2.215 -0.803,3.322 0.656,0.688 1.335,1.336 2.022,1.951 2.977,2.613 6.315,4.605 10.015,5.951 l 0.398,-77.17 c -2.762,2.814 -4.271,6.827 -4.542,12.042"
         id="path2595" />
      <path
         inkscape:connector-curvature="0"
         style="fill:none;stroke:#181f6c;stroke-width:1.847;stroke-linecap:round;stroke-linejoin:round;stroke-miterlimit:10"
         d="m 450.839,381.471 -1.085,-0.019 c 0.053,0.853 0.027,1.338 -0.09,1.456 -0.011,0.01 -0.034,0.031 -0.046,0.045 -2.763,2.813 -4.272,6.827 -4.543,12.042 -0.345,6.67 -0.839,12.73 -1.479,18.176 -0.701,6.08 -1.494,12.141 -2.381,18.197 -0.861,5.896 -1.941,11.732 -3.229,17.531 -0.249,1.107 -0.521,2.215 -0.804,3.322 0.655,0.688 1.334,1.336 2.022,1.951 2.978,2.613 6.315,4.605 10.016,5.951 1.337,0.492 2.72,0.902 4.15,1.223 0.103,0.023 0.206,0.047 0.31,0.068 2.375,0.512 4.766,0.93 7.163,1.229 0.692,0.084 1.385,0.156 2.078,0.23 3.266,0.318 6.545,0.438 9.835,0.352 2.09,-0.047 4.169,-0.199 6.238,-0.432 3.948,-0.451 7.834,-1.238 11.651,-2.361 0.31,-0.094 0.623,-0.184 0.936,-0.285 2.348,-0.727 4.512,-1.732 6.517,-3.002 1.98,-1.262 3.788,-2.787 5.426,-4.58 -0.271,-1.113 -0.53,-2.221 -0.767,-3.33 -1.229,-5.811 -2.252,-11.66 -3.051,-17.564 -0.823,-6.066 -1.553,-12.131 -2.192,-18.221 -0.585,-5.451 -1.014,-11.516 -1.29,-18.189 -0.238,-5.682 -1.96,-9.953 -5.176,-12.811 -0.196,-0.172 -0.38,-0.335 -0.578,-0.487 l -0.436,-0.015 m 0.001,-10e-4 -10.67,9.172 -9.21,7.918 -8.939,-8.127 -10.377,-9.439 m 39.196,0.476 -39.196,-0.477"
         id="path2597" />
      <path
         inkscape:connector-curvature="0"
         style="fill:#9f2388"
         d="m 470.63,412.377 c -0.047,-0.059 -0.092,-0.102 -0.138,-0.152 -0.632,-0.639 -1.405,-0.965 -2.293,-0.973 -0.889,0 -1.664,0.32 -2.303,0.949 -0.602,0.598 -0.918,1.299 -0.956,2.121 -0.07,0 -0.14,-0.004 -0.209,-0.004 -0.911,-0.004 -1.677,0.307 -2.313,0.936 -0.64,0.635 -0.955,1.395 -0.96,2.305 -0.003,0.844 0.271,1.559 0.833,2.176 -0.06,0.045 -0.104,0.092 -0.162,0.148 -0.64,0.631 -0.968,1.404 -0.97,2.293 -0.006,0.889 0.312,1.664 0.945,2.305 0.584,0.59 1.288,0.916 2.108,0.969 0,0.066 -10e-4,0.137 -10e-4,0.207 -0.006,0.912 0.302,1.676 0.935,2.312 0.631,0.639 1.391,0.955 2.303,0.959 0.844,0.004 1.562,-0.27 2.177,-0.818 0.033,0.033 0.079,0.08 0.113,0.117 0.633,0.635 1.403,0.963 2.294,0.969 0.889,0.004 1.663,-0.316 2.303,-0.947 0.591,-0.586 0.906,-1.275 0.968,-2.072 0.058,0 0.127,0 0.196,0 0.911,0.004 1.675,-0.303 2.314,-0.938 0.64,-0.629 0.954,-1.391 0.96,-2.303 0.004,-0.832 -0.259,-1.547 -0.799,-2.152 0.048,-0.043 0.095,-0.092 0.151,-0.148 0.638,-0.633 0.966,-1.402 0.97,-2.293 0.006,-0.887 -0.314,-1.662 -0.945,-2.301 -0.597,-0.604 -1.313,-0.918 -2.132,-0.957 10e-4,-0.08 10e-4,-0.162 10e-4,-0.244 0.006,-0.91 -0.304,-1.676 -0.936,-2.314 -0.63,-0.639 -1.391,-0.953 -2.304,-0.959 -0.83,-0.007 -1.548,0.27 -2.15,0.809"
         id="path2599" />
      <path
         inkscape:connector-curvature="0"
         style="fill:#9f2388"
         d="m 472.485,435.432 c -0.832,-0.002 -1.55,0.268 -2.151,0.809 -0.047,-0.057 -0.093,-0.105 -0.139,-0.15 -0.632,-0.639 -1.403,-0.965 -2.293,-0.971 -0.889,-0.004 -1.664,0.314 -2.302,0.945 -0.604,0.598 -0.919,1.299 -0.957,2.119 h -0.209 c -0.912,-0.004 -1.676,0.303 -2.313,0.936 -0.64,0.631 -0.954,1.393 -0.958,2.303 -0.006,0.844 0.268,1.561 0.831,2.178 -0.058,0.047 -0.104,0.09 -0.163,0.148 -0.637,0.631 -0.965,1.402 -0.97,2.291 -0.005,0.893 0.313,1.664 0.946,2.305 0.586,0.59 1.288,0.918 2.107,0.967 0.001,0.074 0,0.141 0,0.209 -0.005,0.914 0.303,1.674 0.936,2.312 0.632,0.641 1.39,0.957 2.304,0.959 0.842,0.006 1.56,-0.268 2.175,-0.82 0.035,0.037 0.079,0.082 0.114,0.117 0.632,0.637 1.402,0.965 2.292,0.971 0.891,0.004 1.666,-0.316 2.304,-0.945 0.591,-0.588 0.906,-1.277 0.969,-2.076 0.059,0.004 0.127,0.004 0.197,0.004 0.912,0.004 1.674,-0.303 2.312,-0.936 0.64,-0.633 0.954,-1.393 0.96,-2.303 0.004,-0.834 -0.259,-1.549 -0.798,-2.154 0.046,-0.047 0.093,-0.092 0.15,-0.148 0.639,-0.633 0.965,-1.402 0.972,-2.293 0.005,-0.889 -0.315,-1.664 -0.947,-2.305 -0.597,-0.6 -1.312,-0.918 -2.131,-0.955 -0.001,-0.08 10e-4,-0.162 10e-4,-0.242 0.004,-0.914 -0.305,-1.678 -0.935,-2.314 -0.631,-0.639 -1.392,-0.957 -2.304,-0.961"
         id="path2601" />
      <path
         inkscape:connector-curvature="0"
         style="fill:none;stroke:#59155b;stroke-width:1.847;stroke-linecap:round;stroke-linejoin:round;stroke-miterlimit:10"
         d="m 470.492,412.225 c -0.632,-0.639 -1.405,-0.965 -2.293,-0.973 -0.889,0 -1.664,0.318 -2.303,0.949 -0.603,0.598 -0.918,1.299 -0.956,2.119 -0.071,0 -0.14,-0.002 -0.209,-0.002 -0.911,-0.004 -1.676,0.305 -2.313,0.936 -0.64,0.635 -0.955,1.395 -0.96,2.305 -0.003,0.844 0.271,1.559 0.833,2.176 -0.06,0.045 -0.104,0.092 -0.163,0.148 -0.639,0.631 -0.965,1.404 -0.969,2.293 -0.006,0.889 0.312,1.664 0.945,2.305 0.584,0.59 1.288,0.916 2.108,0.969 0,0.066 -10e-4,0.137 -10e-4,0.207 -0.006,0.912 0.302,1.676 0.935,2.312 0.631,0.639 1.391,0.955 2.303,0.959 0.844,0.004 1.562,-0.27 2.177,-0.818 0.033,0.033 0.079,0.08 0.113,0.117 0.633,0.635 1.403,0.961 2.294,0.969 0.889,0.004 1.664,-0.318 2.303,-0.947 0.592,-0.586 0.906,-1.275 0.968,-2.072 0.058,0 0.127,0 0.195,0 0.912,0.004 1.676,-0.305 2.315,-0.938 0.639,-0.629 0.954,-1.391 0.96,-2.303 0.003,-0.832 -0.259,-1.549 -0.799,-2.152 0.048,-0.043 0.095,-0.092 0.151,-0.148 0.638,-0.633 0.966,-1.402 0.97,-2.293 0.005,-0.887 -0.314,-1.662 -0.945,-2.301 -0.597,-0.604 -1.313,-0.918 -2.132,-0.957 10e-4,-0.08 10e-4,-0.162 10e-4,-0.244 0.006,-0.91 -0.303,-1.676 -0.936,-2.314 -0.63,-0.639 -1.391,-0.953 -2.304,-0.959 -0.831,-0.006 -1.549,0.271 -2.151,0.811 -0.046,-0.061 -0.091,-0.104 -0.137,-0.154 z m -0.158,24.015 c -0.046,-0.057 -0.093,-0.105 -0.139,-0.15 -0.632,-0.639 -1.403,-0.965 -2.293,-0.971 -0.889,-0.004 -1.664,0.314 -2.302,0.945 -0.604,0.598 -0.919,1.299 -0.957,2.119 h -0.209 c -0.912,-0.004 -1.676,0.303 -2.313,0.936 -0.639,0.631 -0.954,1.393 -0.958,2.303 -0.005,0.844 0.268,1.561 0.831,2.178 -0.058,0.047 -0.104,0.09 -0.163,0.148 -0.639,0.631 -0.965,1.402 -0.97,2.291 -0.005,0.893 0.313,1.664 0.946,2.305 0.586,0.59 1.288,0.918 2.107,0.967 0.001,0.074 0,0.141 0,0.211 -0.005,0.912 0.303,1.672 0.936,2.311 0.632,0.641 1.39,0.957 2.304,0.959 0.842,0.006 1.56,-0.268 2.175,-0.82 0.035,0.037 0.079,0.082 0.114,0.117 0.632,0.637 1.402,0.965 2.291,0.971 0.892,0.004 1.667,-0.316 2.305,-0.945 0.591,-0.588 0.906,-1.277 0.969,-2.076 0.059,0.004 0.127,0.004 0.198,0.004 0.91,0.004 1.672,-0.303 2.312,-0.936 0.64,-0.633 0.954,-1.393 0.959,-2.303 0.005,-0.834 -0.258,-1.549 -0.797,-2.154 0.046,-0.047 0.093,-0.092 0.15,-0.148 0.639,-0.633 0.965,-1.402 0.971,-2.293 0.006,-0.889 -0.314,-1.664 -0.946,-2.305 -0.597,-0.6 -1.312,-0.918 -2.131,-0.955 -10e-4,-0.08 0.001,-0.162 0.001,-0.242 0.004,-0.914 -0.305,-1.678 -0.935,-2.314 -0.632,-0.637 -1.393,-0.957 -2.305,-0.959 -0.832,-0.004 -1.548,0.267 -2.151,0.806 l 0,0 z"
         id="path2603" />
      <path
         inkscape:connector-curvature="0"
         style="fill:#e06906"
         d="m 509.211,367.14 c 1.885,-2.438 2.846,-5.389 2.866,-8.852 0.02,-3.464 -0.915,-6.426 -2.771,-8.859 -1.951,-2.597 -4.321,-3.925 -7.114,-3.964 -1.82,-10.24 -5.534,-19.125 -11.177,-26.637 -3.052,-4.057 -6.336,-7.192 -9.905,-9.403 -3.797,-2.398 -7.624,-3.597 -11.481,-3.593 -3.856,-0.043 -7.695,1.114 -11.518,3.473 -3.567,2.199 -6.886,5.299 -9.978,9.3 -5.626,7.314 -9.412,15.999 -11.358,26.037 -2.793,0.006 -5.18,1.312 -7.155,3.888 -1.883,2.414 -2.845,5.363 -2.863,8.827 -0.02,3.465 0.913,6.426 2.77,8.884 1.997,2.643 4.438,3.949 7.324,3.94 0.254,0 0.531,0.002 0.809,-0.02 1.978,6.084 5.186,10.67 9.58,13.811 4.002,2.86 8.45,4.709 13.317,5.543 2.377,0.404 4.386,0.553 6.025,0.4 5.562,0.605 11.106,0.037 16.611,-1.715 2.845,-0.908 5.091,-1.889 6.782,-2.922 l 0.117,-0.066 0.092,-0.07 c 4.476,-3.741 7.849,-8.503 10.119,-14.263 0.485,0.071 1.016,0.12 1.546,0.123 2.886,0.039 5.339,-1.24 7.362,-3.862 m 1.065,-8.863 c -0.017,3.024 -0.841,5.607 -2.493,7.746 -1.646,2.139 -3.613,3.19 -5.924,3.179 -0.3,-0.002 -0.623,-0.026 -0.923,-0.052 2.109,-6.246 2.719,-12.917 1.812,-20.01 -0.092,-0.625 -0.177,-1.25 -0.268,-1.85 2.102,0.15 3.896,1.222 5.387,3.216 1.629,2.156 2.424,4.746 2.409,7.771 m -40.658,-50.644 c 3.535,0.019 7.037,1.122 10.536,3.311 3.385,2.119 6.532,5.114 9.421,8.963 5.436,7.254 9.017,15.818 10.79,25.687 0.111,0.579 0.201,1.18 0.312,1.781 0.091,0.669 0.181,1.315 0.271,1.987 0.862,6.862 0.299,13.28 -1.741,19.294 -0.07,0.162 -0.116,0.348 -0.188,0.509 -0.142,0.393 -0.281,0.806 -0.443,1.196 -2.154,5.417 -5.342,9.88 -9.562,13.39 -1.573,0.986 -3.702,1.897 -6.364,2.741 -5.32,1.703 -10.68,2.229 -16.058,1.6 -1.548,0.154 -3.465,0.053 -5.748,-0.352 -4.59,-0.789 -8.785,-2.518 -12.558,-5.241 -4.026,-2.883 -6.982,-7.101 -8.847,-12.653 -0.159,-0.438 -0.297,-0.901 -0.433,-1.363 -0.045,-0.116 -0.091,-0.256 -0.114,-0.394 -1.654,-5.806 -1.992,-12.158 -1.031,-19.057 0.119,-0.831 0.239,-1.661 0.382,-2.47 0.119,-0.6 0.214,-1.198 0.333,-1.776 1.897,-9.666 5.566,-18.028 10.984,-25.088 2.93,-3.818 6.086,-6.781 9.489,-8.865 3.521,-2.152 7.038,-3.218 10.569,-3.2 m -38.572,41.988 c 1.51,-1.954 3.317,-3.009 5.396,-3.159 -0.143,0.762 -0.262,1.545 -0.357,2.331 -0.984,7.084 -0.648,13.622 1.028,19.588 -0.092,-10e-4 -0.185,-10e-4 -0.254,-10e-4 -2.308,-0.012 -4.267,-1.085 -5.896,-3.242 -1.628,-2.155 -2.422,-4.745 -2.405,-7.771 0.015,-3.024 0.837,-5.607 2.488,-7.746"
         id="path2605" />
      <path
         inkscape:connector-curvature="0"
         style="fill:#fcdf00"
         d="m 507.784,366.023 c 1.653,-2.139 2.476,-4.722 2.492,-7.746 0.015,-3.025 -0.78,-5.616 -2.408,-7.771 -1.491,-1.994 -3.287,-3.066 -5.388,-3.216 0.091,0.601 0.177,1.226 0.268,1.849 0.907,7.094 0.299,13.765 -1.811,20.011 0.3,0.025 0.622,0.05 0.922,0.052 2.311,0.012 4.278,-1.04 5.925,-3.179"
         id="path2607" />
      <path
         inkscape:connector-curvature="0"
         style="fill:#fcdf00"
         d="m 480.154,310.943 c -3.499,-2.189 -7.001,-3.292 -10.536,-3.311 -3.531,-0.018 -7.048,1.048 -10.569,3.201 -3.403,2.084 -6.56,5.047 -9.489,8.865 -5.418,7.06 -9.087,15.422 -10.984,25.09 -0.119,0.577 -0.214,1.175 -0.333,1.775 -0.143,0.809 -0.263,1.639 -0.382,2.47 -0.961,6.9 -0.623,13.251 1.031,19.057 0.023,0.138 0.069,0.276 0.114,0.394 0.136,0.462 0.273,0.925 0.433,1.363 1.864,5.552 4.82,9.769 8.847,12.653 3.772,2.723 7.968,4.452 12.558,5.241 2.284,0.404 4.2,0.506 5.748,0.352 5.378,0.629 10.737,0.104 16.057,-1.6 2.663,-0.844 4.792,-1.754 6.365,-2.741 4.221,-3.51 7.408,-7.973 9.562,-13.39 0.162,-0.391 0.302,-0.804 0.444,-1.196 0.068,-0.162 0.116,-0.347 0.187,-0.509 2.04,-6.015 2.604,-12.433 1.741,-19.295 -0.09,-0.671 -0.179,-1.317 -0.271,-1.987 -0.11,-0.602 -0.2,-1.202 -0.312,-1.781 -1.773,-9.869 -5.354,-18.433 -10.79,-25.687 -2.888,-3.849 -6.036,-6.844 -9.421,-8.964"
         id="path2609" />
      <path
         inkscape:connector-curvature="0"
         style="fill:#fcdf00"
         d="m 436.441,346.462 c -2.078,0.15 -3.886,1.205 -5.396,3.159 -1.651,2.139 -2.473,4.722 -2.488,7.747 -0.017,3.024 0.777,5.614 2.405,7.77 1.629,2.157 3.587,3.23 5.896,3.242 0.069,0 0.162,0 0.254,10e-4 -1.678,-5.968 -2.013,-12.504 -1.028,-19.587 0.096,-0.787 0.215,-1.569 0.357,-2.332"
         id="path2611" />
      <path
         inkscape:connector-curvature="0"
         style="fill:#ffffff"
         d="m 471.58,343.597 c -0.016,2.841 0.919,5.293 2.825,7.334 1.904,2.021 4.231,3.048 6.934,3.062 2.702,0.014 5.038,-0.99 6.967,-2.989 1.925,-2.022 2.888,-4.465 2.902,-7.306 0.013,-2.862 -0.919,-5.315 -2.827,-7.334 -1.905,-2.019 -4.23,-3.045 -6.934,-3.06 -2.703,-0.014 -5.04,0.989 -6.967,2.987 -1.926,2.001 -2.885,4.442 -2.9,7.306"
         id="path2613" />
      <path
         inkscape:connector-curvature="0"
         style="fill:#ffffff"
         d="m 464.714,336.242 c -1.906,-2.021 -4.232,-3.047 -6.935,-3.062 -2.702,-0.015 -5.04,0.99 -6.968,2.989 -1.926,1.999 -2.909,4.442 -2.923,7.305 -0.016,2.84 0.941,5.292 2.849,7.336 1.904,2.018 4.232,3.047 6.934,3.06 2.702,0.015 5.038,-0.989 6.967,-2.988 1.927,-2.021 2.885,-4.466 2.9,-7.305 0.015,-2.864 -0.918,-5.317 -2.824,-7.335"
         id="path2615" />
      <path
         inkscape:connector-curvature="0"
         style="fill:#f5f5f5"
         d="m 494.677,376.524 c 1.701,-3.025 2.13,-5.609 1.301,-7.738 -0.834,-2.128 -4.46,-1.951 -10.881,0.531 -4.87,1.894 -10.049,2.928 -15.523,3.107 -5.481,-0.247 -10.637,-1.336 -15.488,-3.267 -6.396,-2.55 -10.019,-2.765 -10.874,-0.646 -0.854,2.121 -0.451,4.71 1.22,7.754 1.659,3.044 4.993,5.787 9.99,8.237 3.939,1.938 8.056,3.09 12.336,3.448 l 2.008,0.102 c 0.485,0.016 0.972,0.018 1.457,0.01 l 2.021,-0.082 c 4.284,-0.314 8.402,-1.426 12.361,-3.321 5.018,-2.398 8.381,-5.106 10.072,-8.135"
         id="path2617" />
      <path
         inkscape:connector-curvature="0"
         style="fill:#d82629"
         d="m 450.501,372.431 -3.525,-1.588 c 2.22,5.979 6.795,10.011 13.724,12.079 3.47,1.045 6.723,1.488 9.76,1.318 6.712,-0.334 12.346,-2.625 16.896,-6.886 2.283,-2.122 3.898,-4.216 4.834,-6.278 -10.505,4.576 -21.195,5.918 -32.074,4.014 -3.404,-0.607 -6.609,-1.49 -9.615,-2.659"
         id="path2619" />
      <path
         inkscape:connector-curvature="0"
         style="fill:#e27c9f"
         d="m 469.609,381.188 c 2.529,0 4.358,-0.773 5.496,-2.315 0.571,-0.76 1.061,-1.889 1.485,-3.398 -4.576,0.602 -9.184,0.61 -13.821,0.021 0.396,1.468 0.875,2.567 1.414,3.32 1.147,1.578 2.956,2.371 5.426,2.372"
         id="path2621" />
      <path
         inkscape:connector-curvature="0"
         style="fill:#d82629"
         d="m 446.221,356.105 c -1.225,-0.007 -2.288,0.426 -3.147,1.276 -0.859,0.85 -1.305,1.911 -1.311,3.134 -0.006,1.224 0.428,2.288 1.276,3.147 0.852,0.859 1.91,1.303 3.135,1.31 1.223,0.006 2.289,-0.429 3.146,-1.277 0.86,-0.85 1.304,-1.909 1.31,-3.134 0.007,-1.223 -0.428,-2.288 -1.277,-3.147 -0.851,-0.858 -1.91,-1.303 -3.132,-1.309"
         id="path2623" />
      <path
         inkscape:connector-curvature="0"
         style="fill:#d82629"
         d="m 496.183,357.659 c -0.849,-0.86 -1.91,-1.304 -3.136,-1.311 -1.225,-0.006 -2.287,0.428 -3.146,1.276 -0.858,0.851 -1.302,1.91 -1.309,3.134 -0.007,1.225 0.426,2.289 1.276,3.146 0.85,0.861 1.91,1.306 3.134,1.312 1.224,0.005 2.29,-0.428 3.146,-1.278 0.86,-0.849 1.305,-1.909 1.312,-3.133 0.003,-1.223 -0.429,-2.286 -1.277,-3.146"
         id="path2625" />
      <path
         inkscape:connector-curvature="0"
         style="fill:none;stroke:#282525;stroke-width:4.15670013;stroke-linecap:round;stroke-miterlimit:10"
         d="m 449.457,327.759 c 12.802,-3.87 26.033,-3.801 39.718,0.207"
         id="path2627" />
      <path
         inkscape:connector-curvature="0"
         style="fill:#1a1515"
         d="m 483.933,340.573 c -0.956,-0.986 -2.083,-1.487 -3.409,-1.496 -1.328,-0.005 -2.466,0.485 -3.427,1.461 -0.94,1 -1.422,2.197 -1.428,3.594 -0.007,1.397 0.46,2.601 1.392,3.587 0.953,1.009 2.082,1.511 3.409,1.517 1.328,0.007 2.461,-0.482 3.425,-1.482 0.94,-0.977 1.42,-2.175 1.427,-3.57 0.009,-1.398 -0.459,-2.601 -1.387,-3.611 h -0.002 z"
         id="path2629" />
      <path
         inkscape:connector-curvature="0"
         style="fill:#1a1515"
         d="m 461.958,340.394 c -0.955,-0.985 -2.081,-1.487 -3.409,-1.494 -1.327,-0.006 -2.464,0.482 -3.425,1.459 -0.941,1 -1.421,2.198 -1.428,3.595 -0.008,1.397 0.461,2.601 1.391,3.587 0.952,1.01 2.08,1.511 3.408,1.518 1.33,0.006 2.463,-0.484 3.427,-1.483 0.939,-0.977 1.419,-2.175 1.426,-3.571 0.007,-1.398 -0.459,-2.602 -1.39,-3.611"
         id="path2631" />
      <path
         inkscape:connector-curvature="0"
         style="fill:#e48200"
         d="m 478.319,370.84 c 2.243,-2.933 3.382,-6.471 3.404,-10.628 0.019,-4.155 -1.081,-7.707 -3.298,-10.639 -2.232,-2.955 -4.928,-4.436 -8.103,-4.451 -3.174,-0.017 -5.884,1.435 -8.127,4.367 -2.244,2.911 -3.383,6.45 -3.402,10.605 -0.023,4.158 1.079,7.707 3.292,10.663 2.215,2.933 4.907,4.412 8.083,4.428 3.175,0.017 5.884,-1.436 8.151,-4.345"
         id="path2633" />
      <path
         inkscape:connector-curvature="0"
         style="fill:#282525"
         d="m 458.108,290.622 c -0.373,0.875 -0.895,2.119 -1.04,3.123 -0.431,3.104 -1.788,2.55 0.335,5.056 0.184,0.219 0.447,0.568 0.781,1.043 -3.358,-0.572 -5.916,-1.89 -7.694,-3.967 -0.124,-0.219 -0.219,-0.001 -0.304,0.646 -0.061,0.693 -0.041,1.489 0.08,2.402 0.344,2.68 1.291,4.717 2.855,6.111 l 0.393,0.324 c -1.295,0.179 -2.6,0.183 -3.927,0.028 -0.844,-0.086 -1.684,-0.276 -2.516,-0.592 -0.61,-0.233 -1.44,-0.607 -2.464,-1.12 -0.128,-0.093 0.571,0.938 2.086,3.082 1.56,2.189 2.693,3.604 3.416,4.244 1.796,1.59 3.545,2.546 5.252,2.867 3.645,0.677 7.029,0.301 10.168,-1.125 0.701,0.476 1.505,0.874 2.395,1.19 0.841,0.293 1.647,0.471 2.4,0.522 0.979,0.061 1.903,-0.027 2.748,-0.287 0.97,-0.285 1.748,-0.766 2.317,-1.445 0.746,0.639 1.621,1.107 2.603,1.423 0.966,0.294 1.946,0.403 2.952,0.315 0.98,-0.076 1.952,-0.268 2.912,-0.585 0.648,-0.193 1.572,-0.558 2.777,-1.071 1.099,-0.456 2.972,-0.885 5.616,-1.288 2.265,-0.322 3.376,-0.5 3.329,-0.537 -0.873,-0.755 -1.874,-1.268 -3.017,-1.516 -0.934,-0.225 -2.09,-0.3 -3.463,-0.226 -0.599,0.008 -1.234,0.097 -1.895,0.244 0.648,-0.366 1.24,-0.79 1.786,-1.284 1.171,-1.056 2.101,-2.333 2.765,-3.842 0.374,-0.818 0.879,-2.316 1.504,-4.519 -0.918,0.792 -1.96,1.654 -3.133,2.571 -2.364,1.847 -4.148,2.899 -5.35,3.159 -0.334,0.079 -0.892,0.155 -1.642,0.244 0.89,-2.062 1.588,-3.478 2.101,-4.26 0.559,-0.829 1.744,-2.07 3.552,-3.724 l 2.435,-2.203 c -0.837,-0.455 -3.413,2.328 -4.66,2.369 -1.122,0.04 -0.799,-2.709 -2.058,-2.266 0.559,-1.002 0.765,-2.571 0.602,-4.731 -0.163,-2.171 -0.295,-3.13 -0.424,-2.865 -0.502,1.073 -1.19,2.083 -2.069,3.038 -0.882,0.931 -1.858,1.711 -2.924,2.318 -0.774,0.458 -1.794,0.902 -3.056,1.346 0.007,-1.374 0.155,-2.574 0.434,-3.6 0.602,-2.087 1.533,-4.137 2.829,-6.151 0.312,-0.38 0.557,-0.758 0.743,-1.128 0.059,-0.104 -0.657,0.124 -2.15,0.682 -1.541,0.581 -2.706,1.082 -3.495,1.506 -1.793,0.96 -3.092,1.923 -3.917,2.89 -0.325,0.424 -0.617,0.838 -0.861,1.219 -0.47,-0.568 -1.021,-1.357 -1.651,-2.363 -0.824,-1.333 -1.395,-2.813 -1.707,-4.467 -0.145,-1.339 -0.233,-1.999 -0.268,-1.987 -0.821,0.273 -1.608,0.835 -2.363,1.672 -1.532,1.667 -2.237,3.996 -2.114,6.988 0.038,1.477 0.228,2.967 0.577,4.459 -1.165,-0.376 -2.086,-0.784 -2.741,-1.238 -0.828,-0.593 -2.848,-1.633 -2.591,-3.708 0.057,-0.463 0.656,1.173 0.578,0.665 -0.035,-0.138 1.518,2.966 -0.26,-0.086 l 0.433,0.435 z"
         id="path2635" />
      <path
         inkscape:connector-curvature="0"
         style="fill:#e60512"
         d="m 500.439,393.387 c -0.086,-5.795 -0.75,-9.102 -1.98,-9.918 -1.232,-0.812 -2.879,-1.053 -4.95,-0.707 -3.132,0.322 -6.834,1.998 -11.133,5.012 -4.289,3.016 -7.211,5.541 -8.768,7.564 l 0.993,0.006 c 1.234,0.008 1.843,0.621 1.836,1.855 l -0.018,3.453 c 0.983,-0.422 2.094,-0.9 3.345,-1.414 3.542,-1.484 6.087,-2.521 7.637,-3.125 -1.55,0.604 -4.095,1.641 -7.637,3.125 -1.251,0.514 -2.361,0.992 -3.345,1.414 l -0.008,1.592 c 1.004,0.469 2.235,1.062 3.72,1.797 1.276,0.643 2.523,1.285 3.742,1.902 -1.219,-0.617 -2.466,-1.26 -3.742,-1.902 -1.484,-0.734 -2.716,-1.328 -3.72,-1.797 l -0.014,2.922 c -0.008,1.191 -0.575,1.797 -1.707,1.838 -0.059,0 -0.104,0 -0.151,0 L 473.975,407 c 4.348,5.463 9.893,9.279 16.624,11.461 4.484,1.465 7.27,-0.898 8.35,-7.094 1.084,-6.195 1.575,-12.183 1.49,-17.98"
         id="path2637" />
      <path
         inkscape:connector-curvature="0"
         style="fill:#e60512"
         d="m 464.777,397.139 c 0.007,-1.234 0.621,-1.842 1.858,-1.838 l 0.668,0.006 c -1.537,-2.041 -4.434,-4.596 -8.688,-7.654 -4.267,-3.059 -7.954,-4.774 -11.082,-5.127 -2.062,-0.369 -3.716,-0.146 -4.955,0.656 -1.24,0.801 -1.938,4.1 -2.083,9.897 -0.146,5.793 0.284,11.789 1.304,17.994 1.018,6.207 3.776,8.602 8.275,7.18 6.696,-2.102 12.245,-5.816 16.649,-11.16 l -0.15,-0.129 c -0.082,0 -0.173,0 -0.254,-0.01 -1.062,-0.088 -1.588,-0.705 -1.583,-1.848 l 0.015,-2.977 c -1.03,0.465 -2.314,1.072 -3.854,1.816 -1.285,0.629 -2.533,1.254 -3.762,1.861 1.229,-0.607 2.477,-1.232 3.762,-1.861 1.539,-0.744 2.823,-1.352 3.854,-1.816 l 0.009,-1.49 c -1.003,-0.445 -2.155,-0.947 -3.445,-1.496 -3.524,-1.518 -6.062,-2.582 -7.604,-3.203 1.543,0.621 4.08,1.686 7.604,3.203 1.29,0.549 2.442,1.051 3.445,1.496 l 0.017,-3.5 z"
         id="path2639" />
      <path
         inkscape:connector-curvature="0"
         style="fill:#e60512"
         d="m 466.636,395.301 c -1.237,-0.004 -1.852,0.604 -1.858,1.838 l -0.018,3.5 -0.008,1.488 -0.016,2.979 c -0.005,1.143 0.522,1.76 1.583,1.846 0.081,0.012 0.174,0.012 0.255,0.012 h 0.241 l 7.158,0.037 0.566,0.004 c 0.047,0 0.093,0 0.138,-0.014 1.063,-0.072 1.599,-0.68 1.604,-1.824 l 0.019,-2.979 0.006,-1.49 0.018,-3.498 c 0.006,-1.189 -0.567,-1.816 -1.722,-1.855 l -0.994,-0.008 -6.305,-0.029 -0.667,-0.007 z"
         id="path2641" />
      <path
         inkscape:connector-curvature="0"
         style="fill:none;stroke:#7f040b;stroke-width:1.847;stroke-linecap:round;stroke-linejoin:round;stroke-miterlimit:10"
         d="m 476.296,402.188 c 0.037,0.012 0.081,0.035 0.115,0.057 m 10.99,-6.132 c -1.551,0.604 -4.095,1.641 -7.637,3.125 -1.251,0.514 -2.361,0.992 -3.345,1.414 m 0.001,0 0.018,-3.453 c 0.007,-1.234 -0.602,-1.85 -1.836,-1.855 m 1.809,6.9 -0.013,2.922 c -0.008,1.191 -0.575,1.797 -1.707,1.838 m 9.183,-1.061 c -1.219,-0.617 -2.466,-1.26 -3.742,-1.902 -1.484,-0.734 -2.716,-1.328 -3.721,-1.797 m 0.009,-1.592 -0.009,1.592 m -9.108,-6.937 -0.667,-0.006 c -1.237,-0.004 -1.852,0.604 -1.859,1.838 l -0.016,3.498 m 0,0 c -1.004,-0.443 -2.156,-0.945 -3.446,-1.494 -3.524,-1.518 -6.06,-2.584 -7.604,-3.203 m 13.592,-0.633 6.306,0.031 m 0.993,0.006 c 1.154,0.039 1.727,0.666 1.721,1.855 l -0.016,3.498 m -1.705,-5.353 -0.993,-0.008 m -6.794,11.627 c -0.034,0.035 -0.058,0.082 -0.091,0.129 -4.404,5.344 -9.954,9.059 -16.65,11.16 -4.499,1.418 -7.258,-0.973 -8.276,-7.18 -1.019,-6.205 -1.449,-12.201 -1.303,-17.994 0.144,-5.797 0.843,-9.096 2.083,-9.897 1.239,-0.802 2.892,-1.025 4.955,-0.654 3.126,0.35 6.815,2.066 11.081,5.125 4.256,3.059 7.153,5.613 8.688,7.654 m 7.239,11.698 -0.566,-0.004 m 0.716,0.004 c -0.059,0 -0.105,0 -0.15,0 m 0,0 c 0.045,0 0.092,0 0.137,-0.014 m 0.013,0.014 -0.014,-0.014 m 10e-4,0 c 1.063,-0.072 1.6,-0.68 1.604,-1.824 l 0.015,-2.979 m -11.546,-0.058 -0.015,2.977 c -0.005,1.143 0.521,1.76 1.582,1.846 0.082,0.012 0.175,0.012 0.255,0.012 h 0.242 m -9.679,-1.157 c 1.229,-0.607 2.477,-1.232 3.764,-1.861 1.538,-0.744 2.82,-1.352 3.852,-1.816 m 9.223,4.87 -7.159,-0.037 m -2.055,-6.326 -0.01,1.492 m 11.545,0.059 0.011,-1.49 m 0,-10e-4 c 0.033,-0.012 0.08,-0.031 0.113,-0.045 m -2.812,-5.314 c 1.557,-2.023 4.479,-4.549 8.767,-7.564 4.3,-3.014 8.002,-4.69 11.134,-5.012 2.071,-0.346 3.718,-0.105 4.95,0.707 1.23,0.816 1.895,4.124 1.98,9.918 0.085,5.797 -0.406,11.785 -1.491,17.98 -1.08,6.195 -3.865,8.559 -8.351,7.094 -6.73,-2.182 -12.275,-5.998 -16.623,-11.461"
         id="path2643" />
      <path
         inkscape:connector-curvature="0"
         style="fill:#e40012"
         d="m 475.738,278.693 c -0.333,-0.127 -0.679,-0.234 -1.016,-0.328 -2.776,-0.719 -5.515,-0.595 -8.199,0.385 -0.336,0.137 -0.658,0.274 -0.993,0.41 -0.893,0.457 -1.749,1.031 -2.597,1.718 -0.243,0.195 -0.476,0.391 -0.694,0.598 -4.236,4.053 -6.259,8.985 -6.081,14.805 3.055,0.881 6.146,1.406 9.274,1.595 l 9.19,0.105 c 3.706,-0.039 7.357,-0.55 10.954,-1.549 0.25,-6.198 -1.996,-11.417 -6.768,-15.657 -0.401,-0.358 -0.813,-0.696 -1.229,-0.987 -0.61,-0.429 -1.22,-0.802 -1.841,-1.095"
         id="path2645" />
      <path
         inkscape:connector-curvature="0"
         style="fill:none;stroke:#7f040b;stroke-width:1.847;stroke-linecap:round;stroke-linejoin:round;stroke-miterlimit:10"
         d="m 456.158,296.281 c -0.179,-5.82 1.844,-10.752 6.081,-14.805 0.22,-0.207 0.451,-0.402 0.695,-0.597 0.846,-0.688 1.703,-1.261 2.596,-1.718 0.335,-0.136 0.657,-0.273 0.992,-0.41 2.686,-0.979 5.423,-1.104 8.2,-0.385 0.336,0.094 0.683,0.199 1.016,0.328 0.622,0.292 1.231,0.665 1.842,1.095 0.415,0.291 0.828,0.627 1.229,0.988 4.771,4.238 7.018,9.457 6.768,15.656"
         id="path2647" />
      <path
         inkscape:connector-curvature="0"
         style="fill:#ece700"
         d="m 456.158,296.281 c 0.029,0.914 0.104,1.848 0.251,2.807 2.355,2.171 5.361,3.641 8.994,4.422 2.688,0.671 5.411,0.848 8.174,0.503 0.333,-0.055 0.682,-0.1 1.015,-0.157 0.244,-0.031 0.497,-0.078 0.751,-0.121 4.059,-0.685 7.379,-2.18 9.953,-4.499 0.153,-0.957 0.24,-1.891 0.281,-2.804 -3.597,0.998 -7.247,1.51 -10.954,1.548 l -9.19,-0.104 c -3.128,-0.189 -6.22,-0.714 -9.275,-1.595 l 0,0 z"
         id="path2649" />
      <path
         inkscape:connector-curvature="0"
         style="fill:none;stroke:#7f040b;stroke-width:1.847;stroke-linecap:round;stroke-linejoin:round;stroke-miterlimit:10"
         d="m 485.296,299.237 c 0.153,-0.958 0.24,-1.892 0.281,-2.805 -3.597,0.999 -7.248,1.511 -10.954,1.548 l -9.19,-0.103 c -3.129,-0.191 -6.22,-0.716 -9.274,-1.597 0.029,0.913 0.104,1.848 0.251,2.808"
         id="path2651" />
      <path
         inkscape:connector-curvature="0"
         style="fill:#e40012"
         d="m 490.317,295.118 c -0.369,-0.151 -0.852,-0.282 -1.453,-0.412 -0.967,1.751 -2.163,3.257 -3.568,4.531 -2.575,2.32 -5.895,3.813 -9.954,4.499 -0.253,0.043 -0.508,0.089 -0.75,0.121 -0.333,0.057 -0.682,0.102 -1.015,0.158 -2.763,0.344 -5.486,0.168 -8.174,-0.504 -3.633,-0.781 -6.639,-2.251 -8.994,-4.422 -1.391,-1.289 -2.571,-2.807 -3.523,-4.567 -0.599,0.124 -1.084,0.248 -1.455,0.395 -0.914,0.342 -1.62,0.871 -2.144,1.593 -0.141,0.197 -0.268,0.427 -0.396,0.67 2.495,6.374 7.326,10.209 14.488,11.48 0.657,0.119 1.326,0.227 1.997,0.335 2.697,0.579 5.422,0.721 8.171,0.411 0.336,-0.057 0.683,-0.1 1.018,-0.146 1.224,-0.143 2.449,-0.309 3.661,-0.522 7.179,-1.199 12.047,-4.984 14.608,-11.333 -0.127,-0.244 -0.253,-0.475 -0.391,-0.671 -0.516,-0.729 -1.215,-1.264 -2.126,-1.616"
         id="path2653" />
      <path
         inkscape:connector-curvature="0"
         style="fill:none;stroke:#7f040b;stroke-width:1.847;stroke-linecap:round;stroke-linejoin:round;stroke-miterlimit:10"
         d="m 488.864,294.706 c -0.967,1.751 -2.163,3.257 -3.568,4.531 -2.575,2.32 -5.896,3.813 -9.954,4.499 -0.253,0.043 -0.508,0.089 -0.75,0.121 -0.333,0.057 -0.682,0.102 -1.015,0.158 -2.763,0.344 -5.486,0.168 -8.174,-0.504 -3.633,-0.781 -6.639,-2.251 -8.994,-4.422 -1.39,-1.289 -2.572,-2.807 -3.523,-4.567 -0.599,0.124 -1.084,0.248 -1.455,0.395 -0.914,0.341 -1.621,0.871 -2.144,1.593 -0.141,0.197 -0.268,0.427 -0.396,0.669 2.496,6.375 7.326,10.21 14.488,11.481 0.657,0.119 1.326,0.227 1.997,0.335 2.697,0.579 5.422,0.719 8.171,0.411 0.336,-0.057 0.683,-0.1 1.018,-0.146 1.224,-0.143 2.449,-0.309 3.661,-0.522 7.179,-1.199 12.047,-4.984 14.608,-11.333 -0.127,-0.244 -0.253,-0.475 -0.391,-0.671 -0.517,-0.73 -1.216,-1.266 -2.126,-1.617 -0.37,-0.151 -0.851,-0.282 -1.453,-0.411 z"
         id="path2655" />
      <path
         inkscape:connector-curvature="0"
         style="fill:#c8358d"
         d="m 495.235,261.66 c -0.986,0.849 -1.485,1.921 -1.497,3.203 0,0.497 0.077,1.018 0.226,1.583 0.414,0.164 0.83,0.385 1.24,0.676 0.542,0.372 1.086,0.848 1.613,1.44 0.751,-0.424 1.585,-0.639 2.507,-0.635 0.358,0.003 0.694,0.039 1.029,0.098 0.59,-1 1.209,-1.818 1.848,-2.448 0.312,-0.323 0.637,-0.586 0.963,-0.804 -0.213,-1.433 -1.024,-2.684 -2.452,-3.753 -1.161,-0.884 -2.409,-1.029 -3.74,-0.423 -0.681,0.308 -1.261,0.662 -1.737,1.063"
         id="path2657" />
      <path
         inkscape:connector-curvature="0"
         style="fill:#c8358d"
         d="m 503.165,264.772 c -0.327,0.218 -0.651,0.481 -0.963,0.804 -0.64,0.63 -1.259,1.448 -1.849,2.448 0.529,0.108 1.024,0.295 1.496,0.575 0.16,0.081 0.311,0.185 0.461,0.302 0.218,0.163 0.438,0.35 0.632,0.545 1,1.01 1.489,2.214 1.481,3.634 0.002,0.011 0.002,0.024 0,0.036 0.002,0.01 0.002,0.01 0.002,0.023 -0.002,0.289 -0.028,0.577 -0.075,0.864 0.589,-0.042 1.132,-0.131 1.627,-0.257 2.558,-0.645 3.988,-2.322 4.313,-5.058 0.178,-1.464 -0.311,-2.609 -1.484,-3.46 -2.025,-1.476 -3.906,-1.635 -5.641,-0.456"
         id="path2659" />
      <path
         inkscape:connector-curvature="0"
         style="fill:#c8358d"
         d="m 508.62,281.323 c 0.104,-0.162 0.187,-0.334 0.268,-0.519 1.39,-3.145 0.421,-5.495 -2.91,-7.058 -0.495,0.126 -1.037,0.215 -1.628,0.257 -0.179,1.026 -0.668,1.925 -1.444,2.695 -0.823,0.814 -1.773,1.294 -2.87,1.441 -0.222,0.02 -0.441,0.032 -0.66,0.042 0.127,0.451 0.261,0.867 0.421,1.236 0.311,0.729 0.698,1.355 1.144,1.866 1.16,1.322 2.788,1.885 4.876,1.687 1.258,-0.107 2.187,-0.658 2.803,-1.647"
         id="path2661" />
      <path
         inkscape:connector-curvature="0"
         style="fill:#ece700"
         d="m 502.311,268.902 c -0.15,-0.117 -0.301,-0.222 -0.461,-0.303 -0.472,-0.279 -0.967,-0.468 -1.496,-0.575 -0.335,-0.059 -0.671,-0.095 -1.029,-0.098 -0.922,-0.004 -1.756,0.211 -2.508,0.635 -0.406,0.216 -0.776,0.502 -1.125,0.848 -0.185,0.184 -0.349,0.379 -0.499,0.574 -0.08,0.104 -0.162,0.218 -0.233,0.333 -0.011,0.011 -0.024,0.034 -0.036,0.046 -0.498,0.783 -0.746,1.671 -0.75,2.664 -0.005,0.82 0.154,1.559 0.483,2.243 0.138,0.288 0.309,0.555 0.503,0.823 0.151,0.196 0.312,0.382 0.496,0.567 0.999,1.009 2.195,1.511 3.616,1.519 0.034,0.002 0.068,0.002 0.104,0.002 0.219,-0.01 0.438,-0.021 0.66,-0.042 1.097,-0.146 2.048,-0.626 2.87,-1.44 0.776,-0.77 1.266,-1.669 1.443,-2.695 0.05,-0.288 0.075,-0.577 0.077,-0.864 0,-0.012 0,-0.012 -0.002,-0.023 0.002,-0.012 0.002,-0.025 0,-0.036 0.008,-1.42 -0.482,-2.623 -1.481,-3.633 -0.195,-0.196 -0.415,-0.383 -0.632,-0.545 l 0,0 z"
         id="path2663" />
      <path
         inkscape:connector-curvature="0"
         style="fill:#c8358d"
         d="m 495.204,267.122 c -0.41,-0.292 -0.826,-0.512 -1.24,-0.676 -0.427,-0.164 -0.843,-0.271 -1.27,-0.318 -1.222,-0.134 -2.481,0.195 -3.781,0.984 -0.913,0.562 -1.472,1.31 -1.685,2.243 -0.083,0.334 -0.106,0.691 -0.1,1.073 0.052,1.283 0.358,2.323 0.912,3.122 0.812,1.159 2.158,1.791 4.052,1.892 0.752,0.038 1.604,-0.026 2.563,-0.17 -0.329,-0.684 -0.489,-1.423 -0.483,-2.243 0.004,-0.993 0.251,-1.88 0.749,-2.664 -0.009,-0.035 -0.031,-0.058 -0.043,-0.08 0.024,0.01 0.047,0.022 0.08,0.034 0.071,-0.115 0.153,-0.229 0.234,-0.333 0.149,-0.195 0.313,-0.39 0.5,-0.574 0.347,-0.346 0.717,-0.632 1.123,-0.848 -0.525,-0.594 -1.069,-1.07 -1.611,-1.442"
         id="path2665" />
      <path
         inkscape:connector-curvature="0"
         style="fill:#c8358d"
         d="m 495.158,276.093 c -0.193,-0.267 -0.364,-0.534 -0.502,-0.822 -0.958,0.144 -1.812,0.208 -2.564,0.17 -1.658,1.481 -2.163,3.406 -1.531,5.788 0.375,1.422 1.27,2.316 2.678,2.659 2.824,0.719 4.804,-0.148 5.936,-2.614 0.247,-0.542 0.458,-1.164 0.622,-1.856 -0.159,-0.369 -0.294,-0.786 -0.421,-1.237 -0.034,0 -0.069,0 -0.104,-0.002 -1.42,-0.007 -2.616,-0.509 -3.616,-1.518 -0.185,-0.186 -0.345,-0.371 -0.498,-0.568"
         id="path2667" />
      <path
         inkscape:connector-curvature="0"
         style="fill:none;stroke:#10491d;stroke-width:1.847;stroke-linecap:round;stroke-linejoin:round;stroke-miterlimit:10"
         d="m 478.894,291.723 c 0.404,-2.584 1.26,-5.004 2.577,-7.272 2.315,-3.994 5.576,-6.933 9.791,-8.805"
         id="path2669" />
      <path
         inkscape:connector-curvature="0"
         style="fill:none;stroke:#7a1664;stroke-width:1.847;stroke-linecap:round;stroke-linejoin:round;stroke-miterlimit:10"
         d="m 503.165,264.772 c -0.327,0.218 -0.652,0.481 -0.965,0.804 -0.638,0.63 -1.257,1.448 -1.847,2.448 m 2.812,-3.252 c 1.735,-1.18 3.616,-1.021 5.642,0.456 1.174,0.851 1.662,1.996 1.484,3.46 -0.325,2.736 -1.756,4.414 -4.313,5.058 m 0,0 c 3.331,1.564 4.3,3.914 2.91,7.06 -0.081,0.184 -0.163,0.356 -0.268,0.518 -0.616,0.99 -1.545,1.539 -2.805,1.647 -2.088,0.198 -3.716,-0.365 -4.876,-1.687 -0.447,-0.51 -0.833,-1.136 -1.143,-1.865 m -2.98,-10.857 c -0.527,-0.592 -1.07,-1.068 -1.611,-1.441 -0.411,-0.291 -0.827,-0.512 -1.242,-0.675 m 0,0 c -0.147,-0.565 -0.225,-1.086 -0.225,-1.583 0.012,-1.282 0.512,-2.354 1.497,-3.203 0.476,-0.401 1.056,-0.755 1.736,-1.064 1.33,-0.606 2.579,-0.46 3.74,0.423 1.428,1.069 2.239,2.32 2.453,3.753 m -11.072,10.669 c -1.893,-0.101 -3.238,-0.732 -4.054,-1.892 -0.55,-0.798 -0.857,-1.838 -0.909,-3.122 -0.007,-0.381 0.017,-0.738 0.1,-1.073 0.212,-0.934 0.771,-1.681 1.685,-2.243 1.299,-0.79 2.559,-1.118 3.781,-0.986 0.427,0.05 0.843,0.156 1.269,0.32 m 0.692,8.826 c -0.958,0.144 -1.813,0.21 -2.564,0.17 m 7.705,3.977 c -0.166,0.692 -0.377,1.314 -0.623,1.855 -1.132,2.466 -3.112,3.333 -5.936,2.614 -1.408,-0.343 -2.303,-1.237 -2.678,-2.658 -0.632,-2.382 -0.127,-4.308 1.531,-5.789 m 7.706,3.978 c -0.159,-0.37 -0.295,-0.786 -0.422,-1.237 m 4.974,-4.177 c 0.591,-0.042 1.133,-0.131 1.629,-0.258 m -11.055,-3.382 c -0.01,-0.034 -0.032,-0.058 -0.044,-0.081 0.023,0.011 0.047,0.022 0.08,0.036"
         id="path2671" />
      <path
         inkscape:connector-curvature="0"
         style="fill:none;stroke:#e06906;stroke-width:1.847;stroke-linecap:round;stroke-linejoin:round;stroke-miterlimit:10"
         d="m 501.85,268.6 c -0.472,-0.28 -0.967,-0.467 -1.496,-0.575 -0.335,-0.059 -0.67,-0.095 -1.029,-0.097 -0.922,-0.004 -1.756,0.211 -2.508,0.634 -0.406,0.217 -0.776,0.503 -1.125,0.849 -0.185,0.184 -0.349,0.379 -0.498,0.575 -0.081,0.103 -0.163,0.218 -0.234,0.334 -0.011,0.011 -0.024,0.034 -0.036,0.046 -0.498,0.782 -0.746,1.67 -0.75,2.663 -0.005,0.819 0.155,1.56 0.483,2.243 0.138,0.288 0.31,0.555 0.503,0.822 0.151,0.197 0.312,0.383 0.496,0.568 0.998,1.009 2.195,1.511 3.616,1.519 0.034,0 0.067,0 0.104,0 0.219,-0.01 0.438,-0.02 0.66,-0.042 1.097,-0.146 2.048,-0.625 2.871,-1.44 0.776,-0.77 1.265,-1.669 1.444,-2.695 0.047,-0.288 0.073,-0.576 0.075,-0.864 0,-0.012 0,-0.012 -0.002,-0.023 0.002,-0.012 0.002,-0.024 0,-0.036 0.008,-1.42 -0.482,-2.624 -1.481,-3.633 -0.194,-0.197 -0.414,-0.383 -0.63,-0.545 -0.153,-0.118 -0.303,-0.222 -0.463,-0.303 z"
         id="path2673" />
    </g>
  </g>
</svg>
