<?xml version="1.0" encoding="UTF-8" standalone="no"?>
<!-- Created with Inkscape (http://www.inkscape.org/) -->

<svg
   xmlns:dc="http://purl.org/dc/elements/1.1/"
   xmlns:cc="http://creativecommons.org/ns#"
   xmlns:rdf="http://www.w3.org/1999/02/22-rdf-syntax-ns#"
   xmlns:svg="http://www.w3.org/2000/svg"
   xmlns="http://www.w3.org/2000/svg"
   xmlns:sodipodi="http://sodipodi.sourceforge.net/DTD/sodipodi-0.dtd"
   xmlns:inkscape="http://www.inkscape.org/namespaces/inkscape"
   width="174.81107"
   height="211.06384"
   id="svg5696"
   version="1.1"
   inkscape:version="0.48.4 r9939"
   sodipodi:docname="bert1.svg">
  <defs
     id="defs5698" />
  <sodipodi:namedview
     id="base"
     pagecolor="#ffffff"
     bordercolor="#666666"
     borderopacity="1.0"
     inkscape:pageopacity="0.0"
     inkscape:pageshadow="2"
     inkscape:zoom="0.77472527"
     inkscape:cx="87.409752"
     inkscape:cy="105.52793"
     inkscape:current-layer="layer1"
     inkscape:document-units="px"
     showgrid="false"
     inkscape:window-width="942"
     inkscape:window-height="591"
     inkscape:window-x="412"
     inkscape:window-y="91"
     inkscape:window-maximized="0"
     fit-margin-top="0"
     fit-margin-left="0"
     fit-margin-right="0"
     fit-margin-bottom="0" />
  <metadata
     id="metadata5701">
    <rdf:RDF>
      <cc:Work
         rdf:about="">
        <dc:format>image/svg+xml</dc:format>
        <dc:type
           rdf:resource="http://purl.org/dc/dcmitype/StillImage" />
        <dc:title></dc:title>
      </cc:Work>
    </rdf:RDF>
  </metadata>
  <g
     id="layer1"
     inkscape:label="Layer 1"
     inkscape:groupmode="layer"
     transform="translate(-144.22002,20.429538)">
    <g
       transform="translate(-121.46249,-61.873538)"
       id="g2313">
      <path
         inkscape:connector-curvature="0"
         style="fill:#e06a06"
         d="m 386.698,153.052 c -0.102,-1.423 0.303,-2.585 1.204,-3.48 0.97,-0.939 2.11,-1.266 3.424,-0.997 0.657,0.262 1.174,0.676 1.559,1.222 0.09,0.16 0.181,0.32 0.255,0.479 0.202,0.436 0.271,0.839 0.223,1.226 -0.047,0.355 -0.14,0.87 -0.27,1.537 -0.121,0.66 -0.08,1.314 0.118,1.977 0.208,0.656 0.643,1.262 1.317,1.792 -0.239,-0.942 -0.196,-1.713 0.127,-2.311 0.355,-0.596 0.547,-0.942 0.572,-1.055 2.964,-0.878 6.04,-1.092 9.241,-0.62 0.008,0.007 0.008,0.007 0.023,0.009 1.521,0.267 2.584,0.757 3.191,1.495 0.453,0.696 0.534,1.596 0.246,2.717 -0.486,1.174 -1.609,1.575 -3.371,1.22 -0.094,-0.023 -0.205,-0.045 -0.306,-0.077 -2.635,-0.817 -4.671,-0.677 -6.109,0.42 1.051,0.051 2.235,0.704 3.545,1.949 2.596,2.377 3.751,4.924 3.462,7.632 -0.138,0.657 -0.502,1.276 -1.113,1.857 -0.817,0.762 -1.757,0.987 -2.832,0.66 -1.271,-0.577 -2.021,-1.714 -2.258,-3.438 -0.193,-1.193 -0.863,-2.326 -2.004,-3.39 l 0.06,0.98 c 0.264,2.507 -0.841,4.643 -3.322,6.399 -0.282,0.218 -0.694,0.444 -1.245,0.702 -0.787,0.407 -1.61,0.395 -2.47,-0.033 -0.578,-0.346 -1.05,-0.814 -1.4,-1.391 -0.303,-0.751 -0.359,-1.389 -0.171,-1.915 0.417,-0.844 0.935,-1.374 1.562,-1.577 l 0.016,0 c 1.466,-0.102 2.501,-0.607 3.101,-1.521 -3.005,0.779 -5.355,0.102 -7.059,-2.04 l -5.977,0.169 0.187,2.094 4.899,-0.285 c 0.339,0.722 1.036,1.172 2.093,1.354 -0.182,0.338 -0.297,0.558 -0.353,0.653 -0.009,0.007 -0.018,0.015 -0.019,0.031 -0.098,0.19 -0.209,0.378 -0.32,0.566 -0.106,0.197 -0.197,0.41 -0.267,0.666 -0.242,0.677 -0.278,1.367 -0.099,2.062 0.058,0.264 0.142,0.505 0.267,0.725 0.532,1.059 1.325,1.89 2.378,2.494 0.015,0 0.03,0.018 0.029,0.033 1.528,0.829 3.208,0.748 5.04,-0.276 1.856,-1.014 3.164,-2.518 3.896,-4.523 0.472,2.056 1.493,3.194 3.052,3.399 2.676,0.258 4.641,-0.823 5.909,-3.266 1.181,-2.757 0.622,-5.631 -1.681,-8.625 2.71,0.302 4.404,-0.69 5.106,-2.981 -0.006,-0.024 0.004,-0.049 0.006,-0.064 0.559,-2.031 0.346,-3.64 -0.631,-4.833 -0.817,-1.199 -2.357,-1.987 -4.605,-2.382 l -0.048,0.014 c -2.852,-0.434 -6.11,-0.33 -9.792,0.327 -0.282,-2.386 -1.41,-3.792 -3.366,-4.217 -1.882,-0.354 -3.545,0.086 -4.979,1.313 -1.856,1.853 -2.448,4.346 -1.759,7.498 l -5.133,0.026 0.253,1.887 6.604,0.002 c 0.207,-0.915 0.227,-1.98 0.067,-3.202 -0.039,-0.386 -0.062,-0.753 -0.073,-1.087"
         id="path2315" />
      <path
         inkscape:connector-curvature="0"
         style="fill:#fcdf00"
         d="m 387.903,149.571 c -0.902,0.896 -1.307,2.058 -1.205,3.48 0.011,0.334 0.034,0.701 0.074,1.087 0.158,1.222 0.139,2.287 -0.069,3.202 l -6.602,-0.001 -0.064,6.311 5.976,-0.169 c 1.704,2.142 4.055,2.819 7.06,2.041 -0.6,0.914 -1.635,1.418 -3.101,1.521 l -0.017,0 c -0.625,0.204 -1.144,0.733 -1.561,1.577 -0.189,0.526 -0.133,1.164 0.171,1.916 0.351,0.575 0.822,1.044 1.4,1.39 0.86,0.428 1.684,0.44 2.47,0.033 0.552,-0.258 0.963,-0.484 1.246,-0.702 2.48,-1.757 3.585,-3.892 3.321,-6.398 l -0.059,-0.98 c 1.14,1.065 1.811,2.197 2.003,3.39 0.235,1.723 0.986,2.861 2.258,3.438 1.075,0.328 2.015,0.103 2.833,-0.66 0.61,-0.581 0.976,-1.201 1.112,-1.859 0.29,-2.707 -0.866,-5.253 -3.462,-7.631 -1.309,-1.245 -2.494,-1.898 -3.545,-1.949 1.438,-1.097 3.476,-1.237 6.109,-0.42 0.102,0.031 0.212,0.054 0.306,0.076 1.762,0.355 2.885,-0.045 3.371,-1.219 0.289,-1.121 0.207,-2.021 -0.246,-2.718 -0.607,-0.738 -1.67,-1.228 -3.19,-1.495 -0.017,-0.001 -0.017,-0.001 -0.025,-0.009 -3.199,-0.471 -6.275,-0.258 -9.24,0.62 -0.026,0.113 -0.216,0.459 -0.571,1.055 -0.324,0.597 -0.366,1.368 -0.128,2.31 -0.674,-0.529 -1.11,-1.135 -1.317,-1.792 -0.199,-0.663 -0.239,-1.317 -0.118,-1.976 0.13,-0.667 0.223,-1.183 0.27,-1.538 0.049,-0.387 -0.021,-0.79 -0.222,-1.226 -0.075,-0.16 -0.165,-0.32 -0.256,-0.479 -0.385,-0.546 -0.901,-0.96 -1.56,-1.222 -1.312,-0.269 -2.453,0.058 -3.422,0.996"
         id="path2317" />
      <path
         inkscape:connector-curvature="0"
         style="fill:#d04315"
         d="m 407.363,169.164 c 0,-0.016 0.01,-0.024 0.018,-0.031 -0.016,0 -0.031,-0.002 -0.039,0.005 l 0.021,0.026 z"
         id="path2319" />
      <path
         inkscape:connector-curvature="0"
         style="fill:#003c90"
         d="m 333.383,168.456 c 0.123,0.158 0.279,0.265 0.46,0.319 16.939,5.348 33.474,7.453 49.599,6.324 0.244,-0.02 0.45,-0.108 0.622,-0.294 0.171,-0.185 0.26,-0.398 0.257,-0.645 l 0.253,-20.781 c 0,-0.188 -0.049,-0.367 -0.158,-0.544 -0.107,-0.16 -0.247,-0.271 -0.44,-0.348 -0.177,-0.078 -0.368,-0.094 -0.557,-0.051 -13.337,2.913 -26.808,2.796 -40.438,-0.352 -0.204,-0.041 -0.406,-0.021 -0.595,0.065 -0.19,0.086 -0.336,0.215 -0.443,0.389 l -8.635,14.854 c -0.105,0.174 -0.141,0.352 -0.131,0.545 0.019,0.202 0.094,0.369 0.206,0.519 m 13.898,1.944 c -0.026,-0.003 -0.052,-0.007 -0.062,-0.014 -3.873,-0.84 -7.762,-1.868 -11.668,-3.078 l 7.688,-13.21 c 2.253,0.503 4.494,0.925 6.736,1.26 0.026,0.003 0.045,0.016 0.062,0.013 2.708,0.413 5.396,0.709 8.086,0.876 0.017,-0.003 0.036,0.011 0.053,0.008 2.976,0.192 5.958,0.23 8.932,0.13 2.824,-0.086 5.622,-0.306 8.396,-0.658 0.016,-0.004 0.05,-0.01 0.066,-0.013 2.367,-0.287 4.733,-0.675 7.087,-1.173 l -0.227,18.714 c -2.012,0.128 -4.043,0.199 -6.072,0.227 -0.017,0.004 -0.042,0 -0.06,0.002 -2.867,0.028 -5.743,-0.037 -8.625,-0.222 -0.016,0.003 -0.016,0.003 -0.031,0.005 -0.278,-0.017 -0.554,-0.036 -0.841,-0.06 -0.086,-0.001 -0.172,-0.003 -0.267,-0.012 0,0 -0.009,-0.007 -0.026,-0.003 l -0.008,0.241 c 10e-4,-0.086 0.003,-0.172 0.008,-0.241 -3.273,-0.224 -6.57,-0.581 -9.885,-1.08 l -0.006,0.011 -0.003,-0.016 c -3.102,-0.45 -6.214,-1.011 -9.333,-1.707"
         id="path2321" />
      <path
         inkscape:connector-curvature="0"
         style="fill:#9ac843"
         d="m 347.218,170.386 c 0.01,0.007 0.037,0.011 0.062,0.014 3.119,0.697 6.231,1.257 9.333,1.709 l 0.002,0.016 0.007,-0.011 1.552,-15.86 c -0.017,0.003 -0.036,-0.011 -0.052,-0.008 -2.69,-0.167 -5.378,-0.463 -8.086,-0.876 -0.017,0.003 -0.036,-0.01 -0.062,-0.013 l -2.756,15.029 z"
         id="path2323" />
      <path
         inkscape:connector-curvature="0"
         style="fill:#df6513"
         d="m 349.975,155.357 c -2.242,-0.335 -4.482,-0.756 -6.737,-1.259 l -7.688,13.209 c 3.906,1.21 7.795,2.237 11.668,3.078 l 2.757,-15.028 z"
         id="path2325" />
      <path
         inkscape:connector-curvature="0"
         style="fill:#9ac843"
         d="m 367.641,173.27 c 0.016,-0.003 0.016,-0.003 0.032,-0.006 2.882,0.185 5.758,0.25 8.626,0.223 0.016,-0.003 0.042,0.001 0.059,-0.003 l -0.789,-17.768 c -0.016,0.003 -0.049,0.009 -0.065,0.013 -2.774,0.353 -5.573,0.571 -8.396,0.659 l -0.581,16.36 c 0.003,0.016 0.013,0.023 0.02,0.014 l 0.017,-0.003 c -0.014,0.165 -0.019,0.319 -0.031,0.44 0.095,0.01 0.181,0.011 0.267,0.012 0.286,0.022 0.564,0.041 0.841,0.059 m -1.035,-1.077 0.042,0 c -0.02,0.029 -0.033,0.049 -0.044,0.085 l 0.002,-0.085 z"
         id="path2327" />
      <path
         inkscape:connector-curvature="0"
         style="fill:#0e5cab"
         d="m 366.564,172.757 -0.017,0.003 c -0.007,0.009 -0.017,0.001 -0.02,-0.014 l 0.581,-16.36 c -2.975,0.098 -5.957,0.061 -8.933,-0.131 l -1.552,15.86 c 3.313,0.499 6.611,0.854 9.883,1.079 0.017,-0.003 0.027,0.002 0.027,0.002 0.012,-0.12 0.017,-0.274 0.031,-0.439"
         id="path2329" />
      <path
         inkscape:connector-curvature="0"
         style="fill:#df6513"
         d="m 382.658,154.541 c -2.355,0.498 -4.721,0.887 -7.088,1.173 l 0.788,17.768 c 2.029,-0.027 4.06,-0.099 6.073,-0.227 l 0.227,-18.714 z"
         id="path2331" />
      <path
         inkscape:connector-curvature="0"
         style="fill:#818098"
         d="m 400.175,121.544 c -0.007,0.775 0.021,1.536 0.071,2.293 0.054,0.782 0.059,1.556 0.027,2.333 -0.021,0.741 -0.212,1.459 -0.549,2.143 -0.316,0.634 -0.773,1.16 -1.346,1.565 -0.53,0.366 -1.089,0.674 -1.689,0.903 -0.61,0.253 -1.207,0.529 -1.802,0.828 -0.595,0.3 -1.163,0.622 -1.707,0.965 -0.599,0.396 -1.169,0.848 -1.71,1.358 -0.453,0.43 -0.83,0.915 -1.143,1.454 1.292,0.619 2.707,1.156 4.234,1.613 0.549,0.156 1.107,0.289 1.666,0.409 0.242,-0.39 0.521,-0.758 0.852,-1.083 0.506,-0.507 1.052,-0.958 1.626,-1.351 0.532,-0.342 1.077,-0.661 1.66,-0.96 0.583,-0.298 1.167,-0.573 1.754,-0.825 0.589,-0.228 1.135,-0.536 1.642,-0.899 0.551,-0.402 0.971,-0.926 1.265,-1.559 0.288,-0.679 0.432,-1.394 0.405,-2.13 -0.016,-0.773 -0.068,-1.544 -0.168,-2.322 -0.1,-0.754 -0.174,-1.511 -0.215,-2.281 -0.052,-0.771 -0.032,-1.546 0.033,-2.327 0.052,-0.528 0.14,-1.048 0.252,-1.557 -1.261,-1.266 -2.683,-2.458 -4.266,-3.577 -0.049,0.123 -0.087,0.245 -0.136,0.369 -0.259,0.749 -0.446,1.515 -0.571,2.299 -0.112,0.784 -0.178,1.564 -0.185,2.339"
         id="path2333" />
      <path
         inkscape:connector-curvature="0"
         style="fill:#d6d6e4"
         d="m 400.246,123.838 c -0.051,-0.759 -0.079,-1.519 -0.071,-2.293 0.007,-0.775 0.073,-1.556 0.187,-2.34 0.125,-0.785 0.312,-1.551 0.57,-2.3 0.05,-0.123 0.088,-0.245 0.137,-0.368 -0.975,-0.683 -1.994,-1.336 -3.082,-1.959 -4.337,-2.142 -8.231,-2.699 -11.696,-1.661 -0.731,0.216 -1.435,0.5 -2.121,0.855 -0.545,0.319 -1.029,0.669 -1.449,1.05 -0.408,0.404 -0.776,0.839 -1.082,1.33 -0.485,0.755 -0.848,1.548 -1.09,2.367 -0.309,1.014 -0.434,2.085 -0.377,3.201 0.093,1.839 0.538,3.602 1.332,5.263 1.718,3.61 4.668,6.403 8.825,8.404 0.313,-0.539 0.69,-1.022 1.143,-1.453 0.542,-0.51 1.111,-0.962 1.71,-1.358 0.544,-0.342 1.112,-0.665 1.707,-0.964 0.596,-0.299 1.191,-0.576 1.803,-0.829 0.6,-0.229 1.158,-0.537 1.688,-0.902 0.573,-0.406 1.03,-0.932 1.347,-1.566 0.337,-0.684 0.527,-1.402 0.55,-2.143 0.028,-0.778 0.023,-1.552 -0.031,-2.334"
         id="path2335" />
      <path
         inkscape:connector-curvature="0"
         style="fill:#d6d6e4"
         d="m 405.334,120.114 c -0.112,0.509 -0.2,1.03 -0.252,1.557 -0.065,0.78 -0.084,1.557 -0.033,2.327 0.041,0.771 0.116,1.528 0.215,2.282 0.1,0.779 0.152,1.549 0.168,2.322 0.026,0.736 -0.117,1.451 -0.406,2.13 -0.292,0.632 -0.712,1.156 -1.264,1.559 -0.506,0.363 -1.052,0.67 -1.642,0.898 -0.587,0.251 -1.17,0.527 -1.754,0.826 -0.583,0.299 -1.128,0.618 -1.66,0.96 -0.574,0.394 -1.12,0.844 -1.626,1.351 -0.331,0.325 -0.609,0.694 -0.852,1.084 6.081,1.341 12.557,0.98 19.437,-1.105 1.696,-0.522 2.826,-1.117 3.391,-1.772 0.212,-0.769 -0.383,-1.327 -1.771,-1.675 -2.175,-0.499 -4.04,-1.726 -5.621,-3.691 -0.479,-0.616 -0.903,-1.26 -1.28,-1.931 -0.252,-0.443 -0.49,-0.876 -0.729,-1.321 -0.241,-0.445 -0.492,-0.889 -0.743,-1.333 -1.003,-1.584 -2.188,-3.071 -3.578,-4.468"
         id="path2337" />
      <path
         inkscape:connector-curvature="0"
         style="fill:none;stroke:#3c3c4a;stroke-width:1.42509997;stroke-linecap:round;stroke-linejoin:round;stroke-miterlimit:10"
         d="m 401.068,116.537 c -0.975,-0.682 -1.993,-1.336 -3.082,-1.96 -4.337,-2.141 -8.231,-2.699 -11.696,-1.66 -0.732,0.215 -1.435,0.5 -2.121,0.854 -0.545,0.32 -1.029,0.67 -1.449,1.051 -0.407,0.402 -0.776,0.838 -1.081,1.329 -0.485,0.755 -0.849,1.548 -1.09,2.367 -0.309,1.014 -0.434,2.086 -0.378,3.201 0.094,1.839 0.538,3.601 1.331,5.262 1.719,3.611 4.669,6.404 8.827,8.406 1.29,0.619 2.706,1.156 4.233,1.613 0.549,0.157 1.108,0.29 1.666,0.41 6.081,1.341 12.557,0.98 19.437,-1.104 1.696,-0.523 2.826,-1.117 3.392,-1.772 0.21,-0.769 -0.385,-1.326 -1.772,-1.675 -2.174,-0.498 -4.039,-1.726 -5.62,-3.69 -0.479,-0.615 -0.903,-1.26 -1.281,-1.932 -0.252,-0.443 -0.489,-0.876 -0.73,-1.321 -0.238,-0.445 -0.489,-0.889 -0.741,-1.333 -1.002,-1.585 -2.187,-3.071 -3.577,-4.469 -1.263,-1.265 -2.685,-2.458 -4.268,-3.577 z"
         id="path2339" />
      <path
         inkscape:connector-curvature="0"
         style="fill:#8f4711"
         d="m 402.454,147.935 c -0.06,-0.029 -0.106,-0.037 -0.163,-0.043 l -3.647,-0.035 c -1.428,-0.019 -2.771,0.162 -4.019,0.537 -1.294,0.368 -1.991,0.969 -2.104,1.782 -0.111,0.564 0.045,0.948 0.458,1.151 0.227,0.14 0.56,0.202 0.999,0.177 l 0.073,0.062 c 0.254,0.33 0.76,0.423 1.508,0.305 l 0.44,-0.15 0.521,0.137 c 0.309,0.032 0.632,-0.019 0.985,-0.126 h -0.012 c 0.94,-0.27 1.895,-0.508 2.84,-0.7 l -0.012,10e-4 c 0.659,-0.111 1.245,-0.138 1.762,-0.056 l 0.011,-0.001 c 1.19,0.162 1.971,0.006 2.326,-0.464 0.053,-0.062 0.081,-0.121 0.099,-0.19 0.275,-0.919 -0.415,-1.722 -2.065,-2.387 m -3.814,0.826 3.569,0.042 c 0.913,0.377 1.388,0.768 1.434,1.184 -0.27,0.146 -0.754,0.188 -1.429,0.095 l 0.011,0 c -0.608,-0.097 -1.286,-0.085 -2.056,0.058 -0.012,0 -0.012,0 -0.021,0.013 -0.98,0.206 -1.945,0.445 -2.907,0.717 l -0.011,0 c -0.644,0.166 -0.994,0.151 -1.046,-0.048 l 0.037,-0.106 c 0.198,-0.48 0.788,-0.868 1.772,-1.143 -1.476,-0.318 -2.383,0.063 -2.71,1.165 -0.026,0.093 -0.03,0.184 -0.012,0.261 -0.292,0.036 -0.466,-0.007 -0.53,-0.103 -0.013,-0.011 -0.014,-0.021 -0.015,-0.033 -10e-4,-0.022 -0.003,-0.044 -0.004,-0.056 l -10e-4,-0.012 c -0.018,-0.622 0.431,-1.077 1.335,-1.356 -0.509,-0.138 -1.013,-0.073 -1.522,0.195 -0.434,0.229 -0.667,0.554 -0.712,0.964 -0.169,0.003 -0.306,-0.008 -0.4,-0.056 -0.038,-0.043 -0.043,-0.11 -0.016,-0.191 0.129,-0.486 0.619,-0.855 1.47,-1.096 l 0.012,0 c 1.169,-0.357 2.413,-0.519 3.739,-0.492 l 0.013,-0.002 z"
         id="path2341" />
      <path
         inkscape:connector-curvature="0"
         style="fill:#fcd054"
         d="m 402.209,148.802 -3.569,-0.042 -0.011,0.001 c -1.327,-0.027 -2.57,0.134 -3.74,0.492 l -0.012,0 c -0.851,0.241 -1.342,0.61 -1.47,1.096 -0.028,0.081 -0.021,0.148 0.015,0.191 0.096,0.048 0.232,0.06 0.401,0.056 0.046,-0.41 0.278,-0.735 0.713,-0.964 0.509,-0.269 1.014,-0.333 1.522,-0.195 -0.905,0.279 -1.354,0.735 -1.337,1.356 l 10e-4,0.012 c 0.001,0.011 0.004,0.033 0.006,0.056 0,0.012 0.002,0.021 0.015,0.033 0.063,0.096 0.237,0.139 0.528,0.103 -0.018,-0.077 -0.014,-0.168 0.013,-0.261 0.326,-1.102 1.234,-1.483 2.71,-1.165 -0.985,0.275 -1.575,0.663 -1.773,1.143 l -0.035,0.106 c 0.05,0.199 0.401,0.214 1.045,0.048 l 0.011,0 c 0.962,-0.272 1.928,-0.511 2.907,-0.717 0.01,-0.013 0.01,-0.013 0.021,-0.013 0.77,-0.144 1.447,-0.155 2.055,-0.058 l -0.01,0 c 0.675,0.092 1.158,0.051 1.429,-0.095 -0.047,-0.414 -0.522,-0.805 -1.435,-1.183"
         id="path2343" />
      <path
         inkscape:connector-curvature="0"
         style="fill:#d6d6e4"
         d="m 402.283,148.571 c 2.943,-2.441 3.967,-5.525 3.057,-9.242 -3.498,0.801 -6.882,1.908 -10.125,3.321 3.099,1.87 4.378,3.778 3.828,5.738 1.081,0.351 2.163,0.42 3.24,0.183"
         id="path2345" />
      <path
         inkscape:connector-curvature="0"
         style="fill:none;stroke:#3c3c4a;stroke-width:1.35389996;stroke-linecap:round;stroke-linejoin:round;stroke-miterlimit:10"
         d="m 405.34,139.329 c -3.497,0.8 -6.882,1.908 -10.125,3.32 3.099,1.871 4.378,3.778 3.827,5.738 1.083,0.352 2.163,0.42 3.241,0.183 2.944,-2.44 3.967,-5.525 3.057,-9.241 z"
         id="path2347" />
      <path
         inkscape:connector-curvature="0"
         style="fill:#818098"
         d="m 393.592,92.903 c -1.949,-1.661 -4.152,-2.36 -6.623,-2.118 -2.47,0.241 -4.485,1.363 -6.023,3.361 -1.562,2.001 -2.205,4.294 -1.93,6.881 0.077,0.78 0.233,1.517 0.47,2.202 0.172,0.497 0.342,0.96 0.534,1.408 0.354,0.96 0.65,1.948 0.865,2.955 0.04,0.188 0.079,0.375 0.107,0.563 0.069,0.411 0.141,0.834 0.187,1.249 0.039,0.33 0.079,0.66 0.094,0.993 0.002,0.167 0.016,0.332 0.03,0.498 -0.003,0.096 0.005,0.191 0,0.286 -0.002,0.262 -0.003,0.524 -0.018,0.788 -0.017,0.371 -0.032,0.753 -0.049,1.124 -0.055,0.779 -0.158,1.55 -0.296,2.312 -0.318,1.779 -0.768,3.519 -1.353,5.225 -0.595,1.729 -0.97,3.524 -1.126,5.36 -0.125,1.511 -0.023,3.017 0.304,4.515 0.017,0.058 0.022,0.129 0.04,0.188 0.328,0.079 0.645,0.161 0.973,0.24 1.262,0.276 2.536,0.409 3.834,0.396 1.296,-0.025 2.558,-0.189 3.809,-0.483 1.318,-0.335 2.578,-0.799 3.782,-1.375 1.178,-0.586 2.314,-1.252 3.406,-2.011 1.295,-0.906 2.487,-1.911 3.596,-3.04 1.066,-1.078 2.081,-2.199 3.033,-3.362 0.854,-1.037 1.812,-2.272 2.862,-3.693 -0.989,-1.289 -1.898,-2.619 -2.739,-3.99 -1.293,-2.085 -2.309,-4.264 -3.034,-6.527 -0.433,-1.335 -0.76,-2.701 -0.984,-4.101 l -0.415,-3.277 c -0.018,-0.071 -0.022,-0.13 -0.027,-0.188 -0.277,-2.592 -1.372,-4.717 -3.309,-6.379"
         id="path2349" />
      <path
         inkscape:connector-curvature="0"
         style="fill:#d6d6e4"
         d="m 431.853,137.023 c 0.219,-0.09 0.449,-0.193 0.666,-0.294 -2.438,-0.524 -4.951,-1.375 -7.565,-2.575 -7.521,-3.891 -13.672,-8.515 -18.443,-13.885 -0.562,1.561 -1.184,2.971 -1.865,4.231 -0.681,1.26 -1.452,2.455 -2.32,3.613 -0.867,1.18 -1.821,2.308 -2.841,3.382 -0.934,0.959 -1.946,1.806 -3.041,2.552 -1.15,0.762 -2.36,1.411 -3.625,1.958 -1.243,0.521 -2.522,0.901 -3.827,1.117 -1.279,0.238 -2.546,0.331 -3.826,0.271 -1.123,-0.026 -2.221,-0.185 -3.306,-0.487 3.27,4.208 8.181,6.527 14.734,6.947 7.779,0.271 14.298,-1.143 19.535,-4.223 l -0.383,-0.587 0.612,-0.385 c 0.814,-0.521 1.822,-1.283 3.013,-2.3 l 0.547,-0.451 c -0.173,1.515 -1.089,2.819 -2.747,3.923 0.451,0.558 0.887,1.07 1.318,1.534 1.33,0.235 2.348,-0.279 3.054,-1.541 4.044,0.771 5.759,0.057 5.134,-2.167 1.756,0.224 3.479,0.021 5.176,-0.633"
         id="path2351" />
      <path
         inkscape:connector-curvature="0"
         style="fill:#818098"
         d="m 432.519,136.729 c -0.218,0.101 -0.447,0.204 -0.665,0.294 -1.698,0.653 -3.42,0.856 -5.179,0.632 0.625,2.225 -1.09,2.938 -5.135,2.167 -0.705,1.262 -1.723,1.775 -3.053,1.541 0.679,0.718 1.336,1.307 1.959,1.767 1.757,0.795 3.196,0.485 4.33,-0.932 4.232,1.173 6.188,0.618 5.843,-1.677 1.857,0.405 3.748,0.368 5.673,-0.115 0.245,-0.067 0.502,-0.137 0.758,-0.218 0.863,-0.358 1.535,-0.734 2.003,-1.119 0.323,-0.266 0.551,-0.535 0.684,-0.82 0.25,-0.545 -0.393,-0.849 -1.924,-0.913 -1.717,-0.01 -3.487,-0.221 -5.294,-0.607"
         id="path2353" />
      <path
         inkscape:connector-curvature="0"
         style="fill:#3c3c4a"
         d="m 415.744,139.043 0.383,0.588 0.385,0.611 0.601,-0.373 c 0.011,-0.012 0.033,-0.026 0.056,-0.039 1.66,-1.104 2.575,-2.408 2.748,-3.923 l -0.547,0.45 c -1.19,1.018 -2.198,1.78 -3.013,2.301 l -0.613,0.385 z"
         id="path2355" />
      <path
         inkscape:connector-curvature="0"
         style="fill:#f2eff7"
         d="m 404.645,124.5 c 0.682,-1.26 1.303,-2.671 1.865,-4.23 -0.854,-0.942 -1.648,-1.912 -2.412,-2.909 -1.049,1.421 -2.007,2.656 -2.861,3.693 -0.951,1.163 -1.966,2.285 -3.033,3.362 -1.108,1.129 -2.301,2.134 -3.595,3.04 -1.093,0.759 -2.229,1.425 -3.407,2.012 -1.203,0.576 -2.464,1.039 -3.783,1.375 -1.249,0.294 -2.511,0.458 -3.808,0.483 -1.298,0.013 -2.572,-0.12 -3.835,-0.396 -0.327,-0.079 -0.644,-0.16 -0.972,-0.24 0.379,1.411 0.95,2.816 1.696,4.197 0.417,0.716 0.865,1.381 1.359,2.019 1.085,0.303 2.183,0.461 3.306,0.487 1.28,0.061 2.547,-0.033 3.826,-0.27 1.305,-0.216 2.583,-0.596 3.827,-1.118 1.265,-0.545 2.474,-1.194 3.626,-1.957 1.094,-0.746 2.106,-1.593 3.041,-2.553 1.019,-1.074 1.973,-2.202 2.84,-3.382 0.867,-1.156 1.639,-2.353 2.32,-3.613"
         id="path2357" />
      <path
         inkscape:connector-curvature="0"
         style="fill:none;stroke:#3c3c4a;stroke-width:0.71219999;stroke-linecap:round;stroke-linejoin:round;stroke-miterlimit:10"
         d="m 381.311,136.772 c 0.183,0.044 0.364,0.089 0.547,0.133"
         id="path2359" />
      <path
         inkscape:connector-curvature="0"
         style="fill:none;stroke:#3c3c4a;stroke-width:1.42509997;stroke-linecap:round;stroke-linejoin:round;stroke-miterlimit:10"
         d="m 417.168,139.83 c 0.452,0.558 0.888,1.07 1.319,1.534 0.68,0.718 1.336,1.307 1.959,1.767 1.757,0.795 3.196,0.485 4.331,-0.932 4.231,1.174 6.188,0.617 5.842,-1.677 1.855,0.405 3.748,0.367 5.673,-0.115 0.245,-0.068 0.502,-0.137 0.758,-0.219 0.863,-0.357 1.535,-0.734 2.003,-1.119 0.324,-0.266 0.551,-0.535 0.684,-0.82 0.25,-0.545 -0.394,-0.849 -1.924,-0.912 -1.717,-0.012 -3.486,-0.223 -5.294,-0.609 -2.438,-0.524 -4.952,-1.375 -7.565,-2.575 -7.521,-3.89 -13.672,-8.514 -18.444,-13.884 -0.853,-0.942 -1.648,-1.912 -2.41,-2.909 -0.989,-1.289 -1.897,-2.618 -2.739,-3.99 -1.293,-2.085 -2.309,-4.264 -3.033,-6.527 -0.434,-1.335 -0.761,-2.701 -0.985,-4.101 l -0.415,-3.278 c -0.019,-0.07 -0.022,-0.129 -0.027,-0.188 -0.274,-2.587 -1.369,-4.711 -3.307,-6.374 -1.949,-1.661 -4.151,-2.36 -6.623,-2.118 -2.471,0.241 -4.485,1.363 -6.023,3.361 -1.562,2.001 -2.205,4.294 -1.93,6.881 0.077,0.78 0.234,1.517 0.469,2.202 0.172,0.497 0.342,0.96 0.534,1.409 0.354,0.959 0.65,1.948 0.865,2.955 0.04,0.187 0.079,0.374 0.107,0.562 0.069,0.412 0.142,0.835 0.187,1.248 0.04,0.33 0.08,0.661 0.095,0.993 0.002,0.167 0.016,0.332 0.03,0.498 -0.004,0.096 0.004,0.191 0,0.286 -0.002,0.262 -0.004,0.524 -0.018,0.788 -0.018,0.371 -0.033,0.754 -0.049,1.124 -0.055,0.779 -0.158,1.551 -0.297,2.312 -0.316,1.778 -0.767,3.519 -1.353,5.225 -0.595,1.73 -0.97,3.524 -1.126,5.36 -0.125,1.511 -0.023,3.017 0.304,4.515 0.017,0.057 0.023,0.129 0.04,0.187 0.379,1.411 0.949,2.816 1.695,4.197 0.417,0.716 0.866,1.381 1.359,2.02 3.271,4.208 8.182,6.528 14.734,6.948 7.779,0.271 14.299,-1.142 19.535,-4.223"
         id="path2361" />
      <path
         inkscape:connector-curvature="0"
         style="fill:#8f4711"
         d="m 407.953,148.39 c -0.063,-0.03 -0.111,-0.038 -0.17,-0.045 l -3.841,-0.037 c -1.503,-0.019 -2.917,0.17 -4.229,0.565 -1.362,0.388 -2.097,1.021 -2.217,1.876 -0.116,0.594 0.049,0.997 0.482,1.211 0.238,0.147 0.59,0.213 1.053,0.187 l 0.077,0.065 c 0.267,0.347 0.799,0.446 1.587,0.321 l 0.463,-0.158 0.549,0.146 c 0.325,0.033 0.666,-0.02 1.038,-0.133 l -0.013,0.001 c 0.989,-0.286 1.993,-0.536 2.989,-0.737 l -0.012,0 c 0.693,-0.118 1.311,-0.144 1.854,-0.059 l 0.013,-0.002 c 1.252,0.17 2.073,0.007 2.448,-0.489 0.055,-0.064 0.084,-0.127 0.104,-0.199 0.289,-0.965 -0.437,-1.812 -2.175,-2.513 m -4.015,0.871 3.759,0.044 c 0.96,0.397 1.46,0.808 1.509,1.245 -0.285,0.154 -0.794,0.198 -1.505,0.102 l 0.011,-10e-4 c -0.639,-0.102 -1.354,-0.089 -2.163,0.062 -0.011,0 -0.011,0 -0.022,0.014 -1.03,0.216 -2.046,0.468 -3.059,0.754 l -0.012,0 c -0.677,0.176 -1.048,0.159 -1.101,-0.05 l 0.039,-0.11 c 0.208,-0.507 0.829,-0.916 1.864,-1.206 -1.553,-0.333 -2.508,0.066 -2.853,1.228 -0.027,0.097 -0.031,0.193 -0.013,0.274 -0.307,0.038 -0.488,-0.007 -0.557,-0.108 -0.013,-0.011 -0.015,-0.022 -0.015,-0.036 -0.003,-0.023 -0.005,-0.046 -0.005,-0.058 l -0.002,-0.012 c -0.019,-0.653 0.454,-1.134 1.407,-1.428 -0.537,-0.146 -1.067,-0.078 -1.604,0.205 -0.456,0.241 -0.701,0.583 -0.75,1.016 -0.177,0.002 -0.321,-0.009 -0.421,-0.061 -0.039,-0.044 -0.045,-0.115 -0.018,-0.202 0.137,-0.511 0.652,-0.899 1.549,-1.152 l 0.013,0 c 1.231,-0.377 2.539,-0.546 3.936,-0.52 h 0.013 z"
         id="path2363" />
      <path
         inkscape:connector-curvature="0"
         style="fill:#fcd054"
         d="m 407.695,149.305 -3.758,-0.044 -0.011,0 c -1.397,-0.026 -2.706,0.142 -3.937,0.52 l -0.012,0 c -0.896,0.253 -1.413,0.642 -1.549,1.152 -0.028,0.086 -0.023,0.157 0.017,0.201 0.1,0.052 0.244,0.064 0.422,0.061 0.048,-0.433 0.293,-0.775 0.75,-1.015 0.536,-0.284 1.066,-0.352 1.603,-0.206 -0.952,0.294 -1.425,0.775 -1.406,1.428 l 0.002,0.012 c 0.001,0.012 0.003,0.036 0.005,0.059 10e-4,0.013 0.002,0.024 0.015,0.036 0.068,0.101 0.251,0.145 0.558,0.107 -0.019,-0.081 -0.016,-0.177 0.012,-0.274 0.346,-1.162 1.301,-1.562 2.853,-1.228 -1.036,0.29 -1.656,0.699 -1.865,1.206 l -0.038,0.109 c 0.053,0.21 0.423,0.227 1.1,0.051 l 0.013,0 c 1.013,-0.287 2.028,-0.539 3.059,-0.754 0.012,-0.014 0.012,-0.014 0.022,-0.014 0.81,-0.151 1.524,-0.163 2.163,-0.062 l -0.011,0.001 c 0.711,0.096 1.22,0.054 1.505,-0.102 -0.051,-0.436 -0.551,-0.847 -1.512,-1.244"
         id="path2365" />
      <path
         inkscape:connector-curvature="0"
         style="fill:#d6d6e4"
         d="m 410.554,139.068 c -3.683,0.843 -7.242,2.008 -10.657,3.496 3.263,1.969 4.608,3.978 4.029,6.04 1.139,0.37 2.275,0.442 3.412,0.192 3.099,-2.569 4.175,-5.816 3.216,-9.728"
         id="path2367" />
      <path
         inkscape:connector-curvature="0"
         style="fill:none;stroke:#3c3c4a;stroke-width:1.42509997;stroke-linecap:round;stroke-linejoin:round;stroke-miterlimit:10"
         d="m 399.896,142.563 c 3.262,1.969 4.608,3.978 4.028,6.04 1.14,0.37 2.276,0.442 3.413,0.193 3.097,-2.569 4.175,-5.815 3.216,-9.728 -3.681,0.842 -7.241,2.008 -10.657,3.495 z"
         id="path2369" />
      <path
         inkscape:connector-curvature="0"
         style="fill:#d6d6e4"
         d="m 416.344,138.659 0.013,-0.001 0.01,-0.014 c 0.713,-0.452 1.554,-1.082 2.547,-1.903 0.344,-0.588 0.852,-1.214 1.522,-1.889 0.494,-0.506 0.988,-1.012 1.469,-1.528 -6.114,-3.471 -11.25,-7.477 -15.404,-12.004 -0.481,1.22 -0.996,2.335 -1.543,3.358 -0.693,1.261 -1.473,2.481 -2.341,3.65 -0.89,1.193 -1.844,2.334 -2.873,3.42 -0.956,0.974 -1.979,1.845 -3.098,2.593 l 0.002,0.012 c -1.175,0.777 -2.406,1.439 -3.683,1.987 -1.279,0.535 -2.582,0.917 -3.909,1.135 -1.303,0.24 -2.605,0.336 -3.91,0.278 h 0.012 c -0.596,-0.011 -1.185,-0.069 -1.764,-0.152 3.137,3.326 7.556,5.174 13.247,5.547 l -0.024,0.002 c 7.922,0.269 14.493,-1.231 19.727,-4.491"
         id="path2371" />
      <path
         inkscape:connector-curvature="0"
         style="fill:none;stroke:#3c3c4a;stroke-width:1.18770003;stroke-linecap:round;stroke-linejoin:round;stroke-miterlimit:10"
         d="m 379.443,96.533 c -0.758,0.195 -1.388,0.64 -1.89,1.337 -0.643,0.875 -0.916,1.887 -0.819,3.047 0.095,1.148 0.533,2.1 1.31,2.858 0.585,0.583 1.255,0.908 1.99,1.001"
         id="path2373" />
      <path
         inkscape:connector-curvature="0"
         style="fill:#ffffff"
         d="m 386.829,96.229 c -1.064,0.089 -1.934,0.53 -2.617,1.337 -0.229,0.27 -0.407,0.547 -0.548,0.856 l -0.285,0.596 -0.343,-0.556 c -0.167,-0.284 -0.366,-0.529 -0.6,-0.76 -0.688,-0.681 -1.488,-0.984 -2.387,-0.909 -0.911,0.076 -1.638,0.505 -2.205,1.292 -0.588,0.8 -0.844,1.726 -0.755,2.804 0.089,1.065 0.496,1.949 1.208,2.64 0.688,0.67 1.476,0.974 2.386,0.897 0.899,-0.074 1.638,-0.505 2.205,-1.279 l 0.011,-0.025 c 0.011,-0.013 0.02,-0.038 0.031,-0.05 l 0.032,-0.039 c 0.011,-0.013 0.021,-0.036 0.032,-0.05 l -0.011,0.014 0.302,-0.515 c 0.019,-0.061 0.038,-0.11 0.069,-0.172 0.011,-0.024 0.021,-0.049 0.031,-0.061 l 0.131,-0.286 0.287,0.143 c 0.011,-10e-4 0.011,-10e-4 0.022,-10e-4 0.014,0.011 0.038,0.021 0.051,0.031 l 0.226,0.268 c 0.159,0.201 0.341,0.388 0.56,0.572 0.809,0.684 1.737,0.977 2.803,0.888 1.054,-0.087 1.922,-0.529 2.605,-1.336 0.684,-0.808 0.976,-1.738 0.888,-2.791 -0.088,-1.065 -0.53,-1.934 -1.338,-2.617 -0.808,-0.683 -1.737,-0.979 -2.791,-0.891"
         id="path2375" />
      <path
         inkscape:connector-curvature="0"
         d="m 377.832,99.64 c 0.241,-0.318 0.559,-0.499 0.943,-0.531 0.383,-0.032 0.727,0.094 1.017,0.369 0.291,0.273 0.46,0.628 0.496,1.054 0.035,0.426 -0.073,0.805 -0.314,1.123 -0.242,0.318 -0.559,0.5 -0.942,0.531 -0.383,0.032 -0.727,-0.094 -1.017,-0.368 -0.292,-0.274 -0.461,-0.63 -0.496,-1.055 -0.037,-0.427 0.071,-0.805 0.313,-1.123"
         id="path2377" />
      <path
         inkscape:connector-curvature="0"
         d="m 386.008,98.963 c -0.321,-0.272 -0.7,-0.396 -1.126,-0.36 -0.426,0.035 -0.78,0.22 -1.051,0.541 -0.271,0.32 -0.395,0.7 -0.359,1.126 0.035,0.426 0.219,0.78 0.54,1.051 0.321,0.271 0.7,0.394 1.125,0.359 0.427,-0.036 0.781,-0.22 1.053,-0.541 0.271,-0.321 0.395,-0.7 0.357,-1.126 -0.034,-0.426 -0.219,-0.779 -0.539,-1.05"
         id="path2379" />
      <path
         inkscape:connector-curvature="0"
         style="fill:#24badc"
         d="m 385.771,104.111 c -0.06,-0.71 -0.419,-1.312 -1.068,-1.805 -0.65,-0.506 -1.396,-0.742 -2.263,-0.706 -0.416,0.01 -0.803,0.091 -1.148,0.227 -0.287,0.131 -0.536,0.294 -0.767,0.517 -0.552,0.535 -0.798,1.15 -0.74,1.861 0.072,0.708 0.419,1.311 1.068,1.792 0.648,0.496 1.396,0.731 2.25,0.707 0.428,-0.023 0.815,-0.091 1.173,-0.229 0.275,-0.13 0.523,-0.305 0.756,-0.515 0.564,-0.523 0.81,-1.14 0.739,-1.849"
         id="path2381" />
      <path
         inkscape:connector-curvature="0"
         style="fill:#24badc"
         d="m 384.275,106.476 c -0.357,0.138 -0.745,0.206 -1.173,0.229 -0.854,0.024 -1.602,-0.212 -2.25,-0.707 -0.648,-0.481 -0.996,-1.084 -1.068,-1.793 -0.059,-0.71 0.188,-1.326 0.74,-1.86 0.231,-0.222 0.48,-0.385 0.767,-0.517 -0.358,0.137 -0.688,0.332 -0.974,0.605 -0.551,0.535 -0.798,1.15 -0.738,1.86 0.071,0.709 0.417,1.312 1.065,1.794 0.649,0.494 1.396,0.73 2.251,0.707 0.512,-0.02 0.98,-0.129 1.38,-0.318"
         id="path2383" />
      <path
         inkscape:connector-curvature="0"
         style="fill:none;stroke:#005161;stroke-width:0.94959998;stroke-linecap:round;stroke-linejoin:round;stroke-miterlimit:10"
         d="m 384.91,102.217 c 0.648,0.494 1.009,1.095 1.068,1.805 0.07,0.709 -0.176,1.325 -0.74,1.849 -0.276,0.261 -0.605,0.468 -0.963,0.604 -0.357,0.137 -0.745,0.205 -1.173,0.229 -0.854,0.024 -1.602,-0.211 -2.25,-0.707 -0.648,-0.481 -0.996,-1.084 -1.068,-1.792 -0.059,-0.71 0.188,-1.326 0.74,-1.861 0.231,-0.222 0.48,-0.385 0.767,-0.517 0.399,-0.201 0.844,-0.309 1.356,-0.315 0.867,-0.037 1.614,0.199 2.263,0.705 z"
         id="path2385" />
      <path
         inkscape:connector-curvature="0"
         style="fill:#703707"
         d="m 382.504,102.513 0.011,-0.002 c -1.286,-0.143 -2.49,0.136 -3.599,0.859 l 0.012,-0.001 c -0.939,0.591 -1.631,1.436 -2.077,2.533 -0.05,0.11 -0.041,0.229 0.004,0.333 0.034,0.116 0.101,0.206 0.212,0.257 0.287,0.155 0.584,0.296 0.892,0.403 l 0.012,-0.002 c 0.024,0.01 0.049,0.02 0.074,0.03 0.79,0.756 1.744,1.213 2.841,1.36 1.133,0.156 2.258,-0.07 3.365,-0.661 1.242,-0.676 1.683,-1.689 1.331,-3.042 -0.015,-0.035 -0.041,-0.081 -0.057,-0.114 -0.693,-1.183 -1.7,-1.837 -3.021,-1.953 l 0,0 z m -0.089,0.937 10e-4,0.011 c 0.974,0.098 1.727,0.571 2.263,1.421 0.201,0.841 -0.092,1.473 -0.878,1.907 -0.923,0.494 -1.862,0.679 -2.79,0.554 -0.312,-0.034 -0.726,-0.142 -1.254,-0.324 1.779,-0.101 3.056,-0.648 3.844,-1.631 -1.854,0.774 -3.575,0.989 -5.14,0.654 -0.05,-0.02 -0.099,-0.028 -0.146,-0.035 -0.024,-0.01 -0.048,-0.009 -0.06,-0.019 l 0.01,-0.001 c -0.111,-0.039 -0.231,-0.076 -0.343,-0.126 0.358,-0.708 0.859,-1.275 1.515,-1.687 l -0.001,-0.012 c 0.916,-0.588 1.909,-0.827 2.979,-0.712"
         id="path2387" />
      <path
         inkscape:connector-curvature="0"
         style="fill:#ec9237"
         d="m 382.417,103.461 -10e-4,-0.012 c -1.07,-0.114 -2.062,0.125 -2.979,0.712 l 10e-4,0.012 c -0.656,0.412 -1.157,0.978 -1.515,1.687 0.112,0.05 0.232,0.087 0.343,0.126 l -0.011,10e-4 c 0.012,0.01 0.036,0.009 0.061,0.018 0.048,0.008 0.097,0.017 0.146,0.036 1.565,0.335 3.286,0.12 5.14,-0.654 -0.788,0.984 -2.064,1.53 -3.844,1.631 0.528,0.182 0.941,0.29 1.254,0.325 0.928,0.125 1.866,-0.061 2.79,-0.554 0.786,-0.435 1.079,-1.067 0.878,-1.909 -0.536,-0.847 -1.289,-1.32 -2.263,-1.419"
         id="path2389" />
      <path
         inkscape:connector-curvature="0"
         style="fill:#818098"
         d="m 418.03,119.056 c -1.262,-1.265 -2.684,-2.458 -4.267,-3.577 -0.05,0.124 -0.086,0.246 -0.136,0.369 -0.26,0.749 -0.445,1.515 -0.571,2.3 -0.114,0.783 -0.18,1.564 -0.187,2.339 -0.008,0.774 0.021,1.535 0.072,2.292 0.054,0.783 0.058,1.557 0.026,2.334 -0.022,0.74 -0.211,1.459 -0.548,2.142 -0.316,0.634 -0.773,1.161 -1.347,1.566 -0.531,0.366 -1.089,0.675 -1.689,0.903 -0.609,0.254 -1.207,0.53 -1.802,0.83 -0.594,0.3 -1.163,0.622 -1.708,0.965 -0.598,0.395 -1.167,0.848 -1.708,1.356 -0.453,0.431 -0.83,0.916 -1.143,1.454 1.291,0.619 2.706,1.157 4.233,1.614 0.549,0.157 1.107,0.289 1.666,0.41 0.242,-0.39 0.521,-0.759 0.852,-1.084 0.506,-0.507 1.052,-0.958 1.627,-1.351 0.531,-0.342 1.076,-0.662 1.659,-0.96 0.583,-0.298 1.168,-0.574 1.754,-0.826 0.59,-0.228 1.137,-0.535 1.643,-0.898 0.549,-0.404 0.971,-0.927 1.264,-1.56 0.289,-0.68 0.434,-1.393 0.406,-2.13 -0.017,-0.773 -0.068,-1.543 -0.17,-2.322 -0.098,-0.754 -0.172,-1.51 -0.213,-2.282 -0.053,-0.771 -0.033,-1.546 0.032,-2.326 0.056,-0.529 0.142,-1.048 0.255,-1.558"
         id="path2391" />
      <path
         inkscape:connector-curvature="0"
         style="fill:#d6d6e4"
         d="m 412.941,122.78 c -0.051,-0.758 -0.079,-1.518 -0.071,-2.292 0.007,-0.776 0.072,-1.556 0.187,-2.34 0.124,-0.785 0.312,-1.552 0.571,-2.3 0.05,-0.123 0.087,-0.246 0.136,-0.369 -0.975,-0.682 -1.993,-1.335 -3.082,-1.96 -4.336,-2.141 -8.231,-2.699 -11.695,-1.66 -0.732,0.216 -1.437,0.5 -2.122,0.856 -0.544,0.318 -1.027,0.669 -1.449,1.05 -0.407,0.404 -0.775,0.84 -1.081,1.329 -0.484,0.756 -0.849,1.548 -1.09,2.367 -0.309,1.015 -0.434,2.085 -0.377,3.2 0.094,1.84 0.538,3.603 1.332,5.264 1.718,3.61 4.667,6.403 8.825,8.404 0.312,-0.537 0.689,-1.021 1.143,-1.453 0.542,-0.509 1.11,-0.962 1.708,-1.357 0.545,-0.342 1.114,-0.664 1.709,-0.964 0.594,-0.3 1.19,-0.576 1.802,-0.83 0.6,-0.229 1.157,-0.537 1.688,-0.903 0.573,-0.405 1.03,-0.932 1.347,-1.566 0.336,-0.682 0.525,-1.401 0.549,-2.142 0.029,-0.778 0.024,-1.552 -0.03,-2.334"
         id="path2393" />
      <path
         inkscape:connector-curvature="0"
         style="fill:#d6d6e4"
         d="m 417.777,120.614 c -0.065,0.78 -0.085,1.556 -0.032,2.326 0.041,0.771 0.115,1.528 0.213,2.282 0.102,0.778 0.153,1.549 0.17,2.322 0.025,0.737 -0.116,1.451 -0.406,2.13 -0.293,0.633 -0.714,1.156 -1.264,1.559 -0.507,0.364 -1.053,0.671 -1.643,0.899 -0.586,0.251 -1.171,0.526 -1.754,0.825 -0.584,0.299 -1.127,0.618 -1.659,0.96 -0.575,0.394 -1.121,0.844 -1.627,1.351 -0.331,0.326 -0.609,0.695 -0.852,1.084 6.082,1.341 12.558,0.981 19.438,-1.104 1.696,-0.523 2.826,-1.118 3.392,-1.772 0.209,-0.768 -0.385,-1.326 -1.771,-1.675 -2.175,-0.499 -4.04,-1.725 -5.622,-3.69 -0.48,-0.615 -0.903,-1.26 -1.28,-1.932 -0.251,-0.444 -0.491,-0.876 -0.729,-1.321 -0.24,-0.444 -0.491,-0.889 -0.743,-1.333 -1.001,-1.584 -2.186,-3.071 -3.576,-4.469 -0.115,0.51 -0.203,1.029 -0.255,1.558"
         id="path2395" />
      <path
         inkscape:connector-curvature="0"
         style="fill:none;stroke:#3c3c4a;stroke-width:1.42509997;stroke-linecap:round;stroke-linejoin:round;stroke-miterlimit:10"
         d="m 413.764,115.479 c -0.975,-0.682 -1.993,-1.335 -3.081,-1.96 -4.337,-2.141 -8.232,-2.698 -11.696,-1.659 -0.732,0.215 -1.437,0.5 -2.122,0.855 -0.544,0.319 -1.028,0.669 -1.449,1.05 -0.407,0.403 -0.775,0.84 -1.081,1.329 -0.484,0.755 -0.849,1.548 -1.089,2.366 -0.31,1.015 -0.435,2.086 -0.378,3.201 0.094,1.84 0.538,3.602 1.332,5.263 1.718,3.61 4.667,6.403 8.825,8.405 1.291,0.619 2.704,1.157 4.232,1.613 0.55,0.157 1.108,0.289 1.667,0.41 6.082,1.341 12.558,0.98 19.438,-1.104 1.696,-0.522 2.826,-1.117 3.392,-1.772 0.209,-0.768 -0.385,-1.326 -1.771,-1.675 -2.175,-0.499 -4.04,-1.725 -5.622,-3.69 -0.48,-0.616 -0.903,-1.259 -1.28,-1.932 -0.251,-0.443 -0.491,-0.877 -0.729,-1.321 -0.24,-0.445 -0.491,-0.888 -0.743,-1.333 -1.001,-1.584 -2.186,-3.071 -3.576,-4.468 -1.264,-1.266 -2.686,-2.459 -4.269,-3.578 z"
         id="path2397" />
      <path
         inkscape:connector-curvature="0"
         style="fill:#004498"
         d="m 324.579,235.25 c 0.258,-1.22 0.552,-2.442 0.89,-3.675 3.627,1.173 7.572,1.963 11.812,2.348 0.353,0.034 0.705,0.069 1.035,0.105 2.89,-0.007 5.615,0.525 8.174,1.583 l -0.011,0.023 c -1.106,0.564 -2.117,1.229 -3.024,2.004 -0.619,0.53 -1.179,1.136 -1.691,1.808 -1.877,2.47 -2.979,5.869 -3.304,10.186 -3.182,-0.247 -6.418,-0.876 -9.725,-1.889 1.213,-6.123 -0.169,-10.287 -4.156,-12.493 m 11.136,2.867 c -0.188,0.175 -0.204,0.38 -0.039,0.602 0.324,0.217 0.646,0.355 0.976,0.425 0.217,0.038 0.497,-0.072 0.829,-0.331 1.562,-1.236 3.598,-2.555 6.083,-3.944 l -2.207,-0.251 c -2.422,1.227 -4.302,2.394 -5.642,3.499"
         id="path2399" />
      <path
         inkscape:connector-curvature="0"
         style="fill:#ffffff"
         d="m 335.677,238.719 c -0.166,-0.222 -0.148,-0.426 0.039,-0.602 1.338,-1.105 3.22,-2.272 5.643,-3.5 l 2.207,0.252 c -2.486,1.388 -4.522,2.706 -6.083,3.943 -0.333,0.258 -0.612,0.37 -0.829,0.33 -0.332,-0.069 -0.653,-0.206 -0.977,-0.423"
         id="path2401" />
      <path
         inkscape:connector-curvature="0"
         style="fill:#ffffff"
         d="m 328.734,247.743 c -1.293,-0.405 -2.599,-0.864 -3.906,-1.38 -1.181,-0.476 -1.64,-1.425 -1.388,-2.861 0.158,-2.702 0.541,-5.458 1.139,-8.251 3.987,2.204 5.369,6.37 4.155,12.492"
         id="path2403" />
      <path
         inkscape:connector-curvature="0"
         style="fill:#ffffff"
         d="m 347.338,235.993 0.288,0.128 1.302,0.711 c 0.277,0.172 0.543,0.356 0.798,0.542 0.268,0.207 0.523,0.427 0.778,0.645 0.292,0.275 0.583,0.55 0.863,0.836 1.325,1.468 1.87,3.039 1.637,4.713 -0.282,1.992 -1.596,3.548 -3.932,4.662 -2.034,0.956 -4.309,1.464 -6.824,1.516 -1.257,0.026 -2.517,-0.016 -3.79,-0.114 0.325,-4.317 1.427,-7.716 3.304,-10.186 0.512,-0.672 1.072,-1.278 1.691,-1.807 0.907,-0.775 1.918,-1.44 3.024,-2.004 0.218,0.072 0.436,0.157 0.642,0.252 l 0.219,0.106 z"
         id="path2405" />
      <path
         inkscape:connector-curvature="0"
         style="fill:none;stroke:#003c90;stroke-width:1.81309998;stroke-linecap:round;stroke-linejoin:round;stroke-miterlimit:10"
         d="m 347.626,236.121 1.301,0.71 c 0.278,0.173 0.544,0.357 0.798,0.543 0.268,0.207 0.524,0.426 0.779,0.645 0.291,0.274 0.583,0.549 0.863,0.835 1.324,1.468 1.87,3.039 1.636,4.713 -0.282,1.992 -1.597,3.548 -3.932,4.661 -2.035,0.956 -4.309,1.464 -6.825,1.517 -1.256,0.025 -2.516,-0.016 -3.789,-0.114 -3.182,-0.247 -6.419,-0.876 -9.725,-1.889 -1.292,-0.405 -2.599,-0.864 -3.906,-1.38 -1.182,-0.476 -1.64,-1.425 -1.388,-2.861 0.158,-2.702 0.541,-5.458 1.139,-8.251 0.258,-1.22 0.551,-2.441 0.889,-3.676 3.628,1.173 7.573,1.963 11.812,2.348 0.353,0.035 0.705,0.07 1.035,0.106 2.891,-0.007 5.615,0.525 8.175,1.583 0.217,0.084 0.424,0.18 0.63,0.276 l 0.219,0.106"
         id="path2407" />
      <path
         inkscape:connector-curvature="0"
         style="fill:#4daa34"
         d="m 321.988,204.107 24.783,-1.603 c -0.803,10.821 -2.024,21.155 -3.668,30.975 -5.209,1.765 -11.938,2.155 -20.212,1.194 l -0.903,-30.566 z"
         id="path2409" />
      <path
         inkscape:connector-curvature="0"
         style="fill:none;stroke:#2e6d2d;stroke-width:1.90810001;stroke-linecap:square;stroke-miterlimit:10"
         d="m 346.771,202.504 c -0.803,10.821 -2.024,21.155 -3.668,30.976 -5.209,1.765 -11.938,2.154 -20.212,1.193 l -0.903,-30.566 24.783,-1.603 z"
         id="path2411" />
      <path
         inkscape:connector-curvature="0"
         style="fill:#004498"
         d="m 305.977,236.292 c 0.273,-1.283 0.581,-2.57 0.936,-3.869 3.819,1.236 7.972,2.067 12.435,2.473 0.371,0.036 0.741,0.074 1.088,0.11 3.042,-0.005 5.911,0.553 8.604,1.667 l -0.01,0.024 c -1.164,0.596 -2.229,1.296 -3.184,2.112 -0.651,0.556 -1.241,1.194 -1.781,1.901 -1.976,2.6 -3.134,6.177 -3.478,10.723 -3.349,-0.259 -6.757,-0.923 -10.236,-1.989 1.276,-6.444 -0.178,-10.829 -4.374,-13.152 m 11.723,3.019 c -0.197,0.185 -0.215,0.4 -0.041,0.634 0.34,0.229 0.679,0.374 1.027,0.447 0.228,0.041 0.523,-0.075 0.873,-0.348 1.644,-1.3 3.786,-2.688 6.404,-4.149 l -2.322,-0.267 c -2.551,1.293 -4.532,2.521 -5.941,3.683"
         id="path2413" />
      <path
         inkscape:connector-curvature="0"
         style="fill:#ffffff"
         d="m 317.659,239.945 c -0.174,-0.234 -0.156,-0.449 0.041,-0.634 1.41,-1.162 3.39,-2.39 5.941,-3.683 l 2.322,0.267 c -2.618,1.461 -4.76,2.849 -6.404,4.149 -0.35,0.273 -0.645,0.389 -0.873,0.349 -0.348,-0.074 -0.687,-0.219 -1.027,-0.448"
         id="path2415" />
      <path
         inkscape:connector-curvature="0"
         style="fill:#ffffff"
         d="m 310.351,249.444 c -1.36,-0.424 -2.736,-0.909 -4.111,-1.455 -1.244,-0.498 -1.727,-1.5 -1.461,-3.01 0.166,-2.844 0.569,-5.745 1.199,-8.687 4.196,2.323 5.649,6.708 4.373,13.152"
         id="path2417" />
      <path
         inkscape:connector-curvature="0"
         style="fill:#ffffff"
         d="m 334.796,240.859 c 0.062,0.082 0.125,0.176 0.174,0.258 0.813,1.252 1.114,2.556 0.928,3.934 -0.297,2.097 -1.68,3.736 -4.139,4.907 -2.143,1.006 -4.536,1.542 -7.183,1.596 -1.324,0.027 -2.65,-0.017 -3.989,-0.121 0.344,-4.544 1.502,-8.123 3.478,-10.722 0.54,-0.708 1.13,-1.346 1.782,-1.902 0.954,-0.816 2.019,-1.516 3.183,-2.111 0.313,0.122 0.615,0.245 0.905,0.379 l 0.302,0.134 c 0.036,0.011 0.085,0.033 0.121,0.056 0.084,0.045 0.182,0.09 0.267,0.136 l 0.097,0.044 c 0.424,0.214 0.825,0.465 1.215,0.728 0.377,0.264 0.754,0.539 1.133,0.826 0.233,0.196 0.441,0.392 0.65,0.602 0.247,0.279 0.494,0.558 0.741,0.836 0.111,0.14 0.223,0.28 0.335,0.42"
         id="path2419" />
      <path
         inkscape:connector-curvature="0"
         style="fill:none;stroke:#003c90;stroke-width:1.90810001;stroke-linecap:round;stroke-linejoin:round;stroke-miterlimit:10"
         d="m 330.237,237.211 c 0.036,0.011 0.085,0.033 0.121,0.056 0.085,0.045 0.182,0.09 0.267,0.135 l 0.097,0.045 c 0.423,0.214 0.825,0.465 1.215,0.728 0.377,0.264 0.756,0.539 1.133,0.826 0.234,0.196 0.442,0.392 0.651,0.602 0.247,0.279 0.494,0.558 0.741,0.836 0.112,0.14 0.223,0.28 0.334,0.42 0.063,0.082 0.125,0.176 0.175,0.258 0.812,1.252 1.114,2.556 0.927,3.934 -0.295,2.097 -1.679,3.736 -4.138,4.907 -2.143,1.006 -4.537,1.542 -7.184,1.596 -1.323,0.027 -2.649,-0.017 -3.989,-0.121 -3.349,-0.259 -6.757,-0.923 -10.236,-1.989 -1.361,-0.425 -2.735,-0.909 -4.111,-1.454 -1.244,-0.499 -1.727,-1.5 -1.461,-3.011 0.166,-2.844 0.569,-5.745 1.199,-8.686 0.273,-1.284 0.581,-2.571 0.936,-3.871 3.82,1.236 7.973,2.068 12.435,2.473 0.372,0.037 0.743,0.074 1.089,0.111 3.043,-0.005 5.912,0.553 8.604,1.668 0.302,0.122 0.604,0.255 0.896,0.403"
         id="path2421" />
      <path
         inkscape:connector-curvature="0"
         style="fill:#4daa34"
         d="m 327.062,203.35 -27.374,1.073 c 1.578,10.74 3.566,20.962 5.939,30.645 5.497,1.396 13.051,1.337 22.673,-0.149 l -1.238,-31.569 z"
         id="path2423" />
      <path
         inkscape:connector-curvature="0"
         style="fill:none;stroke:#2e6d2d;stroke-width:1.90810001;stroke-linecap:square;stroke-miterlimit:10"
         d="m 299.688,204.422 c 1.579,10.74 3.566,20.962 5.939,30.645 5.498,1.396 13.052,1.338 22.673,-0.149 l -1.239,-31.568 -27.373,1.072 z"
         id="path2425" />
      <path
         inkscape:connector-curvature="0"
         style="fill:#4daa34"
         d="m 335.983,208.571 -13.28,0.393 0.443,15.009 4.121,-0.218 c 1.661,0.095 3.853,-0.053 6.597,-0.457 l 2.562,0.282 -0.443,-15.009 z"
         id="path2427" />
      <path
         inkscape:connector-curvature="0"
         style="fill:#2e6d2d"
         d="m 331.288,225.332 c 1.404,-0.531 2.255,-1.2 2.577,-2.033 -2.745,0.403 -4.936,0.552 -6.597,0.457 l 0.054,1.824 0.79,0.061 c 1.111,0.049 2.169,-0.053 3.176,-0.309"
         id="path2429" />
      <path
         inkscape:connector-curvature="0"
         style="fill:#9ac843"
         d="m 342.628,153.746 -0.024,-5.597 -5.429,-0.211 c 3.478,21.708 5.184,42.688 5.128,62.943 0.32,-0.07 0.628,-0.155 0.948,-0.238 1.721,-0.435 3.239,-0.997 4.531,-1.676 1.534,-18.775 -0.183,-37.174 -5.154,-55.221"
         id="path2431" />
      <path
         inkscape:connector-curvature="0"
         style="fill:#df6513"
         d="m 337.175,147.937 -6.96,-0.272 c 2.87,24.04 4.032,45.515 3.482,64.421 0.712,-0.044 1.413,-0.099 2.102,-0.167 2.279,-0.222 4.451,-0.568 6.504,-1.038 0.055,-20.256 -1.65,-41.236 -5.128,-62.944"
         id="path2433" />
      <path
         inkscape:connector-curvature="0"
         style="fill:#0e5cab"
         d="m 323.778,211.937 c 0.428,0.028 0.856,0.069 1.271,0.097 0.701,0.04 1.402,0.079 2.103,0.107 0.13,0.004 0.272,0.011 0.404,0.015 2.126,0.072 4.169,0.045 6.14,-0.07 0.549,-18.908 -0.613,-40.382 -3.482,-64.421 l -7.152,-0.28 0.716,64.552 z"
         id="path2435" />
      <path
         inkscape:connector-curvature="0"
         style="fill:#9ac843"
         d="m 323.063,147.385 -7.223,-0.283 c -2.654,23.631 -3.134,44.838 -1.438,63.631 1.034,0.172 2.068,0.343 3.079,0.491 2.007,0.294 3.956,0.525 5.857,0.684 0.144,0.006 0.286,0.01 0.44,0.029 l -0.715,-64.552 z"
         id="path2437" />
      <path
         inkscape:connector-curvature="0"
         style="fill:#df6513"
         d="m 315.84,147.102 -6.961,-0.272 c -3.223,21.087 -4.347,41.753 -3.369,62.001 l -0.046,-0.002 c 0.605,0.156 1.2,0.298 1.783,0.428 2.342,0.547 4.624,1.019 6.858,1.418 0.096,0.015 0.191,0.042 0.298,0.059 -1.696,-18.793 -1.217,-40 1.437,-63.632"
         id="path2439" />
      <path
         inkscape:connector-curvature="0"
         style="fill:#0e5cab"
         d="m 303.225,146.608 0.023,5.417 c -4.05,19.488 -5.516,37.834 -4.396,55.05 2.295,0.652 4.435,1.214 6.396,1.697 0.06,0.015 0.155,0.042 0.262,0.058 -0.978,-20.248 0.146,-40.914 3.369,-62.001 l -5.654,-0.221 z"
         id="path2441" />
      <path
         inkscape:connector-curvature="0"
         style="fill:none;stroke:#003c90;stroke-width:1.91349995;stroke-linecap:square;stroke-miterlimit:10"
         d="m 305.463,208.828 c 0.606,0.156 1.201,0.298 1.783,0.428 2.342,0.547 4.624,1.019 6.859,1.418 0.095,0.015 0.19,0.042 0.297,0.059 1.035,0.171 2.068,0.343 3.078,0.491 2.009,0.294 3.958,0.525 5.859,0.684 0.143,0.006 0.285,0.01 0.439,0.029 0.428,0.028 0.856,0.069 1.271,0.097 0.701,0.041 1.402,0.08 2.103,0.107 0.13,0.004 0.272,0.011 0.404,0.016 2.126,0.072 4.169,0.044 6.14,-0.071 0.713,-0.044 1.413,-0.1 2.102,-0.168 2.279,-0.222 4.451,-0.568 6.504,-1.038 0.321,-0.071 0.628,-0.155 0.949,-0.238 1.721,-0.434 3.238,-0.996 4.531,-1.675 1.534,-18.774 -0.183,-37.172 -5.154,-55.22 l -0.024,-5.597 -5.429,-0.212 -6.96,-0.272 -7.151,-0.279 -7.223,-0.283 -6.96,-0.272 -5.655,-0.221 0.023,5.417 c -4.049,19.489 -5.514,37.834 -4.396,55.05 2.296,0.651 4.436,1.214 6.397,1.697 0.059,0.015 0.155,0.042 0.261,0.059"
         id="path2443" />
      <path
         inkscape:connector-curvature="0"
         style="fill:#ffffff"
         d="m 332.739,174.177 c 3.655,-6.29 6.584,-13.016 8.797,-20.175 l -21.622,1.462 c 5.075,6.058 9.353,12.3 12.825,18.713"
         id="path2445" />
      <path
         inkscape:connector-curvature="0"
         style="fill:#e06a06"
         d="m 283.337,181.587 0.489,0.716 0.763,0.566 c -0.623,1.052 -1.232,2.139 -1.813,3.264 -0.312,-0.066 -0.642,-0.118 -0.958,-0.151 0.017,0.001 0.035,-0.014 0.037,-0.031 -0.009,0.009 -0.009,0.009 -0.017,-0.001 -0.007,-0.009 -0.007,-0.009 -0.016,-10e-4 -0.117,-0.012 -0.25,-0.026 -0.373,-0.048 -0.226,-0.016 -0.451,-0.03 -0.676,-0.046 -0.116,-0.012 -0.225,-0.015 -0.318,-0.016 -4.377,-0.241 -7.878,1.408 -10.501,4.948 -0.911,1.224 -1.554,2.476 -1.949,3.754 l 0.008,0.009 c -0.094,0.334 -0.179,0.661 -0.247,0.991 -0.109,0.56 -0.157,1.025 -0.149,1.429 0.032,0.659 0.264,1.079 0.673,1.265 0.13,0.047 0.243,0.092 0.355,0.138 0.496,0.162 0.959,0.227 1.382,0.204 0.771,-0.062 1.403,-0.484 1.882,-1.281 0.249,-0.613 0.463,-1.136 0.662,-1.586 0.002,-0.017 0.021,-0.033 0.023,-0.048 0.052,-0.104 0.096,-0.2 0.132,-0.306 l -0.006,-0.009 c 0.136,-0.262 0.253,-0.493 0.342,-0.703 -0.065,0.219 -0.133,0.473 -0.221,0.741 l -0.001,0.017 c -0.027,0.098 -0.046,0.205 -0.058,0.322 -0.012,0.023 -0.022,0.048 -0.024,0.064 -0.243,1.033 -0.353,2.08 -0.335,3.116 0.013,1.8 0.38,3.099 1.102,3.914 0.444,0.491 1,0.802 1.692,0.925 0.098,0.028 0.188,0.045 0.279,0.064 0.658,0.061 1.225,-0.461 1.699,-1.545 0.152,-0.32 0.303,-0.717 0.435,-1.173 0.509,-2.375 0.85,-3.776 0.997,-4.215 -0.151,1.447 -0.225,2.708 -0.245,3.772 0.01,1.194 0.077,2.16 0.234,2.898 0.163,0.84 0.437,1.517 0.822,2.012 0.569,0.74 1.371,1.109 2.406,1.092 0.168,0.001 0.329,-0.008 0.491,-0.033 0.885,-0.092 1.653,-1.339 2.305,-3.707 0.583,-2.191 0.761,-3.644 0.534,-4.356 0.251,0.48 0.54,0.931 0.851,1.333 0.34,0.439 0.694,0.838 1.06,1.194 0.091,0.095 0.184,0.171 0.276,0.248 0.253,0.237 0.51,0.44 0.752,0.608 0.915,0.567 1.729,0.577 2.459,0.031 0.055,-0.045 0.11,-0.089 0.156,-0.126 1.167,-1.037 1.256,-3.162 0.256,-6.368 -0.35,-1.163 -0.797,-2.26 -1.32,-3.281 -0.14,-0.267 -0.296,-0.536 -0.444,-0.812 -0.283,-0.423 -0.566,-0.849 -0.85,-1.273 l 0.847,-2.054 c 0.396,-0.975 0.875,-1.941 1.432,-2.924 0.736,0.194 1.46,0.354 2.186,0.481 -0.708,1.211 -1.449,2.587 -2.223,4.128 0.98,1.868 1.68,3.446 2.099,4.733 0.766,2.316 1.103,4.141 0.996,5.491 -0.11,1.61 -0.589,2.728 -1.41,3.348 -0.774,0.642 -1.709,0.988 -2.824,1.04 l -0.008,0.007 c -1.208,0.066 -2.17,-0.387 -2.894,-1.336 -0.028,-0.053 -0.073,-0.108 -0.1,-0.163 -0.043,-0.071 -0.07,-0.141 -0.096,-0.212 -0.005,0.051 -0.011,0.1 -0.034,0.165 -0.073,0.38 -0.158,0.782 -0.261,1.216 -0.687,2.854 -2.045,4.349 -4.053,4.5 -2.042,0.24 -3.512,-0.562 -4.438,-2.398 -0.201,-0.399 -0.368,-0.812 -0.5,-1.238 -0.017,-10e-4 -0.024,-0.011 -0.022,-0.027 -0.012,0.024 -0.03,0.039 -0.048,0.054 -0.694,0.852 -1.462,1.2 -2.317,1.025 -2.365,-0.533 -3.667,-2.384 -3.896,-5.56 -0.64,0.412 -1.509,0.37 -2.584,-0.112 -2.008,-0.883 -2.828,-2.44 -2.45,-4.677 0.346,-1.862 1.186,-3.699 2.51,-5.501 3.423,-4.598 7.954,-6.61 13.582,-6.028 0.4,-0.856 0.842,-1.701 1.315,-2.525 l 0.158,0.048 z m 6.711,7.401 c 0.022,0.028 0.037,0.046 0.05,0.082 -0.013,-0.036 -0.028,-0.053 -0.05,-0.082"
         id="path2447" />
      <path
         inkscape:connector-curvature="0"
         style="fill:#fcdf00"
         d="m 284.589,182.869 0.211,0.148 c 1.981,0.905 3.933,1.605 5.845,2.11 -0.556,0.983 -1.036,1.949 -1.432,2.924 l -0.846,2.054 c 0.283,0.424 0.566,0.85 0.85,1.273 0.147,0.277 0.304,0.545 0.443,0.812 0.523,1.021 0.971,2.118 1.32,3.281 1,3.206 0.911,5.331 -0.256,6.368 -0.046,0.037 -0.101,0.081 -0.156,0.126 -0.73,0.545 -1.544,0.536 -2.459,-0.031 -0.243,-0.168 -0.5,-0.371 -0.752,-0.608 -0.092,-0.077 -0.185,-0.153 -0.276,-0.248 -0.366,-0.356 -0.719,-0.755 -1.059,-1.194 -0.312,-0.403 -0.601,-0.853 -0.852,-1.333 0.227,0.713 0.049,2.166 -0.533,4.356 -0.652,2.368 -1.422,3.615 -2.306,3.707 -0.163,0.025 -0.322,0.034 -0.491,0.033 -1.035,0.017 -1.837,-0.353 -2.406,-1.092 -0.385,-0.495 -0.659,-1.171 -0.822,-2.012 -0.158,-0.738 -0.225,-1.704 -0.234,-2.898 0.02,-1.065 0.094,-2.326 0.245,-3.772 -0.146,0.438 -0.487,1.839 -0.997,4.215 -0.133,0.456 -0.283,0.854 -0.436,1.173 -0.474,1.084 -1.041,1.605 -1.699,1.545 -0.091,-0.019 -0.181,-0.036 -0.279,-0.064 -0.693,-0.123 -1.248,-0.434 -1.693,-0.925 -0.721,-0.815 -1.088,-2.114 -1.102,-3.914 -0.018,-1.036 0.093,-2.083 0.335,-3.116 10e-4,-0.017 0.013,-0.042 0.024,-0.064 0.012,-0.117 0.031,-0.224 0.059,-0.322 l 0.001,-0.017 c 0.087,-0.269 0.156,-0.522 0.221,-0.741 -0.089,0.21 -0.206,0.441 -0.342,0.703 l 0.008,0.009 c -0.037,0.106 -0.081,0.203 -0.133,0.306 -0.002,0.016 -0.021,0.031 -0.022,0.048 -0.199,0.45 -0.414,0.973 -0.663,1.586 -0.479,0.797 -1.111,1.219 -1.882,1.281 -0.423,0.023 -0.886,-0.042 -1.382,-0.204 -0.113,-0.046 -0.226,-0.091 -0.355,-0.138 -0.409,-0.186 -0.641,-0.606 -0.673,-1.265 -0.008,-0.404 0.04,-0.869 0.149,-1.429 0.068,-0.33 0.153,-0.657 0.247,-0.991 l -0.007,-0.009 c 0.395,-1.278 1.039,-2.53 1.949,-3.754 2.623,-3.54 6.124,-5.189 10.502,-4.948 0.092,0.001 0.202,0.004 0.317,0.016 0.226,0.016 0.451,0.03 0.676,0.046 0.125,0.022 0.256,0.036 0.373,0.048 l -0.004,0.033 c 0.317,0.033 0.647,0.084 0.958,0.151 0.583,-1.124 1.193,-2.211 1.816,-3.263 l 0,0 z m 1.83,5.865 -0.01,0.023 0.01,-0.023 z"
         id="path2449" />
      <path
         inkscape:connector-curvature="0"
         style="fill:#d82d1c"
         d="m 281.817,185.982 0.004,-0.033 c 0.009,-0.008 0.009,-0.008 0.016,10e-4 0.008,0.009 0.008,0.009 0.018,0.001 -0.003,0.017 -0.022,0.033 -0.038,0.031"
         id="path2451" />
      <path
         inkscape:connector-curvature="0"
         style="fill:#d8272a"
         d="m 289.469,204.348 -0.009,0.007 0.009,-0.007 z"
         id="path2453" />
      <polygon
         style="fill:#9e0c27"
         points="289.477,204.356 289.461,204.354 289.47,204.348 "
         id="polygon2455" />
      <path
         inkscape:connector-curvature="0"
         style="fill:#df6513"
         d="m 310.626,165.057 1.002,0.046 c 3.221,-3.297 4.045,-8.504 2.473,-15.609 -5.164,1.583 -9.892,3.553 -14.187,5.934 l 8.405,14.403 c 0.707,-0.593 1.437,-1.176 2.192,-1.747 l 0.115,-3.027 z"
         id="path2457" />
      <path
         inkscape:connector-curvature="0"
         style="fill:#0e5cab"
         d="m 299.532,179.399 c 1.192,-1.733 2.529,-3.407 4.009,-5.012 l -11.53,-13.789 c -2.725,2.11 -5.208,4.432 -7.474,6.953 l 14.995,11.848 z"
         id="path2459" />
      <path
         inkscape:connector-curvature="0"
         style="fill:#9ac843"
         d="m 303.541,174.388 c 1.444,-1.582 3.045,-3.104 4.778,-4.557 l -8.404,-14.403 c -2.828,1.551 -5.462,3.278 -7.905,5.17 l 11.531,13.79 z"
         id="path2461" />
      <path
         inkscape:connector-curvature="0"
         style="fill:#9ac843"
         d="m 296.723,184.097 c 0.825,-1.621 1.757,-3.182 2.81,-4.697 l -14.995,-11.848 c -1.95,2.171 -3.73,4.494 -5.33,6.972 l 17.515,9.573 z"
         id="path2463" />
      <path
         inkscape:connector-curvature="0"
         style="fill:#df6513"
         d="m 279.208,174.523 c -1.565,2.416 -2.972,4.973 -4.211,7.672 5.375,3.646 11.81,6.218 19.278,7.702 0.676,-1.999 1.484,-3.941 2.448,-5.8 l -17.515,-9.574 z"
         id="path2465" />
      <path
         inkscape:connector-curvature="0"
         style="fill:none;stroke:#003c90;stroke-width:1.90670002;stroke-linecap:square;stroke-linejoin:round;stroke-miterlimit:10"
         d="m 310.511,168.085 c -0.754,0.57 -1.485,1.152 -2.192,1.746 -1.732,1.452 -3.333,2.976 -4.778,4.557 -1.48,1.604 -2.817,3.278 -4.009,5.01 -1.052,1.516 -1.984,3.078 -2.81,4.698 -0.964,1.86 -1.771,3.801 -2.448,5.8 -7.468,-1.484 -13.903,-4.057 -19.278,-7.702 1.239,-2.698 2.646,-5.256 4.211,-7.671 1.599,-2.477 3.379,-4.8 5.329,-6.972 2.266,-2.521 4.75,-4.842 7.474,-6.952 2.442,-1.892 5.076,-3.62 7.904,-5.171 4.294,-2.381 9.022,-4.351 14.186,-5.934"
         id="path2467" />
      <path
         inkscape:connector-curvature="0"
         style="fill:#ffffff"
         d="m 338.282,156.963 c 0.533,-0.261 1.042,-0.521 1.551,-0.781 0.533,-0.275 1.053,-0.583 1.539,-0.927 0.356,-0.239 0.688,-0.499 0.996,-0.795 0.048,-0.063 0.096,-0.125 0.155,-0.189 0.511,-0.549 0.916,-1.164 1.237,-1.82 0.203,-0.41 0.393,-0.806 0.561,-1.214 v -0.012 c 0.217,-0.794 0.351,-1.705 0.416,-2.73 0.272,-2.578 0.225,-4.942 -0.142,-7.107 l -44.541,2.779 c -0.037,0.303 -0.062,0.605 -0.076,0.906 -0.142,2.436 0.118,5.064 0.8,7.882 0.616,1.921 1.508,3.188 2.696,3.798 0.79,0.421 1.485,0.761 2.062,1.038 0.389,0.168 0.79,0.324 1.19,0.479 0.943,0.348 1.922,0.649 2.937,0.886 1.084,0.257 2.169,0.477 3.268,0.649 1.073,0.186 2.17,0.31 3.268,0.385 2.089,0.182 4.179,0.244 6.27,0.197 0.837,-0.027 1.666,-0.066 2.503,-0.131 0.307,-0.031 0.614,-0.051 0.933,-0.07 0.863,-0.102 1.737,-0.204 2.611,-0.295 1.193,-0.159 2.399,-0.391 3.593,-0.706 0.39,-0.108 0.78,-0.229 1.17,-0.337 1.69,-0.5 3.359,-1.12 5.003,-1.885"
         id="path2469" />
      <path
         inkscape:connector-curvature="0"
         style="fill:none;stroke:#003c90;stroke-width:1.92369998;stroke-linecap:round;stroke-linejoin:round;stroke-miterlimit:10"
         d="m 344.32,151.238 v -0.012 c 0.216,-0.794 0.351,-1.704 0.415,-2.73 0.273,-2.577 0.225,-4.942 -0.141,-7.107 l -44.541,2.78 c -0.037,0.302 -0.062,0.604 -0.076,0.905 -0.142,2.437 0.117,5.065 0.8,7.883 0.616,1.921 1.507,3.188 2.696,3.798 0.789,0.42 1.484,0.761 2.062,1.038 0.389,0.168 0.789,0.324 1.19,0.479 0.942,0.349 1.922,0.649 2.936,0.887 1.085,0.257 2.17,0.478 3.269,0.649 1.073,0.186 2.17,0.31 3.268,0.385 2.09,0.183 4.179,0.244 6.269,0.198 0.838,-0.028 1.666,-0.067 2.504,-0.132 0.307,-0.032 0.614,-0.051 0.933,-0.07 0.863,-0.103 1.737,-0.205 2.612,-0.296 1.193,-0.159 2.398,-0.39 3.593,-0.705 0.39,-0.108 0.78,-0.229 1.17,-0.336 1.691,-0.502 3.36,-1.124 5.004,-1.888 0.533,-0.261 1.041,-0.521 1.55,-0.781 0.533,-0.275 1.054,-0.583 1.54,-0.926 0.355,-0.238 0.688,-0.499 0.996,-0.795 m 1.951,-3.224 c -0.167,0.408 -0.357,0.805 -0.561,1.213 -0.321,0.657 -0.726,1.271 -1.236,1.82 -0.06,0.063 -0.108,0.127 -0.155,0.189 m 0,0 c 0.226,-0.194 0.438,-0.412 0.64,-0.64 0.583,-0.65 1.012,-1.518 1.312,-2.583"
         id="path2471" />
      <path
         inkscape:connector-curvature="0"
         style="fill:#fcdf00"
         d="m 328.95,67.52 c -1.095,-0.189 -2.233,-0.261 -3.391,-0.239 -6.684,-0.053 -12.886,3.398 -18.607,10.342 -0.039,0.032 -0.065,0.078 -0.091,0.113 -4.792,5.975 -8.525,12.457 -11.188,19.46 -0.333,0.964 -0.643,1.931 -0.94,2.898 -0.11,0.361 -0.209,0.735 -0.319,1.098 -1.678,5.751 -2.683,11.458 -3.005,17.107 -0.056,2.702 0.075,5.452 0.404,8.254 0.668,6.116 2.973,11.543 6.901,16.291 5.138,5.97 12.502,9.208 22.106,9.727 9.825,0.917 17.717,-1.194 23.664,-6.344 4.596,-4.119 7.672,-9.147 9.221,-15.1 0.737,-2.723 1.283,-5.424 1.636,-8.103 0.5,-5.637 0.333,-11.43 -0.48,-17.366 -0.044,-0.373 -0.088,-0.758 -0.143,-1.131 -0.152,-1 -0.317,-2.002 -0.493,-3.005 -1.419,-7.732 -4.159,-14.693 -8.218,-20.893 -0.034,-0.038 -0.053,-0.088 -0.075,-0.125 C 341.269,72.756 335.618,68.429 328.95,67.52"
         id="path2473" />
      <path
         inkscape:connector-curvature="0"
         style="fill:none;stroke:#e06a06;stroke-width:1.90199995;stroke-linecap:round;stroke-linejoin:round;stroke-miterlimit:10"
         d="m 325.559,67.28 c -6.683,-0.053 -12.886,3.398 -18.608,10.342 -0.038,0.032 -0.064,0.078 -0.091,0.113 -4.792,5.975 -8.525,12.457 -11.188,19.46 -0.333,0.964 -0.644,1.931 -0.941,2.898 -0.111,0.361 -0.21,0.736 -0.32,1.098 -1.677,5.751 -2.683,11.458 -3.005,17.107 -0.056,2.702 0.075,5.452 0.405,8.254 0.667,6.116 2.972,11.543 6.9,16.291 5.138,5.97 12.502,9.208 22.107,9.727 9.825,0.917 17.717,-1.193 23.664,-6.344 4.595,-4.119 7.672,-9.147 9.22,-15.1 0.737,-2.723 1.283,-5.424 1.636,-8.103 0.5,-5.637 0.333,-11.43 -0.48,-17.366 -0.044,-0.373 -0.088,-0.758 -0.144,-1.131 -0.152,-1 -0.316,-2.002 -0.493,-3.004 -1.418,-7.733 -4.158,-14.694 -8.217,-20.894 -0.034,-0.038 -0.053,-0.088 -0.075,-0.125 -4.661,-7.746 -10.312,-12.073 -16.979,-12.982 -1.095,-0.191 -2.233,-0.262 -3.391,-0.241 z"
         id="path2475" />
      <path
         inkscape:connector-curvature="0"
         style="fill:#fcdf00"
         d="m 298.628,108.853 1.103,0.083 c -1.455,-2.099 -3.253,-3.233 -5.411,-3.392 -2.372,-0.176 -4.485,0.861 -6.333,3.108 -1.848,2.247 -2.899,5.042 -3.147,8.385 -0.247,3.343 0.384,6.262 1.88,8.756 1.497,2.495 3.436,3.83 5.806,4.005 2.359,0.175 4.475,-0.861 6.333,-3.108 0.092,-0.112 0.183,-0.225 0.276,-0.349 l -1.791,-0.132 1.284,-17.356 z"
         id="path2477" />
      <path
         inkscape:connector-curvature="0"
         style="fill:none;stroke:#e06a06;stroke-width:1.90199995;stroke-linecap:square;stroke-linejoin:round;stroke-miterlimit:10"
         d="m 299.136,126.341 c -0.093,0.125 -0.185,0.237 -0.276,0.349 -1.858,2.247 -3.974,3.282 -6.333,3.108 -2.37,-0.176 -4.31,-1.51 -5.806,-4.005 -1.497,-2.493 -2.127,-5.413 -1.88,-8.755 0.248,-3.344 1.299,-6.139 3.147,-8.386 1.847,-2.248 3.961,-3.283 6.333,-3.107 2.158,0.159 3.957,1.293 5.411,3.391"
         id="path2479" />
      <path
         inkscape:connector-curvature="0"
         style="fill:#282525"
         d="m 338.869,46.103 c 0.345,-0.309 0.634,-0.668 0.867,-1.081 0.066,-0.103 -0.684,0.068 -2.255,0.524 -1.622,0.488 -2.858,0.921 -3.697,1.301 -1.875,0.851 -3.275,1.748 -4.204,2.692 -0.271,0.278 -0.598,0.672 -0.968,1.168 -0.475,-0.667 -0.985,-1.515 -1.53,-2.521 -0.753,-1.427 -1.222,-2.987 -1.419,-4.682 -0.117,-0.831 -0.161,-1.525 -0.134,-2.06 -0.863,0.222 -1.711,0.743 -2.545,1.551 -1.693,1.604 -2.581,3.946 -2.663,7.003 -0.037,1.63 0.052,3.163 0.279,4.598 -1.157,-0.467 -2.062,-0.963 -2.703,-1.487 -1.271,-1.036 -2.406,-3.408 -3.407,-7.117 -0.737,0.946 -1.272,2.207 -1.613,3.767 -0.65,3.146 0.026,6.081 2.019,8.803 0.173,0.239 0.42,0.603 0.729,1.103 -3.384,-0.822 -5.917,-2.356 -7.599,-4.59 -0.961,3.969 -0.276,7.143 2.06,9.545 l 0.379,0.361 c -1.306,0.095 -2.647,0.02 -4.012,-0.225 -0.859,-0.147 -1.71,-0.4 -2.54,-0.784 -0.635,-0.284 -1.437,-0.726 -2.43,-1.323 2.316,4.14 4.018,6.769 5.093,7.861 0.985,1.015 1.82,1.827 2.501,2.449 0.669,0.61 2.571,1.168 5.694,1.649 3.123,0.481 5.446,0.498 6.969,0.05 1.523,-0.46 2.626,-0.867 3.307,-1.21 1.049,-0.494 1.728,-0.802 2.023,-0.923 1.262,0.987 2.798,1.648 4.619,2.009 2.539,0.485 4.269,-0.172 5.202,-2 0.801,0.775 1.909,1.417 3.315,1.915 1.533,0.542 2.789,0.647 3.768,0.302 1.162,-0.403 3.09,-0.689 5.783,-0.836 2.262,-0.118 3.387,-0.19 3.354,-0.229 -0.845,-0.824 -1.838,-1.411 -2.992,-1.77 -0.934,-0.272 -2.102,-0.43 -3.517,-0.475 -0.667,-0.001 -1.314,0.045 -1.94,0.142 0.692,-0.341 1.329,-0.748 1.899,-1.194 1.278,-1.002 2.323,-2.249 3.112,-3.727 0.444,-0.837 1.055,-2.342 1.835,-4.513 -0.973,0.751 -2.104,1.548 -3.371,2.397 -2.546,1.719 -4.44,2.664 -5.693,2.845 -0.638,0.084 -1.213,0.125 -1.702,0.137 1.093,-2.065 1.912,-3.458 2.454,-4.181 0.633,-0.823 1.937,-2.015 3.912,-3.573 l 2.632,-2.07 c -0.831,-0.538 -1.893,-0.832 -3.178,-0.878 -1.153,-0.038 -2.393,0.121 -3.707,0.488 0.646,-0.989 0.966,-2.586 0.95,-4.792 -0.026,-2.231 -0.108,-3.214 -0.258,-2.951 -0.567,1.066 -1.344,2.058 -2.317,2.975 -0.959,0.883 -2.002,1.604 -3.138,2.152 -0.694,0.341 -1.771,0.739 -3.234,1.167 0.105,-1.41 0.338,-2.633 0.7,-3.667 0.764,-2.1 1.867,-4.14 3.311,-6.095"
         id="path2481" />
      <path
         inkscape:connector-curvature="0"
         style="fill:#ffffff"
         d="m 349.957,99.448 c -1.315,-2.04 -2.898,-3.05 -4.722,-3.042 -1.812,0.009 -3.331,1.041 -4.555,3.084 -1.223,2.032 -1.798,4.493 -1.725,7.37 0.062,2.877 0.763,5.324 2.09,7.366 1.315,2.04 2.897,3.051 4.722,3.042 1.812,-0.009 3.33,-1.041 4.555,-3.084 1.235,-2.043 1.812,-4.515 1.726,-7.394 -0.061,-2.877 -0.763,-5.325 -2.091,-7.342"
         id="path2483" />
      <path
         inkscape:connector-curvature="0"
         style="fill:#ffffff"
         d="m 332.655,98.396 c -1.778,-2.218 -4.048,-3.434 -6.81,-3.65 -2.762,-0.216 -5.208,0.628 -7.314,2.535 -2.108,1.894 -3.286,4.298 -3.515,7.225 -0.229,2.927 0.536,5.499 2.313,7.729 1.791,2.218 4.073,3.436 6.834,3.652 2.75,0.214 5.184,-0.631 7.292,-2.537 2.131,-1.904 3.311,-4.32 3.54,-7.248 0.227,-2.927 -0.548,-5.488 -2.34,-7.706"
         id="path2485" />
      <path
         inkscape:connector-curvature="0"
         style="fill:#d8272a"
         d="m 311.974,134.075 -3.111,-1.717 c 1.896,6.208 5.91,10.462 12.04,12.75 3.069,1.156 5.954,1.688 8.655,1.585 5.966,-0.191 11.001,-2.419 15.097,-6.699 2.056,-2.133 3.519,-4.25 4.375,-6.352 -9.393,4.467 -18.905,5.602 -28.546,3.391 -3.016,-0.702 -5.853,-1.685 -8.51,-2.958"
         id="path2487" />
      <path
         inkscape:connector-curvature="0"
         style="fill:#e27c9f"
         d="m 328.841,143.531 c 2.247,0.06 3.881,-0.696 4.913,-2.257 0.515,-0.768 0.966,-1.919 1.361,-3.464 -4.072,0.512 -8.166,0.417 -12.279,-0.297 0.333,1.521 0.746,2.664 1.214,3.451 1,1.648 2.596,2.51 4.791,2.567"
         id="path2489" />
      <path
         inkscape:connector-curvature="0"
         style="fill:#1c1616"
         d="m 350.701,101.745 c -0.67,-1.06 -1.502,-1.653 -2.512,-1.774 -1.01,-0.12 -1.902,0.268 -2.69,1.151 -0.772,0.91 -1.204,2.056 -1.287,3.438 -0.083,1.382 0.205,2.615 0.858,3.671 0.67,1.082 1.5,1.676 2.511,1.796 1.011,0.121 1.901,-0.268 2.692,-1.175 0.77,-0.886 1.203,-2.031 1.286,-3.414 0.083,-1.382 -0.206,-2.614 -0.858,-3.693"
         id="path2491" />
      <path
         inkscape:connector-curvature="0"
         style="fill:#1c1616"
         d="m 326.96,101.589 c 1.025,-0.971 2.208,-1.437 3.575,-1.384 1.366,0.053 2.511,0.609 3.457,1.658 0.922,1.071 1.361,2.326 1.305,3.762 -0.055,1.438 -0.591,2.654 -1.593,3.625 -1.026,0.996 -2.209,1.461 -3.576,1.407 -1.365,-0.052 -2.51,-0.609 -3.455,-1.68 -0.923,-1.047 -1.362,-2.302 -1.306,-3.739 0.055,-1.436 0.591,-2.652 1.593,-3.649"
         id="path2493" />
      <path
         inkscape:connector-curvature="0"
         style="fill:none;stroke:#282525;stroke-width:5.30100012;stroke-linecap:round;stroke-miterlimit:10"
         d="m 313.359,90.144 c 14.431,-4.968 26.508,-5.034 36.253,-0.2"
         id="path2495" />
      <path
         inkscape:connector-curvature="0"
         style="fill:#e48300"
         d="m 350.965,123.842 c -0.028,-4.282 -1.188,-7.956 -3.502,-10.999 -2.325,-3.068 -5.117,-4.633 -8.378,-4.684 -3.262,-0.062 -6.029,1.414 -8.312,4.404 -2.282,2.978 -3.408,6.613 -3.379,10.895 0.029,4.282 1.188,7.955 3.5,11.022 2.313,3.055 5.094,4.607 8.357,4.658 3.261,0.062 6.04,-1.401 8.333,-4.378 2.283,-2.99 3.411,-6.637 3.381,-10.918"
         id="path2497" />
    </g>
  </g>
</svg>
