<?xml version="1.0" encoding="UTF-8" standalone="no"?>
<!-- Created with Inkscape (http://www.inkscape.org/) -->

<svg
   xmlns:dc="http://purl.org/dc/elements/1.1/"
   xmlns:cc="http://creativecommons.org/ns#"
   xmlns:rdf="http://www.w3.org/1999/02/22-rdf-syntax-ns#"
   xmlns:svg="http://www.w3.org/2000/svg"
   xmlns="http://www.w3.org/2000/svg"
   xmlns:sodipodi="http://sodipodi.sourceforge.net/DTD/sodipodi-0.dtd"
   xmlns:inkscape="http://www.inkscape.org/namespaces/inkscape"
   width="87.892677"
   height="210.58406"
   id="svg5696"
   version="1.1"
   inkscape:version="0.48.4 r9939"
   sodipodi:docname="bert7.svg">
  <defs
     id="defs5698" />
  <sodipodi:namedview
     id="base"
     pagecolor="#ffffff"
     bordercolor="#666666"
     borderopacity="1.0"
     inkscape:pageopacity="0.0"
     inkscape:pageshadow="2"
     inkscape:zoom="0.77472527"
     inkscape:cx="61.386767"
     inkscape:cy="36.987177"
     inkscape:current-layer="layer1"
     inkscape:document-units="px"
     showgrid="false"
     inkscape:window-width="942"
     inkscape:window-height="591"
     inkscape:window-x="412"
     inkscape:window-y="91"
     inkscape:window-maximized="0"
     fit-margin-top="0"
     fit-margin-left="0"
     fit-margin-right="0"
     fit-margin-bottom="0" />
  <metadata
     id="metadata5701">
    <rdf:RDF>
      <cc:Work
         rdf:about="">
        <dc:format>image/svg+xml</dc:format>
        <dc:type
           rdf:resource="http://purl.org/dc/dcmitype/StillImage" />
        <dc:title></dc:title>
      </cc:Work>
    </rdf:RDF>
  </metadata>
  <g
     id="layer1"
     inkscape:label="Layer 1"
     inkscape:groupmode="layer"
     transform="translate(-170.24301,88.49053)">
    <g
       transform="translate(-93.887099,-365.28346)"
       id="g667">
      <path
         inkscape:connector-curvature="0"
         style="fill:#4daa34"
         d="m 305.544,444.062 h -13.17 v 14.885 l 2.53,-0.354 c 2.732,0.318 4.906,0.4 6.55,0.26 l 4.09,0.094 v -14.885 z"
         id="path669" />
      <path
         inkscape:connector-curvature="0"
         style="fill:#2e6d2d"
         d="m 301.454,460.662 v -1.809 c -1.643,0.141 -3.817,0.059 -6.55,-0.26 0.344,0.814 1.207,1.453 2.612,1.938 1.006,0.225 2.058,0.295 3.158,0.213 l 0.78,-0.082 z"
         id="path671" />
      <path
         inkscape:connector-curvature="0"
         style="fill:#e06a06"
         d="m 270.814,428.27 c 0.022,-0.064 0.045,-0.129 0.069,-0.193 1.975,-3.664 4.462,-4.709 7.483,-3.15 l 1.486,-0.59 -1.255,-3.338 c -0.069,-0.164 -0.083,-0.34 -0.049,-0.525 0.047,-0.176 0.125,-0.322 0.252,-0.455 0.127,-0.135 0.289,-0.227 0.46,-0.262 l 7.067,-1.576 c 0.237,-0.061 0.458,-0.023 0.662,0.09 0.201,0.113 0.344,0.287 0.425,0.508 l 1.861,5.201 c 1.099,0.191 2.1,1.068 3.007,2.646 0.034,0.053 0.055,0.094 0.079,0.148 1.838,5.205 1.151,8.82 -2.042,10.844 -2.54,2.412 -5.926,3.379 -10.154,2.9 l 0.016,0.01 c -1.48,-0.139 -3.079,-0.74 -4.804,-1.779 -1.733,-0.965 -3.021,-2.201 -3.854,-3.709 -0.001,-0.01 -0.006,-0.035 -0.02,-0.043 -1.084,-2.267 -1.318,-4.517 -0.689,-6.727 m 6.163,-1.87 c -1.728,-0.539 -3.189,0.283 -4.396,2.471 -0.455,1.736 -0.263,3.492 0.579,5.273 0.689,1.215 1.738,2.215 3.146,2.986 0.014,0.01 0.028,0.018 0.042,0.025 1.439,0.871 2.779,1.371 4.01,1.512 l 0.011,-0.002 c 3.643,0.41 6.556,-0.412 8.731,-2.467 0.051,-0.045 0.09,-0.088 0.143,-0.111 2.357,-1.625 2.818,-4.492 1.379,-8.613 -0.636,-1.07 -1.309,-1.625 -1.997,-1.674 -0.202,0.006 -0.381,-0.053 -0.545,-0.162 -0.156,-0.123 -0.271,-0.277 -0.346,-0.463 l -1.793,-4.99 -5.225,1.166 1.21,3.18 c 0.086,0.244 0.088,0.482 -0.019,0.719 -0.109,0.223 -0.277,0.389 -0.508,0.482 l -1.957,0.842 c -1.507,1.01 -2.388,2.465 -2.644,4.35 l -0.682,4.057 -0.222,-0.908 c -0.63,-2.561 -0.264,-5.124 1.083,-7.673"
         id="path673" />
      <path
         inkscape:connector-curvature="0"
         style="fill:#fcdf00"
         d="m 272.581,428.871 c 1.206,-2.188 2.668,-3.01 4.396,-2.471 -1.346,2.549 -1.713,5.111 -1.083,7.672 l 0.222,0.908 0.683,-4.057 c 0.255,-1.885 1.136,-3.338 2.643,-4.35 l 1.957,-0.842 c 0.232,-0.094 0.4,-0.26 0.509,-0.482 0.106,-0.236 0.105,-0.475 0.02,-0.719 l -1.21,-3.18 5.224,-1.166 1.794,4.99 c 0.075,0.186 0.19,0.34 0.345,0.463 0.165,0.111 0.344,0.168 0.546,0.162 0.688,0.049 1.36,0.604 1.997,1.674 1.438,4.121 0.978,6.988 -1.38,8.613 -0.053,0.023 -0.093,0.066 -0.143,0.111 -2.175,2.055 -5.089,2.877 -8.73,2.467 l -0.012,0.002 c -1.231,-0.141 -2.571,-0.641 -4.01,-1.512 -0.015,-0.008 -0.028,-0.016 -0.042,-0.025 -1.408,-0.771 -2.458,-1.771 -3.146,-2.986 -0.842,-1.78 -1.036,-3.536 -0.58,-5.272"
         id="path675" />
      <path
         inkscape:connector-curvature="0"
         style="fill:#003c90"
         d="m 286.989,387.48 c -0.203,-0.078 -0.408,-0.074 -0.611,-0.008 -4.876,1.553 -10.582,5.396 -17.093,11.531 -0.028,0.025 -0.045,0.045 -0.071,0.07 -3.647,4.25 -5.334,8.168 -5.054,11.742 0.002,0.09 0.03,0.182 0.062,0.283 3.021,7.838 7.143,14.389 12.366,19.652 0.112,0.105 0.237,0.178 0.388,0.227 0.141,0.055 0.288,0.064 0.447,0.045 7.668,-1.273 12.94,-3.641 15.835,-7.121 0.116,-0.143 0.186,-0.305 0.209,-0.482 0.022,-0.18 -0.008,-0.359 -0.079,-0.521 -2.214,-4.76 -5.72,-9.285 -10.513,-13.568 l 2.139,-2 0.97,-0.918 c 0.171,-0.166 0.271,-0.379 0.284,-0.605 l 1.338,-17.363 c 0.018,-0.217 -0.031,-0.414 -0.151,-0.592 -0.12,-0.178 -0.267,-0.307 -0.466,-0.372 m -9.163,6.788 c 0.065,-0.055 0.125,-0.094 0.196,-0.139 2.717,-1.977 5.246,-3.43 7.601,-4.375 l -1.208,15.529 -0.423,0.412 -0.29,0.273 0.01,-0.006 -2.862,2.691 -0.017,0.02 c -2.146,1.785 -4.083,2.969 -5.812,3.582 l -0.888,0.297 -0.117,0.26 0.127,-0.006 0.012,-0.006 0.004,0.012 -0.016,-0.006 -0.138,0.037 c 2.757,0.23 5.241,-0.518 7.448,-2.248 1.642,1.457 3.13,2.947 4.475,4.463 0.03,0.039 0.072,0.07 0.101,0.111 0.01,0.02 0.03,0.037 0.056,0.064 2.212,2.547 3.985,5.189 5.329,7.908 -2.713,2.816 -7.321,4.793 -13.823,5.93 -1.771,-1.828 -3.417,-3.816 -4.921,-5.945 -0.045,-0.07 -0.086,-0.129 -0.131,-0.201 -2.088,-2.99 -3.911,-6.283 -5.468,-9.877 -0.033,-0.074 -0.068,-0.15 -0.102,-0.225 -0.324,-0.748 -0.632,-1.516 -0.923,-2.275 -0.116,-2.693 1.034,-5.619 3.426,-8.781 0.049,-0.062 0.095,-0.135 0.144,-0.195 0.319,-0.414 0.647,-0.836 1.016,-1.248 2.528,-2.369 4.926,-4.398 7.194,-6.056"
         id="path677" />
      <path
         inkscape:connector-curvature="0"
         style="fill:#9ac843"
         d="m 278.021,394.129 c -0.071,0.045 -0.13,0.084 -0.196,0.139 -2.268,1.658 -4.666,3.688 -7.194,6.057 -0.37,0.412 -0.697,0.834 -1.016,1.248 -0.049,0.061 -0.094,0.133 -0.145,0.195 l 11.368,6.891 0.01,-0.004 2.863,-2.691 -0.011,0.006 0.29,-0.273 -5.969,-11.568 z"
         id="path679" />
      <path
         inkscape:connector-curvature="0"
         style="fill:#df6513"
         d="m 285.622,389.754 c -2.354,0.945 -4.884,2.398 -7.602,4.375 l 5.972,11.566 0.423,-0.412 1.207,-15.529 z"
         id="path681" />
      <path
         inkscape:connector-curvature="0"
         style="fill:#0e5cab"
         d="m 269.471,401.768 c -2.391,3.162 -3.541,6.088 -3.425,8.781 0.29,0.76 0.598,1.527 0.923,2.275 l 7.048,-0.012 0.116,-0.26 0.888,-0.297 c 1.729,-0.613 3.667,-1.797 5.812,-3.582 l 0.006,-0.016 -11.368,-6.889 z"
         id="path683" />
      <path
         inkscape:connector-curvature="0"
         style="fill:#9ac843"
         d="m 266.969,412.824 c 0.033,0.074 0.069,0.15 0.102,0.225 1.557,3.594 3.379,6.887 5.468,9.877 0.045,0.07 0.085,0.131 0.131,0.199 l 13.395,-7.883 -0.036,-0.074 c -0.028,-0.039 -0.071,-0.07 -0.099,-0.109 -1.345,-1.516 -2.833,-3.006 -4.475,-4.463 -2.207,1.73 -4.691,2.479 -7.448,2.248 l 0.139,-0.037 -0.127,0.006 -7.05,0.011 z"
         id="path685" />
      <path
         inkscape:connector-curvature="0"
         style="fill:#df6513"
         d="m 286.085,415.234 -0.022,0.008 -13.395,7.885 c 1.504,2.129 3.151,4.117 4.921,5.945 6.502,-1.137 11.109,-3.113 13.823,-5.93 -1.341,-2.718 -3.117,-5.361 -5.327,-7.908"
         id="path687" />
      <polygon
         style="fill:#0e5cab"
         points="274.155,412.801 274.144,412.807 274.159,412.812 "
         id="polygon689" />
      <path
         inkscape:connector-curvature="0"
         style="fill:#004498"
         d="m 305.38,470.783 c -0.233,-1.279 -0.501,-2.561 -0.816,-3.855 -3.814,1.113 -7.948,1.818 -12.376,2.092 -0.368,0.025 -0.736,0.051 -1.08,0.076 -3.011,-0.09 -5.865,0.381 -8.562,1.404 l 0.011,0.025 c 1.134,0.621 2.167,1.344 3.088,2.18 0.63,0.568 1.194,1.217 1.708,1.934 1.881,2.629 2.927,6.201 3.134,10.709 3.321,-0.162 6.713,-0.721 10.188,-1.676 -1.079,-6.414 0.484,-10.711 4.705,-12.889 m -11.687,2.653 c 0.19,0.189 0.2,0.402 0.021,0.629 -0.343,0.215 -0.683,0.35 -1.028,0.412 -0.227,0.033 -0.516,-0.09 -0.854,-0.369 -1.59,-1.334 -3.67,-2.77 -6.218,-4.289 l 2.306,-0.197 c 2.486,1.351 4.411,2.622 5.773,3.814"
         id="path691" />
      <path
         inkscape:connector-curvature="0"
         style="fill:#ffffff"
         d="m 293.715,474.064 c 0.178,-0.227 0.168,-0.439 -0.021,-0.629 -1.362,-1.191 -3.287,-2.463 -5.773,-3.814 l -2.306,0.197 c 2.548,1.52 4.628,2.955 6.219,4.289 0.337,0.279 0.625,0.402 0.852,0.369 0.346,-0.062 0.686,-0.197 1.029,-0.412"
         id="path693" />
      <path
         inkscape:connector-curvature="0"
         style="fill:#ffffff"
         d="m 300.676,483.672 c 1.359,-0.383 2.731,-0.822 4.109,-1.32 1.245,-0.461 1.752,-1.438 1.531,-2.939 -0.082,-2.822 -0.399,-5.699 -0.937,-8.629 -4.22,2.177 -5.783,6.474 -4.703,12.888"
         id="path695" />
      <path
         inkscape:connector-curvature="0"
         style="fill:#ffffff"
         d="M 281.648,470.875 281.345,471 c -0.035,0.008 -0.083,0.029 -0.121,0.051 -0.085,0.043 -0.183,0.084 -0.267,0.125 l -0.097,0.043 c -0.146,0.074 -0.292,0.148 -0.439,0.223 -0.939,0.502 -1.804,1.113 -2.59,1.836 -0.137,0.121 -0.265,0.256 -0.402,0.391 -1.471,1.51 -2.099,3.152 -1.908,4.926 0.233,2.084 1.555,3.746 3.955,4.975 2.092,1.057 4.446,1.654 7.063,1.785 1.31,0.064 2.622,0.059 3.949,-0.006 -0.208,-4.508 -1.253,-8.08 -3.134,-10.709 -0.515,-0.717 -1.078,-1.365 -1.708,-1.934 -0.922,-0.836 -1.956,-1.559 -3.09,-2.18 -0.313,0.111 -0.616,0.224 -0.908,0.349"
         id="path697" />
      <path
         inkscape:connector-curvature="0"
         style="fill:none;stroke:#003c90;stroke-width:1.88909996;stroke-linecap:round;stroke-linejoin:round;stroke-miterlimit:10"
         d="m 304.564,466.928 c -3.814,1.113 -7.948,1.818 -12.376,2.092 -0.368,0.025 -0.736,0.051 -1.079,0.076 -3.011,-0.092 -5.866,0.381 -8.563,1.404 -0.303,0.115 -0.606,0.238 -0.897,0.375 L 281.345,471 c -0.034,0.008 -0.083,0.029 -0.121,0.051 -0.085,0.043 -0.182,0.084 -0.266,0.125 l -0.097,0.043 c -0.147,0.074 -0.293,0.148 -0.44,0.223 -0.939,0.502 -1.804,1.113 -2.59,1.836 -0.136,0.121 -0.264,0.256 -0.402,0.391 -1.472,1.51 -2.1,3.152 -1.908,4.926 0.232,2.084 1.555,3.746 3.955,4.975 2.092,1.057 4.445,1.654 7.063,1.785 1.31,0.064 2.622,0.059 3.949,-0.006 3.321,-0.162 6.713,-0.721 10.188,-1.676 1.359,-0.383 2.731,-0.822 4.109,-1.322 1.245,-0.457 1.752,-1.436 1.531,-2.938 -0.082,-2.82 -0.399,-5.699 -0.937,-8.629 -0.233,-1.28 -0.501,-2.561 -0.815,-3.856 z"
         id="path699" />
      <path
         inkscape:connector-curvature="0"
         style="fill:#4daa34"
         d="m 305.324,439.414 -24.602,-0.863 c 1.11,10.699 2.625,20.9 4.541,30.584 5.212,1.596 11.893,1.785 20.062,0.592 v -30.313 z"
         id="path701" />
      <path
         inkscape:connector-curvature="0"
         style="fill:none;stroke:#2e6d2d;stroke-width:1.89180005;stroke-linecap:square;stroke-miterlimit:10"
         d="m 280.722,438.551 c 1.11,10.699 2.625,20.9 4.541,30.584 5.212,1.596 11.893,1.785 20.062,0.592 v -30.312 l -24.603,-0.864 z"
         id="path703" />
      <path
         inkscape:connector-curvature="0"
         style="fill:#004498"
         d="m 322.586,470.703 c -0.312,-1.264 -0.661,-2.525 -1.056,-3.801 -3.738,1.352 -7.819,2.312 -12.221,2.863 -0.366,0.049 -0.732,0.098 -1.074,0.146 -3.011,0.096 -5.831,0.746 -8.458,1.938 l 0.011,0.023 c 1.171,0.551 2.25,1.207 3.219,1.982 0.664,0.529 1.271,1.139 1.828,1.822 2.042,2.506 3.307,6.008 3.798,10.494 3.306,-0.367 6.656,-1.139 10.065,-2.309 -1.478,-6.334 -0.186,-10.72 3.888,-13.158 m -11.499,3.379 c 0.202,0.176 0.226,0.389 0.062,0.625 -0.33,0.236 -0.661,0.393 -1.002,0.477 -0.225,0.049 -0.52,-0.057 -0.875,-0.316 -1.672,-1.23 -3.838,-2.533 -6.478,-3.893 l 2.291,-0.34 c 2.567,1.193 4.569,2.342 6.002,3.447"
         id="path705" />
      <path
         inkscape:connector-curvature="0"
         style="fill:#ffffff"
         d="m 311.149,474.707 c 0.164,-0.236 0.14,-0.451 -0.062,-0.625 -1.434,-1.105 -3.436,-2.254 -6.002,-3.447 l -2.29,0.34 c 2.639,1.359 4.805,2.662 6.477,3.893 0.355,0.26 0.649,0.365 0.875,0.316 0.341,-0.084 0.673,-0.241 1.002,-0.477"
         id="path707" />
      <path
         inkscape:connector-curvature="0"
         style="fill:#ffffff"
         d="m 318.698,483.863 c 1.332,-0.467 2.676,-0.992 4.02,-1.576 1.215,-0.537 1.659,-1.541 1.345,-3.029 -0.259,-2.809 -0.756,-5.666 -1.477,-8.557 -4.074,2.44 -5.367,6.826 -3.888,13.162"
         id="path709" />
      <path
         inkscape:connector-curvature="0"
         style="fill:#ffffff"
         d="m 298.904,472.277 -0.296,0.143 c -0.035,0.014 -0.083,0.037 -0.117,0.061 -0.083,0.047 -0.177,0.096 -0.259,0.143 l -0.094,0.047 c -0.141,0.084 -0.282,0.168 -0.423,0.25 -0.908,0.561 -1.732,1.225 -2.471,1.994 -0.129,0.131 -0.248,0.273 -0.376,0.416 -1.375,1.602 -1.9,3.279 -1.598,5.037 0.363,2.064 1.788,3.643 4.26,4.719 2.152,0.922 4.541,1.375 7.162,1.34 1.312,-0.018 2.622,-0.105 3.942,-0.254 -0.491,-4.486 -1.756,-7.988 -3.799,-10.494 -0.557,-0.684 -1.163,-1.293 -1.827,-1.822 -0.97,-0.775 -2.048,-1.432 -3.219,-1.982 -0.307,0.129 -0.603,0.26 -0.885,0.402"
         id="path711" />
      <path
         inkscape:connector-curvature="0"
         style="fill:none;stroke:#003c90;stroke-width:1.88979995;stroke-linecap:round;stroke-linejoin:round;stroke-miterlimit:10"
         d="m 321.532,466.902 c -3.738,1.352 -7.821,2.312 -12.223,2.863 -0.366,0.049 -0.732,0.098 -1.074,0.146 -3.011,0.096 -5.832,0.746 -8.459,1.938 -0.294,0.131 -0.59,0.273 -0.872,0.428 l -0.296,0.143 c -0.035,0.012 -0.082,0.039 -0.118,0.061 -0.082,0.047 -0.176,0.096 -0.259,0.143 l -0.093,0.047 c -0.141,0.084 -0.282,0.168 -0.424,0.25 -0.908,0.561 -1.732,1.225 -2.472,1.994 -0.129,0.131 -0.248,0.273 -0.376,0.416 -1.375,1.602 -1.9,3.279 -1.597,5.037 0.362,2.064 1.788,3.643 4.259,4.719 2.153,0.922 4.54,1.375 7.161,1.34 1.312,-0.018 2.624,-0.105 3.943,-0.254 3.306,-0.367 6.656,-1.139 10.065,-2.309 1.333,-0.469 2.676,-0.992 4.02,-1.576 1.215,-0.537 1.659,-1.541 1.345,-3.029 -0.258,-2.809 -0.755,-5.666 -1.476,-8.557 -0.312,-1.262 -0.66,-2.523 -1.056,-3.799 h 0.002 z"
         id="path713" />
      <path
         inkscape:connector-curvature="0"
         style="fill:#4daa34"
         d="m 300.703,438.736 h 27.156 c -1.148,10.701 -2.72,20.902 -4.694,30.586 -5.391,1.596 -12.875,1.832 -22.462,0.732 v -31.318 z"
         id="path715" />
      <path
         inkscape:connector-curvature="0"
         style="fill:none;stroke:#2e6d2d;stroke-width:1.89180005;stroke-linecap:square;stroke-miterlimit:10"
         d="m 327.859,438.736 c -1.148,10.701 -2.72,20.902 -4.694,30.586 -5.391,1.596 -12.874,1.832 -22.462,0.732 v -31.318 h 27.156 z"
         id="path717" />
      <path
         inkscape:connector-curvature="0"
         style="fill:#9ac843"
         d="m 284.86,388.289 v -5.534 h 5.402 c -3.368,21.329 -4.978,42.004 -4.834,62.032 -0.32,-0.082 -0.627,-0.178 -0.947,-0.27 -1.714,-0.498 -3.227,-1.113 -4.515,-1.834 -1.609,-18.621 0.023,-36.744 4.894,-54.394"
         id="path719" />
      <path
         inkscape:connector-curvature="0"
         style="fill:#0e5cab"
         d="m 290.263,382.755 h 6.927 c -2.753,23.657 -3.818,44.842 -3.192,63.557 -0.709,-0.07 -1.406,-0.154 -2.092,-0.248 -2.271,-0.309 -4.434,-0.734 -6.477,-1.277 -0.144,-20.027 1.465,-40.703 4.834,-62.032"
         id="path721" />
      <path
         inkscape:connector-curvature="0"
         style="fill:#df6513"
         d="m 303.87,446.549 c -0.424,0.012 -0.85,0.035 -1.265,0.049 -0.696,0.012 -1.395,0.023 -2.092,0.023 h -0.403 c -2.116,-0.012 -4.15,-0.119 -6.112,-0.309 -0.627,-18.715 0.438,-39.9 3.192,-63.557 h 7.117 l -0.437,63.794 z"
         id="path723" />
      <path
         inkscape:connector-curvature="0"
         style="fill:#df6513"
         d="m 302.605,446.598 c 0.415,-0.014 0.84,-0.037 1.265,-0.049 v 0.072 c -0.414,-0.012 -0.839,-0.012 -1.265,-0.023"
         id="path725" />
      <path
         inkscape:connector-curvature="0"
         style="fill:#df6513"
         d="m 303.87,446.621 v -0.07 c 0.154,-0.014 0.296,-0.014 0.438,-0.014 v 0.084 h -0.401 c -0.014,-0.012 -0.025,-0.012 -0.037,0"
         id="path727" />
      <path
         inkscape:connector-curvature="0"
         style="fill:#9ac843"
         d="m 304.307,382.755 h 7.188 c 2.742,23.467 3.311,44.454 1.702,62.965 -1.029,0.131 -2.056,0.26 -3.061,0.367 -1.999,0.213 -3.938,0.365 -5.83,0.449 -0.141,0 -0.283,0 -0.438,0.012 l 0.439,-63.793 z"
         id="path729" />
      <path
         inkscape:connector-curvature="0"
         style="fill:#0e5cab"
         d="m 311.496,382.755 h 6.928 c 3.299,20.973 4.54,41.45 3.699,61.417 -0.011,0 -0.023,0 -0.034,0.012 -0.604,0.131 -1.195,0.248 -1.775,0.355 -2.329,0.449 -4.598,0.828 -6.82,1.135 -0.095,0.012 -0.189,0.037 -0.296,0.047 1.608,-18.512 1.039,-39.498 -1.702,-62.966"
         id="path731" />
      <path
         inkscape:connector-curvature="0"
         style="fill:#df6513"
         d="m 324.05,382.755 v 5.356 c 4.115,19.426 5.652,37.619 4.611,54.596 -2.282,0.557 -4.41,1.027 -6.36,1.43 -0.06,0.012 -0.118,0.023 -0.177,0.035 0.84,-19.967 -0.402,-40.443 -3.7,-61.417 h 5.626 z"
         id="path733" />
      <path
         inkscape:connector-curvature="0"
         style="fill:#df6513"
         d="m 328.662,442.707 v 0.061 c -2.116,0.672 -4.244,1.264 -6.384,1.771 0.011,-0.131 0.011,-0.271 0.024,-0.402 1.95,-0.403 4.078,-0.873 6.36,-1.43"
         id="path735" />
      <path
         inkscape:connector-curvature="0"
         style="fill:#0e5cab"
         d="m 313.163,446.123 c -2.944,0.33 -5.889,0.498 -8.855,0.498 v -0.084 c 1.891,-0.084 3.831,-0.236 5.83,-0.449 1.005,-0.107 2.032,-0.236 3.062,-0.367 -0.014,0.131 -0.025,0.259 -0.037,0.402"
         id="path737" />
      <path
         inkscape:connector-curvature="0"
         style="fill:#0e5cab"
         d="m 313.469,446.088 c -0.104,0.01 -0.199,0.023 -0.306,0.035 0.012,-0.143 0.024,-0.271 0.036,-0.402 0.106,-0.01 0.2,-0.035 0.296,-0.047 -0.013,0.142 -0.013,0.285 -0.026,0.414"
         id="path739" />
      <path
         inkscape:connector-curvature="0"
         style="fill:#9ac843"
         d="m 313.469,446.088 c 0.014,-0.129 0.014,-0.271 0.025,-0.414 2.222,-0.307 4.492,-0.686 6.82,-1.135 0.58,-0.107 1.17,-0.225 1.774,-0.355 0.012,-0.012 0.023,-0.012 0.035,-0.012 -0.012,0.133 -0.012,0.273 -0.023,0.414 -2.871,0.662 -5.746,1.158 -8.631,1.502"
         id="path741" />
      <path
         inkscape:connector-curvature="0"
         style="fill:#9ac843"
         d="m 322.1,444.586 c 0.012,-0.141 0.012,-0.281 0.024,-0.414 0.06,-0.012 0.118,-0.023 0.177,-0.035 -0.013,0.131 -0.013,0.271 -0.023,0.402 -0.059,0.012 -0.118,0.035 -0.178,0.047"
         id="path743" />
      <path
         inkscape:connector-curvature="0"
         style="fill:none;stroke:#060f32;stroke-width:0.2367;stroke-linecap:square;stroke-miterlimit:10"
         d="m 294.01,446.609 c 0,-0.107 0,-0.203 -0.012,-0.297 m -8.569,-1.382 v -0.143 m 18.441,1.762 v 0.072 0.697 m 9.328,-1.597 c -0.013,0.131 -0.024,0.26 -0.036,0.402 m 8.926,-1.193 c 0.012,-0.117 0.012,-0.236 0.012,-0.344 0.012,-0.141 0.012,-0.281 0.023,-0.414"
         id="path745" />
      <path
         inkscape:connector-curvature="0"
         style="fill:none;stroke:#003c90;stroke-width:1.89180005;stroke-linecap:square;stroke-miterlimit:10"
         d="m 284.86,382.755 h 5.402 6.929 7.116 7.189 6.928 5.626 v 5.356 c 4.116,19.426 5.653,37.619 4.612,54.596 -2.283,0.557 -4.41,1.027 -6.36,1.43 -0.06,0.012 -0.119,0.023 -0.179,0.035 -0.012,0 -0.024,0 -0.035,0.012 -0.604,0.131 -1.194,0.248 -1.774,0.355 -2.329,0.449 -4.598,0.828 -6.82,1.135 -0.096,0.012 -0.189,0.037 -0.296,0.047 -1.029,0.131 -2.057,0.26 -3.061,0.367 -2,0.213 -3.938,0.365 -5.831,0.449 -0.141,0 -0.283,0 -0.437,0.012 -0.425,0.012 -0.85,0.035 -1.265,0.049 -0.696,0.012 -1.396,0.023 -2.092,0.023 h -0.403 c -2.116,-0.012 -4.149,-0.119 -6.112,-0.309 -0.709,-0.07 -1.406,-0.154 -2.092,-0.248 -2.271,-0.309 -4.434,-0.734 -6.478,-1.277 -0.32,-0.082 -0.627,-0.178 -0.947,-0.27 -1.714,-0.498 -3.227,-1.113 -4.515,-1.834 -1.608,-18.621 0.023,-36.744 4.894,-54.395 v -5.533 z"
         id="path747" />
      <path
         inkscape:connector-curvature="0"
         style="fill:#ffffff"
         d="m 294.79,408.871 c -3.665,-6.361 -6.609,-13.123 -8.843,-20.287 l 21.529,2.281 c -5.024,5.793 -9.256,11.799 -12.686,18.006"
         id="path749" />
      <path
         inkscape:connector-curvature="0"
         style="fill:#e06a06"
         d="m 343.635,424.943 c 0.023,-0.209 -0.017,-0.398 -0.129,-0.568 -0.113,-0.172 -0.267,-0.311 -0.452,-0.387 l -10.793,-4.398 c -0.175,-0.07 -0.353,-0.08 -0.541,-0.039 -0.183,0.029 -0.355,0.115 -0.489,0.258 l -2.354,2.434 c -2.478,0.148 -4.465,1.197 -5.952,3.123 -0.016,0.006 -0.025,0.027 -0.031,0.037 -2.552,3.625 -3.024,6.664 -1.423,9.127 0.091,0.135 0.196,0.238 0.331,0.314 0.013,1.242 0.231,2.168 0.645,2.797 0.415,0.732 1.015,1.164 1.808,1.273 0.04,1.592 0.85,2.75 2.434,3.486 0.819,0.654 2.604,0.783 5.356,0.391 0.047,-0.016 0.099,-0.018 0.146,-0.033 l 2.396,-0.734 c 0.02,-0.016 0.051,-0.027 0.067,-0.031 2.179,-0.879 3.564,-1.865 4.14,-2.955 0.645,-1.043 0.613,-2.164 -0.082,-3.344 0.283,-0.346 0.451,-0.721 0.532,-1.137 0.674,-1.211 0.715,-2.701 0.101,-4.48 l 4.057,-4.594 c 0.14,-0.155 0.215,-0.338 0.233,-0.54 m -6.29,4.77 c -0.033,0.18 0.06,0.848 0.261,2.025 0.202,1.178 0.183,2.002 -0.088,2.482 -0.034,0.049 -0.061,0.102 -0.086,0.154 l -0.015,0.031 c -0.035,0.049 -0.061,0.1 -0.082,0.143 -1.93,2.363 -4.229,4.031 -6.904,5.021 l 0.908,-0.24 c 2.339,-0.645 4.29,-1.451 5.853,-2.43 0.169,0.432 0.162,0.832 -0.023,1.213 -0.481,0.756 -1.552,1.465 -3.182,2.125 l -2.277,0.701 c -2.066,0.293 -3.379,0.262 -3.956,-0.082 -0.068,-0.045 -0.126,-0.088 -0.19,-0.117 -1.125,-0.502 -1.651,-1.275 -1.567,-2.314 0.073,-1.047 0.086,-1.533 0.029,-1.469 -0.067,0.059 -0.176,0.07 -0.351,0.051 -0.185,-0.023 -0.367,-0.02 -0.581,0.02 -0.471,0.086 -0.818,-0.027 -1.044,-0.346 -0.634,-0.656 -0.908,-1.49 -0.803,-2.521 0.105,-1.029 0.143,-1.543 0.103,-1.537 -0.026,0 -0.116,0.049 -0.266,0.119 -0.152,0.072 -0.271,0.104 -0.34,0.109 -1.099,-1.582 -0.534,-3.705 1.686,-6.371 1.22,-1.535 2.85,-2.324 4.895,-2.383 0.251,-0.01 0.465,-0.102 0.641,-0.279 l 2.172,-2.244 8.989,3.66 -3.562,4.023 c -0.115,0.13 -0.186,0.278 -0.22,0.456"
         id="path751" />
      <path
         inkscape:connector-curvature="0"
         style="fill:#fcdf00"
         d="m 337.606,431.738 c -0.201,-1.178 -0.295,-1.846 -0.261,-2.025 0.034,-0.178 0.105,-0.326 0.219,-0.455 l 3.562,-4.023 -8.989,-3.66 -2.172,2.246 c -0.175,0.176 -0.389,0.268 -0.64,0.277 -2.046,0.059 -3.675,0.848 -4.895,2.383 -2.22,2.666 -2.786,4.789 -1.686,6.371 0.069,-0.006 0.188,-0.037 0.339,-0.109 0.151,-0.07 0.24,-0.119 0.266,-0.119 0.041,-0.006 0.003,0.508 -0.102,1.537 -0.105,1.031 0.169,1.865 0.803,2.521 0.226,0.318 0.572,0.432 1.044,0.346 0.214,-0.039 0.397,-0.043 0.582,-0.02 0.174,0.02 0.283,0.008 0.351,-0.051 0.057,-0.064 0.043,0.422 -0.029,1.469 -0.084,1.039 0.441,1.812 1.566,2.314 0.064,0.029 0.122,0.072 0.191,0.117 0.576,0.344 1.888,0.375 3.954,0.082 l 2.277,-0.701 c 1.63,-0.66 2.701,-1.369 3.182,-2.125 0.184,-0.381 0.193,-0.781 0.023,-1.213 -1.563,0.979 -3.513,1.785 -5.852,2.43 l -0.909,0.24 c 2.676,-0.99 4.974,-2.658 6.905,-5.021 0.02,-0.043 0.045,-0.094 0.082,-0.143 l 0.015,-0.031 c 0.026,-0.053 0.051,-0.105 0.087,-0.154 0.271,-0.481 0.289,-1.305 0.087,-2.483"
         id="path753" />
      <path
         inkscape:connector-curvature="0"
         style="fill:#003c90"
         d="m 324.082,387.918 0.215,-0.939 0.216,-0.893 0.915,0.227 c 9.505,2.244 17.123,7.635 22.832,16.182 l -0.036,-0.033 c 3.224,4.346 4.399,8.932 3.513,13.758 0,0.035 -0.013,0.059 -0.023,0.094 -1.231,4.221 -3.203,8.281 -5.915,12.195 -1.854,2.701 -4.074,5.332 -6.654,7.898 -0.186,0.176 -0.408,0.273 -0.678,0.275 -0.258,-0.01 -0.481,-0.102 -0.66,-0.287 l -12.83,-13.262 c -0.165,-0.174 -0.247,-0.375 -0.261,-0.607 -0.015,-0.234 0.055,-0.447 0.193,-0.625 l 6.164,-7.752 c 0.448,-2.502 0.175,-4.387 -0.819,-5.645 -0.036,-0.047 -0.06,-0.094 -0.096,-0.141 -1.345,-2.369 -3.211,-4.076 -5.624,-5.125 l -0.87,-0.369 0.254,-0.586 0.495,-1.131 0.858,0.369 c 0.189,0.08 0.378,0.174 0.565,0.264 1.259,0.611 2.392,1.389 3.384,2.33 0.059,0.047 0.118,0.105 0.177,0.162 0.899,0.883 1.681,1.91 2.346,3.076 0.438,0.514 0.773,1.107 1,1.775 0.024,0.057 0.047,0.129 0.072,0.209 0.395,1.229 0.467,2.729 0.212,4.479 -0.012,0.08 -0.021,0.152 -0.033,0.234 -0.035,0.223 -0.079,0.447 -0.124,0.68 -0.021,0.152 -0.08,0.281 -0.184,0.4 l -2.982,3.766 -2.809,3.527 11.588,11.982 c 2.175,-2.223 4.067,-4.5 5.679,-6.822 0.034,-0.047 0.057,-0.094 0.092,-0.141 0.011,-0.014 0.023,-0.037 0.034,-0.049 2.376,-3.432 4.152,-6.975 5.33,-10.643 0.036,-0.082 0.057,-0.152 0.069,-0.223 0.081,-0.223 0.147,-0.459 0.216,-0.682 0.751,-4.297 -0.303,-8.393 -3.183,-12.273 -0.012,-0.012 -0.012,-0.023 -0.024,-0.035 -0.321,-0.479 -0.653,-0.955 -0.996,-1.422 -0.048,-0.059 -0.095,-0.129 -0.144,-0.188 -2.358,-3.229 -5.042,-5.926 -8.026,-8.096 -0.06,-0.045 -0.131,-0.092 -0.188,-0.137 -3.243,-2.332 -6.857,-4.049 -10.83,-5.166 -0.506,-0.148 -1.011,-0.273 -1.515,-0.398 l -0.915,-0.212 z"
         id="path755" />
      <path
         inkscape:connector-curvature="0"
         style="fill:#df6513"
         d="m 324.297,386.979 -0.215,0.939 0.916,0.215 c 0.505,0.125 1.01,0.25 1.516,0.398 3.973,1.117 7.586,2.834 10.829,5.166 l -8.123,10.418 c -0.993,-0.941 -2.125,-1.719 -3.384,-2.33 -0.187,-0.092 -0.377,-0.184 -0.564,-0.264 l -0.859,-0.369 -0.494,1.131 c -0.272,-0.15 -0.509,-0.396 -0.721,-0.744 -0.369,-0.643 -0.635,-1.508 -0.796,-2.609 -0.162,-1.113 -0.143,-3.096 0.056,-5.967 0.212,-2.875 0.549,-4.508 1.028,-4.898 0.477,-0.391 0.709,-0.686 0.696,-0.885 -0.013,-0.071 0.032,-0.141 0.115,-0.201"
         id="path757" />
      <path
         inkscape:connector-curvature="0"
         style="fill:#9ac843"
         d="m 337.343,393.697 c 0.058,0.045 0.128,0.092 0.188,0.137 2.983,2.17 5.667,4.867 8.026,8.096 0.049,0.059 0.096,0.129 0.143,0.188 l -12.781,7.197 -0.118,-0.211 -0.059,0.023 c -0.227,-0.666 -0.561,-1.26 -0.999,-1.773 -0.666,-1.166 -1.449,-2.193 -2.347,-3.076 -0.059,-0.057 -0.119,-0.115 -0.178,-0.162 l 8.125,-10.419 z"
         id="path759" />
      <path
         inkscape:connector-curvature="0"
         style="fill:#0e5cab"
         d="m 332.816,409.338 0.104,-0.023 12.781,-7.197 c 0.343,0.467 0.675,0.943 0.996,1.422 0.012,0.012 0.012,0.023 0.024,0.035 2.88,3.881 3.934,7.977 3.183,12.273 -0.068,0.223 -0.136,0.459 -0.216,0.682 l -16.659,-2.713 c 0.254,-1.751 0.182,-3.251 -0.213,-4.479"
         id="path761" />
      <path
         inkscape:connector-curvature="0"
         style="fill:#9ac843"
         d="m 332.687,415.131 c 0.104,-0.119 0.163,-0.248 0.184,-0.4 0.045,-0.232 0.089,-0.457 0.124,-0.68 0.012,-0.082 0.021,-0.154 0.033,-0.234 l 16.66,2.713 c -0.012,0.07 -0.034,0.141 -0.069,0.223 -1.178,3.668 -2.954,7.211 -5.33,10.643 -0.011,0.012 -0.022,0.037 -0.035,0.047 -0.035,0.049 -0.058,0.096 -0.091,0.143 l -14.458,-8.688 2.982,-3.767 z"
         id="path763" />
      <path
         inkscape:connector-curvature="0"
         style="fill:#df6513"
         d="m 326.896,422.424 2.809,-3.527 14.458,8.688 c -1.612,2.322 -3.503,4.6 -5.679,6.822 l -11.588,-11.983 z"
         id="path765" />
      <path
         inkscape:connector-curvature="0"
         style="fill:#ffffff"
         d="m 288.809,392.652 c -0.532,-0.225 -1.04,-0.449 -1.55,-0.674 -0.53,-0.236 -1.05,-0.51 -1.537,-0.814 -0.354,-0.213 -0.685,-0.449 -0.992,-0.721 -0.048,-0.061 -0.095,-0.119 -0.153,-0.18 -0.509,-0.508 -0.913,-1.086 -1.23,-1.713 -0.201,-0.391 -0.389,-0.77 -0.557,-1.158 v -0.014 c -0.211,-0.768 -0.342,-1.654 -0.4,-2.659 -0.261,-2.519 -0.201,-4.847 0.176,-6.999 h 44.583 c 0.034,0.295 0.058,0.59 0.07,0.886 0.131,2.387 -0.141,4.99 -0.839,7.805 -0.627,1.926 -1.524,3.225 -2.719,3.9 -0.792,0.459 -1.49,0.84 -2.069,1.146 -0.392,0.189 -0.791,0.367 -1.194,0.543 -0.946,0.402 -1.927,0.758 -2.944,1.053 -1.088,0.318 -2.175,0.602 -3.274,0.84 -1.076,0.248 -2.175,0.438 -3.274,0.578 -2.093,0.309 -4.187,0.498 -6.278,0.58 -0.839,0.023 -1.668,0.035 -2.507,0.023 -0.307,-0.012 -0.614,-0.012 -0.933,-0.012 -0.863,-0.047 -1.738,-0.094 -2.613,-0.131 -1.195,-0.082 -2.4,-0.234 -3.593,-0.471 -0.391,-0.084 -0.781,-0.18 -1.171,-0.262 -1.691,-0.387 -3.36,-0.895 -5.002,-1.546"
         id="path767" />
      <path
         inkscape:connector-curvature="0"
         style="fill:none;stroke:#003c90;stroke-width:1.89180005;stroke-linecap:round;stroke-linejoin:round;stroke-miterlimit:10"
         d="m 282.79,387.393 v -0.014 c -0.211,-0.768 -0.342,-1.654 -0.401,-2.659 -0.26,-2.519 -0.201,-4.847 0.177,-6.999 h 44.583 c 0.034,0.295 0.058,0.591 0.068,0.886 0.132,2.387 -0.14,4.99 -0.838,7.805 -0.627,1.926 -1.525,3.225 -2.718,3.9 -0.793,0.461 -1.491,0.84 -2.07,1.146 -0.39,0.189 -0.792,0.367 -1.194,0.543 -0.946,0.402 -1.928,0.758 -2.943,1.053 -1.088,0.318 -2.176,0.602 -3.275,0.84 -1.075,0.248 -2.175,0.436 -3.274,0.578 -2.093,0.309 -4.186,0.498 -6.278,0.58 -0.839,0.023 -1.667,0.035 -2.508,0.023 -0.307,-0.012 -0.614,-0.012 -0.934,-0.012 -0.862,-0.047 -1.738,-0.094 -2.612,-0.131 -1.195,-0.082 -2.399,-0.236 -3.593,-0.471 -0.39,-0.084 -0.78,-0.18 -1.171,-0.262 -1.688,-0.391 -3.356,-0.898 -5.001,-1.549 -0.531,-0.225 -1.039,-0.449 -1.549,-0.674 -0.53,-0.236 -1.051,-0.51 -1.536,-0.814 -0.355,-0.213 -0.686,-0.449 -0.993,-0.721 m 0,0.002 c -0.048,-0.061 -0.096,-0.119 -0.153,-0.178 -0.509,-0.51 -0.912,-1.088 -1.23,-1.715 -0.2,-0.391 -0.389,-0.77 -0.556,-1.158 m 1.939,3.051 c -0.224,-0.178 -0.438,-0.381 -0.639,-0.592 -0.58,-0.604 -1.005,-1.432 -1.301,-2.459"
         id="path769" />
      <path
         inkscape:connector-curvature="0"
         style="fill:#d8272a"
         d="m 300.309,367.774 c 1.265,1.821 2.723,3.394 4.395,4.705 1.682,1.314 3.491,2.277 5.437,2.907 1.753,0.583 3.545,0.967 5.386,1.163 1.748,0.157 3.506,0.125 5.262,-0.12 0.812,-0.109 1.74,-0.365 2.776,-0.744 -10.176,0.936 -18.481,-2.995 -24.894,-11.788 0.027,1.054 0.567,2.35 1.638,3.877"
         id="path771" />
      <path
         inkscape:connector-curvature="0"
         style="fill:#ffffff"
         d="m 336.492,335.142 c -1.258,-2.058 -2.808,-3.1 -4.621,-3.136 -1.802,-0.033 -3.336,0.957 -4.6,2.959 -1.263,1.989 -1.893,4.422 -1.888,7.284 -0.007,2.86 0.633,5.311 1.904,7.37 1.259,2.058 2.808,3.1 4.621,3.136 1.801,0.033 3.335,-0.957 4.6,-2.959 1.276,-2 1.906,-4.444 1.891,-7.308 0.005,-2.861 -0.634,-5.31 -1.907,-7.346"
         id="path773" />
      <path
         inkscape:connector-curvature="0"
         style="fill:#ffffff"
         d="m 319.321,333.689 c -1.717,-2.246 -3.943,-3.508 -6.684,-3.788 -2.739,-0.28 -5.191,0.501 -7.33,2.346 -2.138,1.833 -3.367,4.196 -3.663,7.099 -0.296,2.905 0.403,5.479 2.117,7.735 1.729,2.247 3.968,3.51 6.708,3.791 2.727,0.278 5.167,-0.505 7.307,-2.35 2.164,-1.843 3.392,-4.215 3.688,-7.12 0.296,-2.903 -0.416,-5.466 -2.143,-7.713"
         id="path775" />
      <path
         inkscape:connector-curvature="0"
         style="fill:#1c1616"
         d="m 333.187,341.212 c -0.642,-1.068 -1.455,-1.678 -2.457,-1.823 -1.001,-0.143 -1.896,0.223 -2.7,1.083 -0.788,0.885 -1.245,2.013 -1.361,3.384 -0.116,1.374 0.143,2.605 0.767,3.669 0.64,1.091 1.453,1.702 2.454,1.845 1.001,0.145 1.896,-0.221 2.703,-1.104 0.785,-0.862 1.243,-1.991 1.357,-3.363 0.117,-1.371 -0.141,-2.603 -0.763,-3.691"
         id="path777" />
      <path
         inkscape:connector-curvature="0"
         style="fill:#1c1616"
         d="m 309.337,340.055 c 1.042,-0.942 2.23,-1.375 3.586,-1.291 1.356,0.085 2.48,0.665 3.396,1.728 0.891,1.086 1.298,2.342 1.209,3.771 -0.091,1.427 -0.651,2.623 -1.669,3.565 -1.043,0.965 -2.23,1.399 -3.585,1.314 -1.357,-0.084 -2.483,-0.664 -3.397,-1.751 -0.891,-1.062 -1.299,-2.318 -1.209,-3.746 0.089,-1.428 0.651,-2.624 1.669,-3.59"
         id="path779" />
      <path
         inkscape:connector-curvature="0"
         style="fill:none;stroke:#282525;stroke-width:5.26980019;stroke-linecap:round;stroke-miterlimit:10"
         d="m 300.331,325.057 c 14.459,-4.598 26.467,-4.38 36.038,0.655"
         id="path781" />
      <path
         inkscape:connector-curvature="0"
         style="fill:#e48300"
         d="m 336.94,359.408 c 0.072,-4.255 -0.993,-7.934 -3.222,-11.014 -2.237,-3.104 -4.975,-4.726 -8.217,-4.853 -3.24,-0.139 -6.026,1.264 -8.364,4.181 -2.34,2.906 -3.544,6.492 -3.616,10.749 -0.072,4.256 0.993,7.935 3.221,11.038 2.226,3.091 4.954,4.699 8.195,4.826 3.241,0.138 6.036,-1.25 8.386,-4.156 2.34,-2.916 3.547,-6.516 3.617,-10.771"
         id="path783" />
      <path
         inkscape:connector-curvature="0"
         style="fill:#fcdf00"
         d="m 350.538,358.846 c 0.325,-3.316 -0.234,-6.232 -1.662,-8.748 -1.428,-2.514 -3.326,-3.887 -5.677,-4.116 -2.341,-0.23 -4.468,0.75 -6.368,2.938 -1.889,2.19 -3,4.943 -3.325,8.26 -0.323,3.316 0.234,6.232 1.662,8.747 1.44,2.516 3.337,3.888 5.676,4.118 2.355,0.23 4.48,-0.749 6.369,-2.939 1.888,-2.19 3.001,-4.943 3.325,-8.26"
         id="path785" />
      <path
         inkscape:connector-curvature="0"
         style="fill:none;stroke:#e06a06;stroke-width:1.89110005;stroke-linecap:round;stroke-linejoin:round;stroke-miterlimit:10"
         d="m 350.538,358.846 c -0.324,3.317 -1.437,6.07 -3.325,8.261 -1.889,2.19 -4.014,3.17 -6.369,2.939 -2.339,-0.23 -4.235,-1.603 -5.676,-4.118 -1.428,-2.515 -1.985,-5.431 -1.662,-8.747 0.325,-3.317 1.437,-6.07 3.325,-8.26 1.9,-2.188 4.026,-3.169 6.368,-2.938 2.351,0.229 4.249,1.602 5.677,4.116 1.428,2.514 1.987,5.43 1.662,8.747 z"
         id="path787" />
      <path
         inkscape:connector-curvature="0"
         style="fill:#fcdf00"
         d="m 282.789,352.222 c 0.325,-3.317 -0.232,-6.233 -1.661,-8.747 -1.441,-2.515 -3.338,-3.889 -5.677,-4.119 -2.354,-0.229 -4.479,0.75 -6.367,2.941 -1.89,2.19 -3.001,4.943 -3.326,8.259 -0.324,3.317 0.235,6.233 1.663,8.748 1.429,2.515 3.325,3.887 5.676,4.118 2.342,0.229 4.468,-0.751 6.368,-2.94 1.888,-2.19 3,-4.943 3.324,-8.26"
         id="path789" />
      <path
         inkscape:connector-curvature="0"
         style="fill:none;stroke:#e06a06;stroke-width:1.89110005;stroke-linecap:round;stroke-linejoin:round;stroke-miterlimit:10"
         d="m 281.128,343.475 c -1.441,-2.515 -3.337,-3.889 -5.678,-4.119 -2.353,-0.229 -4.479,0.75 -6.366,2.941 -1.89,2.19 -3.002,4.943 -3.326,8.259 -0.324,3.317 0.235,6.233 1.663,8.748 1.429,2.515 3.324,3.887 5.677,4.118 2.341,0.229 4.468,-0.751 6.367,-2.94 1.889,-2.19 3.001,-4.943 3.325,-8.26 0.324,-3.317 -0.233,-6.233 -1.662,-8.747 z"
         id="path791" />
      <path
         inkscape:connector-curvature="0"
         style="fill:#fcdf00"
         d="m 333.192,316.682 c -0.032,-0.04 -0.051,-0.089 -0.083,-0.126 -4.806,-7.809 -10.734,-12.271 -17.786,-13.376 -1.166,-0.22 -2.367,-0.327 -3.601,-0.34 -7.099,-0.255 -13.745,2.978 -19.944,9.674 -0.04,0.032 -0.066,0.077 -0.105,0.108 -5.209,5.772 -9.283,12.095 -12.244,18.942 -0.365,0.95 -0.708,1.902 -1.039,2.855 -0.118,0.357 -0.235,0.713 -0.354,1.071 -1.896,5.656 -3.074,11.276 -3.514,16.861 -0.107,2.686 -0.006,5.414 0.279,8.197 0.593,6.078 2.947,11.521 7.047,16.351 5.33,6.067 13.093,9.511 23.285,10.317 10.416,1.207 18.837,-0.652 25.243,-5.572 4.958,-3.944 8.32,-8.828 10.08,-14.678 0.819,-2.674 1.449,-5.331 1.862,-7.986 0.65,-5.564 0.582,-11.307 -0.181,-17.223 -0.045,-0.373 -0.093,-0.745 -0.14,-1.118 -0.139,-1 -0.291,-2 -0.455,-3.002 -1.357,-7.696 -4.143,-14.689 -8.35,-20.955"
         id="path793" />
      <path
         inkscape:connector-curvature="0"
         style="fill:none;stroke:#e06a06;stroke-width:1.89110005;stroke-linecap:round;stroke-linejoin:round;stroke-miterlimit:10"
         d="m 333.109,316.556 c -4.806,-7.809 -10.735,-12.271 -17.787,-13.376 -1.166,-0.22 -2.366,-0.327 -3.6,-0.34 -7.099,-0.255 -13.745,2.978 -19.945,9.674 -0.039,0.032 -0.065,0.077 -0.104,0.108 -5.209,5.772 -9.283,12.095 -12.244,18.942 -0.366,0.95 -0.708,1.902 -1.039,2.855 -0.118,0.356 -0.235,0.713 -0.353,1.071 -1.896,5.656 -3.075,11.276 -3.515,16.861 -0.107,2.686 -0.006,5.414 0.279,8.197 0.593,6.078 2.947,11.521 7.047,16.351 5.331,6.067 13.093,9.511 23.285,10.317 10.416,1.207 18.838,-0.652 25.244,-5.572 4.957,-3.944 8.32,-8.828 10.08,-14.678 0.819,-2.674 1.449,-5.331 1.862,-7.986 0.65,-5.564 0.582,-11.307 -0.181,-17.223 -0.045,-0.373 -0.093,-0.745 -0.14,-1.118 -0.139,-1 -0.291,-2 -0.455,-3.002 -1.359,-7.697 -4.145,-14.69 -8.352,-20.956 -0.031,-0.038 -0.05,-0.088 -0.082,-0.125 z"
         id="path795" />
      <path
         inkscape:connector-curvature="0"
         style="fill:#282525"
         d="m 325.667,281.765 c 0.355,-0.355 0.639,-0.721 0.864,-1.078 0.068,-0.1 -0.683,0.063 -2.255,0.492 -1.623,0.446 -2.862,0.848 -3.704,1.205 -1.921,0.81 -3.334,1.669 -4.267,2.575 -0.372,0.403 -0.707,0.797 -0.992,1.162 -0.426,-0.624 -0.913,-1.479 -1.459,-2.564 -0.715,-1.437 -1.156,-2.999 -1.32,-4.713 -0.02,-1.38 -0.048,-2.059 -0.084,-2.051 -0.863,0.201 -1.72,0.699 -2.569,1.483 -1.718,1.554 -2.656,3.861 -2.813,6.921 -0.101,1.51 -0.049,3.046 0.169,4.6 -1.153,-0.493 -2.053,-0.996 -2.679,-1.521 -0.788,-0.683 -1.548,-2.016 -2.291,-4.023 -0.591,-1.59 -0.892,-2.652 -0.924,-3.178 -0.021,-0.144 -0.229,0.167 -0.636,0.935 -0.465,0.857 -0.817,1.784 -1.058,2.794 -0.733,3.123 -0.13,6.067 1.797,8.821 0.167,0.241 0.402,0.621 0.697,1.137 -3.369,-0.899 -5.849,-2.484 -7.466,-4.768 -0.109,-0.236 -0.224,-0.021 -0.371,0.63 -0.127,0.699 -0.183,1.514 -0.145,2.456 0.098,2.764 0.871,4.929 2.333,6.497 l 0.368,0.369 c -1.336,0.06 -2.667,-0.059 -4.005,-0.343 -0.851,-0.167 -1.689,-0.438 -2.507,-0.839 -0.598,-0.295 -1.41,-0.755 -2.404,-1.375 -0.12,-0.106 0.494,1.01 1.833,3.339 1.382,2.378 2.406,3.929 3.085,4.646 1.677,1.791 3.819,3.082 6.439,3.848 2.619,0.766 5.656,0.565 9.109,-0.618 0.669,0.552 1.455,1.033 2.329,1.439 0.829,0.377 1.636,0.635 2.396,0.755 0.994,0.157 1.944,0.155 2.831,-0.032 1.016,-0.197 1.852,-0.614 2.495,-1.251 0.702,0.721 1.551,1.279 2.519,1.694 0.96,0.391 1.949,0.594 2.98,0.601 1.009,0.015 2.016,-0.089 3.025,-0.323 0.678,-0.134 1.656,-0.42 2.932,-0.829 1.162,-0.362 3.112,-0.623 5.847,-0.783 2.338,-0.115 3.485,-0.193 3.443,-0.233 -0.82,-0.852 -1.792,-1.469 -2.933,-1.83 -0.93,-0.317 -2.101,-0.502 -3.508,-0.558 -0.612,-0.047 -1.268,-0.017 -1.954,0.071 0.696,-0.312 1.338,-0.688 1.941,-1.14 1.292,-0.966 2.361,-2.18 3.183,-3.655 0.457,-0.798 1.113,-2.277 1.956,-4.463 -1.008,0.721 -2.153,1.5 -3.433,2.324 -2.585,1.66 -4.503,2.564 -5.752,2.715 -0.349,0.049 -0.921,0.077 -1.694,0.096 1.098,-2.019 1.947,-3.396 2.542,-4.146 0.647,-0.791 1.972,-1.944 3.971,-3.458 l 2.692,-2.017 c -0.815,-0.542 -1.865,-0.847 -3.14,-0.924 -1.146,-0.064 -2.394,0.062 -3.721,0.396 0.666,-0.968 1.022,-2.548 1.061,-4.765 0.04,-2.228 -0.006,-3.218 -0.161,-2.96 -0.614,1.044 -1.409,2.01 -2.397,2.899 -0.987,0.866 -2.054,1.569 -3.197,2.087 -0.834,0.393 -1.914,0.75 -3.239,1.084 0.135,-1.399 0.396,-2.609 0.781,-3.628 0.806,-2.072 1.95,-4.074 3.46,-6.005"
         id="path797" />
      <path
         inkscape:connector-curvature="0"
         style="fill:#d8272a"
         d="m 332.409,371.229 c -4.012,2.162 -8.428,3.487 -13.236,3.967 -4.809,0.468 -8.898,0.543 -12.251,0.215 -3.365,-0.329 -7.364,-1.196 -11.99,-2.585 -4.625,-1.402 -8.702,-3.558 -12.218,-6.455 7.091,7.152 15.068,11.057 23.921,11.719 8.837,1.066 17.421,-1.219 25.774,-6.861"
         id="path799" />
      <path
         inkscape:connector-curvature="0"
         style="fill:#ffffff"
         d="m 332.228,342.552 c 0.286,-2.917 -0.448,-5.494 -2.188,-7.743 -1.762,-2.25 -4.014,-3.503 -6.78,-3.774 -2.763,-0.27 -5.216,0.523 -7.381,2.389 -2.142,1.87 -3.361,4.256 -3.646,7.173 -0.285,2.905 0.45,5.483 2.188,7.743 1.762,2.25 4.015,3.502 6.779,3.773 2.764,0.271 5.217,-0.523 7.381,-2.39 2.145,-1.88 3.364,-4.266 3.647,-7.171"
         id="path801" />
      <path
         inkscape:connector-curvature="0"
         style="fill:#ffffff"
         d="m 308.116,340.193 c 0.285,-2.916 -0.448,-5.493 -2.188,-7.741 -1.763,-2.25 -4.015,-3.504 -6.779,-3.774 -2.765,-0.271 -5.217,0.521 -7.383,2.388 -2.165,1.867 -3.384,4.253 -3.67,7.17 -0.282,2.905 0.451,5.482 2.213,7.745 1.762,2.25 4.015,3.503 6.779,3.773 2.764,0.271 5.216,-0.522 7.381,-2.389 2.146,-1.879 3.364,-4.265 3.647,-7.172"
         id="path803" />
      <path
         inkscape:connector-curvature="0"
         style="fill:#1c1616"
         d="m 325.273,338.833 c -0.838,-1.125 -1.92,-1.781 -3.267,-1.961 -1.349,-0.179 -2.562,0.172 -3.668,1.039 -1.085,0.894 -1.728,2.046 -1.915,3.465 -0.189,1.417 0.128,2.699 0.946,3.822 0.835,1.147 1.917,1.804 3.266,1.983 1.345,0.179 2.562,-0.172 3.669,-1.061 1.082,-0.87 1.725,-2.024 1.913,-3.441 0.189,-1.417 -0.13,-2.7 -0.944,-3.846"
         id="path805" />
      <path
         inkscape:connector-curvature="0"
         style="fill:#1c1616"
         d="m 295.611,335.935 c 1.043,-0.941 2.23,-1.377 3.586,-1.292 1.356,0.085 2.479,0.666 3.396,1.729 0.891,1.086 1.298,2.343 1.208,3.769 -0.088,1.428 -0.65,2.624 -1.668,3.566 -1.043,0.966 -2.23,1.4 -3.587,1.315 -1.356,-0.085 -2.479,-0.664 -3.395,-1.752 -0.893,-1.062 -1.3,-2.319 -1.21,-3.747 0.09,-1.426 0.65,-2.623 1.67,-3.588"
         id="path807" />
      <path
         inkscape:connector-curvature="0"
         style="fill:none;stroke:#282525;stroke-width:4.25439978;stroke-linecap:round;stroke-miterlimit:10"
         d="m 291.19,322.391 c 16.085,-2.382 29.563,-1.064 40.46,3.955"
         id="path809" />
      <path
         inkscape:connector-curvature="0"
         style="fill:#e48300"
         d="m 315.873,368.983 c 2.563,-2.776 4.058,-6.276 4.471,-10.511 0.414,-4.233 -0.373,-7.957 -2.352,-11.154 -2,-3.224 -4.607,-4.987 -7.841,-5.303 -3.234,-0.316 -6.132,0.909 -8.697,3.687 -2.561,2.752 -4.053,6.252 -4.468,10.487 -0.414,4.234 0.374,7.956 2.352,11.178 1.978,3.198 4.583,4.961 7.819,5.276 3.233,0.317 6.132,-0.907 8.716,-3.66"
         id="path811" />
    </g>
  </g>
</svg>
