<?xml version="1.0" encoding="UTF-8" standalone="no"?>
<!-- Created with Inkscape (http://www.inkscape.org/) -->

<svg
   xmlns:dc="http://purl.org/dc/elements/1.1/"
   xmlns:cc="http://creativecommons.org/ns#"
   xmlns:rdf="http://www.w3.org/1999/02/22-rdf-syntax-ns#"
   xmlns:svg="http://www.w3.org/2000/svg"
   xmlns="http://www.w3.org/2000/svg"
   xmlns:sodipodi="http://sodipodi.sourceforge.net/DTD/sodipodi-0.dtd"
   xmlns:inkscape="http://www.inkscape.org/namespaces/inkscape"
   width="100.28458"
   height="207.84602"
   id="svg5696"
   version="1.1"
   inkscape:version="0.48.4 r9939"
   sodipodi:docname="bert12.svg">
  <defs
     id="defs5698" />
  <sodipodi:namedview
     id="base"
     pagecolor="#ffffff"
     bordercolor="#666666"
     borderopacity="1.0"
     inkscape:pageopacity="0.0"
     inkscape:pageshadow="2"
     inkscape:zoom="0.77472527"
     inkscape:cx="-44.773906"
     inkscape:cy="76.981146"
     inkscape:current-layer="layer1"
     inkscape:document-units="px"
     showgrid="false"
     inkscape:window-width="942"
     inkscape:window-height="591"
     inkscape:window-x="412"
     inkscape:window-y="91"
     inkscape:window-maximized="0"
     fit-margin-top="0"
     fit-margin-left="0"
     fit-margin-right="0"
     fit-margin-bottom="0" />
  <metadata
     id="metadata5701">
    <rdf:RDF>
      <cc:Work
         rdf:about="">
        <dc:format>image/svg+xml</dc:format>
        <dc:type
           rdf:resource="http://purl.org/dc/dcmitype/StillImage" />
        <dc:title></dc:title>
      </cc:Work>
    </rdf:RDF>
  </metadata>
  <g
     id="layer1"
     inkscape:label="Layer 1"
     inkscape:groupmode="layer"
     transform="translate(-276.40369,45.758515)">
    <g
       transform="translate(-204.56335,-560.3019)"
       id="g1795">
      <path
         inkscape:connector-curvature="0"
         style="fill:#ffe300"
         d="m 498.194,626.857 c -1.027,-0.928 -2.188,-1.59 -3.479,-1.988 v 8.814 H 482.42 c 0.197,1.957 1.093,3.611 2.65,5.037 1.822,1.625 4.01,2.455 6.562,2.455 2.551,0 4.738,-0.83 6.562,-2.455 1.823,-1.623 2.717,-3.611 2.717,-5.932 0,-2.321 -0.893,-4.306 -2.717,-5.931"
         id="path1797" />
      <path
         inkscape:connector-curvature="0"
         style="fill:none;stroke:#ef8020;stroke-width:1.65709996;stroke-miterlimit:10"
         d="m 494.715,624.869 c 1.292,0.398 2.451,1.061 3.479,1.988 1.822,1.623 2.717,3.611 2.717,5.932 0,2.321 -0.895,4.309 -2.717,5.932 -1.823,1.625 -4.011,2.455 -6.562,2.455 -2.551,0 -4.738,-0.83 -6.561,-2.455 -1.558,-1.426 -2.453,-3.08 -2.651,-5.037"
         id="path1799" />
      <path
         inkscape:connector-curvature="0"
         style="fill:#ffe300"
         d="m 494.715,628.746 c -0.961,-0.299 -1.989,-0.465 -3.083,-0.465 -2.552,0 -4.738,0.83 -6.561,2.453 -1.823,1.623 -2.72,3.611 -2.72,5.934 0,0.297 0.035,0.596 0.068,0.893 h 12.295 v -8.815 z"
         id="path1801" />
      <path
         inkscape:connector-curvature="0"
         style="fill:none;stroke:#ef8020;stroke-width:1.65709996;stroke-miterlimit:10"
         d="m 494.715,628.746 c -0.961,-0.299 -1.989,-0.465 -3.083,-0.465 -2.552,0 -4.738,0.83 -6.561,2.453 -1.823,1.623 -2.72,3.611 -2.72,5.934 0,0.297 0.035,0.596 0.068,0.893"
         id="path1803" />
      <path
         inkscape:connector-curvature="0"
         style="fill:#ffe300"
         d="m 580.149,639.783 h -12.294 v -8.816 c 0.961,-0.299 1.988,-0.463 3.082,-0.463 2.552,0 4.738,0.828 6.562,2.453 1.823,1.623 2.717,3.611 2.717,5.93 0,0.299 -0.033,0.597 -0.067,0.896"
         id="path1805" />
      <path
         inkscape:connector-curvature="0"
         style="fill:none;stroke:#ef8020;stroke-width:1.65709996;stroke-miterlimit:10"
         d="m 567.855,630.967 c 0.961,-0.297 1.988,-0.463 3.082,-0.463 2.552,0 4.738,0.828 6.562,2.453 1.823,1.623 2.717,3.611 2.717,5.93 0,0.299 -0.033,0.598 -0.066,0.896"
         id="path1807" />
      <path
         inkscape:connector-curvature="0"
         style="fill:#005ba8"
         d="m 532.957,715.945 c 0.046,0.256 0.163,0.396 0.35,0.467 7.538,2.869 13.884,4.248 19.041,4.084 4.365,-0.141 7.233,-1.26 8.611,-3.385 1.282,-1.982 0.933,-4.037 -1.073,-6.184 -2.172,-2.309 -5.483,-3.756 -9.987,-4.34 l 0.069,-0.047 c -2.753,-0.35 -5.741,-0.396 -8.938,-0.162 -0.513,0 -1.586,0.021 -3.22,0.068 -1.47,0.047 -2.591,0.047 -3.384,0.023 -0.209,1.285 -0.514,3.012 -0.91,5.227 -0.279,1.518 -0.443,2.545 -0.514,3.059 -0.068,0.538 -0.093,0.934 -0.045,1.19"
         id="path1809" />
      <path
         inkscape:connector-curvature="0"
         style="fill:none;stroke:#005ba8;stroke-width:3.73340011;stroke-linecap:round;stroke-linejoin:round;stroke-miterlimit:10"
         d="m 532.957,715.945 c -0.048,-0.256 -0.023,-0.652 0.046,-1.189 0.07,-0.514 0.234,-1.541 0.514,-3.059 0.396,-2.215 0.701,-3.941 0.91,-5.227 0.793,0.023 1.914,0.023 3.384,-0.023 1.634,-0.047 2.707,-0.068 3.22,-0.068 3.196,-0.234 6.185,-0.188 8.938,0.162 l -0.069,0.047 c 4.504,0.584 7.815,2.031 9.987,4.34 2.006,2.146 2.355,4.201 1.073,6.184 -1.378,2.125 -4.246,3.244 -8.611,3.385 -5.157,0.164 -11.503,-1.215 -19.041,-4.084 -0.188,-0.071 -0.305,-0.212 -0.351,-0.468 z"
         id="path1811" />
      <path
         inkscape:connector-curvature="0"
         style="fill:#ffffff"
         d="m 533.003,714.779 c -0.069,0.537 -0.094,0.934 -0.046,1.189 0.046,0.256 0.163,0.396 0.35,0.467 1.518,0.584 3.01,1.119 4.457,1.562 0.606,-3.08 0.443,-5.646 -0.466,-7.699 -0.631,-1.447 -1.611,-2.568 -2.941,-3.383 -0.208,1.234 -0.49,2.893 -0.862,4.945 -0.258,1.472 -0.422,2.429 -0.492,2.919"
         id="path1813" />
      <path
         inkscape:connector-curvature="0"
         style="fill:#ffffff"
         d="m 555.171,707.918 c -1.843,0.863 -3.382,2.17 -4.597,3.898 -1.54,2.193 -2.521,5.016 -2.964,8.447 3.852,0.488 7.024,0.303 9.497,-0.516 2.218,-0.723 3.617,-1.842 4.248,-3.383 0.583,-1.469 0.327,-2.963 -0.748,-4.527 -1.141,-1.632 -2.94,-2.939 -5.436,-3.919"
         id="path1815" />
      <path
         inkscape:connector-curvature="0"
         style="fill:#0066b1"
         d="m 534.356,706.916 c 1.33,0.814 2.311,1.936 2.941,3.383 0.909,2.053 1.072,4.619 0.466,7.699 3.616,1.145 6.884,1.891 9.848,2.266 0.442,-3.432 1.423,-6.254 2.963,-8.447 1.215,-1.729 2.754,-3.035 4.597,-3.898 -1.655,-0.629 -3.406,-1.074 -5.272,-1.307 l 0.069,-0.047 c -2.753,-0.35 -5.741,-0.396 -8.938,-0.164 -0.513,0 -1.587,0.025 -3.22,0.07 -1.47,0.047 -2.591,0.047 -3.383,0.023 l -0.071,0.422 z"
         id="path1817" />
      <path
         inkscape:connector-curvature="0"
         style="fill:#ffffff"
         d="m 545.813,710.51 c 0.328,0.068 0.606,-0.025 0.817,-0.234 0.187,-0.164 1.027,-0.723 2.544,-1.68 1.516,-0.957 2.543,-1.588 3.032,-1.867 -1.166,-0.117 -1.89,-0.188 -2.191,-0.164 -0.282,0.023 -0.701,0.188 -1.284,0.467 -1.773,0.91 -3.01,1.682 -3.733,2.357 -0.188,0.164 -0.28,0.279 -0.304,0.35 -0.024,0.115 0.023,0.232 0.187,0.35 0.28,0.21 0.584,0.35 0.932,0.421"
         id="path1819" />
      <path
         inkscape:connector-curvature="0"
         style="fill:#005ba8"
         d="m 503.275,710.953 c -2.006,2.145 -2.357,4.199 -1.073,6.182 1.377,2.125 4.247,3.244 8.609,3.383 5.158,0.164 11.505,-1.213 19.043,-4.082 0.186,-0.072 0.302,-0.211 0.35,-0.467 0.046,-0.256 0.021,-0.652 -0.048,-1.189 -0.069,-0.514 -0.233,-1.541 -0.489,-3.057 -0.397,-2.217 -0.724,-3.945 -0.935,-5.229 -0.769,0.023 -1.889,0.023 -3.359,-0.023 -1.587,-0.045 -2.659,-0.07 -3.243,-0.045 -3.174,-0.258 -6.138,-0.211 -8.915,0.139 l 0.047,0.047 c -4.503,0.583 -7.817,2.029 -9.987,4.341"
         id="path1821" />
      <path
         inkscape:connector-curvature="0"
         style="fill:none;stroke:#005ba8;stroke-width:3.73340011;stroke-linecap:round;stroke-linejoin:round;stroke-miterlimit:10"
         d="m 503.275,710.953 c 2.17,-2.312 5.483,-3.758 9.986,-4.342 l -0.047,-0.047 c 2.777,-0.35 5.741,-0.396 8.915,-0.139 0.584,-0.025 1.656,0 3.243,0.045 1.471,0.047 2.591,0.047 3.359,0.023 0.211,1.283 0.537,3.012 0.935,5.229 0.256,1.518 0.42,2.543 0.489,3.057 0.069,0.537 0.094,0.934 0.048,1.189 -0.048,0.256 -0.164,0.395 -0.35,0.467 -7.538,2.869 -13.885,4.246 -19.043,4.082 -4.362,-0.139 -7.232,-1.258 -8.609,-3.383 -1.283,-1.982 -0.931,-4.036 1.074,-6.181 z"
         id="path1823" />
      <path
         inkscape:connector-curvature="0"
         style="fill:#ffffff"
         d="m 525.862,710.346 c -0.909,2.053 -1.071,4.619 -0.466,7.676 1.447,-0.443 2.938,-0.979 4.458,-1.562 0.186,-0.072 0.302,-0.211 0.35,-0.467 0.046,-0.256 0.021,-0.654 -0.048,-1.191 -0.068,-0.488 -0.233,-1.445 -0.489,-2.916 -0.374,-2.053 -0.653,-3.711 -0.863,-4.947 -1.33,0.791 -2.312,1.936 -2.942,3.407"
         id="path1825" />
      <path
         inkscape:connector-curvature="0"
         style="fill:#ffffff"
         d="m 502.553,711.861 c -1.074,1.564 -1.331,3.057 -0.746,4.525 0.63,1.543 2.029,2.686 4.246,3.408 2.474,0.816 5.647,0.98 9.496,0.49 -0.443,-3.43 -1.423,-6.254 -2.963,-8.447 -1.214,-1.727 -2.752,-3.033 -4.597,-3.896 -2.497,0.981 -4.293,2.288 -5.436,3.92"
         id="path1827" />
      <path
         inkscape:connector-curvature="0"
         style="fill:#0066b1"
         d="m 525.396,718.021 c -0.605,-3.057 -0.443,-5.623 0.466,-7.676 0.63,-1.471 1.611,-2.615 2.941,-3.408 l -0.071,-0.42 c -0.793,0.023 -1.912,0.023 -3.359,-0.023 -1.656,-0.047 -2.731,-0.068 -3.243,-0.068 -3.195,-0.258 -6.184,-0.188 -8.915,0.162 l 0.047,0.047 c -1.865,0.232 -3.616,0.678 -5.272,1.307 1.845,0.863 3.383,2.17 4.597,3.896 1.54,2.193 2.52,5.018 2.963,8.447 2.964,-0.373 6.229,-1.121 9.846,-2.264"
         id="path1829" />
      <path
         inkscape:connector-curvature="0"
         style="fill:#ffffff"
         d="m 514.43,707.078 c -0.584,-0.303 -1.004,-0.443 -1.284,-0.467 -0.304,-0.023 -1.025,0.023 -2.191,0.141 0.512,0.279 1.516,0.91 3.031,1.865 1.517,0.982 2.381,1.541 2.545,1.705 0.231,0.209 0.514,0.279 0.816,0.209 0.349,-0.07 0.653,-0.209 0.933,-0.42 0.162,-0.117 0.211,-0.232 0.187,-0.35 -0.024,-0.07 -0.116,-0.188 -0.303,-0.35 -0.771,-0.698 -2.009,-1.47 -3.734,-2.333"
         id="path1831" />
      <path
         inkscape:connector-curvature="0"
         style="fill:#57b542"
         d="m 508.315,676.65 0.071,0.84 c 0.488,5.273 1.447,12.203 2.822,20.791 l 0.84,5.414 6.045,0.979 c 4.548,0.537 8.072,0.537 10.615,-0.021 l -0.022,-4.783 c 0,-0.352 0.069,-2.637 0.233,-6.838 0.211,-0.023 2.077,0 5.6,0.092 0.024,0.352 0,2.592 -0.046,6.723 l -0.023,4.807 c 2.544,0.559 6.067,0.559 10.617,0.021 2.287,-0.254 4.317,-0.582 6.067,-0.979 l 0.909,-5.484 c 1.355,-8.377 2.287,-15.283 2.802,-20.721 l 0.068,-0.84 c -2.449,0.887 -5.25,1.633 -8.399,2.24 -4.737,0.908 -9.708,1.377 -14.888,1.4 -5.18,-0.023 -10.151,-0.492 -14.911,-1.4 -3.149,-0.608 -5.949,-1.354 -8.4,-2.241"
         id="path1833" />
      <path
         inkscape:connector-curvature="0"
         style="fill:none;stroke:#3a8233;stroke-width:3.64050007;stroke-miterlimit:10"
         d="m 508.315,676.65 c 2.45,0.887 5.251,1.633 8.4,2.24 4.76,0.908 9.731,1.377 14.911,1.4 5.18,-0.023 10.15,-0.492 14.888,-1.4 3.149,-0.607 5.95,-1.354 8.399,-2.24 l -0.068,0.84 c -0.515,5.438 -1.446,12.344 -2.802,20.721 l -0.909,5.484 c -1.75,0.396 -3.78,0.723 -6.067,0.979 -4.55,0.537 -8.073,0.537 -10.617,-0.021 l 0.023,-4.807 c 0.046,-4.131 0.07,-6.371 0.046,-6.723 -3.522,-0.092 -5.389,-0.115 -5.6,-0.092 -0.164,4.201 -0.233,6.486 -0.233,6.838 l 0.022,4.783 c -2.543,0.559 -6.067,0.559 -10.615,0.021 l -6.045,-0.979 -0.84,-5.414 c -1.375,-8.588 -2.334,-15.518 -2.822,-20.791 l -0.071,-0.839 z"
         id="path1835" />
      <path
         inkscape:connector-curvature="0"
         style="fill:#57b542"
         d="m 508.315,676.65 0.071,0.84 c 0.488,5.273 1.447,12.203 2.822,20.791 l 0.84,5.414 6.045,0.979 c 4.548,0.537 8.072,0.537 10.615,-0.021 l -0.022,-4.783 c 0,-0.352 0.069,-2.637 0.233,-6.838 0.211,-0.023 2.077,0 5.6,0.092 0.024,0.352 0,2.592 -0.046,6.723 l -0.023,4.807 c 2.544,0.559 6.067,0.559 10.617,0.021 2.287,-0.254 4.317,-0.582 6.067,-0.979 l 0.909,-5.484 c 1.355,-8.377 2.287,-15.283 2.802,-20.721 l 0.068,-0.84 c -2.449,0.887 -5.25,1.633 -8.399,2.24 -4.737,0.908 -9.708,1.377 -14.888,1.4 -5.18,-0.023 -10.151,-0.492 -14.911,-1.4 -3.149,-0.608 -5.949,-1.354 -8.4,-2.241"
         id="path1837" />
      <path
         inkscape:connector-curvature="0"
         style="fill:#005ba8"
         d="m 550.107,625.99 -0.188,-5.438 -36.564,1.119 -0.373,5.02 c -4.363,18.084 -5.879,35.07 -4.55,50.938 4.598,1.705 9.917,2.824 15.961,3.361 9.846,0.863 19.974,-0.117 30.381,-2.939 1.424,-16.147 -0.139,-33.51 -4.667,-52.061"
         id="path1839" />
      <path
         inkscape:connector-curvature="0"
         style="fill:none;stroke:#005ba8;stroke-width:3.73340011;stroke-linecap:round;stroke-linejoin:round;stroke-miterlimit:10"
         d="m 550.107,625.99 c 4.527,18.551 6.091,35.914 4.667,52.061 -10.407,2.822 -20.535,3.803 -30.381,2.939 -6.044,-0.537 -11.363,-1.656 -15.961,-3.361 -1.329,-15.867 0.187,-32.854 4.55,-50.938 l 0.373,-5.02 36.564,-1.119 0.188,5.438 z"
         id="path1841" />
      <path
         inkscape:connector-curvature="0"
         style="fill:#007cc2"
         d="m 521.919,650.143 c -0.77,13.23 -0.652,23.428 0.353,30.615 3.172,0.35 6.368,0.535 9.612,0.514 0.023,-5.672 -0.467,-25.715 -1.447,-60.111 l -5.974,0.188 c -1.189,10.403 -2.053,19.997 -2.544,28.794"
         id="path1843" />
      <path
         inkscape:connector-curvature="0"
         style="fill:#007cc2"
         d="m 550.107,625.99 -0.188,-5.438 -4.619,0.141 c 1.283,6.604 2.287,13.908 2.964,21.959 0.979,11.689 1.213,23.941 0.677,36.775 2.123,-0.443 4.084,-0.887 5.833,-1.377 1.424,-16.146 -0.139,-33.509 -4.667,-52.06"
         id="path1845" />
      <path
         inkscape:connector-curvature="0"
         style="fill:#ef7c34"
         d="m 513.355,621.672 -0.373,5.02 c -4.362,18.084 -5.88,35.07 -4.55,50.938 1.89,0.678 3.733,1.215 5.506,1.658 -0.489,-12.484 -0.279,-24.432 0.631,-35.795 0.653,-8.051 1.61,-15.355 2.87,-21.936 l -4.084,0.115 z"
         id="path1847" />
      <path
         inkscape:connector-curvature="0"
         style="fill:#aad05e"
         d="m 524.463,621.348 -7.023,0.209 c -1.26,6.58 -2.217,13.885 -2.87,21.936 -0.91,11.363 -1.12,23.311 -0.631,35.795 2.592,0.629 5.368,1.121 8.332,1.471 -1.004,-7.188 -1.121,-17.385 -0.352,-30.615 0.491,-8.798 1.355,-18.392 2.544,-28.796"
         id="path1849" />
      <path
         inkscape:connector-curvature="0"
         style="fill:#aad05e"
         d="m 545.301,620.693 -6.931,0.211 c 1.213,10.195 2.077,19.811 2.592,28.865 0.769,13.369 0.675,23.705 -0.328,30.963 2.566,-0.279 5.343,-0.723 8.308,-1.305 0.536,-12.834 0.303,-25.086 -0.677,-36.775 -0.678,-8.05 -1.681,-15.355 -2.964,-21.959"
         id="path1851" />
      <path
         inkscape:connector-curvature="0"
         style="fill:#ef7c34"
         d="m 538.37,620.904 -7.934,0.256 c 0.98,34.396 1.471,54.439 1.447,60.111 2.869,-0.025 5.787,-0.211 8.75,-0.539 1.003,-7.256 1.097,-17.594 0.327,-30.963 -0.513,-9.054 -1.377,-18.669 -2.59,-28.865"
         id="path1853" />
      <polygon
         style="fill:#ffffff"
         points="519.912,629.795 530.04,644.496 540.191,630.307 "
         id="polygon1855" />
      <path
         inkscape:connector-curvature="0"
         style="fill:#e94735"
         d="m 550.107,625.99 -0.188,-5.438 -36.564,1.119 -0.373,5.02 -0.28,1.166 c 4.317,0.584 9.125,0.84 14.421,0.77 7.21,-0.117 14.888,-0.84 23.077,-2.17 l -0.093,-0.467 z"
         id="path1857" />
      <path
         inkscape:connector-curvature="0"
         style="fill:#005ba8"
         d="m 552.581,619.061 c 0.141,-2.24 -0.42,-3.383 -1.656,-3.432 -7.117,-0.162 -13.978,-0.279 -20.582,-0.301 -13.09,-0.072 -19.857,0.162 -20.253,0.744 -0.536,0.701 -0.631,2.334 -0.28,4.877 0.35,2.521 0.864,4.107 1.517,4.738 1.889,1.842 4.923,3.172 9.146,4.012 3.851,0.771 8.073,1.051 12.671,0.795 4.55,-0.256 8.47,-0.934 11.784,-2.053 3.569,-1.191 5.74,-2.684 6.51,-4.457 0.653,-1.517 1.027,-3.152 1.143,-4.923"
         id="path1859" />
      <path
         inkscape:connector-curvature="0"
         style="fill:none;stroke:#005ba8;stroke-width:3.73340011;stroke-linecap:round;stroke-linejoin:round;stroke-miterlimit:10"
         d="m 552.581,619.061 c -0.116,1.771 -0.49,3.406 -1.144,4.924 -0.77,1.773 -2.94,3.266 -6.51,4.457 -3.314,1.119 -7.234,1.797 -11.784,2.053 -4.598,0.256 -8.82,-0.023 -12.671,-0.795 -4.224,-0.838 -7.258,-2.17 -9.146,-4.012 -0.652,-0.631 -1.167,-2.217 -1.517,-4.738 -0.351,-2.543 -0.256,-4.176 0.28,-4.877 0.396,-0.582 7.163,-0.816 20.253,-0.744 6.604,0.021 13.465,0.139 20.582,0.301 1.237,0.048 1.798,1.19 1.657,3.431 z"
         id="path1861" />
      <path
         inkscape:connector-curvature="0"
         style="fill:#005ba8"
         d="m 552.581,619.061 c 0.141,-2.24 -0.42,-3.383 -1.656,-3.432 -7.117,-0.162 -13.978,-0.279 -20.582,-0.301 -13.09,-0.072 -19.857,0.162 -20.253,0.744 -0.536,0.701 -0.631,2.334 -0.28,4.877 0.35,2.521 0.864,4.107 1.517,4.738 1.889,1.842 4.923,3.172 9.146,4.012 3.851,0.771 8.073,1.051 12.671,0.795 4.55,-0.256 8.47,-0.934 11.784,-2.053 3.569,-1.191 5.74,-2.684 6.51,-4.457 0.653,-1.517 1.027,-3.152 1.143,-4.923"
         id="path1863" />
      <path
         inkscape:connector-curvature="0"
         style="fill:none;stroke:#005ba8;stroke-width:3.73340011;stroke-linecap:round;stroke-linejoin:round;stroke-miterlimit:10"
         d="m 552.581,619.061 c -0.116,1.771 -0.49,3.406 -1.144,4.924 -0.77,1.773 -2.94,3.266 -6.51,4.457 -3.314,1.119 -7.234,1.797 -11.784,2.053 -4.598,0.256 -8.82,-0.023 -12.671,-0.795 -4.224,-0.838 -7.258,-2.17 -9.146,-4.012 -0.652,-0.631 -1.167,-2.217 -1.517,-4.738 -0.351,-2.543 -0.256,-4.176 0.28,-4.877 0.396,-0.582 7.163,-0.816 20.253,-0.744 6.604,0.021 13.465,0.139 20.582,0.301 1.237,0.048 1.798,1.19 1.657,3.431 z"
         id="path1865" />
      <path
         inkscape:connector-curvature="0"
         style="fill:#005ba8"
         d="m 552.581,619.061 c 0.141,-2.24 -0.42,-3.383 -1.656,-3.432 -7.117,-0.162 -13.978,-0.279 -20.582,-0.301 -13.09,-0.072 -19.857,0.162 -20.253,0.744 -0.536,0.701 -0.631,2.334 -0.28,4.877 0.35,2.521 0.864,4.107 1.517,4.738 1.889,1.842 4.923,3.172 9.146,4.012 3.851,0.771 8.073,1.051 12.671,0.795 4.55,-0.256 8.47,-0.934 11.784,-2.053 3.569,-1.191 5.74,-2.684 6.51,-4.457 0.653,-1.517 1.027,-3.152 1.143,-4.923"
         id="path1867" />
      <path
         inkscape:connector-curvature="0"
         style="fill:none;stroke:#005ba8;stroke-width:3.73340011;stroke-linecap:round;stroke-linejoin:round;stroke-miterlimit:10"
         d="m 552.581,619.061 c -0.116,1.771 -0.49,3.406 -1.144,4.924 -0.77,1.773 -2.94,3.266 -6.51,4.457 -3.314,1.119 -7.234,1.797 -11.784,2.053 -4.598,0.256 -8.82,-0.023 -12.671,-0.795 -4.224,-0.838 -7.258,-2.17 -9.146,-4.012 -0.652,-0.631 -1.167,-2.217 -1.517,-4.738 -0.351,-2.543 -0.256,-4.176 0.28,-4.877 0.396,-0.582 7.163,-0.816 20.253,-0.744 6.604,0.021 13.465,0.139 20.582,0.301 1.237,0.048 1.798,1.19 1.657,3.431 z"
         id="path1869" />
      <path
         inkscape:connector-curvature="0"
         style="fill:#ffffff"
         d="m 552.581,619.061 c 0.141,-2.24 -0.42,-3.383 -1.656,-3.432 -7.117,-0.162 -13.978,-0.279 -20.582,-0.301 -13.09,-0.072 -19.857,0.162 -20.253,0.744 -0.536,0.701 -0.631,2.334 -0.28,4.877 0.35,2.521 0.864,4.107 1.517,4.738 1.889,1.842 4.923,3.172 9.146,4.012 3.851,0.771 8.073,1.051 12.671,0.795 4.55,-0.256 8.47,-0.934 11.784,-2.053 3.569,-1.191 5.74,-2.684 6.51,-4.457 0.653,-1.517 1.027,-3.152 1.143,-4.923"
         id="path1871" />
      <path
         inkscape:connector-curvature="0"
         style="fill:#ffffff"
         d="m 552.581,619.061 c 0.141,-2.24 -0.42,-3.383 -1.656,-3.432 -7.117,-0.162 -13.978,-0.279 -20.582,-0.301 -13.09,-0.072 -19.857,0.162 -20.253,0.744 -0.536,0.701 -0.631,2.334 -0.28,4.877 0.35,2.521 0.864,4.107 1.517,4.738 1.889,1.842 4.923,3.172 9.146,4.012 3.851,0.771 8.073,1.051 12.671,0.795 4.55,-0.256 8.47,-0.934 11.784,-2.053 3.569,-1.191 5.74,-2.684 6.51,-4.457 0.653,-1.517 1.027,-3.152 1.143,-4.923"
         id="path1873" />
      <path
         inkscape:connector-curvature="0"
         style="fill:#ffffff"
         d="m 552.581,619.061 c 0.141,-2.24 -0.42,-3.383 -1.656,-3.432 -7.117,-0.162 -13.978,-0.279 -20.582,-0.301 -13.09,-0.072 -19.857,0.162 -20.253,0.744 -0.536,0.701 -0.631,2.334 -0.28,4.877 0.35,2.521 0.864,4.107 1.517,4.738 1.889,1.842 4.923,3.172 9.146,4.012 3.851,0.771 8.073,1.051 12.671,0.795 4.55,-0.256 8.47,-0.934 11.784,-2.053 3.569,-1.191 5.74,-2.684 6.51,-4.457 0.653,-1.517 1.027,-3.152 1.143,-4.923"
         id="path1875" />
      <path
         inkscape:connector-curvature="0"
         style="fill:#ef8020"
         d="m 560.305,588.002 c -2.03,1.844 -3.312,4.246 -3.85,7.256 -0.561,3.012 -0.234,5.742 1.003,8.168 1.237,2.428 2.986,3.85 5.296,4.27 2.312,0.445 4.459,-0.256 6.465,-2.1 2.03,-1.82 3.313,-4.246 3.875,-7.258 0.534,-3.01 0.209,-5.715 -1.028,-8.166 -1.236,-2.428 -2.985,-3.85 -5.272,-4.27 -2.313,-0.445 -4.459,0.256 -6.489,2.1"
         id="path1877" />
      <path
         inkscape:connector-curvature="0"
         style="fill:none;stroke:#ef8020;stroke-width:3.64050007;stroke-miterlimit:10"
         d="m 560.305,588.002 c 2.03,-1.844 4.177,-2.545 6.488,-2.1 2.287,0.42 4.036,1.842 5.272,4.27 1.237,2.451 1.562,5.156 1.028,8.166 -0.562,3.012 -1.845,5.438 -3.875,7.258 -2.006,1.844 -4.153,2.545 -6.465,2.1 -2.31,-0.42 -4.059,-1.842 -5.296,-4.27 -1.237,-2.426 -1.563,-5.156 -1.003,-8.168 0.538,-3.01 1.82,-5.412 3.851,-7.256 z"
         id="path1879" />
      <path
         inkscape:connector-curvature="0"
         style="fill:#ef8020"
         d="m 502.295,573.488 c -2.309,-0.42 -4.456,0.279 -6.486,2.123 -2.029,1.844 -3.312,4.246 -3.851,7.258 -0.559,3.01 -0.232,5.717 1.004,8.143 1.236,2.428 2.987,3.85 5.298,4.27 2.311,0.443 4.457,-0.254 6.463,-2.1 2.029,-1.82 3.312,-4.246 3.873,-7.256 0.561,-3.012 0.234,-5.717 -1.004,-8.168 -1.236,-2.426 -3.01,-3.85 -5.297,-4.27"
         id="path1881" />
      <path
         inkscape:connector-curvature="0"
         style="fill:none;stroke:#ef8020;stroke-width:3.64050007;stroke-miterlimit:10"
         d="m 502.295,573.488 c 2.288,0.42 4.062,1.844 5.297,4.27 1.238,2.451 1.564,5.156 1.004,8.168 -0.561,3.01 -1.844,5.436 -3.873,7.256 -2.007,1.846 -4.152,2.543 -6.463,2.1 -2.311,-0.42 -4.062,-1.842 -5.298,-4.27 -1.236,-2.426 -1.562,-5.133 -1.004,-8.143 0.538,-3.012 1.821,-5.414 3.851,-7.258 2.03,-1.843 4.177,-2.543 6.486,-2.123 z"
         id="path1883" />
      <path
         inkscape:connector-curvature="0"
         style="fill:#ffe300"
         d="m 560.305,588.002 c -2.03,1.844 -3.312,4.246 -3.85,7.256 -0.561,3.012 -0.234,5.742 1.003,8.168 1.237,2.428 2.986,3.85 5.296,4.27 2.312,0.445 4.459,-0.256 6.465,-2.1 2.03,-1.82 3.313,-4.246 3.875,-7.258 0.534,-3.01 0.209,-5.715 -1.028,-8.166 -1.236,-2.428 -2.985,-3.85 -5.272,-4.27 -2.313,-0.445 -4.459,0.256 -6.489,2.1"
         id="path1885" />
      <path
         inkscape:connector-curvature="0"
         style="fill:#ffe300"
         d="m 502.295,573.488 c -2.309,-0.42 -4.456,0.279 -6.486,2.123 -2.029,1.844 -3.312,4.246 -3.851,7.258 -0.559,3.01 -0.232,5.717 1.004,8.143 1.236,2.428 2.987,3.85 5.298,4.27 2.311,0.443 4.457,-0.254 6.463,-2.1 2.029,-1.82 3.312,-4.246 3.873,-7.256 0.561,-3.012 0.234,-5.717 -1.004,-8.168 -1.236,-2.426 -3.01,-3.85 -5.297,-4.27"
         id="path1887" />
      <path
         inkscape:connector-curvature="0"
         style="fill:#ef8020"
         d="m 559.325,556.477 c -2.193,-4.34 -4.784,-7.863 -7.771,-10.57 -3.104,-2.824 -6.394,-4.551 -9.894,-5.182 -3.501,-0.652 -7.188,-0.209 -11.083,1.309 -3.758,1.469 -7.422,3.826 -11.016,7.117 -7.63,6.93 -13.229,15.959 -16.846,27.092 -2.24,6.836 -3.033,13.371 -2.357,19.553 0.724,6.51 2.963,11.691 6.721,15.588 3.289,3.385 7.139,5.857 11.572,7.443 2.217,0.793 4.106,1.26 5.671,1.377 5.251,1.611 10.665,2.031 16.24,1.285 2.801,-0.375 5.064,-0.912 6.814,-1.588 5.203,-2.965 9.381,-7.211 12.556,-12.764 3.264,-5.719 5.086,-12.158 5.459,-19.344 0.584,-11.691 -1.422,-22.123 -6.066,-31.316"
         id="path1889" />
      <path
         inkscape:connector-curvature="0"
         style="fill:none;stroke:#ef8020;stroke-width:3.64050007;stroke-miterlimit:10"
         d="m 551.555,545.906 c -3.104,-2.824 -6.394,-4.551 -9.894,-5.182 -3.501,-0.652 -7.188,-0.209 -11.083,1.309 -3.758,1.469 -7.422,3.826 -11.016,7.117 -7.63,6.93 -13.229,15.959 -16.846,27.092 -2.24,6.836 -3.033,13.371 -2.357,19.553 0.724,6.51 2.964,11.691 6.721,15.588 3.289,3.385 7.139,5.857 11.572,7.443 2.217,0.793 4.106,1.26 5.671,1.377 5.251,1.611 10.665,2.031 16.24,1.285 2.801,-0.375 5.064,-0.912 6.814,-1.588 5.203,-2.965 9.381,-7.211 12.554,-12.764 3.266,-5.719 5.087,-12.158 5.461,-19.344 0.582,-11.691 -1.424,-22.123 -6.067,-31.316 -2.193,-4.339 -4.784,-7.863 -7.77,-10.57 z"
         id="path1891" />
      <path
         inkscape:connector-curvature="0"
         style="fill:#ffe300"
         d="m 559.325,556.477 c -2.193,-4.34 -4.784,-7.863 -7.771,-10.57 -3.104,-2.824 -6.394,-4.551 -9.894,-5.182 -3.501,-0.652 -7.188,-0.209 -11.083,1.309 -3.758,1.469 -7.422,3.826 -11.016,7.117 -7.63,6.93 -13.229,15.959 -16.846,27.092 -2.24,6.836 -3.033,13.371 -2.357,19.553 0.724,6.51 2.963,11.691 6.721,15.588 3.289,3.385 7.139,5.857 11.572,7.443 2.217,0.793 4.106,1.26 5.671,1.377 5.251,1.611 10.665,2.031 16.24,1.285 2.801,-0.375 5.064,-0.912 6.814,-1.588 5.203,-2.965 9.381,-7.211 12.556,-12.764 3.264,-5.719 5.086,-12.158 5.459,-19.344 0.584,-11.691 -1.422,-22.123 -6.066,-31.316"
         id="path1893" />
      <path
         inkscape:connector-curvature="0"
         style="fill:#ffffff"
         d="m 533.189,576.102 c 0.537,-2.848 0.024,-5.461 -1.517,-7.818 -1.54,-2.355 -3.663,-3.779 -6.347,-4.27 -2.685,-0.49 -5.18,0.07 -7.467,1.727 -2.263,1.656 -3.663,3.92 -4.177,6.744 -0.537,2.824 -0.023,5.438 1.519,7.795 1.515,2.355 3.638,3.803 6.321,4.293 2.684,0.488 5.181,-0.07 7.468,-1.729 2.266,-1.655 3.664,-3.92 4.2,-6.742"
         id="path1895" />
      <path
         inkscape:connector-curvature="0"
         style="fill:#ffffff"
         d="m 541.404,570.08 c -2.264,1.658 -3.664,3.922 -4.201,6.744 -0.536,2.846 -0.022,5.438 1.518,7.793 1.517,2.357 3.64,3.805 6.347,4.295 2.684,0.49 5.181,-0.07 7.444,-1.727 2.263,-1.658 3.662,-3.92 4.2,-6.744 0.536,-2.848 0.022,-5.461 -1.517,-7.816 -1.542,-2.357 -3.664,-3.781 -6.348,-4.27 -2.683,-0.49 -5.179,0.069 -7.443,1.725"
         id="path1897" />
      <path
         inkscape:connector-curvature="0"
         style="fill:#393533"
         d="m 526.517,580.652 c 0.256,-1.379 0.023,-2.662 -0.747,-3.828 -0.77,-1.143 -1.797,-1.844 -3.128,-2.1 -1.329,-0.256 -2.542,0.047 -3.662,0.863 -1.097,0.816 -1.797,1.914 -2.054,3.291 -0.256,1.4 0,2.682 0.746,3.826 0.748,1.143 1.797,1.844 3.127,2.1 1.331,0.256 2.545,-0.023 3.664,-0.84 1.119,-0.817 1.797,-1.935 2.054,-3.312"
         id="path1899" />
      <path
         inkscape:connector-curvature="0"
         style="fill:#393533"
         d="m 543.037,579.834 c -1.097,0.818 -1.795,1.914 -2.053,3.291 -0.258,1.398 0,2.684 0.746,3.85 0.746,1.145 1.773,1.844 3.104,2.1 1.33,0.26 2.544,-0.045 3.664,-0.861 1.12,-0.816 1.796,-1.916 2.054,-3.314 0.256,-1.377 0.022,-2.66 -0.747,-3.826 -0.747,-1.145 -1.773,-1.844 -3.104,-2.1 -1.33,-0.259 -2.544,0.044 -3.664,0.86"
         id="path1901" />
      <path
         inkscape:connector-curvature="0"
         style="fill:#f3961d"
         d="m 543.808,594.887 c 0.771,-4.131 0.327,-7.842 -1.377,-11.178 -1.681,-3.338 -4.106,-5.297 -7.257,-5.881 -3.151,-0.584 -6.09,0.396 -8.866,2.893 -2.755,2.498 -4.505,5.811 -5.275,9.941 -0.769,4.131 -0.303,7.863 1.378,11.201 1.679,3.312 4.106,5.273 7.257,5.857 3.149,0.582 6.09,-0.398 8.866,-2.895 2.753,-2.495 4.503,-5.809 5.274,-9.938"
         id="path1903" />
      <path
         inkscape:connector-curvature="0"
         style="fill:none;stroke:#393533;stroke-width:4.20009995;stroke-linecap:round;stroke-miterlimit:10"
         d="m 557.763,565.67 c -7.771,-5.506 -16.85,-8.307 -27.209,-8.424 -3.244,-0.021 -6.44,0.211 -9.544,0.725 l -3.687,0.77"
         id="path1905" />
      <path
         inkscape:connector-curvature="0"
         style="fill:#e84341"
         d="m 547.215,613.041 c 2.636,-1.705 4.62,-3.479 5.927,-5.369 -11.271,2.686 -22.146,2.102 -32.621,-1.75 -3.268,-1.189 -6.302,-2.658 -9.101,-4.361 l -3.221,-2.195 c 1.144,6.348 4.97,11.178 11.504,14.467 3.266,1.658 6.417,2.662 9.473,3.033 6.743,0.864 12.741,-0.397 18.039,-3.825"
         id="path1907" />
      <path
         inkscape:connector-curvature="0"
         style="fill:#f098b5"
         d="m 536.224,609.143 c -3.407,-0.443 -5.856,-0.793 -7.373,-1.049 -1.984,-0.35 -4.247,-0.887 -6.837,-1.588 0.163,1.773 0.489,3.104 1.003,4.014 0.909,1.609 2.565,2.59 4.97,2.963 3.291,0.516 5.602,0.094 6.931,-1.236 0.676,-0.677 1.095,-1.704 1.306,-3.104"
         id="path1909" />
      <path
         inkscape:connector-curvature="0"
         style="fill:#292524"
         d="m 524.604,526.025 c -0.095,-0.234 -0.234,-0.047 -0.42,0.582 -0.186,0.678 -0.304,1.471 -0.351,2.43 -0.116,2.705 0.467,4.898 1.773,6.555 l 0.304,0.42 c -1.33,-0.07 -2.613,-0.303 -3.896,-0.676 -0.818,-0.232 -1.633,-0.584 -2.404,-1.051 -0.584,-0.326 -1.33,-0.84 -2.239,-1.539 -0.094,-0.07 0.419,1.072 1.516,3.43 1.144,2.451 2.03,4.059 2.637,4.83 1.517,1.914 3.104,3.174 4.715,3.803 3.499,1.33 6.952,1.564 10.336,0.701 0.608,0.607 1.332,1.143 2.171,1.609 0.793,0.443 1.562,0.746 2.286,0.934 0.98,0.234 1.913,0.305 2.801,0.188 1.027,-0.117 1.867,-0.443 2.543,-1.004 0.63,0.77 1.423,1.377 2.334,1.867 0.91,0.488 1.89,0.77 2.892,0.863 1.005,0.068 2.008,0.047 3.011,-0.07 0.679,-0.094 1.634,-0.279 2.918,-0.584 1.167,-0.256 3.104,-0.35 5.834,-0.279 2.31,0.07 3.452,0.094 3.406,0.047 -0.724,-0.91 -1.656,-1.586 -2.752,-2.029 -0.864,-0.375 -2.008,-0.654 -3.385,-0.84 -0.606,-0.094 -1.237,-0.117 -1.914,-0.094 0.771,-0.305 1.446,-0.607 1.983,-0.957 1.354,-0.84 2.496,-1.936 3.454,-3.314 0.514,-0.77 1.283,-2.193 2.286,-4.246 -1.049,0.629 -2.24,1.307 -3.57,2.006 -2.683,1.424 -4.644,2.148 -5.879,2.17 -0.537,0.023 -1.098,0 -1.681,-0.047 1.261,-1.889 2.217,-3.174 2.847,-3.85 0.7,-0.723 2.101,-1.748 4.2,-3.08 l 2.801,-1.75 c -0.747,-0.605 -1.751,-1.004 -2.988,-1.166 -1.144,-0.162 -2.379,-0.141 -3.709,0.068 0.747,-0.908 1.236,-2.426 1.446,-4.596 0.069,-1.984 0.117,-2.939 0.093,-2.918 -0.676,0.98 -1.539,1.869 -2.59,2.66 -1.026,0.748 -2.122,1.33 -3.312,1.775 -0.817,0.303 -1.914,0.559 -3.291,0.793 0.257,-1.4 0.605,-2.568 1.074,-3.502 0.957,-1.982 2.24,-3.85 3.896,-5.623 0.374,-0.303 0.699,-0.629 0.956,-0.979 0.07,-0.094 -0.699,0 -2.263,0.279 -1.657,0.303 -2.894,0.582 -3.757,0.863 -1.983,0.676 -3.454,1.424 -4.41,2.193 -0.351,0.303 -0.723,0.654 -1.074,1.049 -0.349,-0.605 -0.77,-1.492 -1.213,-2.637 -0.583,-1.469 -0.886,-3.057 -0.91,-4.736 0.093,-1.375 0.116,-2.053 0.093,-2.029 -0.864,0.115 -1.75,0.537 -2.66,1.236 -1.819,1.377 -2.939,3.57 -3.358,6.58 -0.211,1.518 -0.281,3.033 -0.211,4.527 -1.097,-0.582 -1.914,-1.143 -2.498,-1.727 -0.723,-0.725 -1.376,-2.123 -1.913,-4.152 -0.442,-1.564 -0.652,-2.615 -0.652,-3.197 0,-0.141 -0.234,0.139 -0.7,0.863 -0.537,0.816 -0.957,1.703 -1.284,2.66 -0.979,3.01 -0.63,5.973 1.026,8.842 0.142,0.258 0.352,0.631 0.607,1.168 -3.246,-1.188 -5.58,-2.961 -6.955,-5.319"
         id="path1911" />
      <path
         inkscape:connector-curvature="0"
         style="fill:#f7fbfd"
         d="m 498.807,607.834 c -1.353,-0.627 -2.03,-0.135 -2.03,1.49 v 46.371 c 0,0.137 0.019,0.271 0.034,0.424 0.118,1.338 0.795,2.285 1.996,2.859 l 29.742,14.094 c 1.354,0.625 2.03,0.117 2.03,-1.506 v -46.781 c 0,-1.623 -0.677,-2.74 -2.03,-3.35 l -29.742,-13.601 z"
         id="path1913" />
      <path
         inkscape:connector-curvature="0"
         style="fill:none;stroke:#8eb0b7;stroke-width:1.35319996;stroke-linecap:round;stroke-linejoin:round;stroke-miterlimit:10"
         d="m 498.807,607.834 29.742,13.602 c 1.354,0.609 2.03,1.727 2.03,3.35 v 46.781 c 0,1.623 -0.677,2.131 -2.03,1.506 l -29.742,-14.094 c -1.201,-0.574 -1.878,-1.521 -1.996,-2.859 -0.016,-0.152 -0.034,-0.287 -0.034,-0.424 v -46.371 c -10e-4,-1.626 0.677,-2.118 2.03,-1.491 z"
         id="path1915" />
      <path
         inkscape:connector-curvature="0"
         style="fill:#f7fbfd"
         d="m 495.254,609.34 c -1.251,-0.473 -1.878,0.102 -1.878,1.725 v 46.375 c 0,0.135 0.018,0.271 0.052,0.404 0.101,1.303 0.71,2.184 1.826,2.641 l 27.357,10.861 c 1.251,0.473 1.877,-0.102 1.877,-1.727 V 622.84 c 0,-1.625 -0.626,-2.672 -1.877,-3.129 L 495.254,609.34 z"
         id="path1917" />
      <path
         inkscape:connector-curvature="0"
         style="fill:none;stroke:#8eb0b7;stroke-width:1.35319996;stroke-linecap:round;stroke-linejoin:round;stroke-miterlimit:10"
         d="m 495.254,609.34 27.357,10.371 c 1.251,0.457 1.877,1.504 1.877,3.129 v 46.779 c 0,1.625 -0.626,2.199 -1.877,1.727 l -27.357,-10.861 c -1.116,-0.457 -1.726,-1.338 -1.826,-2.641 -0.034,-0.133 -0.052,-0.27 -0.052,-0.404 v -46.375 c 0,-1.624 0.627,-2.198 1.878,-1.725 z"
         id="path1919" />
      <path
         inkscape:connector-curvature="0"
         style="fill:#f7fbfd"
         d="m 491.533,611.438 c -1.355,-0.406 -2.03,0.203 -2.03,1.828 v 46.373 c 0,0.135 0.017,0.271 0.032,0.406 0.119,1.301 0.796,2.148 1.998,2.537 l 29.572,9.102 c 1.336,0.389 1.995,-0.221 1.995,-1.844 v -46.779 c 0,-1.625 -0.659,-2.623 -1.995,-2.994 l -29.572,-8.629 z"
         id="path1921" />
      <path
         inkscape:connector-curvature="0"
         style="fill:none;stroke:#8eb0b7;stroke-width:1.35319996;stroke-linecap:round;stroke-linejoin:round;stroke-miterlimit:10"
         d="m 491.533,611.438 29.572,8.629 c 1.336,0.371 1.995,1.369 1.995,2.994 v 46.779 c 0,1.623 -0.659,2.232 -1.995,1.844 l -29.572,-9.102 c -1.202,-0.389 -1.879,-1.236 -1.998,-2.537 -0.016,-0.135 -0.032,-0.271 -0.032,-0.406 v -46.373 c 0,-1.625 0.675,-2.235 2.03,-1.828 z"
         id="path1923" />
      <path
         inkscape:connector-curvature="0"
         style="fill:#2d90b0"
         d="m 489.231,614.721 c -1.421,-0.307 -2.132,0.355 -2.132,1.979 v 46.355 c 0,0.137 0.017,0.271 0.05,0.408 0.137,1.301 0.83,2.115 2.082,2.4 l 31.196,7.09 c 1.404,0.305 2.099,-0.355 2.099,-1.98 v -46.762 c 0,-1.623 -0.694,-2.588 -2.099,-2.893 l -31.196,-6.597 z"
         id="path1925" />
      <path
         inkscape:connector-curvature="0"
         style="fill:none;stroke:#005d76;stroke-width:2.0302;stroke-linecap:round;stroke-linejoin:round;stroke-miterlimit:10"
         d="m 489.231,614.721 31.196,6.598 c 1.404,0.305 2.099,1.27 2.099,2.893 v 46.762 c 0,1.625 -0.694,2.285 -2.099,1.98 l -31.196,-7.09 c -1.252,-0.285 -1.945,-1.1 -2.082,-2.4 -0.033,-0.137 -0.05,-0.271 -0.05,-0.408 v -46.355 c 0.001,-1.625 0.712,-2.287 2.132,-1.98 z"
         id="path1927" />
      <path
         inkscape:connector-curvature="0"
         style="fill:#f7fbfd"
         d="m 563.67,607.834 c 1.355,-0.627 2.032,-0.135 2.032,1.49 v 46.371 c 0,0.137 -0.017,0.271 -0.034,0.424 -0.12,1.338 -0.796,2.285 -1.998,2.859 l -29.741,14.094 c -1.354,0.625 -2.029,0.117 -2.029,-1.506 v -46.781 c 0,-1.623 0.676,-2.74 2.029,-3.35 l 29.741,-13.601 z"
         id="path1929" />
      <path
         inkscape:connector-curvature="0"
         style="fill:none;stroke:#8eb0b7;stroke-width:1.35319996;stroke-linecap:round;stroke-linejoin:round;stroke-miterlimit:10"
         d="m 563.67,607.834 -29.741,13.602 c -1.354,0.609 -2.029,1.727 -2.029,3.35 v 46.781 c 0,1.623 0.676,2.131 2.029,1.506 l 29.741,-14.094 c 1.202,-0.574 1.878,-1.521 1.998,-2.859 0.018,-0.152 0.034,-0.287 0.034,-0.424 v -46.371 c 0,-1.626 -0.677,-2.118 -2.032,-1.491 z"
         id="path1931" />
      <path
         inkscape:connector-curvature="0"
         style="fill:#f7fbfd"
         d="m 567.225,609.34 c 1.253,-0.473 1.877,0.102 1.877,1.725 v 46.375 c 0,0.135 -0.017,0.271 -0.05,0.404 -0.102,1.303 -0.711,2.184 -1.827,2.641 l -27.356,10.861 c -1.253,0.473 -1.878,-0.102 -1.878,-1.727 V 622.84 c 0,-1.625 0.625,-2.672 1.878,-3.129 l 27.356,-10.371 z"
         id="path1933" />
      <path
         inkscape:connector-curvature="0"
         style="fill:none;stroke:#8eb0b7;stroke-width:1.35319996;stroke-linecap:round;stroke-linejoin:round;stroke-miterlimit:10"
         d="m 567.225,609.34 -27.356,10.371 c -1.253,0.457 -1.878,1.504 -1.878,3.129 v 46.779 c 0,1.625 0.625,2.199 1.878,1.727 l 27.356,-10.861 c 1.116,-0.457 1.726,-1.338 1.827,-2.641 0.033,-0.133 0.05,-0.27 0.05,-0.404 v -46.375 c 0,-1.624 -0.624,-2.198 -1.877,-1.725 z"
         id="path1935" />
      <path
         inkscape:connector-curvature="0"
         style="fill:#f7fbfd"
         d="m 570.946,611.438 c 1.353,-0.406 2.03,0.203 2.03,1.828 v 46.373 c 0,0.135 -0.017,0.271 -0.034,0.406 -0.118,1.301 -0.794,2.148 -1.996,2.537 l -29.573,9.102 c -1.336,0.389 -1.996,-0.221 -1.996,-1.844 v -46.779 c 0,-1.625 0.66,-2.623 1.996,-2.994 l 29.573,-8.629 z"
         id="path1937" />
      <path
         inkscape:connector-curvature="0"
         style="fill:none;stroke:#8eb0b7;stroke-width:1.35319996;stroke-linecap:round;stroke-linejoin:round;stroke-miterlimit:10"
         d="m 570.946,611.438 -29.573,8.629 c -1.336,0.371 -1.996,1.369 -1.996,2.994 v 46.779 c 0,1.623 0.66,2.232 1.996,1.844 l 29.573,-9.102 c 1.202,-0.389 1.878,-1.236 1.996,-2.537 0.018,-0.135 0.034,-0.271 0.034,-0.406 v -46.373 c 10e-4,-1.625 -0.677,-2.235 -2.03,-1.828 z"
         id="path1939" />
      <path
         inkscape:connector-curvature="0"
         style="fill:#2d90b0"
         d="m 573.247,614.721 c 1.421,-0.307 2.132,0.355 2.132,1.979 v 46.355 c 0,0.137 -0.017,0.271 -0.051,0.408 -0.136,1.301 -0.829,2.115 -2.081,2.4 l -31.196,7.09 c -1.405,0.305 -2.1,-0.355 -2.1,-1.98 v -46.762 c 0,-1.623 0.694,-2.588 2.1,-2.893 l 31.196,-6.597 z"
         id="path1941" />
      <path
         inkscape:connector-curvature="0"
         style="fill:none;stroke:#005d76;stroke-width:2.0302;stroke-linecap:round;stroke-linejoin:round;stroke-miterlimit:10"
         d="m 573.247,614.721 -31.196,6.598 c -1.405,0.305 -2.1,1.27 -2.1,2.893 v 46.762 c 0,1.625 0.694,2.285 2.1,1.98 l 31.196,-7.09 c 1.252,-0.285 1.945,-1.1 2.081,-2.4 0.034,-0.137 0.051,-0.271 0.051,-0.408 v -46.355 c 0,-1.625 -0.711,-2.287 -2.132,-1.98 z"
         id="path1943" />
      <path
         inkscape:connector-curvature="0"
         style="fill:#006694"
         d="m 524.896,621.791 c -1.591,0 -2.387,0.779 -2.387,2.318 v 47.203 c 0,1.539 0.796,2.301 2.387,2.301 h 13.128 c 1.572,0 2.368,-0.762 2.368,-2.301 v -47.203 c 0,-1.539 -0.796,-2.318 -2.368,-2.318 -4.381,1.389 -8.747,1.389 -13.128,0"
         id="path1945" />
      <path
         inkscape:connector-curvature="0"
         style="fill:none;stroke:#005166;stroke-width:2.0302;stroke-linecap:round;stroke-linejoin:round;stroke-miterlimit:10"
         d="m 524.896,621.791 c 4.382,1.389 8.747,1.389 13.128,0 1.572,0 2.368,0.779 2.368,2.318 v 47.203 c 0,1.539 -0.796,2.301 -2.368,2.301 h -13.128 c -1.591,0 -2.387,-0.762 -2.387,-2.301 v -47.203 c 0,-1.539 0.796,-2.318 2.387,-2.318 z"
         id="path1947" />
      <path
         inkscape:connector-curvature="0"
         style="fill:#004d71"
         d="m 535.772,635.717 c 0.542,0 0.812,-0.271 0.812,-0.812 v -4.975 c 0,-0.541 -0.271,-0.814 -0.812,-0.814 h -8.611 c -0.54,0 -0.812,0.273 -0.812,0.814 v 4.975 c 0,0.541 0.271,0.812 0.812,0.812 h 8.611 z"
         id="path1949" />
      <path
         inkscape:connector-curvature="0"
         style="fill:none;stroke:#004d71;stroke-width:1.35319996;stroke-linecap:round;stroke-linejoin:round;stroke-miterlimit:10"
         d="m 535.772,635.717 h -8.611 c -0.54,0 -0.812,-0.271 -0.812,-0.812 v -4.975 c 0,-0.541 0.271,-0.812 0.812,-0.812 h 8.611 c 0.542,0 0.812,0.271 0.812,0.812 v 4.975 c 0.001,0.54 -0.27,0.812 -0.812,0.812 z m 0,5.853 h -8.611 m 8.611,-2.927 h -8.611"
         id="path1951" />
      <path
         inkscape:connector-curvature="0"
         style="fill:#1c7a96"
         d="m 569.762,624.379 c 0,-1.082 -0.541,-1.504 -1.625,-1.285 l -18.559,3.891 c -1.083,0.221 -1.623,0.881 -1.623,1.963 v 12.029 c 0,1.084 0.54,1.506 1.623,1.27 l 18.559,-4.025 c 1.049,-0.238 1.592,-0.863 1.625,-1.896 v -11.947 z"
         id="path1953" />
      <path
         inkscape:connector-curvature="0"
         style="fill:#ffe300"
         d="m 491.201,640.113 c 1.028,-0.795 1.525,-1.789 1.491,-2.949 -0.032,-1.16 -0.63,-2.188 -1.722,-3.016 -1.096,-0.861 -2.387,-1.326 -3.878,-1.359 -1.524,-0.033 -2.817,0.332 -3.846,1.129 -1.027,0.76 -1.49,1.754 -1.458,2.916 0.032,1.158 0.598,2.186 1.691,3.047 1.094,0.83 2.42,1.293 3.943,1.326 1.493,0.033 2.752,-0.332 3.779,-1.094"
         id="path1955" />
      <path
         inkscape:connector-curvature="0"
         style="fill:none;stroke:#ef8020;stroke-width:1.65709996;stroke-miterlimit:10"
         d="m 492.692,637.164 c -0.032,-1.16 -0.63,-2.188 -1.723,-3.016 -1.095,-0.861 -2.386,-1.326 -3.877,-1.359 -1.524,-0.033 -2.817,0.332 -3.845,1.129 -1.028,0.76 -1.491,1.754 -1.459,2.916 0.033,1.158 0.598,2.186 1.691,3.047 1.094,0.83 2.419,1.293 3.943,1.326 1.491,0.033 2.75,-0.332 3.777,-1.094 1.03,-0.795 1.527,-1.789 1.493,-2.949 z"
         id="path1957" />
      <path
         inkscape:connector-curvature="0"
         style="fill:#ffe300"
         d="m 491.732,643.096 c -0.166,-0.994 -0.797,-1.756 -1.857,-2.287 -1.06,-0.529 -2.252,-0.695 -3.544,-0.463 -1.294,0.23 -2.354,0.762 -3.183,1.59 -0.762,0.828 -1.061,1.758 -0.896,2.752 0.2,0.961 0.83,1.723 1.856,2.254 1.094,0.529 2.287,0.695 3.579,0.463 1.293,-0.232 2.354,-0.762 3.148,-1.592 0.797,-0.829 1.096,-1.756 0.897,-2.717"
         id="path1959" />
      <path
         inkscape:connector-curvature="0"
         style="fill:none;stroke:#ef8020;stroke-width:1.65709996;stroke-miterlimit:10"
         d="m 489.875,640.809 c -1.06,-0.529 -2.252,-0.695 -3.544,-0.463 -1.294,0.23 -2.354,0.762 -3.183,1.59 -0.762,0.828 -1.061,1.758 -0.895,2.752 0.199,0.961 0.828,1.723 1.855,2.254 1.093,0.529 2.287,0.695 3.579,0.463 1.293,-0.232 2.354,-0.762 3.148,-1.592 0.795,-0.828 1.094,-1.756 0.896,-2.717 -0.165,-0.994 -0.795,-1.756 -1.856,-2.287 z"
         id="path1961" />
      <path
         inkscape:connector-curvature="0"
         style="fill:#ffe300"
         d="m 490.705,651.381 c 0.63,-0.762 0.828,-1.59 0.63,-2.451 -0.199,-0.863 -0.763,-1.525 -1.657,-1.988 -0.896,-0.432 -1.855,-0.531 -2.951,-0.299 -1.06,0.23 -1.922,0.695 -2.551,1.459 -0.597,0.76 -0.796,1.588 -0.597,2.451 0.199,0.861 0.729,1.525 1.624,1.988 0.895,0.432 1.89,0.564 2.95,0.332 1.093,-0.232 1.922,-0.73 2.552,-1.492"
         id="path1963" />
      <path
         inkscape:connector-curvature="0"
         style="fill:none;stroke:#ef8020;stroke-width:1.65709996;stroke-miterlimit:10"
         d="m 491.335,648.93 c -0.199,-0.863 -0.763,-1.525 -1.657,-1.988 -0.896,-0.432 -1.856,-0.531 -2.951,-0.299 -1.06,0.23 -1.922,0.695 -2.551,1.459 -0.597,0.76 -0.796,1.588 -0.597,2.451 0.199,0.861 0.729,1.525 1.623,1.988 0.896,0.432 1.891,0.564 2.951,0.332 1.093,-0.232 1.922,-0.73 2.552,-1.492 0.63,-0.762 0.828,-1.59 0.63,-2.451 z"
         id="path1965" />
      <path
         inkscape:connector-curvature="0"
         style="fill:#ffe300"
         d="m 571.003,641.869 c -1.027,-0.795 -1.523,-1.789 -1.491,-2.949 0.033,-1.16 0.63,-2.186 1.725,-3.016 1.092,-0.861 2.384,-1.324 3.876,-1.357 1.524,-0.033 2.817,0.33 3.843,1.125 1.028,0.764 1.492,1.758 1.46,2.918 -0.033,1.158 -0.596,2.186 -1.689,3.047 -1.095,0.83 -2.421,1.295 -3.945,1.326 -1.492,0.033 -2.751,-0.33 -3.779,-1.094"
         id="path1967" />
      <path
         inkscape:connector-curvature="0"
         style="fill:none;stroke:#ef8020;stroke-width:1.65709996;stroke-miterlimit:10"
         d="m 569.512,638.92 c 0.033,-1.16 0.629,-2.186 1.725,-3.016 1.092,-0.861 2.385,-1.324 3.876,-1.357 1.524,-0.033 2.817,0.33 3.843,1.125 1.028,0.764 1.492,1.758 1.46,2.918 -0.034,1.158 -0.596,2.186 -1.689,3.047 -1.095,0.83 -2.421,1.293 -3.945,1.326 -1.49,0.033 -2.749,-0.33 -3.777,-1.094 -1.029,-0.795 -1.526,-1.789 -1.493,-2.949 z"
         id="path1969" />
      <path
         inkscape:connector-curvature="0"
         style="fill:#ffe300"
         d="m 570.472,644.854 c 0.167,-0.994 0.796,-1.758 1.856,-2.287 1.061,-0.531 2.254,-0.697 3.546,-0.465 1.294,0.232 2.354,0.764 3.183,1.592 0.763,0.828 1.061,1.756 0.895,2.75 -0.199,0.961 -0.829,1.723 -1.856,2.254 -1.094,0.529 -2.286,0.695 -3.578,0.463 -1.293,-0.23 -2.354,-0.762 -3.148,-1.59 -0.798,-0.829 -1.096,-1.759 -0.898,-2.717"
         id="path1971" />
      <path
         inkscape:connector-curvature="0"
         style="fill:none;stroke:#ef8020;stroke-width:1.65709996;stroke-miterlimit:10"
         d="m 572.328,642.566 c 1.061,-0.531 2.254,-0.697 3.547,-0.465 1.293,0.232 2.353,0.764 3.182,1.592 0.763,0.828 1.061,1.756 0.895,2.75 -0.199,0.961 -0.829,1.723 -1.856,2.254 -1.094,0.529 -2.286,0.695 -3.578,0.463 -1.293,-0.23 -2.354,-0.762 -3.148,-1.59 -0.796,-0.828 -1.094,-1.758 -0.896,-2.717 0.165,-0.994 0.795,-1.757 1.854,-2.287 z"
         id="path1973" />
      <path
         inkscape:connector-curvature="0"
         style="fill:#ffe300"
         d="m 571.5,653.139 c -0.63,-0.764 -0.828,-1.592 -0.63,-2.453 0.199,-0.863 0.762,-1.525 1.657,-1.988 0.895,-0.432 1.856,-0.531 2.949,-0.299 1.061,0.232 1.922,0.695 2.552,1.459 0.596,0.762 0.795,1.59 0.596,2.453 -0.198,0.859 -0.728,1.523 -1.623,1.986 -0.895,0.432 -1.889,0.564 -2.949,0.334 -1.094,-0.235 -1.922,-0.731 -2.552,-1.492"
         id="path1975" />
      <path
         inkscape:connector-curvature="0"
         style="fill:none;stroke:#ef8020;stroke-width:1.65709996;stroke-miterlimit:10"
         d="m 570.87,650.686 c 0.199,-0.861 0.762,-1.525 1.657,-1.988 0.895,-0.432 1.856,-0.531 2.949,-0.299 1.061,0.232 1.922,0.695 2.552,1.459 0.596,0.762 0.795,1.59 0.596,2.453 -0.198,0.859 -0.728,1.523 -1.623,1.986 -0.895,0.432 -1.889,0.564 -2.949,0.334 -1.094,-0.234 -1.922,-0.73 -2.552,-1.492 -0.63,-0.764 -0.828,-1.592 -0.63,-2.453 z"
         id="path1977" />
    </g>
  </g>
</svg>
