<?xml version="1.0" encoding="UTF-8" standalone="no"?>
<!-- Created with Inkscape (http://www.inkscape.org/) -->

<svg
   xmlns:dc="http://purl.org/dc/elements/1.1/"
   xmlns:cc="http://creativecommons.org/ns#"
   xmlns:rdf="http://www.w3.org/1999/02/22-rdf-syntax-ns#"
   xmlns:svg="http://www.w3.org/2000/svg"
   xmlns="http://www.w3.org/2000/svg"
   xmlns:sodipodi="http://sodipodi.sourceforge.net/DTD/sodipodi-0.dtd"
   xmlns:inkscape="http://www.inkscape.org/namespaces/inkscape"
   width="103.1949"
   height="210.07671"
   id="svg5696"
   version="1.1"
   inkscape:version="0.48.4 r9939"
   sodipodi:docname="bert2.svg">
  <defs
     id="defs5698" />
  <sodipodi:namedview
     id="base"
     pagecolor="#ffffff"
     bordercolor="#666666"
     borderopacity="1.0"
     inkscape:pageopacity="0.0"
     inkscape:pageshadow="2"
     inkscape:zoom="0.77472527"
     inkscape:cx="17.671966"
     inkscape:cy="129.24668"
     inkscape:current-layer="layer1"
     inkscape:document-units="px"
     showgrid="false"
     inkscape:window-width="942"
     inkscape:window-height="591"
     inkscape:window-x="412"
     inkscape:window-y="91"
     inkscape:window-maximized="0"
     fit-margin-top="0"
     fit-margin-left="0"
     fit-margin-right="0"
     fit-margin-bottom="0" />
  <metadata
     id="metadata5701">
    <rdf:RDF>
      <cc:Work
         rdf:about="">
        <dc:format>image/svg+xml</dc:format>
        <dc:type
           rdf:resource="http://purl.org/dc/dcmitype/StillImage" />
        <dc:title></dc:title>
      </cc:Work>
    </rdf:RDF>
  </metadata>
  <g
     id="layer1"
     inkscape:label="Layer 1"
     inkscape:groupmode="layer"
     transform="translate(-213.95781,-4.2763375)">
    <g
       transform="translate(-259.53479,-37.503968)"
       id="g2169">
      <path
         inkscape:connector-curvature="0"
         style="fill:#0052a4"
         d="m 535.785,245.811 c 33.011,12.608 35.829,-7.419 16.756,-9.93 0.018,-0.013 0.033,-0.026 0.052,-0.036 -2.575,-0.345 -5.576,-0.429 -9.013,-0.163 -1.985,-0.036 -4.512,0.179 -6.668,0.082 -0.729,4.391 -1.274,6.936 -1.447,8.373 l 0.002,0 c -0.136,1.075 -0.055,1.531 0.318,1.674"
         id="path2171" />
      <path
         inkscape:connector-curvature="0"
         style="fill:none;stroke:#0052a4;stroke-width:3.77069998;stroke-linecap:round;stroke-linejoin:round"
         d="m 535.785,245.811 c 33.011,12.608 35.829,-7.419 16.756,-9.93 0.018,-0.013 0.033,-0.026 0.052,-0.036 -2.575,-0.345 -5.576,-0.429 -9.013,-0.163 -1.985,-0.036 -4.512,0.179 -6.668,0.082 -0.729,4.391 -1.274,6.936 -1.447,8.373 l 0.002,0 c -0.136,1.075 -0.055,1.531 0.318,1.674 z"
         id="path2173" />
      <path
         inkscape:connector-curvature="0"
         style="fill:#ffffff"
         d="m 535.465,244.158 c 0.168,-1.389 0.682,-3.817 1.374,-7.941 1.972,1.207 4.811,4.205 3.444,11.194 -1.431,-0.457 -2.93,-0.98 -4.498,-1.58 -0.373,-0.143 -0.454,-0.6 -0.318,-1.674 h -0.002 z"
         id="path2175" />
      <path
         inkscape:connector-curvature="0"
         style="fill:#ffffff"
         d="m 557.857,237.232 c 10.338,4.084 8.837,14.509 -7.621,12.471 0.956,-7.625 4.463,-10.994 7.621,-12.471"
         id="path2177" />
      <path
         inkscape:connector-curvature="0"
         style="fill:#005eae"
         d="m 536.839,236.217 c 0.023,-0.144 0.048,-0.285 0.073,-0.433 2.156,0.096 4.683,-0.119 6.668,-0.082 3.437,-0.266 6.438,-0.18 9.013,0.162 -0.019,0.012 -0.034,0.024 -0.053,0.036 2.024,0.267 3.796,0.731 5.317,1.331 -3.158,1.478 -6.665,4.847 -7.621,12.471 -2.86,-0.355 -6.174,-1.085 -9.953,-2.292 1.366,-6.988 -1.472,-9.986 -3.444,-11.193"
         id="path2179" />
      <path
         inkscape:connector-curvature="0"
         style="fill:#ffffff"
         d="m 554.875,236.029 c -2.359,-0.266 -2.37,-0.264 -3.53,0.315 -1.241,0.621 -2.744,1.426 -3.769,2.375 -0.291,0.268 -0.464,0.411 -0.101,0.692 0.256,0.198 0.613,0.353 0.924,0.424 0.35,0.08 0.587,0.025 0.846,-0.217 0.35,-0.327 4.581,-3.034 5.63,-3.589"
         id="path2181" />
      <path
         inkscape:connector-curvature="0"
         style="fill:#0052a4"
         d="m 532.605,244.166 c 0,0 0,0 0,-0.001 -0.172,-1.438 -0.716,-3.982 -1.445,-8.374 -2.155,0.097 -4.683,-0.117 -6.666,-0.081 -3.438,-0.268 -6.439,-0.182 -9.015,0.161 0.017,0.012 0.034,0.025 0.052,0.037 -19.074,2.512 -16.256,22.54 16.754,9.932 0.374,-0.144 0.453,-0.601 0.32,-1.674"
         id="path2183" />
      <path
         inkscape:connector-curvature="0"
         style="fill:none;stroke:#0052a4;stroke-width:3.77069998;stroke-linecap:round;stroke-linejoin:round"
         d="m 532.605,244.166 c 0,0 0,0 0,-0.001 -0.172,-1.438 -0.716,-3.982 -1.445,-8.374 -2.155,0.097 -4.683,-0.117 -6.666,-0.081 -3.438,-0.268 -6.439,-0.182 -9.015,0.161 0.017,0.012 0.034,0.025 0.052,0.037 -19.074,2.512 -16.256,22.54 16.754,9.932 0.374,-0.144 0.453,-0.601 0.32,-1.674 z"
         id="path2185" />
      <path
         inkscape:connector-curvature="0"
         style="fill:#ffffff"
         d="m 532.605,244.186 c -0.166,-1.389 -0.68,-3.818 -1.373,-7.941 -1.971,1.207 -4.812,4.205 -3.444,11.195 1.433,-0.456 2.931,-0.981 4.497,-1.58 0.374,-0.144 0.453,-0.601 0.32,-1.674 l 0,0 z"
         id="path2187" />
      <path
         inkscape:connector-curvature="0"
         style="fill:#ffffff"
         d="m 510.215,237.26 c -10.339,4.084 -8.838,14.51 7.62,12.47 -0.957,-7.625 -4.463,-10.994 -7.62,-12.47"
         id="path2189" />
      <path
         inkscape:connector-curvature="0"
         style="fill:#005eae"
         d="m 531.232,236.244 c -0.024,-0.144 -0.049,-0.285 -0.072,-0.432 -2.155,0.097 -4.683,-0.119 -6.666,-0.082 -3.438,-0.266 -6.439,-0.18 -9.015,0.162 0.017,0.011 0.034,0.025 0.052,0.036 -2.022,0.267 -3.796,0.731 -5.316,1.332 3.157,1.476 6.663,4.845 7.62,12.47 2.861,-0.354 6.173,-1.085 9.953,-2.291 -1.367,-6.99 1.474,-9.988 3.444,-11.195"
         id="path2191" />
      <path
         inkscape:connector-curvature="0"
         style="fill:#ffffff"
         d="m 513.197,236.058 c 2.359,-0.269 2.368,-0.265 3.528,0.315 1.242,0.619 2.744,1.426 3.77,2.373 0.291,0.27 0.464,0.412 0.1,0.694 -0.256,0.198 -0.61,0.351 -0.923,0.423 -0.35,0.08 -0.587,0.024 -0.845,-0.217 -0.35,-0.328 -4.581,-3.034 -5.63,-3.588"
         id="path2193" />
      <path
         inkscape:connector-curvature="0"
         style="fill:#4ab134"
         d="m 513.463,227.5 c 0.529,3.291 0.837,5.474 0.837,5.474 0,0 10.688,2.294 16.835,0.96 -0.013,-2.025 -0.022,-3.58 -0.024,-4.84 -0.003,-2.233 0.194,-5.624 0.24,-6.896 0.302,-0.052 5.351,0.032 5.653,0.084 0.047,1.269 -0.033,4.572 -0.039,6.798 0,1.262 -0.007,2.821 -0.021,4.854 6.145,1.333 16.833,-0.96 16.833,-0.96 0,0 0.386,-2.219 0.921,-5.555 0.891,-5.563 2.199,-14.238 2.833,-20.929 0.025,-0.279 0.043,-0.558 0.068,-0.837 -3.257,1.174 -11.55,3.654 -23.525,3.682 -11.976,-0.028 -20.27,-2.508 -23.523,-3.682 0.024,0.28 0.04,0.558 0.066,0.837 0.636,6.724 1.955,15.448 2.846,21.01"
         id="path2195" />
      <path
         inkscape:connector-curvature="0"
         style="fill:none;stroke:#3b801c;stroke-width:3.67650008"
         d="m 513.463,227.5 c 0.529,3.291 0.837,5.474 0.837,5.474 0,0 10.688,2.294 16.835,0.96 -0.013,-2.025 -0.022,-3.58 -0.024,-4.84 -0.003,-2.233 0.194,-5.624 0.24,-6.896 0.302,-0.052 5.351,0.032 5.653,0.084 0.047,1.269 -0.033,4.572 -0.039,6.798 0,1.262 -0.007,2.821 -0.021,4.854 6.145,1.333 16.833,-0.96 16.833,-0.96 0,0 0.386,-2.219 0.921,-5.555 0.891,-5.563 2.199,-14.238 2.833,-20.929 0.025,-0.279 0.043,-0.558 0.068,-0.837 -3.257,1.174 -11.55,3.654 -23.525,3.682 -11.976,-0.028 -20.27,-2.508 -23.523,-3.682 0.024,0.28 0.04,0.558 0.066,0.837 0.636,6.724 1.955,15.448 2.846,21.01"
         id="path2197" />
      <path
         inkscape:connector-curvature="0"
         style="fill:#4ab134"
         d="m 513.463,227.5 c 0.529,3.291 0.837,5.474 0.837,5.474 0,0 10.688,2.294 16.835,0.96 -0.013,-2.025 -0.022,-3.58 -0.024,-4.84 -0.003,-2.233 0.194,-5.624 0.24,-6.896 0.302,-0.052 5.351,0.032 5.653,0.084 0.047,1.269 -0.033,4.572 -0.039,6.798 0,1.262 -0.007,2.821 -0.021,4.854 6.145,1.333 16.833,-0.96 16.833,-0.96 0,0 0.386,-2.219 0.921,-5.555 0.891,-5.563 2.199,-14.238 2.833,-20.929 0.025,-0.279 0.043,-0.558 0.068,-0.837 -3.257,1.174 -11.55,3.654 -23.525,3.682 -11.976,-0.028 -20.27,-2.508 -23.523,-3.682 0.024,0.28 0.04,0.558 0.066,0.837 0.636,6.724 1.955,15.448 2.846,21.01"
         id="path2199" />
      <path
         inkscape:connector-curvature="0"
         style="fill:#0052a4"
         d="m 557.455,207.059 c 1.613,-18.199 -0.678,-36.067 -4.718,-52.566 l -0.176,-5.49 -36.929,1.139 -0.384,5.061 c -3.9,16.173 -6.101,33.64 -4.581,51.43 5.017,1.864 22.371,7.028 46.788,0.426"
         id="path2201" />
      <path
         inkscape:connector-curvature="0"
         style="fill:none;stroke:#0052a4;stroke-width:3.77069998;stroke-linecap:round;stroke-linejoin:round"
         d="m 557.455,207.059 c 1.613,-18.199 -0.678,-36.067 -4.718,-52.566 l -0.176,-5.49 -36.929,1.139 -0.384,5.061 c -3.9,16.173 -6.101,33.64 -4.581,51.43 5.017,1.864 22.371,7.028 46.788,0.426 z"
         id="path2203" />
      <path
         inkscape:connector-curvature="0"
         style="fill:#ef7a00"
         d="m 514.248,167.888 c -7.124,4.225 -17.912,11.682 -21.244,20.864 0.852,0.046 7.097,7.17 4.892,10.007 -1.56,2.001 -4.838,-0.747 -5.822,-1.717 0.6,0.893 1.26,7.392 -0.514,8.112 -4.063,1.651 -5.198,-3.949 -5.905,-7.971 -0.062,1.311 0.979,7.271 -1.335,7.185 -4.129,0.393 -4.748,-7.507 -4.146,-8.372 -0.58,1.51 0.335,5.618 -3.633,5.128 -2.431,-0.302 -2.207,-14.108 10.704,-14.867 3.76,-9.346 15.144,-18.673 21.662,-21.388"
         id="path2205" />
      <path
         inkscape:connector-curvature="0"
         style="fill:none;stroke:#ef7a00;stroke-width:3.67650008"
         d="m 514.248,167.888 c -7.124,4.225 -17.912,11.682 -21.244,20.864 0.852,0.046 7.097,7.17 4.892,10.007 -1.56,2.001 -4.838,-0.747 -5.822,-1.717 0.6,0.893 1.26,7.392 -0.514,8.112 -4.063,1.651 -5.198,-3.949 -5.905,-7.971 -0.062,1.311 0.979,7.271 -1.335,7.185 -4.129,0.393 -4.748,-7.507 -4.146,-8.372 -0.58,1.51 0.335,5.618 -3.633,5.128 -2.431,-0.302 -2.207,-14.108 10.704,-14.867 3.76,-9.346 15.144,-18.673 21.662,-21.388"
         id="path2207" />
      <path
         inkscape:connector-curvature="0"
         style="fill:#ffe100"
         d="m 514.248,167.888 c -7.124,4.225 -17.912,11.682 -21.244,20.864 0.852,0.046 7.097,7.17 4.892,10.007 -1.56,2.001 -4.838,-0.747 -5.822,-1.717 0.6,0.893 1.26,7.392 -0.514,8.112 -4.063,1.651 -5.198,-3.949 -5.905,-7.971 -0.062,1.311 0.979,7.271 -1.335,7.185 -4.129,0.393 -4.748,-7.507 -4.146,-8.372 -0.579,1.51 0.337,5.618 -3.632,5.128 -2.432,-0.302 -2.208,-14.108 10.703,-14.867 3.76,-9.346 15.146,-18.673 21.662,-21.388"
         id="path2209" />
      <path
         inkscape:connector-curvature="0"
         style="fill:#0052a4"
         d="m 482.702,181.998 c 0,0 14.438,4.255 16.413,6.078 0,0 1.976,-7.294 16.564,-20.212 l 0.151,-15.349 c 10e-4,0 -24.618,8.358 -33.128,29.483"
         id="path2211" />
      <path
         inkscape:connector-curvature="0"
         style="fill:none;stroke:#0052a4;stroke-width:3.77069998;stroke-linecap:round;stroke-linejoin:round"
         d="m 482.702,181.998 c 0,0 14.438,4.255 16.413,6.078 0,0 1.976,-7.294 16.564,-20.212 l 0.151,-15.349 c 10e-4,0 -24.618,8.358 -33.128,29.483 z"
         id="path2213" />
      <path
         inkscape:connector-curvature="0"
         style="fill:#0076bf"
         d="m 491.092,168.892 13.695,10.095 c 1.209,-1.483 2.672,-3.141 4.428,-4.959 l -9.821,-12.559 c -2.809,2.074 -5.668,4.54 -8.302,7.423"
         id="path2215" />
      <path
         inkscape:connector-curvature="0"
         style="fill:#ee7624"
         d="m 482.702,181.998 c 0,0 14.438,4.255 16.413,6.078 0,0 0.566,-2.087 3.323,-6.001 l -16.306,-6.732 c -1.308,2.062 -2.472,4.277 -3.43,6.655"
         id="path2217" />
      <path
         inkscape:connector-curvature="0"
         style="fill:#a7ce58"
         d="m 486.133,175.343 16.306,6.731 c 0.651,-0.927 1.429,-1.958 2.349,-3.087 l -13.695,-10.096 c -1.787,1.957 -3.469,4.104 -4.96,6.452"
         id="path2219" />
      <path
         inkscape:connector-curvature="0"
         style="fill:#ee7624"
         d="m 515.68,167.864 0.151,-15.349 c 0,0 -3.693,1.255 -8.712,4.018 l 7.003,12.735 c 0.505,-0.461 1.02,-0.927 1.558,-1.404"
         id="path2221" />
      <path
         inkscape:connector-curvature="0"
         style="fill:#a7ce58"
         d="m 514.122,169.268 -7.003,-12.735 c -2.363,1.302 -5.021,2.939 -7.726,4.936 l 9.821,12.56 c 1.432,-1.482 3.057,-3.069 4.908,-4.761"
         id="path2223" />
      <path
         inkscape:connector-curvature="0"
         style="fill:#0076bf"
         d="m 532.876,149.61 -6.021,0.185 c -1.643,14.127 -4.497,43.412 -2.227,60.002 2.887,0.336 6.137,0.541 9.712,0.515 0.035,-8.81 -1,-44.985 -1.464,-60.702"
         id="path2225" />
      <path
         inkscape:connector-curvature="0"
         style="fill:#0076bf"
         d="m 552.737,154.493 -0.176,-5.49 -4.679,0.145 c 1.872,9.472 4.876,29.895 3.696,59.303 1.909,-0.391 3.866,-0.849 5.876,-1.391 1.614,-18.199 -0.677,-36.068 -4.717,-52.567"
         id="path2227" />
      <path
         inkscape:connector-curvature="0"
         style="fill:#ee7624"
         d="m 519.752,150.014 -4.119,0.128 -0.384,5.06 c -3.9,16.174 -6.101,33.64 -4.581,51.431 1.183,0.441 3.062,1.064 5.554,1.674 -1.132,-28.463 1.657,-48.49 3.53,-58.293"
         id="path2229" />
      <path
         inkscape:connector-curvature="0"
         style="fill:#a7ce58"
         d="m 526.854,149.795 -7.103,0.218 c -1.873,9.803 -4.662,29.83 -3.53,58.292 2.295,0.563 5.114,1.109 8.406,1.492 -2.27,-16.589 0.585,-45.876 2.227,-60.002"
         id="path2231" />
      <path
         inkscape:connector-curvature="0"
         style="fill:#a7ce58"
         d="m 547.883,149.147 -6.98,0.215 c 1.63,13.948 4.568,43.655 2.276,60.42 2.675,-0.296 5.478,-0.732 8.4,-1.333 1.181,-29.407 -1.824,-49.83 -3.696,-59.302"
         id="path2233" />
      <path
         inkscape:connector-curvature="0"
         style="fill:#ee7624"
         d="m 540.902,149.362 -8.026,0.248 c 0.465,15.717 1.499,51.892 1.464,60.702 2.759,-0.022 5.71,-0.183 8.839,-0.53 2.292,-16.765 -0.647,-46.472 -2.277,-60.42"
         id="path2235" />
      <polygon
         style="fill:#ffffff"
         points="522.248,158.343 542.721,158.855 532.484,173.186 "
         id="polygon2237" />
      <path
         inkscape:connector-curvature="0"
         style="fill:#e83827"
         d="m 552.844,154.952 c -0.037,-0.153 -0.071,-0.309 -0.108,-0.459 l -0.176,-5.49 -36.931,1.139 -0.382,5.061 c -0.095,0.389 -0.184,0.784 -0.275,1.175 6.797,0.923 19.419,1.611 37.872,-1.426"
         id="path2239" />
      <path
         inkscape:connector-curvature="0"
         style="fill:#0052a4"
         d="m 512.342,144.468 c -1.129,1.462 -0.024,8.458 1.251,9.707 7.921,7.765 37.296,5.762 40.509,-1.71 0.908,-2.116 2.329,-8.309 -0.526,-8.425 -1.431,-0.058 -40.269,-0.943 -41.234,0.428"
         id="path2241" />
      <path
         inkscape:connector-curvature="0"
         style="fill:none;stroke:#0052a4;stroke-width:3.77069998;stroke-linecap:round;stroke-linejoin:round"
         d="m 512.342,144.468 c -1.129,1.462 -0.024,8.458 1.251,9.707 7.921,7.765 37.296,5.762 40.509,-1.71 0.908,-2.116 2.329,-8.309 -0.526,-8.425 -1.431,-0.058 -40.269,-0.943 -41.234,0.428"
         id="path2243" />
      <path
         inkscape:connector-curvature="0"
         style="fill:#0052a4"
         d="m 512.342,144.468 c -1.129,1.462 -0.024,8.458 1.251,9.707 7.921,7.765 37.296,5.762 40.509,-1.71 0.908,-2.116 2.329,-8.309 -0.526,-8.425 -1.431,-0.058 -40.269,-0.943 -41.234,0.428"
         id="path2245" />
      <path
         inkscape:connector-curvature="0"
         style="fill:none;stroke:#0052a4;stroke-width:3.77069998;stroke-linecap:round;stroke-linejoin:round"
         d="m 512.342,144.468 c -1.129,1.462 -0.024,8.458 1.251,9.707 7.921,7.765 37.296,5.762 40.509,-1.71 0.908,-2.116 2.329,-8.309 -0.526,-8.425 -1.431,-0.058 -40.269,-0.943 -41.234,0.428"
         id="path2247" />
      <path
         inkscape:connector-curvature="0"
         style="fill:#0052a4"
         d="m 512.342,144.468 c -1.129,1.462 -0.024,8.458 1.251,9.707 7.921,7.765 37.296,5.762 40.509,-1.71 0.908,-2.116 2.329,-8.309 -0.526,-8.425 -1.431,-0.058 -40.269,-0.943 -41.234,0.428"
         id="path2249" />
      <path
         inkscape:connector-curvature="0"
         style="fill:none;stroke:#0052a4;stroke-width:3.77069998;stroke-linecap:round;stroke-linejoin:round"
         d="m 512.342,144.468 c -1.129,1.462 -0.024,8.458 1.251,9.707 7.921,7.765 37.296,5.762 40.509,-1.71 0.908,-2.116 2.329,-8.309 -0.526,-8.425 -1.431,-0.058 -40.269,-0.943 -41.234,0.428"
         id="path2251" />
      <path
         inkscape:connector-curvature="0"
         style="fill:#ffffff"
         d="m 512.342,144.468 c -1.129,1.462 -0.024,8.458 1.251,9.707 7.921,7.765 37.296,5.762 40.509,-1.71 0.908,-2.116 2.329,-8.309 -0.526,-8.425 -1.431,-0.058 -40.269,-0.943 -41.234,0.428"
         id="path2253" />
      <path
         inkscape:connector-curvature="0"
         style="fill:#ffffff"
         d="m 512.342,144.468 c -1.129,1.462 -0.024,8.458 1.251,9.707 7.921,7.765 37.296,5.762 40.509,-1.71 0.908,-2.116 2.329,-8.309 -0.526,-8.425 -1.431,-0.058 -40.269,-0.943 -41.234,0.428"
         id="path2255" />
      <path
         inkscape:connector-curvature="0"
         style="fill:#ffffff"
         d="m 512.342,144.468 c -1.129,1.462 -0.024,8.458 1.251,9.707 7.921,7.765 37.296,5.762 40.509,-1.71 0.908,-2.116 2.329,-8.309 -0.526,-8.425 -1.431,-0.058 -40.269,-0.943 -41.234,0.428"
         id="path2257" />
      <path
         inkscape:connector-curvature="0"
         style="fill:#ef7a00"
         d="m 557.75,119.521 c 0,6.184 3.825,11.196 8.544,11.196 4.719,0 8.543,-5.012 8.543,-11.196 0,-6.182 -3.824,-11.195 -8.543,-11.195 -4.719,0 -8.544,5.012 -8.544,11.195"
         id="path2259" />
      <ellipse
         d="m 574.83603,119.521 c 0,6.18338 -3.82483,11.196 -8.543,11.196 -4.71817,0 -8.543,-5.01262 -8.543,-11.196 0,-6.18338 3.82483,-11.196 8.543,-11.196 4.71817,0 8.543,5.01262 8.543,11.196 z"
         sodipodi:ry="11.196"
         sodipodi:rx="8.5430002"
         sodipodi:cy="119.521"
         sodipodi:cx="566.29303"
         style="fill:none;stroke:#ef7a00;stroke-width:3.67650008"
         cx="566.29303"
         cy="119.521"
         rx="8.5430002"
         ry="11.196"
         id="ellipse2261" />
      <path
         inkscape:connector-curvature="0"
         style="fill:#ef7a00"
         d="m 491.427,119.024 c 0,6.185 3.824,11.196 8.542,11.196 4.719,0 8.544,-5.011 8.544,-11.196 0,-6.183 -3.825,-11.196 -8.544,-11.196 -4.718,0 -8.542,5.013 -8.542,11.196"
         id="path2263" />
      <ellipse
         d="m 508.513,119.024 c 0,6.18338 -3.82483,11.196 -8.543,11.196 -4.71817,0 -8.543,-5.01262 -8.543,-11.196 0,-6.18338 3.82483,-11.196 8.543,-11.196 4.71817,0 8.543,5.01262 8.543,11.196 z"
         sodipodi:ry="11.196"
         sodipodi:rx="8.5430002"
         sodipodi:cy="119.024"
         sodipodi:cx="499.97"
         style="fill:none;stroke:#ef7a00;stroke-width:3.67650008"
         cx="499.97"
         cy="119.024"
         rx="8.5430002"
         ry="11.196"
         id="ellipse2265" />
      <path
         inkscape:connector-curvature="0"
         style="fill:#ffe100"
         d="m 557.75,119.521 c 0,6.184 3.825,11.196 8.544,11.196 4.719,0 8.543,-5.012 8.543,-11.196 0,-6.182 -3.824,-11.195 -8.543,-11.195 -4.719,0 -8.544,5.012 -8.544,11.195"
         id="path2267" />
      <path
         inkscape:connector-curvature="0"
         style="fill:#ffe100"
         d="m 491.427,119.024 c 0,6.185 3.824,11.196 8.542,11.196 4.719,0 8.544,-5.011 8.544,-11.196 0,-6.183 -3.825,-11.196 -8.544,-11.196 -4.718,0 -8.542,5.013 -8.542,11.196"
         id="path2269" />
      <path
         inkscape:connector-curvature="0"
         style="fill:#ef7a00"
         d="m 511.686,144.58 c -9.175,-6.506 -12.658,-20.128 -10.795,-34.107 3.121,-23.425 17.532,-42.415 32.184,-42.415 14.654,0 29.062,18.989 32.187,42.415 1.949,14.641 -2.948,27.548 -11.995,35.17 0,0 -9.661,6.031 -22.854,4.541 -0.002,0 -9.425,0.993 -18.727,-5.604"
         id="path2271" />
      <path
         inkscape:connector-curvature="0"
         style="fill:none;stroke:#ef7a00;stroke-width:3.67650008"
         d="m 511.686,144.58 c -9.175,-6.506 -12.658,-20.128 -10.795,-34.107 3.121,-23.425 17.532,-42.415 32.184,-42.415 14.654,0 29.062,18.989 32.187,42.415 1.949,14.641 -2.948,27.548 -11.995,35.17 0,0 -9.661,6.031 -22.854,4.541 -0.002,0 -9.425,0.993 -18.727,-5.604 z"
         id="path2273" />
      <path
         inkscape:connector-curvature="0"
         style="fill:#ffe100"
         d="m 511.686,144.58 c -9.175,-6.506 -12.658,-20.128 -10.795,-34.107 3.121,-23.425 17.532,-42.415 32.184,-42.415 14.654,0 29.062,18.989 32.187,42.415 1.949,14.641 -2.948,27.548 -11.995,35.17 0,0 -9.661,6.031 -22.854,4.541 -0.002,0 -9.425,0.993 -18.727,-5.604"
         id="path2275" />
      <path
         inkscape:connector-curvature="0"
         style="fill:#ffffff"
         d="m 511.094,104.745 c 0,5.831 4.487,10.56 10.023,10.56 5.534,0 10.021,-4.729 10.021,-10.56 0,-5.832 -4.487,-10.559 -10.021,-10.559 -5.536,10e-4 -10.023,4.727 -10.023,10.559"
         id="path2277" />
      <path
         inkscape:connector-curvature="0"
         style="fill:#ffffff"
         d="m 555.295,104.745 c 0,5.831 -4.486,10.56 -10.022,10.56 -5.536,0 -10.021,-4.729 -10.021,-10.56 0,-5.832 4.485,-10.559 10.021,-10.559 5.536,0 10.022,4.727 10.022,10.559"
         id="path2279" />
      <path
         inkscape:connector-curvature="0"
         d="m 517.004,100.078 c 0,2.861 2.203,5.182 4.918,5.182 2.719,0 4.921,-2.321 4.921,-5.182 0,-2.864 -2.202,-5.185 -4.921,-5.185 -2.715,0.001 -4.918,2.321 -4.918,5.185"
         id="path2281" />
      <path
         inkscape:connector-curvature="0"
         style="fill:#f29100"
         d="m 521.728,121.457 c 0,8.474 5.238,15.339 11.702,15.339 6.462,0 11.703,-6.865 11.703,-15.339 0,-8.474 -5.241,-15.344 -11.703,-15.344 -6.464,0 -11.702,6.87 -11.702,15.344"
         id="path2283" />
      <path
         inkscape:connector-curvature="0"
         d="m 549.328,100.078 c 0,2.861 -2.203,5.182 -4.92,5.182 -2.716,0 -4.919,-2.321 -4.919,-5.182 0,-2.864 2.203,-5.185 4.919,-5.185 2.717,0.001 4.92,2.321 4.92,5.185"
         id="path2285" />
      <path
         inkscape:connector-curvature="0"
         style="fill:none;stroke:#000000;stroke-width:4.2414999;stroke-linecap:round"
         d="m 512.197,90.423 c 0,0 20.463,-10.255 41.425,-0.526"
         id="path2287" />
      <path
         inkscape:connector-curvature="0"
         d="m 550.411,73.695 c -2.008,0.873 -3.574,1.524 -5.79,1.725 -2.043,0.186 -4.157,-0.465 -5.676,-1.75 -1.23,1.459 -3.322,1.897 -5.169,1.786 -1.455,-0.09 -3.419,-0.711 -4.896,-1.708 -3.313,1.525 -6.656,1.878 -10.373,1.203 -2.085,-0.378 -3.848,-1.569 -5.384,-2.915 -1.737,-1.522 -5.722,-7.482 -5.639,-7.44 1.773,0.901 3.206,1.531 5.089,1.729 1.381,0.145 2.693,0.122 3.991,-0.056 -0.129,-0.116 -0.258,-0.226 -0.387,-0.342 -3.749,-3.321 -3.22,-10.132 -2.74,-9.33 2.063,2.403 4.871,3.513 7.862,4.004 -0.299,-0.332 -0.52,-0.715 -0.799,-1.04 -5.227,-6.1 -1.363,-12.679 -1.322,-12.448 0.083,0.461 1.89,5.422 3.896,6.818 0.875,0.607 1.83,0.951 2.798,1.26 -0.352,-1.48 -0.549,-2.994 -0.618,-4.537 -0.326,-7.315 4.467,-8.807 4.542,-8.873 0.064,-0.056 -0.016,3.284 2.038,6.571 0.521,0.833 1.061,1.648 1.697,2.403 0.268,-0.417 0.556,-0.829 0.89,-1.23 1.064,-1.289 2.507,-2.184 3.962,-2.99 1.747,-0.965 5.862,-2.442 5.767,-2.248 -0.21,0.427 -0.474,0.799 -0.768,1.14 -1.251,1.976 -2.216,3.99 -2.848,6.299 -0.338,1.23 -0.426,2.455 -0.426,3.681 1.066,-0.389 2.124,-0.799 3.124,-1.386 2.146,-1.265 4.051,-3.251 5.049,-5.496 0.043,-0.092 1.219,5.303 -0.135,7.746 2.405,-0.848 5.049,-1.108 6.854,-0.132 0.135,0.072 -4.655,3.921 -6.071,6.087 -0.882,1.347 -1.481,2.866 -2.128,4.346 0.557,-0.057 1.113,-0.138 1.674,-0.259 2.993,-0.652 8.659,-6.042 8.618,-5.887 -0.93,3.349 -1.611,6.125 -4.299,8.557 -0.561,0.503 -1.165,0.937 -1.808,1.318 0.628,-0.133 1.261,-0.242 1.922,-0.273 2.502,-0.121 4.689,0.109 6.63,1.746 0.266,0.223 -6.276,0.681 -9.127,1.921"
         id="path2289" />
      <path
         inkscape:connector-curvature="0"
         style="fill:#e83434"
         d="m 509.282,133.561 c 0,0 22.641,15.617 49.63,-1.223 0,-0.001 -24.755,22.478 -49.63,1.223"
         id="path2291" />
      <path
         inkscape:connector-curvature="0"
         style="fill:#ef7a00"
         d="m 539.391,184.588 c 0,0 0,-1.101 -3.636,-8.115 -13.063,3.797 -9.186,-7.312 -8.287,-8.289 -0.562,1.106 -9.287,0.851 -6.648,-5.678 3.805,-9.411 11.899,-4.179 13.362,-2.358 0.704,-2.838 -6.964,-9.656 1.021,-13.337 5.168,-2.385 6.93,12.957 5.029,16.894 1.316,0.071 6.817,-4.046 7.965,0.85 1.703,7.26 -3.938,5.488 -6.198,7.234 3.134,6.076 4.917,8.785 4.917,8.785"
         id="path2293" />
      <path
         inkscape:connector-curvature="0"
         style="fill:none;stroke:#ef7a00;stroke-width:3.67650008"
         d="m 539.391,184.588 c 0,0 0,-1.101 -3.636,-8.115 -13.063,3.797 -9.186,-7.312 -8.287,-8.289 -0.562,1.106 -9.287,0.851 -6.648,-5.678 3.805,-9.411 11.899,-4.179 13.362,-2.358 0.704,-2.838 -6.964,-9.656 1.021,-13.337 5.168,-2.385 6.93,12.957 5.029,16.894 1.316,0.071 6.817,-4.046 7.965,0.85 1.703,7.26 -3.938,5.488 -6.198,7.234 3.134,6.076 4.917,8.785 4.917,8.785"
         id="path2295" />
      <path
         inkscape:connector-curvature="0"
         style="fill:#ffe100"
         d="m 534.287,160.149 c 0.705,-2.838 -6.963,-9.655 1.021,-13.337 5.168,-2.386 6.931,12.956 5.029,16.894 1.318,0.071 6.818,-4.048 7.966,0.85 1.703,7.26 -3.937,5.488 -6.197,7.235 0.735,1.968 1.528,3.744 2.362,5.357 1.251,2.416 -4.974,6.531 -6.425,3.821 -0.751,-1.401 -1.479,-2.889 -2.184,-4.496 -12.722,3.699 -9.376,-6.742 -8.361,-8.186 -1.022,0.983 -9.129,0.543 -6.572,-5.779 3.803,-9.412 11.898,-4.181 13.361,-2.359"
         id="path2297" />
      <path
         inkscape:connector-curvature="0"
         style="fill:#0052a4"
         d="m 564.086,189.525 c -7.089,6.684 -21.387,4.3 -27.975,-6.683 0,0 10.861,-7.75 12.116,-10.047 l 5.828,3.01 c 0,-0.767 0.124,-4.791 -0.086,-6.591 -0.662,-3.819 -0.955,-12.335 2.426,-13.211 4.971,-1.289 9.493,10.083 9.493,10.083 0,0 7.058,15.086 -1.802,23.439"
         id="path2299" />
      <path
         inkscape:connector-curvature="0"
         style="fill:none;stroke:#0052a4;stroke-width:3.77069998;stroke-linecap:round;stroke-linejoin:round"
         d="m 564.086,189.525 c -7.089,6.684 -21.387,4.3 -27.975,-6.683 0,0 10.861,-7.75 12.116,-10.047 l 5.828,3.01 c 0,-0.767 0.124,-4.791 -0.086,-6.591 -0.662,-3.819 -0.955,-12.335 2.426,-13.211 4.971,-1.289 9.493,10.083 9.493,10.083 0,0 7.058,15.086 -1.802,23.439 z"
         id="path2301" />
      <path
         inkscape:connector-curvature="0"
         style="fill:#0076bf"
         d="m 553.423,175.478 15.13,6.554 c -1.525,5.107 -5.71,9.222 -10.745,10.661 l -4.385,-17.215 z"
         id="path2303" />
      <path
         inkscape:connector-curvature="0"
         style="fill:#a7ce58"
         d="m 553.87,168.865 13.309,0.724 c 0,0 1.791,6.075 1.374,12.115 l -14.765,-6.215 0.082,-6.624 z"
         id="path2305" />
      <path
         inkscape:connector-curvature="0"
         style="fill:#ee7624"
         d="m 551.716,174.264 -6.285,17.098 c 0,0 -8.027,-4.552 -9.453,-8.802 0,0 11.281,-7.573 12.116,-10.046 0,-0.001 1.651,0.732 3.622,1.75"
         id="path2307" />
      <path
         inkscape:connector-curvature="0"
         style="fill:#a7ce58"
         d="m 551.716,174.414 1.707,1.064 4.385,17.214 c -5.112,1.602 -10.666,-0.575 -12.377,-1.331 l 6.285,-16.947 z"
         id="path2309" />
      <path
         inkscape:connector-curvature="0"
         style="fill:#ee7624"
         d="m 553.555,164.483 c 0,0 -0.41,-6.49 3.208,-8.411 2.708,-1.411 5.831,3.438 5.831,3.438 0,0 2.711,3.303 4.585,10.08 l -13.309,-0.724 c -0.081,-0.251 -0.315,-4.383 -0.315,-4.383"
         id="path2311" />
    </g>
  </g>
</svg>
