<?xml version="1.0" encoding="UTF-8" standalone="no"?>
<!-- Created with Inkscape (http://www.inkscape.org/) -->

<svg
   xmlns:dc="http://purl.org/dc/elements/1.1/"
   xmlns:cc="http://creativecommons.org/ns#"
   xmlns:rdf="http://www.w3.org/1999/02/22-rdf-syntax-ns#"
   xmlns:svg="http://www.w3.org/2000/svg"
   xmlns="http://www.w3.org/2000/svg"
   xmlns:sodipodi="http://sodipodi.sourceforge.net/DTD/sodipodi-0.dtd"
   xmlns:inkscape="http://www.inkscape.org/namespaces/inkscape"
   width="115.36422"
   height="206.78723"
   id="svg5696"
   version="1.1"
   inkscape:version="0.48.4 r9939"
   sodipodi:docname="abby12.svg">
  <defs
     id="defs5698" />
  <sodipodi:namedview
     id="base"
     pagecolor="#ffffff"
     bordercolor="#666666"
     borderopacity="1.0"
     inkscape:pageopacity="0.0"
     inkscape:pageshadow="2"
     inkscape:zoom="0.77472527"
     inkscape:cx="57.682111"
     inkscape:cy="103.36879"
     inkscape:current-layer="layer1"
     inkscape:document-units="px"
     showgrid="false"
     inkscape:window-width="942"
     inkscape:window-height="591"
     inkscape:window-x="412"
     inkscape:window-y="91"
     inkscape:window-maximized="0"
     fit-margin-top="0"
     fit-margin-left="0"
     fit-margin-right="0"
     fit-margin-bottom="0" />
  <metadata
     id="metadata5701">
    <rdf:RDF>
      <cc:Work
         rdf:about="">
        <dc:format>image/svg+xml</dc:format>
        <dc:type
           rdf:resource="http://purl.org/dc/dcmitype/StillImage" />
        <dc:title></dc:title>
      </cc:Work>
    </rdf:RDF>
  </metadata>
  <g
     id="layer1"
     inkscape:label="Layer 1"
     inkscape:groupmode="layer"
     transform="translate(-173.94766,18.312063)">
    <g
       transform="translate(80.866374,-61.124181)"
       id="g813">
      <path
         inkscape:connector-curvature="0"
         style="fill:#003c90"
         d="m 160.429,155.742 0.897,-0.397 -1.078,-1.588 -0.892,0.409 c -9.293,4.138 -15.524,10.75 -18.665,19.841 l 0.026,-0.039 c -1.938,4.694 -1.623,9.159 0.952,13.392 0.012,0.033 0.032,0.051 0.057,0.082 2.735,3.601 6.199,6.896 10.395,9.895 2.878,2.072 6.118,4.001 9.72,5.79 0.257,0.122 0.524,0.161 0.811,0.104 0.27,-0.065 0.476,-0.199 0.599,-0.408 l 9.075,-14.975 c 0.115,-0.196 0.137,-0.396 0.072,-0.615 -0.066,-0.218 -0.21,-0.397 -0.417,-0.529 l -9.151,-5.765 c -1.324,-2.196 -1.674,-3.986 -1.048,-5.358 0.021,-0.051 0.031,-0.098 0.053,-0.15 0.618,-2.466 2.012,-4.442 4.209,-5.931 l 0.797,-0.529 -1.374,-1.412 -0.784,0.526 c -0.172,0.115 -0.34,0.241 -0.508,0.367 -1.125,0.836 -2.059,1.796 -2.79,2.878 -0.047,0.055 -0.091,0.121 -0.133,0.187 -0.65,1.008 -1.13,2.12 -1.438,3.336 -0.29,0.566 -0.439,1.185 -0.455,1.847 -0.006,0.058 -0.007,0.127 -0.006,0.208 -0.002,1.214 0.432,2.604 1.295,4.154 0.039,0.072 0.075,0.135 0.114,0.208 0.111,0.197 0.234,0.392 0.361,0.597 0.076,0.135 0.181,0.241 0.332,0.328 l 4.432,2.8 4.169,2.623 -8.193,13.529 c -3.056,-1.562 -5.831,-3.239 -8.323,-5.017 -0.053,-0.037 -0.093,-0.075 -0.146,-0.11 -0.016,-0.008 -0.037,-0.027 -0.053,-0.035 -3.677,-2.629 -6.759,-5.491 -9.25,-8.598 -0.065,-0.069 -0.113,-0.128 -0.149,-0.19 -0.161,-0.188 -0.313,-0.389 -0.461,-0.578 -2.252,-3.779 -2.527,-7.766 -0.796,-11.957 0.009,-0.013 0.005,-0.025 0.014,-0.038 0.176,-0.509 0.366,-1.02 0.572,-1.523 0.03,-0.063 0.057,-0.139 0.088,-0.203 1.4,-3.478 3.324,-6.54 5.746,-9.183 0.046,-0.057 0.105,-0.113 0.151,-0.169 2.641,-2.847 5.882,-5.214 9.705,-7.108 0.484,-0.246 0.976,-0.471 1.468,-0.696"
         id="path815" />
      <path
         inkscape:connector-curvature="0"
         style="fill:#df6513"
         d="m 161.326,155.345 -0.897,0.397 c -0.491,0.224 -0.983,0.45 -1.468,0.696 -3.823,1.894 -7.064,4.261 -9.705,7.108 l 12.128,7.782 c 0.731,-1.082 1.665,-2.041 2.79,-2.877 0.168,-0.125 0.335,-0.252 0.508,-0.367 l 0.784,-0.526 c 4.115,-3.118 5.128,-6.195 3.048,-9.234 -1.846,-2.577 -4.244,-3.577 -7.188,-2.979"
         id="path817" />
      <path
         inkscape:connector-curvature="0"
         style="fill:#9ac843"
         d="m 149.256,163.546 c -0.046,0.056 -0.105,0.113 -0.153,0.169 -2.421,2.643 -4.344,5.706 -5.745,9.183 -0.031,0.063 -0.058,0.139 -0.088,0.203 l 15.963,3.807 0.055,-0.218 0.07,0.009 c 0.016,-0.662 0.166,-1.281 0.455,-1.847 0.309,-1.216 0.788,-2.329 1.439,-3.335 0.042,-0.067 0.086,-0.133 0.132,-0.188 l -12.128,-7.783 z"
         id="path819" />
      <path
         inkscape:connector-curvature="0"
         style="fill:#0e5cab"
         d="m 159.353,176.907 -0.119,10e-4 -15.963,-3.807 c -0.206,0.502 -0.396,1.015 -0.572,1.522 -0.009,0.014 -0.004,0.025 -0.014,0.038 -1.731,4.191 -1.456,8.179 0.796,11.958 0.148,0.189 0.3,0.391 0.461,0.577 l 16.706,-6.134 c -0.864,-1.55 -1.298,-2.94 -1.295,-4.155"
         id="path821" />
      <path
         inkscape:connector-curvature="0"
         style="fill:#9ac843"
         d="m 161.455,182.195 c -0.151,-0.086 -0.255,-0.193 -0.332,-0.328 -0.127,-0.205 -0.25,-0.399 -0.361,-0.597 -0.04,-0.073 -0.076,-0.137 -0.115,-0.208 l -16.705,6.135 c 0.036,0.062 0.084,0.122 0.148,0.19 2.491,3.107 5.573,5.97 9.25,8.599 0.017,0.008 0.037,0.027 0.053,0.035 0.053,0.036 0.093,0.074 0.146,0.109 l 12.348,-11.134 -4.432,-2.801 z"
         id="path823" />
      <path
         inkscape:connector-curvature="0"
         style="fill:#df6513"
         d="m 170.057,187.618 -4.169,-2.623 -12.349,11.134 c 2.493,1.779 5.269,3.456 8.323,5.017 l 8.195,-13.528 z"
         id="path825" />
      <path
         inkscape:connector-curvature="0"
         style="fill:#004498"
         d="m 189.953,241.526 c -0.228,0.317 -0.778,0.488 -1.625,0.518 -1.749,0.173 -3.214,1.115 -4.417,2.852 -0.841,-0.796 -1.656,-1.762 -2.413,-2.908 1.598,-3.045 3.245,-6.864 4.939,-11.456 0.166,-0.4 0.327,-0.788 0.458,-1.156 0.259,-0.792 0.557,-1.575 0.891,-2.334 0.276,-0.746 0.629,-1.474 1.029,-2.162 0.366,-0.669 0.77,-1.317 1.223,-1.938 0.462,-0.606 0.946,-1.191 1.444,-1.774 0.011,0.017 0.008,0.029 0.024,0.02 0.081,1.381 0.226,2.67 0.423,3.861 0.114,0.839 0.261,1.604 0.411,2.302 0.505,1.567 0.779,2.72 0.84,3.438 -0.111,0.29 -0.226,0.592 -0.326,0.899 -1.24,3.434 -2.206,6.714 -2.901,9.838 l 0,0 z"
         id="path827" />
      <path
         inkscape:connector-curvature="0"
         style="fill:#ffffff"
         d="m 188.327,242.044 c 0.848,-0.031 1.398,-0.202 1.625,-0.519 -0.843,3.97 -0.578,6.307 0.783,7.005 -2.266,-0.655 -4.538,-1.862 -6.825,-3.636 1.202,-1.735 2.668,-2.677 4.417,-2.85"
         id="path829" />
      <path
         inkscape:connector-curvature="0"
         style="fill:#898989"
         d="m 189.953,241.526 c 0.695,-3.124 1.661,-6.404 2.899,-9.839 0.263,-0.006 0.377,-0.309 0.326,-0.899 0.415,-1.099 0.913,-2.192 1.457,-3.258 1.427,-2.673 3.025,-4.742 4.778,-6.193 1.797,-1.234 3.093,-1.64 3.854,-1.196 2.169,3.868 0.464,11.088 -5.115,21.646 -2.598,4.912 -5.064,7.156 -7.417,6.743 -1.36,-0.698 -1.627,-3.034 -0.782,-7.004"
         id="path831" />
      <path
         inkscape:connector-curvature="0"
         style="fill:#ffffff"
         d="m 192.28,220.479 c 1.207,-0.84 2.137,-1.388 2.79,-1.644 0.533,-0.216 1.085,-0.387 1.642,-0.529 0.428,-0.117 0.872,-0.189 1.317,-0.207 1.042,-0.04 2.054,0.163 3.022,0.602 0.819,0.377 1.557,0.856 2.215,1.44 -0.761,-0.444 -2.056,-0.039 -3.854,1.196 -1.753,1.451 -3.351,3.519 -4.778,6.192 -0.545,1.066 -1.042,2.16 -1.458,3.258 -0.062,-0.718 -0.336,-1.871 -0.84,-3.438 -0.149,-0.697 -0.297,-1.461 -0.412,-2.302 -0.196,-1.19 -0.341,-2.479 -0.422,-3.86 0.239,-0.246 0.504,-0.486 0.778,-0.708"
         id="path833" />
      <path
         inkscape:connector-curvature="0"
         style="fill:#ffffff"
         d="m 191.503,221.187 c -0.016,0.009 -0.013,-0.003 -0.023,-0.019 0.248,-0.23 0.512,-0.469 0.799,-0.689 -0.273,0.222 -0.538,0.462 -0.776,0.708"
         id="path835" />
      <path
         inkscape:connector-curvature="0"
         style="fill:#ffffff"
         d="m 193.178,230.788 c 0.051,0.59 -0.063,0.893 -0.326,0.899 0.1,-0.306 0.214,-0.609 0.326,-0.899"
         id="path837" />
      <path
         inkscape:connector-curvature="0"
         style="fill:none;stroke:#003c90;stroke-width:2.1421001;stroke-linecap:round;stroke-linejoin:round;stroke-miterlimit:10"
         d="m 190.735,248.53 c -1.361,-0.698 -1.626,-3.034 -0.783,-7.004 0.695,-3.124 1.661,-6.404 2.899,-9.84 0.1,-0.306 0.215,-0.608 0.326,-0.897 0.415,-1.099 0.912,-2.192 1.458,-3.259 1.427,-2.673 3.025,-4.742 4.778,-6.192 1.797,-1.235 3.093,-1.64 3.854,-1.196 m -10.987,0.337 c -0.287,0.22 -0.552,0.459 -0.799,0.689 -0.499,0.583 -0.983,1.168 -1.445,1.774 -0.453,0.621 -0.855,1.269 -1.223,1.938 -0.4,0.688 -0.753,1.417 -1.03,2.162 -0.333,0.759 -0.631,1.542 -0.891,2.334 -0.13,0.369 -0.292,0.755 -0.456,1.156 -1.696,4.592 -3.342,8.412 -4.941,11.456 0.758,1.145 1.573,2.112 2.414,2.908 2.288,1.774 4.559,2.98 6.826,3.635 m 1.545,-28.052 c 1.207,-0.84 2.138,-1.388 2.791,-1.644 0.533,-0.216 1.084,-0.387 1.642,-0.529 0.428,-0.117 0.872,-0.189 1.317,-0.207 1.042,-0.04 2.055,0.163 3.022,0.602 0.819,0.377 1.557,0.856 2.216,1.44 m -11.765,1.046 c 0.238,-0.246 0.502,-0.486 0.776,-0.708 m -1.544,28.051 c 2.352,0.412 4.819,-1.831 7.417,-6.743 5.579,-10.558 7.284,-17.778 5.115,-21.646"
         id="path839" />
      <path
         inkscape:connector-curvature="0"
         style="fill:#2e6d2d"
         d="m 178.308,198.197 0.388,1.183 c 3.678,11.164 7.329,18.513 10.938,22.054 l 0.249,0.221 0.165,0.094 c -4.027,5.042 -5.083,13.134 -3.174,24.265 l 0.634,2.416 -2.098,-1.262 c -16.922,-9.895 -29.075,-20.91 -36.474,-33.047 l 29.372,-15.924 z m -26.066,16.584 c 6.556,9.836 17.268,19.643 32.123,29.426 -1.165,-6.083 -0.03,-13.351 3.401,-21.811 -3.531,-3.685 -7.049,-10.765 -10.567,-21.217 l -24.957,13.602 z"
         id="path841" />
      <path
         inkscape:connector-curvature="0"
         style="fill:#4daa34"
         d="m 184.366,244.207 c -14.855,-9.783 -25.567,-19.59 -32.124,-29.426 L 177.2,201.178 c 3.519,10.452 7.035,17.532 10.566,21.216 -3.43,8.461 -4.566,15.73 -3.4,21.813"
         id="path843" />
      <path
         inkscape:connector-curvature="0"
         style="fill:#004498"
         d="m 135.353,219.938 c 0.96,0.833 1.905,1.696 2.84,2.604 -2.778,2.611 -5.368,5.691 -7.739,9.23 -0.2,0.292 -0.399,0.584 -0.588,0.857 -0.507,0.926 -1.066,1.8 -1.674,2.622 -0.229,-1.283 -0.509,-2.389 -0.82,-3.33 -0.098,-0.244 -0.281,-0.338 -0.542,-0.257 -0.327,0.213 -0.573,0.47 -0.757,0.758 -0.118,0.181 -0.114,0.479 0.014,0.89 0.321,1.024 0.606,2.171 0.876,3.449 -0.742,0.83 -1.55,1.586 -2.415,2.275 l -0.016,-0.02 c 0.026,-1.253 -0.079,-2.472 -0.333,-3.654 -0.174,-0.808 -0.444,-1.599 -0.796,-2.383 -1.296,-2.875 -3.789,-5.527 -7.468,-7.953 1.741,-2.677 3.849,-5.213 6.331,-7.62 4.859,4.101 9.218,4.948 13.087,2.532"
         id="path845" />
      <path
         inkscape:connector-curvature="0"
         style="fill:#ffffff"
         d="m 123.8,239.594 -0.251,0.189 c -0.026,0.025 -0.066,0.055 -0.103,0.074 -0.076,0.05 -0.158,0.11 -0.235,0.16 l -0.082,0.059 c -0.041,0.03 -0.082,0.06 -0.128,0.075 -0.138,0.094 -0.292,0.193 -0.45,0.277 -0.149,0.089 -0.297,0.178 -0.451,0.251 l -0.604,0.3 -1.462,0.518 c -1.059,0.333 -2.138,0.45 -3.227,0.331 -0.159,-0.019 -0.312,-0.046 -0.465,-0.076 -0.035,-0.006 -0.081,-0.017 -0.117,-0.023 -0.102,-0.027 -0.215,-0.06 -0.312,-0.098 -0.025,-0.001 -0.046,-0.012 -0.066,-0.021 -0.496,-0.168 -0.977,-0.418 -1.42,-0.74 -0.011,-0.004 -0.021,-0.01 -0.025,-0.026 -0.011,-0.005 -0.031,-0.016 -0.042,-0.021 -1.636,-1.234 -2.39,-3.162 -2.26,-5.769 0.125,-2.263 0.761,-4.517 1.918,-6.754 0.579,-1.118 1.219,-2.207 1.915,-3.278 3.68,2.426 6.172,5.078 7.469,7.954 0.352,0.784 0.623,1.576 0.795,2.384 0.255,1.181 0.361,2.401 0.334,3.654 -0.244,0.206 -0.485,0.401 -0.731,0.58"
         id="path847" />
      <path
         inkscape:connector-curvature="0"
         style="fill:#ffffff"
         d="m 128.191,235.251 c 0.041,0.201 0.071,0.395 0.102,0.59 -0.25,0.266 -0.681,0.657 -1.279,1.177 -0.021,-0.087 -0.031,-0.169 -0.052,-0.256 0.435,-0.479 0.845,-0.982 1.229,-1.511"
         id="path849" />
      <path
         inkscape:connector-curvature="0"
         style="fill:#ffffff"
         d="m 126.086,233.312 c -0.128,-0.411 -0.132,-0.709 -0.014,-0.89 0.184,-0.288 0.429,-0.545 0.757,-0.758 0.261,-0.081 0.444,0.014 0.542,0.257 0.312,0.941 0.592,2.047 0.82,3.33 -0.384,0.53 -0.793,1.032 -1.229,1.51 -0.27,-1.279 -0.555,-2.426 -0.876,-3.449"
         id="path851" />
      <path
         inkscape:connector-curvature="0"
         style="fill:#ffffff"
         d="m 122.265,217.405 c 0.978,-0.937 2.011,-1.858 3.096,-2.752 0.988,-0.804 2.05,-0.738 3.206,0.196 2.325,1.478 4.589,3.179 6.786,5.089 -3.869,2.416 -8.228,1.568 -13.088,-2.533"
         id="path853" />
      <path
         inkscape:connector-curvature="0"
         style="fill:none;stroke:#003c90;stroke-width:1.84029996;stroke-linecap:round;stroke-linejoin:round;stroke-miterlimit:10"
         d="m 138.192,222.542 c -2.778,2.611 -5.368,5.691 -7.739,9.23 -0.2,0.292 -0.399,0.584 -0.588,0.857 -0.507,0.926 -1.066,1.8 -1.674,2.622 -0.384,0.53 -0.793,1.032 -1.229,1.51 -0.742,0.83 -1.551,1.586 -2.415,2.275 -0.241,0.195 -0.492,0.383 -0.748,0.558 l -0.25,0.19 c -0.026,0.025 -0.067,0.055 -0.104,0.074 -0.076,0.05 -0.158,0.111 -0.234,0.16 l -0.082,0.06 c -0.041,0.03 -0.082,0.06 -0.127,0.075 -0.139,0.094 -0.292,0.193 -0.451,0.277 -0.148,0.089 -0.297,0.177 -0.451,0.251 l -0.603,0.3 -1.463,0.518 c -1.059,0.333 -2.137,0.45 -3.227,0.332 -0.158,-0.019 -0.311,-0.046 -0.464,-0.076 -0.036,-0.005 -0.083,-0.016 -0.118,-0.023 -0.103,-0.027 -0.215,-0.06 -0.312,-0.098 -0.025,-10e-4 -0.046,-0.012 -0.066,-0.022 -0.495,-0.168 -0.977,-0.417 -1.42,-0.739 -0.009,-0.004 -0.021,-0.01 -0.025,-0.026 -0.01,-0.005 -0.031,-0.016 -0.042,-0.021 -1.635,-1.235 -2.39,-3.163 -2.259,-5.769 0.124,-2.263 0.76,-4.517 1.917,-6.754 0.579,-1.119 1.219,-2.207 1.916,-3.277 1.741,-2.677 3.849,-5.213 6.331,-7.62 0.978,-0.937 2.011,-1.858 3.096,-2.751 0.988,-0.804 2.05,-0.738 3.206,0.196 2.325,1.477 4.588,3.178 6.786,5.088 0.96,0.832 1.905,1.695 2.839,2.603 z"
         id="path855" />
      <path
         inkscape:connector-curvature="0"
         style="fill:#2e6d2d"
         d="m 160.149,220.544 -2.055,-0.108 c -2.03,8.896 -5.242,14.728 -9.646,17.489 -4.549,2.471 -10.771,1.89 -18.66,-1.732 l -0.092,-0.036 -0.237,-0.07 c -1.635,-1.511 -2.645,-3.222 -3.035,-5.141 -0.306,-3.44 0.976,-7.689 3.847,-12.764 l 0.99,0.176 c 0.03,0.942 0.392,1.718 1.106,2.315 0.538,-8.095 5.439,-13.919 14.715,-17.453 l -1.297,-1.668 -0.777,0.282 c -8.972,3.826 -13.537,8.679 -13.674,14.551 l -1.433,-0.391 -2.304,3.405 c -2.48,3.672 -3.533,7.567 -3.161,11.688 l 0.005,0.01 c 0.269,1.7 1.389,3.809 3.361,6.308 7.396,3.877 13.88,4.931 19.469,3.181 6.177,-2.856 10.462,-9.533 12.878,-20.042"
         id="path857" />
      <path
         inkscape:connector-curvature="0"
         style="fill:#4daa34"
         d="m 158.094,220.436 2.055,0.109 -9.446,-18.343 c -2.226,0.601 -3.434,0.944 -3.619,1.018 -9.277,3.534 -14.178,9.359 -14.716,17.452 -0.715,-0.596 -1.077,-1.372 -1.106,-2.314 l -0.989,-0.176 c -2.872,5.075 -4.152,9.324 -3.848,12.765 0.391,1.919 1.4,3.629 3.036,5.141 l 0.236,0.07 0.091,0.036 c 7.889,3.621 14.112,4.202 18.661,1.732 4.404,-2.763 7.615,-8.595 9.645,-17.49"
         id="path859" />
      <path
         inkscape:connector-curvature="0"
         style="fill:#004498"
         d="m 159.822,225.51 c -0.212,-0.015 -0.381,-0.113 -0.505,-0.312 -0.089,-0.157 -0.129,-0.297 -0.121,-0.41 0.029,-0.412 0.27,-0.62 0.734,-0.613 0.464,-0.006 0.673,0.236 0.641,0.699 -0.007,0.099 -0.054,0.222 -0.151,0.353 -0.141,0.203 -0.336,0.301 -0.598,0.283"
         id="path861" />
      <path
         inkscape:connector-curvature="0"
         style="fill:#4daa34"
         d="m 146.377,209.875 17.321,-2.129 1.91,15.638 -2.696,-0.053 c -1.532,0.38 -2.909,0.661 -4.114,0.852 l -0.013,0 0,0.013 -3.371,0.439 c -0.719,-2.071 -1.225,-3.614 -1.541,-4.653 -0.354,0.038 -0.908,0.062 -1.676,0.096 l -5.82,-10.203 z"
         id="path863" />
      <path
         inkscape:connector-curvature="0"
         style="fill:#2e6d2d"
         d="m 158.786,224.183 h 0.012 c 1.206,-0.191 2.582,-0.471 4.115,-0.852 -0.265,0.896 -1.099,1.68 -2.501,2.372 -0.426,0.159 -0.874,0.277 -1.321,0.384 -0.132,-0.273 -0.333,-0.626 -0.589,-1.083 -0.157,-0.25 -0.051,-0.531 0.31,-0.819 l -0.026,0.012 0,-0.014 z"
         id="path865" />
      <path
         inkscape:connector-curvature="0"
         style="fill:#f18900"
         d="m 193.318,146.42 0.612,0.139 c -0.234,-0.064 -0.44,-0.119 -0.625,-0.17 l 0.013,0.031 z"
         id="path867" />
      <path
         inkscape:connector-curvature="0"
         style="fill:#fcdf00"
         d="m 204.764,138.962 -12.072,-4.541 0.479,11.378 c 2.078,0.275 4.239,2.116 6.472,5.539 l 3.854,-3.754 c 2.71,-2.91 3.133,-5.792 1.267,-8.622"
         id="path869" />
      <path
         inkscape:connector-curvature="0"
         style="fill:#e06a06"
         d="m 199.643,151.339 0.858,1.413 c 1.19,-0.775 2.583,-1.928 4.186,-3.467 3.277,-3.552 4.014,-7.176 2.22,-10.865 l -2.144,0.542 c 1.867,2.83 1.444,5.712 -1.266,8.623 l -3.854,3.754 z"
         id="path871" />
      <path
         inkscape:connector-curvature="0"
         style="fill:#e06a06"
         d="m 190.35,133.979 c -0.019,0.01 -0.017,0.024 0.006,0.04 -0.034,0.126 -0.069,0.58 -0.099,1.365 -0.058,0.774 0.062,1.609 0.357,2.511 0.543,1.011 1.519,1.761 2.916,2.234 l 0.024,-0.017 c 0.901,0.289 1.721,0.333 2.446,0.121 0.167,0.204 0.356,0.396 0.551,0.596 l -0.011,0.014 c 1.37,1.481 2.938,1.703 4.717,0.677 0.72,1.056 1.59,1.662 2.62,1.822 0.457,0.061 0.949,0.044 1.481,-0.064 1.819,-0.529 2.844,-2.16 3.069,-4.88 l -0.001,-0.014 0.012,-0.049 c 0.114,-2.404 -1.071,-3.82 -3.552,-4.247 -0.006,-0.04 -0.019,-0.071 -0.041,-0.122 l 0.033,-0.011 c -0.32,-1.353 -1.056,-2.386 -2.203,-3.108 -1.111,-0.581 -2.114,-0.792 -2.999,-0.649 l -0.002,-0.013 c -0.551,-1.402 -1.67,-2.199 -3.356,-2.401 l -0.006,-0.04 c -3.087,-0.526 -5.078,1.551 -5.962,6.235 m 7.207,0.641 0,0 c -0.429,1.465 -0.954,2.5 -1.575,3.1 -0.157,0.121 -0.31,0.221 -0.468,0.292 -0.386,0.165 -0.82,0.167 -1.286,0.005 -1.36,-0.493 -1.966,-1.466 -1.819,-2.913 0.022,-0.079 0.022,-0.16 0.011,-0.225 0.039,-0.135 0.075,-0.284 0.09,-0.449 -0.002,-0.013 0.003,-0.02 0.009,-0.029 0.55,-3.071 1.726,-4.555 3.511,-4.457 l 0.008,0.005 -0.003,0.021 c 0.788,0.09 1.311,0.433 1.567,1.016 0.041,0.122 0.08,0.244 0.115,0.374 0.169,0.848 0.108,1.936 -0.172,3.262 l 0.011,-0.015 10e-4,0.013 z m 6.585,6.205 -0.025,0.004 c -0.421,-0.047 -0.784,-0.274 -1.081,-0.687 1.126,-1.089 1.781,-2.32 1.969,-3.679 0.806,0.291 1.215,0.89 1.21,1.784 -0.116,1.469 -0.697,2.323 -1.74,2.539 -0.09,0.026 -0.204,0.039 -0.333,0.039 m -6.014,-1.565 c -0.101,-0.086 -0.174,-0.197 -0.22,-0.311 0.745,-0.853 1.328,-2.112 1.758,-3.775 0.006,-0.008 0.022,-0.03 0.031,-0.06 0.23,-1.013 0.333,-1.931 0.318,-2.736 0.425,-0.055 0.842,0.014 1.248,0.212 0.762,0.399 1.241,1.014 1.433,1.83 0.067,0.247 0.114,0.491 0.123,0.718 l -0.008,0.077 0.013,0.031 c 0.093,1.375 -0.465,2.584 -1.679,3.634 l -0.006,0.042 c -0.025,0.017 -0.03,0.025 -0.009,0.028 l -0.032,0.012 c -0.032,0.013 -0.064,0.024 -0.096,0.035 l -0.035,0.034 c -1.113,0.877 -2.048,0.96 -2.807,0.249 l -0.032,-0.02 z"
         id="path873" />
      <path
         inkscape:connector-curvature="0"
         style="fill:#0160ad"
         d="m 197.543,134.623 0.014,-0.002 -0.014,0.002 z"
         id="path875" />
      <path
         inkscape:connector-curvature="0"
         style="fill:#fcdf00"
         d="m 197.557,134.62 -0.014,0.002 c 0.282,-1.327 0.342,-2.415 0.172,-3.262 -0.034,-0.129 -0.074,-0.251 -0.115,-0.374 -0.256,-0.582 -0.779,-0.925 -1.567,-1.016 l -0.004,-0.026 c -1.786,-0.099 -2.962,1.386 -3.512,4.457 -0.005,0.008 -0.009,0.016 -0.008,0.029 -0.014,0.165 -0.052,0.314 -0.09,0.449 0.01,0.065 0.01,0.147 -0.011,0.225 -0.146,1.448 0.458,2.42 1.819,2.914 0.466,0.162 0.899,0.16 1.287,-0.005 0.158,-0.071 0.311,-0.171 0.468,-0.292 0.622,-0.601 1.147,-1.636 1.575,-3.101"
         id="path877" />
      <polygon
         style="fill:#f18900"
         points="197.555,134.607 197.543,134.623 197.557,134.62 "
         id="polygon879" />
      <polygon
         style="fill:#0160ad"
         points="196.034,129.971 196.038,129.95 196.03,129.945 "
         id="polygon881" />
      <path
         inkscape:connector-curvature="0"
         style="fill:#fcdf00"
         d="m 204.116,140.828 0.026,-0.003 c 0.129,0 0.242,-0.012 0.332,-0.04 1.043,-0.216 1.624,-1.07 1.74,-2.539 0.005,-0.895 -0.403,-1.494 -1.21,-1.785 -0.188,1.359 -0.843,2.59 -1.969,3.68 0.298,0.414 0.66,0.64 1.081,0.687"
         id="path883" />
      <path
         inkscape:connector-curvature="0"
         style="fill:#fcdf00"
         d="m 197.908,138.949 c 0.045,0.114 0.119,0.225 0.22,0.311 l 0.031,0.021 c 0.759,0.712 1.695,0.629 2.807,-0.249 l 0.003,-0.021 0.032,-0.012 c 0.031,-0.012 0.064,-0.022 0.097,-0.036 l 0.031,-0.011 c -0.021,-0.004 -0.015,-0.012 0.009,-0.028 l 0.006,-0.042 c 1.213,-1.049 1.771,-2.258 1.679,-3.633 l -0.012,-0.032 0.007,-0.077 c -0.009,-0.229 -0.055,-0.472 -0.123,-0.718 -0.192,-0.816 -0.671,-1.431 -1.434,-1.83 -0.404,-0.199 -0.822,-0.268 -1.248,-0.213 0.014,0.805 -0.088,1.723 -0.318,2.736 -0.009,0.028 -0.025,0.051 -0.032,0.06 -0.427,1.662 -1.01,2.922 -1.755,3.774"
         id="path885" />
      <polygon
         style="fill:#d04315"
         points="200.969,139.011 200.966,139.032 201.001,138.999 "
         id="polygon887" />
      <path
         inkscape:connector-curvature="0"
         style="fill:#d04315"
         d="m 196.533,140.838 c 0.002,0.013 0.002,0.013 0.007,0.005 l 0.012,-0.015 -0.019,0.01 z"
         id="path889" />
      <path
         inkscape:connector-curvature="0"
         style="fill:#d04315"
         d="m 204.879,133.955 -0.033,0.012 0.039,0.027 c -0.003,-0.013 -0.005,-0.027 -0.006,-0.039"
         id="path891" />
      <polygon
         style="fill:#d04315"
         points="196.318,127.783 196.328,127.755 196.313,127.743 "
         id="polygon893" />
      <path
         inkscape:connector-curvature="0"
         style="fill:#e06a06"
         d="m 195.795,148.875 -0.138,-1.782 c -4.286,-0.481 -6.513,-2.216 -6.681,-5.199 l -0.002,-0.014 0.022,0.017 c -0.013,-2.228 1.042,-3.544 3.164,-3.96 l 0.063,-0.023 c 0.379,-0.089 0.804,-0.144 1.269,-0.159 1.76,0.233 2.537,1.144 2.348,2.748 -0.411,0.908 -1.688,1.302 -3.861,1.191 l -0.684,1.012 c 1.665,0.572 3.022,0.794 4.08,0.671 1.146,-0.13 1.933,-0.671 2.363,-1.622 0.33,-0.942 0.397,-1.909 0.222,-2.911 -0.211,-1.145 -0.723,-1.957 -1.516,-2.426 -1.635,-0.888 -3.58,-1.009 -5.815,-0.371 -2.587,0.853 -3.872,2.808 -3.84,5.866 l -0.032,0.012 c 0.05,4.345 3.06,6.659 9.038,6.95"
         id="path895" />
      <path
         inkscape:connector-curvature="0"
         style="fill:#0160ad"
         d="m 188.976,141.895 0.021,0.003 -0.021,-0.003 z"
         id="path897" />
      <path
         inkscape:connector-curvature="0"
         style="fill:#fcdf00"
         d="m 188.997,141.897 -0.021,-0.003 c 0.168,2.982 2.395,4.718 6.681,5.199 l 4.902,0.551 -3.852,-2.7 -1.331,-1.567 c -1.057,0.123 -2.415,-0.099 -4.08,-0.671 l 0.684,-1.012 c 2.173,0.11 3.451,-0.284 3.861,-1.192 0.188,-1.603 -0.588,-2.515 -2.348,-2.747 -0.465,0.015 -0.89,0.07 -1.269,0.159 l -0.063,0.022 c -2.123,0.417 -3.179,1.734 -3.164,3.961"
         id="path899" />
      <polygon
         style="fill:#f18900"
         points="188.974,141.881 188.976,141.895 188.996,141.897 "
         id="polygon901" />
      <path
         inkscape:connector-curvature="0"
         style="fill:#003c90"
         d="m 158.03,162.397 -0.579,-0.835 -1.41,1.403 0.589,0.831 c 6.013,8.671 13.958,13.745 23.833,15.191 l -0.045,-0.018 c 5.16,1.067 9.651,-0.113 13.471,-3.554 0.031,-0.017 0.047,-0.042 0.072,-0.073 3.144,-3.481 5.833,-7.646 8.08,-12.501 1.557,-3.332 2.899,-7.005 4.027,-11.021 0.075,-0.286 0.064,-0.564 -0.05,-0.846 -0.119,-0.262 -0.293,-0.447 -0.532,-0.533 l -17.018,-6.358 c -0.223,-0.08 -0.432,-0.063 -0.641,0.045 -0.209,0.108 -0.365,0.291 -0.459,0.527 l -4.111,10.437 c -1.984,1.771 -3.741,2.473 -5.26,2.101 -0.056,-0.012 -0.107,-0.013 -0.163,-0.025 -2.635,-0.155 -4.919,-1.195 -6.86,-3.145 l -0.692,-0.71 -1.175,1.673 0.688,0.698 c 0.151,0.153 0.311,0.299 0.472,0.447 1.07,0.984 2.229,1.751 3.472,2.287 0.065,0.037 0.142,0.068 0.217,0.099 1.153,0.469 2.379,0.743 3.679,0.824 0.634,0.186 1.294,0.219 1.97,0.107 0.062,-0.005 0.133,-0.018 0.214,-0.035 1.237,-0.232 2.573,-0.942 3.986,-2.12 0.066,-0.055 0.123,-0.104 0.189,-0.157 0.18,-0.151 0.355,-0.315 0.54,-0.485 0.124,-0.103 0.211,-0.23 0.269,-0.4 l 2.001,-5.058 1.869,-4.752 15.375,5.739 c -1.003,3.414 -2.176,6.566 -3.508,9.448 -0.027,0.062 -0.058,0.109 -0.084,0.17 -0.005,0.018 -0.021,0.043 -0.026,0.061 -1.97,4.254 -4.293,7.946 -6.98,11.084 -0.057,0.079 -0.108,0.139 -0.165,0.187 -0.161,0.199 -0.335,0.395 -0.5,0.582 -3.418,3.023 -7.43,4.072 -12.038,3.117 -0.015,-0.006 -0.024,0 -0.04,-0.006 -0.554,-0.083 -1.111,-0.177 -1.664,-0.29 -0.07,-0.018 -0.152,-0.031 -0.223,-0.049 -3.817,-0.758 -7.311,-2.126 -10.473,-4.084 -0.065,-0.037 -0.136,-0.085 -0.2,-0.123 -3.414,-2.141 -6.452,-4.988 -9.121,-8.518 -0.347,-0.445 -0.671,-0.904 -0.996,-1.362"
         id="path903" />
      <path
         inkscape:connector-curvature="0"
         style="fill:#df6513"
         d="m 157.451,161.562 0.579,0.835 c 0.325,0.458 0.649,0.917 0.993,1.363 2.669,3.53 5.708,6.376 9.121,8.518 l 5.592,-13.859 c -1.243,-0.536 -2.403,-1.303 -3.472,-2.287 -0.162,-0.148 -0.321,-0.294 -0.472,-0.447 l -0.688,-0.698 c -3.974,-3.592 -7.307,-4.03 -10.004,-1.325 -2.27,2.377 -2.827,5.015 -1.649,7.9"
         id="path905" />
      <path
         inkscape:connector-curvature="0"
         style="fill:#9ac843"
         d="m 168.144,172.278 c 0.066,0.037 0.137,0.085 0.201,0.123 3.162,1.958 6.656,3.327 10.474,4.084 0.07,0.018 0.152,0.031 0.221,0.048 l 0.801,-17 -0.233,-0.014 -0.004,-0.072 c -0.677,0.112 -1.337,0.079 -1.971,-0.108 -1.299,-0.08 -2.525,-0.354 -3.679,-0.823 -0.075,-0.03 -0.151,-0.062 -0.216,-0.099 l -5.594,13.861 z"
         id="path907" />
      <path
         inkscape:connector-curvature="0"
         style="fill:#0e5cab"
         d="m 179.816,159.412 0.024,0.122 -0.801,17 c 0.553,0.113 1.111,0.208 1.665,0.29 0.015,0.007 0.024,0 0.04,0.007 4.607,0.954 8.62,-0.094 12.037,-3.117 0.165,-0.188 0.34,-0.382 0.5,-0.582 l -9.479,-15.839 c -1.413,1.178 -2.747,1.888 -3.986,2.119"
         id="path909" />
      <path
         inkscape:connector-curvature="0"
         style="fill:#9ac843"
         d="m 184.801,156.251 c -0.057,0.17 -0.146,0.297 -0.269,0.4 -0.184,0.169 -0.359,0.333 -0.539,0.485 -0.068,0.053 -0.124,0.102 -0.19,0.157 l 9.478,15.837 c 0.057,-0.048 0.108,-0.108 0.166,-0.187 2.688,-3.138 5.011,-6.83 6.98,-11.084 0.005,-0.019 0.021,-0.043 0.026,-0.061 0.026,-0.061 0.057,-0.108 0.083,-0.17 l -13.735,-10.436 -2,5.059 z"
         id="path911" />
      <path
         inkscape:connector-curvature="0"
         style="fill:#df6513"
         d="m 188.671,146.44 -1.869,4.753 13.735,10.436 c 1.333,-2.884 2.506,-6.035 3.509,-9.449 l -15.375,-5.74 z"
         id="path913" />
      <path
         inkscape:connector-curvature="0"
         style="fill:#df6513"
         d="m 128.514,157.935 -0.767,-5.611 5.954,-0.523 5.434,32.785 c 1.455,11.043 1.265,21.693 -0.598,31.924 -0.116,-0.04 -0.954,-0.279 -2.515,-0.707 -1.536,-0.442 -2.946,-1.209 -4.22,-2.289 2.496,-7.742 2.551,-16.36 0.154,-25.854 -3.992,-11.86 -5.139,-21.764 -3.442,-29.725"
         id="path915" />
      <path
         inkscape:connector-curvature="0"
         style="fill:#9ac843"
         d="m 141.029,151.158 7.604,-0.667 c 8.405,21.503 11.596,43.779 9.56,66.815 -0.165,10e-4 -0.315,0.015 -0.465,0.028 -2.021,0.089 -4.097,0.108 -6.229,0.07 -1.085,-0.017 -2.185,-0.059 -3.296,-0.099 1.353,-9.686 1.489,-20.53 0.431,-32.549 -1.128,-10.583 -3.666,-21.782 -7.605,-33.598"
         id="path917" />
      <path
         inkscape:connector-curvature="0"
         style="fill:#0e5cab"
         d="m 133.701,151.801 7.328,-0.644 c 3.938,11.817 6.478,23.015 7.605,33.599 1.058,12.018 0.921,22.863 -0.432,32.548 -0.114,-0.003 -0.216,-0.019 -0.316,-0.022 -2.391,-0.117 -4.85,-0.302 -7.379,-0.557 -0.621,-0.059 -1.27,-0.126 -1.931,-0.207 -0.014,-0.011 -0.026,-0.01 -0.04,-0.009 1.862,-10.23 2.052,-20.88 0.597,-31.924 l -5.432,-32.784 z"
         id="path919" />
      <path
         inkscape:connector-curvature="0"
         style="fill:#9ac843"
         d="m 169.207,148.685 0.783,5.799 c 11.997,15.435 16.316,34.289 12.93,56.552 -1.262,0.875 -2.76,1.659 -4.505,2.339 -0.329,0.129 -0.647,0.258 -0.965,0.374 1.916,-22.687 -2.736,-44.207 -13.957,-64.562 l 5.714,-0.502 z"
         id="path921" />
      <path
         inkscape:connector-curvature="0"
         style="fill:#0e5cab"
         d="m 156.163,149.829 7.329,-0.642 c 11.221,20.354 15.873,41.875 13.958,64.561 -2.092,0.76 -4.318,1.406 -6.68,1.939 -0.706,0.163 -1.436,0.315 -2.167,0.455 1.834,-20.008 -2.312,-42.113 -12.44,-66.313"
         id="path923" />
      <path
         inkscape:connector-curvature="0"
         style="fill:#df6513"
         d="m 162.175,217.031 c -0.137,0.012 -0.287,0.025 -0.425,0.038 -0.737,0.063 -1.477,0.117 -2.215,0.169 -0.439,0.025 -0.891,0.041 -1.342,0.068 2.037,-23.036 -1.154,-45.312 -9.558,-66.816 l 7.529,-0.661 c 10.127,24.2 14.274,46.304 12.439,66.312 -2.048,0.381 -4.19,0.68 -6.428,0.89"
         id="path925" />
      <path
         inkscape:connector-curvature="0"
         style="fill:#df6513"
         d="m 157.735,217.42 -0.006,-0.086 c 0.149,-0.013 0.3,-0.026 0.463,-0.028 l 0.007,0.074 c -0.014,-0.012 -0.027,-0.01 -0.038,0.002 -0.138,0.013 -0.288,0.027 -0.426,0.038"
         id="path927" />
      <path
         inkscape:connector-curvature="0"
         style="fill:#df6513"
         d="m 159.535,217.238 c -0.449,0.051 -0.899,0.091 -1.336,0.142 l -0.006,-0.074 c 0.451,-0.028 0.903,-0.042 1.342,-0.068"
         id="path929" />
      <path
         inkscape:connector-curvature="0"
         style="fill:none;stroke:#060f32;stroke-width:0.25099999;stroke-linecap:square;stroke-miterlimit:10"
         d="m 177.461,213.896 c -0.004,-0.049 -0.008,-0.1 -0.012,-0.148 m -19.256,3.558 0.005,0.075 m 10.43,-0.929 c -0.022,-0.111 -0.03,-0.21 -0.026,-0.311"
         id="path931" />
      <path
         inkscape:connector-curvature="0"
         style="fill:none;stroke:#003c90;stroke-width:2.0085001;stroke-linecap:square;stroke-miterlimit:10"
         d="m 128.514,157.935 c -1.697,7.961 -0.55,17.865 3.442,29.727 2.397,9.494 2.342,18.112 -0.154,25.854 1.274,1.08 2.685,1.846 4.22,2.289 1.561,0.427 2.398,0.667 2.515,0.707 0.013,-0.001 0.026,-0.002 0.04,0.009 0.661,0.081 1.31,0.148 1.932,0.207 2.528,0.255 4.988,0.439 7.378,0.556 0.101,0.004 0.203,0.02 0.316,0.022 1.113,0.041 2.212,0.083 3.297,0.1 2.132,0.039 4.208,0.02 6.229,-0.07 0.15,-0.013 0.3,-0.026 0.464,-0.028 0.451,-0.027 0.903,-0.042 1.342,-0.068 0.739,-0.052 1.479,-0.105 2.216,-0.169 0.138,-0.012 0.287,-0.026 0.425,-0.037 2.237,-0.21 4.38,-0.51 6.426,-0.89 0.732,-0.14 1.461,-0.292 2.167,-0.455 2.361,-0.533 4.588,-1.18 6.68,-1.939 0.317,-0.116 0.636,-0.244 0.964,-0.374 1.747,-0.68 3.244,-1.462 4.506,-2.338 3.386,-22.263 -0.932,-41.117 -12.929,-56.551 l -0.783,-5.8 -5.715,0.501 -7.329,0.642 -7.529,0.663 -7.604,0.667 -7.329,0.644 -5.954,0.523 0.767,5.608 z"
         id="path933" />
      <path
         inkscape:connector-curvature="0"
         style="fill:#ffffff"
         d="m 168.89,154.895 c 0.844,7.611 -0.33,15.049 -3.533,22.327 -4.713,-7.173 -11.026,-13.151 -18.918,-17.937 l 22.451,-4.39 z"
         id="path935" />
      <path
         inkscape:connector-curvature="0"
         style="fill:#fcdf00"
         d="m 105.911,189.321 1.939,1.017 -0.181,1.79 1.496,2.329 1.354,2.225 c 1.085,1.624 1.23,3.292 0.438,4.996 -0.351,0.931 -1.008,1.657 -1.973,2.188 0.263,-0.812 0.419,-1.651 0.484,-2.506 l -0.665,-0.28 c -2.312,4.789 -4.261,7.209 -5.848,7.264 -0.956,-0.045 -1.62,-0.221 -1.986,-0.518 -0.518,-0.44 -0.87,-1.188 -1.039,-2.227 l -0.122,-0.725 -0.864,-0.209 c -1.735,-0.318 -2.549,-1.964 -2.439,-4.92 l 0.056,-0.355 -0.188,-0.258 c -1.087,-1.833 -1.194,-3.784 -0.329,-5.839 0.476,-1.116 1.262,-2.082 2.378,-2.895 1.236,-0.913 2.642,-1.422 4.201,-1.55 1.158,-0.176 2.254,-0.019 3.288,0.473"
         id="path937" />
      <path
         inkscape:connector-curvature="0"
         style="fill:#e06a06"
         d="m 106.339,187.815 -0.428,1.507 c -1.034,-0.492 -2.13,-0.65 -3.286,-0.473 -1.559,0.127 -2.964,0.636 -4.201,1.55 -1.116,0.813 -1.903,1.779 -2.378,2.895 -0.866,2.054 -0.758,4.005 0.329,5.839 l 0.187,0.258 -0.056,0.354 c -0.111,2.957 0.704,4.603 2.44,4.92 l 0.863,0.209 0.121,0.725 c 0.169,1.04 0.521,1.788 1.039,2.228 0.367,0.296 1.031,0.472 1.986,0.517 1.588,-0.054 3.536,-2.475 5.847,-7.263 l 0.665,0.28 c -0.064,0.855 -0.221,1.694 -0.484,2.506 0.965,-0.531 1.623,-1.256 1.973,-2.188 0.792,-1.704 0.647,-3.373 -0.438,-4.996 l -1.354,-2.225 1.251,-1.393 c 1.217,1.45 2.087,2.741 2.593,3.87 0.532,1.108 0.741,2.14 0.638,3.098 -0.112,1.174 -0.605,2.284 -1.47,3.334 -1.297,1.391 -2.624,2.176 -3.975,2.377 -0.733,1.407 -1.783,2.759 -3.137,4.04 -1.98,1.322 -3.857,1.223 -5.625,-0.297 -0.766,-0.583 -1.292,-1.489 -1.59,-2.724 -2.466,-0.568 -3.646,-2.833 -3.553,-6.796 -1.394,-2.465 -1.588,-4.771 -0.583,-6.92 0.591,-1.265 1.701,-2.591 3.329,-3.979 1.518,-1.295 3.333,-2.025 5.441,-2.188 1.637,0.016 2.919,0.326 3.856,0.935"
         id="path939" />
      <path
         inkscape:connector-curvature="0"
         style="fill:#003c90"
         d="m 133.1,162.5 c 0.358,0.059 0.709,0.127 1.071,0.204 l 0.002,-2.021 c -0.674,-0.13 -1.352,-0.232 -2.036,-0.325 -0.348,-0.049 -0.701,-0.073 -1.058,-0.067 -4.536,0.066 -8.861,0.889 -12.985,2.456 -0.294,0.1 -0.575,0.226 -0.846,0.36 -3.094,1.582 -5.88,3.574 -8.35,5.965 -0.426,0.402 -0.849,0.823 -1.262,1.253 -0.397,0.409 -0.773,0.835 -1.149,1.259 -0.369,0.417 -0.725,0.857 -1.073,1.29 -2.893,3.667 -4.957,7.787 -6.176,12.339 -0.175,0.646 -0.301,1.293 -0.364,1.946 -0.045,0.433 0.112,0.817 0.459,1.131 l 15.796,13.48 c 0.228,0.207 0.481,0.294 0.767,0.249 0.153,-0.022 0.287,-0.09 0.402,-0.173 0.165,-0.106 0.627,-1.104 1.399,-2.968 0.78,-1.872 1.649,-3.707 2.617,-5.499 0.964,-1.807 2.117,-3.75 3.437,-5.845 1.327,-2.105 2.948,-3.673 4.877,-4.722 1.746,-0.942 4.814,-1.176 9.18,-0.689 l -0.31,-1.919 c -1.195,-0.128 -2.051,-0.196 -2.55,-0.223 -0.73,-0.034 -1.163,-0.04 -1.295,-0.018 -1.417,-0.082 -2.7,0.035 -3.829,0.347 l -0.247,0.06 c -0.229,0.057 -0.454,0.132 -0.69,0.199 -1.604,0.538 -3.027,1.385 -4.25,2.543 l -0.189,0.181 -3.808,5.498 -3.506,6.462 -1.824,4.072 -14.41,-12.288 c 0.158,-0.578 0.309,-1.147 0.466,-1.726 0.494,-1.72 1.116,-3.388 1.895,-4.997 l 0.115,-0.237 c 0.423,-0.795 0.868,-1.571 1.323,-2.342 1.066,-1.808 2.287,-3.511 3.659,-5.084 l 0.171,-0.179 c 0.786,-0.872 1.617,-1.695 2.501,-2.476 1.703,-1.52 3.503,-2.885 5.398,-4.086 l 0.216,-0.128 c 1.02,-0.584 2.082,-1.073 3.17,-1.463 2.065,-0.743 4.229,-1.267 6.479,-1.572 l 0.243,-0.031 c 0.892,-0.09 1.781,-0.199 2.671,-0.306 1.293,-0.155 2.592,-0.118 3.893,0.09"
         id="path941" />
      <path
         inkscape:connector-curvature="0"
         style="fill:#df6513"
         d="m 134.171,162.704 c -0.362,-0.077 -0.712,-0.145 -1.071,-0.204 -1.301,-0.208 -2.6,-0.245 -3.894,-0.091 -0.889,0.108 -1.778,0.216 -2.671,0.306 l 3.288,17.595 c 1.129,-0.312 2.412,-0.43 3.829,-0.348 l 0.519,-17.258 z"
         id="path943" />
      <path
         inkscape:connector-curvature="0"
         style="fill:#9ac843"
         d="m 126.535,162.715 -0.242,0.031 c -2.249,0.306 -4.415,0.83 -6.48,1.572 -1.089,0.391 -2.151,0.879 -3.17,1.464 l -0.216,0.127 8.019,17.383 0.189,-0.181 c 1.223,-1.159 2.646,-2.006 4.25,-2.544 0.237,-0.066 0.463,-0.142 0.69,-0.199 l 0.248,-0.06 -3.288,-17.593 z"
         id="path945" />
      <path
         inkscape:connector-curvature="0"
         style="fill:#0e5cab"
         d="m 120.638,188.79 3.808,-5.497 -8.019,-17.383 c -1.894,1.202 -3.696,2.567 -5.398,4.086 -0.884,0.781 -1.715,1.604 -2.501,2.476 l 12.11,16.318 z"
         id="path947" />
      <path
         inkscape:connector-curvature="0"
         style="fill:#df6513"
         d="m 115.307,199.323 1.825,-4.07 -13.873,-14.938 c -0.78,1.609 -1.402,3.276 -1.896,4.996 -0.157,0.578 -0.307,1.148 -0.465,1.726 l 14.409,12.286 z"
         id="path949" />
      <path
         inkscape:connector-curvature="0"
         style="fill:#9ac843"
         d="m 117.132,195.252 3.505,-6.462 -12.11,-16.318 -0.17,0.179 c -1.372,1.572 -2.594,3.275 -3.66,5.083 -0.455,0.771 -0.899,1.547 -1.323,2.341 l -0.114,0.238 13.872,14.939 z"
         id="path951" />
      <path
         inkscape:connector-curvature="0"
         style="fill:#ffffff"
         d="m 166.609,158.995 c 0.509,-0.326 0.993,-0.65 1.476,-0.974 0.507,-0.339 0.995,-0.712 1.438,-1.117 0.326,-0.283 0.623,-0.588 0.888,-0.925 0.038,-0.069 0.075,-0.139 0.125,-0.212 0.426,-0.618 0.728,-1.292 0.934,-2 0.131,-0.441 0.251,-0.87 0.344,-1.305 l -0.003,-0.011 c 0.067,-0.838 0.023,-1.785 -0.118,-2.841 -0.239,-2.671 -0.772,-5.086 -1.603,-7.263 l -46.452,7.781 c 0.023,0.314 0.058,0.627 0.106,0.936 0.347,2.511 1.157,5.175 2.453,7.985 1.043,1.898 2.243,3.097 3.623,3.591 0.919,0.341 1.722,0.614 2.388,0.833 0.444,0.129 0.898,0.244 1.354,0.358 1.067,0.254 2.161,0.453 3.281,0.583 1.198,0.144 2.388,0.25 3.582,0.304 1.171,0.071 2.355,0.075 3.53,0.032 2.243,-0.044 4.461,-0.214 6.659,-0.493 0.878,-0.121 1.743,-0.253 2.616,-0.412 0.318,-0.066 0.637,-0.12 0.971,-0.175 0.889,-0.201 1.791,-0.403 2.696,-0.592 1.228,-0.296 2.453,-0.666 3.649,-1.121 0.389,-0.154 0.776,-0.32 1.167,-0.476 1.681,-0.701 3.315,-1.522 4.896,-2.486"
         id="path953" />
      <path
         inkscape:connector-curvature="0"
         style="fill:none;stroke:#003c90;stroke-width:2.02880001;stroke-linecap:round;stroke-linejoin:round;stroke-miterlimit:10"
         d="m 171.814,152.462 -0.003,-0.012 c 0.066,-0.838 0.022,-1.784 -0.119,-2.841 -0.239,-2.67 -0.772,-5.086 -1.602,-7.263 l -46.453,7.782 c 0.023,0.314 0.058,0.627 0.106,0.936 0.348,2.513 1.158,5.176 2.454,7.985 1.043,1.899 2.243,3.098 3.623,3.591 0.918,0.341 1.722,0.615 2.388,0.833 0.445,0.129 0.899,0.244 1.354,0.359 1.066,0.254 2.16,0.453 3.28,0.583 1.197,0.143 2.388,0.249 3.581,0.303 1.172,0.071 2.356,0.076 3.53,0.032 2.243,-0.045 4.461,-0.213 6.658,-0.492 0.878,-0.122 1.744,-0.253 2.616,-0.413 0.318,-0.066 0.638,-0.12 0.972,-0.175 0.889,-0.2 1.792,-0.402 2.696,-0.592 1.227,-0.296 2.453,-0.665 3.65,-1.12 0.388,-0.154 0.776,-0.321 1.166,-0.476 1.682,-0.701 3.316,-1.521 4.898,-2.487 0.508,-0.326 0.992,-0.65 1.476,-0.973 0.508,-0.338 0.995,-0.713 1.438,-1.118 0.326,-0.284 0.623,-0.587 0.889,-0.924 m -0.001,-10e-4 c 0.038,-0.07 0.075,-0.14 0.124,-0.212 0.427,-0.618 0.729,-1.292 0.935,-2 0.13,-0.442 0.251,-0.87 0.344,-1.306 m -1.403,3.518 c 0.198,-0.224 0.379,-0.471 0.545,-0.727 0.482,-0.73 0.757,-1.667 0.857,-2.791"
         id="path955" />
      <path
         inkscape:connector-curvature="0"
         style="fill:#fcdf00"
         d="m 124.359,69.198 c -1.131,0.287 -2.253,0.705 -3.354,1.222 -6.432,2.807 -10.904,8.769 -13.421,17.873 -0.023,0.049 -0.03,0.104 -0.04,0.147 -2.041,7.779 -2.848,15.592 -2.408,23.446 0.092,1.066 0.209,2.125 0.337,3.181 0.049,0.393 0.114,0.794 0.162,1.188 0.853,6.233 2.329,12.135 4.436,17.691 1.101,2.615 2.401,5.198 3.915,7.743 3.258,5.579 7.787,9.797 13.584,12.67 7.479,3.529 15.926,3.484 25.358,-0.126 9.813,-3.321 16.479,-8.72 19.979,-16.202 2.645,-5.914 3.446,-12.054 2.385,-18.423 -0.457,-2.927 -1.09,-5.75 -1.896,-8.47 -1.931,-5.62 -4.569,-11.103 -7.887,-16.448 -0.202,-0.338 -0.408,-0.688 -0.621,-1.022 -0.574,-0.896 -1.159,-1.785 -1.757,-2.67 -4.667,-6.81 -10.271,-12.312 -16.814,-16.522 -0.048,-0.022 -0.089,-0.061 -0.125,-0.087 -7.781,-5.436 -15.05,-7.17 -21.833,-5.191"
         id="path957" />
      <path
         inkscape:connector-curvature="0"
         style="fill:none;stroke:#e06a06;stroke-width:1.99699998;stroke-linecap:round;stroke-linejoin:round;stroke-miterlimit:10"
         d="m 121.005,70.419 c -6.431,2.808 -10.903,8.769 -13.421,17.874 -0.022,0.048 -0.03,0.103 -0.04,0.147 -2.041,7.78 -2.848,15.592 -2.408,23.446 0.093,1.067 0.209,2.127 0.337,3.182 0.05,0.393 0.114,0.794 0.163,1.188 0.852,6.233 2.327,12.135 4.435,17.69 1.101,2.615 2.402,5.198 3.916,7.743 3.257,5.579 7.788,9.798 13.585,12.672 7.478,3.528 15.925,3.483 25.357,-0.127 9.814,-3.321 16.479,-8.72 19.979,-16.202 2.645,-5.915 3.446,-12.053 2.385,-18.423 -0.458,-2.926 -1.089,-5.75 -1.896,-8.47 -1.932,-5.619 -4.57,-11.102 -7.888,-16.448 -0.202,-0.338 -0.407,-0.688 -0.621,-1.023 -0.574,-0.895 -1.16,-1.784 -1.758,-2.67 -4.667,-6.81 -10.271,-12.311 -16.814,-16.522 -0.047,-0.022 -0.088,-0.061 -0.125,-0.087 -7.781,-5.435 -15.052,-7.168 -21.833,-5.19 -1.129,0.286 -2.252,0.704 -3.353,1.22 z"
         id="path959" />
      <path
         inkscape:connector-curvature="0"
         style="fill:#fcdf00"
         d="m 112.982,121.767 1.092,-0.393 c -2.291,-1.391 -4.502,-1.708 -6.639,-0.938 -2.348,0.845 -3.933,2.743 -4.743,5.688 -0.809,2.944 -0.625,6.075 0.568,9.386 1.192,3.312 3.046,5.841 5.547,7.593 2.501,1.752 4.932,2.203 7.281,1.358 2.336,-0.843 3.921,-2.74 4.743,-5.69 0.04,-0.146 0.081,-0.293 0.116,-0.453 l -1.773,0.639 -6.192,-17.19 z"
         id="path961" />
      <path
         inkscape:connector-curvature="0"
         style="fill:none;stroke:#e06a06;stroke-width:1.99699998;stroke-linecap:square;stroke-linejoin:round;stroke-miterlimit:10"
         d="m 120.947,138.318 c -0.035,0.159 -0.075,0.308 -0.115,0.453 -0.821,2.95 -2.406,4.847 -4.743,5.689 -2.349,0.845 -4.779,0.394 -7.281,-1.358 -2.501,-1.751 -4.354,-4.282 -5.547,-7.593 -1.193,-3.311 -1.377,-6.442 -0.568,-9.386 0.811,-2.944 2.396,-4.842 4.744,-5.688 2.137,-0.77 4.348,-0.452 6.639,0.939"
         id="path963" />
      <path
         inkscape:connector-curvature="0"
         style="fill:#282525"
         d="m 117.887,42.813 c 0.179,0.532 0.329,1.247 0.445,2.12 0.279,1.77 0.245,3.481 -0.114,5.136 -0.268,1.17 -0.544,2.172 -0.837,2.98 -0.515,-0.397 -0.956,-0.703 -1.308,-0.908 -1.205,-0.694 -2.876,-1.206 -5.012,-1.538 -0.955,-0.147 -2.327,-0.237 -4.104,-0.272 -1.718,-0.019 -2.526,0.021 -2.429,0.105 0.352,0.351 0.745,0.634 1.181,0.848 2.011,1.57 3.703,3.323 5.068,5.232 0.658,0.943 1.239,2.113 1.742,3.511 -1.599,-0.021 -2.801,-0.119 -3.599,-0.269 -1.305,-0.233 -2.563,-0.669 -3.781,-1.292 -1.244,-0.652 -2.309,-1.437 -3.183,-2.355 -0.227,-0.223 -0.033,0.794 0.57,3.058 0.607,2.237 1.382,3.763 2.313,4.581 -1.434,-10e-4 -2.732,0.188 -3.888,0.55 -1.284,0.41 -2.277,1.006 -2.965,1.785 l 3.245,1.351 c 2.438,1.02 4.092,1.857 4.964,2.511 0.752,0.578 1.972,1.756 3.661,3.537 -0.498,0.126 -1.092,0.248 -1.761,0.342 -1.318,0.17 -3.5,-0.25 -6.56,-1.272 -1.521,-0.5 -2.891,-0.988 -4.085,-1.473 1.4,1.975 2.445,3.325 3.128,4.046 1.214,1.274 2.624,2.239 4.199,2.892 0.702,0.292 1.462,0.521 2.259,0.672 -0.662,0.079 -1.33,0.213 -2.004,0.403 -1.418,0.445 -2.556,0.935 -3.424,1.472 -1.064,0.688 -1.905,1.562 -2.526,2.635 -0.022,0.047 1.137,-0.198 3.457,-0.715 1.488,-0.325 2.762,-0.544 3.817,-0.671 1.475,-0.067 2.614,-0.107 3.428,-0.095 0.813,0.012 1.331,0.012 1.58,0.001 0.236,-0.005 0.757,0.006 1.56,0.022 0.802,0.016 2.18,-0.283 4.133,-0.866 1.951,-0.583 3.422,-1.325 4.423,-2.229 1,-0.904 1.748,-1.665 2.254,-2.284 0.411,-0.48 0.75,-0.867 1.015,-1.162 l -0.047,-0.023 c 0.137,-0.169 0.264,-0.333 0.39,-0.498 0.04,-10e-4 0.071,0.014 0.11,0.013 0.032,-0.025 0.046,-0.057 0.077,-0.081 1.633,0.406 3.389,0.385 5.289,-0.047 2.643,-0.62 4.02,-1.993 4.134,-4.142 0.684,0.243 1.454,0.392 2.307,0.44 0.364,0.017 0.921,0.055 1.652,0.096 1.202,0.059 2.314,-0.169 3.355,-0.704 1.399,-0.57 2.395,-1.565 3.012,-2.981 0.072,-0.133 0.144,-0.265 0.223,-0.412 0.78,-1.409 1.758,-4.547 2.934,-9.388 -0.836,0.885 -1.522,1.557 -2.083,2.025 -0.731,0.622 -1.521,1.118 -2.349,1.508 -1.31,0.632 -2.646,1.086 -3.993,1.359 l 0.28,-0.473 c 1.687,-3.088 1.483,-6.49 -0.608,-10.234 -1.072,2.734 -3.201,5 -6.392,6.786 0.171,-0.591 0.32,-1.031 0.427,-1.32 1.248,-3.315 1.104,-6.474 -0.44,-9.473 -0.785,-1.481 -1.68,-2.604 -2.693,-3.354 0.033,4.034 -0.446,6.754 -1.439,8.16 -0.5,0.711 -1.275,1.467 -2.314,2.265 -0.174,-1.516 -0.516,-3.09 -1.013,-4.729 -0.945,-3.068 -2.505,-5.186 -4.668,-6.331 -1.072,-0.582 -2.079,-0.87 -3.013,-0.851"
         id="path965" />
      <path
         inkscape:connector-curvature="0"
         style="fill:#d8272a"
         d="m 138.417,138.346 c 2.031,1.167 4.132,2.005 6.323,2.5 2.2,0.491 4.362,0.592 6.503,0.312 1.936,-0.239 3.819,-0.684 5.665,-1.328 1.741,-0.644 3.402,-1.47 4.966,-2.498 0.724,-0.471 1.496,-1.137 2.312,-1.969 -9.286,5.5 -18.989,5.512 -29.09,0.027 0.505,0.992 1.607,1.984 3.321,2.956"
         id="path967" />
      <path
         inkscape:connector-curvature="0"
         style="fill:#ffffff"
         d="m 158.156,90.846 c -2.133,-1.394 -4.083,-1.686 -5.828,-0.898 -1.734,0.783 -2.749,2.423 -3.048,4.905 -0.305,2.471 0.196,5.077 1.497,7.806 1.289,2.732 3.008,4.779 5.153,6.168 2.134,1.395 4.083,1.687 5.83,0.899 1.734,-0.784 2.749,-2.423 3.049,-4.906 0.311,-2.485 -0.194,-5.103 -1.507,-7.827 -1.289,-2.733 -3.008,-4.78 -5.146,-6.147"
         id="path969" />
      <path
         inkscape:connector-curvature="0"
         style="fill:#ffffff"
         d="m 141.117,97.236 c -2.655,-1.365 -5.351,-1.561 -8.092,-0.588 -2.74,0.974 -4.724,2.83 -5.93,5.559 -1.21,2.718 -1.312,5.527 -0.28,8.431 1.033,2.905 2.866,5.044 5.523,6.422 2.666,1.361 5.375,1.553 8.115,0.579 2.729,-0.97 4.702,-2.821 5.907,-5.55 1.229,-2.737 1.328,-5.559 0.295,-8.464 -1.032,-2.904 -2.872,-5.027 -5.538,-6.389"
         id="path971" />
      <path
         inkscape:connector-curvature="0"
         style="fill:#1c1616"
         d="m 136.144,105.384 c 0.568,-1.37 1.504,-2.323 2.837,-2.856 1.332,-0.534 2.667,-0.489 4.023,0.112 1.342,0.632 2.299,1.646 2.86,3.049 0.562,1.401 0.568,2.796 0.024,4.158 -0.559,1.392 -1.495,2.345 -2.828,2.878 -1.333,0.533 -2.667,0.488 -4.032,-0.135 -1.333,-0.609 -2.291,-1.624 -2.851,-3.025 -0.561,-1.402 -0.568,-2.798 -0.033,-4.181"
         id="path973" />
      <path
         inkscape:connector-curvature="0"
         style="fill:#1c1616"
         d="m 160.055,96.019 c -1.096,-0.728 -2.147,-0.943 -3.168,-0.626 -1.021,0.316 -1.709,1.069 -2.087,2.254 -0.353,1.202 -0.275,2.485 0.235,3.847 0.511,1.362 1.314,2.419 2.393,3.152 1.104,0.751 2.156,0.966 3.176,0.649 1.021,-0.317 1.709,-1.069 2.08,-2.277 0.36,-1.18 0.283,-2.461 -0.227,-3.824 -0.511,-1.361 -1.314,-2.419 -2.402,-3.175"
         id="path975" />
      <path
         inkscape:connector-curvature="0"
         style="fill:none;stroke:#282525;stroke-width:5.56559992;stroke-linecap:round;stroke-miterlimit:10"
         d="M 119.084,97.588 C 130.797,86.654 142.35,81.425 153.762,81.893"
         id="path977" />
      <path
         inkscape:connector-curvature="0"
         style="fill:#e48300"
         d="m 169.564,113.827 c -1.859,-4.094 -4.541,-7.12 -8.061,-9.048 -3.541,-1.948 -6.888,-2.256 -10.038,-0.909 -3.154,1.336 -5.177,3.934 -6.087,7.777 -0.915,3.833 -0.441,7.801 1.417,11.893 1.86,4.093 4.541,7.12 8.07,9.072 3.524,1.941 6.855,2.241 10.006,0.893 3.153,-1.334 5.191,-3.926 6.119,-7.761 0.91,-3.845 0.433,-7.824 -1.426,-11.917"
         id="path979" />
    </g>
  </g>
</svg>
