<?xml version="1.0" encoding="UTF-8" standalone="no"?>
<!-- Created with Inkscape (http://www.inkscape.org/) -->

<svg
   xmlns:dc="http://purl.org/dc/elements/1.1/"
   xmlns:cc="http://creativecommons.org/ns#"
   xmlns:rdf="http://www.w3.org/1999/02/22-rdf-syntax-ns#"
   xmlns:svg="http://www.w3.org/2000/svg"
   xmlns="http://www.w3.org/2000/svg"
   xmlns:sodipodi="http://sodipodi.sourceforge.net/DTD/sodipodi-0.dtd"
   xmlns:inkscape="http://www.inkscape.org/namespaces/inkscape"
   width="139.23401"
   height="210.23997"
   id="svg5696"
   version="1.1"
   inkscape:version="0.48.4 r9939"
   sodipodi:docname="bert13.svg">
  <defs
     id="defs5698" />
  <sodipodi:namedview
     id="base"
     pagecolor="#ffffff"
     bordercolor="#666666"
     borderopacity="1.0"
     inkscape:pageopacity="0.0"
     inkscape:pageshadow="2"
     inkscape:zoom="0.77472527"
     inkscape:cx="-50.022147"
     inkscape:cy="37.538727"
     inkscape:current-layer="layer1"
     inkscape:document-units="px"
     showgrid="false"
     inkscape:window-width="942"
     inkscape:window-height="591"
     inkscape:window-x="412"
     inkscape:window-y="91"
     inkscape:window-maximized="0"
     fit-margin-top="0"
     fit-margin-left="0"
     fit-margin-right="0"
     fit-margin-bottom="0" />
  <metadata
     id="metadata5701">
    <rdf:RDF>
      <cc:Work
         rdf:about="">
        <dc:format>image/svg+xml</dc:format>
        <dc:type
           rdf:resource="http://purl.org/dc/dcmitype/StillImage" />
        <dc:title></dc:title>
      </cc:Work>
    </rdf:RDF>
  </metadata>
  <g
     id="layer1"
     inkscape:label="Layer 1"
     inkscape:groupmode="layer"
     transform="translate(-281.65193,87.59489)">
    <g
       transform="translate(-357.33843,-599.73189)"
       id="g981">
      <path
         inkscape:connector-curvature="0"
         style="fill:#e06a06"
         d="m 639.875,638.82 c 0.05,-0.064 0.102,-0.127 0.156,-0.176 1.96,-1.848 5.463,-2.576 10.512,-2.156 -1.105,-1.477 -1.506,-2.984 -1.211,-4.498 0.014,-0.045 0.025,-0.09 0.039,-0.137 0.623,-1.986 2.089,-2.754 4.38,-2.289 1.892,0.381 3.681,1.34 5.35,2.879 1.485,1.354 2.882,3.037 4.212,5.07 l 4.493,-0.723 c 0.161,-0.027 0.31,-0.008 0.466,0.043 0.15,0.061 0.283,0.152 0.384,0.275 2.427,2.908 3.386,6.518 2.887,10.832 -0.026,0.184 -0.1,0.354 -0.228,0.506 -0.121,0.141 -0.281,0.234 -0.466,0.273 l -3.991,1.027 c -2.072,2.633 -4.277,4.195 -6.625,4.65 -4.233,4.986 -7.641,6.715 -10.197,5.178 -0.125,-0.059 -0.232,-0.148 -0.313,-0.262 -1.313,-1.689 -1.478,-3.604 -0.511,-5.75 -0.536,0.26 -1.405,0.432 -2.62,0.51 -1.705,0.312 -3.385,0.188 -5.032,-0.383 -1.456,-0.486 -2.144,-1.496 -2.064,-3.029 l -0.004,-0.016 c 0.074,-1.934 0.986,-3.438 2.744,-4.5 0.679,-0.414 1.376,-0.795 2.082,-1.166 -0.991,-0.164 -1.856,-0.389 -2.607,-0.65 -1.449,-0.523 -2.299,-1.254 -2.558,-2.201 -0.362,-0.91 -0.119,-2.016 0.722,-3.307 m 1.479,1.112 c -0.409,0.639 -0.561,1.172 -0.46,1.615 0.186,0.414 0.575,0.771 1.175,1.066 2.6,1.283 5.227,1.971 7.891,2.043 -0.376,0.486 -1.141,0.732 -2.278,0.748 -0.217,0.1 -0.375,0.168 -0.471,0.217 l -0.017,0.006 c -1.381,0.619 -2.717,1.316 -4.014,2.092 -1.181,0.707 -1.803,1.713 -1.853,3.01 l -0.007,0.01 c -0.013,0.391 0.092,0.691 0.319,0.916 0.113,0.105 0.245,0.195 0.421,0.258 0.881,0.496 1.859,0.707 2.949,0.637 2.33,-0.016 4.848,-0.533 7.529,-1.566 -0.258,0.607 -0.54,1.068 -0.848,1.393 -0.48,1.035 -0.823,2.152 -1.052,3.346 -0.108,0.852 0.044,1.617 0.448,2.316 1.896,0.688 4.536,-1.004 7.947,-5.076 0.146,-0.182 0.337,-0.283 0.569,-0.32 2.112,-0.367 4.104,-1.787 5.989,-4.262 0.13,-0.178 0.296,-0.279 0.499,-0.334 l 3.675,-0.934 c 0.276,-3.291 -0.461,-6.092 -2.203,-8.418 l -4.551,0.73 c -0.187,0.023 -0.36,0.004 -0.53,-0.068 -0.165,-0.082 -0.296,-0.199 -0.395,-0.348 -1.325,-2.109 -2.735,-3.844 -4.223,-5.211 -1.412,-1.297 -2.903,-2.109 -4.484,-2.43 -1.144,-0.225 -1.895,0.111 -2.249,1.018 -0.07,0.465 -0.037,0.934 0.093,1.396 0.055,0.203 0.125,0.402 0.209,0.598 0.134,0.344 0.315,0.674 0.522,0.979 0.408,0.623 0.871,1.197 1.394,1.738 0.546,0.568 1.054,1.182 1.511,1.832 0.371,0.574 0.706,1.232 1.005,1.975 l 0.301,0.854 c -0.594,0.105 -1.373,-0.518 -2.327,-1.867 -0.359,-0.434 -0.761,-0.84 -1.215,-1.223 -0.044,-0.039 -0.073,-0.082 -0.106,-0.115 -5.433,-0.723 -9.147,-0.264 -11.163,1.381 h 0 z"
         id="path983" />
      <path
         inkscape:connector-curvature="0"
         style="fill:#fcdf00"
         d="m 640.894,641.547 c -0.101,-0.443 0.051,-0.977 0.46,-1.615 2.018,-1.645 5.732,-2.104 11.165,-1.381 0.033,0.033 0.062,0.076 0.106,0.115 0.454,0.383 0.855,0.789 1.215,1.223 0.954,1.35 1.733,1.973 2.327,1.867 l -0.301,-0.854 c -0.299,-0.742 -0.634,-1.4 -1.005,-1.975 -0.457,-0.65 -0.967,-1.264 -1.511,-1.832 -0.522,-0.541 -0.985,-1.115 -1.394,-1.738 -0.207,-0.305 -0.389,-0.635 -0.522,-0.979 -0.084,-0.195 -0.154,-0.395 -0.209,-0.598 -0.13,-0.463 -0.163,-0.932 -0.093,-1.396 0.354,-0.906 1.105,-1.242 2.249,-1.018 1.58,0.32 3.072,1.133 4.484,2.43 1.487,1.367 2.897,3.102 4.221,5.211 0.101,0.148 0.231,0.266 0.396,0.348 0.17,0.072 0.344,0.092 0.53,0.068 l 4.551,-0.73 c 1.742,2.326 2.479,5.127 2.203,8.418 l -3.675,0.934 c -0.203,0.055 -0.369,0.156 -0.499,0.334 -1.886,2.475 -3.877,3.895 -5.989,4.262 -0.232,0.037 -0.424,0.139 -0.569,0.32 -3.411,4.072 -6.051,5.764 -7.947,5.076 -0.404,-0.699 -0.557,-1.465 -0.448,-2.316 0.229,-1.193 0.571,-2.311 1.052,-3.346 0.308,-0.324 0.588,-0.785 0.848,-1.393 -2.682,1.033 -5.199,1.551 -7.529,1.566 -1.09,0.07 -2.068,-0.141 -2.949,-0.637 -0.176,-0.062 -0.308,-0.154 -0.421,-0.258 -0.228,-0.225 -0.332,-0.525 -0.319,-0.916 l 0.007,-0.01 c 0.05,-1.297 0.672,-2.303 1.853,-3.01 1.299,-0.775 2.633,-1.473 4.014,-2.092 l 0.017,-0.006 c 0.096,-0.049 0.254,-0.117 0.471,-0.217 1.138,-0.016 1.902,-0.262 2.278,-0.748 -2.664,-0.072 -5.291,-0.76 -7.891,-2.043 -0.601,-0.293 -0.991,-0.65 -1.176,-1.064"
         id="path985" />
      <path
         inkscape:connector-curvature="0"
         style="fill:#30479b"
         d="m 641.579,653.701 c -0.009,-0.004 -0.009,-0.004 -0.021,-0.01 l 0.021,0.01 z"
         id="path987" />
      <path
         inkscape:connector-curvature="0"
         style="fill:#0e5cab"
         d="m 681.442,630.67 c -1.801,1.273 -3.635,2.391 -5.512,3.338 l 8.38,15.053 c 3.192,-1.541 6.161,-3.445 8.889,-5.715 L 681.442,630.67 z"
         id="path989" />
      <path
         inkscape:connector-curvature="0"
         style="fill:#9ac843"
         d="m 685.664,627.277 c -1.392,1.232 -2.797,2.367 -4.222,3.393 l 11.756,12.676 c 2.385,-1.986 4.606,-4.254 6.666,-6.801 l -14.2,-9.268 z"
         id="path991" />
      <path
         inkscape:connector-curvature="0"
         style="fill:#df6513"
         d="m 685.664,627.277 14.2,9.268 c 2.357,-2.932 4.482,-6.236 6.391,-9.916 l -16.361,-3.496 c -1.387,1.498 -2.803,2.879 -4.23,4.144"
         id="path993" />
      <path
         inkscape:connector-curvature="0"
         style="fill:#df6513"
         d="m 669.834,636.484 c -1.668,0.502 -3.735,1.037 -6.21,1.596 0.165,5.604 0.643,10.807 1.436,15.607 3.194,-0.156 6.232,-0.551 9.14,-1.176 l -4.366,-16.027 z"
         id="path995" />
      <path
         inkscape:connector-curvature="0"
         style="fill:#9ac843"
         d="m 674.199,652.512 c 3.59,-0.777 6.959,-1.936 10.111,-3.451 l -8.38,-15.053 c -1.988,1.018 -4.026,1.842 -6.097,2.477 l 4.366,16.027 z"
         id="path997" />
      <path
         inkscape:connector-curvature="0"
         style="fill:none;stroke:#003c90;stroke-width:1.87150002;stroke-linecap:square;stroke-miterlimit:10"
         d="m 681.442,630.67 c 1.425,-1.025 2.83,-2.16 4.222,-3.393 1.427,-1.266 2.843,-2.646 4.229,-4.145 l 16.361,3.496 c -1.908,3.68 -4.033,6.984 -6.391,9.916 -2.059,2.547 -4.281,4.814 -6.665,6.801 -2.728,2.27 -5.696,4.174 -8.889,5.715 -3.152,1.516 -6.521,2.674 -10.111,3.451 -2.907,0.625 -5.945,1.02 -9.14,1.176 -0.793,-4.801 -1.271,-10.002 -1.436,-15.607 2.475,-0.557 4.542,-1.094 6.21,-1.596 2.07,-0.633 4.108,-1.459 6.097,-2.477 1.879,-0.946 3.713,-2.064 5.513,-3.337 z"
         id="path999" />
      <path
         inkscape:connector-curvature="0"
         style="fill:#004498"
         d="m 708.878,705.865 c -0.23,-1.273 -0.498,-2.549 -0.811,-3.838 -3.796,1.109 -7.908,1.809 -12.312,2.082 -0.367,0.025 -0.733,0.051 -1.076,0.078 -2.996,-0.092 -5.835,0.377 -8.52,1.396 l 0.011,0.023 c 1.129,0.621 2.156,1.34 3.073,2.17 0.627,0.566 1.189,1.211 1.7,1.924 1.871,2.615 2.912,6.17 3.12,10.654 3.304,-0.16 6.679,-0.715 10.134,-1.668 -1.073,-6.379 0.484,-10.655 4.681,-12.821 m -11.628,2.639 c 0.191,0.188 0.2,0.4 0.023,0.625 -0.343,0.215 -0.68,0.348 -1.025,0.41 -0.225,0.033 -0.512,-0.088 -0.849,-0.367 -1.582,-1.328 -3.652,-2.756 -6.188,-4.268 l 2.296,-0.195 c 2.474,1.344 4.389,2.609 5.743,3.795"
         id="path1001" />
      <path
         inkscape:connector-curvature="0"
         style="fill:#ffffff"
         d="m 697.273,709.129 c 0.177,-0.225 0.168,-0.438 -0.023,-0.625 -1.354,-1.186 -3.269,-2.451 -5.743,-3.795 l -2.296,0.195 c 2.536,1.512 4.606,2.939 6.188,4.268 0.337,0.279 0.624,0.4 0.849,0.367 0.346,-0.062 0.683,-0.195 1.025,-0.41"
         id="path1003" />
      <path
         inkscape:connector-curvature="0"
         style="fill:#ffffff"
         d="m 704.197,718.688 c 1.353,-0.379 2.721,-0.816 4.092,-1.312 1.237,-0.457 1.742,-1.43 1.523,-2.924 -0.083,-2.805 -0.398,-5.672 -0.935,-8.586 -4.196,2.165 -5.753,6.441 -4.68,12.822"
         id="path1005" />
      <path
         inkscape:connector-curvature="0"
         style="fill:#ffffff"
         d="m 685.268,705.957 -0.302,0.123 c -0.036,0.01 -0.085,0.029 -0.122,0.051 -0.083,0.043 -0.181,0.084 -0.267,0.127 l -0.096,0.039 c -0.146,0.074 -0.29,0.148 -0.437,0.223 -0.936,0.5 -1.795,1.107 -2.577,1.826 -0.138,0.121 -0.264,0.256 -0.399,0.389 -1.466,1.504 -2.09,3.139 -1.899,4.902 0.23,2.072 1.548,3.727 3.936,4.949 2.08,1.051 4.423,1.648 7.028,1.775 1.303,0.064 2.608,0.059 3.931,-0.006 -0.208,-4.484 -1.249,-8.039 -3.12,-10.654 -0.511,-0.713 -1.073,-1.357 -1.7,-1.924 -0.917,-0.83 -1.944,-1.551 -3.073,-2.17 -0.314,0.114 -0.614,0.225 -0.903,0.35"
         id="path1007" />
      <path
         inkscape:connector-curvature="0"
         style="fill:none;stroke:#003c90;stroke-width:1.87960005;stroke-linecap:round;stroke-linejoin:round;stroke-miterlimit:10"
         d="m 708.067,702.027 c -3.796,1.109 -7.908,1.809 -12.312,2.082 -0.367,0.025 -0.733,0.051 -1.076,0.078 -2.996,-0.092 -5.835,0.377 -8.52,1.396 -0.3,0.111 -0.602,0.236 -0.892,0.373 l -0.302,0.123 c -0.036,0.01 -0.085,0.029 -0.122,0.051 -0.083,0.043 -0.181,0.084 -0.267,0.127 l -0.095,0.039 c -0.146,0.074 -0.291,0.148 -0.438,0.223 -0.936,0.5 -1.795,1.107 -2.577,1.826 -0.138,0.123 -0.264,0.256 -0.399,0.389 -1.466,1.504 -2.09,3.139 -1.899,4.902 0.23,2.072 1.548,3.727 3.936,4.949 2.08,1.051 4.423,1.648 7.028,1.775 1.303,0.064 2.608,0.059 3.931,-0.006 3.304,-0.16 6.679,-0.715 10.134,-1.666 1.353,-0.381 2.721,-0.818 4.092,-1.314 1.237,-0.457 1.743,-1.43 1.523,-2.924 -0.083,-2.805 -0.398,-5.672 -0.935,-8.586 -0.23,-1.272 -0.497,-2.548 -0.81,-3.837 z"
         id="path1009" />
      <path
         inkscape:connector-curvature="0"
         style="fill:#4daa34"
         d="m 708.841,674.66 -24.48,-0.859 c 1.105,10.646 2.611,20.797 4.517,30.432 5.188,1.59 11.835,1.777 19.964,0.588 V 674.66 z"
         id="path1011" />
      <path
         inkscape:connector-curvature="0"
         style="fill:none;stroke:#2e6d2d;stroke-width:1.88230002;stroke-linecap:square;stroke-miterlimit:10"
         d="m 684.36,673.801 c 1.105,10.646 2.611,20.799 4.517,30.432 5.188,1.59 11.834,1.777 19.964,0.588 v -30.16 l -24.481,-0.86 z"
         id="path1013" />
      <path
         inkscape:connector-curvature="0"
         style="fill:#004498"
         d="m 725.994,705.779 c -0.311,-1.256 -0.657,-2.512 -1.051,-3.779 -3.719,1.344 -7.78,2.301 -12.162,2.848 -0.364,0.049 -0.728,0.098 -1.067,0.146 -2.997,0.094 -5.803,0.74 -8.417,1.926 l 0.011,0.025 c 1.167,0.547 2.239,1.201 3.205,1.973 0.661,0.525 1.262,1.133 1.816,1.812 2.033,2.496 3.292,5.979 3.782,10.441 3.288,-0.365 6.621,-1.131 10.013,-2.297 -1.472,-6.304 -0.186,-10.669 3.87,-13.095 m -11.443,3.364 c 0.2,0.174 0.225,0.385 0.062,0.621 -0.327,0.236 -0.656,0.391 -0.997,0.475 -0.224,0.049 -0.518,-0.057 -0.871,-0.312 -1.662,-1.229 -3.817,-2.523 -6.443,-3.875 l 2.278,-0.34 c 2.554,1.188 4.545,2.331 5.971,3.431"
         id="path1015" />
      <path
         inkscape:connector-curvature="0"
         style="fill:#ffffff"
         d="m 714.612,709.764 c 0.163,-0.236 0.139,-0.447 -0.062,-0.621 -1.426,-1.1 -3.417,-2.242 -5.972,-3.432 l -2.278,0.34 c 2.626,1.352 4.781,2.646 6.443,3.875 0.354,0.256 0.647,0.361 0.871,0.312 0.342,-0.084 0.671,-0.238 0.998,-0.474"
         id="path1017" />
      <path
         inkscape:connector-curvature="0"
         style="fill:#ffffff"
         d="m 722.124,718.875 c 1.326,-0.465 2.664,-0.986 4,-1.57 1.208,-0.533 1.65,-1.533 1.339,-3.014 -0.258,-2.793 -0.752,-5.635 -1.469,-8.512 -4.056,2.426 -5.342,6.791 -3.87,13.096"
         id="path1019" />
      <path
         inkscape:connector-curvature="0"
         style="fill:#ffffff"
         d="m 702.428,707.348 -0.293,0.143 c -0.034,0.012 -0.08,0.035 -0.117,0.059 -0.081,0.049 -0.176,0.096 -0.257,0.143 l -0.095,0.047 c -0.141,0.082 -0.281,0.166 -0.422,0.25 -0.902,0.555 -1.722,1.215 -2.459,1.982 -0.129,0.131 -0.246,0.271 -0.374,0.412 -1.368,1.594 -1.89,3.266 -1.589,5.016 0.36,2.053 1.778,3.623 4.236,4.693 2.145,0.918 4.521,1.367 7.128,1.332 1.305,-0.018 2.608,-0.104 3.925,-0.252 -0.49,-4.463 -1.749,-7.947 -3.782,-10.441 -0.555,-0.68 -1.155,-1.287 -1.817,-1.814 -0.965,-0.77 -2.037,-1.424 -3.204,-1.971 -0.305,0.129 -0.598,0.258 -0.88,0.401"
         id="path1021" />
      <path
         inkscape:connector-curvature="0"
         style="fill:none;stroke:#003c90;stroke-width:1.88030005;stroke-linecap:round;stroke-linejoin:round;stroke-miterlimit:10"
         d="m 724.943,702 c -3.719,1.344 -7.78,2.301 -12.162,2.848 -0.364,0.049 -0.728,0.098 -1.067,0.146 -2.997,0.094 -5.803,0.74 -8.417,1.926 -0.294,0.131 -0.587,0.273 -0.869,0.428 l -0.293,0.143 c -0.034,0.012 -0.08,0.035 -0.117,0.059 -0.081,0.049 -0.176,0.096 -0.257,0.143 l -0.095,0.047 c -0.141,0.082 -0.281,0.166 -0.422,0.25 -0.903,0.555 -1.723,1.215 -2.459,1.982 -0.129,0.131 -0.246,0.271 -0.374,0.412 -1.368,1.594 -1.89,3.266 -1.589,5.016 0.36,2.053 1.777,3.623 4.236,4.693 2.145,0.918 4.52,1.367 7.128,1.332 1.305,-0.018 2.608,-0.104 3.925,-0.252 3.288,-0.365 6.621,-1.131 10.013,-2.297 1.326,-0.465 2.664,-0.986 4,-1.568 1.208,-0.535 1.65,-1.535 1.339,-3.016 -0.258,-2.793 -0.752,-5.635 -1.469,-8.512 -0.31,-1.257 -0.657,-2.512 -1.051,-3.78 z"
         id="path1023" />
      <path
         inkscape:connector-curvature="0"
         style="fill:#4daa34"
         d="m 704.232,673.975 h 27.023 c -1.143,10.648 -2.708,20.799 -4.672,30.434 -5.363,1.588 -12.81,1.824 -22.352,0.729 v -31.163 z"
         id="path1025" />
      <path
         inkscape:connector-curvature="0"
         style="fill:none;stroke:#2e6d2d;stroke-width:1.88230002;stroke-linecap:square;stroke-miterlimit:10"
         d="m 731.256,673.975 c -1.143,10.648 -2.708,20.799 -4.672,30.434 -5.363,1.588 -12.81,1.824 -22.352,0.729 v -31.162 h 27.024 z"
         id="path1027" />
      <path
         inkscape:connector-curvature="0"
         style="fill:#4daa34"
         d="M 709.046,679.277 H 695.94 v 14.811 l 2.519,-0.354 c 2.717,0.316 4.882,0.4 6.517,0.258 l 4.07,0.096 v -14.811 z"
         id="path1029" />
      <path
         inkscape:connector-curvature="0"
         style="fill:#2e6d2d"
         d="m 704.976,695.793 v -1.801 c -1.635,0.143 -3.8,0.059 -6.517,-0.258 0.341,0.811 1.198,1.447 2.6,1.928 0.999,0.225 2.047,0.295 3.14,0.213 l 0.777,-0.082 z"
         id="path1031" />
      <path
         inkscape:connector-curvature="0"
         style="fill:#9ac843"
         d="m 688.457,623.779 v -5.504 h 5.375 c -3.353,21.221 -4.952,41.797 -4.811,61.723 -0.316,-0.082 -0.624,-0.176 -0.94,-0.27 -1.707,-0.494 -3.211,-1.105 -4.494,-1.824 -1.601,-18.527 0.022,-36.56 4.87,-54.125"
         id="path1033" />
      <path
         inkscape:connector-curvature="0"
         style="fill:#0e5cab"
         d="m 693.832,618.275 h 6.895 c -2.74,23.539 -3.801,44.619 -3.178,63.24 -0.704,-0.07 -1.399,-0.152 -2.081,-0.246 -2.259,-0.307 -4.411,-0.73 -6.446,-1.271 -0.142,-19.926 1.457,-40.502 4.81,-61.723"
         id="path1035" />
      <path
         inkscape:connector-curvature="0"
         style="fill:#df6513"
         d="m 707.373,681.752 c -0.424,0.01 -0.848,0.035 -1.259,0.047 -0.693,0.012 -1.389,0.023 -2.082,0.023 h -0.4 c -2.105,-0.012 -4.13,-0.117 -6.082,-0.307 -0.624,-18.621 0.437,-39.701 3.177,-63.24 h 7.082 l -0.436,63.477 z"
         id="path1037" />
      <path
         inkscape:connector-curvature="0"
         style="fill:#df6513"
         d="m 706.114,681.799 c 0.411,-0.012 0.835,-0.037 1.259,-0.047 v 0.07 c -0.412,-0.011 -0.836,-0.011 -1.259,-0.023"
         id="path1039" />
      <path
         inkscape:connector-curvature="0"
         style="fill:#df6513"
         d="m 707.373,681.822 v -0.072 c 0.152,-0.01 0.294,-0.01 0.436,-0.01 v 0.082 h -0.4 c -0.013,-0.011 -0.024,-0.011 -0.036,0"
         id="path1041" />
      <path
         inkscape:connector-curvature="0"
         style="fill:#9ac843"
         d="m 707.809,618.275 h 7.151 c 2.73,23.35 3.294,44.23 1.694,62.652 -1.023,0.129 -2.047,0.258 -3.047,0.365 -1.988,0.211 -3.918,0.365 -5.799,0.445 -0.142,0 -0.283,0 -0.436,0.014 l 0.437,-63.476 z"
         id="path1043" />
      <path
         inkscape:connector-curvature="0"
         style="fill:#0e5cab"
         d="m 714.96,618.275 h 6.895 c 3.28,20.867 4.517,41.242 3.681,61.111 -0.011,0 -0.022,0 -0.034,0.012 -0.601,0.131 -1.188,0.248 -1.766,0.354 -2.317,0.445 -4.576,0.824 -6.787,1.129 -0.093,0.012 -0.188,0.035 -0.294,0.047 1.599,-18.422 1.035,-39.303 -1.695,-62.653"
         id="path1045" />
      <path
         inkscape:connector-curvature="0"
         style="fill:#df6513"
         d="m 727.453,618.275 v 5.328 c 4.094,19.328 5.623,37.432 4.587,54.324 -2.27,0.555 -4.387,1.025 -6.328,1.424 l -0.177,0.035 c 0.836,-19.869 -0.4,-40.244 -3.681,-61.111 h 5.599 z"
         id="path1047" />
      <path
         inkscape:connector-curvature="0"
         style="fill:#df6513"
         d="m 732.04,677.928 v 0.059 c -2.104,0.672 -4.222,1.26 -6.352,1.766 0.012,-0.129 0.012,-0.271 0.023,-0.4 1.942,-0.4 4.06,-0.871 6.329,-1.425"
         id="path1049" />
      <path
         inkscape:connector-curvature="0"
         style="fill:#0e5cab"
         d="m 716.619,681.328 c -2.93,0.33 -5.858,0.494 -8.811,0.494 v -0.082 c 1.881,-0.082 3.811,-0.236 5.799,-0.447 1,-0.107 2.023,-0.236 3.047,-0.365 -0.011,0.129 -0.022,0.258 -0.035,0.4"
         id="path1051" />
      <path
         inkscape:connector-curvature="0"
         style="fill:#0e5cab"
         d="m 716.924,681.293 c -0.105,0.012 -0.199,0.025 -0.305,0.035 0.013,-0.143 0.023,-0.271 0.035,-0.4 0.106,-0.012 0.201,-0.035 0.294,-0.047 -0.012,0.14 -0.012,0.283 -0.024,0.412"
         id="path1053" />
      <path
         inkscape:connector-curvature="0"
         style="fill:#9ac843"
         d="m 716.924,681.293 c 0.012,-0.129 0.012,-0.271 0.024,-0.412 2.211,-0.305 4.47,-0.684 6.787,-1.129 0.577,-0.105 1.165,-0.223 1.766,-0.354 0.012,-0.012 0.023,-0.012 0.034,-0.012 -0.011,0.129 -0.011,0.27 -0.022,0.412 -2.859,0.659 -5.719,1.153 -8.589,1.495"
         id="path1055" />
      <path
         inkscape:connector-curvature="0"
         style="fill:#9ac843"
         d="m 725.513,679.799 c 0.012,-0.143 0.012,-0.283 0.022,-0.412 l 0.177,-0.035 c -0.012,0.129 -0.012,0.271 -0.023,0.4 -0.058,0.012 -0.118,0.035 -0.176,0.047"
         id="path1057" />
      <path
         inkscape:connector-curvature="0"
         style="fill:none;stroke:#060f32;stroke-width:0.23540001;stroke-linecap:square;stroke-miterlimit:10"
         d="m 697.562,681.811 c 0,-0.105 0,-0.199 -0.013,-0.295 m -8.528,-1.377 v -0.141 m 18.352,1.754 v 0.068 0.695 m 9.281,-1.587 c -0.012,0.129 -0.022,0.258 -0.035,0.4 m 8.882,-1.189 c 0.012,-0.117 0.012,-0.234 0.012,-0.34 0.012,-0.143 0.012,-0.283 0.022,-0.412"
         id="path1059" />
      <path
         inkscape:connector-curvature="0"
         style="fill:none;stroke:#003c90;stroke-width:1.88230002;stroke-linecap:square;stroke-miterlimit:10"
         d="m 688.457,618.275 h 5.375 6.895 7.082 7.151 6.895 5.599 v 5.328 c 4.094,19.328 5.623,37.432 4.587,54.324 -2.27,0.555 -4.387,1.025 -6.328,1.424 l -0.177,0.035 c -0.011,0 -0.022,0 -0.034,0.012 -0.6,0.131 -1.188,0.248 -1.766,0.354 -2.317,0.445 -4.576,0.824 -6.787,1.129 -0.093,0.012 -0.188,0.035 -0.294,0.047 -1.023,0.129 -2.047,0.258 -3.047,0.365 -1.988,0.211 -3.918,0.365 -5.799,0.445 -0.142,0 -0.283,0 -0.436,0.014 -0.424,0.01 -0.848,0.035 -1.259,0.047 -0.693,0.012 -1.389,0.023 -2.082,0.023 h -0.4 c -2.105,-0.012 -4.129,-0.117 -6.082,-0.307 -0.705,-0.07 -1.4,-0.152 -2.082,-0.246 -2.259,-0.307 -4.411,-0.73 -6.446,-1.271 -0.316,-0.082 -0.624,-0.176 -0.94,-0.27 -1.707,-0.494 -3.211,-1.105 -4.494,-1.824 -1.601,-18.527 0.022,-36.561 4.87,-54.125 v -5.504 z"
         id="path1061" />
      <path
         inkscape:connector-curvature="0"
         style="fill:#ffffff"
         d="m 698.338,644.26 c -3.646,-6.328 -6.576,-13.057 -8.799,-20.186 l 21.422,2.27 c -5,5.763 -9.211,11.74 -12.623,17.916"
         id="path1063" />
      <path
         inkscape:connector-curvature="0"
         style="fill:#e06a06"
         d="m 777.723,652.42 c -0.039,-0.072 -0.077,-0.145 -0.124,-0.201 -1.626,-2.166 -4.97,-3.488 -10.045,-3.936 1.348,-1.273 2.002,-2.697 1.97,-4.25 -0.006,-0.045 -0.01,-0.094 -0.015,-0.141 -0.277,-2.076 -1.599,-3.088 -3.949,-3.02 -1.937,0.053 -3.877,0.697 -5.793,1.938 -1.703,1.084 -3.375,2.516 -5.04,4.303 l -4.33,-1.488 c -0.154,-0.053 -0.304,-0.059 -0.467,-0.035 -0.16,0.035 -0.307,0.102 -0.428,0.207 -2.903,2.465 -4.471,5.875 -4.716,10.236 -0.003,0.188 0.039,0.369 0.139,0.541 0.097,0.16 0.24,0.279 0.414,0.352 l 3.779,1.701 c 1.603,2.963 3.521,4.887 5.769,5.74 3.341,5.666 6.419,7.963 9.216,6.877 0.134,-0.035 0.257,-0.105 0.355,-0.205 1.59,-1.449 2.081,-3.318 1.49,-5.609 0.487,0.348 1.319,0.668 2.509,0.955 1.637,0.6 3.323,0.764 5.051,0.48 1.526,-0.232 2.381,-1.115 2.564,-2.646 l 0.007,-0.016 c 0.258,-1.93 -0.388,-3.574 -1.948,-4.928 -0.601,-0.529 -1.228,-1.023 -1.862,-1.514 1.011,0.008 1.905,-0.066 2.694,-0.197 1.525,-0.27 2.491,-0.85 2.912,-1.742 0.513,-0.842 0.46,-1.98 -0.152,-3.402 m -1.656,0.846 c 0.296,0.703 0.355,1.26 0.18,1.684 -0.255,0.375 -0.702,0.664 -1.346,0.854 -2.795,0.824 -5.516,1.057 -8.169,0.672 0.288,0.547 1.006,0.92 2.13,1.133 0.198,0.137 0.345,0.229 0.43,0.297 l 0.015,0.006 c 1.264,0.85 2.464,1.77 3.618,2.758 1.049,0.904 1.493,2.008 1.321,3.303 l 0.003,0.01 c -0.052,0.391 -0.208,0.668 -0.474,0.854 -0.127,0.082 -0.274,0.15 -0.459,0.182 -0.958,0.342 -1.963,0.383 -3.031,0.125 -2.307,-0.414 -4.712,-1.357 -7.192,-2.838 0.152,0.645 0.354,1.15 0.603,1.525 0.299,1.105 0.445,2.27 0.469,3.492 -0.038,0.863 -0.319,1.596 -0.841,2.219 -1.995,0.357 -4.323,-1.771 -7.005,-6.391 -0.112,-0.203 -0.285,-0.338 -0.511,-0.414 -2.028,-0.727 -3.758,-2.473 -5.204,-5.248 -0.097,-0.197 -0.243,-0.328 -0.437,-0.418 l -3.479,-1.553 c 0.289,-3.307 1.498,-5.959 3.624,-7.963 l 4.383,1.504 c 0.182,0.055 0.357,0.064 0.538,0.021 0.177,-0.053 0.327,-0.146 0.451,-0.277 1.672,-1.863 3.367,-3.338 5.076,-4.439 1.619,-1.043 3.237,-1.592 4.857,-1.637 1.171,-0.029 1.858,0.43 2.054,1.393 -0.01,0.471 -0.123,0.93 -0.33,1.365 -0.09,0.193 -0.192,0.379 -0.312,0.559 -0.189,0.314 -0.426,0.611 -0.684,0.881 -0.51,0.545 -1.068,1.033 -1.677,1.482 -0.64,0.471 -1.246,0.988 -1.812,1.557 -0.465,0.504 -0.91,1.1 -1.332,1.785 l -0.445,0.793 c 0.568,0.207 1.448,-0.279 2.626,-1.453 0.429,-0.369 0.896,-0.701 1.412,-1.002 0.05,-0.031 0.086,-0.07 0.125,-0.098 5.507,0.212 9.11,1.304 10.825,3.277"
         id="path1065" />
      <path
         inkscape:connector-curvature="0"
         style="fill:#fcdf00"
         d="m 776.247,654.947 c 0.176,-0.422 0.116,-0.979 -0.18,-1.682 -1.716,-1.973 -5.318,-3.064 -10.825,-3.279 -0.039,0.027 -0.075,0.066 -0.125,0.098 -0.516,0.301 -0.983,0.633 -1.412,1.002 -1.178,1.174 -2.057,1.66 -2.626,1.453 l 0.445,-0.793 c 0.422,-0.686 0.867,-1.281 1.332,-1.785 0.566,-0.568 1.173,-1.086 1.812,-1.557 0.608,-0.449 1.167,-0.938 1.677,-1.482 0.258,-0.27 0.494,-0.566 0.684,-0.881 0.119,-0.18 0.222,-0.365 0.312,-0.559 0.207,-0.436 0.32,-0.895 0.33,-1.365 -0.195,-0.963 -0.883,-1.422 -2.054,-1.393 -1.62,0.045 -3.238,0.594 -4.857,1.637 -1.709,1.102 -3.404,2.576 -5.075,4.439 -0.125,0.131 -0.275,0.225 -0.452,0.277 -0.181,0.043 -0.356,0.033 -0.538,-0.021 l -4.383,-1.504 c -2.126,2.004 -3.335,4.656 -3.624,7.963 l 3.479,1.553 c 0.193,0.09 0.34,0.221 0.437,0.418 1.446,2.775 3.176,4.521 5.204,5.248 0.226,0.076 0.398,0.211 0.511,0.414 2.682,4.619 5.009,6.748 7.005,6.391 0.521,-0.623 0.803,-1.355 0.842,-2.219 -0.024,-1.223 -0.171,-2.387 -0.47,-3.492 -0.249,-0.375 -0.45,-0.881 -0.603,-1.525 2.48,1.48 4.886,2.424 7.192,2.838 1.068,0.258 2.074,0.217 3.031,-0.125 0.185,-0.031 0.332,-0.1 0.459,-0.182 0.266,-0.186 0.422,-0.463 0.474,-0.854 l -0.003,-0.01 c 0.172,-1.295 -0.272,-2.398 -1.32,-3.303 -1.155,-0.988 -2.356,-1.908 -3.618,-2.758 l -0.016,-0.006 c -0.085,-0.068 -0.231,-0.16 -0.43,-0.297 -1.124,-0.213 -1.842,-0.586 -2.13,-1.133 2.653,0.385 5.375,0.152 8.17,-0.672 0.643,-0.188 1.09,-0.477 1.345,-0.854"
         id="path1067" />
      <path
         inkscape:connector-curvature="0"
         style="fill:#003c90"
         d="m 727.582,627.75 c 0.874,-0.707 1.223,-1.352 1.059,-1.916 l 0.938,-0.047 0.287,0.438 c 1.109,1.648 2.259,3.195 3.442,4.639 1.157,1.406 2.334,2.707 3.537,3.912 1.534,1.49 3.127,2.834 4.77,4.033 1.748,1.277 3.559,2.373 5.441,3.295 1.537,0.748 3.452,1.584 5.763,2.506 l 0.711,0.283 -0.146,0.748 c -1.04,5.508 -2.324,10.557 -3.863,15.172 l -0.266,0.785 -0.814,-0.168 c -3.141,-0.666 -6.107,-1.541 -8.902,-2.627 -3.465,-1.355 -6.644,-3.039 -9.551,-5.057 -2.938,-2.051 -5.599,-4.426 -7.972,-7.131 -2.066,-2.371 -3.924,-4.982 -5.569,-7.848 -0.26,-0.459 -0.52,-0.92 -0.771,-1.387 0.027,0.053 0.063,0.1 0.091,0.15 0.342,-0.537 0.726,-1.135 1.144,-1.805 0.369,0.729 0.748,1.434 1.146,2.123 0.012,0.035 0.026,0.053 0.048,0.08 1.578,2.727 3.342,5.219 5.309,7.463 0.008,0.01 0.021,0.027 0.028,0.037 2.257,2.576 4.799,4.836 7.606,6.801 0.016,0 0.031,0.018 0.047,0.021 2.779,1.926 5.81,3.535 9.117,4.822 0.015,0.002 0.029,0.02 0.045,0.021 2.448,0.945 5.032,1.729 7.758,2.336 1.331,-4.111 2.464,-8.568 3.399,-13.387 -2.026,-0.822 -3.736,-1.584 -5.141,-2.258 -0.017,-0.004 -0.017,-0.004 -0.024,-0.014 l -0.006,-0.008 c -1.976,-0.965 -3.879,-2.121 -5.721,-3.459 -0.007,-0.01 -0.015,-0.018 -0.03,-0.02 -1.711,-1.25 -3.363,-2.648 -4.948,-4.186 l -0.008,-0.01 c -0.021,-0.027 -0.043,-0.055 -0.081,-0.084 -1.22,-1.225 -2.41,-2.543 -3.579,-3.967 -0.051,-0.066 -0.102,-0.129 -0.168,-0.195 -1.053,-1.295 -2.078,-2.686 -3.078,-4.154 l -1.048,0.063 z"
         id="path1069" />
      <path
         inkscape:connector-curvature="0"
         style="fill:#df6513"
         d="m 727.582,627.75 1.047,-0.059 c 1,1.469 2.025,2.859 3.078,4.154 l -13.604,6.084 c -0.021,-0.027 -0.036,-0.045 -0.048,-0.08 -0.398,-0.689 -0.777,-1.395 -1.146,-2.123 2.155,-3.404 3.784,-5.531 4.875,-6.396 0.919,-0.725 1.917,-1.012 3.009,-0.885 0.569,0.066 0.997,0.084 1.249,0.047 0.479,-0.068 0.967,-0.291 1.449,-0.672 0.027,-0.021 0.064,-0.049 0.091,-0.07"
         id="path1071" />
      <path
         inkscape:connector-curvature="0"
         style="fill:#9ac843"
         d="m 731.875,632.041 c 1.169,1.424 2.359,2.742 3.579,3.967 l -12.014,9.422 c -0.007,-0.01 -0.021,-0.027 -0.028,-0.037 -1.967,-2.244 -3.729,-4.736 -5.309,-7.463 l 13.604,-6.084 c 0.066,0.066 0.117,0.129 0.168,0.195"
         id="path1073" />
      <path
         inkscape:connector-curvature="0"
         style="fill:#0e5cab"
         d="m 735.535,636.092 0.008,0.01 c 1.585,1.537 3.237,2.936 4.948,4.186 l -9.397,11.965 c -0.016,-0.004 -0.031,-0.021 -0.047,-0.021 -2.808,-1.967 -5.35,-4.227 -7.606,-6.801 l 12.014,-9.422 c 0.037,0.028 0.059,0.055 0.08,0.083"
         id="path1075" />
      <path
         inkscape:connector-curvature="0"
         style="fill:#9ac843"
         d="m 740.491,640.287 c 0.016,0.002 0.023,0.01 0.03,0.02 1.842,1.338 3.744,2.494 5.721,3.459 l 0.006,0.008 c 0.008,0.01 0.008,0.01 0.023,0.014 l -6.016,13.309 c -0.016,-0.002 -0.03,-0.02 -0.045,-0.021 -3.308,-1.287 -6.338,-2.896 -9.117,-4.822 l 9.398,-11.967 z"
         id="path1077" />
      <path
         inkscape:connector-curvature="0"
         style="fill:#df6513"
         d="m 740.256,657.096 6.017,-13.309 c 1.404,0.674 3.115,1.436 5.141,2.258 -0.936,4.818 -2.068,9.275 -3.399,13.387 -2.728,-0.608 -5.311,-1.389 -7.759,-2.336"
         id="path1079" />
      <path
         inkscape:connector-curvature="0"
         style="fill:#ffffff"
         d="m 692.383,628.107 c -0.53,-0.223 -1.035,-0.445 -1.542,-0.67 -0.528,-0.234 -1.046,-0.506 -1.529,-0.811 -0.353,-0.213 -0.683,-0.447 -0.987,-0.719 -0.047,-0.059 -0.094,-0.117 -0.153,-0.178 -0.506,-0.504 -0.906,-1.08 -1.224,-1.705 -0.2,-0.389 -0.389,-0.764 -0.553,-1.152 v -0.012 c -0.211,-0.764 -0.342,-1.646 -0.4,-2.646 -0.258,-2.506 -0.199,-4.824 0.177,-6.965 h 44.361 c 0.035,0.295 0.058,0.588 0.071,0.883 0.129,2.377 -0.142,4.965 -0.837,7.764 -0.622,1.918 -1.518,3.213 -2.704,3.883 -0.788,0.459 -1.483,0.836 -2.061,1.141 -0.387,0.188 -0.787,0.365 -1.187,0.541 -0.941,0.4 -1.918,0.754 -2.93,1.047 -1.082,0.318 -2.164,0.6 -3.258,0.836 -1.07,0.246 -2.165,0.436 -3.26,0.576 -2.082,0.307 -4.164,0.494 -6.246,0.576 -0.836,0.023 -1.658,0.035 -2.494,0.023 -0.306,-0.01 -0.611,-0.01 -0.929,-0.01 -0.859,-0.049 -1.729,-0.096 -2.599,-0.131 -1.19,-0.082 -2.39,-0.236 -3.578,-0.471 -0.388,-0.082 -0.776,-0.178 -1.164,-0.258 -1.681,-0.387 -3.339,-0.895 -4.974,-1.542"
         id="path1081" />
      <path
         inkscape:connector-curvature="0"
         style="fill:none;stroke:#003c90;stroke-width:1.88230002;stroke-linecap:round;stroke-linejoin:round;stroke-miterlimit:10"
         d="m 686.395,622.873 v -0.012 c -0.211,-0.764 -0.342,-1.646 -0.4,-2.648 -0.258,-2.504 -0.2,-4.822 0.177,-6.963 h 44.361 c 0.035,0.295 0.058,0.588 0.071,0.883 0.129,2.377 -0.142,4.965 -0.837,7.764 -0.622,1.918 -1.518,3.213 -2.704,3.883 -0.788,0.459 -1.483,0.836 -2.061,1.141 -0.387,0.188 -0.787,0.365 -1.187,0.541 -0.941,0.4 -1.918,0.754 -2.93,1.047 -1.082,0.318 -2.165,0.6 -3.258,0.836 -1.07,0.246 -2.165,0.436 -3.26,0.576 -2.082,0.307 -4.164,0.494 -6.246,0.576 -0.836,0.023 -1.658,0.035 -2.494,0.023 -0.306,-0.01 -0.611,-0.01 -0.929,-0.01 -0.859,-0.049 -1.729,-0.096 -2.599,-0.131 -1.19,-0.082 -2.39,-0.236 -3.578,-0.471 -0.388,-0.082 -0.776,-0.178 -1.164,-0.258 -1.683,-0.389 -3.341,-0.896 -4.976,-1.543 -0.53,-0.223 -1.035,-0.445 -1.542,-0.67 -0.528,-0.234 -1.046,-0.506 -1.529,-0.811 -0.353,-0.213 -0.683,-0.447 -0.987,-0.719 m 10e-4,10e-4 c -0.047,-0.059 -0.094,-0.117 -0.153,-0.178 -0.506,-0.504 -0.907,-1.08 -1.224,-1.705 -0.2,-0.389 -0.389,-0.764 -0.553,-1.152 m 1.93,3.035 c -0.224,-0.178 -0.436,-0.375 -0.637,-0.588 -0.574,-0.6 -0.999,-1.424 -1.293,-2.447"
         id="path1083" />
      <path
         inkscape:connector-curvature="0"
         style="fill:#fcdf00"
         d="m 716.305,537.625 c 1.094,0.062 2.203,0.246 3.311,0.523 6.433,1.434 11.625,6.127 15.582,14.066 0.03,0.041 0.047,0.09 0.064,0.129 3.278,6.805 5.426,13.863 6.43,21.182 0.106,1.002 0.189,1.998 0.261,2.994 0.027,0.373 0.039,0.754 0.064,1.125 0.334,5.898 0.034,11.605 -0.911,17.105 -0.546,2.609 -1.282,5.223 -2.221,7.842 -2,5.729 -5.418,10.432 -10.246,14.121 -6.263,4.596 -14.058,6.072 -23.401,4.438 -9.643,-1.299 -16.759,-5.08 -21.327,-11.348 -3.503,-4.979 -5.344,-10.492 -5.51,-16.557 -0.104,-2.779 -0.028,-5.496 0.228,-8.148 0.771,-5.527 2.217,-11.057 4.316,-16.58 0.126,-0.348 0.251,-0.709 0.39,-1.055 0.368,-0.928 0.748,-1.854 1.14,-2.777 3.081,-7.115 7.257,-13.195 12.534,-18.252 0.041,-0.029 0.071,-0.072 0.1,-0.104 6.195,-6.407 12.587,-9.309 19.196,-8.704"
         id="path1085" />
      <path
         inkscape:connector-curvature="0"
         style="fill:none;stroke:#e06a06;stroke-width:1.87549996;stroke-linecap:round;stroke-linejoin:round;stroke-miterlimit:10"
         d="m 719.615,538.148 c 6.433,1.434 11.626,6.127 15.583,14.066 0.029,0.041 0.046,0.09 0.063,0.129 3.278,6.805 5.426,13.863 6.43,21.182 0.106,1.002 0.189,1.998 0.261,2.994 0.027,0.373 0.039,0.754 0.064,1.125 0.334,5.898 0.034,11.605 -0.911,17.105 -0.546,2.607 -1.282,5.223 -2.221,7.842 -2,5.729 -5.418,10.432 -10.246,14.121 -6.263,4.596 -14.058,6.072 -23.401,4.438 -9.643,-1.299 -16.758,-5.08 -21.327,-11.348 -3.503,-4.979 -5.344,-10.494 -5.51,-16.557 -0.104,-2.779 -0.028,-5.496 0.228,-8.148 0.771,-5.527 2.217,-11.057 4.316,-16.58 0.126,-0.348 0.251,-0.709 0.39,-1.055 0.368,-0.928 0.748,-1.854 1.14,-2.777 3.081,-7.115 7.258,-13.195 12.534,-18.252 0.041,-0.029 0.071,-0.072 0.1,-0.104 6.196,-6.408 12.589,-9.311 19.197,-8.705 1.093,0.064 2.203,0.247 3.31,0.524 z"
         id="path1087" />
      <path
         inkscape:connector-curvature="0"
         style="fill:#fcdf00"
         d="m 736.26,584.066 -1.078,-0.166 c 1.863,-1.693 3.845,-2.383 5.954,-2.057 2.316,0.357 4.118,1.822 5.393,4.391 1.276,2.568 1.666,5.488 1.163,8.756 -0.505,3.268 -1.759,5.932 -3.75,7.996 -1.991,2.064 -4.153,2.916 -6.47,2.559 -2.305,-0.355 -4.106,-1.82 -5.394,-4.393 -0.064,-0.127 -0.127,-0.256 -0.189,-0.396 l 1.751,0.271 2.62,-16.961 z"
         id="path1089" />
      <path
         inkscape:connector-curvature="0"
         style="fill:none;stroke:#e06a06;stroke-width:1.87549996;stroke-linecap:square;stroke-linejoin:round;stroke-miterlimit:10"
         d="m 731.889,600.758 c 0.062,0.139 0.125,0.268 0.189,0.395 1.287,2.572 3.089,4.037 5.394,4.393 2.317,0.357 4.479,-0.494 6.47,-2.559 1.991,-2.065 3.245,-4.73 3.749,-7.996 0.504,-3.268 0.114,-6.188 -1.162,-8.756 -1.274,-2.568 -3.077,-4.033 -5.394,-4.391 -2.108,-0.326 -4.09,0.363 -5.953,2.057"
         id="path1091" />
      <path
         inkscape:connector-curvature="0"
         style="fill:#282525"
         d="m 717.543,512.137 c -0.068,0.523 -0.081,1.211 -0.03,2.035 0.061,1.682 0.399,3.254 1.027,4.715 0.458,1.031 0.893,1.904 1.307,2.598 0.403,-0.459 0.757,-0.822 1.044,-1.072 0.985,-0.855 2.434,-1.629 4.344,-2.318 0.854,-0.307 2.103,-0.637 3.734,-0.988 1.58,-0.326 2.332,-0.434 2.258,-0.34 -0.261,0.387 -0.572,0.719 -0.935,0.994 -1.574,1.809 -2.818,3.729 -3.733,5.734 -0.438,0.988 -0.762,2.17 -0.975,3.549 1.469,-0.307 2.561,-0.613 3.268,-0.895 1.162,-0.449 2.242,-1.078 3.256,-1.869 1.028,-0.824 1.869,-1.738 2.512,-2.742 0.168,-0.248 0.172,0.727 0.021,2.92 -0.156,2.17 -0.597,3.715 -1.308,4.637 1.319,-0.258 2.551,-0.316 3.682,-0.189 1.257,0.148 2.28,0.518 3.055,1.113 l -2.751,1.828 c -2.062,1.377 -3.438,2.445 -4.124,3.207 -0.59,0.666 -1.504,1.973 -2.74,3.916 0.482,0.027 1.051,0.033 1.686,0 1.245,-0.08 3.18,-0.859 5.818,-2.352 1.311,-0.734 2.487,-1.43 3.502,-2.092 -0.938,2.074 -1.656,3.504 -2.158,4.293 -0.892,1.393 -2.017,2.535 -3.351,3.42 -0.596,0.395 -1.255,0.744 -1.962,1.025 0.624,-0.045 1.265,-0.041 1.921,0.012 1.386,0.156 2.523,0.402 3.419,0.742 1.104,0.443 2.037,1.098 2.803,1.975 0.028,0.041 -1.083,0.023 -3.315,-0.037 -1.43,-0.031 -2.645,-0.006 -3.64,0.064 -1.372,0.205 -2.431,0.373 -3.177,0.531 -0.749,0.156 -1.226,0.25 -1.456,0.285 -0.22,0.037 -0.7,0.141 -1.436,0.301 -0.735,0.158 -2.061,0.133 -3.965,-0.057 -1.902,-0.188 -3.393,-0.605 -4.478,-1.26 -1.085,-0.656 -1.911,-1.221 -2.49,-1.701 -0.465,-0.369 -0.846,-0.666 -1.144,-0.889 l 0.04,-0.029 c -0.156,-0.133 -0.304,-0.262 -0.45,-0.391 -0.035,0.006 -0.062,0.025 -0.1,0.033 -0.033,-0.018 -0.051,-0.045 -0.084,-0.062 -1.433,0.67 -3.056,0.965 -4.886,0.906 -2.546,-0.096 -4.062,-1.113 -4.553,-3.074 -0.589,0.346 -1.271,0.621 -2.049,0.82 -0.333,0.08 -0.841,0.215 -1.507,0.385 -1.098,0.27 -2.163,0.26 -3.22,-0.047 -1.393,-0.273 -2.488,-1.012 -3.312,-2.207 -0.09,-0.109 -0.181,-0.219 -0.28,-0.34 -0.972,-1.158 -2.438,-3.877 -4.391,-8.127 0.931,0.664 1.684,1.16 2.284,1.49 0.787,0.441 1.604,0.758 2.437,0.971 1.322,0.346 2.634,0.525 3.927,0.535 l -0.344,-0.385 c -2.109,-2.545 -2.533,-5.719 -1.276,-9.545 1.478,2.328 3.848,4.035 7.109,5.107 -0.264,-0.516 -0.479,-0.893 -0.631,-1.141 -1.744,-2.832 -2.181,-5.77 -1.295,-8.812 0.457,-1.506 1.082,-2.703 1.881,-3.576 0.694,3.725 1.625,6.146 2.791,7.264 0.59,0.564 1.44,1.125 2.542,1.674 -0.111,-1.428 -0.079,-2.943 0.085,-4.541 0.321,-2.998 1.377,-5.232 3.167,-6.676 0.885,-0.728 1.761,-1.173 2.626,-1.325"
         id="path1093" />
      <path
         inkscape:connector-curvature="0"
         style="fill:#d8272a"
         d="m 696.266,605.252 c 0.584,1.584 1.841,2.574 3.796,2.971 1.913,0.391 3.465,-0.043 4.664,-1.299 0.041,-0.051 0.093,-0.102 0.136,-0.152 2.868,1.199 5.353,2.896 7.439,5.09 -9.617,-1.137 -18.12,-2.949 -25.504,-5.434 3.01,-1.162 6.119,-1.67 9.343,-1.547 0.045,0.127 0.078,0.254 0.126,0.371"
         id="path1095" />
      <path
         inkscape:connector-curvature="0"
         style="fill:#e27c9f"
         d="m 700.062,608.223 c -1.955,-0.396 -3.212,-1.387 -3.796,-2.971 -0.048,-0.117 -0.081,-0.244 -0.126,-0.371 3.039,0.109 5.947,0.732 8.722,1.891 -0.043,0.051 -0.094,0.102 -0.136,0.152 -1.2,1.256 -2.751,1.689 -4.664,1.299"
         id="path1097" />
      <path
         inkscape:connector-curvature="0"
         style="fill:#ffffff"
         d="m 689.042,563.637 c 1.716,-1.668 3.46,-2.289 5.211,-1.875 1.741,0.412 2.971,1.74 3.692,3.975 0.724,2.223 0.73,4.715 0.021,7.463 -0.698,2.754 -1.914,4.949 -3.642,6.615 -1.719,1.668 -3.464,2.289 -5.214,1.875 -1.74,-0.412 -2.969,-1.74 -3.692,-3.975 -0.732,-2.236 -0.739,-4.74 -0.017,-7.486 0.698,-2.752 1.916,-4.948 3.641,-6.592"
         id="path1099" />
      <path
         inkscape:connector-curvature="0"
         style="fill:#ffffff"
         d="m 705.898,566.467 c 2.201,-1.736 4.653,-2.4 7.354,-1.994 2.702,0.404 4.865,1.758 6.467,4.059 1.604,2.287 2.202,4.859 1.771,7.723 -0.43,2.863 -1.735,5.164 -3.938,6.912 -2.213,1.732 -4.677,2.396 -7.378,1.992 -2.689,-0.404 -4.841,-1.758 -6.442,-4.057 -1.625,-2.303 -2.222,-4.887 -1.792,-7.75 0.431,-2.862 1.745,-5.151 3.958,-6.885"
         id="path1101" />
      <path
         inkscape:connector-curvature="0"
         style="fill:#1c1616"
         d="m 711.927,573.105 c -0.769,-1.162 -1.804,-1.871 -3.128,-2.125 -1.325,-0.25 -2.547,0.029 -3.688,0.826 -1.124,0.824 -1.824,1.932 -2.09,3.324 -0.267,1.395 -0.021,2.682 0.725,3.838 0.765,1.186 1.8,1.895 3.124,2.146 1.325,0.252 2.548,-0.029 3.693,-0.848 1.119,-0.803 1.819,-1.91 2.085,-3.303 0.265,-1.393 0.02,-2.678 -0.721,-3.858"
         id="path1103" />
      <path
         inkscape:connector-curvature="0"
         style="fill:#1c1616"
         d="m 688.218,568.756 c 0.879,-0.869 1.81,-1.256 2.809,-1.146 0.999,0.107 1.769,0.68 2.329,1.703 0.54,1.047 0.701,2.242 0.474,3.59 -0.227,1.348 -0.777,2.465 -1.64,3.336 -0.884,0.891 -1.814,1.277 -2.812,1.168 -0.997,-0.107 -1.769,-0.678 -2.325,-1.725 -0.544,-1.023 -0.704,-2.219 -0.478,-3.566 0.227,-1.348 0.777,-2.468 1.643,-3.36"
         id="path1105" />
      <path
         inkscape:connector-curvature="0"
         style="fill:none;stroke:#282525;stroke-width:5.2270999;stroke-linecap:round;stroke-miterlimit:10"
         d="m 726.452,561.543 c -12.763,-7.969 -24.35,-10.707 -34.785,-8.221"
         id="path1107" />
      <path
         inkscape:connector-curvature="0"
         style="fill:#e48300"
         d="m 682.639,586.869 c 0.979,-4.105 2.907,-7.377 5.806,-9.789 2.915,-2.432 5.945,-3.316 9.091,-2.639 3.147,0.664 5.479,2.695 7.009,6.076 1.531,3.367 1.808,7.111 0.828,11.219 -0.979,4.107 -2.906,7.379 -5.811,9.812 -2.9,2.422 -5.917,3.295 -9.062,2.621 -3.148,-0.664 -5.492,-2.688 -7.036,-6.059 -1.529,-3.378 -1.804,-7.133 -0.825,-11.241"
         id="path1109" />
    </g>
  </g>
</svg>
