<?xml version="1.0" encoding="UTF-8" standalone="no"?>
<!-- Created with Inkscape (http://www.inkscape.org/) -->

<svg
   xmlns:dc="http://purl.org/dc/elements/1.1/"
   xmlns:cc="http://creativecommons.org/ns#"
   xmlns:rdf="http://www.w3.org/1999/02/22-rdf-syntax-ns#"
   xmlns:svg="http://www.w3.org/2000/svg"
   xmlns="http://www.w3.org/2000/svg"
   version="1.1"
   width="290"
   height="256"
   id="svg5089">
  <defs
     id="defs5091" />
  <metadata
     id="metadata5094">
    <rdf:RDF>
      <cc:Work
         rdf:about="">
        <dc:format>image/svg+xml</dc:format>
        <dc:type
           rdf:resource="http://purl.org/dc/dcmitype/StillImage" />
        <dc:title></dc:title>
      </cc:Work>
    </rdf:RDF>
  </metadata>
  <g
     transform="translate(0,-224)"
     id="layer1">
    <g
       transform="translate(-774.65635,-47.137602)"
       id="g497">
      <path
         d="m 901.572,447.64 c -0.052,-0.106 -0.119,-0.268 -0.173,-0.447 -0.006,-0.018 -0.006,-0.018 -0.011,-0.033 -0.145,-0.295 -0.286,-0.646 -0.442,-1.047 -0.154,-0.381 -0.322,-0.758 -0.509,-1.135 -0.062,-0.141 -0.146,-0.293 -0.227,-0.447 -0.152,-0.258 -0.302,-0.516 -0.452,-0.773 -0.332,-0.668 -0.725,-1.32 -1.189,-1.963 -0.091,-0.117 -0.162,-0.24 -0.258,-0.371 -0.11,-0.127 -0.23,-0.287 -0.367,-0.441 -0.468,-0.594 -0.798,-1.027 -1.013,-1.32 -0.424,-0.625 -1.186,-1.355 -2.279,-2.188 -0.212,-0.166 -0.462,-0.34 -0.718,-0.531 -0.235,-0.18 -0.462,-0.342 -0.707,-0.5 -0.065,-0.033 -0.149,-0.078 -0.229,-0.107 -0.192,-0.104 -0.364,-0.195 -0.523,-0.305 -0.104,-0.043 -0.171,-0.094 -0.24,-0.143 -0.028,0.025 -0.056,0.053 -0.1,0.084 -4.965,-2.01 -9.648,-2.402 -14.084,-1.156 -2.88,0.826 -5.656,2.338 -8.316,4.529 -1.725,1.441 -3.136,2.979 -4.205,4.633 -0.473,0.736 -0.872,1.484 -1.227,2.254 -1.32,2.998 -0.706,5.479 1.833,7.406 1.364,1.068 2.564,1.418 3.585,1.068 -0.78,4.534 0.482,7.496 3.773,8.889 1.021,0.709 2.166,0.592 3.432,-0.367 0.031,-0.01 0.059,-0.037 0.07,-0.057 0.062,0.662 0.173,1.324 0.32,1.977 0.651,2.898 2.462,4.547 5.405,4.918 2.884,0.48 5.313,-1.176 7.257,-4.957 0.335,-0.654 0.632,-1.266 0.9,-1.848 0.018,0.117 0.048,0.217 0.066,0.336 0.026,0.082 0.057,0.18 0.087,0.279 0.686,1.598 1.907,2.549 3.637,2.881 l -0.021,-0.012 c 1.578,0.303 3.034,0.146 4.342,-0.486 1.382,-0.584 2.437,-1.998 3.13,-4.232 0.625,-1.875 0.787,-4.572 0.502,-8.084 -0.197,-2.695 -0.584,-4.779 -1.138,-6.24 0.028,-0.027 0.061,-0.037 0.089,-0.064 m -2.5,1.839 c 0.424,1.676 0.677,3.445 0.771,5.275 0.291,4.871 -0.56,7.834 -2.546,8.887 -0.075,0.043 -0.17,0.09 -0.263,0.137 -1.209,0.492 -2.354,0.199 -3.448,-0.918 -0.291,-0.303 -0.582,-0.68 -0.875,-1.109 -0.096,-0.131 -0.193,-0.281 -0.292,-0.43 -0.393,-0.633 -0.765,-1.324 -1.081,-2.068 -0.292,-0.662 -0.528,-1.377 -0.748,-2.152 0.098,1.08 -0.657,3.064 -2.228,5.943 -1.747,3.129 -3.253,4.592 -4.536,4.43 -0.241,-0.033 -0.471,-0.072 -0.702,-0.127 -1.464,-0.34 -2.473,-1.123 -3.015,-2.371 -0.363,-0.84 -0.521,-1.881 -0.476,-3.131 0.045,-1.088 0.269,-2.463 0.687,-4.148 0.385,-1.494 0.937,-3.258 1.636,-5.24 -0.361,0.572 -1.312,2.439 -2.849,5.611 -0.34,0.588 -0.688,1.088 -1.012,1.49 -1.069,1.365 -2.034,1.892 -2.937,1.578 -0.122,-0.051 -0.247,-0.103 -0.36,-0.176 -0.93,-0.414 -1.624,-1.045 -2.079,-1.889 -0.751,-1.4 -0.815,-3.367 -0.211,-5.896 0.337,-1.482 0.854,-2.892 1.559,-4.271 0.008,-0.039 0.032,-0.08 0.061,-0.107 0.062,-0.143 0.128,-0.271 0.2,-0.4 0.22,-0.391 0.406,-0.715 0.573,-0.982 -0.292,0.322 -0.629,0.748 -1.026,1.264 -0.012,0.021 -0.027,0.025 -0.04,0.047 -0.42,0.56 -0.914,1.229 -1.458,2.02 -0.965,0.939 -2.016,1.316 -3.126,1.135 -0.6,-0.082 -1.217,-0.344 -1.859,-0.756 -0.155,-0.094 -0.298,-0.213 -0.457,-0.324 -0.512,-0.383 -0.68,-1.047 -0.503,-1.994 0.117,-0.557 0.346,-1.217 0.699,-1.986 0.205,-0.439 0.435,-0.865 0.677,-1.299 0.018,-0.006 0.018,-0.006 0.013,-0.021 0.994,-1.666 2.331,-3.201 4.038,-4.6 4.725,-3.916 9.985,-5.092 15.773,-3.551 0.395,0.113 0.785,0.227 1.164,0.346 0.491,0.152 0.985,0.303 1.491,0.49 -0.014,0.021 -0.045,0.031 -0.061,0.037 0.3,0.104 0.589,0.229 0.878,0.357 0.332,0.15 0.664,0.297 1.002,0.465 0.081,0.029 0.165,0.072 0.252,0.119 0.025,-0.027 0.054,-0.053 0.085,-0.078 0.115,0.09 0.252,0.189 0.395,0.307 0.22,0.185 0.418,0.371 0.643,0.574 1.154,1.025 1.853,1.727 2.102,2.133 0.161,0.236 0.86,1.473 2.127,3.682 0.078,0.137 0.156,0.273 0.224,0.38 0.101,0.272 0.162,0.468 0.202,0.599 -0.014,0.023 -0.045,0.033 -0.057,0.053 0.09,0.062 0.185,0.195 0.284,0.396 0.04,0.08 0.074,0.193 0.127,0.303 0.084,0.223 0.186,0.498 0.293,0.84 0.083,0.33 0.18,0.71 0.289,1.126 m -1.597,14.45 c 0.263,-0.133 0.521,-0.285 0.771,-0.469 -0.141,0.133 -0.284,0.248 -0.438,0.33 -0.109,0.053 -0.224,0.088 -0.333,0.139"
         id="path499"
         style="fill:#9e0c27" />
      <path
         d="m 898.782,448.349 c 0.084,0.334 0.181,0.715 0.29,1.131 0.424,1.676 0.677,3.445 0.771,5.275 0.291,4.871 -0.56,7.834 -2.546,8.887 -0.076,0.043 -0.17,0.09 -0.263,0.137 -1.209,0.492 -2.355,0.199 -3.448,-0.918 -0.291,-0.303 -0.582,-0.68 -0.875,-1.109 -0.096,-0.132 -0.193,-0.281 -0.292,-0.43 -0.393,-0.633 -0.765,-1.324 -1.081,-2.068 -0.292,-0.662 -0.528,-1.377 -0.748,-2.152 0.098,1.08 -0.657,3.064 -2.228,5.943 -1.747,3.129 -3.253,4.592 -4.536,4.43 -0.241,-0.033 -0.471,-0.072 -0.702,-0.127 -1.464,-0.34 -2.473,-1.123 -3.015,-2.371 -0.364,-0.84 -0.521,-1.881 -0.476,-3.131 0.044,-1.088 0.269,-2.463 0.687,-4.148 0.385,-1.494 0.937,-3.258 1.636,-5.24 -0.362,0.572 -1.312,2.439 -2.849,5.611 -0.34,0.588 -0.688,1.088 -1.013,1.49 -1.068,1.365 -2.033,1.893 -2.936,1.578 -0.123,-0.051 -0.247,-0.104 -0.36,-0.176 -0.93,-0.414 -1.624,-1.045 -2.08,-1.889 -0.75,-1.4 -0.814,-3.368 -0.21,-5.896 0.336,-1.482 0.854,-2.893 1.559,-4.271 0.008,-0.039 0.032,-0.08 0.061,-0.107 0.062,-0.143 0.128,-0.271 0.199,-0.4 0.221,-0.391 0.407,-0.715 0.574,-0.983 -0.292,0.325 -0.629,0.748 -1.026,1.265 -0.012,0.021 -0.027,0.025 -0.04,0.047 -0.42,0.559 -0.914,1.229 -1.458,2.02 -0.965,0.939 -2.016,1.316 -3.126,1.135 -0.6,-0.082 -1.217,-0.344 -1.859,-0.756 -0.155,-0.094 -0.298,-0.213 -0.457,-0.324 -0.512,-0.383 -0.68,-1.047 -0.503,-1.994 0.117,-0.557 0.346,-1.217 0.699,-1.986 0.205,-0.439 0.435,-0.865 0.677,-1.299 0.018,-0.006 0.018,-0.006 0.013,-0.021 0.994,-1.666 2.331,-3.201 4.038,-4.6 4.725,-3.916 9.985,-5.092 15.773,-3.551 0.395,0.113 0.785,0.227 1.164,0.346 0.492,0.152 0.985,0.302 1.491,0.49 -0.014,0.021 -0.045,0.031 -0.061,0.037 0.3,0.104 0.589,0.23 0.878,0.357 0.332,0.15 0.664,0.297 1.002,0.465 0.081,0.029 0.165,0.072 0.252,0.118 0.025,-0.026 0.054,-0.052 0.085,-0.077 0.115,0.09 0.252,0.189 0.395,0.307 0.22,0.186 0.418,0.371 0.643,0.574 1.154,1.025 1.853,1.727 2.102,2.133 0.161,0.236 0.86,1.473 2.127,3.682 0.079,0.137 0.156,0.273 0.224,0.379 0.101,0.273 0.161,0.469 0.202,0.6 -0.014,0.023 -0.045,0.033 -0.057,0.055 0.09,0.061 0.184,0.193 0.284,0.395 0.04,0.079 0.074,0.193 0.127,0.303 0.083,0.216 0.185,0.492 0.292,0.834"
         id="path501"
         style="fill:#d82d1c" />
      <path
         d="m 936.28,425.056 c -0.243,0.092 -0.486,0.115 -0.745,0.068 -8.368,-1.5 -16.025,-0.725 -22.966,2.344 -6.613,2.951 -12.236,7.848 -16.841,14.682 -0.396,-0.701 -1.053,-1.379 -1.931,-2.039 4.857,-7.034 10.743,-12.102 17.65,-15.159 7,-3.116 14.709,-4.044 23.093,-2.776 l 0.78,-8.873 c -10.787,-2.152 -20.827,-0.904 -30.148,3.781 -8.369,4.217 -15.2,10.674 -20.469,19.344 -0.015,0.021 -0.021,0.059 -0.054,0.082 l -0.016,0.004 c -0.197,-0.006 -0.352,0.014 -0.484,0.043 -0.019,0.006 -0.402,0.023 -1.188,0.068 -0.82,0.051 -1.323,0.098 -1.474,0.133 -0.032,0.01 -0.1,0.025 -0.188,0.028 5.686,-10.062 13.238,-17.448 22.638,-22.168 10.219,-5.147 21.282,-6.407 33.179,-3.755 0.338,0.08 0.607,0.246 0.801,0.539 0.207,0.285 0.294,0.584 0.269,0.926 l -1.029,11.566 c -0.029,0.254 -0.116,0.486 -0.278,0.705 -0.144,0.209 -0.357,0.365 -0.599,0.457"
         id="path503"
         style="fill:#9e0c27" />
      <path
         d="m 935.321,413.302 -0.78,8.873 c -8.384,-1.268 -16.093,-0.34 -23.093,2.775 -6.907,3.059 -12.793,8.125 -17.65,15.16 -0.021,-0.016 -0.046,-0.043 -0.066,-0.057 -0.185,0.273 -0.582,0.615 -1.202,0.99 -0.812,0.525 -1.411,0.846 -1.763,0.928 -1.191,0.281 -2.567,-0.084 -4.136,-1.113 -1.524,-0.986 -2.421,-2.016 -2.673,-3.088 -0.06,-0.252 0.119,-0.611 0.523,-1.078 0.057,-0.066 0.115,-0.117 0.153,-0.18 l 0.016,-0.004 c 0.032,-0.023 0.039,-0.061 0.054,-0.082 5.269,-8.67 12.1,-15.127 20.469,-19.344 9.321,-4.685 19.361,-5.933 30.148,-3.78"
         id="path505"
         style="fill:#d82d1c" />
      <path
         d="m 856.572,453.706 c -3.114,-1.555 -5.961,-2.264 -8.52,-2.109 -3.18,0.168 -5.742,1.539 -7.709,4.146 -2.729,3.486 -3.034,8.268 -0.932,14.322 1.799,5.207 5.026,10.391 9.702,15.588 4.674,5.199 9.579,9.045 14.733,11.549 5.956,2.879 11.023,3.307 15.181,1.295 2.412,-1.141 3.829,-3.109 4.267,-5.896 0.286,-1.659 0.142,-4.308 -0.433,-7.921 -0.625,-4.098 -0.97,-6.98 -1.017,-8.66 h 0.017 c -0.053,-2.811 0.361,-5.25 1.244,-7.35 0.054,0.006 0.107,0.012 0.156,0.035 0.158,-0.881 0.648,-1.74 1.507,-2.572 -0.941,-0.238 -1.793,-0.355 -2.517,-0.336 -0.266,-0.014 -0.521,0.061 -0.731,0.195 -0.228,0.131 -0.407,0.322 -0.524,0.572 -1.358,2.643 -2.018,5.811 -1.946,9.508 v 0.018 c 0.039,1.736 0.386,4.74 1.043,9.02 0.496,3.234 0.64,5.58 0.427,7.055 l -10e-4,0.018 c -0.264,1.785 -1.155,3.057 -2.69,3.773 -3.485,1.578 -7.739,1.141 -12.765,-1.273 -4.836,-2.357 -9.469,-5.98 -13.877,-10.9 -4.393,-4.879 -7.43,-9.76 -9.123,-14.638 -1.723,-4.95 -1.539,-8.864 0.515,-11.726 l -0.003,0.018 c 1.442,-1.893 3.309,-2.904 5.621,-3.035 2.144,-0.08 4.506,0.52 7.123,1.818 l 0.017,0.002 c 2.37,1.146 4.637,2.707 6.817,4.678 1.96,1.768 3.405,3.422 4.298,4.957 0.175,0.32 0.431,0.527 0.788,0.641 0.342,0.094 0.679,0.082 1.014,-0.072 0.32,-0.155 0.561,-0.391 0.704,-0.713 0.146,-0.332 0.149,-0.668 0.033,-1.018 -1.049,-3.035 -1.576,-5.729 -1.561,-8.088 0.019,-2.383 0.634,-4.145 1.865,-5.285 l 0.017,0.002 c 3.199,-2.566 9.599,-1.344 19.187,3.645 -0.693,-1.582 -2.146,-3.311 -4.345,-5.141 -8.002,-3.336 -13.57,-3.557 -16.688,-0.631 l -0.002,0.018 c -1.861,1.562 -2.807,4.008 -2.837,7.373 -0.022,0.934 0.053,1.931 0.196,2.953 -0.254,-0.242 -0.525,-0.486 -0.796,-0.729 -2.392,-2.139 -4.869,-3.846 -7.455,-5.106"
         id="path507"
         style="fill:#9e0c27" />
      <path
         d="m 869.312,451.323 -0.017,-0.002 c -1.231,1.141 -1.847,2.902 -1.865,5.285 -0.015,2.359 0.512,5.053 1.561,8.088 0.116,0.35 0.112,0.686 -0.032,1.02 -0.145,0.32 -0.385,0.555 -0.705,0.711 -0.335,0.154 -0.672,0.166 -1.014,0.074 -0.357,-0.115 -0.615,-0.321 -0.788,-0.643 -0.893,-1.535 -2.338,-3.189 -4.298,-4.957 -2.181,-1.972 -4.447,-3.531 -6.817,-4.678 l -0.017,-0.003 c -2.617,-1.298 -4.979,-1.897 -7.123,-1.817 -2.312,0.131 -4.179,1.143 -5.621,3.035 l 0.003,-0.018 c -2.054,2.861 -2.237,6.775 -0.515,11.725 1.693,4.879 4.73,9.76 9.123,14.639 4.408,4.92 9.041,8.543 13.877,10.9 5.025,2.414 9.279,2.852 12.765,1.273 1.535,-0.717 2.427,-1.988 2.69,-3.773 l 10e-4,-0.018 c 0.213,-1.475 0.069,-3.821 -0.428,-7.055 -0.656,-4.279 -1.003,-7.283 -1.043,-9.02 l 10e-4,-0.018 c -0.071,-3.697 0.588,-6.865 1.946,-9.508 0.117,-0.25 0.297,-0.441 0.524,-0.572 0.211,-0.135 0.466,-0.209 0.731,-0.195 0.724,-0.02 1.575,0.098 2.517,0.336 0.159,-0.158 0.338,-0.314 0.534,-0.484 0.295,-0.264 0.624,-0.508 0.97,-0.73 0.402,-1.172 0.602,-1.799 0.61,-1.869 0.004,-0.053 0.517,-1.385 1.517,-4.002 0.02,-0.156 0.104,-0.411 0.271,-0.777 0.147,-0.369 0.231,-0.625 0.249,-0.766 0.099,-0.816 -0.048,-1.664 -0.421,-2.537 -9.587,-4.988 -15.986,-6.21 -19.186,-3.644"
         id="path509"
         style="fill:#d82d1c" />
      <path
         d="m 917.853,415.63 c 8.519,1.383 13.856,4.057 16.019,7.986 2.181,3.721 3.645,8.334 4.387,13.861 0.731,5.293 1.263,10.057 1.584,14.271 1.256,9.326 -1.988,16.51 -9.732,21.549 l -0.021,0.014 c -6.826,4.424 -14.831,5.969 -24.017,4.619 -9.584,-1.4 -16.316,-5.441 -20.177,-12.121 -4.618,-7.711 -3.82,-17.307 2.388,-28.784 1.662,-3.087 3.693,-6.345 6.082,-9.737 3.287,-4.74 5.834,-8.127 7.624,-10.143 1.911,-2.423 7.186,-2.925 15.863,-1.515"
         id="path511"
         style="fill:#9e0c27" />
      <path
         d="m 863.494,346.99 c 4.138,-5.708 9.713,-10.612 16.76,-14.688 3.924,-2.281 8.336,-4.066 13.275,-5.39 -0.602,-0.432 -0.977,-0.741 -1.108,-0.91 -3.259,-4.075 -4.668,-8.786 -4.208,-14.134 0.425,-5.331 2.561,-9.731 6.415,-13.218 3.855,-3.469 8.27,-4.986 13.28,-4.583 5.007,0.437 9.129,2.703 12.368,6.793 1.147,1.45 2.072,2.978 2.761,4.58 0.964,-1.374 2.157,-2.642 3.555,-3.792 4.174,-3.449 8.998,-4.94 14.455,-4.511 5.453,0.467 9.952,2.755 13.496,6.865 3.561,4.093 5.129,8.814 4.706,14.164 -0.27,3.191 -1.201,6.035 -2.811,8.552 1.248,0.417 2.474,0.854 3.681,1.322 8.383,3.247 15.718,7.469 21.971,12.662 6.271,5.193 10.896,10.876 13.879,17.065 2.983,6.189 4.238,12.755 3.788,19.699 -0.451,6.941 -2.737,13.394 -6.852,19.318 -4.114,5.926 -9.679,10.937 -16.688,15.016 -7.048,4.094 -14.975,7.074 -23.798,8.908 -9.132,1.885 -18.593,2.441 -28.344,1.635 -9.771,-0.807 -19.014,-2.889 -27.725,-6.281 -8.418,-3.248 -15.754,-7.471 -22.005,-12.664 -6.254,-5.193 -10.946,-10.951 -14.12,-17.258 -3.25,-6.529 -4.587,-13.208 -4.017,-20.035 0.571,-6.829 2.994,-13.201 7.286,-19.115"
         id="path513"
         style="fill:#d82d1c" />
      <path
         d="m 880.254,332.303 c 3.924,-2.282 8.336,-4.067 13.275,-5.39 -0.602,-0.433 -0.977,-0.741 -1.108,-0.911 -3.259,-4.074 -4.668,-8.786 -4.208,-14.133 0.425,-5.332 2.561,-9.732 6.415,-13.219 3.854,-3.469 8.27,-4.985 13.28,-4.583 5.007,0.437 9.129,2.703 12.367,6.793 1.148,1.45 2.074,2.979 2.762,4.581 0.964,-1.375 2.157,-2.643 3.555,-3.793 4.175,-3.448 8.998,-4.94 14.455,-4.51 5.453,0.467 9.952,2.755 13.496,6.864 3.561,4.093 5.129,8.814 4.706,14.164 -0.27,3.192 -1.201,6.036 -2.811,8.552 1.248,0.418 2.474,0.854 3.681,1.323 8.383,3.246 15.718,7.469 21.971,12.661 6.271,5.194 10.896,10.877 13.879,17.065 2.983,6.19 4.238,12.756 3.788,19.699 -0.451,6.94 -2.737,13.395 -6.852,19.317 -4.114,5.927 -9.679,10.938 -16.688,15.017 -7.048,4.094 -14.975,7.074 -23.798,8.908 -9.132,1.885 -18.593,2.441 -28.344,1.635 -9.771,-0.807 -19.014,-2.889 -27.725,-6.281 -8.418,-3.248 -15.753,-7.471 -22.005,-12.664 -6.254,-5.193 -10.946,-10.951 -14.12,-17.258 -3.25,-6.529 -4.586,-13.207 -4.017,-20.035 0.569,-6.828 2.992,-13.2 7.284,-19.114 4.14,-5.709 9.715,-10.612 16.762,-14.688 z"
         id="path515"
         style="fill:none;stroke:#9e0c27;stroke-width:2.86199999;stroke-miterlimit:10" />
      <path
         d="m 893.508,325.227 c -3.044,-3.775 -4.383,-8.159 -4.033,-13.173 0.401,-4.991 2.346,-9.135 5.828,-12.431 3.52,-3.275 7.554,-4.743 12.141,-4.421 4.621,0.307 8.421,2.3 11.434,6.001 1.949,2.361 3.217,5.003 3.789,7.888 1.063,-2.354 2.628,-4.459 4.712,-6.283 3.792,-3.33 8.222,-4.827 13.291,-4.511 5.071,0.318 9.279,2.353 12.645,6.13 3.35,3.775 4.865,8.189 4.554,13.222 -0.315,5.034 -2.368,9.207 -6.16,12.537 -3.81,3.328 -8.242,4.843 -13.311,4.526 -5.07,-0.316 -9.276,-2.37 -12.625,-6.146 -0.135,-0.151 -0.268,-0.302 -0.402,-0.455 -3.296,-0.295 -6.052,-0.663 -8.246,-1.123 -3.406,3.191 -7.421,4.644 -12.027,4.374 -4.641,-0.307 -8.511,-2.341 -11.59,-6.135"
         id="path517"
         style="fill:#ffffff" />
      <path
         d="m 923.38,315.587 c 1.793,-2.119 4.006,-3.245 6.659,-3.414 2.667,-0.167 4.991,0.682 6.984,2.544 1.992,1.883 3.045,4.214 3.182,7.016 0.142,2.801 -0.675,5.246 -2.453,7.364 -1.792,2.12 -4.007,3.246 -6.658,3.414 -2.653,0.169 -4.959,-0.678 -6.952,-2.542 -1.991,-1.864 -3.045,-4.195 -3.185,-7.014 -0.158,-2.804 0.645,-5.247 2.423,-7.368"
         id="path519"
         style="fill:#282525" />
      <path
         d="m 895.851,312.671 c 1.742,-2.123 3.888,-3.253 6.455,-3.426 2.586,-0.173 4.835,0.67 6.761,2.529 1.926,1.877 2.938,4.207 3.069,7.008 0.129,2.801 -0.666,5.245 -2.392,7.369 -1.741,2.122 -3.887,3.253 -6.457,3.426 -2.569,0.173 -4.798,-0.669 -6.725,-2.528 -1.928,-1.859 -2.939,-4.188 -3.069,-7.007 -0.148,-2.802 0.633,-5.247 2.358,-7.371"
         id="path521"
         style="fill:#282525" />
      <path
         d="m 891.425,369.388 c 5.655,1.224 11.365,2.208 17.107,2.916 5.744,0.705 11.562,1.138 17.479,1.265 5.919,0.129 12.186,-0.566 18.781,-2.101 l 7.856,-2.373 c -4.503,19.117 -14.751,29.98 -30.765,32.628 -4.686,0.795 -9.648,0.799 -14.855,0.016 -0.04,-0.004 -0.069,-0.008 -0.096,-0.012 -5.226,-0.464 -10.113,-1.652 -14.633,-3.553 -15.448,-6.418 -24.198,-19.559 -26.262,-39.463 l 7.445,4.208 c 6.311,3.083 12.288,5.244 17.943,6.469"
         id="path523"
         style="fill:#282525" />
      <path
         d="m 909.048,371.024 -0.003,0.035 c -0.097,-0.029 -0.15,-0.053 -0.164,-0.056 l 0.167,0.021 z"
         id="path525"
         style="fill:#282525" />
      <path
         d="m 930.427,338.297 c 0.49,5.371 -0.974,10.251 -4.358,14.66 -3.418,4.406 -7.782,7.05 -13.108,7.929 -5.304,0.863 -9.994,-0.29 -14.079,-3.48 -4.109,-3.154 -6.405,-7.426 -6.895,-12.796 -0.49,-5.372 0.973,-10.269 4.394,-14.692 3.385,-4.41 7.749,-7.036 13.072,-7.897 5.306,-0.88 10.016,0.257 14.12,3.446 4.083,3.189 6.365,7.46 6.854,12.83"
         id="path527"
         style="fill:#e78c00" />
      <path
         d="m 925.959,418.544 c -1.125,-0.734 -2.809,-1.527 -5.05,-2.377 -6.35,-1.062 -10.524,-1.41 -12.552,-1.086 -0.746,0.109 -1.338,0.348 -1.735,0.711 -0.227,0.191 -0.528,0.516 -0.903,0.953 -0.117,0.177 -0.646,0.802 -1.59,1.889 -0.602,0.736 -1.022,1.344 -1.26,1.82 -1.607,1.994 -3.675,4.818 -6.207,8.438 -2.321,3.299 -4.297,6.459 -5.914,9.463 -5.618,10.385 -6.426,19.07 -2.433,26.041 3.508,5.91 9.566,9.502 18.162,10.756 8.455,1.23 15.815,-0.172 22.099,-4.205 6.751,-4.399 9.579,-10.676 8.482,-18.82 0.007,-0.035 0.013,-0.07 -0.002,-0.088 -0.326,-4.182 -0.85,-8.906 -1.58,-14.184 -0.689,-5.109 -2.031,-9.385 -4.024,-12.822 -0.069,-0.119 -0.143,-0.219 -0.215,-0.322 -0.237,-0.393 -0.582,-0.893 -1.001,-1.479 -0.708,-0.986 -1.397,-1.885 -2.062,-2.703 -0.617,-0.78 -1.363,-1.434 -2.215,-1.985 m -3.563,-0.727 c -0.086,-0.014 -0.189,-0.033 -0.276,-0.047 l 0.016,-0.086 0.26,0.133 z"
         id="path529"
         style="fill:#d82d1c" />
      <path
         d="m 895.019,457.169 c -2.797,-2.076 -5.477,-3.271 -8.024,-3.566 -3.163,-0.391 -5.929,0.514 -8.325,2.736 -3.296,2.959 -4.433,7.617 -3.421,13.951 0.86,5.447 3.136,11.121 6.833,17.061 3.698,5.939 7.86,10.589 12.502,13.959 5.364,3.879 10.284,5.186 14.731,3.932 2.576,-0.703 4.317,-2.395 5.234,-5.066 0.574,-1.586 0.894,-4.219 0.96,-7.881 0.102,-4.148 0.266,-7.047 0.515,-8.715 l 0.017,0.006 c 0.438,-2.781 1.273,-5.111 2.514,-7.025 0.05,0.016 0.101,0.029 0.146,0.062 0.312,-0.842 0.945,-1.604 1.935,-2.273 -0.886,-0.396 -1.704,-0.664 -2.423,-0.771 -0.256,-0.057 -0.522,-0.029 -0.753,0.064 -0.247,0.091 -0.46,0.246 -0.619,0.473 -1.798,2.368 -3.002,5.377 -3.581,9.031 l -0.003,0.018 c -0.263,1.715 -0.448,4.738 -0.548,9.068 -0.076,3.275 -0.346,5.613 -0.812,7.027 l -0.005,0.02 c -0.575,1.713 -1.676,2.807 -3.31,3.248 -3.714,0.943 -7.829,-0.229 -12.359,-3.488 -4.353,-3.17 -8.283,-7.551 -11.767,-13.166 -3.479,-5.58 -5.617,-10.92 -6.436,-16.023 -0.828,-5.182 0.036,-9.004 2.557,-11.465 l -0.003,0.015 c 1.755,-1.61 3.771,-2.284 6.069,-2.009 2.126,0.297 4.35,1.3 6.702,3.039 l 0.017,0.006 c 2.135,1.545 4.096,3.475 5.9,5.801 1.623,2.086 2.758,3.969 3.369,5.639 0.115,0.344 0.332,0.594 0.665,0.768 0.319,0.152 0.654,0.199 1.012,0.105 0.342,-0.096 0.619,-0.289 0.817,-0.578 0.203,-0.305 0.265,-0.631 0.211,-0.998 -0.504,-3.174 -0.552,-5.922 -0.123,-8.246 0.436,-2.34 1.352,-3.969 2.762,-4.879 l 0.016,0.004 c 3.603,-1.969 9.697,0.354 18.272,6.947 -0.408,-1.68 -1.536,-3.637 -3.384,-5.826 -7.303,-4.686 -12.75,-5.879 -16.336,-3.539 l -0.003,0.017 c -2.109,1.214 -3.468,3.458 -4.087,6.771 -0.186,0.916 -0.286,1.912 -0.324,2.943 -0.207,-0.281 -0.431,-0.57 -0.655,-0.855 -1.985,-2.53 -4.129,-4.647 -6.455,-6.342"
         id="path531"
         style="fill:#9e0c27" />
      <path
         d="m 907.99,457.05 -0.016,-0.004 c -1.41,0.91 -2.326,2.539 -2.762,4.879 -0.429,2.324 -0.381,5.072 0.123,8.246 0.053,0.367 -0.009,0.693 -0.211,0.998 -0.198,0.289 -0.474,0.482 -0.817,0.578 -0.357,0.094 -0.692,0.047 -1.012,-0.105 -0.333,-0.174 -0.551,-0.424 -0.663,-0.768 -0.613,-1.67 -1.748,-3.554 -3.372,-5.639 -1.805,-2.326 -3.766,-4.256 -5.899,-5.801 l -0.018,-0.006 c -2.352,-1.738 -4.575,-2.742 -6.701,-3.039 -2.299,-0.275 -4.315,0.398 -6.069,2.01 l 0.003,-0.016 c -2.521,2.461 -3.385,6.283 -2.557,11.465 0.818,5.104 2.957,10.443 6.435,16.023 3.484,5.616 7.415,9.996 11.767,13.166 4.531,3.26 8.646,4.432 12.359,3.488 1.635,-0.441 2.735,-1.535 3.311,-3.247 l 0.005,-0.021 c 0.466,-1.414 0.735,-3.752 0.812,-7.027 0.1,-4.33 0.285,-7.354 0.548,-9.068 l 0.003,-0.018 c 0.579,-3.654 1.783,-6.662 3.581,-9.031 0.159,-0.227 0.372,-0.381 0.619,-0.473 0.23,-0.094 0.496,-0.121 0.753,-0.064 0.719,0.107 1.536,0.375 2.423,0.771 0.187,-0.127 0.387,-0.25 0.611,-0.381 0.339,-0.211 0.704,-0.393 1.083,-0.553 0.602,-1.084 0.909,-1.668 0.929,-1.734 0.015,-0.051 0.753,-1.275 2.195,-3.678 0.047,-0.15 0.173,-0.389 0.401,-0.721 0.212,-0.34 0.339,-0.576 0.381,-0.712 0.238,-0.786 0.243,-1.647 0.027,-2.573 -8.574,-6.591 -14.669,-8.914 -18.272,-6.945"
         id="path533"
         style="fill:#d82d1c" />
      <path
         d="m 934.159,421.12 c 0.459,0.438 0.774,0.691 0.912,0.779 0.105,0.18 0.281,0.424 0.518,0.756 0.728,1.078 1.387,2.131 1.953,3.153 0.793,1.452 1.537,2.894 2.252,4.304 1.017,2.043 2.072,4.334 3.171,6.91 0.046,0.135 0.105,0.262 0.157,0.368 l 0.009,-0.021 c 1.657,4.066 2.774,7.932 3.355,11.607 l 2.559,-1.225 c -0.566,-3.201 -1.492,-6.346 -2.764,-9.441 -0.678,-1.662 -1.39,-3.309 -2.146,-4.93 l -0.008,-0.02 c -1.313,-2.785 -2.472,-5.162 -3.488,-7.127 -1.045,-2.025 -2.467,-4.471 -4.271,-7.35 -3.604,-0.84 -6.442,-0.447 -8.526,1.168 -2.104,1.605 -3.287,3.367 -3.593,5.27 0.024,0.412 0.119,0.811 0.26,1.188 0.447,1.173 0.979,2.328 1.573,3.451 1.199,2.301 2.514,5.008 3.978,8.107 0.181,0.416 0.375,0.824 0.555,1.238 0.841,1.876 1.575,3.896 2.2,6.049 0.543,1.898 1.006,3.916 1.397,6.023 -1.473,0.59 -3.298,1.732 -5.454,3.439 -2.404,1.863 -4.146,3.584 -5.201,5.129 l 8.773,-4.197 c 0.717,-0.477 1.464,-0.93 2.211,-1.348 0.384,-0.203 0.738,-0.391 1.043,-0.557 0.33,-0.158 0.606,-0.27 0.833,-0.359 0.117,-0.035 0.227,-0.09 0.313,-0.111 0.218,-0.067 0.383,-0.086 0.492,-0.061 -0.021,-0.281 -0.031,-0.547 -0.033,-0.834 -0.029,-0.18 -0.042,-0.365 -0.045,-0.539 -0.016,-0.029 -0.016,-0.07 -0.006,-0.093 -0.179,-1.862 -0.51,-3.767 -1.015,-5.747 -0.576,-2.209 -1.354,-4.52 -2.347,-6.879 l -0.271,-0.084 0.271,0.084 c -1.746,-3.93 -3.62,-7.643 -5.637,-11.172 -0.076,-0.118 -0.137,-0.244 -0.205,-0.348 -0.157,-0.289 -0.326,-0.557 -0.476,-0.832 -0.173,-0.281 -0.355,-0.582 -0.516,-0.873 l 0.154,-0.727 c 0.01,-0.064 0.026,-0.109 0.064,-0.148 l 0.034,-0.092 c 0.008,-0.023 0.023,-0.07 0.063,-0.109 v -0.039 c 0.301,-0.625 0.769,-1.334 1.438,-2.152 0.168,-0.217 0.351,-0.398 0.563,-0.561 l 1.139,-0.602 0.048,-0.023 c 0.319,-0.094 0.655,-0.16 1.007,-0.191 1.165,-0.11 2.075,-0.18 2.707,-0.231"
         id="path535"
         style="fill:#9e0c27" />
      <path
         d="m 949.045,447.754 c 0.158,0.849 0.275,1.7 0.377,2.56 4.917,2.334 8.433,5.57 10.547,9.744 1.361,2.727 2.142,5.844 2.33,9.342 0.109,2.281 -0.077,4.395 -0.579,6.332 -0.224,0.859 -0.509,1.672 -0.843,2.469 -1.338,3.051 -3.614,4.295 -6.804,3.719 -1.739,-0.287 -2.824,-0.943 -3.268,-1.947 -2.857,3.701 -5.942,4.793 -9.245,3.287 -1.234,-0.279 -1.935,-1.217 -2.087,-2.822 -0.013,-0.031 -0.011,-0.07 -0.004,-0.094 -0.536,0.413 -1.11,0.783 -1.701,1.123 -2.618,1.502 -5.095,1.281 -7.397,-0.666 -2.342,-1.83 -2.772,-4.787 -1.279,-8.84 0.264,-0.703 0.515,-1.346 0.766,-1.949 -0.102,0.07 -0.195,0.115 -0.299,0.184 -0.079,0.037 -0.171,0.084 -0.267,0.127 -1.668,0.588 -3.221,0.326 -4.656,-0.742 l 0.023,0.01 c -1.314,-0.973 -2.196,-2.172 -2.624,-3.588 -0.511,-1.432 -0.176,-3.191 1.017,-5.252 0.146,-0.262 0.307,-0.531 0.505,-0.801 l 8.773,-4.197 c -0.771,0.523 -1.52,1.096 -2.271,1.705 -3.846,3.133 -5.479,5.803 -4.902,8.016 0.023,0.088 0.052,0.188 0.083,0.291 0.46,1.244 1.468,1.898 3.056,1.95 0.427,0.007 0.909,-0.03 1.433,-0.106 0.164,-0.021 0.343,-0.049 0.524,-0.076 0.739,-0.143 1.515,-0.342 2.288,-0.615 0.696,-0.236 1.396,-0.553 2.126,-0.92 -0.875,0.67 -1.843,2.598 -2.917,5.754 -1.142,3.461 -1.201,5.592 -0.196,6.441 0.192,0.158 0.377,0.303 0.575,0.438 1.262,0.86 2.543,1.079 3.849,0.627 0.878,-0.306 1.767,-0.903 2.671,-1.8 0.783,-0.779 1.658,-1.893 2.634,-3.361 0.856,-1.316 1.794,-2.943 2.802,-4.832 -0.187,0.668 -0.928,2.662 -2.246,5.993 -0.205,0.657 -0.34,1.263 -0.419,1.782 -0.286,1.738 -0.02,2.824 0.837,3.283 0.124,0.058 0.247,0.113 0.379,0.146 0.95,0.413 1.898,0.5 2.845,0.26 1.562,-0.4 3.08,-1.707 4.558,-3.898 0.877,-1.27 1.578,-2.627 2.124,-4.102 0.023,-0.033 0.042,-0.078 0.042,-0.117 0.065,-0.146 0.114,-0.287 0.162,-0.426 0.141,-0.434 0.255,-0.797 0.339,-1.107 -0.038,0.443 -0.126,0.986 -0.237,1.639 -0.01,0.023 -0.002,0.04 -0.011,0.062 -0.127,0.697 -0.29,1.527 -0.509,2.48 -0.039,1.37 0.402,2.41 1.301,3.12 0.475,0.39 1.094,0.673 1.846,0.875 0.176,0.048 0.362,0.073 0.556,0.116 0.636,0.121 1.249,-0.211 1.839,-0.994 0.335,-0.469 0.673,-1.096 1.007,-1.891 0.185,-0.457 0.35,-0.922 0.506,-1.4 -0.008,-0.016 -0.008,-0.016 0.009,-0.023 0.562,-1.887 0.793,-3.947 0.667,-6.181 -0.319,-6.231 -3.056,-10.981 -8.188,-14.255 -0.355,-0.215 -0.711,-0.432 -1.057,-0.633 -0.455,-0.262 -0.909,-0.529 -1.395,-0.777 -0.009,0.023 0.006,0.055 0.014,0.072 -0.285,-0.156 -0.578,-0.284 -0.872,-0.414 -0.417,-0.186 -0.85,-0.365 -1.298,-0.536 -0.013,-0.188 -0.025,-0.374 -0.045,-0.538 -0.046,-0.5 -0.092,-0.996 -0.162,-1.506 -0.055,-0.434 -0.108,-0.872 -0.188,-1.316 l 2.556,-1.225 z m -24.35,17.438 c 0.036,0.117 0.089,0.227 0.126,0.342 -0.08,-0.287 -0.146,-0.584 -0.178,-0.896 -0.002,0.195 0.009,0.383 0.052,0.554"
         id="path537"
         style="fill:#9e0c27" />
      <path
         d="m 935.589,422.655 c -0.236,-0.332 -0.412,-0.576 -0.518,-0.756 -0.138,-0.088 -0.453,-0.342 -0.912,-0.779 -0.632,0.051 -1.542,0.121 -2.704,0.234 -0.352,0.031 -0.688,0.098 -1.007,0.191 l -0.048,0.023 -1.139,0.602 c -0.213,0.162 -0.396,0.344 -0.563,0.561 -0.669,0.819 -1.137,1.528 -1.438,2.153 v 0.038 c -0.04,0.039 -0.056,0.087 -0.063,0.109 l -0.034,0.092 c -0.038,0.039 -0.054,0.084 -0.064,0.148 l -0.152,0.727 c 0.158,0.291 0.341,0.593 0.514,0.873 0.149,0.275 0.319,0.543 0.476,0.832 0.068,0.104 0.129,0.23 0.205,0.348 2.017,3.529 3.891,7.242 5.637,11.172 l 0.247,0.074 -0.247,-0.074 c 0.993,2.359 1.771,4.67 2.347,6.879 0.505,1.98 0.836,3.885 1.014,5.748 -0.009,0.021 -0.009,0.062 0.007,0.092 0.003,0.174 0.016,0.359 0.045,0.539 0.002,0.287 0.013,0.553 0.033,0.834 -0.109,-0.025 -0.274,-0.006 -0.492,0.061 -0.087,0.021 -0.196,0.076 -0.313,0.111 -0.227,0.09 -0.503,0.201 -0.833,0.359 -0.305,0.166 -0.659,0.354 -1.043,0.557 -1.549,0.836 -3.045,1.863 -4.481,3.053 -3.846,3.133 -5.479,5.804 -4.902,8.018 0.023,0.086 0.052,0.186 0.083,0.289 0.46,1.244 1.468,1.898 3.056,1.949 0.427,0.008 0.909,-0.029 1.433,-0.105 0.164,-0.021 0.343,-0.049 0.524,-0.076 0.739,-0.143 1.515,-0.342 2.288,-0.615 0.696,-0.236 1.396,-0.553 2.126,-0.92 -0.875,0.67 -1.843,2.599 -2.917,5.754 -1.141,3.461 -1.2,5.593 -0.196,6.441 0.192,0.158 0.377,0.303 0.575,0.438 1.262,0.861 2.543,1.08 3.849,0.627 0.878,-0.305 1.767,-0.902 2.671,-1.799 0.783,-0.779 1.658,-1.893 2.634,-3.361 0.856,-1.316 1.794,-2.943 2.802,-4.832 -0.187,0.668 -0.928,2.663 -2.246,5.992 -0.206,0.658 -0.34,1.264 -0.419,1.783 -0.286,1.738 -0.02,2.824 0.837,3.283 0.124,0.057 0.247,0.113 0.379,0.147 0.95,0.411 1.898,0.501 2.845,0.259 1.562,-0.4 3.08,-1.707 4.558,-3.898 0.877,-1.27 1.578,-2.627 2.124,-4.102 0.023,-0.033 0.042,-0.078 0.042,-0.117 0.065,-0.146 0.115,-0.287 0.162,-0.426 0.141,-0.434 0.255,-0.797 0.339,-1.107 -0.038,0.443 -0.126,0.986 -0.237,1.64 -0.01,0.022 -0.002,0.038 -0.011,0.062 -0.127,0.697 -0.29,1.527 -0.509,2.481 -0.039,1.368 0.402,2.409 1.301,3.118 0.475,0.391 1.093,0.674 1.846,0.875 0.176,0.049 0.362,0.074 0.556,0.117 0.636,0.121 1.249,-0.211 1.839,-0.994 0.335,-0.469 0.673,-1.096 1.007,-1.891 0.185,-0.457 0.35,-0.922 0.506,-1.4 -0.008,-0.016 -0.008,-0.016 0.009,-0.023 0.562,-1.886 0.793,-3.947 0.667,-6.182 -0.32,-6.23 -3.056,-10.98 -8.188,-14.254 -0.355,-0.215 -0.711,-0.432 -1.057,-0.633 -0.455,-0.262 -0.909,-0.529 -1.396,-0.779 -0.007,0.025 0.008,0.057 0.016,0.074 -0.285,-0.156 -0.578,-0.285 -0.872,-0.414 -0.417,-0.186 -0.85,-0.364 -1.298,-0.537 -0.013,-0.188 -0.025,-0.373 -0.045,-0.536 -0.046,-0.5 -0.092,-0.997 -0.161,-1.507 -0.516,-4.055 -1.693,-8.368 -3.544,-12.924 l -0.009,0.021 c -0.052,-0.107 -0.111,-0.234 -0.157,-0.367 -1.099,-2.578 -2.154,-4.869 -3.171,-6.912 -0.715,-1.41 -1.459,-2.85 -2.254,-4.305 -0.572,-1.022 -1.232,-2.075 -1.959,-3.153"
         id="path539"
         style="fill:#d82d1c" />
      <path
         d="m 916.199,412.048 c 4.105,5.23 7.691,10.148 10.756,14.775 0.828,1.245 1.606,2.473 2.334,3.707 0.06,0.088 0.105,0.182 0.174,0.283 1.883,3.168 3.432,6.246 4.635,9.201 0.164,-0.098 0.338,-0.182 0.501,-0.278 2.586,-1.413 5.178,-2.767 7.808,-4.083 -1.057,-2.408 -2.29,-4.865 -3.693,-7.396 -1.759,-3.113 -3.532,-5.928 -5.333,-8.443 -3.111,-4.607 -6.711,-8.783 -10.794,-12.559 l -5.884,-0.85 -2.932,2.58 c 0.82,1.036 1.622,2.059 2.428,3.063"
         id="path541"
         style="fill:#d82d1c" />
      <path
         d="m 884.93,409.114 0.327,-5.229 79.145,4.942 -0.45,7.227 c -3.741,1.363 -7.674,2.473 -11.821,3.338 -9.006,1.861 -18.313,2.404 -27.943,1.607 -9.63,-0.793 -18.74,-2.855 -27.334,-6.186 -4.253,-1.652 -8.229,-3.552 -11.924,-5.699"
         id="path543"
         style="fill:#d82d1c" />
    </g>
  </g>
</svg>
