<?xml version="1.0" encoding="UTF-8" standalone="no"?>
<!-- Created with Inkscape (http://www.inkscape.org/) -->

<svg
   xmlns:dc="http://purl.org/dc/elements/1.1/"
   xmlns:cc="http://creativecommons.org/ns#"
   xmlns:rdf="http://www.w3.org/1999/02/22-rdf-syntax-ns#"
   xmlns:svg="http://www.w3.org/2000/svg"
   xmlns="http://www.w3.org/2000/svg"
   version="1.1"
   width="290"
   height="256"
   id="svg5089">
  <defs
     id="defs5091" />
  <metadata
     id="metadata5094">
    <rdf:RDF>
      <cc:Work
         rdf:about="">
        <dc:format>image/svg+xml</dc:format>
        <dc:type
           rdf:resource="http://purl.org/dc/dcmitype/StillImage" />
        <dc:title></dc:title>
      </cc:Work>
    </rdf:RDF>
  </metadata>
  <g
     transform="translate(0,-224)"
     id="layer1">
    <g
       transform="translate(-312.15411,-37.457992)"
       id="g5">
      <path
         d="m 448.827,403.462 c 8.028,-2.063 13.755,-1.766 17.172,0.856 3.35,2.431 6.416,5.925 9.2,10.499 2.681,4.374 4.982,8.355 6.89,11.941 4.7,7.715 4.612,15.281 -0.261,22.691 l -0.013,0.021 c -4.301,6.517 -10.747,10.961 -19.348,13.309 -8.972,2.461 -16.451,1.5 -22.422,-2.891 -7.032,-5.003 -10.028,-13.746 -8.988,-26.229 0.274,-3.355 0.807,-7.002 1.601,-10.904 1.064,-5.432 2.002,-9.393 2.8,-11.856 0.746,-2.863 5.193,-5.335 13.369,-7.437"
         id="path7"
         style="fill:#9e0c27" />
      <path
         d="m 379.72,360.473 c 1.792,-6.525 5.147,-12.811 10.105,-18.852 2.757,-3.375 6.119,-6.466 10.113,-9.321 -0.686,-0.183 -1.128,-0.336 -1.304,-0.444 -4.304,-2.562 -7.161,-6.32 -8.553,-11.277 -1.421,-4.934 -0.984,-9.609 1.305,-14.042 2.293,-4.415 5.748,-7.269 10.387,-8.598 4.65,-1.294 9.121,-0.651 13.414,1.929 1.519,0.917 2.867,1.98 4.028,3.186 0.402,-1.56 1.044,-3.103 1.911,-4.605 2.59,-4.51 6.422,-7.476 11.472,-8.932 5.062,-1.42 9.877,-0.881 14.448,1.616 4.583,2.474 7.588,6.184 9.013,11.134 0.833,2.959 0.957,5.827 0.361,8.631 1.261,-0.044 2.511,-0.07 3.755,-0.054 8.63,0.09 16.648,1.408 24.022,3.962 7.388,2.551 13.465,6.096 18.236,10.651 4.77,4.553 8.117,10.03 10.055,16.418 1.938,6.39 2.063,12.959 0.365,19.667 -1.699,6.713 -5.008,13.093 -9.932,19.123 -4.953,6.056 -11.071,11.409 -18.387,16.03 -7.569,4.777 -15.886,8.469 -24.924,11.035 -9.055,2.57 -18.063,3.817 -27.041,3.709 -8.662,-0.08 -16.682,-1.395 -24.054,-3.952 -7.373,-2.554 -13.536,-6.146 -18.517,-10.74 -5.125,-4.769 -8.583,-10.319 -10.376,-16.644 -1.79,-6.328 -1.764,-12.87 0.098,-19.63"
         id="path9"
         style="fill:#d82d1b" />
      <path
         d="m 389.825,341.621 c 2.757,-3.375 6.119,-6.467 10.113,-9.321 -0.686,-0.184 -1.128,-0.336 -1.304,-0.445 -4.304,-2.562 -7.161,-6.319 -8.553,-11.276 -1.421,-4.935 -0.984,-9.61 1.305,-14.042 2.293,-4.416 5.748,-7.269 10.387,-8.598 4.65,-1.295 9.121,-0.651 13.414,1.928 1.519,0.918 2.867,1.981 4.028,3.187 0.402,-1.561 1.044,-3.104 1.911,-4.606 2.59,-4.51 6.422,-7.476 11.472,-8.931 5.062,-1.42 9.877,-0.882 14.448,1.615 4.583,2.474 7.588,6.184 9.013,11.135 0.833,2.958 0.957,5.827 0.361,8.63 1.261,-0.044 2.511,-0.069 3.755,-0.054 8.63,0.091 16.648,1.408 24.022,3.963 7.387,2.55 13.465,6.095 18.236,10.651 4.77,4.552 8.117,10.03 10.055,16.417 1.938,6.391 2.063,12.959 0.365,19.667 -1.699,6.713 -5.008,13.094 -9.932,19.124 -4.953,6.055 -11.071,11.408 -18.387,16.029 -7.569,4.777 -15.887,8.469 -24.924,11.035 -9.055,2.57 -18.063,3.817 -27.041,3.709 -8.662,-0.08 -16.682,-1.395 -24.054,-3.952 -7.373,-2.553 -13.536,-6.146 -18.517,-10.74 -5.125,-4.769 -8.583,-10.319 -10.376,-16.645 -1.792,-6.328 -1.766,-12.87 0.096,-19.628 1.794,-6.525 5.149,-12.811 10.107,-18.852 z"
         id="path11"
         style="fill:none;stroke:#9e0c27;stroke-width:2.74699998;stroke-miterlimit:10" />
      <path
         d="m 399.35,330.792 c -4.01,-2.362 -6.694,-5.852 -8.073,-10.473 -1.325,-4.62 -0.977,-9 1.043,-13.136 2.058,-4.13 5.189,-6.81 9.419,-8.068 4.258,-1.282 8.346,-0.773 12.303,1.532 2.55,1.467 4.582,3.411 6.071,5.81 0.159,-2.471 0.855,-4.892 2.113,-7.233 2.286,-4.271 5.761,-7.11 10.424,-8.537 4.664,-1.428 9.136,-1.02 13.436,1.239 4.284,2.262 7.139,5.715 8.556,10.343 1.417,4.628 0.979,9.073 -1.305,13.342 -2.301,4.275 -5.771,7.132 -10.436,8.559 -4.663,1.423 -9.14,0.997 -13.424,-1.263 -0.708,-0.377 -1.389,-0.778 -2.024,-1.211 -0.501,0.061 -1.051,0.14 -1.635,0.231 -1.74,0.532 -3.096,0.91 -4.048,1.15 -0.128,0.342 -0.294,0.678 -0.455,1.036 -1.989,4.18 -5.149,6.94 -9.478,8.28 -4.275,1.291 -8.439,0.771 -12.487,-1.601"
         id="path13"
         style="fill:#ffffff" />
      <path
         d="m 421.896,307.819 c 0.897,-2.511 2.507,-4.271 4.834,-5.314 2.342,-1.052 4.717,-1.073 7.138,-0.073 2.426,1.018 4.158,2.761 5.23,5.228 1.072,2.471 1.163,4.943 0.281,7.446 -0.898,2.507 -2.506,4.266 -4.834,5.315 -2.327,1.044 -4.686,1.062 -7.107,0.061 -2.421,-1.001 -4.152,-2.742 -5.23,-5.228 -1.087,-2.463 -1.193,-4.931 -0.312,-7.435"
         id="path15" />
      <path
         d="m 400.762,307.104 c 0.848,-2.497 2.396,-4.234 4.646,-5.256 2.264,-1.027 4.569,-1.031 6.929,-0.008 2.365,1.037 4.062,2.785 5.125,5.26 1.063,2.472 1.174,4.935 0.34,7.428 -0.849,2.493 -2.395,4.235 -4.646,5.257 -2.25,1.023 -4.541,1.018 -6.901,-0.004 -2.359,-1.018 -4.056,-2.771 -5.125,-5.26 -1.077,-2.467 -1.202,-4.928 -0.368,-7.417"
         id="path17" />
      <path
         d="m 412.337,371.083 c 5.497,-0.806 10.963,-1.849 16.363,-3.153 5.402,-1.301 10.776,-2.876 16.14,-4.759 5.364,-1.882 10.762,-4.62 16.173,-8.227 l 6.262,-4.782 c 2.407,18.696 -3.138,31.915 -16.638,39.698 -3.945,2.293 -8.403,3.973 -13.348,5.024 -0.038,0.012 -0.065,0.019 -0.091,0.022 -4.855,1.344 -9.647,1.93 -14.352,1.748 -16.053,-0.557 -28.355,-9.411 -36.931,-26.597 l 8.111,1.268 c 6.713,0.643 12.813,0.567 18.31,-0.239 v -0.003 z"
         id="path19" />
      <path
         d="m 428.732,366.61 0.009,0.029 c -0.096,0.008 -0.154,0.005 -0.166,0.008 l 0.157,-0.037 z"
         id="path21" />
      <path
         d="m 436.888,329.991 c 2.254,4.66 2.585,9.538 1.03,14.643 -1.585,5.112 -4.615,8.96 -9.104,11.546 -4.479,2.565 -9.083,3.114 -13.834,1.626 -4.757,-1.449 -8.265,-4.509 -10.519,-9.169 -2.254,-4.66 -2.591,-9.556 -1.009,-14.686 1.554,-5.102 4.589,-8.935 9.084,-11.504 4.474,-2.583 9.088,-3.15 13.855,-1.668 4.751,1.484 8.243,4.551 10.497,9.212 z"
         id="path23"
         style="fill:#e78c00" />
      <path
         d="m 406.752,480.932 c -1.371,-4.505 1.291,-8.35 8.004,-11.55 3.01,-1.481 8.132,-2.389 15.403,-2.718 0.185,0.039 0.386,0.077 0.604,0.131 1.9,0.318 2.925,0.506 3.092,0.56 0.168,0.054 0.335,0.122 0.485,0.178 1.793,0.585 3.118,1.011 3.973,1.282 0.066,0.013 0.134,0.05 0.2,0.086 0.553,0.26 1.121,0.557 1.722,0.856 0.135,0.051 0.269,0.119 0.401,0.174 l -0.001,0.05 c -0.186,-0.018 -0.554,-0.075 -1.093,-0.169 -0.923,-0.134 -2.354,-0.38 -4.303,-0.716 -0.017,0 -0.421,0.044 -1.216,0.13 -0.252,0.015 -0.472,0.044 -0.69,0.055 -0.456,0.028 -0.811,0.036 -1.063,0.05 l -0.033,-0.05 c -0.741,0.021 -1.468,0.058 -2.176,0.098 -6.629,0.304 -11.345,1.116 -14.133,2.432 h -0.016 c -5.082,2.42 -7.271,5.231 -6.551,8.41 1.037,3.367 4.768,5.91 11.21,7.623 2.031,0.524 4.352,0.831 6.93,0.896 h 0.05 c 3.2,0.173 6.385,0.162 9.574,-0.069 l -0.033,-0.003 c 3.308,-0.298 6.619,-0.691 9.948,-1.174 h 0.016 c 2.214,-0.283 4.395,-0.697 6.561,-1.233 l 0.178,-0.433 c 0.017,-0.036 0.017,-0.069 0.035,-0.087 0.727,-2.073 1.047,-4.021 0.961,-5.842 -0.036,-0.795 -0.159,-1.538 -0.332,-2.248 10e-4,-0.017 10e-4,-0.032 -0.016,-0.051 -0.255,-0.881 -0.611,-1.693 -1.087,-2.464 v -0.013 c -0.213,-0.359 -0.46,-0.702 -0.741,-1.009 -0.341,-0.729 -0.765,-1.579 -1.271,-2.548 -0.406,-0.766 -0.782,-1.445 -1.127,-2.04 -0.245,-0.459 -0.489,-0.867 -0.703,-1.225 -0.147,-0.239 -0.279,-0.463 -0.41,-0.65 0.067,0.035 0.134,0.071 0.217,0.122 0.384,0.228 0.719,0.401 1.002,0.557 0.232,0.191 0.481,0.411 0.764,0.672 0.049,0.033 0.084,0.067 0.117,0.101 l 0.016,0.02 c 0.746,0.736 1.493,1.422 2.256,2.059 0.881,0.74 1.624,1.596 2.197,2.563 h -0.018 c 0.607,0.973 1.061,2.024 1.396,3.142 l 0.017,0.067 c 0.221,0.863 0.355,1.794 0.422,2.79 0.114,2.189 -0.263,4.526 -1.167,7.001 l -0.018,0.083 -0.017,0.035 -0.687,1.605 c -0.423,0.126 -0.745,0.256 -0.967,0.404 l -0.133,-0.068 c -2.354,0.582 -4.705,1.045 -7.086,1.358 h 0.016 c -3.362,0.48 -6.739,0.878 -10.099,1.188 h -0.018 c -3.29,0.228 -6.578,0.257 -9.878,0.081 -2.812,-0.066 -5.336,-0.395 -7.55,-0.992 -7.718,-2.036 -12.096,-5.212 -13.133,-9.527 v 0.02 z"
         id="path25"
         style="fill:#9e0c27" />
      <path
         d="m 409.361,480.22 c -0.72,-3.179 1.469,-5.99 6.55,-8.41 h 0.017 c 2.788,-1.314 7.504,-2.128 14.134,-2.432 0.708,-0.04 1.433,-0.077 2.176,-0.098 l 0.032,0.05 c 0.253,-0.01 0.607,-0.021 1.062,-0.05 0.22,-0.011 0.439,-0.04 0.692,-0.055 0.795,-0.086 1.198,-0.13 1.216,-0.13 1.949,0.336 3.378,0.582 4.302,0.716 0.538,0.094 0.907,0.151 1.092,0.169 l 0.002,-0.05 c -0.134,-0.051 -0.268,-0.123 -0.4,-0.174 -0.603,-0.3 -1.17,-0.596 -1.723,-0.856 0.423,-0.025 0.845,-0.067 1.283,-0.112 2.381,-0.278 4.105,-0.452 5.151,-0.553 2.177,-0.212 3.71,-0.188 4.564,0.066 0.215,0.356 0.459,0.766 0.704,1.225 0.346,0.595 0.721,1.274 1.127,2.04 0.506,0.969 0.931,1.818 1.271,2.548 0.282,0.307 0.529,0.649 0.742,1.009 v 0.018 c 0.475,0.766 0.832,1.578 1.087,2.459 0.015,0.02 0.015,0.034 0.014,0.051 0.174,0.712 0.296,1.453 0.333,2.248 0.086,1.821 -0.235,3.769 -0.962,5.845 -0.017,0.015 -0.017,0.048 -0.035,0.084 l -0.176,0.433 c -2.167,0.536 -4.348,0.955 -6.562,1.233 h -0.017 c -3.329,0.482 -6.639,0.882 -9.948,1.177 h 0.034 c -3.188,0.231 -6.375,0.243 -9.574,0.069 h -0.05 c -2.578,-0.062 -4.899,-0.372 -6.93,-0.896 -6.44,-1.714 -10.171,-4.257 -11.208,-7.624"
         id="path27"
         style="fill:#d82d1b" />
      <path
         d="m 443.152,450.009 1.349,-0.15 0.186,1.77 0.102,0.91 -1.35,0.152 c -4.384,0.47 -7.149,2.005 -8.28,4.584 -1.027,2.815 -0.354,6.793 2.024,11.966 l 0.355,0.74 c -1.333,-0.354 -2.412,-0.588 -3.273,-0.689 -2.395,-5.546 -2.934,-9.896 -1.601,-13.028 1.315,-3.56 4.806,-5.648 10.488,-6.255"
         id="path29"
         style="fill:#9e0c27" />
      <path
         d="m 458.48,459.818 -1.282,0.422 c -2.866,0.962 -4.618,2.328 -5.261,4.062 -0.506,1.839 0.118,4.111 1.872,6.824 l 0.725,1.131 -2.26,1.467 -0.742,-1.131 c -0.016,-0.051 -0.051,-0.101 -0.101,-0.151 -0.22,-0.354 -0.422,-0.707 -0.607,-1.025 -1.736,-3.086 -2.226,-5.73 -1.467,-7.923 0.674,-2.36 2.714,-4.199 6.122,-5.496 0.286,-0.115 0.573,-0.217 0.859,-0.317 l 0.354,-0.12 0.929,-0.303 0.859,2.56 z"
         id="path31"
         style="fill:#9e0c27" />
      <path
         d="m 450.016,453.614 c 1.904,0.878 3.523,1.738 4.856,2.581 0.859,0.537 1.468,0.992 1.821,1.364 l -0.354,0.12 c -0.287,0.101 -0.574,0.202 -0.86,0.317 -3.407,1.297 -5.448,3.136 -6.121,5.496 -0.76,2.192 -0.271,4.837 1.467,7.923 0.186,0.318 0.387,0.672 0.607,1.025 h -0.743 c -2.512,0 -4.907,-0.134 -7.2,-0.42 -0.304,-0.15 -0.742,-0.34 -1.298,-0.556 -1.332,-0.505 -2.733,-0.961 -4.216,-1.365 -0.152,-0.05 -0.287,-0.084 -0.438,-0.12 l -0.354,-0.74 c -2.377,-5.173 -3.052,-9.15 -2.023,-11.966 1.129,-2.579 3.896,-4.114 8.279,-4.584 l 1.349,-0.152 -0.101,-0.91 c 0.152,0.033 0.304,0.064 0.473,0.117 1.314,0.353 2.933,0.979 4.856,1.87"
         id="path33"
         style="fill:#d82d1b" />
      <path
         d="m 457.084,402.905 c 0.961,0.154 1.869,0.445 2.714,0.889 0.9,0.467 1.851,0.99 2.855,1.586 0.596,0.352 1.091,0.658 1.45,0.914 0.104,0.062 0.205,0.123 0.312,0.199 3.08,2.258 5.906,5.497 8.481,9.725 2.677,4.362 4.955,8.313 6.851,11.865 0.021,0.01 0.029,0.044 0.039,0.076 4.103,6.741 4.029,13.346 -0.214,19.815 -3.971,5.966 -9.907,10.033 -17.821,12.206 -8.044,2.206 -14.758,1.383 -20.122,-2.465 -6.196,-4.592 -8.832,-12.541 -7.891,-23.834 0.264,-3.267 0.785,-6.804 1.557,-10.601 0.834,-4.154 1.562,-7.436 2.209,-9.808 0.025,-0.51 0.163,-1.205 0.407,-2.086 0.41,-1.322 0.636,-2.073 0.672,-2.272 0.161,-0.526 0.302,-0.928 0.427,-1.188 0.211,-0.47 0.638,-0.91 1.253,-1.29 1.658,-1.065 5.465,-2.365 11.462,-3.88 2.299,-0.114 4.087,-0.064 5.359,0.149 m -3.414,0.731 -0.282,-0.015 0.022,0.083 c 0.081,-0.021 0.179,-0.048 0.26,-0.068"
         id="path35"
         style="fill:#d82d1b" />
      <path
         d="m 408.154,453.04 c 1.772,1.398 3.574,1.896 5.401,1.518 2.317,-0.491 4.521,-2.674 6.618,-6.574 1.036,-1.931 1.865,-3.826 2.452,-5.677 2.948,-8.823 3.598,-15.831 1.956,-21.056 -1.78,-5.613 -4.58,-8.295 -8.397,-8.057 -1.891,0.109 -3.743,0.949 -5.557,2.514 -1.788,1.521 -3.494,3.715 -5.116,6.573 -1.56,2.716 -2.571,6.442 -3.068,11.179 -0.51,4.974 -0.178,9.07 0.977,12.301 1.19,3.312 2.758,5.733 4.734,7.279"
         id="path37"
         style="fill:#d82d1b" />
      <path
         d="m 403.42,445.761 c 1.19,3.312 2.758,5.733 4.734,7.279 1.772,1.398 3.574,1.896 5.401,1.518"
         id="path39"
         style="fill:none;stroke:#9e0c27;stroke-width:2.50099993;stroke-linejoin:round;stroke-miterlimit:10" />
      <path
         d="m 413.556,454.558 c 2.317,-0.491 4.521,-2.674 6.618,-6.574 1.036,-1.931 1.865,-3.826 2.452,-5.677 2.949,-8.823 3.597,-15.831 1.956,-21.056 -1.779,-5.613 -4.58,-8.295 -8.398,-8.057 -1.889,0.109 -3.741,0.95 -5.556,2.514 -1.788,1.521 -3.493,3.715 -5.115,6.573 -1.56,2.715 -2.571,6.442 -3.069,11.179 -0.51,4.974 -0.177,9.07 0.978,12.301"
         id="path41"
         style="fill:none;stroke:#9e0c27;stroke-width:2.50099993;stroke-linecap:square;stroke-miterlimit:10" />
      <path
         d="m 452.467,448.81 c 0.071,0.068 0.162,0.148 0.255,0.246 0.885,0.871 1.686,1.969 2.424,3.295 0.236,0.444 0.693,1.213 1.337,2.301 0.548,0.989 0.895,1.804 1.057,2.439 0.004,0.018 0.06,0.368 0.189,1.084 0.03,0.253 0.052,0.473 0.045,0.65 l -46.952,-6.729 c 0.036,-0.34 0.086,-0.891 0.185,-1.664 0.185,-1.453 0.295,-2.316 0.306,-2.617 -0.005,-1.039 0.504,-2.108 1.517,-3.183 1.118,-1.206 2.345,-1.78 3.698,-1.726 0.666,-0.117 1.846,-0.123 3.519,-0.047 0.968,0.051 1.717,0.118 2.237,0.248 -0.11,0.185 -0.232,0.388 -0.365,0.613 -0.036,0.062 -0.06,0.104 -0.101,0.15 -0.236,0.371 -0.452,0.684 -0.679,0.953 l 20.483,3.255 c 0.9,0.052 1.905,0.107 3.021,0.188 3.025,0.201 5.219,0.408 6.579,0.633 0.188,-0.016 0.36,-0.023 0.531,-0.034 0.253,-0.026 0.49,-0.052 0.714,-0.055"
         id="path43"
         style="fill:#d82d1b" />
      <path
         d="m 451.708,448.8 c -0.085,0.002 -0.155,0.002 -0.242,0.01 -0.224,0.004 -0.461,0.029 -0.714,0.058 -0.171,0.011 -0.342,0.019 -0.53,0.034 -1.362,-0.229 -3.555,-0.432 -6.579,-0.633 -1.551,-0.112 -1.717,-0.113 -3.021,-0.189 l -20.484,-3.254 c 0.228,-0.27 0.913,-1.903 1.023,-2.089 0.178,-0.323 0.442,-0.216 0.518,-0.391 l 20.611,3.276 c 0.928,0.232 2.258,0.537 3.987,0.912 0.54,0.141 1.936,0.567 4.192,1.297 0.871,0.277 1.555,0.506 2.067,0.672 l -0.049,0.289 c -0.227,-0.011 -0.488,-0.013 -0.779,0.008"
         id="path45"
         style="fill:#9e0c27" />
      <polygon
         points="457.773,458.825 459.271,459.03 458.892,461.699 409.72,454.655 410.099,451.985 410.822,452.096 "
         id="polygon47"
         style="fill:#9e0c27" />
      <path
         d="m 511.092,415.528 c 0.033,-0.018 0.052,-0.047 0.084,-0.064 1.214,0.917 3.059,1.853 5.529,2.777 3.209,1.232 5.781,1.824 7.707,1.753 2.285,-0.036 3.896,-0.632 4.822,-1.763 0.953,-1.052 1.504,-2.37 1.649,-3.934 l 0.006,0.023 c 0.167,-1.714 -0.388,-3.113 -1.696,-4.197 -0.084,-0.055 -0.166,-0.109 -0.238,-0.156 -0.106,-0.05 -0.188,-0.104 -0.297,-0.155 0.621,-0.089 1.272,-0.202 1.981,-0.335 4.073,-0.778 6.291,-2.598 6.636,-5.428 0.465,-2.856 -0.582,-5.003 -3.117,-6.412 -0.571,-0.314 -1.162,-0.604 -1.765,-0.842 0.022,-0.004 0.056,-0.025 0.074,-0.05 1.244,-0.921 1.67,-1.962 1.287,-3.112 -0.398,-3.46 -2.824,-5.457 -7.284,-5.975 0.605,-0.859 0.607,-2.078 -0.016,-3.649 -1.106,-2.906 -3.26,-4.165 -6.432,-3.753 -0.818,0.123 -1.629,0.289 -2.447,0.53 -1.842,0.546 -3.672,1.443 -5.494,2.659 -2.784,1.89 -4.965,4.072 -6.53,6.543 -2.386,3.805 -3.308,8.299 -2.791,13.497 -0.041,0.033 -0.074,0.052 -0.106,0.069 0.028,0.08 0.059,0.159 0.066,0.264 0.062,0.181 0.1,0.365 0.143,0.574 0.006,0.084 0.024,0.178 0.039,0.246 0.08,0.271 0.17,0.53 0.274,0.798 0.108,0.294 0.202,0.575 0.3,0.82 0.475,1.251 0.953,2.163 1.419,2.731 0.216,0.282 0.534,0.712 0.957,1.311 0.109,0.17 0.226,0.33 0.315,0.468 0.098,0.122 0.188,0.224 0.275,0.339 0.477,0.613 0.975,1.162 1.508,1.654 0.201,0.213 0.402,0.424 0.603,0.637 0.121,0.119 0.243,0.238 0.36,0.335 0.298,0.278 0.604,0.539 0.92,0.789 0.33,0.255 0.619,0.487 0.857,0.704 0.014,0.007 0.014,0.007 0.029,0.018 0.154,0.102 0.285,0.208 0.373,0.286 m 2.408,-1.834 c -0.358,-0.219 -0.688,-0.414 -0.975,-0.582 -0.294,-0.195 -0.522,-0.365 -0.709,-0.506 -0.09,-0.081 -0.187,-0.145 -0.246,-0.203 -0.164,-0.148 -0.262,-0.27 -0.293,-0.372 -0.024,0.003 -0.043,0.032 -0.066,0.035 -0.111,-0.071 -0.278,-0.183 -0.508,-0.354 -0.08,-0.094 -0.186,-0.202 -0.293,-0.312 -1.72,-1.794 -2.686,-2.787 -2.861,-3.003 -0.312,-0.348 -0.776,-1.192 -1.419,-2.555 -0.126,-0.265 -0.249,-0.503 -0.361,-0.755 -0.071,-0.167 -0.127,-0.325 -0.179,-0.46 0.031,-0.018 0.066,-0.035 0.097,-0.057 -0.019,-0.092 -0.038,-0.185 -0.043,-0.268 -0.063,-0.362 -0.11,-0.712 -0.159,-1.062 -0.039,-0.308 -0.078,-0.615 -0.094,-0.923 -0.009,0.012 -0.027,0.041 -0.05,0.043 -0.036,-0.52 -0.043,-1.025 -0.052,-1.53 -0.006,-0.384 -0.004,-0.78 -0.002,-1.182 0.148,-5.839 2.697,-10.442 7.666,-13.79 1.777,-1.21 3.582,-2.039 5.416,-2.512 0.014,0.008 0.014,0.008 0.023,-0.007 0.471,-0.109 0.934,-0.202 1.4,-0.275 0.82,-0.121 1.502,-0.151 2.053,-0.108 0.938,0.096 1.514,0.436 1.73,1.016 0.062,0.181 0.133,0.348 0.18,0.521 0.207,0.715 0.281,1.36 0.195,1.946 -0.137,1.091 -0.776,1.97 -1.92,2.616 -0.893,0.289 -1.658,0.566 -2.295,0.809 -0.024,0.004 -0.033,0.02 -0.056,0.021 -0.592,0.231 -1.083,0.431 -1.466,0.615 0.296,-0.084 0.652,-0.17 1.078,-0.268 0.14,-0.029 0.279,-0.058 0.431,-0.08 0.032,-0.018 0.079,-0.025 0.115,-0.021 1.487,-0.281 2.948,-0.379 4.43,-0.285 2.534,0.13 4.358,0.73 5.464,1.816 0.666,0.658 1.064,1.482 1.195,2.469 0.036,0.123 0.054,0.253 0.066,0.383 0.047,0.929 -0.713,1.69 -2.285,2.315 -0.467,0.193 -1.031,0.38 -1.674,0.534 -3.395,0.568 -5.402,0.947 -6.039,1.125 2.051,-0.109 3.854,-0.141 5.358,-0.091 1.693,0.075 3.043,0.241 4.071,0.503 1.184,0.295 2.115,0.732 2.802,1.299 1.021,0.854 1.476,2.014 1.392,3.477 -0.013,0.23 -0.039,0.455 -0.076,0.689 -0.2,1.25 -1.983,2.254 -5.393,3.027 -3.129,0.684 -5.195,0.842 -6.18,0.456 0.665,0.415 1.271,0.834 1.811,1.29 0.608,0.502 1.154,1.041 1.641,1.578 0.111,0.134 0.224,0.267 0.32,0.391 0.322,0.395 0.592,0.773 0.797,1.127 0.746,1.329 0.707,2.482 -0.088,3.479 -0.07,0.076 -0.14,0.148 -0.199,0.211 -1.533,1.566 -4.541,1.549 -9.022,-0.062 -1.687,-0.59 -3.271,-1.312 -4.728,-2.168 m 13.972,2.477 c -0.078,0.088 -0.144,0.186 -0.222,0.276 -0.12,0.118 -0.266,0.224 -0.428,0.314 0.24,-0.182 0.453,-0.38 0.65,-0.59"
         id="path49"
         style="fill:#9e0c27" />
      <path
         d="m 512.525,413.112 c 0.287,0.168 0.617,0.363 0.975,0.582 1.457,0.856 3.041,1.58 4.73,2.174 4.48,1.607 7.488,1.625 9.021,0.059 0.061,-0.062 0.129,-0.135 0.197,-0.21 0.797,-0.997 0.836,-2.15 0.091,-3.479 -0.205,-0.354 -0.476,-0.732 -0.798,-1.123 -0.096,-0.128 -0.209,-0.261 -0.32,-0.395 -0.486,-0.537 -1.032,-1.076 -1.641,-1.578 -0.541,-0.456 -1.146,-0.875 -1.811,-1.29 0.984,0.386 3.051,0.228 6.18,-0.456 3.412,-0.773 5.192,-1.777 5.394,-3.027 0.037,-0.235 0.063,-0.459 0.075,-0.689 0.085,-1.462 -0.37,-2.623 -1.391,-3.477 -0.687,-0.566 -1.619,-1.004 -2.803,-1.299 -1.027,-0.262 -2.378,-0.428 -4.07,-0.503 -1.506,-0.05 -3.309,-0.019 -5.359,0.091 0.637,-0.178 2.645,-0.557 6.039,-1.125 0.643,-0.154 1.207,-0.342 1.675,-0.534 1.571,-0.625 2.332,-1.384 2.285,-2.315 -0.013,-0.13 -0.031,-0.26 -0.067,-0.384 -0.131,-0.985 -0.529,-1.81 -1.195,-2.468 -1.105,-1.086 -2.93,-1.687 -5.463,-1.816 -1.481,-0.094 -2.943,0.004 -4.431,0.284 -0.036,-0.003 -0.083,0.005 -0.115,0.026 -0.153,0.019 -0.291,0.047 -0.431,0.076 -0.426,0.098 -0.782,0.184 -1.078,0.268 0.383,-0.185 0.874,-0.384 1.466,-0.615 0.022,-0.002 0.031,-0.018 0.056,-0.021 0.638,-0.242 1.402,-0.52 2.293,-0.809 1.146,-0.646 1.785,-1.525 1.922,-2.616 0.086,-0.586 0.012,-1.231 -0.195,-1.946 -0.047,-0.174 -0.118,-0.341 -0.18,-0.521 -0.217,-0.58 -0.793,-0.92 -1.73,-1.015 -0.551,-0.043 -1.232,-0.014 -2.052,0.108 -0.468,0.072 -0.931,0.166 -1.401,0.274 -0.01,0.015 -0.01,0.015 -0.023,0.007 -1.834,0.473 -3.639,1.301 -5.416,2.512 -4.969,3.348 -7.518,7.951 -7.665,13.789 -0.003,0.402 -0.007,0.799 0.002,1.183 0.007,0.505 0.014,1.011 0.05,1.536 0.023,-0.008 0.042,-0.037 0.051,-0.049 0.016,0.308 0.055,0.615 0.094,0.923 0.049,0.35 0.097,0.7 0.16,1.062 0.004,0.083 0.023,0.176 0.043,0.268 -0.033,0.021 -0.065,0.039 -0.098,0.057 0.053,0.135 0.107,0.293 0.18,0.46 0.11,0.252 0.234,0.49 0.36,0.755 0.644,1.362 1.104,2.206 1.418,2.555 0.177,0.216 1.144,1.209 2.862,3.003 0.107,0.11 0.214,0.219 0.294,0.312 0.229,0.17 0.396,0.282 0.507,0.354 0.023,-0.004 0.042,-0.033 0.064,-0.036 0.033,0.102 0.131,0.224 0.295,0.372 0.06,0.063 0.156,0.122 0.246,0.203 0.186,0.138 0.415,0.308 0.708,0.503"
         id="path51"
         style="fill:#d82d1b" />
      <path
         d="m 505.705,398.425 c 0,0.305 0,0.608 0.017,0.93 l -39.729,6.268 -0.337,-2.177 -0.086,-0.486 40.221,-6.354 c -0.051,0.827 -0.086,1.433 -0.086,1.819"
         id="path53"
         style="fill:#9e0c27" />
      <path
         d="m 507.206,406.499 c 0.118,0.32 0.219,0.64 0.319,0.926 l -34.028,3.895 h -0.066 -0.019 c -0.051,0 -0.101,0 -0.15,0.019 l -1.957,0.217 0.303,2.579 c -0.083,0.019 -0.168,0.019 -0.253,0.019 -0.319,0 -0.74,-0.492 -1.246,-1.485 -0.104,-0.217 -0.204,-0.404 -0.287,-0.57 -1.365,-0.086 -3.069,-1.232 -5.128,-3.439 -0.741,-0.792 -1.416,-1.619 -2.04,-2.461 -0.539,-0.76 -0.809,-1.195 -0.809,-1.346 0,-0.594 0.572,-0.998 1.736,-1.252 0.657,-0.152 1.351,-0.201 2.075,-0.152 l 0.337,2.176 39.729,-6.269 c 0.119,2.136 0.607,4.532 1.484,7.143"
         id="path55"
         style="fill:#d82d1b" />
      <path
         d="m 507.526,407.425 c 0.403,1.049 0.828,1.907 1.248,2.58 l -34.907,3.977 c -0.017,0 -0.05,0 -0.067,0.019 -0.102,0.015 -0.201,0.015 -0.302,0.015 l -1.891,0.221 v -0.102 l -0.304,-2.579 1.957,-0.217 c 0.051,-0.019 0.101,-0.019 0.151,-0.019 h 0.018 0.068 l 34.029,-3.895 z"
         id="path57"
         style="fill:#9e0c27" />
      <path
         d="m 486.214,409.968 c 0.031,0.02 0.047,0.047 0.08,0.068 1.262,-0.837 3.151,-1.654 5.663,-2.423 3.264,-1.03 5.854,-1.464 7.763,-1.276 2.271,0.173 3.836,0.868 4.687,2.045 0.884,1.105 1.348,2.45 1.399,4.011 l 0.007,-0.025 c 0.061,1.713 -0.576,3.075 -1.94,4.067 -0.087,0.051 -0.175,0.098 -0.246,0.143 -0.11,0.042 -0.195,0.094 -0.306,0.136 0.61,0.127 1.254,0.278 1.949,0.452 4,1.021 6.092,2.962 6.264,5.797 0.285,2.867 -0.885,4.937 -3.488,6.184 -0.588,0.279 -1.191,0.531 -1.807,0.729 0.023,0.006 0.055,0.026 0.07,0.054 1.184,0.991 1.541,2.05 1.092,3.171 -0.607,3.418 -3.141,5.252 -7.604,5.493 0.551,0.894 0.479,2.104 -0.239,3.624 -1.274,2.822 -3.489,3.943 -6.616,3.34 -0.809,-0.17 -1.602,-0.385 -2.4,-0.672 -1.796,-0.659 -3.561,-1.658 -5.297,-2.981 -2.652,-2.046 -4.684,-4.347 -6.09,-6.894 -2.141,-3.927 -2.779,-8.45 -1.951,-13.584 -0.039,-0.032 -0.07,-0.055 -0.1,-0.076 0.031,-0.075 0.064,-0.152 0.08,-0.256 0.073,-0.178 0.121,-0.358 0.178,-0.564 0.008,-0.078 0.033,-0.172 0.053,-0.238 0.097,-0.266 0.201,-0.52 0.318,-0.781 0.127,-0.281 0.237,-0.556 0.352,-0.793 0.547,-1.215 1.078,-2.097 1.576,-2.631 0.229,-0.264 0.574,-0.672 1.031,-1.242 0.119,-0.163 0.242,-0.311 0.34,-0.445 0.104,-0.115 0.203,-0.213 0.295,-0.32 0.51,-0.582 1.039,-1.096 1.601,-1.552 0.213,-0.198 0.425,-0.397 0.638,-0.595 0.127,-0.111 0.254,-0.225 0.375,-0.314 0.314,-0.254 0.633,-0.495 0.965,-0.724 0.344,-0.237 0.645,-0.447 0.895,-0.649 0.014,-0.008 0.014,-0.008 0.029,-0.014 0.156,-0.096 0.292,-0.192 0.384,-0.265 m 2.282,1.969 c -0.369,0.191 -0.709,0.369 -1.008,0.518 -0.301,0.177 -0.539,0.332 -0.732,0.463 -0.092,0.072 -0.193,0.129 -0.256,0.184 -0.172,0.139 -0.277,0.253 -0.316,0.354 -0.021,-0.008 -0.037,-0.036 -0.062,-0.044 -0.115,0.069 -0.289,0.166 -0.526,0.322 -0.084,0.086 -0.195,0.19 -0.311,0.293 -1.818,1.676 -2.838,2.607 -3.027,2.811 -0.331,0.324 -0.843,1.138 -1.564,2.453 -0.143,0.252 -0.277,0.483 -0.404,0.729 -0.081,0.164 -0.146,0.314 -0.206,0.445 0.03,0.018 0.062,0.039 0.094,0.062 -0.024,0.091 -0.05,0.18 -0.06,0.263 -0.084,0.355 -0.153,0.701 -0.223,1.049 -0.057,0.299 -0.115,0.604 -0.149,0.91 -0.009,-0.014 -0.025,-0.043 -0.048,-0.051 -0.065,0.517 -0.105,1.02 -0.144,1.521 -0.03,0.379 -0.053,0.776 -0.073,1.174 -0.211,5.812 2.045,10.539 6.775,14.166 1.693,1.311 3.438,2.245 5.23,2.828 0.014,-0.01 0.014,-0.01 0.021,0.004 0.463,0.139 0.918,0.262 1.376,0.361 0.809,0.17 1.484,0.243 2.033,0.235 0.938,-0.04 1.529,-0.343 1.781,-0.907 0.072,-0.177 0.151,-0.339 0.209,-0.506 0.25,-0.697 0.363,-1.338 0.313,-1.925 -0.069,-1.088 -0.651,-2.002 -1.75,-2.714 -0.868,-0.344 -1.61,-0.664 -2.231,-0.943 -0.021,-0.006 -0.029,-0.022 -0.051,-0.025 -0.576,-0.267 -1.051,-0.491 -1.42,-0.7 0.288,0.101 0.639,0.209 1.055,0.331 0.137,0.037 0.272,0.077 0.424,0.103 0.031,0.021 0.076,0.036 0.113,0.032 1.459,0.369 2.908,0.556 4.383,0.553 2.527,0.025 4.375,-0.463 5.541,-1.475 0.701,-0.613 1.146,-1.404 1.337,-2.377 0.045,-0.123 0.069,-0.248 0.09,-0.38 0.104,-0.92 -0.604,-1.722 -2.129,-2.438 -0.452,-0.22 -1.001,-0.44 -1.63,-0.635 -3.338,-0.77 -5.312,-1.266 -5.934,-1.482 2.031,0.23 3.82,0.377 5.319,0.416 1.685,0.029 3.036,-0.057 4.077,-0.25 1.193,-0.227 2.148,-0.6 2.863,-1.127 1.063,-0.782 1.588,-1.906 1.593,-3.367 0.002,-0.23 -0.011,-0.455 -0.032,-0.689 -0.122,-1.253 -1.833,-2.359 -5.175,-3.338 -3.068,-0.863 -5.111,-1.149 -6.114,-0.824 0.688,-0.375 1.312,-0.751 1.877,-1.174 0.639,-0.459 1.213,-0.961 1.727,-1.467 0.121,-0.127 0.24,-0.252 0.344,-0.372 0.344,-0.37 0.637,-0.729 0.863,-1.069 0.82,-1.274 0.852,-2.424 0.121,-3.461 -0.064,-0.08 -0.127,-0.16 -0.184,-0.222 -1.43,-1.653 -4.419,-1.817 -8.969,-0.489 -1.716,0.484 -3.335,1.105 -4.831,1.871 m 14.031,-1.614 c -0.071,-0.091 -0.129,-0.192 -0.201,-0.287 -0.112,-0.125 -0.252,-0.238 -0.407,-0.339 0.227,0.196 0.427,0.406 0.608,0.626"
         id="path59"
         style="fill:#9e0c27" />
      <path
         d="m 487.489,412.454 c 0.298,-0.148 0.638,-0.326 1.006,-0.518 1.498,-0.766 3.117,-1.387 4.832,-1.871 4.552,-1.33 7.54,-1.166 8.97,0.488 0.055,0.065 0.118,0.141 0.184,0.221 0.73,1.037 0.699,2.187 -0.123,3.461 -0.225,0.34 -0.518,0.699 -0.861,1.069 -0.105,0.12 -0.224,0.245 -0.343,0.372 -0.515,0.507 -1.089,1.008 -1.728,1.467 -0.563,0.423 -1.189,0.799 -1.877,1.174 1.004,-0.325 3.045,-0.039 6.113,0.825 3.342,0.978 5.053,2.084 5.176,3.337 0.021,0.234 0.034,0.459 0.032,0.689 -0.006,1.461 -0.528,2.585 -1.593,3.367 -0.717,0.527 -1.67,0.9 -2.864,1.127 -1.04,0.193 -2.391,0.279 -4.077,0.25 -1.498,-0.039 -3.287,-0.186 -5.318,-0.416 0.623,0.217 2.596,0.713 5.932,1.482 0.63,0.194 1.18,0.415 1.631,0.635 1.524,0.719 2.234,1.519 2.131,2.439 -0.022,0.131 -0.047,0.256 -0.091,0.38 -0.19,0.972 -0.636,1.763 -1.338,2.376 -1.165,1.012 -3.013,1.5 -5.54,1.475 -1.477,0.003 -2.924,-0.182 -4.384,-0.553 -0.036,0.004 -0.082,-0.011 -0.112,-0.029 -0.152,-0.028 -0.287,-0.068 -0.424,-0.105 -0.417,-0.122 -0.768,-0.23 -1.057,-0.331 0.371,0.209 0.847,0.434 1.42,0.7 0.023,0.004 0.031,0.02 0.054,0.025 0.62,0.279 1.362,0.6 2.231,0.943 1.098,0.712 1.68,1.626 1.75,2.717 0.049,0.584 -0.063,1.225 -0.314,1.922 -0.059,0.167 -0.139,0.329 -0.209,0.506 -0.251,0.564 -0.844,0.867 -1.782,0.907 -0.549,0.008 -1.224,-0.065 -2.032,-0.235 -0.457,-0.1 -0.914,-0.223 -1.377,-0.361 -0.007,-0.014 -0.007,-0.014 -0.021,-0.004 -1.792,-0.582 -3.537,-1.518 -5.229,-2.827 -4.73,-3.628 -6.985,-8.354 -6.775,-14.166 0.021,-0.398 0.043,-0.796 0.072,-1.175 0.039,-0.502 0.076,-1.005 0.146,-1.521 0.022,0.008 0.038,0.037 0.047,0.051 0.034,-0.307 0.093,-0.611 0.147,-0.91 0.072,-0.348 0.14,-0.693 0.225,-1.049 0.01,-0.083 0.035,-0.172 0.061,-0.263 -0.033,-0.022 -0.063,-0.039 -0.095,-0.062 0.06,-0.131 0.125,-0.28 0.206,-0.445 0.127,-0.245 0.262,-0.477 0.405,-0.729 0.72,-1.315 1.233,-2.129 1.563,-2.453 0.189,-0.203 1.209,-1.135 3.027,-2.811 0.114,-0.103 0.227,-0.207 0.311,-0.293 0.236,-0.156 0.41,-0.253 0.526,-0.318 0.023,0.004 0.039,0.032 0.062,0.04 0.039,-0.102 0.144,-0.216 0.315,-0.355 0.063,-0.054 0.164,-0.11 0.257,-0.183 0.193,-0.131 0.432,-0.286 0.733,-0.459 v -0.003 z"
         id="path61"
         style="fill:#d82d1b" />
      <path
         d="m 483.627,415.46 c -0.218,0.391 -0.438,1.012 -0.691,1.857 -0.102,0.184 -0.219,0.404 -0.336,0.689 l -34.908,-7.5 -1.163,-0.254 0.556,-2.646 36.542,7.854 z"
         id="path63"
         style="fill:#9e0c27" />
      <path
         d="m 447.624,410.76 c 0.018,-0.086 0.051,-0.169 0.067,-0.253 l 34.908,7.5 c -0.287,0.658 -0.658,1.582 -1.097,2.781 -0.759,1.734 -1.248,2.897 -1.435,3.486 -0.219,0.607 -0.37,1.199 -0.471,1.771 l -33.17,-7.614 c 0.017,-0.709 0.051,-1.215 0.101,-1.537 0.253,-1.6 0.405,-2.694 0.472,-3.269 0.104,-0.962 0.306,-1.905 0.625,-2.865"
         id="path65"
         style="fill:#d82d1b" />
      <path
         d="m 445.23,418.14 1.196,0.291 33.171,7.614 c -0.102,0.574 -0.152,1.132 -0.152,1.651 v 0.98 0.117 l -34.823,-8.023 0.608,-2.63 z"
         id="path67"
         style="fill:#9e0c27" />
    </g>
  </g>
</svg>
