<?xml version="1.0" encoding="UTF-8" standalone="no"?>
<!-- Created with Inkscape (http://www.inkscape.org/) -->

<svg
   xmlns:dc="http://purl.org/dc/elements/1.1/"
   xmlns:cc="http://creativecommons.org/ns#"
   xmlns:rdf="http://www.w3.org/1999/02/22-rdf-syntax-ns#"
   xmlns:svg="http://www.w3.org/2000/svg"
   xmlns="http://www.w3.org/2000/svg"
   xmlns:sodipodi="http://sodipodi.sourceforge.net/DTD/sodipodi-0.dtd"
   xmlns:inkscape="http://www.inkscape.org/namespaces/inkscape"
   width="290"
   height="256"
   id="svg5089"
   version="1.1"
   inkscape:version="0.48.3.1 r9886"
   sodipodi:docname="New document 2">
  <defs
     id="defs5091" />
  <sodipodi:namedview
     id="base"
     pagecolor="#ffffff"
     bordercolor="#666666"
     borderopacity="1.0"
     inkscape:pageopacity="0.0"
     inkscape:pageshadow="2"
     inkscape:zoom="0.77472527"
     inkscape:cx="151.55319"
     inkscape:cy="240"
     inkscape:current-layer="layer1"
     inkscape:document-units="px"
     showgrid="false"
     inkscape:window-width="1014"
     inkscape:window-height="729"
     inkscape:window-x="2"
     inkscape:window-y="84"
     inkscape:window-maximized="0" />
  <metadata
     id="metadata5094">
    <rdf:RDF>
      <cc:Work
         rdf:about="">
        <dc:format>image/svg+xml</dc:format>
        <dc:type
           rdf:resource="http://purl.org/dc/dcmitype/StillImage" />
        <dc:title></dc:title>
      </cc:Work>
    </rdf:RDF>
  </metadata>
  <g
     id="layer1"
     inkscape:label="Layer 1"
     inkscape:groupmode="layer"
     transform="translate(0,-224)">
    <g
       transform="translate(-69.806529,191.73841)"
       id="g687">
      <path
         inkscape:connector-curvature="0"
         style="fill:#9e0c27"
         d="m 217.846,161.183 c 8.341,2.474 13.335,5.83 14.996,10.034 1.703,3.996 2.576,8.797 2.613,14.418 0.052,5.385 -0.026,10.215 -0.243,14.469 0.063,9.485 -4.098,16.25 -12.485,20.297 l -0.022,0.012 c -7.39,3.55 -15.591,4.071 -24.599,1.546 -9.403,-2.624 -15.615,-7.524 -18.622,-14.696 -3.63,-8.3 -1.607,-17.789 6.068,-28.47 2.058,-2.873 4.503,-5.871 7.326,-8.958 3.891,-4.318 6.872,-7.377 8.919,-9.164 2.22,-2.178 7.556,-2.006 16.049,0.512 z"
         id="path689" />
      <path
         inkscape:connector-curvature="0"
         style="fill:#9e0c27"
         d="m 199.572,174.827 c 0.125,0.016 0.253,0.017 0.365,0.016 0.354,0.814 0.723,1.629 1.08,2.426 -0.103,0.051 -0.203,0.085 -0.301,0.104 -0.116,0.032 -0.213,0.036 -0.322,0.02 -10.168,-0.451 -18.73,-1.692 -25.671,-3.723 l -0.015,-0.002 c -0.139,-0.035 -1.378,-0.439 -3.684,-1.211 l 0.342,-2.555 c 2.566,0.854 3.925,1.308 4.08,1.344 l -0.016,-0.001 c 6.56,1.897 14.618,3.089 24.142,3.582"
         id="path691" />
      <path
         inkscape:connector-curvature="0"
         style="fill:#9e0c27"
         d="m 204.551,185.912 c 0.623,0.003 1.246,-0.009 1.87,-0.021 0.316,0.744 0.548,1.509 0.698,2.296 0.014,0.017 0.012,0.033 0.01,0.048 -0.193,0.119 -0.392,0.187 -0.632,0.187 -0.272,0.012 -0.544,0.007 -0.816,0.018 -1.326,0.015 -2.651,0.013 -3.986,-0.022 -5.109,-0.094 -10.2,-0.568 -15.258,-1.404 -3.996,-0.664 -7.954,-1.496 -11.888,-2.5 0.468,1.514 0.476,2.871 0.018,4.038 -0.584,1.853 -2.241,3.275 -4.96,4.267 -0.452,0.163 -0.914,0.277 -1.357,0.361 l 0.362,-2.695 c 0.049,-0.01 0.084,-0.037 0.133,-0.047 1.829,-0.665 2.97,-1.565 3.43,-2.732 0.367,-1.196 0.054,-2.673 -0.921,-4.448 -0.365,-0.495 -0.848,-1.054 -1.451,-1.678 l 0.418,-3.12 c 0.056,0.056 0.113,0.112 0.169,0.167 1.177,1.098 2.071,2.048 2.709,2.884 4.528,1.228 9.117,2.225 13.751,3.006 4.949,0.821 9.915,1.278 14.897,1.371 0.937,0.029 1.876,0.043 2.804,0.024"
         id="path693" />
      <path
         inkscape:connector-curvature="0"
         style="fill:#9e0c27"
         d="m 168.611,190.485 -0.361,2.695 c -1.978,0.358 -3.893,-0.122 -5.742,-1.454 -1.215,-0.817 -2.272,-2.33 -3.209,-4.514 -3.969,0.569 -6.864,-1.175 -8.697,-5.234 -0.014,-0.017 -0.012,-0.033 -0.026,-0.051 -0.034,-0.1 -0.085,-0.202 -0.132,-0.321 -0.205,-0.139 -0.426,-0.281 -0.675,-0.441 -0.015,-0.002 -0.015,-0.002 -0.014,-0.018 -0.415,-0.231 -1.093,-0.417 -2.05,-0.546 -0.738,-0.083 -2.361,0.115 -4.846,0.564 -2.929,0.549 -4.431,0.796 -4.47,0.742 -1.459,-0.195 -2.649,-0.721 -3.573,-1.563 l -0.016,-0.003 c -1.224,-1.105 -1.72,-2.527 -1.503,-4.269 0.125,-1.531 1.312,-3.128 3.565,-4.82 1.598,-1.207 3.162,-1.923 4.68,-2.183 -0.139,-0.034 -0.28,-0.053 -0.42,-0.072 -0.39,-0.068 -0.782,-0.12 -1.177,-0.158 -0.015,-0.002 -0.015,-0.002 -0.031,-0.003 -1.771,-0.238 -3.207,-0.956 -4.308,-2.141 l 0.001,-0.015 c -1.185,-1.276 -1.679,-2.716 -1.447,-4.327 0.766,-5.722 3.545,-8.238 8.33,-7.517 0.614,0.066 1.743,0.456 3.359,1.134 0.015,0.003 0.015,0.003 0.031,0.006 0.676,0.313 1.566,0.816 2.657,1.488 -0.79,-1.845 -1.078,-3.383 -0.88,-4.634 0.224,-1.789 1.153,-3.244 2.769,-4.352 l 0.002,-0.016 c 1.652,-1.136 3.392,-1.621 5.242,-1.485 1.852,0.105 3.587,0.976 5.191,2.578 1.478,1.475 2.635,3.082 3.47,4.837 0.815,1.656 1.852,4.396 3.132,8.19 0.935,2.79 1.823,5.095 2.664,6.915 0.443,0.155 0.856,0.289 1.239,0.405 l -0.343,2.555 c -0.596,-0.192 -1.254,-0.408 -1.971,-0.647 -0.078,-0.011 -0.17,-0.039 -0.262,-0.067 -0.319,-0.122 -0.562,-0.331 -0.713,-0.638 -0.948,-1.978 -1.959,-4.555 -3.021,-7.712 -1.233,-3.66 -2.238,-6.284 -3.01,-7.903 -0.726,-1.501 -1.721,-2.879 -2.972,-4.148 -1.112,-1.105 -2.308,-1.711 -3.584,-1.836 -1.279,-0.091 -2.476,0.26 -3.619,1.047 l -0.015,-0.001 c -0.969,0.684 -1.532,1.55 -1.69,2.614 -0.11,1.182 0.323,2.708 1.331,4.598 0.406,0.9 0.796,1.798 1.187,2.697 0.217,0.523 0.435,1.031 0.657,1.524 -0.062,0.103 -0.152,0.186 -0.243,0.271 -1.804,-0.834 -3.724,-1.744 -5.778,-2.737 -0.346,-0.158 -0.676,-0.313 -1.007,-0.454 -0.55,-0.313 -1.041,-0.57 -1.446,-0.768 -0.015,-0.001 -0.015,-0.001 -0.029,-0.019 -1.299,-0.542 -2.2,-0.854 -2.684,-0.935 -3.13,-0.338 -4.963,1.443 -5.486,5.346 -0.095,0.832 0.154,1.6 0.781,2.274 l 0.016,0.002 c 0.713,0.75 1.627,1.191 2.754,1.358 0.015,0.003 0.015,0.003 0.031,0.005 0.425,0.041 0.848,0.097 1.27,0.17 1.234,0.196 2.405,0.497 3.515,0.916 0.029,0.021 0.061,0.025 0.075,0.042 1.555,0.895 2.85,2.073 3.885,3.505 0.445,0.618 0.858,1.231 1.236,1.857 -1.172,-0.652 -2.413,-1.153 -3.725,-1.489 -0.974,-0.241 -1.932,-0.354 -2.874,-0.351 -0.495,0.124 -0.99,0.25 -1.499,0.357 -0.577,0.13 -1.113,0.329 -1.643,0.594 -0.188,0.086 -0.36,0.19 -0.489,0.316 -0.531,0.264 -1.071,0.607 -1.622,1.029 -1.511,1.153 -2.368,2.188 -2.574,3.133 -0.127,0.829 0.117,1.516 0.699,2.057 0.586,0.508 1.327,0.815 2.22,0.935 0.037,-0.042 1.266,-0.278 3.686,-0.719 2.894,-0.522 4.772,-0.717 5.631,-0.587 1.459,0.195 2.501,0.51 3.127,0.961 l 0.016,0.002 c 0.334,0.237 0.63,0.42 0.897,0.568 0.267,0.147 0.462,0.365 0.567,0.65 0.081,0.233 0.179,0.454 0.261,0.673 0.014,0.017 0.014,0.017 0.012,0.033 1.149,2.5 2.849,3.749 5.128,3.767 0.01,0.048 0.038,0.084 0.048,0.118 0.054,-0.042 0.092,-0.084 0.145,-0.125 0.097,-0.003 0.192,-0.006 0.289,-0.009 -0.008,-0.065 -0.029,-0.147 -0.034,-0.228 0.447,-0.483 0.72,-1.212 0.833,-2.17 0.103,-0.895 0.376,-1.738 0.817,-2.524 0.103,0.062 0.189,0.137 0.287,0.231 -0.031,0.714 0.004,1.404 0.119,2.09 0.1,0.571 0.246,1.149 0.408,1.729 0.079,0.602 0.188,1.094 0.314,1.462 l -0.001,0.016 c 0.011,0.034 0.023,0.068 0.036,0.085 0.776,2.066 1.67,3.495 2.671,4.25 1.482,1.078 3.026,1.347 4.63,0.813 z"
         id="path695" />
      <path
         inkscape:connector-curvature="0"
         style="fill:#9e0c27"
         d="m 170.221,178.46 -0.417,3.12 c -0.337,-0.349 -0.719,-0.719 -1.145,-1.111 -0.496,-0.465 -0.934,-0.891 -1.329,-1.279 -0.958,-0.942 -1.611,-1.667 -1.946,-2.143 -0.243,-0.336 -0.454,-0.667 -0.633,-0.995 -0.048,-0.245 -0.109,-0.492 -0.218,-0.762 -0.361,-0.99 -0.39,-1.967 -0.102,-2.934 0.124,-0.447 0.275,-0.858 0.439,-1.25 0.067,-0.022 0.134,-0.046 0.199,-0.053 0.018,-0.014 0.049,-0.01 0.065,-0.008 0.016,0.003 0.03,0.005 0.048,-0.009 0.163,0.581 0.329,1.13 0.512,1.664 0.262,0.785 0.624,1.535 1.056,2.248 0.288,0.47 0.653,0.837 1.081,1.102 0.181,0.199 0.389,0.435 0.628,0.674 0.46,0.493 1.054,1.068 1.762,1.736"
         id="path697" />
      <path
         inkscape:connector-curvature="0"
         style="fill:#d82d1c"
         d="m 200.394,177.393 c 0.109,0.015 0.206,0.012 0.322,-0.02 l 3.835,8.539 c -0.928,0.019 -1.867,0.006 -2.804,-0.024 -4.982,-0.093 -9.948,-0.55 -14.897,-1.371 -4.634,-0.781 -9.224,-1.778 -13.751,-3.006 -0.638,-0.836 -1.533,-1.785 -2.709,-2.884 -0.779,-0.742 -1.429,-1.372 -1.932,-1.902 -0.239,-0.239 -0.447,-0.476 -0.627,-0.675 -0.428,-0.264 -0.793,-0.632 -1.082,-1.102 -0.431,-0.713 -0.793,-1.462 -1.055,-2.248 -0.184,-0.534 -0.35,-1.083 -0.512,-1.663 -0.018,0.013 -0.033,0.011 -0.049,0.009 -0.015,-0.002 -0.046,-0.007 -0.064,0.007 -0.066,0.007 -0.133,0.031 -0.199,0.054 -0.164,0.391 -0.315,0.803 -0.439,1.249 -0.288,0.967 -0.259,1.944 0.102,2.934 0.109,0.27 0.17,0.518 0.218,0.763 0.179,0.327 0.39,0.658 0.633,0.994 0.335,0.476 0.988,1.201 1.946,2.144 0.395,0.388 0.833,0.813 1.329,1.279 1.149,1.078 2.013,2.008 2.595,2.788 0.974,1.775 1.288,3.252 0.921,4.448 -0.46,1.167 -1.601,2.067 -3.43,2.732 -1.659,0.592 -3.236,0.333 -4.764,-0.766 -1,-0.756 -1.895,-2.184 -2.67,-4.25 -0.014,-0.017 -0.025,-0.051 -0.037,-0.085 l 0.001,-0.016 c -0.126,-0.368 -0.235,-0.861 -0.314,-1.462 -0.161,-0.58 -0.308,-1.158 -0.407,-1.729 -0.116,-0.686 -0.151,-1.377 -0.119,-2.091 -0.099,-0.093 -0.185,-0.168 -0.288,-0.23 -0.441,0.786 -0.712,1.628 -0.817,2.523 -0.112,0.958 -0.386,1.688 -0.832,2.171 0.004,0.081 0.025,0.163 0.033,0.228 -0.096,0.003 -0.192,0.006 -0.288,0.009 -0.054,0.041 -0.092,0.084 -0.145,0.125 -0.011,-0.034 -0.038,-0.07 -0.049,-0.118 -2.279,-0.018 -3.978,-1.268 -5.128,-3.767 0.002,-0.016 0.002,-0.016 -0.012,-0.033 -0.082,-0.219 -0.18,-0.44 -0.26,-0.674 -0.106,-0.284 -0.299,-0.503 -0.568,-0.65 -0.267,-0.147 -0.562,-0.331 -0.896,-0.567 l -0.017,-0.002 c -0.626,-0.451 -1.668,-0.766 -3.127,-0.961 -0.858,-0.131 -2.736,0.065 -5.63,0.587 -2.421,0.441 -3.649,0.676 -3.686,0.719 -0.894,-0.12 -1.635,-0.427 -2.221,-0.935 -0.582,-0.541 -0.826,-1.228 -0.698,-2.057 0.205,-0.946 1.063,-1.98 2.573,-3.133 0.552,-0.423 1.092,-0.765 1.622,-1.029 0.129,-0.126 0.302,-0.23 0.489,-0.316 0.53,-0.265 1.067,-0.464 1.644,-0.595 0.508,-0.107 1.003,-0.232 1.5,-0.357 0.941,-0.002 1.899,0.11 2.873,0.352 1.311,0.336 2.552,0.837 3.724,1.489 -0.378,-0.626 -0.791,-1.239 -1.234,-1.857 -1.037,-1.432 -2.332,-2.61 -3.887,-3.505 -0.014,-0.018 -0.045,-0.021 -0.075,-0.042 -1.107,-0.419 -2.28,-0.72 -3.515,-0.917 -0.42,-0.072 -0.844,-0.128 -1.27,-0.169 -0.015,-0.002 -0.015,-0.002 -0.031,-0.005 -1.126,-0.167 -2.04,-0.608 -2.754,-1.358 l -0.016,-0.003 c -0.627,-0.673 -0.875,-1.441 -0.78,-2.274 0.522,-3.902 2.356,-5.684 5.486,-5.345 0.484,0.081 1.384,0.393 2.684,0.935 0.013,0.017 0.013,0.017 0.028,0.019 0.406,0.198 0.897,0.455 1.446,0.768 0.331,0.14 0.663,0.296 1.008,0.454 2.053,0.993 3.973,1.903 5.777,2.736 0.091,-0.084 0.182,-0.168 0.244,-0.271 -0.221,-0.492 -0.44,-1.001 -0.657,-1.524 -0.391,-0.898 -0.782,-1.796 -1.187,-2.696 -1.009,-1.89 -1.442,-3.416 -1.332,-4.599 0.158,-1.063 0.721,-1.929 1.69,-2.613 l 0.017,0.001 c 1.141,-0.787 2.338,-1.138 3.618,-1.047 1.276,0.124 2.471,0.731 3.584,1.836 1.25,1.269 2.246,2.647 2.971,4.148 0.772,1.619 1.778,4.243 3.01,7.903 1.062,3.157 2.073,5.734 3.021,7.712 0.151,0.307 0.394,0.516 0.713,0.638 0.092,0.028 0.184,0.056 0.263,0.067 3.591,1.183 5.471,1.801 5.655,1.858 l 0.016,0.002 c 6.94,2.03 15.502,3.272 25.67,3.723"
         id="path699" />
      <path
         inkscape:connector-curvature="0"
         style="fill:#d82d1c"
         d="m 194.438,212.839 -2.681,-10.137 c -20.702,-6.092 -29.748,-1.068 -27.137,15.049 -5.336,-6.68 -11.215,-11.213 -17.634,-13.627 -6.42,-2.414 -10.709,-1.832 -12.855,1.755 -2.16,3.575 -1.36,8.724 2.373,15.445 3.158,5.684 9.519,11.726 19.046,18.109 1.003,0.661 2.042,1.338 3.106,2.016 6.873,-0.423 11.804,-2.444 14.779,-6.078 2.974,-3.633 3.915,-8.779 2.794,-15.417 -1.132,-6.648 4.95,-9.016 18.209,-7.115"
         id="path701" />
      <path
         inkscape:connector-curvature="0"
         style="fill:none;stroke:#9e0c27;stroke-width:2.82999992;stroke-miterlimit:10"
         d="m 194.438,212.839 c -13.259,-1.901 -19.341,0.466 -18.209,7.115 1.121,6.638 0.18,11.784 -2.794,15.417 -2.975,3.634 -7.906,5.655 -14.779,6.078 -1.064,-0.678 -2.103,-1.355 -3.106,-2.016 -9.527,-6.383 -15.888,-12.425 -19.046,-18.109 -3.733,-6.721 -4.533,-11.87 -2.373,-15.445 2.146,-3.587 6.435,-4.169 12.855,-1.755 6.419,2.414 12.298,6.947 17.634,13.627 -2.611,-16.117 6.435,-21.141 27.137,-15.049 l 2.681,10.137 z"
         id="path703" />
      <path
         inkscape:connector-curvature="0"
         style="fill:#d82d1c"
         d="m 218.094,215.16 -9.852,1.96 c 1.151,18.358 8.057,29.295 20.731,32.781 0.061,9.073 1.8,16.36 5.226,21.845 3.623,5.827 7.374,7.967 11.264,6.441 3.875,-1.532 6.378,-6.09 7.525,-13.667 0.796,-5.25 0.037,-11.998 -2.262,-20.197 -0.509,-1.841 -1.108,-3.742 -1.781,-5.734 -0.312,-0.898 -0.635,-1.82 -0.966,-2.765 -0.05,-0.101 -0.087,-0.194 -0.115,-0.304 -0.083,-0.115 -0.151,-0.224 -0.227,-0.356 -2.909,-4.049 -6.663,-4.461 -11.277,-1.204 -4.861,3.416 -9.083,2.793 -12.696,-1.846 -3.614,-4.64 -5.471,-10.291 -5.57,-16.954"
         id="path705" />
      <path
         inkscape:connector-curvature="0"
         style="fill:none;stroke:#9e0c27;stroke-width:2.83100009;stroke-miterlimit:10"
         d="m 251.318,244.085 c -0.194,0.087 -0.382,0.158 -0.593,0.237 m 0,0.001 c 2.299,8.2 3.059,14.947 2.263,20.197 -1.148,7.578 -3.65,12.136 -7.526,13.668 -3.889,1.525 -7.641,-0.614 -11.263,-6.441 -3.426,-5.485 -5.165,-12.772 -5.226,-21.845 -12.675,-3.486 -19.58,-14.424 -20.731,-32.781 m 40.703,21.468 c 0.673,1.993 1.272,3.894 1.78,5.734 m -42.483,-27.202 9.852,-1.96 c 0.099,6.663 1.956,12.314 5.569,16.953 3.614,4.64 7.836,5.263 12.697,1.846 4.613,-3.256 8.367,-2.844 11.277,1.205 0.076,0.132 0.144,0.24 0.227,0.356 0.028,0.109 0.065,0.203 0.115,0.304 0.331,0.945 0.653,1.866 0.966,2.764"
         id="path707" />
      <path
         inkscape:connector-curvature="0"
         style="fill:#d82d1c"
         d="m 161.507,92.412 c 4.505,-5.472 10.401,-10.044 17.722,-13.696 4.077,-2.045 8.614,-3.563 13.651,-4.583 -0.576,-0.47 -0.933,-0.804 -1.055,-0.983 -3.015,-4.288 -4.136,-9.102 -3.344,-14.438 0.754,-5.321 3.172,-9.603 7.256,-12.862 4.082,-3.24 8.603,-4.487 13.604,-3.773 4.998,0.749 8.993,3.276 11.989,7.581 1.059,1.527 1.893,3.116 2.484,4.766 1.052,-1.318 2.325,-2.518 3.799,-3.584 4.402,-3.2 9.334,-4.397 14.781,-3.627 5.443,0.806 9.814,3.38 13.112,7.722 3.319,4.327 4.6,9.161 3.843,14.5 -0.469,3.184 -1.579,5.981 -3.348,8.405 1.224,0.497 2.428,1.009 3.61,1.555 8.206,3.777 15.302,8.466 21.252,14.062 5.968,5.6 10.257,11.587 12.864,17.981 2.609,6.394 3.462,13.058 2.579,19.995 -0.883,6.936 -3.575,13.266 -8.07,18.956 -4.496,5.689 -10.387,10.37 -17.672,14.026 -7.324,3.67 -15.461,6.169 -24.426,7.461 -9.277,1.324 -18.801,1.295 -28.534,-0.118 -9.75,-1.415 -18.892,-4.076 -27.423,-8.021 -8.24,-3.782 -15.337,-8.471 -21.286,-14.067 -5.951,-5.597 -10.303,-11.665 -13.094,-18.191 -2.853,-6.75 -3.783,-13.532 -2.788,-20.345 0.995,-6.816 3.821,-13.055 8.494,-18.722"
         id="path709" />
      <path
         inkscape:connector-curvature="0"
         style="fill:none;stroke:#9e0c27;stroke-width:2.87599993;stroke-miterlimit:10"
         d="m 179.229,78.716 c 4.078,-2.045 8.615,-3.563 13.651,-4.583 -0.575,-0.47 -0.933,-0.805 -1.055,-0.983 -3.015,-4.288 -4.136,-9.102 -3.344,-14.438 0.754,-5.322 3.172,-9.603 7.256,-12.862 4.082,-3.24 8.603,-4.488 13.605,-3.773 4.997,0.749 8.992,3.276 11.988,7.58 1.06,1.528 1.894,3.117 2.484,4.767 1.053,-1.318 2.326,-2.518 3.799,-3.584 4.403,-3.201 9.335,-4.397 14.781,-3.627 5.443,0.806 9.814,3.379 13.112,7.722 3.319,4.326 4.6,9.16 3.844,14.5 -0.47,3.184 -1.579,5.981 -3.349,8.405 1.224,0.497 2.428,1.009 3.61,1.555 8.206,3.777 15.302,8.466 21.252,14.062 5.968,5.6 10.257,11.587 12.865,17.981 2.608,6.394 3.461,13.058 2.578,19.994 -0.883,6.937 -3.575,13.267 -8.069,18.957 -4.496,5.689 -10.388,10.37 -17.673,14.026 -7.323,3.67 -15.461,6.169 -24.426,7.461 -9.276,1.324 -18.801,1.295 -28.534,-0.118 -9.75,-1.416 -18.892,-4.077 -27.422,-8.021 -8.241,-3.782 -15.337,-8.471 -21.287,-14.067 -5.951,-5.597 -10.302,-11.665 -13.093,-18.191 -2.854,-6.75 -3.783,-13.532 -2.788,-20.346 0.995,-6.814 3.82,-13.055 8.493,-18.721 4.505,-5.472 10.402,-10.044 17.722,-13.696 z"
         id="path711" />
      <path
         inkscape:connector-curvature="0"
         style="fill:#ffffff"
         d="m 192.964,72.441 c -2.819,-3.975 -3.89,-8.456 -3.229,-13.464 0.712,-4.983 2.917,-9.02 6.617,-12.109 3.735,-3.066 7.872,-4.289 12.452,-3.682 4.618,0.595 8.306,2.83 11.099,6.729 1.809,2.489 2.918,5.218 3.313,8.149 1.211,-2.296 2.911,-4.312 5.115,-6.011 4.011,-3.105 8.548,-4.332 13.613,-3.7 5.066,0.631 9.163,2.936 12.306,6.932 3.124,3.995 4.372,8.516 3.744,13.547 -0.627,5.029 -2.945,9.088 -6.955,12.192 -4.029,3.103 -8.568,4.348 -13.634,3.717 -5.064,-0.632 -9.159,-2.954 -12.284,-6.949 -0.203,-0.26 -0.39,-0.502 -0.593,-0.762 -1.145,-0.27 -2.299,-0.595 -3.501,-0.981 -1.219,-0.387 -2.298,-0.883 -3.218,-1.506 -0.309,0.306 -0.655,0.607 -1,0.908 -3.689,3.145 -7.89,4.432 -12.601,3.863 -4.636,-0.596 -8.39,-2.876 -11.244,-6.873"
         id="path713" />
      <path
         inkscape:connector-curvature="0"
         style="fill:#282525"
         d="m 224.363,62.312 c 1.931,-2.015 4.222,-3.007 6.892,-3.012 2.688,-0.002 4.966,0.992 6.85,2.986 1.883,2.01 2.792,4.415 2.759,7.234 -0.032,2.819 -1.003,5.22 -2.918,7.236 -1.931,2.015 -4.221,3.007 -6.892,3.012 -2.671,0.005 -4.932,-0.988 -6.816,-2.98 -1.886,-1.995 -2.794,-4.399 -2.76,-7.235 0.016,-2.822 0.971,-5.224 2.885,-7.241"
         id="path715" />
      <path
         inkscape:connector-curvature="0"
         style="fill:#1c1616"
         d="m 193.916,64.817 c 0.017,-2.838 0.958,-5.26 2.826,-7.283 1.868,-2.022 4.091,-3.041 6.705,-3.071 2.579,-0.033 4.785,0.935 6.597,2.919 1.81,2.001 2.7,4.403 2.686,7.225 -0.051,2.835 -0.993,5.256 -2.826,7.283 -1.868,2.023 -4.091,3.041 -6.704,3.071 -2.613,0.012 -4.816,-0.974 -6.629,-2.957 -1.812,-1.985 -2.705,-4.369 -2.655,-7.187"
         id="path717" />
      <path
         inkscape:connector-curvature="0"
         style="fill:#282525"
         d="m 177.428,108.417 c 2.7,2.089 5.44,3.973 8.247,5.658 3.566,2.185 7.212,4.068 10.954,5.633 3.93,1.653 8.09,3.171 12.483,4.519 -0.362,-0.173 0.654,0.091 3.03,0.805 2.375,0.715 5.532,1.412 9.484,2.095 3.952,0.682 7.849,1.006 11.688,1.005 3.014,0.024 6.025,-0.152 9.037,-0.563 2.25,-0.334 4.472,-0.764 6.672,-1.256 -3.382,1.556 -6.871,2.739 -10.471,3.547 -3.249,0.725 -6.573,1.14 -9.956,1.231 -3.016,0.102 -6.026,-0.065 -9.043,-0.524 -3.102,-0.447 -5.627,-0.985 -7.576,-1.6 -1.935,-0.611 -3.272,-1.017 -4.024,-1.245 -0.736,-0.222 -1.859,-0.535 -3.381,-0.94 -1.522,-0.405 -3.765,-1.282 -6.726,-2.63 -2.899,-1.294 -5.736,-2.842 -8.514,-4.646 -3.121,-2.007 -6.095,-4.281 -8.939,-6.809 -3.15,-2.794 -6.094,-5.874 -8.847,-9.245 1.911,1.71 3.871,3.375 5.882,4.965"
         id="path719" />
      <path
         inkscape:connector-curvature="0"
         style="fill:#e78c00"
         d="m 229.178,87.8 c 0.159,5.418 -1.612,10.223 -5.281,14.436 -3.703,4.209 -8.244,6.59 -13.64,7.142 -5.377,0.537 -10.01,-0.911 -13.912,-4.363 -3.924,-3.42 -5.964,-7.848 -6.124,-13.266 -0.159,-5.418 1.615,-10.24 5.321,-14.466 3.668,-4.212 8.207,-6.577 13.602,-7.111 5.378,-0.555 10.03,0.877 13.95,4.332 3.902,3.452 5.925,7.878 6.084,13.296"
         id="path721" />
      <path
         inkscape:connector-curvature="0"
         style="fill:#d82d1c"
         d="m 220.835,162.113 c 2.133,1.135 3.714,2.142 4.744,3.022 0.782,0.658 1.442,1.409 1.962,2.266 0.56,0.905 1.134,1.888 1.715,2.967 0.345,0.637 0.625,1.182 0.812,1.607 0.06,0.109 0.119,0.22 0.173,0.347 1.555,3.693 2.349,8.138 2.384,13.334 0.057,5.369 -0.027,10.16 -0.236,14.379 0.013,0.022 0.002,0.056 -0.008,0.09 0.054,8.283 -3.575,14.193 -10.887,17.73 -6.796,3.229 -14.333,3.69 -22.63,1.378 -8.431,-2.353 -14.028,-6.718 -16.78,-13.076 -3.1,-7.477 -1.183,-16.057 5.763,-25.719 1.998,-2.798 4.38,-5.705 7.121,-8.705 2.996,-3.295 5.421,-5.855 7.284,-7.643 0.298,-0.445 0.796,-0.998 1.491,-1.657 1.083,-0.969 1.693,-1.524 1.832,-1.685 0.43,-0.389 0.773,-0.674 1.025,-0.839 0.444,-0.31 1.065,-0.475 1.826,-0.488 2.067,-0.064 6.197,0.817 12.409,2.692 m 1.006,1.758 c 0.085,0.025 0.186,0.056 0.271,0.081 l -0.246,-0.166 -0.025,0.085 z"
         id="path723" />
      <path
         inkscape:connector-curvature="0"
         style="fill:#9e0c27"
         d="m 227.899,171.08 c -0.063,0.003 -0.141,-0.003 -0.205,0 l -0.013,-0.01 c -1.191,-0.026 -2.36,-0.121 -3.484,-0.29 -0.019,0.131 -0.013,0.257 0.016,0.378 1.057,0.619 2.112,1.238 3.159,1.872 0.12,0.072 0.238,0.145 0.359,0.217 0.4,0.182 0.825,0.358 1.257,0.558 0.271,0.124 0.56,0.257 0.847,0.391 1.2,0.583 2.375,1.174 3.513,1.759 1.166,0.606 2.312,1.177 3.435,1.755 1.002,0.505 1.987,1.041 2.968,1.615 0.98,0.573 1.938,1.154 2.885,1.748 1.143,0.713 2.267,1.455 3.383,2.214 1.115,0.757 2.221,1.53 3.318,2.316 l 0.009,-0.014 c 1.118,0.821 2.213,1.647 3.307,2.473 1.09,0.866 2.204,1.726 3.343,2.579 0.88,0.676 1.725,1.372 2.567,2.107 0.323,0.278 0.661,0.564 0.999,0.851 l 0.291,-0.213 0.493,-0.743 -0.023,-0.976 0.465,-0.699 c -0.132,-0.12 -0.264,-0.242 -0.404,-0.347 -0.872,-0.753 -1.778,-1.486 -2.693,-2.203 -1.114,-0.86 -2.214,-1.711 -3.313,-2.561 l -0.016,-0.01 c -1.1,-0.85 -2.233,-1.679 -3.38,-2.519 l -0.015,-0.008 c -1.128,-0.806 -2.249,-1.587 -3.379,-2.354 -1.145,-0.775 -2.299,-1.536 -3.457,-2.258 l -0.014,-0.009 c -0.964,-0.604 -1.95,-1.202 -2.961,-1.795 -1.026,-0.601 -2.055,-1.163 -3.089,-1.686 l -0.014,-0.01 c -1.122,-0.577 -2.268,-1.149 -3.42,-1.745 -1.167,-0.604 -2.368,-1.188 -3.582,-1.782 l -0.014,-0.008 c -0.357,-0.155 -0.704,-0.324 -1.036,-0.485 -0.594,-0.032 -1.187,-0.065 -1.781,-0.098 -0.102,0 -0.219,-0.01 -0.321,-0.01"
         id="path725" />
      <path
         inkscape:connector-curvature="0"
         style="fill:#d82d1c"
         d="m 227.372,173.03 c -0.136,1.777 0.117,3.65 0.776,5.602 0.82,2.459 1.72,4.887 2.673,7.263 0.478,1.168 1.11,1.981 1.93,2.417 0,-0.103 -0.006,-0.229 0.004,-0.346 0.006,-0.753 -0.041,-1.517 -0.166,-2.289 0.382,0.211 0.78,0.433 1.178,0.654 0.025,-0.006 0.057,-0.027 0.09,-0.048 l -0.046,0.075 c 6.257,3.442 12.138,7.435 17.63,11.97 0.348,-0.136 0.712,-0.264 1.066,-0.376 l 0.948,-2.983 1.239,-0.762 4.419,-0.309 0.448,-0.3 c -0.338,-0.286 -0.675,-0.572 -0.998,-0.85 -0.842,-0.735 -1.687,-1.431 -2.567,-2.107 -1.139,-0.854 -2.254,-1.714 -3.343,-2.579 -1.095,-0.827 -2.189,-1.653 -3.307,-2.473 l -0.009,0.014 c -1.097,-0.786 -2.204,-1.559 -3.318,-2.317 -1.116,-0.759 -2.24,-1.501 -3.383,-2.213 -0.947,-0.594 -1.905,-1.175 -2.885,-1.749 -0.982,-0.573 -1.966,-1.11 -2.969,-1.614 -1.123,-0.578 -2.268,-1.149 -3.435,-1.755 -1.137,-0.586 -2.313,-1.177 -3.512,-1.76 -0.287,-0.133 -0.576,-0.266 -0.847,-0.39 -0.432,-0.2 -0.857,-0.376 -1.258,-0.558 -0.12,-0.072 -0.239,-0.144 -0.358,-0.217 m 5.011,11.705 0.111,-0.116 c 0.038,0.104 0.062,0.2 0.091,0.322 -0.064,-0.061 -0.137,-0.145 -0.202,-0.206"
         id="path727" />
      <path
         inkscape:connector-curvature="0"
         style="fill:#9e0c27"
         d="m 233.812,186.358 c -0.015,-0.009 -0.029,-0.018 -0.044,-0.027 -0.398,-0.221 -0.796,-0.442 -1.179,-0.653 0.125,0.771 0.173,1.535 0.167,2.288 -0.01,0.118 -0.004,0.244 -0.004,0.346 -0.026,0.21 -0.05,0.42 -0.066,0.614 5.624,3.101 10.943,6.672 15.943,10.703 0.92,-0.506 1.858,-0.939 2.812,-1.3 -5.491,-4.535 -11.374,-8.528 -17.629,-11.971"
         id="path729" />
      <path
         inkscape:connector-curvature="0"
         style="fill:#d82d1c"
         d="m 259.113,193.898 -4.419,0.309 -1.239,0.762 -0.948,2.983 c -0.354,0.112 -0.718,0.239 -1.066,0.376 0.126,0.096 0.226,0.199 0.352,0.295 l 0.015,0.009 c 0.126,0.097 0.358,0.32 0.747,0.657 l 0.861,0.909 c -0.308,0.203 -0.6,0.415 -0.877,0.636 -1.746,1.599 -3.397,3.277 -4.975,5.04 -0.843,1.492 -1.225,2.796 -1.122,3.941 l 0.006,0.024 c 0.161,1.12 0.832,2.037 2.042,2.771 0.444,0.248 1.075,0.488 1.92,0.713 1.243,0.345 2.472,0.476 3.693,0.418 2.34,-0.116 4.334,-0.91 6.002,-2.414 0.631,-0.334 1.215,-0.757 1.78,-1.253 1.281,1.532 2.686,2.957 4.213,4.25 0.609,0.512 1.205,0.812 1.768,0.928 1.105,0.506 2.453,0.812 4.015,0.9 2.254,0.16 3.825,-0.443 4.718,-1.782 0.355,-0.583 0.573,-1.248 0.639,-1.965 -0.052,-0.051 -0.101,-0.103 -0.152,-0.153 0.15,-0.686 0.102,-1.349 -0.144,-1.989 -0.345,-0.883 -0.848,-1.638 -1.511,-2.264 -0.063,-0.101 -0.116,-0.215 -0.163,-0.305 0.347,0.273 0.702,0.529 1.082,0.779 0.702,0.528 1.422,1.026 2.129,1.514 0.215,0.151 0.447,0.273 0.667,0.385 0.05,0.051 0.086,0.094 0.131,0.121 l 0.059,0.036 c 1.913,0.994 3.826,1.581 5.733,1.776 l -0.01,0.014 c 2.779,0.274 4.804,-0.606 6.067,-2.62 0.499,-0.925 0.482,-2.08 -0.058,-3.449 -0.655,-1.583 -1.798,-2.869 -3.458,-3.875 -0.892,-0.52 -2.131,-1.005 -3.704,-1.447 -2.455,-0.772 -4.96,-1.329 -7.499,-1.66 -0.566,-0.078 -1.135,-0.117 -1.705,-0.155 -0.671,-0.039 -1.328,-0.069 -1.976,-0.113 -0.017,-0.074 -0.019,-0.136 -0.014,-0.214 2.105,-0.299 4.269,-1.073 6.506,-2.335 0.09,-0.047 0.189,-0.109 0.279,-0.158 0.463,-0.189 0.935,-0.394 1.401,-0.623 1.332,-0.849 2.455,-1.926 3.37,-3.233 0.248,-0.443 0.406,-0.94 0.465,-1.476 -0.016,-0.009 -0.016,-0.009 -0.006,-0.024 0.052,-0.726 -0.274,-1.27 -0.968,-1.609 -1.906,-0.971 -3.914,-1.267 -6.042,-0.859 -2.932,0.554 -5.775,1.366 -8.536,2.412 -2.679,1.014 -5.353,2.052 -8.011,3.099 -0.244,0.098 -0.504,0.124 -0.744,0.081 -0.255,-0.053 -0.482,-0.149 -0.673,-0.307 -0.066,-0.06 -0.126,-0.096 -0.192,-0.156 l -0.448,0.3 z"
         id="path731" />
      <path
         inkscape:connector-curvature="0"
         style="fill:#9e0c27"
         d="m 260.426,194.061 c 0.24,0.043 0.5,0.017 0.744,-0.081 2.658,-1.047 5.332,-2.085 8.011,-3.099 2.761,-1.046 5.604,-1.858 8.537,-2.412 2.127,-0.408 4.135,-0.111 6.041,0.86 0.694,0.338 1.02,0.882 0.968,1.608 -0.009,0.015 -0.009,0.015 0.006,0.024 -0.059,0.537 -0.217,1.034 -0.465,1.476 -0.915,1.307 -2.038,2.385 -3.37,3.233 -0.466,0.23 -0.938,0.434 -1.401,0.623 -0.09,0.049 -0.189,0.112 -0.279,0.159 -2.237,1.261 -4.401,2.035 -6.506,2.334 -0.005,0.079 -0.003,0.142 0.014,0.214 0.648,0.044 1.305,0.075 1.976,0.114 0.57,0.038 1.139,0.076 1.705,0.154 2.54,0.331 5.044,0.888 7.499,1.66 1.573,0.443 2.812,0.927 3.704,1.447 1.66,1.006 2.803,2.292 3.458,3.875 0.54,1.37 0.557,2.524 0.058,3.449 -1.263,2.015 -3.288,2.894 -6.067,2.621 l 0.01,-0.014 c -1.907,-0.195 -3.82,-0.782 -5.733,-1.777 l -0.059,-0.036 c -0.045,-0.027 -0.081,-0.069 -0.131,-0.12 -0.22,-0.113 -0.452,-0.234 -0.667,-0.385 -0.707,-0.488 -1.427,-0.987 -2.129,-1.514 -0.38,-0.25 -0.735,-0.507 -1.082,-0.779 0.047,0.09 0.1,0.204 0.163,0.304 0.663,0.626 1.166,1.381 1.511,2.265 0.246,0.64 0.294,1.303 0.144,1.988 0.051,0.051 0.1,0.102 0.152,0.153 -0.066,0.718 -0.284,1.383 -0.639,1.966 -0.893,1.338 -2.464,1.941 -4.718,1.781 -1.562,-0.088 -2.91,-0.393 -4.015,-0.899 -0.563,-0.117 -1.159,-0.417 -1.768,-0.928 -1.526,-1.294 -2.932,-2.719 -4.213,-4.25 -0.565,0.496 -1.149,0.918 -1.78,1.253 -1.668,1.503 -3.662,2.297 -6.002,2.414 -1.221,0.057 -2.45,-0.074 -3.693,-0.419 -0.845,-0.225 -1.476,-0.464 -1.92,-0.712 -1.21,-0.735 -1.881,-1.652 -2.042,-2.771 l -0.006,-0.024 c -0.103,-1.146 0.278,-2.449 1.122,-3.942 1.578,-1.763 3.229,-3.44 4.975,-5.04 0.277,-0.221 0.569,-0.433 0.877,-0.635 l -0.861,-0.909 c -0.389,-0.338 -0.621,-0.561 -0.747,-0.657 l -0.015,-0.009 c -0.126,-0.096 -0.226,-0.2 -0.352,-0.295 -0.955,0.361 -1.893,0.795 -2.813,1.3 0.323,0.278 0.646,0.555 0.992,0.826 -2.111,1.154 -3.534,2.356 -4.256,3.617 -1.386,2.288 -1.959,4.313 -1.702,6.083 0.192,1.976 1.315,3.597 3.379,4.848 0.604,0.386 1.487,0.718 2.655,1.016 l -0.024,0.006 c 1.528,0.415 3.044,0.577 4.556,0.513 2.883,-0.136 5.385,-1.093 7.486,-2.907 1.139,1.528 2.453,2.734 3.933,3.631 1.562,0.966 3.595,1.523 6.054,1.684 3.543,0.225 5.975,-0.816 7.292,-3.126 0.371,-0.613 0.653,-1.281 0.836,-1.988 1.646,0.692 3.3,1.101 4.957,1.267 4.032,0.399 6.941,-0.926 8.733,-3.952 1.023,-1.586 1.073,-3.56 0.151,-5.918 -0.845,-2.148 -2.382,-3.896 -4.61,-5.246 -1.353,-0.84 -3.433,-1.59 -6.246,-2.211 1.471,-1.01 2.709,-2.244 3.747,-3.72 0.018,-0.031 0.036,-0.06 0.046,-0.074 0.516,-0.854 0.819,-1.793 0.917,-2.798 l 0.009,-0.015 c 0.143,-1.957 -0.696,-3.406 -2.488,-4.329 -2.478,-1.275 -5.099,-1.639 -7.85,-1.117 -3.09,0.581 -6.103,1.434 -9.011,2.555 l 0.01,-0.015 c -2.421,0.926 -4.851,1.865 -7.267,2.814 -0.059,-0.036 -0.105,-0.063 -0.14,-0.105 l -0.465,0.699 0.023,0.976 -0.492,0.743 -0.292,0.213 c 0.066,0.06 0.126,0.096 0.192,0.156 0.191,0.158 0.418,0.254 0.673,0.306"
         id="path733" />
      <path
         inkscape:connector-curvature="0"
         style="fill:#d82d1c"
         d="m 189.345,155.475 -1.899,3.429 c 1.126,0.698 2.228,1.398 3.33,2.072 5.646,3.559 10.7,6.995 15.159,10.336 1.202,0.896 2.354,1.793 3.457,2.715 0.086,0.061 0.161,0.136 0.261,0.208 2.85,2.36 5.355,4.746 7.488,7.133 0.123,-0.149 0.258,-0.286 0.382,-0.434 1.967,-2.207 3.958,-4.363 5.999,-6.496 -1.81,-1.92 -3.807,-3.825 -5.988,-5.743 -2.715,-2.347 -5.342,-4.411 -7.893,-6.178 -4.497,-3.304 -9.313,-6.039 -14.447,-8.228 l -5.849,1.186 z"
         id="path735" />
    </g>
  </g>
</svg>
