<?xml version="1.0" encoding="UTF-8" standalone="no"?>
<!-- Created with Inkscape (http://www.inkscape.org/) -->

<svg
   xmlns:dc="http://purl.org/dc/elements/1.1/"
   xmlns:cc="http://creativecommons.org/ns#"
   xmlns:rdf="http://www.w3.org/1999/02/22-rdf-syntax-ns#"
   xmlns:svg="http://www.w3.org/2000/svg"
   xmlns="http://www.w3.org/2000/svg"
   version="1.1"
   width="290"
   height="256"
   id="svg5089">
  <defs
     id="defs5091" />
  <metadata
     id="metadata5094">
    <rdf:RDF>
      <cc:Work
         rdf:about="">
        <dc:format>image/svg+xml</dc:format>
        <dc:type
           rdf:resource="http://purl.org/dc/dcmitype/StillImage" />
        <dc:title></dc:title>
      </cc:Work>
    </rdf:RDF>
  </metadata>
  <g
     transform="translate(0,-224)"
     id="layer1">
    <g
       transform="translate(-540.02024,200.38766)"
       id="g257">
      <path
         d="m 693.774,246.893 c -1.107,-4.901 -1.583,-9.853 -1.447,-14.856 0.136,-5.122 0.34,-10.261 0.613,-15.383 0.255,-4.92 0.611,-9.854 1.055,-14.789 l 10.158,-0.698 0.238,26.701 c 9.649,-1.073 17.426,-0.137 23.331,2.808 5.906,2.944 8.305,6.347 7.182,10.21 -1.106,3.862 -5.259,6.67 -12.44,8.441 -6.074,1.497 -14.497,0.969 -25.236,-1.567 -1.123,-0.271 -2.28,-0.56 -3.454,-0.867"
         id="path259"
         style="fill:#d82d1c" />
      <path
         d="m 693.774,246.893 c 1.174,0.307 2.331,0.596 3.453,0.867 10.739,2.535 19.162,3.064 25.236,1.567 7.182,-1.771 11.334,-4.579 12.44,-8.441 1.123,-3.863 -1.275,-7.266 -7.182,-10.211 -5.905,-2.944 -13.682,-3.88 -23.331,-2.807 l -0.238,-26.701 -10.158,0.698 c -0.443,4.935 -0.8,9.869 -1.055,14.789 -0.273,5.122 -0.478,10.261 -0.613,15.383 -0.135,5.003 0.341,9.955 1.448,14.856 z"
         id="path261"
         style="fill:none;stroke:#9e0c27;stroke-width:2.72300005;stroke-miterlimit:10" />
      <path
         d="m 693.683,162.369 c -8.372,-0.018 -13.903,1.701 -16.592,5.122 -2.672,3.217 -4.799,7.402 -6.382,12.576 -1.531,4.951 -2.79,9.426 -3.76,13.41 -2.673,8.729 -0.698,16.115 5.922,22.155 l 0.018,0.017 c 5.836,5.31 13.255,8.049 22.257,8.203 9.394,0.17 16.474,-2.638 21.221,-8.423 5.633,-6.655 6.382,-15.963 2.247,-27.926 -1.106,-3.217 -2.535,-6.655 -4.288,-10.279 -2.399,-5.053 -4.307,-8.695 -5.701,-10.908 -1.447,-2.62 -6.416,-3.93 -14.942,-3.947"
         id="path263"
         style="fill:#9e0c27" />
      <path
         d="m 674.86,250.993 c -1.106,-4.9 -1.583,-9.852 -1.447,-14.855 0.136,-5.122 0.341,-10.261 0.613,-15.384 0.255,-4.917 0.612,-9.853 1.055,-14.787 l 10.159,-0.699 0.238,26.701 c 9.649,-1.072 17.426,-0.136 23.331,2.808 5.904,2.944 8.304,6.347 7.181,10.209 -1.107,3.863 -5.258,6.671 -12.439,8.442 -6.074,1.497 -14.498,0.969 -25.236,-1.566 -1.124,-0.272 -2.28,-0.562 -3.455,-0.869"
         id="path265"
         style="fill:#d82d1c" />
      <path
         d="m 674.86,250.993 c 1.175,0.307 2.331,0.597 3.454,0.869 10.738,2.535 19.162,3.063 25.236,1.566 7.182,-1.771 11.332,-4.579 12.439,-8.442 1.123,-3.862 -1.276,-7.265 -7.181,-10.209 -5.905,-2.944 -13.682,-3.88 -23.331,-2.808 l -0.238,-26.701 -10.159,0.699 c -0.442,4.934 -0.8,9.87 -1.055,14.787 -0.272,5.123 -0.478,10.262 -0.613,15.384 -0.135,5.003 0.342,9.955 1.448,14.855 z"
         id="path267"
         style="fill:none;stroke:#9e0c27;stroke-width:2.72300005;stroke-miterlimit:10" />
      <path
         d="m 740.47,89.872 c -0.772,-0.592 -1.559,-1.167 -2.362,-1.738 -1.658,-1.154 -3.358,-2.217 -5.103,-3.223 -1.375,-0.778 -2.776,-1.483 -4.239,-2.13 -1.931,-0.848 -3.873,-1.661 -5.834,-2.471 -1.96,-0.81 -3.973,-1.477 -6.039,-2.035 -0.089,-0.024 -0.16,-0.049 -0.249,-0.073 2.1,-3.773 2.913,-7.718 2.423,-11.849 -0.647,-5.447 -3.239,-9.841 -7.762,-13.204 -4.52,-3.361 -9.673,-4.698 -15.457,-4.011 -5.75,0.684 -10.446,3.192 -14.07,7.522 -1.317,1.577 -2.354,3.221 -3.088,4.95 -0.199,-0.232 -0.396,-0.449 -0.593,-0.664 -0.94,-1.001 -1.988,-1.902 -3.16,-2.703 -1.452,-0.991 -2.97,-1.819 -4.552,-2.469 -1.855,-0.789 -3.793,-1.259 -5.832,-1.444 -1.744,-0.135 -3.467,-0.101 -5.168,0.118 -1.701,0.219 -3.364,0.622 -4.95,1.238 -1.868,0.685 -3.603,1.625 -5.188,2.824 -1.365,1.034 -2.597,2.189 -3.688,3.499 -1.286,1.556 -2.314,3.268 -3.084,5.138 -0.745,1.782 -1.188,3.664 -1.312,5.646 -0.121,1.707 -0.022,3.406 0.283,5.114 0.352,1.942 0.98,3.782 1.856,5.542 0.382,0.759 1.098,1.752 2.151,2.994 -1.329,0.757 -2.642,1.512 -3.95,2.3 -1.291,0.786 -2.563,1.605 -3.812,2.454 -1.87,1.248 -3.678,2.592 -5.436,4.05 -1.421,1.143 -2.751,2.328 -4.024,3.557 -1.429,1.366 -2.778,2.81 -4.07,4.314 -1.22,1.393 -2.379,2.866 -3.444,4.394 -1.027,1.439 -1.962,2.919 -2.806,4.456 -0.812,1.515 -1.501,3.051 -2.067,4.623 -0.711,1.932 -1.244,3.911 -1.622,5.923 -0.38,1.977 -0.601,4.004 -0.649,6.046 -0.056,2.11 0.069,4.181 0.398,6.228 0.331,2.064 0.811,4.076 1.454,6.035 0.622,1.928 1.441,3.797 2.426,5.596 0.985,1.814 2.129,3.525 3.398,5.137 1.33,1.689 2.803,3.293 4.401,4.795 1.33,1.262 2.719,2.447 4.202,3.554 1.558,1.164 3.158,2.258 4.835,3.273 1.752,1.074 3.581,2.07 5.452,2.995 1.924,0.933 3.856,1.799 5.799,2.594 1.958,0.793 3.956,1.496 5.999,2.125 2.057,0.611 4.139,1.15 6.244,1.6 2.156,0.445 4.306,0.822 6.447,1.15 2.207,0.301 4.439,0.514 6.665,0.677 1.707,0.122 3.426,0.192 5.118,0.179 1.759,-0.021 3.516,-0.06 5.274,-0.079 1.787,-0.076 3.569,-0.186 5.363,-0.348 1.844,-0.168 3.667,-0.367 5.501,-0.619 1.786,-0.23 3.581,-0.512 5.373,-0.844 1.74,-0.327 3.478,-0.672 5.192,-1.062 1.681,-0.389 3.355,-0.827 5.025,-1.317 2.163,-0.65 4.285,-1.347 6.382,-2.127 2.067,-0.741 4.104,-1.582 6.097,-2.519 1.964,-0.9 3.864,-1.881 5.739,-2.94 1.845,-1.024 3.662,-2.129 5.438,-3.314 1.755,-1.201 3.453,-2.464 5.091,-3.787 1.639,-1.324 3.218,-2.709 4.739,-4.155 1.426,-1.384 2.812,-2.814 4.125,-4.287 0.452,-0.515 0.902,-1.048 1.335,-1.579 0.728,-0.924 1.437,-1.863 2.108,-2.833 1.271,-1.81 2.397,-3.705 3.38,-5.67 0.94,-1.873 1.716,-3.828 2.332,-5.833 0.606,-1.955 1.036,-3.956 1.286,-6.02 0.268,-2.067 0.348,-4.128 0.237,-6.202 -0.099,-2.126 -0.38,-4.197 -0.812,-6.248 -0.428,-2.019 -1.023,-4 -1.782,-5.928 -0.74,-1.913 -1.658,-3.736 -2.736,-5.473 -1.138,-1.797 -2.4,-3.493 -3.769,-5.075 -1.466,-1.69 -3.053,-3.229 -4.741,-4.653 -0.702,-0.583 -1.403,-1.166 -2.118,-1.714"
         id="path269"
         style="fill:#d82d1c" />
      <path
         d="m 716.644,78.202 c 0.089,0.023 0.16,0.049 0.249,0.073 2.066,0.558 4.079,1.225 6.039,2.035 1.961,0.81 3.903,1.622 5.834,2.471 1.463,0.647 2.864,1.352 4.239,2.129 1.743,1.007 3.443,2.07 5.103,3.224 0.804,0.571 1.59,1.146 2.362,1.738 0.715,0.548 1.416,1.131 2.12,1.714 1.688,1.424 3.275,2.963 4.742,4.653 1.368,1.582 2.63,3.278 3.768,5.075 1.078,1.737 1.996,3.56 2.736,5.472 0.759,1.929 1.354,3.91 1.782,5.929 0.432,2.051 0.714,4.122 0.812,6.248 0.109,2.073 0.03,4.135 -0.237,6.202 -0.25,2.064 -0.68,4.065 -1.286,6.019 -0.617,2.006 -1.392,3.961 -2.332,5.834 -0.982,1.965 -2.108,3.86 -3.38,5.67 -0.672,0.97 -1.381,1.909 -2.108,2.833 -0.433,0.531 -0.883,1.064 -1.335,1.578 -1.313,1.474 -2.699,2.904 -4.125,4.288 -1.521,1.446 -3.101,2.831 -4.739,4.155 -1.639,1.323 -3.336,2.586 -5.09,3.787 -1.776,1.185 -3.594,2.29 -5.438,3.313 -1.875,1.06 -3.775,2.04 -5.739,2.941 -1.992,0.937 -4.029,1.778 -6.097,2.519 -2.097,0.78 -4.219,1.477 -6.382,2.128 -1.67,0.489 -3.345,0.927 -5.026,1.316 -1.714,0.39 -3.451,0.735 -5.191,1.062 -1.792,0.332 -3.587,0.614 -5.373,0.844 -1.834,0.252 -3.657,0.451 -5.501,0.619 -1.794,0.162 -3.576,0.272 -5.363,0.348 -1.759,0.019 -3.516,0.058 -5.274,0.079 -1.692,0.013 -3.411,-0.057 -5.118,-0.179 -2.226,-0.163 -4.458,-0.376 -6.665,-0.678 -2.142,-0.327 -4.291,-0.704 -6.447,-1.149 -2.105,-0.45 -4.188,-0.989 -6.244,-1.601 -2.043,-0.628 -4.041,-1.332 -5.999,-2.125 -1.942,-0.794 -3.875,-1.66 -5.799,-2.593 -1.871,-0.925 -3.699,-1.921 -5.452,-2.995 -1.677,-1.015 -3.277,-2.109 -4.835,-3.273 -1.483,-1.107 -2.872,-2.292 -4.202,-3.555 -1.599,-1.502 -3.071,-3.105 -4.401,-4.794 -1.27,-1.612 -2.413,-3.323 -3.398,-5.137 -0.983,-1.799 -1.804,-3.668 -2.426,-5.596 -0.644,-1.959 -1.123,-3.971 -1.454,-6.035 -0.329,-2.047 -0.454,-4.118 -0.398,-6.229 0.049,-2.041 0.27,-4.068 0.649,-6.045 0.378,-2.012 0.911,-3.991 1.622,-5.923 0.566,-1.572 1.256,-3.108 2.067,-4.623 0.844,-1.537 1.778,-3.017 2.806,-4.456 1.065,-1.528 2.225,-3.001 3.444,-4.394 1.292,-1.504 2.642,-2.948 4.07,-4.314 1.273,-1.229 2.604,-2.414 4.024,-3.558 1.758,-1.457 3.565,-2.801 5.436,-4.049 1.249,-0.849 2.521,-1.668 3.812,-2.454 1.309,-0.788 2.621,-1.543 3.95,-2.3"
         id="path271"
         style="fill:none;stroke:#9e0c27;stroke-width:2.71700001;stroke-linecap:round;stroke-linejoin:round;stroke-miterlimit:10" />
      <path
         d="m 645.453,86.443 c -1.054,-1.243 -1.77,-2.235 -2.151,-2.994 -0.876,-1.76 -1.505,-3.6 -1.856,-5.543 -0.305,-1.708 -0.404,-3.406 -0.283,-5.113 0.124,-1.982 0.567,-3.864 1.312,-5.646 0.77,-1.87 1.798,-3.582 3.084,-5.139 1.092,-1.309 2.323,-2.464 3.688,-3.499 1.585,-1.198 3.319,-2.139 5.188,-2.823 1.586,-0.616 3.249,-1.019 4.95,-1.238 1.701,-0.219 3.424,-0.254 5.168,-0.118 2.039,0.185 3.977,0.655 5.832,1.444 1.582,0.649 3.1,1.478 4.552,2.468 1.172,0.802 2.22,1.703 3.16,2.703 0.196,0.216 0.394,0.433 0.593,0.665 0.734,-1.729 1.771,-3.374 3.088,-4.951 3.624,-4.329 8.32,-6.837 14.07,-7.521 5.784,-0.688 10.938,0.65 15.457,4.011 4.522,3.362 7.114,7.756 7.762,13.204 0.49,4.131 -0.323,8.076 -2.423,11.848"
         id="path273"
         style="fill:none;stroke:#9e0c27;stroke-width:2.71700001;stroke-miterlimit:10" />
      <path
         d="m 717.78,66.608 c -0.613,-5.16 -3.062,-9.333 -7.32,-12.521 -4.265,-3.204 -9.118,-4.473 -14.565,-3.826 -5.429,0.646 -9.851,3.018 -13.261,7.135 -1.72,2.068 -2.911,4.28 -3.607,6.62 -0.252,-0.398 -0.521,-0.794 -0.825,-1.185 -0.301,-0.375 -0.619,-0.747 -0.95,-1.101 -0.885,-0.955 -1.893,-1.81 -2.992,-2.569 -1.376,-0.931 -2.818,-1.7 -4.312,-2.326 -1.749,-0.75 -3.6,-1.214 -5.518,-1.38 -1.641,-0.13 -3.277,-0.088 -4.894,0.121 -1.617,0.209 -3.179,0.6 -4.701,1.175 -1.769,0.654 -3.407,1.549 -4.915,2.669 -1.287,0.975 -2.454,2.089 -3.487,3.323 -1.211,1.461 -2.182,3.081 -2.911,4.861 -0.704,1.692 -1.127,3.469 -1.245,5.347 -0.118,1.604 -0.027,3.218 0.268,4.842 0.339,1.841 0.923,3.585 1.752,5.248 0.402,0.79 0.849,1.523 1.356,2.198 0.529,0.707 1.121,1.372 1.758,1.98 1.346,1.243 2.819,2.282 4.409,3.136 1.621,0.834 3.319,1.452 5.061,1.86 1.844,0.397 3.71,0.569 5.587,0.534 1.963,-0.028 3.863,-0.306 5.697,-0.849 1.778,-0.57 3.427,-1.382 4.943,-2.435 1.31,-0.924 2.498,-2.006 3.551,-3.226 1.068,-1.222 1.969,-2.56 2.705,-3.998 0.397,-0.818 0.762,-1.647 1.054,-2.503 0.151,-0.445 0.285,-0.906 0.403,-1.348 1.218,2.045 2.869,3.849 4.954,5.414 4.276,3.185 9.132,4.455 14.562,3.81 5.447,-0.648 9.866,-3.021 13.263,-7.118 3.394,-4.098 4.793,-8.727 4.18,-13.888"
         id="path275"
         style="fill:#ffffff" />
      <path
         d="m 654.666,77.746 c 5.28,-7.332 11.423,-8.771 18.444,-4.283"
         id="path277"
         style="fill:none;stroke:#000000;stroke-width:2.88599992;stroke-linecap:round;stroke-linejoin:round;stroke-miterlimit:10" />
      <path
         d="m 703.436,71.553 c -6.854,-5.889 -13.162,-5.847 -18.935,0.163"
         id="path279"
         style="fill:none;stroke:#000000;stroke-width:2.88599992;stroke-linecap:round;stroke-linejoin:round;stroke-miterlimit:10" />
      <path
         d="m 706.726,120.174 c -6.832,1.36 -13.745,2.472 -20.707,3.334 -6.963,0.845 -14.027,1.411 -21.228,1.687 -7.202,0.275 -14.861,-0.287 -22.961,-1.666 l -9.667,-2.203 c 6.302,19.072 19.254,29.76 38.865,32.029 5.742,0.686 11.783,0.566 18.089,-0.338 0.05,-0.005 0.086,-0.009 0.118,-0.013 6.343,-0.601 12.24,-1.9 17.662,-3.913 18.533,-6.805 28.619,-20.231 30.275,-40.25 l -8.883,4.409 c -7.549,3.24 -14.731,5.548 -21.563,6.924"
         id="path281"
         style="fill:#282525" />
      <path
         d="m 685.304,121.951 0.004,0.034 c 0.116,-0.031 0.184,-0.056 0.198,-0.058 l -0.202,0.024 z"
         id="path283"
         style="fill:#282525" />
      <path
         d="m 700.353,94.381 c -0.725,-5.095 -3.094,-9.192 -7.108,-12.324 -4.011,-3.097 -8.499,-4.307 -13.463,-3.632 -4.961,0.709 -8.952,3.099 -11.972,7.203 -3,4.103 -4.148,8.686 -3.456,13.786 0.726,5.095 3.094,9.192 7.104,12.289 4.016,3.131 8.504,4.342 13.464,3.633 4.964,-0.676 8.956,-3.066 11.974,-7.17 3.018,-4.104 4.183,-8.689 3.457,-13.785"
         id="path285"
         style="fill:#e78c00" />
      <path
         d="m 685.463,163.884 c -0.901,0.39 -1.719,0.9 -2.433,1.549 -0.766,0.68 -1.566,1.427 -2.399,2.261 -0.494,0.494 -0.902,0.92 -1.191,1.261 -0.085,0.085 -0.17,0.17 -0.255,0.271 -2.45,2.978 -4.408,6.859 -5.871,11.64 -1.531,4.935 -2.775,9.377 -3.744,13.325 -0.017,0.016 -0.017,0.05 -0.017,0.084 -2.332,7.624 -0.613,14.074 5.155,19.35 5.378,4.85 12.202,7.35 20.489,7.503 8.423,0.154 14.789,-2.33 19.076,-7.436 4.918,-6.041 5.514,-14.48 1.77,-25.304 -1.071,-3.131 -2.468,-6.467 -4.17,-9.989 -1.854,-3.864 -3.385,-6.892 -4.61,-9.053 -0.153,-0.494 -0.46,-1.14 -0.919,-1.94 -0.732,-1.191 -1.141,-1.872 -1.226,-2.059 -0.289,-0.477 -0.529,-0.834 -0.715,-1.055 -0.322,-0.408 -0.852,-0.732 -1.548,-0.953 -1.891,-0.631 -5.939,-0.953 -12.185,-0.936 -2.279,0.459 -4.016,0.953 -5.207,1.481 m 3.522,-0.138 0.273,-0.083 v 0.083 h -0.273 z"
         id="path287"
         style="fill:#d82d1c" />
      <path
         d="m 728.424,158.001 -0.6,-5.041 -76.274,9.067 0.827,6.966 c 3.69,1.117 7.555,1.975 11.612,2.587 8.811,1.314 17.843,1.333 27.112,0.042 9.27,-1.289 17.969,-3.777 26.1,-7.463 4.025,-1.83 7.764,-3.882 11.223,-6.158"
         id="path289"
         style="fill:#d82d1c" />
      <path
         d="m 749.065,183.081 v -0.018 c -0.035,-3.336 -1.753,-6.246 -5.157,-8.712 h 0.018 c -2.74,-2.026 -6.483,-3.661 -11.232,-4.884 -4.101,-1.073 -8.542,-1.736 -13.289,-1.991 -2.536,-0.154 -4.902,-0.154 -7.08,-0.036 -0.493,0.189 -1.106,0.393 -1.803,0.631 -1.72,0.492 -2.791,0.817 -3.25,0.953 0.067,0.119 0.136,0.239 0.221,0.373 0.153,0.256 0.271,0.495 0.374,0.733 0,0.017 0,0.017 0.017,0.017 0.051,0.153 0.103,0.323 0.153,0.476 0.018,-0.017 0.05,-0.017 0.085,-0.017 3.166,-0.509 6.875,-0.646 11.13,-0.408 4.561,0.256 8.814,0.886 12.763,1.906 4.339,1.123 7.776,2.604 10.295,4.442 2.587,1.889 3.932,4.084 4.033,6.585 0.051,3.796 -1.701,6.824 -5.258,9.122 -2.213,1.412 -4.97,2.467 -8.289,3.198 -0.355,0.085 -0.646,0.273 -0.851,0.597 -0.101,0.152 -0.169,0.304 -0.186,0.459 -0.051,0.187 -0.051,0.375 0,0.561 0.051,0.222 0.136,0.425 0.271,0.579 0.085,0.102 0.205,0.205 0.324,0.289 0.322,0.188 0.662,0.256 1.021,0.17 3.676,-0.799 6.739,-1.974 9.19,-3.556 h -0.019 c 4.477,-2.875 6.639,-6.688 6.519,-11.469"
         id="path291"
         style="fill:#9e0c27" />
      <path
         d="m 742.309,176.546 c -2.519,-1.838 -5.956,-3.319 -10.295,-4.441 -3.948,-1.021 -8.202,-1.651 -12.763,-1.907 -4.255,-0.238 -7.963,-0.101 -11.13,0.409 -0.034,0 -0.067,0 -0.084,0.016 -0.052,-0.153 -0.104,-0.323 -0.154,-0.475 l -0.102,0.034 c 0.017,-0.017 0.051,-0.034 0.085,-0.052 -0.103,-0.238 -0.221,-0.477 -0.374,-0.732 -0.715,0.273 -1.43,0.732 -2.161,1.363 -2.586,2.211 -3.88,5.326 -3.88,9.324 0,0.018 0.086,0.681 0.238,2.025 0.237,1.582 0.562,3.045 0.952,4.391 1.276,4.236 3.148,6.364 5.6,6.364 2.245,0 4.815,-0.834 7.725,-2.485 1.515,-0.867 2.604,-1.429 3.233,-1.701 1.243,-0.528 2.434,-0.782 3.591,-0.782 1.685,0 2.928,0.51 3.728,1.531 0.526,0.646 0.97,1.768 1.327,3.352 0.392,1.684 0.748,2.791 1.088,3.335 0.631,1.021 1.635,1.533 3.047,1.533 h 0.051 c -0.136,-0.155 -0.221,-0.358 -0.271,-0.58 -0.051,-0.186 -0.051,-0.374 0,-0.561 0.017,-0.154 0.085,-0.307 0.186,-0.459 0.205,-0.324 0.495,-0.512 0.852,-0.597 3.318,-0.731 6.075,-1.786 8.288,-3.198 3.557,-2.298 5.309,-5.326 5.258,-9.122 -0.104,-2.501 -1.448,-4.696 -4.035,-6.585"
         id="path293"
         style="fill:#d82d1c" />
      <path
         d="m 678.119,180.801 c 0.597,-1.583 0.886,-2.383 0.886,-2.4 0,-1.379 -0.731,-2.417 -2.179,-3.079 -0.492,-0.223 -0.952,-0.341 -1.378,-0.359 -0.051,0.119 -0.085,0.255 -0.136,0.408 -0.051,0.154 -0.085,0.29 -0.136,0.409 -0.069,0.221 -0.12,0.409 -0.17,0.562 -6.434,0.833 -11.964,2.604 -16.593,5.292 h -0.017 c -4.713,2.74 -7.078,5.752 -7.113,9.053 0.12,3.318 2.127,6.109 6.022,8.373 4.545,2.637 10.587,3.966 18.107,3.966 0.154,0 0.29,0.016 0.426,0.067 0.188,0.051 0.375,0.17 0.544,0.34 0.171,0.17 0.29,0.357 0.341,0.578 0.357,-0.374 0.681,-0.969 0.987,-1.805 0.407,-1.513 0.612,-2.279 0.612,-2.33 0,-0.816 -0.103,-1.598 -0.323,-2.365 -0.272,-0.92 -0.68,-1.666 -1.208,-2.263 -0.527,-0.8 -1.702,-1.549 -3.558,-2.263 -0.731,-0.29 -1.326,-0.46 -1.751,-0.529 -0.018,0.137 -0.069,0.274 -0.138,0.409 -0.102,0.221 -0.238,0.392 -0.424,0.511 -0.103,0.084 -0.223,0.136 -0.341,0.188 -0.359,0.119 -0.715,0.084 -1.056,-0.069 -1.923,-0.936 -3.386,-1.65 -4.39,-2.177 -0.272,-0.239 -0.596,-0.512 -0.955,-0.801 -1.58,-1.327 -2.5,-2.093 -2.755,-2.315 -0.562,-0.713 -1.072,-1.343 -1.531,-1.888 l -0.019,-0.017 c 0,-0.017 0,-0.017 0.019,-0.034 0.118,-0.154 0.271,-0.273 0.459,-0.358 0.799,0.647 1.6,0.969 2.365,0.969 h 0.188 c 0.084,0.053 0.187,0.121 0.271,0.172 0,-0.017 0,-0.017 0.018,-0.017 1.072,-0.92 2.655,-1.874 4.748,-2.876 h -0.018 c 2.025,-0.988 4.033,-1.771 6.024,-2.349 0.357,-0.119 0.697,-0.086 1.021,0.101 0.103,0.052 0.188,0.122 0.273,0.206 0.187,0.153 0.306,0.357 0.391,0.612 0.034,0.12 0.051,0.255 0.051,0.391 0.94,-0.22 1.74,-1.003 2.436,-2.313"
         id="path295"
         style="fill:#d82d1c" />
      <path
         d="m 674.853,174.01 c -1.004,0 -1.752,-0.017 -2.264,-0.067 -5.955,0.986 -11.146,2.773 -15.553,5.342 -5.82,3.388 -8.646,7.216 -8.475,11.453 0.034,4.254 2.484,7.812 7.368,10.669 4.9,2.894 11.402,4.34 19.484,4.34 0.375,0 0.698,-0.135 0.97,-0.391 0.256,-0.273 0.393,-0.595 0.393,-0.97 0,-0.135 -0.018,-0.256 -0.052,-0.375 -0.051,-0.221 -0.17,-0.408 -0.341,-0.578 -0.169,-0.17 -0.356,-0.289 -0.544,-0.34 -0.136,-0.051 -0.271,-0.067 -0.426,-0.067 -7.521,0 -13.562,-1.328 -18.106,-3.966 -3.896,-2.264 -5.903,-5.055 -6.023,-8.373 0.035,-3.301 2.4,-6.313 7.113,-9.053 h 0.017 c 4.629,-2.688 10.159,-4.459 16.593,-5.292 0.051,-0.153 0.101,-0.341 0.17,-0.561 0.051,-0.12 0.086,-0.256 0.136,-0.41 0.051,-0.153 0.085,-0.289 0.136,-0.408 0.222,-0.63 0.323,-0.936 0.323,-0.953 h -0.919 z"
         id="path297"
         style="fill:#9e0c27" />
      <path
         d="m 667.927,184.152 h 0.018 c -2.093,1.003 -3.676,1.956 -4.748,2.876 -0.018,0 -0.018,0 -0.018,0.018 -0.085,-0.051 -0.188,-0.12 -0.272,-0.172 h -0.187 c -0.766,0 -1.566,-0.323 -2.365,-0.969 -0.188,0.085 -0.341,0.203 -0.459,0.357 -0.019,0.017 -0.019,0.017 -0.019,0.035 l 0.019,0.016 c 0.459,0.545 0.968,1.175 1.531,1.889 0.255,0.221 1.175,0.987 2.756,2.314 0.358,0.289 0.681,0.563 0.954,0.801 1.003,0.527 2.467,1.241 4.39,2.178 0.341,0.152 0.697,0.187 1.056,0.068 0.118,-0.052 0.238,-0.103 0.341,-0.187 0.186,-0.12 0.322,-0.29 0.424,-0.511 0.068,-0.136 0.12,-0.273 0.138,-0.409 0.017,-0.203 0,-0.408 -0.069,-0.629 -0.119,-0.358 -0.356,-0.631 -0.697,-0.782 -2.28,-1.107 -3.914,-1.906 -4.884,-2.417 -0.051,-0.036 -0.103,-0.069 -0.153,-0.085 0.884,-0.63 2.025,-1.276 3.438,-1.942 1.888,-0.917 3.743,-1.649 5.598,-2.194 0.357,-0.119 0.613,-0.34 0.799,-0.662 0.12,-0.205 0.171,-0.41 0.171,-0.631 0,-0.137 -0.017,-0.272 -0.051,-0.392 -0.085,-0.255 -0.204,-0.459 -0.391,-0.612 -0.085,-0.084 -0.171,-0.153 -0.273,-0.205 -0.323,-0.188 -0.663,-0.221 -1.021,-0.102 -1.993,0.578 -4.001,1.362 -6.026,2.349"
         id="path299"
         style="fill:#9e0c27" />
      <path
         d="m 698.206,177.839 h 0.018 c -1.345,-1.175 -3.132,-1.652 -5.327,-1.464 -1.565,0.119 -2.858,0.51 -3.88,1.174 -0.493,-0.46 -1.021,-0.817 -1.582,-1.055 l -0.018,-0.017 c -1.583,-0.714 -3.199,-0.834 -4.867,-0.357 h 0.017 c -1.548,0.424 -2.756,1.276 -3.641,2.534 -0.357,-0.1 -0.714,-0.169 -1.107,-0.186 -1.275,-0.119 -2.671,0.324 -4.151,1.327 -1.411,0.919 -2.621,2.179 -3.641,3.795 -0.494,0.767 -0.92,1.548 -1.261,2.349 -0.544,1.548 -0.816,2.739 -0.816,3.607 0,0.443 0,0.868 0.018,1.276 h 1.905 c 0.018,-0.101 0.052,-0.204 0.086,-0.29 0.152,-0.73 0.477,-1.683 0.936,-2.875 0.255,-0.679 0.442,-1.174 0.596,-1.48 0.271,-0.562 0.596,-1.056 0.952,-1.465 0.154,-0.169 0.306,-0.339 0.46,-0.492 0.663,-0.885 1.43,-1.6 2.264,-2.161 h 0.017 c 0.886,-0.596 1.702,-0.884 2.468,-0.868 0.664,0.051 1.209,0.339 1.616,0.901 h 0.018 c 0.442,0.597 0.732,1.38 0.851,2.315 0.103,0.919 0.034,1.787 -0.221,2.604 -0.205,0.629 -0.494,1.054 -0.868,1.309 v 0.018 c -0.154,0.067 -0.289,0.136 -0.426,0.187 -0.357,0.358 -0.833,0.529 -1.464,0.529 -0.833,0 -1.463,-0.393 -1.854,-1.192 -0.153,-0.171 -0.272,-0.358 -0.374,-0.562 -0.152,-0.322 -0.238,-0.834 -0.256,-1.498 -0.119,-0.017 -0.237,-0.034 -0.356,-0.017 -0.018,0.017 -0.018,0.034 -0.034,0.051 -0.358,0.919 -0.528,1.702 -0.528,2.349 0,0.698 0.29,1.429 0.852,2.213 0.187,0.152 0.374,0.289 0.596,0.424 h 4.952 c 0.05,-0.034 0.119,-0.067 0.17,-0.085 h -0.018 c 0.646,-0.306 1.175,-0.816 1.6,-1.514 v 0.034 c 0.308,-0.766 0.478,-1.293 0.494,-1.548 0.119,0.017 0.255,0.05 0.391,0.118 0.085,0.085 0.188,0.17 0.307,0.256 0.63,0.459 1.634,0.697 2.995,0.697 0.136,0 0.306,-0.034 0.511,-0.084 0.885,-0.018 1.77,-0.273 2.638,-0.766 -0.393,0.358 -0.732,0.766 -1.056,1.19 v 0.035 c -0.102,0.153 -0.187,0.305 -0.254,0.459 -0.053,0.086 -0.12,0.188 -0.171,0.289 -0.17,0.325 -0.308,0.629 -0.426,0.919 h 2.195 c 0.018,-0.016 0.034,-0.034 0.05,-0.049 0.035,-0.052 0.07,-0.086 0.086,-0.104 0.545,-0.51 1.327,-1.07 2.332,-1.667 0.323,-0.204 0.766,-0.341 1.328,-0.409 0.458,-0.153 0.917,-0.221 1.395,-0.221 0.868,0 1.565,0.306 2.076,0.902 0.322,0.442 0.527,0.954 0.596,1.548 h 2.739 c -0.051,-1.258 -0.459,-2.348 -1.208,-3.251 -0.153,-0.203 -0.323,-0.39 -0.511,-0.56 1.447,-0.918 2.161,-2.365 2.145,-4.322 v -0.018 c -0.023,-1.957 -0.805,-3.557 -2.354,-4.832 m -1.736,2.093 c 0.902,0.731 1.346,1.649 1.362,2.773 0.018,0.97 -0.341,1.668 -1.038,2.11 h -0.017 c -0.663,0.358 -1.413,0.477 -2.281,0.34 -1.038,-0.152 -1.889,-0.646 -2.569,-1.446 -0.085,-0.085 -0.171,-0.171 -0.255,-0.237 -0.067,-0.648 -0.238,-1.363 -0.493,-2.127 -0.188,-0.563 -0.393,-1.072 -0.614,-1.533 0.682,-0.407 1.532,-0.646 2.554,-0.732 1.377,-0.118 2.484,0.171 3.351,0.852 m -10.193,-0.971 h 0.018 c 0.986,0.527 1.752,1.617 2.297,3.251 0.477,1.43 0.392,2.45 -0.238,3.062 -0.119,0.069 -0.223,0.137 -0.323,0.206 l -0.018,0.015 c -0.255,0.257 -0.527,0.428 -0.816,0.512 -0.256,0.137 -0.511,0.204 -0.783,0.204 h -0.153 c -0.153,0.017 -0.306,0.034 -0.46,0.034 -0.425,0 -0.833,-0.137 -1.225,-0.426 -0.459,-0.254 -0.834,-0.595 -1.123,-1.038 -0.204,-0.305 -0.357,-0.646 -0.46,-1.003 v -0.017 l -0.017,-0.018 c -0.017,-0.068 -0.051,-0.136 -0.068,-0.187 -0.05,-0.033 -0.119,-0.069 -0.17,-0.084 -0.221,-1.209 -0.664,-2.213 -1.293,-3.03 -0.086,-0.119 -0.153,-0.221 -0.238,-0.306 0.509,-0.697 1.208,-1.157 2.093,-1.397 1.02,-0.289 2.007,-0.22 2.977,0.222 l 0,0 z"
         id="path301"
         style="fill:#9e0c27" />
      <path
         d="m 675.403,190.925 v 0.017 c 1.413,0.799 2.995,0.766 4.748,-0.12 h -4.952 c 0.069,0.035 0.136,0.068 0.204,0.103"
         id="path303"
         style="fill:#9e0c27" />
      <path
         d="m 669.651,191.741 c 0.051,-0.221 0.119,-0.527 0.221,-0.919 h -1.905 c 0.051,1.412 0.188,2.62 0.408,3.624 0.153,0.75 0.579,1.736 1.276,2.979 0.051,0.101 0.119,0.204 0.17,0.289 h 0.017 c 0.018,-0.018 0.052,-0.018 0.068,-0.018 -0.085,-0.34 -0.171,-0.764 -0.238,-1.292 v -0.118 c -0.017,-0.121 -0.017,-0.238 -0.017,-0.342 -0.017,-0.187 -0.034,-0.357 -0.034,-0.51 v -0.05 c -0.051,-0.801 -0.085,-1.193 -0.085,-1.208 0,-1.16 0.034,-1.975 0.119,-2.435"
         id="path305"
         style="fill:#9e0c27" />
      <path
         d="m 675.182,203.058 h -0.204 c -0.374,-0.017 -0.697,0.119 -0.97,0.374 -0.273,0.256 -0.409,0.579 -0.426,0.952 -0.018,0.376 0.119,0.699 0.375,0.971 0.254,0.272 0.578,0.41 0.952,0.426 5.53,0.136 11.147,-1.209 16.848,-4.016 2.568,-1.277 4.561,-2.791 6.006,-4.577 1.363,-1.685 2.146,-3.388 2.333,-5.124 0.05,-0.424 0.05,-0.85 0.033,-1.241 h -2.739 c 0.033,0.29 0.033,0.612 0,0.936 -0.153,1.258 -0.731,2.5 -1.736,3.709 -1.243,1.497 -2.944,2.775 -5.105,3.846 v 0.016 c -4.629,2.282 -9.189,3.525 -13.682,3.711 -0.067,0 -0.136,0 -0.203,0.017 -0.223,0 -0.46,0 -0.698,0.018 -0.257,0 -0.529,0 -0.784,-0.018"
         id="path307"
         style="fill:#9e0c27" />
      <path
         d="m 687.332,190.822 c -0.085,0.204 -0.136,0.408 -0.17,0.595 -0.323,0.817 -0.477,1.634 -0.477,2.468 v 0.306 c 0.034,0.188 0.136,0.273 0.289,0.273 0.052,0 0.119,-0.068 0.188,-0.188 0.018,0.018 0.018,0.035 0.034,0.053 0.187,-0.461 0.544,-1.108 1.056,-1.907 0.425,-0.681 0.85,-1.208 1.275,-1.6 h -2.195 z"
         id="path309"
         style="fill:#9e0c27" />
      <path
         d="m 696.47,179.932 c -0.867,-0.681 -1.974,-0.971 -3.352,-0.852 -1.021,0.086 -1.872,0.326 -2.554,0.732 0.222,0.461 0.426,0.971 0.614,1.533 0.255,0.765 0.426,1.48 0.493,2.127 0.085,0.066 0.17,0.152 0.255,0.237 0.681,0.8 1.531,1.294 2.569,1.447 0.868,0.136 1.618,0.017 2.281,-0.34 h 0.017 c 0.696,-0.443 1.056,-1.141 1.038,-2.111 -0.016,-1.122 -0.459,-2.042 -1.361,-2.773"
         id="path311"
         style="fill:#d82d1c" />
      <path
         d="m 686.295,178.961 h -0.018 c -0.971,-0.442 -1.957,-0.511 -2.979,-0.222 -0.885,0.24 -1.583,0.7 -2.093,1.397 0.085,0.085 0.151,0.187 0.238,0.306 0.629,0.817 1.072,1.821 1.293,3.03 0.051,0.015 0.12,0.051 0.17,0.084 0.018,0.051 0.052,0.119 0.068,0.187 l 0.017,0.018 v 0.017 c 0.103,0.357 0.256,0.698 0.46,1.003 0.289,0.443 0.664,0.784 1.123,1.038 0.392,0.289 0.8,0.426 1.225,0.426 0.154,0 0.308,-0.017 0.46,-0.034 h 0.153 c 0.272,0 0.528,-0.067 0.783,-0.204 0.289,-0.084 0.562,-0.255 0.816,-0.512 l 0.018,-0.015 c 0.102,-0.069 0.204,-0.137 0.323,-0.206 0.629,-0.612 0.715,-1.632 0.238,-3.062 -0.543,-1.634 -1.309,-2.724 -2.295,-3.251"
         id="path313"
         style="fill:#d82d1c" />
      <path
         d="m 696.794,189.272 c -0.511,-0.595 -1.208,-0.9 -2.076,-0.9 -0.478,0 -0.937,0.067 -1.395,0.22 -0.562,0.069 -1.005,0.205 -1.328,0.409 -1.005,0.597 -1.787,1.158 -2.332,1.667 -0.015,0.018 -0.051,0.052 -0.086,0.104 -0.424,0.391 -0.867,0.936 -1.325,1.649 -0.512,0.8 -0.869,1.447 -1.056,1.908 -0.017,-0.018 -0.017,-0.036 -0.034,-0.053 -0.068,0.12 -0.136,0.187 -0.188,0.187 -0.153,0 -0.255,-0.085 -0.289,-0.272 v -0.306 c 0,-0.834 0.153,-1.651 0.477,-2.468 0.085,-0.459 0.288,-0.952 0.596,-1.514 0.051,-0.102 0.118,-0.203 0.171,-0.289 0.067,-0.154 0.152,-0.307 0.254,-0.459 v -0.035 c 0.323,-0.424 0.663,-0.832 1.056,-1.191 -0.868,0.493 -1.753,0.748 -2.638,0.767 -0.205,0.05 -0.375,0.084 -0.511,0.084 -1.361,0 -2.365,-0.238 -2.995,-0.697 -0.119,-0.086 -0.222,-0.171 -0.307,-0.256 -0.136,-0.069 -0.271,-0.102 -0.39,-0.118 -0.018,0.254 -0.188,0.782 -0.495,1.547 v -0.034 c -0.425,0.698 -0.953,1.208 -1.6,1.515 h 0.018 c -1.839,0.971 -3.472,1.038 -4.918,0.204 v -0.017 c -0.291,-0.152 -0.562,-0.34 -0.8,-0.527 -0.562,-0.783 -0.852,-1.515 -0.852,-2.213 0,-0.646 0.17,-1.43 0.528,-2.349 0.017,-0.016 0.017,-0.034 0.034,-0.05 0.119,-0.018 0.237,0 0.356,0.016 0.018,0.664 0.104,1.176 0.256,1.498 0.102,0.204 0.222,0.392 0.374,0.563 0.392,0.799 1.021,1.189 1.854,1.189 0.631,0 1.106,-0.17 1.464,-0.526 0.137,-0.052 0.271,-0.12 0.426,-0.188 v -0.017 c 0.374,-0.255 0.663,-0.681 0.868,-1.31 0.255,-0.816 0.323,-1.684 0.221,-2.603 -0.118,-0.936 -0.408,-1.719 -0.851,-2.316 h -0.018 c -0.407,-0.561 -0.952,-0.849 -1.616,-0.901 -0.766,-0.016 -1.582,0.272 -2.468,0.868 h -0.017 c -0.834,0.562 -1.601,1.276 -2.264,2.161 -0.154,0.154 -0.306,0.324 -0.46,0.492 -0.356,0.41 -0.681,0.904 -0.952,1.465 -0.153,0.307 -0.341,0.801 -0.596,1.481 -0.459,1.191 -0.783,2.144 -0.936,2.875 -0.153,0.528 -0.256,0.936 -0.307,1.209 -0.085,0.46 -0.119,1.275 -0.119,2.434 0,0.016 0.034,0.408 0.085,1.208 v 0.051 c 0,0.152 0.018,0.322 0.034,0.51 0,0.103 0,0.221 0.017,0.342 0.12,0.118 0.255,0.236 0.442,0.373 0.767,0.561 1.175,0.867 1.243,0.953 0.392,0.46 0.885,1.174 1.514,2.127 0.29,0.408 0.885,1.26 1.77,2.553 0.205,0.289 0.392,0.544 0.545,0.765 0.255,0.018 0.527,0.018 0.783,0.018 0.237,-0.018 0.475,-0.018 0.698,-0.018 0.067,-0.016 0.136,-0.016 0.203,-0.016 4.492,-0.187 9.053,-1.43 13.682,-3.711 v -0.017 c 2.161,-1.071 3.863,-2.349 5.105,-3.846 1.005,-1.209 1.583,-2.451 1.736,-3.709 0.102,-0.986 -0.103,-1.821 -0.596,-2.484 v -0.002 z"
         id="path315"
         style="fill:#d82d1c" />
      <path
         d="m 711.197,172.649 c -1.804,0.732 -3.353,1.685 -4.646,2.877 -1.378,1.224 -2.263,2.484 -2.671,3.76 -0.937,2.824 -0.494,4.763 1.36,5.819 -0.799,1.685 -0.646,3.251 0.494,4.698 0.29,0.408 0.613,0.764 0.987,1.072 -0.494,0.561 -0.902,1.207 -1.208,1.94 -0.579,1.412 -0.597,2.67 -0.035,3.76 0.682,1.617 2.11,2.553 4.307,2.808 2.604,0.34 6.074,-0.646 10.414,-2.978 l 0.017,-0.018 c 1.414,1.176 3.217,1.992 5.412,2.469 3.113,0.629 6.057,0.221 8.865,-1.226 0.323,-0.171 0.545,-0.442 0.664,-0.799 0.12,-0.358 0.085,-0.698 -0.085,-1.022 -0.17,-0.34 -0.442,-0.562 -0.8,-0.68 -0.358,-0.119 -0.698,-0.086 -1.037,0.085 -0.188,0.101 -0.393,0.204 -0.598,0.288 -0.305,0.137 -0.612,0.256 -0.918,0.375 -1.771,0.596 -3.608,0.698 -5.53,0.307 h -0.017 c -1.923,-0.408 -3.456,-1.157 -4.613,-2.246 0.478,-0.239 0.954,-0.512 1.448,-0.834 0.152,-0.188 0.372,-0.426 0.646,-0.715 0.817,-0.885 1.481,-1.702 1.991,-2.468 0.289,-0.698 0.545,-1.276 0.731,-1.735 -0.119,-0.085 -0.237,-0.154 -0.356,-0.204 -0.528,0.46 -1.208,0.986 -2.026,1.565 -2.534,1.804 -4.662,2.705 -6.348,2.705 -0.289,0 -0.562,-0.101 -0.799,-0.322 -0.187,-0.086 -0.34,-0.171 -0.494,-0.291 l -0.017,-0.016 c -0.34,-0.408 -0.307,-1.072 0.119,-1.974 0.392,-1.701 1.481,-3.539 3.268,-5.53 0.596,-0.681 1.174,-1.244 1.7,-1.667 -0.049,-0.104 -0.117,-0.189 -0.186,-0.273 -0.018,-0.018 -0.034,-0.052 -0.052,-0.069 -0.391,0.119 -0.629,0.205 -0.714,0.238 -0.494,0.205 -1.005,0.46 -1.498,0.783 -0.288,0.188 -0.731,0.512 -1.344,0.936 -0.442,0.306 -1.192,0.988 -2.229,2.025 -0.018,0.018 -0.018,0.018 -0.018,0.035 -0.493,0.663 -0.885,1.31 -1.21,1.956 -0.116,0.221 -0.203,0.426 -0.287,0.63 -0.086,0.017 -0.17,0.051 -0.256,0.084 -0.885,0.426 -1.872,0.631 -2.942,0.615 -1.227,-0.018 -2.145,-0.426 -2.741,-1.192 -0.203,-0.357 -0.306,-0.732 -0.306,-1.124 -0.035,-0.067 -0.052,-0.152 -0.052,-0.255 0,-0.153 0.068,-0.374 0.205,-0.646 0.152,-1.822 1.446,-3.439 3.896,-4.884 0.188,-0.119 0.393,-0.222 0.597,-0.324 0.579,-0.375 1.293,-0.748 2.127,-1.139 0.97,-0.461 1.906,-0.783 2.825,-0.971 0.034,-0.034 0.067,-0.068 0.118,-0.084 -0.051,-0.086 -0.084,-0.154 -0.118,-0.222 -0.289,-0.033 -0.63,-0.051 -1.021,-0.051 -1.242,0 -2.468,0.17 -3.658,0.511 -0.29,0.085 -0.528,0.153 -0.749,0.238 -0.698,0.323 -1.378,0.681 -2.008,1.072 l -0.425,0.288 c -0.035,0.018 -0.068,0.035 -0.086,0.052 l -0.136,0.102 c -0.681,0.494 -1.312,1.038 -1.905,1.633 -0.12,0.12 -0.239,0.241 -0.358,0.375 -0.698,-0.51 -0.852,-1.395 -0.425,-2.638 0.323,-0.884 0.952,-1.751 1.905,-2.603 1.072,-0.97 2.365,-1.769 3.847,-2.383 h 0.016 c 3.592,-1.481 7.13,-1.481 10.585,-0.016 3.047,1.293 5.599,2.961 7.657,5.002 1.141,0.936 2.298,2.026 3.455,3.267 0.528,0.75 1.056,1.583 1.6,2.485 0.051,0.086 0.103,0.171 0.153,0.257 0.085,0.118 0.154,0.254 0.222,0.374 0.392,0.697 0.697,1.293 0.902,1.752 0.033,-0.016 0.067,-0.016 0.103,-0.034 0.084,-0.034 0.151,-0.068 0.237,-0.101 -0.017,-0.035 -0.017,-0.07 -0.017,-0.086 -0.188,-1.242 -0.323,-1.957 -0.392,-2.162 -0.494,-1.43 -1.056,-2.655 -1.72,-3.676 -0.152,-0.221 -0.324,-0.492 -0.545,-0.8 -0.323,-0.424 -0.577,-0.765 -0.799,-1.055 -0.289,-0.374 -0.527,-0.713 -0.716,-1.038 -0.187,-0.238 -0.374,-0.493 -0.561,-0.765 -0.426,-0.561 -1.106,-1.277 -2.042,-2.16 -1.871,-1.482 -4.033,-2.725 -6.483,-3.762 -4.132,-1.769 -8.369,-1.769 -12.676,0 m 3.455,21.12 c 0.731,0.629 1.583,0.986 2.536,1.105 -2.895,1.362 -5.26,1.958 -7.08,1.805 h -0.017 c -1.055,-0.138 -1.77,-0.545 -2.145,-1.243 v -0.017 c -0.187,-0.459 -0.152,-0.988 0.085,-1.582 v 0.016 c 0.29,-0.715 0.732,-1.293 1.328,-1.734 0.033,-0.018 0.067,-0.052 0.102,-0.086 0.358,0.05 0.749,0.086 1.174,0.101 0.937,0.018 1.838,-0.101 2.689,-0.323 0.137,0.799 0.579,1.463 1.328,1.958"
         id="path317"
         style="fill:#9e0c27" />
      <path
         d="m 717.188,194.874 c -0.953,-0.119 -1.805,-0.477 -2.536,-1.105 -0.749,-0.495 -1.192,-1.159 -1.327,-1.958 -0.852,0.221 -1.753,0.34 -2.689,0.323 -0.426,-0.016 -0.815,-0.051 -1.175,-0.102 -0.033,0.034 -0.067,0.069 -0.101,0.086 -0.596,0.442 -1.038,1.02 -1.328,1.735 v -0.016 c -0.237,0.594 -0.271,1.123 -0.085,1.582 v 0.017 c 0.375,0.698 1.09,1.105 2.145,1.243 h 0.017 c 1.82,0.152 4.184,-0.444 7.079,-1.805"
         id="path319"
         style="fill:#d82d1c" />
      <path
         d="m 716.218,178.521 c 0.392,0 0.731,0.018 1.021,0.051 0.035,0.067 0.068,0.137 0.119,0.222 -0.051,0.016 -0.084,0.05 -0.119,0.084 -0.918,0.188 -1.854,0.51 -2.824,0.971 -0.834,0.391 -1.549,0.764 -2.127,1.139 -0.204,0.102 -0.408,0.205 -0.597,0.324 -2.45,1.445 -3.744,3.063 -3.896,4.884 -0.137,0.272 -0.204,0.493 -0.204,0.646 0,0.102 0.016,0.188 0.051,0.255 0,0.392 0.103,0.767 0.305,1.124 0.598,0.766 1.516,1.174 2.742,1.192 1.07,0.016 2.058,-0.189 2.943,-0.615 0.085,-0.033 0.169,-0.067 0.255,-0.084 0.084,-0.204 0.171,-0.409 0.289,-0.63 0.323,-0.646 0.715,-1.292 1.208,-1.956 0,-0.017 0,-0.017 0.018,-0.035 1.037,-1.037 1.787,-1.718 2.229,-2.025 0.612,-0.424 1.056,-0.748 1.344,-0.936 0.493,-0.323 1.004,-0.578 1.498,-0.783 0.085,-0.034 0.323,-0.119 0.714,-0.238 0.018,0.017 0.034,0.051 0.052,0.069 0.068,0.084 0.137,0.169 0.187,0.273 -0.527,0.423 -1.105,0.986 -1.701,1.667 -1.786,1.991 -2.876,3.829 -3.268,5.53 -0.427,0.902 -0.459,1.566 -0.119,1.975 l 0.017,0.015 c 0.154,0.12 0.308,0.205 0.494,0.291 0.237,0.221 0.51,0.322 0.799,0.322 1.686,0 3.813,-0.901 6.348,-2.705 0.818,-0.579 1.498,-1.105 2.026,-1.565 0.119,0.05 0.237,0.119 0.356,0.204 -0.187,0.459 -0.442,1.037 -0.731,1.735 -0.51,0.766 -1.174,1.583 -1.991,2.468 -0.272,0.289 -0.493,0.527 -0.646,0.715 -0.494,0.322 -0.971,0.595 -1.448,0.834 1.157,1.089 2.69,1.838 4.612,2.246 h 0.018 c 1.922,0.391 3.759,0.289 5.53,-0.307 0.306,-0.119 0.613,-0.238 0.918,-0.375 0.087,-0.288 0.188,-0.612 0.29,-0.986 0.578,-2.043 0.901,-3.148 0.953,-3.318 0.018,-0.085 0.442,-1.021 1.242,-2.842 0.34,-0.766 0.596,-1.361 0.782,-1.82 -0.066,-0.12 -0.136,-0.256 -0.221,-0.374 -0.051,-0.086 -0.103,-0.171 -0.154,-0.257 -0.543,-0.902 -1.07,-1.735 -1.599,-2.485 -1.157,-1.241 -2.314,-2.331 -3.455,-3.267 -2.059,-2.041 -4.61,-3.709 -7.657,-5.002 -3.456,-1.465 -6.993,-1.465 -10.585,0.016 h -0.016 c -1.481,0.614 -2.774,1.414 -3.847,2.383 -0.953,0.852 -1.582,1.719 -1.905,2.603 -0.427,1.243 -0.273,2.128 0.425,2.638 0.119,-0.136 0.238,-0.255 0.358,-0.375 0.594,-0.595 1.225,-1.139 1.904,-1.633 l 0.137,-0.102 c 0.018,-0.016 0.051,-0.034 0.086,-0.052 l 0.425,-0.288 c 0.63,-0.391 1.311,-0.749 2.008,-1.072 0.22,-0.085 0.459,-0.153 0.749,-0.238 1.19,-0.342 2.416,-0.511 3.658,-0.511"
         id="path321"
         style="fill:#d82d1c" />
    </g>
  </g>
</svg>
