<?xml version="1.0" encoding="UTF-8" standalone="no"?>
<!-- Created with Inkscape (http://www.inkscape.org/) -->

<svg
   xmlns:dc="http://purl.org/dc/elements/1.1/"
   xmlns:cc="http://creativecommons.org/ns#"
   xmlns:rdf="http://www.w3.org/1999/02/22-rdf-syntax-ns#"
   xmlns:svg="http://www.w3.org/2000/svg"
   xmlns="http://www.w3.org/2000/svg"
   version="1.1"
   width="290"
   height="256"
   id="svg5089">
  <defs
     id="defs5091" />
  <metadata
     id="metadata5094">
    <rdf:RDF>
      <cc:Work
         rdf:about="">
        <dc:format>image/svg+xml</dc:format>
        <dc:type
           rdf:resource="http://purl.org/dc/dcmitype/StillImage" />
        <dc:title></dc:title>
      </cc:Work>
    </rdf:RDF>
  </metadata>
  <g
     transform="translate(0,-224)"
     id="layer1">
    <g
       transform="translate(-770.24335,199.2182)"
       id="g737">
      <path
         d="m 912.392,156.438 c -8.925,0.764 -14.658,3.11 -17.206,7.006 -2.546,3.678 -4.423,8.337 -5.627,13.999 -1.171,5.421 -2.096,10.308 -2.758,14.642 -2.034,9.553 0.76,17.241 8.377,23.062 l 0.021,0.017 c 6.718,5.114 14.879,7.342 24.488,6.666 10.026,-0.695 17.31,-4.348 21.83,-10.957 5.383,-7.617 5.312,-17.608 -0.211,-29.972 -1.479,-3.325 -3.322,-6.855 -5.529,-10.556 -3.026,-5.162 -5.398,-8.866 -7.092,-11.092 -1.786,-2.659 -7.206,-3.593 -16.293,-2.815 m 0.254,2.902 c 7.584,-0.645 12.146,-0.094 13.706,1.67 1.634,2.178 3.942,5.777 6.923,10.816 2.144,3.597 3.941,7.02 5.376,10.257 4.999,11.187 5.151,20.237 0.475,27.134 -4.095,5.841 -10.647,9.083 -19.638,9.706 -8.848,0.61 -16.354,-1.42 -22.538,-6.088 -6.639,-5.084 -9.074,-11.798 -7.3,-20.14 -0.002,-0.036 -0.005,-0.072 0.012,-0.093 0.664,-4.298 1.575,-9.146 2.746,-14.55 1.114,-5.233 2.838,-9.55 5.172,-12.952 2.298,-3.181 7.319,-5.101 15.066,-5.76"
         id="path739"
         style="fill:#9e0c27" />
      <path
         d="m 926.354,161.01 c -1.562,-1.764 -6.124,-2.315 -13.708,-1.67 -7.746,0.659 -12.768,2.579 -15.066,5.76 -2.334,3.402 -4.058,7.72 -5.172,12.952 -1.171,5.404 -2.082,10.252 -2.746,14.55 -0.017,0.021 -0.014,0.057 -0.012,0.094 -1.774,8.341 0.661,15.056 7.3,20.139 6.185,4.668 13.69,6.698 22.538,6.088 8.99,-0.623 15.543,-3.865 19.638,-9.705 4.677,-6.897 4.524,-15.949 -0.475,-27.135 -1.435,-3.237 -3.232,-6.66 -5.376,-10.257 -2.981,-5.039 -5.288,-8.638 -6.921,-10.816"
         id="path741"
         style="fill:#d82d1c" />
      <path
         d="m 921.399,202.894 -0.146,-1.23 13.14,-3.69 6.22,30.152 5.311,1.191 c 9.698,2.222 16.984,5.763 21.863,10.66 5.701,5.635 7.053,10.507 4.051,14.602 l 0.018,-0.004 c -2.576,4.005 -8.162,5.672 -16.733,5.033 -3.712,-0.282 -7.934,-1.404 -12.667,-3.382 -3.229,-1.348 -6.712,-3.105 -10.447,-5.274 -0.073,-0.095 -0.15,-0.191 -0.241,-0.265 -0.157,-0.134 -0.332,-0.264 -0.496,-0.434 -0.074,-0.077 -0.161,-0.133 -0.267,-0.204 -0.037,-0.085 -0.094,-0.184 -0.134,-0.287 -0.335,-0.45 -0.618,-1.003 -0.866,-1.655 -0.531,-1.391 -1.026,-2.791 -1.492,-4.214 -0.08,-0.299 -0.156,-0.579 -0.234,-0.86 -0.837,-2.68 -1.52,-5.412 -2.023,-8.181 -0.978,-5.397 -1.885,-10.808 -2.722,-16.233 -0.816,-5.226 -1.518,-10.457 -2.135,-15.725 m 18.099,28.247 c -0.382,-0.05 -0.763,-0.101 -1.142,-0.133 l -6.14,-29.409 -7.791,2.202 c 0.577,4.812 1.245,9.606 1.978,14.366 0.834,5.408 1.733,10.784 2.708,16.162 0.8,4.451 2.072,8.766 3.797,12.949 l 0.085,0.316 c 0.022,0.014 0.022,0.014 0.026,0.03 3.321,2.33 6.81,4.291 10.466,5.901 1.604,0.668 3.15,1.234 4.638,1.702 2.6,0.811 5,1.293 7.21,1.48 7.177,0.543 11.883,-0.719 14.121,-3.763 1.859,-3.003 0.617,-6.638 -3.705,-10.91 -4.832,-4.758 -12.162,-8.16 -21.978,-10.229 l -2.401,-0.313 c -0.625,-0.148 -1.242,-0.262 -1.872,-0.351"
         id="path743"
         style="fill:#9e0c27" />
      <path
         d="m 938.356,231.007 c 0.379,0.033 0.76,0.083 1.142,0.133 0.63,0.09 1.247,0.203 1.872,0.351 l 2.401,0.315 c 9.815,2.068 17.146,5.47 21.979,10.227 4.321,4.272 5.563,7.907 3.704,10.91 -2.238,3.044 -6.944,4.306 -14.12,3.764 -2.212,-0.187 -4.611,-0.669 -7.211,-1.481 -1.487,-0.468 -3.033,-1.034 -4.638,-1.702 -3.656,-1.61 -7.145,-3.57 -10.467,-5.899 -0.004,-0.018 -0.004,-0.018 -0.025,-0.032 l -0.085,-0.316 c -1.726,-4.183 -2.997,-8.498 -3.797,-12.949 -0.975,-5.378 -1.874,-10.754 -2.708,-16.16 -0.732,-4.762 -1.4,-9.556 -1.978,-14.368 l 7.791,-2.202 6.14,29.409 z"
         id="path745"
         style="fill:#d82d1c" />
      <path
         d="m 916.407,204.189 c -0.273,0.197 -0.461,0.457 -0.549,0.799 l -8.211,30.646 c -0.011,0.033 -0.02,0.065 -0.03,0.097 l -1.44,5.32 c -0.398,0.829 -0.902,1.66 -1.52,2.511 -2.799,4.015 -6.729,7.294 -11.791,9.796 -5.01,2.5 -9.678,3.502 -13.988,3.012 l -0.016,-0.006 c -3.871,-0.426 -6.324,-2.015 -7.34,-4.765 -0.963,-2.98 -0.146,-6.344 2.445,-10.09 l -0.021,0.012 c 2.821,-4.028 6.745,-7.29 11.807,-9.792 4.52,-2.23 8.756,-3.261 12.713,-3.108 l 1.178,0.013 7.846,-28.732 c 0.108,-0.407 0.048,-0.778 -0.146,-1.12 -0.071,-0.111 -0.147,-0.206 -0.225,-0.3 -0.187,-0.198 -0.406,-0.337 -0.685,-0.407 -0.407,-0.107 -0.773,-0.063 -1.126,0.162 -0.358,0.189 -0.593,0.487 -0.696,0.878 l -7.226,26.508 c -4.049,0.029 -8.373,1.174 -12.94,3.442 -5.543,2.742 -9.849,6.326 -12.933,10.748 -3.26,4.703 -4.189,8.947 -2.806,12.729 1.292,3.963 4.556,6.23 9.832,6.792 l -0.017,-0.006 c 4.833,0.567 10.043,-0.532 15.646,-3.29 5.564,-2.752 9.89,-6.348 12.959,-10.776 l -0.039,0.007 c 0.695,-0.984 1.277,-1.95 1.759,-2.877 0.036,-0.058 0.056,-0.123 0.087,-0.166 1.018,-2.084 1.541,-4.056 1.6,-5.89 l 8.208,-30.576 c 0.098,-0.375 0.058,-0.758 -0.147,-1.121 -0.077,-0.148 -0.191,-0.289 -0.337,-0.388 -0.164,-0.156 -0.358,-0.269 -0.573,-0.318 -0.375,-0.099 -0.746,-0.038 -1.099,0.188 -0.074,0.011 -0.132,0.029 -0.179,0.068"
         id="path747"
         style="fill:#9e0c27" />
      <path
         d="m 915.858,204.989 c 0.088,-0.342 0.275,-0.602 0.549,-0.799 0.047,-0.039 0.105,-0.057 0.179,-0.069 0.353,-0.225 0.724,-0.286 1.099,-0.188 0.215,0.05 0.409,0.162 0.573,0.319 -0.03,-0.59 -0.163,-1.179 -0.388,-1.761 -0.814,-1.927 -2.273,-3.192 -4.364,-3.789 -1.693,-0.507 -3.455,-0.685 -5.312,-0.556 -0.154,0.041 -0.312,0.097 -0.467,0.137 -0.211,0.059 -0.424,0.116 -0.608,0.2 0.077,0.094 0.153,0.189 0.226,0.299 0.192,0.342 0.254,0.714 0.145,1.121 l -7.846,28.732 -1.178,-0.014 c -3.957,-0.152 -8.193,0.879 -12.712,3.109 -5.062,2.502 -8.986,5.763 -11.808,9.792 l 0.021,-0.012 c -2.592,3.746 -3.408,7.108 -2.445,10.09 1.016,2.749 3.469,4.338 7.34,4.765 l 0.017,0.005 c 4.31,0.491 8.978,-0.511 13.987,-3.011 5.062,-2.502 8.992,-5.781 11.791,-9.797 0.617,-0.85 1.121,-1.681 1.52,-2.51 l 1.44,-5.32 c 0.012,-0.032 0.021,-0.065 0.03,-0.097 l 8.211,-30.646 z"
         id="path749"
         style="fill:#d82d1c" />
      <path
         d="m 951.193,83.406 c -0.814,-0.507 -1.641,-0.995 -2.484,-1.478 -1.739,-0.973 -3.509,-1.854 -5.317,-2.674 -1.424,-0.631 -2.865,-1.189 -4.363,-1.683 -1.976,-0.647 -3.961,-1.258 -5.962,-1.864 -2.002,-0.607 -4.039,-1.069 -6.122,-1.418 -0.088,-0.015 -0.161,-0.034 -0.25,-0.048 1.697,-3.904 2.118,-7.853 1.24,-11.86 -1.159,-5.283 -4.123,-9.347 -8.883,-12.212 -4.76,-2.865 -9.943,-3.682 -15.555,-2.453 -5.577,1.223 -9.943,4.134 -13.085,8.731 -1.142,1.673 -2,3.387 -2.556,5.154 -0.217,-0.21 -0.43,-0.403 -0.644,-0.595 -1.019,-0.892 -2.134,-1.676 -3.362,-2.349 -1.52,-0.833 -3.088,-1.501 -4.703,-1.986 -1.896,-0.596 -3.842,-0.872 -5.862,-0.858 -1.724,0.035 -3.411,0.233 -5.06,0.612 -1.647,0.378 -3.24,0.934 -4.737,1.69 -1.768,0.85 -3.38,1.94 -4.818,3.268 -1.241,1.146 -2.339,2.398 -3.285,3.788 -1.113,1.65 -1.956,3.429 -2.533,5.338 -0.562,1.82 -0.814,3.71 -0.746,5.666 0.044,1.688 0.304,3.345 0.769,4.991 0.531,1.872 1.324,3.618 2.354,5.261 0.445,0.708 1.245,1.613 2.398,2.731 -1.232,0.87 -2.447,1.737 -3.657,2.636 -1.192,0.896 -2.36,1.82 -3.504,2.774 -1.716,1.404 -3.36,2.897 -4.947,4.496 -1.283,1.258 -2.476,2.548 -3.607,3.876 -1.27,1.478 -2.456,3.024 -3.58,4.625 -1.063,1.484 -2.06,3.039 -2.959,4.642 -0.867,1.511 -1.645,3.052 -2.324,4.642 -0.652,1.565 -1.181,3.138 -1.586,4.734 -0.512,1.965 -0.847,3.958 -1.022,5.969 -0.183,1.976 -0.205,3.985 -0.058,5.994 0.146,2.076 0.471,4.096 0.989,6.074 0.522,1.993 1.186,3.924 2.004,5.784 0.798,1.829 1.78,3.585 2.919,5.256 1.142,1.686 2.428,3.256 3.827,4.714 1.468,1.53 3.066,2.963 4.779,4.284 1.427,1.11 2.902,2.141 4.464,3.083 1.643,0.996 3.316,1.914 5.06,2.749 1.822,0.886 3.713,1.689 5.637,2.416 1.979,0.731 3.959,1.395 5.939,1.988 1.998,0.592 4.027,1.089 6.091,1.512 2.076,0.4 4.171,0.73 6.281,0.971 2.159,0.23 4.304,0.393 6.438,0.508 2.195,0.085 4.406,0.081 6.604,0.027 1.688,-0.045 3.382,-0.142 5.039,-0.317 1.725,-0.189 3.445,-0.395 5.169,-0.584 1.746,-0.246 3.485,-0.524 5.229,-0.855 1.793,-0.342 3.563,-0.713 5.34,-1.135 1.729,-0.397 3.465,-0.846 5.19,-1.345 1.675,-0.487 3.347,-0.99 4.992,-1.541 1.612,-0.542 3.215,-1.132 4.806,-1.772 2.061,-0.847 4.077,-1.733 6.06,-2.7 1.956,-0.926 3.876,-1.946 5.74,-3.059 1.84,-1.072 3.612,-2.214 5.351,-3.435 1.712,-1.18 3.391,-2.44 5.018,-3.774 1.607,-1.346 3.15,-2.748 4.632,-4.203 1.48,-1.455 2.898,-2.967 4.252,-4.533 1.267,-1.495 2.49,-3.03 3.636,-4.602 0.395,-0.549 0.785,-1.114 1.158,-1.676 0.626,-0.977 1.232,-1.967 1.799,-2.983 1.074,-1.898 1.998,-3.867 2.771,-5.888 0.744,-1.927 1.318,-3.922 1.729,-5.951 0.408,-1.973 0.638,-3.978 0.685,-6.028 0.065,-2.054 -0.056,-4.085 -0.36,-6.109 -0.302,-2.077 -0.776,-4.081 -1.397,-6.054 -0.614,-1.939 -1.387,-3.826 -2.317,-5.645 -0.91,-1.807 -1.984,-3.508 -3.21,-5.108 -1.288,-1.654 -2.69,-3.199 -4.185,-4.619 -1.602,-1.518 -3.305,-2.876 -5.1,-4.111 -0.749,-0.504 -1.495,-1.01 -2.249,-1.479"
         id="path751"
         style="fill:#d82d1c" />
      <path
         d="m 926.694,74.241 c 0.089,0.014 0.162,0.033 0.25,0.048 2.083,0.349 4.12,0.811 6.122,1.418 2.001,0.606 3.986,1.217 5.962,1.864 1.498,0.494 2.938,1.052 4.363,1.683 1.809,0.82 3.578,1.701 5.317,2.674 0.844,0.483 1.67,0.971 2.484,1.478 0.754,0.469 1.5,0.975 2.245,1.48 1.795,1.234 3.498,2.592 5.1,4.11 1.494,1.42 2.896,2.965 4.185,4.62 1.226,1.599 2.3,3.3 3.21,5.107 0.931,1.819 1.702,3.706 2.317,5.645 0.621,1.973 1.096,3.977 1.397,6.054 0.305,2.024 0.426,4.055 0.359,6.109 -0.047,2.051 -0.275,4.055 -0.684,6.028 -0.411,2.029 -0.986,4.024 -1.729,5.951 -0.772,2.022 -1.696,3.99 -2.771,5.888 -0.566,1.016 -1.173,2.006 -1.799,2.983 -0.373,0.562 -0.765,1.127 -1.158,1.676 -1.146,1.572 -2.369,3.107 -3.636,4.602 -1.354,1.566 -2.771,3.078 -4.252,4.533 -1.481,1.455 -3.024,2.857 -4.632,4.203 -1.627,1.334 -3.306,2.594 -5.018,3.774 -1.739,1.221 -3.511,2.364 -5.351,3.435 -1.864,1.113 -3.784,2.133 -5.74,3.059 -1.983,0.967 -3.999,1.853 -6.06,2.7 -1.592,0.64 -3.193,1.23 -4.806,1.773 -1.646,0.55 -3.317,1.053 -4.993,1.54 -1.725,0.499 -3.461,0.948 -5.189,1.345 -1.776,0.422 -3.547,0.793 -5.34,1.136 -1.744,0.33 -3.483,0.608 -5.229,0.854 -1.724,0.189 -3.445,0.395 -5.169,0.584 -1.658,0.175 -3.352,0.272 -5.039,0.317 -2.199,0.054 -4.41,0.058 -6.604,-0.026 -2.135,-0.116 -4.278,-0.279 -6.438,-0.509 -2.111,-0.24 -4.205,-0.571 -6.281,-0.971 -2.063,-0.423 -4.093,-0.92 -6.091,-1.512 -1.98,-0.593 -3.961,-1.257 -5.939,-1.988 -1.925,-0.727 -3.812,-1.53 -5.637,-2.415 -1.743,-0.836 -3.418,-1.754 -5.06,-2.75 -1.562,-0.942 -3.037,-1.973 -4.464,-3.083 -1.713,-1.321 -3.312,-2.754 -4.779,-4.284 -1.399,-1.458 -2.686,-3.028 -3.827,-4.714 -1.139,-1.671 -2.122,-3.427 -2.919,-5.256 -0.818,-1.86 -1.481,-3.791 -2.004,-5.784 -0.519,-1.978 -0.843,-3.998 -0.989,-6.074 -0.147,-2.009 -0.126,-4.018 0.058,-5.994 0.176,-2.011 0.511,-4.004 1.022,-5.969 0.405,-1.596 0.934,-3.169 1.585,-4.734 0.681,-1.59 1.457,-3.131 2.325,-4.642 0.899,-1.603 1.896,-3.158 2.959,-4.642 1.124,-1.601 2.311,-3.146 3.58,-4.625 1.132,-1.328 2.324,-2.618 3.607,-3.876 1.587,-1.599 3.231,-3.092 4.946,-4.496 1.145,-0.953 2.312,-1.878 3.505,-2.774 1.21,-0.899 2.425,-1.766 3.657,-2.636"
         id="path753"
         style="fill:none;stroke:#9e0c27;stroke-width:2.6789999;stroke-linecap:round;stroke-linejoin:round;stroke-miterlimit:10" />
      <path
         d="m 857.626,89.158 c -1.153,-1.118 -1.953,-2.022 -2.398,-2.73 -1.029,-1.644 -1.822,-3.39 -2.354,-5.262 -0.465,-1.646 -0.725,-3.303 -0.769,-4.991 -0.068,-1.956 0.185,-3.846 0.746,-5.666 0.577,-1.909 1.42,-3.688 2.533,-5.338 0.946,-1.389 2.044,-2.642 3.284,-3.788 1.439,-1.328 3.052,-2.418 4.819,-3.267 1.497,-0.757 3.09,-1.312 4.737,-1.691 1.648,-0.379 3.336,-0.577 5.06,-0.612 2.021,-0.014 3.966,0.262 5.861,0.858 1.616,0.486 3.185,1.153 4.706,1.986 1.227,0.673 2.342,1.458 3.359,2.349 0.215,0.193 0.428,0.385 0.644,0.595 0.557,-1.767 1.416,-3.481 2.557,-5.154 3.142,-4.597 7.508,-7.508 13.085,-8.731 5.611,-1.229 10.795,-0.412 15.555,2.453 4.76,2.865 7.724,6.929 8.883,12.212 0.878,4.007 0.457,7.956 -1.24,11.86"
         id="path755"
         style="fill:none;stroke:#9e0c27;stroke-width:2.6789999;stroke-miterlimit:10" />
      <path
         d="m 926.696,62.755 c -1.098,-5.005 -3.896,-8.865 -8.385,-11.584 -4.49,-2.735 -9.375,-3.516 -14.658,-2.357 -5.268,1.154 -9.378,3.906 -12.329,8.273 -1.489,2.195 -2.446,4.479 -2.905,6.842 -0.286,-0.366 -0.589,-0.728 -0.924,-1.083 -0.331,-0.339 -0.679,-0.674 -1.039,-0.989 -0.959,-0.853 -2.03,-1.595 -3.182,-2.234 -1.439,-0.782 -2.928,-1.398 -4.455,-1.869 -1.786,-0.568 -3.646,-0.846 -5.546,-0.824 -1.622,0.029 -3.223,0.227 -4.79,0.587 -1.567,0.361 -3.062,0.894 -4.5,1.604 -1.673,0.812 -3.194,1.848 -4.568,3.092 -1.168,1.08 -2.207,2.284 -3.103,3.595 -1.049,1.55 -1.846,3.233 -2.39,5.049 -0.529,1.727 -0.773,3.512 -0.71,5.367 0.038,1.585 0.282,3.16 0.728,4.725 0.51,1.774 1.249,3.43 2.223,4.981 0.47,0.737 0.979,1.414 1.542,2.028 0.587,0.643 1.231,1.238 1.916,1.775 1.438,1.089 2.985,1.967 4.627,2.654 1.67,0.662 3.396,1.106 5.144,1.34 1.848,0.213 3.696,0.201 5.534,-0.013 1.925,-0.216 3.762,-0.67 5.51,-1.379 1.691,-0.731 3.231,-1.685 4.617,-2.864 1.196,-1.033 2.259,-2.209 3.174,-3.507 0.933,-1.301 1.688,-2.701 2.271,-4.184 0.314,-0.839 0.591,-1.688 0.795,-2.556 0.106,-0.452 0.192,-0.917 0.268,-1.361 1.391,1.889 3.184,3.501 5.379,4.837 4.505,2.716 9.389,3.495 14.656,2.341 5.283,-1.158 9.393,-3.911 12.331,-8.257 2.938,-4.346 3.866,-9.024 2.769,-14.029"
         id="path757"
         style="fill:#ffffff" />
      <path
         d="m 865.853,73.026 c 1.182,-2.436 3.033,-4.076 5.563,-4.957 2.55,-0.884 5.032,-0.743 7.464,0.421 2.436,1.181 4.076,3.033 4.957,5.564 0.881,2.534 0.735,4.999 -0.428,7.431 -1.181,2.436 -3.032,4.076 -5.565,4.957 -2.532,0.881 -4.997,0.735 -7.431,-0.429 -2.432,-1.163 -4.071,-3.015 -4.957,-5.564 -0.895,-2.528 -0.768,-4.99 0.397,-7.423"
         id="path759"
         style="fill:#282525" />
      <path
         d="m 910.271,62.827 c -2.092,-1.718 -4.46,-2.434 -7.129,-2.174 -2.685,0.262 -4.88,1.43 -6.601,3.505 -1.72,2.09 -2.437,4.458 -2.177,7.127 0.261,2.669 1.424,4.847 3.498,6.57 2.09,1.718 4.459,2.433 7.129,2.175 2.667,-0.26 4.846,-1.423 6.568,-3.498 1.722,-2.075 2.438,-4.443 2.175,-7.127 -0.244,-2.673 -1.389,-4.856 -3.463,-6.578"
         id="path761"
         style="fill:#282525" />
      <path
         d="m 937.772,108.112 c -3.154,1.959 -6.366,3.726 -9.671,5.308 -4.196,2.051 -8.506,3.819 -12.948,5.289 -4.666,1.554 -9.614,2.982 -14.856,4.252 0.429,-0.162 -0.786,0.086 -3.622,0.759 -2.834,0.673 -6.615,1.33 -11.36,1.975 -4.743,0.647 -9.439,0.957 -14.085,0.963 -3.645,0.028 -7.297,-0.13 -10.963,-0.51 -2.741,-0.308 -5.451,-0.709 -8.14,-1.165 4.175,1.45 8.46,2.55 12.859,3.301 3.971,0.672 8.014,1.054 12.111,1.133 3.654,0.091 7.287,-0.071 10.911,-0.506 3.729,-0.423 6.754,-0.932 9.079,-1.51 2.308,-0.575 3.905,-0.958 4.8,-1.173 0.88,-0.21 2.222,-0.505 4.039,-0.886 1.82,-0.381 4.485,-1.205 7.995,-2.472 3.437,-1.216 6.787,-2.67 10.05,-4.362 3.666,-1.884 7.142,-4.017 10.444,-6.387 3.66,-2.619 7.056,-5.506 10.202,-8.665 -2.22,1.601 -4.499,3.164 -6.845,4.656"
         id="path763"
         style="fill:#282525" />
      <path
         d="m 912.221,91.7 c -1.202,-4.931 -3.918,-8.723 -8.159,-11.411 -4.232,-2.654 -8.752,-3.412 -13.56,-2.273 -4.8,1.173 -8.487,3.901 -11.055,8.218 -2.552,4.313 -3.24,8.921 -2.071,13.859 1.201,4.931 3.918,8.724 8.15,11.378 4.242,2.687 8.762,3.445 13.561,2.272 4.808,-1.139 8.494,-3.867 11.062,-8.184 2.569,-4.317 3.271,-8.928 2.072,-13.859"
         id="path765"
         style="fill:#e78c00" />
      <path
         d="m 922.7,169.257 c -0.32,-0.566 -0.572,-1.13 -0.764,-1.675 0.075,-0.019 0.156,-0.023 0.243,-0.049 l 0.015,-0.007 c 13.856,-3.832 26.659,-8.717 38.401,-14.636 1.7,-0.858 2.954,-1.523 3.794,-1.971 0.831,-0.463 1.406,-0.77 1.727,-0.938 0.307,-0.163 0.737,-0.419 1.264,-0.752 l 0.122,-0.343 c 0.008,-0.02 0.021,-0.06 0.028,-0.08 0.108,-0.301 0.228,-0.576 0.367,-0.842 0.198,-0.395 0.435,-0.775 0.719,-1.128 0.367,-0.458 0.779,-0.855 1.266,-1.204 0.008,-0.019 0.021,-0.06 0.027,-0.08 0.848,-2.542 1.946,-4.485 3.316,-5.821 1.378,-1.357 2.633,-2.339 3.771,-2.931 1.002,-0.528 1.582,-0.82 1.706,-0.878 0.339,-0.093 0.686,-0.175 1.05,-0.248 0.014,-0.007 0.027,-0.015 0.047,-0.006 2.57,-0.538 4.158,0.446 4.751,2.922 0.004,0.047 0.004,0.08 0.011,0.128 -0.002,0.101 -0.005,0.202 -0.007,0.304 -0.036,0.837 -0.407,1.498 -1.099,2.011 -0.863,0.644 -1.824,1.085 -2.875,1.335 -0.904,0.21 -1.758,0.451 -2.574,0.738 l 0.438,0.009 c 1.229,0.017 2.427,0.183 3.616,0.468 0.463,0.132 0.927,0.229 1.419,0.312 0.384,0.068 0.754,0.109 1.125,0.116 0.168,0.004 0.33,-0.007 0.485,0.003 2.188,-0.003 4.271,-0.51 6.248,-1.517 1.787,-0.917 3.277,-1.475 4.464,-1.688 l -0.015,0.006 c 0.86,-0.159 1.581,-0.015 2.166,0.407 l 0.021,0.008 c 0.564,0.517 0.914,1.219 1.065,2.133 l -0.007,-0.014 c 0.136,1.057 -0.02,2.1 -0.44,3.152 0.007,0.014 0.007,0.014 -0.007,0.02 -0.289,0.622 -0.704,1.121 -1.272,1.473 -0.005,-0.013 -0.012,-0.027 -0.019,-0.039 l -0.033,-0.001 c -0.605,-0.431 -1.283,-0.694 -2.045,-0.784 -0.611,-0.093 -1.227,-0.085 -1.85,0.011 -0.312,0.048 -0.61,0.123 -0.916,0.217 -0.646,0.258 -1.253,0.53 -1.817,0.816 l 0.006,0.013 c 0.956,-0.203 1.893,-0.165 2.841,0.104 1.141,0.326 1.979,0.965 2.492,1.939 0.216,0.384 0.384,0.806 0.476,1.245 0.147,0.698 -0.019,1.364 -0.472,1.997 -0.575,0.792 -1.322,1.364 -2.262,1.71 l -0.271,-0.221 c -0.188,-0.146 -0.372,-0.291 -0.56,-0.436 -0.438,-0.394 -0.972,-0.675 -1.596,-0.863 -0.867,-0.239 -1.735,-0.311 -2.603,-0.199 -0.995,0.121 -1.934,0.434 -2.801,0.964 -0.676,0.404 -1.287,0.878 -1.805,1.443 l -0.614,0.677 c 0.512,-0.294 1.078,-0.546 1.684,-0.784 0.795,-0.296 1.597,-0.509 2.409,-0.628 1.023,-0.169 1.985,-0.042 2.876,0.353 0.971,0.424 1.62,1.12 1.923,2.079 0.265,1.361 -0.313,2.538 -1.736,3.516 -2.019,1.345 -4.477,2.08 -7.396,2.231 -2.852,0.153 -5.39,-0.647 -7.59,-2.391 -0.132,-0.104 -0.285,-0.181 -0.447,-0.239 -0.168,-0.037 -0.337,-0.041 -0.505,-0.01 -2.432,0.372 -4.587,-0.226 -6.481,-1.782 -0.054,-0.041 -0.105,-0.084 -0.146,-0.131 -0.445,-0.373 -0.869,-0.74 -1.294,-1.106 -0.033,-0.034 -0.061,-0.054 -0.087,-0.076 l -0.696,0.398 c -0.02,-0.008 -0.02,-0.008 -0.021,0.027 -3.494,2.314 -7.182,4.436 -11.047,6.324 -8.018,3.914 -16.848,6.892 -26.496,8.957 -0.332,0.074 -0.586,0.245 -0.768,0.532 -0.014,0.006 -0.014,0.006 -0.007,0.021 -0.062,0.079 -0.098,0.18 -0.134,0.28 -0.662,-0.337 -1.313,-0.796 -1.95,-1.361 -1.149,-1.007 -2.097,-2.194 -2.854,-3.54"
         id="path767"
         style="fill:#d82d1c" />
      <path
         d="m 963.509,159.611 1.045,2.195 c -2.756,1.694 -5.615,3.271 -8.581,4.733 -8.182,3.989 -17.193,7.04 -27.054,9.155 -0.33,0.075 -0.64,0.021 -0.914,-0.167 -0.287,-0.181 -0.457,-0.434 -0.525,-0.753 -0.057,-0.225 -0.038,-0.433 0.025,-0.614 0.036,-0.1 0.072,-0.201 0.134,-0.28 -0.007,-0.015 -0.007,-0.015 0.009,-0.021 0.18,-0.287 0.434,-0.458 0.766,-0.532 9.648,-2.065 18.479,-5.043 26.496,-8.957 2.978,-1.467 5.851,-3.051 8.599,-4.759"
         id="path769"
         style="fill:#9e0c27" />
      <path
         d="m 964.554,161.805 -1.045,-2.194 c 0.828,-0.511 1.648,-1.034 2.448,-1.565 0,-0.035 0,-0.035 0.021,-0.027 l 0.697,-0.398 c 0.027,0.019 0.053,0.041 0.086,0.076 0.425,0.365 0.85,0.733 1.295,1.105 0.039,0.048 0.092,0.09 0.146,0.132 1.894,1.556 4.05,2.153 6.481,1.782 0.169,-0.031 0.338,-0.027 0.506,0.009 0.161,0.057 0.314,0.136 0.447,0.24 2.199,1.744 4.737,2.544 7.589,2.391 2.92,-0.152 5.378,-0.887 7.396,-2.231 1.424,-0.979 2.001,-2.156 1.737,-3.517 -0.305,-0.958 -0.953,-1.654 -1.924,-2.078 -0.891,-0.396 -1.853,-0.522 -2.876,-0.353 -0.812,0.119 -1.613,0.332 -2.409,0.627 -0.605,0.239 -1.17,0.491 -1.684,0.784 l 0.614,-0.677 c 0.518,-0.564 1.129,-1.038 1.805,-1.443 0.867,-0.53 1.806,-0.842 2.801,-0.964 0.867,-0.111 1.735,-0.039 2.603,0.2 0.624,0.188 1.157,0.468 1.596,0.863 0.188,0.145 0.373,0.289 0.56,0.435 l 0.271,0.221 c 0.939,-0.345 1.687,-0.918 2.263,-1.71 0.451,-0.632 0.619,-1.298 0.471,-1.997 -0.092,-0.439 -0.26,-0.861 -0.476,-1.245 -0.513,-0.974 -1.352,-1.612 -2.492,-1.938 -0.948,-0.269 -1.885,-0.308 -2.84,-0.104 l -0.007,-0.013 c 0.564,-0.287 1.172,-0.558 1.817,-0.816 0.306,-0.094 0.604,-0.169 0.916,-0.218 0.624,-0.095 1.238,-0.103 1.851,-0.01 0.761,0.088 1.438,0.352 2.044,0.783 l 0.033,10e-4 c 0.007,0.013 0.014,0.027 0.02,0.04 0.567,-0.352 0.982,-0.851 1.271,-1.474 0.015,-0.006 0.015,-0.006 0.008,-0.019 0.419,-1.053 0.575,-2.095 0.44,-3.153 l 0.007,0.014 c -0.152,-0.914 -0.502,-1.616 -1.066,-2.133 l -0.021,-0.008 c -0.585,-0.422 -1.306,-0.565 -2.165,-0.407 l 0.014,-0.006 c -1.187,0.213 -2.676,0.771 -4.462,1.688 -1.979,1.007 -4.062,1.513 -6.249,1.516 -0.156,-0.009 -0.318,10e-4 -0.486,-0.003 -0.371,-0.006 -0.741,-0.048 -1.125,-0.116 -0.491,-0.084 -0.956,-0.181 -1.418,-0.312 -1.19,-0.286 -2.388,-0.451 -3.616,-0.469 l -0.439,-0.008 c 0.816,-0.288 1.672,-0.528 2.575,-0.74 1.05,-0.249 2.011,-0.69 2.875,-1.335 0.691,-0.511 1.062,-1.172 1.099,-2.009 0.003,-0.102 0.004,-0.203 0.006,-0.304 -0.006,-0.048 -0.005,-0.082 -0.011,-0.128 -0.594,-2.477 -2.181,-3.46 -4.749,-2.923 -0.021,-0.008 -0.035,-0.001 -0.049,0.005 -0.365,0.074 -0.712,0.156 -1.05,0.249 -0.124,0.058 -0.703,0.351 -1.706,0.879 -1.139,0.591 -2.394,1.574 -3.771,2.93 -1.37,1.336 -2.468,3.279 -3.316,5.822 -0.006,0.02 -0.02,0.061 -0.027,0.08 -0.486,0.348 -0.898,0.745 -1.266,1.204 -0.284,0.352 -0.521,0.733 -0.717,1.127 -0.142,0.267 -0.262,0.542 -0.369,0.843 -0.008,0.02 -0.021,0.06 -0.028,0.08 l -0.122,0.343 c -0.526,0.333 -0.956,0.589 -1.262,0.752 -0.322,0.168 -0.896,0.475 -1.729,0.938 -0.84,0.448 -2.094,1.113 -3.793,1.971 -0.068,0.032 -0.15,0.07 -0.225,0.123 l -1.038,-2.182 c 0.062,-0.044 0.116,-0.071 0.171,-0.096 2.012,-1.007 3.997,-2.068 5.957,-3.15 0.008,-0.022 0.082,-0.074 0.24,-0.164 -0.09,0.024 -0.09,0.024 -0.008,-0.014 0.021,-0.095 0.107,-0.337 0.271,-0.731 0.143,-0.403 0.704,-1.121 1.676,-2.134 0.98,-2.857 2.26,-5.053 3.858,-6.581 l 0.006,0.013 c 1.604,-1.582 3.05,-2.688 4.354,-3.357 1.343,-0.69 2.086,-1.061 2.229,-1.077 l 0.012,-0.007 c 0.34,-0.095 0.713,-0.188 1.126,-0.268 0.015,-0.006 0.015,-0.006 0.028,-0.013 4.21,-0.882 6.786,0.736 7.717,4.872 -0.002,0.033 0.011,0.061 0.018,0.109 0.151,1.163 -0.065,2.253 -0.657,3.254 1.331,-0.148 2.636,-0.536 3.882,-1.179 2.088,-1.06 3.81,-1.694 5.17,-1.924 1.641,-0.278 3.004,0.025 4.101,0.925 l 0.007,0.014 c 1.084,0.838 1.734,2.067 1.987,3.685 l -0.01,0.02 c 0.2,1.477 0,2.944 -0.594,4.41 l -0.01,0.02 c -0.475,1.146 -1.249,2.049 -2.314,2.69 0.307,0.89 0.329,2.133 0.075,3.708 -0.016,0.107 -0.038,0.202 -0.081,0.289 -0.505,1.326 -1.741,2.416 -3.684,3.29 0.423,2.221 -0.539,4.134 -2.873,5.729 -2.334,1.594 -5.222,2.483 -8.635,2.651 -3.305,0.185 -6.26,-0.684 -8.827,-2.604 -2.761,0.31 -5.237,-0.367 -7.441,-2.011 -0.187,-0.145 -0.372,-0.291 -0.558,-0.435 -0.032,-0.035 -0.088,-0.076 -0.126,-0.125 -0.616,0.393 -1.231,0.786 -1.853,1.165 m 1.258,-14.504 -0.063,0.079 0.015,-0.007 c 0.008,-0.02 0.021,-0.027 0.028,-0.046 0.006,-0.02 0.006,-0.02 0.02,-0.026 l 0,0 z"
         id="path771"
         style="fill:#9e0c27" />
      <path
         d="m 922.194,167.526 -0.014,0.007 c -0.089,0.026 -0.169,0.03 -0.244,0.049 -0.23,0.009 -0.459,-0.049 -0.665,-0.169 -0.294,-0.16 -0.492,-0.401 -0.58,-0.727 -0.081,-0.312 -0.042,-0.615 0.12,-0.909 0.16,-0.293 0.4,-0.492 0.727,-0.579 13.632,-3.776 26.23,-8.564 37.796,-14.366 l 1.036,2.182 c -11.68,5.872 -24.408,10.706 -38.176,14.512"
         id="path773"
         style="fill:#9e0c27" />
      <polygon
         points="971.499,137.96 971.512,137.954 971.506,137.975 "
         id="polygon775"
         style="fill:#66b72e" />
      <path
         d="m 895.497,163.582 c 0.185,-0.16 0.4,-0.25 0.637,-0.28 l 6.037,-0.685 c 0.194,-0.016 0.369,0.005 0.529,0.055 0.161,0.049 0.314,0.145 0.44,0.261 l 2.899,2.734 c 0.311,0.313 0.616,0.64 0.9,0.974 0.166,0.17 0.244,0.38 0.248,0.601 -0.01,0.148 -0.059,0.274 -0.133,0.388 -0.48,0.7 -0.988,1.384 -1.547,2.041 -1.298,1.562 -2.617,3.131 -3.928,4.72 -1.237,1.508 -2.462,3.023 -3.672,4.579 -1.13,1.463 -2.238,2.954 -3.313,4.479 -1.438,2.03 -2.732,4.135 -3.909,6.317 -1.015,1.86 -1.914,3.763 -2.698,5.675 -1.078,2.607 -1.88,5.27 -2.422,7.984 l 2.554,1.507 c 0.646,0.452 1.33,0.992 2.062,1.607 2.379,1.975 3.974,3.731 4.765,5.273 0.979,1.808 1.22,3.337 0.738,4.56 -0.406,1.211 -1.199,2.221 -2.359,3.026 l 0.021,-0.007 c -1.269,0.883 -2.615,1.066 -4.038,0.517 -0.08,-0.042 -0.161,-0.083 -0.229,-0.118 -0.087,-0.062 -0.166,-0.104 -0.253,-0.165 0.202,0.526 0.402,1.088 0.609,1.702 1.182,3.538 0.729,6.078 -1.34,7.596 -2.039,1.619 -4.184,1.744 -6.403,0.376 -0.499,-0.309 -0.986,-0.645 -1.438,-1.014 0.008,0.02 0.006,0.054 -0.008,0.081 -0.172,1.381 -0.8,2.173 -1.873,2.38 -2.893,1.211 -5.526,0.188 -7.895,-3.085 -0.407,0.855 -1.361,1.392 -2.871,1.595 -2.768,0.412 -4.701,-0.723 -5.773,-3.393 -0.891,-2.235 -1.225,-4.795 -0.992,-7.633 0.629,-7.66 4.506,-13.029 11.625,-16.132 0.531,-3.513 1.539,-6.934 3.029,-10.274 2.377,-5.316 5.2,-10.421 8.46,-15.28 3.273,-4.856 7.128,-9.172 11.541,-12.962 m 8.846,3.795 -2.462,-2.304 -5.102,0.575 c -3.625,3.149 -6.845,6.661 -9.651,10.554 -1.623,2.122 -3.228,4.506 -4.83,7.145 -4.077,6.806 -6.555,13.069 -7.459,18.809 -0.074,0.436 -0.127,0.866 -0.18,1.295 -0.021,0.141 -0.037,0.301 -0.053,0.463 -0.189,0.071 -0.391,0.135 -0.588,0.219 -0.439,0.162 -0.885,0.339 -1.311,0.541 0.006,-0.014 0.02,-0.041 0.014,-0.06 -0.426,0.202 -0.826,0.419 -1.225,0.635 -0.115,0.058 -0.237,0.13 -0.352,0.19 -4.889,2.682 -7.566,6.813 -8.025,12.41 -0.168,1.927 -0.023,3.71 0.409,5.356 0.015,0.006 0.015,0.006 0.007,0.021 0.124,0.418 0.252,0.822 0.402,1.221 0.264,0.696 0.54,1.244 0.816,1.657 0.488,0.691 1.008,0.995 1.561,0.908 0.168,-0.031 0.33,-0.049 0.484,-0.087 0.654,-0.152 1.195,-0.381 1.615,-0.704 0.795,-0.588 1.205,-1.476 1.207,-2.657 -0.164,-0.83 -0.282,-1.551 -0.374,-2.158 -0.007,-0.019 0,-0.033 -0.006,-0.053 -0.08,-0.565 -0.141,-1.037 -0.163,-1.42 0.062,0.27 0.154,0.587 0.262,0.965 0.039,0.122 0.078,0.244 0.129,0.371 0,0.034 0.014,0.074 0.033,0.101 0.433,1.289 1.002,2.481 1.727,3.598 1.216,1.932 2.49,3.099 3.828,3.487 0.811,0.233 1.632,0.183 2.463,-0.148 0.114,-0.025 0.223,-0.071 0.33,-0.116 0.752,-0.374 1.013,-1.304 0.811,-2.812 -0.053,-0.451 -0.154,-0.976 -0.313,-1.55 -1.05,-2.91 -1.638,-4.652 -1.778,-5.233 0.818,1.658 1.585,3.087 2.289,4.245 0.801,1.296 1.527,2.28 2.184,2.974 0.755,0.797 1.507,1.338 2.256,1.624 1.117,0.425 2.227,0.271 3.34,-0.439 0.176,-0.112 0.339,-0.231 0.509,-0.363 0.89,-0.707 0.894,-2.549 10e-4,-5.564 -0.842,-2.753 -1.625,-4.444 -2.363,-5.046 0.619,0.339 1.214,0.629 1.809,0.852 0.664,0.258 1.325,0.449 1.962,0.591 0.153,0.03 0.309,0.058 0.449,0.081 0.45,0.079 0.864,0.125 1.234,0.13 1.372,-0.002 2.258,-0.54 2.689,-1.604 0.028,-0.087 0.057,-0.174 0.077,-0.247 0.557,-1.894 -0.781,-4.246 -4.017,-7.051 -0.804,-0.703 -1.634,-1.353 -2.487,-1.928 l -3.416,-1.834 c -0.19,-0.286 -0.238,-0.683 -0.124,-1.199 0.086,-0.362 0.158,-0.73 0.216,-1.107 0.65,-3.841 1.863,-7.493 3.632,-10.977 1.028,-2.023 2.171,-4.003 3.42,-5.928 1.407,-2.166 2.882,-4.295 4.407,-6.364 1.549,-2.11 3.162,-4.185 4.83,-6.232 1.606,-1.959 3.238,-3.906 4.877,-5.833"
         id="path777"
         style="fill:#9e0c27" />
      <path
         d="m 901.881,165.073 2.462,2.304 c -1.639,1.927 -3.271,3.874 -4.877,5.834 -1.668,2.048 -3.281,4.122 -4.83,6.232 -1.525,2.069 -3,4.198 -4.407,6.364 -1.249,1.925 -2.392,3.905 -3.42,5.928 -1.769,3.484 -2.981,7.136 -3.632,10.978 -0.059,0.376 -0.13,0.744 -0.216,1.107 -0.114,0.515 -0.066,0.912 0.124,1.198 l 3.416,1.834 c 0.854,0.575 1.684,1.225 2.487,1.929 3.235,2.805 4.573,5.156 4.017,7.05 -0.02,0.073 -0.049,0.16 -0.077,0.247 -0.432,1.063 -1.317,1.601 -2.689,1.603 -0.37,-0.004 -0.784,-0.051 -1.234,-0.13 -0.142,-0.022 -0.296,-0.051 -0.449,-0.081 -0.637,-0.142 -1.298,-0.333 -1.962,-0.591 -0.595,-0.223 -1.189,-0.513 -1.809,-0.851 0.739,0.601 1.521,2.292 2.364,5.045 0.892,3.018 0.888,4.857 -0.002,5.564 -0.17,0.132 -0.334,0.251 -0.509,0.363 -1.112,0.711 -2.223,0.864 -3.34,0.439 -0.749,-0.285 -1.501,-0.827 -2.256,-1.623 -0.656,-0.695 -1.383,-1.679 -2.183,-2.974 -0.704,-1.159 -1.472,-2.587 -2.29,-4.246 0.141,0.581 0.729,2.324 1.778,5.233 0.159,0.575 0.262,1.099 0.313,1.551 0.202,1.507 -0.059,2.438 -0.811,2.812 -0.107,0.045 -0.216,0.09 -0.33,0.115 -0.831,0.331 -1.652,0.381 -2.463,0.149 -1.338,-0.388 -2.612,-1.555 -3.828,-3.487 -0.725,-1.118 -1.294,-2.31 -1.727,-3.599 -0.019,-0.026 -0.033,-0.067 -0.033,-0.101 -0.051,-0.127 -0.09,-0.249 -0.129,-0.37 -0.106,-0.379 -0.199,-0.696 -0.262,-0.966 0.022,0.384 0.083,0.855 0.162,1.42 0.007,0.02 0,0.034 0.007,0.053 0.092,0.607 0.21,1.329 0.374,2.158 -0.002,1.181 -0.412,2.07 -1.207,2.657 -0.42,0.324 -0.961,0.552 -1.615,0.704 -0.154,0.039 -0.315,0.057 -0.483,0.087 -0.554,0.087 -1.073,-0.216 -1.562,-0.908 -0.276,-0.413 -0.553,-0.961 -0.816,-1.657 -0.15,-0.398 -0.279,-0.803 -0.402,-1.221 0.008,-0.014 0.008,-0.014 -0.006,-0.021 -0.434,-1.646 -0.578,-3.429 -0.41,-5.356 0.459,-5.597 3.136,-9.728 8.025,-12.41 0.114,-0.059 0.236,-0.132 0.352,-0.19 0.398,-0.216 0.799,-0.433 1.225,-0.635 0.006,0.02 -0.008,0.046 -0.014,0.06 0.426,-0.202 0.871,-0.377 1.311,-0.54 0.197,-0.084 0.398,-0.148 0.589,-0.22 0.015,-0.162 0.03,-0.322 0.052,-0.463 0.053,-0.429 0.105,-0.859 0.18,-1.295 0.904,-5.74 3.382,-12.003 7.459,-18.809 1.604,-2.639 3.207,-5.023 4.83,-7.145 2.807,-3.893 6.026,-7.405 9.652,-10.554 l 5.101,-0.575 z"
         id="path779"
         style="fill:#d82d1c" />
      <path
         d="m 955.583,144.661 -3.078,0.818 c -31.987,11.187 -65.366,16.892 -100.174,17.112 2.435,1.475 5.074,2.771 7.907,3.922 7.155,2.888 15.013,4.591 23.534,5.101 8.854,0.528 17.814,-0.246 26.896,-2.342 4.418,-1.013 8.675,-2.304 12.79,-3.858 3.68,-1.48 7.433,-3.114 11.224,-4.895 3.792,-1.781 7.514,-4.134 11.205,-7.05 3.671,-2.931 6.911,-5.857 9.696,-8.808"
         id="path781"
         style="fill:#d82d1c" />
      <path
         d="m 909.185,156.755 c -2.387,0.703 -4.192,1.39 -5.411,2.064 -0.925,0.501 -1.748,1.121 -2.45,1.877 -0.752,0.797 -1.535,1.67 -2.346,2.636 -0.479,0.573 -0.876,1.063 -1.151,1.453 -0.084,0.099 -0.168,0.197 -0.247,0.315 -2.334,3.402 -4.058,7.72 -5.171,12.952 -1.172,5.404 -2.082,10.252 -2.747,14.55 -0.017,0.021 -0.014,0.057 -0.012,0.093 -1.773,8.342 0.661,15.056 7.3,20.14 6.185,4.668 13.69,6.698 22.538,6.088 8.99,-0.623 15.543,-3.865 19.637,-9.706 4.678,-6.897 4.525,-15.949 -0.474,-27.134 -1.435,-3.237 -3.232,-6.66 -5.376,-10.257 -2.336,-3.944 -4.251,-7.028 -5.759,-9.218 -0.209,-0.511 -0.597,-1.173 -1.16,-1.981 -0.892,-1.202 -1.391,-1.89 -1.498,-2.081 -0.353,-0.482 -0.64,-0.84 -0.86,-1.058 -0.383,-0.406 -0.976,-0.7 -1.739,-0.871 -2.072,-0.495 -6.42,-0.462 -13.074,0.138 m -1.38,1.565 c -0.09,0.008 -0.2,0.017 -0.29,0.026 l 0.282,-0.118 0.008,0.092 z"
         id="path783"
         style="fill:#d82d1c" />
    </g>
  </g>
</svg>
