<?xml version="1.0" encoding="UTF-8" standalone="no"?>
<!-- Created with Inkscape (http://www.inkscape.org/) -->

<svg
   xmlns:dc="http://purl.org/dc/elements/1.1/"
   xmlns:cc="http://creativecommons.org/ns#"
   xmlns:rdf="http://www.w3.org/1999/02/22-rdf-syntax-ns#"
   xmlns:svg="http://www.w3.org/2000/svg"
   xmlns="http://www.w3.org/2000/svg"
   version="1.1"
   width="585"
   height="370"
   id="svg2"
   xml:space="preserve"><metadata
     id="metadata8"><rdf:RDF><cc:Work
         rdf:about=""><dc:format>image/svg+xml</dc:format><dc:type
           rdf:resource="http://purl.org/dc/dcmitype/StillImage" /><dc:title></dc:title></cc:Work></rdf:RDF></metadata><defs
     id="defs6"><clipPath
       id="clipPath16"><path
         d="M 0,500 500,500 500,0 0,0 0,500 z"
         id="path18" /></clipPath></defs><g
     transform="matrix(1.25,0,0,-1.25,0,370)"
     id="g10"><g
       transform="translate(-12.624192,-105.23965)"
       id="g12"><g
         clip-path="url(#clipPath16)"
         id="g14"><g
           transform="translate(242.4287,300.6187)"
           id="g20"><path
             d="m 0,0 c 7.974,-22.572 -34.475,-58.149 -94.812,-79.462 -60.336,-21.314 -115.713,-20.295 -123.687,2.277 -7.974,22.572 34.476,58.149 94.812,79.464 C -63.35,23.592 -7.974,22.572 0,0"
             id="path22"
             style="fill:#996633;fill-opacity:1;fill-rule:nonzero;stroke:none" /></g><g
           transform="translate(242.4287,300.6187)"
           id="g24"><path
             d="m 0,0 c 7.974,-22.572 -34.475,-58.149 -94.812,-79.462 -60.336,-21.314 -115.713,-20.295 -123.687,2.277 -7.974,22.572 34.476,58.149 94.812,79.464 C -63.35,23.592 -7.974,22.572 0,0 z"
             id="path26"
             style="fill:none;stroke:#000000;stroke-width:4;stroke-linecap:butt;stroke-linejoin:miter;stroke-miterlimit:10;stroke-opacity:1;stroke-dasharray:none" /></g><g
           transform="translate(469.875,316.0732)"
           id="g28"><path
             d="m 0,0 c -5.255,-23.355 -60.125,-30.899 -122.554,-16.854 -62.429,14.047 -108.779,44.37 -103.523,67.725 5.254,23.355 60.124,30.9 122.554,16.853 C -41.094,53.677 5.255,23.355 0,0"
             id="path30"
             style="fill:#996633;fill-opacity:1;fill-rule:nonzero;stroke:none" /></g><g
           transform="translate(469.875,316.0732)"
           id="g32"><path
             d="m 0,0 c -5.255,-23.355 -60.125,-30.899 -122.554,-16.854 -62.429,14.047 -108.779,44.37 -103.523,67.725 5.254,23.355 60.124,30.9 122.554,16.853 C -41.094,53.677 5.255,23.355 0,0 z"
             id="path34"
             style="fill:none;stroke:#000000;stroke-width:4;stroke-linecap:butt;stroke-linejoin:miter;stroke-miterlimit:10;stroke-opacity:1;stroke-dasharray:none" /></g><g
           transform="translate(386.1855,223.125)"
           id="g36"><path
             d="m 0,0 c 9.593,-21.933 -30.165,-60.495 -88.794,-86.134 -58.63,-25.637 -113.935,-28.637 -123.526,-6.704 -9.591,21.937 30.165,60.499 88.795,86.135 C -64.896,18.935 -9.59,21.935 0,0"
             id="path38"
             style="fill:#996633;fill-opacity:1;fill-rule:nonzero;stroke:none" /></g><g
           transform="translate(386.1855,223.125)"
           id="g40"><path
             d="m 0,0 c 9.593,-21.933 -30.165,-60.495 -88.794,-86.134 -58.63,-25.637 -113.935,-28.637 -123.526,-6.704 -9.591,21.937 30.165,60.499 88.795,86.135 C -64.896,18.935 -9.59,21.935 0,0 z"
             id="path42"
             style="fill:none;stroke:#000000;stroke-width:4;stroke-linecap:butt;stroke-linejoin:miter;stroke-miterlimit:10;stroke-opacity:1;stroke-dasharray:none" /></g><g
           transform="translate(309.6055,367.7856)"
           id="g44"><path
             d="m 0,0 c 0,-5.664 -7.959,-10.255 -17.777,-10.255 -9.817,0 -17.777,4.591 -17.777,10.255 0,5.664 7.96,10.256 17.777,10.256 C -7.959,10.256 0,5.664 0,0"
             id="path46"
             style="fill:#613e00;fill-opacity:1;fill-rule:nonzero;stroke:none" /></g><g
           transform="translate(309.6055,367.7856)"
           id="g48"><path
             d="m 0,0 c 0,-5.664 -7.959,-10.255 -17.777,-10.255 -9.817,0 -17.777,4.591 -17.777,10.255 0,5.664 7.96,10.256 17.777,10.256 C -7.959,10.256 0,5.664 0,0 z"
             id="path50"
             style="fill:none;stroke:#000000;stroke-width:4;stroke-linecap:butt;stroke-linejoin:miter;stroke-miterlimit:10;stroke-opacity:1;stroke-dasharray:none" /></g><g
           transform="translate(377.2217,345.5273)"
           id="g52"><path
             d="m 0,0 c -4.468,-0.305 -8.412,4.229 -8.814,10.125 -0.402,5.896 2.891,10.922 7.357,11.227 C 3.008,21.656 6.951,17.123 7.354,11.227 7.756,5.331 4.464,0.304 0,0"
             id="path54"
             style="fill:#613e00;fill-opacity:1;fill-rule:nonzero;stroke:none" /></g><g
           transform="translate(377.2217,345.5273)"
           id="g56"><path
             d="m 0,0 c -4.468,-0.305 -8.412,4.229 -8.814,10.125 -0.402,5.896 2.891,10.922 7.357,11.227 C 3.008,21.656 6.951,17.123 7.354,11.227 7.756,5.331 4.464,0.304 0,0 z"
             id="path58"
             style="fill:none;stroke:#000000;stroke-width:4;stroke-linecap:butt;stroke-linejoin:miter;stroke-miterlimit:10;stroke-opacity:1;stroke-dasharray:none" /></g><g
           transform="translate(431.9463,319.0767)"
           id="g60"><path
             d="m 0,0 c -1.63,-4.553 -9.348,-5.953 -17.238,-3.128 -7.892,2.824 -12.97,8.805 -11.338,13.358 1.628,4.552 9.346,5.953 17.237,3.128 C -3.447,10.534 1.63,4.553 0,0"
             id="path62"
             style="fill:#613e00;fill-opacity:1;fill-rule:nonzero;stroke:none" /></g><g
           transform="translate(431.9463,319.0767)"
           id="g64"><path
             d="m 0,0 c -1.63,-4.553 -9.348,-5.953 -17.238,-3.128 -7.892,2.824 -12.97,8.805 -11.338,13.358 1.628,4.552 9.346,5.953 17.237,3.128 C -3.447,10.534 1.63,4.553 0,0 z"
             id="path66"
             style="fill:none;stroke:#000000;stroke-width:4;stroke-linecap:butt;stroke-linejoin:miter;stroke-miterlimit:10;stroke-opacity:1;stroke-dasharray:none" /></g><g
           transform="translate(349.9062,345.3828)"
           id="g68"><path
             d="m 0,0 c 2.068,-3.597 -0.937,-9.206 -6.714,-12.528 -5.778,-3.323 -12.14,-3.1 -14.209,0.497 -2.065,3.596 0.941,9.206 6.718,12.528 C -8.43,3.819 -2.069,3.597 0,0"
             id="path70"
             style="fill:#613e00;fill-opacity:1;fill-rule:nonzero;stroke:none" /></g><g
           transform="translate(349.9062,345.3828)"
           id="g72"><path
             d="m 0,0 c 2.068,-3.597 -0.937,-9.206 -6.714,-12.528 -5.778,-3.323 -12.14,-3.1 -14.209,0.497 -2.065,3.596 0.941,9.206 6.718,12.528 C -8.43,3.819 -2.069,3.597 0,0 z"
             id="path74"
             style="fill:none;stroke:#000000;stroke-width:4;stroke-linecap:butt;stroke-linejoin:miter;stroke-miterlimit:10;stroke-opacity:1;stroke-dasharray:none" /></g><g
           transform="translate(81.7686,234.0293)"
           id="g76"><path
             d="m 0,0 c -3.705,-4.482 -13.007,-2.911 -20.777,3.51 -7.771,6.421 -11.068,15.26 -7.363,19.743 3.704,4.483 13.006,2.912 20.777,-3.508 C 0.409,13.322 3.705,4.484 0,0"
             id="path78"
             style="fill:#613e00;fill-opacity:1;fill-rule:nonzero;stroke:none" /></g><g
           transform="translate(81.7686,234.0293)"
           id="g80"><path
             d="m 0,0 c -3.705,-4.482 -13.007,-2.911 -20.777,3.51 -7.771,6.421 -11.068,15.26 -7.363,19.743 3.704,4.483 13.006,2.912 20.777,-3.508 C 0.409,13.322 3.705,4.484 0,0 z"
             id="path82"
             style="fill:none;stroke:#000000;stroke-width:4;stroke-linecap:butt;stroke-linejoin:miter;stroke-miterlimit:10;stroke-opacity:1;stroke-dasharray:none" /></g><g
           transform="translate(210.4922,306.1777)"
           id="g84"><path
             d="m 0,0 c 0,-4.249 -5.971,-7.694 -13.338,-7.694 -7.365,0 -13.336,3.445 -13.336,7.694 0,4.25 5.971,7.695 13.336,7.695 C -5.971,7.695 0,4.25 0,0"
             id="path86"
             style="fill:#613e00;fill-opacity:1;fill-rule:nonzero;stroke:none" /></g><g
           transform="translate(210.4922,306.1777)"
           id="g88"><path
             d="m 0,0 c 0,-4.249 -5.971,-7.694 -13.338,-7.694 -7.365,0 -13.336,3.445 -13.336,7.694 0,4.25 5.971,7.695 13.336,7.695 C -5.971,7.695 0,4.25 0,0 z"
             id="path90"
             style="fill:none;stroke:#000000;stroke-width:4;stroke-linecap:butt;stroke-linejoin:miter;stroke-miterlimit:10;stroke-opacity:1;stroke-dasharray:none" /></g><g
           transform="translate(220.0991,146.4326)"
           id="g92"><path
             d="m 0,0 c 0,-4.655 -6.542,-8.428 -14.609,-8.428 -8.068,0 -14.608,3.773 -14.608,8.428 0,4.653 6.54,8.428 14.608,8.428 C -6.542,8.428 0,4.653 0,0"
             id="path94"
             style="fill:#613e00;fill-opacity:1;fill-rule:nonzero;stroke:none" /></g><g
           transform="translate(220.0991,146.4326)"
           id="g96"><path
             d="m 0,0 c 0,-4.655 -6.542,-8.428 -14.609,-8.428 -8.068,0 -14.608,3.773 -14.608,8.428 0,4.653 6.54,8.428 14.608,8.428 C -6.542,8.428 0,4.653 0,0 z"
             id="path98"
             style="fill:none;stroke:#000000;stroke-width:4;stroke-linecap:butt;stroke-linejoin:miter;stroke-miterlimit:10;stroke-opacity:1;stroke-dasharray:none" /></g><g
           transform="translate(126.4321,259.958)"
           id="g100"><path
             d="m 0,0 c -5.054,2.149 -6.13,10.994 -2.403,19.753 3.726,8.76 10.845,14.118 15.899,11.968 5.051,-2.15 6.128,-10.994 2.402,-19.753 C 12.171,3.208 5.052,-2.149 0,0"
             id="path102"
             style="fill:#613e00;fill-opacity:1;fill-rule:nonzero;stroke:none" /></g><g
           transform="translate(126.4321,259.958)"
           id="g104"><path
             d="m 0,0 c -5.054,2.149 -6.13,10.994 -2.403,19.753 3.726,8.76 10.845,14.118 15.899,11.968 5.051,-2.15 6.128,-10.994 2.402,-19.753 C 12.171,3.208 5.052,-2.149 0,0 z"
             id="path106"
             style="fill:none;stroke:#000000;stroke-width:4;stroke-linecap:butt;stroke-linejoin:miter;stroke-miterlimit:10;stroke-opacity:1;stroke-dasharray:none" /></g><g
           transform="translate(197.3364,258.5723)"
           id="g108"><path
             d="m 0,0 c -1.673,-4.674 -9.596,-6.111 -17.698,-3.211 -8.101,2.899 -13.312,9.039 -11.638,13.714 1.672,4.674 9.596,6.111 17.697,3.211 C -3.538,10.814 1.673,4.675 0,0"
             id="path110"
             style="fill:#613e00;fill-opacity:1;fill-rule:nonzero;stroke:none" /></g><g
           transform="translate(197.3364,258.5723)"
           id="g112"><path
             d="m 0,0 c -1.673,-4.674 -9.596,-6.111 -17.698,-3.211 -8.101,2.899 -13.312,9.039 -11.638,13.714 1.672,4.674 9.596,6.111 17.697,3.211 C -3.538,10.814 1.673,4.675 0,0 z"
             id="path114"
             style="fill:none;stroke:#000000;stroke-width:4;stroke-linecap:butt;stroke-linejoin:miter;stroke-miterlimit:10;stroke-opacity:1;stroke-dasharray:none" /></g><g
           transform="translate(233.376,171.9531)"
           id="g116"><path
             d="m 0,0 c -1.514,-4.231 -8.687,-5.532 -16.02,-2.906 -7.333,2.624 -12.05,8.182 -10.534,12.413 1.512,4.231 8.685,5.532 16.018,2.907 C -3.203,9.789 1.514,4.231 0,0"
             id="path118"
             style="fill:#613e00;fill-opacity:1;fill-rule:nonzero;stroke:none" /></g><g
           transform="translate(233.376,171.9531)"
           id="g120"><path
             d="m 0,0 c -1.514,-4.231 -8.687,-5.532 -16.02,-2.906 -7.333,2.624 -12.05,8.182 -10.534,12.413 1.512,4.231 8.685,5.532 16.018,2.907 C -3.203,9.789 1.514,4.231 0,0 z"
             id="path122"
             style="fill:none;stroke:#000000;stroke-width:4;stroke-linecap:butt;stroke-linejoin:miter;stroke-miterlimit:10;stroke-opacity:1;stroke-dasharray:none" /></g><g
           transform="translate(353.001,211.333)"
           id="g124"><path
             d="m 0,0 c 2.067,-3.597 -0.937,-9.205 -6.714,-12.53 -5.777,-3.321 -12.139,-3.1 -14.208,0.498 -2.066,3.596 0.939,9.207 6.717,12.528 C -8.431,3.819 -2.069,3.597 0,0"
             id="path126"
             style="fill:#613e00;fill-opacity:1;fill-rule:nonzero;stroke:none" /></g><g
           transform="translate(353.001,211.333)"
           id="g128"><path
             d="m 0,0 c 2.067,-3.597 -0.937,-9.205 -6.714,-12.53 -5.777,-3.321 -12.139,-3.1 -14.208,0.498 -2.066,3.596 0.939,9.207 6.717,12.528 C -8.431,3.819 -2.069,3.597 0,0 z"
             id="path130"
             style="fill:none;stroke:#000000;stroke-width:4;stroke-linecap:butt;stroke-linejoin:miter;stroke-miterlimit:10;stroke-opacity:1;stroke-dasharray:none" /></g><g
           transform="translate(291.9541,139.46)"
           id="g132"><path
             d="m 0,0 c -3.143,-3.801 -11.025,-2.469 -17.612,2.976 -6.589,5.442 -9.385,12.935 -6.242,16.736 3.138,3.8 11.024,2.468 17.612,-2.974 C 0.349,11.294 3.142,3.801 0,0"
             id="path134"
             style="fill:#613e00;fill-opacity:1;fill-rule:nonzero;stroke:none" /></g><g
           transform="translate(291.9541,139.46)"
           id="g136"><path
             d="m 0,0 c -3.143,-3.801 -11.025,-2.469 -17.612,2.976 -6.589,5.442 -9.385,12.935 -6.242,16.736 3.138,3.8 11.024,2.468 17.612,-2.974 C 0.349,11.294 3.142,3.801 0,0 z"
             id="path138"
             style="fill:none;stroke:#000000;stroke-width:4;stroke-linecap:butt;stroke-linejoin:miter;stroke-miterlimit:10;stroke-opacity:1;stroke-dasharray:none" /></g><g
           transform="translate(282.792,190.8516)"
           id="g140"><path
             d="M 0,0 C -4.769,3.331 -3.952,12.73 1.819,20.993 7.591,29.258 16.134,33.259 20.901,29.928 25.67,26.597 24.854,17.199 19.083,8.933 13.312,0.67 4.77,-3.331 0,0"
             id="path142"
             style="fill:#613e00;fill-opacity:1;fill-rule:nonzero;stroke:none" /></g><g
           transform="translate(282.792,190.8516)"
           id="g144"><path
             d="M 0,0 C -4.769,3.331 -3.952,12.73 1.819,20.993 7.591,29.258 16.134,33.259 20.901,29.928 25.67,26.597 24.854,17.199 19.083,8.933 13.312,0.67 4.77,-3.331 0,0 z"
             id="path146"
             style="fill:none;stroke:#000000;stroke-width:4;stroke-linecap:butt;stroke-linejoin:miter;stroke-miterlimit:10;stroke-opacity:1;stroke-dasharray:none" /></g></g></g></g></svg>