<?xml version="1.0" encoding="iso-8859-1"?>
<!-- Generator: Adobe Illustrator 16.0.4, SVG Export Plug-In . SVG Version: 6.00 Build 0)  -->
<!DOCTYPE svg PUBLIC "-//W3C//DTD SVG 1.1//EN" "http://www.w3.org/Graphics/SVG/1.1/DTD/svg11.dtd">
<svg version="1.1" id="&#x30EC;&#x30A4;&#x30E4;&#x30FC;_1"
	 xmlns="http://www.w3.org/2000/svg" xmlns:xlink="http://www.w3.org/1999/xlink" x="0px" y="0px" width="500px" height="500px"
	 viewBox="0 0 500 500" style="enable-background:new 0 0 500 500;" xml:space="preserve">
<g>
	<g>
		<path style="fill:#D4145A;" d="M458.639,235.368c-0.666,30.407-18.525,57.936-36.139,77.861
			c-18.262,19.927-33.829,32.252-49.057,32.252c-15.229,0-30.795-12.325-49.056-32.252c-17.614-19.927-35.473-47.455-36.139-77.861
			c-1.345-60.815,47.993-110.115,85.192-110.115C410.644,125.253,459.982,174.553,458.639,235.368z"/>
		<path style="fill:none;stroke:#000000;stroke-width:4;stroke-miterlimit:10;" d="M458.639,235.368
			c-0.666,30.407-18.525,57.936-36.139,77.861c-18.262,19.927-33.829,32.252-49.057,32.252c-15.229,0-30.795-12.325-49.056-32.252
			c-17.614-19.927-35.473-47.455-36.139-77.861c-1.345-60.815,47.993-110.115,85.192-110.115
			C410.644,125.253,459.982,174.553,458.639,235.368z"/>
	</g>
	<ellipse style="fill:#D9E021;" cx="329.973" cy="191.318" rx="6.055" ry="10.38"/>
	<ellipse style="fill:#D9E021;" cx="419.308" cy="282.805" rx="6.055" ry="10.381"/>
	<ellipse style="fill:#D9E021;" cx="360.11" cy="251.592" rx="6.055" ry="10.381"/>
	<ellipse style="fill:#D9E021;" cx="315.981" cy="236.523" rx="6.055" ry="10.38"/>
	<ellipse style="fill:#D9E021;" cx="382.713" cy="202.082" rx="6.055" ry="10.38"/>
	<ellipse style="fill:#D9E021;" cx="401.01" cy="240.829" rx="6.055" ry="10.38"/>
	<ellipse style="fill:#D9E021;" cx="333.202" cy="282.805" rx="6.055" ry="10.381"/>
	<ellipse style="fill:#D9E021;" cx="425.766" cy="191.318" rx="6.055" ry="10.38"/>
	<ellipse style="fill:#D9E021;" cx="369.797" cy="315.095" rx="6.055" ry="10.38"/>
	<g>
		<polygon style="fill:#39B54A;" points="430.532,139.953 408.815,148.205 418.287,169.432 396.285,161.363 391.898,184.367 
			377.068,166.161 362.239,184.367 357.852,161.363 335.85,169.431 345.321,148.204 323.605,139.953 345.321,131.702 
			335.851,110.475 357.852,118.543 362.238,95.54 377.068,113.746 391.897,95.54 396.285,118.544 418.287,110.476 408.816,131.703 
					"/>
		<polygon style="fill:none;stroke:#000000;stroke-width:4;stroke-miterlimit:10;" points="430.532,139.953 408.815,148.205 
			418.287,169.432 396.285,161.363 391.898,184.367 377.068,166.161 362.239,184.367 357.852,161.363 335.85,169.431 
			345.321,148.204 323.605,139.953 345.321,131.702 335.851,110.475 357.852,118.543 362.238,95.54 377.068,113.746 391.897,95.54 
			396.285,118.544 418.287,110.476 408.816,131.703 		"/>
	</g>
</g>
<g>
	<g>
		<path style="fill:#D4145A;" d="M220.772,224.605c-0.665,30.407-18.524,57.935-36.139,77.862
			c-18.262,19.927-33.828,32.252-49.057,32.252c-15.228,0-30.794-12.325-49.055-32.252c-17.614-19.927-35.473-47.455-36.138-77.862
			C49.039,163.79,98.376,114.49,135.577,114.49C172.779,114.49,222.117,163.79,220.772,224.605z"/>
		<path style="fill:none;stroke:#000000;stroke-width:4;stroke-miterlimit:10;" d="M220.772,224.605
			c-0.665,30.407-18.524,57.935-36.139,77.862c-18.262,19.927-33.828,32.252-49.057,32.252c-15.228,0-30.794-12.325-49.055-32.252
			c-17.614-19.927-35.473-47.455-36.138-77.862C49.039,163.79,98.376,114.49,135.577,114.49
			C172.779,114.49,222.117,163.79,220.772,224.605z"/>
	</g>
	<ellipse style="fill:#D9E021;" cx="92.107" cy="180.555" rx="6.055" ry="10.38"/>
	<ellipse style="fill:#D9E021;" cx="181.442" cy="272.042" rx="6.055" ry="10.381"/>
	<ellipse style="fill:#D9E021;" cx="122.244" cy="240.829" rx="6.055" ry="10.38"/>
	<ellipse style="fill:#D9E021;" cx="78.115" cy="225.76" rx="6.055" ry="10.38"/>
	<ellipse style="fill:#D9E021;" cx="144.847" cy="191.318" rx="6.055" ry="10.38"/>
	<ellipse style="fill:#D9E021;" cx="163.144" cy="230.065" rx="6.055" ry="10.381"/>
	<ellipse style="fill:#D9E021;" cx="95.336" cy="272.042" rx="6.055" ry="10.381"/>
	<ellipse style="fill:#D9E021;" cx="187.899" cy="180.555" rx="6.055" ry="10.38"/>
	<ellipse style="fill:#D9E021;" cx="131.931" cy="304.331" rx="6.055" ry="10.381"/>
	<g>
		<polygon style="fill:#39B54A;" points="192.667,129.19 170.95,137.441 180.421,158.669 158.42,150.6 154.033,173.604 
			139.203,155.398 124.374,173.604 119.985,150.6 97.984,158.668 107.456,137.441 85.739,129.19 107.456,120.938 97.985,99.711 
			119.986,107.78 124.373,84.777 139.203,102.982 154.032,84.777 158.42,107.781 180.422,99.712 170.95,120.939 		"/>
		<polygon style="fill:none;stroke:#000000;stroke-width:4;stroke-miterlimit:10;" points="192.667,129.19 170.95,137.441 
			180.421,158.669 158.42,150.6 154.033,173.604 139.203,155.398 124.374,173.604 119.985,150.6 97.984,158.668 107.456,137.441 
			85.739,129.19 107.456,120.938 97.985,99.711 119.986,107.78 124.373,84.777 139.203,102.982 154.032,84.777 158.42,107.781 
			180.422,99.712 170.95,120.939 		"/>
	</g>
</g>
<g>
	<g>
		<path style="fill:#D4145A;" d="M341.319,311.787c-0.665,30.406-18.523,57.935-36.139,77.861
			c-18.262,19.927-33.828,32.252-49.056,32.252c-15.229,0-30.795-12.325-49.056-32.252c-17.615-19.927-35.473-47.455-36.139-77.861
			c-1.344-60.815,47.994-110.116,85.193-110.116C293.325,201.671,342.664,250.972,341.319,311.787z"/>
		<path style="fill:none;stroke:#000000;stroke-width:4;stroke-miterlimit:10;" d="M341.319,311.787
			c-0.665,30.406-18.523,57.935-36.139,77.861c-18.262,19.927-33.828,32.252-49.056,32.252c-15.229,0-30.795-12.325-49.056-32.252
			c-17.615-19.927-35.473-47.455-36.139-77.861c-1.344-60.815,47.994-110.116,85.193-110.116
			C293.325,201.671,342.664,250.972,341.319,311.787z"/>
	</g>
	<ellipse style="fill:#D9E021;" cx="212.655" cy="267.736" rx="6.055" ry="10.381"/>
	<ellipse style="fill:#D9E021;" cx="301.989" cy="359.224" rx="6.055" ry="10.38"/>
	<ellipse style="fill:#D9E021;" cx="242.792" cy="328.011" rx="6.055" ry="10.38"/>
	<ellipse style="fill:#D9E021;" cx="198.663" cy="312.941" rx="6.055" ry="10.381"/>
	<ellipse style="fill:#D9E021;" cx="265.395" cy="278.5" rx="6.055" ry="10.38"/>
	<ellipse style="fill:#D9E021;" cx="283.691" cy="317.247" rx="6.055" ry="10.381"/>
	<ellipse style="fill:#D9E021;" cx="215.884" cy="359.224" rx="6.055" ry="10.38"/>
	<ellipse style="fill:#D9E021;" cx="308.447" cy="267.736" rx="6.055" ry="10.381"/>
	<ellipse style="fill:#D9E021;" cx="252.479" cy="391.513" rx="6.055" ry="10.381"/>
	<g>
		<polygon style="fill:#39B54A;" points="313.214,216.372 291.496,224.624 300.968,245.851 278.967,237.782 274.581,260.785 
			259.75,242.58 244.921,260.786 240.533,237.781 218.531,245.849 228.003,224.622 206.287,216.372 228.003,208.121 
			218.532,186.894 240.534,194.962 244.92,171.958 259.75,190.164 274.579,171.958 278.967,194.962 300.969,186.894 
			291.498,208.121 		"/>
		<polygon style="fill:none;stroke:#000000;stroke-width:4;stroke-miterlimit:10;" points="313.214,216.372 291.496,224.624 
			300.968,245.851 278.967,237.782 274.581,260.785 259.75,242.58 244.921,260.786 240.533,237.781 218.531,245.849 
			228.003,224.622 206.287,216.372 228.003,208.121 218.532,186.894 240.534,194.962 244.92,171.958 259.75,190.164 
			274.579,171.958 278.967,194.962 300.969,186.894 291.498,208.121 		"/>
	</g>
</g>
</svg>
