<?xml version="1.0" encoding="UTF-8" standalone="no"?>
<!-- Created with Inkscape (http://www.inkscape.org/) -->

<svg
   xmlns:dc="http://purl.org/dc/elements/1.1/"
   xmlns:cc="http://creativecommons.org/ns#"
   xmlns:rdf="http://www.w3.org/1999/02/22-rdf-syntax-ns#"
   xmlns:svg="http://www.w3.org/2000/svg"
   xmlns="http://www.w3.org/2000/svg"
   xmlns:sodipodi="http://sodipodi.sourceforge.net/DTD/sodipodi-0.dtd"
   xmlns:inkscape="http://www.inkscape.org/namespaces/inkscape"
   width="99.075165"
   height="227.3176"
   id="svg5696"
   version="1.1"
   inkscape:version="0.48.4 r9939"
   sodipodi:docname="bert14.svg">
  <defs
     id="defs5698" />
  <sodipodi:namedview
     id="base"
     pagecolor="#ffffff"
     bordercolor="#666666"
     borderopacity="1.0"
     inkscape:pageopacity="0.0"
     inkscape:pageshadow="2"
     inkscape:zoom="0.77472527"
     inkscape:cx="-74.050877"
     inkscape:cy="76.351493"
     inkscape:current-layer="layer1"
     inkscape:document-units="px"
     showgrid="false"
     inkscape:window-width="942"
     inkscape:window-height="591"
     inkscape:window-x="412"
     inkscape:window-y="91"
     inkscape:window-maximized="0"
     fit-margin-top="0"
     fit-margin-left="0"
     fit-margin-right="0"
     fit-margin-bottom="0" />
  <metadata
     id="metadata5701">
    <rdf:RDF>
      <cc:Work
         rdf:about="">
        <dc:format>image/svg+xml</dc:format>
        <dc:type
           rdf:resource="http://purl.org/dc/dcmitype/StillImage" />
        <dc:title></dc:title>
      </cc:Work>
    </rdf:RDF>
  </metadata>
  <g
     id="layer1"
     inkscape:label="Layer 1"
     inkscape:groupmode="layer"
     transform="translate(-305.68066,65.859744)">
    <g
       transform="translate(-519.60059,-576.86903)"
       id="g1979">
      <path
         inkscape:connector-curvature="0"
         style="fill:#0b56a5"
         d="m 870.237,712.492 c 0.053,0.264 0.185,0.42 0.367,0.473 7.643,2.918 14.055,4.309 19.281,4.125 4.414,-0.131 7.303,-1.262 8.695,-3.416 1.313,-1.994 0.946,-4.07 -1.104,-6.252 -2.18,-2.336 -5.543,-3.809 -10.088,-4.412 l 0.078,-0.025 c -2.65,-0.342 -5.672,-0.395 -9.035,-0.158 -0.604,-0.027 -1.681,0 -3.283,0.078 -1.497,0.027 -2.653,0.053 -3.414,0.027 -0.212,1.285 -0.526,3.045 -0.921,5.279 -0.288,1.523 -0.446,2.549 -0.524,3.072 -0.078,0.553 -0.078,0.973 -0.052,1.209"
         id="path1981" />
      <path
         inkscape:connector-curvature="0"
         style="fill:none;stroke:#0b56a5;stroke-width:4.2027998;stroke-linecap:round;stroke-linejoin:round;stroke-miterlimit:10"
         d="m 870.237,712.492 c -0.026,-0.236 -0.026,-0.656 0.053,-1.209 0.078,-0.523 0.236,-1.549 0.524,-3.072 0.395,-2.234 0.709,-3.994 0.921,-5.279 0.761,0.025 1.917,0 3.414,-0.027 1.603,-0.078 2.68,-0.105 3.284,-0.078 3.362,-0.236 6.384,-0.184 9.034,0.158 l -0.078,0.025 c 4.545,0.604 7.908,2.076 10.088,4.412 2.05,2.182 2.417,4.258 1.104,6.252 -1.393,2.154 -4.281,3.285 -8.695,3.416 -5.227,0.184 -11.639,-1.207 -19.281,-4.125 -0.183,-0.053 -0.315,-0.209 -0.368,-0.473 z"
         id="path1983" />
      <path
         inkscape:connector-curvature="0"
         style="fill:#ffffff"
         d="m 870.29,711.311 c -0.132,0.998 -0.027,1.551 0.314,1.682 1.287,0.5 2.785,1.023 4.492,1.602 0.631,-3.125 0.473,-5.701 -0.473,-7.775 -0.657,-1.471 -1.629,-2.627 -2.969,-3.441 -0.131,0.869 -0.446,2.521 -0.893,4.992 -0.235,1.416 -0.393,2.389 -0.471,2.94"
         id="path1985" />
      <path
         inkscape:connector-curvature="0"
         style="fill:#ffffff"
         d="m 892.723,704.402 c -1.865,0.867 -3.414,2.154 -4.624,3.914 -1.549,2.207 -2.573,5.043 -3.02,8.537 3.914,0.473 7.119,0.314 9.614,-0.498 2.232,-0.736 3.677,-1.865 4.281,-3.416 0.605,-1.498 0.342,-3.021 -0.761,-4.598 -1.13,-1.653 -2.967,-2.966 -5.49,-3.939"
         id="path1987" />
      <path
         inkscape:connector-curvature="0"
         style="fill:#0060ad"
         d="m 871.655,703.377 c 1.34,0.814 2.312,1.971 2.969,3.441 0.945,2.076 1.104,4.65 0.473,7.775 3.545,1.129 6.882,1.893 9.982,2.26 0.446,-3.494 1.471,-6.33 3.02,-8.537 1.21,-1.76 2.759,-3.047 4.624,-3.914 -1.523,-0.631 -3.31,-1.076 -5.333,-1.367 l 0.079,-0.025 c -2.651,-0.367 -5.673,-0.42 -9.036,-0.158 -0.604,-0.025 -1.681,0 -3.283,0.053 -1.497,0.027 -2.653,0.053 -3.414,0.027 l -0.081,0.445 z"
         id="path1989" />
      <path
         inkscape:connector-curvature="0"
         style="fill:#ffffff"
         d="m 883.24,707.002 c 0.342,0.053 0.631,-0.025 0.842,-0.236 0.182,-0.156 1.05,-0.736 2.572,-1.707 1.551,-0.998 2.576,-1.627 3.073,-1.865 -1.181,-0.158 -1.917,-0.209 -2.232,-0.184 -0.29,0.025 -0.709,0.184 -1.286,0.475 -1.734,0.84 -2.995,1.627 -3.783,2.389 -0.185,0.156 -0.289,0.264 -0.289,0.342 -0.027,0.105 0.026,0.236 0.184,0.367 0.289,0.183 0.578,0.341 0.919,0.419"
         id="path1991" />
      <path
         inkscape:connector-curvature="0"
         style="fill:#0b56a5"
         d="m 844.914,712.912 c 0.053,0.238 0.185,0.396 0.368,0.475 7.645,2.914 14.054,4.309 19.281,4.123 4.413,-0.131 7.303,-1.26 8.694,-3.414 1.313,-1.996 0.945,-4.098 -1.104,-6.279 -2.18,-2.311 -5.543,-3.781 -10.087,-4.385 l 0.079,-0.027 c -2.785,-0.369 -5.806,-0.42 -9.037,-0.184 -0.524,0 -1.628,0.025 -3.283,0.078 -1.471,0.053 -2.601,0.053 -3.414,0.027 -0.237,1.471 -0.552,3.23 -0.946,5.279 -0.289,1.602 -0.446,2.625 -0.525,3.1 h 0.026 c -0.078,0.551 -0.078,0.945 -0.052,1.207"
         id="path1993" />
      <path
         inkscape:connector-curvature="0"
         style="fill:none;stroke:#0b56a5;stroke-width:4.2027998;stroke-linecap:round;stroke-linejoin:round;stroke-miterlimit:10"
         d="m 844.914,712.912 c -0.026,-0.262 -0.026,-0.656 0.053,-1.207 h -0.026 c 0.079,-0.475 0.236,-1.498 0.525,-3.1 0.395,-2.049 0.709,-3.809 0.946,-5.279 0.813,0.025 1.943,0.025 3.414,-0.027 1.655,-0.053 2.759,-0.078 3.283,-0.078 3.231,-0.236 6.252,-0.186 9.037,0.184 l -0.079,0.027 c 4.544,0.604 7.907,2.074 10.087,4.385 2.049,2.182 2.417,4.283 1.104,6.279 -1.392,2.154 -4.281,3.283 -8.694,3.414 -5.228,0.186 -11.637,-1.209 -19.281,-4.123 -0.184,-0.078 -0.316,-0.237 -0.369,-0.475 z"
         id="path1995" />
      <path
         inkscape:connector-curvature="0"
         style="fill:#ffffff"
         d="m 844.94,711.705 h 0.026 c -0.079,0.553 -0.079,0.973 -0.053,1.234 0.053,0.236 0.185,0.395 0.368,0.473 1.732,0.658 3.23,1.182 4.49,1.576 0.632,-3.1 0.474,-5.699 -0.473,-7.775 -0.656,-1.471 -1.627,-2.627 -2.967,-3.441 -0.472,2.759 -0.944,5.386 -1.391,7.933"
         id="path1997" />
      <path
         inkscape:connector-curvature="0"
         style="fill:#ffffff"
         d="m 862.751,708.736 c -1.551,2.207 -2.549,5.07 -2.994,8.564 3.913,0.473 7.117,0.289 9.614,-0.525 2.232,-0.736 3.678,-1.893 4.281,-3.441 0.604,-1.473 0.342,-2.996 -0.763,-4.572 -1.129,-1.654 -2.968,-2.967 -5.49,-3.965 -1.865,0.865 -3.414,2.18 -4.648,3.939"
         id="path1999" />
      <path
         inkscape:connector-curvature="0"
         style="fill:#0060ad"
         d="m 862.067,703.457 0.079,-0.025 c -2.785,-0.369 -5.806,-0.422 -9.037,-0.186 -0.524,0 -1.628,0.025 -3.283,0.08 -1.471,0.051 -2.601,0.051 -3.414,0.025 l -0.079,0.42 c 1.34,0.814 2.311,1.971 2.967,3.441 0.946,2.076 1.104,4.676 0.473,7.775 3.652,1.156 6.962,1.918 9.984,2.312 0.445,-3.494 1.443,-6.357 2.994,-8.564 1.234,-1.762 2.783,-3.074 4.648,-3.939 -1.548,-0.63 -3.309,-1.077 -5.332,-1.339"
         id="path2001" />
      <path
         inkscape:connector-curvature="0"
         style="fill:#ffffff"
         d="m 857.917,707.396 c 0.342,0.08 0.604,0 0.841,-0.211 0.184,-0.184 1.051,-0.76 2.574,-1.732 1.55,-0.973 2.574,-1.604 3.073,-1.865 -1.182,-0.131 -1.918,-0.184 -2.233,-0.156 -0.289,0.025 -0.709,0.182 -1.286,0.471 -1.761,0.895 -3.021,1.682 -3.81,2.391 -0.184,0.158 -0.263,0.264 -0.263,0.316 -0.025,0.131 0.025,0.236 0.185,0.367 0.289,0.209 0.577,0.341 0.919,0.419"
         id="path2003" />
      <path
         inkscape:connector-curvature="0"
         style="fill:none;stroke:#ef7a00;stroke-width:4.09770012;stroke-miterlimit:10"
         d="m 852.69,613.354 c 0.131,0.053 1.496,2.129 4.044,6.201 3.311,4.701 8.932,10.166 16.865,16.365 7.934,6.172 18.888,3.965 32.888,-6.672 4.31,2.783 7.383,3.072 9.222,0.893 0.604,-0.736 0.997,-1.629 1.155,-2.707 0.132,-1.076 0.184,-1.916 0.157,-2.52 -0.025,-0.605 -0.078,-1.262 -0.13,-1.973 m -3.075,-7.722 c 0.735,0.184 1.761,-0.209 3.048,-1.207 1.287,-1.025 2.416,-2.102 3.389,-3.23 0.973,-1.184 0.342,-2.969 -1.943,-5.359 -1.654,-1.762 -3.94,-0.867 -6.829,2.732 -1.157,1.443 -2.129,2.967 -2.891,4.596 -0.789,1.654 -1.156,2.969 -1.131,3.914 -0.209,-0.08 -0.629,-0.42 -1.234,-1.025 -0.761,-0.76 -1.365,-1.312 -1.785,-1.627 -1.708,-1.236 -3.127,-1.156 -4.308,0.236 -1.761,2.074 -1.997,3.754 -0.736,5.07 0.289,0.314 0.894,0.812 1.864,1.496 0.814,0.605 1.341,1.078 1.577,1.471 -11.743,10.51 -23.062,10.93 -34.02,1.262 -3.414,-3.021 -6.724,-6.963 -9.929,-11.875 -2.573,-4.385 -4.019,-6.697 -4.309,-6.961"
         id="path2005" />
      <path
         inkscape:connector-curvature="0"
         style="fill:#ffe100"
         d="m 914.132,616.217 c 0.079,-0.314 0.342,-0.682 0.787,-1.129 0.236,-0.236 0.501,-0.498 0.842,-0.762 0.079,-0.053 0.158,-0.104 0.263,-0.131 1.604,-1.314 2.418,-1.996 2.496,-2.076 2.127,-2.074 2.075,-4.307 -0.21,-6.697 -1.655,-1.762 -3.94,-0.867 -6.829,2.732 -1.157,1.443 -2.129,2.967 -2.891,4.596 -0.789,1.654 -1.156,2.969 -1.131,3.914 -0.209,-0.08 -0.629,-0.42 -1.234,-1.025 -0.761,-0.76 -1.365,-1.312 -1.785,-1.627 -1.708,-1.236 -3.127,-1.156 -4.308,0.236 -1.762,2.074 -1.997,3.756 -0.736,5.07 0.289,0.314 0.894,0.812 1.864,1.496 0.814,0.605 1.341,1.078 1.576,1.471 -1.34,1.234 -2.73,2.312 -4.124,3.283 -2.023,1.393 -3.966,2.471 -5.884,3.23 -2.129,0.895 -4.334,1.42 -6.619,1.578 -2.392,0.184 -4.808,-0.105 -7.276,-0.84 -2.471,-0.789 -4.913,-2.049 -7.303,-3.758 -0.342,2.863 -0.5,5.465 -0.474,7.775 2.863,1.654 5.779,2.785 8.748,3.336 2.89,0.553 5.805,0.605 8.747,0.133 2.496,-0.395 5.018,-1.156 7.54,-2.285 2.258,-0.973 4.491,-2.207 6.723,-3.73 1.235,-0.814 2.444,-1.709 3.653,-2.654 4.15,3.309 7.171,3.941 9.036,1.918 0.63,-0.709 1.077,-1.656 1.312,-2.863 0.027,-0.184 0.079,-0.367 0.105,-0.553 h -0.026 l 0.08,-0.236 c 0.131,0.158 0.209,-0.92 0.234,-3.205 3.652,-2.652 4.545,-5.594 2.654,-8.771 0.081,-0.789 -1.863,-0.264 -5.83,1.574"
         id="path2007" />
      <path
         inkscape:connector-curvature="0"
         style="fill:#0b56a5"
         d="m 895.902,621.943 c -0.869,0.867 -2.364,1.787 -4.44,2.707 -4.15,1.865 -9.221,2.967 -15.209,3.309 l -4.598,16.498 3.468,0.393 c 2.916,0.211 5.778,0.158 8.643,-0.156 9.115,-0.973 16.366,-4.309 21.751,-10.035 -1.445,-1.732 -2.944,-3.547 -4.466,-5.463 -3.048,-3.837 -4.755,-6.255 -5.149,-7.253"
         id="path2009" />
      <path
         inkscape:connector-curvature="0"
         style="fill:none;stroke:#0b56a5;stroke-width:4.2027998;stroke-linecap:round;stroke-linejoin:round;stroke-miterlimit:10"
         d="m 895.902,621.943 c 0.394,0.998 2.101,3.416 5.148,7.252 1.521,1.916 3.021,3.73 4.466,5.463 -5.385,5.727 -12.636,9.062 -21.751,10.035 -2.864,0.314 -5.727,0.367 -8.643,0.156 l -3.468,-0.393 4.598,-16.498 c 5.988,-0.342 11.059,-1.443 15.209,-3.309 2.077,-0.919 3.572,-1.838 4.441,-2.706 z"
         id="path2011" />
      <path
         inkscape:connector-curvature="0"
         style="fill:#ffffff"
         d="m 877.697,627.854 -1.444,0.105 -4.598,16.498 1.419,0.184 c 1.183,0.133 2.442,0.236 3.756,0.289 l 0.867,-17.076 z"
         id="path2013" />
      <path
         inkscape:connector-curvature="0"
         style="fill:#1478bf"
         d="m 885.997,626.516 c -2.6,0.656 -5.357,1.102 -8.3,1.338 l -0.867,17.076 c 3.966,0.131 7.829,-0.184 11.559,-0.971 l -2.392,-17.443 z"
         id="path2015" />
      <path
         inkscape:connector-curvature="0"
         style="fill:#ee7624"
         d="m 895.902,621.943 c -0.604,0.605 -1.603,1.262 -2.996,2.023 l 6.752,15.498 c 2.153,-1.391 4.098,-2.994 5.858,-4.807 -1.445,-1.732 -2.942,-3.547 -4.466,-5.463 -3.047,-3.835 -4.754,-6.253 -5.148,-7.251"
         id="path2017" />
      <path
         inkscape:connector-curvature="0"
         style="fill:#a7ce58"
         d="m 892.906,623.967 c -2.021,1.078 -4.334,1.918 -6.909,2.549 l 2.392,17.443 c 4.229,-0.922 7.985,-2.418 11.27,-4.494 l -6.753,-15.498 z"
         id="path2019" />
      <path
         inkscape:connector-curvature="0"
         style="fill:#4cb244"
         d="m 840.974,675.033 c 0.656,5.49 1.787,12.426 3.441,20.857 7.381,0.92 14.605,1.471 21.619,1.604 -0.026,-1.971 0,-3.547 0.053,-4.781 0.236,-0.027 1.393,-0.053 3.467,-0.078 v -19.15 c -5.831,1.182 -11.479,1.812 -16.917,1.891 -4.964,0.053 -8.879,-0.342 -11.742,-1.182 l 0.079,0.839 z"
         id="path2021" />
      <path
         inkscape:connector-curvature="0"
         style="fill:none;stroke:#368137;stroke-width:4.09770012;stroke-miterlimit:10"
         d="m 840.974,675.033 -0.079,-0.84 c 2.863,0.84 6.778,1.234 11.742,1.182 5.438,-0.078 11.086,-0.709 16.917,-1.891 v 19.15 c -2.074,0.025 -3.23,0.051 -3.467,0.078 -0.053,1.234 -0.079,2.811 -0.053,4.781 -7.014,-0.133 -14.238,-0.684 -21.619,-1.604 -1.654,-8.43 -2.785,-15.366 -3.441,-20.856 z"
         id="path2023" />
      <path
         inkscape:connector-curvature="0"
         style="fill:#4cb244"
         d="m 844.415,695.891 c 0.446,2.182 0.814,4.02 1.129,5.463 l 7.435,0.975 c 5.596,0.551 9.955,0.523 13.081,-0.027 l -0.025,-4.807 c -7.014,-0.134 -14.239,-0.684 -21.62,-1.604"
         id="path2025" />
      <path
         inkscape:connector-curvature="0"
         style="fill:none;stroke:#368137;stroke-width:4.09770012;stroke-miterlimit:10"
         d="m 844.415,695.891 c 7.381,0.92 14.605,1.471 21.619,1.604 l 0.025,4.807 c -3.126,0.551 -7.485,0.578 -13.081,0.027 l -7.435,-0.975 c -0.314,-1.444 -0.682,-3.282 -1.128,-5.463 z"
         id="path2027" />
      <path
         inkscape:connector-curvature="0"
         style="fill:#4cb244"
         d="m 887.942,675.191 0.025,-0.814 c -2.285,0.893 -4.885,1.654 -7.802,2.285 -4.438,0.92 -9.062,1.367 -13.869,1.393 v 14.762 c 1.497,0 2.364,0.027 2.627,0.107 l 0.053,4.727 c 5.437,-0.184 10.875,-0.734 16.312,-1.629 1.288,-8.485 2.18,-15.446 2.654,-20.831"
         id="path2029" />
      <path
         inkscape:connector-curvature="0"
         style="fill:none;stroke:#368137;stroke-width:4.09770012;stroke-miterlimit:10"
         d="m 887.942,675.191 c -0.475,5.385 -1.366,12.346 -2.654,20.83 -5.437,0.895 -10.875,1.445 -16.312,1.629 l -0.053,-4.727 c -0.263,-0.08 -1.13,-0.107 -2.627,-0.107 v -14.762 c 4.807,-0.025 9.431,-0.473 13.869,-1.393 2.917,-0.631 5.517,-1.393 7.802,-2.285 l -0.025,0.815 z"
         id="path2031" />
      <path
         inkscape:connector-curvature="0"
         style="fill:#4cb244"
         d="m 868.977,697.65 -0.027,4.834 c 2.339,0.551 5.649,0.578 9.877,0.027 2.128,-0.264 3.992,-0.58 5.648,-0.973 0.235,-1.471 0.499,-3.311 0.813,-5.518 -5.436,0.896 -10.875,1.447 -16.311,1.63"
         id="path2033" />
      <path
         inkscape:connector-curvature="0"
         style="fill:none;stroke:#368137;stroke-width:4.09770012;stroke-miterlimit:10"
         d="m 868.977,697.65 c 5.437,-0.184 10.875,-0.734 16.312,-1.629 -0.314,2.207 -0.578,4.047 -0.813,5.518 -1.656,0.393 -3.521,0.709 -5.648,0.973 -4.228,0.551 -7.538,0.523 -9.877,-0.027 l 0.026,-4.835 z"
         id="path2035" />
      <path
         inkscape:connector-curvature="0"
         style="fill:#4cb244"
         d="m 887.942,675.191 0.025,-0.814 c -5.017,-0.498 -12.32,-0.736 -21.881,-0.709 l 0.21,19.148 c 1.497,0 2.364,0.027 2.627,0.107 l 0.053,4.727 c 5.437,-0.184 10.875,-0.734 16.312,-1.629 1.288,-8.484 2.18,-15.445 2.654,-20.83"
         id="path2037" />
      <path
         inkscape:connector-curvature="0"
         style="fill:none;stroke:#368137;stroke-width:4.09770012;stroke-miterlimit:10"
         d="m 887.942,675.191 c -0.475,5.385 -1.366,12.346 -2.654,20.83 -5.437,0.895 -10.875,1.445 -16.312,1.629 l -0.053,-4.727 c -0.263,-0.08 -1.13,-0.107 -2.627,-0.107 l -0.21,-19.148 c 9.561,-0.027 16.864,0.211 21.881,0.709 l -0.025,0.814 z"
         id="path2039" />
      <path
         inkscape:connector-curvature="0"
         style="fill:#4cb244"
         d="m 868.977,697.65 -0.027,4.834 c 2.339,0.551 5.649,0.578 9.877,0.027 2.128,-0.264 3.992,-0.58 5.648,-0.973 0.235,-1.471 0.499,-3.311 0.813,-5.518 -5.436,0.896 -10.875,1.447 -16.311,1.63"
         id="path2041" />
      <path
         inkscape:connector-curvature="0"
         style="fill:none;stroke:#368137;stroke-width:4.09770012;stroke-miterlimit:10"
         d="m 868.977,697.65 c 5.437,-0.184 10.875,-0.734 16.312,-1.629 -0.314,2.207 -0.578,4.047 -0.813,5.518 -1.656,0.393 -3.521,0.709 -5.648,0.973 -4.228,0.551 -7.538,0.523 -9.877,-0.027 l 0.026,-4.835 z"
         id="path2043" />
      <path
         inkscape:connector-curvature="0"
         style="fill:#4ab134"
         d="m 840.974,675.033 c 0.656,5.49 1.787,12.426 3.441,20.857 7.381,0.92 14.605,1.471 21.619,1.604 -0.026,-1.971 0,-3.547 0.053,-4.781 0.236,-0.027 1.393,-0.053 3.467,-0.078 v -19.15 c -5.831,1.182 -11.479,1.812 -16.917,1.891 -4.964,0.053 -8.879,-0.342 -11.742,-1.182 l 0.079,0.839 z"
         id="path2045" />
      <path
         inkscape:connector-curvature="0"
         style="fill:#4ab134"
         d="m 844.415,695.891 c 0.446,2.182 0.814,4.02 1.129,5.463 l 7.435,0.975 c 5.596,0.551 9.955,0.523 13.081,-0.027 l -0.025,-4.807 c -7.014,-0.134 -14.239,-0.684 -21.62,-1.604"
         id="path2047" />
      <path
         inkscape:connector-curvature="0"
         style="fill:#4cb244"
         d="m 887.942,675.191 0.025,-0.814 c -2.285,0.893 -4.885,1.654 -7.802,2.285 -4.438,0.92 -9.062,1.367 -13.869,1.393 v 14.762 c 1.497,0 2.364,0.027 2.627,0.107 l 0.053,4.727 c 5.437,-0.184 10.875,-0.734 16.312,-1.629 1.288,-8.485 2.18,-15.446 2.654,-20.831"
         id="path2049" />
      <path
         inkscape:connector-curvature="0"
         style="fill:#4cb244"
         d="m 868.977,697.65 -0.027,4.834 c 2.339,0.551 5.649,0.578 9.877,0.027 2.128,-0.264 3.992,-0.58 5.648,-0.973 0.235,-1.471 0.499,-3.311 0.813,-5.518 -5.436,0.896 -10.875,1.447 -16.311,1.63"
         id="path2051" />
      <path
         inkscape:connector-curvature="0"
         style="fill:#4ab134"
         d="m 887.942,675.191 0.025,-0.814 c -5.017,-0.498 -12.32,-0.736 -21.881,-0.709 l 0.21,19.148 c 1.497,0 2.364,0.027 2.627,0.107 l 0.053,4.727 c 5.437,-0.184 10.875,-0.734 16.312,-1.629 1.288,-8.484 2.18,-15.445 2.654,-20.83"
         id="path2053" />
      <path
         inkscape:connector-curvature="0"
         style="fill:#4ab134"
         d="m 868.977,697.65 -0.027,4.834 c 2.339,0.551 5.649,0.578 9.877,0.027 2.128,-0.264 3.992,-0.58 5.648,-0.973 0.235,-1.471 0.499,-3.311 0.813,-5.518 -5.436,0.896 -10.875,1.447 -16.311,1.63"
         id="path2055" />
      <path
         inkscape:connector-curvature="0"
         style="fill:#0b56a5"
         d="m 883.083,623.311 -0.21,-5.516 -37.014,1.154 -0.368,5.07 c -4.439,18.336 -5.962,35.516 -4.597,51.514 4.649,1.732 10.035,2.863 16.155,3.389 9.956,0.867 20.202,-0.105 30.735,-2.969 1.472,-16.312 -0.105,-33.861 -4.701,-52.642"
         id="path2057" />
      <path
         inkscape:connector-curvature="0"
         style="fill:none;stroke:#0b56a5;stroke-width:4.2027998;stroke-linecap:round;stroke-linejoin:round;stroke-miterlimit:10"
         d="m 883.083,623.311 c 4.596,18.781 6.173,36.33 4.702,52.643 -10.533,2.863 -20.779,3.836 -30.735,2.969 -6.12,-0.525 -11.506,-1.656 -16.155,-3.389 -1.365,-15.998 0.157,-33.178 4.597,-51.514 l 0.368,-5.07 37.014,-1.154 0.209,5.515 z"
         id="path2059" />
      <path
         inkscape:connector-curvature="0"
         style="fill:#0076bf"
         d="m 863.145,618.424 -6.016,0.184 c -1.208,10.297 -2.076,19.99 -2.574,29.107 -0.762,13.369 -0.656,23.719 0.342,30.996 3.073,0.342 6.33,0.525 9.719,0.5 0.026,-6.777 -0.447,-27.031 -1.471,-60.787"
         id="path2061" />
      <path
         inkscape:connector-curvature="0"
         style="fill:#0076bf"
         d="m 882.873,617.795 -4.649,0.156 c 1.312,6.646 2.31,14.027 2.968,22.197 0.998,11.795 1.234,24.219 0.709,37.223 2.128,-0.447 4.072,-0.92 5.885,-1.418 1.471,-16.312 -0.106,-33.861 -4.702,-52.643 l -0.211,-5.515 z"
         id="path2063" />
      <path
         inkscape:connector-curvature="0"
         style="fill:#ee7624"
         d="m 849.983,618.818 -4.124,0.131 -0.368,5.07 c -4.439,18.336 -5.962,35.514 -4.597,51.514 1.812,0.656 3.678,1.209 5.57,1.654 -0.501,-12.609 -0.29,-24.666 0.63,-36.172 0.657,-8.117 1.602,-15.497 2.889,-22.197"
         id="path2065" />
      <path
         inkscape:connector-curvature="0"
         style="fill:#a7ce58"
         d="m 857.129,618.607 -7.146,0.211 c -1.287,6.699 -2.232,14.08 -2.889,22.197 -0.92,11.506 -1.131,23.562 -0.63,36.172 2.599,0.658 5.411,1.156 8.432,1.523 -0.998,-7.277 -1.104,-17.627 -0.342,-30.996 0.499,-9.116 1.367,-18.81 2.575,-29.107"
         id="path2067" />
      <path
         inkscape:connector-curvature="0"
         style="fill:#a7ce58"
         d="m 878.223,617.951 -7.014,0.211 c 1.234,10.586 2.102,20.332 2.627,29.209 0.788,13.529 0.683,23.984 -0.342,31.314 2.836,-0.342 5.646,-0.762 8.406,-1.314 0.525,-13.004 0.289,-25.428 -0.709,-37.223 -0.658,-8.169 -1.656,-15.55 -2.968,-22.197"
         id="path2069" />
      <path
         inkscape:connector-curvature="0"
         style="fill:#ee7624"
         d="m 873.836,647.371 c -0.525,-8.877 -1.392,-18.623 -2.627,-29.209 l -8.064,0.262 c 1.024,33.756 1.497,54.01 1.471,60.787 3.073,-0.027 6.043,-0.211 8.879,-0.525 1.024,-7.331 1.129,-17.786 0.341,-31.315"
         id="path2071" />
      <polygon
         style="fill:#ffffff"
         points="882.137,625.832 868.293,627.355 877.356,641.068 "
         id="polygon2073" />
      <path
         inkscape:connector-curvature="0"
         style="fill:#0b56a5"
         d="m 884.659,620.998 c 0.655,-1.523 1.023,-3.178 1.129,-4.963 0.157,-2.287 -0.394,-3.443 -1.682,-3.469 -7.171,-0.184 -14.132,-0.289 -20.831,-0.316 -13.239,-0.078 -20.068,0.158 -20.488,0.736 -0.554,0.709 -0.631,2.365 -0.264,4.939 0.343,2.547 0.867,4.123 1.523,4.781 1.892,1.863 4.965,3.203 9.247,4.07 3.887,0.789 8.169,1.051 12.819,0.814 4.597,-0.236 8.589,-0.945 11.952,-2.074 3.625,-1.207 5.832,-2.705 6.595,-4.518"
         id="path2075" />
      <path
         inkscape:connector-curvature="0"
         style="fill:none;stroke:#0b56a5;stroke-width:4.2027998;stroke-linecap:round;stroke-linejoin:round;stroke-miterlimit:10"
         d="m 884.659,620.998 c -0.763,1.812 -2.97,3.311 -6.594,4.52 -3.363,1.129 -7.355,1.838 -11.952,2.074 -4.65,0.236 -8.933,-0.025 -12.819,-0.814 -4.282,-0.867 -7.355,-2.207 -9.247,-4.07 -0.656,-0.658 -1.181,-2.234 -1.523,-4.781 -0.367,-2.574 -0.29,-4.23 0.264,-4.939 0.42,-0.578 7.249,-0.814 20.488,-0.736 6.699,0.027 13.66,0.133 20.831,0.316 1.288,0.025 1.839,1.182 1.682,3.469 -0.106,1.783 -0.475,3.438 -1.13,4.961 z"
         id="path2077" />
      <path
         inkscape:connector-curvature="0"
         style="fill:#0b56a5"
         d="m 884.659,620.998 c 0.655,-1.523 1.023,-3.178 1.129,-4.963 0.157,-2.287 -0.394,-3.443 -1.682,-3.469 -7.171,-0.184 -14.132,-0.289 -20.831,-0.316 -13.239,-0.078 -20.068,0.158 -20.488,0.736 -0.554,0.709 -0.631,2.365 -0.264,4.939 0.343,2.547 0.867,4.123 1.523,4.781 1.892,1.863 4.965,3.203 9.247,4.07 3.887,0.789 8.169,1.051 12.819,0.814 4.597,-0.236 8.589,-0.945 11.952,-2.074 3.625,-1.207 5.832,-2.705 6.595,-4.518"
         id="path2079" />
      <path
         inkscape:connector-curvature="0"
         style="fill:none;stroke:#0b56a5;stroke-width:4.2027998;stroke-linecap:round;stroke-linejoin:round;stroke-miterlimit:10"
         d="m 884.659,620.998 c -0.763,1.812 -2.97,3.311 -6.594,4.52 -3.363,1.129 -7.355,1.838 -11.952,2.074 -4.65,0.236 -8.933,-0.025 -12.819,-0.814 -4.282,-0.867 -7.355,-2.207 -9.247,-4.07 -0.656,-0.658 -1.181,-2.234 -1.523,-4.781 -0.367,-2.574 -0.29,-4.23 0.264,-4.939 0.42,-0.578 7.249,-0.814 20.488,-0.736 6.699,0.027 13.66,0.133 20.831,0.316 1.288,0.025 1.839,1.182 1.682,3.469 -0.106,1.783 -0.475,3.438 -1.13,4.961 z"
         id="path2081" />
      <path
         inkscape:connector-curvature="0"
         style="fill:#0b56a5"
         d="m 884.659,620.998 c 0.655,-1.523 1.023,-3.178 1.129,-4.963 0.157,-2.287 -0.394,-3.443 -1.682,-3.469 -7.171,-0.184 -14.132,-0.289 -20.831,-0.316 -13.239,-0.078 -20.068,0.158 -20.488,0.736 -0.554,0.709 -0.631,2.365 -0.264,4.939 0.343,2.547 0.867,4.123 1.523,4.781 1.892,1.863 4.965,3.203 9.247,4.07 3.887,0.789 8.169,1.051 12.819,0.814 4.597,-0.236 8.589,-0.945 11.952,-2.074 3.625,-1.207 5.832,-2.705 6.595,-4.518"
         id="path2083" />
      <path
         inkscape:connector-curvature="0"
         style="fill:none;stroke:#0b56a5;stroke-width:4.2027998;stroke-linecap:round;stroke-linejoin:round;stroke-miterlimit:10"
         d="m 884.659,620.998 c -0.763,1.812 -2.97,3.311 -6.594,4.52 -3.363,1.129 -7.355,1.838 -11.952,2.074 -4.65,0.236 -8.933,-0.025 -12.819,-0.814 -4.282,-0.867 -7.355,-2.207 -9.247,-4.07 -0.656,-0.658 -1.181,-2.234 -1.523,-4.781 -0.367,-2.574 -0.29,-4.23 0.264,-4.939 0.42,-0.578 7.249,-0.814 20.488,-0.736 6.699,0.027 13.66,0.133 20.831,0.316 1.288,0.025 1.839,1.182 1.682,3.469 -0.106,1.783 -0.475,3.438 -1.13,4.961 z"
         id="path2085" />
      <path
         inkscape:connector-curvature="0"
         style="fill:#ffffff"
         d="m 884.659,620.998 c 0.655,-1.523 1.023,-3.178 1.129,-4.963 0.157,-2.287 -0.394,-3.443 -1.682,-3.469 -7.171,-0.184 -14.132,-0.289 -20.831,-0.316 -13.239,-0.078 -20.068,0.158 -20.488,0.736 -0.554,0.709 -0.631,2.365 -0.264,4.939 0.343,2.547 0.867,4.123 1.523,4.781 1.892,1.863 4.965,3.203 9.247,4.07 3.887,0.789 8.169,1.051 12.819,0.814 4.597,-0.236 8.589,-0.945 11.952,-2.074 3.625,-1.207 5.832,-2.705 6.595,-4.518"
         id="path2087" />
      <path
         inkscape:connector-curvature="0"
         style="fill:#ffffff"
         d="m 884.659,620.998 c 0.655,-1.523 1.023,-3.178 1.129,-4.963 0.157,-2.287 -0.394,-3.443 -1.682,-3.469 -7.171,-0.184 -14.132,-0.289 -20.831,-0.316 -13.239,-0.078 -20.068,0.158 -20.488,0.736 -0.554,0.709 -0.631,2.365 -0.264,4.939 0.343,2.547 0.867,4.123 1.523,4.781 1.892,1.863 4.965,3.203 9.247,4.07 3.887,0.789 8.169,1.051 12.819,0.814 4.597,-0.236 8.589,-0.945 11.952,-2.074 3.625,-1.207 5.832,-2.705 6.595,-4.518"
         id="path2089" />
      <path
         inkscape:connector-curvature="0"
         style="fill:#ffffff"
         d="m 884.659,620.998 c 0.655,-1.523 1.023,-3.178 1.129,-4.963 0.157,-2.287 -0.394,-3.443 -1.682,-3.469 -7.171,-0.184 -14.132,-0.289 -20.831,-0.316 -13.239,-0.078 -20.068,0.158 -20.488,0.736 -0.554,0.709 -0.631,2.365 -0.264,4.939 0.343,2.547 0.867,4.123 1.523,4.781 1.892,1.863 4.965,3.203 9.247,4.07 3.887,0.789 8.169,1.051 12.819,0.814 4.597,-0.236 8.589,-0.945 11.952,-2.074 3.625,-1.207 5.832,-2.705 6.595,-4.518"
         id="path2091" />
      <path
         inkscape:connector-curvature="0"
         style="fill:#ee8224"
         d="m 884.5,549.783 c -2.915,-3.912 -6.093,-6.961 -9.534,-9.115 -3.547,-2.232 -7.094,-3.334 -10.639,-3.334 -3.548,0 -7.119,1.102 -10.666,3.334 -3.415,2.154 -6.593,5.203 -9.509,9.115 -6.226,8.275 -10.113,18.283 -11.664,30.025 -0.945,7.223 -0.524,13.871 1.261,19.912 1.892,6.33 5.045,11.086 9.431,14.266 3.835,2.756 8.065,4.492 12.688,5.252 2.338,0.395 4.255,0.525 5.806,0.342 5.438,0.604 10.849,0.053 16.207,-1.709 2.679,-0.865 4.807,-1.811 6.411,-2.809 4.569,-3.914 7.906,-8.906 10.008,-15 2.18,-6.277 2.812,-13.031 1.839,-20.254 -1.55,-11.742 -5.412,-21.749 -11.639,-30.025"
         id="path2093" />
      <path
         inkscape:connector-curvature="0"
         style="fill:none;stroke:#ef7a00;stroke-width:4.09770012;stroke-miterlimit:10"
         d="m 874.966,540.668 c -3.547,-2.232 -7.094,-3.336 -10.639,-3.336 -3.548,0 -7.119,1.104 -10.666,3.336 -3.415,2.154 -6.593,5.203 -9.509,9.115 -6.226,8.275 -10.113,18.283 -11.664,30.027 -0.945,7.221 -0.525,13.869 1.261,19.91 1.892,6.33 5.045,11.086 9.431,14.266 3.835,2.756 8.065,4.49 12.688,5.252 2.338,0.395 4.255,0.525 5.806,0.342 5.438,0.604 10.849,0.053 16.207,-1.709 2.679,-0.865 4.807,-1.811 6.411,-2.809 4.569,-3.914 7.906,-8.906 10.008,-15 2.18,-6.277 2.811,-13.031 1.839,-20.252 -1.55,-11.744 -5.412,-21.752 -11.639,-30.027 -2.915,-3.912 -6.093,-6.961 -9.534,-9.115 z"
         id="path2095" />
      <path
         inkscape:connector-curvature="0"
         style="fill:#ffe100"
         d="m 884.5,549.783 c -2.915,-3.912 -6.093,-6.961 -9.534,-9.115 -3.547,-2.232 -7.094,-3.334 -10.639,-3.334 -3.548,0 -7.119,1.102 -10.666,3.334 -3.415,2.154 -6.593,5.203 -9.509,9.115 -6.226,8.275 -10.113,18.283 -11.664,30.025 -0.945,7.223 -0.524,13.871 1.261,19.912 1.892,6.33 5.045,11.086 9.431,14.266 3.835,2.756 8.065,4.492 12.688,5.252 2.338,0.395 4.255,0.525 5.806,0.342 5.438,0.604 10.849,0.053 16.207,-1.709 2.679,-0.865 4.807,-1.811 6.411,-2.809 4.569,-3.914 7.906,-8.906 10.008,-15 2.18,-6.277 2.812,-13.031 1.839,-20.254 -1.55,-11.742 -5.412,-21.749 -11.639,-30.025"
         id="path2097" />
      <path
         inkscape:connector-curvature="0"
         style="fill:#e84940"
         d="m 865.903,612.25 c 3.125,0.895 6.041,1.184 8.721,0.867 5.963,-0.654 10.875,-3.281 14.685,-7.854 1.917,-2.285 3.231,-4.492 3.938,-6.646 -9.115,5.176 -18.545,7.066 -28.291,5.676 -3.045,-0.447 -5.963,-1.209 -8.721,-2.234 l -3.205,-1.443 c 2.287,5.988 6.595,9.874 12.873,11.634"
         id="path2099" />
      <path
         inkscape:connector-curvature="0"
         style="fill:#f092b1"
         d="m 874.571,604.58 c -1.366,0.131 -3.179,0.158 -5.438,0.053 0.368,1.262 1.208,2.232 2.521,2.943 1.576,0.867 3.467,1.129 5.7,0.734 2.231,-0.367 3.494,-1.076 3.782,-2.154 0.159,-0.604 -0.052,-1.471 -0.656,-2.547 -3.544,0.604 -5.514,0.918 -5.909,0.971"
         id="path2101" />
      <path
         inkscape:connector-curvature="0"
         style="fill:#ffffff"
         d="m 872.733,566.307 c -1.919,-2.074 -4.282,-3.127 -7.041,-3.127 -2.759,-0.023 -5.123,1 -7.093,3.049 -1.97,2.023 -2.942,4.518 -2.968,7.434 -0.026,2.916 0.945,5.438 2.889,7.539 1.945,2.076 4.309,3.1 7.066,3.127 2.758,0.025 5.097,-1 7.041,-3.074 1.971,-2.049 2.969,-4.545 2.993,-7.461 0.027,-2.917 -0.944,-5.411 -2.887,-7.487"
         id="path2103" />
      <path
         inkscape:connector-curvature="0"
         style="fill:#ffffff"
         d="m 882.715,565.781 c -0.973,2.154 -1.314,4.676 -1.077,7.592 0.263,2.916 1.05,5.334 2.391,7.303 1.339,1.971 2.811,2.863 4.438,2.732 1.629,-0.156 2.917,-1.314 3.889,-3.467 0.972,-2.182 1.339,-4.703 1.076,-7.619 -0.236,-2.916 -1.024,-5.332 -2.364,-7.275 -1.339,-1.971 -2.81,-2.863 -4.465,-2.732 -1.629,0.13 -2.916,1.287 -3.888,3.466"
         id="path2105" />
      <path
         inkscape:connector-curvature="0"
         style="fill:#3c3837"
         d="m 883.451,569.697 c -0.633,1.023 -0.895,2.23 -0.764,3.623 0.131,1.393 0.579,2.549 1.395,3.469 0.814,0.918 1.706,1.312 2.704,1.232 1.024,-0.078 1.839,-0.654 2.496,-1.68 0.63,-1.051 0.893,-2.26 0.762,-3.65 -0.132,-1.393 -0.578,-2.549 -1.393,-3.441 -0.814,-0.92 -1.708,-1.34 -2.731,-1.262 -1.023,0.078 -1.838,0.657 -2.469,1.709"
         id="path2107" />
      <path
         inkscape:connector-curvature="0"
         style="fill:none;stroke:#3c3837;stroke-width:4.72849989;stroke-linecap:round;stroke-miterlimit:10"
         d="m 889.833,555.746 c -7.538,-2.969 -15.84,-3.387 -24.876,-1.312 -2.838,0.658 -5.569,1.498 -8.169,2.547 l -3.127,1.42"
         id="path2109" />
      <path
         inkscape:connector-curvature="0"
         style="fill:#2e2928"
         d="m 879.587,520.678 c -0.184,-2.205 -0.34,-3.178 -0.471,-2.916 -0.499,1.104 -1.182,2.154 -2.102,3.127 -0.867,0.945 -1.865,1.734 -2.942,2.363 -0.656,0.395 -1.708,0.867 -3.151,1.418 0,-1.418 0.156,-2.652 0.446,-3.703 0.604,-2.154 1.55,-4.256 2.835,-6.303 0.316,-0.344 0.58,-0.711 0.789,-1.131 0.053,-0.131 -0.683,0.104 -2.206,0.684 -1.576,0.604 -2.759,1.102 -3.572,1.549 -1.813,0.973 -3.126,1.971 -3.993,2.994 -0.236,0.289 -0.525,0.711 -0.867,1.234 -0.524,-0.631 -1.103,-1.418 -1.708,-2.391 -0.866,-1.365 -1.444,-2.889 -1.759,-4.57 -0.157,-1.365 -0.263,-2.049 -0.289,-2.023 -0.84,0.291 -1.656,0.869 -2.417,1.736 -1.55,1.707 -2.26,4.098 -2.127,7.145 0.078,1.629 0.262,3.152 0.603,4.57 -1.182,-0.395 -2.127,-0.814 -2.783,-1.287 -0.867,-0.604 -1.761,-1.865 -2.681,-3.783 -0.709,-1.443 -1.129,-2.469 -1.234,-3.047 -0.025,-0.131 -0.209,0.211 -0.551,0.998 -0.395,0.893 -0.656,1.84 -0.787,2.863 -0.396,3.18 0.472,6.041 2.652,8.617 0.184,0.211 0.474,0.551 0.814,1.023 -3.442,-0.551 -6.068,-1.891 -7.907,-3.994 -0.133,-0.234 -0.21,0 -0.29,0.658 -0.078,0.709 -0.052,1.525 0.08,2.469 0.393,2.732 1.366,4.809 2.969,6.227 l 0.394,0.314 c -1.287,0.186 -2.628,0.211 -3.993,0.08 -0.868,-0.08 -1.733,-0.291 -2.6,-0.605 -0.659,-0.236 -1.472,-0.604 -2.496,-1.131 -0.132,-0.076 0.576,0.975 2.127,3.127 1.603,2.234 2.785,3.652 3.52,4.309 1.052,0.945 1.866,1.604 2.471,1.945 0.998,0.629 1.97,0.945 2.915,0.971 5.622,0.158 9.353,0 11.191,-0.498 1.182,-0.291 2.495,-0.947 3.939,-1.918 1.34,0.893 2.917,1.445 4.755,1.682 2.548,0.287 4.229,-0.5 5.017,-2.391 0.867,0.709 1.997,1.26 3.442,1.654 1.55,0.447 2.81,0.447 3.782,0.025 1.13,-0.498 3.021,-0.893 5.675,-1.234 2.232,-0.289 3.361,-0.473 3.334,-0.498 -0.917,-0.764 -1.942,-1.262 -3.125,-1.525 -0.945,-0.209 -2.128,-0.287 -3.52,-0.209 -0.657,0.025 -1.314,0.131 -1.918,0.262 0.657,-0.393 1.261,-0.812 1.786,-1.312 1.209,-1.076 2.154,-2.391 2.837,-3.939 0.368,-0.867 0.866,-2.418 1.496,-4.625 -0.917,0.816 -1.994,1.709 -3.176,2.629 -2.418,1.916 -4.231,2.992 -5.465,3.256 -0.631,0.133 -1.182,0.211 -1.682,0.262 0.92,-2.125 1.629,-3.57 2.129,-4.332 0.578,-0.867 1.785,-2.154 3.624,-3.863 l 2.469,-2.232 c -0.866,-0.473 -1.943,-0.684 -3.23,-0.656 -1.155,0.053 -2.363,0.314 -3.651,0.762 0.577,-1.027 0.788,-2.63 0.602,-4.837"
         id="path2111" />
      <path
         inkscape:connector-curvature="0"
         style="fill:#368137"
         d="m 870.789,690.27 c 1.077,-2.627 1.155,-5.307 0.288,-8.037 l -0.893,3.861 c -0.972,2.889 -2.338,5.121 -4.098,6.672 l 2.837,0.631 c 0.71,-0.762 1.314,-1.813 1.866,-3.127"
         id="path2113" />
      <path
         inkscape:connector-curvature="0"
         style="fill:#0b56a5"
         d="m 870.553,641.988 c -0.342,-0.08 -0.893,-0.236 -1.604,-0.525 -1.392,-0.525 -2.941,-1.262 -4.649,-2.207 l -9.667,13.293 c 2.996,1.68 6.041,3.02 9.168,4.018 l 2.627,-6.619 c 1.917,-4.571 3.284,-7.223 4.125,-7.96"
         id="path2115" />
      <path
         inkscape:connector-curvature="0"
         style="fill:none;stroke:#0b56a5;stroke-width:4.2027998;stroke-linecap:round;stroke-linejoin:round;stroke-miterlimit:10"
         d="m 870.553,641.988 c -0.841,0.736 -2.208,3.389 -4.125,7.959 l -2.627,6.619 c -3.126,-0.998 -6.172,-2.338 -9.168,-4.018 l 9.667,-13.293 c 1.708,0.945 3.258,1.682 4.649,2.207 0.711,0.29 1.262,0.446 1.604,0.526 z m -17.154,-8.3 c 5.516,2.363 9.141,4.229 10.9,5.568 l -9.667,13.293 c -4.438,-1.867 -7.906,-4.756 -10.454,-8.617"
         id="path2117" />
      <path
         inkscape:connector-curvature="0"
         style="fill:#ee8224"
         d="m 829.31,580.467 c -1.313,2.18 -1.97,4.807 -1.97,7.906 0,3.099 0.656,5.754 1.97,7.934 1.341,2.18 2.943,3.283 4.808,3.283 1.865,0 3.468,-1.104 4.78,-3.283 1.341,-2.18 1.997,-4.834 1.997,-7.934 0,-3.1 -0.656,-5.727 -1.997,-7.906 -1.338,-2.207 -2.915,-3.311 -4.78,-3.311 -1.865,0 -3.468,1.104 -4.808,3.311"
         id="path2119" />
      <path
         inkscape:connector-curvature="0"
         style="fill:none;stroke:#ef7a00;stroke-width:4.09770012;stroke-miterlimit:10"
         d="m 829.31,580.467 c 1.341,-2.207 2.943,-3.311 4.808,-3.311 1.865,0 3.442,1.104 4.78,3.311 1.341,2.18 1.997,4.807 1.997,7.906 0,3.099 -0.656,5.754 -1.997,7.934 -1.312,2.18 -2.915,3.283 -4.78,3.283 -1.864,0 -3.467,-1.104 -4.808,-3.283 -1.313,-2.18 -1.97,-4.834 -1.97,-7.934 0,-3.1 0.656,-5.727 1.97,-7.906 z"
         id="path2121" />
      <path
         inkscape:connector-curvature="0"
         style="fill:#ffe100"
         d="m 829.31,580.467 c -1.313,2.18 -1.97,4.807 -1.97,7.906 0,3.099 0.656,5.754 1.97,7.934 1.341,2.18 2.943,3.283 4.808,3.283 1.865,0 3.468,-1.104 4.78,-3.283 1.341,-2.18 1.997,-4.834 1.997,-7.934 0,-3.1 -0.656,-5.727 -1.997,-7.906 -1.338,-2.207 -2.915,-3.311 -4.78,-3.311 -1.865,0 -3.468,1.104 -4.808,3.311"
         id="path2123" />
      <path
         inkscape:connector-curvature="0"
         style="fill:#ffe100"
         d="m 849.772,589.529 c 0,-2.496 -0.918,-4.598 -2.783,-6.357 -1.866,-1.76 -4.124,-2.654 -6.778,-2.654 -2.651,0 -4.912,0.895 -6.776,2.654 -1.865,1.76 -2.811,3.861 -2.811,6.357 0,2.494 0.945,4.648 2.811,6.408 1.864,1.762 4.125,2.654 6.776,2.654 2.654,0 4.912,-0.893 6.778,-2.654 1.865,-1.759 2.783,-3.914 2.783,-6.408"
         id="path2125" />
      <path
         inkscape:connector-curvature="0"
         style="fill:#f29100"
         d="m 881.428,573.215 c -3.23,0.395 -5.807,2.26 -7.723,5.598 -1.918,3.334 -2.602,7.143 -2.075,11.479 0.524,4.334 2.128,7.879 4.78,10.639 2.68,2.783 5.621,3.967 8.853,3.572 3.231,-0.393 5.805,-2.26 7.723,-5.596 1.917,-3.336 2.602,-7.17 2.077,-11.479 -0.527,-4.334 -2.129,-7.881 -4.783,-10.639 -2.68,-2.758 -5.621,-3.967 -8.852,-3.574"
         id="path2127" />
      <path
         inkscape:connector-curvature="0"
         style="fill:#3c3837"
         d="m 868.817,570.51 c -0.971,-0.998 -2.126,-1.496 -3.492,-1.496 -1.34,0 -2.496,0.498 -3.468,1.496 -0.972,1.023 -1.444,2.232 -1.444,3.678 0,1.446 0.473,2.652 1.444,3.652 0.972,1.023 2.128,1.521 3.468,1.521 1.366,0 2.521,-0.498 3.492,-1.521 0.973,-1 1.445,-2.207 1.445,-3.652 0,-1.445 -0.472,-2.655 -1.445,-3.678"
         id="path2129" />
      <path
         inkscape:connector-curvature="0"
         style="fill:#d0670f"
         d="m 922.907,594.072 c 0.445,-0.971 0.523,-1.838 0.234,-2.6 -0.234,-0.682 -0.709,-1.182 -1.418,-1.498 -0.71,-0.287 -1.419,-0.34 -2.154,-0.131 l -1.918,1.445 -53.351,100.11 c 0.999,0.447 2.023,0.973 3.048,1.551 l 2.232,1.182 53.327,-100.059 z"
         id="path2131" />
      <path
         inkscape:connector-curvature="0"
         style="fill:#fdf69b"
         d="m 848.224,696.941 0.709,0.395 22.198,12.871 1.313,0.736 4.412,-7.645 c 0.026,-0.867 -0.21,-1.76 -0.762,-2.707 -0.474,-0.812 -1.155,-1.68 -2.022,-2.572 -0.71,-0.764 -1.497,-1.473 -2.417,-2.182 -0.656,-0.551 -1.393,-1.076 -2.153,-1.576 -0.685,-0.447 -1.394,-0.867 -2.154,-1.312 -1.024,-0.578 -2.049,-1.104 -3.048,-1.551 -1.708,-0.787 -3.361,-1.418 -5.017,-1.863 -2.837,-0.709 -5.043,-0.789 -6.646,-0.238 l -4.413,7.644 z"
         id="path2133" />
      <path
         inkscape:connector-curvature="0"
         style="fill:#efdd2f"
         d="m 848.933,697.336 -0.787,1.34 c -3.861,7.801 -8.669,14.264 -14.369,19.387 l 5.727,3.336 6.436,-9.615 -6.436,9.615 8.879,5.148 10.323,-16.576 -10.323,16.576 8.879,5.174 7.145,-9.088 -3.651,11.453 4.965,2.941 8.8,-23.404 0.631,-1.053 -4.019,-2.363 -22.2,-12.871 z"
         id="path2135" />
      <path
         inkscape:connector-curvature="0"
         style="fill:#fdf69b"
         d="m 877.172,699.857 -1.077,0.734 c 0.552,0.947 0.788,1.84 0.762,2.707 l -4.412,7.645 -1.313,-0.736 4.019,2.363 0.394,0.211 4.387,-7.645 c 0.077,-1.548 -0.842,-3.308 -2.76,-5.279"
         id="path2137" />
      <path
         inkscape:connector-curvature="0"
         style="fill:none;stroke:#7c5513;stroke-width:2.1013999;stroke-linecap:round;stroke-linejoin:round;stroke-miterlimit:10"
         d="m 869.502,694.262 0.078,-0.131 53.327,-100.059 c 0.445,-0.971 0.524,-1.838 0.234,-2.6 -0.234,-0.682 -0.709,-1.182 -1.418,-1.498 -0.71,-0.287 -1.419,-0.34 -2.154,-0.131 -0.814,0.236 -1.444,0.709 -1.918,1.445 L 864.3,691.398 m 0,0 c -1.709,-0.787 -3.361,-1.418 -5.017,-1.863 -2.837,-0.709 -5.043,-0.789 -6.646,-0.236 l -4.413,7.643 0.709,0.395 22.198,12.871 m 0.524,-14.37 c -0.656,-0.551 -1.393,-1.076 -2.153,-1.576 m 1.629,15.945 4.019,2.363 0.394,0.211 4.387,-7.645 c 0.079,-1.549 -0.84,-3.309 -2.758,-5.279 -1.235,-1.287 -3.073,-2.627 -5.517,-4.02 m -0.525,14.37 1.313,0.736 4.412,-7.645 c 0.026,-0.867 -0.21,-1.76 -0.762,-2.707 -0.474,-0.812 -1.155,-1.68 -2.022,-2.572 -0.71,-0.764 -1.497,-1.473 -2.417,-2.182 m -2.153,-1.575 c -0.685,-0.447 -1.394,-0.865 -2.154,-1.314 -1.025,-0.576 -2.049,-1.102 -3.048,-1.549"
         id="path2139" />
      <path
         inkscape:connector-curvature="0"
         style="fill:none;stroke:#d9b800;stroke-width:2.1013999;stroke-linecap:round;stroke-linejoin:round;stroke-miterlimit:10"
         d="m 848.382,726.547 8.879,5.174 7.145,-9.088 -3.651,11.453 4.965,2.941 8.8,-23.404 m -35.017,7.775 8.879,5.148 m 10.323,-16.575 -10.323,16.576 m -2.444,-14.764 -6.436,9.615 m 8.644,-22.722 c -3.862,7.801 -8.669,14.264 -14.369,19.387 l 5.727,3.336"
         id="path2141" />
      <path
         inkscape:connector-curvature="0"
         style="fill:#ef7a00"
         d="m 911.217,610.045 c 0.499,-0.5 1.155,-1.156 1.996,-1.971 0.788,-0.787 2.391,-1.707 4.781,-2.758 l 0.263,-0.184 -0.054,0.078 c 0.079,-0.027 0.185,-0.051 0.316,-0.105 0.235,-0.104 0.394,-0.289 0.499,-0.525 0.079,-0.236 0.079,-0.473 0,-0.709 -0.132,-0.262 -0.29,-0.445 -0.526,-0.525 -0.235,-0.078 -0.473,-0.078 -0.709,0 -2.941,1.234 -5.464,2.969 -7.591,5.201 -0.079,0.08 -0.289,0.289 -0.579,0.604 -0.053,0.055 -0.105,0.105 -0.131,0.158 h -0.026 c -0.079,0.156 -0.132,0.316 -0.157,0.5 -0.184,2.232 0.209,3.887 1.182,4.965 -1.602,1.076 -2.548,2.258 -2.811,3.547 -0.288,1.076 -0.105,2.205 0.604,3.414 -2.389,2.074 -3.309,4.938 -2.705,8.537 0.027,0.264 0.158,0.475 0.368,0.631 0.21,0.131 0.446,0.184 0.709,0.156 0.264,-0.051 0.474,-0.182 0.631,-0.393 0.131,-0.211 0.183,-0.447 0.157,-0.684 -0.499,-2.969 0.263,-5.279 2.259,-6.986 2.812,0.971 5.517,1.312 8.17,1.023 0.053,0 0.105,0 0.157,-0.025 l 1.786,-0.525 0.054,-0.027 c 1.261,-0.973 1.969,-2.443 2.127,-4.361 0.185,-1.916 -0.472,-4.018 -1.943,-6.305 -0.158,-0.209 -0.368,-0.34 -0.605,-0.393 -0.236,-0.053 -0.472,0 -0.709,0.131 -0.236,0.131 -0.368,0.342 -0.395,0.604 -0.052,0.236 0,0.473 0.132,0.711 0,0.025 0,0.025 0.026,0.053 h -0.026 c -0.367,-0.08 -0.919,-0.133 -1.628,-0.158 -1.445,0.682 -2.39,0.945 -2.891,0.787 -0.235,-0.078 -0.445,-0.131 -0.577,-0.184 -0.026,-0.025 -0.053,-0.025 -0.078,-0.025 l 0.157,0.078 -0.105,-0.053 h -0.052 l -0.315,-0.156 c -0.815,-0.184 -1.366,-0.736 -1.628,-1.684 -0.185,-0.576 -0.236,-1.287 -0.185,-2.152 0,-0.08 0,-0.184 0.026,-0.262 l 0.026,-0.028 z m -1.735,9.299 -0.026,-0.025 0.026,-0.027 c -0.026,-0.184 0,-0.367 0.052,-0.551 0.133,-0.473 0.396,-0.945 0.789,-1.393 0.289,-0.316 0.814,-0.787 1.549,-1.418 0,-0.027 0,-0.027 0.026,-0.027 v 0.053 c 0.028,-0.025 0.028,-0.08 0.054,-0.131 0.289,0.367 1.286,0.473 3.047,0.289 1.761,-0.211 3.021,-0.762 3.835,-1.656 0.999,1.656 1.523,3.1 1.603,4.361 0.026,1.129 -0.394,2.102 -1.312,2.891 l -1.577,0.445 c -2.232,0.211 -4.492,-0.078 -6.829,-0.84 l -0.027,0.051 v -0.025 l -0.052,-0.053 c -0.184,-0.025 -0.342,-0.078 -0.499,-0.158 -0.396,-0.605 -0.633,-1.208 -0.659,-1.786"
         id="path2143" />
      <path
         inkscape:connector-curvature="0"
         style="fill:#ffe100"
         d="m 909.456,619.318 0.026,0.025 c 0.025,0.578 0.263,1.182 0.657,1.785 0.157,0.08 0.315,0.133 0.499,0.158 l 0.052,0.053 v 0.025 l 0.027,-0.051 c 2.337,0.76 4.597,1.051 6.829,0.84 l 1.577,-0.445 c 0.919,-0.789 1.339,-1.762 1.312,-2.891 -0.079,-1.262 -0.604,-2.705 -1.603,-4.361 -0.814,0.895 -2.074,1.445 -3.835,1.656 -1.761,0.184 -2.759,0.078 -3.047,-0.289 -0.026,0.051 -0.026,0.105 -0.053,0.131 v -0.053 c -0.027,0 -0.027,0 -0.027,0.027 -0.734,0.629 -1.26,1.102 -1.549,1.418 -0.394,0.445 -0.657,0.92 -0.789,1.391 -0.052,0.186 -0.078,0.369 -0.052,0.553 l -0.024,0.028 z"
         id="path2145" />
      <path
         inkscape:connector-curvature="0"
         style="fill:#ffe100"
         d="m 913.213,608.074 c -0.841,0.814 -1.497,1.471 -1.996,1.971 l -0.026,0.027 c -0.027,0.078 -0.027,0.182 -0.027,0.262 -0.051,0.865 0,1.576 0.186,2.152 0.262,0.947 0.812,1.5 1.628,1.684 l 0.315,0.156 h 0.052 l 0.105,0.053 -0.157,-0.078 c 0.025,0 0.052,0 0.078,0.025 0.079,-0.025 0.158,-0.131 0.288,-0.264 0.212,-0.234 0.605,-0.549 1.208,-0.918 l 3.338,-7.934 0.053,-0.078 -0.263,0.184 c -2.391,1.051 -3.994,1.971 -4.782,2.758"
         id="path2147" />
      <path
         inkscape:connector-curvature="0"
         style="fill:none;stroke:#ef7f00;stroke-width:0.0265;stroke-linecap:round;stroke-linejoin:round;stroke-miterlimit:10"
         d="m 913.948,614.51 -0.578,-0.184 m 0,0 -0.078,-0.025"
         id="path2149" />
      <path
         inkscape:connector-curvature="0"
         style="fill:none;stroke:#ee8224;stroke-width:4.09770012;stroke-miterlimit:10"
         d="m 884.632,661.453 c 0.265,0.078 0.631,0.156 1.13,0.186"
         id="path2151" />
      <path
         inkscape:connector-curvature="0"
         style="fill:#ee8224"
         d="m 893.88,653.598 c 2.547,-1.154 3.309,-2.68 2.259,-4.543 -0.5,-0.814 -2.286,-1.182 -5.359,-1.051 -2.863,0.131 -4.649,0.42 -5.412,0.865 1.077,-0.971 1.892,-1.969 2.443,-2.941 0.867,-1.523 0.684,-2.627 -0.499,-3.283 -1.655,-0.945 -4.308,-0.395 -7.907,1.654 -1.312,0.734 -2.495,1.523 -3.571,2.391 -0.972,0.787 -1.472,1.314 -1.472,1.551 -5.91,-1.498 -11.874,-4.861 -17.89,-10.141 v 4.545 h -5.463 c 0.814,0.684 1.654,1.365 2.521,2.074 6.121,4.807 12.057,8.066 17.863,9.721 0.709,5.885 4.281,9.666 10.664,11.373 2.286,0.605 4.439,0.814 6.515,0.605 1.945,-0.211 2.969,-0.658 3.048,-1.342 0.156,-1.549 -0.473,-2.547 -1.917,-2.994 -0.447,-0.131 -1.761,-0.289 -3.941,-0.445 -0.551,0 -0.919,-0.053 -1.13,-0.184 0.211,0.131 0.579,0.184 1.13,0.184 2.101,0.025 4.178,-0.342 6.199,-1.051 2.628,-0.945 3.81,-2.234 3.52,-3.836 -0.025,-1.023 -1.418,-1.523 -4.177,-1.471 -3.02,0.236 -4.833,0.342 -5.384,0.342 3.728,-0.656 6.383,-1.314 7.96,-2.023"
         id="path2153" />
      <path
         inkscape:connector-curvature="0"
         style="fill:none;stroke:#ef7a00;stroke-width:4.09770012;stroke-miterlimit:10"
         d="m 856.472,638.1 c 6.016,5.279 11.979,8.643 17.89,10.141 0,-0.236 0.5,-0.764 1.471,-1.551 1.077,-0.867 2.259,-1.656 3.572,-2.391 3.6,-2.049 6.252,-2.6 7.907,-1.654 1.183,0.656 1.366,1.76 0.499,3.283 -0.552,0.973 -1.366,1.971 -2.443,2.941 0.763,-0.445 2.549,-0.734 5.412,-0.865 3.073,-0.131 4.859,0.236 5.359,1.051 1.05,1.863 0.288,3.389 -2.259,4.543 -1.577,0.709 -4.231,1.367 -7.961,2.023 0.552,0 2.365,-0.105 5.385,-0.342 2.759,-0.053 4.151,0.447 4.177,1.471 0.29,1.602 -0.892,2.891 -3.52,3.836 -2.021,0.709 -4.099,1.076 -6.199,1.053 m 0,0 c 2.181,0.154 3.493,0.312 3.941,0.443 1.443,0.447 2.073,1.445 1.917,2.994 -0.079,0.684 -1.103,1.131 -3.048,1.342 -2.075,0.209 -4.229,0 -6.515,-0.605 -6.383,-1.707 -9.955,-5.488 -10.665,-11.373 -5.806,-1.654 -11.741,-4.914 -17.862,-9.721 -0.867,-0.709 -1.707,-1.391 -2.521,-2.074 m 33.623,18.808 c 0.211,0.131 0.579,0.186 1.13,0.186"
         id="path2155" />
      <path
         inkscape:connector-curvature="0"
         style="fill:#ffe100"
         d="m 894.011,653.52 c 2.6,-1.156 3.363,-2.68 2.285,-4.545 -0.473,-0.812 -2.26,-1.182 -5.385,-1.051 -2.89,0.133 -4.702,0.422 -5.465,0.867 1.077,-0.973 1.891,-1.971 2.444,-2.941 0.865,-1.523 0.682,-2.627 -0.501,-3.283 -1.681,-0.947 -4.334,-0.395 -7.985,1.654 -1.312,0.736 -2.521,1.523 -3.599,2.389 -0.998,0.791 -1.497,1.314 -1.497,1.553 -5.07,-1.289 -10.166,-3.916 -15.341,-7.908 v 3.02 h -7.408 c 0.551,0.447 1.131,0.92 1.707,1.367 6.175,4.807 12.189,8.064 18.047,9.719 0.736,5.885 4.334,9.668 10.771,11.375 2.286,0.605 4.492,0.814 6.594,0.605 1.971,-0.211 2.994,-0.658 3.073,-1.34 0.157,-1.551 -0.498,-2.551 -1.942,-2.996 -0.447,-0.129 -1.787,-0.289 -3.995,-0.447 2.129,0.027 4.23,-0.34 6.279,-1.049 2.653,-0.945 3.835,-2.232 3.546,-3.836 -0.026,-1.023 -1.418,-1.525 -4.203,-1.473 -3.072,0.238 -4.886,0.344 -5.463,0.344 3.782,-0.659 6.462,-1.315 8.038,-2.024"
         id="path2157" />
      <path
         inkscape:connector-curvature="0"
         style="fill:#ee7624"
         d="m 854.659,652.758 c 3.021,1.682 6.095,3.021 9.273,4.02 l 2.653,-6.619 c 1.943,-4.572 3.336,-7.227 4.177,-7.961 -0.367,-0.078 -0.919,-0.236 -1.629,-0.525 -1.394,-0.525 -2.968,-1.26 -4.677,-2.207 l -9.797,13.292 z"
         id="path2159" />
      <path
         inkscape:connector-curvature="0"
         style="fill:#a7ce58"
         d="m 864.457,639.465 c -2.914,-1.863 -5.332,-3.334 -7.276,-4.439 l -12.214,10.482 c 2.154,2.758 5.385,5.174 9.692,7.25 l 9.798,-13.293 z"
         id="path2161" />
      <path
         inkscape:connector-curvature="0"
         style="fill:#0076bf"
         d="m 843.995,641.777 c -0.132,2.232 0.945,4.281 3.23,6.146 l 11.952,-11.768 c -3.047,-1.996 -5.385,-2.838 -7.04,-2.549 -5.672,0.29 -8.379,2.996 -8.142,8.171"
         id="path2163" />
      <path
         inkscape:connector-curvature="0"
         style="fill:none;stroke:#0b56a5;stroke-width:1.83889997;stroke-linecap:round;stroke-linejoin:round;stroke-miterlimit:10"
         d="m 865.351,655.727 c 1.972,-5.096 3.73,-9.09 5.333,-12.006"
         id="path2165" />
      <path
         inkscape:connector-curvature="0"
         style="fill:none;stroke:#6ac3bc;stroke-width:1.83889997;stroke-linecap:round;stroke-linejoin:round;stroke-miterlimit:10"
         d="m 826.657,709.998 c 0.498,-2.758 2.128,-4.809 4.86,-6.096 m -3.966,14.686 c 0.972,-6.463 4.334,-11.375 10.087,-14.764 m 39.455,16.68 c 0.683,6.49 -1.312,12.111 -5.989,16.865 m 9.037,-8.746 c 0.236,2.811 -0.789,5.174 -3.126,7.092"
         id="path2167" />
    </g>
  </g>
</svg>
