<?xml version="1.0" encoding="UTF-8" standalone="no"?>
<!-- Created with Inkscape (http://www.inkscape.org/) -->

<svg
   xmlns:dc="http://purl.org/dc/elements/1.1/"
   xmlns:cc="http://creativecommons.org/ns#"
   xmlns:rdf="http://www.w3.org/1999/02/22-rdf-syntax-ns#"
   xmlns:svg="http://www.w3.org/2000/svg"
   xmlns="http://www.w3.org/2000/svg"
   xmlns:sodipodi="http://sodipodi.sourceforge.net/DTD/sodipodi-0.dtd"
   xmlns:inkscape="http://www.inkscape.org/namespaces/inkscape"
   width="112.3399"
   height="210.85278"
   id="svg5696"
   version="1.1"
   inkscape:version="0.48.4 r9939"
   sodipodi:docname="bert3.svg">
  <defs
     id="defs5698" />
  <sodipodi:namedview
     id="base"
     pagecolor="#ffffff"
     bordercolor="#666666"
     borderopacity="1.0"
     inkscape:pageopacity="0.0"
     inkscape:pageshadow="2"
     inkscape:zoom="0.77472527"
     inkscape:cx="48.026111"
     inkscape:cy="38.47083"
     inkscape:current-layer="layer1"
     inkscape:document-units="px"
     showgrid="false"
     inkscape:window-width="942"
     inkscape:window-height="591"
     inkscape:window-x="412"
     inkscape:window-y="91"
     inkscape:window-maximized="0"
     fit-margin-top="0"
     fit-margin-left="0"
     fit-margin-right="0"
     fit-margin-bottom="0" />
  <metadata
     id="metadata5701">
    <rdf:RDF>
      <cc:Work
         rdf:about="">
        <dc:format>image/svg+xml</dc:format>
        <dc:type
           rdf:resource="http://purl.org/dc/dcmitype/StillImage" />
        <dc:title></dc:title>
      </cc:Work>
    </rdf:RDF>
  </metadata>
  <g
     id="layer1"
     inkscape:label="Layer 1"
     inkscape:groupmode="layer"
     transform="translate(-183.60366,87.275594)">
    <g
       transform="translate(-453.1544,-126.64354)"
       id="g1225">
      <path
         inkscape:connector-curvature="0"
         style="fill:#e06a06"
         d="m 661.531,164.333 c -0.045,-0.013 -0.091,-0.039 -0.134,-0.063 l 0.648,-0.341 c -0.223,0.094 -0.455,0.107 -0.681,0.017 -0.238,-0.092 -0.405,-0.249 -0.51,-0.485 l 0.167,0.39 c 0.072,0.187 0.204,0.332 0.375,0.419 l -4.061,2.127 c 0.093,0.224 0.095,0.455 0.005,0.669 -0.091,0.239 -0.26,0.417 -0.483,0.51 -0.234,0.106 -0.467,0.118 -0.705,0.027 -0.238,-0.091 -0.415,-0.249 -0.509,-0.484 l -0.146,-0.34 c -0.135,-0.086 -0.232,-0.218 -0.295,-0.371 -0.074,-0.153 -0.102,-0.305 -0.085,-0.453 l -3.59,-8.056 c -2.301,1.756 -4.146,1.986 -5.542,0.714 l -0.013,0 c -1.458,-1.182 -2.22,-2.749 -2.263,-4.699 -0.62,-0.039 -1.28,-0.264 -1.976,-0.664 -0.552,-0.312 -1.102,-0.67 -1.659,-1.087 -0.582,-0.43 -1.135,-0.96 -1.661,-1.595 h -0.01 c -0.538,-0.635 -0.959,-1.276 -1.287,-1.936 -0.013,-0.001 -0.013,-0.001 -0.011,-0.013 -0.354,-0.638 -0.441,-1.518 -0.243,-2.628 l 1.854,0.082 c -0.16,0.742 -0.14,1.308 0.039,1.719 l -10e-4,0.012 c 0.266,0.531 0.624,1.055 1.062,1.568 v 0.012 c 0.427,0.515 0.881,0.938 1.361,1.293 0.502,0.379 0.984,0.7 1.468,0.976 0.596,0.337 1.134,0.453 1.61,0.347 0.048,-0.044 0.108,-0.088 0.167,-0.12 0.105,-0.053 0.211,-0.083 0.315,-0.102 0.419,-0.339 0.639,-0.906 0.663,-1.689 0,-0.012 10e-4,-0.023 0.002,-0.034 -0.838,-0.625 -1.587,-1.454 -2.221,-2.484 l -0.002,0.01 c -0.28,-0.438 -0.502,-0.887 -0.678,-1.344 l 2.07,0.092 c 0.055,0.082 0.109,0.177 0.161,0.26 0.594,0.949 1.3,1.683 2.095,2.213 0.033,0.025 0.079,0.05 0.111,0.086 0.168,0.111 0.474,0.263 0.902,0.443 h 0.013 c 0.329,0.107 0.726,0.032 1.21,-0.234 0.498,-0.313 0.774,-0.867 0.833,-1.659 0.013,-0.288 0.002,-0.577 -0.042,-0.878 l 1.876,0.083 c 0.032,0.312 0.03,0.624 0.004,0.934 -0.125,1.539 -0.711,2.585 -1.786,3.139 -1.074,0.599 -2.014,0.707 -2.792,0.327 -0.211,1.121 -0.73,1.917 -1.546,2.377 -0.026,0.068 -0.052,0.136 -0.066,0.205 -0.029,1.486 0.494,2.674 1.598,3.552 v 0.012 c 1.243,0.55 2.451,0.372 3.621,-0.557 0.74,-0.579 1.219,-0.961 1.434,-1.147 0.01,0.035 0.054,0.083 0.132,0.132 0.17,0.1 0.302,0.243 0.386,0.421 l 3.875,8.679 3.907,-2.043 -4.295,-9.608 c -0.074,-0.166 -0.102,-0.339 -0.071,-0.511 0.019,-0.173 0.07,-0.274 0.15,-0.282 0.081,-0.008 0.28,-0.08 0.619,-0.191 0.317,-0.114 0.715,-0.258 1.185,-0.444 0.899,0.004 1.582,-0.589 2.06,-1.756 0.324,-0.815 0.562,-1.761 0.736,-2.839 l 1.852,0.082 c -0.184,1.318 -0.477,2.47 -0.876,3.444 l -10e-4,0.011 c -0.787,1.914 -1.936,2.89 -3.448,2.916 l 3.929,8.762 c 0.112,0.086 0.211,0.194 0.285,0.324 0.096,0.177 0.123,0.363 0.103,0.559 0.083,0.223 0.085,0.442 -0.006,0.657 -0.091,0.238 -0.26,0.415 -0.482,0.51 -0.236,0.103 -0.466,0.116 -0.706,0.025 l 0,0 z"
         id="path1227" />
      <path
         inkscape:connector-curvature="0"
         style="fill:#e06a06"
         d="m 649.857,146.56 c -0.115,-0.766 -0.426,-1.587 -0.918,-2.472 -0.15,-0.25 -0.296,-0.625 -0.436,-1.127 -0.107,-0.166 -0.189,-0.413 -0.244,-0.726 -0.185,-0.515 -0.537,-0.935 -1.052,-1.269 l -10e-4,0.012 c -0.74,-0.459 -1.512,-0.505 -2.311,-0.147 h 0.011 c -0.764,0.347 -1.138,0.977 -1.119,1.877 l -0.001,0.011 c 0.002,0.231 0.026,0.462 0.062,0.694 l 0.01,0.025 c 0.01,0.045 0.008,0.091 0.006,0.126 l -0.003,0.081 c -10e-4,0.011 -10e-4,0.023 -10e-4,0.034 0.015,0.958 0.254,1.833 0.713,2.65 l -2.07,-0.092 c -0.258,-0.668 -0.413,-1.378 -0.461,-2.106 -0.733,-0.401 -1.389,-0.441 -1.99,-0.11 -0.676,0.397 -1.106,1.013 -1.292,1.846 -0.014,0.068 -0.028,0.137 -0.043,0.206 l -1.854,-0.082 c 0.02,-0.172 0.061,-0.344 0.104,-0.526 0.302,-1.358 1.024,-2.376 2.149,-3.03 0.89,-0.55 1.84,-0.658 2.863,-0.337 0.164,-1.388 0.888,-2.371 2.158,-2.949 0.612,-0.273 1.217,-0.408 1.805,-0.417 -0.153,-0.133 -0.272,-0.324 -0.367,-0.547 -0.336,-0.487 -0.835,-1.247 -1.492,-2.256 -2.001,-3.017 -2.947,-5.123 -2.837,-6.316 0.109,-1.195 0.983,-2.414 2.627,-3.644 2.744,-0.791 4.95,-0.325 6.604,1.384 1.655,1.71 2.912,4.036 3.787,6.992 0.35,1.226 0.618,2.195 0.793,2.929 0.317,-0.102 0.678,-0.201 1.11,-0.298 1.571,-0.357 3.09,-0.049 4.583,0.904 h 0.012 c 1.54,0.91 2.283,2.891 2.218,5.956 -0.017,1.186 -0.101,2.29 -0.247,3.287 l -1.853,-0.082 c 0.146,-0.973 0.239,-2.053 0.257,-3.239 0.039,-2.212 -0.416,-3.674 -1.377,-4.374 -1.043,-0.657 -1.978,-0.928 -2.823,-0.815 -0.847,0.113 -1.48,0.339 -1.875,0.68 -0.395,0.34 -0.623,0.537 -0.673,0.615 -0.094,0.308 -0.156,0.686 -0.198,1.134 0.157,1.113 0.506,2.109 1.044,2.975 0.141,0.224 0.259,0.414 0.357,0.557 -0.182,0.176 -0.394,0.271 -0.646,0.271 -0.253,0 -0.469,-0.089 -0.657,-0.271 -1.193,-1.193 -1.836,-2.306 -1.919,-3.312 -0.15,-1.021 0.2,-1.952 1.056,-2.779 -0.089,-0.58 -0.397,-1.954 -0.938,-4.123 -0.539,-2.157 -1.499,-3.929 -2.879,-5.315 -1.382,-1.387 -2.823,-1.9 -4.304,-1.549 -1.479,0.362 -2.144,1.312 -1.98,2.864 0.004,1.489 1.392,3.739 4.155,6.732 0.011,0.012 0.011,0.024 0.021,0.024 l 0.022,0.035 -0.002,0.011 0.187,0.228 c 0.062,0.141 0.146,0.329 0.24,0.564 0.353,0.915 0.799,1.799 1.326,2.652 0.526,0.865 0.797,1.304 0.807,1.339 0.065,0.095 0.117,0.202 0.147,0.318 0.108,0.408 0.21,0.712 0.317,0.913 v 0.012 c 0.694,1.241 1.082,2.387 1.186,3.454 l -1.874,-0.082 z m -3.274,-9.749 -0.034,-0.013 0.022,0.012 0.012,0.001 z"
         id="path1229" />
      <path
         inkscape:connector-curvature="0"
         style="fill:#fcdf00"
         d="m 660.499,162.673 -3.908,2.043 -3.874,-8.68 c -0.084,-0.177 -0.216,-0.321 -0.385,-0.42 -0.079,-0.049 -0.123,-0.097 -0.133,-0.132 -0.215,0.186 -0.693,0.569 -1.434,1.148 -1.17,0.928 -2.378,1.107 -3.621,0.556 v -0.012 c -1.104,-0.878 -1.627,-2.065 -1.598,-3.552 0.015,-0.069 0.04,-0.137 0.066,-0.206 0.815,-0.459 1.335,-1.255 1.546,-2.376 0.778,0.38 1.718,0.271 2.792,-0.328 1.075,-0.553 1.661,-1.6 1.786,-3.139 0.116,-1.311 -0.281,-2.769 -1.189,-4.388 v -0.012 c -0.107,-0.2 -0.209,-0.504 -0.317,-0.913 -0.03,-0.116 -0.082,-0.223 -0.147,-0.318 -0.01,-0.034 -0.28,-0.473 -0.807,-1.338 -0.527,-0.853 -0.974,-1.737 -1.326,-2.652 -0.094,-0.235 -0.178,-0.423 -0.24,-0.564 l -0.187,-0.228 0.002,-0.011 -0.022,-0.035 c -0.011,0 -0.011,-0.012 -0.021,-0.024 -2.765,-2.993 -4.152,-5.243 -4.156,-6.732 -0.163,-1.552 0.501,-2.503 1.98,-2.864 1.48,-0.351 2.922,0.162 4.304,1.548 1.38,1.386 2.34,3.159 2.879,5.315 0.541,2.169 0.85,3.543 0.938,4.123 -0.855,0.828 -1.205,1.758 -1.056,2.779 0.084,1.006 0.726,2.119 1.919,3.312 0.188,0.183 0.404,0.272 0.657,0.271 0.253,-0.001 0.465,-0.095 0.646,-0.271 -0.099,-0.143 -0.217,-0.333 -0.357,-0.557 -0.538,-0.867 -0.887,-1.862 -1.044,-2.976 0.042,-0.447 0.104,-0.825 0.198,-1.133 0.05,-0.078 0.278,-0.275 0.673,-0.615 0.395,-0.34 1.028,-0.567 1.875,-0.68 0.846,-0.112 1.78,0.158 2.823,0.815 0.961,0.7 1.416,2.161 1.377,4.374 -0.053,2.5 -0.383,4.526 -0.993,6.079 -0.478,1.167 -1.16,1.76 -2.06,1.755 -0.47,0.186 -0.867,0.331 -1.185,0.444 -0.339,0.112 -0.538,0.184 -0.619,0.192 -0.08,0.007 -0.132,0.109 -0.15,0.282 -0.03,0.172 -0.003,0.345 0.07,0.51 l 4.298,9.61 z"
         id="path1231" />
      <path
         inkscape:connector-curvature="0"
         style="fill:#fcdf00"
         d="m 644.257,151.999 c -0.477,0.105 -1.015,-0.01 -1.61,-0.347 -0.483,-0.276 -0.966,-0.596 -1.468,-0.976 -0.48,-0.355 -0.935,-0.778 -1.361,-1.292 v -0.012 c -0.438,-0.513 -0.796,-1.038 -1.062,-1.568 l 10e-4,-0.012 c -0.199,-0.446 -0.195,-1.092 0.004,-1.926 0.186,-0.833 0.616,-1.448 1.292,-1.845 0.602,-0.331 1.257,-0.291 1.99,0.11 0.083,1.238 0.459,2.396 1.139,3.451 l 0.002,-0.01 c 0.634,1.031 1.383,1.859 2.221,2.484 -10e-4,0.011 -0.002,0.022 -0.002,0.034 -0.024,0.783 -0.244,1.35 -0.663,1.688 -0.104,0.02 -0.21,0.049 -0.315,0.102 -0.06,0.032 -0.12,0.076 -0.168,0.119"
         id="path1233" />
      <path
         inkscape:connector-curvature="0"
         style="fill:#fcdf00"
         d="m 646.941,148.888 c -0.032,-0.036 -0.078,-0.062 -0.111,-0.086 -0.795,-0.531 -1.501,-1.265 -2.095,-2.213 -0.57,-0.89 -0.862,-1.859 -0.874,-2.91 0,-0.011 10e-4,-0.023 10e-4,-0.034 l 0.003,-0.081 c 0.002,-0.035 0.004,-0.081 -0.006,-0.127 l -0.01,-0.023 c -0.036,-0.232 -0.06,-0.463 -0.062,-0.695 l 10e-4,-0.011 c -0.019,-0.9 0.355,-1.53 1.119,-1.877 h -0.011 c 0.799,-0.358 1.57,-0.312 2.311,0.146 l 10e-4,-0.012 c 0.515,0.334 0.867,0.754 1.052,1.268 0.055,0.314 0.137,0.561 0.244,0.727 0.14,0.501 0.285,0.877 0.436,1.125 0.695,1.241 1.016,2.35 0.96,3.351 -0.059,0.792 -0.335,1.346 -0.833,1.659 -0.484,0.266 -0.881,0.341 -1.21,0.234 h -0.013 c -0.429,-0.178 -0.735,-0.329 -0.903,-0.441"
         id="path1235" />
      <path
         inkscape:connector-curvature="0"
         style="fill:#003c90"
         d="m 681.192,157.64 c -0.24,-0.063 -0.463,-0.032 -0.673,0.08 -5.932,3.077 -10.342,3.994 -13.194,2.765 -2.678,-1.331 -3.925,-4.77 -3.753,-10.314 0.002,-0.233 -0.058,-0.435 -0.197,-0.614 -0.144,-0.188 -0.332,-0.291 -0.555,-0.333 -0.225,-0.055 -0.435,-0.027 -0.632,0.093 l -16.47,9.049 c -0.18,0.093 -0.309,0.229 -0.387,0.412 -0.095,0.176 -0.126,0.356 -0.091,0.553 1.433,9.475 4.93,15.708 10.497,18.709 5.488,3.063 13.006,2.883 22.553,-0.528 0.165,-0.062 0.299,-0.151 0.414,-0.295 0.114,-0.146 0.178,-0.299 0.202,-0.465 0.542,-4.396 1.525,-10.405 2.954,-18.028 0.036,-0.244 -0.006,-0.464 -0.13,-0.67 -0.123,-0.211 -0.31,-0.349 -0.538,-0.414 m -5.445,4.201 c 0.074,-0.035 0.142,-0.056 0.22,-0.08 1.16,-0.411 2.4,-0.921 3.719,-1.54 -0.438,2.396 -0.832,4.618 -1.178,6.668 -0.021,0.055 -0.029,0.107 -0.035,0.169 -0.587,3.444 -1.038,6.393 -1.355,8.874 -1.006,0.354 -1.987,0.663 -2.944,0.939 -0.082,0.013 -0.16,0.036 -0.227,0.056 -4.06,1.141 -7.672,1.573 -10.822,1.302 -0.09,-0.01 -0.163,-0.012 -0.238,-0.014 -2.33,-0.225 -4.41,-0.833 -6.249,-1.818 -2.399,-1.342 -4.376,-3.349 -5.934,-6.035 -0.034,-0.074 -0.077,-0.134 -0.113,-0.21 -1.576,-2.789 -2.704,-6.276 -3.393,-10.459 l 14.486,-7.961 c 0.04,2.397 0.368,4.415 0.966,6.031 0.023,0.079 0.051,0.168 0.085,0.243 0.367,0.929 0.826,1.72 1.382,2.384 0.075,0.088 0.146,0.164 0.224,0.251 0.629,0.666 1.358,1.179 2.204,1.548 0.858,0.413 1.837,0.656 2.935,0.726 0.074,0.003 0.159,0.001 0.247,0.012 1.717,0.055 3.723,-0.306 6.02,-1.086"
         id="path1237" />
      <path
         inkscape:connector-curvature="0"
         style="fill:#9ac843"
         d="m 675.967,161.763 c -0.078,0.023 -0.146,0.044 -0.22,0.079 -2.297,0.78 -4.303,1.141 -6.021,1.084 -0.088,-0.009 -0.173,-0.007 -0.247,-0.011 l 4.468,14.013 c 0.066,-0.02 0.145,-0.044 0.226,-0.056 0.958,-0.276 1.939,-0.585 2.946,-0.939 0.316,-2.48 0.768,-5.431 1.354,-8.873 0.006,-0.063 0.015,-0.115 0.035,-0.169 l -2.541,-5.128 z"
         id="path1239" />
      <path
         inkscape:connector-curvature="0"
         style="fill:#df6513"
         d="m 675.967,161.763 2.541,5.128 c 0.346,-2.05 0.74,-4.272 1.178,-6.668 -1.319,0.618 -2.559,1.128 -3.719,1.54"
         id="path1241" />
      <path
         inkscape:connector-curvature="0"
         style="fill:#9ac843"
         d="m 662.734,158.006 c -0.034,-0.074 -0.062,-0.164 -0.085,-0.243 l -12.06,12.389 c 0.036,0.076 0.079,0.135 0.113,0.21 1.558,2.686 3.534,4.693 5.934,6.035 1.839,0.985 3.919,1.592 6.249,1.818 0.075,0.002 0.148,0.004 0.238,0.013 l 1.216,-17.588 c -0.077,-0.087 -0.148,-0.163 -0.224,-0.25 -0.554,-0.663 -1.013,-1.454 -1.381,-2.384"
         id="path1243" />
      <path
         inkscape:connector-curvature="0"
         style="fill:#df6513"
         d="m 662.649,157.763 c -0.598,-1.617 -0.926,-3.633 -0.966,-6.031 l -14.486,7.96 c 0.688,4.184 1.816,7.67 3.393,10.46 l 12.059,-12.389 z"
         id="path1245" />
      <path
         inkscape:connector-curvature="0"
         style="fill:#0e5cab"
         d="m 669.479,162.915 c -1.098,-0.07 -2.077,-0.313 -2.935,-0.727 -0.846,-0.368 -1.575,-0.881 -2.204,-1.548 l -1.216,17.589 c 3.15,0.271 6.764,-0.16 10.822,-1.301 l -4.467,-14.013 z"
         id="path1247" />
      <path
         inkscape:connector-curvature="0"
         style="fill:#004498"
         d="m 703.917,233.732 c -0.232,-1.272 -0.498,-2.548 -0.812,-3.835 -3.795,1.107 -7.907,1.809 -12.312,2.081 -0.367,0.025 -0.732,0.051 -1.075,0.078 -2.995,-0.092 -5.835,0.376 -8.52,1.396 l 0.012,0.024 c 1.128,0.62 2.156,1.339 3.073,2.169 0.626,0.566 1.188,1.21 1.699,1.923 1.872,2.616 2.911,6.171 3.12,10.656 3.304,-0.161 6.678,-0.716 10.135,-1.668 -1.074,-6.382 0.481,-10.656 4.68,-12.824 m -11.627,2.64 c 0.188,0.187 0.2,0.399 0.021,0.625 -0.343,0.216 -0.679,0.349 -1.023,0.411 -0.226,0.035 -0.514,-0.088 -0.85,-0.367 -1.582,-1.328 -3.652,-2.755 -6.188,-4.268 l 2.294,-0.195 c 2.477,1.343 4.392,2.608 5.746,3.794"
         id="path1249" />
      <path
         inkscape:connector-curvature="0"
         style="fill:#ffffff"
         d="m 692.312,236.997 c 0.179,-0.225 0.167,-0.438 -0.021,-0.625 -1.354,-1.186 -3.271,-2.451 -5.745,-3.795 l -2.294,0.195 c 2.535,1.513 4.605,2.94 6.187,4.268 0.337,0.279 0.625,0.402 0.851,0.367 0.343,-0.061 0.679,-0.195 1.022,-0.41"
         id="path1251" />
      <path
         inkscape:connector-curvature="0"
         style="fill:#ffffff"
         d="m 699.237,246.556 c 1.352,-0.379 2.719,-0.817 4.089,-1.314 1.239,-0.457 1.743,-1.427 1.524,-2.923 -0.084,-2.804 -0.397,-5.671 -0.934,-8.584 -4.198,2.164 -5.753,6.439 -4.679,12.821"
         id="path1253" />
      <path
         inkscape:connector-curvature="0"
         style="fill:#ffffff"
         d="m 680.307,233.824 -0.302,0.125 c -0.035,0.008 -0.084,0.03 -0.12,0.051 -0.086,0.042 -0.183,0.083 -0.267,0.125 l -0.096,0.041 c -0.146,0.074 -0.291,0.147 -0.438,0.222 -0.935,0.498 -1.796,1.106 -2.578,1.825 -0.136,0.123 -0.262,0.256 -0.399,0.389 -1.464,1.503 -2.09,3.137 -1.899,4.902 0.233,2.073 1.549,3.726 3.937,4.948 2.08,1.051 4.423,1.646 7.027,1.776 1.302,0.064 2.608,0.058 3.931,-0.005 -0.209,-4.484 -1.248,-8.041 -3.12,-10.656 -0.512,-0.712 -1.073,-1.358 -1.699,-1.923 -0.917,-0.831 -1.945,-1.55 -3.073,-2.169 -0.315,0.113 -0.616,0.225 -0.904,0.349"
         id="path1255" />
      <path
         inkscape:connector-curvature="0"
         style="fill:none;stroke:#003c90;stroke-width:1.87960005;stroke-linecap:round;stroke-linejoin:round;stroke-miterlimit:10"
         d="m 703.105,229.896 c -3.795,1.108 -7.907,1.809 -12.312,2.082 -0.366,0.024 -0.731,0.05 -1.075,0.078 -2.995,-0.092 -5.835,0.377 -8.52,1.397 -0.3,0.112 -0.603,0.234 -0.892,0.371 l -0.302,0.124 c -0.035,0.009 -0.084,0.03 -0.12,0.051 -0.084,0.042 -0.183,0.083 -0.267,0.126 l -0.096,0.041 c -0.146,0.073 -0.291,0.147 -0.438,0.221 -0.935,0.499 -1.796,1.107 -2.578,1.826 -0.136,0.122 -0.262,0.255 -0.399,0.389 -1.464,1.503 -2.09,3.137 -1.899,4.902 0.233,2.073 1.549,3.727 3.936,4.948 2.082,1.052 4.424,1.647 7.028,1.777 1.302,0.063 2.608,0.057 3.931,-0.006 3.305,-0.161 6.678,-0.716 10.135,-1.668 1.352,-0.379 2.719,-0.817 4.089,-1.314 1.239,-0.457 1.743,-1.427 1.524,-2.923 -0.084,-2.805 -0.397,-5.672 -0.934,-8.585 -0.231,-1.274 -0.497,-2.549 -0.811,-3.837 z"
         id="path1257" />
      <path
         inkscape:connector-curvature="0"
         style="fill:#4daa34"
         d="m 703.873,232.683 v -30.161 l -24.479,-0.859 c 1.106,10.646 2.612,20.797 4.518,30.431 5.188,1.588 11.834,1.776 19.961,0.589"
         id="path1259" />
      <path
         inkscape:connector-curvature="0"
         style="fill:none;stroke:#2e6d2d;stroke-width:1.88230002;stroke-linecap:square;stroke-miterlimit:10"
         d="m 703.873,202.522 -24.479,-0.859 c 1.106,10.646 2.612,20.797 4.518,30.432 5.188,1.588 11.834,1.775 19.961,0.588 v -30.161 z"
         id="path1261" />
      <path
         inkscape:connector-curvature="0"
         style="fill:#004498"
         d="m 721.031,233.642 c -0.311,-1.256 -0.657,-2.511 -1.051,-3.779 -3.719,1.343 -7.78,2.301 -12.16,2.848 -0.365,0.05 -0.729,0.097 -1.07,0.146 -2.994,0.095 -5.801,0.741 -8.416,1.927 l 0.013,0.023 c 1.165,0.547 2.237,1.201 3.204,1.972 0.659,0.526 1.262,1.135 1.817,1.813 2.031,2.495 3.291,5.979 3.78,10.441 3.288,-0.366 6.622,-1.132 10.013,-2.298 -1.472,-6.302 -0.186,-10.667 3.87,-13.093 m -11.442,3.361 c 0.2,0.175 0.225,0.387 0.062,0.622 -0.33,0.237 -0.658,0.391 -0.998,0.475 -0.223,0.047 -0.517,-0.057 -0.871,-0.314 -1.662,-1.226 -3.818,-2.521 -6.443,-3.874 l 2.278,-0.339 c 2.555,1.189 4.544,2.331 5.972,3.43"
         id="path1263" />
      <path
         inkscape:connector-curvature="0"
         style="fill:#ffffff"
         d="m 709.651,237.626 c 0.162,-0.236 0.138,-0.448 -0.062,-0.622 -1.427,-1.099 -3.417,-2.242 -5.973,-3.43 l -2.277,0.339 c 2.625,1.352 4.781,2.647 6.443,3.873 0.354,0.259 0.648,0.362 0.871,0.314 0.34,-0.084 0.669,-0.237 0.998,-0.474"
         id="path1265" />
      <path
         inkscape:connector-curvature="0"
         style="fill:#ffffff"
         d="m 717.161,246.736 c 1.326,-0.464 2.663,-0.986 3.999,-1.568 1.209,-0.534 1.651,-1.534 1.341,-3.013 -0.26,-2.796 -0.753,-5.638 -1.47,-8.513 -4.056,2.426 -5.342,6.791 -3.87,13.094"
         id="path1267" />
      <path
         inkscape:connector-curvature="0"
         style="fill:#ffffff"
         d="m 697.467,235.209 -0.293,0.142 c -0.036,0.013 -0.083,0.036 -0.117,0.06 -0.083,0.047 -0.176,0.095 -0.259,0.142 l -0.094,0.047 c -0.14,0.083 -0.28,0.167 -0.422,0.249 -0.902,0.556 -1.722,1.217 -2.459,1.985 -0.129,0.129 -0.246,0.271 -0.374,0.414 -1.368,1.591 -1.89,3.262 -1.589,5.011 0.361,2.055 1.777,3.623 4.237,4.694 2.144,0.919 4.519,1.367 7.127,1.333 1.305,-0.018 2.608,-0.105 3.924,-0.252 -0.489,-4.462 -1.749,-7.947 -3.78,-10.442 -0.556,-0.678 -1.158,-1.287 -1.817,-1.813 -0.967,-0.771 -2.039,-1.425 -3.204,-1.973 -0.305,0.132 -0.599,0.262 -0.88,0.403"
         id="path1269" />
      <path
         inkscape:connector-curvature="0"
         style="fill:none;stroke:#003c90;stroke-width:1.88030005;stroke-linecap:round;stroke-linejoin:round;stroke-miterlimit:10"
         d="m 719.98,229.862 c -3.718,1.343 -7.78,2.301 -12.16,2.848 -0.364,0.049 -0.729,0.098 -1.07,0.147 -2.994,0.094 -5.801,0.74 -8.416,1.926 -0.292,0.131 -0.586,0.273 -0.867,0.426 l -0.293,0.142 c -0.036,0.014 -0.083,0.037 -0.117,0.06 -0.083,0.047 -0.176,0.095 -0.259,0.143 l -0.093,0.046 c -0.141,0.084 -0.281,0.167 -0.423,0.249 -0.902,0.557 -1.722,1.219 -2.459,1.985 -0.129,0.129 -0.246,0.271 -0.374,0.414 -1.368,1.592 -1.89,3.262 -1.589,5.011 0.361,2.056 1.777,3.623 4.237,4.694 2.144,0.919 4.519,1.368 7.127,1.333 1.305,-0.017 2.609,-0.104 3.924,-0.251 3.288,-0.365 6.622,-1.132 10.013,-2.298 1.326,-0.464 2.664,-0.986 4,-1.568 1.208,-0.534 1.65,-1.535 1.34,-3.013 -0.26,-2.796 -0.753,-5.638 -1.47,-8.513 -0.31,-1.257 -0.657,-2.513 -1.051,-3.781 z"
         id="path1271" />
      <path
         inkscape:connector-curvature="0"
         style="fill:#4daa34"
         d="m 699.263,233 v -31.16 h 27.02 c -1.142,10.645 -2.706,20.796 -4.67,30.43 -5.365,1.588 -12.811,1.823 -22.35,0.73"
         id="path1273" />
      <path
         inkscape:connector-curvature="0"
         style="fill:none;stroke:#2e6d2d;stroke-width:1.88230002;stroke-linecap:square;stroke-miterlimit:10"
         d="m 699.263,201.839 h 27.02 c -1.142,10.645 -2.706,20.796 -4.67,30.43 -5.364,1.588 -12.811,1.824 -22.35,0.73 v -31.16 z"
         id="path1275" />
      <path
         inkscape:connector-curvature="0"
         style="fill:#4daa34"
         d="m 690.981,221.954 2.518,-0.354 c 2.717,0.318 4.882,0.401 6.517,0.259 l 4.069,0.094 v -14.81 h -13.104 v 14.811 z"
         id="path1277" />
      <path
         inkscape:connector-curvature="0"
         style="fill:#2e6d2d"
         d="m 696.098,223.53 c 1.001,0.224 2.048,0.294 3.142,0.212 l 0.776,-0.083 v -1.799 c -1.635,0.142 -3.8,0.058 -6.517,-0.259 0.341,0.812 1.198,1.447 2.599,1.929"
         id="path1279" />
      <path
         inkscape:connector-curvature="0"
         style="fill:#9ac843"
         d="m 683.5,151.647 v -5.505 h 5.375 c -3.352,21.22 -4.95,41.793 -4.81,61.72 -0.318,-0.083 -0.625,-0.177 -0.941,-0.271 -1.705,-0.494 -3.211,-1.105 -4.493,-1.823 -1.601,-18.526 0.021,-36.558 4.869,-54.121"
         id="path1281" />
      <path
         inkscape:connector-curvature="0"
         style="fill:#0e5cab"
         d="m 688.875,146.143 h 6.896 c -2.742,23.538 -3.801,44.616 -3.178,63.237 -0.706,-0.07 -1.399,-0.153 -2.082,-0.247 -2.258,-0.306 -4.411,-0.729 -6.445,-1.271 -0.141,-19.926 1.457,-40.499 4.809,-61.719"
         id="path1283" />
      <path
         inkscape:connector-curvature="0"
         style="fill:#df6513"
         d="m 702.415,209.686 c -0.412,-0.012 -0.834,-0.012 -1.258,-0.024 0.41,-0.012 0.835,-0.035 1.258,-0.046 v 0.07 z"
         id="path1285" />
      <path
         inkscape:connector-curvature="0"
         style="fill:#df6513"
         d="m 702.45,209.686 c -0.012,-0.012 -0.023,-0.012 -0.035,0 v -0.07 c 0.153,-0.012 0.294,-0.012 0.436,-0.012 v 0.083 h -0.401 z"
         id="path1287" />
      <path
         inkscape:connector-curvature="0"
         style="fill:#df6513"
         d="m 699.074,209.686 h -0.399 c -2.105,-0.012 -4.129,-0.117 -6.082,-0.306 -0.624,-18.621 0.436,-39.7 3.178,-63.237 h 7.08 l -0.436,63.473 c -0.423,0.011 -0.848,0.035 -1.259,0.046 -0.693,0.012 -1.387,0.024 -2.082,0.024"
         id="path1289" />
      <path
         inkscape:connector-curvature="0"
         style="fill:#9ac843"
         d="m 702.851,146.143 h 7.151 c 2.729,23.349 3.294,44.229 1.694,62.648 -1.023,0.129 -2.047,0.259 -3.047,0.366 -1.987,0.211 -3.917,0.364 -5.799,0.447 -0.142,0 -0.282,0 -0.436,0.012 l 0.437,-63.473 z"
         id="path1291" />
      <path
         inkscape:connector-curvature="0"
         style="fill:#0e5cab"
         d="m 710.002,146.143 h 6.894 c 3.281,20.866 4.517,41.24 3.681,61.108 -0.011,0 -0.023,0 -0.034,0.012 -0.601,0.128 -1.188,0.247 -1.764,0.353 -2.319,0.447 -4.577,0.824 -6.788,1.128 -0.094,0.013 -0.188,0.036 -0.294,0.047 1.599,-18.42 1.034,-39.299 -1.695,-62.648"
         id="path1293" />
      <path
         inkscape:connector-curvature="0"
         style="fill:#df6513"
         d="m 722.494,146.143 v 5.328 c 4.094,19.327 5.623,37.43 4.587,54.321 -2.269,0.553 -4.387,1.023 -6.328,1.423 -0.059,0.012 -0.117,0.024 -0.177,0.036 0.836,-19.869 -0.399,-40.242 -3.681,-61.108 h 5.599 z"
         id="path1295" />
      <path
         inkscape:connector-curvature="0"
         style="fill:#df6513"
         d="m 727.081,205.792 v 0.059 c -2.105,0.671 -4.222,1.258 -6.351,1.765 0.011,-0.129 0.011,-0.271 0.022,-0.4 1.942,-0.401 4.06,-0.871 6.329,-1.424"
         id="path1297" />
      <path
         inkscape:connector-curvature="0"
         style="fill:#0e5cab"
         d="m 711.662,209.191 c 0.01,-0.141 0.022,-0.271 0.034,-0.4 0.106,-0.011 0.2,-0.035 0.294,-0.048 -0.012,0.142 -0.012,0.283 -0.023,0.413 -0.107,0.012 -0.201,0.024 -0.305,0.035"
         id="path1299" />
      <path
         inkscape:connector-curvature="0"
         style="fill:#0e5cab"
         d="m 711.696,208.791 c -0.012,0.129 -0.024,0.26 -0.034,0.401 -2.931,0.329 -5.859,0.493 -8.812,0.493 v -0.081 c 1.882,-0.083 3.812,-0.236 5.799,-0.448 1,-0.105 2.024,-0.236 3.047,-0.365"
         id="path1301" />
      <path
         inkscape:connector-curvature="0"
         style="fill:#9ac843"
         d="m 711.967,209.156 c 0.012,-0.129 0.012,-0.271 0.023,-0.413 2.211,-0.305 4.469,-0.681 6.787,-1.128 0.576,-0.106 1.164,-0.224 1.765,-0.353 0.011,-0.011 0.023,-0.011 0.034,-0.011 -0.011,0.128 -0.011,0.27 -0.023,0.411 -2.858,0.659 -5.716,1.152 -8.586,1.494"
         id="path1303" />
      <path
         inkscape:connector-curvature="0"
         style="fill:#9ac843"
         d="m 720.576,207.251 c 0.06,-0.012 0.118,-0.024 0.177,-0.036 -0.012,0.129 -0.012,0.271 -0.021,0.4 -0.061,0.011 -0.119,0.035 -0.179,0.045 0.012,-0.139 0.012,-0.28 0.023,-0.409"
         id="path1305" />
      <path
         inkscape:connector-curvature="0"
         style="fill:none;stroke:#060f32;stroke-width:0.23540001;stroke-linecap:square;stroke-miterlimit:10"
         d="m 692.604,209.673 c 0,-0.104 0,-0.2 -0.012,-0.293 m -8.527,-1.377 v -0.141 m 18.35,2.517 v -0.694 -0.07 m 9.281,-0.824 c -0.012,0.129 -0.024,0.259 -0.034,0.4 m 8.88,-1.188 c 0.011,-0.117 0.011,-0.235 0.011,-0.341 0.013,-0.141 0.013,-0.282 0.023,-0.41"
         id="path1307" />
      <path
         inkscape:connector-curvature="0"
         style="fill:none;stroke:#003c90;stroke-width:1.88230002;stroke-linecap:square;stroke-miterlimit:10"
         d="m 683.5,146.143 h 5.375 6.896 7.08 7.151 6.894 5.599 v 5.328 c 4.093,19.327 5.623,37.43 4.587,54.321 -2.269,0.553 -4.387,1.023 -6.328,1.423 -0.059,0.012 -0.117,0.024 -0.177,0.036 -0.011,0 -0.023,0 -0.034,0.012 -0.601,0.128 -1.188,0.247 -1.765,0.353 -2.318,0.447 -4.576,0.824 -6.787,1.128 -0.094,0.013 -0.188,0.036 -0.294,0.047 -1.023,0.129 -2.047,0.259 -3.047,0.366 -1.987,0.211 -3.917,0.364 -5.799,0.447 -0.142,0 -0.282,0 -0.436,0.012 -0.423,0.011 -0.848,0.035 -1.259,0.046 -0.693,0.012 -1.388,0.024 -2.082,0.024 h -0.399 c -2.105,-0.012 -4.129,-0.118 -6.082,-0.307 -0.706,-0.07 -1.399,-0.153 -2.082,-0.247 -2.258,-0.306 -4.411,-0.729 -6.445,-1.271 -0.318,-0.082 -0.625,-0.176 -0.941,-0.271 -1.705,-0.493 -3.211,-1.104 -4.493,-1.822 -1.601,-18.528 0.021,-36.56 4.869,-54.122 v -5.503 z"
         id="path1309" />
      <path
         inkscape:connector-curvature="0"
         style="fill:#ffffff"
         d="m 693.382,172.126 c -3.647,-6.329 -6.576,-13.056 -8.8,-20.186 l 21.421,2.271 c -4.999,5.765 -9.211,11.74 -12.621,17.915 l 0,0 z"
         id="path1311" />
      <path
         inkscape:connector-curvature="0"
         style="fill:#e06a06"
         d="m 725.681,218.413 c -0.06,-0.057 -0.119,-0.114 -0.162,-0.174 -1.67,-2.163 -2.059,-5.771 -1.13,-10.828 -1.602,0.97 -3.162,1.225 -4.662,0.776 -0.045,-0.018 -0.089,-0.034 -0.134,-0.053 -1.944,-0.826 -2.574,-2.383 -1.876,-4.649 0.571,-1.871 1.721,-3.584 3.438,-5.116 1.513,-1.363 3.354,-2.607 5.538,-3.747 l -0.284,-4.609 c -0.01,-0.165 0.023,-0.312 0.092,-0.465 0.076,-0.146 0.181,-0.272 0.316,-0.36 3.178,-2.162 6.916,-2.771 11.223,-1.838 0.182,0.046 0.347,0.136 0.487,0.28 0.131,0.137 0.208,0.308 0.23,0.496 l 0.641,4.133 c 2.451,2.354 3.808,4.735 4.035,7.151 4.614,4.771 6.02,8.379 4.213,10.809 -0.072,0.121 -0.173,0.221 -0.295,0.291 -1.838,1.159 -3.786,1.133 -5.857,-0.055 0.21,0.566 0.297,1.46 0.257,2.694 0.144,1.754 -0.15,3.436 -0.89,5.042 -0.637,1.421 -1.723,2.016 -3.264,1.783 l -0.015,0.002 c -1.946,-0.266 -3.372,-1.336 -4.271,-3.216 -0.352,-0.728 -0.664,-1.47 -0.97,-2.22 -0.265,0.985 -0.577,1.837 -0.916,2.568 -0.672,1.41 -1.495,2.195 -2.477,2.364 -0.956,0.273 -2.049,-0.081 -3.267,-1.059 m 1.267,-1.384 c 0.604,0.478 1.13,0.684 1.588,0.625 0.435,-0.145 0.835,-0.502 1.191,-1.077 1.555,-2.498 2.51,-5.082 2.849,-7.764 0.453,0.426 0.626,1.224 0.528,2.374 0.08,0.23 0.133,0.396 0.173,0.498 l 0.003,0.016 c 0.488,1.456 1.061,2.872 1.712,4.26 0.598,1.263 1.551,1.991 2.856,2.171 l 0.01,0.006 c 0.393,0.054 0.705,-0.023 0.955,-0.23 0.116,-0.103 0.221,-0.228 0.303,-0.399 0.588,-0.839 0.898,-1.807 0.934,-2.914 0.219,-2.355 -0.055,-4.946 -0.829,-7.756 0.587,0.322 1.023,0.65 1.321,0.994 0.997,0.589 2.089,1.044 3.272,1.394 0.85,0.196 1.637,0.117 2.384,-0.222 0.884,-1.846 -0.562,-4.68 -4.335,-8.528 -0.169,-0.164 -0.252,-0.369 -0.266,-0.607 -0.162,-2.168 -1.397,-4.319 -3.708,-6.471 -0.166,-0.148 -0.252,-0.325 -0.287,-0.536 l -0.579,-3.802 c -3.293,-0.607 -6.195,-0.142 -8.717,1.386 l 0.285,4.667 c 0.007,0.191 -0.032,0.365 -0.123,0.529 -0.099,0.159 -0.229,0.279 -0.391,0.364 -2.261,1.127 -4.15,2.379 -5.679,3.745 -1.45,1.296 -2.418,2.723 -2.897,4.286 -0.343,1.131 -0.079,1.924 0.803,2.371 0.461,0.117 0.938,0.131 1.417,0.045 0.211,-0.036 0.419,-0.085 0.625,-0.152 0.36,-0.101 0.711,-0.25 1.042,-0.429 0.667,-0.351 1.292,-0.761 1.891,-1.234 0.449,-0.365 0.931,-0.694 1.432,-1.008 -0.006,1.301 -0.014,1.97 -0.045,1.992 -1.269,5.412 -1.177,9.208 0.282,11.406"
         id="path1313" />
      <path
         inkscape:connector-curvature="0"
         style="fill:#fcdf00"
         d="m 728.536,217.655 c -0.458,0.058 -0.983,-0.148 -1.588,-0.625 -1.459,-2.198 -1.551,-5.995 -0.282,-11.408 0.031,-0.021 0.039,-0.69 0.045,-1.991 -0.501,0.313 -0.982,0.643 -1.432,1.008 -0.599,0.473 -1.224,0.883 -1.891,1.233 -0.331,0.18 -0.682,0.328 -1.042,0.429 -0.206,0.067 -0.414,0.117 -0.625,0.151 -0.479,0.086 -0.956,0.072 -1.417,-0.044 -0.882,-0.448 -1.146,-1.241 -0.804,-2.371 0.479,-1.564 1.448,-2.989 2.898,-4.286 1.528,-1.367 3.418,-2.618 5.679,-3.746 0.162,-0.084 0.292,-0.205 0.391,-0.363 0.091,-0.164 0.13,-0.338 0.123,-0.528 l -0.285,-4.668 c 2.521,-1.528 5.424,-1.992 8.718,-1.386 l 0.578,3.802 c 0.035,0.212 0.121,0.389 0.287,0.536 2.311,2.152 3.547,4.303 3.708,6.471 0.014,0.239 0.097,0.443 0.266,0.607 3.772,3.85 5.219,6.683 4.335,8.529 -0.747,0.338 -1.534,0.417 -2.384,0.222 -1.184,-0.351 -2.275,-0.806 -3.272,-1.394 -0.298,-0.344 -0.734,-0.673 -1.321,-0.995 0.775,2.81 1.048,5.403 0.829,7.757 -0.035,1.108 -0.346,2.075 -0.935,2.914 -0.08,0.172 -0.186,0.297 -0.302,0.399 -0.25,0.207 -0.562,0.285 -0.955,0.23 l -0.01,-0.006 c -1.306,-0.18 -2.259,-0.908 -2.855,-2.171 -0.652,-1.387 -1.225,-2.804 -1.713,-4.259 l -0.003,-0.016 c -0.041,-0.102 -0.092,-0.268 -0.173,-0.498 0.098,-1.15 -0.075,-1.948 -0.528,-2.374 -0.339,2.682 -1.294,5.266 -2.849,7.763 -0.356,0.575 -0.755,0.933 -1.191,1.078"
         id="path1315" />
      <path
         inkscape:connector-curvature="0"
         style="fill:#30479b"
         d="m 740.875,218.172 c -0.006,0.009 -0.006,0.009 -0.015,0.02 l 0.015,-0.02 z"
         id="path1317" />
      <path
         inkscape:connector-curvature="0"
         style="fill:#df6513"
         d="m 718.099,165.111 -0.378,-2.086 c -1.528,-4.751 -0.377,-9.955 3.444,-15.598 3.757,4.235 7.012,8.589 9.76,13.085 l -12.107,8.621 c -0.382,-0.925 -0.788,-1.852 -1.218,-2.78 l 0.499,-1.242 z"
         id="path1319" />
      <path
         inkscape:connector-curvature="0"
         style="fill:#0e5cab"
         d="m 722.78,182.623 c -0.386,-2.228 -0.91,-4.479 -1.58,-6.745 l 14.504,-6.371 c 1.531,3.401 2.787,6.863 3.791,10.392 l -16.715,2.724 z"
         id="path1321" />
      <path
         inkscape:connector-curvature="0"
         style="fill:#9ac843"
         d="m 723.469,188.433 c -0.116,-1.925 -0.344,-3.856 -0.688,-5.81 l 16.715,-2.725 c 0.861,3.037 1.528,6.123 1.991,9.249 l -18.018,-0.714 z"
         id="path1323" />
      <path
         inkscape:connector-curvature="0"
         style="fill:#9ac843"
         d="m 721.2,175.878 c -0.649,-2.224 -1.45,-4.48 -2.383,-6.744 l 12.107,-8.622 c 1.814,2.945 3.406,5.948 4.779,8.994 l -14.503,6.372 z"
         id="path1325" />
      <path
         inkscape:connector-curvature="0"
         style="fill:#df6513"
         d="m 742.296,198.432 c -5.779,0.428 -12.063,-0.698 -18.829,-3.376 0.142,-2.192 0.151,-4.402 0.002,-6.623 l 18.018,0.714 c 0.452,3.053 0.727,6.151 0.809,9.285"
         id="path1327" />
      <path
         inkscape:connector-curvature="0"
         style="fill:none;stroke:#003c90;stroke-width:1.86259997;stroke-linecap:square;stroke-linejoin:round;stroke-miterlimit:10"
         d="m 717.6,166.354 c 0.43,0.929 0.835,1.855 1.218,2.78 0.933,2.264 1.733,4.52 2.383,6.745 0.67,2.266 1.194,4.518 1.58,6.745 0.346,1.953 0.571,3.884 0.688,5.81 0.149,2.221 0.14,4.431 -0.002,6.623 6.766,2.678 13.051,3.804 18.829,3.376 -0.082,-3.134 -0.356,-6.232 -0.81,-9.285 -0.463,-3.125 -1.13,-6.211 -1.991,-9.248 -1.004,-3.529 -2.26,-6.991 -3.791,-10.392 -1.373,-3.046 -2.965,-6.049 -4.779,-8.994 -2.748,-4.496 -6.003,-8.851 -9.759,-13.085"
         id="path1329" />
      <path
         inkscape:connector-curvature="0"
         style="fill:#ffffff"
         d="m 687.418,155.977 c -0.53,-0.225 -1.036,-0.447 -1.543,-0.671 -0.528,-0.235 -1.047,-0.506 -1.528,-0.812 -0.352,-0.211 -0.681,-0.447 -0.988,-0.718 -0.046,-0.059 -0.094,-0.117 -0.152,-0.176 -0.505,-0.506 -0.904,-1.083 -1.224,-1.706 -0.199,-0.388 -0.388,-0.765 -0.553,-1.153 v -0.012 c -0.212,-0.764 -0.341,-1.647 -0.399,-2.646 -0.259,-2.506 -0.2,-4.823 0.178,-6.963 h 44.356 c 0.035,0.294 0.059,0.587 0.07,0.881 0.13,2.376 -0.141,4.964 -0.836,7.764 -0.622,1.917 -1.516,3.211 -2.704,3.881 -0.788,0.459 -1.481,0.835 -2.06,1.142 -0.388,0.188 -0.788,0.365 -1.188,0.541 -0.941,0.4 -1.918,0.753 -2.929,1.047 -1.082,0.317 -2.164,0.6 -3.259,0.835 -1.07,0.247 -2.164,0.436 -3.258,0.576 -2.082,0.306 -4.165,0.495 -6.247,0.576 -0.834,0.024 -1.657,0.035 -2.493,0.024 -0.306,-0.011 -0.61,-0.011 -0.93,-0.011 -0.858,-0.048 -1.729,-0.094 -2.6,-0.129 -1.187,-0.083 -2.387,-0.236 -3.575,-0.47 -0.389,-0.083 -0.777,-0.177 -1.164,-0.26 -1.681,-0.388 -3.339,-0.894 -4.974,-1.54"
         id="path1331" />
      <path
         inkscape:connector-curvature="0"
         style="fill:none;stroke:#003c90;stroke-width:1.88230002;stroke-linecap:round;stroke-linejoin:round;stroke-miterlimit:10"
         d="m 681.43,150.741 v -0.012 c -0.212,-0.765 -0.341,-1.647 -0.399,-2.647 -0.259,-2.505 -0.201,-4.822 0.178,-6.963 h 44.356 c 0.035,0.294 0.059,0.588 0.07,0.881 0.13,2.377 -0.141,4.964 -0.836,7.764 -0.622,1.918 -1.516,3.212 -2.704,3.882 -0.788,0.458 -1.482,0.835 -2.06,1.141 -0.388,0.188 -0.788,0.364 -1.188,0.541 -0.941,0.399 -1.918,0.752 -2.929,1.047 -1.082,0.316 -2.164,0.599 -3.259,0.834 -1.07,0.247 -2.164,0.436 -3.258,0.577 -2.082,0.305 -4.165,0.495 -6.247,0.576 -0.834,0.023 -1.657,0.035 -2.493,0.023 -0.306,-0.011 -0.61,-0.011 -0.93,-0.011 -0.858,-0.048 -1.729,-0.094 -2.6,-0.129 -1.187,-0.083 -2.387,-0.236 -3.575,-0.47 -0.389,-0.083 -0.777,-0.178 -1.164,-0.259 -1.683,-0.388 -3.341,-0.895 -4.976,-1.541 -0.53,-0.225 -1.036,-0.447 -1.543,-0.671 -0.528,-0.236 -1.047,-0.506 -1.528,-0.811 -0.352,-0.212 -0.681,-0.447 -0.988,-0.718 m 10e-4,0.001 c -0.046,-0.059 -0.094,-0.117 -0.152,-0.176 -0.505,-0.505 -0.904,-1.082 -1.224,-1.705 -0.199,-0.389 -0.388,-0.765 -0.553,-1.153 m 1.929,3.034 c -0.224,-0.176 -0.435,-0.376 -0.636,-0.587 -0.575,-0.601 -0.998,-1.423 -1.293,-2.447"
         id="path1333" />
      <path
         inkscape:connector-curvature="0"
         style="fill:#fcdf00"
         d="m 748.036,121.487 c 0.38,-3.288 -0.123,-6.192 -1.497,-8.714 -1.376,-2.521 -3.234,-3.917 -5.567,-4.185 -2.319,-0.268 -4.447,0.668 -6.371,2.809 -1.913,2.142 -3.065,4.856 -3.444,8.143 -0.378,3.289 0.126,6.193 1.5,8.715 1.387,2.521 3.245,3.917 5.565,4.185 2.331,0.269 4.459,-0.667 6.371,-2.809 1.915,-2.143 3.065,-4.857 3.443,-8.144"
         id="path1335" />
      <path
         inkscape:connector-curvature="0"
         style="fill:none;stroke:#e06a06;stroke-width:1.87759995;stroke-linecap:round;stroke-linejoin:round;stroke-miterlimit:10"
         d="m 748.036,121.487 c -0.378,3.287 -1.528,6.001 -3.443,8.143 -1.912,2.143 -4.04,3.078 -6.371,2.809 -2.32,-0.268 -4.179,-1.664 -5.565,-4.185 -1.374,-2.521 -1.878,-5.426 -1.5,-8.715 0.379,-3.287 1.531,-6.001 3.444,-8.143 1.924,-2.14 4.052,-3.076 6.371,-2.809 2.333,0.269 4.191,1.665 5.567,4.185 1.374,2.523 1.877,5.427 1.497,8.715 z"
         id="path1337" />
      <path
         inkscape:connector-curvature="0"
         style="fill:#fcdf00"
         d="m 680.89,113.743 c 0.379,-3.289 -0.124,-6.192 -1.499,-8.713 -1.388,-2.522 -3.247,-3.919 -5.566,-4.186 -2.331,-0.269 -4.459,0.667 -6.372,2.809 -1.912,2.143 -3.063,4.856 -3.442,8.143 -0.38,3.288 0.125,6.193 1.499,8.714 1.376,2.521 3.233,3.917 5.565,4.186 2.318,0.268 4.447,-0.668 6.373,-2.809 1.911,-2.143 3.064,-4.857 3.442,-8.144"
         id="path1339" />
      <path
         inkscape:connector-curvature="0"
         style="fill:none;stroke:#e06a06;stroke-width:1.87759995;stroke-linecap:round;stroke-linejoin:round;stroke-miterlimit:10"
         d="m 679.391,105.029 c -1.388,-2.522 -3.247,-3.918 -5.566,-4.186 -2.331,-0.27 -4.459,0.666 -6.372,2.808 -1.912,2.142 -3.063,4.856 -3.442,8.144 -0.38,3.287 0.125,6.192 1.499,8.712 1.374,2.521 3.233,3.918 5.565,4.187 2.318,0.267 4.447,-0.669 6.373,-2.81 1.912,-2.142 3.064,-4.855 3.442,-8.143 0.379,-3.286 -0.124,-6.191 -1.499,-8.712 z"
         id="path1341" />
      <path
         inkscape:connector-curvature="0"
         style="fill:#fcdf00"
         d="m 731.542,79.327 c -0.031,-0.04 -0.049,-0.089 -0.08,-0.127 -4.636,-7.836 -10.445,-12.367 -17.427,-13.587 -1.154,-0.239 -2.344,-0.364 -3.568,-0.399 -7.045,-0.375 -13.698,2.72 -19.969,9.262 -0.038,0.031 -0.067,0.075 -0.107,0.104 -2.264,2.432 -4.328,4.959 -6.179,7.592 -2.133,3.025 -3.985,6.18 -5.581,9.468 -0.247,0.503 -0.484,1.019 -0.721,1.535 -0.38,0.937 -0.736,1.876 -1.08,2.817 -0.124,0.352 -0.248,0.704 -0.37,1.056 -1.979,5.584 -3.246,11.144 -3.778,16.681 -0.154,2.664 -0.1,5.375 0.136,8.143 0.483,6.044 2.727,11.489 6.714,16.355 5.188,6.116 12.834,9.667 22.94,10.643 10.318,1.38 18.712,-0.322 25.156,-5.096 4.991,-3.831 8.414,-8.621 10.261,-14.396 0.86,-2.642 1.529,-5.27 1.986,-7.898 0.585,-4.339 0.732,-8.8 0.443,-13.369 -0.081,-1.238 -0.187,-2.479 -0.326,-3.735 -0.039,-0.371 -0.078,-0.741 -0.12,-1.111 -0.118,-0.995 -0.252,-1.991 -0.398,-2.989 -0.472,-2.984 -1.166,-5.863 -2.064,-8.624 -1.423,-4.37 -3.369,-8.481 -5.868,-12.325"
         id="path1343" />
      <path
         inkscape:connector-curvature="0"
         style="fill:none;stroke:#e06a06;stroke-width:1.87759995;stroke-linecap:round;stroke-linejoin:round;stroke-miterlimit:10"
         d="m 731.462,79.2 c -4.636,-7.835 -10.445,-12.367 -17.427,-13.586 -1.154,-0.239 -2.343,-0.365 -3.568,-0.4 -7.045,-0.375 -13.698,2.72 -19.969,9.262 -0.038,0.031 -0.067,0.075 -0.107,0.104 -2.264,2.432 -4.328,4.959 -6.179,7.592 -2.133,3.026 -3.985,6.18 -5.581,9.468 -0.247,0.503 -0.484,1.02 -0.721,1.535 -0.38,0.937 -0.736,1.876 -1.08,2.817 -0.124,0.352 -0.248,0.704 -0.37,1.056 -1.979,5.584 -3.246,11.144 -3.778,16.681 -0.154,2.664 -0.1,5.375 0.136,8.143 0.483,6.045 2.727,11.489 6.714,16.355 5.188,6.116 12.834,9.667 22.94,10.643 10.319,1.38 18.712,-0.322 25.157,-5.095 4.99,-3.831 8.413,-8.621 10.26,-14.396 0.86,-2.642 1.529,-5.27 1.986,-7.898 0.585,-4.339 0.732,-8.8 0.443,-13.369 -0.081,-1.238 -0.187,-2.478 -0.326,-3.735 -0.039,-0.371 -0.078,-0.742 -0.12,-1.111 -0.119,-0.995 -0.252,-1.991 -0.397,-2.988 -0.473,-2.985 -1.167,-5.863 -2.065,-8.625 -1.422,-4.37 -3.368,-8.481 -5.867,-12.324 -0.032,-0.041 -0.05,-0.091 -0.081,-0.129 z"
         id="path1345" />
      <path
         inkscape:connector-curvature="0"
         style="fill:#282525"
         d="m 724.664,44.534 c 0.36,-0.348 0.648,-0.705 0.879,-1.057 0.068,-0.098 -0.68,0.053 -2.251,0.45 -1.617,0.416 -2.854,0.793 -3.697,1.133 -1.919,0.771 -3.339,1.6 -4.278,2.483 -0.377,0.394 -0.717,0.78 -1.006,1.136 -0.411,-0.626 -0.879,-1.483 -1.404,-2.572 -0.684,-1.437 -1.095,-2.997 -1.229,-4.701 0.005,-1.37 -0.013,-2.045 -0.048,-2.038 -0.86,0.185 -1.72,0.665 -2.574,1.428 -1.734,1.513 -2.705,3.788 -2.914,6.822 -0.125,1.498 -0.1,3.025 0.088,4.57 -1.134,-0.509 -2.02,-1.026 -2.633,-1.555 -0.771,-0.692 -1.503,-2.028 -2.204,-4.036 -0.561,-1.587 -0.84,-2.647 -0.864,-3.17 -0.018,-0.144 -0.229,0.163 -0.647,0.917 -0.477,0.843 -0.841,1.758 -1.097,2.756 -0.782,3.087 -0.234,6.021 1.632,8.788 0.16,0.243 0.389,0.624 0.672,1.14 -3.328,-0.951 -5.765,-2.566 -7.33,-4.861 -0.103,-0.236 -0.223,-0.025 -0.379,0.618 -0.14,0.693 -0.209,1.5 -0.187,2.436 0.049,2.745 0.78,4.91 2.205,6.492 l 0.359,0.372 c -1.328,0.035 -2.647,-0.105 -3.971,-0.411 -0.842,-0.18 -1.671,-0.464 -2.473,-0.875 -0.591,-0.306 -1.388,-0.775 -2.365,-1.408 -0.119,-0.107 0.473,1.012 1.764,3.346 1.329,2.387 2.32,3.941 2.981,4.667 1.634,1.807 3.739,3.125 6.327,3.931 2.588,0.807 5.605,0.659 9.053,-0.456 0.656,0.561 1.428,1.051 2.288,1.469 0.817,0.39 1.614,0.659 2.365,0.793 0.984,0.172 1.929,0.187 2.811,0.017 1.012,-0.179 1.85,-0.579 2.5,-1.2 0.685,0.729 1.517,1.297 2.471,1.726 0.946,0.405 1.924,0.625 2.95,0.647 0.999,0.033 2.002,-0.052 3.007,-0.267 0.676,-0.123 1.651,-0.388 2.924,-0.773 1.161,-0.339 3.102,-0.564 5.818,-0.676 2.326,-0.075 3.466,-0.132 3.423,-0.172 -0.798,-0.86 -1.753,-1.489 -2.879,-1.868 -0.92,-0.33 -2.077,-0.533 -3.474,-0.613 -0.608,-0.058 -1.26,-0.039 -1.941,0.037 0.696,-0.298 1.341,-0.661 1.946,-1.1 1.301,-0.937 2.383,-2.123 3.224,-3.573 0.468,-0.785 1.145,-2.243 2.02,-4.398 -1.015,0.698 -2.164,1.452 -3.448,2.249 -2.597,1.602 -4.516,2.469 -5.759,2.597 -0.348,0.042 -0.916,0.059 -1.684,0.065 1.126,-1.984 1.991,-3.338 2.595,-4.072 0.656,-0.774 1.991,-1.896 4.003,-3.365 l 2.707,-1.956 c -0.799,-0.553 -1.838,-0.874 -3.102,-0.972 -1.137,-0.084 -2.377,0.021 -3.699,0.329 0.676,-0.95 1.057,-2.512 1.134,-4.712 0.078,-2.211 0.05,-3.195 -0.109,-2.941 -0.626,1.025 -1.433,1.972 -2.431,2.837 -0.994,0.842 -2.065,1.522 -3.209,2.016 -0.836,0.376 -1.913,0.712 -3.236,1.021 0.16,-1.388 0.439,-2.583 0.839,-3.588 0.837,-2.043 2.008,-4.011 3.537,-5.902"
         id="path1347" />
      <path
         inkscape:connector-curvature="0"
         style="fill:#d8272a"
         d="m 729.806,133.468 c -4.02,2.077 -8.427,3.316 -13.209,3.709 -4.781,0.383 -8.845,0.386 -12.166,0.003 -3.335,-0.386 -7.292,-1.313 -11.86,-2.774 -4.566,-1.472 -8.575,-3.683 -12.018,-6.62 6.916,7.224 14.769,11.237 23.547,12.047 8.755,1.212 17.315,-0.907 25.706,-6.365"
         id="path1349" />
      <path
         inkscape:connector-curvature="0"
         style="fill:#ffffff"
         d="m 730.154,105.012 c 0.333,-2.891 -0.35,-5.462 -2.039,-7.725 -1.712,-2.265 -3.926,-3.548 -6.666,-3.863 -2.738,-0.316 -5.187,0.429 -7.369,2.245 -2.16,1.817 -3.411,4.166 -3.743,7.057 -0.332,2.879 0.352,5.452 2.037,7.725 1.711,2.264 3.927,3.547 6.666,3.863 2.74,0.315 5.188,-0.429 7.371,-2.245 2.16,-1.829 3.411,-4.177 3.743,-7.057"
         id="path1351" />
      <path
         inkscape:connector-curvature="0"
         style="fill:#ffffff"
         d="m 706.256,102.256 c 0.334,-2.892 -0.35,-5.462 -2.037,-7.724 -1.714,-2.266 -3.928,-3.548 -6.667,-3.864 -2.739,-0.316 -5.187,0.429 -7.37,2.245 -2.182,1.815 -3.434,4.165 -3.766,7.055 -0.334,2.879 0.352,5.451 2.061,7.727 1.712,2.265 3.927,3.548 6.666,3.863 2.74,0.316 5.189,-0.429 7.37,-2.245 2.16,-1.83 3.411,-4.178 3.743,-7.057"
         id="path1353" />
      <path
         inkscape:connector-curvature="0"
         style="fill:#1c1616"
         d="m 723.3,101.187 c -0.815,-1.131 -1.876,-1.801 -3.212,-2.003 -1.334,-0.202 -2.546,0.126 -3.659,0.967 -1.092,0.867 -1.749,2.002 -1.962,3.406 -0.211,1.405 0.083,2.683 0.873,3.811 0.812,1.155 1.874,1.826 3.208,2.027 1.334,0.201 2.547,-0.126 3.663,-0.99 1.089,-0.845 1.746,-1.98 1.958,-3.384 0.212,-1.404 -0.082,-2.682 -0.869,-3.834"
         id="path1355" />
      <path
         inkscape:connector-curvature="0"
         style="fill:#1c1616"
         d="m 693.904,97.798 c 1.051,-0.917 2.237,-1.327 3.582,-1.219 1.346,0.106 2.453,0.701 3.343,1.774 0.865,1.093 1.248,2.348 1.135,3.764 -0.112,1.416 -0.69,2.593 -1.719,3.511 -1.05,0.941 -2.237,1.352 -3.583,1.244 -1.346,-0.108 -2.45,-0.703 -3.34,-1.798 -0.867,-1.07 -1.251,-2.325 -1.137,-3.74 0.115,-1.416 0.691,-2.594 1.719,-3.536"
         id="path1357" />
      <path
         inkscape:connector-curvature="0"
         style="fill:none;stroke:#282525;stroke-width:4.22450018;stroke-linecap:round;stroke-miterlimit:10"
         d="m 689.739,84.262 c 16.011,-2.087 29.37,-0.546 40.102,4.625"
         id="path1359" />
      <path
         inkscape:connector-curvature="0"
         style="fill:#e48300"
         d="m 713.463,130.946 c 2.595,-2.714 4.138,-6.163 4.622,-10.359 0.483,-4.196 -0.235,-7.906 -2.144,-11.115 -1.932,-3.235 -4.488,-5.029 -7.694,-5.399 -3.206,-0.37 -6.104,0.796 -8.696,3.51 -2.592,2.689 -4.135,6.138 -4.618,10.334 -0.484,4.197 0.233,7.906 2.141,11.139 1.91,3.208 4.468,5.004 7.672,5.373 3.206,0.369 6.104,-0.797 8.717,-3.483"
         id="path1361" />
    </g>
  </g>
</svg>
