<?xml version="1.0" encoding="UTF-8" standalone="no"?>
<!-- Created with Inkscape (http://www.inkscape.org/) -->

<svg
   xmlns:dc="http://purl.org/dc/elements/1.1/"
   xmlns:cc="http://creativecommons.org/ns#"
   xmlns:rdf="http://www.w3.org/1999/02/22-rdf-syntax-ns#"
   xmlns:svg="http://www.w3.org/2000/svg"
   xmlns="http://www.w3.org/2000/svg"
   xmlns:sodipodi="http://sodipodi.sourceforge.net/DTD/sodipodi-0.dtd"
   xmlns:inkscape="http://www.inkscape.org/namespaces/inkscape"
   width="121.52097"
   height="209.68599"
   id="svg5696"
   version="1.1"
   inkscape:version="0.48.4 r9939"
   sodipodi:docname="bert11.svg">
  <defs
     id="defs5698" />
  <sodipodi:namedview
     id="base"
     pagecolor="#ffffff"
     bordercolor="#666666"
     borderopacity="1.0"
     inkscape:pageopacity="0.0"
     inkscape:pageshadow="2"
     inkscape:zoom="0.77472527"
     inkscape:cx="-56.185455"
     inkscape:cy="126.66468"
     inkscape:current-layer="layer1"
     inkscape:document-units="px"
     showgrid="false"
     inkscape:window-width="942"
     inkscape:window-height="591"
     inkscape:window-x="412"
     inkscape:window-y="91"
     inkscape:window-maximized="0"
     fit-margin-top="0"
     fit-margin-left="0"
     fit-margin-right="0"
     fit-margin-bottom="0" />
  <metadata
     id="metadata5701">
    <rdf:RDF>
      <cc:Work
         rdf:about="">
        <dc:format>image/svg+xml</dc:format>
        <dc:type
           rdf:resource="http://purl.org/dc/dcmitype/StillImage" />
        <dc:title></dc:title>
      </cc:Work>
    </rdf:RDF>
  </metadata>
  <g
     id="layer1"
     inkscape:label="Layer 1"
     inkscape:groupmode="layer"
     transform="translate(-287.81524,-2.0850432)">
    <g
       transform="translate(-9.8305149,-509.71124)"
       id="g1653">
      <path
         inkscape:connector-curvature="0"
         style="fill:#0052a4"
         d="m 360.18,715.414 c 33.146,12.66 35.977,-7.451 16.824,-9.973 0.018,-0.012 0.034,-0.025 0.052,-0.035 -2.587,-0.346 -5.6,-0.43 -9.051,-0.164 -1.994,-0.035 -4.531,0.18 -6.695,0.082 -0.734,4.41 -1.28,6.965 -1.454,8.408 h 0.001 c -0.133,1.079 -0.054,1.538 0.323,1.682"
         id="path1655" />
      <path
         inkscape:connector-curvature="0"
         style="fill:none;stroke:#0052a4;stroke-width:3.78570008;stroke-linecap:round;stroke-linejoin:round"
         d="m 360.18,715.414 c 33.146,12.66 35.977,-7.451 16.824,-9.973 0.018,-0.012 0.034,-0.025 0.052,-0.035 -2.587,-0.346 -5.6,-0.43 -9.051,-0.164 -1.994,-0.035 -4.531,0.18 -6.695,0.082 -0.734,4.41 -1.28,6.965 -1.454,8.408 h 0.001 c -0.133,1.079 -0.054,1.538 0.323,1.682 z"
         id="path1657" />
      <path
         inkscape:connector-curvature="0"
         style="fill:#ffffff"
         d="m 359.857,713.754 c 0.169,-1.395 0.684,-3.832 1.38,-7.975 1.979,1.213 4.83,4.223 3.457,11.242 -1.436,-0.459 -2.941,-0.986 -4.515,-1.586 -0.376,-0.143 -0.457,-0.604 -0.321,-1.682 h -10e-4 z"
         id="path1659" />
      <path
         inkscape:connector-curvature="0"
         style="fill:#ffffff"
         d="m 382.342,706.799 c 10.383,4.102 8.875,14.57 -7.653,12.523 0.962,-7.656 4.482,-11.039 7.653,-12.523"
         id="path1661" />
      <path
         inkscape:connector-curvature="0"
         style="fill:#005eae"
         d="m 361.237,705.779 c 0.023,-0.145 0.047,-0.285 0.073,-0.432 2.165,0.096 4.702,-0.119 6.696,-0.084 3.45,-0.266 6.463,-0.182 9.05,0.162 -0.018,0.012 -0.034,0.025 -0.052,0.037 2.03,0.268 3.812,0.734 5.338,1.336 -3.17,1.482 -6.69,4.867 -7.652,12.523 -2.872,-0.357 -6.198,-1.09 -9.994,-2.301 1.371,-7.018 -1.48,-10.028 -3.459,-11.241"
         id="path1663" />
      <path
         inkscape:connector-curvature="0"
         style="fill:#ffffff"
         d="m 379.348,705.592 c -2.369,-0.268 -2.378,-0.266 -3.545,0.316 -1.246,0.623 -2.755,1.434 -3.784,2.387 -0.292,0.268 -0.467,0.41 -0.1,0.693 0.255,0.199 0.614,0.354 0.927,0.426 0.351,0.08 0.588,0.023 0.85,-0.217 0.35,-0.33 4.598,-3.049 5.652,-3.605"
         id="path1665" />
      <path
         inkscape:connector-curvature="0"
         style="fill:#0052a4"
         d="m 356.985,713.762 h 10e-4 c -0.174,-1.445 -0.719,-4 -1.452,-8.41 -2.165,0.098 -4.702,-0.117 -6.694,-0.08 -3.452,-0.27 -6.463,-0.184 -9.051,0.16 0.018,0.012 0.035,0.025 0.053,0.037 -19.151,2.523 -16.32,22.633 16.822,9.975 0.376,-0.145 0.456,-0.606 0.321,-1.682"
         id="path1667" />
      <path
         inkscape:connector-curvature="0"
         style="fill:none;stroke:#0052a4;stroke-width:3.78570008;stroke-linecap:round;stroke-linejoin:round"
         d="m 356.985,713.762 h 10e-4 c -0.174,-1.445 -0.719,-4 -1.452,-8.41 -2.165,0.098 -4.702,-0.117 -6.694,-0.08 -3.452,-0.27 -6.463,-0.184 -9.051,0.16 0.018,0.012 0.035,0.025 0.053,0.037 -19.151,2.523 -16.32,22.633 16.822,9.975 0.376,-0.145 0.456,-0.606 0.321,-1.682 z"
         id="path1669" />
      <path
         inkscape:connector-curvature="0"
         style="fill:#ffffff"
         d="m 356.987,713.781 c -0.167,-1.395 -0.683,-3.834 -1.379,-7.973 -1.98,1.211 -4.83,4.221 -3.458,11.24 1.437,-0.459 2.94,-0.986 4.515,-1.586 0.376,-0.145 0.456,-0.604 0.321,-1.682 h 0.001 z"
         id="path1671" />
      <path
         inkscape:connector-curvature="0"
         style="fill:#ffffff"
         d="m 334.504,706.826 c -10.38,4.102 -8.874,14.57 7.652,12.523 -0.961,-7.656 -4.482,-11.04 -7.652,-12.523"
         id="path1673" />
      <path
         inkscape:connector-curvature="0"
         style="fill:#005eae"
         d="m 355.607,705.809 c -0.025,-0.145 -0.049,-0.287 -0.073,-0.434 -2.165,0.096 -4.702,-0.121 -6.694,-0.084 -3.451,-0.266 -6.463,-0.18 -9.05,0.164 0.018,0.01 0.034,0.023 0.052,0.035 -2.029,0.268 -3.811,0.734 -5.337,1.336 3.17,1.482 6.69,4.867 7.651,12.523 2.872,-0.355 6.198,-1.09 9.994,-2.301 -1.373,-7.019 1.478,-10.028 3.457,-11.239"
         id="path1675" />
      <path
         inkscape:connector-curvature="0"
         style="fill:#ffffff"
         d="m 337.498,705.621 c 2.37,-0.27 2.378,-0.268 3.544,0.316 1.246,0.621 2.755,1.432 3.784,2.383 0.292,0.27 0.466,0.414 0.101,0.697 -0.257,0.199 -0.615,0.352 -0.928,0.424 -0.349,0.08 -0.588,0.025 -0.848,-0.217 -0.352,-0.329 -4.6,-3.046 -5.653,-3.603"
         id="path1677" />
      <path
         inkscape:connector-curvature="0"
         style="fill:#4ab134"
         d="m 337.766,697.025 c 0.529,3.305 0.841,5.498 0.841,5.498 0,0 10.732,2.303 16.902,0.965 -0.014,-2.033 -0.022,-3.594 -0.024,-4.861 -0.004,-2.244 0.195,-5.646 0.242,-6.924 0.304,-0.053 5.372,0.031 5.675,0.084 0.047,1.275 -0.033,4.592 -0.037,6.826 0,1.268 -0.009,2.834 -0.023,4.875 6.171,1.338 16.903,-0.965 16.903,-0.965 0,0 0.387,-2.229 0.926,-5.578 0.894,-5.586 2.208,-14.297 2.844,-21.016 0.026,-0.279 0.043,-0.559 0.068,-0.84 -3.268,1.18 -11.598,3.67 -23.622,3.697 -12.023,-0.027 -20.352,-2.518 -23.62,-3.697 0.025,0.281 0.041,0.561 0.067,0.84 0.639,6.753 1.962,15.514 2.858,21.096"
         id="path1679" />
      <path
         inkscape:connector-curvature="0"
         style="fill:none;stroke:#3b801c;stroke-width:3.69140005"
         d="m 337.766,697.025 c 0.529,3.305 0.841,5.498 0.841,5.498 0,0 10.732,2.303 16.902,0.965 -0.014,-2.033 -0.022,-3.594 -0.024,-4.861 -0.004,-2.244 0.195,-5.646 0.242,-6.924 0.304,-0.053 5.372,0.031 5.675,0.084 0.047,1.275 -0.033,4.592 -0.037,6.826 0,1.268 -0.009,2.834 -0.023,4.875 6.171,1.338 16.903,-0.965 16.903,-0.965 0,0 0.387,-2.229 0.926,-5.578 0.894,-5.586 2.208,-14.297 2.844,-21.016 0.026,-0.279 0.043,-0.559 0.068,-0.84 -3.268,1.18 -11.598,3.67 -23.622,3.697 -12.023,-0.027 -20.352,-2.518 -23.62,-3.697 0.025,0.281 0.041,0.561 0.067,0.84 0.639,6.753 1.962,15.514 2.858,21.096"
         id="path1681" />
      <path
         inkscape:connector-curvature="0"
         style="fill:#4ab134"
         d="m 337.766,697.025 c 0.529,3.305 0.841,5.498 0.841,5.498 0,0 10.732,2.303 16.902,0.965 -0.014,-2.033 -0.022,-3.594 -0.024,-4.861 -0.004,-2.244 0.195,-5.646 0.242,-6.924 0.304,-0.053 5.372,0.031 5.675,0.084 0.047,1.275 -0.033,4.592 -0.037,6.826 0,1.268 -0.009,2.834 -0.023,4.875 6.171,1.338 16.903,-0.965 16.903,-0.965 0,0 0.387,-2.229 0.926,-5.578 0.894,-5.586 2.208,-14.297 2.844,-21.016 0.026,-0.279 0.043,-0.559 0.068,-0.84 -3.268,1.18 -11.598,3.67 -23.622,3.697 -12.023,-0.027 -20.352,-2.518 -23.62,-3.697 0.025,0.281 0.041,0.561 0.067,0.84 0.639,6.753 1.962,15.514 2.858,21.096"
         id="path1683" />
      <path
         inkscape:connector-curvature="0"
         style="fill:#0052a4"
         d="m 381.939,676.502 c 1.619,-18.271 -0.682,-36.215 -4.737,-52.781 l -0.178,-5.514 -37.081,1.143 -0.385,5.082 c -3.916,16.242 -6.124,33.779 -4.601,51.643 5.038,1.87 22.463,7.058 46.982,0.427"
         id="path1685" />
      <path
         inkscape:connector-curvature="0"
         style="fill:none;stroke:#0052a4;stroke-width:3.78570008;stroke-linecap:round;stroke-linejoin:round"
         d="m 381.939,676.502 c 1.619,-18.271 -0.682,-36.215 -4.737,-52.781 l -0.178,-5.514 -37.081,1.143 -0.385,5.082 c -3.916,16.242 -6.124,33.779 -4.601,51.643 5.038,1.87 22.463,7.058 46.982,0.427 z"
         id="path1687" />
      <path
         inkscape:connector-curvature="0"
         style="fill:#ef7a00"
         d="m 338.553,637.172 c -7.151,4.24 -17.983,11.729 -21.331,20.949 0.854,0.045 7.127,7.199 4.911,10.047 -1.564,2.012 -4.858,-0.75 -5.847,-1.723 0.604,0.896 1.267,7.422 -0.513,8.145 -4.08,1.658 -5.221,-3.967 -5.931,-8.004 -0.062,1.316 0.983,7.301 -1.341,7.215 -4.145,0.395 -4.767,-7.539 -4.162,-8.406 -0.583,1.516 0.337,5.641 -3.647,5.148 -2.44,-0.303 -2.216,-14.166 10.748,-14.93 3.775,-9.383 15.206,-18.748 21.751,-21.475"
         id="path1689" />
      <path
         inkscape:connector-curvature="0"
         style="fill:none;stroke:#ef7a00;stroke-width:3.69140005"
         d="m 338.553,637.172 c -7.151,4.24 -17.983,11.729 -21.331,20.949 0.854,0.045 7.127,7.199 4.911,10.047 -1.564,2.012 -4.858,-0.75 -5.847,-1.723 0.604,0.896 1.267,7.422 -0.513,8.145 -4.08,1.658 -5.221,-3.967 -5.931,-8.004 -0.062,1.316 0.983,7.301 -1.341,7.215 -4.145,0.395 -4.767,-7.539 -4.162,-8.406 -0.583,1.516 0.337,5.641 -3.647,5.148 -2.44,-0.303 -2.216,-14.166 10.748,-14.93 3.775,-9.383 15.206,-18.748 21.751,-21.475"
         id="path1691" />
      <path
         inkscape:connector-curvature="0"
         style="fill:#ffe100"
         d="m 338.554,637.172 c -7.151,4.24 -17.984,11.729 -21.331,20.949 0.854,0.045 7.127,7.199 4.911,10.047 -1.564,2.012 -4.858,-0.75 -5.847,-1.723 0.604,0.896 1.267,7.422 -0.513,8.145 -4.08,1.658 -5.221,-3.967 -5.931,-8.004 -0.062,1.316 0.983,7.301 -1.341,7.215 -4.145,0.395 -4.767,-7.539 -4.162,-8.406 -0.581,1.516 0.338,5.641 -3.646,5.148 -2.442,-0.303 -2.217,-14.166 10.746,-14.93 3.775,-9.383 15.207,-18.748 21.751,-21.475"
         id="path1693" />
      <path
         inkscape:connector-curvature="0"
         style="fill:#0052a4"
         d="m 306.879,651.338 c 0,0 14.496,4.273 16.481,6.104 0,0 1.983,-7.324 16.63,-20.295 l 0.153,-15.412 c 0.001,-10e-4 -24.719,8.392 -33.264,29.603"
         id="path1695" />
      <path
         inkscape:connector-curvature="0"
         style="fill:none;stroke:#0052a4;stroke-width:3.78570008;stroke-linecap:round;stroke-linejoin:round"
         d="m 306.879,651.338 c 0,0 14.496,4.273 16.481,6.104 0,0 1.983,-7.324 16.63,-20.295 l 0.153,-15.412 c 0.001,-10e-4 -24.719,8.392 -33.264,29.603 z"
         id="path1697" />
      <path
         inkscape:connector-curvature="0"
         style="fill:#ef7a00"
         d="m 378.257,637.555 c 7.153,4.242 17.986,11.729 21.334,20.949 -0.855,0.045 -7.129,7.199 -4.914,10.047 1.565,2.012 4.859,-0.75 5.849,-1.723 -0.604,0.896 -1.267,7.422 0.514,8.146 4.08,1.656 5.222,-3.969 5.931,-8.006 0.061,1.318 -0.982,7.301 1.342,7.215 4.146,0.395 4.767,-7.539 4.161,-8.406 0.583,1.516 -0.336,5.641 3.649,5.148 2.44,-0.303 2.215,-14.166 -10.75,-14.93 -3.774,-9.383 -15.207,-18.748 -21.753,-21.475"
         id="path1699" />
      <path
         inkscape:connector-curvature="0"
         style="fill:none;stroke:#ef7a00;stroke-width:3.69140005"
         d="m 378.257,637.555 c 7.153,4.242 17.986,11.729 21.334,20.949 -0.855,0.045 -7.129,7.199 -4.914,10.047 1.565,2.012 4.859,-0.75 5.849,-1.723 -0.604,0.896 -1.267,7.422 0.514,8.146 4.08,1.656 5.222,-3.969 5.931,-8.006 0.061,1.318 -0.982,7.301 1.342,7.215 4.146,0.395 4.767,-7.539 4.161,-8.406 0.583,1.516 -0.336,5.641 3.649,5.148 2.44,-0.303 2.215,-14.166 -10.75,-14.93 -3.774,-9.383 -15.207,-18.748 -21.753,-21.475"
         id="path1701" />
      <path
         inkscape:connector-curvature="0"
         style="fill:#ffe100"
         d="m 378.257,637.555 c 7.153,4.242 17.986,11.729 21.334,20.949 -0.855,0.045 -7.129,7.199 -4.914,10.047 1.565,2.012 4.859,-0.75 5.849,-1.723 -0.604,0.896 -1.267,7.422 0.514,8.146 4.08,1.656 5.222,-3.969 5.931,-8.006 0.061,1.318 -0.982,7.301 1.342,7.215 4.146,0.395 4.767,-7.539 4.161,-8.406 0.582,1.516 -0.337,5.641 3.647,5.148 2.442,-0.303 2.217,-14.166 -10.748,-14.93 -3.774,-9.383 -15.207,-18.748 -21.753,-21.475"
         id="path1703" />
      <path
         inkscape:connector-curvature="0"
         style="fill:#0052a4"
         d="m 409.935,651.721 c 0,0 -14.498,4.273 -16.481,6.104 0,0 -1.983,-7.324 -16.634,-20.295 l -0.152,-15.412 c -0.001,-0.001 24.721,8.392 33.267,29.603"
         id="path1705" />
      <path
         inkscape:connector-curvature="0"
         style="fill:none;stroke:#0052a4;stroke-width:3.78570008;stroke-linecap:round;stroke-linejoin:round"
         d="m 409.935,651.721 c 0,0 -14.498,4.273 -16.481,6.104 0,0 -1.983,-7.324 -16.634,-20.295 l -0.152,-15.412 c -0.001,-0.001 24.721,8.392 33.267,29.603 z"
         id="path1707" />
      <path
         inkscape:connector-curvature="0"
         style="fill:#0076bf"
         d="m 401.512,638.562 -13.754,10.137 c -1.213,-1.49 -2.682,-3.154 -4.445,-4.98 l 9.862,-12.611 c 2.821,2.083 5.691,4.558 8.337,7.454"
         id="path1709" />
      <path
         inkscape:connector-curvature="0"
         style="fill:#ee7624"
         d="m 409.935,651.721 c 0,0 -14.498,4.273 -16.481,6.104 0,0 -0.569,-2.094 -3.336,-6.025 l 16.372,-6.76 c 1.315,2.069 2.483,4.294 3.445,6.681"
         id="path1711" />
      <path
         inkscape:connector-curvature="0"
         style="fill:#a7ce58"
         d="m 406.49,645.039 -16.373,6.76 c -0.654,-0.932 -1.436,-1.967 -2.359,-3.1 l 13.754,-10.137 c 1.792,1.963 3.48,4.118 4.978,6.477"
         id="path1713" />
      <path
         inkscape:connector-curvature="0"
         style="fill:#ee7624"
         d="m 378.091,638.164 -0.152,-15.412 c 0,0 3.709,1.262 8.749,4.035 l -7.032,12.787 c -0.507,-0.463 -1.025,-0.931 -1.565,-1.41"
         id="path1715" />
      <path
         inkscape:connector-curvature="0"
         style="fill:#0076bf"
         d="m 315.303,638.18 13.751,10.137 c 1.213,-1.49 2.683,-3.154 4.446,-4.98 l -9.862,-12.611 c -2.821,2.083 -5.69,4.557 -8.335,7.454"
         id="path1717" />
      <path
         inkscape:connector-curvature="0"
         style="fill:#ee7624"
         d="m 306.879,651.338 c 0,0 14.496,4.273 16.481,6.104 0,0 0.568,-2.096 3.334,-6.025 l -16.371,-6.76 c -1.313,2.07 -2.482,4.294 -3.444,6.681"
         id="path1719" />
      <path
         inkscape:connector-curvature="0"
         style="fill:#a7ce58"
         d="m 310.324,644.656 16.371,6.76 c 0.655,-0.932 1.435,-1.967 2.359,-3.1 l -13.751,-10.137 c -1.793,1.964 -3.482,4.118 -4.979,6.477"
         id="path1721" />
      <path
         inkscape:connector-curvature="0"
         style="fill:#ee7624"
         d="m 339.991,637.146 0.153,-15.412 c 0,0 -3.709,1.26 -8.749,4.035 l 7.032,12.785 c 0.506,-0.46 1.024,-0.929 1.564,-1.408"
         id="path1723" />
      <path
         inkscape:connector-curvature="0"
         style="fill:#a7ce58"
         d="m 338.427,638.555 -7.032,-12.785 c -2.374,1.307 -5.041,2.949 -7.758,4.955 l 9.862,12.611 c 1.437,-1.486 3.068,-3.08 4.928,-4.781"
         id="path1725" />
      <path
         inkscape:connector-curvature="0"
         style="fill:#0076bf"
         d="m 357.257,618.816 -6.047,0.188 c -1.649,14.184 -4.515,43.59 -2.234,60.248 2.899,0.338 6.162,0.543 9.751,0.516 0.034,-8.846 -1.004,-45.168 -1.47,-60.952"
         id="path1727" />
      <path
         inkscape:connector-curvature="0"
         style="fill:#0076bf"
         d="m 377.201,623.719 -0.177,-5.512 -4.697,0.145 c 1.878,9.512 4.895,30.02 3.71,59.547 1.918,-0.393 3.882,-0.852 5.901,-1.396 1.62,-18.273 -0.681,-36.216 -4.737,-52.784"
         id="path1729" />
      <path
         inkscape:connector-curvature="0"
         style="fill:#ee7624"
         d="m 344.081,619.223 -4.137,0.129 -0.385,5.08 c -3.916,16.242 -6.124,33.781 -4.601,51.643 1.188,0.441 3.077,1.068 5.577,1.682 -1.136,-28.581 1.665,-48.693 3.546,-58.534"
         id="path1731" />
      <path
         inkscape:connector-curvature="0"
         style="fill:#a7ce58"
         d="m 351.21,619.004 -7.129,0.219 c -1.881,9.842 -4.682,29.953 -3.547,58.533 2.305,0.564 5.136,1.113 8.441,1.496 -2.28,-16.658 0.587,-46.064 2.235,-60.248"
         id="path1733" />
      <path
         inkscape:connector-curvature="0"
         style="fill:#a7ce58"
         d="m 372.328,618.352 -7.013,0.217 c 1.639,14.006 4.588,43.836 2.288,60.668 2.685,-0.297 5.501,-0.734 8.435,-1.338 1.185,-29.528 -1.831,-50.038 -3.71,-59.547"
         id="path1735" />
      <path
         inkscape:connector-curvature="0"
         style="fill:#ee7624"
         d="m 365.315,618.568 -8.057,0.248 c 0.465,15.783 1.503,52.105 1.47,60.951 2.769,-0.02 5.734,-0.182 8.875,-0.531 2.301,-16.832 -0.649,-46.662 -2.288,-60.668"
         id="path1737" />
      <polygon
         style="fill:#ffffff"
         points="346.585,627.586 367.143,628.1 356.864,642.49 "
         id="polygon1739" />
      <path
         inkscape:connector-curvature="0"
         style="fill:#e83827"
         d="m 377.308,624.18 c -0.037,-0.152 -0.071,-0.309 -0.109,-0.461 l -0.175,-5.512 -37.083,1.143 -0.384,5.082 c -0.094,0.393 -0.184,0.787 -0.276,1.18 6.823,0.927 19.498,1.618 38.027,-1.432"
         id="path1741" />
      <path
         inkscape:connector-curvature="0"
         style="fill:#0052a4"
         d="m 336.639,613.654 c -1.133,1.469 -0.024,8.492 1.256,9.746 7.954,7.799 37.45,5.785 40.674,-1.719 0.914,-2.123 2.34,-8.342 -0.527,-8.459 -1.436,-0.056 -40.434,-0.945 -41.403,0.432"
         id="path1743" />
      <path
         inkscape:connector-curvature="0"
         style="fill:none;stroke:#0052a4;stroke-width:3.78570008;stroke-linecap:round;stroke-linejoin:round"
         d="m 336.639,613.654 c -1.133,1.469 -0.024,8.492 1.256,9.746 7.954,7.799 37.45,5.785 40.674,-1.719 0.914,-2.123 2.34,-8.342 -0.527,-8.459 -1.436,-0.056 -40.434,-0.945 -41.403,0.432"
         id="path1745" />
      <path
         inkscape:connector-curvature="0"
         style="fill:#0052a4"
         d="m 336.639,613.654 c -1.133,1.469 -0.024,8.492 1.256,9.746 7.954,7.799 37.45,5.785 40.674,-1.719 0.914,-2.123 2.34,-8.342 -0.527,-8.459 -1.436,-0.056 -40.434,-0.945 -41.403,0.432"
         id="path1747" />
      <path
         inkscape:connector-curvature="0"
         style="fill:none;stroke:#0052a4;stroke-width:3.78570008;stroke-linecap:round;stroke-linejoin:round"
         d="m 336.639,613.654 c -1.133,1.469 -0.024,8.492 1.256,9.746 7.954,7.799 37.45,5.785 40.674,-1.719 0.914,-2.123 2.34,-8.342 -0.527,-8.459 -1.436,-0.056 -40.434,-0.945 -41.403,0.432"
         id="path1749" />
      <path
         inkscape:connector-curvature="0"
         style="fill:#0052a4"
         d="m 336.639,613.654 c -1.133,1.469 -0.024,8.492 1.256,9.746 7.954,7.799 37.45,5.785 40.674,-1.719 0.914,-2.123 2.34,-8.342 -0.527,-8.459 -1.436,-0.056 -40.434,-0.945 -41.403,0.432"
         id="path1751" />
      <path
         inkscape:connector-curvature="0"
         style="fill:none;stroke:#0052a4;stroke-width:3.78570008;stroke-linecap:round;stroke-linejoin:round"
         d="m 336.639,613.654 c -1.133,1.469 -0.024,8.492 1.256,9.746 7.954,7.799 37.45,5.785 40.674,-1.719 0.914,-2.123 2.34,-8.342 -0.527,-8.459 -1.436,-0.056 -40.434,-0.945 -41.403,0.432"
         id="path1753" />
      <path
         inkscape:connector-curvature="0"
         style="fill:#ffffff"
         d="m 336.639,613.654 c -1.133,1.469 -0.024,8.492 1.256,9.746 7.954,7.799 37.45,5.785 40.674,-1.719 0.914,-2.123 2.34,-8.342 -0.527,-8.459 -1.436,-0.056 -40.434,-0.945 -41.403,0.432"
         id="path1755" />
      <path
         inkscape:connector-curvature="0"
         style="fill:#ffffff"
         d="m 336.639,613.654 c -1.133,1.469 -0.024,8.492 1.256,9.746 7.954,7.799 37.45,5.785 40.674,-1.719 0.914,-2.123 2.34,-8.342 -0.527,-8.459 -1.436,-0.056 -40.434,-0.945 -41.403,0.432"
         id="path1757" />
      <path
         inkscape:connector-curvature="0"
         style="fill:#ffffff"
         d="m 336.639,613.654 c -1.133,1.469 -0.024,8.492 1.256,9.746 7.954,7.799 37.45,5.785 40.674,-1.719 0.914,-2.123 2.34,-8.342 -0.527,-8.459 -1.436,-0.056 -40.434,-0.945 -41.403,0.432"
         id="path1759" />
      <path
         inkscape:connector-curvature="0"
         style="fill:#ef7a00"
         d="m 381.882,589.855 c 0,6.209 3.84,11.242 8.58,11.242 4.738,0 8.578,-5.033 8.578,-11.242 0,-6.207 -3.84,-11.24 -8.578,-11.24 -4.739,0 -8.58,5.033 -8.58,11.24"
         id="path1761" />
      <ellipse
         d="m 399.04,589.85498 c 0,6.20879 -3.84095,11.242 -8.579,11.242 -4.73805,0 -8.579,-5.03321 -8.579,-11.242 0,-6.20878 3.84095,-11.242 8.579,-11.242 4.73805,0 8.579,5.03322 8.579,11.242 z"
         sodipodi:ry="11.242"
         sodipodi:rx="8.5790005"
         sodipodi:cy="589.85498"
         sodipodi:cx="390.461"
         style="fill:none;stroke:#ef7a00;stroke-width:3.69140005"
         cx="390.461"
         cy="589.85498"
         rx="8.5790005"
         ry="11.242"
         id="ellipse1763" />
      <path
         inkscape:connector-curvature="0"
         style="fill:#ef7a00"
         d="m 315.287,589.357 c 0,6.209 3.84,11.24 8.577,11.24 4.737,0 8.579,-5.031 8.579,-11.24 0,-6.209 -3.841,-11.242 -8.579,-11.242 -4.737,0 -8.577,5.033 -8.577,11.242"
         id="path1765" />
      <ellipse
         d="m 332.44299,589.35699 c 0,6.20769 -3.8405,11.24 -8.578,11.24 -4.7375,0 -8.578,-5.03231 -8.578,-11.24 0,-6.20768 3.8405,-11.24 8.578,-11.24 4.7375,0 8.578,5.03232 8.578,11.24 z"
         sodipodi:ry="11.24"
         sodipodi:rx="8.5780001"
         sodipodi:cy="589.35699"
         sodipodi:cx="323.86499"
         style="fill:none;stroke:#ef7a00;stroke-width:3.69140005"
         cx="323.86499"
         cy="589.35699"
         rx="8.5780001"
         ry="11.24"
         id="ellipse1767" />
      <path
         inkscape:connector-curvature="0"
         style="fill:#ffe100"
         d="m 381.882,589.855 c 0,6.209 3.84,11.242 8.58,11.242 4.738,0 8.578,-5.033 8.578,-11.242 0,-6.207 -3.84,-11.24 -8.578,-11.24 -4.739,0 -8.58,5.033 -8.58,11.24"
         id="path1769" />
      <path
         inkscape:connector-curvature="0"
         style="fill:#ffe100"
         d="m 315.287,589.357 c 0,6.209 3.84,11.24 8.577,11.24 4.737,0 8.579,-5.031 8.579,-11.24 0,-6.209 -3.841,-11.242 -8.579,-11.242 -4.737,0 -8.577,5.033 -8.577,11.242"
         id="path1771" />
      <path
         inkscape:connector-curvature="0"
         style="fill:#ef7a00"
         d="m 335.627,615.018 c -9.212,-6.533 -12.71,-20.211 -10.838,-34.248 3.134,-23.521 17.604,-42.586 32.315,-42.586 14.714,0 29.184,19.064 32.32,42.586 1.957,14.701 -2.958,27.662 -12.046,35.314 0,0 -9.7,6.057 -22.947,4.561 0,0 -9.463,0.998 -18.804,-5.627"
         id="path1773" />
      <path
         inkscape:connector-curvature="0"
         style="fill:none;stroke:#ef7a00;stroke-width:3.69140005"
         d="m 335.627,615.018 c -9.212,-6.533 -12.71,-20.211 -10.838,-34.248 3.134,-23.521 17.604,-42.586 32.315,-42.586 14.714,0 29.184,19.064 32.32,42.586 1.957,14.701 -2.958,27.662 -12.046,35.314 0,0 -9.7,6.057 -22.947,4.561 0,0 -9.463,0.998 -18.804,-5.627 z"
         id="path1775" />
      <path
         inkscape:connector-curvature="0"
         style="fill:#ffe100"
         d="m 335.627,615.018 c -9.212,-6.533 -12.71,-20.211 -10.838,-34.248 3.134,-23.521 17.604,-42.586 32.315,-42.586 14.714,0 29.184,19.064 32.32,42.586 1.957,14.701 -2.958,27.662 -12.046,35.314 0,0 -9.7,6.057 -22.947,4.561 0,0 -9.463,0.998 -18.804,-5.627"
         id="path1777" />
      <path
         inkscape:connector-curvature="0"
         style="fill:#ffffff"
         d="m 335.034,575.02 c 0,5.855 4.506,10.604 10.063,10.604 5.557,0 10.063,-4.748 10.063,-10.604 0,-5.856 -4.506,-10.602 -10.063,-10.602 -2.766,1.039 -8.215,5.541 -10.063,10.602"
         id="path1779" />
      <path
         inkscape:connector-curvature="0"
         style="fill:#ffffff"
         d="m 379.415,575.02 c 0,5.855 -4.504,10.604 -10.062,10.604 -5.561,0 -10.063,-4.748 -10.063,-10.604 0,-5.856 6.265,-11.695 10.063,-10.602 3.838,1.103 8.286,6.725 10.062,10.602"
         id="path1781" />
      <path
         inkscape:connector-curvature="0"
         d="m 341.915,575.539 c 0,2.873 2.212,5.203 4.939,5.203 2.728,0 4.94,-2.33 4.94,-5.203 0,-2.877 -2.212,-5.205 -4.94,-5.205 -2.727,0 -4.939,2.328 -4.939,5.205"
         id="path1783" />
      <path
         inkscape:connector-curvature="0"
         style="fill:#f29100"
         d="m 345.711,591.799 c 0,8.51 5.26,15.404 11.75,15.404 6.488,0 11.751,-6.895 11.751,-15.404 0,-8.506 -5.263,-15.404 -11.751,-15.404 -6.49,0 -11.75,6.898 -11.75,15.404"
         id="path1785" />
      <path
         inkscape:connector-curvature="0"
         d="m 372.477,575.539 c 0,2.873 -2.211,5.203 -4.941,5.203 -2.727,0 -4.938,-2.33 -4.938,-5.203 0,-2.877 2.211,-5.205 4.938,-5.205 2.73,0 4.941,2.328 4.941,5.205"
         id="path1787" />
      <path
         inkscape:connector-curvature="0"
         d="m 374.512,543.842 c -2.016,0.877 -3.588,1.529 -5.816,1.732 -2.05,0.186 -4.173,-0.467 -5.699,-1.756 -1.234,1.463 -3.336,1.904 -5.189,1.791 -1.459,-0.09 -3.432,-0.713 -4.914,-1.715 -3.329,1.533 -6.685,1.887 -10.417,1.209 -2.093,-0.379 -3.862,-1.576 -5.407,-2.928 -1.742,-1.527 -5.744,-7.512 -5.661,-7.471 1.78,0.906 3.221,1.539 5.11,1.736 1.388,0.146 2.706,0.121 4.009,-0.057 -0.13,-0.115 -0.26,-0.227 -0.39,-0.342 -3.764,-3.336 -3.232,-10.176 -2.75,-9.369 2.072,2.412 4.891,3.527 7.894,4.021 -0.299,-0.332 -0.521,-0.719 -0.802,-1.045 -5.248,-6.125 -1.369,-12.732 -1.328,-12.498 0.083,0.463 1.897,5.441 3.913,6.846 0.877,0.611 1.837,0.955 2.808,1.264 -0.353,-1.484 -0.551,-3.006 -0.62,-4.555 -0.327,-7.346 4.484,-8.842 4.56,-8.908 0.064,-0.057 -0.016,3.295 2.046,6.598 0.522,0.836 1.064,1.656 1.705,2.412 0.268,-0.418 0.558,-0.83 0.892,-1.236 1.069,-1.293 2.517,-2.191 3.98,-3 1.752,-0.971 5.884,-2.453 5.789,-2.258 -0.211,0.428 -0.476,0.803 -0.769,1.145 -1.257,1.984 -2.228,4.006 -2.861,6.326 -0.339,1.234 -0.427,2.465 -0.427,3.695 1.071,-0.391 2.133,-0.803 3.136,-1.393 2.156,-1.27 4.069,-3.266 5.071,-5.518 0.043,-0.094 1.222,5.324 -0.136,7.777 2.416,-0.852 5.072,-1.113 6.882,-0.133 0.136,0.072 -4.672,3.938 -6.096,6.113 -0.886,1.352 -1.488,2.877 -2.139,4.363 0.56,-0.059 1.12,-0.141 1.683,-0.262 3.003,-0.654 8.696,-6.066 8.653,-5.912 -0.933,3.363 -1.618,6.15 -4.318,8.594 -0.561,0.504 -1.17,0.939 -1.814,1.322 0.63,-0.133 1.267,-0.242 1.93,-0.271 2.512,-0.123 4.709,0.107 6.657,1.75 0.268,0.228 -6.303,0.689 -9.165,1.933"
         id="path1789" />
      <path
         inkscape:connector-curvature="0"
         style="fill:none;stroke:#000000;stroke-width:4.25909996;stroke-linecap:round"
         d="m 335.179,565.191 c 0,0 18.75,-21.727 42.86,-0.893"
         id="path1791" />
      <path
         inkscape:connector-curvature="0"
         style="fill:#e83434"
         d="m 373.057,615.307 c 0,0 -12.576,-10.613 -30.806,-0.596 0,0 14.613,-5.578 30.806,0.596"
         id="path1793" />
    </g>
  </g>
</svg>
