<?xml version="1.0" encoding="UTF-8" standalone="no"?>
<!-- Created with Inkscape (http://www.inkscape.org/) -->

<svg
   xmlns:dc="http://purl.org/dc/elements/1.1/"
   xmlns:cc="http://creativecommons.org/ns#"
   xmlns:rdf="http://www.w3.org/1999/02/22-rdf-syntax-ns#"
   xmlns:svg="http://www.w3.org/2000/svg"
   xmlns="http://www.w3.org/2000/svg"
   xmlns:sodipodi="http://sodipodi.sourceforge.net/DTD/sodipodi-0.dtd"
   xmlns:inkscape="http://www.inkscape.org/namespaces/inkscape"
   width="127.32515"
   height="210.41898"
   id="svg5696"
   version="1.1"
   inkscape:version="0.48.4 r9939"
   sodipodi:docname="bert5.svg">
  <defs
     id="defs5698" />
  <sodipodi:namedview
     id="base"
     pagecolor="#ffffff"
     bordercolor="#666666"
     borderopacity="1.0"
     inkscape:pageopacity="0.0"
     inkscape:pageshadow="2"
     inkscape:zoom="0.77472527"
     inkscape:cx="127.15674"
     inkscape:cy="67.225456"
     inkscape:current-layer="layer1"
     inkscape:document-units="px"
     showgrid="false"
     inkscape:window-width="942"
     inkscape:window-height="591"
     inkscape:window-x="412"
     inkscape:window-y="91"
     inkscape:window-maximized="0"
     fit-margin-top="0"
     fit-margin-left="0"
     fit-margin-right="0"
     fit-margin-bottom="0" />
  <metadata
     id="metadata5701">
    <rdf:RDF>
      <cc:Work
         rdf:about="">
        <dc:format>image/svg+xml</dc:format>
        <dc:type
           rdf:resource="http://purl.org/dc/dcmitype/StillImage" />
        <dc:title></dc:title>
      </cc:Work>
    </rdf:RDF>
  </metadata>
  <g
     id="layer1"
     inkscape:label="Layer 1"
     inkscape:groupmode="layer"
     transform="translate(-104.47303,58.087161)">
    <g
       transform="translate(25.361062,-334.56303)"
       id="g495">
      <path
         inkscape:connector-curvature="0"
         style="fill:#003c90"
         d="m 185.535,465.869 c 0.122,0.01 0.219,0.023 0.34,0.033 4.98,0.102 8.776,1.328 11.427,3.65 3.122,2.629 3.917,5.461 2.329,8.459 -1.29,2.867 -4.524,4.717 -9.734,5.506 -5.396,0.834 -12.238,0.211 -20.551,-1.869 l 0.075,0.014 c -0.899,-0.086 -1.499,-0.686 -1.844,-1.771 l 0.004,0.023 c -0.116,-0.369 -0.188,-0.963 -0.21,-1.75 l -0.003,-0.025 c 0.011,-0.504 0.074,-1.592 0.164,-3.258 l -0.003,-0.023 c 0.158,-2.107 0.254,-3.895 0.319,-5.367 0.015,-0.48 0.205,-0.912 0.523,-1.262 0.341,-0.352 0.751,-0.545 1.227,-0.578 0.737,-0.064 1.824,-0.193 3.261,-0.414 1.604,-0.238 2.714,-0.395 3.331,-0.445 3.353,-0.663 6.458,-0.985 9.345,-0.923 m -16.246,12.281 c -0.006,0.553 0.042,0.955 0.121,1.211 0.078,0.254 0.214,0.381 0.411,0.43 1.511,0.396 3.065,0.738 4.709,1.047 3.71,0.732 7.139,1.115 10.262,1.127 3.96,0.008 7.134,-0.539 9.568,-1.67 2.161,-1 3.442,-2.328 3.873,-3.939 0.414,-1.562 -0.03,-3.07 -1.306,-4.525 -1.357,-1.518 -3.338,-2.625 -5.988,-3.316 -1.114,-0.275 -2.289,-0.471 -3.479,-0.594 0.134,-0.088 0.244,-0.174 0.354,-0.258 -1.197,0.021 -1.937,0.062 -2.242,0.123 -0.025,0.002 -0.071,0.008 -0.116,0.037 l 0.042,-0.053 c -2.857,-0.02 -5.867,0.293 -9.08,0.939 -0.594,0.047 -1.678,0.199 -3.258,0.438 -1.485,0.225 -2.622,0.361 -3.405,0.43 l -0.044,0.438 c -0.063,1.279 -0.148,2.992 -0.276,5.121 -0.085,1.52 -0.135,2.509 -0.146,3.014"
         id="path497" />
      <path
         inkscape:connector-curvature="0"
         style="fill:#ffffff"
         d="m 169.41,479.361 c -0.079,-0.256 -0.127,-0.658 -0.121,-1.211 0.012,-0.506 0.062,-1.494 0.146,-3.016 0.128,-2.129 0.213,-3.842 0.276,-5.123 1.448,0.668 2.58,1.709 3.417,3.098 1.17,1.973 1.646,4.555 1.402,7.729 -1.644,-0.309 -3.198,-0.65 -4.709,-1.047 -0.198,-0.049 -0.334,-0.176 -0.411,-0.43"
         id="path499" />
      <path
         inkscape:connector-curvature="0"
         style="fill:#004498"
         d="m 173.159,469.146 c 1.58,-0.238 2.665,-0.391 3.259,-0.438 3.212,-0.646 6.223,-0.959 9.079,-0.939 l -0.041,0.053 c -0.282,0.059 -0.664,0.271 -1.153,0.594 -1.629,1.033 -2.786,1.988 -3.5,2.842 -0.148,0.186 -0.255,0.293 -0.27,0.367 -0.011,0.123 0.076,0.23 0.255,0.33 0.309,0.18 0.634,0.285 0.974,0.316 0.34,0.031 0.615,-0.074 0.825,-0.314 0.147,-0.186 0.928,-0.881 2.351,-2.033 1.137,-0.926 1.972,-1.578 2.521,-2.004 1.19,0.123 2.365,0.318 3.478,0.594 -1.765,1.098 -3.144,2.605 -4.165,4.504 -1.297,2.41 -1.949,5.393 -1.981,8.947 -3.123,-0.012 -6.551,-0.395 -10.262,-1.127 0.244,-3.174 -0.232,-5.756 -1.402,-7.729 -0.837,-1.389 -1.969,-2.43 -3.417,-3.098 l 0.043,-0.436 c 0.785,-0.069 1.921,-0.204 3.406,-0.429"
         id="path501" />
      <path
         inkscape:connector-curvature="0"
         style="fill:#ffffff"
         d="m 182.588,471.957 c -0.209,0.24 -0.485,0.346 -0.824,0.314 -0.341,-0.031 -0.665,-0.137 -0.975,-0.316 -0.179,-0.1 -0.265,-0.207 -0.255,-0.33 0.016,-0.074 0.122,-0.182 0.27,-0.367 0.714,-0.854 1.87,-1.809 3.5,-2.842 0.49,-0.322 0.872,-0.535 1.153,-0.594 0.045,-0.029 0.091,-0.035 0.115,-0.037 0.306,-0.061 1.044,-0.102 2.243,-0.123 -0.11,0.084 -0.22,0.17 -0.355,0.258 -0.548,0.426 -1.383,1.078 -2.52,2.004 -1.423,1.152 -2.205,1.847 -2.352,2.033"
         id="path503" />
      <path
         inkscape:connector-curvature="0"
         style="fill:#ffffff"
         d="m 196.927,471.83 c 1.276,1.457 1.72,2.963 1.306,4.523 -0.431,1.611 -1.712,2.941 -3.874,3.941 -2.434,1.133 -5.607,1.678 -9.567,1.67 0.031,-3.555 0.685,-6.537 1.981,-8.947 1.021,-1.898 2.4,-3.406 4.166,-4.504 2.649,0.692 4.63,1.799 5.988,3.317"
         id="path505" />
      <path
         inkscape:connector-curvature="0"
         style="fill:#003c90"
         d="m 130.222,468.799 c -0.12,0.021 -0.215,0.047 -0.333,0.07 -4.946,0.691 -8.577,2.365 -10.941,4.992 -2.794,2.986 -3.249,5.9 -1.313,8.695 1.624,2.699 5.063,4.154 10.343,4.322 5.469,0.191 12.205,-1.242 20.232,-4.299 l -0.073,0.023 c 0.885,-0.189 1.41,-0.859 1.624,-1.982 v 0.023 c 0.072,-0.381 0.072,-0.979 0,-1.768 v -0.021 c -0.072,-0.502 -0.263,-1.578 -0.55,-3.227 v -0.023 c -0.405,-2.078 -0.715,-3.846 -0.954,-5.303 -0.071,-0.477 -0.31,-0.885 -0.67,-1.193 -0.381,-0.311 -0.811,-0.455 -1.288,-0.432 -0.741,0.023 -1.839,0.023 -3.297,-0.023 -1.624,-0.047 -2.747,-0.072 -3.368,-0.047 -3.416,-0.262 -6.545,-0.215 -9.412,0.193 m 17.628,10.295 c 0.072,0.549 0.072,0.955 0.023,1.217 -0.045,0.264 -0.167,0.406 -0.356,0.479 -1.458,0.572 -2.963,1.098 -4.563,1.6 -3.606,1.172 -6.975,1.959 -10.08,2.342 -3.942,0.477 -7.166,0.311 -9.723,-0.527 -2.269,-0.738 -3.702,-1.908 -4.323,-3.463 -0.598,-1.504 -0.334,-3.059 0.763,-4.658 1.171,-1.672 3.01,-3.008 5.566,-4.012 1.074,-0.406 2.221,-0.74 3.392,-1.004 -0.144,-0.072 -0.263,-0.143 -0.383,-0.215 1.195,-0.119 1.936,-0.166 2.247,-0.143 0.023,0 0.072,0 0.12,0.023 l -0.048,-0.047 c 2.842,-0.359 5.875,-0.408 9.149,-0.145 0.597,-0.023 1.696,0 3.296,0.047 1.504,0.049 2.651,0.049 3.439,0.025 l 0.096,0.43 c 0.214,1.266 0.501,2.961 0.883,5.064 0.262,1.504 0.431,2.485 0.502,2.987"
         id="path507" />
      <path
         inkscape:connector-curvature="0"
         style="fill:#ffffff"
         d="m 147.873,480.311 c 0.05,-0.262 0.05,-0.668 -0.023,-1.217 -0.071,-0.502 -0.239,-1.48 -0.5,-2.986 -0.383,-2.104 -0.669,-3.799 -0.884,-5.064 -1.36,0.836 -2.366,2.006 -3.033,3.486 -0.933,2.104 -1.1,4.73 -0.479,7.859 1.6,-0.502 3.105,-1.027 4.563,-1.6 0.189,-0.072 0.311,-0.215 0.356,-0.478"
         id="path509" />
      <path
         inkscape:connector-curvature="0"
         style="fill:#004498"
         d="m 142.93,470.588 c -1.6,-0.047 -2.699,-0.07 -3.296,-0.047 -3.274,-0.264 -6.307,-0.215 -9.149,0.145 l 0.048,0.047 c 0.285,0.023 0.692,0.191 1.217,0.455 1.745,0.834 3.01,1.646 3.823,2.412 0.167,0.166 0.286,0.262 0.311,0.334 0.022,0.119 -0.049,0.238 -0.216,0.357 -0.286,0.215 -0.596,0.359 -0.931,0.43 -0.333,0.072 -0.621,0 -0.86,-0.215 -0.166,-0.166 -1.027,-0.764 -2.58,-1.744 -1.243,-0.787 -2.149,-1.336 -2.747,-1.695 -1.171,0.264 -2.318,0.596 -3.392,1.004 1.887,0.883 3.44,2.221 4.682,3.988 1.577,2.244 2.581,5.137 3.034,8.672 3.104,-0.383 6.473,-1.17 10.08,-2.342 -0.621,-3.129 -0.454,-5.756 0.479,-7.859 0.667,-1.48 1.673,-2.65 3.034,-3.486 l -0.096,-0.43 c -0.79,0.023 -1.937,0.023 -3.441,-0.026"
         id="path511" />
      <path
         inkscape:connector-curvature="0"
         style="fill:#ffffff"
         d="m 133.876,474.506 c 0.24,0.215 0.526,0.287 0.861,0.215 0.335,-0.07 0.645,-0.215 0.931,-0.43 0.167,-0.119 0.238,-0.238 0.216,-0.357 -0.024,-0.072 -0.143,-0.168 -0.311,-0.334 -0.812,-0.766 -2.078,-1.578 -3.823,-2.414 -0.524,-0.262 -0.931,-0.43 -1.217,-0.453 -0.048,-0.023 -0.096,-0.023 -0.12,-0.023 -0.311,-0.023 -1.052,0.023 -2.246,0.143 0.12,0.072 0.24,0.143 0.383,0.215 0.597,0.359 1.504,0.908 2.747,1.695 1.551,0.979 2.412,1.577 2.579,1.743"
         id="path513" />
      <path
         inkscape:connector-curvature="0"
         style="fill:#ffffff"
         d="m 119.592,476.082 c -1.099,1.6 -1.361,3.154 -0.763,4.658 0.621,1.553 2.053,2.725 4.323,3.463 2.557,0.838 5.78,1.004 9.722,0.527 -0.454,-3.535 -1.458,-6.428 -3.035,-8.672 -1.24,-1.768 -2.794,-3.105 -4.681,-3.988 -2.556,1.002 -4.395,2.34 -5.566,4.012"
         id="path515" />
      <path
         inkscape:connector-curvature="0"
         style="fill:#2e6d2d"
         d="m 173.561,438.717 c -0.341,-0.184 -0.681,-0.234 -1.024,-0.104 -2.489,0.834 -5.282,1.541 -8.372,2.088 -4.759,0.863 -9.718,1.283 -14.857,1.309 h -0.041 -0.04 -0.042 c -5.159,-0.025 -10.098,-0.445 -14.856,-1.309 -3.091,-0.547 -5.882,-1.254 -8.372,-2.088 -0.341,-0.131 -0.684,-0.08 -1.024,0.104 -0.341,0.182 -0.583,0.471 -0.763,0.889 -0.181,0.393 -0.261,0.838 -0.2,1.307 l 0.06,0.783 c 0.461,4.729 1.326,10.791 2.569,18.186 0.021,0.131 0.041,0.262 0.062,0.393 h 21.34 v 0.025 c 0.343,-0.025 0.724,-0.025 1.185,-0.025 h 0.042 0.04 0.041 c 0.42,0 0.801,0 1.123,0.025 0.061,-0.051 0.101,-0.104 0.162,-0.156 l 21.2,0.312 c 0.02,-0.182 0.061,-0.391 0.101,-0.574 0.38,-2.299 0.723,-4.467 1.044,-6.506 0.703,-4.572 1.205,-8.465 1.525,-11.68 l 0.079,-0.783 c 0.041,-0.469 -0.019,-0.914 -0.199,-1.307 -0.18,-0.418 -0.442,-0.706 -0.783,-0.889"
         id="path517" />
      <path
         inkscape:connector-curvature="0"
         style="fill:#003c90"
         d="m 156.039,454.26 c -0.065,0.004 -0.101,0.021 -0.141,0.072 l -0.869,-1.695 -0.029,-0.19 0.083,0.162 c 0.243,0.432 0.477,0.842 0.718,1.273 0.077,0.108 0.15,0.247 0.238,0.378"
         id="path519" />
      <path
         inkscape:connector-curvature="0"
         style="fill:#4daa34"
         d="m 155.898,454.332 c 0.041,-0.051 0.076,-0.068 0.141,-0.072 -0.088,-0.131 -0.161,-0.27 -0.238,-0.377 -0.242,-0.432 -0.475,-0.842 -0.718,-1.273 L 155,452.447 c 0.259,-0.777 0.529,-1.531 0.811,-2.264 3.194,-7.818 8.875,-11.484 17.059,-11.012 0.293,-0.004 0.491,-0.016 0.556,-0.021 0.005,-0.031 0.005,-0.031 0.035,-0.018 l 0.635,2.08 c 0.042,-0.051 0.103,-0.111 0.145,-0.162 l 0.302,0.725 c 1.869,4.76 4.026,11.1 6.492,19.014 0.632,1.99 1.149,3.66 1.546,5.012 l -5.062,3.643 c -3.898,2.553 -7.107,4.195 -9.64,4.904 l -2.062,-4.074 c -0.842,-1.65 -3.208,-6.096 -7.095,-13.342 -0.854,0.057 -1.197,0.496 -1.036,1.293 l -1.788,-3.893 z"
         id="path521" />
      <path
         inkscape:connector-curvature="0"
         style="fill:#2e6d2d"
         d="m 157.685,458.225 c -0.161,-0.799 0.182,-1.236 1.036,-1.293 3.886,7.246 6.252,11.691 7.094,13.342 l 2.063,4.074 c 2.533,-0.709 5.741,-2.352 9.639,-4.904 l 5.062,-3.643 c -0.397,-1.352 -0.914,-3.021 -1.546,-5.012 -2.465,-7.914 -4.623,-14.254 -6.492,-19.014 l -0.302,-0.725 c -0.042,0.051 -0.104,0.111 -0.145,0.162 l -0.635,-2.08 c 0.008,-0.031 0.008,-0.031 0.019,-0.008 0.137,-0.041 0.287,-0.059 0.448,-0.053 0.388,0.004 0.733,0.15 1.084,0.439 0.339,0.268 0.615,0.623 0.774,1.07 l 0.304,0.725 c 1.868,4.76 4.026,11.1 6.502,19.035 0.03,0.104 0.058,0.205 0.088,0.307 0.61,1.945 1.12,3.561 1.524,4.877 0.118,0.408 0.141,0.809 0.038,1.182 -0.103,0.377 -0.282,0.645 -0.552,0.869 l -5.058,3.645 c -0.031,-0.016 -0.048,-0.006 -0.055,0.027 -4.03,2.646 -7.358,4.322 -9.995,5.053 -0.374,0.105 -0.769,0.043 -1.18,-0.186 -0.233,-0.145 -0.459,-0.322 -0.644,-0.551 l -9.071,-17.338 z"
         id="path523" />
      <path
         inkscape:connector-curvature="0"
         style="fill:#003c90"
         d="m 148.3,445.5 c 0.061,-0.025 0.103,-0.025 0.165,0 v -1.906 l -0.062,-0.184 v 0.184 c -0.021,0.496 -0.042,0.967 -0.062,1.463 -0.022,0.131 -0.022,0.287 -0.041,0.443"
         id="path525" />
      <path
         inkscape:connector-curvature="0"
         style="fill:#4daa34"
         d="m 148.464,445.5 c -0.061,-0.025 -0.103,-0.025 -0.165,0 0.021,-0.156 0.021,-0.312 0.042,-0.443 0.021,-0.496 0.041,-0.967 0.062,-1.463 v -0.184 c -0.596,-0.574 -1.191,-1.121 -1.786,-1.646 -6.524,-5.512 -13.375,-6.191 -20.576,-2.039 -0.267,0.133 -0.451,0.211 -0.512,0.236 -0.021,-0.025 -0.021,-0.025 -0.042,0 l 0.39,2.143 c -0.062,-0.025 -0.144,-0.051 -0.206,-0.078 l 0.062,0.783 c 0.513,5.096 1.498,11.732 2.934,19.912 0.349,2.062 0.656,3.787 0.923,5.172 l 6.278,0.939 c 4.718,0.498 8.389,0.498 11.016,-0.025 l -0.02,-4.572 c 0,-1.854 0.082,-6.896 0.246,-15.127 0.8,-0.342 1.312,-0.105 1.539,0.678 l -0.185,-4.286 z"
         id="path527" />
      <path
         inkscape:connector-curvature="0"
         style="fill:#2e6d2d"
         d="m 148.648,449.785 c -0.226,-0.783 -0.738,-1.02 -1.539,-0.678 -0.165,8.23 -0.246,13.273 -0.246,15.127 l 0.02,4.572 c -2.627,0.523 -6.299,0.523 -11.016,0.025 l -6.278,-0.939 c -0.267,-1.385 -0.574,-3.109 -0.923,-5.172 -1.437,-8.18 -2.42,-14.816 -2.934,-19.912 l -0.062,-0.783 c 0.062,0.027 0.144,0.053 0.207,0.078 l -0.39,-2.143 c -0.02,-0.025 -0.02,-0.025 -0.02,0 -0.145,0.027 -0.288,0.078 -0.431,0.158 -0.349,0.182 -0.595,0.471 -0.78,0.887 -0.185,0.393 -0.267,0.838 -0.206,1.307 l 0.063,0.785 c 0.511,5.096 1.497,11.73 2.932,19.936 0.021,0.104 0.042,0.209 0.062,0.312 0.348,2.012 0.636,3.686 0.881,5.043 0.083,0.418 0.247,0.783 0.512,1.072 0.267,0.287 0.555,0.443 0.904,0.521 l 6.278,0.941 c 0.019,-0.027 0.04,-0.027 0.061,0 4.881,0.521 8.677,0.496 11.405,-0.053 0.391,-0.078 0.719,-0.314 0.985,-0.705 0.144,-0.234 0.267,-0.496 0.329,-0.783 l 0.186,-19.596 z"
         id="path529" />
      <path
         inkscape:connector-curvature="0"
         style="fill:#4daa34"
         d="m 170.53,458.131 c 0.119,-0.705 0.239,-1.412 0.36,-2.117 0.944,-5.879 1.587,-10.738 1.968,-14.605 l 0.08,-0.783 c -2.548,0.861 -5.4,1.566 -8.551,2.143 -4.84,0.861 -9.88,1.305 -15.119,1.332 h -0.04 c -5.24,-0.027 -10.281,-0.471 -15.118,-1.332 -3.152,-0.576 -6.004,-1.281 -8.553,-2.143 l 0.061,0.783 c 0.381,3.945 1.045,8.805 1.986,14.605 0.102,0.705 0.221,1.412 0.343,2.117 h 42.583 z"
         id="path531" />
      <path
         inkscape:connector-curvature="0"
         style="fill:#e06a06"
         d="m 125.621,406.867 -0.669,-1.732 c -12.737,4.871 -20.959,10.588 -24.711,17.141 0.23,0.064 0.636,0.52 1.23,1.418 0.629,0.977 1.2,2.018 1.66,3.133 1.329,3.102 1.434,5.17 0.283,6.254 -0.829,0.752 -1.873,0.646 -3.164,-0.275 -0.858,-0.631 -1.638,-1.439 -2.338,-2.428 0.299,0.654 0.272,2.074 -0.069,4.213 -0.374,2.326 -1.001,3.596 -1.828,3.77 -1.908,0.42 -3.206,-0.453 -3.882,-2.574 -0.429,-1.303 -0.642,-3.441 -0.65,-6.363 -0.1,0.441 -0.262,1.812 -0.51,4.113 -0.403,2.078 -1.07,3.004 -2.027,2.816 -1.812,-0.141 -2.865,-1.602 -3.19,-4.359 -0.117,-1.012 -0.116,-2 0.009,-3.018 0.044,-0.404 0.101,-0.732 0.169,-0.986 -0.218,0.566 -0.483,1.416 -0.793,2.521 -0.664,1.334 -1.801,1.768 -3.383,1.279 -0.622,-0.178 -0.883,-1.043 -0.771,-2.547 0.151,-1.59 0.687,-3.166 1.61,-4.746 2.613,-4.406 6.729,-6.309 12.345,-5.686 2.474,-4.021 6.481,-7.826 12.002,-11.443 4.893,-3.197 9.3,-5.242 13.196,-6.146 l -0.416,-1.809 c -4.093,0.918 -8.683,3.055 -13.795,6.404 -5.356,3.502 -9.316,7.17 -11.934,11.045 -5.855,-0.35 -10.196,1.877 -12.999,6.686 l -0.003,0.023 c -1.061,1.822 -1.691,3.672 -1.835,5.504 l -0.009,0.047 c -0.211,2.789 0.479,4.26 2.087,4.463 1.125,0.338 2.107,0.385 2.942,0.166 0.646,2.861 2.153,4.35 4.499,4.463 0.818,0.164 1.569,0.002 2.236,-0.51 1.137,2.244 2.949,3.086 5.492,2.482 1.626,-0.059 2.703,-1.83 3.27,-5.283 l 0.003,-0.021 c 0.013,-0.072 0.021,-0.117 0.034,-0.189 1.986,1.234 3.64,1.154 4.966,-0.236 l 0.003,-0.023 c 1.889,-1.439 1.951,-4.205 0.169,-8.326 -0.515,-1.223 -1.117,-2.363 -1.829,-3.428 -0.15,-0.242 -0.286,-0.436 -0.423,-0.627 3.9,-5.733 11.575,-10.793 23.023,-15.186"
         id="path533" />
      <path
         inkscape:connector-curvature="0"
         style="fill:#fcdf00"
         d="m 123.298,403.791 -3.159,-2.57 c -3.896,0.904 -8.302,2.951 -13.195,6.146 -5.521,3.617 -9.528,7.422 -12.002,11.443 -5.616,-0.623 -9.732,1.279 -12.345,5.686 -0.923,1.58 -1.458,3.156 -1.609,4.746 -0.112,1.504 0.149,2.369 0.771,2.547 1.582,0.488 2.719,0.055 3.382,-1.279 0.31,-1.105 0.576,-1.955 0.793,-2.521 -0.068,0.254 -0.124,0.582 -0.169,0.986 -0.125,1.018 -0.126,2.006 -0.009,3.018 0.326,2.76 1.379,4.219 3.19,4.359 0.958,0.188 1.624,-0.736 2.028,-2.816 0.248,-2.301 0.41,-3.672 0.51,-4.113 0.008,2.922 0.221,5.061 0.651,6.363 0.675,2.121 1.973,2.994 3.88,2.574 0.828,-0.174 1.455,-1.443 1.83,-3.77 0.341,-2.139 0.367,-3.559 0.068,-4.213 0.699,0.988 1.479,1.797 2.337,2.428 1.291,0.922 2.335,1.027 3.165,0.275 1.151,-1.084 1.045,-3.152 -0.283,-6.254 -0.461,-1.115 -1.031,-2.156 -1.661,-3.133 -0.595,-0.898 -0.999,-1.354 -1.23,-1.418 3.753,-6.553 11.975,-12.27 24.712,-17.141 l -1.655,-1.343 z"
         id="path535" />
      <path
         inkscape:connector-curvature="0"
         style="fill:#e06a06"
         d="m 124.282,403.402 c -0.333,0.113 -0.647,0.252 -0.984,0.389 l 1.654,1.344 -0.67,-1.733 z"
         id="path537" />
      <path
         inkscape:connector-curvature="0"
         style="fill:#003c90"
         d="m 136.91,390.137 c 0.214,0.012 0.454,0.027 0.692,0.045 0.046,0.008 0.093,0.014 0.141,0.023 0.061,-0.641 0.123,-1.283 0.208,-1.92 -0.216,-0.012 -0.427,-0.049 -0.641,-0.062 -1.549,-0.121 -3.063,-0.16 -4.594,-0.107 l -5.275,0.352 c -1.421,0.264 -2.91,0.637 -4.456,1.072 -0.507,0.131 -1.012,0.262 -1.498,0.422 -0.075,0.01 -0.13,0.049 -0.212,0.107 -2.347,0.732 -4.799,1.664 -7.383,2.793 -11.035,4.801 -19.174,11.447 -24.367,19.928 -0.197,0.305 -0.305,0.648 -0.294,1.012 0.01,0.365 0.1,0.693 0.289,0.99 0.167,0.295 0.417,0.529 0.749,0.707 l 7.016,3.592 0.019,0.027 c 4.422,2.373 6.983,3.924 7.649,4.688 0.276,0.363 0.646,0.594 1.089,0.695 0.441,0.1 0.86,0.051 1.255,-0.148 0.396,-0.197 0.715,-0.504 0.904,-0.906 0.112,-0.225 0.312,-0.551 0.6,-0.961 0.682,-1.018 1.589,-2.094 2.733,-3.273 l -0.022,-0.006 c 3.784,-3.914 7.42,-6.965 10.928,-9.115 3.486,-2.18 5.295,-3.295 5.382,-3.379 0.085,-0.08 0.851,-0.457 2.317,-1.123 0.913,-0.398 2.167,-0.812 3.757,-1.217 0.329,-0.088 0.681,-0.172 1.054,-0.23 0.301,-0.068 0.63,-0.156 0.954,-0.223 0.204,-0.906 0.344,-1.582 0.452,-2.07 -0.074,0.01 -0.125,0.027 -0.201,0.037 -0.048,0.016 -0.096,0.008 -0.147,0.023 -0.375,0.08 -0.779,0.18 -1.159,0.285 -0.223,0.033 -0.45,0.09 -0.681,0.174 -1.541,0.387 -3.022,0.857 -4.491,1.404 l -5.097,2.701 c -2.118,1.375 -4.007,2.67 -5.689,3.902 -1.798,1.334 -3.557,2.723 -5.257,4.195 -1.167,1.031 -2.117,1.932 -2.848,2.676 -1.427,1.422 -2.571,2.748 -3.433,3.977 -0.446,0.623 -0.74,1.08 -0.895,1.416 -0.692,-0.891 -3.436,-2.641 -8.281,-5.23 l -7.034,-3.619 c 1.359,-2.158 2.863,-4.17 4.558,-6.029 1.789,-1.988 3.8,-3.865 6.025,-5.584 2.893,-2.234 6.059,-4.227 9.522,-5.979 2.794,-1.379 5.633,-2.584 8.532,-3.584 1.974,-0.676 3.91,-1.264 5.854,-1.752 0.975,-0.195 1.945,-0.367 2.909,-0.492 0.175,-0.043 0.371,-0.057 0.567,-0.072 -0.004,0.023 -0.008,0.047 0.011,0.076 l 3.268,-0.336 c 1.505,-0.057 3.019,-0.018 4.521,0.098"
         id="path539" />
      <path
         inkscape:connector-curvature="0"
         style="fill:#9ac843"
         d="m 137.603,390.182 c -0.239,-0.018 -0.478,-0.033 -0.692,-0.045 -1.502,-0.115 -3.016,-0.154 -4.523,-0.1 l -3.268,0.336 -0.111,0.078 0.75,13.26 -0.083,0.059 c 1.469,-0.543 2.951,-1.016 4.491,-1.402 0.23,-0.084 0.458,-0.141 0.681,-0.174 0.38,-0.105 0.784,-0.205 1.159,-0.285 l 1.596,-11.727 z"
         id="path541" />
      <path
         inkscape:connector-curvature="0"
         style="fill:#df6513"
         d="m 129.008,390.449 0.111,-0.076 c -0.019,-0.029 -0.015,-0.053 -0.011,-0.076 -0.196,0.016 -0.393,0.029 -0.567,0.072 -0.964,0.125 -1.935,0.297 -2.909,0.492 -1.943,0.488 -3.879,1.076 -5.854,1.752 l 4.8,13.859 5.097,-2.703 0.083,-0.059 -0.75,-13.261 z"
         id="path543" />
      <path
         inkscape:connector-curvature="0"
         style="fill:#9ac843"
         d="m 111.245,396.199 7.643,14.176 c 1.683,-1.232 3.572,-2.527 5.69,-3.904 l -4.799,-13.857 c -2.901,0.999 -5.738,2.204 -8.534,3.585 l 0,0 z"
         id="path545" />
      <path
         inkscape:connector-curvature="0"
         style="fill:#0e5cab"
         d="m 118.888,410.375 -7.643,-14.176 c -3.463,1.75 -6.63,3.742 -9.522,5.977 l 11.908,12.395 c 1.7,-1.471 3.459,-2.862 5.257,-4.196"
         id="path547" />
      <path
         inkscape:connector-curvature="0"
         style="fill:#9ac843"
         d="m 101.723,402.176 c -2.225,1.719 -4.237,3.596 -6.025,5.584 l 15.085,9.486 c 0.731,-0.744 1.681,-1.645 2.848,-2.676 l -11.908,-12.394 z"
         id="path549" />
      <path
         inkscape:connector-curvature="0"
         style="fill:#df6513"
         d="m 91.14,413.789 7.035,3.619 c 4.844,2.59 7.588,4.34 8.281,5.23 0.154,-0.336 0.448,-0.793 0.894,-1.416 0.862,-1.229 2.007,-2.555 3.434,-3.977 l -15.085,-9.486 c -1.696,1.86 -3.199,3.872 -4.559,6.03"
         id="path551" />
      <path
         inkscape:connector-curvature="0"
         style="fill:#003c90"
         d="m 181.267,355.354 c -0.024,0.216 0,0.407 0.094,0.598 1.076,1.935 1.935,3.774 2.581,5.519 1.121,3.129 1.48,5.947 1.121,8.407 -0.406,2.174 -1.433,4.038 -3.033,5.639 v -0.023 c -1.886,1.838 -4.587,3.294 -8.05,4.418 -3.584,1.075 -8.002,1.816 -13.28,2.198 -0.216,0.023 -0.383,0.096 -0.526,0.215 -0.144,0.118 -0.263,0.262 -0.335,0.454 -0.071,0.166 -0.095,0.336 -0.071,0.525 l 3.129,16.1 c 0.022,0.215 0.143,0.406 0.334,0.549 0.216,0.119 0.431,0.168 0.646,0.145 5.374,-0.646 10.248,-1.506 14.618,-2.629 7.144,-1.84 12.923,-4.322 17.318,-7.451 6.02,-4.324 9.484,-9.818 10.392,-16.508 0.549,-4.036 0.12,-8.527 -1.243,-13.424 -0.693,-2.58 -1.672,-5.255 -2.89,-8.05 -0.096,-0.192 -0.24,-0.335 -0.407,-0.453 -0.166,-0.097 -0.358,-0.121 -0.572,-0.097 l -18.991,3.011 c -0.214,0.024 -0.382,0.119 -0.526,0.286 -0.167,0.165 -0.287,0.357 -0.309,0.571 m 2.411,0.835 16.911,-2.651 c 1.027,2.365 1.864,4.658 2.484,6.88 0.025,0.095 0.072,0.19 0.095,0.286 1.268,4.586 1.648,8.767 1.17,12.564 v 0.096 c -0.883,6.114 -4.06,11.156 -9.553,15.098 -0.048,0.047 -0.095,0.094 -0.144,0.119 -4.229,2.939 -9.723,5.277 -16.482,7.021 -0.024,0 -0.071,0 -0.096,0.023 -4.037,1.027 -8.504,1.84 -13.448,2.463 l -2.772,-14.143 c 4.945,-0.406 9.148,-1.146 12.613,-2.22 3.798,-1.22 6.735,-2.844 8.815,-4.851 1.934,-1.911 3.152,-4.156 3.607,-6.735 0,-0.024 0,-0.024 0.024,-0.048 0.453,-2.652 0.096,-5.686 -1.075,-9.077 -0.048,-0.097 -0.097,-0.191 -0.143,-0.311 -0.524,-1.456 -1.195,-2.96 -2.006,-4.514"
         id="path553" />
      <path
         inkscape:connector-curvature="0"
         style="fill:#df6513"
         d="m 200.589,353.539 -16.911,2.651 c 0.812,1.553 1.482,3.059 2.007,4.516 0.047,0.119 0.095,0.214 0.143,0.311 l 17.247,-0.597 c -0.621,-2.223 -1.457,-4.516 -2.483,-6.88 h -0.003 z"
         id="path555" />
      <path
         inkscape:connector-curvature="0"
         style="fill:#9ac843"
         d="m 203.168,360.705 c -0.023,-0.097 -0.07,-0.191 -0.095,-0.286 l -17.245,0.597 c 1.171,3.392 1.528,6.426 1.075,9.077 -0.024,0.023 -0.024,0.023 -0.024,0.048 l 17.46,3.129 c 0.478,-3.798 0.097,-7.978 -1.171,-12.565"
         id="path557" />
      <path
         inkscape:connector-curvature="0"
         style="fill:#df6513"
         d="m 161.845,383.947 2.772,14.143 c 4.944,-0.623 9.411,-1.436 13.448,-2.463 l -3.607,-13.9 c -3.465,1.073 -7.668,1.814 -12.613,2.22"
         id="path559" />
      <path
         inkscape:connector-curvature="0"
         style="fill:#0e5cab"
         d="m 204.339,373.365 v -0.096 L 186.88,370.14 c -0.455,2.579 -1.673,4.824 -3.607,6.735 l 11.37,11.706 c 0.048,-0.025 0.096,-0.07 0.144,-0.119 5.492,-3.941 8.669,-8.982 9.552,-15.097"
         id="path561" />
      <path
         inkscape:connector-curvature="0"
         style="fill:#9ac843"
         d="m 183.273,376.876 c -2.08,2.007 -5.017,3.631 -8.816,4.851 l 3.607,13.9 c 0.024,-0.023 0.072,-0.023 0.096,-0.023 6.759,-1.744 12.252,-4.082 16.482,-7.021 l -11.369,-11.707 z"
         id="path563" />
      <path
         inkscape:connector-curvature="0"
         style="fill:#003c90"
         d="m 128.508,384.873 c -0.5,0.041 -0.901,0.223 -1.246,0.592 -0.347,0.346 -0.547,0.76 -0.555,1.238 l -0.213,4.973 c -3.871,18.928 -4.804,36.49 -2.847,52.688 0.036,0.357 0.166,0.688 0.415,0.988 0.226,0.279 0.495,0.486 0.855,0.592 4.905,1.65 10.551,2.65 16.94,2.984 10.311,0.533 20.845,-0.852 31.599,-4.152 0.379,-0.109 0.682,-0.309 0.933,-0.629 0.252,-0.318 0.382,-0.682 0.417,-1.088 0.938,-16.703 -1.267,-34.518 -6.589,-53.441 l -0.351,-5.387 c -0.041,-0.523 -0.248,-0.969 -0.642,-1.314 -0.393,-0.346 -0.853,-0.52 -1.377,-0.479 l -37.339,2.435 z m 37.454,-0.53 0.354,5.553 c 5.296,18.807 7.495,36.477 6.577,53.059 -1.748,0.537 -3.712,1.082 -5.893,1.609 -3.008,0.699 -5.832,1.25 -8.446,1.623 -3.019,0.438 -5.995,0.73 -8.951,0.854 -3.292,0.135 -6.566,0.057 -9.847,-0.191 -2.994,-0.256 -5.849,-0.662 -8.567,-1.213 -2.214,-0.475 -4.093,-0.961 -5.664,-1.504 -1.931,-16.055 -0.968,-33.451 2.861,-52.234 l 0.233,-5.119 4.146,-0.283 7.197,-0.459 6.076,-0.396 8.127,-0.516 7.054,-0.477 4.743,-0.306 z"
         id="path565" />
      <path
         inkscape:connector-curvature="0"
         style="fill:#0e5cab"
         d="m 166.317,389.896 -0.355,-5.553 -4.742,0.305 c 1.538,6.61 2.817,14.067 3.791,22.344 1.407,11.869 2.069,24.41 1.989,37.572 2.182,-0.527 4.146,-1.072 5.894,-1.609 0.918,-16.582 -1.28,-34.252 -6.577,-53.059"
         id="path567" />
      <path
         inkscape:connector-curvature="0"
         style="fill:#df6513"
         d="m 154.167,385.125 -8.127,0.516 c 0.203,3.17 0.673,10.699 1.436,22.592 v 0.023 c 1.276,20.688 1.977,33.607 2.128,38.785 2.956,-0.123 5.932,-0.416 8.951,-0.854 0.774,-7.453 0.512,-18 -0.739,-31.643 -0.559,-5.928 -1.248,-12.162 -2.115,-18.699 -0.537,-3.874 -1.041,-7.464 -1.534,-10.72"
         id="path569" />
      <path
         inkscape:connector-curvature="0"
         style="fill:#0e5cab"
         d="m 147.476,408.256 v -0.023 c -0.763,-11.893 -1.232,-19.422 -1.437,-22.592 l -6.074,0.396 c -0.258,2.994 -0.561,7.445 -0.935,13.334 l -0.1,-0.139 0.1,0.139 c -0.333,5.625 -0.558,11.006 -0.693,16.191 -0.305,13.529 0.168,23.951 1.42,31.287 3.281,0.248 6.555,0.326 9.847,0.191 -0.151,-5.177 -0.853,-18.097 -2.128,-38.784"
         id="path571" />
      <path
         inkscape:connector-curvature="0"
         style="fill:#9ac843"
         d="m 155.701,395.846 c 0.866,6.537 1.556,12.771 2.115,18.699 1.25,13.643 1.514,24.189 0.739,31.643 2.614,-0.373 5.438,-0.924 8.446,-1.623 0.08,-13.162 -0.583,-25.703 -1.99,-37.572 -0.974,-8.279 -2.253,-15.734 -3.791,-22.344 l -7.054,0.479 c 0.494,3.253 0.998,6.843 1.535,10.718"
         id="path573" />
      <path
         inkscape:connector-curvature="0"
         style="fill:#df6513"
         d="m 128.621,386.779 -0.232,5.119 c -3.829,18.783 -4.792,36.18 -2.862,52.234 1.571,0.543 3.45,1.029 5.664,1.504 -0.935,-12.746 -1.132,-24.943 -0.598,-36.615 0.392,-8.184 1.117,-15.682 2.174,-22.525 l -4.146,0.283 z"
         id="path575" />
      <path
         inkscape:connector-curvature="0"
         style="fill:#9ac843"
         d="m 139.03,399.371 c 0.374,-5.889 0.677,-10.34 0.934,-13.334 l -7.197,0.461 c -1.057,6.842 -1.782,14.34 -2.174,22.523 -0.534,11.672 -0.336,23.869 0.598,36.615 2.718,0.551 5.573,0.957 8.567,1.213 -1.252,-7.336 -1.726,-17.758 -1.421,-31.287 0.134,-5.185 0.358,-10.566 0.693,-16.191 l -0.1,-0.139 0.1,0.139 z"
         id="path577" />
      <polygon
         style="fill:#ffffff"
         points="135.703,394.898 146.59,409.576 156.449,394.697 "
         id="polygon579" />
      <path
         inkscape:connector-curvature="0"
         style="fill:#003c90"
         d="m 124.982,386.152 c 0.447,2.564 1.025,4.168 1.715,4.789 1.971,1.82 5.121,3.074 9.466,3.787 3.962,0.652 8.292,0.793 13.006,0.369 4.617,-0.418 8.602,-1.246 11.975,-2.506 3.607,-1.342 5.774,-2.943 6.5,-4.783 0.616,-1.572 0.941,-3.254 1,-5.049 0.064,-2.296 -0.547,-3.445 -1.813,-3.449 -3.274,-0.058 -10.29,0.086 -21.051,0.379 -13.387,0.383 -20.296,0.854 -20.682,1.466 -0.523,0.735 -0.562,2.409 -0.116,4.997"
         id="path581" />
      <path
         inkscape:connector-curvature="0"
         style="fill:none;stroke:#003c90;stroke-width:3.81890011;stroke-linecap:round;stroke-linejoin:round;stroke-miterlimit:10"
         d="m 124.982,386.152 c -0.447,-2.588 -0.407,-4.263 0.117,-4.997 0.386,-0.611 7.294,-1.083 20.682,-1.466 10.761,-0.293 17.777,-0.437 21.051,-0.379 1.266,0.004 1.877,1.152 1.813,3.449 -0.059,1.795 -0.384,3.477 -1,5.049 -0.726,1.84 -2.893,3.441 -6.501,4.783 -3.372,1.26 -7.356,2.088 -11.973,2.506 -4.715,0.424 -9.044,0.283 -13.006,-0.369 -4.346,-0.713 -7.495,-1.967 -9.466,-3.787 -0.692,-0.621 -1.27,-2.224 -1.717,-4.789 z"
         id="path583" />
      <path
         inkscape:connector-curvature="0"
         style="fill:#003c90"
         d="m 124.982,386.152 c 0.447,2.564 1.025,4.168 1.715,4.789 1.971,1.82 5.121,3.074 9.466,3.787 3.962,0.652 8.292,0.793 13.006,0.369 4.617,-0.418 8.602,-1.246 11.975,-2.506 3.607,-1.342 5.774,-2.943 6.5,-4.783 0.616,-1.572 0.941,-3.254 1,-5.049 0.064,-2.296 -0.547,-3.445 -1.813,-3.449 -3.274,-0.058 -10.29,0.086 -21.051,0.379 -13.387,0.383 -20.296,0.854 -20.682,1.466 -0.523,0.735 -0.562,2.409 -0.116,4.997"
         id="path585" />
      <path
         inkscape:connector-curvature="0"
         style="fill:none;stroke:#003c90;stroke-width:3.81890011;stroke-linecap:round;stroke-linejoin:round;stroke-miterlimit:10"
         d="m 124.982,386.152 c -0.447,-2.588 -0.407,-4.263 0.117,-4.997 0.386,-0.611 7.294,-1.083 20.682,-1.466 10.761,-0.293 17.777,-0.437 21.051,-0.379 1.266,0.004 1.877,1.152 1.813,3.449 -0.059,1.795 -0.384,3.477 -1,5.049 -0.726,1.84 -2.893,3.441 -6.501,4.783 -3.372,1.26 -7.356,2.088 -11.973,2.506 -4.715,0.424 -9.044,0.283 -13.006,-0.369 -4.346,-0.713 -7.495,-1.967 -9.466,-3.787 -0.692,-0.621 -1.27,-2.224 -1.717,-4.789 z"
         id="path587" />
      <path
         inkscape:connector-curvature="0"
         style="fill:#003c90"
         d="m 124.982,386.152 c 0.447,2.564 1.025,4.168 1.715,4.789 1.971,1.82 5.121,3.074 9.466,3.787 3.962,0.652 8.292,0.793 13.006,0.369 4.617,-0.418 8.602,-1.246 11.975,-2.506 3.607,-1.342 5.774,-2.943 6.5,-4.783 0.616,-1.572 0.941,-3.254 1,-5.049 0.064,-2.296 -0.547,-3.445 -1.813,-3.449 -3.274,-0.058 -10.29,0.086 -21.051,0.379 -13.387,0.383 -20.296,0.854 -20.682,1.466 -0.523,0.735 -0.562,2.409 -0.116,4.997"
         id="path589" />
      <path
         inkscape:connector-curvature="0"
         style="fill:none;stroke:#003c90;stroke-width:3.81890011;stroke-linecap:round;stroke-linejoin:round;stroke-miterlimit:10"
         d="m 124.982,386.152 c -0.447,-2.588 -0.407,-4.263 0.117,-4.997 0.386,-0.611 7.294,-1.083 20.682,-1.466 10.761,-0.293 17.777,-0.437 21.051,-0.379 1.266,0.004 1.877,1.152 1.813,3.449 -0.059,1.795 -0.384,3.477 -1,5.049 -0.726,1.84 -2.893,3.441 -6.501,4.783 -3.372,1.26 -7.356,2.088 -11.973,2.506 -4.715,0.424 -9.044,0.283 -13.006,-0.369 -4.346,-0.713 -7.495,-1.967 -9.466,-3.787 -0.692,-0.621 -1.27,-2.224 -1.717,-4.789 z"
         id="path591" />
      <path
         inkscape:connector-curvature="0"
         style="fill:#ffffff"
         d="m 124.982,386.152 c 0.447,2.564 1.025,4.168 1.715,4.789 1.971,1.82 5.121,3.074 9.466,3.787 3.962,0.652 8.292,0.793 13.006,0.369 4.617,-0.418 8.602,-1.246 11.975,-2.506 3.607,-1.342 5.774,-2.943 6.5,-4.783 0.616,-1.572 0.941,-3.254 1,-5.049 0.064,-2.296 -0.547,-3.445 -1.813,-3.449 -3.274,-0.058 -10.29,0.086 -21.051,0.379 -13.387,0.383 -20.296,0.854 -20.682,1.466 -0.523,0.735 -0.562,2.409 -0.116,4.997"
         id="path593" />
      <path
         inkscape:connector-curvature="0"
         style="fill:#ffffff"
         d="m 124.982,386.152 c 0.447,2.564 1.025,4.168 1.715,4.789 1.971,1.82 5.121,3.074 9.466,3.787 3.962,0.652 8.292,0.793 13.006,0.369 4.617,-0.418 8.602,-1.246 11.975,-2.506 3.607,-1.342 5.774,-2.943 6.5,-4.783 0.616,-1.572 0.941,-3.254 1,-5.049 0.064,-2.296 -0.547,-3.445 -1.813,-3.449 -3.274,-0.058 -10.29,0.086 -21.051,0.379 -13.387,0.383 -20.296,0.854 -20.682,1.466 -0.523,0.735 -0.562,2.409 -0.116,4.997"
         id="path595" />
      <path
         inkscape:connector-curvature="0"
         style="fill:#ffffff"
         d="m 124.982,386.152 c 0.447,2.564 1.025,4.168 1.715,4.789 1.971,1.82 5.121,3.074 9.466,3.787 3.962,0.652 8.292,0.793 13.006,0.369 4.617,-0.418 8.602,-1.246 11.975,-2.506 3.607,-1.342 5.774,-2.943 6.5,-4.783 0.616,-1.572 0.941,-3.254 1,-5.049 0.064,-2.296 -0.547,-3.445 -1.813,-3.449 -3.274,-0.058 -10.29,0.086 -21.051,0.379 -13.387,0.383 -20.296,0.854 -20.682,1.466 -0.523,0.735 -0.562,2.409 -0.116,4.997"
         id="path597" />
      <path
         inkscape:connector-curvature="0"
         style="fill:#e06a06"
         d="m 187.209,365.003 c 1.946,-2.518 2.939,-5.563 2.96,-9.141 0.017,-3.578 -0.943,-6.635 -2.86,-9.149 -2.013,-2.682 -4.463,-4.055 -7.347,-4.094 -1.874,-10.575 -5.711,-19.753 -11.537,-27.51 -3.148,-4.192 -6.541,-7.429 -10.225,-9.714 -3.922,-2.477 -7.874,-3.715 -11.856,-3.712 -3.981,-0.046 -7.947,1.149 -11.896,3.583 -3.685,2.271 -7.111,5.471 -10.307,9.604 -5.812,7.552 -9.723,16.521 -11.734,26.883 -2.885,0.009 -5.35,1.354 -7.39,4.013 -1.946,2.495 -2.938,5.542 -2.959,9.118 -0.02,3.578 0.942,6.634 2.86,9.172 2.06,2.73 4.581,4.08 7.562,4.072 0.261,0.002 0.547,0.003 0.833,-0.021 2.04,6.283 5.354,11.022 9.892,14.268 4.132,2.956 8.725,4.866 13.751,5.726 2.456,0.42 4.528,0.574 6.223,0.416 5.743,0.627 11.471,0.039 17.155,-1.768 2.939,-0.938 5.259,-1.952 7.003,-3.014 l 0.121,-0.072 0.096,-0.07 c 4.624,-3.863 8.106,-8.78 10.454,-14.729 0.5,0.074 1.046,0.125 1.596,0.128 2.981,0.039 5.515,-1.281 7.605,-3.989 m 1.099,-9.151 c -0.016,3.125 -0.866,5.79 -2.57,7.998 -1.706,2.21 -3.739,3.295 -6.124,3.283 -0.309,-0.003 -0.644,-0.027 -0.953,-0.053 2.18,-6.452 2.814,-13.34 1.876,-20.667 -0.09,-0.643 -0.185,-1.289 -0.276,-1.909 2.171,0.155 4.025,1.261 5.563,3.321 1.681,2.228 2.501,4.903 2.484,8.027 m -41.973,-52.31 c 3.647,0.02 7.266,1.161 10.88,3.422 3.491,2.189 6.742,5.282 9.726,9.256 5.611,7.495 9.308,16.338 11.137,26.532 0.115,0.597 0.206,1.217 0.323,1.837 0.092,0.693 0.183,1.36 0.275,2.052 0.893,7.089 0.309,13.715 -1.8,19.927 -0.072,0.167 -0.123,0.358 -0.194,0.524 -0.145,0.404 -0.29,0.833 -0.459,1.238 -2.224,5.591 -5.517,10.2 -9.876,13.825 -1.626,1.017 -3.824,1.958 -6.573,2.828 -5.494,1.758 -11.029,2.299 -16.583,1.649 -1.597,0.158 -3.576,0.053 -5.934,-0.365 -4.742,-0.812 -9.072,-2.6 -12.969,-5.412 -4.156,-2.979 -7.21,-7.337 -9.134,-13.07 -0.165,-0.453 -0.306,-0.932 -0.446,-1.409 -0.048,-0.12 -0.094,-0.264 -0.117,-0.406 -1.708,-5.995 -2.054,-12.555 -1.062,-19.68 0.123,-0.857 0.248,-1.715 0.395,-2.549 0.122,-0.62 0.221,-1.239 0.343,-1.835 1.962,-9.98 5.753,-18.617 11.349,-25.908 3.026,-3.942 6.286,-7.001 9.803,-9.152 3.636,-2.222 7.266,-3.323 10.916,-3.304 m -39.846,43.354 c 1.562,-2.019 3.426,-3.105 5.575,-3.261 -0.148,0.786 -0.271,1.596 -0.372,2.406 -1.017,7.316 -0.672,14.067 1.059,20.229 -0.095,-10e-4 -0.19,-10e-4 -0.263,-0.002 -2.385,-0.013 -4.404,-1.12 -6.086,-3.348 -1.681,-2.227 -2.5,-4.902 -2.484,-8.026 0.017,-3.123 0.867,-5.79 2.571,-7.998"
         id="path599" />
      <path
         inkscape:connector-curvature="0"
         style="fill:#fcdf00"
         d="m 185.738,363.85 c 1.704,-2.207 2.554,-4.874 2.57,-7.998 0.017,-3.124 -0.803,-5.798 -2.483,-8.025 -1.539,-2.06 -3.392,-3.167 -5.563,-3.321 0.092,0.62 0.186,1.266 0.276,1.909 0.938,7.327 0.304,14.214 -1.876,20.667 0.311,0.025 0.645,0.05 0.953,0.053 2.384,0.009 4.417,-1.075 6.123,-3.285"
         id="path601" />
      <path
         inkscape:connector-curvature="0"
         style="fill:#fcdf00"
         d="m 157.215,306.964 c -3.614,-2.261 -7.233,-3.402 -10.88,-3.422 -3.649,-0.02 -7.279,1.082 -10.917,3.304 -3.517,2.151 -6.777,5.21 -9.802,9.152 -5.597,7.291 -9.388,15.927 -11.35,25.908 -0.122,0.596 -0.221,1.215 -0.343,1.835 -0.147,0.834 -0.272,1.691 -0.395,2.549 -0.993,7.125 -0.647,13.685 1.062,19.68 0.022,0.143 0.07,0.286 0.117,0.405 0.141,0.479 0.281,0.957 0.445,1.411 1.924,5.731 4.978,10.09 9.134,13.069 3.897,2.812 8.227,4.6 12.969,5.412 2.357,0.418 4.336,0.523 5.935,0.367 5.555,0.648 11.088,0.107 16.583,-1.651 2.749,-0.869 4.947,-1.811 6.572,-2.828 4.361,-3.626 7.654,-8.234 9.877,-13.825 0.17,-0.404 0.314,-0.834 0.459,-1.238 0.072,-0.166 0.122,-0.357 0.194,-0.524 2.109,-6.212 2.693,-12.838 1.801,-19.925 -0.093,-0.693 -0.183,-1.361 -0.276,-2.053 -0.116,-0.621 -0.207,-1.241 -0.323,-1.837 -1.829,-10.194 -5.525,-19.037 -11.137,-26.532 -2.983,-3.974 -6.234,-7.068 -9.725,-9.257"
         id="path603" />
      <path
         inkscape:connector-curvature="0"
         style="fill:#fcdf00"
         d="m 112.064,343.636 c -2.148,0.155 -4.013,1.242 -5.575,3.26 -1.705,2.208 -2.555,4.874 -2.571,7.999 -0.016,3.125 0.803,5.799 2.484,8.026 1.682,2.226 3.702,3.334 6.086,3.348 0.072,10e-4 0.168,10e-4 0.263,0.002 -1.731,-6.163 -2.076,-12.913 -1.059,-20.229 0.101,-0.811 0.225,-1.621 0.372,-2.406"
         id="path605" />
      <path
         inkscape:connector-curvature="0"
         style="fill:#ffffff"
         d="m 148.351,340.683 c -0.016,2.934 0.948,5.467 2.917,7.576 1.969,2.085 4.371,3.147 7.16,3.163 2.792,0.015 5.205,-1.02 7.196,-3.084 1.989,-2.088 2.981,-4.611 2.999,-7.544 0.013,-2.958 -0.949,-5.49 -2.917,-7.575 -1.968,-2.085 -4.37,-3.147 -7.163,-3.162 -2.789,-0.015 -5.204,1.021 -7.193,3.084 -1.99,2.063 -2.984,4.586 -2.999,7.542"
         id="path607" />
      <path
         inkscape:connector-curvature="0"
         style="fill:#ffffff"
         d="m 141.263,333.086 c -1.97,-2.085 -4.372,-3.148 -7.163,-3.164 -2.789,-0.015 -5.205,1.022 -7.195,3.086 -1.991,2.063 -3.005,4.585 -3.021,7.542 -0.016,2.934 0.972,5.467 2.941,7.577 1.967,2.085 4.369,3.147 7.159,3.162 2.791,0.015 5.205,-1.021 7.195,-3.085 1.99,-2.087 2.982,-4.61 2.998,-7.544 0.016,-2.956 -0.947,-5.49 -2.914,-7.574"
         id="path609" />
      <path
         inkscape:connector-curvature="0"
         style="fill:#d8272a"
         d="m 126.455,370.498 -3.639,-1.642 c 2.292,6.177 7.015,10.34 14.168,12.479 3.584,1.081 6.943,1.54 10.081,1.366 6.93,-0.343 12.749,-2.71 17.448,-7.108 2.36,-2.193 4.029,-4.354 4.995,-6.484 -10.852,4.725 -21.889,6.107 -33.123,4.138 -3.514,-0.628 -6.823,-1.539 -9.93,-2.749"
         id="path611" />
      <path
         inkscape:connector-curvature="0"
         style="fill:#e27c9f"
         d="m 153.399,373.648 c -4.725,0.619 -9.482,0.629 -14.273,0.019 0.411,1.516 0.904,2.651 1.459,3.43 1.186,1.627 3.053,2.45 5.604,2.45 2.612,0.003 4.5,-0.798 5.676,-2.39 0.588,-0.782 1.096,-1.949 1.534,-3.509"
         id="path613" />
      <path
         inkscape:connector-curvature="0"
         style="fill:none;stroke:#282525;stroke-width:4.29239988;stroke-linecap:round;stroke-miterlimit:10"
         d="m 125.522,324.366 c 13.22,-3.994 26.885,-3.92 41.014,0.223"
         id="path615" />
      <path
         inkscape:connector-curvature="0"
         style="fill:#1c1616"
         d="m 160.998,338.247 c -0.984,-1.018 -2.15,-1.537 -3.522,-1.545 -1.372,-0.007 -2.542,0.499 -3.537,1.507 -0.973,1.033 -1.466,2.27 -1.475,3.712 -0.007,1.442 0.474,2.686 1.435,3.704 0.983,1.043 2.148,1.562 3.521,1.569 1.372,0.008 2.542,-0.499 3.538,-1.53 0.972,-1.009 1.467,-2.247 1.474,-3.689 0.007,-1.442 -0.475,-2.685 -1.434,-3.728"
         id="path617" />
      <path
         inkscape:connector-curvature="0"
         style="fill:#1c1616"
         d="m 137.669,338.1 c -0.985,-1.019 -2.149,-1.539 -3.521,-1.545 -1.371,-0.008 -2.542,0.499 -3.538,1.506 -0.971,1.033 -1.467,2.271 -1.474,3.713 -0.008,1.442 0.474,2.685 1.434,3.704 0.983,1.042 2.15,1.561 3.521,1.569 1.372,0.008 2.542,-0.499 3.539,-1.531 0.971,-1.007 1.466,-2.246 1.475,-3.688 0.006,-1.443 -0.475,-2.685 -1.436,-3.728"
         id="path619" />
      <path
         inkscape:connector-curvature="0"
         style="fill:#191515"
         d="m 143.017,344.364 c 1.59,-2.949 2.275,-6.093 2.054,-9.409 -0.021,-0.501 -0.375,-0.909 -1.018,-1.199 l -0.953,-0.291 -23.895,-0.106 c -0.405,-0.025 -0.834,0.021 -1.241,0.09 -0.834,0.162 -1.218,0.517 -1.196,1.017 0.287,4.175 0.96,7.422 2.045,9.694 2.193,4.614 6.091,6.924 11.647,6.979 5.938,0.058 10.123,-2.21 12.557,-6.775"
         id="path621" />
      <path
         inkscape:connector-curvature="0"
         style="fill:none;stroke:#1c1616;stroke-width:3.09990001;stroke-miterlimit:10"
         d="m 145.07,334.956 c -0.021,-0.501 -0.375,-0.909 -1.018,-1.199 l -0.953,-0.291 -23.894,-0.106 c -0.406,-0.026 -0.835,0.02 -1.241,0.089 -0.834,0.163 -1.218,0.518 -1.197,1.018 0.287,4.176 0.96,7.422 2.045,9.693 2.193,4.615 6.092,6.925 11.647,6.979 5.938,0.055 10.124,-2.211 12.557,-6.776 1.59,-2.947 2.276,-6.092 2.054,-9.407 z"
         id="path623" />
      <path
         inkscape:connector-curvature="0"
         style="fill:#191515"
         d="m 176.245,334.003 -0.952,-0.292 -23.896,-0.105 c -0.406,-0.026 -0.833,0.019 -1.239,0.089 -0.836,0.162 -1.219,0.518 -1.199,1.019 0.289,4.174 0.961,7.421 2.046,9.692 2.194,4.615 6.092,6.925 11.647,6.979 5.938,0.056 10.122,-2.211 12.558,-6.775 1.588,-2.95 2.273,-6.094 2.052,-9.409 -0.02,-0.501 -0.376,-0.908 -1.017,-1.198"
         id="path625" />
      <path
         inkscape:connector-curvature="0"
         style="fill:none;stroke:#1c1616;stroke-width:3.09990001;stroke-miterlimit:10"
         d="m 175.292,333.711 -23.895,-0.105 c -0.405,-0.026 -0.833,0.02 -1.239,0.089 -0.837,0.162 -1.22,0.518 -1.199,1.019 0.288,4.174 0.961,7.421 2.045,9.694 2.194,4.614 6.093,6.924 11.648,6.978 5.938,0.056 10.122,-2.211 12.558,-6.776 1.589,-2.949 2.273,-6.093 2.052,-9.408 -0.021,-0.501 -0.376,-0.908 -1.019,-1.198 l -0.951,-0.293 z"
         id="path627" />
      <path
         inkscape:connector-curvature="0"
         style="fill:none;stroke:#1c1616;stroke-width:3.81550002;stroke-linecap:round;stroke-linejoin:round;stroke-miterlimit:10"
         d="m 148.588,337.384 -2.266,-0.013 m -38.18,4.54 8.13,-4.012 m 67.703,4.421 -6.656,-3.971"
         id="path629" />
      <path
         inkscape:connector-curvature="0"
         style="fill:#515151"
         d="m 173.553,337.828 c 0.175,-1.477 0.108,-2.217 -0.155,-2.242 -1.549,-0.08 -3.122,-0.089 -4.768,-0.05 l -1.981,0.084 0.426,0.552 c 0.333,0.502 0.591,1.147 0.801,1.888 0.631,2.341 0.545,5.32 -0.263,8.941 2.32,-1.203 4.022,-3.079 5.086,-5.576 0.387,-0.905 0.678,-2.096 0.854,-3.597"
         id="path631" />
      <path
         inkscape:connector-curvature="0"
         style="fill:#515151"
         d="m 140.645,337.817 c 0.173,-1.478 0.106,-2.218 -0.155,-2.242 -1.55,-0.081 -3.123,-0.113 -4.769,-0.074 l -1.98,0.084 0.427,0.551 c 0.331,0.526 0.589,1.148 0.8,1.888 0.632,2.366 0.542,5.346 -0.263,8.966 2.319,-1.228 4.022,-3.079 5.084,-5.577 0.387,-0.903 0.679,-2.095 0.856,-3.596"
         id="path633" />
      <path
         inkscape:connector-curvature="0"
         style="fill:#e48300"
         d="m 155.241,368.855 c 2.316,-3.027 3.493,-6.683 3.518,-10.976 0.023,-4.291 -1.114,-7.959 -3.398,-10.986 -2.309,-3.054 -5.09,-4.583 -8.37,-4.601 -3.28,-0.018 -6.078,1.481 -8.394,4.509 -2.319,3.003 -3.494,6.659 -3.518,10.951 -0.024,4.291 1.114,7.959 3.398,11.013 2.286,3.028 5.067,4.557 8.346,4.574 3.279,0.02 6.077,-1.48 8.418,-4.484"
         id="path635" />
      <path
         inkscape:connector-curvature="0"
         style="fill:#282525"
         d="m 133.66,284.916 c -0.742,-1.542 -1.142,-2.582 -1.223,-3.107 -0.034,-0.143 -0.215,0.191 -0.554,0.999 -0.385,0.904 -0.653,1.868 -0.803,2.904 -0.447,3.205 0.432,6.107 2.624,8.695 0.189,0.229 0.462,0.587 0.805,1.078 -3.466,-0.592 -6.106,-1.954 -7.942,-4.097 -0.129,-0.227 -0.227,-10e-4 -0.314,0.666 -0.063,0.715 -0.042,1.538 0.083,2.48 0.355,2.769 1.333,4.873 2.947,6.313 l 0.404,0.334 c -1.337,0.185 -2.684,0.189 -4.054,0.027 -0.869,-0.089 -1.739,-0.284 -2.597,-0.611 -0.631,-0.242 -1.486,-0.628 -2.545,-1.158 -0.13,-0.097 0.591,0.969 2.153,3.184 1.61,2.261 2.781,3.723 3.529,4.382 1.852,1.643 3.659,2.631 5.422,2.962 3.764,0.7 7.26,0.313 10.499,-1.159 0.725,0.493 1.558,0.903 2.473,1.23 0.872,0.303 1.702,0.486 2.478,0.538 1.014,0.065 1.968,-0.026 2.839,-0.295 1.005,-0.293 1.806,-0.789 2.393,-1.489 0.771,0.66 1.676,1.142 2.687,1.469 1,0.304 2.014,0.416 3.051,0.326 1.015,-0.078 2.017,-0.276 3.008,-0.604 0.668,-0.199 1.624,-0.576 2.868,-1.105 1.136,-0.471 3.069,-0.914 5.802,-1.328 2.338,-0.333 3.484,-0.518 3.438,-0.554 -0.904,-0.78 -1.938,-1.31 -3.116,-1.567 -0.965,-0.232 -2.156,-0.31 -3.577,-0.234 -0.62,0.009 -1.275,0.101 -1.958,0.253 0.67,-0.379 1.281,-0.816 1.843,-1.326 1.211,-1.09 2.172,-2.409 2.861,-3.967 0.384,-0.844 0.906,-2.392 1.55,-4.666 -0.946,0.818 -2.024,1.707 -3.234,2.654 -2.441,1.907 -4.284,2.994 -5.526,3.261 -0.346,0.082 -0.918,0.162 -1.694,0.253 0.918,-2.129 1.641,-3.592 2.17,-4.4 0.578,-0.855 1.8,-2.136 3.67,-3.843 l 2.517,-2.275 c -0.869,-0.47 -1.952,-0.679 -3.241,-0.638 -1.157,0.041 -2.398,0.285 -3.7,0.743 0.578,-1.034 0.791,-2.654 0.623,-4.885 -0.168,-2.243 -0.305,-3.233 -0.438,-2.96 -0.518,1.106 -1.228,2.152 -2.139,3.136 -0.912,0.961 -1.915,1.767 -3.017,2.393 -0.801,0.472 -1.853,0.932 -3.155,1.39 0.006,-1.419 0.157,-2.659 0.449,-3.719 0.62,-2.154 1.585,-4.271 2.921,-6.351 0.324,-0.392 0.575,-0.785 0.769,-1.164 0.061,-0.107 -0.681,0.127 -2.22,0.703 -1.59,0.6 -2.797,1.117 -3.611,1.554 -1.853,0.991 -3.194,1.986 -4.044,2.983 -0.337,0.439 -0.637,0.867 -0.891,1.259 -0.484,-0.587 -1.053,-1.401 -1.703,-2.442 -0.852,-1.375 -1.441,-2.905 -1.764,-4.612 -0.148,-1.384 -0.24,-2.064 -0.274,-2.053 -0.849,0.282 -1.663,0.861 -2.443,1.728 -1.583,1.721 -2.312,4.126 -2.185,7.214 0.038,1.527 0.232,3.065 0.594,4.605 -1.202,-0.388 -2.154,-0.81 -2.832,-1.279 -0.858,-0.611 -1.745,-1.879 -2.676,-3.828"
         id="path637" />
      <path
         inkscape:connector-curvature="0"
         style="fill:#fcdf00"
         d="m 191.131,320.098 c -0.024,0 -0.071,0.024 -0.096,0.071 -0.023,0.024 -0.048,0.048 -0.096,0.048 -1.504,0 -2.532,0.812 -3.104,2.436 -0.312,0.836 -0.455,1.84 -0.455,2.962 v 0.526 c 0,0.143 0.025,0.262 0.048,0.333 0,0.024 0,0.024 0.024,0.048 -0.024,0.31 -0.024,0.645 0,0.979 0,0.502 0.024,1.004 0.048,1.529 v 0.048 0.119 l 0.238,3.44 v 0.048 l 0.647,9.363 c 0.022,0.072 0.022,0.119 0.022,0.191 l 0.262,4.084 v 0.024 l 0.623,9.147 7.069,-0.644 C 195,344.985 194.88,336.361 196.005,328.956 v 0.048 c 0.023,-0.31 0.047,-0.598 0.118,-0.859 0,-0.023 0,-0.072 0.024,-0.096 0.047,-0.191 0.096,-0.382 0.143,-0.55 0.358,-1.218 0.596,-2.316 0.716,-3.296 0.098,-0.548 0.144,-1.194 0.144,-1.982 0.025,-0.405 0.025,-0.717 0.025,-0.907 -0.025,-0.359 -0.07,-0.645 -0.191,-0.908 -0.072,-0.143 -0.143,-0.287 -0.24,-0.406 -0.07,-0.119 -0.167,-0.262 -0.333,-0.429 -0.024,-0.025 -0.072,-0.073 -0.096,-0.096 -0.024,-0.024 -0.024,-0.024 -0.048,-0.048 -0.023,-0.024 -0.023,-0.024 -0.048,-0.024 -0.024,-0.024 -0.024,-0.048 -0.047,-0.048 -0.217,-0.143 -0.479,-0.262 -0.813,-0.381 -0.022,-0.025 -0.072,-0.025 -0.12,-0.049 -0.045,-0.023 -0.095,-0.023 -0.166,-0.047 -0.623,-0.12 -1.147,-0.024 -1.601,0.287 0.048,0.024 0.096,0.071 0.145,0.095 v 0.048 c 0.021,0.024 0.045,0.024 0.07,0.047 0.048,0.048 0.286,0.335 0.718,0.884 0.118,0.143 0.237,0.431 0.357,0.836 0.024,0.071 0.024,0.144 0.048,0.214 0.071,0.167 0.12,0.312 0.142,0.431 0.024,0.119 0.024,0.43 0.024,0.957 v 0.19 c 0,0.024 0,0.071 0.024,0.096 -0.024,0.239 -0.048,0.5 -0.071,0.765 -0.024,0 -0.024,0.023 -0.024,0.047 -0.096,0.789 -0.311,1.672 -0.62,2.652 -0.073,0.263 -0.168,0.549 -0.241,0.812 v 0.023 c -0.022,0.071 -0.045,0.167 -0.072,0.239 -0.405,1.84 -0.81,3.87 -1.217,6.139 0.025,-0.644 0.047,-1.361 0.047,-2.149 0.024,-0.382 0.048,-0.74 0.072,-1.099 l 0.262,-1.337 c 0.098,-0.884 0.192,-2.175 0.263,-3.87 v -1.1 c 0.145,-0.262 0.217,-0.572 0.217,-0.882 0,-0.598 -0.12,-1.147 -0.336,-1.672 -0.406,-0.955 -1.123,-1.433 -2.149,-1.433"
         id="path639" />
      <path
         inkscape:connector-curvature="0"
         style="fill:#e06a06"
         d="m 196.171,317.183 c -0.286,-0.07 -0.621,-0.143 -1.027,-0.214 -0.263,-0.047 -0.478,-0.072 -0.645,-0.072 -0.263,-0.024 -0.478,-0.024 -0.623,0 -0.977,0.12 -1.79,0.669 -2.434,1.625 0.74,0.023 1.432,0.239 2.03,0.645 0.454,-0.31 0.978,-0.406 1.6,-0.287 0.071,0.024 0.12,0.024 0.166,0.047 0.048,0.024 0.097,0.024 0.12,0.048 0.334,0.12 0.596,0.239 0.812,0.381 0.023,0 0.023,0.025 0.048,0.049 0.023,0 0.023,0 0.047,0.023 0.025,0.023 0.025,0.023 0.048,0.049 0.024,0.022 0.072,0.07 0.096,0.095 0.166,0.166 0.263,0.31 0.333,0.43 0.097,0.119 0.167,0.262 0.24,0.406 0.12,0.263 0.166,0.55 0.19,0.909 0,0.19 0,0.501 -0.024,0.906 0,0.79 -0.046,1.435 -0.143,1.983 -0.121,0.98 -0.358,2.079 -0.716,3.296 -0.048,0.168 -0.096,0.359 -0.143,0.55 -0.024,0.023 -0.024,0.072 -0.024,0.096 -0.071,0.262 -0.095,0.549 -0.119,0.859 v -0.047 c -1.124,7.405 -1.004,16.028 0.357,25.893 l -7.07,0.646 -0.622,-9.149 v -0.024 l -0.263,-4.084 c 0,-0.071 0,-0.12 -0.023,-0.191 l -0.646,-9.363 v -0.048 l -0.239,-3.438 v -0.121 -0.047 c -0.024,-0.525 -0.047,-1.027 -0.047,-1.529 -0.024,-0.334 -0.024,-0.669 0,-0.979 -0.024,-0.024 -0.024,-0.024 -0.024,-0.048 l -0.097,0.453 -1.695,-0.907 0.144,-0.956 c 0.143,-1.027 0.333,-1.935 0.595,-2.675 -0.071,0.167 -0.118,0.312 -0.164,0.479 l -0.622,1.839 0.021,-0.144 h -0.07 v -0.024 c -0.096,-0.025 -0.191,-0.047 -0.286,-0.071 -0.693,-0.144 -1.53,-0.215 -2.507,-0.215 -2.008,-0.025 -3.848,0.932 -5.496,2.866 -1.479,1.696 -2.196,3.296 -2.173,4.802 0,1.361 0.43,2.531 1.265,3.486 0.503,0.574 1.099,0.98 1.792,1.242 -0.787,0.263 -1.432,0.836 -1.981,1.697 -0.646,1.027 -0.979,2.293 -0.979,3.75 0,2.175 0.738,3.941 2.244,5.304 1.48,1.361 3.512,2.053 6.092,2.053 1.218,0 2.269,-0.287 3.175,-0.859 0.074,-0.048 0.144,-0.096 0.217,-0.143 l 0.525,8.168 c 0.024,0.167 0.071,0.311 0.167,0.477 0.097,0.121 0.217,0.24 0.385,0.312 0.166,0.072 0.332,0.12 0.5,0.097 l 9.053,-0.837 c 0.167,-0.023 0.335,-0.071 0.479,-0.19 0.143,-0.096 0.237,-0.215 0.31,-0.383 0.071,-0.167 0.096,-0.358 0.071,-0.525 -1.482,-10.057 -1.649,-18.823 -0.502,-26.323 v -0.024 c 0.023,-0.215 0.048,-0.429 0.096,-0.621 v -0.048 c 0,-0.022 0,-0.047 0.025,-0.047 0.093,-0.358 0.188,-0.692 0.261,-1.002 1.002,-3.775 1.05,-6.546 0.167,-8.29 -0.097,-0.263 -0.192,-0.478 -0.262,-0.646 -0.121,-0.214 -0.311,-0.405 -0.527,-0.572 -0.311,-0.216 -0.548,-0.383 -0.766,-0.55 -0.21,-0.101 -0.449,-0.196 -0.712,-0.268 m -11.109,9.221 c 0.074,0.024 0.121,0.024 0.193,0.047 0.07,0.024 0.12,0.049 0.19,0.072 l -0.046,0.288 h 0.143 c -0.023,0.214 -0.023,0.454 0,0.691 0,0.526 0.025,1.076 0.049,1.648 v 0.121 0.072 l 0.19,2.555 c -1.004,0.215 -2.079,0.789 -3.226,1.721 -1.099,0.883 -2.006,1.36 -2.748,1.409 -0.834,0 -1.504,-0.286 -2.029,-0.883 -0.527,-0.622 -0.79,-1.362 -0.79,-2.222 0.024,-1.076 0.598,-2.269 1.722,-3.559 1.217,-1.434 2.578,-2.174 4.037,-2.198 0.931,-10e-4 1.695,0.071 2.315,0.238 m -1.313,8.695 c 0.765,-0.622 1.48,-1.027 2.15,-1.242 l 0.525,7.596 h -0.213 c -0.982,-0.072 -1.864,-0.741 -2.653,-2.031 -0.835,-1.313 -1.696,-2.197 -2.628,-2.628 0.836,-0.261 1.768,-0.835 2.844,-1.695 h -0.025 z m -5.971,4.251 v 0.024 c 0.405,-0.646 0.932,-0.979 1.577,-1.003 0.906,0.071 1.767,0.74 2.579,2.053 1.242,2.031 2.674,3.011 4.277,2.938 h 0.332 l 0.192,2.675 c -0.406,0.406 -0.764,0.718 -1.099,0.956 h 0.025 c -0.6,0.358 -1.314,0.55 -2.15,0.55 -2.031,0 -3.632,-0.526 -4.801,-1.553 -1.075,-0.98 -1.625,-2.293 -1.625,-3.895 0,-1.073 0.238,-2.004 0.693,-2.745"
         id="path641" />
      <path
         inkscape:connector-curvature="0"
         style="fill:#fcdf00"
         d="m 185.062,326.404 c -0.62,-0.167 -1.384,-0.24 -2.315,-0.24 -1.458,0.025 -2.82,0.765 -4.037,2.199 -1.124,1.29 -1.697,2.484 -1.722,3.558 0,0.86 0.263,1.601 0.79,2.223 0.526,0.597 1.194,0.883 2.029,0.883 0.742,-0.047 1.648,-0.525 2.748,-1.409 1.146,-0.932 2.221,-1.504 3.226,-1.72 l -0.191,-2.556 v -0.071 -0.121 c -0.024,-0.572 -0.049,-1.122 -0.049,-1.648 -0.024,-0.239 -0.024,-0.477 0,-0.691 h -0.142 l 0.045,-0.288 c -0.07,-0.024 -0.12,-0.048 -0.19,-0.072 -0.072,-0.023 -0.119,-0.023 -0.192,-0.047"
         id="path643" />
      <path
         inkscape:connector-curvature="0"
         style="fill:#fcdf00"
         d="m 177.778,339.374 v -0.024 c -0.455,0.741 -0.693,1.672 -0.693,2.747 0,1.601 0.551,2.915 1.625,3.894 1.169,1.028 2.77,1.552 4.801,1.552 0.836,0 1.551,-0.19 2.15,-0.549 h -0.025 c 0.335,-0.239 0.693,-0.549 1.099,-0.955 l -0.192,-2.676 h -0.332 c -1.603,0.072 -3.035,-0.907 -4.277,-2.938 -0.812,-1.313 -1.673,-1.982 -2.579,-2.053 -0.645,0.023 -1.171,0.357 -1.577,1.002"
         id="path645" />
      <path
         inkscape:connector-curvature="0"
         style="fill:#e06a06"
         d="m 193.616,319.309 c -0.264,-0.214 -0.503,-0.286 -0.766,-0.263 h -0.024 c -0.024,-0.023 -0.024,-0.023 -0.024,0 -0.165,0.025 -0.309,0.073 -0.454,0.144 0.215,0.096 0.526,0.263 0.931,0.502 0.193,0.167 0.359,0.358 0.526,0.525 0.431,0.598 0.668,1.41 0.742,2.389 -0.073,0.407 -0.216,1.003 -0.384,1.743 l 0.167,0.144 c 0.023,-0.048 0.049,-0.12 0.073,-0.191 -0.049,0.335 -0.119,0.717 -0.217,1.147 -0.07,0.31 -0.119,0.573 -0.166,0.787 -0.168,0.55 -0.311,0.98 -0.406,1.291 l -0.048,0.023 -0.095,-0.167 -0.336,1.672 -0.262,1.338 c -0.024,0.358 -0.048,0.717 -0.072,1.098 0,0.79 -0.021,1.505 -0.047,2.15 0.407,-2.269 0.813,-4.299 1.218,-6.139 0.025,-0.071 0.049,-0.167 0.071,-0.238 l -0.045,0.023 c 0.094,-0.288 0.189,-0.573 0.287,-0.86 0.308,-0.979 0.525,-1.862 0.62,-2.65 0,-0.025 0,-0.048 0.025,-0.048 0.022,-0.264 0.045,-0.526 0.071,-0.764 -0.025,-0.025 -0.025,-0.072 -0.025,-0.095 v -0.192 c 0,-0.525 0,-0.836 -0.023,-0.954 -0.022,-0.12 -0.071,-0.263 -0.143,-0.432 -0.024,-0.071 -0.024,-0.143 -0.048,-0.214 -0.12,-0.406 -0.239,-0.693 -0.358,-0.836 -0.431,-0.549 -0.67,-0.835 -0.717,-0.884 -0.025,-0.025 -0.049,-0.025 -0.071,-0.049"
         id="path647" />
      <path
         inkscape:connector-curvature="0"
         style="fill:#e06a06"
         d="m 188.909,321.531 c 0.454,-0.646 1.122,-1.028 1.982,-1.1 0.788,-0.071 1.434,0.144 1.958,0.693 0.024,0.024 0.05,0.071 0.073,0.095 0.213,0.286 0.333,1.076 0.357,2.389 0,1.6 -0.167,3.989 -0.478,7.119 l 0.67,-3.344 0.096,0.168 0.477,-0.288 v -0.023 c 0.36,-1.195 0.622,-2.246 0.789,-3.153 0.36,-2.077 0.191,-3.463 -0.478,-4.132 -0.167,-0.19 -0.333,-0.359 -0.501,-0.501 -0.12,-0.12 -0.262,-0.215 -0.382,-0.287 -0.598,-0.405 -1.29,-0.622 -2.03,-0.645 -0.24,-0.024 -0.479,-0.024 -0.74,0 -1.434,0.143 -2.556,0.764 -3.346,1.887 -0.381,0.502 -0.714,1.147 -0.979,1.984 -0.263,0.74 -0.453,1.647 -0.595,2.674 l -0.145,0.957 1.695,0.906 0.336,-1.577 c 0.144,-0.93 0.333,-1.719 0.549,-2.388 0.19,-0.598 0.429,-1.076 0.692,-1.434"
         id="path649" />
      <path
         inkscape:connector-curvature="0"
         style="fill:#003c90"
         d="m 181.361,355.951 c 1.075,1.936 1.934,3.774 2.58,5.519 1.121,3.129 1.48,5.947 1.121,8.407 -0.406,2.174 -1.432,4.038 -3.033,5.639 v -0.023 c -1.768,1.695 -4.204,3.104 -7.333,4.18 v 1.981 c 3.702,-1.218 6.546,-2.818 8.576,-4.777 1.933,-1.911 3.151,-4.156 3.606,-6.735 0,-0.024 0,-0.024 0.024,-0.048 0.452,-2.652 0.096,-5.686 -1.076,-9.077 -0.047,-0.097 -0.096,-0.191 -0.142,-0.311 -0.525,-1.458 -1.196,-2.962 -2.007,-4.516 l 16.913,-2.651 c 1.025,2.365 1.861,4.658 2.482,6.88 0.025,0.095 0.072,0.19 0.094,0.286 1.268,4.587 1.649,8.767 1.171,12.564 v 0.096 c -0.883,6.115 -4.061,11.156 -9.554,15.098 -0.048,0.049 -0.096,0.094 -0.144,0.119 -4.229,2.939 -9.723,5.277 -16.482,7.021 -0.024,0 -0.072,0 -0.096,0.023 -1.076,0.264 -2.197,0.527 -3.368,0.789 v 1.934 c 1.314,-0.26 2.579,-0.57 3.797,-0.883 7.143,-1.84 12.923,-4.322 17.318,-7.451 6.02,-4.324 9.484,-9.818 10.393,-16.508 0.549,-4.036 0.119,-8.526 -1.243,-13.424 -0.692,-2.58 -1.672,-5.255 -2.89,-8.05 -0.096,-0.192 -0.24,-0.335 -0.407,-0.453 -0.167,-0.096 -0.358,-0.121 -0.573,-0.096 l -18.99,3.009 c -0.215,0.024 -0.383,0.119 -0.526,0.286 -0.166,0.167 -0.286,0.359 -0.309,0.573 -0.02,0.217 0.004,0.409 0.098,0.599"
         id="path651" />
      <path
         inkscape:connector-curvature="0"
         style="fill:#df6513"
         d="m 183.678,356.189 c 0.811,1.554 1.482,3.058 2.007,4.516 0.045,0.119 0.095,0.214 0.143,0.311 l 17.246,-0.597 c -0.621,-2.223 -1.457,-4.516 -2.484,-6.88 l -16.912,2.65 z"
         id="path653" />
      <path
         inkscape:connector-curvature="0"
         style="fill:#9ac843"
         d="m 203.168,360.705 c -0.023,-0.097 -0.07,-0.191 -0.095,-0.286 l -17.245,0.597 c 1.171,3.392 1.528,6.426 1.075,9.077 -0.024,0.023 -0.024,0.023 -0.024,0.048 l 17.46,3.129 c 0.478,-3.798 0.097,-7.978 -1.171,-12.565"
         id="path655" />
      <path
         inkscape:connector-curvature="0"
         style="fill:#0e5cab"
         d="m 204.339,373.27 -17.459,-3.129 c -0.455,2.579 -1.673,4.824 -3.607,6.735 l 11.37,11.706 c 0.048,-0.025 0.096,-0.07 0.144,-0.119 5.494,-3.942 8.67,-8.983 9.553,-15.098 v -0.095 z"
         id="path657" />
      <path
         inkscape:connector-curvature="0"
         style="fill:#9ac843"
         d="m 174.697,381.653 v 1.004 l 3.367,12.969 c 0.024,-0.023 0.072,-0.023 0.096,-0.023 6.759,-1.744 12.252,-4.082 16.482,-7.021 l -11.369,-11.706 c -2.031,1.959 -4.874,3.56 -8.576,4.777"
         id="path659" />
      <path
         inkscape:connector-curvature="0"
         style="fill:#df6513"
         d="m 174.697,396.416 c 1.171,-0.262 2.292,-0.525 3.367,-0.789 l -3.367,-12.969 v 13.758 z"
         id="path661" />
      <polygon
         style="fill:#fcfdfd"
         points="123.391,334.044 134.045,343.003 132.9,340.822 123.898,333.23 129.654,323.479 130.218,319.948 123.167,332.63 112.736,323.847 110.044,322.405 122.683,333.432 116.683,343.175 115.936,346.142 "
         id="polygon663" />
      <polygon
         style="fill:#fcfdfd"
         points="123.186,333.385 125.065,341.015 126.164,342.798 123.813,333.326 133.311,332.415 131.7,331.895 123.65,332.699 121.646,325.186 120.167,323.228 122.991,332.747 113.693,333.636 111.727,334.274 "
         id="polygon665" />
    </g>
  </g>
</svg>
