<?xml version="1.0" encoding="UTF-8" standalone="no"?>
<!-- Created with Inkscape (http://www.inkscape.org/) -->

<svg
   xmlns:dc="http://purl.org/dc/elements/1.1/"
   xmlns:cc="http://creativecommons.org/ns#"
   xmlns:rdf="http://www.w3.org/1999/02/22-rdf-syntax-ns#"
   xmlns:svg="http://www.w3.org/2000/svg"
   xmlns="http://www.w3.org/2000/svg"
   xmlns:sodipodi="http://sodipodi.sourceforge.net/DTD/sodipodi-0.dtd"
   xmlns:inkscape="http://www.inkscape.org/namespaces/inkscape"
   width="139.35852"
   height="213.68394"
   id="svg5696"
   version="1.1"
   inkscape:version="0.48.4 r9939"
   sodipodi:docname="bert4.svg">
  <defs
     id="defs5698" />
  <sodipodi:namedview
     id="base"
     pagecolor="#ffffff"
     bordercolor="#666666"
     borderopacity="1.0"
     inkscape:pageopacity="0.0"
     inkscape:pageshadow="2"
     inkscape:zoom="0.77472527"
     inkscape:cx="103.50835"
     inkscape:cy="42.044332"
     inkscape:current-layer="layer1"
     inkscape:document-units="px"
     showgrid="false"
     inkscape:window-width="942"
     inkscape:window-height="591"
     inkscape:window-x="412"
     inkscape:window-y="91"
     inkscape:window-maximized="0"
     fit-margin-top="0"
     fit-margin-left="0"
     fit-margin-right="0"
     fit-margin-bottom="0" />
  <metadata
     id="metadata5701">
    <rdf:RDF>
      <cc:Work
         rdf:about="">
        <dc:format>image/svg+xml</dc:format>
        <dc:type
           rdf:resource="http://purl.org/dc/dcmitype/StillImage" />
        <dc:title></dc:title>
      </cc:Work>
    </rdf:RDF>
  </metadata>
  <g
     id="layer1"
     inkscape:label="Layer 1"
     inkscape:groupmode="layer"
     transform="translate(-128.12142,86.533251)">
    <g
       transform="translate(-673.02514,-123.55052)"
       id="g7">
      <path
         inkscape:connector-curvature="0"
         style="fill:#0052a4"
         d="m 864.645,244.549 c 33.652,12.855 36.525,-7.562 17.082,-10.123 0.017,-0.011 0.034,-0.026 0.053,-0.037 -2.627,-0.351 -5.687,-0.438 -9.189,-0.167 -2.024,-0.037 -4.6,0.183 -6.797,0.083 -0.743,4.477 -1.299,7.07 -1.476,8.535 l 10e-4,0.002 c -0.136,1.097 -0.056,1.563 0.326,1.707"
         id="path9" />
      <path
         inkscape:connector-curvature="0"
         style="fill:none;stroke:#0052a4;stroke-width:3.8440001;stroke-linecap:round;stroke-linejoin:round"
         d="m 864.645,244.549 c 33.652,12.855 36.525,-7.562 17.082,-10.123 0.017,-0.011 0.034,-0.026 0.053,-0.037 -2.627,-0.351 -5.687,-0.438 -9.189,-0.167 -2.024,-0.037 -4.6,0.183 -6.797,0.083 -0.743,4.477 -1.299,7.07 -1.476,8.535 l 10e-4,0.002 c -0.136,1.097 -0.056,1.563 0.326,1.707 z"
         id="path11" />
      <path
         inkscape:connector-curvature="0"
         style="fill:#ffffff"
         d="m 864.317,242.863 c 0.171,-1.415 0.693,-3.89 1.401,-8.095 2.01,1.23 4.904,4.287 3.511,11.413 -1.46,-0.466 -2.986,-0.999 -4.585,-1.611 -0.381,-0.145 -0.462,-0.611 -0.326,-1.705 l -10e-4,-0.002 z"
         id="path13" />
      <path
         inkscape:connector-curvature="0"
         style="fill:#ffffff"
         d="m 887.146,235.803 c 10.541,4.164 9.01,14.792 -7.771,12.714 0.977,-7.772 4.553,-11.207 7.771,-12.714"
         id="path15" />
      <path
         inkscape:connector-curvature="0"
         style="fill:#005eae"
         d="m 865.719,234.769 c 0.023,-0.147 0.05,-0.292 0.074,-0.441 2.197,0.099 4.773,-0.12 6.797,-0.082 3.503,-0.273 6.562,-0.185 9.189,0.165 -0.019,0.011 -0.036,0.023 -0.053,0.035 2.062,0.273 3.868,0.746 5.419,1.359 -3.218,1.507 -6.794,4.941 -7.771,12.714 -2.916,-0.362 -6.293,-1.107 -10.146,-2.337 1.394,-7.127 -1.499,-10.183 -3.509,-11.413"
         id="path17" />
      <path
         inkscape:connector-curvature="0"
         style="fill:#ffffff"
         d="m 884.105,234.577 c -2.404,-0.272 -2.414,-0.269 -3.6,0.323 -1.265,0.632 -2.797,1.454 -3.841,2.421 -0.296,0.272 -0.474,0.418 -0.103,0.705 0.261,0.202 0.623,0.36 0.941,0.432 0.356,0.081 0.598,0.025 0.863,-0.221 0.359,-0.336 4.671,-3.092 5.74,-3.66"
         id="path19" />
      <path
         inkscape:connector-curvature="0"
         style="fill:#0052a4"
         d="m 861.402,242.87 h 0.002 c -0.178,-1.466 -0.731,-4.058 -1.475,-8.536 -2.197,0.098 -4.774,-0.118 -6.797,-0.083 -3.505,-0.272 -6.563,-0.184 -9.19,0.164 0.018,0.012 0.035,0.025 0.054,0.037 -19.444,2.562 -16.571,22.98 17.081,10.126 0.381,-0.147 0.462,-0.613 0.325,-1.708"
         id="path21" />
      <path
         inkscape:connector-curvature="0"
         style="fill:none;stroke:#0052a4;stroke-width:3.8440001;stroke-linecap:round;stroke-linejoin:round"
         d="m 861.402,242.87 h 0.002 c -0.178,-1.466 -0.731,-4.058 -1.475,-8.536 -2.197,0.098 -4.774,-0.118 -6.797,-0.083 -3.505,-0.272 -6.563,-0.184 -9.19,0.164 0.018,0.012 0.035,0.025 0.054,0.037 -19.444,2.562 -16.571,22.98 17.081,10.126 0.381,-0.147 0.462,-0.613 0.325,-1.708 z"
         id="path23" />
      <path
         inkscape:connector-curvature="0"
         style="fill:#ffffff"
         d="m 861.404,242.891 c -0.171,-1.416 -0.694,-3.891 -1.401,-8.095 -2.01,1.23 -4.904,4.286 -3.512,11.413 1.46,-0.466 2.987,-1 4.585,-1.609 0.382,-0.148 0.463,-0.613 0.326,-1.708 h 0.002 z"
         id="path25" />
      <path
         inkscape:connector-curvature="0"
         style="fill:#ffffff"
         d="m 838.576,235.831 c -10.539,4.164 -9.01,14.792 7.771,12.713 -0.978,-7.772 -4.554,-11.208 -7.771,-12.713"
         id="path27" />
      <path
         inkscape:connector-curvature="0"
         style="fill:#005eae"
         d="m 860.003,234.797 c -0.025,-0.146 -0.05,-0.29 -0.073,-0.441 -2.197,0.099 -4.774,-0.119 -6.797,-0.083 -3.505,-0.271 -6.563,-0.183 -9.19,0.166 0.018,0.011 0.036,0.025 0.054,0.037 -2.061,0.272 -3.87,0.744 -5.42,1.356 3.217,1.506 6.793,4.942 7.771,12.714 2.915,-0.362 6.291,-1.106 10.145,-2.336 -1.393,-7.127 1.5,-10.184 3.51,-11.413"
         id="path29" />
      <path
         inkscape:connector-curvature="0"
         style="fill:#ffffff"
         d="m 841.616,234.605 c 2.405,-0.271 2.414,-0.269 3.599,0.321 1.265,0.632 2.797,1.454 3.841,2.422 0.297,0.273 0.474,0.419 0.104,0.706 -0.261,0.201 -0.625,0.359 -0.942,0.433 -0.356,0.08 -0.599,0.023 -0.862,-0.224 -0.357,-0.333 -4.669,-3.092 -5.74,-3.658"
         id="path31" />
      <path
         inkscape:connector-curvature="0"
         style="fill:#4ab134"
         d="m 841.89,225.881 c 0.537,3.354 0.852,5.582 0.852,5.582 0,0 10.896,2.339 17.161,0.978 -0.013,-2.065 -0.022,-3.647 -0.024,-4.935 -0.002,-2.277 0.199,-5.734 0.246,-7.032 0.308,-0.051 5.454,0.034 5.763,0.088 0.048,1.294 -0.034,4.661 -0.036,6.93 -0.002,1.288 -0.013,2.876 -0.026,4.948 6.267,1.361 17.162,-0.978 17.162,-0.978 0,0 0.393,-2.261 0.938,-5.664 0.909,-5.67 2.242,-14.516 2.889,-21.335 0.025,-0.285 0.045,-0.569 0.068,-0.854 -3.318,1.195 -11.774,3.724 -23.982,3.752 -12.208,-0.028 -20.664,-2.557 -23.98,-3.752 0.023,0.284 0.04,0.568 0.066,0.854 0.648,6.854 1.992,15.749 2.903,21.418"
         id="path33" />
      <path
         inkscape:connector-curvature="0"
         style="fill:none;stroke:#3b801c;stroke-width:3.74769998"
         d="m 841.89,225.881 c 0.537,3.354 0.852,5.582 0.852,5.582 0,0 10.896,2.339 17.161,0.978 -0.013,-2.065 -0.022,-3.647 -0.024,-4.935 -0.002,-2.277 0.199,-5.734 0.246,-7.032 0.308,-0.051 5.454,0.034 5.763,0.088 0.048,1.294 -0.034,4.661 -0.036,6.93 -0.002,1.288 -0.013,2.876 -0.026,4.948 6.267,1.361 17.162,-0.978 17.162,-0.978 0,0 0.393,-2.261 0.938,-5.664 0.909,-5.67 2.242,-14.516 2.889,-21.335 0.025,-0.285 0.045,-0.569 0.068,-0.854 -3.318,1.195 -11.774,3.724 -23.982,3.752 -12.208,-0.028 -20.664,-2.557 -23.98,-3.752 0.023,0.284 0.04,0.568 0.066,0.854 0.648,6.854 1.992,15.749 2.903,21.418"
         id="path35" />
      <path
         inkscape:connector-curvature="0"
         style="fill:#4ab134"
         d="m 841.89,225.881 c 0.537,3.354 0.852,5.582 0.852,5.582 0,0 10.896,2.339 17.161,0.978 -0.013,-2.065 -0.022,-3.647 -0.024,-4.935 -0.002,-2.277 0.199,-5.734 0.246,-7.032 0.308,-0.051 5.454,0.034 5.763,0.088 0.048,1.294 -0.034,4.661 -0.036,6.93 -0.002,1.288 -0.013,2.876 -0.026,4.948 6.267,1.361 17.162,-0.978 17.162,-0.978 0,0 0.393,-2.261 0.938,-5.664 0.909,-5.67 2.242,-14.516 2.889,-21.335 0.025,-0.285 0.045,-0.569 0.068,-0.854 -3.318,1.195 -11.774,3.724 -23.982,3.752 -12.208,-0.028 -20.664,-2.557 -23.98,-3.752 0.023,0.284 0.04,0.568 0.066,0.854 0.648,6.854 1.992,15.749 2.903,21.418"
         id="path37" />
      <path
         inkscape:connector-curvature="0"
         style="fill:#0052a4"
         d="m 886.735,205.043 c 1.645,-18.554 -0.69,-36.77 -4.808,-53.59 l -0.18,-5.596 -37.647,1.16 -0.393,5.161 c -3.976,16.488 -6.219,34.296 -4.672,52.431 5.115,1.899 22.809,7.165 47.7,0.434"
         id="path39" />
      <path
         inkscape:connector-curvature="0"
         style="fill:none;stroke:#0052a4;stroke-width:3.8440001;stroke-linecap:round;stroke-linejoin:round"
         d="m 886.735,205.043 c 1.645,-18.554 -0.69,-36.77 -4.808,-53.59 l -0.18,-5.596 -37.647,1.16 -0.393,5.161 c -3.976,16.488 -6.219,34.296 -4.672,52.431 5.115,1.899 22.809,7.165 47.7,0.434 z"
         id="path41" />
      <path
         inkscape:connector-curvature="0"
         style="fill:#ef7a00"
         d="m 864.094,129.957 c 1.812,1.222 21.264,36.951 51.063,10.988 -1.403,-1.902 -7.37,-2.034 -2.863,-7.055 3.041,-3.387 6.509,1.141 7.766,1.431 -0.188,-3.457 7.63,-14.543 11.485,-11.406 5.957,4.847 -3.931,7.983 -4.418,10.302 2.099,-0.991 11.746,-2.822 11.501,5.249 -0.166,5.599 -8.398,3.522 -8.479,2.544 0.443,0.969 -0.415,10.334 -11.058,4.083 -35.487,27.958 -56.13,-7.884 -57.015,-8.072"
         id="path43" />
      <path
         inkscape:connector-curvature="0"
         style="fill:none;stroke:#ef7a00;stroke-width:3.74769998"
         d="m 864.094,129.957 c 1.812,1.222 21.264,36.951 51.063,10.988 -1.403,-1.902 -7.37,-2.034 -2.863,-7.055 3.041,-3.387 6.509,1.141 7.766,1.431 -0.188,-3.457 7.63,-14.543 11.485,-11.406 5.957,4.847 -3.931,7.983 -4.418,10.302 2.099,-0.991 11.746,-2.822 11.501,5.249 -0.166,5.599 -8.398,3.522 -8.479,2.544 0.443,0.969 -0.415,10.334 -11.058,4.083 -35.487,27.958 -56.13,-7.884 -57.015,-8.072"
         id="path45" />
      <path
         inkscape:connector-curvature="0"
         style="fill:#ffe100"
         d="m 927.127,134.217 c 0.487,-2.319 10.375,-5.455 4.418,-10.302 -3.855,-3.138 -11.673,7.948 -11.485,11.405 -1.257,-0.289 -4.725,-4.817 -7.766,-1.43 -4.507,5.02 1.46,5.153 2.864,7.055 -1.479,1.29 -2.932,2.419 -4.36,3.417 -2.137,1.493 -4.217,2.674 -6.234,3.577 -2.425,1.085 -4.758,1.771 -6.998,2.13 -2.708,0.431 -5.275,0.386 -7.696,-0.021 -2.778,-0.468 -5.363,-1.404 -7.735,-2.635 -0.294,2.041 -0.553,4.617 -0.501,7.139 2.803,1.127 5.892,1.908 9.254,2.133 2.891,0.191 5.987,-0.034 9.277,-0.81 2.545,-0.599 5.204,-1.523 7.981,-2.847 2.288,-1.091 4.659,-2.46 7.104,-4.122 1.262,-0.858 2.54,-1.788 3.842,-2.813 10.367,6.089 11.452,-2.636 11.087,-3.988 0.558,1.005 8.288,2.783 8.45,-2.639 0.244,-8.072 -9.404,-6.24 -11.502,-5.249"
         id="path47" />
      <path
         inkscape:connector-curvature="0"
         style="fill:#0052a4"
         d="m 917.986,151.953 c 0,0 -9.196,-8.5 -10.163,-10.59 0,0 -5.594,5.334 -20.813,7.544 l -4.861,15.553 c -10e-4,0 22.206,1.427 35.837,-12.507"
         id="path49" />
      <path
         inkscape:connector-curvature="0"
         style="fill:none;stroke:#0052a4;stroke-width:3.8440001;stroke-linecap:round;stroke-linejoin:round"
         d="m 917.986,151.953 c 0,0 -9.196,-8.5 -10.163,-10.59 0,0 -5.594,5.334 -20.813,7.544 l -4.861,15.553 c -10e-4,0 22.206,1.427 35.837,-12.507 z"
         id="path51" />
      <path
         inkscape:connector-curvature="0"
         style="fill:#ef7a00"
         d="m 842.688,165.111 c -7.261,4.307 -18.261,11.908 -21.66,21.268 0.869,0.047 7.237,7.311 4.989,10.203 -1.59,2.041 -4.935,-0.762 -5.937,-1.75 0.611,0.912 1.286,7.536 -0.524,8.27 -4.142,1.686 -5.3,-4.027 -6.019,-8.126 -0.064,1.336 0.997,7.413 -1.362,7.325 -4.21,0.402 -4.84,-7.654 -4.227,-8.536 -0.591,1.54 0.343,5.729 -3.701,5.228 -2.479,-0.307 -2.252,-14.382 10.911,-15.155 3.833,-9.527 15.438,-19.036 22.085,-21.804"
         id="path53" />
      <path
         inkscape:connector-curvature="0"
         style="fill:none;stroke:#ef7a00;stroke-width:3.74769998"
         d="m 842.688,165.111 c -7.261,4.307 -18.261,11.908 -21.66,21.268 0.869,0.047 7.237,7.311 4.989,10.203 -1.59,2.041 -4.935,-0.762 -5.937,-1.75 0.611,0.912 1.286,7.536 -0.524,8.27 -4.142,1.686 -5.3,-4.027 -6.019,-8.126 -0.064,1.336 0.997,7.413 -1.362,7.325 -4.21,0.402 -4.84,-7.654 -4.227,-8.536 -0.591,1.54 0.343,5.729 -3.701,5.228 -2.479,-0.307 -2.252,-14.382 10.911,-15.155 3.833,-9.527 15.438,-19.036 22.085,-21.804"
         id="path55" />
      <path
         inkscape:connector-curvature="0"
         style="fill:#ffe100"
         d="m 842.688,165.111 c -7.261,4.307 -18.261,11.908 -21.66,21.268 0.869,0.047 7.237,7.311 4.989,10.203 -1.59,2.041 -4.935,-0.762 -5.937,-1.75 0.611,0.912 1.286,7.536 -0.524,8.27 -4.142,1.686 -5.3,-4.027 -6.019,-8.126 -0.064,1.336 0.997,7.413 -1.362,7.325 -4.209,0.402 -4.84,-7.654 -4.227,-8.536 -0.591,1.54 0.345,5.729 -3.701,5.228 -2.479,-0.307 -2.252,-14.382 10.911,-15.155 3.833,-9.527 15.438,-19.036 22.085,-21.804"
         id="path57" />
      <path
         inkscape:connector-curvature="0"
         style="fill:#0052a4"
         d="m 810.526,179.495 c 0,0 14.719,4.336 16.734,6.196 0,0 2.014,-7.437 16.887,-20.606 l 0.155,-15.647 c 10e-4,0 -25.099,8.52 -33.776,30.057"
         id="path59" />
      <path
         inkscape:connector-curvature="0"
         style="fill:none;stroke:#0052a4;stroke-width:3.8440001;stroke-linecap:round;stroke-linejoin:round"
         d="m 810.526,179.495 c 0,0 14.719,4.336 16.734,6.196 0,0 2.014,-7.437 16.887,-20.606 l 0.155,-15.647 c 10e-4,0 -25.099,8.52 -33.776,30.057 z"
         id="path61" />
      <path
         inkscape:connector-curvature="0"
         style="fill:#0076bf"
         d="m 819.08,166.133 13.962,10.291 c 1.233,-1.512 2.726,-3.201 4.514,-5.056 l -10.013,-12.802 c -2.863,2.113 -5.776,4.627 -8.463,7.567"
         id="path63" />
      <path
         inkscape:connector-curvature="0"
         style="fill:#ee7624"
         d="m 810.526,179.495 c 0,0 14.719,4.336 16.734,6.196 0,0 0.576,-2.128 3.388,-6.118 l -16.624,-6.864 c -1.334,2.103 -2.519,4.361 -3.498,6.786"
         id="path65" />
      <path
         inkscape:connector-curvature="0"
         style="fill:#a7ce58"
         d="m 814.024,172.709 16.624,6.864 c 0.665,-0.947 1.455,-1.997 2.394,-3.149 L 819.08,166.133 c -1.819,1.993 -3.534,4.181 -5.056,6.576"
         id="path67" />
      <path
         inkscape:connector-curvature="0"
         style="fill:#ee7624"
         d="m 844.148,165.085 0.155,-15.646 c 0,0 -3.768,1.279 -8.884,4.096 l 7.139,12.981 c 0.515,-0.468 1.041,-0.945 1.59,-1.431"
         id="path69" />
      <path
         inkscape:connector-curvature="0"
         style="fill:#a7ce58"
         d="m 842.559,166.516 -7.139,-12.982 c -2.41,1.327 -5.118,2.996 -7.877,5.033 l 10.013,12.802 c 1.459,-1.509 3.115,-3.127 5.003,-4.853"
         id="path71" />
      <path
         inkscape:connector-curvature="0"
         style="fill:#0076bf"
         d="m 890.184,148.311 -0.142,15.851 c 3.218,-0.346 7.144,-1.022 11.24,-2.324 l -3.711,-15.314 c -2.201,0.755 -4.684,1.405 -7.387,1.787"
         id="path73" />
      <path
         inkscape:connector-curvature="0"
         style="fill:#a7ce58"
         d="m 884.859,148.669 -2.711,15.792 c 0.025,0 3.206,0.202 7.894,-0.3 l 0.142,-15.851 c -1.695,0.24 -3.474,0.372 -5.325,0.359"
         id="path75" />
      <path
         inkscape:connector-curvature="0"
         style="fill:#ee7624"
         d="m 878.192,147.983 3.956,16.477 v 0.001 l 2.711,-15.792 c -2.141,-0.012 -4.37,-0.214 -6.667,-0.686"
         id="path77" />
      <path
         inkscape:connector-curvature="0"
         style="fill:#a7ce58"
         d="m 904.552,143.421 c -1.743,0.97 -4.119,2.122 -6.98,3.102 l 3.711,15.314 c 3.597,-1.14 7.321,-2.763 10.819,-5.062 l -7.55,-13.354 z"
         id="path79" />
      <path
         inkscape:connector-curvature="0"
         style="fill:#ee7624"
         d="m 917.986,151.953 c 0,0 -9.196,-8.5 -10.163,-10.59 0,0 -1.183,0.896 -3.271,2.058 l 7.55,13.355 c 2.065,-1.357 4.052,-2.95 5.884,-4.823"
         id="path81" />
      <path
         inkscape:connector-curvature="0"
         style="fill:#0076bf"
         d="m 861.679,146.475 -6.141,0.19 c -1.674,14.399 -4.584,44.256 -2.269,61.17 2.945,0.34 6.257,0.55 9.902,0.523 0.035,-8.98 -1.021,-45.858 -1.492,-61.883"
         id="path83" />
      <path
         inkscape:connector-curvature="0"
         style="fill:#0076bf"
         d="m 881.928,151.453 -0.18,-5.596 -4.77,0.147 c 1.906,9.657 4.971,30.478 3.767,60.458 1.947,-0.399 3.942,-0.865 5.99,-1.418 1.645,-18.555 -0.69,-36.771 -4.807,-53.591"
         id="path85" />
      <path
         inkscape:connector-curvature="0"
         style="fill:#ee7624"
         d="m 848.3,146.888 -4.2,0.129 -0.392,5.161 c -3.976,16.488 -6.219,34.296 -4.672,52.431 1.207,0.448 3.126,1.083 5.662,1.707 -1.152,-29.018 1.693,-49.434 3.602,-59.428"
         id="path87" />
      <path
         inkscape:connector-curvature="0"
         style="fill:#a7ce58"
         d="m 855.538,146.665 -7.238,0.223 c -1.91,9.994 -4.754,30.411 -3.602,59.427 2.341,0.574 5.216,1.132 8.571,1.521 -2.315,-16.914 0.596,-46.772 2.269,-61.171"
         id="path89" />
      <path
         inkscape:connector-curvature="0"
         style="fill:#a7ce58"
         d="m 876.979,146.004 -7.118,0.22 c 1.662,14.219 4.656,44.506 2.322,61.595 2.725,-0.302 5.583,-0.745 8.562,-1.357 1.204,-29.98 -1.859,-50.802 -3.766,-60.458"
         id="path91" />
      <path
         inkscape:connector-curvature="0"
         style="fill:#ee7624"
         d="m 869.86,146.224 -8.182,0.251 c 0.472,16.024 1.527,52.903 1.493,61.885 2.812,-0.025 5.821,-0.187 9.011,-0.542 2.335,-17.089 -0.66,-47.376 -2.322,-61.594"
         id="path93" />
      <polygon
         style="fill:#ffffff"
         points="850.843,155.378 871.715,155.901 861.279,170.51 "
         id="polygon95" />
      <path
         inkscape:connector-curvature="0"
         style="fill:#e83827"
         d="m 882.035,151.921 c -0.038,-0.156 -0.073,-0.313 -0.111,-0.468 l -0.178,-5.597 -37.65,1.16 -0.39,5.161 c -0.097,0.396 -0.187,0.799 -0.279,1.198 6.927,0.942 19.797,1.643 38.608,-1.454"
         id="path97" />
      <path
         inkscape:connector-curvature="0"
         style="fill:#0052a4"
         d="m 840.744,141.234 c -1.151,1.492 -0.024,8.623 1.276,9.896 8.073,7.917 38.021,5.875 41.296,-1.744 0.927,-2.158 2.374,-8.47 -0.536,-8.588 -1.458,-0.061 -41.051,-0.962 -42.036,0.436"
         id="path99" />
      <path
         inkscape:connector-curvature="0"
         style="fill:none;stroke:#0052a4;stroke-width:3.8440001;stroke-linecap:round;stroke-linejoin:round"
         d="m 840.744,141.234 c -1.151,1.492 -0.024,8.623 1.276,9.896 8.073,7.917 38.021,5.875 41.296,-1.744 0.927,-2.158 2.374,-8.47 -0.536,-8.588 -1.458,-0.061 -41.051,-0.962 -42.036,0.436"
         id="path101" />
      <path
         inkscape:connector-curvature="0"
         style="fill:#0052a4"
         d="m 840.744,141.234 c -1.151,1.492 -0.024,8.623 1.276,9.896 8.073,7.917 38.021,5.875 41.296,-1.744 0.927,-2.158 2.374,-8.47 -0.536,-8.588 -1.458,-0.061 -41.051,-0.962 -42.036,0.436"
         id="path103" />
      <path
         inkscape:connector-curvature="0"
         style="fill:none;stroke:#0052a4;stroke-width:3.8440001;stroke-linecap:round;stroke-linejoin:round"
         d="m 840.744,141.234 c -1.151,1.492 -0.024,8.623 1.276,9.896 8.073,7.917 38.021,5.875 41.296,-1.744 0.927,-2.158 2.374,-8.47 -0.536,-8.588 -1.458,-0.061 -41.051,-0.962 -42.036,0.436"
         id="path105" />
      <path
         inkscape:connector-curvature="0"
         style="fill:#0052a4"
         d="m 840.744,141.234 c -1.151,1.492 -0.024,8.623 1.276,9.896 8.073,7.917 38.021,5.875 41.296,-1.744 0.927,-2.158 2.374,-8.47 -0.536,-8.588 -1.458,-0.061 -41.051,-0.962 -42.036,0.436"
         id="path107" />
      <path
         inkscape:connector-curvature="0"
         style="fill:none;stroke:#0052a4;stroke-width:3.8440001;stroke-linecap:round;stroke-linejoin:round"
         d="m 840.744,141.234 c -1.151,1.492 -0.024,8.623 1.276,9.896 8.073,7.917 38.021,5.875 41.296,-1.744 0.927,-2.158 2.374,-8.47 -0.536,-8.588 -1.458,-0.061 -41.051,-0.962 -42.036,0.436"
         id="path109" />
      <path
         inkscape:connector-curvature="0"
         style="fill:#ffffff"
         d="m 840.744,141.234 c -1.151,1.492 -0.024,8.623 1.276,9.896 8.073,7.917 38.021,5.875 41.296,-1.744 0.927,-2.158 2.374,-8.47 -0.536,-8.588 -1.458,-0.061 -41.051,-0.962 -42.036,0.436"
         id="path111" />
      <path
         inkscape:connector-curvature="0"
         style="fill:#ffffff"
         d="m 840.744,141.234 c -1.151,1.492 -0.024,8.623 1.276,9.896 8.073,7.917 38.021,5.875 41.296,-1.744 0.927,-2.158 2.374,-8.47 -0.536,-8.588 -1.458,-0.061 -41.051,-0.962 -42.036,0.436"
         id="path113" />
      <path
         inkscape:connector-curvature="0"
         style="fill:#ffffff"
         d="m 840.744,141.234 c -1.151,1.492 -0.024,8.623 1.276,9.896 8.073,7.917 38.021,5.875 41.296,-1.744 0.927,-2.158 2.374,-8.47 -0.536,-8.588 -1.458,-0.061 -41.051,-0.962 -42.036,0.436"
         id="path115" />
      <path
         inkscape:connector-curvature="0"
         style="fill:#ef7a00"
         d="m 886.762,116.271 c 0,6.305 3.901,11.414 8.713,11.414 4.81,0 8.708,-5.109 8.708,-11.414 0,-6.302 -3.898,-11.413 -8.708,-11.413 -4.812,0 -8.713,5.111 -8.713,11.413"
         id="path117" />
      <ellipse
         d="m 904.18198,116.271 c 0,6.30378 -3.89959,11.414 -8.71,11.414 -4.8104,0 -8.71,-5.11022 -8.71,-11.414 0,-6.30377 3.8996,-11.414 8.71,-11.414 4.81041,0 8.71,5.11023 8.71,11.414 z"
         sodipodi:ry="11.414"
         sodipodi:rx="8.71"
         sodipodi:cy="116.271"
         sodipodi:cx="895.47198"
         style="fill:none;stroke:#ef7a00;stroke-width:3.74769998"
         cx="895.47198"
         cy="116.271"
         rx="8.71"
         ry="11.414"
         id="ellipse119" />
      <path
         inkscape:connector-curvature="0"
         style="fill:#ef7a00"
         d="m 819.146,115.766 c 0,6.303 3.9,11.413 8.711,11.413 4.809,0 8.71,-5.11 8.71,-11.413 0,-6.305 -3.901,-11.415 -8.71,-11.415 -4.81,0 -8.711,5.11 -8.711,11.415"
         id="path121" />
      <ellipse
         d="m 836.56699,115.766 c 0,6.30322 -3.8996,11.413 -8.71,11.413 -4.8104,0 -8.71,-5.10978 -8.71,-11.413 0,-6.30323 3.8996,-11.413 8.71,-11.413 4.8104,0 8.71,5.10977 8.71,11.413 z"
         sodipodi:ry="11.413"
         sodipodi:rx="8.71"
         sodipodi:cy="115.766"
         sodipodi:cx="827.85699"
         style="fill:none;stroke:#ef7a00;stroke-width:3.74769998"
         cx="827.85699"
         cy="115.766"
         rx="8.71"
         ry="11.413"
         id="ellipse123" />
      <path
         inkscape:connector-curvature="0"
         style="fill:#ffe100"
         d="m 886.762,116.271 c 0,6.305 3.901,11.414 8.713,11.414 4.81,0 8.708,-5.109 8.708,-11.414 0,-6.302 -3.898,-11.413 -8.708,-11.413 -4.812,0 -8.713,5.111 -8.713,11.413"
         id="path125" />
      <path
         inkscape:connector-curvature="0"
         style="fill:#ffe100"
         d="m 819.146,115.766 c 0,6.303 3.9,11.413 8.711,11.413 4.809,0 8.71,-5.11 8.71,-11.413 0,-6.305 -3.901,-11.415 -8.71,-11.415 -4.81,0 -8.711,5.11 -8.711,11.415"
         id="path127" />
      <path
         inkscape:connector-curvature="0"
         style="fill:#ef7a00"
         d="m 839.8,141.818 c -9.351,-6.633 -12.904,-20.519 -11.005,-34.771 3.183,-23.881 17.874,-43.239 32.811,-43.239 14.94,0 29.629,19.358 32.813,43.239 1.986,14.925 -3.004,28.084 -12.229,35.854 0,0 -9.849,6.15 -23.299,4.63 0,0 -9.607,1.012 -19.091,-5.713"
         id="path129" />
      <path
         inkscape:connector-curvature="0"
         style="fill:none;stroke:#ef7a00;stroke-width:3.74769998"
         d="m 839.8,141.818 c -9.351,-6.633 -12.904,-20.519 -11.005,-34.771 3.183,-23.881 17.874,-43.239 32.811,-43.239 14.94,0 29.629,19.358 32.813,43.239 1.986,14.925 -3.004,28.084 -12.229,35.854 0,0 -9.849,6.15 -23.299,4.63 0,0 -9.607,1.012 -19.091,-5.713 z"
         id="path131" />
      <path
         inkscape:connector-curvature="0"
         style="fill:#ffe100"
         d="m 839.8,141.818 c -9.351,-6.633 -12.904,-20.519 -11.005,-34.771 3.183,-23.881 17.874,-43.239 32.811,-43.239 14.94,0 29.629,19.358 32.813,43.239 1.986,14.925 -3.004,28.084 -12.229,35.854 0,0 -9.849,6.15 -23.299,4.63 0,0 -9.607,1.012 -19.091,-5.713"
         id="path133" />
      <path
         inkscape:connector-curvature="0"
         style="fill:#ffffff"
         d="m 839.197,101.208 c 0,5.945 4.575,10.766 10.219,10.766 5.642,0 10.218,-4.821 10.218,-10.766 0,-5.945 -4.576,-10.765 -10.218,-10.765 -5.644,0 -10.219,4.82 -10.219,10.765"
         id="path135" />
      <path
         inkscape:connector-curvature="0"
         style="fill:#ffffff"
         d="m 884.259,101.208 c 0,5.945 -4.574,10.766 -10.219,10.766 -5.641,0 -10.215,-4.821 -10.215,-10.766 0,-5.945 4.574,-10.765 10.215,-10.765 5.645,0 10.219,4.82 10.219,10.765"
         id="path137" />
      <path
         inkscape:connector-curvature="0"
         d="m 845.223,101.735 c 0,2.916 2.245,5.283 5.015,5.283 2.771,0 5.018,-2.367 5.018,-5.283 0,-2.919 -2.247,-5.285 -5.018,-5.285 -2.77,0 -5.015,2.366 -5.015,5.285"
         id="path139" />
      <path
         inkscape:connector-curvature="0"
         style="fill:#f29100"
         d="m 850.038,118.245 c 0,8.639 5.34,15.639 11.93,15.639 6.589,0 11.932,-7 11.932,-15.639 0,-8.638 -5.343,-15.642 -11.932,-15.642 -6.59,0 -11.93,7.004 -11.93,15.642"
         id="path141" />
      <path
         inkscape:connector-curvature="0"
         d="m 878.177,101.735 c 0,2.916 -2.246,5.283 -5.017,5.283 -2.768,0 -5.015,-2.367 -5.015,-5.283 0,-2.919 2.247,-5.285 5.015,-5.285 2.771,0 5.017,2.366 5.017,5.285"
         id="path143" />
      <path
         inkscape:connector-curvature="0"
         style="fill:none;stroke:#000000;stroke-width:4.32429981;stroke-linecap:round"
         d="m 840.322,86.608 c 0,0 20.862,-10.456 42.232,-0.537"
         id="path145" />
      <path
         inkscape:connector-curvature="0"
         style="fill:#e83434"
         d="m 838.691,129.452 c 0,0 20.835,11.561 47.037,0 0,0 -5.798,12.866 -22.551,13.799 10e-4,0 -18.9,1.116 -24.486,-13.799"
         id="path147" />
      <path
         inkscape:connector-curvature="0"
         style="fill:#f092b1"
         d="m 853.999,134.101 c 0.608,2.215 1.61,6.103 7.352,5.943 7.998,-0.224 7.584,-4.621 7.525,-5.945 -6.442,0.367 -9.021,0.466 -14.877,0.002"
         id="path149" />
      <path
         inkscape:connector-curvature="0"
         d="m 879.281,69.554 c -2.047,0.89 -3.643,1.553 -5.905,1.758 -2.082,0.19 -4.235,-0.473 -5.784,-1.785 -1.255,1.488 -3.389,1.934 -5.271,1.82 -1.482,-0.09 -3.483,-0.724 -4.987,-1.739 -3.38,1.556 -6.788,1.916 -10.577,1.226 -2.124,-0.385 -3.922,-1.599 -5.49,-2.972 -1.769,-1.55 -5.832,-7.628 -5.748,-7.584 1.808,0.917 3.27,1.56 5.188,1.762 1.408,0.147 2.749,0.124 4.071,-0.057 -0.133,-0.118 -0.262,-0.232 -0.396,-0.348 -3.821,-3.387 -3.282,-10.331 -2.792,-9.512 2.104,2.449 4.966,3.58 8.015,4.081 -0.304,-0.338 -0.529,-0.728 -0.814,-1.061 -5.328,-6.218 -1.389,-12.927 -1.348,-12.689 0.086,0.47 1.927,5.527 3.973,6.951 0.892,0.62 1.864,0.97 2.854,1.283 -0.36,-1.509 -0.562,-3.052 -0.632,-4.626 -0.331,-7.456 4.554,-8.977 4.632,-9.044 0.063,-0.058 -0.018,3.347 2.076,6.699 0.531,0.848 1.081,1.681 1.73,2.45 0.272,-0.425 0.566,-0.844 0.905,-1.255 1.087,-1.313 2.558,-2.224 4.042,-3.046 1.78,-0.985 5.975,-2.491 5.877,-2.292 -0.216,0.436 -0.482,0.813 -0.781,1.161 -1.275,2.014 -2.261,4.07 -2.904,6.423 -0.345,1.254 -0.434,2.503 -0.434,3.75 1.089,-0.395 2.166,-0.812 3.184,-1.412 2.189,-1.288 4.13,-3.313 5.148,-5.601 0.045,-0.094 1.241,5.406 -0.137,7.895 2.452,-0.864 5.147,-1.129 6.986,-0.134 0.138,0.074 -4.744,3.999 -6.189,6.206 -0.899,1.373 -1.511,2.921 -2.171,4.429 0.568,-0.059 1.136,-0.14 1.709,-0.263 3.049,-0.666 8.827,-6.16 8.784,-6.001 -0.946,3.414 -1.642,6.242 -4.383,8.722 -0.57,0.513 -1.188,0.956 -1.844,1.344 0.642,-0.136 1.285,-0.246 1.961,-0.278 2.551,-0.123 4.78,0.11 6.758,1.779 0.269,0.227 -6.401,0.696 -9.306,1.96"
         id="path151" />
    </g>
  </g>
</svg>
