<?xml version="1.0" encoding="UTF-8" standalone="no"?>
<!-- Created with Inkscape (http://www.inkscape.org/) -->

<svg
   xmlns:dc="http://purl.org/dc/elements/1.1/"
   xmlns:cc="http://creativecommons.org/ns#"
   xmlns:rdf="http://www.w3.org/1999/02/22-rdf-syntax-ns#"
   xmlns:svg="http://www.w3.org/2000/svg"
   xmlns="http://www.w3.org/2000/svg"
   version="1.1"
   width="185"
   height="255.09"
   id="svg5071">
  <defs
     id="defs5073" />
  <metadata
     id="metadata5076">
    <rdf:RDF>
      <cc:Work
         rdf:about="">
        <dc:format>image/svg+xml</dc:format>
        <dc:type
           rdf:resource="http://purl.org/dc/dcmitype/StillImage" />
        <dc:title></dc:title>
      </cc:Work>
    </rdf:RDF>
  </metadata>
  <g
     transform="translate(0,-2901.9966)"
     id="layer1">
    <g
       transform="translate(-84.546456,2639.3243)"
       id="g5">
      <path
         d="m 194.096,432.949 c -0.682,-1.546 -0.713,-3.492 -0.104,-5.843 0.642,-2.472 1.867,-4.727 3.68,-6.749 2.086,-2.308 4.632,-3.925 7.634,-4.844 3.513,-1.075 7.425,-1.118 11.74,-0.149 0.832,-1.455 2.759,-3.176 5.792,-5.181 3.228,-2.133 6.634,-3.832 10.218,-5.097 4.162,-1.477 7.795,-2.044 10.905,-1.7 3.681,0.396 6.324,2.056 7.933,4.974 2.252,4.08 0.951,8.354 -3.907,12.829 -1.772,1.629 -3.787,3.053 -6.034,4.278 -2.017,1.087 -3.55,1.686 -4.611,1.778 2.157,3.086 2.334,6.258 0.537,9.499 -1.558,2.83 -4.298,5.262 -8.219,7.29 -3.746,1.956 -7.41,2.981 -10.999,3.071 -3.867,0.11 -6.49,-0.953 -7.869,-3.197 0.287,2.042 -0.612,3.829 -2.705,5.364 -1.959,1.443 -4.385,2.292 -7.283,2.524 -3.052,0.26 -5.68,-0.262 -7.896,-1.574 -2.552,-1.493 -4.063,-3.808 -4.538,-6.939 -0.17,-1.11 0.777,-2.907 2.841,-5.397 2.081,-2.489 3.047,-4.236 2.894,-5.242 l -0.009,0.305 z"
         id="path7"
         style="fill:#eddc00" />
      <path
         d="m 194.096,432.949 0.009,-0.305 c 0.153,1.006 -0.813,2.753 -2.894,5.242 -2.064,2.49 -3.011,4.287 -2.841,5.397 0.475,3.132 1.986,5.446 4.538,6.939 2.216,1.312 4.844,1.834 7.896,1.574 2.898,-0.232 5.324,-1.081 7.283,-2.524 2.093,-1.535 2.992,-3.322 2.705,-5.364 1.379,2.244 4.002,3.308 7.869,3.197 3.589,-0.09 7.253,-1.115 10.999,-3.071 3.921,-2.028 6.661,-4.46 8.219,-7.29 1.797,-3.241 1.62,-6.413 -0.537,-9.499 1.061,-0.093 2.594,-0.691 4.611,-1.778 2.247,-1.226 4.262,-2.649 6.034,-4.278 4.858,-4.475 6.159,-8.749 3.907,-12.829 -1.609,-2.918 -4.252,-4.577 -7.933,-4.974 -3.11,-0.344 -6.743,0.224 -10.905,1.7 -3.584,1.265 -6.99,2.964 -10.218,5.097 -3.033,2.005 -4.96,3.726 -5.792,5.181 -4.315,-0.969 -8.227,-0.926 -11.74,0.149 -3.002,0.919 -5.548,2.536 -7.634,4.844 -1.813,2.022 -3.038,4.277 -3.68,6.749 -0.609,2.351 -0.578,4.297 0.104,5.843 z"
         id="path9"
         style="fill:none;stroke:#f2b800;stroke-width:2.86100006;stroke-miterlimit:10" />
      <path
         d="m 194.096,432.949 c -0.682,-1.546 -0.713,-3.492 -0.104,-5.843 0.642,-2.472 1.867,-4.727 3.68,-6.749 2.086,-2.308 4.632,-3.925 7.634,-4.844 3.513,-1.075 7.425,-1.118 11.74,-0.149 0.832,-1.455 2.759,-3.176 5.792,-5.181 3.228,-2.133 6.634,-3.832 10.218,-5.097 4.162,-1.477 7.795,-2.044 10.905,-1.7 3.681,0.396 6.324,2.056 7.933,4.974 2.252,4.08 0.951,8.354 -3.907,12.829 -1.772,1.629 -3.787,3.053 -6.034,4.278 -2.017,1.087 -3.55,1.686 -4.611,1.778 2.157,3.086 2.334,6.258 0.537,9.499 -1.558,2.83 -4.298,5.262 -8.219,7.29 -3.746,1.956 -7.41,2.981 -10.999,3.071 -3.867,0.11 -6.49,-0.953 -7.869,-3.197 0.287,2.042 -0.612,3.829 -2.705,5.364 -1.959,1.443 -4.385,2.292 -7.283,2.524 -3.052,0.26 -5.68,-0.262 -7.896,-1.574 -2.552,-1.493 -4.063,-3.808 -4.538,-6.939 -0.17,-1.11 0.777,-2.907 2.841,-5.397 2.081,-2.489 3.047,-4.236 2.894,-5.242 l -0.009,0.305 z"
         id="path11"
         style="fill:#fcdf00" />
      <path
         d="m 172.523,455.877 -0.009,-0.011 c 0.556,0.7 1.236,1.039 2.027,1.022 h 0.009 l 0.199,0.003 c 0.015,0.743 0.041,1.494 0.056,2.269 -0.674,0.06 -1.264,0.395 -1.759,0.991 h -0.011 v 0.011 c -0.504,0.618 -0.766,1.352 -0.767,2.209 0,0.868 0.263,1.602 0.772,2.225 l -0.01,-0.009 c 0.565,0.698 1.244,1.037 2.035,1.021 0.017,0.514 0.043,1.002 0.067,1.468 -0.704,0.052 -1.313,0.386 -1.827,1.005 h -0.009 v 0.009 c -0.504,0.617 -0.766,1.353 -0.767,2.208 -0.005,0.126 0.008,0.259 0.024,0.383 -9.16,-1.75 -16.855,-1.488 -23.095,0.768 -3.036,1.081 -5.344,2.539 -6.916,4.366 -1.599,1.835 -2.261,3.737 -1.996,5.702 v 0.009 c 0.229,2.016 1.402,3.761 3.52,5.244 h 0.009 c 2.158,1.514 5.082,2.532 8.789,3.061 h 0.01 c 8.767,1.237 20.119,-0.45 34.036,-5.068 0.598,-0.057 0.799,-1.522 0.609,-4.396 v -0.012 c -0.204,-2.674 -0.375,-5.07 -0.523,-7.201 0.215,-0.149 0.428,-0.35 0.62,-0.574 0,-0.009 0,-0.009 0.009,-0.009 0.515,-0.617 0.777,-1.37 0.777,-2.239 0,-0.867 -0.254,-1.604 -0.76,-2.226 -0.318,-0.381 -0.672,-0.646 -1.047,-0.814 -0.051,-0.639 -0.09,-1.274 -0.122,-1.904 0.319,-0.173 0.617,-0.411 0.882,-0.735 0,-0.009 0,-0.009 0.011,-0.009 0.513,-0.617 0.775,-1.371 0.775,-2.237 0,-0.868 -0.253,-1.605 -0.76,-2.228 -0.358,-0.426 -0.758,-0.718 -1.201,-0.875 -0.039,-0.906 -0.079,-1.81 -0.108,-2.696 0.289,-0.171 0.548,-0.399 0.778,-0.693 0.514,-0.618 0.775,-1.362 0.775,-2.229 0,-0.867 -0.253,-1.604 -0.759,-2.226 -0.289,-0.343 -0.601,-0.59 -0.941,-0.761 -0.058,-3.812 -0.033,-7.458 0.05,-10.943 l 0.024,-0.753 -10.867,-0.434 -0.052,0.734 c -0.242,3.376 -0.379,7.09 -0.389,11.125 l -0.143,-0.004 c -0.783,-0.003 -1.458,0.335 -2.017,1.01 h -0.01 v 0.011 c -0.505,0.617 -0.768,1.352 -0.768,2.209 0,0.865 0.263,1.601 0.77,2.223 m 0.758,-2.22 c 0,-0.276 0.049,-0.535 0.137,-0.757 0.107,-0.185 0.227,-0.37 0.354,-0.546 0.182,-0.255 0.413,-0.461 0.694,-0.624 0.553,-0.296 1.131,-0.476 1.747,-0.535 l -0.001,-0.027 c -0.006,-3.997 0.111,-7.662 0.334,-11.018 l 7.89,0.313 c -0.088,3.428 -0.094,7.013 -0.029,10.75 10e-4,0.01 10e-4,0.01 10e-4,0.02 0.532,0.249 0.964,0.626 1.315,1.119 0.189,0.271 0.305,0.563 0.361,0.876 0.107,0.654 -0.006,1.259 -0.32,1.813 -0.261,0.457 -0.632,0.812 -1.091,1.074 -0.057,0.021 -0.105,0.034 -0.143,0.034 0.033,1.001 0.048,2.029 0.055,3.08 l -0.021,-0.039 0.024,0.733 v 0.03 h 0.01 c 0.058,0.006 0.115,0.003 0.182,0.012 0.624,0.114 1.112,0.44 1.473,0.99 0.291,0.441 0.429,0.921 0.401,1.448 -0.008,0.084 -0.015,0.17 -0.03,0.277 -0.083,0.623 -0.344,1.156 -0.787,1.599 -0.259,0.258 -0.566,0.458 -0.914,0.594 l 0.002,0.104 c 0.032,0.694 0.028,1.411 -0.034,2.168 l -0.002,-0.087 -0.041,0.794 10e-4,0.047 c 0.338,0.095 0.706,0.31 1.11,0.66 0.264,0.221 0.45,0.424 0.562,0.603 0.24,0.326 0.358,0.711 0.353,1.16 0.001,0.01 0.001,0.01 0.001,0.02 l 0.002,0.028 c 0,0.028 0.002,0.057 0.002,0.095 0.002,0.038 0.003,0.078 0.003,0.124 -0.086,0.566 -0.297,1.068 -0.636,1.529 -0.218,0.292 -0.488,0.52 -0.806,0.684 l 0.002,0.058 c 0.159,2.234 0.338,4.768 0.554,7.603 0.128,1.864 0.273,2.814 0.437,2.856 -13.633,4.52 -24.756,6.191 -33.351,4.995 -3.421,-0.489 -6.142,-1.42 -8.142,-2.795 -1.708,-1.193 -2.669,-2.583 -2.883,-4.188 -0.185,-1.55 0.357,-3.054 1.634,-4.518 1.434,-1.641 3.528,-2.949 6.28,-3.936 6.298,-2.248 14.133,-2.398 23.505,-0.456 l 1.21,0.236 0.047,0.008 c -0.183,-0.098 -0.332,-0.276 -0.457,-0.527 -0.151,-0.29 -0.239,-0.642 -0.269,-1.041 -0.056,-0.505 0.003,-0.992 0.17,-1.482 0.19,-0.553 0.539,-0.963 1.036,-1.248 0.448,-0.253 0.921,-0.43 1.404,-0.513 0.028,-0.011 0.056,-0.011 0.087,-0.013 l -0.003,-0.047 c -0.057,-0.868 -0.099,-1.848 -0.145,-2.942 v -0.01 c -0.046,0.001 -0.094,0.002 -0.151,0.005 -0.507,0.018 -1.008,-0.168 -1.506,-0.542 -0.186,-0.138 -0.334,-0.295 -0.464,-0.453 -0.078,-0.062 -0.148,-0.139 -0.217,-0.221 v -0.01 c -0.288,-0.343 -0.435,-0.757 -0.422,-1.244 0.002,-0.201 0.025,-0.383 0.067,-0.556 0.174,-0.474 0.439,-0.883 0.799,-1.208 0.492,-0.438 1.056,-0.686 1.693,-0.734 l -0.005,-0.124 c -0.039,-1.228 -0.07,-2.439 -0.089,-3.611 -0.02,0 -0.037,0 -0.066,0.002 -0.628,0.039 -1.207,-0.132 -1.744,-0.517 -0.498,-0.354 -0.865,-0.829 -1.106,-1.421 -0.043,-0.177 -0.068,-0.359 -0.064,-0.551"
         id="path13"
         style="fill:#e42126" />
      <path
         d="m 173.418,452.9 c -0.088,0.222 -0.137,0.48 -0.137,0.757 -0.005,0.191 0.021,0.374 0.064,0.553 0.24,0.592 0.608,1.066 1.106,1.421 0.536,0.385 1.115,0.556 1.743,0.517 0.03,-0.002 0.047,-0.002 0.067,-0.002 0.018,-0.01 0.039,-0.01 0.058,-0.01 l 8.21,0.015 c 0.039,0 0.087,-0.013 0.144,-0.034 0.458,-0.263 0.83,-0.617 1.091,-1.074 0.314,-0.555 0.427,-1.159 0.32,-1.813 -0.056,-0.312 -0.172,-0.605 -0.361,-0.876 -0.351,-0.493 -0.784,-0.87 -1.315,-1.119 0,-0.01 0,-0.01 -10e-4,-0.021 l -8.194,-0.018 c -0.616,0.059 -1.194,0.239 -1.747,0.535 -0.281,0.163 -0.512,0.369 -0.694,0.624 -0.127,0.175 -0.247,0.361 -0.354,0.545"
         id="path15"
         style="fill:#e27c9f" />
      <path
         d="m 176.212,451.168 0.001,0.027 8.194,0.019 c -0.066,-3.737 -0.059,-7.322 0.029,-10.75 l -7.89,-0.313 c -0.223,3.355 -0.34,7.02 -0.334,11.017"
         id="path17"
         style="fill:#e86601" />
      <path
         d="m 176.319,456.136 c -0.019,0 -0.04,0 -0.058,0.01 0.019,1.172 0.05,2.384 0.089,3.611 l 0.005,0.124 0.067,0.009 c 0.01,0.009 0.029,0.017 0.049,0.027 l 8.117,0.008 -0.024,-0.733 0.021,0.039 c -0.007,-1.051 -0.022,-2.079 -0.056,-3.08 l -8.21,-0.015 z"
         id="path19"
         style="fill:#e86601" />
      <path
         d="m 176.422,459.89 -0.067,-0.009 c -0.637,0.049 -1.202,0.297 -1.693,0.734 -0.36,0.325 -0.625,0.734 -0.799,1.208 -0.043,0.172 -0.066,0.354 -0.067,0.556 -0.013,0.487 0.134,0.901 0.422,1.244 v 0.01 c 0.069,0.082 0.139,0.158 0.217,0.221 0.13,0.159 0.278,0.315 0.464,0.453 0.498,0.374 0.999,0.56 1.505,0.542 0.058,-0.002 0.105,-0.003 0.152,-0.005 v 0.01 l 8.367,0.021 c 0.348,-0.136 0.655,-0.336 0.914,-0.594 0.443,-0.442 0.704,-0.976 0.787,-1.599 0.015,-0.107 0.022,-0.193 0.029,-0.277 0.029,-0.527 -0.109,-1.007 -0.4,-1.448 -0.361,-0.55 -0.849,-0.876 -1.474,-0.99 -0.066,-0.009 -0.124,-0.006 -0.181,-0.012 h -0.01 v -0.03 l -8.117,-0.008 c -0.02,-0.011 -0.039,-0.019 -0.049,-0.027"
         id="path21"
         style="fill:#e27c9f" />
      <path
         d="m 176.701,467.796 0.003,0.047 8.144,0.011 0.041,-0.794 0.002,0.087 c 0.062,-0.757 0.066,-1.474 0.034,-2.168 l -0.002,-0.104 -8.367,-0.021 c 0.046,1.094 0.088,2.074 0.145,2.942"
         id="path23"
         style="fill:#e86601" />
      <path
         d="m 176.704,467.843 c -0.031,0.002 -0.059,0.003 -0.087,0.013 -0.483,0.083 -0.956,0.26 -1.405,0.513 -0.496,0.286 -0.844,0.695 -1.035,1.248 -0.167,0.49 -0.225,0.978 -0.17,1.482 0.03,0.399 0.118,0.751 0.269,1.041 0.125,0.251 0.274,0.43 0.457,0.527 l -0.047,-0.008 c 0.039,0.008 0.077,0.026 0.117,0.044 0.067,0.017 0.133,0.035 0.21,0.05 0.01,0 0.029,0 0.058,0.01 0.076,0.007 0.163,0.013 0.248,0.01 l 10.121,0.03 c 0.318,-0.164 0.588,-0.392 0.806,-0.684 0.339,-0.461 0.55,-0.963 0.636,-1.529 0,-0.046 -0.001,-0.086 -0.003,-0.124 0,-0.037 -0.002,-0.066 -0.002,-0.095 l -0.002,-0.028 c 0,-0.01 0,-0.01 -0.001,-0.02 0.005,-0.449 -0.113,-0.834 -0.353,-1.16 -0.112,-0.179 -0.297,-0.382 -0.562,-0.603 -0.404,-0.351 -0.772,-0.565 -1.11,-0.66 l -10e-4,-0.047 -8.144,-0.01 z"
         id="path25"
         style="fill:#e27c9f" />
      <path
         d="m 174.803,472.703 c -0.041,-0.018 -0.079,-0.036 -0.117,-0.044 l -1.21,-0.236 c -9.372,-1.942 -17.207,-1.792 -23.505,0.456 -2.751,0.986 -4.846,2.295 -6.28,3.936 -1.277,1.464 -1.819,2.968 -1.634,4.518 0.214,1.604 1.175,2.994 2.883,4.188 2,1.375 4.721,2.306 8.142,2.795 8.596,1.196 19.718,-0.476 33.351,-4.995 -0.164,-0.042 -0.309,-0.992 -0.437,-2.856 -0.216,-2.835 -0.395,-5.367 -0.554,-7.603 l -0.002,-0.058 -10.121,-0.03 c -0.085,0.003 -0.172,-0.003 -0.248,-0.01 -0.029,-0.01 -0.048,-0.01 -0.059,-0.01 -0.076,-0.017 -0.142,-0.034 -0.209,-0.051"
         id="path27"
         style="fill:#e86601" />
      <path
         d="m 148.563,480.6 c -0.942,1.262 -1.268,2.664 -0.988,4.211 0.28,1.555 1.072,2.739 2.387,3.563 1.48,0.937 3.291,1.163 5.441,0.7 l -0.116,-0.054 c -1.791,0.058 -3.247,-0.38 -4.355,-1.325 -0.981,-0.836 -1.552,-1.934 -1.711,-3.302 -0.157,-1.32 0.117,-2.569 0.81,-3.766 0.733,-1.254 1.809,-2.156 3.232,-2.699 -2.096,0.365 -3.668,1.255 -4.7,2.672"
         id="path29"
         style="fill:#e42126" />
      <path
         d="m 209.155,447.572 c 0.103,-0.258 0.206,-0.516 0.318,-0.753 -3.478,-0.705 -6.955,-1.389 -10.45,-2.073 -0.111,0.239 -0.223,0.477 -0.336,0.727 -1.579,3.283 -3.003,6.872 -4.275,10.762 -0.047,-0.016 -0.093,-0.027 -0.142,-0.027 -0.772,-0.127 -1.53,0.098 -2.295,0.686 h -0.009 v 0.011 c -0.652,0.508 -1.103,1.187 -1.344,2.016 -0.174,0.838 -0.081,1.601 0.294,2.281 0.426,0.775 1.03,1.217 1.819,1.314 h 0.009 c 0.076,0 0.144,0.01 0.192,0.027 -0.011,0.048 -0.011,0.086 -0.02,0.135 -0.072,0.189 -0.137,0.392 -0.193,0.609 -0.092,0.372 -0.175,0.753 -0.248,1.125 0,0.009 0,0.009 0.01,0.019 -0.037,0.162 -0.073,0.312 -0.101,0.476 -0.026,0.181 -0.035,0.371 -0.024,0.553 0.011,0.143 -0.006,0.264 -0.063,0.39 -0.029,-0.018 -0.056,-0.038 -0.087,-0.066 0,0.03 0.001,0.049 0.002,0.077 -0.684,0.016 -1.282,0.314 -1.791,0.909 h -0.009 v 0.01 c -0.498,0.584 -0.739,1.309 -0.714,2.173 0.046,0.855 0.346,1.614 0.914,2.267 0.009,-0.011 0.019,0 0.009,0.008 0.623,0.728 1.34,1.092 2.148,1.114 0.011,0.113 0.051,0.235 0.118,0.36 l 1.513,-0.013 c -0.091,-0.332 -0.149,-0.674 -0.191,-1.026 l -0.58,-0.062 c -0.381,-0.083 -0.762,-0.277 -1.156,-0.568 -0.191,-0.142 -0.355,-0.302 -0.498,-0.482 -0.086,-0.064 -0.163,-0.142 -0.239,-0.234 v -0.011 c -0.317,-0.358 -0.492,-0.775 -0.506,-1.26 -0.011,-0.199 0.006,-0.381 0.043,-0.562 0.158,-0.468 0.421,-0.86 0.788,-1.168 0.482,-0.402 1.032,-0.614 1.65,-0.641 h 0.048 c 0.008,-0.047 0.008,-0.075 0.008,-0.104 0.039,-0.076 0.075,-0.152 0.103,-0.238 -0.175,-0.389 -0.216,-0.854 -0.135,-1.38 0.099,-0.607 0.247,-1.198 0.441,-1.779 0.083,-0.229 0.186,-0.431 0.329,-0.595 0.025,-0.18 0.054,-0.35 0.08,-0.531 -0.01,0 -0.038,0 -0.067,10e-4 -0.617,-0.062 -1.173,-0.322 -1.641,-0.785 -0.432,-0.426 -0.684,-0.946 -0.774,-1.555 0.007,-0.179 0.027,-0.36 0.042,-0.541 0.074,-0.285 0.187,-0.524 0.327,-0.726 0.161,-0.163 0.331,-0.326 0.501,-0.47 0.245,-0.221 0.529,-0.386 0.841,-0.493 0.644,-0.215 1.272,-0.306 1.882,-0.262 0.009,-0.02 0.009,-0.029 0.018,-0.029 1.175,-3.862 2.534,-7.408 4.085,-10.665 2.543,0.51 5.068,1.013 7.573,1.514 -1.418,3.353 -2.606,6.841 -3.574,10.463 v 0.019 c 0.44,0.309 0.777,0.736 1.019,1.276 0.106,0.273 0.158,0.579 0.15,0.902 -0.052,0.638 -0.294,1.21 -0.718,1.717 -0.348,0.392 -0.783,0.692 -1.285,0.886 -0.019,0 -0.038,10e-4 -0.057,0.01 -0.019,-0.009 -0.039,-0.02 -0.057,-0.028 -0.01,0.011 -0.019,0.02 -0.029,0.028 -0.084,0.076 -0.151,0.163 -0.217,0.259 -0.14,0.2 -0.252,0.431 -0.317,0.697 -0.138,0.524 -0.218,1.057 -0.262,1.607 -0.025,0.354 -0.002,0.687 0.056,1.019 -0.01,0.009 -0.01,0.009 -0.01,0.021 0.001,0.074 0.001,0.151 0.001,0.227 v 0.029 h 0.011 c 0.048,0.009 0.114,0.007 0.181,0.017 0.628,0.137 1.137,0.496 1.521,1.071 0.308,0.445 0.464,0.928 0.468,1.47 -0.017,0.068 -0.027,0.164 -0.016,0.277 -0.051,0.618 -0.286,1.132 -0.691,1.554 -0.028,0.027 -0.066,0.07 -0.103,0.098 l -0.767,0.453 c -0.007,0.171 -0.006,0.341 0.005,0.515 l 1.767,-0.017 c 0.237,-0.145 0.463,-0.336 0.67,-0.594 -0.008,-0.012 0,-0.021 0.012,-0.012 0.46,-0.602 0.672,-1.337 0.635,-2.2 -0.053,-0.866 -0.345,-1.623 -0.865,-2.275 -0.354,-0.445 -0.766,-0.755 -1.214,-0.933 v -0.018 c -0.029,-0.009 -0.048,-0.029 -0.068,-0.048 -0.008,-0.009 -0.01,-0.018 -0.019,-0.027 -0.01,-0.077 -0.01,-0.151 -0.011,-0.219 -0.02,-0.105 -0.021,-0.22 -0.014,-0.343 0.037,-0.342 0.091,-0.676 0.175,-0.99 0.101,-0.391 0.278,-0.698 0.534,-0.926 -10e-4,-0.01 -0.003,-0.021 -0.003,-0.03 0.313,-0.127 0.608,-0.309 0.9,-0.56 0.614,-0.528 1.027,-1.216 1.219,-2.063 0.193,-0.829 0.111,-1.589 -0.227,-2.271 -0.204,-0.377 -0.455,-0.671 -0.741,-0.879 1.024,-3.672 2.26,-7.22 3.724,-10.647"
         id="path31"
         style="fill:#e42126" />
      <path
         d="m 170.025,481.581 c -2.695,1.498 -4.66,3.303 -5.887,5.415 -1.247,2.13 -1.611,4.224 -1.089,6.283 v 0.01 c 0.484,2.118 1.829,3.846 4.028,5.179 l 0.009,-0.001 c 2.226,1.361 5.115,2.107 8.672,2.239 h 0.009 c 8.4,0.319 18.826,-2.755 31.255,-9.24 0.162,-0.039 0.284,-0.212 0.349,-0.517 0.017,0.028 0.038,0.057 0.066,0.086 0.165,-0.714 0.214,-1.903 0.152,-3.557 v -0.012 c -0.035,-0.712 -0.088,-1.396 -0.152,-2.072 -0.175,-1.69 -0.454,-3.267 -0.838,-4.737 0,0 0.009,0 0.019,-0.01 -0.039,-0.104 -0.068,-0.198 -0.079,-0.283 0.049,-0.04 0.094,-0.077 0.142,-0.117 0.141,-0.124 0.274,-0.268 0.396,-0.431 -0.01,-0.009 0,-0.019 0.008,-0.009 0.396,-0.604 0.532,-1.327 0.411,-2.181 -0.168,-0.846 -0.545,-1.584 -1.139,-2.215 -0.347,-0.332 -0.691,-0.576 -1.034,-0.753 -0.24,-0.035 -0.421,-0.188 -0.565,-0.463 -0.156,-0.303 -0.282,-0.614 -0.389,-0.929 -0.049,-0.142 -0.059,-0.282 -0.041,-0.407 -0.011,-0.058 -0.02,-0.114 -0.031,-0.181 0.047,-0.029 0.105,-0.05 0.151,-0.077 l -1.767,0.016 c 0.035,0.837 0.261,1.623 0.684,2.351 0.029,0.05 0.058,0.086 0.106,0.133 l 0.44,0.215 c 0.238,0.123 0.507,0.291 0.794,0.506 0.297,0.219 0.525,0.426 0.67,0.614 0.296,0.321 0.491,0.698 0.561,1.146 v 0.02 c -0.009,0 0,0.01 0.011,0.027 -0.011,0.02 0,0.048 0.02,0.096 0.008,0.029 0.008,0.077 0.02,0.123 0.012,0.543 -0.116,1.036 -0.388,1.487 -0.178,0.268 -0.404,0.487 -0.689,0.652 0.011,0.019 0.011,0.036 0.011,0.048 0.01,0.047 0.03,0.103 0.038,0.152 0.059,0.254 0.129,0.53 0.205,0.807 v 0.007 h 0.011 c 0.344,1.168 0.6,2.335 0.772,3.515 0.131,0.921 0.205,1.842 0.242,2.764 0.025,0.865 0.061,1.56 0.094,2.064 -0.05,-0.049 -0.097,-0.098 -0.145,-0.142 0.03,0.13 0.051,0.246 0.078,0.34 0.071,0.313 0.127,0.457 0.166,0.438 -12.184,6.359 -22.4,9.393 -30.637,9.109 -0.572,-0.024 -1.124,-0.066 -1.666,-0.129 -0.153,-0.084 -0.296,-0.187 -0.439,-0.291 -1.034,-0.771 -1.719,-1.877 -2.053,-3.312 -0.336,-1.376 -0.251,-2.746 0.241,-4.089 0.511,-1.424 1.406,-2.496 2.662,-3.237 -1.923,0.624 -3.274,1.747 -4.049,3.38 -0.702,1.443 -0.822,2.976 -0.341,4.579 0.302,1.031 0.776,1.876 1.437,2.544 -1.449,-0.341 -2.716,-0.833 -3.817,-1.498 -1.767,-1.07 -2.863,-2.44 -3.286,-4.119 -0.385,-1.622 -0.083,-3.29 0.919,-4.981 1.125,-1.9 2.909,-3.533 5.35,-4.895 4.221,-2.327 9.422,-3.502 15.604,-3.507 l 8.056,0.246 0.066,-0.048 c -0.315,-0.09 -0.573,-0.253 -0.783,-0.489 -0.067,-0.064 -0.125,-0.14 -0.184,-0.206 -0.085,-0.124 -0.163,-0.266 -0.23,-0.415 l -0.011,-0.012 c -0.067,-0.168 -0.135,-0.35 -0.193,-0.53 -0.08,-0.273 -0.12,-0.551 -0.132,-0.816 -0.012,-0.143 -0.002,-0.285 0.017,-0.428 0.008,-0.076 0.016,-0.153 0.027,-0.22 0.099,-0.542 0.38,-0.945 0.844,-1.204 0.179,-0.107 0.36,-0.203 0.551,-0.271 l 0.883,-0.226 c -0.011,-0.066 -0.031,-0.124 -0.059,-0.172 -0.339,-0.672 -0.594,-1.354 -0.759,-2.057 l -1.513,0.013 c 0.009,0.01 0.009,0.01 0.009,0.02 0.009,0.036 0.02,0.076 0.028,0.112 0.08,0.295 0.169,0.579 0.266,0.864 0.058,0.161 0.125,0.303 0.203,0.436 -0.665,0.044 -1.195,0.362 -1.599,0.946 h -0.009 l 0.009,0.009 c -0.178,0.258 -0.308,0.545 -0.383,0.858 -0.045,0.162 -0.073,0.324 -0.081,0.495 0.013,0.456 0.083,0.902 0.23,1.329 0.039,0.114 0.078,0.229 0.128,0.352 -0.259,-0.046 -0.591,-0.071 -1.019,-0.077 -0.429,-0.024 -0.837,-0.041 -1.219,-0.064 -0.38,-0.027 -0.675,-0.043 -0.885,-0.05 v 0.007 c -7.467,-0.307 -13.646,0.906 -18.54,3.645"
         id="path33"
         style="fill:#e42126" />
      <path
         d="m 193.814,457.476 c -0.312,0.107 -0.596,0.272 -0.841,0.492 -0.17,0.145 -0.34,0.308 -0.501,0.471 -0.14,0.201 -0.253,0.44 -0.327,0.726 -0.016,0.181 -0.035,0.362 -0.042,0.541 0.09,0.608 0.342,1.129 0.773,1.554 0.469,0.464 1.024,0.724 1.642,0.786 0.028,-10e-4 0.057,-10e-4 0.067,-10e-4 0.029,-0.01 0.046,-0.011 0.057,0 2.743,0.423 5.465,0.837 8.178,1.262 0.011,-0.009 0.02,-0.017 0.03,-0.028 0.018,0.009 0.038,0.02 0.057,0.028 0.018,-0.01 0.038,-0.01 0.056,-0.01 0.503,-0.193 0.937,-0.494 1.286,-0.886 0.424,-0.509 0.666,-1.079 0.718,-1.718 0.008,-0.322 -0.044,-0.628 -0.151,-0.903 -0.241,-0.538 -0.578,-0.966 -1.019,-1.274 v -0.019 c -2.684,-0.424 -5.389,-0.851 -8.102,-1.282 -0.609,-0.045 -1.237,0.046 -1.881,0.261"
         id="path35"
         style="fill:#e27c9f" />
      <path
         d="m 194.642,462.044 c -0.01,-0.011 -0.028,-0.01 -0.057,0 -0.026,0.182 -0.055,0.352 -0.08,0.531 -0.143,0.164 -0.245,0.364 -0.329,0.595 -0.194,0.581 -0.342,1.172 -0.441,1.779 -0.081,0.525 -0.04,0.99 0.136,1.38 -0.028,0.086 -0.065,0.162 -0.104,0.238 0,0.029 0,0.058 -0.008,0.104 0.039,-0.009 0.057,0 0.067,0.01 0.019,0.008 0.038,0.008 0.057,0.018 2.741,0.139 5.469,0.289 8.19,0.435 0,-0.074 -0.001,-0.152 -0.002,-0.226 0,-0.012 0,-0.012 0.01,-0.021 -0.058,-0.332 -0.081,-0.665 -0.056,-1.019 0.044,-0.551 0.124,-1.083 0.262,-1.607 0.065,-0.267 0.177,-0.497 0.317,-0.697 0.066,-0.096 0.133,-0.183 0.217,-0.259 -2.715,-0.424 -5.436,-0.838 -8.179,-1.261"
         id="path37"
         style="fill:#e86601" />
      <path
         d="m 195.714,457.185 c -0.009,0 -0.009,0.01 -0.019,0.029 2.713,0.432 5.418,0.858 8.102,1.283 0.969,-3.623 2.157,-7.111 3.575,-10.464 -2.505,-0.501 -5.03,-1.004 -7.574,-1.514 -1.55,3.255 -2.909,6.803 -4.084,10.666"
         id="path39"
         style="fill:#e86601" />
      <path
         d="m 202.072,467.164 v -0.03 c -2.72,-0.146 -5.449,-0.296 -8.189,-0.435 -0.02,-0.009 -0.039,-0.009 -0.058,-0.018 -0.01,-0.01 -0.028,-0.019 -0.066,-0.01 h -0.048 c -0.618,0.026 -1.169,0.238 -1.65,0.641 -0.367,0.308 -0.631,0.7 -0.788,1.168 -0.038,0.182 -0.055,0.362 -0.043,0.562 0.013,0.484 0.188,0.901 0.505,1.26 v 0.009 c 0.076,0.095 0.154,0.172 0.239,0.236 0.144,0.181 0.308,0.341 0.498,0.482 0.394,0.291 0.775,0.485 1.157,0.568 l 0.579,0.062 1.895,0.099 c 2.034,0.097 4.071,0.204 6.097,0.32 l 0.476,0.024 0.767,-0.453 c 0.036,-0.027 0.074,-0.07 0.103,-0.098 0.405,-0.422 0.639,-0.936 0.69,-1.554 -0.01,-0.114 -10e-4,-0.209 0.017,-0.277 -0.004,-0.542 -0.16,-1.024 -0.468,-1.47 -0.385,-0.576 -0.894,-0.935 -1.522,-1.071 -0.066,-0.01 -0.132,-0.008 -0.18,-0.017 h -0.011 z"
         id="path41"
         style="fill:#e27c9f" />
      <path
         d="m 194.335,475.141 c -0.191,0.068 -0.372,0.164 -0.551,0.271 -0.464,0.26 -0.745,0.663 -0.845,1.205 -0.01,0.066 -0.018,0.144 -0.026,0.22 -0.019,0.143 -0.029,0.285 -0.017,0.428 0.012,0.266 0.052,0.543 0.132,0.816 0.057,0.181 0.126,0.362 0.193,0.53 l 0.011,0.011 c 0.067,0.15 0.145,0.291 0.23,0.415 0.059,0.067 0.117,0.143 0.184,0.207 0.21,0.236 0.468,0.398 0.783,0.489 l 1.046,0.039 c 0.837,0.021 1.675,0.033 2.512,0.056 2.321,0.047 4.631,0.103 6.923,0.16 0.285,-0.165 0.511,-0.386 0.689,-0.652 0.272,-0.451 0.4,-0.944 0.388,-1.487 -0.012,-0.046 -0.012,-0.094 -0.02,-0.123 -0.02,-0.048 -0.031,-0.076 -0.02,-0.096 -0.011,-0.018 -0.02,-0.028 -0.011,-0.028 v -0.019 c -0.07,-0.447 -0.265,-0.824 -0.561,-1.146 -0.145,-0.188 -0.373,-0.396 -0.67,-0.614 -0.287,-0.215 -0.556,-0.383 -0.794,-0.506 l -0.44,-0.216 -1.083,-0.027 c -1.961,-0.05 -3.919,-0.092 -5.888,-0.132 l -1.282,-0.026 -0.883,0.225 z"
         id="path43"
         style="fill:#e27c9f" />
      <path
         d="m 194.429,479.732 -0.065,0.048 -8.057,-0.246 c -6.182,0.005 -11.383,1.179 -15.604,3.507 -2.441,1.361 -4.225,2.994 -5.35,4.894 -1.002,1.692 -1.303,3.36 -0.919,4.982 0.423,1.679 1.519,3.049 3.286,4.119 1.101,0.665 2.369,1.157 3.817,1.498 -0.661,-0.668 -1.134,-1.513 -1.437,-2.544 -0.481,-1.604 -0.36,-3.136 0.341,-4.579 0.775,-1.633 2.126,-2.756 4.05,-3.38 -1.257,0.741 -2.152,1.813 -2.663,3.236 -0.492,1.344 -0.577,2.714 -0.241,4.09 0.335,1.435 1.019,2.541 2.053,3.312 0.143,0.104 0.287,0.207 0.439,0.291 0.542,0.062 1.095,0.104 1.666,0.128 8.237,0.284 18.453,-2.75 30.638,-9.108 -0.039,0.02 -0.096,-0.124 -0.166,-0.438 -0.028,-0.094 -0.049,-0.21 -0.079,-0.34 0.048,0.044 0.095,0.093 0.145,0.142 -0.033,-0.506 -0.068,-1.199 -0.094,-2.064 -0.037,-0.922 -0.111,-1.843 -0.242,-2.764 -0.171,-1.18 -0.428,-2.347 -0.771,-3.515 h -0.012 v -0.007 c -0.076,-0.276 -0.146,-0.553 -0.205,-0.807 -0.008,-0.05 -0.028,-0.105 -0.038,-0.152 0,-0.012 0,-0.029 -0.011,-0.048 -2.292,-0.058 -4.602,-0.113 -6.923,-0.16 -0.837,-0.022 -1.675,-0.034 -2.512,-0.056 l -1.046,-0.039 z"
         id="path45"
         style="fill:#e86601" />
      <path
         d="m 195.218,474.915 1.282,0.026 c 1.969,0.04 3.927,0.082 5.888,0.132 l 1.083,0.027 c -0.047,-0.046 -0.077,-0.083 -0.106,-0.132 -0.511,-0.879 -0.738,-1.829 -0.689,-2.866 l -0.476,-0.023 c -2.026,-0.116 -4.062,-0.224 -6.097,-0.32 l -1.894,-0.099 c 0.134,1.075 0.456,2.101 0.95,3.083 0.028,0.048 0.048,0.106 0.059,0.172"
         id="path47"
         style="fill:#e86601" />
      <polygon
         points="190.027,477.601 190.037,477.601 190.027,477.592 "
         id="polygon49"
         style="fill:#e42126" />
      <path
         d="m 181.138,371.599 c 0.724,-1.629 2.58,-2.483 5.587,-2.554 2.913,-0.07 6.642,0.597 11.183,2.011 1.295,0.408 2.608,1.608 3.925,3.621 1.201,1.817 2.601,4.605 4.213,8.38 2.042,4.8 6.188,15.248 12.427,31.336 2.723,6.716 3.803,12.806 3.231,18.257 -0.511,4.949 -2.337,9.2 -5.49,12.748 -2.885,3.247 -6.675,5.719 -11.368,7.39 -4.434,1.596 -9.215,2.35 -14.354,2.255 -5.112,-0.105 -9.934,-1.031 -14.466,-2.771 -4.765,-1.812 -8.673,-4.334 -11.714,-7.558 -3.328,-3.5 -5.351,-7.562 -6.09,-12.191 -0.811,-5.11 0.001,-10.657 2.428,-16.649 5.369,-13.237 10.022,-23.745 13.97,-31.534 3.218,-5.904 5.389,-10.148 6.518,-12.741"
         id="path51"
         style="fill:#f2b800" />
      <path
         d="m 186.725,369.045 c 2.913,-0.07 6.643,0.597 11.183,2.011 1.295,0.408 2.608,1.608 3.925,3.621 1.201,1.817 2.601,4.605 4.213,8.38 2.042,4.8 6.188,15.248 12.427,31.336 2.723,6.715 3.803,12.806 3.231,18.256 -0.511,4.95 -2.337,9.201 -5.49,12.749 -2.885,3.247 -6.675,5.719 -11.368,7.391 -4.433,1.595 -9.215,2.349 -14.354,2.254 -5.112,-0.105 -9.934,-1.031 -14.466,-2.771 -4.765,-1.812 -8.673,-4.334 -11.714,-7.558 -3.328,-3.5 -5.351,-7.562 -6.09,-12.191 -0.811,-5.109 0.002,-10.657 2.428,-16.649 5.369,-13.237 10.022,-23.745 13.971,-31.534 3.217,-5.902 5.388,-10.146 6.517,-12.739 0.724,-1.631 2.58,-2.486 5.587,-2.556 z"
         id="path53"
         style="fill:none;stroke:#f2b800;stroke-width:2.86100006;stroke-miterlimit:10" />
      <path
         d="m 181.101,375.504 c -0.164,-0.435 -0.514,-0.321 -1.045,0.333 -4.262,5.185 -9.345,8.821 -15.246,10.909 -2.284,0.807 -5.043,1.441 -8.287,1.922 -0.113,0.011 -0.234,0.027 -0.347,0.039 -3.485,0.322 -6.785,-0.334 -9.907,-1.957 -3.224,-1.682 -5.293,-2.675 -6.214,-2.975 -2.273,-0.746 -4.228,-1.197 -5.88,-1.351 -4.071,-0.365 -7.537,1.046 -10.395,4.232 -2.332,2.606 -3.481,5.523 -3.465,8.753 0.008,2.922 0.948,5.742 2.825,8.482 1.816,2.641 4.313,4.743 7.487,6.311 3.172,1.57 6.85,2.524 11.051,2.879 4.192,0.349 9.036,-0.633 14.541,-2.946 5.499,-2.321 9.736,-5.104 12.705,-8.368 2.969,-3.265 5.593,-7.252 7.852,-11.977 2.262,-4.725 3.663,-8.632 4.218,-11.728 0.248,-1.279 0.284,-2.124 0.107,-2.558"
         id="path55"
         style="fill:#fcdf00" />
      <path
         d="m 181.101,375.504 c 0.177,0.435 0.141,1.279 -0.107,2.56 -0.555,3.096 -1.956,7.003 -4.218,11.728 -2.259,4.725 -4.883,8.712 -7.852,11.977 -2.969,3.264 -7.206,6.047 -12.705,8.368 -5.505,2.313 -10.349,3.295 -14.541,2.946 -4.201,-0.354 -7.879,-1.309 -11.051,-2.879 -3.174,-1.567 -5.671,-3.67 -7.487,-6.311 -1.877,-2.74 -2.817,-5.561 -2.825,-8.482 -0.016,-3.229 1.133,-6.146 3.465,-8.753 2.858,-3.187 6.324,-4.598 10.395,-4.232 1.652,0.153 3.607,0.604 5.88,1.351 0.921,0.3 2.99,1.293 6.214,2.975 3.122,1.623 6.422,2.279 9.907,1.957 0.113,-0.012 0.234,-0.028 0.347,-0.039 3.244,-0.48 6.003,-1.115 8.287,-1.922 5.901,-2.088 10.984,-5.725 15.246,-10.909 0.531,-0.656 0.881,-0.77 1.045,-0.335 z"
         id="path57"
         style="fill:none;stroke:#f2b800;stroke-width:1.51199996;stroke-miterlimit:10" />
      <path
         d="m 159.331,309.737 c 3.862,-4.62 8.57,-8.36 14.137,-11.241 5.542,-2.867 11.488,-4.629 17.854,-5.302 6.578,-0.695 13.129,-0.174 19.655,1.573 6.528,1.747 12.452,4.566 17.785,8.449 5.176,3.765 9.458,8.265 12.826,13.517 3.382,5.276 5.595,10.869 6.621,16.798 1.082,6.169 0.824,12.255 -0.787,18.266 -4.019,15.015 -11.815,25.052 -23.392,30.112 -10.141,4.536 -22.362,4.896 -36.666,1.066 -6.675,-1.788 -12.633,-4.369 -17.877,-7.736 l -0.009,-0.002 c -5.41,-3.491 -9.792,-7.645 -13.151,-12.45 -7.379,-10.508 -9.19,-22.792 -5.431,-36.83 1.608,-6.013 4.416,-11.415 8.435,-16.22 m 14.837,-9.879 c -5.37,2.774 -9.93,6.397 -13.662,10.865 -3.874,4.634 -6.589,9.838 -8.139,15.627 -3.631,13.559 -1.899,25.408 5.197,35.566 3.263,4.651 7.508,8.658 12.748,12.044 5.118,3.283 10.937,5.799 17.445,7.541 13.91,3.723 25.797,3.394 35.659,-0.979 11.139,-4.91 18.652,-14.62 22.533,-29.119 1.55,-5.79 1.797,-11.653 0.757,-17.604 -1.001,-5.733 -3.142,-11.15 -6.415,-16.24 -3.263,-5.095 -7.4,-9.468 -12.424,-13.111 -5.182,-3.776 -10.943,-6.511 -17.286,-8.209 -6.341,-1.697 -12.706,-2.208 -19.102,-1.533 -6.163,0.649 -11.939,2.368 -17.311,5.152"
         id="path59"
         style="fill:#f2b800" />
      <path
         d="m 160.506,310.724 c 3.732,-4.468 8.292,-8.091 13.662,-10.865 5.371,-2.784 11.149,-4.503 17.311,-5.152 6.396,-0.675 12.761,-0.165 19.102,1.533 6.343,1.697 12.104,4.433 17.286,8.209 5.024,3.643 9.161,8.016 12.424,13.111 3.273,5.09 5.414,10.507 6.415,16.24 1.04,5.951 0.793,11.814 -0.757,17.604 -3.881,14.499 -11.394,24.208 -22.533,29.119 -9.862,4.373 -21.749,4.702 -35.659,0.979 -6.508,-1.742 -12.327,-4.258 -17.445,-7.541 -5.24,-3.387 -9.485,-7.394 -12.747,-12.045 -7.097,-10.157 -8.829,-22.006 -5.198,-35.565 1.55,-5.79 4.265,-10.994 8.139,-15.627"
         id="path61"
         style="fill:#fcdf00" />
      <path
         d="m 200.556,328.805 c -1.681,-2.642 -3.715,-4.702 -6.118,-6.2 -2.324,-1.459 -4.728,-2.24 -7.204,-2.323 1.302,-0.487 2.613,-0.786 3.947,-0.872 1.916,-0.126 3.75,0.16 5.496,0.863 1.75,0.694 3.291,1.746 4.636,3.169 2.138,2.263 3.457,5.046 3.959,8.358 0.488,3.238 0.117,6.404 -1.119,9.496 0.015,-2.13 -0.276,-4.253 -0.865,-6.368 -0.604,-2.179 -1.515,-4.223 -2.732,-6.123"
         id="path63"
         style="fill:#e27c9f" />
      <path
         d="m 194.438,322.605 c 2.403,1.499 4.437,3.558 6.118,6.2 1.217,1.901 2.128,3.945 2.732,6.123 0.589,2.115 0.88,4.238 0.865,6.368 -0.765,1.851 -1.74,3.488 -2.943,4.898 l -0.976,1.057 c 0.585,-2.48 0.641,-5.052 0.175,-7.724 -0.472,-2.773 -1.458,-5.348 -2.967,-7.718 -2.019,-3.187 -4.554,-5.449 -7.609,-6.778 -2.982,-1.31 -5.867,-1.463 -8.657,-0.469 1.76,-1.999 3.779,-3.424 6.058,-4.28 2.476,0.083 4.88,0.864 7.204,2.323"
         id="path65"
         style="fill:#0077bf" />
      <path
         d="m 181.176,324.562 c 2.79,-0.993 5.674,-0.841 8.656,0.469 3.055,1.329 5.591,3.592 7.61,6.778 1.508,2.371 2.494,4.946 2.966,7.718 0.466,2.673 0.411,5.244 -0.174,7.724 -1.31,1.292 -2.744,2.305 -4.324,3.052 -1.588,0.746 -3.229,1.171 -4.924,1.278 -1.916,0.127 -3.75,-0.158 -5.48,-0.857 -1.749,-0.694 -3.296,-1.757 -4.648,-3.191 -2.786,-2.95 -4.167,-6.644 -4.148,-11.084 0.018,-4.451 1.441,-8.338 4.266,-11.665 l 0.2,-0.222 z"
         id="path67"
         style="fill:#ffffff" />
      <path
         d="m 163.58,318.999 c 2.548,-1.446 5.102,-2.234 7.679,-2.375 2.499,-0.142 4.74,0.324 6.712,1.416 -0.789,-1.023 -1.671,-1.89 -2.673,-2.587 -1.436,-1.006 -3,-1.624 -4.694,-1.849 -1.69,-0.233 -3.386,-0.066 -5.102,0.505 -2.729,0.912 -5.065,2.646 -7.008,5.209 -1.899,2.51 -3.094,5.359 -3.58,8.553 0.988,-1.809 2.211,-3.467 3.661,-4.979 1.494,-1.558 3.162,-2.858 5.005,-3.893"
         id="path69"
         style="fill:#e27c9f" />
      <path
         d="m 171.259,316.625 c -2.578,0.14 -5.131,0.928 -7.679,2.375 -1.843,1.035 -3.511,2.334 -5.005,3.893 -1.45,1.512 -2.673,3.17 -3.661,4.978 -0.271,1.923 -0.275,3.764 0,5.519 l 0.268,1.351 c 0.705,-2.37 1.869,-4.571 3.484,-6.611 1.668,-2.121 3.645,-3.837 5.934,-5.133 3.069,-1.747 6.109,-2.471 9.115,-2.163 2.942,0.292 5.263,1.515 6.976,3.664 -0.435,-2.514 -1.345,-4.667 -2.72,-6.457 -1.972,-1.092 -4.213,-1.56 -6.712,-1.416"
         id="path71"
         style="fill:#0077bf" />
      <path
         d="m 180.691,324.497 c -1.713,-2.149 -4.034,-3.372 -6.976,-3.663 -3.006,-0.308 -6.046,0.415 -9.115,2.162 -2.289,1.297 -4.266,3.013 -5.934,5.133 -1.616,2.041 -2.779,4.242 -3.484,6.611 0.416,1.706 1.06,3.236 1.943,4.607 0.89,1.375 1.971,2.504 3.243,3.389 1.438,1.006 3.001,1.625 4.679,1.845 1.691,0.232 3.396,0.06 5.124,-0.52 3.555,-1.187 6.365,-3.662 8.433,-7.423 2.071,-3.771 2.784,-7.725 2.137,-11.86 l -0.05,-0.281 z"
         id="path73"
         style="fill:#ffffff" />
      <path
         d="m 185.343,336.938 c 0.643,1.271 0.771,2.628 0.387,4.065 -0.389,1.453 -1.178,2.557 -2.367,3.327 -1.193,0.778 -2.437,0.994 -3.725,0.65 -1.302,-0.35 -2.264,-1.156 -2.9,-2.423 -0.646,-1.262 -0.777,-2.611 -0.388,-4.066 0.385,-1.435 1.175,-2.548 2.367,-3.326 1.185,-0.782 2.42,-1 3.725,-0.651 1.285,0.345 2.256,1.153 2.901,2.424"
         id="path75"
         style="fill:#1c1616" />
      <path
         d="m 162.513,330.532 c -1.082,0.773 -1.81,1.858 -2.182,3.248 -0.376,1.407 -0.286,2.702 0.268,3.903 0.551,1.21 1.402,1.968 2.548,2.275 1.158,0.31 2.267,0.076 3.344,-0.698 1.079,-0.765 1.804,-1.84 2.18,-3.248 0.372,-1.389 0.285,-2.692 -0.266,-3.902 -0.544,-1.208 -1.39,-1.966 -2.55,-2.276 -1.143,-0.307 -2.259,-0.074 -3.342,0.698"
         id="path77"
         style="fill:#1c1616" />
      <path
         d="m 162.328,338.581 c 2.915,-0.906 5.438,-1.335 7.59,-1.302 3.531,0.078 5.863,1.422 6.991,4.022 0.269,0.624 0.6,1.335 1.007,2.144 0.411,0.85 0.753,1.573 1.016,2.167 0.267,0.624 1.141,1.676 2.612,3.145 1.525,1.523 2.455,2.621 2.792,3.274 0.7,0.966 1.19,2.232 1.447,3.811 0.009,0.041 0.017,0.083 0.016,0.123 0.04,0.256 0.08,0.513 0.105,0.786 0.032,0.216 0.048,0.447 0.056,0.677 0.013,0.061 0.016,0.124 0.021,0.182 0.013,0.281 0.025,0.57 0.026,0.857 -0.001,0.038 -0.001,0.079 -0.002,0.127 -0.001,0.847 -0.082,1.594 -0.249,2.251 -0.174,0.684 -0.433,1.325 -0.801,1.917 -0.089,0.153 -0.189,0.305 -0.294,0.444 -0.956,1.313 -2.439,2.405 -4.445,3.258 -0.033,0.013 -0.064,0.023 -0.096,0.035 -0.112,0.048 -0.225,0.098 -0.346,0.144 -0.927,0.403 -1.858,0.715 -2.812,0.924 -1.615,0.357 -3.266,0.439 -4.937,0.238 -0.373,-0.051 -0.74,-0.11 -1.116,-0.181 -0.522,-0.11 -1.05,-0.242 -1.59,-0.397 -1.153,-0.337 -2.291,-0.731 -3.407,-1.167 -2.363,-0.938 -4.651,-2.084 -6.84,-3.45 -3.044,-1.861 -6.229,-3.413 -9.554,-4.669 -0.429,-0.204 -0.861,-0.388 -1.279,-0.56 -3.718,-1.586 -6.597,-2.259 -8.628,-2.003 0.306,-0.115 0.596,-0.314 0.867,-0.587 0.506,-0.525 0.802,-1.187 0.884,-1.982 0.054,-0.451 0.025,-0.863 -0.069,-1.252 -0.049,-0.212 -0.124,-0.418 -0.22,-0.612 -0.042,-0.1 -0.086,-0.191 -0.143,-0.275 -0.303,-0.496 -0.681,-0.814 -1.133,-0.965 -0.117,-0.041 -0.239,-0.063 -0.364,-0.077 -0.085,-0.013 -0.178,0.001 -0.273,0.026 -0.879,-0.66 -1.625,-1.303 -2.222,-1.947 -2.304,-2.481 -2.135,-4.587 0.522,-6.293 0.963,-0.619 4.592,-1.049 10.862,-1.294 6.895,-0.256 11.56,-0.772 14.006,-1.539"
         id="path79"
         style="fill:#fcdf00" />
      <path
         d="m 139.433,349.628 c 0.125,0.014 0.247,0.036 0.364,0.077 0.452,0.151 0.83,0.469 1.133,0.965 0.057,0.084 0.101,0.175 0.143,0.275 0.096,0.194 0.171,0.4 0.22,0.612 0.094,0.389 0.123,0.801 0.069,1.252 -0.082,0.796 -0.378,1.457 -0.884,1.982 -0.271,0.274 -0.561,0.472 -0.867,0.587 -0.098,0.032 -0.194,0.057 -0.298,0.078 -0.173,0.023 -0.343,0.026 -0.525,0.008 -0.623,-0.069 -1.114,-0.407 -1.491,-1.031 -0.374,-0.624 -0.521,-1.333 -0.432,-2.138 0.084,-0.797 0.316,-1.406 0.712,-1.813 0.398,-0.416 0.924,-0.689 1.583,-0.828 0.095,-0.025 0.188,-0.039 0.273,-0.026"
         id="path81"
         style="fill:#d8272a" />
      <path
         d="m 186.005,358.594 c 0.001,-0.048 0.001,-0.089 0.002,-0.127 -0.001,0.038 0.008,0.08 0.008,0.119 l -0.01,0.008 z"
         id="path83"
         style="fill:#fcdf00" />
      <path
         d="m 180.12,366.499 c 0.032,-0.012 0.063,-0.022 0.097,-0.035 -0.034,0.013 -0.065,0.023 -0.097,0.035"
         id="path85"
         style="fill:#fcdf00" />
      <path
         d="m 180.12,366.499 c 0.032,-0.012 0.063,-0.022 0.097,-0.035"
         id="path87"
         style="fill:none;stroke:#f2b800;stroke-width:1.52499998;stroke-linecap:round;stroke-miterlimit:10" />
      <path
         d="m 139.611,355.378 c 0.306,-0.115 0.596,-0.313 0.868,-0.587 0.505,-0.525 0.801,-1.186 0.883,-1.982 0.054,-0.451 0.025,-0.863 -0.068,-1.252 -0.05,-0.212 -0.125,-0.418 -0.221,-0.612 -0.042,-0.1 -0.086,-0.191 -0.143,-0.275 -0.303,-0.496 -0.68,-0.814 -1.132,-0.965 -0.118,-0.041 -0.24,-0.063 -0.365,-0.077 -0.085,-0.013 -0.177,0.001 -0.273,0.026 m 0.451,5.724 c -0.098,0.032 -0.193,0.057 -0.297,0.078 -0.174,0.023 -0.344,0.026 -0.525,0.008 -0.623,-0.069 -1.115,-0.407 -1.491,-1.031 -0.375,-0.624 -0.521,-1.333 -0.433,-2.138 0.084,-0.797 0.316,-1.406 0.712,-1.813 0.398,-0.417 0.925,-0.689 1.583,-0.828"
         id="path89"
         style="fill:none;stroke:#f2b800;stroke-width:1.52499998;stroke-miterlimit:10" />
      <path
         d="m 180.12,366.499 c -0.111,0.048 -0.225,0.098 -0.345,0.144 -0.928,0.403 -1.859,0.715 -2.813,0.924 -1.615,0.357 -3.266,0.439 -4.936,0.238 -0.373,-0.051 -0.74,-0.11 -1.117,-0.181 -0.522,-0.11 -1.049,-0.242 -1.59,-0.396 -1.153,-0.338 -2.29,-0.732 -3.406,-1.168 -2.364,-0.938 -4.651,-2.084 -6.84,-3.45 -3.045,-1.861 -6.23,-3.413 -9.554,-4.669"
         id="path91"
         style="fill:none;stroke:#f2b800;stroke-width:1.52499998;stroke-linecap:round;stroke-linejoin:round;stroke-miterlimit:10" />
      <path
         d="m 149.519,357.941 c -0.429,-0.204 -0.862,-0.389 -1.28,-0.561 -3.718,-1.585 -6.596,-2.258 -8.628,-2.002"
         id="path93"
         style="fill:none;stroke:#f2b800;stroke-width:1.52499998;stroke-miterlimit:10" />
      <path
         d="m 185.799,355.965 c 0.04,0.256 0.08,0.514 0.105,0.786 0.032,0.216 0.048,0.447 0.056,0.677 0.012,0.061 0.016,0.124 0.021,0.183 0.012,0.28 0.025,0.569 0.026,0.856 m 0,0 c -0.001,0.038 0.007,0.08 0.007,0.119 l -0.009,0.008 c 0.001,-0.048 0.001,-0.089 0.002,-0.127 z"
         id="path95"
         style="fill:none;stroke:#f2b800;stroke-width:1.52499998;stroke-linecap:round;stroke-miterlimit:10" />
      <path
         d="m 186.005,358.594 c -0.001,0.848 -0.082,1.595 -0.249,2.251 -0.174,0.685 -0.433,1.325 -0.801,1.917 -0.089,0.153 -0.188,0.306 -0.293,0.444 -0.957,1.314 -2.44,2.406 -4.446,3.258"
         id="path97"
         style="fill:none;stroke:#f2b800;stroke-width:1.52499998;stroke-linecap:round;stroke-linejoin:round;stroke-miterlimit:10" />
      <path
         d="m 139.16,349.654 c -0.878,-0.66 -1.625,-1.303 -2.221,-1.947 -2.304,-2.481 -2.136,-4.587 0.522,-6.292 0.963,-0.619 4.591,-1.05 10.861,-1.295 6.895,-0.256 11.561,-0.772 14.006,-1.539 2.915,-0.906 5.438,-1.335 7.59,-1.302 3.532,0.078 5.864,1.422 6.991,4.022 0.269,0.624 0.6,1.335 1.007,2.144 0.411,0.851 0.753,1.573 1.016,2.167 0.268,0.624 1.141,1.676 2.612,3.145 1.526,1.523 2.455,2.621 2.792,3.274 0.7,0.966 1.19,2.232 1.447,3.811 0.009,0.041 0.018,0.083 0.017,0.123"
         id="path99"
         style="fill:none;stroke:#f2b800;stroke-width:1.52499998;stroke-miterlimit:10" />
      <path
         d="m 194.048,286.414 c -1.172,-0.248 -2.396,-0.108 -3.661,0.408 1.881,0.405 3.683,2.406 5.407,6.008 0.354,0.748 0.786,1.4 1.286,1.948 -0.122,-0.003 -0.243,-0.007 -0.364,-0.001 -0.82,0.015 -1.517,0.093 -2.098,0.221 -0.216,-0.346 -0.425,-0.71 -0.617,-1.095 -0.043,-0.078 -0.085,-0.157 -0.117,-0.236 -1.867,-3.683 -4.01,-5.909 -6.437,-6.667 2.715,-2.163 5.082,-2.997 7.11,-2.503 2.035,0.468 3.793,1.876 5.28,4.219 l 0.003,0.029 c 0.219,0.404 0.421,0.79 0.61,1.134 0.078,-0.396 0.196,-0.779 0.33,-1.174 1.194,-3.692 1.151,-6.691 -0.139,-8.999 3.544,0.713 5.911,1.996 7.097,3.825 1.112,1.711 1.477,3.739 1.099,6.086 0.622,-0.205 1.295,-0.341 2.019,-0.398 3.796,-0.384 6.305,-1.632 7.531,-3.731 1.382,3.513 1.639,6.18 0.75,8.007 -0.198,0.412 -0.437,0.782 -0.706,1.125 -0.746,0.919 -1.778,1.617 -3.094,2.083 -0.851,-0.15 -2.43,-0.331 -4.728,-0.535 l -0.001,-0.018 -2.273,-0.067 c 0.414,-0.23 0.915,-0.438 1.503,-0.615 0.596,-0.167 1.863,-0.373 3.799,-0.618 1.898,-0.266 3.179,-1.141 3.845,-2.625 0.486,-1.054 0.625,-2.311 0.423,-3.773 -0.783,1.695 -3.01,2.698 -6.689,2.99 -1.914,0.148 -3.347,0.98 -4.312,2.486 -0.484,0.772 -0.728,1.521 -0.73,2.249 -0.11,0.045 -0.2,0.091 -0.272,0.147 -0.328,-0.795 -0.401,-1.855 -0.231,-3.179 0.102,-0.638 0.435,-1.909 1.009,-3.823 0.539,-1.877 0.317,-3.543 -0.677,-4.988 -0.706,-1.029 -1.71,-1.863 -3.029,-2.513 1.119,1.672 1.074,4.271 -0.157,7.807 -0.646,1.834 -0.519,3.613 0.37,5.337 0.137,0.266 0.292,0.522 0.449,0.749 -0.199,0.005 -0.365,0.01 -0.524,0.025 -0.971,-0.145 -1.989,-0.951 -3.051,-2.427 -0.397,-0.564 -1.098,-1.778 -2.079,-3.641 -0.99,-1.843 -2.298,-2.928 -3.934,-3.257"
         id="path101"
         style="fill:#f2b800" />
      <path
         d="m 190.388,286.822 c 1.265,-0.517 2.489,-0.656 3.661,-0.408 1.635,0.329 2.944,1.414 3.933,3.257 0.982,1.862 1.682,3.077 2.08,3.641 1.061,1.476 2.079,2.282 3.051,2.427 0.018,0 0.037,0 0.057,0.001 0.159,0.014 0.308,0.019 0.468,0.013 0.009,-0.008 0.009,-0.008 0.016,-0.008 -0.008,-0.011 -0.009,-0.02 -0.017,-0.031 -0.157,-0.227 -0.312,-0.483 -0.45,-0.749 -0.888,-1.724 -1.015,-3.503 -0.37,-5.337 1.231,-3.536 1.277,-6.135 0.157,-7.807 1.32,0.649 2.323,1.484 3.029,2.513 0.994,1.445 1.217,3.111 0.677,4.988 -0.574,1.914 -0.906,3.185 -1.008,3.823 -0.171,1.324 -0.097,2.384 0.231,3.179 0.098,0.236 0.223,0.453 0.367,0.641 -0.012,-0.03 -0.013,-0.059 -0.026,-0.088 l -0.075,-0.633 c 0.009,-0.029 0.006,-0.048 0.006,-0.067 0.002,-0.729 0.245,-1.478 0.73,-2.25 0.965,-1.505 2.398,-2.337 4.312,-2.485 3.679,-0.292 5.905,-1.295 6.689,-2.99 0.202,1.462 0.063,2.719 -0.423,3.772 -0.666,1.485 -1.948,2.36 -3.845,2.625 -1.937,0.245 -3.203,0.452 -3.8,0.619 -0.586,0.177 -1.089,0.385 -1.502,0.615 -0.596,0.343 -1.021,0.739 -1.272,1.196 -0.118,0.221 -0.197,0.46 -0.237,0.721 -0.006,0.049 -0.012,0.096 -0.018,0.145 l 0.011,0.049 c -0.041,-0.059 -0.081,-0.119 -0.123,-0.188 -0.105,-0.187 -0.2,-0.374 -0.277,-0.561 l -1.043,-0.244 c -0.047,-0.021 -0.093,-0.042 -0.141,-0.062 -0.578,-0.279 -1.092,-0.72 -1.541,-1.345 -0.893,1.11 -2.194,1.363 -3.901,0.771 -0.21,-0.075 -0.421,-0.159 -0.622,-0.252 -0.154,-0.072 -0.308,-0.153 -0.463,-0.236 -0.029,-0.01 -0.058,-0.031 -0.086,-0.042 l -0.554,-0.365 c -0.07,-0.05 -0.129,-0.1 -0.195,-0.151 -0.011,-0.01 -0.022,-0.01 -0.03,-0.021 -0.208,-0.17 -0.395,-0.341 -0.584,-0.53 -0.02,-0.021 -0.041,-0.041 -0.061,-0.069 -0.01,-0.011 -0.02,-0.011 -0.029,-0.021 -0.009,-0.01 -0.01,-0.019 -0.021,-0.031 -0.009,-0.008 -0.02,-0.019 -0.029,-0.029 -0.01,-0.01 -0.03,-0.031 -0.04,-0.04 -0.5,-0.548 -0.931,-1.201 -1.286,-1.949 -1.723,-3.601 -3.526,-5.603 -5.406,-6.007"
         id="path103"
         style="fill:#fcdf00" />
      <path
         d="m 160.65,415.872 c 5.369,-13.237 10.022,-23.745 13.97,-31.534 1.238,-2.275 2.325,-4.306 3.251,-6.083 10.327,-3.921 16.696,-8.542 19.116,-13.847 l 5.248,10.898 c 1.105,1.808 2.378,4.39 3.811,7.75 2.042,4.8 6.187,15.248 12.427,31.337 2.723,6.715 3.802,12.805 3.231,18.256 -0.511,4.949 -2.337,9.2 -5.49,12.748 -2.885,3.247 -6.675,5.719 -11.368,7.391 -4.434,1.595 -9.215,2.349 -14.354,2.254 -5.112,-0.105 -9.934,-1.031 -14.466,-2.771 -4.766,-1.812 -8.673,-4.334 -11.714,-7.558 -3.329,-3.5 -5.351,-7.562 -6.09,-12.191 -0.811,-5.11 0.001,-10.658 2.428,-16.65"
         id="path105"
         style="fill:#fcdf00" />
      <path
         d="m 202.402,387.21 c -2.313,-0.471 -3.941,-0.118 -4.879,1.053 -0.382,0.472 -0.758,1.465 -1.137,2.972 -0.305,1.142 -0.516,2.188 -0.629,3.127 -0.457,3.297 -1.356,6.154 -2.716,8.575 -1.36,2.462 -3.27,4.644 -5.737,6.523 -1.997,1.554 -3.599,4.063 -4.815,7.531 -1.252,3.587 -1.558,6.812 -0.921,9.664 0.234,1.09 0.859,2.34 1.87,3.734 0.898,1.281 1.897,2.386 3.005,3.319 2.313,1.994 5.342,2.977 9.082,2.972 3.421,-0.015 6.97,-0.814 10.658,-2.425 3.615,-1.589 6.649,-3.639 9.101,-6.137 2.613,-2.673 4.092,-5.375 4.431,-8.127 0.404,-3.23 0.239,-6.442 -0.499,-9.623 -0.483,-2.096 -1.528,-5.172 -3.124,-9.239 -0.568,-1.432 -1.701,-3.376 -3.42,-5.83 -1.759,-2.522 -3.198,-4.253 -4.31,-5.197 -1.793,-1.506 -3.779,-2.472 -5.96,-2.892"
         id="path107"
         style="fill:#eddc00" />
      <path
         d="m 202.402,387.21 c 2.181,0.42 4.167,1.386 5.96,2.893 1.112,0.944 2.551,2.675 4.31,5.197 1.719,2.454 2.852,4.398 3.42,5.83 1.596,4.067 2.641,7.144 3.124,9.239 0.738,3.181 0.903,6.393 0.499,9.623 -0.339,2.752 -1.818,5.454 -4.431,8.127 -2.452,2.498 -5.486,4.548 -9.101,6.137 -3.688,1.61 -7.237,2.41 -10.658,2.425 -3.74,0.005 -6.769,-0.978 -9.082,-2.972 -1.108,-0.934 -2.107,-2.038 -3.005,-3.319 -1.011,-1.395 -1.636,-2.645 -1.87,-3.734 -0.637,-2.852 -0.331,-6.077 0.921,-9.664 1.216,-3.468 2.818,-5.978 4.815,-7.531 2.467,-1.88 4.377,-4.062 5.737,-6.523 1.36,-2.421 2.259,-5.278 2.716,-8.575 0.113,-0.938 0.324,-1.985 0.629,-3.127 0.379,-1.507 0.755,-2.5 1.137,-2.972 0.938,-1.172 2.566,-1.525 4.879,-1.054 z"
         id="path109"
         style="fill:none;stroke:#f2b800;stroke-width:2.85299993;stroke-miterlimit:10" />
      <path
         d="m 191.681,388.803 c 0.937,2.119 1.703,4.166 2.3,6.133 1.905,6.311 1.748,10.639 -0.481,12.987 l 12.934,-6.02 3.181,-10.463 c -0.681,-0.808 -1.531,-1.735 -2.559,-2.762 -2.028,-2.072 -3.864,-3.673 -5.53,-4.799 l -11.082,2.325 1.237,2.599 z"
         id="path111"
         style="fill:#fcdf00" />
      <path
         d="m 202.402,387.21 c -2.313,-0.471 -3.941,-0.118 -4.879,1.053 -0.382,0.472 -0.758,1.465 -1.137,2.972 -0.305,1.142 -0.516,2.188 -0.629,3.127 -0.457,3.297 -1.356,6.154 -2.716,8.575 -1.36,2.462 -3.27,4.644 -5.737,6.523 -1.997,1.554 -3.599,4.063 -4.815,7.531 -1.252,3.587 -1.558,6.812 -0.921,9.664 0.234,1.09 0.859,2.34 1.87,3.734 0.898,1.281 1.897,2.386 3.005,3.319 2.313,1.994 5.342,2.977 9.082,2.972 3.421,-0.015 6.97,-0.814 10.658,-2.425 3.615,-1.589 6.649,-3.639 9.101,-6.137 2.613,-2.673 4.092,-5.375 4.431,-8.127 0.404,-3.23 0.239,-6.442 -0.499,-9.623 -0.483,-2.096 -1.528,-5.172 -3.124,-9.239 -0.568,-1.432 -1.701,-3.376 -3.42,-5.83 -1.759,-2.522 -3.198,-4.253 -4.31,-5.197 -1.793,-1.506 -3.779,-2.472 -5.96,-2.892"
         id="path113"
         style="fill:#fcdf00" />
      <path
         d="m 195.073,434.235 c 0.644,-3.587 0.292,-5.973 -1.031,-7.153 -2.185,-1.95 -5.163,-2.199 -8.927,-0.758 -1.027,0.392 -2.556,1.057 -4.587,2.005 -1.777,0.771 -3.21,1.214 -4.3,1.329 -2.275,0.25 -3.532,0.415 -3.765,0.492 -1.36,0.489 -1.611,1.485 -0.739,2.992 0.537,0.931 1.711,1.611 3.528,2.026 0.974,0.219 2.41,0.385 4.293,0.511 -0.561,0.854 -1.475,2.119 -2.736,3.785 -0.955,1.529 -1.314,3.029 -1.077,4.498 0.514,1.674 2.059,2.065 4.659,1.169 2.266,-0.783 4.237,-2.012 5.913,-3.672 -0.558,0.725 -0.793,2.056 -0.718,3.977 0.057,1.983 0.439,3.263 1.143,3.857 1.533,1.29 3.037,0.542 4.502,-2.245 1.003,-1.932 1.767,-4.201 2.276,-6.807 0.692,-2.153 1.212,-4.159 1.566,-6.006"
         id="path115"
         style="fill:#fcdf00" />
      <path
         d="m 195.073,434.235 c -0.354,1.847 -0.874,3.853 -1.566,6.007 -0.509,2.605 -1.273,4.875 -2.276,6.807 -1.465,2.787 -2.969,3.535 -4.502,2.245 -0.704,-0.595 -1.086,-1.874 -1.143,-3.857 -0.075,-1.921 0.16,-3.252 0.718,-3.977 -1.676,1.66 -3.647,2.889 -5.913,3.672 -2.6,0.896 -4.145,0.505 -4.659,-1.169 -0.237,-1.469 0.122,-2.969 1.077,-4.498 1.261,-1.666 2.175,-2.932 2.736,-3.785 -1.883,-0.126 -3.319,-0.292 -4.293,-0.511 -1.817,-0.415 -2.991,-1.096 -3.528,-2.026 -0.872,-1.507 -0.621,-2.503 0.739,-2.992 0.233,-0.077 1.49,-0.242 3.765,-0.492 1.09,-0.115 2.523,-0.559 4.3,-1.329 2.031,-0.948 3.56,-1.613 4.587,-2.005 3.764,-1.441 6.742,-1.192 8.927,0.758 1.323,1.18 1.675,3.565 1.031,7.152 z"
         id="path117"
         style="fill:none;stroke:#f2b800;stroke-width:1.51600003;stroke-miterlimit:10" />
      <path
         d="m 111.664,390.193 c 0.71,0.34 1.464,0.655 2.261,0.932 0.241,0.086 0.476,0.167 0.702,0.241 1.201,0.378 2.488,0.69 3.871,0.933 2.164,0.637 4.167,1.109 6.02,1.417 3.58,0.553 5.95,0.153 7.101,-1.202 1.888,-2.229 2.07,-5.188 0.539,-8.897 -0.404,-1.021 -1.108,-2.522 -2.099,-4.523 -0.041,-0.089 -0.08,-0.164 -0.118,-0.238 -0.267,-0.589 -0.49,-1.142 -0.672,-1.655 -0.339,-0.901 -0.549,-1.693 -0.633,-2.357 -0.306,-2.254 -0.5,-3.493 -0.581,-3.73 -0.521,-1.354 -1.52,-1.58 -2.999,-0.67 -0.925,0.559 -1.567,1.751 -1.929,3.564 -0.195,0.973 -0.339,2.396 -0.417,4.282 -0.858,-0.536 -2.134,-1.416 -3.827,-2.633 -1.544,-0.915 -3.046,-1.235 -4.504,-0.971 -1.652,0.558 -2.013,2.115 -1.062,4.673 0.839,2.238 2.106,4.172 3.804,5.792 -0.739,-0.539 -2.062,-0.738 -3.979,-0.614 -1.975,0.104 -3.245,0.514 -3.814,1.229 -1.244,1.555 -0.462,3.033 2.336,4.427"
         id="path119"
         style="fill:#fcdf00" />
      <path
         d="m 111.664,390.193 c -2.798,-1.395 -3.579,-2.872 -2.336,-4.429 0.569,-0.716 1.839,-1.125 3.814,-1.229 1.917,-0.124 3.24,0.075 3.979,0.614 -1.698,-1.62 -2.965,-3.554 -3.804,-5.792 -0.951,-2.558 -0.59,-4.115 1.062,-4.673 1.458,-0.265 2.96,0.056 4.504,0.971 1.693,1.217 2.969,2.097 3.827,2.633 0.078,-1.886 0.222,-3.31 0.417,-4.282 0.362,-1.813 1.004,-3.006 1.929,-3.564 1.479,-0.91 2.478,-0.685 2.999,0.67 0.081,0.237 0.275,1.477 0.581,3.73 0.084,0.664 0.293,1.456 0.633,2.357 0.182,0.514 0.405,1.066 0.672,1.655 0.038,0.074 0.077,0.149 0.118,0.238 0.991,2.001 1.694,3.503 2.099,4.523 1.531,3.709 1.349,6.668 -0.539,8.897 -1.151,1.355 -3.521,1.755 -7.101,1.202 -1.853,-0.308 -3.857,-0.78 -6.02,-1.417 -1.383,-0.242 -2.67,-0.555 -3.871,-0.933 -0.226,-0.074 -0.461,-0.155 -0.702,-0.241 -0.798,-0.274 -1.551,-0.59 -2.261,-0.93 z"
         id="path121"
         style="fill:none;stroke:#f2b800;stroke-width:1.50999999;stroke-miterlimit:10" />
      <path
         d="m 130.502,375.587 c 0.297,-0.002 0.637,-0.018 1.03,-0.056 0.286,-0.033 0.685,-0.079 1.203,-0.127 0.014,-0.002 0.026,-0.003 0.04,-0.006 0.062,-0.177 0.171,-0.389 0.325,-0.64 0.14,-0.236 0.244,-0.407 0.312,-0.532 -0.057,-0.031 -0.126,-0.082 -0.195,-0.146 -0.133,-0.124 -0.226,-0.204 -0.262,-0.232 -0.039,-0.028 -0.113,-0.072 -0.222,-0.129 -0.075,-0.044 -0.162,-0.084 -0.271,-0.144 -0.256,-0.132 -0.417,-0.229 -0.486,-0.279 -0.068,-0.052 -0.204,-0.105 -0.387,-0.16 -0.183,-0.054 -0.313,-0.103 -0.38,-0.154 -0.052,-0.039 -0.231,-0.101 -0.531,-0.171 -0.293,-0.065 -0.515,-0.163 -0.659,-0.269 -0.068,-0.051 -0.159,-0.071 -0.277,-0.054 -0.106,0.016 -0.197,-0.007 -0.264,-0.057 -0.19,-0.142 -0.383,-0.355 -0.601,-0.647 -0.21,-0.285 -0.405,-0.502 -0.584,-0.637 -0.068,-0.05 -0.106,-0.112 -0.113,-0.179 -0.011,-0.066 -0.046,-0.127 -0.116,-0.179 -0.021,-0.018 -0.27,-0.38 -0.749,-1.077 -0.653,-0.405 -1.046,-0.651 -1.183,-0.753 -0.066,-0.05 -0.234,-0.141 -0.496,-0.265 -0.262,-0.136 -0.423,-0.221 -0.49,-0.272 -0.07,-0.052 -0.183,-0.087 -0.341,-0.113 -0.145,-0.026 -0.26,-0.064 -0.328,-0.114 -0.068,-0.05 -0.118,-0.064 -0.154,-0.046 -0.033,0.011 -0.09,-0.005 -0.158,-0.056 -0.067,-0.051 -0.15,-0.066 -0.268,-0.048 -0.107,0.015 -0.199,-0.007 -0.266,-0.058 -0.12,-0.09 -0.958,-0.196 -2.527,-0.319 -1.569,-0.123 -2.415,-0.235 -2.543,-0.331 -0.068,-0.051 -0.286,-0.155 -0.655,-0.323 -0.368,-0.169 -0.59,-0.285 -0.656,-0.336 -0.135,-0.103 -0.925,-0.749 -2.374,-1.948 -0.067,-0.051 -0.141,-0.141 -0.221,-0.27 -0.08,-0.132 -0.153,-0.222 -0.222,-0.272 -0.021,-0.016 -0.212,-0.252 -0.576,-0.712 -0.388,-0.49 -0.668,-0.792 -0.835,-0.917 -0.066,-0.05 -0.304,-0.192 -0.702,-0.431 -0.397,-0.239 -0.63,-0.387 -0.697,-0.438 -0.069,-0.05 -0.205,-0.105 -0.388,-0.159 -0.183,-0.054 -0.313,-0.117 -0.383,-0.168 -0.105,-0.078 -0.356,-0.041 -0.766,0.112 -0.371,0.136 -0.583,0.249 -0.64,0.324 -0.034,0.045 -0.152,0.108 -0.348,0.199 -0.191,0.08 -0.293,0.123 -0.298,0.13 -0.051,0.068 -0.105,0.11 -0.16,0.105 -0.061,0.002 -0.11,0.036 -0.16,0.103 -0.052,0.068 -0.103,0.091 -0.161,0.058 -0.059,-0.033 -0.104,-0.019 -0.155,0.05 -0.029,0.037 -0.196,0.088 -0.493,0.138 -0.296,0.05 -0.574,0.077 -0.83,0.088 0.016,0.327 0.021,0.51 0.021,0.556 -0.003,0.116 -0.048,0.223 -0.127,0.329 -0.045,0.061 -0.099,0.101 -0.162,0.138 l -5.927,29.206 c 4.331,5.384 9.602,7.363 15.788,5.938 l 14.068,-23.25 z"
         id="path123"
         style="fill:#f7f19b" />
      <path
         d="m 130.502,375.587 -14.068,23.251 c -6.186,1.426 -11.457,-0.554 -15.788,-5.938 l 5.927,-29.206 c 0.063,-0.037 0.117,-0.077 0.162,-0.138 0.079,-0.106 0.124,-0.213 0.127,-0.329 0,-0.046 -0.005,-0.229 -0.021,-0.556 0.256,-0.011 0.534,-0.038 0.83,-0.088 0.297,-0.05 0.464,-0.101 0.493,-0.138 0.051,-0.069 0.096,-0.083 0.155,-0.05 0.058,0.033 0.109,0.01 0.161,-0.058 0.05,-0.067 0.099,-0.101 0.16,-0.103 0.055,0.005 0.109,-0.037 0.16,-0.105 0.005,-0.007 0.107,-0.05 0.298,-0.13 0.196,-0.091 0.314,-0.154 0.348,-0.199 0.057,-0.075 0.269,-0.188 0.64,-0.324 0.41,-0.153 0.661,-0.19 0.766,-0.112 0.07,0.051 0.2,0.114 0.383,0.168 0.183,0.054 0.319,0.109 0.388,0.159 0.067,0.051 0.3,0.199 0.697,0.438 0.398,0.239 0.636,0.381 0.702,0.431 0.167,0.125 0.447,0.427 0.835,0.917 0.364,0.46 0.555,0.696 0.576,0.712 0.069,0.05 0.142,0.14 0.222,0.272 0.08,0.129 0.154,0.219 0.221,0.27 1.449,1.199 2.239,1.845 2.374,1.948 0.066,0.051 0.288,0.167 0.656,0.336 0.369,0.168 0.587,0.272 0.655,0.323 0.128,0.096 0.974,0.208 2.543,0.331 1.569,0.123 2.407,0.229 2.527,0.319 0.067,0.051 0.159,0.073 0.266,0.058 0.118,-0.018 0.201,-0.003 0.269,0.048 0.067,0.051 0.124,0.067 0.157,0.056 0.036,-0.018 0.086,-0.004 0.154,0.046 0.068,0.05 0.183,0.088 0.328,0.114 0.158,0.026 0.271,0.061 0.341,0.113 0.067,0.051 0.228,0.136 0.49,0.272 0.262,0.124 0.43,0.215 0.496,0.265 0.137,0.102 0.53,0.348 1.183,0.753 0.479,0.697 0.728,1.06 0.749,1.077 0.07,0.052 0.105,0.112 0.116,0.179 0.007,0.066 0.045,0.129 0.113,0.179 0.179,0.135 0.374,0.352 0.584,0.637 0.218,0.292 0.411,0.506 0.601,0.647 0.067,0.05 0.158,0.072 0.264,0.057 0.118,-0.018 0.209,0.003 0.278,0.054 0.143,0.105 0.365,0.203 0.658,0.269 0.3,0.07 0.479,0.132 0.531,0.171 0.067,0.052 0.197,0.101 0.38,0.154 0.183,0.055 0.319,0.108 0.387,0.16 0.069,0.051 0.23,0.147 0.486,0.279 0.109,0.06 0.196,0.1 0.271,0.144 0.109,0.057 0.183,0.101 0.222,0.129 0.036,0.028 0.129,0.108 0.262,0.232 0.069,0.063 0.138,0.114 0.195,0.146 -0.068,0.125 -0.172,0.296 -0.312,0.532 -0.154,0.251 -0.263,0.463 -0.325,0.64 -0.014,0.003 -0.026,0.004 -0.04,0.006 -0.518,0.048 -0.917,0.094 -1.203,0.127 -0.392,0.037 -0.733,0.053 -1.03,0.055 z"
         id="path125"
         style="fill:none;stroke:#f2b800;stroke-width:0.189;stroke-linecap:round;stroke-linejoin:round;stroke-miterlimit:10" />
      <polygon
         points="126.788,354.934 105.275,388.56 107.409,389.928 128.818,356.317 "
         id="polygon127"
         style="fill:#ffffff" />
      <polyline
         style="fill:none;stroke:#78a0d4;stroke-width:1.32099998;stroke-linecap:round;stroke-linejoin:round;stroke-miterlimit:10"
         points="   126.788,354.934 105.275,388.56 107.409,389.928 128.818,356.317  "
         id="polyline129" />
      <path
         d="m 113.857,381.963 c 0.254,-0.199 0.649,-0.129 1.191,0.217 0.536,0.341 1.068,0.843 1.582,1.509 0.514,0.668 0.872,1.311 1.069,1.929 0.196,0.604 0.172,1 -0.082,1.198 -0.247,0.191 -0.651,0.116 -1.191,-0.217 -0.543,-0.347 -1.075,-0.848 -1.59,-1.516 -0.514,-0.667 -0.87,-1.308 -1.061,-1.922 -0.195,-0.605 -0.167,-1.009 0.082,-1.198"
         id="path131"
         style="fill:#f8ec00" />
      <path
         d="m 115.048,382.18 c 0.536,0.341 1.068,0.843 1.583,1.509 0.513,0.668 0.871,1.311 1.068,1.929 0.196,0.604 0.172,1 -0.082,1.198 -0.247,0.191 -0.651,0.116 -1.191,-0.217 -0.543,-0.347 -1.075,-0.848 -1.59,-1.516 -0.514,-0.667 -0.87,-1.309 -1.061,-1.922 -0.196,-0.605 -0.166,-1.009 0.082,-1.198 0.254,-0.199 0.649,-0.129 1.191,0.217 z"
         id="path133"
         style="fill:none;stroke:#f49d00;stroke-width:0.377;stroke-linecap:round;stroke-linejoin:round;stroke-miterlimit:10" />
      <path
         d="m 107.305,389.943 c 0.069,-0.314 0.418,-0.514 1.052,-0.593 0.628,-0.085 1.365,-0.044 2.186,0.133 0.821,0.178 1.499,0.437 2.041,0.782 0.54,0.334 0.784,0.657 0.715,0.969 -0.069,0.313 -0.418,0.513 -1.054,0.604 -0.634,0.08 -1.356,0.037 -2.176,-0.14 -0.823,-0.177 -1.515,-0.435 -2.049,-0.775 -0.543,-0.346 -0.785,-0.667 -0.715,-0.98"
         id="path135"
         style="fill:#f8ec00" />
      <path
         d="m 108.357,389.351 c 0.628,-0.085 1.364,-0.044 2.186,0.133 0.82,0.178 1.499,0.437 2.041,0.782 0.54,0.334 0.784,0.656 0.714,0.969 -0.068,0.313 -0.418,0.512 -1.053,0.604 -0.635,0.08 -1.356,0.037 -2.177,-0.14 -0.822,-0.177 -1.514,-0.435 -2.048,-0.775 -0.543,-0.346 -0.785,-0.668 -0.715,-0.979 0.069,-0.316 0.418,-0.515 1.052,-0.594 z"
         id="path137"
         style="fill:none;stroke:#f49d00;stroke-width:0.377;stroke-linecap:round;stroke-linejoin:round;stroke-miterlimit:10" />
      <path
         d="m 106.692,374.015 c 0.055,-0.312 0.396,-0.528 1.026,-0.646 0.622,-0.125 1.357,-0.117 2.187,0.018 0.83,0.136 1.523,0.357 2.079,0.668 0.557,0.311 0.82,0.624 0.764,0.935 -0.051,0.304 -0.389,0.522 -1.017,0.654 -0.631,0.119 -1.359,0.116 -2.189,-0.019 -0.829,-0.137 -1.521,-0.358 -2.079,-0.669 -0.564,-0.316 -0.819,-0.637 -0.771,-0.941"
         id="path139"
         style="fill:#f8ec00" />
      <path
         d="m 107.719,373.368 c 0.622,-0.125 1.357,-0.117 2.187,0.018 0.83,0.136 1.523,0.358 2.079,0.669 0.557,0.31 0.819,0.623 0.763,0.934 -0.05,0.304 -0.388,0.522 -1.016,0.654 -0.632,0.119 -1.36,0.116 -2.189,-0.019 -0.829,-0.137 -1.522,-0.358 -2.08,-0.669 -0.564,-0.315 -0.82,-0.636 -0.77,-0.94 0.055,-0.312 0.396,-0.529 1.026,-0.647 z"
         id="path141"
         style="fill:none;stroke:#f49d00;stroke-width:0.377;stroke-linecap:round;stroke-linejoin:round;stroke-miterlimit:10" />
      <path
         d="m 122.576,376.539 c -0.777,-0.332 -1.483,-0.505 -2.125,-0.527 -0.633,-0.035 -1.012,0.094 -1.138,0.389 -0.126,0.295 0.049,0.66 0.524,1.096 0.466,0.433 1.088,0.801 1.863,1.132 0.778,0.333 1.484,0.507 2.129,0.54 0.63,0.023 1.011,-0.105 1.136,-0.399 0.124,-0.296 -0.056,-0.654 -0.522,-1.085 -0.467,-0.432 -1.089,-0.815 -1.867,-1.146"
         id="path143"
         style="fill:#f8ec00" />
      <path
         d="m 122.576,376.539 c 0.778,0.331 1.4,0.714 1.867,1.145 0.466,0.431 0.646,0.789 0.522,1.085 -0.125,0.294 -0.506,0.423 -1.136,0.399 -0.645,-0.033 -1.351,-0.207 -2.129,-0.54 -0.775,-0.331 -1.397,-0.699 -1.863,-1.132 -0.475,-0.436 -0.65,-0.801 -0.524,-1.096 0.126,-0.295 0.505,-0.424 1.138,-0.389 0.642,0.023 1.348,0.196 2.125,0.528 z"
         id="path145"
         style="fill:none;stroke:#f49d00;stroke-width:0.377;stroke-linecap:round;stroke-linejoin:round;stroke-miterlimit:10" />
      <path
         d="m 119.063,362.545 c 0.032,-0.389 0.352,-0.598 0.954,-0.631 0.587,-0.045 1.275,0.091 2.075,0.406 0.809,0.321 1.482,0.729 2.024,1.217 0.558,0.498 0.819,0.939 0.793,1.32 -0.029,0.402 -0.335,0.623 -0.931,0.647 -0.577,0.065 -1.27,-0.063 -2.073,-0.392 -0.801,-0.315 -1.482,-0.728 -2.038,-1.227 -0.559,-0.499 -0.827,-0.945 -0.804,-1.34"
         id="path147"
         style="fill:#f8ec00" />
      <path
         d="m 120.017,361.914 c 0.587,-0.045 1.275,0.091 2.076,0.406 0.808,0.321 1.481,0.729 2.023,1.217 0.558,0.498 0.819,0.939 0.794,1.319 -0.03,0.403 -0.335,0.623 -0.932,0.648 -0.576,0.065 -1.27,-0.064 -2.073,-0.392 -0.801,-0.315 -1.482,-0.728 -2.038,-1.227 -0.559,-0.499 -0.827,-0.946 -0.804,-1.34 0.033,-0.389 0.352,-0.598 0.954,-0.631 z"
         id="path149"
         style="fill:none;stroke:#f49d00;stroke-width:0.377;stroke-linecap:round;stroke-linejoin:round;stroke-miterlimit:10" />
      <path
         d="m 125.574,363.444 c 0.186,-0.248 0.585,-0.28 1.2,-0.093 0.619,0.18 1.268,0.511 1.939,0.999 0.666,0.51 1.187,1.028 1.534,1.556 0.348,0.531 0.43,0.924 0.245,1.173 -0.185,0.262 -0.591,0.302 -1.204,0.116 -0.605,-0.17 -1.246,-0.509 -1.915,-1.018 -0.679,-0.494 -1.192,-1.005 -1.553,-1.546 -0.348,-0.531 -0.431,-0.922 -0.246,-1.187"
         id="path151"
         style="fill:#f8ec00" />
      <path
         d="m 126.774,363.352 c 0.619,0.18 1.268,0.511 1.938,0.999 0.667,0.51 1.187,1.027 1.535,1.556 0.347,0.531 0.429,0.924 0.245,1.173 -0.185,0.262 -0.591,0.301 -1.204,0.116 -0.605,-0.17 -1.246,-0.509 -1.915,-1.018 -0.679,-0.494 -1.192,-1.006 -1.554,-1.547 -0.347,-0.53 -0.43,-0.922 -0.245,-1.186 0.185,-0.248 0.586,-0.281 1.2,-0.093 z"
         id="path153"
         style="fill:none;stroke:#f49d00;stroke-width:0.377;stroke-linecap:round;stroke-linejoin:round;stroke-miterlimit:10" />
      <path
         d="m 123.591,363.168 c 0.209,-0.233 0.608,-0.219 1.206,0.039 0.59,0.253 1.194,0.655 1.817,1.227 0.618,0.577 1.062,1.146 1.361,1.71 0.292,0.571 0.324,0.971 0.116,1.204 -0.221,0.249 -0.625,0.239 -1.218,-0.025 -0.588,-0.238 -1.186,-0.637 -1.802,-1.215 -0.615,-0.564 -1.069,-1.139 -1.377,-1.721 -0.293,-0.573 -0.324,-0.972 -0.103,-1.219"
         id="path155"
         style="fill:#f8ec00" />
      <path
         d="m 124.797,363.207 c 0.59,0.253 1.194,0.655 1.817,1.227 0.618,0.577 1.063,1.146 1.362,1.71 0.292,0.571 0.323,0.971 0.116,1.204 -0.222,0.249 -0.626,0.239 -1.219,-0.025 -0.587,-0.238 -1.185,-0.637 -1.802,-1.215 -0.614,-0.564 -1.069,-1.139 -1.377,-1.721 -0.293,-0.573 -0.324,-0.972 -0.103,-1.219 0.209,-0.233 0.609,-0.219 1.206,0.039 z"
         id="path157"
         style="fill:none;stroke:#f49d00;stroke-width:0.377;stroke-linecap:round;stroke-linejoin:round;stroke-miterlimit:10" />
      <path
         d="m 111.701,360.703 c 0.156,-0.272 0.549,-0.357 1.178,-0.252 0.634,0.096 1.318,0.348 2.051,0.753 0.735,0.42 1.319,0.867 1.741,1.346 0.405,0.48 0.541,0.85 0.392,1.129 -0.153,0.285 -0.551,0.377 -1.188,0.268 -0.627,-0.092 -1.303,-0.337 -2.038,-0.757 -0.732,-0.391 -1.317,-0.839 -1.747,-1.337 -0.407,-0.48 -0.543,-0.865 -0.389,-1.15"
         id="path159"
         style="fill:#f8ec00" />
      <path
         d="m 112.879,360.451 c 0.634,0.096 1.318,0.348 2.051,0.753 0.735,0.42 1.32,0.867 1.741,1.346 0.405,0.48 0.541,0.85 0.393,1.129 -0.153,0.285 -0.552,0.376 -1.189,0.268 -0.627,-0.092 -1.303,-0.337 -2.038,-0.757 -0.732,-0.391 -1.316,-0.839 -1.747,-1.337 -0.406,-0.48 -0.543,-0.865 -0.389,-1.15 0.156,-0.273 0.549,-0.357 1.178,-0.252 z"
         id="path161"
         style="fill:none;stroke:#f49d00;stroke-width:0.377;stroke-linecap:round;stroke-linejoin:round;stroke-miterlimit:10" />
      <path
         d="m 130.262,367.53 c 0.299,-0.07 0.619,0.181 0.963,0.729 0.353,0.538 0.621,1.219 0.802,2.036 0.174,0.823 0.21,1.548 0.129,2.181 -0.085,0.632 -0.284,0.978 -0.584,1.048 -0.319,0.08 -0.644,-0.161 -0.987,-0.712 -0.346,-0.529 -0.599,-1.201 -0.774,-2.025 -0.184,-0.81 -0.239,-1.544 -0.157,-2.191 0.085,-0.631 0.281,-0.991 0.608,-1.066"
         id="path163"
         style="fill:#f8ec00" />
      <path
         d="m 131.225,368.26 c 0.354,0.537 0.621,1.219 0.802,2.035 0.175,0.823 0.21,1.547 0.129,2.181 -0.085,0.632 -0.284,0.978 -0.584,1.048 -0.319,0.08 -0.644,-0.16 -0.987,-0.712 -0.346,-0.529 -0.599,-1.201 -0.774,-2.025 -0.184,-0.81 -0.239,-1.544 -0.157,-2.19 0.085,-0.631 0.281,-0.99 0.608,-1.065 0.299,-0.072 0.619,0.179 0.963,0.728 z"
         id="path165"
         style="fill:none;stroke:#f49d00;stroke-width:0.377;stroke-linecap:round;stroke-linejoin:round;stroke-miterlimit:10" />
      <path
         d="m 122.311,366.227 c 0.148,-0.278 0.539,-0.375 1.178,-0.287 0.631,0.071 1.324,0.295 2.072,0.677 0.752,0.383 1.347,0.802 1.781,1.279 0.424,0.471 0.573,0.841 0.432,1.124 -0.14,0.283 -0.531,0.38 -1.171,0.291 -0.63,-0.057 -1.316,-0.287 -2.067,-0.67 -0.744,-0.378 -1.336,-0.798 -1.785,-1.284 -0.439,-0.469 -0.583,-0.847 -0.44,-1.13"
         id="path167"
         style="fill:#f8ec00" />
      <path
         d="m 123.488,365.939 c 0.631,0.071 1.324,0.295 2.073,0.677 0.751,0.384 1.346,0.802 1.78,1.279 0.424,0.471 0.573,0.841 0.433,1.124 -0.141,0.283 -0.532,0.38 -1.172,0.291 -0.63,-0.057 -1.316,-0.287 -2.067,-0.67 -0.743,-0.378 -1.336,-0.798 -1.785,-1.284 -0.439,-0.469 -0.581,-0.847 -0.44,-1.13 0.149,-0.277 0.539,-0.374 1.178,-0.287 z"
         id="path169"
         style="fill:none;stroke:#f49d00;stroke-width:0.377;stroke-linecap:round;stroke-linejoin:round;stroke-miterlimit:10" />
      <path
         d="m 116.544,361.819 c 0.248,-0.191 0.636,-0.113 1.174,0.241 0.548,0.337 1.08,0.84 1.595,1.507 0.508,0.675 0.859,1.312 1.055,1.917 0.195,0.605 0.166,1.008 -0.082,1.199 -0.255,0.199 -0.659,0.121 -1.2,-0.223 -0.534,-0.328 -1.057,-0.825 -1.574,-1.504 -0.508,-0.661 -0.863,-1.305 -1.069,-1.929 -0.194,-0.605 -0.152,-1.01 0.101,-1.208"
         id="path171"
         style="fill:#f8ec00" />
      <path
         d="m 117.719,362.061 c 0.548,0.337 1.08,0.84 1.595,1.507 0.508,0.675 0.859,1.311 1.054,1.917 0.196,0.604 0.166,1.008 -0.082,1.199 -0.254,0.198 -0.658,0.121 -1.2,-0.224 -0.533,-0.327 -1.056,-0.824 -1.573,-1.503 -0.508,-0.662 -0.863,-1.305 -1.069,-1.929 -0.196,-0.606 -0.154,-1.01 0.101,-1.208 0.247,-0.193 0.636,-0.113 1.174,0.241 z"
         id="path173"
         style="fill:none;stroke:#f49d00;stroke-width:0.377;stroke-linecap:round;stroke-linejoin:round;stroke-miterlimit:10" />
      <path
         d="m 107.055,361.676 c -0.07,-0.301 0.166,-0.631 0.71,-0.966 0.535,-0.354 1.201,-0.635 2.009,-0.818 0.833,-0.183 1.559,-0.241 2.184,-0.163 0.631,0.083 0.976,0.269 1.047,0.569 0.079,0.319 -0.156,0.649 -0.7,0.985 -0.515,0.358 -1.19,0.632 -2.006,0.812 -0.815,0.192 -1.541,0.251 -2.188,0.17 -0.633,-0.084 -0.983,-0.276 -1.056,-0.589"
         id="path175"
         style="fill:#f8ec00" />
      <path
         d="m 107.765,360.71 c 0.535,-0.354 1.201,-0.635 2.009,-0.818 0.833,-0.183 1.559,-0.242 2.184,-0.163 0.631,0.083 0.976,0.269 1.047,0.569 0.079,0.319 -0.156,0.649 -0.7,0.985 -0.515,0.358 -1.19,0.632 -2.006,0.812 -0.815,0.192 -1.541,0.251 -2.188,0.17 -0.633,-0.084 -0.983,-0.277 -1.056,-0.589 -0.07,-0.301 0.166,-0.631 0.71,-0.966 z"
         id="path177"
         style="fill:none;stroke:#f49d00;stroke-width:0.377;stroke-linecap:round;stroke-linejoin:round;stroke-miterlimit:10" />
      <path
         d="m 118.492,367.1 c 0.092,-0.297 0.452,-0.464 1.092,-0.504 0.64,-0.053 1.362,0.039 2.171,0.266 0.81,0.239 1.468,0.541 1.975,0.919 0.52,0.376 0.737,0.715 0.644,1.01 -0.075,0.309 -0.434,0.489 -1.088,0.531 -0.62,0.058 -1.34,-0.034 -2.152,-0.274 -0.808,-0.226 -1.472,-0.533 -1.999,-0.916 -0.513,-0.371 -0.725,-0.718 -0.643,-1.032"
         id="path179"
         style="fill:#f8ec00" />
      <path
         d="m 119.584,366.596 c 0.641,-0.053 1.362,0.039 2.171,0.266 0.81,0.239 1.468,0.541 1.975,0.919 0.521,0.376 0.737,0.714 0.645,1.01 -0.076,0.309 -0.435,0.489 -1.088,0.531 -0.621,0.058 -1.341,-0.034 -2.153,-0.274 -0.807,-0.226 -1.472,-0.533 -1.999,-0.916 -0.513,-0.37 -0.725,-0.717 -0.643,-1.031 0.092,-0.298 0.452,-0.465 1.092,-0.505 z"
         id="path181"
         style="fill:none;stroke:#f49d00;stroke-width:0.377;stroke-linecap:round;stroke-linejoin:round;stroke-miterlimit:10" />
      <path
         d="m 126.589,368.76 c 0.25,-0.192 0.639,-0.112 1.174,0.239 0.549,0.339 1.079,0.842 1.596,1.51 0.509,0.674 0.858,1.312 1.053,1.915 0.197,0.607 0.169,1.009 -0.082,1.199 -0.252,0.199 -0.655,0.123 -1.198,-0.224 -0.532,-0.326 -1.055,-0.823 -1.575,-1.504 -0.507,-0.661 -0.863,-1.303 -1.069,-1.927 -0.195,-0.605 -0.154,-1.01 0.101,-1.208"
         id="path183"
         style="fill:#f8ec00" />
      <path
         d="m 127.763,368.999 c 0.549,0.339 1.08,0.842 1.596,1.51 0.509,0.674 0.858,1.312 1.053,1.915 0.197,0.606 0.169,1.009 -0.082,1.199 -0.252,0.198 -0.655,0.123 -1.197,-0.224 -0.533,-0.326 -1.056,-0.823 -1.576,-1.505 -0.506,-0.66 -0.863,-1.302 -1.069,-1.926 -0.195,-0.606 -0.154,-1.011 0.101,-1.209 0.25,-0.192 0.639,-0.112 1.174,0.24 z"
         id="path185"
         style="fill:none;stroke:#f49d00;stroke-width:0.377;stroke-linecap:round;stroke-linejoin:round;stroke-miterlimit:10" />
      <path
         d="m 108.262,363.071 c 0.002,-0.317 0.301,-0.576 0.904,-0.784 0.603,-0.225 1.323,-0.322 2.167,-0.317 0.836,-0.001 1.554,0.125 2.153,0.348 0.6,0.224 0.901,0.482 0.9,0.799 -10e-4,0.318 -0.305,0.584 -0.916,0.802 -0.596,0.215 -1.317,0.312 -2.153,0.312 -0.843,-0.005 -1.568,-0.122 -2.168,-0.345 -0.599,-0.222 -0.888,-0.498 -0.887,-0.815"
         id="path187"
         style="fill:#f8ec00" />
      <path
         d="m 109.166,362.287 c 0.603,-0.225 1.323,-0.322 2.167,-0.316 0.836,-10e-4 1.555,0.125 2.153,0.347 0.6,0.224 0.901,0.483 0.9,0.799 -10e-4,0.318 -0.305,0.584 -0.915,0.802 -0.597,0.215 -1.318,0.312 -2.154,0.312 -0.843,-0.005 -1.568,-0.122 -2.168,-0.344 -0.599,-0.223 -0.888,-0.498 -0.887,-0.816 0.003,-0.317 0.301,-0.576 0.904,-0.784 z"
         id="path189"
         style="fill:none;stroke:#f49d00;stroke-width:0.377;stroke-linecap:round;stroke-linejoin:round;stroke-miterlimit:10" />
      <path
         d="m 115.244,364.288 c 0.254,-0.199 0.649,-0.129 1.192,0.217 0.535,0.34 1.067,0.844 1.581,1.51 0.515,0.667 0.873,1.31 1.069,1.929 0.196,0.604 0.173,0.998 -0.08,1.198 -0.249,0.19 -0.652,0.114 -1.193,-0.219 -0.542,-0.346 -1.072,-0.849 -1.588,-1.516 -0.516,-0.666 -0.874,-1.308 -1.062,-1.922 -0.195,-0.604 -0.167,-1.006 0.081,-1.197"
         id="path191"
         style="fill:#f8ec00" />
      <path
         d="m 116.436,364.505 c 0.535,0.34 1.067,0.843 1.582,1.51 0.514,0.667 0.872,1.31 1.068,1.929 0.196,0.604 0.173,0.999 -0.08,1.199 -0.249,0.19 -0.652,0.114 -1.193,-0.219 -0.542,-0.346 -1.072,-0.849 -1.587,-1.516 -0.517,-0.666 -0.874,-1.308 -1.063,-1.922 -0.195,-0.605 -0.166,-1.006 0.081,-1.198 0.254,-0.199 0.649,-0.129 1.192,0.217 z"
         id="path193"
         style="fill:none;stroke:#f49d00;stroke-width:0.377;stroke-linecap:round;stroke-linejoin:round;stroke-miterlimit:10" />
      <path
         d="m 111.981,360.075 c 0.097,-0.304 0.465,-0.465 1.108,-0.491 0.631,-0.025 1.349,0.088 2.147,0.343 0.806,0.258 1.466,0.574 1.975,0.964 0.501,0.387 0.701,0.737 0.602,1.04 -0.091,0.295 -0.451,0.463 -1.094,0.49 -0.643,0.026 -1.361,-0.086 -2.169,-0.346 -0.798,-0.254 -1.451,-0.576 -1.953,-0.963 -0.5,-0.385 -0.708,-0.739 -0.616,-1.037"
         id="path195"
         style="fill:#f8ec00" />
      <path
         d="m 113.089,359.584 c 0.631,-0.024 1.349,0.088 2.147,0.343 0.805,0.259 1.465,0.574 1.975,0.965 0.501,0.386 0.701,0.736 0.602,1.04 -0.092,0.295 -0.452,0.463 -1.094,0.489 -0.644,0.026 -1.361,-0.086 -2.169,-0.346 -0.798,-0.254 -1.452,-0.576 -1.953,-0.963 -0.5,-0.384 -0.708,-0.739 -0.616,-1.037 0.096,-0.303 0.464,-0.465 1.108,-0.491 z"
         id="path197"
         style="fill:none;stroke:#f49d00;stroke-width:0.377;stroke-linecap:round;stroke-linejoin:round;stroke-miterlimit:10" />
      <path
         d="m 108.066,396.386 c 0.03,-0.308 0.345,-0.543 0.97,-0.7 0.623,-0.172 1.351,-0.218 2.178,-0.142 0.843,0.085 1.549,0.26 2.122,0.534 0.571,0.273 0.85,0.563 0.821,0.87 -0.028,0.323 -0.35,0.564 -0.974,0.723 -0.609,0.169 -1.324,0.213 -2.166,0.126 -0.835,-0.067 -1.546,-0.246 -2.133,-0.518 -0.565,-0.269 -0.838,-0.566 -0.818,-0.893"
         id="path199"
         style="fill:#f8ec00" />
      <path
         d="m 109.036,395.686 c 0.623,-0.172 1.351,-0.218 2.178,-0.142 0.843,0.085 1.549,0.26 2.121,0.534 0.572,0.273 0.851,0.563 0.822,0.871 -0.028,0.322 -0.35,0.563 -0.975,0.722 -0.608,0.169 -1.323,0.213 -2.165,0.126 -0.835,-0.067 -1.546,-0.246 -2.133,-0.518 -0.565,-0.27 -0.838,-0.566 -0.818,-0.894 0.03,-0.307 0.345,-0.542 0.97,-0.699 z"
         id="path201"
         style="fill:none;stroke:#f49d00;stroke-width:0.377;stroke-linecap:round;stroke-linejoin:round;stroke-miterlimit:10" />
      <path
         d="m 101.602,387.184 c 0.27,-0.152 0.645,-0.013 1.139,0.415 0.479,0.416 0.932,0.99 1.342,1.72 0.406,0.738 0.652,1.415 0.756,2.047 0.108,0.633 0.022,1.018 -0.26,1.171 -0.272,0.162 -0.657,0.028 -1.143,-0.393 -0.489,-0.401 -0.93,-0.978 -1.335,-1.715 -0.408,-0.728 -0.671,-1.419 -0.779,-2.063 -0.089,-0.622 0.008,-1.021 0.28,-1.182"
         id="path203"
         style="fill:#f8ec00" />
      <path
         d="m 102.741,387.599 c 0.479,0.416 0.933,0.99 1.343,1.72 0.405,0.738 0.652,1.415 0.756,2.047 0.108,0.633 0.021,1.018 -0.261,1.171 -0.272,0.162 -0.657,0.028 -1.142,-0.393 -0.49,-0.401 -0.931,-0.978 -1.336,-1.715 -0.408,-0.728 -0.671,-1.419 -0.778,-2.063 -0.09,-0.621 0.007,-1.021 0.279,-1.182 0.27,-0.153 0.645,-0.013 1.139,0.415 z"
         id="path205"
         style="fill:none;stroke:#f49d00;stroke-width:0.377;stroke-linecap:round;stroke-linejoin:round;stroke-miterlimit:10" />
      <path
         d="m 104.578,381.128 c 0.03,-0.309 0.354,-0.537 0.988,-0.677 0.625,-0.146 1.351,-0.17 2.187,-0.075 0.833,0.113 1.534,0.309 2.104,0.604 0.561,0.289 0.827,0.582 0.784,0.891 -0.028,0.32 -0.357,0.559 -0.992,0.696 -0.613,0.144 -1.337,0.17 -2.168,0.066 -0.83,-0.102 -1.533,-0.297 -2.116,-0.589 -0.57,-0.295 -0.821,-0.601 -0.787,-0.916"
         id="path207"
         style="fill:#f8ec00" />
      <path
         d="m 105.566,380.451 c 0.625,-0.146 1.351,-0.17 2.187,-0.075 0.833,0.113 1.535,0.309 2.105,0.604 0.56,0.289 0.826,0.582 0.783,0.891 -0.028,0.321 -0.357,0.56 -0.992,0.697 -0.613,0.143 -1.336,0.169 -2.167,0.065 -0.831,-0.102 -1.534,-0.297 -2.117,-0.589 -0.57,-0.295 -0.821,-0.601 -0.787,-0.916 0.03,-0.309 0.354,-0.537 0.988,-0.677 z"
         id="path209"
         style="fill:none;stroke:#f49d00;stroke-width:0.377;stroke-linecap:round;stroke-linejoin:round;stroke-miterlimit:10" />
      <path
         d="m 113.05,371.082 c 0.055,-0.313 0.393,-0.53 1.02,-0.643 0.627,-0.131 1.361,-0.137 2.188,-0.014 0.83,0.134 1.523,0.357 2.081,0.668 0.563,0.301 0.817,0.608 0.768,0.926 -0.035,0.316 -0.374,0.533 -1.018,0.654 -0.614,0.129 -1.335,0.135 -2.164,-10e-4 -0.828,-0.124 -1.525,-0.338 -2.105,-0.653 -0.556,-0.308 -0.805,-0.623 -0.77,-0.937"
         id="path211"
         style="fill:#f8ec00" />
      <path
         d="m 114.07,370.439 c 0.627,-0.131 1.361,-0.137 2.188,-0.014 0.83,0.134 1.523,0.357 2.081,0.668 0.563,0.302 0.817,0.608 0.768,0.926 -0.035,0.316 -0.374,0.533 -1.018,0.654 -0.614,0.129 -1.335,0.135 -2.164,-10e-4 -0.828,-0.124 -1.525,-0.337 -2.105,-0.652 -0.556,-0.31 -0.805,-0.624 -0.77,-0.938 0.055,-0.313 0.393,-0.53 1.02,-0.643 z"
         id="path213"
         style="fill:none;stroke:#f49d00;stroke-width:0.377;stroke-linecap:round;stroke-linejoin:round;stroke-miterlimit:10" />
      <path
         d="m 122.646,369.233 c 0.099,-0.306 0.474,-0.447 1.122,-0.447 0.638,-0.018 1.352,0.114 2.147,0.387 0.79,0.284 1.441,0.628 1.93,1.027 0.49,0.401 0.684,0.758 0.584,1.049 -0.101,0.312 -0.472,0.46 -1.12,0.46 -0.63,0.024 -1.343,-0.108 -2.133,-0.391 -0.797,-0.276 -1.446,-0.62 -1.952,-1.031 -0.491,-0.4 -0.683,-0.756 -0.578,-1.054"
         id="path215"
         style="fill:#f8ec00" />
      <path
         d="m 123.767,368.786 c 0.639,-0.018 1.352,0.114 2.147,0.388 0.791,0.284 1.441,0.628 1.93,1.027 0.491,0.401 0.684,0.758 0.585,1.049 -0.101,0.312 -0.473,0.46 -1.12,0.46 -0.63,0.024 -1.344,-0.108 -2.134,-0.391 -0.796,-0.276 -1.445,-0.62 -1.951,-1.031 -0.491,-0.401 -0.684,-0.757 -0.579,-1.055 0.099,-0.305 0.475,-0.447 1.122,-0.447 z"
         id="path217"
         style="fill:none;stroke:#f49d00;stroke-width:0.377;stroke-linecap:round;stroke-linejoin:round;stroke-miterlimit:10" />
      <path
         d="m 111.668,364.409 c -0.013,-0.314 0.286,-0.573 0.889,-0.796 0.607,-0.23 1.323,-0.354 2.157,-0.368 0.844,-0.008 1.565,0.097 2.169,0.311 0.598,0.21 0.899,0.47 0.904,0.781 0.005,0.321 -0.292,0.593 -0.893,0.816 -0.586,0.234 -1.297,0.35 -2.139,0.36 -0.841,0.019 -1.564,-0.083 -2.181,-0.297 -0.597,-0.21 -0.899,-0.483 -0.906,-0.807"
         id="path219"
         style="fill:#f8ec00" />
      <path
         d="m 112.557,363.613 c 0.607,-0.23 1.324,-0.354 2.158,-0.368 0.843,-0.008 1.565,0.097 2.169,0.311 0.598,0.21 0.898,0.47 0.903,0.781 0.005,0.321 -0.292,0.593 -0.893,0.816 -0.586,0.233 -1.296,0.35 -2.139,0.359 -0.841,0.02 -1.564,-0.083 -2.181,-0.296 -0.597,-0.21 -0.899,-0.483 -0.906,-0.807 -0.012,-0.315 0.286,-0.573 0.889,-0.796 z"
         id="path221"
         style="fill:none;stroke:#f49d00;stroke-width:0.377;stroke-linecap:round;stroke-linejoin:round;stroke-miterlimit:10" />
      <path
         d="m 106.907,362.096 c 0.2,-0.251 0.601,-0.27 1.212,-0.063 0.61,0.209 1.241,0.562 1.902,1.079 0.652,0.533 1.148,1.068 1.483,1.613 0.335,0.544 0.402,0.945 0.207,1.19 -0.198,0.251 -0.609,0.277 -1.218,0.069 -0.594,-0.197 -1.225,-0.55 -1.882,-1.075 -0.657,-0.525 -1.153,-1.073 -1.497,-1.623 -0.335,-0.544 -0.407,-0.939 -0.207,-1.19"
         id="path223"
         style="fill:#f8ec00" />
      <path
         d="m 108.12,362.032 c 0.609,0.209 1.241,0.563 1.902,1.079 0.651,0.533 1.148,1.068 1.483,1.613 0.335,0.544 0.401,0.946 0.207,1.191 -0.198,0.251 -0.61,0.276 -1.218,0.068 -0.595,-0.196 -1.226,-0.55 -1.883,-1.075 -0.656,-0.524 -1.152,-1.072 -1.496,-1.622 -0.335,-0.545 -0.408,-0.94 -0.207,-1.191 0.198,-0.251 0.601,-0.269 1.212,-0.063 z"
         id="path225"
         style="fill:none;stroke:#f49d00;stroke-width:0.377;stroke-linecap:round;stroke-linejoin:round;stroke-miterlimit:10" />
      <path
         d="m 127.605,365.503 c 0.281,-0.155 0.654,-0.007 1.128,0.43 0.48,0.416 0.915,0.999 1.313,1.744 0.391,0.752 0.634,1.438 0.725,2.06 0.092,0.634 0.001,1.025 -0.274,1.172 -0.282,0.157 -0.665,0.023 -1.142,-0.413 -0.477,-0.416 -0.918,-0.993 -1.31,-1.744 -0.398,-0.732 -0.641,-1.432 -0.734,-2.079 -0.084,-0.629 0.007,-1.021 0.294,-1.17"
         id="path227"
         style="fill:#f8ec00" />
      <path
         d="m 128.733,365.933 c 0.48,0.416 0.915,0.999 1.313,1.744 0.391,0.752 0.634,1.438 0.725,2.06 0.092,0.634 0.001,1.025 -0.274,1.172 -0.282,0.157 -0.665,0.023 -1.142,-0.413 -0.476,-0.417 -0.918,-0.993 -1.31,-1.745 -0.397,-0.732 -0.641,-1.431 -0.734,-2.079 -0.085,-0.628 0.007,-1.019 0.294,-1.169 0.281,-0.155 0.654,-0.007 1.128,0.43 z"
         id="path229"
         style="fill:none;stroke:#f49d00;stroke-width:0.377;stroke-linecap:round;stroke-linejoin:round;stroke-miterlimit:10" />
      <path
         d="m 115.539,359.315 c 0.163,-0.267 0.563,-0.346 1.188,-0.222 0.63,0.118 1.312,0.39 2.027,0.82 0.726,0.432 1.285,0.898 1.693,1.392 0.396,0.495 0.521,0.882 0.356,1.149 -0.155,0.272 -0.556,0.35 -1.188,0.219 -0.621,-0.097 -1.289,-0.372 -2.012,-0.806 -0.716,-0.428 -1.29,-0.892 -1.701,-1.398 -0.403,-0.488 -0.524,-0.875 -0.363,-1.154"
         id="path231"
         style="fill:#f8ec00" />
      <path
         d="m 116.727,359.094 c 0.63,0.118 1.312,0.39 2.028,0.819 0.725,0.433 1.285,0.899 1.693,1.393 0.396,0.495 0.52,0.882 0.355,1.148 -0.155,0.273 -0.556,0.351 -1.187,0.22 -0.621,-0.098 -1.29,-0.372 -2.013,-0.807 -0.716,-0.427 -1.289,-0.891 -1.701,-1.397 -0.402,-0.488 -0.524,-0.875 -0.363,-1.154 0.164,-0.267 0.563,-0.346 1.188,-0.222 z"
         id="path233"
         style="fill:none;stroke:#f49d00;stroke-width:0.377;stroke-linecap:round;stroke-linejoin:round;stroke-miterlimit:10" />
      <path
         d="m 118.648,363.436 c 0.146,-0.278 0.541,-0.349 1.178,-0.239 0.636,0.109 1.316,0.368 2.042,0.781 0.736,0.419 1.301,0.877 1.708,1.356 0.408,0.495 0.538,0.873 0.374,1.14 -0.148,0.277 -0.539,0.362 -1.176,0.252 -0.623,-0.099 -1.293,-0.352 -2.028,-0.77 -0.727,-0.414 -1.3,-0.876 -1.722,-1.369 -0.416,-0.485 -0.538,-0.872 -0.376,-1.151"
         id="path235"
         style="fill:#f8ec00" />
      <path
         d="m 119.826,363.196 c 0.636,0.109 1.315,0.368 2.042,0.781 0.735,0.419 1.301,0.877 1.708,1.357 0.408,0.494 0.538,0.872 0.374,1.139 -0.148,0.278 -0.54,0.363 -1.176,0.252 -0.623,-0.098 -1.293,-0.351 -2.029,-0.77 -0.727,-0.413 -1.299,-0.876 -1.721,-1.368 -0.416,-0.486 -0.538,-0.871 -0.376,-1.152 0.146,-0.278 0.541,-0.348 1.178,-0.239 z"
         id="path237"
         style="fill:none;stroke:#f49d00;stroke-width:0.377;stroke-linecap:round;stroke-linejoin:round;stroke-miterlimit:10" />
      <path
         d="m 119.729,380.23 c 0.301,-0.105 0.652,0.087 1.07,0.587 0.429,0.482 0.795,1.111 1.105,1.895 0.295,0.773 0.444,1.486 0.452,2.142 0.019,0.636 -0.122,1.014 -0.408,1.13 -0.315,0.106 -0.674,-0.092 -1.088,-0.577 -0.42,-0.465 -0.781,-1.099 -1.083,-1.878 -0.303,-0.778 -0.461,-1.497 -0.488,-2.153 -0.013,-0.634 0.142,-1.014 0.44,-1.146"
         id="path239"
         style="fill:#f8ec00" />
      <path
         d="m 120.798,380.817 c 0.429,0.482 0.795,1.111 1.105,1.896 0.295,0.772 0.444,1.485 0.453,2.141 0.019,0.636 -0.123,1.014 -0.409,1.13 -0.315,0.106 -0.673,-0.092 -1.087,-0.577 -0.42,-0.465 -0.782,-1.099 -1.084,-1.878 -0.303,-0.779 -0.461,-1.497 -0.488,-2.154 -0.012,-0.632 0.142,-1.012 0.44,-1.144 0.301,-0.106 0.652,0.086 1.07,0.586 z"
         id="path241"
         style="fill:none;stroke:#f49d00;stroke-width:0.377;stroke-linecap:round;stroke-linejoin:round;stroke-miterlimit:10" />
      <path
         d="m 100.453,392.943 c 4.513,5.393 9.814,7.395 15.887,5.988 l 14.016,-22.971 0.007,-0.291 c -0.372,0.007 -0.755,0.017 -1.159,0.021 -0.157,-0.011 -0.319,-0.016 -0.474,-0.013 -0.826,-0.028 -1.644,-0.085 -2.454,-0.182 -7.006,-0.788 -13.141,-4.116 -18.398,-9.981 -0.275,-0.31 -0.549,-0.62 -0.811,-0.948 -0.096,-0.105 -0.196,-0.227 -0.293,-0.335 l -0.596,-0.114 -5.725,28.826 z"
         id="path243"
         style="fill:#c7e5f8" />
      <path
         d="m 130.363,375.67 c 0.1,0.006 0.187,0 0.274,-0.006 0.744,-0.034 1.415,-0.099 2.021,-0.199 l 1.157,-2.199 c -1.061,0.21 -2.335,0.307 -3.81,0.279 -8.75,-0.123 -16.223,-3.931 -22.428,-11.444 -0.583,-0.718 -1.157,-1.464 -1.729,-2.244 l -0.796,2.139 c 0.38,0.518 0.755,1.01 1.12,1.482 0.048,0.046 0.083,0.095 0.116,0.145 0.165,0.206 0.322,0.405 0.487,0.609 0.096,0.109 0.196,0.23 0.293,0.335 0.262,0.329 0.535,0.638 0.811,0.949 5.256,5.864 11.391,9.193 18.398,9.981 0.81,0.097 1.627,0.153 2.454,0.182 0.154,-0.003 0.317,0.002 0.474,0.012 0.403,-0.004 0.786,-0.014 1.158,-0.021"
         id="path245"
         style="fill:#c7e5f8" />
      <path
         d="m 130.005,373.545 c 1.475,0.027 2.749,-0.069 3.81,-0.279 1.64,-2.626 1.919,-5.728 0.853,-9.302 -0.7,-2.299 -1.807,-4.302 -3.339,-6.021 -1.213,0.332 -2.427,0.239 -3.629,-0.281 -0.03,-0.022 -0.066,-0.038 -0.109,-0.059 -0.411,-0.19 -0.815,-0.36 -1.227,-0.515 -0.208,-0.071 -0.407,-0.15 -0.602,-0.237 -1.612,-0.648 -3.152,-1.409 -4.62,-2.281 -0.774,-0.448 -1.239,-1.087 -1.399,-1.914 -0.013,-0.139 -0.02,-0.274 -0.011,-0.409 -1.402,-0.08 -2.82,0.039 -4.257,0.356 -4.095,0.879 -7.158,3.045 -9.204,6.499 -0.152,0.251 -0.296,0.507 -0.423,0.755 0.572,0.78 1.146,1.526 1.729,2.244 6.205,7.513 13.678,11.321 22.428,11.444"
         id="path247"
         style="fill:#c7e5f8" />
      <path
         d="m 127.591,357.603 c 0.043,0.021 0.079,0.037 0.109,0.06 0.106,-0.158 0.22,-0.31 0.327,-0.453 0.341,-0.475 0.678,-0.941 1.011,-1.388 0.69,-0.91 1.356,-1.754 2.016,-2.546 l 7.998,1.433 c 1.072,-0.884 1.231,-2.202 0.456,-3.957 -0.021,-0.004 -0.042,-0.007 -0.063,-0.011 -2.364,-0.257 -4.393,-0.487 -6.079,-0.674 -1.136,-0.117 -2.136,-0.215 -2.998,-0.305 -0.51,0.715 -1.029,1.457 -1.556,2.242 -0.447,0.679 -0.905,1.373 -1.36,2.093 -0.107,0.157 -0.202,0.32 -0.308,0.477 -0.464,0.749 -0.927,1.51 -1.382,2.277 0.195,0.087 0.394,0.166 0.602,0.237 0.413,0.156 0.816,0.326 1.227,0.515"
         id="path249"
         style="fill:#ffffff" />
      <path
         d="m 128.026,357.21 c -0.107,0.143 -0.221,0.295 -0.327,0.452 1.202,0.52 2.417,0.613 3.63,0.281 -0.68,-0.778 -1.442,-1.476 -2.291,-2.122 -0.332,0.448 -0.671,0.913 -1.012,1.389"
         id="path251"
         style="fill:#c7e5f8" />
      <path
         d="m 125.762,356.851 c 0.456,-0.767 0.918,-1.528 1.382,-2.277 -2.391,-1.418 -4.864,-2.192 -7.412,-2.327 -0.009,0.136 -0.002,0.27 0.011,0.409 0.161,0.828 0.625,1.466 1.399,1.915 1.468,0.871 3.008,1.633 4.62,2.28"
         id="path253"
         style="fill:#c7e5f8" />
      <path
         d="m 106.288,363.623 c -0.033,-0.05 -0.067,-0.099 -0.116,-0.145 -0.364,-0.472 -0.739,-0.964 -1.119,-1.482 l 0.795,-2.139 m 27.966,13.409 -1.157,2.199 c -0.606,0.102 -1.277,0.165 -2.02,0.199 -0.088,0.006 -0.175,0.012 -0.275,0.006 -0.372,0.007 -0.755,0.017 -1.158,0.021 -0.157,-0.011 -0.319,-0.016 -0.474,-0.013 -0.827,-0.028 -1.644,-0.085 -2.454,-0.182 -7.006,-0.788 -13.142,-4.117 -18.398,-9.981 -0.275,-0.311 -0.549,-0.62 -0.811,-0.949 -0.098,-0.105 -0.196,-0.226 -0.293,-0.335 -0.165,-0.204 -0.321,-0.403 -0.487,-0.609 m -0.439,-3.765 c 0.572,0.78 1.146,1.526 1.73,2.244 6.204,7.513 13.677,11.321 22.427,11.444 1.475,0.027 2.749,-0.069 3.81,-0.279 m -0.001,0 c 1.641,-2.626 1.919,-5.728 0.853,-9.302 -0.7,-2.299 -1.806,-4.302 -3.338,-6.021 m -3.63,-0.281 c -0.03,-0.022 -0.065,-0.038 -0.109,-0.059 -0.411,-0.19 -0.814,-0.36 -1.227,-0.515 -0.208,-0.071 -0.406,-0.15 -0.602,-0.237 m 3.278,-1.03 c -0.333,0.448 -0.671,0.913 -1.012,1.389 -0.107,0.143 -0.221,0.295 -0.327,0.452 m -0.556,-3.089 c 0.106,-0.156 0.202,-0.319 0.309,-0.476 0.454,-0.72 0.913,-1.414 1.359,-2.093 0.527,-0.785 1.046,-1.528 1.557,-2.242 0.862,0.09 1.861,0.187 2.997,0.304 1.687,0.187 3.716,0.417 6.079,0.674 0.022,0.004 0.043,0.008 0.064,0.012 0.774,1.755 0.615,3.072 -0.457,3.957 l -7.997,-1.434 c -0.66,0.792 -1.327,1.636 -2.016,2.546 m 2.291,2.122 c -0.681,-0.778 -1.442,-1.476 -2.291,-2.122 m -3.278,1.03 c 0.456,-0.767 0.918,-1.529 1.382,-2.278 m 0.556,3.089 c 1.202,0.52 2.417,0.613 3.63,0.281 m -11.598,-5.696 c -0.008,0.135 -0.002,0.27 0.012,0.409 0.16,0.827 0.625,1.466 1.398,1.914 1.468,0.872 3.008,1.633 4.62,2.281 m 1.383,-2.278 c -2.391,-1.418 -4.864,-2.192 -7.412,-2.326 m -13.884,7.61 c 0.127,-0.248 0.272,-0.504 0.424,-0.755 2.045,-3.454 5.108,-5.62 9.203,-6.499 1.437,-0.317 2.856,-0.436 4.257,-0.356 m 10.624,23.714 -14.017,22.971 c -6.072,1.405 -11.374,-0.596 -15.886,-5.988 l 5.724,-28.825 0.11,-0.495"
         id="path255"
         style="fill:none;stroke:#78a0d4;stroke-width:1.50999999;stroke-linecap:round;stroke-linejoin:round;stroke-miterlimit:10" />
      <path
         d="m 126.702,385.738 0.634,-0.599 c 0.657,-0.675 1.35,-1.288 2.098,-1.848 0.025,-0.018 0.035,-0.032 0.06,-0.05 0.116,-0.091 0.226,-0.162 0.353,-0.221 0.382,-0.197 0.675,-0.448 0.885,-0.775 -0.066,-0.214 -0.333,-0.769 -0.819,-1.682 -0.475,-0.909 -1.052,-1.904 -1.731,-2.964 -0.681,-1.062 -1.309,-1.671 -1.881,-1.852 -0.335,-0.072 -0.618,0.022 -0.854,0.293 -0.368,0.445 -0.671,1.149 -0.907,2.128 l 0.01,0.006 c -0.14,0.613 -0.183,1.254 -0.118,1.926 0.037,0.297 0.092,0.586 0.159,0.872 0.387,1.725 1.09,3.31 2.111,4.766"
         id="path257"
         style="fill:#fcdf00" />
      <path
         d="m 130.732,382.246 c 0.157,0.118 0.337,0.146 0.559,0.087 0.221,-0.06 0.41,-0.188 0.563,-0.393 0.01,-0.015 0.022,-0.03 0.025,-0.052 0.079,-0.198 0.072,-0.394 -0.023,-0.583 -2.036,-4.45 -3.782,-6.8 -5.224,-7.027 -0.888,-0.215 -1.661,0.032 -2.31,0.761 -0.525,0.562 -0.93,1.484 -1.243,2.77 -0.015,0.07 -0.035,0.128 -0.051,0.197 -0.281,1.922 0.12,3.69 1.193,5.328 0.647,0.978 1.474,1.782 2.481,2.404 -1.021,-1.456 -1.724,-3.041 -2.111,-4.765 -0.067,-0.286 -0.123,-0.575 -0.159,-0.872 -0.066,-0.672 -0.022,-1.312 0.117,-1.926 l -0.009,-0.006 c 0.236,-0.979 0.539,-1.683 0.906,-2.128 0.237,-0.271 0.519,-0.365 0.854,-0.293 0.573,0.181 1.201,0.79 1.882,1.851 0.678,1.061 1.256,2.056 1.731,2.965 0.486,0.914 0.753,1.468 0.819,1.682"
         id="path259"
         style="fill:#f2b800" />
    </g>
  </g>
</svg>
