<?xml version="1.0" encoding="UTF-8" standalone="no"?>
<!-- Created with Inkscape (http://www.inkscape.org/) -->

<svg
   xmlns:dc="http://purl.org/dc/elements/1.1/"
   xmlns:cc="http://creativecommons.org/ns#"
   xmlns:rdf="http://www.w3.org/1999/02/22-rdf-syntax-ns#"
   xmlns:svg="http://www.w3.org/2000/svg"
   xmlns="http://www.w3.org/2000/svg"
   version="1.1"
   width="185"
   height="255.09"
   id="svg5071">
  <defs
     id="defs5073" />
  <metadata
     id="metadata5076">
    <rdf:RDF>
      <cc:Work
         rdf:about="">
        <dc:format>image/svg+xml</dc:format>
        <dc:type
           rdf:resource="http://purl.org/dc/dcmitype/StillImage" />
        <dc:title></dc:title>
      </cc:Work>
    </rdf:RDF>
  </metadata>
  <g
     transform="translate(0,-2901.9966)"
     id="layer1">
    <g
       transform="translate(-832.12394,2401.6817)"
       id="g1713">
      <path
         d="m 927.152,672.01 c 0.21,-1.695 -0.327,-3.593 -1.601,-5.692 -1.342,-2.211 -3.185,-4.039 -5.527,-5.47 -2.696,-1.634 -5.633,-2.459 -8.81,-2.475 -3.721,-0.022 -7.524,1.074 -11.426,3.268 -1.229,-1.169 -3.597,-2.275 -7.121,-3.337 -3.746,-1.13 -7.541,-1.784 -11.384,-1.968 -4.467,-0.222 -8.151,0.286 -11.065,1.527 -3.452,1.452 -5.536,3.829 -6.244,7.125 -0.996,4.608 1.51,8.373 7.521,11.299 2.189,1.062 4.556,1.855 7.092,2.391 2.27,0.47 3.928,0.601 4.986,0.384 -1.192,3.617 -0.444,6.744 2.241,9.363 2.335,2.289 5.697,3.849 10.089,4.675 4.199,0.807 8.049,0.734 11.555,-0.223 3.78,-1.016 6.013,-2.812 6.696,-5.388 0.318,2.062 1.708,3.534 4.184,4.412 2.317,0.828 4.916,0.946 7.795,0.33 3.031,-0.638 5.427,-1.907 7.193,-3.822 2.041,-2.19 2.829,-4.872 2.38,-8.045 -0.157,-1.128 -1.598,-2.594 -4.321,-4.407 -2.741,-1.808 -4.188,-3.222 -4.332,-4.241 l 0.099,0.294 z"
         id="path1715"
         style="fill:#eddc00" />
      <path
         d="m 927.152,672.01 -0.1,-0.294 c 0.144,1.02 1.591,2.434 4.332,4.241 2.724,1.813 4.164,3.279 4.321,4.407 0.449,3.173 -0.339,5.854 -2.38,8.045 -1.767,1.915 -4.162,3.185 -7.193,3.822 -2.879,0.616 -5.478,0.498 -7.795,-0.33 -2.476,-0.878 -3.865,-2.35 -4.184,-4.412 -0.684,2.575 -2.916,4.372 -6.696,5.388 -3.506,0.957 -7.355,1.029 -11.555,0.223 -4.392,-0.826 -7.754,-2.386 -10.089,-4.675 -2.686,-2.619 -3.434,-5.746 -2.241,-9.363 -1.059,0.217 -2.717,0.086 -4.986,-0.384 -2.536,-0.535 -4.902,-1.328 -7.092,-2.391 -6.011,-2.926 -8.517,-6.69 -7.521,-11.299 0.708,-3.296 2.792,-5.673 6.244,-7.125 2.914,-1.241 6.599,-1.749 11.065,-1.527 3.843,0.184 7.638,0.838 11.384,1.969 3.524,1.061 5.893,2.167 7.121,3.336 3.901,-2.193 7.705,-3.29 11.426,-3.268 3.177,0.016 6.113,0.841 8.81,2.475 2.343,1.431 4.186,3.259 5.527,5.47 1.275,2.099 1.812,3.996 1.602,5.692 z"
         id="path1717"
         style="fill:none;stroke:#f2b800;stroke-width:2.89599991;stroke-miterlimit:10" />
      <path
         d="m 927.152,672.01 c 0.21,-1.695 -0.327,-3.593 -1.601,-5.692 -1.342,-2.211 -3.185,-4.039 -5.527,-5.47 -2.696,-1.634 -5.633,-2.459 -8.81,-2.475 -3.721,-0.022 -7.524,1.074 -11.426,3.268 -1.229,-1.169 -3.597,-2.275 -7.121,-3.337 -3.746,-1.13 -7.541,-1.784 -11.384,-1.968 -4.467,-0.222 -8.151,0.286 -11.065,1.527 -3.452,1.452 -5.536,3.829 -6.244,7.125 -0.996,4.608 1.51,8.373 7.521,11.299 2.189,1.062 4.556,1.855 7.092,2.391 2.27,0.47 3.928,0.601 4.986,0.384 -1.192,3.617 -0.444,6.744 2.241,9.363 2.335,2.289 5.697,3.849 10.089,4.675 4.199,0.807 8.049,0.734 11.555,-0.223 3.78,-1.016 6.013,-2.812 6.696,-5.388 0.318,2.062 1.708,3.534 4.184,4.412 2.317,0.828 4.916,0.946 7.795,0.33 3.031,-0.638 5.427,-1.907 7.193,-3.822 2.041,-2.19 2.829,-4.872 2.38,-8.045 -0.157,-1.128 -1.598,-2.594 -4.321,-4.407 -2.741,-1.808 -4.188,-3.222 -4.332,-4.241 l 0.099,0.294 z"
         id="path1719"
         style="fill:#fcdf00" />
      <path
         d="m 937.314,680.747 -0.017,-0.763 10.986,-0.371 0.049,0.744 c 0.226,3.41 0.338,7.168 0.327,11.247 l 0.143,-0.003 c 0.792,10e-4 1.47,0.346 2.033,1.032 h 0.009 l -0.001,0.01 c 0.506,0.629 0.769,1.369 0.763,2.239 -0.006,0.878 -0.275,1.617 -0.794,2.243 l 0.013,-0.008 c -0.569,0.7 -1.256,1.04 -2.056,1.019 h -0.01 -0.203 c -0.021,0.754 -0.05,1.514 -0.068,2.295 0.681,0.065 1.274,0.406 1.773,1.014 h 0.008 l -0.002,0.01 c 0.508,0.626 0.769,1.371 0.763,2.237 -0.006,0.878 -0.273,1.619 -0.791,2.247 l 0.012,-0.011 c -0.578,0.701 -1.267,1.04 -2.066,1.019 -0.02,0.521 -0.048,1.012 -0.076,1.481 0.71,0.058 1.323,0.4 1.839,1.027 l 0.013,10e-4 v 0.01 c 0.502,0.628 0.764,1.37 0.758,2.237 0.006,0.127 -0.011,0.26 -0.023,0.385 9.269,-1.71 17.049,-1.4 23.34,0.919 3.063,1.114 5.386,2.602 6.963,4.457 1.604,1.866 2.264,3.791 1.984,5.777 v 0.01 c -0.244,2.035 -1.443,3.791 -3.59,5.282 h -0.011 c -2.19,1.511 -5.152,2.525 -8.905,3.035 l -0.008,-10e-4 c -8.87,1.198 -20.337,-0.578 -34.375,-5.33 -0.605,-0.062 -0.798,-1.547 -0.59,-4.45 l 0.002,-0.011 c 0.22,-2.701 0.413,-5.122 0.573,-7.277 -0.216,-0.152 -0.43,-0.354 -0.625,-0.583 0,-0.009 0,-0.009 -0.008,-0.009 -0.517,-0.632 -0.776,-1.392 -0.77,-2.271 0.005,-0.876 0.266,-1.62 0.779,-2.243 0.323,-0.385 0.683,-0.649 1.066,-0.817 0.055,-0.645 0.1,-1.289 0.131,-1.924 -0.32,-0.178 -0.619,-0.418 -0.888,-0.747 0.002,-0.011 0.002,-0.011 -0.007,-0.011 -0.518,-0.629 -0.775,-1.39 -0.77,-2.267 0.003,-0.88 0.265,-1.62 0.779,-2.247 0.365,-0.428 0.773,-0.723 1.222,-0.879 0.044,-0.913 0.09,-1.827 0.125,-2.723 -0.293,-0.177 -0.554,-0.407 -0.782,-0.705 -0.518,-0.628 -0.774,-1.381 -0.77,-2.26 0.005,-0.878 0.263,-1.618 0.78,-2.245 0.293,-0.344 0.611,-0.594 0.956,-0.762 0.086,-3.852 0.084,-7.537 0.017,-11.059 m 1.516,11.595 c 0,0.007 0,0.007 -0.002,0.016 -0.538,0.251 -0.977,0.631 -1.333,1.126 -0.195,0.271 -0.312,0.566 -0.372,0.881 -0.114,0.663 -0.002,1.274 0.312,1.838 0.264,0.462 0.634,0.825 1.097,1.093 0.059,0.021 0.104,0.033 0.145,0.034 -0.04,1.011 -0.062,2.051 -0.076,3.114 l 0.021,-0.04 -0.029,0.742 v 0.028 l -0.011,-10e-4 c -0.056,0.008 -0.113,0.006 -0.183,0.013 -0.633,0.11 -1.127,0.438 -1.495,0.995 -0.295,0.439 -0.439,0.928 -0.413,1.458 0.006,0.086 0.012,0.175 0.025,0.279 0.083,0.632 0.342,1.171 0.788,1.623 0.256,0.261 0.569,0.465 0.92,0.604 l -0.005,0.106 c -0.036,0.702 -0.035,1.425 0.023,2.188 l 0.003,-0.086 0.035,0.802 -0.003,0.048 c -0.341,0.092 -0.716,0.31 -1.124,0.659 -0.267,0.223 -0.46,0.429 -0.573,0.607 -0.244,0.327 -0.365,0.717 -0.363,1.171 v 0.021 l -0.002,0.027 c -0.002,0.029 -0.002,0.058 -0.004,0.096 -0.002,0.039 -0.004,0.075 -0.004,0.125 0.083,0.573 0.293,1.083 0.631,1.55 0.22,0.299 0.492,0.531 0.813,0.695 l -10e-4,0.059 c -0.176,2.261 -0.371,4.817 -0.607,7.682 -0.142,1.885 -0.296,2.844 -0.461,2.885 13.754,4.654 24.988,6.412 33.684,5.256 3.458,-0.473 6.218,-1.396 8.247,-2.772 1.734,-1.198 2.715,-2.595 2.94,-4.216 0.196,-1.565 -0.341,-3.089 -1.623,-4.576 -1.439,-1.668 -3.548,-3.004 -6.325,-4.019 -6.352,-2.312 -14.271,-2.514 -23.759,-0.607 l -1.224,0.233 -0.048,0.006 c 0.188,-0.097 0.339,-0.275 0.465,-0.531 0.155,-0.292 0.245,-0.646 0.281,-1.049 0.06,-0.509 0,-1.003 -0.163,-1.5 -0.19,-0.558 -0.542,-0.978 -1.039,-1.267 -0.453,-0.259 -0.929,-0.442 -1.418,-0.527 -0.029,-0.011 -0.057,-0.011 -0.087,-0.013 l 0.002,-0.049 c 0.062,-0.875 0.11,-1.867 0.166,-2.972 v -0.011 c 0.048,10e-4 0.095,0.003 0.152,0.006 0.511,0.021 1.019,-0.163 1.528,-0.539 0.188,-0.138 0.336,-0.296 0.468,-0.454 0.083,-0.064 0.151,-0.139 0.222,-0.224 l 0.002,-0.007 c 0.292,-0.348 0.443,-0.767 0.434,-1.258 -0.002,-0.202 -0.024,-0.387 -0.064,-0.563 -0.175,-0.479 -0.439,-0.894 -0.803,-1.223 -0.491,-0.446 -1.062,-0.701 -1.705,-0.754 l 0.004,-0.126 c 0.048,-1.241 0.09,-2.465 0.112,-3.651 0.023,10e-4 0.04,0.003 0.069,0.005 0.636,0.042 1.222,-0.126 1.767,-0.512 0.504,-0.355 0.877,-0.833 1.126,-1.431 0.047,-0.181 0.072,-0.363 0.07,-0.557 0.002,-0.279 -0.048,-0.543 -0.136,-0.767 -0.109,-0.187 -0.225,-0.375 -0.354,-0.555 -0.183,-0.256 -0.417,-0.468 -0.699,-0.636 -0.556,-0.299 -1.138,-0.487 -1.762,-0.55 l 0.001,-0.028 c 0.032,-4.039 -0.063,-7.747 -0.271,-11.14 l -7.974,0.268 c 0.068,3.468 0.052,7.095 -0.038,10.872"
         id="path1721"
         style="fill:#e42126" />
      <path
         d="m 938.828,692.357 c 0.002,-0.009 0.002,-0.009 0.002,-0.016 l 8.283,0.031 c 0.624,0.062 1.206,0.251 1.762,0.55 0.282,0.168 0.516,0.38 0.699,0.636 0.13,0.179 0.245,0.368 0.354,0.555 0.087,0.223 0.138,0.487 0.136,0.767 0.002,0.193 -0.023,0.376 -0.07,0.557 -0.249,0.598 -0.622,1.075 -1.126,1.431 -0.545,0.386 -1.131,0.553 -1.766,0.511 -0.03,-10e-4 -0.046,-0.003 -0.07,-0.004 -0.017,-0.01 -0.035,-0.01 -0.056,-0.01 l -8.3,-0.035 c -0.04,-0.001 -0.086,-0.013 -0.145,-0.034 -0.463,-0.268 -0.833,-0.631 -1.096,-1.093 -0.315,-0.563 -0.428,-1.175 -0.313,-1.838 0.061,-0.314 0.177,-0.609 0.372,-0.881 0.359,-0.497 0.796,-0.876 1.334,-1.127"
         id="path1723"
         style="fill:#e27c9f" />
      <path
         d="m 938.83,692.342 c 0.09,-3.776 0.105,-7.403 0.039,-10.869 l 7.974,-0.268 c 0.208,3.393 0.304,7.101 0.271,11.14 l -10e-4,0.028 -8.283,-0.031 z"
         id="path1725"
         style="fill:#e86601" />
      <path
         d="m 938.622,700.403 -0.021,0.04 c 0.015,-1.063 0.036,-2.104 0.076,-3.114 l 8.299,0.035 c 0.021,0 0.04,0 0.057,0.01 -0.022,1.187 -0.064,2.41 -0.112,3.651 l -0.004,0.126 -0.066,0.006 c -0.011,0.011 -0.03,0.017 -0.049,0.028 l -8.208,-0.04 0.028,-0.742 z"
         id="path1727"
         style="fill:#e86601" />
      <path
         d="m 938.593,701.174 v -0.028 l 8.208,0.04 c 0.019,-0.011 0.038,-0.018 0.049,-0.028 l 0.066,-0.006 c 0.643,0.053 1.214,0.308 1.705,0.752 0.363,0.331 0.628,0.746 0.803,1.225 0.04,0.177 0.062,0.361 0.064,0.563 0.01,0.491 -0.142,0.91 -0.434,1.258 l -0.002,0.007 c -0.07,0.085 -0.139,0.159 -0.222,0.224 -0.132,0.158 -0.28,0.316 -0.468,0.454 -0.51,0.376 -1.018,0.56 -1.528,0.539 -0.058,-0.003 -0.104,-0.005 -0.152,-0.006 v 0.011 l -8.458,-0.032 c -0.351,-0.14 -0.663,-0.344 -0.92,-0.604 -0.446,-0.452 -0.705,-0.991 -0.787,-1.623 -0.015,-0.104 -0.021,-0.193 -0.027,-0.279 -0.025,-0.53 0.119,-1.019 0.414,-1.458 0.368,-0.557 0.862,-0.885 1.495,-0.995 0.069,-0.007 0.127,-0.005 0.183,-0.013 l 0.011,-10e-4 z"
         id="path1729"
         style="fill:#e27c9f" />
      <path
         d="m 938.22,706.252 0.005,-0.105 8.458,0.031 c -0.056,1.104 -0.104,2.097 -0.166,2.972 l -0.002,0.049 -8.233,-0.042 -0.035,-0.801 -0.003,0.085 c -0.058,-0.764 -0.06,-1.487 -0.024,-2.189"
         id="path1731"
         style="fill:#e86601" />
      <path
         d="m 936.208,711.91 c 0,-0.05 0.002,-0.086 0.004,-0.125 0.002,-0.038 0.002,-0.066 0.004,-0.096 l 0.002,-0.027 v -0.021 c -0.002,-0.454 0.119,-0.844 0.363,-1.17 0.113,-0.18 0.307,-0.386 0.573,-0.608 0.408,-0.349 0.783,-0.567 1.124,-0.659 l 0.003,-0.048 8.233,0.042 c 0.03,0.002 0.058,0.002 0.089,0.013 0.487,0.085 0.963,0.269 1.416,0.527 0.497,0.289 0.849,0.709 1.039,1.267 0.163,0.497 0.223,0.991 0.163,1.5 -0.034,0.403 -0.126,0.757 -0.281,1.05 -0.126,0.255 -0.277,0.434 -0.464,0.53 l 0.047,-0.006 c -0.038,0.006 -0.077,0.026 -0.117,0.043 -0.068,0.018 -0.135,0.032 -0.214,0.05 -0.01,-10e-4 -0.028,-10e-4 -0.058,0.008 -0.077,0.007 -0.165,0.012 -0.252,0.008 l -10.23,-0.031 c -0.321,-0.165 -0.593,-0.397 -0.813,-0.696 -0.338,-0.468 -0.548,-0.977 -0.631,-1.551"
         id="path1733"
         style="fill:#e27c9f" />
      <path
         d="m 937.651,714.214 0.001,-0.058 10.23,0.031 c 0.087,0.005 0.175,-10e-4 0.252,-0.009 0.029,-0.008 0.048,-0.008 0.058,-0.007 0.079,-0.018 0.146,-0.033 0.214,-0.05 0.04,-0.017 0.079,-0.037 0.117,-0.043 l 1.224,-0.233 c 9.488,-1.906 17.407,-1.704 23.759,0.607 2.777,1.015 4.886,2.351 6.325,4.019 1.282,1.487 1.819,3.014 1.623,4.576 -0.225,1.621 -1.206,3.018 -2.94,4.216 -2.029,1.377 -4.789,2.3 -8.247,2.772 -8.695,1.157 -19.93,-0.602 -33.684,-5.256 0.165,-0.041 0.319,-1 0.461,-2.885 0.236,-2.863 0.433,-5.419 0.607,-7.68"
         id="path1735"
         style="fill:#e86601" />
      <path
         d="m 974.896,722.277 c 0.942,1.281 1.263,2.702 0.971,4.263 -0.291,1.57 -1.101,2.764 -2.436,3.587 -1.501,0.938 -3.332,1.154 -5.504,0.674 l 0.118,-0.053 c 1.811,0.071 3.284,-0.367 4.409,-1.313 1,-0.839 1.582,-1.944 1.751,-3.325 0.17,-1.335 -0.1,-2.599 -0.797,-3.813 -0.731,-1.271 -1.812,-2.189 -3.248,-2.748 2.117,0.38 3.701,1.289 4.736,2.728"
         id="path1737"
         style="fill:#e42126" />
      <path
         d="m 915.904,685.396 -0.019,-0.762 10.944,0.01 0.049,0.747 c 0.222,3.417 0.334,7.175 0.319,11.249 l 0.147,0.003 c 0.787,0.028 1.463,0.398 2.023,1.104 h 0.01 v 0.01 c 0.505,0.646 0.763,1.395 0.76,2.264 -0.009,0.876 -0.276,1.607 -0.788,2.216 l 0.009,-0.008 c -0.568,0.68 -1.251,0.996 -2.05,0.946 h -0.009 l -0.202,-0.006 c -0.019,0.75 -0.048,1.509 -0.068,2.29 0.678,0.086 1.271,0.449 1.765,1.073 h 0.011 v 0.009 c 0.502,0.646 0.763,1.396 0.759,2.266 -0.006,0.876 -0.275,1.607 -0.79,2.215 l 0.013,-0.007 c -0.578,0.679 -1.262,0.993 -2.062,0.946 -0.019,0.519 -0.045,1.008 -0.074,1.478 0.71,0.081 1.32,0.444 1.832,1.09 l 0.011,10e-4 v 0.009 c 0.503,0.645 0.763,1.397 0.759,2.263 0.003,0.127 -0.011,0.26 -0.027,0.385 9.231,-1.391 16.98,-0.807 23.25,1.728 3.05,1.218 5.366,2.785 6.936,4.695 1.599,1.921 2.254,3.867 1.974,5.842 v 0.011 c -0.24,2.024 -1.434,3.738 -3.576,5.15 h -0.01 c -2.182,1.438 -5.133,2.348 -8.869,2.727 h -0.009 c -8.835,0.89 -20.256,-1.285 -34.238,-6.521 -0.603,-0.083 -0.796,-1.573 -0.587,-4.467 l 10e-4,-0.011 c 0.22,-2.69 0.41,-5.104 0.571,-7.251 -0.216,-0.162 -0.428,-0.372 -0.621,-0.607 0.002,-0.008 0.002,-0.008 -0.009,-0.008 -0.514,-0.647 -0.773,-1.418 -0.767,-2.294 0.006,-0.877 0.264,-1.609 0.777,-2.217 0.324,-0.373 0.68,-0.626 1.059,-0.78 0.056,-0.643 0.098,-1.284 0.133,-1.917 -0.316,-0.188 -0.619,-0.441 -0.88,-0.78 0,-0.008 0,-0.008 -0.014,-0.009 -0.512,-0.645 -0.771,-1.416 -0.764,-2.293 0.006,-0.877 0.264,-1.608 0.778,-2.218 0.362,-0.416 0.769,-0.694 1.216,-0.834 0.046,-0.913 0.089,-1.824 0.125,-2.72 -0.29,-0.185 -0.551,-0.425 -0.778,-0.73 -0.518,-0.646 -0.773,-1.409 -0.769,-2.283 0.004,-0.878 0.266,-1.609 0.78,-2.218 0.289,-0.336 0.609,-0.572 0.951,-0.73 0.083,-3.851 0.083,-7.531 0.018,-11.056 m 1.509,11.639 c -10e-4,0.012 -10e-4,0.012 -10e-4,0.021 -0.539,0.23 -0.974,0.593 -1.331,1.077 -0.194,0.268 -0.31,0.556 -0.371,0.868 -0.111,0.658 0,1.271 0.312,1.846 0.26,0.472 0.632,0.846 1.09,1.13 0.058,0.024 0.106,0.038 0.142,0.04 -0.038,1.011 -0.059,2.049 -0.073,3.108 l 0.023,-0.038 -0.028,0.74 v 0.029 h -0.011 c -0.06,0.005 -0.118,0 -0.184,0.005 -0.628,0.088 -1.121,0.398 -1.489,0.943 -0.297,0.43 -0.439,0.909 -0.411,1.441 0.006,0.086 0.012,0.176 0.026,0.281 0.08,0.633 0.339,1.183 0.783,1.647 0.259,0.271 0.567,0.486 0.917,0.637 l -0.005,0.106 c -0.036,0.701 -0.035,1.423 0.021,2.188 l 0.003,-0.086 0.038,0.802 -0.002,0.049 c -0.344,0.08 -0.714,0.283 -1.122,0.621 -0.269,0.211 -0.459,0.408 -0.571,0.582 -0.243,0.321 -0.361,0.708 -0.361,1.161 0,0.009 0,0.009 -10e-4,0.019 l -0.002,0.029 c 0,0.029 -0.002,0.059 -0.004,0.097 -0.002,0.038 -0.004,0.076 -0.006,0.125 0.083,0.574 0.295,1.093 0.631,1.568 0.22,0.307 0.491,0.548 0.811,0.726 l -0.002,0.056 c -0.177,2.254 -0.371,4.804 -0.606,7.656 -0.143,1.88 -0.291,2.831 -0.459,2.868 13.7,5.128 24.889,7.275 33.553,6.423 3.446,-0.354 6.19,-1.183 8.212,-2.488 1.728,-1.133 2.705,-2.498 2.93,-4.109 0.196,-1.557 -0.339,-3.101 -1.615,-4.631 -1.433,-1.716 -3.534,-3.124 -6.301,-4.234 -6.325,-2.529 -14.214,-3.008 -23.662,-1.431 l -1.22,0.19 -0.05,0.005 c 0.188,-0.092 0.335,-0.265 0.46,-0.516 0.157,-0.285 0.249,-0.638 0.283,-1.038 0.06,-0.507 0.002,-1.004 -0.159,-1.506 -0.193,-0.562 -0.541,-0.994 -1.038,-1.302 -0.45,-0.275 -0.924,-0.474 -1.412,-0.576 -0.027,-0.012 -0.057,-0.015 -0.085,-0.017 v -0.046 c 0.063,-0.873 0.114,-1.861 0.163,-2.967 v -0.011 c 0.049,0.005 0.099,0.007 0.154,0.014 0.509,0.035 1.018,-0.13 1.521,-0.488 0.189,-0.129 0.34,-0.282 0.47,-0.436 0.078,-0.063 0.15,-0.136 0.218,-0.217 l 10e-4,-0.009 c 0.293,-0.335 0.444,-0.749 0.435,-1.241 0,-0.2 -0.021,-0.387 -0.066,-0.562 -0.173,-0.485 -0.433,-0.91 -0.796,-1.254 -0.492,-0.461 -1.056,-0.734 -1.698,-0.812 l 0.003,-0.124 c 0.049,-1.24 0.089,-2.461 0.114,-3.646 0.018,0.003 0.037,0.005 0.065,0.006 0.633,0.065 1.217,-0.085 1.759,-0.449 0.507,-0.338 0.881,-0.803 1.122,-1.391 0.046,-0.182 0.072,-0.361 0.071,-0.555 0,-0.279 -0.048,-0.543 -0.134,-0.77 -0.107,-0.191 -0.227,-0.384 -0.353,-0.567 -0.183,-0.264 -0.415,-0.482 -0.696,-0.659 -0.557,-0.319 -1.133,-0.524 -1.756,-0.61 l 0.002,-0.028 c 0.031,-4.038 -0.066,-7.742 -0.271,-11.143 l -7.943,-0.009 c 0.066,3.472 0.051,7.092 -0.038,10.862"
         id="path1739"
         style="fill:#e42126" />
      <path
         d="m 917.412,697.055 c 0,-0.008 0,-0.008 10e-4,-0.02 l 8.249,0.322 c 0.623,0.086 1.199,0.291 1.756,0.61 0.281,0.177 0.514,0.396 0.696,0.659 0.126,0.184 0.245,0.376 0.353,0.567 0.086,0.227 0.133,0.49 0.133,0.77 0.003,0.193 -0.024,0.373 -0.07,0.555 -0.241,0.588 -0.615,1.053 -1.122,1.391 -0.542,0.364 -1.126,0.515 -1.759,0.449 -0.028,-10e-4 -0.047,-0.003 -0.065,-0.006 -0.02,-0.011 -0.039,-0.012 -0.059,-0.014 l -8.271,-0.322 c -0.035,-0.002 -0.084,-0.016 -0.142,-0.04 -0.458,-0.284 -0.83,-0.658 -1.09,-1.131 -0.312,-0.573 -0.423,-1.187 -0.312,-1.845 0.062,-0.312 0.177,-0.601 0.371,-0.868 0.357,-0.484 0.792,-0.846 1.331,-1.077"
         id="path1741"
         style="fill:#e27c9f" />
      <path
         d="m 917.413,697.035 c 0.089,-3.771 0.104,-7.391 0.036,-10.857 l 7.943,0.009 c 0.205,3.4 0.303,7.104 0.271,11.143 l -0.002,0.028 -8.248,-0.323 z"
         id="path1743"
         style="fill:#e86601" />
      <path
         d="m 917.204,705.087 -0.022,0.038 c 0.014,-1.06 0.034,-2.098 0.072,-3.108 l 8.271,0.322 c 0.02,0.002 0.039,0.003 0.059,0.014 -0.024,1.185 -0.064,2.405 -0.114,3.646 l -0.003,0.124 -0.068,0.005 c -0.011,0.009 -0.031,0.018 -0.047,0.025 l -8.175,-0.325 0.027,-0.741 z"
         id="path1745"
         style="fill:#e86601" />
      <path
         d="m 917.176,705.856 v -0.029 l 8.174,0.325 c 0.016,-0.008 0.037,-0.017 0.048,-0.025 l 0.068,-0.005 c 0.643,0.077 1.206,0.35 1.698,0.81 0.363,0.346 0.623,0.771 0.796,1.256 0.045,0.175 0.066,0.361 0.066,0.562 0.01,0.492 -0.142,0.906 -0.435,1.241 L 927.59,710 c -0.067,0.081 -0.14,0.153 -0.218,0.217 -0.13,0.153 -0.28,0.307 -0.47,0.436 -0.503,0.358 -1.012,0.523 -1.521,0.487 -0.056,-0.006 -0.105,-0.008 -0.153,-0.013 v 0.011 l -8.422,-0.325 c -0.35,-0.151 -0.658,-0.365 -0.917,-0.637 -0.444,-0.465 -0.703,-1.015 -0.783,-1.647 -0.015,-0.105 -0.021,-0.195 -0.026,-0.281 -0.028,-0.532 0.114,-1.013 0.411,-1.442 0.368,-0.544 0.861,-0.854 1.489,-0.942 0.065,-0.005 0.124,0 0.184,-0.005 h 0.012 z"
         id="path1747"
         style="fill:#e27c9f" />
      <path
         d="m 916.803,710.918 0.005,-0.106 8.422,0.325 c -0.05,1.105 -0.101,2.095 -0.164,2.967 v 0.046 l -8.2,-0.327 -0.038,-0.801 -0.003,0.085 c -0.056,-0.766 -0.058,-1.488 -0.022,-2.189"
         id="path1749"
         style="fill:#e86601" />
      <path
         d="m 914.796,716.505 c 0.002,-0.049 0.004,-0.087 0.006,-0.125 0.002,-0.04 0.004,-0.067 0.004,-0.097 l 0.002,-0.029 c 0.002,-0.01 0.002,-0.01 0.002,-0.019 0,-0.453 0.117,-0.84 0.36,-1.161 0.112,-0.173 0.303,-0.371 0.571,-0.582 0.409,-0.338 0.779,-0.541 1.122,-0.621 l 0.002,-0.049 8.201,0.328 c 0.027,10e-4 0.057,0.004 0.084,0.016 0.488,0.103 0.962,0.301 1.412,0.576 0.498,0.308 0.845,0.738 1.039,1.302 0.16,0.502 0.218,0.999 0.158,1.506 -0.033,0.4 -0.126,0.752 -0.282,1.038 -0.125,0.251 -0.272,0.424 -0.46,0.516 l 0.05,-0.006 c -0.041,0.006 -0.078,0.022 -0.121,0.04 -0.065,0.014 -0.132,0.026 -0.21,0.041 -0.01,-10e-4 -0.029,-10e-4 -0.06,0.004 -0.077,0.006 -0.164,0.01 -0.25,0.002 l -10.189,-0.386 c -0.319,-0.178 -0.591,-0.419 -0.811,-0.726 -0.335,-0.476 -0.547,-0.994 -0.63,-1.568 l 0,0 z"
         id="path1751"
         style="fill:#e27c9f" />
      <path
         d="m 916.235,718.854 0.002,-0.056 10.189,0.386 c 0.086,0.007 0.173,0.004 0.25,-0.002 0.03,-0.005 0.05,-0.005 0.06,-0.003 0.078,-0.015 0.145,-0.028 0.21,-0.042 0.043,-0.018 0.08,-0.034 0.12,-0.04 l 1.22,-0.191 c 9.448,-1.575 17.337,-1.097 23.662,1.433 2.767,1.11 4.868,2.519 6.301,4.234 1.276,1.53 1.812,3.074 1.615,4.631 -0.225,1.611 -1.202,2.976 -2.929,4.109 -2.022,1.306 -4.767,2.134 -8.213,2.488 -8.663,0.853 -19.853,-1.295 -33.553,-6.423 0.168,-0.037 0.316,-0.988 0.459,-2.868 0.236,-2.853 0.432,-5.403 0.607,-7.656"
         id="path1753"
         style="fill:#e86601" />
      <path
         d="m 953.311,728.177 c 0.938,1.313 1.259,2.743 0.968,4.292 -0.292,1.562 -1.099,2.723 -2.427,3.503 -1.498,0.882 -3.319,1.036 -5.481,0.481 l 0.116,-0.048 c 1.806,0.132 3.271,-0.25 4.396,-1.16 0.991,-0.803 1.572,-1.89 1.741,-3.265 0.166,-1.324 -0.102,-2.599 -0.795,-3.835 -0.729,-1.298 -1.806,-2.255 -3.235,-2.863 2.107,0.457 3.687,1.422 4.717,2.895"
         id="path1755"
         style="fill:#e42126" />
      <path
         d="m 937.473,623.611 c -2.43,0.195 -3.831,1.071 -4.203,2.616 -0.152,0.623 -0.064,1.806 0.253,3.546 0.225,1.321 0.493,2.513 0.808,3.561 1.053,3.688 1.476,7.038 1.267,10.062 -0.189,3.064 -1.036,5.991 -2.552,8.768 -1.214,2.279 -1.618,5.468 -1.216,9.573 0.417,4.242 1.581,7.811 3.479,10.689 0.716,1.104 1.878,2.258 3.478,3.456 1.44,1.104 2.895,1.989 4.383,2.66 3.115,1.444 6.46,1.583 10.043,0.442 3.273,-1.057 6.312,-2.998 9.125,-5.852 2.748,-2.809 4.73,-5.936 5.953,-9.373 1.298,-3.673 1.496,-7.033 0.58,-10.099 -1.071,-3.603 -2.68,-7.014 -4.822,-10.214 -1.413,-2.112 -3.803,-5.107 -7.17,-9.003 -1.187,-1.369 -3.152,-3.121 -5.908,-5.239 -2.824,-2.182 -4.986,-3.609 -6.478,-4.291 -2.398,-1.074 -4.741,-1.512 -7.02,-1.302"
         id="path1757"
         style="fill:#eddc00" />
      <path
         d="m 937.473,623.611 c 2.279,-0.21 4.622,0.228 7.019,1.303 1.491,0.682 3.653,2.109 6.478,4.291 2.756,2.118 4.722,3.87 5.908,5.239 3.367,3.896 5.757,6.891 7.17,9.003 2.143,3.2 3.751,6.611 4.822,10.214 0.916,3.065 0.718,6.426 -0.58,10.099 -1.223,3.438 -3.205,6.564 -5.953,9.373 -2.812,2.854 -5.852,4.795 -9.125,5.852 -3.583,1.141 -6.928,1.002 -10.043,-0.442 -1.488,-0.671 -2.942,-1.557 -4.383,-2.66 -1.6,-1.198 -2.762,-2.353 -3.478,-3.456 -1.897,-2.879 -3.062,-6.447 -3.479,-10.689 -0.402,-4.105 0.002,-7.294 1.216,-9.573 1.516,-2.776 2.362,-5.703 2.552,-8.768 0.212,-3.022 -0.214,-6.374 -1.267,-10.062 -0.314,-1.048 -0.583,-2.239 -0.808,-3.561 -0.317,-1.74 -0.405,-2.923 -0.253,-3.546 0.373,-1.545 1.774,-2.421 4.204,-2.617 z"
         id="path1759"
         style="fill:none;stroke:#f2b800;stroke-width:3.36800003;stroke-miterlimit:10" />
      <path
         d="m 935.129,620.29 -2.278,1.402 c -0.791,2.364 -1.733,5.111 -2.825,8.231 -0.092,0.247 -0.172,0.484 -0.257,0.726 1.123,1.295 2.166,2.576 3.117,3.841 4.676,6.219 6.48,10.929 5.403,14.136 l 9.681,-10.417 -1.674,-12.23 c -1.017,-0.664 -2.253,-1.404 -3.699,-2.199 -2.879,-1.616 -5.364,-2.784 -7.468,-3.49"
         id="path1761"
         style="fill:#fcdf00" />
      <path
         d="m 925.765,626.371 c 0.032,-0.134 0.07,-0.273 0.122,-0.41 l -0.329,0.202 0.207,0.208 z"
         id="path1763"
         style="fill:#fcdf00" />
      <path
         d="m 937.473,623.611 c -2.43,0.195 -3.831,1.071 -4.203,2.616 -0.152,0.623 -0.064,1.806 0.253,3.546 0.225,1.321 0.493,2.513 0.808,3.561 1.053,3.688 1.476,7.038 1.267,10.062 -0.189,3.064 -1.036,5.991 -2.552,8.768 -1.214,2.279 -1.618,5.468 -1.216,9.573 0.417,4.242 1.581,7.811 3.479,10.689 0.716,1.104 1.878,2.258 3.478,3.456 1.44,1.104 2.895,1.989 4.383,2.66 3.115,1.444 6.46,1.583 10.043,0.442 3.273,-1.057 6.312,-2.998 9.125,-5.852 2.748,-2.809 4.73,-5.936 5.953,-9.373 1.298,-3.673 1.496,-7.033 0.58,-10.099 -1.071,-3.603 -2.68,-7.014 -4.822,-10.214 -1.413,-2.112 -3.803,-5.107 -7.17,-9.003 -1.187,-1.369 -3.152,-3.121 -5.908,-5.239 -2.824,-2.182 -4.986,-3.609 -6.478,-4.291 -2.398,-1.074 -4.741,-1.512 -7.02,-1.302"
         id="path1765"
         style="fill:#fcdf00" />
      <path
         d="m 954.419,670.922 c -0.363,-0.703 -0.778,-1.41 -1.248,-2.11 -0.144,-0.217 -0.281,-0.421 -0.418,-0.616 -0.736,-1.029 -1.58,-2.054 -2.542,-3.082 -1.351,-1.813 -2.672,-3.396 -3.97,-4.762 -2.536,-2.601 -4.675,-3.707 -6.415,-3.315 -2.857,0.649 -4.785,2.911 -5.793,6.805 -0.289,1.062 -0.632,2.69 -1.04,4.892 -0.021,0.094 -0.036,0.177 -0.051,0.26 -0.142,0.636 -0.298,1.214 -0.458,1.734 -0.271,0.928 -0.584,1.688 -0.916,2.269 -1.113,1.994 -1.704,3.103 -1.781,3.344 -0.397,1.396 0.267,2.178 1.999,2.343 1.077,0.107 2.311,-0.461 3.694,-1.695 0.742,-0.661 1.715,-1.717 2.913,-3.184 0.367,0.948 0.858,2.424 1.482,4.418 0.684,1.664 1.697,2.825 3.024,3.494 1.661,0.547 2.888,-0.484 3.666,-3.108 0.68,-2.299 0.827,-4.61 0.441,-6.934 0.27,0.877 1.208,1.834 2.819,2.891 1.644,1.104 2.907,1.543 3.796,1.311 1.937,-0.499 2.201,-2.155 0.798,-4.955"
         id="path1767"
         style="fill:#fcdf00" />
      <path
         d="m 954.419,670.922 c 1.403,2.8 1.139,4.456 -0.796,4.952 -0.889,0.232 -2.152,-0.206 -3.796,-1.311 -1.611,-1.057 -2.55,-2.014 -2.819,-2.891 0.386,2.323 0.238,4.635 -0.441,6.934 -0.778,2.624 -2.005,3.655 -3.666,3.108 -1.327,-0.669 -2.341,-1.83 -3.024,-3.494 -0.624,-1.995 -1.115,-3.47 -1.482,-4.418 -1.198,1.467 -2.171,2.522 -2.913,3.184 -1.384,1.234 -2.617,1.803 -3.694,1.695 -1.732,-0.165 -2.396,-0.946 -1.999,-2.343 0.077,-0.241 0.668,-1.35 1.781,-3.344 0.332,-0.58 0.645,-1.341 0.916,-2.269 0.16,-0.521 0.316,-1.099 0.458,-1.734 0.015,-0.083 0.029,-0.166 0.051,-0.26 0.408,-2.201 0.751,-3.829 1.04,-4.892 1.008,-3.894 2.936,-6.155 5.793,-6.805 1.74,-0.392 3.879,0.715 6.415,3.315 1.298,1.365 2.619,2.948 3.97,4.762 0.962,1.028 1.806,2.053 2.542,3.082 0.137,0.195 0.274,0.399 0.418,0.615 0.468,0.704 0.883,1.411 1.246,2.114 z"
         id="path1769"
         style="fill:none;stroke:#f2b800;stroke-width:1.51400006;stroke-miterlimit:10" />
      <path
         d="m 940.023,612.199 c -0.773,-1.635 -2.673,-2.454 -5.721,-2.446 -2.95,0 -6.713,0.769 -11.273,2.317 -1.301,0.444 -2.599,1.694 -3.881,3.763 -1.17,1.87 -2.52,4.726 -4.056,8.591 -1.946,4.909 -5.882,15.593 -11.796,32.041 -2.589,6.868 -3.529,13.062 -2.815,18.566 0.642,4.995 2.596,9.257 5.878,12.768 3.003,3.219 6.905,5.625 11.697,7.201 4.529,1.502 9.39,2.146 14.592,1.918 5.171,-0.233 10.031,-1.29 14.575,-3.165 4.782,-1.957 8.677,-4.607 11.673,-7.95 3.281,-3.625 5.229,-7.791 5.86,-12.496 0.696,-5.192 -0.268,-10.791 -2.878,-16.796 -5.767,-13.267 -10.742,-23.792 -14.936,-31.58 -3.404,-5.895 -5.708,-10.136 -6.919,-12.732"
         id="path1771"
         style="fill:#eddc00" />
      <path
         d="m 934.303,609.753 c -2.95,0 -6.713,0.769 -11.273,2.317 -1.301,0.444 -2.599,1.694 -3.881,3.763 -1.17,1.87 -2.52,4.726 -4.056,8.591 -1.946,4.909 -5.883,15.593 -11.796,32.041 -2.589,6.868 -3.529,13.062 -2.815,18.566 0.642,4.995 2.596,9.257 5.878,12.768 3.003,3.219 6.905,5.625 11.697,7.201 4.53,1.502 9.39,2.146 14.592,1.918 5.171,-0.233 10.031,-1.29 14.575,-3.165 4.782,-1.957 8.677,-4.607 11.673,-7.949 3.281,-3.626 5.229,-7.792 5.86,-12.497 0.696,-5.192 -0.267,-10.791 -2.878,-16.796 -5.767,-13.267 -10.742,-23.792 -14.936,-31.58 -3.405,-5.895 -5.709,-10.136 -6.92,-12.731 -0.773,-1.636 -2.672,-2.455 -5.72,-2.447 z"
         id="path1773"
         style="fill:none;stroke:#f2b800;stroke-width:4.44399977;stroke-miterlimit:10" />
      <path
         d="m 940.023,612.199 c -0.773,-1.635 -2.673,-2.454 -5.721,-2.446 -2.95,0 -6.713,0.769 -11.273,2.317 -1.301,0.444 -2.599,1.694 -3.881,3.763 -1.17,1.87 -2.52,4.726 -4.056,8.591 -1.946,4.909 -5.882,15.593 -11.796,32.041 -2.589,6.868 -3.529,13.062 -2.815,18.566 0.642,4.995 2.596,9.257 5.878,12.768 3.003,3.219 6.905,5.625 11.697,7.201 4.529,1.502 9.39,2.146 14.592,1.918 5.171,-0.233 10.031,-1.29 14.575,-3.165 4.782,-1.957 8.677,-4.607 11.673,-7.95 3.281,-3.625 5.229,-7.791 5.86,-12.496 0.696,-5.192 -0.268,-10.791 -2.878,-16.796 -5.767,-13.267 -10.742,-23.792 -14.936,-31.58 -3.404,-5.895 -5.708,-10.136 -6.919,-12.732"
         id="path1775"
         style="fill:#fcdf00" />
      <path
         d="m 967.602,554.435 c -3.138,-5.193 -7.257,-9.64 -12.361,-13.365 -5.084,-3.703 -10.738,-6.371 -16.978,-8.017 -6.447,-1.701 -13.053,-2.189 -19.824,-1.447 -6.771,0.741 -13.104,2.643 -19.012,5.693 -5.737,2.958 -10.689,6.785 -14.852,11.502 -4.178,4.738 -7.238,9.974 -9.17,15.722 -2.023,5.98 -2.698,12.083 -2.016,18.32 1.703,15.574 7.934,26.769 18.69,33.585 9.407,6.073 21.53,8.303 36.369,6.68 6.924,-0.758 13.255,-2.418 18.997,-4.968 l 0.01,-10e-4 c 5.923,-2.648 10.927,-6.114 15.012,-10.389 8.959,-9.338 12.646,-21.298 11.052,-35.861 -0.68,-6.237 -2.648,-12.052 -5.917,-17.454 m -13.27,-12.115 c 4.925,3.587 8.916,7.895 11.947,12.915 3.15,5.214 5.059,10.813 5.715,16.821 1.538,14.063 -2,25.604 -10.627,34.637 -3.968,4.133 -8.81,7.477 -14.549,10.046 -5.603,2.486 -11.783,4.101 -18.534,4.841 -14.431,1.58 -26.224,-0.572 -35.379,-6.442 -10.347,-6.598 -16.345,-17.423 -17.99,-32.464 -0.655,-6.006 -0.006,-11.885 1.944,-17.654 1.877,-5.558 4.84,-10.629 8.882,-15.195 4.03,-4.579 8.821,-8.299 14.385,-11.161 5.744,-2.967 11.899,-4.811 18.48,-5.531 6.579,-0.72 13.001,-0.251 19.27,1.402 6.036,1.589 11.531,4.188 16.456,7.785"
         id="path1777"
         style="fill:#f2b800" />
      <path
         d="m 966.279,555.235 c -3.031,-5.021 -7.021,-9.328 -11.947,-12.915 -4.925,-3.598 -10.42,-6.196 -16.456,-7.786 -6.269,-1.652 -12.69,-2.122 -19.27,-1.401 -6.581,0.72 -12.736,2.563 -18.48,5.53 -5.563,2.862 -10.354,6.582 -14.385,11.161 -4.042,4.566 -7.005,9.639 -8.882,15.195 -1.95,5.77 -2.6,11.648 -1.944,17.655 1.646,15.04 7.644,25.865 17.99,32.463 9.154,5.871 20.948,8.022 35.379,6.442 6.751,-0.74 12.933,-2.354 18.534,-4.841 5.739,-2.569 10.581,-5.913 14.549,-10.046 8.627,-9.033 12.165,-20.573 10.627,-34.637 -0.656,-6.006 -2.564,-11.606 -5.715,-16.82"
         id="path1779"
         style="fill:#fcdf00" />
      <path
         d="m 923.631,567.185 c 2.076,-2.375 4.422,-4.117 7.044,-5.241 2.541,-1.098 5.057,-1.507 7.536,-1.21 -1.222,-0.686 -2.484,-1.184 -3.8,-1.473 -1.891,-0.419 -3.759,-0.417 -5.61,0.015 -1.848,0.426 -3.545,1.237 -5.104,2.446 -2.475,1.93 -4.217,4.5 -5.224,7.722 -0.98,3.152 -1.097,6.363 -0.34,9.635 0.311,-2.125 0.926,-4.196 1.836,-6.213 0.936,-2.079 2.157,-3.975 3.662,-5.681"
         id="path1781"
         style="fill:#e27c9f" />
      <path
         d="m 930.675,561.943 c -2.622,1.124 -4.968,2.866 -7.044,5.241 -1.505,1.706 -2.726,3.603 -3.662,5.681 -0.91,2.017 -1.525,4.088 -1.836,6.213 0.479,1.963 1.2,3.741 2.181,5.33 l 0.812,1.202 c -0.204,-2.56 0.137,-5.131 1.009,-7.723 0.895,-2.689 2.272,-5.103 4.136,-7.234 2.504,-2.866 5.375,-4.73 8.623,-5.588 3.171,-0.849 6.068,-0.558 8.695,0.859 -1.444,-2.26 -3.241,-3.989 -5.378,-5.191 -2.48,-0.296 -4.995,0.113 -7.536,1.21"
         id="path1783"
         style="fill:#0077bf" />
      <path
         d="m 943.589,565.925 c -2.627,-1.417 -5.524,-1.708 -8.695,-0.859 -3.248,0.856 -6.119,2.722 -8.623,5.589 -1.863,2.131 -3.242,4.544 -4.136,7.233 -0.872,2.592 -1.213,5.163 -1.009,7.723 1.104,1.488 2.377,2.718 3.839,3.703 1.469,0.988 3.038,1.663 4.712,2.028 1.889,0.42 3.759,0.418 5.59,-0.013 1.852,-0.424 3.555,-1.247 5.121,-2.469 3.229,-2.51 5.169,-5.98 5.833,-10.406 0.66,-4.438 -0.162,-8.53 -2.468,-12.275 l -0.164,-0.254 z"
         id="path1785"
         style="fill:#ffffff" />
      <path
         d="m 961.955,563.018 c -2.317,-1.833 -4.741,-3.008 -7.286,-3.544 -2.469,-0.522 -4.774,-0.401 -6.905,0.384 0.941,-0.898 1.955,-1.628 3.06,-2.169 1.584,-0.783 3.235,-1.158 4.959,-1.122 1.721,0.026 3.386,0.451 5.008,1.284 2.579,1.328 4.643,3.412 6.185,6.263 1.508,2.793 2.26,5.816 2.254,9.071 -0.709,-1.952 -1.67,-3.794 -2.883,-5.521 -1.252,-1.781 -2.715,-3.333 -4.392,-4.646"
         id="path1787"
         style="fill:#e27c9f" />
      <path
         d="m 954.669,559.474 c 2.545,0.536 4.969,1.711 7.286,3.544 1.677,1.313 3.14,2.865 4.391,4.646 1.213,1.727 2.175,3.568 2.883,5.521 -0.023,1.957 -0.299,3.791 -0.845,5.5 l -0.474,1.303 c -0.34,-2.467 -1.161,-4.838 -2.457,-7.119 -1.338,-2.37 -3.044,-4.38 -5.126,-6.022 -2.79,-2.212 -5.71,-3.398 -8.753,-3.552 -2.974,-0.161 -5.474,0.702 -7.51,2.581 0.817,-2.438 2.057,-4.444 3.699,-6.018 2.133,-0.787 4.437,-0.907 6.906,-0.384"
         id="path1789"
         style="fill:#0077bf" />
      <path
         d="m 944.064,565.875 c 2.036,-1.879 4.536,-2.742 7.508,-2.581 3.045,0.153 5.965,1.34 8.755,3.552 2.082,1.643 3.788,3.652 5.126,6.022 1.296,2.281 2.117,4.653 2.457,7.119 -0.676,1.637 -1.552,3.062 -2.641,4.294 -1.099,1.233 -2.349,2.19 -3.75,2.879 -1.588,0.781 -3.24,1.158 -4.946,1.121 -1.72,-0.025 -3.394,-0.461 -5.024,-1.303 -3.362,-1.727 -5.781,-4.623 -7.267,-8.69 -1.484,-4.074 -1.588,-8.12 -0.312,-12.144 l 0.094,-0.269 z"
         id="path1791"
         style="fill:#ffffff" />
      <path
         d="m 933.974,572.249 c -0.838,1.166 -1.171,2.499 -1.009,3.989 0.161,1.511 0.781,2.728 1.846,3.68 1.07,0.957 2.278,1.362 3.612,1.217 1.352,-0.149 2.435,-0.805 3.263,-1.97 0.834,-1.158 1.173,-2.481 1.007,-3.99 -0.161,-1.49 -0.78,-2.719 -1.846,-3.679 -1.06,-0.96 -2.259,-1.365 -3.612,-1.218 -1.335,0.147 -2.425,0.804 -3.261,1.971"
         id="path1793"
         style="fill:#1c1616" />
      <path
         d="m 956.64,568.911 c 0.963,0.937 1.522,2.129 1.677,3.57 0.161,1.46 -0.128,2.737 -0.861,3.846 -0.736,1.123 -1.703,1.748 -2.888,1.879 -1.203,0.132 -2.274,-0.271 -3.224,-1.208 -0.961,-0.927 -1.518,-2.112 -1.679,-3.57 -0.157,-1.443 0.132,-2.727 0.865,-3.848 0.727,-1.119 1.685,-1.744 2.887,-1.878 1.187,-0.129 2.264,0.275 3.223,1.209"
         id="path1795"
         style="fill:#1c1616" />
      <path
         d="m 968.068,599.343 c -1.623,-3.001 -2.706,-4.853 -3.246,-5.567 -0.467,-0.635 -0.962,-0.832 -1.476,-0.593 -0.748,0.507 -1.472,0.865 -2.182,1.089 -0.523,0.165 -5.159,1.868 -13.915,5.118 -6.401,2.372 -10.375,3.656 -11.91,3.843 0.3,3.97 2.774,6.81 7.426,8.523 4.64,1.705 8.947,2.916 12.912,3.632 3.953,0.717 8.134,1.227 12.525,1.539 4.393,0.302 5.873,-1.802 4.442,-6.312 -1.429,-4.513 -2.952,-8.269 -4.576,-11.272"
         id="path1797"
         style="fill:#fcdf00" />
      <path
         d="m 964.822,593.775 c -0.467,-0.635 -0.962,-0.832 -1.476,-0.593 -0.748,0.507 -1.472,0.865 -2.182,1.089 -0.523,0.165 -5.159,1.868 -13.915,5.118 -6.401,2.372 -10.375,3.657 -11.91,3.843 0.3,3.97 2.774,6.81 7.426,8.523 4.64,1.705 8.947,2.916 12.912,3.632 3.952,0.717 8.134,1.227 12.525,1.539 4.393,0.302 5.873,-1.802 4.442,-6.313 -1.431,-4.511 -2.953,-8.268 -4.577,-11.271 -1.622,-3 -2.705,-4.852 -3.245,-5.567 z"
         id="path1799"
         style="fill:none;stroke:#f2b800;stroke-width:1.53699994;stroke-miterlimit:10" />
      <path
         d="m 959.712,598.009 c -0.179,0.029 -1.211,0.315 -3.114,0.861 -2.738,0.755 -4.936,1.421 -6.6,2.019 -0.778,0.212 -1.416,0.404 -1.928,0.577 -0.932,0.304 -1.511,0.601 -1.723,0.865 -0.272,0.341 -0.266,0.676 0.022,1.013 l -0.019,-0.019 c 0.009,0.01 0.031,0.026 0.04,0.035 1.517,1.234 3.404,2.489 5.657,3.739 2.853,1.611 5.564,2.918 8.123,3.944 7.396,2.949 10.323,2.231 8.77,-2.158 -0.709,-1.98 -1.589,-3.855 -2.662,-5.623 -1.165,-1.892 -2.443,-3.511 -3.856,-4.854 -0.528,-0.493 -1.431,-0.626 -2.71,-0.399"
         id="path1801"
         style="fill:#d8272a" />
      <path
         d="m 954.708,593.919 c -2.569,1.665 -4.332,3.826 -5.299,6.494 3.934,2.305 7.112,3.977 9.518,5.026 2.464,1.073 3.839,1.524 4.127,1.348 0.759,-0.472 0.356,-1.972 -1.209,-4.507 -1.362,-2.218 -3.745,-5.011 -7.137,-8.361"
         id="path1803"
         style="fill:#e27c9f" />
      <path
         d="m 960.141,582.7 c -2.767,-1.349 -5.212,-2.162 -7.363,-2.46 -3.526,-0.464 -6.057,0.519 -7.58,2.937 -0.361,0.581 -0.803,1.239 -1.33,1.981 -0.541,0.783 -0.991,1.45 -1.348,2.004 -0.362,0.578 -1.39,1.495 -3.085,2.732 -1.75,1.283 -2.845,2.237 -3.283,2.832 -1.323,1.336 -2.227,3.492 -2.711,6.483 -0.511,3.1 -0.033,4.709 1.418,4.85 5.394,0.522 11.523,0.461 18.4,-0.178 6.7,-0.606 12.829,-1.624 18.391,-3.074 5.864,-1.521 9.997,-3.23 12.391,-5.124 2.676,-2.119 2.829,-4.242 0.446,-6.35 -0.867,-0.765 -4.415,-1.748 -10.625,-2.954 -6.832,-1.31 -11.401,-2.539 -13.721,-3.679"
         id="path1805"
         style="fill:#fcdf00" />
      <path
         d="m 952.777,580.24 c -3.526,-0.464 -6.057,0.519 -7.58,2.937 -0.361,0.581 -0.803,1.239 -1.33,1.981 -0.541,0.783 -0.991,1.45 -1.348,2.004 -0.362,0.578 -1.389,1.495 -3.085,2.732 -1.75,1.283 -2.845,2.237 -3.283,2.832 -1.322,1.336 -2.228,3.492 -2.711,6.483 -0.511,3.1 -0.033,4.709 1.418,4.85 5.394,0.522 11.522,0.461 18.4,-0.178 6.7,-0.606 12.829,-1.624 18.391,-3.074 5.864,-1.521 9.997,-3.23 12.391,-5.124 2.675,-2.119 2.83,-4.242 0.446,-6.35 -0.867,-0.765 -4.415,-1.748 -10.625,-2.954 -6.831,-1.311 -11.4,-2.54 -13.721,-3.68 -2.766,-1.347 -5.211,-2.161 -7.363,-2.459 z"
         id="path1807"
         style="fill:none;stroke:#f2b800;stroke-width:1.53699994;stroke-miterlimit:10" />
      <path
         d="m 936.63,525.876 c 1.208,-0.065 2.403,0.259 3.587,0.969 -1.939,0.114 -4.038,1.834 -6.308,5.158 -0.469,0.69 -0.998,1.274 -1.578,1.743 0.12,0.017 0.243,0.032 0.36,0.058 0.816,0.14 1.499,0.323 2.055,0.538 0.271,-0.309 0.531,-0.641 0.785,-0.996 0.053,-0.072 0.108,-0.143 0.152,-0.214 2.425,-3.386 4.901,-5.275 7.436,-5.661 -2.376,-2.571 -4.605,-3.765 -6.701,-3.581 -2.102,0.153 -4.066,1.29 -5.908,3.395 l -0.003,0.03 c -0.284,0.367 -0.545,0.721 -0.784,1.035 -0.021,-0.406 -0.076,-0.806 -0.147,-1.221 -0.626,-3.86 -0.126,-6.843 1.513,-8.943 -3.64,0.165 -6.193,1.083 -7.652,2.721 -1.371,1.536 -2.048,3.501 -2.028,5.897 -0.591,-0.3 -1.238,-0.54 -1.953,-0.705 -3.721,-0.965 -6.031,-2.593 -6.931,-4.872 -1.916,3.288 -2.578,5.905 -1.976,7.861 0.136,0.442 0.317,0.852 0.531,1.23 0.604,1.033 1.526,1.884 2.766,2.551 0.867,-0.021 2.469,0.039 4.792,0.19 l 0.004,-0.021 2.273,0.286 c -0.377,-0.295 -0.847,-0.58 -1.4,-0.845 -0.57,-0.259 -1.801,-0.657 -3.693,-1.199 -1.849,-0.553 -2.992,-1.621 -3.428,-3.203 -0.322,-1.124 -0.27,-2.398 0.154,-3.824 0.521,1.811 2.586,3.149 6.21,4.002 1.883,0.444 3.183,1.49 3.916,3.138 0.362,0.844 0.489,1.629 0.381,2.354 0.104,0.061 0.186,0.121 0.245,0.188 0.45,-0.741 0.688,-1.785 0.719,-3.131 -10e-4,-0.653 -0.139,-1.971 -0.419,-3.964 -0.249,-1.954 0.23,-3.576 1.441,-4.866 0.86,-0.919 1.99,-1.595 3.401,-2.039 -1.371,1.493 -1.723,4.09 -1.039,7.801 0.363,1.927 -0.037,3.68 -1.188,5.261 -0.177,0.243 -0.372,0.477 -0.563,0.68 0.199,0.033 0.365,0.063 0.52,0.104 0.987,0.003 2.126,-0.645 3.413,-1.952 0.482,-0.501 1.365,-1.602 2.629,-3.31 1.267,-1.684 2.737,-2.564 4.416,-2.643"
         id="path1809"
         style="fill:#f2b800" />
      <path
         d="m 940.217,526.845 c -1.184,-0.71 -2.379,-1.034 -3.587,-0.969 -1.679,0.079 -3.148,0.959 -4.417,2.644 -1.264,1.708 -2.146,2.809 -2.629,3.31 -1.287,1.308 -2.426,1.954 -3.413,1.952 -0.021,-0.003 -0.038,-0.007 -0.057,-0.007 -0.162,-0.012 -0.312,-0.03 -0.468,-0.061 -0.008,-0.011 -0.008,-0.011 -0.018,-0.012 0.014,-0.008 0.016,-0.018 0.023,-0.025 0.19,-0.203 0.386,-0.437 0.562,-0.68 1.15,-1.581 1.551,-3.334 1.189,-5.261 -0.686,-3.711 -0.333,-6.308 1.037,-7.801 -1.411,0.444 -2.539,1.12 -3.401,2.039 -1.211,1.29 -1.69,2.912 -1.441,4.866 0.28,1.993 0.418,3.311 0.419,3.964 -0.029,1.346 -0.269,2.39 -0.719,3.131 -0.131,0.219 -0.289,0.417 -0.459,0.582 0.014,-0.027 0.02,-0.056 0.035,-0.083 l 0.173,-0.619 c -0.002,-0.03 0,-0.05 0.006,-0.067 0.108,-0.727 -0.019,-1.511 -0.381,-2.354 -0.733,-1.647 -2.033,-2.694 -3.916,-3.138 -3.624,-0.853 -5.687,-2.192 -6.21,-4.002 -0.424,1.426 -0.476,2.7 -0.154,3.824 0.436,1.582 1.579,2.65 3.429,3.203 1.892,0.542 3.124,0.94 3.692,1.199 0.555,0.265 1.023,0.55 1.4,0.844 0.543,0.433 0.904,0.89 1.086,1.386 0.08,0.237 0.122,0.488 0.122,0.754 0.002,0.048 0,0.098 0,0.148 l -0.024,0.045 c 0.055,-0.052 0.102,-0.104 0.155,-0.168 0.133,-0.173 0.258,-0.342 0.362,-0.517 l 1.073,-0.083 c 0.052,-0.012 0.103,-0.027 0.153,-0.04 0.618,-0.189 1.196,-0.551 1.74,-1.104 0.722,1.242 1.979,1.693 3.771,1.364 0.221,-0.042 0.441,-0.093 0.658,-0.152 0.162,-0.051 0.33,-0.108 0.498,-0.166 0.03,-0.007 0.062,-0.023 0.09,-0.029 l 0.611,-0.276 c 0.075,-0.043 0.141,-0.083 0.216,-0.121 0.013,-0.011 0.023,-0.01 0.032,-0.017 0.235,-0.14 0.446,-0.28 0.663,-0.441 0.024,-0.014 0.047,-0.034 0.07,-0.06 0.011,-0.008 0.02,-0.007 0.033,-0.015 0.012,-0.01 0.015,-0.019 0.023,-0.027 0.013,-0.009 0.024,-0.017 0.036,-0.024 0.009,-0.009 0.034,-0.024 0.047,-0.035 0.58,-0.469 1.109,-1.053 1.578,-1.743 2.274,-3.324 4.374,-5.044 6.312,-5.158"
         id="path1811"
         style="fill:#fcdf00" />
      <path
         d="m 961.879,656.511 c -5.767,-13.267 -10.742,-23.792 -14.936,-31.58 -1.309,-2.271 -2.459,-4.301 -3.442,-6.076 -10.556,-3.711 -17.122,-8.229 -19.704,-13.539 l -5.04,11.167 c -1.072,1.855 -2.299,4.503 -3.664,7.941 -1.946,4.909 -5.883,15.593 -11.796,32.041 -2.589,6.868 -3.529,13.062 -2.814,18.566 0.641,4.995 2.595,9.257 5.877,12.768 3.003,3.219 6.905,5.625 11.697,7.201 4.53,1.502 9.39,2.146 14.593,1.918 5.17,-0.233 10.03,-1.29 14.574,-3.165 4.782,-1.957 8.677,-4.607 11.673,-7.949 3.281,-3.626 5.229,-7.792 5.86,-12.497 0.696,-5.193 -0.268,-10.791 -2.878,-16.796"
         id="path1813"
         style="fill:#fcdf00" />
      <path
         d="m 923.299,635.389 c 1.076,-2.09 1.169,-3.747 0.287,-4.955 -0.352,-0.491 -1.212,-1.113 -2.567,-1.877 -1.022,-0.595 -1.979,-1.077 -2.855,-1.434 -3.066,-1.311 -5.59,-2.934 -7.567,-4.876 -2.019,-1.958 -3.616,-4.365 -4.773,-7.229 -0.971,-2.325 -2.966,-4.523 -5.995,-6.608 -3.136,-2.153 -6.172,-3.303 -9.102,-3.451 -1.116,-0.064 -2.489,0.202 -4.109,0.802 -1.48,0.52 -2.812,1.185 -4.016,1.998 -2.542,1.685 -4.306,4.323 -5.299,7.909 -0.899,3.281 -1.073,6.895 -0.503,10.852 0.569,3.886 1.741,7.337 3.502,10.35 1.884,3.211 4.104,5.346 6.67,6.402 3.02,1.243 6.169,1.938 9.442,2.075 2.157,0.094 5.412,-0.09 9.771,-0.539 1.535,-0.164 3.719,-0.733 6.55,-1.73 2.91,-1.015 4.968,-1.936 6.179,-2.75 1.932,-1.314 3.399,-2.964 4.385,-4.939"
         id="path1815"
         style="fill:#eddc00" />
      <path
         d="m 923.299,635.389 c -0.985,1.976 -2.453,3.625 -4.387,4.938 -1.211,0.814 -3.269,1.735 -6.179,2.751 -2.831,0.996 -5.015,1.565 -6.55,1.729 -4.358,0.449 -7.613,0.633 -9.771,0.539 -3.273,-0.138 -6.423,-0.832 -9.442,-2.075 -2.566,-1.057 -4.786,-3.191 -6.67,-6.402 -1.761,-3.013 -2.934,-6.463 -3.502,-10.35 -0.57,-3.957 -0.396,-7.57 0.503,-10.852 0.993,-3.586 2.757,-6.225 5.299,-7.909 1.204,-0.813 2.535,-1.479 4.016,-1.998 1.62,-0.6 2.993,-0.866 4.109,-0.802 2.93,0.148 5.966,1.298 9.102,3.451 3.029,2.085 5.024,4.283 5.995,6.608 1.157,2.863 2.755,5.271 4.773,7.229 1.978,1.942 4.501,3.565 7.567,4.876 0.876,0.356 1.833,0.839 2.855,1.434 1.355,0.764 2.216,1.386 2.567,1.877 0.884,1.209 0.791,2.866 -0.285,4.956 z"
         id="path1817"
         style="fill:none;stroke:#f2b800;stroke-width:2.84800005;stroke-miterlimit:10" />
      <path
         d="m 926.756,635.431 0.168,-2.674 c -1.237,-2.034 -2.664,-4.414 -4.273,-7.134 -0.12,-0.217 -0.248,-0.425 -0.371,-0.633 -1.449,0.153 -2.852,0.249 -4.196,0.28 -6.613,0.148 -10.758,-1.15 -12.431,-3.908 l 2.361,13.987 9.269,5.822 c 0.964,-0.437 2.088,-1.004 3.354,-1.717 2.546,-1.389 4.586,-2.726 6.119,-4.023"
         id="path1819"
         style="fill:#fcdf00" />
      <path
         d="m 927.22,624.246 c 0.077,0.104 0.155,0.217 0.222,0.341 l 0.028,-0.387 -0.25,0.046 z"
         id="path1821"
         style="fill:#fcdf00" />
      <path
         d="m 923.299,635.389 c 1.076,-2.09 1.169,-3.747 0.287,-4.955 -0.352,-0.491 -1.212,-1.113 -2.567,-1.877 -1.022,-0.595 -1.979,-1.077 -2.855,-1.434 -3.066,-1.311 -5.59,-2.934 -7.567,-4.876 -2.019,-1.958 -3.616,-4.365 -4.773,-7.229 -0.971,-2.325 -2.966,-4.523 -5.995,-6.608 -3.136,-2.153 -6.172,-3.303 -9.102,-3.451 -1.116,-0.064 -2.489,0.202 -4.109,0.802 -1.48,0.52 -2.812,1.185 -4.016,1.998 -2.542,1.685 -4.306,4.323 -5.299,7.909 -0.899,3.281 -1.073,6.895 -0.503,10.852 0.569,3.886 1.741,7.337 3.502,10.35 1.884,3.211 4.104,5.346 6.67,6.402 3.02,1.243 6.169,1.938 9.442,2.075 2.157,0.094 5.412,-0.09 9.771,-0.539 1.535,-0.164 3.719,-0.733 6.55,-1.73 2.91,-1.015 4.968,-1.936 6.179,-2.75 1.932,-1.314 3.399,-2.964 4.385,-4.939"
         id="path1823"
         style="fill:#fcdf00" />
      <path
         d="m 891.032,618.001 c 3.338,-1.541 4.986,-3.646 4.95,-6.313 -0.045,-2.664 -0.733,-4.91 -2.075,-6.732 -0.407,-0.56 -0.865,-1.086 -1.36,-1.596 l -0.376,-0.44 0.326,-0.263 c -1.554,-2.846 -1.876,-6.587 -0.952,-11.211 0.938,-4.63 -0.248,-7.021 -3.533,-7.185 l -0.849,0.378 c -3.624,3.744 -4.5,8.804 -2.624,15.172 0.063,0.223 0.131,0.438 0.197,0.646 l 0.006,0.01 0.138,0.691 -0.138,-0.691 -0.006,-0.01 c -0.721,-0.013 -1.432,-0.131 -2.125,-0.354 -0.358,-0.116 -0.7,-0.136 -1.034,-0.074 -3.108,0.521 -5.297,2.229 -6.57,5.116 -1.044,2.376 -0.627,4.404 1.246,6.064 0.132,0.127 0.254,0.258 0.361,0.396 0.594,0.755 1.461,1.103 2.597,1.069 0.154,-0.008 0.306,-0.017 0.455,-0.032 l -0.285,-0.074 1.257,-0.394 0.536,-0.256 c 0.004,-0.321 0.083,-0.42 0.252,-0.299 0.065,0.021 0.098,0.049 0.098,0.067 -0.011,0.047 -0.023,0.085 -0.046,0.126 0.094,-0.044 0.196,-0.091 0.309,-0.144 0.522,-0.229 0.52,-1.233 -0.022,-3.007 -0.539,-1.773 -0.258,-3.499 0.856,-5.172 -1.114,1.673 -1.396,3.398 -0.856,5.172 0.542,1.773 0.545,2.778 0.022,3.007 -0.112,0.053 -0.215,0.1 -0.309,0.144 -0.022,0.041 -0.053,0.087 -0.096,0.127 l -0.744,0.234 -1.257,0.394 0.285,0.074 c -0.149,0.016 -0.301,0.024 -0.455,0.032 1.701,5.911 5.64,7.684 11.821,5.328 m -7.294,-6.373 c 0.428,0.187 0.685,0.379 0.785,0.594 0.024,0.052 0.163,0.038 0.405,-0.04 0.044,-0.157 0.106,-0.31 0.171,-0.463 0.179,-0.414 0.437,-0.791 0.765,-1.129 0.122,-0.117 0.256,-0.231 0.398,-0.349 0.21,-0.147 0.429,-0.28 0.651,-0.382 0.203,-0.164 0.419,-0.348 0.634,-0.55 l 1.379,0.323 c -0.728,-0.113 -1.403,-0.042 -2.013,0.227 -0.373,0.306 -0.729,0.551 -1.05,0.73 -0.328,0.338 -0.586,0.715 -0.765,1.129 -0.064,0.153 -0.127,0.306 -0.171,0.463 0.09,-0.031 0.188,-0.065 0.302,-0.109 0.433,-0.165 0.752,-0.323 0.942,-0.473 -0.19,0.149 -0.51,0.308 -0.942,0.473 -0.114,0.044 -0.212,0.078 -0.302,0.109 -0.421,1.397 -0.055,2.535 1.115,3.418 -1.17,-0.883 -1.536,-2.021 -1.115,-3.418 -0.242,0.078 -0.381,0.092 -0.405,0.04 -0.099,-0.214 -0.356,-0.407 -0.784,-0.593 -0.426,-0.19 -0.724,-0.478 -0.904,-0.862 -0.229,-0.487 -0.35,-0.835 -0.364,-1.037 -0.003,-0.297 0.109,-0.816 0.354,-1.552 -0.244,0.735 -0.356,1.255 -0.354,1.552 0.015,0.202 0.136,0.55 0.364,1.037 0.181,0.384 0.478,0.672 0.904,0.862 m 0.557,-6.688 c 0.744,-0.807 1.682,-1.465 2.797,-1.986 1.637,-0.761 3.214,-0.674 4.734,0.246 -1.521,-0.92 -3.098,-1.007 -4.734,-0.246 -1.115,0.522 -2.053,1.18 -2.797,1.986 -1.002,1.092 -1.648,2.459 -1.956,4.081 0.307,-1.622 0.954,-2.989 1.956,-4.081"
         id="path1825"
         style="fill:#fcdf00" />
      <path
         d="m 886.263,610.241 c -0.143,0.117 -0.276,0.231 -0.397,0.349 0.32,-0.18 0.676,-0.425 1.049,-0.73 -0.223,0.102 -0.442,0.234 -0.652,0.381"
         id="path1827"
         style="fill:#fcdf00" />
      <path
         d="m 887.548,609.31 c -0.215,0.202 -0.431,0.386 -0.634,0.55 0.61,-0.269 1.285,-0.34 2.013,-0.227 l -1.379,-0.323 z"
         id="path1829"
         style="fill:#fcdf00" />
      <path
         d="m 886.173,611.6 c -0.189,0.149 -0.51,0.308 -0.942,0.473 -0.114,0.044 -0.212,0.078 -0.302,0.109"
         id="path1831"
         style="fill:none;stroke:#f2b800;stroke-width:0.189;stroke-linecap:round;stroke-linejoin:round;stroke-miterlimit:10" />
      <path
         d="m 879.211,612.675 c 0.154,-0.008 0.306,-0.017 0.455,-0.032 l -0.285,-0.074 1.257,-0.394 0.744,-0.234 c 0.043,-0.04 0.073,-0.086 0.096,-0.127 0.094,-0.044 0.196,-0.091 0.309,-0.143 0.522,-0.229 0.52,-1.234 -0.022,-3.009 -0.539,-1.772 -0.258,-3.498 0.856,-5.171 m 2.308,8.691 c -0.242,0.078 -0.381,0.092 -0.405,0.04 -0.101,-0.215 -0.357,-0.407 -0.785,-0.593 -0.426,-0.191 -0.724,-0.479 -0.904,-0.863 -0.229,-0.487 -0.35,-0.835 -0.364,-1.037 -0.003,-0.297 0.109,-0.817 0.354,-1.552 m 1.911,-7.72 c -0.721,-0.013 -1.432,-0.131 -2.125,-0.354 -0.358,-0.116 -0.7,-0.136 -1.034,-0.074 -3.108,0.521 -5.297,2.229 -6.57,5.116 -1.044,2.376 -0.627,4.404 1.246,6.064 0.132,0.128 0.254,0.258 0.361,0.396 0.594,0.755 1.46,1.103 2.597,1.069 m 6.653,-2.084 c -0.328,0.338 -0.586,0.715 -0.765,1.129 -0.064,0.153 -0.127,0.306 -0.171,0.463 m 1.986,-2.323 c -0.222,0.103 -0.441,0.234 -0.651,0.382 -0.143,0.117 -0.276,0.231 -0.398,0.349 m 1.049,-0.731 c 0.61,-0.269 1.285,-0.34 2.013,-0.227 l -1.379,-0.323 c -0.215,0.203 -0.431,0.386 -0.634,0.55 z m -1.05,0.731 c 0.321,-0.18 0.677,-0.425 1.05,-0.73 m 4.912,-6.66 c -1.521,-0.92 -3.098,-1.007 -4.734,-0.247 -1.115,0.522 -2.053,1.181 -2.797,1.987 -1.002,1.092 -1.648,2.459 -1.956,4.081 m 2.541,-7.863 -0.138,-0.691 -0.006,-0.01 m 2.427,-15.818 c -3.624,3.744 -4.5,8.804 -2.624,15.172 0.063,0.223 0.131,0.438 0.197,0.646 m 7.761,2.199 c -1.554,-2.846 -1.876,-6.587 -0.952,-11.211 0.938,-4.63 -0.248,-7.021 -3.533,-7.185 m -8.801,28.415 c 1.701,5.909 5.64,7.683 11.822,5.326 3.337,-1.541 4.985,-3.646 4.95,-6.313 -0.046,-2.664 -0.734,-4.91 -2.075,-6.732 -0.408,-0.56 -0.866,-1.087 -1.361,-1.596 m -7.618,8.822 c -0.421,1.396 -0.055,2.535 1.115,3.418"
         id="path1833"
         style="fill:none;stroke:#f2b800;stroke-width:1.51300001;stroke-linecap:round;stroke-linejoin:round;stroke-miterlimit:10" />
    </g>
  </g>
</svg>
