<?xml version="1.0" encoding="UTF-8" standalone="no"?>
<!-- Created with Inkscape (http://www.inkscape.org/) -->

<svg
   xmlns:dc="http://purl.org/dc/elements/1.1/"
   xmlns:cc="http://creativecommons.org/ns#"
   xmlns:rdf="http://www.w3.org/1999/02/22-rdf-syntax-ns#"
   xmlns:svg="http://www.w3.org/2000/svg"
   xmlns="http://www.w3.org/2000/svg"
   xmlns:sodipodi="http://sodipodi.sourceforge.net/DTD/sodipodi-0.dtd"
   xmlns:inkscape="http://www.inkscape.org/namespaces/inkscape"
   width="162.72009"
   height="220.81813"
   id="svg5696"
   version="1.1"
   inkscape:version="0.48.4 r9939"
   sodipodi:docname="bert15.svg">
  <defs
     id="defs5698" />
  <sodipodi:namedview
     id="base"
     pagecolor="#ffffff"
     bordercolor="#666666"
     borderopacity="1.0"
     inkscape:pageopacity="0.0"
     inkscape:pageshadow="2"
     inkscape:zoom="0.77472527"
     inkscape:cx="81.370011"
     inkscape:cy="110.40906"
     inkscape:current-layer="layer1"
     inkscape:document-units="px"
     showgrid="false"
     inkscape:window-width="942"
     inkscape:window-height="591"
     inkscape:window-x="413"
     inkscape:window-y="97"
     inkscape:window-maximized="0"
     fit-margin-top="0"
     fit-margin-left="0"
     fit-margin-right="0"
     fit-margin-bottom="0" />
  <metadata
     id="metadata5701">
    <rdf:RDF>
      <cc:Work
         rdf:about="">
        <dc:format>image/svg+xml</dc:format>
        <dc:type
           rdf:resource="http://purl.org/dc/dcmitype/StillImage" />
        <dc:title></dc:title>
      </cc:Work>
    </rdf:RDF>
  </metadata>
  <g
     id="layer1"
     inkscape:label="Layer 1"
     inkscape:groupmode="layer"
     transform="translate(-150.25977,25.302705)">
    <g
       transform="translate(52.137483,-57.151705)"
       id="g261">
      <path
         inkscape:connector-curvature="0"
         style="fill:#eddc00"
         d="m 185.274,189.261 c 0.673,-1.53 0.703,-3.457 0.098,-5.782 -0.637,-2.445 -1.853,-4.676 -3.648,-6.673 -2.067,-2.283 -4.587,-3.881 -7.558,-4.787 -3.477,-1.062 -7.349,-1.101 -11.617,-0.137 -0.825,-1.441 -2.734,-3.141 -5.737,-5.122 -3.195,-2.109 -6.567,-3.787 -10.115,-5.036 -4.12,-1.457 -7.715,-2.015 -10.792,-1.671 -3.643,0.397 -6.258,2.04 -7.846,4.927 -2.225,4.039 -0.933,8.27 3.877,12.691 1.755,1.611 3.75,3.017 5.976,4.228 1.994,1.075 3.512,1.665 4.563,1.758 -2.131,3.054 -2.305,6.192 -0.523,9.399 1.544,2.798 4.257,5.203 8.138,7.206 3.71,1.933 7.336,2.942 10.888,3.029 3.827,0.107 6.421,-0.949 7.784,-3.17 -0.282,2.019 0.609,3.787 2.682,5.306 1.939,1.426 4.343,2.263 7.21,2.492 3.019,0.253 5.62,-0.265 7.81,-1.565 2.525,-1.48 4.018,-3.771 4.485,-6.871 0.167,-1.1 -0.772,-2.876 -2.815,-5.338 -2.063,-2.462 -3.02,-4.191 -2.869,-5.186 l 0.009,0.302 z"
         id="path263" />
      <path
         inkscape:connector-curvature="0"
         style="fill:none;stroke:#f2b800;stroke-width:2.83100009;stroke-miterlimit:10"
         d="m 185.274,189.261 -0.009,-0.302 c -0.151,0.995 0.806,2.724 2.869,5.186 2.043,2.462 2.982,4.238 2.815,5.338 -0.467,3.101 -1.96,5.391 -4.485,6.871 -2.19,1.3 -4.791,1.818 -7.81,1.565 -2.867,-0.229 -5.271,-1.066 -7.21,-2.492 -2.073,-1.519 -2.964,-3.287 -2.682,-5.306 -1.363,2.221 -3.957,3.277 -7.784,3.17 -3.552,-0.087 -7.178,-1.096 -10.888,-3.029 -3.881,-2.003 -6.594,-4.408 -8.138,-7.206 -1.782,-3.207 -1.608,-6.345 0.523,-9.399 -1.051,-0.093 -2.569,-0.683 -4.563,-1.758 -2.226,-1.211 -4.221,-2.617 -5.976,-4.228 -4.81,-4.421 -6.102,-8.652 -3.877,-12.691 1.588,-2.887 4.203,-4.53 7.846,-4.927 3.077,-0.344 6.672,0.214 10.792,1.671 3.548,1.249 6.92,2.927 10.115,5.036 3.003,1.981 4.912,3.681 5.737,5.121 4.268,-0.963 8.14,-0.924 11.617,0.138 2.971,0.906 5.491,2.504 7.558,4.787 1.795,1.997 3.011,4.228 3.648,6.673 0.605,2.325 0.575,4.252 -0.098,5.782 z"
         id="path265" />
      <path
         inkscape:connector-curvature="0"
         style="fill:#fcdf00"
         d="m 185.274,189.261 c 0.673,-1.53 0.703,-3.457 0.098,-5.782 -0.637,-2.445 -1.853,-4.676 -3.648,-6.673 -2.067,-2.283 -4.587,-3.881 -7.558,-4.787 -3.477,-1.062 -7.349,-1.101 -11.617,-0.137 -0.825,-1.441 -2.734,-3.141 -5.737,-5.122 -3.195,-2.109 -6.567,-3.787 -10.115,-5.036 -4.12,-1.457 -7.715,-2.015 -10.792,-1.671 -3.643,0.397 -6.258,2.04 -7.846,4.927 -2.225,4.039 -0.933,8.27 3.877,12.691 1.755,1.611 3.75,3.017 5.976,4.228 1.994,1.075 3.512,1.665 4.563,1.758 -2.131,3.054 -2.305,6.192 -0.523,9.399 1.544,2.798 4.257,5.203 8.138,7.206 3.71,1.933 7.336,2.942 10.888,3.029 3.827,0.107 6.421,-0.949 7.784,-3.17 -0.282,2.019 0.609,3.787 2.682,5.306 1.939,1.426 4.343,2.263 7.21,2.492 3.019,0.253 5.62,-0.265 7.81,-1.565 2.525,-1.48 4.018,-3.771 4.485,-6.871 0.167,-1.1 -0.772,-2.876 -2.815,-5.338 -2.063,-2.462 -3.02,-4.191 -2.869,-5.186 l 0.009,0.302 z"
         id="path267" />
      <path
         inkscape:connector-curvature="0"
         style="fill:#e42126"
         d="m 184.095,196.042 c 0.095,-0.258 0.191,-0.516 0.297,-0.757 -3.472,-0.614 -6.943,-1.209 -10.432,-1.804 -0.106,0.24 -0.211,0.48 -0.317,0.729 -1.489,3.302 -2.818,6.9 -3.986,10.797 -0.047,-0.017 -0.095,-0.025 -0.142,-0.024 -0.769,-0.108 -1.518,0.135 -2.264,0.737 h -0.01 v 0.01 c -0.635,0.521 -1.066,1.207 -1.284,2.037 -0.153,0.837 -0.044,1.589 0.348,2.257 0.441,0.761 1.05,1.185 1.838,1.264 h 0.009 c 0.076,-0.003 0.142,0.005 0.19,0.022 -0.008,0.047 -0.007,0.085 -0.014,0.132 -0.07,0.192 -0.129,0.392 -0.179,0.611 -0.083,0.372 -0.156,0.753 -0.219,1.124 0.001,0.009 0.001,0.009 0.01,0.018 -0.032,0.162 -0.065,0.315 -0.088,0.475 -0.022,0.181 -0.026,0.371 -0.01,0.549 0.013,0.142 -0.001,0.265 -0.054,0.39 -0.029,-0.018 -0.058,-0.036 -0.087,-0.064 0.001,0.029 0.001,0.047 0.002,0.077 -0.679,0.031 -1.265,0.344 -1.755,0.945 l -0.01,0.001 v 0.01 c -0.481,0.592 -0.703,1.318 -0.656,2.177 0.049,0.632 0.237,1.203 0.566,1.712 l 1.842,-0.061 c -0.039,-0.046 -0.078,-0.082 -0.108,-0.118 -0.087,-0.064 -0.165,-0.138 -0.243,-0.229 v -0.01 c -0.325,-0.348 -0.508,-0.758 -0.534,-1.24 -0.015,-0.199 -0.002,-0.378 0.03,-0.559 0.145,-0.468 0.397,-0.864 0.755,-1.179 0.469,-0.412 1.01,-0.637 1.623,-0.676 0.01,-0.001 0.029,-0.001 0.048,-0.002 0.007,-0.048 0.006,-0.076 0.006,-0.104 0.035,-0.077 0.071,-0.154 0.096,-0.24 -0.183,-0.382 -0.236,-0.844 -0.168,-1.365 0.084,-0.608 0.216,-1.199 0.396,-1.782 0.078,-0.229 0.174,-0.43 0.311,-0.596 0.023,-0.181 0.045,-0.352 0.068,-0.531 -0.01,0 -0.038,0.001 -0.066,0.002 -0.617,-0.047 -1.173,-0.293 -1.651,-0.741 -0.439,-0.411 -0.702,-0.922 -0.806,-1.524 0.003,-0.179 0.016,-0.36 0.029,-0.54 0.066,-0.285 0.172,-0.526 0.306,-0.729 0.156,-0.165 0.321,-0.332 0.486,-0.479 0.238,-0.225 0.517,-0.395 0.825,-0.51 0.636,-0.228 1.256,-0.334 1.862,-0.306 0.009,-0.02 0.009,-0.029 0.018,-0.029 1.074,-3.865 2.338,-7.424 3.8,-10.696 2.54,0.445 5.059,0.883 7.561,1.321 -1.327,3.362 -2.424,6.86 -3.297,10.481 0,0.01 0,0.01 0.001,0.019 0.445,0.298 0.79,0.711 1.042,1.243 0.114,0.27 0.171,0.57 0.172,0.892 -0.035,0.635 -0.263,1.209 -0.672,1.724 -0.337,0.399 -0.761,0.705 -1.255,0.911 -0.02,0.001 -0.038,0.002 -0.057,0.012 -0.019,-0.009 -0.038,-0.018 -0.058,-0.027 -0.009,0.01 -0.017,0.02 -0.027,0.03 -0.082,0.077 -0.145,0.164 -0.209,0.262 -0.135,0.202 -0.24,0.433 -0.298,0.7 -0.125,0.524 -0.192,1.055 -0.222,1.605 -0.017,0.35 0.013,0.68 0.081,1.008 -0.01,0.011 -0.01,0.011 -0.009,0.02 0.002,0.076 0.005,0.152 0.007,0.227 l 0.001,0.028 0.01,-0.001 c 0.047,0.009 0.113,0.007 0.18,0.013 0.628,0.122 1.141,0.465 1.537,1.028 0.316,0.434 0.484,0.911 0.501,1.449 -0.016,0.068 -0.023,0.162 -0.01,0.275 -0.012,0.199 -0.044,0.39 -0.085,0.57 l 1.587,-0.052 c 0.021,-0.236 0.031,-0.493 0.013,-0.757 -0.076,-0.858 -0.383,-1.604 -0.915,-2.239 -0.363,-0.433 -0.78,-0.731 -1.23,-0.896 0,-0.009 0,-0.009 -0.001,-0.019 -0.028,-0.008 -0.048,-0.027 -0.068,-0.045 -0.01,-0.008 -0.01,-0.019 -0.02,-0.027 -0.011,-0.076 -0.014,-0.152 -0.016,-0.218 -0.023,-0.102 -0.026,-0.216 -0.02,-0.339 0.027,-0.341 0.072,-0.674 0.147,-0.988 0.091,-0.391 0.261,-0.699 0.508,-0.934 0,-0.01 -10e-4,-0.019 -10e-4,-0.029 0.307,-0.133 0.595,-0.322 0.879,-0.576 0.597,-0.54 0.99,-1.234 1.162,-2.081 0.17,-0.829 0.07,-1.582 -0.282,-2.251 -0.211,-0.371 -0.466,-0.656 -0.756,-0.855 0.928,-3.67 2.069,-7.227 3.441,-10.665"
         id="path269" />
      <path
         inkscape:connector-curvature="0"
         style="fill:#e42126"
         d="m 145.771,226.886 c -3.009,1.072 -5.297,2.518 -6.854,4.328 -1.586,1.82 -2.243,3.705 -1.98,5.654 v 0.008 c 0.226,1.998 1.39,3.728 3.49,5.2 h 0.009 c 2.139,1.499 5.037,2.511 8.713,3.033 h 0.01 c 8.693,1.228 19.946,-0.447 33.742,-5.022 0.595,-0.056 0.793,-1.51 0.605,-4.36 l -0.001,-0.009 c -0.185,-2.472 -0.561,-4.719 -1.148,-6.743 0,0 0.01,0 0.019,-0.009 -0.042,-0.103 -0.073,-0.196 -0.085,-0.281 0.194,-0.158 0.368,-0.343 0.522,-0.556 -0.011,-0.009 -10e-4,-0.019 0.008,-0.01 0.378,-0.608 0.495,-1.33 0.354,-2.177 -0.188,-0.835 -0.58,-1.559 -1.187,-2.173 -0.351,-0.32 -0.699,-0.554 -1.045,-0.723 -0.237,-0.03 -0.422,-0.175 -0.572,-0.445 -0.162,-0.296 -0.294,-0.604 -0.409,-0.913 -0.052,-0.14 -0.066,-0.281 -0.05,-0.404 -0.011,-0.056 -0.023,-0.113 -0.035,-0.178 0.297,-0.153 0.565,-0.379 0.8,-0.688 -0.01,-0.011 0,-0.02 0.01,-0.011 0.308,-0.417 0.499,-0.905 0.566,-1.446 l -1.586,0.052 c -0.111,0.372 -0.298,0.7 -0.563,0.993 -0.027,0.028 -0.064,0.067 -0.101,0.097 l -0.751,0.469 c -0.023,1.032 0.226,1.969 0.755,2.831 0.03,0.046 0.059,0.083 0.108,0.129 l 0.442,0.203 c 0.24,0.115 0.51,0.276 0.8,0.484 0.3,0.208 0.535,0.408 0.683,0.592 0.302,0.312 0.503,0.683 0.584,1.125 0.001,0.01 0.001,0.01 0.001,0.019 -0.01,10e-4 0,0.01 0.01,0.028 -0.009,0.021 0.002,0.047 0.023,0.094 0.009,0.028 0.012,0.075 0.023,0.122 0.027,0.538 -0.09,1.034 -0.349,1.487 -0.171,0.27 -0.391,0.494 -0.669,0.665 0.01,0.018 0.011,0.037 0.011,0.047 0.076,0.31 0.172,0.618 0.268,0.946 v 0.009 h 0.01 c 0.653,2.05 1.043,4.116 1.158,6.212 0.117,2.096 0.226,3.122 0.319,3.092 -13.516,4.479 -24.543,6.137 -33.064,4.951 -0.598,-0.084 -1.169,-0.188 -1.721,-0.292 -0.145,-0.1 -0.29,-0.2 -0.417,-0.318 -0.973,-0.829 -1.538,-1.916 -1.696,-3.273 -0.156,-1.31 0.115,-2.548 0.804,-3.733 0.726,-1.244 1.793,-2.139 3.203,-2.677 -2.078,0.361 -3.638,1.245 -4.66,2.649 -0.932,1.25 -1.256,2.642 -0.979,4.173 0.174,0.988 0.561,1.816 1.151,2.506 -1.453,-0.471 -2.702,-1.074 -3.756,-1.806 -1.694,-1.181 -2.647,-2.56 -2.859,-4.151 -0.183,-1.535 0.354,-3.028 1.62,-4.478 1.422,-1.626 3.498,-2.924 6.227,-3.901 6.103,-2.177 13.66,-2.378 22.674,-0.584 0.204,0.153 0.407,0.318 0.611,0.481 0.105,0.015 0.19,0.032 0.267,0.048 0.009,-0.01 0.027,-0.01 0.037,-0.001 -0.183,-0.088 -0.347,-0.234 -0.516,-0.447 -0.019,-0.018 -0.039,-0.037 -0.048,-0.054 -0.209,-0.287 -0.37,-0.622 -0.497,-1.006 -0.084,-0.271 -0.13,-0.544 -0.149,-0.808 -0.016,-0.216 -0.005,-0.435 0.026,-0.643 0.086,-0.542 0.356,-0.949 0.812,-1.218 0.175,-0.11 0.352,-0.211 0.539,-0.283 l 0.87,-0.246 c -0.012,-0.066 -0.032,-0.121 -0.062,-0.168 -0.514,-0.967 -0.859,-1.977 -1.017,-3.04 l -0.578,-0.048 c -0.381,-0.072 -0.765,-0.258 -1.162,-0.538 -0.146,-0.109 -0.282,-0.228 -0.399,-0.346 l -1.842,0.061 c 0.111,0.175 0.248,0.351 0.395,0.516 0.009,-0.01 0.02,0 0.01,0.008 0.638,0.708 1.358,1.053 2.162,1.056 0.023,0.122 0.065,0.243 0.136,0.374 0.01,0.037 0.021,0.074 0.032,0.111 0.085,0.291 0.179,0.571 0.283,0.852 0.062,0.159 0.133,0.298 0.212,0.428 -0.66,0.059 -1.178,0.388 -1.566,0.978 h -0.01 l 0.011,0.01 c -0.388,0.58 -0.507,1.265 -0.378,2.053 -8.412,-1.415 -15.531,-1.077 -21.364,1.033"
         id="path271" />
      <path
         inkscape:connector-curvature="0"
         style="fill:#e27c9f"
         d="m 169.093,206.254 c -0.308,0.115 -0.587,0.285 -0.825,0.51 -0.165,0.147 -0.33,0.314 -0.486,0.479 -0.134,0.203 -0.24,0.443 -0.306,0.729 -0.013,0.179 -0.026,0.36 -0.029,0.54 0.104,0.601 0.367,1.112 0.806,1.523 0.478,0.448 1.034,0.695 1.651,0.741 0.028,-0.001 0.056,-0.001 0.065,-0.002 0.029,-0.01 0.047,-0.011 0.058,-0.002 2.734,0.354 5.449,0.7 8.156,1.056 0.01,-0.01 0.018,-0.02 0.027,-0.029 0.02,0.009 0.039,0.018 0.058,0.027 0.019,-0.011 0.037,-0.011 0.057,-0.012 0.494,-0.206 0.918,-0.512 1.255,-0.912 0.409,-0.514 0.637,-1.088 0.672,-1.723 -0.001,-0.322 -0.058,-0.622 -0.172,-0.893 -0.252,-0.531 -0.597,-0.945 -1.042,-1.242 -0.001,-0.01 -0.001,-0.01 -0.001,-0.019 -2.678,-0.357 -5.375,-0.713 -8.082,-1.077 -0.606,-0.028 -1.226,0.077 -1.862,0.306"
         id="path273" />
      <path
         inkscape:connector-curvature="0"
         style="fill:#e86601"
         d="m 170.027,210.771 c -0.01,-0.009 -0.029,-0.008 -0.057,0.002 -0.023,0.18 -0.045,0.351 -0.068,0.532 -0.136,0.166 -0.233,0.367 -0.311,0.596 -0.18,0.583 -0.312,1.174 -0.396,1.782 -0.067,0.521 -0.014,0.983 0.168,1.365 -0.025,0.086 -0.061,0.163 -0.096,0.24 0.001,0.028 0.002,0.056 -0.006,0.104 0.037,-0.011 0.057,-0.002 0.067,0.006 0.019,0.01 0.038,0.01 0.056,0.019 2.726,0.07 5.443,0.151 8.15,0.233 -0.003,-0.075 -0.006,-0.151 -0.008,-0.227 0,-0.009 0,-0.009 0.009,-0.02 -0.068,-0.328 -0.097,-0.658 -0.081,-1.008 0.031,-0.55 0.097,-1.081 0.222,-1.605 0.058,-0.267 0.164,-0.498 0.299,-0.7 0.063,-0.098 0.126,-0.185 0.209,-0.263 -2.707,-0.354 -5.423,-0.702 -8.157,-1.056"
         id="path275" />
      <path
         inkscape:connector-curvature="0"
         style="fill:#e86601"
         d="m 170.974,205.919 c -0.01,0 -0.009,0.009 -0.018,0.029 2.707,0.364 5.404,0.72 8.082,1.076 0.873,-3.621 1.969,-7.119 3.296,-10.48 -2.501,-0.438 -5.021,-0.876 -7.56,-1.321 -1.462,3.271 -2.727,6.83 -3.8,10.696"
         id="path277" />
      <path
         inkscape:connector-curvature="0"
         style="fill:#e27c9f"
         d="m 177.535,215.679 -0.001,-0.028 c -2.707,-0.082 -5.424,-0.163 -8.149,-0.234 -0.019,-0.009 -0.038,-0.009 -0.057,-0.018 -0.01,-0.009 -0.029,-0.017 -0.067,-0.006 -0.018,0.001 -0.038,0.001 -0.047,0.002 -0.614,0.038 -1.155,0.264 -1.623,0.676 -0.358,0.315 -0.611,0.711 -0.755,1.179 -0.032,0.18 -0.046,0.36 -0.03,0.559 0.025,0.481 0.209,0.891 0.533,1.24 v 0.009 c 0.079,0.092 0.157,0.166 0.244,0.229 0.147,0.175 0.313,0.33 0.507,0.465 0.397,0.281 0.781,0.466 1.162,0.538 l 0.578,0.048 1.883,0.051 c 2.025,0.047 4.051,0.104 6.067,0.17 l 0.473,0.013 0.751,-0.469 c 0.037,-0.029 0.073,-0.069 0.1,-0.097 0.392,-0.43 0.613,-0.948 0.648,-1.563 -0.012,-0.113 -0.006,-0.207 0.011,-0.275 -0.019,-0.538 -0.185,-1.015 -0.502,-1.449 -0.395,-0.563 -0.908,-0.906 -1.537,-1.028 -0.066,-0.007 -0.133,-0.005 -0.18,-0.013 l -0.009,0.001 z"
         id="path279" />
      <path
         inkscape:connector-curvature="0"
         style="fill:#e27c9f"
         d="m 170.038,223.792 c -0.187,0.072 -0.364,0.173 -0.539,0.283 -0.456,0.27 -0.726,0.676 -0.812,1.218 -0.03,0.208 -0.042,0.427 -0.026,0.643 0.019,0.264 0.065,0.537 0.149,0.808 0.127,0.384 0.289,0.719 0.497,1.006 0.01,0.018 0.029,0.037 0.049,0.054 0.168,0.213 0.333,0.359 0.515,0.447 -0.01,-0.009 -0.028,-0.009 -0.037,0.001 0.048,0.008 0.085,0.016 0.134,0.042 0.067,0.018 0.142,0.035 0.219,0.05 0.019,-0.01 0.038,-0.001 0.057,0.008 0.086,0.007 0.17,0.005 0.256,0.011 0.123,0.005 0.255,0.001 0.387,0.007 3.281,-0.005 6.534,-0.016 9.776,-0.02 0.279,-0.169 0.499,-0.394 0.669,-0.663 0.26,-0.454 0.376,-0.95 0.349,-1.488 -0.011,-0.047 -0.013,-0.094 -0.022,-0.121 -0.022,-0.048 -0.033,-0.075 -0.024,-0.095 -0.01,-0.018 -0.019,-0.027 -0.01,-0.028 0,-0.009 0,-0.009 -0.001,-0.019 -0.08,-0.442 -0.281,-0.813 -0.584,-1.125 -0.148,-0.184 -0.382,-0.384 -0.682,-0.591 -0.29,-0.208 -0.56,-0.37 -0.8,-0.485 l -0.442,-0.203 -1.078,-0.002 c -1.948,-0.003 -3.896,0.005 -5.853,0.012 l -1.276,0.004 -0.871,0.246 z"
         id="path281" />
      <path
         inkscape:connector-curvature="0"
         style="fill:#e86601"
         d="m 169.968,228.294 c -0.048,-0.026 -0.086,-0.034 -0.134,-0.042 -0.076,-0.016 -0.161,-0.033 -0.266,-0.048 -0.204,-0.163 -0.408,-0.328 -0.612,-0.481 -9.013,-1.794 -16.571,-1.594 -22.674,0.584 -2.728,0.977 -4.804,2.275 -6.226,3.901 -1.266,1.45 -1.803,2.943 -1.621,4.478 0.213,1.591 1.166,2.969 2.86,4.151 1.054,0.732 2.303,1.333 3.756,1.806 -0.59,-0.69 -0.977,-1.518 -1.151,-2.506 -0.277,-1.531 0.047,-2.923 0.979,-4.173 1.022,-1.404 2.582,-2.288 4.66,-2.649 -1.41,0.538 -2.478,1.433 -3.203,2.677 -0.689,1.185 -0.961,2.423 -0.804,3.733 0.158,1.357 0.723,2.444 1.696,3.273 0.127,0.118 0.272,0.218 0.417,0.317 0.552,0.104 1.122,0.209 1.721,0.293 8.52,1.186 19.548,-0.472 33.064,-4.952 -0.093,0.031 -0.203,-0.995 -0.319,-3.091 -0.116,-2.096 -0.505,-4.164 -1.158,-6.212 h -0.01 v -0.009 c -0.097,-0.328 -0.192,-0.638 -0.268,-0.946 0,-0.01 -0.001,-0.029 -0.011,-0.048 -3.242,0.003 -6.495,0.014 -9.777,0.019 -0.132,-0.006 -0.264,-0.001 -0.387,-0.006 -0.085,-0.006 -0.17,-0.004 -0.256,-0.011 -0.019,-0.009 -0.038,-0.018 -0.057,-0.008 -0.076,-0.016 -0.152,-0.033 -0.219,-0.05 z"
         id="path283" />
      <path
         inkscape:connector-curvature="0"
         style="fill:#e86601"
         d="m 170.909,223.545 1.277,-0.004 c 1.957,-0.007 3.905,-0.015 5.852,-0.012 l 1.078,0.002 c -0.049,-0.046 -0.078,-0.082 -0.108,-0.129 -0.53,-0.862 -0.778,-1.799 -0.755,-2.831 l -0.473,-0.012 c -2.016,-0.067 -4.042,-0.123 -6.066,-0.17 l -1.884,-0.052 c 0.158,1.063 0.503,2.073 1.017,3.041 0.029,0.046 0.049,0.101 0.062,0.167"
         id="path285" />
      <path
         inkscape:connector-curvature="0"
         style="fill:#e42126"
         d="m 188.293,203.358 c -0.125,-0.244 -0.251,-0.487 -0.385,-0.71 3.351,-1.032 6.705,-2.043 10.076,-3.058 0.133,0.225 0.267,0.448 0.401,0.681 1.874,3.076 3.626,6.465 5.255,10.168 0.046,-0.023 0.091,-0.037 0.138,-0.04 0.746,-0.2 1.515,-0.053 2.326,0.449 l 0.008,-0.001 0.001,0.009 c 0.691,0.438 1.201,1.062 1.518,1.855 0.253,0.806 0.236,1.563 -0.067,2.27 -0.342,0.805 -0.892,1.298 -1.66,1.472 l -0.009,0.001 c -0.075,0.007 -0.14,0.022 -0.185,0.045 0.014,0.046 0.017,0.083 0.031,0.13 0.092,0.179 0.176,0.371 0.251,0.581 0.127,0.356 0.245,0.723 0.352,1.082 0.001,0.008 0.001,0.008 -0.007,0.018 0.052,0.156 0.102,0.303 0.145,0.46 0.045,0.175 0.071,0.361 0.078,0.54 0.004,0.141 0.033,0.261 0.1,0.378 0.027,-0.021 0.053,-0.042 0.078,-0.073 0.003,0.028 0.006,0.047 0.008,0.074 0.674,-0.051 1.29,0.185 1.849,0.72 l 0.009,-0.001 10e-4,0.009 c 0.548,0.525 0.855,1.215 0.914,2.069 0.04,0.846 -0.183,1.621 -0.676,2.316 -0.011,-0.007 -0.019,0.003 -0.009,0.012 -0.543,0.775 -1.212,1.204 -2.005,1.304 0.001,0.113 -0.025,0.239 -0.079,0.366 l -1.489,0.135 c 0.054,-0.335 0.08,-0.677 0.086,-1.027 l 0.564,-0.117 c 0.368,-0.118 0.724,-0.349 1.081,-0.675 0.176,-0.156 0.32,-0.33 0.444,-0.521 0.079,-0.073 0.146,-0.154 0.212,-0.254 l -0.001,-0.011 c 0.278,-0.383 0.409,-0.81 0.375,-1.288 -0.009,-0.198 -0.044,-0.373 -0.097,-0.548 -0.201,-0.445 -0.497,-0.804 -0.89,-1.071 -0.513,-0.35 -1.075,-0.507 -1.685,-0.47 -0.009,0.001 -0.028,0.004 -0.047,0.005 -0.014,-0.047 -0.016,-0.074 -0.018,-0.103 -0.045,-0.072 -0.089,-0.143 -0.125,-0.224 0.133,-0.4 0.13,-0.861 -0.001,-1.368 -0.158,-0.59 -0.36,-1.157 -0.609,-1.71 -0.105,-0.217 -0.225,-0.405 -0.38,-0.551 -0.044,-0.176 -0.088,-0.341 -0.131,-0.515 0.008,-0.002 0.037,-0.005 0.065,-0.007 0.603,-0.121 1.122,-0.433 1.539,-0.933 0.382,-0.46 0.579,-0.996 0.609,-1.603 -0.026,-0.177 -0.06,-0.353 -0.095,-0.529 -0.101,-0.274 -0.235,-0.498 -0.392,-0.682 -0.174,-0.144 -0.358,-0.288 -0.538,-0.413 -0.264,-0.194 -0.559,-0.327 -0.877,-0.402 -0.655,-0.148 -1.281,-0.176 -1.875,-0.076 -0.011,-0.018 -0.012,-0.026 -0.022,-0.025 -1.533,-3.684 -3.216,-7.042 -5.059,-10.093 -2.452,0.751 -4.886,1.492 -7.301,2.23 1.721,3.156 3.231,6.473 4.536,9.941 0.001,0.01 0.001,0.01 0.002,0.019 -0.403,0.348 -0.692,0.799 -0.878,1.354 -0.078,0.281 -0.097,0.585 -0.059,0.902 0.114,0.622 0.408,1.161 0.874,1.619 0.381,0.353 0.838,0.603 1.351,0.746 0.019,-0.002 0.038,-0.004 0.057,0.004 0.019,-0.011 0.036,-0.022 0.054,-0.033 0.01,0.008 0.02,0.017 0.03,0.025 0.092,0.067 0.165,0.146 0.238,0.233 0.159,0.184 0.292,0.398 0.382,0.655 0.186,0.502 0.318,1.018 0.414,1.557 0.06,0.344 0.071,0.673 0.044,1.006 0.009,0.008 0.009,0.008 0.01,0.018 0.008,0.075 0.015,0.149 0.022,0.225 l 0.001,0.028 -0.008,10e-4 c -0.046,0.014 -0.112,0.02 -0.176,0.035 -0.605,0.196 -1.069,0.597 -1.392,1.201 -0.26,0.469 -0.366,0.959 -0.318,1.492 0.025,0.064 0.043,0.156 0.044,0.27 0.112,0.603 0.391,1.088 0.831,1.463 0.031,0.025 0.072,0.06 0.112,0.084 l 0.798,0.372 c 0.024,0.167 0.04,0.335 0.046,0.505 l -1.741,0.158 c -0.247,-0.119 -0.489,-0.286 -0.718,-0.52 0.009,-0.01 -0.002,-0.019 -0.009,-0.008 -0.513,-0.549 -0.794,-1.25 -0.843,-2.104 -0.03,-0.857 0.182,-1.631 0.629,-2.323 0.306,-0.47 0.681,-0.816 1.105,-1.035 -0.001,-0.008 -0.001,-0.008 -0.002,-0.018 0.028,-0.012 0.045,-0.032 0.061,-0.053 0.009,-0.01 0.008,-0.02 0.016,-0.03 0.003,-0.075 -0.003,-0.15 -0.01,-0.216 0.01,-0.104 -0.001,-0.216 -0.021,-0.337 -0.068,-0.334 -0.154,-0.657 -0.266,-0.958 -0.139,-0.373 -0.343,-0.658 -0.616,-0.859 -0.001,-0.011 -0.002,-0.019 -0.003,-0.028 -0.319,-0.094 -0.626,-0.245 -0.938,-0.463 -0.656,-0.459 -1.129,-1.095 -1.401,-1.911 -0.27,-0.797 -0.264,-1.552 0.004,-2.256 0.162,-0.393 0.378,-0.705 0.641,-0.936 -1.367,-3.508 -2.928,-6.879 -4.703,-10.105 l 0,0 z"
         id="path287" />
      <path
         inkscape:connector-curvature="0"
         style="fill:#e42126"
         d="m 230.104,232.99 c 2.8,1.209 4.906,2.792 6.32,4.749 1.435,1.975 1.996,4 1.684,6.077 l 0.001,0.008 c -0.269,2.13 -1.423,3.961 -3.456,5.486 l -0.009,0.001 c -2.058,1.556 -4.826,2.571 -8.312,3.048 l -0.009,0.001 c -8.23,1.134 -18.785,-0.871 -31.646,-6.036 -0.162,-0.023 -0.299,-0.18 -0.391,-0.473 -0.017,0.03 -0.034,0.059 -0.058,0.09 -0.232,-0.687 -0.395,-1.852 -0.497,-3.485 l -0.001,-0.009 c -0.034,-0.705 -0.049,-1.383 -0.053,-2.053 0.008,-1.681 0.129,-3.258 0.363,-4.742 0,0 -0.011,0 -0.021,-0.009 0.028,-0.105 0.048,-0.202 0.05,-0.286 -0.051,-0.034 -0.101,-0.067 -0.151,-0.1 -0.152,-0.109 -0.296,-0.238 -0.432,-0.386 0.01,-0.01 -10e-4,-0.018 -0.009,-0.008 -0.447,-0.555 -0.652,-1.252 -0.616,-2.105 0.083,-0.848 0.382,-1.611 0.905,-2.292 0.307,-0.358 0.622,-0.632 0.943,-0.84 0.23,-0.058 0.395,-0.225 0.511,-0.508 0.122,-0.314 0.216,-0.633 0.291,-0.951 0.034,-0.146 0.03,-0.286 0,-0.406 0.006,-0.058 0.01,-0.115 0.012,-0.181 -0.048,-0.024 -0.107,-0.038 -0.156,-0.062 l 1.741,-0.157 c 0.048,0.826 -0.097,1.622 -0.444,2.38 -0.023,0.05 -0.048,0.089 -0.091,0.141 l -0.412,0.254 c -0.223,0.143 -0.469,0.336 -0.73,0.576 -0.271,0.242 -0.476,0.469 -0.601,0.668 -0.261,0.344 -0.414,0.737 -0.439,1.182 0.001,0.009 0.001,0.009 0.002,0.019 0.008,-10e-4 0,0.009 -0.007,0.029 0.01,0.018 0.004,0.047 -0.011,0.095 -0.006,0.029 -0.002,0.076 -0.007,0.123 0.039,0.535 0.214,1.009 0.525,1.425 0.202,0.246 0.447,0.441 0.741,0.575 -0.007,0.018 -0.005,0.037 -0.004,0.047 -0.006,0.048 -0.02,0.105 -0.024,0.153 -0.034,0.258 -0.075,0.535 -0.124,0.815 v 0.008 l -0.009,0.001 c -0.223,1.181 -0.363,2.354 -0.416,3.529 -0.039,0.92 -0.022,1.834 0.033,2.744 0.058,0.854 0.092,1.539 0.109,2.038 0.042,-0.051 0.086,-0.102 0.128,-0.152 -0.017,0.132 -0.025,0.246 -0.045,0.343 -0.037,0.315 -0.081,0.461 -0.12,0.445 12.606,5.066 22.951,7.052 31.026,5.968 0.559,-0.078 1.098,-0.174 1.625,-0.289 0.142,-0.097 0.273,-0.213 0.404,-0.329 0.942,-0.859 1.507,-2.014 1.697,-3.457 0.194,-1.386 -0.021,-2.726 -0.638,-4 -0.641,-1.348 -1.625,-2.316 -2.935,-2.924 1.954,0.427 3.392,1.401 4.314,2.93 0.831,1.351 1.098,2.846 0.783,4.469 -0.198,1.047 -0.581,1.922 -1.165,2.645 1.391,-0.476 2.591,-1.085 3.607,-1.847 1.634,-1.225 2.578,-2.678 2.83,-4.371 0.22,-1.635 -0.237,-3.245 -1.389,-4.811 -1.293,-1.76 -3.207,-3.191 -5.741,-4.292 -4.38,-1.876 -9.61,-2.524 -15.691,-1.926 l -7.9,1.03 -0.07,-0.041 c 0.301,-0.122 0.539,-0.304 0.724,-0.557 0.059,-0.071 0.109,-0.151 0.159,-0.222 0.073,-0.129 0.135,-0.276 0.187,-0.432 l 0.008,-0.01 c 0.051,-0.175 0.1,-0.358 0.14,-0.541 0.05,-0.279 0.064,-0.554 0.049,-0.817 -0.003,-0.141 -0.026,-0.28 -0.057,-0.419 -0.017,-0.074 -0.033,-0.148 -0.047,-0.212 -0.152,-0.526 -0.469,-0.893 -0.951,-1.104 -0.187,-0.086 -0.373,-0.165 -0.566,-0.213 l -0.89,-0.136 c 0.003,-0.066 0.017,-0.124 0.041,-0.174 0.267,-0.693 0.45,-1.39 0.545,-2.097 l 1.489,-0.135 c -0.009,0.009 -0.009,0.009 -0.008,0.02 -0.006,0.037 -0.012,0.076 -0.018,0.114 -0.049,0.298 -0.107,0.585 -0.176,0.875 -0.041,0.164 -0.094,0.31 -0.156,0.448 0.658,-0.021 1.21,0.239 1.664,0.775 l 0.01,-0.001 -0.009,0.01 c 0.201,0.236 0.358,0.505 0.461,0.807 0.06,0.156 0.103,0.311 0.128,0.479 0.031,0.451 0.006,0.896 -0.096,1.33 -0.027,0.117 -0.054,0.231 -0.091,0.357 0.249,-0.069 0.574,-0.126 0.994,-0.174 0.419,-0.066 0.82,-0.122 1.193,-0.184 0.37,-0.062 0.659,-0.107 0.864,-0.136 l 0.001,0.01 c 7.315,-1.032 13.512,-0.444 18.593,1.775"
         id="path289" />
      <path
         inkscape:connector-curvature="0"
         style="fill:#e27c9f"
         d="m 204.351,211.602 c 0.318,0.076 0.613,0.208 0.876,0.402 0.181,0.125 0.365,0.269 0.539,0.413 0.157,0.185 0.291,0.409 0.392,0.682 0.035,0.176 0.069,0.353 0.095,0.529 -0.03,0.608 -0.227,1.143 -0.61,1.603 -0.417,0.5 -0.936,0.812 -1.538,0.934 -0.028,0.001 -0.057,0.004 -0.066,0.006 -0.029,-0.007 -0.047,-0.006 -0.056,0.004 -2.656,0.684 -5.294,1.358 -7.922,2.04 -0.01,-0.008 -0.02,-0.016 -0.03,-0.025 -0.018,0.012 -0.035,0.022 -0.054,0.034 -0.019,-0.009 -0.039,-0.007 -0.057,-0.005 -0.513,-0.142 -0.97,-0.393 -1.351,-0.745 -0.467,-0.458 -0.76,-0.998 -0.874,-1.62 -0.038,-0.316 -0.019,-0.62 0.059,-0.901 0.186,-0.556 0.475,-1.006 0.878,-1.355 -0.001,-0.008 -0.001,-0.008 -0.002,-0.018 2.6,-0.681 5.219,-1.362 7.846,-2.054 0.593,-0.1 1.219,-0.072 1.875,0.076"
         id="path291" />
      <path
         inkscape:connector-curvature="0"
         style="fill:#e86601"
         d="m 203.982,216.175 c 0.009,-0.011 0.027,-0.012 0.057,-0.004 0.043,0.174 0.087,0.339 0.131,0.515 0.155,0.146 0.275,0.334 0.38,0.552 0.249,0.552 0.451,1.119 0.609,1.709 0.131,0.507 0.135,0.968 0.001,1.368 0.036,0.081 0.08,0.152 0.125,0.224 0.002,0.029 0.004,0.056 0.018,0.103 -0.039,-0.007 -0.056,0.004 -0.065,0.015 -0.017,0.011 -0.036,0.013 -0.054,0.024 -2.681,0.404 -5.353,0.816 -8.014,1.228 -0.007,-0.076 -0.014,-0.15 -0.021,-0.225 -0.001,-0.009 -0.001,-0.009 -0.011,-0.018 0.027,-0.333 0.016,-0.662 -0.044,-1.006 -0.096,-0.538 -0.228,-1.055 -0.414,-1.557 -0.09,-0.257 -0.223,-0.471 -0.382,-0.655 -0.073,-0.087 -0.146,-0.166 -0.238,-0.233 2.628,-0.682 5.267,-1.356 7.922,-2.04"
         id="path293" />
      <path
         inkscape:connector-curvature="0"
         style="fill:#e86601"
         d="m 202.453,211.501 c 0.01,-0.001 0.011,0.008 0.022,0.025 -2.627,0.692 -5.246,1.373 -7.845,2.054 -1.305,-3.468 -2.816,-6.786 -4.536,-9.942 2.415,-0.738 4.849,-1.478 7.3,-2.229 1.844,3.05 3.526,6.409 5.059,10.092"
         id="path295" />
      <path
         inkscape:connector-curvature="0"
         style="fill:#e27c9f"
         d="m 197.172,221.937 -0.001,-0.027 c 2.661,-0.412 5.332,-0.825 8.013,-1.228 0.018,-0.012 0.037,-0.014 0.055,-0.024 0.008,-0.012 0.026,-0.022 0.064,-0.016 0.02,-0.001 0.038,-0.003 0.047,-0.005 0.611,-0.036 1.173,0.12 1.685,0.47 0.393,0.267 0.69,0.627 0.89,1.071 0.054,0.176 0.089,0.351 0.098,0.548 0.033,0.479 -0.098,0.906 -0.375,1.289 l 0.001,0.01 c -0.066,0.1 -0.134,0.181 -0.212,0.255 -0.125,0.191 -0.269,0.365 -0.444,0.521 -0.358,0.325 -0.714,0.556 -1.081,0.674 l -0.565,0.117 -1.852,0.282 c -1.993,0.294 -3.985,0.598 -5.968,0.911 l -0.465,0.07 -0.798,-0.371 c -0.039,-0.025 -0.08,-0.059 -0.111,-0.085 -0.44,-0.375 -0.72,-0.859 -0.831,-1.463 -0.001,-0.113 -0.019,-0.206 -0.044,-0.27 -0.048,-0.533 0.058,-1.025 0.318,-1.491 0.323,-0.606 0.786,-1.006 1.391,-1.202 0.065,-0.015 0.131,-0.022 0.176,-0.035 l 0.009,-10e-4 z"
         id="path297" />
      <path
         inkscape:connector-curvature="0"
         style="fill:#e27c9f"
         d="m 205.565,229.027 c 0.193,0.048 0.379,0.126 0.566,0.213 0.482,0.211 0.799,0.578 0.951,1.103 0.014,0.065 0.03,0.139 0.047,0.213 0.031,0.139 0.054,0.278 0.057,0.419 0.015,0.263 0.002,0.538 -0.049,0.817 -0.04,0.183 -0.089,0.366 -0.14,0.541 l -0.008,0.01 c -0.052,0.156 -0.114,0.303 -0.187,0.432 -0.05,0.071 -0.1,0.15 -0.159,0.222 -0.185,0.253 -0.423,0.435 -0.724,0.557 l -1.025,0.14 c -0.821,0.103 -1.643,0.197 -2.464,0.298 -2.279,0.274 -4.547,0.556 -6.796,0.836 -0.294,-0.134 -0.539,-0.329 -0.741,-0.575 -0.311,-0.416 -0.486,-0.891 -0.525,-1.425 0.005,-0.048 0.001,-0.094 0.007,-0.123 0.015,-0.048 0.022,-0.077 0.011,-0.095 0.007,-0.02 0.015,-0.03 0.007,-0.029 -0.001,-0.01 -0.001,-0.01 -0.002,-0.019 0.026,-0.445 0.178,-0.838 0.439,-1.182 0.125,-0.199 0.33,-0.426 0.601,-0.668 0.261,-0.24 0.507,-0.433 0.73,-0.576 l 0.412,-0.255 1.064,-0.135 c 1.922,-0.24 3.845,-0.47 5.777,-0.703 l 1.261,-0.152 0.89,0.136 z"
         id="path299" />
      <path
         inkscape:connector-curvature="0"
         style="fill:#e86601"
         d="m 205.919,233.554 0.07,0.041 7.9,-1.03 c 6.08,-0.598 11.311,0.05 15.69,1.926 2.535,1.101 4.449,2.532 5.742,4.292 1.151,1.566 1.608,3.176 1.389,4.811 -0.252,1.693 -1.196,3.146 -2.831,4.371 -1.016,0.762 -2.215,1.371 -3.606,1.847 0.584,-0.723 0.967,-1.598 1.165,-2.645 0.315,-1.623 0.048,-3.118 -0.784,-4.468 -0.922,-1.53 -2.359,-2.504 -4.314,-2.931 1.311,0.608 2.294,1.576 2.936,2.924 0.616,1.274 0.832,2.614 0.638,4 -0.191,1.443 -0.755,2.598 -1.697,3.457 -0.131,0.116 -0.262,0.232 -0.404,0.329 -0.527,0.115 -1.067,0.211 -1.625,0.289 -8.075,1.084 -18.42,-0.902 -31.026,-5.968 0.038,0.016 0.082,-0.13 0.119,-0.445 0.02,-0.097 0.029,-0.211 0.045,-0.343 -0.042,0.05 -0.085,0.101 -0.128,0.152 -0.017,-0.499 -0.05,-1.184 -0.109,-2.038 -0.054,-0.91 -0.071,-1.824 -0.033,-2.744 0.053,-1.175 0.193,-2.348 0.416,-3.529 l 0.009,-0.001 v -0.01 c 0.05,-0.278 0.09,-0.555 0.125,-0.813 0.004,-0.048 0.018,-0.105 0.023,-0.153 -0.001,-0.009 -0.002,-0.029 0.005,-0.047 2.249,-0.28 4.516,-0.562 6.795,-0.836 0.821,-0.101 1.643,-0.195 2.464,-0.298 l 1.026,-0.14 z"
         id="path301" />
      <path
         inkscape:connector-curvature="0"
         style="fill:#e86601"
         d="m 204.675,228.891 -1.261,0.152 c -1.933,0.232 -3.856,0.463 -5.778,0.703 l -1.064,0.135 c 0.043,-0.051 0.068,-0.091 0.092,-0.14 0.417,-0.915 0.547,-1.871 0.398,-2.886 l 0.465,-0.07 c 1.983,-0.313 3.974,-0.617 5.968,-0.911 l 1.852,-0.282 c -0.026,1.07 -0.242,2.109 -0.631,3.125 -0.024,0.049 -0.038,0.108 -0.041,0.174"
         id="path303" />
      <polygon
         style="fill:#e42126"
         points="210.04,231.019 210.041,231.027 210.032,231.028 "
         id="polygon305" />
      <path
         inkscape:connector-curvature="0"
         style="fill:#f2b800"
         d="m 180.163,130.906 c 0.067,0.069 0.138,0.131 0.209,0.193 3.389,3.152 7.009,6.124 10.869,8.905 l -0.01,-0.008 c 1.089,0.792 2.258,1.452 3.517,1.989 2.27,0.97 4.625,1.568 7.076,1.781 h 0.015 c 0.236,0.02 0.476,0.034 0.713,0.055 0.014,0 0.027,0.006 0.041,0.006 0.377,0.021 0.741,0.035 1.09,0.049 h 0.015 c 2.339,0.061 4.485,-0.174 6.441,-0.712 l -0.011,-0.007 c 0.911,-0.248 1.903,-0.399 2.966,-0.461 2.068,-0.132 4.261,0.039 6.576,0.527 1.528,0.324 3.064,0.736 4.586,1.225 0.011,0.007 0.023,0.014 0.038,0.014 6.652,1.966 11.713,5.613 15.185,10.934 0.161,0.248 0.321,0.496 0.482,0.743 0.048,0.076 0.09,0.159 0.138,0.234 0.006,0.014 0.006,0.014 0.019,0.021 1.75,2.931 2.146,5.844 1.218,8.735 -0.885,2.72 -2.772,5.068 -5.655,7.058 -0.292,0.2 -0.595,0.392 -0.893,0.579 h -0.016 c -1.213,0.799 -2.598,1.419 -4.153,1.859 h -0.017 c -4.778,1.379 -10.275,0.94 -16.503,-1.316 h 0.016 c -6.919,-2.58 -13.281,-6.384 -19.099,-11.422 -6.021,-5.217 -11.002,-10.763 -14.96,-16.669 -0.011,-0.006 -0.011,-0.006 -0.007,-0.014 -1.873,-2.704 -3.268,-5.017 -4.182,-6.945 l -0.353,-0.75 -0.015,-0.027 -1.791,-0.069 0.368,0.778 c 0.942,2.01 2.399,4.426 4.356,7.247 l -0.007,-0.013 c 4.089,6.098 9.245,11.844 15.46,17.226 l -0.011,-0.007 c 6.117,5.313 12.836,9.325 20.148,12.048 l 0.011,0.007 c 6.738,2.442 12.679,2.915 17.835,1.427 1.671,-0.475 3.158,-1.137 4.459,-1.977 0.003,-0.008 0.003,-0.008 0.008,-0.014 0.314,-0.186 0.622,-0.385 0.922,-0.599 3.053,-2.094 5.043,-4.586 5.97,-7.478 1.043,-3.235 0.564,-6.498 -1.412,-9.775 -0.073,-0.109 -0.139,-0.207 -0.19,-0.303 l -0.007,-0.013 c -0.161,-0.248 -0.321,-0.497 -0.481,-0.743 -3.87,-5.948 -9.527,-10.021 -16.957,-12.214 l 0.038,0.013 c -1.625,-0.523 -3.258,-0.956 -4.878,-1.306 l -0.004,0.006 c -2.537,-0.529 -4.933,-0.728 -7.179,-0.583 -1.165,0.077 -2.248,0.249 -3.264,0.517 -1.807,0.497 -3.789,0.718 -5.945,0.663 -0.004,0.007 -0.004,0.007 -0.016,0 -0.333,-0.013 -0.667,-0.027 -0.996,-0.048 h -0.046 c -0.237,-0.02 -0.473,-0.041 -0.708,-0.062 l 0.011,0.008 c -2.144,-0.179 -4.219,-0.702 -6.204,-1.555 -1.027,-0.433 -1.974,-0.97 -2.849,-1.604 l 0.004,-0.006 c -3.828,-2.76 -7.418,-5.705 -10.76,-8.83 l -0.744,-0.694 -1.232,0.675 0.755,0.702 z"
         id="path307" />
      <path
         inkscape:connector-curvature="0"
         style="fill:#fcdf00"
         d="m 175.514,137.509 0.354,0.75 c 0.914,1.928 2.309,4.241 4.182,6.945 -0.005,0.008 -0.005,0.008 0.006,0.014 3.958,5.906 8.939,11.452 14.96,16.669 5.818,5.038 12.181,8.842 19.099,11.422 h -0.016 c 6.228,2.256 11.725,2.695 16.504,1.316 h 0.016 c 1.555,-0.44 2.94,-1.06 4.153,-1.859 h 0.016 c 0.299,-0.187 0.601,-0.379 0.893,-0.579 2.883,-1.99 4.771,-4.338 5.656,-7.058 0.927,-2.891 0.531,-5.804 -1.219,-8.735 -0.012,-0.007 -0.012,-0.007 -0.019,-0.021 -0.047,-0.075 -0.09,-0.158 -0.138,-0.234 -0.161,-0.247 -0.321,-0.495 -0.481,-0.743 -3.473,-5.321 -8.534,-8.968 -15.186,-10.934 -0.015,0 -0.027,-0.007 -0.037,-0.014 -1.522,-0.489 -3.059,-0.901 -4.587,-1.225 -2.314,-0.488 -4.508,-0.659 -6.575,-0.527 -1.064,0.062 -2.055,0.213 -2.967,0.461 l 0.011,0.007 c -1.956,0.538 -4.102,0.772 -6.44,0.712 h -0.016 c -0.349,-0.014 -0.713,-0.028 -1.089,-0.049 -0.015,0 -0.027,-0.006 -0.042,-0.006 -0.236,-0.021 -0.476,-0.035 -0.713,-0.055 h -0.014 c -2.451,-0.213 -4.806,-0.811 -7.077,-1.781 -1.258,-0.537 -2.428,-1.197 -3.516,-1.989 l 0.01,0.008 c -3.861,-2.781 -7.48,-5.753 -10.869,-8.905 l -4.859,6.41 z"
         id="path309" />
      <path
         inkscape:connector-curvature="0"
         style="fill:#fcdf00"
         d="m 167.332,131.096 c -0.022,-0.459 -0.386,-0.459 -1.084,-0.003 -5.583,3.593 -11.469,5.481 -17.658,5.663 -2.394,0.069 -5.184,-0.167 -8.386,-0.696 -0.109,-0.025 -0.227,-0.044 -0.337,-0.068 -3.38,-0.75 -6.289,-2.365 -8.739,-4.839 -2.528,-2.557 -4.176,-4.119 -4.952,-4.68 -1.916,-1.39 -3.621,-2.405 -5.13,-3.048 -3.724,-1.576 -7.414,-1.295 -11.07,0.842 -2.984,1.749 -4.949,4.148 -5.908,7.195 -0.878,2.753 -0.847,5.694 0.095,8.842 0.91,3.036 2.627,5.77 5.141,8.207 2.514,2.436 5.69,4.448 9.537,6.052 3.842,1.595 8.701,2.137 14.585,1.621 5.881,-0.523 10.713,-1.862 14.497,-4.038 3.783,-2.178 7.459,-5.14 11.016,-8.904 3.558,-3.765 6.06,-7.022 7.519,-9.77 0.619,-1.13 0.908,-1.914 0.874,-2.376 z"
         id="path311" />
      <path
         inkscape:connector-curvature="0"
         style="fill:none;stroke:#f2b800;stroke-width:1.495;stroke-miterlimit:10"
         d="m 167.332,131.096 c 0.034,0.462 -0.255,1.246 -0.874,2.376 -1.459,2.748 -3.961,6.005 -7.519,9.77 -3.557,3.764 -7.233,6.726 -11.016,8.904 -3.784,2.176 -8.616,3.515 -14.497,4.038 -5.884,0.516 -10.743,-0.026 -14.585,-1.621 -3.847,-1.604 -7.023,-3.616 -9.537,-6.052 -2.514,-2.437 -4.231,-5.171 -5.141,-8.207 -0.942,-3.148 -0.973,-6.089 -0.095,-8.842 0.959,-3.047 2.924,-5.446 5.908,-7.195 3.656,-2.137 7.346,-2.418 11.07,-0.842 1.509,0.643 3.214,1.658 5.13,3.048 0.776,0.561 2.424,2.123 4.952,4.68 2.45,2.474 5.359,4.089 8.739,4.839 0.11,0.024 0.228,0.043 0.337,0.067 3.202,0.53 5.992,0.765 8.387,0.697 6.188,-0.182 12.074,-2.07 17.657,-5.663 0.697,-0.456 1.062,-0.457 1.084,0.003 z"
         id="path313" />
      <path
         inkscape:connector-curvature="0"
         style="fill:#fcdf00"
         d="m 242.413,158.706 c -3.438,0.987 -5.387,2.33 -5.852,4.007 -0.771,2.769 0.298,5.501 3.199,8.19 0.788,0.735 2.038,1.795 3.752,3.171 1.447,1.233 2.459,2.302 3.034,3.212 1.204,1.895 1.895,2.93 2.063,3.102 1.02,0.986 2.007,0.777 2.956,-0.644 0.587,-0.876 0.676,-2.205 0.255,-3.984 -0.228,-0.953 -0.704,-2.29 -1.41,-4.005 0.995,0.127 2.506,0.383 4.521,0.771 1.759,0.179 3.235,-0.154 4.427,-0.999 1.253,-1.177 0.928,-2.709 -0.987,-4.61 -1.673,-1.657 -3.608,-2.86 -5.796,-3.619 0.88,0.178 2.154,-0.191 3.813,-1.09 1.721,-0.907 2.684,-1.798 2.9,-2.676 0.473,-1.909 -0.835,-2.91 -3.926,-2.993 -2.136,-0.046 -4.465,0.264 -6.982,0.943 -2.196,0.326 -4.187,0.736 -5.967,1.224"
         id="path315" />
      <path
         inkscape:connector-curvature="0"
         style="fill:none;stroke:#f2b800;stroke-width:1.48800004;stroke-miterlimit:10"
         d="m 242.413,158.706 c 1.781,-0.488 3.771,-0.898 5.967,-1.223 2.517,-0.679 4.846,-0.989 6.981,-0.943 3.092,0.083 4.4,1.084 3.927,2.993 -0.216,0.878 -1.179,1.769 -2.9,2.676 -1.659,0.899 -2.933,1.268 -3.813,1.09 2.188,0.759 4.123,1.962 5.796,3.619 1.915,1.901 2.24,3.433 0.987,4.61 -1.192,0.845 -2.668,1.178 -4.427,0.999 -2.015,-0.389 -3.526,-0.645 -4.521,-0.771 0.706,1.715 1.182,3.052 1.41,4.005 0.421,1.779 0.332,3.108 -0.255,3.984 -0.949,1.421 -1.936,1.63 -2.956,0.644 -0.168,-0.172 -0.859,-1.207 -2.063,-3.102 -0.575,-0.91 -1.587,-1.979 -3.034,-3.212 -1.714,-1.376 -2.964,-2.436 -3.752,-3.171 -2.901,-2.689 -3.97,-5.421 -3.199,-8.19 0.464,-1.678 2.414,-3.021 5.852,-4.008 z"
         id="path317" />
      <path
         inkscape:connector-curvature="0"
         style="fill:#eddc00"
         d="m 158.113,130.452 c 0.353,-1.732 1.965,-2.955 4.861,-3.663 2.803,-0.69 6.555,-0.839 11.25,-0.439 1.341,0.119 2.866,1 4.57,2.666 1.548,1.503 3.499,3.901 5.863,7.211 2.999,4.208 9.239,13.434 18.707,27.671 4.066,5.919 6.41,11.58 7.019,16.978 0.561,4.895 -0.299,9.399 -2.593,13.503 -2.1,3.76 -5.24,6.958 -9.424,9.578 -3.952,2.487 -8.417,4.237 -13.412,5.24 -4.967,0.989 -9.83,1.12 -14.585,0.404 -5,-0.737 -9.319,-2.344 -12.948,-4.816 -3.966,-2.675 -6.791,-6.177 -8.494,-10.498 -1.874,-4.77 -2.271,-10.313 -1.198,-16.628 2.372,-13.952 4.634,-25.113 6.793,-33.493 1.855,-6.397 3.049,-10.964 3.591,-13.714"
         id="path319" />
      <path
         inkscape:connector-curvature="0"
         style="fill:none;stroke:#f2b800;stroke-width:4.34700012;stroke-miterlimit:10"
         d="m 162.974,126.79 c 2.803,-0.69 6.555,-0.84 11.25,-0.439 1.341,0.118 2.866,1 4.57,2.666 1.549,1.503 3.499,3.9 5.864,7.211 2.999,4.208 9.238,13.434 18.706,27.671 4.066,5.919 6.41,11.58 7.019,16.977 0.561,4.895 -0.299,9.4 -2.593,13.504 -2.1,3.76 -5.24,6.958 -9.424,9.577 -3.952,2.488 -8.417,4.238 -13.412,5.24 -4.967,0.99 -9.83,1.121 -14.585,0.405 -5,-0.738 -9.319,-2.345 -12.948,-4.816 -3.966,-2.676 -6.791,-6.177 -8.493,-10.498 -1.875,-4.77 -2.271,-10.313 -1.199,-16.628 2.372,-13.953 4.634,-25.113 6.793,-33.493 1.855,-6.397 3.05,-10.965 3.591,-13.714 0.353,-1.733 1.965,-2.955 4.861,-3.663 l 0,0 z"
         id="path321" />
      <path
         inkscape:connector-curvature="0"
         style="fill:#fcdf00"
         d="m 158.113,130.452 c 0.353,-1.732 1.965,-2.955 4.861,-3.663 2.803,-0.69 6.555,-0.839 11.25,-0.439 1.341,0.119 2.866,1 4.57,2.666 1.548,1.503 3.499,3.901 5.863,7.211 2.999,4.208 9.239,13.434 18.707,27.671 4.066,5.919 6.41,11.58 7.019,16.978 0.561,4.895 -0.299,9.399 -2.593,13.503 -2.1,3.76 -5.24,6.958 -9.424,9.578 -3.952,2.487 -8.417,4.237 -13.412,5.24 -4.967,0.989 -9.83,1.12 -14.585,0.404 -5,-0.737 -9.319,-2.344 -12.948,-4.816 -3.966,-2.675 -6.791,-6.177 -8.494,-10.498 -1.874,-4.77 -2.271,-10.313 -1.198,-16.628 2.372,-13.952 4.634,-25.113 6.793,-33.493 1.855,-6.397 3.049,-10.964 3.591,-13.714"
         id="path323" />
      <path
         inkscape:connector-curvature="0"
         style="fill:#f2b800"
         d="m 141.591,54.405 c -4.898,3.401 -8.896,7.528 -11.973,12.375 -3.197,5.03 -5.187,10.465 -5.962,16.329 -1.816,13.727 1.394,25.095 9.635,34.122 3.787,4.133 8.452,7.509 14.011,10.151 1.768,0.831 3.594,1.575 5.489,2.233 l -0.61,1.38 c -1.903,-0.66 -3.748,-1.416 -5.523,-2.257 l -0.01,-0.002 c -5.737,-2.721 -10.556,-6.223 -14.458,-10.494 -8.56,-9.335 -11.905,-21.118 -10.025,-35.332 0.804,-6.085 2.86,-11.731 6.176,-16.943 3.186,-5.013 7.315,-9.275 12.39,-12.805 5.054,-3.513 10.647,-5.997 16.786,-7.471 6.347,-1.522 12.82,-1.851 19.428,-0.978 6.607,0.875 12.763,2.874 18.477,5.991 5.546,3.018 10.309,6.872 14.276,11.579 3.983,4.728 6.863,9.916 8.627,15.583 1.846,5.896 2.373,11.883 1.568,17.97 -2.01,15.2 -8.353,26.016 -19.028,32.446 -5.996,3.683 -13.045,5.786 -21.148,6.317 0.285,-0.503 0.505,-1.024 0.662,-1.553 7.524,-0.608 14.096,-2.621 19.708,-6.042 10.268,-6.229 16.373,-16.687 18.315,-31.366 0.775,-5.862 0.267,-11.629 -1.513,-17.316 -1.712,-5.48 -4.5,-10.505 -8.353,-15.064 -3.844,-4.567 -8.45,-8.315 -13.829,-11.236 -5.555,-3.029 -11.538,-4.968 -17.96,-5.817 -6.421,-0.849 -12.712,-0.534 -18.882,0.945 -5.944,1.423 -11.376,3.844 -16.274,7.255"
         id="path325" />
      <path
         inkscape:connector-curvature="0"
         style="fill:#fcdf00"
         d="m 129.618,66.78 c 3.078,-4.847 7.075,-8.974 11.973,-12.375 4.899,-3.411 10.33,-5.832 16.275,-7.255 6.169,-1.479 12.46,-1.794 18.881,-0.945 6.422,0.849 12.405,2.788 17.959,5.817 5.38,2.921 9.986,6.669 13.83,11.236 3.853,4.559 6.641,9.584 8.353,15.064 1.78,5.687 2.289,11.454 1.513,17.316 -1.942,14.679 -8.047,25.137 -18.315,31.366 -5.612,3.421 -12.184,5.434 -19.708,6.042 -4.648,0.361 -9.67,0.191 -15.048,-0.521 -4.445,-0.587 -8.622,-1.557 -12.54,-2.91 -1.895,-0.658 -3.721,-1.402 -5.489,-2.234 -5.559,-2.641 -10.224,-6.017 -14.011,-10.15 -8.241,-9.027 -11.451,-20.395 -9.635,-34.122 0.775,-5.864 2.765,-11.298 5.962,-16.329"
         id="path327" />
      <path
         inkscape:connector-curvature="0"
         style="fill:#f2b800"
         d="m 152.182,130.996 0.609,-1.38 c 3.918,1.352 8.095,2.322 12.541,2.91 5.378,0.712 10.399,0.882 15.047,0.52 -0.156,0.53 -0.376,1.051 -0.661,1.554 -4.525,0.301 -9.392,0.104 -14.583,-0.583 -4.595,-0.607 -8.909,-1.615 -12.953,-3.021"
         id="path329" />
      <path
         inkscape:connector-curvature="0"
         style="fill:#e27c9f"
         d="m 194.382,83.118 c -2.289,-2.417 -4.875,-4.22 -7.779,-5.428 -2.812,-1.179 -5.6,-1.68 -8.357,-1.485 1.364,-0.626 2.768,-1.066 4.231,-1.299 2.102,-0.339 4.179,-0.263 6.228,0.235 2.05,0.49 3.927,1.354 5.648,2.606 2.733,1.993 4.647,4.588 5.74,7.796 1.064,3.137 1.167,6.299 0.301,9.484 -0.33,-2.101 -0.996,-4.162 -1.99,-6.18 -1.024,-2.08 -2.364,-3.993 -4.022,-5.729"
         id="path331" />
      <path
         inkscape:connector-curvature="0"
         style="fill:#0077bf"
         d="m 186.603,77.689 c 2.903,1.208 5.49,3.011 7.779,5.428 1.658,1.737 2.998,3.65 4.022,5.729 0.993,2.018 1.66,4.079 1.99,6.18 -0.548,1.91 -1.364,3.632 -2.465,5.155 l -0.91,1.151 c 0.246,-2.509 -0.111,-5.05 -1.059,-7.632 -0.974,-2.679 -2.482,-5.108 -4.538,-7.276 -2.753,-2.915 -5.929,-4.862 -9.527,-5.83 -3.515,-0.958 -6.734,-0.787 -9.664,0.504 1.624,-2.165 3.632,-3.797 6.015,-4.894 2.757,-0.194 5.544,0.307 8.357,1.485"
         id="path333" />
      <path
         inkscape:connector-curvature="0"
         style="fill:#ffffff"
         d="m 172.231,81.099 c 2.93,-1.291 6.149,-1.462 9.663,-0.504 3.599,0.968 6.775,2.915 9.528,5.83 2.055,2.168 3.564,4.597 4.538,7.276 0.948,2.582 1.304,5.123 1.058,7.631 -1.241,1.42 -2.664,2.579 -4.293,3.492 -1.638,0.912 -3.387,1.514 -5.246,1.809 -2.102,0.338 -4.179,0.263 -6.209,-0.233 -2.05,-0.489 -3.935,-1.364 -5.665,-2.627 -3.564,-2.595 -5.691,-6.082 -6.393,-10.461 -0.699,-4.388 0.246,-8.379 2.835,-11.972 l 0.184,-0.241 z"
         id="path335" />
      <path
         inkscape:connector-curvature="0"
         style="fill:#e27c9f"
         d="m 150.127,77.276 c 2.838,-1.74 5.805,-2.807 8.923,-3.22 3.021,-0.406 5.844,-0.166 8.455,0.739 -1.153,-0.959 -2.395,-1.749 -3.747,-2.354 -1.943,-0.874 -3.967,-1.341 -6.074,-1.392 -2.108,-0.061 -4.144,0.287 -6.132,1.048 -3.157,1.214 -5.68,3.221 -7.57,6.035 -1.843,2.752 -2.765,5.78 -2.755,9.081 0.864,-1.943 2.042,-3.76 3.527,-5.451 1.529,-1.741 3.321,-3.24 5.373,-4.486"
         id="path337" />
      <path
         inkscape:connector-curvature="0"
         style="fill:#0077bf"
         d="m 159.05,74.056 c -3.118,0.413 -6.085,1.48 -8.923,3.22 -2.052,1.246 -3.844,2.745 -5.372,4.486 -1.486,1.691 -2.664,3.508 -3.528,5.451 0.031,1.986 0.371,3.861 1.039,5.618 l 0.581,1.348 c 0.414,-2.487 1.419,-4.848 3.005,-7.094 1.636,-2.335 3.725,-4.287 6.273,-5.847 3.417,-2.099 6.989,-3.153 10.716,-3.153 3.643,-0.011 6.706,0.991 9.2,3 -1.004,-2.513 -2.52,-4.611 -4.536,-6.29 -2.611,-0.905 -5.434,-1.145 -8.455,-0.739"
         id="path339" />
      <path
         inkscape:connector-curvature="0"
         style="fill:#ffffff"
         d="m 172.041,81.084 c -2.494,-2.009 -5.557,-3.011 -9.2,-3 -3.727,0 -7.299,1.054 -10.716,3.153 -2.548,1.56 -4.637,3.513 -6.273,5.847 -1.586,2.246 -2.591,4.607 -3.005,7.094 0.828,1.694 1.902,3.182 3.237,4.487 1.345,1.306 2.877,2.343 4.596,3.111 1.942,0.873 3.966,1.34 6.056,1.389 2.106,0.061 4.155,-0.294 6.152,-1.064 4.116,-1.579 7.078,-4.393 8.893,-8.439 1.816,-4.056 1.941,-8.155 0.375,-12.298 l -0.115,-0.28 z"
         id="path341" />
      <path
         inkscape:connector-curvature="0"
         style="fill:#1c1616"
         d="m 183.388,89.634 c 0.907,1.182 1.262,2.509 1.069,3.972 -0.196,1.482 -0.884,2.662 -2.064,3.559 -1.182,0.906 -2.509,1.261 -3.973,1.067 -1.481,-0.196 -2.661,-0.883 -3.558,-2.063 -0.907,-1.173 -1.264,-2.491 -1.068,-3.973 0.194,-1.463 0.883,-2.652 2.064,-3.558 1.173,-0.907 2.49,-1.264 3.972,-1.067 1.464,0.193 2.653,0.881 3.558,2.063"
         id="path343" />
      <path
         inkscape:connector-curvature="0"
         style="fill:#1c1616"
         d="m 158.991,86.403 c -1.182,0.906 -1.87,2.095 -2.064,3.558 -0.196,1.482 0.161,2.8 1.068,3.972 0.906,1.182 2.095,1.87 3.559,2.064 1.481,0.197 2.799,-0.16 3.972,-1.067 1.181,-0.897 1.867,-2.077 2.064,-3.559 0.193,-1.463 -0.163,-2.79 -1.068,-3.972 -0.898,-1.181 -2.077,-1.868 -3.559,-2.064 -1.463,-0.193 -2.79,0.162 -3.972,1.068"
         id="path345" />
      <path
         inkscape:connector-curvature="0"
         style="fill:#fcdf00"
         d="m 151.703,119.532 c -0.757,-1.375 -1.193,-2.826 -1.321,-4.344 -0.279,-3.505 0.77,-5.608 3.146,-6.322 0.792,-0.241 1.799,-0.325 3.003,-0.274 0.664,0.018 1.492,0.078 2.493,0.171 1.833,0.054 4.719,0.594 8.67,1.601 0.153,0.04 0.298,0.079 0.444,0.117 0.15,0.001 0.3,0.001 0.46,0.002 4.076,0.055 7.003,0.284 8.788,0.708 0.991,0.17 1.805,0.327 2.451,0.482 1.177,0.264 2.127,0.607 2.829,1.046 2.108,1.306 2.574,3.61 1.393,6.922 -0.518,1.433 -1.317,2.72 -2.405,3.85 -0.622,0.66 -1.575,1.541 -2.85,2.667 -1.395,1.396 -3.727,4.121 -6.978,8.186 -2.956,3.254 -5.401,4.631 -7.323,4.11 -0.018,-0.003 -0.036,-0.005 -0.063,-0.018 -0.029,0.005 -0.048,0.003 -0.066,0.001 -1.991,0.003 -3.993,-1.961 -6.002,-5.872 -2.082,-4.77 -3.625,-8.008 -4.61,-9.718 -0.939,-1.419 -1.629,-2.517 -2.059,-3.315"
         id="path347" />
      <path
         inkscape:connector-curvature="0"
         style="fill:none;stroke:#f2b800;stroke-width:1.52900004;stroke-miterlimit:10"
         d="m 168.138,110.482 c -0.146,-0.04 -0.291,-0.079 -0.444,-0.118 -3.951,-1.007 -6.837,-1.547 -8.669,-1.601 -1.002,-0.093 -1.83,-0.153 -2.494,-0.172 -1.204,-0.05 -2.21,0.034 -3.003,0.275 -2.376,0.714 -3.424,2.817 -3.146,6.323 0.128,1.517 0.565,2.968 1.321,4.343 0.431,0.798 1.121,1.896 2.06,3.315 0.985,1.711 2.528,4.948 4.61,9.718 2.008,3.912 4.011,5.875 6.001,5.872 0.019,0.002 0.038,0.004 0.066,-0.001 0.027,0.013 0.045,0.015 0.064,0.018 1.922,0.521 4.366,-0.856 7.322,-4.11 3.251,-4.066 5.583,-6.79 6.979,-8.186 1.275,-1.126 2.227,-2.008 2.85,-2.667 1.087,-1.13 1.887,-2.418 2.404,-3.85 1.181,-3.312 0.716,-5.616 -1.393,-6.923 -0.702,-0.438 -1.652,-0.78 -2.828,-1.045 -0.646,-0.155 -1.461,-0.312 -2.452,-0.482 -1.785,-0.424 -4.711,-0.653 -8.788,-0.708 -0.16,-0.001 -0.31,-0.001 -0.46,-0.001 z"
         id="path349" />
      <path
         inkscape:connector-curvature="0"
         style="fill:#d8272a"
         d="m 165.223,134.047 c -1.762,-0.233 -3.174,-1.476 -4.247,-3.732 -1.072,-2.256 -2.727,-7.069 -4.964,-14.429 l 11.243,1.378 11.197,1.589 c -4.074,6.526 -6.962,10.757 -8.673,12.694 -1.578,1.777 -3.097,2.615 -4.556,2.5"
         id="path351" />
      <path
         inkscape:connector-curvature="0"
         style="fill:#e27c9f"
         d="m 164.636,122.404 c -0.32,-2.621 -0.373,-4.416 -0.171,-5.377 l 6.089,0.805 c -0.124,0.942 -0.749,2.618 -1.884,5.027 -1.18,2.462 -1.921,3.727 -2.23,3.795 -0.847,0.156 -1.447,-1.268 -1.804,-4.25"
         id="path353" />
      <path
         inkscape:connector-curvature="0"
         style="fill:#fcdf00"
         d="m 150.042,114.246 c -1.507,-1.006 -2.042,-2.698 -1.605,-5.067 0.455,-2.368 1.612,-3.875 3.479,-4.51 0.943,-0.321 2.876,-0.881 5.8,-1.698 2.701,-0.847 4.655,-1.707 5.844,-2.603 1.875,-1.412 3.922,-2.042 6.147,-1.871 0.065,0.009 0.121,0.016 0.176,0.023 0.028,0.004 0.047,0.006 0.066,0.008 l -0.002,0.01 c 2.194,0.404 4.007,1.536 5.45,3.395 0.916,1.175 2.579,2.513 4.967,4.034 2.611,1.549 4.331,2.592 5.159,3.147 1.637,1.098 2.363,2.854 2.187,5.258 -0.194,2.402 -1.15,3.897 -2.868,4.477 -0.903,0.297 -2.21,0.361 -3.933,0.2 -1.02,-0.097 -2.788,-0.283 -5.294,-0.549 -0.911,0.07 -2.338,0.392 -4.282,0.97 -1.441,0.425 -2.906,0.526 -4.403,0.309 -1.374,-0.153 -2.714,-0.634 -4.004,-1.421 -1.727,-1.063 -3.022,-1.746 -3.883,-2.049 -2.488,-0.396 -4.244,-0.675 -5.255,-0.847 -1.705,-0.292 -2.952,-0.694 -3.746,-1.216"
         id="path355" />
      <path
         inkscape:connector-curvature="0"
         style="fill:none;stroke:#f2b800;stroke-width:1.50399995;stroke-miterlimit:10"
         d="m 148.437,109.179 c 0.455,-2.367 1.613,-3.875 3.479,-4.51 0.943,-0.321 2.876,-0.881 5.801,-1.698 2.7,-0.847 4.654,-1.707 5.844,-2.603 1.875,-1.412 3.921,-2.042 6.146,-1.871 0.065,0.009 0.121,0.016 0.177,0.024 0.028,0.003 0.047,0.006 0.065,0.008 l -0.001,0.009 c 2.194,0.405 4.007,1.536 5.449,3.395 0.916,1.175 2.579,2.513 4.967,4.034 2.611,1.549 4.332,2.592 5.16,3.148 1.637,1.098 2.363,2.854 2.186,5.258 -0.194,2.402 -1.149,3.897 -2.867,4.476 -0.903,0.298 -2.21,0.361 -3.933,0.2 -1.02,-0.097 -2.789,-0.283 -5.295,-0.549 -0.91,0.07 -2.338,0.393 -4.282,0.971 -1.44,0.425 -2.905,0.525 -4.403,0.309 -1.373,-0.154 -2.714,-0.634 -4.004,-1.421 -1.727,-1.063 -3.021,-1.746 -3.883,-2.05 -2.488,-0.396 -4.243,-0.675 -5.254,-0.847 -1.706,-0.292 -2.953,-0.693 -3.747,-1.216 -1.506,-1.005 -2.042,-2.697 -1.605,-5.067 z"
         id="path357" />
      <path
         inkscape:connector-curvature="0"
         style="fill:#f2b800"
         d="m 170.271,37.551 c -1.128,-0.357 -2.38,-0.352 -3.747,0.008 1.81,0.581 3.241,2.676 4.29,6.285 0.214,0.749 0.524,1.416 0.922,1.99 -0.121,-0.016 -0.242,-0.032 -0.365,-0.039 -0.825,-0.071 -1.536,-0.07 -2.142,-0.008 -0.152,-0.352 -0.292,-0.721 -0.412,-1.107 -0.028,-0.079 -0.055,-0.159 -0.073,-0.237 -1.18,-3.703 -2.909,-6.047 -5.198,-7.022 3.127,-1.777 5.656,-2.325 7.595,-1.642 1.952,0.657 3.448,2.182 4.498,4.569 l -0.004,0.028 c 0.145,0.408 0.274,0.795 0.398,1.143 0.154,-0.368 0.343,-0.723 0.552,-1.084 1.89,-3.392 2.41,-6.253 1.552,-8.586 3.418,1.05 5.547,2.516 6.391,4.383 0.793,1.745 0.779,3.716 -0.042,5.911 0.662,-0.13 1.362,-0.189 2.098,-0.168 3.875,0.029 6.625,-0.897 8.247,-2.768 0.724,3.49 0.48,6.056 -0.753,7.704 -0.276,0.371 -0.586,0.701 -0.92,0.998 -0.92,0.798 -2.084,1.355 -3.491,1.663 -0.822,-0.232 -2.371,-0.57 -4.637,-1.003 l 0.002,-0.018 -2.265,-0.3 c 0.46,-0.177 1.001,-0.323 1.623,-0.431 0.628,-0.097 1.937,-0.161 3.922,-0.191 1.951,-0.056 3.4,-0.755 4.346,-2.1 0.686,-0.953 1.06,-2.136 1.134,-3.548 -1.104,1.531 -3.523,2.256 -7.265,2.149 -1.946,-0.058 -3.538,0.585 -4.786,1.918 -0.631,0.685 -1.016,1.374 -1.156,2.066 -0.118,0.032 -0.217,0.066 -0.298,0.112 -0.181,-0.792 -0.056,-1.809 0.365,-3.052 0.221,-0.597 0.794,-1.773 1.729,-3.537 0.893,-1.731 0.982,-3.34 0.259,-4.82 -0.515,-1.055 -1.364,-1.954 -2.562,-2.71 0.806,1.709 0.271,4.18 -1.627,7.419 -0.99,1.68 -1.198,3.388 -0.63,5.122 0.088,0.268 0.195,0.529 0.307,0.762 -0.197,-0.017 -0.366,-0.03 -0.527,-0.032 -0.945,-0.238 -1.815,-1.113 -2.601,-2.629 -0.293,-0.58 -0.766,-1.808 -1.4,-3.685 -0.646,-1.858 -1.752,-3.029 -3.329,-3.513"
         id="path359" />
      <path
         inkscape:connector-curvature="0"
         style="fill:#fcdf00"
         d="m 166.524,37.559 c 1.366,-0.36 2.618,-0.366 3.747,-0.008 1.576,0.484 2.683,1.654 3.329,3.513 0.633,1.876 1.106,3.105 1.399,3.684 0.786,1.517 1.657,2.391 2.602,2.63 0.019,0.002 0.037,0.005 0.056,0.007 0.157,0.03 0.306,0.05 0.466,0.062 0.01,-0.009 0.01,-0.009 0.02,-0.007 -0.009,-0.01 -0.007,-0.02 -0.015,-0.03 -0.112,-0.233 -0.22,-0.494 -0.308,-0.762 -0.567,-1.735 -0.359,-3.443 0.63,-5.123 1.899,-3.238 2.434,-5.709 1.627,-7.418 1.199,0.756 2.047,1.655 2.562,2.709 0.724,1.481 0.635,3.09 -0.258,4.822 -0.935,1.763 -1.508,2.939 -1.73,3.536 -0.42,1.243 -0.545,2.26 -0.365,3.052 0.054,0.235 0.139,0.455 0.246,0.649 -0.005,-0.03 -0.002,-0.057 -0.007,-0.087 l 0.042,-0.61 c 0.013,-0.027 0.016,-0.046 0.018,-0.064 0.139,-0.693 0.524,-1.382 1.155,-2.066 1.248,-1.333 2.841,-1.976 4.786,-1.918 3.742,0.106 6.161,-0.618 7.265,-2.15 -0.074,1.413 -0.447,2.596 -1.134,3.548 -0.945,1.345 -2.394,2.045 -4.345,2.1 -1.986,0.031 -3.294,0.095 -3.923,0.192 -0.621,0.108 -1.162,0.254 -1.622,0.43 -0.66,0.264 -1.16,0.596 -1.498,1.007 -0.159,0.197 -0.283,0.418 -0.372,0.662 -0.016,0.046 -0.031,0.091 -0.047,0.136 l 0.004,0.047 c -0.031,-0.061 -0.06,-0.121 -0.089,-0.191 -0.069,-0.189 -0.13,-0.378 -0.172,-0.563 l -0.998,-0.341 c -0.044,-0.025 -0.089,-0.05 -0.133,-0.075 -0.525,-0.325 -0.957,-0.799 -1.288,-1.44 -1.105,0.963 -2.455,1.069 -4.055,0.326 -0.197,-0.092 -0.391,-0.194 -0.576,-0.304 -0.141,-0.084 -0.28,-0.179 -0.419,-0.273 -0.027,-0.013 -0.053,-0.035 -0.079,-0.049 l -0.487,-0.405 c -0.059,-0.055 -0.109,-0.109 -0.168,-0.165 -0.008,-0.011 -0.017,-0.011 -0.025,-0.022 -0.175,-0.185 -0.331,-0.366 -0.485,-0.566 -0.016,-0.022 -0.032,-0.042 -0.047,-0.073 -0.008,-0.011 -0.017,-0.012 -0.026,-0.023 -0.008,-0.01 -0.006,-0.019 -0.015,-0.03 -0.008,-0.011 -0.016,-0.021 -0.024,-0.032 -0.008,-0.011 -0.024,-0.031 -0.032,-0.042 -0.398,-0.574 -0.709,-1.241 -0.922,-1.99 -1.05,-3.61 -2.48,-5.704 -4.29,-6.285"
         id="path361" />
      <path
         inkscape:connector-curvature="0"
         style="fill:#fcdf00"
         d="m 156.237,138.219 c 0.001,-0.145 -0.008,-0.296 -0.007,-0.44 -0.007,-0.288 -0.004,-0.577 -0.012,-0.873 0.001,-0.145 -0.008,-0.296 -0.007,-0.441 0.377,-0.39 0.644,-0.805 0.78,-1.254 0.05,-0.144 0.158,-0.28 0.325,-0.417 0.025,-0.015 0.039,-0.047 0.039,-0.095 1.084,0.592 2.122,1.5 3.105,2.726 0.349,0.424 0.701,0.857 1.044,1.292 -0.055,0.067 -0.1,0.134 -0.156,0.193 1.051,0.675 2.274,1.643 3.674,2.886 3.668,3.263 6.745,2.659 9.239,-1.815 -0.159,0.021 -0.318,0.041 -0.491,0.045 -0.92,-0.036 -1.312,-0.481 -1.175,-1.324 0,-0.048 0.003,-0.087 0.003,-0.135 0.004,-0.135 0.007,-0.271 0.009,-0.406 -0.001,-0.009 -0.004,-0.027 -0.006,-0.037 0.005,-0.021 0.011,-0.041 0.017,-0.061 0.004,-0.126 0.02,-0.244 0.035,-0.372 0.008,-0.107 0.027,-0.207 0.057,-0.308 -0.236,-0.072 -0.473,-0.161 -0.698,-0.281 -0.127,-0.813 0.197,-1.441 0.947,-1.892 0.008,-0.011 0.017,-0.012 0.026,-0.015 0.207,-0.125 0.372,-0.272 0.495,-0.43 0.161,-0.213 0.26,-0.454 0.294,-0.729 0.049,-0.096 0.111,-0.175 0.186,-0.237 0.117,-0.09 0.249,-0.154 0.383,-0.208 0.01,-0.05 0.012,-0.088 0.013,-0.137 0.796,-0.815 1.443,-1.716 1.958,-2.689 0.223,-0.399 0.545,-0.623 0.968,-0.675 0.154,0 0.291,0.012 0.412,0.037 0.197,-0.124 0.386,-0.237 0.589,-0.333 -0.013,-0.421 -0.053,-0.836 -0.124,-1.256 -0.12,-0.784 0.208,-1.135 0.981,-1.061 0.106,0 0.221,-0.003 0.326,-0.004 0.118,-0.34 0.332,-0.631 0.651,-0.874 0.209,-0.165 0.468,-0.272 0.756,-0.317 0.311,0.364 0.488,0.792 0.552,1.279 0.032,0.264 0.129,0.524 0.282,0.774 0.099,0.067 0.191,0.146 0.29,0.214 0.102,0.076 0.18,0.186 0.238,0.339 -0.145,0.249 -0.319,0.445 -0.527,0.61 -0.076,0.062 -0.163,0.108 -0.25,0.153 0.799,1.877 1.941,5.255 3.44,10.151 -9.378,4.621 -19.294,5.508 -29.742,2.642 0.245,-1.038 0.73,-2.177 1.464,-3.423 -0.12,-0.276 -0.246,-0.54 -0.383,-0.802"
         id="path363" />
      <path
         inkscape:connector-curvature="0"
         style="fill:#fcdf00"
         d="m 109.285,128.506 c 2.774,2.249 4.988,3.076 6.626,2.498 2.708,-0.955 4.331,-3.392 4.873,-7.304 0.149,-1.065 0.302,-2.694 0.447,-4.884 0.18,-1.89 0.478,-3.33 0.893,-4.321 0.862,-2.068 1.314,-3.226 1.358,-3.463 0.222,-1.397 -0.512,-2.086 -2.218,-2.049 -1.052,0.021 -2.191,0.709 -3.406,2.07 -0.649,0.733 -1.471,1.887 -2.47,3.444 -0.465,-0.887 -1.121,-2.268 -1.955,-4.139 -0.86,-1.542 -1.977,-2.56 -3.351,-3.052 -1.679,-0.351 -2.747,0.791 -3.207,3.446 -0.398,2.315 -0.277,4.588 0.356,6.812 -0.359,-0.822 -1.389,-1.653 -3.074,-2.496 -1.728,-0.889 -3.007,-1.168 -3.849,-0.843 -1.833,0.706 -1.903,2.348 -0.203,4.925 1.183,1.774 2.769,3.502 4.766,5.173 1.521,1.612 2.996,3.005 4.414,4.183"
         id="path365" />
      <path
         inkscape:connector-curvature="0"
         style="fill:none;stroke:#f2b800;stroke-width:1.48500001;stroke-miterlimit:10"
         d="m 109.285,128.506 c -1.418,-1.178 -2.893,-2.571 -4.414,-4.183 -1.997,-1.671 -3.583,-3.399 -4.766,-5.173 -1.7,-2.577 -1.63,-4.219 0.203,-4.925 0.842,-0.325 2.121,-0.046 3.849,0.843 1.685,0.843 2.715,1.674 3.074,2.496 -0.633,-2.224 -0.754,-4.497 -0.356,-6.812 0.46,-2.655 1.528,-3.797 3.207,-3.446 1.374,0.492 2.491,1.51 3.351,3.052 0.834,1.871 1.49,3.252 1.955,4.139 0.999,-1.557 1.821,-2.711 2.47,-3.444 1.215,-1.361 2.354,-2.049 3.406,-2.07 1.706,-0.037 2.44,0.652 2.218,2.049 -0.044,0.237 -0.496,1.395 -1.358,3.463 -0.415,0.991 -0.713,2.431 -0.893,4.321 -0.145,2.19 -0.298,3.819 -0.447,4.884 -0.542,3.912 -2.165,6.349 -4.873,7.304 -1.639,0.579 -3.852,-0.249 -6.626,-2.498 z"
         id="path367" />
      <path
         inkscape:connector-curvature="0"
         style="fill:#fcdf00"
         d="m 156.302,136.375 c 0.274,-0.199 0.52,-0.388 0.737,-0.577 0.133,-0.048 0.265,-0.076 0.408,-0.095 0.16,-0.009 0.311,-0.028 0.472,-0.037 0.548,1.843 0.51,3.707 -0.114,5.588 -0.065,0.199 -0.094,0.407 -0.094,0.624 l -2.005,8.218 c -0.359,-0.086 -0.766,-0.095 -1.211,-0.029 -0.378,0.085 -0.765,0.189 -1.153,0.303 -0.615,-0.274 -1.494,-0.379 -2.638,-0.303 -1.012,0.274 -1.995,0.672 -2.931,1.174 l 4.68,-11.916 -1.106,0.009 c 0.501,-0.605 1.04,-1.134 1.617,-1.598 0.908,0.029 2.024,-0.425 3.338,-1.361"
         id="path369" />
    </g>
  </g>
</svg>
