<?xml version="1.0" encoding="UTF-8" standalone="no"?>
<!-- Created with Inkscape (http://www.inkscape.org/) -->

<svg
   xmlns:dc="http://purl.org/dc/elements/1.1/"
   xmlns:cc="http://creativecommons.org/ns#"
   xmlns:rdf="http://www.w3.org/1999/02/22-rdf-syntax-ns#"
   xmlns:svg="http://www.w3.org/2000/svg"
   xmlns="http://www.w3.org/2000/svg"
   xmlns:sodipodi="http://sodipodi.sourceforge.net/DTD/sodipodi-0.dtd"
   xmlns:inkscape="http://www.inkscape.org/namespaces/inkscape"
   width="134.8409"
   height="222.40034"
   id="svg5696"
   version="1.1"
   inkscape:version="0.48.4 r9939"
   sodipodi:docname="big_bird5.svg">
  <defs
     id="defs5698" />
  <sodipodi:namedview
     id="base"
     pagecolor="#ffffff"
     bordercolor="#666666"
     borderopacity="1.0"
     inkscape:pageopacity="0.0"
     inkscape:pageshadow="2"
     inkscape:zoom="0.77472527"
     inkscape:cx="-13.20803"
     inkscape:cy="-1.2964567"
     inkscape:current-layer="layer1"
     inkscape:document-units="px"
     showgrid="false"
     inkscape:window-width="942"
     inkscape:window-height="591"
     inkscape:window-x="413"
     inkscape:window-y="97"
     inkscape:window-maximized="0"
     fit-margin-top="0"
     fit-margin-left="0"
     fit-margin-right="0"
     fit-margin-bottom="0" />
  <metadata
     id="metadata5701">
    <rdf:RDF>
      <cc:Work
         rdf:about="">
        <dc:format>image/svg+xml</dc:format>
        <dc:type
           rdf:resource="http://purl.org/dc/dcmitype/StillImage" />
        <dc:title></dc:title>
      </cc:Work>
    </rdf:RDF>
  </metadata>
  <g
     id="layer1"
     inkscape:label="Layer 1"
     inkscape:groupmode="layer"
     transform="translate(-244.83781,138.59045)">
    <g
       transform="translate(-118.61013,-418.43645)"
       id="g371">
      <path
         inkscape:connector-curvature="0"
         style="fill:#eddc00"
         d="m 416.697,437.322 c -0.659,-1.612 -0.635,-3.618 0.059,-6.021 0.731,-2.527 2.06,-4.814 3.984,-6.844 2.215,-2.316 4.881,-3.91 7.999,-4.77 3.649,-1.008 7.68,-0.939 12.095,0.182 0.898,-1.475 2.932,-3.193 6.113,-5.17 3.383,-2.104 6.94,-3.758 10.667,-4.956 4.327,-1.402 8.085,-1.882 11.277,-1.438 3.78,0.514 6.457,2.295 8.03,5.347 2.201,4.265 0.738,8.632 -4.393,13.099 -1.871,1.625 -3.986,3.033 -6.336,4.234 -2.106,1.062 -3.701,1.631 -4.799,1.699 2.133,3.237 2.227,6.511 0.281,9.794 -1.686,2.871 -4.575,5.298 -8.669,7.273 -3.916,1.908 -7.719,2.857 -11.416,2.85 -3.987,0.004 -6.658,-1.168 -8.012,-3.519 0.237,2.111 -0.741,3.927 -2.941,5.447 -2.059,1.431 -4.583,2.234 -7.573,2.393 -3.149,0.18 -5.841,-0.434 -8.084,-1.847 -2.587,-1.61 -4.076,-4.035 -4.476,-7.275 -0.143,-1.15 0.884,-2.973 3.081,-5.478 2.215,-2.504 3.258,-4.275 3.129,-5.316 l -0.016,0.316 z"
         id="path373" />
      <path
         inkscape:connector-curvature="0"
         style="fill:none;stroke:#f2b800;stroke-width:2.94799995;stroke-miterlimit:10"
         d="m 416.697,437.322 0.018,-0.314 c 0.129,1.041 -0.914,2.812 -3.129,5.316 -2.197,2.505 -3.224,4.327 -3.081,5.478 0.4,3.24 1.889,5.665 4.476,7.275 2.243,1.413 4.935,2.026 8.084,1.847 2.99,-0.158 5.514,-0.962 7.573,-2.393 2.2,-1.521 3.178,-3.336 2.941,-5.447 1.354,2.351 4.025,3.522 8.012,3.519 3.697,0.008 7.5,-0.941 11.416,-2.85 4.094,-1.976 6.983,-4.402 8.669,-7.273 1.945,-3.283 1.852,-6.557 -0.281,-9.794 1.098,-0.068 2.692,-0.638 4.799,-1.699 2.35,-1.201 4.465,-2.609 6.336,-4.234 5.131,-4.467 6.594,-8.834 4.393,-13.099 -1.573,-3.052 -4.25,-4.833 -8.03,-5.347 -3.192,-0.444 -6.948,0.035 -11.277,1.438 -3.728,1.198 -7.285,2.853 -10.667,4.956 -3.181,1.977 -5.215,3.695 -6.113,5.17 -4.415,-1.121 -8.446,-1.188 -12.095,-0.182 -3.118,0.859 -5.784,2.453 -7.999,4.77 -1.924,2.029 -3.253,4.316 -3.984,6.844 -0.696,2.401 -0.72,4.407 -0.061,6.019 z"
         id="path375" />
      <path
         inkscape:connector-curvature="0"
         style="fill:#fcdf00"
         d="m 416.697,437.322 c -0.659,-1.612 -0.635,-3.618 0.059,-6.021 0.731,-2.527 2.06,-4.814 3.984,-6.844 2.215,-2.316 4.881,-3.91 7.999,-4.77 3.649,-1.008 7.68,-0.939 12.095,0.182 0.898,-1.475 2.932,-3.193 6.113,-5.17 3.383,-2.104 6.94,-3.758 10.667,-4.956 4.327,-1.402 8.085,-1.882 11.277,-1.438 3.78,0.514 6.457,2.295 8.03,5.347 2.201,4.265 0.738,8.632 -4.393,13.099 -1.871,1.625 -3.986,3.033 -6.336,4.234 -2.106,1.062 -3.701,1.631 -4.799,1.699 2.133,3.237 2.227,6.511 0.281,9.794 -1.686,2.871 -4.575,5.298 -8.669,7.273 -3.916,1.908 -7.719,2.857 -11.416,2.85 -3.987,0.004 -6.658,-1.168 -8.012,-3.519 0.237,2.111 -0.741,3.927 -2.941,5.447 -2.059,1.431 -4.583,2.234 -7.573,2.393 -3.149,0.18 -5.841,-0.434 -8.084,-1.847 -2.587,-1.61 -4.076,-4.035 -4.476,-7.275 -0.143,-1.15 0.884,-2.973 3.081,-5.478 2.215,-2.504 3.258,-4.275 3.129,-5.316 l -0.016,0.316 z"
         id="path377" />
      <path
         inkscape:connector-curvature="0"
         style="fill:#e42126"
         d="m 419.784,443.249 c -0.098,-0.271 -0.197,-0.541 -0.308,-0.788 3.616,-0.641 7.229,-1.262 10.863,-1.88 0.11,0.25 0.219,0.499 0.329,0.758 1.552,3.439 2.933,7.186 4.151,11.241 0.049,-0.016 0.099,-0.024 0.149,-0.022 0.8,-0.112 1.579,0.141 2.357,0.766 l 0.008,0.002 v 0.01 c 0.662,0.541 1.112,1.255 1.339,2.12 0.16,0.872 0.044,1.655 -0.363,2.352 -0.459,0.792 -1.093,1.233 -1.913,1.315 l -0.009,-0.002 c -0.079,-0.002 -0.149,0.007 -0.199,0.024 0.009,0.049 0.007,0.088 0.015,0.139 0.072,0.199 0.135,0.407 0.186,0.637 0.086,0.385 0.162,0.782 0.227,1.169 0,0.009 0,0.009 -0.01,0.019 0.033,0.17 0.069,0.327 0.094,0.495 0.022,0.189 0.024,0.384 0.008,0.572 -0.013,0.147 10e-4,0.274 0.057,0.405 0.031,-0.02 0.061,-0.038 0.09,-0.068 0,0.03 -0.001,0.05 -0.002,0.081 0.707,0.031 1.317,0.358 1.83,0.985 h 0.007 v 0.01 c 0.502,0.617 0.733,1.373 0.685,2.266 -0.051,0.66 -0.247,1.253 -0.591,1.784 l -1.916,-0.062 c 0.04,-0.049 0.081,-0.088 0.11,-0.125 0.092,-0.066 0.173,-0.143 0.256,-0.238 v -0.009 c 0.337,-0.362 0.527,-0.79 0.554,-1.292 0.017,-0.208 0.002,-0.396 -0.03,-0.583 -0.153,-0.487 -0.413,-0.899 -0.789,-1.227 -0.487,-0.429 -1.049,-0.665 -1.688,-0.705 -0.011,0 -0.029,0 -0.05,-0.003 -0.008,-0.048 -0.006,-0.078 -0.006,-0.107 -0.037,-0.081 -0.073,-0.159 -0.099,-0.248 0.19,-0.397 0.245,-0.88 0.174,-1.422 -0.087,-0.635 -0.224,-1.249 -0.412,-1.856 -0.081,-0.238 -0.182,-0.449 -0.324,-0.62 -0.024,-0.188 -0.048,-0.365 -0.071,-0.552 0.011,0 0.04,0 0.07,0.002 0.64,-0.049 1.221,-0.306 1.719,-0.773 0.455,-0.428 0.73,-0.959 0.84,-1.587 -0.006,-0.186 -0.019,-0.374 -0.032,-0.56 -0.07,-0.299 -0.179,-0.549 -0.32,-0.761 -0.161,-0.173 -0.333,-0.346 -0.505,-0.499 -0.249,-0.233 -0.538,-0.41 -0.859,-0.53 -0.663,-0.239 -1.308,-0.346 -1.939,-0.319 -0.008,-0.021 -0.008,-0.03 -0.018,-0.03 -1.118,-4.023 -2.434,-7.729 -3.957,-11.137 -2.644,0.464 -5.268,0.92 -7.873,1.375 1.382,3.503 2.522,7.144 3.434,10.912 -10e-4,0.013 -10e-4,0.013 -10e-4,0.021 -0.464,0.311 -0.823,0.741 -1.087,1.293 -0.118,0.283 -0.179,0.595 -0.179,0.931 0.039,0.659 0.274,1.258 0.7,1.794 0.35,0.416 0.793,0.734 1.307,0.948 0.021,0.002 0.041,0.002 0.058,0.011 0.022,-0.009 0.042,-0.017 0.062,-0.027 0.009,0.013 0.018,0.021 0.029,0.032 0.084,0.081 0.151,0.172 0.216,0.271 0.14,0.215 0.251,0.452 0.312,0.73 0.128,0.544 0.199,1.1 0.23,1.672 0.018,0.362 -0.014,0.708 -0.083,1.05 0.009,0.01 0.009,0.01 0.009,0.021 -0.003,0.077 -0.005,0.155 -0.008,0.233 l -10e-4,0.03 h -0.01 c -0.051,0.01 -0.119,0.007 -0.188,0.015 -0.653,0.125 -1.187,0.482 -1.6,1.07 -0.33,0.452 -0.504,0.947 -0.521,1.508 0.016,0.07 0.023,0.168 0.009,0.285 0.013,0.207 0.046,0.406 0.089,0.594 l -1.653,-0.055 c -0.021,-0.245 -0.032,-0.511 -0.012,-0.787 0.078,-0.893 0.399,-1.67 0.951,-2.331 0.38,-0.451 0.812,-0.76 1.282,-0.934 10e-4,-0.009 10e-4,-0.009 10e-4,-0.02 0.029,-0.01 0.05,-0.028 0.07,-0.048 0.011,-0.008 0.011,-0.018 0.022,-0.029 0.012,-0.076 0.015,-0.155 0.017,-0.225 0.023,-0.107 0.026,-0.226 0.021,-0.354 -0.028,-0.355 -0.077,-0.703 -0.154,-1.031 -0.095,-0.404 -0.272,-0.725 -0.53,-0.969 0,-0.012 10e-4,-0.021 10e-4,-0.03 -0.32,-0.14 -0.618,-0.336 -0.915,-0.602 -0.622,-0.564 -1.03,-1.284 -1.208,-2.166 -0.179,-0.865 -0.074,-1.646 0.292,-2.343 0.22,-0.391 0.486,-0.685 0.788,-0.892 -0.968,-3.82 -2.154,-7.521 -3.585,-11.1"
         id="path379" />
      <path
         inkscape:connector-curvature="0"
         style="fill:#e42126"
         d="m 459.688,475.362 c 3.134,1.118 5.519,2.623 7.138,4.509 1.652,1.895 2.336,3.855 2.062,5.884 v 0.013 c -0.238,2.078 -1.448,3.88 -3.635,5.413 l -0.01,-0.003 c -2.228,1.562 -5.244,2.617 -9.072,3.16 h -0.01 c -9.051,1.278 -20.769,-0.465 -35.135,-5.229 -0.619,-0.058 -0.825,-1.574 -0.629,-4.541 l 0.001,-0.008 c 0.193,-2.573 0.585,-4.914 1.196,-7.021 0,0 -0.011,0 -0.022,-0.011 0.044,-0.107 0.078,-0.204 0.091,-0.292 -0.202,-0.163 -0.382,-0.356 -0.543,-0.579 0.009,-0.009 10e-4,-0.021 -0.01,-0.009 -0.393,-0.635 -0.515,-1.388 -0.368,-2.268 0.196,-0.87 0.604,-1.624 1.236,-2.265 0.366,-0.33 0.729,-0.576 1.087,-0.751 0.247,-0.032 0.439,-0.183 0.597,-0.462 0.168,-0.31 0.307,-0.632 0.424,-0.95 0.056,-0.147 0.069,-0.296 0.053,-0.423 0.013,-0.06 0.024,-0.118 0.037,-0.187 -0.31,-0.157 -0.588,-0.394 -0.833,-0.717 0.009,-0.009 0,-0.018 -0.01,-0.009 -0.321,-0.435 -0.521,-0.944 -0.591,-1.508 l 1.653,0.055 c 0.115,0.387 0.311,0.729 0.585,1.032 0.031,0.032 0.066,0.072 0.106,0.104 l 0.781,0.486 c 0.025,1.075 -0.235,2.052 -0.785,2.949 -0.031,0.049 -0.063,0.084 -0.113,0.134 l -0.46,0.211 c -0.251,0.119 -0.531,0.286 -0.834,0.505 -0.312,0.216 -0.555,0.425 -0.709,0.616 -0.315,0.322 -0.526,0.712 -0.61,1.17 0,0.01 0,0.01 0,0.021 0.009,0 0,0.009 -0.01,0.028 0.009,0.021 -0.002,0.05 -0.023,0.099 -0.011,0.03 -0.013,0.076 -0.023,0.126 -0.03,0.56 0.091,1.076 0.361,1.549 0.177,0.282 0.405,0.517 0.697,0.693 -0.011,0.018 -0.013,0.039 -0.013,0.048 -0.079,0.32 -0.178,0.644 -0.279,0.985 l -10e-4,0.01 h -0.009 c -0.68,2.134 -1.085,4.286 -1.205,6.468 -0.121,2.182 -0.235,3.25 -0.333,3.218 14.074,4.665 25.556,6.393 34.428,5.157 0.622,-0.087 1.218,-0.197 1.794,-0.306 0.15,-0.104 0.302,-0.206 0.433,-0.33 1.013,-0.862 1.603,-1.997 1.765,-3.406 0.164,-1.365 -0.119,-2.653 -0.836,-3.89 -0.756,-1.293 -1.867,-2.226 -3.335,-2.787 2.163,0.378 3.787,1.296 4.854,2.76 0.969,1.303 1.307,2.748 1.018,4.346 -0.182,1.027 -0.584,1.891 -1.198,2.609 1.513,-0.494 2.812,-1.118 3.912,-1.88 1.763,-1.233 2.755,-2.669 2.978,-4.323 0.188,-1.6 -0.371,-3.155 -1.689,-4.664 -1.48,-1.692 -3.641,-3.043 -6.481,-4.062 -6.355,-2.266 -14.226,-2.475 -23.61,-0.607 -0.214,0.16 -0.424,0.331 -0.637,0.501 -0.108,0.016 -0.199,0.032 -0.278,0.051 -0.009,-0.012 -0.029,-0.012 -0.039,-0.003 0.19,-0.092 0.363,-0.244 0.537,-0.464 0.021,-0.019 0.04,-0.038 0.052,-0.057 0.216,-0.299 0.383,-0.648 0.516,-1.048 0.088,-0.282 0.136,-0.565 0.155,-0.842 0.018,-0.225 0.005,-0.451 -0.028,-0.669 -0.088,-0.562 -0.37,-0.985 -0.843,-1.269 -0.182,-0.114 -0.366,-0.218 -0.562,-0.295 l -0.907,-0.258 c 0.013,-0.064 0.033,-0.125 0.066,-0.173 0.534,-1.006 0.895,-2.058 1.059,-3.165 l 0.602,-0.049 c 0.396,-0.075 0.796,-0.269 1.208,-0.561 0.152,-0.114 0.294,-0.236 0.418,-0.359 l 1.916,0.062 c -0.114,0.184 -0.258,0.365 -0.41,0.536 -0.012,-0.008 -0.022,0 -0.012,0.01 -0.664,0.737 -1.414,1.097 -2.251,1.099 -0.023,0.129 -0.068,0.255 -0.14,0.391 -0.011,0.038 -0.023,0.077 -0.033,0.116 -0.089,0.301 -0.188,0.596 -0.295,0.888 -0.064,0.165 -0.14,0.309 -0.223,0.444 0.688,0.062 1.228,0.405 1.632,1.019 h 0.009 l -0.011,0.01 c 0.405,0.603 0.528,1.317 0.393,2.14 8.762,-1.473 16.174,-1.121 22.243,1.075"
         id="path381" />
      <path
         inkscape:connector-curvature="0"
         style="fill:#e27c9f"
         d="m 435.406,453.881 c 0.321,0.12 0.61,0.297 0.859,0.53 0.172,0.153 0.344,0.326 0.505,0.499 0.141,0.212 0.25,0.462 0.32,0.761 0.013,0.186 0.026,0.374 0.032,0.56 -0.111,0.629 -0.385,1.159 -0.84,1.588 -0.499,0.467 -1.079,0.724 -1.719,0.772 -0.03,-0.002 -0.059,-0.002 -0.07,-0.002 -0.028,-0.013 -0.048,-0.013 -0.058,-0.005 -2.848,0.372 -5.676,0.729 -8.493,1.101 -0.011,-0.011 -0.02,-0.02 -0.029,-0.032 -0.02,0.011 -0.04,0.019 -0.06,0.027 -0.019,-0.009 -0.039,-0.009 -0.06,-0.011 -0.514,-0.214 -0.955,-0.532 -1.307,-0.948 -0.426,-0.536 -0.662,-1.135 -0.7,-1.794 0,-0.336 0.061,-0.647 0.179,-0.931 0.264,-0.552 0.623,-0.982 1.087,-1.293 0,-0.009 0,-0.009 0,-0.021 2.789,-0.369 5.597,-0.741 8.415,-1.12 0.631,-0.031 1.276,0.08 1.939,0.319"
         id="path383" />
      <path
         inkscape:connector-curvature="0"
         style="fill:#e86601"
         d="m 434.436,458.584 c 0.009,-0.008 0.03,-0.008 0.058,0.005 0.023,0.187 0.046,0.363 0.07,0.552 0.143,0.173 0.244,0.382 0.325,0.62 0.187,0.607 0.324,1.222 0.412,1.856 0.071,0.542 0.015,1.024 -0.175,1.422 0.026,0.089 0.062,0.167 0.1,0.248 0,0.029 -0.002,0.06 0.005,0.107 -0.036,-0.01 -0.058,0 -0.068,0.01 -0.02,0.008 -0.04,0.006 -0.06,0.017 -2.837,0.075 -5.666,0.16 -8.484,0.242 0.003,-0.078 0.004,-0.156 0.007,-0.233 0,-0.012 0,-0.012 -0.009,-0.021 0.07,-0.342 0.101,-0.688 0.084,-1.05 -0.032,-0.572 -0.102,-1.128 -0.23,-1.671 -0.06,-0.279 -0.172,-0.517 -0.311,-0.731 -0.067,-0.1 -0.133,-0.19 -0.218,-0.271 2.816,-0.373 5.645,-0.73 8.494,-1.102"
         id="path385" />
      <path
         inkscape:connector-curvature="0"
         style="fill:#e86601"
         d="m 433.449,453.531 c 0.01,0 0.01,0.01 0.018,0.03 -2.819,0.379 -5.626,0.751 -8.414,1.12 -0.912,-3.769 -2.052,-7.409 -3.434,-10.912 2.605,-0.455 5.229,-0.911 7.872,-1.375 1.524,3.408 2.84,7.114 3.958,11.137"
         id="path387" />
      <path
         inkscape:connector-curvature="0"
         style="fill:#e27c9f"
         d="m 426.618,463.693 0.001,-0.03 c 2.818,-0.082 5.646,-0.167 8.484,-0.241 0.02,-0.012 0.04,-0.01 0.059,-0.018 0.011,-0.01 0.033,-0.02 0.069,-0.01 0.022,0.003 0.04,0.003 0.05,0.003 0.639,0.041 1.202,0.276 1.689,0.705 0.375,0.327 0.636,0.739 0.789,1.227 0.032,0.188 0.047,0.375 0.03,0.583 -0.028,0.502 -0.217,0.93 -0.554,1.292 v 0.009 c -0.083,0.096 -0.164,0.172 -0.256,0.238 -0.153,0.182 -0.326,0.342 -0.528,0.484 -0.412,0.292 -0.812,0.486 -1.208,0.561 l -0.603,0.049 -1.962,0.055 c -2.108,0.049 -4.217,0.108 -6.316,0.177 l -0.494,0.012 -0.78,-0.486 c -0.04,-0.032 -0.075,-0.072 -0.106,-0.104 -0.408,-0.444 -0.637,-0.984 -0.673,-1.626 0.012,-0.117 0.006,-0.215 -0.011,-0.285 0.018,-0.561 0.192,-1.056 0.521,-1.508 0.413,-0.588 0.947,-0.945 1.601,-1.07 0.068,-0.008 0.137,-0.005 0.188,-0.015 h 0.01 z"
         id="path389" />
      <path
         inkscape:connector-curvature="0"
         style="fill:#e27c9f"
         d="m 434.423,472.141 c 0.195,0.077 0.379,0.181 0.562,0.295 0.473,0.281 0.754,0.706 0.843,1.268 0.033,0.219 0.046,0.445 0.028,0.67 -0.019,0.276 -0.068,0.56 -0.155,0.842 -0.133,0.399 -0.3,0.749 -0.517,1.048 -0.011,0.019 -0.03,0.038 -0.051,0.057 -0.175,0.22 -0.347,0.372 -0.538,0.464 0.01,-0.009 0.031,-0.009 0.04,0.003 -0.048,0.008 -0.088,0.016 -0.139,0.042 -0.07,0.02 -0.149,0.035 -0.229,0.054 -0.019,-0.011 -0.039,-0.002 -0.058,0.008 -0.09,0.007 -0.178,0.004 -0.268,0.012 -0.127,0.004 -0.265,0 -0.402,0.006 -3.417,-0.004 -6.804,-0.017 -10.179,-0.02 -0.291,-0.177 -0.52,-0.409 -0.698,-0.691 -0.27,-0.473 -0.39,-0.989 -0.361,-1.549 0.01,-0.05 0.013,-0.096 0.023,-0.126 0.021,-0.049 0.033,-0.078 0.023,-0.099 0.011,-0.02 0.021,-0.028 0.011,-0.028 v -0.021 c 0.084,-0.458 0.295,-0.848 0.61,-1.17 0.153,-0.191 0.397,-0.4 0.708,-0.616 0.303,-0.219 0.584,-0.386 0.834,-0.505 l 0.461,-0.211 1.122,-0.003 c 2.029,-10e-4 4.056,0.005 6.094,0.014 l 1.328,0.001 0.908,0.255 z"
         id="path391" />
      <path
         inkscape:connector-curvature="0"
         style="fill:#e86601"
         d="m 434.496,476.829 c 0.051,-0.027 0.091,-0.035 0.139,-0.043 0.079,-0.019 0.17,-0.035 0.278,-0.051 0.213,-0.17 0.423,-0.341 0.637,-0.501 9.384,-1.867 17.254,-1.658 23.609,0.607 2.839,1.02 5.001,2.37 6.481,4.062 1.318,1.509 1.878,3.064 1.688,4.664 -0.221,1.654 -1.213,3.09 -2.977,4.324 -1.1,0.761 -2.398,1.385 -3.911,1.879 0.614,-0.719 1.015,-1.582 1.198,-2.609 0.289,-1.598 -0.048,-3.043 -1.018,-4.346 -1.066,-1.464 -2.69,-2.382 -4.854,-2.76 1.469,0.562 2.58,1.493 3.335,2.787 0.719,1.236 1.001,2.524 0.837,3.89 -0.162,1.409 -0.753,2.542 -1.765,3.406 -0.131,0.124 -0.282,0.226 -0.433,0.33 -0.577,0.108 -1.171,0.219 -1.793,0.306 -8.872,1.235 -20.354,-0.492 -34.429,-5.157 0.098,0.032 0.212,-1.036 0.332,-3.218 0.121,-2.182 0.526,-4.334 1.206,-6.467 h 0.01 v -0.011 c 0.101,-0.342 0.2,-0.664 0.279,-0.985 10e-4,-0.011 0.002,-0.03 0.013,-0.05 3.375,0.003 6.762,0.016 10.179,0.02 0.138,-0.006 0.275,-0.002 0.402,-0.006 0.09,-0.008 0.179,-0.005 0.268,-0.012 0.019,-0.01 0.039,-0.019 0.058,-0.008 0.082,-0.017 0.161,-0.032 0.231,-0.051 l 0,0 z"
         id="path393" />
      <path
         inkscape:connector-curvature="0"
         style="fill:#e86601"
         d="m 433.515,471.883 -1.328,-10e-4 c -2.038,-0.009 -4.066,-0.015 -6.094,-0.014 l -1.122,0.003 c 0.049,-0.051 0.082,-0.085 0.112,-0.135 0.55,-0.896 0.81,-1.873 0.785,-2.948 l 0.494,-0.012 c 2.098,-0.068 4.207,-0.128 6.316,-0.177 l 1.962,-0.055 c -0.164,1.107 -0.525,2.159 -1.059,3.165 -0.033,0.049 -0.053,0.109 -0.066,0.174"
         id="path395" />
      <path
         inkscape:connector-curvature="0"
         style="fill:#e42126"
         d="m 415.402,450.906 c 0.131,-0.253 0.263,-0.505 0.401,-0.74 -3.488,-1.073 -6.98,-2.127 -10.491,-3.183 -0.139,0.233 -0.277,0.466 -0.418,0.71 -1.95,3.201 -3.776,6.731 -5.473,10.586 -0.046,-0.022 -0.093,-0.039 -0.142,-0.043 -0.777,-0.207 -1.577,-0.054 -2.421,0.469 h -0.009 l -10e-4,0.009 c -0.718,0.455 -1.252,1.104 -1.581,1.929 -0.262,0.841 -0.246,1.629 0.069,2.366 0.359,0.837 0.93,1.351 1.73,1.532 h 0.009 c 0.078,0.008 0.144,0.023 0.192,0.049 -0.013,0.047 -0.018,0.087 -0.033,0.133 -0.094,0.188 -0.181,0.387 -0.26,0.606 -0.132,0.372 -0.256,0.754 -0.368,1.125 0,0.009 0,0.009 0.008,0.021 -0.053,0.163 -0.107,0.314 -0.151,0.478 -0.046,0.181 -0.074,0.377 -0.082,0.563 -0.002,0.146 -0.033,0.271 -0.103,0.392 -0.027,-0.021 -0.056,-0.044 -0.081,-0.075 -0.003,0.029 -0.006,0.048 -0.009,0.078 -0.701,-0.056 -1.344,0.192 -1.925,0.747 h -0.008 l -0.002,0.011 c -0.57,0.547 -0.891,1.265 -0.953,2.154 -0.041,0.88 0.192,1.687 0.705,2.412 0.012,-0.01 0.02,0.002 0.009,0.011 0.567,0.806 1.263,1.254 2.089,1.357 -0.001,0.116 0.027,0.249 0.083,0.382 l 1.549,0.14 c -0.056,-0.349 -0.083,-0.705 -0.089,-1.067 l -0.589,-0.121 c -0.382,-0.126 -0.754,-0.366 -1.127,-0.704 -0.18,-0.163 -0.329,-0.346 -0.461,-0.541 -0.081,-0.079 -0.151,-0.165 -0.22,-0.268 v -0.009 c -0.287,-0.399 -0.423,-0.846 -0.389,-1.344 0.01,-0.204 0.047,-0.388 0.102,-0.569 0.208,-0.462 0.518,-0.839 0.926,-1.115 0.535,-0.364 1.118,-0.527 1.754,-0.488 0.01,0 0.029,0.002 0.05,0.004 0.013,-0.048 0.015,-0.077 0.018,-0.106 0.046,-0.076 0.093,-0.149 0.129,-0.235 -0.138,-0.413 -0.134,-0.896 0.002,-1.426 0.165,-0.612 0.375,-1.201 0.633,-1.778 0.112,-0.226 0.237,-0.421 0.397,-0.572 0.046,-0.185 0.09,-0.357 0.138,-0.54 -0.011,0 -0.04,-10e-4 -0.068,-0.004 -0.629,-0.126 -1.169,-0.45 -1.602,-0.973 -0.4,-0.477 -0.606,-1.038 -0.635,-1.67 0.026,-0.183 0.062,-0.367 0.098,-0.55 0.104,-0.286 0.244,-0.518 0.409,-0.711 0.181,-0.149 0.371,-0.299 0.561,-0.429 0.273,-0.203 0.581,-0.34 0.911,-0.419 0.682,-0.153 1.333,-0.185 1.953,-0.077 0.012,-0.019 0.013,-0.027 0.021,-0.027 1.598,-3.836 3.35,-7.333 5.27,-10.508 2.552,0.781 5.086,1.553 7.601,2.321 -1.793,3.286 -3.364,6.739 -4.724,10.35 -0.002,0.012 -0.002,0.012 -0.002,0.021 0.419,0.363 0.72,0.832 0.915,1.41 0.081,0.291 0.101,0.609 0.06,0.938 -0.116,0.647 -0.423,1.209 -0.909,1.686 -0.396,0.366 -0.873,0.63 -1.406,0.775 -0.02,0 -0.039,-0.002 -0.06,0.005 -0.018,-0.012 -0.036,-0.021 -0.057,-0.035 -0.01,0.011 -0.02,0.02 -0.03,0.028 -0.095,0.069 -0.172,0.151 -0.248,0.243 -0.165,0.192 -0.303,0.414 -0.397,0.681 -0.194,0.522 -0.331,1.061 -0.433,1.621 -0.061,0.359 -0.072,0.7 -0.045,1.047 -0.01,0.011 -0.01,0.011 -0.012,0.02 -0.006,0.079 -0.013,0.156 -0.02,0.233 l -0.003,0.03 h 0.01 c 0.048,0.014 0.116,0.021 0.184,0.038 0.628,0.204 1.112,0.621 1.448,1.251 0.269,0.487 0.379,0.997 0.331,1.553 -0.026,0.065 -0.045,0.163 -0.045,0.28 -0.117,0.629 -0.408,1.132 -0.866,1.522 -0.033,0.027 -0.075,0.062 -0.117,0.09 l -0.83,0.386 c -0.026,0.175 -0.042,0.348 -0.049,0.525 l 1.814,0.166 c 0.257,-0.124 0.507,-0.299 0.746,-0.542 -0.009,-0.011 0.002,-0.021 0.012,-0.011 0.531,-0.568 0.825,-1.298 0.877,-2.188 0.032,-0.894 -0.192,-1.698 -0.657,-2.418 -0.318,-0.491 -0.709,-0.851 -1.151,-1.077 0.002,-0.01 0.002,-0.01 0.003,-0.021 -0.028,-0.01 -0.046,-0.031 -0.063,-0.053 -0.009,-0.011 -0.008,-0.02 -0.018,-0.032 -0.003,-0.077 0.006,-0.155 0.011,-0.224 -0.01,-0.109 10e-4,-0.227 0.023,-0.353 0.07,-0.346 0.161,-0.684 0.277,-0.996 0.143,-0.391 0.358,-0.685 0.642,-0.896 0.001,-0.008 0.002,-0.018 0.002,-0.027 0.332,-0.099 0.652,-0.257 0.977,-0.482 0.682,-0.478 1.173,-1.141 1.458,-1.988 0.282,-0.83 0.275,-1.618 -0.003,-2.35 -0.168,-0.41 -0.394,-0.732 -0.667,-0.976 1.423,-3.654 3.048,-7.161 4.896,-10.523"
         id="path397" />
      <path
         inkscape:connector-curvature="0"
         style="fill:#e42126"
         d="m 371.87,481.76 c -2.915,1.256 -5.109,2.905 -6.581,4.942 -1.494,2.056 -2.079,4.164 -1.754,6.327 l -0.002,0.01 c 0.28,2.216 1.484,4.124 3.599,5.711 l 0.01,0.002 c 2.143,1.62 5.024,2.677 8.655,3.171 l 0.007,0.004 c 8.571,1.18 19.561,-0.909 32.951,-6.285 0.169,-0.022 0.313,-0.189 0.408,-0.494 0.017,0.032 0.034,0.062 0.061,0.095 0.241,-0.713 0.41,-1.928 0.516,-3.627 v -0.012 c 0.037,-0.732 0.052,-1.438 0.058,-2.136 -0.009,-1.751 -0.135,-3.394 -0.378,-4.937 0,0 0.009,0 0.019,-0.009 -0.028,-0.11 -0.048,-0.213 -0.05,-0.298 0.052,-0.035 0.104,-0.073 0.157,-0.107 0.158,-0.113 0.308,-0.244 0.449,-0.399 -0.009,-0.01 10e-4,-0.02 0.011,-0.008 0.465,-0.577 0.679,-1.304 0.641,-2.194 -0.086,-0.882 -0.398,-1.676 -0.943,-2.385 -0.32,-0.371 -0.647,-0.656 -0.981,-0.874 -0.24,-0.062 -0.412,-0.235 -0.533,-0.531 -0.127,-0.325 -0.223,-0.659 -0.302,-0.99 -0.037,-0.148 -0.033,-0.296 0,-0.422 -0.006,-0.061 -0.01,-0.116 -0.014,-0.189 0.052,-0.022 0.111,-0.038 0.163,-0.062 l -1.813,-0.166 c -0.048,0.862 0.102,1.691 0.464,2.479 0.023,0.053 0.049,0.094 0.093,0.146 l 0.429,0.266 c 0.232,0.149 0.489,0.349 0.76,0.6 0.284,0.252 0.498,0.487 0.626,0.695 0.272,0.357 0.431,0.769 0.459,1.231 -0.002,0.009 -0.002,0.009 -0.002,0.02 -0.01,0 -10e-4,0.01 0.005,0.03 -0.01,0.019 -0.003,0.048 0.011,0.1 0.009,0.029 0.003,0.077 0.009,0.129 -0.04,0.554 -0.224,1.05 -0.548,1.481 -0.21,0.256 -0.464,0.459 -0.771,0.598 0.008,0.021 0.007,0.041 0.006,0.049 0.004,0.052 0.019,0.111 0.025,0.161 0.033,0.269 0.075,0.557 0.129,0.846 l -10e-4,0.013 h 0.01 c 0.232,1.229 0.378,2.45 0.433,3.674 0.04,0.958 0.022,1.91 -0.034,2.857 -0.061,0.889 -0.097,1.602 -0.115,2.123 -0.044,-0.055 -0.089,-0.108 -0.133,-0.161 0.017,0.141 0.026,0.257 0.047,0.358 0.037,0.328 0.084,0.479 0.125,0.464 -13.126,5.274 -23.898,7.342 -32.305,6.214 -0.582,-0.084 -1.141,-0.183 -1.692,-0.302 -0.148,-0.102 -0.284,-0.224 -0.421,-0.343 -0.98,-0.896 -1.567,-2.098 -1.765,-3.599 -0.204,-1.444 0.022,-2.84 0.663,-4.167 0.667,-1.403 1.691,-2.41 3.056,-3.044 -2.035,0.446 -3.531,1.459 -4.492,3.051 -0.864,1.406 -1.143,2.963 -0.815,4.653 0.205,1.09 0.603,2.001 1.214,2.755 -1.448,-0.496 -2.698,-1.13 -3.757,-1.925 -1.702,-1.275 -2.684,-2.788 -2.945,-4.552 -0.229,-1.701 0.246,-3.378 1.445,-5.008 1.347,-1.834 3.339,-3.321 5.979,-4.467 4.56,-1.955 10.006,-2.629 16.336,-2.007 l 8.225,1.072 0.073,-0.043 c -0.312,-0.126 -0.561,-0.313 -0.752,-0.579 -0.062,-0.074 -0.114,-0.158 -0.166,-0.232 -0.076,-0.132 -0.141,-0.286 -0.195,-0.45 l -0.009,-0.01 c -0.052,-0.181 -0.103,-0.373 -0.146,-0.564 -0.052,-0.289 -0.066,-0.573 -0.052,-0.848 0.006,-0.149 0.028,-0.294 0.061,-0.438 0.017,-0.075 0.034,-0.153 0.05,-0.221 0.157,-0.546 0.486,-0.927 0.988,-1.148 0.195,-0.09 0.389,-0.17 0.591,-0.22 l 0.927,-0.143 c -0.004,-0.07 -0.018,-0.132 -0.042,-0.183 -0.28,-0.722 -0.469,-1.444 -0.569,-2.184 l -1.55,-0.14 c 0.009,0.011 0.009,0.011 0.009,0.021 0.005,0.038 0.011,0.079 0.018,0.118 0.051,0.311 0.111,0.609 0.182,0.91 0.042,0.171 0.099,0.324 0.165,0.469 -0.687,-0.023 -1.261,0.247 -1.733,0.804 h -0.012 l 0.01,0.012 c -0.21,0.246 -0.373,0.525 -0.481,0.84 -0.063,0.161 -0.107,0.324 -0.134,0.499 -0.031,0.469 -0.004,0.932 0.102,1.385 0.029,0.119 0.056,0.241 0.094,0.371 -0.259,-0.072 -0.598,-0.133 -1.035,-0.184 -0.437,-0.068 -0.854,-0.126 -1.241,-0.19 -0.385,-0.063 -0.687,-0.109 -0.901,-0.139 v 0.008 c -7.617,-1.073 -14.07,-0.46 -19.359,1.852"
         id="path399" />
      <path
         inkscape:connector-curvature="0"
         style="fill:#e27c9f"
         d="m 398.683,459.489 c -0.33,0.079 -0.638,0.216 -0.911,0.419 -0.189,0.13 -0.38,0.279 -0.561,0.433 -0.165,0.189 -0.304,0.422 -0.408,0.708 -0.037,0.182 -0.072,0.366 -0.099,0.549 0.029,0.632 0.235,1.193 0.635,1.67 0.433,0.522 0.975,0.847 1.602,0.973 0.029,0.003 0.057,0.004 0.068,0.006 0.029,-0.008 0.049,-0.006 0.057,0.006 2.766,0.712 5.513,1.414 8.249,2.124 0.011,-0.009 0.02,-0.018 0.031,-0.028 0.02,0.014 0.038,0.023 0.057,0.035 0.02,-0.007 0.039,-0.005 0.059,-0.005 0.534,-0.146 1.011,-0.408 1.406,-0.775 0.486,-0.477 0.793,-1.038 0.91,-1.686 0.04,-0.329 0.02,-0.647 -0.061,-0.938 -0.195,-0.578 -0.495,-1.047 -0.914,-1.41 0,-0.009 0,-0.009 0.002,-0.021 -2.707,-0.707 -5.434,-1.417 -8.168,-2.136 -0.621,-0.107 -1.272,-0.077 -1.954,0.076"
         id="path401" />
      <path
         inkscape:connector-curvature="0"
         style="fill:#e86601"
         d="m 399.066,464.252 c -0.008,-0.012 -0.028,-0.014 -0.057,-0.006 -0.046,0.182 -0.092,0.354 -0.138,0.538 -0.16,0.151 -0.285,0.347 -0.397,0.572 -0.258,0.577 -0.469,1.167 -0.633,1.779 -0.136,0.529 -0.14,1.013 -0.002,1.425 -0.036,0.087 -0.083,0.16 -0.129,0.235 -0.003,0.029 -0.005,0.06 -0.019,0.106 0.04,-0.006 0.059,0.006 0.068,0.017 0.018,0.011 0.037,0.011 0.056,0.023 2.793,0.42 5.573,0.85 8.345,1.279 0.007,-0.078 0.014,-0.155 0.021,-0.234 0.001,-0.009 0.001,-0.009 0.012,-0.02 -0.028,-0.347 -0.017,-0.688 0.046,-1.047 0.099,-0.561 0.237,-1.099 0.431,-1.621 0.094,-0.267 0.232,-0.487 0.396,-0.681 0.077,-0.092 0.154,-0.174 0.249,-0.243 -2.736,-0.708 -5.482,-1.41 -8.249,-2.122"
         id="path403" />
      <path
         inkscape:connector-curvature="0"
         style="fill:#e86601"
         d="m 400.658,459.385 c -0.008,0 -0.01,0.009 -0.021,0.027 2.734,0.719 5.461,1.429 8.168,2.136 1.36,-3.61 2.931,-7.063 4.724,-10.35 -2.516,-0.769 -5.05,-1.54 -7.601,-2.321 -1.92,3.176 -3.673,6.672 -5.27,10.508"
         id="path405" />
      <path
         inkscape:connector-curvature="0"
         style="fill:#e27c9f"
         d="m 406.157,470.251 0.003,-0.029 c -2.772,-0.43 -5.552,-0.859 -8.345,-1.279 -0.018,-0.013 -0.038,-0.014 -0.056,-0.026 -0.009,-0.008 -0.028,-0.02 -0.067,-0.014 -0.021,-0.002 -0.04,-0.004 -0.05,-0.004 -0.636,-0.039 -1.219,0.124 -1.754,0.489 -0.408,0.275 -0.718,0.652 -0.926,1.114 -0.055,0.182 -0.092,0.365 -0.102,0.569 -0.034,0.498 0.102,0.944 0.389,1.344 v 0.009 c 0.069,0.103 0.14,0.188 0.221,0.268 0.131,0.196 0.28,0.378 0.461,0.541 0.372,0.338 0.745,0.578 1.126,0.705 l 0.589,0.12 1.929,0.291 c 2.074,0.308 4.148,0.622 6.212,0.948 l 0.485,0.074 0.83,-0.386 c 0.042,-0.028 0.084,-0.062 0.118,-0.089 0.457,-0.392 0.748,-0.895 0.865,-1.523 0,-0.117 0.019,-0.215 0.045,-0.28 0.05,-0.556 -0.06,-1.065 -0.33,-1.553 -0.337,-0.63 -0.821,-1.047 -1.449,-1.251 -0.068,-0.017 -0.136,-0.024 -0.184,-0.038 h -0.01 z"
         id="path407" />
      <path
         inkscape:connector-curvature="0"
         style="fill:#e27c9f"
         d="m 397.419,477.634 c -0.202,0.05 -0.396,0.13 -0.59,0.22 -0.503,0.222 -0.831,0.603 -0.989,1.148 -0.016,0.067 -0.033,0.146 -0.049,0.221 -0.034,0.145 -0.056,0.289 -0.061,0.438 -0.015,0.274 -0.001,0.559 0.051,0.848 0.043,0.191 0.094,0.384 0.146,0.564 l 0.009,0.01 c 0.054,0.164 0.119,0.318 0.195,0.45 0.053,0.074 0.104,0.158 0.166,0.232 0.191,0.264 0.44,0.453 0.752,0.579 l 1.069,0.148 c 0.854,0.104 1.71,0.204 2.564,0.312 2.373,0.282 4.735,0.575 7.076,0.866 0.307,-0.139 0.561,-0.342 0.771,-0.599 0.324,-0.431 0.508,-0.927 0.548,-1.48 -0.006,-0.052 0,-0.1 -0.009,-0.129 -0.014,-0.052 -0.021,-0.081 -0.01,-0.1 -0.007,-0.021 -0.017,-0.03 -0.006,-0.03 0,-0.011 0,-0.011 0.002,-0.02 -0.028,-0.463 -0.188,-0.874 -0.459,-1.231 -0.128,-0.208 -0.343,-0.443 -0.626,-0.695 -0.271,-0.251 -0.528,-0.45 -0.76,-0.6 l -0.429,-0.266 -1.107,-0.139 c -2.002,-0.252 -4.004,-0.491 -6.014,-0.733 l -1.313,-0.158 -0.927,0.144 z"
         id="path409" />
      <path
         inkscape:connector-curvature="0"
         style="fill:#e86601"
         d="m 397.049,482.345 -0.073,0.043 -8.225,-1.072 c -6.329,-0.622 -11.776,0.052 -16.336,2.006 -2.64,1.146 -4.632,2.634 -5.979,4.468 -1.199,1.63 -1.674,3.307 -1.445,5.008 0.261,1.764 1.244,3.275 2.946,4.552 1.058,0.795 2.308,1.429 3.756,1.925 -0.61,-0.754 -1.009,-1.665 -1.214,-2.755 -0.327,-1.69 -0.049,-3.247 0.816,-4.653 0.961,-1.592 2.457,-2.604 4.492,-3.051 -1.365,0.634 -2.39,1.641 -3.056,3.044 -0.642,1.327 -0.868,2.723 -0.664,4.167 0.198,1.501 0.785,2.703 1.766,3.599 0.136,0.119 0.272,0.241 0.42,0.343 0.551,0.119 1.11,0.218 1.692,0.302 8.408,1.128 19.179,-0.939 32.305,-6.214 -0.04,0.015 -0.087,-0.136 -0.125,-0.464 -0.021,-0.102 -0.03,-0.218 -0.047,-0.358 0.044,0.053 0.09,0.106 0.134,0.158 0.017,-0.519 0.053,-1.232 0.114,-2.12 0.056,-0.948 0.075,-1.899 0.034,-2.857 -0.055,-1.224 -0.201,-2.445 -0.433,-3.675 h -0.01 l 0.001,-0.012 c -0.054,-0.289 -0.096,-0.577 -0.129,-0.846 -0.006,-0.05 -0.02,-0.109 -0.025,-0.161 10e-4,-0.008 0.002,-0.027 -0.006,-0.049 -2.341,-0.291 -4.703,-0.584 -7.076,-0.866 -0.854,-0.108 -1.71,-0.208 -2.564,-0.312 l -1.069,-0.15 z"
         id="path411" />
      <path
         inkscape:connector-curvature="0"
         style="fill:#e86601"
         d="m 398.346,477.491 1.313,0.158 c 2.01,0.242 4.013,0.481 6.015,0.733 l 1.106,0.139 c -0.044,-0.051 -0.07,-0.092 -0.093,-0.146 -0.434,-0.955 -0.57,-1.948 -0.415,-3.005 l -0.485,-0.074 c -2.064,-0.326 -4.138,-0.641 -6.212,-0.948 l -1.929,-0.291 c 0.026,1.11 0.253,2.193 0.658,3.251 0.025,0.051 0.039,0.113 0.042,0.183"
         id="path413" />
      <polygon
         style="fill:#e42126"
         points="392.76,479.705 392.76,479.714 392.769,479.717 "
         id="polygon415" />
      <path
         inkscape:connector-curvature="0"
         style="fill:#f2b800"
         d="m 443.803,376.069 c -0.399,-1.795 -2.101,-3.04 -5.128,-3.723 -2.931,-0.669 -6.841,-0.757 -11.722,-0.252 -1.393,0.146 -2.966,1.093 -4.708,2.858 -1.585,1.591 -3.572,4.126 -5.972,7.615 -3.048,4.435 -9.374,14.155 -18.972,29.151 -4.126,6.234 -6.463,12.172 -6.998,17.803 -0.496,5.108 0.483,9.779 2.946,14.014 2.254,3.874 5.583,7.147 9.986,9.799 4.16,2.517 8.841,4.255 14.059,5.209 5.19,0.938 10.256,0.988 15.193,0.155 5.192,-0.859 9.661,-2.611 13.394,-5.25 4.08,-2.86 6.958,-6.557 8.65,-11.085 1.865,-5.002 2.178,-10.779 0.945,-17.333 -2.726,-14.483 -5.282,-26.063 -7.684,-34.748 -2.048,-6.626 -3.375,-11.359 -3.989,-14.213"
         id="path417" />
      <path
         inkscape:connector-curvature="0"
         style="fill:none;stroke:#f2b800;stroke-width:2.9519999;stroke-miterlimit:10"
         d="m 438.675,372.347 c -2.93,-0.669 -6.84,-0.757 -11.721,-0.252 -1.393,0.146 -2.967,1.093 -4.708,2.858 -1.585,1.591 -3.572,4.126 -5.972,7.615 -3.049,4.435 -9.374,14.155 -18.973,29.151 -4.126,6.234 -6.462,12.172 -6.997,17.803 -0.497,5.108 0.482,9.779 2.946,14.014 2.253,3.874 5.583,7.147 9.986,9.799 4.16,2.517 8.841,4.255 14.058,5.209 5.191,0.938 10.256,0.989 15.193,0.155 5.193,-0.859 9.662,-2.611 13.394,-5.25 4.08,-2.86 6.958,-6.557 8.65,-11.085 1.866,-5.002 2.179,-10.779 0.944,-17.333 -2.725,-14.483 -5.282,-26.063 -7.683,-34.747 -2.049,-6.628 -3.375,-11.361 -3.99,-14.215 -0.398,-1.795 -2.099,-3.04 -5.127,-3.722 z"
         id="path419" />
      <path
         inkscape:connector-curvature="0"
         style="fill:#fcdf00"
         d="m 455.477,425.031 c -2.726,-14.483 -5.282,-26.063 -7.684,-34.748 -0.786,-2.552 -1.472,-4.828 -2.046,-6.815 -9.643,-6.075 -15.14,-12.049 -16.503,-17.909 l -7.536,9.951 c -1.484,1.601 -3.301,3.953 -5.435,7.059 -3.048,4.435 -9.374,14.155 -18.972,29.15 -4.126,6.235 -6.463,12.173 -6.997,17.804 -0.497,5.108 0.482,9.779 2.945,14.014 2.254,3.874 5.583,7.147 9.986,9.799 4.16,2.517 8.842,4.255 14.059,5.209 5.19,0.938 10.254,0.988 15.193,0.155 5.193,-0.859 9.661,-2.611 13.394,-5.25 4.08,-2.86 6.957,-6.557 8.65,-11.085 1.865,-5.003 2.178,-10.78 0.946,-17.334"
         id="path421" />
      <path
         inkscape:connector-curvature="0"
         style="fill:#f2b800"
         d="m 497.98,335.255 c -0.722,-6.162 -2.674,-12.046 -5.85,-17.669 -3.161,-5.599 -7.295,-10.473 -12.404,-14.646 -5.281,-4.311 -11.221,-7.558 -17.832,-9.735 -6.615,-2.175 -13.316,-3.086 -20.104,-2.746 -6.589,0.324 -12.82,1.788 -18.687,4.418 -5.892,2.641 -10.956,6.216 -15.187,10.747 -4.412,4.711 -7.623,10.104 -9.627,16.196 -5.007,15.214 -3.946,28.267 3.179,39.161 6.188,9.634 16.522,16.839 31.018,21.607 6.764,2.225 13.356,3.359 19.778,3.415 l 0.013,0.004 c 6.633,0.043 12.754,-1.064 18.362,-3.313 12.291,-4.9 20.784,-14.468 25.464,-28.694 2.004,-6.092 2.631,-12.336 1.877,-18.745 m -7.221,-16.891 c 3.065,5.422 4.954,11.12 5.649,17.076 0.729,6.183 0.134,12.201 -1.797,18.068 -4.521,13.742 -12.699,22.98 -24.549,27.735 -5.438,2.169 -11.358,3.23 -17.785,3.192 -6.27,-0.056 -12.706,-1.169 -19.299,-3.34 -14.095,-4.637 -24.158,-11.627 -30.194,-20.963 -6.838,-10.52 -7.836,-23.129 -3.002,-37.821 1.93,-5.868 5.023,-11.062 9.278,-15.607 4.098,-4.379 9,-7.842 14.696,-10.383 5.689,-2.553 11.722,-3.989 18.109,-4.297 6.6,-0.33 13.11,0.56 19.536,2.674 6.43,2.115 12.203,5.266 17.338,9.458 4.947,4.035 8.96,8.777 12.02,14.208"
         id="path423" />
      <path
         inkscape:connector-curvature="0"
         style="fill:#fcdf00"
         d="m 496.409,335.44 c -0.696,-5.956 -2.585,-11.654 -5.649,-17.076 -3.061,-5.431 -7.074,-10.174 -12.022,-14.209 -5.134,-4.191 -10.907,-7.342 -17.336,-9.457 -6.426,-2.114 -12.937,-3.005 -19.536,-2.675 -6.387,0.309 -12.421,1.745 -18.11,4.298 -5.695,2.541 -10.597,6.004 -14.696,10.383 -4.254,4.544 -7.347,9.739 -9.277,15.607 -4.834,14.692 -3.836,27.301 3.002,37.82 6.035,9.337 16.099,16.328 30.193,20.964 6.595,2.171 13.031,3.283 19.299,3.34 6.427,0.038 12.348,-1.023 17.786,-3.192 11.85,-4.755 20.029,-13.993 24.548,-27.736 1.931,-5.865 2.526,-11.883 1.798,-18.067"
         id="path425" />
      <path
         inkscape:connector-curvature="0"
         style="fill:#e27c9f"
         d="m 428.067,321.425 c 3.25,-1.236 6.503,-1.758 9.782,-1.579 3.181,0.168 6.031,0.961 8.537,2.396 -0.998,-1.209 -2.12,-2.259 -3.391,-3.143 -1.825,-1.272 -3.812,-2.142 -5.967,-2.603 -2.15,-0.47 -4.31,-0.508 -6.497,-0.112 -3.475,0.636 -6.452,2.209 -8.936,4.731 -2.426,2.469 -3.958,5.397 -4.588,8.787 1.265,-1.827 2.827,-3.463 4.677,-4.913 1.907,-1.491 4.036,-2.682 6.383,-3.564"
         id="path427" />
      <path
         inkscape:connector-curvature="0"
         style="fill:#0077bf"
         d="m 437.849,319.846 c -3.279,-0.18 -6.532,0.342 -9.782,1.579 -2.346,0.881 -4.475,2.073 -6.383,3.564 -1.85,1.449 -3.412,3.086 -4.676,4.913 -0.352,2.045 -0.366,4.036 -0.02,5.969 l 0.336,1.495 c 0.906,-2.472 2.394,-4.701 4.457,-6.7 2.132,-2.08 4.652,-3.678 7.57,-4.787 3.915,-1.494 7.786,-1.884 11.61,-1.163 3.742,0.693 6.694,2.314 8.864,4.859 -0.546,-2.774 -1.693,-5.22 -3.439,-7.333 -2.505,-1.435 -5.355,-2.229 -8.537,-2.396"
         id="path429" />
      <path
         inkscape:connector-curvature="0"
         style="fill:#ffffff"
         d="m 449.825,329.575 c -2.17,-2.545 -5.122,-4.167 -8.863,-4.859 -3.825,-0.721 -7.696,-0.331 -11.61,1.163 -2.918,1.109 -5.439,2.707 -7.571,4.787 -2.063,1.999 -3.55,4.228 -4.457,6.7 0.524,1.899 1.336,3.634 2.455,5.232 1.127,1.602 2.499,2.962 4.115,4.083 1.825,1.273 3.813,2.144 5.947,2.598 2.152,0.469 4.322,0.501 6.523,0.099 4.53,-0.825 8.115,-3.141 10.759,-6.943 2.651,-3.811 3.572,-7.995 2.765,-12.549 l -0.063,-0.311 z"
         id="path431" />
      <path
         inkscape:connector-curvature="0"
         style="fill:#e27c9f"
         d="m 472.34,335.974 c -1.881,-2.924 -4.187,-5.276 -6.934,-7.078 -2.659,-1.753 -5.423,-2.808 -8.29,-3.142 1.52,-0.378 3.046,-0.557 4.595,-0.514 2.221,0.059 4.338,0.539 6.346,1.446 2.011,0.9 3.769,2.15 5.295,3.768 2.419,2.575 3.879,5.609 4.381,9.113 0.484,3.427 -0.02,6.692 -1.525,9.794 0.068,-2.22 -0.218,-4.465 -0.847,-6.729 -0.648,-2.333 -1.655,-4.554 -3.021,-6.658"
         id="path433" />
      <path
         inkscape:connector-curvature="0"
         style="fill:#0077bf"
         d="m 465.406,328.896 c 2.748,1.801 5.053,4.153 6.934,7.078 1.366,2.103 2.373,4.325 3.021,6.658 0.629,2.264 0.915,4.508 0.847,6.729 -0.932,1.854 -2.104,3.465 -3.529,4.815 l -1.156,1.005 c 0.738,-2.528 0.863,-5.205 0.392,-8.039 -0.481,-2.939 -1.562,-5.724 -3.251,-8.348 -2.261,-3.524 -5.145,-6.137 -8.65,-7.828 -3.423,-1.663 -6.759,-2.11 -10.018,-1.352 2.087,-1.909 4.462,-3.195 7.122,-3.86 2.865,0.334 5.629,1.389 8.288,3.142"
         id="path435" />
      <path
         inkscape:connector-curvature="0"
         style="fill:#ffffff"
         d="m 449.994,329.614 c 3.258,-0.758 6.594,-0.311 10.019,1.352 3.505,1.69 6.389,4.304 8.649,7.828 1.689,2.624 2.77,5.409 3.251,8.347 0.474,2.834 0.347,5.512 -0.392,8.039 -1.547,1.217 -3.233,2.131 -5.082,2.752 -1.857,0.619 -3.769,0.901 -5.735,0.842 -2.224,-0.059 -4.341,-0.538 -6.329,-1.44 -2.009,-0.9 -3.775,-2.162 -5.305,-3.793 -3.157,-3.353 -4.666,-7.344 -4.538,-11.975 0.131,-4.64 1.873,-8.553 5.227,-11.74 l 0.235,-0.212 z"
         id="path437" />
      <path
         inkscape:connector-curvature="0"
         style="fill:#1c1616"
         d="m 435.392,332.47 c -1.388,0.701 -2.324,1.789 -2.808,3.253 -0.487,1.483 -0.375,2.905 0.328,4.284 0.701,1.389 1.789,2.326 3.252,2.808 1.484,0.487 2.906,0.376 4.287,-0.328 1.384,-0.692 2.317,-1.769 2.805,-3.253 0.483,-1.465 0.374,-2.896 -0.326,-4.285 -0.694,-1.384 -1.77,-2.319 -3.253,-2.807 -1.465,-0.482 -2.898,-0.373 -4.285,0.328"
         id="path439" />
      <path
         inkscape:connector-curvature="0"
         style="fill:#1c1616"
         d="m 459.858,340.534 c 0.7,1.388 0.808,2.818 0.328,4.284 -0.488,1.482 -1.424,2.56 -2.809,3.253 -1.388,0.7 -2.82,0.809 -4.284,0.326 -1.483,-0.488 -2.561,-1.421 -3.254,-2.805 -0.703,-1.381 -0.814,-2.802 -0.325,-4.287 0.48,-1.462 1.417,-2.55 2.805,-3.251 1.379,-0.705 2.803,-0.816 4.285,-0.328 1.464,0.482 2.552,1.418 3.254,2.808"
         id="path441" />
      <path
         inkscape:connector-curvature="0"
         style="fill:#fcdf00"
         d="m 450.645,369.772 c 1.34,-0.304 2.341,-0.552 2.998,-0.751 1.152,-0.364 2.016,-0.887 2.602,-1.563 1.328,-1.558 0.938,-2.979 -1.167,-4.249 -0.444,-0.28 -2.215,-1.03 -5.306,-2.222 -1.785,-0.7 -4.751,-1.584 -8.904,-2.661 -0.105,-0.023 -0.199,-0.055 -0.295,-0.075 -0.091,-0.041 -0.184,-0.071 -0.283,-0.115 -3.981,-1.598 -6.893,-2.649 -8.745,-3.145 -3.197,-0.875 -5.065,-1.325 -5.588,-1.363 -2.448,-0.226 -3.607,0.685 -3.462,2.728 0.068,0.891 0.454,1.824 1.166,2.802 0.409,0.548 1.068,1.344 1.966,2.384 0.933,1.216 2.373,3.438 4.3,6.666 1.877,2.684 3.793,4.308 5.76,4.862 1.921,0.726 4.437,0.561 7.54,-0.485 3.468,-1.455 5.944,-2.387 7.419,-2.814 v 10e-4 z"
         id="path443" />
      <path
         inkscape:connector-curvature="0"
         style="fill:none;stroke:#f2b800;stroke-width:1.57099998;stroke-miterlimit:10"
         d="m 450.645,369.772 c -1.475,0.426 -3.951,1.357 -7.419,2.812 -3.103,1.046 -5.619,1.211 -7.54,0.485 -1.967,-0.554 -3.883,-2.178 -5.76,-4.862 -1.927,-3.228 -3.367,-5.45 -4.3,-6.666 -0.898,-1.04 -1.557,-1.835 -1.966,-2.384 -0.712,-0.978 -1.098,-1.911 -1.166,-2.802 -0.145,-2.043 1.014,-2.954 3.462,-2.728 0.523,0.038 2.391,0.488 5.588,1.363 1.852,0.496 4.764,1.547 8.745,3.145 0.099,0.044 0.193,0.074 0.283,0.115 0.096,0.02 0.19,0.052 0.295,0.075 4.153,1.078 7.119,1.961 8.904,2.662 3.091,1.191 4.862,1.941 5.306,2.221 2.105,1.27 2.495,2.691 1.167,4.249 -0.586,0.676 -1.449,1.199 -2.602,1.563 -0.656,0.201 -1.657,0.449 -2.997,0.752 z"
         id="path445" />
      <path
         inkscape:connector-curvature="0"
         style="fill:#fcdf00"
         d="m 455.641,370.814 c 1.875,-0.261 3.146,-1.612 3.812,-4.041 0.646,-2.433 0.238,-4.374 -1.229,-5.819 -0.744,-0.73 -2.308,-2.134 -4.687,-4.231 -2.157,-2.022 -3.606,-3.718 -4.318,-5.099 -1.123,-2.179 -2.763,-3.702 -4.935,-4.55 -0.062,-0.022 -0.121,-0.04 -0.177,-0.058 -0.027,-0.01 -0.046,-0.016 -0.065,-0.022 l -0.003,0.01 c -2.246,-0.616 -4.466,-0.374 -6.666,0.721 -1.396,0.69 -3.568,1.194 -6.504,1.541 -3.16,0.274 -5.252,0.474 -6.283,0.621 -2.039,0.29 -3.518,1.613 -4.443,3.956 -0.907,2.346 -0.686,4.189 0.667,5.512 0.713,0.688 1.915,1.343 3.61,1.974 1.005,0.37 2.752,0.998 5.229,1.883 0.827,0.481 2.022,1.433 3.59,2.858 1.162,1.053 2.493,1.813 4.003,2.288 1.362,0.478 2.841,0.635 4.41,0.478 2.11,-0.215 3.635,-0.271 4.584,-0.165 2.522,0.757 4.301,1.291 5.33,1.587 1.738,0.5 3.09,0.687 4.075,0.556"
         id="path447" />
      <path
         inkscape:connector-curvature="0"
         style="fill:none;stroke:#f2b800;stroke-width:1.57099998;stroke-miterlimit:10"
         d="m 459.451,366.773 c 0.646,-2.433 0.239,-4.374 -1.228,-5.819 -0.743,-0.73 -2.308,-2.134 -4.688,-4.231 -2.156,-2.022 -3.606,-3.718 -4.318,-5.099 -1.123,-2.179 -2.763,-3.702 -4.934,-4.55 -0.063,-0.022 -0.122,-0.04 -0.177,-0.058 -0.028,-0.01 -0.046,-0.016 -0.065,-0.022 l -0.003,0.01 c -2.246,-0.616 -4.467,-0.374 -6.667,0.721 -1.396,0.69 -3.568,1.194 -6.504,1.541 -3.16,0.274 -5.252,0.474 -6.282,0.621 -2.039,0.29 -3.519,1.613 -4.444,3.956 -0.906,2.346 -0.686,4.189 0.667,5.512 0.713,0.689 1.915,1.343 3.611,1.974 1.004,0.37 2.752,0.998 5.229,1.883 0.826,0.481 2.021,1.433 3.589,2.858 1.163,1.053 2.494,1.813 4.004,2.288 1.362,0.478 2.84,0.635 4.41,0.478 2.109,-0.215 3.635,-0.271 4.583,-0.165 2.523,0.757 4.301,1.29 5.33,1.587 1.739,0.499 3.091,0.687 4.075,0.556 1.878,-0.26 3.147,-1.612 3.812,-4.041 z"
         id="path449" />
      <path
         inkscape:connector-curvature="0"
         style="fill:#f2b800"
         d="m 471.41,289.431 c 1.224,0.176 2.399,0.75 3.521,1.708 -1.967,-0.276 -4.264,1.047 -6.887,3.967 -0.541,0.608 -1.135,1.095 -1.772,1.455 0.121,0.038 0.242,0.078 0.362,0.128 0.808,0.308 1.477,0.631 2.02,0.964 0.303,-0.263 0.603,-0.546 0.889,-0.854 0.063,-0.062 0.125,-0.125 0.178,-0.19 2.789,-2.949 5.48,-4.369 8.076,-4.249 -2.137,-3.091 -4.268,-4.753 -6.401,-4.99 -2.135,-0.269 -4.231,0.489 -6.304,2.257 l -0.01,0.028 c -0.321,0.318 -0.617,0.624 -0.895,0.895 0.021,-0.415 0.008,-0.835 -0.025,-1.27 -0.24,-4.048 0.569,-6.977 2.435,-8.783 -3.692,-0.562 -6.36,-0.148 -8.002,1.225 -1.539,1.282 -2.419,3.142 -2.642,5.581 -0.565,-0.424 -1.195,-0.797 -1.898,-1.11 -3.659,-1.731 -5.826,-3.85 -6.504,-6.347 -2.265,2.956 -3.199,5.481 -2.786,7.59 0.091,0.475 0.233,0.926 0.411,1.356 0.506,1.169 1.347,2.221 2.532,3.149 0.879,0.155 2.49,0.54 4.816,1.16 l 0.01,-0.018 2.264,0.745 c -0.351,-0.373 -0.795,-0.756 -1.329,-1.14 -0.548,-0.376 -1.749,-1.03 -3.605,-1.961 -1.81,-0.937 -2.855,-2.253 -3.136,-3.946 -0.212,-1.208 -0.028,-2.491 0.543,-3.854 0.345,1.943 2.293,3.72 5.861,5.319 1.858,0.829 3.062,2.155 3.634,3.977 0.281,0.93 0.332,1.752 0.149,2.467 0.096,0.083 0.175,0.161 0.229,0.242 0.528,-0.664 0.872,-1.677 1.04,-3.039 0.063,-0.661 0.061,-2.028 -0.021,-4.111 -0.054,-2.034 0.591,-3.59 1.944,-4.653 0.964,-0.759 2.169,-1.22 3.64,-1.387 -1.535,1.243 -2.15,3.808 -1.836,7.718 0.17,2.031 -0.41,3.73 -1.731,5.105 -0.204,0.212 -0.424,0.409 -0.635,0.577 0.195,0.075 0.359,0.139 0.511,0.209 0.998,0.205 2.213,-0.222 3.641,-1.293 0.539,-0.413 1.541,-1.354 2.988,-2.831 1.45,-1.457 3.022,-2.055 4.725,-1.796"
         id="path451" />
      <path
         inkscape:connector-curvature="0"
         style="fill:#fcdf00"
         d="m 474.932,291.139 c -1.123,-0.958 -2.299,-1.532 -3.521,-1.708 -1.704,-0.259 -3.276,0.34 -4.728,1.796 -1.446,1.477 -2.448,2.419 -2.988,2.831 -1.428,1.071 -2.643,1.499 -3.64,1.294 -0.02,-0.005 -0.039,-0.012 -0.057,-0.018 -0.162,-0.043 -0.311,-0.093 -0.465,-0.154 -0.008,-0.013 -0.008,-0.013 -0.018,-0.015 0.012,-0.006 0.018,-0.015 0.027,-0.022 0.211,-0.169 0.431,-0.366 0.635,-0.577 1.321,-1.375 1.901,-3.075 1.732,-5.106 -0.315,-3.909 0.301,-6.475 1.835,-7.718 -1.471,0.168 -2.677,0.628 -3.64,1.388 -1.354,1.063 -1.997,2.618 -1.944,4.652 0.081,2.084 0.085,3.451 0.022,4.112 -0.169,1.362 -0.514,2.374 -1.04,3.038 -0.158,0.196 -0.337,0.364 -0.526,0.499 0.019,-0.025 0.027,-0.054 0.045,-0.078 l 0.238,-0.595 c 0,-0.03 0.006,-0.048 0.013,-0.068 0.183,-0.714 0.131,-1.536 -0.148,-2.467 -0.571,-1.822 -1.777,-3.148 -3.636,-3.977 -3.568,-1.598 -5.516,-3.376 -5.86,-5.318 -0.571,1.363 -0.755,2.646 -0.543,3.853 0.281,1.694 1.326,3.009 3.135,3.947 1.856,0.931 3.057,1.584 3.605,1.96 0.534,0.385 0.979,0.767 1.329,1.141 0.505,0.548 0.822,1.087 0.954,1.627 0.061,0.257 0.077,0.521 0.05,0.792 -0.007,0.049 -0.012,0.099 -0.019,0.148 l -0.021,0.044 c 0.055,-0.044 0.109,-0.087 0.169,-0.14 0.15,-0.146 0.293,-0.297 0.417,-0.452 l 1.092,0.132 c 0.054,-0.003 0.106,-0.007 0.161,-0.009 0.641,-0.068 1.261,-0.319 1.867,-0.772 0.6,1.408 1.822,2.12 3.664,2.147 0.227,0.002 0.456,-0.004 0.68,-0.024 0.17,-0.017 0.345,-0.041 0.52,-0.068 0.029,0 0.064,-0.009 0.096,-0.009 l 0.641,-0.161 c 0.08,-0.026 0.152,-0.053 0.234,-0.079 0.01,-0.006 0.021,-0.002 0.033,-0.009 0.248,-0.094 0.477,-0.194 0.714,-0.313 0.024,-0.013 0.05,-0.025 0.077,-0.047 0.012,-0.006 0.021,-0.004 0.035,-0.01 0.013,-0.006 0.016,-0.015 0.027,-0.021 0.013,-0.008 0.023,-0.013 0.037,-0.02 0.011,-0.006 0.037,-0.018 0.049,-0.024 0.636,-0.359 1.23,-0.847 1.771,-1.454 2.627,-2.921 4.923,-4.243 6.89,-3.968 l 0,0 z"
         id="path453" />
      <path
         inkscape:connector-curvature="0"
         style="fill:#fcdf00"
         d="m 425.247,376.886 c -0.089,0.029 -0.177,0.059 -0.265,0.089 -0.326,-0.581 -0.72,-1.132 -1.182,-1.635 -0.019,-0.01 -0.04,-0.01 -0.059,-0.019 -0.079,-0.09 -0.159,-0.189 -0.238,-0.275 v -0.435 c 0,-0.146 -0.008,-0.295 -0.028,-0.444 -0.03,-0.292 -0.069,-0.59 -0.118,-0.884 -0.247,-0.287 -0.522,-0.533 -0.826,-0.739 -0.593,-0.384 -1.251,-0.521 -1.971,-0.434 -0.345,0.098 -0.649,0.246 -0.934,0.434 -0.306,0.206 -0.582,0.452 -0.827,0.739 -0.109,0.659 -0.011,1.28 0.294,1.84 0.168,0.306 0.326,0.62 0.493,0.926 -0.266,0.738 -0.404,1.525 -0.404,2.383 0,1.252 0.167,2.423 0.503,3.525 0.147,0.146 0.305,0.266 0.481,0.354 0.128,0.06 0.266,0.12 0.394,0.179 v 0.196 c 0.187,0.187 0.345,0.394 0.462,0.601 -0.059,0.04 -0.117,0.089 -0.165,0.139 -0.306,0.373 -0.464,0.817 -0.464,1.318 0,0.502 0.158,0.946 0.464,1.329 0.146,0.147 0.313,0.256 0.481,0.345 0.315,0.156 0.64,0.286 0.983,0.384 0.258,-0.09 0.503,-0.188 0.74,-0.295 0.581,0.049 1.172,0.099 1.761,0.147 0.15,-0.099 0.296,-0.188 0.454,-0.266 0.206,-0.099 0.405,-0.198 0.612,-0.286 0.008,0.088 0.029,0.167 0.039,0.247 0.049,0.305 0.118,0.6 0.216,0.896 0.147,0.146 0.315,0.275 0.483,0.383 0.364,0.236 0.757,0.405 1.173,0.502 0.559,0.147 1.141,0.234 1.721,0.286 0.1,-0.052 0.197,-0.098 0.286,-0.168 0.109,-0.089 0.196,-0.177 0.286,-0.285 0.108,-0.139 0.217,-0.276 0.315,-0.425 0.296,-0.097 0.59,-0.206 0.876,-0.313 0.098,-0.04 0.197,-0.079 0.296,-0.128 0.088,-0.148 0.176,-0.286 0.265,-0.423 0.158,0.02 0.314,0.06 0.473,0.127 0.197,0.147 0.404,0.286 0.61,0.404 0.797,0.472 1.487,1.064 2.057,1.783 0.129,0.156 0.267,0.314 0.415,0.461 0.935,0.078 1.87,0.09 2.796,0.04 0.009,0.326 0.03,0.648 0.077,0.976 0.05,0.303 0.12,0.601 0.218,0.895 0.147,0.148 0.305,0.266 0.471,0.374 0.77,0.484 1.49,0.455 2.169,-0.078 0.147,-0.147 0.313,-0.255 0.48,-0.306 0.632,-0.196 1.272,-0.402 1.921,-0.63 v 0.048 c 0.019,0.298 0.049,0.592 0.099,0.888 0.098,0.149 0.205,0.286 0.314,0.412 0.128,0.168 0.277,0.315 0.424,0.464 0.147,0.149 0.284,0.293 0.434,0.445 0.343,0.096 0.699,0.154 1.043,0.186 0.236,0.021 0.472,0.009 0.718,-0.04 0.719,-0.532 1.311,-1.181 1.773,-1.949 -0.118,-0.314 -0.177,-0.65 -0.168,-0.995 v -0.04 c -0.758,-1.819 -0.835,-3.711 -0.226,-5.67 0.05,-0.147 0.098,-0.285 0.157,-0.414 0.128,-0.324 0.285,-0.61 0.473,-0.855 -0.089,-0.108 -0.188,-0.209 -0.296,-0.285 -0.069,-0.052 -0.137,-0.1 -0.206,-0.148 0.01,-0.217 0,-0.434 -0.03,-0.661 -0.245,-0.294 -0.522,-0.54 -0.827,-0.738 -0.6,-0.384 -1.25,-0.531 -1.968,-0.441 -0.228,0.089 -0.521,0.266 -0.877,0.513 -0.305,0.215 -0.631,0.413 -0.966,0.589 -0.127,-0.021 -0.245,-0.039 -0.363,-0.068 -0.62,-0.513 -1.27,-0.965 -1.95,-1.36 -2.688,-1.544 -5.465,-2.371 -8.33,-2.46 -0.147,0.1 -0.295,0.206 -0.423,0.314 -0.156,0.129 -0.315,0.268 -0.483,0.395 -0.089,0.07 -0.176,0.118 -0.274,0.167 -0.661,-0.385 -1.349,-0.737 -2.05,-1.043 -1.337,-0.592 -2.757,-0.975 -4.263,-1.162 0,0.044 -0.009,0.074 -0.019,0.074"
         id="path455" />
      <path
         inkscape:connector-curvature="0"
         style="fill:#fcdf00"
         d="m 438.786,392.089 c 0.089,0.146 0.205,0.275 0.336,0.384 1.201,1.016 2.401,1.111 3.601,0.296 -0.038,-0.098 -0.079,-0.197 -0.116,-0.296 -1.212,0.168 -2.473,0 -3.793,-0.522 -0.009,0.047 -0.019,0.086 -0.028,0.138"
         id="path457" />
      <path
         inkscape:connector-curvature="0"
         style="fill:#fcdf00"
         d="m 408.927,353.062 c 3.778,-0.977 7.396,-0.668 10.866,0.94 12.115,5.615 14.759,13.842 7.93,24.686 l -0.11,0.696 c -0.225,0.142 -0.448,0.293 -0.65,0.451 -2.906,2.329 -5.948,3.735 -9.123,4.205 -0.317,0.048 -0.646,0.089 -0.967,0.116 -2.942,0.259 -5.989,-0.252 -9.148,-1.555 3.159,1.303 6.206,1.813 9.148,1.555 0.321,-0.027 0.65,-0.068 0.967,-0.116 -0.009,0.405 -0.194,0.797 -0.56,1.177 -0.179,0.185 -0.332,0.405 -0.441,0.657 -0.004,0.168 0.002,0.345 -0.003,0.513 0.005,0.087 -0.003,0.167 0,0.255 -0.732,0.948 -1.286,1.967 -1.684,3.039 -0.122,0.306 -0.32,0.561 -0.594,0.76 -0.022,0.171 -0.058,0.334 -0.099,0.509 -0.016,0.089 -0.043,0.172 -0.07,0.254 -1.018,1.139 -1.851,2.396 -2.509,3.775 -0.172,0.35 -0.433,0.578 -0.789,0.698 l -0.041,0.244 c -0.689,-0.124 -1.414,-0.248 -2.195,-0.385 -0.737,-0.137 -1.532,-0.379 -2.372,-0.732 -3.947,-1.962 -7.465,-4.527 -10.574,-7.707 -3.222,-3.281 -4.487,-7.223 -3.817,-11.82 0.098,-0.723 0.214,-1.449 0.333,-2.165 0.601,-2.846 1.768,-5.993 3.48,-9.43 2.666,-5.53 7.009,-9.071 13.022,-10.62"
         id="path459" />
      <path
         inkscape:connector-curvature="0"
         style="fill:none;stroke:#f2b800;stroke-width:1.55599999;stroke-linecap:round;stroke-linejoin:round;stroke-miterlimit:10"
         d="m 416.538,396.754 c -1.362,-0.158 -3.193,-0.433 -5.488,-0.832 -0.688,-0.124 -1.413,-0.248 -2.194,-0.385 -0.737,-0.137 -1.532,-0.379 -2.373,-0.732 -3.946,-1.962 -7.464,-4.527 -10.573,-7.707 -3.223,-3.281 -4.488,-7.222 -3.817,-11.82 0.098,-0.723 0.214,-1.449 0.333,-2.165 0.601,-2.846 1.767,-5.993 3.48,-9.429 2.665,-5.531 7.008,-9.072 13.022,-10.62 3.777,-0.977 7.396,-0.669 10.866,0.94 12.115,5.614 14.758,13.842 7.93,24.686 l -0.111,0.696 c -0.224,0.142 -0.448,0.293 -0.65,0.451 -2.905,2.329 -5.947,3.733 -9.123,4.205 -0.316,0.048 -0.646,0.089 -0.966,0.116 -2.942,0.26 -5.989,-0.252 -9.149,-1.555"
         id="path461" />
      <path
         inkscape:connector-curvature="0"
         style="fill:#fcdf00"
         d="m 435.296,374.179 c -5.323,0.224 -9.068,-0.923 -11.255,-3.443 -2.193,-2.513 -2.266,-5.831 -0.223,-9.955 l 0.026,-0.571 c 1.08,-0.913 2.085,-1.721 3.024,-2.425 1.835,-1.656 3.92,-2.814 6.271,-3.487 0.095,-0.038 0.195,-0.061 0.295,-0.086 0.071,-0.015 0.146,-0.032 0.219,-0.048 l -0.313,-0.314 3.301,-3.212 1.347,-0.966 0.881,0.868 c 0.468,0.622 0.769,1.352 0.9,2.188 0.062,0.357 0.125,0.759 0.182,1.211 0.121,0.83 -0.361,2.821 -1.423,5.971 l -0.046,0.236 c -0.261,-0.06 -0.528,-0.111 -0.814,-0.162 -1.18,-0.212 -2.166,-0.292 -2.949,-0.221 l 0.073,0.254 -0.073,-0.254 c 0.783,-0.071 1.769,0.009 2.949,0.221 0.286,0.051 0.553,0.102 0.814,0.162 0.938,0.217 1.731,0.5 2.388,0.842 1.663,0.862 3.41,2.42 5.227,4.651 1.918,2.35 2.633,3.998 2.141,4.944 -0.094,0.179 -0.101,0.381 -0.031,0.601 0.073,0.213 0.066,0.414 -0.03,0.602 -0.084,0.162 -0.341,0.364 -0.775,0.615 l -0.983,0.269 c -0.138,-0.07 -0.33,-0.204 -0.561,-0.401 -0.357,-0.292 -0.819,-0.716 -1.403,-1.278 -0.974,-0.939 -1.942,-1.659 -2.906,-2.16 -0.23,-0.12 -0.53,-0.21 -0.917,-0.28 -0.234,-0.025 -0.436,-0.056 -0.586,-0.079 l -0.326,-0.061 0.326,0.061 c 0.15,0.023 0.352,0.054 0.586,0.079 0.387,0.07 0.687,0.16 0.917,0.28 0.964,0.5 1.932,1.22 2.906,2.16 0.584,0.562 1.046,0.986 1.403,1.278 l -0.061,0.036 0.239,0.265 c 0.052,0.049 0.074,0.113 0.063,0.194 -0.004,0.073 -0.037,0.177 -0.094,0.287 -0.643,1.235 -1.417,1.624 -2.322,1.152 l -1.474,-0.223 c -0.262,-0.038 -1.75,-0.173 -4.471,-0.396 -0.867,0.231 -1.677,0.437 -2.442,0.595 l 0,0 z"
         id="path463" />
      <path
         inkscape:connector-curvature="0"
         style="fill:none;stroke:#f2b800;stroke-width:1.53699994;stroke-linecap:round;stroke-linejoin:round;stroke-miterlimit:10"
         d="m 423.819,360.78 c -2.043,4.124 -1.971,7.443 0.222,9.955 2.187,2.521 5.933,3.667 11.256,3.444 0.764,-0.158 1.574,-0.364 2.442,-0.596 2.72,0.223 4.209,0.357 4.47,0.396 l 1.475,0.223 c 0.904,0.472 1.679,0.083 2.322,-1.152 0.057,-0.11 0.088,-0.214 0.093,-0.286 0.012,-0.082 -0.01,-0.146 -0.062,-0.194 l -0.239,-0.265 m -6.077,-3.895 0.325,0.061 c 0.151,0.024 0.353,0.053 0.587,0.079 0.387,0.07 0.687,0.16 0.917,0.28 0.964,0.5 1.931,1.22 2.905,2.159 0.585,0.562 1.046,0.986 1.403,1.278 0.232,0.197 0.423,0.331 0.562,0.401 0.178,0.095 0.506,0.004 0.983,-0.269 0.434,-0.251 0.69,-0.453 0.775,-0.615 0.096,-0.187 0.103,-0.389 0.03,-0.602 -0.071,-0.22 -0.063,-0.422 0.031,-0.601 0.491,-0.946 -0.223,-2.595 -2.142,-4.944 -1.817,-2.232 -3.564,-3.79 -5.226,-4.652 -0.657,-0.342 -1.451,-0.625 -2.39,-0.842 -0.26,-0.059 -0.527,-0.11 -0.813,-0.162 -1.179,-0.212 -2.166,-0.292 -2.949,-0.22 l 0.073,0.253 m 3.737,-0.104 c 1.062,-3.15 1.543,-5.142 1.423,-5.972 -0.057,-0.452 -0.121,-0.853 -0.182,-1.211 -0.131,-0.835 -0.433,-1.566 -0.901,-2.187 l -0.881,-0.868 -1.346,0.966 -3.301,3.211 0.313,0.315 c -0.073,0.016 -0.148,0.032 -0.22,0.048 -0.1,0.024 -0.199,0.048 -0.294,0.086 -2.352,0.673 -4.436,1.831 -6.271,3.487 -0.939,0.703 -1.944,1.513 -3.024,2.425"
         id="path465" />
      <path
         inkscape:connector-curvature="0"
         style="fill:#fcdf00"
         d="m 473.025,368.318 c -2.785,-2.734 -6.074,-4.275 -9.885,-4.617 -13.298,-1.197 -19.701,4.607 -19.209,17.414 l -0.251,0.658 c 0.123,0.235 0.239,0.478 0.337,0.716 1.349,3.469 3.283,6.209 5.797,8.206 0.251,0.199 0.516,0.397 0.779,0.581 2.418,1.696 5.315,2.776 8.703,3.23 -3.388,-0.454 -6.284,-1.534 -8.703,-3.23 -0.263,-0.184 -0.528,-0.382 -0.779,-0.581 -0.196,0.353 -0.23,0.785 -0.103,1.298 0.063,0.25 0.085,0.517 0.053,0.79 -0.08,0.146 -0.174,0.294 -0.255,0.441 -0.046,0.076 -0.08,0.151 -0.126,0.224 0.161,1.188 0.131,2.346 -0.062,3.476 -0.046,0.323 -0.003,0.644 0.134,0.953 -0.062,0.16 -0.116,0.316 -0.165,0.489 -0.032,0.086 -0.051,0.173 -0.069,0.259 0.312,1.494 0.406,2.997 0.286,4.521 -0.026,0.391 0.086,0.716 0.333,1.002 l -0.086,0.229 c 0.659,0.238 1.351,0.494 2.093,0.765 0.709,0.252 1.517,0.439 2.423,0.552 4.399,0.276 8.729,-0.187 13.01,-1.388 4.433,-1.231 7.498,-4.008 9.216,-8.327 0.278,-0.676 0.539,-1.363 0.795,-2.042 0.901,-2.767 1.467,-6.075 1.7,-9.908 0.458,-6.124 -1.534,-11.36 -5.966,-15.711"
         id="path467" />
      <path
         inkscape:connector-curvature="0"
         style="fill:none;stroke:#f2b800;stroke-width:1.55700004;stroke-linecap:round;stroke-linejoin:round;stroke-miterlimit:10"
         d="m 444.588,402.353 c 1.257,0.544 2.98,1.225 5.167,2.024 0.658,0.238 1.351,0.494 2.092,0.765 0.709,0.252 1.518,0.439 2.424,0.552 4.399,0.276 8.729,-0.187 13.009,-1.388 4.433,-1.231 7.498,-4.009 9.217,-8.327 0.277,-0.676 0.539,-1.363 0.796,-2.042 0.899,-2.767 1.466,-6.075 1.7,-9.908 0.457,-6.123 -1.535,-11.359 -5.967,-15.71 -2.785,-2.735 -6.073,-4.276 -9.885,-4.617 -13.299,-1.198 -19.702,4.607 -19.21,17.414 l -0.251,0.658 c 0.123,0.235 0.24,0.478 0.337,0.716 1.349,3.468 3.284,6.209 5.798,8.206 0.25,0.199 0.515,0.397 0.778,0.581 2.419,1.696 5.316,2.776 8.703,3.229"
         id="path469" />
      <path
         inkscape:connector-curvature="0"
         style="fill:#fcdf00"
         d="m 440.194,380.423 c 4.498,2.854 8.313,3.736 11.47,2.647 3.153,-1.081 4.876,-3.917 5.169,-8.512 l 0.262,-0.508 c -0.479,-1.329 -0.943,-2.531 -1.405,-3.609 -0.762,-2.352 -1.986,-4.397 -3.687,-6.158 -0.063,-0.079 -0.137,-0.149 -0.213,-0.22 -0.055,-0.05 -0.11,-0.101 -0.165,-0.152 l 0.428,-0.115 -1.255,-4.432 -0.681,-1.511 -1.197,0.312 c -0.716,0.304 -1.344,0.785 -1.872,1.444 -0.234,0.279 -0.489,0.594 -0.767,0.958 -0.519,0.66 -1.095,2.625 -1.752,5.883 l -0.076,0.229 c 0.256,0.077 0.511,0.166 0.786,0.264 1.125,0.407 2.02,0.832 2.664,1.283 l -0.191,0.185 0.191,-0.185 c -0.644,-0.451 -1.539,-0.876 -2.664,-1.283 -0.275,-0.098 -0.53,-0.187 -0.786,-0.264 -0.92,-0.282 -1.751,-0.435 -2.49,-0.469 -1.873,-0.082 -4.162,0.393 -6.852,1.417 -2.838,1.075 -4.28,2.145 -4.326,3.209 -0.01,0.202 -0.105,0.382 -0.275,0.538 -0.17,0.145 -0.264,0.324 -0.274,0.535 -0.007,0.182 0.115,0.486 0.363,0.92 l 0.718,0.725 c 0.153,0.007 0.384,-0.012 0.686,-0.065 0.456,-0.076 1.067,-0.212 1.855,-0.408 1.313,-0.326 2.511,-0.464 3.595,-0.416 0.259,0.012 0.566,0.083 0.934,0.214 0.217,0.098 0.405,0.173 0.547,0.228 l 0.312,0.111 -0.312,-0.111 c -0.142,-0.055 -0.33,-0.13 -0.547,-0.228 -0.368,-0.131 -0.675,-0.202 -0.934,-0.214 -1.084,-0.048 -2.282,0.09 -3.595,0.416 -0.788,0.196 -1.399,0.332 -1.855,0.408 l 0.035,0.059 -0.341,0.11 c -0.069,0.016 -0.118,0.062 -0.15,0.138 -0.032,0.065 -0.056,0.169 -0.062,0.295 -0.061,1.392 0.416,2.114 1.433,2.161 l 1.389,0.542 c 0.245,0.099 1.602,0.726 4.07,1.895 0.636,0.633 1.234,1.217 1.817,1.734 l 0,0 z"
         id="path471" />
      <path
         inkscape:connector-curvature="0"
         style="fill:none;stroke:#f2b800;stroke-width:1.53699994;stroke-linecap:round;stroke-linejoin:round;stroke-miterlimit:10"
         d="m 456.833,374.559 c -0.293,4.595 -2.016,7.431 -5.169,8.512 -3.156,1.089 -6.972,0.207 -11.47,-2.647 -0.582,-0.517 -1.182,-1.101 -1.817,-1.734 -2.468,-1.169 -3.825,-1.796 -4.07,-1.895 l -1.389,-0.542 c -1.017,-0.047 -1.494,-0.77 -1.433,-2.161 0.005,-0.126 0.03,-0.229 0.062,-0.295 0.032,-0.075 0.081,-0.122 0.149,-0.138 l 0.342,-0.11 m 7.208,-0.331 -0.312,-0.111 c -0.142,-0.055 -0.33,-0.13 -0.547,-0.228 -0.368,-0.131 -0.675,-0.202 -0.934,-0.214 -1.084,-0.048 -2.282,0.09 -3.595,0.416 -0.788,0.196 -1.399,0.332 -1.855,0.408 -0.302,0.054 -0.533,0.072 -0.686,0.066 -0.202,-0.01 -0.441,-0.251 -0.718,-0.726 -0.249,-0.434 -0.37,-0.738 -0.362,-0.92 0.009,-0.211 0.104,-0.391 0.273,-0.535 0.17,-0.156 0.265,-0.336 0.275,-0.538 0.046,-1.064 1.488,-2.134 4.326,-3.208 2.69,-1.025 4.979,-1.499 6.852,-1.417 0.739,0.034 1.569,0.186 2.49,0.469 0.256,0.077 0.511,0.166 0.786,0.263 1.125,0.407 2.02,0.832 2.665,1.283 l -0.192,0.186 m -3.183,-1.961 c 0.657,-3.259 1.233,-5.224 1.752,-5.884 0.278,-0.363 0.533,-0.679 0.767,-0.957 0.528,-0.659 1.156,-1.14 1.872,-1.444 l 1.197,-0.313 0.681,1.512 1.255,4.432 -0.428,0.115 c 0.055,0.051 0.11,0.101 0.165,0.151 0.076,0.072 0.149,0.142 0.213,0.221 1.7,1.76 2.925,3.806 3.687,6.156 0.462,1.079 0.927,2.282 1.405,3.61"
         id="path473" />
    </g>
  </g>
</svg>
