<?xml version="1.0" encoding="UTF-8" standalone="no"?>
<!-- Created with Inkscape (http://www.inkscape.org/) -->

<svg
   xmlns:dc="http://purl.org/dc/elements/1.1/"
   xmlns:cc="http://creativecommons.org/ns#"
   xmlns:rdf="http://www.w3.org/1999/02/22-rdf-syntax-ns#"
   xmlns:svg="http://www.w3.org/2000/svg"
   xmlns="http://www.w3.org/2000/svg"
   xmlns:xlink="http://www.w3.org/1999/xlink"
   xmlns:sodipodi="http://sodipodi.sourceforge.net/DTD/sodipodi-0.dtd"
   xmlns:inkscape="http://www.inkscape.org/namespaces/inkscape"
   width="167.40324"
   height="227.22414"
   id="svg5696"
   version="1.1"
   inkscape:version="0.48.4 r9939"
   sodipodi:docname="big_bird9.svg">
  <defs
     id="defs5698">
    <clipPath
       id="SVGID_2_">
      <use
         height="1052.3622"
         width="744.09448"
         y="0"
         x="0"
         xlink:href="#SVGID_1_"
         style="overflow:visible"
         id="use1087" />
    </clipPath>
    <clipPath
       id="SVGID_4_">
      <use
         height="1052.3622"
         width="744.09448"
         y="0"
         x="0"
         xlink:href="#SVGID_3_"
         style="overflow:visible"
         id="use1111" />
    </clipPath>
  </defs>
  <sodipodi:namedview
     id="base"
     pagecolor="#ffffff"
     bordercolor="#666666"
     borderopacity="1.0"
     inkscape:pageopacity="0.0"
     inkscape:pageshadow="2"
     inkscape:zoom="0.77472527"
     inkscape:cx="-56.584966"
     inkscape:cy="107.27786"
     inkscape:current-layer="layer1"
     inkscape:document-units="px"
     showgrid="false"
     inkscape:window-width="942"
     inkscape:window-height="591"
     inkscape:window-x="413"
     inkscape:window-y="97"
     inkscape:window-maximized="0"
     fit-margin-top="0"
     fit-margin-left="0"
     fit-margin-right="0"
     fit-margin-bottom="0" />
  <metadata
     id="metadata5701">
    <rdf:RDF>
      <cc:Work
         rdf:about="">
        <dc:format>image/svg+xml</dc:format>
        <dc:type
           rdf:resource="http://purl.org/dc/dcmitype/StillImage" />
        <dc:title></dc:title>
      </cc:Work>
    </rdf:RDF>
  </metadata>
  <g
     id="layer1"
     inkscape:label="Layer 1"
     inkscape:groupmode="layer"
     transform="translate(-288.21474,34.83993)">
    <g
       transform="translate(-66.396339,-546.96493)"
       id="g857">
      <path
         inkscape:connector-curvature="0"
         style="fill:#e86a19"
         d="m 450.134,682.618 -9.734,0.752 c 0.633,9.638 0.751,20.421 0.336,32.354 -0.1,2.769 -0.199,6.072 -0.336,9.892 -0.06,2.435 0.019,3.701 0.236,3.76 14.465,4.215 26.179,5.521 35.142,3.918 3.662,-0.672 6.551,-1.801 8.668,-3.384 1.918,-1.443 2.967,-3.126 3.146,-5.006 0.177,-1.838 -0.535,-3.581 -2.099,-5.243 -1.621,-1.721 -3.955,-3.066 -7.004,-4.036 -7.381,-2.336 -16.582,-1.938 -27.623,1.166 0.218,-0.949 0.336,-4.927 0.318,-11.949 0,-8.53 -0.358,-15.951 -1.05,-22.224"
         id="path859" />
      <path
         inkscape:connector-curvature="0"
         style="fill:none;stroke:#e02c34;stroke-width:3.08699989;stroke-miterlimit:10"
         d="m 440.399,683.37 c 0.633,9.638 0.751,20.421 0.336,32.354 -0.1,2.769 -0.198,6.072 -0.336,9.892 -0.06,2.435 0.019,3.701 0.236,3.76 14.465,4.215 26.179,5.521 35.142,3.918 3.662,-0.672 6.551,-1.801 8.667,-3.384 1.919,-1.443 2.968,-3.126 3.146,-5.006 0.179,-1.838 -0.534,-3.581 -2.098,-5.243 -1.621,-1.721 -3.955,-3.066 -7.004,-4.036 -7.381,-2.336 -16.581,-1.938 -27.623,1.166 0.22,-0.949 0.336,-4.927 0.318,-11.949 0,-8.528 -0.357,-15.95 -1.05,-22.223 l -9.734,0.751 z"
         id="path861" />
      <path
         inkscape:connector-curvature="0"
         style="fill:#e86a19"
         d="m 452.805,704.464 c -0.455,-0.496 -0.97,-0.731 -1.542,-0.711 l -10.666,0.436 c -0.573,0.017 -1.068,0.297 -1.444,0.811 -0.376,0.535 -0.575,1.146 -0.554,1.839 0.018,0.714 0.256,1.306 0.712,1.78 0.415,0.496 0.929,0.714 1.504,0.692 l 10.666,-0.435 c 0.573,-0.02 1.066,-0.275 1.444,-0.811 0.396,-0.496 0.573,-1.108 0.553,-1.821 -0.019,-0.692 -0.257,-1.286 -0.673,-1.78"
         id="path863" />
      <path
         inkscape:connector-curvature="0"
         style="fill:none;stroke:#e02c34;stroke-width:3.08699989;stroke-miterlimit:10"
         d="m 452.805,704.464 c 0.416,0.494 0.654,1.088 0.673,1.78 0.021,0.713 -0.157,1.325 -0.553,1.821 -0.378,0.535 -0.871,0.791 -1.444,0.811 l -10.666,0.435 c -0.575,0.021 -1.089,-0.196 -1.504,-0.692 -0.456,-0.475 -0.694,-1.066 -0.712,-1.78 -0.021,-0.692 0.178,-1.304 0.554,-1.839 0.376,-0.514 0.871,-0.794 1.444,-0.811 l 10.666,-0.436 c 0.572,-0.021 1.087,0.217 1.542,0.711 z"
         id="path865" />
      <path
         inkscape:connector-curvature="0"
         style="fill:#e86a19"
         d="m 452.846,695.678 c -0.457,-0.455 -0.99,-0.691 -1.583,-0.672 l -10.448,1.762 c -1.485,0.196 -2.197,0.85 -2.098,1.978 0.18,1.841 0.97,2.671 2.376,2.533 l 10.485,-1.048 c 0.595,-0.061 1.089,-0.357 1.504,-0.911 0.416,-0.574 0.616,-1.207 0.556,-1.9 -0.062,-0.693 -0.319,-1.287 -0.792,-1.742"
         id="path867" />
      <path
         inkscape:connector-curvature="0"
         style="fill:none;stroke:#e02c34;stroke-width:3.08699989;stroke-miterlimit:10"
         d="m 452.846,695.678 c 0.474,0.455 0.73,1.049 0.791,1.741 0.061,0.693 -0.14,1.326 -0.556,1.9 -0.415,0.554 -0.909,0.851 -1.504,0.911 l -10.485,1.048 c -1.406,0.138 -2.196,-0.692 -2.376,-2.533 -0.099,-1.128 0.613,-1.781 2.098,-1.978 l 10.448,-1.762 c 0.593,-0.019 1.127,0.218 1.584,0.673 z"
         id="path869" />
      <path
         inkscape:connector-curvature="0"
         style="fill:#e86a19"
         d="m 438.994,713.545 c -0.377,0.516 -0.554,1.109 -0.493,1.761 0.037,0.653 0.275,1.208 0.73,1.622 0.455,0.437 0.97,0.635 1.545,0.596 l 10.643,-0.771 c 0.575,-0.041 1.051,-0.298 1.427,-0.793 0.376,-0.493 0.553,-1.066 0.515,-1.722 -0.061,-0.651 -0.298,-1.204 -0.732,-1.642 -0.457,-0.435 -0.989,-0.633 -1.563,-0.574 l -10.625,0.732 c -0.576,0.041 -1.071,0.296 -1.447,0.791"
         id="path871" />
      <path
         inkscape:connector-curvature="0"
         style="fill:none;stroke:#e02c34;stroke-width:3.08699989;stroke-miterlimit:10"
         d="m 438.994,713.545 c 0.376,-0.495 0.871,-0.75 1.445,-0.791 l 10.625,-0.732 c 0.574,-0.059 1.106,0.14 1.563,0.574 0.435,0.438 0.672,0.99 0.732,1.642 0.038,0.655 -0.139,1.229 -0.515,1.722 -0.376,0.495 -0.852,0.752 -1.427,0.793 l -10.643,0.771 c -0.575,0.039 -1.09,-0.159 -1.545,-0.596 -0.455,-0.414 -0.693,-0.969 -0.73,-1.622 -0.059,-0.652 0.118,-1.245 0.495,-1.761 z"
         id="path873" />
      <path
         inkscape:connector-curvature="0"
         style="fill:#e86a19"
         d="m 426.073,682.736 c -0.614,6.294 -0.891,13.694 -0.831,22.222 0.059,7.026 0.198,11.021 0.435,11.953 -11.099,-3.009 -20.322,-3.306 -27.662,-0.911 -3.027,0.99 -5.342,2.354 -6.964,4.114 -1.524,1.682 -2.198,3.423 -2.019,5.265 0.178,1.881 1.226,3.54 3.186,4.985 2.115,1.563 5.006,2.652 8.707,3.284 8.962,1.504 20.676,0.079 35.1,-4.253 0.217,-0.059 0.297,-1.324 0.199,-3.76 -0.177,-3.82 -0.337,-7.124 -0.456,-9.895 -0.494,-11.971 -0.494,-22.755 0.021,-32.352 l -9.716,-0.652 z"
         id="path875" />
      <path
         inkscape:connector-curvature="0"
         style="fill:none;stroke:#e02c34;stroke-width:3.08699989;stroke-miterlimit:10"
         d="m 426.073,682.736 9.716,0.653 c -0.515,9.597 -0.515,20.381 -0.021,32.352 0.119,2.771 0.279,6.074 0.456,9.895 0.098,2.436 0.018,3.701 -0.199,3.76 -14.424,4.332 -26.138,5.757 -35.1,4.253 -3.701,-0.632 -6.592,-1.721 -8.707,-3.284 -1.96,-1.445 -3.008,-3.104 -3.186,-4.985 -0.179,-1.842 0.495,-3.583 2.019,-5.265 1.622,-1.76 3.937,-3.124 6.964,-4.114 7.34,-2.395 16.563,-2.098 27.662,0.911 -0.237,-0.932 -0.376,-4.927 -0.435,-11.953 -0.06,-8.528 0.217,-15.929 0.831,-22.223 z"
         id="path877" />
      <path
         inkscape:connector-curvature="0"
         style="fill:#e86a19"
         d="m 424.806,703.889 c -0.573,-0.018 -1.087,0.219 -1.503,0.714 -0.414,0.494 -0.653,1.089 -0.672,1.779 -0.02,0.694 0.158,1.307 0.553,1.821 0.416,0.535 0.911,0.79 1.485,0.812 l 10.664,0.317 c 0.574,0.02 1.09,-0.199 1.505,-0.693 0.416,-0.495 0.653,-1.087 0.673,-1.801 0.018,-0.692 -0.158,-1.303 -0.555,-1.82 -0.414,-0.516 -0.909,-0.792 -1.483,-0.812 l -10.667,-0.317 z"
         id="path879" />
      <path
         inkscape:connector-curvature="0"
         style="fill:none;stroke:#e02c34;stroke-width:3.08699989;stroke-miterlimit:10"
         d="m 423.303,704.603 c -0.415,0.494 -0.653,1.089 -0.672,1.779 -0.02,0.693 0.158,1.307 0.553,1.821 0.416,0.535 0.911,0.79 1.485,0.812 l 10.664,0.316 c 0.574,0.021 1.09,-0.198 1.505,-0.692 0.416,-0.495 0.653,-1.087 0.673,-1.801 0.018,-0.692 -0.158,-1.304 -0.555,-1.82 -0.414,-0.516 -0.909,-0.792 -1.484,-0.812 l -10.666,-0.316 c -0.573,-0.019 -1.087,0.217 -1.503,0.713 z"
         id="path881" />
      <path
         inkscape:connector-curvature="0"
         style="fill:#e86a19"
         d="m 424.728,694.787 c -0.613,-0.018 -1.127,0.199 -1.583,0.654 -0.435,0.475 -0.692,1.067 -0.751,1.761 -0.061,0.692 0.138,1.307 0.553,1.881 0.416,0.553 0.93,0.851 1.523,0.91 l 10.508,0.928 c 1.404,0.159 2.196,-0.69 2.334,-2.552 0.1,-1.089 -0.612,-1.741 -2.097,-1.959 l -10.487,-1.623 z"
         id="path883" />
      <path
         inkscape:connector-curvature="0"
         style="fill:none;stroke:#e02c34;stroke-width:3.08699989;stroke-miterlimit:10"
         d="m 423.145,695.441 c -0.435,0.475 -0.692,1.067 -0.751,1.761 -0.06,0.692 0.138,1.307 0.553,1.881 0.416,0.553 0.93,0.851 1.523,0.91 l 10.508,0.927 c 1.404,0.16 2.196,-0.689 2.334,-2.551 0.1,-1.089 -0.612,-1.741 -2.097,-1.959 l -10.487,-1.623 c -0.614,-0.017 -1.127,0.199 -1.583,0.654 z"
         id="path885" />
      <path
         inkscape:connector-curvature="0"
         style="fill:#e86a19"
         d="m 437.687,715.306 c 0.041,-0.651 -0.138,-1.245 -0.514,-1.741 -0.376,-0.493 -0.869,-0.752 -1.443,-0.79 l -10.667,-0.633 c -0.574,-0.04 -1.068,0.157 -1.502,0.593 -0.436,0.437 -0.673,0.988 -0.734,1.644 -0.038,0.653 0.14,1.225 0.515,1.722 0.396,0.494 0.871,0.751 1.446,0.79 l 10.664,0.652 c 0.573,0.041 1.07,-0.158 1.523,-0.594 0.416,-0.435 0.653,-0.99 0.712,-1.643"
         id="path887" />
      <path
         inkscape:connector-curvature="0"
         style="fill:none;stroke:#e02c34;stroke-width:3.08699989;stroke-miterlimit:10"
         d="m 437.173,713.564 c -0.376,-0.493 -0.87,-0.752 -1.443,-0.79 l -10.667,-0.633 c -0.574,-0.04 -1.068,0.157 -1.503,0.593 -0.435,0.437 -0.672,0.988 -0.734,1.644 -0.037,0.653 0.14,1.225 0.516,1.722 0.396,0.494 0.871,0.751 1.445,0.79 l 10.665,0.653 c 0.573,0.041 1.07,-0.159 1.522,-0.595 0.416,-0.435 0.654,-0.988 0.713,-1.643 0.041,-0.651 -0.138,-1.244 -0.514,-1.741 z"
         id="path889" />
      <path
         inkscape:connector-curvature="0"
         style="fill:#e86a19"
         d="m 450.134,682.618 -9.734,0.752 c 0.633,9.638 0.751,20.421 0.336,32.354 -0.1,2.769 -0.199,6.072 -0.336,9.892 -0.06,2.435 0.019,3.701 0.236,3.76 14.465,4.215 26.179,5.521 35.142,3.918 3.662,-0.672 6.551,-1.801 8.668,-3.384 1.918,-1.443 2.967,-3.126 3.146,-5.006 0.177,-1.838 -0.535,-3.581 -2.099,-5.243 -1.621,-1.721 -3.955,-3.066 -7.004,-4.036 -7.381,-2.336 -16.582,-1.938 -27.623,1.166 0.218,-0.949 0.336,-4.927 0.318,-11.949 0,-8.53 -0.358,-15.951 -1.05,-22.224"
         id="path891" />
      <path
         inkscape:connector-curvature="0"
         style="fill:#e02c34"
         d="m 474.887,721.619 c 1.484,0.495 2.652,1.384 3.464,2.67 0.771,1.208 1.088,2.516 0.988,3.878 -0.099,1.426 -0.651,2.593 -1.661,3.483 -1.089,1.029 -2.573,1.543 -4.434,1.543 l -0.137,0.06 c 2.235,0.396 4.114,0.081 5.598,-0.93 1.347,-0.91 2.138,-2.176 2.354,-3.798 0.239,-1.604 -0.155,-3.028 -1.187,-4.315 -1.126,-1.445 -2.79,-2.294 -4.985,-2.591"
         id="path893" />
      <path
         inkscape:connector-curvature="0"
         style="fill:#ea7da2"
         d="m 452.805,704.464 c -0.455,-0.496 -0.97,-0.731 -1.542,-0.711 l -10.666,0.436 c -0.573,0.017 -1.068,0.297 -1.444,0.811 -0.376,0.535 -0.575,1.146 -0.554,1.839 0.018,0.714 0.256,1.306 0.712,1.78 0.415,0.496 0.929,0.714 1.504,0.692 l 10.666,-0.435 c 0.573,-0.02 1.066,-0.275 1.444,-0.811 0.396,-0.496 0.573,-1.108 0.553,-1.821 -0.019,-0.692 -0.257,-1.286 -0.673,-1.78"
         id="path895" />
      <path
         inkscape:connector-curvature="0"
         style="fill:#ea7da2"
         d="m 452.846,695.678 c -0.457,-0.455 -0.99,-0.691 -1.583,-0.672 l -10.448,1.762 c -1.485,0.196 -2.197,0.85 -2.098,1.978 0.18,1.841 0.97,2.671 2.376,2.533 l 10.485,-1.048 c 0.595,-0.061 1.089,-0.357 1.504,-0.911 0.416,-0.574 0.616,-1.207 0.556,-1.9 -0.062,-0.693 -0.319,-1.287 -0.792,-1.742"
         id="path897" />
      <path
         inkscape:connector-curvature="0"
         style="fill:#ea7da2"
         d="m 438.994,713.545 c -0.377,0.516 -0.554,1.109 -0.493,1.761 0.037,0.653 0.275,1.208 0.73,1.622 0.455,0.437 0.97,0.635 1.545,0.596 l 10.643,-0.771 c 0.575,-0.041 1.051,-0.298 1.427,-0.793 0.376,-0.493 0.553,-1.066 0.515,-1.722 -0.061,-0.651 -0.298,-1.204 -0.732,-1.642 -0.457,-0.435 -0.989,-0.633 -1.563,-0.574 l -10.625,0.732 c -0.576,0.041 -1.071,0.296 -1.447,0.791"
         id="path899" />
      <path
         inkscape:connector-curvature="0"
         style="fill:#e86a19"
         d="m 426.073,682.736 c -0.614,6.294 -0.891,13.694 -0.831,22.222 0.059,7.026 0.198,11.021 0.435,11.953 -11.099,-3.009 -20.322,-3.306 -27.662,-0.911 -3.027,0.99 -5.342,2.354 -6.964,4.114 -1.524,1.682 -2.198,3.423 -2.019,5.265 0.178,1.881 1.226,3.54 3.186,4.985 2.115,1.563 5.006,2.652 8.707,3.284 8.962,1.504 20.676,0.079 35.1,-4.253 0.217,-0.059 0.297,-1.324 0.199,-3.76 -0.177,-3.82 -0.337,-7.124 -0.456,-9.895 -0.494,-11.971 -0.494,-22.755 0.021,-32.352 l -9.716,-0.652 z"
         id="path901" />
      <path
         inkscape:connector-curvature="0"
         style="fill:#ea7da2"
         d="m 424.806,703.889 c -0.573,-0.018 -1.087,0.219 -1.503,0.714 -0.414,0.494 -0.653,1.089 -0.672,1.779 -0.02,0.694 0.158,1.307 0.553,1.821 0.416,0.535 0.911,0.79 1.485,0.812 l 10.664,0.317 c 0.574,0.02 1.09,-0.199 1.505,-0.693 0.416,-0.495 0.653,-1.087 0.673,-1.801 0.018,-0.692 -0.158,-1.303 -0.555,-1.82 -0.414,-0.516 -0.909,-0.792 -1.483,-0.812 l -10.667,-0.317 z"
         id="path903" />
      <path
         inkscape:connector-curvature="0"
         style="fill:#e86a19"
         d="m 428.864,613.801 c -0.734,1.78 -1.94,5.4 -3.582,10.842 -4.255,14.069 -8.469,25.565 -12.625,34.49 -2.671,5.697 -3.759,10.922 -3.284,15.67 0.456,4.274 2.158,7.994 5.106,11.159 2.711,2.909 6.271,5.145 10.704,6.729 4.194,1.481 8.706,2.215 13.554,2.234 4.848,0 9.399,-0.753 13.693,-2.234 4.491,-1.543 8.153,-3.76 11.02,-6.629 3.108,-3.146 4.968,-6.849 5.619,-11.102 0.715,-4.689 -0.117,-9.853 -2.511,-15.492 -6.668,-15.77 -11.437,-27.109 -14.267,-34.054 -2.356,-5.759 -4.332,-10.842 -5.916,-15.217 -1.248,-3.383 -5.975,-3.76 -14.188,-1.107 -1.088,0.337 -2.195,1.921 -3.323,4.711"
         id="path905" />
      <path
         inkscape:connector-curvature="0"
         style="fill:none;stroke:#e86a19;stroke-width:3.08699989;stroke-miterlimit:10"
         d="m 425.282,624.643 c -4.255,14.069 -8.469,25.565 -12.625,34.49 -2.671,5.698 -3.759,10.922 -3.284,15.67 0.456,4.274 2.158,7.994 5.106,11.159 2.711,2.91 6.271,5.145 10.704,6.729 4.194,1.481 8.706,2.215 13.554,2.234 4.848,0 9.399,-0.753 13.693,-2.234 4.491,-1.543 8.153,-3.76 11.02,-6.629 3.108,-3.146 4.967,-6.849 5.619,-11.102 0.715,-4.689 -0.117,-9.853 -2.511,-15.492 -6.668,-15.77 -11.437,-27.109 -14.267,-34.054 -2.356,-5.759 -4.333,-10.842 -5.917,-15.217 -1.248,-3.383 -5.975,-3.76 -14.188,-1.107 -1.088,0.336 -2.195,1.92 -3.323,4.71 -0.733,1.781 -1.939,5.401 -3.581,10.843 z"
         id="path907" />
      <path
         inkscape:connector-curvature="0"
         style="fill:#e86a19"
         d="m 433.215,528.143 c -1.107,-1.562 -2.671,-2.433 -4.688,-2.63 -3.917,-0.437 -6.333,-1.504 -7.244,-3.226 -0.098,1.484 0.12,2.749 0.674,3.817 0.791,1.524 2.197,2.454 4.234,2.751 2.079,0.336 3.423,0.594 4.038,0.773 2.038,0.631 3.165,1.562 3.383,2.809 l -0.02,0.039 c 0.831,-1.365 0.713,-2.809 -0.377,-4.333"
         id="path909" />
      <path
         inkscape:connector-curvature="0"
         style="fill:none;stroke:#e86a19;stroke-width:3.08699989;stroke-miterlimit:10"
         d="m 428.528,525.513 c -3.918,-0.437 -6.333,-1.504 -7.242,-3.226 -0.1,1.484 0.117,2.749 0.672,3.817 0.791,1.524 2.196,2.454 4.235,2.751 2.077,0.336 3.422,0.594 4.036,0.773 2.038,0.631 3.166,1.562 3.384,2.809 0.81,-1.326 0.692,-2.771 -0.397,-4.295 -1.107,-1.562 -2.671,-2.432 -4.688,-2.629 z"
         id="path911" />
      <path
         inkscape:connector-curvature="0"
         style="fill:#e86a19"
         d="m 433.83,531.646 c 1.563,0.041 2.75,-0.771 3.523,-2.454 0.79,-1.722 0.79,-3.521 0,-5.382 -1.564,-3.621 -1.822,-6.252 -0.773,-7.895 -1.345,0.612 -2.354,1.442 -3.008,2.473 -0.93,1.444 -1.029,3.128 -0.296,5.047 0.733,1.998 1.186,3.282 1.325,3.877 0.456,2.097 0.198,3.542 -0.771,4.334"
         id="path913" />
      <path
         inkscape:connector-curvature="0"
         style="fill:none;stroke:#e86a19;stroke-width:3.08699989;stroke-miterlimit:10"
         d="m 437.353,529.191 c 0.79,-1.722 0.79,-3.521 0,-5.382 -1.564,-3.621 -1.822,-6.252 -0.773,-7.895 -1.345,0.612 -2.354,1.442 -3.008,2.473 -0.93,1.445 -1.029,3.128 -0.296,5.047 0.733,1.998 1.186,3.282 1.325,3.877 0.456,2.098 0.198,3.542 -0.771,4.334 1.563,0.042 2.75,-0.771 3.523,-2.454 z"
         id="path915" />
      <path
         inkscape:connector-curvature="0"
         style="fill:#e86a19"
         d="m 436.837,529.943 -0.041,-0.04 c 1.05,1.208 2.456,1.544 4.254,0.971 1.802,-0.574 3.128,-1.801 3.959,-3.66 1.564,-3.602 3.325,-5.581 5.244,-5.916 -1.365,-0.573 -2.631,-0.753 -3.838,-0.556 -1.702,0.299 -3.011,1.364 -3.918,3.207 -0.91,1.88 -1.564,3.085 -1.96,3.621 -1.225,1.761 -2.453,2.552 -3.7,2.373"
         id="path917" />
      <path
         inkscape:connector-curvature="0"
         style="fill:none;stroke:#e86a19;stroke-width:3.08699989;stroke-miterlimit:10"
         d="m 441.051,530.874 c 1.802,-0.574 3.128,-1.801 3.959,-3.661 1.564,-3.601 3.325,-5.58 5.243,-5.916 -1.364,-0.572 -2.631,-0.752 -3.838,-0.555 -1.701,0.299 -3.01,1.364 -3.918,3.207 -0.91,1.88 -1.564,3.085 -1.96,3.621 -1.226,1.761 -2.453,2.552 -3.699,2.373 1.009,1.188 2.414,1.504 4.213,0.931 z m 42.503,26.455 c -2.531,-5.383 -6.094,-10.151 -10.704,-14.287 -4.592,-4.134 -9.855,-7.341 -15.811,-9.596 -6.152,-2.335 -12.604,-3.483 -19.332,-3.442 -6.728,0.019 -13.159,1.227 -19.271,3.621 -5.918,2.314 -11.161,5.56 -15.732,9.754 -4.55,4.196 -8.072,9.004 -10.547,14.405 -2.571,5.6 -3.838,11.477 -3.818,17.59 0.079,15.335 4.986,26.891 14.702,34.628 8.646,6.905 20.341,10.309 35.101,10.25 6.926,-0.041 13.356,-1.028 19.293,-2.948 6.075,-1.979 11.318,-4.848 15.73,-8.608 9.636,-8.191 14.425,-19.45 14.365,-33.795 -0.018,-6.117 -1.343,-11.973 -3.976,-17.572 z"
         id="path919" />
      <path
         inkscape:connector-curvature="0"
         style="fill:#fedf00"
         d="m 428.864,613.801 c -0.734,1.78 -1.94,5.4 -3.582,10.842 -4.255,14.069 -8.469,25.565 -12.625,34.49 -2.671,5.697 -3.759,10.922 -3.284,15.67 0.456,4.274 2.158,7.994 5.106,11.159 2.711,2.909 6.271,5.145 10.704,6.729 4.194,1.481 8.706,2.215 13.554,2.234 4.848,0 9.399,-0.753 13.693,-2.234 4.491,-1.543 8.153,-3.76 11.02,-6.629 3.108,-3.146 4.968,-6.849 5.619,-11.102 0.715,-4.689 -0.117,-9.853 -2.511,-15.492 -6.668,-15.77 -11.437,-27.109 -14.267,-34.054 -2.356,-5.759 -4.332,-10.842 -5.916,-15.217 -1.248,-3.383 -5.975,-3.76 -14.188,-1.107 -1.088,0.337 -2.195,1.921 -3.323,4.711"
         id="path921" />
      <path
         inkscape:connector-curvature="0"
         style="fill:#fedf00"
         d="m 487.531,574.9 c -0.021,-6.116 -1.344,-11.973 -3.978,-17.571 -2.53,-5.383 -6.094,-10.151 -10.704,-14.287 -4.592,-4.134 -9.855,-7.341 -15.811,-9.596 -6.153,-2.335 -12.604,-3.483 -19.331,-3.441 -6.728,0.018 -13.159,1.226 -19.271,3.62 -5.918,2.314 -11.161,5.56 -15.732,9.755 -4.55,4.195 -8.072,9.003 -10.547,14.404 -2.571,5.6 -3.838,11.477 -3.818,17.59 0.079,15.335 4.986,26.891 14.702,34.628 8.646,6.905 20.341,10.309 35.101,10.25 6.926,-0.041 13.356,-1.028 19.292,-2.948 6.076,-1.979 11.319,-4.848 15.731,-8.608 9.637,-8.191 14.426,-19.451 14.366,-33.796"
         id="path923" />
      <path
         inkscape:connector-curvature="0"
         style="fill:#fedf00"
         d="m 433.215,528.143 c -1.107,-1.562 -2.671,-2.433 -4.688,-2.63 -3.917,-0.437 -6.333,-1.504 -7.244,-3.226 -0.098,1.484 0.12,2.749 0.674,3.817 0.791,1.524 2.197,2.454 4.234,2.751 2.079,0.336 3.423,0.594 4.038,0.773 2.038,0.631 3.165,1.562 3.383,2.809 l -0.02,0.039 c 0.831,-1.365 0.713,-2.809 -0.377,-4.333"
         id="path925" />
      <path
         inkscape:connector-curvature="0"
         style="fill:#fedf00"
         d="m 433.83,531.646 c 1.563,0.041 2.75,-0.771 3.523,-2.454 0.79,-1.722 0.79,-3.521 0,-5.382 -1.564,-3.621 -1.822,-6.252 -0.773,-7.895 -1.345,0.612 -2.354,1.442 -3.008,2.473 -0.93,1.444 -1.029,3.128 -0.296,5.047 0.733,1.998 1.186,3.282 1.325,3.877 0.456,2.097 0.198,3.542 -0.771,4.334"
         id="path927" />
      <path
         inkscape:connector-curvature="0"
         style="fill:#fedf00"
         d="m 436.837,529.943 -0.041,-0.04 c 1.05,1.208 2.456,1.544 4.254,0.971 1.802,-0.574 3.128,-1.801 3.959,-3.66 1.564,-3.602 3.325,-5.581 5.244,-5.916 -1.365,-0.573 -2.631,-0.753 -3.838,-0.556 -1.702,0.299 -3.011,1.364 -3.918,3.207 -0.91,1.88 -1.564,3.085 -1.96,3.621 -1.225,1.761 -2.453,2.552 -3.7,2.373"
         id="path929" />
      <path
         inkscape:connector-curvature="0"
         style="fill:#ea7da2"
         d="m 423.837,560.89 c 3.086,-0.851 6.055,-1.009 8.924,-0.437 -1.346,-0.85 -2.769,-1.481 -4.254,-1.918 -2.157,-0.634 -4.334,-0.832 -6.529,-0.593 -2.197,0.237 -4.275,0.889 -6.235,1.979 -3.125,1.719 -5.481,4.174 -7.044,7.38 -1.523,3.128 -2.056,6.411 -1.562,9.854 0.613,-2.158 1.583,-4.216 2.887,-6.194 1.348,-2.037 3.009,-3.839 4.968,-5.44 2.712,-2.216 5.659,-3.76 8.845,-4.631"
         id="path931" />
      <path
         inkscape:connector-curvature="0"
         style="fill:#007dc3"
         d="m 432.761,560.454 c -2.869,-0.573 -5.838,-0.415 -8.924,0.436 -3.186,0.871 -6.134,2.415 -8.845,4.632 -1.959,1.602 -3.62,3.403 -4.968,5.44 -1.305,1.979 -2.274,4.036 -2.887,6.194 0.296,2.076 0.93,3.977 1.879,5.717 l 0.793,1.306 c 0.078,-2.65 0.79,-5.263 2.116,-7.816 1.386,-2.669 3.286,-5.004 5.719,-7.003 3.265,-2.673 6.825,-4.274 10.724,-4.81 3.78,-0.534 7.122,0.061 10.012,1.803 -1.406,-2.474 -3.285,-4.434 -5.619,-5.899"
         id="path933" />
      <path
         inkscape:connector-curvature="0"
         style="fill:#ffffff"
         d="m 438.539,566.628 -0.158,-0.275 c -2.89,-1.742 -6.232,-2.337 -10.012,-1.803 -3.899,0.535 -7.459,2.137 -10.725,4.81 -2.433,1.998 -4.333,4.334 -5.718,7.003 -1.326,2.554 -2.038,5.166 -2.116,7.816 1.106,1.644 2.453,3.048 4.016,4.217 1.603,1.166 3.344,2.037 5.244,2.591 2.156,0.634 4.313,0.83 6.51,0.593 2.196,-0.237 4.292,-0.91 6.271,-1.997 4.056,-2.237 6.748,-5.581 8.052,-10.072 1.326,-4.492 0.872,-8.786 -1.364,-12.883"
         id="path935" />
      <path
         inkscape:connector-curvature="0"
         style="fill:#ea7da2"
         d="m 448.294,558.438 c -1.544,0.494 -2.948,1.166 -4.215,1.998 2.83,-0.612 5.818,-0.494 8.944,0.317 3.205,0.85 6.173,2.354 8.903,4.53 1.959,1.562 3.64,3.343 5.026,5.381 1.346,1.94 2.334,3.978 2.968,6.135 0.435,-3.442 -0.138,-6.728 -1.701,-9.834 -1.604,-3.187 -3.958,-5.599 -7.104,-7.282 -1.998,-1.047 -4.095,-1.701 -6.293,-1.917 -2.194,-0.219 -4.371,0.018 -6.528,0.672"
         id="path937" />
      <path
         inkscape:connector-curvature="0"
         style="fill:#007dc3"
         d="m 444.079,560.436 c -2.315,1.483 -4.154,3.483 -5.54,5.955 2.849,-1.762 6.194,-2.413 10.013,-1.94 3.878,0.496 7.458,2.06 10.764,4.692 2.454,1.959 4.372,4.273 5.777,6.924 1.364,2.554 2.116,5.145 2.216,7.775 0.336,-0.493 0.613,-0.93 0.793,-1.304 0.949,-1.781 1.562,-3.701 1.82,-5.739 -0.635,-2.157 -1.622,-4.194 -2.969,-6.135 -1.387,-2.038 -3.066,-3.818 -5.025,-5.381 -2.731,-2.177 -5.7,-3.681 -8.904,-4.53 -3.128,-0.812 -6.114,-0.93 -8.945,-0.317"
         id="path939" />
      <path
         inkscape:connector-curvature="0"
         style="fill:#ffffff"
         d="m 448.552,564.45 c -3.819,-0.473 -7.164,0.179 -10.013,1.94 l -0.178,0.296 c -2.157,4.118 -2.572,8.411 -1.207,12.902 1.385,4.453 4.136,7.776 8.231,9.973 1.979,1.049 4.075,1.662 6.273,1.88 2.196,0.218 4.352,0 6.51,-0.653 1.919,-0.574 3.64,-1.464 5.203,-2.671 1.563,-1.166 2.869,-2.592 3.938,-4.275 -0.099,-2.631 -0.851,-5.222 -2.216,-7.775 -1.405,-2.649 -3.323,-4.965 -5.776,-6.924 -3.307,-2.633 -6.887,-4.197 -10.765,-4.693"
         id="path941" />
      <path
         inkscape:connector-curvature="0"
         style="fill:#2a2625"
         d="m 433.552,573.693 c -1.107,-1.108 -2.454,-1.663 -4.017,-1.642 -1.564,0 -2.887,0.553 -3.976,1.681 -1.109,1.108 -1.663,2.435 -1.644,3.996 0,1.563 0.554,2.909 1.683,3.997 1.108,1.088 2.433,1.643 3.996,1.643 1.564,-0.02 2.909,-0.574 3.999,-1.682 1.086,-1.106 1.642,-2.454 1.642,-4.017 -0.02,-1.563 -0.574,-2.889 -1.683,-3.976"
         id="path943" />
      <path
         inkscape:connector-curvature="0"
         style="fill:#2a2625"
         d="m 447.443,571.951 c -1.563,0.021 -2.889,0.574 -3.977,1.683 -1.108,1.128 -1.663,2.454 -1.642,4.016 0,1.563 0.553,2.889 1.68,3.978 1.11,1.108 2.435,1.662 3.998,1.643 1.563,0 2.888,-0.555 3.998,-1.682 1.088,-1.108 1.642,-2.435 1.642,-3.997 -0.019,-1.562 -0.573,-2.89 -1.681,-3.997 -1.128,-1.089 -2.455,-1.644 -4.018,-1.644"
         id="path945" />
      <path
         inkscape:connector-curvature="0"
         style="fill:#e86a19"
         d="m 453.874,595.617 c -0.772,-0.139 -1.821,0.099 -3.186,0.73 -1.603,0.771 -2.671,1.207 -3.165,1.287 -2.197,0.355 -5.324,0.316 -9.361,-0.119 -4.311,-0.474 -7.439,-0.613 -9.358,-0.416 -1.07,0.04 -1.959,0.099 -2.651,0.158 -1.286,0.12 -2.316,0.354 -3.128,0.693 -2.392,1.05 -3.204,3.304 -2.413,6.769 0.355,1.502 1.029,2.888 2.019,4.154 0.574,0.731 1.463,1.76 2.651,3.046 1.285,1.563 3.383,4.591 6.253,9.082 2.691,3.641 5.085,5.324 7.181,5.048 1.564,-0.22 3.306,-1.525 5.224,-3.939 2.079,-3.026 3.602,-5.183 4.571,-6.47 0.378,-0.516 0.99,-1.267 1.821,-2.255 1.582,-1.901 2.711,-3.364 3.403,-4.396 1.226,-1.778 2.058,-3.44 2.493,-5.005 0.593,-2.097 0.691,-3.938 0.297,-5.52 -0.416,-1.661 -1.304,-2.61 -2.651,-2.847"
         id="path947" />
      <path
         inkscape:connector-curvature="0"
         style="fill:none;stroke:#e86a19;stroke-width:3.08699989;stroke-miterlimit:10"
         d="m 453.874,595.617 c 1.347,0.237 2.235,1.186 2.651,2.849 0.395,1.582 0.296,3.423 -0.297,5.52 -0.436,1.564 -1.268,3.227 -2.493,5.005 -0.692,1.031 -1.821,2.494 -3.403,4.396 -0.831,0.988 -1.443,1.739 -1.821,2.255 -0.969,1.287 -2.492,3.443 -4.571,6.47 -1.918,2.414 -3.66,3.72 -5.224,3.939 -2.096,0.276 -4.49,-1.407 -7.181,-5.048 -2.87,-4.491 -4.968,-7.519 -6.253,-9.082 -1.188,-1.286 -2.077,-2.314 -2.651,-3.046 -0.99,-1.267 -1.664,-2.652 -2.019,-4.154 -0.791,-3.465 0.021,-5.719 2.413,-6.769 0.812,-0.339 1.842,-0.573 3.128,-0.693 0.692,-0.06 1.581,-0.118 2.651,-0.158 1.919,-0.197 5.047,-0.058 9.358,0.416 4.037,0.436 7.164,0.475 9.361,0.119 0.494,-0.08 1.562,-0.516 3.165,-1.287 1.365,-0.633 2.414,-0.87 3.186,-0.732 z"
         id="path949" />
      <path
         inkscape:connector-curvature="0"
         style="fill:#fae207"
         d="m 453.874,595.617 c -0.772,-0.139 -1.821,0.099 -3.186,0.73 -1.603,0.771 -2.671,1.207 -3.165,1.287 -2.197,0.355 -5.324,0.316 -9.361,-0.119 -4.311,-0.474 -7.439,-0.613 -9.358,-0.416 -1.07,0.04 -1.959,0.099 -2.651,0.158 -1.286,0.12 -2.316,0.354 -3.128,0.693 -2.392,1.05 -3.204,3.304 -2.413,6.769 0.355,1.502 1.029,2.888 2.019,4.154 0.574,0.731 1.463,1.76 2.651,3.046 1.285,1.563 3.383,4.591 6.253,9.082 2.691,3.641 5.085,5.324 7.181,5.048 1.564,-0.22 3.306,-1.525 5.224,-3.939 2.079,-3.026 3.602,-5.183 4.571,-6.47 0.378,-0.516 0.99,-1.267 1.821,-2.255 1.582,-1.901 2.711,-3.364 3.403,-4.396 1.226,-1.778 2.058,-3.44 2.493,-5.005 0.593,-2.097 0.691,-3.938 0.297,-5.52 -0.416,-1.661 -1.304,-2.61 -2.651,-2.847"
         id="path951" />
      <path
         inkscape:connector-curvature="0"
         style="fill:none;stroke:#f6b814;stroke-width:0.396;stroke-miterlimit:10"
         d="m 453.874,595.617 c 1.347,0.237 2.235,1.186 2.651,2.849 0.395,1.582 0.296,3.423 -0.297,5.52 -0.436,1.564 -1.268,3.227 -2.493,5.005 -0.692,1.031 -1.821,2.494 -3.403,4.396 -0.831,0.988 -1.443,1.739 -1.821,2.255 -0.969,1.287 -2.492,3.443 -4.571,6.47 -1.918,2.414 -3.66,3.72 -5.224,3.939 -2.096,0.276 -4.49,-1.407 -7.181,-5.048 -2.87,-4.491 -4.968,-7.519 -6.253,-9.082 -1.188,-1.286 -2.077,-2.314 -2.651,-3.046 -0.99,-1.267 -1.664,-2.652 -2.019,-4.154 -0.791,-3.465 0.021,-5.719 2.413,-6.769 0.812,-0.339 1.842,-0.573 3.128,-0.693 0.692,-0.06 1.581,-0.118 2.651,-0.158 1.919,-0.197 5.047,-0.058 9.358,0.416 4.037,0.436 7.164,0.475 9.361,0.119 0.494,-0.08 1.562,-0.516 3.165,-1.287 1.365,-0.633 2.414,-0.87 3.186,-0.732 z"
         id="path953" />
      <path
         inkscape:connector-curvature="0"
         style="fill:#e02c34"
         d="m 438.143,620.844 c 1.207,0.278 3.543,-2.176 7.006,-7.38 1.779,-2.672 3.641,-5.739 5.598,-9.18 l -23.567,0.336 c 0.595,1.917 2.238,4.946 4.908,9.101 2.849,4.452 4.868,6.826 6.055,7.123"
         id="path955" />
      <path
         inkscape:connector-curvature="0"
         style="fill:#ea7da2"
         d="m 441.666,604.579 -6.472,0.731 c -0.019,0.498 0.396,2.02 1.267,4.572 0.91,2.632 1.523,3.996 1.841,4.097 0.87,0.256 1.7,-1.09 2.474,-4.037 0.691,-2.593 0.988,-4.372 0.89,-5.363"
         id="path957" />
      <path
         inkscape:connector-curvature="0"
         style="fill:#ea7da2"
         d="m 424.728,694.787 c -0.613,-0.018 -1.127,0.199 -1.583,0.654 -0.435,0.475 -0.692,1.067 -0.751,1.761 -0.061,0.692 0.138,1.307 0.553,1.881 0.416,0.553 0.93,0.851 1.523,0.91 l 10.508,0.928 c 1.404,0.159 2.196,-0.69 2.334,-2.552 0.1,-1.089 -0.612,-1.741 -2.097,-1.959 l -10.487,-1.623 z"
         id="path959" />
      <path
         inkscape:connector-curvature="0"
         style="fill:#ea7da2"
         d="m 437.687,715.306 c 0.041,-0.651 -0.138,-1.245 -0.514,-1.741 -0.376,-0.493 -0.869,-0.752 -1.443,-0.79 l -10.667,-0.633 c -0.574,-0.04 -1.068,0.157 -1.502,0.593 -0.436,0.437 -0.673,0.988 -0.734,1.644 -0.038,0.653 0.14,1.225 0.515,1.722 0.396,0.494 0.871,0.751 1.446,0.79 l 10.664,0.652 c 0.573,0.041 1.07,-0.158 1.523,-0.594 0.416,-0.435 0.653,-0.99 0.712,-1.643"
         id="path961" />
      <path
         inkscape:connector-curvature="0"
         style="fill:#e86a19"
         d="m 445.405,587.623 c -1.584,-1.683 -3.661,-2.612 -6.214,-2.771 -2.849,-0.156 -5.302,0.792 -7.361,2.83 -1.107,1.087 -3.006,2.275 -5.717,3.542 -2.929,1.287 -4.867,2.156 -5.798,2.612 -1.86,0.929 -2.85,2.67 -2.988,5.203 -0.12,2.532 0.673,4.215 2.394,5.046 0.891,0.435 2.257,0.673 4.077,0.731 1.087,0.04 2.949,0.08 5.598,0.139 0.95,0.18 2.396,0.712 4.354,1.582 1.465,0.635 2.929,0.933 4.372,0.912 1.959,-0.042 3.583,-0.396 4.909,-1.068 1.76,-0.892 2.927,-1.386 3.481,-1.524 1.367,-0.178 3.405,-0.415 6.076,-0.753 2.155,-0.314 3.701,-0.712 4.67,-1.205 1.364,-0.693 2.018,-2.079 1.979,-4.137 -0.04,-2.196 -0.97,-3.817 -2.79,-4.868 -0.041,-0.021 -1.938,-0.909 -5.699,-2.649 -2.276,-1.052 -4.057,-2.257 -5.343,-3.622"
         id="path963" />
      <path
         inkscape:connector-curvature="0"
         style="fill:none;stroke:#e86a19;stroke-width:3.08699989;stroke-miterlimit:10"
         d="m 445.405,587.623 c 1.286,1.365 3.067,2.57 5.342,3.621 3.762,1.74 5.658,2.629 5.699,2.649 1.82,1.051 2.75,2.672 2.79,4.868 0.039,2.058 -0.614,3.443 -1.979,4.137 -0.969,0.493 -2.515,0.891 -4.67,1.205 -2.67,0.338 -4.708,0.575 -6.076,0.753 -0.554,0.139 -1.721,0.633 -3.481,1.524 -1.326,0.672 -2.95,1.026 -4.909,1.068 -1.443,0.021 -2.907,-0.277 -4.372,-0.912 -1.958,-0.87 -3.404,-1.402 -4.354,-1.582 -2.649,-0.059 -4.511,-0.099 -5.598,-0.139 -1.82,-0.059 -3.186,-0.297 -4.077,-0.731 -1.721,-0.831 -2.514,-2.514 -2.394,-5.046 0.138,-2.533 1.128,-4.274 2.988,-5.203 0.931,-0.456 2.869,-1.325 5.798,-2.612 2.711,-1.267 4.61,-2.455 5.717,-3.542 2.059,-2.038 4.512,-2.986 7.361,-2.83 2.554,0.16 4.631,1.089 6.215,2.772 z"
         id="path965" />
      <path
         inkscape:connector-curvature="0"
         style="fill:#fedf00"
         d="m 445.405,587.623 c -1.584,-1.683 -3.661,-2.612 -6.214,-2.771 -2.849,-0.156 -5.302,0.792 -7.361,2.83 -1.107,1.087 -3.006,2.275 -5.717,3.542 -2.929,1.287 -4.867,2.156 -5.798,2.612 -1.86,0.929 -2.85,2.67 -2.988,5.203 -0.12,2.532 0.673,4.215 2.394,5.046 0.891,0.435 2.257,0.673 4.077,0.731 1.087,0.04 2.949,0.08 5.598,0.139 0.95,0.18 2.396,0.712 4.354,1.582 1.465,0.635 2.929,0.933 4.372,0.912 1.959,-0.042 3.583,-0.396 4.909,-1.068 1.76,-0.892 2.927,-1.386 3.481,-1.524 1.367,-0.178 3.405,-0.415 6.076,-0.753 2.155,-0.314 3.701,-0.712 4.67,-1.205 1.364,-0.693 2.018,-2.079 1.979,-4.137 -0.04,-2.196 -0.97,-3.817 -2.79,-4.868 -0.041,-0.021 -1.938,-0.909 -5.699,-2.649 -2.276,-1.052 -4.057,-2.257 -5.343,-3.622"
         id="path967" />
      <path
         inkscape:connector-curvature="0"
         style="fill:#e02c34"
         d="m 398.254,724.666 c 0.81,-1.286 1.959,-2.177 3.442,-2.692 -2.195,0.299 -3.84,1.187 -4.967,2.633 -1.008,1.287 -1.385,2.73 -1.147,4.333 0.256,1.622 1.048,2.871 2.374,3.76 1.523,1.008 3.403,1.307 5.639,0.891 l -0.121,-0.06 c -1.856,0.021 -3.361,-0.495 -4.49,-1.504 -0.988,-0.89 -1.542,-2.038 -1.681,-3.461 -0.118,-1.369 0.198,-2.672 0.951,-3.9"
         id="path969" />
      <path
         inkscape:connector-curvature="0"
         style="fill:#e86a19"
         d="m 379.613,643.105 c -2.394,-1.345 -4.175,-2.354 -5.342,-3.008 -2.056,-1.168 -3.561,-2.217 -4.491,-3.146 -1.94,-1.918 -3.028,-2.967 -3.266,-3.125 -1.484,-0.971 -2.611,-0.634 -3.383,1.05 -0.475,1.008 -0.218,2.472 0.751,4.371 0.496,0.95 1.386,2.335 2.71,4.174 -2.512,-0.235 -4.391,-0.355 -5.617,-0.355 -2.158,0.02 -3.84,0.557 -5.067,1.604 -1.206,1.425 -0.395,3.067 2.396,4.905 2.434,1.605 5.065,2.693 7.893,3.267 -1.086,-0.08 -2.532,0.455 -4.294,1.621 -1.839,1.208 -2.769,2.296 -2.81,3.267 -0.057,2.138 1.781,3.067 5.52,2.769 2.594,-0.196 5.305,-0.81 8.134,-1.839 2.554,-0.573 4.848,-1.228 6.846,-1.979 3.898,-1.483 5.898,-3.164 5.997,-5.045 0.197,-3.11 -1.802,-5.938 -5.977,-8.531 l 0,0 z"
         id="path971" />
      <path
         inkscape:connector-curvature="0"
         style="fill:#f9fcfe"
         d="m 363.131,634.875 c -0.475,1.009 -0.218,2.473 0.75,4.372 0.497,0.95 1.387,2.335 2.711,4.174 -2.512,-0.235 -4.391,-0.355 -5.617,-0.355 -2.158,0.019 -3.84,0.557 -5.067,1.604 -1.206,1.425 -0.395,3.067 2.396,4.905 2.434,1.605 5.065,2.693 7.893,3.267 -1.087,-0.08 -2.532,0.455 -4.294,1.621 -1.839,1.208 -2.769,2.296 -2.81,3.267 -0.057,2.138 1.781,3.067 5.52,2.769 2.594,-0.196 5.305,-0.809 8.134,-1.839 2.554,-0.573 4.848,-1.228 6.846,-1.979 3.898,-1.483 5.898,-3.164 5.997,-5.045 0.197,-3.107 -1.802,-5.936 -5.976,-8.528 -2.395,-1.345 -4.176,-2.354 -5.343,-3.008 -2.057,-1.168 -3.561,-2.217 -4.491,-3.146 -1.94,-1.918 -3.028,-2.967 -3.266,-3.125 -1.485,-0.974 -2.612,-0.637 -3.383,1.046"
         id="path973" />
      <path
         inkscape:connector-curvature="0"
         style="fill:none;stroke:#555656;stroke-width:1.58399999;stroke-miterlimit:10"
         d="m 363.131,634.875 c -0.475,1.009 -0.218,2.473 0.75,4.372 0.497,0.95 1.387,2.335 2.711,4.174 -2.512,-0.235 -4.391,-0.355 -5.617,-0.355 -2.158,0.019 -3.84,0.557 -5.067,1.604 -1.206,1.425 -0.395,3.067 2.396,4.905 2.434,1.605 5.065,2.693 7.893,3.267 -1.087,-0.08 -2.532,0.455 -4.294,1.621 -1.839,1.208 -2.769,2.296 -2.81,3.267 -0.057,2.138 1.781,3.067 5.52,2.769 2.594,-0.196 5.305,-0.809 8.134,-1.839 2.554,-0.573 4.848,-1.228 6.846,-1.979 3.898,-1.483 5.898,-3.164 5.997,-5.045 0.197,-3.107 -1.802,-5.936 -5.976,-8.528 -2.395,-1.345 -4.176,-2.354 -5.343,-3.008 -2.057,-1.168 -3.561,-2.217 -4.491,-3.146 -1.94,-1.918 -3.028,-2.967 -3.266,-3.125 -1.485,-0.974 -2.612,-0.637 -3.383,1.046 z"
         id="path975" />
      <path
         inkscape:connector-curvature="0"
         style="fill:#f9fcfe"
         d="m 373.817,642.809 1.187,11.693 c 0.237,2.474 1.364,4.512 3.362,6.075 2.038,1.562 4.354,2.234 6.966,1.998 l 30.571,-2.849 c 2.59,-0.258 4.729,-1.326 6.391,-3.245 1.682,-1.92 2.394,-4.116 2.137,-6.591 l -1.167,-11.692 c -0.258,-2.475 -1.386,-4.491 -3.404,-6.076 -1.999,-1.582 -4.314,-2.255 -6.907,-1.997 l -30.569,2.85 c -2.613,0.237 -4.77,1.324 -6.45,3.244 -1.643,1.919 -2.354,4.115 -2.117,6.59"
         id="path977" />
      <path
         inkscape:connector-curvature="0"
         style="fill:none;stroke:#7b7d7d;stroke-width:1.97899997;stroke-linecap:round;stroke-linejoin:round;stroke-miterlimit:10"
         d="m 373.817,642.809 c -0.238,-2.475 0.473,-4.671 2.117,-6.59 1.68,-1.92 3.837,-3.007 6.45,-3.244 l 30.569,-2.85 c 2.593,-0.258 4.908,0.415 6.907,1.997 2.018,1.585 3.146,3.602 3.404,6.076 l 1.167,11.692 c 0.257,2.475 -0.455,4.671 -2.137,6.591 -1.662,1.919 -3.801,2.987 -6.391,3.245 l -30.571,2.849 c -2.612,0.236 -4.928,-0.436 -6.966,-1.998 -1.998,-1.563 -3.125,-3.602 -3.362,-6.075 l -1.187,-11.693 z"
         id="path979" />
      <path
         inkscape:connector-curvature="0"
         style="fill:#e86a19"
         d="m 496.989,640.334 c 2.396,-1.345 4.175,-2.355 5.343,-3.006 2.059,-1.168 3.562,-2.219 4.491,-3.147 1.938,-1.92 3.026,-2.966 3.267,-3.126 1.482,-0.969 2.61,-0.634 3.381,1.049 0.476,1.009 0.22,2.474 -0.752,4.371 -0.494,0.952 -1.383,2.337 -2.709,4.176 2.512,-0.236 4.394,-0.355 5.619,-0.355 2.157,0.021 3.838,0.554 5.064,1.603 1.208,1.425 0.396,3.067 -2.393,4.908 -2.436,1.603 -5.065,2.69 -7.896,3.264 1.089,-0.077 2.534,0.456 4.294,1.623 1.841,1.208 2.771,2.295 2.81,3.266 0.06,2.136 -1.779,3.066 -5.519,2.771 -2.592,-0.199 -5.303,-0.812 -8.134,-1.842 -2.553,-0.573 -4.848,-1.227 -6.846,-1.979 -3.898,-1.483 -5.898,-3.164 -5.996,-5.045 -0.197,-3.109 1.801,-5.938 5.976,-8.531"
         id="path981" />
      <path
         inkscape:connector-curvature="0"
         style="fill:#f9fcfe"
         d="m 513.471,632.104 c 0.475,1.009 0.219,2.474 -0.751,4.371 -0.495,0.952 -1.384,2.337 -2.71,4.176 2.511,-0.236 4.395,-0.355 5.619,-0.355 2.158,0.021 3.839,0.554 5.064,1.603 1.209,1.425 0.396,3.067 -2.393,4.908 -2.436,1.603 -5.064,2.69 -7.896,3.264 1.09,-0.077 2.533,0.456 4.295,1.623 1.84,1.208 2.77,2.295 2.809,3.265 0.061,2.137 -1.78,3.067 -5.52,2.771 -2.591,-0.199 -5.302,-0.812 -8.134,-1.842 -2.551,-0.573 -4.847,-1.227 -6.845,-1.979 -3.898,-1.483 -5.898,-3.164 -5.996,-5.045 -0.197,-3.107 1.801,-5.937 5.977,-8.529 2.394,-1.345 4.174,-2.355 5.342,-3.006 2.059,-1.168 3.561,-2.219 4.492,-3.147 1.938,-1.92 3.025,-2.966 3.265,-3.126 1.483,-0.97 2.61,-0.635 3.382,1.048"
         id="path983" />
      <path
         inkscape:connector-curvature="0"
         style="fill:none;stroke:#555656;stroke-width:1.58399999;stroke-miterlimit:10"
         d="m 513.471,632.104 c 0.475,1.009 0.219,2.474 -0.751,4.371 -0.495,0.952 -1.384,2.337 -2.71,4.176 2.511,-0.236 4.395,-0.355 5.619,-0.355 2.158,0.021 3.839,0.554 5.064,1.603 1.209,1.425 0.396,3.067 -2.393,4.908 -2.436,1.603 -5.064,2.69 -7.896,3.264 1.09,-0.077 2.533,0.456 4.295,1.623 1.84,1.208 2.77,2.295 2.809,3.265 0.061,2.137 -1.78,3.067 -5.52,2.771 -2.591,-0.199 -5.302,-0.812 -8.134,-1.842 -2.551,-0.573 -4.847,-1.227 -6.845,-1.979 -3.898,-1.483 -5.898,-3.164 -5.996,-5.045 -0.197,-3.107 1.801,-5.937 5.977,-8.529 2.394,-1.345 4.174,-2.355 5.342,-3.006 2.059,-1.168 3.561,-2.219 4.492,-3.147 1.938,-1.92 3.025,-2.966 3.265,-3.126 1.483,-0.97 2.61,-0.635 3.382,1.048 z"
         id="path985" />
      <path
         inkscape:connector-curvature="0"
         style="fill:#f9fcfe"
         d="m 502.786,642.809 -1.187,11.693 c -0.236,2.474 -1.364,4.512 -3.363,6.075 -2.038,1.562 -4.354,2.234 -6.965,1.998 L 460.7,659.726 c -2.591,-0.258 -4.729,-1.326 -6.392,-3.245 -1.681,-1.92 -2.396,-4.116 -2.138,-6.591 l 1.169,-11.692 c 0.258,-2.475 1.385,-4.491 3.403,-6.076 1.999,-1.582 4.313,-2.255 6.905,-1.997 l 30.57,2.85 c 2.611,0.237 4.771,1.324 6.451,3.244 1.644,1.919 2.355,4.115 2.118,6.59"
         id="path987" />
      <path
         inkscape:connector-curvature="0"
         style="fill:none;stroke:#7b7d7d;stroke-width:1.97899997;stroke-linecap:round;stroke-linejoin:round;stroke-miterlimit:10"
         d="m 502.786,642.809 c 0.237,-2.475 -0.474,-4.671 -2.116,-6.59 -1.681,-1.92 -3.84,-3.007 -6.451,-3.244 l -30.57,-2.85 c -2.592,-0.258 -4.906,0.415 -6.905,1.997 -2.019,1.585 -3.146,3.602 -3.403,6.076 l -1.169,11.692 c -0.258,2.475 0.457,4.671 2.138,6.591 1.663,1.919 3.801,2.987 6.392,3.245 l 30.571,2.849 c 2.611,0.236 4.927,-0.436 6.965,-1.998 1.999,-1.563 3.127,-3.602 3.363,-6.075 l 1.185,-11.693 z"
         id="path989" />
      <path
         inkscape:connector-curvature="0"
         style="fill:#f9fcfe"
         d="m 470.633,633.508 c -0.514,-0.652 -1.066,-1.307 -1.643,-1.938 -0.258,-0.257 -0.494,-0.496 -0.752,-0.751 -4.629,-4.532 -10.229,-6.808 -16.777,-6.808 h -24.616 c -6.549,0 -12.149,2.275 -16.799,6.808 -0.257,0.255 -0.495,0.494 -0.732,0.751 -0.594,0.632 -1.148,1.286 -1.643,1.938 -0.612,0.772 -1.148,1.583 -1.621,2.414 -1.959,3.384 -2.95,7.184 -2.95,11.378 v 4.254 21.033 c 0,6.432 2.316,11.932 6.946,16.463 4.65,4.55 10.25,6.828 16.799,6.828 h 24.616 c 6.548,0 12.148,-2.278 16.777,-6.828 4.651,-4.531 6.967,-10.031 6.967,-16.463 V 651.554 647.3 c 0,-3.207 -0.575,-6.174 -1.723,-8.924 -0.732,-1.721 -1.681,-3.344 -2.849,-4.868"
         id="path991" />
      <path
         inkscape:connector-curvature="0"
         style="fill:none;stroke:#949595;stroke-width:1.97899997;stroke-linecap:round;stroke-linejoin:round;stroke-miterlimit:10"
         d="m 409.313,631.569 c 0.238,-0.257 0.475,-0.496 0.732,-0.751 4.651,-4.532 10.25,-6.808 16.799,-6.808 h 24.616 c 6.549,0 12.147,2.275 16.779,6.808 0.256,0.255 0.492,0.494 0.75,0.751 m 6.216,19.985 v 21.033 c 0,6.432 -2.314,11.932 -6.965,16.463 -4.632,4.55 -10.23,6.828 -16.779,6.828 h -24.616 c -6.549,0 -12.148,-2.278 -16.799,-6.828 -4.63,-4.531 -6.945,-10.031 -6.945,-16.463 v -21.033"
         id="path993" />
      <path
         inkscape:connector-curvature="0"
         style="fill:none;stroke:#4a605c;stroke-width:9.49800014;stroke-linecap:round;stroke-linejoin:round;stroke-miterlimit:10"
         d="m 427.339,662.812 c -3.641,11.576 -9.874,19.214 -18.678,22.915"
         id="path995" />
      <path
         inkscape:connector-curvature="0"
         style="fill:#a1c5be"
         d="m 422.096,662.239 c -0.159,0.079 -0.256,0.197 -0.297,0.357 -0.059,0.136 -0.059,0.294 0.021,0.452 0.078,0.139 0.196,0.238 0.356,0.297 l 8.983,3.049 c 0.139,0.059 0.296,0.039 0.455,-0.04 0.139,-0.078 0.237,-0.199 0.296,-0.336 0.059,-0.158 0.04,-0.317 -0.039,-0.455 -0.079,-0.159 -0.198,-0.259 -0.336,-0.298 l -8.983,-3.047 c -0.159,-0.06 -0.317,-0.06 -0.456,0.021"
         id="path997" />
      <path
         inkscape:connector-curvature="0"
         style="fill:#a1c5be"
         d="m 420.81,665.682 c 0.059,0.139 0.158,0.258 0.318,0.317 l 8.785,3.601 c 0.138,0.06 0.295,0.06 0.455,0 0.136,-0.059 0.256,-0.179 0.316,-0.317 0.059,-0.158 0.059,-0.317 0,-0.455 -0.06,-0.158 -0.18,-0.276 -0.316,-0.336 l -8.787,-3.601 c -0.158,-0.061 -0.315,-0.061 -0.453,0.019 -0.16,0.061 -0.259,0.16 -0.318,0.316 -0.06,0.139 -0.06,0.297 0,0.456"
         id="path999" />
      <path
         inkscape:connector-curvature="0"
         style="fill:#a1c5be"
         d="m 420.473,667.481 c -0.138,-0.059 -0.296,-0.078 -0.435,-0.021 -0.158,0.062 -0.276,0.16 -0.356,0.298 -0.079,0.138 -0.079,0.297 -0.02,0.455 0.06,0.139 0.16,0.258 0.297,0.337 l 8.51,4.155 c 0.137,0.059 0.296,0.079 0.455,0.04 0.136,-0.061 0.257,-0.179 0.336,-0.317 0.079,-0.138 0.097,-0.296 0.039,-0.434 -0.059,-0.16 -0.178,-0.279 -0.317,-0.356 l -8.509,-4.157 z"
         id="path1001" />
      <path
         inkscape:connector-curvature="0"
         style="fill:#a1c5be"
         d="m 418.356,670.152 c -0.08,0.139 -0.1,0.298 -0.06,0.456 0.04,0.157 0.14,0.278 0.277,0.355 l 8.192,4.791 c 0.139,0.076 0.299,0.097 0.456,0.059 0.158,-0.041 0.275,-0.138 0.355,-0.279 0.078,-0.138 0.1,-0.295 0.059,-0.435 -0.038,-0.177 -0.139,-0.297 -0.276,-0.377 l -8.193,-4.786 c -0.137,-0.081 -0.296,-0.1 -0.434,-0.061 -0.18,0.042 -0.295,0.141 -0.376,0.277"
         id="path1003" />
      <path
         inkscape:connector-curvature="0"
         style="fill:#a1c5be"
         d="m 417.307,672.171 c -0.158,0.021 -0.277,0.099 -0.375,0.238 -0.099,0.139 -0.14,0.276 -0.099,0.435 0.02,0.158 0.099,0.297 0.237,0.397 l 7.717,5.5 c 0.139,0.099 0.276,0.118 0.435,0.099 0.158,-0.021 0.295,-0.099 0.397,-0.237 0.097,-0.14 0.117,-0.297 0.097,-0.454 -0.038,-0.159 -0.117,-0.278 -0.237,-0.377 l -7.715,-5.502 c -0.141,-0.099 -0.299,-0.137 -0.457,-0.099"
         id="path1005" />
      <path
         inkscape:connector-curvature="0"
         style="fill:#a1c5be"
         d="m 413.251,676.781 c 0,0.16 0.06,0.297 0.159,0.437 l 6.488,6.924 c 0.12,0.118 0.258,0.18 0.417,0.18 0.158,0 0.297,-0.062 0.435,-0.158 0.119,-0.118 0.179,-0.258 0.179,-0.416 0,-0.158 -0.06,-0.297 -0.16,-0.416 l -6.489,-6.925 c -0.118,-0.139 -0.258,-0.198 -0.415,-0.198 -0.159,0 -0.296,0.06 -0.416,0.158 -0.138,0.118 -0.198,0.257 -0.198,0.414"
         id="path1007" />
      <path
         inkscape:connector-curvature="0"
         style="fill:#a1c5be"
         d="m 415.27,674.508 c -0.12,0.118 -0.179,0.257 -0.159,0.415 0.02,0.156 0.08,0.296 0.218,0.415 l 7.163,6.213 c 0.118,0.1 0.257,0.158 0.416,0.138 0.157,-0.019 0.297,-0.078 0.415,-0.197 0.098,-0.138 0.158,-0.275 0.138,-0.436 -0.019,-0.158 -0.078,-0.295 -0.197,-0.396 l -7.163,-6.212 c -0.137,-0.118 -0.278,-0.18 -0.436,-0.159 -0.158,0.021 -0.297,0.079 -0.395,0.219"
         id="path1009" />
      <path
         inkscape:connector-curvature="0"
         style="fill:#a1c5be"
         d="m 411.491,678.008 c -0.139,0.101 -0.2,0.218 -0.218,0.396 -0.021,0.159 0,0.297 0.099,0.437 l 5.658,7.598 c 0.098,0.14 0.219,0.219 0.397,0.238 0.158,0.019 0.297,-0.02 0.434,-0.119 0.139,-0.098 0.218,-0.218 0.238,-0.377 0.02,-0.177 -0.02,-0.318 -0.118,-0.453 l -5.661,-7.6 c -0.099,-0.138 -0.216,-0.198 -0.375,-0.217 -0.177,-0.021 -0.317,-10e-4 -0.454,0.097"
         id="path1011" />
      <path
         inkscape:connector-curvature="0"
         style="fill:#a1c5be"
         d="m 409.829,679.355 c -0.158,-0.042 -0.316,-0.021 -0.456,0.06 -0.138,0.079 -0.237,0.197 -0.276,0.375 -0.04,0.139 -0.02,0.297 0.059,0.435 l 4.749,8.191 c 0.078,0.14 0.196,0.238 0.376,0.278 0.138,0.038 0.298,0.019 0.435,-0.061 0.138,-0.078 0.238,-0.197 0.277,-0.355 0.039,-0.158 0.019,-0.317 -0.06,-0.455 l -4.749,-8.192 c -0.079,-0.137 -0.198,-0.236 -0.355,-0.276"
         id="path1013" />
      <path
         inkscape:connector-curvature="0"
         style="fill:#a1c5be"
         d="m 405,681.57 c -0.139,-0.079 -0.296,-0.079 -0.454,-0.02 -0.159,0.06 -0.277,0.158 -0.337,0.296 -0.08,0.14 -0.08,0.297 -0.02,0.455 l 3.166,8.944 c 0.059,0.159 0.158,0.277 0.295,0.337 0.142,0.079 0.3,0.1 0.457,0.039 0.158,-0.06 0.275,-0.178 0.337,-0.316 0.078,-0.139 0.098,-0.296 0.038,-0.456 l -3.165,-8.943 c -0.059,-0.158 -0.179,-0.276 -0.317,-0.336"
         id="path1015" />
      <path
         inkscape:connector-curvature="0"
         style="fill:#a1c5be"
         d="m 406.761,680.918 c -0.06,0.138 -0.06,0.298 0.02,0.454 l 3.877,8.666 c 0.061,0.14 0.18,0.239 0.336,0.298 0.14,0.061 0.297,0.061 0.437,0 0.139,-0.079 0.257,-0.198 0.316,-0.337 0.06,-0.158 0.06,-0.316 0,-0.456 l -3.878,-8.665 c -0.078,-0.158 -0.198,-0.257 -0.337,-0.317 -0.157,-0.06 -0.317,-0.06 -0.455,0.02 -0.138,0.059 -0.256,0.18 -0.316,0.337"
         id="path1017" />
      <path
         inkscape:connector-curvature="0"
         style="fill:none;stroke:#a1c5be;stroke-width:0.59399998;stroke-linecap:round;stroke-linejoin:round;stroke-miterlimit:10"
         d="m 406.762,680.918 c 0.059,-0.157 0.177,-0.278 0.316,-0.338 0.137,-0.079 0.297,-0.079 0.455,-0.02 0.138,0.061 0.259,0.159 0.337,0.317 l 3.877,8.665 c 0.061,0.14 0.061,0.298 0,0.456 -0.059,0.139 -0.176,0.258 -0.316,0.337 -0.14,0.06 -0.297,0.06 -0.436,0 -0.156,-0.059 -0.276,-0.158 -0.336,-0.298 l -3.877,-8.666 c -0.081,-0.155 -0.081,-0.315 -0.02,-0.453 z m 14.048,-15.236 c -0.06,-0.158 -0.06,-0.316 0,-0.456 0.059,-0.156 0.158,-0.256 0.318,-0.316 0.138,-0.079 0.295,-0.079 0.453,-0.019 l 8.786,3.601 c 0.137,0.061 0.257,0.178 0.317,0.337 0.059,0.137 0.059,0.296 0,0.454 -0.06,0.139 -0.18,0.259 -0.317,0.317 -0.159,0.06 -0.316,0.06 -0.455,0 l -8.784,-3.601 c -0.16,-0.06 -0.259,-0.179 -0.318,-0.317 z m -0.337,1.799 8.509,4.157 c 0.139,0.077 0.258,0.196 0.317,0.356 0.058,0.138 0.04,0.295 -0.039,0.434 -0.08,0.139 -0.2,0.257 -0.336,0.317 -0.16,0.039 -0.318,0.019 -0.455,-0.04 l -8.51,-4.154 c -0.137,-0.08 -0.237,-0.199 -0.297,-0.338 -0.059,-0.158 -0.059,-0.317 0.02,-0.454 0.08,-0.139 0.198,-0.236 0.356,-0.298 0.139,-0.058 0.297,-0.038 0.435,0.02 z m -2.117,2.671 c 0.08,-0.137 0.196,-0.235 0.376,-0.276 0.137,-0.039 0.297,-0.021 0.434,0.061 l 8.193,4.786 c 0.137,0.08 0.237,0.2 0.276,0.377 0.041,0.14 0.019,0.297 -0.059,0.435 -0.08,0.143 -0.197,0.238 -0.355,0.279 -0.158,0.038 -0.317,0.018 -0.456,-0.059 l -8.192,-4.791 c -0.137,-0.077 -0.237,-0.198 -0.277,-0.355 -0.039,-0.159 -0.019,-0.318 0.06,-0.457 z m -1.049,2.019 c 0.159,-0.038 0.317,0 0.457,0.099 l 7.716,5.502 c 0.119,0.099 0.198,0.218 0.237,0.377 0.02,0.157 0,0.314 -0.098,0.454 -0.101,0.139 -0.238,0.217 -0.397,0.237 -0.158,0.02 -0.296,0 -0.434,-0.099 l -7.717,-5.5 c -0.138,-0.101 -0.218,-0.239 -0.238,-0.397 -0.04,-0.158 0,-0.296 0.1,-0.435 0.097,-0.139 0.217,-0.218 0.374,-0.238 z m -4.057,4.61 c 0,-0.157 0.06,-0.296 0.199,-0.415 0.119,-0.099 0.256,-0.158 0.416,-0.158 0.157,0 0.296,0.06 0.415,0.198 l 6.488,6.925 c 0.1,0.119 0.16,0.258 0.16,0.416 0,0.158 -0.06,0.298 -0.179,0.416 -0.138,0.098 -0.277,0.158 -0.434,0.158 -0.159,0 -0.298,-0.061 -0.417,-0.18 l -6.489,-6.923 c -0.098,-0.14 -0.159,-0.277 -0.159,-0.437 z m 2.02,-2.273 c 0.098,-0.14 0.238,-0.199 0.395,-0.22 0.159,-0.021 0.299,0.041 0.436,0.159 l 7.163,6.212 c 0.119,0.102 0.179,0.238 0.197,0.396 0.021,0.16 -0.039,0.298 -0.138,0.436 -0.118,0.119 -0.258,0.179 -0.415,0.197 -0.159,0.021 -0.297,-0.038 -0.416,-0.137 l -7.163,-6.214 c -0.138,-0.119 -0.198,-0.259 -0.217,-0.415 -0.02,-0.157 0.039,-0.296 0.158,-0.414 z m -3.778,3.5 c 0.136,-0.098 0.276,-0.118 0.453,-0.098 0.159,0.019 0.277,0.079 0.376,0.217 l 5.66,7.6 c 0.099,0.136 0.138,0.276 0.119,0.453 -0.02,0.159 -0.1,0.279 -0.238,0.377 -0.138,0.1 -0.277,0.138 -0.435,0.12 -0.178,-0.021 -0.298,-0.1 -0.397,-0.239 l -5.658,-7.598 c -0.099,-0.14 -0.119,-0.277 -0.099,-0.436 0.018,-0.178 0.079,-0.296 0.219,-0.396 z m -1.663,1.347 c 0.158,0.039 0.277,0.139 0.355,0.275 l 4.749,8.192 c 0.079,0.138 0.099,0.297 0.06,0.455 -0.04,0.158 -0.139,0.277 -0.277,0.356 -0.137,0.078 -0.297,0.098 -0.435,0.06 -0.18,-0.04 -0.298,-0.139 -0.376,-0.278 l -4.749,-8.191 c -0.08,-0.138 -0.1,-0.296 -0.059,-0.435 0.039,-0.178 0.138,-0.296 0.276,-0.375 0.14,-0.08 0.298,-0.101 0.456,-0.059 z M 405,681.57 c 0.138,0.06 0.258,0.178 0.317,0.336 l 3.166,8.943 c 0.06,0.161 0.039,0.317 -0.039,0.456 -0.061,0.139 -0.179,0.257 -0.337,0.316 -0.157,0.061 -0.315,0.04 -0.456,-0.039 -0.138,-0.06 -0.237,-0.178 -0.296,-0.337 l -3.166,-8.943 c -0.059,-0.159 -0.059,-0.316 0.021,-0.456 0.059,-0.138 0.178,-0.236 0.337,-0.295 0.157,-0.06 0.315,-0.06 0.453,0.019 z m 17.096,-19.331 c 0.139,-0.081 0.297,-0.081 0.456,-0.021 l 8.983,3.047 c 0.138,0.039 0.257,0.139 0.336,0.298 0.079,0.138 0.098,0.297 0.039,0.455 -0.059,0.137 -0.157,0.258 -0.296,0.336 -0.159,0.079 -0.316,0.099 -0.455,0.04 l -8.983,-3.049 c -0.16,-0.059 -0.278,-0.158 -0.356,-0.297 -0.08,-0.158 -0.08,-0.316 -0.021,-0.452 0.041,-0.159 0.138,-0.278 0.297,-0.357 z"
         id="path1019" />
      <path
         inkscape:connector-curvature="0"
         style="fill:none;stroke:#4a605c;stroke-width:9.49800014;stroke-linecap:round;stroke-linejoin:round;stroke-miterlimit:10"
         d="m 451.184,662.812 c 3.64,11.576 9.872,19.214 18.678,22.915"
         id="path1021" />
      <path
         inkscape:connector-curvature="0"
         style="fill:#a1c5be"
         d="m 456.426,662.239 c 0.159,0.079 0.258,0.197 0.297,0.357 0.061,0.136 0.061,0.294 -0.02,0.452 -0.078,0.139 -0.197,0.238 -0.356,0.297 l -8.984,3.049 c -0.137,0.059 -0.295,0.039 -0.454,-0.04 -0.138,-0.078 -0.238,-0.199 -0.297,-0.336 -0.06,-0.158 -0.039,-0.317 0.04,-0.455 0.079,-0.159 0.197,-0.259 0.336,-0.298 l 8.983,-3.047 c 0.159,-0.06 0.318,-0.06 0.455,0.021"
         id="path1023" />
      <path
         inkscape:connector-curvature="0"
         style="fill:#a1c5be"
         d="m 457.713,665.682 c -0.061,0.139 -0.159,0.258 -0.315,0.317 l -8.788,3.601 c -0.137,0.06 -0.296,0.06 -0.454,0 -0.139,-0.059 -0.259,-0.179 -0.318,-0.317 -0.059,-0.158 -0.059,-0.317 0,-0.455 0.059,-0.158 0.179,-0.276 0.318,-0.336 l 8.786,-3.601 c 0.159,-0.061 0.315,-0.061 0.456,0.019 0.156,0.061 0.255,0.16 0.315,0.316 0.059,0.139 0.059,0.297 0,0.456"
         id="path1025" />
      <path
         inkscape:connector-curvature="0"
         style="fill:#a1c5be"
         d="m 458.049,667.481 c 0.139,-0.059 0.297,-0.078 0.437,-0.021 0.157,0.062 0.275,0.16 0.354,0.298 0.079,0.138 0.079,0.297 0.021,0.455 -0.061,0.139 -0.158,0.258 -0.296,0.337 l -8.511,4.155 c -0.137,0.059 -0.296,0.079 -0.453,0.04 -0.141,-0.061 -0.259,-0.179 -0.337,-0.317 -0.079,-0.139 -0.099,-0.296 -0.041,-0.434 0.06,-0.16 0.18,-0.279 0.317,-0.356 l 8.509,-4.157 z"
         id="path1027" />
      <path
         inkscape:connector-curvature="0"
         style="fill:#a1c5be"
         d="m 460.227,670.608 c -0.041,0.157 -0.14,0.278 -0.278,0.355 l -8.192,4.79 c -0.138,0.077 -0.296,0.098 -0.455,0.06 -0.156,-0.041 -0.276,-0.138 -0.355,-0.279 -0.079,-0.138 -0.097,-0.295 -0.059,-0.435 0.04,-0.177 0.138,-0.297 0.278,-0.377 l 8.19,-4.786 c 0.14,-0.081 0.298,-0.1 0.436,-0.061 0.178,0.041 0.297,0.14 0.376,0.276 0.078,0.14 0.098,0.299 0.059,0.457"
         id="path1029" />
      <path
         inkscape:connector-curvature="0"
         style="fill:#a1c5be"
         d="m 460.76,672.27 c 0.139,-0.099 0.295,-0.137 0.455,-0.099 0.157,0.021 0.275,0.099 0.375,0.238 0.101,0.139 0.139,0.276 0.101,0.435 -0.021,0.158 -0.101,0.297 -0.238,0.397 l -7.717,5.5 c -0.138,0.098 -0.275,0.118 -0.436,0.098 -0.158,-0.02 -0.296,-0.098 -0.396,-0.236 -0.1,-0.14 -0.118,-0.297 -0.1,-0.454 0.041,-0.159 0.12,-0.278 0.239,-0.377 l 7.717,-5.502 z"
         id="path1031" />
      <path
         inkscape:connector-curvature="0"
         style="fill:#a1c5be"
         d="m 463.253,674.508 c 0.118,0.118 0.178,0.257 0.159,0.415 -0.021,0.156 -0.08,0.296 -0.219,0.415 l -7.162,6.213 c -0.12,0.1 -0.258,0.158 -0.416,0.138 -0.157,-0.019 -0.297,-0.078 -0.415,-0.197 -0.099,-0.138 -0.159,-0.275 -0.139,-0.436 0.018,-0.158 0.078,-0.295 0.197,-0.396 l 7.162,-6.212 c 0.14,-0.118 0.278,-0.18 0.437,-0.159 0.161,0.02 0.297,0.079 0.396,0.219"
         id="path1033" />
      <path
         inkscape:connector-curvature="0"
         style="fill:#a1c5be"
         d="m 465.271,676.781 c 0,0.16 -0.061,0.297 -0.157,0.437 l -6.491,6.924 c -0.119,0.118 -0.256,0.18 -0.416,0.18 -0.158,0 -0.296,-0.062 -0.436,-0.158 -0.119,-0.118 -0.178,-0.258 -0.178,-0.416 0,-0.158 0.059,-0.297 0.157,-0.416 l 6.491,-6.925 c 0.119,-0.139 0.258,-0.198 0.416,-0.198 0.156,0 0.297,0.06 0.416,0.158 0.138,0.118 0.198,0.257 0.198,0.414"
         id="path1035" />
      <path
         inkscape:connector-curvature="0"
         style="fill:#a1c5be"
         d="m 468.694,679.355 c 0.159,-0.042 0.315,-0.021 0.455,0.06 0.138,0.079 0.235,0.197 0.276,0.375 0.041,0.139 0.021,0.297 -0.058,0.435 l -4.75,8.191 c -0.079,0.14 -0.198,0.238 -0.377,0.278 -0.138,0.038 -0.296,0.019 -0.435,-0.061 -0.139,-0.078 -0.237,-0.197 -0.277,-0.355 -0.039,-0.158 -0.02,-0.317 0.059,-0.455 l 4.75,-8.192 c 0.081,-0.137 0.199,-0.236 0.357,-0.276"
         id="path1037" />
      <path
         inkscape:connector-curvature="0"
         style="fill:#a1c5be"
         d="m 467.031,678.008 c 0.14,0.101 0.198,0.218 0.219,0.396 0.02,0.159 0,0.297 -0.098,0.437 l -5.662,7.598 c -0.099,0.14 -0.217,0.219 -0.395,0.238 -0.157,0.019 -0.295,-0.02 -0.435,-0.119 -0.14,-0.098 -0.217,-0.218 -0.238,-0.377 -0.02,-0.177 0.021,-0.318 0.12,-0.453 l 5.656,-7.6 c 0.101,-0.138 0.221,-0.198 0.377,-0.217 0.182,-0.021 0.319,-10e-4 0.456,0.097"
         id="path1039" />
      <path
         inkscape:connector-curvature="0"
         style="fill:#a1c5be"
         d="m 471.761,680.918 c 0.06,0.138 0.06,0.298 -0.021,0.454 l -3.877,8.666 c -0.06,0.14 -0.178,0.239 -0.338,0.298 -0.137,0.061 -0.296,0.061 -0.435,0 -0.138,-0.079 -0.257,-0.198 -0.318,-0.337 -0.058,-0.158 -0.058,-0.316 0,-0.456 l 3.882,-8.665 c 0.078,-0.158 0.194,-0.257 0.336,-0.317 0.158,-0.06 0.315,-0.06 0.455,0.02 0.137,0.059 0.256,0.18 0.316,0.337"
         id="path1041" />
      <path
         inkscape:connector-curvature="0"
         style="fill:#a1c5be"
         d="m 473.522,681.57 c 0.138,-0.079 0.296,-0.079 0.454,-0.02 0.159,0.06 0.279,0.158 0.337,0.296 0.08,0.14 0.08,0.297 0.021,0.455 l -3.166,8.944 c -0.061,0.159 -0.158,0.277 -0.297,0.337 -0.14,0.079 -0.297,0.1 -0.455,0.039 -0.16,-0.06 -0.278,-0.178 -0.336,-0.316 -0.08,-0.139 -0.1,-0.296 -0.039,-0.456 l 3.166,-8.943 c 0.058,-0.158 0.176,-0.276 0.315,-0.336"
         id="path1043" />
      <path
         inkscape:connector-curvature="0"
         style="fill:none;stroke:#a1c5be;stroke-width:0.59399998;stroke-linecap:round;stroke-linejoin:round;stroke-miterlimit:10"
         d="m 473.523,681.57 c -0.14,0.06 -0.259,0.178 -0.316,0.336 l -3.167,8.943 c -0.06,0.161 -0.04,0.317 0.04,0.456 0.058,0.139 0.177,0.257 0.337,0.316 0.157,0.061 0.315,0.04 0.454,-0.039 0.138,-0.06 0.236,-0.178 0.296,-0.337 l 3.167,-8.943 c 0.06,-0.159 0.06,-0.316 -0.02,-0.456 -0.059,-0.138 -0.179,-0.236 -0.338,-0.295 -0.158,-0.06 -0.316,-0.06 -0.453,0.019 z m -15.81,-15.888 c 0.06,-0.158 0.06,-0.316 0,-0.456 -0.06,-0.156 -0.159,-0.256 -0.315,-0.316 -0.14,-0.079 -0.298,-0.079 -0.456,-0.019 l -8.786,3.601 c -0.139,0.061 -0.259,0.178 -0.317,0.337 -0.059,0.137 -0.059,0.296 0,0.454 0.058,0.139 0.178,0.259 0.317,0.317 0.158,0.06 0.317,0.06 0.455,0 l 8.787,-3.601 c 0.156,-0.06 0.255,-0.179 0.315,-0.317 z m 0.336,1.799 -8.509,4.157 c -0.137,0.077 -0.257,0.196 -0.317,0.356 -0.058,0.138 -0.038,0.295 0.041,0.434 0.079,0.139 0.196,0.257 0.337,0.317 0.158,0.039 0.316,0.019 0.453,-0.04 l 8.511,-4.154 c 0.138,-0.08 0.236,-0.199 0.296,-0.338 0.059,-0.158 0.059,-0.317 -0.021,-0.454 -0.079,-0.139 -0.197,-0.236 -0.354,-0.298 -0.14,-0.058 -0.298,-0.038 -0.437,0.02 z m 2.177,3.127 c 0.039,-0.158 0.021,-0.317 -0.06,-0.456 -0.079,-0.137 -0.198,-0.235 -0.375,-0.276 -0.139,-0.039 -0.297,-0.021 -0.436,0.061 l -8.191,4.786 c -0.139,0.08 -0.238,0.2 -0.278,0.377 -0.038,0.14 -0.02,0.297 0.059,0.435 0.081,0.143 0.199,0.238 0.356,0.279 0.16,0.038 0.317,0.018 0.455,-0.059 l 8.192,-4.791 c 0.139,-0.077 0.239,-0.198 0.278,-0.356 z m 0.533,1.662 -7.716,5.502 c -0.118,0.099 -0.198,0.218 -0.238,0.377 -0.019,0.157 0,0.314 0.1,0.454 0.1,0.139 0.237,0.217 0.395,0.236 0.16,0.021 0.298,0 0.438,-0.098 l 7.715,-5.5 c 0.14,-0.101 0.22,-0.239 0.238,-0.397 0.039,-0.158 0,-0.296 -0.099,-0.435 -0.101,-0.14 -0.219,-0.218 -0.376,-0.238 -0.16,-0.038 -0.318,0 -0.457,0.099 z m 2.494,2.238 c -0.099,-0.14 -0.236,-0.199 -0.396,-0.22 -0.158,-0.021 -0.297,0.041 -0.436,0.159 l -7.163,6.212 c -0.119,0.102 -0.18,0.238 -0.197,0.396 -0.021,0.16 0.039,0.298 0.139,0.436 0.118,0.119 0.258,0.179 0.415,0.197 0.158,0.021 0.296,-0.038 0.416,-0.137 l 7.162,-6.214 c 0.139,-0.119 0.197,-0.259 0.219,-0.415 0.019,-0.157 -0.041,-0.296 -0.159,-0.414 z m 2.018,2.273 c 0,-0.157 -0.06,-0.296 -0.197,-0.415 -0.121,-0.099 -0.26,-0.158 -0.416,-0.158 -0.159,0 -0.297,0.06 -0.416,0.198 l -6.491,6.925 c -0.098,0.119 -0.158,0.258 -0.158,0.416 0,0.158 0.061,0.298 0.18,0.416 0.139,0.098 0.276,0.158 0.435,0.158 0.16,0 0.297,-0.061 0.416,-0.18 l 6.49,-6.923 c 0.098,-0.14 0.157,-0.277 0.157,-0.437 z m 3.424,2.574 c -0.158,0.039 -0.278,0.139 -0.358,0.275 l -4.749,8.192 c -0.077,0.138 -0.098,0.297 -0.059,0.455 0.041,0.158 0.139,0.277 0.276,0.356 0.14,0.078 0.298,0.098 0.437,0.06 0.178,-0.04 0.298,-0.139 0.375,-0.278 l 4.75,-8.191 c 0.08,-0.138 0.1,-0.296 0.059,-0.435 -0.04,-0.178 -0.139,-0.296 -0.277,-0.375 -0.138,-0.08 -0.295,-0.101 -0.454,-0.059 z m -1.664,-1.347 c -0.138,-0.098 -0.274,-0.118 -0.455,-0.098 -0.156,0.019 -0.276,0.079 -0.377,0.217 l -5.656,7.6 c -0.099,0.136 -0.14,0.276 -0.12,0.453 0.021,0.159 0.1,0.279 0.238,0.377 0.14,0.1 0.278,0.138 0.435,0.12 0.178,-0.021 0.296,-0.1 0.395,-0.239 l 5.662,-7.598 c 0.098,-0.14 0.117,-0.277 0.098,-0.436 -0.021,-0.178 -0.08,-0.296 -0.22,-0.396 z m 4.73,2.91 c -0.06,-0.157 -0.178,-0.278 -0.315,-0.338 -0.14,-0.079 -0.297,-0.079 -0.455,-0.02 -0.142,0.061 -0.258,0.159 -0.336,0.317 l -3.881,8.665 c -0.059,0.14 -0.059,0.298 0,0.456 0.061,0.139 0.18,0.258 0.317,0.337 0.14,0.06 0.298,0.06 0.435,0 0.16,-0.059 0.278,-0.158 0.338,-0.298 l 3.877,-8.666 c 0.079,-0.155 0.079,-0.315 0.02,-0.453 z m -15.335,-18.679 c -0.137,-0.081 -0.296,-0.081 -0.455,-0.021 l -8.983,3.047 c -0.139,0.039 -0.257,0.139 -0.336,0.298 -0.079,0.138 -0.1,0.297 -0.04,0.455 0.059,0.137 0.159,0.258 0.297,0.336 0.159,0.079 0.317,0.099 0.454,0.04 l 8.984,-3.049 c 0.159,-0.059 0.278,-0.158 0.356,-0.297 0.08,-0.158 0.08,-0.316 0.02,-0.452 -0.039,-0.159 -0.138,-0.278 -0.297,-0.357 z"
         id="path1045" />
      <path
         inkscape:connector-curvature="0"
         style="fill:#787c7a"
         d="m 456.011,643.777 c 0,-3.166 -1.582,-4.749 -4.747,-4.749 h -24.2 c -3.168,0 -4.75,1.583 -4.75,4.749 v 18.281 c 0,3.167 1.582,4.751 4.75,4.751 h 24.2 c 3.165,0 4.747,-1.584 4.747,-4.751 v -18.281 z m -8.885,-1.385 h 3.265 c 0.811,0 1.227,0.396 1.227,1.208 v 2.374 c 0,0.812 -0.416,1.208 -1.227,1.208 h -3.265 c -0.812,0 -1.227,-0.396 -1.227,-1.208 V 643.6 c 0,-0.812 0.415,-1.208 1.227,-1.208 m -11.337,-0.415 c 1.048,0 1.582,0.535 1.582,1.584 v 6.29 c 0,1.051 -0.534,1.583 -1.582,1.583 h -8.073 c -1.05,0 -1.584,-0.532 -1.584,-1.583 v -6.29 c 0,-1.049 0.534,-1.584 1.584,-1.584 h 8.073 z m 4.312,7.973 c -0.436,-0.415 -0.652,-0.891 -0.652,-1.462 0,-0.575 0.216,-1.05 0.652,-1.466 0.436,-0.416 0.95,-0.613 1.565,-0.613 0.613,0 1.126,0.197 1.562,0.613 0.436,0.416 0.654,0.891 0.654,1.466 0,0.571 -0.218,1.047 -0.654,1.462 -0.436,0.417 -0.949,0.612 -1.562,0.612 -0.615,0 -1.129,-0.195 -1.565,-0.612 m -8.33,11.023 c 0,-0.634 0.218,-1.167 0.653,-1.604 0.437,-0.455 0.97,-0.672 1.603,-0.672 0.634,0 1.167,0.217 1.604,0.672 0.435,0.437 0.653,0.97 0.653,1.604 0,0.613 -0.218,1.146 -0.653,1.603 -0.437,0.437 -0.97,0.652 -1.604,0.652 -0.633,0 -1.166,-0.216 -1.603,-0.652 -0.435,-0.457 -0.653,-0.99 -0.653,-1.603 m 8.787,2.255 c -0.634,0 -1.168,-0.216 -1.604,-0.652 -0.437,-0.456 -0.652,-0.989 -0.652,-1.603 0,-0.634 0.215,-1.167 0.652,-1.604 0.436,-0.455 0.97,-0.672 1.604,-0.672 0.633,0 1.167,0.217 1.602,0.672 0.436,0.437 0.652,0.97 0.652,1.604 0,0.613 -0.216,1.146 -0.652,1.603 -0.435,0.436 -0.969,0.652 -1.602,0.652 m 5.341,-11.318 c 0,-0.812 0.415,-1.208 1.227,-1.208 h 3.265 c 0.811,0 1.227,0.396 1.227,1.208 v 2.374 c 0,0.811 -0.416,1.206 -1.227,1.206 h -3.265 c -0.812,0 -1.227,-0.396 -1.227,-1.206 v -2.374 z m 0,10.687 v -2.375 c 0,-0.812 0.415,-1.208 1.227,-1.208 h 3.265 c 0.811,0 1.227,0.396 1.227,1.208 v 2.375 c 0,0.808 -0.416,1.205 -1.227,1.205 h -3.265 c -0.812,0 -1.227,-0.398 -1.227,-1.205 m -16.798,-0.022 c -0.436,0.437 -0.971,0.652 -1.605,0.652 -0.631,0 -1.165,-0.216 -1.601,-0.652 -0.436,-0.456 -0.653,-0.989 -0.653,-1.603 0,-0.634 0.217,-1.167 0.653,-1.604 0.436,-0.455 0.97,-0.672 1.601,-0.672 0.634,0 1.169,0.217 1.605,0.672 0.435,0.437 0.653,0.97 0.653,1.604 0,0.614 -0.218,1.147 -0.653,1.603 m -3.522,-6.292 h 15.809 -15.809 z m 0,-2.217 h 15.809 -15.809 z"
         id="path1047" />
      <path
         inkscape:connector-curvature="0"
         style="fill:#e61311"
         d="m 450.391,642.392 h -3.264 c -0.812,0 -1.227,0.396 -1.227,1.208 v 2.374 c 0,0.812 0.415,1.208 1.227,1.208 h 3.264 c 0.812,0 1.229,-0.396 1.229,-1.208 V 643.6 c -10e-4,-0.812 -0.418,-1.208 -1.229,-1.208"
         id="path1049" />
      <path
         inkscape:connector-curvature="0"
         style="fill:#79c8c2"
         d="m 437.371,643.561 c 0,-1.049 -0.533,-1.584 -1.582,-1.584 h -8.073 c -1.049,0 -1.583,0.535 -1.583,1.584 v 6.29 c 0,1.051 0.534,1.583 1.583,1.583 h 8.073 c 1.049,0 1.582,-0.532 1.582,-1.583 v -6.29 z"
         id="path1051" />
      <path
         inkscape:connector-curvature="0"
         style="fill:#5bb531"
         d="m 439.449,648.488 c 0,0.571 0.216,1.047 0.652,1.462 0.436,0.417 0.95,0.612 1.565,0.612 0.613,0 1.126,-0.195 1.562,-0.612 0.436,-0.415 0.654,-0.891 0.654,-1.462 0,-0.575 -0.218,-1.05 -0.654,-1.466 -0.436,-0.416 -0.949,-0.613 -1.562,-0.613 -0.615,0 -1.129,0.197 -1.565,0.613 -0.436,0.416 -0.652,0.891 -0.652,1.466"
         id="path1053" />
      <path
         inkscape:connector-curvature="0"
         style="fill:#e61311"
         d="m 432.424,659.369 c -0.436,0.437 -0.653,0.97 -0.653,1.604 0,0.613 0.217,1.146 0.653,1.603 0.437,0.437 0.97,0.652 1.603,0.652 0.634,0 1.167,-0.216 1.604,-0.652 0.435,-0.456 0.653,-0.989 0.653,-1.603 0,-0.634 -0.218,-1.167 -0.653,-1.604 -0.437,-0.455 -0.97,-0.672 -1.604,-0.672 -0.632,0 -1.166,0.217 -1.603,0.672"
         id="path1055" />
      <path
         inkscape:connector-curvature="0"
         style="fill:#f4ea00"
         d="m 438.954,662.575 c 0.436,0.437 0.97,0.652 1.604,0.652 0.633,0 1.167,-0.216 1.602,-0.652 0.436,-0.456 0.652,-0.989 0.652,-1.603 0,-0.634 -0.216,-1.167 -0.652,-1.604 -0.435,-0.455 -0.969,-0.672 -1.602,-0.672 -0.634,0 -1.168,0.217 -1.604,0.672 -0.437,0.437 -0.652,0.97 -0.652,1.604 0,0.614 0.215,1.147 0.652,1.603"
         id="path1057" />
      <path
         inkscape:connector-curvature="0"
         style="fill:#e61311"
         d="m 447.126,650.702 c -0.812,0 -1.227,0.396 -1.227,1.208 v 2.374 c 0,0.811 0.415,1.206 1.227,1.206 h 3.264 c 0.812,0 1.229,-0.396 1.229,-1.206 v -2.374 c 0,-0.812 -0.417,-1.208 -1.229,-1.208 h -3.264 z"
         id="path1059" />
      <path
         inkscape:connector-curvature="0"
         style="fill:#e61311"
         d="m 445.899,660.222 v 2.375 c 0,0.808 0.415,1.205 1.227,1.205 h 3.264 c 0.811,0 1.228,-0.397 1.228,-1.205 v -2.375 c 0,-0.812 -0.417,-1.208 -1.228,-1.208 h -3.264 c -0.812,0 -1.227,0.395 -1.227,1.208"
         id="path1061" />
      <path
         inkscape:connector-curvature="0"
         style="fill:#5bb531"
         d="m 427.497,663.228 c 0.633,0 1.168,-0.216 1.604,-0.652 0.435,-0.456 0.653,-0.989 0.653,-1.603 0,-0.634 -0.218,-1.167 -0.653,-1.604 -0.436,-0.455 -0.971,-0.672 -1.604,-0.672 -0.631,0 -1.166,0.217 -1.602,0.672 -0.435,0.437 -0.652,0.97 -0.652,1.604 0,0.613 0.217,1.146 0.652,1.603 0.436,0.436 0.971,0.652 1.602,0.652"
         id="path1063" />
      <path
         inkscape:connector-curvature="0"
         style="fill:none;stroke:#242323;stroke-width:1.18700004;stroke-linecap:round;stroke-linejoin:round;stroke-miterlimit:10"
         d="m 431.771,660.973 c 0,0.613 0.217,1.146 0.653,1.603 0.436,0.437 0.97,0.652 1.602,0.652 0.634,0 1.168,-0.216 1.604,-0.652 0.435,-0.456 0.653,-0.989 0.653,-1.603 0,-0.634 -0.218,-1.167 -0.653,-1.604 -0.436,-0.455 -0.97,-0.672 -1.604,-0.672 -0.632,0 -1.166,0.217 -1.602,0.672 -0.435,0.437 -0.653,0.97 -0.653,1.604 z m 8.787,2.255 c 0.633,0 1.167,-0.216 1.602,-0.652 0.436,-0.456 0.652,-0.989 0.652,-1.603 0,-0.634 -0.216,-1.167 -0.652,-1.604 -0.435,-0.455 -0.969,-0.672 -1.602,-0.672 -0.633,0 -1.168,0.217 -1.604,0.672 -0.436,0.437 -0.651,0.97 -0.651,1.604 0,0.613 0.215,1.146 0.651,1.603 0.436,0.436 0.971,0.652 1.604,0.652 z m -11.457,-0.653 c 0.435,-0.456 0.653,-0.989 0.653,-1.603 0,-0.634 -0.218,-1.167 -0.653,-1.604 -0.436,-0.455 -0.971,-0.672 -1.604,-0.672 -0.631,0 -1.166,0.217 -1.602,0.672 -0.435,0.437 -0.653,0.97 -0.653,1.604 0,0.613 0.218,1.146 0.653,1.603 0.436,0.437 0.971,0.652 1.602,0.652 0.633,10e-4 1.168,-0.215 1.604,-0.652 z m 12.287,-6.292 h -15.809 m 15.809,-2.217 h -15.809"
         id="path1065" />
      <path
         inkscape:connector-curvature="0"
         style="fill:none;stroke:#242323;stroke-width:1.97899997;stroke-linecap:round;stroke-linejoin:round;stroke-miterlimit:10"
         d="m 447.126,650.702 h 3.264 c 0.811,0 1.228,0.396 1.228,1.208 v 2.374 c 0,0.811 -0.417,1.206 -1.228,1.206 h -3.264 c -0.812,0 -1.227,-0.396 -1.227,-1.206 v -2.374 c 0,-0.811 0.415,-1.208 1.227,-1.208 z m 3.265,-8.31 c 0.811,0 1.228,0.396 1.228,1.208 v 2.374 c 0,0.812 -0.417,1.208 -1.228,1.208 h -3.264 c -0.812,0 -1.227,-0.396 -1.227,-1.208 V 643.6 c 0,-0.812 0.415,-1.208 1.227,-1.208 h 3.264 z m -13.02,1.169 v 6.29 c 0,1.051 -0.533,1.583 -1.581,1.583 h -8.074 c -1.049,0 -1.583,-0.532 -1.583,-1.583 v -6.29 c 0,-1.049 0.534,-1.584 1.583,-1.584 h 8.074 c 1.047,0 1.581,0.535 1.581,1.584 z m 18.639,0.216 v 18.281 c 0,3.167 -1.582,4.751 -4.747,4.751 h -24.198 c -3.168,0 -4.75,-1.584 -4.75,-4.751 v -18.281 c 0,-3.166 1.582,-4.749 4.75,-4.749 h 24.198 c 3.165,0 4.747,1.583 4.747,4.749 z m -10.111,16.445 c 0,-0.812 0.415,-1.208 1.227,-1.208 h 3.264 c 0.811,0 1.228,0.396 1.228,1.208 v 2.375 c 0,0.808 -0.417,1.205 -1.228,1.205 h -3.264 c -0.812,0 -1.227,-0.397 -1.227,-1.205 v -2.375 z"
         id="path1067" />
      <path
         inkscape:connector-curvature="0"
         style="fill:#f4ea00"
         d="m 440.715,642.927 c -0.257,0.258 -0.375,0.535 -0.375,0.871 0,0.336 0.118,0.632 0.375,0.892 0.258,0.235 0.575,0.354 0.951,0.354 0.356,0 0.673,-0.119 0.93,-0.354 0.257,-0.26 0.394,-0.556 0.394,-0.892 0,-0.336 -0.137,-0.613 -0.394,-0.871 -0.257,-0.258 -0.574,-0.376 -0.93,-0.376 -0.376,0 -0.693,0.118 -0.951,0.376"
         id="path1069" />
      <path
         inkscape:connector-curvature="0"
         style="fill:#e61311"
         d="m 499.779,557.901 c 0,-0.87 -0.316,-1.622 -0.932,-2.234 -0.611,-0.613 -1.363,-0.931 -2.234,-0.931 h -1.959 c -0.871,0 -1.621,0.317 -2.235,0.931 -0.613,0.612 -0.931,1.364 -0.931,2.234 v 10.548 c 0,0.87 0.317,1.622 0.931,2.235 0.614,0.615 1.364,0.93 2.235,0.93 h 1.959 c 0.871,0 1.623,-0.314 2.234,-0.93 0.615,-0.613 0.932,-1.365 0.932,-2.235 v -10.548 z"
         id="path1071" />
      <path
         inkscape:connector-curvature="0"
         style="fill:none;stroke:#7a1c08;stroke-width:1.97899997;stroke-linecap:round;stroke-linejoin:round;stroke-miterlimit:10"
         d="m 499.779,557.901 v 10.548 c 0,0.87 -0.316,1.622 -0.932,2.235 -0.611,0.615 -1.363,0.93 -2.234,0.93 h -1.959 c -0.871,0 -1.621,-0.314 -2.235,-0.93 -0.613,-0.613 -0.931,-1.365 -0.931,-2.235 v -10.548 c 0,-0.87 0.317,-1.622 0.931,-2.234 0.614,-0.613 1.364,-0.931 2.235,-0.931 h 1.959 c 0.871,0 1.623,0.317 2.234,0.931 0.616,0.612 0.932,1.364 0.932,2.234 z"
         id="path1073" />
      <path
         inkscape:connector-curvature="0"
         style="fill:#e61311"
         d="m 375.636,557.901 c 0,-0.87 0.318,-1.622 0.93,-2.234 0.614,-0.613 1.365,-0.931 2.236,-0.931 h 1.959 c 0.871,0 1.624,0.317 2.235,0.931 0.615,0.612 0.932,1.364 0.932,2.234 v 10.548 c 0,0.87 -0.317,1.622 -0.932,2.235 -0.611,0.615 -1.364,0.93 -2.235,0.93 h -1.959 c -0.871,0 -1.622,-0.314 -2.236,-0.93 -0.612,-0.613 -0.93,-1.365 -0.93,-2.235 v -10.548 z"
         id="path1075" />
      <path
         inkscape:connector-curvature="0"
         style="fill:none;stroke:#7a1c08;stroke-width:1.97899997;stroke-linecap:round;stroke-linejoin:round;stroke-miterlimit:10"
         d="m 375.636,557.901 v 10.548 c 0,0.87 0.318,1.622 0.93,2.235 0.614,0.615 1.365,0.93 2.236,0.93 h 1.959 c 0.871,0 1.624,-0.314 2.235,-0.93 0.615,-0.613 0.932,-1.365 0.932,-2.235 v -10.548 c 0,-0.87 -0.317,-1.622 -0.932,-2.234 -0.611,-0.613 -1.364,-0.931 -2.235,-0.931 h -1.959 c -0.871,0 -1.622,0.317 -2.236,0.931 -0.612,0.612 -0.93,1.364 -0.93,2.234 z"
         id="path1077" />
      <g
         style="opacity:0.3"
         id="g1079">
        <g
           id="g1081">
          <defs
             id="defs1083">
            <rect
               id="SVGID_1_"
               x="382.04999"
               y="518.96198"
               width="111.498"
               height="88.862999" />
          </defs>
          <clipPath
             id="clipPath5829">
            <use
               height="1052.3622"
               width="744.09448"
               y="0"
               x="0"
               xlink:href="#SVGID_1_"
               style="overflow:visible"
               id="use5831" />
          </clipPath>
          <path
             inkscape:connector-curvature="0"
             style="fill:#59c4ee"
             d="m 396.433,531.981 c -9.596,8.688 -14.385,19.154 -14.385,31.402 0,12.285 4.789,22.755 14.385,31.421 9.596,8.687 21.172,13.021 34.726,13.021 h 13.296 c 13.555,0 25.131,-4.334 34.708,-13.021 9.596,-8.666 14.385,-19.136 14.385,-31.421 0,-12.248 -4.789,-22.715 -14.385,-31.402 -9.576,-8.688 -21.152,-13.021 -34.708,-13.021 h -13.296 c -13.555,10e-4 -25.13,4.333 -34.726,13.021"
             id="path1089"
             clip-path="url(#SVGID_2_)" />
        </g>
      </g>
      <path
         inkscape:connector-curvature="0"
         style="fill:#f9fcfe"
         d="m 426.39,513.304 c -12.367,1.008 -23.052,6.352 -32.094,15.987 -10.071,10.804 -15.097,23.842 -15.097,39.1 0,15.255 5.026,28.274 15.097,39.059 10.091,10.804 22.261,16.205 36.507,16.205 h 13.969 c 14.266,0 26.436,-5.401 36.507,-16.205 10.07,-10.784 15.117,-23.804 15.117,-39.059 0,-15.258 -5.047,-28.296 -15.117,-39.1 -9.023,-9.636 -19.709,-14.979 -32.074,-15.987 -1.464,-0.12 -2.949,-0.18 -4.433,-0.18 h -13.969 c -1.485,0 -2.969,0.06 -4.413,0.18 m -41.177,50.08 c 0,-11.576 4.513,-21.449 13.554,-29.641 9.043,-8.171 19.966,-12.269 32.768,-12.269 h 12.544 c 12.802,0 23.704,4.098 32.748,12.269 9.043,8.191 13.573,18.064 13.573,29.641 0,11.577 -4.53,21.468 -13.573,29.641 -9.044,8.171 -19.946,12.268 -32.748,12.268 h -12.544 c -12.802,0 -23.725,-4.097 -32.768,-12.268 -9.041,-8.173 -13.554,-18.065 -13.554,-29.641"
         id="path1091" />
      <path
         inkscape:connector-curvature="0"
         style="fill:none;stroke:#7b7d7d;stroke-width:1.97899997;stroke-linecap:round;stroke-linejoin:round;stroke-miterlimit:10"
         d="m 426.39,513.304 c 1.443,-0.12 2.928,-0.18 4.413,-0.18 h 13.969 c 1.484,0 2.969,0.06 4.433,0.18 12.366,1.008 23.051,6.352 32.074,15.987 10.07,10.804 15.117,23.842 15.117,39.1 0,15.255 -5.047,28.274 -15.117,39.059 -10.072,10.804 -22.242,16.204 -36.507,16.204 h -13.969 c -14.246,0 -26.416,-5.4 -36.507,-16.204 -10.071,-10.784 -15.097,-23.804 -15.097,-39.059 0,-15.258 5.026,-28.296 15.097,-39.1 9.042,-9.636 19.726,-14.979 32.094,-15.987 z"
         id="path1093" />
      <path
         inkscape:connector-curvature="0"
         style="fill:none;stroke:#555656;stroke-width:1.97899997;stroke-linecap:round;stroke-linejoin:round;stroke-miterlimit:10"
         d="m 398.767,533.743 c 9.042,-8.171 19.966,-12.269 32.768,-12.269 h 12.544 c 12.802,0 23.705,4.098 32.748,12.269 9.043,8.191 13.573,18.064 13.573,29.641 0,11.577 -4.53,21.468 -13.573,29.641 -9.043,8.171 -19.946,12.268 -32.748,12.268 h -12.544 c -12.802,0 -23.726,-4.097 -32.768,-12.268 -9.042,-8.173 -13.554,-18.064 -13.554,-29.641 0,-11.577 4.512,-21.449 13.554,-29.641 z"
         id="path1095" />
      <path
         inkscape:connector-curvature="0"
         style="fill:#686b69"
         d="m 442.693,608.399 c -0.276,-0.239 -0.573,-0.436 -0.869,-0.616 v 9.005 c 0.296,-0.177 0.593,-0.397 0.869,-0.632 1.287,-1.068 1.921,-2.355 1.921,-3.88 0,-1.523 -0.634,-2.81 -1.921,-3.877"
         id="path1097" />
      <path
         inkscape:connector-curvature="0"
         style="fill:#686b69"
         d="m 439.607,606.935 c -0.474,-0.099 -0.969,-0.139 -1.504,-0.139 -0.455,0 -0.891,0.04 -1.307,0.099 v 10.764 c 0.416,0.062 0.852,0.1 1.307,0.1 0.535,0 1.03,-0.038 1.504,-0.137 v -10.687 z"
         id="path1099" />
      <path
         inkscape:connector-curvature="0"
         style="fill:#686b69"
         d="m 434.581,607.666 c -0.375,0.198 -0.751,0.436 -1.087,0.733 -1.267,1.066 -1.901,2.354 -1.901,3.877 0,1.524 0.634,2.811 1.901,3.88 0.336,0.296 0.712,0.534 1.087,0.751 v -9.241 z"
         id="path1101" />
      <g
         style="opacity:0.5"
         id="g1103">
        <g
           id="g1105">
          <defs
             id="defs1107">
            <rect
               id="SVGID_3_"
               x="389.84698"
               y="525.19397"
               width="49.584999"
               height="41.314999" />
          </defs>
          <clipPath
             id="clipPath5844">
            <use
               height="1052.3622"
               width="744.09448"
               y="0"
               x="0"
               xlink:href="#SVGID_3_"
               style="overflow:visible"
               id="use5846" />
          </clipPath>
          <path
             inkscape:connector-curvature="0"
             style="fill:none;stroke:#d1ebf1;stroke-width:15.82900047;stroke-linecap:round;stroke-linejoin:round;stroke-miterlimit:10"
             d="m 431.515,533.109 c -18.561,0.731 -29.818,9.221 -33.755,25.485"
             id="path1113"
             clip-path="url(#SVGID_4_)" />
        </g>
      </g>
      <path
         inkscape:connector-curvature="0"
         style="fill:#f9fcfe"
         d="m 470.85,621.043 c -0.83,-0.812 -1.838,-1.206 -3.006,-1.206 H 409.61 c -1.166,0 -2.177,0.395 -3.028,1.206 -0.83,0.812 -1.245,1.799 -1.245,2.928 0,1.129 0.415,2.097 1.245,2.908 0.851,0.812 1.862,1.228 3.028,1.228 h 58.233 c 1.168,0 2.176,-0.416 3.006,-1.228 0.853,-0.812 1.289,-1.779 1.289,-2.908 0,-1.129 -0.436,-2.116 -1.288,-2.928"
         id="path1115" />
      <path
         inkscape:connector-curvature="0"
         style="fill:none;stroke:#7b7d7d;stroke-width:1.97899997;stroke-linecap:round;stroke-linejoin:round;stroke-miterlimit:10"
         d="m 470.85,621.043 c 0.853,0.812 1.289,1.799 1.289,2.928 0,1.129 -0.437,2.097 -1.289,2.908 -0.83,0.812 -1.838,1.228 -3.006,1.228 H 409.61 c -1.166,0 -2.177,-0.416 -3.028,-1.228 -0.83,-0.812 -1.245,-1.779 -1.245,-2.908 0,-1.129 0.415,-2.115 1.245,-2.928 0.851,-0.812 1.862,-1.206 3.028,-1.206 h 58.233 c 1.169,0 2.177,0.394 3.007,1.206 z"
         id="path1117" />
      <path
         inkscape:connector-curvature="0"
         style="fill:#949595"
         d="m 439.474,697.598 h -24.151 v 21.291 c 0,3.859 1.577,5.777 4.73,5.738 h 14.672 c 3.173,0.039 4.749,-1.879 4.749,-5.738 v -21.291 z"
         id="path1119" />
      <path
         inkscape:connector-curvature="0"
         style="fill:#f9fcfe"
         d="m 437.683,695.52 v -5.462 c 0,-2.472 -0.985,-3.719 -2.957,-3.759 h -14.672 c -1.953,0.04 -2.939,1.287 -2.939,3.759 v 3.522 25.309 c 0,2.473 0.986,3.721 2.939,3.757 h 14.672 c 1.972,-0.036 2.957,-1.284 2.957,-3.757 V 695.52 z"
         id="path1121" />
      <path
         inkscape:connector-curvature="0"
         style="fill:#949595"
         d="m 439.474,695.52 h -1.792 v 23.369 c 0,2.473 -0.984,3.721 -2.957,3.757 h -14.672 c -1.953,-0.036 -2.938,-1.284 -2.938,-3.757 V 693.58 l -1.792,-0.851 v 26.159 c 0,3.859 1.577,5.776 4.73,5.738 h 14.672 c 3.173,0.038 4.749,-1.879 4.749,-5.738 V 695.52 z"
         id="path1123" />
      <rect
         x="421.129"
         y="699.43799"
         style="fill:#c8cfd0"
         width="10.338"
         height="2.789"
         id="rect1125" />
      <path
         inkscape:connector-curvature="0"
         style="fill:#c8cfd0"
         d="m 431.467,703.296 v -1.067 h -10.338 v 1.067 c 0,0.988 0.518,1.485 1.576,1.485 h 7.183 c 1.058,0 1.579,-0.497 1.579,-1.485"
         id="path1127" />
      <path
         inkscape:connector-curvature="0"
         style="fill:#c8cfd0"
         d="m 431.467,698.469 c 0,-0.991 -0.521,-1.483 -1.579,-1.483 h -7.183 c -1.058,0 -1.576,0.492 -1.576,1.483 v 0.97 h 10.338 v -0.97 z"
         id="path1129" />
      <path
         inkscape:connector-curvature="0"
         style="fill:none;stroke:#9fa4a2;stroke-width:1.18700004;stroke-linecap:round;stroke-linejoin:round;stroke-miterlimit:10"
         d="m 431.467,699.438 v 2.79 m 0,0.001 v 1.067 c 0,0.988 -0.521,1.485 -1.579,1.485 h -7.184 c -1.057,0 -1.575,-0.497 -1.575,-1.485 v -1.067 m 0,-2.791 v -0.97 c 0,-0.991 0.518,-1.483 1.575,-1.483 h 7.184 c 1.058,0 1.579,0.492 1.579,1.483 v 0.97 m -10.338,2.791 v -2.79 m 0,2.79 h 10.338 m 0,-2.791 h -10.338"
         id="path1131" />
      <path
         inkscape:connector-curvature="0"
         style="fill:#949595"
         d="m 438.89,697.598 h 24.151 v 21.291 c 0,3.859 -1.576,5.777 -4.73,5.738 h -14.674 c -3.169,0.039 -4.747,-1.879 -4.747,-5.738 v -21.291 z"
         id="path1133" />
      <path
         inkscape:connector-curvature="0"
         style="fill:#f9fcfe"
         d="m 440.681,695.52 v -5.462 c 0,-2.472 0.986,-3.719 2.956,-3.759 h 14.674 c 1.953,0.04 2.939,1.287 2.939,3.759 v 3.522 25.309 c 0,2.473 -0.986,3.721 -2.939,3.757 h -14.674 c -1.97,-0.036 -2.956,-1.284 -2.956,-3.757 V 695.52 z"
         id="path1135" />
      <path
         inkscape:connector-curvature="0"
         style="fill:#949595"
         d="m 438.89,695.52 h 1.791 v 23.369 c 0,2.473 0.986,3.721 2.956,3.757 h 14.674 c 1.953,-0.036 2.939,-1.284 2.939,-3.757 V 693.58 l 1.791,-0.851 v 26.159 c 0,3.859 -1.576,5.776 -4.73,5.738 h -14.674 c -3.169,0.038 -4.747,-1.879 -4.747,-5.738 V 695.52 z"
         id="path1137" />
      <rect
         x="446.89801"
         y="699.43799"
         style="fill:#c8cfd0"
         width="10.339"
         height="2.789"
         id="rect1139" />
      <path
         inkscape:connector-curvature="0"
         style="fill:#c8cfd0"
         d="m 446.897,703.296 v -1.067 h 10.339 v 1.067 c 0,0.988 -0.521,1.485 -1.575,1.485 h -7.187 c -1.056,0 -1.577,-0.497 -1.577,-1.485"
         id="path1141" />
      <path
         inkscape:connector-curvature="0"
         style="fill:#c8cfd0"
         d="m 446.897,698.469 c 0,-0.991 0.521,-1.483 1.577,-1.483 h 7.187 c 1.055,0 1.575,0.492 1.575,1.483 v 0.97 h -10.339 v -0.97 z"
         id="path1143" />
      <path
         inkscape:connector-curvature="0"
         style="fill:none;stroke:#9fa4a2;stroke-width:1.18700004;stroke-linecap:round;stroke-linejoin:round;stroke-miterlimit:10"
         d="m 446.897,699.438 v 2.79 m 0,0.001 v 1.067 c 0,0.988 0.521,1.485 1.577,1.485 h 7.187 c 1.055,0 1.575,-0.497 1.575,-1.485 v -1.067 m 0,-2.791 v -0.97 c 0,-0.991 -0.521,-1.483 -1.575,-1.483 h -7.187 c -1.056,0 -1.577,0.492 -1.577,1.483 v 0.97 m 10.339,2.791 v -2.79 m 0,2.79 h -10.339 m 0,-2.791 h 10.339"
         id="path1145" />
      <path
         inkscape:connector-curvature="0"
         style="fill:#f9fcfe"
         d="m 385.866,725.894 c -0.375,3.522 1.9,6.53 6.788,9.041 4.847,2.514 11.515,3.643 19.964,3.385 8.448,-0.258 15.453,-1.625 20.975,-4.056 1.582,-0.713 2.907,-1.446 3.956,-2.216 0.178,-0.141 0.336,-0.258 0.515,-0.375 0.278,-0.376 0.416,-0.932 0.416,-1.705 v -19.826 c 0,-1.462 -0.534,-2.196 -1.584,-2.196 h -21.705 c -1.049,0 -1.584,0.734 -1.584,2.196 v 3.147 h -0.218 c -7.241,-0.021 -13.553,1.187 -18.936,3.622 -5.381,2.472 -8.251,5.462 -8.587,8.983"
         id="path1147" />
      <path
         inkscape:connector-curvature="0"
         style="fill:none;stroke:#555656;stroke-width:1.97899997;stroke-linecap:round;stroke-linejoin:round;stroke-miterlimit:10"
         d="m 392.654,734.935 c 4.848,2.514 11.515,3.643 19.965,3.385 8.448,-0.258 15.452,-1.625 20.974,-4.056 1.582,-0.713 2.908,-1.446 3.957,-2.216 0.178,-0.141 0.335,-0.259 0.515,-0.375 0.277,-0.376 0.415,-0.932 0.415,-1.705 v -19.826 c 0,-1.462 -0.534,-2.196 -1.583,-2.196 h -21.706 c -1.049,0 -1.583,0.734 -1.583,2.196 v 3.147 h -0.219 c -7.241,-0.021 -13.553,1.187 -18.936,3.622 -5.381,2.472 -8.25,5.461 -8.587,8.982 -0.374,3.523 1.901,6.531 6.788,9.042 z"
         id="path1149" />
      <path
         inkscape:connector-curvature="0"
         style="fill:#f9fcfe"
         d="m 492.498,725.894 c 0.375,3.522 -1.898,6.53 -6.787,9.041 -4.848,2.514 -11.518,3.643 -19.965,3.385 -8.45,-0.258 -15.455,-1.625 -20.974,-4.056 -1.583,-0.713 -2.909,-1.446 -3.958,-2.216 -0.178,-0.141 -0.336,-0.258 -0.515,-0.375 -0.276,-0.376 -0.415,-0.932 -0.415,-1.705 v -19.826 c 0,-1.462 0.534,-2.196 1.583,-2.196 h 21.707 c 1.049,0 1.582,0.734 1.582,2.196 v 3.147 h 0.219 c 7.241,-0.021 13.553,1.187 18.935,3.622 5.381,2.472 8.252,5.462 8.588,8.983"
         id="path1151" />
      <path
         inkscape:connector-curvature="0"
         style="fill:none;stroke:#555656;stroke-width:1.97899997;stroke-linecap:round;stroke-linejoin:round;stroke-miterlimit:10"
         d="m 485.711,734.935 c -4.848,2.514 -11.518,3.643 -19.965,3.385 -8.45,-0.258 -15.454,-1.625 -20.974,-4.056 -1.582,-0.713 -2.909,-1.446 -3.957,-2.216 -0.179,-0.141 -0.336,-0.259 -0.516,-0.375 -0.276,-0.376 -0.415,-0.932 -0.415,-1.705 v -19.826 c 0,-1.462 0.535,-2.196 1.583,-2.196 h 21.707 c 1.048,0 1.582,0.734 1.582,2.196 v 3.147 h 0.219 c 7.241,-0.021 13.553,1.187 18.934,3.622 5.384,2.472 8.254,5.461 8.59,8.982 0.375,3.523 -1.899,6.531 -6.788,9.042 z"
         id="path1153" />
    </g>
  </g>
</svg>
