<?xml version="1.0" encoding="UTF-8" standalone="no"?>
<!-- Created with Inkscape (http://www.inkscape.org/) -->

<svg
   xmlns:dc="http://purl.org/dc/elements/1.1/"
   xmlns:cc="http://creativecommons.org/ns#"
   xmlns:rdf="http://www.w3.org/1999/02/22-rdf-syntax-ns#"
   xmlns:svg="http://www.w3.org/2000/svg"
   xmlns="http://www.w3.org/2000/svg"
   version="1.1"
   width="185"
   height="255.09"
   id="svg5071">
  <defs
     id="defs5073" />
  <metadata
     id="metadata5076">
    <rdf:RDF>
      <cc:Work
         rdf:about="">
        <dc:format>image/svg+xml</dc:format>
        <dc:type
           rdf:resource="http://purl.org/dc/dcmitype/StillImage" />
        <dc:title></dc:title>
      </cc:Work>
    </rdf:RDF>
  </metadata>
  <g
     transform="translate(0,-2901.9966)"
     id="layer1">
    <g
       transform="translate(-615.02565,2401.8347)"
       id="g1423">
      <path
         d="m 709.228,686.259 9.748,-0.715 c 1.536,14.685 0.811,33.284 0.569,34.246 48.32,-13.381 53.201,31.382 -10.317,12.573 -1.021,-0.301 1.503,-20.847 0,-46.104"
         id="path1425"
         style="fill:#ef7a00" />
      <path
         d="m 709.228,686.259 9.748,-0.715 c 1.536,14.685 0.811,33.284 0.569,34.246 48.32,-13.381 53.201,31.382 -10.317,12.573 -1.021,-0.301 1.503,-20.847 0,-46.104 z"
         id="path1427"
         style="fill:none;stroke:#e83434;stroke-width:3.0940001" />
      <path
         d="m 707.304,709.762 c 0.05,1.414 1.034,2.528 2.201,2.485 l 10.689,-0.372 c 1.166,-0.038 2.07,-1.22 2.021,-2.636 -0.05,-1.416 -1.032,-2.532 -2.201,-2.49 l -10.688,0.373 c -1.166,0.04 -2.074,1.223 -2.022,2.64"
         id="path1429"
         style="fill:#ef7a00" />
      <path
         d="m 707.304,709.762 c 0.05,1.414 1.034,2.528 2.201,2.485 l 10.689,-0.372 c 1.166,-0.038 2.07,-1.22 2.021,-2.636 -0.05,-1.416 -1.032,-2.532 -2.201,-2.49 l -10.688,0.373 c -1.166,0.04 -2.074,1.223 -2.022,2.64 z"
         id="path1431"
         style="fill:none;stroke:#e83434;stroke-width:3.0940001" />
      <path
         d="m 707.453,701.643 c 0.118,1.406 0.605,2.738 2.367,2.552 l 10.514,-0.988 c 1.168,-0.098 2.196,-1.407 2.078,-2.812 -0.116,-1.403 -1.16,-2.464 -2.356,-2.42 l -10.489,1.694 c -1.145,0.152 -2.231,0.571 -2.114,1.974"
         id="path1433"
         style="fill:#ef7a00" />
      <path
         d="m 707.453,701.643 c 0.118,1.406 0.605,2.738 2.367,2.552 l 10.514,-0.988 c 1.168,-0.098 2.196,-1.407 2.078,-2.812 -0.116,-1.403 -1.16,-2.464 -2.356,-2.42 l -10.489,1.694 c -1.145,0.152 -2.231,0.571 -2.114,1.974 z"
         id="path1435"
         style="fill:none;stroke:#e83434;stroke-width:3.0940001" />
      <path
         d="m 707.16,718.236 c 0.087,1.316 1.104,2.322 2.268,2.242 l 10.673,-0.706 c 1.165,-0.076 2.036,-1.206 1.949,-2.522 -0.088,-1.317 -1.101,-2.322 -2.266,-2.243 l -10.674,0.705 c -1.163,0.079 -2.037,1.208 -1.95,2.524"
         id="path1437"
         style="fill:#ef7a00" />
      <path
         d="m 707.16,718.236 c 0.087,1.316 1.104,2.322 2.268,2.242 l 10.673,-0.706 c 1.165,-0.076 2.036,-1.206 1.949,-2.522 -0.088,-1.317 -1.101,-2.322 -2.266,-2.243 l -10.674,0.705 c -1.163,0.079 -2.037,1.208 -1.95,2.524 z"
         id="path1439"
         style="fill:none;stroke:#e83434;stroke-width:3.0940001" />
      <path
         d="m 704.613,686.259 -9.749,-0.715 c -1.536,14.685 -0.811,33.284 -0.57,34.246 -48.319,-13.381 -53.199,31.382 10.319,12.573 1.023,-0.301 -1.506,-20.847 0,-46.104"
         id="path1441"
         style="fill:#ef7a00" />
      <path
         d="m 704.613,686.259 -9.749,-0.715 c -1.536,14.685 -0.811,33.284 -0.57,34.246 -48.319,-13.381 -53.199,31.382 10.319,12.573 1.023,-0.301 -1.506,-20.847 0,-46.104 z"
         id="path1443"
         style="fill:none;stroke:#e83434;stroke-width:3.0940001" />
      <path
         d="m 706.202,709.762 c -0.05,1.414 -1.033,2.528 -2.2,2.485 l -10.69,-0.372 c -1.165,-0.038 -2.072,-1.22 -2.022,-2.636 0.051,-1.416 1.037,-2.532 2.202,-2.49 l 10.692,0.373 c 1.162,0.04 2.068,1.223 2.018,2.64"
         id="path1445"
         style="fill:#ef7a00" />
      <path
         d="m 706.202,709.762 c -0.05,1.414 -1.033,2.528 -2.2,2.485 l -10.69,-0.372 c -1.165,-0.038 -2.072,-1.22 -2.022,-2.636 0.051,-1.416 1.037,-2.532 2.202,-2.49 l 10.692,0.373 c 1.162,0.04 2.068,1.223 2.018,2.64 z"
         id="path1447"
         style="fill:none;stroke:#e83434;stroke-width:3.0940001" />
      <path
         d="m 706.055,701.274 c -0.118,1.404 -0.606,2.739 -2.369,2.552 l -10.514,-0.989 c -1.168,-0.096 -2.195,-1.406 -2.077,-2.809 0.116,-1.407 1.159,-2.466 2.356,-2.422 l 10.489,1.694 c 1.146,0.153 2.231,0.571 2.115,1.974"
         id="path1449"
         style="fill:#ef7a00" />
      <path
         d="m 706.055,701.274 c -0.118,1.404 -0.606,2.739 -2.369,2.552 l -10.514,-0.989 c -1.168,-0.096 -2.195,-1.406 -2.077,-2.809 0.116,-1.407 1.159,-2.466 2.356,-2.422 l 10.489,1.694 c 1.146,0.153 2.231,0.571 2.115,1.974 z"
         id="path1451"
         style="fill:none;stroke:#e83434;stroke-width:3.0940001" />
      <path
         d="m 706.346,718.236 c -0.086,1.316 -1.101,2.322 -2.266,2.242 l -10.672,-0.706 c -1.163,-0.076 -2.038,-1.206 -1.952,-2.522 0.089,-1.317 1.102,-2.322 2.269,-2.243 l 10.674,0.705 c 1.16,0.079 2.036,1.208 1.947,2.524"
         id="path1453"
         style="fill:#ef7a00" />
      <path
         d="m 706.346,718.236 c -0.086,1.316 -1.101,2.322 -2.266,2.242 l -10.672,-0.706 c -1.163,-0.076 -2.038,-1.206 -1.952,-2.522 0.089,-1.317 1.102,-2.322 2.269,-2.243 l 10.674,0.705 c 1.16,0.079 2.036,1.208 1.947,2.524 z"
         id="path1455"
         style="fill:none;stroke:#e83434;stroke-width:3.0940001" />
      <path
         d="m 709.228,686.259 9.748,-0.715 c 1.536,14.685 0.811,33.284 0.569,34.246 48.32,-13.381 53.201,31.382 -10.317,12.573 -1.021,-0.301 1.503,-20.847 0,-46.104"
         id="path1457"
         style="fill:#e86601" />
      <path
         d="m 741.765,736.407 c 9.543,1.743 11.169,-10.365 1.841,-11.651 6.208,2.127 6.178,11.578 -1.72,11.601"
         id="path1459"
         style="fill:#e83434" />
      <path
         d="m 707.304,709.762 c 0.05,1.414 1.034,2.528 2.201,2.485 l 10.689,-0.372 c 1.166,-0.038 2.07,-1.22 2.021,-2.636 -0.05,-1.416 -1.032,-2.532 -2.201,-2.49 l -10.688,0.373 c -1.166,0.04 -2.074,1.223 -2.022,2.64"
         id="path1461"
         style="fill:#e27c9f" />
      <path
         d="m 707.453,701.643 c 0.118,1.406 0.605,2.738 2.367,2.552 l 10.514,-0.988 c 1.168,-0.098 2.196,-1.407 2.078,-2.812 -0.116,-1.403 -1.16,-2.464 -2.356,-2.42 l -10.489,1.694 c -1.145,0.152 -2.231,0.571 -2.114,1.974"
         id="path1463"
         style="fill:#e27c9f" />
      <path
         d="m 707.16,718.236 c 0.087,1.316 1.104,2.322 2.268,2.242 l 10.673,-0.706 c 1.165,-0.076 2.036,-1.206 1.949,-2.522 -0.088,-1.317 -1.101,-2.322 -2.266,-2.243 l -10.674,0.705 c -1.163,0.079 -2.037,1.208 -1.95,2.524"
         id="path1465"
         style="fill:#e27c9f" />
      <path
         d="m 695.155,624.519 c -13.219,24.326 -44.619,12.842 -45.604,30.333 -0.75,13.355 19.947,17.921 29.404,10.516 20.235,-15.846 19.13,-46.42 16.2,-40.849"
         id="path1467"
         style="fill:#ef7a00" />
      <path
         d="m 695.155,624.519 c -13.219,24.326 -44.619,12.842 -45.604,30.333 -0.75,13.355 19.947,17.921 29.404,10.516 20.235,-15.846 19.13,-46.42 16.2,-40.849"
         id="path1469"
         style="fill:none;stroke:#f2b800;stroke-width:3.0940001" />
      <path
         d="m 695.155,624.519 c -13.219,24.326 -44.619,12.842 -45.604,30.333 -0.75,13.355 19.947,17.921 29.404,10.516 20.235,-15.846 19.13,-46.42 16.2,-40.849"
         id="path1471"
         style="fill:#fcdf00" />
      <path
         d="m 659.908,658.421 c -3.452,-6.894 -12.842,-2.867 -18.369,-4.404 -1.993,-0.558 -6.369,-2.616 -5.734,1.655 0.383,2.575 4.514,4.487 6.64,5.509 -2.645,1.838 -6.109,2.93 -6.948,6.577 -0.338,4.054 7.511,3.274 11.286,1.671 -1.543,0.952 -3.577,6.061 -2.632,7.813 2.314,4.279 8.335,-3.423 10.113,-6.2 0.748,-1.169 7.666,-8.607 5.644,-12.621"
         id="path1473"
         style="fill:#ef7a00" />
      <path
         d="m 659.908,658.421 c -3.452,-6.894 -12.842,-2.867 -18.369,-4.404 -1.993,-0.558 -6.369,-2.616 -5.734,1.655 0.383,2.575 4.514,4.487 6.64,5.509 -2.645,1.838 -6.109,2.93 -6.948,6.577 -0.338,4.054 7.511,3.274 11.286,1.671 -1.543,0.952 -3.577,6.061 -2.632,7.813 2.314,4.279 8.335,-3.423 10.113,-6.2 0.748,-1.169 7.666,-8.607 5.644,-12.621"
         id="path1475"
         style="fill:none;stroke:#f2b800;stroke-width:3.0940001" />
      <path
         d="m 659.908,658.421 c -3.452,-6.894 -12.842,-2.867 -18.369,-4.404 -1.993,-0.558 -6.369,-2.616 -5.734,1.655 0.383,2.575 4.514,4.487 6.64,5.509 -2.645,1.838 -6.109,2.93 -6.948,6.577 -0.338,4.054 7.511,3.274 11.286,1.671 -1.543,0.952 -3.577,6.061 -2.632,7.813 2.314,4.279 8.335,-3.423 10.113,-6.2 0.748,-1.169 7.666,-8.607 5.644,-12.621"
         id="path1477"
         style="fill:#fcdf00" />
      <path
         d="m 719.901,624.519 c 13.22,24.326 44.618,12.842 45.604,30.333 0.748,13.355 -19.948,17.921 -29.404,10.516 -20.238,-15.846 -19.132,-46.42 -16.2,-40.849"
         id="path1479"
         style="fill:#ef7a00" />
      <path
         d="m 719.901,624.519 c 13.22,24.326 44.618,12.842 45.604,30.333 0.748,13.355 -19.948,17.921 -29.404,10.516 -20.238,-15.846 -19.132,-46.42 -16.2,-40.849"
         id="path1481"
         style="fill:none;stroke:#f2b800;stroke-width:3.0940001" />
      <path
         d="m 719.901,624.519 c 13.22,24.326 44.618,12.842 45.604,30.333 0.748,13.355 -19.948,17.921 -29.404,10.516 -20.238,-15.846 -19.132,-46.42 -16.2,-40.849"
         id="path1483"
         style="fill:#fcdf00" />
      <path
         d="m 755.146,658.421 c 3.454,-6.894 12.843,-2.867 18.369,-4.404 1.994,-0.558 6.372,-2.616 5.734,1.655 -0.383,2.575 -4.514,4.487 -6.64,5.509 2.646,1.838 6.111,2.93 6.945,6.577 0.343,4.054 -7.508,3.274 -11.282,1.671 1.542,0.952 3.578,6.061 2.63,7.813 -2.313,4.279 -8.335,-3.423 -10.113,-6.2 -0.746,-1.169 -7.666,-8.607 -5.643,-12.621"
         id="path1485"
         style="fill:#ef7a00" />
      <path
         d="m 755.146,658.421 c 3.454,-6.894 12.843,-2.867 18.369,-4.404 1.994,-0.558 6.372,-2.616 5.734,1.655 -0.383,2.575 -4.514,4.487 -6.64,5.509 2.646,1.838 6.111,2.93 6.945,6.577 0.343,4.054 -7.508,3.274 -11.282,1.671 1.542,0.952 3.578,6.061 2.63,7.813 -2.313,4.279 -8.335,-3.423 -10.113,-6.2 -0.746,-1.169 -7.666,-8.607 -5.643,-12.621"
         id="path1487"
         style="fill:none;stroke:#f2b800;stroke-width:3.0940001" />
      <path
         d="m 755.146,658.421 c 3.454,-6.894 12.843,-2.867 18.369,-4.404 1.994,-0.558 6.372,-2.616 5.734,1.655 -0.383,2.575 -4.514,4.487 -6.64,5.509 2.646,1.838 6.111,2.93 6.945,6.577 0.343,4.054 -7.508,3.274 -11.282,1.671 1.542,0.952 3.578,6.061 2.63,7.813 -2.313,4.279 -8.335,-3.423 -10.113,-6.2 -0.746,-1.169 -7.666,-8.607 -5.643,-12.621"
         id="path1489"
         style="fill:#fcdf00" />
      <path
         d="m 704.613,686.259 -9.749,-0.715 c -1.536,14.685 -0.811,33.284 -0.57,34.246 -48.319,-13.381 -53.199,31.382 10.319,12.573 1.023,-0.301 -1.506,-20.847 0,-46.104"
         id="path1491"
         style="fill:#e86601" />
      <path
         d="m 706.202,709.762 c -0.05,1.414 -1.033,2.528 -2.2,2.485 l -10.69,-0.372 c -1.165,-0.038 -2.072,-1.22 -2.022,-2.636 0.051,-1.416 1.037,-2.532 2.202,-2.49 l 10.692,0.373 c 1.162,0.04 2.068,1.223 2.018,2.64"
         id="path1493"
         style="fill:#e27c9f" />
      <path
         d="m 681.512,661.809 c 12.663,-26.8 14.956,-48.523 19.838,-50.066 8.051,-2.542 12.953,-2.328 14.209,1.18 2.928,8.185 6.019,16.087 19.991,49.479 19.848,47.432 -76.619,47.196 -54.038,-0.593"
         id="path1495"
         style="fill:#ef7a00" />
      <path
         d="m 681.512,661.809 c 12.663,-26.8 14.956,-48.523 19.838,-50.066 8.051,-2.542 12.953,-2.328 14.209,1.18 2.928,8.185 6.019,16.087 19.991,49.479 19.848,47.432 -76.619,47.196 -54.038,-0.593 z"
         id="path1497"
         style="fill:none;stroke:#f2b800;stroke-width:3.0940001" />
      <path
         d="m 703.139,534.903 c -0.449,-2.93 -6.057,-3.381 -7.411,-3.597 -4.61,-0.729 -5.069,-4.494 -4.898,-6.625 1.276,2.434 5.353,3.053 7.245,3.258 4.084,0.442 6.736,4.325 5.053,7.017"
         id="path1499"
         style="fill:#ef7a00" />
      <path
         d="m 703.139,534.903 c -0.449,-2.93 -6.057,-3.381 -7.411,-3.597 -4.61,-0.729 -5.069,-4.494 -4.898,-6.625 1.276,2.434 5.353,3.053 7.245,3.258 4.084,0.442 6.736,4.325 5.053,7.017"
         id="path1501"
         style="fill:none;stroke:#f2b800;stroke-width:3.0940001" />
      <path
         d="m 703.346,534.108 c 2.332,-1.831 -0.034,-6.937 -0.516,-8.222 -1.629,-4.374 1.423,-6.622 3.363,-7.523 -1.492,2.307 -0.025,6.159 0.726,7.91 1.623,3.774 -0.451,7.993 -3.624,7.847"
         id="path1503"
         style="fill:#ef7a00" />
      <path
         d="m 703.346,534.108 c 2.332,-1.831 -0.034,-6.937 -0.516,-8.222 -1.629,-4.374 1.423,-6.622 3.363,-7.523 -1.492,2.307 -0.025,6.159 0.726,7.91 1.623,3.774 -0.451,7.993 -3.624,7.847"
         id="path1505"
         style="fill:none;stroke:#f2b800;stroke-width:3.0940001" />
      <path
         d="m 706.394,532.421 c 2.929,0.47 5.07,-4.732 5.688,-5.956 2.104,-4.167 5.827,-3.456 7.806,-2.642 -2.706,0.473 -4.541,4.164 -5.315,5.906 -1.668,3.75 -6.174,5.092 -8.225,2.665"
         id="path1507"
         style="fill:#ef7a00" />
      <path
         d="m 706.394,532.421 c 2.929,0.47 5.07,-4.732 5.688,-5.956 2.104,-4.167 5.827,-3.456 7.806,-2.642 -2.706,0.473 -4.541,4.164 -5.315,5.906 -1.668,3.75 -6.174,5.092 -8.225,2.665"
         id="path1509"
         style="fill:none;stroke:#f2b800;stroke-width:3.0940001" />
      <path
         d="m 756.985,577.73 c 0,29.898 -22.257,45.234 -49.716,45.234 -27.457,0 -49.716,-12.748 -49.716,-45.234 0,-24.982 22.259,-45.233 49.716,-45.233 27.46,0 49.716,20.251 49.716,45.233 z"
         id="path1511"
         style="fill:none;stroke:#f2b800;stroke-width:3.0940001" />
      <path
         d="m 681.512,661.809 c 12.663,-26.8 14.956,-48.523 19.838,-50.066 8.051,-2.542 12.953,-2.328 14.209,1.18 2.928,8.185 6.019,16.087 19.991,49.479 19.848,47.432 -76.619,47.196 -54.038,-0.593"
         id="path1513"
         style="fill:#fcdf00" />
      <path
         d="m 756.985,577.73 c 0,29.898 -22.257,45.234 -49.716,45.234 -27.457,0 -49.716,-12.748 -49.716,-45.234 0,-24.982 22.259,-45.233 49.716,-45.233 27.46,0 49.716,20.251 49.716,45.233"
         id="path1515"
         style="fill:#fcdf00" />
      <path
         d="m 703.139,534.903 c -0.449,-2.93 -6.057,-3.381 -7.411,-3.597 -4.61,-0.729 -5.069,-4.494 -4.898,-6.625 1.276,2.434 5.353,3.053 7.245,3.258 4.084,0.442 6.736,4.325 5.053,7.017"
         id="path1517"
         style="fill:#fcdf00" />
      <path
         d="m 703.346,534.108 c 2.332,-1.831 -0.034,-6.937 -0.516,-8.222 -1.629,-4.374 1.423,-6.622 3.363,-7.523 -1.492,2.307 -0.025,6.159 0.726,7.91 1.623,3.774 -0.451,7.993 -3.624,7.847"
         id="path1519"
         style="fill:#fcdf00" />
      <path
         d="m 706.394,532.421 c 2.929,0.47 5.07,-4.732 5.688,-5.956 2.104,-4.167 5.827,-3.456 7.806,-2.642 -2.706,0.473 -4.541,4.164 -5.315,5.906 -1.668,3.75 -6.174,5.092 -8.225,2.665"
         id="path1521"
         style="fill:#fcdf00" />
      <path
         d="m 702.148,562.998 c -1.306,-0.833 -2.729,-1.497 -4.252,-1.953 -4.307,-1.287 -8.86,-0.814 -12.816,1.337 -6.353,3.451 -9.618,10.435 -8.694,17.23 1.217,-4.227 3.916,-8.379 7.919,-11.619 5.538,-4.481 12.232,-6.145 17.843,-4.995"
         id="path1523"
         style="fill:#e27c9f" />
      <path
         d="m 686.954,571.859 c 6.644,-5.404 15.117,-6.376 20.798,-2.913 -1.377,-2.452 -3.296,-4.477 -5.604,-5.948 -5.611,-1.15 -12.306,0.514 -17.844,4.995 -4.003,3.24 -6.702,7.393 -7.919,11.619 0.263,1.957 0.873,3.903 1.861,5.742 0.245,0.455 0.516,0.893 0.797,1.318 0.166,-5.192 2.938,-10.766 7.911,-14.813"
         id="path1525"
         style="fill:#0077bf" />
      <path
         d="m 688.273,593.539 c 4.305,1.283 8.859,0.808 12.814,-1.339 8.187,-4.446 11.249,-14.751 6.835,-22.972 -0.056,-0.099 -0.117,-0.187 -0.17,-0.282 -5.682,-3.463 -14.155,-2.491 -20.799,2.913 -4.973,4.047 -7.744,9.621 -7.909,14.813 2.177,3.307 5.402,5.723 9.229,6.867"
         id="path1527"
         style="fill:#ffffff" />
      <path
         d="m 713.498,563.027 c 1.304,-0.836 2.721,-1.508 4.248,-1.966 4.301,-1.302 8.856,-0.842 12.819,1.295 6.363,3.429 9.653,10.401 8.752,17.2 -1.231,-4.22 -3.947,-8.366 -7.958,-11.593 -5.554,-4.462 -12.256,-6.106 -17.861,-4.936"
         id="path1529"
         style="fill:#e27c9f" />
      <path
         d="m 728.719,571.839 c -6.659,-5.382 -15.136,-6.327 -20.804,-2.846 1.37,-2.454 3.282,-4.487 5.583,-5.966 5.604,-1.17 12.307,0.474 17.861,4.937 4.011,3.227 6.727,7.373 7.958,11.593 -0.259,1.96 -0.862,3.905 -1.846,5.75 -0.242,0.456 -0.514,0.894 -0.794,1.321 -0.178,-5.19 -2.97,-10.759 -7.958,-14.789"
         id="path1531"
         style="fill:#0077bf" />
      <path
         d="m 727.475,593.523 c -4.304,1.297 -8.857,0.838 -12.818,-1.3 -8.201,-4.417 -11.3,-14.712 -6.911,-22.945 0.054,-0.1 0.116,-0.188 0.17,-0.285 5.668,-3.481 14.145,-2.536 20.804,2.846 4.988,4.03 7.78,9.599 7.959,14.788 -2.164,3.315 -5.38,5.738 -9.204,6.896"
         id="path1533"
         style="fill:#ffffff" />
      <path
         d="m 704.544,580.266 c 0,3.134 -2.537,5.671 -5.669,5.671 -3.128,0 -5.668,-2.537 -5.668,-5.671 0,-3.13 2.54,-5.666 5.668,-5.666 3.132,0 5.669,2.536 5.669,5.666"
         id="path1535" />
      <path
         d="m 722.487,580.266 c 0,3.134 -2.541,5.671 -5.671,5.671 -3.129,0 -5.668,-2.537 -5.668,-5.671 0,-3.13 2.539,-5.666 5.668,-5.666 3.13,0 5.671,2.536 5.671,5.666"
         id="path1537" />
      <path
         d="m 719.521,616.126 c 2.252,-2.69 4.929,-5.841 5.946,-9.372 1.174,-4.071 0.459,-7.893 -2.32,-8.41 -2.01,-0.38 -4.342,1.678 -6.391,2.003 -6.257,0.986 -12.497,-1.246 -18.757,-0.628 -2.62,0.26 -10.07,-0.602 -8.231,7.582 0.807,3.6 2.965,5.174 4.64,7.238 3.825,4.749 8.293,14.9 13.389,14.241 3.8,-0.493 6.923,-6.495 9.881,-10.387 0.538,-0.714 1.171,-1.473 1.843,-2.267"
         id="path1539"
         style="fill:#ef7a00" />
      <path
         d="m 719.521,616.126 c 2.252,-2.69 4.929,-5.841 5.946,-9.372 1.174,-4.071 0.459,-7.893 -2.32,-8.41 -2.01,-0.38 -4.342,1.678 -6.391,2.003 -6.257,0.986 -12.497,-1.246 -18.757,-0.628 -2.62,0.26 -10.07,-0.602 -8.231,7.582 0.807,3.6 2.965,5.174 4.64,7.238 3.825,4.749 8.293,14.9 13.389,14.241 3.8,-0.493 6.923,-6.495 9.881,-10.387 0.538,-0.714 1.171,-1.473 1.843,-2.267 z"
         id="path1541"
         style="fill:none;stroke:#f2b800;stroke-width:3.0940001" />
      <path
         d="m 719.521,616.126 c 2.252,-2.69 4.929,-5.841 5.946,-9.372 1.174,-4.071 0.459,-7.893 -2.32,-8.41 -2.01,-0.38 -4.342,1.678 -6.391,2.003 -6.257,0.986 -12.497,-1.246 -18.757,-0.628 -2.62,0.26 -10.07,-0.602 -8.231,7.582 0.807,3.6 2.965,5.174 4.64,7.238 3.825,4.749 8.293,14.9 13.389,14.241 3.8,-0.493 6.923,-6.495 9.881,-10.387 0.538,-0.714 1.171,-1.473 1.843,-2.267"
         id="path1543"
         style="fill:#fee400" />
      <path
         d="m 719.521,616.126 c 2.252,-2.69 4.929,-5.841 5.946,-9.372 1.174,-4.071 0.459,-7.893 -2.32,-8.41 -2.01,-0.38 -4.342,1.678 -6.391,2.003 -6.257,0.986 -12.497,-1.246 -18.757,-0.628 -2.62,0.26 -10.07,-0.602 -8.231,7.582 0.807,3.6 2.965,5.174 4.64,7.238 3.825,4.749 8.293,14.9 13.389,14.241 3.8,-0.493 6.923,-6.495 9.881,-10.387 0.538,-0.714 1.171,-1.473 1.843,-2.267 z"
         id="path1545"
         style="fill:none;stroke:#fac109;stroke-width:0.39700001" />
      <path
         d="m 696.347,607.241 c 1.007,3.305 8.31,15.666 10.905,16.304 2.891,0.705 11.67,-14.83 12.727,-16.515"
         id="path1547"
         style="fill:#e83434" />
      <path
         d="m 704.359,607.98 c -0.056,0.864 2.387,8.47 3.085,8.683 2.003,0.614 3.521,-8.218 3.423,-9.399"
         id="path1549"
         style="fill:#f092b1" />
      <path
         d="m 681.255,662.534 c 0,0 3.091,-8.53 6.203,-28.517 0,0 2.665,-1.967 5.679,-6.891 1.132,-1.848 1.896,-3.288 3.035,-5.267 l 7.233,36.796 -22.15,3.879 z"
         id="path1551"
         style="fill:#fcdf00" />
      <path
         d="m 734.595,660.602 c 0,0 -2.048,-0.952 -7.756,-27.222 0,0 -3.366,-2.854 -8.051,-11.632 l -6.01,36.908 21.817,1.946 z"
         id="path1553"
         style="fill:#fcdf00" />
      <path
         d="m 706.055,701.274 c -0.118,1.404 -0.606,2.739 -2.369,2.552 l -10.514,-0.989 c -1.168,-0.096 -2.195,-1.406 -2.077,-2.809 0.116,-1.407 1.159,-2.466 2.356,-2.422 l 10.489,1.694 c 1.146,0.153 2.231,0.571 2.115,1.974"
         id="path1555"
         style="fill:#e27c9f" />
      <path
         d="m 706.346,718.236 c -0.086,1.316 -1.101,2.322 -2.266,2.242 l -10.672,-0.706 c -1.163,-0.076 -2.038,-1.206 -1.952,-2.522 0.089,-1.317 1.102,-2.322 2.269,-2.243 l 10.674,0.705 c 1.16,0.079 2.036,1.208 1.947,2.524"
         id="path1557"
         style="fill:#e27c9f" />
      <path
         d="m 725.719,596.643 c -3.659,-2.131 -7.8,-2.918 -11.023,-6.359 -2.898,-3.09 -9.19,-4.338 -13.599,0 -2.721,2.675 -8.773,4.717 -11.577,6.106 -3.785,1.878 -4.058,8.604 -0.643,10.277 2.22,1.09 5.456,0.615 9.692,0.927 3.812,0.8 4.862,2.592 8.729,2.528 5.053,-0.087 5.237,-1.792 8.433,-2.551 4.126,-0.502 8.513,-0.77 10.771,-1.915 2.493,-1.268 3.121,-6.738 -0.783,-9.013"
         id="path1559"
         style="fill:#ef7a00" />
      <path
         d="m 725.719,596.643 c -3.659,-2.131 -7.8,-2.918 -11.023,-6.359 -2.898,-3.09 -9.19,-4.338 -13.599,0 -2.721,2.675 -8.773,4.717 -11.577,6.106 -3.785,1.878 -4.058,8.604 -0.643,10.277 2.22,1.09 5.456,0.615 9.692,0.927 3.812,0.8 4.862,2.592 8.729,2.528 5.053,-0.087 5.237,-1.792 8.433,-2.551 4.126,-0.502 8.513,-0.77 10.771,-1.915 2.493,-1.268 3.121,-6.738 -0.783,-9.013 z"
         id="path1561"
         style="fill:none;stroke:#f2b800;stroke-width:3.0940001" />
      <path
         d="m 725.719,596.643 c -3.659,-2.131 -7.8,-2.918 -11.023,-6.359 -2.898,-3.09 -9.19,-4.338 -13.599,0 -2.721,2.675 -8.773,4.717 -11.577,6.106 -3.785,1.878 -4.058,8.604 -0.643,10.277 2.22,1.09 5.456,0.615 9.692,0.927 3.812,0.8 4.862,2.592 8.729,2.528 5.053,-0.087 5.237,-1.792 8.433,-2.551 4.126,-0.502 8.513,-0.77 10.771,-1.915 2.493,-1.268 3.121,-6.738 -0.783,-9.013"
         id="path1563"
         style="fill:#fcdf00" />
      <path
         d="m 672.075,736.407 c -9.542,1.743 -11.17,-10.365 -1.842,-11.651 -6.21,2.127 -6.176,11.578 1.722,11.601"
         id="path1565"
         style="fill:#e83434" />
    </g>
  </g>
</svg>
