<?xml version="1.0" encoding="UTF-8" standalone="no"?>
<!-- Created with Inkscape (http://www.inkscape.org/) -->

<svg
   xmlns:dc="http://purl.org/dc/elements/1.1/"
   xmlns:cc="http://creativecommons.org/ns#"
   xmlns:rdf="http://www.w3.org/1999/02/22-rdf-syntax-ns#"
   xmlns:svg="http://www.w3.org/2000/svg"
   xmlns="http://www.w3.org/2000/svg"
   version="1.1"
   width="185"
   height="255.09"
   id="svg5071">
  <defs
     id="defs5073" />
  <metadata
     id="metadata5076">
    <rdf:RDF>
      <cc:Work
         rdf:about="">
        <dc:format>image/svg+xml</dc:format>
        <dc:type
           rdf:resource="http://purl.org/dc/dcmitype/StillImage" />
        <dc:title></dc:title>
      </cc:Work>
    </rdf:RDF>
  </metadata>
  <g
     transform="translate(0,-2901.9966)"
     id="layer1">
    <g
       transform="translate(-597.68132,2638.657)"
       id="g1567">
      <path
         d="m 679.032,436.743 c 0.75,-1.585 0.841,-3.604 0.278,-6.061 -0.597,-2.584 -1.804,-4.96 -3.626,-7.105 -2.1,-2.456 -4.689,-4.208 -7.78,-5.246 -3.613,-1.22 -7.671,-1.378 -12.174,-0.498 -0.825,-1.533 -2.773,-3.376 -5.864,-5.543 -3.286,-2.305 -6.771,-4.167 -10.452,-5.584 -4.275,-1.65 -8.028,-2.345 -11.264,-2.077 -3.83,0.307 -6.623,1.95 -8.376,4.929 -2.454,4.168 -1.228,8.644 3.683,13.425 1.793,1.74 3.841,3.277 6.138,4.613 2.06,1.187 3.634,1.851 4.733,1.979 -2.329,3.138 -2.605,6.427 -0.831,9.837 1.532,2.981 4.304,5.585 8.314,7.803 3.83,2.139 7.599,3.305 11.322,3.504 4.013,0.229 6.765,-0.801 8.257,-3.089 -0.359,2.107 0.524,3.988 2.653,5.645 1.989,1.554 4.483,2.504 7.483,2.828 3.159,0.359 5.899,-0.11 8.236,-1.405 2.692,-1.475 4.326,-3.828 4.91,-7.067 0.208,-1.148 -0.723,-3.039 -2.793,-5.682 -2.087,-2.642 -3.036,-4.483 -2.849,-5.525 v 0.319 z"
         id="path1569"
         style="fill:#eddc00" />
      <path
         d="m 679.032,436.743 v -0.32 c -0.188,1.042 0.762,2.884 2.849,5.525 2.07,2.643 3.001,4.533 2.793,5.682 -0.584,3.239 -2.218,5.593 -4.91,7.067 -2.337,1.295 -5.077,1.765 -8.236,1.405 -3,-0.324 -5.494,-1.274 -7.483,-2.828 -2.129,-1.656 -3.013,-3.537 -2.653,-5.645 -1.492,2.288 -4.244,3.317 -8.257,3.089 -3.724,-0.199 -7.492,-1.365 -11.322,-3.504 -4.011,-2.218 -6.782,-4.821 -8.314,-7.803 -1.774,-3.41 -1.498,-6.699 0.831,-9.837 -1.1,-0.129 -2.674,-0.793 -4.733,-1.979 -2.297,-1.336 -4.345,-2.873 -6.138,-4.613 -4.91,-4.781 -6.137,-9.257 -3.683,-13.425 1.753,-2.979 4.546,-4.622 8.376,-4.929 3.235,-0.268 6.988,0.427 11.264,2.077 3.682,1.417 7.166,3.279 10.452,5.584 3.091,2.167 5.039,4.01 5.864,5.543 4.503,-0.88 8.561,-0.722 12.174,0.498 3.091,1.038 5.681,2.79 7.78,5.246 1.822,2.146 3.029,4.521 3.626,7.105 0.561,2.458 0.47,4.477 -0.28,6.062 z"
         id="path1571"
         style="fill:none;stroke:#f2b800;stroke-width:2.97000003;stroke-miterlimit:10" />
      <path
         d="m 679.032,436.743 c 0.75,-1.585 0.841,-3.604 0.278,-6.061 -0.597,-2.584 -1.804,-4.96 -3.626,-7.105 -2.1,-2.456 -4.689,-4.208 -7.78,-5.246 -3.613,-1.22 -7.671,-1.378 -12.174,-0.498 -0.825,-1.533 -2.773,-3.376 -5.864,-5.543 -3.286,-2.305 -6.771,-4.167 -10.452,-5.584 -4.275,-1.65 -8.028,-2.345 -11.264,-2.077 -3.83,0.307 -6.623,1.95 -8.376,4.929 -2.454,4.168 -1.228,8.644 3.683,13.425 1.793,1.74 3.841,3.277 6.138,4.613 2.06,1.187 3.634,1.851 4.733,1.979 -2.329,3.138 -2.605,6.427 -0.831,9.837 1.532,2.981 4.304,5.585 8.314,7.803 3.83,2.139 7.599,3.305 11.322,3.504 4.013,0.229 6.765,-0.801 8.257,-3.089 -0.359,2.107 0.524,3.988 2.653,5.645 1.989,1.554 4.483,2.504 7.483,2.828 3.159,0.359 5.899,-0.11 8.236,-1.405 2.692,-1.475 4.326,-3.828 4.91,-7.067 0.208,-1.148 -0.723,-3.039 -2.793,-5.682 -2.087,-2.642 -3.036,-4.483 -2.849,-5.525 v 0.319 z"
         id="path1573"
         style="fill:#fcdf00" />
      <path
         d="m 691.903,450.425 c 0.149,-0.013 0.301,0.015 0.438,0.086 0.114,0.058 0.198,0.14 0.265,0.229 0.052,0.069 0.099,0.149 0.127,0.242 1.105,3.558 2.262,6.916 3.491,10.066 -0.013,-0.048 -0.027,-0.096 -0.053,-0.14 0.251,0.863 0.535,1.738 0.877,2.625 l -3.672,1.107 c 0.011,-0.167 0.036,-0.33 0.067,-0.494 l -0.014,0.023 c 0.134,-0.686 0.401,-1.307 0.812,-1.831 0,-0.021 0.015,-0.049 0.023,-0.059 0.085,-0.163 0.207,-0.272 0.363,-0.338 l 0.217,-0.098 c -1.27,-3.242 -2.479,-6.706 -3.623,-10.396 -0.063,-0.206 -0.044,-0.412 0.056,-0.604 0.095,-0.193 0.251,-0.324 0.459,-0.389 0.057,-0.015 0.117,-0.022 0.167,-0.029"
         id="path1575"
         style="fill:#e42126" />
      <path
         d="m 699.597,445.505 c 0.129,-0.011 0.267,0.033 0.394,0.106 0.188,0.118 0.309,0.277 0.361,0.492 1.108,4.382 2.531,8.35 4.264,11.923 0.432,0.034 0.83,0.154 1.194,0.365 0.012,0.006 0.021,0.003 0.033,0.01 0.19,0.118 0.394,0.25 0.589,0.389 0.027,0.014 0.056,0.035 0.082,0.06 0.263,0.219 0.479,0.516 0.657,0.874 0.006,0.019 0.01,0.038 0.015,0.057 0.097,0.21 0.163,0.426 0.213,0.627 l -2.809,0.85 c -0.593,-1.132 -1.139,-2.196 -1.656,-3.186 -0.336,-0.675 -0.546,-1.095 -0.61,-1.27 -0.012,-0.009 -0.012,-0.009 -0.024,-0.017 0.027,0.056 0.045,0.11 0.075,0.175 -1.411,-3.198 -2.597,-6.681 -3.555,-10.469 -0.055,-0.219 -0.021,-0.417 0.083,-0.604 0.037,-0.061 0.083,-0.109 0.124,-0.15 0.104,-0.104 0.213,-0.177 0.356,-0.209 0.069,-0.02 0.136,-0.034 0.214,-0.023"
         id="path1577"
         style="fill:#e42126" />
      <path
         d="m 707.398,460.407 c 0.002,0.015 0.009,0.031 0.014,0.049 0.002,0.039 0.006,0.083 0.009,0.133 0.041,0.677 -0.065,1.321 -0.333,1.905 0.477,0.755 0.963,1.486 1.473,2.21 0.175,-0.002 0.353,0.006 0.534,0.023 0.009,-0.002 0.009,-0.002 0.022,0.004 0.624,0.091 1.205,0.337 1.746,0.723 0.01,0.009 0.035,0.02 0.049,0.036 0.194,0.158 0.366,0.354 0.521,0.587 l -0.02,-0.025 c 0.404,0.55 0.582,1.146 0.541,1.778 -0.01,0.011 -0.004,0.029 -0.01,0.054 -0.006,0.147 -0.035,0.291 -0.069,0.41 -0.014,0.132 -0.027,0.258 -0.058,0.391 0.5,0.532 1.017,1.047 1.542,1.55 0.215,0.203 0.432,0.406 0.658,0.606 0.68,-0.104 1.337,-0.012 1.971,0.283 0.585,0.258 1.083,0.611 1.487,1.057 l 0.547,0.753 2.314,-2.121 c 6.271,-5.858 12.474,-9.559 18.589,-11.095 3.229,-0.821 6.055,-0.898 8.472,-0.245 2.433,0.638 4.103,1.89 5.01,3.734 l 0.002,0.009 c 0.132,0.255 0.255,0.529 0.349,0.802 l -1.525,0.46 c -0.069,-0.187 -0.141,-0.368 -0.227,-0.55 -0.735,-1.438 -2.072,-2.411 -4.014,-2.928 -2.189,-0.578 -4.744,-0.499 -7.677,0.253 -6.095,1.561 -12.284,5.339 -18.572,11.356 -0.522,0.52 -1.057,1.041 -1.613,1.562 l -2.13,0.641 c -0.012,-0.14 -0.032,-0.28 -0.054,-0.416 -0.017,-0.13 -0.03,-0.249 -0.059,-0.372 -0.043,-0.074 -0.099,-0.117 -0.178,-0.146 -0.045,-0.109 -0.102,-0.228 -0.176,-0.341 -0.046,-0.077 -0.097,-0.145 -0.17,-0.213 -0.003,-0.011 -0.003,-0.011 -0.013,-0.017 -0.264,-0.326 -0.595,-0.566 -1.001,-0.744 l -0.008,0.004 c -0.41,-0.187 -0.835,-0.234 -1.288,-0.125 -0.027,0.007 -0.067,0.017 -0.098,0.025 -0.064,0.02 -0.138,0.042 -0.204,0.062 -0.391,-0.305 -0.767,-0.624 -1.145,-0.951 -0.078,-0.081 -0.164,-0.16 -0.245,-0.229 -0.113,-0.098 -0.226,-0.197 -0.327,-0.304 -0.706,-0.654 -1.308,-1.379 -1.81,-2.188 -0.023,-0.045 -0.053,-0.076 -0.077,-0.111 0.006,-0.024 0.02,-0.048 0.024,-0.068 0.004,-0.013 0.019,-0.036 0.022,-0.057 0.007,-0.014 0.015,-0.026 0.014,-0.037 0.003,-0.013 0.002,-0.021 0.01,-0.033 0.046,-0.149 0.075,-0.292 0.082,-0.438 0.005,-0.082 0.022,-0.163 0.052,-0.24 0.006,-0.016 0,-0.033 0.006,-0.047 0,-0.03 0.005,-0.051 0.007,-0.073 0.022,-0.274 -0.058,-0.531 -0.231,-0.777 -0.005,-0.009 -0.005,-0.009 -0.016,-0.017 -0.059,-0.094 -0.135,-0.173 -0.21,-0.244 -0.303,-0.22 -0.642,-0.354 -1.001,-0.41 -0.013,-0.005 -0.013,-0.005 -0.021,-0.003 -0.181,-0.019 -0.368,-0.023 -0.546,0 -0.029,0.008 -0.065,0.019 -0.099,0.018 -0.08,0.014 -0.155,0.027 -0.242,0.051 -0.489,-0.77 -1.04,-1.53 -1.654,-2.296 -0.547,-0.69 -1.127,-1.612 -1.73,-2.759 -0.017,-0.02 -0.021,-0.04 -0.025,-0.057 l 2.809,-0.852 z"
         id="path1579"
         style="fill:#e42126" />
      <path
         d="m 693.491,465.503 c -0.077,-0.294 -0.123,-0.58 -0.115,-0.862 l 3.672,-1.107 c 0.236,0.619 0.484,1.235 0.769,1.865 0.896,2.01 1.852,3.983 2.865,5.896 -0.008,0.011 -0.026,0.017 -0.042,0.031 -0.042,0.035 -0.073,0.066 -0.104,0.105 -0.036,0.02 -0.068,0.05 -0.098,0.092 l -0.004,0.012 -0.009,0.003 c -0.234,0.287 -0.354,0.621 -0.355,1.025 l 0.012,-0.004 c 0.004,0.351 0.111,0.669 0.319,0.955 0.048,0.06 0.114,0.134 0.179,0.217 l 10e-4,0.011 c 0.311,0.339 0.696,0.55 1.145,0.633 l 0.007,-0.002 c 0.11,0.019 0.219,0.035 0.325,0.047 0.05,-0.006 0.09,-0.008 0.144,-0.002 0.061,-0.011 0.12,-0.017 0.188,-0.026 l 0.019,-0.015 c 0.195,0.342 0.404,0.695 0.609,1.033 0.625,1.039 1.289,2.047 2.005,3.02 l -1.503,0.452 c -0.623,-0.938 -1.248,-1.903 -1.85,-2.909 -0.077,-0.009 -0.143,-0.028 -0.22,-0.036 l -0.011,-0.008 c -0.818,-0.145 -1.503,-0.528 -2.055,-1.157 l -0.01,-0.006 c -0.08,-0.09 -0.145,-0.173 -0.198,-0.242 -0.002,-0.008 -0.004,-0.018 -0.015,-0.023 -0.432,-0.571 -0.657,-1.215 -0.666,-1.927 0.004,-0.609 0.136,-1.156 0.418,-1.621 -0.487,-0.971 -0.974,-1.958 -1.439,-2.962 l -0.157,0.066 c -0.027,0.018 -0.062,0.029 -0.1,0.04 -0.085,0.026 -0.194,0.047 -0.325,0.055 -0.03,-10e-4 -0.07,0.001 -0.102,0 -0.696,-0.046 -1.317,-0.259 -1.883,-0.658 l -0.012,-0.007 c -0.694,-0.491 -1.165,-1.156 -1.404,-1.984"
         id="path1581"
         style="fill:#e42126" />
      <path
         d="m 751.232,464.478 1.525,-0.46 c 0.607,1.687 0.505,3.596 -0.322,5.743 l -0.011,0.004 c -0.973,2.556 -2.901,5.129 -5.782,7.724 l -0.008,0.003 c -6.194,5.573 -15.615,10.32 -28.262,14.209 -0.604,0.089 -1.216,0.215 -1.841,0.37 -0.328,-0.2 -0.661,-0.409 -0.983,-0.632 -0.183,-0.121 -0.365,-0.251 -0.548,-0.373 -0.495,-0.344 -0.987,-0.702 -1.475,-1.081 -0.538,-0.425 -1.073,-0.862 -1.604,-1.322 -0.703,-0.627 -1.396,-1.272 -2.076,-1.956 -0.815,-0.814 -1.604,-1.681 -2.385,-2.592 l -0.008,0.004 c -0.162,-0.2 -0.326,-0.399 -0.49,-0.589 -0.054,-0.011 -0.116,-0.014 -0.181,-0.027 l 0.031,0.011 c -0.759,-0.098 -1.462,-0.363 -2.082,-0.785 -0.068,-0.05 -0.138,-0.113 -0.192,-0.188 -0.002,-0.009 -0.002,-0.009 -0.014,-0.015 -0.017,-0.026 -0.045,-0.05 -0.073,-0.072 l -0.028,-0.022 c -0.014,-0.018 -0.03,-0.033 -0.05,-0.057 -0.449,-0.433 -0.697,-0.948 -0.746,-1.521 -0.032,-0.28 -0.028,-0.632 0.035,-1.073 l 0.009,-0.014 c 0.027,-0.185 0.06,-0.348 0.108,-0.498 -0.089,-0.128 -0.171,-0.257 -0.261,-0.386 l 1.503,-0.452 c 0.174,0.226 0.35,0.464 0.518,0.688 -0.058,0.081 -0.1,0.177 -0.142,0.281 l -0.007,0.012 c 0.003,0.009 0.003,0.009 -0.004,0.024 l -0.007,0.01 c -0.063,0.166 -0.108,0.354 -0.15,0.562 l 0.004,0.011 c -0.034,0.266 -0.051,0.479 -0.031,0.647 0.002,0.011 0.002,0.011 -0.005,0.021 0.037,0.229 0.138,0.424 0.325,0.595 0.037,0.02 0.057,0.056 0.076,0.081 0.008,-0.002 0.008,-0.002 0.01,0.007 0.018,0.016 0.044,0.039 0.062,0.062 0.016,0.016 0.029,0.031 0.048,0.06 0.396,0.241 0.823,0.391 1.283,0.449 0.01,-0.002 0.01,-0.002 0.021,0.004 0.11,0.019 0.213,0.019 0.313,0.019 0.017,0.006 0.032,10e-4 0.044,0.007 0.122,-0.005 0.243,-0.022 0.359,-0.046 0.05,0.139 0.141,0.289 0.27,0.446 0.17,0.193 0.354,0.386 0.531,0.594 0.106,0.122 0.218,0.251 0.31,0.38 0.013,0.005 0.036,0.02 0.05,0.028 0.725,0.83 1.459,1.623 2.21,2.364 0.607,0.614 1.226,1.189 1.856,1.734 1.117,0.971 2.276,1.86 3.452,2.652 l 0.016,0.007 c 0.178,0.121 0.359,0.241 0.54,0.362 12.842,-3.867 22.379,-8.596 28.604,-14.179 0.466,-0.431 0.906,-0.854 1.329,-1.269 0.064,-0.164 0.123,-0.339 0.166,-0.515 0.36,-1.285 0.224,-2.566 -0.432,-3.825 -0.63,-1.224 -1.589,-2.143 -2.886,-2.771 -0.647,-0.311 -1.328,-0.511 -2.023,-0.588 l 1.969,-0.593 c 0.442,0.061 0.877,0.168 1.305,0.317 1.534,0.539 2.627,1.56 3.291,3.044 0.413,0.958 0.565,1.903 0.464,2.83 0.974,-1.252 1.71,-2.506 2.197,-3.759 0.677,-1.762 0.772,-3.337 0.275,-4.706"
         id="path1583"
         style="fill:#e42126" />
      <path
         d="m 741.732,467.346 c -0.752,-0.094 -1.521,-0.046 -2.321,0.144 1.521,-0.677 2.953,-0.922 4.29,-0.736 l -1.969,0.592 z"
         id="path1585"
         style="fill:#e42126" />
      <path
         d="m 718.16,475.062 c -0.354,0.305 -0.712,0.577 -1.105,0.827 -0.002,-0.254 -0.004,-0.503 -0.024,-0.746 -0.004,-0.112 -0.016,-0.221 -0.03,-0.331 l 2.13,-0.641 c -0.326,0.293 -0.649,0.597 -0.971,0.891"
         id="path1587"
         style="fill:#e42126" />
      <path
         d="m 698.902,445.887 c -0.104,0.188 -0.138,0.386 -0.083,0.604 0.958,3.789 2.144,7.271 3.555,10.47 -0.03,-0.064 -0.048,-0.119 -0.075,-0.175 0.013,0.008 0.013,0.008 0.024,0.017 0.064,0.175 0.274,0.595 0.61,1.27 0.519,0.999 1.072,2.081 1.682,3.242 0.604,1.146 1.184,2.068 1.73,2.759 0.613,0.766 1.165,1.526 1.654,2.295 -0.043,0.003 -0.078,0.017 -0.113,0.036 -0.049,0.015 -0.086,0.025 -0.129,0.051 -0.02,0.005 -0.037,0.012 -0.059,0.016 -0.05,0.066 -0.107,0.118 -0.177,0.167 l -6.798,4.604 c -0.007,0.011 -0.017,0.036 -0.043,0.055 -1.014,-1.913 -1.97,-3.888 -2.865,-5.896 -0.678,-1.521 -1.229,-3.016 -1.645,-4.491 0.024,0.045 0.039,0.093 0.052,0.141 -1.229,-3.15 -2.386,-6.509 -3.491,-10.066 -0.028,-0.093 -0.075,-0.173 -0.127,-0.242 -0.066,-0.089 -0.15,-0.171 -0.264,-0.229 -0.138,-0.071 -0.289,-0.099 -0.438,-0.086 0.019,-0.118 0.04,-0.236 0.074,-0.359 0.295,-1.184 0.829,-2.255 1.584,-3.205 0.761,-0.963 1.658,-1.761 2.671,-2.408 0.388,-0.083 0.789,-0.091 1.192,-0.019 0.558,0.1 1.068,0.298 1.518,0.583 0.221,0.151 0.442,0.31 0.654,0.488 -0.078,-0.011 -0.145,0.003 -0.214,0.022 -0.144,0.032 -0.252,0.105 -0.356,0.209 -0.04,0.037 -0.086,0.086 -0.123,0.147"
         id="path1589"
         style="fill:#e86601" />
      <path
         d="m 700.682,471.295 c 0.026,-0.02 0.036,-0.044 0.043,-0.054 l 6.798,-4.604 c 0.069,-0.049 0.127,-0.101 0.177,-0.167 0.021,-0.004 0.039,-0.011 0.059,-0.016 0.043,-0.025 0.08,-0.036 0.129,-0.051 0.034,-0.02 0.07,-0.033 0.113,-0.035 0.087,-0.023 0.162,-0.037 0.243,-0.052 0.032,0.002 0.068,-0.009 0.098,-0.017 0.178,-0.024 0.365,-0.019 0.546,0 0.009,-0.002 0.009,-0.002 0.021,0.003 0.359,0.057 0.698,0.19 1.002,0.41 0.074,0.071 0.15,0.15 0.21,0.244 0.01,0.008 0.01,0.008 0.015,0.017 0.174,0.247 0.254,0.503 0.232,0.777 -0.003,0.022 -0.008,0.043 -0.008,0.073 -0.006,0.014 0,0.031 -0.006,0.047 -0.029,0.077 -0.047,0.158 -0.052,0.24 -0.007,0.146 -0.036,0.289 -0.082,0.438 -0.009,0.012 -0.007,0.021 -0.011,0.033 0.001,0.011 -0.006,0.023 -0.013,0.037 -0.004,0.021 -0.019,0.044 -0.022,0.057 -0.006,0.021 -0.019,0.045 -0.024,0.068 -0.1,0.236 -0.238,0.433 -0.393,0.597 -0.06,0.046 -0.118,0.095 -0.179,0.135 -0.017,0.015 -0.034,0.021 -0.061,0.039 l 0.007,-0.003 c -0.07,0.032 -0.137,0.083 -0.205,0.135 l -6.911,4.729 -0.019,0.015 c -0.068,0.009 -0.128,0.016 -0.188,0.026 -0.055,-0.006 -0.095,-0.004 -0.145,0.002 -0.105,-0.012 -0.215,-0.028 -0.325,-0.047 l -0.007,0.002 c -0.448,-0.083 -0.834,-0.294 -1.145,-0.633 l -10e-4,-0.01 c -0.064,-0.084 -0.131,-0.158 -0.179,-0.218 -0.208,-0.286 -0.315,-0.604 -0.319,-0.955 l -0.012,0.004 c 0.002,-0.404 0.121,-0.738 0.355,-1.025 l 0.009,-0.003 0.004,-0.012 c 0.029,-0.042 0.062,-0.072 0.098,-0.092 0.03,-0.039 0.062,-0.07 0.104,-0.105 0.017,-0.012 0.036,-0.018 0.044,-0.029"
         id="path1591"
         style="fill:#e27c9f" />
      <path
         d="m 703.018,475.41 c -0.205,-0.338 -0.414,-0.691 -0.609,-1.033 l 6.911,-4.729 c 0.068,-0.052 0.136,-0.103 0.205,-0.134 l -0.007,0.002 c 0.026,-0.019 0.044,-0.024 0.06,-0.039 0.062,-0.04 0.12,-0.088 0.18,-0.135 0.154,-0.164 0.293,-0.359 0.393,-0.597 0.024,0.035 0.054,0.066 0.077,0.111 0.502,0.81 1.104,1.534 1.81,2.188 0.102,0.106 0.214,0.206 0.327,0.304 0.081,0.069 0.167,0.148 0.245,0.229 0.378,0.327 0.754,0.646 1.144,0.951 -0.259,0.07 -0.489,0.157 -0.713,0.27 -0.154,0.078 -0.299,0.149 -0.437,0.234 -0.024,0.018 -0.044,0.023 -0.068,0.04 -0.01,0.003 -0.01,0.003 -0.017,0.017 l -6.871,5.863 c -0.02,0.037 -0.047,0.087 -0.076,0.126 h -0.01 c -0.008,0.015 -0.014,0.027 -0.021,0.039 -0.901,-1.183 -1.752,-2.413 -2.523,-3.707"
         id="path1593"
         style="fill:#e86601" />
      <path
         d="m 707.843,481.747 c 0.024,0.015 0.052,0.036 0.068,0.063 l 8.875,-7.614 -0.023,-0.129 c -0.002,-0.008 -0.007,-0.027 -0.009,-0.046 -0.007,-0.021 -0.016,-0.039 -0.019,-0.059 -0.009,-0.026 -0.017,-0.055 -0.026,-0.085 0.08,0.028 0.136,0.071 0.179,0.146 0.028,0.123 0.042,0.242 0.06,0.372 0.041,0.247 0.068,0.497 0.084,0.748 0.02,0.242 0.021,0.491 0.023,0.745 0.394,-0.25 0.752,-0.522 1.105,-0.827 0.893,-0.807 1.75,-1.622 2.583,-2.452 6.288,-6.018 12.478,-9.796 18.572,-11.356 2.933,-0.752 5.487,-0.831 7.677,-0.253 1.941,0.518 3.278,1.489 4.014,2.928 0.741,1.502 0.721,3.251 -0.048,5.258 -0.487,1.253 -1.224,2.507 -2.197,3.759 0.103,-0.926 -0.051,-1.872 -0.464,-2.83 -0.664,-1.484 -1.757,-2.505 -3.291,-3.044 -1.706,-0.619 -3.576,-0.479 -5.595,0.419 1.536,-0.347 2.983,-0.21 4.346,0.445 1.296,0.628 2.255,1.547 2.885,2.771 0.655,1.259 0.792,2.54 0.431,3.825 -0.041,0.177 -0.101,0.351 -0.165,0.515 -0.423,0.415 -0.863,0.838 -1.329,1.269 -6.225,5.583 -15.762,10.312 -28.604,14.179 -0.181,-0.121 -0.362,-0.241 -0.54,-0.362 l -0.016,-0.007 c -1.176,-0.792 -2.335,-1.682 -3.452,-2.652 -0.63,-0.545 -1.249,-1.119 -1.856,-1.734 -0.751,-0.741 -1.485,-1.534 -2.21,-2.364 -0.014,-0.009 -0.037,-0.023 -0.05,-0.028 -0.092,-0.129 -0.203,-0.258 -0.31,-0.38 -0.178,-0.208 -0.361,-0.4 -0.531,-0.594 -0.129,-0.157 -0.22,-0.308 -0.27,-0.446 -0.022,-0.075 -0.033,-0.145 -0.033,-0.217 0.049,-0.008 0.094,-10e-4 0.136,0.037"
         id="path1595"
         style="fill:#e86601" />
      <path
         d="m 707.911,481.81 c -0.017,-0.026 -0.044,-0.048 -0.068,-0.062 -0.042,-0.038 -0.087,-0.045 -0.136,-0.04 0,0.072 0.011,0.142 0.033,0.217 -0.116,0.023 -0.237,0.041 -0.359,0.046 -0.012,-0.006 -0.027,-10e-4 -0.043,-0.007 -0.102,0 -0.204,0 -0.314,-0.019 -0.012,-0.006 -0.012,-0.006 -0.021,-0.004 -0.46,-0.059 -0.888,-0.208 -1.283,-0.449 -0.019,-0.028 -0.032,-0.044 -0.047,-0.06 -0.019,-0.023 -0.045,-0.047 -0.062,-0.062 -0.002,-0.009 -0.002,-0.009 -0.011,-0.007 -0.019,-0.025 -0.038,-0.062 -0.075,-0.081 -0.188,-0.171 -0.288,-0.364 -0.325,-0.595 0.007,-0.011 0.007,-0.011 0.005,-0.021 -0.02,-0.169 -0.003,-0.383 0.031,-0.648 l -0.004,-0.011 c 0.042,-0.208 0.087,-0.396 0.15,-0.562 l 0.007,-0.01 c 0.007,-0.016 0.007,-0.016 0.003,-0.024 l 0.008,-0.012 c 0.042,-0.104 0.084,-0.2 0.142,-0.281 0.007,-0.012 0.013,-0.024 0.021,-0.038 h 0.01 c 0.028,-0.04 0.057,-0.09 0.076,-0.127 l 6.871,-5.863 c 0.007,-0.014 0.007,-0.014 0.017,-0.017 0.024,-0.017 0.044,-0.022 0.068,-0.04 0.138,-0.085 0.282,-0.156 0.436,-0.234 0.225,-0.112 0.455,-0.199 0.714,-0.27 0.067,-0.02 0.141,-0.042 0.21,-0.062 0.025,-0.009 0.065,-0.019 0.093,-0.025 0.453,-0.109 0.877,-0.062 1.288,0.125 l 0.007,-0.004 c 0.407,0.178 0.738,0.418 1.002,0.744 0.01,0.006 0.01,0.006 0.013,0.017 0.073,0.068 0.124,0.136 0.17,0.213 0.074,0.113 0.131,0.231 0.175,0.341 0.01,0.03 0.018,0.059 0.026,0.085 0.003,0.02 0.012,0.037 0.019,0.059 0.002,0.019 0.007,0.037 0.009,0.046 l 0.023,0.129 -8.879,7.613 z"
         id="path1597"
         style="fill:#e27c9f" />
      <path
         d="m 702.946,458.965 c 0.009,-0.011 0.009,-0.011 0.016,-0.015 0.056,-0.049 0.107,-0.084 0.173,-0.112 0.063,-0.029 0.116,-0.057 0.181,-0.086 0.788,-0.158 1.504,0.02 2.144,0.539 0.42,0.328 0.706,0.728 0.883,1.2 0.002,0.01 0.002,0.02 0.016,0.026 0.003,0.009 0.003,0.009 -0.006,0.021 0.059,0.154 0.101,0.321 0.122,0.501 0.036,0.288 0.02,0.541 -0.062,0.761 0,0.104 -0.017,0.21 -0.033,0.329 -0.037,0.105 -0.094,0.207 -0.152,0.313 -0.334,0.598 -0.809,1.018 -1.426,1.268 -0.019,-0.003 -0.039,0.002 -0.045,0.016 -0.03,-0.002 -0.052,0.003 -0.08,0.01 l -7.425,3.483 -0.299,-0.062 c -0.329,0.025 -0.661,-0.072 -1.001,-0.277 -0.738,-0.468 -1.177,-1.13 -1.31,-2.011 -0.125,-0.86 0.062,-1.648 0.546,-2.361 0.028,-0.011 0.043,-0.004 0.035,0.009 0.002,0.009 0.002,0.009 -0.004,0.021 l 7.398,-3.474 c 0.109,-0.042 0.224,-0.078 0.329,-0.099"
         id="path1599"
         style="fill:#e27c9f" />
      <path
         d="m 700.21,470.656 -0.005,-0.013 0.007,-0.013 c 0.043,-0.064 0.08,-0.139 0.135,-0.206 0.021,0.025 0.027,0.062 0.037,0.094 l 6.692,-4.54 c 0.004,-0.023 0.018,-0.049 0.022,-0.06 l 0.048,-0.055 c 0.574,-0.319 1.198,-0.435 1.854,-0.355 0.073,0.009 0.146,0.03 0.219,0.05 0.105,0.039 0.208,0.1 0.303,0.177 0.219,0.109 0.417,0.256 0.599,0.448 0.6,0.635 0.888,1.396 0.86,2.271 -0.01,0.405 -0.111,0.722 -0.295,0.965 -0.185,0.313 -0.413,0.55 -0.691,0.726 -0.04,0.032 -0.086,0.057 -0.129,0.083 l 0.004,0.008 -6.94,4.746 c -0.147,-0.006 -0.303,-0.013 -0.476,0 -0.07,0 -0.143,0 -0.213,0.012 -0.021,-0.003 -0.04,0.003 -0.072,0.003 -0.008,0.002 -0.008,0.002 -0.013,-0.008 -0.117,-0.019 -0.253,-0.048 -0.387,-0.087 -0.715,-0.182 -1.268,-0.674 -1.655,-1.486 -0.02,-0.024 -0.026,-0.042 -0.044,-0.069 l -0.131,-0.402 c -0.005,-0.01 -0.005,-0.019 0,-0.031 -0.003,-0.008 -0.003,-0.008 -0.005,-0.019 -0.211,-0.806 -0.126,-1.555 0.276,-2.239"
         id="path1601"
         style="fill:#e27c9f" />
      <path
         d="m 707.686,482.631 c -0.139,-0.02 -0.281,-0.039 -0.414,-0.069 -0.118,-0.018 -0.236,-0.031 -0.356,-0.055 -0.922,-0.212 -1.568,-0.749 -1.952,-1.613 -0.276,-0.64 -0.338,-1.251 -0.195,-1.842 0.008,-0.073 0.008,-0.136 0.011,-0.198 l 0.008,-0.012 c 0.039,-0.075 0.082,-0.14 0.126,-0.204 0.004,-0.022 0.017,-0.045 0.024,-0.058 l -0.022,-0.033 0.063,-0.055 c 0.023,-0.036 0.041,-0.081 0.061,-0.122 0.006,0.02 0.009,0.043 0.013,0.052 l 7.036,-6.006 c 0.023,-0.02 0.062,-0.031 0.099,-0.052 0.023,-0.017 0.043,-0.024 0.06,-0.038 0.949,-0.248 1.904,-0.256 2.879,-0.034 0.499,0.12 0.909,0.376 1.21,0.79 0.337,0.466 0.57,0.968 0.721,1.498 -0.016,0.128 -0.036,0.248 -0.1,0.36 0.014,0.046 0.023,0.108 0.027,0.154 l -8.705,7.442 -0.594,0.095 z m 9.108,-8.396 c 0.005,-0.021 -0.002,-0.041 -0.003,-0.049 -0.011,-0.071 -0.035,-0.146 -0.063,-0.211 l -0.007,0.011 c 0.023,0.078 0.047,0.162 0.073,0.249"
         id="path1603"
         style="fill:#e27c9f" />
      <path
         d="m 680.671,440.921 c 0.065,-0.155 0.08,-0.317 0.044,-0.469 1.08,0.109 2.069,0.483 2.947,1.137 0.909,0.655 1.638,1.496 2.188,2.493 0.104,0.298 0.206,0.614 0.306,0.961 0.015,0.062 0.025,0.121 0.032,0.188 -0.17,-0.035 -0.333,-0.013 -0.494,0.062 -0.122,0.067 -0.224,0.15 -0.297,0.256 -0.043,0.061 -0.074,0.127 -0.104,0.203 -1.271,3.709 -2.701,6.99 -4.287,9.857 -0.059,0.163 -0.134,0.325 -0.214,0.48 -0.231,0.504 -0.501,1.009 -0.817,1.494 l -5.146,-5.229 -0.011,0.006 -0.536,-0.547 c 0.486,-0.569 0.945,-1.158 1.389,-1.755 1.663,-2.421 3.208,-5.202 4.632,-8.34 0.128,-0.264 0.246,-0.524 0.368,-0.797"
         id="path1605"
         style="fill:#e86601" />
      <path
         d="m 680.676,440.312 c 0.018,0.047 0.033,0.095 0.039,0.14 0.036,0.151 0.021,0.313 -0.044,0.469 -0.122,0.273 -0.24,0.533 -0.368,0.799 -1.424,3.138 -2.969,5.919 -4.632,8.34 -0.443,0.597 -0.902,1.186 -1.389,1.755 l -0.035,-0.041 c -0.087,-0.026 -0.183,-0.048 -0.276,-0.068 -0.027,-0.007 -0.056,-0.014 -0.093,-0.015 -0.287,-0.054 -0.588,-0.054 -0.903,0.002 -0.016,-0.003 -0.022,0.001 -0.035,-10e-4 -0.185,0.021 -0.367,0.103 -0.539,0.217 -0.394,0.289 -0.662,0.68 -0.8,1.147 -0.096,0.337 -0.108,0.674 -0.036,1.011 l 0.004,0.011 0.328,0.318 c -0.181,0.182 -0.368,0.368 -0.56,0.543 -0.271,0.263 -0.552,0.519 -0.841,0.766 l -0.692,-1.117 c 0.075,-0.068 0.147,-0.135 0.215,-0.2 -0.123,-0.59 -0.104,-1.181 0.06,-1.762 0.229,-0.825 0.694,-1.486 1.379,-1.992 0.008,-0.006 0.018,-0.01 0.018,-0.01 0.386,-0.273 0.797,-0.437 1.243,-0.491 0.013,0.003 0.028,-0.007 0.037,-0.013 0.327,-0.05 0.653,-0.068 0.972,-0.044 1.996,-2.749 3.828,-6.016 5.498,-9.794 0.086,-0.204 0.231,-0.34 0.428,-0.418 0.211,-0.072 0.414,-0.065 0.615,0.016 0.201,0.085 0.34,0.23 0.407,0.432"
         id="path1607"
         style="fill:#e42126" />
      <path
         d="m 686.749,445.663 c 0.098,0.196 0.107,0.397 0.038,0.606 -0.708,2.067 -1.468,4.011 -2.279,5.834 -0.86,1.915 -1.765,3.697 -2.728,5.328 0.196,0.359 0.345,0.729 0.458,1.121 0.123,0.438 0.147,0.875 0.062,1.312 l 0.007,-0.004 c -0.044,0.248 -0.101,0.491 -0.168,0.743 -0.007,0.04 -0.024,0.072 -0.037,0.106 -0.129,0.301 -0.324,0.583 -0.57,0.861 -0.029,0.031 -0.055,0.061 -0.091,0.083 -0.193,0.153 -0.376,0.291 -0.551,0.401 -0.037,0.02 -0.068,0.039 -0.118,0.057 -0.756,0.318 -1.516,0.407 -2.279,0.274 l -0.015,-0.002 c -0.014,-0.003 -0.044,-0.009 -0.079,-0.01 -0.712,0.896 -1.454,1.721 -2.225,2.484 l -0.853,-1.376 c 0.537,-0.557 1.07,-1.141 1.579,-1.771 l -0.01,-0.009 c 0.349,-0.398 0.679,-0.802 1.013,-1.219 0.142,0.098 0.287,0.181 0.448,0.233 0.014,0.004 0.026,0.007 0.031,0.015 0.127,0.038 0.251,0.066 0.373,0.094 0.454,0.08 0.898,0.028 1.345,-0.149 0.096,-0.057 0.19,-0.128 0.292,-0.213 0.095,-0.105 0.173,-0.225 0.229,-0.338 0.051,-0.187 0.093,-0.36 0.124,-0.532 l -0.003,-0.008 c 0.037,-0.202 0.028,-0.404 -0.03,-0.611 l 0.003,0.009 c -0.114,-0.392 -0.28,-0.755 -0.504,-1.093 l -0.008,-0.02 c -0.067,-0.085 -0.138,-0.182 -0.223,-0.282 l -0.007,-0.007 c 0.316,-0.485 0.586,-0.99 0.817,-1.494 0.08,-0.156 0.155,-0.317 0.214,-0.48 1.586,-2.867 3.017,-6.148 4.287,-9.857 0.03,-0.076 0.061,-0.144 0.104,-0.203 0.073,-0.105 0.175,-0.188 0.297,-0.256 0.161,-0.074 0.324,-0.097 0.493,-0.062 0.041,0.01 0.07,0.016 0.112,0.024 0.209,0.074 0.364,0.211 0.452,0.411"
         id="path1609"
         style="fill:#e42126" />
      <path
         d="m 675.508,465.494 c 0.017,0.234 0.007,0.461 -0.02,0.697 -0.004,0.015 -0.002,0.038 -0.007,0.052 -0.114,0.617 -0.368,1.182 -0.76,1.716 -0.002,0.013 -0.018,0.023 -0.031,0.043 -0.147,0.174 -0.334,0.346 -0.555,0.494 -0.553,0.402 -1.135,0.564 -1.758,0.519 -0.015,-0.003 -0.037,0 -0.05,-0.003 -0.151,0 -0.293,-0.026 -0.436,-0.065 -0.236,-0.004 -0.481,-0.063 -0.734,-0.149 -1.619,0.968 -3.321,1.712 -5.108,2.224 -0.153,0.411 -0.387,0.763 -0.712,1.081 l -0.009,0.006 c -0.468,0.465 -0.999,0.793 -1.586,0.984 -0.399,0.166 -0.771,0.245 -1.118,0.264 -0.088,0.007 -0.182,0.007 -0.279,-0.002 l -0.015,-0.004 c -0.343,-0.008 -0.643,-0.078 -0.887,-0.191 -0.15,-0.039 -0.273,-0.123 -0.372,-0.247 -0.007,-0.007 -0.011,-0.018 -0.025,-0.021 -0.025,-0.018 -0.034,-0.035 -0.059,-0.059 1.192,2.784 3.182,5.112 5.974,6.974 3.702,2.482 6.464,5.83 8.289,10.05 l -0.016,-0.027 c 1.311,2.792 1.505,5.394 0.581,7.802 -0.212,0.583 -0.484,1.116 -0.817,1.611 l -0.947,-1.528 c 0.106,-0.207 0.198,-0.412 0.284,-0.63 l -0.004,-0.01 c 0.748,-2.034 0.572,-4.228 -0.531,-6.577 0.003,-0.013 0.003,-0.013 -0.002,-0.023 -1.691,-3.926 -4.265,-7.041 -7.722,-9.354 -3.747,-2.502 -6.171,-5.753 -7.278,-9.754 -0.036,-0.151 -0.031,-0.295 0.014,-0.45 0.943,0.08 1.885,0.043 2.839,-0.106 -0.004,-0.025 -0.015,-0.044 -0.023,-0.057 0.014,0.023 0.025,0.042 0.031,0.071 l 0.325,0.674 c 0.013,0.002 0.013,0.002 0.012,0.015 0.02,0.037 0.035,0.059 0.044,0.09 0.021,0.02 0.03,0.036 0.042,0.053 l 0.008,0.008 c 0.015,0.026 0.023,0.045 0.035,0.061 0.078,0.032 0.168,0.046 0.275,0.05 0.014,0.003 0.014,0.003 0.021,-0.003 0.228,0.011 0.486,-0.043 0.755,-0.152 0.016,-0.009 0.033,-0.021 0.045,-0.02 0.376,-0.126 0.702,-0.328 1.003,-0.617 0.204,-0.21 0.343,-0.455 0.401,-0.737 l 0.002,-0.014 c 0.004,-0.014 0.004,-0.014 0.006,-0.028 0.004,-0.015 0.011,-0.041 0.013,-0.055 0.005,-0.015 0.012,-0.041 0.011,-0.062 0.421,-0.123 0.84,-0.254 1.255,-0.395 0.382,-0.134 0.708,-0.302 0.962,-0.508 0.063,-0.05 0.128,-0.098 0.184,-0.158 0.425,-0.157 0.846,-0.339 1.257,-0.521 0.355,-0.16 0.692,-0.326 1.036,-0.503 0.013,0.003 0.029,-0.007 0.043,-0.005 0.562,-0.313 1.122,-0.648 1.653,-1.015 0.107,0.086 0.224,0.154 0.344,0.219 l 0.014,0.003 c 0.012,0.003 0.03,0.016 0.047,0.019 0.05,0.026 0.104,0.038 0.156,0.065 0.014,0.004 0.014,0.004 0.026,0.007 0.133,0.047 0.255,0.074 0.385,0.075 0.118,-10e-4 0.218,0.015 0.324,0.053 0.035,0.002 0.062,0.012 0.099,0.012 0.282,0.022 0.537,-0.056 0.777,-0.228 0.01,-0.006 0.01,-0.006 0.018,-0.009 0.089,-0.06 0.161,-0.114 0.222,-0.185 0.233,-0.321 0.393,-0.665 0.461,-1.042 0.019,-0.211 0.024,-0.41 -0.016,-0.607 l -0.003,-0.022 c -0.004,-0.007 -0.004,-0.007 -0.002,-0.021 l -0.006,-0.009 c -0.021,-0.128 -0.048,-0.25 -0.089,-0.374 -0.01,-0.007 -0.017,-0.024 -0.017,-0.046 0.359,-0.318 0.715,-0.645 1.051,-0.982 0.058,-0.043 0.095,-0.091 0.144,-0.146 0.011,0.018 0.016,0.027 0.02,0.034 0.112,-0.101 0.209,-0.211 0.319,-0.312 l 0.854,1.376 c -0.218,0.211 -0.433,0.428 -0.667,0.631"
         id="path1611"
         style="fill:#e42126" />
      <path
         d="m 669.804,454.587 0.692,1.117 c -0.635,0.568 -1.3,1.11 -1.983,1.639 0.046,0.019 0.082,0.043 0.116,0.078 -0.057,-0.033 -0.113,-0.068 -0.167,-0.104 -0.048,-0.019 -0.083,-0.041 -0.136,-0.069 -0.184,-0.085 -0.387,-0.119 -0.616,-0.106 -0.011,-0.004 -0.02,0.002 -0.032,-0.002 -0.358,0.002 -0.681,0.107 -0.975,0.326 -0.002,0.013 -0.002,0.013 -0.017,0.009 -0.037,0.036 -0.085,0.088 -0.156,0.143 -0.007,0.005 -0.007,0.005 -0.016,0.009 -0.358,0.308 -0.576,0.685 -0.663,1.146 l -0.005,0.014 c -0.004,0.086 -0.015,0.16 -0.024,0.24 0.008,0.026 0,0.054 0,0.091 -0.003,0.037 -0.003,0.071 0.004,0.102 -0.085,0.054 -0.169,0.103 -0.252,0.155 -1.202,0.747 -2.482,1.307 -3.821,1.676 -0.265,0.009 -0.539,0.03 -0.824,0.076 l -0.027,-0.041 c -0.015,-0.023 -0.025,-0.039 -0.051,-0.061 -0.181,-0.2 -0.47,-0.385 -0.854,-0.553 -0.005,-0.009 -0.01,-0.016 -0.023,-0.018 -0.238,-0.122 -0.435,-0.199 -0.6,-0.224 -0.017,-0.003 -0.017,-0.003 -0.028,-0.007 -0.235,-0.039 -0.472,-0.009 -0.706,0.102 -0.041,0.025 -0.089,0.044 -0.136,0.061 -0.01,0.006 -0.01,0.006 -0.018,0.011 l -0.008,0.005 c -0.015,-0.003 -0.03,0.007 -0.049,0.021 l 0.034,-0.024 c -0.007,0.004 -0.023,0.018 -0.038,0.012 -0.019,0.013 -0.034,0.022 -0.051,0.033 -0.346,0.247 -0.614,0.568 -0.81,0.942 l 0.004,-0.013 c -0.065,0.121 -0.116,0.246 -0.152,0.376 0.005,0.007 0.005,0.007 0,0.021 -0.015,0.067 -0.021,0.132 -0.032,0.192 l 0.082,0.169 c -0.17,0.024 -0.34,0.052 -0.515,0.068 -0.508,0.045 -0.992,0.125 -1.461,0.237 -1.097,0.044 -2.219,0.017 -3.365,-0.086 l -1.06,-1.714 c 1.733,0.229 3.399,0.288 5.017,0.181 0.027,-0.052 0.047,-0.099 0.07,-0.15 l 0.005,-0.015 c 0.327,-0.631 0.795,-1.154 1.392,-1.561 0.059,-0.035 0.123,-0.063 0.188,-0.09 0.023,-0.016 0.061,-0.037 0.088,-0.044 0.041,-0.027 0.081,-0.04 0.129,-0.057 0.549,-0.259 1.104,-0.337 1.654,-0.235 0.293,0.039 0.651,0.167 1.068,0.372 l -0.032,-0.015 c 0.449,0.197 0.802,0.41 1.078,0.646 0.88,-0.304 1.729,-0.676 2.564,-1.113 0.003,-0.014 0.008,-0.042 0.008,-0.063 0.007,-0.008 0.007,-0.008 0.002,-0.015 0.151,-0.825 0.554,-1.505 1.192,-2.054 l -0.018,0.011 c 0.104,-0.097 0.197,-0.169 0.276,-0.228 l -0.018,0.011 c 0.589,-0.458 1.245,-0.677 1.973,-0.666 l -0.029,0.007 c 0.332,-0.009 0.633,0.027 0.914,0.109 0.421,-0.34 0.822,-0.707 1.218,-1.08"
         id="path1613"
         style="fill:#e42126" />
      <path
         d="m 674.052,497.713 0.947,1.528 c -1.08,1.611 -2.819,2.784 -5.209,3.488 -2.984,0.906 -6.643,0.442 -10.997,-1.382 l 0.011,-0.006 c -4.271,-1.784 -8.017,-5.146 -11.226,-10.074 l -0.012,-0.019 c -3.107,-4.898 -4.988,-10.745 -5.621,-17.524 -0.653,-6.961 0.285,-11.68 2.814,-14.145 0.11,-0.104 0.227,-0.176 0.371,-0.208 0.152,-0.035 0.297,-0.03 0.427,0.014 1.896,0.605 3.734,1.013 5.509,1.25 l 1.06,1.714 c -2.102,-0.186 -4.279,-0.625 -6.553,-1.306 -1.935,2.338 -2.614,6.515 -2.057,12.53 0.613,6.503 2.404,12.112 5.384,16.826 3.013,4.628 6.52,7.795 10.509,9.481 3.931,1.672 7.237,2.11 9.932,1.335 2.289,-0.674 3.857,-1.843 4.711,-3.502"
         id="path1615"
         style="fill:#e42126" />
      <path
         d="m 671.337,454.938 c 0.191,-0.175 0.379,-0.361 0.56,-0.543 l 5.55,5.632 c 0.036,0.043 0.077,0.091 0.106,0.142 l 0.008,0.008 c 0.022,0.019 0.039,0.042 0.056,0.069 l 0.185,0.163 c 0.034,0.025 0.073,0.05 0.103,0.077 -0.334,0.417 -0.664,0.82 -1.013,1.219 l 0.009,0.009 c -0.613,0.738 -1.243,1.433 -1.898,2.082 -0.004,-0.007 -0.009,-0.017 -0.02,-0.034 -0.049,0.055 -0.086,0.103 -0.144,0.146 -0.336,0.338 -0.691,0.664 -1.051,0.982 l -0.013,0.004 c -0.013,-0.038 -0.024,-0.075 -0.038,-0.116 l -0.012,-0.025 c -0.062,-0.042 -0.11,-0.096 -0.15,-0.163 l -4.556,-6.768 c -0.05,-0.042 -0.095,-0.082 -0.143,-0.136 -0.005,-0.007 -0.009,-0.015 -0.016,-0.023 -0.019,-0.036 -0.04,-0.068 -0.07,-0.097 l -0.004,-0.008 c -0.007,-0.008 -0.007,-0.008 -0.019,-0.01 -0.008,-0.01 -0.012,-0.019 -0.015,-0.026 0,0 -0.008,-0.009 -0.021,-0.012 l -0.104,-0.089 c -0.034,-0.035 -0.07,-0.06 -0.116,-0.078 0.989,-0.753 1.925,-1.552 2.826,-2.405"
         id="path1617"
         style="fill:#e86601" />
      <path
         d="m 674.247,451.773 0.035,0.041 0.536,0.547 0.011,-0.006 5.146,5.229 0.007,0.007 c 0.085,0.101 0.155,0.197 0.223,0.282 l 0.008,0.019 c 0.224,0.339 0.39,0.702 0.504,1.094 l -0.003,-0.009 c 0.059,0.208 0.067,0.409 0.03,0.611 l 0.003,0.008 c -0.031,0.172 -0.073,0.346 -0.124,0.531 -0.057,0.114 -0.135,0.233 -0.229,0.339 -0.103,0.085 -0.197,0.156 -0.292,0.213 -0.447,0.178 -0.892,0.229 -1.346,0.149 -0.122,-0.027 -0.246,-0.056 -0.373,-0.094 -0.005,-0.009 -0.018,-0.011 -0.031,-0.015 -0.161,-0.053 -0.307,-0.136 -0.448,-0.233 -0.029,-0.028 -0.068,-0.052 -0.103,-0.077 l -0.185,-0.163 c -0.017,-0.027 -0.033,-0.051 -0.056,-0.069 l -0.008,-0.008 c -0.029,-0.051 -0.07,-0.099 -0.106,-0.142 l -5.55,-5.632 -0.328,-0.318 -0.004,-0.011 c -0.072,-0.337 -0.06,-0.674 0.037,-1.011 0.137,-0.468 0.405,-0.858 0.799,-1.147 0.171,-0.114 0.354,-0.197 0.539,-0.217 0.013,0.002 0.02,-0.002 0.035,0.001 0.315,-0.056 0.616,-0.056 0.903,-0.002 0.037,10e-4 0.065,0.008 0.093,0.015 0.094,0.021 0.19,0.042 0.277,0.068"
         id="path1619"
         style="fill:#e27c9f" />
      <path
         d="m 668.462,457.316 c 0.054,0.036 0.11,0.071 0.167,0.104 l 0.104,0.09 c 0.013,0.003 0.021,0.012 0.021,0.012 0.003,0.008 0.007,0.017 0.015,0.026 0.012,0.002 0.012,0.002 0.019,0.01 l 0.004,0.008 c 0.03,0.028 0.052,0.06 0.07,0.097 0.007,0.008 0.011,0.017 0.016,0.023 0.048,0.054 0.093,0.094 0.143,0.136 l 4.556,6.768 c 0.04,0.067 0.088,0.12 0.15,0.163 l 0.012,0.025 c 0.014,0.041 0.025,0.078 0.038,0.116 l 0.013,-0.004 c 0,0.021 0.007,0.039 0.017,0.046 0.041,0.124 0.068,0.247 0.089,0.374 l 0.006,0.009 c -0.002,0.014 -0.002,0.014 10e-4,0.021 l 0.004,0.022 c 0.04,0.197 0.034,0.396 0.016,0.607 -0.068,0.377 -0.229,0.721 -0.461,1.042 -0.061,0.07 -0.133,0.125 -0.222,0.185 -0.008,0.003 -0.008,0.003 -0.018,0.009 -0.24,0.172 -0.495,0.25 -0.778,0.228 -0.035,0 -0.062,-0.01 -0.098,-0.012 -0.106,-0.038 -0.206,-0.054 -0.324,-0.053 -0.13,-10e-4 -0.252,-0.028 -0.385,-0.075 -0.013,-0.003 -0.013,-0.003 -0.026,-0.007 -0.052,-0.027 -0.106,-0.039 -0.156,-0.065 -0.017,-0.003 -0.035,-0.016 -0.046,-0.019 l -0.015,-0.003 c -0.12,-0.064 -0.235,-0.133 -0.344,-0.219 -0.014,-0.004 -0.018,-0.011 -0.039,-0.022 -0.116,-0.091 -0.208,-0.206 -0.286,-0.332 -0.024,-0.032 -0.043,-0.066 -0.072,-0.096 -0.003,-0.009 -0.01,-0.018 -0.016,-0.025 -0.026,-0.041 -0.063,-0.087 -0.1,-0.123 l -4.689,-6.942 c -0.01,-0.075 -0.008,-0.146 -0.019,-0.221 -0.007,-0.03 -0.007,-0.064 -0.004,-0.102 0,-0.037 0.008,-0.064 0,-0.092 0.01,-0.079 0.021,-0.153 0.024,-0.239 l 0.005,-0.014 c 0.087,-0.462 0.305,-0.839 0.663,-1.146 0.009,-0.004 0.009,-0.004 0.016,-0.009 0.071,-0.055 0.118,-0.106 0.156,-0.143 0.015,0.004 0.015,0.004 0.017,-0.009 0.294,-0.219 0.616,-0.324 0.975,-0.326 0.013,0.004 0.021,-0.002 0.032,0.002 0.229,-0.012 0.433,0.021 0.616,0.106 0.05,0.028 0.085,0.051 0.133,0.069"
         id="path1621"
         style="fill:#e27c9f" />
      <path
         d="m 665.574,459.373 c 0.083,-0.053 0.168,-0.102 0.252,-0.155 0.011,0.074 0.009,0.146 0.019,0.22 l 4.689,6.943 c 0.036,0.036 0.073,0.081 0.1,0.124 0.006,0.007 0.013,0.015 0.017,0.024 0.027,0.029 0.047,0.063 0.07,0.096 0.079,0.126 0.171,0.241 0.287,0.332 0.021,0.012 0.025,0.019 0.039,0.021 -0.531,0.367 -1.091,0.702 -1.653,1.016 -0.014,-0.002 -0.029,0.008 -0.043,0.005 -0.344,0.177 -0.681,0.343 -1.036,0.503 -0.41,0.183 -0.832,0.364 -1.257,0.521 -0.056,0.061 -0.12,0.108 -0.184,0.158 -0.254,0.206 -0.58,0.374 -0.962,0.508 -0.415,0.141 -0.834,0.271 -1.255,0.395 10e-4,-0.013 0.005,-0.029 0.007,-0.043 0.006,-0.012 0.002,-0.033 0,-0.057 0.01,-0.004 0.01,-0.004 0.002,-0.012 l 0.006,-0.015 c 0.017,-0.256 0.01,-0.508 -0.018,-0.756 -0.022,-0.188 -0.056,-0.373 -0.108,-0.55 l -3.618,-7.527 c 0.286,-0.046 0.561,-0.067 0.825,-0.076 1.339,-0.368 2.619,-0.928 3.821,-1.675"
         id="path1623"
         style="fill:#e86601" />
      <path
         d="m 660.901,461.084 0.027,0.041 3.618,7.527 c 0.052,0.177 0.085,0.362 0.107,0.55 0.027,0.248 0.034,0.5 0.019,0.756 l -0.007,0.015 c 0.008,0.008 0.008,0.008 -0.002,0.012 0.002,0.023 0.006,0.045 0,0.057 -0.002,0.014 -0.006,0.03 -0.007,0.043 0.001,0.021 -0.006,0.048 -0.011,0.063 -0.002,0.013 -0.009,0.04 -0.013,0.054 -0.002,0.015 -0.002,0.015 -0.006,0.029 l -0.002,0.013 c -0.059,0.282 -0.197,0.528 -0.401,0.737 -0.301,0.289 -0.627,0.491 -1.003,0.617 -0.012,-0.002 -0.029,0.011 -0.045,0.02 -0.269,0.109 -0.527,0.163 -0.754,0.152 -0.009,0.006 -0.009,0.006 -0.022,0.003 -0.107,-0.004 -0.197,-0.018 -0.275,-0.05 -0.011,-0.016 -0.021,-0.034 -0.035,-0.061 l -0.008,-0.008 c -0.011,-0.017 -0.021,-0.033 -0.042,-0.053 -0.009,-0.031 -0.024,-0.053 -0.044,-0.09 10e-4,-0.013 10e-4,-0.013 -0.012,-0.015 l -0.325,-0.674 c -0.006,-0.029 -0.018,-0.048 -0.031,-0.071 l -0.021,-0.033 -4.14,-8.589 -0.082,-0.169 c 0.011,-0.062 0.018,-0.125 0.032,-0.192 0.006,-0.014 0.006,-0.014 0,-0.021 0.036,-0.13 0.087,-0.255 0.152,-0.376 l -0.004,0.013 c 0.195,-0.374 0.464,-0.695 0.81,-0.942 0.017,-0.011 0.032,-0.021 0.051,-0.033 0.015,0.006 0.031,-0.008 0.038,-0.012 l -0.034,0.024 c 0.019,-0.015 0.034,-0.024 0.049,-0.022 l 0.008,-0.003 c 0.008,-0.006 0.008,-0.006 0.018,-0.012 0.047,-0.017 0.095,-0.035 0.136,-0.061 0.234,-0.11 0.471,-0.141 0.706,-0.102 0.012,0.004 0.012,0.004 0.028,0.008 0.165,0.023 0.361,0.101 0.6,0.223 0.014,0.002 0.02,0.009 0.023,0.018 0.384,0.168 0.673,0.353 0.854,0.553 0.025,0.022 0.036,0.038 0.05,0.061"
         id="path1625"
         style="fill:#e27c9f" />
      <path
         d="m 655.492,462.436 c 0.468,-0.112 0.952,-0.192 1.46,-0.237 0.175,-0.017 0.345,-0.044 0.515,-0.068 l 4.14,8.589 0.021,0.033 c 0.009,0.014 0.02,0.031 0.023,0.057 -0.954,0.148 -1.896,0.187 -2.839,0.105 -0.045,0.156 -0.049,0.3 -0.014,0.451 1.107,4.001 3.531,7.252 7.278,9.754 3.457,2.312 6.03,5.428 7.722,9.354 0.006,0.01 0.006,0.01 0.002,0.022 1.104,2.35 1.279,4.543 0.531,6.577 l 0.004,0.009 c -0.771,2 -2.436,3.371 -4.995,4.135 -2.694,0.775 -6.001,0.337 -9.932,-1.335 -3.989,-1.687 -7.496,-4.854 -10.509,-9.481 -2.979,-4.714 -4.771,-10.323 -5.384,-16.826 -0.558,-6.016 0.122,-10.192 2.056,-12.53 3.502,1.048 6.816,1.516 9.921,1.391"
         id="path1627"
         style="fill:#e86601" />
      <path
         d="m 666.448,499.703 c 0.973,-0.961 1.557,-2.161 1.76,-3.575 0.2,-1.501 -0.104,-2.926 -0.905,-4.279 1.485,1.652 2.186,3.379 2.114,5.191 -0.05,1.632 -0.673,2.986 -1.893,4.059 -1.225,1.083 -2.639,1.539 -4.229,1.375 -1.807,-0.192 -3.428,-1.176 -4.875,-2.929 l 0.122,0.041 c 1.425,1.198 2.891,1.764 4.405,1.709 1.332,-0.046 2.49,-0.58 3.501,-1.592"
         id="path1629"
         style="fill:#e42126" />
      <path
         d="m 671.282,454.776 c -0.005,-0.008 -0.011,-0.017 -0.016,-0.024 -0.018,-0.164 -0.071,-0.342 -0.156,-0.531 -0.141,-0.32 -0.172,-0.637 -0.103,-0.973 0.231,-1.108 0.889,-1.76 1.962,-1.96 0.644,-0.122 1.269,-0.135 1.874,-0.032 l 5.374,5.443 c 0.672,0.983 0.863,2.047 0.591,3.183 -0.048,0.204 -0.142,0.393 -0.282,0.561 -0.627,0.807 -1.438,1.075 -2.451,0.81 -0.23,-0.056 -0.448,-0.106 -0.67,-0.143 -0.156,-0.125 -0.304,-0.252 -0.439,-0.415 -0.018,-0.021 -0.034,-0.035 -0.055,-0.046 -0.008,-0.031 -0.021,-0.046 -0.027,-0.064 l -5.49,-5.573 c -0.04,-0.082 -0.078,-0.163 -0.112,-0.236"
         id="path1631"
         style="fill:#e27c9f" />
      <path
         d="m 668.648,456.755 c 0.205,0.053 0.414,0.106 0.607,0.174 0.049,0.04 0.095,0.077 0.137,0.128 0.037,0.043 0.069,0.092 0.116,0.146 l 0.012,0.004 0.03,-0.007 4.681,6.946 c 0.027,0.006 0.044,0.018 0.059,0.02 l 0.047,0.056 c 0.02,0.034 0.041,0.068 0.05,0.104 -0.02,0.563 -0.113,1.108 -0.259,1.639 -0.051,0.186 -0.128,0.361 -0.231,0.53 -0.551,0.875 -1.362,1.296 -2.428,1.259 -0.365,-0.005 -0.709,-0.093 -1.041,-0.25 -0.036,-0.035 -0.075,-0.067 -0.11,-0.105 -0.104,-0.107 -0.189,-0.229 -0.27,-0.356 -0.035,-0.035 -0.059,-0.08 -0.086,-0.121 l -0.013,-0.003 -4.841,-7.173 c -0.016,-0.037 -0.019,-0.084 -0.031,-0.121 0.033,-0.833 0.338,-1.537 0.927,-2.106 0.753,-0.74 1.63,-0.993 2.644,-0.764"
         id="path1633"
         style="fill:#e27c9f" />
      <path
         d="m 657.519,460.602 c 0.832,-0.786 1.78,-0.917 2.854,-0.423 0.476,0.217 0.93,0.481 1.357,0.799 l 2.909,6.045 c 0.101,0.215 0.202,0.435 0.3,0.65 0.351,0.66 0.521,1.363 0.531,2.116 -0.334,0.507 -0.835,1.017 -1.492,1.528 -0.65,0.508 -1.279,0.654 -1.869,0.437 -0.582,-0.205 -0.959,-0.461 -1.133,-0.739 -0.483,-0.745 -0.895,-1.538 -1.23,-2.362 l -3.128,-6.467 c 0.132,-0.634 0.437,-1.157 0.901,-1.584"
         id="path1635"
         style="fill:#e27c9f" />
      <path
         d="m 698.193,379.599 c 0.344,-0.343 0.627,-0.087 0.851,0.763 1.817,6.741 5.071,12.366 9.77,16.875 1.815,1.743 4.158,3.527 7.027,5.376 0.102,0.06 0.21,0.125 0.312,0.186 3.163,1.8 6.572,2.592 10.224,2.394 3.779,-0.21 6.165,-0.265 7.166,-0.155 2.475,0.268 4.522,0.681 6.151,1.243 4.017,1.4 6.695,4.222 8.034,8.465 1.094,3.473 0.934,6.729 -0.47,9.783 -1.261,2.766 -3.358,5.033 -6.314,6.824 -2.853,1.726 -6.121,2.646 -9.798,2.772 -3.682,0.126 -7.576,-0.548 -11.707,-2.013 -4.12,-1.466 -8.293,-4.474 -12.516,-9.028 -4.215,-4.558 -7.036,-9.011 -8.45,-13.38 -1.414,-4.364 -2.189,-9.267 -2.308,-14.713 -0.115,-5.444 0.234,-9.749 1.034,-12.921 0.315,-1.321 0.645,-2.136 0.994,-2.471"
         id="path1637"
         style="fill:#fcdf00" />
      <path
         d="m 698.193,379.599 c -0.35,0.335 -0.68,1.15 -0.993,2.471 -0.8,3.172 -1.151,7.477 -1.034,12.921 0.118,5.446 0.894,10.349 2.308,14.713 1.414,4.369 4.235,8.822 8.45,13.38 4.223,4.555 8.396,7.562 12.516,9.028 4.131,1.465 8.025,2.139 11.707,2.013 3.677,-0.126 6.945,-1.047 9.798,-2.772 2.956,-1.791 5.054,-4.059 6.314,-6.824 1.403,-3.054 1.563,-6.311 0.47,-9.783 -1.339,-4.243 -4.018,-7.064 -8.034,-8.465 -1.629,-0.562 -3.677,-0.976 -6.151,-1.243 -1.001,-0.109 -3.387,-0.055 -7.166,0.155 -3.651,0.198 -7.061,-0.594 -10.224,-2.394 -0.103,-0.061 -0.211,-0.126 -0.312,-0.186 -2.869,-1.849 -5.212,-3.633 -7.027,-5.376 -4.698,-4.509 -7.952,-10.134 -9.77,-16.875 -0.225,-0.85 -0.508,-1.106 -0.852,-0.763 z"
         id="path1639"
         style="fill:none;stroke:#f2b800;stroke-width:1.57299995;stroke-miterlimit:10" />
      <path
         d="m 748.688,433.1 c -0.613,-0.545 -1.223,-1.142 -1.809,-1.797 -0.178,-0.197 -0.352,-0.391 -0.515,-0.576 -0.846,-1.002 -1.667,-2.116 -2.461,-3.348 -1.48,-1.825 -2.74,-3.562 -3.789,-5.217 -1.97,-3.22 -2.543,-5.661 -1.703,-7.312 1.38,-2.715 4.154,-4.086 8.336,-4.107 1.146,-0.024 2.875,0.048 5.196,0.196 0.103,10e-4 0.19,0.008 0.278,0.016 0.673,0.02 1.297,0.013 1.865,-0.021 1.002,-0.036 1.85,-0.155 2.518,-0.341 2.294,-0.615 3.562,-0.926 3.825,-0.944 1.511,-0.045 2.131,0.823 1.854,2.611 -0.167,1.115 -1.053,2.213 -2.65,3.293 -0.856,0.582 -2.168,1.292 -3.951,2.125 0.864,0.61 2.223,1.479 4.075,2.621 1.502,1.114 2.417,2.432 2.747,3.94 0.13,1.813 -1.221,2.787 -4.065,2.903 -2.49,0.096 -4.857,-0.341 -7.104,-1.322 0.821,0.493 1.545,1.683 2.197,3.577 0.692,1.942 0.816,3.325 0.354,4.165 -0.995,1.823 -2.731,1.668 -5.198,-0.462"
         id="path1641"
         style="fill:#fcdf00" />
      <path
         d="m 748.688,433.1 c 2.468,2.131 4.203,2.285 5.197,0.464 0.463,-0.84 0.339,-2.223 -0.354,-4.165 -0.652,-1.895 -1.376,-3.084 -2.197,-3.577 2.247,0.981 4.614,1.418 7.104,1.322 2.845,-0.116 4.195,-1.09 4.065,-2.903 -0.33,-1.509 -1.245,-2.826 -2.747,-3.94 -1.853,-1.142 -3.211,-2.011 -4.075,-2.621 1.783,-0.833 3.095,-1.543 3.951,-2.125 1.598,-1.08 2.483,-2.178 2.65,-3.293 0.277,-1.788 -0.343,-2.656 -1.854,-2.611 -0.264,0.019 -1.531,0.329 -3.825,0.944 -0.668,0.186 -1.516,0.305 -2.518,0.341 -0.568,0.033 -1.192,0.04 -1.865,0.021 -0.088,-0.008 -0.176,-0.015 -0.278,-0.016 -2.321,-0.148 -4.05,-0.221 -5.196,-0.196 -4.182,0.021 -6.956,1.393 -8.336,4.107 -0.84,1.65 -0.267,4.092 1.703,7.312 1.049,1.654 2.309,3.392 3.789,5.217 0.794,1.231 1.615,2.346 2.461,3.348 0.163,0.186 0.337,0.379 0.515,0.576 0.587,0.653 1.196,1.25 1.81,1.795 z"
         id="path1643"
         style="fill:none;stroke:#f2b800;stroke-width:1.574;stroke-miterlimit:10" />
      <path
         d="m 695.086,374.688 c -0.759,-1.688 -2.802,-2.617 -6.153,-2.771 -3.248,-0.158 -7.428,0.419 -12.539,1.737 -1.454,0.38 -2.956,1.572 -4.491,3.594 -1.392,1.825 -3.042,4.639 -4.955,8.457 -2.431,4.851 -7.38,15.427 -14.84,31.712 -3.246,6.8 -4.639,12.997 -4.17,18.596 0.413,5.076 2.319,9.479 5.726,13.201 3.117,3.406 7.27,6.045 12.452,7.889 4.896,1.759 10.206,2.666 15.941,2.714 5.705,0.04 11.111,-0.771 16.22,-2.421 5.374,-1.72 9.814,-4.19 13.305,-7.401 3.82,-3.485 6.204,-7.589 7.173,-12.304 1.066,-5.202 0.331,-10.905 -2.191,-17.107 -5.579,-13.7 -10.442,-24.587 -14.603,-32.673 -3.407,-6.135 -5.695,-10.536 -6.875,-13.223"
         id="path1645"
         style="fill:#eddc00" />
      <path
         d="m 688.933,371.916 c -3.248,-0.158 -7.428,0.419 -12.539,1.737 -1.455,0.38 -2.956,1.572 -4.491,3.594 -1.392,1.825 -3.042,4.639 -4.955,8.457 -2.431,4.851 -7.38,15.427 -14.841,31.713 -3.245,6.799 -4.638,12.996 -4.169,18.595 0.413,5.076 2.319,9.479 5.725,13.201 3.118,3.406 7.271,6.045 12.453,7.889 4.896,1.759 10.206,2.666 15.941,2.714 5.705,0.04 11.111,-0.771 16.22,-2.421 5.374,-1.72 9.814,-4.19 13.305,-7.401 3.82,-3.485 6.204,-7.589 7.173,-12.304 1.066,-5.202 0.331,-10.905 -2.192,-17.107 -5.578,-13.7 -10.441,-24.587 -14.602,-32.673 -3.406,-6.133 -5.694,-10.534 -6.874,-13.223 -0.76,-1.687 -2.803,-2.617 -6.154,-2.771 z"
         id="path1647"
         style="fill:none;stroke:#f2b800;stroke-width:4.69799995;stroke-miterlimit:10" />
      <path
         d="m 695.086,374.688 c -0.759,-1.688 -2.802,-2.617 -6.153,-2.771 -3.248,-0.158 -7.428,0.419 -12.539,1.737 -1.454,0.38 -2.956,1.572 -4.491,3.594 -1.392,1.825 -3.042,4.639 -4.955,8.457 -2.431,4.851 -7.38,15.427 -14.84,31.712 -3.246,6.8 -4.639,12.997 -4.17,18.596 0.413,5.076 2.319,9.479 5.726,13.201 3.117,3.406 7.27,6.045 12.452,7.889 4.896,1.759 10.206,2.666 15.941,2.714 5.705,0.04 11.111,-0.771 16.22,-2.421 5.374,-1.72 9.814,-4.19 13.305,-7.401 3.82,-3.485 6.204,-7.589 7.173,-12.304 1.066,-5.202 0.331,-10.905 -2.191,-17.107 -5.579,-13.7 -10.442,-24.587 -14.603,-32.673 -3.407,-6.135 -5.695,-10.536 -6.875,-13.223"
         id="path1649"
         style="fill:#fcdf00" />
      <path
         d="m 729.419,319.836 c -2.634,-5.671 -6.356,-10.69 -11.167,-15.075 -4.793,-4.367 -10.285,-7.732 -16.493,-10.117 -6.414,-2.464 -13.126,-3.703 -20.142,-3.703 -7.021,0 -13.723,1.239 -20.119,3.703 -6.203,2.385 -11.708,5.75 -16.499,10.117 -4.813,4.385 -8.533,9.404 -11.157,15.075 -2.742,5.901 -4.117,12.077 -4.117,18.542 0,16.145 5.129,28.31 15.383,36.499 8.958,7.275 21.125,10.917 36.51,10.917 7.174,0 13.846,-0.988 20.015,-2.958 h 0.011 c 6.364,-2.052 11.876,-5.04 16.539,-8.959 10.226,-8.563 15.347,-20.404 15.347,-35.499 -0.002,-6.464 -1.37,-12.641 -4.111,-18.542 m -12.238,-13.898 c 4.646,4.228 8.247,9.087 10.794,14.571 2.643,5.693 3.967,11.643 3.967,17.869 0,14.581 -4.92,26.004 -14.768,34.291 -4.525,3.791 -9.858,6.672 -16.027,8.66 -6.022,1.921 -12.533,2.882 -19.529,2.882 -14.959,0 -26.8,-3.522 -35.521,-10.562 -9.86,-7.919 -14.788,-19.679 -14.788,-35.27 0,-6.226 1.326,-12.176 3.97,-17.869 2.544,-5.484 6.146,-10.343 10.799,-14.571 4.643,-4.236 9.97,-7.513 15.986,-9.818 6.218,-2.396 12.73,-3.594 19.554,-3.594 6.818,0 13.342,1.198 19.578,3.594 6.01,2.304 11.343,5.582 15.985,9.817"
         id="path1651"
         style="fill:#f2b800" />
      <path
         d="m 727.975,320.51 c -2.547,-5.484 -6.147,-10.344 -10.794,-14.571 -4.642,-4.237 -9.976,-7.513 -15.985,-9.818 -6.236,-2.397 -12.76,-3.594 -19.579,-3.594 -6.822,0 -13.335,1.197 -19.553,3.594 -6.017,2.305 -11.344,5.581 -15.986,9.818 -4.652,4.227 -8.255,9.087 -10.799,14.571 -2.644,5.692 -3.97,11.643 -3.97,17.869 0,15.591 4.928,27.351 14.788,35.27 8.721,7.04 20.562,10.562 35.52,10.562 6.997,0 13.508,-0.961 19.53,-2.882 6.169,-1.988 11.502,-4.869 16.027,-8.66 9.848,-8.286 14.768,-19.71 14.768,-34.29 -10e-4,-6.226 -1.326,-12.177 -3.967,-17.869"
         id="path1653"
         style="fill:#fcdf00" />
      <path
         d="m 682.928,327.93 c 2.392,-2.202 4.988,-3.721 7.799,-4.581 2.729,-0.837 5.348,-0.976 7.854,-0.393 -1.175,-0.841 -2.41,-1.492 -3.725,-1.936 -1.89,-0.641 -3.808,-0.847 -5.747,-0.612 -1.94,0.227 -3.768,0.87 -5.504,1.935 -2.752,1.697 -4.823,4.135 -6.215,7.324 -1.36,3.117 -1.838,6.394 -1.431,9.828 0.558,-2.14 1.42,-4.194 2.579,-6.157 1.192,-2.024 2.656,-3.83 4.39,-5.408"
         id="path1655"
         style="fill:#e27c9f" />
      <path
         d="m 690.727,323.349 c -2.811,0.86 -5.407,2.379 -7.799,4.581 -1.733,1.577 -3.197,3.384 -4.389,5.408 -1.159,1.963 -2.021,4.017 -2.579,6.157 0.272,2.062 0.809,3.968 1.64,5.704 l 0.695,1.323 c 0.079,-2.646 0.713,-5.241 1.898,-7.797 1.221,-2.655 2.902,-4.974 5.049,-6.947 2.883,-2.655 6.035,-4.244 9.458,-4.757 3.343,-0.514 6.279,0.109 8.811,1.856 -1.229,-2.478 -2.871,-4.451 -4.93,-5.921 -2.506,-0.583 -5.125,-0.444 -7.854,0.393"
         id="path1657"
         style="fill:#0077bf" />
      <path
         d="m 703.511,328.877 c -2.531,-1.748 -5.468,-2.37 -8.811,-1.856 -3.423,0.513 -6.575,2.102 -9.458,4.756 -2.146,1.974 -3.828,4.292 -5.049,6.948 -1.186,2.556 -1.819,5.151 -1.898,7.797 0.964,1.648 2.134,3.05 3.518,4.224 1.393,1.174 2.924,2.044 4.595,2.606 1.892,0.64 3.806,0.848 5.733,0.612 1.938,-0.228 3.778,-0.879 5.517,-1.955 3.59,-2.212 5.966,-5.546 7.143,-10.007 1.174,-4.47 0.793,-8.754 -1.15,-12.849 l -0.14,-0.276 z"
         id="path1659"
         style="fill:#ffffff" />
      <path
         d="m 722.656,328.035 c -2.167,-2.136 -4.518,-3.611 -7.066,-4.444 -2.47,-0.816 -4.842,-0.948 -7.115,-0.384 1.067,-0.815 2.186,-1.447 3.376,-1.877 1.714,-0.624 3.447,-0.826 5.204,-0.594 1.763,0.219 3.414,0.843 4.987,1.877 2.493,1.648 4.371,4.015 5.634,7.108 1.231,3.029 1.662,6.208 1.293,9.544 -0.506,-2.08 -1.287,-4.074 -2.338,-5.979 -1.076,-1.964 -2.404,-3.717 -3.975,-5.251"
         id="path1661"
         style="fill:#e27c9f" />
      <path
         d="m 715.59,323.591 c 2.549,0.833 4.899,2.308 7.066,4.444 1.57,1.534 2.898,3.287 3.975,5.251 1.051,1.906 1.832,3.899 2.337,5.979 -0.243,2.001 -0.733,3.85 -1.483,5.538 l -0.631,1.282 c -0.072,-2.567 -0.646,-5.086 -1.719,-7.567 -1.105,-2.579 -2.628,-4.829 -4.575,-6.746 -2.61,-2.577 -5.467,-4.119 -8.565,-4.619 -3.029,-0.498 -5.687,0.108 -7.98,1.802 1.108,-2.404 2.602,-4.32 4.461,-5.748 2.272,-0.564 4.644,-0.431 7.114,0.384"
         id="path1663"
         style="fill:#0077bf" />
      <path
         d="m 704.014,328.955 c 2.294,-1.694 4.951,-2.3 7.98,-1.802 3.099,0.5 5.955,2.042 8.565,4.618 1.947,1.917 3.47,4.167 4.575,6.747 1.073,2.481 1.646,5 1.719,7.567 -0.877,1.6 -1.934,2.962 -3.186,4.101 -1.263,1.139 -2.651,1.982 -4.164,2.529 -1.714,0.623 -3.448,0.823 -5.19,0.594 -1.76,-0.221 -3.423,-0.854 -5.002,-1.897 -3.25,-2.145 -5.401,-5.386 -6.466,-9.715 -1.067,-4.339 -0.719,-8.497 1.039,-12.472 l 0.13,-0.27 z"
         id="path1665"
         style="fill:#ffffff" />
      <path
         d="m 696.533,338.239 c -0.988,1.103 -1.481,2.431 -1.481,3.974 0,1.564 0.493,2.882 1.481,3.975 0.986,1.101 2.179,1.652 3.562,1.652 1.401,0 2.583,-0.551 3.563,-1.652 0.987,-1.093 1.479,-2.411 1.479,-3.975 0,-1.543 -0.491,-2.871 -1.479,-3.974 -0.98,-1.102 -2.162,-1.652 -3.563,-1.652 -1.383,0 -2.575,0.55 -3.562,1.652"
         id="path1667"
         style="fill:#1c1616" />
      <path
         d="m 721.186,337.986 c 0.879,1.065 1.318,2.352 1.318,3.845 0,1.513 -0.439,2.788 -1.318,3.845 -0.877,1.065 -1.935,1.597 -3.167,1.597 -1.247,0 -2.297,-0.532 -3.166,-1.597 -0.878,-1.057 -1.319,-2.332 -1.319,-3.845 0,-1.493 0.441,-2.78 1.319,-3.845 0.869,-1.065 1.919,-1.598 3.166,-1.598 1.232,0 2.29,0.533 3.167,1.598"
         id="path1669"
         style="fill:#1c1616" />
      <path
         d="m 730.671,366.737 c 1.295,-2.988 -0.773,-4.089 -6.207,-3.307 -3.892,-2.256 -5.92,-3.423 -6.098,-3.493 -0.725,0.149 -5.651,1.364 -14.789,3.672 -6.821,1.712 -11.038,2.582 -12.633,2.604 0.111,5.079 4.269,7.919 12.493,8.522 4.221,0.317 9.258,-0.208 15.118,-1.573 4.127,-1.337 8.166,-3.474 12.116,-6.425"
         id="path1671"
         style="fill:#fcdf00" />
      <path
         d="m 724.464,363.431 c -3.892,-2.256 -5.92,-3.424 -6.098,-3.493 -0.725,0.148 -5.651,1.364 -14.789,3.672 -6.821,1.712 -11.038,2.582 -12.633,2.603 0.111,5.079 4.269,7.92 12.493,8.522 4.221,0.317 9.258,-0.208 15.118,-1.573 4.126,-1.336 8.165,-3.475 12.115,-6.424 1.296,-2.989 -0.773,-4.09 -6.206,-3.307 z"
         id="path1673"
         style="fill:none;stroke:#f2b800;stroke-width:1.58399999;stroke-miterlimit:10" />
      <path
         d="m 718.642,347.949 c -2.683,-1.693 -5.099,-2.801 -7.264,-3.346 -3.565,-0.871 -6.267,-0.147 -8.101,2.158 -0.432,0.555 -0.959,1.178 -1.581,1.88 -0.644,0.744 -1.179,1.377 -1.605,1.901 -0.437,0.555 -1.591,1.377 -3.463,2.456 -1.941,1.118 -3.168,1.97 -3.681,2.534 -1.507,1.216 -2.674,3.326 -3.505,6.335 -0.872,3.119 -0.566,4.822 0.91,5.127 5.465,1.138 11.749,1.762 18.864,1.882 6.932,0.128 13.325,-0.229 19.188,-1.09 6.176,-0.9 10.601,-2.187 13.264,-3.86 2.978,-1.87 3.375,-4.029 1.167,-6.454 -0.803,-0.881 -4.325,-2.286 -10.553,-4.217 -6.85,-2.109 -11.391,-3.882 -13.64,-5.306"
         id="path1675"
         style="fill:#fcdf00" />
      <path
         d="m 711.378,344.603 c -3.565,-0.872 -6.267,-0.147 -8.101,2.157 -0.432,0.555 -0.959,1.179 -1.581,1.881 -0.644,0.744 -1.179,1.377 -1.605,1.9 -0.437,0.556 -1.591,1.377 -3.463,2.457 -1.941,1.118 -3.168,1.97 -3.681,2.533 -1.508,1.217 -2.674,3.326 -3.506,6.336 -0.871,3.118 -0.565,4.821 0.911,5.127 5.464,1.138 11.749,1.762 18.864,1.882 6.932,0.128 13.325,-0.23 19.188,-1.09 6.176,-0.9 10.601,-2.187 13.264,-3.86 2.978,-1.87 3.375,-4.03 1.167,-6.454 -0.803,-0.881 -4.325,-2.286 -10.553,-4.217 -6.852,-2.109 -11.393,-3.882 -13.642,-5.306 -2.681,-1.693 -5.097,-2.802 -7.262,-3.346 z"
         id="path1677"
         style="fill:none;stroke:#f2b800;stroke-width:1.58399999;stroke-miterlimit:10" />
      <path
         d="m 700.869,287.14 c 1.244,0.067 2.431,0.535 3.563,1.394 -1.998,-0.1 -4.345,1.424 -7.038,4.575 -0.557,0.654 -1.165,1.194 -1.815,1.61 0.124,0.028 0.245,0.057 0.37,0.096 0.816,0.235 1.491,0.499 2.041,0.785 0.311,-0.289 0.618,-0.599 0.912,-0.933 0.068,-0.068 0.13,-0.135 0.183,-0.206 2.862,-3.194 5.611,-4.851 8.25,-4.96 -2.143,-2.9 -4.295,-4.373 -6.463,-4.42 -2.167,-0.08 -4.31,0.863 -6.431,2.812 l -0.01,0.03 c -0.33,0.345 -0.637,0.679 -0.917,0.974 0.028,-0.419 0.016,-0.835 -0.015,-1.267 -0.208,-4.024 0.641,-7.023 2.556,-8.992 -3.749,-0.237 -6.465,0.413 -8.146,1.932 -1.577,1.418 -2.49,3.354 -2.741,5.811 -0.567,-0.373 -1.205,-0.69 -1.919,-0.941 -3.705,-1.406 -5.888,-3.332 -6.554,-5.768 -2.328,3.155 -3.304,5.76 -2.904,7.833 0.091,0.466 0.23,0.904 0.407,1.318 0.503,1.124 1.352,2.1 2.544,2.922 0.894,0.077 2.528,0.319 4.891,0.734 l 0.006,-0.018 2.297,0.543 c -0.354,-0.342 -0.802,-0.686 -1.342,-1.022 -0.554,-0.327 -1.77,-0.875 -3.646,-1.639 -1.833,-0.777 -2.881,-2 -3.152,-3.667 -0.207,-1.189 -0.007,-2.487 0.589,-3.9 0.331,1.912 2.292,3.516 5.909,4.797 1.879,0.663 3.093,1.883 3.657,3.652 0.277,0.904 0.322,1.722 0.129,2.452 0.101,0.075 0.175,0.145 0.231,0.222 0.544,-0.71 0.9,-1.754 1.089,-3.129 0.069,-0.667 0.075,-2.031 0.014,-4.107 -0.038,-2.026 0.635,-3.638 2.019,-4.821 0.986,-0.844 2.218,-1.412 3.715,-1.709 -1.573,1.378 -2.226,3.998 -1.938,7.876 0.152,2.013 -0.452,3.764 -1.808,5.256 -0.209,0.229 -0.437,0.445 -0.651,0.632 0.196,0.057 0.362,0.107 0.517,0.164 1.015,0.115 2.252,-0.419 3.716,-1.616 0.551,-0.458 1.577,-1.489 3.065,-3.093 1.484,-1.584 3.091,-2.323 4.82,-2.212"
         id="path1679"
         style="fill:#f2b800" />
      <path
         d="m 704.432,288.534 c -1.132,-0.859 -2.318,-1.327 -3.562,-1.394 -1.73,-0.11 -3.336,0.628 -4.821,2.212 -1.488,1.605 -2.515,2.635 -3.065,3.093 -1.464,1.198 -2.701,1.731 -3.716,1.616 -0.018,-0.005 -0.036,-0.008 -0.056,-0.014 -0.163,-0.028 -0.315,-0.064 -0.474,-0.111 -0.007,-0.012 -0.007,-0.012 -0.015,-0.014 0.013,-0.007 0.016,-0.017 0.027,-0.024 0.215,-0.187 0.442,-0.403 0.651,-0.632 1.355,-1.493 1.96,-3.244 1.808,-5.257 -0.288,-3.877 0.364,-6.498 1.938,-7.875 -1.497,0.296 -2.729,0.865 -3.716,1.709 -1.383,1.183 -2.056,2.795 -2.018,4.821 0.062,2.076 0.056,3.44 -0.014,4.106 -0.188,1.376 -0.545,2.419 -1.089,3.129 -0.162,0.209 -0.344,0.394 -0.538,0.546 0.02,-0.028 0.028,-0.057 0.047,-0.082 l 0.247,-0.617 c 0,-0.029 0.006,-0.048 0.013,-0.068 0.193,-0.731 0.148,-1.548 -0.128,-2.453 -0.565,-1.769 -1.779,-2.989 -3.658,-3.652 -3.617,-1.281 -5.578,-2.885 -5.909,-4.797 -0.596,1.414 -0.796,2.711 -0.589,3.901 0.271,1.667 1.319,2.889 3.152,3.667 1.877,0.763 3.093,1.311 3.646,1.638 0.54,0.337 0.988,0.681 1.342,1.022 0.505,0.504 0.826,1.014 0.956,1.542 0.057,0.253 0.072,0.514 0.042,0.788 -0.007,0.05 -0.013,0.099 -0.02,0.15 l -0.026,0.045 c 0.059,-0.049 0.114,-0.097 0.175,-0.155 0.156,-0.16 0.301,-0.322 0.431,-0.488 l 1.11,0.035 c 0.057,-0.01 0.106,-0.016 0.159,-0.025 0.655,-0.124 1.287,-0.43 1.904,-0.936 0.6,1.355 1.838,1.958 3.71,1.822 0.229,-0.018 0.465,-0.045 0.691,-0.084 0.175,-0.032 0.352,-0.073 0.53,-0.115 0.029,-0.003 0.064,-0.014 0.095,-0.017 l 0.656,-0.218 c 0.082,-0.032 0.152,-0.067 0.236,-0.099 0.013,-0.007 0.022,-0.005 0.035,-0.011 0.253,-0.118 0.485,-0.238 0.729,-0.377 0.026,-0.015 0.05,-0.03 0.079,-0.054 0.011,-0.007 0.023,-0.005 0.032,-0.012 0.015,-0.008 0.018,-0.018 0.032,-0.025 0.013,-0.007 0.024,-0.015 0.036,-0.022 0.014,-0.007 0.037,-0.021 0.05,-0.029 0.65,-0.416 1.259,-0.956 1.815,-1.61 2.696,-3.151 5.043,-4.675 7.04,-4.575"
         id="path1681"
         style="fill:#fcdf00" />
      <path
         d="m 716.562,420.582 c -5.578,-13.7 -10.441,-24.587 -14.602,-32.673 -1.309,-2.363 -2.46,-4.472 -3.439,-6.317 -11.399,-4.306 -18.357,-9.218 -20.89,-14.714 l -6.196,11.003 c -1.287,1.817 -2.788,4.424 -4.487,7.823 -2.431,4.851 -7.38,15.427 -14.841,31.713 -3.245,6.799 -4.638,12.996 -4.169,18.595 0.413,5.076 2.319,9.479 5.726,13.201 3.117,3.406 7.27,6.045 12.452,7.889 4.896,1.759 10.206,2.666 15.941,2.714 5.705,0.04 11.111,-0.771 16.22,-2.421 5.374,-1.72 9.814,-4.19 13.305,-7.401 3.82,-3.485 6.204,-7.589 7.173,-12.304 1.065,-5.203 0.33,-10.906 -2.193,-17.108"
         id="path1683"
         style="fill:#fcdf00" />
      <path
         d="m 672.262,388.563 c 2.343,0.701 3.658,1.82 3.944,3.35 0.118,0.617 -0.025,1.709 -0.414,3.274 -0.283,1.191 -0.601,2.252 -0.954,3.166 -1.199,3.236 -1.77,6.289 -1.717,9.17 0.041,2.914 0.72,5.843 2.053,8.771 1.066,2.396 1.303,5.472 0.716,9.239 -0.608,3.892 -1.906,6.989 -3.883,9.286 -0.752,0.883 -1.931,1.716 -3.537,2.502 -1.45,0.729 -2.902,1.247 -4.374,1.56 -3.087,0.69 -6.34,0.107 -9.754,-1.729 -3.12,-1.685 -5.973,-4.153 -8.56,-7.427 -2.527,-3.224 -4.297,-6.58 -5.314,-10.067 -1.081,-3.723 -1.11,-6.915 -0.075,-9.597 1.212,-3.152 2.936,-6.008 5.164,-8.555 1.467,-1.678 3.93,-3.98 7.377,-6.915 1.22,-1.034 3.207,-2.255 5.981,-3.657 2.842,-1.444 5.005,-2.322 6.483,-2.643 2.373,-0.498 4.666,-0.41 6.864,0.272"
         id="path1685"
         style="fill:#eddc00" />
      <path
         d="m 672.262,388.563 c -2.197,-0.683 -4.491,-0.771 -6.863,-0.272 -1.479,0.32 -3.642,1.198 -6.483,2.643 -2.774,1.402 -4.762,2.623 -5.981,3.657 -3.447,2.935 -5.91,5.237 -7.377,6.915 -2.229,2.547 -3.952,5.402 -5.164,8.555 -1.035,2.682 -1.006,5.874 0.075,9.597 1.018,3.487 2.787,6.844 5.314,10.067 2.587,3.273 5.439,5.742 8.56,7.427 3.414,1.837 6.667,2.42 9.754,1.729 1.472,-0.312 2.924,-0.831 4.374,-1.56 1.606,-0.786 2.785,-1.619 3.537,-2.502 1.977,-2.297 3.274,-5.395 3.883,-9.286 0.587,-3.768 0.351,-6.844 -0.716,-9.239 -1.333,-2.928 -2.012,-5.856 -2.053,-8.771 -0.053,-2.881 0.518,-5.934 1.717,-9.17 0.354,-0.914 0.671,-1.975 0.954,-3.166 0.389,-1.565 0.532,-2.657 0.414,-3.274 -0.287,-1.529 -1.603,-2.648 -3.945,-3.35 z"
         id="path1687"
         style="fill:none;stroke:#f2b800;stroke-width:2.95799994;stroke-miterlimit:10" />
      <path
         d="m 674.692,385.948 2.139,1.8 c 0.655,2.386 1.433,5.167 2.341,8.326 0.075,0.249 0.145,0.492 0.211,0.734 -1.148,0.972 -2.221,1.952 -3.206,2.938 -4.83,4.835 -6.802,8.871 -5.915,12.108 l -8.878,-11.833 2.215,-11.12 c 1.015,-0.404 2.247,-0.838 3.689,-1.274 2.866,-0.899 5.332,-1.465 7.404,-1.679"
         id="path1689"
         style="fill:#fcdf00" />
      <path
         d="m 683.471,393.648 c -0.024,-0.132 -0.053,-0.272 -0.1,-0.409 l 0.313,0.258 -0.213,0.151 z"
         id="path1691"
         style="fill:#fcdf00" />
      <path
         d="m 672.262,388.563 c 2.343,0.701 3.658,1.82 3.944,3.35 0.118,0.617 -0.025,1.709 -0.414,3.274 -0.283,1.191 -0.601,2.252 -0.954,3.166 -1.199,3.236 -1.77,6.289 -1.717,9.17 0.041,2.914 0.72,5.843 2.053,8.771 1.066,2.396 1.303,5.472 0.716,9.239 -0.608,3.892 -1.906,6.989 -3.883,9.286 -0.752,0.883 -1.931,1.716 -3.537,2.502 -1.45,0.729 -2.902,1.247 -4.374,1.56 -3.087,0.69 -6.34,0.107 -9.754,-1.729 -3.12,-1.685 -5.973,-4.153 -8.56,-7.427 -2.527,-3.224 -4.297,-6.58 -5.314,-10.067 -1.081,-3.723 -1.11,-6.915 -0.075,-9.597 1.212,-3.152 2.936,-6.008 5.164,-8.555 1.467,-1.678 3.93,-3.98 7.377,-6.915 1.22,-1.034 3.207,-2.255 5.981,-3.657 2.842,-1.444 5.005,-2.322 6.483,-2.643 2.373,-0.498 4.666,-0.41 6.864,0.272"
         id="path1693"
         style="fill:#fcdf00" />
      <path
         d="m 653.339,431.407 c 2.826,-2.509 5.125,-3.494 6.888,-2.962 2.91,0.88 4.745,3.378 5.505,7.49 0.212,1.12 0.451,2.832 0.712,5.144 0.282,1.99 0.667,3.498 1.152,4.527 1.014,2.146 1.547,3.347 1.607,3.598 0.304,1.467 -0.441,2.228 -2.25,2.273 -1.111,0.029 -2.351,-0.643 -3.701,-2.021 -0.721,-0.744 -1.647,-1.928 -2.781,-3.526 -0.447,0.961 -1.07,2.453 -1.865,4.475 -0.834,1.672 -1.967,2.802 -3.395,3.39 -1.761,0.45 -2.945,-0.704 -3.558,-3.491 -0.535,-2.427 -0.517,-4.839 0.04,-7.221 -0.338,0.888 -1.387,1.813 -3.127,2.789 -1.786,1.023 -3.122,1.381 -4.032,1.077 -1.97,-0.657 -2.125,-2.391 -0.453,-5.198 1.167,-1.934 2.762,-3.838 4.791,-5.703 1.533,-1.777 3.025,-3.324 4.467,-4.641"
         id="path1695"
         style="fill:#fcdf00" />
      <path
         d="m 653.339,431.407 c -1.441,1.316 -2.934,2.863 -4.467,4.64 -2.029,1.865 -3.624,3.77 -4.791,5.703 -1.672,2.808 -1.517,4.541 0.453,5.198 0.91,0.304 2.246,-0.054 4.032,-1.077 1.74,-0.976 2.789,-1.901 3.127,-2.789 -0.557,2.382 -0.575,4.794 -0.04,7.221 0.612,2.787 1.797,3.941 3.558,3.491 1.428,-0.588 2.561,-1.718 3.395,-3.39 0.795,-2.021 1.418,-3.514 1.865,-4.475 1.134,1.599 2.061,2.782 2.781,3.526 1.351,1.379 2.59,2.051 3.701,2.021 1.809,-0.046 2.554,-0.807 2.25,-2.273 -0.061,-0.251 -0.594,-1.451 -1.607,-3.598 -0.485,-1.029 -0.87,-2.537 -1.152,-4.527 -0.261,-2.312 -0.5,-4.023 -0.712,-5.144 -0.76,-4.112 -2.595,-6.61 -5.505,-7.49 -1.763,-0.531 -4.062,0.454 -6.888,2.963 z"
         id="path1697"
         style="fill:none;stroke:#f2b800;stroke-width:1.57299995;stroke-miterlimit:10" />
      <path
         d="m 672.262,388.563 c 2.343,0.701 3.658,1.82 3.944,3.35 0.118,0.617 -0.025,1.709 -0.414,3.274 -0.283,1.191 -0.601,2.252 -0.954,3.166 -1.199,3.236 -1.77,6.289 -1.717,9.17 0.041,2.914 0.72,5.843 2.053,8.771 1.066,2.396 1.303,5.472 0.716,9.239 -0.608,3.892 -1.906,6.989 -3.883,9.286 -0.752,0.883 -1.931,1.716 -3.537,2.502 -1.45,0.729 -2.902,1.247 -4.374,1.56 -3.087,0.69 -6.34,0.107 -9.754,-1.729 -3.12,-1.685 -5.973,-4.153 -8.56,-7.427 -2.527,-3.224 -4.297,-6.58 -5.314,-10.067 -1.081,-3.723 -1.11,-6.915 -0.075,-9.597 1.212,-3.152 2.936,-6.008 5.164,-8.555 1.467,-1.678 3.93,-3.98 7.377,-6.915 1.22,-1.034 3.207,-2.255 5.981,-3.657 2.842,-1.444 5.005,-2.322 6.483,-2.643 2.373,-0.498 4.666,-0.41 6.864,0.272"
         id="path1699"
         style="fill:#eddc00" />
      <path
         d="m 672.262,388.563 c -2.197,-0.683 -4.491,-0.771 -6.863,-0.272 -1.479,0.32 -3.642,1.198 -6.483,2.643 -2.774,1.402 -4.762,2.623 -5.981,3.657 -3.447,2.935 -5.91,5.237 -7.377,6.915 -2.229,2.547 -3.952,5.402 -5.164,8.555 -1.035,2.682 -1.006,5.874 0.075,9.597 1.018,3.487 2.787,6.844 5.314,10.067 2.587,3.273 5.439,5.742 8.56,7.427 3.414,1.837 6.667,2.42 9.754,1.729 1.472,-0.312 2.924,-0.831 4.374,-1.56 1.606,-0.786 2.785,-1.619 3.537,-2.502 1.977,-2.297 3.274,-5.395 3.883,-9.286 0.587,-3.768 0.351,-6.844 -0.716,-9.239 -1.333,-2.928 -2.012,-5.856 -2.053,-8.771 -0.053,-2.881 0.518,-5.934 1.717,-9.17 0.354,-0.914 0.671,-1.975 0.954,-3.166 0.389,-1.565 0.532,-2.657 0.414,-3.274 -0.287,-1.529 -1.603,-2.648 -3.945,-3.35 z"
         id="path1701"
         style="fill:none;stroke:#f2b800;stroke-width:2.95799994;stroke-miterlimit:10" />
      <path
         d="m 674.692,385.948 2.139,1.8 c 0.655,2.386 1.433,5.167 2.341,8.326 0.075,0.249 0.145,0.492 0.211,0.734 -1.148,0.972 -2.221,1.952 -3.206,2.938 -4.83,4.835 -6.802,8.871 -5.915,12.108 l -8.878,-11.833 2.215,-11.12 c 1.015,-0.404 2.247,-0.838 3.689,-1.274 2.866,-0.899 5.332,-1.465 7.404,-1.679"
         id="path1703"
         style="fill:#fcdf00" />
      <path
         d="m 683.471,393.648 c -0.024,-0.132 -0.053,-0.272 -0.1,-0.409 l 0.313,0.258 -0.213,0.151 z"
         id="path1705"
         style="fill:#fcdf00" />
      <path
         d="m 672.262,388.563 c 2.343,0.701 3.658,1.82 3.944,3.35 0.118,0.617 -0.025,1.709 -0.414,3.274 -0.283,1.191 -0.601,2.252 -0.954,3.166 -1.199,3.236 -1.77,6.289 -1.717,9.17 0.041,2.914 0.72,5.843 2.053,8.771 1.066,2.396 1.303,5.472 0.716,9.239 -0.608,3.892 -1.906,6.989 -3.883,9.286 -0.752,0.883 -1.931,1.716 -3.537,2.502 -1.45,0.729 -2.902,1.247 -4.374,1.56 -3.087,0.69 -6.34,0.107 -9.754,-1.729 -3.12,-1.685 -5.973,-4.153 -8.56,-7.427 -2.527,-3.224 -4.297,-6.58 -5.314,-10.067 -1.081,-3.723 -1.11,-6.915 -0.075,-9.597 1.212,-3.152 2.936,-6.008 5.164,-8.555 1.467,-1.678 3.93,-3.98 7.377,-6.915 1.22,-1.034 3.207,-2.255 5.981,-3.657 2.842,-1.444 5.005,-2.322 6.483,-2.643 2.373,-0.498 4.666,-0.41 6.864,0.272"
         id="path1707"
         style="fill:#fcdf00" />
      <path
         d="m 653.339,431.407 c 2.826,-2.509 5.125,-3.494 6.888,-2.962 2.91,0.88 4.745,3.378 5.505,7.49 0.212,1.12 0.451,2.832 0.712,5.144 0.282,1.99 0.667,3.498 1.152,4.527 1.014,2.146 1.547,3.347 1.607,3.598 0.304,1.467 -0.441,2.228 -2.25,2.273 -1.111,0.029 -2.351,-0.643 -3.701,-2.021 -0.721,-0.744 -1.647,-1.928 -2.781,-3.526 -0.447,0.961 -1.07,2.453 -1.865,4.475 -0.834,1.672 -1.967,2.802 -3.395,3.39 -1.761,0.45 -2.945,-0.704 -3.558,-3.491 -0.535,-2.427 -0.517,-4.839 0.04,-7.221 -0.338,0.888 -1.387,1.813 -3.127,2.789 -1.786,1.023 -3.122,1.381 -4.032,1.077 -1.97,-0.657 -2.125,-2.391 -0.453,-5.198 1.167,-1.934 2.762,-3.838 4.791,-5.703 1.533,-1.777 3.025,-3.324 4.467,-4.641"
         id="path1709"
         style="fill:#fcdf00" />
      <path
         d="m 653.339,431.407 c -1.441,1.316 -2.934,2.863 -4.467,4.64 -2.029,1.865 -3.624,3.77 -4.791,5.703 -1.672,2.808 -1.517,4.541 0.453,5.198 0.91,0.304 2.246,-0.054 4.032,-1.077 1.74,-0.976 2.789,-1.901 3.127,-2.789 -0.557,2.382 -0.575,4.794 -0.04,7.221 0.612,2.787 1.797,3.941 3.558,3.491 1.428,-0.588 2.561,-1.718 3.395,-3.39 0.795,-2.021 1.418,-3.514 1.865,-4.475 1.134,1.599 2.061,2.782 2.781,3.526 1.351,1.379 2.59,2.051 3.701,2.021 1.809,-0.046 2.554,-0.807 2.25,-2.273 -0.061,-0.251 -0.594,-1.451 -1.607,-3.598 -0.485,-1.029 -0.87,-2.537 -1.152,-4.527 -0.261,-2.312 -0.5,-4.023 -0.712,-5.144 -0.76,-4.112 -2.595,-6.61 -5.505,-7.49 -1.763,-0.531 -4.062,0.454 -6.888,2.963 z"
         id="path1711"
         style="fill:none;stroke:#f2b800;stroke-width:1.57299995;stroke-miterlimit:10" />
    </g>
  </g>
</svg>
