<?xml version="1.0" encoding="UTF-8" standalone="no"?>
<!-- Created with Inkscape (http://www.inkscape.org/) -->

<svg
   xmlns:dc="http://purl.org/dc/elements/1.1/"
   xmlns:cc="http://creativecommons.org/ns#"
   xmlns:rdf="http://www.w3.org/1999/02/22-rdf-syntax-ns#"
   xmlns:svg="http://www.w3.org/2000/svg"
   xmlns="http://www.w3.org/2000/svg"
   version="1.1"
   width="185"
   height="255.09"
   id="svg5071">
  <defs
     id="defs5073" />
  <metadata
     id="metadata5076">
    <rdf:RDF>
      <cc:Work
         rdf:about="">
        <dc:format>image/svg+xml</dc:format>
        <dc:type
           rdf:resource="http://purl.org/dc/dcmitype/StillImage" />
        <dc:title></dc:title>
      </cc:Work>
    </rdf:RDF>
  </metadata>
  <g
     transform="translate(0,-2901.9966)"
     id="layer1">
    <g
       transform="translate(-78.128166,2399.8519)"
       id="g1835">
      <path
         d="m 174.917,678.066 c -0.455,-1.678 -0.184,-3.665 0.801,-5.958 1.035,-2.415 2.634,-4.519 4.79,-6.294 2.481,-2.023 5.32,-3.274 8.516,-3.741 3.741,-0.552 7.728,0.013 11.966,1.666 1.073,-1.349 3.3,-2.802 6.696,-4.372 3.613,-1.668 7.342,-2.866 11.184,-3.598 4.464,-0.858 8.246,-0.87 11.358,-0.037 3.681,0.977 6.114,3.073 7.298,6.289 1.657,4.499 -0.332,8.646 -5.965,12.442 -2.057,1.385 -4.326,2.519 -6.802,3.416 -2.219,0.794 -3.871,1.163 -4.967,1.096 1.716,3.472 1.405,6.727 -0.928,9.744 -2.023,2.638 -5.186,4.686 -9.489,6.142 -4.116,1.408 -8,1.883 -11.666,1.418 -3.952,-0.487 -6.455,-1.979 -7.509,-4.474 -0.026,2.119 -1.217,3.798 -3.584,5.036 -2.216,1.166 -4.818,1.65 -7.802,1.438 -3.144,-0.21 -5.734,-1.149 -7.784,-2.825 -2.368,-1.915 -3.545,-4.504 -3.542,-7.765 0,-1.155 1.241,-2.835 3.728,-5.048 2.504,-2.21 3.757,-3.838 3.757,-4.885 l -0.056,0.31 z"
         id="path1837"
         style="fill:#eddc00" />
      <path
         d="m 174.917,678.066 0.056,-0.309 c 0,1.047 -1.253,2.675 -3.757,4.885 -2.487,2.213 -3.728,3.893 -3.728,5.048 -0.003,3.261 1.174,5.85 3.542,7.765 2.05,1.676 4.64,2.615 7.784,2.825 2.984,0.212 5.586,-0.272 7.802,-1.438 2.367,-1.238 3.558,-2.917 3.584,-5.036 1.054,2.494 3.557,3.986 7.509,4.474 3.666,0.465 7.55,-0.01 11.666,-1.418 4.303,-1.456 7.466,-3.504 9.489,-6.142 2.333,-3.018 2.644,-6.272 0.928,-9.744 1.096,0.067 2.748,-0.302 4.967,-1.096 2.476,-0.897 4.745,-2.031 6.802,-3.416 5.633,-3.796 7.622,-7.943 5.965,-12.442 -1.184,-3.216 -3.617,-5.312 -7.3,-6.289 -3.11,-0.833 -6.892,-0.821 -11.356,0.037 -3.842,0.731 -7.571,1.93 -11.184,3.598 -3.396,1.57 -5.623,3.023 -6.696,4.372 -4.238,-1.653 -8.225,-2.218 -11.966,-1.666 -3.196,0.467 -6.035,1.718 -8.516,3.741 -2.156,1.775 -3.755,3.879 -4.79,6.294 -0.986,2.292 -1.257,4.28 -0.801,5.957 z"
         id="path1839"
         style="fill:none;stroke:#f2b800;stroke-width:2.94400001;stroke-miterlimit:10" />
      <path
         d="m 174.917,678.066 c -0.455,-1.678 -0.184,-3.665 0.801,-5.958 1.035,-2.415 2.634,-4.519 4.79,-6.294 2.481,-2.023 5.32,-3.274 8.516,-3.741 3.741,-0.552 7.728,0.013 11.966,1.666 1.073,-1.349 3.3,-2.802 6.696,-4.372 3.613,-1.668 7.342,-2.866 11.184,-3.598 4.464,-0.858 8.246,-0.87 11.358,-0.037 3.681,0.977 6.114,3.073 7.298,6.289 1.657,4.499 -0.332,8.646 -5.965,12.442 -2.057,1.385 -4.326,2.519 -6.802,3.416 -2.219,0.794 -3.871,1.163 -4.967,1.096 1.716,3.472 1.405,6.727 -0.928,9.744 -2.023,2.638 -5.186,4.686 -9.489,6.142 -4.116,1.408 -8,1.883 -11.666,1.418 -3.952,-0.487 -6.455,-1.979 -7.509,-4.474 -0.026,2.119 -1.217,3.798 -3.584,5.036 -2.216,1.166 -4.818,1.65 -7.802,1.438 -3.144,-0.21 -5.734,-1.149 -7.784,-2.825 -2.368,-1.915 -3.545,-4.504 -3.542,-7.765 0,-1.155 1.241,-2.835 3.728,-5.048 2.504,-2.21 3.757,-3.838 3.757,-4.885 l -0.056,0.31 z"
         id="path1841"
         style="fill:#fcdf00" />
      <path
         d="m 166.136,684.471 0.049,-0.775 -11.178,-0.814 -0.08,0.756 c -0.362,3.469 -0.628,7.29 -0.774,11.444 l -0.149,-0.011 c -0.805,-0.029 -1.512,0.297 -2.112,0.973 h -0.01 v 0.008 c -0.54,0.621 -0.834,1.367 -0.863,2.253 -0.03,0.894 0.215,1.659 0.718,2.319 l -0.011,-0.012 c 0.549,0.737 1.236,1.11 2.053,1.12 h 0.01 l 0.206,0.011 c -0.01,0.766 -0.01,1.542 -0.02,2.336 -0.697,0.041 -1.316,0.363 -1.847,0.963 h -0.009 v 0.01 c -0.541,0.62 -0.835,1.366 -0.864,2.25 -0.03,0.896 0.215,1.659 0.716,2.319 l -0.009,-0.011 c 0.558,0.736 1.247,1.11 2.063,1.119 0,0.53 0.009,1.032 0.019,1.514 -0.726,0.029 -1.366,0.354 -1.916,0.972 h -0.009 v 0.011 c -0.541,0.618 -0.835,1.364 -0.864,2.25 -0.01,0.127 0,0.264 0.009,0.391 -9.371,-2.11 -17.309,-2.101 -23.811,0.013 -3.163,1.009 -5.589,2.433 -7.269,4.263 -1.709,1.837 -2.456,3.771 -2.25,5.805 v 0.009 c 0.167,2.085 1.317,3.92 3.448,5.523 h 0.01 c 2.17,1.628 5.147,2.776 8.949,3.447 h 0.009 c 8.989,1.57 20.737,0.213 35.226,-4.067 0.619,-0.041 0.874,-1.543 0.777,-4.51 v -0.009 c -0.119,-2.76 -0.217,-5.235 -0.296,-7.437 0.226,-0.146 0.453,-0.344 0.659,-0.57 0,-0.011 0,-0.011 0.009,-0.011 0.551,-0.617 0.846,-1.384 0.874,-2.277 0.029,-0.895 -0.205,-1.661 -0.707,-2.319 -0.314,-0.402 -0.667,-0.688 -1.051,-0.873 -0.03,-0.659 -0.049,-1.317 -0.059,-1.964 0.335,-0.168 0.649,-0.405 0.934,-0.729 0,-0.009 0,-0.009 0.009,-0.009 0.551,-0.619 0.846,-1.387 0.874,-2.281 0.029,-0.891 -0.205,-1.66 -0.707,-2.316 -0.353,-0.451 -0.756,-0.766 -1.207,-0.943 -0.01,-0.934 -0.02,-1.867 -0.02,-2.78 0.304,-0.166 0.58,-0.393 0.824,-0.686 0.55,-0.62 0.845,-1.377 0.875,-2.271 0.03,-0.892 -0.206,-1.659 -0.707,-2.318 -0.285,-0.363 -0.6,-0.629 -0.942,-0.813 0.067,-3.934 0.215,-7.687 0.421,-11.273 m -2.003,11.75 v 0.019 c 0.54,0.275 0.972,0.677 1.315,1.198 0.188,0.285 0.295,0.59 0.344,0.916 0.089,0.676 -0.049,1.295 -0.392,1.856 -0.286,0.461 -0.678,0.815 -1.16,1.068 -0.059,0.021 -0.107,0.031 -0.149,0.031 0,1.03 -0.018,2.091 -0.046,3.172 l -0.02,-0.04 v 0.757 0.031 h 0.008 c 0.058,0.008 0.12,0.008 0.186,0.018 0.64,0.139 1.131,0.492 1.484,1.071 0.286,0.461 0.414,0.963 0.364,1.501 -0.01,0.091 -0.019,0.179 -0.038,0.286 -0.109,0.64 -0.393,1.18 -0.865,1.62 -0.275,0.256 -0.599,0.454 -0.963,0.583 v 0.106 c 0.01,0.717 -0.02,1.454 -0.11,2.229 v -0.087 l -0.066,0.813 v 0.05 c 0.342,0.108 0.716,0.345 1.12,0.719 0.264,0.235 0.451,0.45 0.558,0.637 0.236,0.345 0.345,0.747 0.326,1.209 v 0.02 0.03 0.097 0.128 c -0.109,0.581 -0.344,1.09 -0.708,1.553 -0.236,0.294 -0.521,0.521 -0.855,0.678 v 0.059 c 0.089,2.311 0.187,4.921 0.315,7.851 0.069,1.926 0.186,2.907 0.352,2.955 -14.193,4.195 -25.707,5.539 -34.518,4.018 -3.506,-0.618 -6.276,-1.672 -8.29,-3.152 -1.718,-1.288 -2.662,-2.75 -2.83,-4.41 -0.136,-1.602 0.472,-3.135 1.837,-4.599 1.533,-1.641 3.734,-2.916 6.602,-3.839 6.563,-2.104 14.637,-1.995 24.224,0.321 l 1.238,0.286 0.049,0.012 c -0.187,-0.109 -0.333,-0.298 -0.453,-0.562 -0.147,-0.306 -0.224,-0.669 -0.244,-1.08 -0.04,-0.521 0.039,-1.022 0.225,-1.524 0.217,-0.557 0.589,-0.972 1.109,-1.247 0.473,-0.244 0.963,-0.413 1.465,-0.481 0.029,-0.01 0.059,-0.01 0.087,-0.01 v -0.048 c -0.028,-0.894 -0.038,-1.906 -0.048,-3.036 v -0.008 h -0.157 c -0.52,0 -1.031,-0.206 -1.533,-0.61 -0.186,-0.148 -0.334,-0.314 -0.461,-0.481 -0.079,-0.07 -0.148,-0.146 -0.216,-0.236 v -0.011 c -0.285,-0.362 -0.422,-0.794 -0.393,-1.296 0.01,-0.205 0.039,-0.395 0.088,-0.569 0.198,-0.48 0.482,-0.895 0.865,-1.219 0.52,-0.432 1.109,-0.667 1.768,-0.696 v -0.128 c 0,-1.269 0.01,-2.515 0.029,-3.722 h -0.068 c -0.648,0.018 -1.238,-0.179 -1.778,-0.592 -0.502,-0.382 -0.865,-0.884 -1.09,-1.501 -0.04,-0.188 -0.06,-0.374 -0.051,-0.571 0.011,-0.284 0.07,-0.549 0.169,-0.775 0.118,-0.187 0.245,-0.373 0.382,-0.55 0.197,-0.256 0.442,-0.462 0.737,-0.619 0.579,-0.285 1.178,-0.452 1.817,-0.492 v -0.029 c 0.128,-4.115 0.374,-7.888 0.717,-11.335 l 8.114,0.589 c -0.206,3.525 -0.333,7.216 -0.392,11.068"
         id="path1843"
         style="fill:#e42126" />
      <path
         d="m 164.133,696.239 v -0.019 l -8.439,-0.295 c -0.639,0.039 -1.238,0.206 -1.817,0.491 -0.295,0.157 -0.54,0.363 -0.737,0.619 -0.137,0.177 -0.264,0.363 -0.382,0.55 -0.099,0.227 -0.159,0.491 -0.169,0.775 -0.009,0.197 0.01,0.384 0.051,0.571 0.225,0.618 0.588,1.12 1.09,1.501 0.54,0.413 1.13,0.609 1.778,0.592 h 0.068 c 0.02,-0.011 0.039,-0.011 0.058,-0.011 l 8.457,0.295 c 0.042,0 0.09,-0.009 0.149,-0.031 0.482,-0.253 0.874,-0.607 1.16,-1.068 0.343,-0.562 0.481,-1.181 0.392,-1.856 -0.049,-0.326 -0.156,-0.631 -0.344,-0.916 -0.343,-0.521 -0.775,-0.922 -1.315,-1.198"
         id="path1845"
         style="fill:#e27c9f" />
      <path
         d="m 164.133,696.221 c 0.059,-3.852 0.186,-7.543 0.392,-11.071 l -8.114,-0.589 c -0.343,3.447 -0.589,7.22 -0.717,11.335 v 0.029 l 8.439,0.296 z"
         id="path1847"
         style="fill:#e86601" />
      <path
         d="m 164.025,704.441 0.02,0.04 c 0.028,-1.081 0.047,-2.142 0.047,-3.172 l -8.457,-0.295 c -0.02,0 -0.039,0 -0.058,0.011 -0.019,1.207 -0.03,2.453 -0.03,3.722 v 0.128 l 0.068,0.01 c 0.012,0.009 0.03,0.02 0.05,0.029 l 8.36,0.284 v -0.757 z"
         id="path1849"
         style="fill:#e86601" />
      <path
         d="m 164.025,705.229 v -0.031 l -8.36,-0.284 c -0.02,-0.01 -0.038,-0.021 -0.05,-0.029 l -0.068,-0.009 c -0.659,0.028 -1.248,0.264 -1.768,0.695 -0.383,0.324 -0.667,0.738 -0.864,1.219 -0.049,0.175 -0.078,0.364 -0.089,0.569 -0.029,0.502 0.109,0.934 0.393,1.296 v 0.011 c 0.068,0.09 0.138,0.166 0.217,0.236 0.127,0.167 0.274,0.333 0.46,0.481 0.503,0.404 1.013,0.61 1.534,0.61 h 0.156 v 0.008 l 8.615,0.307 c 0.364,-0.129 0.688,-0.327 0.963,-0.583 0.473,-0.44 0.756,-0.98 0.865,-1.62 0.019,-0.107 0.028,-0.195 0.038,-0.286 0.05,-0.538 -0.078,-1.04 -0.363,-1.501 -0.354,-0.579 -0.845,-0.933 -1.484,-1.071 -0.067,-0.01 -0.128,-0.01 -0.186,-0.018 h -0.009 z"
         id="path1851"
         style="fill:#e27c9f" />
      <path
         d="m 164.201,710.415 v -0.106 l -8.615,-0.307 c 0.01,1.13 0.02,2.142 0.049,3.036 v 0.048 l 8.39,0.284 0.067,-0.813 v 0.087 c 0.089,-0.775 0.119,-1.512 0.109,-2.229"
         id="path1853"
         style="fill:#e86601" />
      <path
         d="m 166.029,716.259 v -0.128 -0.097 -0.03 -0.02 c 0.019,-0.462 -0.089,-0.866 -0.325,-1.209 -0.108,-0.187 -0.295,-0.401 -0.559,-0.637 -0.403,-0.374 -0.778,-0.61 -1.12,-0.719 v -0.05 l -8.39,-0.284 c -0.029,0 -0.058,0 -0.087,0.01 -0.502,0.068 -0.992,0.237 -1.465,0.481 -0.52,0.275 -0.893,0.69 -1.109,1.248 -0.186,0.501 -0.265,1.003 -0.226,1.523 0.02,0.41 0.097,0.774 0.245,1.08 0.119,0.264 0.265,0.452 0.453,0.562 l -0.05,-0.012 c 0.04,0.012 0.079,0.029 0.119,0.048 0.067,0.021 0.136,0.042 0.215,0.061 0.01,0 0.03,0 0.059,0.01 0.079,0.009 0.167,0.021 0.255,0.021 l 10.422,0.372 c 0.335,-0.157 0.619,-0.384 0.855,-0.678 0.365,-0.462 0.599,-0.971 0.708,-1.552"
         id="path1855"
         style="fill:#e27c9f" />
      <path
         d="m 164.466,718.548 v -0.059 l -10.422,-0.372 c -0.089,0 -0.176,-0.012 -0.255,-0.021 -0.03,-0.01 -0.049,-0.01 -0.059,-0.01 -0.079,-0.018 -0.148,-0.039 -0.216,-0.06 -0.039,-0.02 -0.079,-0.037 -0.118,-0.049 l -1.238,-0.285 c -9.587,-2.317 -17.661,-2.427 -24.224,-0.322 -2.868,0.923 -5.069,2.198 -6.602,3.839 -1.365,1.464 -1.973,2.997 -1.837,4.599 0.168,1.66 1.111,3.122 2.83,4.41 2.014,1.481 4.784,2.534 8.29,3.152 8.811,1.521 20.325,0.178 34.518,-4.018 -0.166,-0.048 -0.283,-1.029 -0.352,-2.955 -0.128,-2.928 -0.226,-5.538 -0.315,-7.849"
         id="path1857"
         style="fill:#e86601" />
      <path
         d="m 126.215,725.288 c -1.013,1.267 -1.394,2.701 -1.16,4.302 0.237,1.611 1.013,2.858 2.339,3.752 1.492,1.013 3.349,1.308 5.579,0.904 l -0.117,-0.059 c -1.847,0 -3.331,-0.501 -4.441,-1.514 -0.982,-0.895 -1.532,-2.043 -1.651,-3.457 -0.117,-1.368 0.208,-2.644 0.963,-3.852 0.797,-1.267 1.937,-2.161 3.419,-2.672 -2.17,0.307 -3.821,1.172 -4.931,2.596"
         id="path1859"
         style="fill:#e42126" />
      <path
         d="m 186.377,688.663 0.048,-0.776 -11.178,-0.814 -0.08,0.757 c -0.364,3.467 -0.629,7.288 -0.776,11.44 l -0.147,-0.009 c -0.806,-0.028 -1.512,0.295 -2.111,0.974 h -0.011 v 0.01 c -0.54,0.62 -0.835,1.365 -0.864,2.249 -0.031,0.896 0.216,1.662 0.717,2.319 l -0.01,-0.008 c 0.55,0.734 1.238,1.108 2.052,1.116 h 0.011 l 0.206,0.011 c -0.009,0.767 -0.009,1.542 -0.019,2.337 -0.698,0.04 -1.318,0.364 -1.847,0.963 h -0.01 v 0.011 c -0.541,0.619 -0.835,1.365 -0.863,2.25 -0.031,0.895 0.215,1.659 0.715,2.319 l -0.008,-0.012 c 0.559,0.737 1.248,1.111 2.061,1.121 0,0.53 0.01,1.031 0.021,1.512 -0.728,0.031 -1.366,0.354 -1.916,0.973 h -0.01 v 0.008 c -0.541,0.621 -0.835,1.368 -0.863,2.254 -0.011,0.125 0,0.265 0.008,0.392 -9.372,-2.111 -17.308,-2.103 -23.811,0.01 -3.163,1.011 -5.589,2.436 -7.269,4.263 -1.71,1.837 -2.456,3.772 -2.25,5.805 v 0.009 c 0.169,2.084 1.317,3.922 3.449,5.521 h 0.009 c 2.172,1.632 5.147,2.78 8.948,3.449 h 0.011 c 8.988,1.571 20.738,0.215 35.225,-4.067 0.62,-0.039 0.876,-1.543 0.777,-4.509 v -0.01 c -0.117,-2.76 -0.215,-5.235 -0.295,-7.437 0.226,-0.146 0.452,-0.344 0.658,-0.57 0,-0.008 0,-0.008 0.011,-0.008 0.549,-0.621 0.844,-1.388 0.873,-2.282 0.03,-0.892 -0.206,-1.656 -0.706,-2.316 -0.315,-0.401 -0.67,-0.688 -1.052,-0.874 -0.029,-0.657 -0.048,-1.316 -0.059,-1.965 0.333,-0.166 0.649,-0.401 0.933,-0.728 0,-0.009 0,-0.009 0.011,-0.009 0.549,-0.618 0.844,-1.385 0.873,-2.279 0.03,-0.893 -0.206,-1.66 -0.706,-2.317 -0.354,-0.453 -0.756,-0.768 -1.209,-0.945 -0.011,-0.932 -0.02,-1.865 -0.02,-2.778 0.303,-0.167 0.579,-0.392 0.825,-0.687 0.551,-0.62 0.846,-1.375 0.873,-2.271 0.031,-0.895 -0.205,-1.66 -0.706,-2.317 -0.285,-0.364 -0.599,-0.63 -0.942,-0.814 0.068,-3.933 0.215,-7.686 0.423,-11.271 m -2.005,11.747 v 0.021 c 0.541,0.272 0.973,0.677 1.317,1.198 0.186,0.285 0.295,0.592 0.345,0.912 0.087,0.68 -0.05,1.299 -0.394,1.856 -0.285,0.463 -0.679,0.816 -1.159,1.07 -0.059,0.021 -0.109,0.031 -0.148,0.031 0,1.031 -0.019,2.091 -0.048,3.172 l -0.02,-0.039 v 0.757 0.03 h 0.01 c 0.058,0.01 0.117,0.01 0.186,0.019 0.639,0.138 1.13,0.493 1.483,1.071 0.285,0.463 0.412,0.963 0.363,1.504 -0.009,0.088 -0.018,0.177 -0.039,0.283 -0.106,0.639 -0.393,1.181 -0.864,1.62 -0.274,0.256 -0.599,0.452 -0.962,0.581 v 0.107 c 0.009,0.718 -0.02,1.455 -0.109,2.229 v -0.087 l -0.068,0.812 v 0.052 c 0.344,0.109 0.718,0.344 1.119,0.716 0.266,0.236 0.453,0.453 0.56,0.64 0.237,0.344 0.345,0.747 0.324,1.207 v 0.021 0.028 0.098 0.129 c -0.106,0.579 -0.343,1.092 -0.707,1.552 -0.236,0.296 -0.52,0.521 -0.855,0.678 v 0.061 c 0.089,2.307 0.187,4.92 0.315,7.849 0.068,1.926 0.186,2.907 0.354,2.958 -14.195,4.193 -25.707,5.54 -34.519,4.016 -3.507,-0.618 -6.276,-1.671 -8.291,-3.152 -1.718,-1.288 -2.661,-2.751 -2.828,-4.411 -0.139,-1.601 0.47,-3.133 1.837,-4.598 1.532,-1.641 3.733,-2.916 6.601,-3.842 6.562,-2.103 14.636,-1.993 24.223,0.326 l 1.239,0.284 0.047,0.01 c -0.186,-0.108 -0.333,-0.294 -0.45,-0.56 -0.148,-0.306 -0.226,-0.668 -0.246,-1.08 -0.04,-0.521 0.038,-1.024 0.225,-1.522 0.217,-0.562 0.589,-0.975 1.11,-1.247 0.472,-0.248 0.964,-0.414 1.465,-0.484 0.029,-0.01 0.059,-0.01 0.088,-0.01 v -0.049 c -0.029,-0.891 -0.038,-1.904 -0.049,-3.036 v -0.009 h -0.159 c -0.519,0 -1.031,-0.206 -1.531,-0.607 -0.186,-0.147 -0.335,-0.315 -0.463,-0.481 -0.077,-0.069 -0.145,-0.146 -0.215,-0.237 v -0.008 c -0.284,-0.363 -0.421,-0.798 -0.393,-1.298 0.01,-0.204 0.039,-0.394 0.089,-0.57 0.196,-0.481 0.482,-0.892 0.864,-1.217 0.52,-0.433 1.11,-0.665 1.769,-0.697 v -0.128 c 0,-1.267 0.008,-2.517 0.029,-3.724 h -0.069 c -0.648,0.02 -1.238,-0.176 -1.777,-0.59 -0.502,-0.382 -0.866,-0.884 -1.091,-1.502 -0.04,-0.188 -0.06,-0.373 -0.049,-0.571 0.009,-0.285 0.068,-0.548 0.166,-0.774 0.118,-0.188 0.246,-0.374 0.383,-0.552 0.199,-0.252 0.444,-0.459 0.738,-0.618 0.58,-0.284 1.178,-0.452 1.817,-0.491 v -0.027 c 0.127,-4.116 0.372,-7.891 0.717,-11.338 l 8.115,0.589 c -0.208,3.526 -0.336,7.22 -0.395,11.069"
         id="path1861"
         style="fill:#e42126" />
      <path
         d="m 184.372,700.432 v -0.021 l -8.437,-0.294 c -0.639,0.039 -1.237,0.207 -1.817,0.491 -0.294,0.159 -0.539,0.365 -0.738,0.618 -0.137,0.178 -0.265,0.363 -0.383,0.552 -0.099,0.227 -0.157,0.489 -0.166,0.774 -0.011,0.198 0.009,0.384 0.049,0.571 0.225,0.618 0.589,1.12 1.091,1.502 0.539,0.414 1.128,0.609 1.777,0.59 h 0.069 c 0.021,-0.01 0.04,-0.01 0.059,-0.01 l 8.457,0.295 c 0.039,0 0.089,-0.011 0.148,-0.031 0.48,-0.254 0.874,-0.607 1.159,-1.07 0.344,-0.558 0.481,-1.178 0.394,-1.856 -0.05,-0.321 -0.159,-0.627 -0.345,-0.912 -0.344,-0.523 -0.776,-0.928 -1.317,-1.199"
         id="path1863"
         style="fill:#e27c9f" />
      <path
         d="m 184.372,700.41 c 0.059,-3.85 0.187,-7.543 0.395,-11.07 l -8.115,-0.589 c -0.345,3.447 -0.59,7.222 -0.717,11.338 v 0.027 l 8.437,0.294 z"
         id="path1865"
         style="fill:#e86601" />
      <path
         d="m 184.264,708.633 0.02,0.039 c 0.029,-1.081 0.049,-2.141 0.049,-3.172 l -8.457,-0.295 c -0.02,0 -0.039,0 -0.059,0.01 -0.021,1.207 -0.03,2.457 -0.03,3.724 v 0.128 l 0.069,0.009 c 0.009,0.009 0.028,0.022 0.047,0.03 l 8.361,0.284 v -0.757 z"
         id="path1867"
         style="fill:#e86601" />
      <path
         d="m 184.264,709.42 v -0.03 l -8.361,-0.284 c -0.019,-0.008 -0.038,-0.021 -0.047,-0.03 l -0.069,-0.01 c -0.659,0.032 -1.248,0.266 -1.768,0.697 -0.383,0.326 -0.669,0.736 -0.864,1.218 -0.05,0.177 -0.079,0.365 -0.09,0.57 -0.028,0.5 0.11,0.935 0.393,1.297 v 0.009 c 0.07,0.091 0.139,0.167 0.216,0.237 0.128,0.166 0.276,0.334 0.463,0.481 0.5,0.401 1.011,0.607 1.531,0.607 h 0.158 v 0.008 l 8.615,0.308 c 0.363,-0.129 0.688,-0.325 0.963,-0.581 0.471,-0.439 0.757,-0.981 0.864,-1.62 0.02,-0.106 0.029,-0.195 0.038,-0.284 0.049,-0.541 -0.078,-1.041 -0.362,-1.503 -0.354,-0.579 -0.845,-0.934 -1.483,-1.071 -0.07,-0.01 -0.128,-0.01 -0.186,-0.019 h -0.011 z"
         id="path1869"
         style="fill:#e27c9f" />
      <path
         d="m 184.441,714.605 v -0.107 l -8.615,-0.307 c 0.011,1.132 0.02,2.146 0.05,3.036 v 0.049 l 8.388,0.284 0.069,-0.812 v 0.087 c 0.088,-0.774 0.118,-1.512 0.108,-2.23"
         id="path1871"
         style="fill:#e86601" />
      <path
         d="m 186.268,720.45 v -0.129 -0.098 -0.028 -0.021 c 0.02,-0.46 -0.087,-0.863 -0.324,-1.207 -0.108,-0.187 -0.295,-0.403 -0.561,-0.64 -0.4,-0.372 -0.775,-0.606 -1.119,-0.716 v -0.052 l -8.388,-0.284 c -0.03,0 -0.059,0 -0.088,0.01 -0.501,0.07 -0.993,0.236 -1.465,0.484 -0.521,0.272 -0.894,0.686 -1.11,1.247 -0.187,0.498 -0.265,1.002 -0.226,1.522 0.02,0.412 0.098,0.774 0.247,1.08 0.117,0.266 0.264,0.451 0.45,0.56 l -0.048,-0.01 c 0.038,0.01 0.078,0.03 0.117,0.049 0.07,0.019 0.138,0.041 0.217,0.058 0.008,0 0.029,0 0.058,0.011 0.078,0.011 0.167,0.02 0.256,0.02 l 10.422,0.373 c 0.335,-0.157 0.618,-0.382 0.855,-0.678 0.364,-0.459 0.6,-0.972 0.707,-1.551"
         id="path1873"
         style="fill:#e27c9f" />
      <path
         d="m 184.706,722.74 v -0.062 l -10.422,-0.371 c -0.089,0 -0.178,-0.009 -0.256,-0.02 -0.029,-0.011 -0.05,-0.011 -0.058,-0.011 -0.079,-0.017 -0.147,-0.039 -0.217,-0.058 -0.039,-0.019 -0.079,-0.041 -0.117,-0.049 l -1.238,-0.284 c -9.588,-2.319 -17.662,-2.429 -24.223,-0.326 -2.869,0.926 -5.069,2.201 -6.602,3.842 -1.366,1.465 -1.975,2.997 -1.836,4.596 0.166,1.662 1.109,3.125 2.828,4.413 2.014,1.481 4.784,2.534 8.291,3.152 8.811,1.524 20.323,0.178 34.519,-4.016 -0.169,-0.051 -0.286,-1.033 -0.355,-2.958 -0.127,-2.928 -0.226,-5.541 -0.314,-7.848"
         id="path1875"
         style="fill:#e86601" />
      <path
         d="m 146.455,729.479 c -1.012,1.266 -1.396,2.7 -1.159,4.302 0.236,1.611 1.012,2.858 2.337,3.752 1.494,1.013 3.35,1.308 5.581,0.905 l -0.118,-0.061 c -1.848,0 -3.33,-0.502 -4.441,-1.513 -0.982,-0.894 -1.532,-2.043 -1.651,-3.458 -0.117,-1.366 0.207,-2.642 0.963,-3.85 0.797,-1.267 1.935,-2.161 3.418,-2.674 -2.17,0.306 -3.821,1.173 -4.93,2.597"
         id="path1877"
         style="fill:#e42126" />
      <path
         d="m 171.96,615.913 c -0.197,-0.437 -0.549,-0.296 -1.05,0.412 -4.033,5.617 -9.011,9.699 -14.935,12.245 -3.799,1.628 -8.984,2.879 -15.559,3.74 -3.713,0.493 -6.059,0.83 -7.039,1 -2.433,0.429 -4.432,0.974 -6.004,1.627 -3.888,1.644 -6.358,4.603 -7.405,8.896 -0.859,3.507 -0.487,6.72 1.094,9.65 1.42,2.65 3.651,4.768 6.692,6.353 2.931,1.518 6.072,2.27 9.423,2.27 3.493,-0.007 6.554,-0.852 9.19,-2.547 5.304,-3.403 10.027,-8.02 14.169,-13.847 3.338,-4.702 6.099,-9.871 8.296,-15.515 1.768,-4.547 2.83,-8.427 3.191,-11.648 0.169,-1.332 0.149,-2.2 -0.063,-2.636"
         id="path1879"
         style="fill:#fcdf00" />
      <path
         d="m 171.96,615.913 c 0.212,0.436 0.232,1.304 0.063,2.637 -0.361,3.222 -1.423,7.102 -3.191,11.648 -2.197,5.644 -4.958,10.812 -8.296,15.515 -4.142,5.827 -8.865,10.443 -14.169,13.847 -2.636,1.695 -5.697,2.54 -9.19,2.547 -3.351,0 -6.492,-0.752 -9.423,-2.27 -3.041,-1.585 -5.272,-3.702 -6.692,-6.353 -1.581,-2.931 -1.953,-6.144 -1.094,-9.65 1.047,-4.294 3.517,-7.253 7.405,-8.896 1.572,-0.653 3.571,-1.198 6.004,-1.627 0.98,-0.17 3.326,-0.507 7.039,-1 6.575,-0.861 11.76,-2.112 15.559,-3.74 5.924,-2.546 10.902,-6.628 14.935,-12.245 0.501,-0.709 0.853,-0.849 1.05,-0.413 z"
         id="path1881"
         style="fill:none;stroke:#f2b800;stroke-width:1.55799997;stroke-miterlimit:10" />
      <path
         d="m 125.315,648.053 0.001,-0.016 c 0.013,-0.531 0.006,-1.059 -0.023,-1.582 0,-0.05 -0.008,-0.093 -0.018,-0.121 -0.231,-1.181 -0.878,-2.349 -1.95,-3.51 -0.018,-0.023 -0.036,-0.048 -0.061,-0.063 -1.704,-1.477 -2.807,-2.477 -3.329,-2.995 l 0.006,0.008 c -0.137,-0.182 -0.71,-1.404 -1.719,-3.679 -1.195,-2.658 -2.157,-3.886 -2.898,-3.684 -2.55,0.122 -4.128,2.337 -4.717,6.628 -0.151,1.031 -0.323,2.585 -0.509,4.668 l -0.002,0.016 c -0.178,1.595 -0.44,2.742 -0.798,3.444 l -0.008,0.006 c -0.459,0.85 -1.166,1.934 -2.141,3.239 l 0.002,-0.015 c -1.161,1.522 -2.021,2.668 -2.575,3.438 -2.109,2.983 -3.061,5.487 -2.855,7.513 0.074,0.853 0.197,1.468 0.363,1.841 l 0.005,0.008 c 0.366,0.808 0.925,1.159 1.676,1.071 0.093,-0.008 0.176,-0.032 0.26,-0.068 0.881,-0.383 1.463,-0.666 1.739,-0.861 0.194,0.044 0.408,0.046 0.651,0.024 l -0.005,-0.007 c 0.121,-0.004 0.327,-0.044 0.606,-0.116 l 7.307,-0.758 c 0.037,-0.003 0.08,-0.012 0.118,-0.027 2.98,-0.777 5.372,-2.344 7.185,-4.708 2.325,-3.044 3.555,-6.274 3.689,-9.694 m -1.592,-0.059 0.003,-0.013 c -0.137,3.101 -1.266,6.033 -3.366,8.798 -1.581,2.057 -3.669,3.434 -6.265,4.126 l -7.307,0.758 c -0.05,0 -0.093,0.009 -0.132,0.022 -0.176,0.047 -0.308,0.068 -0.382,0.087 l -0.008,0.006 c -0.072,0.003 -0.135,0 -0.176,-0.005 -0.007,-0.008 -0.013,-0.017 -0.026,-0.02 -0.008,-0.043 -0.013,-0.1 -0.019,-0.157 l 0.002,-0.015 c -0.004,-0.221 0.036,-0.448 0.115,-0.694 -0.134,-0.779 0.66,-1.965 2.373,-3.562 0.651,-0.606 1.406,-1.242 2.266,-1.904 0.152,-0.126 0.576,-0.442 1.262,-0.953 1.053,-0.682 1.831,-1.186 2.334,-1.513 -0.012,-0.015 -0.017,-0.022 -0.023,-0.031 -1.206,0.462 -2.046,0.801 -2.523,1.009 -0.585,0.248 -1.126,0.503 -1.647,0.752 -0.681,0.469 -1.295,0.927 -1.863,1.362 -2.804,2.181 -4.099,4.076 -3.88,5.672 0.016,0.187 0.048,0.363 0.088,0.516 -0.18,0.074 -0.493,0.22 -0.942,0.416 -0.031,-0.025 -0.049,-0.063 -0.07,-0.108 l 0.013,0.014 c -0.117,-0.271 -0.193,-0.723 -0.243,-1.342 -0.114,-1.738 0.743,-3.889 2.571,-6.462 0.538,-0.758 1.382,-1.894 2.54,-3.386 l 0.007,-0.007 c 1.035,-1.376 1.793,-2.522 2.277,-3.441 0.447,-0.815 0.773,-2.158 0.979,-4.035 l 0.001,-0.015 c 0.195,-2.056 0.357,-3.586 0.507,-4.602 l -0.006,-0.01 c 0.454,-3.274 1.544,-5.027 3.277,-5.263 0.105,0.109 0.54,1.027 1.309,2.745 1.142,2.586 1.821,3.966 2.027,4.145 l 0.016,0.003 c 0.532,0.534 1.656,1.546 3.377,3.042 0.808,0.886 1.309,1.778 1.518,2.677 0.023,0.466 0.027,0.921 0.016,1.388"
         id="path1883"
         style="fill:#f2b800" />
      <path
         d="m 123.726,647.981 -0.003,0.013 c 0.011,-0.467 0.008,-0.922 -0.016,-1.388 -0.209,-0.898 -0.71,-1.791 -1.518,-2.677 -1.721,-1.496 -2.845,-2.508 -3.377,-3.042 l -0.016,-0.003 c -0.206,-0.179 -0.885,-1.559 -2.027,-4.145 -0.769,-1.718 -1.204,-2.636 -1.309,-2.745 -1.733,0.235 -2.823,1.988 -3.277,5.263 l 0.006,0.01 c -0.15,1.016 -0.311,2.546 -0.506,4.602 l -0.002,0.015 c -0.206,1.877 -0.532,3.22 -0.979,4.034 -0.484,0.92 -1.242,2.066 -2.277,3.442 l -0.007,0.007 c -1.158,1.492 -2.002,2.628 -2.54,3.385 -1.828,2.574 -2.685,4.725 -2.571,6.463 0.05,0.619 0.126,1.07 0.243,1.343 l -0.012,-0.015 c 0.021,0.045 0.038,0.083 0.069,0.108 0.449,-0.196 0.762,-0.342 0.942,-0.414 -0.04,-0.154 -0.072,-0.331 -0.088,-0.518 -0.219,-1.596 1.077,-3.491 3.88,-5.672 0.568,-0.436 1.182,-0.894 1.863,-1.362 0.521,-0.249 1.062,-0.504 1.647,-0.752 0.478,-0.208 1.317,-0.547 2.523,-1.009 0.006,0.009 0.011,0.017 0.023,0.031 -0.503,0.327 -1.281,0.831 -2.334,1.513 -0.686,0.511 -1.11,0.826 -1.262,0.953 -0.86,0.662 -1.615,1.298 -2.266,1.904 -1.713,1.599 -2.507,2.782 -2.372,3.562 -0.08,0.246 -0.12,0.474 -0.116,0.694 l -0.002,0.015 c 0.006,0.058 0.011,0.113 0.019,0.156 0.013,0.004 0.019,0.014 0.026,0.021 0.041,0.005 0.104,0.008 0.177,0.005 l 0.007,-0.006 c 0.074,-0.02 0.206,-0.04 0.382,-0.087 0.039,-0.014 0.082,-0.022 0.132,-0.022 l 7.307,-0.758 c 2.596,-0.692 4.684,-2.07 6.265,-4.126 2.099,-2.763 3.228,-5.697 3.366,-8.798"
         id="path1885"
         style="fill:#fcdf00" />
      <path
         d="m 165.565,614.981 c 0.858,-1.623 2.822,-2.371 5.916,-2.229 2.995,0.131 6.779,1.077 11.342,2.851 1.302,0.508 2.565,1.834 3.778,3.993 1.103,1.948 2.346,4.91 3.737,8.9 1.759,5.072 5.28,16.092 10.56,33.051 2.324,7.088 3.004,13.417 2.035,18.976 -0.871,5.043 -3.043,9.282 -6.531,12.702 -3.192,3.134 -7.257,5.405 -12.193,6.793 -4.665,1.326 -9.629,1.763 -14.9,1.303 -5.243,-0.464 -10.127,-1.753 -14.658,-3.857 -4.768,-2.195 -8.605,-5.062 -11.499,-8.586 -3.173,-3.827 -4.966,-8.142 -5.399,-12.945 -0.474,-5.305 0.749,-10.943 3.664,-16.926 6.443,-13.215 11.959,-23.682 16.56,-31.401 3.718,-5.838 6.244,-10.043 7.588,-12.625"
         id="path1887"
         style="fill:#f2b800" />
      <path
         d="m 171.48,612.752 c 2.995,0.131 6.78,1.077 11.343,2.851 1.302,0.508 2.565,1.834 3.777,3.993 1.104,1.949 2.346,4.91 3.737,8.9 1.76,5.072 5.281,16.092 10.56,33.051 2.324,7.088 3.005,13.417 2.035,18.977 -0.87,5.042 -3.043,9.281 -6.53,12.701 -3.193,3.134 -7.258,5.405 -12.193,6.793 -4.666,1.326 -9.63,1.763 -14.901,1.303 -5.243,-0.464 -10.127,-1.753 -14.657,-3.857 -4.768,-2.195 -8.605,-5.062 -11.5,-8.585 -3.172,-3.828 -4.966,-8.143 -5.399,-12.946 -0.474,-5.304 0.75,-10.943 3.665,-16.926 6.442,-13.215 11.958,-23.682 16.559,-31.4 3.718,-5.838 6.243,-10.041 7.588,-12.624 0.858,-1.625 2.824,-2.373 5.916,-2.231 z"
         id="path1889"
         style="fill:none;stroke:#f2b800;stroke-width:2.94499993;stroke-miterlimit:10" />
      <path
         d="m 135.741,557.282 c 3.101,-5.354 7.216,-9.969 12.346,-13.86 5.112,-3.875 10.825,-6.701 17.153,-8.499 6.543,-1.856 13.265,-2.478 20.182,-1.853 6.915,0.625 13.41,2.443 19.492,5.442 5.903,2.903 11.025,6.711 15.359,11.438 4.35,4.752 7.569,10.028 9.649,15.851 2.176,6.06 2.981,12.27 2.406,18.64 -1.441,15.911 -7.578,27.44 -18.413,34.592 -9.478,6.373 -21.792,8.877 -36.949,7.509 -7.073,-0.641 -13.558,-2.213 -19.46,-4.702 l -0.011,-0.002 c -6.088,-2.586 -11.255,-6.024 -15.5,-10.303 -9.313,-9.35 -13.301,-21.472 -11.956,-36.349 0.577,-6.369 2.473,-12.335 5.702,-17.904 m 13.295,-12.603 c -4.951,3.75 -8.936,8.219 -11.931,13.396 -3.112,5.373 -4.948,11.118 -5.505,17.255 -1.3,14.367 2.53,26.063 11.497,35.105 4.12,4.14 9.121,7.452 15.02,9.964 5.76,2.429 12.094,3.956 18.989,4.579 14.74,1.334 26.721,-1.083 35.942,-7.24 10.421,-6.924 16.328,-18.074 17.717,-33.438 0.557,-6.136 -0.22,-12.116 -2.318,-17.96 -2.018,-5.632 -5.135,-10.743 -9.344,-15.324 -4.197,-4.588 -9.152,-8.29 -14.878,-11.101 -5.913,-2.916 -12.223,-4.678 -18.945,-5.285 -6.721,-0.606 -13.255,-0.008 -19.613,1.796 -6.128,1.738 -11.678,4.49 -16.631,8.253"
         id="path1891"
         style="fill:#f2b800" />
      <path
         d="m 137.105,558.075 c 2.996,-5.178 6.98,-9.646 11.931,-13.396 4.953,-3.764 10.504,-6.516 16.631,-8.254 6.358,-1.804 12.892,-2.402 19.613,-1.796 6.722,0.607 13.033,2.369 18.945,5.285 5.726,2.811 10.681,6.513 14.879,11.101 4.208,4.58 7.325,9.692 9.343,15.324 2.098,5.844 2.875,11.824 2.319,17.96 -1.39,15.363 -7.297,26.514 -17.718,33.438 -9.221,6.157 -21.202,8.574 -35.942,7.24 -6.895,-0.623 -13.229,-2.15 -18.989,-4.579 -5.899,-2.512 -10.9,-5.824 -15.02,-9.964 -8.967,-9.042 -12.797,-20.738 -11.497,-35.105 0.557,-6.137 2.393,-11.882 5.505,-17.254"
         id="path1893"
         style="fill:#fcdf00" />
      <path
         d="m 150.572,560.962 c 0.965,0.521 1.867,1.221 2.69,2.112 1.4,1.492 2.465,3.408 3.187,5.745 1.627,-2.213 3.661,-3.927 6.11,-5.131 1.432,-0.707 2.932,-1.21 4.493,-1.511 2.253,-0.437 4.495,-0.439 6.717,-0.003 2.234,0.428 4.303,1.254 6.218,2.49 3.038,1.958 5.23,4.585 6.556,7.861 1.302,3.216 1.566,6.494 0.781,9.836 -0.486,2.012 -1.289,3.826 -2.401,5.458 l -0.928,1.223 c -1.266,1.519 -2.748,2.781 -4.464,3.798 -1.712,1.003 -3.566,1.703 -5.558,2.082 -2.251,0.435 -4.495,0.439 -6.707,0.003 -2.232,-0.429 -4.312,-1.255 -6.235,-2.501 -2.815,-1.817 -4.878,-4.13 -6.188,-6.943 -1.229,2.298 -2.835,4.071 -4.809,5.329 -1.428,0.903 -2.888,1.4 -4.401,1.479 -1.503,0.09 -2.948,-0.235 -4.346,-0.983 -1.24,-0.653 -2.345,-1.589 -3.306,-2.806 -0.962,-1.219 -1.738,-2.655 -2.337,-4.293 l -0.422,-1.308 c -0.483,-1.727 -0.738,-3.577 -0.764,-5.577 -0.014,-3.313 0.639,-6.414 1.953,-9.304 1.339,-2.945 3.139,-5.134 5.404,-6.571 1.419,-0.904 2.879,-1.393 4.391,-1.472 1.514,-0.088 2.968,0.241 4.366,0.987"
         id="path1895"
         style="fill:#ffffff" />
      <path
         d="m 166.682,576.52 c 0.875,1.176 1.244,2.527 1.105,4.05 -0.139,1.541 -0.743,2.797 -1.813,3.783 -1.072,0.998 -2.294,1.435 -3.658,1.312 -1.382,-0.126 -2.496,-0.773 -3.363,-1.947 -0.875,-1.164 -1.244,-2.508 -1.104,-4.048 0.137,-1.522 0.743,-2.787 1.814,-3.786 1.062,-0.997 2.275,-1.436 3.656,-1.309 1.364,0.123 2.488,0.772 3.363,1.945"
         id="path1897"
         style="fill:#1c1616" />
      <path
         d="m 140.142,573.561 c -0.962,0.972 -1.508,2.2 -1.642,3.672 -0.134,1.49 0.184,2.786 0.955,3.905 0.771,1.127 1.765,1.748 2.979,1.858 1.229,0.108 2.311,-0.321 3.264,-1.293 0.96,-0.963 1.507,-2.18 1.64,-3.673 0.134,-1.471 -0.183,-2.776 -0.954,-3.904 -0.763,-1.128 -1.75,-1.747 -2.978,-1.858 -1.216,-0.11 -2.305,0.321 -3.264,1.293"
         id="path1899"
         style="fill:#1c1616" />
      <path
         d="m 150.519,560.889 c 0.977,0.511 1.876,1.222 2.701,2.113 0.726,0.764 1.356,1.646 1.894,2.638 -5.274,-0.937 -9.558,0 -12.855,2.841 -2.74,2.357 -5.305,5.727 -7.707,10.092 l -0.048,-0.351 c -0.016,-0.039 -0.033,-0.071 -0.04,-0.1 -0.025,-0.053 -0.031,-0.082 -0.02,-0.11 0.05,-0.113 0.075,-0.171 0.075,-0.18 0.013,-0.137 -0.03,-0.21 -0.135,-0.229 -0.021,-0.002 -0.04,-0.004 -0.06,0.004 -0.002,-0.099 -0.002,-0.197 -0.004,-0.286 -0.013,-3.326 0.642,-6.441 1.968,-9.352 1.349,-2.956 3.161,-5.161 5.426,-6.6 1.428,-0.904 2.898,-1.391 4.42,-1.469 1.512,-0.088 2.978,0.243 4.385,0.989"
         id="path1901"
         style="fill:#e27c9f" />
      <path
         d="m 160.28,565.303 c -0.149,-0.004 -0.293,-0.019 -0.441,-0.021 0.864,-0.641 1.77,-1.199 2.727,-1.661 1.44,-0.706 2.942,-1.218 4.513,-1.52 2.263,-0.445 4.515,-0.447 6.757,0.002 2.233,0.427 4.32,1.257 6.243,2.501 3.058,1.969 5.25,4.594 6.594,7.894 1.31,3.236 1.573,6.536 0.787,9.886 -0.046,0.184 -0.104,0.375 -0.149,0.559 -0.095,-0.04 -0.219,0.028 -0.362,0.191 l -0.188,0.456 c -0.09,0.248 -0.217,0.561 -0.39,0.938 -0.121,0.256 -0.23,0.472 -0.325,0.669 -0.437,-1.367 -0.968,-2.692 -1.596,-3.991 -1.103,-2.28 -2.528,-4.347 -4.289,-6.189 -1.803,-1.915 -3.804,-3.609 -6.003,-5.076 -2.066,-1.387 -4.296,-2.493 -6.673,-3.31 -2.334,-0.819 -4.733,-1.264 -7.205,-1.328"
         id="path1903"
         style="fill:#e27c9f" />
      <path
         d="m 147.128,562.835 c 2.18,-0.619 4.21,-0.565 6.092,0.167 1.407,1.504 2.45,3.356 3.126,5.555 1.683,-2.081 3.759,-3.724 6.22,-4.936 2.968,-0.312 6.009,0.101 9.123,1.218 3.191,1.144 6.089,2.933 8.682,5.357 1.876,1.755 3.423,3.694 4.636,5.82 1.181,2.063 1.991,4.193 2.453,6.367 -0.498,2.021 -1.301,3.847 -2.415,5.485 l -0.938,1.233 c 0.141,-2.631 -0.369,-5.265 -1.515,-7.914 -1.184,-2.765 -2.939,-5.233 -5.269,-7.422 -3.117,-2.936 -6.653,-4.84 -10.596,-5.707 -3.692,-0.826 -7.181,-0.543 -10.462,0.843 -1.708,-1.758 -3.844,-2.512 -6.394,-2.261 -2.687,0.25 -5.254,1.55 -7.708,3.905 -1.83,1.75 -3.332,3.869 -4.509,6.339 -1.128,2.366 -1.841,4.819 -2.141,7.35 l -0.422,-1.308 c -0.483,-1.725 -0.736,-3.598 -0.771,-5.606 0.626,-2.019 1.468,-3.938 2.526,-5.741 1.101,-1.856 2.39,-3.491 3.865,-4.892 2.034,-1.94 4.175,-3.219 6.417,-3.852"
         id="path1905"
         style="fill:#0077bf" />
      <path
         d="m 136.394,602.506 c 1.375,-2.697 2.327,-4.411 2.866,-5.148 0.462,-0.656 0.964,-0.868 1.492,-0.632 0.772,0.503 1.517,0.854 2.244,1.068 0.538,0.155 5.296,1.807 14.285,4.951 6.568,2.296 10.646,3.528 12.215,3.691 -0.106,4.967 -3.893,8.676 -11.353,11.138 -2.221,0.734 -5.38,1.519 -9.479,2.368 -4.05,0.854 -6.672,1.472 -7.859,1.866 -8.386,2.791 -11.231,-0.33 -8.536,-9.368 0.851,-2.883 2.225,-6.201 4.125,-9.934"
         id="path1907"
         style="fill:#fcdf00" />
      <path
         d="m 139.26,597.357 c 0.461,-0.656 0.964,-0.868 1.492,-0.632 0.772,0.503 1.516,0.854 2.244,1.068 0.537,0.155 5.296,1.807 14.285,4.951 6.568,2.296 10.646,3.528 12.215,3.691 -0.106,4.967 -3.893,8.676 -11.354,11.138 -2.22,0.734 -5.379,1.519 -9.478,2.367 -4.05,0.854 -6.673,1.473 -7.859,1.867 -8.386,2.791 -11.231,-0.33 -8.536,-9.368 0.851,-2.884 2.224,-6.201 4.125,-9.935 1.375,-2.695 2.327,-4.409 2.866,-5.147 z"
         id="path1909"
         style="fill:none;stroke:#f2b800;stroke-width:1.56700003;stroke-miterlimit:10" />
      <path
         d="m 144.458,602.316 c 0.187,0.026 1.244,0.301 3.192,0.821 2.807,0.716 5.061,1.352 6.768,1.929 0.799,0.199 1.451,0.387 1.977,0.553 0.957,0.291 1.55,0.582 1.771,0.849 0.284,0.341 0.282,0.684 -0.005,1.033 l 0.022,-0.019 c -0.011,0.008 -0.033,0.027 -0.043,0.035 -1.522,1.288 -3.421,2.603 -5.695,3.92 -2.876,1.698 -5.618,3.082 -8.205,4.176 -7.484,3.148 -10.482,2.475 -8.982,-2.033 0.685,-2.032 1.549,-3.96 2.608,-5.781 1.15,-1.953 2.424,-3.626 3.838,-5.023 0.527,-0.512 1.446,-0.668 2.754,-0.46"
         id="path1911"
         style="fill:#d8272a" />
      <path
         d="m 149.508,598.025 c 2.653,1.646 4.492,3.82 5.527,6.519 -3.967,2.425 -7.175,4.189 -9.608,5.308 -2.493,1.142 -3.883,1.626 -4.183,1.449 -0.783,-0.463 -0.399,-2.002 1.146,-4.617 1.348,-2.286 3.724,-5.179 7.118,-8.659"
         id="path1913"
         style="fill:#e27c9f" />
      <path
         d="m 143.818,585.967 c 2.797,-1.43 5.275,-2.308 7.459,-2.65 3.59,-0.539 6.189,0.413 7.788,2.849 0.379,0.585 0.841,1.246 1.393,1.995 0.567,0.789 1.037,1.46 1.409,2.017 0.382,0.585 1.45,1.496 3.198,2.729 1.811,1.272 2.944,2.222 3.402,2.824 1.372,1.333 2.336,3.516 2.887,6.555 0.581,3.151 0.127,4.801 -1.354,4.973 -5.486,0.634 -11.737,0.688 -18.76,0.171 -6.839,-0.492 -13.109,-1.412 -18.806,-2.785 -6.009,-1.437 -10.254,-3.1 -12.729,-4.984 -2.77,-2.11 -2.967,-4.272 -0.575,-6.465 0.868,-0.797 4.467,-1.867 10.774,-3.214 6.939,-1.47 11.575,-2.812 13.914,-4.015"
         id="path1915"
         style="fill:#fcdf00" />
      <path
         d="m 151.278,583.316 c 3.589,-0.539 6.189,0.413 7.787,2.849 0.38,0.585 0.841,1.246 1.394,1.995 0.567,0.789 1.036,1.46 1.409,2.017 0.381,0.585 1.449,1.496 3.197,2.728 1.812,1.273 2.945,2.223 3.402,2.825 1.373,1.333 2.337,3.516 2.887,6.555 0.581,3.151 0.127,4.801 -1.354,4.973 -5.486,0.634 -11.736,0.688 -18.759,0.171 -6.839,-0.492 -13.109,-1.412 -18.807,-2.785 -6.008,-1.437 -10.253,-3.1 -12.728,-4.984 -2.77,-2.11 -2.967,-4.272 -0.575,-6.465 0.867,-0.797 4.467,-1.867 10.773,-3.214 6.939,-1.468 11.575,-2.81 13.915,-4.013 2.796,-1.431 5.274,-2.309 7.459,-2.652 z"
         id="path1917"
         style="fill:none;stroke:#f2b800;stroke-width:1.56700003;stroke-miterlimit:10" />
      <path
         d="m 166.824,527.579 c -1.231,-0.048 -2.446,0.31 -3.638,1.055 1.977,0.077 4.153,1.789 6.529,5.137 0.488,0.694 1.041,1.277 1.643,1.747 -0.124,0.018 -0.247,0.035 -0.368,0.062 -0.83,0.159 -1.52,0.36 -2.086,0.59 -0.28,-0.309 -0.554,-0.644 -0.816,-0.997 -0.056,-0.073 -0.113,-0.146 -0.16,-0.221 -2.537,-3.402 -5.098,-5.281 -7.689,-5.624 2.372,-2.667 4.624,-3.926 6.763,-3.778 2.144,0.115 4.171,1.233 6.087,3.347 l 0.006,0.027 c 0.297,0.372 0.566,0.724 0.818,1.042 0.011,-0.414 0.061,-0.824 0.128,-1.247 0.563,-3.947 -0.007,-6.979 -1.715,-9.089 3.714,0.102 6.334,0.984 7.855,2.629 1.427,1.537 2.153,3.529 2.18,5.973 0.595,-0.318 1.252,-0.573 1.976,-0.758 3.778,-1.056 6.099,-2.758 6.974,-5.099 2.014,3.317 2.74,5.973 2.161,7.979 -0.129,0.452 -0.306,0.868 -0.517,1.262 -0.596,1.062 -1.518,1.95 -2.769,2.653 -0.887,-0.004 -2.518,0.088 -4.883,0.286 l -0.004,-0.019 -2.313,0.332 c 0.379,-0.307 0.851,-0.605 1.414,-0.889 0.573,-0.271 1.821,-0.702 3.739,-1.291 1.875,-0.602 3.019,-1.713 3.435,-3.332 0.308,-1.151 0.227,-2.45 -0.233,-3.894 -0.496,1.854 -2.575,3.257 -6.25,4.199 -1.913,0.486 -3.219,1.579 -3.932,3.273 -0.355,0.865 -0.471,1.667 -0.345,2.404 -0.103,0.064 -0.186,0.128 -0.25,0.197 -0.47,-0.75 -0.732,-1.81 -0.79,-3.18 -0.01,-0.663 0.106,-2.009 0.353,-4.047 0.216,-1.996 -0.301,-3.645 -1.561,-4.934 -0.897,-0.919 -2.058,-1.587 -3.507,-2.015 1.425,1.497 1.833,4.138 1.206,7.934 -0.331,1.973 0.109,3.75 1.312,5.341 0.185,0.247 0.388,0.478 0.584,0.683 -0.197,0.037 -0.367,0.071 -0.524,0.113 -1.007,0.024 -2.183,-0.614 -3.516,-1.922 -0.501,-0.502 -1.422,-1.609 -2.743,-3.323 -1.326,-1.691 -2.84,-2.561 -4.554,-2.606"
         id="path1919"
         style="fill:#f2b800" />
      <path
         d="m 163.186,528.634 c 1.192,-0.745 2.407,-1.103 3.638,-1.055 1.714,0.045 3.228,0.915 4.554,2.607 1.321,1.714 2.243,2.821 2.743,3.323 1.333,1.308 2.509,1.946 3.516,1.922 0.019,-0.002 0.039,-0.004 0.058,-0.006 0.165,-0.014 0.317,-0.037 0.477,-0.07 0.006,-0.011 0.006,-0.011 0.015,-0.013 -0.012,-0.009 -0.013,-0.019 -0.025,-0.024 -0.197,-0.205 -0.4,-0.436 -0.585,-0.683 -1.203,-1.591 -1.642,-3.369 -1.312,-5.341 0.627,-3.796 0.219,-6.437 -1.205,-7.934 1.448,0.428 2.609,1.096 3.506,2.015 1.26,1.289 1.777,2.938 1.561,4.934 -0.247,2.038 -0.363,3.384 -0.353,4.047 0.058,1.37 0.32,2.43 0.79,3.18 0.143,0.221 0.307,0.419 0.484,0.585 -0.015,-0.027 -0.024,-0.056 -0.039,-0.084 l -0.189,-0.628 c 0.003,-0.029 -0.001,-0.05 -0.006,-0.07 -0.126,-0.737 -0.009,-1.539 0.348,-2.404 0.711,-1.694 2.017,-2.787 3.929,-3.273 3.676,-0.942 5.754,-2.346 6.25,-4.199 0.46,1.443 0.541,2.742 0.233,3.894 -0.413,1.62 -1.559,2.73 -3.434,3.332 -1.919,0.589 -3.166,1.02 -3.74,1.291 -0.563,0.283 -1.035,0.582 -1.414,0.889 -0.544,0.451 -0.903,0.925 -1.079,1.433 -0.08,0.244 -0.118,0.5 -0.112,0.772 0.002,0.051 0.004,0.101 0.006,0.148 l 0.022,0.05 c -0.053,-0.054 -0.105,-0.108 -0.159,-0.17 -0.14,-0.171 -0.269,-0.344 -0.379,-0.52 l -1.098,-0.063 c -0.053,-0.014 -0.104,-0.025 -0.158,-0.039 -0.632,-0.181 -1.229,-0.537 -1.793,-1.092 -0.71,1.281 -1.984,1.765 -3.817,1.463 -0.224,-0.037 -0.452,-0.086 -0.673,-0.146 -0.168,-0.045 -0.339,-0.103 -0.51,-0.157 -0.03,-0.006 -0.064,-0.021 -0.095,-0.026 l -0.625,-0.273 c -0.08,-0.039 -0.147,-0.08 -0.225,-0.118 -0.013,-0.009 -0.022,-0.008 -0.033,-0.015 -0.239,-0.138 -0.46,-0.278 -0.685,-0.438 -0.022,-0.016 -0.046,-0.032 -0.072,-0.061 -0.013,-0.007 -0.022,-0.007 -0.034,-0.013 -0.011,-0.011 -0.013,-0.02 -0.026,-0.027 -0.011,-0.007 -0.024,-0.019 -0.035,-0.025 -0.012,-0.009 -0.035,-0.025 -0.048,-0.034 -0.602,-0.469 -1.154,-1.052 -1.643,-1.746 -2.376,-3.349 -4.551,-5.061 -6.529,-5.138"
         id="path1921"
         style="fill:#fcdf00" />
      <path
         d="m 165.565,614.981 c 0.858,-1.623 2.822,-2.371 5.916,-2.229 2.995,0.131 6.779,1.077 11.342,2.851 1.302,0.508 2.565,1.834 3.778,3.993 1.103,1.948 2.346,4.91 3.737,8.9 1.759,5.072 5.28,16.092 10.56,33.051 2.324,7.088 3.004,13.417 2.035,18.976 -0.871,5.043 -3.043,9.282 -6.531,12.702 -3.192,3.134 -7.257,5.405 -12.193,6.793 -4.665,1.326 -9.629,1.763 -14.9,1.303 -5.243,-0.464 -10.127,-1.753 -14.658,-3.857 -4.768,-2.195 -8.605,-5.062 -11.499,-8.586 -3.173,-3.827 -4.966,-8.142 -5.399,-12.945 -0.474,-5.305 0.749,-10.943 3.664,-16.926 6.443,-13.215 11.959,-23.682 16.56,-31.401 3.718,-5.838 6.244,-10.043 7.588,-12.625"
         id="path1923"
         style="fill:#fcdf00" />
      <path
         d="m 178.651,631.914 c 1.802,-1.614 3.428,-2.143 4.863,-1.594 0.582,0.219 1.429,0.903 2.546,2.043 0.86,0.853 1.589,1.667 2.175,2.44 2.11,2.684 4.387,4.743 6.844,6.185 2.475,1.476 5.295,2.414 8.453,2.805 2.571,0.341 5.287,1.73 8.159,4.173 2.966,2.524 4.904,5.223 5.818,8.077 0.358,1.085 0.452,2.512 0.279,4.273 -0.131,1.597 -0.444,3.092 -0.942,4.494 -1.015,2.959 -3.187,5.396 -6.499,7.328 -3.037,1.759 -6.592,2.886 -10.69,3.372 -4.022,0.467 -7.766,0.22 -11.233,-0.723 -3.694,-1.013 -6.402,-2.639 -8.126,-4.896 -2.031,-2.654 -3.549,-5.58 -4.541,-8.777 -0.657,-2.105 -1.325,-5.369 -2.017,-9.796 -0.24,-1.56 -0.242,-3.868 0.009,-6.932 0.251,-3.14 0.63,-5.418 1.125,-6.827 0.806,-2.261 2.065,-4.144 3.777,-5.645"
         id="path1925"
         style="fill:#eddc00" />
      <path
         d="m 178.651,631.914 c -1.712,1.501 -2.971,3.384 -3.777,5.646 -0.495,1.409 -0.874,3.688 -1.125,6.827 -0.251,3.063 -0.249,5.372 -0.009,6.932 0.692,4.427 1.36,7.69 2.017,9.796 0.992,3.197 2.51,6.123 4.541,8.777 1.724,2.257 4.432,3.883 8.126,4.896 3.467,0.942 7.211,1.189 11.233,0.723 4.098,-0.486 7.653,-1.613 10.69,-3.372 3.312,-1.932 5.484,-4.369 6.499,-7.328 0.498,-1.402 0.811,-2.897 0.942,-4.494 0.173,-1.762 0.079,-3.188 -0.279,-4.273 -0.914,-2.854 -2.852,-5.553 -5.818,-8.077 -2.872,-2.442 -5.588,-3.832 -8.159,-4.173 -3.158,-0.389 -5.978,-1.329 -8.453,-2.805 -2.457,-1.441 -4.734,-3.501 -6.844,-6.185 -0.586,-0.773 -1.315,-1.588 -2.175,-2.44 -1.117,-1.14 -1.964,-1.824 -2.546,-2.043 -1.435,-0.55 -3.061,-0.021 -4.863,1.593 z"
         id="path1927"
         style="fill:none;stroke:#f2b800;stroke-width:2.92499995;stroke-miterlimit:10" />
      <path
         d="m 177.704,628.512 11.012,-3.676 0.249,2.939 c 0.27,2.36 0.65,4.569 1.14,6.617 1.579,6.572 3.959,10.321 7.148,11.247 l -14.565,1.366 -8.229,-7.614 c 0.184,-1.067 0.456,-2.327 0.833,-3.768 0.722,-2.883 1.521,-5.253 2.412,-7.111"
         id="path1929"
         style="fill:#fcdf00" />
      <path
         d="m 178.651,631.914 c 1.802,-1.614 3.428,-2.143 4.863,-1.594 0.582,0.219 1.429,0.903 2.546,2.043 0.86,0.853 1.589,1.667 2.175,2.44 2.11,2.684 4.387,4.743 6.844,6.185 2.475,1.476 5.295,2.414 8.453,2.805 2.571,0.341 5.287,1.73 8.159,4.173 2.966,2.524 4.904,5.223 5.818,8.077 0.358,1.085 0.452,2.512 0.279,4.273 -0.131,1.597 -0.444,3.092 -0.942,4.494 -1.015,2.959 -3.187,5.396 -6.499,7.328 -3.037,1.759 -6.592,2.886 -10.69,3.372 -4.022,0.467 -7.766,0.22 -11.233,-0.723 -3.694,-1.013 -6.402,-2.639 -8.126,-4.896 -2.031,-2.654 -3.549,-5.58 -4.541,-8.777 -0.657,-2.105 -1.325,-5.369 -2.017,-9.796 -0.24,-1.56 -0.242,-3.868 0.009,-6.932 0.251,-3.14 0.63,-5.418 1.125,-6.827 0.806,-2.261 2.065,-4.144 3.777,-5.645"
         id="path1931"
         style="fill:#fcdf00" />
      <path
         d="m 200.141,661.042 -0.001,-0.014 c 0.867,-1.654 1.937,-3.025 3.215,-4.127 0.605,-0.529 1.416,-1.059 2.438,-1.571 0.126,-0.849 0.693,-1.726 1.67,-2.63 0.272,-0.258 0.849,-0.732 1.722,-1.421 0.653,-0.528 1.104,-0.907 1.351,-1.135 0.247,-0.241 1.034,-1.179 2.365,-2.828 1.379,-1.712 2.265,-2.8 2.666,-3.238 l 0.013,-0.003 c 0.523,-0.565 1.165,-0.906 1.927,-1.018 l 0.009,0.005 c 1.038,-0.169 1.936,0.18 2.693,1.046 0.755,0.851 1.089,1.931 1.011,3.244 l -0.007,-0.004 c -0.03,0.688 -0.267,1.746 -0.711,3.183 l 10e-4,0.014 c -0.416,1.289 -0.648,2.215 -0.705,2.795 -0.07,0.793 0.097,1.45 0.519,1.972 0.007,0.006 0.007,0.006 0.008,0.021 l 0.009,0.004 c 0.15,0.142 0.827,0.712 2.018,1.714 1.338,1.117 2.276,1.986 2.799,2.6 0.886,1.013 1.608,2.293 2.161,3.837 0.797,2.187 0.67,3.672 -0.366,4.458 -0.58,0.644 -1.957,0.566 -4.114,-0.236 -0.008,-0.006 -0.022,-0.018 -0.035,-0.018 -0.634,-0.278 -1.161,-0.5 -1.595,-0.686 -2.179,0.74 -4.041,1.342 -5.585,1.833 -3.232,1.34 -6.522,1.518 -9.882,0.525 l 0.006,0.007 c -0.418,-0.128 -0.831,-0.26 -1.243,-0.394 l 0.009,0.006 c -2.183,-0.725 -3.678,-1.57 -4.481,-2.519 -1.151,-1.229 -1.116,-3.045 0.115,-5.422 m 0.951,1.443 c -0.044,0.199 -0.083,0.378 -0.109,0.555 -0.299,1.009 -0.224,1.805 0.221,2.404 0.689,0.765 1.955,1.444 3.79,2.062 0.383,0.122 0.78,0.246 1.179,0.365 3.02,0.893 5.979,0.731 8.887,-0.479 0.026,-0.017 0.046,-0.025 0.074,-0.03 1.598,-0.5 3.545,-1.146 5.851,-1.924 0.014,-10e-4 0.026,-0.016 0.039,-0.019 0.081,-0.024 0.166,-0.057 0.252,-0.088 0.199,-0.179 0.327,-0.362 0.381,-0.543 0.013,-0.16 -0.042,-0.312 -0.17,-0.449 -0.614,-0.682 -1.457,-1.244 -2.532,-1.67 -0.038,-0.027 -0.061,-0.046 -0.076,-0.059 -0.747,-0.574 -2.431,-0.987 -5.042,-1.245 -1.308,-0.136 -2.391,-0.147 -3.255,-0.064 0.003,-0.033 0.013,-0.063 0.024,-0.09 0.071,-0.204 0.21,-0.357 0.4,-0.443 1.374,-0.685 3.337,-0.777 5.87,-0.289 2.676,0.493 4.609,1.442 5.79,2.842 l 0.008,0.005 c 0.491,0.575 0.651,1.18 0.498,1.808 -0.061,0.286 -0.183,0.572 -0.388,0.855 0.184,0.079 0.388,0.163 0.595,0.264 0.012,-0.005 0.021,0.004 0.028,0.008 1.349,0.499 2.187,0.668 2.521,0.506 0.435,-0.487 0.407,-1.405 -0.081,-2.749 -0.478,-1.338 -1.101,-2.456 -1.875,-3.349 -0.496,-0.566 -1.37,-1.374 -2.623,-2.427 -1.353,-1.129 -2.081,-1.76 -2.178,-1.873 -0.008,-0.007 -0.015,-0.011 -0.024,-0.018 -0.715,-0.823 -1.011,-1.874 -0.9,-3.148 0.046,-0.651 0.309,-1.692 0.773,-3.137 0.391,-1.258 0.602,-2.2 0.635,-2.801 l 0.005,-0.009 c 0.049,-0.857 -0.163,-1.573 -0.63,-2.13 -0.359,-0.426 -0.784,-0.604 -1.282,-0.534 l -0.005,0.008 c -0.41,0.054 -0.755,0.229 -1.02,0.528 l 0.005,-0.01 c -0.394,0.434 -1.262,1.495 -2.612,3.17 -1.415,1.758 -2.25,2.759 -2.523,3.003 -0.26,0.241 -0.74,0.643 -1.439,1.198 -0.824,0.655 -1.368,1.106 -1.628,1.35 l -0.006,0.008 c -0.193,0.169 -0.364,0.345 -0.509,0.516 0.474,-0.188 1.004,-0.395 1.579,-0.613 0.196,-0.081 0.399,-0.074 0.598,0.017 0.147,0.066 0.256,0.162 0.336,0.299 -0.284,0.161 -0.587,0.332 -0.938,0.519 -1.484,0.792 -2.249,1.211 -2.313,1.248 -1.183,0.658 -2.126,1.294 -2.852,1.9 -0.95,0.657 -1.627,1.253 -2.043,1.792 -0.576,0.746 -1.007,1.739 -1.286,2.96"
         id="path1933"
         style="fill:#f2b800" />
      <path
         d="m 200.983,663.04 c 0.026,-0.177 0.064,-0.355 0.109,-0.555 0.279,-1.222 0.71,-2.214 1.286,-2.961 0.416,-0.539 1.093,-1.135 2.043,-1.792 0.726,-0.606 1.668,-1.242 2.853,-1.902 0.063,-0.035 0.828,-0.454 2.312,-1.246 0.351,-0.187 0.654,-0.357 0.938,-0.519 -0.08,-0.137 -0.189,-0.232 -0.336,-0.299 -0.199,-0.091 -0.402,-0.098 -0.599,-0.017 -0.574,0.219 -1.104,0.426 -1.578,0.613 0.145,-0.171 0.316,-0.347 0.509,-0.516 l 0.006,-0.008 c 0.26,-0.243 0.804,-0.695 1.628,-1.35 0.699,-0.556 1.179,-0.957 1.439,-1.198 0.273,-0.244 1.108,-1.246 2.523,-3.003 1.349,-1.675 2.218,-2.736 2.612,-3.17 l -0.005,0.01 c 0.265,-0.3 0.61,-0.475 1.02,-0.528 l 0.005,-0.008 c 0.498,-0.07 0.923,0.108 1.282,0.534 0.467,0.557 0.679,1.272 0.63,2.129 l -0.005,0.01 c -0.033,0.601 -0.244,1.543 -0.635,2.801 -0.464,1.444 -0.727,2.485 -0.773,3.137 -0.111,1.273 0.185,2.325 0.9,3.148 0.009,0.007 0.016,0.011 0.024,0.018 0.097,0.113 0.825,0.744 2.178,1.873 1.253,1.053 2.127,1.859 2.623,2.427 0.774,0.892 1.397,2.011 1.875,3.349 0.488,1.344 0.516,2.262 0.081,2.749 -0.334,0.162 -1.173,-0.007 -2.521,-0.506 -0.007,-0.005 -0.016,-0.013 -0.028,-0.008 -0.207,-0.101 -0.411,-0.185 -0.595,-0.264 0.205,-0.283 0.326,-0.569 0.387,-0.855 0.154,-0.63 -0.006,-1.232 -0.498,-1.808 l -0.007,-0.005 c -1.181,-1.4 -3.114,-2.349 -5.79,-2.843 -2.533,-0.487 -4.497,-0.395 -5.87,0.29 -0.19,0.085 -0.329,0.239 -0.4,0.443 -0.011,0.026 -0.021,0.057 -0.024,0.09 0.864,-0.083 1.947,-0.071 3.255,0.064 2.611,0.258 4.294,0.669 5.042,1.245 0.015,0.013 0.038,0.031 0.076,0.059 1.074,0.426 1.918,0.988 2.532,1.67 0.128,0.136 0.183,0.289 0.17,0.449 -0.054,0.181 -0.182,0.364 -0.381,0.543 -0.086,0.031 -0.171,0.062 -0.252,0.088 -0.013,0.002 -0.025,0.017 -0.039,0.019 -2.306,0.777 -4.253,1.424 -5.851,1.924 -0.028,0.005 -0.048,0.014 -0.074,0.03 -2.909,1.21 -5.868,1.371 -8.888,0.479 -0.398,-0.119 -0.795,-0.243 -1.178,-0.366 -1.835,-0.616 -3.101,-1.296 -3.79,-2.061 -0.446,-0.598 -0.52,-1.394 -0.221,-2.403"
         id="path1935"
         style="fill:#fcdf00" />
    </g>
  </g>
</svg>
