<?xml version="1.0" encoding="UTF-8" standalone="no"?>
<!-- Created with Inkscape (http://www.inkscape.org/) -->

<svg
   xmlns:dc="http://purl.org/dc/elements/1.1/"
   xmlns:cc="http://creativecommons.org/ns#"
   xmlns:rdf="http://www.w3.org/1999/02/22-rdf-syntax-ns#"
   xmlns:svg="http://www.w3.org/2000/svg"
   xmlns="http://www.w3.org/2000/svg"
   xmlns:sodipodi="http://sodipodi.sourceforge.net/DTD/sodipodi-0.dtd"
   xmlns:inkscape="http://www.inkscape.org/namespaces/inkscape"
   width="124.46304"
   height="217.66542"
   id="svg5696"
   version="1.1"
   inkscape:version="0.48.4 r9939"
   sodipodi:docname="big_bird2.svg">
  <defs
     id="defs5698" />
  <sodipodi:namedview
     id="base"
     pagecolor="#ffffff"
     bordercolor="#666666"
     borderopacity="1.0"
     inkscape:pageopacity="0.0"
     inkscape:pageshadow="2"
     inkscape:zoom="0.77472527"
     inkscape:cx="-98.597051"
     inkscape:cy="65.165815"
     inkscape:current-layer="layer1"
     inkscape:document-units="px"
     showgrid="false"
     inkscape:window-width="942"
     inkscape:window-height="591"
     inkscape:window-x="413"
     inkscape:window-y="97"
     inkscape:window-maximized="0"
     fit-margin-top="0"
     fit-margin-left="0"
     fit-margin-right="0"
     fit-margin-bottom="0" />
  <metadata
     id="metadata5701">
    <rdf:RDF>
      <cc:Work
         rdf:about="">
        <dc:format>image/svg+xml</dc:format>
        <dc:type
           rdf:resource="http://purl.org/dc/dcmitype/StillImage" />
        <dc:title></dc:title>
      </cc:Work>
    </rdf:RDF>
  </metadata>
  <g
     id="layer1"
     inkscape:label="Layer 1"
     inkscape:groupmode="layer"
     transform="translate(-330.22683,67.39325)">
    <g
       transform="translate(-301.71434,-100.62825)"
       id="g747">
      <path
         inkscape:connector-curvature="0"
         style="fill:#eddc00"
         d="m 685.641,183.687 c -0.63,-1.541 -0.606,-3.457 0.056,-5.751 0.701,-2.414 1.969,-4.601 3.806,-6.538 2.115,-2.214 4.666,-3.737 7.644,-4.557 3.484,-0.964 7.336,-0.899 11.553,0.173 0.859,-1.409 2.804,-3.051 5.842,-4.94 3.232,-2.01 6.63,-3.591 10.192,-4.736 4.137,-1.339 7.723,-1.797 10.774,-1.373 3.612,0.491 6.17,2.194 7.67,5.108 2.104,4.075 0.707,8.247 -4.193,12.515 -1.789,1.554 -3.81,2.899 -6.054,4.044 -2.015,1.017 -3.539,1.561 -4.585,1.625 2.035,3.094 2.127,6.219 0.268,9.359 -1.608,2.741 -4.371,5.06 -8.284,6.948 -3.739,1.823 -7.371,2.729 -10.907,2.722 -3.808,0.004 -6.357,-1.116 -7.652,-3.361 0.226,2.017 -0.709,3.751 -2.811,5.203 -1.965,1.368 -4.376,2.136 -7.232,2.287 -3.01,0.171 -5.582,-0.415 -7.726,-1.764 -2.472,-1.539 -3.893,-3.857 -4.277,-6.953 -0.136,-1.097 0.846,-2.84 2.943,-5.23 2.117,-2.392 3.114,-4.086 2.99,-5.08 l -0.017,0.299 z"
         id="path749" />
      <path
         inkscape:connector-curvature="0"
         style="fill:none;stroke:#f2b800;stroke-width:2.81599998;stroke-miterlimit:10"
         d="m 685.641,183.687 0.016,-0.3 c 0.124,0.994 -0.873,2.688 -2.99,5.08 -2.098,2.391 -3.079,4.134 -2.943,5.23 0.385,3.096 1.806,5.414 4.277,6.953 2.144,1.349 4.716,1.935 7.726,1.764 2.856,-0.151 5.268,-0.919 7.232,-2.287 2.102,-1.452 3.036,-3.186 2.811,-5.203 1.295,2.245 3.845,3.365 7.652,3.361 3.536,0.007 7.168,-0.899 10.907,-2.722 3.913,-1.888 6.676,-4.207 8.284,-6.948 1.859,-3.138 1.768,-6.265 -0.268,-9.359 1.046,-0.064 2.57,-0.608 4.585,-1.625 2.244,-1.145 4.265,-2.49 6.054,-4.044 4.9,-4.268 6.297,-8.44 4.193,-12.515 -1.5,-2.914 -4.058,-4.617 -7.67,-5.108 -3.052,-0.424 -6.638,0.034 -10.774,1.373 -3.562,1.145 -6.96,2.726 -10.192,4.736 -3.038,1.889 -4.982,3.531 -5.842,4.94 -4.217,-1.072 -8.068,-1.137 -11.553,-0.173 -2.978,0.82 -5.528,2.343 -7.644,4.557 -1.837,1.937 -3.104,4.124 -3.806,6.538 -0.662,2.294 -0.685,4.211 -0.055,5.752 z"
         id="path751" />
      <path
         inkscape:connector-curvature="0"
         style="fill:#fcdf00"
         d="m 685.641,183.687 c -0.63,-1.541 -0.606,-3.457 0.056,-5.751 0.701,-2.414 1.969,-4.601 3.806,-6.538 2.115,-2.214 4.666,-3.737 7.644,-4.557 3.484,-0.964 7.336,-0.899 11.553,0.173 0.859,-1.409 2.804,-3.051 5.842,-4.94 3.232,-2.01 6.63,-3.591 10.192,-4.736 4.137,-1.339 7.723,-1.797 10.774,-1.373 3.612,0.491 6.17,2.194 7.67,5.108 2.104,4.075 0.707,8.247 -4.193,12.515 -1.789,1.554 -3.81,2.899 -6.054,4.044 -2.015,1.017 -3.539,1.561 -4.585,1.625 2.035,3.094 2.127,6.219 0.268,9.359 -1.608,2.741 -4.371,5.06 -8.284,6.948 -3.739,1.823 -7.371,2.729 -10.907,2.722 -3.808,0.004 -6.357,-1.116 -7.652,-3.361 0.226,2.017 -0.709,3.751 -2.811,5.203 -1.965,1.368 -4.376,2.136 -7.232,2.287 -3.01,0.171 -5.582,-0.415 -7.726,-1.764 -2.472,-1.539 -3.893,-3.857 -4.277,-6.953 -0.136,-1.097 0.846,-2.84 2.943,-5.23 2.117,-2.392 3.114,-4.086 2.99,-5.08 l -0.017,0.299 z"
         id="path753" />
      <path
         inkscape:connector-curvature="0"
         style="fill:#e42126"
         d="m 684.402,196.666 c 0.125,-0.242 0.252,-0.485 0.383,-0.708 -3.332,-1.024 -6.668,-2.031 -10.021,-3.041 -0.134,0.224 -0.266,0.446 -0.4,0.679 -1.864,3.059 -3.607,6.431 -5.228,10.114 -0.045,-0.023 -0.092,-0.038 -0.139,-0.043 -0.74,-0.197 -1.505,-0.049 -2.313,0.449 h -0.008 v 0.009 c -0.687,0.434 -1.192,1.055 -1.51,1.843 -0.252,0.802 -0.234,1.555 0.065,2.26 0.341,0.802 0.891,1.291 1.652,1.464 h 0.009 c 0.075,0.006 0.139,0.021 0.182,0.046 -0.013,0.047 -0.015,0.083 -0.028,0.128 -0.092,0.179 -0.176,0.37 -0.248,0.578 -0.129,0.356 -0.245,0.721 -0.352,1.076 -0.003,0.009 -0.003,0.009 0.006,0.02 -0.052,0.156 -0.102,0.3 -0.146,0.457 -0.041,0.172 -0.067,0.359 -0.075,0.537 -0.002,0.14 -0.034,0.259 -0.099,0.375 -0.026,-0.022 -0.054,-0.041 -0.079,-0.073 -0.002,0.029 -0.004,0.047 -0.007,0.075 -0.671,-0.052 -1.283,0.184 -1.838,0.715 H 664.2 l -0.003,0.009 c -0.544,0.523 -0.851,1.21 -0.908,2.059 -0.04,0.841 0.181,1.611 0.673,2.304 0.01,-0.009 0.018,0.002 0.007,0.009 0.542,0.772 1.208,1.201 1.996,1.299 0,0.112 0.025,0.237 0.078,0.364 l 1.48,0.134 c -0.055,-0.333 -0.078,-0.674 -0.085,-1.02 l -0.562,-0.118 c -0.364,-0.117 -0.719,-0.347 -1.074,-0.67 -0.174,-0.155 -0.318,-0.33 -0.443,-0.517 -0.076,-0.076 -0.145,-0.157 -0.21,-0.255 v -0.009 c -0.274,-0.382 -0.406,-0.808 -0.37,-1.284 0.009,-0.195 0.04,-0.37 0.096,-0.544 0.2,-0.444 0.495,-0.801 0.884,-1.065 0.513,-0.348 1.07,-0.505 1.678,-0.467 0.009,0 0.028,0.002 0.045,0.002 0.014,-0.044 0.017,-0.072 0.019,-0.101 0.047,-0.07 0.09,-0.142 0.124,-0.223 -0.132,-0.398 -0.129,-0.857 0.002,-1.361 0.156,-0.586 0.36,-1.15 0.604,-1.701 0.106,-0.215 0.225,-0.402 0.38,-0.547 0.044,-0.175 0.085,-0.34 0.13,-0.515 -0.01,0 -0.039,-0.002 -0.064,-0.005 -0.599,-0.12 -1.117,-0.429 -1.532,-0.927 -0.379,-0.457 -0.574,-0.993 -0.604,-1.596 0.025,-0.175 0.059,-0.351 0.095,-0.527 0.101,-0.272 0.231,-0.493 0.391,-0.678 0.173,-0.142 0.354,-0.286 0.534,-0.41 0.261,-0.193 0.555,-0.325 0.871,-0.399 0.651,-0.148 1.275,-0.177 1.865,-0.075 0.012,-0.018 0.015,-0.029 0.022,-0.026 1.524,-3.665 3.2,-7.005 5.032,-10.04 2.44,0.748 4.86,1.483 7.264,2.218 -1.714,3.14 -3.215,6.439 -4.515,9.889 v 0.019 c 0.4,0.347 0.688,0.794 0.872,1.346 0.078,0.28 0.099,0.581 0.06,0.897 -0.111,0.618 -0.404,1.156 -0.869,1.611 -0.381,0.351 -0.833,0.601 -1.344,0.741 -0.019,0 -0.038,-0.001 -0.057,0.005 -0.018,-0.012 -0.036,-0.022 -0.053,-0.033 -0.012,0.009 -0.021,0.018 -0.029,0.027 -0.094,0.065 -0.166,0.145 -0.239,0.232 -0.157,0.182 -0.289,0.395 -0.379,0.65 -0.188,0.5 -0.316,1.013 -0.414,1.549 -0.059,0.343 -0.068,0.669 -0.042,1 -0.012,0.01 -0.012,0.01 -0.012,0.018 -0.007,0.075 -0.012,0.149 -0.019,0.224 l -0.003,0.028 h 0.01 c 0.046,0.014 0.109,0.02 0.175,0.036 0.6,0.195 1.062,0.594 1.383,1.195 0.257,0.466 0.363,0.954 0.314,1.483 -0.023,0.065 -0.041,0.157 -0.041,0.269 -0.112,0.601 -0.391,1.081 -0.827,1.454 -0.031,0.027 -0.07,0.06 -0.112,0.086 l -0.792,0.37 c -0.026,0.166 -0.041,0.333 -0.046,0.501 l 1.73,0.158 c 0.247,-0.118 0.486,-0.285 0.715,-0.517 -0.011,-0.011 0.003,-0.02 0.01,-0.009 0.51,-0.545 0.788,-1.241 0.839,-2.094 0.028,-0.851 -0.183,-1.621 -0.628,-2.309 -0.303,-0.469 -0.676,-0.811 -1.098,-1.029 0,-0.008 0,-0.008 0.002,-0.019 -0.027,-0.011 -0.045,-0.032 -0.061,-0.053 -0.009,-0.009 -0.009,-0.018 -0.018,-0.028 -0.003,-0.075 0.005,-0.15 0.012,-0.216 -0.01,-0.103 0,-0.215 0.021,-0.335 0.065,-0.332 0.15,-0.654 0.264,-0.953 0.137,-0.373 0.342,-0.654 0.613,-0.856 0,-0.008 0,-0.017 0.002,-0.026 0.318,-0.094 0.624,-0.246 0.934,-0.461 0.652,-0.456 1.123,-1.09 1.393,-1.9 0.271,-0.792 0.264,-1.545 -10e-4,-2.245 -0.162,-0.391 -0.378,-0.7 -0.639,-0.931 1.358,-3.49 2.911,-6.843 4.676,-10.052"
         id="path755" />
      <path
         inkscape:connector-curvature="0"
         style="fill:#e42126"
         d="m 642.812,226.142 c -2.784,1.2 -4.882,2.776 -6.287,4.723 -1.427,1.963 -1.985,3.978 -1.675,6.043 l -0.002,0.011 c 0.268,2.118 1.417,3.939 3.439,5.456 l 0.008,0.001 c 2.048,1.547 4.8,2.557 8.27,3.031 l 0.008,0.003 c 8.189,1.128 18.688,-0.867 31.479,-6.005 0.163,-0.022 0.299,-0.18 0.391,-0.471 0.018,0.03 0.032,0.059 0.058,0.089 0.231,-0.682 0.393,-1.84 0.492,-3.464 l 0.003,-0.012 c 0.036,-0.699 0.049,-1.373 0.053,-2.04 -0.007,-1.673 -0.127,-3.242 -0.359,-4.719 0,0 0.008,0.002 0.02,-0.006 -0.028,-0.105 -0.048,-0.202 -0.048,-0.286 0.048,-0.035 0.1,-0.068 0.149,-0.1 0.148,-0.108 0.293,-0.235 0.427,-0.382 -0.009,-0.011 0.003,-0.02 0.012,-0.009 0.443,-0.55 0.647,-1.246 0.612,-2.096 -0.084,-0.842 -0.38,-1.602 -0.9,-2.277 -0.307,-0.357 -0.618,-0.629 -0.938,-0.837 -0.228,-0.059 -0.394,-0.224 -0.508,-0.507 -0.122,-0.312 -0.214,-0.629 -0.289,-0.946 -0.035,-0.142 -0.031,-0.283 -0.002,-0.403 -0.003,-0.057 -0.006,-0.114 -0.011,-0.18 0.047,-0.022 0.106,-0.037 0.154,-0.06 l -1.73,-0.158 c -0.047,0.821 0.097,1.615 0.441,2.368 0.024,0.051 0.048,0.09 0.092,0.141 l 0.408,0.252 c 0.223,0.143 0.465,0.334 0.727,0.573 0.27,0.242 0.474,0.465 0.598,0.664 0.261,0.343 0.411,0.734 0.438,1.177 -0.002,0.009 -0.002,0.009 -0.002,0.018 -0.01,0 -0.002,0.011 0.006,0.029 -0.011,0.018 -0.004,0.048 0.012,0.096 0.005,0.029 0.002,0.074 0.005,0.122 -0.039,0.532 -0.212,1.003 -0.521,1.416 -0.201,0.246 -0.443,0.439 -0.738,0.573 0.008,0.02 0.006,0.037 0.006,0.046 0.004,0.048 0.019,0.105 0.023,0.154 0.034,0.257 0.073,0.53 0.121,0.807 v 0.011 h 0.011 c 0.222,1.175 0.359,2.341 0.413,3.512 0.039,0.914 0.024,1.823 -0.031,2.729 -0.059,0.85 -0.092,1.53 -0.109,2.025 -0.041,-0.05 -0.084,-0.1 -0.127,-0.151 0.018,0.134 0.026,0.246 0.043,0.343 0.038,0.313 0.082,0.458 0.121,0.443 -12.542,5.039 -22.831,7.014 -30.863,5.936 -0.555,-0.079 -1.093,-0.174 -1.618,-0.287 -0.14,-0.097 -0.271,-0.213 -0.4,-0.328 -0.938,-0.856 -1.499,-2.005 -1.688,-3.438 -0.193,-1.38 0.022,-2.713 0.634,-3.981 0.639,-1.341 1.616,-2.302 2.923,-2.908 -1.945,0.426 -3.376,1.394 -4.294,2.914 -0.825,1.344 -1.093,2.831 -0.778,4.447 0.195,1.04 0.576,1.911 1.158,2.631 -1.383,-0.475 -2.576,-1.08 -3.587,-1.839 -1.627,-1.218 -2.566,-2.665 -2.816,-4.348 -0.218,-1.625 0.236,-3.228 1.383,-4.786 1.285,-1.751 3.19,-3.173 5.712,-4.268 4.356,-1.867 9.559,-2.511 15.607,-1.916 l 7.859,1.026 0.068,-0.043 c -0.298,-0.12 -0.534,-0.3 -0.719,-0.553 -0.061,-0.07 -0.107,-0.152 -0.158,-0.221 -0.072,-0.128 -0.137,-0.274 -0.186,-0.431 l -0.011,-0.008 c -0.049,-0.174 -0.098,-0.358 -0.138,-0.541 -0.05,-0.275 -0.062,-0.547 -0.048,-0.811 0.003,-0.14 0.023,-0.279 0.056,-0.417 0.018,-0.073 0.032,-0.146 0.047,-0.211 0.152,-0.522 0.467,-0.886 0.945,-1.097 0.185,-0.086 0.372,-0.164 0.562,-0.212 l 0.887,-0.134 c -0.004,-0.066 -0.019,-0.126 -0.042,-0.174 -0.266,-0.691 -0.445,-1.383 -0.542,-2.087 l -1.48,-0.134 c 0.009,0.011 0.009,0.011 0.009,0.02 0.006,0.037 0.011,0.077 0.018,0.114 0.047,0.296 0.107,0.582 0.175,0.869 0.04,0.165 0.092,0.31 0.156,0.448 -0.655,-0.022 -1.205,0.237 -1.657,0.768 h -0.009 l 0.009,0.011 c -0.2,0.235 -0.355,0.502 -0.46,0.803 -0.061,0.153 -0.102,0.309 -0.126,0.477 -0.03,0.447 -0.005,0.89 0.093,1.322 0.03,0.115 0.057,0.231 0.092,0.356 -0.245,-0.07 -0.57,-0.128 -0.988,-0.175 -0.416,-0.066 -0.816,-0.121 -1.185,-0.183 -0.37,-0.061 -0.658,-0.106 -0.862,-0.134 v 0.009 c -7.283,-1.027 -13.448,-0.441 -18.501,1.767"
         id="path757" />
      <path
         inkscape:connector-curvature="0"
         style="fill:#e27c9f"
         d="m 668.43,204.866 c -0.316,0.074 -0.61,0.206 -0.871,0.399 -0.18,0.124 -0.361,0.268 -0.534,0.411 -0.159,0.184 -0.29,0.405 -0.391,0.678 -0.036,0.175 -0.069,0.351 -0.095,0.526 0.03,0.604 0.226,1.139 0.604,1.596 0.415,0.498 0.934,0.807 1.532,0.928 0.025,0.003 0.055,0.004 0.064,0.004 0.031,-0.007 0.047,-0.004 0.057,0.007 2.643,0.68 5.267,1.352 7.882,2.03 0.008,-0.009 0.018,-0.017 0.029,-0.027 0.017,0.011 0.034,0.022 0.053,0.033 0.019,-0.006 0.038,-0.004 0.057,-0.004 0.511,-0.141 0.963,-0.391 1.344,-0.742 0.465,-0.454 0.758,-0.992 0.869,-1.61 0.039,-0.317 0.019,-0.618 -0.06,-0.898 -0.185,-0.551 -0.472,-0.998 -0.872,-1.346 v -0.019 c -2.583,-0.676 -5.19,-1.354 -7.804,-2.041 -0.589,-0.101 -1.213,-0.073 -1.864,0.075"
         id="path759" />
      <path
         inkscape:connector-curvature="0"
         style="fill:#e86601"
         d="m 668.797,209.415 c -0.01,-0.011 -0.025,-0.014 -0.057,-0.007 -0.045,0.176 -0.086,0.34 -0.131,0.516 -0.154,0.145 -0.272,0.331 -0.379,0.547 -0.244,0.55 -0.448,1.114 -0.604,1.7 -0.131,0.505 -0.134,0.964 -0.002,1.361 -0.035,0.081 -0.078,0.154 -0.124,0.224 -0.002,0.028 -0.005,0.057 -0.019,0.101 0.038,-0.005 0.055,0.006 0.064,0.015 0.018,0.011 0.037,0.014 0.055,0.023 2.667,0.402 5.325,0.813 7.974,1.223 0.007,-0.074 0.012,-0.148 0.019,-0.224 0,-0.007 0,-0.007 0.012,-0.017 -0.026,-0.331 -0.017,-0.658 0.042,-1.001 0.098,-0.535 0.227,-1.049 0.414,-1.549 0.09,-0.255 0.222,-0.467 0.379,-0.649 0.073,-0.088 0.146,-0.167 0.239,-0.233 -2.616,-0.678 -5.24,-1.35 -7.882,-2.03"
         id="path761" />
      <path
         inkscape:connector-curvature="0"
         style="fill:#e86601"
         d="m 670.317,204.765 c -0.008,0 -0.011,0.008 -0.022,0.026 2.614,0.687 5.221,1.365 7.804,2.041 1.3,-3.45 2.801,-6.748 4.515,-9.888 -2.403,-0.736 -4.823,-1.471 -7.264,-2.219 -1.832,3.035 -3.508,6.375 -5.033,10.04"
         id="path763" />
      <path
         inkscape:connector-curvature="0"
         style="fill:#e27c9f"
         d="m 675.571,215.146 0.003,-0.028 c -2.648,-0.41 -5.307,-0.821 -7.974,-1.223 -0.018,-0.01 -0.037,-0.012 -0.055,-0.023 -0.01,-0.01 -0.026,-0.02 -0.064,-0.016 -0.018,0 -0.036,-0.002 -0.045,-0.002 -0.607,-0.038 -1.165,0.119 -1.679,0.467 -0.388,0.264 -0.683,0.621 -0.883,1.065 -0.056,0.174 -0.087,0.349 -0.096,0.544 -0.036,0.476 0.096,0.902 0.37,1.284 v 0.009 c 0.065,0.098 0.134,0.179 0.21,0.255 0.125,0.188 0.27,0.362 0.443,0.517 0.355,0.323 0.71,0.553 1.074,0.67 l 0.562,0.118 1.843,0.279 c 1.982,0.294 3.964,0.594 5.936,0.906 l 0.464,0.071 0.792,-0.37 c 0.042,-0.026 0.081,-0.059 0.112,-0.085 0.437,-0.374 0.716,-0.854 0.827,-1.455 0,-0.112 0.018,-0.204 0.041,-0.269 0.049,-0.529 -0.058,-1.017 -0.314,-1.483 -0.321,-0.601 -0.783,-1 -1.384,-1.195 -0.064,-0.015 -0.128,-0.022 -0.174,-0.036 h -0.009 z"
         id="path765" />
      <path
         inkscape:connector-curvature="0"
         style="fill:#e27c9f"
         d="m 667.223,222.198 c -0.192,0.048 -0.38,0.126 -0.564,0.212 -0.479,0.211 -0.793,0.575 -0.945,1.098 -0.015,0.064 -0.029,0.138 -0.046,0.211 -0.033,0.137 -0.054,0.276 -0.057,0.416 -0.015,0.264 -0.002,0.536 0.048,0.812 0.04,0.183 0.089,0.367 0.138,0.541 l 0.011,0.008 c 0.049,0.156 0.113,0.303 0.186,0.43 0.051,0.07 0.098,0.151 0.158,0.222 0.185,0.252 0.421,0.432 0.719,0.552 l 1.021,0.142 c 0.815,0.1 1.635,0.194 2.452,0.296 2.266,0.272 4.52,0.552 6.758,0.831 0.295,-0.134 0.537,-0.327 0.738,-0.573 0.31,-0.413 0.482,-0.884 0.521,-1.415 -0.003,-0.049 0,-0.094 -0.005,-0.122 -0.016,-0.049 -0.022,-0.079 -0.012,-0.097 -0.008,-0.018 -0.016,-0.029 -0.006,-0.029 0,-0.009 0,-0.009 0.002,-0.017 -0.027,-0.444 -0.178,-0.835 -0.438,-1.177 -0.124,-0.199 -0.328,-0.423 -0.598,-0.664 -0.261,-0.24 -0.504,-0.431 -0.726,-0.574 l -0.409,-0.251 -1.06,-0.134 c -1.911,-0.24 -3.825,-0.47 -5.747,-0.701 l -1.254,-0.151 -0.885,0.134 z"
         id="path767" />
      <path
         inkscape:connector-curvature="0"
         style="fill:#e86601"
         d="m 666.869,226.701 -0.068,0.042 -7.859,-1.025 c -6.049,-0.595 -11.251,0.048 -15.607,1.916 -2.521,1.095 -4.427,2.517 -5.712,4.268 -1.146,1.558 -1.601,3.161 -1.383,4.786 0.25,1.683 1.19,3.13 2.817,4.347 1.01,0.76 2.203,1.365 3.588,1.84 -0.584,-0.72 -0.963,-1.591 -1.16,-2.632 -0.314,-1.615 -0.047,-3.102 0.779,-4.446 0.918,-1.52 2.348,-2.49 4.293,-2.914 -1.306,0.606 -2.284,1.567 -2.923,2.908 -0.611,1.268 -0.827,2.601 -0.633,3.981 0.188,1.432 0.75,2.582 1.688,3.438 0.129,0.115 0.261,0.231 0.4,0.328 0.525,0.113 1.063,0.208 1.618,0.287 8.032,1.078 18.321,-0.897 30.863,-5.936 -0.039,0.015 -0.083,-0.13 -0.121,-0.443 -0.017,-0.097 -0.025,-0.209 -0.043,-0.343 0.043,0.051 0.086,0.101 0.127,0.151 0.018,-0.495 0.051,-1.176 0.109,-2.025 0.056,-0.906 0.07,-1.815 0.031,-2.729 -0.054,-1.171 -0.191,-2.338 -0.413,-3.512 h -0.01 v -0.011 c -0.049,-0.277 -0.088,-0.55 -0.122,-0.807 -0.005,-0.049 -0.02,-0.106 -0.023,-0.154 0,-0.009 0.002,-0.026 -0.006,-0.046 -2.238,-0.279 -4.492,-0.56 -6.758,-0.831 -0.817,-0.102 -1.637,-0.196 -2.451,-0.297 l -1.021,-0.141 z"
         id="path769" />
      <path
         inkscape:connector-curvature="0"
         style="fill:#e86601"
         d="m 668.107,222.064 1.254,0.151 c 1.922,0.23 3.836,0.461 5.747,0.701 l 1.06,0.133 c -0.043,-0.051 -0.067,-0.09 -0.092,-0.141 -0.414,-0.91 -0.545,-1.861 -0.396,-2.869 l -0.463,-0.071 c -1.973,-0.312 -3.954,-0.612 -5.937,-0.906 l -1.843,-0.279 c 0.024,1.062 0.241,2.096 0.627,3.107 0.024,0.048 0.04,0.109 0.043,0.174"
         id="path771" />
      <polygon
         style="fill:#e42126"
         points="662.771,224.179 662.771,224.188 662.78,224.19 "
         id="polygon773" />
      <path
         inkscape:connector-curvature="0"
         style="fill:#e42126"
         d="m 705.836,201.702 c 0.094,-0.257 0.189,-0.513 0.294,-0.753 -3.453,-0.61 -6.905,-1.203 -10.379,-1.795 -0.104,0.239 -0.207,0.479 -0.312,0.727 -1.481,3.283 -2.806,6.863 -3.968,10.739 -0.048,-0.018 -0.095,-0.024 -0.144,-0.024 -0.762,-0.105 -1.509,0.136 -2.249,0.733 h -0.009 v 0.011 c -0.633,0.518 -1.063,1.2 -1.279,2.025 -0.152,0.835 -0.043,1.583 0.346,2.247 0.438,0.755 1.044,1.179 1.828,1.256 h 0.012 c 0.073,-0.002 0.141,0.004 0.188,0.022 -0.009,0.048 -0.007,0.085 -0.015,0.131 -0.068,0.191 -0.127,0.391 -0.178,0.608 -0.082,0.371 -0.154,0.749 -0.218,1.117 0,0.011 0,0.011 0.011,0.02 -0.032,0.16 -0.065,0.311 -0.089,0.474 -0.022,0.178 -0.024,0.367 -0.01,0.545 0.014,0.14 0,0.263 -0.053,0.388 -0.028,-0.018 -0.057,-0.035 -0.087,-0.064 0.002,0.029 0.002,0.046 0.002,0.075 -0.676,0.033 -1.257,0.342 -1.748,0.941 l -0.007,0.002 v 0.009 c -0.479,0.588 -0.7,1.31 -0.651,2.166 0.047,0.628 0.234,1.195 0.561,1.703 l 1.832,-0.061 c -0.037,-0.045 -0.077,-0.082 -0.108,-0.118 -0.086,-0.062 -0.161,-0.137 -0.24,-0.227 v -0.01 c -0.323,-0.347 -0.504,-0.754 -0.53,-1.234 -0.017,-0.195 -0.003,-0.375 0.03,-0.555 0.143,-0.465 0.395,-0.861 0.751,-1.173 0.467,-0.409 1.004,-0.634 1.614,-0.673 0.009,0 0.027,-0.002 0.047,-0.002 0.008,-0.046 0.006,-0.075 0.006,-0.103 0.035,-0.077 0.069,-0.154 0.097,-0.239 -0.183,-0.38 -0.235,-0.839 -0.167,-1.359 0.084,-0.604 0.214,-1.191 0.394,-1.771 0.076,-0.228 0.173,-0.43 0.31,-0.594 0.021,-0.178 0.043,-0.35 0.067,-0.529 -0.01,0.002 -0.04,0.002 -0.065,0.002 -0.615,-0.044 -1.168,-0.29 -1.644,-0.736 -0.438,-0.408 -0.698,-0.917 -0.802,-1.516 0.002,-0.18 0.016,-0.358 0.029,-0.538 0.065,-0.283 0.17,-0.522 0.305,-0.724 0.155,-0.164 0.317,-0.331 0.483,-0.476 0.238,-0.224 0.516,-0.393 0.819,-0.506 0.632,-0.229 1.252,-0.334 1.854,-0.306 0.009,-0.02 0.009,-0.028 0.019,-0.028 1.067,-3.846 2.324,-7.387 3.778,-10.641 2.526,0.442 5.035,0.877 7.521,1.314 -1.32,3.345 -2.409,6.823 -3.277,10.426 v 0.02 c 0.441,0.294 0.784,0.706 1.036,1.236 0.112,0.267 0.169,0.568 0.172,0.886 -0.035,0.632 -0.261,1.204 -0.669,1.717 -0.335,0.397 -0.759,0.701 -1.249,0.906 -0.021,0 -0.038,0.001 -0.057,0.01 -0.019,-0.009 -0.039,-0.017 -0.057,-0.026 -0.01,0.011 -0.019,0.02 -0.026,0.028 -0.082,0.079 -0.146,0.166 -0.209,0.261 -0.135,0.203 -0.24,0.433 -0.297,0.699 -0.125,0.52 -0.191,1.048 -0.222,1.595 -0.016,0.349 0.013,0.678 0.081,1.005 -0.009,0.008 -0.009,0.008 -0.009,0.018 0.002,0.076 0.005,0.151 0.007,0.225 l 0.002,0.029 h 0.01 c 0.048,0.007 0.114,0.005 0.179,0.013 0.625,0.121 1.135,0.462 1.528,1.021 0.315,0.432 0.482,0.907 0.5,1.441 -0.018,0.069 -0.023,0.163 -0.011,0.275 -0.011,0.197 -0.044,0.386 -0.083,0.566 l 1.577,-0.051 c 0.02,-0.237 0.031,-0.491 0.014,-0.753 -0.074,-0.853 -0.382,-1.597 -0.911,-2.227 -0.362,-0.432 -0.778,-0.728 -1.224,-0.893 v -0.017 c -0.028,-0.009 -0.049,-0.027 -0.068,-0.047 -0.009,-0.009 -0.009,-0.017 -0.021,-0.026 -0.01,-0.074 -0.013,-0.149 -0.015,-0.215 -0.021,-0.103 -0.025,-0.217 -0.019,-0.338 0.025,-0.34 0.069,-0.672 0.144,-0.982 0.093,-0.389 0.258,-0.697 0.507,-0.931 0,-0.009 -0.002,-0.018 -0.002,-0.029 0.308,-0.131 0.592,-0.321 0.875,-0.573 0.593,-0.537 0.986,-1.226 1.155,-2.069 0.172,-0.825 0.07,-1.574 -0.281,-2.241 -0.208,-0.368 -0.463,-0.651 -0.75,-0.848 0.923,-3.653 2.059,-7.189 3.424,-10.611"
         id="path775" />
      <path
         inkscape:connector-curvature="0"
         style="fill:#e42126"
         d="m 667.713,232.385 c -2.997,1.067 -5.271,2.506 -6.82,4.306 -1.578,1.81 -2.23,3.687 -1.97,5.624 v 0.008 c 0.225,1.989 1.383,3.709 3.472,5.173 h 0.01 c 2.127,1.493 5.009,2.497 8.668,3.017 h 0.009 c 8.646,1.221 19.843,-0.444 33.567,-4.996 0.591,-0.057 0.787,-1.502 0.601,-4.336 v -0.009 c -0.185,-2.458 -0.559,-4.694 -1.143,-6.706 0,0 0.011,-0.003 0.02,-0.011 -0.042,-0.102 -0.071,-0.196 -0.087,-0.28 0.195,-0.157 0.368,-0.342 0.519,-0.552 -0.008,-0.009 0,-0.02 0.009,-0.011 0.375,-0.603 0.494,-1.324 0.354,-2.166 -0.188,-0.83 -0.577,-1.552 -1.182,-2.162 -0.349,-0.318 -0.695,-0.55 -1.04,-0.717 -0.234,-0.032 -0.419,-0.176 -0.567,-0.443 -0.162,-0.297 -0.294,-0.602 -0.405,-0.91 -0.054,-0.138 -0.067,-0.278 -0.054,-0.4 -0.011,-0.058 -0.022,-0.113 -0.034,-0.179 0.297,-0.151 0.562,-0.377 0.797,-0.685 -0.01,-0.008 -10e-4,-0.019 0.009,-0.01 0.306,-0.413 0.497,-0.9 0.564,-1.438 l -1.577,0.05 c -0.112,0.372 -0.299,0.699 -0.562,0.988 -0.026,0.029 -0.062,0.069 -0.099,0.099 l -0.749,0.465 c -0.022,1.027 0.228,1.96 0.754,2.816 0.029,0.046 0.056,0.083 0.106,0.129 l 0.439,0.202 c 0.24,0.114 0.506,0.275 0.796,0.481 0.299,0.206 0.531,0.406 0.678,0.59 0.302,0.309 0.502,0.681 0.583,1.119 v 0.018 c -0.01,0 0,0.011 0.01,0.028 -0.007,0.02 0.003,0.046 0.023,0.095 0.01,0.026 0.01,0.074 0.021,0.12 0.029,0.537 -0.087,1.027 -0.347,1.48 -0.168,0.267 -0.388,0.491 -0.665,0.66 0.012,0.02 0.012,0.037 0.012,0.046 0.078,0.31 0.171,0.617 0.268,0.942 v 0.011 h 0.008 c 0.652,2.038 1.039,4.094 1.153,6.179 0.115,2.083 0.224,3.105 0.317,3.074 -13.443,4.458 -24.414,6.106 -32.893,4.928 -0.594,-0.086 -1.163,-0.189 -1.712,-0.292 -0.143,-0.099 -0.287,-0.198 -0.414,-0.317 -0.968,-0.825 -1.531,-1.906 -1.686,-3.256 -0.157,-1.301 0.114,-2.533 0.798,-3.713 0.723,-1.238 1.785,-2.129 3.187,-2.663 -2.066,0.358 -3.618,1.239 -4.634,2.635 -0.928,1.243 -1.251,2.628 -0.975,4.151 0.173,0.983 0.557,1.808 1.144,2.493 -1.444,-0.47 -2.687,-1.069 -3.736,-1.795 -1.686,-1.178 -2.633,-2.548 -2.846,-4.13 -0.18,-1.527 0.354,-3.013 1.614,-4.454 1.414,-1.618 3.479,-2.909 6.193,-3.883 6.07,-2.165 13.59,-2.364 22.557,-0.579 0.2,0.153 0.405,0.316 0.606,0.479 0.106,0.015 0.192,0.03 0.266,0.047 0.01,-0.01 0.029,-0.01 0.039,-0.002 -0.183,-0.087 -0.348,-0.233 -0.515,-0.443 -0.019,-0.019 -0.037,-0.037 -0.049,-0.055 -0.207,-0.285 -0.369,-0.619 -0.493,-1.001 -0.084,-0.269 -0.129,-0.542 -0.15,-0.803 -0.015,-0.217 -0.003,-0.432 0.028,-0.64 0.084,-0.541 0.354,-0.944 0.807,-1.211 0.175,-0.11 0.352,-0.211 0.535,-0.282 l 0.867,-0.246 c -0.011,-0.065 -0.03,-0.12 -0.061,-0.166 -0.512,-0.961 -0.854,-1.967 -1.013,-3.024 l -0.575,-0.047 c -0.38,-0.071 -0.761,-0.259 -1.155,-0.537 -0.145,-0.108 -0.279,-0.226 -0.398,-0.344 l -1.832,0.061 c 0.11,0.175 0.247,0.349 0.395,0.514 0.009,-0.009 0.018,0 0.009,0.008 0.635,0.705 1.352,1.047 2.151,1.049 0.024,0.121 0.062,0.244 0.133,0.374 0.011,0.034 0.023,0.072 0.033,0.109 0.085,0.289 0.179,0.568 0.282,0.847 0.061,0.158 0.131,0.296 0.211,0.426 -0.655,0.059 -1.174,0.386 -1.557,0.974 h -0.009 l 0.009,0.009 c -0.387,0.577 -0.505,1.257 -0.375,2.043 -8.371,-1.409 -15.452,-1.073 -21.252,1.027"
         id="path777" />
      <path
         inkscape:connector-curvature="0"
         style="fill:#e27c9f"
         d="m 690.91,211.862 c -0.305,0.111 -0.581,0.282 -0.819,0.506 -0.166,0.145 -0.327,0.312 -0.483,0.476 -0.135,0.203 -0.239,0.441 -0.305,0.725 -0.014,0.18 -0.027,0.357 -0.029,0.538 0.104,0.598 0.365,1.108 0.802,1.515 0.476,0.446 1.028,0.692 1.644,0.736 0.025,0 0.056,0 0.065,-0.001 0.025,-0.01 0.047,-0.012 0.055,0 2.721,0.35 5.423,0.694 8.116,1.047 0.008,-0.008 0.018,-0.019 0.025,-0.028 0.019,0.009 0.039,0.018 0.058,0.026 0.019,-0.008 0.036,-0.01 0.057,-0.01 0.49,-0.205 0.914,-0.509 1.249,-0.906 0.408,-0.513 0.632,-1.084 0.67,-1.717 -0.004,-0.318 -0.061,-0.619 -0.173,-0.886 -0.252,-0.529 -0.595,-0.942 -1.036,-1.235 v -0.021 c -2.665,-0.355 -5.35,-0.708 -8.04,-1.07 -0.604,-0.029 -1.224,0.076 -1.856,0.305"
         id="path779" />
      <path
         inkscape:connector-curvature="0"
         style="fill:#e86601"
         d="m 691.839,216.357 c -0.008,-0.011 -0.029,-0.009 -0.055,0 -0.024,0.179 -0.046,0.351 -0.067,0.528 -0.137,0.164 -0.232,0.367 -0.31,0.595 -0.18,0.58 -0.31,1.167 -0.394,1.771 -0.068,0.52 -0.016,0.979 0.167,1.358 -0.027,0.085 -0.062,0.163 -0.097,0.24 0,0.028 0.002,0.056 -0.006,0.103 0.036,-0.012 0.057,-0.003 0.066,0.006 0.019,0.008 0.038,0.008 0.056,0.018 2.712,0.069 5.414,0.151 8.106,0.232 -0.002,-0.074 -0.005,-0.149 -0.007,-0.226 0,-0.009 0,-0.009 0.009,-0.017 -0.068,-0.327 -0.097,-0.656 -0.081,-1.005 0.03,-0.547 0.097,-1.076 0.222,-1.596 0.057,-0.265 0.162,-0.495 0.297,-0.698 0.063,-0.096 0.125,-0.183 0.209,-0.261 -2.692,-0.354 -5.394,-0.697 -8.115,-1.048"
         id="path781" />
      <path
         inkscape:connector-curvature="0"
         style="fill:#e86601"
         d="m 692.782,211.526 c -0.011,0.002 -0.011,0.01 -0.019,0.031 2.691,0.362 5.375,0.715 8.041,1.07 0.868,-3.603 1.956,-7.081 3.277,-10.426 -2.487,-0.436 -4.995,-0.871 -7.521,-1.313 -1.455,3.255 -2.71,6.796 -3.778,10.638"
         id="path783" />
      <path
         inkscape:connector-curvature="0"
         style="fill:#e27c9f"
         d="m 699.309,221.237 -0.002,-0.029 c -2.692,-0.081 -5.395,-0.162 -8.106,-0.232 -0.018,-0.01 -0.038,-0.01 -0.056,-0.018 -0.01,-0.009 -0.03,-0.017 -0.066,-0.006 -0.02,0 -0.038,0.002 -0.047,0.002 -0.61,0.039 -1.147,0.263 -1.614,0.673 -0.356,0.312 -0.608,0.708 -0.751,1.173 -0.033,0.18 -0.047,0.359 -0.03,0.555 0.026,0.48 0.207,0.886 0.53,1.234 v 0.01 c 0.08,0.09 0.154,0.164 0.24,0.226 0.148,0.176 0.315,0.329 0.506,0.463 0.396,0.278 0.776,0.466 1.156,0.537 l 0.575,0.047 1.874,0.051 c 2.015,0.048 4.029,0.102 6.035,0.168 l 0.469,0.013 0.749,-0.465 c 0.036,-0.03 0.072,-0.07 0.099,-0.099 0.391,-0.425 0.609,-0.941 0.646,-1.553 -0.013,-0.112 -0.007,-0.207 0.011,-0.275 -0.018,-0.535 -0.185,-1.009 -0.5,-1.441 -0.394,-0.559 -0.904,-0.9 -1.529,-1.021 -0.065,-0.008 -0.13,-0.006 -0.178,-0.013 h -0.011 z"
         id="path785" />
      <path
         inkscape:connector-curvature="0"
         style="fill:#e27c9f"
         d="m 691.85,229.308 c -0.184,0.071 -0.36,0.172 -0.535,0.282 -0.453,0.267 -0.723,0.671 -0.807,1.211 -0.031,0.208 -0.043,0.423 -0.028,0.64 0.021,0.262 0.066,0.534 0.15,0.804 0.124,0.381 0.286,0.715 0.493,1.001 0.012,0.017 0.03,0.035 0.049,0.054 0.167,0.211 0.332,0.356 0.515,0.443 -0.01,-0.008 -0.029,-0.008 -0.039,0.003 0.049,0.007 0.085,0.015 0.135,0.041 0.065,0.018 0.142,0.033 0.217,0.049 0.018,-0.009 0.038,0 0.057,0.008 0.087,0.006 0.17,0.005 0.255,0.011 0.123,0.005 0.255,0 0.386,0.005 3.263,-0.002 6.498,-0.016 9.724,-0.018 0.277,-0.169 0.497,-0.393 0.665,-0.66 0.26,-0.453 0.376,-0.943 0.347,-1.479 -0.011,-0.046 -0.011,-0.095 -0.021,-0.121 -0.021,-0.048 -0.03,-0.075 -0.023,-0.095 -0.01,-0.017 -0.02,-0.028 -0.01,-0.028 v -0.018 c -0.081,-0.44 -0.281,-0.81 -0.583,-1.118 -0.146,-0.185 -0.379,-0.385 -0.678,-0.591 -0.29,-0.206 -0.556,-0.366 -0.796,-0.481 l -0.439,-0.202 -1.072,-0.002 c -1.939,-0.002 -3.876,0.005 -5.822,0.011 l -1.271,0.004 -0.869,0.246 z"
         id="path787" />
      <path
         inkscape:connector-curvature="0"
         style="fill:#e86601"
         d="m 691.782,233.787 c -0.05,-0.027 -0.086,-0.035 -0.135,-0.042 -0.073,-0.017 -0.159,-0.033 -0.266,-0.048 -0.201,-0.162 -0.406,-0.325 -0.607,-0.478 -8.966,-1.787 -16.485,-1.587 -22.556,0.579 -2.715,0.974 -4.779,2.265 -6.193,3.883 -1.261,1.441 -1.794,2.927 -1.614,4.454 0.213,1.582 1.16,2.951 2.846,4.13 1.05,0.726 2.292,1.325 3.736,1.795 -0.587,-0.685 -0.971,-1.51 -1.144,-2.493 -0.276,-1.523 0.047,-2.908 0.975,-4.152 1.016,-1.396 2.567,-2.276 4.634,-2.634 -1.401,0.534 -2.464,1.424 -3.187,2.663 -0.684,1.178 -0.954,2.411 -0.798,3.713 0.154,1.35 0.718,2.431 1.686,3.256 0.127,0.119 0.271,0.218 0.414,0.316 0.549,0.103 1.118,0.206 1.712,0.292 8.479,1.179 19.448,-0.47 32.893,-4.927 -0.094,0.031 -0.202,-0.992 -0.317,-3.075 -0.114,-2.084 -0.502,-4.142 -1.153,-6.178 H 702.7 v -0.012 c -0.097,-0.325 -0.189,-0.632 -0.268,-0.941 0,-0.01 0,-0.027 -0.012,-0.046 -3.226,0.002 -6.461,0.016 -9.724,0.018 -0.131,-0.006 -0.263,0 -0.386,-0.006 -0.085,-0.006 -0.168,-0.004 -0.255,-0.01 -0.019,-0.009 -0.039,-0.018 -0.057,-0.009 -0.074,-0.015 -0.15,-0.03 -0.216,-0.048"
         id="path789" />
      <path
         inkscape:connector-curvature="0"
         style="fill:#e86601"
         d="m 692.717,229.062 1.271,-0.003 c 1.945,-0.007 3.883,-0.014 5.821,-0.012 l 1.072,0.002 c -0.051,-0.046 -0.077,-0.083 -0.107,-0.129 -0.525,-0.856 -0.775,-1.789 -0.753,-2.816 l -0.469,-0.013 c -2.006,-0.066 -4.021,-0.12 -6.035,-0.168 l -1.874,-0.051 c 0.158,1.058 0.501,2.063 1.013,3.024 0.031,0.045 0.05,0.101 0.061,0.166"
         id="path791" />
      <path
         inkscape:connector-curvature="0"
         style="fill:#f2b800"
         d="m 689.938,125.058 c -0.027,0.064 -0.061,0.123 -0.097,0.182 -1.574,2.976 -3.419,5.771 -5.551,8.374 l 0.007,-0.007 c -0.599,0.74 -1.319,1.352 -2.167,1.84 -1.526,0.883 -3.283,1.403 -5.274,1.544 h -0.014 c -0.19,0.014 -0.392,0.021 -0.582,0.034 -0.013,0 -0.022,0.006 -0.035,0.006 -0.31,0.01 -0.614,0.013 -0.903,0.017 h -0.013 c -1.963,-0.003 -3.885,-0.288 -5.769,-0.863 l 0.007,-0.007 c -0.878,-0.266 -1.783,-0.44 -2.713,-0.529 -1.81,-0.183 -3.605,-0.074 -5.37,0.339 -1.164,0.274 -2.299,0.634 -3.391,1.068 -0.005,0.006 -0.013,0.013 -0.025,0.012 -4.839,1.737 -7.63,5.15 -8.378,10.234 -0.034,0.238 -0.068,0.472 -0.104,0.71 -0.008,0.072 -0.01,0.15 -0.019,0.223 0,0.013 0,0.013 -0.008,0.021 -0.273,2.806 0.596,5.629 2.579,8.467 1.879,2.67 4.453,5.005 7.728,7.017 0.328,0.202 0.667,0.397 0.999,0.589 h 0.014 c 1.358,0.81 2.795,1.448 4.298,1.919 h 0.013 c 4.633,1.469 9.12,1.188 13.481,-0.84 h -0.015 c 4.811,-2.326 8.643,-5.857 11.502,-10.604 2.958,-4.913 4.897,-10.178 5.815,-15.818 0.006,-0.006 0.006,-0.006 0,-0.013 0.472,-2.582 0.7,-4.795 0.682,-6.645 l -0.01,-0.721 v -0.027 l 1.492,-0.019 0.008,0.748 c 0.035,1.93 -0.205,4.242 -0.701,6.936 l 0.002,-0.014 c -0.952,5.823 -2.956,11.277 -6.01,16.348 l 0.006,-0.006 c -3,5.006 -7.049,8.729 -12.136,11.182 l -0.006,0.007 c -4.714,2.196 -9.568,2.497 -14.565,0.913 -1.614,-0.507 -3.152,-1.192 -4.605,-2.044 -0.006,-0.005 -0.006,-0.005 -0.016,-0.012 -0.342,-0.189 -0.685,-0.393 -1.029,-0.608 -3.461,-2.118 -6.185,-4.598 -8.17,-7.435 -2.223,-3.176 -3.167,-6.337 -2.843,-9.472 0.017,-0.105 0.032,-0.196 0.036,-0.289 v -0.013 c 0.035,-0.237 0.067,-0.474 0.1,-0.711 0.83,-5.682 3.951,-9.495 9.358,-11.431 l -0.028,0.012 c 1.165,-0.465 2.372,-0.842 3.604,-1.141 l 0.008,0.007 c 1.934,-0.447 3.889,-0.577 5.858,-0.376 1.019,0.105 2.012,0.301 2.986,0.59 1.74,0.532 3.518,0.799 5.327,0.804 0.007,0.006 0.007,0.006 0.013,0 0.278,-0.005 0.556,-0.009 0.827,-0.02 0.014,0.001 0.026,0.001 0.038,0.001 0.192,-0.014 0.385,-0.027 0.576,-0.041 l -0.006,0.007 c 1.75,-0.117 3.295,-0.57 4.628,-1.347 0.692,-0.394 1.277,-0.891 1.761,-1.484 l -0.008,-0.007 c 2.11,-2.582 3.942,-5.351 5.488,-8.302 l 0.346,-0.657 1.326,0.69 -0.352,0.662 z"
         id="path793" />
      <path
         inkscape:connector-curvature="0"
         style="fill:#fcdf00"
         d="m 696.624,131.605 0.011,0.721 c 0.019,1.85 -0.21,4.063 -0.682,6.645 0.006,0.007 0.006,0.007 0,0.013 -0.918,5.641 -2.857,10.905 -5.815,15.818 -2.859,4.747 -6.691,8.278 -11.502,10.604 h 0.015 c -4.361,2.028 -8.849,2.309 -13.481,0.841 h -0.013 c -1.503,-0.472 -2.939,-1.11 -4.298,-1.92 h -0.014 c -0.332,-0.192 -0.671,-0.387 -0.999,-0.589 -3.274,-2.012 -5.849,-4.346 -7.728,-7.017 -1.983,-2.838 -2.853,-5.66 -2.579,-8.467 0.008,-0.006 0.008,-0.006 0.008,-0.02 0.009,-0.072 0.011,-0.151 0.019,-0.223 0.036,-0.238 0.07,-0.475 0.104,-0.71 0.748,-5.084 3.539,-8.497 8.378,-10.234 0.013,0.001 0.021,-0.005 0.025,-0.012 1.092,-0.434 2.227,-0.794 3.391,-1.068 1.764,-0.413 3.561,-0.522 5.37,-0.339 0.93,0.089 1.835,0.264 2.713,0.529 l -0.007,0.007 c 1.884,0.575 3.806,0.86 5.769,0.863 h 0.013 c 0.289,-0.004 0.594,-0.007 0.903,-0.017 0.013,0 0.022,-0.006 0.035,-0.006 0.19,-0.013 0.392,-0.021 0.582,-0.034 h 0.014 c 1.991,-0.141 3.747,-0.66 5.274,-1.544 0.848,-0.488 1.568,-1.1 2.167,-1.84 l -0.007,0.006 c 2.132,-2.602 3.977,-5.397 5.551,-8.373 l 6.783,6.366 z"
         id="path795" />
      <path
         inkscape:connector-curvature="0"
         style="fill:#fcdf00"
         d="m 649.194,140.334 c 3.552,0.25 5.729,1.154 6.527,2.691 1.323,2.538 0.848,5.418 -1.421,8.638 -0.614,0.877 -1.613,2.168 -2.996,3.861 -1.157,1.5 -1.922,2.751 -2.291,3.756 -0.781,2.094 -1.239,3.245 -1.368,3.447 -0.79,1.17 -1.792,1.172 -3.011,-0.017 -0.754,-0.731 -1.113,-2.006 -1.073,-3.825 0.028,-0.977 0.213,-2.377 0.545,-4.192 -0.941,0.331 -2.358,0.891 -4.241,1.685 -1.676,0.54 -3.183,0.52 -4.52,-0.054 -1.461,-0.889 -1.461,-2.448 0.01,-4.694 1.285,-1.96 2.923,-3.531 4.896,-4.723 -0.82,0.356 -2.135,0.259 -3.939,-0.273 -1.862,-0.528 -2.983,-1.195 -3.376,-2.005 -0.855,-1.762 0.212,-3.007 3.206,-3.727 2.068,-0.486 4.398,-0.666 6.989,-0.525 2.207,-0.138 4.23,-0.149 6.063,-0.043"
         id="path797" />
      <path
         inkscape:connector-curvature="0"
         style="fill:none;stroke:#f2b800;stroke-width:1.48099995;stroke-miterlimit:10"
         d="m 649.194,140.334 c -1.833,-0.107 -3.856,-0.095 -6.063,0.043 -2.591,-0.141 -4.921,0.039 -6.989,0.525 -2.994,0.72 -4.062,1.965 -3.206,3.727 0.393,0.81 1.514,1.477 3.376,2.005 1.805,0.532 3.119,0.629 3.939,0.273 -1.973,1.192 -3.61,2.763 -4.896,4.723 -1.471,2.246 -1.471,3.805 -0.01,4.694 1.337,0.574 2.844,0.594 4.52,0.054 1.883,-0.794 3.3,-1.354 4.241,-1.685 -0.332,1.815 -0.517,3.215 -0.545,4.192 -0.04,1.819 0.319,3.094 1.073,3.825 1.219,1.189 2.221,1.187 3.011,0.017 0.129,-0.202 0.587,-1.353 1.368,-3.447 0.369,-1.005 1.134,-2.256 2.291,-3.756 1.383,-1.693 2.382,-2.984 2.996,-3.861 2.269,-3.22 2.744,-6.1 1.421,-8.638 -0.798,-1.537 -2.975,-2.441 -6.527,-2.691 z"
         id="path799" />
      <path
         inkscape:connector-curvature="0"
         style="fill:#f2b800"
         d="m 711.536,125.167 c -0.38,-1.717 -2.005,-2.905 -4.896,-3.558 -2.801,-0.637 -6.536,-0.722 -11.199,-0.241 -1.332,0.141 -2.834,1.045 -4.501,2.732 -1.513,1.522 -3.41,3.941 -5.705,7.275 -2.91,4.238 -8.954,13.524 -18.126,27.85 -3.94,5.959 -6.177,11.631 -6.686,17.01 -0.473,4.88 0.463,9.344 2.815,13.389 2.155,3.702 5.334,6.829 9.54,9.361 3.974,2.406 8.448,4.067 13.432,4.976 4.96,0.898 9.799,0.945 14.517,0.151 4.959,-0.821 9.231,-2.496 12.797,-5.017 3.896,-2.733 6.646,-6.263 8.263,-10.591 1.783,-4.777 2.078,-10.298 0.902,-16.559 -2.603,-13.839 -5.049,-24.901 -7.341,-33.199 -1.957,-6.33 -3.225,-10.853 -3.812,-13.579"
         id="path801" />
      <path
         inkscape:connector-curvature="0"
         style="fill:none;stroke:#f2b800;stroke-width:2.81999993;stroke-miterlimit:10"
         d="m 706.64,121.608 c -2.801,-0.637 -6.536,-0.722 -11.199,-0.241 -1.332,0.141 -2.834,1.045 -4.501,2.732 -1.513,1.522 -3.41,3.941 -5.705,7.275 -2.91,4.238 -8.954,13.525 -18.126,27.85 -3.94,5.959 -6.176,11.631 -6.686,17.01 -0.472,4.88 0.463,9.344 2.815,13.389 2.155,3.702 5.334,6.829 9.54,9.361 3.974,2.406 8.448,4.067 13.432,4.977 4.96,0.897 9.799,0.944 14.517,0.15 4.959,-0.821 9.231,-2.496 12.797,-5.017 3.896,-2.733 6.646,-6.263 8.263,-10.591 1.783,-4.777 2.078,-10.298 0.902,-16.559 -2.603,-13.839 -5.048,-24.901 -7.341,-33.199 -1.956,-6.33 -3.225,-10.853 -3.812,-13.578 -0.38,-1.718 -2.005,-2.906 -4.896,-3.559 z"
         id="path803" />
      <path
         inkscape:connector-curvature="0"
         style="fill:#fcdf00"
         d="m 722.688,171.944 c -2.603,-13.839 -5.048,-24.901 -7.341,-33.199 -0.749,-2.439 -1.404,-4.613 -1.952,-6.511 -9.214,-5.804 -14.466,-11.512 -15.767,-17.109 l -7.201,9.506 c -1.42,1.528 -3.153,3.776 -5.193,6.743 -2.91,4.238 -8.954,13.525 -18.126,27.85 -3.94,5.959 -6.173,11.631 -6.686,17.01 -0.473,4.88 0.463,9.344 2.815,13.389 2.155,3.702 5.334,6.829 9.54,9.362 3.974,2.405 8.448,4.066 13.431,4.976 4.961,0.898 9.8,0.944 14.518,0.15 4.959,-0.821 9.231,-2.496 12.797,-5.017 3.896,-2.733 6.646,-6.263 8.263,-10.591 1.783,-4.777 2.082,-10.298 0.902,-16.559"
         id="path805" />
      <path
         inkscape:connector-curvature="0"
         style="fill:#f2b800"
         d="m 756.108,86.171 c -0.69,-5.886 -2.553,-11.508 -5.587,-16.88 -3.019,-5.35 -6.969,-10.007 -11.851,-13.992 -5.044,-4.12 -10.723,-7.221 -17.04,-9.3 -6.318,-2.079 -12.719,-2.95 -19.205,-2.625 -6.295,0.309 -12.245,1.71 -17.854,4.221 -5.631,2.523 -10.467,5.939 -14.51,10.268 -4.216,4.5 -7.282,9.653 -9.199,15.473 -4.782,14.535 -3.769,27.007 3.039,37.415 5.912,9.204 15.785,16.087 29.635,20.642 6.46,2.126 12.762,3.211 18.896,3.265 l 0.01,0.002 c 6.338,0.041 12.188,-1.018 17.545,-3.166 11.742,-4.679 19.856,-13.823 24.328,-27.414 1.917,-5.819 2.515,-11.785 1.793,-17.909 m -6.899,-16.136 c 2.931,5.181 4.733,10.624 5.399,16.314 0.696,5.907 0.127,11.657 -1.719,17.263 -4.32,13.127 -12.131,21.954 -23.454,26.496 -5.192,2.073 -10.852,3.087 -16.992,3.051 -5.987,-0.054 -12.136,-1.118 -18.436,-3.191 -13.467,-4.431 -23.082,-11.11 -28.85,-20.029 -6.53,-10.049 -7.485,-22.097 -2.867,-36.134 1.845,-5.606 4.8,-10.569 8.865,-14.91 3.913,-4.185 8.598,-7.492 14.039,-9.92 5.435,-2.439 11.199,-3.812 17.302,-4.106 6.306,-0.315 12.524,0.536 18.665,2.555 6.139,2.02 11.659,5.031 16.562,9.036 4.729,3.855 8.563,8.386 11.486,13.575"
         id="path807" />
      <path
         inkscape:connector-curvature="0"
         style="fill:#fcdf00"
         d="m 754.608,86.349 c -0.666,-5.69 -2.469,-11.133 -5.399,-16.314 -2.923,-5.189 -6.757,-9.72 -11.484,-13.575 -4.903,-4.005 -10.424,-7.016 -16.562,-9.036 -6.141,-2.019 -12.359,-2.87 -18.665,-2.554 -6.103,0.293 -11.868,1.665 -17.302,4.105 -5.441,2.428 -10.126,5.735 -14.039,9.92 -4.065,4.341 -7.021,9.304 -8.865,14.91 -4.618,14.037 -3.663,26.085 2.867,36.134 5.768,8.919 15.383,15.598 28.85,20.029 6.3,2.073 12.448,3.137 18.436,3.191 6.141,0.036 11.8,-0.978 16.992,-3.051 11.323,-4.542 19.134,-13.369 23.454,-26.496 1.844,-5.606 2.414,-11.356 1.717,-17.263"
         id="path809" />
      <path
         inkscape:connector-curvature="0"
         style="fill:#e27c9f"
         d="m 731.614,86.858 c -1.799,-2.794 -4.002,-5.04 -6.624,-6.763 -2.543,-1.674 -5.183,-2.682 -7.923,-3 1.452,-0.362 2.911,-0.534 4.388,-0.493 2.124,0.057 4.148,0.515 6.063,1.383 1.92,0.859 3.602,2.054 5.059,3.6 2.312,2.46 3.708,5.358 4.188,8.706 0.465,3.274 -0.018,6.394 -1.458,9.358 0.066,-2.122 -0.206,-4.266 -0.809,-6.43 -0.62,-2.228 -1.581,-4.352 -2.884,-6.361"
         id="path811" />
      <path
         inkscape:connector-curvature="0"
         style="fill:#0077bf"
         d="m 724.99,80.096 c 2.622,1.723 4.825,3.969 6.624,6.763 1.303,2.009 2.264,4.133 2.884,6.361 0.603,2.164 0.875,4.308 0.809,6.429 -0.888,1.771 -2.008,3.309 -3.371,4.6 l -1.105,0.96 c 0.707,-2.415 0.828,-4.973 0.374,-7.68 -0.459,-2.808 -1.489,-5.468 -3.105,-7.975 -2.159,-3.368 -4.912,-5.864 -8.265,-7.479 -3.271,-1.59 -6.459,-2.017 -9.57,-1.291 1.993,-1.824 4.265,-3.053 6.804,-3.688 2.739,0.317 5.378,1.326 7.921,3"
         id="path813" />
      <path
         inkscape:connector-curvature="0"
         style="fill:#ffffff"
         d="m 710.265,80.783 c 3.11,-0.725 6.299,-0.298 9.569,1.292 3.353,1.614 6.105,4.111 8.265,7.479 1.616,2.507 2.646,5.167 3.105,7.975 0.454,2.707 0.333,5.264 -0.374,7.679 -1.479,1.162 -3.089,2.036 -4.854,2.63 -1.774,0.591 -3.601,0.859 -5.479,0.804 -2.124,-0.057 -4.147,-0.515 -6.045,-1.376 -1.921,-0.858 -3.608,-2.066 -5.071,-3.624 -3.013,-3.204 -4.458,-7.016 -4.334,-11.441 0.124,-4.432 1.789,-8.171 4.995,-11.216 l 0.223,-0.202 z"
         id="path815" />
      <path
         inkscape:connector-curvature="0"
         style="fill:#e27c9f"
         d="m 689.315,72.959 c 3.104,-1.181 6.213,-1.68 9.346,-1.509 3.037,0.16 5.764,0.919 8.155,2.288 -0.952,-1.152 -2.025,-2.157 -3.24,-3.001 -1.741,-1.215 -3.643,-2.048 -5.699,-2.488 -2.055,-0.448 -4.115,-0.485 -6.208,-0.106 -3.319,0.607 -6.166,2.11 -8.538,4.52 -2.316,2.359 -3.78,5.155 -4.383,8.395 1.207,-1.746 2.699,-3.309 4.469,-4.693 1.82,-1.426 3.856,-2.564 6.098,-3.406"
         id="path817" />
      <path
         inkscape:connector-curvature="0"
         style="fill:#0077bf"
         d="m 698.661,71.45 c -3.133,-0.17 -6.24,0.329 -9.346,1.509 -2.242,0.843 -4.278,1.981 -6.099,3.406 -1.77,1.384 -3.262,2.947 -4.469,4.693 -0.336,1.954 -0.349,3.855 -0.018,5.703 l 0.318,1.429 c 0.867,-2.363 2.289,-4.492 4.258,-6.403 2.04,-1.986 4.448,-3.514 7.234,-4.573 3.74,-1.426 7.438,-1.8 11.094,-1.112 3.576,0.663 6.392,2.213 8.468,4.643 -0.521,-2.649 -1.618,-4.986 -3.286,-7.006 -2.39,-1.37 -5.117,-2.128 -8.154,-2.289 l 0,0 z"
         id="path819" />
      <path
         inkscape:connector-curvature="0"
         style="fill:#ffffff"
         d="m 710.103,80.745 c -2.076,-2.43 -4.892,-3.98 -8.468,-4.643 -3.656,-0.689 -7.354,-0.314 -11.094,1.112 -2.786,1.058 -5.194,2.587 -7.233,4.573 -1.97,1.91 -3.392,4.04 -4.259,6.402 0.501,1.813 1.281,3.472 2.346,4.998 1.078,1.531 2.389,2.831 3.933,3.901 1.744,1.216 3.643,2.048 5.682,2.483 2.057,0.448 4.131,0.479 6.233,0.094 4.326,-0.789 7.75,-3 10.278,-6.632 2.533,-3.642 3.412,-7.639 2.644,-11.992 l -0.062,-0.296 z"
         id="path821" />
      <path
         inkscape:connector-curvature="0"
         style="fill:#1c1616"
         d="m 695.695,83 c -1.326,0.67 -2.221,1.708 -2.681,3.107 -0.468,1.418 -0.358,2.776 0.312,4.094 0.669,1.326 1.71,2.221 3.108,2.681 1.418,0.466 2.775,0.36 4.091,-0.312 1.326,-0.662 2.218,-1.691 2.686,-3.109 0.459,-1.398 0.356,-2.766 -0.313,-4.092 -0.66,-1.324 -1.69,-2.216 -3.108,-2.682 -1.4,-0.46 -2.769,-0.356 -4.095,0.313"
         id="path823" />
      <path
         inkscape:connector-curvature="0"
         style="fill:#1c1616"
         d="m 720.375,90.319 c 0.67,1.326 0.773,2.693 0.312,4.092 -0.467,1.418 -1.358,2.448 -2.683,3.108 -1.326,0.671 -2.692,0.773 -4.092,0.312 -1.416,-0.466 -2.447,-1.358 -3.109,-2.682 -0.672,-1.317 -0.779,-2.676 -0.312,-4.093 0.462,-1.398 1.354,-2.438 2.681,-3.107 1.318,-0.674 2.677,-0.779 4.093,-0.313 1.401,0.461 2.44,1.356 3.11,2.683"
         id="path825" />
      <path
         inkscape:connector-curvature="0"
         style="fill:#fcdf00"
         d="m 711.867,124.175 c 1.278,-0.908 2.299,-2.023 3.07,-3.333 1.771,-3.029 1.742,-5.375 -0.085,-7.046 -0.608,-0.559 -1.478,-1.071 -2.581,-1.548 -0.606,-0.272 -1.377,-0.576 -2.313,-0.927 -1.674,-0.745 -4.503,-1.511 -8.489,-2.318 -0.157,-0.031 -0.304,-0.059 -0.45,-0.088 -0.137,-0.065 -0.271,-0.13 -0.414,-0.197 -3.688,-1.718 -6.421,-2.781 -8.206,-3.174 -0.966,-0.275 -1.767,-0.488 -2.414,-0.628 -1.172,-0.273 -2.173,-0.377 -2.994,-0.287 -2.465,0.261 -3.879,2.13 -4.253,5.618 -0.157,1.513 0.003,3.017 0.492,4.505 0.271,0.862 0.747,2.067 1.404,3.632 0.648,1.861 1.565,5.32 2.727,10.383 1.247,4.207 2.846,6.504 4.8,6.869 0.017,0.006 0.033,0.011 0.065,0.011 0.024,0.018 0.041,0.024 0.059,0.03 1.787,0.866 4.439,-0.032 7.94,-2.677 3.938,-3.386 6.727,-5.627 8.356,-6.738 1.46,-0.868 2.553,-1.557 3.286,-2.087"
         id="path827" />
      <path
         inkscape:connector-curvature="0"
         style="fill:none;stroke:#f2b800;stroke-width:1.52600002;stroke-miterlimit:10"
         d="m 701.019,108.915 c 0.146,0.029 0.293,0.057 0.45,0.087 3.987,0.808 6.815,1.574 8.489,2.319 0.937,0.351 1.707,0.655 2.313,0.927 1.104,0.477 1.973,0.988 2.581,1.548 1.826,1.671 1.856,4.017 0.085,7.046 -0.771,1.31 -1.792,2.425 -3.07,3.333 -0.733,0.53 -1.826,1.219 -3.285,2.087 -1.629,1.111 -4.418,3.352 -8.357,6.737 -3.501,2.646 -6.153,3.543 -7.94,2.678 -0.018,-0.006 -0.034,-0.012 -0.059,-0.031 -0.032,0.001 -0.049,-0.004 -0.065,-0.01 -1.954,-0.365 -3.553,-2.661 -4.8,-6.869 -1.161,-5.063 -2.078,-8.522 -2.727,-10.383 -0.657,-1.565 -1.133,-2.77 -1.404,-3.632 -0.489,-1.488 -0.648,-2.992 -0.492,-4.505 0.374,-3.487 1.788,-5.357 4.253,-5.618 0.821,-0.09 1.822,0.014 2.994,0.286 0.647,0.142 1.448,0.354 2.414,0.629 1.785,0.393 4.518,1.456 8.206,3.174 0.143,0.067 0.277,0.133 0.414,0.197 z"
         id="path829" />
      <path
         inkscape:connector-curvature="0"
         style="fill:#d8272a"
         d="m 693.403,131.391 c 1.687,0.555 3.494,0.049 5.436,-1.515 1.942,-1.564 5.515,-5.172 10.717,-10.818 l -10.705,-3.635 -10.753,-3.425 c 0.834,7.633 1.595,12.688 2.296,15.171 0.646,2.282 1.65,3.691 3.009,4.222"
         id="path831" />
      <path
         inkscape:connector-curvature="0"
         style="fill:#e27c9f"
         d="m 699.011,121.107 c 1.424,-2.217 2.249,-3.808 2.484,-4.76 l -5.822,-1.916 c -0.298,0.902 -0.462,2.679 -0.485,5.337 -0.007,2.723 0.113,4.183 0.36,4.378 0.692,0.505 1.848,-0.513 3.463,-3.039"
         id="path833" />
      <path
         inkscape:connector-curvature="0"
         style="fill:#fcdf00"
         d="m 715.658,120.145 c 1.79,-0.25 3.006,-1.54 3.642,-3.859 0.615,-2.326 0.229,-4.182 -1.174,-5.561 -0.709,-0.698 -2.204,-2.039 -4.479,-4.042 -2.061,-1.933 -3.443,-3.552 -4.125,-4.873 -1.073,-2.082 -2.641,-3.535 -4.713,-4.346 -0.062,-0.021 -0.114,-0.037 -0.171,-0.055 -0.025,-0.009 -0.044,-0.015 -0.061,-0.021 l -0.005,0.008 c -2.146,-0.587 -4.266,-0.356 -6.368,0.69 -1.333,0.658 -3.408,1.142 -6.213,1.473 -3.02,0.26 -5.02,0.453 -6.003,0.592 -1.948,0.279 -3.362,1.541 -4.245,3.779 -0.866,2.243 -0.656,4.003 0.637,5.267 0.682,0.659 1.831,1.282 3.45,1.885 0.958,0.355 2.628,0.954 4.997,1.803 0.787,0.457 1.929,1.366 3.427,2.727 1.11,1.007 2.384,1.733 3.825,2.187 1.302,0.457 2.715,0.606 4.214,0.458 2.013,-0.207 3.474,-0.26 4.38,-0.16 2.406,0.723 4.107,1.233 5.092,1.517 1.659,0.477 2.953,0.656 3.893,0.531"
         id="path835" />
      <path
         inkscape:connector-curvature="0"
         style="fill:none;stroke:#f2b800;stroke-width:1.50100005;stroke-miterlimit:10"
         d="m 719.3,116.286 c 0.615,-2.326 0.229,-4.182 -1.174,-5.562 -0.709,-0.697 -2.204,-2.039 -4.479,-4.042 -2.061,-1.932 -3.443,-3.551 -4.125,-4.872 -1.073,-2.082 -2.641,-3.535 -4.713,-4.346 -0.062,-0.021 -0.114,-0.037 -0.17,-0.055 -0.027,-0.009 -0.044,-0.015 -0.062,-0.021 l -0.005,0.008 c -2.146,-0.587 -4.266,-0.356 -6.368,0.69 -1.333,0.658 -3.408,1.141 -6.213,1.472 -3.02,0.261 -5.02,0.454 -6.004,0.593 -1.947,0.279 -3.361,1.541 -4.244,3.779 -0.866,2.243 -0.656,4.002 0.637,5.267 0.682,0.659 1.831,1.282 3.45,1.885 0.958,0.355 2.628,0.954 4.997,1.803 0.787,0.457 1.929,1.366 3.427,2.727 1.11,1.007 2.384,1.733 3.825,2.187 1.302,0.457 2.715,0.606 4.214,0.458 2.013,-0.207 3.474,-0.261 4.38,-0.16 2.406,0.723 4.107,1.233 5.092,1.517 1.658,0.477 2.952,0.656 3.893,0.531 1.79,-0.251 3.006,-1.54 3.642,-3.859 z"
         id="path837" />
      <path
         inkscape:connector-curvature="0"
         style="fill:#f2b800"
         d="m 730.726,42.393 c 1.169,0.167 2.294,0.714 3.363,1.63 -1.878,-0.262 -4.073,1.001 -6.581,3.791 -0.516,0.58 -1.083,1.045 -1.691,1.39 0.115,0.037 0.232,0.075 0.345,0.122 0.773,0.295 1.411,0.603 1.93,0.921 0.29,-0.25 0.576,-0.521 0.85,-0.816 0.059,-0.059 0.118,-0.119 0.169,-0.182 2.666,-2.816 5.236,-4.173 7.717,-4.058 -2.042,-2.953 -4.075,-4.542 -6.116,-4.769 -2.039,-0.255 -4.044,0.468 -6.022,2.157 l -0.008,0.027 c -0.309,0.305 -0.593,0.596 -0.856,0.855 0.023,-0.397 0.008,-0.798 -0.024,-1.213 -0.227,-3.868 0.545,-6.666 2.327,-8.391 -3.527,-0.537 -6.077,-0.142 -7.646,1.169 -1.468,1.225 -2.31,3.003 -2.522,5.334 -0.538,-0.405 -1.145,-0.761 -1.814,-1.062 -3.495,-1.654 -5.566,-3.678 -6.214,-6.063 -2.163,2.824 -3.055,5.237 -2.663,7.252 0.09,0.454 0.225,0.884 0.396,1.296 0.48,1.116 1.285,2.121 2.416,3.007 0.841,0.147 2.379,0.515 4.604,1.109 l 0.008,-0.017 2.163,0.712 c -0.335,-0.358 -0.759,-0.724 -1.271,-1.09 -0.522,-0.36 -1.67,-0.984 -3.443,-1.873 -1.729,-0.896 -2.729,-2.153 -2.996,-3.771 -0.203,-1.153 -0.028,-2.379 0.522,-3.68 0.325,1.856 2.187,3.554 5.594,5.081 1.775,0.791 2.928,2.059 3.473,3.799 0.27,0.888 0.316,1.674 0.142,2.358 0.093,0.079 0.167,0.153 0.222,0.23 0.506,-0.633 0.833,-1.602 0.994,-2.902 0.06,-0.633 0.056,-1.938 -0.021,-3.928 -0.054,-1.944 0.564,-3.429 1.857,-4.446 0.92,-0.725 2.072,-1.165 3.477,-1.325 -1.467,1.188 -2.057,3.639 -1.753,7.374 0.162,1.939 -0.395,3.564 -1.655,4.878 -0.195,0.202 -0.402,0.39 -0.606,0.551 0.186,0.07 0.344,0.132 0.488,0.199 0.951,0.196 2.114,-0.212 3.478,-1.236 0.517,-0.393 1.474,-1.293 2.856,-2.705 1.381,-1.391 2.883,-1.965 4.511,-1.715"
         id="path839" />
      <path
         inkscape:connector-curvature="0"
         style="fill:#fcdf00"
         d="m 734.089,44.023 c -1.069,-0.916 -2.194,-1.463 -3.363,-1.63 -1.628,-0.249 -3.13,0.323 -4.516,1.714 -1.383,1.412 -2.34,2.312 -2.856,2.705 -1.363,1.024 -2.526,1.432 -3.478,1.236 -0.019,-0.006 -0.035,-0.011 -0.054,-0.017 -0.155,-0.042 -0.297,-0.088 -0.444,-0.147 -0.008,-0.012 -0.008,-0.012 -0.016,-0.014 0.01,-0.006 0.016,-0.015 0.025,-0.021 0.204,-0.161 0.411,-0.349 0.606,-0.552 1.261,-1.313 1.817,-2.938 1.655,-4.878 -0.304,-3.734 0.286,-6.187 1.753,-7.374 -1.404,0.161 -2.557,0.601 -3.477,1.326 -1.293,1.016 -1.911,2.502 -1.857,4.445 0.076,1.991 0.08,3.296 0.021,3.928 -0.161,1.3 -0.488,2.269 -0.994,2.903 -0.151,0.188 -0.322,0.348 -0.502,0.476 0.017,-0.023 0.026,-0.05 0.043,-0.073 l 0.227,-0.569 c 0,-0.029 0.005,-0.047 0.011,-0.064 0.175,-0.684 0.128,-1.47 -0.142,-2.359 -0.545,-1.739 -1.697,-3.007 -3.473,-3.799 -3.407,-1.527 -5.269,-3.225 -5.594,-5.081 -0.551,1.302 -0.726,2.528 -0.522,3.681 0.268,1.619 1.268,2.876 2.996,3.771 1.773,0.89 2.921,1.514 3.443,1.873 0.512,0.367 0.936,0.732 1.271,1.09 0.481,0.523 0.786,1.039 0.91,1.555 0.059,0.245 0.074,0.498 0.05,0.756 -0.008,0.048 -0.011,0.095 -0.019,0.142 l -0.021,0.042 c 0.051,-0.042 0.104,-0.084 0.161,-0.133 0.145,-0.141 0.282,-0.285 0.398,-0.433 l 1.045,0.127 c 0.049,-0.004 0.099,-0.007 0.15,-0.01 0.615,-0.065 1.207,-0.304 1.784,-0.737 0.574,1.345 1.742,2.026 3.503,2.052 0.217,0.002 0.437,-0.005 0.648,-0.024 0.165,-0.015 0.329,-0.04 0.496,-0.064 0.029,0 0.062,-0.01 0.093,-0.01 l 0.613,-0.153 c 0.078,-0.024 0.146,-0.051 0.224,-0.075 0.01,-0.006 0.019,-0.003 0.032,-0.009 0.237,-0.09 0.454,-0.186 0.68,-0.3 0.024,-0.011 0.048,-0.024 0.075,-0.044 0.012,-0.006 0.02,-0.003 0.032,-0.009 0.012,-0.007 0.015,-0.015 0.026,-0.021 0.013,-0.006 0.022,-0.013 0.035,-0.018 0.013,-0.007 0.036,-0.019 0.047,-0.023 0.608,-0.345 1.176,-0.81 1.691,-1.39 2.511,-2.791 4.706,-4.054 6.584,-3.791"
         id="path841" />
      <path
         inkscape:connector-curvature="0"
         style="fill:#fcdf00"
         d="m 710.957,131.627 c -0.235,0 -0.469,0.009 -0.704,0.038 -0.535,0.046 -0.997,-0.103 -1.401,-0.452 0.047,-0.093 0.057,-0.169 0.028,-0.226 -0.161,-0.319 -0.36,-0.621 -0.594,-0.902 0.046,-0.141 0.066,-0.273 0.046,-0.415 -0.025,-0.281 -0.092,-0.564 -0.186,-0.846 -0.274,0.047 -0.51,0.141 -0.709,0.301 -0.375,0.311 -0.702,0.677 -0.977,1.101 -0.527,0.291 -1.033,0.611 -1.516,0.959 -0.424,0.094 -0.817,0.254 -1.163,0.48 -0.236,0.15 -0.473,0.31 -0.688,0.47 -1.036,0.724 -1.873,1.637 -2.522,2.718 0.009,0.01 0.009,0.019 0.021,0.029 -0.237,0.395 -0.424,0.809 -0.584,1.242 0.872,0.066 1.806,-0.161 2.801,-0.687 0.104,0.122 0.228,0.225 0.35,0.311 0.234,0.16 0.497,0.281 0.782,0.376 0,0.14 0.035,0.245 0.103,0.31 0.204,0.216 0.449,0.385 0.732,0.527 1.908,-0.706 3.595,-0.706 5.052,0 0.189,0 0.375,-0.019 0.555,-0.047 0.479,-0.085 0.856,-0.255 1.128,-0.508 0.745,0.197 1.498,0.197 2.251,0 0.094,-0.282 0.168,-0.565 0.226,-0.857 0.205,-1.063 0.083,-2.041 -0.368,-2.935 -0.143,-0.14 -0.272,-0.207 -0.396,-0.188 -1.053,0.123 -1.806,-0.141 -2.267,-0.799"
         id="path843" />
      <path
         inkscape:connector-curvature="0"
         style="fill:#eddc00"
         d="m 711.541,145.608 c -0.887,-2.122 -2.064,-3.241 -3.521,-3.355 -0.591,-0.05 -1.597,0.192 -3.021,0.713 -1.084,0.379 -2.045,0.781 -2.863,1.204 -2.907,1.44 -5.704,2.281 -8.398,2.512 -2.729,0.254 -5.532,-0.091 -8.401,-1.048 -2.345,-0.756 -5.246,-0.673 -8.707,0.249 -3.577,0.956 -6.343,2.477 -8.292,4.553 -0.751,0.785 -1.415,1.972 -1.987,3.553 -0.538,1.426 -0.881,2.835 -1.026,4.242 -0.339,2.956 0.529,5.934 2.583,8.944 1.888,2.75 4.477,5.171 7.794,7.262 3.264,2.041 6.575,3.362 9.936,3.97 3.586,0.641 6.572,0.351 8.975,-0.883 2.826,-1.446 5.323,-3.337 7.483,-5.674 1.424,-1.541 3.329,-4.066 5.732,-7.582 0.845,-1.243 1.79,-3.222 2.824,-5.951 1.068,-2.799 1.673,-4.91 1.825,-6.323 0.232,-2.267 -0.081,-4.4 -0.936,-6.386"
         id="path845" />
      <path
         inkscape:connector-curvature="0"
         style="fill:none;stroke:#f2b800;stroke-width:2.7809999;stroke-miterlimit:10"
         d="m 711.541,145.608 c 0.855,1.986 1.168,4.119 0.935,6.386 -0.152,1.413 -0.757,3.524 -1.825,6.323 -1.034,2.729 -1.979,4.708 -2.824,5.951 -2.403,3.516 -4.309,6.041 -5.732,7.582 -2.16,2.337 -4.657,4.228 -7.483,5.674 -2.402,1.234 -5.389,1.524 -8.975,0.883 -3.36,-0.608 -6.672,-1.929 -9.936,-3.97 -3.317,-2.091 -5.906,-4.512 -7.794,-7.262 -2.054,-3.01 -2.922,-5.988 -2.583,-8.944 0.146,-1.407 0.488,-2.816 1.026,-4.242 0.572,-1.581 1.236,-2.768 1.987,-3.553 1.949,-2.076 4.715,-3.597 8.292,-4.553 3.461,-0.922 6.362,-1.005 8.707,-0.249 2.869,0.957 5.673,1.302 8.401,1.048 2.694,-0.23 5.491,-1.072 8.398,-2.512 0.818,-0.423 1.779,-0.825 2.863,-1.204 1.424,-0.521 2.43,-0.763 3.021,-0.713 1.458,0.114 2.635,1.233 3.522,3.355 z"
         id="path847" />
      <path
         inkscape:connector-curvature="0"
         style="fill:#fcdf00"
         d="m 713.744,143.076 -7.949,-7.656 -1.415,2.421 c -1.193,1.915 -2.423,3.655 -3.679,5.214 -4.045,4.993 -7.615,7.238 -10.729,6.729 l 11.938,7.126 10.173,-3.174 c 0.278,-0.989 0.56,-2.183 0.825,-3.572 0.558,-2.77 0.841,-5.129 0.836,-7.088"
         id="path849" />
      <path
         inkscape:connector-curvature="0"
         style="fill:#fcdf00"
         d="m 711.541,145.608 c -0.887,-2.122 -2.064,-3.241 -3.521,-3.355 -0.591,-0.05 -1.597,0.192 -3.021,0.713 -1.084,0.379 -2.045,0.781 -2.863,1.204 -2.907,1.44 -5.704,2.281 -8.398,2.512 -2.729,0.254 -5.532,-0.091 -8.401,-1.048 -2.345,-0.756 -5.246,-0.673 -8.707,0.249 -3.577,0.956 -6.343,2.477 -8.292,4.553 -0.751,0.785 -1.415,1.972 -1.987,3.553 -0.538,1.426 -0.881,2.835 -1.026,4.242 -0.339,2.956 0.529,5.934 2.583,8.944 1.888,2.75 4.477,5.171 7.794,7.262 3.264,2.041 6.575,3.362 9.936,3.97 3.586,0.641 6.572,0.351 8.975,-0.883 2.826,-1.446 5.323,-3.337 7.483,-5.674 1.424,-1.541 3.329,-4.066 5.732,-7.582 0.845,-1.243 1.79,-3.222 2.824,-5.951 1.068,-2.799 1.673,-4.91 1.825,-6.323 0.232,-2.267 -0.081,-4.4 -0.936,-6.386"
         id="path851" />
      <path
         inkscape:connector-curvature="0"
         style="fill:#fcdf00"
         d="m 668.924,166.119 c 3.2,-1.571 4.878,-3.231 5.038,-4.958 0.271,-2.854 -1.257,-5.347 -4.577,-7.478 -0.901,-0.581 -2.315,-1.401 -4.237,-2.451 -1.636,-0.955 -2.817,-1.827 -3.543,-2.62 -1.514,-1.648 -2.374,-2.541 -2.568,-2.682 -1.176,-0.787 -2.105,-0.41 -2.787,1.153 -0.424,0.963 -0.277,2.282 0.45,3.954 0.391,0.895 1.092,2.124 2.084,3.683 -0.998,0.05 -2.527,0.063 -4.569,0.037 -1.76,0.132 -3.147,0.718 -4.171,1.758 -1.021,1.373 -0.435,2.82 1.78,4.349 1.929,1.332 4.042,2.174 6.321,2.532 -0.895,-0.019 -2.078,0.566 -3.552,1.741 -1.528,1.193 -2.316,2.235 -2.374,3.135 -0.128,1.956 1.33,2.708 4.379,2.248 2.104,-0.33 4.333,-1.043 6.684,-2.153 2.1,-0.702 3.981,-1.455 5.642,-2.248"
         id="path853" />
      <path
         inkscape:connector-curvature="0"
         style="fill:none;stroke:#f2b800;stroke-width:1.48300004;stroke-miterlimit:10"
         d="m 668.924,166.119 c -1.661,0.793 -3.542,1.546 -5.643,2.25 -2.351,1.108 -4.579,1.821 -6.684,2.151 -3.049,0.46 -4.507,-0.292 -4.379,-2.248 0.058,-0.9 0.846,-1.942 2.374,-3.135 1.474,-1.175 2.657,-1.76 3.552,-1.741 -2.279,-0.358 -4.393,-1.2 -6.321,-2.532 -2.215,-1.527 -2.801,-2.976 -1.78,-4.349 1.023,-1.04 2.411,-1.626 4.171,-1.758 2.042,0.026 3.571,0.013 4.569,-0.037 -0.992,-1.559 -1.693,-2.788 -2.084,-3.683 -0.728,-1.672 -0.874,-2.991 -0.45,-3.954 0.682,-1.563 1.611,-1.94 2.787,-1.153 0.194,0.141 1.055,1.034 2.568,2.682 0.726,0.793 1.907,1.665 3.543,2.62 1.922,1.05 3.336,1.87 4.237,2.451 3.32,2.131 4.848,4.624 4.577,7.478 -0.159,1.727 -1.837,3.387 -5.037,4.958 z"
         id="path855" />
    </g>
  </g>
</svg>
