<?xml version="1.0" encoding="UTF-8" standalone="no"?>
<!-- Created with Inkscape (http://www.inkscape.org/) -->

<svg
   xmlns:dc="http://purl.org/dc/elements/1.1/"
   xmlns:cc="http://creativecommons.org/ns#"
   xmlns:rdf="http://www.w3.org/1999/02/22-rdf-syntax-ns#"
   xmlns:svg="http://www.w3.org/2000/svg"
   xmlns="http://www.w3.org/2000/svg"
   xmlns:sodipodi="http://sodipodi.sourceforge.net/DTD/sodipodi-0.dtd"
   xmlns:inkscape="http://www.inkscape.org/namespaces/inkscape"
   width="130.04991"
   height="239.14064"
   id="svg5696"
   version="1.1"
   inkscape:version="0.48.4 r9939"
   sodipodi:docname="big_bird1.svg">
  <defs
     id="defs5698" />
  <sodipodi:namedview
     id="base"
     pagecolor="#ffffff"
     bordercolor="#666666"
     borderopacity="1.0"
     inkscape:pageopacity="0.0"
     inkscape:pageshadow="2"
     inkscape:zoom="0.77472527"
     inkscape:cx="-93.692359"
     inkscape:cy="99.609695"
     inkscape:current-layer="layer1"
     inkscape:document-units="px"
     showgrid="false"
     inkscape:window-width="942"
     inkscape:window-height="591"
     inkscape:window-x="413"
     inkscape:window-y="97"
     inkscape:window-maximized="0"
     fit-margin-top="0"
     fit-margin-left="0"
     fit-margin-right="0"
     fit-margin-bottom="0" />
  <metadata
     id="metadata5701">
    <rdf:RDF>
      <cc:Work
         rdf:about="">
        <dc:format>image/svg+xml</dc:format>
        <dc:type
           rdf:resource="http://purl.org/dc/dcmitype/StillImage" />
        <dc:title></dc:title>
      </cc:Work>
    </rdf:RDF>
  </metadata>
  <g
     id="layer1"
     inkscape:label="Layer 1"
     inkscape:groupmode="layer"
     transform="translate(-325.32214,54.424587)">
    <g
       transform="translate(-45.270238,-66.861108)"
       id="g583">
      <path
         inkscape:connector-curvature="0"
         style="fill:#eddc00"
         d="m 450.408,193.123 c -1.222,-1.161 -2.001,-2.947 -2.345,-5.355 -0.363,-2.536 -0.104,-5.101 0.782,-7.679 1.03,-2.951 2.746,-5.446 5.152,-7.473 2.812,-2.374 6.392,-3.952 10.728,-4.752 0.207,-1.672 1.313,-4.02 3.33,-7.063 2.144,-3.238 4.619,-6.145 7.427,-8.722 3.257,-3 6.376,-4.951 9.366,-5.855 3.535,-1.079 6.603,-0.588 9.203,1.475 3.642,2.882 4.092,7.343 1.351,13.383 -1.001,2.202 -2.306,4.308 -3.897,6.322 -1.434,1.797 -2.613,2.951 -3.553,3.457 3.169,2 4.557,4.86 4.15,8.561 -0.342,3.224 -1.922,6.548 -4.743,9.962 -2.69,3.279 -5.663,5.664 -8.927,7.158 -3.51,1.623 -6.332,1.671 -8.461,0.141 1.049,1.772 0.912,3.776 -0.422,6.017 -1.244,2.102 -3.147,3.84 -5.721,5.194 -2.703,1.438 -5.318,1.988 -7.859,1.648 -2.922,-0.375 -5.2,-1.918 -6.844,-4.624 -0.584,-0.96 -0.405,-2.991 0.532,-6.101 0.956,-3.117 1.17,-5.111 0.641,-5.981 l 0.11,0.287 z"
         id="path585" />
      <path
         inkscape:connector-curvature="0"
         style="fill:none;stroke:#f2b800;stroke-width:2.87400007;stroke-miterlimit:10"
         d="m 450.408,193.123 -0.11,-0.287 c 0.529,0.87 0.315,2.864 -0.641,5.981 -0.937,3.11 -1.116,5.141 -0.532,6.101 1.643,2.706 3.922,4.249 6.844,4.624 2.541,0.34 5.156,-0.211 7.859,-1.648 2.573,-1.354 4.477,-3.092 5.721,-5.194 1.334,-2.241 1.471,-4.245 0.422,-6.017 2.129,1.53 4.951,1.482 8.461,-0.141 3.264,-1.494 6.236,-3.879 8.927,-7.158 2.821,-3.414 4.401,-6.738 4.743,-9.962 0.406,-3.701 -0.981,-6.561 -4.15,-8.561 0.939,-0.506 2.119,-1.66 3.553,-3.457 1.592,-2.014 2.896,-4.12 3.897,-6.322 2.741,-6.04 2.291,-10.501 -1.351,-13.383 -2.601,-2.063 -5.668,-2.554 -9.203,-1.475 -2.99,0.904 -6.11,2.855 -9.366,5.855 -2.808,2.577 -5.283,5.484 -7.427,8.722 -2.017,3.044 -3.123,5.391 -3.33,7.063 -4.336,0.8 -7.916,2.378 -10.729,4.752 -2.405,2.027 -4.121,4.522 -5.151,7.473 -0.886,2.578 -1.145,5.143 -0.783,7.679 0.345,2.408 1.124,4.194 2.346,5.355 z"
         id="path587" />
      <path
         inkscape:connector-curvature="0"
         style="fill:#fcdf00"
         d="m 450.408,193.123 c -1.222,-1.161 -2.001,-2.947 -2.345,-5.355 -0.363,-2.536 -0.104,-5.101 0.782,-7.679 1.03,-2.951 2.746,-5.446 5.152,-7.473 2.812,-2.374 6.392,-3.952 10.728,-4.752 0.207,-1.672 1.313,-4.02 3.33,-7.063 2.144,-3.238 4.619,-6.145 7.427,-8.722 3.257,-3 6.376,-4.951 9.366,-5.855 3.535,-1.079 6.603,-0.588 9.203,1.475 3.642,2.882 4.092,7.343 1.351,13.383 -1.001,2.202 -2.306,4.308 -3.897,6.322 -1.434,1.797 -2.613,2.951 -3.553,3.457 3.169,2 4.557,4.86 4.15,8.561 -0.342,3.224 -1.922,6.548 -4.743,9.962 -2.69,3.279 -5.663,5.664 -8.927,7.158 -3.51,1.623 -6.332,1.671 -8.461,0.141 1.049,1.772 0.912,3.776 -0.422,6.017 -1.244,2.102 -3.147,3.84 -5.721,5.194 -2.703,1.438 -5.318,1.988 -7.859,1.648 -2.922,-0.375 -5.2,-1.918 -6.844,-4.624 -0.584,-0.96 -0.405,-2.991 0.532,-6.101 0.956,-3.117 1.17,-5.111 0.641,-5.981 l 0.11,0.287 z"
         id="path589" />
      <path
         inkscape:connector-curvature="0"
         style="fill:#e42126"
         d="m 437.482,194.367 c 0.096,-0.261 0.193,-0.521 0.301,-0.763 -3.502,-0.625 -7.001,-1.232 -10.521,-1.838 -0.107,0.242 -0.213,0.483 -0.32,0.734 -1.508,3.328 -2.855,6.956 -4.04,10.885 -0.048,-0.018 -0.096,-0.026 -0.143,-0.024 -0.776,-0.109 -1.532,0.133 -2.285,0.738 h -0.01 v 0.01 c -0.641,0.525 -1.078,1.216 -1.3,2.053 -0.156,0.844 -0.045,1.604 0.348,2.278 0.443,0.768 1.057,1.197 1.851,1.277 h 0.01 c 0.076,-0.002 0.143,0.005 0.192,0.024 -0.009,0.047 -0.007,0.085 -0.016,0.132 -0.07,0.195 -0.13,0.396 -0.181,0.618 -0.083,0.374 -0.157,0.757 -0.222,1.132 0,0.009 0,0.009 0.01,0.018 -0.033,0.164 -0.066,0.317 -0.09,0.479 -0.023,0.183 -0.027,0.373 -0.012,0.555 0.015,0.143 -10e-4,0.266 -0.053,0.393 -0.03,-0.019 -0.06,-0.037 -0.089,-0.065 0.001,0.03 0.002,0.048 0.003,0.076 -0.686,0.032 -1.277,0.345 -1.773,0.952 l -0.011,0.001 0.001,0.009 c -0.486,0.597 -0.712,1.328 -0.666,2.196 0.049,0.636 0.237,1.213 0.569,1.726 l 1.858,-0.057 c -0.04,-0.046 -0.079,-0.083 -0.109,-0.121 -0.087,-0.063 -0.166,-0.137 -0.245,-0.23 l -10e-4,-0.01 c -0.326,-0.352 -0.51,-0.767 -0.535,-1.252 -0.015,-0.199 -0.002,-0.381 0.031,-0.564 0.147,-0.471 0.402,-0.87 0.764,-1.187 0.473,-0.415 1.019,-0.641 1.638,-0.68 0.009,0 0.029,-0.001 0.048,-0.001 0.008,-0.048 0.007,-0.077 0.006,-0.106 0.036,-0.077 0.072,-0.155 0.097,-0.241 -0.184,-0.385 -0.236,-0.852 -0.167,-1.378 0.086,-0.613 0.221,-1.208 0.403,-1.797 0.078,-0.231 0.177,-0.433 0.315,-0.599 0.023,-0.183 0.047,-0.355 0.069,-0.538 -0.01,0 -0.038,0.002 -0.067,0.003 -0.621,-0.048 -1.182,-0.297 -1.663,-0.749 -0.443,-0.417 -0.706,-0.932 -0.811,-1.54 0.004,-0.18 0.018,-0.362 0.031,-0.545 0.067,-0.287 0.174,-0.529 0.31,-0.734 0.159,-0.167 0.324,-0.334 0.492,-0.482 0.24,-0.226 0.521,-0.398 0.832,-0.512 0.641,-0.23 1.267,-0.336 1.879,-0.307 0.009,-0.021 0.009,-0.029 0.018,-0.029 1.09,-3.898 2.371,-7.484 3.852,-10.783 2.561,0.455 5.102,0.9 7.625,1.346 -1.345,3.39 -2.457,6.915 -3.344,10.566 v 0.02 c 0.448,0.3 0.795,0.719 1.05,1.255 0.114,0.273 0.171,0.576 0.171,0.9 -0.038,0.641 -0.267,1.22 -0.681,1.739 -0.339,0.402 -0.768,0.71 -1.268,0.917 -0.019,0 -0.038,0 -0.057,0.011 -0.019,-0.01 -0.038,-0.018 -0.058,-0.027 -0.008,0.01 -0.017,0.02 -0.027,0.029 -0.084,0.08 -0.149,0.167 -0.212,0.265 -0.136,0.204 -0.243,0.437 -0.302,0.705 -0.126,0.529 -0.196,1.065 -0.227,1.618 -0.017,0.355 0.013,0.688 0.08,1.019 -0.009,0.011 -0.009,0.011 -0.009,0.02 0.003,0.076 0.005,0.151 0.007,0.228 l 0.001,0.029 h 0.01 c 0.047,0.008 0.114,0.005 0.182,0.013 0.632,0.124 1.149,0.47 1.548,1.039 0.319,0.439 0.487,0.92 0.504,1.463 -0.017,0.067 -0.024,0.163 -0.011,0.276 -0.013,0.202 -0.045,0.394 -0.087,0.576 l 1.6,-0.05 c 0.022,-0.239 0.032,-0.497 0.015,-0.762 -0.074,-0.867 -0.383,-1.62 -0.92,-2.263 -0.365,-0.436 -0.785,-0.737 -1.238,-0.905 0,-0.009 0,-0.009 -0.002,-0.018 -0.028,-0.009 -0.047,-0.028 -0.068,-0.046 -0.009,-0.01 -0.009,-0.018 -0.019,-0.029 -0.012,-0.076 -0.014,-0.152 -0.016,-0.218 -0.022,-0.104 -0.027,-0.218 -0.02,-0.343 0.027,-0.344 0.074,-0.68 0.15,-0.996 0.093,-0.394 0.263,-0.704 0.514,-0.942 v -0.029 c 0.31,-0.133 0.6,-0.323 0.887,-0.58 0.603,-0.543 1,-1.242 1.175,-2.097 0.174,-0.834 0.074,-1.594 -0.28,-2.27 -0.212,-0.376 -0.47,-0.663 -0.762,-0.863 0.945,-3.702 2.101,-7.287 3.491,-10.753"
         id="path591" />
      <path
         inkscape:connector-curvature="0"
         style="fill:#e42126"
         d="m 398.77,225.413 c -3.038,1.077 -5.348,2.532 -6.922,4.354 -1.603,1.834 -2.269,3.733 -2.007,5.699 v 0.01 c 0.225,2.015 1.394,3.763 3.511,5.25 h 0.009 c 2.155,1.517 5.077,2.542 8.784,3.076 h 0.01 c 8.766,1.253 20.121,-0.416 34.047,-5.008 0.598,-0.055 0.8,-1.521 0.616,-4.396 v -0.009 c -0.182,-2.494 -0.559,-4.762 -1.146,-6.803 0,0 0.009,-0.001 0.019,-0.01 -0.042,-0.103 -0.073,-0.199 -0.086,-0.284 0.196,-0.158 0.371,-0.344 0.526,-0.559 -0.009,-0.01 0,-0.02 0.01,-0.011 0.381,-0.612 0.502,-1.341 0.361,-2.195 -0.189,-0.843 -0.583,-1.575 -1.194,-2.195 -0.353,-0.322 -0.704,-0.56 -1.052,-0.731 -0.24,-0.03 -0.426,-0.177 -0.576,-0.449 -0.163,-0.3 -0.297,-0.61 -0.411,-0.922 -0.052,-0.14 -0.065,-0.283 -0.051,-0.408 -0.012,-0.057 -0.022,-0.114 -0.034,-0.18 0.301,-0.153 0.57,-0.38 0.808,-0.692 -0.009,-0.01 0,-0.02 0.009,-0.011 0.311,-0.42 0.505,-0.911 0.575,-1.458 l -1.601,0.05 c -0.113,0.375 -0.302,0.706 -0.57,1.001 -0.027,0.028 -0.065,0.068 -0.101,0.097 l -0.759,0.472 c -0.025,1.041 0.224,1.986 0.757,2.856 0.03,0.048 0.06,0.085 0.109,0.131 l 0.445,0.207 c 0.242,0.115 0.514,0.279 0.807,0.489 0.302,0.21 0.537,0.413 0.687,0.598 0.305,0.315 0.507,0.69 0.588,1.136 v 0.02 c -0.009,0 0,0.009 0.011,0.028 -0.01,0.018 10e-4,0.047 0.022,0.095 0.01,0.028 0.012,0.075 0.023,0.123 0.026,0.543 -0.092,1.042 -0.354,1.498 -0.173,0.273 -0.395,0.5 -0.676,0.671 0.011,0.018 0.011,0.037 0.011,0.046 0.077,0.313 0.172,0.624 0.268,0.955 v 0.01 l 0.01,-0.001 c 0.656,2.069 1.045,4.155 1.158,6.269 0.114,2.114 0.222,3.151 0.317,3.119 -13.643,4.496 -24.77,6.149 -33.362,4.937 -0.604,-0.086 -1.179,-0.192 -1.736,-0.299 -0.146,-0.101 -0.293,-0.201 -0.42,-0.322 -0.98,-0.836 -1.548,-1.935 -1.705,-3.303 -0.155,-1.322 0.12,-2.569 0.818,-3.765 0.734,-1.252 1.812,-2.154 3.235,-2.694 -2.097,0.361 -3.671,1.249 -4.705,2.663 -0.944,1.261 -1.272,2.663 -0.995,4.21 0.175,0.995 0.562,1.832 1.156,2.529 -1.464,-0.479 -2.723,-1.088 -3.786,-1.827 -1.705,-1.197 -2.665,-2.588 -2.876,-4.194 -0.182,-1.548 0.362,-3.053 1.643,-4.515 1.437,-1.637 3.533,-2.943 6.287,-3.924 6.16,-2.185 13.785,-2.374 22.873,-0.549 0.206,0.157 0.411,0.322 0.616,0.487 0.105,0.015 0.193,0.032 0.269,0.048 0.009,-0.009 0.028,-0.01 0.038,-0.001 -0.184,-0.088 -0.35,-0.237 -0.52,-0.45 -0.019,-0.019 -0.038,-0.038 -0.049,-0.057 -0.209,-0.288 -0.372,-0.627 -0.499,-1.014 -0.085,-0.274 -0.132,-0.549 -0.149,-0.816 -0.016,-0.219 -0.005,-0.439 0.028,-0.649 0.088,-0.546 0.361,-0.955 0.819,-1.227 0.179,-0.111 0.356,-0.21 0.545,-0.284 l 0.879,-0.247 c -0.012,-0.067 -0.032,-0.123 -0.062,-0.17 -0.517,-0.975 -0.863,-1.994 -1.021,-3.068 l -0.582,-0.049 c -0.385,-0.074 -0.772,-0.261 -1.172,-0.545 -0.147,-0.109 -0.284,-0.229 -0.401,-0.35 l -1.859,0.058 c 0.11,0.178 0.25,0.354 0.398,0.521 0.009,-0.01 0.019,0 0.01,0.009 0.641,0.715 1.368,1.064 2.179,1.067 0.023,0.124 0.065,0.247 0.136,0.377 0.011,0.039 0.021,0.077 0.032,0.114 0.085,0.293 0.18,0.576 0.283,0.86 0.063,0.159 0.135,0.3 0.215,0.431 -0.666,0.059 -1.19,0.39 -1.581,0.984 l -0.01,0.001 0.01,0.009 c -0.392,0.584 -0.514,1.275 -0.384,2.072 -8.486,-1.443 -15.668,-1.116 -21.553,1.004"
         id="path593" />
      <path
         inkscape:connector-curvature="0"
         style="fill:#e27c9f"
         d="m 422.331,204.643 c -0.311,0.114 -0.592,0.286 -0.832,0.512 -0.168,0.148 -0.333,0.315 -0.491,0.482 -0.136,0.205 -0.244,0.447 -0.311,0.735 -0.013,0.182 -0.027,0.364 -0.031,0.544 0.105,0.608 0.369,1.123 0.811,1.54 0.481,0.452 1.042,0.701 1.664,0.749 0.028,-0.001 0.057,-0.002 0.066,-0.002 0.029,-0.011 0.047,-0.011 0.057,-0.002 2.759,0.362 5.497,0.717 8.227,1.079 0.01,-0.009 0.019,-0.019 0.027,-0.029 0.02,0.009 0.04,0.017 0.058,0.027 0.019,-0.01 0.038,-0.01 0.057,-0.011 0.5,-0.207 0.929,-0.515 1.269,-0.917 0.414,-0.519 0.643,-1.098 0.68,-1.737 0,-0.325 -0.057,-0.629 -0.17,-0.902 -0.256,-0.536 -0.602,-0.955 -1.051,-1.255 v -0.018 c -2.701,-0.365 -5.421,-0.729 -8.151,-1.102 -0.611,-0.029 -1.237,0.077 -1.879,0.307"
         id="path595" />
      <path
         inkscape:connector-curvature="0"
         style="fill:#e86601"
         d="m 423.264,209.2 c -0.01,-0.01 -0.028,-0.009 -0.057,0.002 -0.022,0.183 -0.046,0.354 -0.069,0.537 -0.138,0.166 -0.237,0.369 -0.315,0.6 -0.182,0.588 -0.316,1.184 -0.403,1.797 -0.069,0.525 -0.016,0.992 0.168,1.377 -0.026,0.086 -0.062,0.165 -0.098,0.242 10e-4,0.028 0.002,0.058 -0.006,0.106 0.038,-0.012 0.057,-0.003 0.068,0.007 0.018,0.008 0.038,0.008 0.057,0.016 2.749,0.077 5.488,0.163 8.219,0.251 -0.002,-0.077 -0.004,-0.153 -0.006,-0.229 -10e-4,-0.009 -10e-4,-0.009 0.008,-0.018 -0.067,-0.333 -0.097,-0.666 -0.08,-1.019 0.032,-0.554 0.101,-1.091 0.227,-1.619 0.059,-0.269 0.166,-0.501 0.303,-0.705 0.063,-0.098 0.128,-0.186 0.211,-0.265 -2.73,-0.363 -5.468,-0.717 -8.227,-1.08 z"
         id="path597" />
      <path
         inkscape:connector-curvature="0"
         style="fill:#e86601"
         d="m 424.229,204.307 c -0.009,0 -0.009,0.009 -0.019,0.029 2.731,0.373 5.45,0.737 8.152,1.1 0.887,-3.651 1.999,-7.176 3.344,-10.566 -2.523,-0.446 -5.064,-0.891 -7.625,-1.346 -1.481,3.299 -2.763,6.886 -3.852,10.783"
         id="path599" />
      <path
         inkscape:connector-curvature="0"
         style="fill:#e27c9f"
         d="m 430.829,214.164 v -0.028 c -2.731,-0.088 -5.471,-0.175 -8.22,-0.251 -0.019,-0.009 -0.039,-0.009 -0.057,-0.016 -0.011,-0.01 -0.03,-0.019 -0.068,-0.008 -0.018,0 -0.038,0.001 -0.048,0.001 -0.618,0.039 -1.165,0.265 -1.638,0.68 -0.362,0.317 -0.616,0.716 -0.764,1.187 -0.033,0.183 -0.046,0.365 -0.031,0.564 0.025,0.485 0.21,0.9 0.535,1.252 l 10e-4,0.01 c 0.08,0.093 0.158,0.167 0.246,0.231 0.148,0.177 0.315,0.333 0.51,0.47 0.4,0.284 0.787,0.471 1.172,0.545 l 0.582,0.049 1.9,0.055 c 2.043,0.051 4.086,0.112 6.119,0.182 l 0.477,0.015 0.759,-0.473 c 0.036,-0.029 0.074,-0.069 0.101,-0.097 0.397,-0.433 0.619,-0.955 0.657,-1.576 -0.013,-0.114 -0.006,-0.209 0.012,-0.277 -0.018,-0.543 -0.185,-1.024 -0.504,-1.463 -0.4,-0.569 -0.916,-0.915 -1.549,-1.039 -0.068,-0.008 -0.135,-0.005 -0.182,-0.013 h -0.01 z"
         id="path601" />
      <path
         inkscape:connector-curvature="0"
         style="fill:#e27c9f"
         d="m 423.253,222.335 c -0.188,0.072 -0.366,0.172 -0.544,0.283 -0.459,0.272 -0.732,0.681 -0.82,1.228 -0.032,0.21 -0.044,0.43 -0.028,0.649 0.017,0.266 0.064,0.542 0.149,0.816 0.127,0.386 0.29,0.725 0.499,1.014 0.011,0.019 0.03,0.037 0.049,0.056 0.17,0.214 0.336,0.362 0.52,0.451 -0.01,-0.01 -0.029,-0.009 -0.038,0.001 0.048,0.009 0.086,0.017 0.135,0.044 0.068,0.017 0.144,0.034 0.221,0.05 0.018,-0.01 0.038,-0.001 0.057,0.008 0.086,0.006 0.172,0.004 0.258,0.011 0.125,0.005 0.257,0.001 0.392,0.007 3.309,0.002 6.59,-0.005 9.861,-0.001 0.281,-0.171 0.503,-0.398 0.676,-0.67 0.262,-0.457 0.38,-0.956 0.354,-1.498 -0.011,-0.049 -0.013,-0.095 -0.023,-0.125 -0.021,-0.046 -0.031,-0.075 -0.021,-0.093 -0.01,-0.019 -0.021,-0.028 -0.01,-0.029 0,-0.01 0,-0.01 -10e-4,-0.019 -0.081,-0.447 -0.283,-0.822 -0.588,-1.136 -0.15,-0.186 -0.385,-0.389 -0.687,-0.598 -0.293,-0.211 -0.565,-0.374 -0.806,-0.491 l -0.446,-0.205 -1.088,-0.005 c -1.964,-0.004 -3.929,-0.002 -5.903,0.002 l -1.288,0.003 -0.88,0.247 z"
         id="path603" />
      <path
         inkscape:connector-curvature="0"
         style="fill:#e86601"
         d="m 423.175,226.877 c -0.049,-0.027 -0.086,-0.035 -0.135,-0.044 -0.076,-0.016 -0.163,-0.033 -0.268,-0.049 -0.206,-0.165 -0.411,-0.33 -0.617,-0.486 -9.088,-1.825 -16.712,-1.636 -22.873,0.549 -2.754,0.981 -4.85,2.286 -6.287,3.924 -1.281,1.461 -1.825,2.966 -1.643,4.514 0.212,1.607 1.171,2.998 2.877,4.195 1.063,0.738 2.321,1.348 3.785,1.827 -0.593,-0.697 -0.981,-1.534 -1.155,-2.53 -0.278,-1.546 0.05,-2.948 0.994,-4.209 1.034,-1.414 2.608,-2.302 4.705,-2.665 -1.423,0.542 -2.501,1.444 -3.235,2.696 -0.698,1.195 -0.973,2.443 -0.818,3.764 0.157,1.369 0.725,2.468 1.705,3.304 0.127,0.121 0.274,0.221 0.42,0.321 0.557,0.108 1.132,0.213 1.736,0.3 8.592,1.212 19.719,-0.442 33.362,-4.938 -0.095,0.032 -0.204,-1.005 -0.317,-3.118 -0.113,-2.114 -0.502,-4.201 -1.158,-6.269 l -0.01,0.001 v -0.011 c -0.096,-0.33 -0.191,-0.641 -0.268,-0.954 0,-0.009 0,-0.028 -0.011,-0.047 -3.271,-0.004 -6.552,0.003 -9.861,0.001 -0.135,-0.005 -0.267,-0.001 -0.392,-0.007 -0.086,-0.007 -0.172,-0.005 -0.258,-0.011 -0.019,-0.009 -0.039,-0.018 -0.057,-0.008 -0.078,-0.016 -0.153,-0.033 -0.221,-0.05"
         id="path605" />
      <path
         inkscape:connector-curvature="0"
         style="fill:#e86601"
         d="m 424.132,222.088 1.288,-0.002 c 1.974,-0.005 3.939,-0.007 5.903,-0.003 l 1.088,0.005 c -0.049,-0.046 -0.079,-0.083 -0.11,-0.131 -0.532,-0.87 -0.781,-1.816 -0.756,-2.856 l -0.477,-0.014 c -2.033,-0.07 -4.077,-0.131 -6.12,-0.182 l -1.899,-0.055 c 0.157,1.073 0.504,2.092 1.021,3.068 0.03,0.047 0.05,0.103 0.062,0.17"
         id="path607" />
      <path
         inkscape:connector-curvature="0"
         style="fill:#e42126"
         d="m 441.723,201.768 c -0.125,-0.246 -0.252,-0.491 -0.387,-0.718 3.382,-1.032 6.766,-2.044 10.17,-3.058 0.134,0.226 0.268,0.452 0.402,0.687 1.883,3.107 3.641,6.531 5.275,10.268 0.045,-0.022 0.092,-0.037 0.138,-0.041 0.754,-0.2 1.528,-0.049 2.344,0.459 h 0.011 v 0.009 c 0.695,0.443 1.209,1.074 1.526,1.873 0.253,0.815 0.235,1.578 -0.073,2.291 -0.348,0.81 -0.902,1.306 -1.678,1.48 h -0.009 c -0.075,0.007 -0.142,0.022 -0.187,0.045 0.012,0.046 0.018,0.084 0.03,0.131 0.092,0.182 0.177,0.375 0.251,0.587 0.127,0.36 0.247,0.73 0.354,1.091 0,0.009 0,0.009 -0.008,0.02 0.053,0.157 0.104,0.305 0.146,0.462 0.044,0.178 0.068,0.367 0.076,0.546 0.003,0.142 0.033,0.264 0.1,0.381 0.028,-0.021 0.055,-0.043 0.08,-0.073 0.003,0.028 0.004,0.047 0.006,0.075 0.682,-0.05 1.303,0.19 1.864,0.731 l 0.009,-0.001 v 0.009 c 0.551,0.531 0.861,1.228 0.918,2.088 0.037,0.854 -0.189,1.635 -0.689,2.335 -0.01,-0.008 -0.018,0.003 -0.006,0.011 -0.551,0.781 -1.227,1.211 -2.026,1.311 10e-4,0.114 -0.027,0.24 -0.082,0.368 l -1.501,0.133 c 0.056,-0.338 0.083,-0.683 0.089,-1.035 l 0.569,-0.117 c 0.371,-0.118 0.73,-0.35 1.093,-0.677 0.176,-0.158 0.321,-0.334 0.448,-0.525 0.08,-0.073 0.148,-0.155 0.216,-0.257 l -0.001,-0.009 c 0.279,-0.386 0.412,-0.817 0.381,-1.299 -0.01,-0.2 -0.044,-0.377 -0.098,-0.553 -0.201,-0.448 -0.5,-0.812 -0.896,-1.083 -0.517,-0.354 -1.083,-0.513 -1.696,-0.478 -0.01,10e-4 -0.029,0.003 -0.048,0.004 -0.014,-0.045 -0.017,-0.073 -0.019,-0.103 -0.045,-0.071 -0.09,-0.144 -0.125,-0.225 0.136,-0.403 0.133,-0.869 0.002,-1.38 -0.157,-0.597 -0.361,-1.169 -0.61,-1.726 -0.104,-0.22 -0.225,-0.409 -0.382,-0.556 -0.043,-0.177 -0.088,-0.345 -0.131,-0.522 0.009,-0.001 0.038,-0.004 0.066,-0.006 0.607,-0.12 1.131,-0.433 1.553,-0.936 0.388,-0.463 0.588,-1.004 0.619,-1.616 -0.024,-0.177 -0.06,-0.356 -0.096,-0.533 -0.1,-0.278 -0.234,-0.504 -0.394,-0.689 -0.175,-0.146 -0.358,-0.292 -0.54,-0.418 -0.264,-0.196 -0.562,-0.331 -0.883,-0.407 -0.661,-0.152 -1.291,-0.182 -1.891,-0.081 -0.012,-0.019 -0.013,-0.028 -0.023,-0.027 -1.536,-3.719 -3.224,-7.109 -5.076,-10.19 -2.475,0.752 -4.932,1.492 -7.369,2.231 1.728,3.187 3.242,6.536 4.551,10.036 10e-4,0.01 10e-4,0.01 10e-4,0.02 -0.407,0.349 -0.699,0.803 -0.887,1.363 -0.08,0.282 -0.101,0.588 -0.063,0.909 0.112,0.627 0.408,1.173 0.877,1.635 0.383,0.357 0.844,0.612 1.361,0.755 0.019,-0.001 0.038,-0.003 0.057,0.005 0.018,-0.011 0.037,-0.023 0.054,-0.033 0.011,0.008 0.022,0.017 0.031,0.025 0.092,0.069 0.165,0.148 0.24,0.237 0.159,0.185 0.292,0.402 0.381,0.66 0.188,0.506 0.32,1.029 0.416,1.571 0.059,0.347 0.069,0.68 0.041,1.016 0.011,0.008 0.011,0.008 0.012,0.017 0.006,0.076 0.013,0.151 0.019,0.226 l 0.004,0.029 -0.01,10e-4 c -0.046,0.013 -0.112,0.019 -0.178,0.035 -0.611,0.196 -1.079,0.599 -1.405,1.209 -0.264,0.47 -0.372,0.965 -0.325,1.504 0.026,0.063 0.043,0.157 0.043,0.271 0.112,0.609 0.392,1.098 0.835,1.477 0.031,0.027 0.072,0.06 0.112,0.085 l 0.804,0.377 c 0.025,0.17 0.04,0.339 0.044,0.511 l -1.755,0.155 c -0.248,-0.121 -0.492,-0.29 -0.722,-0.527 0.009,-0.01 -10e-4,-0.02 -0.011,-0.009 -0.515,-0.553 -0.797,-1.262 -0.844,-2.124 -0.028,-0.863 0.189,-1.643 0.64,-2.339 0.31,-0.475 0.689,-0.822 1.116,-1.042 -10e-4,-0.009 -10e-4,-0.009 -0.002,-0.018 0.029,-0.012 0.046,-0.032 0.064,-0.053 0.008,-0.011 0.007,-0.02 0.016,-0.03 0.002,-0.076 -0.004,-0.153 -0.01,-0.219 0.01,-0.105 0,-0.218 -0.02,-0.34 -0.068,-0.337 -0.155,-0.661 -0.267,-0.966 -0.137,-0.378 -0.344,-0.665 -0.619,-0.868 -0.001,-0.009 -0.002,-0.019 -0.002,-0.03 -0.323,-0.094 -0.631,-0.247 -0.946,-0.467 -0.66,-0.465 -1.135,-1.109 -1.407,-1.932 -0.271,-0.803 -0.262,-1.565 0.009,-2.274 0.164,-0.395 0.384,-0.71 0.649,-0.943 -1.368,-3.541 -2.934,-6.943 -4.716,-10.202"
         id="path609" />
      <path
         inkscape:connector-curvature="0"
         style="fill:#e42126"
         d="m 483.816,231.754 c 2.819,1.225 4.939,2.827 6.36,4.805 1.441,1.994 2.003,4.038 1.683,6.131 l 0.002,0.01 c -0.275,2.147 -1.444,3.991 -3.5,5.524 l -0.008,0.001 c -2.08,1.563 -4.871,2.58 -8.39,3.053 l -0.01,0.001 c -8.304,1.123 -18.942,-0.925 -31.899,-6.165 -0.163,-0.024 -0.301,-0.183 -0.394,-0.479 -0.017,0.03 -0.032,0.06 -0.058,0.091 -0.233,-0.693 -0.394,-1.869 -0.492,-3.515 l -0.001,-0.009 c -0.034,-0.712 -0.047,-1.396 -0.049,-2.071 0.011,-1.694 0.137,-3.286 0.376,-4.782 0,0 -0.01,0.001 -0.019,-0.007 0.028,-0.108 0.048,-0.205 0.05,-0.29 -0.05,-0.034 -0.1,-0.068 -0.152,-0.102 -0.152,-0.11 -0.297,-0.239 -0.433,-0.389 0.008,-0.01 -0.003,-0.019 -0.011,-0.008 -0.449,-0.561 -0.655,-1.266 -0.616,-2.125 0.086,-0.855 0.391,-1.624 0.92,-2.309 0.31,-0.36 0.628,-0.635 0.952,-0.844 0.233,-0.06 0.398,-0.227 0.517,-0.513 0.124,-0.315 0.22,-0.638 0.296,-0.958 0.034,-0.146 0.031,-0.289 0.002,-0.409 0.004,-0.058 0.008,-0.116 0.013,-0.183 -0.051,-0.024 -0.109,-0.037 -0.159,-0.062 l 1.755,-0.154 c 0.046,0.832 -0.101,1.635 -0.453,2.4 -0.024,0.048 -0.049,0.089 -0.092,0.14 l -0.415,0.257 c -0.225,0.142 -0.475,0.336 -0.738,0.578 -0.274,0.244 -0.482,0.471 -0.608,0.672 -0.264,0.347 -0.419,0.742 -0.446,1.191 0.001,0.01 0.001,0.01 0.002,0.019 0.009,-10e-4 0.001,0.009 -0.007,0.029 0.011,0.018 0.003,0.047 -0.011,0.096 -0.007,0.029 -0.004,0.077 -0.008,0.125 0.039,0.538 0.213,1.019 0.527,1.438 0.202,0.248 0.448,0.445 0.746,0.581 -0.008,0.019 -0.006,0.038 -0.005,0.047 -0.006,0.049 -0.02,0.108 -0.025,0.155 -0.035,0.26 -0.076,0.539 -0.127,0.821 l 10e-4,0.009 h -0.01 c -0.228,1.191 -0.371,2.373 -0.428,3.559 -0.042,0.927 -0.027,1.848 0.026,2.767 0.056,0.862 0.09,1.553 0.106,2.055 0.042,-0.051 0.085,-0.101 0.129,-0.154 -0.017,0.135 -0.026,0.25 -0.046,0.347 -0.039,0.317 -0.083,0.464 -0.122,0.448 12.701,5.14 23.128,7.168 31.272,6.096 0.565,-0.078 1.108,-0.174 1.642,-0.288 0.144,-0.097 0.274,-0.214 0.409,-0.33 0.951,-0.865 1.523,-2.029 1.718,-3.482 0.201,-1.398 -0.014,-2.749 -0.632,-4.036 -0.645,-1.361 -1.635,-2.34 -2.954,-2.956 1.972,0.435 3.418,1.421 4.345,2.967 0.834,1.362 1.1,2.872 0.778,4.507 -0.202,1.056 -0.59,1.937 -1.183,2.665 1.404,-0.476 2.617,-1.088 3.643,-1.854 1.652,-1.231 2.607,-2.694 2.865,-4.402 0.225,-1.647 -0.232,-3.272 -1.389,-4.854 -1.3,-1.778 -3.227,-3.226 -5.781,-4.343 -4.411,-1.903 -9.684,-2.57 -15.817,-1.98 l -7.97,1.018 -0.07,-0.042 c 0.303,-0.122 0.544,-0.304 0.73,-0.559 0.061,-0.072 0.111,-0.152 0.162,-0.223 0.074,-0.13 0.137,-0.279 0.189,-0.436 l 0.008,-0.011 c 0.051,-0.175 0.102,-0.36 0.143,-0.544 0.052,-0.281 0.064,-0.559 0.052,-0.823 -0.004,-0.143 -0.024,-0.283 -0.058,-0.423 -0.016,-0.076 -0.031,-0.15 -0.047,-0.215 -0.15,-0.529 -0.47,-0.9 -0.955,-1.115 -0.188,-0.088 -0.377,-0.167 -0.57,-0.216 l -0.896,-0.139 c 0.002,-0.067 0.016,-0.125 0.041,-0.175 0.271,-0.7 0.456,-1.401 0.555,-2.115 l 1.5,-0.133 c -0.008,0.012 -0.008,0.012 -0.006,0.02 -0.006,0.039 -0.013,0.078 -0.02,0.116 -0.05,0.299 -0.107,0.59 -0.18,0.882 -0.041,0.165 -0.094,0.313 -0.158,0.453 0.663,-0.022 1.22,0.243 1.677,0.784 l 0.011,-10e-4 -0.011,0.01 c 0.202,0.239 0.36,0.511 0.463,0.814 0.062,0.158 0.105,0.316 0.13,0.484 0.03,0.455 0.004,0.905 -0.102,1.342 -0.028,0.116 -0.057,0.233 -0.092,0.36 0.25,-0.069 0.578,-0.127 1.003,-0.173 0.422,-0.066 0.825,-0.121 1.202,-0.183 0.373,-0.062 0.666,-0.106 0.873,-0.134 v 0.01 c 7.382,-1.025 13.63,-0.415 18.749,1.835"
         id="path611" />
      <path
         inkscape:connector-curvature="0"
         style="fill:#e27c9f"
         d="m 457.896,210.122 c 0.319,0.076 0.619,0.212 0.883,0.408 0.182,0.126 0.367,0.271 0.539,0.417 0.16,0.186 0.295,0.412 0.395,0.689 0.036,0.177 0.071,0.356 0.096,0.533 -0.031,0.612 -0.231,1.153 -0.619,1.616 -0.422,0.504 -0.945,0.816 -1.554,0.936 -0.028,0.003 -0.056,0.006 -0.065,0.007 -0.029,-0.007 -0.049,-0.005 -0.057,0.004 -2.681,0.685 -5.343,1.356 -7.995,2.038 -0.009,-0.008 -0.02,-0.017 -0.031,-0.024 -0.017,0.01 -0.036,0.021 -0.053,0.032 -0.019,-0.008 -0.039,-0.005 -0.058,-0.004 -0.517,-0.144 -0.978,-0.399 -1.361,-0.755 -0.469,-0.464 -0.765,-1.008 -0.877,-1.636 -0.038,-0.32 -0.017,-0.627 0.063,-0.909 0.188,-0.56 0.481,-1.014 0.887,-1.363 0,-0.01 0,-0.01 -10e-4,-0.019 2.623,-0.678 5.267,-1.359 7.917,-2.05 0.6,-0.103 1.229,-0.072 1.891,0.08"
         id="path613" />
      <path
         inkscape:connector-curvature="0"
         style="fill:#e86601"
         d="m 457.514,214.732 c 0.008,-0.01 0.027,-0.012 0.057,-0.004 0.043,0.176 0.088,0.344 0.131,0.521 0.156,0.147 0.277,0.336 0.383,0.556 0.248,0.557 0.451,1.129 0.609,1.725 0.131,0.513 0.133,0.978 -0.003,1.381 0.036,0.081 0.081,0.154 0.125,0.225 0.003,0.03 0.005,0.058 0.021,0.103 -0.04,-0.006 -0.059,0.006 -0.067,0.016 -0.017,0.011 -0.035,0.013 -0.054,0.024 -2.706,0.401 -5.4,0.81 -8.086,1.218 -0.006,-0.075 -0.013,-0.15 -0.02,-0.225 -0.001,-0.01 -0.001,-0.01 -0.012,-0.019 0.029,-0.335 0.019,-0.667 -0.041,-1.015 -0.096,-0.542 -0.227,-1.065 -0.415,-1.57 -0.089,-0.259 -0.223,-0.476 -0.382,-0.661 -0.074,-0.089 -0.148,-0.168 -0.24,-0.237 2.651,-0.682 5.313,-1.353 7.994,-2.038"
         id="path615" />
      <path
         inkscape:connector-curvature="0"
         style="fill:#e86601"
         d="m 455.982,210.014 c 0.01,-0.001 0.012,0.008 0.021,0.027 -2.649,0.691 -5.292,1.372 -7.916,2.05 -1.309,-3.5 -2.823,-6.849 -4.551,-10.036 2.437,-0.739 4.894,-1.479 7.369,-2.231 1.853,3.081 3.54,6.471 5.077,10.19"
         id="path617" />
      <path
         inkscape:connector-curvature="0"
         style="fill:#e27c9f"
         d="m 450.632,220.526 -0.003,-0.029 c 2.687,-0.408 5.38,-0.817 8.086,-1.218 0.02,-0.011 0.037,-0.013 0.055,-0.024 0.008,-0.01 0.026,-0.021 0.066,-0.016 0.018,-0.001 0.037,-0.003 0.046,-0.004 0.615,-0.035 1.183,0.124 1.698,0.478 0.395,0.271 0.693,0.635 0.895,1.083 0.053,0.176 0.088,0.354 0.098,0.553 0.031,0.482 -0.102,0.913 -0.381,1.299 l 0.002,0.009 c -0.068,0.102 -0.138,0.184 -0.217,0.257 -0.126,0.192 -0.273,0.367 -0.449,0.526 -0.36,0.326 -0.722,0.558 -1.092,0.676 l -0.57,0.118 -1.867,0.278 c -2.012,0.292 -4.02,0.594 -6.02,0.903 l -0.47,0.07 -0.803,-0.376 c -0.041,-0.026 -0.081,-0.059 -0.113,-0.084 -0.442,-0.381 -0.723,-0.87 -0.835,-1.478 0,-0.115 -0.017,-0.208 -0.042,-0.272 -0.048,-0.539 0.06,-1.034 0.324,-1.504 0.326,-0.61 0.794,-1.013 1.405,-1.208 0.066,-0.016 0.132,-0.022 0.179,-0.036 l 0.008,-10e-4 0,0 z"
         id="path619" />
      <path
         inkscape:connector-curvature="0"
         style="fill:#e27c9f"
         d="m 459.078,227.697 c 0.193,0.049 0.382,0.128 0.57,0.215 0.486,0.215 0.805,0.587 0.955,1.116 0.016,0.065 0.031,0.139 0.047,0.214 0.033,0.141 0.054,0.281 0.058,0.423 0.013,0.265 0,0.542 -0.051,0.824 -0.042,0.184 -0.093,0.369 -0.144,0.544 l -0.008,0.011 c -0.053,0.157 -0.115,0.305 -0.191,0.435 -0.049,0.072 -0.1,0.152 -0.16,0.224 -0.186,0.254 -0.428,0.437 -0.73,0.559 l -1.035,0.138 c -0.828,0.103 -1.658,0.195 -2.485,0.297 -2.298,0.269 -4.585,0.547 -6.854,0.824 -0.298,-0.135 -0.544,-0.333 -0.746,-0.581 -0.314,-0.419 -0.489,-0.899 -0.527,-1.438 0.004,-0.048 0.001,-0.096 0.008,-0.125 0.014,-0.047 0.022,-0.076 0.01,-0.096 0.009,-0.02 0.016,-0.029 0.008,-0.028 -10e-4,-0.01 -10e-4,-0.01 -0.002,-0.019 0.027,-0.45 0.182,-0.845 0.446,-1.192 0.125,-0.2 0.333,-0.428 0.607,-0.672 0.264,-0.241 0.514,-0.435 0.739,-0.578 l 0.415,-0.257 1.073,-0.132 c 1.939,-0.237 3.879,-0.466 5.828,-0.696 l 1.271,-0.15 0.898,0.14 0,0 z"
         id="path621" />
      <path
         inkscape:connector-curvature="0"
         style="fill:#e86601"
         d="m 459.424,232.262 0.07,0.042 7.97,-1.018 c 6.133,-0.59 11.406,0.077 15.817,1.98 2.555,1.117 4.481,2.564 5.781,4.343 1.156,1.582 1.613,3.207 1.389,4.854 -0.258,1.707 -1.213,3.171 -2.865,4.402 -1.025,0.766 -2.239,1.377 -3.641,1.854 0.59,-0.728 0.979,-1.609 1.181,-2.665 0.321,-1.636 0.055,-3.145 -0.779,-4.507 -0.926,-1.546 -2.373,-2.533 -4.344,-2.967 1.319,0.616 2.31,1.595 2.954,2.955 0.617,1.288 0.833,2.639 0.633,4.037 -0.195,1.453 -0.768,2.617 -1.719,3.482 -0.135,0.116 -0.266,0.232 -0.409,0.33 -0.533,0.114 -1.076,0.21 -1.642,0.288 -8.145,1.072 -18.571,-0.956 -31.272,-6.097 0.04,0.017 0.083,-0.13 0.122,-0.447 0.02,-0.097 0.029,-0.213 0.046,-0.347 -0.044,0.052 -0.087,0.103 -0.129,0.154 -0.016,-0.502 -0.05,-1.194 -0.106,-2.055 -0.053,-0.919 -0.068,-1.84 -0.026,-2.767 0.057,-1.186 0.2,-2.369 0.428,-3.559 h 0.01 l -10e-4,-0.01 c 0.051,-0.28 0.093,-0.56 0.127,-0.82 0.005,-0.047 0.019,-0.106 0.025,-0.154 -10e-4,-0.01 -0.003,-0.029 0.005,-0.049 2.27,-0.277 4.557,-0.555 6.854,-0.824 0.828,-0.102 1.658,-0.194 2.486,-0.297 l 1.035,-0.138 z"
         id="path623" />
      <path
         inkscape:connector-curvature="0"
         style="fill:#e86601"
         d="m 458.182,227.558 -1.272,0.15 c -1.95,0.229 -3.89,0.458 -5.829,0.696 l -1.073,0.132 c 0.043,-0.051 0.068,-0.091 0.092,-0.14 0.424,-0.922 0.557,-1.886 0.409,-2.911 l 0.47,-0.07 c 2,-0.309 4.008,-0.611 6.02,-0.902 l 1.868,-0.279 c -0.028,1.077 -0.249,2.124 -0.646,3.149 -0.024,0.05 -0.037,0.108 -0.039,0.175"
         id="path625" />
      <polygon
         style="fill:#e42126"
         points="463.585,229.716 463.586,229.725 463.576,229.726 "
         id="polygon627" />
      <path
         inkscape:connector-curvature="0"
         style="fill:#fcdf00"
         d="m 438.839,152.241 c 0.037,-0.087 0.072,-0.175 0.107,-0.254 -0.133,-2.112 -0.436,-4.247 -0.919,-6.398 -0.175,-0.794 -0.349,-1.596 -0.502,-2.403 0.034,-0.079 0.07,-0.165 0.086,-0.25 0.025,-0.081 0.039,-0.156 0.052,-0.231 -0.178,-0.598 -0.197,-1.205 -0.07,-1.808 0.045,-0.212 0.035,-0.432 -0.038,-0.642 -0.191,0.049 -0.383,0.1 -0.582,0.147 -3.875,0.915 -7.742,0.943 -11.592,0.088 -9.937,-2.186 -18.037,-7.46 -24.289,-15.829 -4.682,-6.259 -10.271,-7.716 -16.765,-4.349 -1.66,0.863 -2.96,2.073 -3.885,3.654 -4.068,6.893 -2.919,13.747 3.434,20.577 6.924,7.45 15.528,11.497 25.814,12.134 9.499,0.582 18.864,-0.396 28.095,-2.943 l -0.027,-0.137 c 0.061,0.028 0.109,0.063 0.144,0.103 0.053,-0.013 0.098,-0.028 0.15,-0.042 -0.052,0.014 -0.097,0.029 -0.15,0.042 0.145,0.104 0.262,0.229 0.352,0.384 0.058,0.096 0.173,0.103 0.354,0.019 0.058,-0.09 0.104,-0.174 0.161,-0.265 0.043,-0.076 0.079,-0.164 0.112,-0.242 0.04,-0.225 0.024,-0.458 -0.034,-0.681 -0.045,-0.143 -0.08,-0.281 -0.104,-0.427 0.035,-0.079 0.062,-0.168 0.096,-0.247"
         id="path629" />
      <path
         inkscape:connector-curvature="0"
         style="fill:#fcdf00"
         d="m 436.973,140.402 c 0.199,-0.047 0.391,-0.098 0.582,-0.147 0.003,-0.009 0.006,-0.019 0,-0.029 -0.258,-0.051 -0.452,0.009 -0.582,0.176"
         id="path631" />
      <path
         inkscape:connector-curvature="0"
         style="fill:none;stroke:#f2b800;stroke-width:1.50199997;stroke-linecap:round;stroke-linejoin:round;stroke-miterlimit:10"
         d="m 438.052,153.658 c -0.052,0.014 -0.097,0.03 -0.149,0.043 -0.032,0.01 -0.074,0.016 -0.118,0.034 -9.231,2.547 -18.596,3.526 -28.095,2.942 -10.286,-0.635 -18.89,-4.683 -25.814,-12.133 -6.353,-6.83 -7.502,-13.685 -3.434,-20.578 0.925,-1.58 2.225,-2.791 3.885,-3.653 6.495,-3.367 12.083,-1.911 16.766,4.348 6.251,8.37 14.352,13.643 24.288,15.83 3.85,0.854 7.717,0.826 11.592,-0.088 0.199,-0.048 0.391,-0.098 0.582,-0.148 0.394,-0.106 0.78,-0.215 1.156,-0.326"
         id="path633" />
      <path
         inkscape:connector-curvature="0"
         style="fill:#fcdf00"
         d="m 380.758,132.249 c 0.074,0.464 0.104,0.94 0.105,1.423 0.058,0.072 0.109,0.154 0.139,0.234 0.07,0.194 0.076,0.395 0.022,0.593 0.078,0.077 0.155,0.152 0.236,0.236 0.247,0.243 0.429,0.203 0.553,-0.131 0.01,-0.071 0.014,-0.13 0.025,-0.201 0.028,-0.221 -0.027,-0.428 -0.176,-0.63 0.064,-0.269 0.072,-0.532 0.021,-0.799 -0.13,-0.672 -0.186,-1.363 -0.166,-2.056 -0.068,-0.146 -0.106,-0.291 -0.096,-0.439 0.007,-0.224 -0.045,-0.423 -0.163,-0.614 -0.296,-0.102 -0.472,0.004 -0.519,0.336 -0.073,0.456 -0.114,0.922 -0.123,1.399 0.066,0.213 0.115,0.432 0.142,0.649"
         id="path635" />
      <path
         inkscape:connector-curvature="0"
         style="fill:#d89022"
         d="m 382.287,167.464 c 0.056,0.75 0.429,1.095 1.108,1.039 l 10.955,-0.912 c 0.679,-0.057 0.985,-0.46 0.93,-1.209 l -0.24,-3.189 c -0.057,-0.769 -0.421,-1.126 -1.101,-1.07 l -2.246,0.188 -0.028,0.002 -6.454,0.537 -0.028,0.003 -2.199,0.182 c -0.678,0.056 -0.994,0.47 -0.937,1.238 l 0.24,3.191 z"
         id="path637" />
      <polygon
         style="fill:#e9ebf6"
         points="384.683,158.514 385.211,162.851 391.664,162.313 391.496,156.362 "
         id="polygon639" />
      <polygon
         style="fill:#bfa065"
         points="381.745,136.812 381.717,136.813 381.755,136.938 "
         id="polygon641" />
      <polygon
         style="fill:#bfa065"
         points="382.069,136.891 390.887,135.578 391.203,135.551 391.201,135.261 381.745,136.812 381.754,136.937 "
         id="polygon643" />
      <polygon
         style="fill:#bfa065"
         points="381.641,136.192 381.717,136.813 381.745,136.812 "
         id="polygon645" />
      <path
         inkscape:connector-curvature="0"
         style="fill:#d89022"
         d="m 381.641,136.192 0.104,0.619 9.456,-1.55 -0.004,-0.31 -1.428,-77.81 c -0.176,-2.595 -1.221,-4.732 -3.148,-6.418 -1.47,-1.27 -3.122,-2.002 -4.954,-2.188 -0.551,-0.042 -0.852,-0.064 -0.88,-0.062 l -1.835,0.153 c -0.02,0.001 -0.304,0.073 -0.851,0.205 -1.773,0.467 -3.286,1.464 -4.539,2.979 -1.65,1.985 -2.373,4.268 -2.177,6.863 l 10.256,77.519 z m 2.334,-30.283 c -1.109,0.102 -2.113,-0.588 -3.021,-2.05 -0.92,-1.489 -1.48,-3.319 -1.673,-5.497 -0.192,-2.179 0.049,-4.084 0.706,-5.715 0.657,-1.631 1.535,-2.487 2.644,-2.579 1.118,-0.094 2.132,0.596 3.041,2.057 0.907,1.463 1.459,3.291 1.643,5.491 0.184,2.189 -0.048,4.093 -0.705,5.724 -0.63,1.609 -1.508,2.465 -2.635,2.569"
         id="path647" />
      <path
         inkscape:connector-curvature="0"
         style="fill:#c46822"
         d="m 380.954,103.859 c 0.909,1.461 1.913,2.151 3.021,2.05 1.127,-0.104 2.006,-0.96 2.635,-2.569 0.657,-1.631 0.89,-3.535 0.706,-5.725 -0.185,-2.199 -0.736,-4.027 -1.644,-5.49 -0.908,-1.461 -1.922,-2.151 -3.04,-2.058 -1.109,0.093 -1.988,0.949 -2.645,2.58 -0.657,1.63 -0.898,3.536 -0.705,5.714 0.193,2.18 0.752,4.009 1.672,5.498"
         id="path649" />
      <path
         inkscape:connector-curvature="0"
         style="fill:#e9ebf6"
         d="m 382.069,136.891 2.614,21.623 6.813,-2.152 -0.394,-13.706 -8.053,1.772 8.053,-1.772 -0.215,-7.079 -8.818,1.314 z m 9.045,13.479 -7.28,-0.478 7.28,0.478 z"
         id="path651" />
      <polygon
         style="fill:#bfa065"
         points="391.222,135.549 391.21,135.26 391.201,135.261 391.203,135.551 "
         id="polygon653" />
      <polygon
         style="fill:#bfa065"
         points="391.2,135.26 391.21,135.26 391.196,134.951 "
         id="polygon655" />
      <path
         inkscape:connector-curvature="0"
         style="fill:none;stroke:#4a4646;stroke-width:1.43599999;stroke-linecap:round;stroke-linejoin:round;stroke-miterlimit:10"
         d="m 391.21,135.26 -0.009,0.001 -9.456,1.551 -0.028,0.002 m 2.117,13.079 7.28,0.477 m -8.065,-5.942 8.053,-1.772 m 0.394,13.706 -6.813,2.152"
         id="path657" />
      <path
         inkscape:connector-curvature="0"
         style="fill:none;stroke:#4a4646;stroke-width:1.53199995;stroke-linecap:round;stroke-linejoin:round;stroke-miterlimit:10"
         d="m 385.182,162.854 0.029,-0.003 6.454,-0.537 0.028,-0.002 m -6.511,0.542 -3.427,-25.917 -0.01,-0.125 -0.104,-0.619 -10.256,-77.52 c -0.195,-2.594 0.528,-4.878 2.177,-6.862 1.253,-1.516 2.766,-2.512 4.539,-2.979 0.548,-0.132 0.831,-0.204 0.85,-0.206 l 1.836,-0.152 c 0.028,-0.003 0.329,0.02 0.88,0.062 1.832,0.186 3.484,0.918 4.955,2.188 1.926,1.686 2.971,3.823 3.147,6.418 l 1.428,77.81 0.004,0.309 0.002,0.29 0.49,26.761 m 0,0 2.246,-0.188 c 0.679,-0.056 1.044,0.301 1.101,1.07 l 0.239,3.189 c 0.056,0.749 -0.25,1.152 -0.929,1.209 l -10.956,0.912 c -0.678,0.056 -1.051,-0.29 -1.107,-1.039 l -0.24,-3.191 c -0.058,-0.768 0.258,-1.182 0.937,-1.238 l 2.198,-0.182"
         id="path659" />
      <path
         inkscape:connector-curvature="0"
         style="fill:#fcdf00"
         d="m 380.458,134.693 0.033,-0.057 c 0.119,0.121 0.298,0.101 0.523,-0.066 0.015,-0.419 0.002,-0.834 -0.058,-1.243 -0.077,-0.551 -0.175,-1.104 -0.288,-1.645 l 0.008,-0.002 c 0.142,-0.049 0.283,-0.097 0.426,-0.146 0.03,-0.067 0.064,-0.124 0.105,-0.183 0.04,-0.07 0.091,-0.132 0.156,-0.179 0.069,-0.067 0.141,-0.125 0.212,-0.184 0.51,-0.149 1.014,-0.286 1.528,-0.427 l -0.001,-0.039 c 0.245,-0.057 0.484,-0.102 0.725,-0.14 1.826,-0.286 3.62,-0.137 5.406,0.449 0.254,0.086 0.473,0.218 0.649,0.413 0.888,0.988 1.711,2.06 2.456,3.202 l 0.21,-0.154 c 0.664,-1.616 0.797,-3.308 0.377,-5.082 -0.015,-0.353 -0.043,-0.714 -0.091,-1.078 -0.104,-0.504 -0.258,-0.976 -0.464,-1.432 -0.208,-0.457 -0.46,-0.901 -0.762,-1.312 -0.131,-0.168 -0.255,-0.308 -0.392,-0.425 -0.865,-0.829 -1.894,-1.293 -3.089,-1.393 -1.28,-0.105 -2.548,0.029 -3.79,0.407 1.242,-0.378 2.51,-0.512 3.79,-0.407 1.195,0.1 2.224,0.564 3.089,1.393 0.137,0.117 0.261,0.257 0.392,0.425 0.302,0.411 0.554,0.854 0.762,1.312 l 0.493,-0.212 0.276,0.021 c 0.057,-1.575 -0.101,-3.129 -0.473,-4.645 -0.06,-0.226 -0.117,-0.442 -0.185,-0.666 -0.718,-2.466 -2.304,-3.979 -4.751,-4.549 -1.932,-0.45 -3.815,-0.273 -5.647,0.537 -2.305,1.028 -3.66,2.841 -4.069,5.461 -0.067,0.405 -0.104,0.813 -0.104,1.21 0.01,1.982 -0.019,3.956 -0.077,5.928 -0.043,1.009 0.184,1.944 0.676,2.787 0.505,0.85 1.153,1.554 1.949,2.121"
         id="path661" />
      <path
         inkscape:connector-curvature="0"
         style="fill:#fcdf00"
         d="m 383.102,130.562 c 0.102,-0.019 0.209,-0.048 0.317,-0.077 0.135,-0.037 0.27,-0.074 0.408,-0.102 -0.242,0.037 -0.48,0.083 -0.725,0.14 v 0.039 z"
         id="path663" />
      <path
         inkscape:connector-curvature="0"
         style="fill:#fcdf00"
         d="m 391.339,117.163 c -0.089,0.102 -0.164,0.219 -0.228,0.343 0.041,0.23 0.117,0.443 0.237,0.642 0.55,0.914 1.001,1.857 1.362,2.823 0.113,-0.011 0.223,-0.032 0.329,-0.071 0.223,-0.07 0.447,-0.17 0.66,-0.277 0.033,-0.057 0.073,-0.127 0.106,-0.184 0.051,-0.062 0.091,-0.131 0.142,-0.194 0.033,-0.057 0.073,-0.126 0.105,-0.184 -0.022,-0.342 0.005,-0.678 0.073,-1.006 0.108,-0.544 0.199,-1.073 0.285,-1.589 -0.037,-0.068 -0.074,-0.136 -0.104,-0.214 -0.04,-0.076 -0.077,-0.144 -0.105,-0.214 0.034,-0.271 0.092,-0.528 0.17,-0.782 0.214,-0.726 0.042,-1.232 -0.507,-1.517 -0.177,0.02 -0.342,0.054 -0.493,0.106 -0.123,0.082 -0.244,0.172 -0.357,0.291 -0.497,0.494 -0.914,1.034 -1.258,1.631 -0.056,0.045 -0.103,0.086 -0.161,0.123 -0.007,0.011 -0.007,0.011 -0.004,0.02 -0.087,0.072 -0.169,0.163 -0.252,0.253"
         id="path665" />
      <path
         inkscape:connector-curvature="0"
         style="fill:#fcdf00"
         d="m 393.864,114.739 c -0.046,-0.026 -0.091,-0.053 -0.144,-0.067 -0.114,0.041 -0.235,0.093 -0.349,0.173 0.151,-0.051 0.317,-0.086 0.493,-0.106"
         id="path667" />
      <path
         inkscape:connector-curvature="0"
         style="fill:#fcdf00"
         d="m 379.864,155.123 c 0.061,0.158 0.138,0.301 0.236,0.42 -0.098,-0.119 -0.175,-0.262 -0.236,-0.42 l -0.252,-0.444 c 0.638,3.186 2.596,4.683 5.854,4.49 8.621,-2.436 11.329,-7.457 8.128,-15.055 -0.372,-0.934 -2.41,-2.188 -6.094,-3.755 -3.691,-1.557 -6.81,0.08 -9.365,4.914 0.141,2.403 1.118,3.839 2.941,4.309 -1.213,2.646 -1.612,4.498 -1.212,5.541"
         id="path669" />
      <path
         inkscape:connector-curvature="0"
         style="fill:none;stroke:#f2b800;stroke-width:1.5;stroke-linecap:round;stroke-linejoin:round;stroke-miterlimit:10"
         d="m 392.958,133.502 -0.409,0.79 M 390.7,117.008 c 0.508,-0.449 1.01,-0.925 1.497,-1.417 0.351,-0.356 0.738,-0.608 1.174,-0.747 0.151,-0.051 0.316,-0.085 0.493,-0.106 0.039,0 0.074,-0.011 0.122,-0.014 0.079,0.008 0.209,0.059 0.378,0.158 0.172,0.099 0.344,0.604 0.505,1.509 0.164,0.913 0.055,1.854 -0.334,2.831 -0.386,0.987 -0.995,1.861 -1.816,2.628 l 0.259,0.064 m -8.641,2.064 c 1.241,-0.378 2.509,-0.511 3.79,-0.406 1.194,0.099 2.223,0.563 3.089,1.392 0.136,0.117 0.26,0.257 0.391,0.425 0.302,0.411 0.555,0.855 0.762,1.312 0.206,0.456 0.36,0.928 0.464,1.432 0.049,0.364 0.076,0.725 0.092,1.078 0.419,1.774 0.288,3.466 -0.377,5.082 m -9.43,-3.416 -0.016,-0.316 -10e-4,-0.039 c 0.245,-0.057 0.484,-0.102 0.725,-0.139 1.826,-0.287 3.62,-0.138 5.406,0.448 0.254,0.086 0.473,0.219 0.65,0.413 0.887,0.988 1.71,2.06 2.455,3.202 0.021,0.043 0.051,0.083 0.081,0.123 m -12.317,20.974 c -0.098,-0.119 -0.175,-0.263 -0.236,-0.42 m -0.001,0 c -0.4,-1.043 -10e-4,-2.895 1.212,-5.541 -1.823,-0.47 -2.8,-1.906 -2.942,-4.309 2.556,-4.834 5.675,-6.472 9.366,-4.914 3.684,1.568 5.722,2.82 6.094,3.755 3.201,7.598 0.493,12.619 -8.128,15.055 -3.258,0.193 -5.216,-1.305 -5.854,-4.491 l 0.252,0.445 z m 12.665,-20.312 -0.111,-0.241 m 0,-0.001 0.13,-0.277 m 0.314,-7.804 0.276,0.021 c 0.057,-1.575 -0.101,-3.129 -0.472,-4.645 -0.06,-0.226 -0.117,-0.442 -0.186,-0.666 -0.718,-2.466 -2.304,-3.979 -4.75,-4.549 -1.932,-0.45 -3.816,-0.273 -5.648,0.537 -2.305,1.028 -3.659,2.841 -4.069,5.461 -0.067,0.405 -0.104,0.813 -0.104,1.21 0.01,1.982 -0.019,3.956 -0.077,5.928 -0.043,1.009 0.184,1.944 0.676,2.787 0.505,0.851 1.153,1.554 1.949,2.121 0.42,0.312 0.887,0.58 1.398,0.799"
         id="path671" />
      <path
         inkscape:connector-curvature="0"
         style="fill:#fcdf00"
         d="m 444.595,122.634 c 1.037,-1.512 3.065,-2.013 6.08,-1.522 2.921,0.479 6.516,1.862 10.77,4.134 1.217,0.649 2.284,2.109 3.21,4.383 0.837,2.059 1.701,5.135 2.58,9.244 1.108,5.22 3.212,16.522 6.31,33.902 1.409,7.28 1.309,13.612 -0.326,19.001 -1.476,4.893 -4.131,8.833 -7.967,11.817 -3.516,2.729 -7.781,4.499 -12.796,5.302 -4.734,0.766 -9.656,0.625 -14.772,-0.441 -5.085,-1.07 -9.719,-2.905 -13.898,-5.515 -4.408,-2.719 -7.816,-5.995 -10.227,-9.821 -2.638,-4.159 -3.873,-8.632 -3.713,-13.428 0.185,-5.303 2.074,-10.744 5.676,-16.313 7.932,-12.325 14.623,-22.032 20.084,-29.139 4.368,-5.343 7.358,-9.21 8.989,-11.604"
         id="path673" />
      <path
         inkscape:connector-curvature="0"
         style="fill:none;stroke:#f2b800;stroke-width:1.53100002;stroke-miterlimit:10"
         d="m 450.676,121.112 c 2.92,0.479 6.516,1.862 10.77,4.134 1.217,0.649 2.284,2.11 3.211,4.383 0.836,2.059 1.701,5.135 2.58,9.245 1.106,5.219 3.211,16.521 6.309,33.901 1.41,7.28 1.308,13.612 -0.326,19.002 -1.477,4.892 -4.131,8.832 -7.967,11.816 -3.516,2.728 -7.782,4.499 -12.796,5.302 -4.733,0.766 -9.656,0.625 -14.772,-0.441 -5.085,-1.07 -9.718,-2.905 -13.898,-5.515 -4.408,-2.719 -7.816,-5.995 -10.226,-9.821 -2.638,-4.159 -3.874,-8.632 -3.714,-13.428 0.185,-5.303 2.075,-10.745 5.676,-16.313 7.933,-12.325 14.624,-22.032 20.084,-29.14 4.369,-5.343 7.358,-9.209 8.989,-11.603 1.036,-1.512 3.064,-2.013 6.08,-1.522 l 0,0 z"
         id="path675" />
      <path
         inkscape:connector-curvature="0"
         style="fill:#f2b800"
         d="m 405.002,74.607 c 2.372,-5.48 5.798,-10.364 10.281,-14.669 4.463,-4.287 9.622,-7.636 15.486,-10.069 6.061,-2.514 12.435,-3.863 19.134,-4.038 6.698,-0.176 13.126,0.837 19.291,3.029 5.983,2.122 11.321,5.196 16.003,9.242 4.701,4.065 8.379,8.762 11.025,14.11 2.765,5.563 4.232,11.423 4.396,17.593 0.402,15.409 -4.186,27.15 -13.77,35.219 -8.368,7.17 -19.889,10.951 -34.57,11.336 -6.85,0.18 -13.243,-0.597 -19.177,-2.323 h -0.01 c -6.127,-1.795 -11.464,-4.511 -16.012,-8.136 -9.974,-7.916 -15.156,-19.087 -15.533,-33.496 -0.161,-6.169 0.988,-12.099 3.456,-17.798 m 11.331,-13.572 c -4.325,4.151 -7.643,8.88 -9.933,14.178 -2.38,5.499 -3.497,11.21 -3.341,17.153 0.365,13.916 5.347,24.696 14.956,32.357 4.412,3.506 9.577,6.121 15.512,7.866 5.793,1.681 12.034,2.435 18.714,2.259 14.275,-0.374 25.487,-4.034 33.635,-10.97 9.211,-7.805 13.621,-19.153 13.231,-34.033 -0.157,-5.943 -1.571,-11.588 -4.235,-16.955 -2.566,-5.17 -6.127,-9.718 -10.675,-13.636 -4.536,-3.927 -9.702,-6.921 -15.503,-8.972 -5.994,-2.13 -12.24,-3.111 -18.75,-2.939 -6.51,0.17 -12.707,1.477 -18.598,3.92 -5.679,2.351 -10.687,5.612 -15.013,9.772"
         id="path677" />
      <path
         inkscape:connector-curvature="0"
         style="fill:#fcdf00"
         d="m 406.399,75.212 c 2.291,-5.297 5.608,-10.027 9.933,-14.178 4.326,-4.159 9.336,-7.421 15.013,-9.772 5.891,-2.443 12.088,-3.75 18.598,-3.92 6.51,-0.172 12.756,0.809 18.75,2.939 5.801,2.051 10.967,5.046 15.503,8.972 4.548,3.918 8.108,8.466 10.675,13.637 2.664,5.366 4.078,11.011 4.235,16.954 0.39,14.88 -4.021,26.228 -13.231,34.033 -8.147,6.936 -19.359,10.596 -33.636,10.971 -6.679,0.176 -12.92,-0.578 -18.713,-2.26 -5.935,-1.745 -11.1,-4.36 -15.512,-7.866 -9.609,-7.661 -14.591,-18.441 -14.956,-32.357 -0.156,-5.943 0.962,-11.654 3.341,-17.153"
         id="path679" />
      <path
         inkscape:connector-curvature="0"
         style="fill:#e27c9f"
         d="m 473.291,81.238 c -2.654,-2.039 -5.507,-3.42 -8.581,-4.162 -2.978,-0.725 -5.825,-0.782 -8.53,-0.154 1.254,-0.836 2.578,-1.496 3.993,-1.957 2.035,-0.668 4.107,-0.922 6.222,-0.75 2.112,0.162 4.111,0.724 6.02,1.695 3.027,1.546 5.337,3.822 6.93,6.833 1.553,2.947 2.154,6.07 1.797,9.37 -0.66,-2.035 -1.646,-3.975 -2.953,-5.822 -1.345,-1.903 -2.979,-3.591 -4.898,-5.053"
         id="path681" />
      <path
         inkscape:connector-curvature="0"
         style="fill:#0077bf"
         d="m 464.711,77.076 c 3.072,0.742 5.927,2.124 8.58,4.162 1.92,1.463 3.553,3.15 4.897,5.053 1.306,1.847 2.293,3.787 2.952,5.822 -0.242,1.982 -0.779,3.821 -1.635,5.507 l -0.721,1.287 c -0.152,-2.53 -0.908,-4.998 -2.257,-7.411 -1.389,-2.507 -3.271,-4.678 -5.653,-6.507 -3.194,-2.46 -6.654,-3.891 -10.381,-4.285 -3.641,-0.396 -6.809,0.284 -9.514,2.028 1.27,-2.407 3.005,-4.344 5.199,-5.81 2.707,-0.628 5.554,-0.571 8.533,0.154"
         id="path683" />
      <path
         inkscape:connector-curvature="0"
         style="fill:#ffffff"
         d="m 450.98,82.731 c 2.705,-1.744 5.873,-2.423 9.514,-2.027 3.727,0.393 7.187,1.824 10.381,4.284 2.383,1.829 4.265,4 5.653,6.508 1.349,2.413 2.104,4.88 2.256,7.41 -1.008,1.604 -2.239,2.979 -3.711,4.143 -1.483,1.164 -3.123,2.039 -4.923,2.625 -2.034,0.668 -4.107,0.922 -6.2,0.749 -2.114,-0.162 -4.122,-0.733 -6.041,-1.713 -3.947,-2.014 -6.61,-5.14 -7.997,-9.377 -1.389,-4.246 -1.081,-8.358 0.923,-12.333 l 0.145,-0.269 z"
         id="path685" />
      <path
         inkscape:connector-curvature="0"
         style="fill:#e27c9f"
         d="m 428.389,82.424 c 2.544,-2.175 5.321,-3.705 8.351,-4.606 2.936,-0.881 5.775,-1.087 8.511,-0.602 -1.295,-0.77 -2.654,-1.358 -4.091,-1.746 -2.067,-0.56 -4.15,-0.704 -6.252,-0.421 -2.101,0.272 -4.069,0.938 -5.922,2.008 -2.943,1.703 -5.131,4.096 -6.562,7.187 -1.395,3.024 -1.832,6.175 -1.303,9.451 0.551,-2.066 1.435,-4.056 2.643,-5.969 1.243,-1.97 2.785,-3.741 4.625,-5.302"
         id="path687" />
      <path
         inkscape:connector-curvature="0"
         style="fill:#0077bf"
         d="m 436.74,77.818 c -3.03,0.902 -5.807,2.431 -8.351,4.606 -1.84,1.561 -3.382,3.332 -4.626,5.303 -1.207,1.912 -2.091,3.902 -2.642,5.969 0.345,1.967 0.978,3.774 1.92,5.414 l 0.789,1.246 c 0.019,-2.535 0.643,-5.038 1.864,-7.518 1.256,-2.577 3.021,-4.844 5.305,-6.795 3.061,-2.624 6.441,-4.235 10.142,-4.824 3.615,-0.586 6.814,-0.074 9.607,1.526 -1.395,-2.337 -3.23,-4.179 -5.497,-5.529 -2.736,-0.485 -5.575,-0.278 -8.511,0.602"
         id="path689" />
      <path
         inkscape:connector-curvature="0"
         style="fill:#ffffff"
         d="m 450.749,82.745 c -2.793,-1.6 -5.993,-2.112 -9.607,-1.526 -3.701,0.589 -7.081,2.2 -10.143,4.823 -2.283,1.952 -4.048,4.219 -5.305,6.796 -1.22,2.48 -1.844,4.983 -1.863,7.518 1.09,1.55 2.392,2.858 3.923,3.943 1.541,1.085 3.226,1.873 5.054,2.363 2.066,0.561 4.15,0.705 6.233,0.423 2.101,-0.273 4.077,-0.948 5.94,-2.028 3.837,-2.218 6.333,-5.479 7.496,-9.784 1.163,-4.312 0.64,-8.402 -1.57,-12.268 l -0.158,-0.26 z"
         id="path691" />
      <path
         inkscape:connector-curvature="0"
         style="fill:#1c1616"
         d="m 463.43,89.389 c 1.086,1.03 1.648,2.292 1.688,3.775 0.04,1.503 -0.457,2.783 -1.486,3.859 -1.033,1.086 -2.293,1.649 -3.776,1.687 -1.503,0.04 -2.782,-0.456 -3.859,-1.487 -1.085,-1.021 -1.647,-2.272 -1.687,-3.775 -0.039,-1.483 0.456,-2.772 1.486,-3.859 1.021,-1.085 2.273,-1.648 3.776,-1.687 1.483,-0.039 2.772,0.457 3.858,1.487"
         id="path693" />
      <path
         inkscape:connector-curvature="0"
         style="fill:#1c1616"
         d="m 438.675,90.016 c -1.03,1.086 -1.525,2.375 -1.486,3.858 0.038,1.502 0.601,2.755 1.687,3.776 1.086,1.031 2.375,1.527 3.859,1.488 1.502,-0.04 2.754,-0.602 3.774,-1.688 1.032,-1.077 1.527,-2.356 1.488,-3.859 -0.039,-1.483 -0.602,-2.744 -1.688,-3.775 -1.076,-1.031 -2.357,-1.528 -3.859,-1.488 -1.483,0.04 -2.745,0.602 -3.775,1.688"
         id="path695" />
      <path
         inkscape:connector-curvature="0"
         style="fill:#fcdf00"
         d="m 436.625,123.382 c -0.967,-1.167 -1.628,-2.449 -1.992,-3.838 -0.824,-3.22 -0.112,-5.336 2.136,-6.351 0.749,-0.345 1.734,-0.578 2.939,-0.707 0.663,-0.077 1.494,-0.148 2.503,-0.213 1.829,-0.216 4.778,-0.155 8.859,0.19 0.16,0.016 0.312,0.032 0.462,0.047 0.147,-0.024 0.298,-0.047 0.455,-0.07 4.057,-0.56 7,-0.775 8.838,-0.656 1.012,0.013 1.844,0.04 2.51,0.082 1.209,0.066 2.207,0.247 2.974,0.553 2.297,0.895 3.119,2.971 2.466,6.229 -0.291,1.406 -0.884,2.722 -1.788,3.938 -0.515,0.703 -1.323,1.67 -2.413,2.9 -1.168,1.508 -3.058,4.395 -5.65,8.659 -2.428,3.472 -4.64,5.116 -6.629,4.922 -0.019,0 -0.037,0.001 -0.065,-0.009 -0.027,0.011 -0.047,0.012 -0.064,0.012 -1.977,0.299 -4.272,-1.227 -6.879,-4.567 -2.812,-4.123 -4.851,-6.906 -6.096,-8.351 -1.157,-1.171 -2.014,-2.094 -2.566,-2.77"
         id="path697" />
      <path
         inkscape:connector-curvature="0"
         style="fill:none;stroke:#f2b800;stroke-width:1.53699994;stroke-miterlimit:10"
         d="m 436.625,123.382 c 0.552,0.676 1.409,1.599 2.563,2.77 1.245,1.445 3.284,4.228 6.096,8.351 2.607,3.34 4.903,4.866 6.879,4.567 0.018,0 0.037,-0.001 0.064,-0.012 0.028,0.01 0.047,0.009 0.065,0.009 1.989,0.194 4.201,-1.451 6.629,-4.922 2.593,-4.265 4.482,-7.151 5.65,-8.659 1.09,-1.23 1.898,-2.197 2.413,-2.9 0.904,-1.216 1.497,-2.532 1.788,-3.938 0.653,-3.258 -0.169,-5.334 -2.466,-6.23 -0.767,-0.305 -1.765,-0.486 -2.974,-0.552 -0.666,-0.042 -1.498,-0.069 -2.51,-0.082 -1.838,-0.119 -4.781,0.096 -8.838,0.656 -0.157,0.023 -0.308,0.046 -0.455,0.07 -0.15,-0.015 -0.303,-0.031 -0.462,-0.047 -4.081,-0.345 -7.03,-0.407 -8.859,-0.19 -1.009,0.065 -1.84,0.136 -2.503,0.213 -1.205,0.129 -2.19,0.362 -2.939,0.707 -2.248,1.015 -2.96,3.131 -2.136,6.351 0.367,1.389 1.028,2.671 1.995,3.838 z"
         id="path699" />
      <path
         inkscape:connector-curvature="0"
         style="fill:#d8272a"
         d="m 452.276,134.057 c -1.786,0.047 -3.382,-0.823 -4.794,-2.606 -1.415,-1.785 -3.8,-5.681 -7.159,-11.679 l 11.381,-0.393 11.367,-0.205 c -3.04,6.167 -5.254,10.2 -6.655,12.101 -1.293,1.745 -2.673,2.676 -4.14,2.782"
         id="path701" />
      <path
         inkscape:connector-curvature="0"
         style="fill:#e27c9f"
         d="m 449.868,124.442 c -0.726,-2.311 -1.058,-3.919 -1.006,-4.813 l 6.173,-0.162 c 0.021,0.866 -0.338,2.464 -1.09,4.797 -0.79,2.386 -1.328,3.633 -1.625,3.739 -0.817,0.262 -1.634,-0.931 -2.452,-3.561"
         id="path703" />
      <path
         inkscape:connector-curvature="0"
         style="fill:#fcdf00"
         d="m 434.178,119.151 c -1.655,-0.76 -2.455,-2.356 -2.395,-4.778 0.079,-2.422 0.989,-4.101 2.743,-5.027 0.885,-0.467 2.715,-1.328 5.49,-2.601 2.548,-1.268 4.352,-2.431 5.392,-3.507 1.639,-1.698 3.57,-2.647 5.807,-2.829 0.066,-0.001 0.123,-0.003 0.179,-0.005 0.028,-10e-4 0.048,-10e-4 0.066,-10e-4 l 0.001,0.009 c 2.241,0.055 4.219,0.892 5.945,2.51 1.096,1.021 2.959,2.087 5.568,3.22 2.837,1.126 4.711,1.89 5.62,2.311 1.799,0.831 2.796,2.459 3.001,4.875 0.188,2.415 -0.527,4.051 -2.141,4.896 -0.848,0.439 -2.137,0.709 -3.873,0.821 -1.028,0.065 -2.812,0.158 -5.344,0.292 -0.893,0.211 -2.258,0.758 -4.098,1.639 -1.362,0.65 -2.801,0.981 -4.322,1.002 -1.389,0.065 -2.794,-0.201 -4.199,-0.779 -1.883,-0.783 -3.276,-1.256 -4.18,-1.422 -2.532,0 -4.32,0 -5.35,-0.011 -1.738,-0.019 -3.038,-0.222 -3.91,-0.615 z"
         id="path705" />
      <path
         inkscape:connector-curvature="0"
         style="fill:none;stroke:#f2b800;stroke-width:1.51199996;stroke-miterlimit:10"
         d="m 431.783,114.374 c 0.078,-2.422 0.988,-4.102 2.743,-5.027 0.885,-0.467 2.715,-1.328 5.49,-2.601 2.548,-1.268 4.352,-2.431 5.392,-3.507 1.638,-1.698 3.57,-2.647 5.807,-2.829 0.065,-10e-4 0.123,-0.003 0.179,-0.005 0.029,-0.001 0.048,-0.001 0.065,-0.002 l 0.002,0.01 c 2.24,0.055 4.219,0.892 5.945,2.51 1.096,1.021 2.958,2.087 5.568,3.22 2.836,1.126 4.711,1.89 5.619,2.311 1.801,0.831 2.797,2.459 3.002,4.875 0.188,2.415 -0.526,4.051 -2.141,4.896 -0.848,0.439 -2.137,0.709 -3.873,0.821 -1.027,0.065 -2.812,0.158 -5.344,0.291 -0.893,0.212 -2.258,0.759 -4.098,1.64 -1.363,0.649 -2.801,0.98 -4.322,1.001 -1.389,0.065 -2.794,-0.2 -4.199,-0.778 -1.882,-0.783 -3.276,-1.257 -4.179,-1.422 -2.533,0 -4.321,0 -5.35,-0.011 -1.741,-0.02 -3.041,-0.223 -3.912,-0.616 -1.655,-0.759 -2.454,-2.357 -2.394,-4.777 z"
         id="path707" />
      <path
         inkscape:connector-curvature="0"
         style="fill:#f2b800"
         d="m 442.13,39.684 c -1.176,-0.177 -2.418,0.026 -3.718,0.599 1.889,0.291 3.639,2.145 5.251,5.563 0.332,0.711 0.744,1.323 1.231,1.831 -0.123,0.003 -0.246,0.006 -0.369,0.018 -0.831,0.06 -1.536,0.174 -2.128,0.33 -0.207,-0.325 -0.406,-0.669 -0.585,-1.034 -0.04,-0.074 -0.079,-0.149 -0.11,-0.224 -1.756,-3.49 -3.843,-5.543 -6.269,-6.15 2.825,-2.259 5.249,-3.202 7.282,-2.829 2.041,0.343 3.768,1.621 5.186,3.825 l 10e-4,0.029 c 0.208,0.381 0.398,0.746 0.577,1.071 0.094,-0.39 0.224,-0.772 0.376,-1.163 1.341,-3.665 1.406,-6.589 0.185,-8.769 3.559,0.502 5.905,1.622 7.037,3.341 1.063,1.608 1.361,3.567 0.892,5.877 0.637,-0.234 1.322,-0.403 2.059,-0.498 3.852,-0.585 6.436,-1.938 7.749,-4.052 1.271,3.351 1.435,5.938 0.47,7.769 -0.216,0.412 -0.472,0.787 -0.756,1.135 -0.788,0.938 -1.855,1.675 -3.204,2.202 -0.853,-0.101 -2.444,-0.191 -4.762,-0.263 l -10e-4,-0.019 -2.295,0.061 c 0.428,-0.248 0.941,-0.479 1.542,-0.684 0.61,-0.195 1.897,-0.466 3.862,-0.81 1.931,-0.363 3.258,-1.286 3.985,-2.771 0.529,-1.054 0.716,-2.288 0.563,-3.701 -0.854,1.695 -3.141,2.795 -6.871,3.281 -1.941,0.249 -3.422,1.139 -4.45,2.66 -0.518,0.779 -0.792,1.523 -0.82,2.233 -0.111,0.051 -0.205,0.1 -0.279,0.16 -0.304,-0.759 -0.339,-1.789 -0.119,-3.089 0.125,-0.628 0.509,-1.885 1.159,-3.784 0.612,-1.86 0.447,-3.472 -0.505,-4.828 -0.679,-0.965 -1.662,-1.724 -2.974,-2.285 1.073,1.57 0.932,4.107 -0.442,7.622 -0.718,1.825 -0.654,3.553 0.183,5.186 0.13,0.251 0.278,0.493 0.425,0.707 -0.197,0.015 -0.368,0.029 -0.528,0.052 -0.976,-0.089 -1.978,-0.818 -2.998,-2.2 -0.383,-0.529 -1.046,-1.674 -1.972,-3.437 -0.934,-1.743 -2.217,-2.731 -3.86,-2.962"
         id="path709" />
      <path
         inkscape:connector-curvature="0"
         style="fill:#fcdf00"
         d="m 438.413,40.283 c 1.3,-0.573 2.542,-0.776 3.718,-0.599 1.642,0.231 2.927,1.219 3.86,2.962 0.925,1.763 1.589,2.908 1.972,3.437 1.02,1.382 2.022,2.111 2.997,2.2 0.02,0 0.04,-0.001 0.058,-0.002 0.16,0.005 0.312,0.002 0.473,-0.012 0.009,-0.01 0.009,-0.01 0.019,-0.01 -0.01,-0.009 -0.011,-0.018 -0.02,-0.028 -0.147,-0.214 -0.296,-0.456 -0.427,-0.707 -0.836,-1.634 -0.9,-3.361 -0.183,-5.186 1.374,-3.515 1.515,-6.053 0.443,-7.622 1.311,0.561 2.295,1.319 2.972,2.285 0.953,1.356 1.117,2.968 0.506,4.827 -0.649,1.9 -1.034,3.157 -1.159,3.785 -0.221,1.3 -0.185,2.33 0.119,3.088 0.091,0.225 0.21,0.43 0.347,0.606 -0.011,-0.028 -0.011,-0.057 -0.021,-0.086 l -0.054,-0.612 c 0.008,-0.029 0.008,-0.048 0.006,-0.067 0.03,-0.71 0.304,-1.454 0.822,-2.234 1.028,-1.52 2.508,-2.41 4.449,-2.659 3.73,-0.486 6.018,-1.586 6.871,-3.281 0.15,1.413 -0.034,2.647 -0.562,3.701 -0.729,1.485 -2.057,2.408 -3.985,2.771 -1.966,0.344 -3.254,0.615 -3.864,0.81 -0.6,0.205 -1.113,0.436 -1.542,0.684 -0.614,0.366 -1.058,0.774 -1.328,1.235 -0.127,0.221 -0.216,0.46 -0.265,0.716 -0.009,0.048 -0.016,0.096 -0.024,0.143 l 0.011,0.046 c -0.039,-0.055 -0.079,-0.111 -0.119,-0.176 -0.098,-0.177 -0.188,-0.354 -0.259,-0.532 l -1.045,-0.18 c -0.049,-0.018 -0.097,-0.036 -0.144,-0.053 -0.574,-0.24 -1.077,-0.643 -1.508,-1.228 -0.944,1.131 -2.268,1.45 -3.973,0.965 -0.21,-0.061 -0.42,-0.131 -0.62,-0.211 -0.153,-0.062 -0.306,-0.133 -0.459,-0.205 -0.029,-0.009 -0.058,-0.027 -0.086,-0.035 l -0.548,-0.327 c -0.067,-0.044 -0.126,-0.091 -0.193,-0.136 -0.009,-0.01 -0.019,-0.01 -0.028,-0.018 -0.204,-0.156 -0.387,-0.312 -0.572,-0.487 -0.018,-0.018 -0.038,-0.036 -0.058,-0.065 -0.009,-0.009 -0.019,-0.008 -0.029,-0.018 -0.009,-0.008 -0.009,-0.018 -0.019,-0.027 -0.01,-0.009 -0.019,-0.019 -0.029,-0.028 -0.01,-0.009 -0.029,-0.028 -0.04,-0.036 -0.485,-0.508 -0.897,-1.121 -1.229,-1.831 -1.612,-3.418 -3.362,-5.272 -5.251,-5.563"
         id="path711" />
      <path
         inkscape:connector-curvature="0"
         style="fill:#f0e8ce"
         d="m 481.193,36.228 c -0.722,-2.824 -1.74,-4.923 -3.047,-6.306 -3.796,-4.067 -7.748,-7.22 -11.861,-9.468 -3.068,-1.65 -6.637,-2.872 -10.713,-3.667 -1.278,-0.249 -2.617,-0.443 -4.006,-0.589 -0.396,-0.044 -0.801,-0.087 -1.207,-0.131 h -0.029 c -0.068,-0.003 -0.136,-0.006 -0.203,-0.007 l -0.31,0.027 c -1.272,0.071 -2.505,0.19 -3.713,0.361 -3.649,0.518 -7.014,1.471 -10.104,2.862 -4.263,1.929 -8.432,4.8 -12.509,8.594 -1.402,1.286 -2.568,3.307 -3.5,6.073 -0.619,1.884 -1.303,4.746 -2.032,8.592 -0.263,1.395 -0.672,4.188 -1.239,8.389 -0.267,2.034 -0.358,2.961 -0.265,2.78 -0.047,0.211 -0.092,0.432 -0.129,0.654 3.774,-2.673 7.857,-4.725 12.236,-6.156 4.616,-1.539 9.356,-2.491 14.22,-2.87 2.478,-0.249 4.951,-0.354 7.437,-0.294 l 0.02,10e-4 c 2.989,0.117 5.939,0.455 8.854,0.994 4.616,0.864 9.069,2.214 13.35,4.061 3.978,1.741 7.635,3.973 10.963,6.717 -0.029,-0.224 -0.061,-0.438 -0.092,-0.652 0.08,0.186 0.065,-0.744 -0.064,-2.792 -0.266,-4.231 -0.475,-7.046 -0.626,-8.455 -0.472,-3.899 -0.947,-6.802 -1.431,-8.718"
         id="path713" />
      <path
         inkscape:connector-curvature="0"
         style="fill:#ce0e19"
         d="m 450.36,16.067 c 0.406,0.043 0.81,0.087 1.207,0.131 1.389,0.146 2.728,0.339 4.006,0.589 l 0.297,-1.53 c -0.006,-0.648 -0.229,-1.198 -0.676,-1.669 -0.438,-0.472 -0.973,-0.704 -1.603,-0.707 l -5.293,-0.074 c -0.647,-0.022 -1.198,0.19 -1.659,0.648 -0.452,0.458 -0.685,1.002 -0.697,1.621 l 0.163,1.371 c 1.208,-0.17 2.441,-0.29 3.713,-0.36 l 0.31,-0.028 c 0.067,0.002 0.135,0.005 0.203,0.008 h 0.029 z"
         id="path715" />
      <path
         inkscape:connector-curvature="0"
         style="fill:#ce0e19"
         d="m 450.24,45.073 -0.021,-10e-4 c -2.486,-0.06 -4.958,0.045 -7.436,0.294 -4.864,0.379 -9.604,1.332 -14.22,2.871 -4.38,1.431 -8.463,3.482 -12.237,6.155 -0.584,2.767 -0.899,5.06 -0.943,6.869 -0.061,1.955 0.504,3.756 1.713,5.407 1.191,1.64 2.777,2.491 4.759,2.562 1.093,0.039 2.818,-0.266 5.184,-0.908 0.362,-0.093 2.76,-0.811 7.215,-2.172 6.744,-2.062 11.863,-3.06 15.338,-2.994 l -0.003,0.068 c 3.47,0.192 8.494,1.543 15.094,4.076 4.336,1.665 6.677,2.563 7.031,2.682 2.305,0.808 4.002,1.237 5.094,1.276 1.983,0.072 3.638,-0.663 4.951,-2.214 1.306,-1.57 2.006,-3.326 2.086,-5.27 0.096,-1.807 -0.055,-4.117 -0.438,-6.929 -3.329,-2.744 -6.987,-4.976 -10.962,-6.716 -4.282,-1.848 -8.734,-3.198 -13.352,-4.061 -2.913,-0.54 -5.865,-0.878 -8.853,-0.995"
         id="path717" />
      <path
         inkscape:connector-curvature="0"
         style="fill:none;stroke:#ce0e19;stroke-width:0.77399999;stroke-linecap:round;stroke-linejoin:round;stroke-miterlimit:10"
         d="m 421.68,50.372 c 0.246,-1.173 0.51,-2.354 0.787,-3.554 0.891,-4.103 1.722,-7.578 2.513,-10.445 0.792,-2.887 1.636,-5.374 2.534,-7.462 1.541,-3.537 4,-6.238 7.387,-8.1 2.204,-1.239 4.497,-2.27 6.88,-3.095 m 35.594,34.507 c -0.179,-1.188 -0.35,-2.385 -0.528,-3.602 -0.597,-4.155 -1.187,-7.682 -1.769,-10.597 -0.563,-2.935 -1.238,-5.477 -2.002,-7.624 -1.275,-3.638 -3.525,-6.508 -6.771,-8.609 -2.109,-1.393 -4.322,-2.586 -6.64,-3.579"
         id="path719" />
      <path
         inkscape:connector-curvature="0"
         style="fill:none;stroke:#4a4646;stroke-width:1.54799998;stroke-linecap:round;stroke-linejoin:round;stroke-miterlimit:10"
         d="m 483.407,56.845 c -0.03,-0.224 -0.062,-0.438 -0.093,-0.652 0.081,0.186 0.064,-0.744 -0.064,-2.792 -0.265,-4.23 -0.474,-7.046 -0.627,-8.455 -0.47,-3.899 -0.947,-6.802 -1.431,-8.718 -0.721,-2.824 -1.739,-4.923 -3.046,-6.306 -3.795,-4.067 -7.749,-7.22 -11.861,-9.468 -3.068,-1.65 -6.637,-2.872 -10.713,-3.667 -1.278,-0.249 -2.616,-0.443 -4.007,-0.589 -0.396,-0.044 -0.8,-0.087 -1.206,-0.131 h -0.028 c -0.068,-0.003 -0.137,-0.006 -0.204,-0.007 l -0.31,0.027 c -1.272,0.071 -2.505,0.19 -3.713,0.361 -3.648,0.518 -7.014,1.471 -10.104,2.862 -4.263,1.929 -8.432,4.8 -12.508,8.594 -1.402,1.286 -2.569,3.307 -3.501,6.073 -0.619,1.884 -1.303,4.746 -2.032,8.592 -0.262,1.395 -0.672,4.188 -1.239,8.389 -0.266,2.034 -0.358,2.961 -0.265,2.78 -0.046,0.211 -0.092,0.432 -0.129,0.654 m 10e-4,0 c 3.774,-2.673 7.857,-4.725 12.236,-6.156 4.617,-1.539 9.356,-2.491 14.221,-2.87 2.479,-0.249 4.95,-0.354 7.436,-0.294 l 0.021,10e-4 c 2.987,0.117 5.939,0.455 8.854,0.994 4.615,0.864 9.07,2.214 13.352,4.061 3.975,1.741 7.633,3.973 10.962,6.717 m -67.082,-2.453 c -0.584,2.767 -0.899,5.06 -0.944,6.869 -0.06,1.954 0.505,3.756 1.714,5.407 1.191,1.64 2.777,2.491 4.759,2.562 1.093,0.039 2.818,-0.267 5.184,-0.909 0.362,-0.093 2.76,-0.81 7.214,-2.171 6.745,-2.063 11.864,-3.06 15.339,-2.995 l -0.003,0.069 c 3.47,0.192 8.495,1.543 15.095,4.075 4.336,1.666 6.675,2.563 7.028,2.682 2.307,0.809 4.004,1.238 5.097,1.277 1.983,0.072 3.636,-0.663 4.95,-2.214 1.306,-1.57 2.007,-3.327 2.087,-5.27 0.094,-1.807 -0.056,-4.117 -0.439,-6.929 M 455.854,15.664 c -0.005,-0.649 -0.228,-1.199 -0.676,-1.67 -0.438,-0.471 -0.972,-0.703 -1.602,-0.696 l -5.294,-0.084 c -0.648,-0.023 -1.198,0.189 -1.659,0.647 -0.452,0.459 -0.685,1.002 -0.698,1.621"
         id="path721" />
      <path
         inkscape:connector-curvature="0"
         style="fill:#ce0e19"
         d="m 460.648,29.111 -2.844,-1.942 -8.261,1.941 0.826,3.69 0.938,-0.218 1.429,6.345 -0.938,0.218 0.843,3.778 8.134,-1.917 1.836,-3.14 -0.885,-3.933 -0.736,-0.539 0.436,-0.808 -0.778,-3.475 z m -8.425,1.983 -0.929,0.219 -0.292,-1.28 6.318,-1.486 2.291,1.437 0.576,2.568 -0.832,1.345 1.324,0.86 0.635,2.831 -1.432,2.36 -6.317,1.488 -0.309,-1.367 0.928,-0.219 -1.961,-8.756 z"
         id="path723" />
      <path
         inkscape:connector-curvature="0"
         style="fill:#e60b11"
         d="m 451.295,31.312 0.928,-0.219 1.962,8.756 -0.929,0.219 0.31,1.367 6.317,-1.488 1.431,-2.36 -0.634,-2.83 -1.324,-0.861 0.832,-1.345 -0.576,-2.568 -2.292,-1.437 -6.317,1.486 0.292,1.28 z m 2.588,-0.614 3.162,-0.719 0.932,0.528 0.5,2.234 -0.604,0.918 -3.164,0.739 -0.826,-3.7 z m 5.721,7.042 -0.588,0.995 -3.173,0.719 -0.885,-3.933 3.182,-0.69 0.945,0.624 0.519,2.285 z"
         id="path725" />
      <path
         inkscape:connector-curvature="0"
         style="fill:#ce0e19"
         d="m 457.046,29.979 -3.163,0.72 0.826,3.699 3.163,-0.738 0.604,-0.918 -0.501,-2.235 -0.929,-0.528 z m -1.413,2.941 -0.293,-1.289 1.573,-0.369 0.292,1.288 -1.572,0.37 z"
         id="path727" />
      <path
         inkscape:connector-curvature="0"
         style="fill:#ce0e19"
         d="m 459.018,38.734 0.586,-0.995 -0.518,-2.284 -0.945,-0.625 -3.183,0.69 0.886,3.934 3.174,-0.72 z m -2.25,-0.757 -0.342,-1.523 1.572,-0.369 0.343,1.523 -1.573,0.369 z"
         id="path729" />
      <path
         inkscape:connector-curvature="0"
         style="fill:#ce0e19"
         d="m 449.874,25.549 -2.929,-2.003 -8.515,1.999 0.861,3.807 0.966,-0.217 1.461,6.53 -0.967,0.218 0.877,3.894 8.379,-1.975 1.897,-3.224 -0.92,-4.061 -0.744,-0.559 0.436,-0.837 -0.802,-3.572 z m -1.068,0.891 0.593,2.655 -0.853,1.393 1.361,0.882 0.652,2.918 -1.482,2.425 -6.503,1.53 -0.318,-1.396 0.966,-0.227 -2.028,-9.029 -0.967,0.226 -0.292,-1.317 6.503,-1.53 2.368,1.47 z"
         id="path731" />
      <path
         inkscape:connector-curvature="0"
         style="fill:#e60b11"
         d="m 449.399,29.095 -0.593,-2.655 -2.368,-1.469 -6.504,1.529 0.292,1.317 0.967,-0.226 2.029,9.029 -0.966,0.227 0.317,1.396 6.504,-1.529 1.481,-2.426 -0.65,-2.918 -1.363,-0.881 0.854,-1.394 z M 447.121,27 l 0.519,2.303 -0.625,0.927 -3.25,0.765 -0.863,-3.798 3.262,-0.744 0.957,0.547 z m -2.189,9.226 -0.911,-4.06 3.261,-0.726 0.993,0.646 0.525,2.362 -0.617,1.014 -3.251,0.764 z"
         id="path733" />
      <path
         inkscape:connector-curvature="0"
         style="fill:#ce0e19"
         d="M 447.639,29.303 447.121,27 l -0.959,-0.548 -3.261,0.745 0.863,3.797 3.25,-0.764 0.625,-0.927 z m -1.611,-1.529 0.292,1.327 -1.622,0.378 -0.291,-1.328 1.621,-0.377 z"
         id="path735" />
      <path
         inkscape:connector-curvature="0"
         style="fill:#ce0e19"
         d="m 444.021,32.166 0.91,4.06 3.252,-0.764 0.616,-1.014 -0.525,-2.362 -0.993,-0.646 -3.26,0.726 z m 1.497,0.944 1.621,-0.377 0.35,1.571 -1.621,0.378 -0.35,-1.572 z"
         id="path737" />
      <path
         inkscape:connector-curvature="0"
         style="fill:#fcdf00"
         d="m 437.244,130.33 c 0.276,-0.143 0.572,-0.258 0.887,-0.343 0.801,0.267 1.554,0.62 2.27,1.069 0.353,0.219 0.715,0.448 1.069,0.667 0.057,0.106 0.105,0.22 0.142,0.335 1.327,0.829 2.48,1.897 3.445,3.204 0.4,0.545 0.715,1.146 0.943,1.784 0,0.268 0.01,0.535 0.038,0.801 0.02,0.268 0.029,0.535 0.029,0.801 0,0.134 -0.019,0.269 -0.067,0.402 -0.086,0.134 -0.191,0.248 -0.314,0.334 -0.372,0.266 -0.754,0.514 -1.154,0.734 -0.182,0 -0.353,-0.018 -0.525,-0.048 -0.315,-0.057 -0.63,-0.133 -0.934,-0.219 l -0.01,-0.009 c -0.22,0.056 -0.439,0.095 -0.669,0.104 -0.305,0.029 -0.61,-0.009 -0.924,-0.095 -0.134,-0.134 -0.258,-0.277 -0.382,-0.419 -0.106,-0.125 -0.191,-0.248 -0.258,-0.392 -0.066,-0.123 -0.114,-0.258 -0.162,-0.392 -0.487,-0.047 -0.973,-0.104 -1.46,-0.19 -0.314,-0.048 -0.63,-0.124 -0.944,-0.21 -0.448,-0.467 -0.763,-1.012 -0.944,-1.631 -0.191,-0.678 -0.449,-1.335 -0.783,-1.966 0,-0.533 -0.028,-1.068 -0.076,-1.592 -0.076,-0.868 0.038,-1.67 0.343,-2.404 0.124,-0.134 0.277,-0.239 0.44,-0.325"
         id="path739" />
      <path
         inkscape:connector-curvature="0"
         style="fill:#fcdf00"
         d="m 456.885,139.708 c -0.057,-0.391 -0.086,-0.791 -0.086,-1.192 0.61,-0.754 1.146,-1.555 1.594,-2.403 0.267,-0.507 0.496,-1.042 0.678,-1.595 0.801,-0.801 1.602,-1.601 2.402,-2.393 0.268,-0.267 0.535,-0.535 0.803,-0.802 0.314,-0.047 0.62,-0.115 0.915,-0.201 0.01,0 0.01,-0.018 0.01,-0.066 0.392,0.076 0.754,0.2 1.097,0.372 0.039,-0.038 0.077,-0.076 0.105,-0.105 0.314,-0.047 0.62,-0.115 0.915,-0.201 0.01,0 0.021,-0.018 0.021,-0.066 0.4,0.22 0.781,0.468 1.153,0.735 0.124,0.086 0.229,0.2 0.313,0.334 0.011,1.078 -0.266,2.145 -0.81,3.186 -0.353,0.677 -0.706,1.345 -1.058,2.003 -0.135,0.134 -0.278,0.249 -0.44,0.334 -0.237,0.134 -0.495,0.248 -0.763,0.333 -0.143,-0.037 -0.276,-0.085 -0.419,-0.133 -0.41,0.601 -0.802,1.221 -1.175,1.87 -0.715,0.181 -1.383,0.448 -2.012,0.782 -0.354,0.191 -0.705,0.372 -1.059,0.544 -0.536,-0.048 -1.061,-0.133 -1.564,-0.266 -0.162,-0.039 -0.306,-0.125 -0.44,-0.259 -0.085,-0.268 -0.152,-0.535 -0.18,-0.811 l 0,0 z"
         id="path741" />
      <path
         inkscape:connector-curvature="0"
         style="fill:#fcdf00"
         d="m 451.153,148.206 0.479,0.832 c 0.292,2.054 0.82,4.101 1.577,6.158 l 0.512,0.608 c -5.215,4.922 -10.867,9.246 -16.972,12.965 -0.4,0.248 -0.81,0.488 -1.218,0.735 -7.679,4.603 -15.771,5.771 -24.276,3.526 -4.354,-1.155 -8.278,-2.951 -11.771,-5.409 -0.205,-0.139 -0.378,-0.329 -0.526,-0.559 l -0.983,-0.055 c -1.443,-1.308 -2.677,-2.794 -3.712,-4.456 -0.934,-1.511 -1.634,-3.137 -2.108,-4.865 -1.736,-5.634 -0.6,-10.568 3.41,-14.813 0.212,-0.226 0.427,-0.432 0.661,-0.632 l 1.403,-0.004 1.065,-0.832 c 3.254,-0.328 6.436,0.068 9.527,1.19 3.446,2.197 7.149,3.8 11.101,4.83 0.674,0.178 1.356,0.345 2.029,0.514 6.213,1.402 12.436,1.437 18.69,0.096 0.398,-0.086 0.787,-0.17 1.185,-0.265 l 8.448,-2.843 0.246,0.429 0.287,-0.062 c 0.818,0.79 1.133,1.755 0.946,2.912"
         id="path743" />
      <path
         inkscape:connector-curvature="0"
         style="fill:none;stroke:#f2b800;stroke-width:1.50600004;stroke-linecap:round;stroke-linejoin:round;stroke-miterlimit:10"
         d="m 449.675,144.927 -8.449,2.843 c -0.398,0.095 -0.787,0.179 -1.185,0.265 -6.254,1.341 -12.476,1.306 -18.69,-0.096 -0.672,-0.169 -1.354,-0.336 -2.028,-0.514 -3.953,-1.03 -7.656,-2.633 -11.101,-4.83 -3.09,-1.123 -6.273,-1.519 -9.527,-1.19 l -1.066,0.832 -1.402,0.004 c -0.234,0.2 -0.448,0.406 -0.661,0.632 -4.01,4.244 -5.147,9.179 -3.411,14.813 0.475,1.728 1.175,3.354 2.109,4.865 1.035,1.662 2.269,3.148 3.711,4.456 l 0.984,0.055 c 0.148,0.23 0.32,0.42 0.525,0.558 3.493,2.459 7.417,4.255 11.772,5.41 8.505,2.245 16.597,1.077 24.275,-3.526 0.408,-0.247 0.818,-0.488 1.218,-0.736 6.106,-3.718 11.757,-8.043 16.974,-12.965"
         id="path745" />
    </g>
  </g>
</svg>
