<?xml version="1.0" encoding="iso-8859-1"?>
<!-- Generator: Adobe Illustrator 16.0.4, SVG Export Plug-In . SVG Version: 6.00 Build 0)  -->
<!DOCTYPE svg PUBLIC "-//W3C//DTD SVG 1.1//EN" "http://www.w3.org/Graphics/SVG/1.1/DTD/svg11.dtd">
<svg version="1.1" id="&#x30EC;&#x30A4;&#x30E4;&#x30FC;_1"
	 xmlns="http://www.w3.org/2000/svg" xmlns:xlink="http://www.w3.org/1999/xlink" x="0px" y="0px" width="500px" height="500px"
	 viewBox="0 0 500 500" style="enable-background:new 0 0 500 500;" xml:space="preserve">
<g>
	<path style="fill:#F2F2F2;" d="M307.07,193.442c32.144-46.824,83.317-77.775,117.709-61.378
		c34.63,15.335,40.048,85.609,10.596,141.482c-28.879,54.568-86.006,64.063-122.65,42.554
		C276.475,293.673,275.34,240.852,307.07,193.442z"/>
	<path style="fill:none;stroke:#000000;stroke-width:4;stroke-miterlimit:10;" d="M307.07,193.442
		c32.144-46.824,83.317-77.775,117.709-61.378c34.63,15.335,40.048,85.609,10.596,141.482
		c-28.879,54.568-86.006,64.063-122.65,42.554C276.475,293.673,275.34,240.852,307.07,193.442z"/>
</g>
<g>
	<path style="fill:#F2F2F2;" d="M265.812,197.342c11.419,60.9-24.019,110.271-79.156,110.271c-55.135,0-90.573-49.37-79.154-110.271
		c11.419-60.9,46.858-110.271,79.154-110.271C218.954,87.071,254.393,136.441,265.812,197.342z"/>
	<path style="fill:none;stroke:#000000;stroke-width:4;stroke-miterlimit:10;" d="M265.812,197.342
		c11.419,60.9-24.019,110.271-79.156,110.271c-55.135,0-90.573-49.37-79.154-110.271c11.419-60.9,46.858-110.271,79.154-110.271
		C218.954,87.071,254.393,136.441,265.812,197.342z"/>
</g>
<g>
	<path style="fill:#F2F2F2;" d="M254.676,300.439c0,48.861-48.045,80.268-107.312,70.147
		c-59.267-10.12-107.312-41.526-107.312-70.147c0-28.62,48.046-60.027,107.312-70.146
		C206.631,220.173,254.676,251.579,254.676,300.439z"/>
	<path style="fill:none;stroke:#000000;stroke-width:4;stroke-miterlimit:10;" d="M254.676,300.439
		c0,48.861-48.045,80.268-107.312,70.147c-59.267-10.12-107.312-41.526-107.312-70.147c0-28.62,48.046-60.027,107.312-70.146
		C206.631,220.173,254.676,251.579,254.676,300.439z"/>
</g>
<g>
	<path style="fill:#F2F2F2;" d="M351.691,263.309c11.419,60.899-24.02,110.27-79.155,110.27c-55.135,0-90.573-49.37-79.154-110.27
		c11.419-60.901,46.857-110.271,79.154-110.271S340.272,202.407,351.691,263.309z"/>
	<path style="fill:none;stroke:#000000;stroke-width:4;stroke-miterlimit:10;" d="M351.691,263.309
		c11.419,60.899-24.02,110.27-79.155,110.27c-55.135,0-90.573-49.37-79.154-110.27c11.419-60.901,46.857-110.271,79.154-110.271
		S340.272,202.407,351.691,263.309z"/>
</g>
</svg>
