<?xml version="1.0" encoding="UTF-8" standalone="no"?>
<!-- Created with Inkscape (http://www.inkscape.org/) -->

<svg
   xmlns:dc="http://purl.org/dc/elements/1.1/"
   xmlns:cc="http://creativecommons.org/ns#"
   xmlns:rdf="http://www.w3.org/1999/02/22-rdf-syntax-ns#"
   xmlns:svg="http://www.w3.org/2000/svg"
   xmlns="http://www.w3.org/2000/svg"
   xmlns:sodipodi="http://sodipodi.sourceforge.net/DTD/sodipodi-0.dtd"
   xmlns:inkscape="http://www.inkscape.org/namespaces/inkscape"
   width="112.50067"
   height="238.36066"
   id="svg5696"
   version="1.1"
   inkscape:version="0.48.4 r9939"
   sodipodi:docname="oscar1.svg">
  <defs
     id="defs5698">
    <clipPath
       id="SVGID_2_">
      <rect
         height="88.862999"
         width="111.498"
         y="518.96198"
         x="382.04999"
         id="use1087" />
    </clipPath>
    <clipPath
       id="SVGID_4_">
      <rect
         height="41.314999"
         width="49.584999"
         y="525.19397"
         x="389.84698"
         id="use1111" />
    </clipPath>
  </defs>
  <sodipodi:namedview
     id="base"
     pagecolor="#ffffff"
     bordercolor="#666666"
     borderopacity="1.0"
     inkscape:pageopacity="0.0"
     inkscape:pageshadow="2"
     inkscape:zoom="0.77472527"
     inkscape:cx="89.776392"
     inkscape:cy="48.615932"
     inkscape:current-layer="layer1"
     inkscape:document-units="px"
     showgrid="false"
     inkscape:window-width="763"
     inkscape:window-height="591"
     inkscape:window-x="592"
     inkscape:window-y="97"
     inkscape:window-maximized="0"
     fit-margin-top="0"
     fit-margin-left="0"
     fit-margin-right="0"
     fit-margin-bottom="0" />
  <metadata
     id="metadata5701">
    <rdf:RDF>
      <cc:Work
         rdf:about="">
        <dc:format>image/svg+xml</dc:format>
        <dc:type
           rdf:resource="http://purl.org/dc/dcmitype/StillImage" />
        <dc:title></dc:title>
      </cc:Work>
    </rdf:RDF>
  </metadata>
  <g
     id="layer1"
     inkscape:label="Layer 1"
     inkscape:groupmode="layer"
     transform="translate(-228.1669,104.63835)">
    <g
       transform="translate(-71.332936,-114.2152)"
       id="g565">
      <path
         inkscape:connector-curvature="0"
         style="fill:#9fc94c"
         d="m 402.556,110.78 c 0.198,0 0.369,-0.077 0.492,-0.237 0.104,-0.133 0.153,-0.275 0.153,-0.426 0,-0.378 -0.218,-0.579 -0.643,-0.608 -0.427,-0.029 -0.645,0.161 -0.646,0.587 0,0.162 0.018,0.275 0.045,0.35 0.03,0.077 0.039,0.124 0.039,0.152 0.086,0.038 0.151,0.087 0.217,0.134 0.067,0.027 0.18,0.047 0.343,0.048"
         id="path567" />
      <path
         inkscape:connector-curvature="0"
         style="fill:#255f27"
         d="m 381.885,114.056 -0.019,-0.018 c -4.783,-8.101 -7.418,-18.814 -7.898,-32.129 l -31.365,3.975 c 3.222,13.821 2.907,25.423 -0.939,34.792 -0.009,0.009 -0.026,0.03 -0.033,0.06 -0.361,0.714 -0.69,1.454 -0.981,2.21 -2.347,5.718 -3.234,12.067 -2.664,19.05 0.784,9.588 4.071,17.546 9.868,23.881 5.723,6.268 12.243,9.109 19.565,8.52 7.302,-0.606 13.282,-4.473 17.922,-11.585 4.67,-7.194 6.62,-15.579 5.833,-25.167 -0.366,-4.488 -1.284,-8.617 -2.743,-12.387 -0.755,-1.915 -1.663,-3.697 -2.737,-5.33 -1.292,-1.96 -2.556,-3.921 -3.809,-5.872"
         id="path569" />
      <path
         inkscape:connector-curvature="0"
         style="fill:none;stroke:#255f27;stroke-width:1.51629996;stroke-linecap:round;stroke-linejoin:round;stroke-miterlimit:10"
         d="m 381.865,114.038 c -4.782,-8.102 -7.417,-18.813 -7.897,-32.129 l -31.365,3.975 c 3.223,13.821 2.907,25.422 -0.939,34.792 -0.009,0.01 -0.026,0.03 -0.033,0.06 -0.361,0.714 -0.69,1.454 -0.981,2.21 -2.347,5.718 -3.235,12.067 -2.664,19.05 0.785,9.588 4.07,17.546 9.868,23.881 5.724,6.268 12.243,9.109 19.565,8.52 7.302,-0.606 13.282,-4.473 17.921,-11.585 4.671,-7.194 6.62,-15.579 5.834,-25.167 -0.367,-4.488 -1.284,-8.617 -2.743,-12.387 -0.756,-1.915 -1.663,-3.697 -2.738,-5.33 -1.291,-1.958 -2.556,-3.92 -3.81,-5.871 l -0.018,-0.019 z"
         id="path571" />
      <path
         inkscape:connector-curvature="0"
         style="fill:#9fc94c"
         d="m 381.296,114.542 c -0.031,-0.036 -0.062,-0.071 -0.085,-0.117 -4.746,-8.029 -7.397,-18.578 -7.963,-31.658 l -29.718,3.764 c 3.066,13.644 2.675,25.127 -1.158,34.438 -0.025,0.03 -0.042,0.07 -0.057,0.109 -0.353,0.685 -0.675,1.405 -0.958,2.142 10e-4,0.009 10e-4,0.009 10e-4,0.019 -2.308,5.61 -3.177,11.844 -2.617,18.694 0.769,9.399 3.996,17.211 9.668,23.432 h 0.01 c 5.547,6.071 11.859,8.827 18.938,8.275 7.074,-0.608 12.855,-4.353 17.35,-11.235 l -10e-4,-0.009 c 4.578,-7.06 6.483,-15.292 5.713,-24.692 -0.361,-4.412 -1.252,-8.466 -2.688,-12.172 -0.735,-1.871 -1.626,-3.595 -2.67,-5.192 l 0,0.008 c -1.269,-1.94 -2.531,-3.882 -3.765,-5.806"
         id="path573" />
      <path
         inkscape:connector-curvature="0"
         style="fill:#255f27"
         d="m 344.421,106.986 c -0.214,0.04 -0.373,0.137 -0.492,0.317 -2.956,4.183 -6.121,7.82 -9.481,10.931 l 0.01,-10e-4 c -4.275,3.904 -6.649,8.64 -7.14,14.196 l 0.001,0.01 c -0.033,0.396 -0.054,0.792 -0.049,1.183 0,0.211 0.072,0.392 0.226,0.533 0.144,0.143 0.318,0.225 0.528,0.225 0.211,0 0.392,-0.072 0.534,-0.217 0.152,-0.146 0.232,-0.329 0.232,-0.538 0,-0.354 0.008,-0.709 0.036,-1.066 l 0,0.008 c 0.469,-5.169 2.685,-9.578 6.652,-13.22 3.141,-2.898 5.547,-5.514 7.227,-7.848 1.114,-1.56 1.851,-2.606 2.218,-3.135 0.287,-0.422 0.479,-0.84 0.583,-1.256 -0.218,0.154 -0.418,0.154 -0.601,0.006 -0.055,-0.04 -0.106,-0.072 -0.159,-0.103 -0.106,-0.036 -0.214,-0.05 -0.325,-0.025"
         id="path575" />
      <path
         inkscape:connector-curvature="0"
         style="fill:#9fc94c"
         d="m 345.863,107.113 -0.354,-0.008 c -0.104,0.416 -0.296,0.833 -0.583,1.256 -0.368,0.529 -1.105,1.576 -2.22,3.135 -1.679,2.334 -4.084,4.95 -7.226,7.848 -3.967,3.643 -6.183,8.051 -6.652,13.22 l 0,-0.008 c -0.027,0.358 -0.035,0.711 -0.035,1.066 l 25.991,0.042 c -0.005,-0.181 0.049,-0.341 0.174,-0.483 2.056,-2.509 3.572,-4.496 4.545,-5.978 0.584,-0.903 1.101,-1.805 1.549,-2.718 l 0.017,-0.031 c 0.065,-0.143 0.142,-0.288 0.209,-0.43 l 2.485,-3.631 c 0.034,0.043 0.051,0.098 0.05,0.155 0.066,1.254 -0.226,2.471 -0.886,3.651 3.999,0.361 6.669,-1.43 8.013,-5.373 -0.027,-0.131 -0.064,-0.259 -0.09,-0.38 -0.285,-1.023 -0.802,-2.146 -1.544,-3.375 l -3.411,-4.583 c 0.214,0.104 0.421,0.21 0.637,0.324 1.441,0.75 2.68,1.757 3.726,3.038 0.824,1.063 1.462,2.295 1.911,3.688 0.034,-0.034 0.067,-0.067 0.111,-0.102 2.253,-2.116 3.292,-4.094 3.125,-5.938 -0.26,-1.83 -1.738,-3.548 -4.437,-5.159 -0.121,-0.05 -0.497,-0.275 -1.126,-0.677 -0.513,-0.331 -1.419,-0.867 -2.708,-1.618 0.007,-0.011 0.017,-0.012 0.028,-0.004 1.408,-0.05 2.752,0.196 4.031,0.739 0.001,0.008 0.001,0.008 0.012,0.007 0.072,0.038 0.152,0.065 0.233,0.102 3.288,-0.44 5.652,-0.842 7.104,-1.203 l 0.01,-0.003 c 0.379,-0.09 0.699,-0.268 0.978,-0.535 1.66,-1.643 1.641,-3.448 -0.072,-5.403 -0.626,-0.67 -1.386,-1.111 -2.278,-1.343 -4.17,-1.044 -8.266,-0.865 -12.272,0.545 -3.878,1.354 -7.107,3.69 -9.676,6.998 -2.403,3.113 -4.649,6.337 -6.725,9.683 -0.267,0.428 -0.543,0.849 -0.82,1.27 l -0.01,0.002 c -0.867,1.275 -1.814,2.457 -2.841,3.554 -1.9,1.972 -3.645,3.196 -5.225,3.671 l 4.043,-4.628 c 0.993,-1.064 1.924,-2.215 2.778,-3.451 l 0,-0.009 c 0.102,-0.157 0.207,-0.306 0.311,-0.455 -0.258,-0.691 -0.551,-1.513 -0.891,-2.45 -0.225,-0.667 -0.289,-1.547 -0.188,-2.633 l 0.199,-1.385 z"
         id="path577" />
      <path
         inkscape:connector-curvature="0"
         style="fill:#255f27"
         d="m 346.742,113.583 c -0.104,0.149 -0.208,0.297 -0.311,0.455 l 0,0.009 c -0.854,1.236 -1.785,2.387 -2.778,3.451 l -4.043,4.628 c 1.58,-0.475 3.325,-1.699 5.225,-3.672 1.026,-1.097 1.974,-2.278 2.841,-3.554 l 0.01,-0.001 c 0.277,-0.421 0.554,-0.841 0.82,-1.27 2.076,-3.346 4.322,-6.571 6.725,-9.683 2.569,-3.307 5.798,-5.644 9.676,-6.998 4.005,-1.41 8.102,-1.589 12.272,-0.545 0.892,0.232 1.652,0.673 2.278,1.342 1.712,1.956 1.731,3.761 0.072,5.404 -0.278,0.268 -0.598,0.445 -0.978,0.536 l -0.01,0.002 c -1.452,0.361 -3.816,0.761 -7.104,1.202 -0.081,-0.035 -0.162,-0.063 -0.233,-0.101 -0.011,0.001 -0.011,0.001 -0.012,-0.008 -1.279,-0.543 -2.623,-0.788 -4.031,-0.739 -0.011,-0.008 -0.021,-0.007 -0.028,0.004 1.289,0.751 2.195,1.288 2.708,1.618 0.629,0.402 1.005,0.627 1.126,0.678 2.699,1.61 4.177,3.33 4.438,5.159 0.166,1.842 -0.873,3.821 -3.126,5.937 -0.043,0.036 -0.077,0.068 -0.111,0.102 -0.449,-1.393 -1.087,-2.624 -1.911,-3.688 -1.046,-1.282 -2.285,-2.288 -3.726,-3.039 -0.216,-0.112 -0.423,-0.219 -0.637,-0.323 l 3.411,4.583 c 0.742,1.228 1.26,2.352 1.544,3.375 0.025,0.121 0.063,0.25 0.09,0.38 -1.344,3.943 -4.015,5.734 -8.014,5.373 0.66,-1.181 0.953,-2.397 0.886,-3.651 0.001,-0.058 -0.016,-0.112 -0.05,-0.155 l -2.485,3.631 c -0.067,0.143 -0.144,0.287 -0.209,0.43 l -0.017,0.032 c -0.448,0.912 -0.965,1.815 -1.549,2.717 -0.973,1.481 -2.489,3.47 -4.545,5.979 -0.125,0.142 -0.179,0.302 -0.174,0.482 -0.006,0.021 -0.003,0.049 0.001,0.076 0.02,0.208 0.119,0.376 0.28,0.509 0.162,0.139 0.342,0.192 0.55,0.172 0.207,-0.018 0.377,-0.109 0.518,-0.271 2.106,-2.565 3.653,-4.604 4.641,-6.117 0.512,-0.797 0.977,-1.598 1.395,-2.391 5.136,0.701 8.53,-1.398 10.2,-6.313 0.329,-0.247 0.648,-0.51 0.953,-0.792 2.711,-2.551 3.912,-4.963 3.591,-7.226 -0.185,-1.838 -1.347,-3.555 -3.491,-5.164 2.455,-0.365 4.285,-0.693 5.498,-0.993 0.638,-0.154 1.189,-0.459 1.661,-0.917 l 0.01,-0.001 c 2.383,-2.288 2.385,-4.783 0.016,-7.489 -0.011,-0.01 -0.011,-0.01 -0.012,-0.019 -0.839,-0.889 -1.849,-1.487 -3.04,-1.792 -4.475,-1.118 -8.858,-0.928 -13.147,0.579 -4.162,1.451 -7.616,3.951 -10.371,7.504 -2.438,3.155 -4.705,6.421 -6.813,9.811 -0.167,0.25 -0.324,0.501 -0.48,0.752"
         id="path579" />
      <path
         inkscape:connector-curvature="0"
         style="fill:#255f27"
         d="m 402.758,101.092 0.01,0.008 c 2.53,1.776 4.421,4.07 5.679,6.882 l 0.008,0 c 0.888,1.943 1.48,4.024 1.772,6.231 0.547,3.991 0.215,7.91 -0.991,11.747 -0.54,1.709 -1.252,3.347 -2.121,4.9 l 0.008,-0.012 c -0.315,0.551 -0.642,1.094 -1,1.629 -0.149,0.232 -0.309,0.464 -0.469,0.696 -0.12,0.169 -0.17,0.358 -0.133,0.563 0.038,0.206 0.137,0.373 0.317,0.492 0.169,0.121 0.357,0.162 0.562,0.124 0.204,-0.036 0.374,-0.136 0.493,-0.306 0.551,-0.793 1.071,-1.61 1.55,-2.441 l -0.002,-0.009 c 0.923,-1.646 1.672,-3.375 2.245,-5.186 1.272,-4.047 1.622,-8.188 1.045,-12.404 -0.314,-2.356 -0.953,-4.575 -1.897,-6.654 l 10e-4,0.009 c -1.365,-3.055 -3.43,-5.555 -6.194,-7.501 l 0.009,0 c -0.158,-0.112 -0.316,-0.223 -0.476,-0.336 l -0.225,-0.18 c -0.011,-0.007 -0.021,-0.015 -0.032,-0.023 -1.552,-1.137 -3.135,-2.145 -4.738,-3.033 -3.054,-1.695 -5.918,-2.767 -8.589,-3.213 -2.908,-0.49 -5.214,0.409 -6.907,2.706 -1.75,2.374 -1.714,4.655 0.106,6.844 1.42,1.708 3.385,3.064 5.907,4.087 -1.886,1.655 -3.014,3.473 -3.377,5.446 -1.461,-0.412 -3.643,-2.456 -6.55,-6.142 -0.129,-0.164 -0.304,-0.264 -0.508,-0.283 -0.205,-0.03 -0.39,0.024 -0.554,0.152 -0.163,0.127 -0.264,0.304 -0.283,0.507 -0.008,0.011 -0.006,0.029 -0.004,0.039 -0.021,0.193 0.031,0.369 0.158,0.523 3.243,4.118 5.778,6.362 7.602,6.752 -0.009,0.011 -0.005,0.03 -0.003,0.048 -0.002,0.048 -0.006,0.097 10e-4,0.144 l 10e-4,0.019 c -0.007,0.01 -0.007,0.01 0.002,0.019 -0.007,0.011 -0.005,0.029 -0.003,0.039 l 10e-4,0.009 c 0.029,0.982 0.207,2 0.555,3.071 l 0.01,0.008 c 0.4,1.236 1.112,2.249 2.14,3.045 0.014,0.237 0.035,0.473 0.067,0.707 0.089,0.648 0.326,1.256 0.701,1.827 0.717,1.106 2.031,2.054 3.947,2.844 0.994,0.409 2.031,0.726 3.112,0.931 l -0.009,0.002 c 0.324,0.061 0.627,0.114 0.909,0.143 1.411,0.313 2.496,-0.142 3.245,-1.382 0.069,-0.114 0.139,-0.238 0.198,-0.371 1.075,0.799 2.261,1.076 3.546,0.833 0.055,-0.027 0.109,-0.053 0.172,-0.081 -2.437,-1.301 -4.631,-2.943 -6.597,-4.931 0.285,1.166 0.854,2.179 1.699,3.048 -0.115,0.484 -0.376,0.883 -0.763,1.194 -0.094,0.081 -0.2,0.151 -0.295,0.223 l -2.809,-0.39 c -0.625,-0.173 -1.237,-0.376 -1.824,-0.621 l -0.01,10e-4 c -1.572,-0.646 -2.652,-1.406 -3.26,-2.289 l 0,0.01 c -0.251,-0.377 -0.403,-0.777 -0.461,-1.199 -0.041,-0.311 -0.064,-0.613 -0.075,-0.899 l -0.001,-0.009 c -0.004,-0.029 -0.006,-0.048 -0.01,-0.066 0.001,-0.135 0.004,-0.259 0.014,-0.385 0.111,-1.21 0.46,-2.3 1.053,-3.281 0.233,-0.597 0.518,-1.171 0.844,-1.713 0.603,-0.981 1.431,-2.051 2.487,-3.22 -3.293,1.725 -5.207,4.081 -5.762,7.083 -0.359,-0.448 -0.638,-0.955 -0.822,-1.531 -0.312,-0.954 -0.475,-1.859 -0.49,-2.728 -0.002,-0.017 -0.005,-0.036 -0.007,-0.055 -0.004,-0.239 0.011,-0.48 0.044,-0.724 l -0.003,-0.017 -10e-4,-0.011 0.008,-0.011 c 0.226,-2.191 1.532,-4.169 3.902,-5.937 l 3.974,-3.864 c -0.01,-0.008 -0.02,-0.008 -0.03,-0.015 -0.207,-0.048 -0.396,-0.024 -0.571,0.088 l -3.881,2.32 c -2.675,-0.954 -4.731,-2.278 -6.168,-3.984 -1.319,-1.589 -1.336,-3.241 -0.051,-4.966 1.332,-1.799 3.148,-2.507 5.431,-2.113 2.517,0.43 5.218,1.436 8.105,3.04 1.542,0.85 3.052,1.819 4.539,2.897 l 0.248,0.204 c 0.022,0.016 0.043,0.033 0.053,0.042 0.157,0.116 0.316,0.228 0.476,0.34"
         id="path581" />
      <path
         inkscape:connector-curvature="0"
         style="fill:#9fc94c"
         d="m 402.768,101.101 -0.01,-0.009 c -0.16,-0.112 -0.317,-0.223 -0.477,-0.336 -0.01,-0.007 -0.031,-0.025 -0.053,-0.041 l -0.248,-0.206 c -1.486,-1.077 -2.996,-2.046 -4.539,-2.896 -2.887,-1.604 -5.589,-2.611 -8.106,-3.04 -2.281,-0.395 -4.098,0.313 -5.43,2.112 -1.285,1.725 -1.268,3.378 0.05,4.967 1.438,1.705 3.495,3.029 6.169,3.983 l 3.881,-2.321 c 0.175,-0.11 0.364,-0.135 0.571,-0.087 0.011,0.008 0.02,0.007 0.03,0.014 l -3.974,3.865 c -2.37,1.768 -3.675,3.746 -3.902,5.939 l -0.008,0.009 0.001,0.011 0.003,0.017 c -0.034,0.244 -0.048,0.485 -0.045,0.724 0.002,0.019 0.005,0.038 0.008,0.057 0.015,0.868 0.177,1.774 0.489,2.726 0.184,0.576 0.464,1.083 0.822,1.532 0.555,-3.003 2.469,-5.359 5.761,-7.083 -1.055,1.167 -1.883,2.238 -2.485,3.219 -0.327,0.542 -0.612,1.116 -0.846,1.714 -0.592,0.98 -0.94,2.07 -1.052,3.281 -0.01,0.125 -0.013,0.249 -0.013,0.384 0.002,0.018 0.005,0.037 0.009,0.066 l 0,0.009 c 0.011,0.287 0.035,0.589 0.075,0.899 0.059,0.422 0.209,0.822 0.462,1.199 l 0,-0.009 c 0.608,0.882 1.688,1.643 3.259,2.289 l 0.009,-0.001 c 0.587,0.245 1.199,0.448 1.824,0.619 l 2.809,0.391 c 0.095,-0.071 0.201,-0.142 0.295,-0.222 0.387,-0.312 0.648,-0.711 0.764,-1.195 -0.846,-0.869 -1.415,-1.881 -1.699,-3.048 1.965,1.988 4.16,3.628 6.596,4.931 -0.063,0.027 -0.118,0.054 -0.172,0.081 -1.286,0.243 -2.472,-0.034 -3.546,-0.834 -0.06,0.133 -0.128,0.258 -0.198,0.372 -0.749,1.24 -1.833,1.695 -3.245,1.382 -0.282,-0.028 -0.585,-0.083 -0.909,-0.143 l 0.009,-0.002 c -1.081,-0.205 -2.118,-0.522 -3.112,-0.931 -1.916,-0.79 -3.23,-1.738 -3.947,-2.845 -0.375,-0.57 -0.611,-1.179 -0.7,-1.826 -0.032,-0.235 -0.055,-0.471 -0.068,-0.708 -1.028,-0.796 -1.74,-1.808 -2.14,-3.045 l -0.01,-0.007 c -0.348,-1.072 -0.526,-2.089 -0.555,-3.071 l -0.001,-0.009 c -10e-4,-0.01 -0.003,-0.029 0.005,-0.04 -0.011,-0.007 -0.011,-0.007 -0.003,-0.018 l -0.002,-0.019 c -0.006,-0.047 -0.003,-0.095 0,-0.143 -0.002,-0.019 -0.005,-0.039 0.003,-0.049 -1.823,-0.391 -4.358,-2.635 -7.602,-6.752 -0.126,-0.155 -0.179,-0.329 -0.157,-0.523 -1.446,-0.013 -1.669,0.601 -0.659,1.83 1.17,1.418 1.844,2.493 2.019,3.223 0.178,0.732 0.272,1.14 0.284,1.226 0.022,0.168 0.157,0.867 0.411,2.095 l 0.841,2.849 c 0.011,0.084 0.064,0.26 0.156,0.515 0.093,0.264 0.146,0.429 0.157,0.513 0.012,0.085 0.082,0.314 0.209,0.688 0.117,0.366 0.188,0.596 0.198,0.681 0.013,0.084 0.068,0.211 0.157,0.371 0.09,0.169 0.144,0.286 0.156,0.371 0.003,0.028 0.323,0.683 0.95,1.975 0.011,0.084 0.06,0.163 0.154,0.216 0.094,0.055 0.143,0.134 0.154,0.218 0.031,0.216 0.145,0.421 0.343,0.613 0.19,0.193 0.289,0.294 0.293,0.323 0.007,0.047 0.212,0.296 0.625,0.728 0.002,0.009 0.706,1.089 2.109,3.23 1.135,1.861 1.908,3.382 2.327,4.558 2.148,1.244 4.302,2.155 6.449,2.751 2.187,0.599 4.004,0.799 5.458,0.6 2.514,-1.12 3.945,-1.851 4.28,-2.193 0.134,-0.134 0.375,-0.34 0.727,-0.627 0.251,-0.196 0.552,-0.439 0.907,-0.707 0.357,-0.536 0.685,-1.079 1.001,-1.628 l -0.008,0.011 c 0.868,-1.554 1.581,-3.192 2.12,-4.9 1.206,-3.838 1.538,-7.758 0.991,-11.748 -0.292,-2.206 -0.885,-4.288 -1.771,-6.231 l -0.01,0.002 c -1.256,-2.816 -3.149,-5.111 -5.678,-6.886"
         id="path583" />
      <path
         inkscape:connector-curvature="0"
         style="fill:#5a6074"
         d="m 301.227,42.79 1.492,8.068 c 3.795,0.556 7.771,0.524 11.927,-0.099 3.655,-0.523 7.4,-0.856 11.231,-0.988 20.391,-2.259 43.101,-7.973 68.129,-17.142 l -2.822,-8.901 -89.957,19.062 z"
         id="path585" />
      <path
         inkscape:connector-curvature="0"
         style="fill:none;stroke:#737a91;stroke-width:1.51409996;stroke-linecap:round;stroke-linejoin:round;stroke-miterlimit:10"
         d="m 301.227,42.79 89.956,-19.062 2.822,8.901 c -25.028,9.169 -47.738,14.883 -68.129,17.142 -3.831,0.132 -7.576,0.465 -11.231,0.988 -4.156,0.624 -8.132,0.655 -11.927,0.099 l -1.491,-8.068 z"
         id="path587" />
      <path
         inkscape:connector-curvature="0"
         style="fill:#ffffff"
         d="m 373.071,38.493 c -2.444,0.067 -4.49,1.047 -6.125,2.945 -1.639,1.89 -2.387,4.14 -2.243,6.751 0.142,2.611 1.118,4.822 2.945,6.618 1.847,1.801 3.987,2.67 6.431,2.603 2.432,-0.075 4.466,-1.062 6.09,-2.969 1.638,-1.888 2.383,-4.148 2.24,-6.759 -0.142,-2.611 -1.117,-4.813 -2.939,-6.601 -1.828,-1.805 -3.97,-2.674 -6.399,-2.588"
         id="path589" />
      <path
         inkscape:connector-curvature="0"
         style="fill:#ffffff"
         d="m 342.894,46.584 c -1.767,1.917 -2.596,4.193 -2.499,6.815 0.104,2.609 1.124,4.801 3.054,6.585 1.939,1.783 4.219,2.621 6.837,2.515 2.602,-0.102 4.791,-1.132 6.564,-3.069 1.783,-1.929 2.624,-4.199 2.52,-6.809 -0.106,-2.619 -1.128,-4.821 -3.075,-6.592 -1.93,-1.783 -4.198,-2.614 -6.795,-2.493 -2.619,0.105 -4.819,1.128 -6.606,3.048"
         id="path591" />
      <path
         inkscape:connector-curvature="0"
         style="fill:#1f1a1a"
         d="m 374.184,46.775 c -0.845,-0.729 -1.797,-1.04 -2.864,-0.943 -1.074,0.099 -1.949,0.579 -2.629,1.441 -0.68,0.868 -0.957,1.858 -0.841,2.978 0.115,1.12 0.59,2.038 1.429,2.769 0.844,0.73 1.797,1.041 2.863,0.943 1.069,-0.097 1.936,-0.575 2.615,-1.438 0.683,-0.861 0.958,-1.851 0.842,-2.977 -0.109,-1.121 -0.578,-2.041 -1.415,-2.773"
         id="path593" />
      <path
         inkscape:connector-curvature="0"
         style="fill:#1f1a1a"
         d="m 351.955,51.677 c -0.705,-0.893 -1.615,-1.397 -2.734,-1.529 -1.126,-0.132 -2.13,0.152 -3.024,0.851 -0.893,0.705 -1.396,1.615 -1.529,2.733 -0.131,1.119 0.15,2.118 0.85,3.011 0.705,0.891 1.613,1.396 2.733,1.528 1.119,0.132 2.117,-0.15 3.01,-0.85 0.894,-0.698 1.398,-1.607 1.529,-2.733 0.139,-1.119 -0.137,-2.119 -0.835,-3.011"
         id="path595" />
      <path
         inkscape:connector-curvature="0"
         style="fill:#9fc94c"
         d="m 376.494,35.025 c -0.838,-0.386 -1.972,-1.016 -3.389,-1.883 -1.425,-0.856 -3.337,-1.857 -5.732,-2.992 -2.406,-1.141 -5.977,-1.69 -10.73,-1.641 0.392,-1.564 1.046,-2.801 1.957,-3.715 -3.098,0.149 -6.032,1.133 -8.794,2.938 -0.326,-0.691 -0.375,-1.657 -0.158,-2.912 -2.954,0.892 -5.28,2.977 -6.965,6.247 -4.359,-0.886 -8.86,-0.389 -13.503,1.482 1.564,0.438 3.006,1.098 4.322,1.987 -6.584,2.27 -11.274,5.901 -14.06,10.9 -1.153,2.486 -3.185,4.499 -6.104,6.03 0.859,0.661 2.034,1.031 3.512,1.121 -2.946,5.799 -5.531,9.208 -7.742,10.227 1.006,0.841 2.601,0.974 4.8,0.384 -0.5,1.501 -1.185,2.956 -2.053,4.375 -1.097,1.777 -2.48,3.482 -4.164,5.099 1.659,0.65 3.504,0.775 5.539,0.357 -0.282,0.787 -0.152,2.208 0.409,4.278 0.561,2.069 1.783,4.023 3.685,5.857 l 1.066,-2.844 c 3.607,5.73 9.167,9.696 16.68,11.919 l 0.18,-2.658 c 3.435,2.79 9.406,4.192 17.913,4.205 0.002,-0.734 0.145,-1.54 0.408,-2.409 3.621,1.659 7.449,2.324 11.473,1.99 0.19,-0.014 0.379,-0.035 0.569,-0.048 0.189,-0.022 0.377,-0.044 0.564,-0.067 0.428,-0.074 0.855,-0.158 1.279,-0.25 0.33,-0.083 0.657,-0.174 0.99,-0.287 0.309,-0.135 0.626,-0.273 0.944,-0.41 2.514,-1.181 4.743,-3.082 6.688,-5.703 l 0.695,1.49 c 3.271,-2.044 5.858,-4.825 7.759,-8.346 l 0.98,1.552 c 0.956,-1.234 1.901,-2.688 2.841,-4.354 0.714,-1.277 1.283,-2.602 1.698,-3.96 0.681,-2.226 0.969,-4.561 0.855,-7.009 -0.01,-0.221 -0.042,-0.542 -0.097,-0.965 l 1.667,1.295 c 0.868,-4.045 0.766,-7.637 -0.316,-10.791 1.267,-0.531 2.296,-1.471 3.072,-2.822 -1.169,-0.09 -2.402,-0.505 -3.715,-1.25 -0.474,-0.272 -0.978,-0.626 -1.527,-1.056 -0.996,-0.795 -2.124,-1.881 -3.379,-3.238 1.331,-0.409 2.143,-0.975 2.459,-1.691 -1.388,-0.38 -4.318,-2.809 -8.782,-7.287 1.103,-0.522 1.784,-1.116 2.053,-1.784 -1.187,0.009 -2.298,-0.123 -3.328,-0.409 -0.846,-0.248 -1.69,-0.565 -2.519,-0.952"
         id="path597" />
      <path
         inkscape:connector-curvature="0"
         style="fill:none;stroke:#255f27;stroke-width:1.50969994;stroke-linecap:square;stroke-miterlimit:10"
         d="m 373.104,33.142 c -1.427,-0.856 -3.337,-1.857 -5.731,-2.992 -2.406,-1.141 -5.977,-1.69 -10.731,-1.641 0.392,-1.564 1.046,-2.801 1.957,-3.715 -3.098,0.149 -6.032,1.133 -8.795,2.938 -0.325,-0.691 -0.373,-1.657 -0.156,-2.912 -2.954,0.891 -5.279,2.977 -6.966,6.247 -4.359,-0.887 -8.86,-0.389 -13.502,1.481 1.564,0.439 3.005,1.099 4.322,1.988 -6.585,2.27 -11.274,5.901 -14.061,10.9 -1.153,2.486 -3.184,4.499 -6.104,6.03 0.86,0.661 2.034,1.031 3.513,1.121 -2.948,5.799 -5.532,9.208 -7.743,10.227 1.006,0.841 2.602,0.974 4.8,0.384 -0.501,1.501 -1.186,2.956 -2.053,4.375 -1.097,1.777 -2.48,3.482 -4.164,5.099 1.659,0.649 3.504,0.775 5.538,0.357 -0.281,0.787 -0.152,2.208 0.409,4.278 0.562,2.069 1.785,4.023 3.686,5.856 l 1.066,-2.842 c 3.607,5.729 9.167,9.695 16.68,11.918 l 0.179,-2.658 c 3.435,2.79 9.406,4.192 17.914,4.206 0.002,-0.735 0.145,-1.541 0.408,-2.409 3.621,1.658 7.449,2.323 11.472,1.989 0.19,-0.013 0.379,-0.035 0.57,-0.047 0.189,-0.022 0.376,-0.044 0.564,-0.067 0.428,-0.074 0.854,-0.158 1.279,-0.25 0.33,-0.083 0.657,-0.174 0.991,-0.287 0.309,-0.136 0.625,-0.273 0.944,-0.41 2.514,-1.181 4.743,-3.082 6.688,-5.703 l 0.696,1.49 c 3.27,-2.044 5.857,-4.825 7.759,-8.346 l 0.979,1.553 c 0.956,-1.235 1.901,-2.689 2.839,-4.354 0.716,-1.277 1.284,-2.602 1.7,-3.96 0.681,-2.226 0.969,-4.561 0.855,-7.01 -0.01,-0.22 -0.042,-0.541 -0.097,-0.964 l 1.668,1.296 c 0.868,-4.048 0.765,-7.639 -0.316,-10.792 1.266,-0.531 2.295,-1.471 3.071,-2.822 -1.168,-0.089 -2.401,-0.505 -3.714,-1.25 -0.476,-0.272 -0.979,-0.626 -1.528,-1.056 -0.994,-0.795 -2.124,-1.881 -3.378,-3.238 1.331,-0.408 2.144,-0.975 2.459,-1.691 -1.388,-0.38 -4.318,-2.809 -8.782,-7.287 1.103,-0.522 1.784,-1.116 2.051,-1.784 -1.186,0.009 -2.297,-0.123 -3.326,-0.409 -0.847,-0.249 -1.689,-0.566 -2.52,-0.953 -0.838,-0.387 -1.973,-1.017 -3.39,-1.884 z"
         id="path599" />
      <path
         inkscape:connector-curvature="0"
         style="fill:#1f1a1a"
         d="m 383.639,61.217 c 1.792,-1.432 3.47,-3.182 5.039,-5.24 -14.791,12.847 -31.641,17.322 -50.556,13.415 2.219,0.953 4.678,1.633 7.376,2.043 14.481,1.953 27.195,-1.453 38.141,-10.218"
         id="path601" />
      <path
         inkscape:connector-curvature="0"
         style="fill:none;stroke:#1f1a1a;stroke-width:0.0088;stroke-linecap:round;stroke-linejoin:round;stroke-miterlimit:10"
         d="m 388.677,55.976 c -14.791,12.848 -31.641,17.322 -50.556,13.417 2.219,0.952 4.678,1.632 7.376,2.042 14.482,1.954 27.195,-1.453 38.141,-10.218 1.793,-1.432 3.471,-3.182 5.039,-5.241 z"
         id="path603" />
      <path
         inkscape:connector-curvature="0"
         style="fill:#ffffff"
         d="m 373.017,38.209 c -2.436,0.083 -4.469,1.07 -6.091,2.973 -1.622,1.893 -2.355,4.142 -2.198,6.744 0.157,2.605 1.144,4.803 2.975,6.585 1.852,1.785 3.992,2.639 6.428,2.557 2.426,-0.088 4.448,-1.085 6.059,-2.994 1.621,-1.894 2.353,-4.151 2.194,-6.755 -0.155,-2.604 -1.14,-4.793 -2.969,-6.566 -1.835,-1.788 -3.975,-2.641 -6.398,-2.544"
         id="path605" />
      <path
         inkscape:connector-curvature="0"
         style="fill:#ffffff"
         d="m 342.971,46.451 c -1.752,1.922 -2.567,4.197 -2.454,6.812 0.118,2.603 1.147,4.782 3.082,6.549 1.944,1.767 4.223,2.589 6.834,2.469 2.593,-0.117 4.771,-1.156 6.528,-3.097 1.768,-1.936 2.593,-4.204 2.475,-6.807 -0.122,-2.611 -1.154,-4.8 -3.105,-6.555 -1.934,-1.768 -4.202,-2.583 -6.791,-2.449 -2.612,0.121 -4.8,1.153 -6.569,3.078"
         id="path607" />
      <path
         inkscape:connector-curvature="0"
         style="fill:#1f1a1a"
         d="m 371.256,41.241 c -0.848,-0.722 -1.798,-1.026 -2.862,-0.923 -1.071,0.104 -1.94,0.587 -2.614,1.451 -0.672,0.87 -0.942,1.859 -0.822,2.975 0.121,1.116 0.601,2.029 1.441,2.754 0.847,0.722 1.798,1.027 2.861,0.923 1.064,-0.102 1.926,-0.583 2.601,-1.447 0.674,-0.864 0.945,-1.854 0.822,-2.975 -0.114,-1.119 -0.587,-2.033 -1.427,-2.758"
         id="path609" />
      <path
         inkscape:connector-curvature="0"
         style="fill:#1f1a1a"
         d="m 350.114,46.681 c -0.709,-0.887 -1.618,-1.385 -2.735,-1.51 -1.124,-0.125 -2.125,0.164 -3.011,0.865 -0.885,0.708 -1.385,1.618 -1.509,2.733 -0.125,1.117 0.164,2.113 0.864,2.999 0.708,0.887 1.617,1.384 2.734,1.51 1.117,0.125 2.11,-0.163 2.998,-0.865 0.885,-0.701 1.384,-1.611 1.51,-2.735 0.131,-1.117 -0.15,-2.112 -0.851,-2.997"
         id="path611" />
      <path
         inkscape:connector-curvature="0"
         style="fill:#c06513"
         d="m 389.789,43.235 c -0.511,-0.713 -1.095,-1.461 -1.765,-2.252 l -0.834,-0.973 0.632,0.049 c 0.457,-0.072 0.768,-0.367 0.94,-0.905 0.097,-0.315 -0.073,-0.784 -0.503,-1.416 -0.428,-0.624 -1.023,-1.274 -1.787,-1.952 -1.867,-1.641 -3.712,-2.634 -5.538,-2.978 l -0.08,0.032 c -1.641,-0.329 -3.113,-0.314 -4.441,0.039 -0.422,0.113 -0.799,0.257 -1.133,0.423 -0.236,0.128 -0.365,0.209 -0.388,0.242 0.225,-0.567 0.257,-1.081 0.092,-1.522 -0.333,-0.898 -1.489,-1.037 -3.468,-0.415 -3.061,1.007 -5.28,1.73 -6.658,2.169 -2.268,0.722 -4.081,1.2 -5.431,1.422 -0.058,10e-4 -0.122,0.012 -0.187,0.023 -1.118,0.134 -3.698,0.183 -7.739,0.149 -3.928,-0.036 -6.431,0.115 -7.511,0.453 -0.76,0.145 -1.371,0.379 -1.839,0.703 -0.93,0.646 -0.648,1.42 0.844,2.312 -1.015,0.116 -2.25,0.393 -3.712,0.847 -2.917,0.896 -5.331,2.134 -7.235,3.711 -2.113,1.749 -3.506,3.33 -4.176,4.735 -0.592,1.247 -0.507,1.989 0.264,2.225 0.579,0.184 1.25,0.13 2.023,-0.151 0.153,-0.056 0.286,-0.119 0.402,-0.167 -0.621,0.657 -1.216,1.396 -1.796,2.229 -1.402,2.024 -1.936,3.702 -1.611,5.034 l 0.072,0.026 0.133,0.369 c 0.138,0.292 0.348,0.551 0.617,0.772 0.848,0.721 2.151,0.985 3.906,0.776 1.756,-0.208 3.751,-0.68 5.995,-1.428 1.123,-0.372 2.066,-0.724 2.839,-1.064 l 0.492,-0.251 c -0.133,-2.19 0.492,-4.805 1.868,-7.832 1.376,-3.026 4.464,-4.623 9.256,-4.791 3.384,-0.375 6.69,-1.034 9.917,-1.966 1.744,-0.485 3.505,-0.925 5.284,-1.329 4.11,-0.976 7.84,-0.062 11.193,2.76 1.953,1.645 3.143,3.474 3.554,5.5 l 0.962,0.346 c 1.407,0.257 2.621,0.402 3.637,0.442 0.008,-0.002 0.008,-0.002 0.02,0.005 1.281,0.039 2.235,-0.045 2.839,-0.259 0.729,-0.255 1.354,-0.789 1.859,-1.617 0.437,-0.718 -0.16,-2.23 -1.808,-4.525"
         id="path613" />
      <path
         inkscape:connector-curvature="0"
         style="fill:#c06513"
         d="m 375.38,32.949 c -0.027,0.015 -0.032,0.035 -0.028,0.062 0.039,0.003 0.107,0.01 0.196,0.023 0.071,0.016 0.109,0.02 0.135,0.005 -0.098,-0.07 -0.198,-0.1 -0.303,-0.09"
         id="path615" />
      <path
         inkscape:connector-curvature="0"
         style="fill:#c06513"
         d="m 343.665,39.375 c 10e-4,-0.722 -0.272,-1.338 -0.813,-1.841 -0.539,-0.504 -1.203,-0.76 -1.971,-0.761 -0.768,-0.001 -1.431,0.253 -1.973,0.755 -0.542,0.501 -0.817,1.118 -0.818,1.839 -10e-4,0.72 0.273,1.337 0.813,1.84 0.541,0.503 1.204,0.761 1.971,0.762 0.768,10e-4 1.433,-0.254 1.973,-0.756 0.542,-0.502 0.817,-1.118 0.818,-1.838"
         id="path617" />
      <path
         inkscape:connector-curvature="0"
         style="fill:#c6cee3"
         d="m 351.645,10.725 c -0.596,-0.346 -1.335,-0.467 -2.207,-0.354 -0.455,0.057 -1.006,0.158 -1.639,0.323 -1.318,0.313 -2.54,0.472 -3.643,0.491 -0.342,0.005 -0.699,-0.004 -1.073,-0.01 -0.368,-0.016 -0.728,-0.044 -1.092,-0.082 -1.438,-0.193 -2.86,-0.116 -4.268,0.221 -0.987,0.232 -1.761,0.484 -2.318,0.746 -0.156,0.072 -0.31,0.154 -0.469,0.256 -0.371,0.26 -0.711,0.627 -1.021,1.106 -0.068,0.106 -0.128,0.211 -0.178,0.313 -0.3,0.592 -0.369,1.229 -0.229,1.917 0.618,4.07 1.417,7.865 2.396,11.393 0.173,0.807 0.598,1.425 1.3,1.871 0.672,0.443 1.407,0.584 2.214,0.411 0.806,-0.171 1.426,-0.597 1.875,-1.28 0.431,-0.678 0.561,-1.421 0.389,-2.228 -0.852,-2.415 -1.507,-5.444 -1.978,-9.084 -0.092,-0.691 -0.177,-1.394 -0.25,-2.12 0.073,0.726 0.157,1.429 0.25,2.12 1.981,-0.466 3.667,-0.724 5.048,-0.77 0.943,-0.034 1.886,-0.067 2.828,-0.1 0.57,-0.03 1.133,-0.056 1.705,-0.086 -0.572,0.03 -1.135,0.056 -1.705,0.086 l 1.854,9.207 c 0.147,0.715 0.512,1.292 1.08,1.714 0.063,0.052 0.136,0.101 0.217,0.146 0.543,0.371 1.136,0.533 1.781,0.482 0.145,-0.01 0.286,-0.029 0.435,-0.06 0.268,-0.064 0.527,-0.155 0.77,-0.27 0.25,-0.128 0.471,-0.288 0.673,-0.479 0.155,-0.151 0.296,-0.316 0.429,-0.511 0.428,-0.697 0.566,-1.443 0.392,-2.247 l -2.316,-11.102 c -0.224,-0.997 -0.643,-1.667 -1.25,-2.02"
         id="path619" />
      <path
         inkscape:connector-curvature="0"
         style="fill:none;stroke:#737a91;stroke-width:1.51409996;stroke-linecap:round;stroke-linejoin:round;stroke-miterlimit:10"
         d="m 339.706,16.736 c 0.47,3.64 1.125,6.668 1.977,9.084 0.172,0.807 0.042,1.547 -0.389,2.228 -0.45,0.683 -1.069,1.108 -1.875,1.28 -0.807,0.172 -1.542,0.032 -2.214,-0.412 -0.701,-0.445 -1.126,-1.064 -1.3,-1.871 -0.98,-3.528 -1.778,-7.323 -2.397,-11.394 -0.139,-0.688 -0.07,-1.324 0.23,-1.917 0.05,-0.102 0.11,-0.207 0.178,-0.314 0.31,-0.477 0.65,-0.847 1.021,-1.104 0.159,-0.103 0.313,-0.184 0.469,-0.256 0.557,-0.262 1.331,-0.514 2.317,-0.746 1.409,-0.339 2.83,-0.415 4.269,-0.222 0.364,0.038 0.724,0.066 1.092,0.083 0.374,0.004 0.73,0.015 1.072,0.009 1.103,-0.019 2.325,-0.178 3.643,-0.491 0.632,-0.164 1.184,-0.267 1.639,-0.323 0.872,-0.112 1.611,0.008 2.207,0.355 0.608,0.353 1.027,1.023 1.252,2.021 l 2.316,11.102 c 0.174,0.805 0.036,1.55 -0.392,2.247 -0.134,0.194 -0.274,0.36 -0.429,0.51 -0.202,0.192 -0.423,0.352 -0.673,0.48 -0.243,0.115 -0.502,0.206 -0.77,0.269 -0.149,0.032 -0.291,0.051 -0.435,0.061 -0.645,0.051 -1.237,-0.112 -1.781,-0.481 -0.082,-0.045 -0.154,-0.096 -0.217,-0.147 -0.568,-0.422 -0.934,-0.999 -1.081,-1.714 l -1.854,-9.206 m 10e-4,0 c -0.942,0.033 -1.885,0.066 -2.827,0.1 -1.381,0.045 -3.068,0.303 -5.049,0.77 m 9.581,-0.957 c -0.572,0.029 -1.134,0.056 -1.705,0.086 m -8.126,-1.249 c 0.073,0.726 0.157,1.428 0.25,2.119"
         id="path621" />
      <path
         inkscape:connector-curvature="0"
         style="fill:#b0b6d5"
         d="m 354.607,20.323 c -2.79,1.385 -6.192,2.43 -10.207,3.141 -6.733,0.604 -12.744,1.767 -18.027,3.464 -5.286,1.699 -10.171,3.376 -14.654,5.031 -4.49,1.656 -7.792,3.143 -9.913,4.462 -1.013,1.417 -1.53,2.934 -1.546,4.547 -0.005,0.591 0.058,1.171 0.185,1.745 0.13,0.612 0.289,1.228 0.476,1.834 0.341,1.132 0.519,2.28 0.539,3.462 0.164,1.269 0.504,2.187 1.015,2.763 7.989,-3.394 15.018,-6.062 21.095,-8.019 4.931,-1.591 8.471,-2.672 10.623,-3.234 1.615,-0.336 3.208,-0.756 4.772,-1.274 0.414,-0.143 0.822,-0.294 1.234,-0.437 1.819,-0.598 3.569,-1.119 5.242,-1.568 1.022,-0.243 2.046,-0.446 3.08,-0.612 1.763,-0.338 3.473,-0.828 5.152,-1.466 1.788,-0.639 3.602,-1.217 5.442,-1.731 2.023,-0.566 4.061,-1.01 6.122,-1.331 1.996,-0.343 3.989,-0.558 5.994,-0.646 1.095,-0.056 2.187,-0.082 3.287,-0.08 2.152,-0.023 4.311,0.081 6.472,0.302 2.076,0.233 4.159,0.495 6.25,0.783 2.125,0.299 4.236,0.632 6.346,0.983 0.146,0.029 0.288,0.049 0.433,0.079 0.24,-1.166 0.184,-2.328 -0.143,-3.484 -0.348,-1.19 -0.696,-2.391 -1.034,-3.583 -0.337,-1.191 -0.682,-2.374 -1.02,-3.566 -0.242,-0.846 -0.537,-1.667 -0.906,-2.47 -0.163,-0.348 -0.351,-0.669 -0.575,-0.951 -0.42,-0.562 -0.985,-0.837 -1.684,-0.841 -5.583,-0.851 -11.41,-1.163 -17.486,-0.915 -4.011,-0.388 -9.53,0.815 -16.564,3.612"
         id="path623" />
      <path
         inkscape:connector-curvature="0"
         style="fill:none;stroke:#737a91;stroke-width:1.51409996;stroke-linecap:round;stroke-linejoin:round;stroke-miterlimit:10"
         d="m 354.607,20.323 c 7.033,-2.797 12.552,-4 16.564,-3.612 6.076,-0.248 11.904,0.064 17.486,0.915 0.698,0.003 1.264,0.279 1.684,0.841 0.224,0.282 0.412,0.604 0.575,0.951 0.369,0.802 0.664,1.624 0.906,2.47 0.338,1.192 0.682,2.375 1.02,3.566 0.338,1.193 0.687,2.394 1.034,3.583 0.327,1.156 0.383,2.319 0.143,3.484 -0.146,-0.029 -0.288,-0.049 -0.433,-0.079 -2.11,-0.351 -4.221,-0.684 -6.346,-0.983 -2.091,-0.289 -4.175,-0.55 -6.25,-0.783 -2.161,-0.221 -4.32,-0.325 -6.472,-0.302 -1.101,-10e-4 -2.192,0.024 -3.287,0.08 -2.005,0.089 -3.998,0.303 -5.994,0.646 -2.061,0.32 -4.099,0.764 -6.122,1.331 -1.84,0.515 -3.655,1.093 -5.442,1.731 -1.679,0.638 -3.389,1.128 -5.152,1.466 -1.034,0.166 -2.058,0.369 -3.08,0.612 -1.672,0.449 -3.423,0.971 -5.242,1.568 -0.412,0.142 -0.82,0.293 -1.234,0.437 -1.564,0.518 -3.158,0.938 -4.772,1.274 -2.152,0.562 -5.692,1.643 -10.623,3.234 -6.077,1.957 -13.106,4.625 -21.095,8.019 -0.511,-0.577 -0.851,-1.494 -1.015,-2.763 -0.02,-1.183 -0.198,-2.331 -0.539,-3.462 -0.187,-0.606 -0.345,-1.222 -0.476,-1.834 -0.127,-0.573 -0.189,-1.154 -0.185,-1.745 0.016,-1.615 0.533,-3.13 1.546,-4.547 2.121,-1.319 5.422,-2.806 9.913,-4.462 4.483,-1.654 9.369,-3.332 14.654,-5.031 5.284,-1.698 11.294,-2.86 18.027,-3.464 4.016,-0.711 7.418,-1.756 10.207,-3.141 z"
         id="path625" />
      <path
         inkscape:connector-curvature="0"
         style="fill:#b0b6d5"
         d="m 352.605,159.732 c 0.384,-4.294 -1.215,-6.361 -4.808,-6.206 l -20.19,-0.021 c -2.891,-0.127 -4.703,0.952 -5.426,3.254 -0.161,0.596 -0.296,1.307 -0.401,2.142 -0.085,0.444 -0.162,1.277 -0.229,2.521 -0.185,3.971 -0.541,7.676 -1.076,11.125 -0.393,4.284 1.216,6.343 4.827,6.187 l 20.19,0.023 c 3.565,0.185 5.548,-1.879 5.943,-6.173 l 1.17,-12.852 z m -5.231,-1.562 c 0.484,0.143 0.672,0.656 0.586,1.557 l -1.172,12.852 c -0.077,0.881 -0.371,1.402 -0.873,1.552 l -20.192,-0.022 c -0.492,-0.144 -0.7,-0.655 -0.623,-1.555 l 1.19,-12.853 c 0.086,-0.909 0.39,-1.43 0.911,-1.553 l 20.173,0.022 z"
         id="path627" />
      <path
         inkscape:connector-curvature="0"
         style="fill:none;stroke:#737a91;stroke-width:1.51629996;stroke-linecap:round;stroke-linejoin:round;stroke-miterlimit:10"
         d="m 347.374,158.17 -20.172,-0.022 c -0.521,0.123 -0.825,0.645 -0.911,1.554 l -1.19,12.852 c -0.078,0.9 0.131,1.412 0.623,1.556 l 20.192,0.022 c 0.501,-0.15 0.796,-0.671 0.873,-1.553 l 1.171,-12.853 c 0.086,-0.9 -0.102,-1.412 -0.586,-1.556 z m 5.231,1.562 -1.17,12.852 c -0.395,4.294 -2.377,6.358 -5.943,6.173 l -20.189,-0.022 c -3.612,0.156 -5.221,-1.903 -4.828,-6.186 0.535,-3.451 0.89,-7.157 1.075,-11.127 0.068,-1.242 0.145,-2.076 0.23,-2.521 0.105,-0.834 0.239,-1.545 0.401,-2.142 0.723,-2.302 2.535,-3.381 5.426,-3.254 l 20.19,0.022 c 3.593,-0.157 5.192,1.911 4.808,6.205 z"
         id="path629" />
      <rect
         x="332.67599"
         y="147.51401"
         transform="matrix(-0.0012,1,-1,-0.0012,492.7426,-182.2764)"
         style="fill:#c6cee3"
         width="9.441"
         height="14.826"
         id="rect631" />
      <rect
         x="329.98499"
         y="150.20599"
         transform="matrix(1,0.0012,-0.0012,1,0.184,-0.3999)"
         style="fill:none;stroke:#737a91;stroke-width:1.51629996;stroke-linecap:round;stroke-linejoin:round;stroke-miterlimit:10"
         width="14.825"
         height="9.4420004"
         id="rect633" />
      <path
         inkscape:connector-curvature="0"
         style="fill:#b0b6d5"
         d="m 409.882,133.806 c -0.748,-0.655 -1.656,-0.978 -2.728,-0.979 l -2.825,-0.031 c -2.068,0.159 -4.237,0.261 -6.522,0.286 -1.167,0.018 -2.351,0.027 -3.565,0.025 -8.084,-0.154 -13.45,-0.273 -16.075,-0.342 l -23.452,-0.283 c -5.042,-0.111 -10.72,-0.05 -17.042,0.17 -1.441,0.046 -2.91,0.11 -4.417,0.174 -1.935,0.045 -3.708,0.044 -5.327,-0.005 l -2.636,-0.079 -0.379,-0.012 c -1.062,-10e-4 -1.981,0.322 -2.75,0.974 -0.522,0.465 -0.853,1.003 -1.016,1.601 -0.066,0.256 -0.105,0.729 -0.105,1.441 l -0.003,1.715 c -0.001,1.071 0.368,1.982 1.116,2.731 0.767,0.759 1.856,1.178 3.258,1.255 h 0.01 c 3.081,0.185 6.161,0.254 9.261,0.201 1.394,-0.026 3.867,-0.119 7.433,-0.294 4.729,-0.079 9.412,-0.074 14.047,0.017 l 19.119,0.022 c 2.902,0.164 5.802,0.158 8.703,-0.038 2.786,-0.024 5.575,-0.079 8.36,-0.142 2.854,-0.072 5.707,-0.049 8.56,0.057 1.138,0.029 2.275,0.06 3.413,0.089 0.218,0 0.446,0 0.664,0.011 0.568,0.019 1.214,0.039 1.934,0.059 l 0.046,0 h 0.18 c 1.072,0.001 1.981,-0.377 2.732,-1.135 0.76,-0.749 1.14,-1.658 1.141,-2.729 l 0.003,-2.341 c 0,-0.938 -0.38,-1.745 -1.138,-2.418"
         id="path635" />
      <path
         inkscape:connector-curvature="0"
         style="fill:#c6cee3"
         d="m 404.982,142.37 c -0.218,-0.011 -0.445,-0.011 -0.665,-0.011 -1.137,-0.029 -2.274,-0.06 -3.412,-0.089 -2.854,-0.106 -5.706,-0.129 -8.56,-0.057 -2.786,0.063 -5.574,0.117 -8.36,0.142 -2.901,0.196 -5.802,0.202 -8.701,0.038 l -19.12,-0.022 c -4.635,-0.091 -9.317,-0.096 -14.048,-0.017 -3.564,0.175 -6.038,0.269 -7.431,0.294 -3.1,0.054 -6.181,-0.016 -9.26,-0.201 0.103,0.968 0.187,2.058 0.242,3.261 l 0.053,3.688 c -0.001,0.124 -0.001,0.257 -0.011,0.389 -0.04,1.706 -0.061,3.336 -0.052,4.882 l 0.216,9.516 c 0.057,0.789 0.112,1.545 0.178,2.267 l 0.075,1.573 c 0.157,2.625 0.325,5.09 0.501,7.375 0.038,0.445 0.077,0.882 0.113,1.308 0.084,1.109 0.158,2.247 0.223,3.412 0.028,0.503 0.039,1.016 0.037,1.536 v 0.36 c -0.021,1.005 -0.07,2 -0.155,2.996 -0.029,0.294 -0.048,0.579 -0.077,0.854 v 0.057 c -0.104,0.842 -0.201,1.696 -0.288,2.54 -0.124,1.07 -0.211,2.142 -0.241,3.222 -0.009,0.134 -0.009,0.266 -0.009,0.397 -0.011,0.238 -0.001,0.475 0.018,0.712 0.01,0.256 0.037,0.512 0.075,0.768 0.197,1.176 0.491,2.342 0.868,3.489 0.179,0.578 0.389,1.167 0.642,1.745 0.151,0.35 0.52,1.868 1.114,4.552 0.245,0.862 0.311,1.658 0.196,2.388 -0.115,0.711 -0.399,1.355 -0.864,1.933 -0.267,0.34 -0.475,0.767 -0.627,1.269 -0.275,0.9 -0.382,2.076 -0.308,3.525 0.028,0.598 0.083,1.252 0.169,1.954 l 1.059,18.675 -0.004,2.702 c 0.228,0.027 0.455,0.066 0.673,0.114 0.683,0.172 1.365,0.352 2.038,0.553 0.711,0.029 1.412,0.049 2.123,0.079 0.597,0.067 1.204,0.106 1.801,0.116 0.056,0 0.115,0 0.171,0.009 0.664,0.011 1.327,0.012 2,0.003 0.606,-0.01 1.213,-0.029 1.82,-0.056 0.663,-0.026 1.318,-0.046 1.962,-0.054 0.615,-0.009 1.232,10e-4 1.838,0.031 0.598,0.029 1.185,0.048 1.763,0.049 0.692,-0.008 1.385,-0.027 2.096,-0.063 0.444,-0.028 0.89,-0.047 1.336,-0.075 1.506,-0.103 2.74,-0.29 3.697,-0.554 1.574,-0.444 3.544,-0.12 5.914,0.982 0.503,0.239 1.033,0.503 1.571,0.808 3.062,1.729 6.124,1.921 9.176,0.589 0.248,-0.104 0.503,-0.209 0.759,-0.293 2.931,-0.87 5.87,-1.644 8.837,-2.312 0.123,-0.038 0.235,-0.076 0.359,-0.114 0.352,-0.113 0.712,-0.208 1.062,-0.273 0.721,-0.142 1.44,-0.188 2.161,-0.14 0.218,0.021 0.446,0.057 0.663,0.115 0.721,0.143 1.432,0.381 2.142,0.695 0.445,0.143 0.9,0.238 1.365,0.305 1.961,0.362 3.023,0.553 3.184,0.582 1.29,0.19 2.313,0.286 3.061,0.287 1.243,0.002 2.532,-0.053 3.85,-0.156 0.804,-0.066 2.17,-0.197 4.075,-0.413 l 3.187,-0.1 0.003,-2.428 c -0.01,-0.301 -0.009,-0.605 -0.009,-0.899 0.048,-7.849 0.378,-15.81 0.994,-23.887 0.441,-4.264 0.681,-7.497 0.731,-9.697 0.022,-0.976 0.003,-1.753 -0.052,-2.322 -0.094,-0.976 -0.15,-1.792 -0.178,-2.445 -0.027,-0.578 -0.018,-1.024 0.011,-1.347 0.058,-0.511 0.201,-1.08 0.419,-1.707 0.076,-0.207 0.161,-0.426 0.248,-0.644 1.036,-2.188 1.634,-3.855 1.796,-5 0.059,-0.438 0.059,-0.798 -0.007,-1.083 -0.274,-1.07 -0.643,-1.924 -1.097,-2.541 -0.397,-0.522 -0.604,-1.716 -0.631,-3.594 -0.008,-0.407 10e-4,-0.833 0.012,-1.297 l 0.078,-2.294 0,-0.076 c -0.008,-9.563 0.334,-18.977 1.019,-28.247 0.096,-1.326 0.202,-2.853 0.328,-4.567 -0.723,-0.022 -1.367,-0.042 -1.935,-0.061"
         id="path637" />
      <polygon
         style="fill:#b0b6d5"
         points="325.075,132.73 324.914,132.73 325.292,132.742 "
         id="polygon639" />
      <path
         inkscape:connector-curvature="0"
         style="fill:#c6cee3"
         d="m 325.666,145.709 c -0.055,-1.204 -0.139,-2.294 -0.242,-3.262 h -0.011 c 0.103,1.052 0.188,2.095 0.243,3.128 10e-4,0.039 10e-4,0.087 0.01,0.134"
         id="path641" />
      <path
         inkscape:connector-curvature="0"
         style="fill:#b0b6d5"
         d="m 357.799,236.925 c -2.369,-1.102 -4.34,-1.427 -5.914,-0.982 -0.958,0.264 -2.191,0.452 -3.697,0.554 -0.447,0.027 -0.892,0.047 -1.337,0.075 -0.711,0.037 -1.403,0.055 -2.096,0.063 -0.578,-0.001 -1.166,-0.019 -1.763,-0.049 -0.607,-0.029 -1.223,-0.04 -1.838,-0.031 -0.645,0.009 -1.299,0.028 -1.962,0.054 -0.607,0.028 -1.214,0.046 -1.82,0.056 -0.672,0.008 -1.336,0.007 -2,-0.003 -0.057,-0.01 -0.115,-0.01 -0.171,-0.01 -0.597,-0.009 -1.203,-0.049 -1.801,-0.116 -0.71,-0.029 -1.411,-0.049 -2.123,-0.079 -0.369,0.008 -0.729,0.027 -1.089,0.037 -0.541,0.027 -1.081,0.046 -1.622,0.074 -0.142,0.009 -0.293,0.009 -0.446,0.018 -0.16,0.01 -0.322,0.01 -0.482,0.009 -1.527,0.748 -2.296,1.969 -2.299,3.676 l -0.004,2.938 c 0,1.07 0.33,1.981 1.002,2.73 0.691,0.76 1.525,1.14 2.482,1.141 l 74.165,0.086 c 0.977,0.001 1.791,-0.377 2.465,-1.135 0.685,-0.748 1.026,-1.658 1.026,-2.729 l 0.004,-2.938 c 0.001,-1.073 -0.338,-1.991 -1.021,-2.75 -0.614,-0.685 -1.345,-1.055 -2.206,-1.112 l -3.186,0.1 c -1.905,0.216 -3.269,0.347 -4.076,0.412 -1.317,0.103 -2.607,0.16 -3.849,0.157 -0.748,0 -1.773,-0.097 -3.062,-0.288 -0.162,-0.027 -1.223,-0.219 -3.184,-0.581 -0.464,-0.067 -0.919,-0.162 -1.365,-0.305 -0.71,-0.314 -1.421,-0.552 -2.141,-0.695 -0.218,-0.058 -0.446,-0.095 -0.664,-0.115 -0.721,-0.048 -1.44,-0.002 -2.16,0.14 -0.351,0.065 -0.712,0.161 -1.063,0.274 -0.122,0.038 -0.236,0.075 -0.359,0.114 -2.968,0.667 -5.908,1.442 -8.837,2.311 -0.257,0.084 -0.512,0.19 -0.759,0.293 -3.053,1.332 -6.115,1.14 -9.176,-0.589 -0.539,-0.302 -1.07,-0.567 -1.572,-0.805"
         id="path643" />
      <path
         inkscape:connector-curvature="0"
         style="fill:none;stroke:#737a91;stroke-width:1.51629996;stroke-linecap:round;stroke-linejoin:round;stroke-miterlimit:10"
         d="m 325.423,142.447 h -0.01 c -1.403,-0.077 -2.492,-0.496 -3.26,-1.255 -0.747,-0.749 -1.116,-1.658 -1.115,-2.731 l 0.003,-1.716 c 0,-0.71 0.038,-1.184 0.105,-1.438 0.162,-0.599 0.495,-1.137 1.016,-1.602 0.769,-0.652 1.688,-0.975 2.75,-0.974 l 0.379,0.011 2.635,0.079 c 1.62,0.049 3.393,0.051 5.327,0.006 1.507,-0.064 2.976,-0.13 4.417,-0.175 6.323,-0.22 12,-0.28 17.042,-0.17 l 23.452,0.283 c 2.626,0.068 7.991,0.19 16.077,0.342 1.213,0.001 2.397,-0.008 3.564,-0.025 2.285,-0.026 4.456,-0.128 6.522,-0.287 l 2.825,0.031 c 1.072,0.001 1.98,0.325 2.728,0.98 0.758,0.674 1.137,1.48 1.135,2.419 l -0.003,2.34 c 0,1.072 -0.379,1.981 -1.139,2.729 -0.75,0.758 -1.66,1.136 -2.731,1.135 h -0.18 -0.047 m 10e-4,0 c -0.721,-0.02 -1.366,-0.04 -1.934,-0.059 -0.218,-0.011 -0.445,-0.011 -0.665,-0.011 -1.137,-0.029 -2.274,-0.06 -3.412,-0.09 -2.853,-0.106 -5.707,-0.128 -8.56,-0.057 -2.786,0.064 -5.574,0.118 -8.36,0.143 -2.901,0.195 -5.801,0.201 -8.703,0.038 l -19.119,-0.022 c -4.635,-0.092 -9.317,-0.096 -14.047,-0.017 -3.565,0.175 -6.039,0.268 -7.432,0.295 -3.1,0.054 -6.18,-0.016 -9.261,-0.201 m 77.829,94.056 0.003,-2.427 c -0.01,-0.303 -0.009,-0.606 -0.009,-0.9 0.048,-7.849 0.379,-15.81 0.994,-23.887 0.44,-4.264 0.681,-7.497 0.732,-9.697 0.021,-0.976 0.003,-1.753 -0.053,-2.321 -0.094,-0.978 -0.15,-1.793 -0.178,-2.446 -0.026,-0.578 -0.018,-1.023 0.011,-1.346 0.058,-0.512 0.201,-1.08 0.419,-1.706 0.077,-0.209 0.161,-0.426 0.248,-0.645 1.035,-2.188 1.634,-3.855 1.796,-5.001 0.059,-0.437 0.059,-0.796 -0.007,-1.083 -0.274,-1.069 -0.643,-1.924 -1.097,-2.539 -0.396,-0.522 -0.604,-1.718 -0.631,-3.595 -0.008,-0.407 10e-4,-0.833 0.012,-1.298 l 0.078,-2.293 0,-0.077 c -0.008,-9.563 0.334,-18.977 1.019,-28.247 0.096,-1.327 0.203,-2.853 0.328,-4.568 m -81.842,-9.698 2.719,-0.015 m -2.371,9.732 c 0.104,0.967 0.188,2.058 0.243,3.262 l 0.053,3.687 c -10e-4,0.124 -10e-4,0.257 -0.011,0.389 -0.04,1.707 -0.061,3.337 -0.053,4.882 l 0.216,9.517 c 0.057,0.788 0.113,1.546 0.178,2.267 l 0.074,1.572 c 0.158,2.626 0.327,5.091 0.503,7.376 0.038,0.445 0.076,0.882 0.113,1.308 0.084,1.109 0.158,2.247 0.223,3.412 0.028,0.504 0.037,1.016 0.036,1.536 l 0,0.36 c -0.02,1.006 -0.068,2 -0.155,2.995 -0.028,0.294 -0.047,0.579 -0.076,0.854 v 0.058 c -0.105,0.842 -0.202,1.696 -0.288,2.539 -0.125,1.071 -0.211,2.143 -0.241,3.223 -0.01,0.134 -0.01,0.266 -0.01,0.397 -0.009,0.238 -0.001,0.475 0.019,0.712 0.009,0.255 0.038,0.512 0.074,0.768 0.199,1.176 0.492,2.342 0.868,3.49 0.181,0.579 0.389,1.167 0.643,1.744 0.152,0.351 0.52,1.869 1.113,4.553 0.246,0.862 0.312,1.658 0.197,2.388 -0.115,0.711 -0.4,1.355 -0.864,1.933 -0.267,0.342 -0.476,0.768 -0.627,1.27 -0.276,0.9 -0.382,2.076 -0.308,3.526 0.028,0.597 0.083,1.251 0.168,1.953 l 1.059,18.675 -0.004,2.702 m 74.686,0.709 -3.186,0.1 c -1.905,0.215 -3.271,0.347 -4.076,0.412 -1.318,0.103 -2.607,0.16 -3.849,0.157 -0.749,0 -1.773,-0.097 -3.062,-0.288 -0.161,-0.027 -1.222,-0.219 -3.185,-0.582 -0.463,-0.067 -0.919,-0.162 -1.364,-0.305 -0.71,-0.313 -1.421,-0.552 -2.142,-0.694 -0.217,-0.058 -0.446,-0.094 -0.663,-0.115 -0.721,-0.048 -1.44,-0.002 -2.16,0.14 -0.352,0.065 -0.712,0.161 -1.063,0.274 -0.123,0.038 -0.236,0.075 -0.359,0.114 -2.968,0.669 -5.908,1.443 -8.837,2.311 -0.257,0.084 -0.512,0.19 -0.759,0.293 -3.053,1.332 -6.116,1.14 -9.176,-0.589 -0.539,-0.305 -1.07,-0.57 -1.572,-0.808 -2.369,-1.102 -4.34,-1.427 -5.914,-0.982 -0.958,0.264 -2.191,0.452 -3.698,0.554 -0.446,0.027 -0.891,0.047 -1.336,0.075 -0.711,0.037 -1.403,0.055 -2.096,0.063 -0.578,0 -1.165,-0.019 -1.764,-0.049 -0.606,-0.029 -1.222,-0.04 -1.838,-0.031 -0.645,0.009 -1.299,0.028 -1.962,0.055 -0.607,0.026 -1.213,0.045 -1.82,0.055 -0.672,0.008 -1.337,0.007 -2,-0.003 -0.057,-0.008 -0.115,-0.008 -0.171,-0.008 -0.597,-0.011 -1.204,-0.05 -1.801,-0.117 -0.71,-0.029 -1.411,-0.049 -2.123,-0.078 -0.369,0.008 -0.73,0.026 -1.089,0.037 -0.542,0.027 -1.081,0.046 -1.623,0.074 -0.141,0.009 -0.293,0.009 -0.445,0.018 -0.161,0.011 -0.322,0.011 -0.483,0.01 -1.527,0.746 -2.295,1.967 -2.298,3.674 l -0.003,2.938 c -10e-4,1.07 0.329,1.982 1,2.732 0.691,0.758 1.525,1.139 2.483,1.14 l 74.165,0.086 c 0.976,0.001 1.792,-0.377 2.465,-1.134 0.685,-0.748 1.026,-1.659 1.026,-2.729 l 0.004,-2.938 c 10e-4,-1.071 -0.338,-1.991 -1.02,-2.75 -0.615,-0.683 -1.345,-1.054 -2.206,-1.112 z"
         id="path645" />
      <path
         inkscape:connector-curvature="0"
         style="fill:#b0b6d5"
         d="m 398.151,147.215 h -0.018 c -1.139,-0.03 -2.125,0.888 -2.962,2.744 -0.884,1.829 -1.351,4.048 -1.392,6.654 l -0.185,30.524 c -0.591,1.334 -0.99,2.878 -1.191,4.623 -0.097,0.777 -0.154,1.592 -0.164,2.445 -0.107,2.198 0.166,3.934 0.81,5.194 l -0.75,24.457 c -0.04,2.303 0.307,4.275 1.036,5.935 0.718,1.632 1.619,2.448 2.688,2.449 l 0.02,0 c 1.033,0.001 1.962,-0.812 2.771,-2.442 0.797,-1.658 1.226,-3.63 1.295,-5.933 l 0.356,-28.855 c -0.559,-0.445 -0.852,-1.527 -0.887,-3.243 -0.009,-0.237 -0.009,-0.482 0.001,-0.739 l 1.276,-6.273 1.152,-28.133 c 0.05,-2.606 -0.288,-4.826 -1.036,-6.656 -0.745,-1.858 -1.683,-2.779 -2.82,-2.751"
         id="path647" />
      <path
         inkscape:connector-curvature="0"
         style="fill:#b0b6d5"
         d="m 387.607,149.951 c -0.766,-1.859 -1.721,-2.779 -2.859,-2.752 h -0.019 c -1.137,-0.029 -2.115,0.888 -2.922,2.745 -0.836,1.829 -1.275,4.046 -1.316,6.652 l -0.385,37.481 -0.86,6.785 c -0.163,0.835 -0.032,2.266 0.412,4.304 l 0.035,18.674 c -0.042,2.304 0.318,4.276 1.075,5.935 0.718,1.631 1.618,2.448 2.708,2.449 h 0.019 c 1.023,0.001 1.944,-0.813 2.753,-2.443 0.768,-1.658 1.188,-3.629 1.257,-5.932 l -0.07,-22.277 c -0.642,-1.49 -0.867,-3.196 -0.675,-5.101 l 1.317,-7.354 0.625,-32.512 c 0.027,-2.605 -0.34,-4.824 -1.095,-6.654"
         id="path649" />
      <path
         inkscape:connector-curvature="0"
         style="fill:#b0b6d5"
         d="m 374.563,149.936 c -0.785,-1.859 -1.732,-2.78 -2.858,-2.751 h -0.019 c -1.138,-0.03 -2.115,0.888 -2.923,2.745 -0.836,1.83 -1.256,4.047 -1.259,6.653 l -0.341,48.475 0.831,3.925 c 0.199,0.902 0.111,2.645 -0.271,5.251 l -0.373,9.592 c -0.001,2.303 0.385,4.276 1.15,5.936 0.747,1.631 1.646,2.447 2.708,2.448 h 0.02 c 1.061,0.001 1.973,-0.814 2.734,-2.443 0.758,-1.658 1.15,-3.629 1.181,-5.932 l 0.59,-67.245 c 0.011,-2.605 -0.375,-4.823 -1.17,-6.654"
         id="path651" />
      <path
         inkscape:connector-curvature="0"
         style="fill:#b0b6d5"
         d="m 358.718,147.168 c -1.146,-0.03 -2.115,0.89 -2.903,2.746 -0.798,1.828 -1.181,4.047 -1.146,6.653 l 0.522,7.68 -0.343,2.463 0.678,36.249 0.622,3.566 c 0.443,1.601 0.127,3.961 -0.937,7.069 l -0.051,10.218 c -0.011,2.304 0.375,4.276 1.169,5.936 0.756,1.633 1.675,2.447 2.747,2.449 h 0.018 c 1.053,0.001 1.954,-0.812 2.714,-2.442 0.761,-1.657 1.143,-3.629 1.145,-5.933 l 0.184,-11.033 0.439,-3.658 -0.679,-2.522 -0.057,-50.031 c 0.004,-2.606 -0.401,-4.827 -1.204,-6.658 -0.795,-1.858 -1.76,-2.778 -2.898,-2.751 h -0.02 z"
         id="path653" />
      <path
         inkscape:connector-curvature="0"
         style="fill:#b0b6d5"
         d="m 346.168,147.154 h -0.019 c -1.147,-0.029 -2.116,0.889 -2.885,2.747 -0.789,1.829 -1.151,4.046 -1.088,6.653 l 1.489,7.414 -1.065,3.43 0.927,33.786 c 0.65,2.587 0.979,5.091 0.977,7.508 l -0.857,3.847 -0.374,11.26 c 0.027,2.304 0.44,4.277 1.245,5.936 0.784,1.631 1.693,2.447 2.746,2.448 h 0.019 c 1.062,0.001 1.963,-0.814 2.695,-2.442 0.732,-1.658 1.094,-3.629 1.069,-5.933 l -0.483,-9.156 c -0.027,-0.977 0.041,-1.726 0.192,-2.257 0.143,-0.53 0.257,-0.881 0.362,-1.062 0.085,-0.18 0.181,-0.388 0.267,-0.625 0.275,-0.72 0.409,-1.449 0.4,-2.198 10e-4,-0.532 -0.046,-1.052 -0.149,-1.574 -0.16,-0.834 -0.368,-1.66 -0.624,-2.485 l -0.375,-2.369 -0.415,-34.088 c 0.759,-1.791 1.188,-3.118 1.274,-3.961 l -0.547,-2.977 -0.564,-4.493 c -0.045,-2.608 -0.478,-4.828 -1.301,-6.657 -0.832,-1.859 -1.807,-2.778 -2.916,-2.752 z"
         id="path655" />
      <path
         inkscape:connector-curvature="0"
         style="fill:#b0b6d5"
         d="m 333.561,147.139 h -0.02 c -1.146,-0.029 -2.096,0.889 -2.829,2.747 -0.77,1.828 -1.131,3.647 -1.085,5.458 -0.048,0.303 -0.068,0.597 -0.04,0.891 0.086,0.684 0.331,1.29 0.719,1.82 0.426,0.58 0.719,1.244 0.869,1.973 0.066,0.294 0.141,0.711 0.227,1.271 -0.333,0.898 -0.638,1.923 -0.914,3.088 l -0.438,1.763 1.628,35.947 1.493,4.02 c 0.52,1.51 0.367,2.921 -0.46,4.247 -0.693,0.805 -1.094,2.444 -1.182,4.909 0.263,2.616 0.212,5.45 -0.142,8.511 0.044,2.305 0.479,4.278 1.283,5.937 0.804,1.633 1.75,2.448 2.821,2.449 l 0.02,0 c 1.033,0.001 1.925,-0.813 2.657,-2.444 0.713,-1.656 1.047,-3.629 1.011,-5.932 l -0.196,-10.465 c 0.715,-3.097 0.935,-5.259 0.672,-6.483 l -0.737,-3.83 -1.569,-35.757 c -0.009,-0.379 0.134,-0.824 0.437,-1.328 0.305,-0.501 0.636,-1.362 1.008,-2.576 0.086,-0.341 0.162,-0.596 0.229,-0.776 l -1.112,-4.969 c -0.113,-0.579 -0.18,-1.232 -0.187,-1.954 0.049,-2.009 -0.347,-3.934 -1.188,-5.765 -0.862,-1.859 -1.848,-2.779 -2.975,-2.752"
         id="path657" />
      <path
         inkscape:connector-curvature="0"
         style="fill:#b0b6d5"
         d="m 409.41,165.998 -0.238,-6.674 c -0.299,-4.295 -2.239,-6.363 -5.812,-6.206 l -20.191,-0.023 c -2,-0.088 -3.384,0.469 -4.154,1.682 -0.161,0.37 -0.304,0.738 -0.418,1.119 -0.123,0.425 -0.199,0.872 -0.21,1.326 -0.01,0.607 0.018,1.204 0.093,1.801 0.076,0.56 0.122,1.109 0.131,1.649 0.008,0.76 0.037,1.509 0.072,2.256 0.039,0.684 0.084,1.367 0.131,2.048 0.01,0.162 0.028,0.332 0.038,0.494 l 0.579,7.431 c 0.075,0.835 0.235,1.65 0.47,2.446 0.066,0.2 0.133,0.409 0.209,0.608 0.824,1.451 2.13,2.25 3.939,2.375 2.504,-0.073 5.006,-0.022 7.509,0.142 1.128,0.011 2.36,0.069 3.696,0.156 1.906,0.088 3.924,0.118 6.048,0.083 0.958,-0.076 1.924,-0.14 2.901,-0.206 0.455,-0.036 0.92,-0.083 1.384,-0.131 0.407,-0.037 0.805,-0.075 1.213,-0.112 2.427,-0.5 3.519,-2.527 3.268,-6.081 l -0.658,-6.183 z m -5.735,-8.235 c 0.503,0.142 0.787,0.655 0.852,1.557 0.536,3.706 0.835,7.649 0.878,11.849 0.161,1.101 0.045,1.905 -0.344,2.426 -0.03,0.039 -0.057,0.067 -0.095,0.095 -4.181,0.593 -7.85,0.787 -10.997,0.594 -3.147,-0.193 -5.355,-0.309 -6.616,-0.349 -1.28,-0.05 -2.246,-0.145 -2.9,-0.269 l -0.398,-0.379 c -0.161,-0.265 -0.264,-0.645 -0.302,-1.139 l -0.747,-8.493 -0.148,-4.361 c -0.065,-0.91 0.145,-1.432 0.628,-1.554 l 20.189,0.023 z"
         id="path659" />
      <path
         inkscape:connector-curvature="0"
         style="fill:none;stroke:#737a91;stroke-width:1.51629996;stroke-linecap:round;stroke-linejoin:round;stroke-miterlimit:10"
         d="m 409.172,159.324 c -0.299,-4.295 -2.239,-6.363 -5.812,-6.206 l -20.191,-0.023 c -2,-0.088 -3.384,0.469 -4.154,1.682 -0.161,0.37 -0.304,0.738 -0.418,1.119 -0.123,0.425 -0.199,0.872 -0.21,1.326 -0.01,0.607 0.018,1.204 0.093,1.801 0.076,0.56 0.122,1.109 0.131,1.649 0.008,0.76 0.037,1.509 0.072,2.256 0.039,0.684 0.084,1.367 0.131,2.048 0.01,0.162 0.028,0.332 0.038,0.494 l 0.579,7.431 c 0.075,0.835 0.235,1.65 0.47,2.446 0.066,0.2 0.133,0.409 0.209,0.608 0.824,1.451 2.13,2.25 3.939,2.375 2.504,-0.073 5.006,-0.022 7.509,0.142 1.128,0.011 2.36,0.069 3.696,0.156 1.906,0.088 3.924,0.118 6.048,0.083 0.958,-0.076 1.924,-0.14 2.901,-0.206 0.455,-0.036 0.92,-0.083 1.384,-0.131 0.407,-0.037 0.805,-0.075 1.213,-0.112 2.427,-0.5 3.519,-2.527 3.268,-6.081 l -0.657,-6.182 -0.239,-6.675 z m -5.497,-1.561 -20.189,-0.024 c -0.483,0.123 -0.693,0.645 -0.628,1.554 l 0.148,4.361 0.747,8.493 c 0.039,0.494 0.141,0.874 0.302,1.139 l 0.398,0.378 c 0.654,0.125 1.62,0.22 2.9,0.27 1.261,0.04 3.469,0.156 6.616,0.349 3.146,0.193 6.815,0 10.997,-0.594 0.038,-0.028 0.065,-0.056 0.095,-0.095 0.389,-0.521 0.504,-1.326 0.344,-2.426 -0.043,-4.199 -0.342,-8.143 -0.878,-11.849 -0.065,-0.901 -0.349,-1.414 -0.852,-1.556 z"
         id="path661" />
      <path
         inkscape:connector-curvature="0"
         style="fill:#c6cee3"
         d="m 401.237,152.357 c -0.038,-0.882 -0.578,-1.337 -1.63,-1.348 l -7.089,-0.046 c -1.317,-0.059 -2.542,-0.069 -3.659,-0.042 -1.413,-0.031 -2.248,0.234 -2.494,0.793 -0.145,1.261 -0.174,2.71 -0.072,4.341 l 0.035,4.247 c 0.15,0.124 0.292,0.219 0.434,0.267 0.655,0.113 1.299,0.152 1.935,0.115 h 0.152 l 0.265,0 c 2.835,0.013 5.591,0.035 8.284,0.048 l 3.47,0.06 c 0.294,-0.71 0.428,-1.412 0.419,-2.122 l -0.05,-6.313 z"
         id="path663" />
      <path
         inkscape:connector-curvature="0"
         style="fill:none;stroke:#737a91;stroke-width:1.51629996;stroke-linecap:round;stroke-linejoin:round;stroke-miterlimit:10"
         d="m 399.608,151.009 -7.09,-0.046 c -1.318,-0.059 -2.542,-0.069 -3.659,-0.042 -1.413,-0.031 -2.247,0.234 -2.494,0.793 -0.145,1.259 -0.174,2.71 -0.072,4.341 l 0.033,4.248 c 0.151,0.123 0.293,0.218 0.436,0.266 0.655,0.114 1.299,0.152 1.935,0.116 h 0.15 l 0.266,0 c 2.834,0.012 5.592,0.034 8.284,0.048 l 3.469,0.061 c 0.295,-0.711 0.429,-1.413 0.42,-2.123 l -0.049,-6.314 c -0.037,-0.882 -0.578,-1.336 -1.629,-1.348 z"
         id="path665" />
    </g>
  </g>
</svg>
