<?xml version="1.0" encoding="UTF-8" standalone="no"?>
<!-- Created with Inkscape (http://www.inkscape.org/) -->

<svg
   xmlns:dc="http://purl.org/dc/elements/1.1/"
   xmlns:cc="http://creativecommons.org/ns#"
   xmlns:rdf="http://www.w3.org/1999/02/22-rdf-syntax-ns#"
   xmlns:svg="http://www.w3.org/2000/svg"
   xmlns="http://www.w3.org/2000/svg"
   xmlns:sodipodi="http://sodipodi.sourceforge.net/DTD/sodipodi-0.dtd"
   xmlns:inkscape="http://www.inkscape.org/namespaces/inkscape"
   width="228.7818"
   height="306.92267"
   id="svg5696"
   version="1.1"
   inkscape:version="0.48.4 r9939"
   sodipodi:docname="oscar5.svg">
  <defs
     id="defs5698">
    <clipPath
       id="SVGID_2_">
      <rect
         height="88.862999"
         width="111.498"
         y="518.96198"
         x="382.04999"
         id="use1087" />
    </clipPath>
    <clipPath
       id="SVGID_4_">
      <rect
         height="41.314999"
         width="49.584999"
         y="525.19397"
         x="389.84698"
         id="use1111" />
    </clipPath>
  </defs>
  <sodipodi:namedview
     id="base"
     pagecolor="#ffffff"
     bordercolor="#666666"
     borderopacity="1.0"
     inkscape:pageopacity="0.0"
     inkscape:pageshadow="2"
     inkscape:zoom="0.77472527"
     inkscape:cx="159.60864"
     inkscape:cy="103.85135"
     inkscape:current-layer="layer1"
     inkscape:document-units="px"
     showgrid="false"
     inkscape:window-width="763"
     inkscape:window-height="591"
     inkscape:window-x="592"
     inkscape:window-y="97"
     inkscape:window-maximized="0"
     fit-margin-top="0"
     fit-margin-left="0"
     fit-margin-right="0"
     fit-margin-bottom="0" />
  <metadata
     id="metadata5701">
    <rdf:RDF>
      <cc:Work
         rdf:about="">
        <dc:format>image/svg+xml</dc:format>
        <dc:type
           rdf:resource="http://purl.org/dc/dcmitype/StillImage" />
        <dc:title></dc:title>
      </cc:Work>
    </rdf:RDF>
  </metadata>
  <g
     id="layer1"
     inkscape:label="Layer 1"
     inkscape:groupmode="layer"
     transform="translate(-158.33466,117.96495)">
    <g
       transform="translate(38.968552,-367.10479)"
       id="g791">
      <path
         inkscape:connector-curvature="0"
         style="fill:#72a6d9"
         d="m 159.843,350.884 c 0,-0.01 -10e-4,-0.02 -10e-4,-0.029 16.91,3.926 35.927,6.074 57.054,6.436 3.052,0.045 6.169,0.076 9.342,0.081 l 0.004,0.038 c -24.887,0.164 -47.019,-2.006 -66.399,-6.526"
         id="path793" />
      <path
         inkscape:connector-curvature="0"
         style="fill:#72a6d9"
         d="m 158.986,350.683 c 0.282,0.074 0.574,0.136 0.856,0.201 19.38,4.521 41.512,6.69 66.399,6.526 3.406,-0.023 6.854,-0.094 10.355,-0.201 l -0.235,1.411 -3.521,21.388 c -28.669,-1.334 -52.483,-4.827 -71.456,-10.484 -0.962,-0.293 -1.915,-0.589 -2.849,-0.885 l 0.451,-17.956 z"
         id="path795" />
      <path
         inkscape:connector-curvature="0"
         style="fill:#72a6d9"
         d="m 158.842,389.192 c 1.522,-6.757 2.372,-13.316 2.543,-19.667 18.971,5.656 42.786,9.15 71.455,10.484 l 3.521,-21.388 c 0.459,-0.069 0.927,-0.139 1.383,-0.218 l 10.958,16.617 c -1.478,1.5 -3.676,2.765 -6.573,3.803 l -0.939,-8.614 0.939,8.614 9.675,88.594 c 0.107,1.574 -0.63,2.471 -2.21,2.699 l -87.779,9.587 c -7.107,-37.698 -8.095,-67.868 -2.973,-90.511"
         id="path797" />
      <path
         inkscape:connector-curvature="0"
         style="fill:none;stroke:#003d89;stroke-width:1.51040006;stroke-linecap:round;stroke-linejoin:round;stroke-miterlimit:10"
         d="m 236.362,358.621 c 0.459,-0.068 0.927,-0.139 1.383,-0.217 l 10.958,16.616 c -1.479,1.5 -3.676,2.765 -6.573,3.803 m -80.745,-9.298 c -0.962,-0.293 -1.915,-0.589 -2.849,-0.885 l 0.451,-17.957 c 0.282,0.074 0.574,0.136 0.856,0.201 m 82.286,27.939 9.675,88.594 c 0.107,1.574 -0.63,2.471 -2.21,2.699 l -87.779,9.587 c -7.106,-37.698 -8.094,-67.868 -2.972,-90.511 1.522,-6.757 2.372,-13.316 2.542,-19.667 m -1.542,-18.641 c 0,-0.01 -10e-4,-0.02 -0.002,-0.029 16.912,3.927 35.928,6.074 57.054,6.436 3.052,0.045 6.17,0.076 9.343,0.081 m -66.395,-6.488 c 19.38,4.521 41.512,6.691 66.399,6.526 3.406,-0.023 6.854,-0.094 10.355,-0.201 l -0.235,1.411 m 5.767,20.203 -0.939,-8.614 m -4.828,-11.588 -3.521,21.388 c -28.669,-1.334 -52.484,-4.828 -71.456,-10.484"
         id="path799" />
      <path
         inkscape:connector-curvature="0"
         style="fill:#ac6814"
         d="m 264.726,508.674 c 0.03,-0.485 0.057,-0.95 0.094,-1.409 0.738,-7.071 3.392,-12.51 7.95,-16.318 4.574,-3.793 9.749,-4.845 15.51,-3.172 5.342,1.604 9.739,5.114 13.192,10.526 0.29,0.432 0.557,0.877 0.816,1.339 0.265,0.44 0.521,0.921 0.775,1.425 l 0.377,0.631 c 0.716,1.243 1.176,2.383 1.408,3.419 0.669,2.978 -0.464,5.303 -3.395,6.992 l -66.659,38.308 29.932,-41.741 z"
         id="path801" />
      <path
         inkscape:connector-curvature="0"
         style="fill:none;stroke:#5c3d08;stroke-width:1.50969994;stroke-linecap:round;stroke-linejoin:round;stroke-miterlimit:10"
         d="m 264.819,507.265 c 0.738,-7.071 3.392,-12.51 7.95,-16.318 4.574,-3.793 9.749,-4.845 15.51,-3.172 5.341,1.604 9.739,5.114 13.191,10.526 0.291,0.432 0.558,0.877 0.817,1.339 0.265,0.44 0.521,0.921 0.775,1.425 l 0.377,0.631 c 0.715,1.243 1.176,2.383 1.409,3.419 0.668,2.978 -0.465,5.303 -3.396,6.992 l -66.659,38.308 29.931,-41.74 c 0.031,-0.487 0.058,-0.951 0.095,-1.41 z"
         id="path803" />
      <path
         inkscape:connector-curvature="0"
         style="fill:#72a6d9"
         d="m 237.78,436.699 c 6.757,10.373 12.48,19.646 17.175,27.815 4.692,8.161 8.6,14.681 11.735,19.552 1.64,2.547 3,4.872 4.081,6.99 -7.77,14.145 -8.538,27.539 -2.31,40.202 l -39.324,19.83 c -3.593,-1.027 -5.207,-3.98 -4.832,-8.861 0.373,-4.886 0.82,-7.665 1.36,-8.35 -2.284,-2.487 -3.928,-5.104 -4.934,-7.84 -1.319,-3.689 -1.012,-6.5 0.919,-8.452 0.48,-0.507 1.024,-0.904 1.632,-1.203 l -29.159,-60.347 43.657,-19.336 z"
         id="path805" />
      <path
         inkscape:connector-curvature="0"
         style="fill:#a74c33"
         d="m 246.757,487.061 -3.462,-6.369 c -1.277,-2.351 -1.572,-4.786 -0.896,-7.312 0.295,-1.096 0.74,-2.076 1.32,-2.96 0.705,-0.972 1.614,-1.789 2.751,-2.437 0.074,-0.043 0.157,-0.087 0.232,-0.128 l 0.04,-0.022 c 1.276,-0.693 2.576,-1.046 3.887,-1.061 0.715,-0.025 1.431,0.047 2.153,0.213 0.33,0.056 0.65,0.13 0.969,0.225 2.47,0.814 4.337,2.393 5.616,4.746 l 3.458,6.366 c 1.285,2.359 1.591,4.781 0.913,7.261 -0.095,0.319 -0.188,0.619 -0.297,0.912 -0.176,0.524 -0.413,1.02 -0.693,1.473 -0.788,1.35 -1.894,2.411 -3.326,3.191 l -0.042,0.021 c -0.281,0.152 -0.568,0.297 -0.862,0.428 -1.193,0.486 -2.419,0.701 -3.668,0.652 -0.814,-0.018 -1.638,-0.194 -2.462,-0.507 -2.469,-0.77 -4.349,-2.336 -5.631,-4.692"
         id="path807" />
      <path
         inkscape:connector-curvature="0"
         style="fill:none;stroke:#003d89;stroke-width:1.50969994;stroke-linecap:round;stroke-linejoin:round;stroke-miterlimit:10"
         d="m 268.469,531.255 -37.618,20.758 c -7.032,-1.732 -8.757,-7.776 -5.176,-18.138 -2.296,-2.493 -3.94,-5.109 -4.938,-7.852 -1.315,-3.677 -1.008,-6.489 0.924,-8.443 0.479,-0.505 1.012,-0.907 1.623,-1.197 -9.708,-18.666 -19.34,-38.885 -28.882,-60.687 l 43.592,-19.255 c 12.354,20.042 23.335,38.788 32.967,56.253 -7.876,10.981 -8.703,23.83 -2.492,38.561 z"
         id="path809" />
      <path
         inkscape:connector-curvature="0"
         style="fill:#6f410b"
         d="m 228.612,548.58 c 0.192,-0.691 0.594,-1.218 1.221,-1.573 l 73.579,-42.275 c 0.628,-0.354 1.292,-0.452 2.01,-0.291 0.677,0.215 1.199,0.629 1.563,1.254 l 1.293,2.247 c 0.354,0.627 0.437,1.275 0.262,1.95 -0.188,0.724 -0.601,1.257 -1.238,1.615 L 233.731,553.8 c -0.628,0.354 -1.288,0.432 -1.973,0.22 -0.712,-0.173 -1.249,-0.562 -1.609,-1.179 l -1.296,-2.256 c -0.353,-0.628 -0.435,-1.297 -0.241,-2.005"
         id="path811" />
      <path
         inkscape:connector-curvature="0"
         style="fill:none;stroke:#2a1b0c;stroke-width:1.50969994;stroke-linecap:round;stroke-linejoin:round;stroke-miterlimit:10"
         d="m 229.833,547.007 73.579,-42.275 c 0.628,-0.354 1.292,-0.452 2.01,-0.291 0.677,0.215 1.199,0.629 1.563,1.254 l 1.293,2.247 c 0.355,0.627 0.437,1.276 0.262,1.95 -0.188,0.724 -0.6,1.257 -1.237,1.615 L 233.731,553.8 c -0.629,0.354 -1.287,0.432 -1.973,0.22 -0.712,-0.173 -1.247,-0.562 -1.608,-1.179 l -1.297,-2.256 m -0.001,0 c -0.353,-0.628 -0.434,-1.297 -0.24,-2.005 0.192,-0.691 0.594,-1.218 1.221,-1.573"
         id="path813" />
      <path
         inkscape:connector-curvature="0"
         style="fill:#ae6914"
         d="m 123.19,528.013 c 19.093,-13.516 38.22,-17.105 57.37,-10.77 2.218,-0.035 4.939,0.006 8.157,0.133 4.789,0.187 8.769,2.241 11.938,6.164 3.166,3.923 4.442,9.185 3.821,15.774 -0.049,0.537 -0.115,1.076 -0.191,1.613 -0.066,0.537 -0.162,1.086 -0.265,1.651 l -0.105,0.778 c -0.201,1.461 -0.543,2.715 -1.006,3.764 -1.318,2.992 -3.67,4.479 -7.051,4.474 l -40.282,-0.657 -32.386,-22.924 z"
         id="path815" />
      <path
         inkscape:connector-curvature="0"
         style="fill:none;stroke:#5c3d08;stroke-width:1.51040006;stroke-linecap:round;stroke-linejoin:round;stroke-miterlimit:10"
         d="m 180.56,517.243 c 2.218,-0.035 4.939,0.006 8.157,0.133 4.789,0.187 8.771,2.241 11.938,6.164 3.166,3.923 4.442,9.185 3.821,15.774 -0.049,0.537 -0.116,1.076 -0.192,1.613 -0.067,0.537 -0.162,1.086 -0.266,1.651 l -0.105,0.778 c -0.202,1.46 -0.543,2.716 -1.007,3.764 -1.317,2.992 -3.669,4.479 -7.05,4.474 l -40.281,-0.657 -32.385,-22.925 c 19.093,-13.515 38.22,-17.105 57.37,-10.769 z"
         id="path817" />
      <path
         inkscape:connector-curvature="0"
         style="fill:#72a6d9"
         d="m 134.823,501.022 c 1.598,-1.008 3.533,-1.609 5.791,-1.824 6.396,-9.895 10.393,-25.204 11.979,-45.92 l 50.104,-0.234 c 6.229,34.88 -0.806,56.278 -21.108,64.189 -20.575,-0.659 -38.501,2.94 -53.771,10.826 -1.632,-1.309 -2.679,-2.472 -3.139,-3.501 -1.462,-1.106 -2.103,-2.506 -1.931,-4.177 0.172,-1.67 0.873,-3.322 2.103,-4.934 1.24,-1.616 2.422,-2.529 3.546,-2.733 1.133,-0.216 1.993,-0.367 2.587,-0.46 -0.809,-1.996 -0.654,-4.383 0.474,-7.165 0.642,-1.71 1.767,-3.057 3.365,-4.067"
         id="path819" />
      <path
         inkscape:connector-curvature="0"
         style="fill:none;stroke:#003d89;stroke-width:1.51040006;stroke-linecap:round;stroke-linejoin:round;stroke-miterlimit:10"
         d="m 140.613,499.198 c 6.397,-9.895 10.392,-25.204 11.979,-45.92 l 50.104,-0.234 c 6.23,34.88 -0.805,56.278 -21.107,64.189 -20.575,-0.659 -38.501,2.94 -53.772,10.826 -1.632,-1.309 -2.678,-2.472 -3.139,-3.501 -1.462,-1.106 -2.102,-2.506 -1.93,-4.177 0.172,-1.67 0.873,-3.322 2.103,-4.934 1.24,-1.614 2.421,-2.529 3.545,-2.733 1.133,-0.216 1.994,-0.367 2.588,-0.46 -0.81,-1.996 -0.655,-4.383 0.473,-7.165 0.644,-1.711 1.768,-3.058 3.366,-4.067 1.597,-1.007 3.533,-1.609 5.79,-1.824 z"
         id="path821" />
      <path
         inkscape:connector-curvature="0"
         style="fill:#a74c33"
         d="m 178.356,496.134 3.606,-6.297 c 1.332,-2.325 3.252,-3.858 5.76,-4.607 1.088,-0.325 2.157,-0.463 3.216,-0.432 1.2,0.088 2.373,0.433 3.524,1.06 0.074,0.044 0.157,0.09 0.231,0.132 l 0.039,0.025 c 1.261,0.721 2.245,1.643 2.948,2.754 0.396,0.596 0.712,1.245 0.951,1.947 0.126,0.308 0.232,0.618 0.317,0.941 0.605,2.532 0.243,4.955 -1.089,7.282 l -3.605,6.298 c -1.338,2.334 -3.237,3.868 -5.708,4.594 -0.324,0.088 -0.627,0.163 -0.936,0.227 -0.539,0.125 -1.084,0.186 -1.618,0.185 -1.565,0.036 -3.052,-0.347 -4.47,-1.157 l -0.041,-0.023 c -0.278,-0.158 -0.553,-0.327 -0.816,-0.511 -1.044,-0.761 -1.87,-1.692 -2.486,-2.783 -0.413,-0.705 -0.697,-1.496 -0.864,-2.365 -0.637,-2.511 -0.294,-4.935 1.041,-7.27"
         id="path823" />
      <path
         inkscape:connector-curvature="0"
         style="fill:#6f410b"
         d="m 120.528,527.819 1.438,-2.142 c 0.408,-0.603 0.974,-0.97 1.702,-1.111 0.688,-0.139 1.339,-0.008 1.935,0.4 9.59,8.503 20.081,15.512 31.461,21.054 1.566,0.756 3.417,1.258 5.542,1.498 l 38.232,-0.053 c 0.727,10e-4 1.359,0.247 1.887,0.749 0.491,0.521 0.736,1.153 0.735,1.881 l -0.003,2.576 c -0.001,0.729 -0.248,1.342 -0.741,1.843 -0.529,0.519 -1.162,0.782 -1.889,0.78 l -40.328,-0.13 c -3.448,-0.13 -8.496,-1.845 -15.158,-5.148 -6.664,-3.305 -14.688,-9.491 -24.091,-18.549 -0.594,-0.409 -0.963,-0.967 -1.084,-1.674 -0.159,-0.707 -0.044,-1.359 0.362,-1.974"
         id="path825" />
      <path
         inkscape:connector-curvature="0"
         style="fill:none;stroke:#2a1b0c;stroke-width:1.51040006;stroke-linecap:round;stroke-linejoin:round;stroke-miterlimit:10"
         d="m 120.528,527.819 c -0.407,0.614 -0.521,1.267 -0.362,1.975 0.121,0.707 0.49,1.265 1.084,1.674 9.403,9.058 17.427,15.244 24.091,18.549 6.663,3.304 11.71,5.019 15.158,5.148 l 40.328,0.13 c 0.727,0.002 1.36,-0.262 1.889,-0.78 0.493,-0.501 0.74,-1.114 0.741,-1.843 l 0.003,-2.576 c 0.001,-0.728 -0.245,-1.359 -0.735,-1.881 -0.528,-0.502 -1.16,-0.748 -1.887,-0.749 l -38.232,0.053 c -2.125,-0.24 -3.976,-0.742 -5.542,-1.498 -11.38,-5.542 -21.871,-12.551 -31.461,-21.054 -0.596,-0.408 -1.247,-0.539 -1.935,-0.4 -0.728,0.142 -1.294,0.509 -1.702,1.111 l -1.438,2.141 z"
         id="path827" />
      <path
         inkscape:connector-curvature="0"
         style="fill:#72a6d9"
         d="m 168.945,250.061 c 0.171,-0.058 0.33,-0.084 0.474,-0.08 9.876,-0.673 19.865,2.434 29.968,9.319 l -0.047,0.008 c -19.27,8.295 -35.859,20.833 -49.791,37.603 -4.008,4.812 -7.814,9.982 -11.415,15.519 l -10.412,-5.581 c -0.337,-2.189 -0.54,-4.435 -0.6,-6.738 -0.062,-2.314 0.149,-4.445 0.636,-6.4 0.483,-1.966 1.013,-3.566 1.571,-4.798 0.549,-1.239 0.838,-1.9 0.875,-1.974 0.536,-1.323 1.262,-2.82 2.193,-4.517 2.658,-4.874 6.945,-11.291 12.846,-19.268 -0.062,0.153 -0.139,0.319 -0.226,0.477 0.942,-1.392 1.963,-2.671 3.038,-3.854 5.072,-5.554 11.595,-8.766 19.573,-9.629 0.444,-0.047 0.878,-0.071 1.317,-0.087"
         id="path829" />
      <path
         inkscape:connector-curvature="0"
         style="fill:#3c6f9f"
         d="M 213.729,290.781 190.751,279.55 c 9.183,-10.84 19.801,-20.295 31.837,-28.361 3.796,13.898 0.842,27.096 -8.859,39.592"
         id="path831" />
      <path
         inkscape:connector-curvature="0"
         style="fill:none;stroke:#003d89;stroke-width:1.50969994;stroke-linecap:round;stroke-linejoin:round;stroke-miterlimit:10"
         d="m 138.135,312.43 -10.412,-5.58 c -0.337,-2.191 -0.54,-4.436 -0.6,-6.74 -0.062,-2.314 0.149,-4.444 0.636,-6.4 m 71.628,-34.411 -0.046,0.009 m 23.249,-8.12 c 3.794,13.899 0.84,27.097 -8.86,39.592 l -22.978,-11.231"
         id="path833" />
      <path
         inkscape:connector-curvature="0"
         style="fill:#f2920c"
         d="m 208.771,274.446 c 6.624,7.475 11.585,14.847 14.894,22.109 3.308,7.265 5.389,12.455 6.243,15.566 2.633,11.42 4.104,21.72 4.399,30.881 0.231,6.602 0.21,10.948 -0.062,13.04 -28.527,7.279 -58.258,10.214 -89.182,8.812 -4.341,-9.904 -7.091,-23.229 -8.231,-39.971 l 7.709,-28.724 49.701,-32.805 14.529,11.092 z"
         id="path835" />
      <path
         inkscape:connector-curvature="0"
         style="fill:none;stroke:#9c2f13;stroke-width:1.50969994;stroke-linecap:round;stroke-linejoin:round;stroke-miterlimit:10"
         d="m 223.664,296.556 c 3.308,7.265 5.389,12.456 6.243,15.566 2.633,11.42 4.103,21.719 4.399,30.881 0.231,6.602 0.21,10.948 -0.062,13.04 -28.527,7.279 -58.258,10.213 -89.181,8.812 -4.341,-9.904 -7.091,-23.229 -8.231,-39.971 l 7.709,-28.725 49.701,-32.804 14.528,11.091 c 6.625,7.475 11.585,14.847 14.894,22.11 z"
         id="path837" />
      <path
         inkscape:connector-curvature="0"
         style="fill:#9c2f13"
         d="m 179.789,344.384 c 0.548,-1.125 1.18,-2.206 1.913,-3.257 0.481,-0.683 0.97,-1.367 1.46,-2.042 10.786,-14.695 26.32,-23.928 46.603,-27.705 l 0.741,-0.134 0.278,1.483 -0.742,0.133 c -19.014,3.529 -34.119,12.183 -45.307,25.961 -0.505,0.639 -1.01,1.288 -1.523,1.938 -0.495,0.646 -0.976,1.311 -1.448,1.982 -0.298,0.443 -0.617,0.887 -0.941,1.343 l -2.425,3.591 c 0.396,-1.11 0.862,-2.21 1.391,-3.293"
         id="path839" />
      <path
         inkscape:connector-curvature="0"
         style="fill:none;stroke:#003d89;stroke-width:0.472;stroke-linecap:round;stroke-linejoin:round;stroke-miterlimit:10"
         d="m 198.856,259.574 c -10.104,-6.886 -20.094,-9.993 -29.968,-9.319 -0.143,-0.005 -0.303,0.022 -0.476,0.078 -0.437,0.017 -0.873,0.041 -1.314,0.086 -9.669,1.05 -17.203,5.55 -22.612,13.486"
         id="path841" />
      <path
         inkscape:connector-curvature="0"
         style="fill:#f2920c"
         d="m 132.17,302.679 c 3.249,-0.542 6.285,0.521 9.093,3.18 2.012,1.97 3.49,4.354 4.426,7.154 0.359,1.058 0.633,2.179 0.83,3.362 0.04,0.233 0.074,0.446 0.107,0.641 0.035,0.206 0.046,0.395 0.046,0.566 0.116,1.043 0.172,2.058 0.154,3.037 -0.036,1.392 -0.24,2.748 -0.608,4.042 -0.149,0.531 -0.311,1.057 -0.49,1.592 -0.225,0.602 -0.483,1.173 -0.773,1.728 -0.051,0.095 -0.11,0.199 -0.179,0.298 -0.355,0.68 -0.742,1.29 -1.149,1.826 -1.647,2.169 -3.728,3.464 -6.231,3.881 -3.247,0.543 -6.277,-0.529 -9.09,-3.228 -2.808,-2.659 -4.567,-6.153 -5.286,-10.462 -0.72,-4.309 -0.191,-8.196 1.594,-11.66 1.788,-3.424 4.307,-5.413 7.556,-5.957"
         id="path843" />
      <path
         inkscape:connector-curvature="0"
         style="fill:none;stroke:#9c2f13;stroke-width:1.50969994;stroke-linecap:square;stroke-linejoin:round;stroke-miterlimit:10"
         d="m 143.626,330.107 c -1.647,2.169 -3.728,3.463 -6.231,3.881 -3.247,0.543 -6.277,-0.529 -9.09,-3.228 -2.808,-2.658 -4.567,-6.153 -5.286,-10.462 -0.72,-4.309 -0.192,-8.196 1.593,-11.659 1.789,-3.427 4.308,-5.416 7.558,-5.959 3.249,-0.542 6.285,0.521 9.093,3.18 2.012,1.97 3.49,4.353 4.426,7.153 0.359,1.059 0.633,2.181 0.83,3.362 0.038,0.233 0.074,0.447 0.107,0.642 0.035,0.206 0.046,0.396 0.045,0.566"
         id="path845" />
      <path
         inkscape:connector-curvature="0"
         style="fill:#040404"
         d="m 167.16,305.463 c -1.318,-2.906 -1.732,-7.632 -1.262,-14.148 11.018,-12.621 21.965,-21.029 32.852,-25.209 9.181,-5.693 16.521,-7.561 22.028,-5.581 l -5.336,2.305 -0.253,0.091 0.253,-0.091 c 4.801,-0.981 8.563,1.155 11.303,6.399 -1.103,-0.075 -2.313,0.701 -3.637,2.337 1.257,0.824 2.79,2.271 4.579,4.335 -18.721,-0.807 -31.936,7.828 -39.644,25.894 -1.551,-1.664 -2.693,-2.889 -3.41,-3.688 -2.602,4.987 -6.264,7.636 -10.994,7.958 1.495,-3.943 1.564,-6.451 0.208,-7.525 l -6.687,6.923 z"
         id="path847" />
      <path
         inkscape:connector-curvature="0"
         style="fill:#040404"
         d="m 138.207,293.23 16.14,-0.79 c 7.271,8.189 8.353,17.652 3.231,28.408 -0.31,-3.115 -1.235,-5.562 -2.776,-7.343 -0.583,4.47 -5.604,8.254 -15.076,11.337 0.424,-2.376 0.281,-4.668 -0.442,-6.881 -1.362,1.061 -3.782,1.417 -7.272,1.08 11.786,-6.76 13.851,-15.36 6.195,-25.811"
         id="path849" />
      <path
         inkscape:connector-curvature="0"
         style="fill:none;stroke:#484545;stroke-width:0.472;stroke-linecap:round;stroke-linejoin:round;stroke-miterlimit:10"
         d="m 215.442,262.831 c 4.801,-0.983 8.563,1.155 11.303,6.397 -1.103,-0.074 -2.313,0.703 -3.637,2.338 1.257,0.823 2.79,2.271 4.579,4.335 -18.721,-0.807 -31.936,7.828 -39.644,25.893 -1.551,-1.663 -2.693,-2.888 -3.411,-3.688 -2.601,4.988 -6.263,7.638 -10.993,7.96 1.495,-3.944 1.564,-6.452 0.208,-7.526 l -6.689,6.922 c -1.318,-2.908 -1.732,-7.632 -1.262,-14.148 11.018,-12.621 21.965,-21.029 32.851,-25.21 9.181,-5.694 16.521,-7.561 22.029,-5.581 l -5.334,2.308 z m -77.234,30.399 16.14,-0.791 c 7.27,8.19 8.352,17.653 3.23,28.409 -0.309,-3.115 -1.234,-5.562 -2.776,-7.343 -0.583,4.47 -5.604,8.254 -15.077,11.337 0.425,-2.376 0.282,-4.668 -0.441,-6.881 -1.363,1.061 -3.782,1.417 -7.271,1.08 11.785,-6.759 13.851,-15.36 6.195,-25.811 z m 77.234,-30.399 -0.253,0.09"
         id="path851" />
      <path
         inkscape:connector-curvature="0"
         style="fill:#e73127"
         d="m 206.301,267.09 c 6.455,0.109 13.616,4.212 21.476,12.323 7.85,8.114 11.255,15.733 10.195,22.855 -1.062,7.094 -5.084,11.485 -12.07,13.188 -6.993,1.666 -12.215,0.576 -15.662,-3.279 -3.452,-3.89 -6.583,-12.389 -9.396,-25.513 -2.846,-13.146 -1.026,-19.668 5.457,-19.574"
         id="path853" />
      <path
         inkscape:connector-curvature="0"
         style="fill:#72a6d9"
         d="m 148.876,258.911 c -0.129,0.138 -0.26,0.274 -0.39,0.411 -0.017,0.011 -0.033,0.034 -0.05,0.046 -1.863,1.965 -3.531,4.233 -5.022,6.816 -1.697,2.953 -4.083,6.317 -7.145,10.099 -1.641,2.601 -3.431,5.52 -5.367,8.76 l -2.155,4.693 c -0.006,0.021 -0.012,0.041 -0.018,0.06 -0.959,2.735 -1.485,5.778 -1.574,9.132 0.73,0.318 3.602,1.016 8.632,2.099 2.787,0.586 4.684,1.399 5.698,2.445 l -1.035,0.669 c 0.443,0.415 0.91,0.861 1.402,1.345 0.315,-0.063 0.652,-0.053 1.007,0.013 0.551,-0.762 1.114,-1.516 1.679,-2.261 l 2.256,-2.932 c 0.835,-1.065 1.676,-2.106 2.53,-3.127 22.981,-5.07 42.091,-15.818 57.326,-32.233 3.284,-3.532 8.479,-8.12 15.602,-13.768 -9.881,3.162 -17.504,5.869 -22.867,8.122 -0.179,0.079 -0.358,0.146 -0.528,0.222 l -0.269,0.17 c -1.276,0.547 -2.54,1.112 -3.801,1.695 1.495,-0.727 3.016,-1.422 4.551,-2.079 l 0.046,-0.009 c -2.256,-1.527 -4.5,-2.874 -6.739,-4.031 -0.052,-0.03 -0.105,-0.059 -0.157,-0.088 -7.232,-3.72 -14.413,-5.477 -21.535,-5.274 -0.009,0.001 -0.018,0.004 -0.028,0.005 -0.503,0.018 -1.008,0.035 -1.508,0.069 -0.146,-0.004 -0.303,0.022 -0.476,0.079 -0.437,0.017 -0.871,0.042 -1.314,0.087 -4.857,0.533 -9.167,1.932 -12.95,4.199 l -2.486,1.678 c -0.128,0.089 -0.264,0.188 -0.39,0.295 -1.015,0.792 -1.991,1.652 -2.925,2.593 m -3.146,42.188 c -6.046,-8.949 -9.205,-16.984 -9.48,-24.123 0.275,7.138 3.434,15.173 9.48,24.123"
         id="path855" />
      <path
         inkscape:connector-curvature="0"
         style="fill:none;stroke:#003d89;stroke-width:1.50969994;stroke-linecap:round;stroke-linejoin:round;stroke-miterlimit:10"
         d="m 198.857,259.522 c 0.17,-0.076 0.349,-0.144 0.528,-0.223 5.363,-2.253 12.985,-4.96 22.867,-8.121 -7.122,5.647 -12.317,10.235 -15.602,13.768 -15.235,16.415 -34.345,27.163 -57.326,32.231"
         id="path857" />
      <path
         inkscape:connector-curvature="0"
         style="fill:none;stroke:#bcd5ef;stroke-width:1.50969994;stroke-linecap:round;stroke-linejoin:round;stroke-miterlimit:10"
         d="m 136.251,276.976 c 0.273,7.139 3.432,15.174 9.479,24.123"
         id="path859" />
      <path
         inkscape:connector-curvature="0"
         style="fill:#f8ec00"
         d="m 170.667,265.95 c -3.445,-0.458 -5.634,-1.824 -6.575,-4.087 -0.911,-2.24 -0.297,-4.753 1.844,-7.531 1.346,-1.669 3.022,-3.145 5.019,-4.425 7.116,-0.184 14.297,1.574 21.535,5.274 -0.373,0.798 -0.888,1.621 -1.541,2.466 -2.133,2.748 -5.183,4.93 -9.145,6.54 -3.945,1.635 -7.663,2.226 -11.137,1.763"
         id="path861" />
      <path
         inkscape:connector-curvature="0"
         style="fill:none;stroke:#d80a17;stroke-width:1.50969994;stroke-linecap:round;stroke-linejoin:round;stroke-miterlimit:10"
         d="m 192.489,255.181 c -0.373,0.799 -0.888,1.62 -1.541,2.467 -2.133,2.748 -5.183,4.93 -9.145,6.54 -3.945,1.635 -7.663,2.227 -11.137,1.762 -3.444,-0.457 -5.634,-1.824 -6.575,-4.086 -0.911,-2.24 -0.297,-4.754 1.844,-7.531 1.346,-1.669 3.022,-3.146 5.019,-4.425"
         id="path863" />
      <path
         inkscape:connector-curvature="0"
         style="fill:none;stroke:#003d89;stroke-width:1.50969994;stroke-linecap:round;stroke-linejoin:round;stroke-miterlimit:10"
         d="m 142.859,305.5 c 0.148,-0.198 0.461,-0.613 0.958,-1.25 0.24,-0.338 0.479,-0.674 0.721,-1.011 l 2.256,-2.931 c 0.907,-1.157 1.819,-2.285 2.753,-3.396 13.932,-16.771 30.522,-29.309 49.792,-37.604 l 0.045,-0.008 c -2.255,-1.528 -4.499,-2.875 -6.738,-4.032 -0.052,-0.029 -0.105,-0.058 -0.157,-0.088 -7.232,-3.72 -14.413,-5.477 -21.535,-5.275 -0.009,0.001 -0.018,0.005 -0.028,0.007 -0.503,0.016 -1.008,0.033 -1.508,0.068 -0.146,-0.003 -0.303,0.023 -0.476,0.081 -0.437,0.016 -0.871,0.042 -1.314,0.085 -4.857,0.533 -9.168,1.933 -12.95,4.201 l -1.995,1.346 c -0.606,0.436 -1.172,0.883 -1.688,1.352 -0.515,0.461 -1.627,1.604 -3.34,3.428 -1.705,1.816 -3.897,4.784 -6.576,8.915 -4.631,6.407 -8.027,11.632 -10.176,15.656 l -2.154,4.692 c -0.007,0.021 -0.013,0.041 -0.019,0.061 -0.959,2.734 -1.485,5.777 -1.574,9.131"
         id="path865" />
      <polygon
         style="fill:#dc0040"
         points="180.516,364.647 143.89,368.819 143.814,367.992 "
         id="polygon867" />
      <path
         inkscape:connector-curvature="0"
         style="fill:#d80637"
         d="m 143.89,368.819 36.625,-4.172 36.667,-3.833 17.781,-1.941 c 2.28,7.879 5.532,18.271 9.761,31.179 4.217,12.915 7.54,25.485 9.969,37.714 2.431,12.22 2.337,21.09 -0.288,26.598 -2.626,5.479 -7.189,8.979 -13.691,10.515 -3.146,0.723 -12.516,1.793 -28.11,3.201 -24.991,2.267 -45.397,4.011 -61.218,5.236 L 143.89,368.819 z"
         id="path869" />
      <path
         inkscape:connector-curvature="0"
         style="fill:#dc0040"
         d="m 234.779,358.323 c 0.047,0.203 0.11,0.386 0.184,0.55 l -17.781,1.942 17.597,-2.492 z"
         id="path871" />
      <path
         inkscape:connector-curvature="0"
         style="fill:none;stroke:#66000f;stroke-width:1.52209997;stroke-linecap:round;stroke-linejoin:round;stroke-miterlimit:10"
         d="m 143.89,368.819 7.497,104.496 c 15.821,-1.226 36.227,-2.97 61.218,-5.236 15.594,-1.408 24.964,-2.479 28.11,-3.201 6.501,-1.536 11.065,-5.035 13.691,-10.515 2.625,-5.508 2.719,-14.378 0.288,-26.598 -2.429,-12.229 -5.752,-24.799 -9.969,-37.714 -4.229,-12.907 -7.481,-23.3 -9.761,-31.179 l -17.781,1.941 -36.667,3.833 -36.626,4.173 z"
         id="path873" />
      <path
         inkscape:connector-curvature="0"
         style="fill:#d80637"
         d="m 135.851,355.58 c 0.213,-1.781 0.837,-3.13 1.861,-4.031 0.998,-0.896 2.084,-1.119 3.275,-0.661 24.768,9.761 55.802,10.805 93.088,3.153 1.205,-0.216 2.297,0.223 3.28,1.313 1.039,1.093 1.688,2.561 1.947,4.412 0.237,1.826 0.018,3.464 -0.642,4.913 -0.65,1.477 -1.585,2.329 -2.786,2.545 -38.706,7.893 -70.881,6.725 -96.544,-3.491 -1.154,-0.49 -2.078,-1.547 -2.76,-3.173 -0.702,-1.537 -0.942,-3.201 -0.719,-4.98"
         id="path875" />
      <path
         inkscape:connector-curvature="0"
         style="fill:none;stroke:#66000f;stroke-width:1.52209997;stroke-linecap:round;stroke-linejoin:round;stroke-miterlimit:10"
         d="m 135.851,355.58 c -0.222,1.779 0.018,3.444 0.721,4.98 0.682,1.626 1.605,2.684 2.76,3.173 25.663,10.216 57.838,11.384 96.544,3.491 1.201,-0.217 2.136,-1.069 2.786,-2.545 0.66,-1.449 0.878,-3.087 0.642,-4.913 -0.258,-1.851 -0.908,-3.318 -1.947,-4.412 -0.983,-1.09 -2.076,-1.529 -3.28,-1.313 -37.286,7.651 -68.32,6.608 -93.088,-3.153 -1.191,-0.458 -2.278,-0.236 -3.275,0.661 -1.026,0.9 -1.65,2.249 -1.863,4.031 z"
         id="path877" />
      <path
         inkscape:connector-curvature="0"
         style="fill:#72a6d9"
         d="m 133.727,382.65 c 2.623,-14.5 4.512,-22.768 5.673,-24.822 14.254,5.072 28.211,7.487 41.888,7.257 13.663,-0.258 23.615,-1.193 29.867,-2.815 5.449,17.645 9.814,35.35 13.103,53.116 3.139,16.929 4.714,35.786 4.723,56.559 0.29,2.562 -0.936,4.212 -3.676,4.942 -32.274,8.526 -63.198,9.653 -92.764,3.396 2.052,-13.535 2.152,-29.669 0.287,-48.389 -2.012,-18.332 -1.715,-34.743 0.899,-49.244"
         id="path879" />
      <path
         inkscape:connector-curvature="0"
         style="fill:none;stroke:#003d89;stroke-width:1.51040006;stroke-linecap:round;stroke-linejoin:round;stroke-miterlimit:10"
         d="m 133.727,382.65 c -2.613,14.501 -2.91,30.911 -0.9,49.244 1.865,18.72 1.765,34.854 -0.287,48.389 29.566,6.257 60.49,5.13 92.764,-3.396 2.74,-0.73 3.965,-2.38 3.676,-4.942 -0.009,-20.772 -1.584,-39.63 -4.723,-56.559 -3.289,-17.767 -7.653,-35.472 -13.103,-53.116 -6.251,1.622 -16.204,2.558 -29.867,2.815 -13.676,0.23 -27.633,-2.185 -41.888,-7.257 -1.161,2.055 -3.05,10.322 -5.672,24.822 z"
         id="path881" />
      <path
         inkscape:connector-curvature="0"
         style="fill:#72a6d9"
         d="m 133.715,355.678 0.792,0.045 c 19.614,5.274 35.773,7.886 48.5,7.817 12.69,-0.038 22.006,-0.467 27.925,-1.293 -3.127,7.349 -5.109,15.114 -5.943,23.304 -28.998,-1.818 -52.871,-5.857 -71.622,-12.109 l 0.348,-17.764 z"
         id="path883" />
      <path
         inkscape:connector-curvature="0"
         style="fill:none;stroke:#003d89;stroke-width:1.51040006;stroke-linecap:round;stroke-linejoin:round;stroke-miterlimit:10"
         d="m 133.715,355.678 -0.348,17.763 c 18.75,6.252 42.624,10.291 71.622,12.109 0.834,-8.189 2.816,-15.955 5.943,-23.304 -5.919,0.826 -15.235,1.256 -27.925,1.293 -12.727,0.069 -28.886,-2.543 -48.5,-7.817 l -0.792,-0.044 z"
         id="path885" />
      <path
         inkscape:connector-curvature="0"
         style="fill:#5189c6"
         d="m 190.637,408.45 25.127,-2.742 1.472,13.475 c -7.894,9.103 -16.273,10.019 -25.128,2.744 l -1.471,-13.477 z"
         id="path887" />
      <path
         inkscape:connector-curvature="0"
         style="fill:#241c1d"
         d="m 211.375,402.352 c 0.38,0.253 0.941,0.532 1.705,0.83 l 3.004,1.162 0.318,-1.697 -0.475,-0.176 0.674,-3.662 0.465,0.178 0.299,-1.694 -3.262,-1.267 c -0.625,-0.247 -1.124,-0.382 -1.499,-0.427 -0.364,-0.027 -0.676,0.074 -0.926,0.3 -0.25,0.226 -0.408,0.541 -0.486,0.947 -0.079,0.407 -0.041,0.764 0.108,1.069 0.137,0.317 0.346,0.571 0.605,0.78 -0.397,-0.004 -0.726,0.117 -0.995,0.355 -0.268,0.247 -0.432,0.56 -0.505,0.937 -0.072,0.476 -0.033,0.925 0.137,1.345 0.17,0.427 0.444,0.768 0.833,1.02 m 3.182,-4.498 -0.23,1.289 -0.455,-0.17 c -0.316,-0.116 -0.511,-0.255 -0.576,-0.411 -0.066,-0.173 -0.086,-0.344 -0.058,-0.516 0.031,-0.165 0.101,-0.306 0.203,-0.401 0.112,-0.1 0.362,-0.079 0.738,0.062 l 0.378,0.147 z m -0.706,3.959 -0.476,-0.174 c -0.287,-0.123 -0.491,-0.251 -0.603,-0.401 -0.113,-0.157 -0.143,-0.362 -0.104,-0.613 0.049,-0.243 0.136,-0.396 0.271,-0.458 0.146,-0.062 0.376,-0.04 0.704,0.084 l 0.445,0.182 -0.237,1.38 z"
         id="path889" />
      <path
         inkscape:connector-curvature="0"
         style="fill:#241c1d"
         d="m 206.624,401.722 0.042,-1.618 0.587,0.078 c 0.005,-0.305 -0.032,-0.56 -0.101,-0.751 -0.07,-0.21 -0.203,-0.376 -0.406,-0.505 -0.195,-0.14 -0.5,-0.23 -0.903,-0.272 l -0.164,-0.012 0.07,-2.235 c 0.334,0.029 0.589,0.086 0.78,0.188 0.171,0.086 0.35,0.256 0.531,0.511 0.181,0.257 0.307,0.548 0.39,0.871 l 0.032,-1.277 2.376,0.291 -0.053,1.603 -0.519,-0.059 -0.06,1.887 0.52,0.066 -0.044,1.601 -3.078,-0.367 z"
         id="path891" />
      <path
         inkscape:connector-curvature="0"
         style="fill:#241c1d"
         d="m 199.411,402.176 -0.156,-1.604 0.458,-0.062 -0.354,-3.492 2.477,-0.279 0.165,1.604 -0.513,0.068 0.156,1.624 c 0.195,0.131 0.41,0.184 0.646,0.166 0.178,-0.019 0.282,-0.105 0.322,-0.261 0.041,-0.15 0.039,-0.423 0.004,-0.838 l -0.255,-2.43 2.438,-0.277 0.157,1.605 -0.459,0.052 0.122,1.211 c 0.09,0.921 0.02,1.565 -0.225,1.935 -0.254,0.377 -0.574,0.574 -0.959,0.606 -0.534,0.068 -1.096,-0.116 -1.666,-0.549 l 0.062,0.647 -2.42,0.274 z"
         id="path893" />
      <path
         inkscape:connector-curvature="0"
         style="fill:#241c1d"
         d="m 193.145,399.576 c 0.152,-0.443 0.46,-0.745 0.927,-0.92 0.529,-0.178 1.077,-0.126 1.65,0.172 l -0.146,-0.639 2.354,-0.874 0.371,1.565 -0.465,0.162 0.436,1.843 0.468,-0.164 0.376,1.545 -2.873,1.071 -0.379,-1.554 0.528,-0.199 -0.377,-1.555 c -0.23,-0.107 -0.433,-0.122 -0.595,-0.048 -0.191,0.068 -0.292,0.184 -0.323,0.357 -0.029,0.164 0.017,0.491 0.136,0.972 l 0.535,2.202 -2.32,0.852 -0.367,-1.545 0.429,-0.161 -0.299,-1.267 c -0.188,-0.767 -0.217,-1.371 -0.066,-1.815"
         id="path895" />
      <path
         inkscape:connector-curvature="0"
         style="fill:#241c1d"
         d="m 187.471,405.179 c 0.258,0.703 0.698,1.159 1.298,1.36 0.602,0.21 1.263,0.09 1.966,-0.341 0.764,-0.472 1.279,-1.068 1.533,-1.8 0.244,-0.719 0.239,-1.45 -0.021,-2.181 -0.265,-0.682 -0.694,-1.139 -1.279,-1.351 -0.6,-0.21 -1.254,-0.101 -1.975,0.338 -0.73,0.442 -1.227,1.027 -1.498,1.76 -0.289,0.736 -0.292,1.475 -0.024,2.215 m 2.987,-1.856 c 0.264,0.75 0.212,1.24 -0.169,1.481 -0.42,0.255 -0.759,0.008 -1.041,-0.751 -0.125,-0.346 -0.175,-0.644 -0.146,-0.884 0.041,-0.262 0.143,-0.445 0.329,-0.56 0.188,-0.105 0.377,-0.107 0.553,0.006 0.173,0.126 0.332,0.356 0.474,0.708"
         id="path897" />
      <path
         inkscape:connector-curvature="0"
         style="fill:#255f27"
         d="m 275.233,346.079 32.702,1.441 c -2.184,13.983 -0.898,25.475 3.846,34.471 0.008,0.011 0.028,0.028 0.037,0.058 0.433,0.682 0.833,1.388 1.195,2.116 2.896,5.49 4.337,11.726 4.324,18.702 -0.019,9.585 -2.752,17.748 -8.212,24.502 -5.392,6.678 -11.885,10.021 -19.492,10.02 -7.589,-0.02 -14.081,-3.379 -19.456,-10.073 -5.416,-6.768 -8.121,-14.938 -8.104,-24.523 0.009,-4.484 0.616,-8.658 1.81,-12.519 0.622,-1.964 1.411,-3.803 2.386,-5.511 1.17,-2.047 2.314,-4.096 3.447,-6.133 l 0.018,-0.02 c 4.267,-8.425 6.102,-19.273 5.499,-32.531"
         id="path899" />
      <path
         inkscape:connector-curvature="0"
         style="fill:none;stroke:#255f27;stroke-width:1.54120004;stroke-linecap:round;stroke-linejoin:round;stroke-miterlimit:10"
         d="m 307.936,347.521 c -2.184,13.983 -0.899,25.475 3.845,34.471 0.009,0.01 0.028,0.028 0.038,0.058 0.432,0.682 0.832,1.388 1.195,2.116 2.896,5.49 4.337,11.726 4.324,18.702 -0.019,9.584 -2.753,17.749 -8.212,24.502 -5.392,6.678 -11.886,10.021 -19.493,10.02 -7.589,-0.02 -14.08,-3.379 -19.457,-10.073 -5.415,-6.767 -8.12,-14.939 -8.103,-24.523 0.009,-4.484 0.615,-8.658 1.81,-12.519 0.622,-1.964 1.41,-3.802 2.385,-5.511 1.171,-2.048 2.314,-4.095 3.446,-6.133 l 0.02,-0.02 c 4.266,-8.426 6.103,-19.273 5.498,-32.531 l 32.704,1.441 z"
         id="path901" />
      <path
         inkscape:connector-curvature="0"
         style="fill:#9fc94c"
         d="m 276.046,346.874 30.986,1.365 c -2.037,13.792 -0.684,25.163 4.041,34.101 0.03,0.03 0.049,0.067 0.068,0.104 0.421,0.652 0.812,1.342 1.165,2.05 v 0.021 c 2.848,5.385 4.259,11.508 4.246,18.352 -0.018,9.396 -2.701,17.407 -8.043,24.038 h -0.01 c -5.224,6.474 -11.512,9.712 -18.864,9.729 -7.352,-0.036 -13.628,-3.294 -18.837,-9.771 v -0.008 c -5.309,-6.647 -7.955,-14.666 -7.938,-24.062 0.009,-4.409 0.595,-8.507 1.77,-12.302 0.602,-1.916 1.381,-3.699 2.327,-5.368 v 0.008 c 1.152,-2.027 2.294,-4.056 3.406,-6.065 0.03,-0.04 0.06,-0.076 0.08,-0.123 4.235,-8.352 6.099,-19.039 5.603,-32.069"
         id="path903" />
      <path
         inkscape:connector-curvature="0"
         style="fill:#9fc94c"
         d="m 292.115,367.95 c -4.095,-1.582 -8.637,-1.835 -13.633,-0.754 -7.009,2.077 -11.993,6.858 -14.958,14.322 -0.323,0.934 -0.617,2.246 -0.874,3.918 l 10.726,0.015 c -0.244,-1.122 -0.401,-2.372 -0.486,-3.759 0.085,1.387 0.242,2.637 0.486,3.759 0.639,2.929 1.825,4.968 3.571,6.124 0.416,0.189 0.821,0.322 1.227,0.396 0.765,0.161 1.529,0.118 2.294,-0.155 0.208,-0.076 0.405,-0.17 0.596,-0.274 0.539,-0.321 0.973,-0.781 1.294,-1.378 0.388,-0.725 0.607,-1.518 0.673,-2.358 0.049,-0.68 0.05,-1.37 -0.005,-2.066 -0.01,-0.2 -0.028,-0.388 -0.048,-0.586 0.02,0.198 0.038,0.386 0.048,0.586 0.055,0.696 0.054,1.387 0.005,2.066 -0.066,0.841 -0.285,1.634 -0.673,2.358 -0.322,0.597 -0.756,1.057 -1.294,1.378 0.16,0.728 0.357,1.446 0.591,2.145 0.725,2.136 2.139,3.647 4.225,4.547 0.792,0.248 1.539,0.212 2.238,-0.109 0.643,-0.387 1.2,-0.848 1.683,-1.405 0.075,-0.084 0.151,-0.179 0.217,-0.264 0.095,-0.113 0.18,-0.226 0.254,-0.34 0.066,-0.085 0.124,-0.177 0.19,-0.264 0.046,-0.074 0.084,-0.15 0.133,-0.227 0.35,-0.603 0.653,-1.282 0.89,-2.029 0.427,-1.415 0.628,-3.096 0.583,-5.051 0.045,1.955 -0.155,3.636 -0.583,5.051 -0.236,0.747 -0.54,1.427 -0.89,2.029 -0.049,0.076 -0.086,0.152 -0.133,0.227 0.424,0.482 0.649,0.738 0.679,0.765 0.037,0.028 0.066,0.068 0.094,0.104 1.271,1.259 2.754,1.685 4.455,1.263 2.325,-0.932 3.752,-2.78 4.284,-5.526 0.21,-1.36 0.316,-2.674 0.328,-3.938 0.011,-1.16 -0.073,-2.295 -0.242,-3.381 v -0.018 c -0.028,-0.133 -0.047,-0.265 -0.066,-0.388 -0.103,-0.586 -0.232,-1.163 -0.384,-1.729 -0.066,-0.265 -0.15,-0.529 -0.236,-0.794 0.086,0.265 0.17,0.529 0.236,0.794 0.151,0.565 0.281,1.143 0.384,1.729 0.019,0.123 0.038,0.255 0.066,0.388 0.548,-0.048 1.021,-0.17 1.418,-0.385 0.329,-0.181 0.603,-0.407 0.823,-0.699 0.282,-0.377 0.481,-0.849 0.604,-1.406 0.362,-3.04 -0.406,-5.837 -2.301,-8.389 -0.01,-0.019 -0.028,-0.038 -0.038,-0.056 l -0.312,-0.397 c -0.028,-0.036 -0.065,-0.076 -0.093,-0.111 -2.016,-2.508 -4.695,-4.41 -8.046,-5.728"
         id="path905" />
      <path
         inkscape:connector-curvature="0"
         style="fill:none;stroke:#255f27;stroke-width:1.51040006;stroke-linecap:round;stroke-linejoin:round;stroke-miterlimit:10"
         d="m 273.376,385.45 c -0.244,-1.123 -0.402,-2.372 -0.486,-3.759 m 17.573,14.161 c 0.424,0.48 0.649,0.737 0.679,0.764 0.037,0.028 0.066,0.067 0.094,0.104 1.272,1.259 2.754,1.685 4.455,1.263 2.325,-0.932 3.752,-2.78 4.284,-5.526 0.211,-1.36 0.316,-2.674 0.327,-3.938 0.012,-1.16 -0.072,-2.295 -0.241,-3.381 v -0.018 m 0,-10e-4 c -0.028,-0.134 -0.047,-0.264 -0.064,-0.388 -0.104,-0.586 -0.234,-1.163 -0.386,-1.729 -0.066,-0.265 -0.15,-0.529 -0.236,-0.794 m -18.311,9.333 c 0.159,0.729 0.356,1.446 0.591,2.145 0.724,2.136 2.138,3.647 4.226,4.547 0.792,0.248 1.539,0.212 2.237,-0.109 0.643,-0.385 1.2,-0.849 1.683,-1.405 0.075,-0.084 0.151,-0.179 0.217,-0.264 0.095,-0.112 0.179,-0.226 0.254,-0.34 0.066,-0.085 0.123,-0.178 0.19,-0.263 m 0.001,0 c 0.046,-0.075 0.084,-0.151 0.133,-0.228 0.35,-0.604 0.653,-1.282 0.89,-2.029 0.427,-1.414 0.627,-3.096 0.583,-5.052 m -18.693,-3.093 c 0.639,2.929 1.825,4.969 3.571,6.123 0.415,0.19 0.82,0.323 1.226,0.397 0.765,0.161 1.53,0.118 2.295,-0.155 0.208,-0.076 0.405,-0.17 0.596,-0.274 m 0,0 c 0.539,-0.321 0.973,-0.781 1.294,-1.378 0.388,-0.725 0.607,-1.516 0.673,-2.357 0.049,-0.682 0.05,-1.371 -0.005,-2.067 -0.011,-0.2 -0.028,-0.388 -0.048,-0.586 m 17.083,-0.034 c 0.548,-0.048 1.021,-0.17 1.418,-0.385 0.33,-0.181 0.603,-0.407 0.823,-0.699 0.282,-0.377 0.481,-0.849 0.604,-1.407 0.362,-3.039 -0.408,-5.836 -2.301,-8.388 -0.01,-0.019 -0.028,-0.038 -0.038,-0.056 l -0.311,-0.397 c -0.029,-0.037 -0.066,-0.076 -0.094,-0.111 -2.019,-2.505 -4.698,-4.408 -8.048,-5.725 -4.095,-1.583 -8.637,-1.835 -13.633,-0.754 -7.009,2.076 -11.993,6.858 -14.958,14.322 -0.323,0.934 -0.617,2.246 -0.874,3.918 l 10.726,0.015"
         id="path907" />
      <path
         inkscape:connector-curvature="0"
         style="fill:#b0b6d5"
         d="m 301.579,410.894 1.134,12.805 c 0.381,4.277 2.353,6.338 5.903,6.164 l 20.113,0.028 c 3.597,0.164 5.205,-1.882 4.824,-6.149 -0.524,-3.439 -0.869,-7.131 -1.043,-11.087 -0.063,-1.239 -0.138,-2.069 -0.222,-2.513 -0.103,-0.831 -0.233,-1.539 -0.394,-2.135 -0.713,-2.295 -2.517,-3.374 -5.396,-3.255 l -20.112,-0.027 c -3.58,-0.167 -5.179,1.888 -4.807,6.169 m 5.214,-1.542 20.094,0.028 c 0.52,0.122 0.821,0.643 0.905,1.55 l 1.152,12.804 c 0.076,0.897 -0.133,1.406 -0.625,1.549 l -20.111,-0.027 c -0.5,-0.152 -0.793,-0.672 -0.868,-1.55 L 306.207,410.9 c -0.085,-0.898 0.104,-1.408 0.586,-1.548"
         id="path909" />
      <path
         inkscape:connector-curvature="0"
         style="fill:none;stroke:#737a91;stroke-width:1.51040006;stroke-linecap:round;stroke-linejoin:round;stroke-miterlimit:10"
         d="m 306.793,409.352 c -0.483,0.141 -0.671,0.649 -0.587,1.548 l 1.133,12.806 c 0.075,0.878 0.368,1.397 0.868,1.55 l 20.111,0.027 c 0.492,-0.143 0.701,-0.651 0.625,-1.549 l -1.152,-12.804 c -0.083,-0.907 -0.385,-1.428 -0.905,-1.55 l -20.093,-0.028 z m -5.214,1.542 c -0.372,-4.28 1.228,-6.336 4.806,-6.169 l 20.112,0.027 c 2.879,-0.119 4.683,0.96 5.396,3.255 0.16,0.596 0.291,1.304 0.394,2.135 0.084,0.443 0.159,1.273 0.222,2.513 0.175,3.954 0.52,7.647 1.043,11.087 0.382,4.268 -1.227,6.313 -4.824,6.149 l -20.113,-0.028 c -3.55,0.174 -5.522,-1.887 -5.903,-6.164 l -1.133,-12.805 z"
         id="path911" />
      <rect
         x="309.35699"
         y="401.44299"
         transform="matrix(-1,-0.0014,0.0014,-1,632.9181,812.7295)"
         style="fill:#c6cee3"
         width="14.769"
         height="9.4040003"
         id="rect913" />
      <rect
         x="309.35699"
         y="401.44299"
         transform="matrix(-1,-0.0014,0.0014,-1,632.9181,812.7295)"
         style="fill:none;stroke:#737a91;stroke-width:1.51040006;stroke-linecap:round;stroke-linejoin:round;stroke-miterlimit:10"
         width="14.769"
         height="9.4040003"
         id="rect915" />
      <path
         inkscape:connector-curvature="0"
         style="fill:#b0b6d5"
         d="m 244.562,384.922 c 0.748,-0.649 1.655,-0.97 2.721,-0.969 l 2.814,-0.023 c 2.058,0.163 4.222,0.271 6.496,0.302 1.163,0.02 2.342,0.03 3.551,0.031 8.055,-0.129 13.4,-0.235 16.015,-0.297 l 23.361,-0.225 c 5.025,-0.096 10.68,-0.022 16.978,0.213 1.435,0.051 2.898,0.116 4.399,0.186 1.926,0.05 3.691,0.053 5.307,0.007 l 2.624,-0.072 0.378,-0.009 c 1.059,0.001 1.974,0.324 2.738,0.977 0.52,0.463 0.848,1.003 1.009,1.598 0.064,0.255 0.102,0.727 0.101,1.436 l -0.002,1.71 c -0.001,1.066 -0.372,1.973 -1.118,2.716 -0.766,0.755 -1.853,1.169 -3.25,1.243 h -0.01 c -3.068,0.174 -6.139,0.235 -9.225,0.176 -1.388,-0.03 -3.854,-0.127 -7.403,-0.312 -4.711,-0.091 -9.376,-0.099 -13.994,-0.02 l -19.045,-0.026 c -2.889,0.158 -5.779,0.144 -8.669,-0.06 -2.776,-0.031 -5.552,-0.092 -8.328,-0.162 -2.842,-0.081 -5.684,-0.064 -8.527,0.037 -1.134,0.026 -2.267,0.051 -3.4,0.078 -0.217,0 -0.443,-10e-4 -0.661,0.01 -0.566,0.017 -1.208,0.035 -1.925,0.054 h -0.047 -0.181 c -1.066,-0.001 -1.972,-0.381 -2.717,-1.139 -0.754,-0.746 -1.13,-1.652 -1.129,-2.718 l 0.004,-2.334 c 0.001,-0.935 0.379,-1.738 1.135,-2.408"
         id="path917" />
      <path
         inkscape:connector-curvature="0"
         style="fill:#c6cee3"
         d="m 249.422,393.466 c 0.218,-0.011 0.444,-0.01 0.661,-0.01 1.134,-0.027 2.267,-0.052 3.399,-0.078 2.845,-0.101 5.686,-0.117 8.528,-0.037 2.775,0.07 5.552,0.131 8.327,0.162 2.89,0.203 5.78,0.217 8.667,0.06 l 19.048,0.026 c 4.617,-0.079 9.281,-0.071 13.993,0.02 3.55,0.185 6.015,0.281 7.403,0.312 3.087,0.059 6.157,-0.003 9.226,-0.178 -0.105,0.964 -0.192,2.05 -0.25,3.249 l -0.063,3.673 c 0,0.123 0,0.256 0.01,0.387 0.035,1.701 0.052,3.323 0.041,4.863 l -0.24,9.479 c -0.057,0.783 -0.114,1.538 -0.181,2.258 l -0.079,1.567 c -0.163,2.615 -0.337,5.071 -0.52,7.345 -0.038,0.443 -0.078,0.879 -0.114,1.302 -0.088,1.104 -0.164,2.238 -0.232,3.4 -0.029,0.501 -0.04,1.011 -0.04,1.529 l 0,0.36 c 0.018,1.002 0.063,1.991 0.146,2.983 0.029,0.294 0.047,0.576 0.076,0.851 v 0.056 c 0.103,0.839 0.196,1.688 0.28,2.531 0.122,1.067 0.204,2.135 0.231,3.211 0.01,0.132 0.01,0.265 0.01,0.398 0.008,0.234 0,0.472 -0.021,0.708 -0.009,0.254 -0.039,0.507 -0.076,0.762 -0.199,1.172 -0.494,2.332 -0.874,3.473 -0.18,0.577 -0.39,1.163 -0.647,1.74 -0.151,0.347 -0.521,1.857 -1.119,4.529 -0.246,0.859 -0.313,1.652 -0.2,2.38 0.112,0.709 0.393,1.35 0.856,1.926 0.263,0.342 0.471,0.767 0.621,1.27 0.273,0.896 0.375,2.065 0.297,3.51 -0.029,0.597 -0.086,1.248 -0.171,1.945 l -1.101,18.602 -0.003,2.69 c -0.228,0.027 -0.457,0.065 -0.672,0.111 -0.68,0.17 -1.361,0.35 -2.033,0.545 -0.707,0.029 -1.406,0.046 -2.113,0.074 -0.594,0.064 -1.2,0.103 -1.796,0.11 -0.056,0 -0.112,-10e-4 -0.169,0.009 -0.66,0.012 -1.321,0.01 -1.993,-0.002 -0.604,-0.011 -1.208,-0.031 -1.811,-0.06 -0.663,-0.031 -1.313,-0.05 -1.955,-0.058 -0.615,-0.011 -1.228,-0.002 -1.833,0.022 -0.595,0.029 -1.18,0.046 -1.754,0.045 -0.689,-0.008 -1.377,-0.029 -2.088,-0.068 -0.443,-0.03 -0.887,-0.048 -1.331,-0.075 -1.501,-0.108 -2.73,-0.298 -3.683,-0.563 -1.565,-0.447 -3.531,-0.126 -5.892,0.964 -0.501,0.238 -1.031,0.5 -1.569,0.8 -3.053,1.716 -6.102,1.901 -9.142,0.564 -0.245,-0.104 -0.5,-0.208 -0.754,-0.294 -2.916,-0.872 -5.844,-1.649 -8.796,-2.325 -0.124,-0.038 -0.236,-0.078 -0.361,-0.112 -0.348,-0.113 -0.706,-0.211 -1.055,-0.277 -0.718,-0.141 -1.437,-0.188 -2.154,-0.142 -0.216,0.018 -0.444,0.054 -0.661,0.11 -0.718,0.14 -1.425,0.375 -2.135,0.688 -0.443,0.139 -0.897,0.234 -1.359,0.301 -1.957,0.354 -3.013,0.542 -3.173,0.568 -1.286,0.19 -2.306,0.283 -3.051,0.282 -1.239,-0.003 -2.522,-0.062 -3.833,-0.165 -0.803,-0.07 -2.163,-0.202 -4.06,-0.426 l -3.173,-0.105 0.003,-2.417 c 0.01,-0.302 0.01,-0.604 0.011,-0.896 -0.028,-7.818 -0.338,-15.752 -0.931,-23.797 -0.427,-4.251 -0.66,-7.472 -0.705,-9.663 -0.017,-0.972 0.002,-1.745 0.061,-2.311 0.096,-0.975 0.154,-1.785 0.184,-2.437 0.029,-0.579 0.02,-1.022 -0.008,-1.342 -0.056,-0.51 -0.196,-1.075 -0.414,-1.699 -0.074,-0.208 -0.159,-0.426 -0.243,-0.642 -1.025,-2.184 -1.619,-3.846 -1.78,-4.988 -0.054,-0.436 -0.054,-0.793 0.014,-1.077 0.274,-1.067 0.644,-1.916 1.097,-2.528 0.398,-0.52 0.607,-1.708 0.639,-3.579 0.008,-0.408 0.001,-0.831 -0.009,-1.294 l -0.073,-2.285 0,-0.075 c 0.032,-9.527 -0.286,-18.903 -0.944,-28.14 -0.092,-1.321 -0.194,-2.841 -0.314,-4.552 0.715,-0.018 1.357,-0.035 1.922,-0.053"
         id="path919" />
      <polygon
         style="fill:#b0b6d5"
         points="329.046,384.065 329.207,384.065 328.829,384.074 "
         id="polygon921" />
      <path
         inkscape:connector-curvature="0"
         style="fill:#c6cee3"
         d="m 328.425,396.992 c 0.058,-1.199 0.145,-2.285 0.25,-3.248 h 0.01 c -0.106,1.048 -0.193,2.088 -0.25,3.116 0,0.037 0,0.085 -0.01,0.132"
         id="path923" />
      <path
         inkscape:connector-curvature="0"
         style="fill:#b0b6d5"
         d="m 296.186,487.774 c 2.362,-1.09 4.329,-1.411 5.894,-0.964 0.953,0.266 2.181,0.456 3.682,0.563 0.444,0.027 0.888,0.045 1.332,0.075 0.71,0.039 1.398,0.061 2.088,0.068 0.575,10e-4 1.16,-0.016 1.755,-0.043 0.605,-0.026 1.219,-0.035 1.833,-0.024 0.642,0.008 1.292,0.029 1.955,0.058 0.604,0.028 1.207,0.049 1.812,0.06 0.671,0.012 1.332,0.014 1.992,0.002 0.057,-0.01 0.112,-0.009 0.169,-0.009 0.596,-0.008 1.199,-0.046 1.794,-0.11 0.708,-0.028 1.408,-0.045 2.115,-0.074 0.369,0.012 0.729,0.031 1.085,0.042 0.539,0.025 1.08,0.049 1.617,0.077 0.141,0.01 0.293,0.01 0.443,0.018 0.16,0.011 0.321,0.011 0.481,0.012 1.52,0.748 2.282,1.967 2.28,3.667 l -0.004,2.927 c -0.001,1.067 -0.332,1.972 -1.004,2.718 -0.69,0.754 -1.523,1.129 -2.477,1.128 l -73.878,-0.101 c -0.973,-10e-4 -1.783,-0.378 -2.453,-1.135 -0.68,-0.747 -1.02,-1.654 -1.018,-2.72 l 0.004,-2.927 c 0.001,-1.07 0.344,-1.985 1.025,-2.739 0.615,-0.679 1.343,-1.044 2.202,-1.102 l 3.174,0.105 c 1.896,0.224 3.256,0.355 4.059,0.426 1.312,0.103 2.595,0.162 3.833,0.165 0.745,10e-4 1.767,-0.092 3.051,-0.281 0.161,-0.027 1.217,-0.215 3.173,-0.569 0.463,-0.066 0.916,-0.162 1.359,-0.301 0.709,-0.312 1.417,-0.548 2.135,-0.688 0.217,-0.057 0.446,-0.093 0.661,-0.11 0.718,-0.047 1.436,10e-4 2.153,0.142 0.351,0.066 0.708,0.164 1.057,0.277 0.123,0.034 0.236,0.074 0.358,0.112 2.955,0.676 5.882,1.453 8.798,2.325 0.255,0.086 0.509,0.189 0.755,0.294 3.039,1.337 6.089,1.151 9.141,-0.564 0.539,-0.3 1.069,-0.561 1.569,-0.8"
         id="path925" />
      <path
         inkscape:connector-curvature="0"
         style="fill:none;stroke:#737a91;stroke-width:1.51040006;stroke-linecap:round;stroke-linejoin:round;stroke-miterlimit:10"
         d="m 247.498,393.52 h -0.047 -0.18 c -1.066,-10e-4 -1.973,-0.382 -2.718,-1.139 -0.754,-0.746 -1.13,-1.652 -1.129,-2.719 l 0.004,-2.333 c 0.001,-0.935 0.379,-1.737 1.135,-2.407 0.747,-0.649 1.655,-0.97 2.721,-0.969 l 2.814,-0.022 c 2.057,0.162 4.219,0.27 6.495,0.301 1.164,0.019 2.342,0.03 3.552,0.031 8.055,-0.129 13.399,-0.235 16.015,-0.296 l 23.361,-0.225 c 5.025,-0.098 10.68,-0.023 16.978,0.211 1.435,0.052 2.899,0.117 4.398,0.187 1.927,0.049 3.692,0.052 5.308,0.007 l 2.624,-0.072 0.378,-0.009 c 1.059,0.001 1.974,0.324 2.738,0.977 0.519,0.463 0.848,1.003 1.009,1.598 0.064,0.255 0.102,0.728 0.101,1.435 l -0.002,1.71 c -10e-4,1.067 -0.372,1.974 -1.118,2.717 -0.766,0.754 -1.852,1.17 -3.249,1.243 h -0.011 m -0.001,-0.002 c -3.068,0.174 -6.138,0.235 -9.226,0.177 -1.388,-0.03 -3.853,-0.127 -7.402,-0.312 -4.711,-0.091 -9.376,-0.099 -13.993,-0.02 l -19.046,-0.026 c -2.889,0.158 -5.779,0.144 -8.668,-0.06 -2.776,-0.031 -5.551,-0.092 -8.328,-0.162 -2.842,-0.081 -5.684,-0.064 -8.527,0.037 -1.134,0.026 -2.266,0.051 -3.4,0.078 -0.218,0 -0.443,-0.001 -0.661,0.009 -0.565,0.018 -1.207,0.036 -1.925,0.055 m 0,0 c 0.12,1.71 0.222,3.231 0.314,4.553 0.658,9.234 0.976,18.611 0.943,28.139 l 0,0.075 0.072,2.285 c 0.011,0.463 0.018,0.886 0.01,1.294 -0.031,1.871 -0.242,3.06 -0.639,3.579 -0.453,0.612 -0.824,1.461 -1.098,2.528 -0.067,0.284 -0.067,0.642 -0.012,1.077 0.159,1.143 0.753,2.805 1.778,4.988 0.083,0.216 0.169,0.434 0.243,0.642 0.218,0.624 0.358,1.189 0.414,1.699 0.028,0.319 0.037,0.763 0.008,1.342 -0.03,0.653 -0.087,1.463 -0.183,2.437 -0.058,0.565 -0.077,1.341 -0.06,2.311 0.045,2.191 0.277,5.412 0.705,9.663 0.593,8.045 0.902,15.979 0.931,23.797 0,0.292 -0.001,0.595 -0.011,0.896 l -0.003,2.417 m 78.136,-103.177 -2.709,-0.022 m -1.027,102.677 0.003,-2.69 1.102,-18.602 c 0.085,-0.697 0.142,-1.349 0.172,-1.945 0.078,-1.444 -0.025,-2.614 -0.298,-3.51 -0.149,-0.503 -0.358,-0.928 -0.621,-1.27 -0.462,-0.576 -0.745,-1.217 -0.856,-1.926 -0.113,-0.728 -0.046,-1.521 0.2,-2.38 0.599,-2.672 0.968,-4.183 1.12,-4.529 0.257,-0.577 0.465,-1.163 0.646,-1.74 0.38,-1.141 0.674,-2.301 0.874,-3.473 0.037,-0.255 0.067,-0.508 0.076,-0.762 0.02,-0.236 0.029,-0.474 0.02,-0.708 0,-0.134 0,-0.267 -0.01,-0.398 -0.027,-1.076 -0.109,-2.144 -0.23,-3.211 -0.084,-0.843 -0.179,-1.692 -0.281,-2.531 v -0.056 c -0.028,-0.274 -0.047,-0.557 -0.074,-0.851 -0.082,-0.992 -0.129,-1.981 -0.146,-2.983 l 0,-0.36 c 0,-0.519 0.011,-1.028 0.039,-1.529 0.068,-1.162 0.144,-2.292 0.233,-3.4 0.036,-0.423 0.076,-0.858 0.114,-1.302 0.182,-2.273 0.356,-4.729 0.52,-7.345 l 0.079,-1.568 c 0.066,-0.718 0.124,-1.474 0.181,-2.257 l 0.24,-9.479 c 0.013,-1.539 -0.004,-3.162 -0.04,-4.862 -0.01,-0.132 -0.009,-0.266 -0.009,-0.389 l 0.062,-3.671 c 0.059,-1.2 0.145,-2.285 0.25,-3.249 m -77.766,93.497 3.174,0.105 c 1.896,0.224 3.256,0.355 4.058,0.426 1.312,0.103 2.596,0.162 3.833,0.165 0.746,10e-4 1.767,-0.092 3.051,-0.28 0.161,-0.028 1.218,-0.216 3.173,-0.57 0.462,-0.066 0.916,-0.162 1.359,-0.301 0.709,-0.312 1.417,-0.548 2.135,-0.688 0.218,-0.057 0.445,-0.093 0.661,-0.11 0.718,-0.047 1.436,10e-4 2.153,0.142 0.351,0.066 0.708,0.164 1.057,0.277 0.123,0.034 0.236,0.074 0.36,0.112 2.953,0.676 5.88,1.453 8.796,2.325 0.254,0.086 0.508,0.189 0.754,0.294 3.04,1.337 6.09,1.151 9.142,-0.564 0.538,-0.3 1.068,-0.562 1.568,-0.8 2.362,-1.09 4.328,-1.411 5.893,-0.964 0.954,0.266 2.181,0.456 3.682,0.563 0.444,0.027 0.888,0.045 1.332,0.075 0.71,0.039 1.398,0.061 2.088,0.068 0.576,10e-4 1.16,-0.016 1.755,-0.042 0.605,-0.027 1.219,-0.036 1.833,-0.025 0.642,0.008 1.292,0.029 1.955,0.058 0.604,0.028 1.208,0.049 1.812,0.06 0.671,0.012 1.332,0.014 1.992,0.002 0.057,-0.01 0.114,-0.009 0.169,-0.009 0.596,-0.008 1.201,-0.046 1.794,-0.11 0.708,-0.028 1.408,-0.045 2.115,-0.074 0.369,0.012 0.729,0.031 1.086,0.042 0.538,0.025 1.078,0.049 1.617,0.078 0.139,0.009 0.292,0.009 0.442,0.017 0.16,0.011 0.32,0.011 0.481,0.012 1.52,0.748 2.282,1.967 2.28,3.667 l -0.004,2.927 c -10e-4,1.067 -0.332,1.972 -1.004,2.718 -0.69,0.754 -1.521,1.129 -2.477,1.128 l -73.878,-0.101 c -0.973,-10e-4 -1.783,-0.378 -2.453,-1.135 -0.68,-0.747 -1.019,-1.654 -1.017,-2.72 l 0.004,-2.927 c 10e-4,-1.07 0.343,-1.984 1.024,-2.739 0.618,-0.679 1.346,-1.044 2.205,-1.102 z"
         id="path927" />
      <path
         inkscape:connector-curvature="0"
         style="fill:#b0b6d5"
         d="m 256.216,398.31 h 0.018 c 1.133,-0.026 2.115,0.891 2.942,2.742 0.876,1.824 1.335,4.034 1.37,6.63 l 0.109,30.406 c 0.583,1.332 0.978,2.87 1.173,4.608 0.096,0.773 0.149,1.588 0.16,2.438 0.099,2.191 -0.176,3.918 -0.819,5.173 l 0.683,24.363 c 0.035,2.294 -0.319,4.257 -1.045,5.907 -0.722,1.626 -1.62,2.438 -2.687,2.436 h -0.02 c -1.028,-10e-4 -1.953,-0.814 -2.754,-2.442 -0.79,-1.652 -1.212,-3.617 -1.275,-5.911 l -0.28,-28.744 c 0.556,-0.443 0.851,-1.518 0.889,-3.228 0.012,-0.236 0.012,-0.482 0.001,-0.738 l -1.255,-6.251 -1.077,-28.027 c -0.042,-2.597 0.298,-4.806 1.048,-6.627 0.749,-1.851 1.686,-2.765 2.819,-2.735"
         id="path929" />
      <path
         inkscape:connector-curvature="0"
         style="fill:#b0b6d5"
         d="m 266.711,401.062 c 0.769,-1.849 1.723,-2.766 2.856,-2.735 h 0.019 c 1.133,-0.027 2.104,0.893 2.904,2.743 0.83,1.823 1.26,4.035 1.295,6.63 l 0.289,37.334 0.84,6.764 c 0.159,0.831 0.024,2.259 -0.422,4.285 l -0.081,18.603 c 0.033,2.296 -0.329,4.258 -1.085,5.909 -0.719,1.626 -1.618,2.436 -2.704,2.434 h -0.018 c -1.021,-10e-4 -1.936,-0.812 -2.736,-2.44 -0.762,-1.655 -1.174,-3.618 -1.237,-5.912 l 0.127,-22.19 c 0.642,-1.48 0.871,-3.182 0.685,-5.081 l -1.292,-7.325 -0.542,-32.391 c -0.027,-2.597 0.344,-4.806 1.102,-6.628"
         id="path931" />
      <path
         inkscape:connector-curvature="0"
         style="fill:#b0b6d5"
         d="m 279.705,401.08 c 0.786,-1.849 1.731,-2.765 2.856,-2.735 h 0.019 c 1.133,-0.026 2.104,0.892 2.904,2.743 0.828,1.823 1.242,4.034 1.238,6.629 l 0.217,48.289 -0.837,3.911 c -0.2,0.896 -0.117,2.632 0.257,5.228 l 0.346,9.559 c -0.003,2.295 -0.395,4.256 -1.159,5.907 -0.75,1.627 -1.647,2.437 -2.705,2.436 h -0.019 c -1.059,-0.002 -1.963,-0.814 -2.718,-2.442 -0.752,-1.653 -1.136,-3.616 -1.161,-5.912 l -0.418,-66.985 c -0.006,-2.597 0.385,-4.807 1.18,-6.628"
         id="path933" />
      <path
         inkscape:connector-curvature="0"
         style="fill:#b0b6d5"
         d="m 295.496,398.363 c 1.144,-0.027 2.104,0.89 2.886,2.742 0.791,1.824 1.165,4.034 1.124,6.629 l -0.539,7.648 0.337,2.455 -0.767,36.11 -0.628,3.547 c -0.447,1.598 -0.138,3.948 0.914,7.045 l 0.025,10.179 c 0.005,2.296 -0.385,4.257 -1.18,5.908 -0.757,1.626 -1.675,2.437 -2.742,2.435 h -0.019 c -1.048,-0.002 -1.944,-0.813 -2.697,-2.441 -0.753,-1.653 -1.128,-3.616 -1.125,-5.911 l -0.154,-10.991 -0.43,-3.645 0.683,-2.512 0.182,-49.838 c 0.003,-2.596 0.413,-4.805 1.218,-6.626 0.795,-1.85 1.76,-2.765 2.893,-2.734 h 0.019 z"
         id="path935" />
      <path
         inkscape:connector-curvature="0"
         style="fill:#b0b6d5"
         d="m 307.999,398.38 h 0.019 c 1.141,-0.027 2.104,0.891 2.867,2.743 0.781,1.822 1.137,4.033 1.067,6.63 l -1.503,7.384 1.054,3.417 -1.009,33.653 c -0.653,2.577 -0.989,5.068 -0.992,7.476 l 0.845,3.832 0.343,11.221 c -0.031,2.295 -0.449,4.257 -1.254,5.908 -0.787,1.626 -1.694,2.436 -2.742,2.435 h -0.018 c -1.058,-0.002 -1.955,-0.813 -2.679,-2.442 -0.725,-1.653 -1.081,-3.616 -1.05,-5.91 l 0.503,-9.12 c 0.03,-0.974 -0.036,-1.72 -0.187,-2.248 -0.139,-0.528 -0.252,-0.88 -0.356,-1.059 -0.086,-0.179 -0.179,-0.388 -0.264,-0.622 -0.273,-0.72 -0.404,-1.446 -0.392,-2.192 0,-0.528 0.047,-1.05 0.152,-1.564 0.162,-0.833 0.37,-1.654 0.626,-2.476 l 0.382,-2.361 0.5,-33.955 c -0.754,-1.786 -1.177,-3.107 -1.26,-3.948 l 0.552,-2.963 0.573,-4.477 c 0.05,-2.595 0.486,-4.805 1.311,-6.625 0.833,-1.852 1.807,-2.767 2.912,-2.737"
         id="path937" />
      <path
         inkscape:connector-curvature="0"
         style="fill:#b0b6d5"
         d="m 320.557,398.397 h 0.019 c 1.143,-0.026 2.086,0.891 2.811,2.743 0.762,1.823 1.118,3.636 1.069,5.439 0.046,0.303 0.066,0.596 0.036,0.889 -0.085,0.677 -0.333,1.282 -0.719,1.811 -0.426,0.575 -0.72,1.237 -0.871,1.962 -0.068,0.293 -0.144,0.709 -0.229,1.265 0.33,0.9 0.629,1.918 0.902,3.08 l 0.432,1.758 -1.71,35.802 -1.499,4.004 c -0.52,1.503 -0.372,2.909 0.448,4.231 0.688,0.803 1.083,2.435 1.165,4.895 -0.269,2.602 -0.226,5.428 0.121,8.478 -0.051,2.294 -0.488,4.255 -1.292,5.907 -0.805,1.626 -1.751,2.437 -2.818,2.435 h -0.019 c -1.03,-0.002 -1.916,-0.814 -2.64,-2.441 -0.707,-1.654 -1.034,-3.617 -0.994,-5.912 l 0.224,-10.424 c -0.705,-3.088 -0.919,-5.241 -0.653,-6.459 l 0.742,-3.812 1.655,-35.616 c 0.009,-0.379 -0.132,-0.822 -0.435,-1.322 -0.301,-0.503 -0.629,-1.361 -0.996,-2.571 -0.085,-0.339 -0.16,-0.595 -0.227,-0.773 l 1.12,-4.948 c 0.115,-0.575 0.183,-1.226 0.192,-1.942 -0.044,-2.002 0.356,-3.92 1.199,-5.74 0.86,-1.855 1.843,-2.768 2.967,-2.739"
         id="path939" />
      <path
         inkscape:connector-curvature="0"
         style="fill:#b0b6d5"
         d="m 244.946,416.947 -0.67,6.155 c -0.261,3.542 0.824,5.562 3.24,6.068 0.406,0.036 0.803,0.076 1.209,0.114 0.461,0.047 0.924,0.096 1.379,0.135 0.972,0.066 1.935,0.134 2.89,0.209 2.114,0.042 4.124,0.016 6.024,-0.065 1.331,-0.084 2.558,-0.138 3.681,-0.145 2.495,-0.158 4.987,-0.203 7.48,-0.123 1.802,-0.121 3.107,-0.912 3.931,-2.356 0.075,-0.196 0.143,-0.405 0.209,-0.604 0.236,-0.791 0.397,-1.604 0.475,-2.435 l 0.596,-7.402 c 0.009,-0.158 0.028,-0.328 0.037,-0.489 0.048,-0.68 0.096,-1.362 0.135,-2.04 0.039,-0.747 0.069,-1.494 0.08,-2.248 0.009,-0.539 0.058,-1.086 0.133,-1.644 0.077,-0.594 0.105,-1.189 0.098,-1.793 -0.008,-0.454 -0.083,-0.898 -0.206,-1.322 -0.114,-0.378 -0.254,-0.746 -0.415,-1.113 -0.764,-1.211 -2.141,-1.771 -4.133,-1.688 l -20.113,-0.027 c -3.56,-0.166 -5.498,1.892 -5.806,6.167 l -0.254,6.646 z m 5.733,-8.187 20.114,0.028 c 0.48,0.123 0.688,0.643 0.62,1.548 l -0.157,4.343 -0.766,8.46 c -0.039,0.492 -0.143,0.868 -0.303,1.135 l -0.397,0.377 c -0.653,0.121 -1.616,0.214 -2.892,0.258 -1.254,0.036 -3.455,0.147 -6.59,0.332 -3.135,0.186 -6.788,-0.018 -10.952,-0.617 -0.039,-0.029 -0.068,-0.058 -0.096,-0.097 -0.386,-0.521 -0.498,-1.323 -0.336,-2.417 0.053,-4.185 0.36,-8.111 0.904,-11.802 0.067,-0.897 0.35,-1.408 0.851,-1.548"
         id="path941" />
      <path
         inkscape:connector-curvature="0"
         style="fill:none;stroke:#737a91;stroke-width:1.51040006;stroke-linecap:round;stroke-linejoin:round;stroke-miterlimit:10"
         d="m 245.201,410.3 -0.255,6.647 -0.67,6.155 c -0.261,3.542 0.824,5.562 3.24,6.068 0.406,0.036 0.803,0.076 1.209,0.114 0.461,0.047 0.924,0.096 1.379,0.135 0.972,0.066 1.935,0.134 2.89,0.209 2.114,0.042 4.124,0.016 6.024,-0.065 1.331,-0.084 2.558,-0.138 3.681,-0.145 2.495,-0.158 4.987,-0.203 7.48,-0.123 1.802,-0.121 3.107,-0.912 3.931,-2.356 0.075,-0.196 0.143,-0.405 0.209,-0.604 0.236,-0.791 0.397,-1.604 0.475,-2.435 l 0.596,-7.402 c 0.009,-0.158 0.028,-0.328 0.037,-0.489 0.048,-0.68 0.096,-1.362 0.135,-2.04 0.039,-0.747 0.069,-1.494 0.08,-2.248 0.009,-0.539 0.058,-1.086 0.133,-1.644 0.077,-0.594 0.105,-1.189 0.098,-1.793 -0.008,-0.454 -0.083,-0.898 -0.206,-1.322 -0.114,-0.378 -0.254,-0.746 -0.415,-1.113 -0.764,-1.211 -2.141,-1.771 -4.133,-1.688 l -20.113,-0.027 c -3.559,-0.167 -5.497,1.89 -5.805,6.166 z m 5.478,-1.54 c -0.501,0.141 -0.785,0.651 -0.852,1.548 -0.543,3.69 -0.851,7.617 -0.904,11.802 -0.162,1.094 -0.049,1.896 0.336,2.417 0.027,0.039 0.057,0.067 0.096,0.097 4.164,0.6 7.816,0.803 10.952,0.617 3.135,-0.185 5.336,-0.296 6.59,-0.332 1.275,-0.044 2.239,-0.137 2.892,-0.258 l 0.397,-0.377 c 0.16,-0.267 0.264,-0.643 0.303,-1.135 l 0.766,-8.46 0.157,-4.343 c 0.068,-0.905 -0.14,-1.425 -0.62,-1.548 l -20.113,-0.028 z"
         id="path943" />
      <path
         inkscape:connector-curvature="0"
         style="fill:#c6cee3"
         d="m 253.124,403.382 c 0.039,-0.881 0.578,-1.33 1.625,-1.34 l 7.062,-0.027 c 1.313,-0.056 2.531,-0.063 3.646,-0.034 1.407,-0.026 2.238,0.24 2.482,0.798 0.139,1.256 0.166,2.699 0.06,4.324 l -0.043,4.23 c -0.151,0.124 -0.293,0.218 -0.435,0.263 -0.652,0.112 -1.295,0.151 -1.926,0.111 l -0.151,-10e-4 h -0.263 c -2.826,0.007 -5.574,0.022 -8.255,0.027 l -3.456,0.05 c -0.292,-0.708 -0.421,-1.406 -0.412,-2.115 l 0.066,-6.286 z"
         id="path945" />
      <path
         inkscape:connector-curvature="0"
         style="fill:none;stroke:#737a91;stroke-width:1.51040006;stroke-linecap:round;stroke-linejoin:round;stroke-miterlimit:10"
         d="m 254.749,402.042 7.062,-0.027 c 1.313,-0.056 2.531,-0.062 3.645,-0.034 1.41,-0.025 2.239,0.239 2.483,0.799 0.139,1.255 0.166,2.698 0.06,4.323 l -0.044,4.23 c -0.15,0.124 -0.292,0.218 -0.433,0.263 -0.653,0.111 -1.295,0.151 -1.928,0.11 l -0.152,-0.001 h -0.262 c -2.826,0.008 -5.573,0.023 -8.254,0.028 l -3.457,0.05 c -0.292,-0.708 -0.421,-1.406 -0.412,-2.114 l 0.066,-6.287 c 0.04,-0.881 0.578,-1.33 1.626,-1.34 z"
         id="path947" />
      <path
         inkscape:connector-curvature="0"
         style="fill:#255f27"
         d="m 312.487,370.053 c -0.643,0.52 -1.248,1.085 -1.815,1.716 v 0.019 c -0.557,0.603 -1.041,1.247 -1.458,1.924 0,0.01 -0.008,0.03 -0.019,0.039 -0.444,0.668 -0.805,1.377 -1.099,2.134 l 0,-0.02 c -0.311,0.764 -0.541,1.557 -0.664,2.36 v 0.019 c -0.076,0.577 -0.114,1.161 -0.115,1.735 v 0.038 c 0.028,0.634 0.094,1.276 0.205,1.927 l 0.019,0.021 c 0.15,0.745 0.404,1.463 0.771,2.153 l 0.019,0.019 c 0.48,0.915 1.179,1.502 2.113,1.74 0.576,0.123 1.16,0.162 1.738,0.115 0.634,-0.085 1.199,-0.233 1.702,-0.431 0.564,-0.216 1.084,-0.518 1.567,-0.925 0.142,-0.103 0.275,-0.205 0.417,-0.32 -0.028,0.19 -0.048,0.377 -0.058,0.567 -0.201,2.35 -0.015,4.692 0.556,7.025 0.686,2.807 2.269,4.895 4.751,6.259 1.435,0.804 2.935,0.947 4.494,0.421 h -0.019 c 2.115,-0.649 3.572,-1.885 4.368,-3.694 1.252,2.238 3.1,3.583 5.546,4.009 2.691,0.487 4.711,-0.644 6.067,-3.392 0.462,-0.951 0.758,-1.944 0.872,-2.961 1.123,0.235 2.067,0.189 2.833,-0.149 1.058,-0.412 1.806,-1.319 2.251,-2.717 v 0.021 c 0.806,-2.464 0.828,-4.901 0.047,-7.31 -0.751,-2.333 -1.806,-4.468 -3.164,-6.426 -1.347,-1.936 -2.913,-3.657 -4.715,-5.143 v -0.018 c -1.81,-1.504 -3.82,-2.649 -6.019,-3.446 h 0.019 c -2.18,-0.835 -4.53,-1.28 -7.061,-1.332 -2.464,-0.05 -4.948,0.212 -7.442,0.803 l -0.019,0.018 c -1.361,0.349 -2.606,0.779 -3.743,1.297 -0.026,0 -0.045,0.009 -0.075,0.039 -1.215,0.707 -2.18,1.329 -2.87,1.866 m 7.067,-1.747 c 2.351,-0.562 4.703,-0.815 7.044,-0.765 2.353,0.051 4.542,0.47 6.57,1.239 2.041,0.729 3.899,1.799 5.568,3.197 1.687,1.4 3.159,3.018 4.431,4.86 1.281,1.824 2.27,3.837 2.976,6.027 0.677,2.089 0.664,4.214 -0.047,6.365 -0.084,0.292 -0.199,0.556 -0.34,0.794 l -0.17,0.282 c -0.804,0.896 -1.787,1.139 -2.948,0.751 -0.03,-0.009 -0.056,-0.028 -0.095,-0.037 0,-0.142 -0.036,-0.625 -0.11,-1.456 -0.076,-0.841 -0.366,-1.745 -0.867,-2.721 l -1.017,-1.55 c 0.151,0.67 0.262,1.219 0.338,1.644 0.009,0.104 0.028,0.207 0.036,0.321 0.235,1.654 0.251,3.298 0.051,4.949 -0.229,1.876 -1.033,3.425 -2.405,4.661 -0.784,0.536 -1.709,0.725 -2.795,0.543 -0.642,-0.122 -1.237,-0.332 -1.792,-0.605 -0.341,-0.189 -0.652,-0.398 -0.943,-0.626 -0.199,-0.149 -0.408,-0.321 -0.604,-0.51 -0.453,-0.426 -0.801,-0.869 -1.037,-1.323 -0.235,-0.454 -0.471,-0.954 -0.697,-1.493 -0.216,-0.557 -0.385,-1.38 -0.524,-2.476 -0.113,-1.104 -0.441,-2.22 -0.979,-3.323 0.101,1.85 0.118,3.322 0.069,4.418 -0.106,2.002 -0.92,3.636 -2.462,4.907 -0.48,0.311 -1.028,0.573 -1.661,0.772 h -0.02 c -1.133,0.375 -2.218,0.271 -3.266,-0.306 -0.01,-0.012 -0.029,-0.021 -0.057,-0.021 -0.227,-0.161 -0.463,-0.332 -0.698,-0.491 -1.396,-0.994 -2.385,-2.316 -2.96,-3.952 -0.525,-1.521 -0.836,-3.108 -0.918,-4.762 -0.083,-1.649 0.042,-3.266 0.385,-4.851 l 0.59,-2.777 c -1.106,1.437 -1.901,2.357 -2.383,2.775 -0.03,0.027 -0.18,0.16 -0.454,0.396 -0.275,0.235 -0.757,0.536 -1.437,0.886 -0.679,0.338 -1.304,0.507 -1.871,0.506 -0.708,-0.028 -1.359,-0.256 -1.962,-0.683 -0.453,-0.349 -0.755,-0.823 -0.906,-1.397 -0.187,-0.672 -0.3,-1.361 -0.336,-2.078 -0.037,-0.689 -0.007,-1.416 0.097,-2.171 0.077,-0.614 0.257,-1.2 0.532,-1.758 0.009,-0.009 0.019,-0.029 0.019,-0.037 0.265,-0.669 0.597,-1.293 0.985,-1.887 l 0.02,-0.018 c 0.369,-0.614 0.793,-1.199 1.286,-1.736 h 0.018 c 0.502,-0.576 1.051,-1.094 1.628,-1.546 h -0.021 c 0.643,-0.5 1.533,-1.084 2.666,-1.733 1.067,-0.48 2.24,-0.875 3.495,-1.205 h -0.022 z"
         id="path949" />
      <path
         inkscape:connector-curvature="0"
         style="fill:#9fc94c"
         d="m 319.571,368.306 h -0.018 c 2.351,-0.562 4.703,-0.815 7.044,-0.765 2.352,0.051 4.542,0.47 6.571,1.239 2.04,0.729 3.898,1.799 5.566,3.197 1.688,1.4 3.16,3.018 4.432,4.86 1.282,1.824 2.271,3.837 2.976,6.027 0.677,2.089 0.664,4.214 -0.047,6.365 -0.084,0.292 -0.199,0.556 -0.34,0.794 l -0.169,0.282 c -0.804,0.896 -1.787,1.139 -2.948,0.751 -0.03,-0.009 -0.056,-0.028 -0.095,-0.037 0,-0.142 -0.037,-0.625 -0.11,-1.456 -0.075,-0.841 -0.366,-1.745 -0.866,-2.721 l -1.018,-1.55 c 0.151,0.67 0.264,1.219 0.338,1.644 0.009,0.104 0.028,0.207 0.036,0.321 0.235,1.654 0.251,3.298 0.051,4.949 -0.229,1.876 -1.033,3.425 -2.405,4.661 -0.784,0.536 -1.709,0.725 -2.795,0.543 -0.642,-0.122 -1.237,-0.332 -1.792,-0.605 -0.341,-0.189 -0.651,-0.398 -0.943,-0.626 -0.199,-0.149 -0.408,-0.321 -0.604,-0.51 -0.454,-0.426 -0.802,-0.869 -1.037,-1.323 -0.235,-0.454 -0.47,-0.954 -0.697,-1.493 -0.215,-0.557 -0.385,-1.38 -0.525,-2.476 -0.112,-1.104 -0.441,-2.22 -0.978,-3.323 0.101,1.85 0.118,3.322 0.07,4.418 -0.107,2.002 -0.921,3.636 -2.463,4.907 -0.48,0.311 -1.029,0.573 -1.661,0.772 h -0.02 c -1.133,0.375 -2.218,0.271 -3.267,-0.306 -0.01,-0.012 -0.029,-0.021 -0.057,-0.021 -0.226,-0.161 -0.463,-0.332 -0.698,-0.491 -1.396,-0.994 -2.385,-2.316 -2.96,-3.952 -0.525,-1.521 -0.836,-3.108 -0.918,-4.762 -0.083,-1.649 0.042,-3.266 0.384,-4.851 l 0.59,-2.777 c -1.107,1.437 -1.902,2.357 -2.383,2.775 -0.03,0.027 -0.18,0.16 -0.454,0.396 -0.275,0.235 -0.757,0.536 -1.437,0.886 -0.679,0.338 -1.304,0.507 -1.871,0.506 -0.708,-0.028 -1.359,-0.256 -1.962,-0.683 -0.453,-0.349 -0.754,-0.823 -0.906,-1.397 -0.187,-0.672 -0.3,-1.361 -0.336,-2.078 -0.037,-0.689 -0.007,-1.416 0.097,-2.171 0.077,-0.614 0.257,-1.2 0.532,-1.758 0.009,-0.009 0.019,-0.029 0.019,-0.037 0.266,-0.669 0.597,-1.293 0.985,-1.887 l 0.02,-0.018 c 0.369,-0.614 0.793,-1.199 1.286,-1.736 h 0.019 c 0.5,-0.576 1.05,-1.094 1.626,-1.546 h -0.021 c 0.643,-0.5 1.533,-1.084 2.667,-1.733 1.065,-0.48 2.238,-0.874 3.492,-1.204"
         id="path951" />
      <path
         inkscape:connector-curvature="0"
         style="fill:#255f27"
         d="m 300.748,373.203 v -0.01 c -2.102,-2.599 -4.885,-4.586 -8.359,-5.942 -4.227,-1.64 -8.919,-1.899 -14.067,-0.792 -0.019,0.008 -0.037,0.008 -0.056,0.019 -1.984,0.581 -3.809,1.382 -5.471,2.39 l 0.019,-0.009 c -0.142,0.076 -0.273,0.159 -0.398,0.246 -0.159,0.094 -0.31,0.197 -0.472,0.311 -0.18,0.122 -0.282,0.284 -0.312,0.482 -0.038,0.198 0,0.386 0.123,0.566 0.113,0.171 0.274,0.273 0.48,0.313 0.199,0.027 0.388,-0.009 0.566,-0.124 0.133,-0.094 0.266,-0.178 0.397,-0.253 0.01,-0.009 0.019,-0.02 0.029,-0.027 h 0.01 c 0.104,-0.067 0.207,-0.133 0.322,-0.2 0,-0.009 0.008,-0.009 0.018,-0.009 1.541,-0.933 3.233,-1.676 5.063,-2.23 0.011,0 0.03,0 0.039,-0.01 h 0.01 0.01 c 4.808,-1.031 9.196,-0.79 13.152,0.737 h -0.011 c 3.22,1.259 5.795,3.085 7.736,5.496 h 0.009 c 0.019,0.028 0.047,0.066 0.077,0.096 0,0.008 0.01,0.008 0.019,0.018 l 0.264,0.341 c 0.009,0.018 0.029,0.038 0.038,0.057 0.009,0.008 0.009,0.018 0.018,0.028 1.763,2.373 2.486,4.979 2.163,7.801 l 1.52,0.002 c 0.324,-3.144 -0.492,-6.032 -2.445,-8.67 l -0.008,-0.01 c -0.01,-0.009 -0.01,-0.02 -0.02,-0.029 -0.009,-0.008 -0.009,-0.008 -0.009,-0.019 -0.009,-0.009 -0.019,-0.027 -0.028,-0.036 l -0.311,-0.397 c -0.011,-0.01 -0.021,-0.019 -0.021,-0.029 -0.029,-0.042 -0.066,-0.079 -0.094,-0.107"
         id="path953" />
      <path
         inkscape:connector-curvature="0"
         style="fill:#255f27"
         d="m 299.178,382.492 0.81,10e-4 c -0.083,-0.141 -0.169,-0.284 -0.252,-0.408 -0.265,-0.367 -0.492,-0.555 -0.67,-0.566 l 0.112,0.973 z"
         id="path955" />
      <path
         inkscape:connector-curvature="0"
         style="fill:#255f27"
         d="m 299.989,382.493 -0.811,-10e-4 0.269,2.389 c 0,0.038 0,0.076 0.01,0.104 0.018,0.302 0.036,0.605 0.056,0.916 0.026,0.613 0.054,1.22 0.072,1.834 0.028,0.688 0.009,1.378 -0.051,2.067 -0.057,0.735 -0.152,1.576 -0.294,2.512 -0.011,0.009 -0.011,0.018 -0.011,0.027 -0.475,2.425 -1.733,4.066 -3.764,4.924 -1.19,0.271 -2.247,0.063 -3.182,-0.628 -0.162,-0.122 -0.32,-0.266 -0.481,-0.427 -0.046,-0.045 -0.085,-0.094 -0.132,-0.141 -0.009,-0.009 -0.009,-0.009 -0.02,-0.019 1.052,-2.18 1.385,-4.38 1.012,-6.599 -0.093,-0.558 -0.311,-1.078 -0.65,-1.541 0.01,0.198 0.009,0.407 -10e-4,0.613 -0.05,2.107 -0.535,4.125 -1.453,6.061 -0.086,0.18 -0.17,0.35 -0.257,0.51 -0.028,0.048 -0.055,0.104 -0.093,0.151 -0.03,0.058 -0.066,0.113 -0.105,0.18 -0.009,0.009 -0.019,0.028 -0.028,0.047 -0.055,0.065 -0.112,0.14 -0.16,0.207 -0.009,0.01 -0.009,0.01 -0.009,0.02 -0.067,0.083 -0.142,0.179 -0.217,0.273 -0.009,0.009 -0.009,0.009 -0.02,0.02 -0.066,0.074 -0.132,0.15 -0.198,0.235 -0.445,0.48 -0.946,0.885 -1.522,1.227 -0.331,0.14 -0.68,0.194 -1.038,0.187 -0.218,-0.011 -0.445,-0.048 -0.681,-0.116 -0.424,-0.178 -0.811,-0.378 -1.159,-0.604 -0.247,-0.151 -0.472,-0.313 -0.689,-0.481 h -0.01 -0.009 c -0.917,-0.776 -1.575,-1.778 -1.991,-2.997 -0.176,-0.511 -0.326,-1.029 -0.459,-1.561 0.114,-0.092 0.227,-0.187 0.332,-0.29 1.332,-1.501 1.855,-3.257 1.556,-5.247 -0.113,-0.767 -0.415,-1.409 -0.905,-1.938 0.272,1.359 0.138,2.672 -0.384,3.945 -0.339,0.821 -0.803,1.558 -1.381,2.208 -0.132,0.123 -0.273,0.227 -0.434,0.321 l -0.009,0.008 h -0.011 c -0.008,0.011 -0.027,0.021 -0.036,0.028 -0.141,0.068 -0.284,0.132 -0.425,0.188 -0.623,0.216 -1.246,0.264 -1.878,0.13 h -0.021 c -0.327,-0.067 -0.669,-0.18 -1.009,-0.331 -1.546,-1.089 -2.612,-2.959 -3.193,-5.614 -0.158,-0.745 -0.28,-1.538 -0.364,-2.397 -0.01,-0.142 -0.029,-0.294 -0.036,-0.437 l -1.522,-0.002 c 0.01,0.049 0.009,0.095 0.019,0.143 0.01,0.14 0.028,0.283 0.037,0.424 v 0.011 c 0.085,0.925 0.215,1.787 0.394,2.587 0.685,3.154 1.984,5.348 3.891,6.587 0.027,0.019 0.066,0.036 0.104,0.058 0.471,0.219 0.944,0.368 1.405,0.454 0.842,0.181 1.673,0.137 2.503,-0.127 0.122,0.452 0.252,0.897 0.404,1.341 0.574,1.709 1.553,3.062 2.94,4.055 0.482,0.33 1.029,0.624 1.624,0.879 0.048,0.021 0.094,0.039 0.141,0.066 0.029,0.012 0.058,0.021 0.086,0.029 1.027,0.303 1.991,0.258 2.899,-0.147 0.019,-0.008 0.037,-0.026 0.065,-0.036 0.747,-0.424 1.398,-0.945 1.957,-1.557 v -0.01 c 0.01,0.018 0.027,0.038 0.047,0.048 0.029,0.028 0.065,0.066 0.096,0.095 l 0.111,0.105 c 0.132,0.122 0.263,0.235 0.396,0.339 1.329,1.031 2.86,1.344 4.569,0.923 0.027,-0.011 0.065,-0.028 0.094,-0.038 2.58,-1.023 4.16,-3.055 4.75,-6.085 v -0.027 c 0.217,-1.398 0.323,-2.747 0.336,-4.041 0.009,-0.954 -0.045,-1.879 -0.147,-2.775 0.34,-0.084 0.651,-0.199 0.925,-0.35 0.426,-0.235 0.775,-0.538 1.069,-0.904 v -0.009 c 0.35,-0.463 0.597,-1.03 0.739,-1.698 0.009,-0.029 0.009,-0.048 0.018,-0.066 0.011,-0.085 0.011,-0.159 0.021,-0.228 l -1.521,-0.002 v 0.037 c -0.105,0.405 -0.256,0.756 -0.455,1.048 h -0.01 c -0.161,0.198 -0.35,0.366 -0.578,0.488 -0.141,0.068 -0.284,0.134 -0.443,0.181 -0.009,-0.056 -0.102,-0.34 -0.282,-0.851 -0.125,-0.333 -0.256,-0.634 -0.408,-0.908"
         id="path957" />
      <path
         inkscape:connector-curvature="0"
         style="fill:#255f27"
         d="m 272.135,381.745 c 0.019,0.238 0.037,0.473 0.055,0.708 l 1.522,0.002 c -0.021,-0.207 -0.039,-0.414 -0.047,-0.633 -0.01,-0.062 -0.01,-0.122 -0.019,-0.179 -0.011,-0.208 -0.095,-0.376 -0.254,-0.518 -0.161,-0.143 -0.35,-0.199 -0.548,-0.189 -0.207,0.009 -0.378,0.103 -0.52,0.263 -0.141,0.16 -0.199,0.338 -0.189,0.546"
         id="path959" />
      <path
         inkscape:connector-curvature="0"
         style="fill:#9fc94c"
         d="m 278.698,367.922 h -0.011 -0.009 c -0.009,0.01 -0.027,0.01 -0.039,0.01 -1.831,0.555 -3.523,1.298 -5.063,2.23 -0.009,0 -0.018,0 -0.018,0.009 -0.115,0.066 -0.217,0.133 -0.322,0.199 0.046,0.113 0.216,0.463 0.517,1.05 0.274,0.537 0.463,0.953 0.547,1.264 0.17,0.587 0.319,1.332 0.459,2.24 0.15,0.972 0.225,1.774 0.224,2.397 0,0.708 -0.02,1.181 -0.068,1.426 -0.086,0.492 -0.294,1.039 -0.634,1.633 -0.086,0.143 -0.19,0.406 -0.323,0.774 -0.104,0.294 -0.208,0.511 -0.294,0.668 0.009,0.219 0.027,0.426 0.047,0.634 0.008,0.143 0.026,0.295 0.038,0.437 0.083,0.859 0.204,1.652 0.364,2.397 0.582,2.655 1.646,4.525 3.193,5.614 0.34,0.151 0.681,0.265 1.009,0.331 h 0.021 c 0.633,0.134 1.255,0.086 1.878,-0.13 0.142,-0.056 0.284,-0.121 0.426,-0.188 0.008,-0.008 0.028,-0.018 0.037,-0.028 h 0.01 l 0.009,-0.008 c 0.162,-0.095 0.303,-0.198 0.435,-0.321 0.577,-0.65 1.042,-1.387 1.382,-2.208 0.52,-1.273 0.655,-2.586 0.382,-3.945 0.49,0.528 0.792,1.171 0.904,1.938 0.299,1.99 -0.223,3.746 -1.556,5.247 -0.104,0.104 -0.218,0.198 -0.332,0.29 0.133,0.531 0.284,1.05 0.46,1.561 0.415,1.219 1.074,2.221 1.988,2.998 h 0.01 0.009 c 0.219,0.167 0.444,0.328 0.69,0.479 0.35,0.228 0.737,0.428 1.16,0.605 0.235,0.068 0.463,0.106 0.68,0.114 0.359,0.01 0.708,-0.045 1.039,-0.186 0.576,-0.341 1.078,-0.745 1.522,-1.226 0.067,-0.085 0.133,-0.161 0.199,-0.235 0.01,-0.012 0.01,-0.012 0.019,-0.02 0.076,-0.095 0.15,-0.19 0.218,-0.273 0,-0.01 0,-0.01 0.008,-0.02 0.048,-0.067 0.104,-0.142 0.161,-0.207 0.009,-0.019 0.019,-0.038 0.029,-0.047 0.038,-0.066 0.075,-0.122 0.104,-0.18 0.038,-0.048 0.065,-0.104 0.094,-0.151 0.086,-0.16 0.171,-0.33 0.256,-0.51 0.917,-1.936 1.403,-3.953 1.453,-6.061 0.011,-0.206 0.011,-0.414 0,-0.613 0.34,0.463 0.557,0.983 0.651,1.541 0.373,2.219 0.04,4.419 -1.012,6.6 0.011,0.009 0.011,0.009 0.019,0.018 0.047,0.047 0.085,0.096 0.132,0.141 0.162,0.161 0.321,0.305 0.481,0.427 0.935,0.691 1.992,0.899 3.181,0.628 2.033,-0.857 3.291,-2.499 3.767,-4.924 0,-0.01 0,-0.02 0.01,-0.027 0.142,-0.936 0.238,-1.776 0.295,-2.512 0.059,-0.689 0.078,-1.379 0.051,-2.067 -0.02,-0.615 -0.046,-1.221 -0.073,-1.834 -0.02,-0.311 -0.038,-0.614 -0.056,-0.916 -0.01,-0.027 -0.01,-0.065 -0.01,-0.104 l -0.381,-3.362 c 0.18,0.012 0.405,0.199 0.67,0.566 0.253,0.369 0.481,0.807 0.658,1.314 0.18,0.511 0.273,0.795 0.283,0.851 0.16,-0.047 0.302,-0.112 0.443,-0.181 0.229,-0.122 0.417,-0.29 0.579,-0.488 h 0.009 c 0.2,-0.291 0.351,-0.643 0.456,-1.048 0.334,-2.841 -0.391,-5.447 -2.162,-7.839 -0.009,-0.01 -0.009,-0.02 -0.019,-0.028 -0.009,-0.02 -0.029,-0.04 -0.038,-0.057 l -0.264,-0.341 c -0.009,-0.009 -0.019,-0.009 -0.019,-0.018 -0.029,-0.03 -0.057,-0.067 -0.077,-0.096 h -0.009 c -1.94,-2.41 -4.517,-4.236 -7.736,-5.496 h 0.011 c -3.955,-1.526 -8.345,-1.767 -13.152,-0.736"
         id="path961" />
      <path
         inkscape:connector-curvature="0"
         style="fill:#5a6074"
         d="m 340.723,291.831 0.608,8.165 c -3.52,1.501 -7.536,2.55 -12.065,3.153 -2.607,0.122 -5.976,0.858 -10.108,2.21 -21.795,3.602 -45.276,3.568 -70.456,-0.082 l 0.383,-9.002 91.638,-4.444 z"
         id="path963" />
      <path
         inkscape:connector-curvature="0"
         style="fill:none;stroke:#737a91;stroke-width:1.51040006;stroke-linecap:round;stroke-linejoin:round;stroke-miterlimit:10"
         d="m 340.723,291.831 -91.639,4.443 -0.383,9.002 c 25.18,3.65 48.661,3.684 70.456,0.082 4.132,-1.352 7.501,-2.088 10.108,-2.21 4.53,-0.603 8.546,-1.652 12.065,-3.153 l -0.607,-8.164 z"
         id="path965" />
      <path
         inkscape:connector-curvature="0"
         style="fill:#9fc94c"
         d="m 259.221,305.805 c -1.686,-0.189 -2.905,-0.791 -3.656,-1.81 1.691,-0.213 3.522,-1.132 5.506,-2.759 4.918,-5.68 12.409,-8.931 22.482,-9.755 -0.269,-1.098 -1.002,-2.049 -2.199,-2.848 2.655,-0.485 5.717,-0.21 9.203,0.825 0.827,-0.424 0.864,-1.271 0.117,-2.535 3.458,0.146 6.731,1.661 9.796,4.519 4.129,-1.39 8.35,-1.751 12.649,-1.092 -1.987,0.625 -3.252,1.523 -3.787,2.704 6.108,0.946 11.87,3.875 17.295,8.793 1.984,1.799 3.905,2.841 5.759,3.128 -0.777,1 -2.01,1.568 -3.699,1.716 3.712,5.376 6.815,8.338 9.298,8.888 -0.901,1.035 -2.293,1.583 -4.17,1.644 0.375,0.854 0.873,1.653 1.505,2.388 1.532,1.801 3.835,3.217 6.885,4.266 -1.124,1.692 -3.555,2.32 -7.294,1.866 0.563,0.989 0.994,2.013 1.3,3.074 0.28,0.955 0.401,1.918 0.359,2.899 -0.031,0.952 -0.221,1.873 -0.571,2.754 -0.342,0.865 -0.854,1.716 -1.515,2.565 -0.61,-0.866 -1.319,-1.583 -2.123,-2.167 -0.303,0.891 -0.645,1.764 -1.032,2.617 -0.136,0.292 -0.281,0.591 -0.426,0.881 -2.535,5.033 -6.611,8.969 -12.221,11.801 0.039,-0.792 -0.122,-1.548 -0.48,-2.279 -4.148,3.775 -9.367,6.179 -15.669,7.222 0.076,-0.83 -0.14,-1.597 -0.63,-2.31 -0.385,0.411 -0.794,0.8 -1.241,1.172 -0.429,0.343 -0.886,0.676 -1.363,0.983 -0.503,0.342 -1.036,0.654 -1.585,0.922 -0.626,0.293 -1.29,0.55 -1.98,0.767 -0.358,0.108 -0.729,0.189 -1.105,0.25 -0.682,0.115 -1.37,0.152 -2.068,0.106 -0.593,-0.057 -1.156,-0.175 -1.692,-0.372 -0.61,-0.225 -1.182,-0.476 -1.724,-0.747 -0.572,-0.272 -1.088,-0.588 -1.564,-0.944 -0.486,-0.355 -0.971,-0.72 -1.447,-1.093 -0.486,-0.375 -0.924,-0.794 -1.313,-1.262 -0.509,0.701 -0.747,1.462 -0.69,2.292 -6.273,-1.203 -11.427,-3.738 -15.481,-7.619 -0.377,0.721 -0.555,1.472 -0.538,2.266 -6.648,-3.564 -11.043,-8.666 -13.176,-15.292 -0.891,0.383 -1.719,1.023 -2.485,1.919 -2.348,-3.727 -2.328,-7.545 0.061,-11.457 -3.75,0.356 -6.164,-0.334 -7.245,-2.054 3.078,-0.969 5.416,-2.326 6.993,-4.088 0.649,-0.718 1.169,-1.504 1.567,-2.347 -1.875,-0.109 -3.255,-0.692 -4.127,-1.75 2.496,-0.485 5.673,-3.369 9.521,-8.647"
         id="path967" />
      <path
         inkscape:connector-curvature="0"
         style="fill:none;stroke:#255f27;stroke-width:1.50899994;stroke-linecap:round;stroke-miterlimit:10"
         d="m 259.221,305.805 c -3.848,5.279 -7.025,8.162 -9.521,8.648 0.872,1.059 2.252,1.642 4.127,1.75 -0.398,0.843 -0.917,1.629 -1.567,2.347 -1.577,1.762 -3.915,3.119 -6.993,4.088 1.082,1.719 3.496,2.41 7.245,2.054 -2.389,3.911 -2.409,7.73 -0.061,11.457 0.766,-0.896 1.594,-1.537 2.485,-1.919 2.132,6.626 6.527,11.728 13.176,15.292 -0.017,-0.793 0.161,-1.545 0.538,-2.266 4.054,3.88 9.208,6.416 15.481,7.619 -0.057,-0.83 0.181,-1.591 0.69,-2.292 0.389,0.468 0.828,0.887 1.313,1.262 0.475,0.373 0.962,0.737 1.448,1.093 0.476,0.356 0.992,0.672 1.564,0.944 0.542,0.271 1.114,0.522 1.724,0.747 0.536,0.197 1.099,0.315 1.692,0.372 0.699,0.046 1.387,0.008 2.068,-0.106 0.377,-0.061 0.747,-0.141 1.105,-0.25 0.691,-0.217 1.354,-0.474 1.98,-0.767 0.55,-0.269 1.082,-0.58 1.585,-0.922 0.477,-0.307 0.934,-0.64 1.363,-0.983 0.447,-0.372 0.856,-0.762 1.241,-1.172 0.49,0.712 0.706,1.48 0.63,2.31 6.302,-1.043 11.521,-3.447 15.669,-7.222 0.358,0.731 0.519,1.487 0.48,2.279 5.61,-2.833 9.686,-6.769 12.221,-11.801 0.146,-0.291 0.291,-0.589 0.426,-0.881 0.389,-0.853 0.73,-1.726 1.033,-2.617 0.803,0.585 1.513,1.302 2.123,2.167 0.661,-0.85 1.172,-1.701 1.515,-2.565 0.35,-0.882 0.54,-1.803 0.571,-2.754 0.042,-0.981 -0.08,-1.944 -0.359,-2.899 -0.307,-1.062 -0.737,-2.085 -1.3,-3.074 3.739,0.455 6.17,-0.173 7.294,-1.866 -3.051,-1.049 -5.354,-2.464 -6.887,-4.266 -0.631,-0.734 -1.129,-1.534 -1.504,-2.388 1.876,-0.061 3.269,-0.608 4.17,-1.644 -2.483,-0.55 -5.586,-3.512 -9.298,-8.888 1.689,-0.148 2.922,-0.717 3.699,-1.716 -1.854,-0.288 -3.774,-1.33 -5.759,-3.128 -5.426,-4.917 -11.188,-7.847 -17.295,-8.793 0.534,-1.181 1.8,-2.079 3.787,-2.704 -4.299,-0.659 -8.52,-0.298 -12.649,1.092 -3.065,-2.858 -6.338,-4.372 -9.796,-4.519 0.747,1.264 0.71,2.11 -0.117,2.535 -3.486,-1.035 -6.548,-1.31 -9.203,-0.825 1.197,0.799 1.93,1.75 2.199,2.848 -10.073,0.824 -17.563,4.075 -22.482,9.755 -1.984,1.627 -3.815,2.546 -5.506,2.759 0.749,1.018 1.969,1.619 3.655,1.809 z"
         id="path969" />
      <path
         inkscape:connector-curvature="0"
         style="fill:#1f1a1a"
         d="m 269.548,329.017 c -2.362,-1.058 -4.684,-2.454 -6.961,-4.181 19.771,9.758 39.645,10.784 59.623,3.071 -2.215,1.396 -4.767,2.571 -7.656,3.523 -15.564,4.875 -30.566,4.07 -45.006,-2.413"
         id="path971" />
      <path
         inkscape:connector-curvature="0"
         style="fill:none;stroke:#1f1a1a;stroke-width:0.0095;stroke-linecap:round;stroke-linejoin:round;stroke-miterlimit:10"
         d="m 262.586,324.836 c 19.772,9.756 39.646,10.784 59.623,3.07 -2.214,1.396 -4.766,2.57 -7.655,3.524 -15.564,4.875 -30.565,4.069 -45.006,-2.414 -2.361,-1.058 -4.683,-2.453 -6.962,-4.18 z"
         id="path973" />
      <path
         inkscape:connector-curvature="0"
         style="fill:#ffffff"
         d="m 287.213,306.24 c 2.12,1.525 3.376,3.579 3.776,6.159 0.411,2.578 -0.157,4.927 -1.683,7.04 -1.554,2.12 -3.617,3.385 -6.196,3.796 -2.57,0.4 -4.911,-0.167 -7.014,-1.71 -2.12,-1.526 -3.375,-3.59 -3.788,-6.168 -0.4,-2.58 0.168,-4.921 1.693,-7.024 1.546,-2.12 3.598,-3.385 6.168,-3.778 2.579,-0.41 4.922,0.148 7.044,1.685"
         id="path975" />
      <path
         inkscape:connector-curvature="0"
         style="fill:#ffffff"
         d="m 312.583,306.562 c 2.102,1.526 3.358,3.588 3.778,6.168 0.41,2.571 -0.158,4.91 -1.692,7.032 -1.546,2.121 -3.609,3.386 -6.188,3.797 -2.561,0.409 -4.901,-0.168 -7.014,-1.713 -2.12,-1.535 -3.386,-3.588 -3.795,-6.159 -0.41,-2.579 0.156,-4.929 1.711,-7.041 1.537,-2.121 3.59,-3.377 6.15,-3.77 2.58,-0.408 4.928,0.16 7.05,1.686"
         id="path977" />
      <path
         inkscape:connector-curvature="0"
         style="fill:#1f1a1a"
         d="m 279.002,311.729 c 0.516,-1.009 1.303,-1.68 2.37,-2.028 1.075,-0.351 2.113,-0.27 3.122,0.237 1.01,0.515 1.681,1.303 2.029,2.37 0.348,1.068 0.266,2.1 -0.24,3.107 -0.515,1.012 -1.303,1.683 -2.37,2.032 -1.068,0.348 -2.1,0.267 -3.108,-0.242 -1.009,-0.506 -1.682,-1.295 -2.03,-2.369 -0.355,-1.067 -0.281,-2.097 0.227,-3.107"
         id="path979" />
      <path
         inkscape:connector-curvature="0"
         style="fill:#1f1a1a"
         d="m 301.389,312.089 c 0.514,-1.01 1.301,-1.681 2.371,-2.03 1.074,-0.35 2.112,-0.27 3.121,0.237 1.01,0.514 1.682,1.303 2.029,2.371 0.348,1.067 0.268,2.098 -0.24,3.107 -0.514,1.011 -1.303,1.682 -2.371,2.03 -1.067,0.349 -2.099,0.267 -3.106,-0.241 -1.009,-0.506 -1.68,-1.294 -2.03,-2.37 -0.356,-1.065 -0.283,-2.095 0.226,-3.104"
         id="path981" />
      <path
         inkscape:connector-curvature="0"
         style="fill:#c16513"
         d="m 281.08,298.129 c 0.375,-0.646 1.028,-0.76 1.946,-0.334 3.589,1.733 6.959,3.682 10.109,5.824 0.646,0.442 1.135,0.542 1.487,0.302 4.291,-2.869 7.208,-4.669 8.774,-5.405 1.593,-0.753 2.705,-0.842 3.339,-0.259 0.644,0.564 0.871,1.275 0.671,2.148 5.926,0.33 10.345,1.453 13.262,3.356 2.898,1.886 4.42,3.198 4.561,3.944 0.151,0.729 -0.891,1.055 -3.125,0.968 1.904,1.571 3.445,3.457 4.614,5.669 0.571,1.074 0.824,1.907 0.76,2.5 -0.011,0.075 -0.03,0.149 -0.049,0.236 -0.011,0.045 -0.029,0.083 -0.039,0.121 -0.031,0.065 -0.079,0.112 -0.126,0.158 -0.123,0.122 -0.267,0.214 -0.429,0.297 -0.199,0.102 -0.417,0.173 -0.633,0.228 -0.171,0.063 -0.351,0.108 -0.531,0.152 -3.299,0.685 -6.56,0.472 -9.761,-0.643 -0.091,-3.198 -0.963,-5.792 -2.625,-7.802 -1.645,-2.011 -3.663,-2.745 -6.036,-2.181 -1.864,0.438 -3.484,1.04 -4.852,1.806 l -2.053,1.304 c -1.311,0.86 -2.412,1.468 -3.296,1.825 -0.871,0.357 -1.939,0.512 -3.202,0.478 -1.282,-0.027 -2.681,-0.467 -4.208,-1.327 -1.526,-0.868 -2.659,-1.514 -3.397,-1.939 -0.853,-0.472 -1.772,-0.928 -2.756,-1.345 -1.209,-0.488 -2.414,-0.814 -3.599,-0.971 -1.911,-0.25 -3.433,0.023 -4.565,0.829 -0.562,0.397 -1.031,0.938 -1.407,1.623 -0.396,0.683 -0.716,1.395 -0.981,2.136 -0.47,1.417 -0.595,3.058 -0.362,4.899 -3.418,1.023 -7.072,1.259 -10.958,0.7 -1.149,-0.147 -1.766,-0.569 -1.851,-1.278 -0.131,-0.756 0.314,-1.797 1.322,-3.114 1.497,-1.97 3.044,-3.619 4.646,-4.929 -0.548,0.078 -1.188,0.004 -1.931,-0.213 -1.643,-0.502 -1.689,-1.324 -0.119,-2.463 5.852,-4.15 11.429,-6.012 16.715,-5.587 0.114,-0.57 0.338,-1.143 0.685,-1.713"
         id="path983" />
      <path
         inkscape:connector-curvature="0"
         style="fill:#c6cee3"
         d="m 280.135,272.745 c 0.67,-0.096 1.579,-0.124 2.712,-0.092 2.857,0.183 5.521,0.118 7.989,-0.186 2.468,-0.303 3.981,-0.483 4.539,-0.535 0.094,-0.008 0.198,-0.016 0.301,-0.025 0.521,-0.06 1.201,-0.146 2.043,-0.28 4.322,-0.661 7.252,-0.834 8.807,-0.544 0.594,0.083 1.185,0.391 1.782,0.936 0.093,0.085 0.176,0.171 0.253,0.258 0.438,0.496 0.667,1.093 0.707,1.792 0.437,4.084 0.63,7.947 0.579,11.6 0.04,0.824 -0.215,1.529 -0.779,2.136 -0.535,0.599 -1.209,0.922 -2.03,0.959 -0.823,0.039 -1.527,-0.215 -2.134,-0.76 -0.59,-0.543 -0.903,-1.228 -0.941,-2.05 0.24,-3.027 0.105,-6.098 -0.398,-9.229 -2.332,-0.035 -4.686,0.166 -7.06,0.593 -5.418,0.703 -9.774,1.016 -13.068,0.951 l 0.431,8.662 c 0.04,0.822 -0.216,1.528 -0.779,2.126 -0.536,0.608 -1.209,0.93 -2.031,0.968 -0.803,0.039 -1.518,-0.215 -2.125,-0.741 -0.588,-0.562 -0.911,-1.248 -0.949,-2.068 l -0.583,-11.3 c -0.036,-1.02 0.199,-1.772 0.694,-2.268 0.487,-0.486 1.17,-0.791 2.04,-0.903"
         id="path985" />
      <path
         inkscape:connector-curvature="0"
         style="fill:none;stroke:#737a91;stroke-width:1.51040006;stroke-linecap:round;stroke-linejoin:round;stroke-miterlimit:10"
         d="m 280.135,272.745 c -0.871,0.112 -1.554,0.417 -2.041,0.902 -0.496,0.495 -0.73,1.248 -0.694,2.268 l 0.583,11.3 c 0.038,0.821 0.36,1.507 0.949,2.068 0.608,0.526 1.323,0.78 2.125,0.741 0.822,-0.038 1.496,-0.36 2.031,-0.968 0.563,-0.599 0.819,-1.305 0.779,-2.126 l -0.431,-8.662 c 3.294,0.065 7.65,-0.248 13.067,-0.951 2.375,-0.427 4.729,-0.628 7.061,-0.593 0.503,3.131 0.639,6.202 0.398,9.229 0.038,0.822 0.351,1.507 0.941,2.05 0.607,0.545 1.311,0.799 2.134,0.76 0.821,-0.038 1.495,-0.36 2.03,-0.959 0.563,-0.607 0.818,-1.312 0.779,-2.136 0.051,-3.653 -0.142,-7.516 -0.579,-11.6 -0.04,-0.699 -0.27,-1.296 -0.707,-1.792 -0.077,-0.087 -0.16,-0.173 -0.253,-0.258 -0.597,-0.545 -1.188,-0.853 -1.782,-0.936 -1.555,-0.29 -4.485,-0.117 -8.807,0.544 -0.842,0.133 -1.523,0.22 -2.043,0.28 -0.103,0.009 -0.207,0.017 -0.301,0.025 -0.558,0.052 -2.07,0.232 -4.539,0.535 -2.468,0.304 -5.132,0.368 -7.989,0.186 -1.132,-0.031 -2.04,-0.004 -2.711,0.093 z"
         id="path987" />
      <path
         inkscape:connector-curvature="0"
         style="fill:#b0b6d5"
         d="m 266.891,286.205 c 11.59,-2.289 20.589,-3.145 26.994,-2.563 10.163,0.708 17.167,0.815 21.015,0.338 3.858,-0.467 8.134,-0.485 12.823,-0.047 4.688,0.421 8.685,1.032 11.971,1.813 1.5,1.962 2.075,4.537 1.708,7.723 0,0.021 0,0.048 -0.01,0.077 -0.011,0.105 -0.012,0.218 -0.014,0.34 0.008,0.161 0.015,0.34 0.023,0.538 0.041,0.596 0.137,1.181 0.273,1.749 0.312,1.657 0.26,2.883 -0.154,3.701 -9.395,-0.927 -18.547,-1.555 -27.457,-1.911 -4.331,-0.162 -7.9,-0.229 -10.723,-0.212 l -8.045,0.024 c -8.448,-0.122 -14.298,0.143 -17.552,0.789 l -14.399,2.596 c -5.139,0.963 -10.082,2.326 -14.851,4.084 -0.482,-0.835 -0.712,-2.245 -0.69,-4.218 0.002,-0.141 0.004,-0.274 0.014,-0.405 0.017,-0.632 0.032,-1.152 0.045,-1.577 v -0.019 c 0.013,-0.255 0.016,-0.472 0.028,-0.642 0.013,-0.339 0.025,-0.67 0.03,-1 0.043,-1.369 0.074,-2.52 0.113,-3.445 0.013,-0.236 0.015,-0.462 0.026,-0.689 0.037,-0.65 0.081,-1.254 0.135,-1.83 0.094,-0.773 0.686,-1.324 1.756,-1.652 5.568,-1.611 11.22,-2.805 16.941,-3.562"
         id="path989" />
      <path
         inkscape:connector-curvature="0"
         style="fill:none;stroke:#737a91;stroke-width:1.51040006;stroke-linecap:round;stroke-linejoin:round;stroke-miterlimit:10"
         d="m 266.891,286.205 c -5.721,0.757 -11.373,1.951 -16.941,3.56 -1.07,0.328 -1.662,0.878 -1.756,1.652 -0.054,0.576 -0.098,1.18 -0.135,1.83 -0.011,0.227 -0.013,0.453 -0.026,0.689 -0.039,0.926 -0.07,2.077 -0.113,3.445 -0.005,0.33 -0.017,0.661 -0.03,1 -0.012,0.169 -0.015,0.387 -0.028,0.642 v 0.019 c -0.013,0.425 -0.028,0.944 -0.045,1.577 -0.01,0.131 -0.012,0.265 -0.014,0.405 -0.022,1.974 0.208,3.383 0.69,4.218 4.769,-1.758 9.712,-3.121 14.851,-4.084 l 14.399,-2.596 c 3.254,-0.646 9.104,-0.911 17.552,-0.789 l 8.045,-0.024 c 2.823,-0.016 6.393,0.051 10.723,0.212 8.91,0.355 18.062,0.983 27.457,1.911 0.414,-0.818 0.466,-2.044 0.154,-3.701 -0.136,-0.567 -0.232,-1.153 -0.273,-1.749 -0.008,-0.198 -0.015,-0.377 -0.023,-0.538 0.002,-0.123 0.003,-0.235 0.014,-0.34 0.01,-0.028 0.01,-0.056 0.01,-0.077 0.366,-3.186 -0.209,-5.761 -1.708,-7.723 -3.287,-0.781 -7.283,-1.392 -11.971,-1.813 -4.689,-0.438 -8.965,-0.42 -12.823,0.047 -3.849,0.477 -10.852,0.37 -21.015,-0.338 -6.405,-0.58 -15.405,0.276 -26.994,2.565 z"
         id="path991" />
      <path
         inkscape:connector-curvature="0"
         style="fill:#fdfdfd"
         d="m 247.106,441.878 c -3.224,0.272 -6.356,0.159 -9.411,-0.322 l 2.4,-36.001 c 14.354,-1.976 25.964,0.832 34.814,8.426 4.535,3.885 5.311,7.848 2.329,11.889 -0.401,0.505 -0.817,0.95 -1.258,1.34 -2.287,2.005 -5.154,2.441 -8.598,1.285 -3.14,-1.073 -6.188,-2.677 -9.153,-4.813 2.965,2.137 6.013,3.74 9.153,4.813 3.444,1.156 6.312,0.72 8.598,-1.285 -0.07,2.135 -0.547,4.027 -1.451,5.673 -1.008,1.836 -2.454,3.237 -4.341,4.203 -1.862,0.955 -3.984,1.402 -6.361,1.332 -0.991,-0.03 -1.992,-0.142 -3,-0.343 -1.488,-0.304 -2.992,-0.786 -4.518,-1.466 1.525,0.68 3.029,1.162 4.518,1.466 -2.396,3.899 -6.971,5.17 -13.721,3.803"
         id="path993" />
      <path
         inkscape:connector-curvature="0"
         style="fill:none;stroke:#7d85a0;stroke-width:1.50899994;stroke-linecap:round;stroke-linejoin:round;stroke-miterlimit:10"
         d="m 260.828,438.074 c -2.397,3.899 -6.972,5.171 -13.723,3.804 -3.223,0.272 -6.355,0.159 -9.41,-0.322 l 2.4,-36.001 c 14.354,-1.976 25.964,0.833 34.814,8.425 4.536,3.886 5.312,7.849 2.329,11.89 -0.402,0.505 -0.817,0.95 -1.258,1.34 m 10e-4,-10e-4 c -0.07,2.135 -0.546,4.027 -1.452,5.673 -1.008,1.836 -2.453,3.237 -4.341,4.203 -1.862,0.955 -3.983,1.402 -6.361,1.332 -0.99,-0.03 -1.992,-0.142 -3,-0.343 m 10e-4,0 c -1.488,-0.304 -2.992,-0.786 -4.518,-1.466 m 19.671,-9.399 c -2.287,2.005 -5.154,2.441 -8.599,1.285 -3.139,-1.073 -6.187,-2.677 -9.152,-4.813"
         id="path995" />
      <path
         inkscape:connector-curvature="0"
         style="fill:#72a6d9"
         d="m 184.268,430.795 c -1.625,1.01 -2.983,2.654 -4.083,4.924 -11.917,-5.655 -22.477,-12.944 -31.687,-21.88 2.774,-1.193 14.646,-9.496 35.612,-24.903 16.268,7.043 36.019,10.55 59.244,10.524 l -8.03,50.15 c -11.059,-0.895 -21.423,-2.626 -31.099,-5.181 -0.01,-0.002 -0.02,-0.004 -0.02,-0.004 0.008,-0.077 0.026,-0.148 0.043,-0.223 0.658,-3.062 0.456,-5.648 -0.586,-7.745 -1.156,-2.406 -2.965,-3.969 -5.441,-4.69 l -6.798,-1.98 c -2.462,-0.719 -4.848,-0.384 -7.155,1.008"
         id="path997" />
      <path
         inkscape:connector-curvature="0"
         style="fill:#a74c33"
         d="m 180.184,435.719 c 1.101,-2.27 2.459,-3.914 4.083,-4.924 2.309,-1.392 4.693,-1.727 7.158,-1.008 l 6.799,1.98 c 2.474,0.722 4.283,2.284 5.439,4.69 1.042,2.097 1.244,4.683 0.586,7.745 -0.017,0.074 -0.034,0.146 -0.042,0.223 -8.545,-2.255 -16.549,-5.159 -24.023,-8.706"
         id="path999" />
      <path
         inkscape:connector-curvature="0"
         style="fill:#72a6d9"
         d="m 204.078,444.968 c 0.044,-0.184 0.086,-0.37 0.129,-0.542 0,0 0.009,0.002 0.02,0.004 l -0.149,0.538 z"
         id="path1001" />
      <path
         inkscape:connector-curvature="0"
         style="fill:none;stroke:#003d89;stroke-width:1.50899994;stroke-linecap:square;stroke-linejoin:round;stroke-miterlimit:10"
         d="m 148.498,413.839 c 9.21,8.936 19.77,16.225 31.686,21.88 7.474,3.547 15.477,6.451 24.023,8.707 0,0 0.008,0.002 0.019,0.004 9.676,2.555 20.041,4.286 31.098,5.181 l 8.03,-50.152 c -23.225,0.027 -42.977,-3.479 -59.243,-10.523"
         id="path1003" />
      <path
         inkscape:connector-curvature="0"
         style="fill:#d2e2f0"
         d="m 223.038,450.177 c -1.564,-0.146 -2.264,-1.04 -2.114,-2.69 l 4.593,-49.387 c 0.155,-1.681 1.017,-2.454 2.581,-2.307 l 16.051,1.5 c 1.565,0.146 2.259,1.058 2.104,2.736 l -4.594,49.387 c -0.149,1.649 -1.008,2.407 -2.571,2.259 l -16.05,-1.498 z"
         id="path1005" />
      <path
         inkscape:connector-curvature="0"
         style="fill:none;stroke:#003d89;stroke-width:1.50899994;stroke-linecap:round;stroke-linejoin:round;stroke-miterlimit:10"
         d="m 223.038,450.177 16.05,1.498 c 1.563,0.148 2.422,-0.609 2.571,-2.259 l 4.594,-49.387 c 0.154,-1.679 -0.54,-2.59 -2.104,-2.736 l -16.051,-1.5 c -1.564,-0.147 -2.426,0.626 -2.581,2.307 l -4.593,49.387 c -0.15,1.65 0.549,2.544 2.114,2.69 z"
         id="path1007" />
    </g>
  </g>
</svg>
