<?xml version="1.0" encoding="UTF-8" standalone="no"?>
<!-- Created with Inkscape (http://www.inkscape.org/) -->

<svg
   xmlns:dc="http://purl.org/dc/elements/1.1/"
   xmlns:cc="http://creativecommons.org/ns#"
   xmlns:rdf="http://www.w3.org/1999/02/22-rdf-syntax-ns#"
   xmlns:svg="http://www.w3.org/2000/svg"
   xmlns="http://www.w3.org/2000/svg"
   xmlns:sodipodi="http://sodipodi.sourceforge.net/DTD/sodipodi-0.dtd"
   xmlns:inkscape="http://www.inkscape.org/namespaces/inkscape"
   width="103.85252"
   height="156.65233"
   id="svg5696"
   version="1.1"
   inkscape:version="0.48.4 r9939"
   sodipodi:docname="oscar9.svg">
  <defs
     id="defs5698">
    <clipPath
       id="SVGID_2_">
      <rect
         height="88.862999"
         width="111.498"
         y="518.96198"
         x="382.04999"
         id="use1087" />
    </clipPath>
    <clipPath
       id="SVGID_4_">
      <rect
         height="41.314999"
         width="49.584999"
         y="525.19397"
         x="389.84698"
         id="use1111" />
    </clipPath>
  </defs>
  <sodipodi:namedview
     id="base"
     pagecolor="#ffffff"
     bordercolor="#666666"
     borderopacity="1.0"
     inkscape:pageopacity="0.0"
     inkscape:pageshadow="2"
     inkscape:zoom="0.77472527"
     inkscape:cx="-9.3117021"
     inkscape:cy="107.92085"
     inkscape:current-layer="layer1"
     inkscape:document-units="px"
     showgrid="false"
     inkscape:window-width="763"
     inkscape:window-height="591"
     inkscape:window-x="592"
     inkscape:window-y="97"
     inkscape:window-maximized="0"
     fit-margin-top="0"
     fit-margin-left="0"
     fit-margin-right="0"
     fit-margin-bottom="0" />
  <metadata
     id="metadata5701">
    <rdf:RDF>
      <cc:Work
         rdf:about="">
        <dc:format>image/svg+xml</dc:format>
        <dc:type
           rdf:resource="http://purl.org/dc/dcmitype/StillImage" />
        <dc:title></dc:title>
      </cc:Work>
    </rdf:RDF>
  </metadata>
  <g
     id="layer1"
     inkscape:label="Layer 1"
     inkscape:groupmode="layer"
     transform="translate(-327.255,-36.374885)">
    <g
       transform="translate(199.6918,-543.30764)"
       id="g1385">
      <path
         inkscape:connector-curvature="0"
         style="fill:#9ec94b"
         d="m 196.42,697.406 -18.254,-0.6 c 1.675,7.161 1.52,14.808 -0.455,22.936 l -0.553,2.809 c -0.501,3.523 -0.576,6.115 -0.246,7.774 3.557,1.004 7.653,1.765 12.3,2.302 14.453,1.163 23.612,0.746 27.467,-1.241 1.113,-2.015 1.493,-3.735 1.144,-5.168 -0.51,-2.125 -2.021,-3.944 -4.513,-5.463 -2.512,-1.525 -5.229,-2.608 -8.173,-3.233 -2.837,-0.626 -6.312,-0.901 -10.409,-0.843 1.989,-6.115 2.556,-12.535 1.692,-19.273"
         id="path1387" />
      <path
         inkscape:connector-curvature="0"
         style="fill:none;stroke:#245e27;stroke-width:1.44089997;stroke-linecap:square;stroke-miterlimit:10"
         d="m 178.166,696.807 c 1.675,7.161 1.52,14.808 -0.455,22.936 l -0.553,2.81 c -0.501,3.522 -0.576,6.114 -0.246,7.773 3.557,1.004 7.654,1.765 12.3,2.302 14.453,1.163 23.611,0.744 27.47,-1.241 1.11,-2.015 1.492,-3.735 1.142,-5.168 -0.511,-2.125 -2.021,-3.944 -4.513,-5.463 -2.512,-1.525 -5.229,-2.608 -8.173,-3.233 -2.837,-0.626 -6.311,-0.901 -10.41,-0.843 1.989,-6.114 2.557,-12.535 1.692,-19.271 l -18.254,-0.602 z"
         id="path1389" />
      <path
         inkscape:connector-curvature="0"
         style="fill:#9ec94b"
         d="m 176.483,698.245 -19.007,-0.623 c 1.744,7.456 1.582,15.417 -0.474,23.88 l -0.576,2.924 c -0.521,3.668 -0.599,6.372 -0.255,8.094 3.703,1.046 7.969,1.84 12.807,2.4 15.047,1.212 24.585,0.774 28.603,-1.29 1.156,-2.1 1.551,-3.891 1.188,-5.383 -0.532,-2.215 -2.104,-4.109 -4.7,-5.688 -2.615,-1.589 -5.446,-2.719 -8.51,-3.37 -2.954,-0.65 -6.572,-0.938 -10.84,-0.878 2.073,-6.364 2.663,-13.049 1.764,-20.066"
         id="path1391" />
      <path
         inkscape:connector-curvature="0"
         style="fill:none;stroke:#245e27;stroke-width:1.50020003;stroke-linecap:square;stroke-miterlimit:10"
         d="m 157.476,697.622 c 1.743,7.456 1.581,15.417 -0.473,23.88 l -0.577,2.924 c -0.522,3.669 -0.6,6.372 -0.256,8.094 3.703,1.046 7.969,1.84 12.807,2.4 15.047,1.212 24.585,0.774 28.601,-1.29 1.156,-2.1 1.554,-3.891 1.19,-5.383 -0.532,-2.215 -2.104,-4.109 -4.699,-5.688 -2.616,-1.589 -5.446,-2.719 -8.511,-3.37 -2.954,-0.65 -6.573,-0.938 -10.838,-0.878 2.069,-6.364 2.661,-13.05 1.761,-20.066 l -19.005,-0.623 z"
         id="path1393" />
      <path
         inkscape:connector-curvature="0"
         style="fill:#595f73"
         d="m 133.239,601.609 -0.561,8.111 c 3.503,1.471 7.326,2.419 11.468,2.849 3.636,0.402 7.312,1.008 11.02,1.828 20.125,2.868 43.328,2.994 69.608,0.376 l -0.508,-9.236 -91.027,-3.928 z"
         id="path1395" />
      <path
         inkscape:connector-curvature="0"
         style="fill:none;stroke:#727a90;stroke-width:1.50020003;stroke-linecap:round;stroke-linejoin:round;stroke-miterlimit:10"
         d="m 133.239,601.609 91.027,3.928 0.508,9.236 c -26.28,2.618 -49.483,2.492 -69.608,-0.376 -3.708,-0.82 -7.384,-1.426 -11.02,-1.828 -4.142,-0.43 -7.965,-1.378 -11.468,-2.849 l 0.561,-8.111 z"
         id="path1397" />
      <path
         inkscape:connector-curvature="0"
         style="fill:#afb6d4"
         d="m 155.321,622.109 c 0.473,0.149 0.65,0.661 0.544,1.551 l -1.445,12.683 c -0.097,0.868 -0.399,1.376 -0.899,1.515 l -8.641,-0.207 -0.109,4.575 8.229,0.196 c 3.521,0.263 5.527,-1.735 6.012,-5.973 l 1.445,-12.682 c 0.476,-4.235 -1.061,-6.318 -4.616,-6.242 l -6.655,-0.156 -0.107,4.591 6.242,0.149 z"
         id="path1399" />
      <path
         inkscape:connector-curvature="0"
         style="fill:none;stroke:#727a90;stroke-width:1.50020003;stroke-linecap:round;stroke-linejoin:round;stroke-miterlimit:10"
         d="m 144.88,637.65 8.641,0.207 c 0.5,-0.139 0.803,-0.646 0.899,-1.515 l 1.445,-12.683 c 0.104,-0.89 -0.072,-1.401 -0.546,-1.551 l -6.241,-0.149 0.109,-4.591 6.653,0.156 c 3.556,-0.076 5.093,2.007 4.617,6.242 l -1.445,12.682 c -0.484,4.237 -2.493,6.234 -6.013,5.973 l -8.229,-0.196"
         id="path1401" />
      <polygon
         style="fill:#c6cee3"
         points="136.887,623.942 151.545,624.289 151.771,614.783 146.476,614.658 137.112,614.438 "
         id="polygon1403" />
      <polygon
         style="fill:#c6cee3"
         points="136.887,623.942 136.883,624.088 146.246,624.314 151.542,624.438 151.545,624.289 "
         id="polygon1405" />
      <path
         inkscape:connector-curvature="0"
         style="fill:none;stroke:#727a90;stroke-width:1.50020003;stroke-linecap:round;stroke-linejoin:round;stroke-miterlimit:10"
         d="m 151.546,624.289 0.224,-9.506 -5.294,-0.125 -9.363,-0.22 -0.225,9.504 m -0.001,0 -0.003,0.146 9.363,0.227 5.294,0.123 0.005,-0.148 m -14.659,-0.348 14.659,0.347"
         id="path1407" />
      <path
         inkscape:connector-curvature="0"
         style="fill:#afb6d4"
         d="m 137.407,617.088 0.308,0.007 c 0.373,0.122 0.705,0.345 0.987,0.681 0.43,0.496 0.631,1.066 0.618,1.692 -0.015,0.638 -0.245,1.177 -0.695,1.607 -0.126,0.109 -0.268,0.209 -0.447,0.288 -0.304,0.146 -0.787,0.245 -1.443,0.303 l 0.9,0.023 c 0.657,-0.062 1.137,-0.163 1.442,-0.305 0.179,-0.08 0.323,-0.179 0.447,-0.289 0.451,-0.431 0.679,-0.966 0.695,-1.606 0.013,-0.627 -0.188,-1.195 -0.618,-1.691 -0.282,-0.337 -0.613,-0.56 -0.987,-0.681 -0.195,-0.062 -0.39,-0.093 -0.607,-0.099 -0.215,-0.006 -0.413,0.017 -0.6,0.07"
         id="path1409" />
      <path
         inkscape:connector-curvature="0"
         style="fill:#afb6d4"
         d="m 137.714,617.095 -0.308,-0.007 -1.529,-0.035 c -2.855,-0.19 -4.672,0.835 -5.437,3.099 -0.174,0.584 -0.321,1.283 -0.444,2.104 -0.094,0.441 -0.189,1.265 -0.284,2.49 -0.271,3.922 -0.705,7.579 -1.311,10.978 -0.484,4.228 1.062,6.301 4.636,6.224 l 11.734,0.279 0.108,-4.575 -11.321,-0.267 c -0.484,-0.152 -0.677,-0.664 -0.582,-1.554 l 1.464,-12.68 c 0.105,-0.897 0.417,-1.407 0.935,-1.518 l 1.36,0.033 c 0.656,-0.058 1.139,-0.157 1.443,-0.303 0.18,-0.079 0.322,-0.179 0.447,-0.287 0.45,-0.432 0.68,-0.971 0.694,-1.608 0.014,-0.626 -0.188,-1.196 -0.617,-1.692 -0.283,-0.337 -0.615,-0.559 -0.988,-0.681"
         id="path1411" />
      <path
         inkscape:connector-curvature="0"
         style="fill:none;stroke:#727a90;stroke-width:1.50020003;stroke-linecap:round;stroke-linejoin:round;stroke-miterlimit:10"
         d="m 136.734,621.666 c 0.656,-0.058 1.139,-0.157 1.443,-0.303 0.179,-0.079 0.322,-0.179 0.446,-0.288 0.451,-0.431 0.68,-0.97 0.696,-1.607 0.014,-0.626 -0.188,-1.195 -0.617,-1.692 -0.283,-0.336 -0.615,-0.559 -0.986,-0.681 l -0.309,-0.007 -1.529,-0.035 c -2.855,-0.19 -4.67,0.835 -5.437,3.097 -0.175,0.586 -0.321,1.285 -0.444,2.105 -0.095,0.441 -0.19,1.265 -0.284,2.49 -0.271,3.922 -0.705,7.579 -1.311,10.978 -0.484,4.228 1.061,6.299 4.636,6.224 l 11.734,0.279 m 0.108,-4.576 -11.323,-0.267 c -0.484,-0.152 -0.677,-0.664 -0.582,-1.554 l 1.464,-12.68 c 0.105,-0.897 0.417,-1.407 0.937,-1.518 l 1.358,0.033 m 0.9,0.025 -0.9,-0.023"
         id="path1413" />
      <path
         inkscape:connector-curvature="0"
         style="fill:#afb6d4"
         d="m 222.498,599.516 c -0.44,-0.406 -0.979,-0.702 -1.61,-0.894 -2.745,-0.121 -4.778,-0.22 -6.107,-0.287 l -23.182,-0.803 c -4.983,-0.22 -10.599,-0.289 -16.856,-0.212 -1.425,0.014 -2.88,0.046 -4.37,0.075 -0.638,-0.007 -1.257,-0.014 -1.856,-0.018 l -3.413,-0.11 c -3.293,0.141 -5.711,0.062 -7.271,-0.228 -0.317,-0.034 -0.635,-0.063 -0.954,-0.088 -1.311,-0.098 -2.621,-0.185 -3.933,-0.243 -0.486,-0.021 -0.993,-0.043 -1.527,-0.063 -3.607,-0.124 -7.911,-0.151 -12.911,-0.094 -1.05,-0.024 -1.967,0.273 -2.741,0.901 -0.526,0.446 -0.867,0.975 -1.04,1.561 -0.071,0.251 -0.119,0.72 -0.137,1.422 l -0.042,1.698 c -0.023,1.056 0.321,1.964 1.043,2.726 0.743,0.768 1.643,1.164 2.693,1.188 l 0.364,0.008 0.225,-0.006 10.539,0.111 c 2.14,0.268 4.161,0.515 6.057,0.753 0.769,0.086 1.686,0.144 2.745,0.179 l 7.131,-0.188 2.94,0.174 c 1.097,0.036 2.185,0.051 3.281,0.06 1.378,0.003 3.828,-0.031 7.355,-0.128 4.679,0.027 9.309,0.138 13.889,0.33 l 18.905,0.449 c 2.33,0.187 4.664,0.263 7,0.216 l 0.705,-0.034 c 0.047,0.002 0.102,0.003 0.149,0.005 0.197,-0.005 0.396,-0.018 0.591,-0.023 0.819,-0.092 1.54,-0.44 2.164,-1.035 0.767,-0.721 1.163,-1.615 1.188,-2.672 l 0.056,-2.316 c 0.018,-0.929 -0.338,-1.733 -1.07,-2.414"
         id="path1415" />
      <path
         inkscape:connector-curvature="0"
         style="fill:#c6cee3"
         d="m 219.896,608.004 v -0.021 l -0.226,-0.005 -0.074,-10e-4 c -0.009,-10e-4 -0.019,-10e-4 -0.03,-10e-4 -0.291,0.014 -0.571,0.025 -0.853,0.029 -2.336,0.047 -4.668,-0.029 -7,-0.216 l -18.905,-0.449 c -4.581,-0.192 -9.21,-0.303 -13.89,-0.33 -3.526,0.097 -5.977,0.131 -7.354,0.128 -1.096,-0.009 -2.185,-0.023 -3.281,-0.06 l -2.94,-0.174 -7.131,0.188 c -1.059,-0.035 -1.976,-0.093 -2.745,-0.179 -1.896,-0.238 -3.917,-0.485 -6.058,-0.753 l -10.538,-0.111 -0.093,0.01 c 0.111,1.231 0.184,2.509 0.2,3.831 0.109,2.515 0.179,4.347 0.217,5.499 0.062,2.095 0.096,4.186 0.093,6.267 0,4.014 0.224,8.024 0.664,12.021 -0.001,0.439 -0.021,0.889 -0.052,1.339 -0.144,2.153 -0.278,4.306 -0.406,6.46 -0.138,2.333 -0.216,4.45 -0.233,6.334 -0.017,1.885 -0.062,3.768 -0.117,5.652 -0.062,1.883 0.02,3.947 0.258,6.195 0.236,2.246 0.49,4.249 0.774,6.011 0.277,1.76 0.425,3.094 0.433,3.995 0.005,0.9 -0.066,1.987 -0.228,3.266 -0.163,1.282 -0.426,2.954 -0.796,5.037 -0.032,0.198 -0.065,0.385 -0.097,0.581 -0.164,0.999 -0.207,2.009 -0.118,3.014 0.141,1.553 0.244,3.59 0.304,6.105 0.038,1.246 0.059,2.606 0.073,4.098 l 0.137,4.102 0.013,3.415 c 0.989,-0.138 1.723,-0.289 2.205,-0.446 1.379,-0.408 2.368,-0.6 2.969,-0.584 0.308,0.007 1.129,0.158 2.473,0.452 l 4.04,0.893 1.304,-0.022 c 0.008,0.045 0.768,0.071 2.277,0.061 l 1.755,-0.044 0.206,0.018 1.734,0.06 0.065,0.028 c 0.169,-0.005 0.327,0.007 0.477,0.029 1.84,-0.059 3.307,-0.222 4.409,-0.497 1.398,-0.357 3.099,-0.104 5.103,0.77 4,0.182 6.938,0.033 8.807,-0.437 1.567,-0.404 3.508,-0.039 5.825,1.103 0.491,0.247 1.01,0.523 1.537,0.833 2.996,1.788 6.018,2.048 9.077,0.781 1.875,-0.771 3.475,-1.37 4.788,-1.791 0.822,-0.272 1.539,-0.47 2.154,-0.598 1.524,-0.326 3.391,-0.274 5.583,0.182 0.047,0.011 0.103,0.021 0.149,0.031 2.268,0.466 3.951,0.692 5.049,0.684 0.572,-0.008 1.153,0.026 1.723,0.097 0.024,-0.646 0.062,-1.445 0.104,-2.371 0.058,-0.929 0.118,-1.845 0.187,-2.763 0.057,-0.869 0.115,-1.733 0.174,-2.602 0.048,-0.812 0.104,-1.629 0.151,-2.444 0.074,-1.115 0.146,-2.229 0.22,-3.352 0.07,-1.013 0.091,-1.911 0.064,-2.701 -0.029,-0.788 -0.018,-1.64 0.032,-2.568 0.045,-0.702 0.111,-1.479 0.215,-2.327 0.025,-0.264 0.06,-0.534 0.094,-0.807 0.151,-1.166 0.261,-2.289 0.323,-3.347 0.051,-0.948 0.083,-1.895 0.076,-2.851 0,-1.117 0.062,-2.232 0.175,-3.354 0.085,-0.908 0.143,-1.674 0.157,-2.303 0.005,-0.64 0.011,-1.295 0.019,-1.979 0.007,-0.683 0.034,-1.423 0.1,-2.238 0.068,-0.813 0.097,-1.666 0.098,-2.558 -0.007,-0.891 -0.024,-1.744 -0.051,-2.581 -0.026,-0.833 0.079,-1.788 0.331,-2.881 0.241,-1.091 0.599,-1.954 1.055,-2.59 0.455,-0.646 0.731,-1.175 0.807,-1.587 0.076,-0.408 0.111,-0.7 0.104,-0.867 -0.01,-1.07 -0.052,-2.129 -0.129,-3.184 -0.077,-1.097 -0.146,-2.204 -0.212,-3.323 -0.061,-0.949 -0.095,-1.896 -0.103,-2.844 -0.005,-0.122 -0.003,-0.255 0,-0.376 0.006,-1.023 0.047,-2.043 0.12,-3.054 0.071,-1.057 0.153,-2.126 0.225,-3.203 0.071,-0.981 0.141,-1.976 0.21,-2.956 0.07,-0.928 0.138,-1.846 0.207,-2.771 0.081,-1.041 0.154,-2.088 0.224,-3.125 0.044,-0.573 0.075,-1.146 0.116,-1.715 0.042,-0.581 0.093,-1.16 0.134,-1.733 0.043,-0.578 0.095,-1.16 0.136,-1.732 0.042,-0.57 0.093,-1.141 0.134,-1.713 0.041,-0.57 0.093,-1.142 0.133,-1.711 0.042,-0.571 0.093,-1.133 0.135,-1.693 0.042,-0.57 0.092,-1.132 0.134,-1.695 0.07,-0.957 0.203,-2.615 0.391,-4.981"
         id="path1417" />
      <polygon
         style="fill:#afb6d4"
         points="138.646,606.056 138.77,606.06 138.778,606.06 138.872,606.05 "
         id="polygon1419" />
      <path
         inkscape:connector-curvature="0"
         style="fill:#c6cee3"
         d="m 138.779,606.06 h -0.009 c 0.088,1.042 0.146,2.112 0.186,3.212 0.005,0.197 0.019,0.404 0.022,0.618 -0.016,-1.322 -0.089,-2.599 -0.199,-3.83"
         id="path1421" />
      <path
         inkscape:connector-curvature="0"
         style="fill:#afb6d4"
         d="m 168.914,699.997 c -2.005,-0.874 -3.706,-1.127 -5.103,-0.77 -1.102,0.275 -2.57,0.438 -4.409,0.497 0.103,0.014 0.196,0.024 0.29,0.035 1.224,0.152 2.461,0.258 3.697,0.295 -1.236,-0.037 -2.473,-0.143 -3.697,-0.295 -0.094,-0.011 -0.187,-0.021 -0.29,-0.035 -0.159,0.006 -0.309,10e-4 -0.469,0.008 l -0.037,-0.037 -0.037,-0.028 -1.733,-0.06 -0.207,-0.018 -1.755,0.044 c -2.036,0.044 -3.226,0.035 -3.581,-0.038 l -4.039,-0.893 c -1.343,-0.295 -2.166,-0.445 -2.475,-0.452 -0.6,-0.016 -1.589,0.176 -2.968,0.584 -0.481,0.157 -1.216,0.309 -2.204,0.446 -0.33,0.077 -0.622,0.163 -0.898,0.271 -0.576,0.22 -1.034,0.499 -1.387,0.856 -0.529,0.521 -0.897,1.348 -1.084,2.486 l -0.067,2.907 c -0.025,1.06 0.283,1.967 0.928,2.722 0.667,0.766 1.483,1.162 2.429,1.184 l 73.331,1.739 c 0.966,0.024 1.78,-0.331 2.464,-1.065 0.692,-0.723 1.051,-1.616 1.076,-2.675 l 0.069,-2.907 c 0.065,-1.142 -0.15,-1.999 -0.644,-2.562 -0.502,-0.575 -0.887,-0.924 -1.166,-1.042 l -1.364,0.202 c 0.004,-0.16 0.008,-0.338 0.021,-0.515 -0.57,-0.07 -1.15,-0.104 -1.723,-0.097 -1.099,0.009 -2.781,-0.218 -5.049,-0.684 -0.047,-0.011 -0.101,-0.021 -0.149,-0.031 -2.192,-0.456 -4.056,-0.508 -5.583,-0.181 -0.613,0.127 -1.331,0.324 -2.154,0.598 -1.313,0.42 -2.913,1.018 -4.788,1.79 -3.059,1.267 -6.081,1.007 -9.077,-0.781 -0.527,-0.31 -1.046,-0.586 -1.537,-0.833 -2.317,-1.142 -4.259,-1.507 -5.825,-1.103 -1.868,0.471 -4.806,0.62 -8.806,0.438 -0.093,-0.009 -0.187,-0.014 -0.281,-0.015 -2.19,-0.098 -3.909,-0.072 -5.141,0.072 1.232,-0.145 2.95,-0.17 5.141,-0.072 0.094,10e-4 0.188,0.006 0.281,0.015"
         id="path1423" />
      <path
         inkscape:connector-curvature="0"
         style="fill:#afb6d4"
         d="m 152.888,699.573 -1.304,0.022 c 0.355,0.073 1.544,0.082 3.581,0.038 -1.51,0.012 -2.269,-0.017 -2.277,-0.06"
         id="path1425" />
      <polygon
         style="fill:#c6cee3"
         points="158.896,699.695 158.925,699.695 158.859,699.667 "
         id="polygon1427" />
      <path
         inkscape:connector-curvature="0"
         style="fill:#c6cee3"
         d="m 158.896,699.695 0.037,0.037 c 0.159,-0.007 0.311,-0.002 0.469,-0.008 -0.149,-0.022 -0.308,-0.034 -0.477,-0.029 h -0.029 z"
         id="path1429" />
      <path
         inkscape:connector-curvature="0"
         style="fill:#afb6d4"
         d="m 157.126,699.607 -0.207,-0.018 0.207,0.018 z"
         id="path1431" />
      <path
         inkscape:connector-curvature="0"
         style="fill:none;stroke:#727a90;stroke-width:1.50020003;stroke-linecap:round;stroke-linejoin:round;stroke-miterlimit:10"
         d="m 158.925,699.695 h -0.028 m 61.262,-91.742 c -0.084,0.009 -0.178,0.015 -0.263,0.021 m 0,0 v 0.01 l -0.225,-0.005 m -0.103,-0.002 c -0.046,-0.002 -0.102,-0.003 -0.15,-0.005 l -0.705,0.034 m 0.855,-0.029 c 0.01,0 0.018,0 0.029,10e-4 l 0.074,0.001 m -0.958,0.027 c 0.282,-0.004 0.563,-0.016 0.854,-0.029 m 0.329,-0.003 c -0.075,0.01 -0.149,0.006 -0.225,0.005 m 0.488,-0.026 c -0.195,0.006 -0.394,0.019 -0.591,0.023 m 0.328,0.028 c -0.189,2.369 -0.321,4.024 -0.39,4.979 -0.042,0.563 -0.093,1.125 -0.135,1.695 -0.041,0.561 -0.091,1.122 -0.134,1.693 -0.041,0.569 -0.093,1.141 -0.134,1.711 -0.04,0.572 -0.091,1.143 -0.135,1.713 -0.04,0.572 -0.093,1.154 -0.133,1.732 -0.042,0.573 -0.093,1.152 -0.136,1.733 -0.042,0.57 -0.072,1.142 -0.114,1.715 -0.073,1.037 -0.144,2.084 -0.226,3.125 -0.069,0.926 -0.137,1.844 -0.206,2.771 -0.069,0.98 -0.14,1.975 -0.211,2.956 -0.072,1.077 -0.153,2.146 -0.226,3.203 -0.069,1.011 -0.112,2.03 -0.12,3.054 -0.002,0.121 -0.004,0.254 0.001,0.376 0.007,0.948 0.042,1.895 0.103,2.845 0.066,1.118 0.134,2.226 0.212,3.322 0.079,1.055 0.119,2.113 0.13,3.184 0.006,0.167 -0.029,0.459 -0.104,0.867 -0.076,0.412 -0.352,0.94 -0.808,1.587 -0.456,0.636 -0.812,1.499 -1.055,2.59 -0.25,1.093 -0.358,2.048 -0.331,2.881 0.027,0.837 0.044,1.69 0.051,2.581 -10e-4,0.892 -0.031,1.744 -0.098,2.558 -0.065,0.815 -0.093,1.556 -0.099,2.238 -0.008,0.685 -0.013,1.34 -0.019,1.979 -0.014,0.629 -0.072,1.395 -0.158,2.303 -0.111,1.121 -0.174,2.236 -0.174,3.354 0.007,0.956 -0.026,1.902 -0.076,2.851 -0.062,1.058 -0.173,2.181 -0.323,3.347 -0.034,0.272 -0.071,0.543 -0.094,0.807 -0.104,0.849 -0.171,1.626 -0.214,2.327 -0.05,0.929 -0.062,1.78 -0.033,2.568 0.029,0.79 0.006,1.688 -0.064,2.701 -0.074,1.123 -0.146,2.236 -0.22,3.352 -0.047,0.815 -0.104,1.632 -0.152,2.444 -0.058,0.868 -0.117,1.732 -0.174,2.602 -0.069,0.918 -0.128,1.834 -0.188,2.762 -0.041,0.927 -0.077,1.726 -0.103,2.372 m -73.708,-1.601 -0.013,-3.415 -0.137,-4.102 c -0.013,-1.491 -0.035,-2.852 -0.071,-4.098 -0.062,-2.516 -0.166,-4.553 -0.307,-6.105 -0.088,-1.005 -0.047,-2.015 0.12,-3.014 0.032,-0.196 0.064,-0.383 0.096,-0.581 0.37,-2.083 0.634,-3.755 0.796,-5.037 0.161,-1.278 0.233,-2.365 0.228,-3.266 -0.008,-0.899 -0.156,-2.235 -0.431,-3.995 -0.286,-1.762 -0.54,-3.765 -0.776,-6.011 -0.237,-2.248 -0.32,-4.312 -0.258,-6.195 0.055,-1.885 0.1,-3.768 0.117,-5.652 0.017,-1.884 0.096,-4.001 0.235,-6.334 0.126,-2.154 0.261,-4.307 0.406,-6.461 0.03,-0.449 0.048,-0.898 0.05,-1.338 -0.44,-3.997 -0.664,-8.008 -0.663,-12.021 0.002,-2.081 -0.033,-4.173 -0.094,-6.267 -0.04,-1.152 -0.108,-2.984 -0.217,-5.5 -0.016,-1.321 -0.089,-2.599 -0.199,-3.83 m 24.712,93.996 c 1.232,-0.145 2.95,-0.17 5.142,-0.072 0.093,0.001 0.188,0.006 0.28,0.015 4,0.182 6.939,0.033 8.807,-0.437 1.566,-0.404 3.507,-0.039 5.825,1.103 0.492,0.247 1.01,0.523 1.537,0.833 2.997,1.788 6.019,2.049 9.078,0.781 1.876,-0.772 3.474,-1.37 4.788,-1.791 0.822,-0.272 1.541,-0.47 2.154,-0.597 1.526,-0.327 3.39,-0.275 5.583,0.181 0.047,0.011 0.103,0.021 0.149,0.031 2.269,0.466 3.95,0.692 5.049,0.684 0.572,-0.008 1.153,0.026 1.723,0.097 m -0.002,-0.001 c 0.514,0.058 0.963,0.161 1.343,0.312 0.278,0.118 0.665,0.467 1.166,1.042 0.493,0.563 0.708,1.421 0.643,2.562 l -0.068,2.907 c -0.025,1.059 -0.384,1.952 -1.076,2.675 -0.684,0.734 -1.498,1.09 -2.464,1.065 l -73.331,-1.739 c -0.946,-0.021 -1.762,-0.418 -2.429,-1.184 -0.646,-0.754 -0.955,-1.662 -0.928,-2.722 l 0.067,-2.906 c 0.187,-1.14 0.555,-1.966 1.084,-2.487 0.354,-0.357 0.811,-0.637 1.387,-0.856 0.275,-0.107 0.568,-0.193 0.898,-0.271 m 19.028,0.415 -0.066,-0.028 -1.732,-0.06 -0.207,-0.018 -1.755,0.044 c -2.037,0.044 -3.226,0.038 -3.581,-0.038 l -4.039,-0.893 c -1.343,-0.294 -2.166,-0.445 -2.475,-0.452 -0.6,-0.015 -1.589,0.176 -2.968,0.584 -0.482,0.157 -1.216,0.309 -2.204,0.446 m 23.491,0.774 c -1.237,-0.036 -2.473,-0.142 -3.696,-0.294 -0.095,-0.011 -0.188,-0.021 -0.291,-0.035 -0.15,-0.022 -0.308,-0.034 -0.477,-0.029 m 59.788,-91.69 c -2.336,0.047 -4.668,-0.029 -7,-0.216 l -18.905,-0.449 c -4.582,-0.192 -9.21,-0.303 -13.889,-0.33 -3.528,0.098 -5.977,0.131 -7.356,0.128 -1.097,-0.009 -2.184,-0.023 -3.28,-0.06 l -2.94,-0.174 -7.13,0.188 c -1.06,-0.035 -1.977,-0.093 -2.745,-0.179 -1.898,-0.238 -3.918,-0.485 -6.059,-0.753 l -10.537,-0.11 -0.227,0.005 -0.364,-0.008 c -1.051,-0.024 -1.951,-0.421 -2.693,-1.189 -0.722,-0.761 -1.067,-1.668 -1.042,-2.725 l 0.041,-1.698 c 0.017,-0.701 0.067,-1.171 0.137,-1.422 0.173,-0.586 0.515,-1.114 1.041,-1.561 0.775,-0.628 1.691,-0.926 2.74,-0.901 5,-0.058 9.304,-0.03 12.912,0.094 0.535,0.021 1.041,0.042 1.527,0.063 1.311,0.059 2.622,0.146 3.933,0.243 0.318,0.024 0.637,0.055 0.955,0.088 1.559,0.29 3.977,0.368 7.27,0.228 l 3.412,0.11 c 0.6,0.005 1.219,0.011 1.856,0.018 1.49,-0.029 2.946,-0.062 4.371,-0.075 6.257,-0.077 11.874,-0.008 16.857,0.212 l 23.181,0.803 c 1.33,0.067 3.363,0.166 6.108,0.287 0.632,0.191 1.17,0.487 1.61,0.894 0.734,0.682 1.089,1.485 1.069,2.414 l -0.056,2.317 c -0.026,1.056 -0.422,1.95 -1.188,2.671 -0.624,0.595 -1.345,0.943 -2.164,1.035"
         id="path1433" />
      <path
         inkscape:connector-curvature="0"
         style="fill:#afb6d4"
         d="m 198.763,614.948 c -0.744,-1.857 -1.678,-2.788 -2.803,-2.786 l -0.019,-0.001 c -1.134,-0.057 -2.112,0.83 -2.933,2.651 -0.83,1.787 -1.257,3.973 -1.279,6.553 l 0.345,7.603 -0.396,2.429 -0.138,35.858 0.536,3.537 c 0.402,1.595 0.037,3.922 -1.085,6.972 l -0.277,10.102 c -0.063,2.276 0.276,4.235 1.022,5.895 0.711,1.631 1.603,2.459 2.661,2.482 h 0.017 c 1.041,0.024 1.951,-0.758 2.739,-2.354 0.789,-1.621 1.211,-3.562 1.265,-5.841 l 0.428,-10.905 0.516,-3.607 -0.614,-2.507 1.058,-49.474 c 0.062,-2.576 -0.29,-4.78 -1.043,-6.607"
         id="path1435" />
      <path
         inkscape:connector-curvature="0"
         style="fill:#afb6d4"
         d="m 208.761,612.465 c -1.123,-0.054 -2.11,0.831 -2.951,2.65 -0.868,1.791 -1.332,3.974 -1.392,6.55 l -1.418,47.927 0.734,3.897 c 0.175,0.896 0.049,2.616 -0.387,5.186 l -0.58,9.478 c -0.054,2.276 0.284,4.237 1.003,5.893 0.703,1.63 1.574,2.457 2.624,2.48 l 0.018,0.001 c 1.051,0.026 1.97,-0.76 2.757,-2.352 0.789,-1.624 1.22,-3.563 1.303,-5.841 l 2.08,-66.474 c 0.07,-2.578 -0.261,-4.781 -1.005,-6.61 -0.735,-1.854 -1.649,-2.786 -2.766,-2.785 h -0.02 z"
         id="path1437" />
      <path
         inkscape:connector-curvature="0"
         style="fill:#afb6d4"
         d="m 186.353,614.653 c -0.781,-1.857 -1.724,-2.79 -2.822,-2.786 h -0.019 c -1.133,-0.055 -2.11,0.831 -2.913,2.649 -0.821,1.791 -1.229,3.976 -1.224,6.555 l 1.307,7.362 -1.13,3.37 0.165,33.426 c 0.586,2.573 0.855,5.056 0.798,7.448 l -0.934,3.783 -0.62,11.125 c -0.026,2.278 0.341,4.237 1.1,5.896 0.739,1.631 1.619,2.459 2.659,2.481 h 0.019 c 1.049,0.026 1.96,-0.759 2.718,-2.354 0.763,-1.622 1.164,-3.562 1.191,-5.842 l -0.273,-9.066 c -0.004,-0.965 0.077,-1.704 0.24,-2.225 0.153,-0.521 0.274,-0.864 0.382,-1.041 0.087,-0.177 0.186,-0.38 0.276,-0.61 0.289,-0.707 0.436,-1.426 0.444,-2.167 0.013,-0.524 -0.022,-1.041 -0.113,-1.561 -0.14,-0.827 -0.326,-1.646 -0.561,-2.47 l -0.319,-2.351 0.349,-33.715 c 0.792,-1.754 1.244,-3.056 1.348,-3.887 l -0.474,-2.955 -0.456,-4.456 c 0.014,-2.577 -0.364,-4.781 -1.138,-6.609"
         id="path1439" />
      <path
         inkscape:connector-curvature="0"
         style="fill:#afb6d4"
         d="m 171.047,611.569 c -1.133,-0.056 -2.092,0.834 -2.857,2.652 -0.802,1.79 -1.202,3.583 -1.196,5.375 -0.054,0.297 -0.079,0.589 -0.06,0.879 0.07,0.676 0.299,1.281 0.672,1.815 0.407,0.583 0.683,1.246 0.815,1.97 0.06,0.295 0.124,0.708 0.196,1.263 -0.35,0.882 -0.673,1.887 -0.973,3.032 l -0.471,1.734 0.807,35.58 1.387,4.008 c 0.479,1.502 0.297,2.896 -0.55,4.188 -0.684,0.751 -1.104,2.271 -1.261,4.565 -0.002,0.082 -0.003,0.178 -0.015,0.261 0.2,2.596 0.086,5.395 -0.331,8.412 -0.006,2.283 0.378,4.24 1.135,5.9 0.758,1.629 1.676,2.459 2.736,2.483 l 0.019,10e-4 c 1.022,0.023 1.923,-0.76 2.681,-2.357 0.741,-1.621 1.117,-3.564 1.134,-5.844 l 0.039,-10.35 c 0.774,-3.05 1.042,-5.181 0.807,-6.397 l -0.641,-3.803 -0.757,-35.392 c 0,-0.371 0.151,-0.808 0.463,-1.3 0.312,-0.491 0.66,-1.335 1.053,-2.526 0.093,-0.334 0.174,-0.586 0.245,-0.764 l -0.99,-4.938 c -0.098,-0.571 -0.15,-1.221 -0.141,-1.935 0.094,-1.984 -0.255,-3.896 -1.046,-5.726 -0.81,-1.854 -1.761,-2.79 -2.879,-2.787 l -0.021,10e-4 z"
         id="path1441" />
      <path
         inkscape:connector-curvature="0"
         style="fill:#afb6d4"
         d="m 156.563,613.75 c -0.049,0.118 -0.099,0.229 -0.148,0.343 l -0.418,1.049 c -0.051,0.158 -0.103,0.318 -0.152,0.476 l -0.158,0.709 -0.017,-0.056 c -0.031,0.148 -0.063,0.298 -0.076,0.438 0,-0.02 0,-0.038 0,-0.059 l -0.191,1.786 0.212,0.522 c 0.275,1.029 0.489,2.318 0.64,3.888 -0.519,2.463 -0.774,4.98 -0.789,7.54 l 0.305,17.687 c -0.191,4.018 -0.065,8.21 0.384,12.602 l 0.845,4.653 c -0.03,0.129 -0.09,0.673 -0.159,1.638 -0.2,2.479 -0.54,4.206 -1.023,5.18 -0.481,0.975 -0.629,2.403 -0.431,4.304 0.199,1.896 0.239,5.434 0.105,10.6 -0.007,2.267 0.378,4.229 1.136,5.878 0.76,1.63 1.677,2.458 2.736,2.485 h 0.019 c 1.021,0.024 1.921,-0.763 2.681,-2.357 0.742,-1.613 1.115,-3.557 1.131,-5.823 l -0.342,-14.367 c 1.272,-5.062 1.558,-9.566 0.836,-13.521 -0.257,-1.422 -0.405,-2.738 -0.431,-3.93 -0.066,-7.561 -0.168,-13.564 -0.316,-18.022 -0.146,-4.456 -0.249,-7.283 -0.284,-8.483 -0.048,-1.209 0.167,-2.312 0.63,-3.313 0.464,-1.013 0.624,-2.183 0.487,-3.516 -0.137,-1.344 -0.224,-2.427 -0.26,-3.24 -0.063,-1.344 -0.494,-2.93 -1.286,-4.758 -0.809,-1.858 -1.761,-2.788 -2.878,-2.789 h -0.019 c -1.097,-0.056 -2.025,0.767 -2.769,2.456 m -0.191,8.474 c 0.01,0.006 0.01,0.006 0.008,0.018 -0.008,0.017 -0.01,0.038 -0.01,0.064 l 0.002,-0.082 z"
         id="path1443" />
      <path
         inkscape:connector-curvature="0"
         style="fill:#afb6d4"
         d="m 147.635,611.017 c -1.097,-0.055 -2.016,0.767 -2.759,2.444 -0.895,1.705 -1.218,3.497 -0.971,5.382 0.231,1.69 0.209,3.389 -0.046,5.099 -0.067,0.438 -0.114,0.868 -0.134,1.311 l 0.346,22.541 c -0.115,2.501 -0.111,5.082 0.023,7.738 0.044,0.555 0.096,1.117 0.149,1.672 0.038,0.357 0.076,0.715 0.114,1.081 0.087,0.716 0.181,1.43 0.269,2.146 0.087,0.646 0.147,1.296 0.198,1.943 0.034,0.537 0.039,1.081 -0.001,1.613 -0.041,0.534 -0.101,1.076 -0.198,1.607 -0.087,0.515 -0.183,1.039 -0.28,1.552 -0.119,0.626 -0.225,1.259 -0.327,1.927 -0.101,0.736 -0.112,1.579 -0.032,2.519 0.082,0.939 0.109,1.766 0.092,2.468 -0.016,0.703 -0.022,1.322 -0.015,1.859 -0.089,1.001 -0.182,2.094 -0.267,3.303 -0.084,1.206 -0.087,3.72 -0.001,7.547 -0.006,2.271 0.378,4.23 1.138,5.88 0.758,1.631 1.676,2.458 2.735,2.484 h 0.018 c 1.021,0.023 1.921,-0.761 2.682,-2.356 0.742,-1.614 1.116,-3.554 1.132,-5.824 -0.447,-2.093 -0.519,-5.008 -0.222,-8.763 0,-0.046 0.012,-0.188 0.037,-0.411 l -0.008,-4.429 c 0.001,-0.027 0.001,-0.055 0.002,-0.083 0.011,-0.488 0.023,-0.977 0.043,-1.454 0.025,-0.608 0.077,-1.188 0.144,-1.757 0.025,-0.198 0.048,-0.385 0.062,-0.581 0.053,-0.655 0.124,-1.299 0.224,-1.947 0.1,-0.68 0.173,-1.373 0.209,-2.058 0.023,-0.213 0.045,-0.373 0.058,-0.455 0.032,-0.227 0.107,-0.534 0.2,-0.917 0.004,-0.13 0.006,-0.252 0.009,-0.375 l -0.011,-1.939 c -0.062,-0.95 -0.094,-1.549 -0.1,-1.784 -0.048,-0.312 -0.097,-0.621 -0.155,-0.935 -0.257,-1.422 -0.404,-2.736 -0.433,-3.928 -0.064,-7.561 -0.166,-13.563 -0.313,-18.023 -0.062,-1.774 -0.11,-3.285 -0.155,-4.542 l -0.132,-4.354 -0.093,-0.003 c -0.008,-0.815 0.039,-1.631 0.162,-2.435 0.266,-1.737 0.317,-3.49 0.152,-5.247 -0.004,-0.218 -0.009,-0.395 -0.006,-0.555 0.001,-0.009 0.001,-0.009 0.001,-0.017 10e-4,-0.049 0.01,-0.077 0.031,-0.104 0.008,-0.027 0.008,-0.039 0,-0.049 -0.009,0.009 -0.02,0.021 -0.027,0.039 -0.019,-0.499 -0.026,-0.929 -0.027,-1.305 -0.016,-1.249 -0.171,-2.695 -0.459,-4.361 -0.053,-0.124 -0.105,-0.257 -0.16,-0.381 -0.81,-1.856 -1.763,-2.787 -2.877,-2.785 h -0.021 z"
         id="path1445" />
      <path
         inkscape:connector-curvature="0"
         style="fill:#afb6d4"
         d="m 224.904,618.702 c -0.056,-0.013 -0.113,-0.015 -0.161,-0.015 l -1.339,-0.033 -0.11,4.595 1.004,0.022 c 0.503,0.152 0.817,0.667 0.937,1.561 0.607,3.681 1,7.688 1.188,12.015 0.006,0.111 0.004,0.233 0.011,0.354 -0.001,0.075 -0.003,0.159 0.003,0.244 -0.01,0.082 -0.012,0.179 -0.015,0.281 -0.023,0.525 -0.144,0.942 -0.378,1.247 -0.008,0.02 -0.055,0.037 -0.123,0.064 -0.048,0.008 -0.123,0.023 -0.207,0.049 -0.067,0.011 -0.133,0.025 -0.208,0.043 -0.03,0 -0.046,0 -0.075,0.008 -0.095,0.007 -0.188,0.026 -0.282,0.039 -0.189,0.026 -0.405,0.037 -0.641,0.062 -0.027,0 -0.065,-0.001 -0.094,0.005 h -0.019 c -0.028,0 -0.047,0 -0.075,-0.001 -0.338,0.02 -0.714,0.028 -1.136,0.028 l -1.866,-0.005 -0.281,-0.008 c -0.018,0 -0.073,0 -0.178,-0.013 -0.028,0 -0.056,-10e-4 -0.084,-0.004 -0.091,0.299 -0.328,0.8 -0.709,1.514 -0.383,0.714 -0.295,1.344 0.263,1.9 0.559,0.557 0.853,0.875 0.868,0.958 1.013,0.043 2.175,0.098 3.486,0.157 h 0.693 c 0.272,-0.024 0.555,-0.044 0.837,-0.064 0.404,-0.031 0.798,-0.058 1.202,-0.087 2.401,-0.438 3.47,-2.422 3.216,-5.942 l -0.651,-6.131 -0.247,-6.606 c -0.272,-3.88 -1.882,-5.954 -4.829,-6.237"
         id="path1447" />
      <path
         inkscape:connector-curvature="0"
         style="fill:none;stroke:#727a90;stroke-width:1.50020003;stroke-linecap:round;stroke-linejoin:round;stroke-miterlimit:10"
         d="m 221.199,643.613 c 1.012,0.043 2.174,0.098 3.485,0.157 h 0.695 c 0.272,-0.024 0.553,-0.044 0.835,-0.064 0.403,-0.031 0.798,-0.058 1.203,-0.087 2.399,-0.438 3.47,-2.422 3.216,-5.942 l -0.651,-6.131 -0.248,-6.607 c -0.273,-3.88 -1.884,-5.953 -4.831,-6.236 -0.057,-0.013 -0.113,-0.015 -0.161,-0.015 l -1.34,-0.033 -0.109,4.595 1.004,0.022 c 0.502,0.152 0.818,0.667 0.937,1.561 0.607,3.681 1,7.688 1.188,12.015 0.008,0.111 0.005,0.233 0.01,0.354 -0.002,0.075 -0.002,0.159 0.005,0.244 -0.011,0.082 -0.014,0.179 -0.016,0.281 -0.023,0.525 -0.145,0.942 -0.377,1.247 -0.01,0.02 -0.057,0.037 -0.124,0.064 -0.046,0.008 -0.121,0.023 -0.208,0.049 -0.065,0.011 -0.131,0.025 -0.206,0.043 -0.03,0 -0.049,0 -0.076,0.008 -0.094,0.007 -0.19,0.023 -0.282,0.039 -0.189,0.026 -0.405,0.037 -0.641,0.061 -0.027,0 -0.065,-0.001 -0.094,0.006 h -0.019 c -0.029,0 -0.046,0 -0.075,-10e-4 -0.338,0.021 -0.714,0.028 -1.134,0.028 l -1.868,-0.005 c -0.057,-10e-4 -0.112,-0.002 -0.176,-0.004 -0.029,-0.01 -0.066,-0.011 -0.104,-0.002 m -0.176,-0.015 c -0.028,0 -0.056,-10e-4 -0.084,-0.004"
         id="path1449" />
      <path
         inkscape:connector-curvature="0"
         style="fill:#c6cee3"
         d="m 225.784,617.962 c -0.008,-0.873 -0.409,-1.331 -1.205,-1.361 l -5.398,-0.168 c -1.002,-0.076 -1.93,-0.105 -2.783,-0.1 -1.076,-0.055 -1.72,0.192 -1.921,0.742 -0.131,1.244 -0.185,2.676 -0.147,4.29 l -0.072,4.199 c 0.108,0.126 0.219,0.221 0.322,0.27 0.494,0.128 0.99,0.176 1.469,0.149 0.046,0 0.084,0.002 0.122,0.002 0.065,0.002 0.132,0.004 0.197,0.007 2.154,0.061 4.253,0.127 6.307,0.186 l 2.642,0.12 c 0.232,-0.698 0.36,-1.391 0.369,-2.094 l 0.098,-6.242 z"
         id="path1451" />
      <path
         inkscape:connector-curvature="0"
         style="fill:none;stroke:#727a90;stroke-width:1.50020003;stroke-linecap:round;stroke-linejoin:round;stroke-miterlimit:10"
         d="m 224.578,616.601 -5.397,-0.168 c -1.001,-0.076 -1.93,-0.105 -2.782,-0.1 -1.078,-0.055 -1.721,0.192 -1.922,0.742 -0.132,1.244 -0.185,2.676 -0.147,4.29 l -0.072,4.199 c 0.11,0.126 0.22,0.221 0.322,0.27 0.494,0.128 0.99,0.176 1.469,0.149 0.046,0 0.085,0.002 0.122,0.002 0.065,0.002 0.132,0.004 0.197,0.007 2.156,0.061 4.252,0.127 6.307,0.186 l 2.641,0.12 c 0.232,-0.698 0.36,-1.391 0.368,-2.094 l 0.101,-6.242 c -0.01,-0.873 -0.41,-1.331 -1.207,-1.361 z"
         id="path1453" />
      <path
         inkscape:connector-curvature="0"
         style="fill:#afb6d4"
         d="m 220.856,622.515 c 0.46,-0.438 0.699,-0.977 0.712,-1.623 0.016,-0.638 -0.196,-1.188 -0.634,-1.654 -0.349,-0.367 -0.756,-0.593 -1.224,-0.669 l -0.159,-0.004 -0.441,-0.013 -4,-0.093 c -0.122,-0.003 -0.188,-0.005 -0.208,-0.006 h -0.019 c -0.225,-0.015 -0.383,-0.018 -0.487,-0.012 -1.605,0.027 -2.733,0.556 -3.404,1.587 -0.167,0.362 -0.299,0.726 -0.411,1.099 -0.132,0.418 -0.199,0.859 -0.209,1.306 -0.015,0.602 0.019,1.195 0.089,1.786 0.08,0.556 0.124,1.1 0.139,1.637 0.01,0.748 0.031,1.491 0.07,2.231 0.04,0.675 0.081,1.354 0.129,2.028 0.016,0.16 0.031,0.33 0.044,0.489 l 0.575,7.365 c 0.085,0.83 0.243,1.639 0.478,2.43 0.06,0.201 0.121,0.407 0.201,0.606 0.774,1.377 2.132,2.189 4.08,2.415 l 0.327,0.035 c 0.647,-0.005 2.21,0.052 4.693,0.157 -0.017,-0.083 -0.034,-0.16 -0.041,-0.245 -0.23,-1.374 -0.357,-2.746 -0.381,-4.127 -0.233,-0.014 -0.457,-0.027 -0.692,-0.043 -0.112,-0.014 -0.216,-0.016 -0.318,-0.017 -1.264,-0.077 -2.217,-0.193 -2.871,-0.332 l -0.395,-0.385 c -0.162,-0.265 -0.267,-0.644 -0.299,-1.131 l -0.75,-8.419 -0.15,-4.319 c 0.051,-1.377 0.127,-2.21 0.237,-2.517 -0.109,0.307 -0.186,1.14 -0.237,2.517 0.074,-0.74 0.149,-1.158 0.229,-1.259 0.096,-0.139 0.228,-0.222 0.389,-0.264 l 3.365,0.082 c 0.61,0.003 1.131,-0.207 1.573,-0.638"
         id="path1455" />
      <path
         inkscape:connector-curvature="0"
         style="fill:none;stroke:#727a90;stroke-width:1.50020003;stroke-linecap:round;stroke-linejoin:round;stroke-miterlimit:10"
         d="m 215.529,623.337 c 0.099,-0.139 0.229,-0.22 0.391,-0.264 l 3.364,0.082 c 0.608,10e-4 1.131,-0.209 1.573,-0.641 0.46,-0.438 0.698,-0.977 0.712,-1.623 0.016,-0.638 -0.197,-1.188 -0.635,-1.656 -0.349,-0.365 -0.755,-0.591 -1.222,-0.667 l -0.16,-0.005 m -0.442,-0.011 c 0.066,-0.005 0.141,-0.004 0.216,-0.003 0.075,0.002 0.151,0.003 0.226,0.015 m 0,-10e-4 -0.441,-0.012 m -10e-4,10e-4 -4,-0.093 c -0.009,-0.01 -0.009,-0.01 -0.009,0 -0.075,-0.012 -0.149,-0.015 -0.216,-0.006 -0.225,-0.015 -0.383,-0.018 -0.487,-0.012 -1.604,0.027 -2.731,0.556 -3.405,1.587 -0.167,0.362 -0.298,0.726 -0.41,1.099 -0.132,0.418 -0.199,0.859 -0.21,1.306 -0.014,0.602 0.019,1.195 0.088,1.786 0.083,0.556 0.125,1.1 0.14,1.637 0.01,0.748 0.031,1.491 0.07,2.231 0.041,0.675 0.082,1.354 0.129,2.028 0.017,0.16 0.031,0.33 0.045,0.489 l 0.575,7.365 c 0.084,0.827 0.245,1.639 0.479,2.43 0.061,0.201 0.122,0.407 0.201,0.606 0.774,1.377 2.132,2.189 4.078,2.415 l 0.328,0.035 c 0.647,-0.005 2.21,0.052 4.694,0.157 m -5.66,-21.533 c -0.112,0.307 -0.187,1.14 -0.24,2.517 l 0.152,4.319 0.747,8.419 c 0.036,0.487 0.14,0.866 0.302,1.131 l 0.395,0.385 c 0.653,0.139 1.607,0.255 2.871,0.332 0.103,10e-4 0.206,0.003 0.318,0.017 0.234,0.016 0.459,0.029 0.691,0.043"
         id="path1457" />
      <path
         inkscape:connector-curvature="0"
         style="fill:#c6cee3"
         d="m 189.562,583.311 c -0.486,-0.479 -1.165,-0.778 -2.03,-0.887 -0.452,-0.058 -1.005,-0.097 -1.653,-0.096 -1.341,-0.021 -2.552,-0.174 -3.616,-0.427 -0.331,-0.078 -0.67,-0.175 -1.027,-0.273 -0.349,-0.106 -0.688,-0.223 -1.028,-0.35 -1.331,-0.542 -2.713,-0.819 -4.149,-0.841 -1.005,-0.022 -1.81,0.028 -2.407,0.142 -0.169,0.031 -0.336,0.069 -0.515,0.131 -0.418,0.155 -0.837,0.426 -1.254,0.81 -0.092,0.085 -0.174,0.169 -0.248,0.257 -0.433,0.493 -0.656,1.088 -0.693,1.782 -0.412,4.06 -0.583,7.896 -0.515,11.524 -0.032,0.815 0.222,1.516 0.786,2.115 0.535,0.592 1.206,0.908 2.023,0.942 0.816,0.033 1.515,-0.22 2.116,-0.766 0.582,-0.545 0.89,-1.224 0.922,-2.041 -0.219,-2.528 -0.101,-5.597 0.347,-9.205 0.082,-0.685 0.175,-1.382 0.284,-2.095 -0.109,0.713 -0.202,1.41 -0.284,2.095 2.016,0.041 3.698,0.21 5.035,0.508 0.913,0.2 1.826,0.403 2.738,0.603 0.556,0.112 1.102,0.226 1.655,0.339 -0.554,-0.113 -1.099,-0.227 -1.655,-0.339 l -0.493,9.291 c -0.037,0.724 0.171,1.365 0.612,1.915 0.047,0.062 0.105,0.129 0.172,0.193 0.429,0.491 0.96,0.789 1.589,0.901 0.143,0.027 0.282,0.041 0.434,0.051 0.271,0.004 0.542,-0.021 0.804,-0.071 0.272,-0.062 0.522,-0.157 0.763,-0.294 0.187,-0.106 0.363,-0.229 0.539,-0.384 0.582,-0.563 0.898,-1.242 0.932,-2.058 l 0.519,-11.226 c 0.029,-1.013 -0.207,-1.761 -0.703,-2.246"
         id="path1459" />
      <path
         inkscape:connector-curvature="0"
         style="fill:none;stroke:#727a90;stroke-width:1.50020003;stroke-linecap:round;stroke-linejoin:round;stroke-miterlimit:10"
         d="m 176.621,586.129 c -0.448,3.607 -0.566,6.677 -0.347,9.205 -0.032,0.817 -0.341,1.496 -0.922,2.041 -0.601,0.546 -1.301,0.799 -2.116,0.766 -0.817,-0.034 -1.489,-0.351 -2.023,-0.942 -0.563,-0.6 -0.818,-1.3 -0.786,-2.115 -0.068,-3.628 0.103,-7.467 0.515,-11.522 0.037,-0.696 0.26,-1.289 0.693,-1.784 0.074,-0.088 0.156,-0.172 0.25,-0.257 0.415,-0.384 0.832,-0.654 1.252,-0.809 0.177,-0.061 0.344,-0.101 0.515,-0.132 0.597,-0.113 1.402,-0.164 2.407,-0.142 1.434,0.021 2.819,0.3 4.149,0.841 0.34,0.127 0.679,0.241 1.028,0.35 0.357,0.097 0.697,0.195 1.025,0.274 1.065,0.252 2.276,0.404 3.618,0.429 0.648,-0.003 1.201,0.035 1.653,0.093 0.864,0.108 1.544,0.407 2.031,0.887 0.495,0.487 0.733,1.233 0.703,2.248 l -0.521,11.226 c -0.033,0.815 -0.35,1.495 -0.932,2.058 -0.176,0.155 -0.352,0.277 -0.539,0.384 -0.241,0.137 -0.491,0.232 -0.764,0.294 -0.261,0.051 -0.532,0.075 -0.805,0.071 -0.15,-0.01 -0.29,-0.023 -0.433,-0.051 -0.628,-0.111 -1.16,-0.41 -1.589,-0.901 -0.067,-0.064 -0.125,-0.131 -0.174,-0.193 -0.439,-0.55 -0.647,-1.191 -0.61,-1.914 l 0.494,-9.292 m 1.656,0.336 c -0.554,-0.113 -1.1,-0.227 -1.655,-0.339 m 0,0 c -0.913,-0.199 -1.826,-0.402 -2.74,-0.603 -1.335,-0.296 -3.016,-0.467 -5.034,-0.508 m 0.285,-2.094 c -0.11,0.715 -0.202,1.41 -0.284,2.095"
         id="path1461" />
      <path
         inkscape:connector-curvature="0"
         style="fill:#afb6d4"
         d="m 190.036,593.251 c -3.02,0.643 -6.542,0.803 -10.57,0.493 -6.612,-1.082 -12.666,-1.454 -18.156,-1.126 -5.49,0.324 -10.595,0.726 -15.304,1.205 -4.717,0.479 -8.252,1.091 -10.613,1.834 -1.322,1.11 -2.19,2.437 -2.607,3.982 -0.15,0.563 -0.235,1.139 -0.254,1.719 -0.025,0.62 -0.026,1.249 0.003,1.876 0.046,1.17 -0.065,2.317 -0.337,3.459 -0.157,1.259 -0.058,2.22 0.292,2.9 8.502,-1.283 15.907,-2.108 22.221,-2.483 5.125,-0.308 8.79,-0.473 10.992,-0.482 1.633,0.079 3.264,0.069 4.894,-0.04 0.432,-0.036 0.862,-0.08 1.292,-0.115 1.893,-0.125 3.701,-0.193 5.417,-0.213 1.042,0.023 2.075,0.08 3.108,0.176 1.772,0.11 3.537,0.062 5.304,-0.133 1.875,-0.174 3.757,-0.278 5.649,-0.317 2.082,-0.044 4.146,0.035 6.203,0.233 2.001,0.165 3.964,0.452 5.914,0.86 1.062,0.217 2.116,0.462 3.173,0.736 2.07,0.511 4.115,1.143 6.134,1.888 1.934,0.736 3.871,1.501 5.806,2.296 1.964,0.81 3.91,1.651 5.846,2.511 0.131,0.064 0.265,0.119 0.396,0.181 0.517,-1.057 0.752,-2.188 0.724,-3.379 -0.041,-1.227 -0.079,-2.463 -0.108,-3.693 -0.028,-1.226 -0.068,-2.446 -0.097,-3.672 -0.024,-0.872 -0.104,-1.734 -0.258,-2.595 -0.072,-0.374 -0.172,-0.728 -0.318,-1.054 -0.264,-0.644 -0.74,-1.049 -1.408,-1.225 -5.147,-2.196 -10.661,-3.934 -16.553,-5.196 -3.755,-1.363 -9.347,-1.572 -16.785,-0.626"
         id="path1463" />
      <path
         inkscape:connector-curvature="0"
         style="fill:none;stroke:#727a90;stroke-width:1.50020003;stroke-linecap:round;stroke-linejoin:round;stroke-miterlimit:10"
         d="m 190.036,593.251 c 7.438,-0.946 13.03,-0.737 16.785,0.626 5.892,1.263 11.406,3 16.553,5.196 0.668,0.176 1.144,0.581 1.408,1.225 0.146,0.326 0.246,0.68 0.318,1.054 0.154,0.86 0.234,1.723 0.258,2.595 0.029,1.226 0.069,2.446 0.097,3.672 0.029,1.23 0.068,2.467 0.108,3.693 0.029,1.191 -0.207,2.322 -0.724,3.379 -0.132,-0.062 -0.265,-0.116 -0.396,-0.181 -1.936,-0.859 -3.882,-1.701 -5.846,-2.511 -1.935,-0.795 -3.872,-1.56 -5.806,-2.296 -2.02,-0.745 -4.064,-1.377 -6.134,-1.888 -1.057,-0.274 -2.111,-0.52 -3.173,-0.736 -1.95,-0.408 -3.913,-0.695 -5.914,-0.86 -2.056,-0.198 -4.121,-0.277 -6.203,-0.233 -1.893,0.039 -3.775,0.144 -5.649,0.317 -1.768,0.195 -3.532,0.243 -5.304,0.133 -1.033,-0.096 -2.066,-0.152 -3.108,-0.176 -1.716,0.02 -3.524,0.088 -5.417,0.213 -0.431,0.035 -0.861,0.079 -1.292,0.115 -1.63,0.109 -3.261,0.119 -4.894,0.04 -2.203,0.01 -5.868,0.175 -10.992,0.482 -6.314,0.375 -13.719,1.2 -22.221,2.483 -0.351,-0.681 -0.45,-1.642 -0.292,-2.9 0.272,-1.142 0.384,-2.289 0.337,-3.459 -0.03,-0.627 -0.029,-1.256 -0.003,-1.876 0.019,-0.58 0.104,-1.155 0.254,-1.719 0.417,-1.546 1.285,-2.872 2.607,-3.982 2.361,-0.743 5.896,-1.354 10.613,-1.834 4.709,-0.479 9.814,-0.881 15.304,-1.205 5.49,-0.328 11.544,0.044 18.156,1.126 4.028,0.31 7.55,0.15 10.57,-0.493 z"
         id="path1465" />
    </g>
  </g>
</svg>
