<?xml version="1.0" encoding="UTF-8" standalone="no"?>
<!-- Created with Inkscape (http://www.inkscape.org/) -->

<svg
   xmlns:dc="http://purl.org/dc/elements/1.1/"
   xmlns:cc="http://creativecommons.org/ns#"
   xmlns:rdf="http://www.w3.org/1999/02/22-rdf-syntax-ns#"
   xmlns:svg="http://www.w3.org/2000/svg"
   xmlns="http://www.w3.org/2000/svg"
   xmlns:sodipodi="http://sodipodi.sourceforge.net/DTD/sodipodi-0.dtd"
   xmlns:inkscape="http://www.inkscape.org/namespaces/inkscape"
   width="99.8125"
   height="171.90436"
   id="svg5696"
   version="1.1"
   inkscape:version="0.48.4 r9939"
   sodipodi:docname="oscar10.svg">
  <defs
     id="defs5698">
    <clipPath
       id="SVGID_2_">
      <rect
         height="88.862999"
         width="111.498"
         y="518.96198"
         x="382.04999"
         id="use1087" />
    </clipPath>
    <clipPath
       id="SVGID_4_">
      <rect
         height="41.314999"
         width="49.584999"
         y="525.19397"
         x="389.84698"
         id="use1111" />
    </clipPath>
  </defs>
  <sodipodi:namedview
     id="base"
     pagecolor="#ffffff"
     bordercolor="#666666"
     borderopacity="1.0"
     inkscape:pageopacity="0.0"
     inkscape:pageshadow="2"
     inkscape:zoom="0.77472527"
     inkscape:cx="50.061872"
     inkscape:cy="85.952333"
     inkscape:current-layer="layer1"
     inkscape:document-units="px"
     showgrid="false"
     inkscape:window-width="763"
     inkscape:window-height="591"
     inkscape:window-x="592"
     inkscape:window-y="97"
     inkscape:window-maximized="0"
     fit-margin-top="0"
     fit-margin-left="0"
     fit-margin-right="0"
     fit-margin-bottom="0" />
  <metadata
     id="metadata5701">
    <rdf:RDF>
      <cc:Work
         rdf:about="">
        <dc:format>image/svg+xml</dc:format>
        <dc:type
           rdf:resource="http://purl.org/dc/dcmitype/StillImage" />
        <dc:title></dc:title>
      </cc:Work>
    </rdf:RDF>
  </metadata>
  <g
     id="layer1"
     inkscape:label="Layer 1"
     inkscape:groupmode="layer"
     transform="translate(-267.88143,0.84565871)">
    <g
       transform="translate(-32.618574,-567.09756)"
       id="g95">
      <path
         inkscape:connector-curvature="0"
         style="fill:#255f27"
         d="m 364.223,643.584 -31.622,1.528 c 2.145,14.048 0.929,25.604 -3.64,34.658 -0.009,0.012 -0.028,0.029 -0.04,0.058 -0.412,0.686 -0.799,1.398 -1.148,2.131 -2.787,5.525 -4.168,11.796 -4.14,18.81 0.039,9.634 2.699,17.834 7.995,24.609 5.227,6.699 11.514,10.045 18.871,10.025 7.336,-0.037 13.606,-3.434 18.791,-10.173 5.222,-6.817 7.817,-15.038 7.78,-24.673 -0.018,-4.508 -0.613,-8.701 -1.777,-12.578 -0.604,-1.971 -1.371,-3.818 -2.318,-5.534 -1.137,-2.054 -2.249,-4.11 -3.345,-6.156 l -0.019,-0.019 c -4.143,-8.459 -5.943,-19.359 -5.388,-32.686"
         id="path97" />
      <path
         inkscape:connector-curvature="0"
         style="fill:none;stroke:#255f27;stroke-width:1.51849997;stroke-linecap:round;stroke-linejoin:round;stroke-miterlimit:10"
         d="m 332.602,645.112 c 2.145,14.048 0.929,25.604 -3.64,34.658 -0.009,0.011 -0.028,0.028 -0.04,0.058 -0.412,0.686 -0.799,1.398 -1.148,2.131 -2.787,5.525 -4.168,11.796 -4.14,18.81 0.039,9.634 2.699,17.834 7.995,24.61 5.227,6.698 11.514,10.044 18.871,10.024 7.336,-0.038 13.606,-3.434 18.791,-10.173 5.222,-6.817 7.817,-15.038 7.78,-24.673 -0.018,-4.508 -0.613,-8.701 -1.777,-12.578 -0.604,-1.971 -1.371,-3.82 -2.318,-5.534 -1.137,-2.054 -2.249,-4.11 -3.345,-6.156 l -0.019,-0.019 c -4.143,-8.459 -5.943,-19.358 -5.388,-32.687 l -31.622,1.529 z"
         id="path99" />
      <path
         inkscape:connector-curvature="0"
         style="fill:#9fc94c"
         d="m 363.438,644.383 -29.958,1.448 c 1.999,13.858 0.716,25.292 -3.834,34.289 -0.027,0.028 -0.048,0.064 -0.067,0.105 -0.406,0.655 -0.782,1.351 -1.121,2.062 v 0.02 c -2.74,5.42 -4.092,11.577 -4.064,18.458 0.035,9.444 2.65,17.493 7.831,24.146 h 0.009 c 5.065,6.492 11.153,9.732 18.263,9.733 7.108,-0.057 13.169,-3.346 18.195,-9.868 v -0.008 c 5.117,-6.694 7.658,-14.763 7.62,-24.206 -0.019,-4.434 -0.594,-8.551 -1.738,-12.362 -0.585,-1.924 -1.342,-3.716 -2.261,-5.391 v 0.008 c -1.119,-2.035 -2.229,-4.072 -3.308,-6.089 -0.03,-0.039 -0.057,-0.076 -0.077,-0.123 -4.114,-8.384 -5.941,-19.122 -5.49,-32.222"
         id="path101" />
      <path
         inkscape:connector-curvature="0"
         style="fill:#5a6074"
         d="m 306.704,585.834 -1.097,8.144 c 3.438,1.712 7.396,3.005 11.899,3.878 2.604,0.278 5.935,1.217 9.997,2.817 21.617,4.907 45.145,6.275 70.59,4.121 l 0.152,-9.044 -91.541,-9.916 z"
         id="path103" />
      <path
         inkscape:connector-curvature="0"
         style="fill:none;stroke:#737a91;stroke-width:1.51629996;stroke-linecap:round;stroke-linejoin:round;stroke-miterlimit:10"
         d="m 306.704,585.834 91.541,9.916 -0.152,9.044 c -25.445,2.154 -48.973,0.786 -70.59,-4.121 -4.062,-1.601 -7.393,-2.539 -9.997,-2.817 -4.503,-0.873 -8.461,-2.166 -11.899,-3.878 l 1.097,-8.144 z"
         id="path105" />
      <path
         inkscape:connector-curvature="0"
         style="fill:#9fc94c"
         d="m 385.32,602.913 c 1.696,-0.172 2.929,-0.759 3.697,-1.773 -1.696,-0.236 -3.527,-1.184 -5.5,-2.842 -4.873,-5.771 -12.365,-9.133 -22.479,-10.087 0.285,-1.1 1.032,-2.048 2.246,-2.834 -2.665,-0.521 -5.745,-0.282 -9.262,0.713 -0.824,-0.436 -0.854,-1.289 -0.085,-2.55 -3.48,0.106 -6.788,1.587 -9.906,4.421 -4.133,-1.449 -8.37,-1.864 -12.701,-1.254 1.99,0.651 3.25,1.57 3.772,2.765 -6.152,0.875 -11.981,3.75 -17.496,8.624 -2.019,1.783 -3.96,2.809 -5.829,3.074 0.768,1.014 2.001,1.601 3.698,1.77 -3.799,5.358 -6.956,8.299 -9.459,8.821 0.884,1.044 2.277,1.609 4.174,1.705 -0.389,0.862 -0.901,1.668 -1.545,2.418 -0.966,1.119 -2.227,2.086 -3.771,2.902 -0.957,0.502 -2.029,0.958 -3.203,1.349 1.111,1.732 3.545,2.404 7.309,1.995 -0.578,0.996 -1.024,2.029 -1.346,3.1 -0.293,0.969 -0.425,1.955 -0.398,2.948 0.022,0.979 0.201,1.917 0.544,2.816 0.331,0.882 0.832,1.753 1.487,2.625 0.625,-0.874 1.348,-1.602 2.162,-2.182 0.294,0.921 0.626,1.811 1.004,2.675 0.134,0.303 0.276,0.607 0.417,0.91 2.488,5.146 6.536,9.201 12.141,12.156 -0.029,-0.806 0.141,-1.583 0.511,-2.313 4.124,3.895 9.339,6.404 15.663,7.539 -0.068,-0.843 0.161,-1.62 0.663,-2.342 0.379,0.425 0.787,0.824 1.233,1.214 0.426,0.351 0.881,0.691 1.355,1.014 0.502,0.359 1.035,0.682 1.583,0.957 0.625,0.312 1.29,0.577 1.98,0.804 0.361,0.114 0.731,0.208 1.11,0.275 0.682,0.123 1.375,0.171 2.077,0.132 0.596,-0.047 1.165,-0.161 1.706,-0.36 0.616,-0.218 1.196,-0.466 1.744,-0.74 0.579,-0.266 1.098,-0.578 1.583,-0.939 0.491,-0.351 0.985,-0.722 1.466,-1.092 0.494,-0.368 0.939,-0.795 1.338,-1.27 0.503,0.721 0.73,1.497 0.664,2.341 6.323,-1.14 11.537,-3.654 15.658,-7.552 0.371,0.729 0.542,1.508 0.513,2.314 6.728,-3.549 11.21,-8.68 13.437,-15.393 0.891,0.398 1.324,-0.509 2.083,0.411 2.407,-3.765 2.825,-6.071 0.471,-10.081 3.765,0.407 6.202,-0.269 7.308,-2.003 -1.174,-0.389 -2.236,-0.842 -3.194,-1.344 -1.555,-0.815 -2.816,-1.781 -3.783,-2.899 -0.646,-0.749 -1.158,-1.555 -1.547,-2.418 1.895,-0.095 3.29,-0.665 4.17,-1.708 -2.501,-0.521 -5.658,-3.456 -9.463,-8.812"
         id="path107" />
      <path
         inkscape:connector-curvature="0"
         style="fill:none;stroke:#255f27;stroke-width:1.51699996;stroke-linecap:round;stroke-miterlimit:10"
         d="m 385.32,602.913 c 3.804,5.355 6.962,8.291 9.464,8.812 -0.88,1.043 -2.275,1.613 -4.17,1.708 0.389,0.863 0.901,1.669 1.547,2.418 0.967,1.118 2.228,2.084 3.783,2.899 0.958,0.502 2.02,0.955 3.194,1.344 -1.106,1.734 -3.543,2.41 -7.308,2.003 2.354,4.01 1.937,5.14 -0.47,8.903 -0.758,-0.919 -1.193,1.165 -2.084,0.767 -2.226,6.713 -6.708,11.844 -13.437,15.393 0.029,-0.807 -0.142,-1.585 -0.513,-2.314 -4.121,3.897 -9.334,6.412 -15.658,7.552 0.066,-0.844 -0.161,-1.62 -0.664,-2.341 -0.399,0.475 -0.844,0.901 -1.338,1.27 -0.481,0.37 -0.976,0.741 -1.466,1.092 -0.486,0.361 -1.005,0.674 -1.583,0.939 -0.548,0.274 -1.128,0.522 -1.744,0.74 -0.541,0.199 -1.109,0.313 -1.706,0.36 -0.702,0.039 -1.395,-0.009 -2.077,-0.132 -0.378,-0.067 -0.749,-0.161 -1.11,-0.275 -0.691,-0.227 -1.355,-0.491 -1.98,-0.804 -0.549,-0.275 -1.081,-0.598 -1.583,-0.957 -0.474,-0.322 -0.929,-0.663 -1.355,-1.014 -0.447,-0.39 -0.854,-0.789 -1.233,-1.214 -0.502,0.722 -0.73,1.499 -0.663,2.342 -6.324,-1.135 -11.54,-3.645 -15.663,-7.539 -0.37,0.73 -0.541,1.508 -0.511,2.313 -5.605,-2.955 -9.652,-7.011 -12.141,-12.156 -0.141,-0.303 -0.283,-0.607 -0.417,-0.91 -0.378,-0.864 -0.71,-1.754 -1.004,-2.675 -0.814,0.58 -1.536,1.308 -2.162,2.182 -0.655,-0.872 -1.156,-1.743 -1.487,-2.625 -0.344,-0.899 -0.522,-1.838 -0.544,-2.816 -0.027,-0.993 0.104,-1.979 0.398,-2.948 0.322,-1.07 0.768,-2.104 1.346,-3.1 -3.764,0.409 -6.198,-0.263 -7.309,-1.995 1.174,-0.391 2.247,-0.847 3.203,-1.349 1.545,-0.816 2.806,-1.783 3.771,-2.902 0.644,-0.75 1.156,-1.556 1.545,-2.418 -1.897,-0.096 -3.29,-0.661 -4.174,-1.705 2.503,-0.522 5.66,-3.463 9.459,-8.821 -1.697,-0.169 -2.93,-0.756 -3.698,-1.77 1.869,-0.266 3.811,-1.291 5.829,-3.074 5.514,-4.874 11.343,-7.749 17.496,-8.624 -0.523,-1.194 -1.783,-2.113 -3.772,-2.765 4.331,-0.61 8.567,-0.195 12.701,1.254 3.118,-2.834 6.426,-4.314 9.906,-4.421 -0.769,1.262 -0.739,2.114 0.085,2.55 3.517,-0.995 6.597,-1.234 9.262,-0.713 -1.213,0.786 -1.961,1.734 -2.246,2.834 10.114,0.954 17.607,4.316 22.479,10.087 1.973,1.658 3.804,2.605 5.5,2.842 -0.769,1.014 -2.001,1.601 -3.698,1.773 z"
         id="path109" />
      <path
         inkscape:connector-curvature="0"
         style="fill:#1a1414"
         d="m 377.748,626.03 c -18.532,-4.949 -34.811,-3.892 -48.836,3.158 14.682,-5.183 30.956,-6.232 48.836,-3.158"
         id="path111" />
      <path
         inkscape:connector-curvature="0"
         style="fill:none;stroke:#1f1a1a;stroke-width:0.0095;stroke-linecap:round;stroke-linejoin:round;stroke-miterlimit:10"
         d="m 328.912,629.188 c 14.682,-5.184 30.958,-6.23 48.836,-3.158 -18.532,-4.949 -34.811,-3.891 -48.836,3.158 z"
         id="path113" />
      <path
         inkscape:connector-curvature="0"
         style="fill:#ffffff"
         d="m 364.311,601.392 c -2.588,-0.445 -4.948,0.086 -7.099,1.604 -2.152,1.509 -3.441,3.556 -3.875,6.145 -0.445,2.588 0.097,4.957 1.604,7.1 1.536,2.152 3.593,3.45 6.182,3.895 2.579,0.436 4.938,-0.107 7.072,-1.635 2.15,-1.506 3.44,-3.564 3.883,-6.153 0.437,-2.587 -0.105,-4.947 -1.614,-7.08 -1.526,-2.152 -3.576,-3.452 -6.153,-3.876"
         id="path115" />
      <path
         inkscape:connector-curvature="0"
         style="fill:#ffffff"
         d="m 327.826,609.159 c -0.444,2.578 0.097,4.939 1.616,7.091 1.526,2.152 3.583,3.448 6.173,3.894 2.569,0.444 4.929,-0.105 7.071,-1.633 2.151,-1.518 3.448,-3.566 3.892,-6.146 0.445,-2.588 -0.097,-4.956 -1.633,-7.098 -1.517,-2.151 -3.566,-3.44 -6.134,-3.866 -2.589,-0.446 -4.958,0.097 -7.11,1.604 -2.133,1.508 -3.421,3.567 -3.875,6.154"
         id="path117" />
      <path
         inkscape:connector-curvature="0"
         style="fill:#1f1a1a"
         d="m 365.379,608.63 c -0.503,-1.022 -1.29,-1.708 -2.357,-2.07 -1.077,-0.363 -2.12,-0.298 -3.139,0.2 -1.022,0.503 -1.708,1.289 -2.07,2.356 -0.363,1.069 -0.296,2.107 0.201,3.129 0.506,1.021 1.291,1.706 2.359,2.067 1.067,0.364 2.107,0.295 3.126,-0.202 1.021,-0.496 1.706,-1.282 2.068,-2.358 0.372,-1.066 0.311,-2.102 -0.188,-3.122"
         id="path119" />
      <path
         inkscape:connector-curvature="0"
         style="fill:#1f1a1a"
         d="m 342.864,608.716 c -0.504,-1.021 -1.289,-1.706 -2.357,-2.07 -1.077,-0.363 -2.121,-0.298 -3.141,0.2 -1.021,0.503 -1.707,1.289 -2.069,2.358 -0.364,1.069 -0.294,2.106 0.2,3.127 0.506,1.023 1.292,1.706 2.361,2.07 1.069,0.362 2.106,0.294 3.126,-0.204 1.021,-0.498 1.705,-1.282 2.071,-2.356 0.368,-1.068 0.307,-2.105 -0.191,-3.125"
         id="path121" />
      <path
         inkscape:connector-curvature="0"
         style="fill:#c16513"
         d="m 363.457,596.729 c -0.37,-0.654 -1.025,-0.778 -1.953,-0.359 -3.631,1.697 -7.042,3.614 -10.237,5.73 -0.652,0.435 -1.146,0.529 -1.497,0.283 -4.276,-2.937 -7.187,-4.783 -8.751,-5.542 -1.593,-0.777 -2.712,-0.88 -3.355,-0.301 -0.655,0.559 -0.892,1.27 -0.701,2.151 -5.965,0.258 -10.418,1.331 -13.376,3.209 -2.937,1.859 -4.483,3.158 -4.636,3.907 -0.158,0.729 0.886,1.071 3.13,1.014 -1.933,1.555 -3.506,3.433 -4.708,5.641 -0.588,1.072 -0.852,1.906 -0.796,2.504 0.011,0.076 0.028,0.151 0.047,0.237 0.009,0.047 0.028,0.086 0.038,0.122 0.028,0.068 0.076,0.115 0.123,0.162 0.124,0.122 0.266,0.219 0.428,0.303 0.198,0.104 0.417,0.181 0.636,0.237 0.169,0.067 0.35,0.114 0.531,0.162 3.308,0.728 6.586,0.554 9.819,-0.526 0.132,-3.213 1.042,-5.812 2.737,-7.812 1.677,-2.002 3.714,-2.714 6.095,-2.117 1.869,0.465 3.49,1.089 4.855,1.877 l 2.047,1.334 c 1.309,0.88 2.408,1.507 3.29,1.877 0.873,0.368 1.944,0.537 3.215,0.519 1.29,-0.01 2.699,-0.437 4.247,-1.281 1.544,-0.854 2.69,-1.489 3.44,-1.906 0.861,-0.466 1.791,-0.91 2.786,-1.318 1.223,-0.476 2.436,-0.789 3.63,-0.931 1.925,-0.228 3.452,0.064 4.58,0.89 0.559,0.406 1.024,0.956 1.395,1.647 0.388,0.692 0.702,1.413 0.957,2.162 0.457,1.43 0.562,3.08 0.306,4.93 3.423,1.069 7.092,1.353 11.007,0.839 1.157,-0.133 1.781,-0.551 1.875,-1.262 0.142,-0.758 -0.293,-1.811 -1.288,-3.147 -1.483,-2 -3.018,-3.678 -4.609,-5.013 0.549,0.086 1.193,0.021 1.942,-0.189 1.659,-0.483 1.716,-1.309 0.148,-2.476 -5.829,-4.244 -11.413,-6.186 -16.732,-5.822 -0.105,-0.579 -0.324,-1.156 -0.665,-1.735"
         id="path123" />
      <path
         inkscape:connector-curvature="0"
         style="fill:#b0b6d5"
         d="m 335.056,649.823 c 0.385,-4.299 -1.217,-6.369 -4.816,-6.211 l -20.218,-0.024 c -2.894,-0.128 -4.708,0.952 -5.432,3.258 -0.162,0.599 -0.297,1.31 -0.402,2.145 -0.084,0.446 -0.162,1.281 -0.231,2.525 -0.184,3.977 -0.54,7.688 -1.075,11.143 -0.395,4.288 1.217,6.35 4.835,6.192 l 20.215,0.023 c 3.568,0.185 5.555,-1.883 5.95,-6.182 l 1.174,-12.869 z m -5.239,-1.562 c 0.485,0.144 0.673,0.656 0.588,1.558 l -1.175,12.869 c -0.074,0.883 -0.37,1.406 -0.873,1.555 l -20.217,-0.022 c -0.493,-0.143 -0.701,-0.654 -0.625,-1.556 l 1.192,-12.872 c 0.086,-0.91 0.391,-1.432 0.913,-1.555 l 20.197,0.023 z"
         id="path125" />
      <path
         inkscape:connector-curvature="0"
         style="fill:none;stroke:#737a91;stroke-width:1.51849997;stroke-linecap:round;stroke-linejoin:round;stroke-miterlimit:10"
         d="m 329.817,648.261 -20.197,-0.023 c -0.522,0.123 -0.827,0.645 -0.913,1.555 l -1.192,12.872 c -0.076,0.901 0.132,1.413 0.625,1.556 l 20.217,0.022 c 0.503,-0.148 0.799,-0.672 0.873,-1.555 l 1.175,-12.869 c 0.085,-0.902 -0.103,-1.415 -0.588,-1.558 z m 5.239,1.562 -1.173,12.869 c -0.395,4.299 -2.382,6.366 -5.95,6.182 l -20.215,-0.023 c -3.617,0.157 -5.23,-1.904 -4.835,-6.192 0.535,-3.455 0.891,-7.166 1.075,-11.143 0.069,-1.244 0.146,-2.079 0.231,-2.525 0.105,-0.835 0.24,-1.546 0.402,-2.145 0.724,-2.306 2.538,-3.386 5.432,-3.258 l 20.218,0.024 c 3.598,-0.158 5.2,1.912 4.815,6.211 z"
         id="path127" />
      <rect
         x="315.099"
         y="637.59003"
         transform="matrix(-0.0012,1,-1,-0.0012,965.219,325.9532)"
         style="fill:#c6cee3"
         width="9.4540005"
         height="14.847"
         id="rect129" />
      <rect
         x="312.40399"
         y="640.28601"
         transform="matrix(1,0.0011,-0.0011,1,0.679,-0.3362)"
         style="fill:none;stroke:#737a91;stroke-width:1.51849997;stroke-linecap:round;stroke-linejoin:round;stroke-miterlimit:10"
         width="14.847"
         height="9.4530001"
         id="rect131" />
      <path
         inkscape:connector-curvature="0"
         style="fill:#b0b6d5"
         d="m 392.438,623.971 c -0.748,-0.656 -1.662,-0.979 -2.733,-0.98 l -2.826,-0.033 c -2.07,0.159 -4.244,0.262 -6.531,0.288 -1.168,0.016 -2.353,0.024 -3.57,0.023 -8.096,-0.152 -13.467,-0.271 -16.098,-0.341 l -23.48,-0.284 c -5.05,-0.108 -10.736,-0.049 -17.068,0.171 -1.441,0.046 -2.913,0.111 -4.422,0.176 -1.935,0.044 -3.71,0.042 -5.334,-0.008 l -2.638,-0.079 -0.379,-0.009 c -1.064,-10e-4 -1.985,0.32 -2.754,0.975 -0.524,0.464 -0.856,1.004 -1.018,1.602 -0.068,0.256 -0.107,0.731 -0.108,1.443 v 1.719 c -10e-4,1.072 0.367,1.983 1.117,2.734 0.768,0.761 1.858,1.18 3.262,1.258 h 0.012 c 3.084,0.184 6.168,0.252 9.27,0.2 1.397,-0.027 3.874,-0.121 7.443,-0.297 4.737,-0.08 9.424,-0.074 14.065,0.017 l 19.145,0.021 c 2.905,0.167 5.81,0.16 8.713,-0.036 2.791,-0.024 5.581,-0.08 8.374,-0.142 2.857,-0.073 5.713,-0.051 8.569,0.057 1.138,0.031 2.278,0.061 3.417,0.089 0.219,0 0.446,0 0.665,0.011 0.569,0.02 1.216,0.04 1.937,0.06 h 0.048 0.178 c 1.075,0.002 1.985,-0.377 2.735,-1.135 0.762,-0.75 1.142,-1.66 1.143,-2.733 l 0.002,-2.344 c 10e-4,-0.942 -0.379,-1.748 -1.136,-2.423"
         id="path133" />
      <path
         inkscape:connector-curvature="0"
         style="fill:#c6cee3"
         d="m 387.499,632.456 c -0.216,-0.01 -0.445,-0.01 -0.665,-0.011 -1.138,-0.029 -2.277,-0.058 -3.417,-0.089 -2.855,-0.108 -5.712,-0.129 -8.568,-0.057 -2.791,0.062 -5.583,0.116 -8.374,0.143 -2.903,0.194 -5.809,0.201 -8.713,0.037 l -19.144,-0.023 c -4.643,-0.092 -9.331,-0.096 -14.067,-0.017 -3.569,0.178 -6.045,0.27 -7.44,0.296 -3.104,0.054 -6.188,-0.017 -9.273,-0.201 0.103,0.971 0.186,2.06 0.244,3.266 l 0.052,3.692 c 0,0.124 0,0.256 -0.01,0.389 -0.04,1.708 -0.061,3.342 -0.054,4.89 l 0.216,9.529 c 0.059,0.788 0.114,1.547 0.181,2.268 l 0.071,1.576 c 0.16,2.629 0.328,5.097 0.507,7.386 0.037,0.445 0.074,0.883 0.111,1.309 0.084,1.11 0.159,2.25 0.224,3.418 0.028,0.503 0.036,1.016 0.036,1.537 l -10e-4,0.361 c -0.018,1.006 -0.067,2.002 -0.154,2.997 -0.029,0.297 -0.048,0.582 -0.077,0.855 v 0.058 c -0.105,0.844 -0.201,1.699 -0.288,2.544 -0.123,1.072 -0.212,2.146 -0.241,3.227 -0.009,0.134 -0.009,0.266 -0.009,0.398 -0.01,0.237 -0.001,0.474 0.018,0.712 0.007,0.256 0.037,0.512 0.075,0.768 0.197,1.179 0.491,2.347 0.869,3.493 0.179,0.581 0.385,1.17 0.642,1.75 0.151,0.351 0.519,1.869 1.117,4.556 0.244,0.865 0.31,1.661 0.194,2.392 -0.113,0.712 -0.4,1.358 -0.865,1.938 -0.266,0.341 -0.475,0.768 -0.628,1.271 -0.277,0.9 -0.383,2.075 -0.308,3.528 0.03,0.6 0.085,1.255 0.171,1.956 l 1.06,18.698 -0.004,2.707 c 0.229,0.028 0.456,0.067 0.674,0.114 0.683,0.172 1.367,0.352 2.039,0.552 0.712,0.031 1.415,0.05 2.128,0.08 0.598,0.067 1.206,0.104 1.803,0.115 0.055,0 0.112,0 0.171,0.009 0.664,0.012 1.329,0.014 2.001,0.002 0.609,-0.008 1.215,-0.026 1.823,-0.054 0.665,-0.027 1.32,-0.047 1.966,-0.055 0.617,-0.008 1.233,0.001 1.84,0.032 0.599,0.027 1.187,0.048 1.765,0.048 0.694,-0.008 1.388,-0.027 2.098,-0.063 0.448,-0.028 0.892,-0.047 1.34,-0.075 1.508,-0.102 2.742,-0.29 3.701,-0.555 1.577,-0.444 3.55,-0.12 5.922,0.984 0.502,0.236 1.035,0.505 1.574,0.808 3.063,1.732 6.129,1.926 9.188,0.592 0.248,-0.104 0.504,-0.209 0.761,-0.295 2.933,-0.87 5.877,-1.645 8.848,-2.314 0.124,-0.037 0.238,-0.077 0.361,-0.113 0.352,-0.114 0.713,-0.209 1.063,-0.275 0.723,-0.141 1.444,-0.188 2.166,-0.139 0.218,0.019 0.445,0.058 0.664,0.115 0.721,0.141 1.432,0.381 2.145,0.693 0.444,0.143 0.899,0.239 1.366,0.306 1.963,0.363 3.027,0.555 3.188,0.582 1.29,0.191 2.315,0.288 3.064,0.288 1.243,0.002 2.534,-0.052 3.854,-0.155 0.807,-0.065 2.175,-0.197 4.082,-0.412 l 3.191,-0.101 v -2.432 c -0.008,-0.304 -0.008,-0.607 -0.007,-0.9 0.047,-7.86 0.38,-15.833 0.996,-23.917 0.442,-4.273 0.682,-7.508 0.734,-9.71 0.018,-0.978 0.001,-1.756 -0.055,-2.324 -0.093,-0.979 -0.151,-1.796 -0.178,-2.45 -0.028,-0.58 -0.019,-1.026 0.011,-1.348 0.057,-0.513 0.201,-1.082 0.419,-1.707 0.077,-0.21 0.163,-0.428 0.25,-0.646 1.035,-2.191 1.636,-3.861 1.798,-5.009 0.057,-0.438 0.059,-0.798 -0.008,-1.082 -0.272,-1.073 -0.642,-1.928 -1.097,-2.546 -0.398,-0.522 -0.606,-1.718 -0.632,-3.598 -0.008,-0.408 0.002,-0.835 0.013,-1.302 l 0.076,-2.296 v -0.076 c -0.007,-9.577 0.337,-19.001 1.021,-28.282 0.097,-1.328 0.203,-2.856 0.328,-4.574 -0.727,-0.021 -1.372,-0.042 -1.943,-0.062"
         id="path135" />
      <polygon
         style="fill:#b0b6d5"
         points="307.487,622.806 307.328,622.806 307.708,622.815 "
         id="polygon137" />
      <path
         inkscape:connector-curvature="0"
         style="fill:#c6cee3"
         d="m 308.082,635.8 c -0.058,-1.206 -0.141,-2.297 -0.244,-3.266 h -0.008 c 0.103,1.054 0.186,2.1 0.242,3.133 0,0.037 0,0.086 0.01,0.133"
         id="path139" />
      <path
         inkscape:connector-curvature="0"
         style="fill:#b0b6d5"
         d="m 340.256,727.137 c -2.372,-1.104 -4.345,-1.429 -5.922,-0.984 -0.958,0.265 -2.193,0.453 -3.701,0.555 -0.447,0.028 -0.893,0.047 -1.34,0.076 -0.71,0.035 -1.403,0.055 -2.098,0.061 -0.578,0.002 -1.166,-0.018 -1.764,-0.046 -0.607,-0.032 -1.224,-0.04 -1.841,-0.032 -0.646,0.009 -1.301,0.027 -1.966,0.056 -0.607,0.026 -1.214,0.045 -1.823,0.054 -0.672,0.01 -1.338,0.009 -2.003,-0.003 -0.057,-0.009 -0.113,-0.009 -0.169,-0.009 -0.597,-0.011 -1.205,-0.048 -1.803,-0.115 -0.713,-0.03 -1.416,-0.049 -2.128,-0.08 -0.369,0.01 -0.731,0.029 -1.092,0.037 -0.54,0.028 -1.081,0.047 -1.623,0.074 -0.142,0.01 -0.292,0.01 -0.446,0.021 -0.161,0.008 -0.322,0.008 -0.484,0.008 -1.528,0.748 -2.3,1.972 -2.302,3.68 l -0.002,2.942 c -0.001,1.073 0.329,1.984 1.003,2.735 0.69,0.759 1.526,1.141 2.485,1.142 l 74.26,0.086 c 0.979,10e-4 1.794,-0.377 2.469,-1.137 0.685,-0.748 1.028,-1.66 1.028,-2.731 l 0.004,-2.942 c 0.001,-1.073 -0.339,-1.993 -1.021,-2.754 -0.618,-0.684 -1.348,-1.056 -2.209,-1.112 l -3.191,0.1 c -1.906,0.216 -3.274,0.348 -4.082,0.413 -1.32,0.104 -2.611,0.157 -3.854,0.155 -0.749,0 -1.774,-0.097 -3.064,-0.286 -0.162,-0.029 -1.225,-0.221 -3.188,-0.583 -0.467,-0.067 -0.922,-0.164 -1.366,-0.306 -0.712,-0.314 -1.424,-0.553 -2.145,-0.695 -0.219,-0.056 -0.446,-0.098 -0.664,-0.114 -0.722,-0.049 -1.443,-0.002 -2.165,0.138 -0.351,0.067 -0.712,0.162 -1.064,0.276 -0.123,0.036 -0.237,0.076 -0.361,0.113 -2.971,0.67 -5.915,1.444 -8.848,2.314 -0.256,0.086 -0.513,0.189 -0.761,0.295 -3.058,1.334 -6.125,1.14 -9.185,-0.591 -0.539,-0.306 -1.072,-0.575 -1.574,-0.811"
         id="path141" />
      <path
         inkscape:connector-curvature="0"
         style="fill:none;stroke:#737a91;stroke-width:1.51849997;stroke-linecap:round;stroke-linejoin:round;stroke-miterlimit:10"
         d="m 307.838,632.534 h -0.008 c -1.406,-0.078 -2.496,-0.497 -3.264,-1.255 -0.749,-0.753 -1.119,-1.663 -1.117,-2.736 l 0.002,-1.718 c 10e-4,-0.711 0.038,-1.186 0.105,-1.443 0.164,-0.597 0.495,-1.138 1.018,-1.602 0.77,-0.653 1.691,-0.977 2.754,-0.975 l 0.379,0.01 2.639,0.078 c 1.623,0.051 3.398,0.053 5.334,0.006 1.51,-0.063 2.981,-0.129 4.423,-0.174 6.331,-0.221 12.018,-0.28 17.067,-0.171 l 23.481,0.285 c 2.628,0.068 8,0.188 16.097,0.339 1.215,0.003 2.401,-0.006 3.567,-0.021 2.289,-0.026 4.463,-0.129 6.532,-0.288 l 2.828,0.032 c 1.074,0 1.985,0.325 2.733,0.98 0.759,0.676 1.138,1.482 1.137,2.422 l -0.004,2.345 c -10e-4,1.072 -0.382,1.981 -1.144,2.732 -0.75,0.758 -1.662,1.136 -2.733,1.136 -0.058,-10e-4 -0.114,0 -0.18,0 h -0.048 m 0.002,0.001 c -0.722,-0.021 -1.367,-0.04 -1.938,-0.061 -0.216,-0.01 -0.445,-0.01 -0.665,-0.01 -1.138,-0.03 -2.275,-0.06 -3.417,-0.09 -2.855,-0.108 -5.712,-0.129 -8.568,-0.057 -2.791,0.062 -5.583,0.116 -8.373,0.141 -2.904,0.196 -5.81,0.202 -8.714,0.039 l -19.143,-0.023 c -4.644,-0.092 -9.332,-0.096 -14.067,-0.016 -3.569,0.177 -6.046,0.269 -7.441,0.295 -3.104,0.055 -6.188,-0.017 -9.273,-0.201 m 77.931,94.182 v -2.431 c -0.008,-0.304 -0.008,-0.607 -0.007,-0.903 0.047,-7.858 0.38,-15.831 0.996,-23.915 0.442,-4.271 0.682,-7.509 0.734,-9.71 0.018,-0.978 0.001,-1.756 -0.055,-2.324 -0.093,-0.98 -0.151,-1.796 -0.178,-2.449 -0.028,-0.579 -0.019,-1.027 0.011,-1.35 0.057,-0.512 0.201,-1.081 0.419,-1.707 0.077,-0.209 0.163,-0.428 0.25,-0.646 1.035,-2.188 1.636,-3.86 1.798,-5.009 0.057,-0.437 0.059,-0.797 -0.008,-1.081 -0.272,-1.073 -0.642,-1.928 -1.097,-2.546 -0.398,-0.522 -0.605,-1.718 -0.632,-3.598 -0.008,-0.408 0.002,-0.835 0.013,-1.3 l 0.076,-2.298 v -0.076 c -0.007,-9.578 0.337,-19.001 1.021,-28.282 0.097,-1.328 0.203,-2.856 0.328,-4.574 m -81.952,-9.711 2.726,-0.017 m -2.375,9.745 c 0.103,0.969 0.186,2.06 0.244,3.266 l 0.052,3.692 c 0,0.124 0,0.256 -0.01,0.389 -0.04,1.708 -0.061,3.343 -0.054,4.889 l 0.216,9.529 c 0.059,0.789 0.114,1.548 0.181,2.269 l 0.072,1.575 c 0.159,2.631 0.328,5.098 0.506,7.387 0.037,0.445 0.074,0.883 0.111,1.309 0.084,1.11 0.159,2.25 0.224,3.418 0.029,0.503 0.036,1.015 0.036,1.537 l -10e-4,0.361 c -0.018,1.006 -0.067,2.001 -0.154,2.997 -0.029,0.297 -0.048,0.582 -0.077,0.857 v 0.056 c -0.105,0.844 -0.202,1.699 -0.288,2.544 -0.123,1.072 -0.212,2.145 -0.241,3.227 -0.009,0.133 -0.009,0.266 -0.009,0.398 -0.01,0.238 -0.001,0.475 0.018,0.712 0.007,0.257 0.037,0.513 0.075,0.768 0.197,1.179 0.491,2.347 0.869,3.494 0.179,0.579 0.385,1.169 0.642,1.748 0.151,0.351 0.519,1.871 1.117,4.557 0.245,0.866 0.31,1.663 0.194,2.394 -0.113,0.711 -0.4,1.356 -0.865,1.936 -0.266,0.339 -0.475,0.766 -0.627,1.27 -0.275,0.902 -0.384,2.08 -0.308,3.531 0.029,0.599 0.084,1.253 0.17,1.954 l 1.06,18.699 -0.004,2.707 m 74.783,0.712 -3.191,0.101 c -1.906,0.215 -3.274,0.347 -4.082,0.412 -1.32,0.103 -2.611,0.157 -3.854,0.155 -0.749,0.002 -1.774,-0.097 -3.064,-0.287 -0.162,-0.028 -1.225,-0.221 -3.188,-0.583 -0.467,-0.066 -0.922,-0.163 -1.366,-0.305 -0.713,-0.313 -1.424,-0.554 -2.145,-0.695 -0.219,-0.056 -0.446,-0.096 -0.664,-0.114 -0.722,-0.049 -1.443,-0.002 -2.165,0.14 -0.351,0.065 -0.712,0.16 -1.064,0.274 -0.123,0.036 -0.237,0.076 -0.361,0.113 -2.971,0.67 -5.915,1.444 -8.848,2.314 -0.256,0.086 -0.513,0.189 -0.761,0.295 -3.058,1.334 -6.125,1.141 -9.185,-0.591 -0.542,-0.304 -1.074,-0.572 -1.576,-0.809 -2.372,-1.104 -4.345,-1.43 -5.922,-0.984 -0.958,0.265 -2.193,0.453 -3.701,0.555 -0.447,0.028 -0.894,0.047 -1.34,0.076 -0.71,0.035 -1.403,0.054 -2.098,0.061 -0.578,0.002 -1.166,-0.018 -1.764,-0.046 -0.607,-0.031 -1.224,-0.042 -1.841,-0.032 -0.646,0.009 -1.301,0.027 -1.966,0.056 -0.607,0.026 -1.216,0.045 -1.823,0.054 -0.672,0.01 -1.338,0.009 -2.001,-0.003 -0.059,-0.008 -0.115,-0.008 -0.171,-0.008 -0.597,-0.012 -1.205,-0.049 -1.803,-0.116 -0.713,-0.03 -1.416,-0.049 -2.128,-0.08 -0.369,0.01 -0.731,0.029 -1.092,0.037 -0.54,0.028 -1.081,0.047 -1.623,0.075 -0.142,0.009 -0.292,0.009 -0.446,0.019 -0.159,0.009 -0.322,0.009 -0.484,0.009 -1.528,0.748 -2.3,1.972 -2.302,3.68 l -0.002,2.942 c -0.001,1.073 0.329,1.984 1.003,2.735 0.69,0.759 1.526,1.14 2.485,1.141 l 74.26,0.087 c 0.979,10e-4 1.796,-0.379 2.469,-1.137 0.685,-0.748 1.028,-1.66 1.028,-2.731 l 0.004,-2.943 c 0.001,-1.072 -0.339,-1.992 -1.022,-2.753 -0.615,-0.685 -1.345,-1.058 -2.206,-1.114 z"
         id="path143" />
      <path
         inkscape:connector-curvature="0"
         style="fill:#b0b6d5"
         d="m 380.662,637.309 h -0.02 c -1.139,-0.03 -2.126,0.89 -2.963,2.749 -0.886,1.83 -1.352,4.052 -1.395,6.661 l -0.188,30.562 c -0.587,1.337 -0.99,2.885 -1.189,4.63 -0.098,0.779 -0.156,1.596 -0.166,2.448 -0.107,2.202 0.167,3.939 0.81,5.203 l -0.75,24.486 c -0.04,2.307 0.308,4.282 1.037,5.943 0.72,1.635 1.62,2.451 2.694,2.452 h 0.018 c 1.033,10e-4 1.967,-0.813 2.773,-2.445 0.8,-1.659 1.23,-3.634 1.298,-5.939 l 0.358,-28.893 c -0.562,-0.446 -0.853,-1.529 -0.889,-3.247 -0.008,-0.237 -0.008,-0.484 0,-0.741 l 1.28,-6.28 1.151,-28.17 c 0.051,-2.609 -0.287,-4.832 -1.037,-6.665 -0.745,-1.861 -1.685,-2.781 -2.822,-2.754"
         id="path145" />
      <path
         inkscape:connector-curvature="0"
         style="fill:#b0b6d5"
         d="m 370.104,640.048 c -0.766,-1.859 -1.724,-2.781 -2.863,-2.756 h -0.02 c -1.138,-0.028 -2.117,0.89 -2.927,2.75 -0.836,1.83 -1.276,4.052 -1.319,6.66 l -0.383,37.53 -0.862,6.795 c -0.162,0.834 -0.031,2.269 0.413,4.31 l 0.035,18.698 c -0.041,2.307 0.317,4.279 1.074,5.942 0.719,1.635 1.621,2.451 2.713,2.452 h 0.017 c 1.026,10e-4 1.948,-0.813 2.755,-2.445 0.774,-1.66 1.193,-3.635 1.261,-5.94 L 369.93,691.74 c -0.645,-1.492 -0.869,-3.2 -0.678,-5.108 l 1.319,-7.362 0.626,-32.558 c 0.032,-2.608 -0.336,-4.831 -1.093,-6.664 l 0,0 z"
         id="path147" />
      <path
         inkscape:connector-curvature="0"
         style="fill:#b0b6d5"
         d="m 357.044,640.033 c -0.786,-1.862 -1.734,-2.782 -2.864,-2.755 h -0.019 c -1.14,-0.032 -2.117,0.888 -2.927,2.748 -0.837,1.831 -1.258,4.052 -1.262,6.661 l -0.341,48.541 0.832,3.931 c 0.199,0.899 0.112,2.647 -0.27,5.256 l -0.374,9.604 c -0.003,2.308 0.385,4.282 1.153,5.944 0.747,1.634 1.645,2.45 2.71,2.452 h 0.018 c 1.063,0.001 1.976,-0.813 2.738,-2.445 0.761,-1.661 1.154,-3.636 1.183,-5.94 l 0.589,-67.332 c 0.016,-2.61 -0.371,-4.833 -1.166,-6.665"
         id="path149" />
      <path
         inkscape:connector-curvature="0"
         style="fill:#b0b6d5"
         d="m 341.177,637.263 c -1.148,-0.03 -2.117,0.889 -2.907,2.749 -0.801,1.829 -1.183,4.052 -1.148,6.662 l 0.523,7.688 -0.346,2.467 0.68,36.297 0.623,3.569 c 0.445,1.605 0.128,3.968 -0.938,7.081 l -0.051,10.23 c -0.011,2.307 0.374,4.281 1.172,5.944 0.757,1.634 1.675,2.45 2.75,2.452 h 0.017 c 1.055,10e-4 1.957,-0.814 2.717,-2.445 0.762,-1.66 1.145,-3.636 1.147,-5.941 l 0.184,-11.048 0.44,-3.663 -0.681,-2.526 -0.056,-50.097 c 0.004,-2.609 -0.402,-4.83 -1.206,-6.663 -0.797,-1.861 -1.764,-2.784 -2.902,-2.756 h -0.018 z"
         id="path151" />
      <path
         inkscape:connector-curvature="0"
         style="fill:#b0b6d5"
         d="m 328.61,637.248 h -0.018 c -1.15,-0.031 -2.118,0.89 -2.89,2.748 -0.791,1.832 -1.152,4.052 -1.09,6.662 l 1.491,7.423 -1.067,3.437 0.931,33.829 c 0.65,2.591 0.979,5.098 0.976,7.519 l -0.857,3.853 -0.376,11.275 c 0.027,2.306 0.441,4.281 1.248,5.941 0.785,1.635 1.696,2.451 2.75,2.452 h 0.019 c 1.062,0.002 1.965,-0.813 2.698,-2.443 0.731,-1.661 1.097,-3.634 1.07,-5.941 l -0.483,-9.169 c -0.026,-0.978 0.042,-1.729 0.193,-2.26 0.142,-0.53 0.257,-0.882 0.362,-1.062 0.085,-0.182 0.181,-0.389 0.267,-0.626 0.276,-0.723 0.41,-1.454 0.402,-2.203 0,-0.531 -0.048,-1.053 -0.15,-1.575 -0.161,-0.836 -0.37,-1.661 -0.625,-2.486 l -0.376,-2.375 -0.417,-34.131 c 0.762,-1.794 1.19,-3.122 1.276,-3.967 l -0.547,-2.981 -0.564,-4.499 c -0.044,-2.61 -0.478,-4.832 -1.301,-6.664 -0.835,-1.862 -1.811,-2.784 -2.922,-2.757"
         id="path153" />
      <path
         inkscape:connector-curvature="0"
         style="fill:#b0b6d5"
         d="m 315.987,637.232 h -0.02 c -1.148,-0.029 -2.099,0.891 -2.832,2.751 -0.771,1.829 -1.134,3.651 -1.089,5.464 -0.047,0.304 -0.066,0.599 -0.038,0.894 0.084,0.684 0.331,1.29 0.72,1.822 0.424,0.58 0.719,1.245 0.87,1.976 0.064,0.294 0.142,0.712 0.226,1.271 -0.332,0.902 -0.638,1.927 -0.916,3.093 l -0.438,1.766 1.629,35.994 1.495,4.026 c 0.52,1.51 0.366,2.923 -0.46,4.252 -0.695,0.805 -1.093,2.447 -1.183,4.914 0.263,2.621 0.211,5.459 -0.143,8.524 0.045,2.307 0.479,4.28 1.283,5.941 0.807,1.636 1.754,2.452 2.827,2.453 h 0.019 c 1.036,10e-4 1.931,-0.814 2.661,-2.445 0.715,-1.66 1.049,-3.634 1.014,-5.941 l -0.197,-10.478 c 0.715,-3.103 0.934,-5.268 0.672,-6.491 l -0.736,-3.836 -1.572,-35.804 c -0.009,-0.381 0.134,-0.825 0.438,-1.327 0.304,-0.504 0.637,-1.368 1.009,-2.582 0.088,-0.342 0.163,-0.598 0.229,-0.779 l -1.115,-4.974 c -0.114,-0.579 -0.179,-1.235 -0.188,-1.955 0.051,-2.013 -0.346,-3.939 -1.188,-5.772 -0.861,-1.862 -1.848,-2.783 -2.977,-2.757"
         id="path155" />
      <path
         inkscape:connector-curvature="0"
         style="fill:#b0b6d5"
         d="m 391.942,656.092 -0.237,-6.683 c -0.301,-4.301 -2.244,-6.372 -5.821,-6.214 l -20.219,-0.025 c -2.002,-0.085 -3.389,0.473 -4.159,1.686 -0.162,0.372 -0.303,0.74 -0.419,1.121 -0.122,0.427 -0.2,0.871 -0.21,1.327 -0.01,0.609 0.018,1.207 0.093,1.804 0.074,0.561 0.121,1.111 0.131,1.652 0.009,0.759 0.036,1.509 0.071,2.258 0.038,0.686 0.085,1.367 0.132,2.052 0.01,0.162 0.029,0.331 0.037,0.493 l 0.581,7.441 c 0.075,0.836 0.234,1.652 0.471,2.449 0.066,0.2 0.134,0.409 0.208,0.608 0.824,1.453 2.133,2.252 3.945,2.378 2.505,-0.073 5.012,-0.022 7.517,0.142 1.131,0.012 2.363,0.068 3.703,0.155 1.907,0.09 3.931,0.118 6.056,0.083 0.958,-0.074 1.925,-0.14 2.903,-0.206 0.457,-0.035 0.919,-0.083 1.385,-0.131 0.409,-0.037 0.807,-0.074 1.215,-0.11 2.431,-0.501 3.525,-2.532 3.273,-6.091 l -0.656,-6.189 z m -5.742,-8.247 c 0.503,0.145 0.787,0.657 0.852,1.56 0.538,3.712 0.835,7.66 0.879,11.864 0.161,1.103 0.044,1.908 -0.344,2.43 -0.029,0.039 -0.061,0.066 -0.097,0.097 -4.186,0.593 -7.86,0.786 -11.01,0.593 -3.151,-0.193 -5.363,-0.309 -6.625,-0.348 -1.281,-0.05 -2.25,-0.145 -2.903,-0.27 l -0.398,-0.381 c -0.161,-0.267 -0.266,-0.646 -0.301,-1.139 l -0.751,-8.506 -0.147,-4.368 c -0.064,-0.91 0.143,-1.432 0.627,-1.555 l 20.218,0.023 z"
         id="path157" />
      <path
         inkscape:connector-curvature="0"
         style="fill:none;stroke:#737a91;stroke-width:1.51849997;stroke-linecap:round;stroke-linejoin:round;stroke-miterlimit:10"
         d="m 391.705,649.409 c -0.301,-4.301 -2.244,-6.372 -5.821,-6.214 l -20.219,-0.025 c -2.002,-0.085 -3.389,0.473 -4.159,1.686 -0.162,0.372 -0.303,0.74 -0.419,1.121 -0.122,0.427 -0.2,0.871 -0.21,1.327 -0.01,0.609 0.018,1.207 0.093,1.804 0.074,0.561 0.121,1.111 0.131,1.652 0.009,0.759 0.036,1.509 0.071,2.258 0.038,0.686 0.085,1.367 0.132,2.052 0.01,0.162 0.029,0.331 0.037,0.493 l 0.581,7.441 c 0.075,0.836 0.234,1.652 0.471,2.449 0.066,0.2 0.134,0.409 0.208,0.608 0.824,1.453 2.133,2.252 3.945,2.378 2.505,-0.073 5.012,-0.022 7.517,0.142 1.131,0.012 2.363,0.068 3.703,0.155 1.907,0.09 3.931,0.118 6.056,0.083 0.958,-0.074 1.925,-0.14 2.903,-0.206 0.457,-0.035 0.919,-0.083 1.385,-0.131 0.409,-0.037 0.807,-0.074 1.215,-0.11 2.431,-0.501 3.525,-2.532 3.273,-6.091 l -0.658,-6.189 -0.235,-6.683 z m -5.505,-1.564 -20.218,-0.022 c -0.484,0.123 -0.692,0.645 -0.627,1.555 l 0.147,4.368 0.751,8.506 c 0.035,0.493 0.14,0.872 0.301,1.139 l 0.398,0.381 c 0.653,0.125 1.622,0.22 2.903,0.27 1.263,0.039 3.474,0.154 6.625,0.348 3.15,0.193 6.824,0 11.01,-0.593 0.037,-0.03 0.068,-0.058 0.097,-0.097 0.388,-0.521 0.504,-1.327 0.344,-2.43 -0.044,-4.204 -0.342,-8.152 -0.879,-11.864 -0.065,-0.904 -0.349,-1.417 -0.852,-1.561 z"
         id="path159" />
      <path
         inkscape:connector-curvature="0"
         style="fill:#c6cee3"
         d="m 383.757,642.434 c -0.037,-0.883 -0.578,-1.34 -1.631,-1.351 l -7.099,-0.046 c -1.319,-0.058 -2.544,-0.067 -3.663,-0.041 -1.413,-0.03 -2.25,0.232 -2.498,0.793 -0.144,1.262 -0.174,2.715 -0.069,4.347 l 0.031,4.253 c 0.153,0.122 0.293,0.219 0.438,0.268 0.654,0.113 1.298,0.152 1.935,0.114 l 0.15,0.001 h 0.268 c 2.838,0.013 5.6,0.035 8.295,0.048 l 3.473,0.062 c 0.296,-0.712 0.43,-1.414 0.419,-2.126 l -0.049,-6.322 z"
         id="path161" />
      <path
         inkscape:connector-curvature="0"
         style="fill:none;stroke:#737a91;stroke-width:1.51849997;stroke-linecap:round;stroke-linejoin:round;stroke-miterlimit:10"
         d="m 382.125,641.083 -7.099,-0.046 c -1.319,-0.058 -2.544,-0.067 -3.663,-0.041 -1.413,-0.03 -2.25,0.232 -2.498,0.793 -0.144,1.262 -0.175,2.715 -0.07,4.348 l 0.032,4.253 c 0.153,0.122 0.293,0.218 0.438,0.267 0.654,0.113 1.298,0.152 1.935,0.114 l 0.151,0.001 h 0.267 c 2.838,0.013 5.6,0.035 8.295,0.048 l 3.473,0.062 c 0.296,-0.711 0.43,-1.414 0.419,-2.126 l -0.049,-6.321 c -0.036,-0.884 -0.577,-1.341 -1.631,-1.352 z"
         id="path163" />
      <path
         inkscape:connector-curvature="0"
         style="fill:#c6cee3"
         d="m 368.538,570.307 c -0.665,-0.136 -1.573,-0.218 -2.71,-0.255 -2.875,0.013 -5.539,-0.211 -7.993,-0.663 -2.456,-0.45 -3.96,-0.722 -4.515,-0.806 -0.094,-0.014 -0.197,-0.028 -0.301,-0.042 -0.518,-0.093 -1.194,-0.22 -2.032,-0.403 -4.289,-0.918 -7.212,-1.271 -8.788,-1.07 -0.6,0.048 -1.212,0.32 -1.845,0.83 -0.097,0.081 -0.185,0.162 -0.267,0.244 -0.468,0.47 -0.734,1.055 -0.814,1.753 -0.681,4.065 -1.107,7.926 -1.273,11.588 -0.087,0.823 0.124,1.545 0.655,2.186 0.499,0.631 1.155,0.995 1.975,1.083 0.823,0.086 1.543,-0.125 2.186,-0.636 0.622,-0.51 0.978,-1.174 1.064,-1.996 -0.061,-3.048 0.259,-6.116 0.949,-9.224 2.337,0.104 4.683,0.445 7.038,1.016 5.385,1.028 9.731,1.6 13.035,1.731 l -0.949,8.652 c -0.086,0.822 0.124,1.543 0.652,2.176 0.5,0.643 1.157,1.004 1.978,1.093 0.802,0.086 1.534,-0.125 2.173,-0.616 0.624,-0.529 0.989,-1.195 1.075,-2.017 l 1.26,-11.283 c 0.096,-1.021 -0.094,-1.79 -0.561,-2.314 -0.461,-0.518 -1.127,-0.863 -1.992,-1.027"
         id="path165" />
      <path
         inkscape:connector-curvature="0"
         style="fill:none;stroke:#737a91;stroke-width:1.51629996;stroke-linecap:round;stroke-linejoin:round;stroke-miterlimit:10"
         d="m 368.538,570.307 c 0.865,0.164 1.531,0.51 1.992,1.026 0.467,0.524 0.657,1.294 0.561,2.314 l -1.26,11.283 c -0.086,0.821 -0.451,1.487 -1.075,2.017 -0.64,0.491 -1.372,0.702 -2.173,0.616 -0.821,-0.089 -1.478,-0.45 -1.978,-1.093 -0.528,-0.633 -0.738,-1.354 -0.652,-2.176 l 0.949,-8.652 c -3.304,-0.132 -7.65,-0.703 -13.035,-1.731 -2.355,-0.57 -4.701,-0.911 -7.038,-1.016 -0.69,3.107 -1.01,6.176 -0.949,9.224 -0.087,0.822 -0.443,1.486 -1.064,1.996 -0.643,0.511 -1.362,0.722 -2.186,0.636 -0.82,-0.088 -1.476,-0.452 -1.975,-1.083 -0.532,-0.641 -0.742,-1.362 -0.655,-2.186 0.167,-3.662 0.593,-7.522 1.273,-11.588 0.081,-0.698 0.346,-1.283 0.814,-1.753 0.082,-0.082 0.17,-0.163 0.267,-0.244 0.633,-0.51 1.245,-0.782 1.845,-0.83 1.575,-0.2 4.499,0.152 8.788,1.07 0.838,0.184 1.514,0.311 2.032,0.403 0.104,0.014 0.207,0.028 0.301,0.042 0.555,0.084 2.06,0.355 4.515,0.806 2.454,0.452 5.118,0.676 7.993,0.663 1.137,0.038 2.045,0.12 2.71,0.256 z"
         id="path167" />
      <path
         inkscape:connector-curvature="0"
         style="fill:#b0b6d5"
         d="m 381.007,584.58 c -11.478,-2.983 -20.442,-4.376 -26.894,-4.177 -10.222,0.104 -17.246,-0.209 -21.074,-0.917 -3.837,-0.695 -8.12,-0.972 -12.842,-0.81 -4.722,0.141 -8.762,0.515 -12.102,1.103 -1.619,1.875 -2.35,4.42 -2.172,7.635 -10e-4,0.02 -0.003,0.048 0.006,0.075 0.003,0.105 -10e-4,0.219 -0.008,0.342 -0.017,0.161 -0.035,0.341 -0.055,0.539 -0.074,0.595 -0.208,1.177 -0.377,1.735 -0.412,1.642 -0.433,2.873 -0.065,3.716 9.466,-0.365 18.673,-0.451 27.618,-0.273 4.352,0.097 7.93,0.241 10.758,0.426 l 8.057,0.505 c 8.474,0.381 14.315,0.996 17.539,1.834 l 14.27,3.461 c 5.091,1.271 9.962,2.932 14.634,4.98 0.535,-0.81 0.846,-2.209 0.944,-4.187 0.006,-0.143 0.012,-0.274 0.009,-0.407 0.023,-0.636 0.037,-1.157 0.049,-1.582 10e-4,-0.01 10e-4,-0.01 10e-4,-0.021 10e-4,-0.257 0.012,-0.474 0.012,-0.643 0.007,-0.343 0.012,-0.674 0.029,-1.005 0.04,-1.375 0.074,-2.529 0.092,-3.458 0.003,-0.236 0.013,-0.464 0.015,-0.692 10e-4,-0.653 -0.006,-1.261 -0.025,-1.843 -0.046,-0.779 -0.608,-1.365 -1.662,-1.758 -5.482,-1.944 -11.071,-3.476 -16.757,-4.578"
         id="path169" />
      <path
         inkscape:connector-curvature="0"
         style="fill:none;stroke:#737a91;stroke-width:1.51629996;stroke-linecap:round;stroke-linejoin:round;stroke-miterlimit:10"
         d="m 381.007,584.58 c 5.686,1.102 11.275,2.634 16.758,4.579 1.054,0.393 1.615,0.979 1.662,1.758 0.019,0.582 0.026,1.189 0.025,1.843 -0.002,0.229 -0.012,0.456 -0.015,0.692 -0.018,0.929 -0.052,2.083 -0.092,3.458 -0.017,0.331 -0.021,0.662 -0.029,1.005 0,0.169 -0.011,0.386 -0.012,0.643 0,0.011 0,0.011 -10e-4,0.021 -0.012,0.425 -0.026,0.946 -0.049,1.582 0.003,0.133 -0.003,0.265 -0.009,0.407 -0.098,1.978 -0.409,3.377 -0.944,4.187 -4.672,-2.049 -9.543,-3.709 -14.634,-4.98 l -14.27,-3.461 c -3.224,-0.838 -9.065,-1.453 -17.539,-1.834 l -8.057,-0.505 c -2.829,-0.185 -6.407,-0.329 -10.758,-0.426 -8.945,-0.178 -18.152,-0.092 -27.618,0.273 -0.367,-0.843 -0.347,-2.074 0.065,-3.716 0.169,-0.559 0.304,-1.141 0.377,-1.735 0.021,-0.198 0.039,-0.378 0.055,-0.539 0.007,-0.123 0.011,-0.236 0.008,-0.342 -0.009,-0.027 -0.007,-0.056 -0.006,-0.075 -0.178,-3.215 0.553,-5.76 2.172,-7.635 3.339,-0.588 7.379,-0.962 12.102,-1.103 4.723,-0.162 9.005,0.114 12.842,0.81 3.828,0.708 10.852,1.021 21.074,0.917 6.45,-0.2 15.415,1.193 26.893,4.176 z"
         id="path171" />
    </g>
  </g>
</svg>
