<?xml version="1.0" encoding="UTF-8" standalone="no"?>
<!-- Created with Inkscape (http://www.inkscape.org/) -->

<svg
   xmlns:dc="http://purl.org/dc/elements/1.1/"
   xmlns:cc="http://creativecommons.org/ns#"
   xmlns:rdf="http://www.w3.org/1999/02/22-rdf-syntax-ns#"
   xmlns:svg="http://www.w3.org/2000/svg"
   xmlns="http://www.w3.org/2000/svg"
   xmlns:sodipodi="http://sodipodi.sourceforge.net/DTD/sodipodi-0.dtd"
   xmlns:inkscape="http://www.inkscape.org/namespaces/inkscape"
   width="96.698883"
   height="154.85361"
   id="svg5696"
   version="1.1"
   inkscape:version="0.48.4 r9939"
   sodipodi:docname="oscar3.svg">
  <defs
     id="defs5698">
    <clipPath
       id="SVGID_2_">
      <rect
         height="88.862999"
         width="111.498"
         y="518.96198"
         x="382.04999"
         id="use1087" />
    </clipPath>
    <clipPath
       id="SVGID_4_">
      <rect
         height="41.314999"
         width="49.584999"
         y="525.19397"
         x="389.84698"
         id="use1111" />
    </clipPath>
  </defs>
  <sodipodi:namedview
     id="base"
     pagecolor="#ffffff"
     bordercolor="#666666"
     borderopacity="1.0"
     inkscape:pageopacity="0.0"
     inkscape:pageshadow="2"
     inkscape:zoom="0.77472527"
     inkscape:cx="86.24063"
     inkscape:cy="48.698716"
     inkscape:current-layer="layer1"
     inkscape:document-units="px"
     showgrid="false"
     inkscape:window-width="763"
     inkscape:window-height="591"
     inkscape:window-x="592"
     inkscape:window-y="97"
     inkscape:window-maximized="0"
     fit-margin-top="0"
     fit-margin-left="0"
     fit-margin-right="0"
     fit-margin-bottom="0" />
  <metadata
     id="metadata5701">
    <rdf:RDF>
      <cc:Work
         rdf:about="">
        <dc:format>image/svg+xml</dc:format>
        <dc:type
           rdf:resource="http://purl.org/dc/dcmitype/StillImage" />
        <dc:title></dc:title>
      </cc:Work>
    </rdf:RDF>
  </metadata>
  <g
     id="layer1"
     inkscape:label="Layer 1"
     inkscape:groupmode="layer"
     transform="translate(-231.70266,21.048518)">
    <g
       transform="translate(-461.34988,-115.41366)"
       id="g173">
      <path
         inkscape:connector-curvature="0"
         style="fill:#255f27"
         d="m 742.592,188.318 c 0.002,-0.008 0.002,-0.008 0.015,-0.014 1.63,-0.958 3.11,-0.872 4.446,0.275 1.204,1.261 1.678,2.745 1.401,4.45 -0.271,1.696 -0.428,2.67 -0.464,2.921 -0.045,0.245 -0.116,0.604 -0.225,1.06 -0.111,0.466 -0.171,0.733 -0.187,0.801 l 1.987,-1.3 c 2.756,-1.653 5.479,-2.748 8.194,-3.291 2.487,-0.18 4.265,0.214 5.326,1.192 0.887,0.901 1.138,2.157 0.747,3.784 -0.325,1.325 -1.11,2.575 -2.334,3.732 -0.848,0.705 -1.537,1.303 -2.056,1.788 -0.519,0.485 -0.816,0.785 -0.882,0.893 l 3.752,-0.457 c 1.52,-0.149 3.026,-0.051 4.522,0.311 1.555,0.598 2.546,1.433 2.988,2.513 0.459,1.298 0.216,2.754 -0.729,4.39 -0.973,1.325 -2.655,2.216 -5.06,2.665 -0.397,0.074 -0.772,0.146 -1.127,0.213 l -4.032,0.834 c 1.486,0.502 2.55,1.152 3.192,1.948 0.463,0.41 0.959,0.981 1.477,1.726 l 0.009,0.005 c 0.885,1.26 0.913,2.518 0.082,3.791 -0.864,1.042 -2.155,1.604 -3.862,1.678 -2.558,-0.026 -5.6,-0.925 -9.128,-2.684 -0.128,-0.077 -0.27,-0.095 -0.417,-0.077 -0.154,0.008 -0.284,0.063 -0.396,0.158 -7.855,6.256 -15.438,8.824 -22.747,7.692 -7.121,-1.158 -14.409,-6.179 -21.869,-15.066 l -0.626,1.143 c 0.018,0.058 0.053,0.109 0.093,0.164 7.099,8.982 14.488,14.078 22.163,15.267 7.584,1.217 15.426,-1.35 23.548,-7.709 3.612,1.76 6.752,2.632 9.409,2.634 0.013,-0.007 0.021,-0.004 0.031,0 2.237,-0.093 3.908,-0.855 5.012,-2.277 0.021,-0.022 0.025,-0.042 0.042,-0.056 1.234,-1.86 1.206,-3.703 -0.091,-5.537 -0.563,-0.799 -1.199,-1.491 -1.913,-2.081 4.115,-0.954 6.617,-2.167 7.509,-3.641 0.003,-0.008 0.006,-0.018 0.018,-0.021 1.219,-2.105 1.501,-4.003 0.836,-5.692 -0.523,-1.488 -1.822,-2.622 -3.896,-3.406 -0.026,-0.012 -0.063,-0.022 -0.094,-0.022 -1.399,-0.353 -2.82,-0.491 -4.24,-0.43 1.195,-1.256 1.965,-2.604 2.294,-4.029 0.55,-2.256 0.155,-4.004 -1.162,-5.231 -1.28,-1.309 -3.461,-1.849 -6.533,-1.611 -0.029,0 -0.057,0 -0.093,0.007 -2.622,0.516 -5.272,1.515 -7.937,3.022 0.437,-3.543 -0.056,-5.969 -1.472,-7.252 -0.007,-0.015 -0.017,-0.02 -0.022,-0.029 -1.882,-1.666 -3.972,-1.822 -6.263,-0.468 -3.025,1.684 -5.173,4.556 -6.444,8.617 -3.394,6.678 -6.862,10.313 -10.416,10.9 -3.514,0.438 -7.155,-2.138 -10.936,-7.721 -0.068,-0.093 -0.152,-0.173 -0.245,-0.225 l -0.86,1.564 c 4.5,5.862 8.586,8.49 12.266,7.888 4.005,-0.521 7.866,-4.443 11.582,-11.768 0.014,-0.046 0.026,-0.08 0.038,-0.117 1.139,-3.674 3.064,-6.284 5.779,-7.814"
         id="path175" />
      <path
         inkscape:connector-curvature="0"
         style="fill:#9fc94c"
         d="m 742.606,188.305 c -0.013,0.006 -0.013,0.006 -0.015,0.014 -2.715,1.529 -4.642,4.14 -5.777,7.812 -0.012,0.037 -0.024,0.071 -0.038,0.118 -3.716,7.323 -7.577,11.245 -11.582,11.767 -3.68,0.603 -7.766,-2.025 -12.266,-7.888 l -7.711,14.121 c 7.46,8.888 14.748,13.908 21.869,15.066 7.309,1.132 14.892,-1.437 22.747,-7.692 0.112,-0.093 0.242,-0.15 0.396,-0.157 0.148,-0.019 0.29,-0.001 0.418,0.076 3.528,1.759 6.57,2.657 9.128,2.684 1.707,-0.073 2.998,-0.636 3.862,-1.678 0.831,-1.273 0.803,-2.531 -0.082,-3.791 l -0.009,-0.005 c -0.518,-0.744 -1.014,-1.315 -1.477,-1.726 -0.644,-0.796 -1.708,-1.446 -3.192,-1.948 l 4.031,-0.834 c 0.355,-0.066 0.73,-0.139 1.13,-0.213 2.402,-0.449 4.085,-1.34 5.058,-2.665 0.944,-1.636 1.188,-3.092 0.729,-4.39 -0.442,-1.08 -1.434,-1.915 -2.988,-2.513 -1.496,-0.361 -3.003,-0.46 -4.524,-0.311 l -3.748,0.457 c 0.063,-0.107 0.361,-0.407 0.88,-0.893 0.519,-0.486 1.208,-1.083 2.056,-1.788 1.224,-1.157 2.009,-2.407 2.334,-3.732 0.391,-1.627 0.14,-2.883 -0.747,-3.784 -1.062,-0.979 -2.839,-1.372 -5.326,-1.192 -2.716,0.543 -5.438,1.638 -8.194,3.295 l -1.987,1.296 c 0.016,-0.067 0.075,-0.335 0.186,-0.801 0.109,-0.456 0.181,-0.814 0.226,-1.06 0.036,-0.251 0.192,-1.225 0.464,-2.921 0.276,-1.705 -0.197,-3.189 -1.401,-4.45 -1.339,-1.146 -2.82,-1.235 -4.45,-0.274"
         id="path177" />
      <path
         inkscape:connector-curvature="0"
         style="fill:#255f27"
         d="m 762.5,184.097 -0.019,-0.02 c -3.931,-8.606 -5.444,-19.598 -4.528,-32.969 l -31.793,0.682 c 1.773,14.165 0.24,25.737 -4.593,34.708 -0.009,0.009 -0.027,0.027 -0.039,0.057 -0.435,0.675 -0.843,1.38 -1.211,2.105 -2.948,5.476 -4.505,11.732 -4.664,18.776 -0.225,9.676 2.228,17.984 7.361,24.929 5.068,6.867 11.292,10.399 18.678,10.576 7.369,0.161 13.756,-3.078 19.146,-9.707 5.429,-6.704 8.256,-14.889 8.479,-24.563 0.104,-4.528 -0.381,-8.754 -1.443,-12.68 -0.556,-1.997 -1.276,-3.874 -2.182,-5.621 -1.085,-2.095 -2.145,-4.188 -3.192,-6.273"
         id="path179" />
      <path
         inkscape:connector-curvature="0"
         style="fill:none;stroke:#255f27;stroke-width:1.52579999;stroke-linecap:round;stroke-linejoin:round;stroke-miterlimit:10"
         d="m 762.481,184.077 c -3.931,-8.606 -5.444,-19.598 -4.528,-32.969 l -31.793,0.682 c 1.773,14.165 0.24,25.737 -4.593,34.706 -0.009,0.011 -0.027,0.029 -0.039,0.059 -0.435,0.675 -0.842,1.38 -1.211,2.105 -2.948,5.476 -4.505,11.732 -4.664,18.776 -0.225,9.676 2.228,17.984 7.361,24.929 5.068,6.867 11.292,10.399 18.678,10.576 7.369,0.161 13.756,-3.078 19.146,-9.707 5.428,-6.704 8.256,-14.889 8.479,-24.563 0.104,-4.528 -0.381,-8.755 -1.443,-12.68 -0.556,-1.997 -1.276,-3.874 -2.182,-5.621 -1.085,-2.095 -2.146,-4.188 -3.192,-6.273 l -0.019,-0.02 z"
         id="path181" />
      <path
         inkscape:connector-curvature="0"
         style="fill:#9fc94c"
         d="m 761.862,184.521 c -0.028,-0.039 -0.056,-0.077 -0.075,-0.125 -3.904,-8.53 -5.448,-19.361 -4.643,-32.504 l -30.122,0.643 c 1.633,13.973 0.036,25.416 -4.776,34.33 -0.029,0.029 -0.05,0.064 -0.068,0.103 -0.426,0.647 -0.819,1.335 -1.181,2.043 l -10e-4,0.02 c -2.899,5.369 -4.422,11.515 -4.583,18.427 -0.216,9.481 2.191,17.638 7.214,24.456 h 0.008 c 4.913,6.655 10.939,10.072 18.075,10.267 7.141,0.134 13.317,-3.005 18.538,-9.418 v -0.009 c 5.321,-6.581 8.089,-14.616 8.307,-24.103 0.102,-4.448 -0.363,-8.6 -1.41,-12.458 -0.537,-1.949 -1.25,-3.766 -2.126,-5.477 v 0.011 c -1.071,-2.076 -2.126,-4.148 -3.157,-6.206"
         id="path183" />
      <path
         inkscape:connector-curvature="0"
         style="fill:#5a6074"
         d="m 694.611,123.026 0.67,8.233 c 3.743,0.948 7.729,1.322 11.957,1.124 3.713,-0.15 7.499,-0.1 11.35,0.162 20.659,-0.175 43.992,-3.569 70.004,-10.187 l -1.913,-9.205 -92.068,9.873 z"
         id="path185" />
      <path
         inkscape:connector-curvature="0"
         style="fill:none;stroke:#737a91;stroke-width:1.52429998;stroke-linecap:round;stroke-linejoin:round;stroke-miterlimit:10"
         d="m 694.611,123.026 92.067,-9.873 1.913,9.205 c -26.012,6.618 -49.345,10.012 -70.004,10.187 -3.851,-0.262 -7.637,-0.312 -11.35,-0.162 -4.228,0.198 -8.214,-0.176 -11.957,-1.124 l -0.669,-8.233 z"
         id="path187" />
      <path
         inkscape:connector-curvature="0"
         style="fill:#9fc94c"
         d="m 768.896,117.888 c -0.8,-0.475 -1.874,-1.222 -3.204,-2.236 -1.341,-1.004 -3.152,-2.203 -5.435,-3.586 -2.295,-1.393 -5.815,-2.308 -10.586,-2.747 0.555,-1.527 1.339,-2.698 2.345,-3.522 -3.122,-0.167 -6.162,0.517 -9.116,2.042 -0.254,-0.726 -0.211,3.969 0.136,2.734 -3.055,0.588 -5.588,-3.227 -7.615,-0.124 -4.277,-1.335 -8.837,-1.299 -13.68,0.098 1.522,0.6 2.898,1.408 4.126,2.435 -6.831,1.598 -11.903,4.756 -15.207,9.478 -1.411,2.373 -3.654,4.178 -6.738,5.414 0.795,0.75 1.934,1.244 3.404,1.485 -3.548,5.508 -6.487,8.657 -8.807,9.45 0.922,0.957 2.532,1.241 4.825,0.862 -1.436,3.83 1.865,7.239 -1.439,10.193 1.614,0.97 -2.212,1.354 -0.131,1.145 -0.347,0.873 -0.341,2.527 0.046,4.979 0.387,2.454 1.448,4.86 3.202,7.23 l 1.317,-3.128 c 3.137,7.078 8.39,12.395 15.756,15.961 l 0.407,-3.031 c 3.216,3.676 9.102,6.102 17.654,7.256 0.066,-0.841 0.279,-1.745 0.617,-2.714 3.5,2.403 7.294,3.682 11.369,3.845 0.191,0.004 0.384,0.011 0.575,0.017 0.192,-0.001 0.384,-0.005 0.575,0.001 0.438,-0.021 0.874,-0.06 1.306,-0.121 0.34,-0.047 0.678,-0.104 1.021,-0.191 0.321,-0.114 0.652,-0.229 0.983,-0.343 2.631,-1.02 5.036,-2.904 7.218,-5.652 l 0.571,1.811 c 3.465,-1.909 6.303,-4.764 8.521,-8.55 l 0.854,1.924 c 1.064,-1.292 2.142,-2.831 3.227,-4.629 0.83,-1.367 1.514,-2.815 2.049,-4.32 0.876,-2.465 1.367,-5.116 1.462,-7.947 0.01,-0.261 0.006,-0.635 -0.012,-1.118 l 1.563,1.715 c 1.223,-4.534 1.424,-8.683 0.608,-12.453 1.319,-0.438 2.435,-1.379 3.331,-2.821 -1.17,-0.268 -2.374,-0.914 -3.629,-1.946 -1.26,-1.034 -2.784,-2.907 -4.567,-5.601 l -0.059,-0.098 c 1.396,-0.266 2.295,-0.752 2.685,-1.448 -1.353,-0.523 -4.04,-3.259 -8.051,-8.204 1.158,-0.411 1.9,-0.937 2.239,-1.578 -1.192,-0.112 -2.29,-0.359 -3.292,-0.752 -0.821,-0.339 -1.633,-0.743 -2.424,-1.215"
         id="path189" />
      <path
         inkscape:connector-curvature="0"
         style="fill:none;stroke:#255f27;stroke-width:1.52069998;stroke-linecap:square;stroke-miterlimit:10"
         d="m 765.691,115.652 c -1.341,-1.004 -3.152,-2.203 -5.435,-3.586 -2.295,-1.393 -5.815,-2.308 -10.586,-2.747 0.555,-1.527 1.339,-2.698 2.345,-3.522 -3.121,-0.168 -6.162,0.517 -9.116,2.042 -0.254,-0.727 -0.211,3.968 0.136,2.733 -3.055,0.588 -5.588,-3.226 -7.615,-0.124 -4.277,-1.336 -8.837,-1.3 -13.68,0.098 1.522,0.6 2.898,1.407 4.126,2.435 -6.831,1.598 -11.903,4.755 -15.207,9.478 -1.411,2.373 -3.654,4.178 -6.738,5.414 0.795,0.75 1.934,1.244 3.404,1.485 -3.548,5.508 -6.487,8.657 -8.807,9.45 0.922,0.957 2.532,1.241 4.825,0.863 -1.436,3.829 1.865,7.238 -1.439,10.192 1.613,0.97 -2.212,1.354 -0.131,1.146 -0.347,0.871 -0.341,2.525 0.046,4.977 0.387,2.454 1.448,4.86 3.202,7.23 l 1.317,-3.128 c 3.138,7.078 8.39,12.395 15.756,15.961 l 0.407,-3.031 c 3.216,3.676 9.102,6.102 17.654,7.257 0.066,-0.842 0.279,-1.746 0.617,-2.714 3.5,2.402 7.294,3.681 11.369,3.844 0.191,0.004 0.384,0.011 0.575,0.017 0.192,-0.001 0.384,-0.005 0.575,0.001 0.438,-0.021 0.874,-0.06 1.306,-0.121 0.34,-0.047 0.678,-0.104 1.021,-0.191 0.321,-0.114 0.652,-0.229 0.983,-0.343 2.631,-1.02 5.036,-2.903 7.218,-5.652 l 0.571,1.811 c 3.465,-1.909 6.305,-4.764 8.521,-8.55 l 0.854,1.924 c 1.064,-1.291 2.142,-2.831 3.227,-4.629 0.83,-1.367 1.514,-2.815 2.049,-4.32 0.876,-2.465 1.367,-5.116 1.462,-7.947 0.01,-0.261 0.006,-0.635 -0.012,-1.118 l 1.563,1.715 c 1.223,-4.534 1.424,-8.683 0.608,-12.453 1.319,-0.438 2.435,-1.379 3.331,-2.821 -1.17,-0.268 -2.374,-0.914 -3.629,-1.946 -1.26,-1.034 -2.784,-2.907 -4.567,-5.601 l -0.059,-0.098 c 1.396,-0.266 2.295,-0.752 2.685,-1.448 -1.353,-0.523 -4.04,-3.259 -8.051,-8.205 1.158,-0.41 1.901,-0.936 2.239,-1.577 -1.192,-0.112 -2.29,-0.359 -3.292,-0.751 -0.822,-0.336 -1.635,-0.74 -2.426,-1.214 -0.797,-0.475 -1.872,-1.221 -3.202,-2.236 z"
         id="path191" />
      <path
         inkscape:connector-curvature="0"
         style="fill:#d9382a"
         d="m 763.268,144.558 c -0.341,0.099 -0.673,0.193 -1.017,0.291 -7.681,2.126 -15.267,3.389 -22.762,3.781 -0.313,0.017 -0.617,0.031 -0.924,0.037 0.899,2.671 2.484,4.72 4.744,6.146 2.723,1.704 5.796,2.376 9.205,2.004 3.413,-0.362 6.19,-1.667 8.334,-3.913 2.13,-2.207 2.991,-4.707 2.565,-7.499 -0.041,-0.294 -0.093,-0.574 -0.145,-0.847"
         id="path193" />
      <path
         inkscape:connector-curvature="0"
         style="fill:#1f1a1a"
         d="m 763.268,144.558 c 0.053,0.273 0.104,0.554 0.146,0.847 0.426,2.792 -0.436,5.292 -2.565,7.499 -2.144,2.246 -4.921,3.551 -8.334,3.913 -3.409,0.372 -6.482,-0.3 -9.205,-2.004 -2.26,-1.426 -3.845,-3.475 -4.744,-6.146 -0.047,0.007 -0.094,0.012 -0.141,0.008 -6.127,0.254 -12.181,-0.064 -18.179,-0.964 8.395,12.517 20.152,17.998 35.272,16.425 13.703,-1.419 21.581,-9.865 23.624,-25.341 -5.33,2.323 -10.621,4.252 -15.874,5.763"
         id="path195" />
      <path
         inkscape:connector-curvature="0"
         style="fill:none;stroke:#1f1a1a;stroke-width:0.0095;stroke-linecap:round;stroke-linejoin:round;stroke-miterlimit:10"
         d="m 763.268,144.558 c 5.253,-1.511 10.544,-3.439 15.875,-5.763 -2.043,15.476 -9.921,23.922 -23.624,25.341 -15.12,1.573 -26.878,-3.908 -35.272,-16.425 5.998,0.899 12.052,1.218 18.179,0.964 0.047,0.004 0.094,-0.001 0.141,-0.008"
         id="path197" />
      <path
         inkscape:connector-curvature="0"
         style="fill:none;stroke:#d9382a;stroke-width:0.0095;stroke-linecap:round;stroke-linejoin:round;stroke-miterlimit:10"
         d="m 763.268,144.558 c 0.053,0.273 0.104,0.554 0.146,0.847 0.426,2.792 -0.436,5.292 -2.565,7.499 -2.144,2.246 -4.921,3.551 -8.334,3.913 -3.409,0.372 -6.482,-0.3 -9.205,-2.004 -2.26,-1.426 -3.845,-3.475 -4.744,-6.146 0.307,-0.006 0.61,-0.021 0.924,-0.037 7.495,-0.393 15.081,-1.655 22.762,-3.781 0.343,-0.098 0.675,-0.193 1.016,-0.291 z"
         id="path199" />
      <path
         inkscape:connector-curvature="0"
         style="fill:#ffffff"
         d="m 765.143,120.756 c -2.45,-0.168 -4.59,0.615 -6.41,2.353 -1.82,1.731 -2.784,3.909 -2.896,6.534 -0.107,2.624 0.652,4.929 2.305,6.901 1.673,1.98 3.728,3.057 6.177,3.224 2.442,0.16 4.57,-0.63 6.379,-2.379 1.821,-1.729 2.785,-3.918 2.894,-6.542 0.11,-2.625 -0.649,-4.919 -2.301,-6.884 -1.654,-1.983 -3.711,-3.057 -6.148,-3.207"
         id="path201" />
      <path
         inkscape:connector-curvature="0"
         style="fill:#ffffff"
         d="m 734.188,125.927 c -1.953,1.747 -3.001,3.943 -3.159,6.573 -0.147,2.619 0.659,4.911 2.416,6.88 1.767,1.969 3.966,3.027 6.594,3.176 2.613,0.15 4.9,-0.667 6.861,-2.433 1.968,-1.759 3.029,-3.946 3.177,-6.565 0.148,-2.632 -0.662,-4.93 -2.436,-6.888 -1.758,-1.971 -3.944,-3.022 -6.554,-3.152 -2.629,-0.147 -4.929,0.662 -6.899,2.409"
         id="path203" />
      <path
         inkscape:connector-curvature="0"
         style="fill:#1f1a1a"
         d="m 771.366,124.875 c -0.771,-0.812 -1.693,-1.214 -2.77,-1.22 -1.083,-0.006 -2.003,0.389 -2.771,1.186 -0.762,0.803 -1.133,1.766 -1.125,2.896 0.005,1.131 0.394,2.094 1.159,2.908 0.774,0.81 1.694,1.212 2.771,1.218 1.077,0.006 1.992,-0.388 2.757,-1.184 0.764,-0.796 1.134,-1.759 1.126,-2.896 0.002,-1.131 -0.376,-2.096 -1.147,-2.908"
         id="path205" />
      <path
         inkscape:connector-curvature="0"
         style="fill:#1f1a1a"
         d="m 749.663,128.198 c -0.618,-0.961 -1.479,-1.554 -2.587,-1.793 -1.11,-0.241 -2.145,-0.055 -3.104,0.558 -0.961,0.618 -1.554,1.478 -1.794,2.584 -0.24,1.108 -0.054,2.132 0.557,3.093 0.62,0.96 1.481,1.552 2.588,1.793 1.104,0.239 2.133,0.051 3.091,-0.559 0.961,-0.612 1.553,-1.471 1.792,-2.586 0.247,-1.103 0.068,-2.131 -0.543,-3.09"
         id="path207" />
      <path
         inkscape:connector-curvature="0"
         style="fill:#c16513"
         d="m 753.617,120.841 c -0.045,0.034 -0.089,0.068 -0.132,0.103 -0.211,0.166 -0.407,0.304 -0.599,0.392 -0.035,0.014 -0.071,0.038 -0.117,0.052 -0.185,0.058 -0.315,0.093 -0.389,0.102 -0.049,0.004 -0.104,0.012 -0.153,0.018 -0.144,-0.002 -0.271,-0.035 -0.383,-0.089 -0.163,-0.078 -0.323,-0.154 -0.476,-0.225 -4.89,-2.24 -8.227,-3.638 -10.018,-4.168 -1.884,-0.569 -3.152,-0.53 -3.813,0.13 -0.673,0.643 -0.856,1.38 -0.558,2.235 -1.478,0.209 -2.597,0.387 -3.345,0.539 -1.001,0.201 -1.941,0.433 -2.821,0.678 -3.271,0.912 -5.825,2.113 -7.651,3.606 -2.688,2.182 -4.058,3.652 -4.115,4.412 -0.078,0.748 0.993,0.971 3.195,0.659 -1.73,1.769 -3.063,3.815 -4.002,6.153 -0.452,1.135 -0.612,1.993 -0.495,2.583 0.026,0.073 0.056,0.148 0.082,0.229 0.014,0.047 0.028,0.084 0.051,0.119 0.036,0.063 0.079,0.106 0.133,0.147 0.137,0.108 0.289,0.188 0.451,0.254 0.267,0.076 0.539,0.119 0.819,0.146 0.225,0.042 0.448,0.065 0.681,0.083 3.707,0.225 7.291,-0.242 10.756,-1.406 0.222,-0.073 0.617,-0.203 1.188,-0.396 0.001,-0.65 0.004,-1.129 -10e-4,-1.425 -0.006,-0.725 0.045,-1.448 0.164,-2.164 0.055,-0.34 0.122,-0.672 0.208,-1.007 0.166,-0.652 0.371,-1.278 0.637,-1.892 0.261,-0.613 0.571,-1.175 0.942,-1.696 0.277,-0.406 0.582,-0.776 0.895,-1.119 0.521,-0.555 1.122,-0.989 1.806,-1.287 0.663,-0.297 1.371,-0.465 2.126,-0.484 0.688,-0.012 1.383,0.052 2.098,0.19 0.731,0.116 1.456,0.272 2.179,0.478 0.426,0.114 0.843,0.256 1.255,0.42 0.652,0.259 1.306,0.528 1.95,0.819 0.576,0.268 1.153,0.536 1.73,0.823 0.314,0.147 0.638,0.3 0.961,0.445 0.546,0.252 1.099,0.477 1.655,0.663 0.654,0.2 1.324,0.306 2.008,0.324 0.546,0.005 1.088,-0.021 1.626,-0.082 0.036,-0.015 0.076,-0.019 0.111,-0.021 0.048,-0.008 0.086,-0.01 0.133,-0.017 0.479,-0.084 0.905,-0.209 1.285,-0.388 0.604,-0.259 1.169,-0.591 1.685,-1.005 0.533,-0.435 1.059,-0.859 1.585,-1.283 0.468,-0.408 0.95,-0.808 1.448,-1.22 0.524,-0.433 1.073,-0.821 1.654,-1.183 0.437,-0.282 0.894,-0.534 1.356,-0.76 0.479,-0.257 0.981,-0.476 1.494,-0.659 0.453,-0.147 0.903,-0.287 1.378,-0.408 0.348,-0.068 0.707,-0.109 1.07,-0.102 0.202,-0.005 0.395,0.003 0.595,0.025 0.523,0.045 1.024,0.189 1.504,0.42 0.979,0.53 1.761,1.253 2.338,2.184 0.776,1.258 1.272,2.33 1.481,3.235 0.21,0.903 0.296,1.572 0.26,2.016 -0.034,0.437 -0.084,0.784 -0.138,1.041 l 3.048,0.549 c 0.86,0.073 1.939,0.064 3.229,-0.026 0.737,-0.094 1.483,-0.256 2.231,-0.505 0.728,-0.218 1.078,-0.68 1.056,-1.392 0.007,-0.769 -0.389,-1.786 -1.184,-3.044 -1.185,-1.882 -2.356,-3.441 -3.538,-4.654 0.359,0.045 0.765,-0.068 1.223,-0.334 0.729,-0.426 0.903,-0.972 0.532,-1.628 -0.447,-0.629 -1.006,-1.176 -1.663,-1.646 -0.199,-0.14 -0.385,-0.271 -0.583,-0.402 -2.985,-1.992 -6.487,-3.082 -10.519,-3.27 -0.047,-0.004 -0.096,-0.007 -0.143,-0.011 -0.182,-0.562 -0.492,-1.111 -0.926,-1.645 -0.482,-0.606 -1.205,-0.647 -2.168,-0.116 -2.461,1.401 -4.817,2.887 -7.056,4.455 -1.02,0.711 -2.009,1.437 -2.987,2.18 -0.11,0.085 -0.215,0.173 -0.319,0.252"
         id="path209" />
      <path
         inkscape:connector-curvature="0"
         style="fill:#b0b6d5"
         d="m 727.547,160.543 c 0.381,-4.32 -1.228,-6.398 -4.841,-6.238 L 702.398,154.3 c -2.908,-0.126 -4.729,0.964 -5.453,3.28 -0.161,0.598 -0.295,1.314 -0.4,2.154 -0.086,0.447 -0.163,1.285 -0.23,2.534 -0.183,3.996 -0.535,7.722 -1.07,11.19 -0.391,4.31 1.229,6.381 4.86,6.219 l 20.307,0.004 c 3.585,0.183 5.578,-1.896 5.969,-6.214 l 1.166,-12.924 z m -5.261,-1.565 c 0.483,0.142 0.676,0.659 0.591,1.564 l -1.167,12.923 c -0.077,0.887 -0.374,1.412 -0.879,1.566 l -20.305,-0.006 c -0.499,-0.145 -0.706,-0.658 -0.63,-1.563 l 1.187,-12.926 c 0.084,-0.918 0.39,-1.44 0.915,-1.565 l 20.288,0.007 z"
         id="path211" />
      <path
         inkscape:connector-curvature="0"
         style="fill:none;stroke:#737a91;stroke-width:1.52509999;stroke-linecap:round;stroke-linejoin:round;stroke-miterlimit:10"
         d="m 722.286,158.978 -20.288,-0.007 c -0.525,0.125 -0.831,0.647 -0.915,1.565 l -1.187,12.926 c -0.076,0.905 0.132,1.419 0.63,1.563 l 20.305,0.006 c 0.505,-0.154 0.802,-0.68 0.879,-1.566 l 1.167,-12.923 c 0.085,-0.905 -0.107,-1.423 -0.591,-1.564 z m 5.261,1.565 -1.167,12.925 c -0.391,4.318 -2.384,6.396 -5.969,6.214 l -20.307,-0.004 c -3.632,0.162 -5.251,-1.909 -4.86,-6.219 0.535,-3.469 0.888,-7.194 1.07,-11.19 0.067,-1.249 0.145,-2.087 0.23,-2.534 0.105,-0.84 0.239,-1.557 0.4,-2.154 0.724,-2.316 2.545,-3.406 5.453,-3.28 l 20.308,0.005 c 3.614,-0.161 5.223,1.917 4.842,6.237 z"
         id="path213" />
      <rect
         x="704.79102"
         y="150.97501"
         style="fill:#c6cee3"
         width="14.91"
         height="9.4969997"
         id="rect215" />
      <rect
         x="704.79102"
         y="150.97501"
         style="fill:none;stroke:#737a91;stroke-width:1.52509999;stroke-linecap:round;stroke-linejoin:round;stroke-miterlimit:10"
         width="14.91"
         height="9.4960003"
         id="rect217" />
      <path
         inkscape:connector-curvature="0"
         style="fill:#b0b6d5"
         d="m 785.109,134.426 c -0.754,-0.66 -1.668,-0.986 -2.745,-0.985 l -2.842,-0.028 c -2.077,0.16 -4.263,0.266 -6.56,0.293 -1.17,0.021 -2.362,0.03 -3.583,0.029 -8.132,-0.146 -13.529,-0.262 -16.169,-0.328 l -23.587,-0.261 c -5.069,-0.107 -10.782,-0.046 -17.141,0.183 -1.448,0.047 -2.926,0.114 -4.442,0.18 -1.943,0.048 -3.727,0.047 -5.358,-10e-4 l -2.648,-0.076 -0.382,-0.009 c -1.067,0 -1.993,0.323 -2.763,0.981 -0.527,0.466 -0.86,1.009 -1.022,1.609 -0.067,0.258 -0.105,0.734 -0.105,1.449 l -10e-4,1.726 c 0.002,1.077 0.372,1.992 1.126,2.746 0.771,0.763 1.868,1.183 3.277,1.26 h 0.009 c 3.1,0.18 6.199,0.248 9.316,0.192 1.401,-0.027 3.89,-0.122 7.474,-0.304 4.757,-0.084 9.467,-0.084 14.128,0.005 l 19.23,0.003 c 2.916,0.164 5.834,0.153 8.751,-0.044 2.801,-0.028 5.604,-0.085 8.407,-0.15 2.87,-0.076 5.738,-0.056 8.607,0.051 1.146,0.027 2.289,0.057 3.433,0.085 0.22,0 0.45,10e-4 0.668,0.008 0.571,0.021 1.221,0.039 1.945,0.06 h 0.047 0.183 c 1.075,0.001 1.989,-0.38 2.745,-1.144 0.763,-0.753 1.144,-1.669 1.144,-2.747 l 10e-4,-2.354 c 0.001,-0.944 -0.381,-1.753 -1.143,-2.429"
         id="path219" />
      <path
         inkscape:connector-curvature="0"
         style="fill:#c6cee3"
         d="m 780.188,143.039 c -0.218,-0.008 -0.448,-0.008 -0.668,-0.009 -1.144,-0.027 -2.286,-0.057 -3.433,-0.084 -2.869,-0.107 -5.737,-0.127 -8.607,-0.051 -2.804,0.065 -5.606,0.122 -8.407,0.15 -2.917,0.197 -5.835,0.208 -8.751,0.044 l -19.23,-0.003 c -4.661,-0.089 -9.371,-0.089 -14.128,-0.005 -3.584,0.182 -6.072,0.276 -7.474,0.304 -3.117,0.056 -6.217,-0.013 -9.316,-0.192 0.106,0.971 0.192,2.069 0.248,3.279 l 0.057,3.707 c -0.001,0.125 -0.001,0.26 -0.009,0.394 -0.039,1.714 -0.059,3.355 -0.052,4.907 l 0.229,9.572 c 0.055,0.793 0.115,1.555 0.18,2.277 l 0.076,1.583 c 0.163,2.642 0.333,5.119 0.513,7.416 0.04,0.45 0.078,0.887 0.116,1.317 0.085,1.115 0.162,2.26 0.228,3.431 0.026,0.507 0.037,1.022 0.037,1.545 v 0.363 c -0.021,1.01 -0.066,2.01 -0.153,3.011 -0.028,0.297 -0.048,0.582 -0.077,0.86 v 0.057 c -0.105,0.849 -0.199,1.707 -0.285,2.553 -0.126,1.08 -0.209,2.156 -0.239,3.243 -0.012,0.133 -0.012,0.268 -0.012,0.401 -0.008,0.236 0,0.475 0.019,0.715 0.01,0.259 0.039,0.514 0.078,0.77 0.199,1.185 0.494,2.355 0.876,3.51 0.181,0.582 0.392,1.175 0.647,1.755 0.153,0.354 0.524,1.878 1.124,4.574 0.248,0.871 0.313,1.672 0.198,2.406 -0.112,0.715 -0.4,1.36 -0.865,1.943 -0.269,0.343 -0.479,0.771 -0.632,1.277 -0.276,0.904 -0.381,2.088 -0.304,3.545 0.027,0.601 0.084,1.26 0.17,1.965 l 1.082,18.78 -10e-4,2.716 c 0.229,0.031 0.458,0.068 0.676,0.115 0.688,0.172 1.375,0.354 2.05,0.554 0.717,0.029 1.421,0.049 2.137,0.075 0.6,0.068 1.211,0.108 1.812,0.116 0.057,0 0.114,10e-4 0.171,0.011 0.667,0.011 1.336,0.01 2.013,-0.001 0.608,-0.009 1.22,-0.028 1.829,-0.055 0.668,-0.029 1.328,-0.051 1.975,-0.059 0.618,-0.009 1.238,0 1.849,0.03 0.6,0.029 1.192,0.046 1.773,0.045 0.696,-0.006 1.393,-0.026 2.105,-0.062 0.45,-0.03 0.897,-0.05 1.346,-0.078 1.515,-0.104 2.755,-0.295 3.719,-0.562 1.582,-0.445 3.565,-0.123 5.947,0.981 0.505,0.239 1.039,0.506 1.584,0.812 3.077,1.737 6.156,1.927 9.228,0.585 0.248,-0.105 0.506,-0.211 0.763,-0.297 2.943,-0.878 5.9,-1.655 8.885,-2.334 0.124,-0.037 0.239,-0.077 0.364,-0.114 0.351,-0.112 0.715,-0.207 1.065,-0.276 0.726,-0.141 1.448,-0.19 2.175,-0.142 0.217,0.021 0.448,0.058 0.669,0.116 0.724,0.14 1.438,0.38 2.153,0.695 0.445,0.145 0.905,0.237 1.371,0.305 1.973,0.363 3.043,0.555 3.204,0.584 1.297,0.189 2.324,0.284 3.079,0.284 1.247,0.001 2.545,-0.056 3.87,-0.16 0.811,-0.065 2.184,-0.199 4.098,-0.418 l 3.204,-0.103 0.002,-2.441 c -0.009,-0.306 -0.008,-0.61 -0.01,-0.904 0.04,-7.896 0.366,-15.904 0.979,-24.026 0.438,-4.29 0.677,-7.541 0.726,-9.751 0.021,-0.982 0,-1.765 -0.058,-2.336 -0.093,-0.981 -0.15,-1.802 -0.179,-2.46 -0.028,-0.582 -0.018,-1.03 0.008,-1.354 0.061,-0.515 0.201,-1.089 0.421,-1.716 0.078,-0.211 0.161,-0.428 0.247,-0.646 1.041,-2.204 1.643,-3.881 1.805,-5.034 0.057,-0.438 0.057,-0.803 -0.009,-1.087 -0.277,-1.077 -0.648,-1.936 -1.106,-2.555 -0.399,-0.525 -0.609,-1.727 -0.638,-3.613 -0.008,-0.411 0,-0.838 0.012,-1.308 l 0.076,-2.307 v -0.076 c -0.017,-9.617 0.318,-19.085 0.997,-28.407 0.096,-1.336 0.2,-2.871 0.326,-4.596 -0.728,-0.017 -1.377,-0.034 -1.948,-0.056"
         id="path221" />
      <polygon
         style="fill:#b0b6d5"
         points="699.813,133.422 699.652,133.422 700.034,133.431 "
         id="polygon223" />
      <path
         inkscape:connector-curvature="0"
         style="fill:#c6cee3"
         d="m 700.421,146.473 c -0.056,-1.21 -0.142,-2.309 -0.248,-3.279 h -0.009 c 0.104,1.059 0.192,2.106 0.248,3.146 0,0.038 0,0.085 0.009,0.133"
         id="path225" />
      <path
         inkscape:connector-curvature="0"
         style="fill:#b0b6d5"
         d="m 732.821,238.179 c -2.382,-1.104 -4.365,-1.427 -5.947,-0.981 -0.964,0.267 -2.204,0.457 -3.72,0.562 -0.447,0.028 -0.895,0.048 -1.345,0.078 -0.715,0.035 -1.409,0.056 -2.105,0.062 -0.581,0.001 -1.174,-0.016 -1.773,-0.045 -0.61,-0.03 -1.23,-0.039 -1.849,-0.03 -0.646,0.008 -1.307,0.029 -1.975,0.059 -0.609,0.026 -1.221,0.046 -1.829,0.055 -0.677,0.011 -1.346,0.012 -2.013,0.001 -0.057,-0.01 -0.112,-0.011 -0.171,-0.011 -0.601,-0.008 -1.212,-0.048 -1.812,-0.116 -0.716,-0.026 -1.42,-0.046 -2.138,-0.075 -0.37,0.01 -0.731,0.028 -1.095,0.038 -0.542,0.028 -1.087,0.048 -1.629,0.077 -0.146,0.009 -0.296,0.009 -0.449,0.019 -0.161,0.007 -0.324,0.006 -0.486,0.008 -1.534,0.754 -2.307,1.984 -2.308,3.698 l 10e-4,2.957 c -10e-4,1.077 0.331,1.992 1.008,2.745 0.697,0.763 1.536,1.145 2.498,1.145 l 74.589,0.02 c 0.982,0 1.804,-0.383 2.479,-1.145 0.686,-0.752 1.03,-1.668 1.029,-2.744 l 0.001,-2.955 c 10e-4,-1.077 -0.342,-2.004 -1.027,-2.767 -0.621,-0.687 -1.356,-1.059 -2.224,-1.114 l -3.204,0.103 c -1.914,0.219 -3.287,0.353 -4.098,0.418 -1.325,0.104 -2.623,0.161 -3.87,0.16 -0.755,0 -1.782,-0.095 -3.079,-0.284 -0.161,-0.029 -1.231,-0.221 -3.204,-0.584 -0.466,-0.067 -0.926,-0.16 -1.371,-0.305 -0.716,-0.315 -1.43,-0.556 -2.153,-0.695 -0.221,-0.059 -0.452,-0.096 -0.669,-0.116 -0.727,-0.049 -1.45,0.001 -2.175,0.142 -0.351,0.069 -0.715,0.164 -1.065,0.276 -0.125,0.037 -0.24,0.077 -0.364,0.114 -2.984,0.679 -5.941,1.456 -8.886,2.334 -0.256,0.086 -0.514,0.192 -0.762,0.297 -3.071,1.342 -6.15,1.152 -9.228,-0.585 -0.543,-0.31 -1.077,-0.577 -1.582,-0.816"
         id="path227" />
      <path
         inkscape:connector-curvature="0"
         style="fill:none;stroke:#737a91;stroke-width:1.52509999;stroke-linecap:round;stroke-linejoin:round;stroke-miterlimit:10"
         d="m 700.173,143.193 h -0.009 c -1.409,-0.077 -2.507,-0.497 -3.277,-1.26 -0.754,-0.754 -1.124,-1.669 -1.126,-2.746 l 10e-4,-1.726 c 0,-0.715 0.038,-1.191 0.105,-1.449 0.162,-0.601 0.495,-1.144 1.022,-1.609 0.77,-0.658 1.695,-0.981 2.763,-0.981 l 0.382,0.009 2.648,0.076 c 1.632,0.048 3.415,0.049 5.359,0.001 1.516,-0.065 2.993,-0.133 4.441,-0.18 6.358,-0.229 12.071,-0.29 17.141,-0.186 l 23.587,0.264 c 2.64,0.066 8.037,0.183 16.169,0.328 1.221,0.001 2.413,-0.009 3.583,-0.029 2.297,-0.027 4.482,-0.133 6.56,-0.293 l 2.842,0.028 c 1.077,-0.001 1.991,0.325 2.745,0.985 0.762,0.676 1.144,1.485 1.143,2.429 l -10e-4,2.354 c 0,1.078 -0.381,1.994 -1.144,2.747 -0.757,0.764 -1.67,1.145 -2.745,1.144 h -0.183 -0.047 m 0.001,0 c -0.725,-0.021 -1.374,-0.038 -1.945,-0.06 -0.218,-0.008 -0.448,-0.008 -0.668,-0.009 -1.145,-0.027 -2.286,-0.057 -3.433,-0.084 -2.869,-0.107 -5.737,-0.127 -8.607,-0.051 -2.804,0.065 -5.606,0.122 -8.407,0.15 -2.917,0.197 -5.835,0.208 -8.751,0.044 l -19.23,-0.003 c -4.661,-0.089 -9.372,-0.089 -14.128,-0.005 -3.584,0.182 -6.072,0.276 -7.474,0.304 -3.117,0.056 -6.218,-0.013 -9.316,-0.192 m 78.359,94.524 0.002,-2.441 c -0.009,-0.306 -0.008,-0.61 -0.01,-0.904 0.04,-7.896 0.366,-15.904 0.979,-24.026 0.438,-4.29 0.677,-7.541 0.725,-9.751 0.021,-0.982 10e-4,-1.765 -0.057,-2.336 -0.093,-0.981 -0.15,-1.802 -0.179,-2.46 -0.028,-0.582 -0.018,-1.03 0.008,-1.354 0.061,-0.515 0.201,-1.089 0.421,-1.716 0.078,-0.211 0.161,-0.428 0.247,-0.646 1.041,-2.204 1.643,-3.881 1.805,-5.034 0.057,-0.438 0.057,-0.803 -0.009,-1.087 -0.277,-1.077 -0.648,-1.936 -1.106,-2.555 -0.399,-0.525 -0.609,-1.727 -0.638,-3.613 -0.008,-0.411 0,-0.838 0.012,-1.308 l 0.076,-2.307 v -0.076 c -0.017,-9.617 0.318,-19.085 0.997,-28.407 0.096,-1.336 0.2,-2.871 0.326,-4.596 m -82.319,-9.678 2.737,-0.021 m -2.377,9.792 c 0.106,0.971 0.192,2.069 0.248,3.279 l 0.057,3.707 c -10e-4,0.125 -10e-4,0.26 -0.009,0.394 -0.039,1.714 -0.059,3.355 -0.052,4.907 l 0.229,9.572 c 0.055,0.793 0.115,1.555 0.18,2.277 l 0.076,1.583 c 0.163,2.642 0.333,5.119 0.513,7.416 0.04,0.45 0.078,0.887 0.116,1.317 0.085,1.115 0.162,2.26 0.228,3.431 0.026,0.507 0.037,1.022 0.037,1.545 v 0.363 c -0.021,1.01 -0.066,2.011 -0.153,3.011 -0.028,0.297 -0.048,0.582 -0.077,0.86 v 0.057 c -0.105,0.849 -0.199,1.707 -0.285,2.553 -0.126,1.08 -0.209,2.156 -0.239,3.243 -0.012,0.133 -0.012,0.268 -0.012,0.401 -0.008,0.236 0,0.475 0.019,0.715 0.01,0.259 0.039,0.514 0.078,0.77 0.199,1.185 0.494,2.355 0.876,3.51 0.181,0.582 0.392,1.175 0.647,1.755 0.153,0.354 0.524,1.878 1.124,4.574 0.248,0.871 0.313,1.672 0.198,2.406 -0.112,0.715 -0.4,1.36 -0.865,1.943 -0.269,0.343 -0.479,0.771 -0.632,1.277 -0.276,0.904 -0.381,2.088 -0.305,3.545 0.028,0.601 0.085,1.26 0.171,1.965 l 1.082,18.78 -10e-4,2.716 m 75.111,0.652 -3.204,0.103 c -1.914,0.219 -3.287,0.353 -4.098,0.418 -1.325,0.104 -2.623,0.161 -3.87,0.16 -0.755,0 -1.782,-0.095 -3.079,-0.284 -0.161,-0.029 -1.231,-0.221 -3.204,-0.584 -0.466,-0.067 -0.926,-0.16 -1.372,-0.305 -0.715,-0.315 -1.429,-0.556 -2.152,-0.695 -0.221,-0.059 -0.452,-0.096 -0.669,-0.116 -0.727,-0.049 -1.449,0.001 -2.175,0.142 -0.351,0.069 -0.715,0.164 -1.065,0.276 -0.125,0.037 -0.24,0.077 -0.364,0.114 -2.984,0.679 -5.941,1.456 -8.886,2.334 -0.256,0.086 -0.517,0.191 -0.762,0.297 -3.071,1.342 -6.15,1.152 -9.228,-0.585 -0.545,-0.307 -1.079,-0.573 -1.584,-0.812 -2.382,-1.104 -4.366,-1.427 -5.947,-0.981 -0.964,0.267 -2.204,0.457 -3.719,0.562 -0.448,0.028 -0.896,0.048 -1.346,0.078 -0.713,0.035 -1.409,0.056 -2.105,0.062 -0.581,10e-4 -1.174,-0.016 -1.773,-0.045 -0.61,-0.03 -1.23,-0.039 -1.849,-0.03 -0.646,0.008 -1.307,0.029 -1.975,0.059 -0.609,0.026 -1.221,0.046 -1.829,0.055 -0.677,0.011 -1.346,0.012 -2.013,0.001 -0.057,-0.01 -0.114,-0.011 -0.172,-0.011 -0.6,-0.008 -1.211,-0.048 -1.811,-0.116 -0.716,-0.026 -1.421,-0.046 -2.138,-0.075 -0.37,0.01 -0.731,0.028 -1.095,0.038 -0.542,0.028 -1.087,0.048 -1.629,0.077 -0.146,0.009 -0.296,0.009 -0.449,0.019 -0.161,0.007 -0.324,0.006 -0.486,0.008 -1.534,0.754 -2.307,1.984 -2.308,3.698 l 10e-4,2.957 c -10e-4,1.077 0.331,1.992 1.008,2.745 0.697,0.763 1.536,1.145 2.498,1.145 l 74.589,0.02 c 0.982,0 1.804,-0.383 2.479,-1.145 0.686,-0.752 1.03,-1.668 1.029,-2.744 l 0.001,-2.955 c 10e-4,-1.077 -0.342,-2.004 -1.027,-2.767 -0.621,-0.69 -1.355,-1.063 -2.222,-1.118 z"
         id="path229" />
      <path
         inkscape:connector-curvature="0"
         style="fill:#b0b6d5"
         d="m 773.321,147.921 h -0.019 c -1.144,-0.031 -2.136,0.895 -2.975,2.764 -0.886,1.84 -1.354,4.071 -1.395,6.691 l -0.159,30.698 c -0.591,1.344 -0.993,2.896 -1.193,4.649 -0.095,0.783 -0.152,1.602 -0.163,2.46 -0.104,2.215 0.172,3.956 0.819,5.226 l -0.73,24.595 c -0.037,2.318 0.314,4.301 1.048,5.969 0.724,1.641 1.629,2.459 2.706,2.46 h 0.021 c 1.038,0.001 1.974,-0.819 2.781,-2.459 0.804,-1.668 1.233,-3.649 1.301,-5.966 l 0.332,-29.021 c -0.563,-0.448 -0.859,-1.533 -0.896,-3.26 -0.008,-0.239 -0.009,-0.485 10e-4,-0.743 l 1.279,-6.31 1.13,-28.295 c 0.048,-2.623 -0.295,-4.853 -1.046,-6.693 -0.753,-1.868 -1.696,-2.795 -2.842,-2.765"
         id="path231" />
      <path
         inkscape:connector-curvature="0"
         style="fill:#b0b6d5"
         d="m 762.72,150.683 c -0.772,-1.868 -1.734,-2.794 -2.876,-2.766 h -0.021 c -1.143,-0.028 -2.126,0.896 -2.937,2.765 -0.839,1.838 -1.279,4.069 -1.317,6.691 l -0.352,37.695 -0.861,6.824 c -0.161,0.838 -0.027,2.278 0.419,4.329 l 0.052,18.78 c -0.038,2.315 0.324,4.3 1.085,5.969 0.726,1.639 1.631,2.459 2.727,2.457 h 0.019 c 1.03,0.002 1.956,-0.818 2.767,-2.457 0.773,-1.667 1.192,-3.65 1.259,-5.967 l -0.088,-22.402 c -0.649,-1.499 -0.878,-3.214 -0.687,-5.13 l 1.317,-7.397 0.598,-32.698 c 0.03,-2.62 -0.341,-4.854 -1.104,-6.693"
         id="path233" />
      <path
         inkscape:connector-curvature="0"
         style="fill:#b0b6d5"
         d="m 749.604,150.678 c -0.792,-1.868 -1.744,-2.791 -2.88,-2.764 h -0.019 c -1.144,-0.029 -2.128,0.896 -2.938,2.763 -0.841,1.84 -1.261,4.071 -1.26,6.695 l -0.297,48.752 0.838,3.944 c 0.199,0.906 0.114,2.66 -0.268,5.283 l -0.366,9.646 c 0,2.316 0.391,4.299 1.163,5.97 0.752,1.639 1.657,2.459 2.725,2.46 h 0.019 c 1.068,-0.001 1.983,-0.82 2.746,-2.459 0.766,-1.668 1.155,-3.651 1.184,-5.968 l 0.533,-67.629 c 0.009,-2.622 -0.381,-4.851 -1.18,-6.693"
         id="path235" />
      <path
         inkscape:connector-curvature="0"
         style="fill:#b0b6d5"
         d="m 733.664,147.911 c -1.154,-0.031 -2.127,0.895 -2.918,2.764 -0.801,1.84 -1.184,4.07 -1.147,6.69 l 0.536,7.723 -0.347,2.48 0.716,36.455 0.629,3.582 c 0.447,1.613 0.133,3.986 -0.938,7.113 l -0.041,10.276 c -0.009,2.315 0.382,4.3 1.182,5.968 0.763,1.642 1.688,2.461 2.766,2.459 l 0.018,0.001 c 1.059,0.001 1.964,-0.817 2.727,-2.458 0.766,-1.668 1.146,-3.65 1.146,-5.969 l 0.173,-11.095 0.441,-3.682 -0.686,-2.534 -0.103,-50.315 c 10e-4,-2.623 -0.408,-4.854 -1.219,-6.695 -0.801,-1.864 -1.771,-2.793 -2.917,-2.764 h -0.018 z"
         id="path237" />
      <path
         inkscape:connector-curvature="0"
         style="fill:#b0b6d5"
         d="m 721.043,147.909 h -0.021 c -1.153,-0.03 -2.127,0.894 -2.898,2.763 -0.792,1.84 -1.155,4.07 -1.089,6.691 l 1.503,7.456 -1.067,3.448 0.966,33.979 c 0.657,2.603 0.989,5.121 0.989,7.552 l -0.86,3.87 -0.365,11.326 c 0.029,2.314 0.447,4.3 1.256,5.967 0.795,1.639 1.708,2.459 2.765,2.461 h 0.02 c 1.069,0 1.975,-0.821 2.709,-2.461 0.734,-1.668 1.098,-3.648 1.069,-5.966 l -0.495,-9.211 c -0.027,-0.98 0.04,-1.732 0.192,-2.268 0.144,-0.534 0.258,-0.886 0.362,-1.066 0.086,-0.182 0.182,-0.394 0.266,-0.631 0.279,-0.725 0.412,-1.458 0.402,-2.212 0.001,-0.531 -0.048,-1.057 -0.151,-1.583 -0.163,-0.84 -0.371,-1.667 -0.629,-2.494 l -0.381,-2.387 -0.449,-34.282 c 0.763,-1.801 1.192,-3.137 1.279,-3.982 l -0.553,-2.994 -0.57,-4.521 c -0.048,-2.62 -0.487,-4.849 -1.315,-6.689 -0.84,-1.872 -1.821,-2.797 -2.935,-2.766"
         id="path239" />
      <path
         inkscape:connector-curvature="0"
         style="fill:#b0b6d5"
         d="m 708.363,147.904 h -0.02 c -1.152,-0.028 -2.109,0.896 -2.842,2.764 -0.773,1.84 -1.136,3.671 -1.092,5.491 -0.044,0.307 -0.063,0.601 -0.035,0.896 0.087,0.685 0.335,1.295 0.724,1.83 0.429,0.581 0.725,1.25 0.878,1.983 0.065,0.296 0.141,0.716 0.228,1.277 -0.333,0.906 -0.639,1.934 -0.917,3.108 l -0.438,1.771 1.669,36.152 1.504,4.043 c 0.524,1.512 0.372,2.934 -0.457,4.27 -0.699,0.809 -1.097,2.458 -1.184,4.938 0.266,2.634 0.22,5.482 -0.135,8.561 0.047,2.315 0.483,4.299 1.293,5.97 0.812,1.639 1.765,2.458 2.842,2.458 h 0.018 c 1.04,0.001 1.937,-0.817 2.671,-2.458 0.716,-1.669 1.05,-3.65 1.012,-5.966 l -0.206,-10.526 c 0.715,-3.115 0.936,-5.288 0.669,-6.521 l -0.744,-3.852 -1.611,-35.96 c -0.009,-0.381 0.135,-0.828 0.439,-1.335 0.306,-0.505 0.639,-1.371 1.011,-2.591 0.087,-0.347 0.163,-0.602 0.229,-0.783 l -1.121,-4.996 c -0.116,-0.582 -0.185,-1.237 -0.192,-1.962 0.049,-2.022 -0.353,-3.96 -1.199,-5.799 -0.869,-1.866 -1.859,-2.793 -2.994,-2.763"
         id="path241" />
      <path
         inkscape:connector-curvature="0"
         style="fill:#b0b6d5"
         d="m 784.673,166.788 -0.247,-6.711 c -0.303,-4.318 -2.256,-6.399 -5.85,-6.237 l -20.307,-0.004 c -2.013,-0.087 -3.404,0.475 -4.176,1.695 -0.163,0.372 -0.306,0.745 -0.422,1.125 -0.124,0.429 -0.199,0.876 -0.21,1.336 -0.01,0.609 0.02,1.211 0.096,1.811 0.076,0.562 0.124,1.114 0.133,1.658 0.01,0.764 0.038,1.517 0.075,2.27 0.038,0.687 0.084,1.371 0.135,2.059 0.009,0.163 0.026,0.335 0.036,0.496 l 0.591,7.474 c 0.076,0.839 0.237,1.659 0.478,2.457 0.062,0.204 0.13,0.413 0.209,0.613 0.827,1.459 2.143,2.262 3.964,2.385 2.516,-0.077 5.033,-0.028 7.549,0.135 1.137,0.01 2.374,0.066 3.72,0.153 1.916,0.086 3.946,0.114 6.082,0.077 0.963,-0.075 1.934,-0.142 2.917,-0.209 0.459,-0.037 0.926,-0.086 1.394,-0.133 0.406,-0.037 0.808,-0.076 1.219,-0.113 2.439,-0.505 3.537,-2.546 3.28,-6.122 l -0.666,-6.215 0,0 z m -5.776,-8.276 c 0.505,0.143 0.792,0.657 0.857,1.562 0.542,3.729 0.848,7.696 0.896,11.919 0.159,1.105 0.046,1.915 -0.346,2.438 -0.029,0.04 -0.057,0.066 -0.095,0.097 -4.205,0.6 -7.896,0.799 -11.06,0.606 -3.166,-0.19 -5.385,-0.304 -6.653,-0.346 -1.29,-0.047 -2.261,-0.143 -2.918,-0.265 l -0.399,-0.383 c -0.162,-0.268 -0.268,-0.648 -0.305,-1.145 l -0.763,-8.541 -0.148,-4.386 c -0.068,-0.917 0.141,-1.438 0.626,-1.562 l 20.308,0.006 z"
         id="path243" />
      <path
         inkscape:connector-curvature="0"
         style="fill:none;stroke:#737a91;stroke-width:1.52509999;stroke-linecap:round;stroke-linejoin:round;stroke-miterlimit:10"
         d="m 784.426,160.078 c -0.303,-4.319 -2.256,-6.4 -5.85,-6.238 l -20.307,-0.004 c -2.013,-0.087 -3.404,0.475 -4.176,1.695 -0.163,0.372 -0.306,0.745 -0.422,1.125 -0.124,0.429 -0.199,0.876 -0.21,1.336 -0.01,0.609 0.02,1.211 0.096,1.811 0.076,0.562 0.124,1.114 0.133,1.658 0.01,0.764 0.038,1.517 0.075,2.27 0.038,0.687 0.084,1.371 0.135,2.059 0.009,0.163 0.026,0.335 0.036,0.496 l 0.591,7.474 c 0.076,0.839 0.237,1.659 0.478,2.457 0.062,0.204 0.13,0.413 0.209,0.613 0.827,1.459 2.143,2.262 3.964,2.385 2.516,-0.077 5.033,-0.028 7.549,0.135 1.137,0.01 2.374,0.066 3.72,0.153 1.916,0.086 3.946,0.114 6.082,0.077 0.963,-0.075 1.934,-0.142 2.917,-0.209 0.459,-0.037 0.926,-0.086 1.394,-0.133 0.406,-0.037 0.808,-0.076 1.219,-0.113 2.439,-0.505 3.537,-2.546 3.28,-6.122 l -0.665,-6.213 -0.248,-6.712 z m -5.529,-1.566 -20.308,-0.004 c -0.485,0.124 -0.694,0.646 -0.626,1.562 l 0.148,4.386 0.763,8.541 c 0.037,0.496 0.143,0.877 0.305,1.145 l 0.399,0.383 c 0.657,0.122 1.628,0.218 2.918,0.265 1.269,0.042 3.487,0.155 6.653,0.346 3.164,0.192 6.854,-0.007 11.06,-0.606 0.038,-0.03 0.065,-0.057 0.095,-0.097 0.392,-0.523 0.505,-1.333 0.346,-2.438 -0.048,-4.223 -0.354,-8.189 -0.896,-11.919 -0.065,-0.907 -0.352,-1.422 -0.857,-1.564 z"
         id="path245" />
      <path
         inkscape:connector-curvature="0"
         style="fill:#c6cee3"
         d="m 776.44,153.076 c -0.04,-0.885 -0.582,-1.345 -1.642,-1.354 l -7.13,-0.038 c -1.325,-0.057 -2.556,-0.067 -3.681,-0.039 -1.419,-0.028 -2.26,0.237 -2.509,0.8 -0.141,1.269 -0.171,2.728 -0.065,4.367 l 0.036,4.27 c 0.153,0.124 0.296,0.218 0.44,0.27 0.657,0.112 1.305,0.151 1.942,0.113 h 0.152 l 0.268,0.001 c 2.851,0.011 5.624,0.028 8.333,0.04 l 3.488,0.058 c 0.294,-0.715 0.43,-1.42 0.421,-2.135 l -0.053,-6.353 z"
         id="path247" />
      <path
         inkscape:connector-curvature="0"
         style="fill:none;stroke:#737a91;stroke-width:1.52509999;stroke-linecap:round;stroke-linejoin:round;stroke-miterlimit:10"
         d="m 774.799,151.722 -7.13,-0.038 c -1.325,-0.057 -2.556,-0.067 -3.68,-0.039 -1.42,-0.028 -2.261,0.237 -2.51,0.8 -0.141,1.269 -0.171,2.728 -0.065,4.367 l 0.036,4.27 c 0.153,0.124 0.296,0.218 0.44,0.27 0.657,0.112 1.305,0.151 1.942,0.113 h 0.152 l 0.268,0.001 c 2.851,0.011 5.624,0.028 8.333,0.04 l 3.488,0.058 c 0.294,-0.715 0.43,-1.42 0.421,-2.135 l -0.055,-6.352 c -0.039,-0.886 -0.581,-1.346 -1.64,-1.355 z"
         id="path249" />
      <path
         inkscape:connector-curvature="0"
         style="fill:#c6cee3"
         d="m 748.436,96.077 c -0.562,-0.409 -1.289,-0.605 -2.177,-0.582 -0.463,0.01 -1.022,0.056 -1.674,0.154 -1.353,0.179 -2.593,0.212 -3.7,0.118 -0.343,-0.027 -0.698,-0.074 -1.073,-0.117 -0.367,-0.055 -0.726,-0.122 -1.086,-0.194 -1.421,-0.343 -2.853,-0.411 -4.297,-0.217 -1.012,0.131 -1.813,0.304 -2.399,0.51 -0.162,0.056 -0.325,0.123 -0.495,0.209 -0.397,0.222 -0.776,0.556 -1.137,1.002 -0.079,0.1 -0.15,0.199 -0.21,0.296 -0.358,0.563 -0.495,1.194 -0.426,1.897 0.201,4.14 0.612,8.024 1.233,11.659 0.089,0.827 0.45,1.49 1.109,2.007 0.627,0.514 1.351,0.73 2.175,0.641 0.825,-0.091 1.489,-0.453 2.01,-1.09 0.502,-0.636 0.708,-1.367 0.617,-2.193 -0.604,-2.508 -0.949,-5.609 -1.046,-9.302 -0.023,-0.703 -0.038,-1.416 -0.037,-2.15 -10e-4,0.734 0.014,1.447 0.037,2.15 2.03,-0.265 3.746,-0.35 5.135,-0.255 0.945,0.064 1.896,0.127 2.842,0.19 0.576,0.029 1.142,0.061 1.717,0.088 -0.575,-0.028 -1.141,-0.06 -1.717,-0.088 l 0.915,9.412 c 0.074,0.732 0.38,1.348 0.904,1.83 0.059,0.057 0.127,0.113 0.202,0.168 0.509,0.427 1.086,0.648 1.736,0.666 0.145,0.005 0.288,-10e-4 0.441,-0.017 0.274,-0.036 0.545,-0.098 0.801,-0.191 0.261,-0.102 0.499,-0.239 0.719,-0.411 0.172,-0.135 0.331,-0.287 0.484,-0.467 0.5,-0.653 0.715,-1.385 0.624,-2.21 l -1.185,-11.36 c -0.119,-1.022 -0.471,-1.737 -1.042,-2.153"
         id="path251" />
      <path
         inkscape:connector-curvature="0"
         style="fill:none;stroke:#737a91;stroke-width:1.52429998;stroke-linecap:round;stroke-linejoin:round;stroke-miterlimit:10"
         d="m 735.86,100.875 c 0.097,3.693 0.442,6.795 1.046,9.301 0.091,0.826 -0.115,1.558 -0.617,2.194 -0.521,0.637 -1.185,0.999 -2.01,1.089 -0.824,0.09 -1.548,-0.126 -2.176,-0.641 -0.658,-0.516 -1.02,-1.18 -1.108,-2.006 -0.621,-3.634 -1.032,-7.519 -1.233,-11.659 -0.069,-0.703 0.067,-1.334 0.426,-1.897 0.06,-0.097 0.131,-0.195 0.21,-0.296 0.36,-0.447 0.739,-0.781 1.137,-1.002 0.17,-0.087 0.333,-0.153 0.495,-0.21 0.586,-0.204 1.388,-0.377 2.399,-0.509 1.444,-0.195 2.876,-0.126 4.297,0.217 0.36,0.073 0.718,0.14 1.086,0.194 0.375,0.043 0.729,0.09 1.073,0.119 1.107,0.094 2.348,0.06 3.7,-0.119 0.651,-0.099 1.211,-0.145 1.674,-0.153 0.888,-0.023 1.615,0.172 2.177,0.58 0.571,0.416 0.924,1.131 1.044,2.154 l 1.185,11.357 c 0.091,0.826 -0.124,1.558 -0.624,2.211 -0.153,0.18 -0.312,0.333 -0.483,0.467 -0.221,0.172 -0.459,0.309 -0.72,0.411 -0.256,0.091 -0.526,0.155 -0.801,0.192 -0.153,0.015 -0.297,0.02 -0.441,0.018 -0.65,-0.019 -1.228,-0.24 -1.736,-0.667 -0.075,-0.055 -0.142,-0.11 -0.202,-0.168 -0.524,-0.481 -0.83,-1.096 -0.904,-1.83 l -0.915,-9.412 m -0.002,0 c -0.946,-0.064 -1.896,-0.126 -2.842,-0.189 -1.389,-0.095 -3.104,-0.011 -5.135,0.254 m 9.694,0.023 c -0.575,-0.028 -1.141,-0.06 -1.717,-0.088 m -8.013,-2.085 c -0.002,0.734 0.013,1.447 0.036,2.15"
         id="path253" />
      <path
         inkscape:connector-curvature="0"
         style="fill:#b0b6d5"
         d="m 750.419,105.995 c -2.936,1.103 -6.452,1.798 -10.547,2.1 -6.809,-0.085 -12.947,0.463 -18.412,1.624 -5.47,1.159 -10.537,2.339 -15.196,3.537 -4.668,1.198 -8.128,2.349 -10.387,3.453 -1.161,1.316 -1.833,2.78 -2.016,4.397 -0.065,0.591 -0.062,1.178 0.006,1.766 0.068,0.627 0.164,1.259 0.289,1.885 0.224,1.17 0.284,2.339 0.186,3.523 0.033,1.29 0.279,2.244 0.732,2.873 8.35,-2.58 15.665,-4.534 21.952,-5.869 5.103,-1.087 8.761,-1.808 10.974,-2.152 1.652,-0.17 3.292,-0.425 4.911,-0.786 0.429,-0.1 0.854,-0.21 1.28,-0.311 1.884,-0.414 3.69,-0.756 5.413,-1.036 1.05,-0.138 2.096,-0.235 3.146,-0.297 1.8,-0.156 3.564,-0.472 5.312,-0.94 1.856,-0.456 3.731,-0.849 5.629,-1.176 2.084,-0.36 4.171,-0.595 6.269,-0.705 2.035,-0.139 4.052,-0.149 6.075,-0.033 1.1,0.056 2.194,0.142 3.297,0.256 2.159,0.199 4.31,0.523 6.45,0.966 2.06,0.446 4.118,0.922 6.183,1.426 2.1,0.517 4.179,1.067 6.255,1.634 0.145,0.044 0.286,0.079 0.428,0.124 0.359,-1.143 0.424,-2.313 0.214,-3.505 -0.228,-1.228 -0.454,-2.467 -0.668,-3.694 -0.217,-1.23 -0.442,-2.45 -0.655,-3.678 -0.157,-0.873 -0.369,-1.726 -0.655,-2.566 -0.129,-0.365 -0.281,-0.707 -0.479,-1.011 -0.361,-0.608 -0.9,-0.943 -1.601,-1.018 -5.505,-1.424 -11.31,-2.333 -17.421,-2.708 -3.982,-0.8 -9.633,-0.159 -16.964,1.921"
         id="path255" />
      <path
         inkscape:connector-curvature="0"
         style="fill:none;stroke:#737a91;stroke-width:1.52429998;stroke-linecap:round;stroke-linejoin:round;stroke-miterlimit:10"
         d="m 750.419,105.995 c 7.331,-2.08 12.982,-2.721 16.964,-1.92 6.111,0.375 11.916,1.284 17.421,2.708 0.7,0.075 1.239,0.41 1.601,1.018 0.197,0.304 0.35,0.646 0.479,1.011 0.286,0.84 0.498,1.693 0.655,2.566 0.213,1.228 0.438,2.448 0.655,3.678 0.214,1.227 0.44,2.466 0.668,3.694 0.21,1.192 0.146,2.362 -0.214,3.505 -0.142,-0.045 -0.283,-0.08 -0.428,-0.124 -2.076,-0.567 -4.155,-1.118 -6.255,-1.634 -2.064,-0.504 -4.123,-0.98 -6.183,-1.426 -2.141,-0.442 -4.291,-0.767 -6.45,-0.966 -1.103,-0.114 -2.197,-0.2 -3.297,-0.256 -2.023,-0.116 -4.04,-0.105 -6.075,0.033 -2.098,0.11 -4.185,0.345 -6.269,0.705 -1.897,0.328 -3.772,0.72 -5.629,1.176 -1.747,0.468 -3.512,0.784 -5.312,0.94 -1.051,0.062 -2.097,0.159 -3.146,0.297 -1.723,0.28 -3.529,0.622 -5.413,1.036 -0.426,0.1 -0.852,0.21 -1.28,0.311 -1.619,0.36 -3.259,0.616 -4.911,0.786 -2.213,0.344 -5.871,1.064 -10.974,2.152 -6.287,1.335 -13.603,3.289 -21.952,5.869 -0.453,-0.629 -0.699,-1.583 -0.732,-2.873 0.099,-1.184 0.038,-2.353 -0.186,-3.523 -0.125,-0.626 -0.221,-1.258 -0.289,-1.885 -0.068,-0.588 -0.071,-1.175 -0.006,-1.766 0.183,-1.618 0.854,-3.082 2.016,-4.397 2.259,-1.104 5.719,-2.255 10.387,-3.453 4.659,-1.198 9.727,-2.378 15.196,-3.537 5.465,-1.16 11.604,-1.708 18.412,-1.624 4.095,-0.303 7.611,-0.998 10.547,-2.101 z"
         id="path257" />
    </g>
  </g>
</svg>
