<?xml version="1.0" encoding="UTF-8" standalone="no"?>
<!-- Created with Inkscape (http://www.inkscape.org/) -->

<svg
   xmlns:dc="http://purl.org/dc/elements/1.1/"
   xmlns:cc="http://creativecommons.org/ns#"
   xmlns:rdf="http://www.w3.org/1999/02/22-rdf-syntax-ns#"
   xmlns:svg="http://www.w3.org/2000/svg"
   xmlns="http://www.w3.org/2000/svg"
   xmlns:sodipodi="http://sodipodi.sourceforge.net/DTD/sodipodi-0.dtd"
   xmlns:inkscape="http://www.inkscape.org/namespaces/inkscape"
   width="116.79242"
   height="216.81473"
   id="svg5696"
   version="1.1"
   inkscape:version="0.48.4 r9939"
   sodipodi:docname="oscar6.svg">
  <defs
     id="defs5698">
    <clipPath
       id="SVGID_2_">
      <rect
         height="88.862999"
         width="111.498"
         y="518.96198"
         x="382.04999"
         id="use1087" />
    </clipPath>
    <clipPath
       id="SVGID_4_">
      <rect
         height="41.314999"
         width="49.584999"
         y="525.19397"
         x="389.84698"
         id="use1111" />
    </clipPath>
  </defs>
  <sodipodi:namedview
     id="base"
     pagecolor="#ffffff"
     bordercolor="#666666"
     borderopacity="1.0"
     inkscape:pageopacity="0.0"
     inkscape:pageshadow="2"
     inkscape:zoom="0.77472527"
     inkscape:cx="64.389245"
     inkscape:cy="92.217624"
     inkscape:current-layer="layer1"
     inkscape:document-units="px"
     showgrid="false"
     inkscape:window-width="763"
     inkscape:window-height="591"
     inkscape:window-x="592"
     inkscape:window-y="97"
     inkscape:window-maximized="0"
     fit-margin-top="0"
     fit-margin-left="0"
     fit-margin-right="0"
     fit-margin-bottom="0" />
  <metadata
     id="metadata5701">
    <rdf:RDF>
      <cc:Work
         rdf:about="">
        <dc:format>image/svg+xml</dc:format>
        <dc:type
           rdf:resource="http://purl.org/dc/dcmitype/StillImage" />
        <dc:title></dc:title>
      </cc:Work>
    </rdf:RDF>
  </metadata>
  <g
     id="layer1"
     inkscape:label="Layer 1"
     inkscape:groupmode="layer"
     transform="translate(-253.55405,39.490736)">
    <g
       transform="translate(-167.55978,-316.73852)"
       id="g1181">
      <path
         inkscape:connector-curvature="0"
         style="fill:#9fc94c"
         d="m 466.695,389.347 c -3.717,-4.293 -8.625,-7.62 -14.707,-9.979 l 1.5,-16.115 c 7.949,1.648 17.671,7.952 29.191,18.925 l -15.984,7.169 z"
         id="path1183" />
      <path
         inkscape:connector-curvature="0"
         style="fill:none;stroke:#255f27;stroke-width:1.56459999;stroke-linecap:round;stroke-linejoin:round;stroke-miterlimit:10"
         d="m 466.695,389.347 c -3.717,-4.293 -8.625,-7.62 -14.705,-9.979 m 1.499,-16.116 c 7.947,1.646 17.67,7.952 29.19,18.925"
         id="path1185" />
      <path
         inkscape:connector-curvature="0"
         style="fill:#255f27"
         d="m 461.201,366.853 c -0.094,-0.047 -0.178,-0.087 -0.271,-0.136 -2.535,-1.291 -5.036,-2.194 -7.497,-2.701 -4.233,-0.714 -8.077,-0.311 -11.519,1.214 -3.421,1.535 -5.968,4.097 -7.652,7.704 -0.326,0.708 -0.628,1.374 -0.896,2.002 l 0.002,0.01 c -0.446,1.007 -0.78,2.061 -0.992,3.164 l -0.009,0.01 c -0.049,0.262 -0.109,0.521 -0.158,0.793 -0.174,1.16 -0.274,2.352 -0.305,3.562 0.17,3.176 0.895,5.548 2.152,7.108 -0.144,-0.474 -0.254,-0.97 -0.336,-1.481 -0.07,-0.419 -0.116,-0.824 -0.146,-1.221 -0.031,-0.289 -0.043,-0.571 -0.053,-0.854 -0.017,-0.182 -0.021,-0.357 -0.017,-0.532 -0.06,-1.827 0.378,-3.455 1.286,-4.885 0.104,-0.164 0.217,-0.32 0.32,-0.475 -0.031,0.261 -0.062,0.513 -0.095,0.764 -0.299,2.181 -0.246,4.396 0.145,6.65 0.048,0.282 0.098,0.554 0.146,0.833 0.215,1.173 0.668,2.247 1.336,3.207 l 0.025,0.039 c 0.47,0.648 1.037,1.24 1.707,1.791 1.439,0.804 2.546,0.896 3.319,0.268 0.897,-0.822 1.461,-1.771 1.694,-2.854 l -0.003,-0.01 c 0.266,-1.199 0.451,-2.333 0.574,-3.387 0.069,-0.523 0.198,-1.114 0.396,-1.771 -1.12,-0.255 -2.146,-0.854 -3.081,-1.797 -0.033,-0.028 -0.06,-0.066 -0.082,-0.097 -0.438,-0.552 -0.781,-1.132 -1.012,-1.744 -0.287,-0.919 -0.397,-1.83 -0.322,-2.739 0.044,-0.639 0.171,-1.239 0.394,-1.79 0.774,-1.828 1.981,-3.277 3.644,-4.332 0.142,-0.088 0.282,-0.173 0.416,-0.26 -1.099,1.46 -1.826,2.611 -2.181,3.451 -0.345,0.842 -0.522,1.279 -0.536,1.328 -0.161,0.638 -0.252,1.295 -0.282,1.973 -0.02,0.669 0.103,1.324 0.38,1.977 0.149,0.442 0.375,0.871 0.666,1.285 0.867,0.854 1.829,1.303 2.907,1.332 0.039,-0.009 0.077,-0.009 0.117,0 0.512,-0.008 1.052,-0.086 1.609,-0.25 1.818,-0.764 3.081,-1.883 3.8,-3.362 0.053,-0.107 0.118,-0.184 0.216,-0.252 0.098,-0.068 0.208,-0.096 0.323,-0.104 1.941,-0.164 3.487,-0.664 4.637,-1.493 0.133,-0.087 0.256,-0.167 0.371,-0.252 1.045,-0.697 1.846,-1.576 2.409,-2.65 0.27,-0.494 0.475,-1.024 0.634,-1.596 0.083,0.572 0.1,1.103 0.065,1.609 -0.095,1.382 -0.623,2.555 -1.603,3.509 -0.074,0.077 -0.151,0.155 -0.235,0.232 -1.324,1.169 -3.179,1.884 -5.551,2.143 -0.864,1.614 -2.307,2.843 -4.335,3.682 -0.027,0.011 -0.047,0.011 -0.065,0.017 -0.566,0.164 -1.111,0.271 -1.64,0.309 -0.257,0.775 -0.424,1.453 -0.505,2.044 v -0.01 c -0.125,1.094 -0.314,2.274 -0.592,3.521 -0.282,1.345 -0.978,2.525 -2.081,3.539 -1.198,1.172 -2.93,1.101 -5.198,-0.21 -0.043,-0.025 -0.086,-0.056 -0.128,-0.087 -0.744,-0.609 -1.392,-1.278 -1.928,-1.983 -3.207,-1.391 -4.966,-4.83 -5.252,-10.327 0.006,-0.02 0.002,-0.04 0,-0.06 0.032,-1.276 0.135,-2.525 0.319,-3.746 0.008,-0.018 0.006,-0.03 0.004,-0.038 0.057,-0.28 0.114,-0.551 0.172,-0.831 l 0.001,0.008 c 0.236,-1.198 0.596,-2.352 1.078,-3.443 l 0.009,-0.009 c 0.268,-0.64 0.566,-1.315 0.901,-2.034 1.814,-3.907 4.574,-6.681 8.288,-8.332 3.706,-1.648 7.834,-2.079 12.396,-1.308 0.009,0 0.018,0 0.03,0.009 2.612,0.536 5.265,1.498 7.944,2.868 0.062,0.028 0.126,0.057 0.179,0.085 -0.072,0.379 -0.156,0.882 -0.239,1.52 -0.068,-0.049 -0.142,-0.088 -0.214,-0.117 l 0,0 z"
         id="path1187" />
      <path
         inkscape:connector-curvature="0"
         style="fill:#9fc94c"
         d="m 460.931,366.717 c 0.093,0.049 0.177,0.089 0.271,0.136 0.072,0.029 0.146,0.067 0.22,0.116 0.009,0.251 0.023,0.504 0.058,0.746 0.027,0.185 0.148,0.426 0.369,0.746 0.229,0.318 0.363,0.649 0.414,1.008 0.048,0.358 0.073,0.589 0.068,0.696 -0.021,0.261 -0.041,0.591 -0.062,0.987 -0.005,0.098 -0.045,0.232 -0.126,0.416 -0.021,0.047 -0.05,0.117 -0.088,0.184 -0.03,1.499 -0.548,2.757 -1.565,3.764 -0.138,0.134 -0.282,0.271 -0.429,0.394 -0.204,0 -0.406,0 -0.61,-0.007 0.034,-0.506 0.018,-1.037 -0.066,-1.609 -0.158,0.572 -0.363,1.102 -0.633,1.598 -0.563,1.072 -1.364,1.951 -2.408,2.648 -0.116,0.085 -0.239,0.165 -0.372,0.252 -1.149,0.829 -2.695,1.329 -4.637,1.493 -0.115,0.009 -0.226,0.036 -0.323,0.104 -0.097,0.068 -0.162,0.145 -0.216,0.252 -0.719,1.479 -1.981,2.599 -3.8,3.362 -0.558,0.164 -1.098,0.242 -1.608,0.25 -0.041,-0.009 -0.079,-0.009 -0.118,0 -1.078,-0.029 -2.04,-0.478 -2.907,-1.332 -0.291,-0.414 -0.517,-0.843 -0.666,-1.285 -0.277,-0.652 -0.4,-1.308 -0.38,-1.977 0.03,-0.678 0.12,-1.335 0.282,-1.973 0.014,-0.049 0.191,-0.486 0.536,-1.328 0.354,-0.84 1.082,-1.991 2.181,-3.451 -0.134,0.087 -0.274,0.172 -0.417,0.26 -1.661,1.055 -2.868,2.503 -3.643,4.332 -0.223,0.551 -0.35,1.151 -0.394,1.79 -0.075,0.909 0.035,1.82 0.322,2.739 0.23,0.612 0.574,1.192 1.012,1.744 0.023,0.03 0.049,0.068 0.08,0.097 0.938,0.942 1.963,1.542 3.083,1.797 -0.197,0.656 -0.327,1.247 -0.396,1.771 -0.123,1.054 -0.309,2.188 -0.574,3.387 l 0.003,0.01 c -0.233,1.083 -0.795,2.031 -1.694,2.854 -0.773,0.628 -1.878,0.536 -3.319,-0.268 -0.669,-0.551 -1.237,-1.143 -1.707,-1.791 l -0.025,-0.039 c -0.669,-0.96 -1.121,-2.034 -1.338,-3.207 -0.047,-0.279 -0.097,-0.551 -0.145,-0.833 -0.389,-2.254 -0.443,-4.47 -0.145,-6.65 0.033,-0.251 0.064,-0.503 0.095,-0.764 -0.104,0.154 -0.217,0.311 -0.319,0.475 -0.91,1.43 -1.347,3.058 -1.287,4.885 -0.005,0.175 0,0.351 0.017,0.532 0.01,0.282 0.021,0.564 0.053,0.854 0.029,0.396 0.077,0.802 0.146,1.221 0.082,0.512 0.192,1.008 0.336,1.481 -1.258,-1.561 -1.982,-3.933 -2.152,-7.108 0.03,-1.211 0.131,-2.402 0.305,-3.562 0.049,-0.271 0.109,-0.531 0.158,-0.793 l 0.009,-0.01 c 0.212,-1.104 0.546,-2.157 0.992,-3.164 l -0.002,-0.01 c 0.269,-0.629 0.57,-1.294 0.896,-2.002 1.685,-3.608 4.231,-6.168 7.652,-7.704 3.441,-1.525 7.285,-1.928 11.519,-1.214 2.458,0.505 4.959,1.409 7.494,2.7"
         id="path1189" />
      <path
         inkscape:connector-curvature="0"
         style="fill:#255f27"
         d="m 466.603,341.806 34.201,-4.695 c -0.692,14.518 1.944,25.88 7.909,34.083 0.02,0.007 0.04,0.015 0.051,0.043 0.535,0.595 1.029,1.232 1.491,1.904 3.631,4.998 5.837,11.025 6.613,18.069 1.072,9.678 -0.846,18.439 -5.752,26.283 -4.855,7.751 -11.235,12.344 -19.15,13.775 -7.896,1.404 -15.026,-0.768 -21.396,-6.506 -6.405,-5.814 -10.145,-13.564 -11.216,-23.231 -0.504,-4.534 -0.344,-8.86 0.468,-12.986 0.427,-2.098 1.037,-4.097 1.84,-6.001 0.983,-2.301 1.955,-4.579 2.907,-6.848 l 0.01,-0.02 c 3.495,-9.318 4.164,-20.608 2.024,-33.87"
         id="path1191" />
      <path
         inkscape:connector-curvature="0"
         style="fill:none;stroke:#255f27;stroke-width:1.55289996;stroke-linecap:round;stroke-linejoin:round;stroke-miterlimit:10"
         d="m 500.804,337.11 c -0.693,14.518 1.944,25.88 7.909,34.083 0.021,0.007 0.04,0.015 0.051,0.043 0.534,0.595 1.029,1.232 1.489,1.904 3.633,4.998 5.838,11.025 6.615,18.069 1.072,9.678 -0.847,18.439 -5.752,26.283 -4.855,7.751 -11.236,12.344 -19.15,13.778 -7.896,1.401 -15.026,-0.771 -21.393,-6.509 -6.408,-5.814 -10.147,-13.564 -11.219,-23.231 -0.504,-4.534 -0.343,-8.86 0.468,-12.986 0.425,-2.098 1.037,-4.097 1.84,-6.001 0.983,-2.301 1.955,-4.579 2.907,-6.848 l 0.01,-0.02 c 3.495,-9.318 4.165,-20.607 2.022,-33.87 l 34.203,-4.695 z"
         id="path1193" />
      <path
         inkscape:connector-curvature="0"
         style="fill:#9fc94c"
         d="m 467.536,342.447 32.404,-4.445 c -0.546,14.31 2.144,25.53 8.08,33.668 0.031,0.025 0.05,0.063 0.069,0.099 0.524,0.577 1.01,1.186 1.461,1.838 v 0.019 c 3.572,4.907 5.739,10.822 6.506,17.73 1.054,9.497 -0.831,18.09 -5.645,25.78 l -0.01,10e-4 c -4.696,7.512 -10.87,11.967 -18.52,13.375 -7.648,1.349 -14.565,-0.76 -20.729,-6.326 v -0.009 c -6.266,-5.711 -9.925,-13.314 -10.978,-22.802 -0.494,-4.457 -0.346,-8.704 0.454,-12.749 0.396,-2.047 0.996,-3.997 1.788,-5.853 v 0.012 c 0.972,-2.271 1.934,-4.53 2.875,-6.775 0.032,-0.044 0.053,-0.083 0.062,-0.133 3.454,-9.227 4.184,-20.366 2.183,-33.43"
         id="path1195" />
      <path
         inkscape:connector-curvature="0"
         style="fill:#5a6074"
         d="m 422.643,304.027 0.01,8.391 c 3.712,1.262 7.717,1.964 12.012,2.105 3.772,0.149 7.603,0.507 11.479,1.084 20.924,1.497 44.819,-0.05 71.688,-4.643 l -1.19,-9.475 -93.999,2.538 z"
         id="path1197" />
      <path
         inkscape:connector-curvature="0"
         style="fill:none;stroke:#737a91;stroke-width:1.54849994;stroke-linecap:round;stroke-linejoin:round;stroke-miterlimit:10"
         d="m 422.643,304.027 93.999,-2.537 1.19,9.475 c -26.868,4.593 -50.764,6.14 -71.688,4.643 -3.877,-0.577 -7.707,-0.935 -11.479,-1.084 -4.295,-0.141 -8.299,-0.843 -12.012,-2.105 l -0.01,-8.392 z"
         id="path1199" />
      <path
         inkscape:connector-curvature="0"
         style="fill:#9fc94c"
         d="m 484.278,299.86 c 1.025,-1.265 2.238,-2.34 3.64,-3.238 -5.105,-0.445 -9.662,0.412 -13.669,2.583 -2.63,-2.7 -5.528,-4.048 -8.689,-4.038 0.588,1.165 0.829,2.125 0.716,2.899 -3.244,-0.943 -6.413,-1.03 -9.491,-0.25 1.164,0.624 2.177,1.64 3.026,3.054 -4.671,1.372 -8.005,2.975 -10.02,4.812 -2.007,1.829 -3.579,3.378 -4.721,4.643 -1.13,1.273 -2.051,2.229 -2.758,2.857 -0.697,0.627 -1.427,1.19 -2.182,1.685 -0.924,0.588 -1.973,1.051 -3.137,1.396 0.46,0.574 1.307,0.953 2.541,1.136 -3.032,5.72 -5.179,8.974 -6.424,9.761 0.523,0.617 1.518,0.926 2.962,0.918 l -0.04,0.109 c -1.252,3.038 -2.406,5.205 -3.459,6.481 -1.051,1.275 -2.124,2.157 -3.238,2.652 1.177,1.265 2.474,1.984 3.875,2.165 -0.075,3.922 0.94,8.02 3.046,12.303 l 1.226,-2.018 c 0.076,0.489 0.146,0.862 0.207,1.117 0.649,2.809 1.657,5.357 3.012,7.644 0.83,1.397 1.797,2.707 2.893,3.908 1.435,1.583 2.81,2.909 4.127,3.987 l 0.475,-2.084 c 2.952,3.343 6.343,5.631 10.172,6.858 l 0.219,-1.917 c 2.713,2.312 5.481,3.723 8.304,4.223 0.354,0.048 0.706,0.099 1.05,0.15 0.361,0.019 0.709,0.011 1.057,-0.007 0.444,-0.026 0.886,-0.073 1.328,-0.136 0.189,-0.043 0.38,-0.079 0.572,-0.114 0.19,-0.045 0.381,-0.088 0.57,-0.133 4.035,-0.961 7.568,-2.978 10.59,-6.059 0.527,0.897 0.916,1.759 1.146,2.584 8.31,-2.826 13.705,-6.396 16.194,-10.697 l 1,2.945 c 6.651,-4.999 10.847,-11.335 12.591,-19.006 l 1.924,2.859 c 1.288,-2.71 1.874,-5.316 1.78,-7.839 -0.094,-2.523 -0.41,-4.174 -0.93,-4.978 2.116,-0.197 3.879,-0.95 5.3,-2.234 -3.876,-2.301 -6.901,-5.229 -9.087,-8.768 2.36,-0.072 3.912,-0.671 4.647,-1.805 -2.47,-0.337 -6.02,-2.904 -10.64,-7.703 1.421,-0.531 2.46,-1.244 3.105,-2.149 -3.317,-0.627 -5.907,-1.992 -7.781,-4.082 -4.221,-4.063 -9.901,-6.219 -17.029,-6.474"
         id="path1201" />
      <path
         inkscape:connector-curvature="0"
         style="fill:none;stroke:#255f27;stroke-width:1.54630005;stroke-linecap:square;stroke-miterlimit:10"
         d="m 484.278,299.86 c 7.128,0.255 12.808,2.41 17.028,6.476 1.874,2.09 4.464,3.455 7.781,4.082 -0.646,0.905 -1.685,1.618 -3.105,2.149 4.62,4.799 8.17,7.366 10.64,7.703 -0.735,1.134 -2.287,1.733 -4.647,1.805 2.186,3.539 5.211,6.467 9.087,8.768 -1.421,1.285 -3.184,2.037 -5.3,2.234 0.52,0.804 0.836,2.454 0.93,4.978 0.094,2.523 -0.492,5.129 -1.78,7.839 l -1.924,-2.859 c -1.744,7.671 -5.939,14.008 -12.591,19.006 l -1,-2.945 c -2.489,4.3 -7.885,7.871 -16.194,10.697 -0.229,-0.825 -0.618,-1.687 -1.146,-2.584 -3.021,3.081 -6.555,5.098 -10.59,6.059 -0.189,0.044 -0.38,0.087 -0.57,0.133 -0.192,0.035 -0.383,0.07 -0.572,0.114 -0.442,0.063 -0.884,0.109 -1.328,0.136 -0.348,0.018 -0.695,0.026 -1.057,0.007 -0.344,-0.051 -0.695,-0.102 -1.05,-0.15 -2.822,-0.5 -5.591,-1.911 -8.304,-4.223 l -0.219,1.917 c -3.829,-1.227 -7.22,-3.516 -10.172,-6.858 l -0.475,2.084 c -1.317,-1.078 -2.692,-2.404 -4.127,-3.987 -1.096,-1.201 -2.062,-2.51 -2.893,-3.908 -1.354,-2.287 -2.362,-4.835 -3.012,-7.644 -0.061,-0.255 -0.131,-0.628 -0.207,-1.117 l -1.226,2.018 c -2.105,-4.283 -3.121,-8.381 -3.046,-12.303 -1.401,-0.18 -2.698,-0.9 -3.875,-2.165 1.114,-0.495 2.188,-1.376 3.238,-2.652 1.053,-1.277 2.207,-3.443 3.459,-6.481 l 0.04,-0.109 c -1.444,0.007 -2.438,-0.301 -2.962,-0.918 1.245,-0.788 3.392,-4.042 6.424,-9.761 -1.234,-0.183 -2.081,-0.562 -2.541,-1.136 1.164,-0.345 2.213,-0.807 3.137,-1.396 0.755,-0.495 1.484,-1.058 2.182,-1.685 0.707,-0.628 1.628,-1.584 2.758,-2.857 1.142,-1.265 2.714,-2.814 4.721,-4.643 2.015,-1.837 5.349,-3.44 10.02,-4.812 -0.85,-1.415 -1.862,-2.43 -3.026,-3.054 3.078,-0.779 6.247,-0.692 9.491,0.25 0.113,-0.774 -0.128,-1.734 -0.716,-2.899 3.161,-0.01 6.06,1.338 8.689,4.038 4.007,-2.172 8.563,-3.029 13.669,-2.583 -1.4,0.896 -2.613,1.972 -3.639,3.236 z"
         id="path1203" />
      <path
         inkscape:connector-curvature="0"
         style="fill:#1f1a1a"
         d="m 480.749,337.081 c -0.046,0.014 -0.094,0.027 -0.141,0.04 -0.37,2.889 -1.54,5.37 -3.499,7.435 -2.363,2.477 -5.273,4.027 -8.724,4.652 -3.449,0.632 -6.453,0.156 -9.016,-1.443 -2.538,-1.563 -3.879,-3.784 -4.001,-6.653 -0.015,-0.299 -0.019,-0.6 -0.022,-0.88 -5.493,0.031 -11.107,-0.326 -16.84,-1.081 5.04,14.675 14.49,20.728 28.333,18.152 15.276,-2.839 25.849,-11.661 31.72,-26.45 -5.762,2.631 -11.698,4.704 -17.81,6.228"
         id="path1205" />
      <path
         inkscape:connector-curvature="0"
         style="fill:#d9382a"
         d="m 480.608,337.121 c -0.304,0.073 -0.608,0.154 -0.922,0.229 -7.499,1.781 -15.257,2.739 -23.274,2.874 -0.357,0 -0.707,0.008 -1.063,0.007 0.002,0.281 0.007,0.582 0.021,0.88 0.121,2.87 1.462,5.09 4.001,6.653 2.562,1.599 5.565,2.076 9.015,1.443 3.45,-0.625 6.36,-2.176 8.724,-4.652 1.956,-2.065 3.128,-4.545 3.498,-7.434"
         id="path1207" />
      <path
         inkscape:connector-curvature="0"
         style="fill:none;stroke:#1f1a1a;stroke-width:0.0095;stroke-linecap:round;stroke-linejoin:round;stroke-miterlimit:10"
         d="m 455.349,340.231 c -5.496,0.032 -11.109,-0.327 -16.841,-1.081 5.038,14.675 14.489,20.728 28.332,18.149 15.276,-2.837 25.85,-11.659 31.721,-26.447 -5.764,2.631 -11.699,4.705 -17.812,6.229 -0.046,0.013 -0.094,0.026 -0.141,0.041"
         id="path1209" />
      <path
         inkscape:connector-curvature="0"
         style="fill:none;stroke:#d9382a;stroke-width:0.0095;stroke-linecap:round;stroke-linejoin:round;stroke-miterlimit:10"
         d="m 479.687,337.35 c -7.499,1.781 -15.257,2.739 -23.274,2.874 -0.357,0 -0.707,0.008 -1.063,0.007 0.002,0.281 0.006,0.582 0.021,0.881 0.122,2.869 1.463,5.089 4.001,6.652 2.562,1.597 5.566,2.076 9.016,1.442 3.45,-0.624 6.36,-2.175 8.724,-4.651 1.959,-2.066 3.129,-4.544 3.499,-7.434 -0.305,0.072 -0.61,0.154 -0.924,0.229 z"
         id="path1211" />
      <path
         inkscape:connector-curvature="0"
         style="fill:#ffffff"
         d="m 446.186,315.291 c 2.41,-0.647 4.698,-0.287 6.855,1.093 2.154,1.37 3.542,3.353 4.167,5.95 0.624,2.598 0.315,5.046 -0.945,7.338 -1.282,2.302 -3.123,3.776 -5.533,4.425 -2.401,0.637 -4.68,0.266 -6.827,-1.123 -2.157,-1.371 -3.546,-3.364 -4.169,-5.961 -0.625,-2.597 -0.315,-5.035 0.947,-7.317 1.261,-2.301 3.101,-3.777 5.505,-4.405"
         id="path1213" />
      <path
         inkscape:connector-curvature="0"
         style="fill:#ffffff"
         d="m 478.08,314.386 c 2.288,1.36 3.766,3.345 4.44,5.938 0.659,2.585 0.302,5.028 -1.063,7.337 -1.379,2.311 -3.362,3.798 -5.957,4.461 -2.575,0.66 -5.021,0.292 -7.32,-1.085 -2.31,-1.367 -3.795,-3.343 -4.457,-5.927 -0.662,-2.593 -0.306,-5.046 1.081,-7.347 1.368,-2.312 3.343,-3.787 5.92,-4.429 2.594,-0.662 5.046,-0.305 7.356,1.052 l 0,0 z"
         id="path1215" />
      <path
         inkscape:connector-curvature="0"
         style="fill:#1f1a1a"
         d="m 441.062,322.401 c 0.612,-0.96 1.452,-1.542 2.525,-1.758 1.078,-0.218 2.075,-0.005 2.994,0.639 0.918,0.653 1.478,1.54 1.693,2.669 0.214,1.129 0.019,2.168 -0.588,3.128 -0.613,0.96 -1.455,1.542 -2.527,1.759 -1.074,0.216 -2.061,0.003 -2.979,-0.641 -0.919,-0.645 -1.479,-1.531 -1.692,-2.669 -0.222,-1.128 -0.032,-2.167 0.574,-3.127"
         id="path1217" />
      <path
         inkscape:connector-curvature="0"
         style="fill:#1f1a1a"
         d="m 463.78,321.423 c 0.429,-1.08 1.17,-1.841 2.228,-2.297 1.063,-0.458 2.131,-0.475 3.206,-0.052 1.08,0.429 1.841,1.172 2.296,2.228 0.456,1.056 0.471,2.117 0.05,3.194 -0.429,1.079 -1.172,1.838 -2.228,2.294 -1.058,0.457 -2.117,0.472 -3.194,0.05 -1.079,-0.423 -1.838,-1.165 -2.297,-2.229 -0.462,-1.053 -0.485,-2.111 -0.061,-3.188"
         id="path1219" />
      <path
         inkscape:connector-curvature="0"
         style="fill:#c16513"
         d="m 457.837,313.212 c 0.242,0.125 0.464,0.224 0.671,0.276 0.039,0.006 0.079,0.022 0.128,0.029 0.195,0.022 0.331,0.031 0.409,0.024 0.049,-0.004 0.106,-0.009 0.155,-0.012 0.142,-0.03 0.264,-0.089 0.363,-0.165 0.147,-0.109 0.292,-0.217 0.43,-0.315 4.44,-3.195 7.495,-5.242 9.18,-6.123 1.77,-0.936 3.039,-1.145 3.828,-0.616 0.799,0.508 1.126,1.209 0.993,2.122 1.518,-0.083 2.668,-0.126 3.443,-0.12 1.039,0.004 2.021,0.053 2.947,0.125 3.443,0.268 6.224,0.967 8.342,2.097 3.108,1.653 4.764,2.849 4.97,3.599 0.224,0.729 -0.802,1.16 -3.06,1.282 2.073,1.424 3.805,3.205 5.198,5.354 0.675,1.041 1.002,1.869 1.004,2.479 -0.016,0.079 -0.03,0.156 -0.042,0.245 -0.005,0.048 -0.012,0.088 -0.027,0.128 -0.024,0.07 -0.059,0.121 -0.102,0.173 -0.118,0.137 -0.252,0.244 -0.401,0.343 -0.251,0.126 -0.515,0.224 -0.79,0.305 -0.217,0.085 -0.434,0.15 -0.66,0.218 -3.657,0.951 -7.323,1.184 -11.006,0.703 -0.237,-0.029 -0.656,-0.083 -1.264,-0.16 -0.131,-0.649 -0.227,-1.127 -0.279,-1.423 -0.135,-0.726 -0.328,-1.438 -0.587,-2.125 -0.123,-0.331 -0.254,-0.648 -0.408,-0.967 -0.289,-0.616 -0.617,-1.2 -1.002,-1.762 -0.384,-0.561 -0.802,-1.061 -1.273,-1.509 -0.356,-0.35 -0.73,-0.658 -1.111,-0.938 -0.629,-0.453 -1.312,-0.768 -2.053,-0.932 -0.722,-0.165 -1.461,-0.193 -2.217,-0.065 -0.688,0.123 -1.368,0.322 -2.057,0.6 -0.706,0.26 -1.398,0.559 -2.08,0.903 -0.401,0.196 -0.789,0.422 -1.169,0.666 -0.598,0.387 -1.197,0.783 -1.783,1.198 -0.523,0.381 -1.045,0.763 -1.566,1.163 -0.283,0.207 -0.578,0.423 -0.87,0.632 -0.495,0.359 -1.001,0.691 -1.521,0.985 -0.615,0.329 -1.265,0.564 -1.941,0.717 -0.543,0.111 -1.089,0.193 -1.638,0.236 -0.04,-0.006 -0.078,-0.003 -0.116,0 -0.049,0.004 -0.087,0.008 -0.135,0.01 -0.495,0.012 -0.944,-0.031 -1.359,-0.133 -0.652,-0.142 -1.279,-0.363 -1.876,-0.674 -0.618,-0.329 -1.226,-0.649 -1.834,-0.969 -0.549,-0.314 -1.104,-0.619 -1.684,-0.932 -0.607,-0.329 -1.23,-0.609 -1.882,-0.858 -0.489,-0.194 -0.996,-0.357 -1.501,-0.49 -0.528,-0.163 -1.071,-0.284 -1.619,-0.366 -0.48,-0.059 -0.961,-0.108 -1.456,-0.136 -0.358,0 -0.726,0.029 -1.088,0.106 -0.2,0.035 -0.392,0.081 -0.59,0.144 -0.512,0.148 -0.986,0.389 -1.417,0.715 -0.872,0.718 -1.512,1.594 -1.902,2.633 -0.528,1.41 -0.812,2.575 -0.845,3.519 -0.03,0.943 0.013,1.628 0.136,2.065 0.121,0.427 0.234,0.765 0.342,1.01 l -2.935,1.145 c -0.842,0.243 -1.921,0.443 -3.229,0.607 -0.752,0.049 -1.527,0.033 -2.32,-0.068 -0.773,-0.073 -1.211,-0.465 -1.325,-1.183 -0.16,-0.763 0.034,-1.855 0.582,-3.265 0.81,-2.111 1.677,-3.895 2.618,-5.338 -0.35,0.115 -0.779,0.082 -1.287,-0.092 -0.809,-0.285 -1.092,-0.795 -0.849,-1.521 0.321,-0.713 0.773,-1.371 1.336,-1.969 0.17,-0.178 0.331,-0.345 0.501,-0.515 2.589,-2.572 5.869,-4.347 9.854,-5.325 0.048,-0.011 0.095,-0.024 0.144,-0.039 0.068,-0.598 0.272,-1.204 0.6,-1.824 0.362,-0.697 1.075,-0.88 2.14,-0.538 2.729,0.917 5.371,1.938 7.913,3.062 1.155,0.509 2.284,1.04 3.403,1.59 0.13,0.059 0.252,0.125 0.373,0.184 0.051,0.025 0.101,0.05 0.153,0.075"
         id="path1221" />
      <path
         inkscape:connector-curvature="0"
         style="fill:#c6cee3"
         d="m 481.767,280.85 c -0.013,-0.717 -0.219,-1.312 -0.639,-1.78 -0.075,-0.082 -0.16,-0.161 -0.254,-0.24 -0.409,-0.354 -0.826,-0.589 -1.256,-0.708 -0.168,-0.044 -0.345,-0.066 -0.521,-0.08 -0.606,-0.055 -1.431,-0.022 -2.467,0.106 -1.48,0.176 -2.919,0.613 -4.306,1.316 -0.355,0.167 -0.71,0.323 -1.076,0.471 -0.367,0.139 -0.724,0.276 -1.064,0.394 -1.102,0.377 -2.352,0.66 -3.735,0.829 -0.675,0.068 -1.237,0.164 -1.705,0.274 -0.896,0.204 -1.6,0.586 -2.125,1.136 -0.534,0.561 -0.807,1.361 -0.821,2.412 l 0.073,11.61 c 0.007,0.846 0.298,1.52 0.878,2.042 0.177,0.14 0.351,0.251 0.535,0.341 0.241,0.116 0.5,0.19 0.777,0.225 0.264,0.026 0.546,0.021 0.825,-0.013 0.153,-0.023 0.304,-0.055 0.446,-0.096 0.653,-0.184 1.205,-0.552 1.671,-1.107 0.074,-0.074 0.136,-0.146 0.186,-0.22 0.481,-0.614 0.714,-1.304 0.707,-2.052 l -0.124,-9.605 c -0.578,0.175 -1.146,0.351 -1.723,0.529 0.577,-0.178 1.145,-0.354 1.723,-0.529 0.943,-0.305 1.888,-0.611 2.845,-0.917 1.389,-0.451 3.115,-0.805 5.201,-1.063 -0.053,-0.705 -0.124,-1.417 -0.206,-2.149 0.082,0.731 0.153,1.444 0.206,2.149 0.311,3.704 0.306,6.878 -0.02,9.531 0.005,0.845 0.287,1.519 0.867,2.022 0.586,0.504 1.301,0.693 2.147,0.571 0.832,-0.121 1.536,-0.521 2.109,-1.191 0.601,-0.685 0.904,-1.439 0.898,-2.284 0.229,-3.779 0.204,-7.749 -0.052,-11.924"
         id="path1223" />
      <path
         inkscape:connector-curvature="0"
         style="fill:none;stroke:#737a91;stroke-width:1.54849994;stroke-linecap:round;stroke-linejoin:round;stroke-miterlimit:10"
         d="m 475.816,284.125 c 0.312,3.704 0.306,6.879 -0.021,9.531 0.007,0.843 0.289,1.519 0.868,2.022 0.587,0.504 1.302,0.694 2.148,0.572 0.832,-0.122 1.536,-0.522 2.109,-1.192 0.601,-0.686 0.904,-1.439 0.898,-2.285 0.228,-3.778 0.205,-7.749 -0.054,-11.923 -0.012,-0.717 -0.219,-1.312 -0.639,-1.78 -0.075,-0.082 -0.16,-0.161 -0.254,-0.24 -0.408,-0.354 -0.827,-0.589 -1.256,-0.708 -0.169,-0.043 -0.345,-0.067 -0.521,-0.08 -0.606,-0.055 -1.431,-0.022 -2.467,0.107 -1.481,0.176 -2.919,0.612 -4.306,1.315 -0.354,0.167 -0.712,0.324 -1.076,0.472 -0.367,0.14 -0.724,0.276 -1.064,0.394 -1.104,0.377 -2.353,0.661 -3.734,0.83 -0.676,0.067 -1.24,0.165 -1.706,0.273 -0.896,0.205 -1.6,0.587 -2.125,1.138 -0.534,0.56 -0.807,1.36 -0.821,2.411 l 0.075,11.611 c 0.005,0.845 0.295,1.519 0.874,2.042 0.179,0.139 0.353,0.251 0.537,0.341 0.243,0.116 0.5,0.19 0.777,0.224 0.264,0.026 0.545,0.022 0.825,-0.011 0.153,-0.024 0.304,-0.057 0.446,-0.098 0.653,-0.184 1.205,-0.551 1.671,-1.107 0.074,-0.074 0.136,-0.146 0.187,-0.22 0.48,-0.614 0.713,-1.305 0.706,-2.053 l -0.124,-9.605 m 7.842,-4.129 c 0.082,0.731 0.153,1.442 0.205,2.148 m -8.045,1.979 c 0.944,-0.304 1.889,-0.611 2.845,-0.917 1.386,-0.451 3.115,-0.805 5.2,-1.062 m -9.767,2.508 c 0.577,-0.177 1.145,-0.352 1.723,-0.529"
         id="path1225" />
      <path
         inkscape:connector-curvature="0"
         style="fill:#b0b6d5"
         d="m 482.555,291.7 c -3.219,0.852 -6.858,1.245 -10.916,1.17 -6.58,-0.721 -12.699,-0.745 -18.382,-0.067 -5.682,0.677 -10.969,1.417 -15.881,2.222 -4.914,0.806 -9.236,1.714 -12.947,2.724 -2.186,2.104 -2.974,4.775 -2.354,8.005 0.001,0.02 0.004,0.047 0.016,0.075 0.019,0.105 0.029,0.222 0.039,0.348 0.005,0.165 0.011,0.348 0.021,0.551 0.004,0.612 -0.052,1.218 -0.146,1.81 -0.19,1.717 -0.043,2.966 0.443,3.77 8.662,-1.937 16.225,-3.321 22.7,-4.163 5.253,-0.689 9.012,-1.122 11.28,-1.291 1.687,-0.039 3.366,-0.166 5.037,-0.396 0.441,-0.068 0.881,-0.145 1.321,-0.212 1.939,-0.266 3.796,-0.466 5.561,-0.608 1.074,-0.054 2.141,-0.069 3.211,-0.046 1.835,-0.014 3.648,-0.19 5.455,-0.521 1.914,-0.312 3.845,-0.557 5.792,-0.735 2.14,-0.195 4.27,-0.264 6.401,-0.206 2.071,0.024 4.115,0.178 6.15,0.457 1.11,0.147 2.214,0.323 3.318,0.529 2.169,0.375 4.32,0.878 6.453,1.499 2.045,0.62 4.094,1.268 6.144,1.944 2.08,0.694 4.143,1.419 6.2,2.163 0.14,0.056 0.28,0.102 0.421,0.157 0.461,-1.069 0.599,-2.616 0.424,-4.631 -0.014,-0.144 -0.023,-0.278 -0.047,-0.413 -0.064,-0.645 -0.117,-1.174 -0.168,-1.607 -0.002,-0.01 -0.002,-0.01 -0.002,-0.019 -0.029,-0.26 -0.05,-0.481 -0.074,-0.655 -0.04,-0.345 -0.08,-0.681 -0.107,-1.02 -0.152,-1.396 -0.271,-2.569 -0.384,-3.512 -0.032,-0.24 -0.05,-0.472 -0.08,-0.703 -0.016,-0.077 -0.022,-0.154 -0.03,-0.23 -0.288,-1.315 -0.89,-2.089 -1.795,-2.331 -0.048,-0.025 -0.111,-0.049 -0.17,-0.072 -3.585,-1.458 -7.427,-2.639 -11.526,-3.537 l -6.074,-1.28 c -3.595,-0.69 -8.702,-0.412 -15.304,0.831"
         id="path1227" />
      <path
         inkscape:connector-curvature="0"
         style="fill:none;stroke:#737a91;stroke-width:1.54849994;stroke-linecap:round;stroke-linejoin:round;stroke-miterlimit:10"
         d="m 482.555,291.7 c 6.603,-1.243 11.709,-1.521 15.304,-0.832 l 6.074,1.28 c 4.098,0.897 7.941,2.079 11.526,3.537 0.059,0.023 0.122,0.047 0.17,0.072 0.905,0.242 1.507,1.016 1.795,2.331 0.008,0.076 0.014,0.153 0.03,0.23 0.03,0.231 0.048,0.463 0.08,0.703 0.112,0.943 0.231,2.117 0.384,3.512 0.027,0.338 0.066,0.675 0.107,1.02 0.024,0.174 0.045,0.395 0.074,0.655 0,0.009 0,0.009 0.002,0.019 0.051,0.434 0.104,0.962 0.168,1.607 0.023,0.135 0.033,0.269 0.047,0.413 0.175,2.015 0.037,3.562 -0.424,4.631 -0.141,-0.056 -0.281,-0.102 -0.421,-0.157 -2.058,-0.744 -4.12,-1.469 -6.2,-2.163 -2.05,-0.676 -4.099,-1.324 -6.144,-1.944 -2.133,-0.621 -4.284,-1.125 -6.453,-1.499 -1.104,-0.206 -2.208,-0.382 -3.318,-0.529 -2.036,-0.278 -4.079,-0.433 -6.15,-0.457 -2.132,-0.058 -4.262,0.011 -6.401,0.206 -1.947,0.178 -3.878,0.423 -5.792,0.735 -1.807,0.331 -3.62,0.507 -5.455,0.521 -1.07,-0.023 -2.137,-0.008 -3.211,0.046 -1.765,0.142 -3.621,0.342 -5.561,0.608 -0.44,0.067 -0.88,0.144 -1.321,0.212 -1.671,0.231 -3.351,0.358 -5.037,0.396 -2.269,0.168 -6.027,0.601 -11.28,1.291 -6.475,0.842 -14.038,2.226 -22.7,4.163 -0.486,-0.803 -0.633,-2.053 -0.443,-3.77 0.094,-0.592 0.149,-1.198 0.146,-1.81 -0.01,-0.203 -0.017,-0.386 -0.021,-0.551 -0.01,-0.126 -0.021,-0.243 -0.039,-0.348 -0.012,-0.028 -0.015,-0.056 -0.017,-0.075 -0.619,-3.229 0.169,-5.901 2.355,-8.005 3.71,-1.01 8.033,-1.918 12.947,-2.724 4.912,-0.805 10.199,-1.545 15.881,-2.222 5.683,-0.678 11.802,-0.654 18.382,0.067 4.057,0.076 7.697,-0.317 10.916,-1.169 z"
         id="path1229" />
      <path
         inkscape:connector-curvature="0"
         style="fill:#9fc94c"
         d="m 473.968,364.097 c 4.487,-1.61 9.528,-1.854 15.137,-0.733 7.895,2.151 13.656,7.065 17.294,14.726 0.4,0.959 0.788,2.306 1.15,4.02 l -11.938,-0.016 c 0.222,-1.153 0.342,-2.431 0.37,-3.853 -0.028,1.422 -0.148,2.699 -0.37,3.853 -0.578,2.998 -1.807,5.089 -3.695,6.266 -0.454,0.194 -0.9,0.329 -1.349,0.405 -0.845,0.164 -1.696,0.113 -2.561,-0.168 -0.235,-0.077 -0.46,-0.175 -0.675,-0.282 -0.613,-0.329 -1.117,-0.807 -1.504,-1.416 -0.465,-0.744 -0.742,-1.558 -0.854,-2.42 -0.085,-0.698 -0.119,-1.403 -0.086,-2.12 0.002,-0.201 0.012,-0.396 0.021,-0.598 -0.01,0.201 -0.02,0.396 -0.021,0.598 -0.033,0.717 10e-4,1.422 0.086,2.12 0.112,0.862 0.39,1.676 0.854,2.42 0.387,0.609 0.891,1.087 1.504,1.416 -0.146,0.747 -0.333,1.48 -0.562,2.198 -0.71,2.186 -2.217,3.733 -4.494,4.647 -0.872,0.252 -1.704,0.212 -2.497,-0.118 -0.733,-0.398 -1.374,-0.875 -1.936,-1.443 -0.086,-0.091 -0.177,-0.186 -0.255,-0.272 -0.11,-0.117 -0.209,-0.234 -0.3,-0.349 -0.078,-0.088 -0.144,-0.187 -0.22,-0.273 -0.059,-0.076 -0.103,-0.153 -0.159,-0.23 -0.417,-0.62 -0.784,-1.318 -1.083,-2.083 -0.539,-1.455 -0.839,-3.176 -0.877,-5.183 0.038,2.007 0.338,3.728 0.877,5.183 0.299,0.765 0.666,1.463 1.083,2.083 0.057,0.077 0.101,0.154 0.159,0.23 -0.452,0.495 -0.692,0.753 -0.723,0.784 -0.041,0.03 -0.07,0.067 -0.101,0.107 -1.359,1.283 -2.988,1.719 -4.899,1.279 -2.63,-0.963 -4.303,-2.862 -5.021,-5.677 -0.293,-1.396 -0.471,-2.742 -0.54,-4.038 -0.064,-1.191 -0.022,-2.353 0.114,-3.467 l -10e-4,-0.02 c 0.027,-0.135 0.041,-0.271 0.057,-0.397 0.089,-0.6 0.209,-1.189 0.35,-1.769 0.062,-0.271 0.144,-0.544 0.227,-0.815 -0.083,0.271 -0.164,0.545 -0.227,0.815 -0.141,0.579 -0.261,1.169 -0.35,1.769 -0.016,0.127 -0.029,0.263 -0.057,0.397 -0.61,-0.048 -1.142,-0.174 -1.593,-0.399 -0.377,-0.182 -0.691,-0.415 -0.947,-0.716 -0.333,-0.389 -0.575,-0.871 -0.737,-1.444 -0.542,-3.118 0.189,-5.982 2.182,-8.592 0.01,-0.02 0.029,-0.039 0.039,-0.059 l 0.327,-0.405 c 0.031,-0.04 0.072,-0.078 0.102,-0.116 2.136,-2.563 5.03,-4.505 8.699,-5.845"
         id="path1231" />
      <path
         inkscape:connector-curvature="0"
         style="fill:none;stroke:#255f27;stroke-width:1.55069995;stroke-linecap:round;stroke-linejoin:round;stroke-miterlimit:10"
         d="m 495.983,378.241 c -0.03,1.422 -0.15,2.699 -0.371,3.853 m -29.713,-0.42 10e-4,0.02 c -0.138,1.114 -0.181,2.275 -0.113,3.467 0.068,1.296 0.246,2.643 0.541,4.038 0.716,2.814 2.389,4.714 5.019,5.677 1.911,0.439 3.54,0.004 4.901,-1.279 0.028,-0.04 0.058,-0.077 0.098,-0.107 0.03,-0.031 0.271,-0.289 0.724,-0.784 m -10.538,-14.013 c -0.083,0.271 -0.163,0.544 -0.227,0.814 -0.142,0.577 -0.262,1.169 -0.35,1.769 -0.016,0.127 -0.029,0.263 -0.057,0.397 m 11.171,11.031 c 0.077,0.087 0.143,0.186 0.221,0.273 0.09,0.114 0.188,0.231 0.299,0.349 0.079,0.087 0.169,0.182 0.255,0.272 0.562,0.569 1.203,1.045 1.936,1.443 0.793,0.33 1.624,0.37 2.497,0.118 2.279,-0.914 3.783,-2.462 4.494,-4.649 0.229,-0.716 0.416,-1.449 0.562,-2.196 m -12.383,-3.106 c 0.04,2.007 0.338,3.728 0.878,5.183 0.297,0.765 0.666,1.463 1.081,2.083 0.058,0.077 0.104,0.154 0.16,0.23 m 10.263,-4.39 0,0 c 0.216,0.107 0.439,0.205 0.675,0.282 0.864,0.281 1.716,0.332 2.561,0.168 0.448,-0.076 0.895,-0.211 1.349,-0.405 1.889,-1.177 3.117,-3.268 3.696,-6.266 m -10.704,-0.332 c -0.01,0.201 -0.02,0.395 -0.021,0.598 -0.033,0.717 0.002,1.422 0.085,2.12 0.113,0.862 0.391,1.676 0.855,2.42 0.387,0.609 0.891,1.087 1.504,1.416 m 8.28,-6.221 11.937,0.016 c -0.362,-1.714 -0.75,-3.061 -1.15,-4.02 -3.637,-7.662 -9.399,-12.576 -17.294,-14.726 -5.608,-1.121 -10.649,-0.876 -15.137,0.734 -3.669,1.339 -6.562,3.281 -8.696,5.845 -0.029,0.037 -0.07,0.076 -0.101,0.116 l -0.328,0.405 c -0.01,0.021 -0.029,0.039 -0.039,0.059 -1.991,2.609 -2.724,5.474 -2.182,8.593 0.162,0.572 0.404,1.055 0.737,1.443 0.256,0.301 0.57,0.534 0.947,0.716 0.451,0.226 0.982,0.352 1.593,0.399"
         id="path1233" />
      <path
         inkscape:connector-curvature="0"
         style="fill:#b0b6d5"
         d="m 508.495,404.112 c -0.529,0.132 -0.774,0.643 -0.745,1.545 l 0.3,12.854 c 0.02,0.881 0.294,1.403 0.822,1.564 l 9.407,0.088 -0.331,4.627 -8.961,-0.09 c -3.844,0.136 -5.83,-1.941 -5.938,-6.235 l -0.297,-12.862 c -0.097,-4.295 1.783,-6.339 5.639,-6.135 l 7.242,0.079 -0.343,4.632 -6.795,-0.067 z"
         id="path1235" />
      <path
         inkscape:connector-curvature="0"
         style="fill:none;stroke:#737a91;stroke-width:1.51629996;stroke-linecap:round;stroke-linejoin:round;stroke-miterlimit:10"
         d="m 518.279,420.163 -9.406,-0.089 c -0.529,-0.16 -0.804,-0.683 -0.823,-1.563 l -0.3,-12.854 c -0.029,-0.902 0.216,-1.413 0.745,-1.545 l 6.795,0.066 0.343,-4.632 -7.242,-0.079 c -3.855,-0.204 -5.735,1.84 -5.639,6.135 l 0.297,12.862 c 0.108,4.294 2.095,6.371 5.938,6.235 l 8.961,0.09"
         id="path1237" />
      <polygon
         style="fill:#c6cee3"
         points="528.733,406.68 512.778,406.658 512.791,397.048 518.556,397.056 528.747,397.069 "
         id="polygon1239" />
      <polygon
         style="fill:#c6cee3"
         points="528.733,406.68 528.733,406.833 518.542,406.819 512.778,406.812 512.778,406.658 "
         id="polygon1241" />
      <path
         inkscape:connector-curvature="0"
         style="fill:none;stroke:#737a91;stroke-width:1.51629996;stroke-linecap:round;stroke-linejoin:round;stroke-miterlimit:10"
         d="m 512.778,406.658 0.013,-9.61 5.765,0.008 10.191,0.014 -0.014,9.61 m 0,0 v 0.153 l -10.191,-0.014 -5.764,-0.008 v -0.153 m 15.955,0.022 -15.955,-0.021"
         id="path1243" />
      <path
         inkscape:connector-curvature="0"
         style="fill:#b0b6d5"
         d="m 527.805,399.58 c 0.236,0 0.45,0.03 0.651,0.087 h -0.335 c -0.418,0.104 -0.807,0.318 -1.144,0.652 -0.511,0.48 -0.786,1.042 -0.841,1.677 -0.051,0.642 0.154,1.192 0.591,1.649 0.123,0.112 0.274,0.218 0.459,0.302 0.318,0.165 0.835,0.275 1.54,0.364 l -0.979,-0.012 c -0.702,-0.086 -1.225,-0.2 -1.539,-0.362 -0.185,-0.085 -0.337,-0.19 -0.46,-0.304 -0.438,-0.455 -0.641,-1.005 -0.587,-1.649 0.049,-0.635 0.326,-1.195 0.839,-1.676 0.334,-0.334 0.722,-0.552 1.14,-0.653 0.216,-0.055 0.43,-0.084 0.665,-0.075"
         id="path1245" />
      <path
         inkscape:connector-curvature="0"
         style="fill:#b0b6d5"
         d="m 528.12,399.667 h 0.335 l 1.664,0.02 c 3.124,-0.1 4.988,1.003 5.596,3.307 0.132,0.597 0.224,1.309 0.275,2.141 0.059,0.447 0.078,1.292 0.056,2.534 -0.098,3.971 0.009,7.677 0.323,11.128 0.104,4.283 -1.773,6.329 -5.65,6.123 l -12.771,-0.129 0.331,-4.627 12.323,0.122 c 0.539,-0.133 0.805,-0.645 0.786,-1.546 l -0.318,-12.851 c -0.03,-0.911 -0.314,-1.434 -0.864,-1.567 l -1.481,-0.01 c -0.703,-0.089 -1.223,-0.199 -1.538,-0.364 -0.185,-0.084 -0.336,-0.189 -0.459,-0.302 -0.436,-0.457 -0.641,-1.008 -0.591,-1.649 0.055,-0.635 0.33,-1.196 0.841,-1.677 0.336,-0.334 0.725,-0.549 1.142,-0.653"
         id="path1247" />
      <path
         inkscape:connector-curvature="0"
         style="fill:none;stroke:#737a91;stroke-width:1.51629996;stroke-linecap:round;stroke-linejoin:round;stroke-miterlimit:10"
         d="m 528.727,404.312 c -0.705,-0.089 -1.222,-0.199 -1.54,-0.364 -0.185,-0.084 -0.336,-0.189 -0.459,-0.302 -0.436,-0.457 -0.641,-1.008 -0.591,-1.649 0.055,-0.635 0.33,-1.196 0.841,-1.677 0.337,-0.334 0.726,-0.549 1.144,-0.652 h 0.335 l 1.663,0.02 c 3.124,-0.1 4.988,1.003 5.596,3.307 0.132,0.597 0.224,1.309 0.275,2.141 0.059,0.447 0.079,1.292 0.056,2.534 -0.098,3.971 0.01,7.677 0.323,11.128 0.104,4.283 -1.773,6.329 -5.65,6.123 l -12.771,-0.129 m 0.33,-4.629 12.323,0.122 c 0.54,-0.133 0.805,-0.645 0.787,-1.546 l -0.319,-12.851 c -0.029,-0.911 -0.314,-1.434 -0.864,-1.567 l -1.479,-0.01 m -0.98,-0.011 0.979,0.012"
         id="path1249" />
      <path
         inkscape:connector-curvature="0"
         style="fill:#b0b6d5"
         d="m 535.961,380.316 c -0.192,-0.141 -0.396,-0.266 -0.601,-0.389 -0.232,-0.122 -0.47,-0.229 -0.714,-0.295 -0.326,-0.065 -0.653,-0.113 -0.988,-0.144 l -0.613,0.009 c -1.642,-0.012 -3.816,-0.11 -6.528,-0.273 l -3.714,0.022 c -0.652,-0.01 -1.326,-0.019 -2.019,-0.029 -0.419,-0.021 -0.868,-0.039 -1.326,-0.052 -0.693,-0.028 -1.429,-0.059 -2.206,-0.077 -0.314,-0.011 -0.569,-0.021 -0.773,-0.012 -0.111,0 -1.051,-0.001 -2.836,0.006 -1.378,0.007 -3.244,0.004 -5.621,0.011 -4.906,0.012 -9.825,0.093 -14.731,0.246 -0.511,-10e-4 -2.021,0.073 -4.541,0.212 -2.52,0.138 -4.845,0.201 -6.977,0.198 -1.073,-0.002 -2.969,-0.155 -5.711,-0.453 -2.745,-0.308 -4.97,-0.396 -6.674,-0.256 -1.703,0.14 -3.49,0.195 -5.336,0.174 -0.824,-0.01 -2.724,-0.004 -5.702,0.029 -1.99,0.026 -4.446,0.06 -7.385,0.103 -1.419,0.017 -2.95,0.043 -4.591,0.07 -0.521,0.01 -1.052,0.018 -1.593,0.027 -0.785,0.008 -1.604,0.025 -2.448,0.034 -0.224,0.112 -0.468,0.272 -0.734,0.49 -0.858,0.692 -1.288,1.508 -1.29,2.444 l -0.003,2.343 c -10e-4,1.069 0.405,1.98 1.221,2.731 0.337,0.313 0.907,0.599 1.692,0.843 l 1.387,0.288 0.123,0.019 h 0.356 l 23.066,0.005 c 0.061,0.008 0.193,0.018 0.406,0.028 0.96,0.058 3.48,0.175 7.57,0.344 2.5,0.105 4.966,0.204 7.404,0.293 h 0.032 0.03 0.02 0.032 0.031 0.031 0.027 0.032 0.03 0.03 0.03 l 7.622,-0.436 c 0.256,-0.026 0.511,-0.047 0.766,-0.063 l -0.091,-0.002 c -0.205,-0.01 -0.114,-0.01 0.284,-0.009 -0.01,0 -0.031,0 -0.051,0.011 h 0.051 c 0.071,-0.011 0.134,-0.011 0.195,-0.011 1.294,-0.043 2.662,-0.07 4.109,-0.098 3.459,-0.062 7.356,-0.057 11.681,-0.002 l 14.119,0.35 c 0.084,-0.009 0.164,-0.009 0.244,-0.009 l 0.185,10e-4 c 1.011,-0.028 2.01,-0.036 3.021,-0.025 0.865,10e-4 1.742,0.023 2.61,0.071 l 3.386,0.006 c 0.153,-0.012 0.297,-0.02 0.439,-0.02 0.093,-0.011 0.195,-0.01 0.285,-0.01 0.092,-0.01 0.195,-0.01 0.286,-0.01 0.071,-0.008 0.135,-0.008 0.204,-0.018 0.44,-0.067 0.847,-0.207 1.245,-0.435 0.234,-0.144 0.479,-0.284 0.725,-0.416 0.419,-0.216 0.765,-0.511 1.062,-0.881 0.603,-0.682 0.899,-1.486 0.9,-2.414 l 0.003,-1.716 c 0,-0.711 -0.038,-1.185 -0.11,-1.439 -0.04,-0.145 -0.093,-0.287 -0.152,-0.431 -0.071,-0.14 -0.255,-0.359 -0.551,-0.653 -0.115,-0.12 -0.24,-0.223 -0.362,-0.33"
         id="path1251" />
      <path
         inkscape:connector-curvature="0"
         style="fill:#c6cee3"
         d="m 525.994,389.014 c -1.011,-0.011 -2.01,-0.003 -3.021,0.025 l -0.185,-10e-4 c -0.08,0 -0.16,0 -0.244,0.009 l -14.119,-0.35 c -4.324,-0.055 -8.222,-0.061 -11.681,0.002 -1.447,0.027 -2.815,0.055 -4.109,0.098 l -0.389,0.021 c -0.255,0.019 -0.512,0.036 -0.766,0.054 l -7.622,0.436 h -0.03 -0.031 -0.03 -0.031 -0.028 -0.031 -0.032 -0.03 -0.02 -0.03 -0.032 c -2.438,-0.089 -4.904,-0.188 -7.404,-0.293 -4.09,-0.169 -6.61,-0.286 -7.57,-0.344 -0.213,-0.011 -0.346,-0.021 -0.407,-0.028 l -23.065,-0.005 c 0.051,0.9 0.101,1.689 0.14,2.381 0.021,0.331 0.039,0.635 0.051,0.909 0.029,0.615 0.06,1.128 0.079,1.519 0.011,0.026 0.011,0.048 0.011,0.076 0.029,0.566 0.068,1.137 0.1,1.716 0.027,0.567 0.07,1.136 0.099,1.715 0.029,0.575 0.07,1.155 0.1,1.733 0.02,0.331 0.04,0.673 0.06,1.014 l 0.318,6.163 c 0.637,4.33 0.97,7.289 0.997,8.872 0.011,0.483 0.02,0.978 0.019,1.458 -0.032,1.281 -0.218,2.398 -0.535,3.354 -0.357,1.092 -0.532,2.229 -0.535,3.403 -10e-4,0.749 0.334,2.645 0.993,5.668 0.669,3.027 0.98,5.386 0.928,7.062 0.374,3.122 0.593,6.694 0.659,10.703 0.065,4.012 0.152,8.189 0.26,12.521 0.104,4.333 0.221,8.759 0.326,13.299 0.01,0.644 0.029,1.374 0.049,2.179 l 0.117,4.189 c 0.01,0.173 0.01,0.354 0.02,0.533 0.049,1.213 0.087,2.528 0.127,3.943 0.01,0.14 0.021,0.282 0.021,0.428 1.417,-0.199 2.674,-0.424 3.774,-0.691 1.48,-0.345 2.958,-0.685 4.44,-0.996 0.132,-0.037 0.254,-0.077 0.388,-0.112 0.377,-0.113 0.764,-0.207 1.142,-0.274 0.776,-0.14 1.551,-0.188 2.326,-0.137 0.235,0.017 0.479,0.055 0.716,0.115 0.773,0.142 1.537,0.379 2.304,0.694 0.479,0.143 0.969,0.236 1.469,0.302 2.11,0.363 3.253,0.557 3.427,0.585 0.806,0.105 4.426,0.141 10.875,0.083 2.65,-0.036 5.121,-0.156 7.418,-0.352 l 4.649,0.006 c 1.175,0.124 2.153,0.22 2.939,0.301 0.591,0.056 1.071,0.095 1.447,0.123 1.418,0.108 2.806,0.164 4.141,0.165 0.807,10e-4 1.91,-0.092 3.298,-0.275 0.172,-0.031 1.315,-0.221 3.428,-0.579 0.501,-0.064 0.99,-0.156 1.469,-0.299 0.765,-0.312 1.531,-0.548 2.307,-0.688 0.234,-0.058 0.48,-0.098 0.715,-0.113 0.774,-0.048 1.55,0.002 2.326,0.145 0.377,0.066 0.763,0.163 1.141,0.276 0.133,0.036 0.254,0.076 0.389,0.113 1.479,0.316 2.958,0.66 4.425,1.01 0.235,0.06 0.479,0.115 0.724,0.182 0.298,0.078 0.594,0.155 0.887,0.229 l 4.306,0.916 c 0.663,-0.122 1.408,-0.281 2.214,-0.489 0.034,-2.92 0.077,-4.814 0.131,-5.697 0.127,-1.694 0.518,-4.511 1.186,-8.464 0.665,-3.949 0.716,-8.226 0.128,-12.822 -0.586,-4.599 -0.23,-10.197 1.053,-16.803 0.24,-2.037 0.293,-4.094 0.173,-6.169 -0.238,-4.013 -0.183,-7.916 0.17,-11.716 0.363,-3.802 0.642,-7.364 0.851,-10.672 0.208,-3.316 0.337,-6.596 0.392,-9.847 0.065,-3.251 0.089,-5.301 0.069,-6.124 -0.01,-0.824 -0.05,-1.497 -0.12,-2 -0.05,-0.512 -0.079,-0.835 -0.071,-0.956 0.012,-0.135 0.012,-0.266 0.013,-0.4 0.051,-0.653 0.103,-1.649 0.177,-2.984 -0.09,0 -0.192,-0.001 -0.285,0.01 -0.143,0 -0.286,0.008 -0.439,0.02 l -3.386,-0.006 c -0.88,-0.049 -1.757,-0.071 -2.623,-0.072"
         id="path1253" />
      <path
         inkscape:connector-curvature="0"
         style="fill:#ffffff"
         d="m 492.379,388.808 h -0.132 v 0.01 c 0.04,-0.01 0.082,-0.01 0.132,-0.01"
         id="path1255" />
      <path
         inkscape:connector-curvature="0"
         style="fill:#b0b6d5"
         d="m 492.247,388.817 v -0.01 c -0.255,0.017 -0.512,0.037 -0.765,0.063 0.253,-0.016 0.51,-0.034 0.765,-0.053"
         id="path1257" />
      <path
         inkscape:connector-curvature="0"
         style="fill:#b0b6d5"
         d="m 487.761,482.693 c -2.294,0.195 -4.765,0.315 -7.415,0.352 -6.447,0.058 -10.069,0.022 -10.875,-0.081 -0.174,-0.03 -1.316,-0.224 -3.427,-0.587 -0.5,-0.064 -0.989,-0.159 -1.469,-0.302 -0.765,-0.315 -1.53,-0.553 -2.305,-0.694 -0.236,-0.061 -0.479,-0.099 -0.715,-0.115 -0.775,-0.051 -1.55,-0.003 -2.326,0.137 -0.378,0.067 -0.765,0.161 -1.141,0.274 -0.135,0.035 -0.257,0.075 -0.39,0.112 -1.481,0.312 -2.959,0.651 -4.439,0.996 -1.101,0.268 -2.357,0.492 -3.774,0.691 -0.012,0 -0.032,0 -0.041,0.006 h -0.052 c -0.357,0.05 -0.692,0.095 -0.989,0.143 -1.561,0.216 -2.346,0.319 -2.377,0.319 -0.317,0.122 -0.562,0.377 -0.736,0.757 -0.06,0.123 -0.112,0.238 -0.152,0.36 -0.145,0.406 -0.217,0.851 -0.218,1.326 l -0.006,2.939 c 0,1.069 0.368,1.979 1.101,2.729 0.724,0.761 1.601,1.141 2.65,1.142 l 79.816,0.109 c 0.417,0.001 0.808,-0.056 1.185,-0.18 0.542,-0.178 1.041,-0.5 1.49,-0.953 0.727,-0.75 1.086,-1.659 1.087,-2.729 l 0.004,-2.938 c 0.001,-0.446 -0.051,-0.841 -0.164,-1.215 -0.05,-0.161 -0.099,-0.302 -0.161,-0.444 -0.042,-0.105 -0.092,-0.197 -0.143,-0.294 -0.205,-0.371 -0.683,-0.692 -1.429,-0.95 -0.274,-0.105 -0.52,-0.163 -0.734,-0.181 -0.366,0.102 -0.712,0.198 -1.049,0.292 -0.807,0.208 -1.551,0.367 -2.215,0.489 l -4.306,-0.916 c -0.293,-0.074 -0.59,-0.151 -0.887,-0.229 -0.244,-0.066 -0.488,-0.122 -0.724,-0.182 -1.467,-0.35 -2.946,-0.693 -4.425,-1.01 -0.135,-0.037 -0.256,-0.077 -0.389,-0.113 -0.378,-0.113 -0.764,-0.21 -1.141,-0.276 -0.777,-0.143 -1.552,-0.192 -2.327,-0.145 -0.233,0.016 -0.479,0.056 -0.714,0.113 -0.775,0.14 -1.542,0.375 -2.307,0.688 -0.479,0.143 -0.968,0.235 -1.47,0.299 -2.112,0.358 -3.256,0.548 -3.427,0.579 -1.388,0.184 -2.491,0.276 -3.298,0.275 -1.337,-0.002 -2.722,-0.057 -4.141,-0.165 -0.376,-0.028 -0.856,-0.067 -1.447,-0.123 -0.786,-0.081 -1.766,-0.177 -2.939,-0.301 l -4.649,-0.004 z"
         id="path1259" />
      <path
         inkscape:connector-curvature="0"
         style="fill:#c6cee3"
         d="m 449.338,479.105 c -0.01,-0.18 -0.01,-0.36 -0.02,-0.533 -10e-4,0.173 -10e-4,0.354 0.01,0.533 0.027,1.213 0.068,2.528 0.107,3.943 0.01,0.14 0.009,0.282 0.009,0.434 0.009,-0.006 0.029,-0.006 0.041,-0.006 0,-0.146 -0.011,-0.288 -0.021,-0.428 -0.038,-1.414 -0.077,-2.73 -0.126,-3.943"
         id="path1261" />
      <path
         inkscape:connector-curvature="0"
         style="fill:none;stroke:#737a91;stroke-width:1.51629996;stroke-linecap:round;stroke-linejoin:round;stroke-miterlimit:10"
         d="m 449.485,483.477 c -0.012,0 -0.032,0 -0.041,0.006 h -0.052 c -0.356,0.05 -0.693,0.095 -0.989,0.143 -1.561,0.216 -2.348,0.319 -2.377,0.319 -0.318,0.122 -0.562,0.377 -0.736,0.757 -0.061,0.123 -0.112,0.238 -0.153,0.36 -0.144,0.406 -0.215,0.851 -0.216,1.326 l -0.004,2.938 c -0.003,1.07 0.365,1.98 1.098,2.73 0.724,0.761 1.6,1.141 2.65,1.142 l 79.816,0.109 c 0.418,10e-4 0.808,-0.056 1.185,-0.18 0.542,-0.179 1.041,-0.5 1.49,-0.953 0.727,-0.75 1.086,-1.659 1.087,-2.729 l 0.004,-2.938 c 0.001,-0.446 -0.052,-0.844 -0.163,-1.215 -0.051,-0.161 -0.102,-0.302 -0.162,-0.444 -0.041,-0.105 -0.092,-0.197 -0.143,-0.294 -0.204,-0.371 -0.683,-0.692 -1.428,-0.95 -0.274,-0.105 -0.52,-0.163 -0.733,-0.181 -0.367,0.102 -0.716,0.198 -1.052,0.292 m -36.187,-94.907 h 0.011 0.051 c 0.071,-0.011 0.134,-0.011 0.195,-0.011 1.294,-0.043 2.662,-0.07 4.109,-0.098 3.459,-0.062 7.356,-0.057 11.681,-0.002 l 14.119,0.35 c 0.084,-0.009 0.164,-0.009 0.244,-0.009 l 0.185,10e-4 c 1.011,-0.028 2.01,-0.036 3.021,-0.025 0.865,10e-4 1.742,0.023 2.61,0.071 l 3.386,0.006 c 0.153,-0.012 0.297,-0.02 0.439,-0.02 0.093,-0.011 0.195,-0.01 0.285,-0.01 m -4.149,94.655 c 0.034,-2.92 0.077,-4.814 0.131,-5.697 0.127,-1.694 0.518,-4.511 1.186,-8.464 0.665,-3.949 0.716,-8.226 0.128,-12.822 -0.586,-4.599 -0.23,-10.197 1.053,-16.803 0.24,-2.036 0.293,-4.094 0.173,-6.169 -0.238,-4.013 -0.183,-7.916 0.17,-11.716 0.363,-3.802 0.642,-7.364 0.851,-10.672 0.208,-3.316 0.337,-6.596 0.392,-9.847 0.065,-3.251 0.089,-5.301 0.069,-6.124 -0.01,-0.824 -0.05,-1.497 -0.12,-2 -0.05,-0.512 -0.079,-0.835 -0.071,-0.956 0.012,-0.135 0.012,-0.266 0.013,-0.4 0.051,-0.653 0.103,-1.649 0.177,-2.984 m -88.113,-0.444 0.123,0.019 h 0.356 l 23.065,0.005 c 0.062,0.008 0.194,0.018 0.407,0.028 0.96,0.058 3.48,0.175 7.57,0.344 2.5,0.105 4.966,0.204 7.404,0.293 h 0.032 0.03 0.02 0.03 0.033 0.031 0.027 0.032 0.03 0.03 0.03 l 7.622,-0.436 c 0.254,-0.026 0.511,-0.047 0.766,-0.063 h 0.132 m 0.004,0 c -0.05,0 -0.092,0 -0.132,0.01 m -47.642,-0.2 c 0.05,0.911 0.102,1.707 0.139,2.398 0.03,0.331 0.051,0.635 0.062,0.909 0.04,0.617 0.069,1.128 0.09,1.519 0.009,0.025 0.009,0.048 0.009,0.076 0.031,0.566 0.07,1.137 0.111,1.716 0.029,0.567 0.07,1.136 0.11,1.715 0.028,0.576 0.067,1.156 0.099,1.734 0.029,0.331 0.051,0.673 0.08,1.014 l 0.339,6.162 c 0.657,4.33 1.01,7.29 1.048,8.873 0.021,0.483 0.03,0.978 0.029,1.458 -0.033,1.281 -0.198,2.397 -0.516,3.354 -0.347,1.092 -0.523,2.228 -0.525,3.402 0.011,0.749 0.355,2.646 1.033,5.669 0.682,3.027 1.003,5.386 0.971,7.062 0.393,3.121 0.633,6.694 0.709,10.703 0.096,4.012 0.203,8.189 0.331,12.521 0.135,4.333 0.274,8.759 0.399,13.3 0.019,0.643 0.048,1.373 0.078,2.178 l 0.117,4.189 c 0.012,0.173 0.011,0.354 0.02,0.533 0.049,1.213 0.087,2.528 0.127,3.943 0.01,0.14 0.021,0.282 0.021,0.428 m -10e-4,0.003 c 1.417,-0.199 2.675,-0.424 3.774,-0.691 1.48,-0.345 2.958,-0.685 4.44,-0.996 0.132,-0.037 0.254,-0.077 0.388,-0.112 0.377,-0.113 0.765,-0.207 1.142,-0.274 0.776,-0.14 1.551,-0.188 2.326,-0.137 0.235,0.017 0.479,0.055 0.716,0.115 0.773,0.142 1.537,0.379 2.304,0.694 0.479,0.143 0.969,0.236 1.469,0.302 2.11,0.363 3.253,0.557 3.427,0.587 0.806,0.104 4.426,0.139 10.875,0.081 2.65,-0.036 5.121,-0.156 7.416,-0.352 l 4.651,0.006 c 1.175,0.124 2.153,0.22 2.939,0.301 0.591,0.056 1.071,0.095 1.447,0.123 1.418,0.108 2.806,0.164 4.141,0.165 0.807,0.001 1.91,-0.092 3.298,-0.275 0.172,-0.031 1.315,-0.221 3.428,-0.579 0.501,-0.064 0.99,-0.156 1.469,-0.299 0.765,-0.312 1.531,-0.548 2.307,-0.688 0.234,-0.058 0.48,-0.098 0.715,-0.113 0.774,-0.047 1.55,0.002 2.326,0.145 0.377,0.066 0.763,0.163 1.141,0.276 0.133,0.036 0.254,0.076 0.389,0.113 1.479,0.316 2.958,0.66 4.425,1.01 0.235,0.06 0.479,0.115 0.724,0.182 0.298,0.078 0.594,0.155 0.887,0.229 l 4.306,0.916 c 0.663,-0.122 1.408,-0.281 2.214,-0.489 m 4.147,-94.655 c 0.092,-0.01 0.195,-0.01 0.286,-0.01 0.071,-0.008 0.135,-0.008 0.204,-0.018 0.44,-0.067 0.847,-0.207 1.245,-0.435 0.234,-0.145 0.479,-0.284 0.725,-0.416 0.419,-0.216 0.765,-0.511 1.062,-0.881 0.603,-0.682 0.899,-1.486 0.9,-2.414 l 0.003,-1.716 c 0,-0.711 -0.039,-1.185 -0.11,-1.439 -0.04,-0.145 -0.093,-0.287 -0.152,-0.431 -0.071,-0.14 -0.255,-0.359 -0.551,-0.653 -0.121,-0.123 -0.245,-0.227 -0.367,-0.333 -0.192,-0.141 -0.396,-0.266 -0.601,-0.389 -0.232,-0.122 -0.47,-0.229 -0.714,-0.295 -0.326,-0.065 -0.653,-0.113 -0.988,-0.144 l -0.613,0.009 c -1.642,-0.012 -3.816,-0.11 -6.528,-0.273 l -3.714,0.022 c -0.652,-0.01 -1.326,-0.019 -2.019,-0.029 -0.419,-0.021 -0.868,-0.039 -1.326,-0.052 -0.693,-0.028 -1.429,-0.059 -2.206,-0.077 -0.314,-0.011 -0.569,-0.021 -0.773,-0.012 -0.111,0 -1.051,-0.001 -2.837,0.006 -1.377,0.007 -3.243,0.004 -5.62,0.011 -4.906,0.012 -9.825,0.093 -14.731,0.246 -0.511,-10e-4 -2.021,0.073 -4.541,0.212 -2.52,0.138 -4.845,0.201 -6.977,0.198 -1.073,-0.002 -2.969,-0.155 -5.713,-0.453 -2.743,-0.308 -4.968,-0.396 -6.672,-0.256 -1.703,0.14 -3.49,0.195 -5.336,0.174 -0.824,-0.01 -2.724,-0.004 -5.702,0.029 -1.99,0.026 -4.446,0.06 -7.385,0.103 -1.419,0.017 -2.95,0.043 -4.591,0.07 -0.521,0.01 -1.052,0.018 -1.593,0.027 -0.785,0.008 -1.604,0.025 -2.448,0.034 -0.225,0.113 -0.469,0.272 -0.734,0.49 -0.858,0.692 -1.288,1.508 -1.29,2.444 l -0.003,2.343 c -10e-4,1.069 0.405,1.98 1.221,2.731 0.337,0.313 0.907,0.599 1.692,0.844 l 1.387,0.287"
         id="path1263" />
      <path
         inkscape:connector-curvature="0"
         style="fill:#b0b6d5"
         d="m 508.207,393.397 c -0.307,-0.048 -0.584,-10e-4 -0.817,0.121 -0.95,0.521 -1.645,1.25 -2.094,2.195 -0.481,1.005 -0.819,2.059 -1.034,3.146 -0.094,0.512 -0.136,1.031 -0.126,1.562 0.067,3.444 0.194,6.884 0.372,10.341 0.051,0.845 0.061,1.688 0.027,2.552 -0.115,3.176 -0.19,5.564 -0.223,7.187 -0.033,1.61 -0.065,2.103 -0.083,1.469 -0.012,-0.637 -0.04,-0.295 -0.095,1.03 -0.052,1.318 0.284,2.456 0.996,3.416 0.722,0.959 0.945,1.714 0.671,2.293 -0.276,0.578 -0.503,1.506 -0.688,2.785 -0.186,1.28 -0.381,2.54 -0.587,3.772 0.264,1.604 0.362,3.271 0.289,5.005 -0.095,2.454 0.023,4.91 0.377,7.366 0.151,1.08 0.211,2.162 0.169,3.241 -0.062,1.601 -0.155,3.193 -0.292,4.794 -0.041,0.465 -0.042,0.919 0.01,1.365 0.069,0.646 0.068,1.291 0.018,1.926 -0.054,0.635 -0.166,1.308 -0.361,2.019 -0.186,0.71 -0.135,1.411 0.141,2.086 0.274,0.673 0.426,1.1 0.446,1.296 0.161,1.868 0.211,3.735 0.137,5.614 -0.063,1.582 0.147,3.127 0.636,4.635 0.375,1.186 1.026,2.21 1.954,3.065 0.623,0.559 1.345,0.741 2.172,0.534 0.244,-0.067 0.449,-0.171 0.623,-0.333 1.42,-1.26 2.308,-2.821 2.679,-4.669 0.154,-0.807 0.165,-1.602 0.024,-2.39 -0.11,-0.672 -0.213,-1.354 -0.282,-2.036 -0.141,-1.28 -0.334,-2.552 -0.567,-3.802 -0.071,-0.391 -0.346,-0.93 -0.815,-1.613 -0.466,-0.693 -0.465,-1.765 0.004,-3.212 0.482,-1.45 0.771,-2.35 0.883,-2.701 -0.01,-0.143 -0.019,-0.284 -0.029,-0.427 -0.09,-0.89 -0.142,-1.782 -0.149,-2.663 -0.018,-1.896 0.005,-3.78 0.07,-5.669 0.02,-0.501 0.021,-1.004 -0.01,-1.507 -0.179,-3.459 -0.308,-6.92 -0.394,-10.379 -0.057,-2.275 -0.004,-4.504 0.164,-6.672 l 0.562,-2.797 -0.758,-3.896 0.451,-9.855 c 0.013,-1.81 0.024,-3.624 0.039,-5.432 0.013,-1.811 -0.088,-3.496 -0.28,-5.062 -0.19,-1.563 -0.303,-2.862 -0.32,-3.886 -0.021,-1.026 -0.233,-2.076 -0.649,-3.148 -0.56,-1.448 -1.653,-2.333 -3.261,-2.666"
         id="path1265" />
      <path
         inkscape:connector-curvature="0"
         style="fill:#b0b6d5"
         d="m 520.284,393.414 c -0.377,-0.049 -0.733,0.036 -1.061,0.253 -0.95,0.597 -1.635,1.409 -2.044,2.425 -0.624,1.533 -0.964,2.985 -1.027,4.349 -0.02,0.408 -0.03,0.807 -0.03,1.214 0.008,0.485 0.039,0.978 0.079,1.459 0.089,1.016 0.158,2.029 0.21,3.062 0.059,1.073 0.109,2.123 0.148,3.148 0.05,1.013 0.079,1.942 0.108,2.777 0.03,0.824 0.008,1.631 -0.054,2.406 -0.053,0.777 -0.095,1.658 -0.116,2.652 -0.022,0.895 -0.044,1.783 -0.055,2.675 -0.033,2.654 -0.137,4.445 -0.294,5.384 -0.153,0.937 0.354,3.252 1.522,6.958 l -1.447,6.045 c 0.281,2.683 0.562,5.536 0.854,8.572 0.457,2.312 0.554,4.436 0.287,6.359 -0.258,1.922 -0.33,3.082 -0.199,3.468 0.133,0.389 0.08,2.577 -0.16,6.57 0.438,0.824 0.62,1.591 0.558,2.312 -0.023,1.372 -0.046,2.873 -0.069,4.493 -0.021,1.324 0.152,2.634 0.505,3.935 0.257,0.919 0.62,1.781 1.099,2.589 0.357,0.595 0.836,1.1 1.438,1.497 0.06,0.049 0.122,0.078 0.194,0.106 1.162,0.465 2.121,0.22 2.887,-0.745 1.329,-1.685 2.034,-3.591 2.13,-5.703 0.032,-0.558 -0.05,-1.129 -0.221,-1.718 -0.174,-0.587 -0.305,-1.534 -0.406,-2.851 -0.101,-1.32 -0.413,-2.828 -0.941,-4.515 0.626,-2.017 0.851,-3.867 0.681,-5.545 -0.172,-1.679 -0.231,-3.553 -0.176,-5.63 0.055,-2.075 0.086,-3.611 0.099,-4.613 l -0.629,-9.974 0.707,-3.469 -0.524,-3.355 0.42,-16.396 c 0.037,-3.612 0.081,-7.233 0.116,-10.843 0.023,-2.314 -0.443,-4.531 -1.399,-6.657 -0.538,-1.526 -1.608,-2.417 -3.19,-2.694"
         id="path1267" />
      <path
         inkscape:connector-curvature="0"
         style="fill:#b0b6d5"
         d="m 496.769,393.675 c -1.273,-0.464 -2.304,-0.125 -3.092,1.039 -1.063,1.582 -1.667,3.307 -1.822,5.182 -0.125,1.583 -0.097,3.155 0.075,4.72 0.12,1.044 0.15,2.085 0.098,3.128 -0.115,2.39 -0.089,4.768 0.103,7.148 0.029,0.463 0.02,0.929 -0.043,1.384 -0.123,0.993 0.19,1.792 0.943,2.408 0.073,0.057 0.114,0.124 0.146,0.198 0.313,0.901 0.415,1.84 0.291,2.814 -0.299,2.36 -0.599,4.711 -0.887,7.071 -0.279,2.313 -0.455,4.623 -0.53,6.938 -0.021,0.596 -0.03,1.184 -0.022,1.771 0.028,2.342 0.177,4.693 0.448,7.053 0.255,2.096 0.312,4.196 0.177,6.332 -0.137,2.095 -0.047,4.15 0.266,6.188 0.324,2.097 0.454,4.199 0.389,6.314 -0.074,2.198 -0.127,4.397 -0.172,6.599 -0.043,2.31 0.484,4.491 1.594,6.53 0.661,1.242 1.691,1.843 3.088,1.814 0.193,-0.048 0.347,-0.125 0.48,-0.227 1.827,-1.468 2.841,-3.35 3.037,-5.664 0.134,-1.554 0.086,-3.118 -0.126,-4.691 -0.284,-2.019 -0.504,-4.057 -0.655,-6.095 -0.128,-1.774 -0.21,-3.566 -0.228,-5.357 -0.026,-2.34 -0.003,-4.662 0.062,-6.985 0.021,-0.844 0.012,-1.677 -0.028,-2.512 -0.157,-3.326 -0.163,-6.652 -0.016,-9.961 0.096,-2.304 0.016,-4.615 -0.245,-6.93 -0.052,-0.474 -0.062,-0.948 -0.02,-1.411 0.197,-2.256 0.425,-4.512 0.672,-6.769 0.25,-2.245 0.21,-4.491 -0.103,-6.718 -0.071,-0.476 -0.111,-0.95 -0.12,-1.413 -0.049,-1.809 -0.066,-3.612 -0.054,-5.423 0.025,-1.81 0.046,-3.611 0.058,-5.421 0.033,-1.716 -0.239,-3.394 -0.799,-5.033 -0.193,-0.541 -0.375,-1.092 -0.558,-1.632 -0.398,-1.144 -1.194,-1.941 -2.407,-2.389"
         id="path1269" />
      <path
         inkscape:connector-curvature="0"
         style="fill:#b0b6d5"
         d="m 486.381,396.051 c -0.396,-1.148 -1.188,-1.945 -2.404,-2.394 -1.276,-0.464 -2.306,-0.126 -3.094,1.039 -1.061,1.582 -1.665,3.308 -1.822,5.183 -0.125,1.582 -0.106,3.004 0.065,4.274 0.174,1.271 0.446,2.39 0.822,3.365 0.377,0.967 0.374,2.532 -0.006,4.691 -0.124,0.729 -0.227,1.355 -0.318,1.879 0.019,0.236 -0.012,1.07 -0.087,2.482 -0.146,2.783 -0.087,4.957 0.165,6.521 0.253,1.564 0.262,3.47 0.023,5.735 -0.238,2.265 -0.394,4.546 -0.469,6.862 -0.022,0.594 -0.031,1.184 -0.023,1.771 0.027,2.342 0.177,4.692 0.45,7.053 0.254,2.096 0.299,4.197 0.154,6.322 -0.145,2.113 -0.302,4.381 -0.458,6.775 -0.155,2.398 -0.025,4.503 0.398,6.312 0.417,1.813 0.607,3.822 0.563,6.023 -0.042,2.309 0.484,4.491 1.594,6.53 0.661,1.242 1.69,1.843 3.088,1.813 0.194,-0.047 0.347,-0.124 0.479,-0.226 1.829,-1.467 2.841,-3.351 3.038,-5.664 0.136,-1.554 0.045,-3.005 -0.249,-4.344 -0.304,-1.343 -0.535,-2.896 -0.696,-4.664 -0.173,-1.761 -0.507,-3.733 -1.014,-5.903 0.288,-1.491 0.575,-2.418 0.872,-2.786 0.054,-2.397 0.106,-4.208 0.14,-5.433 0.022,-0.845 0.011,-1.677 -0.028,-2.51 -0.159,-3.328 -0.164,-6.653 -0.017,-9.963 0.096,-2.304 0.018,-4.614 -0.245,-6.93 -0.049,-0.473 -0.061,-0.946 -0.019,-1.41 0.197,-2.256 0.312,-4.618 0.336,-7.072 0.014,-2.452 -0.034,-4.331 -0.144,-5.619 -0.121,-1.291 0.003,-2.541 0.371,-3.764 0.37,-1.231 0.503,-2.701 0.414,-4.397 -0.1,-1.694 -0.2,-3.365 -0.308,-5.005 -0.11,-1.64 -0.456,-3.278 -1.015,-4.92 -0.189,-0.537 -0.374,-1.087 -0.556,-1.626"
         id="path1271" />
      <path
         inkscape:connector-curvature="0"
         style="fill:#b0b6d5"
         d="m 476.006,402.699 c -0.025,-2.606 -0.462,-4.825 -1.316,-6.656 -0.854,-1.859 -1.895,-2.779 -3.117,-2.752 h -0.02 c -1.225,-0.031 -2.256,0.887 -3.107,2.744 -0.898,1.828 -1.33,4.045 -1.294,6.652 l 0.715,30.52 c -0.595,1.337 -0.973,2.881 -1.141,4.626 -0.082,0.776 -0.112,1.591 -0.104,2.442 -0.044,2.198 0.301,3.937 1.033,5.196 l -0.074,24.456 c 0.027,2.302 0.453,4.274 1.298,5.935 0.824,1.631 1.812,2.447 2.966,2.448 h 0.02 c 1.112,0.002 2.083,-0.812 2.911,-2.44 0.809,-1.658 1.208,-3.63 1.211,-5.931 l -0.479,-28.854 c -0.61,-0.448 -0.969,-1.527 -1.059,-3.24 -0.01,-0.239 -0.019,-0.486 -0.019,-0.742 l 1.183,-6.273 0.393,-28.131 z"
         id="path1273" />
      <path
         inkscape:connector-curvature="0"
         style="fill:#b0b6d5"
         d="m 460.307,396.024 c -0.886,-1.86 -1.936,-2.78 -3.16,-2.752 h -0.021 c -1.223,-0.031 -2.244,0.886 -3.063,2.741 -0.849,1.829 -1.251,4.048 -1.213,6.654 l 0.714,37.477 -0.724,6.787 c -0.153,0.834 0.039,2.265 0.575,4.304 l 0.598,18.674 c 0.026,2.301 0.473,4.274 1.338,5.934 0.825,1.632 1.812,2.447 2.985,2.448 h 0.02 c 1.104,0.002 2.062,-0.811 2.893,-2.439 0.776,-1.658 1.166,-3.629 1.169,-5.931 l -0.744,-22.275 c -0.742,-1.489 -1.035,-3.198 -0.881,-5.102 l 1.195,-7.354 -0.304,-32.509 c -0.047,-2.607 -0.513,-4.827 -1.377,-6.657"
         id="path1275" />
      <path
         inkscape:connector-curvature="0"
         style="fill:#b0b6d5"
         d="m 441.808,399.152 c 0.062,-0.01 0.122,-0.01 0.173,-0.01 l 1.458,0.002 0.311,4.646 -1.091,-0.002 c -0.54,0.141 -0.858,0.65 -0.951,1.551 -0.504,3.705 -0.766,7.743 -0.781,12.114 -0.001,0.113 -0.001,0.237 0.01,0.357 v 0.25 c 0.009,0.081 0.02,0.179 0.03,0.283 0.051,0.53 0.201,0.958 0.467,1.27 0.01,0.021 0.061,0.039 0.133,0.068 0.051,0.009 0.132,0.027 0.233,0.056 0.072,0.01 0.144,0.028 0.224,0.048 0.032,0 0.052,0 0.082,0.009 0.103,0.014 0.204,0.029 0.308,0.049 0.214,0.029 0.448,0.047 0.702,0.076 0.031,0 0.073,0 0.104,0.01 h 0.02 0.082 c 0.366,0.03 0.774,0.049 1.233,0.06 l 2.031,0.04 0.306,10e-4 c 0.02,0 0.082,0 0.193,-0.01 h 0.094 c 0.01,0.293 0.009,0.598 -10e-4,0.891 -0.002,1.09 -0.076,2.18 -0.23,3.271 -0.011,0.085 -0.032,0.162 -0.042,0.243 -1.091,0.02 -2.356,0.048 -3.784,0.073 l -0.754,-0.021 c -0.307,-0.031 -0.611,-0.06 -0.92,-0.085 -0.437,-0.041 -0.876,-0.08 -1.315,-0.117 -2.631,-0.507 -3.882,-2.534 -3.755,-6.089 l 0.446,-6.182 -0.011,-6.673 c 0.135,-3.91 1.801,-5.967 4.995,-6.179"
         id="path1277" />
      <path
         inkscape:connector-curvature="0"
         style="fill:none;stroke:#737a91;stroke-width:1.51629996;stroke-linecap:round;stroke-linejoin:round;stroke-miterlimit:10"
         d="m 446.904,424.426 c -1.093,0.02 -2.357,0.048 -3.785,0.073 l -0.756,-0.021 c -0.305,-0.031 -0.609,-0.06 -0.918,-0.085 -0.437,-0.041 -0.876,-0.08 -1.315,-0.117 -2.63,-0.507 -3.882,-2.534 -3.755,-6.089 l 0.446,-6.182 -0.011,-6.673 c 0.138,-3.912 1.805,-5.969 4.997,-6.181 0.062,-0.01 0.121,-0.01 0.173,-0.01 l 1.459,0.002 0.311,4.646 -1.092,-0.002 c -0.54,0.141 -0.858,0.65 -0.951,1.551 -0.504,3.707 -0.767,7.743 -0.781,12.114 -10e-4,0.113 -10e-4,0.237 0.008,0.357 v 0.25 c 0.011,0.081 0.023,0.179 0.03,0.283 0.053,0.53 0.203,0.958 0.469,1.27 0.009,0.021 0.061,0.039 0.133,0.068 0.051,0.009 0.134,0.027 0.233,0.056 0.072,0.01 0.144,0.028 0.224,0.048 0.031,0 0.053,0 0.084,0.009 0.101,0.014 0.203,0.029 0.306,0.049 0.214,0.029 0.448,0.047 0.703,0.076 0.03,0 0.072,0 0.103,0.01 h 0.02 0.082 c 0.366,0.03 0.776,0.049 1.233,0.06 l 2.03,0.04 0.194,10e-4 c 0.029,-0.01 0.07,-0.01 0.112,0 m 0.193,-0.008 h 0.094"
         id="path1279" />
      <path
         inkscape:connector-curvature="0"
         style="fill:#c6cee3"
         d="m 440.87,398.383 c 0.031,-0.881 0.481,-1.336 1.349,-1.343 l 5.876,-0.032 c 1.091,-0.052 2.101,-0.062 3.03,-0.033 1.173,-0.026 1.867,0.239 2.069,0.798 0.11,1.262 0.128,2.712 0.045,4.342 l -0.036,4.248 c -0.123,0.123 -0.246,0.217 -0.357,0.266 -0.541,0.11 -1.082,0.147 -1.602,0.109 l -0.132,-10e-4 h -0.216 c -2.347,0.006 -4.63,0.022 -6.866,0.029 l -2.876,0.051 c -0.234,-0.709 -0.355,-1.409 -0.344,-2.12 l 0.06,-6.314 z"
         id="path1281" />
      <path
         inkscape:connector-curvature="0"
         style="fill:none;stroke:#737a91;stroke-width:1.51629996;stroke-linecap:round;stroke-linejoin:round;stroke-miterlimit:10"
         d="m 442.219,397.04 5.876,-0.032 c 1.091,-0.052 2.101,-0.062 3.029,-0.033 1.174,-0.026 1.868,0.239 2.07,0.798 0.11,1.262 0.128,2.713 0.045,4.342 l -0.036,4.248 c -0.124,0.123 -0.246,0.217 -0.357,0.266 -0.541,0.11 -1.081,0.147 -1.602,0.109 l -0.133,-10e-4 h -0.215 c -2.347,0.006 -4.631,0.022 -6.865,0.029 l -2.877,0.051 c -0.234,-0.709 -0.355,-1.409 -0.344,-2.12 l 0.06,-6.313 c 0.031,-0.882 0.482,-1.337 1.349,-1.344 z"
         id="path1283" />
      <path
         inkscape:connector-curvature="0"
         style="fill:#b0b6d5"
         d="m 446.212,423.412 c -0.621,-0.729 -0.508,-1.508 0.319,-2.331 0.471,-0.235 0.491,-0.587 0.052,-1.052 1.521,-0.017 2.397,-0.023 2.651,-0.034 0.123,-0.009 0.237,-0.009 0.348,-0.009 1.378,-0.047 2.408,-0.14 3.112,-0.261 l 0.419,-0.379 c 0.164,-0.264 0.256,-0.646 0.278,-1.136 l 0.46,-8.492 -0.024,-4.363 c -0.111,-1.392 -0.231,-2.236 -0.365,-2.548 0.134,0.312 0.254,1.156 0.365,2.548 -0.112,-0.746 -0.214,-1.173 -0.306,-1.276 -0.11,-0.145 -0.255,-0.229 -0.438,-0.276 l -3.244,-0.004 c -0.429,-0.146 -0.815,-0.37 -1.173,-0.687 -0.52,-0.453 -0.805,-1.005 -0.844,-1.658 -0.05,-0.645 0.155,-1.195 0.613,-1.657 0.37,-0.36 0.808,-0.578 1.309,-0.644 h 0.173 l 0.744,10e-4 h 0.306 l 2.266,0.004 c 0.266,-0.01 0.52,-0.01 0.767,10e-4 1.742,0.068 3.007,0.627 3.771,1.692 0.194,0.368 0.366,0.738 0.499,1.12 0.152,0.425 0.254,0.871 0.282,1.325 0.04,0.609 0.03,1.205 -0.022,1.8 -0.062,0.562 -0.093,1.108 -0.084,1.649 0.029,0.761 0.041,1.508 0.027,2.258 -0.011,0.683 -0.032,1.364 -0.053,2.046 -0.01,0.16 -0.021,0.333 -0.032,0.493 l -0.316,7.433 c -0.053,0.833 -0.185,1.648 -0.411,2.442 -0.05,0.2 -0.122,0.408 -0.195,0.606 -0.828,1.449 -2.206,2.245 -4.144,2.366 -0.705,-0.021 -2.837,-0.003 -6.417,0.035 0.888,-0.081 1.296,-0.118 1.244,-0.129 -0.05,-0.009 -0.694,-0.302 -1.937,-0.883"
         id="path1285" />
      <path
         inkscape:connector-curvature="0"
         style="fill:none;stroke:#737a91;stroke-width:1.51629996;stroke-linecap:round;stroke-linejoin:round;stroke-miterlimit:10"
         d="m 449.918,399.153 c 0.08,-0.01 0.162,-0.01 0.244,-0.01 0.062,0 0.225,0.001 0.5,0.011 m 2.859,4.925 c -0.11,-0.145 -0.255,-0.229 -0.438,-0.276 l -3.244,-0.004 c -0.429,-0.146 -0.815,-0.37 -1.173,-0.687 -0.52,-0.453 -0.805,-1.005 -0.844,-1.658 -0.051,-0.645 0.155,-1.195 0.613,-1.657 0.369,-0.36 0.808,-0.578 1.309,-0.644 h 0.173 m 0.745,10e-4 h 0.306 l 2.265,0.004 c 0.267,-0.01 0.521,-0.01 0.768,10e-4 1.742,0.068 3.006,0.629 3.771,1.692 0.194,0.368 0.366,0.738 0.499,1.12 0.152,0.425 0.254,0.871 0.282,1.325 0.04,0.609 0.03,1.205 -0.022,1.8 -0.062,0.562 -0.093,1.108 -0.085,1.649 0.03,0.761 0.042,1.508 0.028,2.258 -0.011,0.683 -0.033,1.364 -0.053,2.046 -0.01,0.16 -0.021,0.333 -0.032,0.493 l -0.316,7.433 c -0.053,0.833 -0.185,1.648 -0.411,2.442 -0.05,0.2 -0.122,0.408 -0.195,0.606 -0.828,1.449 -2.206,2.245 -4.144,2.366 -0.705,-0.021 -2.837,-0.003 -6.417,0.035 m 6.556,-21.616 c 0.134,0.312 0.254,1.156 0.365,2.549 l 0.024,4.362 -0.46,8.492 c -0.022,0.49 -0.114,0.872 -0.278,1.136 l -0.419,0.379 c -0.704,0.121 -1.734,0.214 -3.111,0.261 -0.111,0 -0.226,0 -0.349,0.009 -0.254,0.011 -1.13,0.018 -2.651,0.034 m 3.335,-20.877 0.744,10e-4"
         id="path1287" />
      <path
         inkscape:connector-curvature="0"
         style="fill:#255f27"
         d="m 464.6,369.458 -0.002,-0.011 c 2.221,-2.657 5.229,-4.686 9.033,-6.064 4.63,-1.669 9.842,-1.925 15.619,-0.773 0.023,0.009 0.042,0.009 0.064,0.019 2.232,0.603 4.299,1.429 6.195,2.466 l -0.021,-0.009 c 0.161,0.077 0.312,0.166 0.451,0.251 0.184,0.097 0.356,0.204 0.541,0.32 0.204,0.127 0.329,0.291 0.368,0.494 0.052,0.205 0.019,0.398 -0.108,0.582 -0.119,0.174 -0.292,0.28 -0.522,0.318 -0.219,0.029 -0.43,-0.01 -0.637,-0.128 -0.151,-0.095 -0.301,-0.182 -0.453,-0.262 -0.01,-0.009 -0.021,-0.017 -0.032,-0.027 h -0.008 c -0.12,-0.069 -0.241,-0.137 -0.369,-0.204 -10e-4,-0.011 -0.01,-0.011 -0.021,-0.011 -1.755,-0.96 -3.672,-1.728 -5.735,-2.302 -0.013,0 -0.034,0 -0.044,-0.009 h -0.01 -0.011 c -5.397,-1.072 -10.272,-0.835 -14.602,0.716 h 0.009 c -3.525,1.283 -6.308,3.146 -8.359,5.613 h -0.013 c -0.02,0.028 -0.049,0.066 -0.079,0.095 0,0.01 -0.01,0.01 -0.019,0.02 l -0.279,0.349 c -0.01,0.02 -0.029,0.039 -0.04,0.059 -0.009,0.009 -0.007,0.018 -0.019,0.027 -1.854,2.429 -2.542,5.1 -2.054,7.995 l -1.691,-0.002 c -0.502,-3.228 0.275,-6.187 2.329,-8.884 l 0.01,-0.01 c 0.009,-0.009 0.008,-0.019 0.019,-0.028 0.011,-0.009 0.011,-0.009 0.009,-0.02 0.012,-0.01 0.021,-0.029 0.029,-0.038 l 0.33,-0.406 c 0.012,-0.01 0.021,-0.02 0.02,-0.029 0.029,-0.04 0.069,-0.079 0.102,-0.107"
         id="path1289" />
      <path
         inkscape:connector-curvature="0"
         style="fill:#255f27"
         d="m 466.767,378.985 -0.905,-0.001 c 0.089,-0.146 0.177,-0.292 0.266,-0.415 0.275,-0.379 0.52,-0.571 0.718,-0.58 l -0.079,0.996 z"
         id="path1291" />
      <path
         inkscape:connector-curvature="0"
         style="fill:#255f27"
         d="m 465.861,378.984 0.905,0.001 -0.194,2.449 c 0.003,0.038 0.004,0.075 -0.005,0.105 -0.008,0.312 -0.013,0.619 -0.021,0.939 -0.002,0.63 -0.005,1.247 0.002,1.876 0.002,0.707 0.054,1.414 0.148,2.12 0.099,0.756 0.244,1.619 0.444,2.578 0.011,0.007 0.011,0.017 0.012,0.027 0.64,2.489 2.113,4.176 4.412,5.059 1.336,0.285 2.505,0.07 3.512,-0.635 0.173,-0.124 0.346,-0.271 0.515,-0.434 0.053,-0.048 0.091,-0.097 0.142,-0.146 0.011,-0.008 0.011,-0.008 0.021,-0.02 -1.268,-2.237 -1.738,-4.493 -1.422,-6.766 0.079,-0.571 0.296,-1.104 0.653,-1.58 -0.003,0.204 0.008,0.416 0.029,0.63 0.149,2.16 0.779,4.232 1.889,6.217 0.104,0.185 0.206,0.358 0.309,0.523 0.034,0.049 0.068,0.106 0.111,0.156 0.035,0.058 0.08,0.115 0.124,0.183 0.014,0.01 0.023,0.03 0.034,0.05 0.066,0.069 0.133,0.146 0.188,0.211 0.012,0.012 0.012,0.012 0.013,0.021 0.078,0.084 0.166,0.183 0.253,0.28 0.013,0.008 0.013,0.008 0.023,0.019 0.076,0.079 0.152,0.155 0.231,0.242 0.515,0.495 1.093,0.912 1.748,1.263 0.374,0.146 0.768,0.202 1.164,0.194 0.242,-0.009 0.491,-0.047 0.751,-0.113 0.466,-0.187 0.888,-0.388 1.264,-0.619 0.268,-0.155 0.513,-0.319 0.745,-0.493 h 0.013 0.008 c 0.983,-0.791 1.673,-1.818 2.079,-3.065 0.177,-0.522 0.318,-1.055 0.44,-1.596 -0.129,-0.098 -0.26,-0.194 -0.379,-0.303 -1.554,-1.541 -2.213,-3.342 -1.97,-5.383 0.091,-0.785 0.397,-1.443 0.919,-1.982 -0.242,1.393 -0.034,2.738 0.604,4.047 0.418,0.841 0.968,1.597 1.637,2.266 0.153,0.127 0.315,0.234 0.499,0.329 l 0.01,0.011 h 0.014 c 0.008,0.009 0.029,0.021 0.042,0.03 0.159,0.066 0.321,0.134 0.481,0.194 0.703,0.223 1.398,0.272 2.097,0.139 h 0.021 c 0.365,-0.068 0.739,-0.186 1.109,-0.338 1.674,-1.11 2.771,-3.028 3.3,-5.745 0.144,-0.764 0.242,-1.578 0.298,-2.46 0.006,-0.144 0.02,-0.301 0.023,-0.443 l 1.689,0.003 c -0.008,0.048 -0.006,0.097 -0.014,0.143 -0.003,0.146 -0.019,0.291 -0.021,0.437 l 0.001,0.012 c -0.054,0.947 -0.159,1.827 -0.321,2.65 -0.619,3.231 -1.968,5.477 -4.032,6.742 -0.03,0.019 -0.07,0.037 -0.113,0.058 -0.516,0.221 -1.033,0.375 -1.544,0.462 -0.927,0.181 -1.854,0.132 -2.791,-0.141 -0.114,0.466 -0.242,0.919 -0.389,1.376 -0.562,1.749 -1.592,3.132 -3.088,4.147 -0.523,0.339 -1.117,0.637 -1.769,0.897 -0.05,0.02 -0.104,0.039 -0.154,0.067 -0.03,0.011 -0.062,0.019 -0.092,0.026 -1.132,0.311 -2.207,0.262 -3.233,-0.155 -0.022,-0.01 -0.044,-0.029 -0.076,-0.041 -0.85,-0.436 -1.599,-0.968 -2.248,-1.6 v -0.008 c -0.011,0.018 -0.029,0.036 -0.05,0.047 -0.029,0.027 -0.071,0.066 -0.101,0.096 l -0.123,0.108 c -0.14,0.125 -0.281,0.238 -0.426,0.348 -1.433,1.051 -3.119,1.369 -5.042,0.933 -0.031,-0.011 -0.073,-0.031 -0.105,-0.042 -2.917,-1.058 -4.768,-3.141 -5.56,-6.247 -0.002,-0.012 -0.002,-0.021 -0.003,-0.03 -0.307,-1.433 -0.484,-2.818 -0.555,-4.146 -0.056,-0.978 -0.036,-1.926 0.039,-2.846 -0.383,-0.087 -0.735,-0.203 -1.046,-0.357 -0.485,-0.244 -0.889,-0.556 -1.231,-0.935 v -0.007 c -0.41,-0.476 -0.709,-1.059 -0.899,-1.744 -0.011,-0.029 -0.012,-0.047 -0.023,-0.068 -0.015,-0.087 -0.018,-0.164 -0.032,-0.23 l 1.691,0.002 c 0.002,0.008 0.002,0.028 0.004,0.037 0.134,0.416 0.316,0.775 0.553,1.076 h 0.01 c 0.188,0.203 0.406,0.378 0.663,0.503 0.162,0.07 0.322,0.137 0.504,0.187 0.008,-0.06 0.098,-0.35 0.275,-0.871 0.119,-0.337 0.253,-0.647 0.407,-0.927 z"
         id="path1293" />
      <path
         inkscape:connector-curvature="0"
         style="fill:#255f27"
         d="m 496.826,378.301 c -0.009,0.242 -0.021,0.482 -0.032,0.727 l -1.689,-0.003 c 0.011,-0.215 0.021,-0.428 0.023,-0.649 0.007,-0.068 0.004,-0.127 0.011,-0.183 0,-0.215 0.088,-0.389 0.261,-0.533 0.172,-0.146 0.378,-0.205 0.601,-0.191 0.232,0.01 0.427,0.105 0.59,0.27 0.165,0.164 0.235,0.349 0.235,0.562"
         id="path1295" />
      <path
         inkscape:connector-curvature="0"
         style="fill:#9fc94c"
         d="m 488.898,364.109 h 0.011 0.01 c 0.01,0.009 0.031,0.009 0.042,0.009 2.065,0.574 3.982,1.342 5.737,2.301 0.011,0 0.021,0 0.021,0.01 0.128,0.067 0.249,0.136 0.368,0.205 -0.049,0.116 -0.222,0.474 -0.53,1.073 -0.279,0.551 -0.47,0.977 -0.55,1.297 -0.163,0.599 -0.297,1.363 -0.412,2.293 -0.12,0.996 -0.168,1.82 -0.139,2.458 0.032,0.725 0.077,1.211 0.14,1.463 0.116,0.504 0.375,1.064 0.78,1.674 0.102,0.145 0.229,0.418 0.393,0.797 0.13,0.3 0.256,0.521 0.358,0.686 -0.002,0.222 -0.013,0.435 -0.022,0.649 -0.004,0.143 -0.019,0.3 -0.023,0.443 -0.054,0.882 -0.155,1.696 -0.297,2.46 -0.529,2.717 -1.627,4.635 -3.301,5.745 -0.37,0.152 -0.744,0.27 -1.109,0.338 h -0.021 c -0.698,0.134 -1.394,0.084 -2.098,-0.139 -0.159,-0.061 -0.322,-0.128 -0.48,-0.194 -0.013,-0.01 -0.034,-0.021 -0.042,-0.03 h -0.014 l -0.012,-0.011 c -0.182,-0.095 -0.342,-0.202 -0.497,-0.329 -0.669,-0.669 -1.219,-1.425 -1.637,-2.266 -0.638,-1.309 -0.846,-2.654 -0.604,-4.047 -0.521,0.539 -0.828,1.197 -0.919,1.982 -0.243,2.041 0.418,3.842 1.97,5.383 0.119,0.108 0.25,0.205 0.38,0.303 -0.123,0.541 -0.265,1.073 -0.441,1.596 -0.406,1.247 -1.096,2.274 -2.077,3.065 h -0.011 -0.012 c -0.232,0.174 -0.478,0.338 -0.745,0.493 -0.376,0.231 -0.798,0.433 -1.264,0.619 -0.26,0.066 -0.509,0.104 -0.751,0.113 -0.398,0.008 -0.789,-0.048 -1.164,-0.194 -0.655,-0.351 -1.233,-0.768 -1.748,-1.263 -0.079,-0.087 -0.155,-0.163 -0.231,-0.242 -0.011,-0.011 -0.011,-0.011 -0.023,-0.019 -0.087,-0.098 -0.175,-0.196 -0.253,-0.28 -10e-4,-0.01 -10e-4,-0.01 -0.014,-0.021 -0.055,-0.065 -0.121,-0.142 -0.188,-0.211 -0.011,-0.02 -0.022,-0.04 -0.034,-0.05 -0.044,-0.067 -0.089,-0.125 -0.124,-0.183 -0.043,-0.05 -0.077,-0.107 -0.111,-0.156 -0.103,-0.165 -0.205,-0.339 -0.309,-0.523 -1.109,-1.984 -1.74,-4.057 -1.89,-6.217 -0.021,-0.214 -0.031,-0.426 -0.028,-0.63 -0.357,0.477 -0.574,1.009 -0.653,1.58 -0.316,2.272 0.154,4.528 1.422,6.766 -0.01,0.012 -0.01,0.012 -0.021,0.02 -0.051,0.049 -0.089,0.098 -0.142,0.146 -0.169,0.163 -0.342,0.31 -0.515,0.434 -1.007,0.705 -2.174,0.92 -3.511,0.635 -2.3,-0.883 -3.773,-2.569 -4.413,-5.059 -10e-4,-0.011 -10e-4,-0.021 -0.012,-0.03 -0.2,-0.956 -0.348,-1.819 -0.443,-2.575 -0.096,-0.706 -0.147,-1.413 -0.149,-2.121 -0.007,-0.628 -0.003,-1.245 -10e-4,-1.875 0.008,-0.32 0.013,-0.628 0.021,-0.939 0.009,-0.03 0.007,-0.067 0.005,-0.105 l 0.274,-3.445 c -0.199,0.009 -0.443,0.201 -0.72,0.58 -0.268,0.374 -0.498,0.82 -0.674,1.344 -0.178,0.521 -0.269,0.811 -0.275,0.871 -0.182,-0.05 -0.342,-0.116 -0.503,-0.186 -0.257,-0.126 -0.476,-0.301 -0.664,-0.504 h -0.01 c -0.236,-0.301 -0.419,-0.66 -0.553,-1.076 -0.502,-2.914 0.184,-5.586 2.05,-8.032 0.012,-0.009 0.01,-0.018 0.019,-0.028 0.011,-0.019 0.031,-0.038 0.04,-0.058 l 0.279,-0.348 c 0.009,-0.01 0.019,-0.01 0.018,-0.021 0.03,-0.029 0.061,-0.067 0.08,-0.095 h 0.013 c 2.052,-2.466 4.835,-4.33 8.359,-5.613 h -0.011 c 4.333,-1.552 9.209,-1.789 14.605,-0.716"
         id="path1297" />
    </g>
  </g>
</svg>
